<svg width="37" height="38" viewBox="0 0 37 38" fill="none" xmlns="http://www.w3.org/2000/svg">
<path d="M12.7402 15.0411C12.7402 13.2716 11.3246 11.856 9.73203 11.856C8.13945 11.856 6.54688 13.2716 6.54688 15.0411C6.54688 16.8107 7.96249 18.2263 9.55506 18.2263C11.1476 18.2263 12.7402 16.8107 12.7402 15.0411ZM8.31638 15.0411C8.31638 14.3333 8.84724 13.6255 9.55506 13.6255C10.2629 13.6255 10.9707 14.3333 10.9707 15.0411C10.9707 15.7489 10.4398 16.4567 9.73199 16.4567C9.02416 16.4567 8.31638 15.7489 8.31638 15.0411ZM17.341 18.9341C15.5714 18.9341 14.3328 20.3497 14.3328 22.1192C14.3328 23.8888 15.7484 25.3044 17.341 25.3044C18.9336 25.3044 20.3492 23.8888 20.3492 22.1192C20.3492 20.1727 18.9336 18.9341 17.341 18.9341ZM17.341 23.3579C16.6332 23.3579 16.1023 22.827 16.1023 21.9423C16.1023 21.2345 16.6332 20.5267 17.341 20.5267C18.0488 20.5267 18.5797 21.0575 18.5797 21.9423C18.5797 22.6501 18.0488 23.3579 17.341 23.3579ZM17.8718 13.6255C17.518 13.2716 16.9871 13.2716 16.6332 13.6255L7.96244 22.6501C7.60855 23.004 7.60855 23.5348 7.96244 23.8888C8.13941 24.0657 8.31634 24.0657 8.4933 24.0657C8.67027 24.0657 9.02416 23.8888 9.20113 23.7118L17.8718 14.6872C18.2257 14.6872 18.2257 13.9794 17.8718 13.6255V13.6255Z" fill="#DAA7EE"/>
<path d="M24.0656 0H2.6543C1.23869 0 0 1.23869 0 2.6543V36.2754C0 36.8063 0.353892 37.1601 0.884752 37.1601C1.41561 37.1601 1.7695 36.8063 1.7695 36.2754V2.6543C1.7695 2.12344 2.1234 1.76954 2.65425 1.76954H24.0656C24.5964 1.76954 24.9503 2.12344 24.9503 2.6543V36.2754C24.9503 36.8063 25.3042 37.1601 25.8351 37.1601C26.366 37.1601 26.7198 36.8063 26.7198 36.2754V2.6543C26.8968 1.23869 25.6581 0 24.0655 0H24.0656ZM34.3289 8.13986H28.1355C27.6047 8.13986 27.2508 8.49375 27.2508 9.02461C27.2508 9.55547 27.6047 9.90936 28.1355 9.90936H34.3289C34.8597 9.90936 35.2136 10.2633 35.2136 10.7941V36.2754C35.2136 36.8062 35.5675 37.1601 36.0984 37.1601C36.6292 37.1601 36.9831 36.8062 36.9831 36.2754V10.7941C37.1601 9.3785 35.9214 8.13981 34.3288 8.13981L34.3289 8.13986Z" fill="#DAA7EE"/>
</svg>
