<svg width="559" height="358" viewBox="0 0 559 358" fill="none" xmlns="http://www.w3.org/2000/svg">
<path d="M534.613 265.33C533.37 254.375 529.898 243.534 525.233 233.501C520.608 223.558 514.739 214.063 506.82 206.465C493.853 194.023 475.414 186.514 467.278 170.497C451.914 140.232 477.272 94.5259 434.398 79.0856C417.074 72.8454 396.304 78.7011 380.505 69.2448C368.511 62.0692 362.809 48.1152 355.018 36.519C343.243 18.9773 324.932 5.5743 304.238 1.3202C282.891 -3.07484 264.862 4.13918 246.347 13.8903C229.061 22.9879 221.604 42.4004 206.625 54.6501C197.002 62.5048 184.124 56.1365 172.682 57.5844C160.957 59.0708 149.617 63.9656 140.712 71.769C117.494 92.1297 115.687 125.535 99.4012 150.777C95.2496 157.21 90.6239 163.399 85.0244 168.627C68.3028 184.233 44.4055 189.666 28.1836 205.799C11.385 222.495 -0.839076 250.262 0.0450581 274.108C2.83841 349.233 95.8134 333.691 145.991 334.19C210.7 334.831 275.831 332.909 340.539 333.537C379.582 333.921 416.921 335.062 455.861 331.704C488.343 328.898 523.901 327.873 533.242 289.766C535.241 281.744 535.548 273.505 534.613 265.33Z" fill="#999999" fill-opacity="0.2"/>
<path d="M495.62 179.928C489.213 179.723 482.307 176.994 478.437 171.42C475.4 167.05 474.234 161.22 476.144 156.249C482.845 138.809 500.874 152.558 507.216 161.746C515.456 173.713 506.23 180.274 495.62 179.928Z" fill="#999999" fill-opacity="0.2"/>
<path d="M399.648 50.1264C401.211 52.1766 402.044 54.5727 401.173 57.6608C399.904 62.1199 393.831 64.9132 389.5 64.4519C381.837 63.6319 374.29 52.2022 376.558 44.8344C377.865 40.6059 382.837 37.5563 386.95 39.2093C388.846 39.9781 390.294 41.5413 391.768 42.9636C394.164 45.2701 397.559 47.3971 399.648 50.1264Z" fill="#999999" fill-opacity="0.2"/>
<path d="M360.311 155.812H170.581C166.712 155.812 163.572 152.673 163.572 148.803V29.6245C163.572 25.7548 166.712 22.6155 170.581 22.6155H360.311C364.181 22.6155 367.32 25.7548 367.32 29.6245V148.816C367.32 152.673 364.181 155.812 360.311 155.812Z" fill="#D6BBE0"/>
<path d="M363.194 25.1782H167.686V147.176H363.194V25.1782Z" fill="white"/>
<path d="M287.749 64.2087C286.365 76.3175 292.938 88.3751 304.65 93.462L315.106 67.0662L287.749 64.2087Z" fill="#895EF6"/>
<path d="M315.029 67.0282L304.611 93.4498C304.688 93.4754 304.778 93.5266 304.855 93.5523C319.283 99.6771 335.966 92.95 342.091 78.5092C346.025 69.2322 344.654 59.0454 339.349 51.3188L315.08 67.0411L315.029 67.0282Z" fill="#DAA7EE"/>
<path d="M307.84 40.2218L315.118 67.0662L322.524 39.8118C317.873 38.5817 311.85 38.8123 307.84 40.2218Z" fill="#E527BB"/>
<path d="M315.029 67.0407L307.802 40.2091C310.928 39.2737 295.898 41.9774 289.811 56.3286C288.722 58.9041 288.005 61.5309 287.697 64.1833L315.029 67.0407Z" fill="#F66ED8"/>
<path d="M315.119 67.0662L333.417 45.0397C331.508 43.5533 329.381 42.2848 327.049 41.2981C325.562 40.6703 324.05 40.1705 322.525 39.8118L315.119 67.0662Z" fill="#E527BB"/>
<path d="M333.417 45.0397L315.119 67.0661L339.336 51.3311C344.641 59.0577 346.025 69.2188 342.091 78.4958C335.967 92.9238 319.309 99.6381 304.881 93.5133C319.322 99.6381 335.967 92.9366 342.091 78.4958C347.96 64.67 342.014 48.8196 328.829 42.1182C330.482 42.951 332.007 43.9377 333.417 45.0397Z" fill="#D3D6DF"/>
<path d="M297.307 105.404H348.804" stroke="#0B0202" stroke-width="1.28135" stroke-miterlimit="10"/>
<path d="M297.307 112.875H348.804" stroke="#0B0202" stroke-width="1.28135" stroke-miterlimit="10"/>
<path d="M297.307 120.345H348.804" stroke="#0B0202" stroke-width="1.28135" stroke-miterlimit="10"/>
<path d="M297.307 127.815H337.311" stroke="#0B0202" stroke-width="1.28135" stroke-miterlimit="10"/>
<path d="M370.177 299.35C374.175 307.217 368.217 311.446 364.463 318.109C363.668 319.518 363.117 321.543 364.373 322.568C365.629 323.58 367.448 322.658 368.768 321.735C375.444 317.032 382.132 312.317 388.808 307.614C392.64 304.911 381.915 294.224 379.864 291.495L378.429 289.586C376.059 286.421 372.023 285.614 369.485 287.805C367.294 289.701 367.013 293.353 368.627 296.441C369.165 297.453 369.703 298.414 370.177 299.35Z" fill="#A78BEF"/>
<path d="M333.915 223.763C337.554 222.456 342.141 222.648 345.985 222.597C350.188 222.545 354.378 222.674 358.581 222.507C362.425 222.353 366.243 222.071 369.793 220.546C372.752 219.278 375.469 217.497 377.891 215.37C382.811 211.064 386.489 205.542 389.884 200.019C394.049 193.228 402.941 178.07 393.51 171.791C388.577 168.511 385.348 172.098 383.631 176.724C382.721 179.184 382.158 181.76 381.568 184.31C380.748 187.821 379.8 190.665 378.198 193.971C377.16 196.124 376.11 198.289 374.751 200.263C373.175 202.556 371.202 204.542 368.998 206.234C364.885 209.399 359.952 211.756 355.134 213.576C352.366 214.627 349.56 215.575 346.715 216.408C344.37 217.1 341.154 218.509 338.668 218.214C337.938 218.125 337.259 217.868 336.541 217.689C334.197 217.1 331.685 217.484 329.43 218.33C327.162 219.175 325.099 220.47 323.049 221.751C321.178 222.917 323.574 223.481 324.702 223.096C326.137 222.597 327.687 221.648 328.956 220.828C327.623 221.687 326.239 222.584 325.406 223.929C325.24 224.198 325.15 224.66 325.471 224.749C325.611 224.788 325.765 224.711 325.881 224.634C327.021 223.929 328.097 223.135 329.097 222.251C328.008 223.212 330.583 224.48 331.237 224.48C332.172 224.467 333.043 224.07 333.915 223.763Z" fill="#9A5546"/>
<path d="M404.496 315.84H406.994V260.665H404.496V315.84Z" fill="#0B0202"/>
<path d="M427.62 327.411C427.62 319.262 413.204 315.853 406.003 315.84C397.431 315.828 384.387 318.98 384.387 327.411" stroke="#0B0202" stroke-width="2.56271" stroke-miterlimit="10"/>
<path d="M405.76 329.59V316.059" stroke="#0B0202" stroke-width="2.56271" stroke-miterlimit="10"/>
<path d="M380.838 329.384C380.838 331.332 382.427 332.921 384.374 332.921C386.322 332.921 387.911 331.332 387.911 329.384C387.911 327.437 386.322 325.848 384.374 325.848C382.427 325.848 380.838 327.424 380.838 329.384Z" fill="#0B0202"/>
<path d="M402.289 329.384C402.289 331.332 403.878 332.921 405.826 332.921C407.773 332.921 409.362 331.332 409.362 329.384C409.362 327.437 407.773 325.848 405.826 325.848C403.865 325.848 402.289 327.424 402.289 329.384Z" fill="#0B0202"/>
<path d="M423.725 329.384C423.725 331.332 425.314 332.921 427.261 332.921C429.209 332.921 430.798 331.332 430.798 329.384C430.798 327.437 429.209 325.848 427.261 325.848C425.301 325.848 423.725 327.424 423.725 329.384Z" fill="#0B0202"/>
<path d="M408.182 240.715V200.122C408.182 193.1 413.871 187.398 420.905 187.398H434.911C441.932 187.398 447.634 193.087 447.634 200.122V245.494C447.634 255.514 439.434 263.715 429.414 263.715H408.438H383.759C382.58 263.715 381.619 262.754 381.619 261.575C381.619 260.396 382.58 259.435 383.759 259.435H389.474C399.789 259.448 408.182 251.055 408.182 240.715Z" fill="#0B0202"/>
<path d="M348.431 333.536H355.594C356.888 333.395 358.08 333.254 359.015 333.228C363.782 333.139 368.535 333.036 373.302 332.946C374.571 332.921 375.609 331.678 375.609 330.166V314.008L375.621 311.625C375.647 307.665 372.918 304.59 369.573 304.795C366.69 304.987 364.256 307.717 363.666 311.163C363.474 312.304 363.32 313.38 363.128 314.418C362.577 317.442 361.783 320.03 359.092 322.157C355.133 325.284 349.905 324.835 345.753 327.565C345.381 327.808 345.01 328.09 344.766 328.513C344.292 329.333 344.446 330.461 344.92 331.242C345.702 332.511 346.958 333.19 348.431 333.536Z" fill="#A78BEF"/>
<path d="M389.615 212.705C389.628 212.653 389.641 212.589 389.654 212.537L389.615 212.705Z" fill="#884636"/>
<path d="M399.188 167.229L398.996 168.113L399.188 167.229Z" fill="#884636"/>
<path d="M385.143 167.024C385.899 165.09 386.885 163.27 388.269 161.681C392.062 157.286 398.071 154.019 403.979 154.16C403.44 159.516 402.71 164.846 401.787 170.151C400.609 176.968 399.84 183.708 396.406 189.884C391.344 187.411 385.399 186.962 380.799 183.708C381.811 179.082 383.387 171.509 385.143 167.024Z" fill="#A78BEF"/>
<path d="M343.883 245.495C344.985 242.752 347.112 240.446 349.56 238.742C352.379 236.794 355.646 235.577 358.914 234.513C370.869 230.656 382.901 229.888 395.304 228.606C396.919 228.44 398.546 228.273 400.161 228.119C400.289 228.107 400.43 228.094 400.558 228.081C406.554 227.966 411.808 234.219 412.295 242.048C412.782 249.877 408.31 256.335 402.313 256.45C402.172 256.45 402.044 256.437 401.903 256.437C393.459 256.604 384.964 255.848 376.532 256.232C369.869 256.54 362.988 259.256 356.543 260.935C352.789 261.909 348.214 262.344 345.588 259.5C344.319 258.129 343.781 256.258 343.435 254.426C342.948 251.888 342.769 249.236 343.448 246.75C343.563 246.34 343.717 245.905 343.883 245.495Z" fill="#0B0202"/>
<path d="M350.162 238.101C353.314 236.14 357.415 235.718 360.849 237.166C369.818 240.946 370.818 257.488 372.548 265.65C373.829 271.672 374.944 277.72 375.892 283.794C376.161 285.511 379.198 300.798 378.185 301.31C377.237 301.784 361.348 303.258 361.477 303.604C358.645 296.249 355.813 288.881 352.981 281.526C348.625 270.199 336.08 248.89 349.24 238.742C349.534 238.511 349.842 238.293 350.162 238.101Z" fill="#222222"/>
<path d="M365.372 250.248C369.28 243.905 380.018 240.24 386.36 237.127C389.692 235.499 393.088 233.962 396.355 232.219C401.122 229.682 404.658 226.735 408.579 222.904C411.539 220.021 414.704 217.227 418.522 215.664C422.341 214.114 426.967 213.986 430.388 216.292C434.988 219.393 436.064 225.633 436.41 231.169C436.987 240.574 436.167 252.593 425.672 256.104C420.983 257.667 416.306 259.23 411.616 260.793C402.019 263.997 392.421 267.213 382.811 270.416C382.709 270.455 382.619 270.506 382.516 270.545C382.273 270.634 382.017 270.711 381.748 270.775C377.839 271.685 372.676 269.75 368.409 265.598C363.296 260.588 362.425 255.027 365.372 250.248Z" fill="#1A2E35"/>
<path d="M391.601 160.873C399.379 151.289 415.947 155.12 423.097 164.487C426.928 169.51 426.082 171.175 427.607 177.326C433.002 199.109 435.782 209.936 436.436 225.377C436.461 225.966 436.474 226.581 436.218 227.106C435.68 228.17 434.27 228.375 433.066 228.452C427.71 228.772 422.597 228.529 417.254 228.529C413.333 228.324 409.412 228.144 405.517 227.683C402.928 227.376 398.187 227.657 397.482 224.518C395.407 215.305 393.318 206.079 391.242 196.867C389.807 190.511 388.372 184.143 387.603 177.659C387.129 173.623 387.065 169.048 388.821 165.281C389.564 163.718 390.499 162.232 391.601 160.873Z" fill="#A78BEF"/>
<path d="M399.571 165.986C403.441 165.294 405.939 161.501 405.055 157.67L401.659 141.794L389.141 144.049L391.511 160.117C392.036 164.013 395.714 166.691 399.571 165.986Z" fill="#AF6553"/>
<path d="M394.087 152.8C395.535 153.031 397.021 152.711 398.303 151.557C399.546 150.456 400.468 149.046 401.378 147.662C403.582 144.305 405.876 140.628 405.658 136.617C405.555 134.733 404.645 133.003 403.351 131.645C402.672 130.941 402.134 130.364 401.135 130.236C400.033 130.082 398.905 130.313 397.816 130.39C396.278 130.505 394.728 130.377 393.241 129.992C392.28 129.749 391.23 129.416 390.358 129.864C389.449 130.338 389.128 131.479 388.898 132.478C388.398 134.695 387.719 136.924 387.36 139.154C386.988 141.512 387.347 143.69 387.347 146.022C387.898 149.52 390.538 152.237 394.087 152.8Z" fill="#AF6553"/>
<path d="M405.17 141.551C405.977 140.346 406.9 139.219 407.476 137.822C407.835 136.976 408.066 136.041 407.95 135.131C407.425 131.133 402.876 127.968 399.276 127.302C397.674 127.007 396.034 126.969 394.445 126.636C393.266 126.392 392.113 125.969 390.908 126.008C389.384 126.046 387.897 126.879 387.052 128.148C386.513 128.955 386.231 129.942 386.424 130.89C386.616 131.838 387.321 132.696 388.256 132.914C389.038 133.107 389.845 132.863 390.627 132.684C393.484 132.043 395.611 133.042 398.327 133.837C399.763 134.26 401.146 135.029 401.826 136.412C403.235 139.321 399.506 142.614 401.146 145.279C403.158 148.611 404.337 142.794 405.17 141.551Z" fill="#0B0202"/>
<path d="M365.705 250.646C361.413 258.693 362.182 267.97 361.72 276.747C361.221 286.254 359.35 295.698 359.85 305.257C360.247 312.727 366.385 319.121 374.393 316.623C377.122 315.777 379.211 313.47 380.454 310.908C381.697 308.332 382.222 305.488 382.735 302.681C385.874 285.319 387.296 267.624 388.795 250.018C389.808 236.884 369.588 243.368 365.705 250.646Z" fill="#0B0202"/>
<path d="M176.487 201.941L177.076 210.334L162.674 206.759L163.622 198.609L168.722 200.16C168.965 200.237 169.222 200.211 169.452 200.083L172.643 198.327C173.271 197.981 174.027 197.905 174.706 198.135" fill="#FAC4AB"/>
<path d="M100.221 260.204H97.7227V316.801H100.221V260.204Z" fill="#0B0202"/>
<path d="M77.1055 328.385C77.1055 320.235 91.5207 316.827 98.7219 316.814C107.294 316.801 120.338 319.953 120.338 328.385" stroke="#0B0202" stroke-width="2.56271" stroke-miterlimit="10"/>
<path d="M98.9648 330.563V317.032" stroke="#0B0202" stroke-width="2.56271" stroke-miterlimit="10"/>
<path d="M123.888 330.345C123.888 332.293 122.299 333.882 120.351 333.882C118.403 333.882 116.814 332.293 116.814 330.345C116.814 328.397 118.403 326.809 120.351 326.809C122.299 326.809 123.888 328.397 123.888 330.345Z" fill="#0B0202"/>
<path d="M102.451 330.345C102.451 332.293 100.862 333.882 98.9145 333.882C96.9668 333.882 95.3779 332.293 95.3779 330.345C95.3779 328.397 96.9668 326.809 98.9145 326.809C100.862 326.809 102.451 328.397 102.451 330.345Z" fill="#0B0202"/>
<path d="M81.0008 330.345C81.0008 332.293 79.4119 333.882 77.4643 333.882C75.5166 333.882 73.9277 332.293 73.9277 330.345C73.9277 328.397 75.5166 326.809 77.4643 326.809C79.4119 326.809 81.0008 328.397 81.0008 330.345Z" fill="#0B0202"/>
<path d="M96.5436 244.546V203.953C96.5436 196.931 90.8544 191.229 83.8197 191.229H69.8274C62.8055 191.229 57.1035 196.918 57.1035 203.953V249.325C57.1035 259.346 65.3042 267.546 75.3244 267.546H96.3001H120.992C122.171 267.546 123.132 266.585 123.132 265.406C123.132 264.227 122.171 263.266 120.992 263.266H115.277C104.936 263.266 96.5436 254.886 96.5436 244.546Z" fill="#0B0202"/>
<path d="M184.446 319.479C184.779 320.082 185.138 320.684 185.535 321.248C186.804 323.054 189.572 324.643 191.852 324.336C194.3 324.015 196.696 323.144 199.169 323.259C200.079 323.298 201.04 323.516 201.68 324.144C204.538 326.924 197.734 329.41 195.863 329.974C191.609 331.255 187.355 332.524 183.101 333.805C182.306 334.048 181.473 334.292 180.653 334.138C177.36 333.536 176.361 329.243 175.361 326.655C174.657 324.823 173.452 323.234 172.696 321.414C172.132 320.056 171.235 316.571 172.491 315.379C172.799 315.084 173.196 314.931 173.555 314.713C174.272 314.29 174.849 313.662 175.592 313.278C177.681 312.189 180.307 313.419 181.832 315.225C182.909 316.507 183.639 318.019 184.446 319.479Z" fill="#A78BEF"/>
<path d="M113.676 217.036C113.663 216.984 113.651 216.92 113.638 216.868L113.676 217.036Z" fill="#F8AD8D"/>
<path d="M104.116 171.559L104.296 172.443L104.116 171.559Z" fill="#F8AD8D"/>
<path d="M113.521 216.356C113.546 216.522 113.598 216.689 113.636 216.856L113.495 216.215C113.521 216.266 113.521 216.305 113.521 216.356Z" fill="#F8AD8D"/>
<path d="M126.925 214.396L113.688 217.035C114.637 220.341 117.955 222.455 121.402 221.827C124.939 221.187 127.322 217.906 126.925 214.396Z" fill="#F8AD8D"/>
<path d="M164.674 249.966C164.559 249.185 164.11 248.467 164.072 247.66C163.303 232.348 123.94 230.989 113.612 230.259C110.127 230.016 106.526 229.977 103.233 231.169C97.2747 233.347 90.791 241.176 90.9704 247.75C91.1498 254.118 95.4936 260.742 102.374 260.947C102.528 260.947 102.682 260.935 102.823 260.935C113.074 260.986 123.337 261.05 133.588 261.101C138.457 261.127 143.314 261.614 148.183 261.665C152.014 261.703 156.806 262.395 160.202 260.217C163.687 258 165.251 253.862 164.674 249.966Z" fill="#222222"/>
<path d="M118.762 246.302C128.667 251.683 110.408 260.935 100.887 260.973L84.3578 260.999C74.7861 260.999 67.3543 256.207 67.0596 246.75V218.176L103.719 218.266C103.719 218.266 108.012 240.446 118.762 246.302Z" fill="#0B0202"/>
<path d="M154.589 250.734C146.888 245.609 115.841 238.075 111.6 236.409C103.22 233.116 93.9812 231.732 85.0246 232.911C77.4261 233.91 69.4689 235.192 67.5725 243.764C65.8811 251.439 70.7375 259.038 78.4128 260.716C78.5922 260.755 78.7587 260.767 78.9381 260.806L150.271 274.888C150.425 274.926 150.579 274.978 150.745 275.016C151.13 275.106 151.501 275.157 151.898 275.208C157.498 275.849 162.008 272.582 163.251 266.956C164.609 260.819 161.086 255.065 154.589 250.734Z" fill="#0B0202"/>
<path d="M127.617 183.002C125.643 180.145 123.939 177.108 122.184 174.123C120.159 170.676 117.981 166.294 115.021 163.603C114.162 162.834 113.304 162.052 112.33 161.45C109.485 159.656 101.964 157.145 100.388 161.655C99.965 162.885 100.068 164.231 100.273 165.512C101.285 171.624 104.488 177.134 107.768 182.387C107.884 182.58 108.012 182.772 108.127 182.977C111.305 188.102 114.367 193.42 118.686 197.7C122.786 201.761 129.692 206.297 135.087 201.697C136.714 200.314 137.534 198.033 137.163 195.919C136.407 191.677 132.178 188.935 129.628 185.757C128.936 184.86 128.257 183.938 127.617 183.002Z" fill="#A78BEF"/>
<path d="M182.562 314.111C183.651 309.331 180.447 304.398 178.487 300.157C176.116 295.031 173.733 289.893 171.362 284.768C168.467 278.527 165.93 271.941 162.624 265.906C162.534 265.74 159.677 260.294 159.561 260.127C156.473 255.156 143.813 252.439 138.521 255.04C133.229 257.641 133.498 262.716 136.574 267.687C136.689 267.879 138.573 273.223 138.573 273.223C142.686 279.527 146.799 285.831 150.912 292.135C154.269 297.287 157.626 302.438 160.996 307.576C164.277 312.599 165.712 318.634 172.413 320.107C175.834 320.863 179.832 319.595 181.588 316.558C182.075 315.738 182.382 314.931 182.562 314.111Z" fill="#222222"/>
<path d="M115.457 166.486C114.368 159.413 107.5 158.516 101.324 158.324C95.4168 158.132 89.4457 158.401 83.6668 160.656C77.3241 163.142 71.3914 167.908 68.2649 174.008C64.9847 180.427 67.8933 188.423 67.9574 195.099C68.0727 207.874 67.8036 220.7 67.1758 233.539C73.48 233.257 79.7843 233.206 86.1014 232.873C91.1755 232.617 96.2625 232.386 101.298 231.592C103.143 231.297 108.077 231.053 109.332 229.567C109.947 228.837 109.678 226.838 109.742 225.928C109.858 224.467 110.011 223.007 110.165 221.546C110.857 215.447 111.908 209.386 112.92 203.338C114.932 191.357 116.867 179.159 115.521 166.986C115.508 166.806 115.483 166.64 115.457 166.486Z" fill="#A78BEF"/>
<path d="M97.8386 167.344C93.9817 166.562 91.5727 162.718 92.5337 158.9L96.2881 143.101L108.756 145.638L106.026 161.642C105.424 165.537 101.695 168.126 97.8386 167.344Z" fill="#F1AD9B"/>
<path d="M94.9551 148.93L107.974 148.136L106.667 157.849L99.0682 158.771L94.9551 148.93Z" fill="url(#paint0_linear_177_3070)"/>
<path d="M99.2085 154.096C95.9026 153.096 93.4936 150.226 92.7761 146.83L91.5203 140.846C90.7259 137.041 93.1605 133.312 96.9789 132.518C100.208 131.838 104.782 129.737 107.383 132.671C108.345 133.748 108.883 135.131 109.306 136.515C110.331 139.847 111.561 144.895 110.407 148.291C108.921 152.686 104.116 155.569 99.2085 154.096Z" fill="#F1AD9B"/>
<path d="M109.973 133.465C109.653 133.67 109.307 133.85 108.961 134.003C105.629 135.477 101.708 135.157 98.3896 136.669C96.9417 137.322 95.6475 138.424 95.3144 140.039C94.8018 142.499 95.135 145.036 94.9684 147.547C94.8915 148.624 94.4174 149.995 93.3283 149.982C92.6491 149.969 92.1366 149.38 91.7394 148.829C89.4842 145.574 88.331 141.576 88.5104 137.63C88.6513 134.554 88.8948 132.043 91.6497 130.134C93.3026 128.98 95.2759 128.391 97.2364 127.891C97.608 127.802 98.0052 127.712 98.364 127.84C98.7228 127.968 98.9918 128.404 98.8124 128.737C101.145 127.661 103.669 126.559 106.193 127.007C106.847 127.123 107.603 127.494 107.603 128.16C107.603 128.647 107.205 129.019 106.821 129.314C107.551 129.032 108.294 128.75 109.076 128.699C109.858 128.66 110.703 128.891 111.19 129.493C111.805 130.249 111.741 131.402 111.216 132.235C110.921 132.735 110.473 133.132 109.973 133.465Z" fill="#0B0202"/>
<path d="M61.563 216.317C66.0606 216.317 70.5709 216.253 75.0685 216.33C74.7225 209.667 77.1443 202.107 78.81 195.688C80.6424 188.627 82.795 181.657 84.794 174.648C85.3578 172.675 85.9087 170.637 85.7293 168.587C85.5243 166.422 83.4742 162.565 80.9371 162.603C80.0017 162.616 79.1304 163.026 78.3103 163.487C72.5314 166.691 68.4439 172.393 66.0606 178.556C63.6772 184.719 62.8444 191.357 62.319 197.943C62.2037 199.365 61.2555 216.317 61.563 216.317Z" fill="#A78BEF"/>
<path d="M115.777 216.831L80.9624 210.975C78.2459 211.18 75.5294 211.436 72.8386 211.821C71.6213 215.46 70.0837 218.971 68.6357 222.52L115.623 222.507C115.918 222.507 116.161 222.276 116.174 221.982L116.405 217.612C116.417 217.228 116.148 216.895 115.777 216.831Z" fill="#F1AD9B"/>
<path d="M130.013 214.486C127.156 213.96 126.028 214.767 123.158 215.818C122.069 216.215 120.531 215.024 121.595 214.524C124.503 213.179 128.142 211.82 131.128 213.332C131.807 213.704 131.064 214.691 130.013 214.486Z" fill="#F1AD9B"/>
<path d="M113.958 217.959C115.546 216.408 117.238 215.87 119.006 215.306C121.325 214.563 123.619 214.076 127.822 215.024C129.282 215.345 127.002 217.433 126.066 218.868C125.092 220.368 123.247 222.905 122.158 222.764C119.531 222.456 119.608 222.149 116.546 222.469C113.227 222.828 110.844 220.995 113.958 217.959Z" fill="#F1AD9B"/>
<path d="M129.513 225.595C127.207 222.853 124.183 221.277 120.928 220.764C119.403 220.521 119.531 222.276 120.954 222.494C123.568 222.904 125.989 224.07 127.988 226.159C128.796 226.992 130.256 226.479 129.513 225.595Z" fill="#F1AD9B"/>
<path d="M135.51 224.146C131.166 218.406 126.912 216.33 120.39 217.15C119.25 217.291 119.596 218.995 120.736 218.918C126.067 218.534 130.59 219.905 133.678 224.223C134.357 225.159 136.202 225.056 135.51 224.146Z" fill="#F1AD9B"/>
<path d="M132.179 225.351C130.27 223.185 128.13 220.904 125.554 219.521C123.209 218.265 120.788 218.342 118.212 218.611C117.059 218.726 117.482 220.482 118.622 220.366C121.313 220.097 123.581 220.238 125.862 221.84C127.745 223.16 128.975 223.992 130.487 225.722C131.256 226.568 132.948 226.222 132.179 225.351Z" fill="#F1AD9B"/>
<path d="M127.823 215.024C126.734 214.639 125.785 216.177 126.875 216.561C130.501 217.855 132.077 218.329 134.576 221.277C135.319 222.148 136.754 221.661 136.011 220.777C133.307 217.599 131.744 216.42 127.823 215.024Z" fill="#F1AD9B"/>
<path d="M103.72 223.66C103.797 223.416 104.335 221.994 104.425 221.75C104.848 219.546 106.27 214.344 106.667 212.127L70.0462 209.129L70.0334 209.193C69.5208 209.065 68.9955 208.975 68.4445 208.962C64.703 208.898 61.6149 211.871 61.5508 215.613C61.4868 219.354 64.4595 222.442 68.201 222.506C68.2139 222.506 68.2267 222.506 68.2267 222.506L103.72 223.66Z" fill="#A78BEF"/>
<path d="M419.419 213.921C418.894 215.087 418.33 216.241 417.728 217.368C416.818 219.085 415.6 220.918 413.704 221.289C404.325 223.173 394.548 223.25 384.938 222.635C384.374 222.596 383.682 222.468 383.503 221.93C383.4 221.622 383.515 221.302 383.631 221.007C385.284 216.83 387.91 214.037 391.831 212.127C392.792 211.666 405.35 207.13 405.375 208.95C405.209 199.929 405.055 190.767 407.477 182.08C408.22 179.427 409.232 176.762 411.116 174.738C412.987 172.713 415.87 171.444 418.548 172.136C420.995 172.764 422.84 174.904 423.763 177.249C425.877 182.644 425.082 190.139 424.429 195.765C423.699 202.03 422.007 208.168 419.419 213.921Z" fill="#9A5546"/>
<path d="M164.61 196.815C159.612 196.559 153.654 195.162 149.029 194.355C145.928 193.817 142.865 193.048 139.752 192.561C137.266 192.164 135.023 190.882 132.435 190.857C130.231 190.831 128.001 191.562 126.336 193.01C124.67 194.47 120.916 199.416 123.337 201.531C126.028 203.875 129.706 204.644 133.204 205.323C138.598 206.374 143.993 206.528 149.477 206.861C154.128 207.143 158.805 207.361 163.469 207.386C163.956 203.863 164.418 200.352 164.61 196.815Z" fill="#A78BEF"/>
<path d="M405.94 174.712C405.876 175.02 405.825 175.327 405.76 175.635C405.44 177.441 402.365 187.372 403.326 188.474C404.979 190.357 407.567 191.024 410.002 191.613C415.64 192.958 421.265 194.304 426.903 195.662C427.249 195.739 426.672 186.667 426.659 185.706C426.557 178.351 427.351 171.035 423.084 164.5C421.624 162.257 419.445 160.502 416.947 159.554C414.922 158.785 412.334 158.669 410.873 160.271C410.296 160.912 409.976 161.745 409.681 162.552C408.221 166.55 406.786 170.56 405.94 174.712Z" fill="#A78BEF"/>
<path d="M41.6006 336.816H43.4073L58.13 223.314H56.3362L41.6006 336.816Z" fill="#2D393E"/>
<path d="M57.8984 336.816H59.7051L74.4279 223.314H72.634L57.8984 336.816Z" fill="#2D393E"/>
<path d="M489.752 336.816H487.958L473.223 223.314H475.029L489.752 336.816Z" fill="#2D393E"/>
<path d="M473.453 336.816H471.659L456.924 223.314H458.731L473.453 336.816Z" fill="#2D393E"/>
<path d="M500.478 222.391H30.4004V227.209H500.478V222.391Z" fill="#0B0202"/>
<path d="M475.223 226.837H55.6689V228.721H475.223V226.837Z" fill="#2D393E"/>
<path d="M366.23 223.083H418.1C418.1 222.084 417.292 221.276 416.293 221.276H366.243V223.083H366.23Z" fill="#D6E0FF"/>
<path d="M357.325 221.276H409.156L399.917 193.907C399.597 192.971 398.661 192.331 397.585 192.331H350.867C349.227 192.331 348.048 193.804 348.535 195.252L357.325 221.276Z" fill="#FFF4F4"/>
<path d="M357.32 223.078H409.395V221.272H357.32V223.078Z" fill="#9CB4FF"/>
<path d="M375.866 206.452C376.033 207.554 377.122 208.207 378.288 208.118C379.454 208.015 380.466 207.182 380.402 206.042C380.325 204.889 379.249 203.902 377.993 203.915C377.917 203.915 377.852 203.94 377.801 203.966C377.737 203.953 377.673 203.94 377.596 203.966C376.43 204.261 375.713 205.375 375.866 206.452ZM377.788 204.632C377.827 204.619 377.852 204.607 377.891 204.594C377.917 204.594 377.942 204.607 377.968 204.607C378.57 204.632 379.147 204.901 379.429 205.388C380.108 206.58 379.147 207.4 378.147 207.438C376.251 207.515 376.11 205.055 377.788 204.632Z" fill="#0B0202"/>
<path d="M184.445 222.52H132.576C132.576 221.52 133.383 220.713 134.383 220.713H184.433V222.52H184.445Z" fill="#0B0202"/>
<path d="M193.35 220.713H141.52L150.758 193.343C151.078 192.408 152.014 191.767 153.09 191.767H199.808C201.448 191.767 202.627 193.241 202.14 194.689L193.35 220.713Z" fill="#0B0202"/>
<path d="M193.352 220.713H141.277V222.52H193.352V220.713Z" fill="#474747"/>
<path d="M173.093 203.402C173.017 203.389 172.953 203.389 172.888 203.402C172.837 203.376 172.773 203.35 172.696 203.35C171.441 203.338 170.351 204.324 170.287 205.478C170.21 206.605 171.223 207.451 172.402 207.553C173.568 207.656 174.657 206.99 174.823 205.888C174.964 204.811 174.247 203.696 173.093 203.402ZM172.53 206.887C171.517 206.849 170.556 206.028 171.248 204.837C171.53 204.337 172.107 204.081 172.709 204.055C172.735 204.055 172.76 204.055 172.786 204.042C172.812 204.055 172.85 204.068 172.888 204.081C174.567 204.491 174.426 206.964 172.53 206.887Z" fill="#FFF4F4"/>
<path d="M399.917 142.141C399.968 142.576 400.083 143.012 400.019 143.448C399.981 143.755 399.84 144.05 399.827 144.357C399.789 145.19 400.878 146.677 401.826 146.19C402.044 146.074 402.198 145.869 402.326 145.664C403.184 144.28 404.184 139.155 400.955 140.308C400.493 140.475 400.083 140.846 399.955 141.333C399.878 141.59 399.878 141.859 399.917 142.141Z" fill="#AF6553"/>
<path d="M401.07 142.191C401.263 141.999 401.608 142.05 401.801 142.243C401.993 142.435 402.057 142.717 402.07 142.986C402.083 143.626 401.788 144.28 401.275 144.677" fill="#0B0202"/>
<path d="M142.648 247.262C136.574 242.303 128.015 242.444 120.275 241.201C114.624 240.304 109.115 238.549 103.989 236.024" stroke="#0B0202" stroke-width="0.640677" stroke-miterlimit="10"/>
<path d="M82.9619 180.734C80.7196 188.448 78.4772 196.162 76.2348 203.888C75.7735 205.452 75.3635 207.271 76.2989 208.604C77.2343 209.936 79.0922 210.167 80.7196 210.27C88.5486 210.769 96.3777 211.256 104.207 211.756" stroke="#0B0202" stroke-width="0.640677" stroke-miterlimit="10"/>
<path d="M391.845 234.334C386.168 237.012 380.582 239.882 375.098 242.945C372.189 244.572 369.255 246.302 367.115 248.852C363.373 253.336 362.694 259.551 362.271 265.368C361.323 278.272 359.824 286.216 359.76 299.158" stroke="#0B0202" stroke-width="0.640677" stroke-miterlimit="10"/>
<path d="M406.938 171.073C404.594 176.865 403.645 183.207 404.209 189.422" stroke="#0B0202" stroke-width="0.640677" stroke-miterlimit="10"/>
<path d="M426.057 195.137C426.595 190.729 426.966 186.295 427.184 181.849" stroke="#0B0202" stroke-width="0.640677" stroke-miterlimit="10"/>
<path d="M389.422 186.885C388.602 183.272 388.244 179.556 388.359 175.853" stroke="#0B0202" stroke-width="0.640677" stroke-miterlimit="10"/>
<path d="M97.505 143.934C97.2744 145.459 96.7106 146.945 94.8782 146.33C91.7774 145.292 91.2136 140.718 94.1863 139.206C94.7757 138.911 95.5061 138.808 96.0955 139.09C96.3134 139.193 96.5184 139.346 96.685 139.526C97.4794 140.333 97.7228 141.538 97.6332 142.665C97.6075 143.062 97.5691 143.498 97.505 143.934Z" fill="#F1AD9B"/>
<path d="M95.5828 141.743C95.0831 141.641 94.5193 141.833 94.2118 142.243C93.9042 142.653 93.8658 143.255 94.1477 143.678C94.4296 144.101 95.0318 144.293 95.5059 144.088" fill="#0B0202"/>
<path d="M278.831 194.483L274.936 216.971" stroke="#0B0202" stroke-width="2.56271" stroke-miterlimit="10"/>
<path d="M267.35 189.884L270.668 212.871" stroke="#00BCB4" stroke-width="2.56271" stroke-miterlimit="10"/>
<path d="M274.935 186.014L273.025 212.872" stroke="#FF2C79" stroke-width="2.56271" stroke-miterlimit="10"/>
<path d="M279.945 206.016H266.119V222.391H279.945V206.016Z" fill="#A78BEF"/>
<path d="M170.517 303.565C171.209 305.59 172.067 307.281 174.438 308.422C177.923 310.088 182.177 309.101 185.79 310.472C186.111 310.6 186.444 310.741 186.675 311.01C187.123 311.51 187.085 312.317 186.764 312.919C185.034 316.136 178.487 315.661 175.386 316.097C171.49 316.635 167.582 317.186 163.687 317.724C162.649 317.878 161.688 317.135 161.573 316.097L160.279 304.898L160.074 303.245C159.74 300.503 161.727 298.017 164.469 297.735C166.852 297.492 169.056 299.081 169.812 301.4C170.055 302.143 170.273 302.874 170.517 303.565Z" fill="#A78BEF"/>
<path d="M154.448 237.076C150.296 236.332 145.466 238.921 143.902 243.136C143.274 244.841 143.198 246.699 143.326 248.505C143.544 251.568 144.325 254.553 145.107 257.513C147.08 265.022 147.298 273.812 149.54 281.244C150.886 285.703 151.731 290.828 152.782 295.351C153.333 297.748 155.934 303.552 159.266 304.769C160.457 305.205 161.726 305.295 162.982 305.218C166.275 305.051 169.952 304.628 172.092 302.117C174.206 299.631 174.078 296.005 173.822 292.75C172.899 280.911 172.4 269.25 169.888 257.564C169.017 253.502 167.902 249.312 165.993 245.609C163.456 240.74 159.817 238.049 154.448 237.076Z" fill="#0B0202"/>
<path d="M170.518 303.565C175.31 299.862 173.529 295.493 173.413 288.855" stroke="#0B0202" stroke-width="0.640677" stroke-miterlimit="10"/>
<path d="M143.082 247.852C149.297 271.223 149.809 303.578 160.278 304.885" stroke="#0B0202" stroke-width="0.640677" stroke-miterlimit="10"/>
<path d="M70.6351 136.785C60.1792 140.513 52.158 149.419 50.1847 159.477C49.4415 163.27 49.8643 167.832 53.3624 169.985C55.8098 171.497 59.1798 171.33 61.845 170.164C64.5102 168.985 66.5988 166.961 68.4312 164.834C71.5833 161.195 74.1844 157.158 76.1577 152.891C78.5282 147.74 81.7444 132.825 70.6351 136.785Z" fill="#EBEBEB"/>
<path d="M30.6826 336.817H162.675" stroke="#0B0202" stroke-width="0.640677" stroke-miterlimit="10"/>
<path d="M396.445 336.817H503.515" stroke="#0B0202" stroke-width="0.640677" stroke-miterlimit="10"/>
<path d="M207.535 355.883H304.61" stroke="#0B0202" stroke-width="0.640677" stroke-miterlimit="10"/>
<path d="M351.559 336.817H378.377" stroke="#0B0202" stroke-width="0.640677" stroke-miterlimit="10"/>
<path d="M282.803 333.178H414.808" stroke="#0B0202" stroke-width="0.640677" stroke-miterlimit="10"/>
<path d="M91.7393 333.83H223.744" stroke="#0B0202" stroke-width="0.640677" stroke-miterlimit="10"/>
<path d="M255.764 278.04C260.825 274.427 266.079 270.737 272.139 269.34C278.2 267.943 285.363 269.391 288.976 274.465C293.09 280.244 291.321 288.214 288.912 294.89C288.797 295.198 288.643 295.544 288.323 295.582C288.003 295.633 287.81 295.031 288.131 295.018" stroke="#0B0202" stroke-width="2.56271" stroke-miterlimit="10"/>
<path d="M241.592 282.218H239.094V338.815H241.592V282.218Z" fill="#0B0202"/>
<path d="M218.477 350.386C218.477 342.236 232.892 338.828 240.093 338.815C248.665 338.802 261.709 341.954 261.709 350.386" stroke="#0B0202" stroke-width="2.56271" stroke-miterlimit="10"/>
<path d="M240.336 352.564V339.033" stroke="#0B0202" stroke-width="2.56271" stroke-miterlimit="10"/>
<path d="M265.245 352.347C265.245 354.295 263.656 355.883 261.708 355.883C259.761 355.883 258.172 354.295 258.172 352.347C258.172 350.399 259.761 348.81 261.708 348.81C263.656 348.81 265.245 350.399 265.245 352.347Z" fill="#0B0202"/>
<path d="M243.809 352.347C243.809 354.295 242.221 355.883 240.273 355.883C238.325 355.883 236.736 354.295 236.736 352.347C236.736 350.399 238.325 348.81 240.273 348.81C242.221 348.81 243.809 350.399 243.809 352.347Z" fill="#0B0202"/>
<path d="M222.372 352.347C222.372 354.295 220.783 355.883 218.835 355.883C216.888 355.883 215.299 354.295 215.299 352.347C215.299 350.399 216.888 348.81 218.835 348.81C220.783 348.81 222.372 350.399 222.372 352.347Z" fill="#0B0202"/>
<path d="M293.346 299.311C293.41 299.016 293.461 298.696 293.487 298.337C293.935 292.789 286.99 292.046 282.98 291.559C278.162 290.982 272.191 290.623 269.205 286.19C265.553 280.77 265.194 272.954 264.9 266.662C264.631 261.037 264.349 255.245 262.004 250.133C256.891 238.998 241.656 238.69 231.008 238.754C224.511 238.793 217.669 239.818 212.582 243.867C208.507 247.109 206.009 251.991 204.714 257.039C203.42 262.075 203.241 267.328 203.074 272.531C202.767 282.513 204.356 299.209 217.81 299.221L293.346 299.311Z" fill="#A78BEF"/>
<path d="M533.627 333.69C533.627 333.69 529.181 312.689 537.279 301.31C545.377 289.932 529.963 301.182 528.194 311.83C528.194 311.83 525.542 292.789 533.384 279.386C541.238 265.983 526.541 276.99 525.298 290.79C525.298 290.79 522.889 273.8 526.503 264.254C530.116 254.708 523.838 260.845 521.416 266.829C519.007 272.813 522.172 287.638 522.172 287.638C522.172 287.638 515.88 260.23 509.909 262.421C503.951 264.6 518.815 282.551 520.878 291.892C520.878 291.892 513.843 279.322 508.513 281.936C503.182 284.55 516.765 285.857 522.992 304.591L525.183 313.381C525.183 313.381 518.712 300.977 514.484 304.885C510.255 308.793 527.015 315.546 530.924 334.356L533.627 333.69Z" fill="#27C260"/>
<path d="M532.756 334.895C532.756 334.895 531.82 308.409 518.738 297.197C505.655 285.985 527.464 294.865 532.756 307.089C532.756 307.089 530.257 283.487 516.867 269.776C503.464 256.066 524.35 264.869 529.949 281.026C529.949 281.026 527.771 259.961 520.608 249.595C513.446 239.229 522.787 244.713 527.464 251.171C532.14 257.616 532.756 276.311 532.756 276.311C532.756 276.311 532.128 241.612 539.918 242.445C547.709 243.278 535.241 269.212 535.562 281.014C535.562 281.014 540.239 263.869 547.401 265.407C554.564 266.957 538.675 272.557 536.805 296.864V308.037C536.805 308.037 540.854 291.252 547.081 294.686C553.308 298.107 535.241 311.202 536.177 334.882H532.756V334.895Z" fill="#14CE30"/>
<path d="M541.187 346.786H527.271C520.493 346.786 514.996 341.289 514.996 334.51V333.357H553.462V334.51C553.475 341.289 547.978 346.786 541.187 346.786Z" fill="#D32E18"/>
<path d="M509.961 331.14V334.074C509.961 336.035 511.55 337.624 513.51 337.624H554.949C556.91 337.624 558.499 336.035 558.499 334.074V331.14H509.961Z" fill="#1A2E35"/>
<path d="M509.961 331.14V334.074C509.961 336.035 511.55 337.624 513.51 337.624H554.949C556.91 337.624 558.499 336.035 558.499 334.074V331.14H509.961Z" fill="#EF3D1B"/>
<path d="M321.935 340.969C322.601 339.841 321.666 338.15 320.346 338.124C320.922 336.509 320.359 334.549 319 333.498C318.834 333.37 318.629 333.242 318.411 333.242C318.18 333.242 317.975 333.383 317.783 333.524C316.553 334.408 315.31 335.305 314.08 336.189C313.798 336.394 313.503 336.612 313.35 336.919C312.594 338.393 315.323 340.277 314.195 341.481C313.875 341.827 313.35 341.904 312.952 342.147C312.068 342.698 311.966 343.916 311.556 344.864C311.146 345.825 309.711 346.568 309.16 345.684C309.57 344.761 308.34 343.98 307.34 343.864C306.353 343.749 305.303 343.698 304.752 342.762C303.342 343.992 300.177 340.546 300.241 339.162C299.075 339.251 298.294 340.341 298.038 341.43C297.768 342.557 297.935 343.736 297.922 344.889C297.884 347.145 297.166 349.349 297.205 351.591C297.23 353.346 297.909 355.281 299.511 355.986C300.28 356.319 301.151 356.319 301.997 356.319C308.083 356.281 314.157 356.242 320.243 356.204C320.679 356.204 321.14 356.191 321.525 355.986C322.345 355.55 322.524 354.474 322.601 353.551C322.921 349.592 323.255 345.62 323.575 341.66C323.037 341.417 322.486 341.186 321.935 340.969Z" fill="#007CFF"/>
<path opacity="0.3" d="M321.935 340.969C322.601 339.841 321.666 338.15 320.346 338.124C320.922 336.509 320.359 334.549 319 333.498C318.834 333.37 318.629 333.242 318.411 333.242C318.18 333.242 317.975 333.383 317.783 333.524C316.553 334.408 315.31 335.305 314.08 336.189C313.798 336.394 313.503 336.612 313.35 336.919C312.594 338.393 315.323 340.277 314.195 341.481C313.875 341.827 313.35 341.904 312.952 342.147C312.068 342.698 311.966 343.916 311.556 344.864C311.146 345.825 309.711 346.568 309.16 345.684C309.57 344.761 308.34 343.98 307.34 343.864C306.353 343.749 305.303 343.698 304.752 342.762C303.342 343.992 300.177 340.546 300.241 339.162C299.075 339.251 298.294 340.341 298.038 341.43C297.768 342.557 297.935 343.736 297.922 344.889C297.884 347.145 297.166 349.349 297.205 351.591C297.23 353.346 297.909 355.281 299.511 355.986C300.28 356.319 301.151 356.319 301.997 356.319C308.083 356.281 314.157 356.242 320.243 356.204C320.679 356.204 321.14 356.191 321.525 355.986C322.345 355.55 322.524 354.474 322.601 353.551C322.921 349.592 323.255 345.62 323.575 341.66C323.037 341.417 322.486 341.186 321.935 340.969Z" fill="white"/>
<path d="M322.998 321.671H320.948H315.31H313.26H307.622H305.572H299.934H297.884H294.693L294.924 324.529L295.091 326.566L295.526 331.884L295.77 334.934L296.09 338.995L296.231 340.738L296.282 341.251L296.449 343.301L296.679 346.107L296.82 347.85L296.961 349.618L297.128 351.668L297.256 353.218L297.397 354.961L297.461 355.717H301.19H304.342H308.891H312.043H316.592H319.744H323.473L323.537 354.961L323.678 353.218L323.806 351.655L323.972 349.605L324.113 347.837L324.254 346.094L324.485 343.275L324.651 341.238L324.69 340.725L324.831 338.983L325.164 334.921L325.407 331.871L325.83 326.553L325.997 324.516L326.227 321.659H322.998V321.671ZM324.703 323.555L324.152 323.004H324.741L324.703 323.555ZM324.562 325.285L324.51 325.977L321.973 328.514L319.065 325.605L321.666 323.004H322.281L324.562 325.285ZM323.831 334.344L321.973 336.202L319.065 333.293L321.973 330.398L323.985 332.409L323.831 334.344ZM296.884 332.409L298.896 330.398L301.805 333.293L298.896 336.202L297.051 334.344L296.884 332.409ZM321.038 329.449L318.129 332.358L315.221 329.449L318.129 326.541L321.038 329.449ZM316.464 323.004H319.795L318.129 324.67L316.464 323.004ZM317.181 333.293L314.285 336.202L311.377 333.293L314.285 330.398L317.181 333.293ZM307.533 337.137L310.441 334.242L313.337 337.137L310.441 340.046L307.533 337.137ZM309.493 340.994L306.584 343.903L303.688 341.007L306.597 338.098L309.493 340.994ZM314.285 338.086L317.181 340.994L314.285 343.89L311.377 340.981L314.285 338.086ZM310.441 332.358L307.533 329.449L310.441 326.541L313.337 329.449L310.441 332.358ZM309.493 333.293L306.597 336.202L303.688 333.293L306.597 330.398L309.493 333.293ZM302.74 332.358L299.844 329.449L302.74 326.541L305.649 329.449L302.74 332.358ZM302.74 334.242L305.649 337.137L302.74 340.046L299.844 337.137L302.74 334.242ZM305.649 344.838L302.74 347.734L299.844 344.838L302.74 341.93L305.649 344.838ZM306.584 345.774L309.493 348.682L306.597 351.591L303.688 348.682L306.584 345.774ZM307.533 344.838L310.441 341.93L313.337 344.838L310.441 347.734L307.533 344.838ZM314.285 345.774L317.181 348.682L314.285 351.591L311.377 348.682L314.285 345.774ZM318.129 349.631L321.038 352.539L319.154 354.423H317.104L315.221 352.539L318.129 349.631ZM315.221 344.838L318.129 341.93L321.038 344.838L318.129 347.734L315.221 344.838ZM315.221 337.137L318.129 334.242L321.038 337.137L318.129 340.046L315.221 337.137ZM317.181 325.605L314.285 328.514L311.377 325.605L313.978 323.004H314.593L317.181 325.605ZM310.441 324.67L308.775 323.004H312.094L310.441 324.67ZM309.493 325.605L306.597 328.514L303.688 325.605L306.29 323.004H306.905L309.493 325.605ZM304.406 323.004L302.74 324.67L301.087 323.004H304.406ZM299.204 323.004L301.805 325.605L298.896 328.514L296.372 325.977L296.321 325.285L298.601 323.004H299.204ZM296.718 323.004L296.18 323.542L296.128 323.004H296.718ZM296.538 328.027L297.961 329.449L296.744 330.667L296.538 328.027ZM297.32 337.778L297.205 336.407L297.948 337.15L297.32 337.778ZM297.461 339.521L298.896 338.086L301.805 340.994L298.896 343.89L297.73 342.724L297.461 339.521ZM297.897 344.902L297.884 344.774L297.948 344.838L297.897 344.902ZM298.396 351.091L298.025 346.632L298.883 345.774L301.792 348.682L298.883 351.578L298.396 351.091ZM298.666 354.41L298.614 353.744L298.896 353.462L299.844 354.41H298.666ZM299.844 352.526L302.74 349.618L305.649 352.526L303.765 354.41H301.715L299.844 352.526ZM305.649 354.41L306.597 353.462L307.545 354.41H305.649ZM309.416 354.41L307.533 352.526L310.441 349.618L313.337 352.526L311.466 354.41H309.416ZM313.337 354.41L314.285 353.462L315.233 354.41H313.337ZM322.204 354.41H321.038L321.986 353.462L322.268 353.744L322.204 354.41ZM322.473 351.091L321.973 351.578L319.065 348.682L321.973 345.774L322.832 346.632L322.473 351.091ZM322.986 344.774L322.973 344.902L322.909 344.838L322.986 344.774ZM323.152 342.724L321.973 343.89L319.065 340.994L321.973 338.086L323.408 339.521L323.152 342.724ZM323.549 337.778L322.909 337.137L323.665 336.394L323.549 337.778ZM324.344 328.027L324.126 330.679L322.909 329.462L324.344 328.027Z" fill="#007CFF"/>
<g opacity="0.6">
<path d="M322.998 321.671H320.948H315.31H313.26H307.622H305.572H299.934H297.884H294.693L294.924 324.529L295.091 326.566L295.526 331.884L295.77 334.934L296.09 338.995L296.231 340.738L296.282 341.251L296.449 343.301L296.679 346.107L296.82 347.85L296.961 349.618L297.128 351.668L297.256 353.218L297.397 354.961L297.461 355.717H301.19H304.342H308.891H312.043H316.592H319.744H323.473L323.537 354.961L323.678 353.218L323.806 351.655L323.972 349.605L324.113 347.837L324.254 346.094L324.485 343.275L324.651 341.238L324.69 340.725L324.831 338.983L325.164 334.921L325.407 331.871L325.83 326.553L325.997 324.516L326.227 321.659H322.998V321.671ZM324.703 323.555L324.152 323.004H324.741L324.703 323.555ZM324.562 325.285L324.51 325.977L321.973 328.514L319.065 325.605L321.666 323.004H322.281L324.562 325.285ZM323.831 334.344L321.973 336.202L319.065 333.293L321.973 330.398L323.985 332.409L323.831 334.344ZM296.884 332.409L298.896 330.398L301.805 333.293L298.896 336.202L297.051 334.344L296.884 332.409ZM321.038 329.449L318.129 332.358L315.221 329.449L318.129 326.541L321.038 329.449ZM316.464 323.004H319.795L318.129 324.67L316.464 323.004ZM317.181 333.293L314.285 336.202L311.377 333.293L314.285 330.398L317.181 333.293ZM307.533 337.137L310.441 334.242L313.337 337.137L310.441 340.046L307.533 337.137ZM309.493 340.994L306.584 343.903L303.688 341.007L306.597 338.098L309.493 340.994ZM314.285 338.086L317.181 340.994L314.285 343.89L311.377 340.981L314.285 338.086ZM310.441 332.358L307.533 329.449L310.441 326.541L313.337 329.449L310.441 332.358ZM309.493 333.293L306.597 336.202L303.688 333.293L306.597 330.398L309.493 333.293ZM302.74 332.358L299.844 329.449L302.74 326.541L305.649 329.449L302.74 332.358ZM302.74 334.242L305.649 337.137L302.74 340.046L299.844 337.137L302.74 334.242ZM305.649 344.838L302.74 347.734L299.844 344.838L302.74 341.93L305.649 344.838ZM306.584 345.774L309.493 348.682L306.597 351.591L303.688 348.682L306.584 345.774ZM307.533 344.838L310.441 341.93L313.337 344.838L310.441 347.734L307.533 344.838ZM314.285 345.774L317.181 348.682L314.285 351.591L311.377 348.682L314.285 345.774ZM318.129 349.631L321.038 352.539L319.154 354.423H317.104L315.221 352.539L318.129 349.631ZM315.221 344.838L318.129 341.93L321.038 344.838L318.129 347.734L315.221 344.838ZM315.221 337.137L318.129 334.242L321.038 337.137L318.129 340.046L315.221 337.137ZM317.181 325.605L314.285 328.514L311.377 325.605L313.978 323.004H314.593L317.181 325.605ZM310.441 324.67L308.775 323.004H312.094L310.441 324.67ZM309.493 325.605L306.597 328.514L303.688 325.605L306.29 323.004H306.905L309.493 325.605ZM304.406 323.004L302.74 324.67L301.087 323.004H304.406ZM299.204 323.004L301.805 325.605L298.896 328.514L296.372 325.977L296.321 325.285L298.601 323.004H299.204ZM296.718 323.004L296.18 323.542L296.128 323.004H296.718ZM296.538 328.027L297.961 329.449L296.744 330.667L296.538 328.027ZM297.32 337.778L297.205 336.407L297.948 337.15L297.32 337.778ZM297.461 339.521L298.896 338.086L301.805 340.994L298.896 343.89L297.73 342.724L297.461 339.521ZM297.897 344.902L297.884 344.774L297.948 344.838L297.897 344.902ZM298.396 351.091L298.025 346.632L298.883 345.774L301.792 348.682L298.883 351.578L298.396 351.091ZM298.666 354.41L298.614 353.744L298.896 353.462L299.844 354.41H298.666ZM299.844 352.526L302.74 349.618L305.649 352.526L303.765 354.41H301.715L299.844 352.526ZM305.649 354.41L306.597 353.462L307.545 354.41H305.649ZM309.416 354.41L307.533 352.526L310.441 349.618L313.337 352.526L311.466 354.41H309.416ZM313.337 354.41L314.285 353.462L315.233 354.41H313.337ZM322.204 354.41H321.038L321.986 353.462L322.268 353.744L322.204 354.41ZM322.473 351.091L321.973 351.578L319.065 348.682L321.973 345.774L322.832 346.632L322.473 351.091ZM322.986 344.774L322.973 344.902L322.909 344.838L322.986 344.774ZM323.152 342.724L321.973 343.89L319.065 340.994L321.973 338.086L323.408 339.521L323.152 342.724ZM323.549 337.778L322.909 337.137L323.665 336.394L323.549 337.778ZM324.344 328.027L324.126 330.679L322.909 329.462L324.344 328.027Z" fill="white"/>
</g>
<path d="M294.564 324.195H326.304C327.239 324.195 327.995 323.439 327.995 322.504V322.184C327.995 321.248 327.239 320.492 326.304 320.492H294.564C293.629 320.492 292.873 321.248 292.873 322.184V322.504C292.873 323.439 293.629 324.195 294.564 324.195Z" fill="#007CFF"/>
<path d="M323.779 357.459H297.102C296.166 357.459 295.41 356.703 295.41 355.768V355.448C295.41 354.512 296.166 353.756 297.102 353.756H323.779C324.715 353.756 325.471 354.512 325.471 355.448V355.768C325.471 356.703 324.702 357.459 323.779 357.459Z" fill="#007CFF"/>
<path d="M269.643 133.055H180.627C178.756 133.055 177.244 134.567 177.244 136.438C177.244 138.309 178.756 139.821 180.627 139.821H269.643C271.513 139.821 273.025 138.309 273.025 136.438C273.025 134.58 271.513 133.055 269.643 133.055Z" fill="#007CFF"/>
<path opacity="0.6" d="M269.643 133.055H180.627C178.756 133.055 177.244 134.567 177.244 136.438C177.244 138.309 178.756 139.821 180.627 139.821H269.643C271.513 139.821 273.025 138.309 273.025 136.438C273.025 134.58 271.513 133.055 269.643 133.055Z" fill="#E527BB" fill-opacity="0.46"/>
<path d="M234.354 133.812H180.691C179.243 133.812 178.064 134.99 178.064 136.438C178.064 137.886 179.243 139.065 180.691 139.065H234.354C235.802 139.065 236.981 137.886 236.981 136.438C236.981 134.99 235.802 133.812 234.354 133.812Z" fill="#E527BB"/>
<path d="M205.971 123.932C205.971 124.804 205.331 125.342 204.293 125.342H203.293V126.559H202.717V122.523H204.293C205.344 122.523 205.971 123.048 205.971 123.932ZM205.395 123.932C205.395 123.356 205.01 123.023 204.267 123.023H203.281V124.829H204.267C205.01 124.842 205.395 124.509 205.395 123.932Z" fill="#1A2E35"/>
<path d="M209.52 126.559L208.649 125.316C208.572 125.316 208.482 125.329 208.392 125.329H207.393V126.559H206.816V122.523H208.392C209.443 122.523 210.071 123.048 210.071 123.932C210.071 124.56 209.751 125.009 209.187 125.214L210.148 126.572H209.52V126.559ZM209.507 123.932C209.507 123.356 209.123 123.023 208.38 123.023H207.393V124.842H208.38C209.11 124.842 209.507 124.509 209.507 123.932Z" fill="#1A2E35"/>
<path d="M210.688 124.547C210.688 123.369 211.597 122.484 212.84 122.484C214.07 122.484 214.98 123.356 214.98 124.547C214.98 125.739 214.07 126.61 212.84 126.61C211.597 126.61 210.688 125.726 210.688 124.547ZM214.403 124.547C214.403 123.65 213.737 122.997 212.84 122.997C211.93 122.997 211.264 123.65 211.264 124.547C211.264 125.444 211.93 126.098 212.84 126.098C213.737 126.098 214.403 125.431 214.403 124.547Z" fill="#1A2E35"/>
<path d="M218.656 124.522H219.207V126.098C218.797 126.444 218.246 126.61 217.682 126.61C216.439 126.61 215.529 125.739 215.529 124.547C215.529 123.356 216.439 122.484 217.695 122.484C218.335 122.484 218.874 122.702 219.245 123.112L218.886 123.471C218.553 123.151 218.169 123.01 217.72 123.01C216.785 123.01 216.106 123.663 216.106 124.56C216.106 125.444 216.785 126.111 217.708 126.111C218.054 126.111 218.361 126.034 218.656 125.854V124.522Z" fill="#1A2E35"/>
<path d="M223.012 126.559L222.141 125.316C222.064 125.316 221.974 125.329 221.885 125.329H220.885V126.559H220.309V122.523H221.885C222.935 122.523 223.563 123.048 223.563 123.932C223.563 124.56 223.243 125.009 222.679 125.214L223.64 126.572H223.012V126.559ZM222.987 123.932C222.987 123.356 222.602 123.023 221.859 123.023H220.872V124.842H221.859C222.602 124.842 222.987 124.509 222.987 123.932Z" fill="#1A2E35"/>
<path d="M227.432 126.059V126.559H224.498V122.523H227.343V123.023H225.075V124.266H227.099V124.753H225.075V126.059H227.432Z" fill="#1A2E35"/>
<path d="M227.996 126.098L228.214 125.649C228.509 125.919 229.021 126.111 229.547 126.111C230.238 126.111 230.546 125.842 230.546 125.483C230.546 124.496 228.099 125.124 228.099 123.625C228.099 122.997 228.586 122.472 229.649 122.472C230.123 122.472 230.61 122.6 230.943 122.83L230.751 123.292C230.405 123.061 229.995 122.959 229.649 122.959C228.957 122.959 228.662 123.253 228.662 123.599C228.662 124.586 231.11 123.971 231.11 125.457C231.11 126.072 230.61 126.61 229.547 126.61C228.919 126.61 228.316 126.405 227.996 126.098Z" fill="#1A2E35"/>
<path d="M231.572 126.098L231.79 125.649C232.085 125.919 232.597 126.111 233.123 126.111C233.815 126.111 234.122 125.842 234.122 125.483C234.122 124.496 231.675 125.124 231.675 123.625C231.675 122.997 232.162 122.472 233.225 122.472C233.699 122.472 234.186 122.6 234.519 122.83L234.327 123.292C233.981 123.061 233.571 122.959 233.225 122.959C232.533 122.959 232.239 123.253 232.239 123.599C232.239 124.586 234.686 123.971 234.686 125.457C234.686 126.072 234.186 126.61 233.123 126.61C232.508 126.61 231.905 126.405 231.572 126.098Z" fill="#1A2E35"/>
<path d="M239.697 122.523V122.92L238.07 126.572H237.455L239.056 123.035H237.211V123.753H236.66V122.536H239.697V122.523Z" fill="#1A2E35"/>
<path d="M240.08 124.547C240.08 123.228 240.785 122.484 241.733 122.484C242.668 122.484 243.373 123.24 243.373 124.547C243.373 125.867 242.668 126.61 241.733 126.61C240.785 126.61 240.08 125.854 240.08 124.547ZM242.797 124.547C242.797 123.509 242.361 122.997 241.733 122.997C241.092 122.997 240.657 123.522 240.657 124.547C240.657 125.585 241.092 126.098 241.733 126.098C242.361 126.098 242.797 125.572 242.797 124.547Z" fill="#1A2E35"/>
<path d="M243.873 123.586C243.873 122.933 244.257 122.484 244.808 122.484C245.372 122.484 245.744 122.92 245.744 123.586C245.744 124.253 245.372 124.688 244.808 124.688C244.245 124.688 243.873 124.253 243.873 123.586ZM245.372 123.586C245.372 123.099 245.154 122.818 244.808 122.818C244.462 122.818 244.245 123.112 244.245 123.586C244.245 124.06 244.462 124.355 244.808 124.355C245.154 124.368 245.372 124.073 245.372 123.586ZM247.243 122.523H247.691L244.937 126.559H244.488L247.243 122.523ZM246.436 125.496C246.436 124.842 246.807 124.394 247.371 124.394C247.935 124.394 248.307 124.842 248.307 125.496C248.307 126.149 247.922 126.598 247.371 126.598C246.807 126.598 246.436 126.149 246.436 125.496ZM247.935 125.496C247.935 125.021 247.717 124.727 247.371 124.727C247.025 124.727 246.807 125.021 246.807 125.496C246.807 125.982 247.025 126.264 247.371 126.264C247.717 126.264 247.935 125.97 247.935 125.496Z" fill="#1A2E35"/>
<path d="M299.025 221.136V218.381H297.18L299.025 217.305H297.641L299.499 216.087H301.254V214.703H299.217L301.254 213.883V210.872H299.217V208.912H297.18L299.217 208.22V206.823H297.756L298.948 205.631L299.986 204.594H331.533V206.016H333.609L331.302 207.054V208.22H335.556V210.398H337.44L335.556 211.333V213.768H334.211V214.934H331.533V218.381H333.032L331.802 219.611V221.149L299.025 221.136Z" fill="#007CFF"/>
<path opacity="0.7" d="M299.025 221.136V218.381H297.18L299.025 217.305H297.641L299.499 216.087H301.254V214.703H299.217L301.254 213.883V210.872H299.217V208.912H297.18L299.217 208.22V206.823H297.756L298.948 205.631L299.986 204.594H331.533V206.016H333.609L331.302 207.054V208.22H335.556V210.398H337.44L335.556 211.333V213.768H334.211V214.934H331.533V218.381H333.032L331.802 219.611V221.149L299.025 221.136Z" fill="white"/>
<path opacity="0.1" d="M299.025 221.136V218.381H297.18L299.025 217.305H297.641L299.499 216.087H301.254V214.703H299.217L301.254 213.883V210.872H299.217V208.912H297.18L299.217 208.22V206.823H297.756L298.948 205.631L299.986 204.594H316.592V206.016H318.681L316.362 207.054V208.22H320.628V210.398H322.499L320.628 211.333V213.768H319.283V214.934H316.592V218.381H318.104L316.874 219.611V221.149L299.025 221.136Z" fill="black"/>
<path opacity="0.1" d="M331.302 208.22H316.361L331.302 207.682V208.22Z" fill="black"/>
<path opacity="0.1" d="M331.532 214.934H316.591L316.527 215.972L331.532 214.934Z" fill="black"/>
<path opacity="0.1" d="M334.209 213.768H319.281L334.209 214.294V213.768Z" fill="black"/>
<path opacity="0.1" d="M331.532 218.381H316.592L331.532 217.83V218.381Z" fill="black"/>
<path opacity="0.1" d="M331.801 219.611H316.873V220.175L331.801 219.611Z" fill="black"/>
<path opacity="0.1" d="M335.555 210.398H320.627L335.555 209.924V210.398Z" fill="black"/>
<path opacity="0.1" d="M331.532 206.016H316.592L331.532 205.491V206.016Z" fill="black"/>
<path opacity="0.1" d="M299.217 206.824H314.362L299.217 207.285V206.824Z" fill="black"/>
<path opacity="0.1" d="M316.361 208.22H299.217L314.76 208.733L316.361 208.22Z" fill="black"/>
<path opacity="0.1" d="M320.628 210.398L299.217 210.873V210.398H320.628Z" fill="black"/>
<path opacity="0.1" d="M320.628 211.333H310.031L320.628 211.859V211.333Z" fill="black"/>
<path opacity="0.1" d="M301.254 213.884L316.592 213.769L301.254 213.423V213.884Z" fill="black"/>
<path opacity="0.1" d="M301.254 214.704H316.874L301.254 215.217V214.704Z" fill="black"/>
<path opacity="0.1" d="M299.023 217.305H316.36V217.83L299.023 217.305Z" fill="black"/>
<path opacity="0.1" d="M299.023 218.381H311.594L299.023 218.727V218.381Z" fill="black"/>
<path d="M192.029 46.0396L200.115 56.1494" stroke="#022239" stroke-width="24.3457" stroke-miterlimit="10"/>
<path d="M208.367 44.3868L185.854 61.762L185.111 60.7881C180.729 55.1117 181.779 46.9495 187.456 42.5673L189.391 41.0681C195.067 36.6859 203.229 37.7366 207.611 43.413L208.367 44.3868Z" fill="#E527BB"/>
<path d="M251.908 46.0396L243.836 56.1494" stroke="#022239" stroke-width="24.3457" stroke-miterlimit="10"/>
<path d="M235.584 44.3866L258.097 61.7617L258.841 60.7879C263.223 55.1115 262.172 46.9493 256.496 42.567L254.561 41.0679C248.884 36.6856 240.722 37.7363 236.34 43.4127L235.584 44.3866Z" fill="#E527BB"/>
<path d="M235.25 99.4841H245.68L254.047 114.168H243.617L235.25 99.4841Z" fill="#022239"/>
<path d="M209.085 99.4841H198.654L190.287 114.168H200.717L209.085 99.4841Z" fill="#022239"/>
<path d="M221.937 114.374C241.023 114.374 256.495 98.9013 256.495 79.8154C256.495 60.7295 241.023 45.2573 221.937 45.2573C202.851 45.2573 187.379 60.7295 187.379 79.8154C187.379 98.9013 202.851 114.374 221.937 114.374Z" fill="#A961C4"/>
<path d="M221.938 109.377C238.264 109.377 251.499 96.1417 251.499 79.8157C251.499 63.4897 238.264 50.2549 221.938 50.2549C205.612 50.2549 192.377 63.4897 192.377 79.8157C192.377 96.1417 205.612 109.377 221.938 109.377Z" fill="white"/>
<g opacity="0.03">
<path d="M239.426 62.3254C228.458 51.3571 211.018 50.8189 199.396 60.6981C199.909 60.0959 200.447 59.4937 201.024 58.917C212.569 47.3721 231.289 47.3721 242.822 58.917C254.367 70.462 254.367 89.1826 242.822 100.715C242.245 101.291 241.656 101.83 241.04 102.342C250.933 90.7331 250.394 73.2938 239.426 62.3254Z" fill="#231F20"/>
</g>
<path d="M223.641 54.2786V50.3064C223.077 50.2679 222.513 50.2551 221.937 50.2551C221.36 50.2551 220.796 50.2808 220.232 50.3064V54.2786H223.641Z" fill="#BFE6F8"/>
<path d="M220.232 105.353V109.325C220.796 109.363 221.36 109.376 221.937 109.376C222.513 109.376 223.077 109.351 223.641 109.325V105.353H220.232Z" fill="#BFE6F8"/>
<path d="M200.705 65.6316L197.322 63.4661C197.155 63.7223 196.989 63.9786 196.822 64.2349L200.205 66.4004L200.705 65.6316Z" fill="#BFE6F8"/>
<path d="M243.182 94.0125L246.564 96.178C246.731 95.9217 246.898 95.6654 247.064 95.4091L243.681 93.2437L243.182 94.0125Z" fill="#BFE6F8"/>
<path d="M207.753 101.06L205.574 104.443C205.83 104.61 206.087 104.776 206.343 104.943L208.509 101.56L207.753 101.06Z" fill="#BFE6F8"/>
<path d="M236.134 58.5842L238.3 55.2014C238.043 55.0348 237.787 54.8682 237.531 54.7017L235.365 58.0844L236.134 58.5842Z" fill="#BFE6F8"/>
<path d="M210.175 57.1486L208.266 53.6121C207.997 53.753 207.728 53.894 207.459 54.0477L209.368 57.5843L210.175 57.1486Z" fill="#BFE6F8"/>
<path d="M233.701 102.497L235.61 106.033C235.879 105.892 236.149 105.751 236.418 105.598L234.508 102.061L233.701 102.497Z" fill="#BFE6F8"/>
<path d="M199.271 91.5784L195.734 93.4876C195.875 93.7567 196.016 94.0257 196.17 94.2948L199.707 92.3856L199.271 91.5784Z" fill="#BFE6F8"/>
<path d="M244.604 68.0529L248.14 66.1437C247.999 65.8746 247.858 65.6055 247.704 65.3364L244.168 67.2456L244.604 68.0529Z" fill="#BFE6F8"/>
<path d="M196.4 78.1121H192.428C192.39 78.6759 192.377 79.2397 192.377 79.8163C192.377 80.3929 192.403 80.9567 192.428 81.5205H196.4V78.1121Z" fill="#BFE6F8"/>
<path d="M247.475 81.5205H251.447C251.485 80.9567 251.498 80.3929 251.498 79.8163C251.498 79.2397 251.472 78.6759 251.447 78.1121H247.475V81.5205Z" fill="#BFE6F8"/>
<path d="M222.399 77.3169L221.271 78.4573L237.493 93.4491L222.399 77.3169Z" fill="#022239"/>
<path d="M221.028 77.574L212.84 86.8894L222.155 78.7016L221.028 77.574Z" fill="#022239"/>
<path d="M221.835 50.8577L221.438 77.8942H222.232L221.835 50.8577Z" fill="#E527BB"/>
<path d="M219.836 79.8925C218.734 78.7906 218.734 76.9967 219.836 75.8819C220.938 74.7799 222.732 74.7799 223.847 75.8819C224.949 76.9839 224.949 78.7777 223.847 79.8925C222.745 81.0073 220.938 80.9945 219.836 79.8925Z" fill="#022239"/>
<path d="M221.13 78.5984C220.733 78.2012 220.733 77.5733 221.13 77.1761C221.527 76.7789 222.155 76.7789 222.552 77.1761C222.949 77.5733 222.949 78.2012 222.552 78.5984C222.155 78.9828 221.514 78.9828 221.13 78.5984Z" fill="white"/>
<defs>
<linearGradient id="paint0_linear_177_3070" x1="100.524" y1="143.28" x2="103.166" y2="158.02" gradientUnits="userSpaceOnUse">
<stop offset="4e-07" stop-color="#CF7560"/>
<stop offset="1" stop-color="#F1AD9B"/>
</linearGradient>
</defs>
</svg>
