<svg width="31" height="31" viewBox="0 0 31 31" fill="none" xmlns="http://www.w3.org/2000/svg">
<path d="M10.3338 7.75014H6.45869C5.74438 7.75014 5.16699 7.17146 5.16699 6.45844C5.16699 5.74543 5.74438 5.16675 6.45869 5.16675H10.3338C11.0481 5.16675 11.6255 5.74543 11.6255 6.45844C11.6255 7.17146 11.0481 7.75014 10.3338 7.75014ZM16.7922 12.9169H6.45869C5.74438 12.9169 5.16699 12.3382 5.16699 11.6252C5.16699 10.9122 5.74438 10.3335 6.45869 10.3335H16.7922C17.5065 10.3335 18.0839 10.9122 18.0839 11.6252C18.0839 12.3382 17.5065 12.9169 16.7922 12.9169ZM16.7922 18.0837H6.45869C5.74438 18.0837 5.16699 17.505 5.16699 16.792C5.16699 16.079 5.74438 15.5003 6.45869 15.5003H16.7922C17.5065 15.5003 18.0839 16.079 18.0839 16.792C18.0839 17.505 17.5065 18.0837 16.7922 18.0837Z" fill="#DAA7EE"/>
<path d="M23.2505 2.58339V12.9169C23.2505 13.6274 22.6692 14.2086 21.9588 14.2086C21.2484 14.2086 20.6671 13.6274 20.6671 12.9169V3.22924C20.6671 2.86756 20.3829 2.58339 20.0213 2.58339H3.22924C2.86756 2.58339 2.58339 2.86756 2.58339 3.22924V27.7714C2.58339 28.1331 2.86756 28.4173 3.22924 28.4173H20.0213C20.3829 28.4173 20.6671 28.1331 20.6671 27.7714V27.1256C20.6671 26.4151 21.2484 25.8339 21.9588 25.8339C22.6692 25.8339 23.2505 26.4151 23.2505 27.1256V28.4173C23.2505 29.8381 22.088 31.0007 20.6671 31.0007H2.58339C1.16252 31.0007 0 29.8381 0 28.4173V2.58339C0 1.16252 1.16252 0 2.58339 0H20.6671C22.088 0 23.2505 1.16252 23.2505 2.58339Z" fill="#DAA7EE"/>
<path d="M30.8325 15.348C31.2329 16.0455 30.8906 16.9923 30.064 17.4702L17.5991 24.6649C17.4906 24.7295 17.3718 24.776 17.2568 24.807L13.8261 25.6595C13.3481 25.7784 12.896 25.6143 12.6894 25.254C12.4801 24.8949 12.5731 24.4144 12.909 24.0746L15.3722 21.5455C15.4536 21.4525 15.5492 21.3866 15.6486 21.3298C15.6538 21.3169 15.6641 21.3104 15.6641 21.3104L28.129 14.1157C28.9557 13.6378 29.9477 13.8134 30.3507 14.5096L30.8338 15.3492L30.8325 15.348Z" fill="#DAA7EE"/>
</svg>
