<svg width="13" height="13" viewBox="0 0 13 13" fill="none" xmlns="http://www.w3.org/2000/svg">
<g clip-path="url(#clip0_177_3837)">
<path fill-rule="evenodd" clip-rule="evenodd" d="M6.5 9.75C8.29492 9.75 9.75 8.29492 9.75 6.5C9.75 4.70507 8.29492 3.25 6.5 3.25C4.70507 3.25 3.25 4.70507 3.25 6.5C3.25 8.29492 4.70507 9.75 6.5 9.75ZM6.5 8.66667C7.6966 8.66667 8.66667 7.6966 8.66667 6.5C8.66667 5.30338 7.6966 4.33333 6.5 4.33333C5.30338 4.33333 4.33333 5.30338 4.33333 6.5C4.33333 7.6966 5.30338 8.66667 6.5 8.66667Z" fill="#0F0F0F"/>
<path d="M9.75065 2.7085C9.45149 2.7085 9.20898 2.95101 9.20898 3.25016C9.20898 3.54931 9.45149 3.79183 9.75065 3.79183C10.0498 3.79183 10.2923 3.54931 10.2923 3.25016C10.2923 2.95101 10.0498 2.7085 9.75065 2.7085Z" fill="#0F0F0F"/>
<path fill-rule="evenodd" clip-rule="evenodd" d="M0.895244 2.31604C0.541016 3.01125 0.541016 3.92134 0.541016 5.7415V7.25817C0.541016 9.07833 0.541016 9.98844 0.895244 10.6836C1.20683 11.2952 1.70402 11.7924 2.31555 12.1039C3.01076 12.4582 3.92085 12.4582 5.74102 12.4582H7.25768C9.07784 12.4582 9.98795 12.4582 10.6831 12.1039C11.2947 11.7924 11.7919 11.2952 12.1034 10.6836C12.4577 9.98844 12.4577 9.07833 12.4577 7.25817V5.7415C12.4577 3.92134 12.4577 3.01125 12.1034 2.31604C11.7919 1.70451 11.2947 1.20732 10.6831 0.895732C9.98795 0.541504 9.07784 0.541504 7.25768 0.541504H5.74102C3.92085 0.541504 3.01076 0.541504 2.31555 0.895732C1.70402 1.20732 1.20683 1.70451 0.895244 2.31604ZM7.25768 1.62484H5.74102C4.81305 1.62484 4.18223 1.62568 3.69464 1.66552C3.21969 1.70432 2.9768 1.77466 2.80737 1.86099C2.39969 2.06872 2.06823 2.40017 1.8605 2.80786C1.77417 2.97729 1.70383 3.22018 1.66503 3.69513C1.62519 4.18272 1.62435 4.81354 1.62435 5.7415V7.25817C1.62435 8.18615 1.62519 8.81692 1.66503 9.30453C1.70383 9.77952 1.77417 10.0224 1.8605 10.1918C2.06823 10.5995 2.39969 10.9309 2.80737 11.1387C2.9768 11.225 3.21969 11.2954 3.69464 11.3342C4.18223 11.374 4.81305 11.3748 5.74102 11.3748H7.25768C8.18566 11.3748 8.81644 11.374 9.30404 11.3342C9.77903 11.2954 10.0219 11.225 10.1913 11.1387C10.599 10.9309 10.9305 10.5995 11.1382 10.1918C11.2245 10.0224 11.2949 9.77952 11.3337 9.30453C11.3735 8.81692 11.3743 8.18615 11.3743 7.25817V5.7415C11.3743 4.81354 11.3735 4.18272 11.3337 3.69513C11.2949 3.22018 11.2245 2.97729 11.1382 2.80786C10.9305 2.40017 10.599 2.06872 10.1913 1.86099C10.0219 1.77466 9.77903 1.70432 9.30404 1.66552C8.81644 1.62568 8.18566 1.62484 7.25768 1.62484Z" fill="#0F0F0F"/>
</g>
<defs>
<clipPath id="clip0_177_3837">
<rect width="13" height="13" fill="white"/>
</clipPath>
</defs>
</svg>
