<svg width="10" height="10" viewBox="0 0 10 10" fill="none" xmlns="http://www.w3.org/2000/svg">
<g clip-path="url(#clip0_177_3831)">
<path fill-rule="evenodd" clip-rule="evenodd" d="M10 10H8V6.50049C8 5.54049 7.5765 5.00488 6.817 5.00488C5.9905 5.00488 5.5 5.56299 5.5 6.50049V10H3.5V3.5H5.5V4.23096C5.5 4.23096 6.1275 3.12988 7.5415 3.12988C8.956 3.12988 10 3.99305 10 5.77905V10ZM1.221 2.46045C0.546501 2.46045 0 1.90948 0 1.22998C0 0.55098 0.546501 0 1.221 0C1.895 0 2.4415 0.55098 2.4415 1.22998C2.442 1.90948 1.895 2.46045 1.221 2.46045ZM0 10H2.5V3.5H0V10Z" fill="black"/>
</g>
<defs>
<clipPath id="clip0_177_3831">
<rect width="10" height="10" fill="white"/>
</clipPath>
</defs>
</svg>
