<svg width="104" height="34" viewBox="0 0 104 34" fill="none" xmlns="http://www.w3.org/2000/svg">
<g clip-path="url(#clip0_276_89)">
<mask id="mask0_276_89" style="mask-type:luminance" maskUnits="userSpaceOnUse" x="0" y="0" width="104" height="34">
<path d="M103.562 0H0V33.0909H103.562V0Z" fill="white"/>
</mask>
<g mask="url(#mask0_276_89)">
<path d="M45.5984 9.6734C45.4067 9.32482 45.1283 9.0302 44.7896 8.81729C44.4405 8.62046 44.043 8.5229 43.6413 8.53537C43.1304 8.5333 42.6339 8.70325 42.2337 9.01726C42.0354 9.15636 41.8742 9.34096 41.764 9.55528C41.6538 9.7696 41.598 10.0072 41.6012 10.2476C41.5953 10.4456 41.635 10.6424 41.7171 10.8231C41.7993 11.0038 41.9218 11.1637 42.0756 11.2908C42.4378 11.5861 42.8492 11.8168 43.2913 11.9726L44.1753 12.3161C44.6034 12.481 45.0177 12.679 45.4143 12.9082C45.7628 13.1118 46.0812 13.362 46.3605 13.6515C46.6317 13.9386 46.8431 14.2756 46.9827 14.6435C47.1345 15.0617 47.2082 15.5038 47.2004 15.9481C47.205 16.4619 47.1036 16.9713 46.9023 17.445C46.7109 17.8988 46.4284 18.3094 46.072 18.6521C45.7155 18.9949 45.2926 19.2627 44.8285 19.4392C44.3424 19.6213 43.8266 19.7134 43.3069 19.7109C42.836 19.7106 42.3692 19.6237 41.9304 19.4546C41.5047 19.2927 41.1147 19.0507 40.782 18.742C40.4455 18.4323 40.1657 18.0671 39.9551 17.6629C39.7377 17.2444 39.5956 16.7917 39.5352 16.3249L41.0724 16.0045C41.0632 16.3104 41.1196 16.6148 41.238 16.8976C41.3565 17.1803 41.5341 17.4351 41.7593 17.645C41.9815 17.8576 42.2442 18.0244 42.5321 18.1357C42.82 18.247 43.1274 18.3007 43.4365 18.2935C43.7399 18.3012 44.0413 18.243 44.3195 18.123C44.5976 18.003 44.8457 17.824 45.0463 17.5989C45.4672 17.1479 45.6964 16.5541 45.6866 15.9405C45.6914 15.6621 45.6345 15.3862 45.5198 15.132C45.4052 14.8778 45.2355 14.6516 45.0229 14.4692C44.8351 14.298 44.625 14.1523 44.3982 14.036C44.1545 13.9079 43.8824 13.7797 43.5816 13.6515L42.7392 13.3003C42.3777 13.1517 42.0262 12.9805 41.6867 12.7877C41.3899 12.6138 41.1157 12.4046 40.8702 12.1649C40.6272 11.9254 40.432 11.6427 40.2947 11.3318C40.1492 10.9897 40.0777 10.6212 40.0848 10.2501C40.0792 9.81297 40.1749 9.38037 40.3645 8.98541C40.5541 8.59044 40.8326 8.24358 41.1787 7.97147C41.5227 7.69498 41.9143 7.48225 42.3348 7.34351C42.7675 7.19962 43.2211 7.12688 43.6775 7.12818C44.3197 7.11748 44.9526 7.28058 45.5077 7.59978C46.0584 7.92803 46.5111 8.39509 46.8194 8.95314L45.5984 9.6734Z" fill="#2F6FB3"/>
<path d="M55.8156 19.452H54.3587V18.2832H54.3276C54.0387 18.7085 53.6569 19.0641 53.2104 19.3238C52.7689 19.5799 52.2653 19.7128 51.7536 19.7083C51.2284 19.7157 50.7084 19.6062 50.2319 19.3879C49.786 19.1811 49.3933 18.877 49.0835 18.4985C48.7645 18.1122 48.5226 17.6695 48.3707 17.1938C48.2079 16.6971 48.1256 16.1781 48.127 15.6559C48.1278 15.1511 48.2154 14.6501 48.3862 14.1744C48.5466 13.7133 48.7909 13.285 49.1069 12.9108C49.417 12.5454 49.8035 12.2507 50.2396 12.0469C50.7006 11.8349 51.2038 11.7281 51.7121 11.7342C52.2383 11.7276 52.7563 11.8632 53.2104 12.1264C53.6649 12.3961 54.0499 12.7664 54.3354 13.208H54.3665V11.9598H55.8156V19.452ZM53.7858 17.6424C54.2298 17.0949 54.4615 16.4086 54.4391 15.7072C54.4616 15.011 54.2255 14.3308 53.7755 13.795C53.5552 13.5398 53.2788 13.3379 52.9674 13.2046C52.6561 13.0714 52.318 13.0103 51.9791 13.026C51.6468 13.0151 51.3165 13.0811 51.0146 13.2186C50.7126 13.3561 50.4472 13.5613 50.2396 13.8181C49.8003 14.3533 49.5678 15.0257 49.5839 15.7149C49.566 16.4101 49.7953 17.0895 50.2319 17.6347C50.4385 17.895 50.7046 18.1032 51.0082 18.2422C51.312 18.3812 51.6447 18.4471 51.9791 18.4344C52.3212 18.449 52.6621 18.3851 52.9751 18.2477C53.2881 18.1103 53.5648 17.9031 53.7833 17.6424H53.7858Z" fill="#2F6FB3"/>
<path d="M58.5805 15.9456C58.5777 16.5855 58.8077 17.2051 59.2288 17.6912C59.4262 17.9286 59.6761 18.1183 59.9592 18.2458C60.2422 18.3733 60.5507 18.4352 60.8615 18.4268C61.3212 18.4439 61.7745 18.3185 62.158 18.0679C62.5497 17.7698 62.8765 17.3967 63.1194 16.9709L64.3508 17.6578C64.0087 18.2827 63.5011 18.8037 62.8824 19.1649C62.2637 19.5262 61.557 19.714 60.8385 19.7084C60.3049 19.7176 59.7748 19.6163 59.2832 19.4111C58.8347 19.2216 58.4339 18.9373 58.1087 18.578C57.7785 18.2126 57.5256 17.7855 57.3648 17.322C57.1899 16.8279 57.1022 16.3077 57.1056 15.7841C57.1056 14.5871 57.4244 13.6182 58.0595 12.8698C58.6946 12.1213 59.6147 11.7496 60.7971 11.7496C61.9789 11.7496 62.8292 12.1213 63.4331 12.8621C64.037 13.6028 64.3402 14.5615 64.3402 15.7354V15.9584L58.5805 15.9456ZM62.9019 14.8588C62.8434 14.3383 62.6035 13.8542 62.2224 13.49C61.8389 13.1447 61.3336 12.9608 60.8148 12.9774C60.2865 12.9664 59.7736 13.1552 59.3813 13.5055C58.9882 13.8558 58.7329 14.3325 58.6609 14.8511L62.9019 14.8588Z" fill="#2F6FB3"/>
<path d="M71.1761 14.0899C70.9131 13.7724 70.5822 13.5171 70.207 13.3428C69.8311 13.1685 69.4211 13.0796 69.0062 13.0826C68.6676 13.0813 68.3326 13.1549 68.0265 13.2979C67.7216 13.4404 67.4474 13.6388 67.2176 13.8823C66.9859 14.1269 66.8021 14.412 66.6757 14.7231C66.5469 15.0355 66.4807 15.3698 66.4813 15.7073C66.4701 16.0572 66.5291 16.4058 66.6556 16.7328C66.7821 17.0598 66.9729 17.3586 67.2176 17.6118C67.4616 17.8597 67.7553 18.0546 68.0797 18.1839C68.4041 18.3132 68.7527 18.3741 69.102 18.3628C69.5002 18.3588 69.8926 18.2679 70.2513 18.0964C70.61 17.9249 70.9255 17.6771 71.1761 17.3708V19.2112C70.532 19.5464 69.814 19.7174 69.0866 19.7085C68.5495 19.7108 68.0165 19.6098 67.5183 19.4111C67.035 19.2209 66.5941 18.9378 66.2225 18.5781C65.8425 18.2139 65.5417 17.7774 65.3373 17.2951C65.1322 16.8127 65.0288 16.2944 65.0324 15.7714C65.0276 15.2218 65.1352 14.6769 65.3485 14.1694C65.5536 13.6886 65.8531 13.2529 66.2301 12.8878C66.6089 12.5182 67.061 12.2294 67.5573 12.0394C68.0726 11.8402 68.6216 11.7393 69.1747 11.7421C69.5322 11.7425 69.8879 11.7855 70.2347 11.8702C70.5674 11.9475 70.8871 12.0718 71.1837 12.2393L71.1761 14.0899Z" fill="#2F6FB3"/>
<path d="M74.135 11.9625V16.1072C74.1333 16.4043 74.1575 16.7011 74.2077 16.9941C74.2497 17.2428 74.3377 17.4817 74.4671 17.6989C74.5989 17.9091 74.7874 18.0786 75.0114 18.1885C75.2855 18.3036 75.5798 18.3628 75.877 18.3628C76.1749 18.3628 76.4691 18.3036 76.7433 18.1885C76.9661 18.0778 77.1534 17.9084 77.2852 17.6989C77.4146 17.4817 77.502 17.2428 77.544 16.9941C77.5954 16.7013 77.6196 16.4044 77.6167 16.1072V11.9625H79.0733V16.2661C79.0733 17.3349 78.8145 18.1731 78.2803 18.7883C77.7461 19.4034 76.9478 19.7085 75.8694 19.7085C74.791 19.7085 73.9849 19.4009 73.4561 18.7883C72.9272 18.1757 72.6631 17.3349 72.6631 16.2661V11.9625H74.135Z" fill="#2F6FB3"/>
<path d="M82.5548 19.4522H81.0977V5.55963H82.5548V19.4522Z" fill="#2F6FB3"/>
<path d="M86.0184 11.9625V16.1072C86.0167 16.4043 86.0409 16.7011 86.0911 16.9941C86.1331 17.2428 86.2205 17.4817 86.3499 17.6989C86.4817 17.9091 86.6708 18.0786 86.8948 18.1885C87.1683 18.3036 87.4626 18.3628 87.7604 18.3628C88.0577 18.3628 88.3525 18.3036 88.6261 18.1885C88.8489 18.0778 89.0362 17.9084 89.168 17.6989C89.2974 17.4817 89.3854 17.2428 89.4274 16.9941C89.4788 16.7013 89.503 16.4044 89.4995 16.1072V11.9625H90.9567V16.2661C90.9567 17.3349 90.6973 18.1731 90.1631 18.7883C89.6295 19.4034 88.8312 19.7085 87.7528 19.7085C86.6744 19.7085 85.8678 19.4009 85.3395 18.7883C84.8106 18.1757 84.5459 17.3349 84.5459 16.2661V11.9625H86.0184Z" fill="#2F6FB3"/>
<path d="M94.3188 12.9058H94.3525C94.5693 12.5603 94.866 12.2705 95.2182 12.0599C95.5597 11.8471 95.955 11.7335 96.3586 11.7318C96.8042 11.7248 97.242 11.844 97.6214 12.0752C98.0055 12.3239 98.3222 12.6618 98.5438 13.0595C98.7837 12.6579 99.1247 12.3245 99.5336 12.0918C99.9425 11.8592 100.405 11.7351 100.877 11.7318C101.294 11.7202 101.708 11.8081 102.082 11.9881C102.401 12.1495 102.67 12.393 102.86 12.693C103.056 13.0081 103.192 13.3553 103.265 13.7183C103.348 14.1317 103.389 14.5526 103.386 14.9742V19.4573H101.93V15.2101C101.931 14.9427 101.915 14.6755 101.88 14.4103C101.851 14.1721 101.786 13.9396 101.686 13.7209C101.595 13.5134 101.447 13.3356 101.258 13.2082C101.038 13.0716 100.782 13.0046 100.522 13.016C100.204 13.0044 99.8917 13.0943 99.6299 13.2723C99.4 13.4369 99.2204 13.6614 99.1117 13.9208C98.9964 14.1938 98.9226 14.4824 98.8942 14.7769C98.8593 15.1098 98.8428 15.4444 98.8446 15.7791V19.4598H97.3957V15.4818C97.3957 15.1614 97.3957 14.8717 97.362 14.6103C97.3419 14.3475 97.2852 14.0888 97.1936 13.8413C97.1067 13.6069 96.9584 13.3997 96.7634 13.2415C96.5448 13.0801 96.2759 12.9985 96.0035 13.0108C95.6838 13.0001 95.3688 13.0899 95.1041 13.2672C94.8695 13.4305 94.6893 13.6588 94.5859 13.9233C94.476 14.2019 94.4021 14.4929 94.3655 14.7897C94.3265 15.1164 94.3076 15.445 94.3082 15.774V19.4547H92.8516V11.9625H94.3082L94.3188 12.9058Z" fill="#2F6FB3"/>
<path d="M53.6287 24.1069C53.6003 24.0387 53.5514 23.9805 53.4888 23.9404C53.4302 23.8976 53.3594 23.8742 53.2866 23.8737C53.2142 23.8735 53.1445 23.9011 53.0921 23.9506C53.0652 23.9734 53.0436 24.0016 53.0288 24.0335C53.014 24.0654 53.0065 24.1001 53.0066 24.1351C53.0056 24.1796 53.0164 24.2235 53.0377 24.2626C53.059 24.3017 53.0904 24.3346 53.1285 24.3581C53.2503 24.4379 53.3796 24.5057 53.5147 24.5606L53.6287 24.6119C53.7977 24.6827 53.9516 24.7845 54.0824 24.9118C54.1393 24.9726 54.1833 25.0441 54.2118 25.1221C54.2403 25.1999 54.2527 25.2827 54.2483 25.3655C54.2495 25.4846 54.2248 25.6027 54.1757 25.7115C54.1297 25.8181 54.0616 25.9142 53.9761 25.9935C53.8899 26.0736 53.7886 26.1363 53.678 26.178C53.5656 26.2211 53.446 26.2429 53.3255 26.2421C53.1271 26.2424 52.9327 26.1863 52.7655 26.0806C52.5963 25.981 52.4664 25.8273 52.3975 25.6449L52.8381 25.4475C52.8892 25.5451 52.9587 25.6321 53.0429 25.7038C53.124 25.7644 53.2239 25.7952 53.3255 25.791C53.4324 25.7948 53.5366 25.7571 53.6158 25.6859C53.654 25.6522 53.6842 25.6106 53.7043 25.5641C53.7245 25.5176 53.7341 25.4673 53.7324 25.4167C53.7356 25.36 53.7211 25.3037 53.691 25.2552C53.6498 25.2049 53.5997 25.1624 53.5432 25.1297L53.0403 24.8733C52.8948 24.8017 52.7625 24.7063 52.6489 24.5914C52.56 24.4823 52.5156 24.3442 52.5245 24.2044C52.5227 24.1026 52.5424 24.0015 52.5821 23.9075C52.6218 23.8135 52.6807 23.7287 52.7552 23.6584C52.8859 23.5351 53.0543 23.4582 53.2339 23.4397C53.4135 23.4211 53.5943 23.462 53.748 23.5558C53.8786 23.6405 53.9827 23.7594 54.0487 23.8993L53.6287 24.1069Z" fill="#2F6FB3"/>
<path d="M58.7916 23.5277C58.9618 23.5977 59.1164 23.6996 59.2476 23.8276C59.38 23.955 59.4852 24.1076 59.5561 24.2761C59.6979 24.6311 59.6979 25.026 59.5561 25.3809C59.4852 25.5502 59.3806 25.7037 59.2476 25.832C58.9759 26.0938 58.6113 26.2403 58.2317 26.2403C57.8521 26.2403 57.4875 26.0938 57.2155 25.832C57.0838 25.7036 56.9798 25.5501 56.9096 25.3809C56.7645 25.0266 56.7645 24.6304 56.9096 24.2761C56.9798 24.1077 57.0839 23.9551 57.2155 23.8276C57.4872 23.5654 57.8521 23.419 58.2317 23.42C58.4237 23.4188 58.614 23.4554 58.7916 23.5277ZM57.8895 23.9762C57.7786 24.0241 57.6783 24.0929 57.594 24.1787C57.5113 24.2658 57.4446 24.3664 57.397 24.4761C57.3491 24.588 57.3244 24.7083 57.3244 24.8298C57.3252 24.9504 57.3499 25.0697 57.397 25.181C57.4437 25.2911 57.5105 25.3919 57.594 25.4783C57.6781 25.5625 57.7775 25.6303 57.8869 25.6782C57.9987 25.7272 58.1197 25.7526 58.2421 25.7526C58.3644 25.7526 58.4853 25.7272 58.5972 25.6782C58.7066 25.6303 58.806 25.5625 58.8901 25.4783C58.9744 25.3925 59.0413 25.2916 59.0871 25.181C59.1342 25.0697 59.159 24.9504 59.1596 24.8298C59.1608 24.7084 59.1365 24.5882 59.0897 24.4761C58.9974 24.2526 58.8207 24.0734 58.5972 23.9762C58.4848 23.9297 58.3639 23.9062 58.2421 23.907C58.1211 23.907 58.0013 23.9305 57.8895 23.9762Z" fill="#2F6FB3"/>
<path d="M62.9606 26.1574H62.4424V21.2335H62.9606V26.1574Z" fill="#2F6FB3"/>
<path d="M66.4805 23.4969V24.9656C66.4793 25.0712 66.4876 25.1768 66.5065 25.2809C66.5219 25.3711 66.5532 25.4579 66.5999 25.5372C66.6471 25.6102 66.7133 25.6694 66.7913 25.709C66.8882 25.7527 66.9934 25.7737 67.0998 25.7705C67.2055 25.7738 67.3101 25.7527 67.4059 25.709C67.4844 25.6701 67.5506 25.6107 67.5979 25.5372C67.6458 25.4589 67.6777 25.3717 67.6907 25.2809C67.7096 25.1768 67.7179 25.0712 67.7167 24.9656V23.4969H68.2355V25.022C68.2538 25.3429 68.1539 25.6597 67.9554 25.914C67.7214 26.1235 67.4171 26.2395 67.1009 26.2395C66.7854 26.2395 66.4811 26.1235 66.2471 25.914C66.0479 25.6597 65.9487 25.3429 65.967 25.022V23.4969H66.4805Z" fill="#2F6FB3"/>
<path d="M71.8018 26.1574H71.283V23.9813H71.0059V23.5045H71.2859V22.4921H71.8042V23.5045H72.307V23.9813H71.8042L71.8018 26.1574Z" fill="#2F6FB3"/>
<path d="M75.5044 22.0332C75.538 22.0667 75.5646 22.1067 75.5829 22.1508C75.6007 22.1949 75.6089 22.2421 75.6078 22.2896C75.6072 22.3352 75.5977 22.3804 75.58 22.4224C75.5617 22.4644 75.5357 22.5025 75.5026 22.5344C75.4695 22.5663 75.4305 22.5915 75.3874 22.6084C75.3448 22.6254 75.2987 22.6337 75.2526 22.6331C75.2065 22.6337 75.1604 22.6254 75.1179 22.6084C75.0748 22.5915 75.0358 22.5663 75.0027 22.5344C74.9696 22.5025 74.9436 22.4644 74.9253 22.4224C74.9075 22.3804 74.8981 22.3352 74.8975 22.2896C74.8969 22.2422 74.9058 22.1951 74.9235 22.1512C74.9412 22.1071 74.9678 22.0671 75.0015 22.0332C75.0346 21.9986 75.0748 21.9714 75.1197 21.9533C75.164 21.9351 75.2124 21.9266 75.2603 21.9282C75.3064 21.9283 75.3513 21.9377 75.3933 21.9558C75.4352 21.9738 75.473 22.0002 75.5044 22.0332ZM75.5197 26.1574H75.0015V23.4968H75.5197V26.1574Z" fill="#2F6FB3"/>
<path d="M80.3733 23.5276C80.5447 23.5976 80.7001 23.6994 80.8324 23.8275C80.9642 23.955 81.0682 24.1076 81.1385 24.276C81.2833 24.6303 81.2833 25.0265 81.1385 25.3807C81.0682 25.55 80.9642 25.7034 80.8324 25.8319C80.628 26.0274 80.3703 26.1597 80.0908 26.213C79.8113 26.2662 79.5224 26.238 79.2588 26.1318C79.0869 26.0625 78.9303 25.9606 78.7973 25.8319C78.6656 25.7034 78.5616 25.55 78.4918 25.3807C78.3465 25.0265 78.3465 24.6303 78.4918 24.276C78.5616 24.1076 78.6662 23.955 78.7973 23.8275C79.0024 23.6318 79.2606 23.4993 79.5407 23.446C79.8202 23.3928 80.1097 23.4211 80.3733 23.5276ZM79.4639 23.9762C79.3522 24.0227 79.2517 24.0917 79.1684 24.1786C79.0833 24.2642 79.0166 24.3652 78.9711 24.4759C78.922 24.5875 78.8972 24.7081 78.8984 24.8297C78.8984 24.9504 78.9226 25.07 78.9711 25.1808C79.016 25.292 79.0833 25.3931 79.1684 25.4782C79.2512 25.5623 79.3498 25.6302 79.4586 25.6781C79.5708 25.7272 79.692 25.7525 79.8149 25.7525C79.9378 25.7525 80.0589 25.7272 80.1712 25.6781C80.2799 25.6302 80.3786 25.5623 80.4619 25.4782C80.547 25.3931 80.6138 25.292 80.6587 25.1808C80.7072 25.07 80.732 24.9504 80.7314 24.8297C80.732 24.7086 80.7089 24.5886 80.664 24.4759C80.6173 24.365 80.5494 24.264 80.4643 24.1786C80.3804 24.0934 80.2811 24.0247 80.1712 23.9762C80.0578 23.9297 79.9366 23.9061 79.8137 23.9069C79.6938 23.9066 79.5744 23.9301 79.4639 23.9762Z" fill="#2F6FB3"/>
<path d="M84.5234 23.8505C84.5996 23.7111 84.7172 23.5983 84.8602 23.5275C85.0056 23.4516 85.1681 23.4128 85.3324 23.4147C85.4901 23.4098 85.6479 23.4387 85.7933 23.4993C85.9126 23.551 86.0149 23.6344 86.0893 23.7403C86.1638 23.8492 86.2152 23.9722 86.2394 24.1017C86.2695 24.2536 86.2843 24.4082 86.2837 24.563V26.1574H85.7649V24.6195C85.7773 24.4218 85.7389 24.2243 85.6538 24.0453C85.5971 23.9759 85.5226 23.9224 85.4387 23.89C85.3542 23.8577 85.2632 23.8476 85.174 23.8607C85.0422 23.8548 84.9116 23.8869 84.7982 23.953C84.7078 24.0109 84.6381 24.0951 84.5985 24.194C84.5595 24.2943 84.534 24.3995 84.5234 24.5067C84.5234 24.6169 84.5104 24.763 84.5104 24.9219V26.1574H83.9922V23.4967H84.5104L84.5234 23.8505Z" fill="#2F6FB3"/>
<path d="M90.375 24.107C90.3449 24.0397 90.2964 23.982 90.235 23.9403C90.1753 23.8976 90.1038 23.8742 90.0305 23.8737C89.9578 23.874 89.8887 23.9015 89.8361 23.9506C89.8089 23.9734 89.7871 24.0017 89.7723 24.0335C89.7575 24.0654 89.7504 24.1001 89.7504 24.1352C89.7498 24.1798 89.7605 24.2239 89.7823 24.263C89.8042 24.3021 89.8361 24.3349 89.8745 24.3582C89.9962 24.4384 90.1256 24.5062 90.261 24.5607L90.375 24.6119C90.544 24.6828 90.6982 24.7845 90.8288 24.9118C90.9429 25.0353 91.0026 25.1985 90.9949 25.3655C90.9961 25.4847 90.9712 25.6027 90.9222 25.7115C90.8761 25.8181 90.8082 25.9141 90.7225 25.9934C90.6356 26.073 90.5346 26.1357 90.4241 26.178C90.3118 26.221 90.1924 26.2427 90.0719 26.2421C89.8727 26.2422 89.6777 26.1861 89.5093 26.0806C89.3421 25.9807 89.2133 25.8282 89.1436 25.6475L89.5844 25.45C89.6358 25.5477 89.7049 25.6347 89.7894 25.7064C89.8704 25.7674 89.9702 25.7982 90.0719 25.7935C90.1788 25.7968 90.2828 25.7592 90.362 25.6885C90.4004 25.6547 90.4306 25.6132 90.4506 25.5667C90.4707 25.5202 90.4802 25.4699 90.479 25.4193C90.4814 25.3623 90.466 25.3059 90.4347 25.2578C90.3957 25.2085 90.3484 25.1661 90.2947 25.1323L89.7764 24.8759C89.6316 24.8036 89.5005 24.7083 89.3876 24.5939C89.2984 24.4849 89.2541 24.3468 89.2629 24.207C89.2606 24.105 89.2801 24.0038 89.3196 23.9097C89.3592 23.8157 89.4189 23.7309 89.494 23.661C89.624 23.5379 89.7918 23.4611 89.9714 23.4426C90.1505 23.424 90.3307 23.4647 90.4837 23.5584C90.6149 23.6423 90.7195 23.7615 90.7845 23.9019L90.375 24.107Z" fill="#2F6FB3"/>
<path d="M103.56 24.6145H93.3076V25.4373H103.56V24.6145Z" fill="#2F6FB3"/>
<path d="M49.7142 24.6015H39.4619V25.4243H49.7142V24.6015Z" fill="#2F6FB3"/>
<path d="M25.6172 20.6824L25.8064 20.8029C25.7463 20.7583 25.6831 20.7181 25.6172 20.6824Z" fill="#2F6FB3"/>
<path d="M29.0834 23.8172V15.8149C29.0853 15.7833 29.0853 15.7517 29.0834 15.7201C29.0611 15.3531 28.9403 14.9987 28.7335 14.6932C28.5266 14.3878 28.2412 14.1424 27.9065 13.9822L19.7307 9.49664C19.4726 9.34785 19.1977 9.23003 18.9115 9.14547C18.0632 8.89262 17.1503 8.96004 16.3494 9.33462C15.5486 9.70919 14.9168 10.3643 14.5763 11.1731C14.236 11.9818 14.2112 12.8867 14.5068 13.7125C14.8025 14.5383 15.3975 15.2263 16.1767 15.6432L25.615 20.6927C25.6809 20.7283 25.7442 20.7686 25.8043 20.8131C26.3953 21.1874 28.2565 22.4613 29.0834 23.8172Z" fill="#2F6FB3"/>
<path d="M25.8064 20.803C25.9891 20.9333 26.1405 21.102 26.2494 21.297C26.3583 21.492 26.4221 21.7085 26.4363 21.9308C26.457 22.355 26.3597 22.7767 26.1549 23.15C25.9502 23.5232 25.6458 23.8339 25.275 24.048L15.5075 29.6358C15.2067 29.8072 14.8656 29.8974 14.5185 29.8974C14.1714 29.8974 13.8303 29.8072 13.5296 29.6358L0.874291 22.3691C0.514315 22.1615 0.217144 21.8624 0.0136719 21.5028V24.2454C0.0753282 24.5524 0.202478 24.8429 0.386642 25.0975C0.570805 25.3521 0.807749 25.5649 1.08167 25.7218L13.3948 32.7962C13.6927 32.9658 14.0261 33.0651 14.3691 33.0864C14.7122 33.1078 15.0556 33.0506 15.3727 32.9193C15.4683 32.8807 15.5611 32.8353 15.65 32.7834L27.9761 25.732C28.3151 25.5376 28.5961 25.2583 28.7909 24.9221C28.9857 24.5859 29.0874 24.2048 29.0856 23.8173C28.2586 22.4614 26.3974 21.1875 25.8064 20.803Z" fill="#2F6FB3"/>
<path d="M3.48122 12.316C3.48122 12.316 3.40864 12.2725 3.29199 12.1956C3.35082 12.2419 3.41422 12.2823 3.48122 12.316Z" fill="#2F6FB3"/>
<path d="M3.46658 12.4085L3.27734 12.2881C3.33743 12.3326 3.40067 12.3729 3.46658 12.4085Z" fill="#2F6FB3"/>
<path d="M0 9.27362V17.2759C0 17.2759 0 17.3118 0 17.3708C0.0222991 17.7377 0.143092 18.0922 0.349943 18.3976C0.556795 18.7031 0.842234 18.9485 1.17687 19.1087L9.35279 23.5942C9.6119 23.7426 9.88768 23.8604 10.1745 23.9454C11.0242 24.2038 11.9407 24.1398 12.7453 23.7661C13.5499 23.3923 14.1848 22.7355 14.526 21.9239C14.8673 21.1123 14.8905 20.204 14.5911 19.3764C14.2917 18.5488 13.6912 17.8611 12.9068 17.4477L3.46841 12.3982C3.4025 12.3625 3.33926 12.3223 3.27917 12.2777C2.68815 11.9035 0.826924 10.6296 0 9.27362Z" fill="#2F6FB3"/>
<path d="M3.27859 12.2879C3.09657 12.1571 2.94597 11.9882 2.83753 11.7933C2.7291 11.5983 2.6655 11.3821 2.65127 11.1601C2.62881 10.7356 2.72538 10.3133 2.93031 9.93971C3.13523 9.56608 3.44056 9.25573 3.81259 9.04289L13.5801 3.45509C13.8805 3.28392 14.2211 3.19381 14.5677 3.19381C14.9144 3.19381 15.255 3.28392 15.5554 3.45509L28.2107 10.7243C28.5706 10.9319 28.8679 11.2311 29.0713 11.5907V8.84807C29.0098 8.54132 28.883 8.25107 28.6993 7.99651C28.5156 7.74194 28.2793 7.52892 28.0059 7.37168L15.6928 0.297228C15.3949 0.127682 15.0614 0.0283843 14.7184 0.00704515C14.3753 -0.0142939 14.032 0.0429057 13.7149 0.174199C13.6182 0.212203 13.5246 0.257624 13.435 0.310048L1.11927 7.35886C0.780308 7.55327 0.49923 7.83265 0.304427 8.16882C0.109622 8.50504 0.00798864 8.88612 0.00978914 9.27358C0.82634 10.6295 2.68757 11.9034 3.27859 12.2879Z" fill="#2F6FB3"/>
</g>
</g>
<defs>
<clipPath id="clip0_276_89">
<rect width="104" height="33.0909" fill="white"/>
</clipPath>
</defs>
</svg>
