<svg width="154" height="35" viewBox="0 0 154 35" fill="none" xmlns="http://www.w3.org/2000/svg">
<g clip-path="url(#clip0_276_109)">
<path d="M40.1017 30.2558V8.71892H32.2061V3.8905H53.8845V8.75366H45.9196V30.2905L40.1017 30.2558Z" fill="#01266C"/>
<path d="M49.1396 30.2558V11.3589H54.8536V14.4158H54.8882C55.9271 12.8179 57.7279 10.8379 61.2948 10.8379H61.468V15.9789C61.2602 15.9442 60.2559 15.8747 59.9096 15.8747C57.9011 15.9095 56.031 16.8474 54.8536 18.48V30.2905L49.1396 30.2558Z" fill="#01266C"/>
<path d="M63.2695 8.68421V4.06421H69.0181V8.68421H63.2695ZM63.3042 30.2905V11.2547H68.9835V30.2558L63.3042 30.2905Z" fill="#01266C"/>
<path d="M71.2344 30.2558V11.2547H76.9483V14.2421C78.0911 12.7484 80.1689 10.8726 83.1818 10.8726C86.3331 10.8726 87.8222 12.1926 88.3763 14.2421C89.5191 12.7831 91.6315 10.8726 94.6097 10.8726C98.4536 10.8726 100.151 13.3042 100.151 16.6737V30.2558H94.4365V18.2368C94.4365 16.5347 94.0556 15.6316 92.3587 15.6316C90.9389 15.6316 89.7961 16.4305 88.5494 17.5074V30.2558H82.8355V18.2368C82.8355 16.5347 82.4545 15.6316 80.7576 15.6316C79.3378 15.6316 78.195 16.4305 76.9137 17.5074V30.2558H71.2344Z" fill="#01266C"/>
<path d="M108.046 28.0326V30.2905H102.332V3.8905H108.046V14.2073C109.293 12.4705 111.059 10.9073 113.864 10.9073C118.158 10.9073 121.136 14.2073 121.136 20.7726C121.136 27.3379 118.123 30.5684 113.795 30.5684C111.232 30.5684 109.466 29.6305 108.046 28.0326ZM115.422 20.7726C115.422 17.6116 114.314 15.5968 111.751 15.5968C110.297 15.5968 108.981 16.5 108.011 17.4379V24.4547C109.258 25.6358 110.297 26.1916 111.821 26.1916C114.21 26.2263 115.422 24.2463 115.422 20.7726Z" fill="#01266C"/>
<path d="M122.902 30.2558V3.8905H128.582V30.2558H122.902Z" fill="#01266C"/>
<path d="M130.382 20.7726C130.382 13.4084 135.992 10.8726 139.905 10.8726C143.818 10.8726 148.597 12.8526 148.597 21.4674V22.3358H136.061C136.338 25.4621 138.104 26.6779 140.459 26.6779C142.537 26.6084 144.546 25.8095 146.069 24.3853L148.286 27.7895C146.069 29.6653 143.333 30.6379 140.044 30.6379C135.092 30.6726 130.382 28.1368 130.382 20.7726ZM143.472 18.9316C143.195 16.2568 141.983 14.9716 139.836 14.9716C138.07 14.9716 136.546 16.1526 136.096 18.9316H143.472Z" fill="#01266C"/>
<path d="M149.671 28.1368C149.671 26.9558 150.606 25.9832 151.783 25.9484H151.818C153.03 25.9484 154 26.9211 154 28.1368C154 29.3526 153.03 30.3253 151.818 30.3253C150.641 30.3253 149.671 29.3526 149.671 28.1368ZM153.619 28.1368C153.619 27.1642 152.788 26.3653 151.818 26.4C150.848 26.4347 150.052 27.2337 150.086 28.2063C150.086 29.179 150.883 29.9779 151.887 29.9432C152.857 29.9432 153.653 29.1442 153.653 28.1716C153.619 28.1716 153.619 28.1368 153.619 28.1368ZM151.021 26.8863H151.922C152.476 26.8863 152.822 27.1295 152.822 27.6158C152.857 27.9284 152.649 28.2063 152.372 28.2758L152.891 29.2484H152.407L151.922 28.3453H151.541V29.2484H151.056L151.021 26.8863ZM151.853 27.9979C152.13 27.9979 152.303 27.8937 152.303 27.6505C152.303 27.4074 152.13 27.3032 151.853 27.3032H151.472V27.9979H151.853Z" fill="#A4A5B2"/>
<path d="M2.14746 26.5389V34.7368L9.24663 30.6379C6.51085 30.0474 4.05212 28.6232 2.14746 26.5389Z" fill="#01266C"/>
<path d="M9.212 4.06421L2.14746 0V8.16316C4.01749 6.11368 6.47622 4.68947 9.212 4.06421Z" fill="#01266C"/>
<path d="M32.1367 17.3684L25.0376 13.2695C25.8687 15.9442 25.8687 18.8274 25.0029 21.5021L32.1367 17.3684Z" fill="#01266C"/>
<path d="M6.82227 6.21787C7.82654 6.00945 9.93897 6.21787 11.0818 6.5305C12.1207 5.76629 13.3674 5.34945 14.6833 5.34945C12.0168 4.89787 9.31563 5.17577 6.82227 6.21787Z" fill="#01266C"/>
<path d="M20.3628 21.12C20.1896 19.5568 19.8087 18.0284 19.2546 16.5695C16.8305 17.681 13.8177 16.9516 11.8092 15.2147C10.3201 16.7779 9.00412 18.4452 7.86133 20.2516C11.2551 23.0305 16.8651 23.7947 20.3628 21.12Z" fill="#01266C"/>
<path d="M5.95639 20.5295C2.9782 17.4379 1.90467 12.9221 2.87431 9.48315C-1.21204 14.3116 -0.900367 21.5021 3.56691 25.9832C4.121 24.0379 4.91749 22.2316 5.95639 20.5295Z" fill="#01266C"/>
<path d="M18.7006 15.2495C18.0772 13.8948 17.2461 12.6442 16.2765 11.4979C15.0644 12.2969 13.887 13.2 12.8135 14.2074C14.6489 15.7358 17.0037 16.0485 18.7006 15.2495Z" fill="#01266C"/>
<path d="M16.449 9.62212C17.2802 9.0316 18.1459 8.54528 19.0809 8.16317C17.1416 6.21791 14.0596 6.25265 12.709 7.12107C14.0942 7.74633 15.3409 8.58002 16.449 9.62212Z" fill="#01266C"/>
<path d="M7.06443 21.5369C5.57534 24.1421 5.02126 26.0527 4.81348 27.06C9.28076 30.4295 15.4449 30.2906 19.7737 26.7474C20.2585 25.4969 20.5009 24.1421 20.4663 22.8221C16.3107 25.2884 10.6313 24.3505 7.06443 21.5369Z" fill="#01266C"/>
<path d="M19.8778 14.4158C21.1937 13.0263 20.9513 10.6642 19.947 9.27472C19.0466 9.65682 18.2155 10.1431 17.4883 10.7337C18.4233 11.8452 19.2198 13.061 19.8778 14.4158Z" fill="#01266C"/>
<path d="M22.1632 11.3937C22.371 13.0263 21.7477 14.6937 20.501 15.7705C21.0204 17.0905 21.4014 18.4453 21.6438 19.8695C23.4445 17.5074 23.4099 14.1032 22.1632 11.3937Z" fill="#01266C"/>
<path d="M11.8436 13.1653C12.9171 12.1926 14.0599 11.2895 15.2373 10.4558C14.1638 9.44841 12.8825 8.6842 11.4973 8.16315C10.3545 9.69157 10.7008 11.6368 11.8436 13.1653Z" fill="#01266C"/>
<path d="M21.8514 21.78C21.886 22.8221 21.8514 23.8294 21.7129 24.8715C23.5829 22.44 24.4833 19.4179 24.2409 16.361C24.0677 18.3758 23.2366 20.2863 21.8514 21.78Z" fill="#01266C"/>
<path d="M10.0772 7.74631C8.48424 7.3642 6.85663 7.3642 5.26364 7.78104C2.87417 11.1853 3.98233 16.1526 6.75274 19.2442C7.93016 17.4379 9.28073 15.7358 10.7698 14.1726C9.38462 12.401 8.83054 9.69157 10.0772 7.74631Z" fill="#01266C"/>
</g>
<defs>
<clipPath id="clip0_276_109">
<rect width="154" height="34.7368" fill="white"/>
</clipPath>
</defs>
</svg>
