<svg width="533" height="331" viewBox="0 0 533 331" fill="none" xmlns="http://www.w3.org/2000/svg">
<g clip-path="url(#clip0_585_5464)">
<path opacity="0.2" fill-rule="evenodd" clip-rule="evenodd" d="M95.62 234.95H48.52H47.29C21.28 234.95 0 256.23 0 282.24C0 308.25 21.28 329.53 47.29 329.53H185.35H209.13H455.92C498.04 329.53 532.5 295.07 532.5 252.96C532.5 210.84 498.04 176.39 455.93 176.39C438.12 176.39 423.55 161.82 423.55 144.01C423.55 126.2 438.12 111.63 455.93 111.63H494.9C513.41 111.63 528.56 96.48 528.56 77.97C528.56 59.46 513.41 44.31 494.9 44.31H445.63C438.42 44.31 432.53 38.41 432.53 31.2C432.53 23.99 438.43 18.1 445.63 18.1H454.32C459.29 18.1 463.36 14.03 463.36 9.06C463.36 4.09 459.29 0.02 454.32 0.02H421.77C421.77 0.02 409.33 0.02 397.33 0.02C385.33 0.02 383.99 14.2 353.67 14.2C306.8 14.2 330.23 14.2 283.36 14.2C276.87 14.2 271.56 19.51 271.56 26C271.56 32.49 276.87 37.8 283.36 37.8H294.69C304.1 37.8 311.79 45.5 311.79 54.9C311.79 64.31 304.1 72 294.69 72H260.58C214.52 72 208.01 84.04 199.95 107.98C191.88 131.92 149.99 133.85 149.99 133.85H92.67C78.5 133.85 66.9 145.45 66.9 159.62C66.9 173.79 78.5 185.39 92.67 185.39H95.62C109.25 185.39 120.41 196.54 120.41 210.18C120.4 223.8 109.25 234.95 95.62 234.95ZM479.68 18.09C474.68 18.09 470.63 14.04 470.63 9.05C470.63 4.06 474.68 0 479.68 0C484.67 0 488.72 4.05 488.72 9.04C488.72 14.03 484.67 18.09 479.68 18.09Z" fill="#999999"/>
<path d="M430.495 54.4473L401.242 164.034L400.224 161.39L397.957 163.15L396.91 160.506L394.423 162.207L393.357 159.554L391.081 161.313L389.525 158.535L387.249 160.285L385.779 157.526L382.927 159.131L381.525 156.392L379.009 158.084L378.212 155.507L375.638 157.18L374.783 154.584L372.699 156.392L371.662 153.748L369.261 155.478L367.494 152.643L364.929 154.315L363.652 151.614L361.203 153.316L360.252 150.701L358.12 152.498L356.987 149.826L354.682 151.576L353.645 148.932L351.081 150.614L350.015 147.961L347.441 149.643L346.413 147L344.099 148.749L342.591 145.981L340.199 147.702L338.97 145.01L336.002 146.577L365.256 37L430.495 54.4473Z" fill="#E527BB"/>
<path d="M418.222 66.675L371.182 54.0918C370.298 53.8514 369.77 52.9382 370 52.0538C370.24 51.1695 371.153 50.6407 372.036 50.8715L419.076 63.4547C419.96 63.695 420.488 64.6082 420.258 65.4926C420.017 66.377 419.105 66.9153 418.222 66.675Z" fill="#CED2EC"/>
<path d="M415.465 77.0087L368.425 64.4255C367.542 64.1852 367.013 63.272 367.244 62.3876C367.484 61.5032 368.396 60.9745 369.28 61.2052L416.32 73.7884C417.204 74.0287 417.732 74.942 417.501 75.8264C417.261 76.7107 416.349 77.2491 415.465 77.0087Z" fill="#CED2EC"/>
<path d="M412.699 87.3425L365.659 74.7592C364.776 74.5189 364.247 73.6057 364.478 72.7213C364.718 71.8369 365.63 71.3082 366.514 71.5389L413.554 84.1222C414.437 84.3625 414.966 85.2757 414.735 86.1601C414.505 87.0445 413.592 87.5828 412.699 87.3425Z" fill="#CED2EC"/>
<path d="M409.943 97.6765L362.903 85.0932C362.019 84.8529 361.491 83.9397 361.722 83.0553C361.962 82.1709 362.874 81.6422 363.758 81.8729L410.797 94.4562C411.681 94.6965 412.209 95.6097 411.979 96.4941C411.748 97.3785 410.826 97.9072 409.943 97.6765Z" fill="#CED2EC"/>
<path d="M407.186 108.01L360.146 95.427C359.263 95.1866 358.735 94.2734 358.965 93.389C359.205 92.5047 360.118 91.976 361.001 92.2067L408.041 104.79C408.925 105.03 409.453 105.943 409.222 106.828C408.982 107.712 408.07 108.241 407.186 108.01Z" fill="#CED2EC"/>
<path d="M379.297 127.505C379.364 127.255 379.383 127.024 379.364 126.813C379.345 126.601 379.278 126.4 379.153 126.198C379.038 125.996 378.865 125.804 378.644 125.602C378.423 125.4 378.144 125.188 377.818 124.967C377.251 124.573 376.733 124.189 376.291 123.814C375.84 123.439 375.475 123.035 375.196 122.622C374.918 122.208 374.726 121.757 374.639 121.286C374.553 120.805 374.581 120.276 374.735 119.69C374.87 119.18 375.081 118.738 375.379 118.373C375.667 118.008 376.022 117.71 376.445 117.488C376.858 117.267 377.328 117.123 377.847 117.056C378.365 116.989 378.922 116.998 379.508 117.104L380.017 115.181L381.563 115.595L381.045 117.537C381.583 117.758 382.044 118.036 382.428 118.373C382.822 118.719 383.129 119.103 383.35 119.536C383.571 119.969 383.705 120.459 383.744 120.978C383.782 121.507 383.724 122.064 383.571 122.66L380.786 121.92C380.978 121.199 380.958 120.622 380.738 120.18C380.517 119.738 380.132 119.45 379.604 119.305C379.316 119.228 379.057 119.2 378.826 119.228C378.596 119.257 378.394 119.315 378.221 119.421C378.048 119.526 377.904 119.661 377.789 119.834C377.674 120.007 377.587 120.209 377.53 120.43C377.472 120.651 377.453 120.863 377.463 121.055C377.482 121.247 377.549 121.449 377.664 121.641C377.78 121.833 377.952 122.035 378.173 122.237C378.394 122.439 378.682 122.67 379.028 122.91C379.585 123.314 380.094 123.698 380.536 124.083C380.978 124.467 381.343 124.862 381.621 125.285C381.9 125.698 382.092 126.15 382.178 126.63C382.265 127.111 382.236 127.64 382.082 128.216C381.938 128.745 381.727 129.187 381.429 129.562C381.131 129.928 380.776 130.226 380.363 130.437C379.95 130.648 379.479 130.793 378.961 130.85C378.442 130.908 377.885 130.889 377.29 130.783L376.81 132.571L375.273 132.158L375.744 130.379C375.225 130.187 374.735 129.928 374.293 129.62C373.842 129.303 373.467 128.928 373.179 128.486C372.882 128.043 372.689 127.534 372.593 126.957C372.497 126.38 372.545 125.736 372.737 125.015L375.523 125.756C375.407 126.179 375.379 126.553 375.417 126.861C375.455 127.178 375.561 127.447 375.715 127.668C375.868 127.89 376.06 128.072 376.301 128.207C376.541 128.341 376.79 128.447 377.05 128.514C377.347 128.591 377.626 128.63 377.876 128.611C378.125 128.591 378.346 128.534 378.538 128.438C378.73 128.341 378.884 128.207 379.018 128.043C379.143 127.918 379.239 127.726 379.297 127.505Z" fill="#CED2EC"/>
<path d="M378.192 136.541C377.088 136.541 375.983 136.397 374.888 136.109C371.614 135.234 368.867 133.129 367.167 130.187C365.467 127.245 365.016 123.814 365.89 120.536C366.764 117.258 368.867 114.508 371.806 112.807C374.744 111.105 378.173 110.654 381.448 111.528C384.732 112.403 387.47 114.508 389.169 117.45C390.869 120.392 391.321 123.823 390.447 127.101C389.573 130.379 387.47 133.129 384.531 134.83C382.572 135.964 380.392 136.541 378.192 136.541ZM378.154 111.596C376.041 111.596 373.947 112.153 372.065 113.24C369.241 114.874 367.225 117.508 366.379 120.661C365.534 123.814 365.976 127.101 367.609 129.927C369.241 132.754 371.873 134.772 375.023 135.618C378.173 136.464 381.458 136.022 384.281 134.388C387.105 132.754 389.121 130.12 389.967 126.967C390.812 123.814 390.37 120.526 388.737 117.7C387.105 114.874 384.473 112.855 381.323 112.009C380.267 111.73 379.21 111.596 378.154 111.596Z" fill="#CED2EC"/>
<path d="M205.268 239.753L107.721 169.127C105.867 167.782 105.445 165.167 106.789 163.312L145.512 109.72C146.857 107.865 149.469 107.442 151.323 108.788L248.879 179.413C250.733 180.759 251.155 183.374 249.811 185.229L211.088 238.821C209.734 240.676 207.121 241.089 205.268 239.753Z" fill="#E527BB"/>
<path opacity="0.4" d="M245.769 190.809L141.474 115.314L132.846 127.255L237.141 202.75L245.769 190.809Z" fill="white"/>
<path opacity="0.2" d="M202.102 182.464L138.29 136.273L131.508 145.659L195.321 191.851L202.102 182.464Z" fill="white"/>
<path opacity="0.2" d="M127.937 172.665L120.014 166.926C118.612 165.907 118.295 163.946 119.313 162.533L124.259 155.689C125.277 154.285 127.236 153.968 128.648 154.987L136.571 160.726C137.973 161.745 138.29 163.706 137.272 165.119L132.326 171.963C131.308 173.376 129.339 173.684 127.937 172.665Z" fill="white"/>
<path opacity="0.2" d="M213.152 218.009L149.814 172.156C149.449 171.896 149.373 171.387 149.632 171.021C149.891 170.656 150.4 170.579 150.765 170.839L214.103 216.692C214.468 216.951 214.545 217.471 214.285 217.826C214.026 218.192 213.517 218.268 213.152 218.009Z" fill="white"/>
<path opacity="0.2" d="M209.167 223.517L145.829 177.664C145.464 177.404 145.387 176.885 145.647 176.529C145.906 176.164 146.424 176.087 146.78 176.347L210.118 222.2C210.483 222.46 210.559 222.969 210.3 223.334C210.041 223.7 209.532 223.786 209.167 223.517Z" fill="white"/>
<path opacity="0.2" d="M205.306 228.862L141.968 183.009C141.603 182.749 141.526 182.23 141.786 181.874C142.045 181.509 142.554 181.432 142.919 181.692L206.257 227.545C206.622 227.804 206.699 228.324 206.439 228.679C206.18 229.045 205.671 229.121 205.306 228.862Z" fill="white"/>
<path d="M191.637 287.299C202.289 277.528 203.01 260.965 193.249 250.304C183.487 239.643 166.94 238.921 156.288 248.691C145.637 258.461 144.916 275.024 154.677 285.686C164.438 296.347 180.986 297.069 191.637 287.299Z" fill="#E527BB"/>
<path d="M174.027 292.139C173.067 292.139 172.106 292.081 171.136 291.966C164.74 291.206 159.026 287.996 155.04 282.939C151.055 277.873 149.278 271.558 150.037 265.156C150.795 258.753 154.003 253.034 159.055 249.044C164.116 245.055 170.426 243.286 176.822 244.036C183.218 244.796 188.942 248.006 192.928 253.063C196.913 258.129 198.69 264.444 197.931 270.846C197.173 277.249 193.965 282.968 188.913 286.967C184.601 290.351 179.405 292.139 174.027 292.139ZM173.931 244.969C168.793 244.969 163.837 246.68 159.737 249.91C154.906 253.716 151.852 259.176 151.131 265.281C150.402 271.394 152.101 277.412 155.905 282.247C159.708 287.082 165.163 290.139 171.261 290.86C177.369 291.581 183.381 289.889 188.212 286.083C193.043 282.276 196.097 276.816 196.817 270.712C197.547 264.598 195.847 258.58 192.044 253.745C188.241 248.91 182.786 245.853 176.687 245.132C175.766 245.026 174.844 244.969 173.931 244.969Z" fill="white"/>
<path d="M177.091 275.22C177.158 274.682 177.139 274.201 177.033 273.778C176.927 273.355 176.726 272.952 176.428 272.586C176.121 272.211 175.717 271.856 175.208 271.51C174.699 271.164 174.075 270.818 173.326 270.452C172.039 269.818 170.877 269.183 169.84 268.539C168.802 267.895 167.938 267.184 167.237 266.415C166.536 265.646 166.027 264.781 165.7 263.829C165.374 262.877 165.287 261.772 165.431 260.522C165.556 259.436 165.873 258.475 166.353 257.629C166.843 256.783 167.487 256.071 168.274 255.495C169.062 254.918 169.984 254.476 171.021 254.187C172.068 253.889 173.211 253.755 174.459 253.793L174.939 249.708L178.224 250.102L177.734 254.245C178.896 254.533 179.924 254.976 180.827 255.562C181.729 256.148 182.469 256.86 183.055 257.686C183.64 258.523 184.053 259.465 184.294 260.541C184.534 261.608 184.582 262.781 184.428 264.06L178.483 263.358C178.666 261.83 178.464 260.647 177.869 259.811C177.283 258.975 176.418 258.484 175.275 258.35C174.661 258.273 174.113 258.302 173.652 258.417C173.182 258.532 172.788 258.725 172.471 258.994C172.145 259.263 171.895 259.59 171.712 259.974C171.53 260.368 171.405 260.801 171.347 261.272C171.29 261.743 171.309 262.176 171.405 262.579C171.501 262.974 171.693 263.358 171.991 263.723C172.289 264.089 172.702 264.444 173.22 264.8C173.739 265.156 174.392 265.531 175.179 265.934C176.447 266.588 177.6 267.242 178.627 267.895C179.655 268.549 180.519 269.26 181.22 270.039C181.921 270.818 182.43 271.683 182.757 272.634C183.083 273.586 183.17 274.682 183.026 275.922C182.891 277.047 182.574 278.027 182.085 278.873C181.585 279.719 180.942 280.421 180.154 280.988C179.367 281.555 178.445 281.978 177.388 282.247C176.332 282.526 175.179 282.641 173.941 282.613L173.489 286.419L170.224 286.035L170.675 282.247C169.552 281.997 168.486 281.622 167.467 281.113C166.449 280.603 165.576 279.94 164.836 279.123C164.097 278.306 163.549 277.316 163.184 276.162C162.819 275.009 162.733 273.663 162.915 272.135L168.86 272.836C168.754 273.74 168.793 274.509 168.975 275.143C169.158 275.778 169.436 276.307 169.82 276.72C170.205 277.133 170.656 277.45 171.175 277.652C171.703 277.864 172.241 277.998 172.807 278.066C173.451 278.143 174.027 278.123 174.536 278.018C175.045 277.912 175.477 277.729 175.842 277.479C176.207 277.229 176.495 276.903 176.706 276.528C176.908 276.114 177.043 275.691 177.091 275.22Z" fill="white"/>
<path d="M135.748 65.334H182.232C184.127 65.334 185.665 66.8709 185.665 68.7647V89.875C185.665 91.7688 184.127 93.3057 182.232 93.3057H168.234V101.751L157.093 93.3057H135.748C133.852 93.3057 132.314 91.7688 132.314 89.875V68.7647C132.314 66.8709 133.852 65.334 135.748 65.334Z" fill="#A78BEF"/>
<path d="M175.119 84.7537H142.446C141.857 84.7537 141.379 84.277 141.379 83.6883V82.081C141.379 81.4923 141.857 81.0156 142.446 81.0156H175.119C175.709 81.0156 176.186 81.4923 176.186 82.081V83.6883C176.183 84.277 175.709 84.7537 175.119 84.7537Z" fill="white"/>
<path d="M169.078 76.4207H142.446C141.857 76.4207 141.379 75.944 141.379 75.3553V73.748C141.379 73.1593 141.857 72.6826 142.446 72.6826H169.078C169.668 72.6826 170.145 73.1593 170.145 73.748V75.3553C170.145 75.944 169.668 76.4207 169.078 76.4207Z" fill="white"/>
<path d="M404.839 330H341.403C335.307 330 330.366 325.064 330.366 318.973V238.103C330.366 232.013 335.307 227.077 341.403 227.077H406.458C408.158 227.077 409.534 228.452 409.534 230.15V325.309C409.532 327.9 407.43 330 404.839 330Z" fill="#D618B2"/>
<path d="M341.355 244.79V330H404.909C407.461 330 409.532 327.869 409.532 325.238V244.79H341.355Z" fill="#D618B2"/>
<path d="M394.412 321.479H341.694V244.79H401.102V314.795C401.102 318.486 398.107 321.479 394.412 321.479Z" fill="#E527BB"/>
<path d="M409.508 244.79H341.887C337.671 244.79 334.253 241.461 334.253 237.356C334.253 233.25 337.671 229.921 341.887 229.921H409.508C409.513 229.921 409.519 229.926 409.519 229.932V244.782C409.516 244.785 409.513 244.79 409.508 244.79Z" fill="#F8D6CD"/>
<path d="M341.887 229.919C337.671 229.919 334.253 233.248 334.253 237.353C334.253 237.778 334.298 238.189 334.368 238.593C335.651 240.891 338.149 242.448 341.022 242.448H407.412C407.435 242.448 407.456 242.427 407.456 242.404V229.916H341.887V229.919Z" fill="white"/>
<path d="M386.791 289.655H386.356H386.317L382.43 281.707C382.523 281.639 382.586 281.527 382.586 281.402C382.586 281.194 382.416 281.025 382.208 281.025C382.023 281.025 381.869 281.157 381.835 281.329C381.191 281.277 379.593 281.1 377.995 280.517C375.927 279.759 373.646 281.142 373.646 281.142L373.213 278.487C373.38 278.448 373.505 278.3 373.505 278.12C373.505 277.912 373.336 277.742 373.127 277.742C372.918 277.742 372.749 277.912 372.749 278.12C372.749 278.289 372.861 278.433 373.015 278.48L372.579 281.142C372.579 281.142 370.298 279.761 368.231 280.517C366.653 281.095 365.079 281.275 364.416 281.329C364.382 281.155 364.229 281.025 364.043 281.025C363.835 281.025 363.665 281.194 363.665 281.402C363.665 281.535 363.736 281.652 363.84 281.72L359.736 289.655H359.444C359.369 289.655 359.33 289.743 359.382 289.798C359.382 289.798 359.382 289.798 359.384 289.801C359.848 290.29 360.313 290.681 360.771 290.994C360.902 291.082 361.032 291.166 361.162 291.241C361.488 291.431 361.809 291.58 362.127 291.697C362.38 291.788 362.63 291.859 362.878 291.911C363.001 291.937 363.123 291.958 363.246 291.973C363.306 291.981 363.366 291.989 363.428 291.994C363.548 292.004 363.668 292.012 363.785 292.015C363.963 292.02 364.137 292.015 364.307 292.002C364.421 291.994 364.534 291.981 364.646 291.965C364.7 291.958 364.758 291.95 364.813 291.939C365.086 291.892 365.352 291.827 365.608 291.747C365.762 291.7 365.91 291.645 366.054 291.588C366.296 291.491 366.526 291.384 366.742 291.272C366.786 291.249 366.828 291.228 366.87 291.205C366.953 291.158 367.037 291.111 367.117 291.064C367.276 290.97 367.428 290.871 367.568 290.775C367.639 290.725 367.707 290.679 367.772 290.632C368.001 290.465 368.199 290.303 368.364 290.163C368.504 290.04 368.619 289.934 368.705 289.85C368.723 289.832 368.734 289.811 368.736 289.79C368.747 289.728 368.7 289.657 368.627 289.657H368.192H368.152L364.268 281.712C364.291 281.694 364.315 281.673 364.333 281.652H372.53C372.504 281.66 372.48 281.681 372.48 281.71V281.811C372.48 281.848 372.509 281.876 372.546 281.876H372.765L372.553 294.536C372.514 294.536 372.48 294.57 372.48 294.609V294.745C371.902 294.747 371.432 295.219 371.432 295.797V296.081H369.406C368.971 296.081 368.619 296.433 368.619 296.868V297.681H368.283C368.077 297.681 367.907 297.847 367.907 298.056V298.371H378.367V298.056C378.367 297.85 378.201 297.681 377.992 297.681H377.658V296.868C377.658 296.433 377.306 296.081 376.871 296.081H374.845V295.797C374.845 295.216 374.373 294.742 373.789 294.742H373.761V294.609C373.761 294.57 373.727 294.536 373.688 294.536L373.476 281.876H373.695C373.732 281.876 373.761 281.848 373.761 281.811V281.71C373.761 281.681 373.74 281.66 373.711 281.652H381.924C381.947 281.681 381.976 281.705 382.007 281.725L377.906 289.657H377.614C377.538 289.657 377.499 289.746 377.551 289.801C377.551 289.801 377.551 289.801 377.554 289.803C377.953 290.223 378.352 290.572 378.746 290.858C379.009 291.048 379.27 291.213 379.528 291.353C379.658 291.424 379.786 291.486 379.914 291.543C380.041 291.601 380.169 291.653 380.297 291.7C380.425 291.747 380.55 291.786 380.675 291.822C381.113 291.947 381.54 292.007 381.952 292.017C382.012 292.02 382.07 292.02 382.13 292.02C382.187 292.02 382.247 292.017 382.304 292.015C382.419 292.01 382.534 292.002 382.646 291.989C382.815 291.971 382.982 291.945 383.144 291.913C383.36 291.869 383.571 291.814 383.775 291.752C383.978 291.687 384.176 291.614 384.364 291.533C384.505 291.473 384.643 291.411 384.776 291.343C384.865 291.299 384.951 291.254 385.037 291.207C385.164 291.137 385.284 291.067 385.402 290.994C385.48 290.947 385.556 290.897 385.629 290.85C385.702 290.801 385.772 290.754 385.84 290.705C385.908 290.658 385.973 290.608 386.038 290.561C386.228 290.421 386.392 290.285 386.533 290.163C386.674 290.04 386.789 289.934 386.875 289.85C386.893 289.832 386.904 289.811 386.906 289.79C386.914 289.723 386.867 289.655 386.791 289.655ZM367.772 289.655H360.107L363.986 281.775C364.004 281.777 364.023 281.78 364.041 281.78C364.064 281.78 364.09 281.777 364.111 281.772L367.772 289.655ZM382.158 281.775C382.174 281.777 382.19 281.78 382.205 281.78C382.231 281.78 382.257 281.777 382.284 281.772L385.944 289.655H378.279L382.158 281.775Z" fill="white"/>
<path d="M354.981 264.124H361.645L361.207 266.138H352.965V252.998H354.981V264.124Z" fill="white"/>
<path d="M373.604 263.056H367.66L366.275 266.14H364.067L369.977 253.001H371.291L377.202 266.14H374.994L373.604 263.056ZM372.692 261.04L370.64 256.468L368.57 261.04H372.692Z" fill="white"/>
<path d="M393.294 252.998L388.507 266.138H387.193L385.3 260.936L383.407 266.138H382.093L377.306 252.998H379.462L382.742 262.126L385.302 255.048L387.844 262.126L391.14 252.998H393.294Z" fill="white"/>
<path d="M367.842 235.704H340.746C340.448 235.704 340.208 235.465 340.208 235.168V234.357C340.208 234.06 340.448 233.821 340.746 233.821H367.842C368.14 233.821 368.379 234.06 368.379 234.357V235.168C368.379 235.465 368.137 235.704 367.842 235.704Z" fill="#F8D6CD"/>
<path d="M347.383 234.29C347.383 234.29 346.836 235.079 346.768 236.892C346.7 238.705 345.947 240.833 345.947 240.833L344.169 238.783L342.252 240.833C342.252 240.833 342.868 238.312 342.868 236.97C342.868 235.631 343.825 234.29 343.825 234.29H347.383Z" fill="#D618B2"/>
<path d="M237.536 43.9889C237.536 43.9889 227.991 39.0526 220.72 58.2978C213.446 77.5456 213.07 107.539 215.693 117.758C215.693 117.758 194.577 140.47 211.832 155.313C211.832 155.313 235.604 180.297 237.174 186.731C237.787 185.223 247.989 166.869 264.521 165.848C281.053 164.826 321.796 122.066 300.068 115.421C300.068 115.421 301.689 122.337 294.272 120.675C286.857 119.014 291.529 93.5112 291.453 84.4904C291.378 75.4721 285.942 53.2416 270.132 43.8118C254.322 34.3846 236.118 35.0436 237.536 43.9889Z" fill="#1C1715"/>
<path d="M360.036 168.557C360.036 168.557 381.705 170.919 388.797 160.685C395.888 150.45 396.282 144.547 392.736 145.334C389.19 146.12 384.857 157.142 375.401 153.206C365.947 149.27 357.278 153.993 352.945 162.258L360.036 168.557Z" fill="#FDC596"/>
<path d="M294.246 125.26C294.246 125.26 299.76 126.44 304.096 134.312C308.429 142.184 323.218 180.946 323.218 180.946C323.218 180.946 335.279 172.48 352.16 159.898L363.191 170.133C363.191 170.133 339.161 202.804 324.584 207.133C310.007 211.463 296.22 187.06 292.674 179.974C289.126 172.889 294.246 125.26 294.246 125.26Z" fill="black"/>
<path d="M324.581 207.133C310.004 211.463 296.214 187.06 292.671 179.974C291.219 177.072 291.222 167.366 291.73 156.918C296.342 167.53 311.031 200.17 318.279 202.804C324.448 205.044 347.569 181.378 360.394 167.538L363.191 170.133C363.188 170.133 339.158 202.801 324.581 207.133Z" fill="url(#paint0_linear_585_5464)"/>
<path d="M264.516 103.345C264.516 103.345 267.934 116.052 270.176 117.75C270.176 117.75 272.426 123.609 265.798 140.173C259.171 156.738 242.383 147.488 239.698 142.969C237.012 138.446 231.086 129.798 236.496 121.191C236.496 121.191 243.903 115.82 240.034 104.145C240.034 104.142 263.342 99.4454 264.516 103.345Z" fill="#EBA97A"/>
<path d="M237.143 104.434C237.143 104.434 248.38 113.142 257.562 109.782C266.748 106.421 274.89 97.541 277.406 88.6582C279.922 79.7754 275.836 61.9447 269.655 55.6017C263.473 49.2587 240.511 45.0908 234.063 53.3562C227.616 61.6165 225.11 94.9439 237.143 104.434Z" fill="#FDC596"/>
<path d="M218.277 260.565C218.277 260.565 192.961 275.135 191.568 282.473L219.471 272.931L218.277 260.565Z" fill="#0BAEB2"/>
<path d="M292.366 296.693C291.149 279.167 288.672 265.765 288.672 265.765L212.21 260.565C206.808 269.412 204.74 282.887 204.341 296.693H292.366Z" fill="#314452"/>
<path d="M292.366 296.693C291.148 279.175 288.674 265.778 288.671 265.765L266.789 264.278C270.374 269.498 273.599 275.883 274.749 282.963C275.375 286.821 275.625 291.562 275.406 296.693H292.366Z" fill="#153047"/>
<path d="M241.674 118.959C241.674 118.959 261.33 127.56 270.849 117.75C270.849 117.75 312.059 158.997 288.669 267.195C288.669 267.195 210.077 271.246 208.518 271.519C206.962 271.793 214.163 248.057 223.353 241.474C232.481 234.936 285.228 204.578 241.471 120.691C241.171 120.121 241.218 119.79 241.674 118.959Z" fill="#A78BEF"/>
<path d="M234.295 269.982C296.501 255.877 277.27 192.324 279.395 179.586C281.163 168.992 263.6 133.95 257.63 122.439C262.417 122.483 267.329 121.379 270.848 117.75C270.848 117.75 312.058 158.997 288.669 267.195C288.669 267.195 257.437 268.805 233.959 270.063C234.076 270.037 234.178 270.008 234.295 269.982Z" fill="#A78BEF"/>
<path d="M241.09 118.717C241.09 118.717 227.767 120.102 214.551 127.258C212.525 128.355 210.998 130.129 210.236 132.226L208.602 143.919C203.943 156.42 208.789 184.71 208.789 184.71C210.09 187.351 206.18 211.053 206.18 211.053L207.741 231.971L205.397 234.266C187.316 253.248 183.901 288.91 183.901 288.91L191.569 282.47C216.087 262.722 245.728 241.508 261.964 207.422C284.529 160.028 241.09 118.717 241.09 118.717Z" fill="black"/>
<path d="M187.538 269.982C190.591 258.458 196.003 244.126 205.397 234.269L207.741 231.974L206.179 211.056C206.179 211.056 210.087 187.354 208.786 184.713C208.786 184.713 204.302 158.416 208.168 145.336C211.055 148.926 212.765 152.901 211.915 157.095C208.779 172.558 216.058 232.753 216.058 232.753L187.538 269.982Z" fill="url(#paint1_linear_585_5464)"/>
<path d="M239.064 118.698L256.498 133.099L259.283 122.843L245.3 118.909L239.064 118.698Z" fill="white"/>
<path d="M270.176 117.75L259.945 122.434L269.615 133.547C269.615 133.544 274.311 122.179 270.176 117.75Z" fill="white"/>
<path d="M302.506 150.75C302.506 150.75 301.27 142.888 298.608 132.536C297.841 129.561 295.857 126.021 293.104 124.325C287.136 120.647 277.56 118.818 270.179 117.753C270.179 117.753 290.677 195.778 289.274 255.223C288.273 260.454 287.843 264.978 288.672 267.198C288.672 267.198 293.555 269.12 301.932 274.729C309.621 279.876 298.952 235.819 297.143 228.528C302.101 200.17 305.41 180.245 302.506 150.75Z" fill="black"/>
<path d="M247.366 186.377L261.909 192.41L261.997 192.191C263.382 188.774 261.249 184.655 257.234 182.988C253.219 181.324 248.841 182.741 247.457 186.158L247.366 186.377Z" fill="#691336"/>
<path d="M247.405 264.728L203.165 246.804C201.207 246.012 200.292 243.852 201.119 241.979L227.837 181.568C228.664 179.698 230.922 178.823 232.88 179.617L277.119 197.542C279.077 198.334 279.992 200.493 279.166 202.366L252.447 262.777C251.62 264.647 249.363 265.523 247.405 264.728Z" fill="#691336"/>
<path d="M244.928 263.725L203.077 246.77C201.168 245.996 200.277 243.891 201.082 242.068L227.877 181.485C228.682 179.662 230.885 178.81 232.791 179.581L274.642 196.536C276.551 197.31 277.442 199.415 276.637 201.238L249.842 261.821C249.037 263.647 246.836 264.499 244.928 263.725Z" fill="#E527BB"/>
<path d="M246.231 230.596C246.231 230.596 261.708 232.023 263.006 231.867C264.307 231.708 268.768 228.454 271.905 226.98C275.041 225.506 275.085 228.691 272.038 231.054C270.249 232.44 264.62 236.157 263.708 236.793C262.795 237.428 247.861 236.751 246.229 236.793C244.599 236.829 243.525 230.351 246.231 230.596Z" fill="#FEB48C"/>
<path d="M245.874 239.656C245.874 239.656 259.606 242.261 262.146 242.276C264.685 242.295 268.742 236.97 270.126 234.521C271.508 232.075 268.836 230.94 266.69 232.701C264.297 234.662 261.434 237.231 261.434 237.231L247.895 233.717C247.895 233.719 240.417 238.491 245.874 239.656Z" fill="#FEB48C"/>
<path d="M244.474 243.996C244.474 243.996 257.633 247.385 260.081 247.486C262.529 247.588 266.604 242.175 268.015 239.862C269.423 237.548 267.097 236.629 265.152 238.478C262.621 240.888 260.285 242.49 259.727 242.49C259.169 242.49 246.605 238.338 246.605 238.338C246.605 238.338 239.247 242.691 244.474 243.996Z" fill="#FEB48C"/>
<path d="M240.803 243.798C240.803 243.798 251.357 250.263 253.451 251.008C255.545 251.753 260.404 248.163 262.193 246.538C263.981 244.915 262.196 243.493 260.055 244.574C257.271 245.98 254.856 246.738 254.374 246.587C253.892 246.439 244.039 239.471 244.039 239.471C244.039 239.471 236.6 241.266 240.803 243.798Z" fill="#FEB48C"/>
<path d="M246.922 229.192C246.922 229.192 251.693 226.993 254.454 226.681C257.215 226.365 261.864 226.347 263.796 225.151C265.728 223.958 265.037 228.28 262.683 229.963C260.328 231.646 255.218 234.941 255.218 234.941C255.218 234.941 242.938 231.492 246.922 229.192Z" fill="#FEB48C"/>
<path d="M246.922 246.692C246.922 246.692 239.051 243.957 236.749 240.885C235.148 238.749 235.915 231.213 240.157 229.478C244.399 227.741 251.939 229.069 256.431 231.573C259.925 233.519 250.492 246.689 246.922 246.692Z" fill="#FEB48C"/>
<path d="M241.192 246.921C244.852 247.695 245.478 227.181 245.478 227.181C245.478 227.181 203.413 222.547 201.095 215.513C198.777 208.48 228.101 154.969 228.935 151.127C229.509 148.478 233.349 139.457 227.764 131.728C224.239 126.852 218.3 125.839 213.834 129.076C210.685 131.361 207.835 134.034 205.52 137.167C191.352 156.384 168.805 224.771 173.628 229.517C179.142 234.949 213.706 242.732 213.706 242.732C213.706 242.732 236.775 245.988 241.192 246.921Z" fill="black"/>
<path d="M224.378 132.95C224.378 132.95 215.164 136.514 209.929 129.41C204.693 122.304 213.477 118.032 213.477 118.032C213.477 118.032 207.765 125.221 216.095 126.12C224.425 127.021 224.477 113.048 221.552 105.34C213.102 83.0786 217.998 68.4363 221.909 60.46C225.817 52.4837 232.778 46.6434 232.778 46.6434L237.539 43.989L240.84 52.0747C240.84 52.0747 234.843 61.231 231.806 69.6736C228.768 78.1162 227.478 88.9631 234.59 102.946C241.7 116.927 243.484 130.663 224.378 132.95Z" fill="#442B19"/>
<path d="M240.837 52.0721L237.536 43.9864C237.536 43.9864 227.991 39.0501 220.72 58.2953C218.222 64.9066 216.916 72.8412 216.384 80.8201C219.648 92.7846 228.898 106.575 233.936 118.295C240.295 133.085 220.84 129.134 220.84 129.134C220.84 129.134 227.318 140.095 237.067 131.65C247.785 122.366 238.438 107.044 234.348 99.026C230.257 91.0054 230.945 75.8083 234.869 67.1703C238.793 58.5324 240.837 52.0721 240.837 52.0721Z" fill="#513826"/>
<path d="M240.837 52.0721C240.837 52.0721 262.613 46.3074 273.547 72.6458C284.482 98.9869 268.787 111.121 271.548 119.24C274.309 127.362 281.721 128.527 288.09 120.173C288.09 120.173 280.264 125.216 279.098 119.522C277.933 113.83 290.938 105.489 289.751 83.7637C289.337 76.1339 288.098 69.5668 286.667 64.2528C283.322 56.4067 278.016 48.5164 270.127 43.8119C254.317 34.382 236.116 35.0437 237.531 43.9864L240.837 52.0721Z" fill="#442B19"/>
<path d="M272.408 309.629V305.873H162.848C157.216 305.873 152.653 311.257 152.653 317.9V317.976C152.653 324.618 157.219 330.003 162.848 330.003H272.408V326.246C269 317.767 272.408 309.629 272.408 309.629Z" fill="#A78BEF"/>
<path d="M162.847 305.873H207.086C207.259 306.485 207.358 307.126 207.358 307.793V318.775C207.358 322.654 204.237 325.798 200.389 325.798H155.106C153.576 323.696 152.65 320.963 152.65 317.976V317.9C152.653 311.257 157.216 305.873 162.847 305.873Z" fill="#8068D8"/>
<path d="M272.408 305.873H218.681C214.178 305.873 210.528 310.179 210.528 315.49V320.385C210.528 325.697 214.178 330 218.681 330H272.408V326.244C269 317.767 272.408 309.629 272.408 309.629V305.873Z" fill="#8068D8"/>
<path d="M219.257 309.629C216.157 309.629 213.644 312.594 213.644 316.251V319.622C213.644 323.279 216.157 326.244 219.257 326.244H272.41C269.428 317.937 272.41 309.629 272.41 309.629H219.257Z" fill="#EDF0EF"/>
<path opacity="0.83" d="M272.408 309.629H219.257C216.157 309.629 213.644 312.594 213.644 316.251V317.937H271.086C271.146 313.172 272.408 309.629 272.408 309.629Z" fill="#DEE1DE"/>
<path d="M166.317 274.627V272.249H252.554C256.986 272.249 260.579 275.656 260.579 279.86V279.907C260.579 284.112 256.986 287.519 252.554 287.519H166.317V285.141C169 279.777 166.317 274.627 166.317 274.627Z" fill="#A78BEF"/>
<path d="M252.554 272.251H217.734C217.599 272.637 217.521 273.043 217.521 273.465V280.415C217.521 282.869 219.976 284.859 223.006 284.859H258.647C259.851 283.528 260.579 281.799 260.579 279.907V279.86C260.579 275.659 256.986 272.251 252.554 272.251Z" fill="#A78BEF"/>
<path d="M233.688 272.249H227.454C230.025 273.679 231.782 276.547 231.782 279.858V279.91C231.782 283.221 230.025 286.089 227.454 287.519H233.688C238.12 287.519 240.714 284.073 240.714 279.871V279.793C240.714 275.588 238.12 272.249 233.688 272.249Z" fill="#8068D8"/>
<path d="M166.317 272.251H208.606C212.15 272.251 215.023 274.976 215.023 278.337V281.434C215.023 284.794 212.15 287.519 208.606 287.519H166.317V285.141C169 279.777 166.317 274.627 166.317 274.627V272.251Z" fill="#8068D8"/>
<path d="M208.155 274.627C210.596 274.627 212.575 276.503 212.575 278.819V280.952C212.575 283.265 210.596 285.143 208.155 285.143H166.317C168.664 279.887 166.317 274.63 166.317 274.63H208.155V274.627Z" fill="#EDF0EF"/>
<path opacity="0.83" d="M166.317 274.627H208.155C210.596 274.627 212.575 276.503 212.575 278.819V279.884H167.36C167.313 276.87 166.317 274.627 166.317 274.627Z" fill="#DEE1DE"/>
<path d="M158.988 290.369V287.519H263.243C268.601 287.519 272.027 291.624 272.027 296.662V296.719C272.027 301.757 268.601 305.818 263.243 305.818H158.988V302.969C162.232 296.54 158.988 290.369 158.988 290.369Z" fill="#E527BB"/>
<path d="M272.024 296.665V296.722C272.024 298.785 271.443 300.676 270.395 302.2H226.15C223.251 302.2 220.902 299.835 220.902 296.917V287.521H263.243C268.601 287.519 272.024 291.627 272.024 296.665Z" fill="#E527BB"/>
<path opacity="0.15" d="M240.435 287.519H232.9C236.008 289.233 238.133 292.669 238.133 296.636V296.699C238.133 300.666 236.008 304.104 232.9 305.816H240.435C245.793 305.816 250.137 301.731 250.137 296.693V296.636C250.137 291.603 245.793 287.519 240.435 287.519Z" fill="#231F20"/>
<path opacity="0.15" d="M158.988 287.519H210.113C214.397 287.519 217.87 290.785 217.87 294.813V298.525C217.87 302.552 214.397 305.818 210.113 305.818H158.988V302.969C162.232 296.54 158.988 290.366 158.988 290.366V287.519Z" fill="#231F20"/>
<path d="M209.566 290.369C212.517 290.369 214.908 292.617 214.908 295.391V297.949C214.908 300.723 212.517 302.971 209.566 302.971H158.988C161.828 296.67 158.988 290.369 158.988 290.369H209.566Z" fill="#EDF0EF"/>
<path opacity="0.83" d="M158.988 290.369H209.566C212.517 290.369 214.908 292.617 214.908 295.391V296.67H160.248C160.19 293.057 158.988 290.369 158.988 290.369Z" fill="#DEE1DE"/>
<path d="M207.926 294.812C207.926 294.812 207.412 295.417 207.347 296.805C207.282 298.194 206.575 299.824 206.575 299.824L204.906 298.254L203.107 299.824C203.107 299.824 203.686 297.892 203.686 296.865C203.686 295.839 204.586 294.812 204.586 294.812H207.926Z" fill="#D618B2"/>
<path d="M167.997 320.401H173.044L172.713 321.779H166.469V312.794H167.997V320.401Z" fill="white"/>
<path d="M182.102 319.669H177.599L176.551 321.776H174.877L179.354 312.792H180.349L184.826 321.776H183.152L182.102 319.669ZM181.411 318.291L179.857 315.165L178.29 318.291H181.411Z" fill="white"/>
<path d="M197.017 312.794L193.391 321.779H192.395L190.961 318.22L189.527 321.779H188.531L184.904 312.794H186.539L189.024 319.036L190.963 314.196L192.89 319.036L195.388 312.794H197.017Z" fill="white"/>
<path d="M257.338 310.518L259.017 311.937L267.415 318.812L276.076 311.914L277.09 310.492L283.601 316.004L268.612 325.405L253.743 313.586L257.338 310.518Z" fill="#DA8642"/>
<path d="M296.472 329.925L238.097 330C237.263 330 236.582 329.252 236.582 328.325L236.496 293.857C236.493 292.932 237.169 292.179 238.003 292.179L296.379 292.104C297.213 292.104 297.893 292.851 297.896 293.776L297.982 328.244C297.982 329.172 297.307 329.925 296.472 329.925Z" fill="#EF9B06"/>
<path d="M236.613 293.198C236.569 293.315 236.561 293.45 236.54 293.583C236.525 293.677 236.491 293.765 236.491 293.864L236.579 328.328C236.579 328.817 236.778 329.247 237.08 329.555L259.082 310.346L236.613 293.198Z" fill="#FAC762"/>
<path d="M276.524 310.205L297.807 328.992C297.909 328.768 297.977 328.525 297.977 328.26L297.891 293.799C297.891 293.549 297.838 293.315 297.755 293.101C297.755 293.101 297.755 293.101 297.755 293.098L276.524 310.205Z" fill="#FAC762"/>
<path d="M296.493 292.098L237.945 292.189C237.38 292.213 236.902 292.557 236.663 293.052L266.958 316.754C267.48 317.163 268.199 317.155 268.713 316.733L297.724 292.96C297.492 292.476 297.035 292.14 296.493 292.098Z" fill="#FFDB96"/>
<path d="M273.654 316.793L274.546 315.219C274.614 315.102 274.572 314.954 274.455 314.886L272.921 314.016C272.846 313.972 272.799 313.894 272.799 313.805L272.786 312.12C272.786 311.984 272.674 311.875 272.538 311.877L270.776 311.89C270.687 311.89 270.606 311.846 270.562 311.771L269.709 310.317C269.642 310.2 269.49 310.161 269.373 310.231L267.96 311.062C267.884 311.106 267.79 311.106 267.715 311.065L266.289 310.255C266.171 310.187 266.023 310.228 265.955 310.346L265.123 311.812C265.079 311.888 265.001 311.935 264.912 311.937L263.15 311.95C263.014 311.95 262.905 312.062 262.907 312.198L262.92 313.883C262.92 313.969 262.876 314.052 262.8 314.097L261.28 314.99C261.163 315.058 261.124 315.209 261.194 315.324L262.109 316.884C262.154 316.96 262.154 317.053 262.112 317.129L261.22 318.702C261.153 318.82 261.194 318.968 261.312 319.036L262.845 319.906C262.92 319.95 262.967 320.028 262.97 320.117L262.983 321.802C262.983 321.938 263.095 322.047 263.23 322.044L264.993 322.031C265.082 322.031 265.162 322.076 265.207 322.151L266.059 323.605C266.127 323.722 266.278 323.761 266.396 323.691L267.809 322.86C267.884 322.815 267.978 322.815 268.054 322.857L269.48 323.667C269.597 323.735 269.746 323.693 269.814 323.576L270.645 322.11C270.69 322.034 270.768 321.987 270.857 321.985L272.619 321.971C272.755 321.971 272.864 321.859 272.862 321.724L272.848 320.039C272.848 319.95 272.893 319.869 272.968 319.825L274.488 318.932C274.606 318.864 274.645 318.713 274.574 318.598L273.659 317.04C273.612 316.962 273.61 316.868 273.654 316.793Z" fill="#E527BB"/>
<path d="M270.061 311.776C270.106 311.851 270.187 311.898 270.275 311.896L270.776 311.89C270.687 311.89 270.606 311.846 270.562 311.771L269.709 310.317C269.642 310.2 269.49 310.161 269.373 310.231L269.211 310.327L270.061 311.776Z" fill="#E527BB"/>
<path d="M270.145 322.112L269.316 323.574L269.48 323.667C269.597 323.735 269.746 323.693 269.814 323.576L270.646 322.11C270.69 322.034 270.768 321.987 270.857 321.985L270.356 321.99C270.268 321.987 270.187 322.037 270.145 322.112Z" fill="#EF542B"/>
<path d="M273.657 317.038C273.613 316.962 273.613 316.869 273.654 316.793L274.546 315.22C274.614 315.102 274.572 314.954 274.455 314.886L272.922 314.016C272.846 313.972 272.799 313.894 272.796 313.805L272.783 312.12C272.783 311.984 272.671 311.875 272.536 311.877L272.035 311.883C272.171 311.883 272.28 311.989 272.283 312.125L272.296 313.81C272.296 313.899 272.343 313.977 272.421 314.021L273.954 314.891C274.071 314.959 274.113 315.108 274.045 315.225L273.154 316.798C273.112 316.874 273.112 316.968 273.156 317.043L274.071 318.601C274.139 318.718 274.1 318.867 273.985 318.934L272.465 319.828C272.39 319.872 272.345 319.953 272.345 320.041L272.358 321.727C272.358 321.862 272.252 321.972 272.116 321.974L272.617 321.969C272.752 321.969 272.862 321.857 272.859 321.722L272.846 320.036C272.846 319.948 272.89 319.867 272.966 319.823L274.486 318.929C274.603 318.861 274.642 318.71 274.572 318.596L273.657 317.038Z" fill="#E527BB"/>
<path d="M272.132 316.928C272.15 319.276 270.265 321.193 267.918 321.211C265.572 321.229 263.656 319.341 263.637 316.994C263.619 314.647 265.507 312.729 267.851 312.711C270.194 312.693 272.111 314.579 272.132 316.928Z" fill="white"/>
<path d="M268.119 321.073C265.773 321.091 263.856 319.202 263.838 316.855C263.828 315.425 264.524 314.159 265.601 313.38C264.412 314.141 263.627 315.475 263.637 316.991C263.656 319.338 265.572 321.226 267.918 321.208C268.836 321.2 269.681 320.901 270.372 320.401C269.717 320.82 268.948 321.068 268.119 321.073Z" fill="#F9F6ED"/>
<path d="M267.85 312.711C266.922 312.719 266.069 313.026 265.376 313.534C265.991 313.177 266.706 312.966 267.47 312.961C269.816 312.943 271.732 314.831 271.751 317.179C271.761 318.598 271.073 319.856 270.012 320.638C271.289 319.895 272.144 318.512 272.131 316.928C272.11 314.579 270.194 312.693 267.85 312.711Z" fill="#EFD89E"/>
<path d="M319.548 316.697L321.978 313.151C323.209 311.354 322.75 308.9 320.951 307.668L299.906 293.271C298.107 292.038 295.651 292.5 294.417 294.297L291.99 297.845C290.757 299.642 291.218 302.096 293.017 303.326L314.06 317.723C315.859 318.953 318.315 318.494 319.548 316.697Z" fill="#A78BEF"/>
<path d="M347.754 276.615L350.183 273.069C351.414 271.272 350.955 268.818 349.156 267.586L328.111 253.189C326.312 251.956 323.856 252.417 322.623 254.215L320.193 257.76C318.962 259.558 319.421 262.011 321.22 263.244L342.265 277.641C344.064 278.871 346.523 278.412 347.754 276.615Z" fill="#A78BEF"/>
<path d="M321.226 263.252L300.411 293.622L320.454 307.334L341.269 276.964L321.226 263.252Z" fill="#CACADA"/>
<path d="M336.028 288.63L329.452 298.224L367.281 324.106L373.857 314.511L336.028 288.63Z" fill="#A78BEF"/>
<path d="M337.739 286.125L327.732 300.726L328.559 301.291C329.659 302.044 331.161 301.763 331.914 300.663L339.194 290.04C339.947 288.941 339.666 287.441 338.565 286.688L337.739 286.125Z" fill="#8068D8"/>
<path d="M380.544 319.515L374.368 328.526C373.309 330.07 371.2 330.464 369.654 329.406L368.361 328.52C366.814 327.463 366.421 325.355 367.479 323.811L373.656 314.8C374.714 313.258 376.824 312.862 378.37 313.92L379.663 314.805C381.206 315.863 381.6 317.97 380.544 319.515Z" fill="#8068D8"/>
<path d="M315.83 267.1L302.049 287.207L325.848 303.489L339.629 283.382L315.83 267.1Z" fill="#DDDCED"/>
<path d="M335.872 280.811L322.092 300.918L325.85 303.489L339.631 283.382L335.872 280.811Z" fill="#A78BEF"/>
<path d="M333.116 278.924L319.335 299.031L322.091 300.916L335.871 280.809L333.116 278.924Z" fill="#CACADA"/>
<path d="M342.291 282.437C343.001 281.4 342.737 279.983 341.7 279.274L318.902 263.679C317.864 262.97 316.446 263.233 315.737 264.27C315.028 265.307 315.291 266.724 316.329 267.432L339.126 283.028C340.164 283.739 341.58 283.474 342.291 282.437Z" fill="#A78BEF"/>
<path d="M325.936 306.301C326.645 305.264 326.382 303.847 325.344 303.138L302.547 287.542C301.509 286.834 300.091 287.097 299.381 288.134C298.672 289.171 298.936 290.588 299.973 291.296L322.771 306.892C323.808 307.603 325.227 307.337 325.936 306.301Z" fill="#A78BEF"/>
<path d="M323.689 322.112H272.866C271.683 322.112 270.723 323.071 270.723 324.254V329.997H325.832V324.254C325.832 323.071 324.872 322.112 323.689 322.112Z" fill="#A78BEF"/>
<path d="M321.507 319.685H275.051V322.112H321.507V319.685Z" fill="#8068D8"/>
<path d="M167.17 280.412C153.32 275.45 140.769 261.792 140.769 261.792C140.769 261.792 122.573 265.437 108.458 261.295C108.458 261.295 88.604 303.336 118.519 330C158.42 326.066 167.17 280.412 167.17 280.412Z" fill="#A78BEF"/>
<path d="M167.306 279.996C153.451 275.052 140.772 261.792 140.772 261.792C140.772 261.792 122.707 265.041 108.596 260.878C108.596 260.878 89.3994 300.906 119.544 326.869C159.21 323.639 167.306 279.996 167.306 279.996Z" fill="#8068D8"/>
<path d="M163.848 281.363C151.279 276.878 139.771 264.861 139.771 264.861C139.771 264.861 123.384 267.797 110.583 264.02C110.583 264.02 93.1848 300.273 120.542 323.806C156.524 320.896 163.848 281.363 163.848 281.363Z" fill="#A78BEF"/>
<path d="M161.684 282.194C149.921 277.998 139.153 266.752 139.153 266.752C139.153 266.752 123.82 269.498 111.842 265.966C111.842 265.966 95.5628 299.89 121.163 321.909C154.833 319.187 161.684 282.194 161.684 282.194Z" fill="#8068D8"/>
<path d="M160.157 282.434C149.013 278.451 138.856 267.659 138.856 267.659C138.856 267.659 124.284 270.399 112.932 267.057C112.932 267.057 97.281 299.897 121.455 321.005C153.438 318.181 160.157 282.434 160.157 282.434Z" fill="white"/>
<path d="M157.862 282.973C147.626 279.305 138.339 269.243 138.339 269.243C138.339 269.243 124.902 271.907 114.468 268.844C114.468 268.844 99.8437 299.765 121.971 319.421C151.443 316.566 157.862 282.973 157.862 282.973Z" fill="#8068D8"/>
<path d="M138.342 269.243L121.974 319.419C151.446 316.566 157.862 282.973 157.862 282.973C147.626 279.308 138.342 269.243 138.342 269.243Z" fill="#A78BEF"/>
<path d="M147.126 299.593L146.586 299.413L146.536 299.397L144.988 287.938C145.134 287.891 145.256 287.779 145.306 287.623C145.392 287.362 145.251 287.084 144.99 286.998C144.761 286.922 144.516 287.021 144.404 287.224C143.627 286.896 141.718 286.018 139.977 284.638C137.721 282.848 134.324 283.624 134.324 283.624L134.879 280.152C135.104 280.17 135.317 280.037 135.393 279.816C135.479 279.555 135.338 279.277 135.078 279.191C134.817 279.105 134.538 279.245 134.452 279.506C134.381 279.717 134.462 279.938 134.634 280.061L133 283.184C133 283.184 130.739 280.532 127.861 280.621C125.666 280.689 123.637 280.267 122.795 280.061C122.824 279.832 122.688 279.608 122.459 279.532C122.198 279.446 121.919 279.587 121.833 279.847C121.778 280.014 121.817 280.186 121.919 280.313L113.56 288.472L113.198 288.352C113.104 288.321 113.021 288.417 113.06 288.506V288.509C113.435 289.306 113.85 289.983 114.29 290.559C114.353 290.642 114.418 290.72 114.481 290.798C114.608 290.955 114.739 291.101 114.872 291.241C115.203 291.59 115.544 291.89 115.891 292.145C116.032 292.247 116.173 292.343 116.313 292.432C118.509 293.807 120.933 293.586 122.646 293.122C122.813 293.078 122.972 293.031 123.124 292.981C123.173 292.966 123.223 292.95 123.272 292.932C123.369 292.901 123.465 292.867 123.554 292.833C123.645 292.799 123.731 292.768 123.814 292.736C124.146 292.609 124.414 292.486 124.602 292.395C124.646 292.374 124.672 292.335 124.68 292.296C124.696 292.228 124.662 292.153 124.584 292.127L124.044 291.947L123.994 291.931L122.446 280.478C122.482 280.467 122.519 280.449 122.553 280.431L132.71 283.796C132.679 283.801 132.65 283.82 132.64 283.854L132.598 283.979C132.583 284.023 132.609 284.07 132.653 284.085L132.924 284.177L127.449 299.796C127.399 299.78 127.345 299.806 127.329 299.856L127.274 300.022C126.555 299.788 125.778 300.179 125.54 300.898L125.423 301.249L122.91 300.416C122.37 300.236 121.789 300.528 121.609 301.067L121.275 302.075L120.858 301.937C120.6 301.851 120.323 301.992 120.237 302.247L120.107 302.638L133.086 306.938L133.216 306.548C133.302 306.29 133.161 306.014 132.906 305.928L132.494 305.79L132.828 304.782C133.007 304.242 132.713 303.661 132.176 303.482L129.662 302.648L129.78 302.296C130.02 301.575 129.629 300.796 128.906 300.556L128.872 300.546L128.927 300.379C128.943 300.33 128.917 300.275 128.867 300.259L133.818 284.468L134.089 284.56C134.134 284.575 134.181 284.549 134.196 284.505L134.238 284.38C134.249 284.349 134.238 284.315 134.217 284.294L144.391 287.665C144.409 287.709 144.435 287.751 144.466 287.79L136.11 295.943L135.748 295.823C135.654 295.792 135.57 295.888 135.609 295.977V295.98C135.985 296.777 136.399 297.454 136.84 298.03C136.903 298.113 136.968 298.191 137.03 298.269C137.158 298.426 137.289 298.571 137.422 298.712C137.753 299.061 138.094 299.361 138.441 299.616C138.582 299.718 138.723 299.814 138.863 299.903C139.288 300.168 139.721 300.374 140.156 300.53C140.229 300.556 140.302 300.58 140.375 300.603C140.448 300.627 140.521 300.648 140.594 300.668C141.03 300.793 141.465 300.869 141.893 300.911C142.391 300.958 142.881 300.955 143.35 300.918C143.619 300.898 143.88 300.864 144.13 300.822C144.57 300.749 144.985 300.653 145.36 300.543C145.736 300.434 146.075 300.317 146.364 300.205C146.448 300.173 146.526 300.14 146.602 300.111C146.677 300.08 146.748 300.051 146.813 300.02C146.946 299.962 147.058 299.908 147.152 299.863C147.196 299.843 147.222 299.804 147.23 299.764C147.238 299.694 147.204 299.619 147.126 299.593ZM123.528 291.773L114.019 288.621L122.078 280.441C122.099 280.452 122.12 280.462 122.143 280.47C122.175 280.48 122.203 280.485 122.234 280.491L123.528 291.773ZM144.623 287.912C144.641 287.92 144.659 287.93 144.68 287.938C144.714 287.949 144.745 287.956 144.779 287.959L146.072 299.244L136.564 296.092L144.623 287.912Z" fill="white"/>
</g>
<defs>
<linearGradient id="paint0_linear_585_5464" x1="291.42" y1="182.28" x2="363.189" y2="182.28" gradientUnits="userSpaceOnUse">
<stop stop-color="#2A3645"/>
<stop offset="1" stop-color="#19222B"/>
</linearGradient>
<linearGradient id="paint1_linear_585_5464" x1="187.536" y1="207.659" x2="216.058" y2="207.659" gradientUnits="userSpaceOnUse">
<stop stop-color="#2A3645"/>
<stop offset="1" stop-color="#19222B"/>
</linearGradient>
<clipPath id="clip0_585_5464">
<rect width="532.49" height="330.06" fill="white"/>
</clipPath>
</defs>
</svg>
