<svg width="533" height="331" viewBox="0 0 533 331" fill="none" xmlns="http://www.w3.org/2000/svg">
<g clip-path="url(#clip0_585_5464)">
<path opacity="0.2" fill-rule="evenodd" clip-rule="evenodd" d="M94.62 234.95H47.52H46.29C20.28 234.95 -1 256.23 -1 282.24C-1 308.25 20.28 329.53 46.29 329.53H184.35H208.13H454.92C497.04 329.53 531.5 295.07 531.5 252.96C531.5 210.84 497.04 176.39 454.93 176.39C437.12 176.39 422.55 161.82 422.55 144.01C422.55 126.2 437.12 111.63 454.93 111.63H493.9C512.41 111.63 527.56 96.48 527.56 77.97C527.56 59.46 512.41 44.31 493.9 44.31H444.63C437.42 44.31 431.53 38.41 431.53 31.2C431.53 23.99 437.43 18.1 444.63 18.1H453.32C458.29 18.1 462.36 14.03 462.36 9.06C462.36 4.09 458.29 0.02 453.32 0.02H420.77C420.77 0.02 408.33 0.02 396.33 0.02C384.33 0.02 382.99 14.2 352.67 14.2C305.8 14.2 329.23 14.2 282.36 14.2C275.87 14.2 270.56 19.51 270.56 26C270.56 32.49 275.87 37.8 282.36 37.8H293.69C303.1 37.8 310.79 45.5 310.79 54.9C310.79 64.31 303.1 72 293.69 72H259.58C213.52 72 207.01 84.04 198.95 107.98C190.88 131.92 148.99 133.85 148.99 133.85H91.67C77.5 133.85 65.9 145.45 65.9 159.62C65.9 173.79 77.5 185.39 91.67 185.39H94.62C108.25 185.39 119.41 196.54 119.41 210.18C119.4 223.8 108.25 234.95 94.62 234.95ZM478.68 18.09C473.68 18.09 469.63 14.04 469.63 9.05C469.63 4.06 473.68 0 478.68 0C483.67 0 487.72 4.05 487.72 9.04C487.72 14.03 483.67 18.09 478.68 18.09Z" fill="#999999"/>
<g clip-path="url(#clip1_585_5464)">
<path d="M197.283 317.945V322.655C197.283 324.069 196.131 325.232 194.71 325.232H98.6129C97.2011 325.232 96.0391 324.078 96.0391 322.655V317.945C96.0391 316.532 97.1915 315.369 98.6129 315.369H194.71C196.121 315.369 197.283 316.522 197.283 317.945Z" fill="#DDC558"/>
<path d="M213.149 308.082V312.793C213.149 314.206 211.997 315.369 210.575 315.369H114.479C113.067 315.369 111.905 314.215 111.905 312.793V308.082C111.905 306.669 113.057 305.506 114.479 305.506H210.575C211.987 305.506 213.149 306.669 213.149 308.082Z" fill="#DDC558"/>
<path d="M217.394 288.405V293.115C217.394 294.528 216.241 295.691 214.82 295.691H118.723C117.311 295.691 116.149 294.538 116.149 293.115V288.405C116.149 286.992 117.302 285.829 118.723 285.829H214.82C216.241 285.829 217.394 286.992 217.394 288.405Z" fill="#DDC558"/>
<path d="M202.642 298.22V302.93C202.642 304.343 201.49 305.506 200.069 305.506H103.972C102.56 305.506 101.398 304.353 101.398 302.93V298.22C101.398 296.806 102.55 295.643 103.972 295.643H200.069C201.48 295.653 202.642 296.806 202.642 298.22Z" fill="#DDC558"/>
<path opacity="0.4" d="M197.283 317.945V322.655C197.283 324.069 196.131 325.232 194.71 325.232H181.543C177.096 318.83 162.085 316.282 147.391 315.369H194.719C196.121 315.369 197.283 316.522 197.283 317.945Z" fill="#C48017"/>
<path opacity="0.4" d="M174.695 305.506C147.161 305.506 133.168 312.235 128.145 315.369H114.479C113.067 315.369 111.905 314.215 111.905 312.793V308.082C111.905 306.669 113.057 305.506 114.479 305.506H174.695Z" fill="#C48017"/>
<path opacity="0.4" d="M118.723 285.829H170.652C153.384 285.915 129.681 294.711 128.855 295.643L128.807 295.682H118.723C117.311 295.682 116.149 294.528 116.149 293.106V288.395C116.159 286.992 117.311 285.829 118.723 285.829Z" fill="#C48017"/>
<path d="M217.394 269.189V273.899C217.394 275.312 216.241 276.475 214.82 276.475H118.723C117.311 276.475 116.149 275.322 116.149 273.899V269.189C116.149 267.776 117.302 266.613 118.723 266.613H214.82C216.241 266.613 217.394 267.766 217.394 269.189Z" fill="#DDC558"/>
<path d="M217.615 279.003V283.714C217.615 285.127 216.463 286.29 215.041 286.29H118.944C117.533 286.29 116.371 285.137 116.371 283.714V279.003C116.371 277.59 117.523 276.427 118.944 276.427H215.041C216.453 276.427 217.615 277.581 217.615 279.003Z" fill="#DDC558"/>
<path opacity="0.4" d="M118.723 266.613H170.652C153.384 266.699 129.681 275.495 128.855 276.427L128.807 276.466H118.723C117.311 276.466 116.149 275.312 116.149 273.889V269.179C116.159 267.766 117.311 266.613 118.723 266.613Z" fill="#C48017"/>
<path d="M171.081 259.715C181.732 249.945 182.453 233.382 172.692 222.72C162.931 212.059 146.383 211.337 135.732 221.107C125.08 230.878 124.359 247.441 134.12 258.102C143.882 268.763 160.429 269.486 171.081 259.715Z" fill="#E527BB"/>
<path d="M153.471 264.555C152.51 264.555 151.55 264.498 150.58 264.382C144.184 263.623 138.469 260.412 134.484 255.356C130.498 250.29 128.721 243.974 129.48 237.572C130.239 231.17 133.446 225.45 138.498 221.461C143.559 217.472 149.869 215.703 156.265 216.453C162.661 217.212 168.385 220.423 172.371 225.479C176.357 230.545 178.133 236.861 177.375 243.263C176.616 249.665 173.408 255.385 168.357 259.384C164.044 262.767 158.849 264.555 153.471 264.555ZM153.375 217.385C148.236 217.385 143.281 219.096 139.18 222.326C134.349 226.133 131.295 231.593 130.575 237.697C129.845 243.811 131.545 249.828 135.348 254.664C139.151 259.499 144.606 262.556 150.705 263.277C156.813 263.998 162.825 262.306 167.656 258.499C172.486 254.693 175.54 249.232 176.261 243.128C176.991 237.014 175.291 230.997 171.487 226.162C167.684 221.326 162.229 218.269 156.131 217.548C155.209 217.443 154.287 217.385 153.375 217.385Z" fill="white"/>
<path d="M156.534 247.637C156.601 247.098 156.582 246.618 156.476 246.195C156.371 245.772 156.169 245.368 155.871 245.003C155.564 244.628 155.161 244.272 154.652 243.926C154.143 243.58 153.518 243.234 152.769 242.869C151.482 242.234 150.32 241.6 149.283 240.956C148.246 240.312 147.381 239.6 146.68 238.831C145.979 238.062 145.47 237.197 145.144 236.246C144.817 235.294 144.731 234.188 144.875 232.939C145 231.852 145.317 230.891 145.797 230.045C146.287 229.199 146.93 228.488 147.718 227.911C148.505 227.334 149.427 226.892 150.464 226.604C151.511 226.306 152.654 226.171 153.902 226.21L154.383 222.124L157.667 222.518L157.177 226.662C158.34 226.95 159.367 227.392 160.27 227.978C161.173 228.565 161.912 229.276 162.498 230.103C163.084 230.939 163.497 231.881 163.737 232.958C163.977 234.025 164.025 235.198 163.871 236.476L157.927 235.775C158.109 234.246 157.907 233.064 157.312 232.227C156.726 231.391 155.862 230.901 154.719 230.766C154.104 230.689 153.557 230.718 153.096 230.834C152.625 230.949 152.231 231.141 151.914 231.41C151.588 231.679 151.338 232.006 151.156 232.391C150.973 232.785 150.848 233.218 150.791 233.689C150.733 234.16 150.752 234.592 150.848 234.996C150.945 235.39 151.137 235.775 151.434 236.14C151.732 236.505 152.145 236.861 152.664 237.216C153.182 237.572 153.835 237.947 154.623 238.351C155.891 239.004 157.043 239.658 158.071 240.312C159.098 240.965 159.963 241.677 160.664 242.455C161.365 243.234 161.874 244.099 162.2 245.051C162.527 246.003 162.613 247.098 162.469 248.339C162.335 249.463 162.018 250.444 161.528 251.29C161.029 252.136 160.385 252.837 159.598 253.404C158.81 253.972 157.888 254.395 156.832 254.664C155.775 254.943 154.623 255.058 153.384 255.029L152.933 258.836L149.667 258.451L150.119 254.664C148.995 254.414 147.929 254.039 146.911 253.529C145.893 253.02 145.019 252.357 144.279 251.54C143.54 250.723 142.992 249.732 142.628 248.579C142.263 247.425 142.176 246.079 142.359 244.551L148.303 245.253C148.198 246.156 148.236 246.925 148.419 247.56C148.601 248.194 148.88 248.723 149.264 249.136C149.648 249.55 150.099 249.867 150.618 250.069C151.146 250.28 151.684 250.415 152.251 250.482C152.894 250.559 153.47 250.54 153.979 250.434C154.488 250.328 154.921 250.146 155.285 249.896C155.65 249.646 155.939 249.319 156.15 248.944C156.351 248.531 156.486 248.108 156.534 247.637Z" fill="white"/>
<path d="M423.58 17.4473L394.327 127.034L393.309 124.39L391.042 126.15L389.995 123.506L387.508 125.207L386.442 122.554L384.166 124.313L382.61 121.535L380.334 123.285L378.864 120.526L376.012 122.131L374.61 119.392L372.094 121.084L371.297 118.507L368.723 120.18L367.868 117.584L365.784 119.392L364.747 116.748L362.346 118.478L360.579 115.643L358.014 117.315L356.737 114.614L354.288 116.316L353.337 113.701L351.205 115.498L350.072 112.826L347.767 114.576L346.73 111.932L344.166 113.614L343.1 110.961L340.526 112.643L339.498 110L337.183 111.749L335.676 108.981L333.284 110.702L332.055 108.01L329.087 109.577L358.341 0L423.58 17.4473Z" fill="#A78BEF"/>
<path d="M411.306 29.675L364.267 17.0918C363.383 16.8514 362.855 15.9382 363.085 15.0538C363.325 14.1695 364.238 13.6407 365.121 13.8715L412.161 26.4547C413.045 26.695 413.573 27.6082 413.343 28.4926C413.102 29.377 412.19 29.9153 411.306 29.675Z" fill="#CED2EC"/>
<path d="M408.55 40.0087L361.51 27.4255C360.627 27.1852 360.098 26.272 360.329 25.3876C360.569 24.5032 361.481 23.9745 362.365 24.2052L409.405 36.7884C410.288 37.0287 410.817 37.942 410.586 38.8264C410.346 39.7107 409.434 40.2491 408.55 40.0087Z" fill="#CED2EC"/>
<path d="M405.784 50.3425L358.744 37.7592C357.861 37.5189 357.332 36.6057 357.563 35.7213C357.803 34.8369 358.715 34.3082 359.599 34.5389L406.639 47.1222C407.522 47.3625 408.051 48.2757 407.82 49.1601C407.59 50.0445 406.677 50.5828 405.784 50.3425Z" fill="#CED2EC"/>
<path d="M403.028 60.6765L355.988 48.0932C355.104 47.8529 354.576 46.9397 354.806 46.0553C355.047 45.1709 355.959 44.6422 356.842 44.8729L403.882 57.4562C404.766 57.6965 405.294 58.6097 405.064 59.4941C404.833 60.3785 403.911 60.9072 403.028 60.6765Z" fill="#CED2EC"/>
<path d="M400.271 71.0102L353.231 58.427C352.348 58.1866 351.82 57.2734 352.05 56.389C352.29 55.5047 353.203 54.976 354.086 55.2067L401.126 67.7899C402.01 68.0302 402.538 68.9434 402.307 69.8278C402.067 70.7122 401.155 71.2409 400.271 71.0102Z" fill="#CED2EC"/>
<path d="M372.382 90.5051C372.449 90.2551 372.468 90.0244 372.449 89.813C372.43 89.6015 372.363 89.3996 372.238 89.1977C372.123 88.9959 371.95 88.8036 371.729 88.6017C371.508 88.3999 371.229 88.1884 370.903 87.9673C370.336 87.5732 369.818 87.1886 369.376 86.8137C368.925 86.4388 368.56 86.0351 368.281 85.6217C368.003 85.2084 367.81 84.7566 367.724 84.2856C367.638 83.8049 367.666 83.2762 367.82 82.6898C367.955 82.1803 368.166 81.7382 368.464 81.3729C368.752 81.0076 369.107 80.7096 369.53 80.4885C369.943 80.2674 370.413 80.1232 370.932 80.0559C371.45 79.9886 372.007 79.9982 372.593 80.104L373.102 78.1814L374.648 78.5947L374.13 80.5365C374.668 80.7576 375.129 81.0364 375.513 81.3729C375.907 81.7189 376.214 82.1034 376.435 82.536C376.656 82.9686 376.79 83.4589 376.829 83.9779C376.867 84.5067 376.809 85.0642 376.656 85.6602L373.871 84.92C374.063 84.199 374.043 83.6223 373.822 83.1801C373.602 82.7379 373.217 82.4495 372.689 82.3053C372.401 82.2284 372.142 82.1996 371.911 82.2284C371.681 82.2572 371.479 82.3149 371.306 82.4207C371.133 82.5264 370.989 82.661 370.874 82.834C370.759 83.007 370.672 83.2089 370.615 83.43C370.557 83.6511 370.538 83.8626 370.548 84.0549C370.567 84.2471 370.634 84.449 370.749 84.6412C370.865 84.8335 371.037 85.0354 371.258 85.2372C371.479 85.4391 371.767 85.6698 372.113 85.9101C372.67 86.3139 373.179 86.6984 373.621 87.0829C374.063 87.4674 374.428 87.8615 374.706 88.2845C374.985 88.6979 375.177 89.1497 375.263 89.6303C375.35 90.1109 375.321 90.6397 375.167 91.2164C375.023 91.7451 374.812 92.1873 374.514 92.5622C374.216 92.9275 373.861 93.2255 373.448 93.437C373.035 93.6485 372.564 93.7927 372.046 93.8503C371.527 93.908 370.97 93.8888 370.375 93.7831L369.894 95.571L368.358 95.1577L368.828 93.3793C368.31 93.1871 367.82 92.9275 367.378 92.6199C366.927 92.3027 366.552 91.9278 366.264 91.4856C365.966 91.0434 365.774 90.5339 365.678 89.9571C365.582 89.3804 365.63 88.7363 365.822 88.0153L368.608 88.7555C368.492 89.1785 368.464 89.5534 368.502 89.861C368.54 90.1782 368.646 90.4474 368.8 90.6685C368.953 90.8896 369.145 91.0722 369.385 91.2068C369.626 91.3414 369.875 91.4471 370.135 91.5144C370.432 91.5913 370.711 91.6298 370.961 91.6106C371.21 91.5913 371.431 91.5337 371.623 91.4375C371.815 91.3414 371.969 91.2068 372.103 91.0434C372.228 90.9184 372.324 90.7262 372.382 90.5051Z" fill="#CED2EC"/>
<path d="M371.277 99.5411C370.173 99.5411 369.068 99.3969 367.973 99.1085C364.698 98.2337 361.952 96.1285 360.252 93.187C358.552 90.2455 358.101 86.8137 358.975 83.5357C359.849 80.2577 361.952 77.5084 364.891 75.807C367.829 74.1055 371.258 73.6537 374.533 74.5284C377.817 75.4032 380.555 77.5084 382.254 80.45C383.954 83.3915 384.406 86.8233 383.532 90.1013C382.658 93.3793 380.555 96.1285 377.616 97.83C375.657 98.9643 373.476 99.5411 371.277 99.5411ZM371.239 74.5957C369.126 74.5957 367.032 75.1533 365.15 76.2395C362.326 77.8737 360.31 80.5076 359.464 83.6607C358.619 86.8137 359.061 90.1013 360.694 92.9275C362.326 95.7536 364.958 97.7723 368.108 98.6183C371.258 99.4642 374.543 99.022 377.366 97.3878C380.19 95.7536 382.206 93.1197 383.052 89.9667C383.897 86.8137 383.455 83.5261 381.822 80.6999C380.19 77.8737 377.558 75.855 374.408 75.0091C373.352 74.7303 372.295 74.5957 371.239 74.5957Z" fill="#CED2EC"/>
<path d="M513.31 325.097H291.431H287.983H17.7287C16.7779 325.097 16 325.972 16 327.039V327.058C16 328.125 16.7779 329 17.7287 329H287.992H291.44H513.319C514.251 329 515.01 328.144 515.01 327.097V327.01C515 325.962 514.241 325.097 513.31 325.097Z" fill="black"/>
<path d="M211.315 158.516L113.768 87.8904C111.914 86.5446 111.492 83.9299 112.836 82.0746L151.559 28.483C152.904 26.6277 155.516 26.2047 157.37 27.5505L254.926 98.1762C256.78 99.522 257.202 102.137 255.858 103.992L217.135 157.584C215.78 159.439 213.168 159.852 211.315 158.516Z" fill="#A78BEF"/>
<path opacity="0.4" d="M251.816 109.572L147.521 34.0767L138.893 46.0177L243.188 121.513L251.816 109.572Z" fill="white"/>
<path opacity="0.2" d="M208.149 101.227L144.336 55.0356L137.555 64.4217L201.368 110.613L208.149 101.227Z" fill="white"/>
<path opacity="0.2" d="M133.984 91.4281L126.061 85.6892C124.658 84.6702 124.342 82.7092 125.36 81.2961L130.306 74.4518C131.324 73.0483 133.283 72.7311 134.695 73.75L142.618 79.4889C144.02 80.5079 144.337 82.4689 143.319 83.882L138.373 90.7263C137.355 92.1394 135.386 92.447 133.984 91.4281Z" fill="white"/>
<path opacity="0.2" d="M219.199 136.772L155.861 90.9185C155.496 90.6589 155.419 90.1495 155.679 89.7842C155.938 89.4189 156.447 89.342 156.812 89.6015L220.15 135.455C220.515 135.714 220.592 136.233 220.332 136.589C220.073 136.954 219.564 137.031 219.199 136.772Z" fill="white"/>
<path opacity="0.2" d="M215.214 142.28L151.876 96.4265C151.511 96.167 151.434 95.6479 151.693 95.2922C151.953 94.9269 152.471 94.85 152.827 95.1096L216.164 140.963C216.529 141.222 216.606 141.732 216.347 142.097C216.088 142.463 215.579 142.549 215.214 142.28Z" fill="white"/>
<path opacity="0.2" d="M211.353 147.625L148.015 101.772C147.65 101.512 147.573 100.993 147.833 100.637C148.092 100.272 148.601 100.195 148.966 100.455L212.304 146.308C212.669 146.567 212.745 147.087 212.486 147.442C212.227 147.807 211.718 147.884 211.353 147.625Z" fill="white"/>
<path d="M158.676 143.76C151.406 142.828 149.571 149.442 149.571 149.442C149.571 149.442 140.544 153.171 137.489 154.546C134.666 155.824 126.061 160.064 126.061 160.064C126.061 160.064 110.051 141.03 104.01 140.54L105.047 155.084C105.047 155.084 112.174 162.871 115.016 165.38C116.928 167.062 124.044 171.849 124.044 171.849C124.044 171.849 130.776 169.629 139.9 162.938C142.762 160.842 150.935 153.998 150.935 153.998C153.173 154.306 155.141 153.719 156.947 151.133C158.753 148.548 159.252 149.538 160.404 147.615C161.951 144.991 159.511 144.02 158.676 143.76Z" fill="#D2A4AB"/>
<path d="M77.2827 305.554L80.8362 320.541L86.1663 320.512L86.3584 305.554H77.2827Z" fill="#D4A6AD"/>
<path d="M83.5347 319.224C77.513 318.964 77.2729 325.097 77.2729 325.097H82.3918H84.6776H89.6044C89.6044 325.097 89.566 318.964 83.5347 319.224Z" fill="#A78BEF"/>
<path d="M123.516 306.189L132.207 320.541L137.537 320.512L133.244 304.218L123.516 306.189Z" fill="#D4A6AD"/>
<path d="M134.906 319.224C128.884 318.964 128.654 325.097 128.654 325.097H133.773H136.049H140.976C140.976 325.097 140.937 318.964 134.906 319.224Z" fill="#A78BEF"/>
<path d="M95.7797 108.539C93.9453 107.491 91.7364 107.376 90.1998 107.472C90.5936 107.058 91.3811 106.914 91.3811 106.914C90.4207 106.77 88.2886 107.722 88.2886 107.722C74.9968 102.598 72.9032 122.189 73.1817 126.745C73.4602 131.302 68.7159 132.782 61.7914 136.368C48.5957 143.212 47.4336 152.373 47.4336 152.373C47.5392 152.431 47.6449 152.508 47.7601 152.585C48.4132 151.47 49.7673 149.393 50.9006 149.076C50.8622 149.182 49.5561 151.95 49.0759 153.537C52.9654 156.497 60.2548 163.072 65.3257 167.725C65.3065 166.812 65.3353 165.524 65.6714 164.841L66.2957 168.619C69.0136 171.118 70.8863 172.878 70.8863 172.878C70.5502 169.196 87.5107 149.787 96.3559 143.972C98.5072 140.799 99.2755 135.195 99.3331 134.753C98.9586 139.194 98.1999 141.693 97.518 143.097C105.019 136.185 100.658 111.317 95.7797 108.539Z" fill="black"/>
<path d="M95.8374 144.26C94.6081 143.683 95.3668 133.215 95.3668 133.215L84.9465 131.148C84.2262 134.58 84.6008 140.569 83.3043 140.828C83.2658 140.838 85.2539 144.798 88.3079 145.635C91.5636 146.519 95.8854 144.279 95.8374 144.26Z" fill="#C38B95"/>
<path d="M85.2056 111.394C85.2056 111.394 90.8143 106.212 96.3365 111.74C96.3269 111.74 92.6486 111.317 85.2056 111.394Z" fill="#E527BB"/>
<path d="M84.5143 130.187C84.5143 130.187 81.6332 125.63 80.9417 121.728C80.4519 118.94 81.8637 108.625 92.2263 110.115C92.2263 110.115 95.2323 110.413 98.0654 112.326C100.313 113.845 103.559 117.133 99.9286 126.13L98.9874 129.168L84.5143 130.187Z" fill="black"/>
<path d="M103.837 198.678H78.7422C78.7518 198.727 78.7518 198.765 78.7614 198.813L67.813 198.948C67.813 198.948 65.7673 203.004 64.8838 214.559C63.6545 230.516 64.5572 260.249 75.8034 311.408C75.8034 311.408 79.3473 311.408 85.1 311.408H90.094C90.411 311.408 90.3149 270.554 90.1901 238.034C90.2381 238.168 90.2861 238.303 90.3438 238.428C103.29 272.659 122.248 311.572 122.248 311.572H137.096C134.003 294.701 103.837 198.678 103.837 198.678Z" fill="black"/>
<path d="M75.8611 158.151L66.1995 157.113C66.1995 157.113 65.5657 160.592 64.4612 182.125C64.4612 182.125 61.3112 201.409 60.4948 210.675C60.4948 210.675 55.6737 214.03 58.1611 219.971C58.1611 219.971 59.3616 222.336 60.5813 220.788C61.8106 219.25 61.1479 219.654 62.915 217.52C64.6821 215.386 65.4504 212.588 64.6629 210.762C64.6629 210.762 72.0675 185.009 72.3076 182.962C72.5477 180.914 75.8611 158.151 75.8611 158.151Z" fill="#D4A6AD"/>
<path d="M122.248 311.582C122.248 311.582 103.29 272.669 90.3439 238.437C89.9789 233.689 89.3547 226.873 92.3319 224.508C92.3223 224.499 123.91 283.041 122.248 311.582Z" fill="#121228"/>
<path d="M105.883 187.403C105.797 204.86 106.142 206.023 106.142 206.023C106.142 206.023 92.2455 206.571 83.1602 204.552C82.9681 204.514 82.7472 204.446 82.5263 204.398C79.4915 203.648 73.7291 201.841 70.2525 200.745C68.5142 200.197 67.3521 199.822 67.3521 199.822C67.6114 199.121 67.8803 198.438 68.1492 197.794C71.5394 189.316 74.1133 185.624 74.507 183.019C74.5358 182.837 74.5647 182.654 74.5839 182.471C74.6319 182.106 74.6799 181.741 74.7279 181.375C74.7471 181.193 74.7663 181.02 74.7855 180.837C74.7951 180.779 74.7951 180.722 74.8048 180.664C75.2465 176.55 75.2081 172.368 74.9008 168.379C74.7567 166.514 74.555 164.687 74.3053 162.938L73.998 162.794L65.2393 158.545C67.0256 149.961 70.2237 145.308 70.2237 145.308C70.2333 145.298 70.2525 145.298 70.2621 145.289C73.6043 142.741 79.2418 140.607 83.8708 140.146C84.9273 141.665 86.7904 143.155 89.566 143.068C92.7737 143.001 94.1854 141.376 95.1362 139.877C102.061 140.079 104.02 140.405 104.02 140.405C104.02 140.405 104.02 140.415 104.029 140.415C104.212 140.386 106.911 140.127 115.016 147.029C115.016 147.029 110.262 157.949 110.205 160.592L110.08 160.496C110.262 161.89 110.397 163.284 110.464 164.659C110.551 166.86 105.883 186.912 105.883 187.403Z" fill="#A78BEF"/>
<path d="M85.0907 311.418C79.338 311.418 75.7942 311.418 75.7942 311.418C64.548 260.249 63.6452 230.516 64.8745 214.559C67.6692 228.776 83.6117 309.803 85.0907 311.418Z" fill="#121228"/>
<path d="M70.2524 200.736C68.5141 200.188 67.3521 199.813 67.3521 199.813C67.6114 199.111 67.8803 198.428 68.1492 197.784C71.5394 189.306 74.1132 185.615 74.507 183.009C74.5358 182.827 74.5646 182.644 74.5838 182.461C74.6318 182.106 74.6798 181.741 74.7279 181.366C74.7471 181.183 74.7663 181.01 74.7855 180.827C74.7951 180.77 74.7951 180.712 74.8047 180.654C75.2465 176.54 75.2081 172.358 74.9007 168.369C74.7567 166.504 74.555 164.678 74.3053 162.928C74.3053 162.928 75.1408 162.899 75.4578 163.563C84.0629 181.741 78.483 193.343 70.2524 200.736Z" fill="#9779E2"/>
<path d="M97.2012 135.974C97.2012 135.974 84.1879 136.185 84.1783 128.072C84.1687 119.959 82.488 114.518 90.7954 114.037C99.1028 113.557 100.726 116.652 101.389 119.363C102.042 122.074 100.582 135.705 97.2012 135.974Z" fill="#D2A4AB"/>
<path d="M100.994 114.845C98.9873 112.413 97.4699 112.941 96.6151 113.672C95.3762 111.826 92.9752 111.961 90.6607 112.691C87.6258 113.653 84.5046 114.835 83.9764 118.911C83.4577 122.9 79.8467 124.707 79.8467 124.707C79.8467 124.707 82.2188 126.178 87.6835 124.765C91.986 123.66 95.1073 117.527 96.2502 114.96C97.0281 115.652 98.6607 117.238 99.1505 118.796C99.8036 120.862 100.092 125.111 101.331 124.967C101.321 124.977 104.01 118.507 100.994 114.845Z" fill="black"/>
<path d="M160.894 143.328L156.044 139.992C156.006 139.963 155.958 139.944 155.91 139.925L155.084 139.588L150.532 153.652L154.354 156.795L155.132 157.122H155.142C155.459 157.247 155.862 157.045 156.035 156.632L161.086 144.241C161.24 143.895 161.154 143.501 160.894 143.328Z" fill="#C21E9E"/>
<path d="M149.542 152.825L154.171 156.699C154.498 156.968 155.007 156.776 155.199 156.295L160.251 143.904C160.395 143.549 160.308 143.164 160.059 142.982L155.209 139.646C154.882 139.415 154.402 139.627 154.219 140.079L149.389 151.922C149.245 152.268 149.312 152.633 149.542 152.825Z" fill="#E527BB"/>
<path d="M150.292 151.306L154.853 155.123L159.425 143.885L154.652 140.598L150.292 151.306Z" fill="white"/>
<path d="M152.088 153.883C152.155 153.662 152.059 153.412 151.886 153.344C151.713 153.277 151.521 153.402 151.454 153.623C151.386 153.844 151.483 154.094 151.655 154.161C151.828 154.238 152.03 154.113 152.088 153.883Z" fill="#3A3582"/>
<path d="M154.815 149.009C154.863 148.893 154.901 148.788 154.911 148.701C154.92 148.615 154.911 148.538 154.882 148.461C154.853 148.384 154.805 148.326 154.728 148.259C154.661 148.201 154.565 148.134 154.45 148.076C154.258 147.971 154.085 147.865 153.931 147.75C153.787 147.634 153.672 147.509 153.595 147.355C153.518 147.211 153.489 147.038 153.499 146.836C153.509 146.644 153.576 146.413 153.701 146.144C153.806 145.914 153.941 145.702 154.095 145.51C154.248 145.318 154.421 145.154 154.623 145.01C154.815 144.866 155.026 144.76 155.237 144.673C155.458 144.587 155.679 144.529 155.919 144.51L156.323 143.635L156.918 143.645L156.515 144.539C156.716 144.577 156.87 144.645 157.005 144.75C157.129 144.856 157.216 144.991 157.264 145.154C157.312 145.318 157.321 145.51 157.283 145.731C157.245 145.952 157.168 146.202 157.043 146.471L155.967 146.452C156.121 146.125 156.169 145.875 156.121 145.712C156.073 145.548 155.948 145.462 155.737 145.462C155.622 145.462 155.526 145.481 155.42 145.51C155.324 145.548 155.237 145.596 155.151 145.654C155.074 145.721 154.997 145.789 154.93 145.885C154.863 145.971 154.815 146.067 154.767 146.163C154.719 146.269 154.69 146.356 154.68 146.442C154.671 146.529 154.68 146.606 154.709 146.673C154.738 146.74 154.786 146.807 154.863 146.875C154.94 146.942 155.026 147 155.151 147.077C155.343 147.192 155.506 147.298 155.66 147.413C155.804 147.528 155.919 147.663 155.986 147.807C156.063 147.951 156.092 148.124 156.083 148.326C156.073 148.519 156.006 148.749 155.89 149.018C155.785 149.259 155.65 149.48 155.487 149.663C155.333 149.855 155.151 150.018 154.959 150.153C154.767 150.287 154.565 150.403 154.344 150.48C154.123 150.566 153.893 150.614 153.662 150.633L153.288 151.451L152.702 151.441L153.067 150.624C152.875 150.595 152.702 150.537 152.548 150.451C152.395 150.364 152.279 150.249 152.203 150.085C152.126 149.932 152.097 149.73 152.116 149.499C152.135 149.259 152.222 148.98 152.366 148.653L153.441 148.672C153.355 148.865 153.307 149.028 153.288 149.163C153.278 149.297 153.288 149.403 153.326 149.48C153.365 149.557 153.432 149.614 153.509 149.653C153.595 149.682 153.682 149.701 153.787 149.701C153.902 149.701 154.018 149.691 154.114 149.653C154.219 149.614 154.315 149.566 154.402 149.509C154.488 149.451 154.565 149.374 154.632 149.288C154.719 149.211 154.776 149.115 154.815 149.009Z" fill="#A78BEF"/>
<path d="M321.894 325.222L232.991 325.107C216.395 325.088 202.844 311.485 202.863 294.874L203.132 91.6297C203.151 78.3543 211.843 67.0208 223.8 63.0218C226.796 62.0125 230.004 61.4742 233.337 61.4838H233.797L253.38 61.5126L301.899 61.5799C301.908 61.5799 301.918 61.5799 301.928 61.5799L322.24 61.6087C338.835 61.628 352.387 75.2302 352.367 91.8412L352.108 295.086C352.07 311.668 338.48 325.241 321.894 325.222Z" fill="black"/>
<path d="M318.456 319.925L236.448 319.82C222.359 319.801 210.844 308.246 210.863 294.144L210.998 187.124L211.017 172.272L211.036 160.362L211.094 117.248L211.123 95.946L211.132 92.37C211.151 78.2679 222.695 66.7421 236.784 66.7517L253.437 66.7709L278.878 66.7998L318.792 66.8478C325.601 66.8575 331.796 69.5587 336.396 73.9325C338.317 75.759 339.949 77.8738 341.236 80.2193C342.639 82.7667 343.609 85.5641 344.079 88.5344C344.281 89.8418 344.386 91.178 344.386 92.5334L344.127 294.307C344.089 308.429 332.545 319.945 318.456 319.925Z" fill="#E527BB"/>
<path d="M301.88 72.1156L253.361 72.0483C250.46 72.0483 248.088 69.6644 248.098 66.7613C248.098 63.8582 250.479 61.4838 253.38 61.4934L301.899 61.5607C304.799 61.5607 307.171 63.9447 307.162 66.8478C307.152 69.7509 304.78 72.1253 301.88 72.1156Z" fill="black"/>
<g opacity="0.4">
<path d="M319.685 198.525L236.919 198.371C234.528 198.371 232.568 196.4 232.568 194.007C232.568 191.613 234.537 189.652 236.929 189.652L319.695 189.806C322.086 189.806 324.046 191.777 324.046 194.17C324.046 196.573 322.077 198.534 319.685 198.525Z" fill="white"/>
<path d="M319.647 221.057L236.89 220.903C234.499 220.903 232.54 218.933 232.54 216.539C232.54 214.146 234.508 212.185 236.9 212.185L319.657 212.338C322.048 212.338 324.007 214.309 324.007 216.703C323.998 219.106 322.038 221.057 319.647 221.057Z" fill="white"/>
<path d="M319.599 245.762L236.833 245.609C234.441 245.609 232.482 243.638 232.482 241.244C232.482 238.851 234.451 236.89 236.842 236.89L319.599 237.043C321.99 237.043 323.95 239.014 323.95 241.408C323.959 243.811 321.99 245.762 319.599 245.762Z" fill="white"/>
<path d="M255.262 289.241L236.746 289.203C234.355 289.203 232.396 287.232 232.396 284.839C232.396 282.445 234.364 280.484 236.756 280.484L255.272 280.522C257.663 280.522 259.623 282.493 259.623 284.887C259.623 287.29 257.663 289.241 255.262 289.241Z" fill="white"/>
<path d="M319.512 289.366L300.996 289.328C298.605 289.328 296.646 287.357 296.646 284.964C296.646 282.57 298.614 280.609 301.006 280.609L319.522 280.647C321.913 280.647 323.873 282.618 323.873 285.012C323.873 287.405 321.913 289.366 319.512 289.366Z" fill="white"/>
</g>
<path d="M277.63 171.359C259.382 171.359 244.535 156.497 244.535 138.233C244.535 119.968 259.382 105.107 277.63 105.107C295.877 105.107 310.725 119.968 310.725 138.233C310.725 156.497 295.877 171.359 277.63 171.359ZM277.63 106.991C260.42 106.991 246.417 121.007 246.417 138.233C246.417 155.459 260.42 169.475 277.63 169.475C294.84 169.475 308.842 155.459 308.842 138.233C308.842 121.007 294.84 106.991 277.63 106.991Z" fill="white"/>
<path d="M255.396 126.39C255.396 126.39 268.487 149.509 275.488 163.226C275.488 163.226 294.504 115.479 306.144 99.4932C306.144 99.4932 284.381 118.181 272.684 137.204C272.684 137.195 264.856 132.206 255.396 126.39Z" fill="white"/>
<path d="M352.618 216.318L349.381 214.011C349.381 214.011 348.046 206.417 339.604 206.109C339.604 206.109 336.137 206.234 337.299 208.541C338.461 210.848 338.337 209.839 339.902 213.117C341.467 216.404 344.368 218.846 346.98 218.923L349.775 220.144L352.618 216.318Z" fill="#8B5A2A"/>
<path d="M349.381 214.011L347.133 218.145C347.133 218.145 378.432 246.993 383.206 242.927C383.206 242.927 410.164 208.493 406.735 190.354C403.633 173.954 396.958 173.454 395.71 173.503C395.575 173.512 395.508 173.522 395.508 173.522C395.508 173.522 391.724 170.705 378.365 227.421C372.622 223.259 365.794 222.192 349.381 214.011Z" fill="#9779E2"/>
<path d="M434.942 264.642L435 283.377C435 284.762 436.123 285.877 437.506 285.877L471.677 285.781C473.06 285.781 474.174 284.656 474.174 283.272L474.116 264.536C474.116 263.152 472.993 262.037 471.61 262.037L462.592 262.066L462.582 259.595C462.582 258.384 461.593 257.394 460.373 257.403L448.628 257.432C447.417 257.432 446.428 258.422 446.438 259.643L446.447 262.114L437.429 262.143C436.056 262.133 434.932 263.258 434.942 264.642ZM460.412 262.066L448.628 262.104L448.618 259.634C448.618 259.624 448.628 259.614 448.637 259.614L460.383 259.586C460.392 259.586 460.402 259.595 460.402 259.605L460.412 262.066Z" fill="#E527BB"/>
<path d="M434.955 271.671L474.129 271.559L474.127 270.828L434.952 270.94L434.955 271.671Z" fill="#3A3583"/>
<path d="M309.707 318.647L307.537 325.136H286.014C286.014 325.136 291.517 316.378 309.707 318.647Z" fill="#9779E2"/>
<path d="M386.346 178.241C384.214 172.685 383.503 169.273 383.503 169.273L392.819 158.074C394.884 170.484 403.969 174.819 403.969 174.819C403.969 174.819 390.63 185.095 381.525 184.115C381.506 184.125 383.071 181 386.346 178.241Z" fill="#8B5A2A"/>
<path d="M380.833 169.6C380.833 169.6 395.441 169.1 394.999 160.006C394.548 150.903 396.132 144.712 386.788 144.635C377.443 144.568 375.801 148.124 375.215 151.201C374.62 154.286 377.03 169.494 380.833 169.6Z" fill="#9A6A38"/>
<path d="M395.028 160.631C395.028 160.631 392.368 148.855 379.105 149.547C370.02 150.018 373.88 141.569 374.658 140.194C374.658 140.194 381.66 140.127 388.872 140.252C403.998 140.521 396.21 158.564 395.028 160.631Z" fill="black"/>
<path d="M319.494 318.647L317.323 325.136H295.801C295.801 325.136 301.304 316.378 319.494 318.647Z" fill="#A78BEF"/>
<path d="M421.429 249.329C421.429 249.329 384.858 255.308 372.651 257.692C354.663 261.201 344.848 264.007 344.848 264.007L295.263 319.031H313.712C313.712 319.031 354.903 292.423 360.166 285.829H405.516C405.496 285.829 434.702 280.83 421.429 249.329Z" fill="#242628"/>
<path d="M427.538 252.636C412.239 260.095 395.172 264.719 389.333 266.113C388.988 266.199 388.642 266.151 388.354 266.007C387.816 265.747 387.451 265.171 387.518 264.507C387.605 263.767 387.681 262.7 387.71 261.326C387.777 257.519 387.364 251.328 385.05 242.888C385.04 242.869 385.04 242.859 385.04 242.84C384.022 239.129 382.582 234.419 381.16 229.353C381.151 229.315 381.141 229.267 381.132 229.228C380.104 225.585 379.095 221.749 378.27 217.972V217.952C376.791 211.262 375.869 204.735 376.397 199.707C377.165 192.517 379.422 187.028 382.265 182.894C382.284 182.894 384.579 179.607 384.599 179.607C387.701 179.559 390.735 178.674 393.501 176.434C396.527 173.983 399.773 171.33 400.435 171.628C409.713 175.742 417.521 194.055 421.007 214.703C423.859 231.583 427.413 245.724 428.613 250.319C428.834 251.251 428.392 252.222 427.538 252.636Z" fill="#A78BEF"/>
<path d="M335.244 202.264L340.305 198.784C340.343 198.755 340.391 198.736 340.439 198.717L341.294 198.371L346.048 213.04L341.976 216.337L341.246 216.655H341.237C340.91 216.789 340.487 216.578 340.305 216.145L335.032 203.216C334.888 202.86 334.975 202.456 335.244 202.264Z" fill="#8D6AE6"/>
<path d="M347.095 212.175L342.264 216.222C341.928 216.51 341.39 216.299 341.189 215.799L335.916 202.87C335.762 202.495 335.849 202.091 336.118 201.908L341.179 198.429C341.525 198.188 342.015 198.409 342.207 198.88L347.249 211.242C347.402 211.589 347.335 211.973 347.095 212.175Z" fill="#A78BEF"/>
<path d="M346.317 210.589L341.553 214.578L336.78 202.85L341.765 199.419L346.317 210.589Z" fill="#DBDFF0"/>
<path d="M344.435 213.28C344.367 213.05 344.463 212.79 344.646 212.723C344.828 212.646 345.03 212.781 345.097 213.011C345.164 213.252 345.068 213.502 344.886 213.569C344.703 213.655 344.502 213.521 344.435 213.28Z" fill="#3A3582"/>
<path d="M341.765 208.493C341.832 208.58 341.918 208.657 342.014 208.724C342.11 208.791 342.206 208.839 342.312 208.878C342.418 208.916 342.533 208.926 342.658 208.926C342.764 208.926 342.86 208.906 342.946 208.868C343.032 208.83 343.1 208.772 343.138 208.695C343.177 208.609 343.196 208.503 343.186 208.368C343.176 208.234 343.119 208.061 343.023 207.859L344.137 207.839C344.291 208.186 344.377 208.474 344.396 208.724C344.415 208.974 344.387 209.176 344.3 209.339C344.223 209.502 344.098 209.627 343.935 209.714C343.772 209.8 343.589 209.858 343.388 209.887L343.772 210.733L343.157 210.743L342.773 209.887C342.533 209.868 342.293 209.81 342.062 209.724C341.832 209.637 341.621 209.522 341.419 209.378C341.217 209.233 341.035 209.06 340.872 208.868C340.708 208.666 340.564 208.445 340.459 208.195C340.334 207.916 340.267 207.676 340.257 207.474C340.247 207.272 340.276 207.09 340.353 206.936C340.43 206.782 340.545 206.647 340.699 206.523C340.852 206.398 341.025 206.282 341.227 206.167C341.352 206.1 341.448 206.023 341.525 205.965C341.601 205.898 341.649 205.83 341.678 205.753C341.707 205.677 341.717 205.6 341.707 205.513C341.698 205.427 341.659 205.331 341.611 205.225C341.563 205.119 341.505 205.023 341.438 204.927C341.371 204.84 341.294 204.754 341.208 204.686C341.121 204.619 341.025 204.571 340.929 204.533C340.824 204.494 340.718 204.475 340.603 204.485C340.391 204.485 340.257 204.581 340.209 204.744C340.161 204.917 340.209 205.177 340.363 205.513L339.248 205.532C339.124 205.244 339.037 204.984 338.999 204.754C338.96 204.523 338.97 204.321 339.018 204.148C339.066 203.975 339.162 203.841 339.287 203.725C339.421 203.619 339.585 203.543 339.796 203.504L339.373 202.572L339.988 202.562L340.401 203.475C340.641 203.494 340.881 203.552 341.112 203.639C341.342 203.725 341.553 203.85 341.755 203.994C341.957 204.139 342.139 204.312 342.303 204.513C342.466 204.715 342.6 204.936 342.716 205.177C342.84 205.455 342.908 205.696 342.927 205.907C342.936 206.109 342.908 206.292 342.821 206.446C342.744 206.599 342.629 206.734 342.475 206.859C342.322 206.974 342.139 207.09 341.938 207.205C341.822 207.263 341.717 207.33 341.649 207.397C341.573 207.465 341.525 207.532 341.496 207.609C341.467 207.686 341.457 207.772 341.467 207.859C341.477 207.955 341.515 208.061 341.573 208.176C341.64 208.301 341.698 208.397 341.765 208.493Z" fill="#E527BB"/>
<path d="M352.618 221.153L349.381 218.846C349.381 218.846 348.046 211.252 339.604 210.945C339.604 210.945 336.137 211.07 337.299 213.377C338.461 215.684 338.337 214.674 339.902 217.952C341.467 221.24 344.368 223.682 346.98 223.759L349.775 224.979L352.618 221.153Z" fill="#9A6A38"/>
<path d="M401.492 240.35C401.319 246.156 396.075 258.124 387.71 261.335C387.777 257.528 387.364 251.338 385.05 242.898C385.04 242.878 385.04 242.869 385.04 242.85C384.022 239.139 382.582 234.429 381.16 229.363L396.526 207.003C396.517 207.003 401.674 234.073 401.492 240.35Z" fill="#9779E2"/>
<path d="M427.537 252.635C427.537 252.635 406.207 252.905 378.634 259.163C368.531 261.45 347.104 266.151 347.104 266.151L301.659 319.032H320.108C320.108 319.032 361.299 292.423 366.562 285.829H411.912C411.912 285.829 440.81 284.137 427.537 252.635Z" fill="black"/>
<path d="M400.666 202.802C400.666 202.802 389.602 225.037 388.411 226.239C387.451 227.2 382.918 228.68 381.122 229.247C380.094 225.604 379.086 221.769 378.26 217.991V217.971C378.26 217.971 381.131 213.232 382.514 208.407C383.897 203.581 391.331 192.286 391.331 192.286L397.074 196.073L400.666 202.802Z" fill="#9779E2"/>
<path d="M349.88 218.885L347.124 224.152C347.124 224.152 378.423 253.001 383.196 248.934C383.196 248.934 410.154 214.501 406.726 196.362C403.624 179.962 396.949 179.462 395.701 179.51C395.566 179.52 395.499 179.53 395.499 179.53C395.499 179.53 391.715 176.713 378.356 233.429C372.622 229.276 366.293 227.065 349.88 218.885Z" fill="#A78BEF"/>
<path d="M139.256 280.657C139.304 280.638 139.352 280.628 139.4 280.619C139.372 280.619 139.324 280.638 139.256 280.657Z" fill="#54519E"/>
<path d="M220.054 305.814C216.722 302.68 211.987 293.894 211.987 293.894C211.987 293.894 207.185 295.749 195.526 296.057C183.867 296.365 177.586 294.577 177.586 294.577C174.253 299.518 173.158 304.555 169.826 307.381C167.05 309.746 156.918 309.88 156.918 309.88C156.918 309.88 168.798 324.857 180.937 325.069C193.442 325.28 204.467 325.069 204.467 325.069C204.467 325.069 218.162 320.589 227.718 312.572C227.728 312.581 220.851 306.564 220.054 305.814Z" fill="black"/>
<path d="M200.501 205.965C198.561 205.042 196.323 205.09 194.767 205.292C195.142 204.85 195.92 204.639 195.92 204.639C194.94 204.562 192.856 205.677 192.856 205.677C179.026 201.457 178.344 221.442 178.959 226.027C179.574 230.613 174.877 232.468 168.135 236.601C155.276 244.493 154.776 253.847 154.776 253.847C154.882 253.904 154.997 253.962 155.122 254.029C155.708 252.857 156.918 250.646 158.042 250.252C158.003 250.357 156.889 253.251 156.515 254.895C160.673 257.615 168.52 263.729 173.994 268.074C173.907 267.151 173.85 265.844 174.138 265.132L175.05 268.91C177.979 271.246 180.006 272.88 180.006 272.88C179.401 269.179 195.142 248.3 203.679 241.763C205.629 238.399 205.994 232.66 206.023 232.218C205.975 236.746 205.379 239.322 204.803 240.793C211.862 233.266 205.639 208.416 200.501 205.965Z" fill="black"/>
<path d="M186.806 210.964C186.806 210.964 191.915 205.907 197.908 211.098C197.908 211.098 194.335 210.349 186.806 210.964Z" fill="#E527BB"/>
<path d="M184.856 229.632C184.856 229.632 183.252 226.287 182.273 222.393C181.571 219.615 182.253 209.07 192.837 209.82C192.837 209.82 195.9 209.897 198.906 211.627C201.288 213.002 204.813 216.087 201.797 225.46L201.067 228.603L184.856 229.632Z" fill="black"/>
<path d="M207.636 288.088C210.479 256.952 209.231 244.311 209.231 244.311C209.231 244.311 204.755 243.234 198.82 241.398C198.186 238.63 198.484 232.881 198.484 232.881L188.131 233.112C187.795 235.592 187.939 239.331 187.612 241.446C183.473 242.907 178.652 242.869 173.956 245.061C173.956 245.061 179.776 268.977 181.86 288.857C182.09 291.029 207.387 290.827 207.636 288.088Z" fill="#C38B95"/>
<path d="M199.665 234.102C196.919 236.707 193.519 240.187 186.21 233.717C184.779 232.449 184.885 230.516 184.808 227.729C184.722 224.431 183.934 222.413 184.299 220.509C184.741 218.241 186.69 217.212 190.724 216.876C198.129 216.251 201.865 217.933 201.356 221.615C200.232 229.815 202.45 231.449 199.665 234.102Z" fill="#CCA1AA"/>
<path d="M184.212 218.452C181.927 222.768 177.835 222.442 177.835 222.442C177.835 222.442 181.831 226.181 186.277 224.691C190.714 223.201 193.884 216.328 193.884 216.328C191.387 212.742 185.375 216.26 184.212 218.452Z" fill="black"/>
<path d="M196.179 216.087C195.545 216.222 193.682 216.741 193.682 216.741C193.682 216.741 198.071 216.664 199.07 218.135C200.069 219.606 200.203 221.249 200.703 222.076C201.202 222.903 201.116 223.835 201.116 223.835C201.116 223.835 204.9 214.165 196.179 216.087Z" fill="black"/>
<path d="M226.201 273.294C226.201 273.294 218.825 274.774 215.454 278.879C215.454 278.879 211.929 271.015 211.545 271.073C211.545 271.073 211.545 271.073 211.536 271.073C211.18 271.217 207.915 287.521 208.338 288.684C208.76 289.847 212.074 293.798 212.496 294.644C212.688 295.019 210.527 296.576 207.444 298.201C203.564 300.248 198.215 302.392 194.22 302.392C187.142 302.392 175.857 299.066 176.02 296.816C176.02 296.787 176.02 296.759 176.03 296.73C176.184 295.941 180.947 290.789 181.159 288.367C181.37 285.963 177.586 270.948 177.096 270.996C177.096 270.996 177.086 270.996 177.086 271.006C176.664 271.352 173.255 279.58 173.255 279.58C173.255 279.58 166.34 274.341 163.286 274.024C163.286 274.024 170.066 248.819 173.802 244.811C173.802 244.811 175.588 244.301 181.812 242.609C181.812 242.609 186.114 255.981 193.913 261.681C193.913 261.681 202.662 254.827 204.304 242.821C204.304 242.821 212.544 244.859 213.245 245.705C213.937 246.56 226.201 273.294 226.201 273.294Z" fill="#A78BEF"/>
<path d="M186.287 289.635C185.509 290.866 178.556 297.335 176.021 296.826C176.021 296.797 176.021 296.768 176.03 296.739C176.184 295.951 180.947 290.799 181.159 288.376C181.37 285.973 177.586 270.958 177.096 271.006C177.327 270.439 177.749 269.785 178.489 269.256C180.246 267.987 187.123 288.299 186.287 289.635Z" fill="#9779E2"/>
<path d="M207.444 298.21C205.303 294.673 203.747 289.607 203.545 288.953C203.228 287.953 207.761 271.496 209.97 270.66C210.863 270.323 211.315 270.612 211.536 271.083C211.536 271.083 211.536 271.083 211.526 271.083C211.171 271.227 207.905 287.53 208.328 288.693C208.75 289.857 212.064 293.807 212.486 294.653C212.688 295.019 210.527 296.586 207.444 298.21Z" fill="#9779E2"/>
<path d="M230.071 310.668C229.754 311.005 229.408 311.322 229.053 311.639C226.22 314.09 217.951 316.792 210.018 318.955C207.521 319.637 205.062 320.262 202.805 320.81C200.942 321.387 197.158 322.588 193.105 324.001C187.381 325.991 184.884 325.039 182.051 324.54C179.218 324.04 176.02 326.02 171.823 324.492C167.626 322.953 168.692 314.677 168.692 314.677C170.114 313.744 175.636 313.475 179.381 316.167C183.127 318.858 188.14 318.359 188.14 318.359C188.332 318.378 188.784 318.147 189.418 317.753C189.418 317.753 194.258 314.917 203.065 307.583C204.352 306.516 205.715 305.343 207.166 304.083C210.517 301.161 213.571 297.652 216.702 295.192C218.517 293.759 220.361 292.683 222.292 292.269C231.271 290.366 234.469 293.855 234.469 293.855C234.469 293.855 236.477 303.997 230.071 310.668Z" fill="#C38B95"/>
<path d="M187.814 310.553V322.569C185.23 321.704 182.974 320.983 181.533 320.531C179.343 319.945 176.99 319.282 174.637 318.57C168.183 316.619 161.749 314.302 158.896 312.12C158.685 311.957 158.493 311.803 158.33 311.639C151.271 305.026 153.979 293.298 153.979 293.298C153.979 293.298 156.275 290.366 164.582 292.269C166.666 292.75 168.789 293.913 170.901 295.442C173.735 297.489 176.577 300.19 179.362 302.824C180.304 303.709 181.226 304.574 182.119 305.391C184.193 307.314 186.114 309.044 187.814 310.553Z" fill="#CCA1AA"/>
<path d="M191.377 323.79C191.79 323.934 192.193 324.069 192.577 324.184C187.228 325.943 184.798 325.03 182.051 324.549C179.218 324.049 176.02 326.03 171.823 324.501C167.626 322.963 168.692 314.686 168.692 314.686C169.902 313.889 174.09 313.581 177.614 315.157C176.731 316.484 175.742 317.686 174.656 318.57C177.009 319.281 179.372 319.945 181.552 320.531C183.607 321.185 187.372 322.386 191.377 323.79Z" fill="#C38B95"/>
<path d="M193.202 315.225C190.714 316.994 189.408 317.753 189.408 317.753C188.784 318.147 188.323 318.378 188.131 318.359C188.131 318.359 183.118 318.858 179.372 316.167C178.815 315.763 178.22 315.427 177.605 315.158C178.114 314.389 178.594 313.581 179.026 312.764C180.995 309.082 182.128 305.391 182.128 305.391C186.316 309.265 189.888 312.389 192.261 314.417C192.587 314.715 192.904 314.985 193.202 315.225Z" fill="#8A68E0"/>
<path d="M215.099 317.493C214.955 319.416 214.398 324.049 212.314 324.722C208.683 325.905 205.831 324.011 202.834 324.559C200.049 325.068 197.744 325.789 192.568 324.174C192.741 324.117 192.914 324.059 193.096 324.001C197.149 322.588 200.933 321.387 202.796 320.81C205.053 320.262 207.512 319.627 210.009 318.955C211.708 318.493 213.428 318.003 215.099 317.493Z" fill="#8A68E0"/>
<path d="M187.814 291.702L186.805 298.21C177.298 298.325 160.942 290.337 160.942 290.337C158.628 286.742 162.968 274.832 163.353 273.793C167.165 274.101 170.46 277.706 172.62 279.119L170.133 284.358C170.997 284.685 187.814 291.702 187.814 291.702Z" fill="#C38B95"/>
<path d="M201.375 291.702L202.383 298.21C211.891 298.326 228.246 290.337 228.246 290.337C230.561 286.742 226.018 274.466 225.624 273.428C221.812 273.736 217.922 276.427 215.992 278.273L219.046 284.358C218.191 284.685 201.375 291.702 201.375 291.702Z" fill="#C38B95"/>
<path d="M213.312 276.572H176.021V300.181H213.312V276.572Z" fill="#E527BB"/>
<path d="M193.058 288.366C193.058 287.472 193.778 286.751 194.671 286.751C195.564 286.751 196.285 287.472 196.285 288.366C196.285 289.26 195.564 289.981 194.671 289.981C193.778 289.981 193.058 289.26 193.058 288.366Z" fill="white"/>
<path d="M170.901 295.442C170.575 295.73 170.114 295.961 169.49 296.124C163.564 297.691 160.193 307.429 158.896 312.12C158.685 311.957 158.493 311.803 158.33 311.639C151.271 305.026 153.979 293.298 153.979 293.298C153.979 293.298 156.275 290.366 164.582 292.269C166.666 292.75 168.789 293.913 170.901 295.442Z" fill="black"/>
<path d="M230.071 310.668C227.814 305.141 220.035 298.056 216.703 295.192C218.518 293.759 220.362 292.683 222.292 292.269C231.272 290.366 234.47 293.855 234.47 293.855C234.47 293.855 236.477 303.997 230.071 310.668Z" fill="black"/>
<path d="M210.009 318.955C207.512 319.637 205.053 320.262 202.796 320.81C200.933 321.387 197.149 322.588 193.096 324.001C187.372 325.991 184.875 325.039 182.042 324.54C179.209 324.04 176.011 326.02 171.814 324.492C167.617 322.953 168.683 314.677 168.683 314.677C170.104 313.744 175.627 313.475 179.372 316.167C183.118 318.858 188.131 318.359 188.131 318.359C188.323 318.378 188.774 318.147 189.408 317.753C189.408 317.753 194.249 314.917 203.055 307.583C203.929 310.101 206.311 316.061 210.009 318.955Z" fill="#A78BEF"/>
<path d="M402.432 295.653H403.258C402.548 295.672 402.164 295.692 402.164 295.692L402.432 295.653Z" fill="#C48017"/>
<path d="M461.602 317.849V322.54C461.602 323.944 460.45 325.097 459.028 325.097H362.932C361.52 325.097 360.358 323.944 360.358 322.54V317.849C360.358 316.446 361.51 315.292 362.932 315.292H459.028C460.45 315.282 461.602 316.436 461.602 317.849Z" fill="#DDC558"/>
<path d="M477.468 308.025V312.716C477.468 314.119 476.316 315.273 474.894 315.273H378.798C377.386 315.273 376.224 314.119 376.224 312.716V308.025C376.224 306.621 377.376 305.468 378.798 305.468H474.894C476.316 305.468 477.468 306.621 477.468 308.025Z" fill="#DDC558"/>
<path d="M481.722 288.434V293.125C481.722 294.538 480.57 295.682 479.149 295.682H383.052C381.64 295.682 380.478 294.528 380.478 293.125V288.434C380.478 287.021 381.63 285.867 383.052 285.867H479.149C480.56 285.877 481.722 287.03 481.722 288.434Z" fill="#DDC558"/>
<path d="M466.961 298.21V302.901C466.961 304.314 465.809 305.468 464.387 305.468H368.291C366.879 305.468 365.717 304.314 365.717 302.901V298.21C365.717 296.797 366.869 295.653 368.291 295.653H464.387C465.809 295.653 466.961 296.797 466.961 298.21Z" fill="#DDC558"/>
<path opacity="0.4" d="M461.602 317.849V322.54C461.602 323.944 460.45 325.097 459.029 325.097H445.871C441.425 318.724 426.414 316.186 411.72 315.282H459.048C460.45 315.282 461.602 316.436 461.602 317.849Z" fill="#C48017"/>
<path opacity="0.4" d="M439.014 305.468C411.48 305.468 397.487 312.168 392.464 315.283H378.798C377.386 315.283 376.224 314.129 376.224 312.725V308.034C376.224 306.631 377.376 305.477 378.798 305.477H439.014V305.468Z" fill="#C48017"/>
<path opacity="0.4" d="M383.052 285.877H434.98C417.712 285.963 394.01 294.721 393.184 295.653L393.136 295.691H383.052C381.64 295.691 380.478 294.538 380.478 293.134V288.443C380.478 287.03 381.64 285.877 383.052 285.877Z" fill="#C48017"/>
<path d="M239.848 76.2106H228.131C227.142 76.2106 226.326 75.3935 226.326 74.4034C226.326 73.4133 227.142 72.5962 228.131 72.5962H239.848C240.837 72.5962 241.654 73.4133 241.654 74.4034C241.654 75.3935 240.847 76.2106 239.848 76.2106Z" fill="white"/>
<path d="M326.216 76.2106H314.499C313.51 76.2106 312.693 75.3935 312.693 74.4034C312.693 73.4133 313.51 72.5962 314.499 72.5962H326.216C327.205 72.5962 328.021 73.4133 328.021 74.4034C328.021 75.3935 327.205 76.2106 326.216 76.2106Z" fill="white"/>
<path d="M487.6 150.27L493.83 140.24L490.74 138.33C489.85 137.76 489.35 136.74 489.46 135.69C489.51 135.12 489.53 134.54 489.51 133.96C489.48 132.89 490.06 131.89 491.01 131.39L494.2 129.68L488.62 119.28L485.42 120.99C484.51 121.48 483.39 121.42 482.54 120.83C482.03 120.47 481.49 120.14 480.94 119.84C480.03 119.34 479.47 118.36 479.51 117.32L479.62 113.71L467.82 113.34L467.71 116.96C467.68 118.01 467.06 118.95 466.1 119.38C465.83 119.51 465.55 119.64 465.28 119.79C465.01 119.94 464.75 120.08 464.48 120.24C463.6 120.79 462.48 120.79 461.59 120.24L458.49 118.33L452.27 128.36L455.33 130.29C456.22 130.85 456.72 131.87 456.61 132.92C456.56 133.49 456.54 134.06 456.56 134.64C456.59 135.71 456.03 136.7 455.1 137.22L451.91 138.92L457.49 149.32L460.67 147.62C461.61 147.12 462.76 147.2 463.63 147.82C464.1 148.15 464.59 148.45 465.09 148.72C466.03 149.21 466.61 150.18 466.59 151.24L466.48 154.89L478.27 155.26L478.38 151.64C478.43 150.58 479.06 149.64 480.02 149.2C480.28 149.08 480.55 148.94 480.77 148.81C481 148.67 481.28 148.52 481.52 148.37C482.42 147.82 483.56 147.82 484.47 148.37L487.6 150.27ZM478.69 142.16C474.36 145.28 468.31 144.29 465.2 139.96C462.08 135.63 463.07 129.58 467.4 126.47C471.73 123.35 477.78 124.34 480.89 128.67C481.39 129.36 481.79 130.12 482.09 130.91C483.63 134.99 482.23 139.61 478.69 142.16Z" fill="#E527BB"/>
<path d="M434.3 113.35L441.46 109.22L440.19 107.05C439.82 106.41 439.85 105.61 440.26 104.99C440.49 104.64 440.7 104.28 440.89 103.9C441.22 103.23 441.9 102.81 442.64 102.81H445.17V94.56H442.64C441.89 94.55 441.22 94.12 440.89 93.45C440.7 93.08 440.49 92.72 440.27 92.38C439.86 91.76 439.83 90.97 440.2 90.32L441.47 88.13L434.31 84L433.04 86.2C432.66 86.84 431.96 87.21 431.22 87.17C431.02 87.17 430.82 87.17 430.61 87.17C430.41 87.17 430.21 87.17 430 87.17C429.25 87.23 428.53 86.86 428.14 86.21L426.86 84L419.7 88.13L420.97 90.33C421.33 90.97 421.3 91.77 420.9 92.39C420.68 92.73 420.47 93.09 420.28 93.46C419.95 94.12 419.27 94.55 418.53 94.55H416V102.8H418.53C419.27 102.8 419.94 103.22 420.28 103.88C420.46 104.25 420.67 104.6 420.9 104.95C421.31 105.57 421.34 106.37 420.97 107.01L419.7 109.21L426.86 113.34L428.14 111.14C428.51 110.5 429.22 110.13 429.96 110.18H430.58H431.19C431.93 110.13 432.63 110.5 433.01 111.14L434.3 113.35ZM430.6 105.44C426.87 105.44 423.85 102.42 423.85 98.69C423.85 94.96 426.87 91.94 430.6 91.94C434.33 91.94 437.35 94.96 437.35 98.69C437.35 102.42 434.33 105.44 430.6 105.44Z" fill="#E527BB"/>
<path d="M42.2986 284.253C42.4238 282.095 42.7312 279.955 43.2151 277.848C43.6705 275.941 44.3081 274.006 45.5092 272.429C46.6079 270.994 48.1791 269.867 50.0122 269.628C51.7712 269.412 53.4278 270.197 54.7428 271.308C56.3766 272.685 57.6233 274.501 58.8017 276.272C60.0882 278.247 61.2552 280.291 62.3084 282.403C62.3425 282.471 62.2344 282.534 62.2002 282.465C61.2894 280.678 60.2419 278.964 59.0635 277.342C57.9933 275.782 56.7865 274.319 55.4544 272.976C54.2475 271.791 52.7105 270.693 50.9572 270.636C49.2038 270.579 47.6042 271.558 46.5567 272.902C45.384 274.399 44.7863 276.277 44.3422 278.105C43.8811 280.114 43.5737 282.158 43.4371 284.219C43.0899 288.448 43.0102 292.701 42.902 296.947C42.8451 299.35 42.8166 301.746 42.7938 304.149C42.7938 305.361 42.7824 306.58 42.7654 307.798C42.8109 308.97 42.7654 310.149 42.623 311.316C42.5832 311.555 42.1961 311.532 42.1563 311.316C42.0082 310.211 41.957 309.096 41.9912 307.98C41.9741 306.841 41.957 305.686 41.9513 304.519C41.9513 302.276 41.9229 300.033 41.9229 297.796C41.9342 293.264 42.0082 288.744 42.2986 284.253Z" fill="#263238"/>
<path d="M48.3442 281.071C48.5662 279.875 48.9704 278.31 49.6535 277.387C50.8774 275.719 52.2152 276.448 50.9799 278.293C50.0805 279.664 49.4941 281.213 49.2721 282.841C49.2721 282.841 51.3329 285.784 53.8149 287.23C53.7067 286.097 53.3879 284.361 53.6099 282.682C54.0881 279.05 56.2855 279.266 55.7447 282.141C55.3177 284.458 55.1242 286.911 55.2437 287.976C56.0749 288.505 56.9686 288.938 57.9022 289.257C57.7599 288.83 57.6062 288.329 57.4411 287.72C56.5587 284.463 58.722 283.45 58.8017 285.277C58.944 286.843 59.2286 288.386 59.6556 289.9C60.8454 290.304 61.8359 290.577 62.4393 290.788C64.0048 291.369 65.4052 292.325 66.5153 293.572C67.6481 292.547 68.5874 291.334 69.2933 289.98C68.5362 289.325 67.335 288.352 65.6671 287.179C62.5475 284.976 63.6291 282.192 66.094 283.923C67.8815 285.169 69.2648 287.486 69.8967 288.676C70.7392 286.604 71.2174 284.406 71.3085 282.175C68.855 279.875 62.7695 276.664 64.6196 276.664C66.2648 276.664 69.9423 279.078 71.2971 280.006C71.263 279.374 71.189 278.742 71.0865 278.116C68.7753 276.602 61.2666 274.245 62.4678 273.568C63.7828 272.822 69.0201 275.253 70.5799 276.021C70.2838 274.991 69.8113 274.023 69.1908 273.146C65.9972 268.877 60.2248 267.397 57.7314 268.216C55.9553 268.791 56.4734 273.3 56.0919 273.146C48.959 270.283 45.7142 272.298 48.3442 281.071ZM65.8492 280.575C66.3559 279.966 68.7013 281.765 68.0238 282.75C67.3464 283.735 65.1889 281.361 65.8435 280.575H65.8492ZM53.6042 276.733C54.2191 277.12 53.3082 279.403 52.3632 278.708C51.5435 278.122 52.978 276.334 53.5985 276.733H53.6042Z" fill="#6EE213"/>
<path d="M54.5325 277.421C54.857 276.784 55.1929 276.141 55.5572 275.537C55.8988 274.934 56.2916 274.359 56.7413 273.829C56.6388 273.704 56.5421 273.579 56.4339 273.454C56.4168 273.431 56.4168 273.402 56.4396 273.38C56.4624 273.363 56.4908 273.363 56.5136 273.385C56.6332 273.522 56.7413 273.659 56.8665 273.812C56.8893 273.824 56.9064 273.846 56.9121 273.875C57.339 274.399 57.766 274.945 58.1702 275.503C58.8704 275.662 59.5649 275.867 60.2423 276.106C60.9425 276.34 61.637 276.585 62.3201 276.869C62.3941 276.898 62.36 277.017 62.286 276.983C61.6086 276.681 60.9254 276.397 60.2252 276.158C59.525 275.919 58.8931 275.765 58.2214 275.571C58.4377 275.879 58.6484 276.192 58.859 276.505C60.1171 276.903 61.3467 277.404 62.5251 278.002C63.7661 278.594 64.9559 279.283 66.14 279.96C66.2083 280 66.1399 280.103 66.0773 280.063C64.9103 279.38 63.7092 278.759 62.4795 278.201C61.3296 277.661 60.1398 277.216 58.9842 276.71C61.8989 281.258 63.6465 286.507 65.9862 291.369C66.0204 291.437 65.9065 291.499 65.8781 291.425C65.1665 289.718 64.341 288.061 63.5611 286.387C62.8666 284.879 62.1835 283.37 61.4833 281.862C61.2784 281.418 61.0677 280.979 60.8571 280.541C60.9824 282.972 60.9311 285.442 61.3296 287.845C61.3296 287.879 61.3011 287.907 61.267 287.907C61.2328 287.907 61.2044 287.879 61.2044 287.845C61.0336 285.249 60.5782 282.693 60.5953 280.08C60.5953 280.069 60.5953 280.057 60.5953 280.051C60.1 279.055 59.5763 278.076 59.0013 277.12C58.0336 279.397 57.0202 281.708 56.5705 284.15C56.5705 284.224 56.4339 284.19 56.4567 284.11C57.1113 281.662 57.7375 279.215 58.8988 276.949C58.284 275.924 57.6009 274.939 56.8552 274C56.5307 274.609 56.1151 275.178 55.7508 275.753C55.3808 276.328 55.0392 276.886 54.7033 277.461C53.986 278.685 53.3769 279.972 52.8817 281.304C52.8532 281.378 52.7336 281.338 52.7678 281.264C53.3314 279.983 53.895 278.702 54.5325 277.421Z" fill="#263238"/>
<path d="M31.5513 282.972C33.4242 281.093 35.5988 278.628 38.4907 278.64C41.2801 278.64 43.3351 280.888 44.5135 283.211C45.7488 285.63 46.1929 288.38 46.5401 291.044C46.95 294.243 47.1948 297.46 47.2802 300.687C47.3314 302.475 47.32 304.268 47.2802 306.056C47.2745 307.872 47.1322 309.682 46.8532 311.475C46.802 311.765 46.3352 311.777 46.3181 311.475C46.2327 309.967 46.3181 308.458 46.3181 306.949C46.3181 305.441 46.3181 303.961 46.2441 302.492C46.1303 299.503 45.9139 296.492 45.5667 293.526C45.2593 290.919 45.0088 288.238 44.2346 285.727C43.5287 283.456 42.208 280.86 39.9081 279.858C36.7658 278.497 33.6974 280.985 31.6424 283.08C31.5911 283.091 31.5 283.012 31.5513 282.972Z" fill="#263238"/>
<path d="M22.0099 287.15C22.0099 287.537 22.0441 287.913 22.0725 288.289C22.972 287.611 24.0251 287.173 25.1409 287.008C27.7994 286.723 27.6286 288.744 25.8525 288.83C24.6058 288.847 23.3705 289.092 22.2091 289.558C22.6361 293.065 23.6038 295.883 23.7519 295.923C26.1086 295.786 28.454 295.49 30.7653 295.035C30.1049 293.629 28.602 291.761 29.3705 291.619C30.1391 291.477 30.9759 293.133 31.3971 294.915C33.1391 294.585 34.8526 294.112 36.5206 293.509C35.3479 292.501 33.5319 291.243 34.2378 290.703C34.9437 290.162 36.3726 291.944 37.2265 293.224C38.0121 292.906 38.7521 292.496 39.4352 291.995C37.8584 289.684 34.0272 289.217 34.5224 287.543C35.0234 285.869 38.6155 288.192 40.2208 291.283C42.1108 289.325 42.6687 286.547 42.4694 284.173C40.8186 283.979 37.6477 284.332 37.8811 283.143C38.1088 281.953 40.403 282.186 42.2759 282.875C42.1051 281.936 41.7294 281.048 41.1772 280.268C39.4409 278.036 34.1353 280.877 34.1353 280.877C34.1353 280.877 34.7046 275.549 32.6837 274.626C31.5167 274.103 29.4616 274.103 27.3952 275.321C28.5508 275.412 29.9569 275.782 30.5148 276.602C31.2378 277.626 30.0878 278.184 29.3762 277.712C28.8696 277.376 27.9189 276.317 26.2111 276.18C25.4767 276.801 24.8335 277.518 24.2927 278.315C24.0991 278.588 23.9169 278.879 23.7348 279.198C25.7158 278.304 27.9929 278.349 29.9398 279.311C32.2397 280.45 30.9531 282.841 28.9721 281.913C26.991 280.985 25.1295 280.074 23.0175 280.598C22.2775 282.488 21.9359 284.509 22.0099 286.535C23.0403 285.79 24.1959 285.238 25.4255 284.902C27.7083 284.298 28.4142 285.665 25.8923 285.921C24.5318 286.063 23.2111 286.479 22.0099 287.15ZM24.7879 283.484C24.6285 282.744 26.251 282.534 26.5185 283.131C26.7462 283.644 24.9303 284.224 24.7879 283.484ZM38.6496 287.583C38.8034 287.179 39.8907 287.64 39.7882 288.141C39.6516 288.813 38.5016 287.987 38.6496 287.583ZM30.9987 290.179C31.7899 289.86 33.0253 291.83 32.16 292.274C31.2947 292.723 30.3554 290.435 30.9987 290.179Z" fill="#6EE213"/>
<path d="M24.0763 295.524C25.2661 293.532 26.4445 291.534 27.6912 289.581C28.2718 288.664 28.881 287.776 29.5128 286.9C29.4218 286.9 29.325 286.854 29.2339 286.837L28.7614 286.74C28.3914 286.678 28.0271 286.626 27.657 286.587C27.287 286.547 26.9625 286.535 26.6153 286.53C26.2395 286.507 25.8638 286.53 25.4938 286.587C25.4483 286.587 25.4426 286.524 25.4938 286.53C25.8638 286.53 26.2452 286.496 26.6153 286.49C26.9853 286.478 27.3439 286.49 27.7026 286.513C28.0612 286.535 28.38 286.57 28.7216 286.621C28.9037 286.649 29.0916 286.683 29.2795 286.718C29.3876 286.74 29.5072 286.757 29.6153 286.786C30.2586 285.904 30.9303 285.033 31.6248 284.179C29.5527 283.177 27.3496 282.482 25.0782 282.112C25.0384 282.112 25.0555 282.05 25.0782 282.05C27.3724 282.368 29.6039 283.046 31.6875 284.059C32.0746 283.587 32.4503 283.125 32.8374 282.664C33.2245 282.203 33.7311 281.64 34.1183 281.087C34.1467 281.053 34.1979 281.087 34.1695 281.127C33.6344 281.719 33.1277 282.334 32.6552 282.977C33.5091 283.57 34.3175 284.224 35.0803 284.924C35.8716 285.625 36.6458 286.353 37.3972 287.099C37.4257 287.127 37.3972 287.173 37.3574 287.145C36.6116 286.41 35.8431 285.704 35.0405 285.033C34.2378 284.361 33.3896 283.752 32.5812 283.091L32.0233 283.82L31.7444 284.184C31.7444 284.184 31.7444 284.184 31.7216 284.207C31.4142 284.634 31.1011 285.015 30.7994 285.425C31.158 285.949 31.4655 286.501 31.7159 287.082C31.9835 287.645 32.2169 288.226 32.4275 288.812C32.8545 290.031 33.1846 291.272 33.4237 292.541C33.4237 292.581 33.3725 292.598 33.3611 292.541C33.1049 291.294 32.7463 290.071 32.2738 288.886C32.0461 288.277 31.7785 287.68 31.511 287.093C31.2434 286.501 30.9645 286.034 30.7311 285.494L29.9341 286.564L29.7121 286.883C29.7235 286.894 29.7235 286.911 29.7121 286.923C29.7064 286.928 29.695 286.934 29.6836 286.934C28.8639 288.078 28.084 289.245 27.3326 290.429C27.3781 290.509 27.4122 290.6 27.435 290.691C27.4806 290.839 27.5261 290.981 27.5717 291.118C27.657 291.408 27.7254 291.704 27.7823 292C27.8335 292.285 27.8734 292.564 27.8961 292.854C27.9018 293.173 27.9246 293.498 27.9701 293.816C27.9758 293.833 27.9701 293.851 27.9531 293.856C27.936 293.862 27.9189 293.856 27.9132 293.839C27.9075 293.833 27.9075 293.822 27.9132 293.816C27.9303 293.515 27.9075 293.213 27.8449 292.917C27.805 292.61 27.7424 292.308 27.6741 292C27.6058 291.699 27.5375 291.454 27.4578 291.186C27.4179 291.05 27.3724 290.919 27.3269 290.782C27.2813 290.651 27.2642 290.634 27.2472 290.56C26.8942 291.118 26.5356 291.676 26.194 292.239C25.5109 293.35 24.8335 294.471 24.1503 295.581C24.1162 295.632 24.0251 295.581 24.0763 295.524Z" fill="#263238"/>
<path d="M42.4355 310.815C42.464 309.688 42.6462 308.549 42.7714 307.428C42.8967 306.306 43.0219 305.179 43.1358 304.052C43.3692 301.877 43.5001 299.657 43.9897 297.528C44.3711 295.672 45.2933 293.976 46.6425 292.65C47.3427 291.949 48.2649 291.511 49.2497 291.409C50.2402 291.38 51.2137 291.682 52.0107 292.262C52.9215 292.934 53.7071 293.765 54.3333 294.71C55.005 295.65 55.6141 296.629 56.1492 297.653C56.1492 297.693 56.1094 297.716 56.0866 297.682C55.0847 295.974 53.7526 294.483 52.1644 293.287C51.4642 292.707 50.5989 292.348 49.6937 292.257C48.8 292.24 47.9404 292.587 47.2971 293.207C45.9821 294.352 45.2193 296.037 44.7639 297.688C44.2231 299.646 44.0523 301.707 43.7847 303.716C43.6253 304.906 43.4716 306.101 43.3122 307.297C43.1528 308.492 43.056 309.705 42.8056 310.878C42.76 310.974 42.6405 311.014 42.5437 310.969C42.4868 310.935 42.4469 310.878 42.4355 310.815Z" fill="#263238"/>
<path d="M47.9855 302.054C48.3328 302.526 48.7484 302.948 49.2095 303.306C49.0273 302.202 48.7825 300.249 49.3575 299.207C50.2114 297.591 51.2475 298.393 50.7294 299.805C50.2171 301.075 49.9381 302.424 49.8983 303.79C51.071 304.53 52.3291 305.122 53.6441 305.56C53.5075 304.929 53.4619 304.274 53.5245 303.631C53.6953 301.923 55.0217 301.923 54.6745 303.733C54.5492 304.428 54.4866 305.139 54.4923 305.845C56.405 306.431 58.3576 306.875 60.333 307.166C61.3406 305.857 62.1547 304.405 62.7524 302.862C61.3406 302.509 58.4829 302.435 58.5569 301.422C58.6366 300.067 61.4032 301.109 63.0143 302.094C63.3843 300.915 63.5494 299.686 63.5038 298.45C62.2344 298.097 60.9364 297.881 59.6214 297.807C56.7238 297.557 56.8662 295.917 58.9668 295.951C60.5152 295.98 62.4734 296.93 63.4014 297.42C62.7922 293.481 59.7865 290.953 57.3785 290.856C53.3253 290.691 54.7883 295.735 54.7883 295.735C54.7883 295.735 52.0444 293.799 49.4486 293.851C46.8584 293.902 45.2018 298.194 47.9855 302.054ZM58.813 294.761C58.722 294.192 60.5209 294.056 60.629 294.79C60.7201 295.604 58.8927 295.359 58.796 294.761H58.813ZM61.722 300.682C61.6822 300.312 62.4678 300.255 62.6385 300.71C62.741 301.012 61.7334 301.046 61.7049 300.682H61.722ZM51.9875 301.023C52.6023 301.109 52.9496 303.289 51.8964 303.249C51.0767 303.215 51.4524 300.949 51.9704 301.023H51.9875Z" fill="#6EE213"/>
<path d="M52.8188 303.466C52.9213 303.192 53.0124 302.913 53.0978 302.635C53.0181 302.919 52.9498 303.198 52.8985 303.488C52.8928 303.511 52.8701 303.523 52.8473 303.517C52.8188 303.511 52.8074 303.488 52.8188 303.466Z" fill="#263238"/>
<path d="M53.8895 299.936C54.083 299.378 54.2936 298.826 54.51 298.274C54.6295 297.978 54.749 297.687 54.88 297.42C54.9711 297.164 55.0906 296.913 55.2443 296.686C55.1134 296.458 55.0052 296.224 54.9142 295.98C54.9142 295.957 54.9142 295.94 54.9483 295.957C55.25 296.338 55.5119 296.748 55.7396 297.181C55.8534 297.374 55.9616 297.568 56.0754 297.761C56.3032 297.784 56.5309 297.818 56.7529 297.864C56.9977 297.909 57.2425 297.961 57.4815 298.012L58.2102 298.177C58.4436 298.24 58.6827 298.314 58.9275 298.354C58.9503 298.359 58.9616 298.382 58.956 298.405C58.9503 298.428 58.9275 298.439 58.9047 298.433C58.6599 298.342 58.4038 298.28 58.1419 298.234C57.9142 298.183 57.6751 298.137 57.4417 298.103C57.2083 298.069 56.9692 298.04 56.7301 298.018L56.195 297.972C56.2861 298.143 56.3942 298.308 56.4853 298.479L56.5252 298.558C56.7187 298.558 56.918 298.581 57.1058 298.627C57.3165 298.667 57.5328 298.701 57.732 298.752C58.159 298.843 58.5859 298.951 58.9901 299.065C59.8725 299.31 60.7378 299.589 61.5974 299.873C61.6486 299.873 61.5974 299.965 61.5689 299.947C60.7093 299.657 59.8383 299.412 58.9503 299.219C58.5233 299.128 58.1191 299.025 57.7036 298.94L57.0774 298.809C56.9123 298.786 56.7529 298.746 56.5878 298.701C57.0375 299.526 57.4531 300.363 57.8402 301.217C58.6941 303.078 59.3886 304.991 60.1116 306.898C60.1116 306.944 60.0547 306.978 60.0376 306.932C59.3431 305.037 58.5347 303.181 57.6182 301.382L57.1286 300.397C57.1286 300.466 57.1001 300.528 57.0887 300.596C57.0489 300.824 57.0091 301.052 56.9692 301.274C56.8952 301.729 56.8155 302.179 56.7472 302.634C56.5536 303.562 56.4455 304.502 56.4227 305.447C56.4227 305.509 56.3373 305.504 56.3487 305.447C56.4056 304.991 56.4398 304.536 56.4455 304.075C56.4739 303.602 56.5081 303.124 56.565 302.652C56.622 302.179 56.6789 301.741 56.7529 301.291C56.7927 301.063 56.8326 300.841 56.8724 300.614C56.8838 300.443 56.9237 300.278 57.0034 300.124L56.2918 298.695C56.0641 298.268 55.8364 297.807 55.603 297.363L55.2956 296.799C55.2215 297.033 55.1305 297.261 55.028 297.483C54.9255 297.739 54.8174 297.989 54.7149 298.245C54.4815 298.815 54.2879 299.384 54.0489 299.953C53.7414 300.767 53.4056 301.598 53.1494 302.441C53.3999 301.598 53.6105 300.756 53.8895 299.936Z" fill="#263238"/>
<path d="M53.1094 302.612C53.1094 302.549 53.1492 302.481 53.172 302.412C53.1321 302.492 53.1094 302.56 53.1094 302.612Z" fill="#263238"/>
<path d="M35.6445 308.623L35.9292 314.658L36.6635 330.199H52.7055L53.4399 314.658L53.7245 308.623H35.6445Z" fill="#D1203D"/>
<path d="M35.6445 308.623L35.9292 314.658H53.4399L53.7245 308.623H35.6445Z" fill="#263238"/>
<path d="M54.8623 306.181H34.4995V311.06H54.8623V306.181Z" fill="#D1203D"/>
</g>
</g>
<defs>
<clipPath id="clip0_585_5464">
<rect width="532.49" height="330.06" fill="white"/>
</clipPath>
<clipPath id="clip1_585_5464">
<rect width="499" height="329" fill="white" transform="translate(16)"/>
</clipPath>
</defs>
</svg>
