<svg width="60" height="60" viewBox="0 0 60 60" fill="none" xmlns="http://www.w3.org/2000/svg">
<path d="M30.3305 50.6647C30.3305 51.1827 29.9109 51.6022 29.393 51.6022H23.7047C23.1867 51.6022 22.7672 51.1827 22.7672 50.6647C22.7672 50.1468 23.1867 49.7272 23.7047 49.7272H29.393C29.9109 49.7272 30.3305 50.1468 30.3305 50.6647ZM21.6082 10.4085H31.4895C32.0074 10.4085 32.427 9.98897 32.427 9.471C32.427 8.95303 32.0074 8.5335 31.4895 8.5335H21.6082C21.0902 8.5335 20.6707 8.95303 20.6707 9.471C20.6707 9.98897 21.0902 10.4085 21.6082 10.4085ZM58.7074 22.4202C58.084 20.0917 56.6508 18.0351 54.6727 16.6276C54.2508 16.3276 53.6648 16.4261 53.3648 16.8479C53.0648 17.2698 53.1633 17.8558 53.5852 18.1558C55.2082 19.3112 56.3848 20.9976 56.8957 22.9054C57.409 24.8202 57.2355 26.8698 56.4094 28.6769C56.1937 29.1479 56.4012 29.7034 56.8723 29.919C56.9988 29.9765 57.1313 30.0046 57.2613 30.0046C57.6164 30.0046 57.9574 29.8007 58.1145 29.4573C59.1223 27.2542 59.332 24.7558 58.7062 22.4202H58.7074ZM51.8566 19.153C51.4348 18.853 50.8488 18.9526 50.55 19.3745C50.25 19.7964 50.3496 20.3823 50.7715 20.6812C51.8859 21.4733 52.6934 22.6288 53.0438 23.9378C53.3953 25.2503 53.2758 26.6554 52.7086 27.8952C52.493 28.3663 52.6992 28.9218 53.1703 29.1386C53.2969 29.196 53.4293 29.2241 53.5605 29.2241C53.9156 29.2241 54.2555 29.0214 54.4137 28.6769C55.1637 27.0409 55.3195 25.1858 54.8555 23.4526C54.3926 21.7241 53.3273 20.1972 51.8578 19.153H51.8566ZM49.1297 29.9073L50.6109 35.4339C50.693 35.7386 50.6156 36.0632 50.407 36.2987C50.2277 36.5003 49.9723 36.614 49.7062 36.614C49.6617 36.614 49.6172 36.6104 49.5727 36.6046L43.1273 35.6788V52.5315C43.1273 54.3538 41.6449 55.8362 39.8227 55.8362H13.2762C11.4539 55.8362 9.97148 54.3538 9.97148 52.5315V49.2866H1.875C1.35703 49.2866 0.9375 48.8671 0.9375 48.3491V35.3026C0.9375 34.7847 1.35703 34.3651 1.875 34.3651H9.97148V23.9929H1.875C1.35703 23.9929 0.9375 23.5733 0.9375 23.0554V11.6507C0.9375 11.1327 1.35703 10.7132 1.875 10.7132H9.97148V7.46826C9.97148 5.646 11.4539 4.16357 13.2762 4.16357H39.8203C41.6426 4.16357 43.125 5.646 43.125 7.46826V15.1569L43.7027 14.7034C43.95 14.5089 44.2793 14.4515 44.5781 14.5511C44.877 14.6507 45.1055 14.8933 45.1875 15.1979L46.6687 20.7245C48.7664 20.905 50.577 22.3769 51.1324 24.4499C51.6879 26.5229 50.8547 28.7026 49.1297 29.9073ZM44.8793 34.037L40.923 19.2737L32.9379 25.5515L34.8246 32.5944L44.8793 34.0382V34.037ZM26.3484 27.6468C24.8086 28.0593 24.2426 29.0542 24.0375 29.8171C23.7105 31.037 24.0914 32.455 24.9832 33.3479C25.541 33.9058 26.5301 34.4847 28.0688 34.0722L29.2418 33.7581C29.2418 33.7581 29.2453 33.7581 29.2465 33.7569L32.9297 32.7702L31.2082 26.3448L26.3484 27.6468ZM30.6387 35.3261L31.6348 39.0421L34.4133 38.298L33.4172 34.5819L30.6398 35.3261H30.6387ZM11.8465 10.7132H19.4684C19.9863 10.7132 20.4059 11.1327 20.4059 11.6507V12.9034H41.25V7.46826C41.25 6.67959 40.609 6.03857 39.8203 6.03857H13.2762C12.4875 6.03857 11.8465 6.67959 11.8465 7.46826V10.7132ZM2.8125 22.119H10.9969C11.1996 22.119 11.3977 22.1847 11.5605 22.3077L15.4758 25.2503V23.0565C15.4758 22.5386 15.8953 22.119 16.4133 22.119H18.532V12.5882H2.8125V22.119ZM2.8125 47.4128H18.5309V36.2413H2.8125V47.4128ZM41.25 52.5327V47.0976H20.4059V48.3503C20.4059 48.8683 19.9863 49.2878 19.4684 49.2878H11.8465V52.5327C11.8465 53.3214 12.4875 53.9624 13.2762 53.9624H39.8203C40.609 53.9624 41.25 53.3214 41.25 52.5327ZM41.25 35.4116L35.352 34.5644L36.4652 38.7187C36.5297 38.9589 36.4957 39.2144 36.3715 39.43C36.2473 39.6456 36.0422 39.8026 35.802 39.8671L31.2129 41.0964C31.1332 41.1175 31.0512 41.128 30.9703 41.128C30.8074 41.128 30.6457 41.0858 30.5016 41.0026C30.2859 40.8784 30.1289 40.6733 30.0645 40.4331L28.8258 35.8112L28.5539 35.8839C26.7059 36.3796 24.9211 35.9378 23.6566 34.6745C22.2855 33.3022 21.723 31.2058 22.2246 29.3319C22.6875 27.6058 24.0129 26.3308 25.8609 25.8362L31.4414 24.3409L41.2477 16.6323V14.7796H20.4059V23.0565C20.4059 23.5745 19.9863 23.994 19.4684 23.994H17.3496V27.1276C17.3496 27.4827 17.1492 27.8073 16.8305 27.9667C16.698 28.0323 16.5551 28.0651 16.4121 28.0651C16.2129 28.0651 16.0148 28.0019 15.8484 27.8765L11.8453 24.8683V34.3663H19.4672C19.9852 34.3663 20.4047 34.7858 20.4047 35.3038V45.2226H41.2488V35.4104L41.25 35.4116ZM48.4313 34.5479L43.7449 17.0565L42.5273 18.014L46.8984 34.3276L48.4313 34.5479ZM49.3207 24.9362C49.0348 23.8698 48.218 23.0589 47.2066 22.7354L48.5906 27.8987C49.3055 27.1136 49.6066 26.0026 49.3207 24.9351V24.9362ZM13.7578 42.6386L7.84102 46.0546C7.6957 46.1378 7.53398 46.18 7.37227 46.18C7.21055 46.18 7.04883 46.1378 6.90352 46.0546C6.61289 45.887 6.43477 45.5776 6.43477 45.2425V38.4104C6.43477 38.0753 6.61289 37.7659 6.90352 37.5983C7.19414 37.4308 7.55039 37.4308 7.84102 37.5983L13.7578 41.0144C14.0484 41.1819 14.2266 41.4913 14.2266 41.8265C14.2266 42.1616 14.0484 42.471 13.7578 42.6386ZM11.4141 41.8265L8.30977 40.0347V43.6194L11.4141 41.8276V41.8265ZM6.1957 16.1226H5.10469C4.58672 16.1226 4.16719 16.5421 4.16719 17.0601C4.16719 17.578 4.58672 17.9976 5.10469 17.9976H6.1957C6.71367 17.9976 7.1332 17.578 7.1332 17.0601C7.1332 16.5421 6.71367 16.1226 6.1957 16.1226ZM11.4996 17.0601C11.4996 16.5421 11.0801 16.1226 10.5621 16.1226H9.47109C8.95312 16.1226 8.53359 16.5421 8.53359 17.0601C8.53359 17.578 8.95312 17.9976 9.47109 17.9976H10.5621C11.0801 17.9976 11.4996 17.578 11.4996 17.0601ZM13.8363 17.9976H14.9273C15.4453 17.9976 15.8648 17.578 15.8648 17.0601C15.8648 16.5421 15.4453 16.1226 14.9273 16.1226H13.8363C13.3184 16.1226 12.8988 16.5421 12.8988 17.0601C12.8988 17.578 13.3184 17.9976 13.8363 17.9976Z" fill="#DAA7EE"/>
</svg>
