<svg width="543" height="329" viewBox="0 0 543 329" fill="none" xmlns="http://www.w3.org/2000/svg">
<g clip-path="url(#clip0_1165_8405)">
<path opacity="0.2" d="M127.492 328.58L412.142 311.93C487.412 307.53 545.652 243.73 542.512 168.39C539.872 105.08 517.192 37.64 440.912 8.81999C387.262 -11.45 317.592 5.13999 273.402 38.85C262.782 46.95 253.022 56.24 241.612 63.17C215.022 79.32 191.672 68.17 163.972 63.88C105.412 54.79 46.9621 73.46 16.7021 127.43C-29.7579 210.35 25.0421 334.57 127.492 328.58Z" fill="#999999"/>
<path d="M489.582 315.281H252.075C251.847 315.281 251.7 315.037 251.809 314.836L285.385 252.906C285.438 252.809 285.54 252.749 285.65 252.749H460.637C460.755 252.749 460.861 252.817 460.911 252.922L489.856 314.852C489.949 315.052 489.802 315.281 489.582 315.281Z" fill="#E527BB"/>
<path d="M447.208 142.878H297.662C290.93 142.878 285.474 148.333 285.474 155.063V253.333H460.832L459.794 155.331C459.723 148.433 454.108 142.878 447.208 142.878Z" fill="#E527BB"/>
<path d="M488.275 322.003H252.767C251.298 322.003 250.108 320.813 250.108 319.344V317.064C250.108 315.595 251.298 314.405 252.767 314.405H488.276C489.745 314.405 490.935 315.595 490.935 317.064V319.344C490.933 320.813 489.743 322.003 488.275 322.003Z" fill="#C2109B"/>
<path d="M467.555 290.444H278.168L295.703 257.132H452.358L467.555 290.444Z" fill="#FEFFFB"/>
<path d="M393.423 311.483H348.493C346.082 311.483 344.364 309.146 345.083 306.845L348.967 294.415C349.272 293.443 350.172 292.781 351.191 292.781H389.951C390.922 292.781 391.792 293.384 392.132 294.293L396.769 306.657C397.644 308.991 395.918 311.483 393.423 311.483Z" fill="#0E538C"/>
<path d="M452.942 150.476H378.806L338.151 248.95H452.942V150.476Z" fill="#DAA7EE"/>
<path d="M293.367 150.476V248.95H345.778L383.733 150.476H293.367Z" fill="#DAA7EE"/>
<path d="M429.183 288.107H316.537C316.343 288.107 316.201 287.928 316.242 287.74L317.277 283.084C317.308 282.945 317.431 282.848 317.572 282.848H428.149C428.29 282.848 428.413 282.946 428.444 283.084L429.479 287.74C429.52 287.928 429.376 288.107 429.183 288.107Z" fill="#0E538C"/>
<path d="M289.9 288.107H285.88C285.277 288.107 284.872 287.487 285.118 286.935L286.715 283.341C286.848 283.04 287.147 282.846 287.476 282.846H291.497C292.1 282.846 292.504 283.467 292.259 284.019L290.662 287.612C290.529 287.912 290.23 288.107 289.9 288.107Z" fill="#0E538C"/>
<path d="M300.565 288.107H295.814C295.101 288.107 294.624 287.487 294.913 286.935L296.801 283.341C296.958 283.04 297.312 282.846 297.701 282.846H302.453C303.166 282.846 303.643 283.467 303.354 284.019L301.466 287.612C301.307 287.912 300.954 288.107 300.565 288.107Z" fill="#0E538C"/>
<path d="M311.668 288.107H306.916C306.204 288.107 305.726 287.487 306.016 286.935L307.903 283.341C308.061 283.04 308.414 282.846 308.804 282.846H313.556C314.268 282.846 314.746 283.467 314.456 284.019L312.568 287.612C312.41 287.912 312.056 288.107 311.668 288.107Z" fill="#0E538C"/>
<path d="M441.628 282.846H434.881C433.782 282.846 433.045 283.467 433.492 284.019L434.651 287.612C434.896 287.914 435.44 288.107 436.04 288.107H443.372C444.471 288.107 445.208 287.487 444.761 286.935L443.017 283.341C442.774 283.041 442.23 282.846 441.628 282.846Z" fill="#0E538C"/>
<path d="M459.501 282.846H448.986C447.409 282.846 446.354 283.467 446.994 284.019L449.494 287.612C449.844 287.914 450.624 288.107 451.486 288.107H462.001C463.578 288.107 464.633 287.487 463.993 286.935L461.493 283.341C461.143 283.041 460.363 282.846 459.501 282.846Z" fill="#0E538C"/>
<path d="M311.648 279.924H289.214C288.704 279.924 288.373 279.388 288.601 278.933L290.254 275.627C290.37 275.395 290.608 275.248 290.866 275.248H313.301C313.811 275.248 314.142 275.784 313.914 276.239L312.261 279.545C312.145 279.777 311.907 279.924 311.648 279.924Z" fill="#0E538C"/>
<path d="M311.027 272.327H292.599C292.181 272.327 291.909 271.79 292.096 271.336L293.454 268.029C293.549 267.797 293.743 267.65 293.957 267.65H312.385C312.803 267.65 313.075 268.187 312.888 268.641L311.53 271.948C311.436 272.18 311.241 272.327 311.027 272.327Z" fill="#0E538C"/>
<path d="M455.019 267.652H432.87C432.367 267.652 432.04 268.188 432.265 268.643L433.898 271.949C434.013 272.181 434.246 272.328 434.502 272.328H456.652C457.155 272.328 457.481 271.792 457.256 271.337L455.623 268.031C455.51 267.799 455.275 267.652 455.019 267.652Z" fill="#0E538C"/>
<path d="M310.338 264.145H296.545C296.231 264.145 296.074 263.648 296.251 263.225L297.547 260.154C297.638 259.94 297.796 259.804 297.955 259.804H311.748C312.061 259.804 312.219 260.301 312.041 260.724L310.746 263.794C310.655 264.009 310.496 264.145 310.338 264.145Z" fill="#0E538C"/>
<path d="M367.792 275.083H360.676C360.431 275.083 360.261 275.308 360.296 275.586L360.779 279.422C360.813 279.699 361.04 279.924 361.286 279.924H368.401C368.647 279.924 368.816 279.699 368.782 279.422L368.299 275.586C368.263 275.308 368.036 275.083 367.792 275.083Z" fill="#0E538C"/>
<path d="M327.048 279.924H319.213C318.943 279.924 318.805 279.699 318.902 279.422L320.256 275.586C320.355 275.308 320.652 275.083 320.922 275.083H328.757C329.026 275.083 329.165 275.308 329.067 275.586L327.713 279.422C327.615 279.699 327.317 279.924 327.048 279.924Z" fill="#0E538C"/>
<path d="M341.075 279.924H333.241C332.971 279.924 332.832 279.699 332.93 279.421L334.284 275.585C334.383 275.308 334.68 275.082 334.95 275.082H342.784C343.054 275.082 343.193 275.308 343.095 275.585L341.741 279.421C341.642 279.699 341.345 279.924 341.075 279.924Z" fill="#0E538C"/>
<path d="M354.52 279.924H346.685C346.416 279.924 346.277 279.699 346.374 279.422L347.728 275.586C347.826 275.308 348.125 275.083 348.394 275.083H356.229C356.498 275.083 356.637 275.308 356.54 275.586L355.186 279.422C355.088 279.699 354.79 279.924 354.52 279.924Z" fill="#0E538C"/>
<path d="M324.71 271.743H316.875C316.606 271.743 316.467 271.517 316.565 271.24L317.919 267.404C318.017 267.126 318.315 266.901 318.584 266.901H326.419C326.689 266.901 326.827 267.126 326.73 267.404L325.376 271.24C325.279 271.517 324.98 271.743 324.71 271.743Z" fill="#0E538C"/>
<path d="M338.738 271.743H330.903C330.633 271.743 330.495 271.517 330.592 271.24L331.946 267.404C332.045 267.126 332.342 266.901 332.612 266.901H340.447C340.716 266.901 340.855 267.126 340.758 267.404L339.404 271.24C339.305 271.517 339.007 271.743 338.738 271.743Z" fill="#0E538C"/>
<path d="M352.173 271.76L344.338 271.723C344.069 271.721 343.882 271.512 343.922 271.253L344.47 267.693C344.51 267.436 344.761 267.228 345.031 267.229L352.865 267.266C353.135 267.268 353.322 267.477 353.282 267.736L352.733 271.296C352.693 271.553 352.442 271.761 352.173 271.76Z" fill="#0E538C"/>
<path d="M365.033 271.76L357.198 271.722C356.929 271.721 356.735 271.518 356.766 271.27L357.188 267.838C357.218 267.59 357.461 267.389 357.731 267.39L365.566 267.427C365.835 267.429 366.028 267.632 365.999 267.88L365.578 271.313C365.547 271.561 365.303 271.761 365.033 271.76Z" fill="#0E538C"/>
<path d="M393.514 275.082H386.399C386.153 275.082 385.984 275.308 386.018 275.585L386.501 279.421C386.536 279.699 386.763 279.924 387.008 279.924H394.124C394.37 279.924 394.539 279.699 394.504 279.421L394.021 275.585C393.985 275.308 393.759 275.082 393.514 275.082Z" fill="#0E538C"/>
<path d="M381.241 275.083H374.125C373.879 275.083 373.71 275.308 373.744 275.586L374.227 279.422C374.262 279.699 374.489 279.924 374.734 279.924H381.85C382.096 279.924 382.265 279.699 382.23 279.422L381.747 275.586C381.713 275.308 381.486 275.083 381.241 275.083Z" fill="#0E538C"/>
<path d="M407.823 275.083H400.776C400.533 275.083 400.365 275.308 400.4 275.586L400.879 279.422C400.914 279.699 401.138 279.924 401.381 279.924H408.427C408.67 279.924 408.838 279.699 408.803 279.422L408.324 275.586C408.29 275.308 408.064 275.083 407.823 275.083Z" fill="#0E538C"/>
<path d="M420.399 275.083H413.283C413.038 275.083 412.868 275.308 412.903 275.586L413.386 279.422C413.421 279.699 413.647 279.924 413.893 279.924H421.009C421.254 279.924 421.423 279.699 421.389 279.422L420.906 275.586C420.871 275.308 420.644 275.083 420.399 275.083Z" fill="#0E538C"/>
<path d="M441.389 279.924H428.118C427.579 279.924 427.018 279.472 426.864 278.913L426.178 276.426C426.024 275.868 426.335 275.415 426.874 275.415H440.145C440.684 275.415 441.245 275.867 441.399 276.426L442.085 278.913C442.24 279.472 441.928 279.924 441.389 279.924Z" fill="#0E538C"/>
<path d="M451.816 264.145H436.772C436.161 264.145 435.526 263.693 435.351 263.134L434.575 260.647C434.4 260.089 434.753 259.636 435.364 259.636H450.409C451.02 259.636 451.655 260.088 451.829 260.647L452.606 263.134C452.779 263.693 452.426 264.145 451.816 264.145Z" fill="#0E538C"/>
<path d="M454.065 279.924H446.045C445.719 279.924 445.381 279.472 445.287 278.913L444.874 276.426C444.78 275.868 444.97 275.415 445.294 275.415H453.314C453.64 275.415 453.979 275.867 454.072 276.426L454.486 278.913C454.579 279.472 454.391 279.924 454.065 279.924Z" fill="#0E538C"/>
<path d="M376.758 271.742H369.55C369.442 271.742 369.355 271.654 369.355 271.548V267.262C369.355 267.154 369.443 267.067 369.55 267.067H376.758C376.866 267.067 376.952 267.155 376.952 267.262V271.548C376.954 271.656 376.866 271.742 376.758 271.742Z" fill="#0E538C"/>
<path d="M390.2 271.742H382.407C382.299 271.742 382.212 271.654 382.212 271.548V267.262C382.212 267.154 382.3 267.067 382.407 267.067H390.2C390.308 267.067 390.395 267.155 390.395 267.262V271.548C390.396 271.656 390.308 271.742 390.2 271.742Z" fill="#0E538C"/>
<path d="M402.403 271.742H394.758C394.61 271.742 394.473 271.618 394.451 271.464L393.86 267.178C393.839 267.025 393.942 266.899 394.091 266.899H401.736C401.885 266.899 402.022 267.023 402.043 267.178L402.634 271.464C402.656 271.618 402.553 271.742 402.403 271.742Z" fill="#0E538C"/>
<path d="M414.677 271.742H407.031C406.883 271.742 406.746 271.618 406.724 271.464L406.133 267.178C406.112 267.025 406.215 266.899 406.364 266.899H414.01C414.158 266.899 414.295 267.023 414.316 267.178L414.907 271.464C414.927 271.618 414.825 271.742 414.677 271.742Z" fill="#0E538C"/>
<path d="M427.538 271.742H419.893C419.745 271.742 419.607 271.618 419.586 271.464L418.995 267.178C418.974 267.025 419.076 266.899 419.226 266.899H426.871C427.019 266.899 427.157 267.023 427.178 267.178L427.769 271.464C427.79 271.618 427.688 271.742 427.538 271.742Z" fill="#0E538C"/>
<path d="M322.957 264.145H315.122C314.853 264.145 314.714 263.92 314.811 263.642L316.165 259.806C316.264 259.529 316.561 259.303 316.831 259.303H324.666C324.935 259.303 325.074 259.529 324.977 259.806L323.623 263.642C323.524 263.92 323.226 264.145 322.957 264.145Z" fill="#0E538C"/>
<path d="M336.984 264.145H329.15C328.88 264.145 328.741 263.92 328.839 263.642L330.193 259.806C330.292 259.529 330.589 259.303 330.859 259.303H338.693C338.963 259.303 339.102 259.529 339.004 259.806L337.65 263.642C337.551 263.92 337.254 264.145 336.984 264.145Z" fill="#0E538C"/>
<path d="M349.248 264.162L341.413 264.125C341.144 264.124 340.957 263.914 340.997 263.655L341.545 260.096C341.585 259.838 341.836 259.63 342.105 259.631L349.94 259.669C350.21 259.67 350.397 259.879 350.357 260.138L349.808 263.698C349.768 263.956 349.517 264.164 349.248 264.162Z" fill="#0E538C"/>
<path d="M361.065 264.164L354.237 264.13C354.003 264.129 353.833 263.926 353.86 263.678L354.229 260.245C354.256 259.997 354.468 259.796 354.703 259.797L361.531 259.83C361.766 259.832 361.935 260.034 361.908 260.282L361.539 263.716C361.512 263.964 361.3 264.165 361.065 264.164Z" fill="#0E538C"/>
<path d="M373.599 264.145H366.859C366.622 264.145 366.43 263.953 366.43 263.715V259.899C366.43 259.662 366.622 259.47 366.859 259.47H373.599C373.837 259.47 374.029 259.662 374.029 259.899V263.715C374.029 263.953 373.837 264.145 373.599 264.145Z" fill="#0E538C"/>
<path d="M384.706 264.145H377.967C377.729 264.145 377.537 263.953 377.537 263.715V259.899C377.537 259.662 377.729 259.47 377.967 259.47H384.706C384.944 259.47 385.136 259.662 385.136 259.899V263.715C385.136 263.953 384.944 264.145 384.706 264.145Z" fill="#0E538C"/>
<path d="M398.308 264.145H390.662C390.514 264.145 390.377 264.021 390.355 263.866L389.765 259.581C389.743 259.427 389.846 259.302 389.995 259.302H397.641C397.789 259.302 397.926 259.426 397.948 259.581L398.539 263.866C398.56 264.02 398.457 264.145 398.308 264.145Z" fill="#0E538C"/>
<path d="M409.443 264.145H402.602C402.469 264.145 402.346 264.021 402.327 263.866L401.798 259.581C401.779 259.427 401.871 259.302 402.004 259.302H408.845C408.979 259.302 409.101 259.426 409.12 259.581L409.65 263.866C409.668 264.02 409.575 264.145 409.443 264.145Z" fill="#0E538C"/>
<path d="M431.63 264.145H423.984C423.836 264.145 423.699 264.021 423.677 263.866L423.086 259.581C423.065 259.427 423.168 259.302 423.317 259.302H430.962C431.111 259.302 431.248 259.426 431.269 259.581L431.86 263.866C431.882 264.02 431.779 264.145 431.63 264.145Z" fill="#0E538C"/>
<path d="M420.531 264.145H413.181C413.039 264.145 412.907 264.021 412.887 263.866L412.318 259.581C412.298 259.427 412.397 259.302 412.54 259.302H419.889C420.032 259.302 420.164 259.426 420.184 259.581L420.752 263.866C420.773 264.02 420.673 264.145 420.531 264.145Z" fill="#0E538C"/>
<path d="M154.349 193.385C154.349 193.385 161.849 179.324 167.31 179.816C168.33 179.908 169.351 179.828 170.268 179.375C173.456 177.794 179.866 174.966 177.36 179.143L171.878 181.883C171.318 182.164 171.111 182.86 171.438 183.393C172.823 185.657 175.269 191.132 166.633 191.276C164.965 191.304 163.383 192.022 162.204 193.201L157.675 197.729L154.349 193.385Z" fill="#FFC1BB"/>
<path d="M52.4419 231.729L62.3032 261.308L89.6965 279.932L98.8001 264.387L107.229 237.207C107.229 237.207 108.176 186.085 68.6999 192.967C62.1551 194.108 56.8056 198.854 54.8525 205.202C53.3117 210.211 51.9643 217.081 52.099 225.601C52.1311 227.557 52.2391 229.6 52.4419 231.729Z" fill="#B70790"/>
<path d="M99.0242 206.748C105.238 208.899 117.446 213.257 123.966 216.487C125.093 217.046 126.444 216.78 127.267 215.827C131.358 211.094 143.732 197.343 156.186 189.231C156.387 189.101 156.654 189.146 156.803 189.334L160.684 194.185C160.821 194.357 160.819 194.603 160.677 194.772L132.523 228.333C132.463 228.405 132.389 228.456 132.298 228.481C130.82 228.881 117.261 232.07 100.766 219.762C100.694 219.709 100.638 219.634 100.606 219.551L96.6349 209.226C96.0559 207.716 97.498 206.22 99.0242 206.748Z" fill="#BD97F8"/>
<path d="M78.7396 185.882V198.257C78.7396 200.49 77.5843 202.505 75.7887 203.411C72.7884 204.926 68.4834 207.608 67.7817 210.804L86.4091 220.773L101.749 215.789L100.014 206.904C99.7482 205.542 98.685 204.574 97.459 204.574C95.5926 204.574 94.0798 202.853 94.0798 200.731V183.391L78.7396 185.882Z" fill="#E5959D"/>
<path d="M103.941 259.117L77.6432 250.353L69.7483 208.782C69.6296 208.158 70.3273 207.701 70.8543 208.057C85.1032 217.681 89.4602 216.626 99.0107 207.079C101.79 207.686 106.387 223.557 110.63 236.455C111.276 238.418 112.585 240.08 114.342 241.168C120.75 245.138 130.682 257.007 144.479 255.284L139.005 266.786L113.803 262.405L103.941 259.117Z" fill="#A78BEF"/>
<path d="M159.825 311.703L147.772 324.849L153.251 339.091L165.304 340.186C165.304 340.186 157.633 336.9 159.825 323.753L167.496 317.18L159.825 311.703Z" fill="#FFC1BB"/>
<path d="M98.4625 294.174H181.739V273.359H98.4625V294.174Z" fill="#E527BB"/>
<path d="M132.43 337.996H141.196V289.792H132.43V337.996Z" fill="#E527BB"/>
<path d="M141.194 254.736C141.194 254.736 194.886 248.163 193.79 275.551C193.79 275.551 187.763 298.009 166.944 323.207L155.439 313.895C155.439 313.895 171.876 296.366 177.354 273.359H151.057L141.194 254.736Z" fill="#452A2A"/>
<path d="M171.88 312.798C171.88 312.798 174.071 328.135 187.22 339.091H198.178C198.178 339.091 190.507 334.71 182.838 309.511L171.88 312.798Z" fill="#FFC1BB"/>
<path d="M123.667 251.448C123.667 251.448 146.028 258.648 159.543 262.015C163.931 263.109 167.557 266.174 169.35 270.325L187.221 311.702L170.784 317.18L153.252 275.551H92.9863L97.3687 260.212L123.667 251.448Z" fill="#362A37"/>
<path d="M105.04 255.83C105.04 255.83 114.129 249.46 120.783 249.233C121.871 249.196 122.873 248.669 123.556 247.824C125.826 245.015 131.492 239.605 139.008 243.779C139.008 243.779 143.086 246.838 132.558 246.071C132.012 246.031 131.601 246.57 131.799 247.081C133.017 250.22 135.733 258.901 128.234 258.212C126.875 258.087 125.513 258.17 124.159 258.339C120.347 258.815 113.107 259.872 105.383 261.79L105.04 255.83Z" fill="#FFAB80"/>
<path d="M123.863 261.855H159.622C159.733 261.855 159.823 261.766 159.823 261.655V258.769C159.823 258.658 159.733 258.569 159.622 258.569H123.863C123.753 258.569 123.663 258.658 123.663 258.769V261.655C123.663 261.766 123.753 261.855 123.863 261.855Z" fill="#E527BB"/>
<path d="M137.91 261.855H190.506L199.272 219.678H148.868L137.91 261.855Z" fill="#E527BB"/>
<path d="M169.138 249.258C171.256 249.258 172.974 246.805 172.974 243.78C172.974 240.754 171.256 238.302 169.138 238.302C167.02 238.302 165.303 240.754 165.303 243.78C165.303 246.805 167.02 249.258 169.138 249.258Z" fill="#F0F8FF"/>
<path d="M110.517 294.175C70.9723 297.38 53.8404 292.769 52.0047 230.523C51.9821 229.758 53.0546 229.543 53.3121 230.265C56.9274 240.403 68.0293 263.653 92.9854 260.212C92.9854 260.212 108.326 260.212 110.517 294.175Z" fill="#E527BB"/>
<path d="M70.1703 209.171C70.1236 208.357 69.3459 207.794 68.5561 207.999C64.9315 208.938 56.5137 212.937 61.7578 229.537L70.9041 264.082C71.375 265.862 72.2421 267.51 73.4387 268.908L73.7349 269.254C76.3883 272.348 80.744 273.362 84.4913 271.756L108.875 261.308V252.544L88.6642 253.555C87.6504 253.606 86.7245 253.003 86.3683 252.053C84.3246 246.599 77.4409 228.482 72.9652 219.664C71.3643 216.511 70.3958 213.077 70.193 209.546L70.1703 209.171Z" fill="#BD97F8"/>
<path d="M148.668 323.709L153.531 331.61C154.773 333.627 156.607 335.21 158.785 336.144L165.136 338.865C166.395 339.405 166.01 341.283 164.64 341.283H155.986C154.301 341.283 152.753 340.354 151.96 338.867L144.996 325.813C144.673 325.208 144.664 324.484 144.97 323.87C145.714 322.387 147.797 322.295 148.668 323.709Z" fill="#A78BEF"/>
<path d="M93.2057 184.356C93.2057 184.356 90.4095 193.237 93.3591 198.72C93.3591 198.72 83.3457 202.475 78.0362 201.018C78.0362 201.018 78.6792 190.427 76.278 186.316L93.2057 184.356Z" fill="#E5959D"/>
<path d="M83.4321 176.627C88.2693 177.391 88.5868 166.377 88.4681 161.147C88.5615 161.231 95.165 163.569 96.0828 171.465C96.1269 171.847 96.2509 172.217 96.447 172.548C96.9406 173.386 98.1266 174.937 100.805 176.722C100.896 176.782 100.969 176.868 101.008 176.97C101.146 177.333 101.23 178.22 99.4753 179.257C99.4753 179.257 99.4446 180.592 100.162 181.162L99.1525 182.373L100.102 183.831L99.2379 184.676C99.1311 184.78 99.1111 184.946 99.1925 185.07C99.7888 185.978 101.551 189.607 92.0727 190.098C92.0727 190.098 80.9361 191.249 76.7765 190.852C80.3024 185.286 74.0684 175.04 83.4321 176.627Z" fill="#F9AEAC"/>
<path d="M62.3645 171.732C62.8608 170.821 63.94 169.875 66.2746 169.739C68.9534 158.611 83.213 156.441 88.4665 161.147C88.5852 166.377 88.2677 177.391 83.4305 176.627C74.0668 175.04 80.3008 185.286 76.7749 190.853C76.6175 190.839 76.4681 190.821 76.332 190.801C73.0022 191.7 71.1372 187.609 69.6017 185.358C60.749 192.012 54.0934 177.258 60.0072 174.078C60.9998 173.545 61.8255 172.724 62.3645 171.732Z" fill="black"/>
<path d="M319.572 174.804L373.237 126.758C376.144 124.156 380.546 124.165 383.441 126.779L437.124 175.247L411.144 190.724L361.737 191.167L319.572 174.804Z" fill="#FB9847"/>
<path d="M437.128 176.033V175.009H319.558V175.333L378.434 213.126L437.128 176.033Z" fill="#FB9847"/>
<path d="M426.142 131.737H331.827V227.324H426.142V131.737Z" fill="#E527BB"/>
<path d="M415.496 148.596H341.191C341.018 148.596 340.876 148.454 340.876 148.281V143.677C340.876 143.503 341.018 143.362 341.191 143.362H415.496C415.67 143.362 415.811 143.503 415.811 143.677V148.281C415.811 148.454 415.67 148.596 415.496 148.596Z" fill="white"/>
<path d="M415.496 157.319H341.191C341.018 157.319 340.876 157.177 340.876 157.004V152.4C340.876 152.226 341.018 152.085 341.191 152.085H415.496C415.67 152.085 415.811 152.226 415.811 152.4V157.004C415.811 157.177 415.67 157.319 415.496 157.319Z" fill="white"/>
<path d="M415.496 166.042H341.191C341.018 166.042 340.876 165.901 340.876 165.727V161.123C340.876 160.949 341.018 160.808 341.191 160.808H415.496C415.67 160.808 415.811 160.949 415.811 161.123V165.727C415.811 165.901 415.67 166.042 415.496 166.042Z" fill="white"/>
<path d="M435.77 249.929H437.129V176.033L378.435 213.126L435.77 249.929Z" fill="#FEC227"/>
<path d="M378.431 213.126L320.191 249.93H435.765L378.431 213.126Z" fill="#FB9847"/>
<path d="M319.558 175.333V249.929H320.194L378.434 213.126L319.558 175.333Z" fill="#FEC227"/>
<path d="M223.354 200.88L192.226 195.246C183.027 192.557 184.038 184.226 185.231 175.465C185.709 171.988 187.109 168.662 189.512 166.092C192.218 163.204 196.634 160.594 203.445 161.716L232.241 168.288C238.329 169.45 242.641 176.587 241.503 184.266C239.069 195.103 234.04 202.233 223.354 200.88Z" fill="#E527BB"/>
<path d="M189.683 193.743L188.633 202.567L200.322 195.947L189.683 193.743Z" fill="#E527BB"/>
<path d="M192.314 189.115L197.838 167.055L230.433 175.267L224.909 197.326L192.314 189.115ZM224.25 195.07L228.867 176.63L215.976 181.19L224.25 195.07ZM227.659 175.801L200.032 168.841L211.549 181.501L227.659 175.801ZM198.569 169L193.928 187.528L207.829 179.181L198.569 169ZM194.659 188.485L223.232 195.684L214.831 181.605L211.199 182.888L208.648 180.082L194.659 188.485Z" fill="white"/>
<path d="M400.811 93.6574L400.662 98.7912L405.471 98.9316C405.681 100.151 406.094 101.345 406.691 102.468L403.277 105.689L406.805 109.427L410.069 106.347C411.351 107.277 412.772 107.918 414.264 108.26L414.124 113.069L419.257 113.218L419.398 108.26C420.407 108.032 421.39 107.672 422.329 107.163L425.55 110.577L429.288 107.049L426.208 103.785C427.138 102.503 427.779 101.082 428.121 99.5898L432.324 99.7127L432.474 94.5789L428.121 94.456C427.831 93.166 427.322 91.9198 426.585 90.7702L429.85 87.69L426.322 83.9515L422.908 87.1722C421.644 86.3999 420.267 85.8822 418.845 85.6364L418.985 80.7923L413.852 80.6431L413.702 85.8909C412.632 86.1981 411.596 86.6544 410.622 87.2775L407.542 84.0129L403.803 87.5408L407.024 90.9457C406.471 91.8496 406.05 92.8062 405.76 93.8066L400.811 93.6574ZM413.641 93.5697C415.528 91.7882 418.512 91.876 420.302 93.7627C422.083 95.6495 421.995 98.6333 420.109 100.423C418.222 102.205 415.238 102.117 413.448 100.23C411.666 98.3349 411.745 95.3511 413.641 93.5697Z" fill="#A78BEF"/>
<path d="M417.67 104.416C421.821 103.969 424.831 100.239 424.384 96.0881C423.936 91.9372 420.206 88.9271 416.056 89.3747C411.905 89.8222 408.895 93.5519 409.342 97.7028C409.781 101.854 413.511 104.864 417.67 104.416ZM413.642 93.5694C415.529 91.788 418.513 91.8757 420.303 93.7625C422.084 95.6493 421.997 98.633 420.11 100.423C418.223 102.205 415.239 102.117 413.449 100.23C411.668 98.3347 411.747 95.3509 413.642 93.5694Z" fill="#714BD1"/>
<path d="M434.604 95.8425L434.517 98.8262L437.307 98.9052C437.43 99.616 437.667 100.309 438.018 100.959L436.035 102.828L438.08 104.996L439.975 103.205C440.721 103.741 441.546 104.118 442.415 104.311L442.336 107.102L445.32 107.189L445.399 104.311C445.987 104.179 446.557 103.969 447.101 103.679L448.97 105.662L451.138 103.618L449.348 101.722C449.883 100.976 450.26 100.151 450.453 99.2826L452.893 99.3528L452.981 96.369L450.453 96.2988C450.287 95.5529 449.988 94.8245 449.558 94.1576L451.454 92.3673L449.409 90.1997L447.426 92.0689C446.697 91.6214 445.89 91.323 445.065 91.1738L445.144 88.3656L442.16 88.2778L442.073 91.323C441.45 91.4985 440.844 91.7706 440.282 92.1304L438.492 90.2348L436.325 92.2796L438.194 94.2629C437.869 94.7894 437.632 95.3423 437.465 95.9215L434.604 95.8425ZM442.055 95.7986C443.152 94.7631 444.89 94.8157 445.916 95.9127C446.952 97.0097 446.899 98.7472 445.802 99.7828C444.705 100.818 442.968 100.766 441.932 99.6687C440.905 98.563 440.958 96.8254 442.055 95.7986Z" fill="#A78BEF"/>
<path d="M444.396 102.091C446.81 101.828 448.556 99.669 448.293 97.2557C448.03 94.8424 445.871 93.096 443.457 93.3593C441.044 93.6225 439.298 95.7814 439.561 98.1947C439.816 100.608 441.983 102.354 444.396 102.091ZM442.053 95.7989C443.15 94.7634 444.888 94.816 445.915 95.913C446.95 97.01 446.898 98.7475 445.801 99.7831C444.704 100.819 442.966 100.766 441.93 99.669C440.904 98.5633 440.956 96.8257 442.053 95.7989Z" fill="#714BD1"/>
<path d="M466.489 119.537H464.646C464.173 119.537 463.778 119.151 463.778 118.668C463.778 118.186 464.164 117.799 464.646 117.799H465.629V116.825C465.629 116.351 466.015 115.957 466.498 115.957C466.972 115.957 467.367 116.343 467.367 116.825V118.668C467.358 119.151 466.972 119.537 466.489 119.537Z" fill="#B4CAE3"/>
<path d="M461.15 119.537H457.438C456.964 119.537 456.569 119.151 456.569 118.668C456.569 118.186 456.955 117.8 457.438 117.8H461.15C461.624 117.8 462.019 118.186 462.019 118.668C462.019 119.151 461.633 119.537 461.15 119.537ZM453.936 119.537H450.224C449.751 119.537 449.356 119.151 449.356 118.668C449.356 118.186 449.742 117.808 450.224 117.808H453.936C454.41 117.808 454.805 118.194 454.805 118.677C454.805 119.16 454.419 119.537 453.936 119.537ZM446.723 119.537H443.011C442.537 119.537 442.142 119.151 442.142 118.668C442.142 118.186 442.528 117.8 443.011 117.8H446.723C447.197 117.8 447.592 118.186 447.592 118.668C447.592 119.151 447.206 119.537 446.723 119.537ZM439.509 119.537H435.797C435.323 119.537 434.928 119.151 434.928 118.668C434.928 118.186 435.314 117.8 435.797 117.8H439.509C439.983 117.8 440.378 118.186 440.378 118.668C440.378 119.151 439.992 119.537 439.509 119.537ZM432.296 119.537H428.584C428.11 119.537 427.715 119.151 427.715 118.668C427.715 118.186 428.101 117.8 428.584 117.8H432.296C432.77 117.8 433.164 118.186 433.164 118.668C433.164 119.151 432.778 119.537 432.296 119.537ZM425.082 119.537H421.37C420.896 119.537 420.501 119.151 420.501 118.668C420.501 118.186 420.887 117.8 421.37 117.8H425.082C425.556 117.8 425.951 118.186 425.951 118.668C425.951 119.151 425.565 119.537 425.082 119.537ZM417.868 119.537H414.156C413.682 119.537 413.287 119.151 413.287 118.668C413.287 118.186 413.674 117.808 414.156 117.808H417.868C418.342 117.808 418.737 118.194 418.737 118.677C418.737 119.16 418.351 119.537 417.868 119.537ZM410.655 119.537H406.943C406.469 119.537 406.074 119.151 406.074 118.668C406.074 118.186 406.46 117.8 406.943 117.8H410.655C411.129 117.8 411.524 118.186 411.524 118.668C411.524 119.151 411.129 119.537 410.655 119.537ZM403.441 119.537H399.729C399.255 119.537 398.86 119.151 398.86 118.668C398.86 118.186 399.246 117.8 399.729 117.8H403.441C403.915 117.8 404.31 118.186 404.31 118.668C404.31 119.151 403.915 119.537 403.441 119.537ZM396.228 119.537H392.515C392.042 119.537 391.647 119.151 391.647 118.668C391.647 118.186 392.033 117.8 392.515 117.8H396.228C396.701 117.8 397.096 118.186 397.096 118.668C397.096 119.151 396.701 119.537 396.228 119.537Z" fill="#B4CAE3"/>
<path d="M389.016 119.537H387.173C386.699 119.537 386.304 119.151 386.304 118.668V116.825C386.304 116.351 386.69 115.957 387.173 115.957C387.656 115.957 388.042 116.343 388.042 116.825V117.808H389.016C389.49 117.808 389.885 118.194 389.885 118.677C389.885 119.16 389.49 119.537 389.016 119.537Z" fill="#B4CAE3"/>
<path d="M387.173 114.158C386.699 114.158 386.304 113.771 386.304 113.289V109.524C386.304 109.05 386.69 108.655 387.173 108.655C387.656 108.655 388.042 109.041 388.042 109.524V113.289C388.042 113.763 387.656 114.158 387.173 114.158ZM387.173 106.839C386.699 106.839 386.304 106.452 386.304 105.97V102.205C386.304 101.731 386.69 101.336 387.173 101.336C387.656 101.336 388.042 101.722 388.042 102.205V105.97C388.042 106.452 387.656 106.839 387.173 106.839ZM387.173 99.5284C386.699 99.5284 386.304 99.1423 386.304 98.6596V94.8949C386.304 94.421 386.69 94.0261 387.173 94.0261C387.656 94.0261 388.042 94.4122 388.042 94.8949V98.6596C388.042 99.1335 387.656 99.5284 387.173 99.5284ZM387.173 92.2095C386.699 92.2095 386.304 91.8234 386.304 91.3407V87.5759C386.304 87.102 386.69 86.7071 387.173 86.7071C387.656 86.7071 388.042 87.0933 388.042 87.5759V91.3407C388.042 91.8234 387.656 92.2095 387.173 92.2095ZM387.173 84.8993C386.699 84.8993 386.304 84.5132 386.304 84.0305V80.2658C386.304 79.7919 386.69 79.397 387.173 79.397C387.656 79.397 388.042 79.7831 388.042 80.2658V84.0305C388.042 84.5132 387.656 84.8993 387.173 84.8993Z" fill="#B4CAE3"/>
<path d="M387.173 77.5805C386.699 77.5805 386.304 77.1944 386.304 76.7117V74.8688C386.304 74.3949 386.69 74 387.173 74H389.016C389.49 74 389.885 74.3861 389.885 74.8688C389.885 75.3515 389.499 75.7376 389.016 75.7376H388.042V76.7117C388.042 77.1944 387.656 77.5805 387.173 77.5805Z" fill="#B4CAE3"/>
<path d="M461.15 75.7464H457.438C456.964 75.7464 456.569 75.3602 456.569 74.8776C456.569 74.3949 456.955 74.0088 457.438 74.0088H461.15C461.624 74.0088 462.019 74.3949 462.019 74.8776C462.019 75.3602 461.633 75.7464 461.15 75.7464ZM453.936 75.7464H450.224C449.751 75.7464 449.356 75.3602 449.356 74.8776C449.356 74.3949 449.742 74.0088 450.224 74.0088H453.936C454.41 74.0088 454.805 74.3949 454.805 74.8776C454.805 75.3602 454.419 75.7464 453.936 75.7464ZM446.723 75.7464H443.011C442.537 75.7464 442.142 75.3602 442.142 74.8776C442.142 74.3949 442.528 74.0088 443.011 74.0088H446.723C447.197 74.0088 447.592 74.3949 447.592 74.8776C447.592 75.3602 447.206 75.7464 446.723 75.7464ZM439.509 75.7464H435.797C435.323 75.7464 434.928 75.3602 434.928 74.8776C434.928 74.3949 435.314 74.0088 435.797 74.0088H439.509C439.983 74.0088 440.378 74.3949 440.378 74.8776C440.378 75.3602 439.992 75.7464 439.509 75.7464ZM432.296 75.7464H428.584C428.11 75.7464 427.715 75.3602 427.715 74.8776C427.715 74.3949 428.101 74.0088 428.584 74.0088H432.296C432.77 74.0088 433.164 74.3949 433.164 74.8776C433.164 75.3602 432.778 75.7464 432.296 75.7464ZM425.082 75.7464H421.37C420.896 75.7464 420.501 75.3602 420.501 74.8776C420.501 74.3949 420.887 74.0088 421.37 74.0088H425.082C425.556 74.0088 425.951 74.3949 425.951 74.8776C425.951 75.3602 425.565 75.7464 425.082 75.7464ZM417.868 75.7464H414.156C413.682 75.7464 413.287 75.3602 413.287 74.8776C413.287 74.3949 413.674 74.0088 414.156 74.0088H417.868C418.342 74.0088 418.737 74.3949 418.737 74.8776C418.737 75.3602 418.351 75.7464 417.868 75.7464ZM410.655 75.7464H406.943C406.469 75.7464 406.074 75.3602 406.074 74.8776C406.074 74.3949 406.46 74.0088 406.943 74.0088H410.655C411.129 74.0088 411.524 74.3949 411.524 74.8776C411.524 75.3602 411.129 75.7464 410.655 75.7464ZM403.441 75.7464H399.729C399.255 75.7464 398.86 75.3602 398.86 74.8776C398.86 74.3949 399.246 74.0088 399.729 74.0088H403.441C403.915 74.0088 404.31 74.3949 404.31 74.8776C404.31 75.3602 403.915 75.7464 403.441 75.7464ZM396.228 75.7464H392.515C392.042 75.7464 391.647 75.3602 391.647 74.8776C391.647 74.3949 392.033 74.0088 392.515 74.0088H396.228C396.701 74.0088 397.096 74.3949 397.096 74.8776C397.096 75.3602 396.701 75.7464 396.228 75.7464Z" fill="#B4CAE3"/>
<path d="M466.489 77.5805C466.016 77.5805 465.621 77.1944 465.621 76.7117V75.7376H464.646C464.173 75.7376 463.778 75.3515 463.778 74.8688C463.778 74.3861 464.164 74 464.646 74H466.489C466.963 74 467.358 74.3861 467.358 74.8688V76.7117C467.358 77.1944 466.972 77.5805 466.489 77.5805Z" fill="#B4CAE3"/>
<path d="M466.49 114.158C466.016 114.158 465.621 113.771 465.621 113.289V109.524C465.621 109.05 466.008 108.655 466.49 108.655C466.964 108.655 467.359 109.041 467.359 109.524V113.289C467.359 113.763 466.973 114.158 466.49 114.158ZM466.49 106.839C466.016 106.839 465.621 106.452 465.621 105.97V102.205C465.621 101.731 466.008 101.336 466.49 101.336C466.964 101.336 467.359 101.722 467.359 102.205V105.97C467.359 106.452 466.973 106.839 466.49 106.839ZM466.49 99.5284C466.016 99.5284 465.621 99.1423 465.621 98.6596V94.8949C465.621 94.421 466.008 94.0261 466.49 94.0261C466.964 94.0261 467.359 94.4122 467.359 94.8949V98.6596C467.359 99.1335 466.973 99.5284 466.49 99.5284ZM466.49 92.2095C466.016 92.2095 465.621 91.8234 465.621 91.3407V87.5759C465.621 87.102 466.008 86.7071 466.49 86.7071C466.964 86.7071 467.359 87.0933 467.359 87.5759V91.3407C467.359 91.8234 466.973 92.2095 466.49 92.2095ZM466.49 84.8993C466.016 84.8993 465.621 84.5132 465.621 84.0305V80.2658C465.621 79.7919 466.008 79.397 466.49 79.397C466.964 79.397 467.359 79.7831 467.359 80.2658V84.0305C467.359 84.5132 466.973 84.8993 466.49 84.8993Z" fill="#B4CAE3"/>
<path d="M362.696 131.402C362.222 131.402 361.827 131.016 361.827 130.533V126.856C361.827 126.382 362.213 125.987 362.696 125.987C363.17 125.987 363.565 126.373 363.565 126.856V130.533C363.565 131.016 363.17 131.402 362.696 131.402ZM362.696 124.258C362.222 124.258 361.827 123.872 361.827 123.389V119.712C361.827 119.239 362.213 118.844 362.696 118.844C363.17 118.844 363.565 119.23 363.565 119.712V123.389C363.565 123.872 363.17 124.258 362.696 124.258ZM362.696 117.115C362.222 117.115 361.827 116.729 361.827 116.246V112.569C361.827 112.095 362.213 111.7 362.696 111.7C363.17 111.7 363.565 112.086 363.565 112.569V116.246C363.565 116.729 363.17 117.115 362.696 117.115ZM362.696 109.971C362.222 109.971 361.827 109.585 361.827 109.103V105.426C361.827 104.952 362.213 104.557 362.696 104.557C363.17 104.557 363.565 104.943 363.565 105.426V109.103C363.565 109.585 363.17 109.971 362.696 109.971ZM362.696 102.828C362.222 102.828 361.827 102.442 361.827 101.959V98.2822C361.827 97.8083 362.213 97.4134 362.696 97.4134C363.17 97.4134 363.565 97.7995 363.565 98.2822V101.959C363.565 102.442 363.17 102.828 362.696 102.828ZM387.171 98.0804H386.522C386.048 98.0804 385.653 97.6942 385.653 97.2116C385.653 96.7289 386.039 96.3428 386.522 96.3428H387.171C387.645 96.3428 388.04 96.7289 388.04 97.2116C388.04 97.6942 387.654 98.0804 387.171 98.0804ZM383.055 98.0804H379.378C378.905 98.0804 378.51 97.6942 378.51 97.2116C378.51 96.7289 378.896 96.3428 379.378 96.3428H383.055C383.529 96.3428 383.924 96.7289 383.924 97.2116C383.924 97.6942 383.538 98.0804 383.055 98.0804ZM375.912 98.0804H372.235C371.761 98.0804 371.366 97.6942 371.366 97.2116C371.366 96.7289 371.752 96.3428 372.235 96.3428H375.912C376.386 96.3428 376.781 96.7289 376.781 97.2116C376.781 97.6942 376.395 98.0804 375.912 98.0804ZM368.769 98.0804H365.092C364.618 98.0804 364.223 97.6942 364.223 97.2116C364.223 96.7289 364.609 96.3428 365.092 96.3428H368.769C369.242 96.3428 369.637 96.7289 369.637 97.2116C369.637 97.6942 369.251 98.0804 368.769 98.0804Z" fill="#B4CAE3"/>
<path d="M342.58 115.825H271.655C266.846 115.825 262.95 111.929 262.95 107.12V105.373C262.95 100.564 266.846 96.6677 271.655 96.6677H342.58C347.389 96.6677 351.286 100.564 351.286 105.373V107.12C351.286 111.929 347.389 115.825 342.58 115.825Z" fill="#E527BB"/>
<path d="M341.842 100.555C338.7 100.555 336.146 103.109 336.146 106.251C336.146 109.392 338.7 111.946 341.842 111.946C344.983 111.946 347.537 109.392 347.537 106.251C347.537 103.109 344.983 100.555 341.842 100.555ZM342.07 108.348V106.356H344.641C344.624 107.058 344.527 107.734 344.334 108.348H342.07ZM343.685 110.621C344.106 110.094 344.439 109.48 344.676 108.804H346.414C345.685 110.112 344.448 111.025 343.009 111.349C343.246 111.13 343.474 110.884 343.685 110.621ZM344.185 108.804C343.974 109.366 343.685 109.875 343.334 110.323C342.789 111.016 342.245 111.376 342.07 111.472V108.804H344.185ZM342.07 103.442V101.012C342.14 101.012 342.201 101.02 342.272 101.02C342.552 101.266 343.448 102.091 344.053 103.434H342.07V103.442ZM344.562 103.442C344.36 102.951 344.097 102.486 343.799 102.047C343.579 101.731 343.334 101.433 343.079 101.161C344.387 101.477 345.536 102.302 346.265 103.451H344.562V103.442ZM342.07 105.891V103.899H344.246C344.483 104.539 344.615 105.215 344.641 105.891H342.07ZM345.097 105.891C345.071 105.215 344.948 104.539 344.729 103.899H346.519C346.835 104.522 347.019 105.198 347.063 105.891H345.097ZM347.081 106.347C347.063 107.04 346.923 107.707 346.642 108.339H344.825C345.001 107.716 345.097 107.049 345.106 106.347H347.081ZM338.919 108.348H337.05C336.769 107.716 336.629 107.049 336.611 106.356H338.639C338.656 107.049 338.744 107.725 338.919 108.348ZM339.674 103.442C339.85 103.047 340.06 102.67 340.315 102.319C340.797 101.626 341.271 101.196 341.473 101.029C341.517 101.029 341.57 101.02 341.622 101.02V103.451H339.674V103.442ZM341.613 103.899V105.891H339.095C339.121 105.215 339.253 104.539 339.49 103.899H341.613ZM337.427 103.442C338.173 102.275 339.341 101.442 340.683 101.143C340.42 101.424 340.174 101.722 339.946 102.047C339.639 102.486 339.384 102.96 339.183 103.442H337.427ZM341.613 106.347V108.339H339.393C339.209 107.725 339.104 107.049 339.086 106.347H341.613ZM336.62 105.891C336.664 105.189 336.848 104.522 337.164 103.899H339.007C338.788 104.548 338.665 105.215 338.639 105.891H336.62ZM339.069 108.804C339.305 109.48 339.639 110.086 340.06 110.621C340.28 110.893 340.508 111.147 340.762 111.367C339.305 111.06 338.024 110.112 337.287 108.804H339.069ZM341.613 108.804V111.446C341.271 111.226 340.183 110.445 339.551 108.804H341.613Z" fill="white"/>
<path d="M327.45 100.775C330.434 100.775 332.865 103.206 332.865 106.189C332.865 109.173 330.434 111.604 327.45 111.604H272.734C269.75 111.604 267.319 109.173 267.319 106.189C267.319 103.206 269.75 100.775 272.734 100.775H327.45ZM327.45 100.213H272.734C269.443 100.213 266.758 102.89 266.758 106.189C266.758 109.48 269.434 112.166 272.734 112.166H327.45C330.741 112.166 333.427 109.489 333.427 106.189C333.427 102.89 330.75 100.213 327.45 100.213Z" fill="white"/>
<path d="M74.0648 142.284L149.367 142.664C151.898 142.678 153.973 140.66 154.029 138.121L154.205 130.323C154.275 127.173 151.744 124.578 148.587 124.571L73.7976 124.452C71.7444 124.452 70.0919 126.125 70.1201 128.178L70.2677 138.515C70.2888 140.596 71.9834 142.277 74.0648 142.284Z" fill="#A78BEF"/>
<path d="M81.8267 141.672C81.8267 141.672 75.5685 149.203 75.5474 149.112C75.5263 149.027 75.0762 141.764 75.0762 141.764L81.8267 141.672Z" fill="#A78BEF"/>
<path d="M77.5552 130.991C77.281 131.764 77.949 132.566 78.7717 132.573L79.6718 132.58L147.956 132.798C148.519 132.798 148.99 132.362 149.032 131.8C149.074 131.181 148.589 130.653 147.97 130.653L79.9249 130.07C78.3498 130.056 77.7591 130.4 77.5552 130.991Z" fill="#EFEFF1"/>
<path d="M148.982 136.511C148.989 137.088 148.532 137.559 147.97 137.552L119.674 137.158C119.154 137.151 118.725 136.715 118.725 136.173C118.718 135.618 119.161 135.168 119.695 135.175L147.991 135.498C148.539 135.491 148.975 135.948 148.982 136.511Z" fill="#EFEFF1"/>
<path d="M263.162 168.602C271.948 168.602 279.071 161.48 279.071 152.693C279.071 143.907 271.948 136.784 263.162 136.784C254.376 136.784 247.253 143.907 247.253 152.693C247.253 161.48 254.376 168.602 263.162 168.602Z" fill="#E527BB"/>
<path d="M271.973 151.112C272.04 152.211 271.928 153.22 271.637 154.151C271.345 155.081 270.897 155.821 270.291 156.382C269.686 156.942 268.957 157.245 268.116 157.301C267.556 157.335 267.051 157.234 266.592 156.987C266.132 156.74 265.807 156.404 265.594 155.978L265.414 155.989C264.652 157.021 263.643 157.581 262.376 157.66C261.031 157.75 259.943 157.402 259.114 156.651C258.284 155.888 257.824 154.812 257.746 153.399C257.645 151.796 258.071 150.473 259.024 149.431C259.977 148.388 261.277 147.816 262.926 147.704C263.576 147.659 264.305 147.682 265.101 147.76C265.897 147.839 266.547 147.939 267.074 148.085L267.163 153.68C267.231 154.734 267.556 155.249 268.128 155.205C268.61 155.171 268.98 154.79 269.226 154.061C269.473 153.332 269.552 152.39 269.484 151.247C269.406 150.025 269.081 148.96 268.52 148.052C267.948 147.143 267.186 146.471 266.233 146.034C265.28 145.596 264.204 145.417 263.026 145.495C261.49 145.596 260.179 145.989 259.08 146.695C257.992 147.401 257.174 148.366 256.647 149.588C256.12 150.821 255.907 152.211 255.997 153.769C256.131 155.866 256.793 157.447 257.981 158.489C259.17 159.543 260.829 160.003 262.959 159.868C263.766 159.812 264.641 159.678 265.594 159.431C266.547 159.196 267.477 158.871 268.397 158.467L268.531 160.653C266.95 161.449 265.168 161.909 263.183 162.032C260.291 162.212 257.992 161.595 256.288 160.182C254.573 158.77 253.631 156.707 253.463 153.994C253.34 152.121 253.654 150.384 254.382 148.803C255.111 147.222 256.21 145.944 257.679 144.98C259.147 144.015 260.874 143.466 262.858 143.343C264.529 143.242 266.042 143.489 267.399 144.083C268.755 144.688 269.832 145.596 270.628 146.807C271.424 148.029 271.872 149.464 271.973 151.112ZM260.392 153.276C260.493 154.879 261.199 155.642 262.499 155.563C263.183 155.518 263.688 155.249 264.013 154.745C264.338 154.24 264.506 153.444 264.518 152.346L264.506 149.812C264.114 149.756 263.677 149.733 263.183 149.767C262.23 149.823 261.513 150.171 261.02 150.798C260.537 151.426 260.324 152.256 260.392 153.276Z" fill="white"/>
</g>
<defs>
<clipPath id="clip0_1165_8405">
<rect width="542.64" height="328.79" fill="white"/>
</clipPath>
</defs>
</svg>
