<svg width="543" height="329" viewBox="0 0 543 329" fill="none" xmlns="http://www.w3.org/2000/svg">
<g clip-path="url(#clip0_1165_9185)">
<path opacity="0.2" d="M78.8274 333.341C41.5074 295.411 -9.50263 256.241 10.4974 197.071C23.6574 158.151 55.9074 147.311 82.7274 123.311C95.9574 111.471 87.6374 94.2309 87.3874 77.1209C86.8274 33.3009 139.207 -0.699081 187.367 0.0109192C239.527 0.780919 262.107 49.7309 305.867 52.3609C323.047 52.6109 338.437 43.1909 353.637 35.7209C398.677 13.5609 470.157 27.6909 473.767 81.2709C474.697 110.211 439.417 156.761 474.767 171.981C502.937 184.111 531.397 188.581 536.477 231.961C543.127 288.741 507.987 319.901 462.217 334.521L78.8274 333.341Z" fill="#999999"/>
<path d="M36.6748 269.78V36.2425C36.6748 32.2603 39.9024 29.0349 43.8817 29.0349H480.868C484.85 29.0349 488.075 32.2628 488.075 36.2425V269.78C488.075 273.762 484.847 276.988 480.868 276.988H43.8817C39.9024 276.988 36.6748 273.76 36.6748 269.78Z" stroke="white" stroke-width="1.9353" stroke-miterlimit="10"/>
<path d="M473.311 269.503H51.4415C47.4597 269.503 44.2346 266.275 44.2346 262.296V43.7269C44.2346 39.7447 47.4622 36.5193 51.4415 36.5193H473.313C477.295 36.5193 480.52 39.7472 480.52 43.7269V262.293C480.52 266.275 477.292 269.503 473.311 269.503Z" fill="white"/>
<path opacity="0.48" d="M376.008 47.7573C379.837 44.0037 383.674 40.2628 387.511 36.5193H279.893C259.215 55.3839 76.7951 237.293 49.0596 261.216C53.1201 266.265 59.3772 269.506 66.4038 269.506H153.024C178.133 251.279 349.661 73.5832 376.008 47.7573Z" fill="#F7F2FF" stroke="#F7F2FF" stroke-width="0.6203" stroke-miterlimit="10"/>
<path opacity="0.48" d="M259.161 268.79C262.399 265.582 265.632 262.369 268.859 259.149C294.756 233.308 456.911 62.7185 474.789 43.7472C470.733 39.3078 464.87 36.5193 458.351 36.5193H443.841C411.156 68.6486 257.112 225.211 210.905 269.503H258.636C258.757 269.257 258.933 269.016 259.161 268.79Z" fill="#F7F2FF" stroke="#F7F2FF" stroke-width="0.6203" stroke-miterlimit="10"/>
<path d="M44.2322 247.545C44.2322 259.672 54.1562 269.503 66.4013 269.503H458.351C470.594 269.503 480.52 259.672 480.52 247.545H44.2322Z" fill="#A78BEF"/>
<path d="M74.4665 56.0442C74.4665 53.9388 72.7422 52.2322 70.6167 52.2322C68.4912 52.2322 66.767 53.9388 66.767 56.0442C66.767 58.1496 68.4912 59.8563 70.6167 59.8563C72.7422 59.8563 74.4665 58.1496 74.4665 56.0442Z" fill="#E527BB"/>
<path d="M87.9406 56.0442C87.9406 53.9388 86.2164 52.2322 84.0909 52.2322C81.9654 52.2322 80.2411 53.9388 80.2411 56.0442C80.2411 58.1496 81.9654 59.8563 84.0909 59.8563C86.2164 59.8563 87.9406 58.1496 87.9406 56.0442Z" fill="#E527BB"/>
<path d="M101.415 56.0442C101.415 53.9388 99.6906 52.2322 97.5651 52.2322C95.4396 52.2322 93.7153 53.9388 93.7153 56.0442C93.7153 58.1496 95.4396 59.8563 97.5651 59.8563C99.6906 59.8563 101.415 58.1496 101.415 56.0442Z" fill="#E527BB"/>
<path d="M342.485 73.5527H70.4795V215.502H342.485V73.5527Z" fill="#A78BEF"/>
<path d="M68.2144 94.6243C71.1702 94.6243 343.196 94.6243 343.196 94.6243" stroke="white" stroke-width="1.2711" stroke-miterlimit="10"/>
<path d="M68.2144 111.381C71.1702 111.381 343.196 111.381 343.196 111.381" stroke="white" stroke-width="1.2711" stroke-miterlimit="10"/>
<path d="M68.2144 128.138C71.1702 128.138 343.196 128.138 343.196 128.138" stroke="white" stroke-width="1.2711" stroke-miterlimit="10"/>
<path d="M68.2144 144.895C71.1702 144.895 343.196 144.895 343.196 144.895" stroke="white" stroke-width="1.2711" stroke-miterlimit="10"/>
<path d="M68.2144 161.651C71.1702 161.651 343.196 161.651 343.196 161.651" stroke="white" stroke-width="1.2711" stroke-miterlimit="10"/>
<path d="M68.2144 178.408C71.1702 178.408 343.196 178.408 343.196 178.408" stroke="white" stroke-width="1.2711" stroke-miterlimit="10"/>
<path d="M68.2144 195.165C71.1702 195.165 343.196 195.165 343.196 195.165" stroke="white" stroke-width="1.2711" stroke-miterlimit="10"/>
<path d="M127.078 153.672H92.2476V215.502H127.078V153.672Z" fill="#D81EB5"/>
<path d="M127.081 153.672H96.011V215.502H127.081V153.672Z" fill="#E527BB"/>
<path d="M176.211 140.884H141.38V215.502H176.211V140.884Z" fill="#D81EB5"/>
<path d="M176.211 140.884H144.532V215.502H176.211V140.884Z" fill="#E527BB"/>
<path d="M221.847 126.871H187.016V215.502H221.847V126.871Z" fill="#D81EB5"/>
<path d="M221.847 126.871H190.384V215.502H221.847V126.871Z" fill="#E527BB"/>
<path d="M267.483 137.695H232.652V215.502H267.483V137.695Z" fill="#D81EB5"/>
<path d="M267.483 137.695H236.324V215.502H267.483V137.695Z" fill="#E527BB"/>
<path d="M314.338 94.9875H279.507V215.502H314.338V94.9875Z" fill="#D81EB5"/>
<path d="M314.338 94.9875H283.943V215.502H314.338V94.9875Z" fill="#E527BB"/>
<path d="M298.657 65.7812V94.7385" stroke="#231F20" stroke-width="1.0983" stroke-miterlimit="10"/>
<path d="M285.599 77.1362H298.941V70.3223H285.599L288.154 73.7305L285.599 77.1362Z" fill="#E527BB"/>
<path opacity="0.37" d="M443.272 225.059H377.996V233.338H443.272V225.059Z" fill="#DCDCDC"/>
<path opacity="0.37" d="M443.272 205.443H377.996V213.722H443.272V205.443Z" fill="#DCDCDC"/>
<path d="M259.581 104.646C269.651 94.5757 269.651 78.248 259.581 68.1773C249.511 58.1067 233.185 58.1067 223.115 68.1773C213.046 78.248 213.046 94.5757 223.115 104.646C233.185 114.717 249.511 114.717 259.581 104.646Z" fill="#E527BB"/>
<path d="M218.518 98.5581L242.467 79.6579L239.636 75.7087L254.037 78.0935L254.1 93.0648L250.499 88.5442L225.293 108.437C225.293 108.435 218.597 102.05 218.518 98.5581Z" fill="white"/>
<path d="M44.2169 308.142L49.669 302.773L42.9573 293.402L37.6397 297.582L34.854 305.94L44.2169 308.142Z" fill="#FFBBB5"/>
<path d="M38.526 296.696C38.526 296.696 27.9747 301.145 28.5232 302.268L43.2138 327.723C43.2138 327.723 46.7334 323.288 44.6943 317.914C41.614 309.803 45.3825 308.406 45.3825 308.406L35.8698 305.308L38.526 296.696Z" fill="#A78BEF"/>
<path d="M71.2464 254.778C71.8432 255.949 40.3417 293.318 40.3417 293.318C43.0843 298.214 47.1169 305.158 47.1169 305.158C47.188 305.297 47.3378 305.384 47.4952 305.376C47.4952 305.376 81.6708 281.023 93.4969 261.148C93.6188 260.945 93.7356 260.708 93.8498 260.447C96.2293 254.961 92.7249 248.691 86.8563 247.548L59.2528 245.699" fill="#020F2B"/>
<path d="M73.2526 214.326C73.2526 214.326 62.5337 217.514 66.5917 223.67C69.0931 227.464 74.4589 245.077 79.9389 254.087C83.4154 259.802 82.2905 267.182 77.2751 271.604L45.4891 301.506" stroke="white" stroke-width="0.3196" stroke-miterlimit="10"/>
<path d="M81.2822 318.209L80.6956 310.625L69.2149 311.662L68.8467 318.526L74.6391 325.165L81.2822 318.209Z" fill="#FFBBB5"/>
<path d="M68.5318 317.312C68.5318 317.312 67.0183 328.665 68.2652 328.761L97.6514 329C97.6514 329 95.6122 323.718 89.9468 322.752C81.394 321.297 82.0999 317.338 82.0999 317.338L74.6061 323.969L68.5318 317.312Z" fill="#A78BEF"/>
<path d="M21.0903 248.762C21.0903 260.299 30.3516 269.65 41.7765 269.65H64.3012C65.6166 269.65 66.5739 270.908 66.2362 272.193L68.062 313.968C67.9935 314.224 68.1865 314.476 68.448 314.476H76.2796C76.4371 314.476 81.0334 314.821 81.0969 314.674L87.1991 261.257C89.5329 255.967 85.7669 249.986 80.0329 249.879L21.0903 248.762Z" fill="#231F20"/>
<path d="M34.1658 249.364C34.1658 249.364 32.1292 261.988 43.94 261.582C50.5044 261.356 61.0913 261.506 69.2047 261.686C74.9692 261.813 79.0552 267.362 77.4706 272.906L74.5198 314.15" stroke="white" stroke-width="0.3196" stroke-miterlimit="10"/>
<path d="M99.1827 204.749L105.343 195.208L100.557 190.187C100.557 190.187 102.773 183.881 102.542 182.832C102.035 180.541 91.0794 198.923 91.0794 198.923L83.098 206.852L92.6615 216.158L99.1827 204.749Z" fill="#FFBBB5"/>
<path d="M95.6098 192.13C96.2954 192.465 96.9836 192.8 97.6692 193.136C97.974 193.286 98.3015 193.415 98.5885 193.598C98.9466 193.826 99.0278 194.233 98.6977 194.538C98.4463 194.771 98.0705 194.832 97.7479 194.898C97.3416 194.982 96.9303 195.043 96.5189 195.086C95.7672 195.162 95.0104 195.165 94.2588 195.106C94.1496 195.099 94.1496 195.269 94.2588 195.279C95.1628 195.35 96.0694 195.327 96.9683 195.206C97.3772 195.15 97.7937 195.084 98.1923 194.974C98.492 194.891 98.7967 194.756 98.9694 194.482C99.1192 194.243 99.1421 193.946 98.9745 193.71C98.7891 193.448 98.4514 193.324 98.1746 193.186C97.3518 192.785 96.5265 192.381 95.7037 191.98C95.5971 191.934 95.5107 192.082 95.6098 192.13Z" fill="#EA6B65"/>
<path d="M100.336 190.355C99.688 191.208 99.1268 192.122 98.6545 193.082C98.6062 193.181 98.7535 193.268 98.8043 193.169C99.2741 192.206 99.8378 191.292 100.485 190.441C100.551 190.352 100.402 190.266 100.336 190.355Z" fill="#EA6B65"/>
<path d="M98.0907 194.974C97.9968 195.398 98.3472 195.759 98.7459 195.835C99.2538 195.932 99.7185 195.561 100.061 195.233C100.904 194.431 101.593 193.468 102.095 192.419C102.144 192.32 101.994 192.231 101.946 192.333C101.534 193.194 100.998 193.991 100.351 194.692C100.046 195.02 99.7109 195.396 99.2969 195.584C99.0582 195.69 98.7967 195.716 98.5631 195.589C98.3574 195.477 98.2025 195.261 98.2558 195.02C98.2812 194.913 98.1161 194.868 98.0907 194.974Z" fill="#EA6B65"/>
<path d="M99.1954 195.815C99.2462 196.173 99.3402 196.524 99.4798 196.859C99.584 197.11 99.7059 197.4 99.8989 197.601C100.308 198.027 100.92 197.623 101.28 197.329C101.763 196.935 102.116 196.412 102.471 195.909C102.923 195.272 103.373 194.632 103.825 193.994C103.888 193.903 103.738 193.816 103.675 193.908C103.307 194.428 102.941 194.949 102.573 195.47C102.235 195.947 101.915 196.445 101.516 196.874C101.207 197.207 100.407 197.959 99.9877 197.438C99.6221 196.986 99.4443 196.338 99.3656 195.772C99.3478 195.66 99.1802 195.708 99.1954 195.815Z" fill="#EA6B65"/>
<path d="M101.161 197.319C101.242 197.865 101.654 198.342 102.184 198.494C102.728 198.652 103.345 198.449 103.698 198.012C103.766 197.926 103.647 197.804 103.576 197.89C103.258 198.281 102.718 198.469 102.23 198.327C101.753 198.19 101.4 197.758 101.326 197.27C101.311 197.164 101.146 197.212 101.161 197.319Z" fill="#EA6B65"/>
<path d="M61.9548 247.809C61.9548 247.809 54.3009 195.038 52.3456 191.751C52.3456 191.751 56.8734 189.354 62.9121 202.052C68.9509 214.751 69.8041 218.428 69.8041 218.428L83.098 204.785L93.954 216.158L69.8041 247.556L62.7115 248.315" fill="#8E75EA"/>
<path d="M32.0658 188.366C32.0658 188.366 17.8399 192.902 16.0446 206.852C14.2492 220.803 22.4236 256.592 22.4236 256.592C22.4236 256.592 31.1186 252.901 34.7068 251.919C40.0116 250.463 43.9807 250.385 47.7619 250.319L63.4124 250.044L57.8739 202.733C57.0461 199.172 56.6017 194.057 53.3614 192.016L47.8889 188.706L37.0557 185.923L32.0658 188.366Z" fill="#A78BEF"/>
<path d="M63.8924 247.327C59.7658 239.07 27.1799 193.956 27.7437 190.38C23.4013 192.881 17.1898 197.946 16.0446 206.852C14.2492 220.803 22.4236 256.592 22.4236 256.592C22.4236 256.592 31.1186 252.901 34.7068 251.919C40.0116 250.463 43.9807 250.385 47.7619 250.319L65.5201 250.179C65.929 249.77 64.0955 247.733 63.8924 247.327Z" fill="#A78BEF"/>
<path d="M47.1703 236.32L59.8344 239.939C59.8344 239.939 71.983 243.558 75.3426 249.244L46.3958 248.47L47.1703 236.32Z" fill="#FFBBB5"/>
<path d="M32.9545 189.275C29.732 187.233 17.4488 194.06 14.785 207.203C12.083 221.293 16.8597 249.295 21.4662 250.982C26.0727 252.668 45.8776 250.537 45.8776 250.537C45.8776 250.537 46.8172 238.07 47.4292 234.253L31.662 233.735C31.6645 233.735 35.2451 214.474 32.9545 189.275Z" fill="#8E75EA"/>
<path d="M68.8518 248.193H42.9497V251.23H68.8518V248.193Z" fill="#000307"/>
<path d="M42.9497 248.193H59.875L58.5443 251.23H42.9497V248.193Z" fill="#E527BB"/>
<path d="M101.232 251.23H60.4058L70.2613 223.073H111.085L101.232 251.23Z" fill="#E527BB"/>
<path d="M88.1464 237.943C88.1464 236.528 86.9986 235.38 85.5841 235.38C84.1697 235.38 83.0219 236.528 83.0219 237.943C83.0219 239.357 84.1697 240.505 85.5841 240.505C87.0011 240.508 88.1464 239.36 88.1464 237.943Z" fill="white"/>
<path d="M38.7368 175.536L36.6595 185.397L40.4509 189.704C46.35 196.071 47.1702 191.858 48.2774 191.325L47.5181 179.757L42.0203 177.562L38.7368 175.536Z" fill="#FFBBB5"/>
<path d="M42.0203 177.565L47.5181 180.602C47.5181 180.602 48.1098 185.92 46.5049 186.091C45.1641 186.233 40.5398 181.928 41.0172 178.66" fill="#FA786B"/>
<path d="M38.6962 176.864C38.6962 176.864 37.9572 172.775 38.8867 173.92L41.3524 164.747C41.3524 164.747 42.899 166.52 44.4099 167.566C45.9209 168.61 49.4583 168.023 50.3928 167.612C51.3273 167.2 50.9413 162.934 50.9413 162.934C50.9413 162.934 54.8063 159.566 54.1867 158.357C53.5671 157.146 50.7128 159.604 50.7128 159.604C50.7128 159.604 53.7829 156.115 52.2389 155.137C49.1713 153.194 38.394 158.596 38.394 158.596C38.394 158.596 32.82 160.226 35.4864 163.358C35.4864 163.358 32.5203 178.598 38.1401 177.179" fill="#231F20"/>
<path d="M51.246 162.786C53.0896 176.633 52.5766 180.747 51.279 181.821C49.4151 183.365 46.0326 182.433 44.387 181.806C41.6876 180.78 39.7805 177.913 39.1888 177.059C38.8968 176.638 35.4914 177.341 35.951 174.103C36.2888 171.718 37.5585 172.48 38.2035 173.047C38.3914 173.212 38.686 173.133 38.7673 172.894C39.2447 171.482 40.7937 166.159 41.3067 164.455C41.5276 163.716 44.7679 163.83 45.0879 163.784C47.8838 163.378 50.3978 163.454 51.1139 162.888L51.246 162.786Z" fill="#FFBBB5"/>
<path d="M33.9906 186.949C33.9906 186.56 36.1872 182.296 36.1872 182.296L47.3023 191.861L46.7842 198.71L33.9906 186.949Z" fill="white"/>
<path d="M47.2997 191.861L48.0336 185.656L51.2206 190.741L50.0143 197.806L47.2997 191.861Z" fill="white"/>
<g opacity="0.88">
<path d="M393.834 156.668C389.764 145.342 395.49 132.79 406.786 128.483L399.739 110C378.1 118.248 367.244 142.482 375.492 164.122C375.304 163.622 384.375 160.143 393.834 156.668Z" fill="#E527BB"/>
<path d="M435.377 141.293C439.734 152.727 434 165.527 422.568 169.885L429.615 188.368C451.253 180.12 462.109 155.886 453.861 134.246L435.377 141.293Z" fill="#A78BEF"/>
<path d="M393.979 157.077C393.928 156.943 393.885 156.806 393.834 156.668C384.375 160.143 375.304 163.622 375.495 164.122C383.743 185.763 407.974 196.62 429.612 188.371L422.566 169.887C411.138 174.243 398.337 168.508 393.979 157.077Z" fill="#E527BB"/>
<path d="M435.377 141.293L453.859 134.246C445.611 112.605 421.38 101.748 399.741 109.997L406.788 128.481C418.218 124.125 431.019 129.86 435.377 141.293Z" fill="#E527BB"/>
<path d="M410.051 137.047C403.428 139.571 400.071 146.929 402.458 153.572C408.436 151.378 414.678 149.184 414.678 149.184L410.051 137.047Z" fill="#E527BB"/>
<path d="M419.305 161.321C426.006 158.766 429.369 151.261 426.814 144.557L414.678 149.184L419.305 161.321Z" fill="#E527BB"/>
<path d="M402.458 153.573C402.486 153.651 402.512 153.733 402.542 153.811C405.097 160.514 412.601 163.876 419.305 161.321L414.678 149.184C414.678 149.184 408.436 151.378 402.458 153.573Z" fill="#E527BB"/>
<path d="M410.051 137.047L414.678 149.184L426.814 144.557C424.259 137.855 416.755 134.492 410.051 137.047Z" fill="#E527BB"/>
</g>
<path d="M353.115 167.482L356.591 148.206C356.754 146.906 354.402 143.795 353.262 143.142C350.141 141.354 348.432 139.81 344.91 140.541C344.91 140.541 336.548 138.507 336.461 146.451C336.395 152.6 340.159 158.891 347.724 158.723" fill="#231F20"/>
<path d="M339.415 144.326C340.347 141.984 339.945 139.163 338.399 137.174C337.812 136.422 337.038 135.764 336.106 135.561C334.816 135.277 333.48 135.914 332.49 136.788C331.415 137.735 330.595 139.005 330.331 140.412C330.07 141.819 330.405 143.361 331.355 144.435C331.837 144.981 332.454 145.392 333.104 145.717C334.089 146.21 335.204 146.525 336.294 146.365C337.383 146.205 338.434 145.502 338.793 144.46" fill="#231F20"/>
<path d="M355.779 159.757C357.118 159.757 358.204 158.671 358.204 157.331C358.204 155.992 357.118 154.906 355.779 154.906C354.439 154.906 353.354 155.992 353.354 157.331C353.354 158.671 354.439 159.757 355.779 159.757Z" fill="#FCB042"/>
<path d="M345.654 152.724C345.545 152.859 343.991 152.836 343.818 152.836C343.094 152.834 341.423 152.679 341.187 154.573C340.948 156.488 342.772 157.565 343.869 157.623C344.186 157.641 344.918 157.705 345.131 157.938C345.791 158.657 345.093 164.234 345.601 166.187C346.723 170.507 344.339 168.47 344.339 168.47C344.339 168.47 359.819 184.981 355.545 168.458C355.545 168.458 354.651 158.2 354.705 158.147C355.588 157.263 359.016 156.884 356.861 149.573C354.862 142.799 349.895 143.282 348.63 143.505C347.566 143.696 351.02 146.012 345.654 152.724Z" fill="#FFBBB5"/>
<path d="M355.101 144.427C355.692 146.556 349.181 148.145 347.109 144.173C347.109 144.173 346.878 140.112 350.019 139.808C351.639 139.65 353.9 140.112 355.101 144.427Z" fill="#231F20"/>
<path d="M342.683 158.301C342.683 156.963 343.77 155.876 345.108 155.876C346.446 155.876 347.533 156.963 347.533 158.301C347.533 159.64 346.446 160.727 345.108 160.727C343.77 160.727 342.683 159.642 342.683 158.301Z" fill="#FCB042"/>
<path d="M352.934 307.423L354.11 315.766C354.11 315.766 355.994 321.3 357.744 319.156C359.494 317.015 361.226 315.883 361.226 315.883L361.8 307.21L352.934 307.423Z" fill="#FFB3AF"/>
<path d="M357.513 307.735L358.168 321.498C358.168 321.498 352.632 322.328 354.689 318.623L353.127 308.34L357.513 307.735Z" fill="#FF9199"/>
<path d="M361.8 315.842L368.786 321.506C369.144 321.772 368.887 322.219 368.377 322.222C368.377 322.222 353.275 322.135 353.252 321.914C353.117 320.546 353.752 315.748 353.999 314.501C354.034 314.323 355.616 320.403 355.898 319.837C356.274 319.085 360.621 316.147 360.941 315.862C361.16 315.669 361.561 315.664 361.8 315.842Z" fill="#A78BEF"/>
<path d="M324.224 307.423L321.055 315.766C321.055 315.766 319.17 321.3 317.421 319.156C315.671 317.015 313.939 315.883 313.939 315.883L315.359 307.21L324.224 307.423Z" fill="#FFB3AF"/>
<path d="M319.645 307.735L316.997 321.498C316.997 321.498 322.533 322.328 320.476 318.623L324.033 308.34L319.645 307.735Z" fill="#FF9199"/>
<path d="M313.363 315.842L306.377 321.506C306.019 321.772 306.275 322.219 306.786 322.222C306.786 322.222 321.888 322.135 321.91 321.914C322.045 320.546 321.91 314.661 321.748 314.661C321.159 314.661 320.45 320.246 319.264 319.834C318.469 319.56 314.541 316.144 314.221 315.86C314 315.669 313.601 315.664 313.363 315.842Z" fill="#A78BEF"/>
<path d="M338.737 197.153C335.534 202.817 333.841 206.964 331.999 214.164C329.864 222.514 311.92 297.13 310.912 312.32C313.543 312.954 324.529 313.866 326.192 313.775C331.481 298.618 346.192 244.394 348.46 234.844C348.808 233.377 351.076 233.699 350.9 235.197C349.613 246.103 349.232 293.887 348.747 312.561C350.126 313.264 363.402 312.761 364.997 312.561C366.729 293.859 372.092 219.82 358.206 196.866C351.855 195.99 345.174 196.96 338.737 197.153Z" fill="#231F20"/>
<path d="M356.022 197.11C356.022 197.11 362.572 213.252 362.572 233.006C362.572 252.762 361.358 304.071 361.358 304.071" stroke="#325081" stroke-width="0.3394" stroke-miterlimit="10"/>
<path d="M319.28 302.732L342.063 197.707" stroke="#325081" stroke-width="0.3394" stroke-miterlimit="10"/>
<path d="M358.448 197.351L330.316 220.635C330.316 220.635 334.402 205.585 339.046 196.866L358.448 197.351Z" fill="black"/>
<path d="M348.747 304.071L365.479 304.315" stroke="#325081" stroke-width="0.3394" stroke-miterlimit="10"/>
<path d="M312.367 302.859L329.8 302.842" stroke="#325081" stroke-width="0.3394" stroke-miterlimit="10"/>
<path d="M384.337 181.517C384.337 181.517 367.249 205.214 363.245 202.39C363.245 202.39 358.651 199.147 360.962 185.908C360.967 184.623 360.972 183.731 360.926 183.528C360.926 183.528 359.933 170.456 357.785 167.749C357.549 167.452 356.838 166.898 356.932 166.875C363.493 165.235 366.002 181.732 367.813 189.364C367.887 189.679 380.414 177.481 380.414 177.481C380.414 177.481 386.976 168.806 387.433 169.301C388.095 170.02 385.553 173.887 385.553 173.887C385.553 173.887 385.718 174.329 386.216 174.55C386.714 174.771 386.991 175.104 387.156 175.767C387.321 176.43 387.984 176.816 388.095 177.204C388.205 177.593 385.736 180.503 384.337 181.517Z" fill="#FFBBB5"/>
<path d="M380.635 177.428C380.635 177.428 381.96 173.669 382.514 173.781C383.067 173.893 385.497 174.941 385.442 175.881C385.386 176.821 383.286 176.046 383.286 176.046C383.286 176.046 383.672 178.146 382.623 178.423C381.574 178.698 380.635 177.428 380.635 177.428Z" fill="#FFBBB5"/>
<path d="M383.895 175.881C383.895 175.881 383.839 176.821 384.614 176.986C384.614 176.986 384.779 177.981 385.774 177.76C385.774 177.76 385.498 178.202 386.107 178.314C386.104 178.312 383.507 181.131 383.895 175.881Z" fill="#FF9199"/>
<path d="M383.397 174.055L384.152 174.401L384.898 174.766L385.272 174.949C385.396 175.008 385.523 175.071 385.64 175.16C385.754 175.246 385.868 175.355 385.919 175.515C385.972 175.675 385.904 175.863 385.79 175.968C385.558 176.173 385.282 176.26 385.002 176.318C384.723 176.371 384.441 176.379 384.164 176.374C384.03 176.376 383.872 176.346 383.794 176.409C383.72 176.468 383.789 176.635 383.801 176.765L383.921 177.588L383.913 177.59L383.758 176.775L383.72 176.572C383.707 176.506 383.702 176.422 383.761 176.374C383.882 176.285 384.032 176.326 384.167 176.318C384.444 176.318 384.721 176.308 384.992 176.252C385.259 176.194 385.531 176.097 385.734 175.912C385.833 175.82 385.886 175.675 385.845 175.543C385.807 175.411 385.706 175.31 385.599 175.226C385.49 175.14 385.368 175.076 385.244 175.015L384.875 174.825L383.4 174.068L383.397 174.055Z" fill="#FA786B"/>
<path d="M385.612 173.783C385.561 173.875 385.505 173.959 385.442 174.037C385.378 174.116 385.307 174.19 385.241 174.263C385.165 174.332 385.096 174.403 385.015 174.467C384.936 174.533 384.85 174.591 384.761 174.644L384.754 174.639C385.035 174.35 385.32 174.06 385.607 173.778L385.612 173.783Z" fill="#FA786B"/>
<path d="M386.734 175.178C386.648 175.295 386.562 175.411 386.468 175.526C386.371 175.635 386.275 175.744 386.173 175.851C385.97 176.061 385.746 176.252 385.518 176.435C385.282 176.608 385.048 176.78 384.784 176.92C384.649 176.986 384.5 177.039 384.342 177.029C384.19 177.016 384.035 176.945 383.959 176.816L383.966 176.811C384.053 176.928 384.202 176.981 384.345 176.983C384.489 176.986 384.629 176.93 384.753 176.861C385.002 176.717 385.239 176.544 385.467 176.366C385.927 176.013 386.348 175.612 386.727 175.173L386.734 175.178Z" fill="#FA786B"/>
<path d="M384.573 176.983C384.616 177.146 384.665 177.306 384.738 177.451C384.807 177.598 384.908 177.728 385.043 177.794C385.317 177.938 385.647 177.794 385.899 177.603C386.163 177.418 386.389 177.166 386.622 176.93C386.854 176.689 387.087 176.45 387.316 176.206L387.323 176.211C387.115 176.473 386.897 176.727 386.671 176.976C386.445 177.222 386.219 177.474 385.947 177.672C385.81 177.768 385.663 177.855 385.5 177.9C385.338 177.946 385.155 177.938 385.007 177.852C384.858 177.768 384.759 177.621 384.695 177.466C384.629 177.311 384.593 177.146 384.563 176.981L384.573 176.983Z" fill="#FA786B"/>
<path d="M385.724 177.593C385.746 177.796 385.828 177.987 385.911 178.164C385.955 178.253 386.01 178.337 386.074 178.396C386.125 178.449 386.224 178.462 386.315 178.469C386.506 178.477 386.689 178.439 386.889 178.373C386.991 178.35 387.092 178.337 387.179 178.302C387.268 178.269 387.351 178.208 387.428 178.142L387.435 178.147C387.367 178.223 387.293 178.299 387.201 178.345C387.11 178.393 387.006 178.413 386.909 178.444C386.716 178.51 386.513 178.571 386.308 178.55C386.209 178.538 386.097 178.525 386.021 178.446C385.947 178.37 385.899 178.279 385.858 178.185C385.779 177.997 385.718 177.796 385.716 177.588L385.724 177.593Z" fill="#FA786B"/>
<path d="M355.36 166.619C355.36 166.619 361.183 166.281 362.876 169.745C364.57 173.209 368.329 188.683 368.329 188.683L371.51 185.847L375.563 193.217C375.563 193.217 367.96 204.823 363.686 203.495C359.413 202.169 355.311 171.343 355.36 166.619Z" fill="#E527BB"/>
<path d="M369.06 192.183C370.081 194.047 371.132 195.889 372.201 197.72C369.626 200.818 366.119 204.249 363.689 203.492C359.832 202.296 356.116 177.082 355.464 168.701C359.862 176.595 364.717 184.249 369.06 192.183Z" fill="#E527BB"/>
<path d="M355.416 166.792C355.23 167.239 362.881 181.049 362.66 185.445C362.44 189.875 359.527 196.61 359.763 197.275C359.763 197.275 346.614 197.374 338.437 197.473C332.609 192.374 335.227 172.846 337.185 167.358C337.185 167.358 343.65 164.407 345.258 164.29C345.258 164.287 357.592 184.333 355.416 166.792Z" fill="#E527BB"/>
<path d="M331.69 209.722C331.69 209.722 330.235 215.058 329.427 216.351C328.62 217.643 330.882 217.321 332.5 212.793L331.69 209.722Z" fill="#FF9199"/>
<path d="M317.101 189.016C315.928 186.987 315.859 185.699 317.299 183.851C319.77 180.679 324.648 176.158 332.172 170.106C340.372 163.513 345.796 168.031 345.796 168.031C345.796 168.031 328.762 186.258 327.233 187.706C328.998 191.223 332.284 198.515 334.549 201.793C334.679 201.979 334.818 202.139 334.963 202.278C335.799 203.078 336.459 204.041 336.766 205.158C337.497 207.825 338.534 212.023 337.759 211.894C336.626 211.706 335.116 208.023 335.116 208.023C335.116 208.023 335.964 217.933 334.171 218.123C333.983 217.935 332.566 211.706 332.756 210.573C332.756 210.573 333.328 217.849 332.756 218.314C331.245 219.541 331.53 217.466 331.53 217.466L330.776 207.459C330.773 207.457 321.342 196.356 317.101 189.016Z" fill="#FFBBB5"/>
<path d="M327.233 187.706C327.578 188.394 329.386 192.551 329.828 193.471C327.297 194.992 323.117 197.971 320.613 199.536C319.193 197.539 317.268 190.875 316.247 189.105C315.074 187.076 315.859 185.699 317.299 183.851C319.77 180.679 324.648 176.158 332.172 170.106C340.372 163.513 345.796 168.031 345.796 168.031C345.796 168.031 353.031 172.694 327.233 187.706Z" fill="#E527BB"/>
<g opacity="0.22">
<path d="M359.415 177.941C357.795 178.964 356.254 180.107 354.804 181.362C353.371 182.604 351.972 183.942 350.814 185.448C349.773 186.802 348.902 188.389 348.803 190.129C348.727 191.462 349.196 193.303 350.72 193.618C351.418 193.763 352.135 193.486 352.663 193.031C353.295 192.485 353.62 191.68 353.762 190.873C354.067 189.153 353.821 187.299 353.359 185.631C352.391 182.134 350.281 179.053 347.978 176.303C345.431 173.26 342.589 170.459 339.521 167.945C339.135 167.627 338.744 167.317 338.351 167.007C338.254 166.934 338.12 167.066 338.216 167.142C341.121 169.415 343.831 171.934 346.304 174.672C348.648 177.265 350.878 180.064 352.307 183.282C353.011 184.861 353.503 186.55 353.646 188.277C353.778 189.882 353.785 192.079 352.282 193.085C351.573 193.557 350.657 193.616 349.981 193.049C349.4 192.562 349.1 191.779 349.014 191.043C348.81 189.321 349.522 187.647 350.466 186.248C351.586 184.59 353.064 183.16 354.552 181.834C356.099 180.458 357.757 179.213 359.507 178.106C359.616 178.04 359.519 177.875 359.415 177.941Z" fill="white"/>
<path d="M334.018 169.456C333.843 173.131 332.601 176.727 330.491 179.741C328.373 182.766 325.377 185.118 321.961 186.51C320.067 187.282 318.053 187.757 316.011 187.901C315.889 187.909 315.889 188.099 316.011 188.092C319.704 187.828 323.297 186.499 326.281 184.308C329.267 182.113 331.558 179.076 332.899 175.625C333.663 173.654 334.107 171.566 334.206 169.453C334.214 169.334 334.023 169.334 334.018 169.456Z" fill="white"/>
<path d="M321.748 179.424C323.16 183.439 323.061 187.919 321.542 191.888C321.103 193.036 320.542 194.134 319.871 195.165C319.805 195.269 319.97 195.363 320.036 195.261C322.39 191.637 323.353 187.177 322.779 182.898C322.619 181.697 322.334 180.516 321.931 179.373C321.89 179.259 321.707 179.307 321.748 179.424Z" fill="white"/>
<path d="M360.779 168.221C360.586 168.925 360.593 169.682 360.629 170.406C360.68 171.404 360.814 172.397 360.982 173.382C361.353 175.592 361.881 177.776 362.483 179.932C363.021 181.865 363.694 183.746 364.337 185.646C365.007 187.627 365.649 189.641 366.63 191.495C367.836 193.781 369.586 195.685 371.477 197.42C371.569 197.504 371.703 197.369 371.612 197.285C369.903 195.718 368.298 194.017 367.127 192.003C366.109 190.251 365.446 188.328 364.799 186.418C364.146 184.493 363.445 182.581 362.879 180.628C362.28 178.563 361.757 176.47 361.35 174.357C361.129 173.204 360.939 172.039 360.85 170.868C360.784 170.017 360.736 169.105 360.964 168.275C360.997 168.153 360.812 168.102 360.779 168.221Z" fill="white"/>
<path d="M374.126 193.041C372.473 192.089 370.464 192.231 368.763 192.981C366.901 193.798 365.512 195.345 364.418 197.019C363.752 198.032 363.184 199.104 362.617 200.175C362.559 200.285 362.724 200.381 362.782 200.272C364.547 196.93 366.777 192.993 370.967 192.584C372.031 192.48 373.1 192.671 374.029 193.207C374.136 193.268 374.23 193.102 374.126 193.041Z" fill="white"/>
</g>
<path d="M470.197 196.229C465.494 197.654 455.7 169.821 455.7 169.821C453.166 164.793 456.779 161.766 457.975 162.439C459.049 163.043 461.721 167.109 461.721 167.109C461.721 167.109 469.791 182.67 469.961 182.393L470.197 196.229Z" fill="#FFBBB5"/>
<path d="M458.689 166.941L460.941 156.915" stroke="#E527BB" stroke-width="2.5311" stroke-miterlimit="10" stroke-linecap="round"/>
<path d="M461.525 166.987C461.525 166.987 461.449 162.992 460.888 162.924C460.327 162.855 457.683 163.086 457.439 163.998C457.196 164.91 459.438 164.836 459.438 164.836C459.438 164.836 458.407 166.713 459.318 167.307C460.23 167.901 461.525 166.987 461.525 166.987Z" fill="#FFBBB5"/>
<path d="M492.664 163.617C492.664 163.617 484.733 168.544 482.026 171.307C479.322 174.068 469.684 181.583 469.684 181.583L469.428 197.143C469.428 197.141 502.567 176.78 492.664 163.617Z" fill="#7BE6FF"/>
<path d="M492.664 163.617C492.664 163.617 484.733 168.544 482.026 171.307C479.322 174.068 469.684 181.583 469.684 181.583L469.428 197.143C469.428 197.141 502.567 176.78 492.664 163.617Z" fill="#A78BEF"/>
<path d="M525.526 198.906C521.999 186.555 501.176 145.283 493.857 142.299C489.093 140.359 483.903 141.961 481.406 145.085C479.951 146.903 480.088 151.068 480.68 152.239L494.22 199.904" fill="#231F20"/>
<path d="M493.166 153.451C493.22 153.616 493.817 152.336 493.979 152.277C494.662 152.031 496.186 151.322 497.047 153.029C497.918 154.756 496.559 156.387 495.543 156.813C495.251 156.935 494.581 157.245 494.459 157.537C494.078 158.439 494.314 160.023 494.495 162.04C494.891 166.497 498.761 167.213 498.761 167.213C498.761 167.213 486.704 176.696 484.923 171.398C486.379 168.851 487.285 160.833 486.008 161.313C484.332 161.941 480.998 161.227 480.568 153.598C480.17 146.53 483.534 145.42 484.804 145.207C485.871 145.024 487.59 147.023 493.166 153.451Z" fill="#FFBBB5"/>
<path d="M481.163 146.296C481.107 148.483 485.772 151.754 488.316 144.597C488.316 144.597 488.438 141.687 485.528 141.202C484.304 140.999 481.284 141.568 481.163 146.296Z" fill="#231F20"/>
<path d="M489.482 308.264L488.304 316.627C488.304 316.627 486.414 322.173 484.659 320.027C482.905 317.881 481.17 316.746 481.17 316.746L480.594 308.05L489.482 308.264Z" fill="#FFBBB5"/>
<path d="M484.893 308.576L484.591 319.951C484.591 319.951 490.142 320.784 488.08 317.069L489.294 309.181L484.893 308.576Z" fill="#FA786B"/>
<path d="M517.436 307.621L520.039 315.964C520.039 315.964 522.019 317.701 522.736 317.655C524.036 317.574 524.719 315.329 524.719 315.329L524.932 307.619H517.436V307.621Z" fill="#FFBBB5"/>
<path d="M521.184 305.391L523.005 319.194C523.005 319.194 526.735 320.18 524.673 316.464L525.128 305.846L521.184 305.391Z" fill="#FA786B"/>
<path d="M480.594 316.703L473.59 322.382C473.232 322.648 473.489 323.095 473.999 323.101L484.339 323.184C484.588 323.187 484.812 323.073 484.896 322.902L485.675 321.302C485.901 320.84 486.348 320.802 486.308 321.292L486.688 322.836C486.668 323.08 489.139 323.014 489.162 322.793C489.296 321.419 489.012 316.932 488.766 315.682C488.73 315.502 488.547 315.36 488.304 315.324C488.085 315.291 487.859 315.355 487.725 315.484C487.026 316.16 484.794 318.191 483.606 317.78C482.808 317.503 481.777 317.01 481.455 316.726C481.236 316.53 480.833 316.525 480.594 316.703Z" fill="#A78BEF"/>
<path d="M524.813 315.042L528.79 321.704C529.214 322.351 528.978 323.126 528.211 323.58C526.966 324.319 525.951 325.798 525.168 325.82C523.754 325.859 521.557 324.37 520.275 323.812C519.414 323.436 518.741 322.887 518.848 322.168L519.836 315.487C519.848 315.403 519.993 315.372 520.064 315.438L521.588 316.82C522.088 317.272 523.442 317.211 523.777 316.67C524.018 316.284 524.579 315.037 524.579 315.037C524.633 314.971 524.767 314.974 524.813 315.042Z" fill="#A78BEF"/>
<path d="M503.718 197.712C506.928 203.391 508.627 207.548 510.47 214.766C512.611 223.137 524.848 294.263 525.857 309.488C523.218 310.123 519.264 309.714 517.598 309.62C512.296 294.425 496.272 238.766 493.997 229.194C493.646 227.723 491.374 228.046 491.551 229.547C492.841 240.48 489.553 280.835 489.553 310.819C488.169 311.522 482.158 311.019 480.561 310.819C478.824 292.068 469.207 220.257 483.128 197.247C489.495 196.374 497.263 197.522 503.718 197.712Z" fill="#231F20"/>
<path d="M483.961 199.744C483.961 199.744 478.291 213.775 478.291 233.582C478.291 253.389 483.661 310.153 483.661 310.153" stroke="white" stroke-width="0.3402" stroke-miterlimit="10"/>
<path d="M522.195 309.49L500.579 199.099" stroke="white" stroke-width="0.3402" stroke-miterlimit="10"/>
<path d="M496.61 199.652C496.61 199.652 495.739 217.943 503.88 216.513" stroke="white" stroke-width="0.3402" stroke-miterlimit="10"/>
<path opacity="0.21" d="M483.222 200.115L511.801 221.204C511.801 221.204 509.538 207.459 503.718 198.565L483.222 200.115Z" fill="black"/>
<path d="M479.715 217.194C487.857 218.624 486.546 200.574 486.546 200.574" stroke="white" stroke-width="0.3402" stroke-miterlimit="10"/>
<path d="M486.254 166.548C485.63 167.048 479.51 181.567 479.73 185.974C479.954 190.416 482.986 197.885 482.75 198.553C482.75 198.553 482.374 201.562 501.379 198.568C507.222 193.456 505.912 175.79 503.949 170.286C503.949 170.286 496.96 164.48 495.35 164.361C495.35 164.361 489.091 169.974 486.742 169.941C485.673 169.928 486.135 168.125 486.254 166.548Z" fill="#A78BEF"/>
<path d="M481.325 193.384C483.953 191.025 486.554 188.633 489.111 186.192C491.12 184.272 493.113 182.337 495.076 180.369C497.153 178.284 499.106 175.716 501.435 173.943C502.512 173.123 503.494 172.391 504.35 171.625C506.062 178.212 506.813 193.819 501.382 198.573C482.377 201.567 482.752 198.558 482.752 198.558C482.874 198.21 482.115 196.023 481.325 193.384Z" fill="black"/>
<path d="M480.723 189.537C480.652 189.082 480.579 188.617 480.363 188.211C480.147 187.805 479.758 187.462 479.299 187.426C478.694 187.378 478.174 187.866 477.869 188.391C477.727 188.638 477.613 188.899 477.526 189.171C477.503 189.242 477.491 189.339 477.554 189.379C477.592 189.405 477.64 189.397 477.684 189.392C478.618 189.272 479.555 189.732 480.487 189.603" fill="#29425D"/>
<path d="M477.394 190.072H480.751C480.97 190.072 481.147 189.895 481.147 189.676C481.147 189.458 480.97 189.28 480.751 189.28H477.394C477.176 189.28 476.998 189.458 476.998 189.676C476.998 189.895 477.176 190.072 477.394 190.072Z" fill="#A6BEDF"/>
<path d="M479.083 200.635L471.216 175.95C470.779 174.581 469.791 173.476 468.506 172.922L452.399 165.964C451.921 165.758 451.434 166.23 451.599 166.736L459.547 190.921C459.974 192.224 460.906 193.283 462.117 193.849L478.265 201.397C478.743 201.618 479.245 201.148 479.083 200.635Z" fill="#7974F5"/>
<path d="M478.448 201.179L470.581 176.493C470.144 175.124 469.156 174.019 467.871 173.466L451.764 166.507C451.286 166.301 450.799 166.774 450.964 167.279L458.912 191.464C459.339 192.767 460.271 193.826 461.482 194.393L477.63 201.941C478.108 202.161 478.611 201.692 478.448 201.179Z" fill="#E527BB"/>
<path d="M477.567 194.581C477.567 194.581 494.022 211.8 497.702 208.544L491.724 196.064C491.683 196.386 477.866 185.603 477.866 185.603C477.866 185.603 469.626 180.371 469.405 181.585C469.25 182.428 473.877 184.582 473.331 184.582C473.273 184.582 469.222 182.266 468.737 182.751C468.021 183.467 472.927 186.009 472.859 186.405C472.859 186.405 468.567 183.817 468.389 184.407C468.214 184.996 472.681 188.054 472.564 188.229C472.447 188.404 469.212 186.23 468.859 186.995C468.506 187.759 477.567 194.581 477.567 194.581Z" fill="#FFBBB5"/>
<path d="M475.068 184.249C475.068 184.249 472.069 179.889 473.069 180.419C474.07 180.948 479.39 186.936 479.39 186.936" fill="#FFBBB5"/>
<path d="M503.21 169.593C503.21 169.593 499.385 177.321 498.075 180.958C496.765 184.595 491.709 195.533 491.709 195.533L497.379 209.694C497.384 209.694 517.697 177.433 503.21 169.593Z" fill="#A78BEF"/>
<path d="M167.902 158H108.793C107.25 158 106 159.323 106 160.956V199.326C106 200.959 107.25 202.282 108.793 202.282H167.902C169.445 202.282 170.695 200.959 170.695 199.326V160.955C170.695 159.323 169.445 158 167.902 158Z" fill="#A78BEF"/>
<path d="M167.902 158H108.793C107.25 158 106 159.323 106 160.956V164.013H170.695V160.956C170.695 159.323 169.445 158 167.902 158Z" fill="#A78BEF"/>
<path d="M113.764 159.241C113.339 159.241 112.996 159.577 112.996 159.99C112.996 160.403 113.339 160.738 113.764 160.738C114.188 160.738 114.532 160.403 114.532 159.99C114.532 159.577 114.188 159.241 113.764 159.241Z" fill="white"/>
<path d="M111.76 159.241C111.335 159.241 110.991 159.577 110.991 159.99C110.991 160.403 111.335 160.738 111.76 160.738C112.184 160.738 112.528 160.403 112.528 159.99C112.528 159.577 112.184 159.241 111.76 159.241Z" fill="white"/>
<path d="M109.706 159.241C109.282 159.241 108.938 159.577 108.938 159.99C108.938 160.403 109.282 160.738 109.706 160.738C110.13 160.738 110.474 160.403 110.474 159.99C110.474 159.577 110.13 159.241 109.706 159.241Z" fill="white"/>
<path d="M167.864 161.456H108.912V198.813H167.864V161.456Z" fill="#E6F1FF"/>
<path d="M120.917 166.448H115.613C115.385 166.448 115.199 166.633 115.199 166.862V166.902C115.199 167.131 115.385 167.316 115.613 167.316H120.917C121.146 167.316 121.331 167.131 121.331 166.902V166.862C121.331 166.633 121.146 166.448 120.917 166.448Z" fill="#A2BCDB"/>
<path d="M135.407 166.448H123.686C123.457 166.448 123.272 166.633 123.272 166.862V166.902C123.272 167.131 123.457 167.316 123.686 167.316H135.407C135.636 167.316 135.821 167.131 135.821 166.902V166.862C135.821 166.633 135.636 166.448 135.407 166.448Z" fill="#A2BCDB"/>
<path d="M123.521 169.965H118.218C117.989 169.965 117.803 170.151 117.803 170.38V170.42C117.803 170.649 117.989 170.834 118.218 170.834H123.521C123.75 170.834 123.935 170.649 123.935 170.42V170.38C123.936 170.151 123.75 169.965 123.521 169.965Z" fill="white"/>
<path d="M123.521 173.231H118.218C117.989 173.231 117.803 173.416 117.803 173.645V173.685C117.803 173.914 117.989 174.1 118.218 174.1H123.521C123.75 174.1 123.935 173.914 123.935 173.685V173.645C123.936 173.416 123.75 173.231 123.521 173.231Z" fill="white"/>
<path d="M123.521 176.496H118.218C117.989 176.496 117.803 176.681 117.803 176.91V176.95C117.803 177.179 117.989 177.365 118.218 177.365H123.521C123.75 177.365 123.935 177.179 123.935 176.95V176.91C123.936 176.681 123.75 176.496 123.521 176.496Z" fill="white"/>
<path d="M123.521 179.761H118.218C117.989 179.761 117.803 179.946 117.803 180.175V180.215C117.803 180.444 117.989 180.63 118.218 180.63H123.521C123.75 180.63 123.935 180.444 123.935 180.215V180.175C123.936 179.946 123.75 179.761 123.521 179.761Z" fill="white"/>
<path d="M121.331 183.216H115.199V184.085H121.331V183.216Z" fill="#C2C2C2"/>
<path d="M135.407 183.216H123.686C123.457 183.216 123.272 183.401 123.272 183.63V183.67C123.272 183.899 123.457 184.085 123.686 184.085H135.407C135.636 184.085 135.821 183.899 135.821 183.67V183.63C135.821 183.401 135.636 183.216 135.407 183.216Z" fill="#A2BCDB"/>
<path d="M161.58 186.733H151.077C150.849 186.733 150.663 186.919 150.663 187.148V187.187C150.663 187.416 150.849 187.602 151.077 187.602H161.58C161.809 187.602 161.995 187.416 161.995 187.187V187.148C161.995 186.919 161.809 186.733 161.58 186.733Z" fill="white"/>
<path d="M161.58 189.999H151.077C150.849 189.999 150.663 190.184 150.663 190.413V190.453C150.663 190.682 150.849 190.868 151.077 190.868H161.58C161.809 190.868 161.995 190.682 161.995 190.453V190.413C161.995 190.184 161.809 189.999 161.58 189.999Z" fill="white"/>
<path d="M161.58 193.264H151.077C150.849 193.264 150.663 193.449 150.663 193.678V193.718C150.663 193.947 150.849 194.133 151.077 194.133H161.58C161.809 194.133 161.995 193.947 161.995 193.718V193.678C161.995 193.449 161.809 193.264 161.58 193.264Z" fill="white"/>
<path d="M133.426 169.892H127.52C127.281 169.892 127.087 170.087 127.087 170.327V170.578C127.087 170.818 127.281 171.013 127.52 171.013H133.426C133.666 171.013 133.86 170.818 133.86 170.578V170.327C133.86 170.087 133.666 169.892 133.426 169.892Z" fill="#BBD6F2"/>
<path d="M145.29 169.892H139.384C139.145 169.892 138.95 170.087 138.95 170.327V170.578C138.95 170.818 139.145 171.013 139.384 171.013H145.29C145.529 171.013 145.723 170.818 145.723 170.578V170.327C145.723 170.087 145.529 169.892 145.29 169.892Z" fill="white"/>
<path d="M139.011 172.977H127.394C127.155 172.977 126.96 173.172 126.96 173.412V173.663C126.96 173.903 127.155 174.097 127.394 174.097H139.011C139.251 174.097 139.445 173.903 139.445 173.663V173.412C139.445 173.172 139.251 172.977 139.011 172.977Z" fill="#BBD6F2"/>
<path d="M152.833 173.138H141.216C140.977 173.138 140.783 173.332 140.783 173.572V173.824C140.783 174.064 140.977 174.258 141.216 174.258H152.833C153.073 174.258 153.267 174.064 153.267 173.824V173.572C153.267 173.333 153.073 173.138 152.833 173.138Z" fill="#BBD6F2"/>
<path d="M160.369 176.384H148.752C148.513 176.384 148.318 176.578 148.318 176.818V177.069C148.318 177.309 148.513 177.503 148.752 177.503H160.369C160.608 177.503 160.803 177.309 160.803 177.069V176.818C160.803 176.578 160.608 176.384 160.369 176.384Z" fill="#BBD6F2"/>
<path d="M137.479 179.629H126.359C126.119 179.629 125.925 179.823 125.925 180.063V180.314C125.925 180.554 126.119 180.748 126.359 180.748H137.479C137.718 180.748 137.912 180.554 137.912 180.314V180.063C137.912 179.823 137.718 179.629 137.479 179.629Z" fill="white"/>
<path d="M145.262 176.384H127.106C126.867 176.384 126.673 176.578 126.673 176.818V177.069C126.673 177.309 126.867 177.503 127.106 177.503H145.262C145.502 177.503 145.696 177.309 145.696 177.069V176.818C145.696 176.578 145.502 176.384 145.262 176.384Z" fill="#BBD6F2"/>
<path d="M161.576 179.629H143.42C143.181 179.629 142.987 179.823 142.987 180.063V180.314C142.987 180.554 143.181 180.748 143.42 180.748H161.576C161.816 180.748 162.01 180.554 162.01 180.314V180.063C162.01 179.823 161.816 179.629 161.576 179.629Z" fill="#7B97B2"/>
<path d="M137.336 169.892H135.13C134.89 169.892 134.696 170.087 134.696 170.327V170.578C134.696 170.818 134.89 171.013 135.13 171.013H137.336C137.575 171.013 137.769 170.818 137.769 170.578V170.327C137.769 170.087 137.575 169.892 137.336 169.892Z" fill="#7B97B2"/>
<path d="M149.424 169.892H147.218C146.979 169.892 146.785 170.087 146.785 170.327V170.578C146.785 170.818 146.979 171.013 147.218 171.013H149.424C149.663 171.013 149.858 170.818 149.858 170.578V170.327C149.858 170.087 149.663 169.892 149.424 169.892Z" fill="white"/>
<path d="M153.6 169.892H151.395C151.156 169.892 150.961 170.087 150.961 170.327V170.578C150.961 170.818 151.156 171.013 151.395 171.013H153.6C153.84 171.013 154.034 170.818 154.034 170.578V170.327C154.034 170.087 153.84 169.892 153.6 169.892Z" fill="white"/>
<path d="M156.672 173.138H154.466C154.227 173.138 154.033 173.332 154.033 173.572V173.824C154.033 174.064 154.227 174.258 154.466 174.258H156.672C156.912 174.258 157.106 174.064 157.106 173.824V173.572C157.106 173.333 156.912 173.138 156.672 173.138Z" fill="#BBD6F2"/>
<path d="M164.26 176.384H162.055C161.815 176.384 161.621 176.578 161.621 176.818V177.069C161.621 177.309 161.815 177.503 162.055 177.503H164.26C164.499 177.503 164.693 177.309 164.693 177.069V176.818C164.693 176.578 164.499 176.384 164.26 176.384Z" fill="#7B97B2"/>
<path d="M141.589 179.629H139.384C139.145 179.629 138.95 179.823 138.95 180.063V180.314C138.95 180.554 139.145 180.748 139.384 180.748H141.589C141.829 180.748 142.023 180.554 142.023 180.314V180.063C142.022 179.823 141.829 179.629 141.589 179.629Z" fill="#BBD6F2"/>
<path d="M160.565 173.138H158.359C158.119 173.138 157.925 173.332 157.925 173.572V173.824C157.925 174.064 158.119 174.258 158.359 174.258H160.565C160.804 174.258 160.998 174.064 160.998 173.824V173.572C160.998 173.333 160.804 173.138 160.565 173.138Z" fill="#BBD6F2"/>
<path d="M147.917 186.597H137.015C136.776 186.597 136.581 186.791 136.581 187.031V187.257C136.581 187.497 136.776 187.691 137.015 187.691H147.917C148.156 187.691 148.35 187.497 148.35 187.257V187.031C148.35 186.791 148.156 186.597 147.917 186.597Z" fill="#7B97B2"/>
<path d="M135.513 186.597H124.611C124.371 186.597 124.177 186.791 124.177 187.031V187.257C124.177 187.497 124.371 187.691 124.611 187.691H135.513C135.752 187.691 135.946 187.497 135.946 187.257V187.031C135.946 186.791 135.752 186.597 135.513 186.597Z" fill="#BBD6F2"/>
<path d="M128.405 189.768H117.503C117.264 189.768 117.07 189.962 117.07 190.202V190.428C117.07 190.668 117.264 190.863 117.503 190.863H128.405C128.645 190.863 128.839 190.668 128.839 190.428V190.202C128.838 189.962 128.644 189.768 128.405 189.768Z" fill="#BBD6F2"/>
<path d="M147.964 192.938H139.082C138.843 192.938 138.649 193.133 138.649 193.373V193.599C138.649 193.839 138.843 194.033 139.082 194.033H147.964C148.203 194.033 148.397 193.839 148.397 193.599V193.373C148.397 193.133 148.203 192.938 147.964 192.938Z" fill="#BBD6F2"/>
<path d="M147.918 189.821H130.851C130.612 189.821 130.418 190.015 130.418 190.256V190.481C130.418 190.721 130.612 190.916 130.851 190.916H147.918C148.157 190.916 148.351 190.721 148.351 190.481V190.256C148.351 190.016 148.157 189.821 147.918 189.821Z" fill="#BBD6F2"/>
<path d="M133.432 192.938H116.366C116.127 192.938 115.932 193.133 115.932 193.373V193.599C115.932 193.839 116.127 194.033 116.366 194.033H133.432C133.672 194.033 133.866 193.839 133.866 193.599V193.373C133.866 193.133 133.672 192.938 133.432 192.938Z" fill="#7B97B2"/>
<path d="M123.018 186.597H120.989C120.749 186.597 120.555 186.791 120.555 187.031V187.257C120.555 187.497 120.749 187.691 120.989 187.691H123.018C123.258 187.691 123.452 187.497 123.452 187.257V187.031C123.452 186.791 123.258 186.597 123.018 186.597Z" fill="#BBD6F2"/>
<path d="M116.298 189.768H113.402V190.863H116.298V189.768Z" fill="#898989"/>
<path d="M137.127 192.938H135.324C135.022 192.938 134.777 193.184 134.777 193.486C134.777 193.788 135.022 194.033 135.324 194.033H137.127C137.429 194.033 137.674 193.788 137.674 193.486C137.674 193.184 137.429 192.938 137.127 192.938Z" fill="white"/>
<path d="M119.784 186.597H116.887V187.691H119.784V186.597Z" fill="#898989"/>
<path d="M112.567 170.387L113.913 171.114V170.904L112.779 170.308V170.302L113.913 169.706V169.496L112.567 170.223V170.387Z" fill="white"/>
<path d="M114.101 171.235H114.295L115.108 169.031H114.91L114.101 171.235Z" fill="white"/>
<path d="M115.291 169.706L116.434 170.302V170.308L115.291 170.904V171.114L116.637 170.39V170.22L115.291 169.496V169.706Z" fill="white"/>
<path fill-rule="evenodd" clip-rule="evenodd" d="M34.3667 152.024L33.4133 151.683C33.0143 151.54 32.7543 151.151 32.7881 150.728C32.8481 149.912 32.8053 149.102 32.6688 148.313C32.5939 147.896 32.8136 147.482 33.1969 147.3L34.1125 146.867C34.5872 146.642 34.7912 146.075 34.5666 145.6L33.7358 143.846C33.512 143.37 32.9444 143.168 32.4697 143.392L31.5541 143.826C31.1699 144.008 30.7109 143.915 30.4345 143.592C29.9121 142.986 29.3132 142.439 28.6436 141.969C28.2972 141.726 28.1607 141.277 28.303 140.879L28.6436 139.925C28.8196 139.43 28.5629 138.885 28.0677 138.709L26.2406 138.056C25.7462 137.879 25.2008 138.136 25.0247 138.631L24.6825 139.585C24.5402 139.985 24.1511 140.244 23.7282 140.212C22.9122 140.151 22.1019 140.193 21.3138 140.332C20.8967 140.405 20.4821 140.186 20.3003 139.803L19.8667 138.886C19.6421 138.411 19.0745 138.208 18.5998 138.433L16.8451 139.263C16.3705 139.488 16.1689 140.056 16.3943 140.53L16.8262 141.447C17.008 141.83 16.9142 142.289 16.5934 142.567C15.9863 143.089 15.44 143.688 14.9695 144.358C14.7276 144.704 14.2785 144.842 13.8795 144.699L12.926 144.358C12.4308 144.181 11.8862 144.438 11.7102 144.933L11.0561 146.76C10.8784 147.255 11.1367 147.8 11.632 147.976L12.5863 148.318C12.9861 148.46 13.2436 148.85 13.2123 149.273C13.1506 150.089 13.1926 150.899 13.3324 151.687C13.4048 152.106 13.1868 152.519 12.8034 152.701L11.887 153.134C11.4107 153.359 11.2083 153.926 11.4337 154.401L12.263 156.156C12.4884 156.63 13.056 156.833 13.5315 156.609L14.4471 156.175C14.8313 155.994 15.2895 156.087 15.5659 156.409C16.0883 157.014 16.6872 157.561 17.356 158.031C17.7031 158.275 17.8413 158.723 17.699 159.122L17.3568 160.074C17.1808 160.569 17.4391 161.115 17.9327 161.292L19.7606 161.944C20.2558 162.121 20.8004 161.863 20.9765 161.368L21.3179 160.414C21.4602 160.015 21.8518 159.756 22.2738 159.788C23.0882 159.85 23.8985 159.806 24.6874 159.668C25.1062 159.594 25.52 159.813 25.7026 160.196L26.1345 161.112C26.3599 161.587 26.9275 161.791 27.403 161.566L29.1561 160.735C29.6307 160.51 29.8348 159.943 29.6093 159.468L29.175 158.552C28.994 158.169 29.087 157.709 29.4103 157.432C30.0166 156.909 30.5636 156.311 31.0317 155.641C31.2769 155.294 31.7236 155.157 32.1225 155.299L33.076 155.64C33.5712 155.817 34.115 155.559 34.2927 155.064L34.9459 153.237C35.1195 152.745 34.862 152.201 34.3667 152.024ZM28.1886 150.909C27.5313 154.502 23.6048 156.36 20.4113 154.59C18.4756 153.518 17.4111 151.268 17.8084 149.092C18.4649 145.499 22.3922 143.641 25.5866 145.412C27.5215 146.483 28.5851 148.733 28.1886 150.909Z" fill="#E527BB"/>
</g>
<defs>
<clipPath id="clip0_1165_9185">
<rect width="542.64" height="328.79" fill="white"/>
</clipPath>
</defs>
</svg>
