<svg width="533" height="331" viewBox="0 0 533 331" fill="none" xmlns="http://www.w3.org/2000/svg">
<g clip-path="url(#clip0_1165_8684)">
<path opacity="0.2" fill-rule="evenodd" clip-rule="evenodd" d="M95.62 234.95H48.52H47.29C21.28 234.95 0 256.23 0 282.24C0 308.25 21.28 329.53 47.29 329.53H185.35H209.13H455.92C498.04 329.53 532.5 295.07 532.5 252.96C532.5 210.84 498.04 176.39 455.93 176.39C438.12 176.39 423.55 161.82 423.55 144.01C423.55 126.2 438.12 111.63 455.93 111.63H494.9C513.41 111.63 528.56 96.48 528.56 77.97C528.56 59.46 513.41 44.31 494.9 44.31H445.63C438.42 44.31 432.53 38.41 432.53 31.2C432.53 23.99 438.43 18.1 445.63 18.1H454.32C459.29 18.1 463.36 14.03 463.36 9.06C463.36 4.09 459.29 0.02 454.32 0.02H421.77C421.77 0.02 409.33 0.02 397.33 0.02C385.33 0.02 383.99 14.2 353.67 14.2C306.8 14.2 330.23 14.2 283.36 14.2C276.87 14.2 271.56 19.51 271.56 26C271.56 32.49 276.87 37.8 283.36 37.8H294.69C304.1 37.8 311.79 45.5 311.79 54.9C311.79 64.31 304.1 72 294.69 72H260.58C214.52 72 208.01 84.04 199.95 107.98C191.88 131.92 149.99 133.85 149.99 133.85H92.67C78.5 133.85 66.9 145.45 66.9 159.62C66.9 173.79 78.5 185.39 92.67 185.39H95.62C109.25 185.39 120.41 196.54 120.41 210.18C120.4 223.8 109.25 234.95 95.62 234.95ZM479.68 18.09C474.68 18.09 470.63 14.04 470.63 9.05C470.63 4.06 474.68 0 479.68 0C484.67 0 488.72 4.05 488.72 9.04C488.72 14.03 484.67 18.09 479.68 18.09Z" fill="#999999"/>
<g clip-path="url(#clip1_1165_8684)">
<path d="M410.572 159.635C403.685 159.635 395.551 147.037 388.37 135.927C383.66 128.638 379.085 121.57 374.218 116.449H390.317V108.658H370.565C374.092 104.637 377.442 99.4641 380.875 94.1549C386.266 85.8089 392.987 75.4209 398.116 75.4209H413.221V67.6299H398.116C388.747 67.6299 381.744 78.4577 374.344 89.9243C368.953 98.2703 362.232 108.658 357.103 108.658H340.857H213.099H194.341H184.7C179.571 108.658 172.851 98.2703 167.46 89.9243C160.049 78.4577 153.046 67.6299 143.677 67.6299H128.572V75.4209H143.677C148.806 75.4209 155.527 85.8089 160.917 94.1549C164.351 99.4641 167.69 104.637 171.228 108.658H101.251V116.449H179.749C174.881 121.57 170.307 128.638 165.596 135.927C158.416 147.037 150.282 159.635 143.394 159.635H114.755V167.426H143.384C154.511 167.426 163.063 154.179 172.128 140.157C179.309 129.047 187.443 116.449 194.33 116.449H213.088H340.847H359.605C366.493 116.449 374.626 129.047 381.807 140.157C390.872 154.179 399.424 167.426 410.551 167.426H439.181V159.635H410.572Z" fill="#1A2E35"/>
<g opacity="0.4">
<path d="M366.985 114.596L366.566 115.193C372.302 119.151 377.725 127.13 383.712 136.377L384.33 135.979C378.3 126.67 372.836 118.627 366.985 114.596Z" fill="white"/>
<path d="M391.919 147.456L391.322 147.875C394.672 152.671 397.467 156.064 400.115 158.546L400.618 158.012C398.001 155.572 395.237 152.21 391.919 147.456Z" fill="white"/>
<path d="M385.586 139.267C386.842 141.215 388.109 143.152 389.365 145.037L389.972 144.629C388.716 142.754 387.449 140.817 386.193 138.869L385.586 139.267Z" fill="white"/>
<path d="M403.224 160.19L402.795 160.776C405.496 162.735 408.039 163.677 410.572 163.677H429.885V162.944H410.572C408.196 162.954 405.789 162.043 403.224 160.19Z" fill="white"/>
<path d="M439.202 162.954H433.361V163.687H439.202V162.954Z" fill="white"/>
<path d="M107.092 111.978H101.251V112.711H107.092V111.978Z" fill="white"/>
<path d="M135.387 111.978H112.745V112.711H135.387V111.978Z" fill="white"/>
<path d="M141.05 111.978V112.711H186.333V111.978H184.69C182.983 111.978 181.256 111.392 179.435 110.198L179.037 110.805C179.78 111.287 180.502 111.685 181.214 111.978H141.05Z" fill="white"/>
<path d="M327.867 111.978H305.225V112.711H327.867V111.978Z" fill="white"/>
<path d="M378.813 112.711V111.978H360.568C361.28 111.685 362.013 111.287 362.745 110.805L362.348 110.198C360.516 111.402 358.799 111.978 357.093 111.978H350.132H346.688H340.847H333.52V112.711H340.847H346.688H350.132H359.616C360.924 112.711 362.274 112.994 363.635 113.559L363.918 112.889C363.75 112.826 363.593 112.774 363.426 112.711H378.813Z" fill="white"/>
<path d="M299.562 111.978H288.236V112.711H299.562V111.978Z" fill="white"/>
<path d="M282.573 111.978H237.29V112.711H282.573V111.978Z" fill="white"/>
<path d="M390.317 111.978H384.476V112.711H390.317V111.978Z" fill="white"/>
<path d="M376.28 94.5527L375.673 94.1548C372.637 98.8147 369.11 104.072 365.551 107.569L366.064 108.093C369.665 104.543 373.224 99.2441 376.28 94.5527Z" fill="white"/>
<path d="M398.116 71.6825H403.161V70.9495H398.116C390.684 70.9495 383.932 81.3898 377.965 90.5945L378.583 90.9924C384.445 81.9448 391.081 71.6825 398.116 71.6825Z" fill="white"/>
<path d="M413.221 70.9495H407.38V71.6825H413.221V70.9495Z" fill="white"/>
<path d="M176.242 107.559C172.694 104.072 169.156 98.8045 166.12 94.1445L165.513 94.5425C168.569 99.2338 172.128 104.533 175.729 108.072L176.242 107.559Z" fill="white"/>
<path d="M163.21 90.9924L163.827 90.5945C157.871 81.3793 151.109 70.9495 143.677 70.9495H138.632V71.6825H143.677C150.711 71.6825 157.358 81.9448 163.21 90.9924Z" fill="white"/>
<path d="M134.413 70.9495H128.572V71.6825H134.413V70.9495Z" fill="white"/>
<path d="M208.985 111.978H207.268V112.711H208.985H213.099H231.627V111.978H213.099H208.985Z" fill="white"/>
<path d="M169.627 135.979L170.244 136.377C176.232 127.13 181.654 119.151 187.39 115.193L186.972 114.596C181.131 118.627 175.656 126.67 169.627 135.979Z" fill="white"/>
<path d="M194.341 111.978H192.007V112.261C191.358 112.407 190.698 112.617 190.049 112.889L190.332 113.559C191.692 112.994 193.043 112.711 194.351 112.711H203.333H203.835V111.978H203.333H194.341Z" fill="white"/>
<path d="M143.394 162.955H124.082V163.688H143.394C145.928 163.688 148.482 162.735 151.172 160.787L150.743 160.2C148.178 162.043 145.771 162.955 143.394 162.955Z" fill="white"/>
<path d="M163.984 144.618L164.592 145.027C165.858 143.142 167.114 141.205 168.37 139.257L167.753 138.859C166.507 140.807 165.251 142.744 163.984 144.618Z" fill="white"/>
<path d="M153.349 158.012L153.852 158.546C156.5 156.064 159.295 152.671 162.645 147.875L162.048 147.456C158.719 152.21 155.956 155.572 153.349 158.012Z" fill="white"/>
<path d="M120.596 162.954H114.755V163.687H120.596V162.954Z" fill="white"/>
</g>
<path d="M143.729 144.712H136.59C134.916 144.712 133.345 145.55 132.414 146.953L131.367 148.535C130.519 149.823 129.075 150.598 127.536 150.598H109.134C107.48 150.598 106.14 151.938 106.14 153.592V182.348H147.644V150.598L147.278 147.833C147.048 146.053 145.53 144.712 143.729 144.712Z" fill="#007CFF"/>
<path d="M143.729 144.712H136.59C134.916 144.712 133.345 145.55 132.414 146.953L131.367 148.535C130.519 149.823 129.075 150.598 127.536 150.598H109.134C107.48 150.598 106.14 151.938 106.14 153.592V182.348H147.644V150.598L147.278 147.833C147.048 146.053 145.53 144.712 143.729 144.712Z" fill="#A78BEF"/>
<path d="M144.535 154.231H109.259V178.369H144.535V154.231Z" fill="#1A2E35"/>
<path d="M144.535 154.231H109.259V178.369H144.535V154.231Z" fill="#E527BB"/>
<path d="M147.644 182.338H106.14L100.048 160.158C99.5871 158.483 100.854 156.818 102.591 156.818H136.601C138.977 156.818 141.071 158.41 141.699 160.703L147.644 182.338Z" fill="#007CFF"/>
<path d="M147.644 182.338H106.14L100.048 160.158C99.5871 158.483 100.854 156.818 102.591 156.818H136.601C138.977 156.818 141.071 158.41 141.699 160.703L147.644 182.338Z" fill="#A78BEF"/>
<path d="M97.8599 39H105.564C107.375 39 109.071 39.911 110.065 41.419L111.196 43.1259C112.117 44.5082 113.666 45.3459 115.331 45.3459H135.188C136.967 45.3459 138.412 46.791 138.412 48.5712V76.9602C138.412 78.4157 137.229 79.599 135.774 79.599H96.2688C94.8138 79.599 93.631 78.4157 93.631 76.9602V45.3459L94.0287 42.3719C94.28 40.4346 95.9234 39 97.8599 39Z" fill="#007CFF"/>
<path d="M97.8599 39H105.564C107.375 39 109.071 39.911 110.065 41.419L111.196 43.1259C112.117 44.5082 113.666 45.3459 115.331 45.3459H135.188C136.967 45.3459 138.412 46.791 138.412 48.5712V76.9602C138.412 78.4157 137.229 79.599 135.774 79.599H96.2688C94.8138 79.599 93.631 78.4157 93.631 76.9602V45.3459L94.0287 42.3719C94.28 40.4346 95.9234 39 97.8599 39Z" fill="#E527BB"/>
<path d="M130.352 45.3459H126.374V72.9286H130.352V45.3459Z" fill="#1A2E35"/>
<path opacity="0.5" d="M130.352 45.3459H126.374V72.9286H130.352V45.3459Z" fill="white"/>
<path d="M128.488 46.6548H125.432V48.9272H128.488V46.6548Z" fill="#1A2E35"/>
<path d="M128.488 51.5977H125.432V53.87H128.488V51.5977Z" fill="#1A2E35"/>
<path d="M128.488 56.5508H125.432V58.8232H128.488V56.5508Z" fill="#1A2E35"/>
<path d="M128.488 61.4934H125.432V63.7658H128.488V61.4934Z" fill="#1A2E35"/>
<path d="M128.488 66.436H125.432V68.7084H128.488V66.436Z" fill="#1A2E35"/>
<path opacity="0.7" d="M128.488 46.6548H125.432V48.9272H128.488V46.6548Z" fill="white"/>
<path opacity="0.7" d="M128.488 51.5974H125.432V53.8698H128.488V51.5974Z" fill="white"/>
<path opacity="0.7" d="M128.488 56.5505H125.432V58.8229H128.488V56.5505Z" fill="white"/>
<path opacity="0.7" d="M128.488 61.4932H125.432V63.7655H128.488V61.4932Z" fill="white"/>
<path opacity="0.7" d="M128.488 66.436H125.432V68.7084H128.488V66.436Z" fill="white"/>
<path d="M131.451 48.9272H128.394V51.1996H131.451V48.9272Z" fill="#1A2E35"/>
<path d="M131.451 53.8699H128.394V56.1422H131.451V53.8699Z" fill="#1A2E35"/>
<path d="M131.451 58.8125H128.394V61.0849H131.451V58.8125Z" fill="#1A2E35"/>
<path d="M131.451 63.7656H128.394V66.038H131.451V63.7656Z" fill="#1A2E35"/>
<path d="M131.451 68.7085H128.394V70.9809H131.451V68.7085Z" fill="#1A2E35"/>
<g opacity="0.8">
<path d="M131.451 48.9272H128.394V51.1996H131.451V48.9272Z" fill="white"/>
<path d="M131.451 53.8699H128.394V56.1422H131.451V53.8699Z" fill="white"/>
<path d="M131.451 58.8125H128.394V61.0849H131.451V58.8125Z" fill="white"/>
<path d="M131.451 63.7656H128.394V66.038H131.451V63.7656Z" fill="white"/>
<path d="M131.451 68.7085H128.394V70.9809H131.451V68.7085Z" fill="white"/>
</g>
<path d="M124.113 70.9807V80.0283H132.864V70.9807H124.113ZM131.451 78.3843H125.652V72.6248H131.451V78.3843Z" fill="#1A2E35"/>
<path opacity="0.7" d="M124.113 70.9807V80.0283H132.864V70.9807H124.113ZM131.451 78.3843H125.652V72.6248H131.451V78.3843Z" fill="white"/>
<path d="M126.573 91.1704H86V100.218L95.0336 109.245H135.596V100.197L126.573 91.1704Z" fill="#007CFF"/>
<path d="M126.573 91.1704H86V100.218L95.0336 109.245H135.596V100.197L126.573 91.1704Z" fill="#E527BB"/>
<path d="M135.606 109.245H95.0336V118.292H135.606V109.245Z" fill="#007CFF"/>
<path d="M135.606 109.245H95.0336V118.292H135.606V109.245Z" fill="#D318AF"/>
<path d="M135.606 118.282H95.0336V127.329H135.606V118.282Z" fill="#007CFF"/>
<path d="M135.606 118.282H95.0336V127.329H135.606V118.282Z" fill="#D318AF"/>
<path d="M135.606 100.197H95.0336V109.245H135.606V100.197Z" fill="#D318AF"/>
<path d="M110.337 127.329H119.444V100.197L110.411 91.1704H101.304L110.337 100.197V127.329Z" fill="#007CFF"/>
<path opacity="0.2" d="M110.337 127.329H119.444V100.197L110.411 91.1704H101.304L110.337 100.197V127.329Z" fill="white"/>
<path d="M107.909 106.669V120.868H121.643V106.669H107.909ZM119.444 118.292H110.337V109.245H119.444V118.292Z" fill="#E527BB"/>
<path d="M86 91.1704V100.218L95.0336 109.245V100.197L86 91.1704Z" fill="#1A2E35"/>
<path opacity="0.5" d="M86 91.1704V100.218L95.0336 109.245V100.197L86 91.1704Z" fill="white"/>
<path d="M86 100.208V109.255L95.0336 118.292V109.245L86 100.208Z" fill="#1A2E35"/>
<path opacity="0.6" d="M86 100.208V109.255L95.0336 118.292V109.245L86 100.208Z" fill="white"/>
<path d="M86 109.245V118.292L95.0336 127.329V118.282L86 109.245Z" fill="#1A2E35"/>
<path opacity="0.8" d="M86 109.245V118.292L95.0336 127.329V118.282L86 109.245Z" fill="white"/>
<path d="M447 132.785H402.753V192.349H447V132.785Z" fill="#007CFF"/>
<path d="M447 132.785H402.753V192.349H447V132.785Z" fill="#A78BEF"/>
<path opacity="0.7" d="M444.111 135.675H405.642V151.184H444.111V135.675Z" fill="white"/>
<path opacity="0.7" d="M444.111 154.807H405.642V170.316H444.111V154.807Z" fill="white"/>
<path d="M444.111 144.042L440.52 139.665L436.093 145.068L431.665 138.702L426.965 143.403L422.349 140.806L418.151 147.781L413.953 140.806L409.191 143.498L405.642 141.498V143.152L409.191 145.163L413.44 142.754L418.151 150.577L422.861 142.754L427.206 145.205L431.466 140.943L435.998 147.456L440.52 141.937L444.111 146.315V144.042Z" fill="#007CFF"/>
<path d="M444.111 144.042L440.52 139.665L436.093 145.068L431.665 138.702L426.965 143.403L422.349 140.806L418.151 147.781L413.953 140.806L409.191 143.498L405.642 141.498V143.152L409.191 145.163L413.44 142.754L418.151 150.577L422.861 142.754L427.206 145.205L431.466 140.943L435.998 147.456L440.52 141.937L444.111 146.315V144.042Z" fill="#E527BB"/>
<path d="M444.111 159.52L440.5 161.562L435.737 158.87L431.539 165.845L427.342 158.87L422.725 161.467L418.025 156.766L413.597 163.132L409.17 157.729L405.642 162.012V164.295L409.17 160.001L413.692 165.52L418.224 159.007L422.485 163.269L426.829 160.818L431.539 168.641L436.25 160.818L440.5 163.216L444.111 161.174V159.52Z" fill="#007CFF"/>
<path d="M444.111 159.52L440.5 161.562L435.737 158.87L431.539 165.845L427.342 158.87L422.725 161.467L418.025 156.766L413.597 163.132L409.17 157.729L405.642 162.012V164.295L409.17 160.001L413.692 165.52L418.224 159.007L422.485 163.269L426.829 160.818L431.539 168.641L436.25 160.818L440.5 163.216L444.111 161.174V159.52Z" fill="#E527BB"/>
<path d="M421.532 174.672C428.88 174.672 436.229 174.672 443.567 174.672C444.498 174.672 444.498 173.227 443.567 173.227C436.218 173.227 428.87 173.227 421.532 173.227C420.6 173.227 420.6 174.672 421.532 174.672Z" fill="#1A2E35"/>
<path d="M421.532 178.61C427.917 178.61 434.303 178.61 440.677 178.61C441.609 178.61 441.609 177.165 440.677 177.165C434.292 177.165 427.907 177.165 421.532 177.165C420.6 177.165 420.6 178.61 421.532 178.61Z" fill="#1A2E35"/>
<path d="M421.532 182.547C427.917 182.547 434.303 182.547 440.677 182.547C441.609 182.547 441.609 181.102 440.677 181.102C434.292 181.102 427.907 181.102 421.532 181.102C420.6 181.102 420.6 182.547 421.532 182.547Z" fill="#1A2E35"/>
<path d="M421.532 186.474C428.231 186.474 434.941 186.474 441.64 186.474C442.572 186.474 442.572 185.029 441.64 185.029C434.941 185.029 428.231 185.029 421.532 185.029C420.6 185.029 420.6 186.474 421.532 186.474Z" fill="#1A2E35"/>
<g opacity="0.4">
<path d="M421.532 174.672C428.88 174.672 436.229 174.672 443.567 174.672C444.498 174.672 444.498 173.227 443.567 173.227C436.218 173.227 428.87 173.227 421.532 173.227C420.6 173.227 420.6 174.672 421.532 174.672Z" fill="white"/>
<path d="M421.532 178.61C427.917 178.61 434.303 178.61 440.677 178.61C441.609 178.61 441.609 177.165 440.677 177.165C434.292 177.165 427.907 177.165 421.532 177.165C420.6 177.165 420.6 178.61 421.532 178.61Z" fill="white"/>
<path d="M421.532 182.547C427.917 182.547 434.303 182.547 440.677 182.547C441.609 182.547 441.609 181.102 440.677 181.102C434.292 181.102 427.907 181.102 421.532 181.102C420.6 181.102 420.6 182.547 421.532 182.547Z" fill="white"/>
<path d="M421.532 186.474C428.231 186.474 434.941 186.474 441.64 186.474C442.572 186.474 442.572 185.029 441.64 185.029C434.941 185.029 428.231 185.029 421.532 185.029C420.6 185.029 420.6 186.474 421.532 186.474Z" fill="white"/>
</g>
<path d="M444.739 41.1572H404.512V95.3067H444.739V41.1572Z" fill="#007CFF"/>
<path d="M444.739 41.1572H404.512V95.3067H444.739V41.1572Z" fill="#E527BB"/>
<path opacity="0.7" d="M442.112 43.7856H407.139V57.8806H442.112V43.7856Z" fill="white"/>
<path d="M421.689 62.1217C428.367 62.1217 435.046 62.1217 441.724 62.1217C442.572 62.1217 442.572 60.8022 441.724 60.8022C435.046 60.8022 428.367 60.8022 421.689 60.8022C420.841 60.8022 420.841 62.1217 421.689 62.1217Z" fill="#1A2E35"/>
<path d="M421.689 65.6925C427.488 65.6925 433.298 65.6925 439.097 65.6925C439.945 65.6925 439.945 64.373 439.097 64.373C433.298 64.373 427.488 64.373 421.689 64.373C420.841 64.3835 420.841 65.6925 421.689 65.6925Z" fill="#1A2E35"/>
<path d="M421.689 69.2738C427.488 69.2738 433.298 69.2738 439.097 69.2738C439.945 69.2738 439.945 67.9543 439.097 67.9543C433.298 67.9543 427.488 67.9543 421.689 67.9543C420.841 67.9648 420.841 69.2738 421.689 69.2738Z" fill="#1A2E35"/>
<path d="M421.689 72.8553C427.781 72.8553 433.873 72.8553 439.976 72.8553C440.824 72.8553 440.824 71.5359 439.976 71.5359C433.884 71.5359 427.792 71.5359 421.689 71.5359C420.841 71.5359 420.841 72.8553 421.689 72.8553Z" fill="#1A2E35"/>
<path d="M421.689 76.4366C426.619 76.4366 431.539 76.4366 436.469 76.4366C437.317 76.4366 437.317 75.1172 436.469 75.1172C431.539 75.1172 426.619 75.1172 421.689 75.1172C420.841 75.1172 420.841 76.4366 421.689 76.4366Z" fill="#1A2E35"/>
<path d="M421.689 80.0074C428.367 80.0074 435.046 80.0074 441.724 80.0074C442.572 80.0074 442.572 78.688 441.724 78.688C435.046 78.688 428.367 78.688 421.689 78.688C420.841 78.6985 420.841 80.0074 421.689 80.0074Z" fill="#1A2E35"/>
<path d="M421.689 83.5887C427.488 83.5887 433.298 83.5887 439.097 83.5887C439.945 83.5887 439.945 82.2693 439.097 82.2693C433.298 82.2693 427.488 82.2693 421.689 82.2693C420.841 82.2693 420.841 83.5887 421.689 83.5887Z" fill="#1A2E35"/>
<path d="M421.689 87.1703C427.488 87.1703 433.298 87.1703 439.097 87.1703C439.945 87.1703 439.945 85.8508 439.097 85.8508C433.298 85.8508 427.488 85.8508 421.689 85.8508C420.841 85.8508 420.841 87.1703 421.689 87.1703Z" fill="#1A2E35"/>
<path d="M421.689 90.7411C427.781 90.7411 433.873 90.7411 439.976 90.7411C440.824 90.7411 440.824 89.4216 439.976 89.4216C433.884 89.4216 427.792 89.4216 421.689 89.4216C420.841 89.4321 420.841 90.7411 421.689 90.7411Z" fill="#1A2E35"/>
<g opacity="0.4">
<path d="M421.689 62.1217C428.367 62.1217 435.046 62.1217 441.724 62.1217C442.572 62.1217 442.572 60.8022 441.724 60.8022C435.046 60.8022 428.367 60.8022 421.689 60.8022C420.841 60.8022 420.841 62.1217 421.689 62.1217Z" fill="white"/>
</g>
<g opacity="0.4">
<path d="M421.689 65.6925C427.488 65.6925 433.298 65.6925 439.097 65.6925C439.945 65.6925 439.945 64.373 439.097 64.373C433.298 64.373 427.488 64.373 421.689 64.373C420.841 64.3835 420.841 65.6925 421.689 65.6925Z" fill="white"/>
</g>
<g opacity="0.4">
<path d="M421.689 69.2738C427.488 69.2738 433.298 69.2738 439.097 69.2738C439.945 69.2738 439.945 67.9543 439.097 67.9543C433.298 67.9543 427.488 67.9543 421.689 67.9543C420.841 67.9648 420.841 69.2738 421.689 69.2738Z" fill="white"/>
</g>
<g opacity="0.4">
<path d="M421.689 72.8553C427.781 72.8553 433.873 72.8553 439.976 72.8553C440.824 72.8553 440.824 71.5359 439.976 71.5359C433.884 71.5359 427.792 71.5359 421.689 71.5359C420.841 71.5359 420.841 72.8553 421.689 72.8553Z" fill="white"/>
</g>
<g opacity="0.4">
<path d="M421.689 76.4366C426.619 76.4366 431.539 76.4366 436.469 76.4366C437.317 76.4366 437.317 75.1172 436.469 75.1172C431.539 75.1172 426.619 75.1172 421.689 75.1172C420.841 75.1172 420.841 76.4366 421.689 76.4366Z" fill="white"/>
</g>
<g opacity="0.4">
<path d="M421.689 80.0074C428.367 80.0074 435.046 80.0074 441.724 80.0074C442.572 80.0074 442.572 78.688 441.724 78.688C435.046 78.688 428.367 78.688 421.689 78.688C420.841 78.6985 420.841 80.0074 421.689 80.0074Z" fill="white"/>
</g>
<g opacity="0.4">
<path d="M421.689 83.5887C427.488 83.5887 433.298 83.5887 439.097 83.5887C439.945 83.5887 439.945 82.2693 439.097 82.2693C433.298 82.2693 427.488 82.2693 421.689 82.2693C420.841 82.2693 420.841 83.5887 421.689 83.5887Z" fill="white"/>
</g>
<g opacity="0.4">
<path d="M421.689 87.1703C427.488 87.1703 433.298 87.1703 439.097 87.1703C439.945 87.1703 439.945 85.8508 439.097 85.8508C433.298 85.8508 427.488 85.8508 421.689 85.8508C420.841 85.8508 420.841 87.1703 421.689 87.1703Z" fill="white"/>
</g>
<g opacity="0.4">
<path d="M421.689 90.7411C427.781 90.7411 433.873 90.7411 439.976 90.7411C440.824 90.7411 440.824 89.4216 439.976 89.4216C433.884 89.4216 427.792 89.4216 421.689 89.4216C420.841 89.4321 420.841 90.7411 421.689 90.7411Z" fill="white"/>
</g>
<path d="M417 61.4619H407.139V71.3263H417V61.4619Z" fill="#007CFF"/>
<path d="M417 61.4619H407.139V71.3263H417V61.4619Z" fill="#DAA7EE"/>
<path d="M417.963 51.2625H415.293V56.6031H417.963V51.2625Z" fill="#D318AF"/>
<path d="M423.291 48.6028H420.621V56.6137H423.291V48.6028Z" fill="#D318AF"/>
<path d="M428.629 49.9326H425.96V56.6031H428.629V49.9326Z" fill="#D318AF"/>
<path d="M433.968 45.9324H431.298V56.6136H433.968V45.9324Z" fill="#D318AF"/>
<path d="M425.049 86.1438H384.822V140.293H425.049V86.1438Z" fill="#007CFF"/>
<path d="M425.049 86.1438H384.822V140.293H425.049V86.1438Z" fill="#A78BEF"/>
<path d="M401.989 91.9557C408.667 91.9557 415.346 91.9557 422.024 91.9557C422.872 91.9557 422.872 90.6362 422.024 90.6362C415.346 90.6362 408.667 90.6362 401.989 90.6362C401.141 90.6362 401.141 91.9557 401.989 91.9557Z" fill="#1A2E35"/>
<path d="M401.989 95.5265C407.788 95.5265 413.598 95.5265 419.397 95.5265C420.245 95.5265 420.245 94.207 419.397 94.207C413.598 94.207 407.788 94.207 401.989 94.207C401.141 94.2175 401.141 95.5265 401.989 95.5265Z" fill="#1A2E35"/>
<path d="M401.989 99.1078C407.788 99.1078 413.598 99.1078 419.397 99.1078C420.245 99.1078 420.245 97.7883 419.397 97.7883C413.598 97.7883 407.788 97.7883 401.989 97.7883C401.141 97.7883 401.141 99.1078 401.989 99.1078Z" fill="#1A2E35"/>
<path d="M401.989 102.689C408.081 102.689 414.173 102.689 420.276 102.689C421.124 102.689 421.124 101.37 420.276 101.37C414.184 101.37 408.091 101.37 401.989 101.37C401.141 101.37 401.141 102.689 401.989 102.689Z" fill="#1A2E35"/>
<path d="M401.989 106.26C406.919 106.26 411.839 106.26 416.769 106.26C417.617 106.26 417.617 104.941 416.769 104.941C411.839 104.941 406.919 104.941 401.989 104.941C401.141 104.951 401.141 106.26 401.989 106.26Z" fill="#1A2E35"/>
<path d="M401.989 109.841C408.667 109.841 415.346 109.841 422.024 109.841C422.872 109.841 422.872 108.522 422.024 108.522C415.346 108.522 408.667 108.522 401.989 108.522C401.141 108.522 401.141 109.841 401.989 109.841Z" fill="#1A2E35"/>
<path d="M401.989 113.423C407.788 113.423 413.598 113.423 419.397 113.423C420.245 113.423 420.245 112.103 419.397 112.103C413.598 112.103 407.788 112.103 401.989 112.103C401.141 112.103 401.141 113.423 401.989 113.423Z" fill="#1A2E35"/>
<path d="M401.989 116.994C407.788 116.994 413.598 116.994 419.397 116.994C420.245 116.994 420.245 115.674 419.397 115.674C413.598 115.674 407.788 115.674 401.989 115.674C401.141 115.685 401.141 116.994 401.989 116.994Z" fill="#1A2E35"/>
<path d="M401.989 124.156C406.919 124.156 411.839 124.156 416.769 124.156C417.617 124.156 417.617 122.837 416.769 122.837C411.839 122.837 406.919 122.837 401.989 122.837C401.141 122.847 401.141 124.156 401.989 124.156Z" fill="#1A2E35"/>
<path d="M401.989 127.738C408.667 127.738 415.346 127.738 422.024 127.738C422.872 127.738 422.872 126.418 422.024 126.418C415.346 126.418 408.667 126.418 401.989 126.418C401.141 126.418 401.141 127.738 401.989 127.738Z" fill="#1A2E35"/>
<path d="M401.989 131.309C407.788 131.309 413.598 131.309 419.397 131.309C420.245 131.309 420.245 129.989 419.397 129.989C413.598 129.989 407.788 129.989 401.989 129.989C401.141 130 401.141 131.309 401.989 131.309Z" fill="#1A2E35"/>
<path d="M401.989 134.89C407.788 134.89 413.598 134.89 419.397 134.89C420.245 134.89 420.245 133.571 419.397 133.571C413.598 133.571 407.788 133.571 401.989 133.571C401.141 133.581 401.141 134.89 401.989 134.89Z" fill="#1A2E35"/>
<path d="M401.989 120.575C408.081 120.575 414.173 120.575 420.276 120.575C421.124 120.575 421.124 119.256 420.276 119.256C414.184 119.256 408.091 119.256 401.989 119.256C401.141 119.266 401.141 120.575 401.989 120.575Z" fill="#1A2E35"/>
<g opacity="0.4">
<path d="M401.989 91.9557C408.667 91.9557 415.346 91.9557 422.024 91.9557C422.872 91.9557 422.872 90.6362 422.024 90.6362C415.346 90.6362 408.667 90.6362 401.989 90.6362C401.141 90.6362 401.141 91.9557 401.989 91.9557Z" fill="white"/>
<path d="M401.989 95.5265C407.788 95.5265 413.598 95.5265 419.397 95.5265C420.245 95.5265 420.245 94.207 419.397 94.207C413.598 94.207 407.788 94.207 401.989 94.207C401.141 94.2175 401.141 95.5265 401.989 95.5265Z" fill="white"/>
<path d="M401.989 99.1078C407.788 99.1078 413.598 99.1078 419.397 99.1078C420.245 99.1078 420.245 97.7883 419.397 97.7883C413.598 97.7883 407.788 97.7883 401.989 97.7883C401.141 97.7883 401.141 99.1078 401.989 99.1078Z" fill="white"/>
<path d="M401.989 102.689C408.081 102.689 414.173 102.689 420.276 102.689C421.124 102.689 421.124 101.37 420.276 101.37C414.184 101.37 408.091 101.37 401.989 101.37C401.141 101.37 401.141 102.689 401.989 102.689Z" fill="white"/>
<path d="M401.989 106.26C406.919 106.26 411.839 106.26 416.769 106.26C417.617 106.26 417.617 104.941 416.769 104.941C411.839 104.941 406.919 104.941 401.989 104.941C401.141 104.951 401.141 106.26 401.989 106.26Z" fill="white"/>
<path d="M401.989 109.841C408.667 109.841 415.346 109.841 422.024 109.841C422.872 109.841 422.872 108.522 422.024 108.522C415.346 108.522 408.667 108.522 401.989 108.522C401.141 108.522 401.141 109.841 401.989 109.841Z" fill="white"/>
<path d="M401.989 113.423C407.788 113.423 413.598 113.423 419.397 113.423C420.245 113.423 420.245 112.103 419.397 112.103C413.598 112.103 407.788 112.103 401.989 112.103C401.141 112.103 401.141 113.423 401.989 113.423Z" fill="white"/>
<path d="M401.989 116.994C407.788 116.994 413.598 116.994 419.397 116.994C420.245 116.994 420.245 115.674 419.397 115.674C413.598 115.674 407.788 115.674 401.989 115.674C401.141 115.685 401.141 116.994 401.989 116.994Z" fill="white"/>
<path d="M401.989 124.156C406.919 124.156 411.839 124.156 416.769 124.156C417.617 124.156 417.617 122.837 416.769 122.837C411.839 122.837 406.919 122.837 401.989 122.837C401.141 122.847 401.141 124.156 401.989 124.156Z" fill="white"/>
<path d="M401.989 127.738C408.667 127.738 415.346 127.738 422.024 127.738C422.872 127.738 422.872 126.418 422.024 126.418C415.346 126.418 408.667 126.418 401.989 126.418C401.141 126.418 401.141 127.738 401.989 127.738Z" fill="white"/>
<path d="M401.989 131.309C407.788 131.309 413.598 131.309 419.397 131.309C420.245 131.309 420.245 129.989 419.397 129.989C413.598 129.989 407.788 129.989 401.989 129.989C401.141 130 401.141 131.309 401.989 131.309Z" fill="white"/>
<path d="M401.989 134.89C407.788 134.89 413.598 134.89 419.397 134.89C420.245 134.89 420.245 133.571 419.397 133.571C413.598 133.571 407.788 133.571 401.989 133.571C401.141 133.581 401.141 134.89 401.989 134.89Z" fill="white"/>
<path d="M401.989 120.575C408.081 120.575 414.173 120.575 420.276 120.575C421.124 120.575 421.124 119.256 420.276 119.256C414.184 119.256 408.091 119.256 401.989 119.256C401.141 119.266 401.141 120.575 401.989 120.575Z" fill="white"/>
</g>
<path d="M390.987 110.082L389.396 108.49C388.308 109.58 387.627 111.098 387.627 112.763H389.867C389.878 111.716 390.307 110.763 390.987 110.082Z" fill="#E527BB"/>
<path d="M393.677 116.554C391.584 116.554 389.878 114.857 389.878 112.752H387.638C387.638 116.093 390.338 118.795 393.677 118.795V116.554Z" fill="#007CFF"/>
<path d="M393.677 116.554C391.584 116.554 389.878 114.857 389.878 112.752H387.638C387.638 116.093 390.338 118.795 393.677 118.795V116.554Z" fill="#E527BB"/>
<path d="M390.987 110.082C391.678 109.391 392.62 108.972 393.667 108.972V106.721C392.003 106.721 390.485 107.401 389.396 108.49L390.987 110.082Z" fill="#007CFF"/>
<path d="M390.987 110.082C391.678 109.391 392.62 108.972 393.667 108.972V106.721C392.003 106.721 390.485 107.401 389.396 108.49L390.987 110.082Z" fill="#E527BB"/>
<path d="M397.467 112.763C397.467 114.857 395.771 116.564 393.667 116.564V118.816C397.006 118.816 399.707 116.114 399.707 112.773C399.707 109.433 397.006 106.731 393.667 106.731V108.983C395.771 108.962 397.467 110.669 397.467 112.763Z" fill="#E527BB"/>
<path d="M396.357 115.444L397.948 117.035C399.037 115.946 399.717 114.428 399.717 112.763H397.467C397.467 113.81 397.048 114.763 396.357 115.444Z" fill="white"/>
<path d="M390.987 98.668L389.396 100.26C390.485 101.349 392.003 102.029 393.667 102.029V99.778C392.631 99.778 391.678 99.3591 390.987 98.668Z" fill="#E527BB"/>
<path d="M397.467 95.9873C397.467 98.0817 395.771 99.7886 393.667 99.7886V102.04C397.006 102.04 399.707 99.3383 399.707 95.9978H397.467V95.9873Z" fill="white"/>
<path d="M390.987 98.6681C390.296 97.9769 389.878 97.0345 389.878 95.9873H387.638C387.638 97.6523 388.318 99.1707 389.407 100.26L390.987 98.6681Z" fill="#007CFF"/>
<path d="M390.987 98.6681C390.296 97.9769 389.878 97.0345 389.878 95.9873H387.638C387.638 97.6523 388.318 99.1707 389.407 100.26L390.987 98.6681Z" fill="#E527BB"/>
<path d="M393.677 92.186C395.771 92.186 397.477 93.8825 397.477 95.9873H399.728C399.728 92.6468 397.027 89.9451 393.688 89.9451C390.349 89.9451 387.648 92.6468 387.648 95.9873H389.888C389.877 93.8929 391.573 92.186 393.677 92.186Z" fill="#E527BB"/>
<path opacity="0.2" d="M396.357 93.296L397.948 91.7043C396.86 90.6152 395.342 89.9346 393.677 89.9346V92.186C394.724 92.186 395.666 92.6153 396.357 93.296Z" fill="black"/>
<path d="M396.357 126.858L397.948 125.266C399.037 126.355 399.717 127.874 399.717 129.539H397.467C397.467 128.492 397.048 127.539 396.357 126.858Z" fill="#E527BB"/>
<path d="M393.677 133.34C395.771 133.34 397.477 131.644 397.477 129.539H399.728C399.728 132.879 397.027 135.581 393.688 135.581V133.34H393.677Z" fill="white"/>
<path d="M396.357 126.858C395.666 126.167 394.724 125.748 393.677 125.748V123.507C395.342 123.507 396.86 124.188 397.948 125.277L396.357 126.858Z" fill="#007CFF"/>
<path d="M396.357 126.858C395.666 126.167 394.724 125.748 393.677 125.748V123.507C395.342 123.507 396.86 124.188 397.948 125.277L396.357 126.858Z" fill="#E527BB"/>
<path d="M389.878 129.539C389.878 131.633 391.573 133.34 393.677 133.34V135.592C390.338 135.592 387.638 132.89 387.638 129.549C387.638 126.209 390.338 123.507 393.677 123.507V125.748C391.573 125.738 389.878 127.444 389.878 129.539Z" fill="#E527BB"/>
<path opacity="0.2" d="M390.987 132.22L389.396 133.811C388.308 132.722 387.627 131.204 387.627 129.539H389.878C389.878 130.586 390.307 131.539 390.987 132.22Z" fill="black"/>
<path d="M303.446 200.559H280.103V193.961H303.446C304.974 193.961 306.22 195.208 306.22 196.736V197.784C306.209 199.323 304.974 200.559 303.446 200.559Z" fill="#E527BB"/>
<path d="M283.986 200.559H234.254C232.831 200.559 231.679 199.407 231.679 197.983V196.548C231.679 195.124 232.831 193.972 234.254 193.972H283.986C285.41 193.972 286.561 195.124 286.561 196.558V197.993C286.561 199.407 285.41 200.559 283.986 200.559Z" fill="black"/>
<path d="M283.986 200.559H234.254C232.831 200.559 231.679 199.407 231.679 197.983V196.548C231.679 195.124 232.831 193.972 234.254 193.972H283.986C285.41 193.972 286.561 195.124 286.561 196.558V197.993C286.561 199.407 285.41 200.559 283.986 200.559Z" fill="#E527BB"/>
<path d="M273.163 193.972H285.85L277.727 163.604H273.163V193.972Z" fill="#E527BB"/>
<path d="M284.007 193.972H258.1L255.514 163.604H275.874L284.007 193.972Z" fill="black"/>
<path d="M284.007 193.972H258.1L255.514 163.604H275.874L284.007 193.972Z" fill="#E527BB"/>
<path d="M349.263 76.311H337.487L328.369 180.557H340.146C342.616 180.557 344.783 178.557 345.003 176.097L353.335 80.7825C353.544 78.3111 351.723 76.311 349.263 76.311Z" fill="#1A2E35"/>
<path d="M337.424 180.558H194.864C192.394 180.558 190.572 178.557 190.792 176.097L199.125 80.7825C199.344 78.3112 201.511 76.3215 203.982 76.3215H346.541C349.012 76.3215 350.833 78.3216 350.613 80.7825L342.281 176.097C342.061 178.557 339.894 180.558 337.424 180.558Z" fill="#1A2E35"/>
<path d="M337.424 180.558H194.864C192.394 180.558 190.572 178.557 190.792 176.097L199.125 80.7825C199.344 78.3112 201.511 76.3215 203.982 76.3215H346.541C349.012 76.3215 350.833 78.3216 350.613 80.7825L342.281 176.097C342.061 178.557 339.894 180.558 337.424 180.558Z" fill="#E527BB"/>
<path opacity="0.9" d="M333.624 168.389H200.799C198.664 168.389 197.083 166.651 197.261 164.515L204.191 85.3167C204.379 83.1805 206.264 81.4421 208.399 81.4421H341.224C343.359 81.4421 344.94 83.1805 344.762 85.3167L337.832 164.515C337.644 166.651 335.76 168.389 333.624 168.389Z" fill="#FAFAFA"/>
<path d="M298.85 109.412H294.203L295.019 100.113H299.667L298.85 109.412Z" fill="#E527BB"/>
<path d="M308.146 109.412H303.498L304.712 95.4639H309.36L308.146 109.412Z" fill="#E527BB"/>
<path d="M317.431 109.412H312.783L313.809 97.7886H318.446L317.431 109.412Z" fill="#E527BB"/>
<path d="M326.726 109.412H322.078L323.711 90.8145H328.348L326.726 109.412Z" fill="#007CFF"/>
<path d="M326.726 109.412H322.078L323.711 90.8145H328.348L326.726 109.412Z" fill="#E527BB"/>
<path d="M331.374 108.554C317.745 108.554 304.116 108.554 290.487 108.554C291 102.637 291.523 96.7309 292.036 90.8144C292.13 89.7148 290.413 89.7253 290.319 90.8144C289.775 97.0137 289.231 103.213 288.697 109.402C288.655 109.863 289.126 110.26 289.555 110.26C303.498 110.26 317.431 110.26 331.374 110.26C332.473 110.271 332.483 108.554 331.374 108.554Z" fill="#A78BEF"/>
<path d="M222.195 104.375L219.17 107.161C220.918 109.077 223.462 110.261 226.393 110.261L226.738 106.323C224.896 106.323 223.295 105.58 222.195 104.375Z" fill="#007CFF"/>
<path opacity="0.5" d="M222.195 104.375L219.17 107.161C220.918 109.077 223.462 110.261 226.393 110.261L226.738 106.323C224.896 106.323 223.295 105.58 222.195 104.375Z" fill="black"/>
<path d="M233.972 99.6631C233.647 103.339 230.413 106.323 226.728 106.323L226.383 110.261C232.234 110.261 237.395 105.517 237.907 99.6631H233.972Z" fill="#007CFF"/>
<path opacity="0.1" d="M233.972 99.6631C233.647 103.339 230.413 106.323 226.728 106.323L226.383 110.261C232.234 110.261 237.395 105.517 237.907 99.6631H233.972Z" fill="black"/>
<path d="M222.195 104.375C221.096 103.171 220.5 101.506 220.657 99.6631H216.721C216.47 102.585 217.422 105.245 219.17 107.161L222.195 104.375Z" fill="#007CFF"/>
<path d="M227.9 93.0136C231.574 93.0136 234.296 95.998 233.971 99.6736H237.907C238.42 93.8199 234.087 89.0762 228.235 89.0762C222.384 89.0762 217.223 93.8199 216.71 99.6736H220.646C220.981 95.9875 224.226 93.0136 227.9 93.0136Z" fill="#007CFF"/>
<path opacity="0.2" d="M227.9 93.0136C231.574 93.0136 234.296 95.998 233.971 99.6736H237.907C238.42 93.8199 234.087 89.0762 228.235 89.0762C222.384 89.0762 217.223 93.8199 216.71 99.6736H220.646C220.981 95.9875 224.226 93.0136 227.9 93.0136Z" fill="white"/>
<path opacity="0.6" d="M232.433 94.9613L235.458 92.1758C233.71 90.2595 231.166 89.0762 228.235 89.0762L227.89 93.0136C229.732 93.0136 231.334 93.7571 232.433 94.9613Z" fill="white"/>
<path d="M251.704 104.375L248.679 107.161C250.427 109.077 252.97 110.261 255.901 110.261L256.247 106.323C254.405 106.323 252.803 105.58 251.704 104.375Z" fill="#007CFF"/>
<path d="M251.704 104.375L248.679 107.161C250.427 109.077 252.97 110.261 255.901 110.261L256.247 106.323C254.405 106.323 252.803 105.58 251.704 104.375Z" fill="#E527BB"/>
<path d="M263.48 99.6631C263.156 103.339 259.921 106.323 256.236 106.323L255.891 110.261C261.742 110.261 266.903 105.517 267.416 99.6631H263.48Z" fill="#A78BEF"/>
<path d="M251.704 104.375C250.605 103.171 250.008 101.506 250.165 99.6631H246.229C245.978 102.585 246.931 105.245 248.679 107.161L251.704 104.375Z" fill="#E527BB"/>
<path d="M257.409 93.0136C261.083 93.0136 263.804 95.998 263.48 99.6736H267.416C267.929 93.8199 263.595 89.0762 257.744 89.0762C251.892 89.0762 246.731 93.8199 246.219 99.6736H250.154C250.489 95.9875 253.734 93.0136 257.409 93.0136Z" fill="#E527BB"/>
<path d="M261.941 94.9613L264.966 92.1758C263.218 90.2595 260.675 89.0762 257.744 89.0762L257.398 93.0136C259.251 93.0136 260.842 93.7571 261.941 94.9613Z" fill="#E527BB"/>
<path d="M296.045 143.896H290.497L290.979 138.346H296.527L296.045 143.896ZM291.806 142.691H294.936L295.208 139.55H292.078L291.806 142.691Z" fill="#E527BB"/>
<path d="M295.302 152.336H289.754L290.236 146.786H295.783L295.302 152.336ZM291.062 151.132H294.192L294.464 147.99H291.335L291.062 151.132Z" fill="#E527BB"/>
<path d="M294.559 160.787H289.011L289.492 155.237H295.04L294.559 160.787ZM290.33 159.582H293.46L293.732 156.441H290.602L290.33 159.582Z" fill="#E527BB"/>
<path d="M299.887 142.597C299.144 142.597 298.589 141.99 298.652 141.246C298.714 140.503 299.374 139.896 300.127 139.896H318.687C319.43 139.896 319.985 140.503 319.922 141.246C319.859 141.99 319.2 142.597 318.446 142.597H299.887Z" fill="#007CFF"/>
<path d="M299.887 142.597C299.144 142.597 298.589 141.99 298.652 141.246C298.714 140.503 299.374 139.896 300.127 139.896H318.687C319.43 139.896 319.985 140.503 319.922 141.246C319.859 141.99 319.2 142.597 318.446 142.597H299.887Z" fill="#E527BB"/>
<path d="M298.421 159.373C297.678 159.373 297.123 158.766 297.186 158.022C297.249 157.279 297.908 156.671 298.662 156.671H314.217C314.96 156.671 315.515 157.279 315.452 158.022C315.389 158.766 314.73 159.373 313.976 159.373H298.421Z" fill="#E527BB"/>
<path opacity="0.4" d="M298.421 159.373C297.678 159.373 297.123 158.766 297.186 158.022C297.249 157.279 297.908 156.671 298.662 156.671H314.217C314.96 156.671 315.515 157.279 315.452 158.022C315.389 158.766 314.73 159.373 313.976 159.373H298.421Z" fill="#E527BB"/>
<path d="M299.164 150.922C298.421 150.922 297.866 150.315 297.929 149.571C297.992 148.828 298.652 148.22 299.405 148.22H313.756C314.5 148.22 315.054 148.828 314.992 149.571C314.929 150.315 314.269 150.922 313.516 150.922H299.164Z" fill="#E527BB"/>
<path opacity="0.2" d="M299.164 150.922C298.421 150.922 297.866 150.315 297.929 149.571C297.992 148.828 298.652 148.22 299.405 148.22H313.756C314.5 148.22 315.054 148.828 314.992 149.571C314.929 150.315 314.269 150.922 313.516 150.922H299.164Z" fill="#E527BB"/>
<path d="M281.16 151.928C279.757 150.022 278.365 148.105 276.962 146.2C276.648 145.77 276.01 145.571 275.602 146.022C274.115 147.655 272.639 149.289 271.153 150.922C269.991 149.006 268.819 147.09 267.657 145.173C267.353 144.681 266.704 144.618 266.296 144.995C264.757 146.409 263.26 147.865 261.69 149.236C261.219 148.985 260.769 148.692 260.308 148.42C259.46 147.917 258.613 147.414 257.775 146.922C257.346 146.671 256.854 146.849 256.592 147.236C255.095 149.404 253.599 151.582 252.102 153.75C250.982 151.582 249.862 149.404 248.752 147.236C248.532 146.807 247.956 146.713 247.569 146.922C246.857 147.31 246.146 147.687 245.423 148.074C244.984 148.304 243.518 149.048 243.099 149.373C242.764 149.069 241.487 148.409 241.236 148.263C240.483 147.823 239.739 147.372 238.986 146.922C238.023 146.346 237.154 147.854 238.106 148.42C239.352 149.163 241.571 151.216 243.037 151.205C244.366 151.205 246.25 149.791 247.653 148.891C248.846 151.216 250.05 153.54 251.243 155.865C251.557 156.483 252.395 156.368 252.74 155.865C254.363 153.519 255.975 151.174 257.597 148.828C258.853 149.572 260.12 150.315 261.376 151.059C261.721 151.257 262.14 151.184 262.423 150.922C263.857 149.603 265.291 148.284 266.725 146.964C267.908 148.912 269.091 150.86 270.274 152.807C270.556 153.268 271.258 153.404 271.634 152.985C273.142 151.331 274.649 149.666 276.156 148.011C277.329 149.613 278.501 151.216 279.674 152.818C280.312 153.697 281.819 152.828 281.16 151.928Z" fill="#E527BB"/>
<path d="M279.747 159.048C265.961 159.048 252.185 159.048 238.399 159.048C238.923 153.069 239.446 147.09 239.97 141.11C240.064 140 238.326 140 238.232 141.11C237.688 147.383 237.133 153.645 236.589 159.918C236.547 160.389 237.018 160.787 237.457 160.787C251.557 160.787 265.647 160.787 279.747 160.787C280.867 160.787 280.867 159.048 279.747 159.048Z" fill="#007CFF"/>
<path opacity="0.5" d="M279.747 159.048C265.961 159.048 252.185 159.048 238.399 159.048C238.923 153.069 239.446 147.09 239.97 141.11C240.064 140 238.326 140 238.232 141.11C237.688 147.383 237.133 153.645 236.589 159.918C236.547 160.389 237.018 160.787 237.457 160.787C251.557 160.787 265.647 160.787 279.747 160.787C280.867 160.787 280.867 159.048 279.747 159.048Z" fill="white"/>
<path d="M324.769 133.56H250.971L252.625 114.721H326.422L324.769 133.56Z" fill="#007CFF"/>
<path opacity="0.9" d="M324.769 133.56H250.971L252.625 114.721H326.422L324.769 133.56Z" fill="white"/>
<path d="M326.077 134.995H249.411L251.306 113.287H327.972L326.077 134.995ZM252.531 132.126H323.46L324.852 116.167H253.923L252.531 132.126Z" fill="#1A2E35"/>
<path d="M267.636 126.67L267.51 128.167H261.292L261.994 120.125H268.065L267.939 121.622H263.71L263.553 123.371H267.28L267.154 124.816H263.428L263.26 126.68H267.636V126.67Z" fill="#E527BB"/>
<path d="M273.969 128.167L272.273 125.382L270.127 128.167H267.992L271.32 124.083L268.84 120.135H270.954L272.577 122.743L274.618 120.135H276.628L273.487 124.021L276.125 128.178H273.969V128.167Z" fill="#E527BB"/>
<path d="M278.993 121.643H276.418L276.554 120.125H283.557L283.421 121.643H280.846L280.27 128.167H278.407L278.993 121.643Z" fill="#E527BB"/>
<path d="M288.979 128.167L287.629 125.926H287.535H285.912L285.713 128.167H283.85L284.552 120.125H288.027C288.739 120.125 289.346 120.24 289.848 120.481C290.351 120.722 290.728 121.057 290.968 121.497C291.209 121.937 291.314 122.45 291.261 123.047C291.209 123.644 291.021 124.157 290.696 124.586C290.372 125.015 289.932 125.35 289.388 125.581L290.968 128.167H288.979ZM289.042 121.999C288.77 121.759 288.362 121.633 287.797 121.633H286.279L286.038 124.439H287.556C288.111 124.439 288.55 124.314 288.864 124.073C289.178 123.832 289.356 123.486 289.388 123.036C289.43 122.586 289.314 122.24 289.042 121.999Z" fill="#E527BB"/>
<path d="M297.741 126.439H294.014L293.156 128.157H291.251L295.532 120.115H297.364L300.253 128.157H298.306L297.741 126.439ZM297.27 125.026L296.265 121.947L294.726 125.026H297.27Z" fill="#E527BB"/>
<path d="M302.629 127.769C302.001 127.413 301.52 126.921 301.195 126.293C300.871 125.664 300.745 124.942 300.818 124.146C300.892 123.35 301.143 122.638 301.572 121.999C302.001 121.371 302.567 120.879 303.268 120.523C303.969 120.167 304.723 119.989 305.55 119.989C306.251 119.989 306.869 120.114 307.403 120.355C307.947 120.596 308.387 120.952 308.732 121.413L307.444 122.512C306.952 121.884 306.314 121.57 305.508 121.57C305.005 121.57 304.555 121.675 304.147 121.895C303.739 122.115 303.404 122.418 303.153 122.806C302.901 123.193 302.755 123.643 302.713 124.136C302.671 124.638 302.744 125.078 302.922 125.466C303.111 125.853 303.383 126.157 303.76 126.377C304.126 126.596 304.566 126.701 305.058 126.701C305.864 126.701 306.565 126.387 307.162 125.748L308.261 126.848C307.842 127.319 307.329 127.675 306.743 127.916C306.157 128.157 305.508 128.282 304.817 128.282C303.99 128.303 303.257 128.125 302.629 127.769Z" fill="#E527BB"/>
<path d="M311.537 121.643H308.962L309.098 120.125H316.101L315.965 121.643H313.39L312.814 128.167H310.951L311.537 121.643Z" fill="#E527BB"/>
<path d="M377.369 207.208H177.237V319.151H377.369V207.208Z" fill="#CA86E4"/>
<path d="M162.465 319.137H181.129V207.194H162.465V319.137Z" fill="#007CFF"/>
<path opacity="0.6" d="M162 318.943H180.664V207H162V318.943Z" fill="#A78BEF"/>
<path d="M363.478 207.208H158.552V217.114H363.478V207.208Z" fill="#007CFF"/>
<path opacity="0.6" d="M363.478 207.208H158.552V217.114H363.478V207.208Z" fill="#A78BEF"/>
<path d="M162.456 207.208H154.626V319.151H162.456V207.208Z" fill="#007CFF"/>
<path d="M162.456 207.208H154.626V319.151H162.456V207.208Z" fill="#A78BEF"/>
<path d="M368.937 319.137H387.601V207.194H368.937V319.137Z" fill="#007CFF"/>
<path d="M368.937 319.137H387.601V207.194H368.937V319.137Z" fill="#A78BEF"/>
<path d="M375.377 209.342H392.303V200.744H375.377V209.342Z" fill="#007CFF"/>
<path d="M375.377 209.342H392.303V200.744H375.377V209.342Z" fill="#A78BEF"/>
<path d="M355.763 222.455H271.216V319.141H355.763V222.455Z" fill="#007CFF"/>
<path opacity="0.6" d="M355.763 222.455H271.216V319.141H355.763V222.455Z" fill="#A78BEF"/>
<path d="M361.102 222.455H355.763V319.141H361.102V222.455Z" fill="#007CFF"/>
<path opacity="0.2" d="M361.102 222.455H355.763V319.141H361.102V222.455Z" fill="#5A1515"/>
<path d="M350.414 254.216H276.554V276.584H350.414V254.216Z" fill="#007CFF"/>
<path d="M350.414 227.722H276.554V250.09H350.414V227.722Z" fill="#007CFF"/>
<path d="M350.414 280.709H276.554V303.077H350.414V280.709Z" fill="#007CFF"/>
<g opacity="0.7">
<path d="M350.414 254.216H276.554V276.584H350.414V254.216Z" fill="white"/>
<path d="M350.414 227.722H276.554V250.09H350.414V227.722Z" fill="white"/>
<path d="M350.414 280.709H276.554V303.077H350.414V280.709Z" fill="white"/>
</g>
<path d="M368.932 207.208H361.102V319.151H368.932V207.208Z" fill="#007CFF"/>
<path opacity="0.6" d="M368.932 207.208H361.102V319.151H368.932V207.208Z" fill="#A78BEF"/>
<path d="M375.369 200.747H148.189V209.344H375.369V200.747Z" fill="#007CFF"/>
<path d="M375.369 200.747H148.189V209.344H375.369V200.747Z" fill="#A78BEF"/>
<path d="M313.704 236.477C313.233 236.477 311.611 236.477 311.14 236.477C309.8 236.477 308.711 237.566 308.711 238.906C308.711 240.246 309.8 241.335 311.14 241.335C311.611 241.335 313.233 241.335 313.704 241.335C315.044 241.335 316.133 240.246 316.133 238.906C316.133 237.566 315.044 236.477 313.704 236.477Z" fill="#007CFF"/>
<path d="M313.704 262.97C313.233 262.97 311.611 262.97 311.14 262.97C309.8 262.97 308.711 264.059 308.711 265.4C308.711 266.74 309.8 267.829 311.14 267.829C311.611 267.829 313.233 267.829 313.704 267.829C315.044 267.829 316.133 266.74 316.133 265.4C316.133 264.059 315.044 262.97 313.704 262.97Z" fill="#007CFF"/>
<path d="M313.704 289.464C313.233 289.464 311.611 289.464 311.14 289.464C309.8 289.464 308.711 290.553 308.711 291.893C308.711 293.233 309.8 294.323 311.14 294.323C311.611 294.323 313.233 294.323 313.704 294.323C315.044 294.323 316.133 293.233 316.133 291.893C316.133 290.553 315.044 289.464 313.704 289.464Z" fill="#007CFF"/>
<path d="M313.568 238.906C313.568 240.246 312.479 241.335 311.14 241.335C309.8 241.335 308.711 240.246 308.711 238.906C308.711 237.566 309.8 236.477 311.14 236.477C312.479 236.477 313.568 237.566 313.568 238.906Z" fill="#E527BB"/>
<path d="M313.568 265.4C313.568 266.74 312.479 267.829 311.14 267.829C309.8 267.829 308.711 266.74 308.711 265.4C308.711 264.059 309.8 262.97 311.14 262.97C312.479 262.97 313.568 264.059 313.568 265.4Z" fill="#E527BB"/>
<path d="M313.568 291.893C313.568 293.233 312.479 294.323 311.14 294.323C309.8 294.323 308.711 293.233 308.711 291.893C308.711 290.553 309.8 289.464 311.14 289.464C312.479 289.464 313.568 290.553 313.568 291.893Z" fill="#E527BB"/>
<path d="M228.413 102.815C227.021 104.784 230.088 111.035 230.088 111.035L216.281 112.711L218.982 97.6523C218.982 97.6523 230.057 100.501 228.413 102.815Z" fill="#E67B62"/>
<path opacity="0.2" d="M228.193 105.632C227.984 104.49 227.974 103.433 228.413 102.815C229.429 101.37 225.545 99.7257 222.447 98.689C223.179 100.155 225.242 103.862 228.193 105.632Z" fill="black"/>
<path d="M261.69 308.616L263.166 322.67L256.676 323.884L252.782 310.323L261.69 308.616Z" fill="#E67B62"/>
<path d="M263.02 320.272L255.399 321.8C255.116 321.853 254.907 322.104 254.897 322.397L254.76 328.879C254.74 329.455 255.2 329.937 255.776 329.947C255.849 329.947 255.922 329.947 255.996 329.927C258.728 329.33 261.146 328.691 264.569 328.01C268.609 327.204 267.678 327.895 272.44 327.005C275.309 326.471 275.183 323.109 273.937 323.193C268.253 323.602 267.343 322.041 264.799 320.491C264.244 320.198 263.616 320.125 263.02 320.272Z" fill="#A78BEF"/>
<path opacity="0.2" d="M255.357 319.287L262.705 318.313L261.69 308.616L252.782 310.323L255.357 319.287Z" fill="black"/>
<path d="M205.625 305.768L201.208 323.193L194.99 322.314L196.644 305.266L205.625 305.768Z" fill="#E67B62"/>
<path d="M202.035 321.005L194.278 320.46C193.985 320.439 193.723 320.628 193.64 320.9L191.797 327.11C191.63 327.665 191.944 328.241 192.488 328.408C192.561 328.429 192.635 328.44 192.708 328.45C195.503 328.597 198.005 328.618 201.48 328.869C205.583 329.162 204.505 329.581 209.331 329.989C212.241 330.23 213.005 326.963 211.78 326.712C206.19 325.602 205.719 323.853 203.689 321.685C203.238 321.266 202.652 321.015 202.035 321.005Z" fill="#A78BEF"/>
<path opacity="0.2" d="M195.377 318.355L202.181 319.402L205.437 306.554C202.453 306.239 197.575 305.747 196.612 305.653L195.377 318.355Z" fill="black"/>
<path d="M212.356 172.358C212.356 172.358 210.21 178.588 209.896 193.752C209.707 202.81 208.828 217.156 208.137 227.24C207.938 230.193 207.76 232.769 207.614 234.749C207.436 237.262 206.839 239.723 205.876 242.047C205.217 243.66 204.379 245.88 203.521 248.645C202.16 253.043 200.726 258.823 199.795 265.797C197.523 282.783 194.917 315.695 194.917 315.695L203.322 316.784L224.006 240.089L246.051 172.305L212.356 172.358Z" fill="#1A2E35"/>
<path opacity="0.2" d="M234.307 208.925L233.417 202.244L226.205 196.139L223.776 194.946C223.776 194.946 229.397 209.135 227.984 227.701L234.307 208.925Z" fill="black"/>
<path d="M252.667 172.662L262.779 315.109L254.216 316.565C254.216 316.565 242.764 277.149 240.828 255.357C240.598 252.75 240.503 250.404 240.577 248.404C240.692 245.44 240.252 242.477 239.415 239.639L238.211 235.576L231.459 212.737C230.046 207.941 227.848 203.417 224.781 199.543C221.274 195.113 216.93 186.537 218.731 172.253L250.416 170.054L252.667 172.662Z" fill="#1A2E35"/>
<path d="M221.002 163.666C221.002 163.666 225.922 162.661 227.565 162.818C228.947 162.944 232.831 164.546 232.831 164.546C234.474 165.08 234.935 167.195 233.668 168.368C233.668 168.368 230.967 171.834 229.617 172.117C226.927 172.683 219.191 168.546 219.191 168.546L221.002 163.666Z" fill="#E67B62"/>
<path d="M220.761 161.31L218.029 170.128L220.657 170.337L223.054 162.64L220.761 161.31Z" fill="#1A2E35"/>
<path opacity="0.2" d="M220.761 161.31L218.029 170.128L220.657 170.337L223.054 162.64L220.761 161.31Z" fill="white"/>
<path d="M204.589 119.329C203.333 117.612 200.653 117.968 199.753 119.894C196.686 126.46 188.95 143.854 188.919 152.294C188.877 162.829 219.819 169.059 219.819 169.059L221.693 163.007L200.402 149.927L206.525 135.497C206.525 135.497 208.043 124.062 204.589 119.329Z" fill="#007CFF"/>
<path d="M204.589 119.329C203.333 117.612 200.653 117.968 199.753 119.894C196.686 126.46 188.95 143.854 188.919 152.294C188.877 162.829 219.819 169.059 219.819 169.059L221.693 163.007L200.402 149.927L206.525 135.497C206.525 135.497 208.043 124.062 204.589 119.329Z" fill="#A78BEF"/>
<g opacity="0.4">
<path d="M205.227 120.376L201.888 120.837L199.972 122.209L202.254 145.55L206.525 135.487C206.525 135.497 207.844 125.56 205.227 120.376Z" fill="black"/>
<path d="M211.665 156.849L202.83 151.415L204.118 164.536C205.96 165.227 207.813 165.845 209.561 166.389L211.665 156.849Z" fill="black"/>
</g>
<path d="M252.206 172.588C252.206 172.588 236.976 177.573 212.021 173.541C212.021 173.541 212.021 173.541 200.067 123.12C199.177 119.35 201.072 115.423 204.463 113.549C209.603 110.711 219.756 108.04 239.792 109.15C244.732 109.423 248.909 112.931 250.05 117.748L252.206 172.588Z" fill="#A78BEF"/>
<path d="M212.199 111.266L213.727 107.695C213.727 107.695 219.725 104.668 229.91 106.092L232.328 108.899C232.328 108.888 220.929 109.161 212.199 111.266Z" fill="#A78BEF"/>
<path d="M212.921 87.6204C214.407 95.2543 214.868 98.5215 219.359 101.998C225.953 105.297 235.385 103.841 236.254 95.9454C237.039 88.8351 234.474 77.5779 226.362 75.3893C220.583 73.829 214.627 77.1276 213.068 82.7719C212.649 84.3427 212.586 86.0077 212.921 87.6204Z" fill="#E67B62"/>
<path opacity="0.4" d="M251.704 147.739L250.689 129.267L244.094 120.533L240.483 117.182L237.698 119.13C237.688 119.14 238.075 129.319 251.704 147.739Z" fill="black"/>
<path d="M253.85 121.486C257.503 128.209 258.927 132.178 260.172 133.843C260.34 134.063 260.612 134.178 260.884 134.136L282.249 131.036C282.615 130.984 282.961 131.204 283.076 131.549L284.792 136.838C284.918 137.236 284.709 137.655 284.311 137.791L264.286 144.576C260.664 145.99 256.54 145.278 253.62 142.702C248.103 137.843 243.864 132.44 240.001 124.816C238.462 121.779 234.893 116.156 240.755 111.203C245.633 107.119 251.421 117.036 253.85 121.486Z" fill="#007CFF"/>
<path d="M253.85 121.486C257.503 128.209 258.927 132.178 260.172 133.843C260.34 134.063 260.612 134.178 260.884 134.136L282.249 131.036C282.615 130.984 282.961 131.204 283.076 131.549L284.792 136.838C284.918 137.236 284.709 137.655 284.311 137.791L264.286 144.576C260.664 145.99 256.54 145.278 253.62 142.702C248.103 137.843 243.864 132.44 240.001 124.816C238.462 121.779 234.893 116.156 240.755 111.203C245.633 107.119 251.421 117.036 253.85 121.486Z" fill="#A78BEF"/>
<path d="M282.866 131.539L287.273 126.366C287.755 125.8 288.383 125.392 289.095 125.182L299.458 122.167C299.803 122.062 300.18 122.229 300.347 122.554C300.546 122.952 300.368 123.434 299.96 123.601L295.679 125.35C295.375 125.476 295.187 125.79 295.208 126.114L295.417 128.701C295.543 130.293 294.663 131.79 293.219 132.45L290.099 133.864C289.984 133.916 289.859 133.958 289.744 134.01L284.395 135.811C283.965 135.958 283.515 135.696 283.411 135.267L282.709 132.199C282.646 131.968 282.709 131.727 282.866 131.539Z" fill="#E67B62"/>
<path d="M281.579 131.005L284.217 137.665C284.384 138.073 284.855 138.262 285.253 138.063L286.132 137.634C286.488 137.456 286.656 137.037 286.509 136.67L283.997 130.282C283.871 129.947 283.526 129.759 283.18 129.811L282.186 129.968C281.694 130.052 281.401 130.555 281.579 131.005Z" fill="#1A2E35"/>
<path d="M252.552 314.533L253.881 318.052L263.972 316.491L263.689 312.753L252.552 314.533Z" fill="#007CFF"/>
<path d="M252.552 314.533L253.881 318.052L263.972 316.491L263.689 312.753L252.552 314.533Z" fill="#A78BEF"/>
<path d="M194.037 313.119L193.87 316.816L203.992 318.167L204.777 314.502L194.037 313.119Z" fill="#007CFF"/>
<path d="M194.037 313.119L193.87 316.816L203.992 318.167L204.777 314.502L194.037 313.119Z" fill="#A78BEF"/>
<path d="M218.144 102.228C218.144 102.228 219.275 100.626 222.687 102.48C222.687 102.48 227.523 97.0659 227.67 91.9975C227.67 91.9975 231.24 91.3378 230.946 89.0235C230.643 86.7093 228.947 83.6934 229.303 81.599C229.659 79.5047 233.134 74.007 230.182 71.5671C227.23 69.1272 226.885 72.0383 225.21 72.3525C223.535 72.6666 213.444 73.0227 212.157 80.1749C212.157 80.1749 207.07 85.4841 211.487 92.3117C215.904 99.1393 218.144 102.228 218.144 102.228Z" fill="#1A2E35"/>
<path d="M229.02 87.4005C230.36 88.3011 231.292 89.6833 231.595 91.2436C231.983 93.317 230.036 94.1652 228.141 93.4322C226.424 92.7725 224.174 90.8876 224.645 88.8875C225.116 86.8664 227.366 86.3219 229.02 87.4005Z" fill="#E67B62"/>
<path d="M117.936 283.975C117.863 280 116.329 276.19 113.626 273.273C112.322 278.627 117.936 283.975 117.936 283.975Z" fill="#6EE213"/>
<path d="M111.681 280.93C108.006 279.412 103.901 279.299 100.148 280.611C104.573 283.949 111.681 280.93 111.681 280.93Z" fill="#6EE213"/>
<path d="M110.968 277.451C111.56 274.377 111.001 271.193 109.398 268.504C107.511 272.42 110.968 277.451 110.968 277.451Z" fill="#6EE213"/>
<path d="M135.156 264.892C126.01 267.328 121.108 275.28 121.108 275.28C128.923 275.285 135.156 264.892 135.156 264.892Z" fill="#6EE213"/>
<path d="M120.552 268.641C121.03 258.783 111.393 247.63 111.393 247.63C112.848 259.866 120.552 268.641 120.552 268.641Z" fill="#6EE213"/>
<path d="M120.599 240.571C120.409 245.508 121.608 250.4 124.061 254.69C125.422 248.346 120.599 240.571 120.599 240.571Z" fill="#6EE213"/>
<path d="M124.314 260.596C131.52 259.822 135.441 252.639 135.441 252.639C126.728 255.096 124.314 260.596 124.314 260.596Z" fill="#6EE213"/>
<path d="M139.856 290.73C136.475 288.636 132.443 287.858 128.526 288.546C132.332 292.551 139.856 290.73 139.856 290.73Z" fill="#6EE213"/>
<path d="M121.183 293.966C122.101 296.299 123.816 298.231 126.024 299.42C125.719 296.092 121.183 293.966 121.183 293.966Z" fill="#6EE213"/>
<path d="M122.108 292.905C126.21 295.424 130.728 294.439 130.728 294.439C127.951 291.548 122.108 292.905 122.108 292.905Z" fill="#6EE213"/>
<path d="M118.425 306.171C118.431 306.122 118.431 306.073 118.425 306.025C118.425 305.91 118.425 305.768 118.425 305.583C118.425 305.176 118.425 304.623 118.425 303.929C118.425 303.235 118.425 302.334 118.425 301.317C118.425 300.3 118.447 299.138 118.5 297.86C118.562 295.296 118.743 292.25 119.004 288.869C119.265 285.487 119.707 281.796 120.273 277.924C121.413 270.184 122.969 263.265 124.22 258.292C124.848 255.808 125.378 253.801 125.767 252.422L126.209 250.826C126.253 250.658 126.289 250.521 126.315 250.411C126.33 250.363 126.339 250.314 126.342 250.265C126.342 250.265 126.315 250.309 126.284 250.402C126.253 250.495 126.2 250.645 126.147 250.809L125.661 252.387C125.219 253.757 124.671 255.755 124.008 258.235C122.303 264.703 120.954 271.259 119.968 277.875C119.402 281.752 119 285.465 118.721 288.847C118.443 292.228 118.319 295.287 118.279 297.851C118.239 299.138 118.252 300.296 118.252 301.317C118.252 302.338 118.252 303.213 118.297 303.929C118.341 304.645 118.336 305.176 118.354 305.583C118.354 305.755 118.354 305.896 118.354 306.025C118.369 306.077 118.393 306.126 118.425 306.171Z" fill="#9F8A8A"/>
<path d="M131.652 285.301C131.603 285.231 128.69 287.14 125.145 289.567C121.6 291.994 118.775 294.023 118.824 294.098C118.872 294.173 121.785 292.259 125.33 289.832C128.876 287.406 131.7 285.381 131.652 285.301Z" fill="#9F8A8A"/>
<path d="M118.825 286.358C118.698 286.177 118.549 286.012 118.383 285.867L117.083 284.621L112.756 280.558L108.423 276.496L107.097 275.263C106.945 275.096 106.775 274.948 106.589 274.821C106.704 275.01 106.845 275.183 107.009 275.333C107.292 275.652 107.716 276.098 108.251 276.659C109.316 277.742 110.824 279.21 112.521 280.793C114.219 282.375 115.775 283.785 116.942 284.771C117.512 285.271 117.981 285.655 118.308 285.942C118.461 286.103 118.635 286.243 118.825 286.358Z" fill="#9F8A8A"/>
<path d="M140.903 280.638C140.903 280.638 133.455 280.497 130.294 286.358C132.386 286.298 134.435 285.75 136.277 284.756C138.12 283.763 139.704 282.353 140.903 280.638Z" fill="#6EE213"/>
<path d="M130.731 277.645C130.731 277.645 124.666 281.973 125.634 288.555C127.276 287.26 128.591 285.599 129.476 283.704C130.361 281.81 130.791 279.735 130.731 277.645Z" fill="#6EE213"/>
<path d="M98.7933 266.992C98.7933 266.992 101.185 275.325 108.788 276.823C108.003 274.519 106.691 272.43 104.955 270.723C103.22 269.016 101.11 267.739 98.7933 266.992Z" fill="#6EE213"/>
<path d="M134.039 236C134.039 236 124.539 242.189 125.591 252.276C128.17 250.409 130.277 247.965 131.744 245.139C133.211 242.313 133.996 239.184 134.039 236Z" fill="#6EE213"/>
<path d="M102.419 291.128C102.606 291.312 102.812 291.476 103.033 291.618C103.444 291.919 104.032 292.361 104.74 292.922C108.443 295.854 111.621 299.393 114.137 303.39C114.624 304.155 115.022 304.787 115.251 305.225C115.374 305.462 115.522 305.686 115.693 305.892C115.611 305.641 115.504 305.398 115.375 305.167C115.159 304.725 114.809 304.058 114.35 303.271C111.916 299.175 108.702 295.598 104.89 292.741C104.16 292.197 103.564 291.782 103.122 291.517C102.903 291.36 102.668 291.229 102.419 291.128Z" fill="#9F8A8A"/>
<path d="M110.686 297.316C111.374 293.4 110.598 289.368 108.506 285.987C107.481 293.05 110.686 297.316 110.686 297.316Z" fill="#6EE213"/>
<path d="M104.293 293.829C101.779 292.399 98.8281 291.943 96.0002 292.547C100.593 294.978 104.293 293.829 104.293 293.829Z" fill="#6EE213"/>
<path d="M132.28 306.944L128.717 330.373H108.003L103.198 307.284L132.28 306.944Z" fill="#D1203D"/>
<path d="M106.092 321.96C106.092 322.027 111.396 322.08 117.943 322.08C124.49 322.08 129.799 322.027 129.799 321.96C129.799 321.894 124.494 321.837 117.943 321.837C111.392 321.837 106.092 321.894 106.092 321.96Z" fill="#FAFAFA"/>
<path d="M106.014 320.807C106.014 320.873 111.358 320.93 117.949 320.93C124.54 320.93 129.884 320.873 129.884 320.807C129.884 320.74 124.54 320.687 117.949 320.687C111.358 320.687 106.014 320.74 106.014 320.807Z" fill="#FAFAFA"/>
<path d="M106.053 319.507C106.053 319.573 111.397 319.626 117.988 319.626C124.579 319.626 129.923 319.573 129.923 319.507C129.923 319.441 124.583 319.383 117.988 319.383C111.393 319.383 106.053 319.441 106.053 319.507Z" fill="#FAFAFA"/>
<path d="M126.334 329.038C126.625 328.072 126.838 327.085 126.97 326.085C127.181 325.101 127.314 324.101 127.368 323.096C126.864 325.046 126.518 327.033 126.334 329.038Z" fill="#FAFAFA"/>
<path d="M124.929 328.786C125.073 327.832 125.159 326.871 125.185 325.908C125.292 324.95 125.336 323.985 125.318 323.021C125.095 323.964 124.969 324.926 124.942 325.895C124.836 326.855 124.831 327.824 124.929 328.786Z" fill="#FAFAFA"/>
<path d="M122.359 328.786C122.638 327.824 122.819 326.836 122.898 325.837C123.056 324.846 123.107 323.842 123.053 322.84C122.866 323.821 122.733 324.811 122.655 325.806C122.498 326.793 122.399 327.787 122.359 328.786Z" fill="#FAFAFA"/>
<path d="M120.555 328.909C120.873 326.923 120.938 324.905 120.75 322.902C120.642 323.899 120.591 324.901 120.599 325.903C120.525 326.904 120.51 327.907 120.555 328.909Z" fill="#FAFAFA"/>
<path d="M117.363 328.785C117.516 327.846 117.588 326.895 117.58 325.943C117.659 324.993 117.659 324.038 117.58 323.087C117.428 324.029 117.354 324.981 117.359 325.934C117.28 326.883 117.281 327.837 117.363 328.785Z" fill="#FAFAFA"/>
<path d="M115.034 328.909C115.18 326.95 115.164 324.982 114.986 323.026C114.84 324.985 114.856 326.953 115.034 328.909Z" fill="#FAFAFA"/>
<path d="M112.852 328.596C112.816 326.541 112.616 324.492 112.255 322.469C112.233 323.503 112.292 324.538 112.432 325.563C112.489 326.584 112.629 327.598 112.852 328.596Z" fill="#FAFAFA"/>
<path d="M110.031 328.29C110.028 327.407 109.911 326.527 109.682 325.673C109.533 324.803 109.275 323.955 108.913 323.149C109.041 324.018 109.22 324.878 109.448 325.727C109.596 326.591 109.791 327.447 110.031 328.29Z" fill="#FAFAFA"/>
<path d="M134.657 302.307V306.692C134.656 307.15 134.474 307.588 134.15 307.911C133.826 308.234 133.387 308.416 132.929 308.416H102.941C102.483 308.416 102.044 308.234 101.72 307.911C101.396 307.588 101.213 307.15 101.212 306.692V302.307H134.657Z" fill="#D1203D"/>
<path d="M132.055 308.416L131.808 309.813L104.136 311.784L103.433 308.416H132.055Z" fill="#B4ACAC"/>
</g>
</g>
<defs>
<clipPath id="clip0_1165_8684">
<rect width="532.49" height="330.06" fill="white"/>
</clipPath>
<clipPath id="clip1_1165_8684">
<rect width="361" height="291" fill="white" transform="translate(86 39)"/>
</clipPath>
</defs>
</svg>
