<svg width="20" height="20" viewBox="0 0 20 20" fill="none" xmlns="http://www.w3.org/2000/svg">
<g clip-path="url(#clip0_439_5568)">
<path d="M18 1.2625H8.21V1.1575C8.21 0.52 7.69 0 7.0525 0H3.685C3.0475 0 2.5275 0.52 2.5275 1.1575V1.2625H2C0.8975 1.2625 0 2.16 0 3.2625V4.105V15.895C0 16.9975 0.8975 17.895 2 17.895H9.2625V18.8425C9.2625 19.48 9.7825 20 10.42 20H15.0525C15.69 20 16.21 19.48 16.21 18.8425V17.895H18C19.1025 17.895 20 16.9975 20 15.895V4.105V3.2625C20 2.16 19.1025 1.2625 18 1.2625ZM3.1575 1.1575C3.1575 0.8675 3.3925 0.63 3.685 0.63H7.0525C7.3425 0.63 7.58 0.865 7.58 1.1575V3.79H3.1575V1.1575ZM0.6325 3.2625C0.6325 2.5075 1.2475 1.895 2 1.895H2.5275V3.79H0.6325V3.2625ZM9.2625 10.45V15.1575H3.2625C2.9725 15.1575 2.735 14.9225 2.735 14.63V7.4725C2.735 7.1825 2.97 6.945 3.2625 6.945H11.3675V8.425L9.7775 9.485C9.455 9.7025 9.2625 10.0625 9.2625 10.45ZM15.58 18.8425C15.58 19.1325 15.345 19.37 15.0525 19.37H10.42C10.13 19.37 9.8925 19.135 9.8925 18.8425V10.45C9.8925 10.2725 9.98 10.11 10.1275 10.0125L11.3675 9.1875V9.37C11.3675 9.66 11.4575 9.9275 11.61 10.1475C11.5875 10.235 11.5775 10.3275 11.5775 10.4225C11.5775 11.06 12.0975 11.58 12.735 11.58C13.3725 11.58 13.8925 11.06 13.8925 10.4225C13.8925 9.785 13.3725 9.265 12.735 9.265C12.4625 9.265 12.2125 9.36 12.0125 9.5175C12.0025 9.47 11.9975 9.42 11.9975 9.37V8.7675L12.4425 8.47C12.53 8.41 12.6325 8.3825 12.735 8.3825C12.8375 8.3825 12.9375 8.4125 13.0275 8.47L15.3425 10.015C15.49 10.1125 15.5775 10.2775 15.5775 10.4525L15.58 18.8425ZM12.7375 10.105C12.615 10.105 12.4975 10.075 12.3975 10.02C12.49 9.9425 12.6075 9.895 12.7375 9.895C13.0275 9.895 13.265 10.13 13.265 10.4225C13.265 10.715 13.03 10.95 12.7375 10.95C12.53 10.95 12.3525 10.83 12.265 10.655C12.4125 10.71 12.57 10.74 12.7375 10.74C12.9125 10.74 13.0525 10.5975 13.0525 10.425C13.0525 10.2475 12.9125 10.105 12.7375 10.105ZM15.695 9.4875L13.38 7.9425C12.99 7.6825 12.485 7.6825 12.095 7.9425L12 8.005V6.945H16.7375C17.0275 6.945 17.265 7.18 17.265 7.4725V14.63C17.265 14.92 17.03 15.1575 16.7375 15.1575H16.21V10.45C16.21 10.0625 16.0175 9.7025 15.695 9.4875ZM12.0725 6.315C12.19 6.0675 12.445 5.895 12.7375 5.895C13.03 5.895 13.2825 6.0675 13.4025 6.315H12.0725ZM19.3675 15.895C19.3675 16.65 18.7525 17.2625 18 17.2625H16.21V15.79H16.7375C17.375 15.79 17.895 15.27 17.895 14.6325V7.4725C17.895 6.835 17.375 6.315 16.7375 6.315H14.0675C13.925 5.7125 13.3825 5.2625 12.7375 5.2625C12.0925 5.2625 11.55 5.7125 11.405 6.315H3.2625C2.625 6.315 2.105 6.835 2.105 7.4725V14.63C2.105 15.2675 2.625 15.7875 3.2625 15.7875H9.2625V17.26H2C1.245 17.26 0.6325 16.645 0.6325 15.8925V4.42H19.37L19.3675 15.895ZM19.3675 3.79H8.21V1.895H18C18.755 1.895 19.3675 2.51 19.3675 3.2625V3.79Z" fill="url(#paint0_linear_439_5568)"/>
<path d="M16.315 2.505C16.14 2.505 16 2.6475 16 2.82V2.8625C16 3.0375 16.1425 3.1775 16.315 3.1775C16.4875 3.1775 16.63 3.035 16.63 2.8625V2.82C16.6325 2.6475 16.49 2.505 16.315 2.505Z" fill="#4D58E2"/>
<path d="M15.0513 2.505C14.8763 2.505 14.7363 2.6475 14.7363 2.82V2.8625C14.7363 3.0375 14.8788 3.1775 15.0513 3.1775C15.2238 3.1775 15.3663 3.035 15.3663 2.8625V2.82C15.3663 2.6475 15.2263 2.505 15.0513 2.505Z" fill="#4D58E2"/>
<path d="M17.5806 2.505C17.4056 2.505 17.2656 2.6475 17.2656 2.82V2.8625C17.2656 3.0375 17.4081 3.1775 17.5806 3.1775C17.7531 3.1775 17.8956 3.035 17.8956 2.8625V2.82C17.8956 2.6475 17.7531 2.505 17.5806 2.505Z" fill="#4D58E2"/>
</g>
<defs>
<linearGradient id="paint0_linear_439_5568" x1="10" y1="0" x2="10" y2="20" gradientUnits="userSpaceOnUse">
<stop stop-color="#E527BB"/>
<stop offset="1" stop-color="#A78BEF"/>
</linearGradient>
<clipPath id="clip0_439_5568">
<rect width="20" height="20" fill="white"/>
</clipPath>
</defs>
</svg>
