<svg width="23" height="23" viewBox="0 0 23 23" fill="none" xmlns="http://www.w3.org/2000/svg">
<path fill-rule="evenodd" clip-rule="evenodd" d="M8.18708 3.10328V3.70072C5.12477 4.95705 2.98764 9.0811 3.06616 12.6521V14.6356C1.49916 16.6498 1.59134 19.6541 5.50031 19.6541H8.18708C8.18708 20.4769 8.50799 21.2655 9.07812 21.8493C9.64825 22.4296 10.4232 22.7574 11.2323 22.7574C12.0414 22.7574 12.813 22.4296 13.3865 21.8493C13.9567 21.2655 14.2776 20.4769 14.2776 19.6541H16.9712C20.8733 19.6541 20.9279 16.643 19.3644 14.6288L19.4087 12.6521C19.4873 9.07427 17.3433 4.94681 14.2776 3.69389V3.10328C14.2776 2.28052 13.9567 1.4919 13.3865 0.90811C12.8164 0.324325 12.038 0 11.2323 0C10.4232 0 9.65167 0.327739 9.07812 0.90811C8.50799 1.4919 8.18708 2.28052 8.18708 3.10328ZM12.2463 3.10328C12.2463 3.10328 12.2463 3.14425 12.2429 3.16473C11.9117 3.12376 11.5771 3.10328 11.2357 3.10328C10.8909 3.10328 10.5529 3.12376 10.2184 3.16814C10.2184 3.14766 10.215 3.12718 10.215 3.10328C10.215 2.83016 10.3208 2.56729 10.512 2.37269C10.7032 2.1781 10.9592 2.06885 11.2289 2.06885C11.4986 2.06885 11.7547 2.1781 11.9458 2.37269C12.1404 2.56729 12.2463 2.83016 12.2463 3.10328ZM10.215 19.6575C10.215 19.9306 10.3208 20.1935 10.512 20.3881C10.7032 20.5827 10.9592 20.6919 11.2289 20.6919C11.4986 20.6919 11.7547 20.5827 11.9458 20.3881C12.137 20.1935 12.2429 19.9306 12.2429 19.6575H10.215ZM16.9712 17.5852C17.8383 17.5852 18.306 16.5474 17.7427 15.8783C17.4696 15.5539 17.3228 15.1374 17.3331 14.7107L17.3808 12.6077C17.4594 9.09476 14.6872 5.17213 11.2392 5.17213C7.79448 5.17213 5.02235 9.09476 5.09746 12.6077L5.14184 14.7141C5.15208 15.1409 5.00529 15.5539 4.73217 15.8817C4.16887 16.5542 4.63658 17.5887 5.50372 17.5887H16.9712V17.5852ZM16.9302 1.36899C17.2887 0.853487 17.9988 0.723757 18.5143 1.08222C19.8218 1.98692 21.3854 4.15819 22.2423 6.72889C22.4403 7.32633 22.1194 7.96815 21.522 8.16958C20.9245 8.36759 20.2827 8.04668 20.0813 7.44923C19.3302 5.19261 18.0022 3.4993 17.217 2.95307C16.7015 2.5946 16.5717 1.8845 16.9302 1.36899ZM3.78651 1.08222C4.30201 0.723757 5.01211 0.853487 5.37058 1.36899C5.72904 1.8845 5.59931 2.5946 5.08381 2.95307C4.2986 3.49588 2.97057 5.1892 2.2195 7.44582C2.02149 8.04326 1.37626 8.36417 0.778817 8.16616C0.181376 7.96815 -0.139535 7.32292 0.0584741 6.72548C0.915375 4.15819 2.47896 1.98692 3.78651 1.08222Z" fill="url(#paint0_linear_379_4147)"/>
<defs>
<linearGradient id="paint0_linear_379_4147" x1="11.1504" y1="0" x2="11.1504" y2="22.7574" gradientUnits="userSpaceOnUse">
<stop stop-color="#E527BB"/>
<stop offset="1" stop-color="#A78BEF"/>
</linearGradient>
</defs>
</svg>
