<svg width="19" height="22" viewBox="0 0 19 22" fill="none" xmlns="http://www.w3.org/2000/svg">
<path d="M17.8638 10.4955C17.4597 9.85418 16.0364 9.72689 15.3483 10.0883C14.9878 10.2601 14.7502 10.5249 14.6963 10.816C14.6959 10.8173 14.5161 11.8084 14.5156 11.8102C13.7715 11.5601 12.852 11.4021 11.7278 11.249C11.5609 11.2267 11.4207 11.1088 11.3699 10.9481L11.1367 10.0651C11.4144 9.50881 11.8097 8.39305 11.9352 8.03255C12.5182 7.6676 12.2525 7.11484 12.4924 6.62616C12.6477 6.34578 12.7247 5.89048 12.4087 5.71735C12.6998 5.64347 13.0318 5.50506 13.0318 5.2082C13.0398 5.02751 12.8386 4.7805 12.7461 4.60025C12.67 2.94151 12.094 1.73807 11.0762 1.10253L11.0949 0.989928C11.1496 0.675271 10.6885 0.55555 10.5813 0.852405C10.4193 0.787871 10.2493 0.734464 10.0721 0.692629C9.87186 0.110491 9.42725 -0.0341538 8.86692 0.00634664C8.45435 0.00634664 8.09786 0.29163 7.97324 0.692629C7.79611 0.734464 7.62609 0.787426 7.46454 0.852405C7.35728 0.555105 6.89619 0.674826 6.95094 0.989483L6.97007 1.10253C5.95222 1.73763 5.37632 2.94107 5.30021 4.59981C5.20719 4.78006 5.00647 5.02662 5.01448 5.20776C5.01448 5.48815 5.29264 5.62522 5.64335 5.7129C5.31979 5.88514 5.39634 6.34088 5.55345 6.62527C5.79245 7.11083 5.52897 7.66894 6.11066 8.03166C6.23617 8.39216 6.63138 9.50837 6.9091 10.0642L6.67678 10.9472C6.62604 11.1079 6.48629 11.2254 6.31851 11.2481C5.19429 11.4012 4.27435 11.5592 3.53021 11.8093C3.53021 11.808 3.34996 10.8164 3.34951 10.8155C3.29611 10.5244 3.05845 10.2592 2.6975 10.0874C1.71882 9.59827 -0.26437 9.98903 0.0293693 11.2988C0.0605235 11.4502 0.810894 15.3667 0.869197 15.6631C0.78419 15.6858 0.712091 15.7499 0.683162 15.8389C0.306641 17.0468 0.426808 18.8769 1.63603 19.6513L1.85678 20.8C1.87592 20.8997 1.9498 20.9798 2.04771 21.0069C4.39006 21.6576 6.73642 21.9918 9.02135 21.9999C11.3659 22.0079 13.7127 21.6736 16.0012 21.0056C16.0974 20.9776 16.1699 20.8979 16.1886 20.7995L16.4093 19.6508C17.619 18.876 17.7383 17.0472 17.3627 15.8385C17.3337 15.749 17.2616 15.6849 17.1762 15.6622C17.3404 14.8068 17.8602 12.1071 18.0156 11.2993C18.0427 11.1849 18.0992 10.832 17.8634 10.4937L17.8638 10.4955ZM16.5495 10.4328C17.1223 10.4822 17.5914 10.7296 17.4962 11.1796C17.4637 11.7199 15.6563 11.8796 15.023 12.0052L15.1213 11.4649C15.5148 11.6309 16.9706 11.719 16.7957 11.1649C16.7516 11.0242 16.6021 10.9455 16.4614 10.9891C16.0546 11.1159 15.3216 11.0492 15.221 10.9143C15.2593 10.7011 15.7493 10.35 16.5495 10.4328ZM8.86692 0.541308H9.17891C9.41212 0.535968 9.60305 0.784311 9.58658 1.0371C9.43882 1.83732 9.34936 2.731 9.25323 4.05817C9.23365 4.23975 9.11259 4.26824 8.9675 4.25533C8.8776 4.25533 8.8006 4.16854 8.79259 4.05772C8.71337 2.92772 8.607 1.87115 8.50776 1.31883L8.45924 1.0371C8.44278 0.785201 8.63371 0.535523 8.86692 0.541308ZM5.65581 5.04932C5.76218 4.87886 5.82761 4.76848 5.8325 4.64876C5.90282 2.99403 6.48318 2.13551 7.06042 1.69001C7.13341 2.23654 7.2024 2.96822 7.2696 3.9113C7.27939 4.05861 7.40979 4.16988 7.55488 4.15875C7.7022 4.14852 7.81257 4.02078 7.80234 3.87347C7.7249 2.7853 7.64434 1.97039 7.558 1.3936C7.68306 1.33707 7.81524 1.28945 7.9541 1.24984C8.07827 1.94636 8.15304 2.66647 8.24873 3.94023C8.23805 4.44671 8.57407 4.83257 9.07832 4.78896C9.51938 4.79207 9.8149 4.37772 9.79709 3.94023C9.89278 2.66958 9.96711 1.94992 10.0917 1.24984C10.2301 1.28901 10.3623 1.33707 10.4878 1.39315C10.4015 1.96995 10.3214 2.78396 10.2439 3.87302C10.2337 4.02034 10.3441 4.14807 10.4914 4.15831C10.6365 4.16943 10.7669 4.05817 10.7767 3.91086C10.8439 2.96599 10.9129 2.23387 10.9854 1.68867C11.9174 2.40299 12.1719 3.66607 12.2138 4.64832C12.2115 4.78184 12.3482 4.97766 12.4492 5.14412C10.7424 5.56247 7.32123 5.5558 5.59885 5.141C5.61843 5.10807 5.63935 5.07424 5.65581 5.04843V5.04932ZM6.37681 7.57147C6.37681 7.57147 6.22104 7.49804 6.20724 7.13798C6.18766 6.56252 6.0537 6.53537 5.95178 6.16464C6.14671 6.19579 6.3234 6.02444 6.27356 5.82773C7.72579 6.02177 10.3156 6.02533 11.7714 5.83262C11.7229 6.02934 11.9013 6.19624 12.094 6.16508C11.9926 6.53493 11.8582 6.56341 11.8386 7.13843C11.8257 7.47801 11.6926 7.55812 11.6614 7.57236C11.5604 7.58349 11.5021 7.64891 11.4683 7.74727C11.4451 7.78154 10.8844 9.50659 10.5435 10.026C10.0971 10.5556 7.94832 10.556 7.50192 10.0269C7.16368 9.5106 6.59533 7.77976 6.57664 7.74727C6.54593 7.65737 6.46938 7.59016 6.37637 7.57192L6.37681 7.57147ZM6.39016 11.7786C7.08267 11.6602 7.18904 11.156 7.32879 10.5703C8.23093 11.1057 9.81534 11.1061 10.7175 10.5703C10.8577 11.1564 10.9649 11.6611 11.6561 11.7791C12.5084 11.8952 13.237 12.0132 13.8511 12.1716C10.6432 12.5753 7.40223 12.5753 4.19468 12.1716C4.80842 12.0132 5.53743 11.8952 6.39016 11.7791V11.7786ZM0.620408 10.8013C1.07481 10.1978 2.71886 10.3816 2.82479 10.9143C2.72465 11.0492 1.99164 11.1155 1.58441 10.9891C1.44377 10.9455 1.29378 11.0238 1.25017 11.1649C1.0757 11.7185 2.52927 11.6313 2.92493 11.4649L3.02329 12.0056C2.62451 11.9433 2.21105 11.8721 1.7927 11.7929C0.800658 11.5984 0.3329 11.3901 0.620408 10.8017V10.8013ZM1.12333 16.2448C1.80605 16.4108 2.60181 16.5492 3.37177 16.3031C3.5716 16.239 3.78434 16.3262 3.86623 16.506C4.21872 17.2787 4.29616 18.1029 4.09632 18.957C3.91697 19.459 2.95119 19.5115 2.3913 19.3851C1.06057 19.1096 0.870087 17.2938 1.12333 16.2452V16.2448ZM9.02314 21.4676C6.83789 21.46 4.59346 21.1471 2.35036 20.5378L2.22663 19.8943C3.01616 20.0874 4.37004 19.9891 4.61615 19.078C4.84358 18.1065 4.75457 17.1665 4.35223 16.284C4.15774 15.8585 3.6664 15.648 3.20888 15.7944C2.62985 15.98 1.99698 15.8954 1.43309 15.769L0.732119 12.124C6.19122 13.3025 11.8542 13.3025 17.3137 12.124L16.6127 15.769C16.0493 15.8959 15.416 15.98 14.8374 15.7948C14.3799 15.6484 13.8885 15.8589 13.694 16.2844C13.2917 17.167 13.2027 18.1069 13.4297 19.078C13.6767 19.9895 15.0292 20.0874 15.8192 19.8943L15.695 20.5401C13.5058 21.1636 11.2618 21.4747 9.02314 21.4676ZM16.7632 18.4247C16.42 19.4777 14.9366 19.6847 14.1391 19.2053C14.0425 19.1501 13.9731 19.0594 13.9491 18.9561C13.7492 18.1025 13.8267 17.2778 14.1791 16.5056C14.261 16.3222 14.4849 16.2395 14.6736 16.3027C15.4436 16.5488 16.2393 16.4108 16.9225 16.2443C17.097 16.9489 17.044 17.6645 16.7632 18.4242V18.4247Z" fill="url(#paint0_linear_1144_18176)"/>
<defs>
<linearGradient id="paint0_linear_1144_18176" x1="9.02083" y1="0" x2="9.02083" y2="22" gradientUnits="userSpaceOnUse">
<stop stop-color="#E527BB"/>
<stop offset="1" stop-color="#A78BEF"/>
</linearGradient>
</defs>
</svg>
