<svg width="543" height="329" viewBox="0 0 543 329" fill="none" xmlns="http://www.w3.org/2000/svg">
<g clip-path="url(#clip0_1089_9900)">
<path opacity="0.2" d="M127.492 328.58L412.142 311.93C487.412 307.53 545.652 243.73 542.512 168.39C539.872 105.08 517.192 37.64 440.912 8.81999C387.262 -11.45 317.592 5.13999 273.402 38.85C262.782 46.95 253.022 56.24 241.612 63.17C215.022 79.32 191.672 68.17 163.972 63.88C105.412 54.79 46.9621 73.46 16.7021 127.43C-29.7579 210.35 25.0421 334.57 127.492 328.58Z" fill="#999999"/>
<g clip-path="url(#clip1_1089_9900)">
<path d="M108.223 252.809L109.226 218.69C109.226 218.69 112.587 216.863 116.016 218.69L115.971 219.299C116.568 219.649 117.166 220.1 117.775 220.675C117.775 220.675 116.659 241.891 116.704 252.347L108.223 252.809Z" fill="#FFF1F9"/>
<path d="M108.039 225.875L107.633 225.119C107.734 225.04 110.17 223.111 116.351 224.713L116.215 225.604C110.385 224.081 108.061 225.864 108.039 225.875Z" fill="#E0C5D5"/>
<path d="M107.048 246.042L106.777 245.162C106.879 245.117 109.326 243.955 115.563 244.779L115.507 245.715C109.473 244.925 107.071 246.031 107.048 246.042Z" fill="#E0C5D5"/>
<path d="M109.215 218.679L108.211 252.798L110.331 252.719C110.342 251.851 110.365 250.903 110.365 249.865C110.557 228.334 111.752 219.231 112.045 217.9C110.399 218.047 109.215 218.679 109.215 218.679Z" fill="#D4B6C7"/>
<path d="M108.039 225.875L107.633 225.119C107.734 225.04 110.17 223.111 116.351 224.713L116.215 225.604C110.385 224.081 108.061 225.864 108.039 225.875Z" fill="#E527BB"/>
<path d="M107.048 246.042L106.777 245.162C106.879 245.117 109.326 243.955 115.563 244.779L115.507 245.715C109.473 244.925 107.071 246.031 107.048 246.042Z" fill="#E527BB"/>
<path d="M109.215 218.679L108.211 252.798L110.331 252.719C110.342 251.851 110.365 250.903 110.365 249.865C110.557 228.334 111.752 219.231 112.045 217.9C110.399 218.047 109.215 218.679 109.215 218.679Z" fill="#D4B6C7"/>
<path d="M108.426 245.67C108.933 245.58 109.599 245.489 110.433 245.455C110.433 245.14 110.445 244.824 110.445 244.508C109.633 244.542 108.978 244.621 108.448 244.711L108.426 245.67Z" fill="#D0AFC0"/>
<path d="M111.358 224.093C110.389 224.138 109.622 224.285 109.058 224.465L109.035 225.424C109.554 225.243 110.298 225.074 111.291 225.018C111.302 224.691 111.325 224.386 111.358 224.093Z" fill="#D0AFC0"/>
<path d="M116.69 250.508C116.769 239.59 117.762 220.664 117.762 220.664C117.153 220.089 116.555 219.637 115.957 219.288C115.957 219.288 114.999 235.349 114.762 250.125L116.69 250.508Z" fill="#E527BB"/>
<path d="M94.9492 251.851C94.9492 251.851 94.9943 223.777 95.5357 199.064C95.5357 199.064 100.182 196.177 105.438 197.395L105.393 198.264C106.825 198.624 108.325 199.245 109.836 200.226C109.836 200.226 109.205 235.834 108.63 252.042L94.9492 251.851Z" fill="#FFF1F9"/>
<path d="M104.309 251.546C104.309 251.693 104.309 251.84 104.309 251.986L108.64 252.054C109.215 235.857 109.846 200.237 109.846 200.237C108.346 199.256 106.835 198.647 105.403 198.275C105.403 198.275 104.286 222.796 104.309 251.546Z" fill="#E0C5D5"/>
<path d="M105.403 198.275C105.403 198.275 104.297 222.796 104.309 251.535C104.309 251.682 104.309 251.828 104.309 251.975L105.414 251.986C105.391 251.061 105.38 250.069 105.358 249.02C104.658 218.51 106.756 201.399 107.106 198.816C106.53 198.602 105.955 198.422 105.403 198.275Z" fill="#D4B6C7"/>
<path d="M102.597 205.166C102.529 209.024 101.977 237.853 101.672 249.561L102.416 249.595C102.732 237.064 103.319 205.053 103.319 204.749L103.33 204.309L102.969 204.298C98.8187 204.208 96.4729 205.076 95.4015 205.651C95.3902 205.978 95.3902 206.305 95.3789 206.621C96.1345 206.181 98.3225 205.132 102.597 205.166Z" fill="#E527BB"/>
<path d="M100.037 242.545L100.477 220.867H100.105C97.8716 220.867 96.146 221.239 95.1648 221.51C95.1648 221.825 95.1535 222.13 95.1535 222.435C95.9994 222.186 97.6234 221.814 99.7324 221.769L99.3152 241.609C98.537 241.62 96.6535 241.688 94.9844 241.959C94.9844 242.286 94.9844 242.59 94.9844 242.906C97.0821 242.545 99.6422 242.545 99.6761 242.545H100.037Z" fill="#E527BB"/>
<path d="M81.4599 251.93C81.381 242.94 79.8923 218.487 79.7344 208.629C79.7344 208.629 80.5577 207.997 82.193 207.445C82.193 207.445 82.0464 206.576 82.1592 206.542C84.1441 205.933 88.0463 205.606 91.5989 207.14C91.5989 207.14 91.7004 233.872 92.738 251.76L81.4599 251.93Z" fill="#FFF1F9"/>
<path d="M83.6377 251.896L84.7543 251.885C84.6641 249.866 84.54 247.147 84.3934 243.64C84.0212 234.853 82.2054 207.445 82.2054 207.445C81.7205 207.614 81.3032 207.783 80.9648 207.941C81.8896 218.002 83.1302 241.767 83.6377 251.896Z" fill="#E0C5D5"/>
<path d="M92.0915 236.353C90.8847 236.218 88.6178 235.992 86.4299 235.992H86.0352L86.6329 250.576L87.3772 250.509L86.8133 236.917C88.9223 236.94 91.0313 237.154 92.1253 237.278C92.114 236.974 92.1028 236.658 92.0915 236.353Z" fill="#E527BB"/>
<path d="M84.6836 209.701L86.0031 233.691H86.3415C86.3753 233.691 89.6347 233.691 92.0256 233.917C92.0143 233.612 92.0143 233.297 92.0031 232.992C90.0407 232.812 87.5708 232.778 86.6911 232.778L85.4618 210.592C88.3828 210.626 90.5708 211.099 91.6422 211.381C91.6422 211.065 91.6422 210.761 91.6309 210.479C90.4241 210.174 88.146 209.712 85.0896 209.712H84.6836V209.701Z" fill="#E527BB"/>
<path d="M91.5999 207.129C91.1262 206.926 90.6526 206.757 90.1676 206.61C90.0887 209.249 89.5586 226.518 89.5586 235.913C89.5586 242.636 89.7616 248.49 89.9082 251.794L92.739 251.749C91.7014 233.872 91.5999 207.129 91.5999 207.129Z" fill="#E0C5D5"/>
<path d="M92.1079 236.387C92.1079 236.376 92.1079 236.364 92.1079 236.353C91.4876 236.285 90.5966 236.195 89.5703 236.116C89.5703 236.432 89.5703 236.737 89.5703 237.041C90.6192 237.12 91.5327 237.21 92.1304 237.278C92.1192 236.985 92.1079 236.691 92.1079 236.387Z" fill="#D4B6C7"/>
<path d="M92.0064 232.981C91.2282 232.913 90.3823 232.868 89.5816 232.834C89.5816 233.15 89.5816 233.454 89.5703 233.759C90.3936 233.793 91.2507 233.838 92.0289 233.917C92.0177 233.601 92.0177 233.285 92.0064 232.981Z" fill="#D4B6C7"/>
<path d="M91.6336 211.37C91.6336 211.359 91.6336 211.359 91.6336 211.347C91.6336 211.257 91.6336 211.156 91.6336 211.065C91.6336 210.862 91.6336 210.659 91.6336 210.468C91.2276 210.366 90.7088 210.242 90.0772 210.129C90.066 210.411 90.066 210.716 90.0547 211.02C90.7088 211.133 91.2389 211.257 91.6336 211.37Z" fill="#D4B6C7"/>
<path d="M119.466 266.886L120.548 247.903H79L80.0827 266.886H119.466Z" fill="#E527BB"/>
<path d="M91.5413 266.886C92.3082 265.318 92.827 263.525 92.8383 261.449C92.8947 252.742 82.1016 251.005 82.1016 251.005L83.0151 266.886H91.5413Z" fill="#CE19AC"/>
<path d="M107.319 266.886H119.466L120.548 247.903H79L107.906 252.708L107.319 266.886Z" fill="#CE19AC"/>
<path opacity="0.4" d="M322.496 40.8181L339.661 57.5451L370.349 57.1052L388.958 75.7158L379.462 81.6373L323.094 76.3925L322.496 40.8181Z" fill="#B6B0CD"/>
<path opacity="0.4" d="M388.957 82.72H258.098V98.4769H388.957V82.72Z" fill="#B6B0CD"/>
<path d="M293.735 40.8294H287.453L287.441 37.9983H293.723L293.735 40.8294Z" fill="#F8F6FB"/>
<path d="M294.729 37.9983H286.812L286.801 35.6748H294.718L294.729 37.9983Z" fill="#F8F6FB"/>
<path d="M294.053 40.8294H290.218L290.207 37.9983H294.042L294.053 40.8294Z" fill="#CCC5D7"/>
<path d="M294.729 37.9983H289.891V35.6748H294.718L294.729 37.9983Z" fill="#CCC5D7"/>
<path d="M322.495 40.8181H290.656L287.363 52.4469H328.043L322.495 40.8181Z" fill="#D9D2E3"/>
<path d="M289.283 52.4468H275.219V75.772H289.283V52.4468Z" fill="#F8F6FB"/>
<path d="M278.893 40.8181L273.445 52.4469H287.362L290.656 40.8181H278.893Z" fill="#F8F6FB"/>
<path d="M332.689 64.3689H313.539V75.7721H332.689V64.3689Z" fill="#D9D2E3"/>
<path d="M330.806 58.3345H314.261L312.547 64.3688H333.682L330.806 58.3345Z" fill="#D9D2E3"/>
<path d="M275.219 64.3689H268.023V75.7721H275.219V64.3689Z" fill="#F8F6FB"/>
<path d="M269.94 58.3345L267.098 64.3688H275.218V58.3345H269.94Z" fill="#F8F6FB"/>
<path d="M312.548 64.3688L314.262 58.3345H326.149L326.127 52.4468H289.281V75.7607H313.54V64.3688H312.548Z" fill="#CCC5D7"/>
<path d="M295.903 72.7606H291.944L291.91 64.4817H295.869L295.903 72.7606Z" fill="#B5ADC0"/>
<path d="M303.063 72.7606H299.104L299.07 64.4817H303.029L303.063 72.7606Z" fill="#B5ADC0"/>
<path d="M325.88 75.7609H320.444L320.41 66.9067H325.846L325.88 75.7609Z" fill="#B5ADC0"/>
<path d="M295.856 61.3123H291.898L291.875 54.8494H295.834L295.856 61.3123Z" fill="#B5ADC0"/>
<path d="M284.309 72.7606H280.35L280.316 64.4817H284.275L284.309 72.7606Z" fill="#CCC5D7"/>
<path d="M284.262 61.3123H280.303L280.27 54.8494H284.228L284.262 61.3123Z" fill="#CCC5D7"/>
<path d="M303.02 61.3123H299.062L299.039 54.8494H302.998L303.02 61.3123Z" fill="#B5ADC0"/>
<path d="M318.423 71.9936H315.48L315.457 66.9067H318.401L318.423 71.9936Z" fill="#B5ADC0"/>
<path d="M273.142 71.9936H270.198L270.176 66.9067H273.119L273.142 71.9936Z" fill="#CCC5D7"/>
<path d="M330.842 71.9936H327.909L327.887 66.9067H330.83L330.842 71.9936Z" fill="#B5ADC0"/>
<path d="M308.092 52.4468H311.713L311.679 58.3006H308.059L308.092 52.4468Z" fill="#B5ADC0"/>
<path d="M321.143 52.4468H324.752L324.718 58.3006H321.109L321.143 52.4468Z" fill="#B5ADC0"/>
<path d="M316.788 52.4468H320.408L320.374 58.3006H316.754L316.788 52.4468Z" fill="#B5ADC0"/>
<path d="M312.448 52.4468H316.057L316.023 58.3006H312.414L312.448 52.4468Z" fill="#B5ADC0"/>
<path d="M313.55 64.3689H306.242V75.7721H313.55V64.3689Z" fill="#F8F6FB"/>
<path d="M308.151 58.3345L305.32 64.3688H312.55L314.264 58.3345H308.151Z" fill="#F8F6FB"/>
<path d="M311.329 71.9936H308.386L308.363 66.9067H311.307L311.329 71.9936Z" fill="#CCC5D7"/>
<path d="M326.138 52.3754L289.281 52.5188L289.285 53.3873L326.141 53.2439L326.138 52.3754Z" fill="#B5ADC0"/>
<path d="M289.283 52.4468H275.219V53.3942H289.283V52.4468Z" fill="#CCC5D7"/>
<path d="M332.689 64.3689H313.539V65.2148H332.689V64.3689Z" fill="#B5ADC0"/>
<path d="M313.55 64.3689H306.242V65.2148H313.55V64.3689Z" fill="#CCC5D7"/>
<path d="M293.735 38.754H287.453L287.441 37.9983H293.723L293.735 38.754Z" fill="#CCC5D7"/>
<path d="M294.053 38.754H290.218L290.207 37.9983H294.042L294.053 38.754Z" fill="#B5ADC0"/>
<path d="M275.219 64.3689H268.023V65.3276H275.219V64.3689Z" fill="#CCC5D7"/>
<path d="M369.635 62.2372V58.2669H370.346C370.346 57.5112 370.346 57.1165 370.346 57.1165H337.921C337.357 57.1165 336.906 57.5676 336.906 58.1316V62.3613C336.906 62.9252 337.357 63.3764 337.921 63.3764H370.346C370.346 63.3764 370.346 62.9816 370.346 62.2259H369.635V62.2372Z" fill="#E527BB"/>
<path d="M337.921 57.1052H352.73V63.3764H337.921C337.358 63.3764 336.906 62.9253 336.906 62.3613V58.1316C336.895 57.5677 337.358 57.1052 337.921 57.1052Z" fill="#E527BB"/>
<path opacity="0.5" d="M368.777 62.2373H338.428C338.067 62.2373 337.785 61.9441 337.785 61.5944V58.91C337.785 58.5491 338.078 58.2671 338.428 58.2671H368.777V62.2373Z" fill="#635691"/>
<path d="M369.637 62.2373H339.287C338.926 62.2373 338.645 61.9441 338.645 61.5944V58.91C338.645 58.5491 338.938 58.2671 339.287 58.2671H369.637V62.2373Z" fill="#E4C3B9"/>
<path d="M369.635 58.2556H353.406V62.2259H369.635V58.2556Z" fill="#E4C3B9"/>
<path d="M369.635 58.2556H353.406V62.2259H369.635V58.2556Z" fill="#FFE6D5"/>
<path d="M353.96 58.2556H339.287C338.926 58.2556 338.645 58.5489 338.645 58.8985V59.8121C338.645 59.4512 338.938 59.1692 339.287 59.1692H353.96V58.2556Z" fill="#BB9B93"/>
<path d="M339.738 59.9815C339.738 59.9815 340.167 60.0153 340.81 60.0492C341.453 60.0604 342.31 60.083 343.167 60.1056C344.024 60.083 344.881 60.0604 345.524 60.0492C346.167 60.0266 346.595 59.9815 346.595 59.9815C346.595 59.9815 346.167 59.9477 345.524 59.9138C344.881 59.9025 344.024 59.88 343.167 59.8574C342.31 59.88 341.453 59.9025 340.81 59.9138C340.167 59.9477 339.738 59.9815 339.738 59.9815Z" fill="#BB9B93"/>
<path d="M341.781 61.5042C341.781 61.5042 342.413 61.538 343.349 61.5719C344.285 61.5832 345.548 61.6057 346.8 61.6283C348.052 61.6057 349.315 61.5832 350.251 61.5719C351.187 61.5493 351.819 61.5042 351.819 61.5042C351.819 61.5042 351.187 61.4704 350.251 61.4365C349.315 61.4252 348.052 61.4027 346.8 61.3801C345.548 61.4027 344.296 61.4252 343.349 61.4365C342.402 61.4591 341.781 61.5042 341.781 61.5042Z" fill="#BB9B93"/>
<path d="M354.219 60.7145C354.219 60.7145 355.019 60.7371 356.215 60.7709C357.41 60.7822 359.012 60.8048 360.613 60.8161C362.215 60.7935 363.816 60.7822 365.012 60.7709C366.207 60.7371 367.008 60.7145 367.008 60.7145C367.008 60.7145 366.207 60.692 365.012 60.6582C363.816 60.6469 362.215 60.6243 360.613 60.613C359.012 60.6356 357.41 60.6469 356.215 60.6582C355.019 60.692 354.219 60.7145 354.219 60.7145Z" fill="#E4C3B9"/>
<path d="M363.465 59.7783C363.465 59.7783 363.803 59.8121 364.322 59.8347C364.841 59.8459 365.517 59.8685 366.205 59.8798C366.893 59.8572 367.57 59.8459 368.089 59.8347C368.608 59.8121 368.946 59.7783 368.946 59.7783C368.946 59.7783 368.608 59.7444 368.089 59.7219C367.57 59.7106 366.893 59.688 366.205 59.6768C365.517 59.6993 364.841 59.7106 364.322 59.7219C363.814 59.7444 363.465 59.7783 363.465 59.7783Z" fill="#E4C3B9"/>
<path d="M356.293 61.5378C356.293 61.5378 356.812 61.5716 357.601 61.5942C358.391 61.6055 359.428 61.628 360.477 61.6393C361.526 61.6167 362.564 61.6055 363.353 61.5942C364.143 61.5716 364.661 61.5378 364.661 61.5378C364.661 61.5378 364.143 61.504 363.353 61.4814C362.564 61.4701 361.526 61.4476 360.477 61.4363C359.428 61.4588 358.391 61.4701 357.601 61.4814C356.823 61.504 356.293 61.5378 356.293 61.5378Z" fill="#E4C3B9"/>
<path d="M369.635 58.2556H353.406V59.1579H369.635V58.2556Z" fill="#E4C3B9"/>
<path d="M331.438 66.0497V64.2224H330.75C330.75 63.4893 330.75 63.4216 330.75 63.4216H374.588C375.129 63.4216 375.58 63.7938 375.58 64.2563V66.0158C375.58 66.4783 375.141 66.8505 374.588 66.8505H330.75C330.75 66.8505 330.75 66.7828 330.75 66.0497H331.438Z" fill="#A78BEF"/>
<path opacity="0.3" d="M332.273 66.0496H374.093C374.442 66.0496 374.713 65.7676 374.713 65.4292V64.854C374.713 64.5043 374.431 64.2336 374.093 64.2336H332.273V66.0496Z" fill="#B9305E"/>
<path d="M331.438 66.0496H373.257C373.606 66.0496 373.877 65.7676 373.877 65.4292V64.854C373.877 64.5043 373.595 64.2336 373.257 64.2336H331.438V66.0496Z" fill="#FFE6D5"/>
<path d="M330.75 64.2224C330.75 63.4893 330.75 63.4216 330.75 63.4216H352.889V66.8505H330.75C330.75 66.8505 330.75 66.7828 330.75 66.0497H331.438V64.2224H330.75Z" fill="#A78BEF"/>
<path d="M353.272 64.2224H331.438V66.0496H353.272V64.2224Z" fill="#E4C3B9"/>
<path d="M353.272 64.2224H331.438V66.0496H353.272V64.2224Z" fill="#E4C3B9"/>
<path d="M352.742 64.2224H373.257C373.607 64.2224 373.877 64.5044 373.877 64.8428V65.7338C373.877 65.3842 373.595 65.1135 373.257 65.1135H352.742V64.2224Z" fill="#E4C3B9"/>
<path d="M353.272 64.2224H331.438V65.0909H353.272V64.2224Z" fill="#BB9B93"/>
<path d="M330.242 74.1253V68.4519H329.238C329.238 67.3691 329.238 66.8052 329.238 66.8052H375.512C376.313 66.8052 376.967 67.4594 376.967 68.2602V74.3058C376.967 75.1066 376.313 75.7608 375.512 75.7608H329.238C329.238 75.7608 329.238 75.1968 329.238 74.1141H330.242V74.1253Z" fill="#E527BB"/>
<path opacity="0.3" d="M331.473 74.1253H374.792C375.299 74.1253 375.717 73.708 375.717 73.2004V69.3768C375.717 68.8692 375.299 68.4519 374.792 68.4519H331.473V74.1253Z" fill="#B54231"/>
<path d="M330.242 74.1253H373.561C374.069 74.1253 374.486 73.708 374.486 73.2004V69.3768C374.486 68.8692 374.069 68.4519 373.561 68.4519H330.242V74.1253Z" fill="#FFE6D5"/>
<path opacity="0.3" d="M329.238 68.4519C329.238 67.3691 329.238 66.8052 329.238 66.8052H352.855V75.7608H329.238C329.238 75.7608 329.238 75.1968 329.238 74.1141H330.242V68.4407H329.238V68.4519Z" fill="#B54231"/>
<path d="M353.407 68.4519H330.242V74.1253H353.407V68.4519Z" fill="#E4C3B9"/>
<path d="M353.407 68.4519H330.242V74.1253H353.407V68.4519Z" fill="#E4C3B9"/>
<path d="M352.617 68.4519H373.549C374.057 68.4519 374.474 68.8692 374.474 69.3768V70.6852C374.474 70.1776 374.057 69.7603 373.549 69.7603H352.617V68.4519Z" fill="#E4C3B9"/>
<path d="M372.915 70.9222C372.915 70.9222 372.306 70.8658 371.393 70.8207C370.479 70.7755 369.25 70.753 368.032 70.7417C366.814 70.753 365.585 70.7755 364.671 70.8207C363.757 70.8658 363.148 70.9222 363.148 70.9222C363.148 70.9222 363.757 70.9786 364.671 71.0237C365.585 71.0688 366.814 71.0914 368.032 71.1026C369.25 71.0914 370.479 71.0688 371.393 71.0237C372.295 70.9673 372.915 70.9222 372.915 70.9222Z" fill="#E4C3B9"/>
<path d="M370.007 73.0765C370.007 73.0765 369.116 73.0313 367.774 72.9749C366.432 72.9298 364.638 72.9073 362.845 72.896C361.052 72.9073 359.259 72.9298 357.917 72.9749C356.575 73.0313 355.684 73.0765 355.684 73.0765C355.684 73.0765 356.575 73.1216 357.917 73.178C359.259 73.2231 361.052 73.2456 362.845 73.2569C364.638 73.2456 366.432 73.2231 367.774 73.178C369.104 73.1216 370.007 73.0765 370.007 73.0765Z" fill="#E4C3B9"/>
<path d="M352.247 71.9596C352.247 71.9596 351.108 71.9145 349.394 71.8468C347.679 71.7904 345.39 71.7679 343.112 71.7566C340.822 71.7679 338.544 71.7904 336.83 71.8468C335.116 71.9145 333.977 71.9596 333.977 71.9596C333.977 71.9596 335.116 72.0047 336.83 72.0724C338.544 72.1288 340.834 72.1514 343.112 72.1626C345.401 72.1514 347.679 72.1288 349.394 72.0724C351.108 72.0047 352.247 71.9596 352.247 71.9596Z" fill="#BB9B93"/>
<path d="M339.039 70.6175C339.039 70.6175 338.554 70.5724 337.821 70.5498C337.088 70.5385 336.107 70.516 335.137 70.4934C334.155 70.516 333.185 70.5385 332.452 70.5498C331.719 70.5836 331.234 70.6175 331.234 70.6175C331.234 70.6175 331.719 70.6626 332.452 70.6852C333.185 70.6964 334.167 70.719 335.137 70.7416C336.118 70.719 337.088 70.6964 337.821 70.6852C338.554 70.6626 339.039 70.6175 339.039 70.6175Z" fill="#BB9B93"/>
<path d="M349.28 73.1328C349.28 73.1328 348.536 73.0989 347.419 73.0425C346.302 72.9974 344.802 72.9861 343.314 72.9749C341.825 72.9861 340.325 72.9974 339.209 73.0425C338.092 73.0989 337.348 73.1328 337.348 73.1328C337.348 73.1328 338.092 73.1666 339.209 73.223C340.325 73.2681 341.825 73.2794 343.314 73.2907C344.802 73.2794 346.302 73.2681 347.419 73.223C348.536 73.1779 349.28 73.1328 349.28 73.1328Z" fill="#BB9B93"/>
<path d="M353.407 68.4519H330.242V69.7377H353.407V68.4519Z" fill="#BB9B93"/>
<path d="M287.194 75.7161H257.668V82.7204H287.194V75.7161Z" fill="#F9D4BC"/>
<path d="M388.945 75.7158H287.25V82.7202H388.945V75.7158Z" fill="#DEAC8F"/>
<path d="M388.945 75.7158H287.25V77.2949H388.945V75.7158Z" fill="#F9D4BC"/>
<path d="M258.1 77.2903H287.254V75.7112H258.1V77.2903Z" fill="#FFE8D8"/>
<path d="M418.415 217.133C415.573 224.893 417.513 235.676 418.674 243.673C420.772 258.133 426.58 271.623 428.734 285.947C428.87 286.85 430.437 286.737 430.37 285.801C428.757 263.22 413.419 240.865 418.922 217.291C418.99 216.975 418.528 216.818 418.415 217.133Z" fill="black"/>
<path d="M417.973 220.224C421.063 218.216 422.09 212.069 420.77 211.573C419.45 211.076 416.71 215.013 417.973 220.224Z" fill="#39B039"/>
<path d="M412.686 221.137C411.817 222.119 412.528 228.063 417.31 230.804C417.185 222.717 413.407 220.314 412.686 221.137Z" fill="#39B039"/>
<path d="M422.892 229.743C421.347 229.924 417.05 235.327 418.764 241.056C425.339 234.3 424.189 229.585 422.892 229.743Z" fill="#39B039"/>
<path d="M412.606 243.335C411.839 244.7 414.557 251.219 421.313 252.945C418.651 243.82 413.26 242.184 412.606 243.335Z" fill="#39B039"/>
<path d="M426.657 247.745C424.932 247.993 420.804 254.219 423.533 260.648C430.063 252.832 428.101 247.542 426.657 247.745Z" fill="#39B039"/>
<path d="M417.141 264.438C416.465 265.938 419.95 272.548 427.201 273.8C423.536 264.427 417.705 263.175 417.141 264.438Z" fill="#39B039"/>
<path d="M416.758 230.623C416.916 230.725 417.062 230.804 417.22 230.759L416.758 230.623Z" fill="#968FCE"/>
<path d="M416.758 230.624C416.622 230.521 416.679 230.578 416.758 230.624V230.624Z" fill="#968FCE"/>
<path d="M460.707 223.292C456.128 245.286 441.602 269.378 446.914 292.241C447.128 293.177 448.752 292.918 448.594 291.948C444.635 267.517 459.759 247.057 461.372 223.348C461.406 222.976 460.786 222.92 460.707 223.292Z" fill="black"/>
<path d="M460.831 226.123C463.324 223.089 462.275 216.434 460.741 216.333C459.207 216.231 457.741 221.149 460.831 226.123Z" fill="#39B039"/>
<path d="M463.74 239.342C464.845 240.662 462.443 247.237 454.582 249.279C456.567 240.109 462.815 238.237 463.74 239.342Z" fill="#39B039"/>
<path d="M456.319 261.066C457.762 262.351 456.217 269.954 447.883 273.371C448.526 262.983 455.112 259.994 456.319 261.066Z" fill="#39B039"/>
<path d="M455.654 227.736C457.211 227.927 460.436 233.465 457.312 239.319C452.045 232.394 454.346 227.578 455.654 227.736Z" fill="#39B039"/>
<path d="M449.192 245.343C451.165 245.512 454.966 252.29 450.703 259.757C444.365 251.332 447.534 245.207 449.192 245.343Z" fill="#39B039"/>
<path d="M440.622 177.623C436.979 194.485 433.99 211.246 434.78 228.65C435.648 247.869 439.889 266.604 439.81 285.959C439.799 287.606 442.359 287.617 442.381 285.959C442.517 267.314 438.051 249.651 436.573 231.187C435.096 212.78 440.329 195.737 441.479 177.747C441.524 177.251 440.735 177.138 440.622 177.623Z" fill="black"/>
<path d="M440.824 180.025C443.801 176.89 442.639 169.919 440.835 169.795C439.03 169.671 437.237 174.78 440.824 180.025Z" fill="#39B039"/>
<path d="M446.925 183.702C448.075 184.909 446.271 191.507 438.906 194.09C440.124 184.988 445.966 182.698 446.925 183.702Z" fill="#39B039"/>
<path d="M431.94 193.165C434.026 193.188 439.214 199.245 436.09 206.486C427.97 199.064 430.191 193.154 431.94 193.165Z" fill="#39B039"/>
<path d="M427.336 219.333C429.682 218.927 437.205 224.679 435.727 233.454C424.539 226.777 425.363 219.671 427.336 219.333Z" fill="#39B039"/>
<path d="M429.49 252.155C432.039 251.817 440.599 258.144 439.471 267.292C426.84 259.859 427.359 252.437 429.49 252.155Z" fill="#39B039"/>
<path d="M443.508 206.193C441.32 205.967 434.531 211.607 436.155 219.457C446.316 212.769 445.335 206.385 443.508 206.193Z" fill="#39B039"/>
<path d="M442.391 231.154C439.955 231.74 434.226 240.391 438.229 248.196C447.331 237.132 444.444 230.657 442.391 231.154Z" fill="#39B039"/>
<path d="M449.925 326.022H425.057C420.726 313.265 417.974 298.794 416.812 282.586H458.158C457.188 297.802 454.628 312.363 449.925 326.022Z" fill="#E31E23"/>
<path d="M446.7 282.575C445.222 328.109 427.674 322.255 423.117 319.751C423.726 321.883 424.369 323.981 425.057 326.011H449.925C454.628 312.352 457.188 297.791 458.169 282.575H446.7Z" fill="#B9275C"/>
<path d="M426.661 296.302C427.507 304.423 426.548 307.423 425.003 307.581C423.458 307.739 422.026 306.148 421.056 296.877C420.086 287.605 421.169 285.756 422.714 285.598C424.259 285.44 425.815 288.181 426.661 296.302Z" fill="#FFC4E7"/>
<path d="M428.081 313.367C428.442 315.893 427.697 316.908 426.615 317.066C425.532 317.224 424.585 316.807 424.179 313.92C423.773 311.032 424.562 310.378 425.645 310.22C426.716 310.062 427.72 310.84 428.081 313.367Z" fill="#FFC4E7"/>
<path d="M194.161 67.0874H113.195V129.698H194.161V67.0874Z" fill="#E527BB"/>
<path d="M192.007 67.0874H113.195V127.104H192.007V67.0874Z" fill="#F2EDF2"/>
<path d="M191.994 127.115H113.194V82.0435C113.194 82.0435 111.683 124.701 153.311 124.701C194.938 124.701 192.006 82.0435 192.006 82.0435V127.115H191.994Z" fill="#EADEE8"/>
<path d="M116.329 71.4638C117.089 71.4638 117.705 70.8477 117.705 70.0877C117.705 69.3278 117.089 68.7117 116.329 68.7117C115.569 68.7117 114.953 69.3278 114.953 70.0877C114.953 70.8477 115.569 71.4638 116.329 71.4638Z" fill="#3F3B51"/>
<path d="M188.86 71.4638C189.62 71.4638 190.236 70.8477 190.236 70.0877C190.236 69.3278 189.62 68.7117 188.86 68.7117C188.1 68.7117 187.484 69.3278 187.484 70.0877C187.484 70.8477 188.1 71.4638 188.86 71.4638Z" fill="#3F3B51"/>
<path d="M162.769 102.752H180.171C180.341 102.752 180.476 102.617 180.476 102.448V93.6836C180.476 93.5144 180.341 93.3791 180.171 93.3791H174.476V87.0064H175.446C175.615 87.0064 175.75 86.871 175.75 86.7018V85.0438C175.75 84.8746 175.615 84.7393 175.446 84.7393H162.769C162.6 84.7393 162.465 84.8746 162.465 85.0438V88.9238C162.465 89.093 162.6 89.2284 162.769 89.2284C162.939 89.2284 163.074 89.093 163.074 88.9238V85.3483H175.141V86.3973H174.171C174.002 86.3973 173.867 86.5326 173.867 86.7018V93.6723C173.867 93.8415 174.002 93.9769 174.171 93.9769H179.867V102.132H163.074V99.9323C163.074 99.7631 162.939 99.6277 162.769 99.6277C162.6 99.6277 162.465 99.7631 162.465 99.9323V102.448C162.465 102.617 162.6 102.752 162.769 102.752Z" fill="#A8A2B4"/>
<path d="M136.696 111.978H162.771C162.94 111.978 163.076 111.843 163.076 111.674V99.9435C163.076 99.7744 162.94 99.639 162.771 99.639C162.602 99.639 162.466 99.7744 162.466 99.9435V111.369H137.001V101.895C137.001 101.726 136.865 101.59 136.696 101.59H121.753V86.9387L121.629 76.1107H162.455V88.9238C162.455 89.093 162.591 89.2284 162.76 89.2284C162.929 89.2284 163.064 89.093 163.064 88.9238V75.8175C163.064 75.6483 162.929 75.5129 162.76 75.5129H121.324C121.155 75.5129 121.02 75.6483 121.02 75.8175C121.02 75.8175 121.144 86.4763 121.144 86.6454V101.895C121.144 102.064 121.279 102.199 121.448 102.199H136.38V111.674C136.392 111.843 136.527 111.978 136.696 111.978Z" fill="#A8A2B4"/>
<path d="M136.695 92.0932C136.864 92.0932 137 91.9579 137 91.7887V75.9415C137 75.7723 136.864 75.637 136.695 75.637C136.526 75.637 136.391 75.7723 136.391 75.9415V91.7887C136.391 91.9579 136.526 92.0932 136.695 92.0932Z" fill="#A8A2B4"/>
<path d="M136.695 102.199C136.864 102.199 137 102.064 137 101.895V97.9811C137 97.8119 136.864 97.6765 136.695 97.6765C136.526 97.6765 136.391 97.8119 136.391 97.9811V101.895C136.391 102.064 136.526 102.199 136.695 102.199Z" fill="#A8A2B4"/>
<path d="M134.146 86.9726H136.808C136.842 86.9726 136.864 86.8372 136.864 86.6681C136.864 86.4989 136.842 86.3635 136.808 86.3635H134.146C134.112 86.3635 134.09 86.4989 134.09 86.6681C134.09 86.8372 134.112 86.9726 134.146 86.9726Z" fill="#A8A2B4"/>
<path d="M121.549 86.9726H129.094C129.184 86.9726 129.251 86.8372 129.251 86.6681C129.251 86.4989 129.184 86.3635 129.094 86.3635H121.549C121.458 86.3635 121.391 86.4989 121.391 86.6681C121.391 86.8372 121.458 86.9726 121.549 86.9726Z" fill="#A8A2B4"/>
<path d="M174.015 102.368C174.139 102.368 174.229 102.267 174.229 102.154V93.6835C174.229 93.5595 174.128 93.4692 174.015 93.4692C173.891 93.4692 173.801 93.5707 173.801 93.6835V102.154C173.801 102.278 173.902 102.368 174.015 102.368Z" fill="#A8A2B4"/>
<path d="M144.781 109.937V107.174C144.781 107.049 144.883 106.959 144.996 106.959H152.089C152.214 106.959 152.304 107.061 152.304 107.174V109.937C152.304 110.061 152.202 110.151 152.089 110.151H144.996C144.883 110.162 144.781 110.061 144.781 109.937ZM151.875 107.399H145.21V109.723H151.875V107.399Z" fill="#A8A2B4"/>
<path d="M148.748 118.693H153V117.035H148.748V118.693Z" fill="#A8A2B4"/>
<path d="M186.262 91.6691V95.9214H187.92V91.6691H186.262Z" fill="#A8A2B4"/>
<path d="M143.902 103.339V99.9323C143.902 99.8083 144.004 99.718 144.117 99.718H152.981C153.105 99.718 153.195 99.8195 153.195 99.9323V103.339C153.195 103.463 153.094 103.553 152.981 103.553H144.117C144.004 103.564 143.902 103.463 143.902 103.339ZM152.756 100.158H144.331V103.124H152.756V100.158Z" fill="#A8A2B4"/>
<path d="M138.918 106.745V103.339C138.918 103.215 139.019 103.124 139.132 103.124H142.493C142.617 103.124 142.707 103.226 142.707 103.339V106.745C142.707 106.869 142.606 106.959 142.493 106.959H139.132C139.019 106.97 138.918 106.869 138.918 106.745ZM142.279 103.564H139.358V106.531H142.279V103.564Z" fill="#A8A2B4"/>
<path d="M154.348 106.745V103.339C154.348 103.215 154.449 103.124 154.562 103.124H157.923C158.047 103.124 158.137 103.226 158.137 103.339V106.745C158.137 106.869 158.036 106.959 157.923 106.959H154.562C154.449 106.97 154.348 106.869 154.348 106.745ZM157.709 103.564H154.788V106.531H157.709V103.564Z" fill="#A8A2B4"/>
<path d="M159.941 111.674V99.9436C159.941 99.8195 160.043 99.7292 160.156 99.7292H162.705C162.829 99.7292 162.919 99.8308 162.919 99.9436V111.685C162.919 111.809 162.817 111.899 162.705 111.899H160.156C160.043 111.888 159.941 111.798 159.941 111.674ZM162.502 100.158H160.381V111.46H162.502V100.158Z" fill="#A8A2B4"/>
<path d="M143.52 89.1155V85.0776C143.52 84.9535 143.621 84.8633 143.734 84.8633H162.771C162.895 84.8633 162.986 84.9648 162.986 85.0776V89.1155C162.986 89.2396 162.884 89.3298 162.771 89.3298H143.734C143.61 89.3298 143.52 89.2396 143.52 89.1155ZM162.557 85.2919H143.948V88.9012H162.546V85.2919H162.557Z" fill="#A8A2B4"/>
<path d="M162.535 88.1455V85.0776C162.535 84.9535 162.637 84.8633 162.749 84.8633H165.84C165.964 84.8633 166.054 84.9648 166.054 85.0776V88.1455C166.054 88.2696 165.952 88.3598 165.84 88.3598H162.761C162.637 88.3598 162.535 88.2583 162.535 88.1455ZM165.614 85.2919H162.975V87.9199H165.614V85.2919Z" fill="#A8A2B4"/>
<path d="M136.469 78.1522V75.8625C136.469 75.7384 136.57 75.6482 136.683 75.6482H138.984C139.108 75.6482 139.198 75.7497 139.198 75.8625V78.1522C139.198 78.2762 139.097 78.3665 138.984 78.3665H136.683C136.57 78.3665 136.469 78.2762 136.469 78.1522ZM138.769 76.0768H136.909V77.9266H138.769V76.0768Z" fill="#A8A2B4"/>
<path d="M158.18 85.0101V75.8176C158.18 75.6935 158.281 75.6033 158.394 75.6033H162.894C163.018 75.6033 163.108 75.7048 163.108 75.8176V85.0101C163.108 85.1341 163.007 85.2244 162.894 85.2244H158.394C158.281 85.2244 158.18 85.1341 158.18 85.0101ZM162.68 76.0319H158.62V84.7845H162.68V76.0319Z" fill="#A8A2B4"/>
<path d="M154.312 81.1862V75.7497C154.312 75.6256 154.414 75.5354 154.527 75.5354H158.373C158.497 75.5354 158.587 75.6369 158.587 75.7497V81.1862C158.587 81.3103 158.485 81.4005 158.373 81.4005H154.527C154.414 81.4118 154.312 81.3103 154.312 81.1862ZM158.158 75.964H154.752V80.9719H158.158V75.964Z" fill="#A8A2B4"/>
<path d="M121.176 84.9423V75.9416C121.176 75.8175 121.277 75.7273 121.39 75.7273H125.236C125.36 75.7273 125.45 75.8288 125.45 75.9416V84.9423C125.45 85.0664 125.349 85.1567 125.236 85.1567H121.39C121.266 85.1567 121.176 85.0664 121.176 84.9423ZM125.022 76.1672H121.616V84.728H125.022V76.1672Z" fill="#A8A2B4"/>
<path d="M121.301 91.4277V86.6679C121.301 86.5438 121.402 86.4536 121.515 86.4536H123.861C123.985 86.4536 124.075 86.5551 124.075 86.6679V91.4277C124.075 91.5518 123.974 91.642 123.861 91.642H121.515C121.402 91.6533 121.301 91.5518 121.301 91.4277ZM123.647 86.8935H121.741V91.2134H123.647V86.8935Z" fill="#A8A2B4"/>
<path d="M130.312 101.861V98.9284C130.312 98.8043 130.414 98.7141 130.527 98.7141H136.752C136.876 98.7141 136.967 98.8156 136.967 98.9284V101.861C136.967 101.985 136.865 102.075 136.752 102.075H130.527C130.414 102.075 130.312 101.985 130.312 101.861ZM136.538 99.1427H130.752V101.635H136.538V99.1427Z" fill="#A8A2B4"/>
<path d="M162.773 92.0369C162.897 92.0369 162.987 91.9354 162.987 91.8226V89.8713C162.987 89.7472 162.886 89.657 162.773 89.657C162.649 89.657 162.559 89.7585 162.559 89.8713V91.8226C162.559 91.9354 162.649 92.0369 162.773 92.0369Z" fill="#A8A2B4"/>
<path d="M162.773 95.5559C162.897 95.5559 162.987 95.4544 162.987 95.3416V93.3903C162.987 93.2663 162.886 93.176 162.773 93.176C162.649 93.176 162.559 93.2775 162.559 93.3903V95.3416C162.559 95.4544 162.649 95.5559 162.773 95.5559Z" fill="#A8A2B4"/>
<path d="M162.773 99.075C162.897 99.075 162.987 98.9735 162.987 98.8607V96.9094C162.987 96.7853 162.886 96.6951 162.773 96.6951C162.649 96.6951 162.559 96.7966 162.559 96.9094V98.8607C162.559 98.9847 162.649 99.075 162.773 99.075Z" fill="#A8A2B4"/>
<path d="M121.526 115.678L180.206 115.554C180.274 115.554 180.341 115.498 180.341 115.419V102.707C180.341 102.639 180.285 102.572 180.206 102.572C180.138 102.572 180.071 102.628 180.071 102.707V115.294L121.661 115.419V101.895C121.661 101.827 121.605 101.76 121.526 101.76C121.458 101.76 121.391 101.816 121.391 101.895V115.543C121.391 115.576 121.402 115.61 121.424 115.644C121.458 115.667 121.492 115.678 121.526 115.678Z" fill="#A8A2B4"/>
<path d="M162.713 111.809H184.413C184.48 111.809 184.548 111.753 184.548 111.674V75.9078C184.548 75.8401 184.491 75.7725 184.413 75.7725H162.894C162.826 75.7725 162.759 75.8289 162.759 75.9078C162.759 75.9755 162.815 76.0432 162.894 76.0432H184.277V111.539H162.713C162.646 111.539 162.578 111.595 162.578 111.674C162.578 111.753 162.646 111.809 162.713 111.809Z" fill="#A8A2B4"/>
<path d="M168.253 94.7849H169.719V93.3186H168.253V94.7849Z" fill="#A8A2B4"/>
<path d="M148.882 81.3875H150.348V79.9212H148.882V81.3875Z" fill="#A8A2B4"/>
<path d="M128.503 94.7224H129.969V93.2561H128.503V94.7224Z" fill="#A8A2B4"/>
<path d="M147.815 102.364H149.281V100.898H147.815V102.364Z" fill="#A8A2B4"/>
<path d="M125.354 82.1211H126.82V80.6548H125.354V82.1211Z" fill="#A8A2B4"/>
<path d="M346.719 103.666H203.949V214.776H346.719V103.666Z" fill="#A78BEF"/>
<path d="M342.827 107.828H207.84V210.637H342.827V107.828Z" fill="#F2EDF2"/>
<path d="M342.827 210.626H207.84V133.431C207.84 133.431 205.246 206.486 276.546 206.486C347.846 206.486 342.827 133.431 342.827 133.431V210.626Z" fill="#EADEE8"/>
<path d="M260.847 169.412H229.674C229.313 169.412 229.031 169.118 229.031 168.769V165.622C229.031 165.261 229.324 164.979 229.674 164.979H239.768V153.079H229.674C229.313 153.079 229.031 152.786 229.031 152.437V135.868C229.031 135.507 229.324 135.225 229.674 135.225H260.847C261.208 135.225 261.49 135.518 261.49 135.868V140.616C261.49 140.977 261.196 141.259 260.847 141.259C260.497 141.259 260.204 140.966 260.204 140.616V136.522H230.317V151.805H240.411C240.772 151.805 241.054 152.098 241.054 152.448V165.633C241.054 165.994 240.76 166.276 240.411 166.276H230.317V168.126H260.204V161.437C260.204 161.076 260.497 160.794 260.847 160.794C261.196 160.794 261.49 161.088 261.49 161.437V168.769C261.49 169.118 261.208 169.412 260.847 169.412Z" fill="#E527BB"/>
<path d="M325.052 186.838H260.846C260.485 186.838 260.203 186.545 260.203 186.195V161.426C260.203 161.065 260.496 160.783 260.846 160.783C261.196 160.783 261.489 161.076 261.489 161.426V185.552H324.409V165.746C324.409 165.385 324.702 165.103 325.052 165.103H334.187V137.559H307.537C307.176 137.559 306.894 137.266 306.894 136.917V119.073H261.489V140.605C261.489 140.966 261.196 141.248 260.846 141.248C260.496 141.248 260.203 140.954 260.203 140.605V118.43C260.203 118.069 260.496 117.787 260.846 117.787H307.549C307.909 117.787 308.191 118.08 308.191 118.43V136.274H334.842C335.202 136.274 335.484 136.567 335.484 136.917V165.746C335.484 166.107 335.191 166.389 334.842 166.389H325.706V186.195C325.695 186.556 325.413 186.838 325.052 186.838Z" fill="#E527BB"/>
<path d="M307.549 186.601C307.188 186.601 306.906 186.308 306.906 185.958V156.012C306.906 155.651 307.199 155.369 307.549 155.369C307.899 155.369 308.192 155.662 308.192 156.012V185.958C308.192 186.308 307.899 186.601 307.549 186.601Z" fill="#E527BB"/>
<path d="M307.549 144.947C307.188 144.947 306.906 144.654 306.906 144.304V136.917C306.906 136.556 307.199 136.274 307.549 136.274C307.899 136.274 308.192 136.567 308.192 136.917V144.304C308.192 144.665 307.899 144.947 307.549 144.947Z" fill="#E527BB"/>
<path d="M325.053 166.423C324.647 166.423 324.309 166.096 324.309 165.678V145.286C324.309 144.88 324.636 144.541 325.053 144.541C325.459 144.541 325.797 144.868 325.797 145.286V165.678C325.797 166.096 325.47 166.423 325.053 166.423Z" fill="#E527BB"/>
<path d="M325.053 166.423H319.447C319.041 166.423 318.703 166.096 318.703 165.678C318.703 165.272 319.03 164.934 319.447 164.934H325.053C325.459 164.934 325.797 165.261 325.797 165.678C325.797 166.096 325.47 166.423 325.053 166.423Z" fill="#E527BB"/>
<path d="M312.682 166.332H307.776C307.415 166.332 307.133 166.039 307.133 165.69C307.133 165.34 307.426 165.047 307.776 165.047H312.682C313.043 165.047 313.324 165.34 313.324 165.69C313.324 166.039 313.043 166.332 312.682 166.332Z" fill="#E527BB"/>
<path d="M334.742 162.712H325.167C324.942 162.712 324.75 162.52 324.75 162.295C324.75 162.069 324.942 161.877 325.167 161.877H334.742C334.968 161.877 335.16 162.069 335.16 162.295C335.16 162.531 334.979 162.712 334.742 162.712Z" fill="#E527BB"/>
<path d="M334.742 159.508H325.167C324.942 159.508 324.75 159.317 324.75 159.091C324.75 158.866 324.942 158.674 325.167 158.674H334.742C334.968 158.674 335.16 158.866 335.16 159.091C335.16 159.328 334.979 159.508 334.742 159.508Z" fill="#E527BB"/>
<path d="M334.742 156.305H325.167C324.942 156.305 324.75 156.114 324.75 155.888C324.75 155.662 324.942 155.471 325.167 155.471H334.742C334.968 155.471 335.16 155.662 335.16 155.888C335.16 156.125 334.979 156.305 334.742 156.305Z" fill="#E527BB"/>
<path d="M334.742 153.102H325.167C324.942 153.102 324.75 152.91 324.75 152.685C324.75 152.459 324.942 152.267 325.167 152.267H334.742C334.968 152.267 335.16 152.459 335.16 152.685C335.16 152.91 334.979 153.102 334.742 153.102Z" fill="#E527BB"/>
<path d="M334.742 149.899H325.167C324.942 149.899 324.75 149.707 324.75 149.482C324.75 149.256 324.942 149.064 325.167 149.064H334.742C334.968 149.064 335.16 149.256 335.16 149.482C335.16 149.707 334.979 149.899 334.742 149.899Z" fill="#E527BB"/>
<path d="M334.742 146.695H325.167C324.942 146.695 324.75 146.504 324.75 146.278C324.75 146.053 324.942 145.861 325.167 145.861H334.742C334.968 145.861 335.16 146.053 335.16 146.278C335.16 146.504 334.979 146.695 334.742 146.695Z" fill="#E527BB"/>
<path d="M240.702 152.854C240.477 152.854 240.285 152.662 240.285 152.437V136.42C240.285 136.195 240.477 136.003 240.702 136.003C240.928 136.003 241.12 136.195 241.12 136.42V152.437C241.12 152.673 240.928 152.854 240.702 152.854Z" fill="#E527BB"/>
<path d="M290.733 130.713H278.023C277.797 130.713 277.605 130.521 277.605 130.296V125.085C277.605 124.859 277.797 124.667 278.023 124.667H290.733C290.959 124.667 291.15 124.859 291.15 125.085V130.296C291.15 130.533 290.97 130.713 290.733 130.713ZM278.44 129.89H290.316V125.513H278.44V129.89Z" fill="#E527BB"/>
<path d="M285.964 198.839H278.352V201.963H285.964V198.839Z" fill="#E527BB"/>
<path d="M218.789 156.244V148.202H215.834V156.244H218.789Z" fill="#E527BB"/>
<path d="M292.313 141.022H276.445C276.219 141.022 276.027 140.83 276.027 140.605V134.176C276.027 133.95 276.219 133.758 276.445 133.758H292.313C292.538 133.758 292.73 133.95 292.73 134.176V140.605C292.73 140.842 292.538 141.022 292.313 141.022ZM276.862 140.199H291.896V134.604H276.862V140.199Z" fill="#E527BB"/>
<path d="M299.859 132.585H293.769C293.543 132.585 293.352 132.394 293.352 132.168V125.096C293.352 124.87 293.543 124.679 293.769 124.679H299.859C300.085 124.679 300.276 124.87 300.276 125.096V132.168C300.276 132.394 300.085 132.585 299.859 132.585ZM294.186 131.751H299.442V125.513H294.186V131.751Z" fill="#E527BB"/>
<path d="M265.516 141.022H260.937C260.711 141.022 260.52 140.842 260.52 140.605V118.43C260.52 118.204 260.7 118.013 260.937 118.013H265.516C265.741 118.013 265.933 118.193 265.933 118.43V140.605C265.933 140.842 265.741 141.022 265.516 141.022ZM261.354 140.199H265.098V118.847H261.354V140.199Z" fill="#E527BB"/>
<path d="M296.824 140.864C294.997 140.864 293.52 139.308 293.52 137.401C293.52 135.495 295.008 133.939 296.824 133.939C298.651 133.939 300.128 135.495 300.128 137.401C300.14 139.308 298.651 140.864 296.824 140.864ZM296.824 134.762C295.459 134.762 294.354 135.946 294.354 137.39C294.354 138.845 295.459 140.018 296.824 140.018C298.189 140.018 299.294 138.834 299.294 137.39C299.305 135.946 298.189 134.762 296.824 134.762Z" fill="#E527BB"/>
<path d="M271.933 140.864C270.106 140.864 268.629 139.308 268.629 137.401C268.629 135.495 270.118 133.939 271.933 133.939C273.76 133.939 275.238 135.495 275.238 137.401C275.238 139.308 273.749 140.864 271.933 140.864ZM271.933 134.762C270.569 134.762 269.463 135.946 269.463 137.39C269.463 138.845 270.569 140.018 271.933 140.018C273.298 140.018 274.403 138.834 274.403 137.39C274.403 135.946 273.287 134.762 271.933 134.762Z" fill="#E527BB"/>
<path d="M294.941 169.118H260.847C260.621 169.118 260.43 168.927 260.43 168.701V161.065C260.43 160.839 260.621 160.648 260.847 160.648H294.941C295.166 160.648 295.358 160.839 295.358 161.065V168.701C295.358 168.938 295.166 169.118 294.941 169.118ZM261.264 168.284H294.523V161.482H261.264V168.284Z" fill="#E527BB"/>
<path d="M260.882 169.118H255.367C255.141 169.118 254.949 168.927 254.949 168.701V162.904C254.949 162.678 255.141 162.486 255.367 162.486H260.882C261.107 162.486 261.299 162.678 261.299 162.904V168.701C261.288 168.938 261.107 169.118 260.882 169.118ZM255.773 168.284H260.453V163.321H255.773V168.284Z" fill="#E527BB"/>
<path d="M307.549 174.848H303.433C303.207 174.848 303.016 174.656 303.016 174.431V170.1C303.016 169.874 303.207 169.682 303.433 169.682H307.549C307.775 169.682 307.967 169.874 307.967 170.1V174.431C307.967 174.668 307.775 174.848 307.549 174.848ZM303.85 174.014H307.132V170.517H303.85V174.014Z" fill="#E527BB"/>
<path d="M268.673 186.612H260.62C260.395 186.612 260.203 186.421 260.203 186.195V168.825C260.203 168.6 260.395 168.408 260.62 168.408H268.673C268.899 168.408 269.09 168.6 269.09 168.825V186.195C269.079 186.432 268.899 186.612 268.673 186.612ZM261.026 185.778H268.244V169.243H261.026V185.778Z" fill="#E527BB"/>
<path d="M269.598 159.385H264.816C264.59 159.385 264.398 159.193 264.398 158.967V153.914C264.398 153.689 264.59 153.497 264.816 153.497H269.598C269.823 153.497 270.015 153.689 270.015 153.914V158.967C270.015 159.204 269.834 159.385 269.598 159.385ZM265.233 158.55H269.192V154.331H265.233V158.55Z" fill="#E527BB"/>
<path d="M280.754 159.385H275.972C275.746 159.385 275.555 159.193 275.555 158.967V153.914C275.555 153.689 275.746 153.497 275.972 153.497H280.754C280.979 153.497 281.171 153.689 281.171 153.914V158.967C281.171 159.204 280.979 159.385 280.754 159.385ZM276.378 158.55H280.337V154.331H276.378V158.55Z" fill="#E527BB"/>
<path d="M291.895 159.385H287.113C286.887 159.385 286.695 159.193 286.695 158.967V153.914C286.695 153.689 286.887 153.497 287.113 153.497H291.895C292.12 153.497 292.312 153.689 292.312 153.914V158.967C292.312 159.204 292.131 159.385 291.895 159.385ZM287.53 158.55H291.488V154.331H287.53V158.55Z" fill="#E527BB"/>
<path d="M307.55 186.736H300.659C300.434 186.736 300.242 186.545 300.242 186.319V176.033C300.242 175.807 300.434 175.615 300.659 175.615H307.55C307.776 175.615 307.968 175.807 307.968 176.033V186.319C307.968 186.556 307.776 186.736 307.55 186.736ZM301.077 185.902H307.133V176.45H301.077V185.902Z" fill="#E527BB"/>
<path d="M324.941 186.364H318.05C317.825 186.364 317.633 186.173 317.633 185.947V168.949C317.633 168.724 317.825 168.532 318.05 168.532H324.941C325.167 168.532 325.358 168.724 325.358 168.949V185.947C325.358 186.184 325.167 186.364 324.941 186.364ZM318.467 185.541H324.524V169.367H318.467V185.541Z" fill="#E527BB"/>
<path d="M314.024 186.556H307.55C307.325 186.556 307.133 186.364 307.133 186.139V179.304C307.133 179.078 307.325 178.886 307.55 178.886H314.024C314.249 178.886 314.441 179.078 314.441 179.304V186.139C314.441 186.364 314.249 186.556 314.024 186.556ZM307.967 185.721H313.618V179.721H307.967V185.721Z" fill="#E527BB"/>
<path d="M311.983 166.107H307.777C307.551 166.107 307.359 165.915 307.359 165.69V156.689C307.359 156.463 307.551 156.271 307.777 156.271H311.983C312.209 156.271 312.401 156.463 312.401 156.689V165.69C312.401 165.915 312.209 166.107 311.983 166.107ZM308.194 165.272H311.566V157.106H308.194V165.272Z" fill="#E527BB"/>
<path d="M325.053 166.107H322.019C321.793 166.107 321.602 165.915 321.602 165.69V151.399C321.602 151.173 321.793 150.982 322.019 150.982H325.053C325.278 150.982 325.47 151.173 325.47 151.399V165.69C325.47 165.915 325.289 166.107 325.053 166.107ZM322.436 165.272H324.635V151.816H322.436V165.272Z" fill="#E527BB"/>
<path d="M318.579 142.94H307.425C307.2 142.94 307.008 142.748 307.008 142.522V136.973C307.008 136.747 307.2 136.556 307.425 136.556H318.579C318.805 136.556 318.996 136.747 318.996 136.973V142.522C318.996 142.748 318.805 142.94 318.579 142.94ZM307.842 142.105H318.162V137.39H307.842V142.105Z" fill="#E527BB"/>
<path d="M260.847 160.073C260.621 160.073 260.43 159.881 260.43 159.655V155.956C260.43 155.73 260.621 155.538 260.847 155.538C261.073 155.538 261.264 155.73 261.264 155.956V159.655C261.264 159.881 261.073 160.073 260.847 160.073Z" fill="#E527BB"/>
<path d="M260.847 153.418C260.621 153.418 260.43 153.226 260.43 153.001V149.301C260.43 149.076 260.621 148.884 260.847 148.884C261.073 148.884 261.264 149.076 261.264 149.301V153.001C261.264 153.226 261.073 153.418 260.847 153.418Z" fill="#E527BB"/>
<path d="M260.847 146.763C260.621 146.763 260.43 146.571 260.43 146.346V142.646C260.43 142.421 260.621 142.229 260.847 142.229C261.073 142.229 261.264 142.421 261.264 142.646V146.346C261.264 146.571 261.073 146.763 260.847 146.763Z" fill="#E527BB"/>
<path d="M229.619 196.053C229.551 196.053 229.483 196.03 229.438 195.985C229.393 195.94 229.359 195.873 229.359 195.805V168.87C229.359 168.735 229.472 168.622 229.607 168.622C229.743 168.622 229.856 168.735 229.856 168.87V195.557L334.426 195.32V165.69C334.426 165.554 334.539 165.441 334.674 165.441C334.809 165.441 334.922 165.554 334.922 165.69V195.5C334.934 195.523 334.934 195.545 334.934 195.568L334.922 195.816C334.922 195.951 334.809 196.053 334.674 196.053C334.539 196.053 334.437 195.94 334.426 195.816L229.619 196.053Z" fill="#E527BB"/>
<path d="M260.61 186.263H222.084C221.949 186.263 221.836 186.15 221.836 186.015V118.43C221.836 118.295 221.949 118.182 222.084 118.182H260.937C261.072 118.182 261.185 118.295 261.185 118.43C261.185 118.565 261.072 118.678 260.937 118.678H222.332V185.755H260.61C260.745 185.755 260.858 185.868 260.858 186.003C260.858 186.15 260.745 186.263 260.61 186.263Z" fill="#E527BB"/>
<path d="M251.046 150.35H248.418V153.125H251.046V150.35Z" fill="#E527BB"/>
<path d="M285.714 175.672H283.086V178.446H285.714V175.672Z" fill="#E527BB"/>
<path d="M322.222 149.696H319.594V152.47H322.222V149.696Z" fill="#E527BB"/>
<path d="M285.694 136.025H283.066V138.8H285.694V136.025Z" fill="#E527BB"/>
<path d="M317.847 174.284H315.219V177.059H317.847V174.284Z" fill="#E527BB"/>
<path opacity="0.2" d="M177.039 150.305L244.764 150.508L223.268 76.37L198.986 76.291L177.039 150.305Z" fill="#FFF7E5"/>
<path d="M212.035 59.1129L209.836 59.1017L209.926 12H212.125L212.035 59.1129Z" fill="#A78BEF"/>
<path d="M224.057 77.6108L197.734 77.498L205.731 52.6162L216.151 52.6501L224.057 77.6108Z" fill="#A78BEF"/>
<path d="M224.057 77.6108L197.723 77.498C218.508 74.1255 220.741 57.3873 205.719 52.6162L216.151 52.6613L224.057 77.6108Z" fill="#6E51D6"/>
<path d="M165.841 241.135L159.672 271.668L148.484 317.946L136.969 314.844L144.164 268.228L147.525 208.009L165.841 241.135Z" fill="black"/>
<path d="M216.074 166.907L217.935 166.422C217.935 166.422 220.382 163.682 221.713 162.554C223.044 161.426 223.202 163.106 221.42 165.283C221.42 165.283 226.315 161.832 228.187 164.561C230.251 167.573 227.465 170.381 220.845 170.754L218.905 171.487L216.074 166.907Z" fill="#F9A28B"/>
<path d="M159.525 146.977L172.958 153.756C172.958 153.756 179.194 161.888 178.236 173.201C177.277 184.503 175.36 208.009 175.36 208.009L147.537 206.204V174.104C147.525 174.104 145.608 156.925 159.525 146.977Z" fill="#E527BB"/>
<path d="M176.072 210.434L146.512 207.828L146.782 205.121L176.342 207.738L176.072 210.434Z" fill="#CE19AC"/>
<path d="M154.001 152.177C154.001 152.177 142.486 169.806 141.042 177.499C139.598 185.18 150.155 192.421 149.681 191.97C149.207 191.507 154.001 152.177 154.001 152.177Z" fill="#CE19AC"/>
<path d="M189.989 176.145L210.831 167.054L215.895 164.843L219.73 172.976C219.73 172.976 217.948 174.092 215.23 175.75C208.181 180.014 194.839 187.83 189.989 188.8C183.268 190.154 161.681 167.55 161.681 167.55C161.681 167.55 157.362 160.321 170.794 152.177" fill="#E527BB"/>
<path d="M219.727 172.976C219.727 172.976 217.945 174.092 215.227 175.75L210.828 167.054L215.892 164.844L219.727 172.976Z" fill="#CE19AC"/>
<path d="M174.491 210.152C174.491 210.152 184.54 244.158 187.055 257.919C189.378 270.63 189.265 320.665 189.265 320.665L178.235 320.586L172.224 262.859L146.566 207.569L174.491 210.152Z" fill="black"/>
<path d="M139.08 314.574L138.324 317.992L144.279 319.695L145.52 316.537L139.08 314.574Z" fill="#F9A28B"/>
<path d="M138.322 317.991L136.777 323.507L152.082 327.195L144.277 319.695L138.322 317.991Z" fill="#A78BEF"/>
<path d="M146.387 320.135L144.684 322.424" stroke="#A78BEF" stroke-miterlimit="10"/>
<path d="M147.886 321.725L146.578 323.654" stroke="#A78BEF" stroke-miterlimit="10"/>
<path d="M179.715 319.886L180.335 323.338L186.538 322.875L186.47 319.503L179.715 319.886Z" fill="#F9A28B"/>
<path d="M180.336 323.338L181.035 329L196.712 327.162L186.539 322.875L180.336 323.338Z" fill="#A78BEF"/>
<path d="M188.672 322.548L187.984 325.267" stroke="#A78BEF" stroke-miterlimit="10"/>
<path d="M190.689 323.518L190.215 325.763" stroke="#A78BEF" stroke-miterlimit="10"/>
<path d="M153.062 222.22L165.153 246.301L159.908 269.514L160.134 246.087L153.062 222.22Z" fill="#281919"/>
<path opacity="0.21" d="M158.645 233.511L143.25 315.566" stroke="#228652" stroke-width="4" stroke-miterlimit="10"/>
<path d="M172.169 143.864C178.123 143.864 182.95 138.93 182.95 132.844C182.95 126.758 178.123 121.825 172.169 121.825C166.214 121.825 161.387 126.758 161.387 132.844C161.387 138.93 166.214 143.864 172.169 143.864Z" fill="#F9A28B"/>
<path d="M167.892 151.286L170.114 141.935L164.813 138.394L159.523 146.977L167.892 151.286Z" fill="#F9A28B"/>
<path d="M163.936 140.255C163.936 140.255 156.594 128.649 161.906 123.043C167.207 117.449 181.067 123.393 187.056 119.716C193.045 116.039 186.537 131.265 180.729 130.735C174.909 130.205 172 128.807 170.804 131.615C169.609 134.412 168.582 135.991 168.582 135.991C168.582 135.991 166.868 131.615 164.985 132.145C163.101 132.675 163.936 140.255 163.936 140.255Z" fill="#2F011C"/>
<path d="M165.752 138.552C167.596 138.552 169.091 137.143 169.091 135.405C169.091 133.667 167.596 132.258 165.752 132.258C163.909 132.258 162.414 133.667 162.414 135.405C162.414 137.143 163.909 138.552 165.752 138.552Z" fill="#F9A28B"/>
<path d="M165.075 138.89C165.075 138.89 167.737 142.691 169.711 143.481L168.572 147.631C168.572 147.631 164.545 143.402 165.075 138.89Z" fill="#2F011C"/>
<path d="M375.512 151.794C375.512 151.794 391.233 168.036 391.989 174.149C392.745 180.274 384.512 189.849 384.512 189.849L375.512 151.794Z" fill="#8068D8"/>
<path d="M368.789 320.236C368.789 320.236 368.259 328.865 366.578 328.989C366.353 329 358.108 329 358.108 329L347.586 328.944C347.586 328.944 347.654 326.406 350.733 325.876C353.811 325.334 358.966 323.18 360.826 319.108C362.789 314.822 368.789 320.236 368.789 320.236Z" fill="#A78BEF"/>
<path d="M392.237 320.236C392.237 320.236 391.707 328.865 390.026 328.989C389.801 329 381.556 329 381.556 329L371 328.966C371 328.966 371.102 326.406 374.18 325.865C377.259 325.323 382.413 323.169 384.274 319.097C386.237 314.822 392.237 320.236 392.237 320.236Z" fill="#A78BEF"/>
<path d="M357.129 227.669C357.129 227.669 359.881 245.275 370.155 276.541C380.429 307.807 381.828 321.342 381.828 321.342C381.828 321.342 384.602 321.748 387.546 321.748C389.407 321.748 392.847 321.037 392.847 321.037C392.847 321.037 392.937 286.873 388.211 271.15C383.475 255.426 387.185 214.472 387.185 214.472L357.129 227.669Z" fill="#1A1723"/>
<path d="M351.77 215.431C351.77 215.431 351.375 241.97 355.977 274.556C360.567 307.141 359.011 320.981 359.011 320.981C359.011 320.981 362.789 321.658 364.12 321.703C365.541 321.748 370.007 321.342 370.007 321.342C370.007 321.342 376.582 288.745 374.699 272.435C372.815 256.126 383.698 216.468 383.698 216.468L351.77 215.431Z" fill="black"/>
<path d="M373.063 153.328L367.875 157.174L360.375 155.595C360.477 154.907 360.973 152.076 361.424 149.515C361.446 149.369 361.48 149.211 361.503 149.064C361.886 146.876 362.225 145.004 362.225 145.004L369.228 141.518L371.834 140.221C371.822 140.266 371.631 142.646 371.608 142.996C371.112 149.132 373.063 153.328 373.063 153.328Z" fill="#FFB27D"/>
<path d="M360.907 151.388C361.076 151.32 371.102 148.354 372.196 148.715C373.29 149.075 373.933 151.185 373.933 151.185L357.524 154.895C357.512 154.895 358.809 152.267 360.907 151.388Z" fill="#8068D8"/>
<path d="M387.916 218.713C386.213 226.473 357.916 227.386 350.62 220.348C349.785 219.547 349.751 215.814 350.067 210.772C350.676 200.937 352.65 186.139 352.717 178.57C352.751 174.916 353.259 171.182 353.924 167.787C355.345 160.558 357.51 154.884 357.51 154.884C357.51 154.884 371.337 150.418 373.92 151.173C386.382 154.85 389.619 210.953 387.916 218.713Z" fill="#A78BEF"/>
<path d="M350.059 210.772C350.668 200.937 352.641 186.139 352.709 178.57C352.743 174.916 353.25 171.183 353.916 167.788L362.228 166.321C362.239 166.321 370.37 199.538 350.059 210.772Z" fill="#8068D8"/>
<path d="M354.57 197.057C354.57 197.057 355.133 198.41 353.949 199.324C352.754 200.238 351.987 201.704 352.258 202.787C352.528 203.87 355.145 205.618 356.047 205.336C356.949 205.054 358.799 203.633 358.596 203.069C358.393 202.505 359.836 198.083 357.626 196.38C355.415 194.677 354.57 197.057 354.57 197.057Z" fill="#FFB27D"/>
<path d="M363.862 152.899C363.862 152.899 355.753 154.422 349.29 163.941C342.828 173.461 338.576 180.544 339.772 183.984C340.967 187.413 351.817 199.324 353.689 199.324C355.561 199.324 358.583 197.959 358.753 194.902C358.753 194.902 351.117 183.454 352.617 181.74C353.26 181.007 362.531 173.472 363.862 176.878C366.038 182.495 363.862 152.899 363.862 152.899Z" fill="#A78BEF"/>
<path d="M371.08 143.086C369.546 146.03 363.817 148.568 361.426 149.504C361.448 149.357 361.482 149.199 361.505 149.053C361.888 146.865 362.227 144.992 362.227 144.992L369.23 141.507C370.775 141.484 371.711 141.868 371.08 143.086Z" fill="#FCA56B"/>
<path d="M359.994 145.725C359.994 145.725 372.355 147.147 373.122 139.432C373.889 131.717 375.998 126.709 368.137 125.468C360.276 124.239 358.449 127.025 357.569 129.54C356.69 132.055 356.802 145.15 359.994 145.725Z" fill="#FFB27D"/>
<path d="M357.894 128.75C357.894 128.75 360.251 137.108 361.943 136.409C363.634 135.71 365.168 135.134 365.405 137.74C365.631 140.357 363.758 143.774 369.262 143.199C374.766 142.624 379.897 127.171 377.901 124.803C372.161 117.979 349.92 120.618 357.894 128.75Z" fill="black"/>
<path d="M378.343 133.679L351.117 128.198L354.174 127.374C354.174 127.374 356.971 115.847 370.764 118.599C382.222 120.9 378.343 133.679 378.343 133.679Z" fill="#E527BB"/>
</g>
</g>
<defs>
<clipPath id="clip0_1089_9900">
<rect width="542.64" height="328.79" fill="white"/>
</clipPath>
<clipPath id="clip1_1089_9900">
<rect width="385" height="317" fill="white" transform="translate(79 12)"/>
</clipPath>
</defs>
</svg>
