<svg width="543" height="329" viewBox="0 0 543 329" fill="none" xmlns="http://www.w3.org/2000/svg">
<g clip-path="url(#clip0_1085_7568)">
<path opacity="0.2" d="M128.492 325.584L413.142 308.934C488.412 304.534 546.652 240.734 543.512 165.394C540.872 102.084 518.192 34.6439 441.912 5.8239C388.262 -14.4461 318.592 2.1439 274.402 35.8539C263.782 43.9539 254.022 53.2439 242.612 60.1739C216.022 76.3239 192.672 65.1739 164.972 60.8839C106.412 51.7939 47.9621 70.4639 17.7021 124.434C-28.7579 207.354 26.0421 331.574 128.492 325.584Z" fill="#999999"/>
<g clip-path="url(#clip1_1085_7568)">
<path d="M443.32 304.228H100.949V92.7686C100.949 86.8181 105.767 82 111.707 82H432.551C438.491 82 443.32 86.8181 443.32 92.7686V304.228Z" fill="#E527BB"/>
<path d="M429.43 99.3574H114.836V277.142H429.43V99.3574Z" fill="white"/>
<mask id="mask0_1085_7568" style="mask-type:luminance" maskUnits="userSpaceOnUse" x="114" y="99" width="316" height="179">
<path d="M429.43 99.3574H114.836V277.142H429.43V99.3574Z" fill="white"/>
</mask>
<g mask="url(#mask0_1085_7568)">
<path opacity="0.4" d="M429.43 277.142V125.394L169.203 277.142H429.43Z" fill="#AAFF00"/>
</g>
<path d="M429.43 99.3574H114.836V277.142H429.43V99.3574Z" stroke="#233239" stroke-width="0.6905" stroke-miterlimit="10"/>
<path d="M390.558 293.531H155.266V305.123H390.558V293.531Z" fill="white"/>
<path d="M390.558 299.111H155.266V305.124H390.558V299.111Z" fill="white"/>
<path d="M73.2539 311.99C73.2539 311.99 77.1145 316.716 88.7067 320.576H457.103C457.103 320.576 465.689 318.425 469.56 312.423L73.2539 311.99Z" fill="black" stroke="#233239" stroke-width="0.9206" stroke-miterlimit="10"/>
<path d="M467.129 313H61.8709C60.2866 313 59 308.585 59 303.148V290.852C59 285.415 60.2866 281 61.8709 281H467.129C468.713 281 470 285.415 470 290.852V303.148C470 308.585 468.713 313 467.129 313Z" fill="black" stroke="#233239" stroke-width="0.9206" stroke-miterlimit="10"/>
<path d="M272.061 91.7288C273.721 91.7288 275.067 90.3829 275.067 88.7227C275.067 87.0624 273.721 85.7166 272.061 85.7166C270.401 85.7166 269.055 87.0624 269.055 88.7227C269.055 90.3829 270.401 91.7288 272.061 91.7288Z" fill="#233239"/>
<path d="M232.345 85.7166H157.202C156.368 85.7166 155.699 85.0474 155.699 84.2135C155.699 83.3796 156.368 82.7104 157.202 82.7104H232.345C233.179 82.7104 233.849 83.3796 233.849 84.2135C233.849 85.0474 233.169 85.7166 232.345 85.7166Z" fill="#E527BB"/>
<path d="M385.627 85.7166H310.484C309.65 85.7166 308.98 85.0474 308.98 84.2135C308.98 83.3796 309.65 82.7104 310.484 82.7104H385.627C386.461 82.7104 387.13 83.3796 387.13 84.2135C387.13 85.0474 386.461 85.7166 385.627 85.7166Z" fill="#E527BB"/>
<path d="M440.374 144.542C439.9 144.542 439.52 144.161 439.52 143.688V118.774C439.52 118.3 439.9 117.919 440.374 117.919C440.848 117.919 441.229 118.3 441.229 118.774V143.677C441.229 144.151 440.848 144.542 440.374 144.542Z" fill="#AAFF00" stroke="#233239" stroke-width="0.6917" stroke-miterlimit="10"/>
<path d="M104.171 144.542C103.697 144.542 103.316 144.161 103.316 143.688V118.774C103.316 118.3 103.697 117.919 104.171 117.919C104.644 117.919 105.025 118.3 105.025 118.774V143.677C105.036 144.151 104.644 144.542 104.171 144.542Z" fill="#AAFF00" stroke="#233239" stroke-width="0.6917" stroke-miterlimit="10"/>
<path d="M339.486 151.018C340.958 149.937 342.534 148.156 342.554 146.22C342.575 144.326 341.092 142.658 339.126 142.833C336.398 143.07 333.948 147.353 333.412 149.741C333.361 149.947 333 153.252 333.052 153.241C333.052 153.241 337.757 152.284 339.486 151.018Z" fill="#39B039"/>
<path d="M315.921 202.678C315.581 201.175 314.078 200.145 312.554 200.66C310.444 201.371 309.332 205.231 309.363 207.228C309.363 207.352 309.559 208.855 309.672 209.627C309.435 209.03 309.209 208.443 308.972 207.826C308.632 206.93 308.303 205.983 307.973 205.056C307.819 204.572 307.664 204.078 307.51 203.584C307.345 203.09 307.242 202.596 307.108 202.091C306.923 201.35 306.769 200.578 306.614 199.816C307.541 199.528 310.259 198.612 311.34 197.664C312.451 196.686 313.605 195.122 313.491 193.557C313.378 192.023 312.05 190.777 310.475 191.055C308.282 191.446 306.594 195.091 306.326 197.057C306.316 197.119 306.305 197.541 306.295 198.045C306.161 197.294 306.038 196.532 305.924 195.77C305.626 193.588 305.389 191.354 305.132 189.12C305.08 188.656 305.018 188.193 304.967 187.719C305.749 187.472 308.694 186.515 309.826 185.527C310.938 184.549 312.091 182.984 311.978 181.419C311.865 179.885 310.537 178.639 308.961 178.917C306.769 179.308 305.08 182.953 304.813 184.919C304.802 184.991 304.792 185.496 304.771 186.062C304.617 184.847 304.452 183.643 304.246 182.448C303.896 180.358 303.433 178.32 302.826 176.385C303.104 176.302 306.583 175.252 307.839 174.14C308.951 173.162 310.104 171.597 309.991 170.033C309.878 168.499 308.55 167.253 306.975 167.531C304.782 167.922 303.093 171.567 302.826 173.533C302.805 173.677 302.764 175.499 302.764 176.148C302.754 176.127 302.754 176.096 302.743 176.076C302.095 174.048 301.22 172.195 300.303 170.475C299.397 168.756 298.399 167.222 297.441 165.822C296.484 164.422 295.526 163.207 294.672 162.136C294.198 161.56 293.766 161.045 293.344 160.561C293.354 160.561 293.395 160.561 293.395 160.561C293.437 160.561 292.644 157.977 292.582 157.812C291.789 155.99 289.185 152.933 286.961 153.149C285.365 153.303 284.428 154.868 284.727 156.371C285.036 157.915 286.57 159.099 287.908 159.748C289.277 160.407 292.428 160.53 293.21 160.551C293.632 161.055 294.075 161.601 294.559 162.219C295.393 163.31 296.319 164.545 297.246 165.956C297.493 166.326 297.74 166.749 297.987 167.14C297.431 166.563 296.649 165.77 296.566 165.698C295.022 164.442 291.295 162.939 289.432 164.154C288.083 165.029 287.97 166.851 288.938 168.046C289.926 169.271 291.831 169.621 293.313 169.58C294.857 169.528 297.781 168.138 298.419 167.829C298.955 168.715 299.49 169.641 299.984 170.64C300.849 172.349 301.673 174.223 302.27 176.23C302.301 176.343 302.321 176.457 302.352 176.57C302.126 176.23 300.756 174.49 300.643 174.377C299.243 172.967 295.712 171.052 293.725 172.061C292.294 172.781 291.975 174.583 292.809 175.87C293.653 177.198 295.506 177.754 296.988 177.867C298.697 178.001 302.239 176.693 302.373 176.652C302.908 178.536 303.31 180.513 303.608 182.541C303.824 184.013 303.989 185.516 304.133 187.019C303.824 186.587 302.548 184.971 302.445 184.857C301.045 183.447 297.513 181.532 295.526 182.541C294.095 183.262 293.776 185.063 294.61 186.36C295.454 187.689 297.308 188.244 298.79 188.358C300.458 188.492 303.855 187.256 304.143 187.153C304.205 187.833 304.277 188.522 304.339 189.202C304.535 191.446 304.73 193.691 304.988 195.894C305.08 196.655 305.193 197.407 305.307 198.169C304.833 197.541 303.938 196.408 303.855 196.326C302.455 194.916 298.924 193.001 296.937 194.01C295.506 194.73 295.187 196.532 296.021 197.829C296.865 199.157 298.718 199.713 300.2 199.826C301.693 199.94 304.566 198.972 305.379 198.684C305.574 199.94 305.801 201.175 306.079 202.379C306.213 202.894 306.305 203.44 306.46 203.924C306.604 204.418 306.748 204.912 306.892 205.406C307.222 206.405 307.52 207.331 307.85 208.258C308.014 208.721 308.179 209.164 308.344 209.617C307.953 208.907 307.325 207.795 307.252 207.702C306.089 206.096 302.877 203.666 300.767 204.356C299.243 204.85 298.656 206.58 299.284 207.99C299.922 209.432 301.673 210.265 303.114 210.605C304.71 210.976 308.138 210.307 308.56 210.224C308.972 211.326 309.373 212.397 309.775 213.395C311.031 216.545 312.204 219.119 313.038 220.91C313.882 222.702 314.408 223.711 314.408 223.711V223.721C314.408 223.721 314.408 223.731 314.418 223.731C314.624 224.112 315.097 224.246 315.478 224.04C315.859 223.834 315.993 223.361 315.787 222.98C315.787 222.98 315.252 222.012 314.387 220.252C313.512 218.501 312.307 215.979 310.99 212.88C310.609 211.985 310.217 211.038 309.826 210.06C310.217 209.874 313.357 208.351 314.418 207.095C315.375 205.931 316.271 204.212 315.921 202.678Z" fill="#39B039"/>
<path d="M298.513 167.418C298.513 167.418 301.839 165.359 302.806 163.907C303.62 162.661 304.32 160.86 303.795 159.377C303.28 157.926 301.674 157.071 300.222 157.761C298.205 158.718 297.546 162.672 297.803 164.648C297.824 164.813 298.472 167.438 298.513 167.418Z" fill="#39B039"/>
<path d="M349.174 151.018C350.903 152.284 355.608 153.241 355.608 153.241C355.66 153.252 355.299 149.947 355.248 149.741C354.702 147.363 352.252 143.07 349.534 142.833C347.568 142.658 346.075 144.326 346.106 146.22C346.127 148.156 347.702 149.937 349.174 151.018Z" fill="#39B039"/>
<path d="M368.734 196.727C365.995 196.83 363.339 200.99 362.68 203.337C362.639 203.471 362.392 205.025 362.248 206.014C362.248 205.427 362.248 204.85 362.238 204.243C362.227 203.038 362.176 201.844 362.135 200.547C362.093 199.929 362.042 199.301 362.001 198.663C361.97 198.035 361.857 197.366 361.785 196.717C361.589 195.204 361.321 193.69 361.013 192.156C362.083 192.146 365.81 192.033 367.467 191.271C369.125 190.509 371.019 189.068 371.431 187.184C371.833 185.341 370.71 183.406 368.754 183.179C366.036 182.87 362.783 186.577 361.774 188.8C361.713 188.934 361.167 190.612 360.889 191.549C360.693 190.633 360.508 189.717 360.282 188.8C359.633 186.144 358.902 183.478 358.171 180.811C357.945 179.998 357.739 179.174 357.522 178.361C358.109 178.361 362.392 178.31 364.204 177.476C365.861 176.714 367.756 175.273 368.168 173.389C368.569 171.546 367.447 169.61 365.491 169.384C362.773 169.075 359.52 172.781 358.511 175.005C358.439 175.17 357.656 177.589 357.492 178.217C357.018 176.415 356.565 174.624 356.194 172.833C355.669 170.362 355.299 167.912 355.113 165.513C355.433 165.513 359.962 165.492 361.836 164.628C363.494 163.866 365.388 162.425 365.8 160.541C366.201 158.698 365.079 156.762 363.123 156.536C360.405 156.227 357.152 159.933 356.143 162.157C356.061 162.332 355.227 164.937 355.103 165.41C355.093 165.266 355.062 165.122 355.052 164.978C354.887 162.414 355.041 159.902 355.309 157.565C355.464 156.206 355.68 154.919 355.927 153.663C356.812 153.756 360.755 154.106 362.546 153.499C364.276 152.922 366.325 151.707 366.942 149.875C367.55 148.084 366.644 146.035 364.719 145.603C362.052 144.995 358.408 148.32 357.162 150.421C357.09 150.534 356.534 151.769 356.133 152.675C356.246 152.109 356.359 151.532 356.483 150.987C356.946 148.969 357.492 147.147 357.986 145.541C358.274 144.624 358.552 143.811 358.82 143.049C359.715 142.689 363.288 141.207 364.595 139.868C365.861 138.561 367.117 136.533 366.819 134.628C366.531 132.754 364.78 131.365 362.876 131.859C360.23 132.548 358.521 137.181 358.387 139.621C358.377 139.827 358.562 143.152 358.614 143.132C358.614 143.132 358.634 143.121 358.665 143.111C358.387 143.842 358.109 144.624 357.811 145.489C357.275 147.085 356.689 148.897 356.184 150.915C355.669 152.933 355.175 155.125 354.866 157.493C354.547 159.861 354.331 162.373 354.444 164.988C354.444 165.019 354.455 165.05 354.455 165.081C354.187 164.329 353.353 162.239 353.271 162.085C352.118 159.933 348.628 156.443 345.93 156.937C345.292 157.051 344.767 157.359 344.345 157.771C343.933 157.359 343.408 157.051 342.759 156.937C340.062 156.453 336.572 159.933 335.419 162.085C335.337 162.239 334.513 164.319 334.235 165.081C334.235 165.05 334.246 165.019 334.246 164.988C334.359 162.373 334.143 159.861 333.823 157.493C333.504 155.125 333.01 152.922 332.506 150.915C332.001 148.897 331.414 147.085 330.879 145.489C330.581 144.624 330.303 143.842 330.025 143.111C330.055 143.121 330.076 143.132 330.076 143.132C330.128 143.152 330.313 139.827 330.303 139.621C330.169 137.181 328.46 132.548 325.814 131.859C323.909 131.365 322.159 132.754 321.871 134.628C321.572 136.533 322.828 138.561 324.095 139.868C325.392 141.207 328.974 142.689 329.87 143.049C330.138 143.811 330.416 144.635 330.704 145.541C331.198 147.147 331.744 148.969 332.207 150.987C332.331 151.522 332.444 152.109 332.557 152.675C332.166 151.769 331.6 150.534 331.528 150.421C330.282 148.32 326.638 144.995 323.971 145.603C322.046 146.045 321.14 148.084 321.747 149.875C322.365 151.707 324.414 152.922 326.143 153.499C327.945 154.096 331.878 153.746 332.763 153.663C333.01 154.919 333.226 156.206 333.381 157.565C333.648 159.902 333.803 162.414 333.638 164.978C333.628 165.122 333.597 165.266 333.587 165.41C333.473 164.926 332.629 162.332 332.547 162.157C331.538 159.933 328.285 156.227 325.567 156.536C323.611 156.762 322.478 158.687 322.89 160.541C323.302 162.425 325.196 163.866 326.854 164.628C328.727 165.492 333.257 165.513 333.576 165.513C333.391 167.912 333.01 170.362 332.495 172.833C332.125 174.624 331.661 176.415 331.198 178.217C331.033 177.589 330.251 175.18 330.179 175.005C329.17 172.781 325.917 169.075 323.199 169.384C321.243 169.61 320.11 171.536 320.522 173.389C320.934 175.273 322.828 176.714 324.486 177.476C326.298 178.31 330.58 178.361 331.167 178.361C330.951 179.174 330.745 179.988 330.519 180.811C329.798 183.478 329.057 186.144 328.408 188.8C328.182 189.717 327.996 190.633 327.801 191.549C327.523 190.623 326.977 188.944 326.915 188.8C325.907 186.577 322.653 182.87 319.935 183.179C317.979 183.406 316.847 185.331 317.259 187.184C317.671 189.068 319.565 190.509 321.222 191.271C322.88 192.033 326.607 192.146 327.677 192.156C327.368 193.68 327.101 195.204 326.905 196.717C326.833 197.366 326.72 198.035 326.689 198.663C326.648 199.301 326.596 199.929 326.555 200.547C326.504 201.834 326.462 203.038 326.452 204.243C326.442 204.85 326.442 205.427 326.442 206.014C326.298 205.036 326.04 203.481 326.01 203.337C325.351 200.979 322.695 196.83 319.956 196.727C317.99 196.655 316.579 198.395 316.703 200.279C316.826 202.204 318.484 203.913 320.008 204.922C321.644 206.003 325.783 206.703 326.442 206.806C326.442 208.248 326.452 209.658 326.493 210.976C326.596 215.145 326.854 218.604 327.06 221.034C327.266 223.453 327.441 224.853 327.441 224.853V224.864C327.441 224.874 327.441 224.874 327.441 224.884C327.523 225.409 328.007 225.77 328.532 225.698C329.057 225.615 329.417 225.131 329.345 224.606C329.345 224.606 329.149 223.258 328.882 220.869C328.624 218.481 328.305 215.053 328.11 210.935C328.048 209.751 328.007 208.484 327.976 207.187C328.655 207.125 332.815 206.703 334.523 205.725C336.109 204.819 337.88 203.224 338.127 201.309C338.374 199.435 337.077 197.603 335.11 197.551C332.372 197.479 329.448 201.453 328.635 203.759C328.583 203.903 328.161 205.715 327.966 206.652C327.945 205.869 327.935 205.087 327.924 204.274C327.914 203.1 327.935 201.865 327.955 200.66C327.986 200.032 328.017 199.404 328.048 198.776C328.069 198.138 328.161 197.52 328.213 196.892C328.316 195.966 328.46 195.008 328.614 194.061C329.839 194.123 333.34 194.226 334.966 193.598C336.665 192.939 338.662 191.631 339.197 189.778C339.722 187.956 338.724 185.959 336.788 185.609C334.091 185.125 330.601 188.605 329.448 190.756C329.407 190.828 329.211 191.302 328.985 191.879C329.16 190.952 329.324 190.025 329.53 189.099C330.117 186.453 330.786 183.776 331.456 181.089C331.6 180.533 331.723 179.967 331.857 179.411C332.876 179.463 336.665 179.617 338.394 178.948C340.093 178.289 342.09 176.982 342.626 175.129C343.151 173.306 342.152 171.309 340.217 170.959C337.519 170.475 334.029 173.955 332.876 176.107C332.835 176.179 332.598 176.755 332.351 177.404C332.691 175.942 333.01 174.48 333.288 173.018C333.772 170.465 334.112 167.922 334.235 165.431C334.801 165.462 339.105 165.698 340.968 164.988C342.162 164.525 343.49 163.742 344.365 162.672C345.241 163.742 346.569 164.525 347.763 164.988C349.626 165.709 353.919 165.472 354.496 165.431C354.63 167.922 354.969 170.465 355.443 173.018C355.721 174.48 356.04 175.942 356.38 177.404C356.122 176.755 355.896 176.189 355.855 176.107C354.702 173.955 351.212 170.465 348.514 170.959C346.579 171.309 345.58 173.317 346.105 175.129C346.641 176.982 348.628 178.289 350.337 178.948C352.066 179.607 355.855 179.463 356.874 179.411C357.008 179.967 357.142 180.533 357.275 181.089C357.945 183.776 358.614 186.453 359.201 189.099C359.406 190.036 359.571 190.952 359.746 191.879C359.52 191.302 359.324 190.828 359.283 190.756C358.13 188.605 354.64 185.115 351.943 185.609C350.007 185.959 349.009 187.966 349.534 189.778C350.069 191.631 352.056 192.939 353.765 193.598C355.402 194.226 358.892 194.123 360.117 194.061C360.261 195.008 360.415 195.966 360.518 196.892C360.57 197.53 360.673 198.138 360.683 198.776C360.714 199.414 360.745 200.042 360.776 200.66C360.796 201.865 360.817 203.1 360.807 204.274C360.807 205.087 360.786 205.869 360.765 206.652C360.57 205.725 360.148 203.913 360.096 203.759C359.283 201.453 356.359 197.479 353.621 197.551C351.654 197.603 350.357 199.435 350.604 201.309C350.851 203.224 352.622 204.819 354.208 205.725C355.916 206.703 360.076 207.125 360.755 207.187C360.724 208.484 360.683 209.74 360.621 210.935C360.426 215.053 360.107 218.481 359.849 220.869C359.592 223.268 359.386 224.606 359.386 224.606C359.304 225.131 359.674 225.615 360.199 225.698C360.724 225.78 361.208 225.409 361.29 224.884C361.29 224.874 361.29 224.874 361.29 224.864V224.853C361.29 224.853 361.465 223.453 361.671 221.034C361.877 218.615 362.124 215.145 362.238 210.976C362.279 209.658 362.289 208.248 362.289 206.806C362.958 206.703 367.087 206.003 368.723 204.922C370.247 203.913 371.905 202.215 372.028 200.279C372.111 198.395 370.71 196.655 368.734 196.727Z" fill="#39B039"/>
<path d="M242.332 320.216H179.131C174.766 320.216 171.234 316.674 171.234 312.32V178.886C171.234 174.521 174.776 170.99 179.131 170.99H242.332C246.697 170.99 250.228 174.531 250.228 178.886V312.32C250.228 316.685 246.697 320.216 242.332 320.216Z" fill="#E527BB"/>
<path d="M246.717 187.369H174.734V303.837H246.717V187.369Z" fill="white"/>
<mask id="mask1_1085_7568" style="mask-type:luminance" maskUnits="userSpaceOnUse" x="174" y="187" width="73" height="117">
<path d="M246.717 187.369H174.734V303.837H246.717V187.369Z" fill="white"/>
</mask>
<g mask="url(#mask1_1085_7568)">
<path opacity="0.09" d="M246.716 264.705L179.613 303.837H246.716V264.705Z" fill="#606060"/>
</g>
<path d="M246.717 187.369H174.734V303.837H246.717V187.369Z" stroke="#233239" stroke-width="0.5282" stroke-miterlimit="10"/>
<path d="M218.551 179.216H202.903C202.316 179.216 201.832 178.742 201.832 178.145C201.832 177.558 202.306 177.074 202.903 177.074H218.551C219.138 177.074 219.622 177.548 219.622 178.145C219.622 178.742 219.148 179.216 218.551 179.216Z" fill="#AAFF00"/>
<path d="M218.551 179.216H202.903C202.316 179.216 201.832 178.742 201.832 178.145C201.832 177.558 202.306 177.074 202.903 177.074H218.551C219.138 177.074 219.622 177.548 219.622 178.145C219.622 178.742 219.148 179.216 218.551 179.216Z" fill="white"/>
<path d="M214.998 310.415C214.998 308.058 213.083 306.143 210.726 306.143C208.368 306.143 206.453 308.058 206.453 310.415C206.453 312.773 208.368 314.688 210.726 314.688C213.083 314.677 214.998 312.762 214.998 310.415Z" fill="white"/>
<path d="M212.886 308.243H208.562V312.567H212.886V308.243Z" fill="#AAFF00" stroke="#233239" stroke-width="0.5282" stroke-miterlimit="10" stroke-linecap="round" stroke-linejoin="round"/>
<path opacity="0.6" d="M212.886 308.243H208.562V312.567H212.886V308.243Z" fill="white" stroke="#233239" stroke-width="0.5282" stroke-miterlimit="10" stroke-linecap="round" stroke-linejoin="round"/>
<path d="M212.886 308.243H208.562V312.567H212.886V308.243Z" stroke="#233239" stroke-width="0.5282" stroke-miterlimit="10" stroke-linecap="round" stroke-linejoin="round"/>
<path d="M456.189 309.066V216.967C456.189 210.605 451.031 205.458 444.679 205.458H250.248C243.886 205.458 238.738 210.615 238.738 216.967V309.066C238.738 315.429 243.896 320.576 250.248 320.576H444.679C451.042 320.576 456.189 315.429 456.189 309.066Z" fill="#A78BEF"/>
<path d="M444.602 315.471V210.575L250.325 210.575L250.325 315.471L444.602 315.471Z" fill="white"/>
<mask id="mask2_1085_7568" style="mask-type:luminance" maskUnits="userSpaceOnUse" x="250" y="210" width="195" height="106">
<path d="M444.602 315.471V210.575L250.325 210.575L250.325 315.471L444.602 315.471Z" fill="white"/>
</mask>
<g mask="url(#mask2_1085_7568)">
<path opacity="0.09" d="M444.608 231.638L300.859 315.46H444.608V231.638Z" fill="#606060"/>
</g>
<path d="M444.602 315.471V210.575L250.325 210.575L250.325 315.471L444.602 315.471Z" stroke="#233239" stroke-width="0.6515" stroke-miterlimit="10"/>
<path d="M449.867 264.602C448.992 264.602 448.281 263.892 448.281 263.017C448.281 262.142 448.992 261.442 449.867 261.442C450.742 261.442 451.452 262.152 451.452 263.017C451.452 263.892 450.742 264.602 449.867 264.602Z" fill="#233239"/>
<path d="M421.69 206.508H428.628C428.845 206.508 429.009 206.333 429.009 206.127V205.849C429.009 205.632 428.834 205.468 428.628 205.468H421.69C421.473 205.468 421.309 205.643 421.309 205.849V206.127C421.309 206.333 421.484 206.508 421.69 206.508Z" fill="#AAFF00" stroke="#233239" stroke-width="0.6527" stroke-miterlimit="10"/>
<path d="M397.146 206.508H410.458C410.746 206.508 410.983 206.271 410.983 205.983C410.983 205.694 410.746 205.458 410.458 205.458H397.146C396.858 205.458 396.621 205.694 396.621 205.983C396.621 206.271 396.858 206.508 397.146 206.508Z" fill="#AAFF00" stroke="#233239" stroke-width="0.6527" stroke-miterlimit="10"/>
<path d="M433.735 323.5C433.735 325.034 424.552 326.29 413.217 326.29C401.893 326.29 392.699 325.044 392.699 323.5C392.699 321.966 401.882 320.71 413.217 320.71C424.542 320.72 433.735 321.966 433.735 323.5Z" fill="#AAFF00"/>
<path d="M395.562 282.248C395.562 305.679 414.124 324.663 414.124 324.663C414.124 324.663 432.686 305.669 432.686 282.248C432.686 258.827 414.124 239.833 414.124 239.833C414.124 239.833 395.562 258.816 395.562 282.248Z" fill="#39B039"/>
<path d="M414.125 324.663V239.822" stroke="white" stroke-width="0.738" stroke-miterlimit="10"/>
<path d="M414.126 269.976L403.738 260.906" stroke="white" stroke-width="0.738" stroke-miterlimit="10"/>
<path d="M414.289 283.998L427.148 265.364" stroke="white" stroke-width="0.738" stroke-miterlimit="10"/>
<path d="M414.125 292.08L398.785 278.387" stroke="white" stroke-width="0.738" stroke-miterlimit="10"/>
<path d="M414.289 302.972L429.464 289.444" stroke="white" stroke-width="0.738" stroke-miterlimit="10"/>
<path d="M414.291 312.371L402.41 302.972" stroke="white" stroke-width="0.738" stroke-miterlimit="10"/>
<path d="M382.704 312.742C391.712 322.903 407.072 324.005 407.072 324.005C407.072 324.005 407.813 308.624 398.805 298.463C389.797 288.302 374.437 287.2 374.437 287.2C374.437 287.2 373.695 302.581 382.704 312.742Z" fill="#39B039"/>
<path d="M407.073 324.005L374.438 287.2" stroke="white" stroke-width="0.738" stroke-miterlimit="10"/>
<path d="M386.038 300.285L378.039 300.347" stroke="white" stroke-width="0.738" stroke-miterlimit="10"/>
<path d="M391.506 306.297L389.91 293.264" stroke="white" stroke-width="0.738" stroke-miterlimit="10"/>
<path d="M394.543 309.87L382.621 309.828" stroke="white" stroke-width="0.738" stroke-miterlimit="10"/>
<path d="M398.805 314.523L400.184 302.828" stroke="white" stroke-width="0.738" stroke-miterlimit="10"/>
<path d="M402.42 318.61L393.648 319.094" stroke="white" stroke-width="0.738" stroke-miterlimit="10"/>
<path d="M429.999 298.102C420.538 307.852 420.59 323.243 420.59 323.243C420.59 323.243 435.981 322.841 445.442 313.092C454.903 303.342 454.852 287.951 454.852 287.951C454.852 287.951 439.461 288.363 429.999 298.102Z" fill="#39B039"/>
<path d="M420.578 323.253L454.85 287.951" stroke="white" stroke-width="0.738" stroke-miterlimit="10"/>
<path d="M442.671 300.501L442.012 292.533" stroke="white" stroke-width="0.738" stroke-miterlimit="10"/>
<path d="M437.07 306.4L449.949 303.837" stroke="white" stroke-width="0.738" stroke-miterlimit="10"/>
<path d="M433.745 309.694L432.891 297.804" stroke="white" stroke-width="0.738" stroke-miterlimit="10"/>
<path d="M429.41 314.286L441.188 314.791" stroke="white" stroke-width="0.738" stroke-miterlimit="10"/>
<path d="M425.612 318.198L424.469 309.489" stroke="white" stroke-width="0.738" stroke-miterlimit="10"/>
</g>
<path d="M91.0391 219.968C91.0391 219.968 87.9117 225.819 88.8376 230.31C88.8376 230.31 82.1188 231.127 79.1071 229.085C79.1071 229.085 81.1928 221.601 80.3815 218.199L91.0391 219.968Z" fill="#E5959D"/>
<path d="M86.8693 211.249C89.7032 212.489 91.6568 205.808 92.4202 202.594C92.4634 202.66 96.1251 205.143 95.4248 210.115C95.3909 210.356 95.4073 210.602 95.4739 210.835C95.6411 211.426 96.1181 212.564 97.4708 214.082C97.5163 214.134 97.5467 214.198 97.5549 214.266C97.5818 214.509 97.4906 215.066 96.2525 215.419C96.2525 215.419 96.021 216.23 96.3683 216.693L95.5569 217.271L95.9041 218.314L95.2413 218.693C95.1594 218.739 95.1208 218.838 95.1512 218.926C95.3699 219.576 95.8679 222.076 89.9966 220.862C89.9966 220.862 83.0077 219.787 80.528 218.88C83.5736 216.042 81.4013 208.784 86.8693 211.249Z" fill="#F9AEAC"/>
<path d="M74.7761 204.894C75.2251 204.416 76.0364 204.01 77.4838 204.3C80.8988 197.928 89.9593 198.879 92.418 202.594C91.6545 205.809 89.701 212.49 86.867 211.249C81.3991 208.784 83.5713 216.041 80.5258 218.88C80.4323 218.846 80.3434 218.811 80.2628 218.777C78.0835 218.795 77.5984 215.997 77.0197 214.376C70.5463 217.028 68.8359 206.949 72.9582 205.95C73.6526 205.783 74.2886 205.413 74.7761 204.894Z" fill="black"/>
<path d="M114.559 310.137L113.32 316.744C113.32 316.744 121.167 318.808 121.992 320.873L119.514 322.525H113.731L107.949 320.461L105.884 317.983L108.363 308.073L114.559 310.137Z" fill="#FFC1BB"/>
<path d="M105.472 317.156C105.472 317.156 114.558 323.763 122.818 320.459L127.773 323.35L127.361 324.589H118.274C118.274 324.589 111.667 322.937 108.775 323.35V325.002H103.407L105.472 317.156Z" fill="#A78BEF"/>
<path d="M137.148 310.247L139.775 316.934C139.775 316.934 147.768 318.328 148.766 320.317L146.436 322.172L140.674 322.66L134.739 321.092L132.472 318.797L130.8 308.713L137.148 310.247Z" fill="#FFC1BB"/>
<path d="M131.996 318.008C131.996 318.008 141.607 323.825 149.56 319.835L154.742 322.297L154.435 323.566L145.381 324.333C145.381 324.333 138.658 323.245 135.812 323.901L135.951 325.546L130.601 326L131.996 318.008Z" fill="#A78BEF"/>
<path d="M95.5615 238.702L96.8008 258.935L94.3223 264.715L90.7764 263.096L88.5399 254.393L88.1272 243.244L95.5615 238.702Z" fill="#FFC1BB"/>
<path d="M118.278 269.67L104.648 309.311L118.278 312.614L130.915 276.758C132.313 272.79 129.89 268.499 125.768 267.647L122.23 266.915L118.278 269.67Z" fill="#452A2A"/>
<path d="M89.7805 256.87H71.1952C66.1143 267.171 65.0808 275.979 74.5727 280.903C75.5279 281.399 76.5953 281.644 77.6721 281.644H111.277C112.39 281.644 113.393 282.314 113.819 283.343L127.57 316.537L140.785 311.582L124.917 270.407C124.027 268.097 121.807 266.574 119.331 266.574H94.5294L89.7805 256.87Z" fill="#362A37"/>
<path d="M90.1926 225.488C90.1926 225.488 87.714 234.573 77.8024 225.076C77.8024 225.076 65.4122 223.424 64.9995 240.354H75.325C75.325 240.354 71.1946 256.045 72.4338 258.522H90.1926L93.9092 241.18H96.8004C96.8015 241.18 99.6916 226.314 90.1926 225.488Z" fill="#A78BEF"/>
<path d="M74.5998 240.635L74.9108 256.045C74.9108 256.045 89.7783 260.999 93.4961 263.89L91.8442 265.954L68.8303 260.725C66.4231 260.178 64.8249 257.893 65.1371 255.444L67.0638 240.352L74.5998 240.635Z" fill="#FFC1BB"/>
<path d="M89.9897 266.574H121.826L129.051 245.515H97.2148L89.9897 266.574Z" fill="#A78BEF"/>
<path d="M111.463 258.315C110.094 258.315 108.984 257.206 108.984 255.837C108.984 254.469 110.094 253.359 111.463 253.359C112.832 253.359 113.941 254.469 113.941 255.837C113.941 257.206 112.832 258.315 111.463 258.315Z" fill="#E527BB"/>
<path d="M73.8795 264.097H92.4648V266.575H73.8795V264.097Z" fill="#A78BEF"/>
</g>
<defs>
<clipPath id="clip0_1085_7568">
<rect width="542.64" height="328.79" fill="white"/>
</clipPath>
<clipPath id="clip1_1085_7568">
<rect width="398.88" height="244.29" fill="white" transform="translate(72 82)"/>
</clipPath>
</defs>
</svg>
