<svg width="533" height="331" viewBox="0 0 533 331" fill="none" xmlns="http://www.w3.org/2000/svg">
<path opacity="0.2" fill-rule="evenodd" clip-rule="evenodd" d="M0 7.5756C0 7.5756 496.166 -10.2363 522.25 8.76437C545.499 25.7019 520.61 239.759 514.929 286.131C514.801 287.134 513.992 287.91 512.938 288.028C382.355 302.136 78.1811 295.779 13.6451 294.227C12.5792 294.197 11.7008 293.49 11.49 292.498C2.02627 247.216 0 7.5756 0 7.5756Z" fill="#999999"/>
<path d="M371.009 133.593C374.662 114.863 378.003 96.9419 378.003 96.9419C378.003 96.9419 367.605 98.5131 363.144 102.247C358.667 105.98 358.216 129.735 356.724 136.456C356.429 137.778 356.165 139.909 355.947 142.492C355.092 152.153 356.149 166.62 356.957 170.681C356.911 171.07 356.569 172.983 354.812 176.654C354.812 176.654 353.895 179.47 359.864 183.702C363.657 186.393 367.045 153.942 371.009 133.593Z" fill="#D9935C"/>
<path d="M378.002 96.9419C378.002 96.9419 376.074 107.272 373.541 120.448C372.748 124.633 371.877 129.098 370.991 133.593C367.416 140.61 364.354 145.385 363.406 144.483C361.479 142.663 358.075 142.43 355.93 142.492C356.163 139.894 356.427 137.763 356.707 136.456C356.831 135.927 356.94 135.289 357.049 134.558C358.292 126.111 359.007 105.685 363.126 102.247C367.618 98.5131 378.002 96.9419 378.002 96.9419Z" fill="#FFA412"/>
<path d="M373.556 120.433C372.763 124.617 371.893 129.082 371.007 133.578C367.432 140.594 364.37 145.37 363.422 144.468C361.494 142.648 358.09 142.414 355.945 142.476C356.178 139.878 356.443 137.747 356.722 136.44C356.847 135.911 356.956 135.274 357.064 134.542L367.79 108.641L373.556 120.433Z" fill="#E27F2B"/>
<path d="M392.848 96.6774C392.925 93.0683 392.863 88.7435 392.381 85.1033L377.957 87.4679C377.957 87.4679 377.957 91.8704 378.019 96.7552C378.004 96.7552 378.004 96.7552 378.004 96.7552C378.004 96.7552 377.615 101.282 383.195 101.951C388.775 102.605 393.003 100.178 392.848 96.6774Z" fill="#D9935C"/>
<path d="M377.91 88.3391C377.91 88.3391 381.314 95.3085 385.2 95.3085C389.086 95.3085 392.739 88.7591 392.739 88.7591L377.91 88.3391Z" fill="#CB7D45"/>
<path d="M387.531 288.103C387.531 288.103 388.06 283.902 389.272 281.475C390.485 279.049 398.225 280.589 398.225 280.589C398.225 280.589 399.764 281.911 400.106 288.103H387.531Z" fill="#A78BEF"/>
<path d="M361.184 288.071C363.002 286.967 361.961 278.675 361.961 278.675C361.961 278.675 353.49 271.892 352.324 277.088C351.158 282.284 344.288 284.602 340.371 285.24C337.666 285.676 336.827 287.185 336.578 288.056H361.184V288.071Z" fill="#A78BEF"/>
<path d="M394.214 80.9342C394.214 80.9342 403.835 65.7508 385.354 64.7396C385.354 64.7396 378.421 65.5641 376.851 63.9929C376.851 63.9929 371.473 72.1757 376.494 80.9497C381.53 89.6926 394.214 80.9342 394.214 80.9342Z" fill="black"/>
<path d="M378.391 88.8526C379.789 89.9571 383.893 91.0461 385.09 91.1861C385.09 91.1861 391.183 89.8326 392.286 89.1637C393.996 88.1214 393.887 86.0213 393.981 83.0966C394.09 79.6275 394.432 76.905 394.043 74.9138C393.577 72.518 392.069 71.1646 387.825 70.7913C380.038 70.1223 376.805 72.0669 376.665 74.6804C376.634 75.3805 376.603 76.0494 376.572 76.6872C376.261 84.8078 376.914 87.7014 378.391 88.8526Z" fill="#D9935C"/>
<path d="M378.717 226.405C378.375 228.303 378.158 229.858 378.096 230.978C377.303 246.348 365.179 281.475 363.003 282.3C359.645 283.576 354.361 280.869 351.594 279.982C350.444 279.609 349.666 278.457 349.931 277.291C355.946 249.631 358.153 209.821 358.946 186.237C359.35 174.368 361.386 166.154 361.386 166.154C361.386 166.154 390.981 158.251 391.168 168.254C391.323 177.106 381.36 211.813 378.717 226.405Z" fill="black"/>
<path d="M378.717 226.405L358.945 186.237C359.349 174.368 361.386 166.154 361.386 166.154C361.386 166.154 390.981 158.251 391.167 168.254C391.323 177.106 381.359 211.813 378.717 226.405Z" fill="#1A1723"/>
<path d="M372.125 168.3L387.777 281.802C387.777 281.802 394.648 283.467 399.995 282.129C399.995 282.129 404.58 221.769 404.191 207.161C403.803 192.569 407.487 168.114 403.352 165.407C399.233 162.716 372.125 168.3 372.125 168.3Z" fill="black"/>
<path d="M405.608 165.423C405.654 166.745 404.613 167.834 403.307 167.849L378.655 168.223L360.547 168.503C359.692 168.518 362.381 161.72 362.427 117.446C362.443 107.567 377.722 96.9265 378.002 96.9265C378.002 98.3422 380.24 100.971 383.691 101.205C387.795 101.469 392.815 99.4311 392.815 97.0665C392.815 97.0354 393.297 97.5488 394.059 98.6689C396.11 101.656 400.229 108.921 402.856 121.584C404.939 131.587 404.131 144.95 405.623 162.187C405.732 163.447 405.576 164.551 405.608 165.423Z" fill="#E527BB"/>
<path d="M404.69 167.989C404.69 167.989 401.411 169.452 395.286 170.727C390.732 171.676 384.592 172.516 377.054 172.563C365.07 172.641 360.531 168.503 360.531 168.503C359.676 168.518 362.365 161.72 362.412 117.446C362.427 107.567 377.707 96.9265 377.986 96.9265C377.986 96.9265 377.598 110.087 381.577 113.961C381.577 113.961 387.157 109.652 394.385 97.3777C396.437 100.365 400.214 108.936 402.841 121.584C403.369 124.166 403.727 126.951 403.96 129.984C404.659 138.712 404.504 149.384 405.607 162.187C405.716 163.431 405.561 164.536 405.592 165.407C405.654 166.729 406.012 167.974 404.69 167.989Z" fill="#FFA412"/>
<path d="M404.69 167.989C404.69 167.989 401.41 169.452 395.286 170.727C393.359 167.787 390.934 162.467 390.592 154.097C390.017 139.941 403.462 121.708 403.462 121.708L403.975 130C404.675 138.727 404.519 149.399 405.623 162.202C405.732 163.447 405.576 164.551 405.607 165.423C405.654 166.729 406.011 167.974 404.69 167.989Z" fill="#E27F2B"/>
<path d="M393.047 120.041L370.137 133.28L388.276 164.724L411.186 151.485L393.047 120.041Z" fill="#E527BB"/>
<path d="M407.332 101.687C404.534 99.5711 397.944 98.0621 394.695 97.4243C393.545 97.2065 392.83 97.082 392.83 97.082C393.172 98.6377 393.933 101.096 394.928 104.036C399.094 116.357 407.348 137.296 405.684 137.747C404.332 138.105 402.607 138.432 400.695 138.712C393.452 139.77 383.706 140.236 382.68 140.283C382.602 140.205 379.136 136.969 377.784 136.969C376.416 136.969 372.468 138.401 372.079 139.505C371.675 140.61 371.52 142.601 372.639 143.036C373.758 143.472 378.436 144.592 379.633 144.701C379.804 144.717 379.991 144.717 380.208 144.701C388.882 147.252 396.327 148.497 402.078 149.088C410.099 149.913 414.793 149.461 414.793 149.461C420.591 136.938 411.125 104.565 407.332 101.687Z" fill="#D9935C"/>
<path d="M414.792 149.461C414.792 149.461 410.097 149.913 402.077 149.088C402.512 146.91 402.932 142.648 400.678 138.696C402.59 138.416 404.315 138.105 405.668 137.732C407.331 137.281 399.077 116.341 394.911 104.02C394.585 100.038 394.398 97.3777 394.398 97.3777L394.678 97.4244C397.927 98.0622 404.517 99.5712 407.315 101.687C411.123 104.565 420.589 136.938 414.792 149.461Z" fill="#FFA412"/>
<path d="M381.594 113.961C381.594 113.961 392.754 109.045 392.909 108.656C393.08 108.267 392.35 105.28 391.588 104.394C391.588 104.394 396.951 104.891 397.277 104.222C397.604 103.554 397.852 98.0931 397.852 98.0931C397.852 98.0931 395.63 95.7752 392.863 95.5574C392.863 95.5574 390.438 101.593 389.537 103.382C387.174 108.158 381.594 113.961 381.594 113.961Z" fill="#C41AA4"/>
<path d="M378.934 104.238C378.934 104.238 379.649 109.994 381.592 113.961C381.592 113.961 375.763 109.901 375.266 108.578C374.769 107.256 376.68 104.674 376.68 104.674C376.68 104.674 373.199 104.596 373.121 103.429C373.043 102.262 374.193 97.7044 374.193 97.7044C374.193 97.7044 377.193 95.5109 378.017 95.6042L378.934 104.238Z" fill="#C41AA4"/>
<path d="M397.819 72.4713L373.042 72.7358C373.042 72.7358 372.685 65.253 376.975 60.4927C377.177 60.2749 377.379 60.0571 377.597 59.8549C378.529 58.9681 379.633 58.2059 380.985 57.6458C385.944 55.5768 390.047 57.4903 392.612 59.4349C392.861 59.6215 393.109 59.8238 393.327 60.0104C394.726 61.1928 395.503 62.2506 395.503 62.2506C395.503 62.2506 397.912 65.5486 397.819 72.4713Z" fill="#E527BB"/>
<path d="M390.872 72.5491C390.809 71.5379 390.359 62.9662 393.374 60.0571C393.157 59.8704 393.219 59.9015 392.97 59.7148C389.768 63.0595 389.504 71.4913 389.519 72.5647L381.592 72.6425C381.359 66.5753 378.002 60.5238 377.613 59.8393C377.395 60.0415 377.349 60.0882 377.162 60.306C377.737 61.3327 379.929 67.1821 380.147 72.6425L373.074 72.7202C373.074 72.7202 379.68 74.4315 384.639 74.3692C389.613 74.307 397.851 72.4558 397.851 72.4558L390.872 72.5491Z" fill="#C41AA4"/>
<path d="M424.322 142.679H428.379C430.259 141.823 440.425 137.421 450.202 137.358C457.259 137.327 465.279 142.585 465.761 142.648C466.989 142.788 461.673 142.834 461.673 142.834C461.673 142.834 453.715 139.318 450.14 139.225C446.736 139.147 439.166 141.621 436.15 142.663H458.906C460.802 142.663 462.372 144.219 462.372 146.132V172.096C462.372 173.994 460.818 175.566 458.906 175.566H424.322C422.425 175.566 420.855 174.01 420.855 172.096V146.132C420.855 144.25 422.41 142.679 424.322 142.679Z" fill="#8068D8"/>
<path d="M435.56 142.679H470.144C472.041 142.679 473.611 144.234 473.611 146.148V172.112C473.611 174.01 472.056 175.581 470.144 175.581H435.56C433.664 175.581 432.094 174.025 432.094 172.112V146.148C432.094 144.25 433.664 142.679 435.56 142.679Z" fill="#A78BEF"/>
<path d="M251.411 13.387H67.3594V143.301H251.411V13.387Z" fill="#A78BEF"/>
<path d="M245.036 20.1387H73.7305V136.549H245.036V20.1387Z" fill="#E527BB"/>
<path d="M209.445 282.689H205.404L180.161 273.962C169.42 270.243 162.208 260.116 162.208 248.729V141.294C162.208 139.785 161.042 138.478 159.535 138.401C157.918 138.323 156.581 139.614 156.581 141.216V248.729C156.581 260.116 149.369 270.243 138.629 273.962L113.355 282.689H108.754C107.246 282.689 105.94 283.856 105.863 285.365C105.785 286.982 107.075 288.32 108.676 288.32H113.805H113.821H113.837H125.09C126.582 288.32 127.857 287.2 127.966 285.707C128.012 284.976 127.795 284.307 127.391 283.793L145.95 277.368C154.654 274.366 164.105 274.366 172.809 277.368L190.933 283.638C190.466 284.151 190.202 284.851 190.218 285.598C190.264 287.122 191.586 288.305 193.109 288.305H204.907H204.922H204.938H209.507C211.108 288.305 212.399 286.967 212.321 285.349C212.259 283.856 210.953 282.689 209.445 282.689Z" fill="#7A97F3"/>
<path d="M253.851 13.387H251.41V143.301H253.851V13.387Z" fill="#35488B"/>
<path d="M162.189 143.301H156.562V148.528H162.189V143.301Z" fill="#35488B"/>
<path d="M228.671 123.264H221.023V107.723H228.671V123.264ZM221.241 123.046H228.453V107.94H221.241V123.046Z" fill="white"/>
<path d="M223.357 123.264H119.075C119.013 123.264 118.966 123.217 118.966 123.155C118.966 123.093 119.013 123.046 119.075 123.046H223.139V93.1615H214.482V58.5479H206.057V77.2937H199.047V84.1853H186.628V80.1717H181.312V64.2883H167.105V37.3442L156.084 33.6883V51.563H153.302V38.1531L142.282 42.3223V58.1434H131.883V46.6315H121.22V58.1434H119.184V64.8484H110.511V87.7012C110.511 87.7634 110.464 87.8101 110.402 87.8101C110.34 87.8101 110.293 87.7634 110.293 87.7012V64.6306H118.966V57.9256H121.003V46.4137H132.116V57.9256H142.08V42.1823L153.535 37.842V51.3452H155.882V33.3772L167.338 37.173V64.0705H181.545V79.9695H186.861V83.9831H198.845V77.0915H205.855V58.3301H214.73V92.9282H223.388V123.264H223.357Z" fill="white"/>
<path d="M165.658 41.5134H157.855V38.511H165.658V41.5134ZM158.073 41.2956H165.441V38.7288H158.073V41.2956Z" fill="white"/>
<path d="M165.658 46.7249H157.855V43.738H165.658V46.7249ZM158.073 46.5071H165.441V43.9403H158.073V46.5071Z" fill="white"/>
<path d="M165.658 51.4229H157.855V48.4204H165.658V51.4229ZM158.073 51.2051H165.441V48.6382H158.073V51.2051Z" fill="white"/>
<path d="M214.716 75.4736H207.488V70.9622H214.716V75.4736ZM207.69 75.2558H214.483V71.18H207.69V75.2558Z" fill="white"/>
<path d="M214.715 88.6345H205.762V84.123H214.715V88.6345ZM205.979 88.4167H214.482V84.3408H205.979V88.4167Z" fill="white"/>
<path d="M214.715 95.1218H205.762V90.6104H214.715V95.1218ZM205.979 94.8884H214.482V90.8126H205.979V94.8884Z" fill="white"/>
<path d="M214.855 101.889H205.902V97.3774H214.855V101.889ZM206.12 101.671H214.622V97.5952H206.12V101.671Z" fill="white"/>
<path d="M214.855 108.531H205.902V104.02H214.855V108.531ZM206.12 108.314H214.622V104.238H206.12V108.314Z" fill="white"/>
<path d="M214.855 115.314H205.902V110.803H214.855V115.314ZM206.12 115.096H214.622V111.021H206.12V115.096Z" fill="white"/>
<path d="M152.059 51.4229H143.867V48.4204H152.059V51.4229ZM144.085 51.2051H151.841V48.6382H144.085V51.2051Z" fill="white"/>
<path d="M152.059 46.7715H143.867V43.769H152.059V46.7715ZM144.085 46.5537H151.841V43.9868H144.085V46.5537Z" fill="white"/>
<path d="M165.846 55.981H143.867V52.9785H165.846V55.981ZM144.085 55.7632H165.628V53.1963H144.085V55.7632Z" fill="white"/>
<path d="M165.846 60.1501H143.867V57.1477H165.846V60.1501ZM144.085 59.9324H165.628V57.3655H144.085V59.9324Z" fill="white"/>
<path d="M165.846 64.1951H143.867V61.3015H165.846V64.1951ZM144.085 63.9773H165.628V61.5193H144.085V63.9773Z" fill="white"/>
<path d="M214.715 82.163H205.762V77.6516H214.715V82.163ZM205.979 81.9453H214.482V77.8694H205.979V81.9453Z" fill="white"/>
<path d="M179.372 69.5776H177.242V66.6685H179.372V69.5776ZM177.475 69.3598H179.154V66.8862H177.475V69.3598Z" fill="white"/>
<path d="M175.809 69.5776H173.68V66.6685H175.809V69.5776ZM173.897 69.3598H175.576V66.8862H173.897V69.3598Z" fill="white"/>
<path d="M172.329 69.5776H170.199V66.6685H172.329V69.5776ZM170.417 69.3598H172.096V66.8862H170.417V69.3598Z" fill="white"/>
<path d="M169.02 69.5776H166.891V66.6685H169.02V69.5776ZM167.124 69.3598H168.802V66.8862H167.124V69.3598Z" fill="white"/>
<path d="M165.661 69.5776H163.531V66.6685H165.661V69.5776ZM163.749 69.3598H165.428V66.8862H163.749V69.3598Z" fill="white"/>
<path d="M162.258 69.5776H160.129V66.6685H162.258V69.5776ZM160.347 69.3598H162.025V66.8862H160.347V69.3598Z" fill="white"/>
<path d="M158.696 69.5776H156.566V66.6685H158.696V69.5776ZM156.784 69.3598H158.463V66.8862H156.784V69.3598Z" fill="white"/>
<path d="M155.215 69.5776H153.086V66.6685H155.215V69.5776ZM153.304 69.3598H154.982V66.8862H153.304V69.3598Z" fill="white"/>
<path d="M151.903 69.5776H149.773V66.6685H151.903V69.5776ZM150.007 69.3598H151.685V66.8862H150.007V69.3598Z" fill="white"/>
<path d="M148.547 69.5776H146.418V66.6685H148.547V69.5776ZM146.636 69.3598H148.314V66.8862H146.636V69.3598Z" fill="white"/>
<path d="M145.036 69.5776H142.906V66.6685H145.036V69.5776ZM143.139 69.3598H144.818V66.8862H143.139V69.3598Z" fill="white"/>
<path d="M141.473 69.5776H139.344V66.6685H141.473V69.5776ZM139.561 69.3598H141.24V66.8862H139.561V69.3598Z" fill="white"/>
<path d="M137.993 69.5776H135.863V66.6685H137.993V69.5776ZM136.081 69.3598H137.76V66.8862H136.081V69.3598Z" fill="white"/>
<path d="M134.684 69.5776H132.57V66.6685H134.7V69.5776H134.684ZM132.788 69.3598H134.467V66.8862H132.788V69.3598Z" fill="white"/>
<path d="M131.325 69.5776H129.195V66.6685H131.325V69.5776ZM129.413 69.3598H131.092V66.8862H129.413V69.3598Z" fill="white"/>
<path d="M127.922 69.5776H125.793V66.6685H127.922V69.5776ZM126.011 69.3598H127.689V66.8862H126.011V69.3598Z" fill="white"/>
<path d="M124.36 69.5776H122.23V66.6685H124.36V69.5776ZM122.448 69.3598H124.127V66.8862H122.448V69.3598Z" fill="white"/>
<path d="M120.879 69.5776H118.75V66.6685H120.879V69.5776ZM118.968 69.3598H120.646V66.8862H118.968V69.3598Z" fill="white"/>
<path d="M117.567 69.5776H115.438V66.6685H117.567V69.5776ZM115.671 69.3598H117.349V66.8862H115.671V69.3598Z" fill="white"/>
<path d="M114.212 69.5776H112.082V66.6685H114.212V69.5776ZM112.3 69.3598H113.978V66.8862H112.3V69.3598Z" fill="white"/>
<path d="M179.372 74.3224H177.242V71.4133H179.372V74.3224ZM177.475 74.1046H179.154V71.6311H177.475V74.1046Z" fill="white"/>
<path d="M175.809 74.3224H173.68V71.4133H175.809V74.3224ZM173.897 74.1046H175.576V71.6311H173.897V74.1046Z" fill="white"/>
<path d="M172.329 74.3224H170.199V71.4133H172.329V74.3224ZM170.417 74.1046H172.096V71.6311H170.417V74.1046Z" fill="white"/>
<path d="M169.02 74.3224H166.891V71.4133H169.02V74.3224ZM167.124 74.1046H168.802V71.6311H167.124V74.1046Z" fill="white"/>
<path d="M165.661 74.3224H163.531V71.4133H165.661V74.3224ZM163.749 74.1046H165.428V71.6311H163.749V74.1046Z" fill="white"/>
<path d="M162.258 74.3224H160.129V71.4133H162.258V74.3224ZM160.347 74.1046H162.025V71.6311H160.347V74.1046Z" fill="white"/>
<path d="M158.696 74.3224H156.566V71.4133H158.696V74.3224ZM156.784 74.1046H158.463V71.6311H156.784V74.1046Z" fill="white"/>
<path d="M155.215 74.3224H153.086V71.4133H155.215V74.3224ZM153.304 74.1046H154.982V71.6311H153.304V74.1046Z" fill="white"/>
<path d="M151.903 74.3224H149.773V71.4133H151.903V74.3224ZM150.007 74.1046H151.685V71.6311H150.007V74.1046Z" fill="white"/>
<path d="M148.547 74.3224H146.418V71.4133H148.547V74.3224ZM146.636 74.1046H148.314V71.6311H146.636V74.1046Z" fill="white"/>
<path d="M145.036 74.3224H142.906V71.4133H145.036V74.3224ZM143.139 74.1046H144.818V71.6311H143.139V74.1046Z" fill="white"/>
<path d="M141.473 74.3224H139.344V71.4133H141.473V74.3224ZM139.561 74.1046H141.24V71.6311H139.561V74.1046Z" fill="white"/>
<path d="M137.993 74.3224H135.863V71.4133H137.993V74.3224ZM136.081 74.1046H137.76V71.6311H136.081V74.1046Z" fill="white"/>
<path d="M134.684 74.3224H132.57V71.4133H134.7V74.3224H134.684ZM132.788 74.1046H134.467V71.6311H132.788V74.1046Z" fill="white"/>
<path d="M131.325 74.3224H129.195V71.4133H131.325V74.3224ZM129.413 74.1046H131.092V71.6311H129.413V74.1046Z" fill="white"/>
<path d="M127.922 74.3224H125.793V71.4133H127.922V74.3224ZM126.011 74.1046H127.689V71.6311H126.011V74.1046Z" fill="white"/>
<path d="M124.36 74.3224H122.23V71.4133H124.36V74.3224ZM122.448 74.1046H124.127V71.6311H122.448V74.1046Z" fill="white"/>
<path d="M120.879 74.3224H118.75V71.4133H120.879V74.3224ZM118.968 74.1046H120.646V71.6311H118.968V74.1046Z" fill="white"/>
<path d="M117.567 74.3224H115.438V71.4133H117.567V74.3224ZM115.671 74.1046H117.349V71.6311H115.671V74.1046Z" fill="white"/>
<path d="M114.212 74.3224H112.082V71.4133H114.212V74.3224ZM112.3 74.1046H113.978V71.6311H112.3V74.1046Z" fill="white"/>
<path d="M179.372 78.9892H177.242V76.0957H179.372V78.9892ZM177.475 78.7714H179.154V76.2979H177.475V78.7714Z" fill="white"/>
<path d="M175.809 78.9892H173.68V76.0957H175.809V78.9892ZM173.897 78.7714H175.576V76.2979H173.897V78.7714Z" fill="white"/>
<path d="M172.329 78.9892H170.199V76.0957H172.329V78.9892ZM170.417 78.7714H172.096V76.2979H170.417V78.7714Z" fill="white"/>
<path d="M169.02 78.9892H166.891V76.0957H169.02V78.9892ZM167.124 78.7714H168.802V76.2979H167.124V78.7714Z" fill="white"/>
<path d="M165.661 78.9892H163.531V76.0957H165.661V78.9892ZM163.749 78.7714H165.428V76.2979H163.749V78.7714Z" fill="white"/>
<path d="M162.258 78.9892H160.129V76.0957H162.258V78.9892ZM160.347 78.7714H162.025V76.2979H160.347V78.7714Z" fill="white"/>
<path d="M158.696 78.9892H156.566V76.0957H158.696V78.9892ZM156.784 78.7714H158.463V76.2979H156.784V78.7714Z" fill="white"/>
<path d="M155.215 78.9892H153.086V76.0957H155.215V78.9892ZM153.304 78.7714H154.982V76.2979H153.304V78.7714Z" fill="white"/>
<path d="M151.903 78.9892H149.773V76.0957H151.903V78.9892ZM150.007 78.7714H151.685V76.2979H150.007V78.7714Z" fill="white"/>
<path d="M148.547 78.9892H146.418V76.0957H148.547V78.9892ZM146.636 78.7714H148.314V76.2979H146.636V78.7714Z" fill="white"/>
<path d="M145.036 78.9892H142.906V76.0957H145.036V78.9892ZM143.139 78.7714H144.818V76.2979H143.139V78.7714Z" fill="white"/>
<path d="M141.473 78.9892H139.344V76.0957H141.473V78.9892ZM139.561 78.7714H141.24V76.2979H139.561V78.7714Z" fill="white"/>
<path d="M137.993 78.9892H135.863V76.0957H137.993V78.9892ZM136.081 78.7714H137.76V76.2979H136.081V78.7714Z" fill="white"/>
<path d="M134.684 78.9892H132.57V76.0957H134.7V78.9892H134.684ZM132.788 78.7714H134.467V76.2979H132.788V78.7714Z" fill="white"/>
<path d="M131.325 78.9892H129.195V76.0957H131.325V78.9892ZM129.413 78.7714H131.092V76.2979H129.413V78.7714Z" fill="white"/>
<path d="M127.922 78.9892H125.793V76.0957H127.922V78.9892ZM126.011 78.7714H127.689V76.2979H126.011V78.7714Z" fill="white"/>
<path d="M124.36 78.9892H122.23V76.0957H124.36V78.9892ZM122.448 78.7714H124.127V76.2979H122.448V78.7714Z" fill="white"/>
<path d="M120.879 78.9892H118.75V76.0957H120.879V78.9892ZM118.968 78.7714H120.646V76.2979H118.968V78.7714Z" fill="white"/>
<path d="M117.567 78.9892H115.438V76.0957H117.567V78.9892ZM115.671 78.7714H117.349V76.2979H115.671V78.7714Z" fill="white"/>
<path d="M114.212 78.9892H112.082V76.0957H114.212V78.9892ZM112.3 78.7714H113.978V76.2979H112.3V78.7714Z" fill="white"/>
<path d="M179.372 83.9518H177.242V81.0427H179.372V83.9518ZM177.475 83.734H179.154V81.2605H177.475V83.734Z" fill="white"/>
<path d="M175.809 83.9518H173.68V81.0427H175.809V83.9518ZM173.897 83.734H175.576V81.2605H173.897V83.734Z" fill="white"/>
<path d="M172.329 83.9518H170.199V81.0427H172.329V83.9518ZM170.417 83.734H172.096V81.2605H170.417V83.734Z" fill="white"/>
<path d="M169.02 83.9518H166.891V81.0427H169.02V83.9518ZM167.124 83.734H168.802V81.2605H167.124V83.734Z" fill="white"/>
<path d="M165.661 83.9518H163.531V81.0427H165.661V83.9518ZM163.749 83.734H165.428V81.2605H163.749V83.734Z" fill="white"/>
<path d="M162.258 83.9518H160.129V81.0427H162.258V83.9518ZM160.347 83.734H162.025V81.2605H160.347V83.734Z" fill="white"/>
<path d="M158.696 83.9518H156.566V81.0427H158.696V83.9518ZM156.784 83.734H158.463V81.2605H156.784V83.734Z" fill="white"/>
<path d="M155.215 83.9518H153.086V81.0427H155.215V83.9518ZM153.304 83.734H154.982V81.2605H153.304V83.734Z" fill="white"/>
<path d="M151.903 83.9518H149.773V81.0427H151.903V83.9518ZM150.007 83.734H151.685V81.2605H150.007V83.734Z" fill="white"/>
<path d="M148.547 83.9518H146.418V81.0427H148.547V83.9518ZM146.636 83.734H148.314V81.2605H146.636V83.734Z" fill="white"/>
<path d="M145.036 83.9518H142.906V81.0427H145.036V83.9518ZM143.139 83.734H144.818V81.2605H143.139V83.734Z" fill="white"/>
<path d="M141.473 83.9518H139.344V81.0427H141.473V83.9518ZM139.561 83.734H141.24V81.2605H139.561V83.734Z" fill="white"/>
<path d="M137.993 83.9518H135.863V81.0427H137.993V83.9518ZM136.081 83.734H137.76V81.2605H136.081V83.734Z" fill="white"/>
<path d="M134.684 83.9518H132.57V81.0427H134.7V83.9518H134.684ZM132.788 83.734H134.467V81.2605H132.788V83.734Z" fill="white"/>
<path d="M131.325 83.9518H129.195V81.0427H131.325V83.9518ZM129.413 83.734H131.092V81.2605H129.413V83.734Z" fill="white"/>
<path d="M127.922 83.9518H125.793V81.0427H127.922V83.9518ZM126.011 83.734H127.689V81.2605H126.011V83.734Z" fill="white"/>
<path d="M124.36 83.9518H122.23V81.0427H124.36V83.9518ZM122.448 83.734H124.127V81.2605H122.448V83.734Z" fill="white"/>
<path d="M120.879 83.9518H118.75V81.0427H120.879V83.9518ZM118.968 83.734H120.646V81.2605H118.968V83.734Z" fill="white"/>
<path d="M117.567 83.9518H115.438V81.0427H117.567V83.9518ZM115.671 83.734H117.349V81.2605H115.671V83.734Z" fill="white"/>
<path d="M114.212 83.9518H112.082V81.0427H114.212V83.9518ZM112.3 83.734H113.978V81.2605H112.3V83.734Z" fill="white"/>
<path d="M179.372 88.6967H177.242V85.7876H179.372V88.6967ZM177.475 88.4789H179.154V86.0054H177.475V88.4789Z" fill="white"/>
<path d="M175.809 88.6967H173.68V85.7876H175.809V88.6967ZM173.897 88.4789H175.576V86.0054H173.897V88.4789Z" fill="white"/>
<path d="M172.329 88.6967H170.199V85.7876H172.329V88.6967ZM170.417 88.4789H172.096V86.0054H170.417V88.4789Z" fill="white"/>
<path d="M169.02 88.6967H166.891V85.7876H169.02V88.6967ZM167.124 88.4789H168.802V86.0054H167.124V88.4789Z" fill="white"/>
<path d="M165.661 88.6967H163.531V85.7876H165.661V88.6967ZM163.749 88.4789H165.428V86.0054H163.749V88.4789Z" fill="white"/>
<path d="M162.258 88.6967H160.129V85.7876H162.258V88.6967ZM160.347 88.4789H162.025V86.0054H160.347V88.4789Z" fill="white"/>
<path d="M158.696 88.6967H156.566V85.7876H158.696V88.6967ZM156.784 88.4789H158.463V86.0054H156.784V88.4789Z" fill="white"/>
<path d="M155.215 88.6967H153.086V85.7876H155.215V88.6967ZM153.304 88.4789H154.982V86.0054H153.304V88.4789Z" fill="white"/>
<path d="M151.903 88.6967H149.773V85.7876H151.903V88.6967ZM150.007 88.4789H151.685V86.0054H150.007V88.4789Z" fill="white"/>
<path d="M148.547 88.6967H146.418V85.7876H148.547V88.6967ZM146.636 88.4789H148.314V86.0054H146.636V88.4789Z" fill="white"/>
<path d="M145.036 88.6967H142.906V85.7876H145.036V88.6967ZM143.139 88.4789H144.818V86.0054H143.139V88.4789Z" fill="white"/>
<path d="M141.473 88.6967H139.344V85.7876H141.473V88.6967ZM139.561 88.4789H141.24V86.0054H139.561V88.4789Z" fill="white"/>
<path d="M137.993 88.6967H135.863V85.7876H137.993V88.6967ZM136.081 88.4789H137.76V86.0054H136.081V88.4789Z" fill="white"/>
<path d="M134.684 88.6967H132.57V85.7876H134.7V88.6967H134.684ZM132.788 88.4789H134.467V86.0054H132.788V88.4789Z" fill="white"/>
<path d="M131.325 88.6967H129.195V85.7876H131.325V88.6967ZM129.413 88.4789H131.092V86.0054H129.413V88.4789Z" fill="white"/>
<path d="M127.922 88.6967H125.793V85.7876H127.922V88.6967ZM126.011 88.4789H127.689V86.0054H126.011V88.4789Z" fill="white"/>
<path d="M124.36 88.6967H122.23V85.7876H124.36V88.6967ZM122.448 88.4789H124.127V86.0054H122.448V88.4789Z" fill="white"/>
<path d="M117.567 88.6967H115.593C115.515 88.6967 115.438 88.6345 115.438 88.5411V85.7876H117.567V88.6967ZM115.671 88.4789H117.349V86.0054H115.671V88.4789Z" fill="white"/>
<path d="M120.879 88.6967H118.75V85.7876H120.879V88.6967ZM118.968 88.4789H120.646V86.0054H118.968V88.4789Z" fill="white"/>
<path d="M114.212 88.4634L112.082 88.1056V85.8032H114.212V88.4634ZM112.3 87.9189L113.978 88.2145V86.021H112.3V87.9189Z" fill="white"/>
<path d="M179.372 93.3637H177.242V90.4546H179.372V93.3637ZM177.475 93.1459H179.154V90.6724H177.475V93.1459Z" fill="white"/>
<path d="M175.809 93.3637H173.68V90.4546H175.809V93.3637ZM173.897 93.1459H175.576V90.6724H173.897V93.1459Z" fill="white"/>
<path d="M172.329 93.3637H170.199V90.4546H172.329V93.3637ZM170.417 93.1459H172.096V90.6724H170.417V93.1459Z" fill="white"/>
<path d="M169.02 93.3637H166.891V90.4546H169.02V93.3637ZM167.124 93.1459H168.802V90.6724H167.124V93.1459Z" fill="white"/>
<path d="M165.661 93.3637H163.531V90.4546H165.661V93.3637ZM163.749 93.1459H165.428V90.6724H163.749V93.1459Z" fill="white"/>
<path d="M162.258 93.3637H160.129V90.4546H162.258V93.3637ZM160.347 93.1459H162.025V90.6724H160.347V93.1459Z" fill="white"/>
<path d="M158.696 93.3637H156.566V90.4546H158.696V93.3637ZM156.784 93.1459H158.463V90.6724H156.784V93.1459Z" fill="white"/>
<path d="M155.215 93.3637H153.086V90.4546H155.215V93.3637ZM153.304 93.1459H154.982V90.6724H153.304V93.1459Z" fill="white"/>
<path d="M151.903 93.3637H149.773V90.4546H151.903V93.3637ZM150.007 93.1459H151.685V90.6724H150.007V93.1459Z" fill="white"/>
<path d="M148.547 93.3637H146.418V90.4546H148.547V93.3637ZM146.636 93.1459H148.314V90.6724H146.636V93.1459Z" fill="white"/>
<path d="M145.036 93.3637H142.906V90.4546H145.036V93.3637ZM143.139 93.1459H144.818V90.6724H143.139V93.1459Z" fill="white"/>
<path d="M141.473 93.3637H139.344V90.4546H141.473V93.3637ZM139.561 93.1459H141.24V90.6724H139.561V93.1459Z" fill="white"/>
<path d="M137.993 93.3637H135.863V90.4546H137.993V93.3637ZM136.081 93.1459H137.76V90.6724H136.081V93.1459Z" fill="white"/>
<path d="M134.684 93.3637H132.57V90.4546H134.7V93.3637H134.684ZM132.788 93.1459H134.467V90.6724H132.788V93.1459Z" fill="white"/>
<path d="M131.325 93.3637H129.195V90.4546H131.325V93.3637ZM129.413 93.1459H131.092V90.6724H129.413V93.1459Z" fill="white"/>
<path d="M127.922 93.3637H125.793V90.4546H127.922V93.3637ZM126.011 93.1459H127.689V90.6724H126.011V93.1459Z" fill="white"/>
<path d="M124.36 93.3637H122.23V90.4546H124.36V93.3637ZM122.448 93.1459H124.127V90.6724H122.448V93.1459Z" fill="white"/>
<path d="M96.336 102.853H91.875V85.1499H96.336V102.853ZM92.0926 102.636H96.1184V85.3677H92.0926V102.636Z" fill="white"/>
<path d="M199.063 84.1852H192.379V77.0758H195.519V71.491H195.969V77.0758H199.063V84.1852ZM192.581 83.9674H198.829V77.2936H195.736L195.721 71.7088V77.2936H192.581V83.9674Z" fill="white"/>
<path d="M202.574 77.3092V58.3456H204.191V56.4788H204.642V58.3456H212.444V56.4788H212.895V58.3456H214.714V62.857L207.704 62.8726V64.7394L214.714 64.7238V69.2352H206.056V77.3092H202.574ZM202.792 58.5634V77.0914H205.823V69.0174H214.481V64.9416L207.47 64.9572V62.6548L214.481 62.6392V58.5634H212.662L212.646 56.6966V58.5634H204.408L204.393 56.6966V58.5634H202.792Z" fill="white"/>
<path d="M120.521 113.728C120.458 113.728 120.412 113.681 120.412 113.619V89.5213L96.1948 85.3677C96.1326 85.3522 96.1016 85.3055 96.1016 85.2433C96.1171 85.181 96.1637 85.1499 96.2259 85.1499L120.614 89.3347V113.619C120.629 113.681 120.583 113.728 120.521 113.728Z" fill="white"/>
<path d="M120.629 123.264H90.1016V102.635H120.629V123.264ZM90.3192 123.046H120.412V102.853H90.3192V123.046Z" fill="white"/>
<path d="M120.629 97.2995H90.1016V90.4546H120.629V97.2995ZM90.3192 97.0817H120.412V90.6724H90.3192V97.0817Z" fill="white"/>
<path d="M118.561 110.476H116.789V108.065H118.561V110.476ZM117.007 110.258H118.343V108.283H117.007V110.258Z" fill="white"/>
<path d="M115.655 110.476H113.883V108.065H115.655V110.476ZM114.1 110.258H115.437V108.283H114.1V110.258Z" fill="white"/>
<path d="M112.811 110.476H111.039V108.065H112.811V110.476ZM111.257 110.258H112.593V108.283H111.257V110.258Z" fill="white"/>
<path d="M110.108 110.476H108.336V108.065H110.108V110.476ZM108.554 110.258H109.89V108.283H108.554V110.258Z" fill="white"/>
<path d="M107.354 110.476H105.582V108.065H107.354V110.476ZM105.8 110.258H107.136V108.283H105.8V110.258Z" fill="white"/>
<path d="M104.573 110.476H102.801V108.065H104.573V110.476ZM103.018 110.258H104.355V108.283H103.018V110.258Z" fill="white"/>
<path d="M101.666 110.476H99.8945V108.065H101.666V110.476ZM100.112 110.258H101.449V108.283H100.112V110.258Z" fill="white"/>
<path d="M98.8227 110.476H97.0508V108.065H98.8227V110.476ZM97.2684 110.258H98.6051V108.283H97.2684V110.258Z" fill="white"/>
<path d="M96.1157 110.476H94.3438V108.065H96.1157V110.476ZM94.5614 110.258H95.8981V108.283H94.5614V110.258Z" fill="white"/>
<path d="M93.3657 110.476H91.5938V108.065H93.3657V110.476ZM91.8114 110.258H93.1481V108.283H91.8114V110.258Z" fill="white"/>
<path d="M118.561 114.35H116.789V111.938H118.561V114.35ZM117.007 114.132H118.343V112.156H117.007V114.132Z" fill="white"/>
<path d="M115.655 114.35H113.883V111.938H115.655V114.35ZM114.1 114.132H115.437V112.156H114.1V114.132Z" fill="white"/>
<path d="M112.811 114.35H111.039V111.938H112.811V114.35ZM111.257 114.132H112.593V112.156H111.257V114.132Z" fill="white"/>
<path d="M110.108 114.35H108.336V111.938H110.108V114.35ZM108.554 114.132H109.89V112.156H108.554V114.132Z" fill="white"/>
<path d="M107.354 114.35H105.582V111.938H107.354V114.35ZM105.8 114.132H107.136V112.156H105.8V114.132Z" fill="white"/>
<path d="M104.573 114.35H102.801V111.938H104.573V114.35ZM103.018 114.132H104.355V112.156H103.018V114.132Z" fill="white"/>
<path d="M101.666 114.35H99.8945V111.938H101.666V114.35ZM100.112 114.132H101.449V112.156H100.112V114.132Z" fill="white"/>
<path d="M98.8227 114.35H97.0508V111.938H98.8227V114.35ZM97.2684 114.132H98.6051V112.156H97.2684V114.132Z" fill="white"/>
<path d="M96.1157 114.35H94.3438V111.938H96.1157V114.35ZM94.5614 114.132H95.8981V112.156H94.5614V114.132Z" fill="white"/>
<path d="M93.3657 114.35H91.5938V111.938H93.3657V114.35ZM91.8114 114.132H93.1481V112.156H91.8114V114.132Z" fill="white"/>
<path d="M118.561 101.142H116.789V98.731H118.561V101.142ZM117.007 100.909H118.343V98.9332H117.007V100.909Z" fill="white"/>
<path d="M115.655 101.142H113.883V98.731H115.655V101.142ZM114.1 100.909H115.437V98.9332H114.1V100.909Z" fill="white"/>
<path d="M112.811 101.142H111.039V98.731H112.811V101.142ZM111.257 100.909H112.593V98.9332H111.257V100.909Z" fill="white"/>
<path d="M110.108 101.142H108.336V98.731H110.108V101.142ZM108.554 100.909H109.89V98.9332H108.554V100.909Z" fill="white"/>
<path d="M107.354 101.142H105.582V98.731H107.354V101.142ZM105.8 100.909H107.136V98.9332H105.8V100.909Z" fill="white"/>
<path d="M104.573 101.142H102.801V98.731H104.573V101.142ZM103.018 100.909H104.355V98.9332H103.018V100.909Z" fill="white"/>
<path d="M101.666 101.142H99.8945V98.731H101.666V101.142ZM100.112 100.909H101.449V98.9332H100.112V100.909Z" fill="white"/>
<path d="M98.8227 101.142H97.0508V98.731H98.8227V101.142ZM97.2684 100.909H98.6051V98.9332H97.2684V100.909Z" fill="white"/>
<path d="M118.561 106.54H116.789V104.129H118.561V106.54ZM117.007 106.322H118.343V104.347H117.007V106.322Z" fill="white"/>
<path d="M115.655 106.54H113.883V104.129H115.655V106.54ZM114.1 106.322H115.437V104.347H114.1V106.322Z" fill="white"/>
<path d="M112.811 106.54H111.039V104.129H112.811V106.54ZM111.257 106.322H112.593V104.347H111.257V106.322Z" fill="white"/>
<path d="M110.108 106.54H108.336V104.129H110.108V106.54ZM108.554 106.322H109.89V104.347H108.554V106.322Z" fill="white"/>
<path d="M107.354 106.54H105.582V104.129H107.354V106.54ZM105.8 106.322H107.136V104.347H105.8V106.322Z" fill="white"/>
<path d="M104.573 106.54H102.801V104.129H104.573V106.54ZM103.018 106.322H104.355V104.347H103.018V106.322Z" fill="white"/>
<path d="M101.666 106.54H99.8945V104.129H101.666V106.54ZM100.112 106.322H101.449V104.347H100.112V106.322Z" fill="white"/>
<path d="M98.8227 106.54H97.0508V104.129H98.8227V106.54ZM97.2684 106.322H98.6051V104.347H97.2684V106.322Z" fill="white"/>
<path d="M96.1157 106.54H94.3438V104.129H96.1157V106.54ZM94.5614 106.322H95.8981V104.347H94.5614V106.322Z" fill="white"/>
<path d="M93.3657 106.54H91.5938V104.129H93.3657V106.54ZM91.8114 106.322H93.1481V104.347H91.8114V106.322Z" fill="white"/>
<path d="M118.561 118.161H116.789V115.75H118.561V118.161ZM117.007 117.943H118.343V115.968H117.007V117.943Z" fill="white"/>
<path d="M115.655 118.161H113.883V115.75H115.655V118.161ZM114.1 117.943H115.437V115.968H114.1V117.943Z" fill="white"/>
<path d="M112.811 118.161H111.039V115.75H112.811V118.161ZM111.257 117.943H112.593V115.968H111.257V117.943Z" fill="white"/>
<path d="M110.108 118.161H108.336V115.75H110.108V118.161ZM108.554 117.943H109.89V115.968H108.554V117.943Z" fill="white"/>
<path d="M107.354 118.161H105.582V115.75H107.354V118.161ZM105.8 117.943H107.136V115.968H105.8V117.943Z" fill="white"/>
<path d="M104.573 118.161H102.801V115.75H104.573V118.161ZM103.018 117.943H104.355V115.968H103.018V117.943Z" fill="white"/>
<path d="M101.666 118.161H99.8945V115.75H101.666V118.161ZM100.112 117.943H101.449V115.968H100.112V117.943Z" fill="white"/>
<path d="M98.8227 118.161H97.0508V115.75H98.8227V118.161ZM97.2684 117.943H98.6051V115.968H97.2684V117.943Z" fill="white"/>
<path d="M96.1157 118.161H94.3438V115.75H96.1157V118.161ZM94.5614 117.943H95.8981V115.968H94.5614V117.943Z" fill="white"/>
<path d="M93.3657 118.161H91.5938V115.75H93.3657V118.161ZM91.8114 117.943H93.1481V115.968H91.8114V117.943Z" fill="white"/>
<path d="M98.4184 85.7411L97.75 85.6322V80.5918H98.4184V85.7411ZM97.9676 85.4455L98.2008 85.4921V80.8251H97.9676V85.4455Z" fill="white"/>
<path d="M118.312 94.795H116.789V92.3059H118.312V94.795ZM117.007 94.5772H118.095V92.5237H117.007V94.5772Z" fill="white"/>
<path d="M105.332 94.795H103.809V92.3059H105.332V94.795ZM104.026 94.5772H105.114V92.5237H104.026V94.5772Z" fill="white"/>
<path d="M94.9959 94.795H93.4727V92.3059H94.9959V94.795ZM93.6903 94.5772H94.7783V92.5237H93.6903V94.5772Z" fill="white"/>
<path d="M201.364 123.139H157.516V97.3774H201.364V123.139ZM157.733 122.922H201.146V97.6108H157.733V122.922Z" fill="white"/>
<path d="M161.772 103.771H159.223V99.991H161.772V103.771ZM159.456 103.553H161.57V100.224H159.456V103.553Z" fill="white"/>
<path d="M165.877 103.771H163.328V99.991H165.877V103.771ZM163.546 103.553H165.66V100.224H163.546V103.553Z" fill="white"/>
<path d="M170.01 103.771H167.461V99.991H170.01V103.771ZM167.679 103.553H169.792V100.224H167.679V103.553Z" fill="white"/>
<path d="M174.116 103.771H171.566V99.991H174.116V103.771ZM171.784 103.553H173.898V100.224H171.784V103.553Z" fill="white"/>
<path d="M178.326 103.771H175.777V99.991H178.326V103.771ZM176.011 103.553H178.124V100.224H176.011V103.553Z" fill="white"/>
<path d="M182.432 103.771H179.883V99.991H182.432V103.771ZM180.116 103.553H182.23V100.224H180.116V103.553Z" fill="white"/>
<path d="M186.565 103.771H184.016V99.991H186.565V103.771ZM184.233 103.553H186.347V100.224H184.233V103.553Z" fill="white"/>
<path d="M190.67 103.771H188.121V99.991H190.67V103.771ZM188.339 103.553H190.453V100.224H188.339V103.553Z" fill="white"/>
<path d="M194.975 103.771H192.426V99.991H194.975V103.771ZM192.643 103.553H194.757V100.224H192.643V103.553Z" fill="white"/>
<path d="M199.076 103.771H196.527V99.991H199.076V103.771ZM196.745 103.553H198.859V100.224H196.745V103.553Z" fill="white"/>
<path d="M161.772 109.029H159.223V105.249H161.772V109.029ZM159.456 108.812H161.57V105.482H159.456V108.812Z" fill="white"/>
<path d="M165.877 109.029H163.328V105.249H165.877V109.029ZM163.546 108.812H165.66V105.482H163.546V108.812Z" fill="white"/>
<path d="M170.01 109.029H167.461V105.249H170.01V109.029ZM167.679 108.812H169.792V105.482H167.679V108.812Z" fill="white"/>
<path d="M174.116 109.029H171.566V105.249H174.116V109.029ZM171.784 108.812H173.898V105.482H171.784V108.812Z" fill="white"/>
<path d="M178.326 109.029H175.777V105.249H178.326V109.029ZM176.011 108.812H178.124V105.482H176.011V108.812Z" fill="white"/>
<path d="M182.432 109.029H179.883V105.249H182.432V109.029ZM180.116 108.812H182.23V105.482H180.116V108.812Z" fill="white"/>
<path d="M186.565 109.029H184.016V105.249H186.565V109.029ZM184.233 108.812H186.347V105.482H184.233V108.812Z" fill="white"/>
<path d="M190.67 109.029H188.121V105.249H190.67V109.029ZM188.339 108.812H190.453V105.482H188.339V108.812Z" fill="white"/>
<path d="M194.975 109.029H192.426V105.249H194.975V109.029ZM192.643 108.812H194.757V105.482H192.643V108.812Z" fill="white"/>
<path d="M199.076 109.029H196.527V105.249H199.076V109.029ZM196.745 108.812H198.859V105.482H196.745V108.812Z" fill="white"/>
<path d="M161.772 114.677H159.223V110.896H161.772V114.677ZM159.456 114.459H161.57V111.13H159.456V114.459Z" fill="white"/>
<path d="M165.877 114.677H163.328V110.896H165.877V114.677ZM163.546 114.459H165.66V111.13H163.546V114.459Z" fill="white"/>
<path d="M170.01 114.677H167.461V110.896H170.01V114.677ZM167.679 114.459H169.792V111.13H167.679V114.459Z" fill="white"/>
<path d="M174.116 114.677H171.566V110.896H174.116V114.677ZM171.784 114.459H173.898V111.13H171.784V114.459Z" fill="white"/>
<path d="M178.326 114.677H175.777V110.896H178.326V114.677ZM176.011 114.459H178.124V111.13H176.011V114.459Z" fill="white"/>
<path d="M182.432 114.677H179.883V110.896H182.432V114.677ZM180.116 114.459H182.23V111.13H180.116V114.459Z" fill="white"/>
<path d="M186.565 114.677H184.016V110.896H186.565V114.677ZM184.233 114.459H186.347V111.13H184.233V114.459Z" fill="white"/>
<path d="M190.67 114.677H188.121V110.896H190.67V114.677ZM188.339 114.459H190.453V111.13H188.339V114.459Z" fill="white"/>
<path d="M194.975 114.677H192.426V110.896H194.975V114.677ZM192.643 114.459H194.757V111.13H192.643V114.459Z" fill="white"/>
<path d="M199.076 114.677H196.527V110.896H199.076V114.677ZM196.745 114.459H198.859V111.13H196.745V114.459Z" fill="white"/>
<path d="M161.772 119.935H159.223V116.154H161.772V119.935ZM159.456 119.717H161.57V116.388H159.456V119.717Z" fill="white"/>
<path d="M165.877 119.935H163.328V116.154H165.877V119.935ZM163.546 119.717H165.66V116.388H163.546V119.717Z" fill="white"/>
<path d="M170.01 119.935H167.461V116.154H170.01V119.935ZM167.679 119.717H169.792V116.388H167.679V119.717Z" fill="white"/>
<path d="M174.116 119.935H171.566V116.154H174.116V119.935ZM171.784 119.717H173.898V116.388H171.784V119.717Z" fill="white"/>
<path d="M178.326 119.935H175.777V116.154H178.326V119.935ZM176.011 119.717H178.124V116.388H176.011V119.717Z" fill="white"/>
<path d="M182.432 119.935H179.883V116.154H182.432V119.935ZM180.116 119.717H182.23V116.388H180.116V119.717Z" fill="white"/>
<path d="M186.565 119.935H184.016V116.154H186.565V119.935ZM184.233 119.717H186.347V116.388H184.233V119.717Z" fill="white"/>
<path d="M190.67 119.935H188.121V116.154H190.67V119.935ZM188.339 119.717H190.453V116.388H188.339V119.717Z" fill="white"/>
<path d="M194.975 119.935H192.426V116.154H194.975V119.935ZM192.643 119.717H194.757V116.388H192.643V119.717Z" fill="white"/>
<path d="M199.076 119.935H196.527V116.154H199.076V119.935ZM196.745 119.717H198.859V116.388H196.745V119.717Z" fill="white"/>
<path d="M195.439 97.6107H186.113V94.1415L195.439 90.5635V97.6107ZM186.331 97.3773H195.222V90.8746L186.331 94.2815V97.3773Z" fill="white"/>
<path d="M141.472 123.264H120.41V100.318L141.456 107.614V123.264H141.472ZM120.628 123.046H141.239V107.769L120.628 100.629V123.046Z" fill="white"/>
<path d="M140.915 109.138H120.973V108.22H140.931V109.138H140.915ZM121.19 108.921H140.713V108.438H121.19V108.921Z" fill="white"/>
<path d="M140.915 111.394H120.973V110.476H140.931V111.394H140.915ZM121.19 111.161H140.713V110.678H121.19V111.161Z" fill="white"/>
<path d="M140.915 113.634H120.973V112.716H140.931V113.634H140.915ZM121.19 113.416H140.713V112.934H121.19V113.416Z" fill="white"/>
<path d="M140.915 115.89H120.973V114.972H140.931V115.89H140.915ZM121.19 115.672H140.713V115.19H121.19V115.672Z" fill="white"/>
<path d="M140.915 118.146H120.973V117.228H140.931V118.146H140.915ZM121.19 117.928H140.713V117.446H121.19V117.928Z" fill="white"/>
<path d="M140.915 120.401H120.973V119.483H140.931V120.401H140.915ZM121.19 120.183H140.713V119.701H121.19V120.183Z" fill="white"/>
<path d="M197.197 97.6109H195.223V90.6104H197.197V97.6109ZM195.44 97.3775H196.979V90.8126H195.44V97.3775Z" fill="white"/>
<path d="M193.511 96.553H189.734V94.0017H193.511V96.553ZM189.968 96.3352H193.294V94.2195H189.968V96.3352Z" fill="white"/>
<path d="M123.707 57.8322H122.277V47.3625H123.707V57.8322ZM122.495 57.6144H123.49V47.5803H122.495V57.6144Z" fill="white"/>
<path d="M126.102 57.8322H124.672V47.3625H126.102V57.8322ZM124.905 57.6144H125.9V47.5803H124.905V57.6144Z" fill="white"/>
<path d="M128.481 57.8322H127.051V47.3625H128.481V57.8322ZM127.268 57.6144H128.263V47.5803H127.268V57.6144Z" fill="white"/>
<path d="M130.918 57.8322H129.488V47.3625H130.918V57.8322ZM129.721 57.6144H130.716V47.5803H129.721V57.6144Z" fill="white"/>
<path d="M484.427 135.289L476.981 136.612C476.251 136.736 475.722 137.296 475.815 137.856L502.519 287.978C502.613 288.523 503.296 288.865 504.043 288.74L511.488 287.418C512.234 287.294 512.747 286.734 512.654 286.189L485.95 136.067C485.857 135.507 485.173 135.149 484.427 135.289Z" fill="#A78BEF"/>
<path d="M484.427 135.289L476.981 136.612C476.251 136.736 475.722 137.296 475.815 137.856L476.639 142.508L486.774 140.703L485.95 136.052C485.857 135.507 485.173 135.149 484.427 135.289Z" fill="#E527BB"/>
<path d="M502.52 287.978C502.613 288.523 503.297 288.865 504.043 288.74L511.488 287.418C512.234 287.294 512.747 286.734 512.654 286.189L511.939 282.176L501.805 283.98L502.52 287.978Z" fill="#C41AA4"/>
<path d="M482.513 145.775C482.093 145.852 481.798 146.163 481.845 146.475L505.347 278.613C505.409 278.924 505.797 279.126 506.217 279.049C506.637 278.971 506.932 278.66 506.885 278.349L483.383 146.21C483.337 145.899 482.933 145.697 482.513 145.775Z" fill="#8068D8"/>
<path d="M112.299 283.824L117.195 283.762C117.195 283.762 109.827 275.579 107.573 271.426L101.356 259.945L93.2266 261.952L103.548 276.606L112.299 283.824Z" fill="#E49963"/>
<path d="M66.3664 60.2436C64.4857 59.1702 62.2474 59.0613 60.662 59.1547C61.0661 58.7346 61.8588 58.5791 61.8588 58.5791C60.8796 58.4391 58.7035 59.4036 58.7035 59.4036C45.1339 54.1765 48.4291 73.9335 48.7089 78.585C48.9887 83.2364 38.7144 84.9788 31.6576 88.6346C18.1813 95.6195 17 104.969 17 104.969C17.1088 105.031 17.2176 105.109 17.3264 105.187C17.9948 104.051 19.3782 101.92 20.5284 101.609C20.4818 101.718 19.1606 104.534 18.6632 106.151C22.6423 109.169 30.0722 115.874 35.2482 120.635C35.2326 119.701 35.2637 118.395 35.6057 117.694L36.243 121.553C39.0097 124.104 40.9216 125.893 40.9216 125.893C40.5796 122.144 57.8797 102.324 66.9105 96.3974C69.1021 93.1616 69.8948 87.4367 69.9415 86.9856C69.5684 91.5281 68.7913 94.0639 68.0918 95.4951C75.8014 88.4479 71.3404 63.075 66.3664 60.2436Z" fill="black"/>
<path d="M66.4299 96.693C66.4765 96.7085 62.0777 98.9953 58.7513 98.0931C55.6271 97.2374 53.5909 93.1927 53.6375 93.1927C54.9587 92.9282 55.3318 91.1081 55.3162 83.3142L55.9069 83.4387L65.9325 85.4299C65.9325 85.4299 65.6993 88.5879 65.6993 91.5593C65.6993 94.0483 65.8548 96.4285 66.4299 96.693Z" fill="#E49963"/>
<path d="M55.082 63.5104C55.082 63.5104 60.0249 58.2367 66.2423 63.246C66.2423 63.246 62.6207 62.6237 55.082 63.5104Z" fill="#E37970"/>
<path d="M65.9475 85.4144C65.9475 85.4144 65.7143 88.5724 65.7143 91.5437C60.1031 91.3881 57.1343 86.2544 55.9219 83.4231L65.9475 85.4144Z" fill="#D68D5D"/>
<path d="M54.8814 82.3342C54.8814 82.3342 51.9437 77.6827 51.2287 73.7002C50.7313 70.8533 52.1768 60.337 62.7465 61.846C62.7465 61.846 65.8241 62.1416 68.6997 64.1018C71.0001 65.6574 74.3109 69.0021 70.596 78.1961L69.6323 81.2919L54.8814 82.3342Z" fill="#163560"/>
<path d="M105.925 267.397L100.609 267.552L94.8575 267.723C94.8575 267.723 81.5677 252.913 74.1068 229.158C73.9358 228.614 73.7493 228.054 73.5628 227.478C69.4748 215.562 61.0191 200.612 56.5581 187.077C55.8431 184.915 55.2058 182.893 54.6462 180.979C54.4597 180.357 54.2887 179.766 54.1178 179.159C50.8381 167.725 49.8743 160.227 49.0039 152.215L77.4798 152.448C77.4642 152.448 86.3862 207.223 105.925 267.397Z" fill="black"/>
<path d="M76.6723 133.967C77.0454 149.306 78.9261 155.886 78.9261 155.886C78.9261 155.886 65.139 162.902 48.756 157.737C48.5695 157.675 49.813 94.3906 54.4605 92.6482C55.533 93.9861 58.7195 95.2773 61.5484 95.2151C64.8125 95.1373 65.8695 93.7372 65.6985 92.2126C69.1803 94.1417 76.1283 112.016 76.6723 133.967Z" fill="#E527BB"/>
<path d="M67.8122 88.23C67.8122 88.23 54.5224 88.4478 54.5224 80.1717C54.5069 71.8955 52.7971 66.3418 61.2684 65.844C69.7552 65.3462 71.4028 68.5197 72.0712 71.2733C72.7551 74.0423 71.2784 87.9656 67.8122 88.23Z" fill="#E49963"/>
<path d="M71.6838 66.6841C69.632 64.195 68.0777 64.7395 67.2072 65.4862C64.3317 61.1926 55.2698 67.3997 55.2698 67.3997C50.8088 71.6622 50.0938 76.7493 50.0938 76.7493C50.0938 76.7493 52.5185 78.2427 58.0987 76.8115C62.4975 75.6758 65.684 69.4221 66.8342 66.8085C67.6269 67.5086 69.2901 69.142 69.7875 70.7288C70.4559 72.8445 70.7512 77.1848 72.0102 77.0293C72.0258 77.0137 74.777 70.4177 71.6838 66.6841Z" fill="#163560"/>
<path d="M121.266 101.982C121.266 101.982 123.131 95.2306 130.561 96.1796C131.416 96.444 133.903 97.4396 132.317 100.1C131.151 102.06 130.638 101.049 128.789 103.693C126.939 106.338 124.949 106.929 122.649 106.618L121.266 101.982Z" fill="#E49963"/>
<path d="M57.8637 283.342C57.4129 280.853 56.558 276.544 56.558 276.544L56.7601 261.283H47.4961L50.9623 275.89C51.04 276.575 51.2266 279.204 50.2473 281.989C50.2473 281.989 49.3613 286.049 53.356 286.127C57.3352 286.205 58.3144 285.831 57.8637 283.342Z" fill="#E49963"/>
<path d="M50.2462 282.004C50.2462 282.004 49.4535 286.282 49.9043 288.32C49.9043 288.32 51.07 288.32 53.9767 288.32C56.7279 288.32 58.2978 288.32 58.2978 288.32C58.2978 288.32 58.3289 283.669 57.5983 281.895C57.5983 281.895 54.7694 286.142 50.2462 282.004Z" fill="#A78BEF"/>
<path d="M117.27 283.793C117.239 283.778 117.223 283.762 117.192 283.747C115.234 283.809 113.26 283.093 111.472 281.071C106.032 274.942 102.97 274.257 101.913 274.257C100.996 276.155 99.9856 278.271 101.291 280.682L103.234 288.32H105.333L105.348 281.118C106.732 281.475 108.084 282.144 108.675 283.342C110.151 286.282 111.161 288.32 112.529 288.32C113.291 288.32 121.964 288.32 121.964 288.32C121.964 288.32 121.793 285.831 117.27 283.793Z" fill="#A78BEF"/>
<path d="M121.268 101.982C121.268 101.982 112.548 106.867 109.439 108.267C107.667 109.076 103.579 110.99 100.703 112.343C98.8692 113.199 96.6931 112.732 95.3719 111.192C90.6467 105.669 78.3983 93.675 65.7614 92.2126L65.7769 92.2438L65.6992 92.2126C65.6992 92.2126 73.3777 111.207 73.6109 115.065C73.8441 118.908 74.5124 177.946 74.5124 177.946C74.5124 177.946 74.0617 180.652 79.2532 179.532C84.4448 178.397 85.8126 177.277 85.8126 177.277C85.8126 177.277 80.8387 140.858 82.191 128.195C82.4552 125.706 82.2221 122.89 81.6469 119.997C89.341 124.679 98.4496 126.764 98.4496 126.764C98.4496 126.764 105.258 123.793 114.568 116.963C117.49 114.817 122.62 106.649 122.62 106.649L121.268 101.982Z" fill="#A78BEF"/>
<path d="M100.608 267.552L94.8569 267.723C94.8569 267.723 81.5672 252.913 74.1063 229.158C73.9353 228.614 73.7487 228.054 73.5622 227.478C69.4743 215.562 61.0185 200.612 56.5575 187.077C55.8425 184.915 55.2052 182.893 54.6457 180.979C54.4591 180.357 54.2882 179.766 54.1172 179.159L58.858 175.565C58.858 175.565 73.0959 198.636 77.4947 220.353C81.3185 239.223 96.6445 261.921 100.608 267.552Z" fill="black"/>
<path d="M59.3397 222.375C59.4174 232.938 58.889 257.207 57.5211 267.256H52.4228C49.6094 267.256 48.195 267.21 48.195 267.21C44.7443 249.74 42.2884 235.272 40.5164 222.811C39.0553 212.59 37.7497 203.816 36.7549 196.271C35.7445 188.68 35.0451 182.317 34.7964 176.95C34.7653 176.11 34.7342 175.285 34.7187 174.476C34.7031 173.667 34.7031 172.89 34.7031 172.127L62.5262 169.42C62.1531 187.948 59.2931 216.246 59.3397 222.375Z" fill="black"/>
<path d="M52.4077 267.272C49.5943 267.272 48.1798 267.225 48.1798 267.225C44.7292 249.755 42.2733 235.287 40.5013 222.826C39.0402 212.606 37.7345 203.832 36.7397 196.287C35.7294 188.695 35.0299 182.332 34.7812 176.965L44.9934 182.97C44.9934 182.97 38.4806 185.273 40.9676 202.696C43.439 220.12 48.9415 264.798 52.4077 267.272Z" fill="black"/>
<path d="M53.7276 176.81C53.7276 176.81 51.7691 183.904 44.9921 182.986C38.2151 182.084 28.5625 178.008 28.5625 178.008C28.5625 178.008 31.4536 168.845 35.0597 156.804C39.4275 142.227 44.8211 123.435 47.3702 111.596C48.0853 108.283 48.5671 105.498 48.7536 103.522L54.4581 92.6482C54.4581 92.6482 62.7584 111.441 63.2092 116.185C63.6599 120.93 53.7276 176.81 53.7276 176.81Z" fill="#A78BEF"/>
<path d="M53.4195 126.126C53.1242 133.811 51.3056 148.746 35.1868 156.742C35.1402 156.757 35.0936 156.788 35.0625 156.804C39.4302 142.227 44.8239 123.435 47.373 111.596C50.3263 116.014 53.5905 121.895 53.4195 126.126Z" fill="#8068D8"/>
<path d="M82.5934 121.926C82.5778 122.844 79.9354 129.269 75.2413 133.111C74.3397 133.858 73.6092 134.216 73.0341 134.309C65.4177 136.923 58.7961 138.276 53.4336 138.929V130.42C60.0707 130 68.2466 129.549 71.6041 129.362C72.1636 128.475 72.8009 127.231 73.0185 125.971C73.4227 123.622 74.6661 121.895 77.9303 121.459C81.1945 121.055 82.6089 121.008 82.5934 121.926Z" fill="#E49963"/>
<path d="M54.4599 92.6326C54.4599 92.6326 40.6106 93.5504 37.2998 100.94C33.989 108.329 32.9321 132.909 37.1444 140.143C37.1444 140.143 42.9577 141.792 53.232 139.878C53.3564 139.847 53.4807 139.832 53.605 139.8C53.605 139.8 56.8847 131.773 53.947 130.186C53.947 130.186 45.2892 130.638 46.1908 127.775C47.0923 124.928 54.4599 92.6326 54.4599 92.6326Z" fill="#A78BEF"/>
<path d="M346.261 164.909L338.147 164.8C338.054 164.769 337.961 164.753 337.867 164.753C337.774 164.753 337.696 164.769 337.603 164.8C336.546 165.127 335.691 167.445 335.676 170.245C335.676 170.4 335.676 170.541 335.676 170.681C335.707 171.925 335.893 173.045 336.189 173.916C336.515 174.85 336.95 175.503 337.463 175.705C337.479 175.705 337.479 175.721 337.494 175.721C337.588 175.752 337.681 175.768 337.79 175.768C337.883 175.768 337.976 175.752 338.069 175.721L409.088 176.685L409.166 171.256L409.244 165.78L346.261 164.909Z" fill="white"/>
<path d="M377.255 175.223C362.286 176.468 353.256 169.794 346.261 164.909L338.147 164.8C338.054 164.769 337.961 164.753 337.867 164.753C337.774 164.753 337.696 164.769 337.603 164.8C336.546 165.127 335.691 167.445 335.676 170.245C335.676 170.4 335.676 170.541 335.676 170.681C335.707 171.925 335.893 173.045 336.189 173.916C336.717 174.912 337.199 175.581 337.463 175.705C337.479 175.705 337.479 175.721 337.494 175.721C337.588 175.752 337.681 175.768 337.79 175.768C337.883 175.768 337.976 175.752 338.069 175.721L409.088 176.685L409.166 171.256C408.093 171.521 401.052 173.232 377.255 175.223Z" fill="#BED4F4"/>
<path d="M409.321 165.687C408.14 165.671 407.161 168.129 407.13 171.178C407.099 174.212 408.047 176.685 409.228 176.701C410.409 176.717 411.389 174.259 411.42 171.209C411.451 168.176 410.518 165.702 409.321 165.687Z" fill="#AFCDFB"/>
<path d="M57.5853 56.1989C54.8496 56.8834 52.8134 57.9879 51.2746 59.2947C51.1192 59.4191 50.9793 59.5592 50.8394 59.6992C45.1815 65.0973 47.4353 73.6846 47.4353 73.6846C47.4353 73.6846 48.1814 75.8626 48.7099 76.7026C49.2229 77.5427 56.746 76.5782 57.1345 74.9603C57.5231 73.3424 59.0153 71.6623 59.0153 71.6623C59.0153 71.6623 66.927 71.1178 67.471 71.0867C69.2586 70.9622 74.3569 69.1732 74.3569 69.1732C74.2791 68.6598 71.4036 52.7142 57.5853 56.1989Z" fill="#E527BB"/>
<path d="M79.0354 67.4775C78.0872 67.2441 76.4707 66.9797 73.7972 66.8863C73.7972 66.8863 68.6367 68.9087 64.1757 70.3244C62.0773 67.6797 59.0463 61.1615 51.2745 59.3102C51.2589 59.3102 51.2279 59.2947 51.2123 59.2947C51.0413 59.4969 50.9481 59.5747 50.8393 59.7147C50.8082 59.7614 50.7616 59.808 50.7305 59.8703C57.0567 60.9748 60.3986 68.3176 62.4659 70.9777C60.6939 71.4133 61.3157 71.5222 59.0152 71.6778C59.0152 71.6778 72.849 71.9423 79.1752 68.5976C79.6416 68.3176 79.5638 67.6019 79.0354 67.4775Z" fill="#C41AA4"/>
<path d="M289.108 66.5442C294.517 56.7435 309.097 57.9258 309.097 57.9258C294.253 54.3788 286.854 66.0464 286.854 66.0464L286.217 65.8286L282.844 66.7308L312.921 72.798L289.108 66.5442Z" fill="#E27F2B"/>
<path d="M259.342 179.797H253.809V288.771H259.342V179.797Z" fill="#7A97F3"/>
<path d="M466.94 179.797H461.406V288.771H466.94V179.797Z" fill="#7A97F3"/>
<path d="M482.422 181.118V175.58L236.678 175.58V181.118L482.422 181.118Z" fill="#7A97F3"/>
<path d="M259.342 181.104H253.809V185.257H259.342V181.104Z" fill="#35488B"/>
<path d="M466.94 181.104H461.406V185.257H466.94V181.104Z" fill="#35488B"/>
<path d="M476.284 165.485C476.284 165.485 475.522 164.442 474.154 163.26C473.936 163.073 473.703 162.887 473.455 162.684C470.937 160.755 466.911 158.857 462.03 160.864C460.709 161.409 459.605 162.155 458.688 163.011C458.471 163.213 458.269 163.416 458.067 163.633C453.823 168.3 454.134 175.643 454.134 175.643L478.491 175.519C478.631 168.736 476.284 165.485 476.284 165.485Z" fill="#E527BB"/>
<path d="M471.666 175.565C471.604 174.539 471.184 166.122 474.153 163.26C473.935 163.073 473.982 163.104 473.733 162.918C470.562 166.2 470.314 174.492 470.329 175.565L462.542 175.612C462.34 169.638 459.076 163.68 458.687 163.011C458.47 163.213 458.423 163.26 458.236 163.462C458.796 164.473 460.925 170.245 461.096 175.612L454.148 175.643C454.148 175.643 460.63 177.354 465.511 177.323C470.391 177.292 478.505 175.519 478.505 175.519L471.666 175.565Z" fill="#C41AA4"/>
<path d="M394.522 164.754V170.23V175.674L323.503 175.706C323.41 175.737 323.316 175.752 323.223 175.752C323.13 175.752 323.037 175.737 322.928 175.706C321.933 175.379 321.14 173.294 321.047 170.696C321.047 170.556 321.031 170.416 321.031 170.261C321.016 167.445 321.824 165.127 322.881 164.785C322.974 164.754 323.052 164.738 323.145 164.738C323.239 164.738 323.332 164.754 323.425 164.785L394.522 164.754Z" fill="white"/>
<path d="M394.537 170.23V175.674L323.518 175.706C323.425 175.737 323.332 175.752 323.239 175.752C323.145 175.752 323.052 175.737 322.943 175.706C321.948 175.379 321.156 173.294 321.062 170.696C324.327 171.894 342.668 176.094 362.082 170.727C385.102 164.349 393.496 170.525 394.537 170.23Z" fill="#BED4F4"/>
<path d="M394.645 164.676C393.464 164.676 392.516 167.149 392.531 170.198C392.547 173.232 393.526 175.705 394.708 175.69C395.889 175.69 396.837 173.216 396.821 170.167C396.806 167.134 395.827 164.676 394.645 164.676Z" fill="#AFCDFB"/>
<path d="M309.797 92.8193C309.797 92.8193 327.175 110.772 328.014 117.539C328.853 124.306 319.745 134.9 319.745 134.9L309.797 92.8193Z" fill="#8068D8"/>
<path d="M302.381 279.064C302.381 279.064 301.791 288.6 299.941 288.74C299.692 288.756 290.584 288.756 290.584 288.756L278.957 288.694C278.957 288.694 279.035 285.893 282.439 285.302C285.843 284.711 291.532 282.315 293.584 277.82C295.744 273.075 302.381 279.064 302.381 279.064Z" fill="#A78BEF"/>
<path d="M328.279 279.064C328.279 279.064 327.689 288.6 325.839 288.74C325.59 288.756 316.482 288.756 316.482 288.756L304.809 288.709C304.809 288.709 304.917 285.878 308.321 285.287C311.725 284.695 317.414 282.3 319.466 277.804C321.658 273.075 328.279 279.064 328.279 279.064Z" fill="#A78BEF"/>
<path d="M289.496 176.716C289.496 176.716 292.543 196.193 303.889 230.76C315.236 265.327 316.791 280.293 316.791 280.293C316.791 280.293 319.853 280.744 323.101 280.744C325.153 280.744 328.961 279.951 328.961 279.951C328.961 279.951 329.07 242.179 323.832 224.787C318.609 207.41 322.697 162.124 322.697 162.124L289.496 176.716Z" fill="#1A1723"/>
<path d="M283.576 163.198C283.576 163.198 283.14 192.538 288.223 228.567C293.29 264.596 291.581 279.888 291.581 279.888C291.581 279.888 295.762 280.635 297.223 280.682C298.793 280.729 303.736 280.293 303.736 280.293C303.736 280.293 310.995 244.248 308.912 226.218C306.829 208.188 318.86 164.333 318.86 164.333L283.576 163.198Z" fill="black"/>
<path d="M307.091 94.5149L301.355 98.7619L293.07 97.0196C293.179 96.2573 293.739 93.1304 294.236 90.2991C294.267 90.128 294.298 89.9568 294.329 89.8013C294.749 87.39 295.122 85.3054 295.122 85.3054L302.863 81.4473L305.754 80.0161C305.754 80.0628 305.536 82.6919 305.505 83.0808C304.946 89.8946 307.091 94.5149 307.091 94.5149Z" fill="#FFB27D"/>
<path d="M293.664 92.3837C293.851 92.3059 304.933 89.039 306.13 89.4279C307.327 89.8324 308.042 92.1503 308.042 92.1503L289.918 96.2573C289.918 96.2573 291.348 93.3482 293.664 92.3837Z" fill="#8068D8"/>
<path d="M323.504 166.807C321.623 175.379 290.35 176.405 282.298 168.612C281.381 167.725 281.334 163.602 281.676 158.033C282.36 147.159 284.521 130.793 284.614 122.424C284.661 118.379 285.205 114.256 285.951 110.507C287.521 102.511 289.914 96.2418 289.914 96.2418C289.914 96.2418 305.194 91.2948 308.038 92.1349C321.81 96.2107 325.385 158.235 323.504 166.807Z" fill="#A78BEF"/>
<path d="M281.68 158.033C282.364 147.159 284.524 130.793 284.617 122.424C284.664 118.379 285.208 114.256 285.954 110.507L295.14 108.889C295.14 108.889 304.125 145.619 281.68 158.033Z" fill="#8068D8"/>
<path d="M286.651 142.881C286.651 142.881 287.273 144.374 285.967 145.385C284.646 146.397 283.807 148.015 284.102 149.212C284.397 150.41 287.289 152.339 288.283 152.028C289.278 151.717 291.314 150.146 291.097 149.524C290.879 148.901 292.465 144.016 290.024 142.134C287.599 140.236 286.651 142.881 286.651 142.881Z" fill="#FFB27D"/>
<path d="M296.926 94.0483C296.926 94.0483 287.973 95.7285 280.823 106.26C273.689 116.792 268.979 124.617 270.3 128.413C271.621 132.209 283.606 145.37 285.673 145.37C287.74 145.37 291.082 143.861 291.268 140.485C291.268 140.485 282.828 127.822 284.491 125.924C285.206 125.115 295.45 116.792 296.911 120.541C299.336 126.78 296.926 94.0483 296.926 94.0483Z" fill="#A78BEF"/>
<path d="M304.901 83.1898C303.207 86.4411 296.881 89.2569 294.238 90.2836C294.269 90.1125 294.3 89.9414 294.332 89.7858C294.751 87.3745 295.124 85.2899 295.124 85.2899L302.865 81.4319C304.559 81.4319 305.601 81.8519 304.901 83.1898Z" fill="#FCA56B"/>
<path d="M292.654 86.1143C292.654 86.1143 306.316 87.6855 307.156 79.1604C307.995 70.6354 310.342 65.0972 301.653 63.7282C292.965 62.3592 290.944 65.455 289.965 68.2241C289.001 70.9932 289.125 85.4764 292.654 86.1143Z" fill="#FFB27D"/>
<path d="M290.336 67.3375C290.336 67.3375 292.947 76.5781 294.812 75.8003C296.678 75.0225 298.387 74.3846 298.636 77.2782C298.885 80.1717 296.817 83.952 302.895 83.3142C308.973 82.6763 314.646 65.5951 312.439 62.9816C306.097 55.4366 281.523 58.3612 290.336 67.3375Z" fill="black"/>
<path d="M312.921 72.7979L282.844 66.7308L286.217 65.8285C286.217 65.8285 289.31 53.0875 304.543 56.1367C317.211 58.6724 312.921 72.7979 312.921 72.7979Z" fill="#E527BB"/>
</svg>
