<svg width="543" height="329" viewBox="0 0 543 329" fill="none" xmlns="http://www.w3.org/2000/svg">
<g clip-path="url(#clip0_1085_7568)">
<path opacity="0.2" d="M128.492 325.584L413.142 308.934C488.412 304.534 546.652 240.734 543.512 165.394C540.872 102.084 518.192 34.6439 441.912 5.8239C388.262 -14.4461 318.592 2.1439 274.402 35.8539C263.782 43.9539 254.022 53.2439 242.612 60.1739C216.022 76.3239 192.672 65.1739 164.972 60.8839C106.412 51.7939 47.9621 70.4639 17.7021 124.434C-28.7579 207.354 26.0421 331.574 128.492 325.584Z" fill="#999999"/>
<g clip-path="url(#clip1_1085_7568)">
<path d="M424.051 93.8601H382.281V312.83H424.051V93.8601Z" fill="#DCDCDC"/>
<path d="M396.882 100.97H388.762V109.33H396.882V100.97Z" fill="#ECECEC"/>
<path d="M407.272 100.97H399.152V109.33H407.272V100.97Z" fill="#ECECEC"/>
<path d="M396.882 115.17H388.762V123.53H396.882V115.17Z" fill="#ECECEC"/>
<path d="M407.272 115.17H399.152V123.53H407.272V115.17Z" fill="#ECECEC"/>
<path d="M396.882 129.36H388.762V137.72H396.882V129.36Z" fill="#ECECEC"/>
<path d="M407.272 129.36H399.152V137.72H407.272V129.36Z" fill="#ECECEC"/>
<path d="M396.882 143.56H388.762V151.92H396.882V143.56Z" fill="#ECECEC"/>
<path d="M407.272 143.56H399.152V151.92H407.272V143.56Z" fill="#ECECEC"/>
<path d="M396.882 157.75H388.762V166.11H396.882V157.75Z" fill="#ECECEC"/>
<path d="M407.272 157.75H399.152V166.11H407.272V157.75Z" fill="#ECECEC"/>
<path d="M396.882 171.95H388.762V180.31H396.882V171.95Z" fill="#ECECEC"/>
<path d="M407.272 171.95H399.152V180.31H407.272V171.95Z" fill="#ECECEC"/>
<path d="M396.882 186.14H388.762V194.5H396.882V186.14Z" fill="#ECECEC"/>
<path d="M407.272 186.14H399.152V194.5H407.272V186.14Z" fill="#ECECEC"/>
<path d="M396.882 200.34H388.762V208.7H396.882V200.34Z" fill="#ECECEC"/>
<path d="M407.272 200.34H399.152V208.7H407.272V200.34Z" fill="#ECECEC"/>
<path d="M396.882 214.53H388.762V222.89H396.882V214.53Z" fill="#ECECEC"/>
<path d="M407.272 214.53H399.152V222.89H407.272V214.53Z" fill="#ECECEC"/>
<path d="M396.882 228.73H388.762V237.09H396.882V228.73Z" fill="#ECECEC"/>
<path d="M407.272 228.73H399.152V237.09H407.272V228.73Z" fill="#ECECEC"/>
<path d="M396.882 242.92H388.762V251.28H396.882V242.92Z" fill="#ECECEC"/>
<path d="M407.272 242.92H399.152V251.28H407.272V242.92Z" fill="#ECECEC"/>
<path d="M396.882 257.12H388.762V265.48H396.882V257.12Z" fill="#ECECEC"/>
<path d="M407.272 257.12H399.152V265.48H407.272V257.12Z" fill="#ECECEC"/>
<path d="M396.882 271.31H388.762V279.67H396.882V271.31Z" fill="#ECECEC"/>
<path d="M407.272 271.31H399.152V279.67H407.272V271.31Z" fill="#ECECEC"/>
<path d="M396.882 285.51H388.762V293.87H396.882V285.51Z" fill="#ECECEC"/>
<path d="M409.45 293.871H417.57V285.511H409.45V293.871Z" fill="#ECECEC"/>
<path d="M409.45 279.681H417.57V271.321H409.45V279.681Z" fill="#ECECEC"/>
<path d="M409.45 265.48H417.57V257.12H409.45V265.48Z" fill="#ECECEC"/>
<path d="M409.45 251.29H417.57V242.93H409.45V251.29Z" fill="#ECECEC"/>
<path d="M409.45 237.089H417.57V228.729H409.45V237.089Z" fill="#ECECEC"/>
<path d="M409.45 222.899H417.57V214.539H409.45V222.899Z" fill="#ECECEC"/>
<path d="M409.45 208.699H417.57V200.339H409.45V208.699Z" fill="#ECECEC"/>
<path d="M409.45 194.508H417.57V186.148H409.45V194.508Z" fill="#ECECEC"/>
<path d="M409.45 180.308H417.57V171.948H409.45V180.308Z" fill="#ECECEC"/>
<path d="M409.45 166.117H417.57V157.757H409.45V166.117Z" fill="#ECECEC"/>
<path d="M409.45 151.917H417.57V143.557H409.45V151.917Z" fill="#ECECEC"/>
<path d="M409.45 137.727H417.57V129.367H409.45V137.727Z" fill="#ECECEC"/>
<path d="M409.45 123.526H417.57V115.166H409.45V123.526Z" fill="#ECECEC"/>
<path d="M409.45 109.336H417.57V100.976H409.45V109.336Z" fill="#ECECEC"/>
<path d="M407.272 285.51H399.152V293.87H407.272V285.51Z" fill="#ECECEC"/>
<path d="M456.991 93.8601H424.051V312.83H456.991V93.8601Z" fill="#A8A8A8"/>
<path d="M446.88 293.871H453.59V285.511H446.88V293.871Z" fill="#C8C8C8"/>
<path d="M438.306 293.871H445.016V285.511H438.306V293.871Z" fill="#C8C8C8"/>
<path d="M446.88 279.681H453.59V271.321H446.88V279.681Z" fill="#C8C8C8"/>
<path d="M438.306 279.681H445.016V271.321H438.306V279.681Z" fill="#C8C8C8"/>
<path d="M446.88 265.48H453.59V257.12H446.88V265.48Z" fill="#C8C8C8"/>
<path d="M438.306 265.48H445.016V257.12H438.306V265.48Z" fill="#C8C8C8"/>
<path d="M446.88 251.29H453.59V242.93H446.88V251.29Z" fill="#C8C8C8"/>
<path d="M438.306 251.29H445.016V242.93H438.306V251.29Z" fill="#C8C8C8"/>
<path d="M446.88 237.089H453.59V228.729H446.88V237.089Z" fill="#C8C8C8"/>
<path d="M438.306 237.089H445.016V228.729H438.306V237.089Z" fill="#C8C8C8"/>
<path d="M446.88 222.899H453.59V214.539H446.88V222.899Z" fill="#C8C8C8"/>
<path d="M438.306 222.899H445.016V214.539H438.306V222.899Z" fill="#C8C8C8"/>
<path d="M446.88 208.699H453.59V200.339H446.88V208.699Z" fill="#C8C8C8"/>
<path d="M438.306 208.699H445.016V200.339H438.306V208.699Z" fill="#C8C8C8"/>
<path d="M446.88 194.508H453.59V186.148H446.88V194.508Z" fill="#C8C8C8"/>
<path d="M438.306 194.508H445.016V186.148H438.306V194.508Z" fill="#C8C8C8"/>
<path d="M446.88 180.308H453.59V171.948H446.88V180.308Z" fill="#C8C8C8"/>
<path d="M438.306 180.308H445.016V171.948H438.306V180.308Z" fill="#C8C8C8"/>
<path d="M446.88 166.117H453.59V157.757H446.88V166.117Z" fill="#C8C8C8"/>
<path d="M438.306 166.117H445.016V157.757H438.306V166.117Z" fill="#C8C8C8"/>
<path d="M446.88 151.917H453.59V143.557H446.88V151.917Z" fill="#C8C8C8"/>
<path d="M438.306 151.917H445.016V143.557H438.306V151.917Z" fill="#C8C8C8"/>
<path d="M446.88 137.727H453.59V129.367H446.88V137.727Z" fill="#C8C8C8"/>
<path d="M438.306 137.727H445.016V129.367H438.306V137.727Z" fill="#C8C8C8"/>
<path d="M446.88 123.526H453.59V115.166H446.88V123.526Z" fill="#C8C8C8"/>
<path d="M438.306 123.526H445.016V115.166H438.306V123.526Z" fill="#C8C8C8"/>
<path d="M446.88 109.336H453.59V100.976H446.88V109.336Z" fill="#C8C8C8"/>
<path d="M436.511 100.97H429.801V109.33H436.511V100.97Z" fill="#C8C8C8"/>
<path d="M436.511 115.17H429.801V123.53H436.511V115.17Z" fill="#C8C8C8"/>
<path d="M436.511 129.36H429.801V137.72H436.511V129.36Z" fill="#C8C8C8"/>
<path d="M436.511 143.56H429.801V151.92H436.511V143.56Z" fill="#C8C8C8"/>
<path d="M436.511 157.75H429.801V166.11H436.511V157.75Z" fill="#C8C8C8"/>
<path d="M436.511 171.95H429.801V180.31H436.511V171.95Z" fill="#C8C8C8"/>
<path d="M436.511 186.14H429.801V194.5H436.511V186.14Z" fill="#C8C8C8"/>
<path d="M436.511 200.34H429.801V208.7H436.511V200.34Z" fill="#C8C8C8"/>
<path d="M436.511 214.53H429.801V222.89H436.511V214.53Z" fill="#C8C8C8"/>
<path d="M436.511 228.73H429.801V237.09H436.511V228.73Z" fill="#C8C8C8"/>
<path d="M436.511 242.92H429.801V251.28H436.511V242.92Z" fill="#C8C8C8"/>
<path d="M436.511 257.12H429.801V265.48H436.511V257.12Z" fill="#C8C8C8"/>
<path d="M436.511 271.31H429.801V279.67H436.511V271.31Z" fill="#C8C8C8"/>
<path d="M436.511 285.51H429.801V293.87H436.511V285.51Z" fill="#C8C8C8"/>
<path d="M438.306 109.336H445.016V100.976H438.306V109.336Z" fill="#C8C8C8"/>
<path d="M127.463 82.05H78.043V312.83H127.463V82.05Z" fill="#ECECEC"/>
<path d="M127.462 77H76.8516V82.05H127.462V77Z" fill="#C8C8C8"/>
<path d="M87.5217 89.5H82.5117V312.83H87.5217V89.5Z" fill="white"/>
<path d="M96.3928 89.5H91.3828V312.83H96.3928V89.5Z" fill="white"/>
<path d="M105.26 89.5H100.25V312.83H105.26V89.5Z" fill="white"/>
<path d="M114.123 89.5H109.113V312.83H114.123V89.5Z" fill="white"/>
<path d="M122.99 89.5H117.98V312.83H122.99V89.5Z" fill="white"/>
<path d="M87.5217 95.8799H82.5117V105.85H87.5217V95.8799Z" fill="#ECECEC"/>
<path d="M96.3928 95.8799H91.3828V105.85H96.3928V95.8799Z" fill="#ECECEC"/>
<path d="M105.26 95.8799H100.25V105.85H105.26V95.8799Z" fill="#ECECEC"/>
<path d="M114.123 95.8799H109.113V105.85H114.123V95.8799Z" fill="#ECECEC"/>
<path d="M122.99 95.8799H117.98V105.85H122.99V95.8799Z" fill="#ECECEC"/>
<path d="M87.5217 112.09H82.5117V122.06H87.5217V112.09Z" fill="#ECECEC"/>
<path d="M96.3928 112.09H91.3828V122.06H96.3928V112.09Z" fill="#ECECEC"/>
<path d="M105.26 112.09H100.25V122.06H105.26V112.09Z" fill="#ECECEC"/>
<path d="M114.123 112.09H109.113V122.06H114.123V112.09Z" fill="#ECECEC"/>
<path d="M122.99 112.09H117.98V122.06H122.99V112.09Z" fill="#ECECEC"/>
<path d="M87.5217 128.3H82.5117V138.27H87.5217V128.3Z" fill="#ECECEC"/>
<path d="M96.3928 128.3H91.3828V138.27H96.3928V128.3Z" fill="#ECECEC"/>
<path d="M105.26 128.3H100.25V138.27H105.26V128.3Z" fill="#ECECEC"/>
<path d="M114.123 128.3H109.113V138.27H114.123V128.3Z" fill="#ECECEC"/>
<path d="M122.99 128.3H117.98V138.27H122.99V128.3Z" fill="#ECECEC"/>
<path d="M87.5217 144.51H82.5117V154.48H87.5217V144.51Z" fill="#ECECEC"/>
<path d="M96.3928 144.51H91.3828V154.48H96.3928V144.51Z" fill="#ECECEC"/>
<path d="M105.26 144.51H100.25V154.48H105.26V144.51Z" fill="#ECECEC"/>
<path d="M114.123 144.51H109.113V154.48H114.123V144.51Z" fill="#ECECEC"/>
<path d="M122.99 144.51H117.98V154.48H122.99V144.51Z" fill="#ECECEC"/>
<path d="M87.5217 160.72H82.5117V170.69H87.5217V160.72Z" fill="#ECECEC"/>
<path d="M96.3928 160.72H91.3828V170.69H96.3928V160.72Z" fill="#ECECEC"/>
<path d="M105.26 160.72H100.25V170.69H105.26V160.72Z" fill="#ECECEC"/>
<path d="M114.123 160.72H109.113V170.69H114.123V160.72Z" fill="#ECECEC"/>
<path d="M122.99 160.72H117.98V170.69H122.99V160.72Z" fill="#ECECEC"/>
<path d="M87.5217 176.93H82.5117V186.9H87.5217V176.93Z" fill="#ECECEC"/>
<path d="M96.3928 176.93H91.3828V186.9H96.3928V176.93Z" fill="#ECECEC"/>
<path d="M105.26 176.93H100.25V186.9H105.26V176.93Z" fill="#ECECEC"/>
<path d="M114.123 176.93H109.113V186.9H114.123V176.93Z" fill="#ECECEC"/>
<path d="M122.99 176.93H117.98V186.9H122.99V176.93Z" fill="#ECECEC"/>
<path d="M87.5217 193.14H82.5117V203.11H87.5217V193.14Z" fill="#ECECEC"/>
<path d="M96.3928 193.14H91.3828V203.11H96.3928V193.14Z" fill="#ECECEC"/>
<path d="M105.26 193.14H100.25V203.11H105.26V193.14Z" fill="#ECECEC"/>
<path d="M114.123 193.14H109.113V203.11H114.123V193.14Z" fill="#ECECEC"/>
<path d="M122.99 193.14H117.98V203.11H122.99V193.14Z" fill="#ECECEC"/>
<path d="M87.5217 209.35H82.5117V219.32H87.5217V209.35Z" fill="#ECECEC"/>
<path d="M96.3928 209.35H91.3828V219.32H96.3928V209.35Z" fill="#ECECEC"/>
<path d="M105.26 209.35H100.25V219.32H105.26V209.35Z" fill="#ECECEC"/>
<path d="M114.123 209.35H109.113V219.32H114.123V209.35Z" fill="#ECECEC"/>
<path d="M122.99 209.35H117.98V219.32H122.99V209.35Z" fill="#ECECEC"/>
<path d="M87.5217 225.56H82.5117V235.53H87.5217V225.56Z" fill="#ECECEC"/>
<path d="M96.3928 225.56H91.3828V235.53H96.3928V225.56Z" fill="#ECECEC"/>
<path d="M105.26 225.56H100.25V235.53H105.26V225.56Z" fill="#ECECEC"/>
<path d="M114.123 225.56H109.113V235.53H114.123V225.56Z" fill="#ECECEC"/>
<path d="M122.99 225.56H117.98V235.53H122.99V225.56Z" fill="#ECECEC"/>
<path d="M87.5217 241.77H82.5117V251.74H87.5217V241.77Z" fill="#ECECEC"/>
<path d="M96.3928 241.77H91.3828V251.74H96.3928V241.77Z" fill="#ECECEC"/>
<path d="M105.26 241.77H100.25V251.74H105.26V241.77Z" fill="#ECECEC"/>
<path d="M114.123 241.77H109.113V251.74H114.123V241.77Z" fill="#ECECEC"/>
<path d="M122.99 241.77H117.98V251.74H122.99V241.77Z" fill="#ECECEC"/>
<path d="M87.5217 257.98H82.5117V267.95H87.5217V257.98Z" fill="#ECECEC"/>
<path d="M96.3928 257.98H91.3828V267.95H96.3928V257.98Z" fill="#ECECEC"/>
<path d="M105.26 257.98H100.25V267.95H105.26V257.98Z" fill="#ECECEC"/>
<path d="M114.123 257.98H109.113V267.95H114.123V257.98Z" fill="#ECECEC"/>
<path d="M122.99 257.98H117.98V267.95H122.99V257.98Z" fill="#ECECEC"/>
<path d="M87.5217 274.19H82.5117V284.16H87.5217V274.19Z" fill="#ECECEC"/>
<path d="M96.3928 274.19H91.3828V284.16H96.3928V274.19Z" fill="#ECECEC"/>
<path d="M105.26 274.19H100.25V284.16H105.26V274.19Z" fill="#ECECEC"/>
<path d="M114.123 274.19H109.113V284.16H114.123V274.19Z" fill="#ECECEC"/>
<path d="M122.99 274.19H117.98V284.16H122.99V274.19Z" fill="#ECECEC"/>
<path d="M87.5217 290.4H82.5117V300.37H87.5217V290.4Z" fill="#ECECEC"/>
<path d="M96.3928 290.4H91.3828V300.37H96.3928V290.4Z" fill="#ECECEC"/>
<path d="M105.26 290.4H100.25V300.37H105.26V290.4Z" fill="#ECECEC"/>
<path d="M114.123 290.4H109.113V300.37H114.123V290.4Z" fill="#ECECEC"/>
<path d="M122.99 290.4H117.98V300.37H122.99V290.4Z" fill="#ECECEC"/>
<path d="M87.5217 306.61H82.5117V312.83H87.5217V306.61Z" fill="#ECECEC"/>
<path d="M96.3928 306.61H91.3828V312.83H96.3928V306.61Z" fill="#ECECEC"/>
<path d="M105.26 306.61H100.25V312.83H105.26V306.61Z" fill="#ECECEC"/>
<path d="M114.123 306.61H109.113V312.83H114.123V306.61Z" fill="#ECECEC"/>
<path d="M122.99 306.61H117.98V312.83H122.99V306.61Z" fill="#ECECEC"/>
<path d="M159.191 82.05H127.461V312.83H159.191V82.05Z" fill="#DCDCDC"/>
<path d="M160.561 77H127.461V82.05H160.561V77Z" fill="#C8C8C8"/>
<path d="M136.94 89.5H131.93V312.83H136.94V89.5Z" fill="#C8C8C8"/>
<path d="M145.799 89.5H140.789V312.83H145.799V89.5Z" fill="#C8C8C8"/>
<path d="M154.67 89.5H149.66V312.83H154.67V89.5Z" fill="#C8C8C8"/>
<path d="M136.94 95.8799H131.93V105.85H136.94V95.8799Z" fill="#DCDCDC"/>
<path d="M145.799 95.8799H140.789V105.85H145.799V95.8799Z" fill="#DCDCDC"/>
<path d="M154.67 95.8799H149.66V105.85H154.67V95.8799Z" fill="#DCDCDC"/>
<path d="M136.94 112.09H131.93V122.06H136.94V112.09Z" fill="#DCDCDC"/>
<path d="M145.799 112.09H140.789V122.06H145.799V112.09Z" fill="#DCDCDC"/>
<path d="M154.67 112.09H149.66V122.06H154.67V112.09Z" fill="#DCDCDC"/>
<path d="M136.94 128.3H131.93V138.27H136.94V128.3Z" fill="#DCDCDC"/>
<path d="M145.799 128.3H140.789V138.27H145.799V128.3Z" fill="#DCDCDC"/>
<path d="M154.67 128.3H149.66V138.27H154.67V128.3Z" fill="#DCDCDC"/>
<path d="M136.94 144.51H131.93V154.48H136.94V144.51Z" fill="#DCDCDC"/>
<path d="M145.799 144.51H140.789V154.48H145.799V144.51Z" fill="#DCDCDC"/>
<path d="M154.67 144.51H149.66V154.48H154.67V144.51Z" fill="#DCDCDC"/>
<path d="M136.94 160.72H131.93V170.69H136.94V160.72Z" fill="#DCDCDC"/>
<path d="M145.799 160.72H140.789V170.69H145.799V160.72Z" fill="#DCDCDC"/>
<path d="M154.67 160.72H149.66V170.69H154.67V160.72Z" fill="#DCDCDC"/>
<path d="M136.94 176.93H131.93V186.9H136.94V176.93Z" fill="#DCDCDC"/>
<path d="M145.799 176.93H140.789V186.9H145.799V176.93Z" fill="#DCDCDC"/>
<path d="M154.67 176.93H149.66V186.9H154.67V176.93Z" fill="#DCDCDC"/>
<path d="M136.94 193.14H131.93V203.11H136.94V193.14Z" fill="#DCDCDC"/>
<path d="M145.799 193.14H140.789V203.11H145.799V193.14Z" fill="#DCDCDC"/>
<path d="M154.67 193.14H149.66V203.11H154.67V193.14Z" fill="#DCDCDC"/>
<path d="M136.94 209.35H131.93V219.32H136.94V209.35Z" fill="#DCDCDC"/>
<path d="M145.799 209.35H140.789V219.32H145.799V209.35Z" fill="#DCDCDC"/>
<path d="M154.67 209.35H149.66V219.32H154.67V209.35Z" fill="#DCDCDC"/>
<path d="M136.94 225.56H131.93V235.53H136.94V225.56Z" fill="#DCDCDC"/>
<path d="M145.799 225.56H140.789V235.53H145.799V225.56Z" fill="#DCDCDC"/>
<path d="M154.67 225.56H149.66V235.53H154.67V225.56Z" fill="#DCDCDC"/>
<path d="M136.94 241.77H131.93V251.74H136.94V241.77Z" fill="#DCDCDC"/>
<path d="M145.799 241.77H140.789V251.74H145.799V241.77Z" fill="#DCDCDC"/>
<path d="M154.67 241.77H149.66V251.74H154.67V241.77Z" fill="#DCDCDC"/>
<path d="M136.94 257.98H131.93V267.95H136.94V257.98Z" fill="#DCDCDC"/>
<path d="M145.799 257.98H140.789V267.95H145.799V257.98Z" fill="#DCDCDC"/>
<path d="M154.67 257.98H149.66V267.95H154.67V257.98Z" fill="#DCDCDC"/>
<path d="M136.94 274.19H131.93V284.16H136.94V274.19Z" fill="#DCDCDC"/>
<path d="M145.799 274.19H140.789V284.16H145.799V274.19Z" fill="#DCDCDC"/>
<path d="M154.67 274.19H149.66V284.16H154.67V274.19Z" fill="#DCDCDC"/>
<path d="M136.94 290.4H131.93V300.37H136.94V290.4Z" fill="#DCDCDC"/>
<path d="M145.799 290.4H140.789V300.37H145.799V290.4Z" fill="#DCDCDC"/>
<path d="M154.67 290.4H149.66V300.37H154.67V290.4Z" fill="#DCDCDC"/>
<path d="M136.94 306.61H131.93V312.83H136.94V306.61Z" fill="#DCDCDC"/>
<path d="M145.799 306.61H140.789V312.83H145.799V306.61Z" fill="#DCDCDC"/>
<path d="M154.67 306.61H149.66V312.83H154.67V306.61Z" fill="#DCDCDC"/>
<path d="M65.21 166.86H16V312.83H65.21V166.86Z" fill="#ECECEC"/>
<path d="M65.21 154.49H23V166.87H65.21V154.49Z" fill="#C8C8C8"/>
<path d="M59.8184 173.32H21.3984V312.83H59.8184V173.32Z" fill="#DCDCDC"/>
<path d="M59.8184 186.64H21.3984V189.94H59.8184V186.64Z" fill="white"/>
<path d="M59.8184 200.29H21.3984V203.59H59.8184V200.29Z" fill="white"/>
<path d="M59.8184 213.95H21.3984V217.25H59.8184V213.95Z" fill="white"/>
<path d="M59.8184 227.6H21.3984V230.9H59.8184V227.6Z" fill="white"/>
<path d="M59.8184 241.26H21.3984V244.56H59.8184V241.26Z" fill="white"/>
<path d="M59.8184 254.91H21.3984V258.21H59.8184V254.91Z" fill="white"/>
<path d="M59.8184 268.57H21.3984V271.87H59.8184V268.57Z" fill="white"/>
<path d="M59.8184 282.22H21.3984V285.52H59.8184V282.22Z" fill="white"/>
<path d="M59.8184 295.88H21.3984V299.18H59.8184V295.88Z" fill="white"/>
<path d="M59.8184 309.54H21.3984V312.84H59.8184V309.54Z" fill="white"/>
<path d="M96.0309 166.86H65.2109V312.83H96.0309V166.86Z" fill="#DCDCDC"/>
<path d="M91.4109 154.49H65.2109V166.87H91.4109V154.49Z" fill="#A8A8A8"/>
<path d="M93.1609 173.32H69.4609V312.83H93.1609V173.32Z" fill="#C8C8C8"/>
<path d="M93.1609 186.64H69.4609V189.94H93.1609V186.64Z" fill="white"/>
<path d="M93.1609 200.29H69.4609V203.59H93.1609V200.29Z" fill="white"/>
<path d="M93.1609 213.95H69.4609V217.25H93.1609V213.95Z" fill="white"/>
<path d="M93.1609 227.6H69.4609V230.9H93.1609V227.6Z" fill="white"/>
<path d="M93.1609 241.26H69.4609V244.56H93.1609V241.26Z" fill="white"/>
<path d="M93.1609 254.91H69.4609V258.21H93.1609V254.91Z" fill="white"/>
<path d="M93.1609 268.57H69.4609V271.87H93.1609V268.57Z" fill="white"/>
<path d="M93.1609 282.22H69.4609V285.52H93.1609V282.22Z" fill="white"/>
<path d="M93.1609 295.88H69.4609V299.18H93.1609V295.88Z" fill="white"/>
<path d="M93.1609 309.54H69.4609V312.84H93.1609V309.54Z" fill="white"/>
<path d="M203.118 227.38H165.078V312.83H203.118V227.38Z" fill="#DCDCDC"/>
<path d="M177.789 234.78H171.059V240.02H177.789V234.78Z" fill="#C8C8C8"/>
<path d="M177.789 245.96H171.059V251.2H177.789V245.96Z" fill="#C8C8C8"/>
<path d="M177.789 257.14H171.059V262.38H177.789V257.14Z" fill="#C8C8C8"/>
<path d="M177.789 268.32H171.059V273.56H177.789V268.32Z" fill="#C8C8C8"/>
<path d="M177.789 279.51H171.059V284.75H177.789V279.51Z" fill="#C8C8C8"/>
<path d="M177.789 290.69H171.059V295.93H177.789V290.69Z" fill="#C8C8C8"/>
<path d="M177.789 301.87H171.059V307.11H177.789V301.87Z" fill="#C8C8C8"/>
<path d="M187.48 234.78H180.75V240.02H187.48V234.78Z" fill="#C8C8C8"/>
<path d="M187.48 245.96H180.75V251.2H187.48V245.96Z" fill="#C8C8C8"/>
<path d="M187.48 257.14H180.75V262.38H187.48V257.14Z" fill="#C8C8C8"/>
<path d="M187.48 268.32H180.75V273.56H187.48V268.32Z" fill="#C8C8C8"/>
<path d="M187.48 279.51H180.75V284.75H187.48V279.51Z" fill="#C8C8C8"/>
<path d="M187.48 290.69H180.75V295.93H187.48V290.69Z" fill="#C8C8C8"/>
<path d="M187.48 301.87H180.75V307.11H187.48V301.87Z" fill="#C8C8C8"/>
<path d="M197.14 234.78H190.41V240.02H197.14V234.78Z" fill="#C8C8C8"/>
<path d="M197.14 245.96H190.41V251.2H197.14V245.96Z" fill="#C8C8C8"/>
<path d="M197.14 257.14H190.41V262.38H197.14V257.14Z" fill="#C8C8C8"/>
<path d="M197.14 268.32H190.41V273.56H197.14V268.32Z" fill="#C8C8C8"/>
<path d="M197.14 279.51H190.41V284.75H197.14V279.51Z" fill="#C8C8C8"/>
<path d="M197.14 290.69H190.41V295.93H197.14V290.69Z" fill="#C8C8C8"/>
<path d="M197.14 301.87H190.41V307.11H197.14V301.87Z" fill="#C8C8C8"/>
<path d="M229.807 227.38H203.117V312.83H229.807V227.38Z" fill="#A8A8A8"/>
<path d="M221.59 306.275H227.07V301.035H221.59V306.275Z" fill="#C8C8C8"/>
<path d="M221.59 295.091H227.07V289.851H221.59V295.091Z" fill="#C8C8C8"/>
<path d="M221.59 283.906H227.07V278.666H221.59V283.906Z" fill="#C8C8C8"/>
<path d="M221.59 272.721H227.07V267.481H221.59V272.721Z" fill="#C8C8C8"/>
<path d="M221.59 261.537H227.07V256.297H221.59V261.537Z" fill="#C8C8C8"/>
<path d="M221.59 250.362H227.07V245.122H221.59V250.362Z" fill="#C8C8C8"/>
<path d="M221.59 239.177H227.07V233.938H221.59V239.177Z" fill="#C8C8C8"/>
<path d="M213.715 306.275H219.195V301.035H213.715V306.275Z" fill="#C8C8C8"/>
<path d="M213.715 295.091H219.195V289.851H213.715V295.091Z" fill="#C8C8C8"/>
<path d="M213.715 283.906H219.195V278.666H213.715V283.906Z" fill="#C8C8C8"/>
<path d="M213.715 272.721H219.195V267.481H213.715V272.721Z" fill="#C8C8C8"/>
<path d="M213.715 261.537H219.195V256.297H213.715V261.537Z" fill="#C8C8C8"/>
<path d="M213.715 250.362H219.195V245.122H213.715V250.362Z" fill="#C8C8C8"/>
<path d="M213.715 239.177H219.195V233.938H213.715V239.177Z" fill="#C8C8C8"/>
<path d="M205.852 306.275H211.332V301.035H205.852V306.275Z" fill="#C8C8C8"/>
<path d="M205.852 295.091H211.332V289.851H205.852V295.091Z" fill="#C8C8C8"/>
<path d="M205.852 283.906H211.332V278.666H205.852V283.906Z" fill="#C8C8C8"/>
<path d="M205.852 272.721H211.332V267.481H205.852V272.721Z" fill="#C8C8C8"/>
<path d="M205.852 261.537H211.332V256.297H205.852V261.537Z" fill="#C8C8C8"/>
<path d="M205.852 250.362H211.332V245.122H205.852V250.362Z" fill="#C8C8C8"/>
<path d="M205.852 239.177H211.332V233.938H205.852V239.177Z" fill="#C8C8C8"/>
<path d="M486.128 129.36H459.848V160.4H486.128V129.36Z" fill="#DCDCDC"/>
<path d="M502.789 129.36H486.129V161.54H502.789V129.36Z" fill="#C8C8C8"/>
<path d="M503.899 143.07H487.359V161.54H503.899V143.07Z" fill="#DCDCDC"/>
<path d="M514.208 143.07H503.898V161.54H514.208V143.07Z" fill="#C8C8C8"/>
<path d="M492.27 158.39H449.77V312.83H492.27V158.39Z" fill="#ECECEC"/>
<path d="M467.989 165.03H454.629V170.49H467.989V165.03Z" fill="white"/>
<path d="M485.079 165.03H471.719V170.49H485.079V165.03Z" fill="white"/>
<path d="M467.989 174.3H454.629V179.76H467.989V174.3Z" fill="white"/>
<path d="M485.079 174.3H471.719V179.76H485.079V174.3Z" fill="white"/>
<path d="M467.989 183.57H454.629V189.03H467.989V183.57Z" fill="white"/>
<path d="M485.079 183.57H471.719V189.03H485.079V183.57Z" fill="white"/>
<path d="M467.989 192.84H454.629V198.3H467.989V192.84Z" fill="white"/>
<path d="M485.079 192.84H471.719V198.3H485.079V192.84Z" fill="white"/>
<path d="M467.989 202.11H454.629V207.57H467.989V202.11Z" fill="white"/>
<path d="M485.079 202.11H471.719V207.57H485.079V202.11Z" fill="white"/>
<path d="M467.989 211.38H454.629V216.84H467.989V211.38Z" fill="white"/>
<path d="M485.079 211.38H471.719V216.84H485.079V211.38Z" fill="white"/>
<path d="M467.989 220.65H454.629V226.11H467.989V220.65Z" fill="white"/>
<path d="M485.079 220.65H471.719V226.11H485.079V220.65Z" fill="white"/>
<path d="M467.989 229.92H454.629V235.38H467.989V229.92Z" fill="white"/>
<path d="M485.079 229.92H471.719V235.38H485.079V229.92Z" fill="white"/>
<path d="M467.989 239.19H454.629V244.65H467.989V239.19Z" fill="white"/>
<path d="M485.079 239.19H471.719V244.65H485.079V239.19Z" fill="white"/>
<path d="M467.989 248.46H454.629V253.92H467.989V248.46Z" fill="white"/>
<path d="M485.079 248.46H471.719V253.92H485.079V248.46Z" fill="white"/>
<path d="M467.989 257.73H454.629V263.19H467.989V257.73Z" fill="white"/>
<path d="M485.079 257.73H471.719V263.19H485.079V257.73Z" fill="white"/>
<path d="M467.989 267H454.629V272.46H467.989V267Z" fill="white"/>
<path d="M485.079 267H471.719V272.46H485.079V267Z" fill="white"/>
<path d="M467.989 276.27H454.629V281.73H467.989V276.27Z" fill="white"/>
<path d="M485.079 276.27H471.719V281.73H485.079V276.27Z" fill="white"/>
<path d="M467.989 285.54H454.629V291H467.989V285.54Z" fill="white"/>
<path d="M485.079 285.54H471.719V291H485.079V285.54Z" fill="white"/>
<path d="M526.698 158.39H492.258V312.83H526.698V158.39Z" fill="#C8C8C8"/>
<path d="M512.276 291H523.246V285.54H512.276V291Z" fill="#ECECEC"/>
<path d="M498.237 291H509.207V285.54H498.237V291Z" fill="#ECECEC"/>
<path d="M512.276 281.73H523.246V276.27H512.276V281.73Z" fill="#ECECEC"/>
<path d="M498.237 281.73H509.207V276.27H498.237V281.73Z" fill="#ECECEC"/>
<path d="M512.276 272.459H523.246V266.999H512.276V272.459Z" fill="#ECECEC"/>
<path d="M498.237 272.459H509.207V266.999H498.237V272.459Z" fill="#ECECEC"/>
<path d="M512.276 263.189H523.246V257.729H512.276V263.189Z" fill="#ECECEC"/>
<path d="M498.237 263.189H509.207V257.729H498.237V263.189Z" fill="#ECECEC"/>
<path d="M512.276 253.919H523.246V248.459H512.276V253.919Z" fill="#ECECEC"/>
<path d="M498.237 253.919H509.207V248.459H498.237V253.919Z" fill="#ECECEC"/>
<path d="M512.276 244.649H523.246V239.189H512.276V244.649Z" fill="#ECECEC"/>
<path d="M498.237 244.649H509.207V239.189H498.237V244.649Z" fill="#ECECEC"/>
<path d="M512.276 235.378H523.246V229.918H512.276V235.378Z" fill="#ECECEC"/>
<path d="M498.237 235.378H509.207V229.918H498.237V235.378Z" fill="#ECECEC"/>
<path d="M512.276 226.108H523.246V220.648H512.276V226.108Z" fill="#ECECEC"/>
<path d="M498.237 226.108H509.207V220.648H498.237V226.108Z" fill="#ECECEC"/>
<path d="M512.276 216.838H523.246V211.378H512.276V216.838Z" fill="#ECECEC"/>
<path d="M498.237 216.838H509.207V211.378H498.237V216.838Z" fill="#ECECEC"/>
<path d="M512.276 207.568H523.246V202.108H512.276V207.568Z" fill="#ECECEC"/>
<path d="M498.237 207.568H509.207V202.108H498.237V207.568Z" fill="#ECECEC"/>
<path d="M512.276 198.298H523.246V192.838H512.276V198.298Z" fill="#ECECEC"/>
<path d="M498.237 198.298H509.207V192.838H498.237V198.298Z" fill="#ECECEC"/>
<path d="M512.276 189.027H523.246V183.567H512.276V189.027Z" fill="#ECECEC"/>
<path d="M498.237 189.027H509.207V183.567H498.237V189.027Z" fill="#ECECEC"/>
<path d="M512.276 179.757H523.246V174.297H512.276V179.757Z" fill="#ECECEC"/>
<path d="M498.237 179.757H509.207V174.297H498.237V179.757Z" fill="#ECECEC"/>
<path d="M512.276 170.487H523.246V165.027H512.276V170.487Z" fill="#ECECEC"/>
<path d="M498.237 170.487H509.207V165.027H498.237V170.487Z" fill="#ECECEC"/>
<path d="M312.46 212.2H262.34V312.84H312.46V212.2Z" fill="#C8C8C8"/>
<path d="M279.1 220.91H270.23V227.08H279.1V220.91Z" fill="#DCDCDC"/>
<path d="M279.1 234.08H270.23V240.25H279.1V234.08Z" fill="#DCDCDC"/>
<path d="M279.1 247.24H270.23V253.41H279.1V247.24Z" fill="#DCDCDC"/>
<path d="M279.1 260.41H270.23V266.58H279.1V260.41Z" fill="#DCDCDC"/>
<path d="M279.1 273.58H270.23V279.75H279.1V273.58Z" fill="#DCDCDC"/>
<path d="M279.1 286.75H270.23V292.92H279.1V286.75Z" fill="#DCDCDC"/>
<path d="M279.1 299.92H270.23V306.09H279.1V299.92Z" fill="#DCDCDC"/>
<path d="M291.862 220.91H282.992V227.08H291.862V220.91Z" fill="#DCDCDC"/>
<path d="M291.862 234.08H282.992V240.25H291.862V234.08Z" fill="#DCDCDC"/>
<path d="M291.862 247.24H282.992V253.41H291.862V247.24Z" fill="#DCDCDC"/>
<path d="M291.862 260.41H282.992V266.58H291.862V260.41Z" fill="#DCDCDC"/>
<path d="M291.862 273.58H282.992V279.75H291.862V273.58Z" fill="#DCDCDC"/>
<path d="M291.862 286.75H282.992V292.92H291.862V286.75Z" fill="#DCDCDC"/>
<path d="M291.862 299.92H282.992V306.09H291.862V299.92Z" fill="#DCDCDC"/>
<path d="M304.589 220.91H295.719V227.08H304.589V220.91Z" fill="#DCDCDC"/>
<path d="M304.589 234.08H295.719V240.25H304.589V234.08Z" fill="#DCDCDC"/>
<path d="M304.589 247.24H295.719V253.41H304.589V247.24Z" fill="#DCDCDC"/>
<path d="M304.589 260.41H295.719V266.58H304.589V260.41Z" fill="#DCDCDC"/>
<path d="M304.589 273.58H295.719V279.75H304.589V273.58Z" fill="#DCDCDC"/>
<path d="M304.589 286.75H295.719V292.92H304.589V286.75Z" fill="#DCDCDC"/>
<path d="M304.589 299.92H295.719V306.09H304.589V299.92Z" fill="#DCDCDC"/>
<path d="M312.472 201.71H279.102V212.2H312.472V201.71Z" fill="#DCDCDC"/>
<path d="M312.469 195.22H291.309V201.71H312.469V195.22Z" fill="#ECECEC"/>
<path d="M347.639 212.2H312.469V312.84H347.639V212.2Z" fill="#A8A8A8"/>
<path d="M336.811 305.103H344.031V298.933H336.811V305.103Z" fill="#C8C8C8"/>
<path d="M336.811 291.935H344.031V285.765H336.811V291.935Z" fill="#C8C8C8"/>
<path d="M336.811 278.765H344.031V272.595H336.811V278.765Z" fill="#C8C8C8"/>
<path d="M336.811 265.597H344.031V259.427H336.811V265.597Z" fill="#C8C8C8"/>
<path d="M336.811 252.428H344.031V246.258H336.811V252.428Z" fill="#C8C8C8"/>
<path d="M336.811 239.26H344.031V233.09H336.811V239.26Z" fill="#C8C8C8"/>
<path d="M336.811 226.091H344.031V219.921H336.811V226.091Z" fill="#C8C8C8"/>
<path d="M326.428 305.103H333.648V298.933H326.428V305.103Z" fill="#C8C8C8"/>
<path d="M326.428 291.935H333.648V285.765H326.428V291.935Z" fill="#C8C8C8"/>
<path d="M326.428 278.765H333.648V272.595H326.428V278.765Z" fill="#C8C8C8"/>
<path d="M326.428 265.597H333.648V259.427H326.428V265.597Z" fill="#C8C8C8"/>
<path d="M326.428 252.428H333.648V246.258H326.428V252.428Z" fill="#C8C8C8"/>
<path d="M326.428 239.26H333.648V233.09H326.428V239.26Z" fill="#C8C8C8"/>
<path d="M326.428 226.091H333.648V219.921H326.428V226.091Z" fill="#C8C8C8"/>
<path d="M316.065 305.103H323.285V298.933H316.065V305.103Z" fill="#C8C8C8"/>
<path d="M316.065 291.935H323.285V285.765H316.065V291.935Z" fill="#C8C8C8"/>
<path d="M316.065 278.765H323.285V272.595H316.065V278.765Z" fill="#C8C8C8"/>
<path d="M316.065 265.597H323.285V259.427H316.065V265.597Z" fill="#C8C8C8"/>
<path d="M316.065 252.428H323.285V246.258H316.065V252.428Z" fill="#C8C8C8"/>
<path d="M316.065 239.26H323.285V233.09H316.065V239.26Z" fill="#C8C8C8"/>
<path d="M316.065 226.091H323.285V219.921H316.065V226.091Z" fill="#C8C8C8"/>
<path d="M342.309 201.71H312.469V212.2H342.309V201.71Z" fill="#C8C8C8"/>
<path d="M328.639 195.22H312.469V201.71H328.639V195.22Z" fill="#DCDCDC"/>
<path d="M58.8788 311.24C58.8788 311.24 57.7688 306.08 55.5588 305.28C53.3488 304.48 51.9988 306.8 51.9988 306.8C51.9988 306.8 51.4787 301.87 48.3487 300.39C45.2188 298.91 42.8588 301.94 42.8588 301.94C42.8588 301.94 40.4588 295.68 36.1588 295.68C31.8588 295.68 29.6988 304.84 29.6988 304.84C29.6988 304.84 27.1688 302.11 24.5688 303.65C21.9688 305.19 21.9688 311.24 21.9688 311.24H58.8788Z" fill="#39B039"/>
<path d="M425.547 311.24C425.547 311.24 424.437 306.08 422.227 305.28C420.017 304.48 418.667 306.8 418.667 306.8C418.667 306.8 418.147 301.87 415.017 300.39C411.887 298.91 409.527 301.94 409.527 301.94C409.527 301.94 407.117 295.68 402.827 295.68C398.527 295.68 396.367 304.84 396.367 304.84C396.367 304.84 393.837 302.11 391.237 303.65C388.637 305.19 388.637 311.24 388.637 311.24H425.547Z" fill="#39B039"/>
<path d="M156.549 311.24H117.699C117.699 311.24 118.979 305.76 121.559 305.37C124.139 304.98 125.329 307.52 125.329 307.52C125.329 307.52 125.209 299.88 130.029 298.58C134.839 297.28 138.879 304.03 138.879 304.03C138.879 304.03 141.899 300.18 146.009 300.43C150.119 300.68 151.169 307.04 151.169 307.04C151.169 307.04 154.899 304.83 156.549 311.24Z" fill="#39B039"/>
<path d="M24.3484 311.24H3.89844C3.89844 311.24 3.94844 308.2 5.95844 307.39C7.96844 306.58 9.16844 308.16 9.16844 308.16C9.16844 308.16 9.98844 302.56 13.7384 302.56C17.4884 302.56 19.2784 307.39 19.2784 307.39C19.2784 307.39 20.1184 305.93 22.1984 306.2C24.2684 306.47 24.3484 311.24 24.3484 311.24Z" fill="#39B039"/>
<path d="M172.598 311.24H152.148C152.148 311.24 152.198 308.2 154.208 307.39C156.218 306.58 157.418 308.16 157.418 308.16C157.418 308.16 158.238 302.56 161.988 302.56C165.738 302.56 167.528 307.39 167.528 307.39C167.528 307.39 168.368 305.93 170.448 306.2C172.518 306.47 172.598 311.24 172.598 311.24Z" fill="#39B039"/>
<path d="M508.97 311.24H488.52C488.52 311.24 488.57 308.2 490.58 307.39C492.59 306.58 493.79 308.16 493.79 308.16C493.79 308.16 494.61 302.56 498.36 302.56C502.11 302.56 503.9 307.39 503.9 307.39C503.9 307.39 504.74 305.93 506.82 306.2C508.88 306.47 508.97 311.24 508.97 311.24Z" fill="#39B039"/>
<path d="M538.81 311.24H505.09C505.09 311.24 505.17 306.22 508.48 304.89C511.79 303.56 513.77 306.16 513.77 306.16C513.77 306.16 515.12 296.93 521.3 296.93C527.48 296.93 530.43 304.89 530.43 304.89C530.43 304.89 531.81 302.48 535.24 302.93C538.67 303.38 538.81 311.24 538.81 311.24Z" fill="#39B039"/>
<path d="M545.7 311.24H-3V320.8H545.7V311.24Z" fill="#C8C8C8"/>
<path d="M35.4703 311.24C35.9803 312.83 36.1003 314.43 36.1203 316.02C36.1003 317.61 35.9903 319.21 35.4703 320.8C34.9503 319.21 34.8403 317.61 34.8203 316.02C34.8403 314.42 34.9503 312.83 35.4703 311.24Z" fill="#1A2E35"/>
<path d="M78.3609 311.24C78.8709 312.83 78.9909 314.43 79.0109 316.02C78.9909 317.61 78.8809 319.21 78.3609 320.8C77.8409 319.21 77.7309 317.61 77.7109 316.02C77.7309 314.42 77.8409 312.83 78.3609 311.24Z" fill="#1A2E35"/>
<path d="M121.24 311.24C121.75 312.83 121.87 314.43 121.89 316.02C121.87 317.61 121.76 319.21 121.24 320.8C120.72 319.21 120.61 317.61 120.59 316.02C120.61 314.42 120.73 312.83 121.24 311.24Z" fill="#1A2E35"/>
<path d="M164.13 311.24C164.64 312.83 164.76 314.43 164.78 316.02C164.76 317.61 164.65 319.21 164.13 320.8C163.61 319.21 163.5 317.61 163.48 316.02C163.5 314.42 163.62 312.83 164.13 311.24Z" fill="#1A2E35"/>
<path d="M207.021 311.24C207.531 312.83 207.651 314.43 207.671 316.02C207.651 317.61 207.541 319.21 207.021 320.8C206.501 319.21 206.391 317.61 206.371 316.02C206.391 314.42 206.501 312.83 207.021 311.24Z" fill="#1A2E35"/>
<path d="M249.912 311.24C250.422 312.83 250.542 314.43 250.562 316.02C250.542 317.61 250.432 319.21 249.912 320.8C249.392 319.21 249.282 317.61 249.262 316.02C249.282 314.42 249.392 312.83 249.912 311.24Z" fill="#1A2E35"/>
<path d="M292.791 311.24C293.301 312.83 293.421 314.43 293.441 316.02C293.421 317.61 293.311 319.21 292.791 320.8C292.271 319.21 292.161 317.61 292.141 316.02C292.161 314.42 292.281 312.83 292.791 311.24Z" fill="#1A2E35"/>
<path d="M335.681 311.24C336.191 312.83 336.311 314.43 336.331 316.02C336.311 317.61 336.201 319.21 335.681 320.8C335.161 319.21 335.051 317.61 335.031 316.02C335.051 314.42 335.171 312.83 335.681 311.24Z" fill="#1A2E35"/>
<path d="M378.572 311.24C379.082 312.83 379.202 314.43 379.222 316.02C379.202 317.61 379.092 319.21 378.572 320.8C378.052 319.21 377.942 317.61 377.922 316.02C377.942 314.42 378.062 312.83 378.572 311.24Z" fill="#1A2E35"/>
<path d="M421.459 311.24C421.969 312.83 422.089 314.43 422.109 316.02C422.089 317.61 421.979 319.21 421.459 320.8C420.939 319.21 420.829 317.61 420.809 316.02C420.829 314.42 420.939 312.83 421.459 311.24Z" fill="#1A2E35"/>
<path d="M464.349 311.24C464.859 312.83 464.979 314.43 464.999 316.02C464.979 317.61 464.869 319.21 464.349 320.8C463.829 319.21 463.719 317.61 463.699 316.02C463.719 314.42 463.829 312.83 464.349 311.24Z" fill="#1A2E35"/>
<path d="M507.232 311.24C507.742 312.83 507.862 314.43 507.882 316.02C507.862 317.61 507.752 319.21 507.232 320.8C506.712 319.21 506.602 317.61 506.582 316.02C506.602 314.42 506.722 312.83 507.232 311.24Z" fill="#1A2E35"/>
<path d="M339.029 221.95H185.609V132.82C185.609 127.05 190.289 122.36 196.069 122.36H328.589C334.359 122.36 339.049 127.04 339.049 132.82V221.95H339.029Z" fill="#233239" stroke="#233239" stroke-miterlimit="10"/>
<path d="M332.729 129.13H191.879V212.44H332.729V129.13Z" fill="#A78BEF"/>
<g opacity="0.44">
<path d="M191.879 179.06L241.809 129.13H226.909L191.879 164.16V179.06Z" fill="white"/>
<path d="M256.75 212.44L332.73 136.46V129.13H325.15L241.84 212.44H256.75Z" fill="white"/>
</g>
<path d="M315.389 217.16H209.949V222.36H315.389V217.16Z" fill="#233239" stroke="#233239" stroke-miterlimit="10" stroke-linecap="round" stroke-linejoin="round"/>
<path d="M315.389 219.66H209.949V222.35H315.389V219.66Z" fill="white" stroke="#233239" stroke-miterlimit="10" stroke-linecap="round" stroke-linejoin="round"/>
<path d="M173.199 225.43C173.199 225.43 174.929 227.55 180.129 229.28H345.219C345.219 229.28 349.069 228.32 350.799 225.62L173.199 225.43Z" fill="#233239" stroke="#233239" stroke-miterlimit="10" stroke-linecap="round" stroke-linejoin="round"/>
<path d="M349.6 225.69H174.41C173.54 225.69 172.84 224.99 172.84 224.12V223.21C172.84 222.34 173.54 221.64 174.41 221.64H349.6C350.47 221.64 351.17 222.34 351.17 223.21V224.12C351.17 224.98 350.47 225.69 349.6 225.69Z" fill="#969696" stroke="#233239" stroke-miterlimit="10"/>
<path d="M263.63 125.37C263.63 124.63 263.03 124.02 262.28 124.02C261.54 124.02 260.93 124.62 260.93 125.37C260.93 126.12 261.53 126.72 262.28 126.72C263.03 126.72 263.63 126.12 263.63 125.37Z" fill="#737373" stroke="#233239" stroke-miterlimit="10" stroke-linecap="round" stroke-linejoin="round"/>
<path d="M187.048 150.39C186.838 150.39 186.668 150.22 186.668 150.01V138.84C186.668 138.63 186.838 138.46 187.048 138.46C187.258 138.46 187.428 138.63 187.428 138.84V150C187.438 150.22 187.258 150.39 187.048 150.39Z" fill="#233239"/>
<path d="M269.413 177.76C265.873 177.76 262.333 177.76 258.803 177.76C256.893 177.76 255.653 176.58 255.483 174.69C255.123 170.72 254.733 166.75 254.373 162.79C254.113 159.94 253.863 157.09 253.613 154.25C253.443 152.34 253.273 150.42 253.073 148.51C253.043 148.27 252.873 148 252.683 147.83C250.033 145.4 249.423 141.82 251.143 138.69C253.483 134.44 259.693 133.78 262.853 137.45C266.333 141.48 264.803 147.36 259.783 149.22C259.503 149.32 259.393 149.45 259.423 149.74C259.663 152.27 259.903 154.81 260.123 157.35C260.163 157.81 260.453 157.75 260.743 157.75C264.073 157.75 267.403 157.75 270.733 157.75C272.863 157.75 275.003 157.74 277.133 157.76C278.483 157.77 279.713 158.69 280.083 159.93C280.483 161.26 279.993 162.67 278.853 163.46C278.273 163.86 277.623 163.99 276.933 163.98C271.873 163.97 266.803 163.98 261.743 163.98C260.643 163.98 260.733 163.91 260.833 164.95C261.033 166.97 261.223 168.98 261.373 171.01C261.423 171.68 261.853 171.57 262.243 171.57C267.773 171.57 273.313 171.57 278.843 171.57C280.143 171.57 281.443 171.57 282.743 171.57C284.233 171.58 285.233 172.25 285.793 173.64C288.083 179.4 290.363 185.17 292.633 190.94C292.793 191.35 292.983 191.45 293.403 191.35C294.863 191 296.343 190.68 297.813 190.36C300.293 189.83 302.283 191.94 301.553 194.33C301.213 195.44 300.413 196.15 299.283 196.41C296.683 197.01 294.083 197.59 291.473 198.14C290.053 198.44 288.613 197.63 288.073 196.26C286.273 191.74 284.483 187.21 282.683 182.69C282.103 181.22 281.513 179.76 280.953 178.29C280.813 177.91 280.613 177.77 280.193 177.77C276.593 177.77 273.003 177.76 269.413 177.76Z" fill="#E527BB"/>
<path d="M279.903 186.52C280.553 188.28 281.183 189.98 281.813 191.69C282.063 192.37 282.323 193.05 282.593 193.73C282.723 194.05 282.683 194.3 282.463 194.58C278.523 199.65 273.433 202.84 267.083 203.85C260.663 204.87 254.723 203.5 249.433 199.7C243.903 195.73 240.593 190.31 239.603 183.56C238.933 178.98 239.583 174.55 241.513 170.32C243.413 166.16 246.273 162.84 250.053 160.29C250.123 160.24 250.193 160.2 250.343 160.12C250.403 160.69 250.473 161.22 250.523 161.74C250.673 163.41 250.803 165.09 250.963 166.76C251.013 167.24 250.893 167.59 250.543 167.96C247.363 171.28 245.583 175.27 245.603 179.86C245.623 187.29 248.973 192.89 255.673 196.14C262.023 199.21 268.213 198.47 273.933 194.36C276.533 192.49 278.403 189.99 279.653 187.03C279.703 186.92 279.743 186.81 279.793 186.69C279.813 186.65 279.833 186.63 279.903 186.52Z" fill="#E527BB"/>
<path d="M353.8 206.17V275.97C353.8 281.68 349.18 286.3 343.47 286.3H300.64C294.87 286.3 290.18 281.62 290.18 275.84V206.29C290.18 200.52 294.86 195.83 300.64 195.83H343.47C349.18 195.84 353.8 200.46 353.8 206.17Z" fill="#233239" stroke="#233239" stroke-miterlimit="10"/>
<path d="M293.953 199.86V282.29H349.893V199.86H293.953Z" fill="#E527BB"/>
<path opacity="0.44" d="M320.089 282.29L349.889 252.49V242.87L310.469 282.29H320.089Z" fill="white"/>
<path opacity="0.44" d="M293.949 230.73V240.35L334.429 199.87H324.809L293.949 230.73Z" fill="white"/>
<path d="M322.301 197.57C321.821 197.57 321.441 197.96 321.441 198.43C321.441 198.91 321.831 199.29 322.301 199.29C322.781 199.29 323.161 198.9 323.161 198.43C323.161 197.96 322.771 197.57 322.301 197.57Z" fill="#737373" stroke="#233239" stroke-miterlimit="10" stroke-linecap="round" stroke-linejoin="round"/>
<path d="M342.809 240.95C342.569 240.71 338.759 236.83 333.089 234.23L331.519 235.83C335.809 237.67 339.119 240.39 340.549 241.68C338.689 243.35 333.639 247.46 327.389 248.89C329.849 247.43 331.489 244.75 331.489 241.68C331.489 240.03 331.009 238.49 330.179 237.19L318.739 248.85C318.759 248.87 318.789 248.88 318.819 248.89C318.789 248.88 318.749 248.88 318.719 248.87L317.039 250.58C318.939 251.12 320.979 251.46 323.099 251.46C333.879 251.46 342.439 242.76 342.799 242.39C343.199 241.99 343.199 241.35 342.809 240.95Z" fill="#A78BEF"/>
<path d="M336.27 226.9C335.86 226.5 335.2 226.51 334.8 226.91L329.08 232.74C327.2 232.21 325.2 231.88 323.11 231.88C312.33 231.88 303.77 240.58 303.41 240.95C303.02 241.35 303.02 241.99 303.41 242.39C303.65 242.63 307.43 246.47 313.05 249.08L308.18 254.05C307.78 254.46 307.79 255.12 308.19 255.52C308.39 255.72 308.65 255.82 308.92 255.82C309.19 255.82 309.46 255.72 309.66 255.51L336.28 228.38C336.69 227.96 336.68 227.3 336.27 226.9ZM305.67 241.67C307.53 240 312.58 235.89 318.83 234.46C316.37 235.92 314.73 238.6 314.73 241.67C314.73 243.29 315.19 244.81 315.99 246.09L314.62 247.48C310.37 245.64 307.09 242.95 305.67 241.67Z" fill="#A78BEF"/>
<path d="M243.651 278.22C242.891 278.22 242.261 277.62 242.221 276.86C242.181 276.07 242.791 275.4 243.581 275.36L251.281 274.98L255.361 233.35H251.021C250.231 233.35 249.591 232.71 249.591 231.92C249.591 231.13 250.231 230.49 251.021 230.49H256.941C257.341 230.49 257.731 230.66 258.001 230.96C258.271 231.26 258.401 231.66 258.361 232.06L254.011 276.5C253.941 277.21 253.361 277.76 252.651 277.79L243.721 278.24C243.691 278.22 243.671 278.22 243.651 278.22Z" fill="#233239"/>
<path d="M189.793 255.33L188.653 232.06L182.503 231.91C181.503 231.89 180.703 231.07 180.703 230.07C180.703 229.07 181.503 228.25 182.503 228.23L221.763 227.33L224.033 257.6L189.793 255.33ZM244.163 283.08C244.163 275.03 242.463 267.95 239.893 263.82C237.703 257.93 234.483 254.19 230.883 254.19C224.293 254.19 218.953 266.66 218.953 282.05C218.953 297.44 224.293 309.91 230.883 309.91C233.403 309.91 235.743 308.07 237.673 304.95C241.443 301.92 244.163 293.27 244.163 283.08ZM235.633 262.56C237.823 266.95 239.253 274.05 239.253 282.06C239.253 291.78 237.153 300.15 234.133 303.98C230.023 303.88 226.693 294.56 226.693 283.08C226.693 271.53 230.053 262.18 234.203 262.18C234.693 262.17 235.173 262.31 235.633 262.56ZM230.433 306.2C225.563 306.2 221.613 295.39 221.613 282.05C221.613 268.71 225.563 257.9 230.433 257.9C231.743 257.9 232.973 258.68 234.093 260.08C229.153 260.85 225.243 270.85 225.243 283.08C225.243 293.99 228.353 303.12 232.543 305.51C231.863 305.96 231.153 306.2 230.433 306.2Z" fill="#233239" stroke="#233239" stroke-miterlimit="10" stroke-linecap="round" stroke-linejoin="round"/>
<path d="M247.57 296.86C247.05 296.86 246.62 296.45 246.6 295.92C246.59 295.75 246.02 278.91 245.78 275.63C245.61 273.4 244.55 273.34 244.44 273.35L226.37 273.85C225.84 273.87 225.38 273.46 225.36 272.92C225.34 272.39 225.76 271.94 226.29 271.91L244.35 271.42C244.42 271.41 245.39 271.36 246.29 272.13C247.11 272.84 247.59 273.97 247.7 275.49C247.95 278.81 248.5 295.16 248.53 295.86C248.55 296.39 248.13 296.84 247.59 296.86C247.59 296.86 247.58 296.86 247.57 296.86Z" fill="white" stroke="#233239" stroke-miterlimit="10" stroke-linecap="round" stroke-linejoin="round"/>
<path d="M184.123 228.11C184.123 228.11 179.823 237.99 179.393 239.42C178.963 240.85 181.253 242.07 182.683 242.21C184.113 242.35 185.903 240.49 185.903 240.49L190.413 232.11L184.123 228.11Z" fill="#FFAE6A"/>
<path d="M234.57 283.61H178.82V284.57H234.57V283.61Z" fill="#233239" stroke="#233239" stroke-miterlimit="10" stroke-linecap="round" stroke-linejoin="round"/>
<path d="M192.312 293.47C191.982 293.47 191.662 293.3 191.482 293C191.212 292.54 191.362 291.95 191.822 291.67L232.862 267.23C233.322 266.96 233.912 267.11 234.192 267.57C234.462 268.03 234.312 268.62 233.852 268.9L192.812 293.34C192.652 293.43 192.482 293.47 192.312 293.47Z" fill="#A1A1A1" stroke="#233239" stroke-miterlimit="10" stroke-linecap="round" stroke-linejoin="round"/>
<path d="M241.491 295.56C241.341 295.56 241.191 295.53 241.051 295.45L196.631 272.69C196.151 272.45 195.971 271.86 196.211 271.39C196.451 270.91 197.041 270.73 197.511 270.97L241.931 293.73C242.411 293.97 242.591 294.56 242.351 295.03C242.181 295.37 241.841 295.56 241.491 295.56Z" fill="#A1A1A1" stroke="#233239" stroke-miterlimit="10" stroke-linecap="round" stroke-linejoin="round"/>
<path d="M201.853 267.26H187.062V274.37H201.853V267.26Z" fill="#233239" stroke="#233239" stroke-miterlimit="10" stroke-linecap="round" stroke-linejoin="round"/>
<path d="M225.792 273.43H196.082V266.27H237.022L225.792 273.43Z" fill="#233239" stroke="#233239" stroke-miterlimit="10" stroke-linecap="round" stroke-linejoin="round"/>
<path d="M222.781 250.01C222.781 250.01 223.951 252.45 224.181 253.62C224.411 254.79 224.411 255.26 224.411 255.26L224.491 265.78C224.491 265.78 196.131 266.33 194.961 266.17C193.791 266.01 192.231 263.83 193.011 258.69C193.791 253.55 195.211 251.66 195.211 251.66C195.211 251.66 207.591 246.33 222.781 250.01Z" fill="black"/>
<path d="M239.73 250.43C239.73 250.43 240.52 254.24 242.01 255.68C243.49 257.12 244.19 257.36 244.19 257.36L244.04 259.59C244.04 259.59 240.67 258.2 239.19 254.79C238.27 252.68 237.75 250.58 237.75 250.58L239.73 250.43Z" fill="#A1A1A1" stroke="#233239" stroke-miterlimit="10" stroke-linecap="round" stroke-linejoin="round"/>
<path d="M243.981 258.99C243.981 258.99 241.331 257.07 240.321 255.22C239.251 253.24 237.911 249.98 237.741 248.9C237.561 247.74 227.911 248.39 227.961 249.23C228.011 250.07 228.171 267.46 228.171 267.46L243.921 267.01L243.981 258.99Z" fill="#233239" stroke="#233239" stroke-miterlimit="10" stroke-linecap="round" stroke-linejoin="round"/>
<path d="M233.312 246.16C233.312 246.16 226.962 246.73 226.842 247.19C226.722 247.64 226.682 248.96 226.922 248.96C227.172 248.96 229.812 249.04 229.972 248.96C230.132 248.88 235.292 248.43 235.292 248.43C235.292 248.43 236.072 250.74 236.362 250.9C236.652 251.06 239.782 251.02 240.322 250.69C240.862 250.36 241.022 249.54 241.022 249.54L239.582 245.99L235.662 246.03L233.312 246.16Z" fill="#A1A1A1" stroke="#233239" stroke-miterlimit="10" stroke-linecap="round" stroke-linejoin="round"/>
<path d="M235.922 246.77L237.102 249.83L240.362 249.63" stroke="#233239" stroke-miterlimit="10" stroke-linecap="round" stroke-linejoin="round"/>
<path d="M244.03 268.66C243.63 268.66 243.31 268.34 243.3 267.94C243.3 267.81 243.13 255.4 243.09 254.48C243.07 253.97 242.93 253.74 242.84 253.67C242.51 253.68 241.51 253.9 240.71 254.12C240.32 254.22 239.92 254 239.82 253.61C239.72 253.22 239.95 252.82 240.33 252.72C242.68 252.09 243.1 252.23 243.26 252.28C243.62 252.4 244.47 252.85 244.54 254.42C244.58 255.37 244.74 267.41 244.75 267.93C244.76 268.33 244.44 268.66 244.03 268.66Z" fill="white" stroke="#233239" stroke-miterlimit="10" stroke-linecap="round" stroke-linejoin="round"/>
<path d="M212.491 190.7C212.491 190.7 215.921 191.71 217.121 194.53C218.711 198.23 214.771 198.42 214.531 199.91C214.301 201.39 216.091 205.61 216.171 207.72C216.251 209.83 215.181 210.29 215.811 211.15C216.441 212.01 217.351 212.56 217.351 212.56C217.351 212.56 216.071 215.16 214.611 215.68C213.151 216.2 208.921 215.53 206.181 215.45C203.441 215.37 203.451 214.86 202.511 214.9C200.631 214.98 200.261 215.61 198.091 216.28C194.651 217.34 192.641 213.21 192.641 213.21C192.641 213.21 196.081 210.13 195.571 206.21C194.901 201.07 195.571 197.34 197.381 194.42C198.951 191.9 203.131 190.76 206.491 190.29C209.851 189.82 212.491 190.7 212.491 190.7Z" fill="black"/>
<path d="M237.512 217.31L234.692 220.29L233.672 226.81L230.862 232.49L230.362 231.81L224.082 236.33C224.082 236.33 228.112 244.63 228.962 245.12C229.812 245.61 231.032 245.97 232.262 245.61C233.482 245.24 235.072 242.56 235.802 238.41C236.342 235.37 237.562 229.81 238.182 227.07L238.482 226.08C238.482 226.08 238.552 225.44 239.372 225.03C240.192 224.62 240.662 222.21 240.822 221.57C240.982 220.93 241.542 218.35 241.542 218.35L237.512 217.31Z" fill="#FFAE6A"/>
<path d="M230.863 232.5L227.863 238.17" stroke="#233239" stroke-miterlimit="10" stroke-linecap="round" stroke-linejoin="round"/>
<path d="M235.504 219.24C235.504 219.24 237.034 216.18 237.434 215.54C237.834 214.9 239.934 214.09 240.414 213.85C240.894 213.61 241.384 213.93 241.384 214.57C241.384 215.21 240.254 215.62 239.934 215.78C239.614 215.94 238.804 216.26 238.804 216.26L238.244 218.59" fill="white"/>
<path d="M235.504 219.24C235.504 219.24 237.034 216.18 237.434 215.54C237.834 214.9 239.934 214.09 240.414 213.85C240.894 213.61 241.384 213.93 241.384 214.57C241.384 215.21 240.254 215.62 239.934 215.78C239.614 215.94 238.804 216.26 238.804 216.26L238.244 218.59" stroke="#233239" stroke-miterlimit="10" stroke-linecap="round" stroke-linejoin="round"/>
<path d="M242.341 217.88C242.341 217.88 243.311 219.41 243.231 219.89C243.151 220.37 242.831 221.5 242.341 221.74C241.861 221.98 241.621 221.02 241.621 221.02L242.341 217.88Z" fill="white" stroke="#233239" stroke-miterlimit="10" stroke-linecap="round" stroke-linejoin="round"/>
<path d="M241.053 217.15C241.053 217.15 242.023 217.31 242.343 217.87C242.663 218.43 242.023 220.37 241.623 221.01C241.223 221.65 240.173 221.33 239.933 220.93C239.683 220.53 241.053 217.15 241.053 217.15Z" fill="white" stroke="#233239" stroke-miterlimit="10" stroke-linecap="round" stroke-linejoin="round"/>
<path d="M238.963 217.39C238.963 217.39 240.653 216.75 241.053 217.15C241.453 217.55 240.892 219.4 240.652 220.05C240.412 220.69 239.683 221.1 239.283 221.02C238.883 220.94 238.312 220.21 238.312 220.21L238.963 217.39Z" fill="white" stroke="#233239" stroke-miterlimit="10" stroke-linecap="round" stroke-linejoin="round"/>
<path d="M233.973 224.8C233.973 224.8 234.293 219.97 234.533 219.49C234.773 219.01 238.963 216.99 239.523 216.75C240.083 216.51 240.413 217.15 240.003 218.04C239.603 218.93 237.183 220.37 237.183 220.37C237.183 220.37 237.743 222.87 237.423 223.67C237.103 224.48 236.453 224.88 236.453 224.88" fill="white"/>
<path d="M233.973 224.8C233.973 224.8 234.293 219.97 234.533 219.49C234.773 219.01 238.963 216.99 239.523 216.75C240.083 216.51 240.413 217.15 240.003 218.04C239.603 218.93 237.183 220.37 237.183 220.37C237.183 220.37 237.743 222.87 237.423 223.67C237.103 224.48 236.453 224.88 236.453 224.88" stroke="#233239" stroke-miterlimit="10" stroke-linecap="round" stroke-linejoin="round"/>
<path d="M209.82 213C209.82 213 210.18 212.57 210.75 213.21C211.32 213.85 212.11 215.07 212.11 215.07C212.11 215.07 215.41 215.37 216.94 215.37C217.54 215.37 219.89 215.68 221.04 217.04C222.19 218.4 231.27 231.48 231.27 231.48L224.65 238.76L221.86 233.18C221.86 233.18 222.07 234.03 221.86 236.96C221.76 238.35 220.95 240.07 220.96 240.94C221.02 244.62 222.05 248.42 222.28 248.71C222.57 249.07 222.78 250 222.78 250C222.78 250 216.98 248.71 211.75 249.14C206.52 249.57 195.71 251.5 195.21 251.65C194.71 251.79 195.14 252.37 195.5 247.93C195.86 243.49 193.92 238.41 193.28 236.4C192.64 234.4 191.68 233.19 191.68 233.19L188.74 237.61L179.91 234.01C179.91 234.01 187.56 219.86 188.56 218.21C189.56 216.56 192 215.99 193.64 215.7C195.29 215.41 197.22 214.98 197.22 214.98C197.22 214.98 200.11 212.51 201.09 212.15C202.93 211.51 209.82 213 209.82 213Z" fill="#A78BEF"/>
<path d="M221.689 231.72C221.689 231.72 221.019 227.29 220.449 226.21" stroke="#233239" stroke-miterlimit="10" stroke-linecap="round" stroke-linejoin="round"/>
<path d="M191.84 232.72C191.84 232.72 193.85 229.9 195.28 228.4C196.71 226.9 196.35 225.32 196.07 224.75" stroke="#233239" stroke-miterlimit="10" stroke-linecap="round" stroke-linejoin="round"/>
<path d="M193.641 230.61C193.641 230.61 196.001 228.89 196.791 227.82" stroke="#233239" stroke-miterlimit="10" stroke-linecap="round" stroke-linejoin="round"/>
<path d="M213.301 236.7C213.931 237 214.521 237.27 215.051 237.49" stroke="#233239" stroke-miterlimit="10" stroke-linecap="round" stroke-linejoin="round"/>
<path d="M204.59 231.9C204.59 231.9 208.58 234.3 212.09 236.09" stroke="#233239" stroke-miterlimit="10" stroke-linecap="round" stroke-linejoin="round"/>
<path d="M208.551 235.37C208.551 235.37 211.401 237.06 213.901 238.28" stroke="#233239" stroke-miterlimit="10" stroke-linecap="round" stroke-linejoin="round"/>
<path d="M201.341 206.44C201.341 206.44 201.491 211.79 201.141 213.12C201.141 213.12 201.851 214.75 202.771 215.52C203.691 216.28 207.021 223.22 207.531 222.81C208.041 222.4 209.861 215.21 209.961 214.5C210.061 213.79 210.111 211.34 210.161 211.19C210.211 211.04 207.201 211.5 205.161 210.12C203.121 208.74 201.341 206.44 201.341 206.44Z" fill="#E8985D"/>
<path d="M214.22 196.1C214.22 196.1 214.87 198.88 214.46 201.14C214.12 203.01 213.85 203.29 213.82 203.99C213.77 205.37 214.66 206.95 213.01 209.16C211.39 211.33 210.41 212.91 209.5 213.13C208.59 213.35 208.4 213.22 207.17 212.83C205.94 212.44 202.67 210.2 201.9 208.43C201.13 206.67 201.2 205.85 201.2 205.85C201.2 205.85 200.19 205.7 199.75 205.22C199.31 204.74 199.51 202.66 199.51 202.66L199.48 199.1C199.48 199.1 202.02 196.95 205.24 196.46C208.46 195.97 213.84 195.53 214.22 196.1Z" fill="#FFAE6A"/>
<path d="M179.393 239.42C178.463 241.64 178.463 244.93 179.393 246.08C180.323 247.23 181.563 247.09 183.833 246.76C187.303 246.27 202.023 246.65 202.023 246.65C202.023 246.65 203.303 247.5 203.313 247.51C204.913 248.58 206.773 249.2 208.393 250.23C209.183 250.73 209.323 250.66 210.043 250.44C210.763 250.23 213.623 248.29 213.623 248.29C213.623 248.29 215.203 248.36 215.623 247.86C216.053 247.36 215.483 246.64 215.483 246.64C215.483 246.64 211.403 243.35 210.543 243.2C209.683 243.06 202.163 242.27 202.163 242.27C202.163 242.27 201.233 241.98 197.793 241.77C194.353 241.56 183.903 238.48 183.903 238.48" fill="#FFAE6A"/>
<path d="M254.502 312.2C254.022 312.2 253.612 311.85 253.542 311.36L251.192 294.33C250.652 290.57 249.162 280.48 248.672 278.99C248.542 278.58 248.362 278.5 248.302 278.47C248.002 278.33 247.542 278.46 247.412 278.51C246.922 278.71 246.352 278.47 246.152 277.98C245.952 277.49 246.172 276.93 246.662 276.72C246.792 276.66 247.982 276.19 249.102 276.7C249.562 276.91 250.192 277.37 250.522 278.38C251.152 280.3 252.922 292.65 253.112 294.05L255.462 311.09C255.532 311.62 255.162 312.11 254.632 312.18C254.582 312.2 254.542 312.2 254.502 312.2Z" fill="white" stroke="#233239" stroke-miterlimit="10" stroke-linecap="round" stroke-linejoin="round"/>
<path d="M193.183 250.43C193.183 250.43 193.973 254.24 195.463 255.68C196.943 257.12 197.643 257.36 197.643 257.36L197.493 259.59C197.493 259.59 194.123 258.2 192.643 254.79C191.723 252.68 191.203 250.58 191.203 250.58L193.183 250.43Z" fill="#A1A1A1" stroke="#233239" stroke-miterlimit="10" stroke-linecap="round" stroke-linejoin="round"/>
<path d="M197.43 258.99C197.43 258.99 194.78 257.07 193.77 255.22C192.7 253.24 191.36 249.98 191.19 248.9C191.01 247.74 186.72 248.68 186.77 249.53C186.82 250.37 186.98 267.76 186.98 267.76L197.37 267.02L197.43 258.99Z" fill="#233239" stroke="#233239" stroke-miterlimit="10" stroke-linecap="round" stroke-linejoin="round"/>
<path d="M186.763 246.16C186.763 246.16 182.883 247.03 182.763 247.48C182.643 247.93 182.603 249.25 182.843 249.25C183.093 249.25 185.733 249.33 185.893 249.25C186.053 249.17 188.743 248.43 188.743 248.43C188.743 248.43 189.523 250.74 189.813 250.9C190.103 251.06 193.233 251.02 193.773 250.69C194.313 250.36 194.473 249.54 194.473 249.54L192.903 245.52L189.073 245.62L186.763 246.16Z" fill="#A1A1A1" stroke="#233239" stroke-miterlimit="10" stroke-linecap="round" stroke-linejoin="round"/>
<path d="M189.113 246.04C189.113 246.04 190.143 249.55 190.553 249.83C190.963 250.12 193.813 249.62 193.813 249.62" stroke="#233239" stroke-miterlimit="10" stroke-linecap="round" stroke-linejoin="round"/>
<path d="M202.931 291.57H201.691V294.81H202.931V291.57Z" fill="white" stroke="#233239" stroke-miterlimit="10" stroke-linecap="round" stroke-linejoin="round"/>
<path d="M203.75 296.86C203.23 296.86 202.8 296.45 202.78 295.92C202.77 295.75 202.2 278.91 201.96 275.63C201.79 273.4 200.73 273.34 200.62 273.35L188.12 273.85C187.59 273.87 187.13 273.46 187.11 272.92C187.09 272.39 187.51 271.94 188.04 271.91L200.54 271.42C200.61 271.41 201.58 271.36 202.48 272.13C203.3 272.84 203.78 273.97 203.89 275.49C204.14 278.81 204.69 295.16 204.72 295.86C204.74 296.39 204.32 296.84 203.78 296.86C203.77 296.86 203.76 296.86 203.75 296.86Z" fill="white" stroke="#233239" stroke-miterlimit="10" stroke-linecap="round" stroke-linejoin="round"/>
<path d="M210.67 312.2C210.19 312.2 209.78 311.85 209.71 311.36L207.36 294.33C206.82 290.57 205.33 280.48 204.84 278.99C204.71 278.58 204.53 278.5 204.47 278.47C204.17 278.33 203.71 278.46 203.58 278.51C203.09 278.71 202.52 278.47 202.32 277.98C202.12 277.49 202.34 276.93 202.83 276.72C202.96 276.66 204.15 276.19 205.27 276.7C205.73 276.91 206.36 277.37 206.69 278.38C207.32 280.3 209.09 292.65 209.28 294.05L211.63 311.09C211.7 311.62 211.33 312.11 210.8 312.18C210.76 312.2 210.72 312.2 210.67 312.2Z" fill="white" stroke="#233239" stroke-miterlimit="10" stroke-linecap="round" stroke-linejoin="round"/>
<path d="M206.941 291.95C206.941 291.95 221.251 293.76 231.641 292.14C242.041 290.52 252.241 289.28 252.241 289.28L253.771 299.49C253.771 299.49 238.221 302.73 224.201 302.83C210.181 302.93 208.461 302.83 208.461 302.83L206.941 291.95Z" fill="#233239" stroke="#233239" stroke-miterlimit="10" stroke-linecap="round" stroke-linejoin="round"/>
<path d="M197.483 268.66C197.083 268.66 196.763 268.34 196.753 267.94C196.753 267.81 196.583 255.4 196.543 254.48C196.523 253.97 196.383 253.74 196.293 253.67C195.963 253.68 194.963 253.9 194.163 254.12C193.773 254.22 193.373 254 193.273 253.61C193.173 253.22 193.403 252.82 193.783 252.72C196.133 252.09 196.553 252.23 196.713 252.28C197.073 252.4 197.923 252.85 197.993 254.42C198.033 255.37 198.193 267.41 198.203 267.93C198.213 268.33 197.893 268.66 197.483 268.66Z" fill="white" stroke="#233239" stroke-miterlimit="10" stroke-linecap="round" stroke-linejoin="round"/>
<path d="M201.692 290.14H198.922V296.44H201.692V290.14Z" fill="#233239" stroke="#233239" stroke-miterlimit="10" stroke-linecap="round" stroke-linejoin="round"/>
<path d="M201.692 312.89C201.692 317.26 200.342 320.8 198.672 320.8C197.002 320.8 195.652 317.26 195.652 312.89C195.652 308.52 197.002 304.98 198.672 304.98C200.342 304.99 201.692 308.53 201.692 312.89Z" fill="#233239" stroke="#233239" stroke-miterlimit="10" stroke-linecap="round" stroke-linejoin="round"/>
<path d="M199.371 312.89C199.371 315.54 198.631 317.69 197.711 317.69C196.791 317.69 196.051 315.54 196.051 312.89C196.051 310.24 196.791 308.09 197.711 308.09C198.631 308.09 199.371 310.24 199.371 312.89Z" fill="white" stroke="#233239" stroke-miterlimit="10" stroke-linecap="round" stroke-linejoin="round"/>
<path d="M198.923 296.43C198.923 296.43 197.363 296.28 197.423 296.79C197.483 297.3 195.543 314.43 195.543 314.43L196.393 314.37L199.123 298.27L201.513 298.33L200.953 307.61L201.393 309.03C201.393 309.03 203.223 297.47 202.873 296.96C202.533 296.45 201.673 296.43 201.673 296.43H198.923Z" fill="white" stroke="#233239" stroke-miterlimit="10" stroke-linecap="round" stroke-linejoin="round"/>
<path d="M201.524 298.33L202.204 298.38L201.434 308.59" fill="white"/>
<path d="M201.524 298.33L202.204 298.38L201.434 308.59" stroke="#233239" stroke-miterlimit="10" stroke-linecap="round" stroke-linejoin="round"/>
<path d="M251.443 309.49C251.673 313.2 250.243 316.3 248.263 316.42C246.283 316.54 244.493 313.63 244.263 309.93C244.033 306.22 245.463 303.12 247.443 303C249.423 302.87 251.213 305.78 251.443 309.49Z" fill="#233239" stroke="#233239" stroke-miterlimit="10" stroke-linecap="round" stroke-linejoin="round"/>
<path d="M248.671 309.66C248.811 311.91 248.041 313.79 246.951 313.86C245.861 313.93 244.871 312.16 244.731 309.9C244.591 307.65 245.361 305.77 246.451 305.7C247.541 305.64 248.541 307.41 248.671 309.66Z" fill="white" stroke="#233239" stroke-miterlimit="10" stroke-linecap="round" stroke-linejoin="round"/>
<path d="M246.663 295.76C246.663 295.76 245.103 295.72 245.183 296.16C245.263 296.59 244.223 311.25 244.223 311.25L245.073 311.15L246.963 297.31L249.353 297.21L249.273 305.12L249.783 306.3C249.783 306.3 251.003 296.38 250.643 295.96C250.273 295.55 249.423 295.58 249.423 295.58L246.663 295.76Z" fill="white" stroke="#233239" stroke-miterlimit="10" stroke-linecap="round" stroke-linejoin="round"/>
<path d="M249.352 297.21H250.042L249.792 305.92" fill="white"/>
<path d="M249.352 297.21H250.042L249.792 305.92" stroke="#233239" stroke-miterlimit="10" stroke-linecap="round" stroke-linejoin="round"/>
<path d="M184.301 254.02C178.961 254.02 174.641 267.28 174.641 283.63C174.641 299.98 178.971 313.24 184.301 313.24C189.641 313.24 193.961 299.98 193.961 283.63C193.961 267.27 189.641 254.02 184.301 254.02ZM183.071 309.29C179.121 309.29 175.931 297.8 175.931 283.63C175.931 269.46 179.131 257.97 183.071 257.97C187.021 257.97 190.211 269.46 190.211 283.63C190.211 297.8 187.011 309.29 183.071 309.29Z" fill="#233239" stroke="#233239" stroke-miterlimit="10" stroke-linecap="round" stroke-linejoin="round"/>
<path d="M180.272 260.22C176.032 260.22 172.602 271.19 172.602 284.71C172.602 298.23 176.032 309.2 180.272 309.2C184.512 309.2 187.942 298.23 187.942 284.71C187.942 271.19 184.512 260.22 180.272 260.22ZM179.922 306.93C176.562 306.93 173.842 296.98 173.842 284.71C173.842 272.44 176.562 262.49 179.922 262.49C183.282 262.49 186.002 272.44 186.002 284.71C186.002 296.98 183.282 306.93 179.922 306.93Z" fill="#233239" stroke="#233239" stroke-miterlimit="10" stroke-linecap="round" stroke-linejoin="round"/>
<path d="M219.971 257.44C219.971 257.44 228.931 252.14 232.441 251.67C235.951 251.2 238.751 252.53 239.451 255.1C240.151 257.67 243.421 262.66 244.051 270.21C244.671 277.77 245.301 291.71 245.301 291.71L240.001 296.31C240.001 296.31 236.731 284.86 235.011 281.43C233.301 278 232.051 274.18 231.971 271.61C231.891 269.04 231.421 267.32 231.421 267.32H219.191L219.971 257.44Z" fill="#FFAE6A"/>
<path d="M244.86 283.01C244.63 278.74 244.34 273.77 244.04 270.21C243.42 262.65 240.14 257.67 239.44 255.1C238.74 252.53 235.93 251.2 232.43 251.67C228.92 252.14 219.96 257.44 219.96 257.44L219.18 267.33H231.41C231.41 267.33 231.88 269.04 231.96 271.62C232.04 274.19 233.28 278.01 235 281.44C235.44 282.32 235.99 283.74 236.55 285.35C237.78 284.03 240.37 282.2 244.86 283.01Z" fill="black"/>
<path d="M231.42 267.34L230.57 263.99" stroke="#233239" stroke-miterlimit="10" stroke-linecap="round" stroke-linejoin="round"/>
<path d="M246.848 292.35C246.848 292.35 245.988 290.87 244.358 291.1C242.718 291.33 239.918 295 239.998 296.32C240.078 297.64 240.388 298.03 240.078 298.74C239.768 299.45 240.548 301.62 240.938 303.8C241.328 305.98 241.408 307.62 242.108 308.16C242.808 308.71 244.988 309.25 247.488 308.32C249.978 307.39 250.058 304.89 251.308 303.65C252.558 302.4 254.888 301 256.298 297.73C257.698 294.46 255.828 291.89 253.648 291.57C251.468 291.26 248.508 292.66 248.508 292.66L246.848 292.35Z" fill="#A78BEF"/>
<path d="M256.728 294.95C256.448 294.27 255.438 292.64 252.388 293.52C248.568 294.61 246.158 298.97 246.308 300.3C246.468 301.62 247.008 302.72 245.608 304.2C244.408 305.47 242.688 307.54 243.018 308.6C244.058 308.91 245.688 309.01 247.478 308.33C249.968 307.4 250.048 304.9 251.298 303.66C252.548 302.41 254.878 301.01 256.288 297.74C256.708 296.72 256.828 295.78 256.728 294.95Z" fill="#707070" stroke="#233239" stroke-miterlimit="10" stroke-linecap="round" stroke-linejoin="round"/>
<path d="M246.846 292.35C246.846 292.35 243.656 292.43 242.556 294.53C241.466 296.63 242.086 296.17 241.696 297.49C241.306 298.81 240.836 298.58 240.836 298.58" fill="#A78BEF"/>
<path d="M248.487 292.66C248.487 292.66 246.067 294.37 245.367 296.24L248.487 292.66Z" fill="white"/>
<path d="M248.487 292.66C248.487 292.66 246.067 294.37 245.367 296.24" stroke="#233239" stroke-miterlimit="10" stroke-linecap="round" stroke-linejoin="round"/>
<path d="M198.93 266.25C198.93 266.25 197.22 262.9 198.38 260.02C199.85 256.4 202.59 256.28 205.94 254.96C209.29 253.64 212.41 251.61 215.29 251.61C218.17 251.61 221.45 253.32 221.37 256.75C221.29 260.18 221.29 269.22 221.21 274.83C221.13 280.44 220.43 287.92 220.43 289.79C220.43 291.66 220.66 292.52 220.66 292.52L214.82 297.19C214.82 297.19 213.73 292.36 212.87 288.07C212.01 283.78 209.21 278.41 209.21 275.37C209.21 272.33 209.44 267.11 209.44 267.11L199.93 266.88L198.93 266.25Z" fill="#FFAE6A"/>
<path d="M215.298 251.6C212.418 251.6 209.298 253.63 205.948 254.95C202.598 256.27 199.858 256.4 198.388 260.01C197.218 262.89 198.938 266.24 198.938 266.24L199.948 266.86L209.458 267.09C209.458 267.09 209.228 272.31 209.228 275.35C209.228 278.29 211.858 283.43 212.798 287.65C214.178 286.48 216.928 284.77 220.698 285.34C220.908 282.24 221.178 278.19 221.228 274.81C221.308 269.2 221.308 260.16 221.388 256.73C221.448 253.31 218.178 251.6 215.298 251.6Z" fill="black"/>
<path d="M209.449 267.1L210.149 259.31" stroke="#233239" stroke-miterlimit="10" stroke-linecap="round" stroke-linejoin="round"/>
<path d="M221.682 292.97C221.682 292.97 221.132 291.49 219.892 291.72C218.642 291.95 214.512 295.69 214.282 296.94C214.052 298.19 215.142 300.13 215.142 300.13C215.142 300.13 215.142 305.19 215.222 306.6C215.302 308 214.832 310.03 217.012 310.89C219.192 311.75 222.072 310.73 223.402 309.02C224.722 307.31 223.872 304.73 224.412 304.03C224.962 303.33 228.702 300.84 229.942 298.65C231.192 296.47 229.712 292.18 228.462 291.56C227.212 290.94 225.342 291.01 223.942 291.79C222.542 292.58 221.682 292.97 221.682 292.97Z" fill="#A78BEF"/>
<path d="M225.741 293.51C223.951 294.6 218.181 299.98 218.101 301.61C218.021 303.25 217.321 303.87 216.461 306.13C215.741 308.02 215.471 309.8 216.991 310.88C216.991 310.88 217.001 310.88 217.001 310.89C219.181 311.75 222.061 310.73 223.391 309.02C224.711 307.31 223.861 304.73 224.401 304.03C224.941 303.33 228.691 300.84 229.931 298.65C230.631 297.43 230.471 295.55 229.981 294.02L229.541 293.67C229.551 293.67 227.531 292.42 225.741 293.51Z" fill="#707070" stroke="#233239" stroke-miterlimit="10" stroke-linecap="round" stroke-linejoin="round"/>
<path d="M221.682 292.97C221.682 292.97 218.642 295.15 217.242 297.88" stroke="#233239" stroke-miterlimit="10" stroke-linecap="round" stroke-linejoin="round"/>
<path d="M209.793 308.36L214.863 306.17L216.463 306.14L216.713 308.77H229.693V310.15L221.813 311.81H210.673L209.793 308.36Z" fill="#233239" stroke="#233239" stroke-miterlimit="10" stroke-linecap="round" stroke-linejoin="round"/>
<path d="M215.121 306.12L215.731 310.24H229.201L229.691 310.15V308.77H216.711L216.461 306.14L215.121 306.12Z" fill="#707070" stroke="#233239" stroke-miterlimit="10" stroke-linecap="round" stroke-linejoin="round"/>
<path d="M252.783 306.21L256.462 304.45H257.753V309.4L252.363 311.19L238.823 311.37L238.812 310.22L240.283 308.82L252.902 308.46L252.783 306.21Z" fill="#233239" stroke="#233239" stroke-miterlimit="10" stroke-linecap="round" stroke-linejoin="round"/>
<path d="M240.281 308.82V309.77L257.751 309.4L257.671 304.55L256.241 304.58L256.301 308.46L240.281 308.82Z" fill="#707070" stroke="#233239" stroke-miterlimit="10" stroke-linecap="round" stroke-linejoin="round"/>
<path d="M212.398 246.01L213.608 248.3" stroke="#233239" stroke-miterlimit="10" stroke-linecap="round" stroke-linejoin="round"/>
<path d="M210.68 247.29L211.75 249.16" stroke="#233239" stroke-miterlimit="10" stroke-linecap="round" stroke-linejoin="round"/>
<path d="M209.25 248.37L210.53 250.01" stroke="#233239" stroke-miterlimit="10" stroke-linecap="round" stroke-linejoin="round"/>
<path d="M210.921 196.01C210.921 196.01 206.451 200 203.301 201.03C203.301 201.03 202.341 202.15 201.891 202C201.441 201.85 200.991 200.6 200.681 200.56C200.371 200.52 199.681 201.44 199.681 201.44L199.171 203.26C199.171 203.26 195.521 199.2 196.371 196.85C198.531 190.85 202.481 189.49 208.061 189.7C213.641 189.9 215.581 193.95 214.611 195.14C213.641 196.34 212.171 197.22 212.171 197.22C212.171 197.22 211.781 196.06 210.921 196.01Z" fill="black"/>
<path d="M197.801 215.64C197.801 215.64 198.291 216.1 199.471 218C200.651 219.9 202.151 222.67 202.421 222.21C202.691 221.75 203.781 217.95 203.781 217.95" stroke="#233239" stroke-miterlimit="10" stroke-linecap="round" stroke-linejoin="round"/>
<path d="M209.613 217.91L212.103 221.24C212.913 220.7 212.373 215.75 212.373 215.75" stroke="#233239" stroke-miterlimit="10" stroke-linecap="round" stroke-linejoin="round"/>
<path d="M242.643 226.93H223.063C222.393 226.93 221.883 226.31 222.013 225.65L224.813 211.36C224.913 210.86 225.353 210.49 225.863 210.49H245.443C246.113 210.49 246.623 211.11 246.493 211.77L243.693 226.06C243.593 226.57 243.153 226.93 242.643 226.93Z" fill="#E527BB"/>
<path d="M232.953 211.79L245.233 211.77C245.233 211.77 245.783 211.95 245.693 212.79" stroke="#233239" stroke-miterlimit="10" stroke-linecap="round" stroke-linejoin="round"/>
<path d="M225.344 211.43L226.274 211.8L231.934 211.79" stroke="#233239" stroke-miterlimit="10" stroke-linecap="round" stroke-linejoin="round"/>
<path d="M223.712 223.93L223.332 225.92" stroke="#233239" stroke-miterlimit="10" stroke-linecap="round" stroke-linejoin="round"/>
<path d="M225.961 212.26L223.891 223.03" stroke="#233239" stroke-miterlimit="10" stroke-linecap="round" stroke-linejoin="round"/>
<path d="M251.614 222.79C251.094 222.71 250.604 222.93 250.294 223.31L239.004 220.65C239.294 219.66 239.084 218.7 238.514 218.32L239.584 213.83L238.914 213.85L239.754 209.81C239.834 209.4 239.524 209.01 239.104 209.01H236.104C234.984 209.01 234.644 210.36 234.644 210.36H236.664L235.934 213.92L234.874 213.95L231.954 226.96L229.684 227.02C229.684 227.02 230.014 227.82 230.674 228.08C231.334 228.35 235.714 228.21 235.714 228.21C235.714 228.21 236.234 228.09 236.434 226.96L237.524 222.42C237.744 222.35 237.964 222.22 238.164 222.04L249.624 226.41L248.684 232.9C248.384 233.18 248.174 233.54 248.114 233.97L247.744 236.53C247.594 237.54 248.294 238.47 249.304 238.62C249.394 238.63 249.484 238.64 249.574 238.64C250.474 238.64 251.264 237.98 251.394 237.06L251.764 234.5C251.824 234.07 251.724 233.66 251.524 233.31L252.814 224.42C252.934 223.63 252.394 222.9 251.614 222.79Z" fill="#233239"/>
</g>
</g>
<defs>
<clipPath id="clip0_1085_7568">
<rect width="542.64" height="328.79" fill="white"/>
</clipPath>
<clipPath id="clip1_1085_7568">
<rect width="548.7" height="244.3" fill="white" transform="translate(-3 77)"/>
</clipPath>
</defs>
</svg>
