<svg width="543" height="329" viewBox="0 0 543 329" fill="none" xmlns="http://www.w3.org/2000/svg">
<g clip-path="url(#clip0_1089_9900)">
<path opacity="0.2" d="M127.492 328.58L412.142 311.93C487.412 307.53 545.652 243.73 542.512 168.39C539.872 105.08 517.192 37.64 440.912 8.81999C387.262 -11.45 317.592 5.13999 273.402 38.85C262.782 46.95 253.022 56.24 241.612 63.17C215.022 79.32 191.672 68.17 163.972 63.88C105.412 54.79 46.9621 73.46 16.7021 127.43C-29.7579 210.35 25.0421 334.57 127.492 328.58Z" fill="#999999"/>
<path d="M489 282.838H54V283.055H489V282.838Z" fill="#EBEBEB"/>
<path d="M445.412 296.836H416.598V297.054H445.412V296.836Z" fill="#EBEBEB"/>
<path d="M342.162 299.203H334.602V299.42H342.162V299.203Z" fill="#EBEBEB"/>
<path d="M415.727 288.763H399.031V288.98H415.727V288.763Z" fill="#EBEBEB"/>
<path d="M137.216 290.225H99.6406V290.442H137.216V290.225Z" fill="#EBEBEB"/>
<path d="M150.472 290.225H144.965V290.442H150.472V290.225Z" fill="#EBEBEB"/>
<path d="M249.881 293.896H168.379V294.113H249.881V293.896Z" fill="#EBEBEB"/>
<path d="M260.193 244.036H92.2051C90.8891 244.034 89.6278 243.509 88.698 242.578C87.7683 241.647 87.2461 240.384 87.2461 239.068V2.9242C87.2575 1.61574 87.7848 0.364641 88.7133 -0.55735C89.6418 -1.47934 90.8966 -1.99776 92.2051 -2H260.193C261.511 -2 262.774 -1.47662 263.706 -0.544994C264.638 0.38663 265.161 1.65018 265.161 2.9677V239.068C265.161 240.386 264.638 241.649 263.706 242.581C262.774 243.513 261.511 244.036 260.193 244.036ZM92.2051 -1.826C90.9468 -1.82369 89.7408 -1.32221 88.8518 -0.431628C87.9629 0.458958 87.4636 1.66587 87.4636 2.9242V239.068C87.4636 240.327 87.9629 241.534 88.8518 242.424C89.7408 243.315 90.9468 243.816 92.2051 243.818H260.193C261.453 243.816 262.659 243.315 263.55 242.425C264.44 241.534 264.941 240.327 264.944 239.068V2.9242C264.941 1.66508 264.44 0.458179 263.55 -0.432159C262.659 -1.3225 261.453 -1.8237 260.193 -1.826H92.2051Z" fill="#EBEBEB"/>
<path d="M448.379 244.036H280.382C279.065 244.034 277.803 243.51 276.872 242.578C275.94 241.647 275.416 240.385 275.414 239.068V2.9242C275.428 1.61495 275.957 0.363857 276.887 -0.557894C277.817 -1.47965 279.072 -1.99778 280.382 -2H448.379C449.686 -1.99547 450.938 -1.47604 451.865 -0.554297C452.792 0.36745 453.318 1.61724 453.329 2.9242V239.068C453.329 240.383 452.808 241.644 451.88 242.575C450.952 243.506 449.693 244.031 448.379 244.036ZM280.382 -1.826C279.123 -1.8237 277.916 -1.3225 277.025 -0.432159C276.135 0.458179 275.634 1.66508 275.632 2.9242V239.068C275.634 240.327 276.135 241.534 277.025 242.425C277.916 243.315 279.123 243.816 280.382 243.818H448.379C449.638 243.816 450.845 243.315 451.735 242.425C452.625 241.534 453.127 240.327 453.129 239.068V2.9242C453.127 1.66508 452.625 0.458179 451.735 -0.432159C450.845 -1.3225 449.638 -1.8237 448.379 -1.826H280.382Z" fill="#EBEBEB"/>
<path d="M433.296 282.838H460.875V234.013H433.296V282.838Z" fill="#F0F0F0"/>
<path d="M409.14 282.838H436.719V244.723H409.14V282.838Z" fill="#F0F0F0"/>
<path d="M391.507 282.838H419.086V213.316H391.507V282.838Z" fill="#F0F0F0"/>
<path d="M373.187 282.838H400.766V156.949H373.187V282.838Z" fill="#F0F0F0"/>
<path d="M304.974 282.838H378.977V166.745H304.974V282.838Z" fill="#F0F0F0"/>
<path d="M117.03 239.146H77.9844V282.838H117.03V239.146Z" fill="#F5F5F5"/>
<path d="M151.225 248.725H112.18V282.829H151.225V248.725Z" fill="#F5F5F5"/>
<path d="M176.19 220.625H137.145V282.838H176.19V220.625Z" fill="#F5F5F5"/>
<path d="M202.143 170.182H163.098V282.838H202.143V170.182Z" fill="#F5F5F5"/>
<path d="M194.26 282.838H258.152V145.213H194.26V282.838Z" fill="#F0F0F0"/>
<path d="M200.334 167.737H203.379V150.99H200.334V167.737Z" fill="#F5F5F5"/>
<path d="M200.334 193.915H203.379V177.168H200.334V193.915Z" fill="#F5F5F5"/>
<path d="M200.334 220.111H203.379V203.364H200.334V220.111Z" fill="#F5F5F5"/>
<path d="M200.334 246.298H203.379V229.55H200.334V246.298Z" fill="#F5F5F5"/>
<path d="M200.334 272.485H203.379V255.737H200.334V272.485Z" fill="#F5F5F5"/>
<path d="M211.123 167.737H214.168V150.99H211.123V167.737Z" fill="#F5F5F5"/>
<path d="M211.123 193.915H214.168V177.168H211.123V193.915Z" fill="#F5F5F5"/>
<path d="M211.123 220.111H214.168V203.364H211.123V220.111Z" fill="#F5F5F5"/>
<path d="M211.123 246.298H214.168V229.55H211.123V246.298Z" fill="#F5F5F5"/>
<path d="M211.123 272.485H214.168V255.737H211.123V272.485Z" fill="#F5F5F5"/>
<path d="M221.9 167.737H224.945V150.99H221.9V167.737Z" fill="#F5F5F5"/>
<path d="M221.9 193.915H224.945V177.168H221.9V193.915Z" fill="#F5F5F5"/>
<path d="M221.9 220.111H224.945V203.364H221.9V220.111Z" fill="#F5F5F5"/>
<path d="M221.9 246.298H224.945V229.55H221.9V246.298Z" fill="#F5F5F5"/>
<path d="M221.9 272.485H224.945V255.737H221.9V272.485Z" fill="#F5F5F5"/>
<path d="M232.689 167.737H235.734V150.99H232.689V167.737Z" fill="#F5F5F5"/>
<path d="M232.689 193.915H235.734V177.168H232.689V193.915Z" fill="#F5F5F5"/>
<path d="M232.689 220.111H235.734V203.364H232.689V220.111Z" fill="#F5F5F5"/>
<path d="M232.689 246.298H235.734V229.55H232.689V246.298Z" fill="#F5F5F5"/>
<path d="M232.689 272.485H235.734V255.737H232.689V272.485Z" fill="#F5F5F5"/>
<path d="M243.459 167.737H246.504V150.99H243.459V167.737Z" fill="#F5F5F5"/>
<path d="M243.459 193.915H246.504V177.168H243.459V193.915Z" fill="#F5F5F5"/>
<path d="M243.459 220.111H246.504V203.364H243.459V220.111Z" fill="#F5F5F5"/>
<path d="M243.459 246.298H246.504V229.55H243.459V246.298Z" fill="#F5F5F5"/>
<path d="M243.459 272.485H246.504V255.737H243.459V272.485Z" fill="#F5F5F5"/>
<path opacity="0.5" d="M258.154 145.213H244.982L239.258 282.838H258.154V145.213Z" fill="#E0E0E0"/>
<path d="M363.598 50.3479L286.09 59.1871V282.838H363.598V50.3479Z" fill="#F0F0F0"/>
<path d="M425.607 50.3479H363.594V282.838H425.607V50.3479Z" fill="#E6E6E6"/>
<path d="M425.612 69.6099H286.09V70.8018H425.612V69.6099Z" fill="#E0E0E0"/>
<path d="M425.612 82.2683H286.09V83.4602H425.612V82.2683Z" fill="#E0E0E0"/>
<path d="M425.612 94.9268H286.09V96.1187H425.612V94.9268Z" fill="#E0E0E0"/>
<path d="M425.612 107.585H286.09V108.777H425.612V107.585Z" fill="#E0E0E0"/>
<path d="M425.612 120.244H286.09V121.436H425.612V120.244Z" fill="#E0E0E0"/>
<path d="M425.612 132.902H286.09V134.094H425.612V132.902Z" fill="#E0E0E0"/>
<path d="M425.612 145.561H286.09V146.753H425.612V145.561Z" fill="#E0E0E0"/>
<path d="M425.612 158.219H286.09V159.411H425.612V158.219Z" fill="#E0E0E0"/>
<path d="M425.612 170.878H286.09V172.07H425.612V170.878Z" fill="#E0E0E0"/>
<path d="M425.612 183.536H286.09V184.728H425.612V183.536Z" fill="#E0E0E0"/>
<path d="M425.612 196.195H286.09V197.387H425.612V196.195Z" fill="#E0E0E0"/>
<path d="M425.612 208.862H286.09V210.054H425.612V208.862Z" fill="#E0E0E0"/>
<path d="M425.612 221.521H286.09V222.712H425.612V221.521Z" fill="#E0E0E0"/>
<path d="M425.612 234.179H286.09V235.371H425.612V234.179Z" fill="#E0E0E0"/>
<path d="M425.612 246.837H286.09V248.029H425.612V246.837Z" fill="#E0E0E0"/>
<path d="M425.612 259.496H286.09V260.688H425.612V259.496Z" fill="#E0E0E0"/>
<path d="M425.612 272.155H286.09V273.346H425.612V272.155Z" fill="#E0E0E0"/>
<path d="M147.976 282.838H184.742L184.742 90.9246H147.976L147.976 282.838Z" fill="#F0F0F0"/>
<path d="M147.977 90.9246H184.743L171.215 73.9771H118.562L147.977 90.9246Z" fill="#FAFAFA"/>
<path d="M147.977 90.9246L118.562 73.9771V282.838H147.977V90.9246Z" fill="#EBEBEB"/>
<path d="M118.57 100.886L184.742 100.886V99.8683L118.57 99.8683V100.886Z" fill="#E0E0E0"/>
<path d="M118.57 111.752L184.742 111.752V110.735L118.57 110.735V111.752Z" fill="#E0E0E0"/>
<path d="M118.57 122.619L184.742 122.619V121.601L118.57 121.601V122.619Z" fill="#E0E0E0"/>
<path d="M118.57 133.476H184.742V132.458H118.57V133.476Z" fill="#E0E0E0"/>
<path d="M118.57 144.343H184.742V143.325H118.57V144.343Z" fill="#E0E0E0"/>
<path d="M118.57 155.2H184.742V154.183H118.57V155.2Z" fill="#E0E0E0"/>
<path d="M118.57 166.067H184.742V165.049H118.57V166.067Z" fill="#E0E0E0"/>
<path d="M118.57 176.933H184.742V175.915H118.57V176.933Z" fill="#E0E0E0"/>
<path d="M118.57 187.79H184.742V186.772H118.57V187.79Z" fill="#E0E0E0"/>
<path d="M118.57 198.657H184.742V197.639H118.57V198.657Z" fill="#E0E0E0"/>
<path d="M118.57 209.515H184.742V208.497H118.57V209.515Z" fill="#E0E0E0"/>
<path d="M118.57 220.381H184.742V219.363H118.57V220.381Z" fill="#E0E0E0"/>
<path d="M118.57 231.238H184.742V230.22H118.57V231.238Z" fill="#E0E0E0"/>
<path d="M118.57 242.105H184.742V241.087H118.57V242.105Z" fill="#E0E0E0"/>
<path d="M118.57 252.971H184.742V251.953H118.57V252.971Z" fill="#E0E0E0"/>
<path d="M118.57 263.828H184.742V262.81H118.57V263.828Z" fill="#E0E0E0"/>
<path d="M118.57 274.695H184.742V273.677H118.57V274.695Z" fill="#E0E0E0"/>
<path d="M277.907 282.829H327.488V111.718H277.907V282.829Z" fill="#F0F0F0"/>
<path d="M309.754 148.031H317.715V120.566H309.754V148.031Z" fill="#E6E6E6"/>
<path d="M290.243 148.031H298.203V120.566H290.243V148.031Z" fill="#E6E6E6"/>
<path d="M309.754 183.597H317.715V156.131H309.754V183.597Z" fill="#E6E6E6"/>
<path d="M290.243 183.597H298.203V156.131H290.243V183.597Z" fill="#E6E6E6"/>
<path d="M309.754 219.163H317.715V191.697H309.754V219.163Z" fill="#E6E6E6"/>
<path d="M290.243 219.163H298.203V191.697H290.243V219.163Z" fill="#E6E6E6"/>
<path d="M309.754 254.728H317.715V227.262H309.754V254.728Z" fill="#E6E6E6"/>
<path d="M290.243 254.728H298.203V227.262H290.243V254.728Z" fill="#E6E6E6"/>
<path d="M277.893 111.727H327.474L315.851 99.8684H266.27L277.893 111.727Z" fill="white"/>
<path d="M277.896 111.727L266.273 99.8684L254.641 111.727V282.838H277.896V111.727Z" fill="#E6E6E6"/>
<path d="M219.527 80.5804C232.721 80.5804 243.417 69.8844 243.417 56.6902C243.417 43.4961 232.721 32.8 219.527 32.8C206.333 32.8 195.637 43.4961 195.637 56.6902C195.637 69.8844 206.333 80.5804 219.527 80.5804Z" fill="#FAFAFA"/>
<path d="M395.771 20.3416C389.829 19.7674 384.374 15.5653 376.631 14.4082C372.777 13.834 370.541 15.2782 368.262 16.6354C365.408 18.3754 361.92 19.2454 357.544 19.141C351.788 18.9879 346.092 17.9431 340.657 16.0438C335.75 14.3734 330.626 12.3724 326.737 13.0945C319.524 14.4169 319.316 19.1845 313.348 19.8631C307.379 20.5417 306.292 23.7607 311.242 23.7607H401.914C406.246 23.7607 401.722 20.9071 395.771 20.3416Z" fill="#F5F5F5"/>
<path d="M140.036 19.3499C137.53 20.8202 132.58 19.9328 124.454 18.6626C119.687 17.9231 117.32 19.4456 114.014 20.8115C112.692 21.3683 106.88 23.2736 114.467 23.2736H156.662C168.354 23.2736 157.479 21.1856 155.609 20.3765H155.513C149.919 17.8883 142.533 17.8883 140.036 19.3499Z" fill="#F5F5F5"/>
<path d="M167.102 52.671H213.212C217.248 52.671 213.038 50.0088 207.496 49.4781C201.954 48.9474 196.873 45.0324 189.626 43.9536C182.379 42.8748 182.187 48.7386 172.67 48.6777C164.979 48.6429 159.272 52.671 167.102 52.671Z" fill="#F5F5F5"/>
<path d="M173.293 108.847C173.03 108.847 172.777 108.742 172.591 108.556C172.405 108.37 172.301 108.118 172.301 107.855V28.1976C172.301 27.9346 172.405 27.6823 172.591 27.4963C172.777 27.3103 173.03 27.2058 173.293 27.2058C173.556 27.2058 173.808 27.3103 173.994 27.4963C174.18 27.6823 174.284 27.9346 174.284 28.1976V107.855C174.284 108.118 174.18 108.37 173.994 108.556C173.808 108.742 173.556 108.847 173.293 108.847Z" fill="#A78BEF"/>
<path d="M199.848 108.847C199.585 108.847 199.332 108.742 199.146 108.556C198.96 108.37 198.856 108.118 198.856 107.855V28.1977C198.843 28.0591 198.859 27.9192 198.903 27.7872C198.947 27.6551 199.019 27.5337 199.112 27.4308C199.206 27.3279 199.32 27.2456 199.448 27.1893C199.575 27.1331 199.713 27.104 199.852 27.104C199.991 27.104 200.129 27.1331 200.256 27.1893C200.384 27.2456 200.498 27.3279 200.592 27.4308C200.686 27.5337 200.757 27.6551 200.801 27.7872C200.845 27.9192 200.861 28.0591 200.848 28.1977V107.855C200.846 108.119 200.74 108.371 200.552 108.557C200.365 108.743 200.112 108.847 199.848 108.847Z" fill="#A78BEF"/>
<path d="M199.85 55.7419C199.586 55.7427 199.333 55.6395 199.145 55.4548L186.574 42.8833L174.002 55.42C173.81 55.5805 173.566 55.6634 173.316 55.6523C173.066 55.6413 172.829 55.5371 172.652 55.3603C172.476 55.1835 172.371 54.9468 172.36 54.697C172.349 54.4472 172.432 54.2023 172.593 54.0106L185.164 41.5L172.593 28.9024C172.441 28.7647 172.336 28.5839 172.291 28.3845C172.245 28.185 172.262 27.9764 172.339 27.7868C172.416 27.5972 172.549 27.4357 172.72 27.324C172.891 27.2124 173.093 27.1559 173.297 27.1624H199.85C200.047 27.1628 200.24 27.2217 200.404 27.3316C200.569 27.4415 200.696 27.5976 200.772 27.7801C200.848 27.9624 200.868 28.1633 200.83 28.3571C200.791 28.5508 200.695 28.7286 200.555 28.8676L187.983 41.5L200.555 54.0715C200.711 54.2069 200.821 54.388 200.87 54.5892C200.918 54.7904 200.902 55.0017 200.825 55.1935C200.747 55.3853 200.611 55.548 200.436 55.6589C200.262 55.7697 200.056 55.823 199.85 55.8115V55.7419ZM175.699 29.1895L186.574 40.0645L197.449 29.1895H175.699Z" fill="#A78BEF"/>
<path d="M173.295 29.1895C173.098 29.1908 172.905 29.1334 172.741 29.0245C172.577 28.9156 172.448 28.7602 172.373 28.5781C172.297 28.3961 172.277 28.1956 172.316 28.0023C172.355 27.809 172.451 27.6317 172.591 27.493L185.867 14.2168C185.959 14.1236 186.069 14.0497 186.19 13.9993C186.311 13.9488 186.441 13.9229 186.572 13.9229C186.703 13.9229 186.833 13.9488 186.953 13.9993C187.074 14.0497 187.184 14.1236 187.276 14.2168L200.553 27.493C200.646 27.5852 200.72 27.6949 200.77 27.8159C200.821 27.9368 200.846 28.0666 200.846 28.1977C200.846 28.3287 200.821 28.4585 200.77 28.5794C200.72 28.7004 200.646 28.8101 200.553 28.9023C200.364 29.0862 200.111 29.1891 199.848 29.1891C199.585 29.1891 199.332 29.0862 199.143 28.9023L186.572 16.3309L174 28.9023C173.812 29.0871 173.559 29.1903 173.295 29.1895Z" fill="#A78BEF"/>
<path d="M226.399 29.1895C226.135 29.1885 225.883 29.0856 225.694 28.9023L213.122 16.3309L200.551 28.9023C200.362 29.0862 200.11 29.1891 199.846 29.1891C199.583 29.1891 199.33 29.0862 199.142 28.9023C199.048 28.8101 198.975 28.7004 198.924 28.5794C198.874 28.4585 198.848 28.3287 198.848 28.1977C198.848 28.0666 198.874 27.9368 198.924 27.8159C198.975 27.6949 199.048 27.5852 199.142 27.493L212.418 14.2168C212.51 14.1236 212.62 14.0497 212.741 13.9993C212.862 13.9488 212.991 13.9229 213.122 13.9229C213.254 13.9229 213.383 13.9488 213.504 13.9993C213.625 14.0497 213.735 14.1236 213.827 14.2168L227.129 27.493C227.27 27.6317 227.365 27.809 227.404 28.0023C227.443 28.1956 227.423 28.3961 227.347 28.5781C227.272 28.7602 227.144 28.9156 226.979 29.0245C226.815 29.1334 226.622 29.1908 226.425 29.1895H226.399Z" fill="#A78BEF"/>
<path d="M226.401 29.1894C226.138 29.1885 225.885 29.0856 225.696 28.9023C225.603 28.8101 225.529 28.7004 225.479 28.5794C225.428 28.4585 225.402 28.3287 225.402 28.1976C225.402 28.0666 225.428 27.9368 225.479 27.8159C225.529 27.6949 225.603 27.5852 225.696 27.493L238.972 14.2168C239.065 14.1236 239.174 14.0497 239.295 13.9993C239.416 13.9488 239.546 13.9229 239.677 13.9229C239.808 13.9229 239.938 13.9488 240.059 13.9993C240.18 14.0497 240.29 14.1236 240.382 14.2168L253.658 27.493C253.751 27.5852 253.825 27.6949 253.876 27.8159C253.926 27.9368 253.952 28.0666 253.952 28.1976C253.952 28.3287 253.926 28.4585 253.876 28.5794C253.825 28.7004 253.751 28.8101 253.658 28.9023C253.47 29.0862 253.217 29.1891 252.953 29.1891C252.69 29.1891 252.437 29.0862 252.249 28.9023L239.677 16.3309L227.132 28.9023C227.036 28.997 226.921 29.0712 226.796 29.1206C226.67 29.1699 226.536 29.1933 226.401 29.1894Z" fill="#A78BEF"/>
<path d="M173.295 82.294C173.098 82.2954 172.905 82.238 172.741 82.1291C172.577 82.0202 172.448 81.8648 172.373 81.6827C172.297 81.5006 172.277 81.3002 172.316 81.1069C172.355 80.9136 172.451 80.7363 172.591 80.5975L199.143 54.0451C199.335 53.8846 199.58 53.8017 199.83 53.8127C200.079 53.8238 200.316 53.928 200.493 54.1048C200.67 54.2816 200.774 54.5183 200.785 54.7681C200.796 55.0179 200.713 55.2628 200.553 55.4545L174 82.0069C173.812 82.1917 173.559 82.2949 173.295 82.294Z" fill="#A78BEF"/>
<path d="M199.846 82.2942C199.582 82.295 199.329 82.1918 199.141 82.0071L172.589 55.4199C172.428 55.2281 172.345 54.9832 172.356 54.7334C172.367 54.4836 172.472 54.247 172.648 54.0701C172.825 53.8933 173.062 53.7891 173.312 53.7781C173.562 53.767 173.806 53.8499 173.998 54.0105L200.551 80.5629C200.691 80.7016 200.786 80.8789 200.825 81.0722C200.864 81.2655 200.844 81.466 200.769 81.6481C200.693 81.8301 200.565 81.9855 200.401 82.0944C200.236 82.2033 200.043 82.2607 199.846 82.2594V82.2942Z" fill="#A78BEF"/>
<path d="M199.849 108.846H173.297C173.1 108.848 172.907 108.791 172.743 108.682C172.579 108.574 172.45 108.419 172.374 108.237C172.301 108.055 172.282 107.854 172.32 107.661C172.359 107.468 172.453 107.29 172.592 107.15L185.163 94.5697L172.592 81.9982C172.431 81.8065 172.348 81.5616 172.36 81.3118C172.371 81.062 172.475 80.8253 172.652 80.6485C172.828 80.4717 173.065 80.3675 173.315 80.3564C173.565 80.3454 173.81 80.4283 174.001 80.5888L186.573 93.1603L199.144 80.5888C199.336 80.4283 199.581 80.3454 199.831 80.3564C200.081 80.3675 200.317 80.4717 200.494 80.6485C200.671 80.8253 200.775 81.062 200.786 81.3118C200.797 81.5616 200.714 81.8065 200.554 81.9982L187.982 94.5697L200.554 107.141C200.694 107.28 200.789 107.457 200.828 107.651C200.867 107.844 200.847 108.044 200.772 108.226C200.696 108.408 200.568 108.564 200.404 108.673C200.239 108.782 200.046 108.839 199.849 108.838V108.846ZM175.698 106.863H197.448L186.573 95.9878L175.698 106.863Z" fill="#263238"/>
<path d="M163.88 42.7876H149.699L151.483 28.45H162.088L163.88 42.7876Z" fill="#A78BEF"/>
<path d="M164.007 43.527H149.826C149.685 43.5266 149.546 43.4971 149.417 43.4402C149.288 43.3833 149.173 43.3003 149.077 43.1964C148.986 43.0894 148.917 42.9647 148.875 42.8301C148.833 42.6954 148.819 42.5536 148.834 42.4134L150.626 28.0758C150.656 27.8359 150.772 27.6151 150.953 27.4549C151.134 27.2947 151.367 27.2061 151.609 27.2058H162.214C162.457 27.2058 162.692 27.2941 162.874 27.4542C163.057 27.6142 163.175 27.8352 163.206 28.0758L164.946 42.4134C164.964 42.5528 164.951 42.6942 164.909 42.8284C164.868 42.9625 164.798 43.0863 164.706 43.1916C164.613 43.2969 164.498 43.3812 164.37 43.439C164.242 43.4969 164.104 43.5268 163.963 43.527H164.007ZM150.957 41.5347H162.876L161.336 29.1894H152.497L150.957 41.5347Z" fill="#E527BB"/>
<path d="M252.952 29.1895H147.578C147.439 29.2025 147.3 29.1864 147.168 29.1422C147.035 29.0981 146.914 29.0268 146.811 28.9331C146.708 28.8393 146.626 28.7251 146.57 28.5977C146.513 28.4703 146.484 28.3326 146.484 28.1934C146.484 28.0541 146.513 27.9164 146.57 27.789C146.626 27.6617 146.708 27.5475 146.811 27.4537C146.914 27.3599 147.035 27.2887 147.168 27.2445C147.3 27.2004 147.439 27.1843 147.578 27.1972H252.952C253.091 27.1843 253.231 27.2004 253.363 27.2445C253.495 27.2887 253.616 27.3599 253.719 27.4537C253.822 27.5475 253.905 27.6617 253.961 27.789C254.017 27.9164 254.046 28.0541 254.046 28.1934C254.046 28.3326 254.017 28.4703 253.961 28.5977C253.905 28.7251 253.822 28.8393 253.719 28.9331C253.616 29.0268 253.495 29.0981 253.363 29.1422C253.231 29.1864 253.091 29.2025 252.952 29.1895Z" fill="#E527BB"/>
<path d="M239.677 15.9131H186.607C186.358 15.8899 186.128 15.775 185.96 15.5907C185.792 15.4065 185.699 15.1662 185.699 14.917C185.699 14.6678 185.792 14.4275 185.96 14.2433C186.128 14.059 186.358 13.9441 186.607 13.9209H239.677C239.815 13.9079 239.955 13.924 240.087 13.9682C240.219 14.0123 240.34 14.0836 240.443 14.1773C240.546 14.2711 240.629 14.3853 240.685 14.5127C240.741 14.64 240.77 14.7778 240.77 14.917C240.77 15.0562 240.741 15.194 240.685 15.3213C240.629 15.4487 240.546 15.5629 240.443 15.6567C240.34 15.7504 240.219 15.8217 240.087 15.8658C239.955 15.91 239.815 15.9261 239.677 15.9131Z" fill="#A78BEF"/>
<path d="M266.9 72.7766H164.528C159.112 72.7766 154.723 77.1664 154.723 82.5815V298.437C154.723 303.852 159.112 308.242 164.528 308.242H266.9C272.316 308.242 276.705 303.852 276.705 298.437V82.5815C276.705 77.1664 272.316 72.7766 266.9 72.7766Z" fill="#407BFF"/>
<path d="M266.9 72.7766H164.528C159.112 72.7766 154.723 77.1664 154.723 82.5815V298.437C154.723 303.852 159.112 308.242 164.528 308.242H266.9C272.316 308.242 276.705 303.852 276.705 298.437V82.5815C276.705 77.1664 272.316 72.7766 266.9 72.7766Z" fill="#E527BB"/>
<path d="M279.428 72.7766H177.055C171.64 72.7766 167.25 77.1664 167.25 82.5815V298.437C167.25 303.852 171.64 308.242 177.055 308.242H279.428C284.843 308.242 289.233 303.852 289.233 298.437V82.5815C289.233 77.1664 284.843 72.7766 279.428 72.7766Z" fill="#960F78"/>
<path d="M285.141 298.437V82.5726C285.141 79.4158 282.582 76.8567 279.425 76.8567H177.043C173.886 76.8567 171.327 79.4158 171.327 82.5726V298.437C171.327 301.594 173.886 304.153 177.043 304.153H279.425C282.582 304.153 285.141 301.594 285.141 298.437Z" fill="white"/>
<path opacity="0.1" d="M283.513 207.892L278.824 111.331C278.634 107.425 275.314 104.412 271.407 104.601L187.829 108.66C183.922 108.849 180.909 112.17 181.099 116.077L185.788 212.637C185.977 216.544 189.298 219.557 193.205 219.367L276.783 215.309C280.689 215.119 283.702 211.798 283.513 207.892Z" fill="black"/>
<path d="M281.34 87.6794V83.5904C281.34 81.4858 279.634 79.7798 277.529 79.7798H177.871C175.766 79.7798 174.06 81.4858 174.06 83.5904V87.6794C174.06 89.7839 175.766 91.49 177.871 91.49H277.529C279.634 91.49 281.34 89.7839 281.34 87.6794Z" fill="#E527BB"/>
<path d="M185.945 88.7236C185.217 88.7236 184.519 88.4351 184.004 87.9214C183.488 87.4078 183.198 86.7107 183.195 85.9831C183.198 85.2547 183.488 84.5567 184.003 84.0416C184.518 83.5266 185.216 83.2362 185.945 83.2339C186.673 83.2362 187.371 83.5266 187.886 84.0416C188.401 84.5567 188.691 85.2547 188.694 85.9831C188.691 86.7107 188.401 87.4078 187.885 87.9214C187.37 88.4351 186.672 88.7236 185.945 88.7236Z" fill="white"/>
<path d="M194.112 88.7236C193.385 88.7236 192.687 88.4351 192.172 87.9214C191.656 87.4078 191.366 86.7107 191.363 85.9831C191.366 85.2547 191.656 84.5567 192.171 84.0416C192.686 83.5266 193.384 83.2362 194.112 83.2339C194.84 83.2362 195.537 83.5268 196.051 84.0422C196.565 84.5575 196.853 85.2555 196.853 85.9831C196.851 86.7092 196.561 87.4049 196.048 87.9184C195.534 88.4318 194.839 88.7213 194.112 88.7236Z" fill="white"/>
<path d="M202.284 88.7236C201.557 88.7236 200.859 88.4351 200.343 87.9214C199.828 87.4078 199.537 86.7107 199.535 85.9831C199.537 85.2547 199.828 84.5567 200.343 84.0416C200.858 83.5266 201.556 83.2362 202.284 83.2339C203.012 83.2362 203.709 83.5268 204.223 84.0422C204.736 84.5575 205.025 85.2555 205.025 85.9831C205.023 86.7092 204.733 87.4049 204.22 87.9184C203.706 88.4318 203.01 88.7213 202.284 88.7236Z" fill="white"/>
<path d="M274.237 82.5725H270.426C269.6 82.5725 268.93 83.2425 268.93 84.0689V87.8795C268.93 88.7059 269.6 89.3759 270.426 89.3759H274.237C275.063 89.3759 275.733 88.7059 275.733 87.8795V84.0689C275.733 83.2425 275.063 82.5725 274.237 82.5725Z" fill="white"/>
<path d="M208.676 257.863C218.403 253.834 223.021 242.684 218.993 232.958C214.964 223.231 203.813 218.613 194.087 222.641C184.361 226.67 179.742 237.821 183.771 247.547C187.8 257.273 198.95 261.892 208.676 257.863Z" fill="#E527BB"/>
<path d="M269.421 231.586H232.255C231.623 231.584 231.018 231.332 230.572 230.885C230.125 230.439 229.873 229.834 229.871 229.202C229.873 228.571 230.125 227.966 230.572 227.519C231.018 227.073 231.623 226.821 232.255 226.819H269.421C270.054 226.819 270.66 227.07 271.107 227.517C271.554 227.964 271.805 228.57 271.805 229.202C271.805 229.835 271.554 230.441 271.107 230.888C270.66 231.335 270.054 231.586 269.421 231.586Z" fill="#A78BEF"/>
<path d="M269.421 242.635H232.255C231.623 242.633 231.018 242.381 230.572 241.935C230.125 241.488 229.873 240.883 229.871 240.251C229.873 239.62 230.125 239.015 230.572 238.568C231.018 238.122 231.623 237.87 232.255 237.868H269.421C270.054 237.868 270.66 238.119 271.107 238.566C271.554 239.013 271.805 239.619 271.805 240.251C271.805 240.884 271.554 241.49 271.107 241.937C270.66 242.384 270.054 242.635 269.421 242.635Z" fill="#A78BEF"/>
<path d="M269.421 248.917H232.255C230.938 248.917 229.871 249.984 229.871 251.3C229.871 252.617 230.938 253.684 232.255 253.684H269.421C270.738 253.684 271.805 252.617 271.805 251.3C271.805 249.984 270.738 248.917 269.421 248.917Z" fill="#A78BEF"/>
<path d="M265.628 270.014H190.86C186.141 270.014 182.316 273.839 182.316 278.558V289.18C182.316 293.899 186.141 297.724 190.86 297.724H265.628C270.346 297.724 274.171 293.899 274.171 289.18V278.558C274.171 273.839 270.346 270.014 265.628 270.014Z" fill="#E0E0E0"/>
<path d="M293.803 200.904L286.285 104.522C285.981 100.623 282.573 97.7082 278.674 98.0124L195.251 104.519C191.351 104.823 188.437 108.231 188.741 112.13L196.259 208.512C196.563 212.411 199.971 215.326 203.87 215.022L287.293 208.515C291.192 208.211 294.107 204.803 293.803 200.904Z" fill="white"/>
<path d="M203.306 215.5C201.411 215.496 199.587 214.777 198.2 213.487C196.813 212.196 195.964 210.429 195.824 208.54L188.307 112.153C188.156 110.167 188.798 108.202 190.093 106.688C191.387 105.175 193.229 104.237 195.215 104.079L278.648 97.5713C280.634 97.42 282.599 98.0621 284.112 99.357C285.625 100.652 286.564 102.494 286.721 104.479L294.238 200.866C294.392 202.854 293.751 204.821 292.456 206.336C291.161 207.852 289.317 208.791 287.33 208.949L203.897 215.448C203.697 215.5 203.506 215.5 203.306 215.5ZM196.694 208.54C196.836 210.292 197.666 211.917 199.003 213.058C200.34 214.199 202.075 214.764 203.828 214.63L287.261 208.122C289.014 207.978 290.638 207.146 291.779 205.807C292.92 204.469 293.485 202.733 293.351 200.98L285.834 104.592C285.692 102.838 284.86 101.213 283.521 100.071C282.182 98.9293 280.445 98.3652 278.691 98.5022L195.267 105.01C193.514 105.154 191.889 105.986 190.748 107.325C189.607 108.663 189.042 110.399 189.177 112.153L196.694 208.54Z" fill="#407BFF"/>
<path d="M290.254 198.94L288.587 177.577C288.347 174.497 285.655 172.195 282.575 172.435L203.125 178.632C200.044 178.872 197.742 181.564 197.982 184.644L199.649 206.007C199.889 209.088 202.581 211.39 205.661 211.15L285.112 204.953C288.192 204.712 290.494 202.021 290.254 198.94Z" fill="#E527BB"/>
<path opacity="0.2" d="M243.051 166.805L238.644 110.305C238.4 107.186 235.675 104.856 232.557 105.099L197.584 107.827C194.466 108.07 192.135 110.795 192.378 113.914L196.785 170.414C197.028 173.532 199.754 175.863 202.872 175.62L237.844 172.892C240.963 172.649 243.294 169.924 243.051 166.805Z" fill="#407BFF"/>
<path opacity="0.2" d="M283.347 115.344L282.6 105.759C282.405 103.254 280.215 101.381 277.71 101.577L247.742 103.914C245.237 104.11 243.364 106.299 243.56 108.804L244.307 118.389C244.503 120.894 246.692 122.767 249.198 122.571L279.165 120.234C281.67 120.038 283.543 117.849 283.347 115.344Z" fill="#407BFF"/>
<path opacity="0.4" d="M285.258 139.912L284.51 130.328C284.315 127.822 282.125 125.95 279.62 126.145L249.652 128.483C247.147 128.678 245.275 130.867 245.47 133.373L246.218 142.957C246.413 145.462 248.602 147.335 251.108 147.14L281.075 144.802C283.581 144.607 285.453 142.417 285.258 139.912Z" fill="#407BFF"/>
<path opacity="0.6" d="M287.176 164.48L286.428 154.896C286.233 152.39 284.043 150.518 281.538 150.713L251.57 153.051C249.065 153.246 247.193 155.435 247.388 157.941L248.136 167.525C248.331 170.031 250.52 171.903 253.026 171.708L282.993 169.37C285.498 169.175 287.371 166.985 287.176 164.48Z" fill="#407BFF"/>
<path d="M250.839 86.4267C250.721 86.4267 250.609 86.38 250.525 86.2968C250.442 86.2136 250.395 86.1007 250.395 85.983V28.1976C250.382 28.1332 250.384 28.0668 250.4 28.003C250.416 27.9393 250.446 27.8799 250.487 27.8291C250.529 27.7782 250.581 27.7373 250.641 27.7092C250.7 27.6811 250.765 27.6665 250.83 27.6665C250.896 27.6665 250.961 27.6811 251.02 27.7092C251.08 27.7373 251.132 27.7782 251.174 27.8291C251.215 27.8799 251.245 27.9393 251.261 28.003C251.277 28.0668 251.278 28.1332 251.265 28.1976V85.983C251.266 86.0978 251.221 86.2081 251.142 86.2908C251.062 86.3735 250.954 86.4222 250.839 86.4267Z" fill="#A78BEF"/>
<path d="M256.364 95.4396H245.315C244.875 95.4392 244.446 95.2967 244.094 95.0334C243.741 94.77 243.483 94.3999 243.357 93.978L240.982 85.9044C240.895 85.6006 240.879 85.2806 240.936 84.9696C240.993 84.6587 241.122 84.3652 241.311 84.1122C241.501 83.8593 241.747 83.6538 242.029 83.5119C242.312 83.37 242.623 83.2956 242.94 83.2944H258.739C259.055 83.2956 259.367 83.37 259.649 83.5119C259.932 83.6538 260.177 83.8593 260.367 84.1122C260.557 84.3652 260.685 84.6587 260.742 84.9696C260.8 85.2806 260.784 85.6006 260.696 85.9044L258.321 93.978C258.197 94.4007 257.939 94.7716 257.586 95.0351C257.233 95.2986 256.804 95.4406 256.364 95.4396Z" fill="#A78BEF"/>
<path d="M250.843 107.95C250.58 107.95 250.328 107.846 250.142 107.66C249.956 107.474 249.852 107.222 249.852 106.959C249.852 106.696 249.956 106.443 250.142 106.257C250.328 106.071 250.58 105.967 250.843 105.967C251.766 105.967 252.651 105.6 253.304 104.947C253.957 104.295 254.323 103.41 254.323 102.487C254.323 101.564 253.957 100.679 253.304 100.026C252.651 99.3734 251.766 99.0068 250.843 99.0068C250.58 99.0068 250.328 98.9023 250.142 98.7163C249.956 98.5303 249.852 98.278 249.852 98.015V95.4398C249.875 95.1916 249.99 94.9611 250.174 94.7933C250.358 94.6255 250.599 94.5325 250.848 94.5325C251.097 94.5325 251.337 94.6255 251.521 94.7933C251.706 94.9611 251.821 95.1916 251.844 95.4398V97.1015C253.179 97.3547 254.372 98.0964 255.19 99.1819C256.007 100.267 256.391 101.619 256.266 102.972C256.141 104.325 255.516 105.583 254.514 106.501C253.511 107.418 252.202 107.929 250.843 107.933V107.95Z" fill="#A78BEF"/>
<path d="M404.363 121.166C405.468 123.715 406.373 126.134 407.26 128.674C408.148 131.215 408.957 133.72 409.644 136.33C410.396 138.995 411.001 141.699 411.454 144.43C411.71 145.89 411.89 147.362 411.993 148.841C412.125 150.581 412.082 152.33 411.862 154.061L411.81 154.418C411.786 154.588 411.748 154.757 411.697 154.922C410.915 157.302 409.976 159.627 408.887 161.882C407.869 164.066 406.712 166.128 405.564 168.172C404.415 170.217 403.162 172.174 401.866 174.114C400.57 176.054 399.256 177.934 397.777 179.804C397.283 180.421 396.589 180.844 395.815 181.002C395.041 181.159 394.237 181.04 393.541 180.666C392.846 180.291 392.304 179.685 392.01 178.952C391.716 178.219 391.688 177.406 391.931 176.655V176.576C392.627 174.48 393.401 172.34 394.141 170.234C394.88 168.129 395.646 166.041 396.35 163.953C397.055 161.865 397.76 159.785 398.386 157.758C399.013 155.731 399.561 153.695 399.943 151.842L399.778 152.712C399.76 151.875 399.676 151.04 399.526 150.215C399.352 149.215 399.134 148.119 398.856 147.014C398.578 145.909 398.273 144.778 397.934 143.638C397.594 142.499 397.246 141.35 396.864 140.158C396.098 137.853 395.306 135.521 394.462 133.198L391.913 126.299L391.87 126.177C391.206 124.524 391.227 122.675 391.927 121.037C392.627 119.399 393.949 118.106 395.602 117.443C397.255 116.779 399.104 116.8 400.743 117.5C402.381 118.2 403.674 119.522 404.337 121.175L404.363 121.166Z" fill="#407BFF"/>
<path d="M404.535 121.397C405.64 123.946 406.545 126.364 407.432 128.905C408.319 131.445 409.129 133.951 409.816 136.561C410.568 139.225 411.172 141.929 411.625 144.66C411.882 146.12 412.062 147.593 412.165 149.071C412.297 150.811 412.254 152.56 412.034 154.291L411.982 154.648C411.958 154.819 411.92 154.988 411.869 155.153C411.087 157.532 410.148 159.857 409.059 162.113C408.041 164.296 406.884 166.358 405.736 168.403C404.587 170.447 403.334 172.405 402.038 174.345C400.742 176.285 399.428 178.164 397.949 180.035C397.455 180.651 396.761 181.075 395.987 181.232C395.213 181.39 394.409 181.271 393.713 180.896C393.018 180.522 392.476 179.915 392.182 179.182C391.887 178.45 391.859 177.637 392.103 176.885V176.807C392.799 174.71 393.573 172.57 394.312 170.465C395.052 168.359 395.818 166.271 396.522 164.183C397.227 162.095 397.932 160.016 398.558 157.989C399.184 155.962 399.733 153.926 400.115 152.073L399.95 152.943C399.932 152.105 399.848 151.27 399.698 150.446C399.524 149.445 399.306 148.349 399.028 147.244C398.749 146.139 398.445 145.008 398.106 143.869C397.766 142.729 397.418 141.581 397.036 140.389C396.27 138.083 395.478 135.752 394.634 133.429L392.085 126.53L392.042 126.408C391.378 124.755 391.399 122.906 392.099 121.267C392.799 119.629 394.121 118.336 395.774 117.673C397.427 117.01 399.276 117.03 400.914 117.73C402.552 118.43 403.845 119.752 404.509 121.405L404.535 121.397Z" fill="#A78BEF"/>
<path d="M392.336 175.48L387.891 177.812L394.111 184.276C395.303 183.425 396.366 182.409 397.269 181.257C397.88 180.431 398.141 179.398 397.994 178.382C397.848 177.365 397.306 176.447 396.486 175.828C395.898 175.384 395.196 175.115 394.462 175.053C393.727 174.992 392.99 175.14 392.336 175.48Z" fill="#7F3E3B"/>
<path d="M385.472 185.216L388.038 187.112C388.533 187.476 389.14 187.653 389.752 187.613C390.365 187.573 390.944 187.319 391.388 186.895L394.076 184.285L387.855 177.821L385.002 181.57C384.584 182.117 384.398 182.807 384.486 183.49C384.574 184.172 384.928 184.793 385.472 185.216Z" fill="#7F3E3B"/>
<path d="M321.473 134.268L316.889 128.352L311.625 135.617C311.625 135.617 316.427 140.462 319.412 138.331L321.473 134.268Z" fill="#7F3E3B"/>
<path d="M309.189 127.317L307.771 130.171C307.5 130.723 307.433 131.353 307.581 131.949C307.729 132.546 308.083 133.072 308.58 133.433L311.625 135.617L316.889 128.352L312.713 126.169C312.406 126.011 312.072 125.916 311.728 125.889C311.385 125.861 311.039 125.902 310.712 126.009C310.384 126.116 310.081 126.286 309.82 126.511C309.558 126.735 309.344 127.009 309.189 127.317Z" fill="#7F3E3B"/>
<path d="M397.528 313.062H392.012L391.333 312.427L390.315 313.062C386.949 313.062 382.407 312.94 380.241 312.192C380.178 311.939 380.186 311.673 380.265 311.425C380.343 311.176 380.488 310.954 380.685 310.782C380.685 310.782 389.602 308.024 390.403 306.171H397.162" fill="#DAA7EE"/>
<path d="M390.689 235.066C389.584 206.548 391.385 184.006 388.679 173.07L363.449 168.99C363.449 168.99 368.095 217.301 373.68 237.285C379.266 257.269 389.34 306.624 389.34 306.624H397.927C397.927 306.624 398.136 258.469 390.689 235.066Z" fill="black"/>
<path opacity="0.2" d="M372.42 192.88L367.73 205.06C369.227 215.718 371.019 226.619 372.95 234.449C375.03 220.233 373.525 196.917 372.42 192.88Z" fill="black"/>
<path d="M326.068 304.884C326.068 304.884 338.761 305.85 340.153 304.318L346.809 306.363L344.947 313.062L340.841 311.809L340.379 311L339.179 311.296C335.855 310.278 327.068 307.45 325.172 306.076C325.199 305.814 325.296 305.565 325.454 305.355C325.612 305.145 325.824 304.982 326.068 304.884Z" fill="#DAA7EE"/>
<path d="M364.006 236.798C372.492 215.985 378.111 194.116 380.71 171.791L353.166 167.285C353.166 167.285 349.077 217.11 347.294 237.589C345.449 258.878 338.289 304.24 338.289 304.24L347.189 306.937C347.189 306.937 363.084 263.28 364.006 236.798Z" fill="black"/>
<path d="M390.992 94.6135C389.374 99.8335 388.382 107.394 389.948 111.666C386.903 113.771 382.118 116.224 376.315 115.293C370.512 114.363 372.165 110.595 374.009 108.803C378.472 107.316 378.942 105.219 378.203 103.209L390.992 94.6135Z" fill="#7F3E3B"/>
<path d="M395.172 113.754C393.817 112.126 392.34 110.605 390.752 109.204C389.395 108.264 378.128 106.863 375.44 106.959C372.752 107.055 369.02 110.491 369.02 110.491L395.172 113.754Z" fill="#407BFF"/>
<path opacity="0.7" d="M395.172 113.754C393.817 112.126 392.34 110.605 390.752 109.204C389.395 108.264 378.128 106.863 375.44 106.959C372.752 107.055 369.02 110.491 369.02 110.491L395.172 113.754Z" fill="white"/>
<path d="M375.897 88.3756C375.723 88.8889 375.314 89.2456 374.984 89.1064C374.653 88.9672 374.505 88.48 374.679 87.958C374.853 87.436 375.262 87.088 375.593 87.2359C375.923 87.3838 376.071 87.8623 375.897 88.3756Z" fill="#263238"/>
<path d="M375.699 89.1064C374.568 90.4721 373.253 91.6753 371.793 92.6821C372.06 93.0525 372.405 93.3602 372.803 93.584C373.201 93.8079 373.643 93.9425 374.098 93.9785L375.699 89.1064Z" fill="#630F0F"/>
<path d="M375.902 84.8173C375.923 84.8659 375.956 84.9079 375.999 84.9386C376.042 84.9693 376.093 84.9875 376.146 84.9913C376.543 85.0317 376.925 85.1655 377.261 85.3817C377.596 85.5979 377.876 85.8904 378.077 86.2354C378.094 86.2734 378.118 86.3075 378.149 86.3357C378.179 86.3639 378.215 86.3856 378.254 86.3995C378.293 86.4133 378.335 86.419 378.376 86.4162C378.417 86.4135 378.458 86.4023 378.495 86.3833C378.57 86.3458 378.628 86.2802 378.656 86.2004C378.683 86.1207 378.679 86.0333 378.643 85.957C378.398 85.5155 378.05 85.1394 377.629 84.8607C377.208 84.5821 376.726 84.409 376.224 84.3562C376.168 84.3531 376.112 84.3644 376.061 84.389C376.01 84.4137 375.967 84.4509 375.935 84.4971C375.902 84.5433 375.882 84.5969 375.877 84.653C375.871 84.709 375.88 84.7656 375.902 84.8173Z" fill="#263238"/>
<path d="M393.759 92.7693C391.28 98.9637 390.149 102.722 385.929 104.888C379.517 108.151 372.671 102.6 373.245 95.7708C373.758 89.6286 377.717 80.5284 384.729 80.1108C386.279 80.0234 387.825 80.3298 389.225 81.0014C390.624 81.6729 391.831 82.6878 392.732 83.9515C393.634 85.2151 394.201 86.6864 394.38 88.2282C394.56 89.7701 394.346 91.3322 393.759 92.7693Z" fill="#7F3E3B"/>
<path d="M379.832 92.9693C379.663 94.3727 379.79 95.7959 380.205 97.1471C380.62 98.4983 381.314 99.7473 382.243 100.813C383.171 101.879 384.313 102.739 385.594 103.336C386.875 103.933 388.267 104.254 389.681 104.279C395.91 104.279 396.006 95.4053 394.901 93.3608C398.207 92.7866 400.121 88.2452 398.102 85.3742C401.139 82.9904 394.118 79.3712 385.574 78.9014C376.152 78.3794 377.875 83.93 381.016 85.6091C377.997 86.5052 377.683 91.8818 379.832 92.9693Z" fill="#263238"/>
<path d="M378.023 81.2766C378.023 81.2766 378.624 88.5759 384.757 92.9694C390.891 97.3629 396.346 97.7718 396.346 97.7718L397.859 92.9694C397.859 92.9694 384.009 84.6261 379.328 79.9629C378.868 80.3745 378.432 80.8132 378.023 81.2766Z" fill="#407BFF"/>
<path opacity="0.6" d="M378.023 81.2766C378.023 81.2766 378.624 88.5759 384.757 92.9694C390.891 97.3629 396.346 97.7718 396.346 97.7718L397.859 92.9694C397.859 92.9694 384.009 84.6261 379.328 79.9629C378.868 80.3745 378.432 80.8132 378.023 81.2766Z" fill="white"/>
<path d="M383.087 93.0563C382.287 94.2342 381.067 95.0621 379.677 95.3705C377.937 95.7098 377.38 93.935 378.154 92.2211C378.85 90.6812 380.607 88.6454 382.234 89.0804C383.861 89.5154 384.131 91.5599 383.087 93.0563Z" fill="#7F3E3B"/>
<path d="M394.901 112.971C386.079 110.543 373.316 108.786 364.633 109.021C362.486 109.087 360.421 109.865 358.763 111.231C357.104 112.598 355.947 114.477 355.472 116.572C352.532 129.327 352.079 152.312 351.227 175.393C370.158 184.963 391.36 181.17 391.36 181.17C392.482 176.655 392.23 161.282 391.838 153.034C394.187 144.926 398.441 135.869 401.669 125.116C402.037 123.874 402.153 122.571 402.01 121.284C401.868 119.997 401.469 118.751 400.839 117.62C400.208 116.489 399.358 115.495 398.339 114.696C397.319 113.898 396.15 113.311 394.901 112.971Z" fill="#407BFF"/>
<path d="M394.901 112.971C386.079 110.543 373.316 108.786 364.633 109.021C362.486 109.087 360.421 109.865 358.763 111.231C357.104 112.598 355.947 114.477 355.472 116.572C352.532 129.327 352.079 152.312 351.227 175.393C370.158 184.963 391.36 181.17 391.36 181.17C392.482 176.655 392.23 161.282 391.838 153.034C394.187 144.926 398.441 135.869 401.669 125.116C402.037 123.874 402.153 122.571 402.01 121.284C401.868 119.997 401.469 118.751 400.839 117.62C400.208 116.489 399.358 115.495 398.339 114.696C397.319 113.898 396.15 113.311 394.901 112.971Z" fill="#A78BEF"/>
<path d="M367.077 107.742C359.804 107.324 355.28 110.917 353.427 121.897C351.573 132.876 349.572 157.767 350.347 166.745C374.768 177.02 389.914 172.835 393.177 170.443C394.456 168.485 393.986 162.404 393.342 160.003C394.977 155.69 395.794 151.111 395.752 146.5C399.371 143.02 400.972 136.347 401.094 133.755C404.278 129.509 404.704 119.896 402.938 117.155C401.172 114.415 396.039 109.36 367.077 107.742Z" fill="#E527BB"/>
<path opacity="0.2" d="M353.857 168.581C353.742 168.581 353.631 168.535 353.549 168.454C353.468 168.372 353.422 168.261 353.422 168.146C353.422 150.503 355.78 124.481 359.094 115.355C359.134 115.246 359.214 115.158 359.319 115.109C359.423 115.06 359.543 115.054 359.651 115.094C359.705 115.112 359.756 115.141 359.798 115.179C359.841 115.218 359.876 115.264 359.9 115.316C359.925 115.368 359.938 115.425 359.94 115.482C359.942 115.539 359.933 115.597 359.912 115.65C356.945 123.82 354.309 148.354 354.292 168.146C354.292 168.203 354.281 168.26 354.259 168.313C354.237 168.365 354.205 168.413 354.164 168.454C354.124 168.494 354.076 168.526 354.023 168.548C353.971 168.57 353.914 168.581 353.857 168.581Z" fill="white"/>
<path d="M366.954 119.8C365.631 122.21 364.291 124.359 362.847 126.577C361.403 128.796 359.889 130.927 358.236 133.033C356.573 135.212 354.784 137.292 352.877 139.262C351.852 140.331 350.766 141.339 349.623 142.281C348.289 143.41 346.83 144.382 345.273 145.178L344.96 145.334C344.803 145.411 344.64 145.475 344.473 145.526C341.861 146.294 339.127 146.56 336.417 146.309C335.205 146.215 334.002 146.038 332.815 145.778C331.679 145.546 330.555 145.255 329.448 144.908C327.326 144.227 325.261 143.38 323.271 142.376C322.288 141.881 321.34 141.35 320.4 140.793C319.46 140.236 318.59 139.662 317.607 138.949C316.977 138.495 316.523 137.836 316.324 137.085C316.124 136.334 316.191 135.537 316.513 134.83C316.836 134.123 317.393 133.55 318.091 133.208C318.788 132.866 319.583 132.776 320.339 132.954L320.635 133.024L323.358 133.659C324.28 133.877 325.211 134.068 326.133 134.242C327.928 134.596 329.74 134.857 331.562 135.025C333.226 135.176 334.901 135.176 336.565 135.025C337.892 134.925 339.193 134.599 340.41 134.059L339.61 134.416C340.232 133.959 340.814 133.449 341.35 132.893C342.019 132.206 342.742 131.423 343.438 130.588C344.134 129.753 344.83 128.848 345.508 127.934C346.187 127.021 346.891 126.073 347.561 125.098C348.892 123.167 350.224 121.175 351.52 119.147C352.816 117.12 354.13 115.024 355.33 113.057L355.391 112.953C355.841 112.194 356.436 111.531 357.142 111.001C357.847 110.472 358.651 110.087 359.505 109.868C360.36 109.649 361.25 109.6 362.123 109.725C362.996 109.85 363.837 110.146 364.596 110.595C365.355 111.045 366.018 111.64 366.548 112.345C367.077 113.051 367.462 113.855 367.681 114.709C367.9 115.564 367.949 116.454 367.824 117.327C367.699 118.2 367.403 119.041 366.954 119.8Z" fill="#407BFF"/>
<path d="M366.61 119.502C365.288 121.912 363.948 124.061 362.504 126.28C361.059 128.498 359.546 130.63 357.893 132.735C356.23 134.914 354.44 136.994 352.533 138.964C351.509 140.033 350.422 141.041 349.28 141.983C347.946 143.113 346.486 144.085 344.93 144.88L344.616 145.037C344.459 145.113 344.296 145.177 344.129 145.228C341.517 145.996 338.784 146.262 336.073 146.011C334.862 145.917 333.658 145.74 332.471 145.481C331.335 145.248 330.211 144.958 329.104 144.611C326.982 143.929 324.917 143.082 322.927 142.079C321.944 141.583 320.996 141.052 320.056 140.495C319.117 139.939 318.247 139.364 317.264 138.651C316.633 138.197 316.179 137.539 315.98 136.788C315.78 136.037 315.847 135.24 316.17 134.533C316.492 133.826 317.049 133.252 317.747 132.91C318.444 132.568 319.239 132.479 319.995 132.657L320.291 132.726L323.014 133.361C323.936 133.579 324.867 133.77 325.79 133.944C327.585 134.298 329.397 134.56 331.218 134.727C332.882 134.879 334.557 134.879 336.221 134.727C337.548 134.628 338.849 134.301 340.066 133.762L339.266 134.118C339.888 133.661 340.47 133.152 341.006 132.596C341.676 131.909 342.398 131.126 343.094 130.29C343.79 129.455 344.486 128.55 345.164 127.637C345.843 126.723 346.548 125.775 347.218 124.801C348.549 122.869 349.88 120.877 351.176 118.85C352.472 116.823 353.786 114.726 354.987 112.76L355.048 112.655C355.497 111.896 356.092 111.233 356.798 110.704C357.504 110.174 358.307 109.789 359.162 109.57C360.016 109.351 360.906 109.303 361.779 109.428C362.653 109.553 363.493 109.848 364.252 110.298C365.011 110.747 365.675 111.342 366.204 112.048C366.733 112.754 367.118 113.557 367.337 114.412C367.556 115.266 367.605 116.156 367.48 117.029C367.355 117.903 367.06 118.743 366.61 119.502Z" fill="#A78BEF"/>
<path d="M397.98 96.023C397.867 96.1334 397.727 96.2111 397.574 96.2478C397.421 96.2846 397.26 96.2791 397.11 96.2318C392.219 94.3626 387.717 91.6014 383.834 88.0886C377.248 82.0508 376.682 75.1343 379.606 78.4403C381.224 76.7003 388.097 74.5775 394.465 77.3354C401.199 80.2673 404.444 89.3501 397.98 96.023Z" fill="#A78BEF"/>
<path d="M392.352 76.6045C394.008 78.1767 395.194 80.1786 395.778 82.3864C396.362 84.5943 396.32 86.921 395.658 89.1064C397.074 88.7989 398.436 88.2767 399.694 87.5578C399.694 87.5578 400.712 82.6771 398.824 79.5364C396.936 76.3957 392.76 75.604 392.352 76.6045Z" fill="#9B79F4"/>
<path opacity="0.2" d="M395.658 89.1066C396.32 86.9212 396.362 84.5945 395.778 82.3866C395.194 80.1788 394.008 78.1769 392.352 76.6048C392.407 76.507 392.485 76.4237 392.579 76.3618C392.672 76.2998 392.779 76.2608 392.891 76.248C394.213 77.1006 397.859 82.2771 395.658 89.1066Z" fill="black"/>
<path d="M414.22 212.136C411.747 218.887 413.435 228.268 414.445 235.226C416.27 247.806 421.323 259.542 423.197 272.004C423.315 272.789 424.679 272.691 424.62 271.877C423.217 252.231 409.873 232.782 414.661 212.273C414.72 211.999 414.318 211.861 414.22 212.136Z" fill="black"/>
<path d="M413.837 214.825C416.526 213.078 417.418 207.73 416.27 207.298C415.122 206.866 412.738 210.291 413.837 214.825Z" fill="#39B039"/>
<path d="M409.234 215.62C408.478 216.474 409.097 221.645 413.257 224.029C413.149 216.994 409.862 214.903 409.234 215.62Z" fill="#39B039"/>
<path d="M418.116 223.107C416.772 223.264 413.034 227.964 414.525 232.949C420.246 227.071 419.245 222.969 418.116 223.107Z" fill="#39B039"/>
<path d="M409.168 234.931C408.501 236.119 410.866 241.79 416.743 243.292C414.427 235.353 409.737 233.93 409.168 234.931Z" fill="#39B039"/>
<path d="M421.391 238.768C419.89 238.984 416.299 244.4 418.673 249.994C424.354 243.193 422.647 238.591 421.391 238.768Z" fill="#39B039"/>
<path d="M413.115 253.291C412.526 254.596 415.558 260.347 421.867 261.436C418.678 253.281 413.606 252.192 413.115 253.291Z" fill="#39B039"/>
<path d="M412.777 223.872C412.915 223.96 413.042 224.029 413.18 223.99L412.777 223.872Z" fill="#968FCE"/>
<path d="M412.779 223.873C412.66 223.783 412.709 223.833 412.779 223.873V223.873Z" fill="#968FCE"/>
<path d="M451.014 217.494C447.03 236.629 434.392 257.589 439.014 277.48C439.2 278.295 440.613 278.069 440.476 277.225C437.032 255.97 450.19 238.17 451.593 217.543C451.622 217.219 451.083 217.17 451.014 217.494Z" fill="black"/>
<path d="M451.123 219.957C453.291 217.317 452.379 211.528 451.044 211.439C449.71 211.351 448.434 215.629 451.123 219.957Z" fill="#39B039"/>
<path d="M453.655 231.458C454.616 232.606 452.526 238.327 445.688 240.103C447.414 232.125 452.85 230.496 453.655 231.458Z" fill="#39B039"/>
<path d="M447.199 250.357C448.455 251.476 447.11 258.09 439.859 261.063C440.419 252.025 446.149 249.425 447.199 250.357Z" fill="#39B039"/>
<path d="M446.62 221.36C447.974 221.527 450.781 226.345 448.063 231.438C443.481 225.413 445.482 221.223 446.62 221.36Z" fill="#39B039"/>
<path d="M440.998 236.678C442.715 236.825 446.021 242.723 442.313 249.219C436.798 241.889 439.555 236.56 440.998 236.678Z" fill="#39B039"/>
<path d="M433.541 177.762C430.372 192.432 427.772 207.014 428.459 222.155C429.214 238.876 432.903 255.175 432.835 272.014C432.825 273.447 435.052 273.457 435.072 272.014C435.19 255.794 431.304 240.427 430.019 224.363C428.733 208.348 433.286 193.521 434.287 177.87C434.326 177.438 433.639 177.34 433.541 177.762Z" fill="black"/>
<path d="M433.719 179.852C436.309 177.124 435.298 171.06 433.728 170.952C432.159 170.844 430.598 175.289 433.719 179.852Z" fill="#39B039"/>
<path d="M439.023 183.051C440.024 184.101 438.454 189.842 432.047 192.089C433.107 184.17 438.189 182.178 439.023 183.051Z" fill="#39B039"/>
<path d="M425.989 191.284C427.804 191.303 432.318 196.573 429.6 202.873C422.535 196.416 424.468 191.274 425.989 191.284Z" fill="#39B039"/>
<path d="M421.983 214.05C424.024 213.697 430.568 218.701 429.283 226.335C419.549 220.526 420.266 214.344 421.983 214.05Z" fill="#39B039"/>
<path d="M423.853 242.605C426.071 242.311 433.518 247.816 432.537 255.774C421.547 249.307 421.999 242.851 423.853 242.605Z" fill="#39B039"/>
<path d="M436.051 202.618C434.147 202.421 428.241 207.328 429.654 214.158C438.494 208.339 437.641 202.785 436.051 202.618Z" fill="#39B039"/>
<path d="M435.08 224.333C432.961 224.844 427.977 232.37 431.46 239.161C439.378 229.534 436.866 223.902 435.08 224.333Z" fill="#39B039"/>
<path d="M441.636 306.869H420.001C416.233 295.771 413.839 283.181 412.828 269.08H448.799C447.955 282.318 445.728 294.986 441.636 306.869Z" fill="#E31E23"/>
<path d="M438.825 269.07C437.54 308.685 422.273 303.592 418.309 301.413C418.838 303.268 419.398 305.093 419.996 306.86H441.632C445.723 294.976 447.95 282.308 448.804 269.07H438.825Z" fill="#B9275C"/>
<path d="M421.396 281.013C422.132 288.078 421.298 290.688 419.954 290.825C418.61 290.963 417.363 289.579 416.52 281.513C415.676 273.447 416.618 271.838 417.962 271.7C419.306 271.563 420.66 273.947 421.396 281.013Z" fill="#FFC4E7"/>
<path d="M422.63 295.859C422.944 298.057 422.296 298.94 421.354 299.078C420.412 299.215 419.588 298.852 419.235 296.34C418.882 293.828 419.568 293.259 420.51 293.121C421.443 292.984 422.316 293.661 422.63 295.859Z" fill="#FFC4E7"/>
</g>
<defs>
<clipPath id="clip0_1089_9900">
<rect width="542.64" height="328.79" fill="white"/>
</clipPath>
</defs>
</svg>
