<svg width="543" height="329" viewBox="0 0 543 329" fill="none" xmlns="http://www.w3.org/2000/svg">
<g clip-path="url(#clip0_1086_8409)">
<path opacity="0.2" d="M78.788 327.839C41.4882 290.535 -9.49424 252.012 10.4949 193.818C23.6478 155.541 55.8804 144.88 82.6859 121.276C95.9087 109.631 87.5932 92.6757 87.3433 75.8481C86.7836 32.7513 139.135 -0.687543 187.269 0.010739C239.401 0.768031 261.969 48.9102 305.705 51.4968C322.876 51.7426 338.257 42.4781 353.449 35.1314C398.465 13.3371 469.906 27.2339 473.514 79.9296C474.444 108.392 439.183 154.174 474.514 169.143C502.668 181.072 531.113 185.469 536.19 228.133C542.837 283.976 507.716 314.621 461.971 329L78.788 327.839Z" fill="#999999"/>
<g clip-path="url(#clip1_1086_8409)">
<path d="M498.987 316.216H461.297V316.5H498.987V316.216Z" fill="#ECECEC"/>
<path d="M363.928 319.294H354.039V319.578H363.928V319.294Z" fill="#ECECEC"/>
<path d="M460.159 305.665H438.32V305.948H460.159V305.665Z" fill="#ECECEC"/>
<path d="M95.8494 307.573H46.6992V307.857H95.8494V307.573Z" fill="#ECECEC"/>
<path d="M113.192 307.573H105.988V307.857H113.192V307.573Z" fill="#ECECEC"/>
<path d="M243.221 312.377H136.613V312.661H243.221V312.377Z" fill="#ECECEC"/>
<path d="M556 297.93H-13V298.214H556V297.93Z" fill="#ECECEC"/>
<path d="M92.3048 297.746H203.59L203.59 17.9203H92.3048L92.3048 297.746Z" fill="#E1E1E1"/>
<path d="M71.8047 15.47V300.202H92.3115V15.47H71.8047Z" fill="#E1E1E1"/>
<path d="M202.605 15.47V300.202H223.112V15.47H202.605Z" fill="#E7E7E7"/>
<path d="M89.8516 15.47V300.202H226.594V15.47H89.8516ZM221.677 20.3764V71.4282H94.7677V20.3764H221.677ZM94.7677 183.356V132.304H221.677V183.356H94.7677ZM221.677 188.274V239.326H94.7677V188.274H221.677ZM94.7677 127.398V76.346H221.677V127.398H94.7677ZM94.7677 295.295V244.243H221.677V295.295H94.7677Z" fill="#F0F0F0"/>
<path d="M139.105 144.218H134.371V183.833H139.105V144.218Z" fill="#E7E7E7"/>
<path d="M134.371 144.218H129.637V183.833H134.371V144.218Z" fill="#E1E1E1"/>
<path d="M148.562 147.001H139.105V183.833H148.562V147.001Z" fill="#E7E7E7"/>
<path d="M159.408 144.218H153.297V183.833H159.408V144.218Z" fill="#F0F0F0"/>
<path d="M153.297 144.218H148.562V183.833H153.297V144.218Z" fill="#ECECEC"/>
<path d="M195.279 144.218H189.168V183.833H195.279V144.218Z" fill="#E7E7E7"/>
<path d="M189.179 144.218H184.445V183.833H189.179V144.218Z" fill="#ECECEC"/>
<path d="M174.974 144.218H168.863V183.833H174.974V144.218Z" fill="#E7E7E7"/>
<path d="M168.863 144.218H164.129V183.833H168.863V144.218Z" fill="#E1E1E1"/>
<path d="M204.734 145.15H195.277V183.822H204.734V145.15Z" fill="#ECECEC"/>
<path d="M209.48 145.15H204.746V183.822H209.48V145.15Z" fill="#E1E1E1"/>
<path d="M181.281 145.15H174.977V183.822H181.281V145.15Z" fill="#E1E1E1"/>
<path d="M184.434 145.15H181.281V183.822H184.434V145.15Z" fill="#F0F0F0"/>
<path d="M168.863 147.001H159.406V183.833H168.863V147.001Z" fill="#F5F5F5"/>
<path d="M115.447 144.218H109.336V183.833H115.447V144.218Z" fill="#ECECEC"/>
<path d="M109.347 144.218H104.613V183.833H109.347V144.218Z" fill="#E7E7E7"/>
<path d="M124.914 145.15H115.457V183.822H124.914V145.15Z" fill="#E1E1E1"/>
<path d="M129.648 145.15H124.914V183.822H129.648V145.15Z" fill="#ECECEC"/>
<path d="M101.449 145.15H95.1445V183.822H101.449V145.15Z" fill="#ECECEC"/>
<path d="M104.613 145.15H101.461V183.822H104.613V145.15Z" fill="#FAFAFA"/>
<path d="M165.516 240.28H170.25V200.665H165.516V240.28Z" fill="#E7E7E7"/>
<path d="M170.242 240.28H174.977V200.665H170.242V240.28Z" fill="#E1E1E1"/>
<path d="M156.059 237.496H165.516V200.664H156.059V237.496Z" fill="#E7E7E7"/>
<path d="M145.217 240.28H151.328V200.665H145.217V240.28Z" fill="#F0F0F0"/>
<path d="M151.328 240.28H156.062V200.665H151.328V240.28Z" fill="#ECECEC"/>
<path d="M109.346 240.28H115.457V200.665H109.346V240.28Z" fill="#E7E7E7"/>
<path d="M115.446 240.28H120.18V200.665H115.446V240.28Z" fill="#ECECEC"/>
<path d="M129.651 240.28H135.762V200.665H129.651V240.28Z" fill="#E7E7E7"/>
<path d="M135.75 240.28H140.484V200.665H135.75V240.28Z" fill="#E1E1E1"/>
<path d="M99.887 239.342H109.344V200.67H99.887V239.342Z" fill="#ECECEC"/>
<path d="M95.1526 239.342H99.8867V200.67H95.1526V239.342Z" fill="#E1E1E1"/>
<path d="M123.344 239.342H129.648V200.67H123.344V239.342Z" fill="#E1E1E1"/>
<path d="M120.188 239.342H123.34V200.67H120.188V239.342Z" fill="#F0F0F0"/>
<path d="M135.754 237.496H145.211V200.664H135.754V237.496Z" fill="#F5F5F5"/>
<path d="M189.174 240.28H195.285V200.665H189.174V240.28Z" fill="#ECECEC"/>
<path d="M195.282 240.28H200.016V200.665H195.282V240.28Z" fill="#E7E7E7"/>
<path d="M179.711 239.342H189.168V200.67H179.711V239.342Z" fill="#E1E1E1"/>
<path d="M174.981 239.342H179.715V200.67H174.981V239.342Z" fill="#ECECEC"/>
<path d="M203.168 239.342H209.473V200.67H203.168V239.342Z" fill="#ECECEC"/>
<path d="M200.016 239.342H203.168V200.67H200.016V239.342Z" fill="#FAFAFA"/>
<path d="M139.105 257.123H134.371V296.738H139.105V257.123Z" fill="#E7E7E7"/>
<path d="M134.371 257.123H129.637V296.738H134.371V257.123Z" fill="#E1E1E1"/>
<path d="M148.562 259.905H139.105V296.738H148.562V259.905Z" fill="#E7E7E7"/>
<path d="M159.408 257.123H153.297V296.738H159.408V257.123Z" fill="#F0F0F0"/>
<path d="M153.297 257.123H148.562V296.738H153.297V257.123Z" fill="#ECECEC"/>
<path d="M195.279 257.123H189.168V296.738H195.279V257.123Z" fill="#E7E7E7"/>
<path d="M189.179 257.123H184.445V296.738H189.179V257.123Z" fill="#ECECEC"/>
<path d="M174.974 257.123H168.863V296.738H174.974V257.123Z" fill="#E7E7E7"/>
<path d="M168.863 257.123H164.129V296.738H168.863V257.123Z" fill="#E1E1E1"/>
<path d="M204.734 258.065H195.277V296.738H204.734V258.065Z" fill="#ECECEC"/>
<path d="M209.48 258.065H204.746V296.738H209.48V258.065Z" fill="#E1E1E1"/>
<path d="M181.281 258.065H174.977V296.738H181.281V258.065Z" fill="#E1E1E1"/>
<path d="M184.434 258.065H181.281V296.738H184.434V258.065Z" fill="#F0F0F0"/>
<path d="M168.863 259.905H159.406V296.738H168.863V259.905Z" fill="#F5F5F5"/>
<path d="M115.447 257.123H109.336V296.738H115.447V257.123Z" fill="#ECECEC"/>
<path d="M109.347 257.123H104.613V296.738H109.347V257.123Z" fill="#E7E7E7"/>
<path d="M124.914 258.065H115.457V296.738H124.914V258.065Z" fill="#E1E1E1"/>
<path d="M129.648 258.065H124.914V296.738H129.648V258.065Z" fill="#ECECEC"/>
<path d="M101.449 258.065H95.1445V296.738H101.449V258.065Z" fill="#ECECEC"/>
<path d="M104.613 258.065H101.461V296.738H104.613V258.065Z" fill="#FAFAFA"/>
<path d="M165.793 72.0527L167.932 47.5774H136.831L134.68 72.0527H165.793Z" fill="#F0F0F0"/>
<path d="M165.793 72.0527L167.932 47.5774H169.605L167.466 72.0527H165.793Z" fill="#E1E1E1"/>
<path d="M162.833 69.5653L164.54 50.0759H139.777L138.07 69.5653H162.833Z" fill="#FAFAFA"/>
<path d="M160.935 67.9527L162.369 51.6775H141.68L140.258 67.9527H160.935Z" fill="#ECECEC"/>
<path d="M200.855 72.0528H169.605L173.076 32.5061H204.326L200.855 72.0528Z" fill="#ECECEC"/>
<path d="M200.855 72.0528H202.346L205.817 32.5061H204.326L200.855 72.0528Z" fill="#E1E1E1"/>
<path d="M198.021 68.021H173.145L175.91 36.5381H200.787L198.021 68.021Z" fill="#E1E1E1"/>
<path d="M196.202 65.4313H175.422L177.732 39.1274H198.512L196.202 65.4313Z" fill="#FAFAFA"/>
<path d="M180.519 52.6883L183.979 56.1409C185.39 57.5493 187.677 57.5493 189.088 56.1409L192.548 52.6883C193.959 51.2799 193.959 48.9971 192.548 47.5888L189.088 44.1361C187.677 42.7278 185.39 42.7278 183.979 44.1361L180.519 47.5888C179.108 48.9971 179.108 51.2799 180.519 52.6883Z" fill="#ECECEC"/>
<path d="M179.484 60.2524L181.908 62.6715C183.319 64.0798 185.607 64.0798 187.018 62.6715L189.442 60.2524C190.853 58.8441 190.853 56.5612 189.442 55.1529L187.018 52.7337C185.607 51.3254 183.319 51.3254 181.908 52.7337L179.484 55.1529C178.073 56.5612 178.073 58.8441 179.484 60.2524Z" fill="#E7E7E7"/>
<path d="M129.549 55.5086C135.22 49.8491 135.22 40.6733 129.549 35.0138C123.879 29.3544 114.685 29.3544 109.014 35.0138C103.343 40.6733 103.343 49.8491 109.014 55.5086C114.685 61.1681 123.879 61.1681 129.549 55.5086Z" fill="#F0F0F0"/>
<path d="M118.27 70.8717H120.295V61.2633H119.282C110.44 61.2633 103.237 54.0854 103.237 45.2493C103.237 36.4245 110.429 29.2353 119.282 29.2353V27.2136C109.313 27.2136 101.211 35.3001 101.211 45.2493C101.211 54.8577 108.767 62.7284 118.27 63.2509V70.8717Z" fill="#ECECEC"/>
<path d="M110.758 71.0989H128.021C128.021 68.9637 126.292 67.2374 124.152 67.2374H114.627C112.488 67.226 110.758 68.9637 110.758 71.0989Z" fill="#ECECEC"/>
<path d="M147.49 126.081V116.041C148.73 116.041 148.73 114.121 147.49 114.121C143.654 114.121 139.819 114.098 135.984 114.076V128.011C139.819 128.011 143.654 128.011 147.49 128.011C148.73 128 148.73 126.081 147.49 126.081Z" fill="#ECECEC"/>
<path d="M147.492 116.041H138.547V126.069H147.492V116.041Z" fill="#F5F5F5"/>
<path d="M140.424 127.035H109.436C107.308 127.035 105.578 124.354 105.578 121.049C105.578 117.744 107.308 115.064 109.436 115.064H140.424V127.035Z" fill="#FAFAFA"/>
<path d="M140.424 114.11C130.273 114.11 120.111 113.928 109.971 114.11C103.018 114.235 102.654 127.534 109.459 128C114.216 128.329 119.098 128 123.855 128C129.374 128 134.894 128 140.413 128C141.653 128 141.653 126.081 140.413 126.081C130.797 126.081 121.181 126.081 111.565 126.081C109.334 126.081 107.752 126.058 106.887 123.434C106.148 121.163 106.375 116.54 109.425 116.041C109.755 115.984 110.142 116.041 110.472 116.041C115.718 116.041 120.953 116.041 126.199 116.041C130.933 116.041 135.679 116.041 140.413 116.041C141.665 116.041 141.665 114.11 140.424 114.11Z" fill="#ECECEC"/>
<path d="M147.49 112.281V102.241C148.73 102.241 148.73 100.322 147.49 100.322C143.654 100.322 139.819 100.299 135.984 100.276V114.212C139.819 114.212 143.654 114.212 147.49 114.212C148.73 114.201 148.73 112.281 147.49 112.281Z" fill="#ECECEC"/>
<path d="M147.492 102.241H138.547V112.27H147.492V102.241Z" fill="#F5F5F5"/>
<path d="M140.424 113.247H109.436C107.308 113.247 105.578 110.566 105.578 107.261C105.578 103.956 107.308 101.276 109.436 101.276H140.424V113.247Z" fill="#FAFAFA"/>
<path d="M140.424 100.322C130.273 100.322 120.111 100.14 109.971 100.322C103.018 100.447 102.654 113.746 109.459 114.212C114.216 114.541 119.098 114.212 123.855 114.212C129.374 114.212 134.894 114.212 140.413 114.212C141.653 114.212 141.653 112.293 140.413 112.293C130.797 112.293 121.181 112.293 111.565 112.293C109.334 112.293 107.752 112.27 106.887 109.646C106.148 107.375 106.375 102.752 109.425 102.253C109.755 102.196 110.142 102.253 110.472 102.253C115.718 102.253 120.953 102.253 126.199 102.253C130.933 102.253 135.679 102.253 140.413 102.253C141.665 102.241 141.665 100.322 140.424 100.322Z" fill="#ECECEC"/>
<path d="M202.267 126.081V116.041C203.507 116.041 203.507 114.121 202.267 114.121C198.432 114.121 194.597 114.098 190.762 114.076V128.011C194.597 128.011 198.432 128.011 202.267 128.011C203.507 128 203.519 126.081 202.267 126.081Z" fill="#ECECEC"/>
<path d="M202.277 116.041H193.332V126.069H202.277V116.041Z" fill="#F5F5F5"/>
<path d="M195.209 127.035H164.221C162.093 127.035 160.363 124.354 160.363 121.049C160.363 117.744 162.093 115.064 164.221 115.064H195.209V127.035Z" fill="#FAFAFA"/>
<path d="M195.21 114.11C185.059 114.11 174.896 113.928 164.757 114.11C157.803 114.235 157.439 127.534 164.245 128C169.001 128.329 173.883 128 178.64 128C184.16 128 189.679 128 195.198 128C196.439 128 196.439 126.081 195.198 126.081C185.582 126.081 175.966 126.081 166.35 126.081C164.119 126.081 162.538 126.058 161.673 123.434C160.933 121.163 161.161 116.54 164.21 116.041C164.54 115.984 164.927 116.041 165.257 116.041C170.504 116.041 175.738 116.041 180.985 116.041C185.719 116.041 190.464 116.041 195.198 116.041C196.45 116.041 196.45 114.11 195.21 114.11Z" fill="#ECECEC"/>
<path d="M202.267 112.281V102.241C203.507 102.241 203.507 100.322 202.267 100.322C198.432 100.322 194.597 100.299 190.762 100.276V114.212C194.597 114.212 198.432 114.212 202.267 114.212C203.507 114.201 203.519 112.281 202.267 112.281Z" fill="#ECECEC"/>
<path d="M202.277 102.241H193.332V112.27H202.277V102.241Z" fill="#F5F5F5"/>
<path d="M195.209 113.247H164.221C162.093 113.247 160.363 110.566 160.363 107.261C160.363 103.956 162.093 101.276 164.221 101.276H195.209V113.247Z" fill="#FAFAFA"/>
<path d="M195.21 100.322C185.059 100.322 174.896 100.14 164.757 100.322C157.803 100.447 157.439 113.746 164.245 114.212C169.001 114.541 173.883 114.212 178.64 114.212C184.16 114.212 189.679 114.212 195.198 114.212C196.439 114.212 196.439 112.293 195.198 112.293C185.582 112.293 175.966 112.293 166.35 112.293C164.119 112.293 162.538 112.27 161.673 109.646C160.933 107.375 161.161 102.752 164.21 102.253C164.54 102.196 164.927 102.253 165.257 102.253C170.504 102.253 175.738 102.253 180.985 102.253C185.719 102.253 190.464 102.253 195.198 102.253C196.45 102.241 196.45 100.322 195.21 100.322Z" fill="#ECECEC"/>
<path d="M419.566 294.387C411.281 285.289 402.997 276.192 394.723 267.095C394.723 261.654 394.723 147.319 394.723 141.879C394.723 137.881 389.067 137.869 389.067 141.879C389.067 147.319 389.067 261.654 389.067 267.095C380.783 276.192 372.51 285.289 364.225 294.387C361.642 297.215 365.647 301.61 368.231 298.782C375.184 291.15 382.126 283.518 389.079 275.885C389.079 282.711 389.079 289.526 389.079 296.352C389.079 300.349 394.735 300.361 394.735 296.352C394.735 289.526 394.735 282.711 394.735 275.885C401.688 283.518 408.63 291.15 415.583 298.782C418.143 301.61 422.149 297.215 419.566 294.387Z" fill="#E7E7E7"/>
<path d="M491.839 40.5359H291.949V153.372H491.839V40.5359Z" fill="#A78BEF"/>
<path d="M492.864 156.132H290.914C290.266 156.132 289.742 155.61 289.742 154.962V152.589C289.742 151.941 290.266 151.419 290.914 151.419H492.875C493.524 151.419 494.047 151.941 494.047 152.589V154.962C494.036 155.61 493.512 156.132 492.864 156.132Z" fill="#ECECEC"/>
<path d="M487.241 40.5359H296.535V149.057H487.241V40.5359Z" fill="#FAFAFA"/>
<path d="M496.368 45.7148H287.408C285.769 45.7148 284.449 44.386 284.449 42.7619V38.3211C284.449 36.6856 285.781 35.3682 287.408 35.3682H496.368C498.006 35.3682 499.326 36.697 499.326 38.3211V42.7619C499.326 44.3974 497.995 45.7148 496.368 45.7148Z" fill="#A78BEF"/>
<path d="M374.127 321.451L365.91 321.429L367.936 302.45L376.164 302.473L374.127 321.451Z" fill="#A53935"/>
<path d="M365.795 319.646L374.512 319.476C374.842 319.464 375.103 319.691 375.149 320.009L376.15 327.096C376.253 327.835 375.638 328.539 374.887 328.539C371.746 328.55 367.217 328.448 363.268 328.527C358.648 328.618 359.103 328.789 353.686 328.902C350.409 328.97 349.772 325.665 351.171 325.336C357.521 323.848 358.17 323.757 363.826 320.305C364.429 319.941 365.1 319.669 365.795 319.646Z" fill="#A78BEF"/>
<path d="M364.362 320.407C364.431 320.384 364.476 320.327 364.487 320.248C364.499 320.168 364.453 320.089 364.385 320.055C364.021 319.873 360.778 318.317 359.822 318.874C359.64 318.987 359.526 319.157 359.514 319.385C359.492 319.759 359.617 320.066 359.89 320.293C360.778 321.054 363.065 320.691 364.351 320.407C364.351 320.418 364.362 320.418 364.362 320.407ZM360.072 319.18C360.675 318.964 362.428 319.589 363.702 320.168C361.938 320.498 360.63 320.441 360.129 320.021C359.958 319.873 359.879 319.669 359.89 319.419C359.901 319.316 359.935 319.26 360.004 319.214C360.026 319.192 360.049 319.192 360.072 319.18Z" fill="#C41AA4"/>
<path d="M364.361 320.407C364.373 320.395 364.395 320.395 364.407 320.384C364.464 320.339 364.486 320.282 364.486 320.214C364.475 320.123 364.225 317.976 363.189 317.17C362.87 316.92 362.518 316.818 362.131 316.863C361.607 316.931 361.471 317.193 361.437 317.408C361.3 318.317 363.246 319.998 364.213 320.418C364.27 320.43 364.327 320.43 364.361 320.407ZM361.994 317.283C362.04 317.261 362.108 317.249 362.188 317.238C362.472 317.204 362.722 317.272 362.961 317.465C363.644 317.999 363.94 319.282 364.054 319.907C363.064 319.339 361.732 318.01 361.812 317.465C361.823 317.42 361.835 317.34 361.994 317.283Z" fill="#C41AA4"/>
<path d="M387.803 240.859C398.944 202.709 403.644 174.872 401.197 155.95L374.841 154.747C374.841 154.747 370.983 215.759 369.481 240.018C368.036 263.267 365.441 315.92 365.441 315.92L377.481 316.091C377.481 316.079 390.944 266.845 387.803 240.859Z" fill="#1A2E35"/>
<path opacity="0.4" d="M401.901 163.583L397.85 160.846L394.277 172.601C394.277 172.601 386.277 204.606 391.876 226.242C398.533 201.96 402.63 177.359 401.901 163.583Z" fill="black"/>
<path d="M425.029 322.042L416.926 321.917L415.105 303.166L423.208 303.291L425.029 322.042Z" fill="#A53935"/>
<path d="M416.242 319.441L425.414 319.248C425.755 319.237 426.04 319.475 426.085 319.805L427.155 327.255C427.269 328.028 426.62 328.777 425.835 328.777C422.535 328.788 421.488 328.561 417.323 328.641C412.464 328.743 414.705 328.857 409.015 328.97C405.567 329.038 404.896 325.574 406.353 325.222C410.984 324.075 412.145 322.178 414.182 320.123C414.694 319.6 415.513 319.453 416.242 319.441Z" fill="#A78BEF"/>
<path d="M415.274 320.077C415.343 320.055 415.388 319.998 415.399 319.93C415.411 319.85 415.377 319.771 415.297 319.737C414.933 319.544 411.701 317.851 410.711 318.385C410.517 318.487 410.404 318.658 410.381 318.885C410.347 319.271 410.461 319.578 410.722 319.816C411.599 320.611 413.92 320.327 415.229 320.089C415.263 320.089 415.274 320.089 415.274 320.077ZM410.973 318.68C411.587 318.476 413.34 319.18 414.614 319.805C412.816 320.077 411.485 319.975 410.995 319.532C410.825 319.373 410.745 319.169 410.768 318.919C410.779 318.817 410.813 318.76 410.893 318.715C410.927 318.703 410.95 318.692 410.973 318.68Z" fill="#C41AA4"/>
<path d="M415.276 320.077C415.298 320.066 415.31 320.066 415.321 320.055C415.378 320.021 415.412 319.953 415.401 319.884C415.389 319.793 415.207 317.613 414.194 316.75C413.887 316.488 413.523 316.375 413.136 316.409C412.613 316.454 412.453 316.716 412.408 316.931C412.248 317.84 414.16 319.623 415.128 320.066C415.185 320.1 415.23 320.1 415.276 320.077ZM412.977 316.829C413.022 316.818 413.091 316.795 413.17 316.795C413.466 316.772 413.717 316.852 413.944 317.045C414.616 317.613 414.877 318.919 414.98 319.555C413.99 318.942 412.692 317.545 412.795 317C412.806 316.965 412.817 316.886 412.977 316.829Z" fill="#C41AA4"/>
<path d="M419.202 240.337C419.407 221.938 420.647 201.687 420.624 190.682C420.601 178.382 418.86 155.519 418.86 155.519L391.332 156.257C391.332 156.257 395.463 211.977 399.935 240.859C403.588 264.46 414.798 315.909 414.798 315.909L425.734 316.08C425.745 316.08 427.134 266.334 419.202 240.337Z" fill="#1A2E35"/>
<path d="M374.706 155.837C375.832 157.041 380.737 156.95 386.882 157.688C388.168 157.836 390.387 155.928 390.387 155.928C390.387 155.928 392.857 158.279 393.87 158.347C403.144 159.017 414.82 159.097 418.792 157.847C423.173 125.013 420.749 103.967 419.201 93.28C418.53 88.6689 414.911 85.0572 410.279 84.2963C401.574 82.8539 393.13 82.4223 385.039 83.399C379.588 84.0578 375.548 88.703 375.627 94.1432C375.764 102.843 377.369 111.963 377.3 120.072C377.289 120.061 373.363 144.514 374.706 155.837Z" fill="#007CFF"/>
<path d="M374.706 155.837C375.832 157.041 380.737 156.95 386.882 157.688C388.168 157.836 390.387 155.928 390.387 155.928C390.387 155.928 392.857 158.279 393.87 158.347C403.144 159.017 414.82 159.097 418.792 157.847C423.173 125.013 420.749 103.967 419.201 93.28C418.53 88.6689 414.911 85.0572 410.279 84.2963C401.574 82.8539 393.13 82.4223 385.039 83.399C379.588 84.0578 375.548 88.703 375.627 94.1432C375.764 102.843 377.369 111.963 377.3 120.072C377.289 120.061 373.363 144.514 374.706 155.837Z" fill="#E527BB"/>
<path d="M356.473 120.447C356.677 119.232 361.48 111.236 365.429 103.876C366.772 101.378 373.565 86.7608 379.529 88.2032C379.642 88.9187 379.676 89.5888 379.768 90.2816L379.87 92.3032C379.87 92.3146 379.87 92.3259 379.87 92.3486C379.984 94.6883 380.314 98.334 379.142 100.435C375.466 107.034 366.578 120.867 366.476 121.549C366.419 121.776 366.385 122.287 366.396 122.321C366.407 122.355 366.407 122.378 366.407 122.412L366.396 122.457C366.396 122.435 366.396 122.389 366.385 122.366L356.473 120.447Z" fill="#A53935"/>
<path opacity="0.2" d="M381.032 97.8571C380.429 99.9015 379.7 101.798 379.108 103.093C376.127 109.726 371.894 114.132 371.894 114.132L369.629 112.894C373.032 106.466 372.872 98.3228 372.872 98.3228L380.497 96.8804L381.032 97.8571Z" fill="black"/>
<path d="M377.859 87.1811C369.028 89.2822 361.824 108.499 361.824 108.499L372.169 114.132C372.169 114.132 376.402 109.726 379.384 103.093C381.534 98.3114 385.745 85.2958 377.859 87.1811Z" fill="#007CFF"/>
<path d="M377.859 87.1811C369.028 89.2822 361.824 108.499 361.824 108.499L372.169 114.132C372.169 114.132 376.402 109.726 379.384 103.093C381.534 98.3114 385.745 85.2958 377.859 87.1811Z" fill="#E527BB"/>
<path d="M373.181 113.678L361.369 107.182L360.504 110.339L371.133 116.131L373.181 113.678Z" fill="#007CFF"/>
<path d="M373.181 113.678L361.369 107.182L360.504 110.339L371.133 116.131L373.181 113.678Z" fill="#E527BB"/>
<path d="M399.48 69.5657C400.265 75.4034 401.46 82.1725 405.591 85.4888C404.043 89.5208 400.174 93.1438 394.484 93.4391C388.225 93.7684 389.192 88.7712 390.228 86.1362C392.891 83.1606 391.605 79.8442 390.933 77.4818L399.48 69.5657Z" fill="#A53935"/>
<path opacity="0.2" d="M397.75 72.4164C397.716 72.0416 397.648 71.6781 397.591 71.3147L390.934 77.4818C391.332 78.8901 391.958 80.6505 391.81 82.4677C395.121 80.2644 398.149 75.9599 397.75 72.4164Z" fill="black"/>
<path d="M401.675 61.0816C400.685 68.8047 400.503 73.3704 396.315 77.0616C390.011 82.6154 380.656 78.345 379.302 70.4629C378.085 63.3758 379.905 51.9388 387.712 49.4175C395.416 46.9302 402.654 53.3585 401.675 61.0816Z" fill="#A53935"/>
<path d="M389.284 65.4542C389.239 66.0902 388.875 66.5672 388.465 66.5445C388.055 66.5104 387.748 65.9766 387.794 65.3406C387.839 64.7046 388.203 64.2276 388.613 64.2503C389.023 64.2844 389.33 64.8182 389.284 65.4542Z" fill="#A53935"/>
<path d="M381.374 65.1136C381.329 65.7496 380.964 66.2266 380.555 66.2039C380.145 66.1698 379.838 65.636 379.883 65C379.929 64.364 380.293 63.887 380.703 63.9097C381.112 63.9438 381.42 64.4776 381.374 65.1136Z" fill="#A53935"/>
<path d="M383.786 66.8057C383.786 66.8057 382.193 69.7018 380.668 70.9966C381.499 71.996 383.149 71.8143 383.149 71.8143L383.786 66.8057Z" fill="#A53935"/>
<path d="M390.809 61.9903C390.866 61.9789 390.923 61.9448 390.98 61.8994C391.128 61.7631 391.128 61.5246 390.991 61.377C389.558 59.8891 387.862 60.1731 387.794 60.1958C387.589 60.2299 387.464 60.4229 387.498 60.6274C387.532 60.8318 387.737 60.9567 387.93 60.9227C387.987 60.9113 389.307 60.6955 390.457 61.888C390.548 61.9789 390.684 62.0243 390.809 61.9903Z" fill="#A53935"/>
<path d="M378.974 61.8878C379.088 61.9106 379.224 61.8765 379.304 61.7856C380.442 60.6045 381.762 60.843 381.819 60.8543C382.024 60.8884 382.217 60.7635 382.251 60.559C382.285 60.3546 382.16 60.1615 381.955 60.1274C381.887 60.1161 380.192 59.7981 378.769 61.2745C378.632 61.4222 378.632 61.6607 378.78 61.797C378.837 61.8424 378.906 61.8765 378.974 61.8878Z" fill="#A53935"/>
<path d="M402.395 81.6955C402.578 83.7512 400.529 91.0427 393.371 94.166C396.136 94.2001 397.331 98.4023 397.331 98.4023C397.331 98.4023 406.822 92.3147 405.684 84.9665C404.956 81.5479 402.395 81.6955 402.395 81.6955Z" fill="#007CFF"/>
<path d="M402.395 81.6955C402.578 83.7512 400.529 91.0427 393.371 94.166C396.136 94.2001 397.331 98.4023 397.331 98.4023C397.331 98.4023 406.822 92.3147 405.684 84.9665C404.956 81.5479 402.395 81.6955 402.395 81.6955Z" fill="#E527BB"/>
<path d="M391.264 82.4451C391.48 84.4553 389.136 88.6917 393.938 94.3591C390.604 94.3931 388.612 97.6982 388.612 97.6982C388.612 97.6982 384.186 91.3948 387.668 84.1033C389.454 82.5586 391.264 82.4451 391.264 82.4451Z" fill="#E527BB"/>
<path d="M389.262 157.984C389.262 158.449 389.637 158.824 390.104 158.824C390.57 158.824 390.946 158.449 390.946 157.984C390.946 157.518 390.57 157.143 390.104 157.143C389.637 157.143 389.262 157.518 389.262 157.984Z" fill="#1A2E35"/>
<path d="M397.784 68.1458C397.784 68.1458 395.417 68.373 396.066 65.0566C396.714 61.7402 393.437 58.4465 394.37 55.2778C395.303 52.1091 385.209 56.9587 384.481 54.4942C383.752 52.0296 382.398 57.7765 379.269 56.8224C376.549 56.0047 381.294 52.7451 381.294 52.7451C381.294 52.7451 378.324 53.9263 378.324 51.5526C378.324 49.2243 382.034 49.2924 383.787 48.8836C388.737 47.7024 399.537 41.876 402.598 56.6861C402.598 56.6861 407.229 59.9117 400.504 69.3156L397.784 68.1458Z" fill="#1A2E35"/>
<path opacity="0.2" d="M419.563 95.915C420.383 102.071 421.282 110.861 421.27 122.457C414.92 116.972 409.355 102.048 409.355 102.048V96.1081L414.101 92.3147L419.563 95.915Z" fill="black"/>
<path d="M387.475 82.6836L387.509 86.4543C387.589 95.4948 389.944 104.376 394.36 112.281L390.479 155.042C389.842 162.095 383.094 166.956 376.186 165.355L371.145 164.185L375.947 121.674C375.947 121.674 380.84 102.139 377.256 85.6365C377.244 85.6252 379.429 83.8875 387.475 82.6836Z" fill="#A78BEF"/>
<path opacity="0.7" d="M386.529 139.346C386.437 113.655 384.56 87.7943 384.218 83.2627C382.876 83.5353 381.76 83.8306 380.861 84.1032C381.294 89.9068 383.024 114.677 383.126 139.3L373.965 139.153L373.578 142.56L391.581 142.855L391.889 139.448L386.529 139.346Z" fill="white"/>
<path d="M403.794 69.1339C402.69 70.9057 400.858 72.0074 399.162 72.3595C396.624 72.8933 395.498 70.5763 396.328 68.2708C397.08 66.1924 399.299 63.4098 401.791 63.9209C404.249 64.4092 405.068 67.101 403.794 69.1339Z" fill="#A53935"/>
<path d="M415.743 85.4887C427.123 89.0663 432.585 111.327 432.585 111.327L421.182 117.676C421.182 117.676 415.356 113.542 411.236 105.705C409.984 103.331 406.662 82.638 415.743 85.4887Z" fill="#007CFF"/>
<g opacity="0.8">
<path d="M415.743 85.4887C427.123 89.0663 432.585 111.327 432.585 111.327L421.182 117.676C421.182 117.676 415.356 113.542 411.236 105.705C409.984 103.331 406.662 82.638 415.743 85.4887Z" fill="#E527BB"/>
</g>
<path d="M406.354 82.8765L393.927 107.84C392.675 110.35 391.97 113.076 391.845 115.859L390.069 155.201C389.785 161.561 395.156 166.797 401.677 166.49L421.273 165.582C421.273 165.582 420.477 140.3 422.377 123.23C422.377 123.23 404.363 113.871 414.957 85.182L406.354 82.8765Z" fill="#A78BEF"/>
<path opacity="0.8" d="M405.271 139.664V136.677C405.271 105.876 409.368 89.9069 411.257 84.1828L407.934 83.2969C405.874 89.5094 401.845 105.648 401.845 136.677V139.607L390.773 139.425L390.613 142.833L421.203 143.344C421.225 142.219 421.26 141.084 421.294 139.937L405.271 139.664Z" fill="white"/>
<path d="M405.293 121.356L398.773 118.062L397.168 126.648C397.168 126.648 403.427 128.908 405.168 125.785L405.293 121.356Z" fill="#A53935"/>
<path d="M391.557 120.379L391.5 123.48C391.478 124.717 392.354 125.785 393.572 126.012L397.168 126.671L398.772 118.085L394.175 117.914C392.764 117.846 391.58 118.959 391.557 120.379Z" fill="#A53935"/>
<path d="M433.004 114.087C432.447 112.61 431.844 111.179 431.195 109.794L420.589 114.973C420.907 115.643 421.659 117.153 421.943 117.812C422.865 119.925 424.549 122.412 424.742 124.025C424.788 124.365 424.799 124.638 424.799 124.865C424.242 124.933 423.525 124.945 422.797 124.91C421.704 124.854 420.532 124.751 419.326 124.57C414.523 123.854 409.414 122.594 404.452 121.333L404.35 121.31C402.859 120.935 401.334 121.833 400.958 123.32C400.64 124.558 401.22 125.819 402.278 126.421C407.069 129.147 411.917 131.43 417.38 133.099C418.757 133.508 424.822 134.36 426.893 134.394C438.865 134.644 434.746 119.89 434.37 118.369C433.983 116.881 433.516 115.461 433.004 114.087Z" fill="#A53935"/>
<path d="M370.858 114.019H391.388L405.818 139.107L405.26 139.664H384.731L370.301 114.575L370.858 114.019Z" fill="#1A2E35"/>
<path opacity="0.2" d="M370.858 114.019H391.388L405.818 139.107L405.26 139.664H384.731L370.301 114.575L370.858 114.019Z" fill="white"/>
<path d="M384.731 139.664H405.26L390.83 114.575H370.301L384.731 139.664Z" fill="#1A2E35"/>
<path opacity="0.4" d="M384.731 139.664H405.26L390.83 114.575H370.301L384.731 139.664Z" fill="white"/>
<path d="M376.118 113.655H383.936L385.586 116.529L385.358 116.767H377.54L375.879 113.882L376.118 113.655Z" fill="#007CFF"/>
<path opacity="0.5" d="M376.118 113.655H383.936L385.586 116.529L385.358 116.767H377.54L375.879 113.882L376.118 113.655Z" fill="white"/>
<path d="M377.54 116.767L375.879 113.882H383.708L385.358 116.767H377.54Z" fill="#007CFF"/>
<path d="M377.54 116.767L375.879 113.882H383.708L385.358 116.767H377.54Z" fill="#E527BB"/>
<path d="M365.238 120.924C365.159 120.822 365.204 120.856 365.159 120.833C365.125 120.799 365.238 120.901 365.5 121.038C372.339 123.241 375.879 124.706 378.359 123.582C380.214 122.741 380.556 129.544 378.587 130.056C347.11 138.153 354.541 122.469 358.331 117.097C358.661 120.072 365.238 120.924 365.238 120.924Z" fill="#A53935"/>
<path d="M378.472 129.976L386.472 131.157L384.117 122.764C384.117 122.764 377.357 121.822 376.617 125.944L378.472 129.976Z" fill="#A53935"/>
<path d="M390.786 127.739L390.331 124.15C390.171 122.866 388.976 121.98 387.702 122.185L384.117 122.764L386.473 131.157L389.284 130.158C390.285 129.806 390.911 128.795 390.786 127.739Z" fill="#A53935"/>
<path d="M385.048 75.0171C384.695 75.0171 384.331 74.983 383.933 74.9149C383.83 74.8922 383.751 74.7899 383.773 74.6877C383.796 74.5855 383.887 74.5174 384.001 74.5287C386.869 75.0398 388.564 73.268 388.587 73.2567C388.655 73.1772 388.781 73.1772 388.86 73.2453C388.94 73.3135 388.94 73.4384 388.872 73.5179C388.803 73.5974 387.438 75.0171 385.048 75.0171Z" fill="#A53935"/>
<path d="M390.364 71.3147C385.118 70.2471 386.279 73.3477 383.786 72.8253C381.294 72.3028 380.68 74.1087 380.68 74.1087C380.68 74.1087 381.192 75.9599 382.614 77.9021C384.037 79.8442 385.152 78.947 385.152 78.947C386.927 80.6051 388.532 78.8675 388.532 78.8675C390.944 80.2871 391.764 77.3796 391.764 77.3796C392.708 79.3899 395.61 72.3823 390.364 71.3147ZM390.159 75.0173C389.306 77.3569 387.052 75.0173 387.052 75.0173L385.653 75.3694C386.222 78.0611 383.058 75.994 382.91 74.8356C382.762 73.6771 384.924 74.1087 384.924 74.1087C387.087 74.3472 387.041 72.5641 388.213 72.4391C388.987 72.3483 391.013 72.6776 390.159 75.0173Z" fill="#A53935"/>
<path d="M432.448 108.079L418.246 115.927L420.852 118.755L433.871 111.577L432.448 108.079Z" fill="#007CFF"/>
<path d="M432.448 108.079L418.246 115.927L420.852 118.755L433.871 111.577L432.448 108.079Z" fill="#E527BB"/>
<path d="M402.631 64.3639L403.985 66.2038C403.985 66.2038 410.551 52.1887 400.776 45.0903C388.941 36.4927 380.383 49.7128 380.383 49.7128L392.662 54.1535L396.861 57.186L401.424 61.7176L402.631 64.3639Z" fill="#007CFF"/>
<path d="M402.631 64.3639L403.985 66.2038C403.985 66.2038 410.551 52.1887 400.776 45.0903C388.941 36.4927 380.383 49.7128 380.383 49.7128L392.662 54.1535L396.861 57.186L401.424 61.7176L402.631 64.3639Z" fill="#E527BB"/>
<path d="M400.742 57.9015C401.812 59.2417 403.974 58.4921 403.929 56.7771C403.849 53.7788 403.109 50.1103 400.367 47.7252C395.508 43.5116 392.321 45.7263 390.705 47.7593C389.977 48.6793 390.375 50.0421 391.468 50.4851C393.584 51.3483 397.101 53.3472 400.742 57.9015Z" fill="#C41AA4"/>
<path d="M402.63 64.3639C402.63 64.3639 394.072 49.2017 379.574 54.1649C379.574 54.1649 371.744 48.9973 376.831 47.9864C386.049 46.1579 394.926 55.1757 394.926 55.1757C394.926 55.1757 403.392 60.934 402.63 64.3639Z" fill="#C41AA4"/>
<path d="M308.658 177.439V201.062H271.969V167.524L308.658 177.439Z" fill="#007CFF"/>
<path d="M308.658 177.439V201.062H271.969V167.524L308.658 177.439Z" fill="#C41AA4"/>
<path opacity="0.9" d="M291.396 181.221H296.812V175.815H291.396V181.221Z" fill="white"/>
<path opacity="0.9" d="M283.817 181.221H289.234V175.815H283.817V181.221Z" fill="white"/>
<path opacity="0.9" d="M298.958 189.374H304.375V183.968H298.958V189.374Z" fill="white"/>
<path opacity="0.9" d="M291.396 189.374H296.812V183.968H291.396V189.374Z" fill="white"/>
<path opacity="0.9" d="M276.255 189.374H281.672V183.968H276.255V189.374Z" fill="white"/>
<path opacity="0.9" d="M298.958 197.527H304.375V192.12H298.958V197.527Z" fill="white"/>
<path opacity="0.9" d="M283.817 197.527H289.234V192.12H283.817V197.527Z" fill="white"/>
<path opacity="0.9" d="M276.255 197.527H281.672V192.12H276.255V197.527Z" fill="white"/>
<path d="M307.43 201.062H327.185V121.889L307.43 124.002V201.062Z" fill="#007CFF"/>
<path d="M307.43 201.062H327.185V121.889L307.43 124.002V201.062Z" fill="#C41AA4"/>
<path opacity="0.9" d="M320.719 130.794H326.113V125.411H320.719V130.794Z" fill="white"/>
<path opacity="0.9" d="M314.614 130.794H320.008V125.411H314.614V130.794Z" fill="white"/>
<path opacity="0.9" d="M308.497 130.794H313.891V125.411H308.497V130.794Z" fill="white"/>
<path opacity="0.9" d="M320.719 136.81H326.113V131.427H320.719V136.81Z" fill="white"/>
<path opacity="0.9" d="M314.614 136.81H320.008V131.427H314.614V136.81Z" fill="white"/>
<path opacity="0.9" d="M308.497 136.81H313.891V131.427H308.497V136.81Z" fill="white"/>
<path opacity="0.9" d="M320.719 142.826H326.113V137.442H320.719V142.826Z" fill="white"/>
<path opacity="0.9" d="M314.614 142.826H320.008V137.442H314.614V142.826Z" fill="white"/>
<path opacity="0.9" d="M308.497 142.826H313.891V137.442H308.497V142.826Z" fill="white"/>
<path opacity="0.9" d="M320.719 148.841H326.113V143.458H320.719V148.841Z" fill="white"/>
<path opacity="0.9" d="M314.614 148.841H320.008V143.458H314.614V148.841Z" fill="white"/>
<path opacity="0.9" d="M308.497 148.841H313.891V143.458H308.497V148.841Z" fill="white"/>
<path opacity="0.9" d="M320.719 154.857H326.113V149.474H320.719V154.857Z" fill="white"/>
<path opacity="0.9" d="M314.614 154.857H320.008V149.474H314.614V154.857Z" fill="white"/>
<path opacity="0.9" d="M308.497 154.857H313.891V149.474H308.497V154.857Z" fill="white"/>
<path opacity="0.9" d="M320.719 160.873H326.113V155.489H320.719V160.873Z" fill="white"/>
<path opacity="0.9" d="M314.614 160.873H320.008V155.489H314.614V160.873Z" fill="white"/>
<path opacity="0.9" d="M308.497 160.873H313.891V155.489H308.497V160.873Z" fill="white"/>
<path opacity="0.9" d="M320.719 166.9H326.113V161.516H320.719V166.9Z" fill="white"/>
<path opacity="0.9" d="M314.614 166.9H320.008V161.516H314.614V166.9Z" fill="white"/>
<path opacity="0.9" d="M308.497 166.9H313.891V161.516H308.497V166.9Z" fill="white"/>
<path opacity="0.9" d="M320.719 172.916H326.113V167.532H320.719V172.916Z" fill="white"/>
<path opacity="0.9" d="M314.614 172.916H320.008V167.532H314.614V172.916Z" fill="white"/>
<path opacity="0.9" d="M308.497 172.916H313.891V167.532H308.497V172.916Z" fill="white"/>
<path opacity="0.9" d="M320.719 178.931H326.113V173.548H320.719V178.931Z" fill="white"/>
<path opacity="0.9" d="M314.614 178.931H320.008V173.548H314.614V178.931Z" fill="white"/>
<path opacity="0.9" d="M308.497 178.931H313.891V173.548H308.497V178.931Z" fill="white"/>
<path opacity="0.9" d="M320.719 184.947H326.113V179.563H320.719V184.947Z" fill="white"/>
<path opacity="0.9" d="M314.614 184.947H320.008V179.563H314.614V184.947Z" fill="white"/>
<path opacity="0.9" d="M308.497 184.947H313.891V179.563H308.497V184.947Z" fill="white"/>
<path opacity="0.9" d="M320.719 190.963H326.113V185.579H320.719V190.963Z" fill="white"/>
<path opacity="0.9" d="M314.614 190.963H320.008V185.579H314.614V190.963Z" fill="white"/>
<path opacity="0.9" d="M308.497 190.963H313.891V185.579H308.497V190.963Z" fill="white"/>
<path opacity="0.9" d="M320.719 196.978H326.113V191.595H320.719V196.978Z" fill="white"/>
<path opacity="0.9" d="M314.614 196.978H320.008V191.595H314.614V196.978Z" fill="white"/>
<path opacity="0.9" d="M308.497 196.978H313.891V191.595H308.497V196.978Z" fill="white"/>
<path d="M327.184 201.062H343.173V137.779L327.184 139.494V201.062Z" fill="#007CFF"/>
<path d="M327.184 201.062H343.173V137.779L327.184 139.494V201.062Z" fill="#C41AA4"/>
<path opacity="0.8" d="M337.935 144.984H342.305V140.622H337.935V144.984Z" fill="white"/>
<path opacity="0.8" d="M337.935 149.853H342.305V145.492H337.935V149.853Z" fill="white"/>
<path opacity="0.8" d="M332.989 149.853H337.359V145.492H332.989V149.853Z" fill="white"/>
<path opacity="0.8" d="M337.935 154.735H342.305V150.374H337.935V154.735Z" fill="white"/>
<path opacity="0.8" d="M328.04 154.735H332.41V150.374H328.04V154.735Z" fill="white"/>
<path opacity="0.8" d="M332.989 159.605H337.359V155.243H332.989V159.605Z" fill="white"/>
<path opacity="0.8" d="M328.04 159.605H332.41V155.243H328.04V159.605Z" fill="white"/>
<path opacity="0.8" d="M337.935 164.475H342.305V160.114H337.935V164.475Z" fill="white"/>
<path opacity="0.8" d="M332.989 164.475H337.359V160.114H332.989V164.475Z" fill="white"/>
<path opacity="0.8" d="M337.935 169.345H342.305V164.983H337.935V169.345Z" fill="white"/>
<path opacity="0.8" d="M328.04 169.345H332.41V164.983H328.04V169.345Z" fill="white"/>
<path opacity="0.8" d="M337.935 174.215H342.305V169.853H337.935V174.215Z" fill="white"/>
<path opacity="0.8" d="M332.989 174.215H337.359V169.853H332.989V174.215Z" fill="white"/>
<path opacity="0.8" d="M328.04 174.215H332.41V169.853H328.04V174.215Z" fill="white"/>
<path opacity="0.8" d="M337.935 179.085H342.305V174.723H337.935V179.085Z" fill="white"/>
<path opacity="0.8" d="M328.04 179.085H332.41V174.723H328.04V179.085Z" fill="white"/>
<path opacity="0.8" d="M337.935 183.955H342.305V179.593H337.935V183.955Z" fill="white"/>
<path opacity="0.8" d="M332.989 183.955H337.359V179.593H332.989V183.955Z" fill="white"/>
<path opacity="0.8" d="M328.04 183.955H332.41V179.593H328.04V183.955Z" fill="white"/>
<path opacity="0.8" d="M332.989 188.825H337.359V184.463H332.989V188.825Z" fill="white"/>
<path opacity="0.8" d="M337.935 193.695H342.305V189.333H337.935V193.695Z" fill="white"/>
<path opacity="0.8" d="M328.04 193.695H332.41V189.333H328.04V193.695Z" fill="white"/>
<path opacity="0.8" d="M332.989 198.564H337.359V194.203H332.989V198.564Z" fill="white"/>
<path opacity="0.8" d="M328.04 198.564H332.41V194.203H328.04V198.564Z" fill="white"/>
<path d="M398.796 205.208H393.402V329.47H398.796V205.208Z" fill="#1A2E35"/>
<path d="M465.554 205.208H460.16V329.47H465.554V205.208Z" fill="#1A2E35"/>
<path d="M262.226 205.208H256.832V329.47H262.226V205.208Z" fill="#1A2E35"/>
<path d="M328.992 205.208H323.598V329.47H328.992V205.208Z" fill="#1A2E35"/>
<g opacity="0.5">
<path d="M398.796 205.208H393.402V329.47H398.796V205.208Z" fill="white"/>
<path d="M465.554 205.208H460.16V329.47H465.554V205.208Z" fill="white"/>
<path d="M262.226 205.208H256.832V329.47H262.226V205.208Z" fill="white"/>
<path d="M328.992 205.208H323.598V329.47H328.992V205.208Z" fill="white"/>
</g>
<path d="M472.12 200.574H249.254V206.241H472.12V200.574Z" fill="#1A2E35"/>
<path d="M472.107 200.574H389.738V206.241H472.107V200.574Z" fill="#1A2E35"/>
<path opacity="0.5" d="M472.12 200.574H249.254V206.241H472.12V200.574Z" fill="white"/>
<path opacity="0.2" d="M472.107 200.574H389.738V206.241H472.107V200.574Z" fill="white"/>
<path d="M354.543 200.438C353.098 200.438 351.926 198.121 351.926 195.27C351.926 192.419 353.098 190.102 354.543 190.102H419.773C421.219 190.102 422.391 192.419 422.391 195.27C422.391 198.121 421.219 200.438 419.773 200.438H354.543Z" fill="#007CFF"/>
<path opacity="0.8" d="M354.543 200.438C353.098 200.438 351.926 198.121 351.926 195.27C351.926 192.419 353.098 190.102 354.543 190.102H419.773C421.219 190.102 422.391 192.419 422.391 195.27C422.391 198.121 421.219 200.438 419.773 200.438H354.543Z" fill="white"/>
<path d="M357.161 195.281C357.161 198.132 355.988 200.449 354.543 200.449C353.098 200.449 351.926 198.132 351.926 195.281C351.926 192.431 353.098 190.114 354.543 190.114C355.988 190.114 357.161 192.431 357.161 195.281Z" fill="#C41AA4"/>
<path opacity="0.2" d="M355.34 199.075C356.277 199.075 357.036 197.58 357.036 195.736C357.036 193.891 356.277 192.396 355.34 192.396C354.404 192.396 353.645 193.891 353.645 195.736C353.645 197.58 354.404 199.075 355.34 199.075Z" fill="black"/>
<path d="M354.543 200.438C354.543 200.438 357.251 201.164 359.505 195.27C359.505 195.27 373.673 193.952 389.468 197.189C405.264 200.426 411.067 195.361 423.881 195.27C423.881 195.27 423.119 200.438 419.773 200.438H354.543Z" fill="#007CFF"/>
<path d="M354.543 200.438C354.543 200.438 357.251 201.164 359.505 195.27C359.505 195.27 373.673 193.952 389.468 197.189C405.264 200.426 411.067 195.361 423.881 195.27C423.881 195.27 423.119 200.438 419.773 200.438H354.543Z" fill="#C41AA4"/>
<path d="M378.348 192.953C376.903 192.953 375.73 190.636 375.73 187.785C375.73 184.935 376.903 182.618 378.348 182.618H443.578C445.023 182.618 446.195 184.935 446.195 187.785C446.195 190.636 445.023 192.953 443.578 192.953H378.348Z" fill="#007CFF"/>
<path opacity="0.8" d="M378.348 192.953C376.903 192.953 375.73 190.636 375.73 187.785C375.73 184.935 376.903 182.618 378.348 182.618H443.578C445.023 182.618 446.195 184.935 446.195 187.785C446.195 190.636 445.023 192.953 443.578 192.953H378.348Z" fill="white"/>
<path d="M380.977 187.797C380.977 190.648 379.805 192.964 378.36 192.964C376.914 192.964 375.742 190.648 375.742 187.797C375.742 184.946 376.914 182.629 378.36 182.629C379.793 182.629 380.977 184.935 380.977 187.797Z" fill="#C41AA4"/>
<path opacity="0.2" d="M380.84 188.251C380.84 190.091 380.078 191.59 379.145 191.59C378.212 191.59 377.449 190.091 377.449 188.251C377.449 186.411 378.212 184.912 379.145 184.912C380.089 184.912 380.84 186.411 380.84 188.251Z" fill="black"/>
<path d="M378.348 192.953C378.348 192.953 381.056 193.68 383.309 187.785C383.309 187.785 397.477 186.468 413.273 189.705C429.068 192.942 434.872 187.876 447.686 187.785C447.686 187.785 446.924 192.953 443.578 192.953H378.348Z" fill="#007CFF"/>
<path d="M378.348 192.953C378.348 192.953 381.056 193.68 383.309 187.785C383.309 187.785 397.477 186.468 413.273 189.705C429.068 192.942 434.872 187.876 447.686 187.785C447.686 187.785 446.924 192.953 443.578 192.953H378.348Z" fill="#C41AA4"/>
<path d="M386.324 200.438C384.879 200.438 383.707 198.121 383.707 195.27C383.707 192.419 384.879 190.102 386.324 190.102H451.555C453 190.102 454.172 192.419 454.172 195.27C454.172 198.121 453 200.438 451.555 200.438H386.324Z" fill="#007CFF"/>
<path opacity="0.8" d="M386.324 200.438C384.879 200.438 383.707 198.121 383.707 195.27C383.707 192.419 384.879 190.102 386.324 190.102H451.555C453 190.102 454.172 192.419 454.172 195.27C454.172 198.121 453 200.438 451.555 200.438H386.324Z" fill="white"/>
<path d="M386.324 200.449C387.77 200.449 388.942 198.135 388.942 195.281C388.942 192.427 387.77 190.114 386.324 190.114C384.879 190.114 383.707 192.427 383.707 195.281C383.707 198.135 384.879 200.449 386.324 200.449Z" fill="#A78BEF"/>
<path opacity="0.2" d="M387.121 199.075C388.058 199.075 388.817 197.58 388.817 195.736C388.817 193.891 388.058 192.396 387.121 192.396C386.185 192.396 385.426 193.891 385.426 195.736C385.426 197.58 386.185 199.075 387.121 199.075Z" fill="black"/>
<path d="M386.324 200.438C386.324 200.438 389.033 201.164 391.286 195.27C391.286 195.27 405.454 193.952 421.249 197.189C437.045 200.426 442.849 195.361 455.663 195.27C455.663 195.27 454.9 200.438 451.554 200.438H386.324Z" fill="#007CFF"/>
<path d="M386.324 200.438C386.324 200.438 389.033 201.164 391.286 195.27C391.286 195.27 405.454 193.952 421.249 197.189C437.045 200.426 442.849 195.361 455.663 195.27C455.663 195.27 454.9 200.438 451.554 200.438H386.324Z" fill="#A78BEF"/>
<path d="M208.47 313.093V154.735H200.799V313.081H171.2C167.741 313.081 164.93 315.886 164.93 319.339H244.339C244.339 315.886 241.528 313.081 238.069 313.081H208.47V313.093Z" fill="#1A2E35"/>
<path opacity="0.5" d="M208.47 313.093V154.735H200.799V313.081H171.2C167.741 313.081 164.93 315.886 164.93 319.339H244.339C244.339 315.886 241.528 313.081 238.069 313.081H208.47V313.093Z" fill="white"/>
<path d="M208.467 154.735H200.797V166.15H208.467V154.735Z" fill="black"/>
<path d="M282.813 49.8037H128.375V156.382H282.813V49.8037Z" fill="white"/>
<path d="M125.496 46.9302H122.617V159.244H125.496V46.9302Z" fill="#C41AA4"/>
<path d="M281.176 51.1665H278.297V154.735H281.176V51.1665Z" fill="#007CFF"/>
<g opacity="0.2">
<path d="M281.176 51.1665H278.297V154.735H281.176V51.1665Z" fill="#C41AA4"/>
</g>
<path d="M285.681 159.256H125.496V46.9302H285.681V159.256ZM131.243 153.509H279.934V52.6657H131.243V153.509Z" fill="#E527BB"/>
<path d="M142.087 90.009L142.224 120.754L138.07 120.776L138.139 136.018L138.821 136.098C141.712 136.461 143.965 138.733 144.329 141.549L138.173 141.572L138.195 145.581L161.502 145.479L163.061 145.468L196.734 145.32L217.708 145.229L217.594 120.424L217.491 96.8348L174.498 97.0165L174.464 89.8613L142.087 90.009ZM198.248 143.764L198.157 122.06L202.754 122.037L202.777 128.238H203.551C207.261 128.227 210.436 125.592 211.21 122.003L216.023 121.98L216.114 143.684L198.248 143.764ZM163.027 143.912L162.936 122.207L165.485 122.196L171.05 122.173L174.589 122.162L174.486 98.5725L215.921 98.3908L216.012 120.424L209.867 120.447L209.787 121.128C209.423 124.025 207.147 126.262 204.325 126.625L204.302 120.47L196.598 120.504L196.7 143.764L163.027 143.912ZM165.724 120.651C166.361 118.141 168.455 116.267 171.015 115.938L171.038 120.629L165.724 120.651ZM142.224 122.298L161.377 122.219L161.468 143.923L139.72 144.014V143.105L145.934 143.082V142.31C145.923 138.608 143.282 135.439 139.698 134.667L139.641 122.31L142.224 122.298ZM172.893 91.4287L172.916 97.0279L173.018 120.617H172.586L172.563 114.325H171.789C168.034 114.337 164.847 117.017 164.119 120.651H162.924L161.365 120.663L143.772 120.742L143.647 91.5536L172.893 91.4287Z" fill="#E527BB"/>
<path d="M271.479 69.7929L240.674 69.9292L240.651 65.7837L225.379 65.8518L225.299 66.5333C224.935 69.4181 222.659 71.6669 219.837 72.0303L219.814 65.8859L215.797 65.9086L215.899 89.1687L215.911 90.7247L216.059 124.331L216.15 145.263L241.004 145.15L264.64 145.047L264.458 102.139L271.627 102.105L271.479 69.7929ZM217.618 125.842L239.365 125.751L239.388 130.34L233.174 130.362V131.135C233.186 134.837 235.826 138.006 239.422 138.778L239.445 143.582L217.697 143.673L217.618 125.842ZM217.458 90.6906L239.206 90.5998L239.217 93.1438L239.24 98.6976L239.251 102.23L262.887 102.128L263.069 143.48L240.992 143.571L240.969 137.438L240.287 137.358C237.396 136.995 235.143 134.724 234.779 131.907L240.947 131.884L240.913 124.195L217.606 124.297L217.458 90.6906ZM240.776 93.3823C243.291 94.0184 245.169 96.1081 245.499 98.6636L240.799 98.6863L240.776 93.3823ZM239.114 69.9292L239.194 89.0438L217.447 89.1347L217.356 67.4305H218.266L218.289 73.6317H219.063C222.773 73.6203 225.948 70.9854 226.722 67.4078L239.103 67.351L239.114 69.9292ZM270.057 100.538L264.446 100.56L240.81 100.662V100.231L247.115 100.208V99.4359C247.103 95.6879 244.418 92.5078 240.776 91.7809V90.5884L240.765 89.0324L240.685 71.4738L269.932 71.3489L270.057 100.538Z" fill="#E527BB"/>
<path d="M164.927 329.47C167.869 329.47 170.253 327.09 170.253 324.155C170.253 321.219 167.869 318.839 164.927 318.839C161.986 318.839 159.602 321.219 159.602 324.155C159.602 327.09 161.986 329.47 164.927 329.47Z" fill="#1A2E35"/>
<path d="M244.338 329.47C247.279 329.47 249.663 327.09 249.663 324.155C249.663 321.219 247.279 318.839 244.338 318.839C241.396 318.839 239.012 321.219 239.012 324.155C239.012 327.09 241.396 329.47 244.338 329.47Z" fill="#1A2E35"/>
<path d="M167.728 68.8501H145.173C144.331 68.8501 143.637 68.1686 143.637 67.3168C143.637 66.4764 144.32 65.7949 145.173 65.7949H167.728C168.57 65.7949 169.264 66.4764 169.264 67.3168C169.253 68.1686 168.57 68.8501 167.728 68.8501Z" fill="#1A2E35"/>
<path d="M161.64 73.8019H145.173C144.331 73.8019 143.637 73.1204 143.637 72.2686C143.637 71.4282 144.32 70.7354 145.173 70.7354H161.64C162.482 70.7354 163.176 71.4168 163.176 72.2686C163.165 73.1204 162.482 73.8019 161.64 73.8019Z" fill="#1A2E35"/>
<path d="M164.246 78.7424H145.161C144.319 78.7424 143.625 78.061 143.625 77.2092C143.625 76.3687 144.308 75.6873 145.161 75.6873H164.246C165.088 75.6873 165.77 76.3687 165.77 77.2092C165.782 78.061 165.088 78.7424 164.246 78.7424Z" fill="#1A2E35"/>
<path d="M167.728 68.8501H145.173C144.331 68.8501 143.637 68.1686 143.637 67.3168C143.637 66.4764 144.32 65.7949 145.173 65.7949H167.728C168.57 65.7949 169.264 66.4764 169.264 67.3168C169.253 68.1686 168.57 68.8501 167.728 68.8501Z" fill="#E527BB"/>
<path d="M161.64 73.8019H145.173C144.331 73.8019 143.637 73.1204 143.637 72.2686C143.637 71.4282 144.32 70.7354 145.173 70.7354H161.64C162.482 70.7354 163.176 71.4168 163.176 72.2686C163.165 73.1204 162.482 73.8019 161.64 73.8019Z" fill="#E527BB"/>
<path d="M164.246 78.7424H145.161C144.319 78.7424 143.625 78.061 143.625 77.2092C143.625 76.3687 144.308 75.6873 145.161 75.6873H164.246C165.088 75.6873 165.77 76.3687 165.77 77.2092C165.782 78.061 165.088 78.7424 164.246 78.7424Z" fill="#E527BB"/>
<path d="M147.899 321.974C146.409 322.848 143.643 322.951 140.628 322.019C140.628 322.019 140.047 319.146 139.273 314.353L147.342 314.16L147.899 321.974Z" fill="#FFB570"/>
<path d="M155.857 329.209C149.382 329.209 149.837 329.106 146.195 328.982C143.066 328.868 142.349 329.254 139.845 329.209C137.751 329.163 137.683 327.164 138.161 324.87C138.343 323.984 138.616 322.962 138.878 321.69C139.026 320.952 139.652 320.441 140.414 320.441H147.993C148.539 320.441 149.086 320.702 149.427 321.168C151.02 323.348 153.626 324.95 156.961 325.393C160.466 325.847 158.44 329.209 155.857 329.209Z" fill="#A78BEF"/>
<path d="M146.102 111.679C147.422 115.722 148.924 119.925 150.54 123.888C151.36 125.876 152.247 127.807 153.18 129.635C154.102 131.452 155.172 133.19 156.185 134.405C156.674 134.996 157.198 135.393 157.232 135.428C157.129 135.462 157.892 135.643 158.711 135.621C160.429 135.598 162.523 135.2 164.583 134.746C168.737 133.826 173.039 132.475 177.249 131.168L177.317 131.146C178.558 130.76 179.878 131.452 180.253 132.69C180.572 133.724 180.14 134.814 179.263 135.371C175.28 137.881 171.206 139.982 166.734 141.742C164.469 142.594 162.182 143.366 159.383 143.753C157.96 143.9 156.401 144.071 154.159 143.355C152.088 142.549 150.859 141.424 149.801 140.391C147.741 138.278 146.421 136.154 145.158 134.019C143.917 131.895 142.893 129.737 141.926 127.58C139.98 123.241 138.409 118.948 137.055 114.371C136.315 111.883 137.738 109.26 140.241 108.522C142.699 107.795 145.271 109.158 146.057 111.565L146.102 111.679Z" fill="#FFB570"/>
<path d="M185.502 124.831L182.805 124.785C181.792 124.763 180.824 125.24 180.221 126.057L177.399 129.862C176.272 131.384 175.954 133.36 176.534 135.155L176.898 136.268C181.371 136.654 186.492 133.781 186.492 133.781L188.039 133.122C189.416 132.531 190.065 131.055 189.507 129.715L188.244 126.637C187.812 125.569 186.719 124.842 185.502 124.831Z" fill="#FFB570"/>
<path d="M137.225 105.046C141.06 103.979 144.986 105.773 148.912 117.732C152.941 129.999 157.549 134.655 157.549 134.655C157.549 134.655 158.357 136.097 169.658 133.054L171.991 139.732C171.991 139.732 159.325 147.387 152.542 143.366C145.771 139.346 140.662 129.351 137.908 123.275C135.154 117.199 130.613 106.886 137.225 105.046Z" fill="#A78BEF"/>
<path d="M110.186 80.9457C110.186 80.9457 109.902 82.99 110.311 85.0457C110.687 86.8857 110.527 88.771 109.811 90.5087C109.185 92.0306 108.616 93.9614 108.729 95.7899C108.82 97.3345 108.582 98.8792 107.887 100.265C106.783 102.445 105.793 105.853 108.126 108.772C111.904 113.496 138.022 107.874 138.022 107.874C138.022 107.874 139.512 102.355 136.701 99.2653C135.586 98.0387 134.915 96.4486 135.006 94.7905C135.074 93.5298 134.949 92.076 134.289 90.8608C133.458 89.3502 133.424 87.5444 133.856 85.8635C134.608 82.9219 134.608 77.9019 130.203 70.8148C130.203 70.8148 123.535 59.7299 116.445 65.0793C109.367 70.4287 110.186 80.9457 110.186 80.9457Z" fill="#1A2E35"/>
<path d="M138.763 315.08C134.097 299.452 125.801 272.683 129.875 239.678C113.966 192.533 117.448 154.553 117.448 154.553L142.894 155.451C142.894 155.451 148.458 209.796 146.194 238.746C146.512 261.416 146.956 297.408 148.117 315.057L138.763 315.08Z" fill="#1A2E35"/>
<path opacity="0.4" d="M126.505 228.877C133.697 200.256 128.007 186.672 128.007 186.672L120.473 169.284L116.16 176.871C117.207 186.638 122.237 213.397 126.505 228.877Z" fill="black"/>
<path d="M105.987 314.16C105.919 317.124 105.976 319.759 106.169 321.962C104.678 322.837 101.913 322.939 98.8972 322.008C98.8972 322.008 98.3168 319.134 97.543 314.342L105.987 314.16Z" fill="#FFB570"/>
<path d="M114.126 329.209C107.651 329.209 108.106 329.106 104.465 328.982C101.335 328.868 100.618 329.254 98.1147 329.209C96.0208 329.163 95.9525 327.164 96.4305 324.87C96.6125 323.984 96.8857 322.962 97.1474 321.69C97.2953 320.952 97.9212 320.441 98.6837 320.441H106.263C106.809 320.441 107.355 320.702 107.697 321.168C109.29 323.348 111.896 324.95 115.23 325.393C118.724 325.847 116.71 329.209 114.126 329.209Z" fill="#A78BEF"/>
<path d="M97.0758 315.5C94.0942 278.327 93.8097 259.258 103.187 237.043C97.9065 174.02 109.935 156.041 109.935 156.041H133.162C133.162 156.041 125.435 213.998 120.132 239.326C115.261 262.608 110.072 291.513 106.658 315.296L97.0758 315.5Z" fill="#1A2E35"/>
<path d="M146.877 116.052C146.98 119.766 147.128 124.456 146.65 133.315C146.376 140.811 147.514 162.163 142.894 163.503C139.321 165.911 121.193 165.025 109.619 163.31C104.111 161.459 113.443 144.877 103.224 113.803C101.437 108.385 105.01 102.934 110.199 102.366C111.588 102.218 113.056 102.093 114.558 102.014C120.419 101.707 125.221 101.503 130.433 102.014C132.163 102.184 133.95 102.423 135.657 102.673C141.813 103.593 146.684 109.396 146.877 116.052Z" fill="#007CFF"/>
<path d="M146.877 116.052C146.98 119.766 147.128 124.456 146.65 133.315C146.376 140.811 147.514 162.163 142.894 163.503C139.321 165.911 121.193 165.025 109.619 163.31C104.111 161.459 113.443 144.877 103.224 113.803C101.437 108.385 105.01 102.934 110.199 102.366C111.588 102.218 113.056 102.093 114.558 102.014C120.419 101.707 125.221 101.503 130.433 102.014C132.163 102.184 133.95 102.423 135.657 102.673C141.813 103.593 146.684 109.396 146.877 116.052Z" fill="#E527BB"/>
<path opacity="0.7" d="M132.789 102.207C131.993 102.116 131.196 102.037 130.422 101.969C125.21 101.526 120.408 101.707 114.547 101.969C114.399 101.98 114.251 101.991 114.103 101.991C114.047 103.729 115.264 106.977 124.038 109.078L126.94 106.091L132.425 107.965C132.414 107.977 134.713 104.32 132.789 102.207Z" fill="white"/>
<path opacity="0.2" d="M111.291 119.379C111.871 125.353 109.254 131.339 108.093 133.633C107.877 130.612 107.422 127.273 106.625 123.627L111.291 119.379Z" fill="black"/>
<path d="M128.464 105.535C136.282 104.99 130.353 102.003 130.353 102.003C125.141 100.776 124.981 96.9826 125.607 93.4163L116.276 85.9431C117.516 90.5315 119.041 98.9361 116.06 102.003C116.06 102.003 113.92 106.171 126.051 105.66C126.643 105.637 127.861 105.58 128.464 105.535Z" fill="#FFB570"/>
<path opacity="0.2" d="M120.076 88.998L125.595 93.4161C125.447 94.2566 125.345 95.1197 125.345 95.9488C123.364 95.6649 120.519 93.5183 120.155 91.474C119.973 90.4518 119.939 89.4751 120.076 88.998Z" fill="black"/>
<path d="M112.349 76.7434C113.749 84.1485 114.182 87.3059 118.415 90.8608C124.788 96.2101 133.539 93.3821 134.381 85.8294C135.132 79.0263 132.731 68.055 125.072 65.6131C117.527 63.194 110.95 69.3384 112.349 76.7434Z" fill="#FFB570"/>
<path d="M124.105 77.9813C124.196 78.606 124.594 79.0944 124.992 79.0603C125.391 79.0262 125.652 78.5038 125.561 77.8677C125.47 77.2431 125.072 76.7547 124.674 76.7888C124.264 76.8229 124.014 77.3453 124.105 77.9813Z" fill="#FFB570"/>
<path d="M131.683 77.5272C131.774 78.1519 132.172 78.6403 132.57 78.6062C132.969 78.5721 133.23 78.0497 133.139 77.4136C133.048 76.789 132.65 76.3006 132.252 76.3347C131.842 76.3688 131.592 76.9026 131.683 77.5272Z" fill="#FFB570"/>
<path d="M132.082 76.3913L133.493 75.8462C133.493 75.8462 132.901 77.0842 132.082 76.3913Z" fill="#FFB570"/>
<path d="M129.727 78.7083C129.727 78.7083 131.16 81.3318 132.492 82.5471C131.786 83.3762 130.364 83.1263 130.364 83.1263L129.727 78.7083Z" fill="#FFB570"/>
<path d="M128.293 86.2838C128.623 86.3179 128.964 86.3292 129.339 86.2951C129.442 86.2838 129.51 86.2043 129.499 86.1021C129.487 85.9998 129.396 85.9203 129.294 85.9317C126.597 86.1361 125.061 84.2962 125.038 84.2849C124.97 84.2054 124.856 84.1827 124.776 84.2508C124.696 84.3076 124.696 84.4325 124.765 84.512C124.822 84.5688 126.051 86.0453 128.293 86.2838Z" fill="#FFB570"/>
<path d="M111.621 83.8873C112.383 85.4092 113.623 86.3405 114.773 86.6472C116.503 87.1015 117.254 85.1253 116.673 83.1491C116.161 81.3773 114.636 78.9922 112.941 79.4238C111.291 79.844 110.756 82.1496 111.621 83.8873Z" fill="#FFB570"/>
<path d="M121.99 74.6083C122.081 74.6083 122.184 74.5742 122.252 74.4947C123.299 73.3249 124.642 73.5747 124.653 73.5747C124.847 73.6088 125.04 73.4839 125.063 73.2794C125.086 73.075 124.949 72.8819 124.744 72.8479C124.676 72.8365 123.003 72.5185 121.694 73.9722C121.569 74.1199 121.581 74.347 121.74 74.4947C121.808 74.5742 121.899 74.6083 121.99 74.6083Z" fill="#FFB570"/>
<path d="M133.392 73.9267C133.483 73.9381 133.574 73.904 133.642 73.8472C133.79 73.7223 133.79 73.4838 133.653 73.3248C132.254 71.7575 130.581 71.9165 130.512 71.9278C130.308 71.9505 130.182 72.1323 130.217 72.3367C130.251 72.5411 130.444 72.6888 130.649 72.6661C130.717 72.6547 132.015 72.5525 133.13 73.8018C133.198 73.8813 133.289 73.9267 133.392 73.9267Z" fill="#FFB570"/>
<path d="M124.492 76.8342L125.903 76.2891C125.915 76.2891 125.323 77.527 124.492 76.8342Z" fill="#FFB570"/>
<path d="M115.466 86.5223L118.482 73.3022L113.008 77.7657V80.5597L115.466 86.5223Z" fill="#1A2E35"/>
<path d="M115.421 101.991L126.938 135.712C126.938 135.712 124.161 209.728 105.054 206.889L96.5646 203.482C96.5646 203.482 94.0269 190.159 107.33 155.621C107.33 155.621 109.276 138.892 104.292 120.856C99.3072 102.82 106.203 101.446 115.421 101.991Z" fill="#A78BEF"/>
<path opacity="0.2" d="M123.856 135.178C122.832 135.246 121.899 135.814 121.364 136.688L118.849 140.777C118.644 141.106 118.485 141.447 118.359 141.811C116.755 141.856 115.162 141.879 113.58 141.879L113.455 141.163C111.042 141.095 109.13 141.004 107.628 140.902C107.594 142.094 107.537 143.207 107.469 144.275C107.56 146.319 107.594 148.193 107.594 149.863C111.611 149.613 114.832 148.739 114.832 148.739L114.752 148.284C116.368 148 117.961 147.671 119.543 147.273C122.65 147.069 125.802 145.479 127.372 144.57C127.68 140.118 127.782 137.358 127.782 137.358L126.974 134.996C126.849 134.985 126.724 134.973 126.599 134.985L123.856 135.178Z" fill="black"/>
<path opacity="0.2" d="M108.343 104.478C106.545 103.808 105.168 104.365 103.791 105.489C102.209 108.226 102.107 112.94 104.292 120.845C104.827 122.787 105.282 124.695 105.657 126.591C111.439 115.949 116.685 107.602 108.343 104.478Z" fill="black"/>
<path d="M109.904 114.303C107.605 117.994 105.307 121.946 103.315 125.83C102.314 127.784 101.437 129.76 100.675 131.68C99.924 133.565 99.3777 135.586 99.3094 136.881C99.2412 137.506 99.4574 137.79 99.1274 137.392C98.8884 137.256 99.4232 137.744 100.163 138.006C101.699 138.608 103.85 139.005 105.967 139.278C110.268 139.834 114.877 139.948 119.372 140.061H119.452C120.749 140.095 121.774 141.163 121.739 142.458C121.717 143.548 120.943 144.445 119.93 144.684C115.219 145.774 110.553 146.422 105.591 146.546C103.099 146.558 100.584 146.501 97.6935 145.74C96.2482 145.297 94.5754 144.831 92.7659 142.957C91.81 141.913 91.3207 140.777 91.0248 139.766C90.7289 138.744 90.6379 137.824 90.6037 136.972C90.5582 135.28 90.7744 133.837 91.0476 132.497C91.3321 131.146 91.6962 129.885 92.0945 128.67C92.8797 126.228 93.8812 123.979 94.9168 121.764C96.9993 117.335 99.3208 113.258 102.029 109.169C103.463 107 106.376 106.409 108.55 107.84C110.678 109.237 111.293 112.077 109.961 114.223L109.904 114.303Z" fill="#FFB570"/>
<path d="M127.404 133.803L124.672 133.826C123.648 133.837 122.681 134.337 122.089 135.178L119.324 139.107C118.22 140.675 117.947 142.685 118.584 144.491L118.982 145.615C123.523 145.899 128.633 142.855 128.633 142.855L130.192 142.151C131.58 141.526 132.183 140.005 131.592 138.664L130.237 135.575C129.771 134.496 128.644 133.792 127.404 133.803Z" fill="#FFB570"/>
<path d="M111.143 147.387C111.143 147.387 87.9965 153.611 87.6665 142.14C87.3592 131.43 98.3068 100.174 111.143 102.798C122.398 105.092 105.317 118.289 99.9341 134.689C99.3196 136.541 100.492 138.505 102.426 138.823C104.111 139.096 106.603 139.425 110.256 139.755L111.143 147.387Z" fill="#A78BEF"/>
<path opacity="0.2" d="M147.478 121.106L144.781 116.699L140.707 119.788V128.954C143.609 134.383 147.637 140.459 152.565 143.378C149.083 141.515 147.478 121.106 147.478 121.106Z" fill="black"/>
<path d="M139.423 135.155C139.423 135.155 138.422 208.865 149.381 205.605L152.51 204.606C148.914 169.682 146.718 158.063 146.707 142.48C146.707 136.279 147.913 124.695 147.765 117.676C147.651 112.338 147.15 101.366 130.945 101.9C130.945 101.9 136.863 104.319 139.423 135.155Z" fill="#A78BEF"/>
<path d="M111.383 81.7748L110.132 83.4671C110.132 83.4671 104.089 70.5536 113.079 64.0231C123.97 56.1069 131.856 68.2821 131.856 68.2821L120.544 72.3708L116.675 75.1648L112.476 79.3443L111.383 81.7748Z" fill="#007CFF"/>
<path d="M111.383 81.7748L110.132 83.4671C110.132 83.4671 104.089 70.5536 113.079 64.0231C123.97 56.1069 131.856 68.2821 131.856 68.2821L120.544 72.3708L116.675 75.1648L112.476 79.3443L111.383 81.7748Z" fill="#A78BEF"/>
<path d="M113.136 75.8236C112.157 77.0615 110.154 76.3687 110.2 74.79C110.268 72.0302 110.951 68.6457 113.477 66.4537C117.95 62.5694 120.886 64.6137 122.377 66.4764C123.048 67.3282 122.684 68.5775 121.671 68.9864C119.725 69.7814 116.482 71.6327 113.136 75.8236Z" fill="#7F63E5"/>
<path d="M111.384 81.7748C111.384 81.7748 119.27 67.8165 132.619 72.3822C132.619 72.3822 139.834 67.6234 135.145 66.6921C126.656 64.9998 118.485 73.3135 118.485 73.3135C118.485 73.3135 110.689 78.6175 111.384 81.7748Z" fill="#7F63E5"/>
<path d="M128.784 93.0754C119.497 95.2902 114.399 85.7385 113.011 77.7656C112.874 76.9933 111.691 77.3226 111.827 78.0949C113.011 84.9435 116.721 93.1777 123.298 94.268C124.527 94.4724 126.36 94.1203 128.784 93.0754Z" fill="#7F63E5"/>
<path opacity="0.3" d="M114.149 103.377L114.047 113.383L117.427 114.393L114.445 117.574L122.798 127.318L115.913 117.574L118.883 113.871L115.06 112.667L114.149 103.377Z" fill="black"/>
<path opacity="0.3" d="M133.48 102.798L140.877 111.759L138.601 113.53L142.562 114.53L139.068 126.205L141.287 115.245L136.929 113.871L139.637 111.6L133.48 102.798Z" fill="black"/>
<path d="M524.084 255.942C521.902 253.807 519.086 251.226 515.754 252.149C512.618 253.017 511.421 256.435 510.858 259.29C510.138 262.966 509.575 266.673 508.989 270.373C508.402 274.111 507.847 277.85 507.307 281.588C507.002 283.7 506.705 285.812 506.408 287.924C506.259 288.98 506.11 290.036 505.97 291.091C505.829 292.132 505.649 293.164 505.594 294.212C505.578 294.548 506.102 294.595 506.173 294.275C506.58 292.515 506.744 290.677 507.002 288.894C507.26 287.095 507.526 285.296 507.784 283.497C508.308 279.923 508.848 276.356 509.387 272.782C509.927 269.207 510.482 265.641 511.053 262.074C511.538 259.047 511.765 255.293 514.448 253.291C515.918 252.196 517.795 252.18 519.461 252.821C521.229 253.494 522.637 254.761 524.013 256.013C524.06 256.052 524.123 255.989 524.084 255.942Z" fill="#1A2E35"/>
<path d="M521.104 253.76C521.104 253.76 516.646 252.157 514.448 255.41C512.25 258.664 514.878 266.931 535.159 271.593C535.159 271.593 534.627 262.739 530.278 253.259C525.93 243.78 518.186 247.37 521.104 253.76Z" fill="#3CAA18"/>
<path d="M533.997 270.24C533.715 269.669 533.324 269.129 532.98 268.597C532.643 268.073 532.299 267.557 531.955 267.033C531.697 266.642 531.431 266.259 531.165 265.875C531.181 265.782 531.189 265.68 531.204 265.586C531.228 265.414 531.251 265.234 531.275 265.062C531.322 264.679 531.376 264.303 531.439 263.92C531.494 263.545 531.556 263.161 531.627 262.786C531.697 262.403 531.736 261.949 531.893 261.589C531.916 261.527 531.814 261.503 531.807 261.574C531.783 261.8 531.689 262.027 531.627 262.246C531.58 262.418 531.533 262.59 531.494 262.763C531.392 263.146 531.298 263.537 531.212 263.92C531.134 264.28 531.064 264.64 531.001 264.999C530.97 265.172 530.946 265.344 530.923 265.523C530.563 265.007 530.195 264.499 529.812 263.998C528.733 262.583 527.599 261.214 526.418 259.884C526.425 259.869 526.433 259.861 526.433 259.845C526.535 257.718 526.488 255.606 526.957 253.51C526.973 253.455 526.887 253.424 526.871 253.479C526.425 255.442 525.987 257.507 526.113 259.54C525.69 259.071 525.26 258.602 524.83 258.132C523.844 257.069 522.835 256.028 521.811 255.004C521.772 254.965 521.701 255.019 521.74 255.066C523.453 256.904 525.072 258.821 526.652 260.776C525.424 260.737 524.173 260.823 522.945 260.917C521.568 261.018 520.2 261.198 518.839 261.386C518.784 261.394 518.8 261.488 518.854 261.472C520.215 261.269 521.584 261.159 522.953 261.104C524.275 261.05 525.589 261.112 526.91 261.104C527.763 262.16 528.608 263.232 529.445 264.303C529.382 264.303 529.319 264.303 529.257 264.303C528.944 264.296 528.631 264.296 528.326 264.296C527.708 264.303 527.09 264.35 526.48 264.405C525.221 264.515 523.97 264.687 522.734 264.968C522.679 264.984 522.695 265.062 522.749 265.054C523.993 264.913 525.244 264.796 526.496 264.749C527.09 264.726 527.693 264.726 528.287 264.726C528.6 264.726 528.905 264.726 529.218 264.726C529.405 264.726 529.57 264.749 529.726 264.679C530.274 265.39 530.821 266.094 531.361 266.806C531.791 267.369 532.213 267.94 532.636 268.519C533.058 269.106 533.449 269.755 533.918 270.302C533.957 270.334 534.02 270.287 533.997 270.24Z" fill="#1A2E35"/>
<path d="M523.043 258.367C522.331 258.249 521.596 258.265 520.877 258.265C520.149 258.265 519.43 258.289 518.702 258.312C518.64 258.312 518.64 258.406 518.71 258.406C519.445 258.351 520.18 258.343 520.916 258.351C521.627 258.359 522.339 258.429 523.043 258.414C523.059 258.406 523.067 258.375 523.043 258.367Z" fill="#1A2E35"/>
<path d="M529.411 260.002C529.497 259.305 529.583 258.609 529.732 257.929C529.748 257.866 529.654 257.843 529.646 257.913C529.544 258.594 529.411 259.274 529.31 259.955C529.263 260.299 529.216 260.635 529.169 260.979C529.13 261.292 529.059 261.628 529.083 261.949C529.091 262.012 529.184 262.012 529.2 261.957C529.286 261.652 529.278 261.308 529.302 260.995C529.333 260.666 529.372 260.33 529.411 260.002Z" fill="#1A2E35"/>
<path d="M528.072 252.329C527.892 253.001 527.72 253.682 527.595 254.37C527.532 254.714 527.477 255.066 527.43 255.418C527.383 255.755 527.321 256.107 527.36 256.443C527.36 256.466 527.407 256.474 527.415 256.443C527.516 256.13 527.532 255.794 527.579 255.465C527.626 255.129 527.673 254.793 527.735 254.456C527.861 253.752 527.986 253.048 528.166 252.352C528.173 252.305 528.087 252.274 528.072 252.329Z" fill="#1A2E35"/>
<path d="M501.663 293.461C501.554 292.186 501.428 290.911 501.295 289.637C501.03 287.11 500.717 284.592 500.38 282.073C500.044 279.563 499.723 277.044 499.317 274.549C499.129 273.399 498.941 272.226 498.542 271.131C498.198 270.185 497.635 269.332 496.65 268.996C494.264 268.175 492.653 270.646 491.691 272.398C491.66 272.453 491.738 272.492 491.769 272.445C492.348 271.616 493.943 269.285 495.75 269.395C496.97 269.465 497.94 270.333 498.527 273.368C499.981 280.939 501.295 296.293 501.452 297.294C501.53 297.826 501.906 297.802 501.913 297.231C501.921 295.972 501.773 294.713 501.663 293.461Z" fill="#1A2E35"/>
<path d="M492.328 271.452C492.328 271.452 494.417 264.084 489.802 267.768C482.129 273.9 481.855 287.235 481.855 287.235C481.855 287.235 495.496 279.312 497.193 274.088C499.727 266.298 492.328 271.452 492.328 271.452Z" fill="#3CAA18"/>
<path d="M494.911 275.065C493.84 275.284 492.753 275.425 491.673 275.582C491.165 275.652 490.649 275.73 490.14 275.801C489.796 275.847 489.444 275.879 489.1 275.926C490.117 274.526 491.141 273.133 492.119 271.702C492.158 271.647 492.072 271.593 492.025 271.632C491.212 272.453 490.469 273.345 489.749 274.26C489.546 273.689 489.342 273.118 489.147 272.547C488.912 271.89 488.662 271.233 488.498 270.552C488.482 270.498 488.396 270.521 488.412 270.576C488.599 271.249 488.732 271.937 488.912 272.617C489.084 273.274 489.288 273.916 489.514 274.549C489.014 275.198 488.537 275.863 488.067 276.536C487.833 275.871 487.543 275.23 487.332 274.549C487.317 274.494 487.223 274.518 487.246 274.573C487.489 275.323 487.622 276.098 487.848 276.849C487.536 277.302 487.223 277.764 486.926 278.225C486.378 279.078 485.854 279.946 485.346 280.814C485.267 280.861 485.213 280.924 485.228 281.017C484.368 282.511 483.547 284.021 482.741 285.546C482.71 285.601 482.796 285.64 482.819 285.593C483.633 284.083 484.532 282.621 485.471 281.174H485.479C485.58 281.119 485.799 281.111 485.924 281.088C486.081 281.056 486.237 281.017 486.394 280.986C486.746 280.908 487.098 280.822 487.45 280.728C488.138 280.556 488.826 280.392 489.53 280.274C489.585 280.267 489.561 280.173 489.507 280.188C488.678 280.345 487.848 280.439 487.019 280.532C486.628 280.579 486.229 280.626 485.838 280.689C485.823 280.689 485.799 280.697 485.784 280.697C486.276 279.954 486.769 279.211 487.278 278.483C487.77 277.764 488.279 277.052 488.795 276.348C489.264 276.285 489.733 276.16 490.203 276.066C490.735 275.965 491.259 275.863 491.783 275.761C492.839 275.55 493.887 275.316 494.95 275.144C494.997 275.144 494.974 275.058 494.911 275.065Z" fill="#1A2E35"/>
<path d="M486.713 275.793C486.651 275.597 486.588 275.402 486.526 275.206C486.393 274.799 486.299 274.393 486.213 273.97C486.205 273.916 486.111 273.939 486.127 273.994C486.213 274.408 486.314 274.823 486.408 275.237C486.502 275.644 486.604 276.074 486.76 276.465C486.799 276.559 486.948 276.52 486.917 276.418C486.862 276.207 486.784 276.004 486.713 275.793Z" fill="#1A2E35"/>
<path d="M496.313 273.36C495.687 273.454 495.061 273.501 494.436 273.556C493.802 273.611 493.184 273.697 492.559 273.791C492.527 273.798 492.527 273.845 492.559 273.845C493.184 273.798 493.81 273.751 494.436 273.673C495.061 273.595 495.679 273.501 496.313 273.454C496.375 273.446 496.368 273.353 496.313 273.36Z" fill="#1A2E35"/>
<path d="M511.703 284.138C511.46 278.718 511.116 273.305 510.569 267.901C510.295 265.21 509.99 262.52 509.614 259.845C509.247 257.225 508.793 254.597 508.058 252.047C507.503 250.091 506.768 248.136 505.461 246.548C504.179 244.984 502.278 244.006 500.221 244.257C497.851 244.554 495.935 246.048 494.285 247.667C492.431 249.489 490.734 251.476 489.013 253.431C488.575 253.924 488.145 254.425 487.722 254.917C487.683 254.964 487.754 255.027 487.785 254.98C489.467 253.048 491.211 251.179 493.033 249.388C494.723 247.729 496.459 245.923 498.798 245.234C499.877 244.914 501.05 244.828 502.145 245.156C503.029 245.422 503.795 245.946 504.429 246.603C505.743 247.972 506.486 249.826 507.01 251.617C508.465 256.599 508.989 261.824 509.528 266.978C510.076 272.21 510.451 277.451 510.709 282.699C510.975 287.978 511.179 293.265 511.687 298.529C511.75 299.178 511.836 299.828 511.914 300.477C511.969 300.915 512.649 300.915 512.61 300.461C512.196 295.033 511.945 289.589 511.703 284.138Z" fill="#1A2E35"/>
<path d="M493.988 248.269C493.988 248.269 497.085 242.536 493.424 240.698C489.764 238.86 477.524 252.532 473.941 272.516C473.941 272.516 493.722 263.764 500.432 255.043C507.159 246.33 499.541 244.406 493.988 248.269Z" fill="#3CAA18"/>
<path d="M496.894 252.931C494.673 252.939 492.452 252.759 490.23 252.782C490.645 252.305 491.06 251.828 491.482 251.351C492.061 250.694 492.725 250.06 493.218 249.333C493.25 249.286 493.179 249.224 493.14 249.255C492.522 249.74 491.998 250.373 491.458 250.944C490.903 251.539 490.348 252.133 489.792 252.728C488.94 253.65 488.111 254.581 487.282 255.52C487.282 255.426 487.282 255.34 487.282 255.254C487.282 254.863 487.282 254.472 487.282 254.088C487.29 253.338 487.297 252.579 487.305 251.828C487.321 250.303 487.313 248.762 487.423 247.237C487.43 247.174 487.337 247.182 487.329 247.237C487.219 248.77 487.063 250.295 486.992 251.828C486.953 252.579 486.938 253.338 486.93 254.088C486.922 254.48 486.922 254.871 486.922 255.254C486.922 255.465 486.914 255.692 486.93 255.911C486.797 256.059 486.664 256.2 486.539 256.349C484.763 258.375 483.082 260.471 481.439 262.606C481.439 262.489 481.424 262.371 481.408 262.254C481.385 262.019 481.353 261.785 481.33 261.55C481.275 261.042 481.205 260.533 481.126 260.025C481.056 259.548 480.978 259.071 480.9 258.594C480.806 258.062 480.681 257.514 480.641 256.975C480.634 256.912 480.54 256.92 480.555 256.99C480.673 257.522 480.688 258.077 480.743 258.617C480.79 259.102 480.837 259.595 480.876 260.087C480.923 260.58 480.962 261.065 481.017 261.558C481.04 261.792 481.064 262.027 481.087 262.262C481.103 262.379 481.111 262.496 481.134 262.614C481.158 262.77 481.181 262.786 481.228 262.895C480.947 263.263 480.665 263.631 480.383 263.998C479.265 265.484 478.162 266.986 477.059 268.48C477.028 268.527 477.091 268.589 477.122 268.542C478.162 267.181 479.241 265.844 480.329 264.522C481.142 264.553 481.971 264.499 482.785 264.483C483.645 264.467 484.497 264.467 485.358 264.46C485.42 264.46 485.413 264.366 485.358 264.366C484.497 264.381 483.645 264.397 482.785 264.397C482.002 264.397 481.205 264.358 480.422 264.405C481.377 263.239 482.347 262.09 483.316 260.932C483.668 260.51 484.028 260.095 484.38 259.673C484.701 259.743 485.045 259.704 485.373 259.704C485.764 259.704 486.156 259.704 486.547 259.704C487.274 259.704 488.009 259.689 488.737 259.673C490.246 259.649 491.756 259.603 493.265 259.595C493.328 259.595 493.32 259.501 493.265 259.501C491.756 259.485 490.238 259.415 488.729 259.376C488.001 259.36 487.266 259.337 486.531 259.321C486.14 259.313 485.749 259.313 485.358 259.305C485.139 259.305 484.904 259.29 484.685 259.297C485.514 258.312 486.343 257.326 487.18 256.341C487.204 256.325 487.219 256.31 487.227 256.286C488.041 255.332 488.846 254.378 489.667 253.424C489.777 253.291 489.894 253.166 490.004 253.033C492.311 253.103 494.61 252.954 496.91 253.001C496.957 253.025 496.957 252.931 496.894 252.931Z" fill="#1A2E35"/>
<path d="M495.764 256.857C495.584 256.857 495.405 256.857 495.225 256.865C495.17 256.865 495.17 256.943 495.225 256.951C495.405 256.951 495.584 256.951 495.764 256.959C495.827 256.951 495.819 256.857 495.764 256.857Z" fill="#1A2E35"/>
<path d="M494.567 256.865C493.856 256.857 493.144 256.841 492.432 256.818C492.072 256.81 491.72 256.795 491.361 256.787C491.04 256.779 490.68 256.724 490.367 256.795C490.336 256.802 490.336 256.849 490.367 256.857C490.672 256.951 491.04 256.92 491.361 256.927C491.713 256.935 492.072 256.935 492.424 256.943C493.136 256.951 493.848 256.951 494.559 256.951C494.63 256.959 494.622 256.865 494.567 256.865Z" fill="#1A2E35"/>
<path d="M488.348 263.544C486.901 263.341 485.438 263.138 483.976 263.153C483.952 263.153 483.96 263.184 483.976 263.184C485.431 263.325 486.885 263.403 488.324 263.638C488.379 263.638 488.403 263.552 488.348 263.544Z" fill="#1A2E35"/>
<path d="M482.403 257.178C482.388 257.052 482.372 256.92 482.357 256.794C482.317 256.505 482.27 256.223 482.231 255.934C482.145 255.394 482.052 254.847 481.95 254.307C481.942 254.26 481.856 254.268 481.864 254.323C481.934 254.878 481.989 255.441 482.044 256.004C482.067 256.278 482.091 256.552 482.114 256.833C482.138 257.084 482.114 257.389 482.224 257.616C482.263 257.702 482.396 257.663 482.419 257.584C482.45 257.451 482.419 257.318 482.403 257.178Z" fill="#1A2E35"/>
<path d="M511.509 240.909C510.797 239.595 509.898 237.851 508.13 237.961C506.668 238.055 506.011 239.541 505.706 240.769C504.744 244.578 504.673 248.59 504.486 252.493C504.087 260.737 503.735 268.988 503.68 277.247C503.664 279.539 503.672 281.823 503.696 284.115C503.719 286.445 503.711 288.792 503.86 291.123C503.876 291.342 504.204 291.334 504.204 291.115C504.22 289.12 504.149 287.118 504.141 285.124C504.134 283.176 504.149 281.229 504.181 279.281C504.243 275.339 504.353 271.389 504.493 267.447C504.642 263.529 504.814 259.61 504.978 255.692C505.064 253.736 505.143 251.773 505.229 249.818C505.315 247.917 505.393 246.025 505.612 244.132C505.737 243.076 505.893 242.02 506.112 240.98C506.269 240.237 506.496 239.439 507.028 238.868C507.724 238.117 508.78 238.172 509.609 238.68C510.469 239.212 510.985 240.088 511.439 240.964C511.462 241.011 511.54 240.964 511.509 240.909Z" fill="#1A2E35"/>
<path d="M511.033 240.284C511.033 240.284 509.578 235.153 512.793 237.718C518.143 241.989 518.33 251.281 518.33 251.281C518.33 251.281 508.828 245.759 507.647 242.122C505.879 236.686 511.033 240.284 511.033 240.284Z" fill="#3CAA18"/>
<path d="M516.328 247.463C516.242 247.323 516.148 247.182 516.062 247.041C516.085 246.9 516.062 246.744 516.062 246.603C516.062 246.384 516.062 246.165 516.062 245.938C516.07 245.508 516.085 245.07 516.109 244.64C516.109 244.577 516.023 244.585 516.015 244.64C515.992 245.062 515.976 245.493 515.96 245.915C515.952 246.126 515.945 246.337 515.937 246.556C515.937 246.642 515.921 246.736 515.921 246.83C515.546 246.251 515.162 245.68 514.771 245.117C514.654 244.953 514.537 244.796 514.419 244.632C514.333 244.085 514.38 243.506 514.388 242.958C514.396 242.364 514.404 241.77 514.427 241.167C514.427 241.105 514.341 241.113 514.333 241.167C514.318 241.785 514.286 242.403 514.255 243.029C514.232 243.467 514.193 243.913 514.216 244.358C513.301 243.107 512.323 241.91 511.338 240.714C511.307 240.675 511.236 240.729 511.267 240.768C511.877 241.543 512.464 242.333 513.035 243.138C511.917 242.88 510.782 242.724 509.641 242.559C509.586 242.552 509.562 242.638 509.617 242.646C510.822 242.825 512.003 243.13 513.191 243.389C513.199 243.389 513.207 243.381 513.215 243.381C513.669 244.022 514.122 244.663 514.568 245.313C514.748 245.579 514.928 245.844 515.108 246.11C515.092 246.11 515.076 246.103 515.053 246.103C514.928 246.087 514.81 246.063 514.685 246.056C514.419 246.024 514.161 246.001 513.895 245.985C513.348 245.938 512.8 245.915 512.253 245.884C512.198 245.884 512.198 245.977 512.253 245.977C512.793 245.993 513.332 246.032 513.864 246.087C514.146 246.118 514.427 246.157 514.717 246.189C514.842 246.204 514.967 246.22 515.084 246.236C515.123 246.243 515.155 246.243 515.194 246.251C515.499 246.697 515.804 247.151 516.109 247.596C516.648 248.386 517.126 249.239 517.697 250.005C517.728 250.052 517.79 250.013 517.767 249.959C517.376 249.098 516.828 248.277 516.328 247.463Z" fill="#1A2E35"/>
<path d="M513.956 241.668C513.956 241.465 513.964 241.269 513.956 241.066C513.956 240.651 513.949 240.221 514.003 239.807C514.011 239.744 513.909 239.728 513.909 239.799C513.909 240.213 513.862 240.628 513.847 241.042C513.839 241.254 513.839 241.457 513.839 241.668C513.839 241.762 513.839 241.864 513.839 241.957C513.839 242.051 513.823 242.161 513.862 242.255C513.878 242.294 513.933 242.294 513.941 242.255C513.972 242.169 513.956 242.067 513.956 241.981C513.964 241.879 513.956 241.778 513.956 241.668Z" fill="#1A2E35"/>
<path d="M512.783 243.795C512.431 243.733 512.072 243.717 511.712 243.686C511.321 243.655 510.93 243.616 510.539 243.569C510.476 243.561 510.46 243.655 510.531 243.662C511.282 243.709 512.025 243.842 512.775 243.874C512.815 243.866 512.822 243.803 512.783 243.795Z" fill="#1A2E35"/>
<path d="M515.77 243.827C515.801 243.866 515.778 243.975 515.778 244.022V244.187C515.778 244.304 515.778 244.429 515.778 244.546C515.778 244.664 515.778 244.789 515.778 244.906C515.778 245 515.754 245.133 515.793 245.219C515.801 245.235 515.825 245.235 515.832 245.219C515.856 245.172 515.848 245.125 515.848 245.07C515.848 245.016 515.848 244.961 515.848 244.906C515.848 244.789 515.848 244.664 515.848 244.546C515.848 244.429 515.848 244.304 515.848 244.187V244.022C515.848 243.975 515.832 243.866 515.856 243.827C515.911 243.741 515.707 243.741 515.77 243.827Z" fill="#1A2E35"/>
<path d="M511.726 268.284C509.723 266.782 507.932 264.624 505.242 264.522C503.02 264.436 501.464 266.102 500.58 267.963C500.111 268.941 499.79 269.989 499.493 271.029C499.094 272.437 498.711 273.845 498.359 275.261C497.663 278.045 497.06 280.861 496.576 283.692C496.302 285.272 496.052 286.852 495.856 288.448C495.653 290.051 495.395 291.693 495.387 293.312C495.387 293.594 495.825 293.649 495.879 293.367C496.153 292.038 496.263 290.669 496.458 289.324C496.654 287.97 496.857 286.625 497.092 285.28C497.545 282.589 498.077 279.907 498.687 277.24C499.258 274.729 499.821 272.171 500.635 269.723C501.214 267.971 502.152 265.922 504.045 265.288C506.931 264.326 509.551 266.767 511.663 268.354C511.71 268.386 511.772 268.315 511.726 268.284Z" fill="#1A2E35"/>
<path d="M509.657 266.845C509.657 266.845 507.811 261.581 510.478 260.549C514.475 259 524.924 270.779 522.875 288.815C522.875 288.815 514.796 284.365 508.836 279.359C502.876 274.354 501.343 267.815 503.971 266.126C506.607 264.444 509.657 266.845 509.657 266.845Z" fill="#3CAA18"/>
<path d="M521.67 284.952C521.435 284.318 521.029 283.724 520.7 283.129C520.356 282.511 520.012 281.893 519.66 281.291C518.964 280.102 518.275 278.914 517.564 277.74C517.446 277.553 517.329 277.365 517.212 277.169C517.227 277.099 517.243 277.029 517.259 276.958C517.298 276.786 517.337 276.614 517.376 276.434C517.462 276.043 517.532 275.644 517.603 275.253C517.744 274.479 517.884 273.697 518.088 272.938C518.103 272.883 518.01 272.868 517.994 272.922C517.83 273.697 517.587 274.455 517.36 275.206C517.251 275.582 517.126 275.949 517.032 276.325C517.001 276.45 516.961 276.583 516.93 276.708C516.07 275.3 515.202 273.9 514.255 272.547C514.334 272.367 514.326 272.172 514.349 271.968C514.38 271.702 514.412 271.444 514.443 271.178C514.513 270.584 514.584 269.989 514.67 269.403C514.842 268.237 515.014 267.088 515.303 265.946C515.319 265.891 515.225 265.875 515.21 265.93C514.92 267.064 514.607 268.198 514.396 269.356C514.287 269.919 514.193 270.49 514.114 271.053C514.075 271.335 514.044 271.624 514.021 271.913C514.013 271.999 513.997 272.085 513.989 272.172C513.7 271.765 513.411 271.35 513.106 270.951C512.183 269.739 511.228 268.55 510.266 267.369C510.227 267.322 510.157 267.377 510.188 267.424C511.885 269.497 513.317 271.788 514.732 274.056C514.998 274.479 515.256 274.909 515.515 275.331C515.428 275.324 515.342 275.308 515.256 275.3C514.92 275.261 514.576 275.237 514.24 275.206C513.559 275.144 512.879 275.081 512.198 275.026C510.837 274.917 509.476 274.831 508.116 274.69C508.061 274.682 508.037 274.776 508.1 274.784C509.476 274.94 510.845 275.159 512.214 275.355C512.887 275.449 513.559 275.543 514.24 275.629C514.709 275.691 515.288 275.824 515.796 275.785C516.328 276.653 516.868 277.521 517.399 278.39C517.282 278.374 517.157 278.382 517.04 278.374C516.813 278.374 516.586 278.374 516.359 278.374C515.937 278.374 515.515 278.374 515.092 278.374C514.216 278.374 513.34 278.39 512.464 278.39C512.402 278.39 512.417 278.483 512.472 278.483C513.364 278.491 514.247 278.538 515.131 278.585C515.554 278.609 515.976 278.632 516.391 278.663C516.602 278.679 516.813 278.695 517.024 278.71C517.212 278.718 517.407 278.757 517.579 278.687C518.033 279.43 518.494 280.165 518.94 280.9C519.355 281.581 519.777 282.261 520.215 282.934C520.653 283.614 521.052 284.389 521.584 284.991C521.615 285.045 521.693 285.014 521.67 284.952Z" fill="#1A2E35"/>
<path d="M517.821 270.373C517.758 270.951 517.602 271.522 517.461 272.085C517.312 272.672 517.14 273.251 516.952 273.822C516.929 273.9 517.039 273.939 517.062 273.853C517.242 273.282 517.398 272.711 517.539 272.132C517.68 271.554 517.766 270.959 517.915 270.38C517.922 270.334 517.828 270.318 517.821 270.373Z" fill="#1A2E35"/>
<path d="M511.895 273.9C511.77 273.775 511.629 273.759 511.457 273.736C511.207 273.697 510.949 273.665 510.699 273.634C510.229 273.572 509.752 273.517 509.275 273.462C508.29 273.345 507.304 273.251 506.319 273.126C506.264 273.118 506.24 273.212 506.303 273.22C507.234 273.329 508.157 273.47 509.08 273.595C509.533 273.658 509.987 273.72 510.441 273.775C510.66 273.798 510.878 273.822 511.097 273.845C511.34 273.869 511.622 273.869 511.848 273.97C511.895 273.986 511.927 273.931 511.895 273.9Z" fill="#1A2E35"/>
<path d="M517.803 281.831C517.342 281.792 516.872 281.776 516.403 281.76C516.169 281.752 515.934 281.745 515.699 281.737C515.59 281.737 515.472 281.729 515.363 281.729C515.222 281.721 515.058 281.737 514.925 281.706C514.862 281.69 514.855 281.807 514.925 281.799C515.058 281.776 515.206 281.807 515.339 281.815C515.465 281.823 515.582 281.831 515.707 281.839C515.942 281.854 516.176 281.87 516.411 281.878C516.872 281.909 517.342 281.932 517.811 281.932C517.858 281.932 517.866 281.839 517.803 281.831Z" fill="#1A2E35"/>
<path d="M520.652 279.813C520.707 279.547 520.754 279.281 520.801 279.023C520.895 278.507 520.988 277.983 521.09 277.467C521.098 277.412 521.012 277.396 520.996 277.451C520.879 277.959 520.769 278.468 520.652 278.968C520.597 279.219 520.535 279.477 520.488 279.727C520.464 279.844 520.441 279.962 520.417 280.079C520.394 280.204 520.355 280.329 520.378 280.454C520.386 280.494 520.449 280.533 520.48 280.486C520.605 280.298 520.613 280.032 520.652 279.813Z" fill="#1A2E35"/>
<path d="M515.843 295.362L515.39 302.816L514.068 324.825H493.904L492.575 302.816L492.129 295.362H515.843Z" fill="#E31E23"/>
<path d="M515.843 295.362L515.39 302.816H492.575L492.129 295.362H515.843Z" fill="#1A2E35"/>
<path d="M517.922 290.083H490.047V297.544H517.922V290.083Z" fill="#E31E23"/>
</g>
</g>
<defs>
<clipPath id="clip0_1086_8409">
<rect width="542.64" height="328.79" fill="white"/>
</clipPath>
<clipPath id="clip1_1086_8409">
<rect width="569" height="314" fill="white" transform="translate(-13 15.47)"/>
</clipPath>
</defs>
</svg>
