<svg width="35" height="41" viewBox="0 0 35 41" fill="none" xmlns="http://www.w3.org/2000/svg">
<path fill-rule="evenodd" clip-rule="evenodd" d="M23.2645 38.677H1.08817C0.847411 38.677 0.660156 38.4898 0.660156 38.249V1.32413C0.660156 1.08337 0.847411 0.896118 1.08817 0.896118H30.8171C31.0579 0.896118 31.2451 1.09229 31.2451 1.32413V26.3806C31.2451 26.6214 31.0489 26.8086 30.8171 26.8086C30.5853 26.8086 30.3891 26.6125 30.3891 26.3806V1.75214H1.51618V37.821H23.2645C23.5052 37.821 23.6925 38.0172 23.6925 38.249C23.6925 38.4808 23.4963 38.677 23.2645 38.677Z" fill="#DAA7EE"/>
<path fill-rule="evenodd" clip-rule="evenodd" d="M4.6012 4.56086C4.44961 4.56086 4.32477 4.68569 4.32477 4.83728V14.7885C4.32477 14.9401 4.44961 15.065 4.6012 15.065H14.5525C14.704 15.065 14.8289 14.9401 14.8289 14.7885V4.83728C14.8289 4.68569 14.704 4.56086 14.5525 4.56086H4.6012ZM14.5525 15.921H4.6012C3.97701 15.921 3.46875 15.4127 3.46875 14.7885V4.83728C3.46875 4.2131 3.97701 3.70483 4.6012 3.70483H14.5525C15.1766 3.70483 15.6849 4.2131 15.6849 4.83728V14.7885C15.676 15.4127 15.1766 15.921 14.5525 15.921Z" fill="#DAA7EE"/>
<path fill-rule="evenodd" clip-rule="evenodd" d="M13.1608 14.3428H5.9827C5.74194 14.3428 5.55469 14.1467 5.55469 13.9148V12.9161C5.55469 11.6054 6.58905 10.5353 7.882 10.4818V9.37613C7.882 9.14429 8.06925 8.94812 8.31001 8.94812C8.55077 8.94812 8.73802 9.13538 8.73802 9.37613V10.9009C8.73802 11.1417 8.54185 11.3289 8.31001 11.3289H7.989C7.11514 11.3289 6.41071 12.0423 6.41071 12.9072V13.4779H12.7328V12.9072C12.7328 12.0334 12.0194 11.3289 11.1545 11.3289H10.8335C10.5927 11.3289 10.4055 11.1417 10.4055 10.9009V9.37613C10.4055 9.14429 10.5927 8.94812 10.8335 8.94812C11.0653 8.94812 11.2615 9.13538 11.2615 9.37613V10.4729C12.5545 10.5353 13.5888 11.6054 13.5888 12.9072V13.9059C13.5888 14.1467 13.4016 14.3428 13.1608 14.3428Z" fill="#DAA7EE"/>
<path fill-rule="evenodd" clip-rule="evenodd" d="M9.30997 6.14814C8.72145 6.14814 8.23102 6.62966 8.23102 7.22709V8.26145C8.23102 8.85888 8.71253 9.34039 9.30997 9.34039H9.84498C10.4335 9.34039 10.9239 8.85888 10.9239 8.26145V7.21817C10.9239 6.62074 10.4424 6.13923 9.84498 6.13923C9.84498 6.14814 9.30997 6.14814 9.30997 6.14814ZM9.84498 10.1875H9.30997C8.24886 10.1875 7.375 9.32256 7.375 8.25253V7.21817C7.375 6.15706 8.23994 5.2832 9.30997 5.2832H9.84498C10.9061 5.2832 11.7799 6.14814 11.7799 7.21817V8.25253C11.771 9.32256 10.9061 10.1875 9.84498 10.1875Z" fill="#DAA7EE"/>
<path fill-rule="evenodd" clip-rule="evenodd" d="M9.57696 11.9352C9.05086 11.9352 8.52477 11.6945 8.02542 11.2219C7.856 11.0614 7.84708 10.7849 8.00759 10.6155C8.16809 10.4461 8.44451 10.4372 8.61393 10.5977C9.29162 11.2397 9.87122 11.2397 10.5489 10.5977C10.7183 10.4372 10.9947 10.4461 11.1553 10.6155C11.3158 10.7849 11.3068 11.0614 11.1374 11.2219C10.6292 11.6945 10.1031 11.9352 9.57696 11.9352Z" fill="#DAA7EE"/>
<path fill-rule="evenodd" clip-rule="evenodd" d="M28.0089 6.42463H17.7366C17.4958 6.42463 17.3086 6.23737 17.3086 5.99661C17.3086 5.75586 17.4958 5.5686 17.7366 5.5686H28C28.2407 5.5686 28.428 5.75586 28.428 5.99661C28.4369 6.22845 28.2407 6.42463 28.0089 6.42463Z" fill="#DAA7EE"/>
<path fill-rule="evenodd" clip-rule="evenodd" d="M28.0089 10.241H17.7366C17.4958 10.241 17.3086 10.0538 17.3086 9.81302C17.3086 9.58118 17.4958 9.38501 17.7366 9.38501H28C28.2407 9.38501 28.428 9.58118 28.428 9.81302C28.428 10.0449 28.2407 10.241 28.0089 10.241Z" fill="#DAA7EE"/>
<path fill-rule="evenodd" clip-rule="evenodd" d="M28.0089 14.0663H17.7366C17.4958 14.0663 17.3086 13.8791 17.3086 13.6383C17.3086 13.3976 17.4958 13.2103 17.7366 13.2103H28C28.2407 13.2103 28.428 13.4065 28.428 13.6383C28.4369 13.8702 28.2407 14.0663 28.0089 14.0663Z" fill="#DAA7EE"/>
<path fill-rule="evenodd" clip-rule="evenodd" d="M28.0081 19.9247H3.89676C3.65601 19.9247 3.46875 19.7375 3.46875 19.4967C3.46875 19.256 3.65601 19.0687 3.89676 19.0687H28.0081C28.2488 19.0687 28.4361 19.2649 28.4361 19.4967C28.4361 19.7375 28.2399 19.9247 28.0081 19.9247Z" fill="#DAA7EE"/>
<path fill-rule="evenodd" clip-rule="evenodd" d="M28.0081 23.7501H3.89676C3.65601 23.7501 3.46875 23.5628 3.46875 23.3221C3.46875 23.0813 3.65601 22.894 3.89676 22.894H28.0081C28.2488 22.894 28.4361 23.0813 28.4361 23.3221C28.4361 23.5539 28.2399 23.7501 28.0081 23.7501Z" fill="#DAA7EE"/>
<path fill-rule="evenodd" clip-rule="evenodd" d="M19.7778 27.5665H3.89676C3.65601 27.5665 3.46875 27.3792 3.46875 27.1385C3.46875 26.8977 3.65601 26.7104 3.89676 26.7104H19.7778C20.0185 26.7104 20.2058 26.9066 20.2058 27.1385C20.2058 27.3792 20.0096 27.5665 19.7778 27.5665Z" fill="#DAA7EE"/>
<path fill-rule="evenodd" clip-rule="evenodd" d="M4.81569 33.7103C4.79785 33.7103 4.7711 33.7103 4.75327 33.7103C4.52143 33.6747 4.36092 33.4607 4.38768 33.2288C4.59276 31.8378 4.94944 31.0888 5.46662 30.9907C5.80546 30.9283 6.09972 31.1244 6.34939 31.5792C6.59015 32.025 6.73282 32.1588 6.78632 32.1945C6.92007 32.1053 7.17866 31.7129 7.32134 31.49C7.43725 31.3117 7.63343 30.9996 7.98119 31.0709C8.31111 31.1333 8.37353 31.4543 8.4092 31.6684C8.48945 32.0964 8.59645 32.676 9.51489 32.774C10.2728 32.8543 10.683 32.5779 11.0753 32.3015C11.5925 31.9448 12.2435 31.4989 13.2778 32.453C13.4562 32.6135 13.4651 32.8811 13.3046 33.0594C13.1441 33.2377 12.8766 33.2466 12.6982 33.0861C12.1632 32.5957 12.0295 32.6849 11.5569 33.0148C11.111 33.3269 10.4958 33.746 9.42572 33.6301C8.36461 33.5142 7.92768 32.9256 7.73151 32.4174C7.45509 32.7919 7.16083 33.0772 6.75957 33.0594C6.24239 33.0416 5.8768 32.5065 5.60037 31.9804C5.60037 31.9804 5.60037 31.9715 5.59146 31.9715C5.46662 32.2569 5.31503 32.8186 5.23478 33.3447C5.20803 33.5587 5.02078 33.7103 4.81569 33.7103Z" fill="#DAA7EE"/>
<path fill-rule="evenodd" clip-rule="evenodd" d="M13.9015 35.8593H3.89676C3.65601 35.8593 3.46875 35.6721 3.46875 35.4313C3.46875 35.1906 3.65601 35.0033 3.89676 35.0033H13.9015C14.1423 35.0033 14.3295 35.1995 14.3295 35.4313C14.3295 35.6721 14.1423 35.8593 13.9015 35.8593Z" fill="#DAA7EE"/>
<path fill-rule="evenodd" clip-rule="evenodd" d="M27.5184 25.9882C23.8625 25.9882 20.8931 28.9575 20.8931 32.6135C20.8931 36.2694 23.8625 39.2387 27.5184 39.2387C31.1743 39.2387 34.1436 36.2605 34.1436 32.6135C34.1526 28.9665 31.1743 25.9882 27.5184 25.9882ZM27.5184 40.1037C23.3899 40.1037 20.0371 36.742 20.0371 32.6224C20.0371 28.4939 23.3988 25.1411 27.5184 25.1411C31.6469 25.1411 34.9997 28.5028 34.9997 32.6224C35.0086 36.7509 31.6469 40.1037 27.5184 40.1037Z" fill="#DAA7EE"/>
<path fill-rule="evenodd" clip-rule="evenodd" d="M25.4847 36.1268C25.3688 36.1268 25.2618 36.0822 25.1815 36.0019L23.0861 33.9065C22.9166 33.737 22.9166 33.4695 23.0861 33.3001C23.2555 33.1307 23.523 33.1307 23.6924 33.3001L25.4847 35.0924L31.3431 29.234C31.5125 29.0646 31.78 29.0646 31.9494 29.234C32.1189 29.4034 32.1189 29.6709 31.9494 29.8403L25.7879 36.0019C25.7076 36.0822 25.6006 36.1268 25.4847 36.1268Z" fill="#DAA7EE"/>
</svg>
