<svg width="533" height="331" viewBox="0 0 533 331" fill="none" xmlns="http://www.w3.org/2000/svg">
<path opacity="0.2" fill-rule="evenodd" clip-rule="evenodd" d="M0 7.5756C0 7.5756 496.166 -10.2363 522.25 8.76437C545.499 25.7019 520.61 239.759 514.929 286.131C514.801 287.134 513.992 287.91 512.938 288.028C382.355 302.136 78.1811 295.779 13.6451 294.227C12.5792 294.197 11.7008 293.49 11.49 292.498C2.02627 247.216 0 7.5756 0 7.5756Z" fill="#999999"/>
<g clip-path="url(#clip0_2186_13180)">
<path d="M371.096 88.3907V69.831H354.953C354.126 66.753 352.913 63.8312 351.351 61.1391L362.763 49.7276L349.642 36.6072L338.231 48.0095C335.53 46.4475 332.617 45.2347 329.539 44.4078V28.2737H310.979V44.417C307.901 45.2439 304.979 46.4567 302.287 48.0187L290.876 36.6072L277.755 49.7276L289.167 61.1391C287.605 63.8404 286.392 66.753 285.565 69.831H269.422V88.3907H285.565C286.392 91.4687 287.605 94.3905 289.167 97.0826L277.755 108.494L290.876 121.615L302.287 110.203C304.989 111.765 307.901 112.978 310.979 113.805V129.948H329.539V113.805C332.617 112.978 335.539 111.765 338.231 110.203L349.642 121.615L362.763 108.494L351.351 97.0826C352.913 94.3813 354.126 91.4687 354.953 88.3907H371.096ZM337.661 79.1109C337.661 88.7031 329.851 96.5129 320.259 96.5129C310.667 96.5129 302.857 88.7031 302.857 79.1109C302.857 69.5186 310.667 61.7088 320.259 61.7088C329.851 61.7088 337.661 69.5186 337.661 79.1109Z" fill="#E527BB"/>
<path d="M182.62 50.0642H118.682C114.796 50.0642 111.648 53.2208 111.648 57.1187V83.253C111.648 87.151 114.796 90.3075 118.682 90.3075H125.408C126.618 90.3075 127.592 91.2905 127.592 92.498V101.327C127.592 102.013 128.449 102.327 128.892 101.799L137.292 91.7398C138.054 90.8299 139.174 90.3019 140.355 90.3019H182.615C186.501 90.3019 189.648 87.1454 189.648 83.2474V57.1187C189.654 53.2208 186.501 50.0642 182.62 50.0642Z" fill="#E527BB"/>
<path d="M120.609 71.0972V80.9867" stroke="#B1DCE0" stroke-width="1.1525" stroke-miterlimit="10"/>
<path d="M128.078 67.7612V80.9867" stroke="#B1DCE0" stroke-width="1.1525" stroke-miterlimit="10"/>
<path d="M135.539 71.4741V80.9868" stroke="#B1DCE0" stroke-width="1.1525" stroke-miterlimit="10"/>
<path d="M143.008 69.0608V80.9868" stroke="#B1DCE0" stroke-width="1.1525" stroke-miterlimit="10"/>
<path d="M150.477 63.4241V80.9868" stroke="#B1DCE0" stroke-width="1.1525" stroke-miterlimit="10"/>
<path d="M157.938 61.2078V80.9869" stroke="#B1DCE0" stroke-width="1.1525" stroke-miterlimit="10"/>
<path d="M165.406 67.0525V80.9868" stroke="#B1DCE0" stroke-width="1.1525" stroke-miterlimit="10"/>
<path d="M172.875 63.9866V80.9867" stroke="#B1DCE0" stroke-width="1.1525" stroke-miterlimit="10"/>
<path d="M180.336 57.9111V80.9868" stroke="#B1DCE0" stroke-width="1.1525" stroke-miterlimit="10"/>
<path d="M116.539 80.9868H184.41" stroke="#B1DCE0" stroke-miterlimit="10"/>
<path d="M118.32 73.2574C118.32 73.2574 123.124 67.975 127.31 67.7444C131.495 67.5138 131.973 72.4979 138.054 71.3447C144.13 70.1859 150.009 61.7758 155.803 61.0445C161.597 60.3131 161.428 68.3069 167.391 66.9512C173.354 65.5955 176.465 58.9743 182.394 57.0054" stroke="white" stroke-miterlimit="10"/>
<path d="M181.501 57.9111C181.501 58.5524 180.983 59.0755 180.336 59.0755C179.689 59.0755 179.172 58.558 179.172 57.9111C179.172 57.2698 179.689 56.7466 180.336 56.7466C180.983 56.7466 181.501 57.2698 181.501 57.9111Z" fill="white"/>
<path d="M172.875 65.2635C173.519 65.2635 174.04 64.7422 174.04 64.099C174.04 63.4559 173.519 62.9346 172.875 62.9346C172.232 62.9346 171.711 63.4559 171.711 64.099C171.711 64.7422 172.232 65.2635 172.875 65.2635Z" fill="white"/>
<path d="M166.571 67.0524C166.571 67.6937 166.054 68.2169 165.407 68.2169C164.76 68.2169 164.242 67.6993 164.242 67.0524C164.242 66.4111 164.76 65.8879 165.407 65.8879C166.054 65.8879 166.571 66.4111 166.571 67.0524Z" fill="white"/>
<path d="M159.102 61.2077C159.102 61.849 158.585 62.3722 157.938 62.3722C157.297 62.3722 156.773 61.8546 156.773 61.2077C156.773 60.5664 157.291 60.0432 157.938 60.0432C158.585 60.0488 159.102 60.5664 159.102 61.2077Z" fill="white"/>
<path d="M151.641 63.424C151.641 64.0653 151.124 64.5885 150.477 64.5885C149.83 64.5885 149.312 64.0709 149.312 63.424C149.312 62.7827 149.83 62.2595 150.477 62.2595C151.124 62.2595 151.641 62.7827 151.641 63.424Z" fill="white"/>
<path d="M144.173 69.0607C144.173 69.702 143.655 70.2252 143.008 70.2252C142.367 70.2252 141.844 69.7076 141.844 69.0607C141.844 68.4194 142.361 67.8962 143.008 67.8962C143.655 67.8962 144.173 68.4138 144.173 69.0607Z" fill="white"/>
<path d="M136.704 71.474C136.704 72.1153 136.186 72.6385 135.539 72.6385C134.893 72.6385 134.375 72.121 134.375 71.474C134.375 70.8327 134.893 70.3096 135.539 70.3096C136.186 70.3096 136.704 70.8327 136.704 71.474Z" fill="white"/>
<path d="M129.243 67.8962C129.243 68.5375 128.725 69.0606 128.079 69.0606C127.437 69.0606 126.914 68.5431 126.914 67.8962C126.914 67.2549 127.432 66.7317 128.079 66.7317C128.72 66.7317 129.243 67.2549 129.243 67.8962Z" fill="white"/>
<path d="M121.774 71.0971C121.774 71.7384 121.257 72.2616 120.61 72.2616C119.968 72.2616 119.445 71.744 119.445 71.0971C119.445 70.4558 119.963 69.9326 120.61 69.9326C121.251 69.9382 121.774 70.4558 121.774 71.0971Z" fill="white"/>
<path d="M451.443 59.6874L412.964 74.6914C411.421 75.2887 411.053 77.3008 412.266 78.4126L419.644 85.1566L353.536 163.493L319.017 141.231C315.305 138.833 310.38 139.641 307.624 143.105L244.824 222.03L196.807 185.719C194.942 184.304 192.581 183.716 190.256 184.084C187.941 184.451 185.883 185.756 184.551 187.676L90.3828 323.603H111.304L193.582 204.839L241.139 240.81C244.861 243.622 250.153 242.96 253.056 239.304L316.233 159.91L350.559 182.053C354.198 184.396 359.003 183.679 361.796 180.372L432.342 96.7794L439.233 103.082C440.455 104.194 442.421 103.643 442.88 102.062L454.393 62.3979C454.907 60.6154 453.171 59.0167 451.443 59.6874Z" fill="#E527BB"/>
<path d="M385.15 180.124H255.361C248.782 180.124 243.453 174.795 243.453 168.216V90.2651C243.453 83.6865 248.782 78.3574 255.361 78.3574H385.15C391.729 78.3574 397.058 83.6865 397.058 90.2651V168.216C397.058 174.785 391.729 180.124 385.15 180.124Z" fill="#A78BEF"/>
<path d="M367.734 105.306L371.162 108.623L376.702 102.844" stroke="white" stroke-miterlimit="10" stroke-linecap="round" stroke-linejoin="round"/>
<path d="M334.309 109.707C335.851 109.707 337.102 108.456 337.102 106.914C337.102 105.371 335.851 104.121 334.309 104.121C332.766 104.121 331.516 105.371 331.516 106.914C331.516 108.456 332.766 109.707 334.309 109.707Z" stroke="white" stroke-miterlimit="10" stroke-linecap="round" stroke-linejoin="round"/>
<path d="M341.023 106.914H363.92" stroke="white" stroke-miterlimit="10" stroke-linecap="round" stroke-linejoin="round"/>
<path d="M367.734 120.613L371.162 123.93L376.702 118.151" stroke="white" stroke-miterlimit="10" stroke-linecap="round" stroke-linejoin="round"/>
<path d="M334.309 125.014C335.851 125.014 337.102 123.763 337.102 122.221C337.102 120.678 335.851 119.428 334.309 119.428C332.766 119.428 331.516 120.678 331.516 122.221C331.516 123.763 332.766 125.014 334.309 125.014Z" stroke="white" stroke-miterlimit="10" stroke-linecap="round" stroke-linejoin="round"/>
<path d="M341.023 122.221H363.92" stroke="white" stroke-miterlimit="10" stroke-linecap="round" stroke-linejoin="round"/>
<path d="M367.734 135.911L371.162 139.237L376.702 133.458" stroke="white" stroke-miterlimit="10" stroke-linecap="round" stroke-linejoin="round"/>
<path d="M334.309 140.321C335.851 140.321 337.102 139.071 337.102 137.528C337.102 135.986 335.851 134.735 334.309 134.735C332.766 134.735 331.516 135.986 331.516 137.528C331.516 139.071 332.766 140.321 334.309 140.321Z" stroke="white" stroke-miterlimit="10" stroke-linecap="round" stroke-linejoin="round"/>
<path d="M341.023 137.528H363.92" stroke="white" stroke-miterlimit="10" stroke-linecap="round" stroke-linejoin="round"/>
<path d="M367.734 151.218L371.162 154.544L376.702 148.765" stroke="white" stroke-miterlimit="10" stroke-linecap="round" stroke-linejoin="round"/>
<path d="M334.309 155.629C335.851 155.629 337.102 154.378 337.102 152.835C337.102 151.293 335.851 150.042 334.309 150.042C332.766 150.042 331.516 151.293 331.516 152.835C331.516 154.378 332.766 155.629 334.309 155.629Z" stroke="white" stroke-miterlimit="10" stroke-linecap="round" stroke-linejoin="round"/>
<path d="M341.023 152.835H363.92" stroke="white" stroke-miterlimit="10" stroke-linecap="round" stroke-linejoin="round"/>
<path d="M312.343 154.871C326.498 140.716 326.498 117.766 312.343 103.611C298.188 89.4562 275.238 89.4561 261.083 103.611C246.928 117.766 246.928 140.716 261.083 154.871C275.238 169.026 298.188 169.026 312.343 154.871Z" fill="#E527BB"/>
<path d="M307.157 149.687C318.449 138.395 318.449 120.087 307.157 108.796C295.865 97.5039 277.558 97.5039 266.266 108.796C254.974 120.087 254.974 138.395 266.266 149.687C277.558 160.978 295.865 160.978 307.157 149.687Z" fill="white"/>
<path d="M301.971 144.502C310.399 136.074 310.399 122.409 301.971 113.98C293.542 105.552 279.877 105.552 271.449 113.98C263.02 122.409 263.02 136.074 271.449 144.502C279.877 152.931 293.542 152.931 301.971 144.502Z" fill="#E527BB"/>
<path d="M292.211 142.385C299.465 139.346 302.882 131.001 299.843 123.747C296.804 116.493 288.459 113.076 281.205 116.115C273.951 119.154 270.534 127.499 273.573 134.753C276.612 142.007 284.957 145.424 292.211 142.385Z" fill="white"/>
<path d="M286.714 136.15C290.53 136.15 293.623 133.057 293.623 129.241C293.623 125.425 290.53 122.331 286.714 122.331C282.898 122.331 279.805 125.425 279.805 129.241C279.805 133.057 282.898 136.15 286.714 136.15Z" fill="#E527BB"/>
<path d="M246.582 129.241H243.054L240.242 122.276H243.77L246.582 129.241Z" fill="#E527BB"/>
<path d="M250.113 129.241H246.585L243.773 122.276H247.302L250.113 129.241Z" fill="#BC139C"/>
<path d="M253.637 129.241H250.108L247.297 122.276H250.825L253.637 129.241Z" fill="#E527BB"/>
<path d="M257.168 129.241H253.64L250.828 122.276H254.347L257.168 129.241Z" fill="#BC139C"/>
<path d="M246.582 129.241H243.054L240.242 136.196H243.77L246.582 129.241Z" fill="#E527BB"/>
<path d="M250.113 129.241H246.585L243.773 136.196H247.302L250.113 129.241Z" fill="#BC139C"/>
<path d="M253.637 129.241H250.108L247.297 136.196H250.825L253.637 129.241Z" fill="#E527BB"/>
<path d="M257.168 129.241H253.64L250.828 136.196H254.347L257.168 129.241Z" fill="#BC139C"/>
<path d="M241.453 129.241H286.713" stroke="#0E2033" stroke-width="0.9185" stroke-miterlimit="10" stroke-linecap="round" stroke-linejoin="round"/>
<path d="M254.016 206.098L263.966 194.484L264.472 191.498C264.802 189.569 265.547 187.731 266.667 186.123L268.064 184.111C268.239 183.854 268.579 183.771 268.854 183.909C269.112 184.038 269.249 184.332 269.185 184.617L268.294 188.356L268.9 188.025C270.719 187.042 272.042 185.342 272.566 183.339C272.75 182.623 273.513 182.219 274.211 182.467L275.589 182.963C276.251 183.202 276.646 183.872 276.535 184.571L275.653 189.992L278.033 187.41L278.465 187.915L276.048 191.544C275.644 192.151 275.139 192.684 274.551 193.115L269.672 196.717L261.743 214.312L254.016 206.098Z" fill="#FB6767"/>
<path d="M274.653 190.442L273.651 191.122C273.651 191.122 268.295 190.635 266.43 195.56" stroke="#491F1F" stroke-width="0.5" stroke-miterlimit="10"/>
<path d="M269.867 188.439L273.653 191.122" stroke="#491F1F" stroke-width="0.5" stroke-miterlimit="10"/>
<path d="M274.267 182.816C274.267 182.816 273.33 187.061 271.023 189.266" stroke="#491F1F" stroke-width="0.5" stroke-miterlimit="10"/>
<path d="M275.377 183.248C275.377 183.248 274.862 188.08 272.547 190.341" stroke="#491F1F" stroke-width="0.5" stroke-miterlimit="10"/>
<path d="M254.016 206.098L256.699 202.974L265.997 210.885L261.963 215.911L254.016 206.098Z" fill="white"/>
<path d="M233.493 194.733L246.76 213.89L254.01 206.098L264.392 214.643L252.494 232.817H223.937L221.016 185.012L223.009 185.931C227.227 187.878 230.847 190.92 233.493 194.733Z" fill="#A78BEF"/>
<path d="M219.756 184.433L224.102 186.436C227.41 187.961 229.661 191.14 229.991 194.769C233.345 199.722 234.319 206.861 231.287 213.237L236.267 232.817H192.89L191.779 203.314C191.521 196.377 195.105 189.863 201.114 186.381L203.806 184.819L214.583 183.055L219.756 184.433Z" fill="#A78BEF"/>
<path d="M200.143 222.251L201.87 202.643L201.833 185.976L196.798 188.889C193.279 190.929 190.651 194.218 189.429 198.095C187.132 205.427 183.448 217.399 182.391 222.324C180.765 229.895 184.119 234.333 188.988 234.333C192.342 234.333 208.568 234.333 208.568 234.333V224.419L200.143 222.251Z" fill="#A78BEF"/>
<path d="M192.859 220.376L208.58 224.419" stroke="#0E2033" stroke-width="0.5" stroke-miterlimit="10"/>
<path d="M201.868 200.907L200.141 222.251" stroke="#0E2033" stroke-width="0.5" stroke-miterlimit="10"/>
<path d="M246.764 213.89L239.156 222.251" stroke="#0E2033" stroke-width="0.5" stroke-miterlimit="10"/>
<path d="M204.467 202.258C204.467 202.258 203.594 205.933 201.297 207.936" stroke="#0E2033" stroke-width="0.5" stroke-miterlimit="10"/>
<path d="M199.87 160.755C199.87 160.755 198.143 160.755 195.708 160.755C193.273 160.755 191.702 163.3 192.088 165.735C192.464 168.17 195.441 171.469 195.441 173.848C195.441 176.228 191.711 178.341 191.711 183.744H202.369C202.369 183.744 202.103 182.283 203.398 180.069C204.326 178.479 204.363 175.961 203.15 173.959C201.937 171.956 202.424 167.04 202.424 167.04L199.87 160.755Z" fill="black"/>
<path d="M203.145 173.959C201.932 171.956 202.419 167.04 202.419 167.04L199.874 160.765C199.874 160.765 199.332 160.765 198.449 160.765C197.301 162.189 196.832 164.173 197.237 166.323C198.045 170.587 202.014 173.591 203.448 174.556C203.356 174.345 203.264 174.142 203.145 173.959Z" fill="#0E2033"/>
<path d="M204.337 157.641C207.663 152.826 217.558 151.43 221.022 156.915C223.402 160.691 221.362 165.414 218.734 166.176L204.043 172.764C204.043 172.764 198.686 169.649 197.767 164.78C196.986 160.636 199.66 157.099 204.337 157.641Z" fill="black"/>
<path d="M203.812 170.045C208.526 167.481 208.37 161.389 208.37 161.389C208.37 161.389 213.377 162.942 218.467 162.079L218.826 167.555C221.674 170.761 220.663 176.641 216.841 178.194L217.594 182.954C217.594 182.954 212.082 185.618 206.275 182.954L205.448 172.764L203.812 170.045Z" fill="#FB6767"/>
<path d="M216.406 178.406C216.406 178.406 213.126 179.885 208.578 177.937" stroke="#491F1F" stroke-width="0.5" stroke-miterlimit="10"/>
<path d="M207.66 171.294C207.66 173.132 206.171 174.62 204.334 174.62C202.496 174.62 201.008 173.132 201.008 171.294C201.008 169.456 202.496 167.968 204.334 167.968C206.171 167.968 207.66 169.456 207.66 171.294Z" fill="#FB6767"/>
<path d="M202.766 170.081C203.96 169.392 205.687 169.218 206.551 171.956" stroke="#491F1F" stroke-width="0.5" stroke-miterlimit="10"/>
<path d="M203.812 171.294L205.08 169.852" stroke="#491F1F" stroke-width="0.5" stroke-miterlimit="10"/>
<path d="M206.163 181.575C206.163 181.575 211.851 184.249 217.382 181.575L219.761 184.424L216.564 189.229L213.808 183.992L212.632 190.001L203.82 184.819L206.163 181.575Z" fill="#5254CF"/>
<path d="M230.875 196.23C230.875 196.23 235.423 203.829 231.288 213.246L235.267 228.912" stroke="#0E2033" stroke-width="0.5" stroke-miterlimit="10"/>
<path d="M212.188 225.319L223.691 227.515L231.253 226.11C232.411 225.898 233.605 226.027 234.69 226.486L242.766 229.895V232.817H209.992L212.188 225.319Z" fill="#FB6767"/>
<path d="M208.578 224.419L212.189 225.319V234.333H208.578V224.419Z" fill="white"/>
<path d="M262.189 203.296H259.855L250.961 231.273H253.295H287.474L296.368 203.296H262.189Z" fill="white"/>
<path d="M277.984 221.038H269.292C267.482 221.038 266.481 219.568 267.05 217.758L267.344 216.821C267.923 215.011 269.862 213.541 271.672 213.541H280.364C282.174 213.541 283.175 215.011 282.606 216.821L282.312 217.758C281.733 219.568 279.803 221.038 277.984 221.038Z" fill="#A78BEF"/>
<path d="M260.884 204.775L252.945 229.767" stroke="#5A9297" stroke-width="0.3975" stroke-miterlimit="10"/>
<path d="M279.422 229.767H225.406V231.283H279.422V229.767Z" fill="white"/>
<path d="M324.102 231.273H131.797V238.192H324.102V231.273Z" fill="#FABC26"/>
<path d="M317.479 238.201H138.414V324.145H317.479V238.201Z" fill="black"/>
<path d="M317.488 238.201H138.414V260.702L317.488 245.395V238.201Z" fill="#0E2033"/>
<path d="M317.485 254.234H250.78C245.626 254.234 241.445 258.414 241.445 263.569V305.172C241.445 310.327 245.626 314.507 250.78 314.507H317.485V254.234Z" fill="#0E2033"/>
<path d="M224.955 113.189C224.201 107.759 219.488 100.776 210.364 100.776C201.25 100.776 196.527 107.759 195.774 113.189C195.039 118.527 196.426 121.614 199.072 125.951C201.966 130.701 203.069 137.243 203.069 137.243H210.364H217.66C217.66 137.243 218.753 130.701 221.656 125.951C224.312 121.614 225.699 118.537 224.955 113.189Z" fill="#FABC26"/>
<path d="M210.376 136.968C207.179 136.968 204.349 136.811 202.695 136.582L204.156 146.624C204.202 146.927 206.986 147.166 210.386 147.166C213.785 147.166 216.569 146.927 216.615 146.624L218.076 136.582C216.404 136.811 213.574 136.968 210.376 136.968Z" fill="#A78BEF"/>
<path d="M214.345 146.055C214.345 147.616 212.562 148.884 210.375 148.884C208.18 148.884 206.406 147.616 206.406 146.055C206.406 144.493 208.189 143.225 210.375 143.225C212.571 143.225 214.345 144.493 214.345 146.055Z" fill="#A78BEF"/>
<path d="M214.252 124.61L214.932 119.942H214.923C214.95 119.759 214.987 119.575 215.015 119.382C215.52 115.918 215.29 112.5 214.39 112.5C213.829 112.5 213.232 113.887 212.819 115.826C212.672 113.887 212.267 112.5 211.707 112.5C211.146 112.5 210.65 113.887 210.365 115.826C210.081 113.887 209.585 112.5 209.024 112.5C208.464 112.5 208.059 113.887 207.912 115.826C207.499 113.887 206.902 112.5 206.341 112.5C205.441 112.5 205.211 115.918 205.716 119.382C205.744 119.575 205.771 119.759 205.808 119.942L206.479 124.61" stroke="white" stroke-width="0.6051" stroke-miterlimit="10" stroke-linecap="round" stroke-linejoin="round"/>
<path d="M50 324.136H481.597" stroke="#1B334F" stroke-width="1.2517" stroke-miterlimit="10"/>
<path d="M369.609 273.593L376.169 306.183L372.365 317.337C372.117 318.063 371.703 318.715 371.152 319.248L367.743 322.574C367.165 323.144 367.56 324.136 368.377 324.136H369.967C372.264 324.136 374.46 323.172 376.003 321.472L382.729 314.112V324.136H384.888L385.982 316.933C386.671 312.357 385.77 307.681 383.418 303.693L383.014 303.004L383.446 273.584H369.609V273.593Z" fill="#EB8D8D"/>
<path d="M394.305 273.593L401.333 304.639L400.755 306.514C399.762 309.711 399.588 313.102 400.231 316.382L401.765 324.146H404.145L404.797 315.711L410.31 321.564C411.854 323.208 414.013 324.136 416.264 324.136H419.296C420.16 324.136 420.536 323.052 419.866 322.519L416.512 319.836C415.924 319.368 415.455 318.771 415.143 318.091L408.702 304.299L408.105 273.584H394.305V273.593Z" fill="#EB8D8D"/>
<path d="M370.39 277.47L383.373 279.042L383.456 273.593H369.609L370.39 277.47Z" fill="black"/>
<path d="M408.096 273.593H394.305L395.885 280.558L408.261 282.064L408.096 273.593Z" fill="black"/>
<path d="M393.454 127.109C396.483 127.109 398.939 124.653 398.939 121.624C398.939 118.594 396.483 116.138 393.454 116.138C390.425 116.138 387.969 118.594 387.969 121.624C387.969 124.653 390.425 127.109 393.454 127.109Z" fill="black"/>
<path d="M387.33 134.266C387.33 134.266 392.429 133.081 394.138 129.443C395.673 126.19 393.219 125.446 393.219 125.446C393.219 125.446 396.591 120.034 391.336 118.527C392.025 114.953 389.324 111.388 385.263 113.281C382.883 108.522 376.341 110.58 376.121 113.226C372.39 110.681 367.686 118.582 370.929 120.852C369.092 123.553 372.069 126.365 376.718 125.446L387.33 134.266Z" fill="black"/>
<path d="M378.477 141.258L388.629 140.211L396.513 182.724H365.43L378.477 141.258Z" fill="#A78BEF"/>
<path d="M407.564 152.762L419.297 175.75L419.527 186.041L418.636 186.142C414.455 186.629 410.366 184.672 408.124 181.116L398.578 165.956L407.564 152.762Z" fill="#EB8D8D"/>
<path d="M412.225 161.895L402.531 172.231L415.551 168.381L412.225 161.895Z" fill="#491F1F"/>
<path d="M363.983 153.019L353.095 173.72H325.623L324.19 172.534C323.014 171.56 321.571 170.954 320.055 170.789L317.795 170.541C317.473 170.504 317.188 170.761 317.188 171.083C317.188 171.413 317.372 171.726 317.666 171.882L321.121 173.72L317.124 174.354C316.738 174.418 316.343 174.409 315.957 174.354L314.11 174.05C313.532 173.958 313.008 174.4 313.008 174.988V177.34C313.008 177.799 313.329 178.185 313.78 178.277L318.925 179.278L317.629 179.912C317.308 180.069 316.959 180.151 316.6 180.151L314.193 180.16C314.193 180.16 318.208 182.954 324.337 179.71L350.054 186.133C355.548 187.502 361.309 185.26 364.424 180.528L373.226 167.159L363.983 153.019Z" fill="#EB8D8D"/>
<path d="M364.161 180.868L365.861 161.472L355.883 186.252C359.172 185.6 362.158 183.716 364.161 180.868Z" fill="#1B334F"/>
<path d="M384.897 324.136L385.991 316.933C386.542 313.267 386.055 309.536 384.64 306.146L379.164 313.12L374.34 311.558L372.365 317.337C372.117 318.063 371.703 318.715 371.152 319.248L367.743 322.574C367.165 323.144 367.56 324.136 368.377 324.136H369.967C372.264 324.136 374.46 323.171 376.003 321.472L382.729 314.112V324.136H384.897Z" fill="#E527BB"/>
<path d="M416.263 324.136H419.295C420.149 324.136 420.535 323.052 419.864 322.519L416.511 319.836C415.923 319.368 415.454 318.77 415.142 318.09L411.972 311.301L406.376 313.12L400.882 306.128L400.762 306.504C399.77 309.702 399.596 313.092 400.239 316.372L401.773 324.136H404.153L404.805 315.702L410.318 321.554C411.852 323.208 414.012 324.136 416.263 324.136Z" fill="#E527BB"/>
<path d="M365.423 182.724H396.506L402.148 194.567C406.448 203.608 408.561 213.54 408.313 223.546L407.872 241.04C407.743 246.139 408.074 251.239 408.846 256.283L411.795 275.458H368.602L359.837 224.309C358.156 214.505 358.799 204.444 361.702 194.934L365.423 182.724Z" fill="black"/>
<path d="M406.68 207.55C405.642 203.084 404.135 198.738 402.15 194.567L396.509 182.724H365.426L361.696 194.934C361.163 196.671 360.713 198.426 360.336 200.19C366.225 199.813 389.379 198.94 406.68 207.55Z" fill="black"/>
<path d="M367.734 186.041H394.205" stroke="#1B334F" stroke-width="0.3698" stroke-miterlimit="10"/>
<path d="M375.167 124.371V128.91C375.167 128.91 371.96 135.746 378.925 137.023L378.419 142.214L380.983 159.533L388.645 140.211L388.158 131.087L388.379 127.173C388.379 127.173 382.756 123.93 381.837 119.115C381.819 119.124 379.706 122.202 375.167 124.371Z" fill="#EB8D8D"/>
<path d="M391.416 126.53C392.593 127.44 392.675 129.286 391.609 130.655C390.544 132.024 388.734 132.383 387.558 131.473C386.381 130.563 386.299 128.717 387.365 127.348C388.44 125.979 390.25 125.611 391.416 126.53Z" fill="#EB8D8D"/>
<path d="M388.63 140.211L384.44 191.783C384.183 194.944 386.682 197.654 389.852 197.654H407.695L401.493 171.91L409.716 151.576L388.63 140.211Z" fill="#E527BB"/>
<path d="M401.483 171.91L397.734 156.262" stroke="black" stroke-width="0.3698" stroke-miterlimit="10"/>
<path d="M378.475 141.258L374.745 193.189C374.561 195.706 372.466 197.663 369.939 197.663H356.984L365.851 160.774L361.634 150.602L378.475 141.258Z" fill="#E527BB"/>
<path d="M368.597 149.702L365.859 160.765" stroke="black" stroke-width="0.3698" stroke-miterlimit="10"/>
<path d="M389.503 141.543L391.929 145.375C392.912 146.927 393.16 148.838 392.599 150.593L390.165 158.21L391.717 160.608C392.82 162.317 393.022 164.458 392.25 166.342L386.195 181.153" stroke="#1B334F" stroke-width="0.3698" stroke-miterlimit="10"/>
<path d="M377.756 142.196L375.211 146.137C374.072 147.901 373.704 150.06 374.191 152.1L375.588 157.916L373.373 160.222C371.481 162.189 370.773 165.009 371.517 167.637L374.797 179.26" stroke="#1B334F" stroke-width="0.3698" stroke-miterlimit="10"/>
<path d="M313 175.41L316.932 176.017L319.615 175.814" stroke="#491F1F" stroke-width="0.407" stroke-miterlimit="10"/>
<path d="M313 176.623L316.896 177.459L319.266 177.615" stroke="#491F1F" stroke-width="0.407" stroke-miterlimit="10"/>
<path d="M319.789 174.96L319.109 178.378" stroke="#491F1F" stroke-width="0.407" stroke-miterlimit="10"/>
<path d="M427.783 177.431L404.648 185.067L399.641 173.297L425.808 163.631L427.783 177.431Z" fill="#BC139C"/>
<path d="M408.445 183.817L412.424 174.344C412.424 174.344 410.513 171.505 410.366 169.272L417.137 173.389L415.272 181.649L408.445 183.817Z" fill="#0E2033"/>
<path d="M413.961 173.352L412.509 178.654C411.627 181.888 413.538 185.223 416.772 186.096C418.353 186.528 420.034 186.142 421.274 185.076C423.121 183.486 423.884 180.969 423.232 178.626L421.348 171.91L422.037 166.562C422.101 166.094 421.798 165.662 421.339 165.561C420.861 165.45 420.383 165.735 420.255 166.213L419.584 168.703L418.656 166.388C418.353 165.625 417.498 165.248 416.726 165.524L411.315 167.49C410.589 167.757 410.166 168.528 410.359 169.273C410.69 170.541 411.572 172.378 413.961 173.352Z" fill="#EB8D8D"/>
<path d="M415.703 165.901L417.136 168.629" stroke="#491F1F" stroke-width="0.407" stroke-miterlimit="10"/>
<path d="M413.75 166.617L415.321 169.631" stroke="#491F1F" stroke-width="0.407" stroke-miterlimit="10"/>
<path d="M411.797 167.288L413.396 170.357" stroke="#491F1F" stroke-width="0.407" stroke-miterlimit="10"/>
<path d="M369.484 272.068H410.031" stroke="white" stroke-width="0.389" stroke-miterlimit="10"/>
<path d="M161.062 147.534L170.682 180.105C171.867 184.13 171.27 188.475 169.037 192.031L161.732 203.645L154.483 179.416L152.039 139.283L153.656 139.834C157.23 141.047 159.996 143.914 161.062 147.534Z" fill="#E527BB"/>
<path d="M163.788 200.392L157.742 178.111L158.532 160.36L163.788 200.392Z" fill="#0E2033"/>
<path d="M188.451 304.998L189.609 308.103C190.417 310.271 192.181 311.953 194.386 312.66L201.893 315.058C204.42 315.867 206.551 317.576 207.884 319.873L210.144 323.778H177.949C176.966 323.778 176.277 322.822 176.58 321.885L178.905 314.82C179.346 313.469 179.373 312.017 178.969 310.657L177.315 305.016H188.451V304.998Z" fill="#E68047"/>
<path d="M210.145 323.76L207.885 319.855C206.553 317.567 204.421 315.849 201.894 315.04L194.388 312.642C193.836 312.467 193.313 312.229 192.817 311.935L192.1 313.377C191.062 315.454 188.774 316.584 186.495 316.143L178.924 314.691C178.915 314.719 178.915 314.755 178.897 314.783L176.572 321.848C176.269 322.776 176.958 323.741 177.941 323.741H210.145V323.76Z" fill="#A78BEF"/>
<path d="M136.899 304.998V311.953L139.849 324.136H123.742L126.223 311.953L125.791 304.998H136.899Z" fill="#E68047"/>
<path d="M131.662 311.953C128.502 311.953 125.773 314.186 125.139 317.282L123.742 324.145H139.849L138.121 317.043C137.405 314.048 134.731 311.953 131.662 311.953Z" fill="#A78BEF"/>
<path d="M160.763 196.57L191.708 307.919H176.236L139.493 218.787V307.919H123.001L113.969 196.57L144.105 182.117L160.763 196.57Z" fill="black"/>
<path d="M160.763 196.57L144.105 182.117L113.969 196.57L114.428 202.221L164.337 209.424L160.763 196.57Z" fill="#0E2033"/>
<path d="M139.492 218.787L140.549 182.816" stroke="black" stroke-width="0.3698" stroke-miterlimit="10"/>
<path d="M145.838 186.335L145.094 199.538C144.947 202.147 143.679 204.564 141.612 206.153L139.82 207.541" stroke="black" stroke-width="0.3698" stroke-miterlimit="10"/>
<path d="M131.344 208.184L150.813 210.995" stroke="black" stroke-width="0.3698" stroke-miterlimit="10"/>
<path d="M123.742 303.289H137.781" stroke="black" stroke-width="0.3698" stroke-miterlimit="10"/>
<path d="M175.656 303.289H189.686" stroke="black" stroke-width="0.3698" stroke-miterlimit="10"/>
<path d="M144.125 210.031L179.591 303.289" stroke="black" stroke-width="0.3698" stroke-miterlimit="10"/>
<path d="M120.305 196.938L127.664 303.289" stroke="black" stroke-width="0.3698" stroke-miterlimit="10"/>
<path d="M140.107 195.247L143.819 186.757L145.271 194.806C146.18 199.869 150.388 203.672 155.515 204.077L164.988 204.821L157.739 178.102L159.08 148.039C159.246 144.318 156.93 140.928 153.402 139.724L141.081 135.534H129.724L118.203 138.52C112.322 140.045 107.223 143.702 103.888 148.783L89.8762 170.136C86.4674 175.337 86.348 182.025 89.5729 187.336C91.1992 190.019 94.709 190.873 97.3827 189.229L106.819 183.45L119.112 170.191L111.321 200.613L128.842 201.991C133.657 202.368 138.168 199.657 140.107 195.247Z" fill="#E527BB"/>
<path d="M159.578 178.654H166.717" stroke="black" stroke-width="0.4321" stroke-miterlimit="10"/>
<path d="M160.766 179.839L166.719 182.117" stroke="black" stroke-width="0.4321" stroke-miterlimit="10"/>
<path d="M159.019 149.445L157.742 178.111L163.154 198.049" stroke="black" stroke-width="0.3698" stroke-miterlimit="10"/>
<path d="M142.164 175.511L144.397 183.101C144.636 183.9 144.599 184.745 144.296 185.526L143.818 186.767" stroke="#0E2033" stroke-width="0.4321" stroke-miterlimit="10"/>
<path d="M142.168 183.624C142.168 184.221 141.681 184.708 141.084 184.708C140.487 184.708 140 184.221 140 183.624C140 183.027 140.487 182.54 141.084 182.54C141.681 182.54 142.168 183.018 142.168 183.624Z" stroke="white" stroke-width="0.4321" stroke-miterlimit="10"/>
<path d="M111.664 146.523L117.232 162.859" stroke="black" stroke-width="0.4277" stroke-miterlimit="10"/>
<path d="M124.608 153.954L101.289 160.287L109.455 190.353L132.774 184.02L124.608 153.954Z" fill="#A78BEF"/>
<path d="M114.308 156.235L114.069 155.362C113.849 154.535 112.994 154.048 112.167 154.269C111.34 154.489 110.853 155.344 111.074 156.171L111.313 157.043L109.016 157.668L109.64 159.965L117.23 157.907L116.605 155.61L114.308 156.235Z" fill="white"/>
<path d="M109.453 190.359L129.502 172.011L127.875 165.992L104.859 174.519L109.453 190.359Z" fill="#0E2033"/>
<path d="M115.945 169.254L120.604 165.836L123.167 164.862C123.7 164.66 124.316 164.982 124.545 165.588L124.692 165.983L127.926 165.037C128.588 164.844 129.305 165.322 129.488 166.094L130.003 168.225C130.132 168.776 129.957 169.328 129.562 169.631L128.763 170.228L128.79 170.32C128.992 171.073 128.726 171.845 128.147 172.213L124.509 174.528C123.847 174.951 123.121 175.245 122.359 175.41L118.334 176.255L115.945 169.254Z" fill="#E68047"/>
<path d="M123.086 168.767L129.508 166.167" stroke="#491F1F" stroke-width="0.5" stroke-miterlimit="10"/>
<path d="M124.156 170.816L129.89 167.757" stroke="#491F1F" stroke-width="0.5" stroke-miterlimit="10"/>
<path d="M124.992 172.599L128.768 170.237" stroke="#491F1F" stroke-width="0.5" stroke-miterlimit="10"/>
<path d="M124.705 165.992L121.352 167.361" stroke="#491F1F" stroke-width="0.5" stroke-miterlimit="10"/>
<path d="M113.969 169.309L116.688 168.344L120.097 177.459L115.696 179.839L113.969 169.309Z" fill="white"/>
<path d="M128.477 137.078L124.287 142.122C123.093 143.565 123.166 145.669 124.453 147.028L132.566 155.527L129.681 159.239C128.596 160.645 128.661 162.62 129.837 163.953L143.159 178.947L149.554 161.766C150.115 160.268 149.646 158.587 148.387 157.585L144.74 154.682L148.782 145.577C149.462 144.042 149.021 142.251 147.726 141.203L142.581 137.069" stroke="#0E2033" stroke-width="0.4321" stroke-miterlimit="10"/>
<path d="M93.5961 175.713L113.966 169.309L117.862 179.692L103.648 189.881C98.9435 193.253 92.3649 191.912 89.3604 186.969C86.7786 182.733 88.8643 177.202 93.5961 175.713Z" fill="#E527BB"/>
<path d="M94.2422 175.511L113.133 169.576" stroke="black" stroke-width="0.4321" stroke-miterlimit="10"/>
<path d="M129.727 135.543L142.167 175.511L141.083 135.543H129.727Z" fill="white"/>
<path d="M136.75 139.274L132.211 143.564L132.698 145.136L136.934 140.753L141.279 143.197L141.243 141.681L136.75 139.274Z" fill="#D8E9EB"/>
<path d="M142.696 117.535C145.728 115.422 147.189 110.019 142.696 108.016C138.203 106.013 132.368 109.211 129.447 111.59C125.661 110.185 121.6 117.002 126.313 118.353L127.508 123.617L142.696 117.535Z" fill="black"/>
<path d="M130.151 122.349C130.151 122.349 133.018 120.833 132.853 115.321H143.18L143.722 121.596C145.992 123.489 145.992 129.544 140.479 130.462L141.076 135.543L136.748 139.274L129.72 135.543L129.453 125.427L130.151 122.349Z" fill="#E68047"/>
<path d="M131.669 124.159C131.669 126.052 130.135 127.596 128.233 127.596C126.34 127.596 124.797 126.061 124.797 124.159C124.797 122.267 126.331 120.723 128.233 120.723C130.126 120.723 131.669 122.267 131.669 124.159Z" fill="#E68047"/>
<path d="M139.562 140.762L136.75 139.274L134.453 141.47L136.612 143.693L136.024 155.821L142.162 175.511L141.629 155.895L138.523 143.546L139.562 140.762Z" fill="#A78BEF"/>
</g>
<defs>
<clipPath id="clip0_2186_13180">
<rect width="431.597" height="307.715" fill="white" transform="translate(50 17)"/>
</clipPath>
</defs>
</svg>
