<svg width="543" height="329" viewBox="0 0 543 329" fill="none" xmlns="http://www.w3.org/2000/svg">
<g clip-path="url(#clip0_1882_4781)">
<path opacity="0.2" d="M78.788 327.839C41.4882 290.535 -9.49424 252.012 10.4949 193.818C23.6478 155.541 55.8804 144.88 82.6859 121.276C95.9087 109.631 87.5932 92.6757 87.3433 75.8481C86.7836 32.7513 139.135 -0.687543 187.269 0.010739C239.401 0.768031 261.969 48.9102 305.705 51.4968C322.876 51.7426 338.257 42.4781 353.449 35.1314C398.465 13.3371 469.906 27.2339 473.514 79.9296C474.444 108.392 439.183 154.174 474.514 169.143C502.668 181.072 531.113 185.469 536.19 228.133C542.837 283.976 507.716 314.621 461.971 329L78.788 327.839Z" fill="#999999"/>
<g opacity="0.3">
<path d="M228.116 72.1106C227.567 72.0757 227.127 71.6262 227.102 71.0669C227.057 69.8384 227.067 68.5949 227.127 67.3614C227.157 66.7622 227.666 66.2977 228.266 66.3277C228.271 66.3277 228.281 66.3277 228.286 66.3277C228.875 66.3676 229.324 66.872 229.299 67.4663C229.245 68.6399 229.235 69.8234 229.279 70.987C229.299 71.5863 228.835 72.0906 228.231 72.1156C228.191 72.1106 228.151 72.1106 228.116 72.1106ZM228.825 62.6672C228.785 62.6622 228.74 62.6572 228.695 62.6522C228.106 62.5423 227.716 61.973 227.826 61.3837C228.056 60.1702 228.336 58.9567 228.665 57.7732C228.825 57.1939 229.424 56.8543 230.004 57.0141C230.583 57.1739 230.922 57.7732 230.763 58.3525C230.453 59.4761 230.183 60.6297 229.969 61.7833C229.864 62.3276 229.369 62.7021 228.825 62.6672ZM231.597 53.6133C231.477 53.6033 231.357 53.5783 231.237 53.5234C230.688 53.2837 230.433 52.6445 230.673 52.0951C231.162 50.9665 231.707 49.8429 232.296 48.7642C232.58 48.2349 233.24 48.0401 233.769 48.3247C234.298 48.6094 234.493 49.2686 234.208 49.7979C233.654 50.8267 233.135 51.8904 232.67 52.9641C232.481 53.3985 232.041 53.6432 231.597 53.6133ZM236.326 45.4083C236.126 45.3933 235.926 45.3284 235.757 45.1986C235.272 44.844 235.172 44.1598 235.527 43.6804C236.256 42.6916 237.04 41.7178 237.854 40.794C238.249 40.3445 238.938 40.2996 239.387 40.6941C239.837 41.0886 239.882 41.7778 239.487 42.2272C238.718 43.1061 237.974 44.03 237.28 44.9688C237.045 45.2785 236.68 45.4333 236.326 45.4083ZM242.763 38.4618C242.483 38.4418 242.209 38.317 242.014 38.0873C241.619 37.6328 241.674 36.9487 242.129 36.5542C243.058 35.7501 244.036 34.9761 245.035 34.257C245.52 33.9024 246.199 34.0123 246.553 34.4967C246.908 34.9811 246.798 35.6602 246.309 36.0148C245.36 36.704 244.431 37.4381 243.547 38.2021C243.322 38.3969 243.038 38.4818 242.763 38.4618ZM250.573 33.1134C250.209 33.0884 249.869 32.8836 249.684 32.5391C249.405 32.0097 249.605 31.3505 250.134 31.0709C251.223 30.4916 252.346 29.9572 253.475 29.4728C254.029 29.2381 254.663 29.4928 254.903 30.0471C255.138 30.5964 254.883 31.2357 254.329 31.4754C253.255 31.9348 252.186 32.4442 251.153 32.9935C250.973 33.0884 250.773 33.1283 250.573 33.1134ZM290.49 33.2282C290.34 33.2182 290.19 33.1783 290.05 33.0984C289.021 32.5441 287.958 32.0297 286.879 31.5653C286.33 31.3256 286.075 30.6863 286.315 30.137C286.554 29.5877 287.194 29.333 287.743 29.5727C288.877 30.0621 289.995 30.6064 291.079 31.1907C291.608 31.4754 291.803 32.1346 291.518 32.6639C291.314 33.0435 290.899 33.2532 290.49 33.2282ZM259.373 29.6326C258.923 29.6027 258.524 29.293 258.399 28.8336C258.244 28.2543 258.584 27.655 259.163 27.5002C260.351 27.1806 261.565 26.906 262.778 26.6862C263.368 26.5814 263.937 26.9709 264.042 27.5652C264.147 28.1544 263.757 28.7187 263.163 28.8286C262.014 29.0334 260.861 29.298 259.732 29.6027C259.612 29.6276 259.492 29.6426 259.373 29.6326ZM281.7 29.7025C281.63 29.6975 281.555 29.6876 281.486 29.6676C280.357 29.358 279.203 29.0933 278.055 28.8786C277.465 28.7687 277.076 28.1994 277.186 27.6101C277.296 27.0208 277.865 26.6263 278.454 26.7412C279.668 26.9659 280.881 27.2456 282.065 27.5702C282.644 27.73 282.984 28.3292 282.824 28.9085C282.679 29.4129 282.205 29.7375 281.7 29.7025ZM268.731 28.2044C268.182 28.1694 267.742 27.72 267.717 27.1607C267.692 26.5614 268.162 26.057 268.761 26.032C269.99 25.9871 271.238 25.9871 272.467 26.047C272.477 26.047 272.482 26.047 272.492 26.047C273.081 26.087 273.53 26.5914 273.505 27.1806C273.475 27.7799 272.971 28.2443 272.367 28.2144C271.198 28.1594 270.015 28.1544 268.846 28.1994C268.806 28.2094 268.771 28.2094 268.731 28.2044Z" fill="#E527BB"/>
<path d="M296.854 37.4381C296.639 37.4231 296.43 37.3482 296.25 37.2033C295.81 36.8538 295.361 36.5042 294.906 36.1696C294.422 35.815 294.322 35.1309 294.677 34.6515C295.031 34.1671 295.715 34.0622 296.195 34.4217C296.674 34.7713 297.149 35.1359 297.608 35.5054C298.078 35.88 298.152 36.5641 297.778 37.0335C297.548 37.3232 297.199 37.463 296.854 37.4381Z" fill="#E527BB"/>
</g>
<g opacity="0.3">
<path d="M312.572 66.6124C312.047 66.5774 311.613 66.1679 311.563 65.6286C311.513 65.0693 311.448 64.505 311.373 63.9457C311.293 63.3514 311.713 62.8021 312.307 62.7222C312.906 62.6423 313.45 63.0617 313.53 63.656C313.61 64.2453 313.675 64.8396 313.73 65.4288C313.785 66.0281 313.346 66.5575 312.746 66.6124C312.691 66.6174 312.631 66.6174 312.572 66.6124Z" fill="#BDD0FB"/>
<path d="M267.599 112.741C267.099 112.706 266.6 112.666 266.096 112.616C265.496 112.556 265.062 112.022 265.122 111.423C265.182 110.823 265.721 110.389 266.315 110.449C267.474 110.569 268.632 110.639 269.776 110.659C270.375 110.669 270.855 111.163 270.845 111.767C270.835 112.366 270.335 112.846 269.736 112.836C269.032 112.816 268.313 112.786 267.599 112.741ZM260.442 111.642C260.383 111.637 260.323 111.627 260.258 111.612C259.079 111.328 257.901 110.988 256.752 110.609C256.183 110.419 255.873 109.805 256.063 109.235C256.253 108.666 256.867 108.356 257.436 108.546C258.525 108.911 259.648 109.23 260.767 109.5C261.351 109.64 261.711 110.229 261.566 110.813C261.446 111.333 260.962 111.677 260.442 111.642ZM275.454 112.541C274.945 112.506 274.51 112.112 274.45 111.587C274.38 110.993 274.805 110.449 275.399 110.379C276.538 110.244 277.691 110.059 278.82 109.825C279.409 109.705 279.984 110.084 280.103 110.669C280.223 111.258 279.844 111.832 279.259 111.952C278.071 112.197 276.862 112.391 275.659 112.536C275.584 112.546 275.519 112.546 275.454 112.541ZM251.678 108.471C251.538 108.461 251.404 108.426 251.274 108.361C250.185 107.827 249.111 107.238 248.073 106.608C247.558 106.299 247.393 105.63 247.703 105.115C248.013 104.601 248.682 104.436 249.196 104.746C250.18 105.34 251.204 105.899 252.238 106.409C252.777 106.673 252.997 107.328 252.732 107.862C252.527 108.271 252.108 108.496 251.678 108.471ZM284.523 110.424C284.104 110.394 283.719 110.124 283.569 109.7C283.369 109.135 283.664 108.511 284.233 108.311C285.317 107.927 286.396 107.492 287.444 107.018C287.994 106.768 288.633 107.013 288.883 107.562C289.127 108.112 288.888 108.751 288.338 109.001C287.235 109.5 286.096 109.959 284.957 110.359C284.813 110.414 284.663 110.434 284.523 110.424ZM292.908 106.369C292.573 106.344 292.254 106.169 292.059 105.864C291.739 105.355 291.894 104.686 292.403 104.366C293.377 103.752 294.341 103.093 295.26 102.404C295.739 102.044 296.418 102.139 296.783 102.618C297.143 103.098 297.048 103.782 296.568 104.142C295.599 104.866 294.591 105.565 293.562 106.209C293.352 106.329 293.127 106.384 292.908 106.369ZM300.204 100.581C299.949 100.566 299.699 100.456 299.505 100.261C299.08 99.8368 299.085 99.1476 299.515 98.7231C300.334 97.9141 301.128 97.0602 301.872 96.1863C302.261 95.7318 302.945 95.6769 303.405 96.0664C303.859 96.4559 303.914 97.1401 303.525 97.5995C302.741 98.5184 301.902 99.4173 301.043 100.271C300.813 100.496 300.508 100.601 300.204 100.581ZM306.072 93.3397C305.897 93.3298 305.717 93.2748 305.557 93.17C305.053 92.8453 304.903 92.1762 305.228 91.6668C305.852 90.698 306.436 89.6892 306.976 88.6755C307.255 88.1461 307.914 87.9414 308.444 88.221C308.973 88.5007 309.178 89.1599 308.898 89.6892C308.334 90.7579 307.715 91.8216 307.06 92.8404C306.841 93.1849 306.451 93.3647 306.072 93.3397ZM310.207 84.98C310.107 84.975 310.007 84.95 309.907 84.9151C309.343 84.7103 309.053 84.0861 309.258 83.5218C309.647 82.4431 310.002 81.3295 310.301 80.2208C310.456 79.6415 311.056 79.2969 311.635 79.4567C312.214 79.6116 312.559 80.2108 312.399 80.7901C312.084 81.9587 311.715 83.1322 311.3 84.2659C311.13 84.7353 310.676 85.0149 310.207 84.98ZM312.399 75.9311C312.379 75.9311 312.354 75.9261 312.334 75.9261C311.74 75.8512 311.32 75.3018 311.395 74.7076C311.505 73.8686 311.59 73.0146 311.645 72.1707C311.665 71.866 311.685 71.5614 311.695 71.2568C311.725 70.6575 312.229 70.1931 312.828 70.2231C313.438 70.238 313.892 70.7574 313.862 71.3567C313.847 71.6763 313.827 71.9959 313.807 72.3205C313.747 73.2094 313.657 74.1083 313.542 74.9922C313.478 75.5565 312.968 75.966 312.399 75.9311Z" fill="#BDD0FB"/>
<path d="M243.806 103.427C243.591 103.412 243.377 103.332 243.197 103.188C242.737 102.818 242.283 102.429 241.834 102.039C241.384 101.645 241.339 100.955 241.734 100.506C242.128 100.057 242.817 100.012 243.267 100.406C243.691 100.781 244.126 101.145 244.56 101.5C245.025 101.879 245.1 102.563 244.72 103.028C244.495 103.313 244.151 103.452 243.806 103.427Z" fill="#BDD0FB"/>
</g>
<path d="M246.124 90.9475C246.249 91.1223 246.474 91.2022 246.684 91.1422L252.616 89.4044C254.779 91.317 257.266 92.9001 260.002 94.0537L261.006 100.151C261.041 100.366 261.211 100.531 261.421 100.571L268.732 101.814C268.946 101.849 269.156 101.749 269.261 101.559L272.227 96.1411C275.194 95.9563 278.06 95.2872 280.737 94.1985L285.761 97.7991C285.935 97.9239 286.175 97.9239 286.35 97.7991L292.398 93.5093C292.572 93.3845 292.652 93.1598 292.592 92.95L290.854 87.0173C292.767 84.8549 294.35 82.368 295.504 79.6313L301.601 78.6276C301.816 78.5926 301.981 78.4278 302.021 78.2131L303.264 70.902C303.299 70.6873 303.199 70.4775 303.01 70.3727L297.591 67.4013C297.406 64.4349 296.737 61.5685 295.649 58.8917L299.249 53.8679C299.374 53.6931 299.374 53.4534 299.249 53.2786L294.959 47.231C294.835 47.0562 294.61 46.9763 294.4 47.0363L288.467 48.7741C286.305 46.8615 283.818 45.2784 281.081 44.1248L280.078 38.0273C280.043 37.8125 279.878 37.6477 279.663 37.6078L272.352 36.3643C272.137 36.3294 271.928 36.4292 271.823 36.619L268.856 42.0374C265.89 42.2221 263.024 42.8913 260.347 43.98L255.323 40.3794C255.148 40.2546 254.908 40.2546 254.734 40.3794L248.686 44.6692C248.511 44.794 248.431 45.0187 248.491 45.2285L250.229 51.1612C248.317 53.3236 246.733 55.8105 245.58 58.5472L239.482 59.5509C239.268 59.5859 239.103 59.7557 239.063 59.9654L237.819 67.2765C237.784 67.4912 237.884 67.7009 238.074 67.8058L243.492 70.7722C243.677 73.7386 244.346 76.605 245.435 79.2818L241.834 84.3056C241.71 84.4804 241.71 84.7201 241.834 84.8949L246.124 90.9475Z" fill="#E527BB"/>
<path d="M270.035 76.5251C266.409 76.2804 263.408 73.3989 263.113 69.6735C262.789 65.5735 265.86 61.9779 269.96 61.6533C271.948 61.4985 273.87 62.1227 275.388 63.4161C276.902 64.7096 277.825 66.5124 277.98 68.4999C278.305 72.5999 275.234 76.1955 271.134 76.5201C270.759 76.5501 270.394 76.5501 270.035 76.5251ZM270.944 63.3862C270.664 63.3662 270.379 63.3662 270.095 63.3912C266.954 63.6409 264.597 66.3975 264.846 69.5387C265.096 72.6798 267.853 75.0369 270.994 74.7872C274.135 74.5375 276.492 71.7809 276.242 68.6398C276.122 67.1166 275.418 65.7333 274.255 64.7395C273.311 63.9355 272.157 63.4661 270.944 63.3862Z" fill="url(#paint0_linear_1882_4781)"/>
<path d="M269.463 87.2819C268.839 87.242 268.215 87.1671 267.591 87.0622C267.396 87.0272 267.196 86.9923 267.001 86.9523C266.037 86.7576 265.094 86.4829 264.18 86.1383C264.17 86.1333 264.155 86.1283 264.145 86.1233C264.11 86.1084 264.075 86.0984 264.04 86.0834C263.97 86.0584 263.905 86.0285 263.835 86.0035C263.655 85.9336 263.55 85.7538 263.56 85.569C263.565 85.5241 263.575 85.4791 263.59 85.4342C263.68 85.2095 263.935 85.1046 264.155 85.1945C265.303 85.6539 266.507 85.9935 267.735 86.2032C273.833 87.242 279.746 84.9698 283.621 80.69C285.778 78.3129 287.301 75.3116 287.881 71.9207C287.981 71.3265 288.05 70.7322 288.09 70.1379C288.36 66.1428 287.256 62.2026 284.909 58.8917C282.213 55.0863 278.193 52.5594 273.598 51.7754C264.105 50.1574 255.071 56.5695 253.453 66.0579C253.353 66.6422 253.283 67.2315 253.243 67.8208C253.068 70.3726 253.458 72.9295 254.387 75.3116C254.412 75.3715 254.422 75.4364 254.417 75.4964C254.407 75.6612 254.302 75.811 254.142 75.8709C253.917 75.9558 253.668 75.8459 253.578 75.6212C252.604 73.1193 252.194 70.4326 252.379 67.7558C252.419 67.1366 252.494 66.5223 252.599 65.9081C254.297 55.9453 263.785 49.2185 273.748 50.9115C278.577 51.7354 282.792 54.3872 285.623 58.3773C288.09 61.8531 289.249 65.988 288.964 70.1829C288.924 70.8071 288.849 71.4313 288.74 72.0556C287.916 76.8847 285.264 81.0995 281.274 83.931C277.793 86.408 273.658 87.5666 269.463 87.2819Z" fill="url(#paint1_linear_1882_4781)"/>
<g opacity="0.3">
<path d="M189.168 98.1787C188.879 98.1587 188.624 97.954 188.559 97.6543C188.434 97.1 188.329 96.5307 188.239 95.9664C188.179 95.6019 188.429 95.2573 188.799 95.1974C189.163 95.1374 189.508 95.3871 189.568 95.7567C189.653 96.291 189.757 96.8353 189.872 97.3647C189.952 97.7243 189.723 98.0838 189.363 98.1637C189.298 98.1787 189.233 98.1837 189.168 98.1787Z" fill="#BDD0FB"/>
<path d="M188.524 93.055C188.184 93.0301 187.91 92.7554 187.9 92.4058C187.865 91.427 187.885 90.4332 187.95 89.4544C187.965 89.2497 187.98 89.0399 188 88.8352C188.035 88.4657 188.379 88.206 188.729 88.2259C189.098 88.2609 189.373 88.5855 189.338 88.9551C189.318 89.1548 189.303 89.3496 189.293 89.5493C189.228 90.4832 189.213 91.432 189.243 92.3659C189.258 92.7354 188.964 93.045 188.594 93.06C188.569 93.055 188.544 93.055 188.524 93.055ZM189.138 86.1135C189.108 86.1135 189.073 86.1085 189.043 86.0985C188.679 86.0186 188.449 85.6641 188.529 85.2995C188.779 84.136 189.098 82.9774 189.488 81.8587C189.608 81.5092 189.992 81.3244 190.342 81.4442C190.691 81.5641 190.876 81.9486 190.756 82.2982C190.387 83.3669 190.077 84.4705 189.842 85.5792C189.773 85.9138 189.468 86.1335 189.138 86.1135ZM191.426 79.5266C191.341 79.5216 191.256 79.4966 191.176 79.4567C190.841 79.2919 190.706 78.8924 190.871 78.5578C191.396 77.4941 191.995 76.4504 192.649 75.4566C192.854 75.147 193.268 75.0621 193.578 75.2668C193.888 75.4716 193.972 75.8861 193.768 76.1957C193.143 77.1445 192.574 78.1383 192.075 79.1521C191.95 79.4067 191.685 79.5466 191.426 79.5266ZM195.256 73.7037C195.116 73.6937 194.981 73.6438 194.866 73.5439C194.587 73.3042 194.552 72.8797 194.791 72.5951C195.565 71.6912 196.399 70.8223 197.273 70.0232C197.548 69.7735 197.972 69.7935 198.222 70.0632C198.472 70.3378 198.452 70.7623 198.182 71.012C197.348 71.7761 196.549 72.6001 195.815 73.464C195.67 73.6388 195.461 73.7187 195.256 73.7037ZM200.395 68.9945C200.2 68.9795 200.015 68.8846 199.895 68.7148C199.68 68.4152 199.75 67.9957 200.05 67.781C201.019 67.0918 202.038 66.4526 203.081 65.8883C203.406 65.7085 203.815 65.8334 203.99 66.158C204.165 66.4826 204.045 66.8921 203.72 67.0669C202.727 67.6062 201.753 68.2154 200.829 68.8696C200.699 68.9645 200.544 69.0045 200.395 68.9945ZM206.522 65.6736C206.272 65.6586 206.043 65.4988 205.943 65.2491C205.808 64.9045 205.978 64.515 206.322 64.3801C207.431 63.9457 208.575 63.5761 209.723 63.2865C210.083 63.1966 210.447 63.4113 210.537 63.7709C210.627 64.1304 210.412 64.495 210.053 64.5849C208.954 64.8646 207.865 65.2141 206.812 65.6286C206.717 65.6686 206.617 65.6786 206.522 65.6736ZM213.269 63.9557C212.954 63.9357 212.689 63.696 212.65 63.3714C212.605 63.0018 212.864 62.6672 213.234 62.6223C214.407 62.4725 215.611 62.3976 216.799 62.3926C217.169 62.3976 217.474 62.6922 217.474 63.0618C217.474 63.4313 217.174 63.7359 216.804 63.7359C215.666 63.7359 214.522 63.8108 213.404 63.9507C213.359 63.9557 213.314 63.9557 213.269 63.9557ZM223.676 64.5749C223.636 64.5699 223.596 64.5649 223.561 64.5549C222.612 64.3202 221.634 64.1304 220.65 63.9956C220.5 63.9756 220.355 63.9557 220.21 63.9357C219.841 63.8907 219.581 63.5562 219.626 63.1866C219.671 62.8171 220.006 62.5424 220.37 62.6023C220.525 62.6223 220.68 62.6423 220.84 62.6622C221.863 62.8021 222.892 63.0018 223.891 63.2465C224.25 63.3364 224.47 63.701 224.38 64.0605C224.29 64.3851 223.996 64.5949 223.676 64.5749Z" fill="#A78BEF"/>
</g>
<g opacity="0.3">
<path d="M215.312 120.342C214.948 120.317 214.668 120.002 214.688 119.633C214.708 119.263 215.023 118.978 215.397 118.998C216.511 119.058 217.639 119.053 218.748 118.978C219.118 118.958 219.437 119.233 219.462 119.603C219.487 119.972 219.207 120.292 218.838 120.317C217.674 120.392 216.491 120.402 215.322 120.337C215.317 120.342 215.317 120.342 215.312 120.342ZM211.901 119.947C211.876 119.947 211.851 119.942 211.832 119.937C210.683 119.732 209.529 119.458 208.411 119.118C208.056 119.008 207.856 118.634 207.961 118.279C208.071 117.925 208.446 117.725 208.8 117.83C209.869 118.154 210.963 118.414 212.061 118.609C212.426 118.674 212.67 119.023 212.606 119.388C212.546 119.737 212.236 119.972 211.901 119.947ZM222.154 119.887C221.859 119.867 221.6 119.648 221.54 119.343C221.47 118.978 221.709 118.629 222.074 118.559C223.173 118.349 224.266 118.069 225.325 117.73C225.68 117.62 226.054 117.81 226.169 118.164C226.284 118.519 226.089 118.893 225.734 119.008C224.626 119.363 223.477 119.658 222.329 119.877C222.264 119.887 222.209 119.892 222.154 119.887ZM205.339 117.955C205.265 117.95 205.185 117.93 205.115 117.9C204.046 117.425 202.997 116.881 201.994 116.282C201.674 116.092 201.574 115.677 201.764 115.363C201.954 115.048 202.368 114.943 202.683 115.133C203.637 115.707 204.64 116.227 205.659 116.676C205.999 116.826 206.148 117.226 205.999 117.56C205.879 117.82 205.614 117.97 205.339 117.955ZM228.676 117.79C228.441 117.775 228.216 117.63 228.112 117.4C227.957 117.061 228.102 116.666 228.441 116.511C229.455 116.047 230.449 115.513 231.393 114.923C231.707 114.729 232.122 114.828 232.316 115.143C232.511 115.458 232.411 115.872 232.097 116.067C231.103 116.681 230.059 117.24 229 117.73C228.896 117.78 228.786 117.8 228.676 117.79ZM234.509 114.189C234.329 114.179 234.149 114.089 234.029 113.94C233.8 113.65 233.845 113.225 234.134 112.996C235.008 112.297 235.842 111.542 236.626 110.748C236.886 110.484 237.31 110.479 237.575 110.738C237.84 110.998 237.845 111.423 237.585 111.687C236.766 112.521 235.892 113.31 234.973 114.044C234.838 114.154 234.674 114.199 234.509 114.189ZM239.313 109.295C239.183 109.285 239.058 109.24 238.948 109.155C238.654 108.931 238.599 108.506 238.823 108.212C239.503 107.328 240.137 106.394 240.701 105.435C240.891 105.115 241.3 105.01 241.62 105.2C241.94 105.39 242.045 105.8 241.855 106.119C241.26 107.123 240.601 108.107 239.887 109.036C239.747 109.22 239.528 109.31 239.313 109.295Z" fill="#BDD0FB"/>
<path d="M199.431 114.409C199.302 114.399 199.177 114.354 199.067 114.269C198.612 113.915 198.168 113.545 197.744 113.176C197.464 112.931 197.439 112.506 197.684 112.227C197.928 111.952 198.353 111.922 198.632 112.167C199.037 112.521 199.461 112.876 199.891 113.21C200.186 113.44 200.235 113.86 200.006 114.154C199.861 114.334 199.646 114.424 199.431 114.409Z" fill="#BDD0FB"/>
</g>
<path d="M200.57 105.794C200.655 105.914 200.805 105.964 200.944 105.924L204.915 104.761C206.363 106.039 208.026 107.098 209.859 107.872L210.533 111.952C210.558 112.097 210.668 112.207 210.812 112.232L215.706 113.066C215.851 113.091 215.991 113.021 216.061 112.896L218.044 109.27C220.026 109.15 221.949 108.701 223.737 107.972L227.097 110.384C227.217 110.469 227.372 110.469 227.492 110.384L231.542 107.512C231.662 107.427 231.712 107.278 231.672 107.138L230.508 103.168C231.787 101.719 232.845 100.056 233.619 98.2237L237.699 97.5496C237.844 97.5246 237.954 97.4147 237.979 97.2699L238.813 92.3759C238.838 92.2311 238.768 92.0912 238.643 92.0213L235.018 90.0387C234.898 88.0562 234.448 86.1335 233.719 84.3457L236.131 80.9848C236.216 80.865 236.216 80.7102 236.131 80.5903L233.26 76.5403C233.175 76.4204 233.025 76.3705 232.885 76.4104L228.915 77.574C227.467 76.2956 225.804 75.2369 223.971 74.4628L223.297 70.3828C223.272 70.238 223.162 70.1281 223.017 70.1032L218.123 69.2692C217.979 69.2442 217.839 69.3141 217.769 69.439L215.786 73.0645C213.804 73.1844 211.881 73.6338 210.093 74.3629L206.732 71.9509C206.613 71.866 206.458 71.866 206.338 71.9509L202.288 74.8224C202.168 74.9073 202.118 75.0571 202.158 75.1969L203.322 79.1671C202.043 80.6153 200.984 82.2783 200.21 84.111L196.13 84.7852C195.986 84.8102 195.876 84.92 195.851 85.0648L195.017 89.9589C194.992 90.1037 195.062 90.2435 195.187 90.3134L198.812 92.296C198.932 94.2786 199.381 96.2012 200.111 97.989L197.698 101.35C197.614 101.47 197.614 101.625 197.698 101.744L200.57 105.794Z" fill="#A78BEF"/>
<path d="M216.56 96.2363C215.481 96.1614 214.453 95.7469 213.619 95.0328C212.585 94.1538 211.961 92.9204 211.856 91.572C211.636 88.7804 213.728 86.3334 216.52 86.1087C219.317 85.894 221.764 87.9814 221.983 90.773C222.088 92.1263 221.664 93.4397 220.785 94.4685C219.906 95.5022 218.672 96.1264 217.324 96.2313C217.059 96.2513 216.805 96.2513 216.56 96.2363ZM217.169 87.4421C216.989 87.4321 216.805 87.4321 216.62 87.4471C214.567 87.6119 213.029 89.4097 213.189 91.4671C213.269 92.4609 213.728 93.3648 214.487 94.014C215.247 94.6632 216.21 94.9728 217.209 94.8979C218.203 94.818 219.107 94.3586 219.756 93.5995C220.405 92.8405 220.72 91.8766 220.64 90.8779C220.49 89.0051 218.982 87.5619 217.169 87.4421Z" fill="url(#paint2_linear_1882_4781)"/>
<path d="M216.147 103.717C215.723 103.687 215.298 103.637 214.869 103.567C214.02 103.422 213.186 103.193 212.387 102.878C212.352 102.863 212.317 102.848 212.277 102.833C212.002 102.723 211.837 102.448 211.857 102.164C211.862 102.094 211.877 102.024 211.902 101.959C212.042 101.614 212.432 101.45 212.776 101.584C213.52 101.884 214.299 102.104 215.093 102.239C215.138 102.249 215.183 102.254 215.223 102.259C217.106 102.558 218.989 102.384 220.737 101.764C221.685 101.43 222.594 100.965 223.443 100.376C223.448 100.371 223.458 100.366 223.463 100.361C223.483 100.346 223.503 100.331 223.528 100.316C225.99 98.5682 227.628 95.9664 228.133 92.99C228.197 92.6055 228.242 92.2209 228.272 91.8364C228.447 89.2496 227.733 86.7027 226.215 84.5553C224.467 82.0933 221.865 80.4553 218.889 79.951C215.912 79.4466 212.916 80.1258 210.454 81.8736C207.992 83.6215 206.354 86.2233 205.85 89.1996C205.785 89.5792 205.74 89.9587 205.715 90.3383C205.605 91.9912 205.855 93.6442 206.454 95.1873C206.489 95.2822 206.504 95.3821 206.499 95.477C206.484 95.7266 206.324 95.9614 206.075 96.0562C205.73 96.1911 205.34 96.0213 205.206 95.6717C204.531 93.9438 204.252 92.0911 204.377 90.2434C204.407 89.8189 204.456 89.3894 204.526 88.9699C205.096 85.639 206.923 82.7276 209.68 80.775C212.437 78.8223 215.788 78.0533 219.119 78.6226C222.449 79.1869 225.361 81.0197 227.314 83.7763C229.016 86.1733 229.815 89.0249 229.616 91.9213C229.586 92.3508 229.536 92.7803 229.461 93.2147C228.362 99.6668 222.539 104.151 216.147 103.717Z" fill="url(#paint3_linear_1882_4781)"/>
<path d="M253.991 255.851L247.809 298.508H319.521L310.182 255.851H253.991Z" fill="#E527BB"/>
<path d="M133.527 119.273V246.232C133.527 256.675 141.852 265.219 152.289 265.489C198.663 266.682 360.849 269.584 404.99 268.935C412.576 268.825 418.723 262.752 418.943 255.167C419.792 225.673 421.175 154.749 416.061 121.82C414.983 114.883 409.13 109.7 402.118 109.475C363.266 108.231 191.337 104.286 147.216 105.275C139.605 105.445 133.527 111.662 133.527 119.273Z" fill="#E527BB"/>
<path d="M141 118.607V239.224C141 245.322 145.894 250.291 151.992 250.381L398.145 253.422C404.188 253.512 409.147 248.648 409.167 242.605L409.576 123.061C409.591 118.737 406.15 115.196 401.826 115.091L149.814 110.002C144.985 109.888 141 113.773 141 118.607Z" fill="#BDD0FB"/>
<path d="M411.519 258.417H411.514L141.495 253.818C141.305 253.813 141.155 253.658 141.16 253.474C141.165 253.284 141.32 253.139 141.51 253.139L411.529 257.738C411.719 257.743 411.869 257.898 411.864 258.083C411.854 258.268 411.704 258.417 411.519 258.417Z" fill="#91B3FA"/>
<path d="M334.967 309.85H230.016C227.164 309.85 225.022 307.822 225.576 305.64L226.924 300.311C227.329 298.708 229.092 297.535 231.184 297.47L332.365 294.314C334.553 294.244 336.49 295.407 336.965 297.07L339.392 305.555C340.016 307.757 337.864 309.85 334.967 309.85Z" fill="#E527BB"/>
<path d="M286.512 298.913C286.327 298.913 286.172 298.763 286.172 298.578C286.167 298.388 286.322 298.234 286.507 298.234L290.841 298.169C291.021 298.169 291.186 298.319 291.186 298.503C291.191 298.693 291.036 298.848 290.851 298.848L286.517 298.913H286.512Z" fill="#91B3FA"/>
<path d="M229.453 306.913C229.433 306.913 229.418 306.913 229.398 306.908C229.214 306.878 229.084 306.703 229.114 306.518L229.733 302.643C230.068 300.561 231.835 299.028 233.943 298.998L279.931 298.323H279.936C280.121 298.323 280.276 298.473 280.276 298.658C280.281 298.848 280.126 299.003 279.941 299.003L233.953 299.677C232.18 299.702 230.687 300.995 230.407 302.748L229.788 306.623C229.763 306.793 229.618 306.913 229.453 306.913Z" fill="#91B3FA"/>
<g opacity="0.53">
<path d="M284.624 127.088H278.152V241.283H284.624V127.088Z" fill="#91B3FA"/>
<path d="M295.441 127.088H288.969V241.283H295.441V127.088Z" fill="#91B3FA"/>
<path d="M306.257 127.088H299.785V241.283H306.257V127.088Z" fill="#91B3FA"/>
<path d="M317.078 127.088H310.605V241.283H317.078V127.088Z" fill="#91B3FA"/>
<path d="M327.894 127.088H321.422V241.283H327.894V127.088Z" fill="#91B3FA"/>
<path d="M338.71 127.088H332.238V241.283H338.71V127.088Z" fill="#91B3FA"/>
<path d="M349.527 127.088H343.055V241.283H349.527V127.088Z" fill="#91B3FA"/>
</g>
<path d="M284.624 181.517H278.152V241.278H284.624V181.517Z" fill="#E527BB"/>
<path d="M295.441 202.057H288.969V241.279H295.441V202.057Z" fill="#E527BB"/>
<path d="M306.257 151.294H299.785V241.279H306.257V151.294Z" fill="#E527BB"/>
<path d="M317.078 219.665H310.605V241.283H317.078V219.665Z" fill="#E527BB"/>
<path d="M327.894 163.324H321.422V241.279H327.894V163.324Z" fill="#E527BB"/>
<path d="M338.71 176.823H332.238V241.279H338.71V176.823Z" fill="#E527BB"/>
<path d="M349.527 191.494H343.055V241.278H349.527V191.494Z" fill="#E527BB"/>
<path d="M260.132 241.913L159.24 241.154C157.248 241.139 155.645 239.521 155.645 237.528V185.691C155.645 183.689 157.268 182.066 159.27 182.066H260.162C262.164 182.066 263.787 183.689 263.787 185.691V238.287C263.782 240.3 262.139 241.928 260.132 241.913Z" fill="#A78BEF"/>
<path opacity="0.44" d="M244.481 205.477L231.506 191.759L212.904 211.994L199.78 197.832L187.47 211.75L178.032 200.279L159.43 219.65V233.658C159.43 235.51 160.923 237.014 162.776 237.029L256.611 237.733C258.483 237.748 260.007 236.235 260.007 234.362V196.259L244.481 205.477Z" fill="white"/>
<path d="M244.902 205.093H244.562V237.728H244.902V205.093Z" fill="white"/>
<path d="M231.676 191.759H231.336V237.538H231.676V191.759Z" fill="white"/>
<path d="M213.074 211.745H212.734V237.398H213.074V211.745Z" fill="white"/>
<path d="M200.297 198.331H199.957V237.398H200.297V198.331Z" fill="white"/>
<path d="M187.636 211.33H187.297V237.398H187.636V211.33Z" fill="white"/>
<path d="M178.394 199.305H178.055V237.149H178.394V199.305Z" fill="white"/>
<path d="M178.227 202.156C179.801 202.156 181.078 200.88 181.078 199.305C181.078 197.73 179.801 196.453 178.227 196.453C176.652 196.453 175.375 197.73 175.375 199.305C175.375 200.88 176.652 202.156 178.227 202.156Z" fill="url(#paint4_linear_1882_4781)"/>
<path d="M189.345 211.33C189.345 212.369 188.506 213.208 187.468 213.208C186.429 213.208 185.59 212.369 185.59 211.33C185.59 210.291 186.429 209.452 187.468 209.452C188.506 209.452 189.345 210.291 189.345 211.33Z" fill="#E527BB"/>
<path d="M202.001 198.331C202.001 199.37 201.163 200.209 200.124 200.209C199.085 200.209 198.246 199.37 198.246 198.331C198.246 197.292 199.085 196.453 200.124 196.453C201.163 196.453 202.001 197.292 202.001 198.331Z" fill="#E527BB"/>
<path d="M214.783 211.745C214.783 212.783 213.944 213.622 212.905 213.622C211.866 213.622 211.027 212.783 211.027 211.745C211.027 210.706 211.866 209.867 212.905 209.867C213.944 209.867 214.783 210.706 214.783 211.745Z" fill="#E527BB"/>
<path d="M233.384 191.759C233.384 192.798 232.545 193.637 231.507 193.637C230.468 193.637 229.629 192.798 229.629 191.759C229.629 190.72 230.468 189.881 231.507 189.881C232.545 189.881 233.384 190.72 233.384 191.759Z" fill="#E527BB"/>
<path d="M246.607 205.093C246.607 206.132 245.768 206.97 244.729 206.97C243.691 206.97 242.852 206.132 242.852 205.093C242.852 204.054 243.691 203.215 244.729 203.215C245.768 203.215 246.607 204.059 246.607 205.093Z" fill="#E527BB"/>
<g opacity="0.48">
<path d="M184.795 173.441H157.139C155.981 173.441 155.047 174.096 155.047 174.9C155.047 175.704 155.986 176.358 157.139 176.358H184.795C185.954 176.358 186.888 175.704 186.888 174.9C186.893 174.096 185.954 173.441 184.795 173.441Z" fill="white"/>
<path d="M184.795 166.979H157.139C155.981 166.979 155.047 167.633 155.047 168.437C155.047 169.241 155.986 169.896 157.139 169.896H184.795C185.954 169.896 186.888 169.241 186.888 168.437C186.888 167.633 185.954 166.979 184.795 166.979Z" fill="#91B3FA"/>
<path d="M184.795 160.522H157.139C155.981 160.522 155.047 161.176 155.047 161.98C155.047 162.784 155.986 163.439 157.139 163.439H184.795C185.954 163.439 186.888 162.784 186.888 161.98C186.888 161.176 185.954 160.522 184.795 160.522Z" fill="#91B3FA"/>
</g>
<g opacity="0.48">
<path d="M223.241 173.441H195.585C194.426 173.441 193.492 174.096 193.492 174.9C193.492 175.704 194.431 176.358 195.585 176.358H223.241C224.399 176.358 225.333 175.704 225.333 174.9C225.333 174.096 224.394 173.441 223.241 173.441Z" fill="#91B3FA"/>
<path d="M223.241 166.979H195.585C194.426 166.979 193.492 167.633 193.492 168.437C193.492 169.241 194.431 169.896 195.585 169.896H223.241C224.399 169.896 225.333 169.241 225.333 168.437C225.333 167.633 224.394 166.979 223.241 166.979Z" fill="#91B3FA"/>
<path d="M223.241 160.522H195.585C194.426 160.522 193.492 161.176 193.492 161.98C193.492 162.784 194.431 163.439 195.585 163.439H223.241C224.399 163.439 225.333 162.784 225.333 161.98C225.333 161.176 224.394 160.522 223.241 160.522Z" fill="#91B3FA"/>
</g>
<g opacity="0.48">
<path d="M261.686 173.441H234.03C232.871 173.441 231.938 174.096 231.938 174.9C231.938 175.704 232.876 176.358 234.03 176.358H261.686C262.845 176.358 263.779 175.704 263.779 174.9C263.784 174.096 262.845 173.441 261.686 173.441Z" fill="#91B3FA"/>
<path d="M261.686 166.979H234.03C232.871 166.979 231.938 167.633 231.938 168.437C231.938 169.241 232.876 169.896 234.03 169.896H261.686C262.845 169.896 263.779 169.241 263.779 168.437C263.779 167.633 262.845 166.979 261.686 166.979Z" fill="#91B3FA"/>
<path d="M261.686 160.522H234.03C232.871 160.522 231.938 161.176 231.938 161.98C231.938 162.784 232.876 163.439 234.03 163.439H261.686C262.845 163.439 263.779 162.784 263.779 161.98C263.779 161.176 262.845 160.522 261.686 160.522Z" fill="#91B3FA"/>
</g>
<path opacity="0.91" d="M378.702 192.314C385.771 192.314 391.501 186.583 391.501 179.514C391.501 172.445 385.771 166.715 378.702 166.715C371.633 166.715 365.902 172.445 365.902 179.514C365.902 186.583 371.633 192.314 378.702 192.314Z" fill="white"/>
<path d="M386.307 176.807C386.701 177.771 386.921 178.825 386.921 179.929C386.921 184.468 383.24 188.149 378.701 188.149C374.161 188.149 370.481 184.468 370.481 179.929C370.481 175.389 374.161 171.709 378.701 171.709C378.841 171.709 378.98 171.714 379.115 171.719V169.636C378.975 169.631 378.841 169.626 378.701 169.626C373.013 169.626 368.398 174.241 368.398 179.929C368.398 185.617 373.013 190.231 378.701 190.231C384.389 190.231 389.003 185.617 389.003 179.929C389.003 178.525 388.724 177.192 388.214 175.973L386.307 176.807Z" fill="#E527BB"/>
<path d="M389.219 197.732H368.364C367.056 197.732 365.992 198.791 365.992 200.104C365.992 201.412 367.051 202.476 368.364 202.476H389.219C390.527 202.476 391.591 201.417 391.591 200.104C391.591 198.791 390.532 197.732 389.219 197.732Z" fill="#91B3FA"/>
<path opacity="0.91" d="M378.647 151.179C385.716 151.179 391.446 145.448 391.446 138.379C391.446 131.311 385.716 125.58 378.647 125.58C371.578 125.58 365.848 131.311 365.848 138.379C365.848 145.448 371.578 151.179 378.647 151.179Z" fill="white"/>
<path d="M382.998 145.755C381.73 146.554 380.227 147.019 378.619 147.019C374.079 147.019 370.399 143.338 370.399 138.799C370.399 134.26 374.079 130.579 378.619 130.579C378.759 130.579 378.898 130.584 379.033 130.589V128.507C378.893 128.502 378.759 128.497 378.619 128.497C372.931 128.497 368.316 133.111 368.316 138.799C368.316 144.487 372.931 149.101 378.619 149.101C380.606 149.101 382.459 148.537 384.032 147.563L382.998 145.755Z" fill="#E527BB"/>
<path d="M389.273 156.597H368.419C367.111 156.597 366.047 157.656 366.047 158.969C366.047 160.283 367.106 161.341 368.419 161.341H389.273C390.582 161.341 391.646 160.283 391.646 158.969C391.646 157.656 390.587 156.597 389.273 156.597Z" fill="#91B3FA"/>
<path opacity="0.91" d="M378.756 233.643C385.825 233.643 391.556 227.912 391.556 220.843C391.556 213.774 385.825 208.044 378.756 208.044C371.687 208.044 365.957 213.774 365.957 220.843C365.957 227.912 371.687 233.643 378.756 233.643Z" fill="white"/>
<path d="M385.72 225.473C384.242 227.645 381.75 229.073 378.923 229.073C374.384 229.073 370.704 225.393 370.704 220.853C370.704 216.314 374.384 212.633 378.923 212.633C379.063 212.633 379.203 212.638 379.338 212.643V210.561C379.198 210.556 379.063 210.551 378.923 210.551C373.235 210.551 368.621 215.165 368.621 220.853C368.621 226.541 373.235 231.156 378.923 231.156C382.444 231.156 385.55 229.388 387.408 226.696L385.72 225.473Z" fill="#E527BB"/>
<path d="M368.321 243.391H389.176C390.484 243.391 391.548 242.332 391.548 241.019C391.548 239.705 390.489 238.646 389.176 238.646H368.321C367.013 238.646 365.949 239.705 365.949 241.019C365.954 242.332 367.013 243.391 368.321 243.391Z" fill="#91B3FA"/>
<path d="M408.161 42.7814L287.069 42.1971C285.611 42.1821 284.423 43.8002 284.438 45.7827L284.707 93.6891C284.717 95.6866 285.936 97.2797 287.404 97.2197L407.802 94.6429C409.2 94.588 410.318 93.0349 410.338 91.1322L410.758 46.382C410.778 44.4144 409.609 42.7964 408.161 42.7814Z" fill="#A78BEF"/>
<path d="M287.325 94.1536C287.101 94.1536 286.926 93.9438 286.926 93.6692L286.656 45.7628C286.656 45.638 286.691 45.5281 286.756 45.4332C286.851 45.2984 286.971 45.2734 287.056 45.2734L408.147 45.8577C408.232 45.8577 408.347 45.8877 408.442 46.0225C408.507 46.1174 408.542 46.2273 408.542 46.3521L408.123 91.1023C408.123 91.367 407.953 91.5718 407.738 91.5817H407.733L287.325 94.1536ZM287.056 45.5831C287.046 45.5831 287.031 45.5831 287.006 45.618C286.976 45.658 286.966 45.7029 286.966 45.7628L287.236 93.6692C287.236 93.7741 287.29 93.844 287.32 93.844L407.723 91.2671C407.753 91.2671 407.808 91.1972 407.808 91.0923L408.227 46.3471C408.227 46.2872 408.212 46.2423 408.187 46.2023C408.162 46.1673 408.147 46.1673 408.142 46.1673L287.056 45.5831Z" fill="url(#paint5_linear_1882_4781)"/>
<g opacity="0.6">
<path d="M297.877 67.5413H291.984V90.0587H297.877V67.5413Z" fill="white"/>
<path d="M307.721 75.2766H301.828V90.0585H307.721V75.2766Z" fill="white"/>
<path d="M317.569 56.1501H311.676V90.0586H317.569V56.1501Z" fill="white"/>
<path d="M327.416 81.9136H321.523V90.0586H327.416V81.9136Z" fill="white"/>
<path d="M337.256 60.6846H331.363V90.0586H337.256V60.6846Z" fill="white"/>
<path d="M347.104 65.7683H341.211V90.0586H347.104V65.7683Z" fill="white"/>
<path d="M356.955 71.2966H351.062V90.0587H356.955V71.2966Z" fill="white"/>
<path d="M366.799 49.2986H360.906V90.0587H366.799V49.2986Z" fill="white"/>
<path d="M376.647 53.6082H370.754V90.0585H376.647V53.6082Z" fill="white"/>
<path d="M386.494 60.1301H380.602V90.0585H386.494V60.1301Z" fill="white"/>
<path d="M396.334 82.6677H390.441V90.0587H396.334V82.6677Z" fill="white"/>
<path d="M406.182 68.3152H400.289V90.0586H406.182V68.3152Z" fill="white"/>
</g>
<path d="M264.436 96.401L147.709 95.8417C146.301 95.8267 145.162 97.3848 145.172 99.2974L145.432 145.481C145.442 147.409 146.615 148.942 148.028 148.887L264.091 146.4C265.44 146.345 266.518 144.852 266.538 143.014L266.943 99.8767C266.958 97.969 265.834 96.411 264.436 96.401Z" fill="#A78BEF"/>
<path d="M147.949 145.92C147.734 145.92 147.564 145.716 147.564 145.456L147.305 99.2724C147.305 99.1526 147.335 99.0427 147.4 98.9578C147.494 98.8279 147.609 98.803 147.689 98.803L264.416 99.3623C264.496 99.3623 264.611 99.3923 264.701 99.5171C264.766 99.607 264.796 99.7119 264.796 99.8317L264.391 142.969C264.391 143.224 264.232 143.423 264.022 143.433H264.017L147.949 145.92ZM147.689 99.1026C147.684 99.1026 147.669 99.1026 147.644 99.1326C147.619 99.1675 147.604 99.2125 147.604 99.2724L147.864 145.456C147.864 145.556 147.919 145.626 147.949 145.626L264.017 143.139C264.047 143.139 264.097 143.069 264.097 142.974L264.501 99.8367C264.501 99.7818 264.491 99.7368 264.461 99.6969C264.436 99.6619 264.421 99.6619 264.416 99.6619L147.689 99.1026Z" fill="url(#paint6_linear_1882_4781)"/>
<path d="M175.467 126.121C180.882 122.218 182.107 114.665 178.204 109.251C174.302 103.837 166.749 102.611 161.335 106.514C155.92 110.416 154.695 117.969 158.597 123.383C162.5 128.798 170.053 130.023 175.467 126.121Z" fill="white"/>
<path d="M198.331 128.407C205.006 128.407 210.416 122.996 210.416 116.322C210.416 109.647 205.006 104.236 198.331 104.236C191.657 104.236 186.246 109.647 186.246 116.322C186.246 122.996 191.657 128.407 198.331 128.407Z" fill="white"/>
<path d="M228.366 128.806C235.041 128.806 240.452 123.395 240.452 116.721C240.452 110.046 235.041 104.636 228.366 104.636C221.692 104.636 216.281 110.046 216.281 116.721C216.281 123.395 221.692 128.806 228.366 128.806Z" fill="white"/>
<path d="M175.585 113.77C175.96 114.679 176.164 115.677 176.164 116.721C176.164 121.006 172.689 124.482 168.404 124.482C164.119 124.482 160.643 121.006 160.643 116.721C160.643 112.436 164.119 108.961 168.404 108.961C168.534 108.961 168.664 108.966 168.793 108.971V107.003C168.664 106.998 168.534 106.993 168.404 106.993C163.03 106.993 158.676 111.348 158.676 116.721C158.676 122.094 163.03 126.449 168.404 126.449C173.777 126.449 178.132 122.094 178.132 116.721C178.132 115.398 177.867 114.139 177.388 112.986L175.585 113.77Z" fill="#A78BEF"/>
<path d="M202.441 123.288C201.243 124.042 199.824 124.482 198.306 124.482C194.021 124.482 190.546 121.006 190.546 116.721C190.546 112.436 194.021 108.961 198.306 108.961C198.436 108.961 198.566 108.966 198.696 108.971V107.003C198.566 106.998 198.436 106.993 198.306 106.993C192.933 106.993 188.578 111.348 188.578 116.721C188.578 122.094 192.933 126.449 198.306 126.449C200.184 126.449 201.932 125.92 203.42 125.001L202.441 123.288Z" fill="#A78BEF"/>
<path d="M234.954 121.086C233.556 123.138 231.203 124.482 228.537 124.482C224.247 124.482 220.776 121.006 220.776 116.721C220.776 112.436 224.252 108.961 228.537 108.961C228.667 108.961 228.796 108.966 228.926 108.971V107.003C228.796 106.998 228.667 106.993 228.537 106.993C223.163 106.993 218.809 111.348 218.809 116.721C218.809 122.094 223.163 126.449 228.537 126.449C231.863 126.449 234.794 124.781 236.552 122.239L234.954 121.086Z" fill="#A78BEF"/>
<path opacity="0.5" d="M178.339 133.531H158.644C157.405 133.531 156.406 134.534 156.406 135.768C156.406 137.006 157.41 138.005 158.644 138.005H178.339C179.578 138.005 180.577 137.001 180.577 135.768C180.577 134.529 179.573 133.531 178.339 133.531Z" fill="white"/>
<path opacity="0.5" d="M208.371 133.531H188.675C187.436 133.531 186.438 134.534 186.438 135.768C186.438 137.006 187.441 138.005 188.675 138.005H208.371C209.609 138.005 210.608 137.001 210.608 135.768C210.613 134.529 209.609 133.531 208.371 133.531Z" fill="white"/>
<path opacity="0.5" d="M218.526 138.005H238.222C239.461 138.005 240.459 137.001 240.459 135.768C240.459 134.529 239.456 133.531 238.222 133.531H218.526C217.288 133.531 216.289 134.534 216.289 135.768C216.289 137.001 217.293 138.005 218.526 138.005Z" fill="white"/>
<path d="M164.307 317.985C164.307 317.985 163.633 321.79 163.303 325.56C163.173 327.034 164.312 328.312 165.785 328.372C170.804 328.582 181.541 328.986 185.391 328.816C185.97 328.791 186.35 328.197 186.135 327.658C185.955 327.208 185.611 326.844 185.166 326.639L167.438 318.494L164.307 317.985Z" fill="#A78BEF"/>
<path d="M163.754 315.747L164.293 320.302C164.293 320.302 167.399 321.75 169.522 320.117L168.233 315.043L163.754 315.747Z" fill="url(#paint7_linear_1882_4781)"/>
<path d="M164.161 230.127C163.927 231.316 162.908 289.479 169.125 315.542C169.225 315.967 169.01 316.406 168.606 316.571C167.652 316.961 165.784 317.525 163.542 317.6C162.848 317.625 162.229 317.17 162.029 316.506C160.251 310.459 151.737 280.161 150.623 251.216C149.379 218.876 150.623 250.113 150.623 250.113L151.352 230.122L164.161 230.127Z" fill="black"/>
<path d="M143.905 319.972C143.905 319.972 142.836 321.895 141.797 327.004C141.613 327.927 142.257 328.806 143.191 328.901C144.849 329.066 147.4 329.276 149.443 329.261C150.387 329.256 151.121 328.432 151.006 327.498C150.781 325.635 150.072 322.574 147.895 320.192L143.905 319.972Z" fill="#A78BEF"/>
<path d="M142.965 314.114L144.228 321.001C144.228 321.001 145.477 321.93 147.949 321.256L147.344 313.845L142.965 314.114Z" fill="url(#paint8_linear_1882_4781)"/>
<path d="M139.555 231.91C134.471 262.597 140.658 307.752 142.746 316.591C142.875 317.131 143.31 317.545 143.859 317.64C144.793 317.795 146.326 317.92 147.834 317.48C148.354 317.33 148.723 316.861 148.743 316.317C149.023 309.17 148.519 265.304 153.258 247.965C153.497 247.086 154.037 246.322 154.776 245.793L163.97 239.256L164.674 228.689L139.555 231.91Z" fill="black"/>
<path d="M171.955 173.766C156.719 173.517 139.905 177.766 139.905 177.766C135.36 204.269 139.111 234.836 139.111 234.836C150.906 237.928 164.215 232.944 164.215 232.944C166.177 221.867 175.321 190.691 175.321 190.691C182.767 189.767 188.9 187.619 193.948 184.778C190.098 180.313 188.28 174.63 187.491 171.269C182.108 172.952 176.655 173.846 171.955 173.766Z" fill="#A78BEF"/>
<path d="M216.965 151.324C215.467 149.516 213.574 150.37 213.574 150.37C211.332 159.843 199.576 167.524 187.496 171.274C188.285 174.635 190.103 180.318 193.953 184.783C213.999 173.511 216.965 151.324 216.965 151.324Z" fill="url(#paint9_linear_1882_4781)"/>
<path d="M216.599 151.783C216.754 152.283 214.941 153.042 213.873 151.004C213.838 150.03 213.243 145.845 213.823 145.051C216.929 140.817 222.952 135.508 222.952 135.508C223.97 136.512 223.131 137.501 223.131 137.501L220.21 140.542C220.819 141.646 221.568 142.579 221.918 143.913C222.183 144.927 222.023 146.005 221.508 146.924C220.994 147.848 220.295 149.046 219.636 149.99C218.387 151.768 216.599 151.783 216.599 151.783Z" fill="url(#paint10_linear_1882_4781)"/>
<path d="M218.937 142.514L216.275 144.772L215.441 147.019L217.814 149.651C217.814 149.651 218.613 145.191 219.207 144.227C219.796 143.263 219.486 142.794 218.937 142.514Z" fill="url(#paint11_linear_1882_4781)"/>
<path d="M145.75 192.523L139.907 177.766C139.907 177.766 125.674 187.439 123.332 199.699C126.024 199.899 130.913 200.598 135.707 203.015C136.756 197.227 145.75 192.523 145.75 192.523Z" fill="#A78BEF"/>
<path d="M158.186 206.406C158.186 206.406 142.206 215.435 136.813 207.725C135.694 206.122 135.424 204.534 135.699 203.015C130.91 200.598 126.016 199.899 123.324 199.699C122.62 203.395 122.99 207.325 125.162 211.3C134.605 228.579 160.294 210.346 160.294 210.346L158.186 206.406Z" fill="url(#paint12_linear_1882_4781)"/>
<path d="M156.265 217.832L164.984 187.375C165.084 187.03 165.379 186.775 165.733 186.735C167.311 186.551 171.891 186.031 177.179 185.587C183.546 185.047 190.942 184.613 195.362 184.982C195.991 185.037 196.371 185.702 196.091 186.266C193.579 191.35 183.242 212.029 178.063 218.806C177.893 219.031 177.629 219.161 177.344 219.161L157.114 218.966C156.524 218.961 156.105 218.397 156.265 217.832Z" fill="#E527BB"/>
<path d="M178.086 182.945L184.408 181.891C184.743 181.836 185.022 182.156 184.913 182.48L184.288 184.378C184.233 184.543 184.089 184.663 183.919 184.688L177.836 185.502C177.522 185.542 177.262 185.257 177.332 184.947L177.721 183.289C177.761 183.11 177.906 182.975 178.086 182.945Z" fill="#C918A8"/>
<path d="M173.351 188.298L173.87 185.587C173.92 185.317 174.145 185.107 174.425 185.082L187.194 183.784C187.623 183.739 187.968 184.134 187.868 184.553L187.054 187.934C186.989 188.204 186.755 188.398 186.475 188.413L173.995 189.043C173.591 189.063 173.276 188.698 173.351 188.298Z" fill="#C918A8"/>
<path d="M158.372 210.471C158.372 210.471 157.158 205.477 157.648 203.705C158.137 201.932 159.086 199.655 162.252 200.159C165.418 200.663 169.148 201.997 169.148 201.997C169.148 201.997 168.959 204.304 166.557 203.56L168.05 204.713C168.05 204.713 167.835 206.561 165.803 205.572L167.191 207.1C167.191 207.1 166.317 208.619 164.824 207.645C163.331 206.681 162.611 211.076 158.372 210.471Z" fill="url(#paint13_linear_1882_4781)"/>
<path d="M156.518 161.396L151.669 175.419C151.589 175.654 151.684 175.908 151.898 176.028C153.222 176.757 157.981 178.87 163.719 175.234C164.318 174.855 164.723 174.236 164.813 173.536L166.381 161.401L156.518 161.396Z" fill="url(#paint14_linear_1882_4781)"/>
<path d="M167.07 148.412C167.07 148.412 172.394 158.435 171.71 162.485C171.026 166.535 164.429 166.24 158.666 162.954L154.641 152.133L167.07 148.412Z" fill="url(#paint15_linear_1882_4781)"/>
<path d="M158.923 157.636C159.158 157.531 159.243 157.246 159.103 157.032C158.679 156.382 157.875 155.049 157.62 153.885C157.62 153.885 156.661 153.271 160.057 152.462C163.448 151.648 168.512 150.39 169.575 147.503C170.614 144.687 167.887 137.605 163.543 143.248C163.378 143.463 163.053 143.468 162.889 143.253C162.174 142.325 160.302 140.402 157.7 141.566C155.268 142.659 154.993 144.442 155.023 145.341C155.033 145.606 154.798 145.81 154.539 145.76C153.31 145.526 150.354 145.326 148.976 148.352C147.842 150.849 148.576 152.262 149.25 152.952C149.47 153.176 149.37 153.546 149.075 153.636C148.266 153.885 147.223 154.57 147.328 156.462C147.472 159.084 150.399 158.849 151.233 158.73C151.368 158.71 151.508 158.754 151.597 158.859C152.312 159.648 155.533 163.009 159.018 163.414C159.318 163.449 159.553 163.149 159.458 162.864L157.95 158.48C157.88 158.275 157.975 158.05 158.174 157.965L158.923 157.636Z" fill="black"/>
<path d="M159.534 158.26C159.534 158.26 155.743 155.658 155.464 157.851C155.189 160.043 158.88 161.022 160.707 160.208L159.534 158.26Z" fill="url(#paint16_linear_1882_4781)"/>
</g>
<defs>
<linearGradient id="paint0_linear_1882_4781" x1="263.089" y1="69.0884" x2="277.999" y2="69.0884" gradientUnits="userSpaceOnUse">
<stop stop-color="#DAE3FE"/>
<stop offset="1" stop-color="#E9EFFD"/>
</linearGradient>
<linearGradient id="paint1_linear_1882_4781" x1="252.336" y1="68.9884" x2="289.003" y2="68.9884" gradientUnits="userSpaceOnUse">
<stop stop-color="#DAE3FE"/>
<stop offset="1" stop-color="#E9EFFD"/>
</linearGradient>
<linearGradient id="paint2_linear_1882_4781" x1="211.834" y1="91.1681" x2="221.99" y2="91.1681" gradientUnits="userSpaceOnUse">
<stop stop-color="#DAE3FE"/>
<stop offset="1" stop-color="#E9EFFD"/>
</linearGradient>
<linearGradient id="paint3_linear_1882_4781" x1="204.347" y1="91.0981" x2="229.644" y2="91.0981" gradientUnits="userSpaceOnUse">
<stop stop-color="#DAE3FE"/>
<stop offset="1" stop-color="#E9EFFD"/>
</linearGradient>
<linearGradient id="paint4_linear_1882_4781" x1="180.611" y1="192.096" x2="168.65" y2="228.259" gradientUnits="userSpaceOnUse">
<stop stop-color="#FDF53F"/>
<stop offset="1" stop-color="#D93C65"/>
</linearGradient>
<linearGradient id="paint5_linear_1882_4781" x1="286.657" y1="69.7146" x2="408.542" y2="69.7146" gradientUnits="userSpaceOnUse">
<stop stop-color="#DAE3FE"/>
<stop offset="1" stop-color="#E9EFFD"/>
</linearGradient>
<linearGradient id="paint6_linear_1882_4781" x1="147.307" y1="122.361" x2="264.802" y2="122.361" gradientUnits="userSpaceOnUse">
<stop stop-color="#DAE3FE"/>
<stop offset="1" stop-color="#E9EFFD"/>
</linearGradient>
<linearGradient id="paint7_linear_1882_4781" x1="163.754" y1="317.971" x2="169.523" y2="317.971" gradientUnits="userSpaceOnUse">
<stop stop-color="#FEBBBA"/>
<stop offset="1" stop-color="#FF928E"/>
</linearGradient>
<linearGradient id="paint8_linear_1882_4781" x1="142.965" y1="317.676" x2="147.945" y2="317.676" gradientUnits="userSpaceOnUse">
<stop stop-color="#FEBBBA"/>
<stop offset="1" stop-color="#FF928E"/>
</linearGradient>
<linearGradient id="paint9_linear_1882_4781" x1="187.493" y1="167.475" x2="216.964" y2="167.475" gradientUnits="userSpaceOnUse">
<stop stop-color="#FEBBBA"/>
<stop offset="1" stop-color="#FF928E"/>
</linearGradient>
<linearGradient id="paint10_linear_1882_4781" x1="210.398" y1="162.535" x2="190.622" y2="207.529" gradientUnits="userSpaceOnUse">
<stop stop-color="#FEBBBA"/>
<stop offset="1" stop-color="#FF928E"/>
</linearGradient>
<linearGradient id="paint11_linear_1882_4781" x1="216.822" y1="147.55" x2="225.074" y2="134.863" gradientUnits="userSpaceOnUse">
<stop stop-color="#FEBBBA"/>
<stop offset="1" stop-color="#FF928E"/>
</linearGradient>
<linearGradient id="paint12_linear_1882_4781" x1="123.005" y1="209.22" x2="160.3" y2="209.22" gradientUnits="userSpaceOnUse">
<stop stop-color="#FEBBBA"/>
<stop offset="1" stop-color="#FF928E"/>
</linearGradient>
<linearGradient id="paint13_linear_1882_4781" x1="157.532" y1="205.309" x2="169.151" y2="205.309" gradientUnits="userSpaceOnUse">
<stop stop-color="#FEBBBA"/>
<stop offset="1" stop-color="#FF928E"/>
</linearGradient>
<linearGradient id="paint14_linear_1882_4781" x1="151.642" y1="169.348" x2="166.387" y2="169.348" gradientUnits="userSpaceOnUse">
<stop stop-color="#FEBBBA"/>
<stop offset="1" stop-color="#FF928E"/>
</linearGradient>
<linearGradient id="paint15_linear_1882_4781" x1="169.895" y1="159.967" x2="153.682" y2="150.079" gradientUnits="userSpaceOnUse">
<stop stop-color="#FEBBBA"/>
<stop offset="1" stop-color="#FF928E"/>
</linearGradient>
<linearGradient id="paint16_linear_1882_4781" x1="165.641" y1="163.655" x2="151.053" y2="154.758" gradientUnits="userSpaceOnUse">
<stop stop-color="#FEBBBA"/>
<stop offset="1" stop-color="#FF928E"/>
</linearGradient>
<clipPath id="clip0_1882_4781">
<rect width="542.64" height="328.79" fill="white"/>
</clipPath>
</defs>
</svg>
