<svg width="533" height="331" viewBox="0 0 533 331" fill="none" xmlns="http://www.w3.org/2000/svg">
<path opacity="0.2" fill-rule="evenodd" clip-rule="evenodd" d="M0 7.5756C0 7.5756 496.166 -10.2363 522.25 8.76437C545.499 25.7019 520.61 239.759 514.929 286.131C514.801 287.134 513.992 287.91 512.938 288.028C382.355 302.136 78.1811 295.779 13.6451 294.227C12.5792 294.197 11.7008 293.49 11.49 292.498C2.02627 247.216 0 7.5756 0 7.5756Z" fill="#999999"/>
<g clip-path="url(#clip0_1470_5234)">
<path d="M232.32 264.91H154.88C145.79 264.91 138.43 257.54 138.43 248.46V72.16C138.43 63.07 145.8 55.71 154.88 55.71H232.32C241.41 55.71 248.77 63.08 248.77 72.16V248.45C248.77 257.54 241.41 264.91 232.32 264.91Z" fill="#A78BEF"/>
<path d="M237.492 264.91H160.052C150.962 264.91 143.602 257.54 143.602 248.46V72.16C143.602 63.07 150.972 55.71 160.052 55.71H237.492C246.582 55.71 253.942 63.08 253.942 72.16V248.45C253.952 257.54 246.582 264.91 237.492 264.91Z" fill="#A78BEF"/>
<path d="M248.768 68.9199H149.918V243.06H248.768V68.9199Z" fill="#BBDDFF"/>
<g opacity="0.5">
<path d="M243.6 77.54H155.09V91.91H243.6V77.54Z" fill="#DEF0FF"/>
<path d="M243.6 98.8101H155.09V113.18H243.6V98.8101Z" fill="#DEF0FF"/>
<path d="M243.6 179.65H155.09V194.02H243.6V179.65Z" fill="#DEF0FF"/>
<path d="M243.6 200.92H155.09V215.29H243.6V200.92Z" fill="#DEF0FF"/>
<path d="M243.6 221.8H155.09V236.17H243.6V221.8Z" fill="#DEF0FF"/>
<path d="M196.47 120.07H155.09V173.09H196.47V120.07Z" fill="#DEF0FF"/>
<path d="M242.829 120.07H201.449V129.01H242.829V120.07Z" fill="#DEF0FF"/>
<path d="M242.829 134.76H201.449V143.7H242.829V134.76Z" fill="#DEF0FF"/>
<path d="M242.829 149.45H201.449V158.39H242.829V149.45Z" fill="#DEF0FF"/>
<path d="M242.829 164.14H201.449V173.08H242.829V164.14Z" fill="#DEF0FF"/>
</g>
<path opacity="0.5" d="M293.981 101.17H168.551V165.6H293.981V101.17Z" fill="black"/>
<path d="M296.93 97.4099H171.5V161.84H296.93V97.4099Z" fill="#F2F3F4"/>
<path d="M297.589 97.4099H243.309V161.84H297.589V97.4099Z" fill="#E527BB"/>
<path opacity="0.5" d="M274.496 150.466C284.657 148.098 290.974 137.941 288.605 127.781C286.237 117.621 276.081 111.304 265.92 113.672C255.76 116.04 249.443 126.197 251.811 136.357C254.18 146.518 264.336 152.834 274.496 150.466Z" fill="black"/>
<path d="M278.449 148.099C288.115 144.175 292.769 133.157 288.844 123.491C284.919 113.826 273.902 109.171 264.236 113.096C254.57 117.021 249.916 128.038 253.841 137.704C257.766 147.37 268.783 152.024 278.449 148.099Z" fill="#DBDBDB"/>
<path d="M277.59 145.935C286.061 142.487 290.132 132.824 286.684 124.354C283.237 115.883 273.574 111.811 265.104 115.259C256.633 118.707 252.561 128.369 256.009 136.84C259.457 145.311 269.119 149.383 277.59 145.935Z" fill="white"/>
<path opacity="0.5" d="M255.66 131.7C255.66 122.55 263.08 115.14 272.22 115.14C277.15 115.14 281.57 117.29 284.6 120.71C281.58 116.66 276.75 114.04 271.31 114.04C262.16 114.04 254.75 121.46 254.75 130.6C254.75 134.82 256.33 138.67 258.93 141.6C256.88 138.83 255.66 135.4 255.66 131.7Z" fill="#EAEAEA"/>
<g opacity="0.5">
<path d="M270.06 141.23C269.49 141.23 268.95 140.94 268.65 140.45L262.86 131.21C262.37 130.43 262.61 129.4 263.39 128.91C264.17 128.42 265.2 128.66 265.69 129.44L270.01 136.33L277.99 122.47C278.45 121.67 279.47 121.4 280.27 121.86C281.07 122.32 281.34 123.34 280.88 124.14L271.52 140.4C271.23 140.91 270.69 141.22 270.11 141.23C270.08 141.23 270.07 141.23 270.06 141.23Z" fill="#EAEAEA"/>
</g>
<path d="M270.661 140.52C270.091 140.52 269.551 140.23 269.251 139.74L263.461 130.5C262.971 129.72 263.211 128.69 263.991 128.2C264.771 127.71 265.801 127.95 266.291 128.73L270.611 135.62L278.591 121.76C279.051 120.96 280.071 120.69 280.871 121.15C281.671 121.61 281.941 122.63 281.481 123.43L272.121 139.69C271.831 140.2 271.291 140.51 270.711 140.52C270.681 140.52 270.671 140.52 270.661 140.52Z" fill="#E527BB"/>
<path d="M186.168 121.19C190.272 121.19 193.598 117.863 193.598 113.76C193.598 109.656 190.272 106.33 186.168 106.33C182.065 106.33 178.738 109.656 178.738 113.76C178.738 117.863 182.065 121.19 186.168 121.19Z" fill="#E527BB"/>
<path d="M185.957 114.81C185.667 114.81 185.438 114.58 185.438 114.29V108.6C185.438 108.31 185.667 108.08 185.957 108.08C186.247 108.08 186.478 108.31 186.478 108.6V114.29C186.488 114.58 186.247 114.81 185.957 114.81Z" fill="white"/>
<path d="M185.387 114.3C185.387 113.99 185.637 113.73 185.957 113.73H189.867C190.177 113.73 190.437 113.98 190.437 114.3C190.437 114.61 190.187 114.87 189.867 114.87H185.957C185.637 114.87 185.387 114.61 185.387 114.3Z" fill="white"/>
<path d="M239.217 109.2H200.637V112.21H239.217V109.2Z" fill="#E2E2E2"/>
<path d="M239.217 114.83H200.637V117.84H239.217V114.83Z" fill="#E2E2E2"/>
<path d="M239.217 139.88H200.637V142.89H239.217V139.88Z" fill="#E2E2E2"/>
<path d="M225.637 145.51H200.637V148.52H225.637V145.51Z" fill="#E2E2E2"/>
<path opacity="0.5" d="M231.282 172.91H105.852V237.34H231.282V172.91Z" fill="black"/>
<path d="M234.231 169.16H108.801V233.59H234.231V169.16Z" fill="#F2F3F4"/>
<path d="M234.889 169.16H180.609V233.59H234.889V169.16Z" fill="#A78BEF"/>
<path d="M172.97 189.52H114.09V192.53H172.97V189.52Z" fill="#E2E2E2"/>
<path d="M152.24 195.15H114.09V198.16H152.24V195.15Z" fill="#E2E2E2"/>
<path d="M172.97 203.05H114.09V206.06H172.97V203.05Z" fill="#E2E2E2"/>
<path d="M152.24 208.68H114.09V211.69H152.24V208.68Z" fill="#E2E2E2"/>
<path d="M172.97 218.06H114.09V221.07H172.97V218.06Z" fill="#E2E2E2"/>
<path d="M152.24 223.69H114.09V226.7H152.24V223.69Z" fill="#E2E2E2"/>
<path d="M115.391 178.97C115.391 178.19 115.591 177.59 115.981 177.17C116.381 176.75 116.951 176.54 117.691 176.54C118.431 176.54 119.011 176.75 119.401 177.17C119.801 177.59 119.991 178.19 119.991 178.97V183.99C119.991 184.77 119.791 185.37 119.401 185.79C119.001 186.21 118.431 186.42 117.691 186.42C116.941 186.42 116.371 186.21 115.981 185.79C115.581 185.37 115.391 184.77 115.391 183.99V178.97ZM116.911 184.09C116.911 184.44 116.981 184.69 117.121 184.83C117.261 184.97 117.451 185.04 117.691 185.04C117.931 185.04 118.121 184.97 118.261 184.83C118.401 184.69 118.471 184.44 118.471 184.09V178.87C118.471 178.52 118.401 178.27 118.261 178.13C118.121 177.99 117.931 177.92 117.691 177.92C117.451 177.92 117.261 177.99 117.121 178.13C116.981 178.27 116.911 178.52 116.911 178.87V184.09Z" fill="#E2E2E2"/>
<path d="M125.432 183.91C125.432 184.73 125.242 185.35 124.862 185.78C124.482 186.21 123.902 186.42 123.112 186.42C122.362 186.42 121.802 186.21 121.422 185.79C121.042 185.37 120.852 184.77 120.852 183.99V183.74H122.282V184.09C122.282 184.44 122.353 184.69 122.493 184.83C122.633 184.97 122.822 185.04 123.062 185.04C123.332 185.04 123.532 184.96 123.682 184.79C123.832 184.62 123.903 184.31 123.903 183.85V182.08C123.633 182.65 123.163 182.94 122.493 182.94C121.933 182.94 121.512 182.75 121.232 182.37C120.952 181.99 120.812 181.45 120.812 180.73V178.96C120.812 178.18 121.013 177.58 121.403 177.16C121.803 176.74 122.372 176.53 123.112 176.53C123.852 176.53 124.432 176.74 124.822 177.16C125.222 177.58 125.412 178.18 125.412 178.96V183.91H125.432ZM123.132 181.57C123.372 181.57 123.562 181.5 123.702 181.36C123.842 181.22 123.912 180.97 123.912 180.62V178.88C123.912 178.53 123.842 178.29 123.702 178.15C123.562 178.01 123.372 177.94 123.132 177.94C122.892 177.94 122.702 178.01 122.562 178.15C122.423 178.29 122.352 178.53 122.352 178.88V180.62C122.352 180.97 122.423 181.22 122.562 181.36C122.702 181.49 122.892 181.57 123.132 181.57Z" fill="#E2E2E2"/>
<path d="M127.901 179.59V181.05H126.441V179.59H127.901ZM127.901 184.85V186.31H126.441V184.85H127.901Z" fill="#E2E2E2"/>
<path d="M128.879 178.97C128.879 178.19 129.079 177.59 129.469 177.17C129.869 176.75 130.439 176.54 131.179 176.54C131.929 176.54 132.499 176.75 132.889 177.17C133.289 177.59 133.479 178.19 133.479 178.97V183.99C133.479 184.77 133.279 185.37 132.889 185.79C132.489 186.21 131.919 186.42 131.179 186.42C130.439 186.42 129.859 186.21 129.469 185.79C129.069 185.37 128.879 184.77 128.879 183.99V178.97ZM130.399 184.09C130.399 184.44 130.469 184.69 130.609 184.83C130.749 184.97 130.939 185.04 131.179 185.04C131.419 185.04 131.609 184.97 131.749 184.83C131.889 184.69 131.959 184.44 131.959 184.09V178.87C131.959 178.52 131.889 178.27 131.749 178.13C131.609 177.99 131.419 177.92 131.179 177.92C130.939 177.92 130.749 177.99 130.609 178.13C130.469 178.27 130.399 178.52 130.399 178.87V184.09Z" fill="#E2E2E2"/>
<path d="M135.842 183.19V184.09C135.842 184.44 135.912 184.68 136.052 184.82C136.192 184.96 136.382 185.03 136.622 185.03C136.862 185.03 137.052 184.96 137.192 184.82C137.332 184.68 137.402 184.44 137.402 184.09V181.97C137.402 181.62 137.332 181.37 137.192 181.23C137.052 181.09 136.862 181.02 136.622 181.02C136.382 181.02 136.192 181.09 136.052 181.23C135.912 181.37 135.842 181.62 135.842 181.97V182.26H134.402L134.682 176.66H138.682V178.04H136.042L135.922 180.34C136.212 179.87 136.652 179.64 137.242 179.64C137.802 179.64 138.222 179.83 138.502 180.21C138.782 180.59 138.922 181.13 138.922 181.85V184C138.922 184.78 138.732 185.38 138.352 185.8C137.972 186.22 137.402 186.43 136.662 186.43C135.912 186.43 135.352 186.22 134.972 185.8C134.592 185.38 134.402 184.78 134.402 184V183.2H135.842V183.19Z" fill="#E2E2E2"/>
<path opacity="0.5" d="M269.509 55.6301L268.199 53.0101L267.719 52.0501L271.689 43.4001L260.889 38.4401L255.889 28.4701C255.569 27.8301 254.809 27.4901 254.119 27.6601L243.299 30.3601L232.379 25.3501L228.359 34.0901L227.489 34.3101L224.629 35.0201C224.049 35.1601 223.739 35.5901 223.669 36.0501L210.579 64.5501L210.549 64.6301L210.249 65.2801L209.949 65.9201C209.399 66.5401 209.569 67.6201 210.519 68.0601L253.619 87.8501C254.399 88.2101 255.169 87.8901 255.479 87.3101L256.289 85.5401L269.429 56.9201L269.409 56.9101C269.689 56.5801 269.749 56.1101 269.509 55.6301Z" fill="black"/>
<path d="M271.016 56.0099L227.916 36.2199C226.686 35.6499 226.746 33.9999 228.016 33.6799L230.876 32.9599L233.196 32.3799L257.496 26.3099C258.186 26.1399 258.946 26.4799 259.266 27.1199L270.496 49.5099L271.576 51.6699L272.886 54.2899C273.466 55.4499 272.256 56.5699 271.016 56.0099Z" fill="#C10C9F"/>
<path d="M271.566 51.6599L268.366 58.6499L227.656 39.9599L230.876 32.9599L233.196 32.3799L270.486 49.5099L271.566 51.6599Z" fill="black"/>
<path d="M272.84 55.5986L227.109 34.6001L213.635 63.9453L259.366 84.9438L272.84 55.5986Z" fill="#D8A03D"/>
<path d="M253.656 79.13L221.586 64.4C219.586 63.48 218.716 61.12 219.626 59.13L235.756 24L275.056 42.05L258.926 77.18C258.016 79.17 255.656 80.04 253.656 79.13Z" fill="#F2F3F4"/>
<path d="M268.905 42.6343L240.051 29.385L239.016 31.6388L267.87 44.8881L268.905 42.6343Z" fill="#E2E2E2"/>
<path d="M256.819 42.1722L238.125 33.5884L237.09 35.8422L255.784 44.4261L256.819 42.1722Z" fill="#E2E2E2"/>
<path d="M264.714 51.7522L235.859 38.5029L234.824 40.7568L263.679 54.006L264.714 51.7522Z" fill="#E2E2E2"/>
<path d="M252.628 51.2902L233.934 42.7063L232.899 44.9601L251.593 53.544L252.628 51.2902Z" fill="#E2E2E2"/>
<path d="M227.106 34.6001L213.156 64.9801L258.876 85.9801L272.836 55.5901L269.506 54.0601L242.746 60.8301L230.206 36.0201L227.106 34.6001Z" fill="#E527BB"/>
<path opacity="0.5" d="M269.508 54.0601L243.598 58.7501L245.038 60.2201L269.508 54.0601Z" fill="black"/>
<path opacity="0.5" d="M230.355 36.0901L243.685 58.7901L241.625 58.6601L230.355 36.0901Z" fill="black"/>
<path opacity="0.5" d="M246.397 59.9099L259.697 84.2099L258.878 85.9799L238.688 76.7099L246.397 59.9099Z" fill="black"/>
<path opacity="0.5" d="M241.066 57.46L213.966 63.21L213.156 64.98L233.346 74.26L241.066 57.46Z" fill="black"/>
<path d="M214.007 64.1799L243.487 56.8099C244.177 56.6399 244.937 56.9799 245.257 57.6199L258.877 84.7799C259.467 85.9499 258.247 87.0699 257.017 86.5099L213.917 66.7199C212.677 66.1599 212.737 64.4999 214.007 64.1799Z" fill="#E527BB"/>
<path opacity="0.5" d="M157.15 43.2H151.38V40.48C151.38 39.23 150.36 38.21 149.11 38.21C147.86 38.21 146.84 39.23 146.84 40.48V43.2H109.99V40.48C109.99 39.23 108.97 38.21 107.72 38.21C106.47 38.21 105.45 39.23 105.45 40.48V43.2H99.9998C97.0098 43.2 94.5898 45.62 94.5898 48.61V55.28V56.04V90.81V91.87C94.5898 94.86 97.0098 97.28 99.9998 97.28H157.16C160.15 97.28 162.57 94.86 162.57 91.87V90.81V56.04V55.28V48.61C162.56 45.62 160.14 43.2 157.15 43.2Z" fill="black"/>
<path d="M165.259 45.91V89.17C165.259 92.16 162.839 94.58 159.849 94.58H102.699C99.7091 94.58 97.2891 92.16 97.2891 89.17V45.91C97.2891 42.92 99.7091 40.5 102.699 40.5H159.859C162.839 40.5 165.259 42.92 165.259 45.91Z" fill="#F2F3F4"/>
<path d="M159.849 93.5201H102.699C99.7091 93.5201 97.2891 91.1001 97.2891 88.1101V89.1701C97.2891 92.1601 99.7091 94.5801 102.699 94.5801H159.859C162.849 94.5801 165.269 92.1601 165.269 89.1701V88.1101C165.259 91.1001 162.839 93.5201 159.849 93.5201Z" fill="#E5E5E5"/>
<path d="M165.259 45.91V52.58H97.2891V45.91C97.2891 42.92 99.7091 40.5 102.699 40.5H159.859C162.839 40.5 165.259 42.92 165.259 45.91Z" fill="#A78BEF"/>
<path d="M108.248 56.3601H101.738V62.8701H108.248V56.3601Z" fill="#DBDBDB"/>
<path d="M118.826 56.3601H112.316V62.8701H118.826V56.3601Z" fill="#DBDBDB"/>
<path d="M129.397 56.3601H122.887V62.8701H129.397V56.3601Z" fill="#DBDBDB"/>
<path d="M139.967 56.3601H133.457V62.8701H139.967V56.3601Z" fill="#DBDBDB"/>
<path d="M150.549 56.3601H144.039V62.8701H150.549V56.3601Z" fill="#DBDBDB"/>
<path d="M161.119 56.3601H154.609V62.8701H161.119V56.3601Z" fill="#DBDBDB"/>
<path d="M108.248 65.5601H101.738V72.0701H108.248V65.5601Z" fill="#DBDBDB"/>
<path d="M118.826 65.5601H112.316V72.0701H118.826V65.5601Z" fill="#DBDBDB"/>
<path d="M129.397 65.5601H122.887V72.0701H129.397V65.5601Z" fill="#DBDBDB"/>
<path d="M139.967 65.5601H133.457V72.0701H139.967V65.5601Z" fill="#DBDBDB"/>
<path d="M150.549 65.5601H144.039V72.0701H150.549V65.5601Z" fill="#DBDBDB"/>
<path d="M161.119 65.5601H154.609V72.0701H161.119V65.5601Z" fill="#DBDBDB"/>
<path d="M108.248 74.76H101.738V81.27H108.248V74.76Z" fill="#DBDBDB"/>
<path d="M118.826 74.76H112.316V81.27H118.826V74.76Z" fill="#DBDBDB"/>
<path d="M129.397 74.76H122.887V81.27H129.397V74.76Z" fill="#DBDBDB"/>
<path d="M139.967 74.76H133.457V81.27H139.967V74.76Z" fill="#DBDBDB"/>
<path d="M150.549 74.76H144.039V81.27H150.549V74.76Z" fill="#DBDBDB"/>
<path d="M161.119 74.76H154.609V81.27H161.119V74.76Z" fill="#DBDBDB"/>
<path d="M108.248 83.9502H101.738V90.4602H108.248V83.9502Z" fill="#DBDBDB"/>
<path d="M118.826 83.9502H112.316V90.4602H118.826V83.9502Z" fill="#DBDBDB"/>
<path d="M129.397 83.9502H122.887V90.4602H129.397V83.9502Z" fill="#DBDBDB"/>
<path d="M139.967 83.9502H133.457V90.4602H139.967V83.9502Z" fill="#DBDBDB"/>
<path d="M150.549 83.9502H144.039V90.4602H150.549V83.9502Z" fill="#DBDBDB"/>
<path d="M161.119 83.9502H154.609V90.4602H161.119V83.9502Z" fill="#DBDBDB"/>
<path d="M165.259 52.5901H97.2891V53.3501H165.259V52.5901Z" fill="#E5E5E5"/>
<path d="M113.8 46.75C113.8 48.59 112.31 50.07 110.48 50.07C108.64 50.07 107.16 48.58 107.16 46.75C107.16 44.92 108.65 43.43 110.48 43.43C112.31 43.42 113.8 44.91 113.8 46.75Z" fill="white"/>
<path d="M155.089 46.75C155.089 48.59 153.599 50.07 151.769 50.07C149.929 50.07 148.449 48.58 148.449 46.75C148.449 44.92 149.939 43.43 151.769 43.43C153.599 43.42 155.089 44.91 155.089 46.75Z" fill="white"/>
<path d="M110.43 48.51C109.18 48.51 108.16 47.49 108.16 46.24V37.78C108.16 36.53 109.18 35.51 110.43 35.51C111.68 35.51 112.7 36.53 112.7 37.78V46.24C112.69 47.49 111.67 48.51 110.43 48.51Z" fill="#E527BB"/>
<path d="M151.821 48.51C150.571 48.51 149.551 47.49 149.551 46.24V37.78C149.551 36.53 150.571 35.51 151.821 35.51C153.071 35.51 154.091 36.53 154.091 37.78V46.24C154.081 47.49 153.061 48.51 151.821 48.51Z" fill="#E527BB"/>
<path opacity="0.5" d="M125.493 123.265C136.553 112.205 136.553 94.2742 125.493 83.2147C114.434 72.1551 96.5026 72.1551 85.443 83.2147C74.3835 94.2742 74.3835 112.205 85.443 123.265C96.5026 134.324 114.434 134.324 125.493 123.265Z" fill="black"/>
<path d="M102.32 129.54C117.961 129.54 130.64 116.861 130.64 101.22C130.64 85.5794 117.961 72.9001 102.32 72.9001C86.6793 72.9001 74 85.5794 74 101.22C74 116.861 86.6793 129.54 102.32 129.54Z" fill="#E527BB"/>
<path d="M102.32 124.95C115.426 124.95 126.05 114.326 126.05 101.22C126.05 88.1145 115.426 77.4902 102.32 77.4902C89.2141 77.4902 78.5898 88.1145 78.5898 101.22C78.5898 114.326 89.2141 124.95 102.32 124.95Z" fill="white"/>
<path d="M79.0316 101.94C79.0316 88.8302 89.6616 78.2102 102.762 78.2102C111.292 78.2102 118.762 82.7102 122.952 89.4602C118.862 82.3102 111.172 77.4902 102.342 77.4902C89.2216 77.4802 78.6016 88.1102 78.6016 101.22C78.6016 105.8 79.9016 110.07 82.1516 113.7C80.1616 110.23 79.0316 106.22 79.0316 101.94Z" fill="#EAEAEA"/>
<path d="M102.32 84.0402C102 84.0402 101.73 83.7702 101.73 83.4502V79.5202C101.73 79.2002 102 78.9302 102.32 78.9302C102.64 78.9302 102.91 79.2002 102.91 79.5202V83.4502C102.91 83.7802 102.65 84.0402 102.32 84.0402Z" fill="#EAEAEA"/>
<path d="M93.9406 86.4702C93.6606 86.6302 93.3006 86.5402 93.1306 86.2502L91.1606 82.8402C91.0006 82.5602 91.0906 82.2002 91.3806 82.0302C91.6606 81.8702 92.0206 81.9602 92.1906 82.2502L94.1606 85.6602C94.3206 85.9502 94.2206 86.3102 93.9406 86.4702Z" fill="#EAEAEA"/>
<path d="M87.8992 92.7701C87.7392 93.0501 87.3792 93.1501 87.0892 92.9901L83.6792 91.0201C83.3992 90.8601 83.2992 90.5001 83.4592 90.2101C83.6392 89.9301 83.9992 89.8301 84.2792 90.0001L87.6892 91.9701C87.9692 92.1301 88.0692 92.4901 87.8992 92.7701Z" fill="#EAEAEA"/>
<path d="M85.8209 101.24C85.8209 101.56 85.5509 101.83 85.2309 101.83H81.3009C80.9809 101.83 80.7109 101.56 80.7109 101.24C80.7109 100.92 80.9809 100.65 81.3009 100.65H85.2309C85.5609 100.65 85.8209 100.92 85.8209 101.24Z" fill="#EAEAEA"/>
<path d="M88.249 109.62C88.409 109.9 88.319 110.26 88.029 110.43L84.619 112.4C84.339 112.56 83.979 112.47 83.809 112.18C83.649 111.9 83.739 111.54 84.029 111.37L87.439 109.4C87.729 109.24 88.089 109.34 88.249 109.62Z" fill="#EAEAEA"/>
<path d="M94.5517 115.66C94.8317 115.82 94.9317 116.18 94.7717 116.47L92.8017 119.88C92.6417 120.16 92.2817 120.26 91.9917 120.1C91.7117 119.94 91.6117 119.58 91.7717 119.29L93.7417 115.88C93.9017 115.59 94.2717 115.49 94.5517 115.66Z" fill="#EAEAEA"/>
<path d="M103.02 117.74C103.34 117.74 103.61 118.01 103.61 118.33V122.26C103.61 122.58 103.34 122.85 103.02 122.85C102.7 122.85 102.43 122.58 102.43 122.26V118.33C102.43 118 102.69 117.74 103.02 117.74Z" fill="#EAEAEA"/>
<path d="M111.4 115.31C111.68 115.15 112.04 115.24 112.21 115.53L114.18 118.94C114.34 119.22 114.25 119.58 113.96 119.75C113.68 119.91 113.32 119.82 113.15 119.53L111.18 116.12C111.02 115.83 111.11 115.47 111.4 115.31Z" fill="#EAEAEA"/>
<path d="M117.432 109.01C117.592 108.73 117.952 108.63 118.242 108.79L121.652 110.76C121.932 110.92 122.032 111.28 121.872 111.57C121.712 111.85 121.352 111.95 121.062 111.79L117.652 109.82C117.372 109.66 117.272 109.29 117.432 109.01Z" fill="#EAEAEA"/>
<path d="M119.52 100.54C119.52 100.22 119.79 99.9502 120.11 99.9502H124.04C124.36 99.9502 124.63 100.22 124.63 100.54C124.63 100.86 124.36 101.13 124.04 101.13H120.11C119.78 101.13 119.52 100.87 119.52 100.54Z" fill="#EAEAEA"/>
<path d="M117.09 92.1603C116.93 91.8803 117.02 91.5203 117.31 91.3503L120.72 89.3803C121 89.2203 121.36 89.3103 121.53 89.6003C121.69 89.8803 121.6 90.2403 121.31 90.4103L117.9 92.3803C117.61 92.5403 117.25 92.4503 117.09 92.1603Z" fill="#EAEAEA"/>
<path d="M110.792 86.1301C110.512 85.9701 110.412 85.6101 110.572 85.3201L112.542 81.9101C112.702 81.6301 113.062 81.5301 113.352 81.6901C113.632 81.8501 113.732 82.2101 113.572 82.5001L111.602 85.9101C111.442 86.1901 111.072 86.2901 110.792 86.1301Z" fill="#EAEAEA"/>
<path d="M103.051 101.81H102.421C101.981 101.81 101.621 101.45 101.621 101.01V87.8203C101.621 87.3803 101.981 87.0203 102.421 87.0203H103.051C103.491 87.0203 103.851 87.3803 103.851 87.8203V101.01C103.851 101.45 103.491 101.81 103.051 101.81Z" fill="#A78BEF"/>
<path d="M101.48 100.94C101.48 100.19 102.09 99.5803 102.84 99.5803H111.24C111.99 99.5803 112.6 100.19 112.6 100.94C112.6 101.69 111.99 102.3 111.24 102.3H102.84C102.1 102.29 101.48 101.68 101.48 100.94Z" fill="#A78BEF"/>
<path d="M105.361 100.96C105.361 102.32 104.261 103.42 102.901 103.42C101.541 103.42 100.441 102.32 100.441 100.96C100.441 99.6002 101.541 98.5002 102.901 98.5002C104.261 98.5002 105.361 99.6002 105.361 100.96Z" fill="#E527BB"/>
<path d="M104.142 100.97C104.142 101.68 103.563 102.26 102.853 102.26C102.143 102.26 101.562 101.68 101.562 100.97C101.562 100.26 102.143 99.6802 102.853 99.6802C103.563 99.6802 104.142 100.26 104.142 100.97Z" fill="#A78BEF"/>
<path d="M285.96 207.12C284.67 199.35 283.2 191.57 282.24 183.81C282.21 183.58 282.56 183.57 282.61 183.81C282.62 183.84 282.62 183.86 282.63 183.89C282.78 183.73 283.1 183.7 283.32 183.68C283.61 183.65 283.9 183.65 284.19 183.65C284.69 183.65 285.2 183.68 285.71 183.73C285.7 183.64 285.68 183.55 285.67 183.45C285.64 183.22 285.99 183.21 286.04 183.45C286.06 183.57 286.08 183.68 286.11 183.8C286.14 183.83 286.14 183.87 286.13 183.9C287.54 190.69 288.58 197.5 289.69 204.29C290.81 211.16 291.99 218.03 293.14 224.9C295.47 238.73 297.76 252.56 300.01 266.38C301.28 274.15 302.57 281.94 303.68 289.71C303.7 289.83 303.52 289.83 303.49 289.72C303.43 289.81 303.32 289.88 303.22 289.92C302.92 290.05 302.59 290.12 302.25 290.16C301.56 290.24 300.86 290.24 300.17 290.3C299.94 290.32 299.84 290.03 299.93 289.89C299.96 289.84 299.99 289.78 300.01 289.72C298.71 282.88 297.61 276.04 296.4 269.2C295.18 262.32 294.08 255.44 292.91 248.56C290.55 234.76 288.25 220.94 285.96 207.12Z" fill="#AA4729"/>
<path d="M233.48 201.34C234.61 194.26 235.55 187.38 236.91 180.71C236.94 180.54 237.16 180.52 237.22 180.65C237.23 180.65 237.23 180.65 237.24 180.65C238.01 180.69 238.79 180.62 239.57 180.61C240.32 180.6 241.11 180.54 241.85 180.61C241.94 180.62 242 180.7 241.94 180.79C241.9 180.84 241.87 180.89 241.85 180.94C241.93 180.94 242.01 180.98 242 181.08C241.4 186.97 240.42 193.03 239.48 199.24C238.52 205.55 237.6 212.03 236.63 218.68C234.6 232.64 232.41 247.42 230.05 263.08C228.66 272.31 227.25 281.87 225.58 291.75C225.57 291.81 225.54 291.84 225.5 291.85C225.48 291.92 225.44 291.99 225.36 292.02C225.2 292.08 225.03 292.11 224.87 292.13C224.83 292.14 224.8 292.16 224.76 292.17C224.37 292.3 223.97 292.4 223.58 292.48C222.62 292.68 221.66 292.85 220.7 292.96C220.52 292.98 220.35 293 220.17 293.01C220.05 293.02 219.89 293.04 219.76 293C219.63 293.02 219.51 293.03 219.38 293.03C219.31 293.03 219.28 292.98 219.26 292.93C219.22 292.91 219.2 292.88 219.21 292.82C220.45 283.82 221.89 275.1 223.15 266.65C224.36 258.54 225.66 250.67 226.86 243.03C229.16 228.36 231.38 214.47 233.48 201.34Z" fill="#AA4729"/>
<path d="M371.019 289.29C371.259 289.29 371.489 289.3 371.729 289.3C371.779 287.59 366.659 268.67 365.539 264.12C364.989 261.89 356.869 228.1 354.819 223.84C354.759 223.72 354.619 223.74 354.539 223.82C354.379 223.69 354.169 223.61 353.879 223.61C353.209 223.62 352.489 223.82 351.829 223.96C351.099 224.12 350.389 224.33 349.729 224.68C349.599 224.75 349.609 225 349.779 225.02C349.819 225.03 349.849 225.03 349.889 225.03C351.529 229.1 352.559 233.36 353.879 237.52C355.219 241.73 356.559 245.93 357.749 250.19C358.949 254.48 360.089 258.78 361.369 263.05C362.639 267.28 363.949 271.5 365.229 275.72C366.619 280.27 368.029 284.83 369.709 289.3C370.149 289.29 370.589 289.29 371.019 289.29Z" fill="#310C03"/>
<path d="M306.269 293.04C306.029 293.04 305.789 293.05 305.559 293.05C305.509 291.3 310.649 271.9 311.769 267.23C312.319 264.95 320.469 230.3 322.519 225.93C322.579 225.81 322.719 225.83 322.799 225.91C322.959 225.78 323.169 225.69 323.469 225.69C324.149 225.7 324.869 225.91 325.519 226.05C326.249 226.21 326.959 226.43 327.619 226.79C327.749 226.86 327.739 227.12 327.569 227.14C327.529 227.15 327.499 227.15 327.459 227.15C325.819 231.32 324.779 235.69 323.449 239.96C322.109 244.28 320.759 248.59 319.559 252.95C318.349 257.34 317.219 261.76 315.929 266.13C314.659 270.46 313.349 274.79 312.049 279.12C310.649 283.79 309.239 288.47 307.549 293.04C307.139 293.04 306.709 293.04 306.269 293.04Z" fill="#310C03"/>
<path d="M333.191 294.2C332.951 294.2 332.711 294.21 332.481 294.21C332.431 292.46 337.571 273.06 338.691 268.39C339.241 266.11 347.391 231.46 349.441 227.09C349.501 226.97 349.641 226.99 349.721 227.07C349.881 226.94 350.091 226.85 350.391 226.85C351.071 226.86 351.791 227.07 352.441 227.21C353.171 227.37 353.881 227.59 354.541 227.95C354.671 228.02 354.661 228.28 354.491 228.3C354.451 228.31 354.421 228.31 354.381 228.31C352.741 232.48 351.701 236.85 350.371 241.12C349.031 245.44 347.681 249.75 346.481 254.11C345.271 258.5 344.141 262.92 342.851 267.29C341.581 271.62 340.271 275.95 338.971 280.28C337.571 284.95 336.161 289.63 334.471 294.2C334.061 294.2 333.621 294.2 333.191 294.2Z" fill="#66220C"/>
<path d="M396.111 289.29C396.341 289.29 396.561 289.3 396.791 289.3C396.841 287.59 391.931 268.67 390.861 264.12C390.331 261.89 382.551 228.1 380.591 223.84C380.541 223.72 380.391 223.74 380.321 223.82C380.161 223.69 379.961 223.61 379.681 223.61C379.031 223.62 378.351 223.82 377.721 223.96C377.021 224.12 376.341 224.33 375.711 224.68C375.581 224.75 375.591 225 375.751 225.02C375.781 225.03 375.821 225.03 375.851 225.03C377.421 229.1 378.411 233.36 379.671 237.52C380.951 241.73 382.241 245.93 383.381 250.19C384.531 254.48 385.621 258.78 386.851 263.05C388.071 267.28 389.321 271.5 390.551 275.72C391.881 280.27 393.241 284.83 394.851 289.3C395.281 289.29 395.701 289.29 396.111 289.29Z" fill="#66220C"/>
<path d="M346.97 213.41C347.51 209.94 348.47 206.57 349.78 203.32C351.15 199.92 352.59 196.54 354.1 193.2C355.64 189.79 357.28 186.42 358.97 183.08C360.59 179.88 361.91 176.52 363.62 173.37C364.23 172.23 364.92 170.67 366.08 169.97C366.94 169.45 367.98 169.63 368.93 169.73C372.54 170.12 376.15 169.83 379.77 169.68C381.49 169.61 383.19 169.65 384.91 169.53C386.82 169.4 388.73 169.31 390.64 169.3C392.68 169.28 394.71 169.24 396.74 169.4C398.08 169.5 399.63 169.64 400.81 170.36C401 170.48 401.18 170.63 401.3 170.81C401.41 170.87 401.47 170.99 401.43 171.1C401.43 171.11 401.44 171.11 401.44 171.12C401.45 171.16 401.42 171.19 401.38 171.19C400.96 171.78 400.82 172.43 400.66 173.13C400.46 174.02 400.25 174.9 400.09 175.8C399.76 177.61 399.66 179.45 399.31 181.25C398.96 183.05 398.47 184.83 398.25 186.66C398.05 188.35 397.72 190 397.25 191.64C396.77 193.3 396.18 194.93 395.61 196.56C394.99 198.32 394.48 200.11 393.99 201.91C393.15 205.03 392.41 208.19 391.42 211.26C390.65 213.63 389.66 216.3 387.68 217.94C385.73 219.56 382.78 219.79 380.35 219.97C376.73 220.23 373.09 220.19 369.46 220.2C365.69 220.2 361.93 219.9 358.17 219.6C356.3 219.45 354.42 219.31 352.55 219.23C351.69 219.19 350.82 219.17 349.96 219.16C349.38 219.16 348.79 219.16 348.22 219.05C347.16 218.84 346.4 218.09 346.37 216.98C346.33 215.78 346.78 214.59 346.97 213.41Z" fill="#66220C"/>
<path d="M313.4 220.37C313.37 218.62 316.15 218.68 317.33 218.73C318.41 218.77 319.48 218.9 320.56 219.03C321.77 219.18 322.98 219.24 324.2 219.32C325.19 219.39 326.18 219.45 327.17 219.5C327.79 219.48 328.4 219.47 329.01 219.45C332.03 219.4 335.05 219.44 338.07 219.36C339.55 219.32 341.01 219.33 342.49 219.26C343.96 219.19 345.43 219.18 346.9 219.12C349.86 219.02 352.82 218.87 355.78 218.74C358.7 218.6 361.65 218.5 364.56 218.22C367.39 217.94 370.2 217.55 373.03 217.25C375.71 216.96 378.38 216.63 381.05 216.31C383.02 216.07 385.12 215.75 387.13 215.91C387.35 215.14 387.36 214.21 387.45 213.59C387.68 211.92 388.24 210.28 388.69 208.66C389.19 206.86 389.64 205.06 390.21 203.28C390.78 201.5 391.38 199.73 391.87 197.93C392.9 194.16 393.79 190.34 394.68 186.54C395.11 184.72 395.44 182.9 395.69 181.05C395.95 179.2 396.17 177.33 396.58 175.5C396.85 174.26 397.19 172.93 397.77 171.79C398.25 170.86 399.02 170.07 400.13 170.05C401.26 170.03 402.29 170.65 402.66 171.73C403.04 172.85 402.81 174.12 402.65 175.27C402.39 177.17 401.94 179.05 401.54 180.92C401.14 182.8 400.87 184.71 400.48 186.6C399.72 190.36 398.81 194.08 398.06 197.84C397.69 199.73 397.42 201.64 397.03 203.53C396.63 205.42 396.15 207.28 395.72 209.16C395.33 210.84 395.02 212.53 394.58 214.2C394.14 215.87 393.65 217.54 393.34 219.24C393.18 220.08 393.03 220.91 392.96 221.77C392.95 221.86 392.88 221.89 392.81 221.88C392.86 222.07 392.75 222.33 392.49 222.36C391.63 222.47 390.77 222.58 389.91 222.73C389.57 222.79 389.22 222.83 388.88 222.87C386.71 223.35 384.58 224.06 382.43 224.6C378.9 225.49 375.34 226.22 371.79 226.99C368.32 227.74 364.87 228.56 361.35 229.01C358.68 229.35 355.98 229.41 353.3 229.26C352.23 229.2 351.15 229.09 350.09 228.93C347.52 228.78 344.96 228.46 342.4 228.16C339 227.77 335.59 227.5 332.18 227.24C328.73 226.97 325.27 226.71 321.82 226.38C320.09 226.21 318.36 226.1 316.64 225.91C316.02 225.84 315.41 225.76 314.79 225.65C314.41 225.58 314 225.51 313.68 225.29C313.01 224.84 313.04 223.84 313 223.13C312.94 222.24 312.92 221.17 313.4 220.37Z" fill="#C5674E"/>
<path d="M298.858 291.35C299.378 290.74 300.058 290.31 300.718 289.86C301.688 289.21 302.608 288.5 303.488 287.73C305.218 286.21 306.718 284.5 308.258 282.79C309.938 280.92 311.768 279.13 312.338 276.6C312.358 276.5 312.468 276.42 312.578 276.42C314.088 276.43 315.618 276.44 317.128 276.41C317.848 276.39 318.598 276.4 319.318 276.29C319.718 276.23 320.108 276.1 320.498 276.01C321.028 275.89 321.768 275.64 322.228 276.04C322.258 275.99 322.348 275.97 322.378 276.03C323.578 278.36 323.898 281.11 323.978 283.7C324.008 284.65 323.808 285.51 323.058 286.16C322.088 287 320.808 287.4 319.638 287.85C316.928 288.88 314.448 290.35 311.998 291.88C309.868 293.21 307.718 294.59 305.388 295.55C304.218 296.03 303.008 296.45 301.768 296.66C300.988 296.79 299.998 296.93 299.218 296.62C298.888 296.76 298.528 296.79 298.228 296.53C297.858 296.21 297.788 295.63 297.768 295.17C297.698 293.85 297.998 292.36 298.858 291.35Z" fill="#A78BEF"/>
<path d="M312.348 276.6C312.368 276.5 312.478 276.42 312.588 276.42C314.098 276.43 315.628 276.44 317.138 276.41C317.858 276.39 318.608 276.4 319.328 276.29C319.728 276.23 320.118 276.1 320.508 276.01C321.038 275.89 321.778 275.64 322.238 276.04C322.268 275.99 322.358 275.97 322.388 276.03C322.718 276.67 322.978 277.35 323.188 278.05C321.178 279.32 319.128 280.51 317.018 281.59C316.768 280.47 316.238 279.29 315.368 278.54C314.498 277.8 313.298 277.41 312.178 277.64C312.118 277.65 312.068 277.68 312.008 277.69C312.138 277.35 312.258 276.98 312.348 276.6Z" fill="#FC7980"/>
<path d="M261.529 282.49C261.649 281.56 262.109 280.58 262.769 279.91C263.539 279.12 264.649 278.53 265.659 278.12C267.019 277.57 268.449 277.27 269.819 276.75C272.509 275.73 274.919 274.14 277.059 272.22C277.499 271.83 277.929 271.46 278.459 271.2C279.079 270.9 279.809 270.87 280.479 270.89C281.909 270.92 283.269 271.33 284.679 271.5C285.889 271.65 287.579 271.67 288.439 272.68C288.609 272.87 288.699 273.09 288.769 273.31C288.779 273.33 288.789 273.34 288.799 273.37C288.799 273.38 288.799 273.39 288.799 273.4C288.869 273.68 288.869 273.98 288.849 274.29C288.869 275.38 288.729 276.51 288.609 277.57C288.539 278.23 288.449 278.88 288.349 279.53C288.299 279.88 288.249 280.22 288.189 280.57C288.139 280.85 288.159 281.14 287.949 281.34C287.899 281.38 286.699 281.69 286.339 281.78C284.889 282.16 283.319 282.15 281.839 282.16C280.649 282.17 279.449 282.09 278.269 282.14C277.019 282.19 275.839 282.69 274.649 283.04C273.319 283.43 271.919 283.66 270.549 283.88C269.039 284.11 267.529 284.2 265.999 284.23C264.639 284.26 263.079 284.31 261.819 283.7C261.739 283.66 261.729 283.56 261.769 283.49C261.569 283.24 261.479 282.91 261.529 282.49Z" fill="#A78BEF"/>
<path d="M280.328 275.33C280.798 274.64 281.208 273.94 281.418 273.14C281.608 272.39 281.518 271.54 281.038 270.94C282.258 271.05 283.448 271.35 284.678 271.5C285.888 271.65 287.578 271.67 288.438 272.68C288.608 272.87 288.698 273.09 288.768 273.31C288.778 273.33 288.788 273.34 288.798 273.37C288.798 273.38 288.798 273.39 288.798 273.4C288.868 273.68 288.868 273.98 288.848 274.29C288.858 274.75 288.828 275.21 288.798 275.68C285.988 276.13 283.088 276.02 280.328 275.33Z" fill="#FC7980"/>
<path d="M277.978 270.92C278.348 270.24 298.308 222.47 298.978 221.22C300.408 218.53 301.058 215.58 302.208 212.78C303.118 210.58 304.198 208.47 305.048 206.24C305.378 205.37 305.728 204.49 306.188 203.68C306.478 203.17 306.878 202.51 307.488 202.35C308.398 202.11 309.058 203 309.418 203.7C310.098 204.98 310.438 206.44 310.728 207.85C311.058 209.41 311.308 210.99 311.498 212.57C311.958 216.46 312.068 220.42 312.048 224.33C312.048 224.34 312.048 224.35 312.048 224.36C311.378 229.16 310.298 233.94 308.248 238.35C306.238 242.68 303.498 246.67 300.978 250.71C296.478 257.91 293.008 265.66 289.878 273.53C289.868 273.54 289.858 273.55 289.848 273.55C289.808 273.63 289.718 273.68 289.638 273.69C288.498 273.78 287.338 273.67 286.208 273.51C285.128 273.35 284.008 273.18 282.948 272.89C282.598 272.79 282.258 272.67 281.908 272.54C281.728 272.51 281.538 272.49 281.358 272.45C280.378 272.24 279.418 271.9 278.508 271.48C278.388 271.46 278.268 271.43 278.168 271.38C278.168 271.38 278.168 271.38 278.168 271.37C278.178 271.36 278.198 271.36 278.218 271.35C278.168 271.32 278.148 271.28 278.138 271.23C277.998 271.2 277.888 271.07 277.978 270.92Z" fill="#231F20"/>
<path d="M307.311 203.48C308.131 202.41 309.441 202.35 310.691 202.31C312.781 202.25 314.871 202.41 316.941 202.65C319.001 202.89 321.041 203.2 323.101 203.46C325.161 203.72 327.241 203.86 329.311 204.06C331.431 204.26 333.541 204.49 335.671 204.66C337.791 204.83 339.911 204.89 342.031 205.04C344.131 205.18 346.241 205.35 348.341 205.47C350.331 205.59 352.291 205.88 354.221 206.4C356.131 206.91 358.001 207.57 359.831 208.31C361.311 208.9 362.751 209.54 364.281 209.99C365.451 210.34 366.701 210.68 367.691 211.44C368.691 212.22 369.091 213.35 368.981 214.6C368.951 214.93 368.891 215.23 368.801 215.5C368.741 216.39 368.021 217.08 367.151 217.54C365.401 218.47 363.331 218.81 361.391 219.08C359.541 219.34 357.681 219.49 355.821 219.56C352.591 219.68 349.371 219.45 346.151 219.73C343.911 219.92 341.661 220.03 339.421 220C339.191 220.01 338.961 220.03 338.721 220.03C336.631 220.09 334.561 219.8 332.481 219.62C330.501 219.45 328.521 219.44 326.541 219.43C322.771 219.42 318.901 219.51 315.201 218.7C313.631 218.57 311.991 218.24 310.691 217.3C308.371 215.62 307.381 212.6 306.941 209.89C306.611 207.96 306.001 205.2 307.311 203.48Z" fill="#231F20"/>
<path d="M306.511 202.3C306.811 204.62 308.701 206.36 310.621 207.47C312.891 208.78 315.481 209.62 317.941 210.54C319.441 211.11 320.951 211.63 322.511 212.01C324.071 212.4 325.651 212.67 327.221 212.97C333.801 214.26 340.401 215.52 347.031 216.53C350.281 217.02 353.531 217.45 356.791 217.78C359.681 218.08 362.561 218.19 365.461 217.93C365.591 217.92 365.711 217.9 365.841 217.89C366.161 217.85 366.501 217.82 366.821 217.76H366.871C369.181 217.45 371.461 216.91 373.621 216.05C375.971 215.11 378.341 213.84 379.931 211.82C379.971 211.78 379.991 211.73 380.031 211.69C380.171 211.53 380.331 211.38 380.461 211.2C381.981 209.31 382.731 207.09 383.131 204.73C383.331 203.53 383.431 202.27 383.051 201.08C383.031 201.02 382.991 200.89 382.931 200.75C380.841 199.24 379.051 197.16 376.881 195.87C376.661 195.74 376.451 195.62 376.221 195.48C374.301 194.39 372.251 193.44 370.151 192.66C367.681 191.74 365.131 191.07 362.601 190.67C357.291 189.84 351.981 189.88 346.621 190.07C343.841 190.18 341.051 190.1 338.271 190.15C335.551 190.19 332.871 190.39 330.151 190.65C327.961 190.87 325.761 191.06 323.561 191.25C322.411 191.44 321.261 191.62 320.101 191.75C318.551 191.92 317.001 192.03 315.451 192.2C314.021 192.35 312.681 192.78 311.491 193.49C310.781 193.92 310.131 194.45 309.561 195.08C309.091 195.59 308.621 196.18 308.181 196.81V196.82C307.081 198.48 306.271 200.43 306.511 202.3Z" fill="#231F20"/>
<path d="M321.81 211.31C322.58 211.2 323.37 211.3 324.13 211.47C325.57 211.8 326.95 212.32 328.4 212.58C330.22 212.9 332.03 213.18 333.86 213.45C337.53 213.99 341.16 214.69 344.8 215.37C347.91 215.96 351.04 216.38 354.17 216.84C356.87 217.24 359.56 217.61 362.29 217.79C363.46 217.86 364.65 217.91 365.83 217.9C366.15 217.86 366.49 217.83 366.81 217.77H366.86C369.17 217.46 371.45 216.92 373.61 216.06C375.96 215.12 378.33 213.85 379.92 211.83C379.96 211.79 379.98 211.74 380.02 211.7C380.16 211.54 380.32 211.39 380.45 211.21C381.97 209.32 382.72 207.1 383.12 204.74C383.32 203.54 383.42 202.28 383.04 201.09C383.02 201.03 382.98 200.9 382.92 200.76C380.83 199.25 379.04 197.17 376.87 195.88C376.65 195.75 376.44 195.63 376.21 195.49C376.43 196.25 376.67 197.01 376.69 197.82C376.73 199.39 376.38 200.77 375.88 202.24C375.68 202.85 375.47 203.49 375.21 204.1C374.31 205.3 373.2 206.33 371.87 207.1C368.8 208.87 365.14 209.55 361.69 210.17C357.26 210.96 352.82 211.38 348.3 211.45C343.6 211.52 338.91 211.06 334.21 211.08C331.87 211.08 329.54 211.11 327.21 211.11C325.38 211.11 323.49 210.36 321.67 210.91C321.44 210.99 321.56 211.34 321.81 211.31Z" fill="#231F20"/>
<path d="M305.649 208.59C306.199 214.63 306.609 220.67 307.019 226.72C307.229 229.82 307.449 232.92 307.739 236.03C308.019 239.11 308.409 242.19 308.769 245.27C309.469 251.39 309.759 257.56 310.359 263.7C310.639 266.59 311.149 269.46 311.209 272.37C311.229 273.66 311.249 274.95 311.529 276.21C311.609 276.57 311.639 277.24 312.109 277.27C312.249 277.28 312.339 277.25 312.419 277.2C314.309 277.2 316.189 277.29 318.079 277.2C319.849 277.12 321.679 276.9 323.289 276.16C323.329 276.15 323.339 276.12 323.339 276.08C323.409 276.03 323.469 275.94 323.449 275.83C323.249 275.07 323.089 274.3 322.889 273.54C322.799 272.96 322.729 272.37 322.639 271.8C321.669 265.72 321.209 259.55 321.209 253.4C321.219 250.21 321.349 247.03 321.559 243.86V243.8C321.769 240.79 322.029 237.78 322.309 234.76C322.589 231.67 322.859 228.57 323.049 225.48C323.219 222.62 323.289 219.81 322.849 216.97C322.439 214.27 321.649 211.65 320.659 209.11C320.149 207.81 319.549 206.54 319.049 205.23C318.559 203.98 318.119 202.71 317.609 201.47C316.729 199.31 315.619 197.31 313.829 195.77C313.109 195.15 312.279 194.57 311.299 194.52C310.379 194.47 309.729 194.99 309.179 195.66C308.469 196.54 307.719 197.4 307.139 198.38C306.839 198.89 306.579 199.42 306.359 199.97C306.159 200.49 305.989 201.03 305.869 201.57C305.329 203.88 305.439 206.25 305.649 208.59Z" fill="#231F20"/>
<path d="M305.649 208.59C306.199 214.63 306.609 220.67 307.019 226.72C307.229 229.82 307.449 232.92 307.739 236.03C308.019 239.11 308.409 242.19 308.769 245.27C309.469 251.39 309.759 257.56 310.359 263.7C310.639 266.59 311.149 269.46 311.209 272.37C311.229 273.66 311.249 274.95 311.529 276.21C311.609 276.57 311.639 277.24 312.109 277.27C312.249 277.28 312.339 277.25 312.419 277.2C314.309 277.2 316.189 277.29 318.079 277.2C319.849 277.12 321.679 276.9 323.289 276.16C323.329 276.15 323.339 276.12 323.339 276.08C323.409 276.03 323.469 275.94 323.449 275.83C323.249 275.07 323.089 274.3 322.889 273.54C322.799 272.96 322.729 272.37 322.639 271.8C321.669 265.72 321.209 259.55 321.209 253.4C321.219 250.21 321.349 247.03 321.559 243.86V243.8C321.669 239.61 321.899 235.43 322.059 231.26C322.129 229.61 322.209 227.96 322.409 226.31C322.569 224.99 322.659 223.68 322.709 222.35C322.799 222.32 322.679 219.9 322.529 218.79C322.429 218.11 322.119 217.73 321.559 217.33C320.769 216.77 319.909 216.33 319.089 215.83C318.579 215.52 318.119 215.16 317.679 214.78C316.619 213.65 315.559 212.51 314.499 211.37C313.659 210.46 312.829 209.55 311.929 208.7C310.709 207.31 309.379 206 308.189 204.58C307.079 203.24 306.509 201.78 306.379 200.04C306.379 200.02 306.379 200.01 306.359 199.99C306.159 200.51 305.989 201.05 305.869 201.59C305.329 203.88 305.439 206.25 305.649 208.59Z" fill="#231F20"/>
<path d="M306.458 177.42C307.428 177.78 308.578 177.5 309.588 177.44C310.978 177.36 312.398 177.5 313.808 177.54C314.598 177.56 315.398 177.6 316.188 177.64C317.998 177.72 319.798 177.77 321.588 177.4C322.878 177.14 324.128 176.74 325.378 176.38C326.658 176 327.948 175.7 329.258 175.43C330.618 175.16 331.988 174.94 333.378 174.83C334.238 174.77 335.108 174.7 335.958 174.52C337.148 174.28 340.848 173.74 341.658 173.14C342.788 172.31 343.788 171.2 344.718 170.16C346.548 168.13 348.088 165.89 349.488 163.54C350.178 162.39 350.808 161.21 351.588 160.12C352.348 159.08 353.158 158.08 353.798 156.96C354.428 155.85 354.828 154.69 354.758 153.4C354.698 152.04 354.238 150.77 353.878 149.47C353.668 148.71 352.548 143.59 351.018 144.8C350.708 145.04 350.528 145.46 350.378 145.82C350.178 146.3 350.008 146.74 349.728 147.17C349.588 147.39 349.418 147.63 349.268 147.86C349.268 147.87 349.258 147.88 349.258 147.88C349.108 148.11 348.948 148.36 348.848 148.62C348.638 148.91 348.438 149.19 348.238 149.47C347.348 150.74 346.628 152.1 345.878 153.45C345.068 154.89 344.148 156.25 343.248 157.63C342.418 158.91 341.738 160.26 340.998 161.59C339.758 163.86 338.168 165.93 337.008 168.25C336.078 168.18 335.148 168.21 334.228 168.37C332.948 168.59 331.728 169.01 330.478 169.3C329.308 169.57 328.118 169.76 326.938 169.98C326.928 169.98 326.918 169.98 326.908 169.99C325.708 170.22 324.538 170.55 323.328 170.79C320.928 171.28 318.468 171.55 316.018 171.55C314.008 171.56 312.068 171.65 310.338 172.69C310.328 172.69 310.328 172.69 310.328 172.69C310.208 172.75 310.108 172.82 309.988 172.91C308.438 173.99 307.268 175.52 306.348 177.14C306.278 177.26 306.348 177.38 306.458 177.42Z" fill="#FC7980"/>
<path d="M326.918 169.99C326.928 170.04 326.958 170.11 326.998 170.16C327.408 170.81 328.528 170.74 329.178 170.73C331.778 170.64 334.378 170.25 336.978 170.4C338.088 170.46 339.038 170.99 339.968 170.18C340.718 169.52 341.168 168.59 341.608 167.72C342.718 165.45 343.968 163.24 344.948 160.9C346.048 158.3 346.778 155.61 347.578 152.92C347.978 151.56 348.418 150.21 348.868 148.87C348.968 148.58 349.148 148.24 349.268 147.89C349.118 148.12 348.958 148.37 348.858 148.63C348.648 148.92 348.448 149.2 348.248 149.48C347.358 150.75 346.638 152.11 345.888 153.46C345.078 154.9 344.158 156.26 343.258 157.64C342.428 158.92 341.748 160.27 341.008 161.6C339.768 163.87 338.178 165.94 337.018 168.26C336.088 168.19 335.158 168.22 334.238 168.38C332.958 168.6 331.738 169.02 330.488 169.31C329.318 169.58 328.128 169.77 326.948 169.99C326.938 169.98 326.928 169.98 326.918 169.99Z" fill="#FDAEA9"/>
<path d="M348.927 144.49C350.547 141.2 352.417 138.11 354.577 135.14C355.597 133.74 356.617 132.34 357.937 131.21C358.657 130.59 359.667 129.81 360.677 129.75C360.677 129.74 360.677 129.73 360.667 129.72C360.607 129.62 360.757 129.49 360.837 129.59C360.877 129.64 360.897 129.69 360.927 129.74H360.937C360.977 129.74 360.977 129.77 360.967 129.8C361.327 130.55 360.437 131.51 360.037 132.07C359.087 133.4 358.757 135.12 357.967 136.55C357.087 138.12 356.367 139.77 355.477 141.33C355.007 142.14 354.467 142.92 353.977 143.72C353.737 144.11 353.517 144.51 353.307 144.92C353.157 145.21 353.077 145.54 352.927 145.83C352.627 146.4 352.267 146.06 351.807 145.86C350.887 145.46 350.017 144.93 349.027 144.72C348.917 144.69 348.887 144.57 348.927 144.49Z" fill="#8365EF"/>
<path d="M306.459 177.42C307.429 177.78 308.579 177.5 309.589 177.44C310.979 177.36 312.399 177.5 313.809 177.54C314.599 177.56 315.399 177.6 316.189 177.64C316.189 177.5 316.189 177.35 316.199 177.21C316.219 176.61 316.299 176.01 316.439 175.42C316.569 174.83 316.739 174.22 316.979 173.65C317.219 173.08 317.689 172.7 317.979 172.18C318.019 172.18 318.049 172.18 318.089 172.17C318.129 172.16 318.119 172.09 318.069 172.09C318.059 172.09 318.049 172.08 318.039 172.08C318.049 172.07 318.059 172.05 318.069 172.04C318.099 171.98 317.909 172.02 317.879 172.06C317.319 171.98 311.929 172.23 310.799 172.55C310.649 172.6 310.489 172.64 310.349 172.68C310.339 172.68 310.339 172.68 310.339 172.68C310.219 172.74 310.119 172.81 309.999 172.9C308.449 173.98 307.279 175.51 306.359 177.13C306.279 177.26 306.349 177.38 306.459 177.42Z" fill="#FDAEA9"/>
<path d="M312.528 176.45C313.048 176.24 313.598 176.22 314.138 176.12C314.828 175.98 315.498 175.75 316.198 175.62C316.868 175.5 317.778 175.33 318.368 175.77C318.868 176.14 318.898 176.88 318.448 177.3C317.948 177.76 317.168 177.87 316.528 177.94C315.888 178.01 315.248 177.99 314.608 178.02C314.138 178.04 313.658 178.07 313.188 178.02C312.978 178 312.738 177.94 312.558 177.81C312.118 177.8 311.678 177.69 311.688 177.27C311.688 176.86 312.208 176.58 312.528 176.45Z" fill="#FC7980"/>
<path d="M345.96 189.7C345.88 189.65 345.89 189.54 345.97 189.48C345.95 189.44 345.94 189.42 345.96 189.37C346.55 187.54 346.69 185.62 347.07 183.74C347.47 181.71 348.03 179.71 348.54 177.7C349.06 175.63 349.6 173.57 350.1 171.51C350.59 169.55 351.27 167.66 351.86 165.75C352.16 164.81 352.38 163.84 352.65 162.89C352.75 162.53 352.87 162.15 353 161.78C352.79 161.38 352.64 160.93 352.51 160.51C352.15 159.33 351.75 158.22 351.28 157.08C350.19 154.46 349.18 151.48 349.34 148.6C349.49 145.88 351.1 143.51 352.41 141.21C353.85 138.69 354.99 136.01 356.6 133.59C357.83 131.73 359.57 129.41 361.94 129.17C361.95 129.11 361.99 129.04 362.08 129.04C362.92 129.02 363.76 129.03 364.6 129.06C365.81 129.1 367.03 129.17 368.23 129.19C370.2 129.22 372.17 129.29 374.13 129.5C375.43 129.64 376.75 129.83 378.04 130.08C378.55 130.18 379.06 130.28 379.57 130.39C380.28 130.55 380.97 130.79 381.66 131.01C382.48 131.02 383.38 131.38 384.1 131.69C384.14 131.71 384.15 131.73 384.18 131.74C384.32 131.77 384.47 131.81 384.61 131.84C384.65 131.85 385.25 132.66 385.38 133.28C385.66 134.51 385.62 135.83 385.62 137.09C385.61 138.41 385.66 139.72 385.67 141.05C385.72 146.5 384.22 151.93 382.74 157.13C382.26 158.79 381.72 160.46 381.09 162.08C381.1 163.11 381.13 164.13 381.22 165.16C381.44 167.93 381.68 170.69 381.8 173.47C381.93 176.36 382.05 179.24 382.26 182.12C382.48 185.03 382.75 187.95 382.91 190.86C382.99 192.46 383.06 194.05 383.1 195.64C383.14 197.2 383.18 198.76 383.06 200.32C383.07 200.37 383.08 200.44 383.08 200.49C383.08 200.62 383.06 200.75 383.02 200.87C383 200.91 382.95 200.9 382.95 200.86C382.93 200.87 382.91 200.88 382.9 200.86C382.16 199.98 381.09 199.57 380.18 198.91C379.18 198.19 378.26 197.34 377.24 196.65C375.11 195.24 372.67 194.35 370.32 193.4C368.71 192.75 367.13 192.12 365.5 191.59C365.48 191.58 365.45 191.58 365.43 191.57C364.47 191.33 363.52 191.04 362.55 190.82C361.43 190.57 360.3 190.46 359.16 190.4C356.99 190.29 354.79 190.3 352.62 190.37C350.43 190.44 348.25 190.6 346.06 190.45C345.92 190.44 345.81 190.34 345.81 190.2C345.8 189.97 345.86 189.82 345.96 189.7Z" fill="#A78BEF"/>
<path d="M347.069 183.74C347.149 183.36 347.229 182.98 347.319 182.6C354.859 183.04 362.399 183.49 369.939 183.93C363.019 180.96 355.089 182.32 347.619 181.35C347.919 180.13 348.239 178.92 348.549 177.7C348.569 177.61 348.599 177.52 348.619 177.43C349.889 177.24 351.179 177.17 352.459 177.13C357.139 177 361.819 177.06 366.489 177.32C368.659 177.44 370.849 177.6 372.999 177.29C373.429 177.23 373.869 177.14 374.239 176.91C374.609 176.68 374.879 176.33 375.139 175.99C377.159 173.34 379.179 170.7 381.189 168.05C380.769 168.6 381.009 170.83 380.969 171.55C380.589 178.12 380.139 184.59 378.189 190.93C378.099 191.22 377.999 191.52 377.769 191.71C377.339 192.07 376.689 191.88 376.169 191.68C374.389 190.99 372.589 190.36 370.809 189.67C369.979 189.35 369.029 188.74 368.169 188.58C366.929 188.34 367.309 188.6 367.239 189.85C367.229 190.08 367.169 190.36 366.949 190.44C366.809 190.49 366.659 190.44 366.519 190.39C363.589 189.34 360.549 188.8 357.459 188.51C354.199 188.2 350.919 188.39 347.649 188.55C347.169 188.57 346.659 188.59 346.219 188.44C346.589 186.91 346.749 185.31 347.069 183.74Z" fill="#8365EF"/>
<path d="M355.03 145.92C355.68 145.92 355.68 146.93 355.03 146.93C354.38 146.94 354.37 145.92 355.03 145.92Z" fill="white"/>
<path d="M356.1 145.5C356.11 145.46 356.13 145.43 356.16 145.41C356.17 145.4 356.19 145.39 356.2 145.38C356.23 145.36 356.27 145.35 356.31 145.35C356.34 145.35 356.37 145.36 356.39 145.37C356.42 145.38 356.44 145.39 356.46 145.41C356.48 145.43 356.5 145.45 356.5 145.48C356.51 145.51 356.52 145.53 356.52 145.56C356.52 145.58 356.51 145.6 356.51 145.62C356.5 145.66 356.48 145.69 356.45 145.71C356.44 145.72 356.42 145.73 356.41 145.74C356.38 145.76 356.34 145.77 356.3 145.77C356.27 145.77 356.24 145.76 356.22 145.75C356.19 145.74 356.17 145.73 356.15 145.71C356.13 145.69 356.11 145.67 356.11 145.64C356.1 145.61 356.09 145.59 356.09 145.56C356.09 145.54 356.09 145.52 356.1 145.5Z" fill="white"/>
<path d="M353.01 161.79V161.78C352.8 161.38 352.65 160.93 352.52 160.51C352.16 159.33 351.76 158.22 351.29 157.08C350.3 154.7 349.38 152.01 349.34 149.37C349.57 148.7 350.03 148.19 350.87 148.03C351.72 147.87 352.62 148.11 353.41 148.39C354.47 148.77 355.49 149.29 356.47 149.85C357.6 150.49 358.7 151.19 359.78 151.91C360.13 152.14 360.47 152.39 360.82 152.62C360.82 152.61 360.83 152.6 360.83 152.59C360.81 152.56 360.8 152.53 360.81 152.48C361.51 149.86 364.14 149.29 366.54 149.35C369.11 149.42 371.64 150 374.23 149.87C374.79 149.84 376.01 149.42 376.14 149.41C377.7 149.27 378.44 147.66 379.81 147.1C379.89 147.07 380 147.12 380.04 147.19C380.87 148.89 380.35 150.86 380.12 152.63C379.82 154.96 379.73 157.29 379.12 159.57C378.85 160.59 378.65 161.64 378.26 162.63C378 163.28 377.61 163.78 376.94 164.04C376.18 164.33 375.28 164.37 374.48 164.47C373.28 164.62 372.08 164.69 370.88 164.73C369.55 164.77 368.23 164.79 366.91 164.63C365.73 164.48 364.55 164.26 363.36 164.2C363.95 164.78 364.69 165.19 365.22 165.85C365.34 166 365.19 166.19 365.02 166.11C364.06 165.69 363.03 165.49 362.01 165.27C360.99 165.06 360.02 164.77 359.04 164.42C358.01 164.05 356.99 163.63 355.97 163.22C355.24 162.92 354.47 162.67 353.76 162.32C353.45 162.2 353.22 162.01 353.01 161.79Z" fill="#8365EF"/>
<path d="M361.179 129.59C361.209 129.49 361.259 129.4 361.299 129.31C361.509 129.25 361.729 129.19 361.949 129.17C361.959 129.11 361.999 129.04 362.089 129.04C362.929 129.02 363.769 129.03 364.609 129.06C365.819 129.1 367.039 129.17 368.239 129.19C368.559 129.19 368.889 129.2 369.209 129.21C369.559 129.94 369.589 130.83 368.939 131.35C368.789 131.52 368.599 131.66 368.429 131.76C368.109 131.96 367.759 132.07 367.399 132.14C366.859 132.37 366.219 132.39 365.639 132.38C364.909 132.37 364.159 132.35 363.439 132.21C362.259 131.96 360.799 131.01 361.179 129.59Z" fill="#731116"/>
<path d="M365.699 136.06C366.819 136.44 368.079 136.29 369.229 136.09C370.519 135.86 371.789 135.4 372.929 134.72C374.059 134.05 375.229 133.29 376.169 132.35C376.649 131.87 377.079 131.34 377.539 130.85C377.729 130.65 377.899 130.48 377.939 130.24C377.979 130.19 378.019 130.13 378.059 130.07C376.769 129.83 375.449 129.64 374.149 129.49C372.189 129.27 370.219 129.2 368.249 129.18C367.049 129.16 365.829 129.1 364.619 129.05C364.409 129.3 364.229 129.58 364.069 129.83C363.739 130.32 363.459 130.87 363.269 131.44C362.609 133.45 363.719 135.39 365.699 136.06Z" fill="#FDAEA9"/>
<path d="M365.661 132.38C364.931 132.37 364.181 132.35 363.461 132.21C363.351 132.19 363.231 132.15 363.121 132.12C363.151 131.9 363.201 131.67 363.271 131.44C363.461 130.87 363.741 130.33 364.071 129.83C364.231 129.58 364.411 129.3 364.621 129.05C365.831 129.09 367.051 129.16 368.251 129.18C368.571 129.18 368.901 129.19 369.221 129.2C369.571 129.93 369.601 130.82 368.951 131.34C368.801 131.51 368.611 131.65 368.441 131.75C368.121 131.95 367.771 132.06 367.411 132.13C366.871 132.37 366.231 132.38 365.661 132.38Z" fill="#FC7980"/>
<path d="M354.831 163.26C355.881 163.71 356.851 164.31 357.891 164.79C358.981 165.28 360.041 165.81 361.131 166.31C361.161 166.32 361.141 166.36 361.111 166.35C359.991 166.01 358.911 165.57 357.841 165.11C356.771 164.65 355.771 164.05 354.691 163.6C354.431 163.5 354.581 163.15 354.831 163.26Z" fill="#731116"/>
<path d="M364.951 136.87C366.091 137.48 367.611 137.2 368.821 137.07C370.231 136.92 371.571 136.63 372.771 135.84C372.801 135.82 372.821 135.86 372.801 135.88C371.871 137.01 370.181 137.2 368.821 137.35C368.021 137.44 367.261 137.54 366.451 137.49C365.931 137.45 365.201 137.44 364.811 137.05C364.711 136.96 364.831 136.81 364.951 136.87Z" fill="#731116"/>
<path d="M379.719 138.68C379.859 137.27 380.069 135.84 380.609 134.53C380.629 134.47 380.719 134.49 380.699 134.56C380.409 135.99 380.099 137.39 379.959 138.84C379.909 139.35 379.879 139.87 379.859 140.39C379.989 139.89 380.129 139.4 380.259 138.9C380.489 138.05 380.739 137.19 381.079 136.37C381.699 134.87 382.609 133.38 384.139 132.68C384.149 132.68 384.149 132.69 384.149 132.69C382.699 133.73 381.779 135.15 381.169 136.81C380.879 137.59 380.649 138.38 380.419 139.18C380.239 139.83 380.079 140.5 379.819 141.13C379.789 141.78 379.759 142.42 379.689 143.06C379.689 143.09 379.639 143.09 379.639 143.06C379.509 141.62 379.579 140.12 379.719 138.68Z" fill="#731116"/>
<path d="M367.1 130.27C367.11 130.91 367.01 131.61 367.11 132.25V132.26C367.15 132.51 367.28 132.66 367.52 132.76C367.99 132.95 368.57 132.98 369.07 133.01C370.27 133.09 371.5 132.93 372.64 132.56C373.66 132.23 375.92 131.34 376.11 130.07C376.13 130.06 376.15 130.04 376.15 130.02C376.14 129.98 376.13 129.96 376.12 129.93C376.13 129.73 376.08 129.53 375.99 129.32C375.77 128.43 375.57 127.53 375.41 126.63C375.28 125.99 375.17 125.35 375.08 124.71C375.07 124.65 374.97 124.61 374.92 124.65C373.72 125.46 372.42 126.13 371.08 126.67C369.77 127.2 368.43 127.54 367.05 127.87C367.01 127.84 366.92 127.87 366.93 127.94C366.99 128.72 367.1 129.48 367.1 130.27Z" fill="#FC7980"/>
<path d="M367.109 132.25C367.149 132.51 367.279 132.66 367.519 132.76C367.989 132.95 368.569 132.98 369.069 133.01C370.269 133.09 371.499 132.93 372.639 132.56C373.659 132.23 375.919 131.34 376.109 130.07C376.129 130.06 376.149 130.04 376.149 130.02C376.139 129.98 376.129 129.96 376.119 129.93C376.129 129.73 376.079 129.53 375.989 129.32C375.769 128.43 375.569 127.53 375.409 126.63C375.069 127.18 374.589 127.66 374.199 128.16C373.479 129.04 372.729 129.77 371.769 130.38C370.779 131.02 369.759 131.62 368.629 131.98C368.119 132.13 367.619 132.22 367.109 132.25Z" fill="#FDAEA9"/>
<path d="M373.658 100.14C373.658 100.18 373.698 100.18 373.718 100.17C373.698 100.86 373.748 101.47 374.048 102.15C374.268 102.63 374.538 103.08 374.848 103.51C375.048 103.82 375.268 104.1 375.488 104.39C375.978 105.02 376.498 105.62 377.048 106.2C377.498 106.68 377.938 107.13 378.558 107.38C380.408 108.14 382.938 107.26 384.128 105.71C385.638 103.73 385.688 100.68 384.408 98.5901C384.278 98.3801 384.148 98.2001 384.008 98.0101C384.288 98.2301 384.558 98.4701 384.798 98.7401C385.018 99.0001 385.208 99.3001 385.448 99.5501C385.458 99.5501 385.468 99.5501 385.468 99.5401C385.428 98.8001 384.838 98.0601 384.358 97.5501C384.058 97.2501 383.748 96.9801 383.408 96.7401C383.038 96.4801 382.648 96.2401 382.258 95.9901C382.058 95.8601 381.858 95.7701 381.638 95.6801C381.568 95.6501 381.478 95.6301 381.408 95.6001C381.388 95.5801 381.238 95.4801 381.208 95.4701C380.828 95.2701 380.368 95.1601 379.948 95.0901C379.728 95.0601 379.538 95.0401 379.348 95.0301C379.708 94.9201 380.048 94.8401 380.438 94.8101C380.748 94.7901 381.138 94.7001 381.458 94.7501C381.528 94.7601 381.518 94.6401 381.458 94.6601C381.068 94.7601 380.538 94.5001 380.158 94.4301C379.778 94.3601 379.398 94.3101 379.018 94.3301C378.348 94.3501 377.598 94.5001 377.008 94.8301C376.458 95.1401 375.958 95.4701 375.508 95.9001C375.388 96.0101 375.258 96.1201 375.148 96.2401C375.098 96.3001 375.088 96.3701 375.038 96.4301C375.028 96.4301 374.998 96.4601 374.958 96.4801C374.748 96.6601 374.548 97.0001 374.428 97.2401C374.348 97.4101 374.248 97.5901 374.178 97.7801C373.758 98.4901 373.558 99.3001 373.658 100.14Z" fill="#231F20"/>
<path d="M364.051 100.21C365.051 102.13 367.031 103.39 368.541 104.87C370.311 106.6 372.101 108.19 373.401 110.32C374.711 112.46 375.411 114.72 375.551 117.22C375.621 118.34 375.691 119.48 375.831 120.59C375.881 121.01 375.941 121.5 376.191 121.86C376.411 122.17 376.761 122.24 377.061 122.42C377.171 122.49 377.281 122.38 377.251 122.28C377.851 121.97 378.251 121.15 378.561 120.61C379.131 119.62 379.601 118.6 379.981 117.53C380.851 115.08 381.151 112.36 380.731 109.79C380.021 105.53 377.361 101.81 373.591 99.7102C373.311 99.5602 373.021 99.4102 372.741 99.3002C371.981 98.9902 371.221 98.7802 370.401 98.6002C369.191 98.3302 367.971 98.1102 366.731 98.0102C365.921 97.9402 364.701 97.7702 364.061 98.4302C363.961 98.5402 363.891 98.6502 363.841 98.7702C363.671 99.2102 363.831 99.7702 364.051 100.21Z" fill="#231F20"/>
<path d="M376.119 105.48C376.939 105.79 377.809 105.96 378.609 106.31C379.169 106.55 379.629 106.9 380.059 107.31C380.199 107.69 380.329 108.08 380.439 108.48C380.339 108.95 380.169 109.39 379.989 109.84C379.779 110.37 379.599 110.91 379.309 111.4C378.839 112.21 378.399 113.21 377.639 113.79C377.139 114.17 376.689 114.05 376.479 113.46C376.359 113.13 376.329 112.79 376.249 112.45C376.119 111.82 375.939 111.19 375.779 110.57C375.599 109.85 375.489 109.12 375.289 108.4C375.099 107.69 374.839 107 374.719 106.28C374.489 106.13 374.399 105.8 374.439 105.53C374.579 104.76 375.719 105.33 376.119 105.48ZM376.949 102.98C377.409 103.22 377.829 103.52 378.239 103.83C378.589 104.31 378.909 104.82 379.199 105.34C378.349 104.66 377.389 104.14 376.379 103.71C375.629 103.39 374.839 103.11 374.019 103.04C373.659 103.01 373.119 102.99 373.019 102.55C372.699 101.04 376.509 102.75 376.949 102.98Z" fill="#231F20"/>
<path d="M376.937 108.96C377.107 109.8 377.507 110.55 377.837 111.33C377.917 111.53 378.017 111.8 378.127 112.04C378.307 112.15 378.497 112.22 378.737 112.14C378.967 112.06 379.147 111.88 379.377 111.82C379.457 111.8 379.537 111.87 379.507 111.95C379.467 112.05 379.417 112.14 379.367 112.24C379.237 112.68 378.967 113.04 378.697 113.4C378.567 113.57 378.447 113.75 378.297 113.91C378.117 114.09 377.907 114.24 377.727 114.4C377.687 114.44 377.637 114.43 377.597 114.41C377.597 114.42 377.597 114.43 377.597 114.44C377.597 114.45 377.587 114.45 377.587 114.44C377.587 114.43 377.587 114.41 377.587 114.4C377.547 114.37 377.537 114.31 377.577 114.26C377.507 113.36 377.327 112.48 377.167 111.58C377.087 111.15 377.047 110.71 376.977 110.28C376.907 109.84 376.797 109.41 376.797 108.97C376.787 108.9 376.917 108.88 376.937 108.96Z" fill="#310C03"/>
<path d="M363.848 98.7502C363.868 99.0602 363.938 99.4002 364.058 99.7302C364.498 101 365.648 101.9 366.648 102.72C367.998 103.83 369.338 104.96 370.618 106.15C371.958 107.38 373.248 108.67 374.498 109.98C375.078 110.59 375.668 111.2 376.218 111.84C376.808 112.53 377.088 113.17 377.288 114.04C377.328 114.21 377.588 114.14 377.548 113.97C377.498 113.73 377.438 113.51 377.378 113.3C377.368 111.54 377.138 109.78 376.768 108.06C376.378 106.24 376.008 104.36 375.078 102.74C374.408 101.56 373.698 100.28 372.748 99.2902C371.988 98.9802 371.228 98.7702 370.408 98.5902C369.198 98.3202 367.978 98.1002 366.738 98.0002C365.928 97.9302 364.708 97.7602 364.068 98.4202C363.968 98.5102 363.898 98.6302 363.848 98.7502Z" fill="#231F20"/>
<path d="M357.629 109.18C357.699 108.05 357.789 106.92 357.949 105.8C358.019 105.3 358.099 104.81 358.189 104.31C358.239 104.03 358.319 103.74 358.389 103.46C358.449 103.51 358.519 103.54 358.599 103.55C358.729 104.34 358.949 105.08 359.249 105.82C359.539 106.53 359.989 107.16 360.259 107.88C360.539 108.62 360.309 109.23 360.169 109.98C359.979 111.03 359.859 112.09 359.839 113.16C359.799 115.17 360.079 117.2 360.219 119.2C360.369 121.24 360.629 123.25 361.009 125.26C361.359 127.08 361.779 128.93 362.689 130.56C362.739 130.61 362.789 130.67 362.839 130.72C362.869 130.75 362.859 130.79 362.829 130.81C362.839 130.83 362.849 130.85 362.869 130.88C362.879 130.89 362.859 130.9 362.849 130.89C362.839 130.87 362.819 130.84 362.809 130.82C362.789 130.82 362.779 130.82 362.759 130.81C362.159 130.31 361.749 129.67 361.379 128.99C360.949 128.18 360.529 127.36 360.099 126.55C359.189 124.82 358.559 123.03 358.149 121.12C357.739 119.23 357.559 117.27 357.439 115.34C357.319 113.29 357.489 111.22 357.629 109.18Z" fill="#310C03"/>
<path d="M358.758 108.84C359.278 107.17 360.558 105.71 361.888 104.61C363.398 103.36 365.438 102.78 367.388 102.96C369.368 103.14 371.018 104.34 372.568 105.5C373.478 106.19 374.198 106.97 374.818 107.93C375.468 108.94 376.128 109.98 376.708 111.04C377.258 112.04 377.358 113.21 377.438 114.33C377.508 115.32 377.538 116.37 377.408 117.37C377.408 117.86 377.398 118.36 377.398 118.85C377.378 120.57 377.138 122.19 376.168 123.64C375.308 124.93 374.118 125.97 372.948 126.97C371.798 127.95 370.828 129.25 369.388 129.81C369.348 129.82 369.328 129.81 369.308 129.78C368.218 130.3 366.288 129.28 365.408 128.85C364.248 128.28 363.168 127.54 362.178 126.71C361.548 126.19 360.858 125.53 360.398 124.79C359.808 124.04 359.468 123.17 359.418 122.1C359.358 120.91 359.398 119.71 359.318 118.51C359.238 117.24 358.968 115.99 358.748 114.73C358.408 112.81 358.158 110.75 358.758 108.84Z" fill="#FDAEA9"/>
<path d="M376.501 115.56C376.521 115.33 376.561 115.06 376.681 114.86C376.871 114.41 377.191 114.08 377.661 114.03C378.151 113.98 378.631 114.27 378.961 114.66C379.901 115.76 379.561 117.5 378.851 118.64C378.381 119.4 377.631 120.1 376.871 120.44C376.811 120.47 376.731 120.4 376.731 120.32C376.771 119.66 376.681 118.98 376.631 118.32C376.591 117.8 376.561 117.29 376.531 116.77C376.501 116.36 376.471 115.96 376.501 115.56Z" fill="#FDAEA9"/>
<path d="M359.128 101.15C360.728 98.6702 363.948 97.7302 366.758 98.2002C368.308 98.4602 369.668 99.1902 370.838 100.16C371.148 100.35 371.448 100.55 371.718 100.78C372.348 101.32 372.908 101.97 373.398 102.64C374.428 104.03 375.238 105.65 375.908 107.24C376.578 108.83 377.018 110.47 377.288 112.17C377.418 113.01 377.538 113.85 377.568 114.7C377.588 115.2 377.558 115.7 377.518 116.21C377.528 116.47 377.528 116.73 377.538 116.99C377.548 118.87 377.558 120.76 377.358 122.63C376.998 126.08 376.168 129.99 373.608 132.53C373.578 132.56 373.538 132.52 373.558 132.49C373.558 132.5 373.548 132.51 373.548 132.52C373.538 132.54 373.498 132.53 373.508 132.5C374.508 129.27 375.158 126.04 375.298 122.65C375.358 120.99 375.388 119.3 375.198 117.65C375.058 116.46 374.808 115.28 374.608 114.1C374.148 114.17 373.608 114.09 373.218 114.07C372.148 114.01 371.108 113.93 370.068 113.66C369.018 113.39 367.968 113.05 367.028 112.5C366.328 112.09 365.668 111.6 365.038 111.09C365.498 111.76 366.118 112.34 366.788 112.8C367.298 113.15 367.848 113.44 368.428 113.67C368.688 113.78 368.958 113.87 369.228 113.95C369.508 114.03 369.808 114.07 370.078 114.17C370.138 114.2 370.128 114.28 370.058 114.29C369.938 114.3 369.808 114.28 369.688 114.26C368.278 114.56 366.628 113.85 365.368 113.33C363.658 112.63 362.048 111.58 360.658 110.36C359.388 109.24 358.518 107.85 358.248 106.16C357.958 104.46 358.178 102.62 359.128 101.15Z" fill="#231F20"/>
<path d="M363.33 106.84C363.63 107.3 363.9 107.76 364.27 108.17C364.64 108.59 365.05 108.97 365.47 109.33C365.94 109.74 366.43 110.14 366.96 110.48C367.38 110.75 367.79 111.15 368.28 111.29C368.3 111.3 368.29 111.33 368.27 111.32C367.78 111.22 367.36 110.87 366.93 110.62C366.37 110.29 365.85 109.92 365.36 109.49C364.91 109.1 364.47 108.69 364.07 108.25C363.72 107.86 363.33 107.41 363.19 106.89C363.17 106.82 363.28 106.77 363.33 106.84Z" fill="white"/>
<path d="M365.118 107.24C365.148 107.28 365.188 107.32 365.218 107.37C365.248 107.42 365.278 107.47 365.308 107.51C365.378 107.61 365.448 107.7 365.518 107.8C365.658 107.99 365.818 108.16 366.018 108.29C366.048 108.31 366.018 108.36 365.988 108.34C365.778 108.23 365.598 108.06 365.438 107.88C365.358 107.79 365.278 107.69 365.208 107.58C365.178 107.53 365.148 107.48 365.118 107.44C365.088 107.39 365.068 107.33 365.048 107.28C365.038 107.25 365.088 107.21 365.118 107.24Z" fill="white"/>
<path d="M359.998 102.63C360.068 102.47 360.138 102.31 360.218 102.15C360.378 101.82 360.598 101.54 360.858 101.28C361.338 100.8 361.808 100.26 362.468 100.03C362.498 100.02 362.508 100.06 362.488 100.07C361.868 100.35 361.428 100.91 360.988 101.4C360.758 101.66 360.568 101.95 360.418 102.26C360.348 102.4 360.278 102.55 360.218 102.69C360.148 102.85 360.088 103.01 359.968 103.14C359.928 103.18 359.838 103.15 359.848 103.09C359.858 102.93 359.938 102.79 359.998 102.63Z" fill="white"/>
<path d="M375.129 97.4602C375.169 97.3702 375.219 97.2902 375.269 97.2202C375.389 97.0502 375.539 96.8902 375.699 96.7502C376.009 96.4802 376.359 96.2402 376.729 96.0702C376.759 96.0602 376.779 96.1002 376.749 96.1102C376.399 96.2902 376.079 96.5402 375.799 96.8102C375.649 96.9502 375.509 97.1002 375.389 97.2702C375.339 97.3402 375.289 97.4202 375.259 97.5002C375.239 97.5402 375.229 97.5802 375.219 97.6102C375.199 97.6502 375.179 97.6802 375.159 97.7202C375.149 97.7502 375.099 97.7402 375.099 97.7102C375.089 97.6202 375.089 97.5502 375.129 97.4602Z" fill="white"/>
<path d="M368.141 106.99C368.391 106.99 368.391 107.38 368.141 107.38C367.891 107.38 367.891 106.99 368.141 106.99Z" fill="white"/>
<path d="M367.278 127.74C367.288 127.73 367.298 127.71 367.308 127.71C367.318 127.7 367.328 127.71 367.338 127.71C367.348 127.71 367.358 127.71 367.368 127.7C367.368 127.7 367.368 127.7 367.378 127.7C367.388 127.7 367.398 127.7 367.408 127.7C367.408 127.7 367.418 127.7 367.418 127.69C367.438 127.69 367.448 127.68 367.468 127.69C367.488 127.69 367.498 127.7 367.508 127.7C367.538 127.71 367.558 127.75 367.568 127.78C367.578 127.83 367.558 127.89 367.508 127.92C367.478 127.93 367.458 127.94 367.428 127.94H367.418H367.408C367.398 127.94 367.398 127.94 367.388 127.94C367.388 127.94 367.388 127.94 367.378 127.94C367.368 127.94 367.368 127.94 367.358 127.94C367.338 127.94 367.328 127.93 367.318 127.91V127.9C367.308 127.89 367.298 127.88 367.298 127.88C367.288 127.87 367.288 127.87 367.278 127.86C367.268 127.85 367.268 127.84 367.268 127.82C367.258 127.78 367.258 127.76 367.278 127.74Z" fill="white"/>
<path d="M240.619 145.68C240.559 145.39 240.709 145.04 241.099 145.04C245.949 145.06 250.799 145 255.649 144.86C258.229 144.78 260.829 144.63 263.419 144.77C265.959 144.91 268.499 145.1 271.049 145.15C271.419 145.16 271.799 145.17 272.169 145.18C272.979 145.01 273.909 145.17 274.689 145.21C275.809 145.27 277.209 144.83 278.239 145.44C278.349 145.5 278.439 145.58 278.529 145.66C279.309 146.34 279.519 147.52 280.059 148.37C280.489 149.05 280.979 149.68 281.409 150.35C281.849 151.04 282.169 151.78 282.549 152.5C283.319 153.98 284.179 155.41 285.009 156.86C285.809 158.25 286.529 159.69 287.309 161.09C288.929 164.02 290.729 166.82 292.209 169.82C292.589 170.59 292.969 171.37 293.389 172.12C293.769 172.81 294.219 173.47 294.579 174.17C294.879 174.73 295.119 175.33 295.399 175.9C295.609 176.35 295.829 176.88 296.169 177.26C296.249 177.23 296.339 177.21 296.429 177.19C296.439 177.19 296.449 177.19 296.459 177.2C296.569 177.35 296.519 177.47 296.389 177.58C296.379 177.69 296.249 177.79 296.129 177.73C295.769 177.89 295.269 177.97 295.149 177.99C294.049 178.11 292.889 178.05 291.799 177.9C290.479 177.72 289.189 177.8 287.859 177.81C287.289 177.82 286.699 177.81 286.129 177.8C285.819 177.79 285.309 177.9 284.959 177.79C284.399 177.79 283.829 177.81 283.269 177.83C281.499 177.92 279.759 177.95 277.989 177.84C275.499 177.68 273.039 177.66 270.549 177.77C268.409 177.86 266.259 177.99 264.119 177.94C263.299 177.92 262.479 177.9 261.659 177.9C260.919 177.91 260.209 177.96 259.559 177.99C259.249 178.01 259.029 177.82 258.909 177.58C257.929 176.9 257.269 175.35 256.829 174.5C256.509 173.88 256.209 173.22 255.829 172.64C255.099 171.54 254.349 170.46 253.689 169.32C252.249 166.84 251.089 164.21 249.689 161.7C248.309 159.22 246.839 156.79 245.399 154.35C244.619 153.03 243.859 151.69 243.109 150.35C242.759 149.72 242.399 149.1 242.009 148.49C241.619 147.86 241.239 147.16 240.769 146.6C240.479 146.28 240.479 145.94 240.619 145.68Z" fill="#A78BEF"/>
<path d="M279.05 145.61C279.44 146.11 279.86 146.58 280.21 147.11C280.57 147.66 280.9 148.22 281.23 148.78C281.88 149.91 282.51 151.05 283.16 152.18C284.55 154.57 286 156.93 287.37 159.33C288.78 161.78 290 164.31 291.31 166.82C291.93 168 292.6 169.15 293.32 170.27C293.81 171.03 294.36 171.74 294.78 172.55C295.22 173.38 295.62 174.23 296.1 175.03C296.33 175.41 296.58 175.76 296.85 176.11C296.9 176.18 296.97 176.26 297.03 176.34C297.44 176.28 297.87 176.26 298.25 176.24C299.05 176.21 299.85 176.23 300.64 176.25C302.8 176.29 304.94 176.19 307.1 176.09C309.78 175.96 312.42 175.95 315.09 176.17C316.96 176.32 318.77 176.27 320.64 176.21C321.4 176.19 322.45 176.04 323.15 176.37C323.46 176.52 323.82 176.72 323.83 177.11C323.83 177.31 323.76 177.49 323.56 177.57C323.99 177.42 323.19 177.72 323.24 177.71C322.94 177.77 322.67 177.82 322.36 177.8C321.66 177.78 320.96 177.81 320.26 177.84C318.49 177.93 316.75 177.96 314.98 177.85C312.49 177.69 310.03 177.67 307.54 177.78C305.4 177.87 303.25 178 301.11 177.95C300.29 177.93 299.47 177.91 298.65 177.91C297.91 177.92 297.2 177.97 296.55 178C296.24 178.02 296.02 177.83 295.9 177.59C294.92 176.91 294.26 175.36 293.82 174.51C293.5 173.89 293.2 173.23 292.82 172.65C292.09 171.55 291.34 170.47 290.68 169.33C289.24 166.85 288.08 164.22 286.68 161.71C285.3 159.23 283.83 156.8 282.39 154.36C281.61 153.04 280.85 151.7 280.1 150.36C279.75 149.73 279.39 149.11 279 148.5C278.61 147.87 278.23 147.17 277.76 146.61C277.01 145.7 278.32 144.66 279.05 145.61Z" fill="#8365EF"/>
<path d="M261.329 157.95C262.209 156.67 263.879 157.04 264.939 157.86C265.939 158.64 266.729 159.77 267.279 160.94C267.789 161.69 268.209 162.55 268.239 163.45C268.269 164.35 267.819 165.19 266.969 165.52C266.249 165.8 265.379 165.65 264.749 165.23C263.549 164.44 262.599 163.14 261.899 161.91C261.259 160.81 260.499 159.14 261.329 157.95Z" fill="#E527BB"/>
<path d="M325.099 168.05C326.159 168.1 327.249 168.23 328.289 168.43C328.719 168.51 329.119 168.69 329.509 168.88C329.889 169.07 330.279 169.26 330.659 169.47C330.699 169.47 330.719 169.48 330.739 169.51C330.759 169.52 330.779 169.53 330.789 169.54C330.829 169.56 330.799 169.62 330.759 169.61H330.749C330.749 169.62 330.749 169.62 330.749 169.63C330.669 169.82 330.449 169.85 330.269 169.88C329.969 169.93 329.659 169.94 329.349 169.94C328.779 169.94 328.219 169.9 327.649 169.9C327.019 169.9 326.329 169.96 325.739 169.71C325.109 169.45 324.919 168.84 324.939 168.2C324.959 168.13 325.019 168.05 325.099 168.05Z" fill="#FC7980"/>
<path d="M380.611 152.48C380.941 151.72 381.811 151.46 382.561 151.38C383.571 151.27 384.661 151.32 385.671 151.39C386.881 151.47 388.131 151.77 389.171 152.42C389.591 152.68 389.991 153.02 390.231 153.47C390.451 153.89 390.481 154.36 390.481 154.83C390.501 154.9 390.501 154.96 390.481 155.01C390.481 155.03 390.481 155.05 390.481 155.07C390.481 155.2 390.371 155.26 390.271 155.26C389.801 155.58 388.711 155.68 388.411 155.7C386.601 155.81 384.601 155.99 382.901 155.24C381.981 154.83 380.041 153.79 380.611 152.48Z" fill="#8365EF"/>
<path d="M317.919 173.58C317.839 174.69 318.769 175.76 319.479 176.5C320.349 177.41 321.239 178.12 322.549 178.24C322.639 178.25 322.729 178.25 322.819 178.25C322.819 178.25 322.829 178.25 322.839 178.25C323.479 178.28 324.119 178.22 324.759 178.21C325.689 178.18 326.609 178.17 327.549 178.06C329.459 177.85 331.339 177.48 333.259 177.37C335.169 177.24 337.069 177.3 338.969 177.49C339.609 177.7 340.319 177.76 340.939 177.85C342.689 178.12 344.449 178.37 346.219 178.52C350.089 178.84 353.969 178.86 357.849 178.85C361.809 178.84 365.739 179.36 369.679 179.35C370.459 179.35 371.259 179.39 371.999 179.2C372.679 179.34 373.389 179.33 374.049 179.12C374.269 179.05 374.479 178.96 374.679 178.83C375.029 178.64 375.349 178.37 375.599 178.03C376.089 177.36 376.589 176.65 377.039 175.95C379.209 172.59 380.819 168.9 382.239 165.18C382.979 163.23 383.689 161.26 384.599 159.38C385.019 158.52 385.479 157.67 385.859 156.79C386.009 156.44 386.149 156.08 386.259 155.72C386.439 155.2 386.589 154.66 386.739 154.13C387.029 153.09 387.319 152.04 387.589 151C388.089 149.12 388.529 147.22 388.789 145.31C389.429 140.7 389.279 134.45 384.449 132.11C384.419 132.09 384.399 132.11 384.369 132.12C384.329 132.11 384.279 132.11 384.239 132.14C384.229 132.15 384.219 132.16 384.209 132.16C383.719 132.31 383.319 133.29 383.159 133.67C382.499 135.27 381.889 136.87 381.339 138.52C380.929 139.76 380.549 141.02 380.159 142.26C379.809 143.21 379.449 144.16 379.109 145.11C378.389 147.07 377.679 149.04 376.979 151C376.809 151.47 376.649 151.93 376.489 152.38C375.929 153.94 375.379 155.52 374.839 157.09C374.169 159.07 373.489 161.05 372.829 163.02C372.149 165.03 371.579 167.08 370.849 169.07C370.629 169.66 370.339 170.34 370.039 171.05C369.519 170.97 368.999 170.95 368.479 170.97C368.249 170.97 368.019 171 367.789 171.01C367.459 170.99 367.119 170.98 366.799 171C364.449 171.12 362.169 171.76 359.829 172C357.469 172.24 355.099 172.53 352.729 172.71C350.339 172.89 347.969 172.9 345.579 172.82C343.199 172.73 340.809 172.78 338.439 172.8C338.129 172.71 337.239 172.66 336.989 172.51C336.639 172.32 336.259 172.18 335.879 172.04C334.939 171.69 334.079 171.27 333.239 170.74C332.469 170.25 331.699 169.73 330.869 169.38C330.079 169.05 329.239 168.91 328.399 168.89C326.749 168.84 325.059 169.06 323.429 169.27C322.069 169.44 320.979 169.94 319.919 170.79C319.079 171.44 317.999 172.43 317.919 173.58Z" fill="#FDAEA9"/>
<path d="M376.488 152.36C378.348 152.57 380.188 152.65 381.988 153.22C383.498 153.71 385.198 154.43 386.248 155.7C386.428 155.18 386.578 154.64 386.728 154.11C387.018 153.07 387.308 152.02 387.578 150.98C387.528 150.91 387.458 150.84 387.388 150.76C386.218 149.57 384.138 149.64 382.618 149.83C381.258 150.01 379.898 150.3 378.548 150.54C378.058 150.63 377.478 150.74 376.978 150.96C376.808 151.44 376.648 151.9 376.488 152.36Z" fill="#FC7980"/>
<path d="M378.05 147.1C378.59 145.39 379.2 143.7 379.76 142C380.32 140.3 380.7 138.52 381.39 136.86C381.92 135.59 382.52 134.23 383.28 133.07C383.46 132.79 383.67 132.56 383.89 132.39C384.1 132.15 384.35 131.96 384.67 131.93C385.42 131.85 386.21 132.4 386.76 132.85C388.12 133.95 389.04 135.66 389.69 137.25C390.41 139 390.81 140.86 391.13 142.72C391.49 144.78 391.74 146.8 391.68 148.9C391.65 150.09 391.53 151.24 391.32 152.42C391.15 153.36 391.11 154.37 390.47 155.12C390.42 155.18 390.32 155.12 390.33 155.05C390.28 155.03 390.24 155 390.23 154.93C390.12 154.11 388.92 153.66 388.25 153.4C387.06 152.95 385.8 152.65 384.55 152.44C381.89 152 379.14 151.97 376.46 152.27C376.37 152.28 376.32 152.18 376.34 152.11C376.72 150.4 377.51 148.79 378.05 147.1Z" fill="#A78BEF"/>
<path d="M319.668 176.22C320.588 177.11 321.618 177.81 322.818 178.24C322.818 178.24 322.828 178.24 322.838 178.24C323.478 178.27 324.118 178.21 324.758 178.2C325.688 178.17 326.608 178.16 327.548 178.05C329.458 177.84 331.338 177.47 333.258 177.36C335.168 177.23 337.068 177.29 338.968 177.48C339.608 177.69 340.318 177.75 340.938 177.84C342.688 178.11 344.448 178.36 346.218 178.51C350.088 178.83 353.968 178.85 357.848 178.84C361.808 178.83 365.738 179.35 369.678 179.34C370.458 179.34 371.258 179.38 371.998 179.19C372.678 179.33 373.388 179.32 374.048 179.11C374.268 179.04 374.478 178.95 374.678 178.82C374.058 177.49 371.898 177.35 370.628 177.26C365.068 176.88 359.538 177.36 353.998 177.46C351.608 177.5 349.218 177.56 346.828 177.5C346.068 177.35 345.298 177.28 344.528 177.19C343.058 177.04 341.608 176.86 340.148 176.66C339.688 176.6 339.178 176.53 338.648 176.49C335.978 175.29 332.858 175.24 329.988 175.41C328.358 175.51 326.738 175.69 325.108 175.8C323.338 175.93 321.568 175.87 319.798 175.96C319.638 175.96 319.558 176.12 319.668 176.22Z" fill="#FC7980"/>
<path d="M318.138 173.39C318.338 173.3 318.518 173.2 318.728 173.15C318.958 173.1 319.208 173.08 319.448 173.07C319.898 173.05 320.358 173.04 320.798 173.04C321.248 173.04 321.698 173.08 322.148 173.08C322.598 173.09 323.088 173.08 323.538 173.17C323.688 173.2 323.668 173.41 323.538 173.45C323.108 173.6 322.608 173.65 322.148 173.7C321.698 173.76 321.248 173.82 320.798 173.85C320.348 173.88 319.888 173.89 319.448 173.88C319.208 173.87 318.958 173.86 318.728 173.81C318.518 173.76 318.338 173.66 318.138 173.57C318.058 173.55 318.058 173.43 318.138 173.39Z" fill="#FC7980"/>
<path d="M347.627 173.78C347.887 173.46 348.717 173.56 349.077 173.55C349.787 173.53 350.487 173.48 351.187 173.43C353.007 173.29 354.837 173.4 356.647 173.13C356.667 173.13 356.677 173.15 356.657 173.16C354.987 173.54 353.287 173.51 351.597 173.64C350.857 173.7 350.117 173.79 349.377 173.81C349.077 173.82 348.767 173.81 348.467 173.83C348.217 173.85 347.947 173.94 347.697 173.92C347.617 173.91 347.587 173.84 347.627 173.78Z" fill="white"/>
<path d="M376.508 160.2C376.508 160.19 376.508 160.19 376.508 160.18C376.518 160.14 376.538 160.1 376.558 160.06C376.588 160.01 376.618 159.98 376.668 159.95C376.708 159.93 376.738 159.92 376.788 159.91C376.828 159.9 376.868 159.9 376.908 159.92C376.928 159.93 376.948 159.94 376.958 159.95C376.968 159.96 376.978 159.96 376.998 159.97C377.018 159.98 377.028 159.98 377.048 159.99C377.068 160 377.068 160.01 377.088 160.02C377.108 160.02 377.118 160.02 377.138 160.03C377.178 160.04 377.218 160.07 377.248 160.1C377.268 160.12 377.288 160.15 377.298 160.17C377.318 160.21 377.338 160.25 377.338 160.3C377.348 160.33 377.348 160.36 377.338 160.39C377.338 160.44 377.318 160.48 377.298 160.52C377.278 160.54 377.258 160.57 377.248 160.59C377.208 160.63 377.158 160.66 377.098 160.68C377.088 160.68 377.088 160.68 377.078 160.68C377.038 160.69 377.008 160.69 376.968 160.69C376.958 160.69 376.948 160.69 376.928 160.69C376.888 160.69 376.848 160.68 376.808 160.67H376.798C376.788 160.67 376.788 160.66 376.778 160.66C376.758 160.65 376.738 160.66 376.718 160.65C376.668 160.63 376.628 160.61 376.598 160.57C376.578 160.54 376.558 160.52 376.538 160.49C376.508 160.43 376.488 160.37 376.488 160.3C376.488 160.28 376.508 160.21 376.508 160.2Z" fill="white"/>
<path d="M381.85 205.02C380.84 198.32 379.7 191.79 379.04 185.46C379.02 185.27 379.33 185.27 379.37 185.46C379.37 185.48 379.38 185.5 379.38 185.53C379.51 185.4 379.81 185.38 380 185.36C380.26 185.34 380.52 185.34 380.78 185.34C381.23 185.34 381.68 185.37 382.13 185.41C382.12 185.34 382.11 185.26 382.1 185.19C382.08 185 382.39 185 382.43 185.19C382.45 185.28 382.47 185.38 382.48 185.47C382.5 185.5 382.51 185.53 382.5 185.55C383.63 191.08 384.46 196.77 385.36 202.58C386.29 208.61 387.31 214.79 388.33 221.13C390.47 234.41 392.7 248.44 395.01 263.26C396.37 271.97 397.8 280.98 399.07 290.29C399.09 290.44 398.89 290.44 398.86 290.3C398.8 290.41 398.68 290.49 398.56 290.55C398.23 290.71 397.87 290.8 397.49 290.85C396.74 290.95 395.96 290.95 395.2 291.02C394.95 291.04 394.83 290.7 394.94 290.52C394.98 290.46 395 290.38 395.02 290.31C393.6 282.11 392.44 274.14 391.19 266.4C389.97 258.83 388.9 251.48 387.8 244.32C385.69 230.5 383.71 217.43 381.85 205.02Z" fill="#D68B6E"/>
<path d="M332.33 205.34C333.6 197.15 334.69 188.93 336.28 180.74C336.32 180.53 336.57 180.51 336.62 180.66C336.63 180.66 336.64 180.66 336.65 180.66C337.51 180.71 338.39 180.62 339.26 180.61C340.1 180.6 340.99 180.53 341.82 180.61C341.92 180.62 341.99 180.73 341.91 180.83C341.86 180.89 341.83 180.96 341.81 181.02C341.9 181.02 341.99 181.07 341.97 181.2C341.16 188.43 339.94 195.7 338.8 202.94C337.67 210.1 336.6 217.27 335.52 224.43C333.33 238.85 331.1 253.27 328.84 267.68C327.57 275.79 326.32 283.9 324.88 292.01C324.87 292.06 324.84 292.08 324.81 292.09C324.79 292.15 324.76 292.2 324.68 292.23C324.53 292.28 324.39 292.3 324.24 292.32C324.21 292.33 324.18 292.34 324.14 292.35C323.79 292.46 323.43 292.53 323.08 292.6C322.22 292.76 321.35 292.9 320.49 292.99C320.33 293.01 320.17 293.02 320.02 293.03C319.91 293.04 319.77 293.05 319.65 293.02C319.54 293.04 319.42 293.05 319.31 293.04C319.25 293.04 319.22 293 319.2 292.96C319.17 292.95 319.14 292.92 319.15 292.87C320.1 285.53 321.28 278.19 322.33 270.86C323.37 263.6 324.53 256.34 325.63 249.08C327.83 234.5 330.07 219.92 332.33 205.34Z" fill="#D68B6E"/>
<path d="M216.64 183.19C216.69 183.74 216.69 184.3 216.74 184.84C216.74 184.91 216.79 184.96 216.87 184.98C216.89 185.01 216.91 185.03 216.97 185.03C220.4 185.25 223.87 185.2 227.31 185.24C230.64 185.29 233.96 185.31 237.29 185.31C244.07 185.32 250.85 185.34 257.63 185.33C279.96 185.3 302.31 185.31 324.64 185.34C326.52 185.33 328.39 185.34 330.27 185.34C342.41 185.35 354.54 185.34 366.67 185.3C372.73 185.28 378.8 185.27 384.87 185.26C390.21 185.24 395.63 185.43 400.97 185.09C401.25 185.13 401.53 185.15 401.82 185.16C402.08 185.17 402.33 185.17 402.55 185.15C402.68 185.14 402.81 185.14 402.94 185.13C403.04 185.13 403.1 185.08 403.11 185C403.26 182.78 403.28 180.58 403.17 178.36C403.16 178.26 403.06 178.18 402.94 178.18C402.74 178.17 402.54 178.18 402.35 178.19C399.14 177.94 395.91 177.95 392.68 177.94C389.34 177.93 386 177.92 382.65 177.91C375.84 177.9 369.03 177.88 362.22 177.86C349.7 177.82 337.18 177.82 324.66 177.82C312.94 177.82 301.23 177.83 289.52 177.83C277.41 177.82 265.31 177.86 253.2 177.84C247.17 177.83 241.12 177.82 235.09 177.87C229.07 177.91 222.99 177.77 216.99 178.14C216.92 178.15 216.88 178.19 216.87 178.24C216.85 178.25 216.83 178.27 216.83 178.28C216.82 178.32 216.82 178.35 216.82 178.38C216.75 178.41 216.68 178.46 216.68 178.52C216.67 179.03 216.78 179.54 216.75 180.06C216.72 180.55 216.66 181.06 216.62 181.55C216.57 182.12 216.6 182.66 216.64 183.19Z" fill="#F7CAB9"/>
<path d="M324.629 177.86V185.35C326.509 185.34 328.379 185.35 330.259 185.35C342.399 185.36 354.529 185.35 366.659 185.31C372.719 185.29 378.789 185.28 384.859 185.27C390.199 185.25 395.619 185.44 400.959 185.1C401.239 185.14 401.519 185.16 401.809 185.17C402.069 185.18 402.319 185.18 402.539 185.16C402.669 185.15 402.799 185.15 402.929 185.14C403.029 185.14 403.089 185.09 403.099 185.01C403.249 182.79 403.269 180.59 403.159 178.37C403.149 178.27 403.049 178.19 402.929 178.19C402.729 178.18 402.529 178.19 402.339 178.2C399.129 177.95 395.899 177.96 392.669 177.95C389.329 177.94 385.989 177.93 382.639 177.92C375.829 177.91 369.019 177.89 362.209 177.87C349.679 177.86 337.159 177.85 324.629 177.86Z" fill="#F2AC8F"/>
<path d="M397.281 234.42C397.281 234.42 404.511 255.93 422.021 258.68C422.021 258.68 427.621 229.43 397.281 234.42Z" fill="#39B039"/>
<path d="M426.052 277.86C425.972 277.86 425.912 277.79 425.922 277.72C426.562 263.57 419.312 252.81 413.122 246.28C406.412 239.2 399.452 235.42 399.382 235.38C399.312 235.34 399.292 235.26 399.322 235.19C399.362 235.12 399.442 235.1 399.512 235.13C399.582 235.17 406.572 238.97 413.322 246.08C419.552 252.65 426.842 263.47 426.202 277.73C426.192 277.8 426.122 277.86 426.052 277.86Z" fill="#15234F"/>
<path d="M401.69 241.17C401.63 241.17 401.57 241.12 401.56 241.06C401.55 240.99 401.59 240.91 401.67 240.9L406.35 239.96C406.42 239.94 406.5 239.99 406.51 240.07C406.52 240.14 406.48 240.22 406.4 240.23L401.72 241.17C401.71 241.17 401.7 241.17 401.69 241.17Z" fill="#15234F"/>
<path d="M410.09 243.21C410.02 243.21 409.96 243.15 409.96 243.08L409.82 236.09C409.82 236.01 409.88 235.95 409.96 235.95C410.04 235.95 410.1 236.01 410.1 236.08L410.24 243.07C410.23 243.14 410.17 243.2 410.09 243.21Z" fill="#15234F"/>
<path d="M407.971 248.53C407.911 248.53 407.861 248.49 407.841 248.43C407.821 248.36 407.861 248.28 407.941 248.26L413.701 246.73C413.771 246.71 413.851 246.75 413.871 246.83C413.891 246.9 413.851 246.98 413.771 247L408.011 248.53C407.991 248.53 407.981 248.53 407.971 248.53Z" fill="#15234F"/>
<path d="M418.182 252.29C418.102 252.29 418.042 252.22 418.052 252.14L418.482 244.77C418.482 244.69 418.562 244.65 418.632 244.64C418.712 244.64 418.762 244.71 418.762 244.79L418.332 252.16C418.322 252.23 418.262 252.29 418.182 252.29Z" fill="#15234F"/>
<path d="M419.891 254.94L415.221 254.73C415.141 254.73 415.081 254.66 415.091 254.59C415.091 254.51 415.161 254.45 415.231 254.46L419.901 254.67C419.981 254.67 420.041 254.74 420.031 254.81C420.031 254.89 419.971 254.95 419.891 254.94Z" fill="#15234F"/>
<path d="M459.222 233.73C459.222 233.73 450.082 254.5 432.392 255.66C432.392 255.66 429.452 226.02 459.222 233.73Z" fill="#39B039"/>
<path d="M426.652 274.4C426.732 274.4 426.792 274.34 426.792 274.27C427.432 260.12 435.622 250.06 442.382 244.11C449.712 237.66 456.972 234.53 457.042 234.5C457.112 234.47 457.142 234.39 457.112 234.32C457.082 234.25 457.002 234.22 456.932 234.25C456.862 234.28 449.552 237.43 442.192 243.91C435.392 249.89 427.152 260.01 426.512 274.26C426.512 274.33 426.572 274.39 426.652 274.4Z" fill="#15234F"/>
<path d="M454.221 240.06C454.281 240.06 454.341 240.02 454.361 239.96C454.381 239.89 454.341 239.81 454.271 239.79L449.691 238.43C449.621 238.41 449.541 238.45 449.521 238.52C449.501 238.59 449.541 238.67 449.611 238.69L454.191 240.05C454.201 240.06 454.211 240.06 454.221 240.06Z" fill="#15234F"/>
<path d="M445.67 241.32C445.74 241.32 445.8 241.27 445.81 241.2L446.58 234.26C446.59 234.18 446.53 234.12 446.46 234.11C446.38 234.1 446.32 234.16 446.31 234.23L445.54 241.17C445.53 241.25 445.58 241.32 445.67 241.32Z" fill="#15234F"/>
<path d="M447.3 246.82C447.36 246.82 447.41 246.79 447.44 246.73C447.47 246.66 447.43 246.58 447.36 246.55L441.76 244.51C441.69 244.48 441.61 244.52 441.58 244.59C441.55 244.66 441.59 244.74 441.66 244.77L447.26 246.81C447.27 246.81 447.29 246.82 447.3 246.82Z" fill="#15234F"/>
<path d="M436.79 249.64C436.87 249.64 436.93 249.58 436.93 249.51L437.17 242.13C437.17 242.05 437.11 242 437.04 241.99C436.96 241.99 436.9 242.05 436.9 242.12L436.66 249.5C436.66 249.57 436.71 249.64 436.79 249.64Z" fill="#15234F"/>
<path d="M434.85 252.13L439.52 252.34C439.6 252.34 439.66 252.28 439.66 252.21C439.66 252.13 439.6 252.07 439.53 252.07L434.86 251.86C434.78 251.86 434.72 251.92 434.72 251.99C434.71 252.06 434.77 252.13 434.85 252.13Z" fill="#15234F"/>
<path d="M417.261 215.34C417.261 215.34 408.801 238.53 427.831 251.98C427.831 251.98 441.191 228.54 417.261 215.34Z" fill="#39B039"/>
<path d="M428.469 278.62C428.389 278.61 428.329 278.54 428.339 278.47C431.649 248.03 418.159 217.52 418.019 217.22C417.989 217.15 418.019 217.07 418.089 217.04C418.159 217.01 418.239 217.04 418.269 217.11C418.409 217.42 431.929 247.99 428.609 278.5C428.609 278.57 428.549 278.62 428.469 278.62Z" fill="#15234F"/>
<path d="M422.591 229.31C422.581 229.31 422.561 229.31 422.551 229.3C422.481 229.27 422.441 229.19 422.471 229.12L425.031 222.53C425.061 222.46 425.141 222.42 425.211 222.45C425.281 222.48 425.321 222.56 425.291 222.63L422.731 229.22C422.711 229.28 422.651 229.32 422.591 229.31Z" fill="#15234F"/>
<path d="M424.05 234.95C424.04 234.95 424.03 234.95 424.02 234.95L417.39 233.33C417.32 233.31 417.27 233.24 417.29 233.16C417.31 233.09 417.38 233.04 417.46 233.06L424.09 234.68C424.16 234.7 424.21 234.77 424.19 234.85C424.18 234.91 424.12 234.95 424.05 234.95Z" fill="#15234F"/>
<path d="M425.99 242.08C425.96 242.08 425.93 242.07 425.91 242.05C425.85 242 425.85 241.91 425.9 241.86L430.04 237.06C430.09 237 430.18 237 430.23 237.05C430.29 237.1 430.29 237.19 430.24 237.24L426.1 242.04C426.08 242.06 426.04 242.08 425.99 242.08Z" fill="#15234F"/>
<path d="M426.999 247.51C426.979 247.51 426.959 247.5 426.949 247.5L423.269 245.73C423.199 245.7 423.169 245.61 423.209 245.55C423.239 245.48 423.319 245.45 423.389 245.49L427.069 247.26C427.139 247.29 427.169 247.38 427.129 247.44C427.109 247.49 427.059 247.52 426.999 247.51Z" fill="#15234F"/>
<path d="M420.892 224.37C420.872 224.37 420.852 224.36 420.842 224.36L417.152 222.59C417.082 222.56 417.052 222.47 417.092 222.41C417.122 222.34 417.202 222.31 417.272 222.35L420.962 224.12C421.032 224.15 421.062 224.24 421.022 224.3C420.992 224.34 420.942 224.37 420.892 224.37Z" fill="#15234F"/>
<path d="M436.37 272L436.23 273.04L436.16 273.63L434.16 289H421.21L419.21 273.63L419.13 273.04L419 272H436.37Z" fill="#E31E23"/>
<path d="M438.113 267.21H416.703V273.26H438.113V267.21Z" fill="#E31E23"/>
<path opacity="0.5" d="M435.893 273.27L435.823 273.86H418.873L418.793 273.27H435.893Z" fill="black"/>
<path d="M205.962 226.13H205.932C203.572 226.13 201.652 224.21 201.652 221.85V220.85C201.652 220.27 202.122 219.79 202.712 219.79H209.182C209.762 219.79 210.242 220.26 210.242 220.85V221.85C210.242 224.21 208.322 226.13 205.962 226.13Z" fill="white"/>
<path d="M209.181 219.79H205.941V226.13H205.951C208.311 226.13 210.231 224.21 210.231 221.85V220.85C210.241 220.27 209.761 219.79 209.181 219.79Z" fill="white"/>
<path d="M208.05 196.68H203.83C203.25 196.68 202.77 196.21 202.77 195.62V193.24C202.77 191.49 204.19 190.07 205.94 190.07C207.69 190.07 209.11 191.49 209.11 193.24V195.62C209.11 196.2 208.64 196.68 208.05 196.68Z" fill="white"/>
<path d="M208.051 196.68C208.631 196.68 209.111 196.21 209.111 195.62V193.24C209.111 191.49 207.691 190.07 205.941 190.07V196.67H208.051V196.68Z" fill="white"/>
<path d="M217.14 221.91H194.75C193.84 221.91 193.09 221.17 193.09 220.25V218.74C193.09 217.09 193.7 215.5 194.8 214.27C195.56 213.43 195.97 212.34 195.97 211.21V204.37C195.97 198.88 200.44 194.41 205.93 194.41C211.42 194.41 215.89 198.88 215.89 204.37V211.21C215.89 212.34 216.31 213.43 217.06 214.27C218.17 215.5 218.78 217.09 218.78 218.74V220.25C218.79 221.16 218.05 221.91 217.14 221.91Z" fill="white"/>
<path d="M217.139 221.91C218.049 221.91 218.799 221.17 218.799 220.25V218.74C218.799 217.09 218.189 215.5 217.079 214.27C216.319 213.43 215.909 212.34 215.909 211.21V204.37C215.909 198.88 211.439 194.41 205.949 194.41V221.92L217.139 221.91Z" fill="white"/>
<path d="M193.09 218.74V220.25C193.09 221.16 193.83 221.91 194.75 221.91H217.14C218.05 221.91 218.8 221.17 218.8 220.25V218.74C218.8 218.02 218.68 217.3 218.46 216.63H193.44C193.21 217.3 193.09 218.01 193.09 218.74Z" fill="white"/>
<path d="M205.941 216.63V221.91H217.131C218.041 221.91 218.791 221.17 218.791 220.25V218.74C218.791 218.02 218.671 217.3 218.451 216.63H205.941Z" fill="white"/>
<path d="M188.971 201.74C188.901 201.74 188.821 201.73 188.751 201.72C188.181 201.6 187.821 201.03 187.941 200.46C188.791 196.54 190.941 192.94 194.021 190.33C194.461 189.95 195.131 190.01 195.511 190.45C195.891 190.89 195.831 191.56 195.391 191.94C192.671 194.26 190.761 197.44 190.011 200.91C189.891 201.4 189.451 201.74 188.971 201.74Z" fill="white"/>
<path d="M222.91 201.74C222.42 201.74 221.99 201.4 221.88 200.91C221.13 197.44 219.22 194.26 216.5 191.94C216.06 191.56 216 190.9 216.38 190.45C216.76 190.01 217.42 189.95 217.87 190.33C220.94 192.95 223.1 196.55 223.95 200.46C224.07 201.03 223.71 201.59 223.14 201.72C223.05 201.73 222.98 201.74 222.91 201.74Z" fill="white"/>
<path d="M193.032 202.98C192.972 202.98 192.902 202.97 192.832 202.96C192.262 202.85 191.882 202.3 191.992 201.73C192.572 198.65 194.202 195.8 196.572 193.71C197.012 193.32 197.682 193.37 198.062 193.8C198.452 194.24 198.402 194.91 197.972 195.29C195.952 197.07 194.572 199.49 194.072 202.12C193.972 202.62 193.532 202.98 193.032 202.98Z" fill="white"/>
<path d="M218.853 202.98C218.353 202.98 217.913 202.63 217.813 202.12C217.323 199.5 215.933 197.07 213.913 195.29C213.473 194.9 213.433 194.24 213.823 193.8C214.213 193.36 214.873 193.32 215.313 193.71C217.683 195.8 219.313 198.65 219.893 201.73C220.003 202.3 219.623 202.86 219.053 202.96C218.983 202.97 218.913 202.98 218.853 202.98Z" fill="white"/>
<path d="M185.933 151.87H185.923C184.833 151.87 183.953 150.98 183.953 149.9V149.44C183.953 149.17 184.173 148.95 184.443 148.95H187.433C187.703 148.95 187.923 149.17 187.923 149.44V149.9C187.903 150.98 187.013 151.87 185.933 151.87Z" fill="#E527BB"/>
<path d="M187.412 148.94H185.922V151.86H185.932C187.022 151.86 187.902 150.97 187.902 149.89V149.43C187.902 149.16 187.682 148.94 187.412 148.94Z" fill="#E527BB"/>
<path d="M186.893 138.28H184.943C184.673 138.28 184.453 138.06 184.453 137.79V136.69C184.453 135.88 185.113 135.23 185.913 135.23C186.723 135.23 187.373 135.89 187.373 136.69V137.79C187.383 138.06 187.163 138.28 186.893 138.28Z" fill="#E527BB"/>
<path d="M186.892 138.28C187.162 138.28 187.382 138.06 187.382 137.79V136.69C187.382 135.88 186.722 135.23 185.922 135.23V138.28H186.892Z" fill="#E527BB"/>
<path d="M191.082 149.92H180.752C180.332 149.92 179.992 149.58 179.992 149.16V148.46C179.992 147.7 180.272 146.96 180.782 146.4C181.132 146.01 181.322 145.51 181.322 144.99V141.83C181.322 139.3 183.382 137.23 185.922 137.23C188.452 137.23 190.522 139.29 190.522 141.83V144.99C190.522 145.51 190.712 146.01 191.062 146.4C191.572 146.97 191.852 147.7 191.852 148.46V149.16C191.852 149.57 191.512 149.92 191.082 149.92Z" fill="#E527BB"/>
<path d="M191.08 149.92C191.5 149.92 191.84 149.58 191.84 149.16V148.46C191.84 147.7 191.56 146.96 191.05 146.4C190.7 146.01 190.51 145.51 190.51 144.99V141.83C190.51 139.3 188.45 137.23 185.91 137.23V149.92H191.08Z" fill="#E527BB"/>
<path d="M179.992 148.46V149.16C179.992 149.58 180.332 149.92 180.752 149.92H191.082C191.502 149.92 191.842 149.58 191.842 149.16V148.46C191.842 148.13 191.792 147.8 191.682 147.49H180.142C180.052 147.79 179.992 148.12 179.992 148.46Z" fill="#E527BB"/>
<path d="M185.922 147.48V149.92H191.082C191.502 149.92 191.842 149.58 191.842 149.16V148.46C191.842 148.13 191.792 147.8 191.682 147.49L185.922 147.48Z" fill="#E527BB"/>
<path d="M178.091 140.61C178.061 140.61 178.021 140.61 177.991 140.6C177.731 140.54 177.561 140.28 177.621 140.02C178.011 138.21 179.011 136.55 180.421 135.34C180.621 135.17 180.931 135.19 181.111 135.4C181.281 135.6 181.261 135.91 181.051 136.09C179.791 137.16 178.911 138.63 178.571 140.23C178.511 140.46 178.311 140.61 178.091 140.61Z" fill="#E527BB"/>
<path d="M193.752 140.61C193.532 140.61 193.322 140.45 193.272 140.23C192.922 138.63 192.042 137.16 190.792 136.09C190.592 135.92 190.562 135.61 190.732 135.4C190.902 135.2 191.212 135.17 191.422 135.34C192.842 136.55 193.832 138.21 194.222 140.02C194.282 140.28 194.112 140.54 193.852 140.6C193.812 140.61 193.782 140.61 193.752 140.61Z" fill="#E527BB"/>
<path d="M179.961 141.18C179.931 141.18 179.901 141.18 179.871 141.17C179.611 141.12 179.431 140.87 179.481 140.6C179.751 139.18 180.501 137.86 181.591 136.9C181.791 136.72 182.101 136.74 182.281 136.94C182.461 137.14 182.441 137.45 182.241 137.63C181.311 138.45 180.671 139.57 180.441 140.78C180.401 141.02 180.191 141.18 179.961 141.18Z" fill="#E527BB"/>
<path d="M191.873 141.18C191.643 141.18 191.443 141.02 191.393 140.78C191.163 139.57 190.523 138.45 189.593 137.63C189.393 137.45 189.373 137.14 189.553 136.94C189.733 136.74 190.043 136.72 190.243 136.9C191.333 137.86 192.083 139.18 192.353 140.6C192.403 140.86 192.233 141.12 191.963 141.17C191.933 141.18 191.903 141.18 191.873 141.18Z" fill="#E527BB"/>
</g>
<defs>
<clipPath id="clip0_1470_5234">
<rect width="385.22" height="272.81" fill="white" transform="translate(74 24)"/>
</clipPath>
</defs>
</svg>
