<svg width="543" height="329" viewBox="0 0 543 329" fill="none" xmlns="http://www.w3.org/2000/svg">
<g clip-path="url(#clip0_2203_17536)">
<path opacity="0.2" d="M127.492 328.58L412.142 311.93C487.412 307.53 545.652 243.73 542.512 168.39C539.872 105.08 517.192 37.64 440.912 8.81999C387.262 -11.45 317.592 5.13999 273.402 38.85C262.782 46.95 253.022 56.24 241.612 63.17C215.022 79.32 191.672 68.17 163.972 63.88C105.412 54.79 46.9621 73.46 16.7021 127.43C-29.7579 210.35 25.0421 334.57 127.492 328.58Z" fill="#999999"/>
<path d="M436.18 155.241C436.18 175.98 419.372 192.788 398.633 192.788C377.894 192.788 361.086 175.98 361.086 155.241C361.086 134.502 377.894 117.694 398.633 117.694C419.372 117.694 436.18 134.502 436.18 155.241Z" fill="#A78BEF"/>
<path d="M429.639 155.241C429.639 138.503 416.072 124.945 399.343 124.945C382.605 124.945 369.047 138.512 369.047 155.241C369.047 171.97 382.614 185.537 399.343 185.537C416.072 185.537 429.639 171.979 429.639 155.241Z" fill="white"/>
<path d="M398.633 131.619H399.34V126.159H398.633V131.619Z" fill="#E527BB"/>
<path d="M398.633 184.017H399.34V178.557H398.633V184.017Z" fill="#E527BB"/>
<path d="M376.954 155.241H370.883V154.577H376.954V155.241Z" fill="#E527BB"/>
<path d="M388.474 135.533L384.805 130.702L385.329 130.3L388.998 135.131L388.474 135.533Z" fill="#E527BB"/>
<path d="M409.469 135.035L413.356 130.37L413.863 130.789L409.975 135.454L409.469 135.035Z" fill="#E527BB"/>
<path d="M417.523 143.483L422.573 140.111L422.94 140.661L417.89 144.033L417.523 143.483Z" fill="#E527BB"/>
<path d="M384.758 178.61L388.558 173.875L389.073 174.285L385.273 179.02L384.758 178.61Z" fill="#E527BB"/>
<path d="M375.469 166.886L380.518 163.514L380.885 164.064L375.836 167.436L375.469 166.886Z" fill="#E527BB"/>
<path d="M418.723 165.13L423.982 168.161L423.65 168.738L418.391 165.707L418.723 165.13Z" fill="#E527BB"/>
<path d="M410.545 173.945L414.528 178.531L414.03 178.968L410.047 174.381L410.545 173.945Z" fill="#E527BB"/>
<path d="M381.61 143.754L376.211 140.984L376.517 140.399L381.915 143.168L381.61 143.754Z" fill="#E527BB"/>
<path d="M428.142 154.909H422.07V154.245H428.142V154.909Z" fill="#E527BB"/>
<path d="M399.336 155.241L407.583 138.294L410.483 136.625V139.656L400.026 156.193L399.336 155.241Z" fill="#E527BB"/>
<path d="M399.879 151.668L399.172 165.776C399.172 165.776 400.832 167.139 401.251 167.139C401.67 167.139 402.256 165.471 402.256 165.471L400.57 152.419L399.879 151.668Z" fill="#E527BB"/>
<path d="M401.984 155.669C401.984 156.831 401.041 157.775 399.879 157.775C398.717 157.775 397.773 156.831 397.773 155.669C397.773 154.507 398.717 153.564 399.879 153.564C401.041 153.564 401.984 154.507 401.984 155.669Z" fill="#E527BB"/>
<path d="M374.939 129.034C373.114 130.405 370.484 132.738 368.23 136.293C366.448 139.106 365.479 141.753 364.937 143.71C364.876 143.937 365.007 144.173 365.234 144.234C365.461 144.295 365.697 144.164 365.767 143.937C366.291 142.041 367.226 139.473 368.955 136.747C371.139 133.297 373.69 131.043 375.455 129.715C375.647 129.575 375.682 129.304 375.542 129.112C375.402 128.929 375.132 128.894 374.939 129.034Z" fill="#E527BB"/>
<path d="M161.799 28.702C160.978 26.7451 159.545 25.4348 157.911 25.1465C156.278 24.8582 154.627 25.6269 153.456 27.2256C110.336 85.9744 133.626 150.227 143.916 172.329C144.834 174.303 146.397 175.535 148.11 175.648C149.822 175.753 151.473 174.722 152.547 172.879C189.413 109.343 170.456 49.4235 161.799 28.702Z" fill="#1DA313"/>
<g opacity="0.56">
<path d="M155.61 33.8299C153.723 44.9594 152.264 56.1676 151.041 67.3932C149.835 78.6188 148.901 89.8793 148.298 101.149L147.913 109.605C147.8 112.427 147.765 115.248 147.686 118.07L147.59 122.298V126.526V130.754C147.599 132.161 147.564 133.576 147.625 134.983C147.809 146.261 148.542 157.521 149.792 168.712V168.738C149.853 169.28 149.468 169.76 148.927 169.821C148.385 169.882 147.905 169.498 147.844 168.956C147.844 168.948 147.844 168.939 147.844 168.93L147.11 160.456L146.926 158.342L146.839 157.285L146.787 156.228L146.586 151.983L146.376 147.737L146.271 145.614L146.236 143.491L146.088 135C146.044 133.585 146.096 132.17 146.096 130.754L146.14 126.509L146.184 122.263L146.324 118.018C146.428 115.187 146.498 112.365 146.638 109.535L147.11 101.061C147.852 89.7745 148.822 78.5052 150.115 67.2709C150.77 61.6537 151.469 56.0453 152.264 50.4456L152.858 46.2436L153.487 42.0504C153.915 39.2549 154.361 36.4682 154.85 33.6727C154.885 33.4718 155.077 33.332 155.287 33.3669C155.514 33.4281 155.653 33.6203 155.61 33.8299Z" fill="white"/>
<path d="M150.036 67.6552C149.958 67.6028 149.897 67.5154 149.87 67.4106C149.818 67.1922 149.958 66.965 150.185 66.9126C156.125 65.5586 164.686 53.9049 164.774 53.7826C164.905 53.5991 165.167 53.5555 165.35 53.6865C165.534 53.8175 165.577 54.0796 165.438 54.2631C165.08 54.7523 156.606 66.2836 150.368 67.7076C150.246 67.7513 150.124 67.7251 150.036 67.6552Z" fill="white"/>
<path d="M150.032 67.6554C150.015 67.6467 149.997 67.6292 149.98 67.6117C149.709 67.3409 143.236 60.8414 140.659 53.8352C140.58 53.6256 140.685 53.381 140.903 53.3024C141.113 53.2237 141.358 53.3373 141.436 53.547C143.952 60.3872 150.495 66.9653 150.565 67.0264C150.723 67.1837 150.723 67.4457 150.565 67.6117C150.417 67.7602 150.19 67.769 150.032 67.6554Z" fill="white"/>
<path d="M147.647 98.2306C147.586 98.1869 147.534 98.1258 147.507 98.0559C147.42 97.8462 147.525 97.6016 147.735 97.5143C157.003 93.6967 163.922 82.7681 163.992 82.6633C164.114 82.4711 164.368 82.4099 164.56 82.5322C164.752 82.6545 164.813 82.9079 164.691 83.1001C164.621 83.2136 157.554 94.3606 148.049 98.283C147.909 98.3354 147.761 98.3092 147.647 98.2306Z" fill="white"/>
<path d="M144.825 96.7805C141.82 94.6227 136.885 90.0975 133.478 81.9208C133.39 81.7111 133.486 81.4665 133.696 81.3791C133.906 81.2918 134.15 81.3879 134.238 81.5975C139.208 93.5482 147.717 97.6017 147.804 97.6366C148.014 97.7327 148.101 97.9773 148.005 98.187C147.909 98.3966 147.665 98.484 147.455 98.3879C147.341 98.3355 146.319 97.8463 144.825 96.7805Z" fill="white"/>
<path d="M146.688 140.006L146.679 139.997C146.583 139.927 137.14 132.641 131.82 122.158C131.715 121.957 131.793 121.704 132.003 121.608C132.204 121.503 132.457 121.582 132.553 121.791C137.786 132.1 147.09 139.281 147.177 139.351C147.361 139.49 147.396 139.744 147.256 139.927C147.116 140.093 146.863 140.128 146.688 140.006Z" fill="white"/>
<path d="M146.686 140.006C146.634 139.971 146.59 139.927 146.564 139.866C146.459 139.665 146.529 139.412 146.73 139.307C146.835 139.254 157.143 133.646 163.59 122.412C163.704 122.211 163.957 122.15 164.149 122.263C164.342 122.377 164.411 122.63 164.298 122.822C157.728 134.275 147.211 139.98 147.106 140.032C146.975 140.111 146.809 140.093 146.686 140.006Z" fill="white"/>
</g>
<path d="M119.798 54.0542C118.671 52.7089 117.212 52.0275 115.849 52.2022C114.487 52.377 113.377 53.3816 112.836 54.9366C93.1712 111.912 127.32 156.98 140.869 171.919C142.075 173.255 143.612 173.849 144.992 173.509C146.373 173.168 147.43 171.954 147.823 170.233C161.381 111.003 131.723 68.3025 119.798 54.0542Z" fill="#1DA313"/>
<g opacity="0.56">
<path d="M115.844 59.6358C117.076 68.8871 118.683 78.1034 120.474 87.2673C122.282 96.4313 124.3 105.552 126.598 114.602L128.371 121.372C128.974 123.626 129.638 125.862 130.276 128.108L131.237 131.471L132.276 134.808L133.316 138.145C133.674 139.255 133.988 140.381 134.381 141.473C137.299 150.332 140.645 159.041 144.393 167.568L144.402 167.594C144.62 168.092 144.393 168.668 143.895 168.887C143.397 169.105 142.82 168.878 142.602 168.38C142.602 168.371 142.593 168.363 142.593 168.354L139.946 161.828L139.282 160.194L138.95 159.382L138.653 158.552L137.456 155.241L136.26 151.939L135.657 150.288L135.107 148.619L132.914 141.945C132.529 140.836 132.224 139.709 131.883 138.582L130.878 135.219L129.874 131.855L128.948 128.466C128.345 126.203 127.707 123.949 127.122 121.687L125.427 114.873C123.252 105.77 121.269 96.6235 119.539 87.4246C118.683 82.8295 117.862 78.217 117.119 73.6044C116.359 68.9919 115.66 64.3619 115.058 59.7144C115.031 59.5047 115.18 59.3213 115.381 59.2951C115.634 59.2863 115.818 59.4261 115.844 59.6358Z" fill="white"/>
<path d="M119.511 87.7393C119.467 87.7043 119.432 87.6694 119.406 87.6257C119.293 87.4248 119.363 87.1802 119.555 87.0579C123.897 84.5419 127.793 73.2639 127.836 73.1503C127.906 72.9319 128.142 72.8184 128.361 72.897C128.579 72.9669 128.692 73.2028 128.614 73.4211C128.448 73.8929 124.569 85.1098 119.974 87.7742C119.826 87.8616 119.642 87.8353 119.511 87.7393Z" fill="white"/>
<path d="M113.547 83.8167C111.878 82.4976 110.158 80.9164 108.812 79.1605C108.672 78.977 108.707 78.7237 108.891 78.5839C109.074 78.4441 109.328 78.4791 109.467 78.6625C113.128 83.4323 119.898 87.0228 119.959 87.0577C120.16 87.1625 120.239 87.4159 120.134 87.6168C120.029 87.8177 119.776 87.8964 119.575 87.7915C119.4 87.6867 116.552 86.1841 113.547 83.8167Z" fill="white"/>
<path d="M125.127 112.479C125.1 112.462 125.083 112.444 125.066 112.418C124.917 112.243 124.943 111.981 125.118 111.841C131.486 106.565 134.273 96.2564 134.299 96.1604C134.361 95.942 134.579 95.8109 134.806 95.8633C135.024 95.9245 135.155 96.1516 135.103 96.37C134.989 96.8068 132.22 107.037 125.651 112.479C125.494 112.601 125.275 112.593 125.127 112.479Z" fill="white"/>
<path d="M114.794 107.753C113.231 106.521 111.615 105.001 110.042 103.105C109.894 102.931 109.92 102.669 110.095 102.529C110.269 102.38 110.531 102.407 110.671 102.581C114.235 106.862 118.018 109.168 120.56 110.348C123.321 111.632 125.26 111.903 125.277 111.903C125.505 111.937 125.662 112.138 125.627 112.366C125.601 112.593 125.391 112.75 125.164 112.724C124.911 112.689 120.184 112.007 114.794 107.753Z" fill="white"/>
<path d="M122.318 138.669C121.034 137.656 119.767 136.538 118.57 135.306C118.413 135.14 118.413 134.878 118.579 134.721C118.745 134.563 118.998 134.563 119.164 134.729C125.812 141.578 134.906 144.968 134.993 145.003C135.212 145.081 135.317 145.317 135.238 145.536C135.159 145.745 134.924 145.859 134.705 145.78C134.635 145.754 128.337 143.404 122.318 138.669Z" fill="white"/>
<path d="M134.605 145.719C134.596 145.71 134.579 145.702 134.57 145.684C134.404 145.527 134.404 145.265 134.57 145.099C134.64 145.029 141.393 138.093 143.734 127.653C143.786 127.435 144.005 127.295 144.223 127.339C144.441 127.391 144.581 127.61 144.537 127.828C142.144 138.503 135.225 145.606 135.155 145.675C135.007 145.833 134.771 145.85 134.605 145.719Z" fill="white"/>
</g>
<path d="M257.126 243.046V254.088H257.108C256.427 260.753 228.551 272.992 188.051 273.219C128.516 273.56 108.406 260.264 107.472 253.45H107.445V243.273L257.126 243.046Z" fill="#D277F5"/>
<path d="M107.445 243.316C107.445 250.183 141.804 255.599 183.5 255.424C224.454 255.25 257.126 249.729 257.126 243.081C257.126 236.433 224.454 231.008 183.5 230.964C141.804 230.92 107.445 236.45 107.445 243.316Z" fill="url(#paint0_linear_2203_17536)"/>
<path d="M108.031 242.478C108.031 249.292 142.127 254.682 183.509 254.525C224.175 254.367 256.62 248.89 256.62 242.294C256.62 235.699 224.175 230.3 183.509 230.248C142.127 230.186 108.031 235.664 108.031 242.478Z" fill="url(#paint1_linear_2203_17536)"/>
<path d="M107.445 253.45V243.273L257.126 243.046V254.088L107.445 253.45Z" fill="#D277F5"/>
<path d="M107.445 243.316C107.445 250.183 141.804 255.599 183.5 255.424C224.454 255.25 257.126 249.729 257.126 243.081C257.126 236.433 224.454 231.008 183.5 230.964C141.804 230.92 107.445 236.45 107.445 243.316Z" fill="#DAA7EE"/>
<path d="M257.126 222.115V233.157H257.108C256.427 239.822 228.551 251.485 188.051 251.275C123.877 250.943 108.398 239.324 107.463 232.519H107.445V222.342L257.126 222.115Z" fill="#D277F5"/>
<path d="M107.445 222.385C107.445 229.252 141.804 234.668 183.5 234.493C224.454 234.318 257.126 228.797 257.126 222.149C257.126 215.501 224.454 210.076 183.5 210.033C141.804 209.989 107.445 215.519 107.445 222.385Z" fill="url(#paint2_linear_2203_17536)"/>
<path d="M108.031 221.547C108.031 228.361 142.127 233.751 183.509 233.593C224.175 233.436 256.62 227.959 256.62 221.363C256.62 214.759 224.175 209.369 183.509 209.316C142.127 209.255 108.031 214.733 108.031 221.547Z" fill="url(#paint3_linear_2203_17536)"/>
<path d="M107.445 232.519V222.342L257.126 222.115V233.157L107.445 232.519Z" fill="#D277F5"/>
<path d="M107.445 222.385C107.445 229.252 141.804 234.668 183.5 234.493C224.454 234.318 257.126 228.797 257.126 222.149C257.126 215.501 224.454 210.076 183.5 210.033C141.804 209.989 107.445 215.519 107.445 222.385Z" fill="#DAA7EE"/>
<path d="M257.126 201.131V212.173H257.108C256.427 218.838 228.551 230.501 188.051 230.291C123.877 229.959 108.398 218.341 107.463 211.535H107.445V201.358L257.126 201.131Z" fill="#D277F5"/>
<path d="M107.445 201.402C107.445 208.268 141.804 213.684 183.5 213.51C224.454 213.335 257.126 207.814 257.126 201.166C257.126 194.518 224.454 189.093 183.5 189.049C141.804 189.005 107.445 194.535 107.445 201.402Z" fill="url(#paint4_linear_2203_17536)"/>
<path d="M108.031 200.563C108.031 207.377 142.127 212.767 183.509 212.61C224.175 212.453 256.62 206.975 256.62 200.38C256.62 193.775 224.175 188.385 183.509 188.333C142.127 188.272 108.031 193.749 108.031 200.563Z" fill="url(#paint5_linear_2203_17536)"/>
<path d="M107.445 211.535V201.358L257.126 201.131V212.173L107.445 211.535Z" fill="#D277F5"/>
<path d="M107.445 201.402C107.445 208.268 141.804 213.684 183.5 213.51C224.454 213.335 257.126 207.814 257.126 201.166C257.126 194.518 224.454 189.093 183.5 189.049C141.804 189.005 107.445 194.535 107.445 201.402Z" fill="#DAA7EE"/>
<path d="M257.126 180.147V191.189H257.108C256.427 197.855 228.551 209.517 188.051 209.308C123.877 208.976 108.398 197.357 107.463 190.552H107.445V180.374L257.126 180.147Z" fill="#D277F5"/>
<path d="M107.445 180.418C107.445 187.284 141.804 192.701 183.5 192.526C224.454 192.351 257.126 186.83 257.126 180.182C257.126 173.534 224.454 168.109 183.5 168.065C141.804 168.022 107.445 173.552 107.445 180.418Z" fill="url(#paint6_linear_2203_17536)"/>
<path d="M108.031 179.579C108.031 186.393 142.127 191.783 183.509 191.626C224.175 191.469 256.62 185.992 256.62 179.396C256.62 172.792 224.175 167.402 183.509 167.349C142.127 167.288 108.031 172.765 108.031 179.579Z" fill="url(#paint7_linear_2203_17536)"/>
<path d="M107.445 190.552V180.374L257.126 180.147V191.189L107.445 190.552Z" fill="#D277F5"/>
<path d="M107.445 180.418C107.445 187.284 141.804 192.701 183.5 192.526C224.454 192.351 257.126 186.83 257.126 180.182C257.126 173.534 224.454 168.109 183.5 168.065C141.804 168.022 107.445 173.552 107.445 180.418Z" fill="#DAA7EE"/>
<path d="M257.126 159.155V170.197H257.108C256.427 176.863 228.551 188.525 188.051 188.315C123.877 187.983 108.398 176.365 107.463 169.559H107.445V159.382L257.126 159.155Z" fill="#D277F5"/>
<path d="M107.445 159.435C107.445 166.301 141.804 171.717 183.5 171.543C224.454 171.368 257.126 165.847 257.126 159.199C257.126 152.551 224.454 147.126 183.5 147.082C141.804 147.038 107.445 152.568 107.445 159.435Z" fill="url(#paint8_linear_2203_17536)"/>
<path d="M108.031 158.596C108.031 165.41 142.127 170.8 183.509 170.642C224.175 170.485 256.62 165.008 256.62 158.412C256.62 151.808 224.175 146.418 183.509 146.365C142.127 146.304 108.031 151.782 108.031 158.596Z" fill="url(#paint9_linear_2203_17536)"/>
<path d="M107.445 169.568V159.391L257.126 159.155V170.206L107.445 169.568Z" fill="#D277F5"/>
<path d="M107.445 159.435C107.445 166.301 141.804 171.717 183.5 171.543C224.454 171.368 257.126 165.847 257.126 159.199C257.126 152.551 224.454 147.126 183.5 147.082C141.804 147.038 107.445 152.568 107.445 159.435Z" fill="#DAA7EE"/>
<path d="M257.126 138.171V149.214H257.108C256.427 155.879 228.551 167.541 188.051 167.332C123.877 167 108.398 155.381 107.463 148.576H107.445V138.399L257.126 138.171Z" fill="#D277F5"/>
<path d="M107.445 138.451C107.445 145.317 141.804 150.734 183.5 150.559C224.454 150.384 257.126 144.863 257.126 138.215C257.126 131.567 224.454 126.142 183.5 126.098C141.804 126.055 107.445 131.585 107.445 138.451Z" fill="url(#paint10_linear_2203_17536)"/>
<path d="M108.031 137.612C108.031 144.426 142.127 149.816 183.509 149.659C224.175 149.502 256.62 144.024 256.62 137.429C256.62 130.825 224.175 125.435 183.509 125.382C142.127 125.321 108.031 130.798 108.031 137.612Z" fill="url(#paint11_linear_2203_17536)"/>
<path d="M107.445 148.585V138.407L257.126 138.171V149.222L107.445 148.585Z" fill="#D277F5"/>
<path d="M107.445 138.451C107.445 145.317 141.804 150.734 183.5 150.559C224.454 150.384 257.126 144.863 257.126 138.215C257.126 131.567 224.454 126.142 183.5 126.098C141.804 126.055 107.445 131.585 107.445 138.451Z" fill="#DAA7EE"/>
<path d="M257.126 117.188V128.23H257.108C256.427 134.895 228.551 146.558 188.051 146.348C123.877 146.016 108.398 134.397 107.463 127.592H107.445V117.415L257.126 117.188Z" fill="#D277F5"/>
<path d="M107.445 117.467C107.445 124.334 141.804 129.75 183.5 129.575C224.454 129.401 257.126 123.879 257.126 117.231C257.126 110.583 224.454 105.158 183.5 105.115C141.804 105.071 107.445 110.601 107.445 117.467Z" fill="url(#paint12_linear_2203_17536)"/>
<path d="M108.031 116.629C108.031 123.443 142.127 128.833 183.509 128.675C224.175 128.518 256.62 123.041 256.62 116.445C256.62 109.841 224.175 104.451 183.509 104.398C142.127 104.337 108.031 109.815 108.031 116.629Z" fill="url(#paint13_linear_2203_17536)"/>
<path d="M107.445 127.601V117.424L257.126 117.188V128.239L107.445 127.601Z" fill="#D277F5"/>
<path d="M107.445 117.467C107.445 124.334 141.804 129.75 183.5 129.575C224.454 129.401 257.126 123.879 257.126 117.231C257.126 110.583 224.454 105.158 183.5 105.115C141.804 105.071 107.445 110.601 107.445 117.467Z" fill="#DAA7EE"/>
<path d="M386.956 47.72C386.388 47.7025 385.934 47.2483 385.925 46.6804C385.821 40.8711 384.012 12.0427 358.617 6.01493C330.348 -0.694222 317.41 28.0555 317.41 28.0555C317.41 28.0555 282.432 14.6372 275.722 50.5766C253.787 55.8444 248.091 84.4806 262.356 98.4755C264.619 100.703 267.659 101.952 270.839 101.987L408.193 103.228C412.22 103.263 415.802 100.624 416.947 96.7632C421.227 82.2791 426.853 48.6548 386.956 47.72Z" fill="#5254CF"/>
<path d="M383.823 48.3314C383.255 48.3139 382.801 47.8596 382.792 47.3005C382.678 41.7271 380.888 14.9953 356.969 9.38684C330.237 3.12322 318.007 29.9686 318.007 29.9686C318.007 29.9686 284.933 17.4413 278.59 50.9958C258.052 55.8617 252.566 82.148 265.574 95.3479C267.854 97.6629 270.955 98.982 274.205 99.0082L403.505 100.161C407.541 100.196 411.122 97.5493 412.258 93.6706C416.285 79.9203 421.064 49.2224 383.823 48.3314Z" fill="#A78BEF"/>
<path d="M269.834 256.901L265.711 293.862H313.531L307.302 256.901H269.834Z" fill="#C91BA8"/>
<path d="M186.625 163.182V250.296C186.625 257.46 192.338 263.321 199.502 263.505C231.318 264.326 342.604 266.318 372.891 265.872C378.098 265.794 382.317 261.627 382.466 256.429C383.051 236.188 383.995 187.529 380.492 164.929C379.749 160.168 375.739 156.613 370.926 156.455C344.264 155.599 226.295 152.891 196.025 153.573C190.792 153.695 186.625 157.958 186.625 163.182Z" fill="#E527BB"/>
<path d="M192.094 162.754V245.518C192.094 249.702 195.448 253.109 199.633 253.17L368.532 255.258C372.682 255.319 376.08 251.982 376.098 247.833L376.377 165.812C376.386 162.841 374.027 160.413 371.057 160.343L198.13 156.849C194.828 156.77 192.094 159.443 192.094 162.754Z" fill="#DAA7EE"/>
<path d="M377.378 258.692L192.099 255.538C191.95 255.538 191.828 255.416 191.828 255.258C191.828 255.11 191.95 254.988 192.108 254.988L377.387 258.141C377.535 258.141 377.658 258.263 377.658 258.421C377.649 258.578 377.527 258.692 377.378 258.692Z" fill="#BDD0FB"/>
<path d="M323.831 301.427H253.847C251.943 301.427 250.519 300.073 250.886 298.623L251.786 295.068C252.057 294.002 253.227 293.215 254.625 293.172L322.092 291.066C323.551 291.023 324.844 291.792 325.158 292.901L326.775 298.562C327.194 300.029 325.761 301.427 323.831 301.427Z" fill="#E527BB"/>
<path opacity="0.32" d="M295.929 232.37C311.151 232.37 323.491 220.03 323.491 204.809C323.491 189.587 311.151 177.247 295.929 177.247C280.707 177.247 268.367 189.587 268.367 204.809C268.367 220.03 280.707 232.37 295.929 232.37Z" fill="white"/>
<path d="M295.677 221.145C294.472 221.145 293.345 220.507 292.724 219.45L282.25 201.786C281.272 200.135 281.796 197.986 283.43 196.999C285.063 196.003 287.177 196.544 288.156 198.196L295.433 210.461L305.051 191.338C305.916 189.617 307.995 188.936 309.69 189.809C311.384 190.683 312.066 192.788 311.201 194.5L298.761 219.24C298.193 220.367 297.066 221.101 295.808 221.145C295.756 221.145 295.712 221.145 295.677 221.145Z" fill="#E527BB"/>
<path d="M251.973 136.171C251.929 136.153 230.718 98.9996 227.844 95.4965C227.364 94.9112 226.612 94.6054 225.861 94.7015L219.938 95.4091L212.984 110.461L224.577 103.708C223.432 111.64 238.318 123.425 243.429 127.732C243.944 128.169 243.988 128.946 243.525 129.444L241.49 131.576C244.835 134.965 248.697 137.149 253.056 138.154L251.973 136.171Z" fill="url(#paint14_linear_2203_17536)"/>
<path d="M242.66 130.423C242.66 130.423 241.359 130.842 240.922 132.004C240.712 132.554 240.939 133.183 241.42 133.533C243.56 135.07 250.628 140.024 253.895 140.993C254.166 141.072 254.419 140.827 254.358 140.556C254.192 139.796 253.65 138.285 251.903 136.075L252.06 136.389C252.261 136.791 251.824 137.211 251.431 136.983C249.247 135.752 244.801 133.061 242.66 130.423Z" fill="#A78BEF"/>
<path d="M243.705 145.291C243.67 145.265 240.491 137.595 240.447 137.577C237.529 119.809 230.409 104.582 228.304 100.581C227.955 99.9084 227.282 99.4628 226.522 99.4017L220.582 98.895L210.719 112.226L223.438 107.963C220.713 115.502 232.908 130.056 237.04 135.306C237.459 135.839 237.346 136.617 236.787 137.001L234.358 138.678C236.953 142.679 240.29 145.597 244.352 147.466L243.705 145.291Z" fill="url(#paint15_linear_2203_17536)"/>
<path d="M235.748 137.778C235.748 137.778 234.385 137.927 233.721 138.975C233.407 139.473 233.494 140.137 233.896 140.574C235.687 142.513 241.601 148.794 244.598 150.402C244.842 150.533 245.139 150.349 245.139 150.07C245.13 149.292 244.903 147.702 243.645 145.178L243.733 145.518C243.846 145.946 243.331 146.27 242.999 145.973C241.121 144.33 237.312 140.792 235.748 137.778Z" fill="#A78BEF"/>
<path d="M192.768 96.0821C192.768 96.0821 187.396 104.075 186.95 107.727C186.513 111.379 188.435 112.637 194.061 113.1C210.808 114.48 219.063 109.465 219.063 109.465C220.208 102.162 221.02 100.302 230.586 96.3354C230.586 96.3354 218.487 97.2964 216.049 96.3529C213.621 95.4007 192.768 96.0821 192.768 96.0821Z" fill="black"/>
<path d="M211.419 50.7251C211.419 50.7251 208.588 51.2405 207.741 52.5072C207.059 53.5206 204.264 52.8916 203.382 55.0144C202.927 56.1064 201.835 56.7791 200.656 56.6393C197.721 56.2811 192.986 56.5345 190.924 61.2169C189.352 64.7986 190.854 66.738 192.715 67.7863C194.078 68.555 194.654 70.2498 193.947 71.6475C193.265 72.9841 193.23 74.74 195.327 76.7231C200.018 81.1696 208.256 72.9142 208.256 72.9142L214.162 56.1413L211.419 50.7251Z" fill="black"/>
<path d="M207.308 95.0249C207.308 95.0249 213.572 89.067 216.647 85.1184C218.315 82.9868 218.839 80.1739 218.062 77.5793C216.655 72.8357 214.157 67.9262 213.93 67.1662C213.58 65.9956 206.557 66.048 206.557 66.048C206.557 66.048 192.745 75.0022 187.32 90.1852L193.418 92.0809C193.418 92.0809 197.026 86.0269 200.59 82.1831C200.59 82.1831 194.423 90.325 194.204 93.6621L207.308 95.0249Z" fill="#A78BEF"/>
<path d="M219.234 97.3749L214.534 92.2557L209.101 93.7146C209.101 93.7146 202.767 94.693 199.142 93.7146C195.516 92.7362 195.516 92.7362 195.516 92.7362L187.322 90.1853L186.038 93.8194C185.715 94.7454 186.038 95.7675 186.842 96.3354C187.549 96.842 188.379 97.3924 188.912 97.6283C189.987 98.1 213.766 97.7768 213.766 97.7768L219.234 97.3749Z" fill="url(#paint16_linear_2203_17536)"/>
<path d="M210.078 57.1548L206.68 66.3712C206.994 68.2843 211.816 68.3368 212.559 67.1924C212.638 67.0788 212.681 66.939 212.707 66.808L214.236 59.6009C214.359 59.033 214.088 58.4477 213.572 58.1682L211.694 57.1723C210.969 56.7967 210.323 56.3773 210.078 57.1548Z" fill="url(#paint17_linear_2203_17536)"/>
<path d="M219.532 52.4549C219.532 52.4549 220.686 55.2329 219.218 59.4174C217.75 63.6019 215.444 63.9251 214.011 62.868C212.579 61.811 210.709 59.9241 210.535 56.1152C210.351 52.3064 217.934 48.9343 219.532 52.4549Z" fill="url(#paint18_linear_2203_17536)"/>
<path d="M213.366 55.9057C213.366 55.9057 215.987 50.2536 219.744 53.8528L220.014 55.3204C220.014 55.3204 223.657 54.342 222.513 51.0398C221.368 47.7377 217.857 46.0779 213.952 48.1483C210.047 50.2187 207.898 52.0707 208.064 55.0671C208.23 58.0635 210.483 57.0676 210.483 57.0676C210.483 57.0676 210.946 54.8749 212.004 54.4993C213.061 54.1236 213.017 55.7922 213.017 55.7922L213.366 55.9057Z" fill="black"/>
<path d="M212.497 55.9668C212.497 55.9668 213.86 53.0752 212.008 52.9354C210.156 52.8044 210.872 55.7309 211.222 56.7967L212.497 55.9668Z" fill="url(#paint19_linear_2203_17536)"/>
<path d="M203.675 99.4015C203.693 99.4015 203.71 99.4015 203.728 99.4015L225.366 99.3753C225.899 99.3753 226.336 98.9385 226.336 98.4056C226.336 97.8727 225.899 97.4272 225.366 97.4359L203.728 97.4621C203.195 97.4621 202.758 97.8989 202.758 98.4318C202.749 98.956 203.16 99.3753 203.675 99.4015Z" fill="#E527BB"/>
<path d="M244.81 79.7546H226.788C225.46 79.7546 224.246 80.5234 223.678 81.7202L215.344 99.3842H237.734C238.59 99.3842 239.359 98.86 239.673 98.065L246.129 81.7202C246.522 80.7767 245.823 79.7546 244.81 79.7546Z" fill="#E527BB"/>
<path d="M232.105 88.8138C231.712 90.028 232.001 91.2074 232.752 91.4433C233.494 91.6879 234.42 90.8929 234.814 89.6786C235.207 88.4643 234.918 87.285 234.167 87.0491C233.425 86.8132 232.499 87.5995 232.105 88.8138Z" fill="white"/>
<path d="M117.719 312.557C117.719 314.024 118.925 315.23 120.393 315.23H264.936C266.404 315.23 267.61 314.024 267.61 312.557L268.815 229.487C268.815 228.02 267.085 225.154 263.914 225.364L122.646 221.712C120.803 221.669 119.021 222.376 117.711 223.678C116.4 224.98 115.693 226.762 115.736 228.605L117.719 312.557Z" fill="#E527BB"/>
<path d="M106.646 322.123H275.773C276.131 322.123 276.419 321.834 276.419 321.476V315.466C276.419 315.108 276.131 314.82 275.773 314.82H106.646C106.288 314.82 106 315.108 106 315.466V321.476C106 321.834 106.288 322.123 106.646 322.123Z" fill="#E527BB"/>
<path d="M120.363 309.997C120.363 311.386 121.498 312.522 122.887 312.522H261.456C262.845 312.522 263.98 311.386 263.98 309.997L265.116 234.589C264.985 230.055 261.001 228.422 258.59 228.518L123.21 224.884C121.917 224.849 120.66 225.347 119.742 226.264C118.825 227.181 118.318 228.43 118.353 229.732L120.363 309.997Z" fill="#DAA7EE"/>
<path opacity="0.32" d="M186.1 302.388C199.687 302.388 210.7 291.374 210.7 277.788C210.7 264.202 199.687 253.188 186.1 253.188C172.514 253.188 161.5 264.202 161.5 277.788C161.5 291.374 172.514 302.388 186.1 302.388Z" fill="white"/>
<path d="M185.87 292.368C184.795 292.368 183.79 291.8 183.231 290.857L173.884 275.097C173.01 273.621 173.482 271.708 174.941 270.825C176.4 269.943 178.287 270.415 179.16 271.891L185.651 282.829L194.23 265.759C194.999 264.221 196.851 263.618 198.371 264.396C199.882 265.173 200.485 267.052 199.716 268.589L188.613 290.665C188.106 291.678 187.093 292.324 185.983 292.368C185.939 292.368 185.904 292.368 185.87 292.368Z" fill="#E527BB"/>
<path d="M327.257 223.661C324.663 223.888 322.671 226.063 322.662 228.666C322.619 244.618 322.54 299.619 323.58 319.091C323.693 321.153 325.379 322.778 327.45 322.795C337.662 322.909 367.049 323.11 383.735 322.044C387.212 321.826 389.911 318.943 389.911 315.466C389.894 298.728 389.623 251.659 387.334 230.143C387.063 227.566 384.984 225.556 382.398 225.355C371.251 224.482 341.663 222.411 327.257 223.661Z" fill="#E527BB"/>
<path d="M326.758 232.851C326.557 246.496 325.989 291.87 326.985 308.626C327.133 311.072 329.029 313.002 331.379 313.09C341.05 313.43 365.842 314.077 379.968 312.522C382.51 312.242 384.458 310.041 384.519 307.368C384.869 293.443 385.83 251.179 384.86 234.615C384.703 231.977 382.685 229.863 380.16 229.697C369.695 228.989 342.814 227.365 330.803 228.369C328.54 228.553 326.793 230.492 326.758 232.851Z" fill="#DAA7EE"/>
<path d="M350.12 226.037C350.129 226.413 350.426 226.718 350.802 226.727C352.662 226.779 357.904 226.945 360.245 227.024C360.708 227.041 361.058 226.622 360.962 226.168C360.953 226.15 360.892 225.574 360.298 225.53C358.716 225.417 353.929 225.12 350.776 225.303C350.138 225.347 350.103 226.089 350.12 226.037Z" fill="white"/>
<path opacity="0.32" d="M356.588 286.978C365.335 286.978 372.426 279.887 372.426 271.14C372.426 262.393 365.335 255.302 356.588 255.302C347.841 255.302 340.75 262.393 340.75 271.14C340.75 279.887 347.841 286.978 356.588 286.978Z" fill="white"/>
<path d="M356.441 280.522C355.751 280.522 355.104 280.156 354.746 279.553L348.727 269.41C348.168 268.458 348.465 267.226 349.408 266.659C350.343 266.091 351.566 266.397 352.125 267.349L356.301 274.39L361.822 263.4C362.32 262.413 363.508 262.02 364.486 262.527C365.465 263.033 365.849 264.239 365.351 265.226L358.205 279.439C357.882 280.086 357.227 280.505 356.511 280.531C356.484 280.522 356.467 280.522 356.441 280.522Z" fill="#E527BB"/>
<path d="M353.403 216.34C353.395 216.34 353.386 216.34 353.377 216.34C352.739 216.331 352.233 215.798 352.241 215.161C352.25 214.523 352.792 213.999 353.421 214.007C354.059 214.016 354.565 214.532 354.556 215.169V215.204C354.548 215.833 354.032 216.34 353.403 216.34ZM353.482 212.828C353.473 212.828 353.464 212.828 353.456 212.828C352.818 212.811 352.311 212.287 352.32 211.649L352.399 208.172C352.416 207.543 352.932 207.036 353.552 207.036C353.561 207.036 353.569 207.036 353.578 207.036C354.216 207.054 354.722 207.578 354.714 208.216L354.635 211.692C354.626 212.33 354.111 212.828 353.482 212.828ZM353.63 205.883C353.622 205.883 353.613 205.883 353.604 205.883C352.967 205.866 352.46 205.342 352.469 204.704L352.547 201.236C352.565 200.607 353.08 200.1 353.7 200.1C353.709 200.1 353.718 200.1 353.727 200.1C354.364 200.117 354.871 200.642 354.862 201.279L354.784 204.747C354.775 205.385 354.259 205.883 353.63 205.883ZM353.779 198.938C353.77 198.938 353.761 198.938 353.753 198.938C353.115 198.921 352.608 198.396 352.617 197.759L352.696 194.282C352.713 193.653 353.229 193.146 353.849 193.146C353.858 193.146 353.866 193.146 353.875 193.146C354.513 193.164 355.019 193.688 355.011 194.326L354.932 197.802C354.923 198.44 354.408 198.938 353.779 198.938ZM353.927 191.993C353.919 191.993 353.91 191.993 353.901 191.993C353.264 191.976 352.757 191.451 352.766 190.814L352.844 187.346C352.862 186.717 353.377 186.21 353.997 186.21C354.006 186.21 354.015 186.21 354.024 186.21C354.661 186.227 355.168 186.752 355.159 187.389L355.081 190.857C355.072 191.495 354.556 191.993 353.927 191.993ZM354.076 185.048C354.067 185.048 354.059 185.048 354.05 185.048C353.412 185.031 352.905 184.506 352.914 183.869L352.993 180.392C353.01 179.754 353.526 179.239 354.172 179.256C354.81 179.274 355.316 179.798 355.308 180.436L355.229 183.912C355.22 184.55 354.705 185.048 354.076 185.048ZM354.224 178.103C354.216 178.103 354.207 178.103 354.198 178.103C353.561 178.086 353.054 177.561 353.063 176.924L353.141 173.456C353.159 172.827 353.674 172.32 354.294 172.32C354.303 172.32 354.312 172.32 354.321 172.32C354.958 172.337 355.465 172.862 355.456 173.499L355.378 176.967C355.369 177.605 354.853 178.103 354.224 178.103ZM354.382 171.158C354.373 171.158 354.364 171.158 354.356 171.158C353.718 171.141 353.211 170.616 353.22 169.979L353.298 166.502C353.316 165.873 353.831 165.366 354.452 165.366C354.46 165.366 354.469 165.366 354.478 165.366C355.116 165.384 355.622 165.908 355.613 166.545L355.535 170.022C355.517 170.66 355.002 171.158 354.382 171.158ZM354.53 164.213C354.521 164.213 354.513 164.213 354.504 164.213C353.866 164.196 353.36 163.671 353.368 163.034L353.447 159.566C353.464 158.928 353.997 158.421 354.626 158.43C355.264 158.447 355.771 158.971 355.762 159.609L355.683 163.077C355.675 163.715 355.159 164.213 354.53 164.213ZM354.679 157.268C354.67 157.268 354.661 157.268 354.653 157.268C354.015 157.251 353.508 156.726 353.517 156.089L353.596 152.612C353.613 151.983 354.128 151.476 354.749 151.476C354.757 151.476 354.766 151.476 354.775 151.476C355.413 151.494 355.919 152.018 355.911 152.655L355.832 156.132C355.823 156.77 355.308 157.268 354.679 157.268ZM354.827 150.323C354.819 150.323 354.81 150.323 354.801 150.323C354.163 150.305 353.657 149.781 353.665 149.144L353.744 145.667C353.761 145.038 354.277 144.531 354.897 144.531C354.906 144.531 354.915 144.531 354.923 144.531C355.561 144.549 356.068 145.073 356.059 145.71L355.98 149.187C355.972 149.825 355.456 150.323 354.827 150.323ZM353.77 144.522C353.753 144.522 353.744 144.522 353.727 144.522L350.258 144.4C349.621 144.383 349.123 143.841 349.14 143.203C349.158 142.565 349.708 142.068 350.337 142.085L353.805 142.207C354.443 142.234 354.941 142.766 354.923 143.404C354.906 144.024 354.39 144.522 353.77 144.522ZM346.834 144.278C346.816 144.278 346.808 144.278 346.79 144.278L343.322 144.155C342.684 144.129 342.186 143.596 342.204 142.959C342.221 142.321 342.772 141.823 343.401 141.84L346.869 141.963C347.507 141.989 348.005 142.522 347.987 143.16C347.961 143.789 347.454 144.278 346.834 144.278ZM339.889 144.042C339.871 144.042 339.863 144.042 339.845 144.042L336.377 143.92C335.739 143.893 335.241 143.36 335.259 142.723C335.285 142.085 335.818 141.578 336.456 141.605L339.924 141.727C340.562 141.753 341.06 142.286 341.042 142.924C341.025 143.544 340.509 144.042 339.889 144.042ZM332.944 143.797C332.926 143.797 332.918 143.797 332.9 143.797L332.525 143.789C331.896 143.771 331.398 143.238 331.406 142.609L331.468 139.517C331.476 138.888 331.992 138.381 332.621 138.381C332.629 138.381 332.638 138.381 332.647 138.381C333.285 138.398 333.791 138.923 333.783 139.56L333.739 141.805C333.975 142.024 334.115 142.338 334.097 142.688C334.08 143.308 333.564 143.797 332.944 143.797ZM332.699 137.219C332.691 137.219 332.682 137.219 332.673 137.219C332.035 137.21 331.529 136.678 331.537 136.04L331.607 132.563C331.616 131.934 332.131 131.427 332.76 131.427C332.769 131.427 332.778 131.427 332.787 131.427C333.424 131.436 333.931 131.969 333.922 132.607L333.852 136.083C333.844 136.712 333.328 137.219 332.699 137.219ZM332.839 130.274C332.83 130.274 332.822 130.274 332.813 130.274C332.175 130.265 331.668 129.732 331.677 129.095L331.747 125.618C331.756 124.98 332.271 124.473 332.926 124.482C333.564 124.491 334.071 125.024 334.062 125.662L333.992 129.138C333.983 129.767 333.468 130.274 332.839 130.274ZM332.988 123.329C332.979 123.329 332.97 123.329 332.961 123.329C332.324 123.32 331.817 122.787 331.826 122.15L331.896 118.673C331.904 118.044 332.42 117.537 333.049 117.537C333.057 117.537 333.066 117.537 333.075 117.537C333.713 117.546 334.219 118.079 334.211 118.717L334.141 122.193C334.132 122.822 333.617 123.329 332.988 123.329ZM333.127 116.384C333.119 116.384 333.11 116.384 333.101 116.384C332.463 116.375 331.957 115.842 331.965 115.205L332.035 111.728C332.044 111.099 332.56 110.592 333.188 110.592C333.197 110.592 333.206 110.592 333.215 110.592C333.852 110.601 334.359 111.134 334.35 111.772L334.28 115.248C334.272 115.877 333.756 116.384 333.127 116.384ZM333.267 109.439C333.258 109.439 333.25 109.439 333.241 109.439C332.603 109.43 332.097 108.897 332.105 108.26L332.175 104.783C332.184 104.145 332.699 103.63 333.354 103.647C333.992 103.656 334.499 104.189 334.49 104.827L334.42 108.303C334.412 108.932 333.896 109.439 333.267 109.439Z" fill="white"/>
<path d="M260.318 217.711C260.309 217.711 260.309 217.711 260.3 217.711C259.662 217.703 259.147 217.17 259.164 216.532L259.226 213.055C259.234 212.426 259.75 211.92 260.379 211.92C260.388 211.92 260.388 211.92 260.396 211.92C261.034 211.928 261.549 212.461 261.532 213.099L261.471 216.576C261.462 217.205 260.947 217.711 260.318 217.711ZM260.431 210.766C260.422 210.766 260.422 210.766 260.414 210.766C259.776 210.758 259.261 210.225 259.278 209.587L259.339 206.11C259.348 205.481 259.863 204.975 260.492 204.975C260.501 204.975 260.501 204.975 260.51 204.975C261.148 204.983 261.663 205.516 261.645 206.154L261.584 209.631C261.584 210.26 261.06 210.766 260.431 210.766ZM260.545 203.821C260.536 203.821 260.536 203.821 260.527 203.821C259.89 203.813 259.374 203.28 259.392 202.642L259.453 199.165C259.462 198.527 260.003 198.021 260.632 198.03C261.27 198.038 261.785 198.571 261.768 199.209L261.707 202.686C261.698 203.315 261.182 203.821 260.545 203.821ZM260.658 196.868C260.65 196.868 260.65 196.868 260.641 196.868C260.003 196.859 259.488 196.326 259.505 195.688L259.566 192.211C259.575 191.574 260.108 191.058 260.746 191.076C261.383 191.084 261.899 191.617 261.881 192.255L261.82 195.732C261.811 196.37 261.296 196.868 260.658 196.868ZM260.772 189.923C260.763 189.923 260.763 189.923 260.754 189.923C260.117 189.914 259.601 189.381 259.619 188.743L259.68 185.266C259.689 184.629 260.222 184.113 260.859 184.131C261.497 184.139 262.012 184.672 261.995 185.31L261.934 188.787C261.925 189.416 261.41 189.923 260.772 189.923ZM260.894 182.978C260.885 182.978 260.885 182.978 260.877 182.978C260.239 182.969 259.724 182.436 259.741 181.798L259.802 178.321C259.811 177.684 260.344 177.16 260.982 177.186C261.619 177.194 262.135 177.727 262.117 178.365L262.056 181.842C262.039 182.471 261.523 182.978 260.894 182.978ZM261.008 176.033C260.999 176.033 260.999 176.033 260.99 176.033C260.353 176.024 259.837 175.491 259.855 174.853L259.916 171.376C259.925 170.739 260.457 170.214 261.095 170.241C261.733 170.249 262.248 170.782 262.231 171.42L262.17 174.897C262.152 175.526 261.637 176.033 261.008 176.033ZM261.121 169.088C261.113 169.088 261.113 169.088 261.104 169.088C260.466 169.079 259.951 168.546 259.968 167.908L260.029 164.431C260.038 163.802 260.553 163.296 261.182 163.296C261.191 163.296 261.191 163.296 261.2 163.296C261.838 163.304 262.353 163.837 262.336 164.475L262.274 167.952C262.266 168.581 261.75 169.088 261.121 169.088ZM261.235 162.143C261.226 162.143 261.226 162.143 261.217 162.143C260.58 162.134 260.064 161.601 260.082 160.963L260.143 157.486C260.152 156.857 260.667 156.351 261.296 156.351C261.305 156.351 261.305 156.351 261.314 156.351C261.951 156.359 262.467 156.892 262.449 157.53L262.388 161.007C262.379 161.636 261.864 162.143 261.235 162.143ZM261.348 155.197C261.34 155.197 261.34 155.197 261.331 155.197C260.693 155.189 260.178 154.656 260.195 154.018L260.256 150.541C260.265 149.912 260.781 149.406 261.41 149.406C261.418 149.406 261.418 149.406 261.427 149.406C262.065 149.414 262.58 149.947 262.563 150.585L262.502 154.062C262.493 154.691 261.977 155.197 261.348 155.197ZM261.462 148.252C261.453 148.252 261.453 148.252 261.445 148.252C260.807 148.244 260.291 147.711 260.309 147.073L260.37 143.596C260.379 142.967 260.894 142.461 261.523 142.461C261.532 142.461 261.532 142.461 261.541 142.461C262.178 142.469 262.694 143.002 262.676 143.64L262.615 147.117C262.606 147.746 262.091 148.252 261.462 148.252ZM263 142.74C262.371 142.74 261.846 142.233 261.846 141.596C261.838 140.958 262.353 140.434 262.991 140.425L266.468 140.381C267.097 140.39 267.63 140.888 267.638 141.526C267.647 142.164 267.132 142.688 266.494 142.696L263.017 142.74C263.017 142.74 263.008 142.74 263 142.74ZM269.945 142.653C269.316 142.653 268.791 142.146 268.791 141.508C268.783 140.871 269.298 140.347 269.936 140.338L273.413 140.294C274.05 140.294 274.575 140.801 274.583 141.438C274.592 142.076 274.077 142.6 273.439 142.609L269.962 142.653C269.962 142.653 269.953 142.653 269.945 142.653ZM276.898 142.565C276.269 142.565 275.745 142.059 275.745 141.421C275.736 140.783 276.252 140.259 276.89 140.25L277.501 140.242L277.51 139.63C277.519 138.992 278.034 138.468 278.689 138.494C279.327 138.503 279.842 139.027 279.825 139.674L279.799 141.412C279.79 142.041 279.283 142.548 278.654 142.548L276.925 142.565C276.907 142.565 276.898 142.565 276.898 142.565ZM278.715 137.333C278.707 137.333 278.707 137.333 278.698 137.333C278.06 137.324 277.545 136.8 277.562 136.153L277.615 132.676C277.623 132.039 278.148 131.506 278.794 131.541C279.432 131.549 279.947 132.074 279.93 132.72L279.877 136.197C279.86 136.826 279.344 137.333 278.715 137.333ZM278.82 130.388C278.811 130.388 278.811 130.388 278.803 130.388C278.165 130.379 277.65 129.855 277.667 129.208L277.72 125.731C277.728 125.094 278.252 124.578 278.899 124.596C279.537 124.604 280.052 125.129 280.035 125.775L279.982 129.252C279.973 129.881 279.449 130.388 278.82 130.388ZM278.934 123.434C278.925 123.434 278.925 123.434 278.916 123.434C278.279 123.425 277.763 122.901 277.781 122.255L277.833 118.778C277.842 118.14 278.366 117.616 279.012 117.642C279.65 117.651 280.166 118.175 280.148 118.821L280.096 122.298C280.078 122.936 279.563 123.434 278.934 123.434ZM279.039 116.489C279.03 116.489 279.03 116.489 279.021 116.489C278.383 116.48 277.868 115.956 277.885 115.309L277.938 111.833C277.947 111.195 278.471 110.679 279.117 110.697C279.755 110.706 280.27 111.23 280.253 111.876L280.2 115.353C280.192 115.982 279.676 116.489 279.039 116.489ZM279.152 109.544C279.143 109.544 279.143 109.544 279.135 109.544C278.497 109.535 277.982 109.011 277.999 108.364L278.051 104.888C278.06 104.25 278.593 103.726 279.231 103.752C279.869 103.761 280.384 104.285 280.366 104.931L280.314 108.408C280.297 109.037 279.781 109.544 279.152 109.544Z" fill="white"/>
<path d="M302.717 175.692C302.07 175.692 301.555 175.168 301.555 174.53V173.499C301.555 172.862 302.079 172.346 302.717 172.346C303.354 172.346 303.87 172.87 303.87 173.508V174.539C303.878 175.177 303.354 175.692 302.717 175.692ZM302.734 171.184C302.088 171.184 301.572 170.66 301.572 170.022L301.581 166.545C301.581 165.908 302.105 165.392 302.743 165.392C303.38 165.392 303.896 165.917 303.896 166.554L303.887 170.031C303.896 170.669 303.372 171.184 302.734 171.184ZM302.76 164.239C302.114 164.239 301.598 163.715 301.598 163.077L301.607 159.6C301.607 158.963 302.131 158.447 302.769 158.447C303.407 158.447 303.922 158.971 303.922 159.609L303.913 163.086C303.913 163.724 303.398 164.239 302.76 164.239ZM302.786 157.294C302.14 157.294 301.625 156.77 301.625 156.132L301.633 152.655C301.633 152.018 302.157 151.502 302.795 151.502C303.433 151.502 303.948 152.026 303.948 152.664L303.94 156.141C303.94 156.779 303.424 157.294 302.786 157.294ZM302.813 150.349C302.166 150.349 301.651 149.825 301.651 149.187L301.66 145.71C301.66 145.073 302.184 144.557 302.821 144.557C303.459 144.557 303.975 145.081 303.975 145.719L303.966 149.196C303.966 149.834 303.45 150.349 302.813 150.349ZM302.839 143.404C302.192 143.404 301.677 142.88 301.677 142.242L301.686 138.765C301.686 138.128 302.21 137.612 302.848 137.612C303.485 137.612 304.001 138.136 304.001 138.774L303.992 142.251C303.992 142.889 303.477 143.404 302.839 143.404ZM302.865 136.45C302.219 136.45 301.703 135.926 301.703 135.289L301.712 131.812C301.712 131.174 302.236 130.659 302.874 130.659C303.512 130.659 304.027 131.183 304.027 131.82L304.018 135.297C304.018 135.935 303.503 136.45 302.865 136.45ZM302.891 129.505C302.245 129.505 301.729 128.981 301.729 128.344L301.738 124.867C301.738 124.229 302.254 123.731 302.9 123.713C303.538 123.713 304.053 124.238 304.053 124.875L304.044 128.352C304.044 128.99 303.529 129.505 302.891 129.505ZM302.917 122.56C302.909 122.56 302.909 122.56 302.917 122.56C302.271 122.56 301.756 122.036 301.756 121.398L301.764 117.922C301.764 117.284 302.288 116.768 302.926 116.768C303.564 116.768 304.079 117.293 304.079 117.93L304.071 121.407C304.071 122.045 303.555 122.56 302.917 122.56ZM302.935 115.615C302.288 115.615 301.773 115.091 301.773 114.453L301.782 110.977C301.782 110.339 302.306 109.823 302.944 109.823C303.581 109.823 304.097 110.348 304.097 110.985L304.088 114.462C304.097 115.1 303.573 115.615 302.935 115.615ZM302.961 108.67C302.315 108.67 301.799 108.146 301.799 107.508L301.808 104.032C301.808 103.394 302.332 102.878 302.97 102.878C303.608 102.878 304.123 103.403 304.123 104.04L304.114 107.517C304.123 108.155 303.599 108.67 302.961 108.67Z" fill="white"/>
</g>
<defs>
<linearGradient id="paint0_linear_2203_17536" x1="186.454" y1="110.215" x2="176.325" y2="433.668" gradientUnits="userSpaceOnUse">
<stop stop-color="#4F52FF"/>
<stop offset="1" stop-color="#4042E2"/>
</linearGradient>
<linearGradient id="paint1_linear_2203_17536" x1="182.122" y1="252.836" x2="182.061" y2="226.518" gradientUnits="userSpaceOnUse">
<stop stop-color="#4F52FF"/>
<stop offset="1" stop-color="#4042E2"/>
</linearGradient>
<linearGradient id="paint2_linear_2203_17536" x1="185.799" y1="110.194" x2="175.67" y2="433.648" gradientUnits="userSpaceOnUse">
<stop stop-color="#4F52FF"/>
<stop offset="1" stop-color="#4042E2"/>
</linearGradient>
<linearGradient id="paint3_linear_2203_17536" x1="182.122" y1="231.903" x2="182.061" y2="205.585" gradientUnits="userSpaceOnUse">
<stop stop-color="#4F52FF"/>
<stop offset="1" stop-color="#4042E2"/>
</linearGradient>
<linearGradient id="paint4_linear_2203_17536" x1="185.143" y1="110.173" x2="175.014" y2="433.627" gradientUnits="userSpaceOnUse">
<stop stop-color="#4F52FF"/>
<stop offset="1" stop-color="#4042E2"/>
</linearGradient>
<linearGradient id="paint5_linear_2203_17536" x1="182.122" y1="210.919" x2="182.061" y2="184.601" gradientUnits="userSpaceOnUse">
<stop stop-color="#4F52FF"/>
<stop offset="1" stop-color="#4042E2"/>
</linearGradient>
<linearGradient id="paint6_linear_2203_17536" x1="184.486" y1="110.153" x2="174.357" y2="433.606" gradientUnits="userSpaceOnUse">
<stop stop-color="#4F52FF"/>
<stop offset="1" stop-color="#4042E2"/>
</linearGradient>
<linearGradient id="paint7_linear_2203_17536" x1="182.122" y1="189.934" x2="182.061" y2="163.617" gradientUnits="userSpaceOnUse">
<stop stop-color="#4F52FF"/>
<stop offset="1" stop-color="#4042E2"/>
</linearGradient>
<linearGradient id="paint8_linear_2203_17536" x1="183.83" y1="110.133" x2="173.701" y2="433.585" gradientUnits="userSpaceOnUse">
<stop stop-color="#4F52FF"/>
<stop offset="1" stop-color="#4042E2"/>
</linearGradient>
<linearGradient id="paint9_linear_2203_17536" x1="182.122" y1="168.95" x2="182.061" y2="142.632" gradientUnits="userSpaceOnUse">
<stop stop-color="#4F52FF"/>
<stop offset="1" stop-color="#4042E2"/>
</linearGradient>
<linearGradient id="paint10_linear_2203_17536" x1="183.173" y1="110.112" x2="173.044" y2="433.566" gradientUnits="userSpaceOnUse">
<stop stop-color="#4F52FF"/>
<stop offset="1" stop-color="#4042E2"/>
</linearGradient>
<linearGradient id="paint11_linear_2203_17536" x1="182.122" y1="147.966" x2="182.061" y2="121.648" gradientUnits="userSpaceOnUse">
<stop stop-color="#4F52FF"/>
<stop offset="1" stop-color="#4042E2"/>
</linearGradient>
<linearGradient id="paint12_linear_2203_17536" x1="182.517" y1="110.092" x2="172.388" y2="433.545" gradientUnits="userSpaceOnUse">
<stop stop-color="#4F52FF"/>
<stop offset="1" stop-color="#4042E2"/>
</linearGradient>
<linearGradient id="paint13_linear_2203_17536" x1="182.122" y1="126.982" x2="182.061" y2="100.664" gradientUnits="userSpaceOnUse">
<stop stop-color="#4F52FF"/>
<stop offset="1" stop-color="#4042E2"/>
</linearGradient>
<linearGradient id="paint14_linear_2203_17536" x1="257.061" y1="105.043" x2="223.609" y2="124.137" gradientUnits="userSpaceOnUse">
<stop stop-color="#FEBBBA"/>
<stop offset="1" stop-color="#FF928E"/>
</linearGradient>
<linearGradient id="paint15_linear_2203_17536" x1="253.822" y1="109.805" x2="368.28" y2="38.1521" gradientUnits="userSpaceOnUse">
<stop stop-color="#FEBBBA"/>
<stop offset="1" stop-color="#FF928E"/>
</linearGradient>
<linearGradient id="paint16_linear_2203_17536" x1="198.465" y1="94.037" x2="165.142" y2="94.037" gradientUnits="userSpaceOnUse">
<stop stop-color="#FEBBBA"/>
<stop offset="1" stop-color="#FF928E"/>
</linearGradient>
<linearGradient id="paint17_linear_2203_17536" x1="211.47" y1="78.4238" x2="210.679" y2="66.096" gradientUnits="userSpaceOnUse">
<stop stop-color="#FEBBBA"/>
<stop offset="1" stop-color="#FF928E"/>
</linearGradient>
<linearGradient id="paint18_linear_2203_17536" x1="212.385" y1="66.7314" x2="220.597" y2="36.5177" gradientUnits="userSpaceOnUse">
<stop stop-color="#FEBBBA"/>
<stop offset="1" stop-color="#FF928E"/>
</linearGradient>
<linearGradient id="paint19_linear_2203_17536" x1="208.768" y1="65.749" x2="216.98" y2="35.5355" gradientUnits="userSpaceOnUse">
<stop stop-color="#FEBBBA"/>
<stop offset="1" stop-color="#FF928E"/>
</linearGradient>
<clipPath id="clip0_2203_17536">
<rect width="542.64" height="328.79" fill="white"/>
</clipPath>
</defs>
</svg>
