<svg width="543" height="329" viewBox="0 0 543 329" fill="none" xmlns="http://www.w3.org/2000/svg">
<g clip-path="url(#clip0_2186_12204)">
<path opacity="0.2" d="M78.788 327.839C41.4882 290.535 -9.49424 252.012 10.4949 193.818C23.6478 155.541 55.8804 144.88 82.6859 121.276C95.9087 109.631 87.5932 92.6757 87.3433 75.8481C86.7836 32.7513 139.135 -0.687543 187.269 0.010739C239.401 0.768031 261.969 48.9102 305.705 51.4968C322.876 51.7426 338.257 42.4781 353.449 35.1314C398.465 13.3371 469.906 27.2339 473.514 79.9296C474.444 108.392 439.183 154.174 474.514 169.143C502.668 181.072 531.113 185.469 536.19 228.133C542.837 283.976 507.716 314.621 461.971 329L78.788 327.839Z" fill="#999999"/>
<g clip-path="url(#clip1_2186_12204)">
<path d="M100.289 65.545V231.838C100.289 245.514 109.912 256.7 121.971 257.062C175.558 258.625 363 262.429 414.015 261.58C422.787 261.432 429.882 253.485 430.143 243.544C431.129 204.915 432.727 112.009 426.811 68.8849C425.564 59.8049 418.798 53.0119 410.694 52.7175C365.789 51.0872 167.092 45.9245 116.1 47.2152C107.316 47.4303 100.289 55.5706 100.289 65.545Z" fill="#E527BB"/>
<path d="M109.5 64.7298V222.724C109.5 230.705 115.156 237.215 122.205 237.34L406.689 241.325C413.671 241.438 419.406 235.076 419.429 227.15L419.905 70.5718C419.928 64.911 415.938 60.2691 410.951 60.1332L119.678 53.4648C114.102 53.3063 109.5 58.401 109.5 64.7298Z" fill="#A78BEF"/>
<path opacity="0.37" d="M115.977 71.0926V216.168C115.977 223.505 121.326 229.483 127.979 229.585L396.89 233.241C403.498 233.355 408.904 227.501 408.927 220.233L409.38 76.4591C409.403 71.2624 405.64 67.0055 400.914 66.8696L125.61 60.7446C120.329 60.5974 115.977 65.2733 115.977 71.0926Z" fill="white"/>
<g opacity="0.53">
<path d="M275.668 74.5229H267.383V220.425H275.668V74.5229Z" fill="white"/>
<path d="M289.496 74.5229H281.211V220.425H289.496V74.5229Z" fill="white"/>
<path d="M303.332 74.5229H295.047V220.425H303.332V74.5229Z" fill="white"/>
<path d="M317.176 74.5229H308.891V220.425H317.176V74.5229Z" fill="white"/>
<path d="M331.012 74.5229H322.727V220.425H331.012V74.5229Z" fill="white"/>
<path d="M344.848 74.5229H336.562V220.425H344.848V74.5229Z" fill="white"/>
<path d="M358.676 74.5229H350.391V220.425H358.676V74.5229Z" fill="white"/>
</g>
<path d="M275.668 144.072H267.383V220.425H275.668V144.072Z" fill="#A78BEF"/>
<path d="M289.496 170.315H281.211V220.425H289.496V170.315Z" fill="#A78BEF"/>
<path d="M303.332 105.454H295.047V220.425H303.332V105.454Z" fill="#E527BB"/>
<path d="M317.176 192.812H308.891V220.437H317.176V192.812Z" fill="#A78BEF"/>
<path d="M331.012 120.829H322.727V220.425H331.012V120.829Z" fill="#E527BB"/>
<path d="M344.848 138.072H336.562V220.425H344.848V138.072Z" fill="#E527BB"/>
<path d="M358.676 156.82H350.391V220.425H358.676V156.82Z" fill="#A78BEF"/>
<path d="M139.901 67.3792C129.133 67.3792 120.406 76.0968 120.406 86.8524C120.406 97.608 129.133 106.326 139.901 106.326C150.668 106.326 159.395 97.608 159.395 86.8524C159.395 76.0968 150.668 67.3792 139.901 67.3792ZM139.901 97.9476C133.769 97.9476 128.793 92.9774 128.793 86.8524C128.793 80.7274 133.769 75.7572 139.901 75.7572C146.032 75.7572 151.008 80.7274 151.008 86.8524C151.008 92.9774 146.032 97.9476 139.901 97.9476Z" fill="#A78BEF"/>
<mask id="mask0_2186_12204" style="mask-type:luminance" maskUnits="userSpaceOnUse" x="120" y="67" width="40" height="40">
<path d="M139.901 67.3792C129.133 67.3792 120.406 76.0968 120.406 86.8524C120.406 97.608 129.133 106.326 139.901 106.326C150.668 106.326 159.395 97.608 159.395 86.8524C159.395 76.0968 150.668 67.3792 139.901 67.3792ZM139.901 97.9476C133.769 97.9476 128.793 92.9774 128.793 86.8524C128.793 80.7274 133.769 75.7572 139.901 75.7572C146.032 75.7572 151.008 80.7274 151.008 86.8524C151.008 92.9774 146.032 97.9476 139.901 97.9476Z" fill="white"/>
</mask>
<g mask="url(#mask0_2186_12204)">
<path d="M170.597 82.5615H112.68V107.039H170.597V82.5615Z" fill="#E527BB"/>
</g>
<path d="M187.424 67.3792C176.657 67.3792 167.93 76.0968 167.93 86.8524C167.93 97.608 176.657 106.326 187.424 106.326C198.192 106.326 206.919 97.608 206.919 86.8524C206.919 76.0968 198.192 67.3792 187.424 67.3792ZM187.424 97.9476C181.293 97.9476 176.317 92.9774 176.317 86.8524C176.317 80.7274 181.293 75.7572 187.424 75.7572C193.556 75.7572 198.532 80.7274 198.532 86.8524C198.532 92.9774 193.567 97.9476 187.424 97.9476Z" fill="#A78BEF"/>
<mask id="mask1_2186_12204" style="mask-type:luminance" maskUnits="userSpaceOnUse" x="167" y="67" width="40" height="40">
<path d="M187.424 67.3792C176.657 67.3792 167.93 76.0968 167.93 86.8524C167.93 97.608 176.657 106.326 187.424 106.326C198.192 106.326 206.919 97.608 206.919 86.8524C206.919 76.0968 198.192 67.3792 187.424 67.3792ZM187.424 97.9476C181.293 97.9476 176.317 92.9774 176.317 86.8524C176.317 80.7274 181.293 75.7572 187.424 75.7572C193.556 75.7572 198.532 80.7274 198.532 86.8524C198.532 92.9774 193.567 97.9476 187.424 97.9476Z" fill="white"/>
</mask>
<g mask="url(#mask1_2186_12204)">
<path d="M218.12 73.1079H160.203V107.05H218.12V73.1079Z" fill="#E527BB"/>
</g>
<path d="M234.955 67.3792C224.188 67.3792 215.461 76.0968 215.461 86.8524C215.461 97.608 224.188 106.326 234.955 106.326C245.723 106.326 254.45 97.608 254.45 86.8524C254.45 76.0968 245.723 67.3792 234.955 67.3792ZM234.955 97.9476C228.824 97.9476 223.848 92.9774 223.848 86.8524C223.848 80.7274 228.824 75.7572 234.955 75.7572C241.087 75.7572 246.063 80.7274 246.063 86.8524C246.063 92.9774 241.087 97.9476 234.955 97.9476Z" fill="#E527BB"/>
<mask id="mask2_2186_12204" style="mask-type:luminance" maskUnits="userSpaceOnUse" x="215" y="67" width="40" height="40">
<path d="M234.955 67.3792C224.188 67.3792 215.461 76.0968 215.461 86.8524C215.461 97.608 224.188 106.326 234.955 106.326C245.723 106.326 254.45 97.608 254.45 86.8524C254.45 76.0968 245.723 67.3792 234.955 67.3792ZM234.955 97.9476C228.824 97.9476 223.848 92.9774 223.848 86.8524C223.848 80.7274 228.824 75.7572 234.955 75.7572C241.087 75.7572 246.063 80.7274 246.063 86.8524C246.063 92.9774 241.087 97.9476 234.955 97.9476Z" fill="white"/>
</mask>
<g mask="url(#mask2_2186_12204)">
<path d="M265.651 94.8115H207.734V107.05H265.651V94.8115Z" fill="#A78BEF"/>
</g>
<path opacity="0.24" d="M250.083 223.924L130.758 223.029C128.401 223.007 126.508 221.105 126.508 218.75V157.511C126.508 155.145 128.423 153.231 130.792 153.231H250.117C252.485 153.231 254.401 155.145 254.401 157.511V219.644C254.401 222.022 252.463 223.946 250.083 223.924Z" fill="white"/>
<path opacity="0.54" d="M231.577 180.879L216.231 164.677L194.232 188.578L178.704 171.844L164.14 188.283L152.976 174.731L130.977 197.612V214.164C130.977 216.35 132.745 218.127 134.932 218.15L245.915 218.988C248.125 218.999 249.927 217.221 249.927 215.002V169.987L231.577 180.879Z" fill="white"/>
<path d="M232.072 180.426H231.664V218.976H232.072V180.426Z" fill="white"/>
<path d="M216.431 164.677H216.023V218.761H216.431V164.677Z" fill="url(#paint0_linear_2186_12204)"/>
<path d="M194.431 188.283H194.023V218.591H194.431V188.283Z" fill="url(#paint1_linear_2186_12204)"/>
<path d="M179.322 172.444H178.914V218.603H179.322V172.444Z" fill="url(#paint2_linear_2186_12204)"/>
<path d="M164.353 187.796H163.945V218.591H164.353V187.796Z" fill="url(#paint3_linear_2186_12204)"/>
<path d="M153.424 173.588H153.016V218.297H153.424V173.588Z" fill="url(#paint4_linear_2186_12204)"/>
<path d="M157.495 173.033C157.495 175.422 155.557 177.358 153.166 177.358C150.774 177.358 148.836 175.422 148.836 173.033C148.836 170.644 150.774 168.708 153.166 168.708C155.557 168.708 157.495 170.644 157.495 173.033Z" fill="#E527BB"/>
<path d="M167.613 186.97C167.613 188.657 166.253 190.015 164.564 190.015C162.876 190.015 161.516 188.657 161.516 186.97C161.516 185.283 162.876 183.924 164.564 183.924C166.253 183.924 167.613 185.283 167.613 186.97Z" fill="#E527BB"/>
<path d="M182.554 172.24C182.554 174.029 181.103 175.467 179.324 175.467C177.545 175.467 176.094 174.018 176.094 172.24C176.094 170.463 177.545 169.013 179.324 169.013C181.103 169.002 182.554 170.451 182.554 172.24Z" fill="#E527BB"/>
<path d="M197.97 187.536C197.97 189.178 196.632 190.514 194.989 190.514C193.345 190.514 192.008 189.178 192.008 187.536C192.008 185.894 193.345 184.558 194.989 184.558C196.632 184.558 197.97 185.883 197.97 187.536Z" fill="#E527BB"/>
<path d="M219.004 164.191C219.004 165.685 217.792 166.885 216.307 166.885C214.811 166.885 213.609 165.674 213.609 164.191C213.609 162.696 214.822 161.496 216.307 161.496C217.803 161.496 219.004 162.708 219.004 164.191Z" fill="#E527BB"/>
<path d="M232.425 182.656C233.959 182.656 235.202 181.414 235.202 179.882C235.202 178.351 233.959 177.109 232.425 177.109C230.892 177.109 229.648 178.351 229.648 179.882C229.648 181.414 230.892 182.656 232.425 182.656Z" fill="url(#paint5_linear_2186_12204)"/>
<g opacity="0.48">
<path d="M160.064 134.845H126.731C125.337 134.845 124.203 135.626 124.203 136.6C124.203 137.573 125.337 138.355 126.731 138.355H160.064C161.458 138.355 162.591 137.573 162.591 136.6C162.591 135.637 161.458 134.845 160.064 134.845Z" fill="white"/>
<path d="M160.064 127.078H126.731C125.337 127.078 124.203 127.86 124.203 128.833C124.203 129.807 125.337 130.588 126.731 130.588H160.064C161.458 130.588 162.591 129.807 162.591 128.833C162.591 127.86 161.458 127.078 160.064 127.078Z" fill="white"/>
<path d="M160.064 119.3H126.731C125.337 119.3 124.203 120.081 124.203 121.055C124.203 122.029 125.337 122.81 126.731 122.81H160.064C161.458 122.81 162.591 122.029 162.591 121.055C162.591 120.081 161.458 119.3 160.064 119.3Z" fill="white"/>
</g>
<g opacity="0.48">
<path d="M206.4 134.845H173.067C171.672 134.845 170.539 135.626 170.539 136.6C170.539 137.573 171.672 138.355 173.067 138.355H206.4C207.794 138.355 208.927 137.573 208.927 136.6C208.916 135.637 207.794 134.845 206.4 134.845Z" fill="white"/>
<path d="M206.4 127.078H173.067C171.672 127.078 170.539 127.86 170.539 128.833C170.539 129.807 171.672 130.588 173.067 130.588H206.4C207.794 130.588 208.927 129.807 208.927 128.833C208.927 127.86 207.794 127.078 206.4 127.078Z" fill="white"/>
<path d="M206.4 119.3H173.067C171.672 119.3 170.539 120.081 170.539 121.055C170.539 122.029 171.672 122.81 173.067 122.81H206.4C207.794 122.81 208.927 122.029 208.927 121.055C208.916 120.081 207.794 119.3 206.4 119.3Z" fill="white"/>
</g>
<g opacity="0.48">
<path d="M252.717 134.845H219.395C218.001 134.845 216.867 135.626 216.867 136.6C216.867 137.573 218.001 138.355 219.395 138.355H252.728C254.122 138.355 255.256 137.573 255.256 136.6C255.244 135.637 254.111 134.845 252.717 134.845Z" fill="white"/>
<path d="M252.717 127.078H219.395C218.001 127.078 216.867 127.86 216.867 128.833C216.867 129.807 218.001 130.588 219.395 130.588H252.728C254.122 130.588 255.256 129.807 255.256 128.833C255.256 127.86 254.111 127.078 252.717 127.078Z" fill="white"/>
<path d="M252.717 119.3H219.395C218.001 119.3 216.867 120.081 216.867 121.055C216.867 122.029 218.001 122.81 219.395 122.81H252.728C254.122 122.81 255.256 122.029 255.256 121.055C255.244 120.081 254.111 119.3 252.717 119.3Z" fill="white"/>
</g>
<path opacity="0.91" d="M382.997 155.349C391.936 155.349 399.182 148.11 399.182 139.181C399.182 130.252 391.936 123.014 382.997 123.014C374.059 123.014 366.812 130.252 366.812 139.181C366.812 148.11 374.059 155.349 382.997 155.349Z" fill="white"/>
<path d="M392.611 135.762C393.109 136.973 393.393 138.309 393.393 139.702C393.393 145.431 388.734 150.084 382.999 150.084C377.264 150.084 372.606 145.431 372.606 139.702C372.606 133.973 377.264 129.32 382.999 129.32C383.181 129.32 383.351 129.32 383.521 129.331V126.705C383.351 126.693 383.169 126.693 382.999 126.693C375.802 126.693 369.977 132.524 369.977 139.702C369.977 146.891 375.814 152.711 382.999 152.711C390.196 152.711 396.022 146.88 396.022 139.702C396.022 137.936 395.671 136.249 395.025 134.709L392.611 135.762Z" fill="#E527BB"/>
<path opacity="0.5" d="M396.293 162.187H369.93C368.275 162.187 366.938 163.523 366.938 165.176C366.938 166.829 368.275 168.165 369.93 168.165H396.293C397.947 168.165 399.285 166.829 399.285 165.176C399.296 163.534 397.947 162.187 396.293 162.187Z" fill="white"/>
<path opacity="0.91" d="M382.927 103.405C391.866 103.405 399.112 96.1664 399.112 87.2374C399.112 78.3084 391.866 71.0701 382.927 71.0701C373.988 71.0701 366.742 78.3084 366.742 87.2374C366.742 96.1664 373.988 103.405 382.927 103.405Z" fill="white"/>
<path d="M388.425 96.5437C386.826 97.5513 384.922 98.1401 382.882 98.1401C377.147 98.1401 372.489 93.4869 372.489 87.7581C372.489 82.0293 377.147 77.3761 382.882 77.3761C383.064 77.3761 383.234 77.3761 383.404 77.3875V74.7608C383.234 74.7495 383.052 74.7495 382.882 74.7495C375.685 74.7495 369.859 80.5802 369.859 87.7581C369.859 94.936 375.696 100.767 382.882 100.767C385.398 100.767 387.733 100.053 389.728 98.8307L388.425 96.5437Z" fill="#E527BB"/>
<path opacity="0.5" d="M396.355 110.243H369.992C368.337 110.243 367 111.579 367 113.232C367 114.885 368.337 116.221 369.992 116.221H396.355C398.01 116.221 399.347 114.885 399.347 113.232C399.359 111.59 398.01 110.243 396.355 110.243Z" fill="white"/>
<path opacity="0.91" d="M383.052 207.564C391.991 207.564 399.237 200.326 399.237 191.397C399.237 182.468 391.991 175.229 383.052 175.229C374.113 175.229 366.867 182.468 366.867 191.397C366.867 200.326 374.113 207.564 383.052 207.564Z" fill="white"/>
<path d="M391.856 197.228C389.986 199.967 386.835 201.768 383.265 201.768C377.53 201.768 372.872 197.114 372.872 191.386C372.872 185.657 377.53 181.004 383.265 181.004C383.446 181.004 383.616 181.004 383.786 181.015V178.388C383.616 178.377 383.435 178.377 383.265 178.377C376.068 178.377 370.242 184.208 370.242 191.386C370.242 198.575 376.079 204.394 383.265 204.394C387.719 204.394 391.641 202.164 393.998 198.767L391.856 197.228Z" fill="#E527BB"/>
<path opacity="0.5" d="M369.867 219.859H396.23C397.885 219.859 399.222 218.523 399.222 216.871C399.222 215.218 397.885 213.882 396.23 213.882H369.867C368.212 213.882 366.875 215.218 366.875 216.871C366.875 218.523 368.212 219.859 369.867 219.859Z" fill="white"/>
<path d="M304.015 158.858C305.862 158.994 307.506 157.092 310.339 153.695C312.357 151.284 312.935 149.857 313.422 149.337C313.864 148.872 315.576 146.733 314.714 146.087C314.714 146.087 313.785 145.623 313.365 145.465C312.946 145.295 312.515 145.329 312.221 145.487C311.926 145.634 309.172 147.389 309.172 147.389C309.172 147.389 306.01 149.167 304.525 150.355C303.04 151.544 300.819 153.299 300.309 154.25C299.878 155.054 300.093 155.914 300.603 156.684C301.261 157.692 302.099 158.247 302.485 158.428C302.462 158.428 303.233 158.801 304.015 158.858Z" fill="#A78BEF"/>
<path d="M309.242 147.468C309.934 147.638 310.557 147.684 311.022 147.91C311.022 147.91 311.033 147.91 311.044 147.921C311.781 148.272 312.257 148.635 312.529 148.872C312.733 148.669 312.948 148.453 313.152 148.25C311.226 146.54 310.172 146.925 310.172 146.925C309.752 147.151 309.639 147.231 309.242 147.468Z" fill="#A78BEF"/>
<path d="M310.148 146.925C310.556 146.982 311.168 147.117 311.826 147.446C312.37 147.729 312.778 148.057 313.05 148.318C313.197 148.182 314.251 147.197 314.535 146.71C314.569 146.653 314.614 146.563 314.603 146.449C314.603 146.291 314.399 146.11 313.787 145.804C313.435 145.634 313.061 145.521 312.959 145.487C312.869 145.464 312.699 145.419 312.483 145.51C312.381 145.566 311.52 146.121 310.148 146.925Z" fill="url(#paint6_linear_2186_12204)"/>
<path d="M307.152 149.053C307.254 149.269 307.605 149.484 308.296 149.88L311.017 147.91C310.609 147.717 310.257 147.559 309.725 147.412C309.555 147.367 309.362 147.389 309.203 147.48C308.228 148.057 307.378 148.555 307.378 148.555C307.378 148.555 307.027 148.782 307.152 149.053Z" fill="url(#paint7_linear_2186_12204)"/>
<path d="M308.273 149.857C308.443 149.948 308.976 150.254 309.135 150.333C309.917 150.74 310.574 150.65 311.084 150.208C311.198 150.106 311.844 149.552 312.535 148.872C312.274 148.635 311.787 148.272 311.05 147.921C311.05 147.921 310.926 147.865 310.914 147.865L308.273 149.857Z" fill="url(#paint8_linear_2186_12204)"/>
<path opacity="0.5" d="M310.997 149.586C310.986 149.586 310.986 149.586 310.997 149.586L309.796 149.461C309.739 149.45 309.694 149.405 309.705 149.348C309.716 149.291 309.762 149.257 309.818 149.257L310.884 149.371L310.748 148.669C310.736 148.612 310.77 148.555 310.827 148.555C310.884 148.544 310.94 148.578 310.94 148.635L311.088 149.461C311.088 149.495 311.088 149.529 311.065 149.552C311.054 149.574 311.02 149.586 310.997 149.586Z" fill="white"/>
<path opacity="0.5" d="M308.868 148.838C308.811 148.838 308.766 148.782 308.766 148.725L308.8 148.159C308.8 148.114 308.845 148.068 308.89 148.068L309.57 148.001C309.627 147.989 309.672 148.034 309.684 148.091C309.695 148.148 309.65 148.193 309.593 148.204L309.004 148.261L308.981 148.736C308.97 148.793 308.924 148.838 308.868 148.838Z" fill="white"/>
<path d="M268.957 168.787C268.957 168.787 285.573 174.799 293.371 171.946C293.722 171.821 294.051 171.674 294.368 171.516C301.633 167.678 302.529 157.307 302.529 157.307L305.793 157.952C305.793 157.952 306.858 174.629 295.411 181.807C289.778 185.339 281.119 186.562 267.812 182.35L268.957 168.787Z" fill="url(#paint9_linear_2186_12204)"/>
<path d="M302.702 158.213L302.532 157.307C302.532 157.307 301.852 155.099 303.654 152.926C306.261 149.778 308.165 150.933 308.165 150.933C308.165 150.933 308.029 151.601 308.04 152.201C308.052 152.677 308.63 152.926 308.981 152.597L313.231 148.703C313.231 148.703 314.421 154.896 305.309 159.153L302.702 158.213Z" fill="url(#paint10_linear_2186_12204)"/>
<path d="M255.235 147.208C255.235 147.208 255.927 148.589 251.416 150.752C248.899 151.963 244.003 153.741 243.357 158.949C243.028 161.632 241.034 163.794 238.347 164.202C231.672 165.221 221.38 168.685 219.737 180.267C218.479 189.109 222.99 192.461 227.728 193.616C231.207 194.465 233.519 197.85 232.816 201.348C232.136 204.711 233.145 208.594 238.982 211.674C252.05 218.557 265.107 195.359 265.107 195.359L267.782 154.839L255.235 147.208Z" fill="#231F20"/>
<path d="M224.507 304.896L223.974 309.3C223.872 310.138 223.215 310.795 222.376 310.885C220.959 311.044 218.693 311.214 216.482 310.976C215.508 310.874 214.873 309.889 215.179 308.961C215.723 307.262 216.709 304.715 218.137 303.209H223.022C223.918 303.209 224.62 303.99 224.507 304.896Z" fill="#A78BEF"/>
<path d="M262.79 253.337L263.618 258.183C263.618 258.183 260.852 286.136 260.365 297.31C260.285 299.065 260.739 300.798 261.657 302.292L266.462 310.081L254.256 302.881L254.018 301.398L256.012 298.658L253.394 267.353C253.236 265.519 253.621 263.674 254.494 262.044L257.021 257.3L262.79 253.337Z" fill="url(#paint11_linear_2186_12204)"/>
<path d="M267.259 311.214H263.36C262.634 311.214 261.943 310.874 261.501 310.297C260.288 308.723 257.772 305.643 256.571 305.564C254.95 305.451 255.154 311.202 255.154 311.202H254.247L253.103 304.058C252.808 302.258 253.703 300.481 255.324 299.632C255.324 299.632 255.698 302.371 257.704 303.572C259.71 304.783 265.876 309.119 265.876 309.119C265.876 309.119 266.635 309.006 267.463 309.164C268.687 309.391 268.517 311.214 267.259 311.214Z" fill="#A78BEF"/>
<path d="M246.068 255.647C246.068 255.647 229.883 286.306 227.31 293.314C224.737 300.311 223.842 306.153 223.808 306.708C223.751 307.568 222.675 308.406 219.716 308.406C218.186 308.406 217.438 307.794 217.064 307.194C216.747 306.685 216.736 306.051 216.996 305.519C217.937 303.628 220.907 297.582 222.006 294.831C223.321 291.559 226.143 276.716 227.696 271.554C229.248 266.391 230.994 260.798 237.749 255.636C237.749 255.647 242.373 251.107 246.068 255.647Z" fill="url(#paint12_linear_2186_12204)"/>
<path d="M256.287 205.401C260.457 187.728 249.883 177.743 249.883 177.743C255.244 172.603 264.141 169.716 267.439 168.776C268.244 168.549 269.105 168.719 269.763 169.251C272.585 171.527 280.054 178.139 278.932 183.539C278.127 187.423 270.783 206.817 270.783 206.817C270.783 206.817 263.994 210.021 256.287 205.401Z" fill="#A78BEF"/>
<path d="M247.038 214.153C248.738 209.036 256.298 205.401 256.298 205.401C264.005 210.021 270.794 206.817 270.794 206.817C270.794 206.817 272.313 212.636 271.27 218.036C270.216 223.448 263.62 258.183 263.62 258.183C253.227 260.289 237.234 256.066 237.234 256.066C243.853 244.325 245.338 219.259 247.038 214.153Z" fill="#231F20"/>
<path d="M261.138 156.763L257.749 171.991C257.421 173.327 258.645 173.112 260.005 172.852C262.226 172.433 265.094 171.572 266.046 169.84C266.148 169.659 266.193 169.466 266.216 169.263L267.678 158.699C267.791 157.862 267.338 157.047 266.567 156.707L263.756 155.461C262.668 154.986 261.41 155.609 261.138 156.763Z" fill="url(#paint13_linear_2186_12204)"/>
<path d="M267.633 142.872C267.633 142.872 271.248 145.317 272.801 151.533C274.354 157.76 271.826 159.99 269.242 159.854C266.658 159.718 262.906 158.915 259.654 154.454C256.412 149.993 262.906 139.894 267.633 142.872Z" fill="url(#paint14_linear_2186_12204)"/>
<path d="M262.942 151.952C262.942 151.952 261.616 143.042 269.028 144.4L270.524 145.963C270.524 145.963 274.151 141.887 270.139 138.796C266.127 135.716 260.55 136.498 257.479 142.113C254.396 147.729 253.274 151.669 255.858 155.167C258.442 158.654 260.38 155.665 260.38 155.665C260.38 155.665 259.19 152.642 260.176 151.352C261.162 150.061 262.432 152.11 262.432 152.11L262.942 151.952Z" fill="#231F20"/>
<path d="M262.896 153.571C262.896 153.571 262.238 148.985 259.892 150.299C257.546 151.612 260.742 154.578 262.012 155.597L262.896 153.571Z" fill="url(#paint15_linear_2186_12204)"/>
<path d="M249.839 178.003C249.839 178.003 242.631 189.517 241.191 198.155C239.752 206.794 253.432 210.383 258.476 205.356L257.75 201.756C257.75 201.756 249.828 203.194 249.103 198.88C248.377 194.567 255.586 185.928 255.586 185.928C255.586 185.928 253.443 179.441 249.839 178.003Z" fill="url(#paint16_linear_2186_12204)"/>
<path d="M255.859 212.738L264.042 184.173C264.133 183.845 264.416 183.607 264.745 183.573C266.23 183.403 270.525 182.916 275.49 182.498C281.474 181.988 288.41 181.581 292.559 181.932C293.148 181.977 293.499 182.599 293.239 183.132C290.881 187.898 281.179 207.292 276.317 213.655C276.158 213.87 275.909 213.983 275.637 213.983L256.641 213.802C256.108 213.802 255.712 213.27 255.859 212.738Z" fill="url(#paint17_linear_2186_12204)"/>
<path d="M276.35 180.018L282.289 179.033C282.607 178.977 282.867 179.282 282.765 179.588L282.176 181.365C282.119 181.524 281.995 181.637 281.825 181.648L276.112 182.407C275.818 182.441 275.568 182.181 275.636 181.886L275.999 180.335C276.044 180.177 276.18 180.041 276.35 180.018Z" fill="url(#paint18_linear_2186_12204)"/>
<path d="M271.908 185.034L272.396 182.486C272.441 182.226 272.656 182.033 272.917 182.011L284.908 180.799C285.316 180.754 285.634 181.128 285.543 181.524L284.784 184.694C284.727 184.943 284.5 185.136 284.24 185.147L272.52 185.736C272.135 185.758 271.84 185.419 271.908 185.034Z" fill="url(#paint19_linear_2186_12204)"/>
<path d="M257.846 205.832C257.846 205.832 256.701 201.144 257.166 199.48C257.63 197.816 258.514 195.676 261.484 196.152C264.453 196.627 267.956 197.872 267.956 197.872C267.956 197.872 267.774 200.035 265.519 199.344L266.924 200.431C266.924 200.431 266.72 202.163 264.816 201.235L266.12 202.673C266.12 202.673 265.304 204.099 263.898 203.182C262.493 202.277 261.824 206.398 257.846 205.832Z" fill="url(#paint20_linear_2186_12204)"/>
<path d="M229.358 188.43C229.154 188.43 228.928 188.328 228.735 188.215C225.686 186.222 224.054 182.124 224.768 178.241C225.199 175.908 226.355 173.904 228.021 172.591C229.2 171.651 230.605 171.085 231.942 170.576C234.198 169.727 236.521 168.979 238.845 168.345C239.038 168.289 239.23 168.244 239.423 168.187C240.783 167.825 242.188 167.451 243.458 166.817C245.09 166.002 246.28 164.813 246.801 163.477C247.13 162.651 247.221 161.722 247.311 160.839C247.425 159.752 247.538 158.62 248.082 157.646C248.093 157.624 248.127 157.613 248.161 157.624C248.184 157.635 248.195 157.669 248.184 157.703C247.651 158.654 247.538 159.764 247.425 160.85C247.334 161.745 247.232 162.673 246.903 163.522C246.371 164.881 245.158 166.092 243.503 166.919C242.222 167.564 240.806 167.938 239.446 168.3C239.253 168.345 239.06 168.402 238.868 168.459C236.544 169.081 234.232 169.829 231.976 170.678C230.65 171.176 229.256 171.742 228.089 172.67C226.445 173.972 225.301 175.954 224.881 178.252C224.167 182.09 225.777 186.143 228.792 188.113C229.018 188.26 229.438 188.441 229.63 188.181C229.653 188.158 229.687 188.147 229.71 188.17C229.732 188.192 229.744 188.226 229.721 188.249C229.642 188.373 229.506 188.43 229.358 188.43Z" fill="white"/>
<path d="M228.58 184.762C228.557 184.762 228.546 184.751 228.534 184.739C227.356 182.984 226.744 181.139 226.766 179.395C226.789 177.369 227.73 175.478 229.226 174.459C229.248 174.436 229.282 174.448 229.305 174.47C229.328 174.493 229.316 174.527 229.294 174.55C227.82 175.535 226.902 177.391 226.88 179.384C226.857 181.094 227.469 182.916 228.636 184.66C228.659 184.683 228.648 184.717 228.625 184.739C228.602 184.762 228.591 184.762 228.58 184.762Z" fill="white"/>
<path d="M496.837 281.84C497.812 283.278 501.665 315.794 502.277 327.794C502.323 328.61 501.665 329.289 500.849 329.289C500.147 329.289 499.546 328.779 499.444 328.089L492.383 282.881L496.837 281.84Z" fill="#E527BB"/>
<path d="M465.107 281.562C464.132 283 460.278 315.516 459.666 327.517C459.621 328.332 460.278 329.012 461.094 329.012C461.797 329.012 462.398 328.502 462.5 327.812L469.561 282.604L465.107 281.562Z" fill="#E527BB"/>
<path d="M502.002 279.015V279.366C502.024 281.913 499.825 284.008 497.071 284.053L464.429 284.608C461.709 284.653 459.454 282.695 459.318 280.181L459.295 279.853C459.159 277.238 461.38 275.03 464.214 274.973L496.867 274.384C499.678 274.362 501.979 276.434 502.002 279.015Z" fill="#E527BB"/>
<path d="M438.48 326.339C444.283 326.339 446.856 325.841 448 325.388C447.774 326.339 446.924 327.087 445.858 327.087H425.332C424.641 327.087 424.21 326.43 424.369 325.83C426.704 326.011 431.679 326.339 438.48 326.339Z" fill="url(#paint21_linear_2186_12204)"/>
<path d="M424.367 325.83C424.401 325.706 424.447 325.592 424.537 325.479C426.101 323.486 429.241 320.35 433.514 320.418C439.77 320.509 441.958 321.188 446.82 320.452L447.965 324.256C448.078 324.641 448.089 325.026 447.999 325.389C446.854 325.841 444.281 326.34 438.478 326.34C431.678 326.34 426.702 326.011 424.367 325.83Z" fill="#A78BEF"/>
<path d="M445.416 316.354L446.821 321.143C446.821 321.143 443.704 322.558 440.95 321.426L440.406 317.282L445.416 316.354Z" fill="url(#paint22_linear_2186_12204)"/>
<path d="M402.871 323.317C407.393 326.951 409.705 328.174 410.884 328.536C410.113 329.136 408.98 329.181 408.152 328.513L392.149 315.663C391.605 315.233 391.684 314.44 392.183 314.078C393.883 315.708 397.555 319.06 402.871 323.317Z" fill="url(#paint23_linear_2186_12204)"/>
<path d="M392.172 314.09C392.274 314.022 392.387 313.954 392.523 313.92C394.983 313.354 399.392 312.889 402.679 315.607C407.507 319.592 408.776 321.483 413.026 323.962L411.553 327.63C411.406 328.004 411.168 328.31 410.873 328.536C409.694 328.174 407.382 326.951 402.86 323.317C397.556 319.06 393.883 315.708 392.172 314.09Z" fill="#A78BEF"/>
<path d="M475.558 261.829C475.558 261.829 440.819 264.659 433.69 268.01C426.561 271.361 439.504 318.335 439.504 318.335C439.504 318.335 441.442 319.263 445.76 317.927C445.76 317.927 441.329 283.261 444.627 275.743L482.245 269.595L475.558 261.829Z" fill="#231F20"/>
<path d="M416.486 317.373C416.169 317.667 413.03 323.973 413.03 323.973C413.03 323.973 409.55 323.226 408.836 321.018L411.975 315.323L416.486 317.373Z" fill="url(#paint24_linear_2186_12204)"/>
<path d="M496.478 261.534C496.478 261.534 497.611 264.251 497.566 267.874C497.498 272.878 493.474 276.932 488.476 277.181L447.401 279.049C446.529 279.083 445.803 279.683 445.588 280.532C444.625 284.257 439.91 295.714 416.845 318.561C416.233 319.173 415.281 319.275 414.544 318.81L411.257 316.739C410.917 316.523 410.804 316.071 411.008 315.72L434.923 274.928C436.181 272.856 438.198 271.361 440.544 270.761L475.555 261.829L496.478 261.534Z" fill="#231F20"/>
<path d="M456.008 197.816C456.008 197.816 460.406 205.583 464.894 209.353L455.623 214.515C455.623 214.515 453.537 206.285 448.766 203.884L456.008 197.816Z" fill="url(#paint25_linear_2186_12204)"/>
<path d="M497.227 261.829C497.227 261.829 486.143 264.523 475.557 261.829C475.557 261.829 460.743 241.948 455.019 236.525C455.019 236.525 445.884 250.926 425.54 252.975L424.406 250.439C424.406 250.439 440.603 242.978 445.59 231.521C450.577 220.063 452.583 215.172 457.116 212.183C459.938 210.326 461.627 209.047 462.511 208.356C462.987 207.972 463.645 207.938 464.177 208.255C468.96 211.198 491.617 226.686 497.227 261.829Z" fill="#A78BEF"/>
<path d="M455.778 235.664L455.438 235.438L460.912 225.735L461.275 225.905C461.263 225.962 459.257 231.124 455.778 235.664Z" fill="#A78BEF"/>
<path d="M426.752 249.126L424.463 248.514L417.515 246.907C416.676 246.714 415.804 246.862 415.067 247.314L409.094 251.073L425.596 251.051L426.752 249.126Z" fill="url(#paint26_linear_2186_12204)"/>
<path d="M449.014 186.166C449.014 186.166 444.741 193.265 443.993 197.193C443.256 201.122 442.055 203.567 446.532 204.971C450.998 206.375 455.157 204.598 457.764 200.941C457.764 200.941 461.833 195.303 461.425 192.721C461.028 190.129 449.014 186.166 449.014 186.166Z" fill="url(#paint27_linear_2186_12204)"/>
<path d="M456.583 197.895L456.005 197.816C456.005 197.816 459.031 193.242 457.048 192.11C455.064 190.978 446.994 188.193 445.589 185.022C444.24 181.966 446.258 178.501 448.695 177.777C448.853 177.731 449.012 177.822 449.069 177.969L449.216 178.354C449.318 178.614 449.681 178.626 449.794 178.365C449.896 178.116 450.247 178.105 450.361 178.354C450.791 179.305 452.083 180.935 455.971 182.192C461.479 183.981 464.914 186.755 464.494 190.661C464.472 190.91 464.71 191.08 464.936 190.978C465.39 190.774 466.07 190.751 466.863 191.612C468.246 193.117 467.158 196.412 463.395 198.744C463.213 198.858 463.179 199.107 463.349 199.242C463.916 199.729 464.71 200.794 462.159 201.756C459.553 202.741 458.136 202.401 457.603 202.197C457.467 202.141 457.376 201.994 457.41 201.846L458.079 198.416C458.113 198.235 457.988 198.065 457.807 198.042L456.583 197.895Z" fill="#231F20"/>
<path d="M456.062 198.325C456.062 198.325 457.944 193.684 459.927 195.314C461.911 196.944 458.091 200.556 456.335 200.511L456.062 198.325Z" fill="url(#paint28_linear_2186_12204)"/>
<path d="M433.134 254.311C433.111 254.311 433.077 254.311 433.054 254.311L397.794 254.277C396.921 254.277 396.219 253.575 396.219 252.703C396.219 251.832 396.933 251.118 397.794 251.13L433.054 251.164C433.927 251.164 434.63 251.866 434.63 252.737C434.63 253.575 433.972 254.266 433.134 254.311Z" fill="#A78BEF"/>
<path d="M417.431 256.077C417.59 256.711 432.302 311.837 436.031 325.819C436.461 327.427 435.26 329.012 433.605 329.012C432.449 329.012 431.452 328.219 431.168 327.087L414.836 260.934L417.431 256.077Z" fill="#515B60"/>
<path d="M409.375 256.077C409.216 256.711 394.505 311.837 390.776 325.819C390.345 327.427 391.546 329.012 393.201 329.012C394.357 329.012 395.355 328.219 395.638 327.087L411.97 260.934L409.375 256.077Z" fill="#515B60"/>
<path d="M408.766 254.277H417.935V261.625C417.935 262.678 417.085 263.538 416.042 263.538H414.784V280.045C414.784 280.849 414.138 281.494 413.356 281.494C412.574 281.494 411.928 280.849 411.928 280.045V263.538H411.293C409.91 263.538 408.777 262.406 408.777 261.002L408.766 254.277Z" fill="#515B60"/>
<path d="M440.454 252.511H389.292C388.578 252.511 387.955 252.998 387.774 253.7L387.059 256.496C386.799 257.504 387.558 258.489 388.59 258.477L441.1 258.172C442.12 258.16 442.857 257.198 442.608 256.202L441.984 253.711C441.803 252.998 441.179 252.511 440.454 252.511Z" fill="#3C464C"/>
<path d="M74.7422 324.143H78.3577V285.117H74.7422V324.143Z" fill="#E527BB"/>
<path d="M60.7266 324.902H92.3711V324.732C92.3711 323.532 91.3964 322.547 90.1837 322.547H63.084C61.7806 322.547 60.7266 323.6 60.7266 324.902Z" fill="#E527BB"/>
<path d="M56.0312 283.759C56.0312 285.898 57.7767 287.642 59.9188 287.642H91.9374C94.0796 287.642 95.825 285.898 95.825 283.759V280.249C95.825 278.109 94.0796 276.365 91.9374 276.365H59.9188C57.7767 276.365 56.0312 278.109 56.0312 280.249V283.759Z" fill="#E527BB"/>
<path d="M103.228 259.089C103.228 259.089 108.601 259.915 114.63 263.946C115.582 264.58 116.104 265.689 115.956 266.822C115.231 272.539 112.261 291.05 102.458 309.131C101.936 310.082 101.789 311.191 102.015 312.255L103.716 320.169L106.878 323.124H98.7399L93.3223 308.485L95.6344 307.749C97.4252 307.183 98.6606 305.53 98.6946 303.651L98.9666 287.948C98.7399 280.951 103.262 276.128 103.262 276.128L90.2734 275.494L103.228 259.089Z" fill="url(#paint29_linear_2186_12204)"/>
<path d="M110.06 324.562C110.797 325.536 102.093 326.804 97.6836 324.686C97.6836 324.686 91.5859 314.078 91.5859 308.621C91.5859 308.621 92.0733 307.511 95.6549 307.761C95.6549 307.761 97.7063 320.316 99.8711 321.72C102.036 323.124 105.923 321.867 105.923 321.867C105.923 321.867 108.972 323.135 110.06 324.562Z" fill="#A78BEF"/>
<path d="M91.9375 276.366C92.0055 276.241 105.924 274.69 105.924 274.69C105.924 274.69 105.47 278.913 106.887 284.732C108.315 290.552 128.739 315.754 128.739 315.754L126.597 322.535C133.216 324.845 139.733 325.207 146.148 323.713L132.876 315.754C132.876 315.754 120.454 273.456 112.837 265.916L98.8853 261.093L91.9375 276.366Z" fill="url(#paint30_linear_2186_12204)"/>
<path d="M60.7221 251.764C60.7221 251.764 52.7089 263.674 52.0516 269.108C51.3942 274.543 54.2504 276.751 62.6602 277.113C71.0701 277.475 93.5341 277.475 93.5341 277.475L112.7 261.115C112.7 261.115 98.7364 256.134 95.0982 254.73C91.46 253.315 60.7221 251.764 60.7221 251.764Z" fill="#231F20"/>
<path d="M127.403 320.26C127.403 320.26 125.103 322.49 126.655 324.97C126.655 324.97 144.926 328.208 149.89 326.736C149.89 326.736 148.859 324.392 143.271 321.72L143.679 322.037C144.2 322.434 143.894 323.271 143.237 323.237C139.565 323.022 131.948 322.354 127.403 320.26Z" fill="#A78BEF"/>
<path d="M87.3357 181.614C85.987 181.422 81.0113 180.958 80.0819 184.139C79.9573 184.558 79.4586 184.717 79.1639 184.445C77.6451 183.018 74.0182 180.369 69.8813 182.475C66.2204 184.343 66.4358 187.943 66.9798 190.14C67.1158 190.672 66.5378 191.136 66.1071 190.842C63.0469 188.736 55.9518 185.022 51.1008 191.736C46.5672 197.997 49.9448 202.107 52.2456 203.952C52.6309 204.258 52.4269 204.937 51.9169 205.016C50.1828 205.254 47.7686 206.352 46.5332 210.281C44.6064 216.451 55.0564 221.127 56.2918 221.659C56.3712 221.693 56.4505 221.704 56.5412 221.693L78.0645 219.757C78.2345 219.746 78.3932 219.644 78.4952 219.508L92.3227 200.34C92.436 200.182 92.47 199.99 92.4247 199.808L87.7777 181.999C87.7097 181.796 87.5397 181.637 87.3357 181.614Z" fill="#231F20"/>
<path d="M82.4022 250.178C82.4022 250.178 91.7415 241.302 96.3317 235.415C98.8139 232.234 99.5959 228.045 98.4512 224.184C96.3544 217.119 92.6255 209.805 92.2855 208.673C91.7641 206.93 81.2915 206.998 81.2915 206.998C81.2915 206.998 60.6976 220.357 52.5938 242.978L61.6836 245.808C61.6836 245.808 67.0673 236.796 72.3716 231.068C72.3716 231.068 63.1797 243.204 62.851 248.175L82.4022 250.178Z" fill="#A78BEF"/>
<path d="M93.5573 198.925C93.444 199.288 90.7125 208.334 90.4971 208.526C90.2818 208.719 84.5014 209.024 81.7812 207.168L86.3942 197.521L93.5573 198.925Z" fill="url(#paint31_linear_2186_12204)"/>
<path d="M101.27 186.166C101.27 186.166 103.548 191 101.282 198.54C99.0147 206.081 94.9571 206.851 92.3163 205.096C89.6755 203.33 86.2186 200.148 85.5839 193.4C84.9605 186.653 98.142 180.052 101.27 186.166Z" fill="url(#paint32_linear_2186_12204)"/>
<path d="M90.6195 192.8C90.6195 192.8 94.8131 182.566 101.772 188.645L102.373 191.227C102.373 191.227 108.754 189.189 106.453 183.426C104.152 177.663 96.5472 173.101 89.7695 177.097C82.9917 181.094 80.5776 186.472 81.1103 191.77C81.643 197.069 85.5759 195.121 85.5759 195.121C85.5759 195.121 86.2219 191.193 88.0694 190.445C89.9168 189.698 89.9735 192.653 89.9735 192.653L90.6195 192.8Z" fill="#231F20"/>
<path d="M89.2907 194.883C89.2907 194.883 91.4782 189.63 88.18 189.551C84.8818 189.472 86.3892 194.6 87.1033 196.468L89.2907 194.883Z" fill="url(#paint33_linear_2186_12204)"/>
<path d="M101.426 250.846L94.5691 244.246L85.0825 248.254C85.0825 248.254 75.6412 249.714 70.2349 248.254C64.8286 246.793 64.8286 246.793 64.8286 246.793L52.6105 242.989L50.6951 248.401C50.2077 249.771 50.6951 251.299 51.8851 252.148C52.9392 252.896 54.1859 253.722 54.968 254.073C56.5774 254.775 94.6257 253.586 94.6257 253.586L101.426 250.846Z" fill="url(#paint34_linear_2186_12204)"/>
<path d="M75.47 253.96C75.504 253.96 75.5267 253.96 75.5607 253.96L115.354 253.915C116.341 253.915 117.134 253.111 117.134 252.137C117.134 251.152 116.329 250.337 115.354 250.36L75.5607 250.405C74.5746 250.405 73.7812 251.209 73.7812 252.182C73.7813 253.133 74.5293 253.903 75.47 253.96Z" fill="#A78BEF"/>
<path d="M151.122 217.866H117.981C115.533 217.866 113.312 219.27 112.269 221.489L96.9453 253.937H138.133C139.709 253.937 141.125 252.975 141.703 251.514L153.581 221.489C154.261 219.746 152.981 217.866 151.122 217.866Z" fill="#A78BEF"/>
<path d="M127.78 234.509C127.066 236.74 127.587 238.902 128.97 239.344C130.342 239.785 132.042 238.336 132.756 236.106C133.47 233.875 132.948 231.713 131.566 231.271C130.194 230.83 128.494 232.279 127.78 234.509Z" fill="#E527BB"/>
<path d="M154.31 328.808C154.502 328.808 154.695 328.774 154.888 328.694C155.624 328.377 155.964 327.54 155.647 326.815L125.091 257.119C124.773 256.394 123.912 256.055 123.175 256.372C122.438 256.689 122.098 257.526 122.416 258.251L152.972 327.947C153.21 328.479 153.743 328.808 154.31 328.808Z" fill="#515B60"/>
<path d="M119.878 328.808C120.445 328.808 120.978 328.479 121.216 327.947L151.772 258.251C152.089 257.526 151.749 256.689 151.013 256.372C150.276 256.055 149.415 256.394 149.097 257.119L118.541 326.815C118.223 327.54 118.563 328.377 119.3 328.694C119.493 328.762 119.685 328.808 119.878 328.808Z" fill="#515B60"/>
<path d="M78.3019 328.808C78.4945 328.808 78.6872 328.774 78.8799 328.694C79.6166 328.377 79.9566 327.54 79.6393 326.815L49.0828 257.119C48.7654 256.394 47.904 256.055 47.1673 256.372C46.4306 256.689 46.0906 257.526 46.4079 258.251L76.9644 327.947C77.2025 328.479 77.7352 328.808 78.3019 328.808Z" fill="#515B60"/>
<path d="M43.8703 328.808C44.437 328.808 44.9697 328.479 45.2078 327.947L75.7643 258.251C76.0816 257.526 75.7416 256.689 75.0049 256.372C74.2682 256.055 73.4068 256.394 73.0894 257.119L42.5329 326.804C42.2156 327.528 42.5556 328.366 43.2923 328.683C43.485 328.762 43.6777 328.808 43.8703 328.808Z" fill="#515B60"/>
<path d="M41.0222 255.409C40.9542 254.956 41.0449 254.492 41.2602 254.141C41.4756 253.79 41.7929 253.586 42.1329 253.586H157.253C157.695 253.586 158.114 253.892 158.352 254.402C158.59 254.911 158.624 255.545 158.443 256.1L157.196 259.745C156.913 260.583 156.289 261.115 155.609 261.115H42.9263C42.2916 261.115 41.7476 260.504 41.6229 259.666L41.0222 255.409Z" fill="#3C464C"/>
</g>
</g>
<defs>
<linearGradient id="paint0_linear_2186_12204" x1="269.832" y1="96.8011" x2="145.389" y2="317.645" gradientUnits="userSpaceOnUse">
<stop stop-color="#53D8FF"/>
<stop offset="1" stop-color="#3840F7"/>
</linearGradient>
<linearGradient id="paint1_linear_2186_12204" x1="258.163" y1="90.2268" x2="133.721" y2="311.07" gradientUnits="userSpaceOnUse">
<stop stop-color="#53D8FF"/>
<stop offset="1" stop-color="#3840F7"/>
</linearGradient>
<linearGradient id="paint2_linear_2186_12204" x1="243.304" y1="81.8539" x2="118.861" y2="302.697" gradientUnits="userSpaceOnUse">
<stop stop-color="#53D8FF"/>
<stop offset="1" stop-color="#3840F7"/>
</linearGradient>
<linearGradient id="paint3_linear_2186_12204" x1="235.239" y1="77.3075" x2="110.796" y2="298.151" gradientUnits="userSpaceOnUse">
<stop stop-color="#53D8FF"/>
<stop offset="1" stop-color="#3840F7"/>
</linearGradient>
<linearGradient id="paint4_linear_2186_12204" x1="223.838" y1="70.8851" x2="99.3954" y2="291.73" gradientUnits="userSpaceOnUse">
<stop stop-color="#53D8FF"/>
<stop offset="1" stop-color="#3840F7"/>
</linearGradient>
<linearGradient id="paint5_linear_2186_12204" x1="234.745" y1="172.87" x2="223.127" y2="208.034" gradientUnits="userSpaceOnUse">
<stop stop-color="#CB236D"/>
<stop offset="1" stop-color="#4C246D"/>
</linearGradient>
<linearGradient id="paint6_linear_2186_12204" x1="311.958" y1="145.77" x2="313.122" y2="148.288" gradientUnits="userSpaceOnUse">
<stop stop-color="#2B3582"/>
<stop offset="1" stop-color="#150E42"/>
</linearGradient>
<linearGradient id="paint7_linear_2186_12204" x1="308.723" y1="147.701" x2="309.477" y2="149.332" gradientUnits="userSpaceOnUse">
<stop stop-color="#2B3582"/>
<stop offset="1" stop-color="#150E42"/>
</linearGradient>
<linearGradient id="paint8_linear_2186_12204" x1="309.91" y1="148.32" x2="310.862" y2="150.38" gradientUnits="userSpaceOnUse">
<stop stop-color="#2B3582"/>
<stop offset="1" stop-color="#150E42"/>
</linearGradient>
<linearGradient id="paint9_linear_2186_12204" x1="281.57" y1="153.071" x2="288.723" y2="176.474" gradientUnits="userSpaceOnUse">
<stop stop-color="#F9B776"/>
<stop offset="1" stop-color="#F47960"/>
</linearGradient>
<linearGradient id="paint10_linear_2186_12204" x1="309.78" y1="146.675" x2="301.381" y2="174.154" gradientUnits="userSpaceOnUse">
<stop stop-color="#F9B776"/>
<stop offset="1" stop-color="#F47960"/>
</linearGradient>
<linearGradient id="paint11_linear_2186_12204" x1="264.33" y1="344.26" x2="250.802" y2="185.973" gradientUnits="userSpaceOnUse">
<stop stop-color="#F9B776"/>
<stop offset="1" stop-color="#F47960"/>
</linearGradient>
<linearGradient id="paint12_linear_2186_12204" x1="237.064" y1="346.615" x2="223.532" y2="188.286" gradientUnits="userSpaceOnUse">
<stop stop-color="#F9B776"/>
<stop offset="1" stop-color="#F47960"/>
</linearGradient>
<linearGradient id="paint13_linear_2186_12204" x1="265.82" y1="188.239" x2="263.278" y2="169.627" gradientUnits="userSpaceOnUse">
<stop stop-color="#F9B776"/>
<stop offset="1" stop-color="#F47960"/>
</linearGradient>
<linearGradient id="paint14_linear_2186_12204" x1="270.355" y1="165.825" x2="256.269" y2="122.754" gradientUnits="userSpaceOnUse">
<stop stop-color="#F9B776"/>
<stop offset="1" stop-color="#F47960"/>
</linearGradient>
<linearGradient id="paint15_linear_2186_12204" x1="266.167" y1="168.365" x2="252.082" y2="125.295" gradientUnits="userSpaceOnUse">
<stop stop-color="#F9B776"/>
<stop offset="1" stop-color="#F47960"/>
</linearGradient>
<linearGradient id="paint16_linear_2186_12204" x1="258.487" y1="192.825" x2="241.094" y2="192.825" gradientUnits="userSpaceOnUse">
<stop stop-color="#F9B776"/>
<stop offset="1" stop-color="#F47960"/>
</linearGradient>
<linearGradient id="paint17_linear_2186_12204" x1="270.246" y1="179.792" x2="289.461" y2="259.942" gradientUnits="userSpaceOnUse">
<stop stop-color="#2B3582"/>
<stop offset="1" stop-color="#150E42"/>
</linearGradient>
<linearGradient id="paint18_linear_2186_12204" x1="282.3" y1="167.159" x2="278.208" y2="185.149" gradientUnits="userSpaceOnUse">
<stop stop-color="#53D8FF"/>
<stop offset="1" stop-color="#3840F7"/>
</linearGradient>
<linearGradient id="paint19_linear_2186_12204" x1="280.155" y1="174.705" x2="278.198" y2="186.459" gradientUnits="userSpaceOnUse">
<stop stop-color="#53D8FF"/>
<stop offset="1" stop-color="#3840F7"/>
</linearGradient>
<linearGradient id="paint20_linear_2186_12204" x1="257.055" y1="200.993" x2="267.964" y2="200.993" gradientUnits="userSpaceOnUse">
<stop stop-color="#F9B776"/>
<stop offset="1" stop-color="#F47960"/>
</linearGradient>
<linearGradient id="paint21_linear_2186_12204" x1="448.004" y1="326.235" x2="424.333" y2="326.235" gradientUnits="userSpaceOnUse">
<stop stop-color="#A737D5"/>
<stop offset="1" stop-color="#EF497A"/>
</linearGradient>
<linearGradient id="paint22_linear_2186_12204" x1="439.93" y1="321.474" x2="501.975" y2="283.273" gradientUnits="userSpaceOnUse">
<stop stop-color="#C4421B"/>
<stop offset="1" stop-color="#5C0E16"/>
</linearGradient>
<linearGradient id="paint23_linear_2186_12204" x1="410.879" y1="321.549" x2="391.768" y2="321.549" gradientUnits="userSpaceOnUse">
<stop stop-color="#A737D5"/>
<stop offset="1" stop-color="#EF497A"/>
</linearGradient>
<linearGradient id="paint24_linear_2186_12204" x1="411.257" y1="304.391" x2="417.287" y2="367.778" gradientUnits="userSpaceOnUse">
<stop stop-color="#C4421B"/>
<stop offset="1" stop-color="#5C0E16"/>
</linearGradient>
<linearGradient id="paint25_linear_2186_12204" x1="458.965" y1="212.017" x2="455.202" y2="202.519" gradientUnits="userSpaceOnUse">
<stop stop-color="#C4421B"/>
<stop offset="1" stop-color="#5C0E16"/>
</linearGradient>
<linearGradient id="paint26_linear_2186_12204" x1="418.97" y1="244.113" x2="411.843" y2="285.001" gradientUnits="userSpaceOnUse">
<stop stop-color="#C4421B"/>
<stop offset="1" stop-color="#5C0E16"/>
</linearGradient>
<linearGradient id="paint27_linear_2186_12204" x1="447.454" y1="192.705" x2="464.309" y2="209.534" gradientUnits="userSpaceOnUse">
<stop stop-color="#C4421B"/>
<stop offset="1" stop-color="#5C0E16"/>
</linearGradient>
<linearGradient id="paint28_linear_2186_12204" x1="449.906" y1="189.698" x2="466.761" y2="206.527" gradientUnits="userSpaceOnUse">
<stop stop-color="#C4421B"/>
<stop offset="1" stop-color="#5C0E16"/>
</linearGradient>
<linearGradient id="paint29_linear_2186_12204" x1="115.983" y1="291.11" x2="90.2919" y2="291.11" gradientUnits="userSpaceOnUse">
<stop stop-color="#F9B776"/>
<stop offset="1" stop-color="#F47960"/>
</linearGradient>
<linearGradient id="paint30_linear_2186_12204" x1="146.146" y1="292.864" x2="91.9335" y2="292.864" gradientUnits="userSpaceOnUse">
<stop stop-color="#F9B776"/>
<stop offset="1" stop-color="#F47960"/>
</linearGradient>
<linearGradient id="paint31_linear_2186_12204" x1="85.2527" y1="218.54" x2="87.9588" y2="201.158" gradientUnits="userSpaceOnUse">
<stop stop-color="#F9B776"/>
<stop offset="1" stop-color="#F47960"/>
</linearGradient>
<linearGradient id="paint32_linear_2186_12204" x1="103.237" y1="195.802" x2="74.5449" y2="191.912" gradientUnits="userSpaceOnUse">
<stop stop-color="#F9B776"/>
<stop offset="1" stop-color="#F47960"/>
</linearGradient>
<linearGradient id="paint33_linear_2186_12204" x1="103.794" y1="195.186" x2="75.1007" y2="191.295" gradientUnits="userSpaceOnUse">
<stop stop-color="#F9B776"/>
<stop offset="1" stop-color="#F47960"/>
</linearGradient>
<linearGradient id="paint34_linear_2186_12204" x1="69.6887" y1="248.634" x2="18.7626" y2="248.634" gradientUnits="userSpaceOnUse">
<stop stop-color="#F9B776"/>
<stop offset="1" stop-color="#F47960"/>
</linearGradient>
<clipPath id="clip0_2186_12204">
<rect width="542.64" height="328.79" fill="white"/>
</clipPath>
<clipPath id="clip1_2186_12204">
<rect width="461" height="282" fill="white" transform="translate(41 47)"/>
</clipPath>
</defs>
</svg>
