<svg width="48" height="46" viewBox="0 0 48 46" fill="none" xmlns="http://www.w3.org/2000/svg">
<path fill-rule="evenodd" clip-rule="evenodd" d="M19.0213 21.2868C19.2986 21.564 19.2986 22.0137 19.0213 22.291C18.7439 22.5682 18.2943 22.5682 18.0171 22.291L14.4831 18.757C14.2058 18.4797 14.2058 18.03 14.4831 17.7528L18.0171 14.2188C18.2944 13.9415 18.744 13.9415 19.0213 14.2188C19.2986 14.4961 19.2986 14.9458 19.0213 15.223L15.9895 18.2548L19.0213 21.2868ZM26.5758 22.4125C26.2984 22.6898 25.8488 22.6898 25.5716 22.4125C25.2942 22.1352 25.2942 21.6856 25.5716 21.4083L28.6034 18.3765L25.5716 15.3447C25.2942 15.0674 25.2942 14.6177 25.5716 14.3405C25.8489 14.0632 26.2985 14.0632 26.5758 14.3405L30.1098 17.8745C30.3871 18.1518 30.3871 18.6014 30.1098 18.8787L26.5758 22.4126V22.4125ZM21.512 23.9834C21.4109 24.3619 21.0222 24.5867 20.6438 24.4856C20.2653 24.3845 20.0405 23.9958 20.1417 23.6173L23.081 12.6479C23.182 12.2695 23.5708 12.0447 23.9492 12.1458C24.3276 12.2468 24.5524 12.6356 24.4513 13.014L21.512 23.9834ZM35.7369 7.18872C36.4034 6.50552 37.3823 6.04546 38.4052 6.04546V6.04819C39.4456 6.03755 40.3921 6.448 41.0819 7.12085C41.765 7.78726 42.2252 8.76636 42.2252 9.78901H42.2225C42.2438 11.8738 40.5743 13.5804 38.4898 13.6063C36.4018 13.6322 34.6903 11.9613 34.6644 9.87368C34.6514 8.83003 35.0624 7.88023 35.737 7.18862L35.7369 7.18872ZM38.4135 7.46304L38.4052 7.46323V7.46587C37.131 7.46587 36.0628 8.54937 36.079 9.85718C36.105 11.9491 38.6641 12.9858 40.1345 11.4784C40.5585 11.0437 40.8193 10.4424 40.8075 9.78921H40.8049C40.8049 8.51509 39.7214 7.44673 38.4135 7.46304ZM40.7439 4.22554C40.5612 4.15044 40.3715 4.08345 40.1754 4.02495C39.9205 3.96147 39.7109 3.75815 39.6528 3.48384L39.3888 2.25962L37.4254 2.28403L37.2051 3.44468C37.1682 3.71167 36.98 3.94575 36.7049 4.02769C36.3725 4.127 35.8663 4.32515 35.5743 4.49419C35.3493 4.63403 35.0548 4.64136 34.817 4.48882L33.7614 3.80776L32.3902 5.21343L33.0678 6.20845C33.2184 6.42114 33.2456 6.70913 33.1139 6.95425C32.9463 7.26528 32.7316 7.75064 32.644 8.08188C32.5844 8.34272 32.3788 8.55855 32.0998 8.61772L30.8755 8.88179L30.8999 10.8452L32.0607 11.0655C32.3277 11.1024 32.5618 11.2906 32.6437 11.5657C32.7431 11.8982 32.9412 12.4039 33.1103 12.6959C33.2501 12.9209 33.2574 13.2155 33.1049 13.4533L32.4236 14.5091L33.8293 15.8802L34.8242 15.2028C35.0369 15.0522 35.3249 15.025 35.57 15.1567C35.9022 15.3357 36.3509 15.5311 36.7109 15.6296C36.9659 15.6931 37.1755 15.8964 37.2336 16.1708L37.4977 17.395L39.461 17.3706L39.6813 16.2097C39.7183 15.9427 39.9064 15.7086 40.1815 15.6267C40.514 15.5275 41.0197 15.3292 41.3117 15.1602C41.5367 15.0204 41.8313 15.0129 42.0691 15.1656L43.125 15.8468L44.4962 14.4412L43.8187 13.4462C43.6682 13.2335 43.6409 12.9456 43.7727 12.7004C43.9401 12.3895 44.1549 11.9039 44.2425 11.5727C44.3021 11.3118 44.5077 11.0959 44.7867 11.0369L46.0109 10.7729L45.9865 8.80952L44.8257 8.58921C44.5587 8.55239 44.3246 8.36411 44.2427 8.08901C44.1434 7.75649 43.9453 7.25093 43.7762 6.95874C43.6363 6.73374 43.629 6.43921 43.7815 6.20142L44.4628 5.14556L43.0571 3.77437L42.0622 4.45181C41.8495 4.60239 41.5615 4.62974 41.3164 4.4979C41.125 4.39458 40.9339 4.30366 40.7439 4.22554ZM34.1116 41.5219H10.6563V43.742H34.1116V41.5219ZM27.5258 40.1016C26.2258 39.0546 25.3484 37.5232 25.1585 35.8033H19.6096C19.4195 37.5233 18.5422 39.0547 17.2423 40.1016H27.5258ZM26.5899 35.8033H41.4432C42.8658 35.8033 44.0273 34.6419 44.0273 33.2192V16.9501L45.8957 15.0347C46.1438 14.7997 46.1919 14.4126 45.9931 14.1213L45.2166 12.981L45.4802 12.3376L46.8725 12.0374L46.8722 12.036C47.1957 11.9677 47.4368 11.6788 47.4328 11.3355L47.3943 8.24995C47.4088 7.90386 47.1674 7.59058 46.8169 7.52495L45.4638 7.26812L45.1941 6.62603L45.9684 5.42593L45.9681 5.42573C46.1466 5.14829 46.1114 4.77446 45.8657 4.5355L43.6505 2.37466C43.4154 2.12651 43.0284 2.07847 42.7371 2.2773L41.5968 3.05366L40.9534 2.7896L40.6532 1.3978L40.6519 1.3981C40.5836 1.07456 40.2946 0.833448 39.9514 0.837451L36.8658 0.87583C36.5197 0.861377 36.2064 1.10278 36.1408 1.45327L35.8841 2.8062L35.2416 3.07583L34.0418 2.30181L34.0416 2.3021C33.7642 2.12358 33.3903 2.15874 33.1514 2.40444L31.4337 4.16528H3.14961C1.72686 4.16528 0.56543 5.32671 0.56543 6.74937V33.2189C0.56543 34.6416 1.72686 35.803 3.14961 35.803H18.178C17.8299 38.2374 15.7208 40.1012 13.2237 40.1012C10.7267 40.1012 10.172 40.1013 10.172 40.1013C9.91387 40.1013 9.67969 40.2064 9.51045 40.3756L9.51182 40.377C9.3416 40.5478 9.23603 40.7815 9.23603 41.0372V44.226C9.23603 44.7422 9.65576 45.162 10.172 45.162H34.596C35.1083 45.162 35.5319 44.7383 35.5319 44.226V41.0372C35.5319 40.6155 35.2576 40.3872 35.2576 40.3756C35.0884 40.2064 34.8542 40.1013 34.5961 40.1013H31.5443C29.0473 40.1012 26.9382 38.2374 26.59 35.803L26.5899 35.8033ZM42.607 31.1962V33.2192C42.607 33.8578 42.0818 34.383 41.4432 34.383H3.14961C2.51104 34.383 1.98574 33.8579 1.98574 33.2192V31.1962H42.607ZM1.98574 29.7759H42.607V17.1994L41.6444 16.5784L41.0022 16.848L40.7454 18.2011C40.6798 18.5516 40.3665 18.793 40.0204 18.7786L36.9349 18.817C36.5916 18.821 36.3026 18.5799 36.2344 18.2564L36.233 18.2567L35.9328 16.8648L35.2894 16.6007L34.1491 17.3771C33.8577 17.5759 33.4708 17.5279 33.2357 17.2797L31.0205 15.119C30.7749 14.88 30.7397 14.5062 30.9182 14.2288L30.9179 14.2286L31.6921 13.0286L31.4225 12.3864L30.0693 12.1295C29.7188 12.0639 29.4774 11.7506 29.4919 11.4045L29.4535 8.31899C29.4495 7.97573 29.6906 7.68677 30.0142 7.61851L30.0139 7.61714L31.4062 7.31685L31.6698 6.67358L30.9291 5.58579H3.14961C2.51094 5.58579 1.98574 6.11099 1.98574 6.74956V29.7758V29.7759Z" fill="#DAA7EE"/>
</svg>
