<svg width="543" height="329" viewBox="0 0 543 329" fill="none" xmlns="http://www.w3.org/2000/svg">
<g clip-path="url(#clip0_1632_6891)">
<path opacity="0.2" d="M78.788 327.839C41.4882 290.535 -9.49424 252.012 10.4949 193.818C23.6478 155.541 55.8804 144.88 82.6859 121.276C95.9087 109.631 87.5932 92.6757 87.3433 75.8481C86.7836 32.7513 139.135 -0.687543 187.269 0.010739C239.401 0.768031 261.969 48.9102 305.705 51.4968C322.876 51.7426 338.257 42.4781 353.449 35.1314C398.465 13.3371 469.906 27.2339 473.514 79.9296C474.444 108.392 439.183 154.174 474.514 169.143C502.668 181.072 531.113 185.469 536.19 228.133C542.837 283.976 507.716 314.621 461.971 329L78.788 327.839Z" fill="#999999"/>
<g clip-path="url(#clip1_1632_6891)">
<path d="M153.797 322.347H124.312" stroke="#263238" stroke-miterlimit="10" stroke-linecap="round" stroke-linejoin="round"/>
<path d="M417.689 322.347H159.055" stroke="#263238" stroke-miterlimit="10" stroke-linecap="round" stroke-linejoin="round"/>
<path d="M212.707 254.193C212.707 254.193 211.578 257.296 209.19 257.717C206.795 258.138 202.576 253.483 205.246 251.09C207.917 248.69 211.578 252.497 212.707 254.193Z" fill="#39B039"/>
<path d="M216.366 238.953C216.366 238.953 212.849 247.559 214.253 251.787C215.657 256.021 224.39 259.124 226.923 253.621C229.456 248.118 223.826 240.36 221.713 238.67C219.601 236.98 217.068 237.546 216.366 238.953Z" fill="#39B039"/>
<path d="M236.924 242.622C236.924 242.622 230.867 248.125 230.165 253.628C229.463 259.131 233.544 261.103 237.77 260.4C241.995 259.696 244.108 248.973 242.835 244.035C241.569 239.097 236.924 242.622 236.924 242.622Z" fill="#39B039"/>
<path d="M238.05 273.096C238.05 273.096 231.291 273.378 231.009 276.62C230.727 279.861 233.968 280.571 237.203 277.751C240.438 274.93 240.865 273.234 238.05 273.096Z" fill="#39B039"/>
<path d="M231.125 277.393C231.125 277.393 236.448 274.949 238.849 274.528" stroke="#263238" stroke-miterlimit="10"/>
<path d="M239.554 294.323C239.554 294.323 234.589 289.718 232.094 291.804C229.599 293.889 231.379 296.691 235.661 296.999C239.943 297.319 241.441 296.427 239.554 294.323Z" fill="#39B039"/>
<path d="M231.633 292.432C231.633 292.432 237.112 294.499 239.106 295.9" stroke="#263238" stroke-miterlimit="10"/>
<path d="M213.373 292.966C213.373 292.966 220.213 286.621 223.654 289.498C227.096 292.375 224.632 296.232 218.733 296.66C212.834 297.093 210.771 295.862 213.373 292.966Z" fill="#39B039"/>
<path d="M224.301 290.359C224.301 290.359 216.746 293.204 214 295.139" stroke="#263238" stroke-miterlimit="10"/>
<path d="M221.294 279.868C221.294 279.868 220.591 283.254 218.052 284.523C215.513 285.792 211.012 283.109 213.407 279.02C215.802 274.93 220.021 278.172 221.294 279.868Z" fill="#39B039"/>
<path d="M215.379 269.282C215.379 269.282 214.112 266.462 209.185 268.296C204.257 270.131 202.288 272.951 205.385 273.937C208.482 274.93 215.379 269.282 215.379 269.282Z" fill="#39B039"/>
<path d="M214.442 269.157C214.442 269.157 209.22 269.722 206.398 272.128" stroke="#263238" stroke-miterlimit="10"/>
<path d="M229.461 235.429C229.461 235.429 230.307 237.401 231.994 236.98C233.686 236.559 234.107 234.015 236.784 234.725C239.461 235.435 241.711 238.532 241.711 237.125C241.711 235.711 238.332 232.049 234.533 232.049C230.727 232.043 229.599 233.594 229.461 235.429Z" fill="#39B039"/>
<path d="M215.375 269.282C215.375 269.282 221.437 268.114 223.964 274.861C224.215 275.52 224.422 276.212 224.597 276.928" stroke="#263238" stroke-miterlimit="10"/>
<path d="M240.68 262.749C240.68 262.749 241.946 259.928 246.874 261.763C251.801 263.597 253.77 266.418 250.673 267.404C247.576 268.39 240.68 262.749 240.68 262.749Z" fill="#39B039"/>
<path d="M241.805 262.938C241.805 262.938 246.883 262.655 249.284 265.626" stroke="#263238" stroke-miterlimit="10"/>
<path d="M240.679 262.749C240.679 262.749 238.666 262.366 236.484 263.321" stroke="#263238" stroke-miterlimit="10"/>
<path d="M218.616 257.692C215.645 254.652 212.711 254.193 212.711 254.193C212.711 254.193 208.379 253.043 206.68 254.595" stroke="#263238" stroke-miterlimit="10"/>
<path d="M219.216 242.062L218.953 240.881" stroke="#263238" stroke-miterlimit="10"/>
<path d="M226.077 304.43C226.077 304.43 226.71 280.138 226.077 272.756C225.443 265.381 222.503 256.737 222.503 256.737L219.5 243.312" stroke="#263238" stroke-miterlimit="10"/>
<path d="M238.578 247.276L239.124 246.114" stroke="#263238" stroke-miterlimit="10"/>
<path d="M227.539 304.399C227.539 304.399 227.752 282.242 228.592 275.916C229.432 269.59 232.799 259.683 232.799 259.683L237.965 248.596" stroke="#263238" stroke-miterlimit="10"/>
<path d="M231.118 277.393C231.118 277.393 229.645 290.095 228.805 304.43" stroke="#263238" stroke-miterlimit="10"/>
<path d="M223.967 304.399C223.967 304.399 224.387 284.139 223.547 281.394C222.707 278.649 221.296 279.861 221.296 279.861C221.296 279.861 217.403 280.32 215.992 282.582" stroke="#263238" stroke-miterlimit="10"/>
<path d="M224.93 278.504C226.033 284.686 225.017 304.418 225.017 304.418" stroke="#263238" stroke-miterlimit="10"/>
<path d="M235.289 263.987C234.073 264.822 232.901 266.173 232.092 268.334C229.565 275.081 229.854 304.437 229.854 304.437" stroke="#263238" stroke-miterlimit="10"/>
<path d="M219.344 258.496C220.66 260.041 221.933 262.133 222.917 264.96C226.284 274.653 227.544 299.769 226.917 304.405" stroke="#263238" stroke-miterlimit="10"/>
<path d="M227.89 267.567C227.683 279.805 227.539 304.399 227.539 304.399" stroke="#263238" stroke-miterlimit="10"/>
<path d="M227.914 266.047C228.052 257.956 228.215 250.034 228.378 245.775C228.798 234.813 229.45 235.429 229.45 235.429C229.45 235.429 230.227 232.966 234.603 233.249" stroke="#263238" stroke-miterlimit="10"/>
<path d="M222.53 275.288C222.53 275.288 219.013 272.141 220.417 270.595C221.821 269.05 230.555 267.913 233.087 269.923C235.62 271.933 229.99 274.767 227.878 275.388C225.765 276.01 223.232 275.803 222.53 275.288Z" fill="#39B039"/>
<path d="M225.786 272.712C225.736 273.033 225.711 273.347 225.711 273.648" stroke="#263238" stroke-miterlimit="10"/>
<path d="M226.997 269.037C226.997 269.037 226.47 270.086 226.094 271.374" stroke="#263238" stroke-miterlimit="10"/>
<path d="M222.53 295.849C222.53 295.849 219.013 292.702 220.417 291.157C221.828 289.611 230.555 288.474 233.087 290.484C235.62 292.495 229.99 295.328 227.878 295.95C225.765 296.572 223.232 296.364 222.53 295.849Z" fill="#39B039"/>
<path d="M226.996 289.605C226.996 289.605 225.711 292.187 225.711 294.216" stroke="#263238" stroke-miterlimit="10"/>
<path d="M225.152 287.155C225.152 287.155 222.764 285.019 223.717 283.97C224.67 282.921 230.6 282.148 232.318 283.518C234.036 284.881 230.218 286.809 228.782 287.23C227.353 287.645 225.629 287.5 225.152 287.155Z" fill="#39B039"/>
<path d="M228.184 282.915C228.184 282.915 227.312 284.667 227.312 286.043" stroke="#263238" stroke-miterlimit="10"/>
<path d="M231.381 300.9H221.852V322.07H231.381V300.9Z" fill="#E31E23"/>
<path d="M391.475 272.932C387.927 272.932 384.993 270.771 384.817 270.639C384.234 270.2 384.115 269.377 384.554 268.792C384.993 268.208 385.814 268.089 386.397 268.529C386.579 268.66 390.993 271.877 394.679 269.264C397.387 267.341 397.757 254.388 397.149 245.806C397.099 245.078 397.644 244.449 398.372 244.399C399.105 244.355 399.726 244.896 399.776 245.624C400.039 249.324 401.092 267.944 396.202 271.418C394.622 272.543 392.992 272.932 391.475 272.932Z" fill="#263238"/>
<path d="M375.226 272.7H370.844V305.002H375.226V272.7Z" fill="#263238" stroke="#263238" stroke-miterlimit="10" stroke-linecap="round" stroke-linejoin="round"/>
<path d="M390.201 269.59H355.864C354.541 269.59 353.469 268.516 353.469 267.191V262.523C353.469 261.198 354.541 260.123 355.864 260.123H390.201C391.524 260.123 392.596 261.198 392.596 262.523V267.191C392.596 268.51 391.524 269.59 390.201 269.59Z" fill="#E527BB"/>
<path d="M396.054 216.193C395.709 216.972 395.433 217.782 395.201 218.599C393.546 224.322 393.42 230.516 393.358 236.44C393.333 238.796 392.718 242.609 393.634 244.795C394.768 247.515 399.897 248.765 401.307 245.7C403.088 241.83 402.009 236.691 402.868 232.52C403.821 227.896 406.442 222.173 405.301 217.493C404.21 213.033 400.624 209.446 397.138 214.277C396.706 214.874 396.354 215.521 396.054 216.193Z" fill="#E527BB"/>
<path d="M381.095 269.685H364.977V274.076H381.095V269.685Z" fill="#263238" stroke="#263238" stroke-miterlimit="10" stroke-linecap="round" stroke-linejoin="round"/>
<path d="M354.094 320.28C354.094 321.423 353.172 322.347 352.031 322.347C350.89 322.347 349.969 321.423 349.969 320.28C349.969 319.137 350.89 318.213 352.031 318.213C353.172 318.213 354.094 319.143 354.094 320.28Z" fill="#E527BB"/>
<path d="M396.469 320.28C396.469 321.423 395.547 322.347 394.406 322.347C393.265 322.347 392.344 321.423 392.344 320.28C392.344 319.137 393.265 318.213 394.406 318.213C395.547 318.213 396.469 319.143 396.469 320.28Z" fill="#E527BB"/>
<path d="M375.039 320.28C375.039 321.423 374.118 322.347 372.977 322.347C371.836 322.347 370.914 321.423 370.914 320.28C370.914 319.137 371.836 318.213 372.977 318.213C374.118 318.213 375.039 319.143 375.039 320.28Z" fill="#E527BB"/>
<path d="M374.422 304.996L373.037 305.052L371.645 304.996L348.969 317.843V319.721H352.034V318.088L373.037 310.694L394.026 318.088V319.721H397.098V317.843L374.422 304.996Z" fill="#263238" stroke="#263238" stroke-miterlimit="10" stroke-linecap="round" stroke-linejoin="round"/>
<path d="M371.023 304.939H375.036L374.434 319.721H371.625L371.023 304.939Z" fill="#263238" stroke="#263238" stroke-miterlimit="10" stroke-linecap="round" stroke-linejoin="round"/>
<path d="M349.864 171.063C349.864 171.063 349.3 175.473 350.986 177.91C352.673 180.348 353.137 181.755 353.137 182.879C353.137 184.004 352.384 185.882 353.137 186.447C353.889 187.013 356.133 186.447 356.133 186.447C356.133 186.447 360.158 190.575 361.563 190.198C362.967 189.821 364.371 188.696 364.371 188.696C364.371 188.696 368.584 193.012 369.149 194.231C369.713 195.45 370.083 196.386 370.083 196.386L376.358 186.441C376.358 186.441 372.239 183.438 370.271 178.187C368.302 172.935 368.302 165.993 362.315 164.492C356.328 162.99 350.522 168.525 349.864 171.063Z" fill="#FDAEA9"/>
<path d="M357.664 185.788C357.664 185.788 359.445 184.946 359.445 183.256L357.664 185.788Z" fill="#FDAEA9"/>
<path d="M352.329 178.702C352.329 178.702 352.235 176.635 354.479 177.012L352.329 178.702Z" fill="#FDAEA9"/>
<path d="M355.413 180.159C355.764 180.706 355.82 181.29 355.538 181.478C355.256 181.667 354.742 181.365 354.391 180.825C354.04 180.285 353.983 179.694 354.266 179.506C354.548 179.323 355.062 179.612 355.413 180.159Z" fill="#FDAEA9"/>
<path d="M364.375 188.696L366.902 186.774V191.033L364.375 188.696Z" fill="#263238" stroke="#263238" stroke-miterlimit="10" stroke-linecap="round" stroke-linejoin="round"/>
<path d="M326.299 256.75L320.839 311.718C320.839 311.718 313.096 311.881 309.867 311.554C306.639 311.228 303.573 309.94 303.899 311.718C304.225 313.495 309.059 316.404 310.833 317.214C312.607 318.025 314.864 318.508 316.318 319.319C317.773 320.129 320.832 322.391 322.124 322.064C323.415 321.737 326.318 309.94 326.318 309.94L341.295 261.599L358.072 260.305C358.072 260.305 332.744 253.514 330.167 253.194C327.591 252.867 326.299 256.75 326.299 256.75Z" fill="#FDAEA9"/>
<path d="M317.928 316.247C312.442 314.953 310.505 313.338 310.505 313.338L311.966 311.692C311.163 311.661 310.442 311.617 309.859 311.56C306.631 311.234 303.565 309.946 303.891 311.724C304.217 313.502 309.051 316.41 310.825 317.221C312.599 318.031 314.856 318.515 316.311 319.325C317.765 320.135 320.825 322.397 322.116 322.07C322.655 321.938 323.464 319.821 324.235 317.396C322.875 317.233 320.774 316.913 317.928 316.247Z" fill="#A78BEF"/>
<path d="M366.336 232.036L364.205 240.423C364.205 240.423 354.525 240.749 343.553 243.011C332.582 245.272 322.419 248.344 322.1 250.285C321.78 252.226 334.363 275.338 344.199 293.123C346.324 296.967 350.976 306.698 350.976 306.698C350.976 306.698 349.202 311.548 347.428 314.293C345.654 317.038 342.914 319.626 342.268 319.953C341.622 320.28 339.685 321.084 340.331 321.894C340.977 322.705 347.591 321.894 348.074 321.894C348.556 321.894 353.722 317.371 355.17 316.077C356.625 314.783 362.267 310.58 362.104 308.966C361.941 307.351 356.945 303.796 356.619 302.659C356.293 301.528 349.841 287.462 349.522 286.168C349.196 284.874 340.651 259.495 340.651 259.495C340.651 259.495 375.659 261.436 383.238 260.789C390.818 260.142 391.946 257.233 392.435 254.645C392.918 252.057 389.533 231.043 389.533 231.043L366.95 230.88L366.336 232.036Z" fill="#FDAEA9"/>
<path d="M340.657 259.495L332.914 256.266" stroke="#263238" stroke-miterlimit="10" stroke-linecap="round" stroke-linejoin="round"/>
<path d="M362.114 308.96C362.033 308.168 360.791 306.905 359.506 305.693C358.986 306.352 358.39 307.087 357.763 307.829C355.826 310.09 347.601 318.175 347.601 318.175L344.974 317.459C343.764 318.791 342.661 319.765 342.278 319.953C341.632 320.28 339.695 321.084 340.341 321.894C340.987 322.705 347.601 321.894 348.084 321.894C348.566 321.894 353.732 317.371 355.18 316.077C356.629 314.777 362.277 310.574 362.114 308.96Z" fill="#A78BEF"/>
<path d="M366.95 230.886L366.335 232.042L364.204 240.429C364.204 240.429 354.524 240.749 343.552 243.017C340.261 243.696 337.051 244.449 334.148 245.222L341.64 259.564C347.377 259.872 376.41 261.386 383.237 260.802C390.817 260.154 391.945 257.246 392.434 254.658C392.917 252.069 389.532 231.056 389.532 231.056L366.95 230.886Z" fill="#231F20" stroke="#263238" stroke-miterlimit="10" stroke-linecap="round" stroke-linejoin="round"/>
<path d="M366.141 241.233C366.141 241.233 377.595 242.847 382.754 247.213" stroke="#263238" stroke-miterlimit="10" stroke-linecap="round" stroke-linejoin="round"/>
<path d="M370.18 240.586C370.18 240.586 377.44 241.553 379.697 243.174" stroke="#263238" stroke-miterlimit="10" stroke-linecap="round" stroke-linejoin="round"/>
<path d="M337.173 216.652C337.173 216.652 334.653 216.432 333.449 217.198C332.245 217.964 326.434 221.922 324.904 223.235C323.368 224.554 321.945 226.86 321.838 227.187C321.732 227.513 322.497 227.626 322.823 227.513C323.149 227.406 324.578 226.307 324.139 226.854C323.7 227.4 324.471 227.538 324.471 227.538C324.471 227.538 332.578 222.795 333.236 222.902C333.894 223.009 335.211 222.575 336.088 221.916C336.966 221.256 339.267 220.05 339.267 220.05L365.128 225.101L369.071 221.476L368.194 212.694L362.388 217.525L337.173 216.652Z" fill="#E28C8A"/>
<path d="M373.417 188.056C373.417 188.056 368.602 197.843 366.195 205.369C363.788 212.889 365.06 214.591 365.631 215.018C366.195 215.445 367.474 216.438 367.474 216.438C367.474 216.438 365.349 230.912 366.339 232.049C367.33 233.186 375.543 233.607 382.201 233.607C388.859 233.607 390.413 230.912 390.413 229.492C390.413 228.072 387.442 205.231 385.172 197.849C382.903 190.468 376.815 185.643 373.417 188.056Z" fill="#A78BEF"/>
<path d="M370.214 187.321C370.214 187.321 364.816 192.566 365.305 194.199C365.794 195.839 367.919 195.676 367.919 195.676C367.919 195.676 367.593 198.295 368.734 197.969C369.875 197.642 375.11 190.926 375.11 190.926C375.11 190.926 372.508 184.368 370.214 187.321Z" fill="#FDAEA9"/>
<path d="M373.138 199.275L370.11 220.597C370.11 220.597 338.813 218.894 338.249 218.894C337.685 218.894 331.453 221.734 328.902 223.153C326.35 224.573 324.651 225.566 324.231 226.558C323.805 227.551 323.805 227.551 323.805 227.551C323.805 227.551 325.786 227.978 327.629 227.551C329.472 227.124 330.889 226.414 330.889 226.414C330.889 226.414 334.569 225.987 335.842 225.138C337.114 224.284 339.948 221.872 339.948 221.872C339.948 221.872 364.587 228.543 367.138 228.964C369.69 229.391 375.777 231.942 377.194 230.522C378.373 229.341 381.909 208.686 383.056 201.801C383.338 200.105 382.918 198.364 381.852 197.014C381 195.933 379.834 194.947 378.467 194.765C374.304 194.212 373.138 199.275 373.138 199.275Z" fill="#FDAEA9"/>
<path d="M381.86 197.02C381.007 195.94 379.841 194.953 378.475 194.771C374.312 194.218 373.146 199.275 373.146 199.275L370.118 220.597C370.118 220.597 367.083 220.433 362.883 220.207C363.334 222.67 363.967 226.232 364.218 228.292C365.666 228.65 366.713 228.902 367.14 228.971C369.691 229.398 375.779 231.948 377.196 230.529C378.374 229.348 381.91 208.692 383.057 201.807C383.346 200.111 382.926 198.365 381.86 197.02Z" fill="#A78BEF"/>
<path d="M371.203 222.054C371.203 222.054 375.78 228.606 375.291 226.973C374.802 225.339 373.98 221.401 372.676 220.094" stroke="#263238" stroke-miterlimit="10" stroke-linecap="round" stroke-linejoin="round"/>
<path d="M327.634 227.544C327.634 227.544 327.584 226.646 328.186 226.301C328.787 225.955 331.809 224.567 332.073 224.485" stroke="#263238" stroke-miterlimit="10" stroke-linecap="round" stroke-linejoin="round"/>
<path d="M325.945 227.771C325.945 227.771 326.378 226.389 326.723 226.125C327.068 225.861 330.691 223.788 330.691 223.788" stroke="#263238" stroke-miterlimit="10" stroke-linecap="round" stroke-linejoin="round"/>
<path d="M404.557 186.994C404.394 180.115 395.398 182.081 393.598 179.129C391.799 176.176 394.909 176.176 392.946 171.427C390.984 166.678 382.646 170.441 378.558 169.787C376.37 169.436 374.508 167.155 373.248 165.114C372.571 163.091 372.019 161.539 369.48 158.995C365.882 155.389 355.813 160.075 355.813 160.075C355.813 160.075 345.024 166.025 345.205 169.448C345.387 172.872 359.951 175.033 361.211 175.033C362.471 175.033 362.653 171.791 364.27 172.69C365.794 173.538 366.195 175.498 366.089 176.472C365.844 177.433 365.65 178.205 365.531 178.633C364.991 180.611 367.117 181.579 366.791 187.968C366.465 194.356 376.113 193.213 378.401 193.54C380.69 193.866 383.066 201.801 384.777 204.684C386.489 207.568 391.805 207.467 394.426 204.847C397.04 202.228 394.752 199.765 394.915 197.636C395.072 195.512 404.72 193.873 404.557 186.994Z" fill="#263238" stroke="#263238" stroke-miterlimit="10" stroke-linecap="round" stroke-linejoin="round"/>
<path d="M272.959 322.686H269.185L268.383 234.807H273.762L272.959 322.686Z" fill="white" stroke="#263238" stroke-miterlimit="10" stroke-linecap="round" stroke-linejoin="round"/>
<path d="M342.014 322.686H338.246L337.438 234.807H342.823L342.014 322.686Z" fill="white" stroke="#263238" stroke-miterlimit="10" stroke-linecap="round" stroke-linejoin="round"/>
<path d="M348.8 229.473H263.055V235.265H348.8V229.473Z" fill="#263238" stroke="#263238" stroke-miterlimit="10" stroke-linecap="round" stroke-linejoin="round"/>
<path d="M299.501 229.517H286.617C285.809 229.517 285.088 229.102 284.674 228.405C284.266 227.708 284.254 226.872 284.643 226.162L298.799 200.456C299.012 200.067 299.501 199.929 299.889 200.142C300.278 200.356 300.422 200.846 300.203 201.235L286.047 226.941C285.884 227.23 285.997 227.488 286.059 227.582C286.116 227.676 286.285 227.903 286.617 227.903H299.501C299.946 227.903 300.303 228.261 300.303 228.707C300.303 229.159 299.946 229.517 299.501 229.517Z" fill="#E527BB"/>
<path d="M297.841 177.012L295.016 177.56L304.055 224.342L306.881 223.794L297.841 177.012Z" fill="#E527BB"/>
<path d="M339.524 228.449L316.391 227.79V229.335H339.524V228.449Z" fill="#E527BB"/>
<path d="M364.484 119.831C379.664 119.831 391.969 107.501 391.969 92.2908C391.969 77.0809 379.664 64.7507 364.484 64.7507C349.305 64.7507 337 77.0809 337 92.2908C337 107.501 349.305 119.831 364.484 119.831Z" fill="#A78BEF"/>
<path d="M346.028 112.692C346.223 104.899 346.371 97.1644 346.285 96.7256C346.109 95.8386 344.067 95.8386 344.067 95.8386C344.067 95.8386 342.468 100.021 342.116 104.022C342.04 104.89 341.873 106.168 341.664 107.637C342.906 109.497 344.377 111.194 346.028 112.692Z" fill="#E527BB"/>
<path d="M364.482 119.831C370.393 119.831 375.87 117.957 380.354 114.771L380.387 98.2088C380.387 98.2088 374.581 95.2474 369.198 94.3985C363.815 93.5497 347.767 95.9865 347.767 95.9865L347.234 113.722C351.941 117.542 357.943 119.831 364.482 119.831Z" fill="#A78BEF"/>
<path d="M359.161 85.252C359.161 85.252 357.918 98.0611 358.275 98.8622C358.632 99.6634 360.141 101.8 363.249 101.8C366.357 101.8 369.731 98.5093 369.731 98.5093L370.797 85.6096C370.797 85.6096 366.713 87.5648 363.872 86.9449C361.026 86.3202 359.161 85.252 359.161 85.252Z" fill="#FFC3BD"/>
<path d="M363.391 90.283L370.339 94.7037L370.891 84.7559L363.391 90.283Z" fill="#FFC3BD"/>
<path d="M356.254 74.4888C356.254 74.4888 355.369 72.443 354.479 74.0453C353.594 75.6476 356.521 79.7393 356.521 79.7393L356.254 74.4888Z" fill="#FFC3BD"/>
<path d="M373.302 74.4888C373.302 74.4888 374.187 72.443 375.077 74.0453C375.962 75.6476 372.578 80.0016 372.578 80.0016L373.302 74.4888Z" fill="#FFC3BD"/>
<path d="M356.518 75.6429C356.518 75.6429 355.633 72.443 355.633 71.5512C355.633 70.6594 357.232 70.6594 357.232 70.6594L356.518 75.6429Z" fill="#263238"/>
<path d="M356.643 71.0027C356.643 71.0027 356.333 82.0235 357.161 83.788C357.989 85.5572 360.897 89.6107 361.621 90.1305C362.344 90.6503 364.838 90.8602 365.561 90.7552C366.285 90.6503 371.848 85.0946 372.058 84.365C372.267 83.6354 373.138 73.5016 373.138 73.5016L373.033 65.0798C373.033 65.0798 370.958 63.9352 367.846 64.1451C364.733 64.3549 357.057 67.6788 357.057 67.6788L356.643 71.0027Z" fill="#FFC3BD"/>
<path d="M370.648 66.7392C370.648 66.7392 368.054 70.168 366.912 70.6878C365.769 71.2077 365.979 69.0235 365.979 69.0235C365.979 69.0235 363.28 71.1027 359.444 71.9325C355.609 72.7623 352.496 72.9721 351.459 71.5176C350.421 70.0631 353.743 67.9839 353.743 67.9839C353.743 67.9839 351.149 66.4245 353.743 63.6204C356.337 60.8163 362.976 57.6975 367.749 59.5669C372.523 61.4363 371.59 63.2055 371.59 63.2055C371.59 63.2055 375.221 62.6857 375.531 65.5947C375.84 68.5037 373.665 71.8324 373.665 71.8324C373.665 71.8324 373.56 74.3265 373.56 74.9512C373.56 75.5759 372.832 75.471 372.832 75.471L372.513 72.3522C372.513 72.3522 371.371 72.4571 370.752 70.273C370.129 68.0888 370.648 66.7392 370.648 66.7392Z" fill="#263238"/>
<path d="M362.031 81.4275C362.031 81.4275 363.097 82.3145 364.073 82.3145C365.049 82.3145 366.024 81.5133 366.024 81.5133" fill="#FFC3BD"/>
<path d="M360.961 83.7402C360.961 83.7402 362.912 84.8085 364.602 84.6272C366.286 84.4508 367.353 83.0249 367.353 83.0249" fill="#FFC3BD"/>
<path d="M366.016 73.597C366.016 73.597 369.39 72.6193 370.456 74.484L366.016 73.597Z" fill="#FFC3BD"/>
<path d="M362.38 73.8638C362.38 73.8638 360.072 72.2614 358.297 73.9544L362.38 73.8638Z" fill="#FFC3BD"/>
<path d="M361.402 76.1578C361.402 76.8874 361.078 77.474 360.673 77.474C360.269 77.474 359.945 76.8826 359.945 76.1578C359.945 75.4329 360.269 74.8416 360.673 74.8416C361.078 74.8416 361.402 75.4329 361.402 76.1578Z" fill="#FFC3BD"/>
<path d="M367.556 78.0223C367.958 78.0223 368.284 77.433 368.284 76.7061C368.284 75.9792 367.958 75.3899 367.556 75.3899C367.154 75.3899 366.828 75.9792 366.828 76.7061C366.828 77.433 367.154 78.0223 367.556 78.0223Z" fill="#FFC3BD"/>
<path d="M388.359 105.93C386.522 101.557 385.028 98.185 384.723 97.8798C383.838 96.9928 372.825 91.3847 372.825 91.3847C372.825 91.3847 371.583 89.1624 370.341 90.3164C370.341 90.3164 366.614 102.324 365.367 112.911C365.148 114.795 364.977 117.175 364.844 119.821C374.919 119.693 383.681 114.132 388.359 105.93Z" fill="#E527BB"/>
<path d="M372.822 91.3894C372.822 91.3894 373.089 94.2364 373.089 97.8845C373.089 101.533 372.556 105.181 372.556 105.181C372.556 105.181 370.605 104.647 368.649 105.271C366.693 105.896 366.25 106.607 366.25 106.607C366.25 106.607 369.001 92.1047 370.333 90.3259C371.671 88.5424 372.113 89.8776 372.822 91.3894Z" fill="#C61CA6"/>
<path d="M378.197 115.038C377.945 114.299 377.821 113.627 377.883 113.093C378.24 110.155 378.768 106.955 378.768 106.955" stroke="#263238" stroke-miterlimit="10" stroke-linecap="round" stroke-linejoin="round"/>
<path d="M355.968 118.486C356.054 115.31 356.187 112.701 356.397 111.228C357.372 104.38 358.438 90.321 358.438 90.321C357.372 90.054 355.421 91.9234 355.421 91.9234C355.421 91.9234 344.946 94.9468 344.056 95.8386C343.637 96.2582 343.575 103.087 343.623 110.226C346.874 114.013 351.123 116.907 355.968 118.486Z" fill="#E527BB"/>
<path d="M355.425 91.9236C355.425 91.9236 354.274 96.0153 353.208 99.487C352.142 102.959 351.875 104.823 351.875 104.823C351.875 104.823 352.941 103.312 354.54 104.466C356.139 105.625 357.115 106.602 357.115 106.602L358.619 90.3308C358.619 90.3308 356.491 90.0542 355.425 91.9236Z" fill="#C61CA6"/>
<path d="M168.163 197C182.061 197 193.327 185.711 193.327 171.786C193.327 157.86 182.061 146.571 168.163 146.571C154.266 146.571 143 157.86 143 171.786C143 185.711 154.266 197 168.163 197Z" fill="#A78BEF"/>
<path d="M168.16 197C177.567 197 185.763 191.826 190.081 184.164L188.561 182.356C187.646 180.749 186.722 179.968 185.929 179.75C184.408 179.335 173.576 177.724 173.576 177.724L162.326 178.317C162.326 178.317 156.796 179.658 152.469 181.513L147.633 186.36C152.191 192.795 159.681 197 168.16 197Z" fill="#E527BB"/>
<path d="M170.593 185.661C170.083 185.958 169.543 186.233 168.977 186.473" stroke="#263238" stroke-miterlimit="10" stroke-linecap="round" stroke-linejoin="round"/>
<path d="M176.352 180.431C176.352 180.431 174.465 183.155 171.328 185.207" stroke="#263238" stroke-miterlimit="10" stroke-linecap="round" stroke-linejoin="round"/>
<path d="M175.43 183.199C175.43 183.199 174.005 185.212 172.75 185.884" stroke="#263238" stroke-miterlimit="10" stroke-linecap="round" stroke-linejoin="round"/>
<path d="M162.233 149.335C162.233 149.335 157.357 148.213 156.433 149.466C155.51 150.719 157.357 151.911 157.091 152.173C156.826 152.435 151.161 155.343 151.623 158.181C152.085 161.019 155.906 163.927 156.037 164.717C156.168 165.512 151.623 165.774 151.03 166.961C150.438 168.149 149.579 173.764 154.525 175.61C159.466 177.462 165.662 174.357 167.375 174.357C169.087 174.357 170.799 177.724 172.778 177.527C174.756 177.331 175.876 175.877 175.876 175.877C175.876 175.877 177.919 178.715 180.887 177.527C183.854 176.34 187.279 172.179 185.828 170.926C184.377 169.673 182.73 169.275 183.784 168.153C184.839 167.031 187.013 164.058 186.686 161.482C186.355 158.906 183.327 158.709 182.137 157.915C180.952 157.12 183.457 155.801 183.388 153.623C183.318 151.444 181.741 147.811 173.701 145.366C165.662 142.921 161.706 144.113 161.314 146.161C160.917 148.213 162.233 149.335 162.233 149.335Z" fill="#263238" stroke="#263238" stroke-miterlimit="10" stroke-linecap="round" stroke-linejoin="round"/>
<path d="M163.112 170.524C163.112 170.524 161.465 180.828 161.399 181.155C161.334 181.483 164.297 184.456 168.319 183.928C172.341 183.4 174.384 180.693 174.384 180.693L173.134 170.458C173.134 170.458 169.709 172.109 167.596 172.043C165.482 171.978 163.112 170.524 163.112 170.524Z" fill="#FFC3BD"/>
<path d="M162.43 176.051L169.371 174.702L163.109 170.524L162.43 176.051Z" fill="#263238" stroke="#263238" stroke-miterlimit="10" stroke-linecap="round" stroke-linejoin="round"/>
<path d="M159.442 161.438C159.442 161.438 158.283 159.962 157.738 161.827C157.198 163.687 159.516 165.935 159.516 165.935L159.442 161.438Z" fill="#FFC3BD"/>
<path d="M176.082 161.438C176.082 161.438 177.241 159.962 177.786 161.827C178.33 163.691 176.008 165.935 176.008 165.935L176.082 161.438Z" fill="#FFC3BD"/>
<path d="M163.086 152.13C163.086 152.13 159.762 155.365 159.282 156.33C158.803 157.295 158.995 168.35 159.522 169.411C160.049 170.472 165.352 174.624 166.215 174.96C167.082 175.296 169.056 175.637 170.598 174.864C172.141 174.091 175.849 170.136 176.232 169.123C176.616 168.11 176.136 156.526 175.897 155.417C175.657 154.308 169.831 150.344 167.374 150.148C164.916 149.955 163.086 152.13 163.086 152.13Z" fill="#FFC3BD"/>
<path d="M164.828 167.926C164.828 167.926 165.822 169.005 167.647 169.005C169.473 169.005 170.963 167.677 170.963 167.677" fill="#FFC3BD"/>
<path d="M164.819 156.408C164.819 156.408 163.216 156.474 162.061 157.5C160.907 158.53 162.127 158.722 162.575 158.53C163.024 158.338 164.305 157.565 165.203 157.565C166.105 157.565 165.974 156.343 164.819 156.408Z" fill="#FFC3BD"/>
<path d="M169.936 155.767C169.936 155.767 171.539 155.832 172.694 156.858C173.849 157.889 172.629 158.081 172.18 157.889C171.731 157.697 170.45 156.924 169.553 156.924C168.651 156.919 168.781 155.701 169.936 155.767Z" fill="#FFC3BD"/>
<path d="M165.706 150.152C165.706 150.152 170.686 154.701 174.263 154.876C177.845 155.05 177.845 155.05 177.845 155.05C177.845 155.05 169.984 154.002 167.54 148.663C167.54 148.663 164.83 146.388 165.706 150.152Z" fill="#263238" stroke="#263238" stroke-miterlimit="10" stroke-linecap="round" stroke-linejoin="round"/>
<path d="M169.261 165.062C169.261 165.062 168.394 166.367 167.766 166.367C167.139 166.367 166.516 165.643 166.516 165.643" fill="#FFC3BD"/>
<path d="M166.259 161.578C166.259 162.42 165.832 163.102 165.309 163.102C164.786 163.102 164.359 162.42 164.359 161.578C164.359 160.735 164.786 160.054 165.309 160.054C165.832 160.054 166.259 160.735 166.259 161.578Z" fill="#FFC3BD"/>
<path d="M171.606 163.163C172.131 163.163 172.556 162.481 172.556 161.639C172.556 160.797 172.131 160.115 171.606 160.115C171.082 160.115 170.656 160.797 170.656 161.639C170.656 162.481 171.082 163.163 171.606 163.163Z" fill="#FFC3BD"/>
<path d="M276.938 171.003V114.91C276.938 111.097 273.853 108 270.041 108H214.896C211.091 108 208 111.091 208 114.91V171.003C208 174.816 211.085 177.913 214.896 177.913H250.506L276.931 189.145L264.637 177.913H270.041C273.853 177.906 276.938 174.816 276.938 171.003Z" fill="#A78BEF"/>
<path d="M272.144 173.176H211.883V115.645C211.883 113.547 213.582 111.838 215.682 111.838H268.351C270.445 111.838 272.15 113.541 272.15 115.645L272.144 173.176Z" fill="white" stroke="#263238" stroke-miterlimit="10" stroke-linecap="round" stroke-linejoin="round"/>
<path d="M272.144 119.854H211.883V115.645C211.883 113.547 213.582 111.838 215.682 111.838H268.351C270.445 111.838 272.15 113.541 272.15 115.645L272.144 119.854Z" fill="#E527BB"/>
<path d="M224.264 139.706H216.797V141.879H224.264V139.706Z" fill="#B0B0B0"/>
<path d="M224.264 147.583H216.797V149.757H224.264V147.583Z" fill="#B0B0B0"/>
<path d="M224.264 155.461H216.797V157.635H224.264V155.461Z" fill="#B0B0B0"/>
<path d="M224.264 163.25H216.797V165.424H224.264V163.25Z" fill="#B0B0B0"/>
<path d="M267.648 123.536H230.703V135.76H267.648V123.536Z" fill="#E527BB"/>
<path d="M265.879 138.927H231.523V156.139H265.879V138.927Z" stroke="#263238" stroke-miterlimit="10" stroke-linecap="round" stroke-linejoin="round"/>
<path d="M241.82 159.802H267.405" stroke="#263238" stroke-miterlimit="10" stroke-linecap="round" stroke-linejoin="round"/>
<path d="M231.125 159.802H240.084" stroke="#263238" stroke-miterlimit="10" stroke-linecap="round" stroke-linejoin="round"/>
<path d="M259.562 163.219H267.405" stroke="#263238" stroke-miterlimit="10" stroke-linecap="round" stroke-linejoin="round"/>
<path d="M239.391 163.219H257.302" stroke="#263238" stroke-miterlimit="10" stroke-linecap="round" stroke-linejoin="round"/>
<path d="M231.125 163.219H237.476" stroke="#263238" stroke-miterlimit="10" stroke-linecap="round" stroke-linejoin="round"/>
<path d="M247.734 166.643H267.408" stroke="#263238" stroke-miterlimit="10" stroke-linecap="round" stroke-linejoin="round"/>
<path d="M231.125 166.643H245.645" stroke="#263238" stroke-miterlimit="10" stroke-linecap="round" stroke-linejoin="round"/>
<path d="M260.438 170.06H267.409" stroke="#263238" stroke-miterlimit="10" stroke-linecap="round" stroke-linejoin="round"/>
<path d="M235.734 170.06H258.693" stroke="#263238" stroke-miterlimit="10" stroke-linecap="round" stroke-linejoin="round"/>
<path d="M231.125 170.06H233.821" stroke="#263238" stroke-miterlimit="10" stroke-linecap="round" stroke-linejoin="round"/>
<path d="M361.774 147.511H286.83C284.749 147.511 283.062 145.822 283.062 143.736V135.676C283.062 133.59 284.749 131.901 286.83 131.901H361.774C363.855 131.901 365.542 133.59 365.542 135.676V143.736C365.542 145.822 363.855 147.511 361.774 147.511Z" fill="#E527BB"/>
<path d="M294.969 134.219L296.336 138.44H300.769L297.183 141.054L298.555 145.275L294.969 142.668L291.383 145.275L292.75 141.054L289.164 138.44H293.596L294.969 134.219Z" fill="white" stroke="#263238" stroke-miterlimit="10" stroke-linecap="round" stroke-linejoin="round"/>
<path d="M309.743 134.219L311.11 138.44H315.542L311.956 141.054L313.329 145.275L309.743 142.668L306.151 145.275L307.524 141.054L303.938 138.44H308.37L309.743 134.219Z" fill="white" stroke="#263238" stroke-miterlimit="10" stroke-linecap="round" stroke-linejoin="round"/>
<path d="M324.518 134.219L325.891 138.44H330.323L326.737 141.054L328.104 145.275L324.518 142.668L320.932 145.275L322.305 141.054L318.719 138.44H323.151L324.518 134.219Z" fill="white" stroke="#263238" stroke-miterlimit="10" stroke-linecap="round" stroke-linejoin="round"/>
<path d="M339.29 134.219L340.663 138.44H345.095L341.509 141.054L342.876 145.275L339.29 142.668L335.704 145.275L337.07 141.054L333.484 138.44H337.923L339.29 134.219Z" fill="white" stroke="#263238" stroke-miterlimit="10" stroke-linecap="round" stroke-linejoin="round"/>
<path d="M354.071 134.219L355.438 138.44H359.87L356.284 141.054L357.657 145.275L354.071 142.668L350.485 145.275L351.852 141.054L348.266 138.44H352.698L354.071 134.219Z" fill="white" stroke="#263238" stroke-miterlimit="10" stroke-linecap="round" stroke-linejoin="round"/>
<path d="M177.974 98.4775C191.436 94.7059 199.288 80.7499 195.511 67.3058C191.734 53.8617 177.76 46.0205 164.297 49.7921C150.835 53.5636 142.983 67.5197 146.76 80.9638C150.537 94.4079 164.512 102.249 177.974 98.4775Z" fill="#007CFF"/>
<path d="M177.974 98.4775C191.436 94.7059 199.288 80.7499 195.511 67.3058C191.734 53.8617 177.76 46.0205 164.297 49.7921C150.835 53.5636 142.983 67.5197 146.76 80.9638C150.537 94.4079 164.512 102.249 177.974 98.4775Z" fill="#B21093"/>
<path d="M187.706 90.6331C197.593 80.7595 197.593 64.7512 187.706 54.8776C177.819 45.004 161.789 45.004 151.902 54.8776C142.015 64.7512 142.015 80.7595 151.902 90.6331C161.789 100.507 177.819 100.507 187.706 90.6331Z" fill="#E527BB"/>
<path d="M184.674 87.6086C192.889 79.4054 192.889 66.1054 184.674 57.9022C176.46 49.6989 163.142 49.6989 154.928 57.9021C146.714 66.1054 146.714 79.4054 154.928 87.6086C163.142 95.8118 176.46 95.8118 184.674 87.6086Z" fill="white"/>
<path d="M159.714 87.658L162.508 83.5247C162.59 83.5801 162.672 83.6333 162.754 83.6864L160.062 87.8863C159.945 87.8109 159.829 87.7356 159.714 87.658ZM154.137 81.6297C154.068 81.5079 153.999 81.386 153.935 81.2618L158.34 78.9126C158.387 78.999 158.434 79.0855 158.482 79.1697L154.137 81.6297ZM167.803 90.6367L168.351 85.6789L168.662 85.7099L168.207 90.6766C168.072 90.6655 167.936 90.65 167.803 90.6367ZM151.798 73.3431C151.794 73.2057 151.791 73.0683 151.789 72.9287L156.782 72.8799L156.789 73.1813L151.798 73.3431ZM176.347 89.5175L174.53 84.8722L174.812 84.7591L176.802 89.3335L176.685 89.3823C176.603 89.4177 176.476 89.4687 176.347 89.5175ZM153.587 64.9257C153.647 64.7994 153.709 64.6753 153.771 64.5534L158.218 66.8206C158.174 66.9093 158.129 66.9979 158.087 67.0866L153.587 64.9257ZM179.665 81.2552C179.727 81.1843 179.787 81.1134 179.847 81.0402L183.704 84.2095C183.613 84.3203 183.52 84.4289 183.427 84.5375L179.665 81.2552ZM162.053 62.3016L159.09 58.288L159.414 58.053L162.306 62.1177L162.053 62.3016ZM182.488 75.7189L182.555 75.422L187.439 76.4636C187.41 76.5966 187.382 76.7296 187.348 76.8625L182.488 75.7189ZM167.81 59.8992L167.04 54.9724C167.173 54.9525 167.306 54.9325 167.439 54.9148L168.121 59.8549L167.81 59.8992ZM182.419 69.4979C182.395 69.4048 182.37 69.3117 182.344 69.2186L187.146 67.849C187.184 67.9842 187.222 68.1216 187.257 68.2568L182.419 69.4979ZM174.015 60.4444L175.628 55.7237C175.764 55.7703 175.897 55.8168 176.032 55.8678L174.286 60.5397C174.195 60.5065 174.106 60.4754 174.015 60.4444ZM179.463 64.0215L179.261 63.802L182.885 60.3713C182.981 60.471 183.074 60.5729 183.167 60.6749L179.463 64.0215Z" fill="black"/>
<path d="M164.516 64.9456L169.536 73.5691L177.658 65.6791" stroke="black" stroke-miterlimit="10" stroke-linecap="round" stroke-linejoin="round"/>
<path d="M171.002 73.9614C170.43 74.613 169.438 74.6772 168.785 74.1077C168.133 73.5359 168.068 72.5452 168.639 71.8936C169.211 71.242 170.203 71.1777 170.856 71.7473C171.508 72.3191 171.573 73.3098 171.002 73.9614Z" fill="black"/>
<path opacity="0.3" d="M155.772 59.2321C164.108 51.1516 177.423 51.3488 185.515 59.6731C187.503 61.7188 188.983 64.0658 189.973 66.5613C189.034 63.4364 187.366 60.4799 184.933 57.9777C176.842 49.6534 163.526 49.4561 155.191 57.5367C148.904 63.6314 147.252 72.6937 150.291 80.351C148.109 73.0816 149.942 64.8836 155.772 59.2321Z" fill="black"/>
<path d="M244.147 145.881H241.242V153.747H244.147V145.881Z" fill="#A78BEF"/>
<path d="M248.397 144.004H245.492V153.75H248.397V144.004Z" fill="#E527BB"/>
<path d="M252.639 148.125H249.734V153.75H252.639V148.125Z" fill="#A78BEF"/>
<path d="M256.897 142.5H253.992V153.747H256.897V142.5Z" fill="#E527BB"/>
<path d="M240 141V153.75H258.225" stroke="#E527BB" stroke-miterlimit="10"/>
</g>
<path d="M415.578 156.223C424.734 156.223 432.156 148.786 432.156 139.612C432.156 130.437 424.734 123 415.578 123C406.422 123 399 130.437 399 139.612C399 148.786 406.422 156.223 415.578 156.223Z" fill="#E527BB"/>
<path d="M424.505 138.202C425.341 138.552 425.965 139.039 425.976 139.951C425.976 140.799 425.563 141.424 424.675 141.785C424.759 141.848 424.823 141.901 424.886 141.944C425.32 142.209 425.606 142.569 425.764 143.025C426.124 143.99 425.373 145.156 424.294 145.304C423.966 145.347 423.638 145.368 423.257 145.4C423.363 145.463 423.426 145.516 423.5 145.559C424.357 146.11 424.368 147.223 423.532 147.796C423.268 147.976 423.003 148.071 422.665 148.061C420.263 148.029 417.861 148.018 415.471 147.986C413.683 147.965 411.926 147.721 410.17 147.393C408.89 147.149 407.589 147.043 406.288 147.022C406.055 147.022 405.822 147 405.6 146.969C405.251 146.916 405.156 146.81 405.156 146.47C405.145 144.477 405.134 142.495 405.145 140.502C405.145 139.686 405.177 138.87 405.198 138.053C405.208 137.735 405.325 137.587 405.663 137.544C406.256 137.481 406.848 137.46 407.441 137.428C407.779 137.407 408.107 137.375 408.446 137.354C408.848 137.322 409.186 137.152 409.472 136.898C410.16 136.304 410.689 135.594 411.196 134.873C411.736 134.089 412.244 133.283 412.804 132.509C413.185 131.979 413.63 131.481 414.074 130.993C414.688 130.304 415.068 129.53 415.259 128.661C415.428 127.919 415.608 127.177 415.798 126.435C415.83 126.318 415.862 126.202 415.904 126.096C416.095 125.608 416.465 125.417 416.994 125.566C417.967 125.852 418.549 126.488 418.792 127.399C419.015 128.248 418.909 129.085 418.676 129.912C418.39 130.898 418.052 131.862 417.745 132.838C417.65 133.156 417.544 133.463 417.481 133.792C417.407 134.173 417.533 134.332 417.957 134.343C419.152 134.364 420.358 134.375 421.554 134.396C422.368 134.407 423.172 134.449 423.987 134.449C425.066 134.46 426.177 135.668 425.701 137.004C425.521 137.502 425.193 137.884 424.685 138.117C424.632 138.128 424.579 138.159 424.505 138.202Z" fill="white"/>
</g>
<defs>
<clipPath id="clip0_1632_6891">
<rect width="542.64" height="328.79" fill="white"/>
</clipPath>
<clipPath id="clip1_1632_6891">
<rect width="294" height="277" fill="white" transform="translate(124 46)"/>
</clipPath>
</defs>
</svg>
