<svg width="543" height="329" viewBox="0 0 543 329" fill="none" xmlns="http://www.w3.org/2000/svg">
<g clip-path="url(#clip0_1696_7166)">
<path opacity="0.2" d="M78.788 327.839C41.4882 290.535 -9.49424 252.012 10.4949 193.818C23.6478 155.541 55.8804 144.88 82.6859 121.276C95.9087 109.631 87.5932 92.6757 87.3433 75.8481C86.7836 32.7513 139.135 -0.687543 187.269 0.010739C239.401 0.768031 261.969 48.9102 305.705 51.4968C322.876 51.7426 338.257 42.4781 353.449 35.1314C398.465 13.3371 469.906 27.2339 473.514 79.9296C474.444 108.392 439.183 154.174 474.514 169.143C502.668 181.072 531.113 185.469 536.19 228.133C542.837 283.976 507.716 314.621 461.971 329L78.788 327.839Z" fill="#999999"/>
<g clip-path="url(#clip1_1696_7166)">
<path d="M178.831 155.487C178.789 155.137 178.741 154.786 178.699 154.431C178.683 154.319 178.668 154.213 178.652 154.102C179.178 153.544 179.641 152.928 180.025 152.254C180.13 152.233 180.235 152.212 180.341 152.19C180.683 152.116 181.03 152.042 181.372 151.973C181.714 151.898 183.413 151.718 183.434 151.633C183.56 151.171 183.623 150.683 183.665 150.2C183.686 149.95 183.702 149.695 183.718 149.446C183.728 149.217 183.776 148.963 183.734 148.74C183.734 148.734 183.723 148.729 183.723 148.724C183.728 148.718 183.734 148.713 183.739 148.708C183.823 148.495 183.828 148.235 183.855 148.007C183.886 147.757 183.918 147.508 183.944 147.258C183.991 146.781 184.018 146.287 183.986 145.809C183.981 145.724 182.345 145.22 182.024 145.087C181.703 144.949 181.377 144.811 181.056 144.678C180.903 144.615 180.756 144.556 180.604 144.493C180.54 144.466 180.467 144.434 180.393 144.408C180.183 143.903 179.935 143.404 179.662 142.921C179.736 142.831 179.767 142.693 179.799 142.587C179.851 142.433 179.904 142.279 179.957 142.119C180.067 141.785 180.172 141.445 180.283 141.111C180.393 140.776 181.088 139.2 181.024 139.136C180.688 138.796 180.304 138.493 179.914 138.217C179.709 138.074 179.504 137.931 179.294 137.793C179.104 137.671 178.904 137.501 178.694 137.426C178.689 137.426 178.678 137.426 178.673 137.426C178.668 137.421 178.673 137.41 178.668 137.405C178.526 137.23 178.305 137.092 178.126 136.954C177.926 136.8 177.726 136.651 177.526 136.503C177.142 136.221 176.732 135.951 176.3 135.743C176.221 135.706 174.975 136.885 174.696 137.097C174.417 137.31 174.138 137.522 173.859 137.74C173.77 137.809 173.681 137.878 173.591 137.952C173.454 137.904 173.318 137.856 173.181 137.814C172.607 137.639 171.966 137.596 171.308 137.644C171.245 137.57 171.182 137.495 171.119 137.426C170.887 137.161 170.65 136.901 170.414 136.635C170.182 136.375 169.172 134.979 169.093 135C168.636 135.122 168.178 135.308 167.747 135.515C167.52 135.621 167.294 135.733 167.073 135.844C166.873 135.945 166.631 136.035 166.458 136.184C166.452 136.189 166.452 136.195 166.447 136.205C166.442 136.205 166.437 136.2 166.426 136.2C166.205 136.232 165.974 136.359 165.768 136.444C165.537 136.54 165.306 136.641 165.079 136.742C164.643 136.938 164.211 137.161 163.817 137.432C163.748 137.479 164.132 139.162 164.18 139.513C164.222 139.863 164.269 140.214 164.311 140.564C164.322 140.644 164.332 140.723 164.343 140.803C163.833 141.387 163.417 142.035 163.07 142.719C162.933 142.746 162.801 142.772 162.665 142.799C162.312 142.873 161.97 142.948 161.628 143.017C161.286 143.091 159.587 143.271 159.566 143.356C159.44 143.818 159.377 144.307 159.335 144.79C159.314 145.039 159.298 145.294 159.282 145.544C159.272 145.772 159.224 146.027 159.266 146.25C159.266 146.255 159.277 146.26 159.277 146.266C159.272 146.271 159.266 146.276 159.261 146.282C159.177 146.494 159.172 146.754 159.145 146.982C159.108 147.232 159.082 147.481 159.056 147.731C159.009 148.209 158.982 148.702 159.014 149.18C159.019 149.265 160.655 149.77 160.976 149.902C161.297 150.04 161.623 150.178 161.944 150.316C161.981 150.332 162.018 150.348 162.049 150.359C162.107 150.677 162.16 150.9 162.212 150.959C162.444 151.543 162.754 152.105 163.122 152.631C163.096 152.711 163.065 152.79 163.038 152.875C162.928 153.21 162.823 153.549 162.712 153.884C162.602 154.218 161.907 155.795 161.97 155.859C162.307 156.199 162.691 156.501 163.08 156.777C163.285 156.921 163.491 157.064 163.701 157.202C163.89 157.324 164.09 157.494 164.301 157.568C164.306 157.568 164.317 157.568 164.322 157.568C164.327 157.574 164.322 157.584 164.327 157.59C164.469 157.77 164.69 157.903 164.869 158.041C165.069 158.195 165.269 158.349 165.469 158.492C165.853 158.773 166.263 159.044 166.694 159.251C166.773 159.288 168.02 158.11 168.299 157.897C168.578 157.685 168.857 157.473 169.135 157.255C169.267 157.154 169.393 157.053 169.519 156.952C169.577 156.905 169.651 156.857 169.714 156.799C170.266 156.91 170.824 156.974 171.387 156.995C171.44 157.069 171.503 157.138 171.555 157.202C171.66 157.324 171.771 157.451 171.876 157.574C172.108 157.839 172.344 158.099 172.581 158.365C172.813 158.625 173.823 160.021 173.901 160C174.359 159.878 174.817 159.692 175.248 159.485C175.474 159.379 175.701 159.267 175.922 159.156C176.122 159.055 176.363 158.965 176.537 158.816C176.542 158.811 176.542 158.8 176.548 158.795C176.553 158.795 176.558 158.8 176.569 158.8C176.79 158.763 177.021 158.641 177.226 158.556C177.458 158.46 177.689 158.359 177.915 158.258C178.352 158.062 178.783 157.839 179.178 157.568C179.262 157.521 178.873 155.838 178.831 155.487ZM172.25 151.399C170.861 151.596 169.451 151.091 168.446 150.115C168.099 149.775 167.831 149.366 167.657 148.931C167.568 148.83 167.426 147.487 167.531 147.104C167.694 145.915 168.204 144.79 169.241 144.1C169.504 143.924 171.14 143.155 172.197 143.484C173.133 143.776 173.917 144.179 174.496 144.986C175.353 146.191 175.869 147.646 175.238 149.079C174.691 150.306 173.581 151.208 172.25 151.399Z" fill="#E527BB"/>
<path d="M229.72 192.496H162.411C161.234 192.496 160.281 191.543 160.281 190.366V152.151C160.281 150.974 161.234 150.021 162.411 150.021H229.72C230.897 150.021 231.85 150.974 231.85 152.151V190.36C231.85 191.543 230.897 192.496 229.72 192.496Z" fill="#007CFF"/>
<path d="M229.72 192.496H162.411C161.234 192.496 160.281 191.543 160.281 190.366V152.151C160.281 150.974 161.234 150.021 162.411 150.021H229.72C230.897 150.021 231.85 150.974 231.85 152.151V190.36C231.85 191.543 230.897 192.496 229.72 192.496Z" fill="#F0F0F0"/>
<path d="M171.043 173.615C171.355 173.334 179.731 165.063 179.731 165.063L187.991 169.131L196.064 159.631L204.325 171.537L212.382 166.277" stroke="#1A2E35" stroke-width="0.5" stroke-miterlimit="10"/>
<path d="M173.631 177.339H169.756V185.923H173.631V177.339Z" fill="#E527BB"/>
<path d="M181.606 171.667H177.73V185.923H181.606V171.667Z" fill="#007CFF"/>
<path d="M189.731 173.1H185.855V185.923H189.731V173.1Z" fill="#E527BB"/>
<path d="M198.006 165.063H194.131V185.918H198.006V165.063Z" fill="#007CFF"/>
<path d="M206.367 176.121H202.492V185.918H206.367V176.121Z" fill="#E527BB"/>
<path d="M173.772 172.641C173.772 173.793 172.84 174.725 171.689 174.725C170.538 174.725 169.605 173.793 169.605 172.641C169.605 171.49 170.538 170.558 171.689 170.558C172.84 170.558 173.772 171.49 173.772 172.641Z" fill="#E527BB"/>
<path d="M181.745 165.063C181.745 166.214 180.813 167.146 179.661 167.146C178.51 167.146 177.578 166.214 177.578 165.063C177.578 163.912 178.51 162.98 179.661 162.98C180.818 162.98 181.745 163.912 181.745 165.063Z" fill="#E527BB"/>
<path d="M190.075 168.48C190.075 169.631 189.143 170.563 187.992 170.563C186.841 170.563 185.908 169.631 185.908 168.48C185.908 167.329 186.841 166.396 187.992 166.396C189.143 166.396 190.075 167.329 190.075 168.48Z" fill="#E527BB"/>
<path d="M198.147 159.626C198.147 160.777 197.215 161.709 196.064 161.709C194.913 161.709 193.98 160.777 193.98 159.626C193.98 158.475 194.913 157.542 196.064 157.542C197.215 157.547 198.147 158.48 198.147 159.626Z" fill="#E527BB"/>
<path d="M206.409 171.532C206.409 172.683 205.477 173.615 204.326 173.615C203.174 173.615 202.242 172.683 202.242 171.532C202.242 170.381 203.174 169.449 204.326 169.449C205.477 169.454 206.409 170.381 206.409 171.532Z" fill="#E527BB"/>
<path d="M214.643 171.209H210.768V185.918H214.643V171.209Z" fill="#007CFF"/>
<path d="M181.606 171.667H177.73V185.923H181.606V171.667Z" fill="#E527BB"/>
<path d="M198.006 165.063H194.131V185.918H198.006V165.063Z" fill="#E527BB"/>
<path d="M214.643 171.209H210.768V185.918H214.643V171.209Z" fill="#E527BB"/>
<path d="M223.215 176.121H219.34V185.918H223.215V176.121Z" fill="#E527BB"/>
<path d="M212.387 166.272L221.272 171.209" stroke="#1A2E35" stroke-width="0.5" stroke-miterlimit="10"/>
<path d="M214.928 166.272C214.928 167.423 213.996 168.355 212.845 168.355C211.694 168.355 210.762 167.423 210.762 166.272C210.762 165.121 211.694 164.188 212.845 164.188C214.001 164.193 214.928 165.126 214.928 166.272Z" fill="#E527BB"/>
<path d="M221.273 173.292C222.423 173.292 223.356 172.36 223.356 171.209C223.356 170.058 222.423 169.126 221.273 169.126C220.122 169.126 219.189 170.058 219.189 171.209C219.189 172.36 220.122 173.292 221.273 173.292Z" fill="#E527BB"/>
<path d="M305.235 157.537C305.235 157.537 303.736 161.536 303.736 163.7C303.736 165.864 303.736 169.367 303.239 171.034C302.742 172.701 299.576 172.036 299.745 173.703C299.913 175.371 302.911 177.535 302.911 177.535C302.911 177.535 303.744 184.363 305.412 184.532C307.079 184.7 310.91 183.37 310.91 183.37L311.407 189.533L322.404 186.864C322.404 186.864 322.74 180.869 324.736 179.202C326.732 177.535 332.23 171.371 327.902 161.873C323.557 152.375 308.064 150.211 305.235 157.537Z" fill="#FF977D"/>
<path d="M313.891 171.034C313.891 171.034 314.725 174.2 313.891 176.533C313.058 178.865 312.712 180.65 314.06 180.364C316.03 179.943 315.895 174.697 315.895 172.87C315.895 171.034 315.39 169.695 313.891 171.034Z" fill="#FF977D"/>
<path d="M307.441 152.821C307.441 152.821 304.073 148.864 302.313 152.383C300.553 155.903 301.875 160.585 303.635 161.907C305.395 163.229 306.708 163.077 306.708 163.077C306.708 163.077 306.27 165.713 308.611 169.232C310.952 172.752 313.007 173.771 313.007 173.771C313.007 173.771 315.642 179.042 322.092 179.042C328.542 179.042 333.965 174.79 335.43 167.321C336.895 159.852 333.67 150.91 327.228 148.274C320.77 145.639 310.952 144.763 307.441 152.821Z" fill="#161C31" stroke="#161C31" stroke-miterlimit="10" stroke-linecap="round" stroke-linejoin="round"/>
<path d="M331.177 150.186C331.177 150.186 325.612 151.061 323.852 155.171C322.092 159.271 322.976 166.597 327.658 170.116C332.348 173.636 343.479 172.609 345.534 164.256C347.588 155.903 339.084 150.632 336.886 150.632C334.689 150.632 333.08 151.221 333.08 151.221C333.08 151.221 337.914 150.051 336.743 149.167C335.573 148.283 331.177 150.186 331.177 150.186Z" fill="#161C31" stroke="#161C31" stroke-miterlimit="10" stroke-linecap="round" stroke-linejoin="round"/>
<path d="M291.022 325.225C290.028 325.225 289.22 324.426 289.212 323.432L288.227 237.916H293.826L292.841 323.432C292.816 324.426 292.007 325.225 291.022 325.225Z" fill="#D68B6E"/>
<path d="M293.742 244.526L293.818 237.916H288.219L288.295 244.526H293.742Z" fill="#161C31" stroke="#161C31" stroke-miterlimit="10" stroke-linecap="round" stroke-linejoin="round"/>
<path d="M266.755 281.844L258.242 310.28C258.242 310.28 251.371 313.404 248.871 314.027C246.37 314.65 240.442 314.027 241.065 316.056C241.688 318.085 250.9 320.898 252.929 321.521C254.959 322.144 259.329 324.333 260.272 323.861C261.206 323.39 264.49 312.62 265.113 311.054C265.736 309.497 287.907 262.958 288.227 262.023C288.538 261.089 273.475 258.731 273.475 258.731L266.755 281.844Z" fill="#FF977D"/>
<path d="M241.073 316.056C241.696 318.085 250.908 320.898 252.937 321.521C254.966 322.144 259.336 324.333 260.28 323.861C260.751 323.626 261.829 320.746 262.856 317.757C260.776 317.226 258.09 317.108 255.126 316.991C251.219 316.831 248.415 316.056 248.415 316.056L248.887 314.027C246.378 314.65 240.45 314.027 241.073 316.056Z" fill="#A78BEF"/>
<path d="M314.919 306.012H317.395V282.149H314.919V306.012Z" fill="#BC0F9C"/>
<path d="M313.014 306.987V302.971H319.304V307.03L344.455 317.117V321.883H342.737V318.262L316.07 312.191L290.111 318.262V321.883H288.443V317.117L313.014 306.987Z" fill="#E527BB"/>
<path d="M309.969 285.781H322.355V278.16H309.969V285.781Z" fill="#BC0F9C"/>
<path d="M341.189 323.592C341.189 322.119 342.385 320.923 343.859 320.923C345.332 320.923 346.528 322.119 346.528 323.592C346.528 325.066 345.332 326.261 343.859 326.261C342.385 326.261 341.189 325.066 341.189 323.592Z" fill="#E527BB"/>
<path d="M342.713 323.592C342.713 322.961 343.227 322.447 343.858 322.447C344.49 322.447 345.003 322.961 345.003 323.592C345.003 324.224 344.49 324.737 343.858 324.737C343.227 324.737 342.713 324.224 342.713 323.592Z" fill="white" stroke="#161C31" stroke-miterlimit="10" stroke-linecap="round" stroke-linejoin="round"/>
<path d="M313.588 326.691C313.588 325.217 314.784 324.021 316.257 324.021C317.731 324.021 318.926 325.217 318.926 326.691C318.926 328.164 317.731 329.36 316.257 329.36C314.784 329.36 313.588 328.164 313.588 326.691Z" fill="#E527BB"/>
<path d="M315.111 326.691C315.111 326.059 315.625 325.546 316.256 325.546C316.888 325.546 317.402 326.059 317.402 326.691C317.402 327.322 316.888 327.836 316.256 327.836C315.625 327.836 315.111 327.322 315.111 326.691Z" fill="white" stroke="#161C31" stroke-miterlimit="10" stroke-linecap="round" stroke-linejoin="round"/>
<path d="M282.912 322.068C282.912 320.595 284.108 319.399 285.581 319.399C287.055 319.399 288.251 320.595 288.251 322.068C288.251 323.542 287.055 324.737 285.581 324.737C284.108 324.737 282.912 323.542 282.912 322.068Z" fill="#E527BB"/>
<path d="M284.436 322.068C284.436 321.437 284.949 320.923 285.581 320.923C286.212 320.923 286.726 321.437 286.726 322.068C286.726 322.7 286.212 323.213 285.581 323.213C284.949 323.213 284.436 322.7 284.436 322.068Z" fill="white" stroke="#161C31" stroke-miterlimit="10" stroke-linecap="round" stroke-linejoin="round"/>
<path d="M315.019 322.018H317.116L318.16 307.729H313.967L315.019 322.018Z" fill="#E527BB"/>
<path d="M315.114 324.876H317.211V318.974H315.114V324.876Z" fill="#E527BB"/>
<path d="M137.225 325.225C136.232 325.225 135.423 324.426 135.415 323.432L134.43 237.916H140.029L139.044 323.432C139.027 324.426 138.219 325.225 137.225 325.225Z" fill="#D68B6E"/>
<path d="M139.945 244.526L140.021 237.916H134.43L134.505 244.526H139.945Z" fill="#161C31" stroke="#161C31" stroke-miterlimit="10" stroke-linecap="round" stroke-linejoin="round"/>
<path d="M193.735 325.225C192.741 325.225 191.933 324.426 191.925 323.432L190.939 237.916H196.539L195.554 323.432C195.537 324.426 194.729 325.225 193.735 325.225Z" fill="#D68B6E"/>
<path d="M196.453 244.526L196.529 237.916H190.93L191.005 244.526H196.453Z" fill="#161C31" stroke="#161C31" stroke-miterlimit="10" stroke-linecap="round" stroke-linejoin="round"/>
<path d="M234.774 325.225C233.78 325.225 232.972 324.426 232.964 323.432L231.979 237.916H237.578L236.593 323.432C236.576 324.426 235.768 325.225 234.774 325.225Z" fill="#D68B6E"/>
<path d="M237.502 244.526L237.578 237.916H231.979L232.054 244.526H237.502Z" fill="#161C31" stroke="#161C31" stroke-miterlimit="10" stroke-linecap="round" stroke-linejoin="round"/>
<path d="M299.771 234.068H131.652V239.238H299.771V234.068Z" fill="#F7CAB9"/>
<path d="M302.448 231.045H128.982V234.279H302.448V231.045Z" fill="#F7CAB9"/>
<path d="M301.244 234.068H225.715V239.238H301.244V234.068Z" fill="#E89F89"/>
<path d="M302.447 231.045H224.518V234.279H302.447V231.045Z" fill="#E89F89"/>
<path d="M257.577 205.128H223.66L231.003 230.961H264.919L257.577 205.128Z" fill="#E527BB"/>
<path d="M256.053 206.61H226.018L232.526 229.487H262.561L256.053 206.61Z" fill="#A78BEF"/>
<path d="M273.213 229.378H231.053V230.961H273.213V229.378Z" fill="#E527BB"/>
<path d="M302.709 222.094L290.255 215.863C290.255 215.863 288.824 213.135 288.049 211.973C287.274 210.811 285.068 210.416 285.068 210.416C285.068 210.416 282.736 208.732 281.827 209.245C280.917 209.767 277.288 214.693 276.505 215.476C275.73 216.251 276.244 216.512 276.766 217.682C277.288 218.853 278.45 218.853 278.324 217.682C278.197 216.512 277.936 215.863 277.936 215.863C277.936 215.863 280.917 213.135 281.313 213.135C281.7 213.135 282.61 214.432 282.483 214.954C282.357 215.476 280.277 218.07 281.313 218.979C282.349 219.888 288.967 220.537 288.967 220.537C288.967 220.537 301.42 230.658 302.465 231.045C303.5 231.432 304.932 230.27 304.932 230.27L302.709 222.094Z" fill="#FF977D"/>
<path d="M283.368 215.215C283.368 215.215 280.253 215.863 279.082 215.863C277.912 215.863 273.895 214.828 273.5 215.863C273.112 216.899 274.409 218.07 275.579 218.457C276.75 218.844 279.343 218.196 279.343 218.196C279.343 218.196 282.071 219.627 284.53 219.88C286.997 220.141 288.033 219.232 288.033 219.232" fill="#FF977D"/>
<path d="M332.727 267.808C332.18 270.418 330.117 270.284 330.117 270.284H277.103L284.95 286.535L297.48 310.768C297.48 310.768 300.78 313.791 301.471 314.759C302.161 315.728 302.574 317.109 301.201 317.791C299.821 318.473 292.739 323.23 291.148 323.71C287.131 324.923 281.784 325.083 280.269 325.226C278.753 325.369 279.3 324.4 281.784 323.02C284.26 321.647 290.92 313.555 290.92 313.555C290.92 313.555 269.937 285.019 265.668 279.512C261.399 274.005 252.179 261.88 257.138 259.127C259.277 257.931 266.838 256.306 274.737 254.849C285.127 252.921 296.107 251.279 296.107 251.279L304.233 236.678L329.157 235.441C329.148 235.449 333.274 265.189 332.727 267.808Z" fill="#FF977D"/>
<path d="M277.094 270.284L266.35 268.221" stroke="#161C31" stroke-miterlimit="10" stroke-linecap="round" stroke-linejoin="round"/>
<path d="M332.727 267.808C332.18 270.418 330.117 270.284 330.117 270.284H277.305C273.988 268.052 272.969 265.046 272.969 260.642C272.969 258.057 273.828 256.138 274.729 254.849C285.119 252.921 296.099 251.279 296.099 251.279L304.225 236.678L329.149 235.441C329.149 235.449 333.275 265.189 332.727 267.808Z" fill="#161C31" stroke="#161C31" stroke-miterlimit="10" stroke-linecap="round" stroke-linejoin="round"/>
<path d="M301.194 317.799C302.574 317.117 302.162 315.736 301.463 314.768C301.185 314.38 300.495 313.665 299.762 312.949C296.217 315.702 288.546 321.31 288.546 321.31L284.319 320.915C283.317 321.9 282.416 322.683 281.785 323.036C279.301 324.417 278.754 325.386 280.269 325.243C281.785 325.099 287.132 324.948 291.148 323.727C292.731 323.239 299.813 318.481 301.194 317.799Z" fill="#A78BEF"/>
<path d="M308.628 196.48C308.628 196.48 301.471 214.381 301.471 217.27C301.471 220.158 303.946 230.212 303.946 230.212C303.946 230.212 301.883 236.821 303.399 237.512C304.915 238.202 327.776 236.965 329.013 236.274C330.251 235.584 331.076 232.14 330.807 230.355C330.529 228.561 328.803 209.969 326.403 201.709C324.003 193.449 323.372 192.346 323.372 192.346L308.628 196.48Z" fill="#A78BEF"/>
<path d="M322.539 184.683L306.119 190.805C305.656 190.982 305.378 191.453 305.471 191.942L306.624 198.568C306.734 199.2 307.391 199.579 307.989 199.351L323.987 193.449C324.425 193.289 324.703 192.842 324.652 192.379L323.911 185.534C323.844 184.869 323.17 184.448 322.539 184.683Z" fill="#A78BEF"/>
<path d="M306.699 190.552C306.699 190.552 305.049 196.472 304.358 201.844C303.668 207.216 300.502 224.562 300.502 224.562L304.906 225.109C304.906 225.109 310 191.1 311.65 188.203C311.659 188.212 309.04 188.624 306.699 190.552Z" fill="#A78BEF"/>
<path d="M251.623 221.674C251.623 221.674 251.076 225.808 252.17 225.252C253.265 224.696 254.099 222.221 254.099 222.221L255.48 221.674C255.48 221.674 254.377 223.467 255.067 224.014C255.757 224.562 256.305 223.88 256.861 222.499C257.408 221.118 257.408 220.436 257.408 220.436C257.408 220.436 253.13 220.714 251.623 221.674Z" fill="#FF977D"/>
<path d="M318.817 201.709C318.817 201.709 313.588 200.884 311.104 202.4C308.629 203.915 288.799 223.189 288.799 223.189L266.906 219.888C266.906 219.888 263.328 216.722 261.256 215.485C259.193 214.247 257.122 215.35 257.122 215.35L255.884 216.31C255.884 216.31 254.781 215.35 254.091 216.175C253.4 217 251.615 219.341 251.615 219.341C251.615 219.341 249.552 219.754 247.624 219.754C245.696 219.754 246.243 220.714 247.489 221.404C248.727 222.094 254.099 222.229 254.099 222.229C254.099 222.229 258.09 223.88 259.749 224.023C261.408 224.166 264.843 224.57 264.843 224.57C264.843 224.57 290.458 233.386 291.696 233.386C292.933 233.386 293.211 233.386 294.036 232.839C294.862 232.291 316.485 215.485 316.485 215.485" fill="#A78BEF"/>
<path d="M282.097 222.179L266.906 219.888C266.906 219.888 263.328 216.722 261.256 215.485C259.193 214.247 257.122 215.35 257.122 215.35L255.884 216.31C255.884 216.31 254.781 215.35 254.091 216.175C253.4 217 251.615 219.341 251.615 219.341C251.615 219.341 249.552 219.754 247.624 219.754C245.696 219.754 246.243 220.714 247.489 221.404C248.736 222.094 254.099 222.229 254.099 222.229C254.099 222.229 258.09 223.88 259.749 224.023C261.408 224.166 264.843 224.57 264.843 224.57C264.843 224.57 272.489 227.197 279.629 229.588C279.958 226.052 281.036 223.686 282.097 222.179Z" fill="#FF977D"/>
<path d="M251.623 219.333H255.058" stroke="#161C31" stroke-miterlimit="10" stroke-linecap="round" stroke-linejoin="round"/>
<path d="M340.684 280.059H288.385C286.988 280.059 285.859 278.931 285.859 277.533V272.633C285.859 271.235 286.988 270.107 288.385 270.107H340.684C342.081 270.107 343.21 271.235 343.21 272.633V277.533C343.21 278.931 342.081 280.059 340.684 280.059Z" fill="#E527BB"/>
<path d="M340.684 280.059H309.673C308.275 280.059 307.146 278.931 307.146 277.533V272.633C307.146 271.235 308.275 270.107 309.673 270.107H340.684C342.082 270.107 343.21 271.235 343.21 272.633V277.533C343.21 278.931 342.082 280.059 340.684 280.059Z" fill="#E527BB"/>
<path d="M305.092 270.107C305.092 270.107 307.508 237.402 315.407 222.078H350.005C350.005 222.078 337.998 243.726 336.735 270.107H305.092Z" fill="#E527BB"/>
<path d="M309.361 270.107C309.361 270.107 311.778 237.402 319.676 222.078H354.275C354.275 222.078 342.268 243.726 341.005 270.107H309.361Z" fill="#BC0F9C"/>
<path d="M296.309 121.381C307.241 110.45 307.241 92.7257 296.309 81.7939C285.377 70.8621 267.653 70.8621 256.722 81.7939C245.79 92.7257 245.79 110.45 256.722 121.381C267.653 132.313 285.377 132.313 296.309 121.381Z" fill="#E527BB"/>
<path d="M292.364 117.438C301.118 108.684 301.118 94.4911 292.364 85.737C283.61 76.983 269.417 76.983 260.663 85.737C251.909 94.4911 251.909 108.684 260.663 117.438C269.417 126.192 283.61 126.192 292.364 117.438Z" fill="white" stroke="#161C31" stroke-miterlimit="10" stroke-linecap="round" stroke-linejoin="round"/>
<path d="M286.667 111.739C292.273 106.133 292.273 97.0427 286.667 91.4363C281.061 85.8298 271.971 85.8298 266.364 91.4363C260.758 97.0427 260.758 106.133 266.364 111.739C271.971 117.345 281.061 117.345 286.667 111.739Z" fill="#E527BB"/>
<path d="M282.251 107.324C285.419 104.156 285.419 99.0196 282.251 95.8517C279.083 92.6838 273.947 92.6838 270.779 95.8517C267.611 99.0196 267.611 104.156 270.779 107.324C273.947 110.491 279.083 110.491 282.251 107.324Z" fill="white" stroke="#161C31" stroke-miterlimit="10" stroke-linecap="round" stroke-linejoin="round"/>
<path d="M279.945 101.585C279.945 99.6914 278.415 98.1611 276.521 98.1611C274.628 98.1611 273.098 99.6914 273.098 101.585C273.098 103.478 274.628 105.009 276.521 105.009C278.408 105.015 279.945 103.478 279.945 101.585Z" fill="#A78BEF"/>
<path d="M275.841 102.266H238.193V100.911H275.841C276.218 100.911 276.522 101.215 276.522 101.591C276.516 101.961 276.211 102.266 275.841 102.266Z" fill="#A78BEF"/>
<path d="M234.84 96.7607L235.054 97.0007L238.984 100.904H227.215L223 96.7607H234.84Z" fill="#A78BEF"/>
<path d="M223 106.254L227.215 102.253H238.99C237.46 103.4 236.066 104.762 234.808 106.254H223Z" fill="#A78BEF"/>
<path d="M378.392 110.055L362.196 82L346 110.055H352.46V131.063H371.937V110.055H378.392Z" fill="#E527BB"/>
<path d="M387.004 116.73H380.934V130.791H387.004V116.73Z" fill="#A78BEF"/>
<path d="M395.123 109.547H389.053V130.791H395.123V109.547Z" fill="#A78BEF"/>
<path d="M403.358 100.929H397.287V131.237H403.358V100.929Z" fill="#E527BB"/>
<path d="M411.371 94.2373H405.301V130.791H411.371V94.2373Z" fill="#E527BB"/>
<path d="M358.124 150H382.876C384.596 150 386 151.426 386 153.174V167.821C386 169.569 384.596 170.995 382.876 170.995H364.542L356.604 177L358.314 170.995H358.124C356.404 170.995 355 169.569 355 167.821V153.174C355 151.426 356.404 150 358.124 150Z" fill="#A78BEF"/>
<path d="M374.326 160.872C374.326 160.203 374.867 159.662 375.536 159.662C376.205 159.662 376.746 160.203 376.746 160.872C376.746 161.541 376.205 162.082 375.536 162.082C374.867 162.082 374.326 161.541 374.326 160.872Z" fill="white"/>
<path d="M368.902 160.872C368.902 160.203 369.444 159.662 370.112 159.662C370.781 159.662 371.322 160.203 371.322 160.872C371.322 161.541 370.781 162.082 370.112 162.082C369.444 162.082 368.902 161.541 368.902 160.872Z" fill="white"/>
<path d="M363.479 160.872C363.479 160.203 364.02 159.662 364.689 159.662C365.357 159.662 365.899 160.203 365.899 160.872C365.899 161.541 365.357 162.082 364.689 162.082C364.02 162.082 363.479 161.541 363.479 160.872Z" fill="white"/>
<path d="M384.14 276.924C384.14 276.924 383.225 279.436 381.288 279.777C379.346 280.118 375.92 276.351 378.09 274.409C380.261 272.471 383.229 275.552 384.14 276.924Z" fill="#49B85A"/>
<path d="M387.107 264.592C387.107 264.592 384.254 271.557 385.394 274.983C386.537 278.409 393.614 280.92 395.668 276.467C397.722 272.014 393.156 265.736 391.443 264.364C389.734 262.996 387.676 263.453 387.107 264.592Z" fill="#39B039"/>
<path d="M403.777 267.561C403.777 267.561 398.866 272.014 398.297 276.467C397.727 280.92 401.037 282.516 404.463 281.947C407.889 281.377 409.602 272.7 408.575 268.704C407.544 264.709 403.777 267.561 403.777 267.561Z" fill="#39B039"/>
<path d="M404.691 292.221C404.691 292.221 399.211 292.45 398.983 295.073C398.754 297.701 401.382 298.271 404.005 295.988C406.633 293.705 406.974 292.337 404.691 292.221Z" fill="#49B85A"/>
<path d="M399.074 295.703C399.074 295.703 403.395 293.725 405.336 293.384" stroke="#161C31" stroke-miterlimit="10" stroke-linecap="round" stroke-linejoin="round"/>
<path d="M391.104 297.701C391.104 297.701 390.534 300.441 388.476 301.468C386.422 302.495 382.768 300.324 384.709 297.015C386.651 293.705 390.077 296.333 391.104 297.701Z" fill="#49B85A"/>
<path d="M386.309 289.14C386.309 289.14 385.282 286.857 381.287 288.341C377.291 289.826 375.694 292.108 378.206 292.907C380.713 293.705 386.309 289.14 386.309 289.14Z" fill="#49B85A"/>
<path d="M385.543 289.035C385.543 289.035 381.31 289.493 379.02 291.438" stroke="#161C31" stroke-miterlimit="10" stroke-linecap="round" stroke-linejoin="round"/>
<path d="M397.727 261.74C397.727 261.74 398.413 263.337 399.781 262.996C401.153 262.655 401.494 260.597 403.664 261.17C405.834 261.74 407.659 264.251 407.659 263.112C407.659 261.969 404.92 259 401.839 259C398.754 259 397.839 260.256 397.727 261.74Z" fill="#49B85A"/>
<path d="M394.98 307.473C394.98 307.473 395.493 297.921 394.98 291.948C394.466 285.979 392.079 278.982 392.079 278.982L389.207 266.153" stroke="#161C31" stroke-miterlimit="10" stroke-linecap="round" stroke-linejoin="round"/>
<path d="M396.174 307.473C396.174 307.473 396.346 299.626 397.028 294.507C397.71 289.388 400.438 281.373 400.438 281.373L405.565 270.389" stroke="#161C31" stroke-miterlimit="10" stroke-linecap="round" stroke-linejoin="round"/>
<path d="M399.075 295.703C399.075 295.703 397.879 296.044 397.197 307.646" stroke="#161C31" stroke-miterlimit="10" stroke-linecap="round" stroke-linejoin="round"/>
<path d="M393.273 307.301C393.273 307.301 393.614 301.159 392.932 298.94C392.251 296.722 391.107 297.701 391.107 297.701C391.107 297.701 387.95 298.074 386.807 299.903" stroke="#161C31" stroke-miterlimit="10" stroke-linecap="round" stroke-linejoin="round"/>
<path d="M394.057 296.602C394.947 301.604 394.125 307.132 394.125 307.132" stroke="#161C31" stroke-miterlimit="10" stroke-linecap="round" stroke-linejoin="round"/>
<path d="M386.311 289.14C386.311 289.14 391.225 288.197 393.275 293.657C393.475 294.194 393.644 294.752 393.788 295.326" stroke="#161C31" stroke-miterlimit="10" stroke-linecap="round" stroke-linejoin="round"/>
<path d="M406.824 283.852C406.824 283.852 407.851 281.57 411.847 283.054C415.842 284.538 417.439 286.821 414.928 287.619C412.421 288.418 406.824 283.852 406.824 283.852Z" fill="#49B85A"/>
<path d="M407.74 284.001C407.74 284.001 411.86 283.772 413.802 286.175" stroke="#161C31" stroke-miterlimit="10" stroke-linecap="round" stroke-linejoin="round"/>
<path d="M402.456 284.851C401.469 285.529 400.518 286.62 399.864 288.366C397.818 293.825 398.051 307.301 398.051 307.301" stroke="#161C31" stroke-miterlimit="10" stroke-linecap="round" stroke-linejoin="round"/>
<path d="M406.826 283.852C406.826 283.852 405.197 283.54 403.424 284.318" stroke="#161C31" stroke-miterlimit="10" stroke-linecap="round" stroke-linejoin="round"/>
<path d="M389.521 280.406C390.589 281.658 391.624 283.351 392.418 285.637C395.146 293.484 396.173 303.55 395.659 307.305" stroke="#161C31" stroke-miterlimit="10" stroke-linecap="round" stroke-linejoin="round"/>
<path d="M388.93 279.757C386.519 277.297 384.14 276.924 384.14 276.924C384.14 276.924 380.626 275.994 379.254 277.253" stroke="#161C31" stroke-miterlimit="10" stroke-linecap="round" stroke-linejoin="round"/>
<path d="M396.455 287.752C396.29 297.657 396.17 307.473 396.17 307.473" stroke="#161C31" stroke-miterlimit="10" stroke-linecap="round" stroke-linejoin="round"/>
<path d="M396.479 286.516C396.591 279.969 396.723 273.559 396.856 270.113C397.197 261.243 397.726 261.74 397.726 261.74C397.726 261.74 398.356 259.75 401.906 259.979" stroke="#161C31" stroke-miterlimit="10" stroke-linecap="round" stroke-linejoin="round"/>
<path d="M401.638 324.872H390.538C389.775 324.872 389.138 324.294 389.065 323.536L387.473 307.128H404.703L403.11 323.536C403.034 324.294 402.4 324.872 401.638 324.872Z" fill="#E31E23"/>
<path d="M387.986 312.419L388.167 314.297H404.005L404.19 312.419H387.986Z" fill="white" stroke="#161C31" stroke-miterlimit="10" stroke-linecap="round" stroke-linejoin="round"/>
<path d="M403.607 318.393L403.707 317.366H388.467L388.563 318.393H403.607Z" fill="white" stroke="#161C31" stroke-miterlimit="10" stroke-linecap="round" stroke-linejoin="round"/>
<path d="M194.486 81.9414H156V113.698H194.486V81.9414Z" fill="#A78BEF"/>
<path d="M163.161 90.884H158.324V95.7144H163.161V90.884Z" fill="white" stroke="#161C31" stroke-miterlimit="10" stroke-linecap="round" stroke-linejoin="round"/>
<path d="M170.413 90.884H165.576V95.7144H170.413V90.884Z" fill="#E527BB"/>
<path d="M177.658 90.884H172.828V95.7144H177.658V90.884Z" fill="white" stroke="#161C31" stroke-miterlimit="10" stroke-linecap="round" stroke-linejoin="round"/>
<path d="M184.911 90.884H180.074V95.7144H184.911V90.884Z" fill="white" stroke="#161C31" stroke-miterlimit="10" stroke-linecap="round" stroke-linejoin="round"/>
<path d="M192.163 90.884H187.326V95.7144H192.163V90.884Z" fill="white" stroke="#161C31" stroke-miterlimit="10" stroke-linecap="round" stroke-linejoin="round"/>
<path d="M163.161 98.3386H158.324V103.176H163.161V98.3386Z" fill="white" stroke="#161C31" stroke-miterlimit="10" stroke-linecap="round" stroke-linejoin="round"/>
<path d="M170.413 98.3386H165.576V103.176H170.413V98.3386Z" fill="white" stroke="#161C31" stroke-miterlimit="10" stroke-linecap="round" stroke-linejoin="round"/>
<path d="M177.658 98.3386H172.828V103.176H177.658V98.3386Z" fill="white" stroke="#161C31" stroke-miterlimit="10" stroke-linecap="round" stroke-linejoin="round"/>
<path d="M184.911 98.3386H180.074V103.176H184.911V98.3386Z" fill="#E527BB"/>
<path d="M192.163 98.3386H187.326V103.176H192.163V98.3386Z" fill="white" stroke="#161C31" stroke-miterlimit="10" stroke-linecap="round" stroke-linejoin="round"/>
<path d="M163.161 105.786H158.324V110.617H163.161V105.786Z" fill="white" stroke="#161C31" stroke-miterlimit="10" stroke-linecap="round" stroke-linejoin="round"/>
<path d="M170.413 105.786H165.576V110.617H170.413V105.786Z" fill="white" stroke="#161C31" stroke-miterlimit="10" stroke-linecap="round" stroke-linejoin="round"/>
<path d="M177.658 105.786H172.828V110.617H177.658V105.786Z" fill="#E527BB"/>
<path d="M184.911 105.786H180.074V110.617H184.911V105.786Z" fill="white" stroke="#161C31" stroke-miterlimit="10" stroke-linecap="round" stroke-linejoin="round"/>
<path d="M192.163 105.786H187.326V110.617H192.163V105.786Z" fill="white" stroke="#161C31" stroke-miterlimit="10" stroke-linecap="round" stroke-linejoin="round"/>
<path d="M170.308 84.6373C169.531 84.6373 168.904 84.0106 168.904 83.2338V78.4035C168.904 77.6267 169.531 77.0001 170.308 77.0001C171.078 76.9935 171.711 77.6202 171.711 78.3969V83.2273C171.711 84.0106 171.078 84.6373 170.308 84.6373Z" fill="#E527BB"/>
<path d="M180.177 84.6372C179.4 84.6372 178.773 84.0106 178.773 83.2338V78.4034C178.773 77.6266 179.4 77 180.177 77C180.954 77 181.58 77.6266 181.58 78.4034V83.2338C181.58 84.0106 180.954 84.6372 180.177 84.6372Z" fill="#E527BB"/>
</g>
</g>
<defs>
<clipPath id="clip0_1696_7166">
<rect width="542.64" height="328.79" fill="white"/>
</clipPath>
<clipPath id="clip1_1696_7166">
<rect width="343.024" height="288.275" fill="white" transform="translate(100 41.0847)"/>
</clipPath>
</defs>
</svg>
