<svg width="19" height="19" viewBox="0 0 19 19" fill="none" xmlns="http://www.w3.org/2000/svg">
<path d="M16.1062 19H2.89385C1.29346 19 0 17.9143 0 16.5775V2.4225C0 1.08571 1.30077 0 2.89385 0H16.1062C17.6992 0 19 1.08571 19 2.4225V16.5775C19 17.9143 17.6992 19 16.1062 19ZM2.89385 1.35714C2.10462 1.35714 1.46154 1.83214 1.46154 2.4225V16.5775C1.46154 17.1679 2.10462 17.6429 2.89385 17.6429H16.1062C16.8954 17.6429 17.5385 17.1611 17.5385 16.5775V2.4225C17.5385 1.83214 16.8954 1.35714 16.1062 1.35714H2.89385ZM15.3462 11.5357H3.65385V12.8929H15.3462V11.5357ZM15.3462 14.25H3.65385V15.6071H15.3462V14.25ZM9.62423 5.90357C9.41962 5.86964 8.74731 5.73393 8.74731 5.3675C8.74731 5.0825 9.09077 4.845 9.5 4.845C9.90923 4.845 10.2527 5.0825 10.2527 5.3675H11.7142C11.7142 4.54643 11.0931 3.85429 10.2308 3.59643V2.72786H8.76923V3.59643C6.56231 4.28857 6.89115 6.96893 9.39769 7.24036C9.82154 7.29464 10.2454 7.49821 10.2454 7.77643C10.2235 8.46179 8.76923 8.46179 8.74731 7.77643H7.28577C7.28577 8.5975 7.90692 9.28964 8.76923 9.5475V10.4161H10.2308V9.5475C12.4596 8.84857 12.065 6.14786 9.62423 5.90357Z" fill="url(#paint0_linear_379_4165)"/>
<defs>
<linearGradient id="paint0_linear_379_4165" x1="9.5" y1="0" x2="9.5" y2="19" gradientUnits="userSpaceOnUse">
<stop stop-color="#E527BB"/>
<stop offset="1" stop-color="#A78BEF"/>
</linearGradient>
</defs>
</svg>
