<svg width="52" height="52" viewBox="0 0 52 52" fill="none" xmlns="http://www.w3.org/2000/svg">
<g clip-path="url(#clip0_1165_7960)">
<path d="M36.5383 32.752H43.2076C44.8904 32.752 46.2545 34.116 46.2545 35.7988V40.9987" stroke="#DAA7EE" stroke-width="1.52344" stroke-miterlimit="10" stroke-linecap="round" stroke-linejoin="round"/>
<path d="M10.8721 32.752H15.434" stroke="#DAA7EE" stroke-width="1.52344" stroke-miterlimit="10" stroke-linecap="round" stroke-linejoin="round"/>
<path d="M15.4357 19.248H8.79248C7.10969 19.248 5.74561 20.6121 5.74561 22.2949V27.583" stroke="#DAA7EE" stroke-width="1.52344" stroke-miterlimit="10" stroke-linecap="round" stroke-linejoin="round"/>
<path d="M41.151 19.248H36.4995" stroke="#DAA7EE" stroke-width="1.52344" stroke-miterlimit="10" stroke-linecap="round" stroke-linejoin="round"/>
<path d="M34.4539 5.70166H43.2096C44.8925 5.70166 46.2564 7.06564 46.2564 8.74854V14.1039" stroke="#DAA7EE" stroke-width="1.52344" stroke-miterlimit="10" stroke-linecap="round" stroke-linejoin="round"/>
<path d="M30.8975 5.70166H27.1885H11.0847" stroke="#DAA7EE" stroke-width="1.52344" stroke-miterlimit="10" stroke-linecap="round" stroke-linejoin="round"/>
<path d="M37.9216 23.4332L36.8583 23.6709C36.6358 23.7207 36.4154 23.5825 36.3596 23.3611C36.1036 22.3567 35.7065 21.4091 35.1906 20.5407C35.0728 20.3447 35.1317 20.0918 35.3247 19.9689L36.2448 19.3839C36.4723 19.2397 36.5069 18.9218 36.3169 18.7309L33.269 15.683C33.0781 15.4931 32.7602 15.5276 32.616 15.7551L32.031 16.6753C31.9081 16.8682 31.6552 16.9271 31.4592 16.8093C30.5908 16.2934 29.6433 15.8963 28.6388 15.6404C28.4174 15.5845 28.2793 15.3641 28.329 15.1417L28.5667 14.0783C28.6246 13.8153 28.4245 13.5654 28.1554 13.5654H23.8451C23.5759 13.5654 23.3758 13.8153 23.4337 14.0783L23.6714 15.1417C23.7212 15.3641 23.583 15.5845 23.3616 15.6404C22.3572 15.8963 21.4096 16.2934 20.5412 16.8093C20.3452 16.9271 20.0923 16.8682 19.9694 16.6753L19.3844 15.7551C19.2402 15.5276 18.9223 15.4931 18.7314 15.683L15.6835 18.7309C15.4936 18.9218 15.5281 19.2397 15.7556 19.3839L16.6758 19.9689C16.8687 20.0918 16.9276 20.3447 16.8098 20.5407C16.2939 21.4091 15.8968 22.3567 15.6408 23.3611C15.585 23.5825 15.3646 23.7207 15.1422 23.6709L14.0788 23.4332C13.8158 23.3753 13.5659 23.5754 13.5659 23.8446V28.1549C13.5659 28.424 13.8158 28.6241 14.0788 28.5662L15.1422 28.3286C15.3646 28.2788 15.585 28.4169 15.6408 28.6383C15.8968 29.6428 16.2939 30.5903 16.8098 31.4587C16.9276 31.6547 16.8687 31.9076 16.6758 32.0305L15.7556 32.6155C15.5281 32.7597 15.4936 33.0776 15.6835 33.2686L18.7314 36.3164C18.9223 36.5064 19.2402 36.4718 19.3844 36.2443L19.9694 35.3242C20.0923 35.1312 20.3452 35.0723 20.5412 35.1901C21.4096 35.7061 22.3572 36.1032 23.3616 36.3591C23.583 36.415 23.7212 36.6353 23.6714 36.8578L23.4337 37.9211C23.3758 38.1842 23.5759 38.434 23.8451 38.434H28.1554C28.4245 38.434 28.6246 38.1842 28.5667 37.9211L28.329 36.8578C28.2793 36.6353 28.4174 36.415 28.6388 36.3591C29.6433 36.1032 30.5908 35.7061 31.4592 35.1901C31.6552 35.0723 31.9081 35.1312 32.031 35.3242L32.616 36.2443C32.7602 36.4718 33.0781 36.5064 33.269 36.3164L36.3169 33.2686C36.5069 33.0776 36.4723 32.7597 36.2448 32.6155L35.3247 32.0305C35.1317 31.9076 35.0728 31.6547 35.1906 31.4587C35.7065 30.5903 36.1036 29.6428 36.3596 28.6383C36.4154 28.4169 36.6358 28.2788 36.8583 28.3286L37.9216 28.5662C38.1847 28.6241 38.4345 28.424 38.4345 28.1549V23.8446C38.4345 23.5754 38.1847 23.3753 37.9216 23.4332Z" stroke="#DAA7EE" stroke-width="1.52344" stroke-miterlimit="10" stroke-linecap="round" stroke-linejoin="round"/>
<path d="M27.7763 32.9499C30.877 32.1587 33.1703 29.3474 33.1703 25.9999C33.1703 22.039 29.9599 18.8286 25.999 18.8286C22.038 18.8286 18.8276 22.039 18.8276 25.9999C18.8276 29.3474 21.1209 32.1587 24.2216 32.9499" stroke="#DAA7EE" stroke-width="1.52344" stroke-miterlimit="10" stroke-linecap="round" stroke-linejoin="round"/>
<path d="M41.0682 46.2554H25.3206" stroke="#DAA7EE" stroke-width="1.52344" stroke-miterlimit="10" stroke-linecap="round" stroke-linejoin="round"/>
<path d="M27.2013 48.6586L24.7981 46.2672L27.2013 43.8521" stroke="#DAA7EE" stroke-width="1.52344" stroke-miterlimit="10" stroke-linecap="round" stroke-linejoin="round"/>
<path d="M24.7981 3.29834L27.2013 5.68973L24.7981 8.10479" stroke="#DAA7EE" stroke-width="1.52344" stroke-miterlimit="10" stroke-linecap="round" stroke-linejoin="round"/>
<path d="M3.70703 1.19539C4.32961 0.917109 5.01922 0.761719 5.74438 0.761719C8.49672 0.761719 10.727 2.99305 10.727 5.74438C10.727 8.49672 8.49672 10.727 5.74438 10.727C2.99305 10.727 0.761719 8.49672 0.761719 5.74438C0.761719 5.02125 0.916094 4.33367 1.19336 3.71313" stroke="#DAA7EE" stroke-width="1.52344" stroke-miterlimit="10" stroke-linecap="round" stroke-linejoin="round"/>
<path d="M5.74458 37.7348C8.49654 37.7348 10.7274 35.5039 10.7274 32.7519C10.7274 29.9999 8.49654 27.769 5.74458 27.769C2.99262 27.769 0.761719 29.9999 0.761719 32.7519C0.761719 35.5039 2.99262 37.7348 5.74458 37.7348Z" stroke="#DAA7EE" stroke-width="1.52344" stroke-miterlimit="10" stroke-linecap="round" stroke-linejoin="round"/>
<path d="M3.75781 32.5856L5.36453 34.3717L7.72891 31.3354" stroke="#DAA7EE" stroke-width="1.52344" stroke-miterlimit="10" stroke-linecap="round" stroke-linejoin="round"/>
<path d="M44.269 46.089L45.8758 47.8751L48.2401 44.8389" stroke="#DAA7EE" stroke-width="1.52344" stroke-miterlimit="10" stroke-linecap="round" stroke-linejoin="round"/>
<path d="M50.7955 48.3112C51.0798 47.6846 51.2383 46.9879 51.2383 46.2556C51.2383 43.5033 49.0069 41.2729 46.2556 41.2729C43.5033 41.2729 41.2729 43.5033 41.2729 46.2556C41.2729 49.0069 43.5033 51.2383 46.2556 51.2383C46.9726 51.2383 47.6541 51.0869 48.2706 50.8137" stroke="#DAA7EE" stroke-width="1.52344" stroke-miterlimit="10" stroke-linecap="round" stroke-linejoin="round"/>
<path d="M46.2558 24.2309C49.0078 24.2309 51.2387 22 51.2387 19.248C51.2387 16.496 49.0078 14.2651 46.2558 14.2651C43.5038 14.2651 41.2729 16.496 41.2729 19.248C41.2729 22 43.5038 24.2309 46.2558 24.2309Z" stroke="#DAA7EE" stroke-width="1.52344" stroke-miterlimit="10" stroke-linecap="round" stroke-linejoin="round"/>
<path d="M44.269 19.0817L45.8758 20.8678L48.2401 17.8315" stroke="#DAA7EE" stroke-width="1.52344" stroke-miterlimit="10" stroke-linecap="round" stroke-linejoin="round"/>
<path d="M3.75781 5.57836L5.36453 7.36444L7.72891 4.32812" stroke="#DAA7EE" stroke-width="1.52344" stroke-miterlimit="10" stroke-linecap="round" stroke-linejoin="round"/>
</g>
<defs>
<clipPath id="clip0_1165_7960">
<rect width="52" height="52" fill="white"/>
</clipPath>
</defs>
</svg>
