<svg width="45" height="45" viewBox="0 0 45 45" fill="none" xmlns="http://www.w3.org/2000/svg">
<path d="M44.25 1.5H5.59641C5.26637 0.928086 4.7568 0.481086 4.14677 0.228356C3.53673 -0.0243741 2.86034 -0.0687036 2.22254 0.102245C1.58474 0.273194 1.02119 0.649864 0.619331 1.17381C0.21747 1.69776 -0.000232795 2.33969 1.86804e-07 3V42C0.000893477 42.7954 0.317251 43.5579 0.879666 44.1203C1.44208 44.6827 2.20463 44.9991 3 45H38.25C38.3485 45 38.446 44.9806 38.537 44.9429C38.628 44.9052 38.7107 44.85 38.7803 44.7803C38.85 44.7107 38.9052 44.628 38.9429 44.537C38.9806 44.446 39 44.3485 39 44.25V40.5H44.25C44.3485 40.5 44.446 40.4806 44.537 40.4429C44.628 40.4052 44.7107 40.35 44.7803 40.2803C44.85 40.2107 44.9052 40.128 44.9429 40.037C44.9806 39.946 45 39.8485 45 39.75V2.25C45 2.15151 44.9806 2.05398 44.9429 1.96298C44.9052 1.87199 44.85 1.78931 44.7803 1.71966C44.7107 1.65002 44.628 1.59478 44.537 1.55709C44.446 1.5194 44.3485 1.5 44.25 1.5ZM3 1.5C3.39769 1.50046 3.77895 1.65864 4.06016 1.93984C4.34136 2.22105 4.49955 2.60232 4.5 3V39H3C2.47312 38.9996 1.95554 39.1388 1.5 39.4036V3C1.50046 2.60232 1.65864 2.22105 1.93984 1.93984C2.22105 1.65864 2.60232 1.50046 3 1.5ZM37.5 43.5H3C2.60218 43.5 2.22064 43.342 1.93934 43.0607C1.65804 42.7794 1.5 42.3978 1.5 42C1.5 41.6022 1.65804 41.2206 1.93934 40.9393C2.22064 40.658 2.60218 40.5 3 40.5H37.5V43.5ZM43.5 39H6V3H43.5V39Z" fill="#DAA7EE"/>
<path d="M10.125 12C9.42881 12 8.76113 12.2766 8.26884 12.7688C7.77656 13.2611 7.5 13.9288 7.5 14.625C7.5 15.3212 7.77656 15.9889 8.26884 16.4812C8.76113 16.9734 9.42881 17.25 10.125 17.25H10.875C11.5273 17.2505 12.1563 17.0072 12.6384 16.5679C12.8476 16.7838 13.0981 16.9554 13.3749 17.0726C13.6518 17.1898 13.9494 17.2501 14.25 17.25V15.75C14.0512 15.7498 13.8605 15.6707 13.7199 15.5301C13.5793 15.3895 13.5002 15.1988 13.5 15V11.25C13.5 10.4544 13.1839 9.69129 12.6213 9.12868C12.0587 8.56607 11.2956 8.25 10.5 8.25C9.70435 8.25 8.94129 8.56607 8.37868 9.12868C7.81607 9.69129 7.5 10.4544 7.5 11.25H9C9 10.8522 9.15804 10.4706 9.43934 10.1893C9.72064 9.90804 10.1022 9.75 10.5 9.75C10.8978 9.75 11.2794 9.90804 11.5607 10.1893C11.842 10.4706 12 10.8522 12 11.25V12H10.125ZM10.875 15.75H10.125C9.82663 15.75 9.54048 15.6315 9.3295 15.4205C9.11853 15.2095 9 14.9234 9 14.625C9 14.3266 9.11853 14.0405 9.3295 13.8295C9.54048 13.6185 9.82663 13.5 10.125 13.5H12V14.625C11.9997 14.9233 11.881 15.2092 11.6701 15.4201C11.4592 15.631 11.1733 15.7497 10.875 15.75Z" fill="#DAA7EE"/>
<path d="M18.3678 14.25H22.1322L23.2937 17.5023L24.7063 16.9977L20.9563 6.49773C20.9042 6.35206 20.8084 6.22604 20.682 6.13693C20.5556 6.04783 20.4047 6 20.25 6C20.0953 6 19.9444 6.04783 19.818 6.13693C19.6915 6.22604 19.5957 6.35206 19.5437 6.49773L15.7937 16.9977L17.2063 17.5023L18.3678 14.25ZM20.25 8.9799L21.5965 12.75H18.9035L20.25 8.9799Z" fill="#DAA7EE"/>
<path d="M26.25 7.5H42V9H26.25V7.5Z" fill="#DAA7EE"/>
<path d="M26.25 10.5H30V12H26.25V10.5Z" fill="#DAA7EE"/>
<path d="M31.5 10.5H42V12H31.5V10.5Z" fill="#DAA7EE"/>
<path d="M26.25 13.5H34.5V15H26.25V13.5Z" fill="#DAA7EE"/>
<path d="M10.7197 27.9697C10.65 28.0393 10.5948 28.122 10.5571 28.213C10.5194 28.304 10.5 28.4015 10.5 28.5C10.5 28.5985 10.5194 28.696 10.5571 28.787C10.5948 28.878 10.65 28.9607 10.7197 29.0303L17.4697 35.7803C17.5393 35.85 17.622 35.9052 17.713 35.9429C17.804 35.9806 17.9015 36 18 36C18.0985 36 18.196 35.9806 18.287 35.9429C18.378 35.9052 18.4607 35.85 18.5303 35.7803L23.7803 30.5303C23.85 30.4607 23.9052 30.378 23.9429 30.287C23.9806 30.196 24 30.0985 24 30C24 29.9015 23.9806 29.804 23.9429 29.713C23.9052 29.622 23.85 29.5393 23.7803 29.4697L19.6417 25.331L20.2224 23.2018C20.3409 22.7671 20.3576 22.3108 20.2712 21.8686C20.1848 21.4263 19.9975 21.0099 19.724 20.6518C19.4504 20.2937 19.098 20.0035 18.6941 19.8037C18.2901 19.6039 17.8456 19.5 17.3949 19.5C16.7586 19.502 16.14 19.7102 15.6319 20.0935C15.1239 20.4767 14.7537 21.0142 14.5769 21.6256L13.5822 25.1071L10.7197 27.9697ZM22.1894 30L18 34.1894L12.3106 28.5L16.5 24.3106L17.9655 25.7761L17.2764 28.3027L18.7236 28.6974L19.1871 26.9978L22.1894 30ZM16.0193 22.0377C16.1056 21.7392 16.2863 21.4768 16.5343 21.2897C16.7823 21.1026 17.0843 21.001 17.3949 21C17.6149 21 17.832 21.0507 18.0291 21.1483C18.2263 21.2458 18.3984 21.3875 18.5319 21.5623C18.6654 21.7371 18.7568 21.9404 18.799 22.1563C18.8412 22.3722 18.8331 22.5949 18.7752 22.8072L18.42 24.1094L17.0303 22.7197C16.8897 22.579 16.6989 22.5 16.5 22.5C16.3011 22.5 16.1103 22.579 15.9697 22.7197L15.7663 22.9231L16.0193 22.0377Z" fill="#DAA7EE"/>
<path d="M9.75 36C10.3465 35.9993 10.9184 35.7621 11.3403 35.3403C11.7621 34.9184 11.9993 34.3465 12 33.75V33.4541C12.0004 33.0099 11.8689 32.5755 11.6221 32.2061L10.374 30.334C10.3055 30.2312 10.2127 30.147 10.1039 30.0887C9.99503 30.0305 9.87347 30 9.75 30C9.62653 30 9.50497 30.0305 9.39611 30.0887C9.28725 30.147 9.19446 30.2312 9.12598 30.334L7.87784 32.2061C7.63108 32.5755 7.49958 33.0099 7.5 33.4541V33.75C7.50067 34.3465 7.73793 34.9184 8.15975 35.3403C8.58156 35.7621 9.15347 35.9993 9.75 36ZM9 33.4541C8.99987 33.3061 9.0437 33.1613 9.12593 33.0381L9.75 32.1021L10.374 33.0381C10.4563 33.1612 10.5001 33.306 10.5 33.4541V33.75C10.5 33.9489 10.421 34.1397 10.2803 34.2803C10.1397 34.421 9.94891 34.5 9.75 34.5C9.55109 34.5 9.36032 34.421 9.21967 34.2803C9.07902 34.1397 9 33.9489 9 33.75V33.4541Z" fill="#DAA7EE"/>
<path d="M34.5 28.5H36V30H34.5V28.5Z" fill="#DAA7EE"/>
<path d="M37.5 28.5H42V30H37.5V28.5Z" fill="#DAA7EE"/>
<path d="M34.5 31.5H36V33H34.5V31.5Z" fill="#DAA7EE"/>
<path d="M37.5 31.5H42V33H37.5V31.5Z" fill="#DAA7EE"/>
<path d="M34.5 34.5H36V36H34.5V34.5Z" fill="#DAA7EE"/>
<path d="M37.5 34.5H42V36H37.5V34.5Z" fill="#DAA7EE"/>
<path d="M41.25 19.5H35.25C35.1515 19.5 35.054 19.5194 34.963 19.5571C34.872 19.5948 34.7893 19.65 34.7197 19.7197C34.65 19.7893 34.5948 19.872 34.5571 19.963C34.5194 20.054 34.5 20.1515 34.5 20.25V26.25C34.5 26.3485 34.5194 26.446 34.5571 26.537C34.5948 26.628 34.65 26.7107 34.7197 26.7803C34.7893 26.85 34.872 26.9052 34.963 26.9429C35.054 26.9806 35.1515 27 35.25 27H41.25C41.3485 27 41.446 26.9806 41.537 26.9429C41.628 26.9052 41.7107 26.85 41.7803 26.7803C41.85 26.7107 41.9052 26.628 41.9429 26.537C41.9806 26.446 42 26.3485 42 26.25V20.25C42 20.1515 41.9806 20.054 41.9429 19.963C41.9052 19.872 41.85 19.7893 41.7803 19.7197C41.7107 19.65 41.628 19.5948 41.537 19.5571C41.446 19.5194 41.3485 19.5 41.25 19.5ZM40.5 25.5H36V21H40.5V25.5Z" fill="#DAA7EE"/>
<path d="M25.5 28.5H27V30H25.5V28.5Z" fill="#DAA7EE"/>
<path d="M28.5 28.5H33V30H28.5V28.5Z" fill="#DAA7EE"/>
<path d="M25.5 31.5H27V33H25.5V31.5Z" fill="#DAA7EE"/>
<path d="M28.5 31.5H33V33H28.5V31.5Z" fill="#DAA7EE"/>
<path d="M25.5 34.5H27V36H25.5V34.5Z" fill="#DAA7EE"/>
<path d="M28.5 34.5H33V36H28.5V34.5Z" fill="#DAA7EE"/>
<path d="M26.25 27H32.25C32.3485 27 32.446 26.9806 32.537 26.9429C32.628 26.9052 32.7107 26.85 32.7803 26.7803C32.85 26.7107 32.9052 26.628 32.9429 26.537C32.9806 26.446 33 26.3485 33 26.25V20.25C33 20.1515 32.9806 20.054 32.9429 19.963C32.9052 19.872 32.85 19.7893 32.7803 19.7197C32.7107 19.65 32.628 19.5948 32.537 19.5571C32.446 19.5194 32.3485 19.5 32.25 19.5H26.25C26.1515 19.5 26.054 19.5194 25.963 19.5571C25.872 19.5948 25.7893 19.65 25.7197 19.7197C25.65 19.7893 25.5948 19.872 25.5571 19.963C25.5194 20.054 25.5 20.1515 25.5 20.25V26.25C25.5 26.3485 25.5194 26.446 25.5571 26.537C25.5948 26.628 25.65 26.7107 25.7197 26.7803C25.7893 26.85 25.872 26.9052 25.963 26.9429C26.054 26.9806 26.1515 27 26.25 27ZM27 21H31.5V25.5H27V21Z" fill="#DAA7EE"/>
</svg>
