<svg width="12" height="18" viewBox="0 0 12 18" fill="none" xmlns="http://www.w3.org/2000/svg">
<g clip-path="url(#clip0_439_5726)">
<path d="M10.4813 5.58168H1.4161C1.25972 5.58168 1.13281 5.45477 1.13281 5.2984V2.46554C1.13281 2.30916 1.25972 2.18225 1.4161 2.18225H10.4813C10.6376 2.18225 10.7645 2.30916 10.7645 2.46554V5.2984C10.7645 5.45477 10.6376 5.58168 10.4813 5.58168ZM1.69938 5.01511H10.198V2.74882H1.69938V5.01511Z" fill="url(#paint0_linear_439_5726)"/>
<path d="M11.6147 17.1964H0.283286C0.126912 17.1964 0 17.0695 0 16.9131V1.04909C0 0.89272 0.126912 0.765808 0.283286 0.765808H11.6147C11.7711 0.765808 11.898 0.89272 11.898 1.04909V16.9131C11.898 17.0695 11.7711 17.1964 11.6147 17.1964ZM0.566572 16.6298H11.3314V1.33238H0.566572V16.6298Z" fill="url(#paint1_linear_439_5726)"/>
<path d="M3.82313 8.41454H1.69735C1.54097 8.41454 1.41406 8.28763 1.41406 8.13126V6.43154C1.41406 6.27517 1.54097 6.14825 1.69735 6.14825H3.82313C3.9795 6.14825 4.10641 6.27517 4.10641 6.43154V8.13126C4.10641 8.28763 3.9795 8.41454 3.82313 8.41454ZM1.98063 7.84797H3.53984V6.71483H1.98063V7.84797Z" fill="url(#paint2_linear_439_5726)"/>
<path d="M7.01063 8.41454H4.88485C4.72847 8.41454 4.60156 8.28763 4.60156 8.13126V6.43154C4.60156 6.27517 4.72847 6.14825 4.88485 6.14825H7.01063C7.167 6.14825 7.29391 6.27517 7.29391 6.43154V8.13126C7.29391 8.28763 7.167 8.41454 7.01063 8.41454ZM5.16813 7.84797H6.72734V6.71483H5.16813V7.84797Z" fill="url(#paint3_linear_439_5726)"/>
<path d="M10.1962 8.41454H8.0704C7.91402 8.41454 7.78711 8.28763 7.78711 8.13126V6.43154C7.78711 6.27517 7.91402 6.14825 8.0704 6.14825H10.1962C10.3525 6.14825 10.4795 6.27517 10.4795 6.43154V8.13126C10.4795 8.28763 10.3525 8.41454 10.1962 8.41454ZM8.35595 7.84797H9.91515V6.71483H8.35595V7.84797Z" fill="url(#paint4_linear_439_5726)"/>
<path d="M3.82313 11.814H1.69735C1.54097 11.814 1.41406 11.6871 1.41406 11.5307V9.83097C1.41406 9.6746 1.54097 9.54768 1.69735 9.54768H3.82313C3.9795 9.54768 4.10641 9.6746 4.10641 9.83097V11.5307C4.10641 11.6871 3.9795 11.814 3.82313 11.814ZM1.98063 11.2474H3.53984V10.1143H1.98063V11.2474Z" fill="url(#paint5_linear_439_5726)"/>
<path d="M7.01063 11.814H4.88485C4.72847 11.814 4.60156 11.6871 4.60156 11.5307V9.83097C4.60156 9.6746 4.72847 9.54768 4.88485 9.54768H7.01063C7.167 9.54768 7.29391 9.6746 7.29391 9.83097V11.5307C7.29391 11.6871 7.167 11.814 7.01063 11.814ZM5.16813 11.2474H6.72734V10.1143H5.16813V11.2474Z" fill="url(#paint6_linear_439_5726)"/>
<path d="M10.1962 11.814H8.0704C7.91402 11.814 7.78711 11.6871 7.78711 11.5307V9.83097C7.78711 9.6746 7.91402 9.54768 8.0704 9.54768H10.1962C10.3525 9.54768 10.4795 9.6746 10.4795 9.83097V11.5307C10.4795 11.6871 10.3525 11.814 10.1962 11.814ZM8.35595 11.2474H9.91515V10.1143H8.35595V11.2474Z" fill="url(#paint7_linear_439_5726)"/>
<path d="M3.82313 15.2134H1.69735C1.54097 15.2134 1.41406 15.0865 1.41406 14.9301V13.2304C1.41406 13.074 1.54097 12.9471 1.69735 12.9471H3.82313C3.9795 12.9471 4.10641 13.074 4.10641 13.2304V14.9301C4.10641 15.0865 3.9795 15.2134 3.82313 15.2134ZM1.98063 14.6468H3.53984V13.5137H1.98063V14.6468Z" fill="url(#paint8_linear_439_5726)"/>
<path d="M7.01063 15.2134H4.88485C4.72847 15.2134 4.60156 15.0865 4.60156 14.9301V13.2304C4.60156 13.074 4.72847 12.9471 4.88485 12.9471H7.01063C7.167 12.9471 7.29391 13.074 7.29391 13.2304V14.9301C7.29391 15.0865 7.167 15.2134 7.01063 15.2134ZM5.16813 14.6468H6.72734V13.5137H5.16813V14.6468Z" fill="url(#paint9_linear_439_5726)"/>
<path d="M10.1962 15.2134H8.0704C7.91402 15.2134 7.78711 15.0865 7.78711 14.9301V13.2304C7.78711 13.074 7.91402 12.9471 8.0704 12.9471H10.1962C10.3525 12.9471 10.4795 13.074 10.4795 13.2304V14.9301C10.4795 15.0865 10.3525 15.2134 10.1962 15.2134ZM8.35595 14.6468H9.91515V13.5137H8.35595V14.6468Z" fill="url(#paint10_linear_439_5726)"/>
</g>
<defs>
<linearGradient id="paint0_linear_439_5726" x1="5.94868" y1="2.18225" x2="5.94868" y2="5.58168" gradientUnits="userSpaceOnUse">
<stop stop-color="#E527BB"/>
<stop offset="1" stop-color="#A78BEF"/>
</linearGradient>
<linearGradient id="paint1_linear_439_5726" x1="5.94901" y1="0.765808" x2="5.94901" y2="17.1964" gradientUnits="userSpaceOnUse">
<stop stop-color="#E527BB"/>
<stop offset="1" stop-color="#A78BEF"/>
</linearGradient>
<linearGradient id="paint2_linear_439_5726" x1="2.76024" y1="6.14825" x2="2.76024" y2="8.41454" gradientUnits="userSpaceOnUse">
<stop stop-color="#E527BB"/>
<stop offset="1" stop-color="#A78BEF"/>
</linearGradient>
<linearGradient id="paint3_linear_439_5726" x1="5.94774" y1="6.14825" x2="5.94774" y2="8.41454" gradientUnits="userSpaceOnUse">
<stop stop-color="#E527BB"/>
<stop offset="1" stop-color="#A78BEF"/>
</linearGradient>
<linearGradient id="paint4_linear_439_5726" x1="9.13328" y1="6.14825" x2="9.13328" y2="8.41454" gradientUnits="userSpaceOnUse">
<stop stop-color="#E527BB"/>
<stop offset="1" stop-color="#A78BEF"/>
</linearGradient>
<linearGradient id="paint5_linear_439_5726" x1="2.76024" y1="9.54768" x2="2.76024" y2="11.814" gradientUnits="userSpaceOnUse">
<stop stop-color="#E527BB"/>
<stop offset="1" stop-color="#A78BEF"/>
</linearGradient>
<linearGradient id="paint6_linear_439_5726" x1="5.94774" y1="9.54768" x2="5.94774" y2="11.814" gradientUnits="userSpaceOnUse">
<stop stop-color="#E527BB"/>
<stop offset="1" stop-color="#A78BEF"/>
</linearGradient>
<linearGradient id="paint7_linear_439_5726" x1="9.13328" y1="9.54768" x2="9.13328" y2="11.814" gradientUnits="userSpaceOnUse">
<stop stop-color="#E527BB"/>
<stop offset="1" stop-color="#A78BEF"/>
</linearGradient>
<linearGradient id="paint8_linear_439_5726" x1="2.76024" y1="12.9471" x2="2.76024" y2="15.2134" gradientUnits="userSpaceOnUse">
<stop stop-color="#E527BB"/>
<stop offset="1" stop-color="#A78BEF"/>
</linearGradient>
<linearGradient id="paint9_linear_439_5726" x1="5.94774" y1="12.9471" x2="5.94774" y2="15.2134" gradientUnits="userSpaceOnUse">
<stop stop-color="#E527BB"/>
<stop offset="1" stop-color="#A78BEF"/>
</linearGradient>
<linearGradient id="paint10_linear_439_5726" x1="9.13328" y1="12.9471" x2="9.13328" y2="15.2134" gradientUnits="userSpaceOnUse">
<stop stop-color="#E527BB"/>
<stop offset="1" stop-color="#A78BEF"/>
</linearGradient>
<clipPath id="clip0_439_5726">
<rect width="12" height="16.5779" fill="white" transform="translate(0 0.618515)"/>
</clipPath>
</defs>
</svg>
