<svg width="12" height="17" viewBox="0 0 12 17" fill="none" xmlns="http://www.w3.org/2000/svg">
<path d="M11.6143 0C11.7706 0 11.8984 0.126829 11.8984 0.283203V16.1475C11.8983 16.3037 11.7705 16.4307 11.6143 16.4307H0.283203C0.126971 16.4306 0.000168628 16.3037 0 16.1475V0.283203C0 0.126857 0.126867 4.49184e-05 0.283203 0H11.6143ZM0.566406 15.8643H11.3311V0.566406H0.566406V15.8643ZM3.82422 12.1816C3.98042 12.1818 4.10742 12.3086 4.10742 12.4648V14.1641C4.10742 14.3203 3.98042 14.4471 3.82422 14.4473H1.69824C1.54187 14.4473 1.41504 14.3204 1.41504 14.1641V12.4648C1.41504 12.3085 1.54187 12.1816 1.69824 12.1816H3.82422ZM7.01172 12.1816C7.16792 12.1818 7.29492 12.3086 7.29492 12.4648V14.1641C7.29492 14.3203 7.16792 14.4471 7.01172 14.4473H4.88574C4.72937 14.4473 4.60254 14.3204 4.60254 14.1641V12.4648C4.60254 12.3085 4.72937 12.1816 4.88574 12.1816H7.01172ZM10.1963 12.1816C10.3527 12.1816 10.4805 12.3085 10.4805 12.4648V14.1641C10.4805 14.3204 10.3527 14.4473 10.1963 14.4473H8.07129C7.91492 14.4473 7.78809 14.3204 7.78809 14.1641V12.4648C7.78809 12.3085 7.91492 12.1816 8.07129 12.1816H10.1963ZM1.98145 13.8809H3.54102V12.748H1.98145V13.8809ZM5.16895 13.8809H6.72852V12.748H5.16895V13.8809ZM8.35645 13.8809H9.91602V12.748H8.35645V13.8809ZM3.82422 8.78125C3.98042 8.78146 4.10742 8.90918 4.10742 9.06543V10.7646C4.10742 10.9209 3.98042 11.0476 3.82422 11.0479H1.69824C1.54187 11.0479 1.41504 10.921 1.41504 10.7646V9.06543C1.41504 8.90906 1.54187 8.78125 1.69824 8.78125H3.82422ZM7.01172 8.78125C7.16792 8.78146 7.29492 8.90918 7.29492 9.06543V10.7646C7.29492 10.9209 7.16792 11.0476 7.01172 11.0479H4.88574C4.72937 11.0479 4.60254 10.921 4.60254 10.7646V9.06543C4.60254 8.90906 4.72937 8.78125 4.88574 8.78125H7.01172ZM10.1963 8.78125C10.3527 8.78125 10.4805 8.90906 10.4805 9.06543V10.7646C10.4805 10.921 10.3527 11.0479 10.1963 11.0479H8.07129C7.91492 11.0479 7.78809 10.921 7.78809 10.7646V9.06543C7.78809 8.90906 7.91492 8.78125 8.07129 8.78125H10.1963ZM1.98145 10.4814H3.54102V9.34863H1.98145V10.4814ZM5.16895 10.4814H6.72852V9.34863H5.16895V10.4814ZM8.35645 10.4814H9.91602V9.34863H8.35645V10.4814ZM3.82422 5.38184C3.98042 5.38204 4.10742 5.50977 4.10742 5.66602V7.36523C4.10742 7.52148 3.98042 7.64823 3.82422 7.64844H1.69824C1.54187 7.64844 1.41504 7.52161 1.41504 7.36523V5.66602C1.41504 5.50964 1.54187 5.38184 1.69824 5.38184H3.82422ZM7.01172 5.38184C7.16792 5.38204 7.29492 5.50977 7.29492 5.66602V7.36523C7.29492 7.52148 7.16792 7.64823 7.01172 7.64844H4.88574C4.72937 7.64844 4.60254 7.52161 4.60254 7.36523V5.66602C4.60254 5.50964 4.72937 5.38184 4.88574 5.38184H7.01172ZM10.1963 5.38184C10.3527 5.38184 10.4805 5.50964 10.4805 5.66602V7.36523C10.4805 7.52161 10.3527 7.64844 10.1963 7.64844H8.07129C7.91492 7.64844 7.78809 7.52161 7.78809 7.36523V5.66602C7.78809 5.50964 7.91492 5.38184 8.07129 5.38184H10.1963ZM1.98145 7.08203H3.54102V5.94922H1.98145V7.08203ZM5.16895 7.08203H6.72852V5.94922H5.16895V7.08203ZM8.35645 7.08203H9.91602V5.94922H8.35645V7.08203ZM10.4824 1.41602C10.6385 1.41626 10.7654 1.54316 10.7656 1.69922V4.53223C10.7656 4.68845 10.6386 4.81518 10.4824 4.81543H1.41699C1.26062 4.81543 1.13379 4.6886 1.13379 4.53223V1.69922C1.13398 1.54301 1.26074 1.41602 1.41699 1.41602H10.4824ZM1.7002 4.24902H10.1982V1.98242H1.7002V4.24902Z" fill="url(#paint0_linear_558_672)"/>
<defs>
<linearGradient id="paint0_linear_558_672" x1="5.94922" y1="0" x2="5.94922" y2="16.4307" gradientUnits="userSpaceOnUse">
<stop stop-color="#E527BB"/>
<stop offset="1" stop-color="#A78BEF"/>
</linearGradient>
</defs>
</svg>
