<svg width="532" height="329" viewBox="0 0 532 329" fill="none" xmlns="http://www.w3.org/2000/svg">
<path opacity="0.2" fill-rule="evenodd" clip-rule="evenodd" d="M0 7.5756C0 7.5756 496.166 -10.2363 522.25 8.76437C545.499 25.7019 520.61 239.759 514.929 286.131C514.801 287.134 513.992 287.91 512.938 288.028C382.355 302.136 78.1811 295.779 13.6451 294.227C12.5792 294.197 11.7008 293.49 11.49 292.498C2.02627 247.216 0 7.5756 0 7.5756Z" fill="#999999"/>
<path d="M262.163 17.1566C262.848 13.81 266.331 11.8424 269.547 12.9895C290.879 20.5992 364.448 45.7347 427.889 54.1035C430.783 54.4855 432.799 57.1642 432.35 60.0495L395.442 296.95C394.937 300.198 391.906 302.428 388.656 301.941C362.071 297.959 252.668 281.168 214.949 268.994C212.653 268.253 211.288 265.899 211.772 263.535L262.163 17.1566Z" fill="#E527BB"/>
<path opacity="0.6" d="M263.512 23.5722C264.171 20.3518 267.524 18.4575 270.618 19.5626C291.146 26.8852 361.945 51.0741 422.997 59.1282C425.782 59.4958 427.722 62.0736 427.29 64.8496L391.772 292.828C391.285 295.954 388.368 298.1 385.242 297.632C359.658 293.8 254.375 277.641 218.076 265.925C215.867 265.211 214.553 262.947 215.018 260.672L263.512 23.5722Z" fill="white"/>
<path opacity="0.78" d="M283.51 42.3748C281.616 41.9064 279.726 43.1544 279.413 45.08L271.475 93.8877C271.211 95.5106 272.24 97.0626 273.838 97.4469C282.733 99.5863 310.471 106.145 326.387 108.643C328.187 108.926 329.9 107.782 330.335 106.012C332.544 97.0109 338.76 70.7656 339.018 59.3012C339.06 57.4489 337.805 55.8212 336.007 55.3756L283.51 42.3748Z" fill="white"/>
<path d="M306.205 79.3964C312.067 79.3964 316.819 74.6423 316.819 68.7777C316.819 62.9131 312.067 58.1589 306.205 58.1589C300.343 58.1589 295.591 62.9131 295.591 68.7777C295.591 74.6423 300.343 79.3964 306.205 79.3964Z" fill="url(#paint0_linear_585_4087)"/>
<path d="M284.003 95.9575L317.092 102.934C319.121 103.362 320.808 101.377 320.075 99.4363C318.192 94.444 313.673 86.7406 303.428 84.8847C293.554 83.0961 286.506 87.7076 282.699 91.2788C281.083 92.7947 281.836 95.4999 284.003 95.9575Z" fill="url(#paint1_linear_585_4087)"/>
<g opacity="0.6">
<path d="M410.843 77.1861C411.879 77.4048 412.859 76.8498 413.021 75.9525C413.183 75.0552 412.471 74.1266 411.438 73.89L353.662 60.6274C352.629 60.3907 351.898 61.0562 352.036 62.1061L352.147 62.9529C352.286 64.0028 353.246 65.0419 354.283 65.2605L410.843 77.1861Z" fill="white"/>
</g>
<g opacity="0.6">
<path d="M351.764 69.6376C350.731 69.401 350 70.0665 350.138 71.1163L350.25 71.9632C350.388 73.0131 351.348 74.0521 352.386 74.2707L408.945 86.1964C409.981 86.415 410.961 85.8601 411.123 84.9627C411.285 84.0654 410.573 83.1369 409.54 82.9003L351.764 69.6376Z" fill="white"/>
</g>
<g opacity="0.6">
<path d="M349.838 78.7802C348.805 78.5436 348.074 79.2091 348.212 80.2589L348.324 81.1058C348.462 82.1556 349.422 83.1947 350.46 83.4133L407.019 95.339C408.055 95.5576 409.035 95.0026 409.197 94.1053C409.359 93.208 408.647 92.2795 407.614 92.0428L349.838 78.7802Z" fill="white"/>
</g>
<g opacity="0.6">
<path d="M403.365 140.613C404.401 140.831 405.355 140.27 405.484 139.366C405.614 138.461 404.872 137.536 403.838 137.309L268.197 107.59C267.162 107.363 266.705 107.953 267.179 108.901L267.996 110.53C268.47 111.476 269.707 112.43 270.743 112.648L403.365 140.613Z" fill="white"/>
</g>
<g opacity="0.6">
<path d="M266.299 116.602C265.264 116.375 264.806 116.964 265.281 117.912L266.097 119.541C266.571 120.488 267.808 121.441 268.844 121.66L401.467 149.624C402.503 149.843 403.456 149.282 403.586 148.377C403.714 147.473 402.973 146.548 401.94 146.321L266.299 116.602Z" fill="white"/>
</g>
<path opacity="0.6" d="M262.516 131.517C265.836 131.955 271.977 133.129 275.354 133.792C276.786 134.073 277.834 135.304 277.876 136.763C277.958 139.595 277.869 144.465 276.711 149.4C276.364 150.877 274.898 151.807 273.418 151.478L261.02 148.723C259.495 148.384 258.472 146.948 258.651 145.396L260.022 133.47C260.162 132.237 261.285 131.355 262.516 131.517Z" fill="white"/>
<g opacity="0.6">
<path d="M284.485 141.165C283.458 140.903 282.568 141.554 282.506 142.613L282.385 144.681C282.322 145.739 283.12 146.783 284.156 147.002L314.336 153.366C315.372 153.584 316.388 152.913 316.593 151.874L316.694 151.362C316.9 150.323 316.228 149.259 315.202 148.997L284.485 141.165Z" fill="white"/>
</g>
<path opacity="0.6" d="M330.216 145.791C333.535 146.23 339.677 147.403 343.054 148.066C344.486 148.347 345.534 149.579 345.576 151.037C345.658 153.869 345.569 158.739 344.411 163.674C344.064 165.151 342.599 166.081 341.118 165.752L328.72 162.997C327.195 162.659 326.173 161.222 326.351 159.67L327.722 147.744C327.862 146.512 328.985 145.629 330.216 145.791Z" fill="white"/>
<g opacity="0.6">
<path d="M352.184 155.439C351.157 155.177 350.268 155.828 350.205 156.887L350.084 158.955C350.022 160.014 350.819 161.057 351.855 161.276L382.035 167.64C383.071 167.859 384.087 167.187 384.293 166.148L384.393 165.636C384.599 164.597 383.928 163.533 382.901 163.271L352.184 155.439Z" fill="white"/>
</g>
<path d="M270.274 181.617C270.264 181.615 270.254 181.612 270.243 181.61L258.799 179.083C257.164 178.721 256.05 177.309 256.206 175.796L257.225 165.958C257.285 165.38 257.578 164.859 258.05 164.489C258.579 164.076 259.285 163.895 259.987 163.993C260.967 164.131 262.352 164.302 263.818 164.483C266.905 164.864 270.747 165.338 272.877 165.76C274.42 166.077 275.535 167.265 275.615 168.684C275.747 171.019 274.813 175.191 273.761 179.622C273.419 181.062 271.859 181.951 270.274 181.617ZM259.862 164.884C259.4 164.82 258.942 164.934 258.605 165.198C258.326 165.415 258.155 165.718 258.12 166.051L257.1 175.889C256.991 176.946 257.804 177.94 258.993 178.203L270.436 180.731C270.444 180.732 270.452 180.734 270.459 180.736C271.57 180.97 272.655 180.381 272.885 179.414C273.921 175.05 274.841 170.949 274.716 168.734C274.659 167.742 273.821 166.882 272.702 166.643C270.605 166.229 266.78 165.756 263.708 165.377C262.238 165.195 260.85 165.024 259.862 164.884Z" fill="white"/>
<path opacity="0.6" d="M260.885 166.139C263.329 166.482 268.677 167.054 271.167 167.546C272.222 167.755 273.011 168.585 273.065 169.55C273.171 171.424 272.363 174.945 271.593 178.188C271.363 179.16 270.301 179.749 269.209 179.509L260.063 177.489C258.938 177.24 258.165 176.274 258.27 175.251L259.086 167.389C259.171 166.577 259.98 166.011 260.885 166.139Z" fill="white"/>
<g opacity="0.6">
<path d="M281.692 177.349C281.759 178.679 282.718 179.794 284.022 180.057L390.31 201.523C391.512 201.765 392.681 200.977 392.908 199.771C393.129 198.599 392.375 197.464 391.209 197.213L285.211 174.357C283.34 173.954 281.596 175.437 281.692 177.349Z" fill="white"/>
</g>
<path d="M261.057 167.751C262.014 167.43 263.046 167.96 263.345 168.923L264.752 173.456C264.893 173.91 265.491 174.009 265.771 173.626L274.012 162.314C274.423 161.749 275.306 162.157 275.153 162.836C274.291 166.647 271.746 173.698 264.361 178.492C264.361 178.492 261.273 176.475 259.818 169.952C259.609 169.011 260.142 168.057 261.057 167.751Z" fill="url(#paint2_linear_585_4087)"/>
<path d="M265.095 206.205C265.084 206.203 265.074 206.2 265.063 206.198L253.62 203.671C251.984 203.309 250.87 201.896 251.026 200.384L252.046 190.546C252.106 189.968 252.399 189.447 252.871 189.077C253.399 188.664 254.105 188.482 254.807 188.581C255.787 188.719 257.173 188.89 258.639 189.071C261.726 189.452 265.568 189.926 267.698 190.348C267.713 190.352 267.729 190.354 267.745 190.358C269.253 190.676 270.356 191.867 270.436 193.272C270.569 195.607 269.634 199.779 268.583 204.21C268.239 205.649 266.68 206.539 265.095 206.205ZM254.682 189.472C254.22 189.407 253.763 189.521 253.425 189.786C253.147 190.003 252.975 190.306 252.94 190.639L251.921 200.477C251.812 201.534 252.624 202.528 253.813 202.791L265.257 205.319C265.264 205.32 265.272 205.322 265.28 205.323C266.39 205.558 267.476 204.969 267.705 204.002C268.741 199.637 269.661 195.537 269.536 193.322C269.48 192.33 268.632 191.446 267.522 191.231C265.425 190.816 261.601 190.344 258.528 189.965C257.058 189.782 255.671 189.612 254.682 189.472Z" fill="white"/>
<path opacity="0.6" d="M255.708 190.726C258.151 191.07 263.499 191.642 265.989 192.134C267.045 192.343 267.833 193.173 267.887 194.138C267.993 196.012 267.185 199.532 266.415 202.776C266.185 203.747 265.123 204.337 264.031 204.097L254.885 202.076C253.76 201.828 252.987 200.862 253.093 199.839L253.908 191.977C253.992 191.163 254.801 190.599 255.708 190.726Z" fill="white"/>
<g opacity="0.6">
<path d="M276.512 201.937C276.579 203.267 277.539 204.382 278.843 204.645L385.13 226.111C386.332 226.353 387.502 225.565 387.729 224.359C387.95 223.187 387.196 222.052 386.03 221.801L280.031 198.945C278.161 198.541 276.416 200.025 276.512 201.937Z" fill="white"/>
</g>
<path d="M255.877 192.338C256.834 192.018 257.867 192.547 258.166 193.511L259.573 198.044C259.713 198.498 260.311 198.597 260.591 198.213L268.832 186.902C269.243 186.337 270.127 186.744 269.973 187.424C269.111 191.234 266.567 198.285 259.181 203.08C259.181 203.08 256.093 201.063 254.638 194.54C254.429 193.597 254.962 192.645 255.877 192.338Z" fill="url(#paint3_linear_585_4087)"/>
<path d="M259.915 230.792C259.904 230.789 259.895 230.787 259.884 230.784L248.44 228.257C246.805 227.897 245.691 226.484 245.847 224.972L246.866 215.134C246.926 214.556 247.219 214.035 247.691 213.665C248.219 213.251 248.925 213.07 249.628 213.169C250.607 213.307 251.993 213.477 253.459 213.659C256.546 214.039 260.388 214.514 262.518 214.936C262.534 214.939 262.549 214.942 262.565 214.945C264.073 215.264 265.176 216.455 265.257 217.859C265.389 220.195 264.455 224.366 263.403 228.798C263.06 230.237 261.5 231.127 259.915 230.792ZM249.503 214.06C249.04 213.995 248.583 214.109 248.246 214.373C247.967 214.591 247.795 214.894 247.76 215.226L246.741 225.064C246.632 226.121 247.445 227.116 248.633 227.378L260.077 229.906C260.084 229.908 260.093 229.91 260.1 229.911C261.21 230.145 262.296 229.556 262.525 228.59C263.561 224.226 264.481 220.125 264.356 217.91C264.3 216.918 263.452 216.031 262.343 215.818C260.245 215.404 256.421 214.932 253.348 214.552C251.879 214.37 250.491 214.198 249.503 214.06Z" fill="white"/>
<path opacity="0.6" d="M250.528 215.314C252.971 215.657 258.319 216.229 260.809 216.722C261.865 216.931 262.654 217.761 262.708 218.725C262.813 220.599 262.005 224.12 261.236 227.363C261.005 228.335 259.944 228.925 258.851 228.685L249.706 226.664C248.581 226.415 247.807 225.45 247.913 224.426L248.728 216.564C248.812 215.751 249.622 215.187 250.528 215.314Z" fill="white"/>
<g opacity="0.6">
<path d="M271.331 226.525C271.399 227.855 272.358 228.969 273.662 229.232L379.95 250.698C381.152 250.941 382.321 250.153 382.548 248.947C382.769 247.774 382.015 246.639 380.849 246.388L274.851 223.533C272.98 223.129 271.236 224.613 271.331 226.525Z" fill="white"/>
</g>
<path d="M250.697 216.926C251.654 216.605 252.687 217.135 252.986 218.098L254.393 222.632C254.534 223.086 255.131 223.184 255.411 222.801L263.653 211.489C264.063 210.925 264.947 211.332 264.793 212.012C263.931 215.822 261.387 222.873 254.002 227.667C254.002 227.667 250.913 225.65 249.458 219.128C249.249 218.185 249.782 217.232 250.697 216.926Z" fill="url(#paint4_linear_585_4087)"/>
<path d="M254.735 255.379C254.724 255.377 254.714 255.374 254.704 255.373L243.26 252.846C241.625 252.486 240.51 251.073 240.666 249.561L241.686 239.723C241.746 239.145 242.039 238.624 242.511 238.254C243.039 237.84 243.745 237.659 244.447 237.757C245.427 237.896 246.813 238.066 248.279 238.248C251.366 238.628 255.208 239.103 257.338 239.524C257.353 239.528 257.369 239.53 257.385 239.534C258.893 239.852 259.996 241.044 260.077 242.448C260.209 244.783 259.275 248.955 258.223 253.386C257.881 254.824 256.32 255.714 254.735 255.379ZM244.322 238.648C243.86 238.583 243.403 238.697 243.065 238.961C242.787 239.178 242.615 239.481 242.58 239.814L241.561 249.652C241.452 250.709 242.265 251.704 243.453 251.965L254.897 254.494C254.904 254.495 254.912 254.498 254.92 254.499C256.03 254.733 257.116 254.144 257.346 253.177C258.382 248.813 259.302 244.712 259.177 242.497C259.121 241.505 258.274 240.615 257.164 240.406C255.066 239.992 251.242 239.52 248.169 239.14C246.699 238.957 245.311 238.786 244.322 238.648Z" fill="white"/>
<path opacity="0.6" d="M245.348 239.902C247.792 240.245 253.14 240.817 255.63 241.31C256.685 241.519 257.474 242.349 257.528 243.313C257.634 245.187 256.826 248.708 256.056 251.951C255.825 252.923 254.764 253.513 253.671 253.272L244.526 251.252C243.401 251.003 242.628 250.038 242.733 249.014L243.549 241.152C243.633 240.339 244.442 239.774 245.348 239.902Z" fill="white"/>
<g opacity="0.6">
<path d="M266.153 251.113C266.22 252.442 267.179 253.557 268.483 253.82L374.771 275.286C375.973 275.529 377.142 274.741 377.369 273.534C377.589 272.362 376.836 271.227 375.67 270.976L269.672 248.12C267.801 247.717 266.058 249.199 266.153 251.113Z" fill="white"/>
</g>
<path d="M245.517 241.514C246.474 241.193 247.507 241.723 247.806 242.686L249.213 247.219C249.353 247.673 249.951 247.772 250.231 247.389L258.473 236.077C258.883 235.512 259.767 235.92 259.613 236.599C258.751 240.41 256.207 247.461 248.821 252.255C248.821 252.255 245.733 250.238 244.278 243.715C244.069 242.772 244.602 241.82 245.517 241.514Z" fill="url(#paint5_linear_585_4087)"/>
<path d="M102.261 49.1113C101.563 45.7671 103.978 42.5791 107.386 42.3545C129.984 40.8697 207.483 34.7303 269.035 17.2226C271.842 16.4238 274.755 18.0827 275.487 20.9092L335.586 253.008C336.41 256.19 334.512 259.441 331.337 260.284C305.355 267.185 198.276 295.209 158.825 299.011C156.424 299.243 154.238 297.625 153.744 295.262L102.261 49.1113Z" fill="#DAA7EE"/>
<path opacity="0.6" d="M106.046 54.465C105.373 51.247 107.7 48.1779 110.979 47.9629C132.725 46.5334 207.307 40.6258 266.54 23.7776C269.241 23.0088 272.045 24.6052 272.749 27.3248L330.584 250.684C331.377 253.747 329.551 256.873 326.495 257.685C301.492 264.326 198.444 291.297 160.479 294.954C158.169 295.177 156.064 293.62 155.589 291.347L106.046 54.465Z" fill="white"/>
<path opacity="0.78" d="M129.173 67.8923L141.248 115.844C141.65 117.439 143.21 118.454 144.829 118.173C153.842 116.605 181.904 111.612 197.504 107.586C199.269 107.131 200.387 105.4 200.084 103.603C198.541 94.4631 193.835 67.9067 189.525 57.2807C188.828 55.5642 187.03 54.5684 185.204 54.8735L131.86 63.7829C129.935 64.1048 128.696 66.0003 129.173 67.8923Z" fill="white"/>
<path d="M173.754 79.7283C174.153 73.8772 169.735 68.8106 163.887 68.4119C158.038 68.0131 152.974 72.433 152.575 78.2841C152.177 84.1352 156.595 89.2017 162.443 89.6005C168.292 89.9993 173.356 85.5793 173.754 79.7283Z" fill="#A78BEF"/>
<path d="M153.568 112.77L186.706 106.036C188.738 105.622 189.499 103.131 188.058 101.64C184.35 97.8061 177.145 92.5291 167.006 94.8943C157.232 97.173 152.594 104.205 150.516 108.993C149.632 111.025 151.397 113.21 153.568 112.77Z" fill="#A78BEF"/>
<g opacity="0.6">
<path d="M262.544 45.1785C263.582 44.9671 264.261 44.0686 264.055 43.1809C263.847 42.2932 262.825 41.7238 261.784 41.916L203.491 52.6825C202.45 52.8747 202.042 53.7756 202.586 54.6849L203.024 55.4176C203.568 56.327 204.861 56.8987 205.9 56.6873L262.544 45.1785Z" fill="white"/>
</g>
<g opacity="0.6">
<path d="M205.322 61.7083C204.281 61.9005 203.873 62.8014 204.417 63.7108L204.855 64.4435C205.399 65.3528 206.692 65.9246 207.731 65.7132L264.376 54.2031C265.414 53.9917 266.093 53.0932 265.887 52.2055C265.679 51.3178 264.657 50.7484 263.616 50.9406L205.322 61.7083Z" fill="white"/>
</g>
<g opacity="0.6">
<path d="M207.181 70.8641C206.14 71.0563 205.731 71.9572 206.275 72.8665L206.713 73.5993C207.257 74.5086 208.551 75.0804 209.589 74.8689L266.235 63.3589C267.272 63.1475 267.952 62.249 267.745 61.3613C267.538 60.4736 266.516 59.9042 265.475 60.0964L207.181 70.8641Z" fill="white"/>
</g>
<g opacity="0.6">
<path d="M280.839 106.366C281.877 106.154 282.53 105.262 282.29 104.38C282.05 103.499 281.003 102.944 279.963 103.147L143.673 129.724C142.633 129.927 142.447 130.65 143.258 131.33L144.653 132.501C145.465 133.182 146.978 133.566 148.015 133.355L280.839 106.366Z" fill="white"/>
</g>
<g opacity="0.6">
<path d="M145.506 138.748C144.466 138.951 144.28 139.675 145.091 140.354L146.486 141.526C147.298 142.207 148.811 142.591 149.848 142.38L282.672 115.39C283.71 115.178 284.363 114.286 284.123 113.404C283.883 112.522 282.836 111.967 281.796 112.17L145.506 138.748Z" fill="white"/>
</g>
<path opacity="0.6" d="M147.949 153.94C151.17 153.025 157.274 151.664 160.636 150.931C162.061 150.621 163.51 151.335 164.128 152.656C165.328 155.223 167.177 159.729 168.073 164.719C168.34 166.213 167.364 167.647 165.874 167.934L153.402 170.329C151.868 170.624 150.359 169.712 149.908 168.217L146.435 156.726C146.075 155.535 146.756 154.28 147.949 153.94Z" fill="white"/>
<g opacity="0.6">
<path d="M171.943 154.073C170.897 154.24 170.339 155.192 170.701 156.188L171.41 158.134C171.772 159.129 172.918 159.771 173.957 159.561L204.182 153.419C205.22 153.207 205.886 152.188 205.663 151.152L205.552 150.643C205.329 149.607 204.29 148.897 203.245 149.064L171.943 154.073Z" fill="white"/>
</g>
<path opacity="0.6" d="M215.752 140.163C218.972 139.248 225.076 137.887 228.439 137.154C229.865 136.845 231.314 137.558 231.932 138.879C233.132 141.446 234.981 145.952 235.876 150.942C236.144 152.436 235.168 153.871 233.678 154.158L221.205 156.553C219.672 156.847 218.163 155.935 217.711 154.44L214.239 142.949C213.878 141.759 214.558 140.502 215.752 140.163Z" fill="white"/>
<g opacity="0.6">
<path d="M239.744 140.297C238.698 140.464 238.14 141.415 238.502 142.411L239.211 144.357C239.573 145.353 240.719 145.994 241.757 145.784L271.983 139.642C273.021 139.431 273.687 138.411 273.464 137.375L273.353 136.866C273.13 135.831 272.091 135.119 271.045 135.288L239.744 140.297Z" fill="white"/>
</g>
<path d="M174.945 196.846C174.934 196.849 174.924 196.851 174.914 196.852L163.407 199.076C161.764 199.393 160.18 198.539 159.724 197.089L156.757 187.655C156.583 187.101 156.645 186.506 156.931 185.979C157.252 185.389 157.828 184.944 158.512 184.754C159.467 184.491 160.806 184.098 162.222 183.682C165.207 182.807 168.922 181.716 171.044 181.257C172.585 180.936 174.08 181.584 174.717 182.854C175.764 184.945 176.562 189.144 177.355 193.63C177.613 195.088 176.533 196.523 174.945 196.846ZM158.751 185.622C158.301 185.746 157.926 186.033 157.721 186.409C157.552 186.719 157.515 187.066 157.614 187.385L160.581 196.819C160.899 197.833 162.041 198.422 163.236 198.192L174.742 195.968C174.749 195.967 174.758 195.965 174.765 195.964C175.878 195.738 176.64 194.766 176.467 193.787C175.687 189.369 174.904 185.24 173.911 183.257C173.466 182.368 172.355 181.913 171.234 182.138C169.143 182.589 165.446 183.675 162.476 184.546C161.055 184.963 159.713 185.357 158.751 185.622Z" fill="white"/>
<path opacity="0.6" d="M160.188 186.366C162.566 185.711 167.703 184.112 170.184 183.577C171.234 183.349 172.288 183.799 172.721 184.662C173.561 186.341 174.215 189.893 174.795 193.175C174.969 194.159 174.23 195.123 173.131 195.334L163.936 197.111C162.805 197.329 161.713 196.749 161.404 195.769L159.033 188.229C158.788 187.449 159.307 186.608 160.188 186.366Z" fill="white"/>
<g opacity="0.6">
<path d="M183.733 188.395C184.321 189.589 185.644 190.23 186.946 189.955L293.02 167.457C294.219 167.203 294.981 166.016 294.709 164.818C294.446 163.654 293.304 162.912 292.135 163.144L185.775 184.252C183.898 184.624 182.886 186.678 183.733 188.395Z" fill="white"/>
</g>
<path d="M179.945 221.471C179.934 221.474 179.924 221.476 179.913 221.477L168.406 223.701C166.762 224.018 165.179 223.164 164.722 221.714L161.755 212.278C161.581 211.725 161.644 211.13 161.931 210.603C162.251 210.013 162.828 209.567 163.512 209.377C164.467 209.114 165.805 208.722 167.222 208.306C170.207 207.43 173.922 206.34 176.043 205.881C176.059 205.877 176.075 205.873 176.089 205.871C177.6 205.565 179.086 206.221 179.715 207.478C180.762 209.57 181.561 213.769 182.353 218.254C182.611 219.713 181.533 221.148 179.945 221.471ZM163.751 210.247C163.301 210.371 162.926 210.658 162.721 211.034C162.551 211.344 162.514 211.691 162.614 212.009L165.581 221.444C165.899 222.457 167.041 223.047 168.235 222.817L179.742 220.593C179.749 220.592 179.757 220.59 179.764 220.588C180.877 220.363 181.64 219.391 181.467 218.412C180.687 213.994 179.904 209.865 178.911 207.882C178.465 206.994 177.337 206.52 176.233 206.762C174.144 207.214 170.446 208.3 167.475 209.171C166.055 209.588 164.711 209.982 163.751 210.247Z" fill="white"/>
<path opacity="0.6" d="M165.188 210.991C167.566 210.336 172.703 208.737 175.184 208.202C176.234 207.974 177.288 208.424 177.721 209.287C178.561 210.966 179.215 214.518 179.795 217.8C179.969 218.784 179.23 219.748 178.131 219.959L168.936 221.736C167.805 221.954 166.713 221.375 166.404 220.394L164.033 212.854C163.787 212.074 164.307 211.233 165.188 210.991Z" fill="white"/>
<g opacity="0.6">
<path d="M188.733 213.02C189.321 214.214 190.644 214.855 191.946 214.58L298.02 192.082C299.219 191.828 299.981 190.641 299.709 189.443C299.446 188.279 298.304 187.537 297.135 187.769L190.775 208.877C188.898 209.249 187.886 211.303 188.733 213.02Z" fill="white"/>
</g>
<path d="M184.944 246.095C184.933 246.097 184.923 246.1 184.913 246.101L173.406 248.324C171.763 248.643 170.179 247.789 169.723 246.338L166.756 236.903C166.582 236.35 166.644 235.754 166.931 235.226C167.252 234.637 167.828 234.191 168.512 234.002C169.467 233.739 170.806 233.347 172.223 232.931C175.207 232.055 178.922 230.965 181.044 230.506C181.06 230.502 181.075 230.498 181.09 230.496C182.6 230.19 184.087 230.846 184.716 232.103C185.763 234.195 186.561 238.394 187.354 242.879C187.611 244.338 186.531 245.773 184.944 246.095ZM168.75 234.871C168.3 234.995 167.925 235.282 167.72 235.658C167.551 235.968 167.514 236.315 167.613 236.633L170.58 246.067C170.898 247.081 172.04 247.671 173.235 247.44L184.742 245.217C184.749 245.216 184.758 245.213 184.765 245.212C185.878 244.986 186.64 244.015 186.467 243.036C185.687 238.617 184.904 234.489 183.911 232.506C183.466 231.618 182.336 231.14 181.234 231.386C179.145 231.838 175.446 232.924 172.476 233.795C171.053 234.213 169.711 234.607 168.75 234.871Z" fill="white"/>
<path opacity="0.6" d="M170.187 235.616C172.566 234.961 177.702 233.362 180.183 232.826C181.234 232.599 182.288 233.049 182.72 233.912C183.561 235.59 184.215 239.142 184.795 242.425C184.969 243.409 184.229 244.372 183.131 244.584L173.936 246.36C172.805 246.579 171.712 245.999 171.404 245.019L169.032 237.479C168.786 236.698 169.305 235.858 170.187 235.616Z" fill="white"/>
<g opacity="0.6">
<path d="M193.732 237.644C194.32 238.838 195.643 239.481 196.945 239.205L303.019 216.707C304.218 216.453 304.98 215.266 304.708 214.068C304.445 212.904 303.303 212.162 302.134 212.394L195.774 233.501C193.897 233.874 192.884 235.928 193.732 237.644Z" fill="white"/>
</g>
<path d="M189.944 270.72C189.933 270.722 189.924 270.725 189.913 270.726L178.407 272.949C176.763 273.268 175.18 272.414 174.723 270.963L171.756 261.527C171.582 260.973 171.645 260.378 171.932 259.85C172.252 259.26 172.829 258.815 173.513 258.626C174.468 258.363 175.806 257.97 177.223 257.555C180.208 256.679 183.923 255.588 186.044 255.129C186.06 255.126 186.076 255.122 186.09 255.12C187.601 254.814 189.087 255.469 189.716 256.727C190.763 258.818 191.562 263.018 192.354 267.503C192.611 268.963 191.532 270.398 189.944 270.72ZM173.75 259.496C173.299 259.62 172.925 259.907 172.719 260.283C172.55 260.593 172.513 260.94 172.612 261.258L175.579 270.692C175.898 271.706 177.039 272.296 178.234 272.065L189.741 269.842C189.749 269.841 189.757 269.838 189.764 269.837C190.877 269.611 191.64 268.639 191.467 267.661C190.686 263.242 189.903 259.114 188.911 257.131C188.465 256.242 187.335 255.761 186.233 256.011C184.144 256.463 180.446 257.549 177.475 258.42C176.054 258.838 174.711 259.232 173.75 259.496Z" fill="white"/>
<path opacity="0.6" d="M175.187 260.241C177.565 259.586 182.702 257.987 185.183 257.451C186.233 257.224 187.287 257.674 187.72 258.537C188.56 260.215 189.214 263.767 189.794 267.05C189.969 268.034 189.229 268.997 188.13 269.209L178.935 270.985C177.804 271.204 176.712 270.624 176.403 269.644L174.032 262.104C173.786 261.323 174.304 260.483 175.187 260.241Z" fill="white"/>
<g opacity="0.6">
<path d="M198.731 262.269C199.319 263.463 200.642 264.105 201.944 263.83L308.018 241.332C309.217 241.078 309.978 239.891 309.707 238.693C309.444 237.529 308.302 236.787 307.133 237.019L200.773 258.126C198.898 258.499 197.884 260.553 198.731 262.269Z" fill="white"/>
</g>
<path d="M175.982 261.653C176.732 260.979 177.891 261.055 178.548 261.821L181.638 265.424C181.948 265.784 182.535 265.638 182.64 265.175L185.717 251.52C185.871 250.839 186.842 250.86 186.972 251.547C187.691 255.386 188.153 262.869 183.277 270.201C183.277 270.201 179.643 269.575 175.719 264.166C175.152 263.384 175.264 262.297 175.982 261.653Z" fill="url(#paint6_linear_585_4087)"/>
<path d="M171.059 249.918C172.112 260.976 174.585 275.596 177.557 288.193H179.423C175.58 272.99 172.044 252.171 173.085 228.172C174.135 203.969 180.059 174.584 169.012 160.548C159.817 148.865 120.8 147.118 107.971 146.861C106.368 146.829 105.449 148.676 106.447 149.933C111.366 156.125 121.666 170.464 122.562 182.987C123.745 199.491 136.567 212.445 149.306 217.837C162.048 223.23 168.909 227.343 171.059 249.918Z" fill="#6EE213"/>
<path opacity="0.5" d="M124.012 157.063C131.904 159.067 139.369 162.669 145.899 167.603C149.171 170.059 152.136 172.947 154.693 176.17C157.223 179.411 159.347 183.001 160.822 186.857L161.368 188.304C161.547 188.789 161.68 189.287 161.837 189.778C161.983 190.271 162.147 190.768 162.277 191.257L162.667 192.724C163.192 194.678 163.706 196.636 164.2 198.598C165.196 202.521 166.129 206.461 166.999 210.413C168.746 218.318 170.248 226.276 171.261 234.323C171.285 234.516 171.149 234.692 170.956 234.717C170.77 234.741 170.6 234.614 170.566 234.431L170.564 234.42C169.843 230.46 169.046 226.498 168.174 222.561C167.321 218.618 166.419 214.686 165.475 210.764L164.041 204.886L162.54 199.024C162.04 197.07 161.521 195.121 160.993 193.174L160.601 191.713C160.47 191.226 160.314 190.765 160.172 190.289C160.023 189.818 159.898 189.337 159.729 188.874L159.213 187.483C157.827 183.773 155.785 180.338 153.404 177.173C152.178 175.616 150.897 174.094 149.474 172.704L148.95 172.173L148.406 171.663C148.043 171.324 147.687 170.976 147.315 170.644C146.563 169.992 145.819 169.329 145.031 168.716C141.928 166.208 138.519 164.081 134.976 162.214C131.432 160.352 127.704 158.779 123.879 157.615L123.861 157.609C123.712 157.563 123.627 157.406 123.672 157.255C123.716 157.11 123.867 157.026 124.012 157.063Z" fill="white"/>
<path d="M171.426 264.895C178.099 274.696 177.242 280.18 177.447 284.826C177.483 285.651 177.529 286.816 177.625 288.194H179.448C179.075 286.303 178.811 284.397 178.718 282.526C178.069 269.697 175.176 247.802 164.117 234.705C153.059 221.607 140.95 220.412 125.692 232.319C112.977 242.241 105.045 247.249 100.394 248.18C99.2423 248.411 98.6539 249.712 99.2146 250.745C102.198 256.241 110.633 268.867 124.795 267.979C142.859 266.843 164.754 255.094 171.426 264.895Z" fill="#6EE213"/>
<path opacity="0.5" d="M130.86 248.094C131.859 247.142 132.918 246.285 134.01 245.457C135.103 244.632 136.228 243.846 137.4 243.129C139.735 241.686 142.228 240.455 144.881 239.607C146.208 239.188 147.576 238.865 148.974 238.687C150.372 238.518 151.802 238.495 153.219 238.67C153.572 238.728 153.928 238.761 154.278 238.84C154.625 238.921 154.984 238.988 155.32 239.085L157.311 239.702L159.259 240.46L161.148 241.368C163.624 242.674 165.863 244.437 167.727 246.514C169.604 248.586 171.074 250.973 172.283 253.446L172.737 254.375C172.893 254.682 173.006 255.008 173.142 255.324C173.399 255.962 173.675 256.591 173.915 257.234L174.585 259.178C174.823 259.822 174.974 260.491 175.166 261.147C175.924 263.777 176.445 266.457 176.895 269.14C176.92 269.29 176.819 269.432 176.669 269.457C176.526 269.481 176.391 269.39 176.357 269.252L176.355 269.243C175.718 266.614 175.106 263.981 174.232 261.433C173.834 260.147 173.331 258.901 172.864 257.645C172.612 257.024 172.324 256.419 172.057 255.807C171.916 255.504 171.797 255.19 171.637 254.897L171.171 254.012C169.939 251.649 168.443 249.434 166.657 247.498C164.869 245.561 162.747 243.963 160.424 242.74L158.642 241.895L156.797 241.189L154.901 240.611C154.586 240.522 154.278 240.462 153.966 240.387C153.655 240.313 153.334 240.283 153.018 240.228C151.745 240.061 150.444 240.071 149.151 240.218C147.856 240.357 146.568 240.629 145.303 240.999C142.768 241.738 140.323 242.84 137.975 244.122C136.805 244.774 135.647 245.453 134.522 246.19C133.4 246.927 132.292 247.706 131.237 248.524L131.229 248.528C131.105 248.625 130.926 248.603 130.828 248.478C130.741 248.359 130.755 248.193 130.86 248.094Z" fill="white"/>
<path d="M171.802 72.8988C171.802 62.8555 179.94 54.7148 189.978 54.7148H344.548C353.076 54.7148 360.108 61.4008 360.541 69.921L371.951 294.119C372.291 300.787 367.044 306.412 360.372 306.533L183.214 309.754C176.945 309.869 171.802 304.815 171.802 298.542V72.8988Z" fill="url(#paint7_linear_585_4087)"/>
<path d="M184.464 58.1647C184.445 54.9514 187.27 52.4649 190.452 52.8961C211.56 55.7598 284.145 64.6164 344.157 60.0085C346.894 59.7983 349.27 61.8728 349.415 64.6152L361.379 289.813C361.543 292.901 359.186 295.542 356.1 295.724C330.86 297.219 226.913 302.995 189.837 299.11C187.581 298.874 185.868 296.973 185.855 294.703L184.464 58.1647Z" fill="#91B3FA"/>
<path opacity="0.6" d="M186.95 63.808C186.932 60.7161 189.651 58.3221 192.714 58.7377C213.027 61.4933 282.879 70.0171 340.631 65.5822C343.266 65.3804 345.55 67.3768 345.691 70.0159L357.204 286.734C357.362 289.706 355.093 292.247 352.124 292.423C327.834 293.861 227.802 299.42 192.122 295.682C189.95 295.455 188.302 293.626 188.289 291.441L186.95 63.808Z" fill="#A78BEF"/>
<path opacity="0.78" d="M205.755 80.5169L207.913 126.979C207.985 128.523 209.232 129.752 210.777 129.797C219.378 130.039 246.179 130.693 261.313 129.904C263.025 129.815 264.379 128.429 264.436 126.714C264.724 118.001 265.355 92.6396 263.371 82.0389C263.05 80.3259 261.579 79.0719 259.838 79.0106L209 77.2316C207.167 77.1691 205.67 78.6839 205.755 80.5169Z" fill="white"/>
<path d="M235.009 107.117C240.522 107.117 244.992 102.645 244.992 97.1285C244.992 91.6122 240.522 87.1404 235.009 87.1404C229.495 87.1404 225.025 91.6122 225.025 97.1285C225.025 102.645 229.495 107.117 235.009 107.117Z" fill="url(#paint8_linear_585_4087)"/>
<path d="M219.844 126.453H251.65C253.6 126.453 254.768 124.299 253.718 122.654C251.017 118.425 245.364 112.212 235.575 112.492C226.14 112.762 220.548 118.374 217.736 122.4C216.543 124.109 217.76 126.453 219.844 126.453Z" fill="url(#paint9_linear_585_4087)"/>
<g opacity="0.6">
<path d="M332.944 84.5613C333.94 84.5613 334.734 83.8598 334.71 83.0021C334.685 82.1444 333.849 81.4285 332.854 81.4117L277.106 80.4183C276.111 80.4003 275.565 81.1546 275.897 82.0952L276.163 82.8532C276.495 83.7937 277.58 84.5625 278.576 84.5625H332.944V84.5613Z" fill="white"/>
</g>
<g opacity="0.6">
<path d="M277.105 89.0792C276.11 89.0612 275.565 89.8155 275.896 90.7561L276.162 91.514C276.494 92.4546 277.579 93.2234 278.575 93.2234H332.943C333.939 93.2234 334.733 92.5219 334.709 91.6642C334.684 90.8065 333.848 90.0906 332.853 90.0738L277.105 89.0792Z" fill="white"/>
</g>
<g opacity="0.6">
<path d="M277.105 97.8673C276.11 97.8492 275.565 98.6036 275.896 99.5442L276.162 100.302C276.494 101.243 277.579 102.011 278.575 102.011H332.943C333.939 102.011 334.733 101.31 334.709 100.452C334.684 99.5946 333.848 98.8787 332.853 98.8619L277.105 97.8673Z" fill="white"/>
</g>
<g opacity="0.6">
<path d="M338.359 144.389C339.355 144.389 340.124 143.688 340.067 142.83C340.011 141.972 339.15 141.265 338.154 141.258L207.552 140.228C206.555 140.22 206.248 140.852 206.869 141.631L207.936 142.972C208.557 143.751 209.879 144.389 210.875 144.389H338.359Z" fill="white"/>
</g>
<g opacity="0.6">
<path d="M207.552 148.889C206.555 148.88 206.248 149.512 206.869 150.292L207.936 151.632C208.557 152.412 209.879 153.05 210.875 153.05H338.36C339.357 153.05 340.125 152.348 340.069 151.491C340.012 150.633 339.151 149.925 338.155 149.918L207.552 148.889Z" fill="white"/>
</g>
<path d="M206.961 163.35C210.101 163.11 215.982 162.998 219.219 162.953C220.59 162.933 221.793 163.863 222.115 165.197C222.74 167.788 223.602 172.287 223.494 177.054C223.461 178.481 222.292 179.621 220.865 179.605L208.92 179.477C207.451 179.461 206.231 178.338 206.095 176.874L205.044 165.631C204.935 164.47 205.797 163.44 206.961 163.35Z" fill="url(#paint10_linear_585_4087)"/>
<g opacity="0.6">
<path d="M229.053 167.968C228.057 167.926 227.364 168.698 227.512 169.684L227.801 171.611C227.949 172.596 228.886 173.403 229.881 173.403H258.892C259.888 173.403 260.693 172.588 260.681 171.592L260.675 171.102C260.663 170.105 259.838 169.255 258.843 169.215L229.053 167.968Z" fill="white"/>
</g>
<path d="M272.037 163.35C275.177 163.11 281.058 162.998 284.295 162.953C285.666 162.933 286.869 163.863 287.191 165.197C287.815 167.788 288.677 172.287 288.569 177.054C288.537 178.481 287.367 179.621 285.941 179.605L273.995 179.477C272.527 179.461 271.307 178.338 271.17 176.874L270.119 165.631C270.011 164.47 270.874 163.44 272.037 163.35Z" fill="url(#paint11_linear_585_4087)"/>
<g opacity="0.6">
<path d="M294.128 167.968C293.132 167.926 292.44 168.698 292.587 169.684L292.877 171.611C293.024 172.596 293.961 173.403 294.956 173.403H323.967C324.964 173.403 325.768 172.588 325.756 171.592L325.75 171.102C325.738 170.105 324.913 169.255 323.918 169.215L294.128 167.968Z" fill="white"/>
</g>
<path d="M223.815 207.956C223.806 207.956 223.795 207.956 223.785 207.956L212.763 207.851C211.188 207.835 209.889 206.751 209.738 205.329L208.769 196.076C208.713 195.533 208.881 194.996 209.244 194.564C209.65 194.081 210.264 193.777 210.931 193.731C211.859 193.668 213.168 193.556 214.552 193.438C217.467 193.19 221.096 192.881 223.137 192.856C224.618 192.849 225.874 193.725 226.224 195.016C226.798 197.139 226.747 201.16 226.638 205.443C226.602 206.834 225.339 207.956 223.815 207.956ZM210.988 194.577C210.55 194.607 210.151 194.802 209.892 195.109C209.678 195.364 209.579 195.676 209.611 195.987L210.58 205.24C210.685 206.234 211.626 206.992 212.77 207.004L223.792 207.109C223.8 207.109 223.807 207.109 223.814 207.109C224.883 207.109 225.766 206.356 225.79 205.422C225.898 201.203 225.949 197.251 225.405 195.237C225.161 194.334 224.222 193.706 223.146 193.703C221.135 193.728 217.524 194.035 214.623 194.283C213.235 194.401 211.924 194.512 210.988 194.577Z" fill="white"/>
<path opacity="0.6" d="M212.175 195.532C214.491 195.374 219.523 194.863 221.91 194.833C222.921 194.82 223.808 195.431 224.046 196.309C224.507 198.014 224.446 201.41 224.365 204.545C224.341 205.484 223.479 206.234 222.427 206.223L213.619 206.139C212.536 206.128 211.637 205.389 211.536 204.427L210.761 197.034C210.68 196.267 211.316 195.591 212.175 195.532Z" fill="white"/>
<g opacity="0.6">
<path d="M233.496 201.812C233.816 203.023 234.914 203.862 236.166 203.852L338.152 202.982C339.306 202.972 340.229 202.02 340.204 200.867C340.18 199.745 339.266 198.846 338.145 198.841L236.156 198.376C234.355 198.368 233.037 200.07 233.496 201.812Z" fill="white"/>
</g>
<path d="M212.644 196.983C213.463 196.503 214.516 196.79 214.978 197.619L217.152 201.518C217.37 201.908 217.939 201.883 218.122 201.476L223.515 189.465C223.784 188.865 224.676 189.068 224.666 189.725C224.611 193.399 223.637 200.383 217.769 206.228C217.769 206.228 214.536 204.97 211.932 199.25C211.555 198.422 211.861 197.442 212.644 196.983Z" fill="url(#paint12_linear_585_4087)"/>
<path d="M223.815 231.591C223.806 231.591 223.795 231.591 223.785 231.591L212.763 231.486C211.188 231.47 209.889 230.387 209.738 228.964L208.769 219.711C208.713 219.168 208.881 218.632 209.244 218.199C209.65 217.716 210.264 217.412 210.931 217.367C211.859 217.303 213.168 217.191 214.552 217.074C217.467 216.825 221.096 216.516 223.137 216.491C223.151 216.491 223.167 216.491 223.181 216.491C224.63 216.491 225.878 217.374 226.224 218.651C226.798 220.774 226.747 224.795 226.638 229.079C226.602 230.47 225.339 231.591 223.815 231.591ZM210.988 218.212C210.55 218.242 210.151 218.437 209.892 218.744C209.678 218.999 209.579 219.311 209.611 219.623L210.58 228.875C210.685 229.869 211.626 230.627 212.77 230.639L223.792 230.745C223.8 230.745 223.807 230.745 223.814 230.745C224.883 230.745 225.766 229.991 225.79 229.057C225.898 224.838 225.949 220.886 225.405 218.872C225.161 217.97 224.209 217.321 223.146 217.338C221.135 217.363 217.525 217.671 214.623 217.918C213.235 218.036 211.924 218.147 210.988 218.212Z" fill="white"/>
<path opacity="0.6" d="M212.175 219.167C214.491 219.009 219.523 218.498 221.91 218.468C222.921 218.456 223.808 219.066 224.046 219.944C224.507 221.649 224.446 225.045 224.365 228.18C224.341 229.119 223.479 229.869 222.427 229.858L213.619 229.774C212.536 229.763 211.637 229.024 211.536 228.062L210.761 220.669C210.68 219.902 211.316 219.225 212.175 219.167Z" fill="white"/>
<g opacity="0.6">
<path d="M233.496 225.447C233.816 226.658 234.914 227.498 236.166 227.487L338.152 226.617C339.306 226.608 340.229 225.655 340.204 224.502C340.18 223.38 339.266 222.481 338.145 222.477L236.156 222.012C234.355 222.002 233.037 223.705 233.496 225.447Z" fill="white"/>
</g>
<path d="M212.644 220.617C213.463 220.136 214.516 220.424 214.978 221.252L217.152 225.152C217.37 225.542 217.939 225.517 218.122 225.11L223.515 213.099C223.784 212.499 224.676 212.702 224.666 213.359C224.611 217.033 223.637 224.016 217.769 229.862C217.769 229.862 214.536 228.604 211.932 222.884C211.555 222.057 211.861 221.077 212.644 220.617Z" fill="url(#paint13_linear_585_4087)"/>
<path d="M223.815 255.225C223.806 255.225 223.795 255.225 223.785 255.225L212.763 255.12C211.188 255.105 209.889 254.02 209.738 252.598L208.769 243.345C208.713 242.802 208.881 242.265 209.244 241.833C209.65 241.35 210.264 241.046 210.931 241C211.859 240.937 213.168 240.825 214.552 240.707C217.467 240.459 221.096 240.15 223.137 240.125C223.151 240.125 223.167 240.125 223.181 240.125C224.63 240.125 225.878 241.008 226.224 242.285C226.798 244.408 226.747 248.429 226.638 252.712C226.602 254.105 225.339 255.225 223.815 255.225ZM210.988 241.846C210.55 241.876 210.151 242.071 209.892 242.378C209.678 242.633 209.579 242.945 209.611 243.258L210.58 252.51C210.685 253.504 211.626 254.262 212.77 254.273L223.792 254.378C223.8 254.378 223.807 254.378 223.814 254.378C224.883 254.378 225.766 253.625 225.79 252.691C225.898 248.472 225.949 244.52 225.405 242.506C225.161 241.603 224.209 240.951 223.146 240.972C221.135 240.997 217.525 241.304 214.623 241.552C213.235 241.671 211.924 241.782 210.988 241.846Z" fill="white"/>
<path opacity="0.6" d="M212.175 242.801C214.491 242.643 219.523 242.132 221.91 242.102C222.921 242.09 223.808 242.7 224.046 243.578C224.507 245.283 224.446 248.679 224.365 251.814C224.341 252.753 223.479 253.503 222.427 253.492L213.619 253.408C212.536 253.397 211.637 252.658 211.536 251.696L210.761 244.303C210.68 243.537 211.316 242.86 212.175 242.801Z" fill="white"/>
<g opacity="0.6">
<path d="M233.496 249.082C233.816 250.293 234.914 251.133 236.166 251.122L338.152 250.252C339.306 250.243 340.229 249.29 340.204 248.137C340.18 247.015 339.266 246.116 338.145 246.112L236.156 245.647C234.355 245.637 233.037 247.34 233.496 249.082Z" fill="white"/>
</g>
<path d="M212.644 244.252C213.463 243.772 214.516 244.059 214.978 244.888L217.152 248.787C217.37 249.177 217.939 249.152 218.122 248.745L223.515 236.734C223.784 236.134 224.676 236.337 224.666 236.994C224.611 240.668 223.637 247.652 217.769 253.497C217.769 253.497 214.536 252.239 211.932 246.519C211.555 245.692 211.861 244.712 212.644 244.252Z" fill="url(#paint14_linear_585_4087)"/>
<path d="M223.815 278.86C223.806 278.86 223.795 278.86 223.785 278.86L212.763 278.755C211.188 278.74 209.889 277.656 209.738 276.233L208.769 266.98C208.713 266.438 208.881 265.901 209.244 265.468C209.65 264.985 210.264 264.681 210.931 264.636C211.859 264.572 213.168 264.46 214.552 264.343C217.467 264.094 221.096 263.785 223.137 263.76C223.151 263.76 223.167 263.76 223.181 263.76C224.63 263.76 225.878 264.643 226.224 265.92C226.798 268.044 226.747 272.064 226.638 276.348C226.602 277.74 225.339 278.86 223.815 278.86ZM210.988 265.481C210.55 265.511 210.151 265.706 209.892 266.013C209.678 266.268 209.579 266.58 209.611 266.893L210.58 276.146C210.685 277.139 211.626 277.897 212.77 277.908L223.792 278.014C223.8 278.014 223.807 278.014 223.814 278.014C224.883 278.014 225.766 277.26 225.79 276.326C225.898 272.107 225.949 268.155 225.405 266.141C225.161 265.239 224.209 264.584 223.146 264.607C221.135 264.632 217.525 264.94 214.623 265.187C213.235 265.306 211.924 265.418 210.988 265.481Z" fill="white"/>
<path opacity="0.6" d="M212.175 266.436C214.491 266.278 219.523 265.767 221.91 265.737C222.921 265.725 223.808 266.335 224.046 267.213C224.507 268.918 224.446 272.314 224.365 275.449C224.341 276.388 223.479 277.138 222.427 277.127L213.619 277.043C212.536 277.032 211.637 276.293 211.536 275.331L210.761 267.938C210.68 267.172 211.316 266.495 212.175 266.436Z" fill="white"/>
<g opacity="0.6">
<path d="M233.496 272.718C233.816 273.928 234.914 274.768 236.166 274.757L338.152 273.887C339.306 273.878 340.229 272.925 340.204 271.772C340.18 270.65 339.266 269.752 338.145 269.747L236.156 269.282C234.355 269.272 233.037 270.976 233.496 272.718Z" fill="white"/>
</g>
<path d="M212.644 267.887C213.463 267.407 214.516 267.694 214.978 268.523L217.152 272.422C217.37 272.812 217.939 272.787 218.122 272.38L223.515 260.369C223.784 259.769 224.676 259.972 224.666 260.629C224.611 264.303 223.637 271.287 217.769 277.132C217.769 277.132 214.536 275.874 211.932 270.154C211.555 269.327 211.861 268.347 212.644 267.887Z" fill="url(#paint15_linear_585_4087)"/>
<path d="M276.85 24.1464C271.267 20.2604 266.412 20.3373 262.994 21.3463C259.877 22.2665 257.856 25.2779 258.153 28.5164L259.626 44.6103L277.164 46.167C277.164 46.167 287.8 31.7669 276.85 24.1464ZM269.138 37.1303C266.723 37.1303 264.765 35.1711 264.765 32.7555C264.765 30.3386 266.723 28.3806 269.138 28.3806C271.554 28.3806 273.511 30.3398 273.511 32.7555C273.511 35.1711 271.554 37.1303 269.138 37.1303Z" fill="url(#paint16_linear_585_4087)"/>
<path d="M261.378 37.8391C261.162 37.8391 260.977 37.6745 260.957 37.4547L260.722 34.8913C260.7 34.6583 260.872 34.4528 261.105 34.4312C261.342 34.4084 261.544 34.5814 261.565 34.8144L261.799 37.3778C261.82 37.6108 261.649 37.8162 261.416 37.8379C261.404 37.8391 261.392 37.8391 261.378 37.8391ZM260.919 32.8168C260.702 32.8168 260.518 32.6522 260.497 32.4324L260.318 30.4864C260.036 27.4017 261.976 24.5296 264.931 23.6563C267.024 23.0377 269.182 22.95 271.34 23.3933C271.57 23.4401 271.717 23.6635 271.669 23.893C271.623 24.1212 271.4 24.2677 271.17 24.2221C269.147 23.8077 267.128 23.8906 265.17 24.4683C262.601 25.2275 260.915 27.726 261.16 30.4096L261.338 32.3555C261.359 32.5886 261.187 32.794 260.955 32.8156C260.944 32.8168 260.931 32.8168 260.919 32.8168Z" fill="white"/>
<path d="M235.69 55.0104V46.919C235.69 44.1262 238.004 41.8883 240.794 41.9844L296.557 43.8956C299.032 43.9808 301.036 45.934 301.185 48.4073L301.65 56.1816L235.69 55.0104Z" fill="url(#paint17_linear_585_4087)"/>
<path d="M256.483 45.0332H254.086C253.852 45.0332 253.663 44.8434 253.663 44.6103C253.663 44.3761 253.853 44.1875 254.086 44.1875H256.483C256.718 44.1875 256.906 44.3773 256.906 44.6103C256.906 44.8434 256.716 45.0332 256.483 45.0332Z" fill="white"/>
<path d="M238.709 52.4699C238.475 52.4699 238.286 52.2801 238.286 52.0471V48.7737C238.286 46.244 240.343 44.1875 242.87 44.1875H251.687C251.921 44.1875 252.11 44.3773 252.11 44.6103C252.11 44.8446 251.92 45.0332 251.687 45.0332H242.87C240.809 45.0332 239.131 46.7113 239.131 48.7725V52.0458C239.133 52.2801 238.943 52.4699 238.709 52.4699Z" fill="white"/>
<path d="M316.413 107.864L303.286 97.1549L290.159 107.864C291.206 97.7916 291.693 86.553 291.14 74.3583C290.963 70.4747 290.691 66.7125 290.341 63.0801C290.297 62.6128 290.45 62.1491 290.766 61.802C291.082 61.4548 291.529 61.2578 291.997 61.2578C299.61 61.2578 307.225 61.2578 314.839 61.2578C315.722 61.2578 316.451 61.9497 316.498 62.8314C316.79 68.4111 316.979 74.1841 317.042 80.1409C317.146 89.8588 316.904 99.1153 316.413 107.864Z" fill="url(#paint18_linear_585_4087)"/>
<path d="M212.97 57.0535C213.104 54.2511 215.414 52.0493 218.218 52.0493L315.73 52.0469C319.236 52.0469 322.234 54.5706 322.832 58.0277L322.915 58.5046C323.571 62.2908 320.656 65.7527 316.815 65.7527H216.774C214.476 65.7527 212.643 63.8296 212.754 61.5329L212.97 57.0535Z" fill="url(#paint19_linear_585_4087)"/>
<path d="M383.204 327.115C378.096 327.35 373.15 327.202 369.85 327.032C372.855 324.891 379.78 320.234 385.575 318.381L389.553 318.143C389.553 318.143 390.901 320.193 391.381 324.886C390.722 325.709 388.796 326.858 383.204 327.115Z" fill="#A78BEF"/>
<path d="M369.808 327.062C369.822 327.052 369.836 327.043 369.849 327.033C373.15 327.202 378.096 327.35 383.203 327.116C388.795 326.859 390.722 325.711 391.381 324.888C391.404 325.104 391.425 325.319 391.445 325.546C391.528 326.575 390.763 327.48 389.734 327.558C385.551 327.874 375.178 328.591 370.176 328.328C369.515 328.293 369.271 327.445 369.808 327.062Z" fill="url(#paint20_linear_585_4087)"/>
<path d="M419.739 325.746C420.114 323.348 420.713 319.879 421.176 318.992C421.904 317.601 424.393 318.992 424.393 318.992C424.393 318.992 426.14 319.808 426.944 321.166C427.457 322.032 428.875 324.497 429.836 326.169C429.946 326.361 429.992 326.567 429.987 326.765L420.02 327.115C419.776 326.723 419.661 326.246 419.739 325.746Z" fill="#A78BEF"/>
<path d="M429.987 326.765C429.97 327.335 429.519 327.851 428.882 327.869L421.781 328.065C421.031 328.085 420.381 327.696 420.02 327.115L429.987 326.765Z" fill="url(#paint21_linear_585_4087)"/>
<path d="M418.978 311.019C419.064 311.307 420.351 317.552 420.915 320.294C421.072 321.052 421.754 321.584 422.526 321.545C422.947 321.523 423.438 321.486 423.952 321.419C424.864 321.301 425.56 320.538 425.596 319.618C425.687 317.217 425.733 312.607 424.851 310.82C423.635 308.355 418.978 311.019 418.978 311.019Z" fill="url(#paint22_linear_585_4087)"/>
<path d="M390.335 312.807C389.783 312.789 390.556 315.66 389.72 318.482C389.532 319.118 389.056 319.618 388.392 319.626C387.963 319.632 387.453 319.624 386.936 319.582C386.158 319.519 385.532 318.915 385.46 318.138L384.781 310.819L390.335 312.807Z" fill="url(#paint23_linear_585_4087)"/>
<path d="M374.885 235.009C375.131 236.21 383.833 286.989 384.362 313.266C384.37 313.707 384.694 314.075 385.131 314.137C386.236 314.29 388.388 314.489 390.473 314.102C390.759 314.049 390.974 313.814 390.992 313.523C391.296 308.627 393.741 267.226 390.747 247.736C390.747 247.736 415.489 299.834 419.24 314.199C419.332 314.549 419.652 314.784 420.012 314.765C421.073 314.708 423.276 314.519 425.025 313.874C425.652 313.643 426.01 312.983 425.851 312.334C423.756 303.737 409.071 244.505 399.1 231.455L374.885 235.009Z" fill="url(#paint24_linear_585_4087)"/>
<path d="M390.746 248.062C390.828 248.062 390.909 248.03 390.973 247.969C391.101 247.844 391.104 247.638 390.978 247.51L387.665 244.12C387.54 243.992 387.334 243.989 387.205 244.116C387.077 244.24 387.074 244.447 387.2 244.576L390.513 247.965C390.578 248.029 390.662 248.062 390.746 248.062Z" fill="url(#paint25_linear_585_4087)"/>
<path d="M366.516 169.479C373.918 168.366 388.446 166.771 397.923 169.553L396.896 198.855L362.562 195.152L359.649 191.01C359.649 191.011 360.999 170.309 366.516 169.479Z" fill="#A78BEF"/>
<path d="M383.616 153.791C383.616 153.791 384.301 165.447 384.172 169.072C384.172 169.072 374.635 170.633 372.364 169.001L374.158 155.185L383.616 153.791Z" fill="url(#paint26_linear_585_4087)"/>
<path d="M374.344 142.119C374.344 142.119 370.504 148.863 369.898 152.554C369.291 156.245 368.232 158.569 372.443 159.779C376.655 160.989 380.501 159.24 382.858 155.752C382.858 155.752 386.54 150.382 386.103 147.974C385.666 145.564 374.344 142.119 374.344 142.119Z" fill="url(#paint27_linear_585_4087)"/>
<path d="M381.678 152.934L381.135 152.875C381.135 152.875 383.864 148.528 381.986 147.51C380.108 146.493 372.498 144.067 371.116 141.123C369.785 138.286 371.598 135.002 373.861 134.271C374.004 134.226 374.159 134.308 374.214 134.447L374.357 134.805C374.454 135.05 374.801 135.052 374.901 134.807C374.996 134.575 375.324 134.559 375.432 134.783C375.857 135.665 377.104 137.158 380.761 138.249C385.952 139.797 389.223 142.318 388.914 145.989C388.895 146.222 389.129 146.376 389.339 146.278C389.756 146.082 390.393 146.037 391.153 146.83C392.475 148.21 391.539 151.319 388.071 153.586C387.907 153.694 387.883 153.931 388.035 154.054C388.573 154.493 389.338 155.481 386.977 156.435C384.563 157.411 383.225 157.132 382.729 156.946C382.596 156.895 382.517 156.761 382.541 156.62L383.091 153.397C383.12 153.23 383.001 153.074 382.833 153.056L381.678 152.934Z" fill="url(#paint28_linear_585_4087)"/>
<path d="M381.471 153.598C381.471 153.598 383.131 149.205 385.021 150.69C386.91 152.176 383.425 155.641 381.778 155.634L381.471 153.598Z" fill="url(#paint29_linear_585_4087)"/>
<path d="M340.347 192.402L341.257 188.821C341.708 187.051 343.469 185.945 345.259 186.311L431.004 203.812C432.957 204.211 434.212 206.123 433.801 208.074L428.573 232.865L340.347 192.402Z" fill="#E527BB"/>
<path d="M332.218 235.888L338.667 189.517C338.8 188.557 339.723 187.917 340.668 188.126L428.736 207.691C430.615 208.109 431.794 209.978 431.361 211.856L423.97 243.909L332.218 235.888Z" fill="white"/>
<path d="M334.543 233.788L337.013 192.397C337.077 191.333 338.071 190.575 339.113 190.796L428.106 209.636C429.361 209.901 430.188 211.104 429.987 212.371L425.246 242.269L334.543 233.788Z" fill="white"/>
<path d="M328.096 243.571L333.699 198.74C333.978 196.505 336.083 194.97 338.295 195.387L429.55 212.618C431.4 212.968 432.618 214.752 432.269 216.603L424.561 257.456C424.198 259.384 422.391 260.69 420.447 260.43L331.981 248.61C329.523 248.284 327.789 246.034 328.096 243.571Z" fill="#E527BB"/>
<path d="M370.406 201.451C370.047 203.352 368.215 204.604 366.314 204.245L345.967 200.403C344.067 200.044 342.816 198.211 343.175 196.31C343.534 194.408 345.366 193.156 347.267 193.516L367.613 197.357C369.515 197.716 370.765 199.549 370.406 201.451Z" fill="url(#paint30_linear_585_4087)"/>
<path d="M388.347 182.33L397.923 169.552C397.923 169.552 413.312 185.907 416.264 206.665L406.664 211.349C403.685 204.359 398.202 194.89 388.347 182.33Z" fill="#A78BEF"/>
<path d="M402.068 239.887C403.203 237.988 405.418 234.373 406.495 233.246C406.495 233.246 405.511 232.623 403.621 232.855C401.732 233.087 400.252 232.166 400.308 231.136L409.323 228.37C409.728 227.523 411.512 222.719 406.665 211.349L416.264 206.665C417.37 214.437 416.736 222.824 412.893 231.203C412.893 231.203 409.911 240.466 406.487 242.521C397.549 247.885 401.633 240.616 402.068 239.887Z" fill="url(#paint31_linear_585_4087)"/>
<path d="M172.839 119.702L170.948 122.098L170.941 122.107C170.802 122.281 170.549 122.311 170.375 122.173C170.201 122.035 170.171 121.781 170.309 121.607C170.31 121.605 170.314 121.601 170.315 121.6L172.277 119.232C172.405 119.076 172.636 119.054 172.792 119.184C172.944 119.311 172.968 119.537 172.846 119.692L172.839 119.702Z" fill="white"/>
<path d="M166.445 128.426L163.239 133.544L163.224 133.568C163.062 133.827 162.719 133.905 162.46 133.743C162.201 133.581 162.123 133.238 162.285 132.979C162.286 132.977 162.289 132.972 162.291 132.969L165.625 127.869C165.775 127.64 166.081 127.576 166.311 127.726C166.536 127.874 166.602 128.175 166.459 128.404L166.445 128.426Z" fill="white"/>
<path d="M159.515 140.351L156.943 145.807L156.927 145.839C156.768 146.178 156.364 146.322 156.026 146.163C155.687 146.004 155.543 145.6 155.702 145.261C155.703 145.259 155.705 145.253 155.706 145.25L158.404 139.778C158.557 139.469 158.93 139.342 159.239 139.494C159.544 139.644 159.671 140.012 159.527 140.318L159.515 140.351Z" fill="white"/>
<path d="M154.079 153.007L152.212 158.734L152.198 158.777C152.061 159.198 151.609 159.427 151.189 159.29C150.769 159.153 150.539 158.702 150.676 158.281C150.678 158.278 150.68 158.27 150.681 158.268L152.678 152.493C152.812 152.103 153.237 151.897 153.626 152.031C154.012 152.165 154.217 152.581 154.092 152.967L154.079 153.007Z" fill="white"/>
<path d="M150.29 166.227L149.177 172.139L149.167 172.19C149.076 172.674 148.61 172.991 148.127 172.901C147.643 172.81 147.326 172.344 147.418 171.861L147.419 171.851L148.617 165.851C148.709 165.386 149.162 165.085 149.626 165.179C150.087 165.271 150.387 165.717 150.3 166.178L150.29 166.227Z" fill="white"/>
<path d="M148.267 179.814L147.972 185.815L147.969 185.874C147.942 186.408 147.49 186.818 146.957 186.792C146.424 186.766 146.013 186.313 146.039 185.779L146.04 185.769L146.407 179.656C146.438 179.142 146.88 178.75 147.394 178.78C147.904 178.81 148.294 179.246 148.27 179.757L148.267 179.814Z" fill="white"/>
<path d="M148.126 193.538L148.658 199.52L148.664 199.583C148.715 200.156 148.292 200.661 147.719 200.713C147.146 200.763 146.641 200.341 146.589 199.768L146.588 199.757L146.111 193.646C146.068 193.091 146.483 192.606 147.037 192.563C147.588 192.519 148.071 192.929 148.119 193.478L148.126 193.538Z" fill="white"/>
<path d="M149.87 207.143L151.213 212.993L151.228 213.058C151.366 213.659 150.991 214.258 150.39 214.396C149.788 214.534 149.19 214.159 149.051 213.558L149.049 213.546L147.74 207.554C147.613 206.969 147.982 206.392 148.567 206.264C149.147 206.137 149.721 206.502 149.853 207.079L149.87 207.143Z" fill="white"/>
<path d="M153.443 220.377L155.539 225.999L155.563 226.062C155.79 226.67 155.482 227.346 154.874 227.572C154.268 227.799 153.592 227.491 153.365 226.883L153.363 226.877L151.248 221.118C151.027 220.518 151.336 219.852 151.936 219.631C152.537 219.41 153.202 219.719 153.423 220.319L153.443 220.377Z" fill="white"/>
<path d="M158.696 233.037L161.498 238.342L161.529 238.401C161.838 238.986 161.615 239.712 161.029 240.022C160.444 240.332 159.719 240.107 159.41 239.522L159.408 239.518L156.563 234.084C156.26 233.503 156.483 232.786 157.064 232.48C157.645 232.177 158.363 232.4 158.667 232.981L158.696 233.037Z" fill="white"/>
<path d="M165.524 244.921L168.971 249.833L169.009 249.888C169.397 250.441 169.264 251.205 168.712 251.593C168.158 251.981 167.396 251.848 167.007 251.295L167.004 251.291L163.5 246.258C163.116 245.708 163.252 244.953 163.801 244.569C164.35 244.186 165.106 244.322 165.489 244.871L165.524 244.921Z" fill="white"/>
<path d="M173.786 255.856L177.818 260.296L177.865 260.347C178.328 260.858 178.291 261.647 177.78 262.111C177.27 262.574 176.481 262.537 176.018 262.027L176.014 262.023L171.906 257.467C171.448 256.96 171.488 256.177 171.996 255.719C172.503 255.261 173.285 255.301 173.743 255.809L173.786 255.856Z" fill="white"/>
<path d="M183.354 265.656L187.927 269.527L187.985 269.576C188.522 270.03 188.588 270.834 188.134 271.371C187.681 271.908 186.877 271.975 186.341 271.52L186.337 271.518L181.664 267.532C181.134 267.079 181.07 266.283 181.522 265.752C181.975 265.221 182.771 265.157 183.302 265.61L183.354 265.656Z" fill="white"/>
<path d="M194.132 274.07L196.666 275.651L197.933 276.441C198.358 276.701 198.771 276.98 199.207 277.22C199.835 277.567 200.063 278.356 199.716 278.984C199.369 279.613 198.58 279.841 197.952 279.494L197.947 279.491L197.913 279.472C197.464 279.222 197.038 278.934 196.601 278.665L195.299 277.846L192.694 276.206C192.093 275.828 191.912 275.032 192.29 274.431C192.668 273.829 193.462 273.647 194.064 274.026L194.132 274.07Z" fill="white"/>
<path d="M206.037 280.715C207.847 281.543 209.686 282.31 211.55 283.012C212.224 283.266 212.565 284.02 212.312 284.695C212.058 285.37 211.307 285.712 210.632 285.457C208.712 284.738 206.814 283.956 204.947 283.103C204.288 282.802 203.997 282.023 204.299 281.364C204.599 280.704 205.378 280.415 206.037 280.715Z" fill="white"/>
<path d="M218.85 285.411L224.655 286.851L224.734 286.87C225.424 287.042 225.845 287.74 225.674 288.43C225.503 289.121 224.807 289.543 224.118 289.372L218.149 287.908C217.454 287.737 217.029 287.036 217.199 286.34C217.37 285.645 218.071 285.22 218.766 285.39L218.77 285.391L218.85 285.411Z" fill="white"/>
<path d="M232.236 288.173L238.194 288.808L238.266 288.815C238.962 288.889 239.467 289.514 239.393 290.211C239.319 290.907 238.699 291.413 238.002 291.339L231.897 290.709C231.195 290.637 230.685 290.009 230.757 289.306C230.829 288.603 231.457 288.093 232.159 288.165H232.164L232.236 288.173Z" fill="white"/>
<path d="M245.895 289.15L251.895 289.053L251.958 289.052C252.629 289.041 253.182 289.577 253.193 290.248C253.204 290.917 252.673 291.467 252.007 291.484L245.881 291.629C245.197 291.646 244.63 291.105 244.613 290.42C244.596 289.735 245.138 289.167 245.822 289.151H245.832L245.895 289.15Z" fill="white"/>
<path d="M259.594 288.484L265.554 287.711L265.608 287.704C266.244 287.621 266.828 288.07 266.91 288.708C266.992 289.342 266.548 289.923 265.916 290.01L259.854 290.845C259.204 290.934 258.607 290.48 258.516 289.831C258.428 289.181 258.881 288.583 259.53 288.493L259.539 288.492L259.594 288.484Z" fill="white"/>
<path d="M273.162 286.34L279.021 284.975L279.065 284.964C279.636 284.83 280.206 285.186 280.339 285.757C280.471 286.322 280.123 286.887 279.562 287.027L273.632 288.503C273.039 288.65 272.44 288.289 272.292 287.697C272.145 287.104 272.506 286.504 273.098 286.356C273.102 286.355 273.105 286.355 273.108 286.354L273.162 286.34Z" fill="white"/>
<path d="M286.465 282.852L292.174 280.928L292.211 280.916C292.713 280.746 293.257 281.017 293.426 281.519C293.593 282.016 293.33 282.555 292.837 282.73L287.082 284.764C286.56 284.949 285.986 284.676 285.801 284.152C285.616 283.629 285.89 283.055 286.413 282.87C286.416 282.869 286.419 282.868 286.422 282.867L286.465 282.852Z" fill="white"/>
<path d="M299.398 278.12L304.917 275.688L304.947 275.675C305.38 275.484 305.886 275.681 306.077 276.113C306.266 276.542 306.075 277.043 305.65 277.238L300.106 279.779C299.654 279.987 299.118 279.788 298.91 279.335C298.703 278.882 298.902 278.346 299.355 278.138C299.357 278.137 299.359 278.136 299.362 278.135L299.398 278.12Z" fill="white"/>
<path d="M311.888 272.278L317.199 269.406L317.222 269.394C317.563 269.21 317.988 269.336 318.172 269.677C318.353 270.012 318.232 270.432 317.903 270.619L312.615 273.645C312.244 273.857 311.771 273.729 311.559 273.357C311.346 272.985 311.475 272.512 311.847 272.299C311.85 272.297 311.855 272.295 311.86 272.292L311.888 272.278Z" fill="white"/>
<path d="M323.875 265.432L328.942 262.134L328.957 262.124C329.205 261.963 329.536 262.033 329.697 262.28C329.855 262.524 329.789 262.85 329.552 263.013L324.533 266.456C324.257 266.645 323.878 266.575 323.687 266.298C323.498 266.022 323.569 265.644 323.845 265.454C323.848 265.451 323.851 265.449 323.854 265.448L323.875 265.432Z" fill="white"/>
<path d="M335.321 257.641L337.769 255.807L337.774 255.803C337.936 255.682 338.165 255.714 338.285 255.876C338.404 256.035 338.374 256.258 338.221 256.382L335.823 258.303C335.644 258.446 335.382 258.417 335.238 258.238C335.095 258.059 335.124 257.797 335.303 257.653C335.305 257.651 335.309 257.648 335.312 257.646L335.321 257.641Z" fill="white"/>
<path d="M121.669 70.0081C132.801 59.2084 133.585 41.9609 123.421 31.4847C113.258 21.0085 95.9942 21.2707 84.8626 32.0704C73.731 42.8701 72.9464 60.1176 83.1103 70.5938C93.2741 81.07 110.537 80.8078 121.669 70.0081Z" fill="#E527BB"/>
<path fill-rule="evenodd" clip-rule="evenodd" d="M104.915 23.7939C119.961 23.7939 131.417 35.9919 130.505 51.0376C130.446 51.9694 130.348 52.888 130.204 53.7935C130.033 57.8026 124.967 59.548 125.788 52.094C114.738 50.6374 97.9534 42.3763 78.1768 41.8317C82.5927 31.3135 93.1043 23.7939 104.915 23.7939Z" fill="#E527BB"/>
<path d="M117.639 66.3316C128.77 55.5319 129.555 38.2844 119.391 27.8082C109.227 17.332 91.9639 17.5942 80.8323 28.3939C69.7007 39.1936 68.9162 56.4411 79.08 66.9173C89.2438 77.3935 106.507 77.1313 117.639 66.3316Z" fill="#E527BB"/>
<path d="M115.82 64.4587C125.85 54.7288 126.558 39.1888 117.401 29.749C108.244 20.3093 92.6897 20.5444 82.6594 30.2742C72.6292 40.004 71.9213 55.5441 81.0783 64.9838C90.2354 74.4236 105.79 74.1885 115.82 64.4587Z" fill="#E527BB"/>
<path fill-rule="evenodd" clip-rule="evenodd" d="M123.818 46.6677C123.811 46.8974 123.798 47.127 123.785 47.3633C122.978 60.6505 111.758 71.4771 98.5492 71.897C86.1938 71.4902 76.9026 61.3263 77.6571 48.8462C78.4314 36.1102 89.3827 25.7822 102.119 25.7822C114.126 25.7822 123.431 34.9553 123.818 46.6677Z" fill="white"/>
<path fill-rule="evenodd" clip-rule="evenodd" d="M95.4382 69.3247L95.8516 66.4311L97.1114 66.6082L96.6981 69.5019L95.4382 69.3247ZM121.199 51.1623L118.305 50.7489L118.483 49.4891L121.376 49.9025L121.199 51.1623ZM103.037 25.4015L102.623 28.2952L101.363 28.118L101.777 25.2244L103.037 25.4015ZM77.2758 43.564L80.1695 43.9774L79.9923 45.2372L77.0986 44.8238L77.2758 43.564Z" fill="#4C2845"/>
<path fill-rule="evenodd" clip-rule="evenodd" d="M81.022 60.2107L83.3645 58.4588L84.1256 59.4758L81.7897 61.2277L81.022 60.2107ZM112.084 65.5781L110.333 63.2356L111.35 62.4744L113.102 64.8104L112.084 65.5781ZM117.452 34.5221L115.116 36.2741L114.355 35.257L116.697 33.5051L117.452 34.5221ZM86.3959 29.1482L88.1478 31.4907L87.1308 32.2518L85.3789 29.9093L86.3959 29.1482Z" fill="#4C2845"/>
<path fill-rule="evenodd" clip-rule="evenodd" d="M99.3687 45.2043C100.563 45.2043 101.468 46.1689 101.396 47.3631C101.324 48.5573 100.3 49.5219 99.1063 49.5219C97.9121 49.5219 97.0066 48.5573 97.0787 47.3631C97.1509 46.1689 98.1811 45.2043 99.3687 45.2043Z" fill="#4C2845"/>
<path fill-rule="evenodd" clip-rule="evenodd" d="M95.5361 30.8804L99.8536 47.199L98.8562 47.8749L91.7041 42.4747L92.4718 41.4576L98.1541 45.7489L94.3025 31.2019L95.5361 30.8804Z" fill="#4C2845"/>
<path fill-rule="evenodd" clip-rule="evenodd" d="M94.0664 54.7974C94.073 54.7974 95.6215 54.9089 96.6583 54.4824C96.3827 54.3052 96.2646 54.0821 96.2449 53.8525C96.2186 53.5113 96.422 53.1766 96.6976 52.9404C96.9667 52.7108 97.321 52.5664 97.6097 52.5927C97.9968 52.632 98.2724 52.9011 98.2068 53.5244C98.1805 53.7869 98.0952 54.0165 97.9706 54.2134C98.3052 54.2331 98.7383 54.2265 99.2829 54.1806L104.611 53.7738L104.657 54.4102L99.3288 54.817C98.5152 54.8761 97.8918 54.8499 97.4325 54.758C96.2186 55.5847 94.0336 55.4207 94.0205 55.4207L94.0664 54.7974ZM97.2488 54.115C97.426 53.9444 97.5441 53.7278 97.5703 53.4654C97.59 53.3013 97.5703 53.2357 97.5375 53.2291C97.4194 53.216 97.2554 53.3013 97.1044 53.426C96.9667 53.5441 96.8682 53.6885 96.8748 53.8066C96.8879 53.9247 96.9929 54.0362 97.2488 54.115Z" fill="#4C2845"/>
<path fill-rule="evenodd" clip-rule="evenodd" d="M99.6784 18.8269C100.236 18.8269 100.794 18.8466 101.352 18.8794C108.215 19.2928 114.245 22.2652 118.549 26.8452C122.86 31.4317 125.446 37.6324 125.446 44.522C125.446 45.0732 125.426 45.6375 125.393 46.2084C124.934 53.7673 121.456 60.6045 116.207 65.5585C110.958 70.5125 103.93 73.5702 96.3713 73.5702C95.8136 73.5702 95.2559 73.5505 94.6981 73.5177C87.8347 73.1043 81.8112 70.1319 77.5002 65.5519C73.1893 60.9654 70.604 54.7647 70.604 47.875C70.604 47.3238 70.6237 46.7595 70.6565 46.1887C71.1158 38.6297 74.5934 31.7926 79.8427 26.8386C85.0985 21.8912 92.126 18.8269 99.6784 18.8269ZM101.338 19.1287C100.794 19.0959 100.243 19.0828 99.6784 19.0828C92.185 19.0828 85.2232 22.1208 80.0133 27.0289C74.8034 31.9369 71.3586 38.7216 70.9058 46.2084C70.873 46.7661 70.8533 47.3238 70.8533 47.875C70.8533 54.6991 73.4189 60.8407 77.6839 65.3813C81.949 69.9219 87.9134 72.8549 94.7112 73.2683C95.2559 73.3011 95.807 73.3208 96.3713 73.3208C103.865 73.3208 110.826 70.2828 116.036 65.3747C121.246 60.4667 124.691 53.682 125.144 46.1952C125.177 45.6375 125.196 45.0798 125.196 44.5286C125.196 37.7046 122.631 31.5629 118.366 27.0223C114.101 22.4817 108.136 19.5421 101.338 19.1287Z" fill="white"/>
<defs>
<linearGradient id="paint0_linear_585_4087" x1="322.549" y1="52.8703" x2="219.553" y2="153.024" gradientUnits="userSpaceOnUse">
<stop stop-color="#FDF53F"/>
<stop offset="1" stop-color="#D93C65"/>
</linearGradient>
<linearGradient id="paint1_linear_585_4087" x1="334.036" y1="64.6854" x2="231.042" y2="164.837" gradientUnits="userSpaceOnUse">
<stop stop-color="#FDF53F"/>
<stop offset="1" stop-color="#D93C65"/>
</linearGradient>
<linearGradient id="paint2_linear_585_4087" x1="304.747" y1="127.28" x2="225.093" y2="214.883" gradientUnits="userSpaceOnUse">
<stop stop-color="#A737D5"/>
<stop offset="1" stop-color="#EF497A"/>
</linearGradient>
<linearGradient id="paint3_linear_585_4087" x1="314.143" y1="135.823" x2="234.489" y2="223.427" gradientUnits="userSpaceOnUse">
<stop stop-color="#A737D5"/>
<stop offset="1" stop-color="#EF497A"/>
</linearGradient>
<linearGradient id="paint4_linear_585_4087" x1="317.964" y1="162.37" x2="218.24" y2="253.554" gradientUnits="userSpaceOnUse">
<stop stop-color="#A737D5"/>
<stop offset="1" stop-color="#EF497A"/>
</linearGradient>
<linearGradient id="paint5_linear_585_4087" x1="332.934" y1="152.91" x2="253.28" y2="240.513" gradientUnits="userSpaceOnUse">
<stop stop-color="#A737D5"/>
<stop offset="1" stop-color="#EF497A"/>
</linearGradient>
<linearGradient id="paint6_linear_585_4087" x1="221.079" y1="145.621" x2="182.73" y2="257.659" gradientUnits="userSpaceOnUse">
<stop stop-color="#A737D5"/>
<stop offset="1" stop-color="#EF497A"/>
</linearGradient>
<linearGradient id="paint7_linear_585_4087" x1="271.819" y1="294.693" x2="257.59" y2="-126.3" gradientUnits="userSpaceOnUse">
<stop offset="1" stop-color="#E527BB"/>
</linearGradient>
<linearGradient id="paint8_linear_585_4087" x1="221.103" y1="72.9233" x2="268.523" y2="155.397" gradientUnits="userSpaceOnUse">
<stop offset="1" stop-color="#A78BEF"/>
</linearGradient>
<linearGradient id="paint9_linear_585_4087" x1="210.034" y1="79.2875" x2="257.454" y2="161.761" gradientUnits="userSpaceOnUse">
<stop offset="1" stop-color="#A78BEF"/>
</linearGradient>
<linearGradient id="paint10_linear_585_4087" x1="188.467" y1="150.702" x2="337.317" y2="269.634" gradientUnits="userSpaceOnUse">
<stop offset="1" stop-color="#E527BB"/>
</linearGradient>
<linearGradient id="paint11_linear_585_4087" x1="213.838" y1="118.948" x2="362.688" y2="237.881" gradientUnits="userSpaceOnUse">
<stop offset="1" stop-color="#E527BB"/>
</linearGradient>
<linearGradient id="paint12_linear_585_4087" x1="245.009" y1="151.257" x2="188.686" y2="247.343" gradientUnits="userSpaceOnUse">
<stop offset="1" stop-color="#E527BB"/>
</linearGradient>
<linearGradient id="paint13_linear_585_4087" x1="245.009" y1="174.89" x2="188.686" y2="270.977" gradientUnits="userSpaceOnUse">
<stop offset="1" stop-color="#E527BB"/>
</linearGradient>
<linearGradient id="paint14_linear_585_4087" x1="245.009" y1="198.526" x2="188.686" y2="294.612" gradientUnits="userSpaceOnUse">
<stop offset="1" stop-color="#E527BB"/>
</linearGradient>
<linearGradient id="paint15_linear_585_4087" x1="245.009" y1="222.161" x2="188.686" y2="318.247" gradientUnits="userSpaceOnUse">
<stop offset="1" stop-color="#E527BB"/>
</linearGradient>
<linearGradient id="paint16_linear_585_4087" x1="294.096" y1="1.06322" x2="222.958" y2="94.6009" gradientUnits="userSpaceOnUse">
<stop stop-color="#2B3582"/>
<stop offset="1" stop-color="#150E42"/>
</linearGradient>
<linearGradient id="paint17_linear_585_4087" x1="301.894" y1="6.99419" x2="230.757" y2="100.532" gradientUnits="userSpaceOnUse">
<stop stop-color="#2B3582"/>
<stop offset="1" stop-color="#150E42"/>
</linearGradient>
<linearGradient id="paint18_linear_585_4087" x1="282.073" y1="115.553" x2="344.242" y2="26.8387" gradientUnits="userSpaceOnUse">
<stop offset="1" stop-color="#E527BB"/>
</linearGradient>
<linearGradient id="paint19_linear_585_4087" x1="292.935" y1="12.7175" x2="243.81" y2="102.881" gradientUnits="userSpaceOnUse">
<stop offset="1" stop-color="#E02CB8"/>
</linearGradient>
<linearGradient id="paint20_linear_585_4087" x1="352.9" y1="294.767" x2="398.627" y2="347.213" gradientUnits="userSpaceOnUse">
<stop stop-color="#090056"/>
<stop offset="1" stop-color="#020039"/>
</linearGradient>
<linearGradient id="paint21_linear_585_4087" x1="377.941" y1="272.934" x2="423.668" y2="325.38" gradientUnits="userSpaceOnUse">
<stop stop-color="#090056"/>
<stop offset="1" stop-color="#020039"/>
</linearGradient>
<linearGradient id="paint22_linear_585_4087" x1="425.642" y1="315.66" x2="418.978" y2="315.66" gradientUnits="userSpaceOnUse">
<stop stop-color="#FEBBBA"/>
<stop offset="1" stop-color="#FF928E"/>
</linearGradient>
<linearGradient id="paint23_linear_585_4087" x1="390.335" y1="315.224" x2="384.78" y2="315.224" gradientUnits="userSpaceOnUse">
<stop stop-color="#FEBBBA"/>
<stop offset="1" stop-color="#FF928E"/>
</linearGradient>
<linearGradient id="paint24_linear_585_4087" x1="532.373" y1="343.51" x2="406.297" y2="280.027" gradientUnits="userSpaceOnUse">
<stop stop-color="#090056"/>
<stop offset="1" stop-color="#020039"/>
</linearGradient>
<linearGradient id="paint25_linear_585_4087" x1="376.522" y1="229.786" x2="399.27" y2="259.183" gradientUnits="userSpaceOnUse">
<stop stop-color="#CB236D"/>
<stop offset="1" stop-color="#4C246D"/>
</linearGradient>
<linearGradient id="paint26_linear_585_4087" x1="378.738" y1="175.314" x2="377.869" y2="159.099" gradientUnits="userSpaceOnUse">
<stop stop-color="#FEBBBA"/>
<stop offset="1" stop-color="#FF928E"/>
</linearGradient>
<linearGradient id="paint27_linear_585_4087" x1="373.029" y1="148.278" x2="389.186" y2="163.638" gradientUnits="userSpaceOnUse">
<stop stop-color="#FEBBBA"/>
<stop offset="1" stop-color="#FF928E"/>
</linearGradient>
<linearGradient id="paint28_linear_585_4087" x1="368.593" y1="142.958" x2="412.825" y2="154.958" gradientUnits="userSpaceOnUse">
<stop stop-color="#090056"/>
<stop offset="1" stop-color="#020039"/>
</linearGradient>
<linearGradient id="paint29_linear_585_4087" x1="375.518" y1="145.658" x2="391.676" y2="161.019" gradientUnits="userSpaceOnUse">
<stop stop-color="#FEBBBA"/>
<stop offset="1" stop-color="#FF928E"/>
</linearGradient>
<linearGradient id="paint30_linear_585_4087" x1="335.743" y1="170.688" x2="412.24" y2="273.059" gradientUnits="userSpaceOnUse">
<stop offset="1" stop-color="#C3129C"/>
</linearGradient>
<linearGradient id="paint31_linear_585_4087" x1="400.81" y1="235.677" x2="427.521" y2="197.286" gradientUnits="userSpaceOnUse">
<stop stop-color="#FEBBBA"/>
<stop offset="1" stop-color="#FF928E"/>
</linearGradient>
</defs>
</svg>
