<svg width="34" height="40" viewBox="0 0 34 40" fill="none" xmlns="http://www.w3.org/2000/svg">
<path d="M22.6907 9.94293C22.3264 9.57886 21.842 9.37805 21.3269 9.37805C20.8118 9.37805 20.3275 9.57886 19.9634 9.94293C19.599 10.3073 19.3982 10.7916 19.3982 11.3068C19.3982 11.8219 19.599 12.3062 19.9631 12.6703L23.2486 15.9558C23.6127 16.3199 24.0973 16.5207 24.6124 16.5207C25.1276 16.5207 25.6116 16.3199 25.976 15.9558L32.9956 8.93616C33.36 8.57178 33.5605 8.08746 33.5605 7.57263C33.5605 7.0575 33.36 6.57318 32.9956 6.2088C32.6315 5.84442 32.1469 5.64392 31.6318 5.64392C31.1166 5.64392 30.6323 5.84442 30.2682 6.2088L29.4943 6.98273C28.9209 6.54511 28.2916 6.19415 27.6248 5.94025V5.06287C27.6248 3.99933 26.7596 3.13416 25.6964 3.13416H19.649V2.4646C19.649 1.10565 18.5434 0 17.1844 0H10.4404C9.08142 0 7.97577 1.10565 7.97577 2.4646V5.24933C7.97577 6.00433 8.59009 6.61865 9.34509 6.61865H18.2797C19.0347 6.61865 19.649 6.00433 19.649 5.24933V4.30786H25.6961C26.1124 4.30786 26.4511 4.64661 26.4511 5.06287V5.60333C25.968 5.50568 25.4736 5.4538 24.9734 5.4538C20.863 5.4538 17.5189 8.79791 17.5189 12.9083C17.5189 17.0187 20.863 20.3629 24.9734 20.3629C25.4749 20.3629 25.9692 20.3125 26.4511 20.2158V38.0716C26.4511 38.4879 26.1124 38.8263 25.6961 38.8263H1.92841C1.51215 38.8263 1.17371 38.4879 1.17371 38.0716V5.06287C1.17371 4.64661 1.51215 4.30786 1.92841 4.30786H5.82947C6.15356 4.30786 6.41632 4.04511 6.41632 3.72101C6.41632 3.39691 6.15356 3.13416 5.82947 3.13416H1.92841C0.865173 3.13416 0 3.99933 0 5.06287V38.0716C0 39.1348 0.865173 40 1.92841 40H25.6964C26.7596 40 27.6248 39.1348 27.6248 38.0716V19.8764C28.5593 19.5209 29.4211 18.9783 30.1584 18.2645C31.5524 16.9147 32.3572 15.105 32.4237 13.1686C32.4347 12.8448 32.1814 12.5732 31.8573 12.562C31.5356 12.5513 31.2619 12.8043 31.2506 13.1284C31.1569 15.8539 29.3646 18.1042 26.9034 18.8895C26.8695 18.8974 26.8365 18.9078 26.8054 18.9215C26.2262 19.0958 25.6113 19.1891 24.9734 19.1891C21.5103 19.1891 18.6926 16.3715 18.6926 12.9083C18.6926 9.44519 21.5103 6.6275 24.9734 6.6275C26.3037 6.6275 27.5894 7.04803 28.656 7.82104L24.6124 11.8649L22.6907 9.94293ZM18.4753 5.24933C18.4753 5.35736 18.3878 5.44495 18.2797 5.44495H9.34509C9.23706 5.44495 9.14948 5.35736 9.14948 5.24933V2.4646C9.14948 1.75262 9.72839 1.17371 10.4404 1.17371H17.1844C17.8961 1.17371 18.4753 1.75262 18.4753 2.4646V5.24933ZM31.0983 7.03888C31.2408 6.89606 31.4304 6.81763 31.6318 6.81763C31.8335 6.81763 32.023 6.89636 32.1658 7.03888C32.46 7.33307 32.46 7.81219 32.1658 8.10638L25.1459 15.126C25.0034 15.2686 24.8138 15.3473 24.6121 15.3473C24.4104 15.3473 24.2209 15.2686 24.0784 15.126L20.7928 11.8405C20.6503 11.698 20.5719 11.5085 20.5719 11.3068C20.5719 11.105 20.6503 10.9155 20.7932 10.773C20.9357 10.6305 21.1252 10.5518 21.3269 10.5518C21.5283 10.5518 21.7181 10.6305 21.8607 10.773L24.1974 13.1097C24.4266 13.3389 24.798 13.3389 25.0272 13.1097L31.0983 7.03888Z" fill="#DAA7EE"/>
<path d="M15.972 14.7302H8.82141C8.49731 14.7302 8.23486 14.993 8.23486 15.3171C8.23486 15.6409 8.49731 15.9036 8.82141 15.9036H15.972C16.2961 15.9036 16.5588 15.6409 16.5588 15.3171C16.5588 14.993 16.2961 14.7302 15.972 14.7302Z" fill="#DAA7EE"/>
<path d="M7.70154 8.67285H3.75287C3.42877 8.67285 3.16602 8.93561 3.16602 9.2597C3.16602 9.5838 3.42877 9.84656 3.75287 9.84656H7.70154C8.02563 9.84656 8.28839 9.5838 8.28839 9.2597C8.28839 8.93561 8.02563 8.67285 7.70154 8.67285Z" fill="#DAA7EE"/>
<path d="M8.82141 18.626H15.972C16.2961 18.626 16.5588 18.3633 16.5588 18.0392C16.5588 17.7154 16.2961 17.4526 15.972 17.4526H8.82141C8.49731 17.4526 8.23486 17.7154 8.23486 18.0392C8.23486 18.3633 8.49731 18.626 8.82141 18.626Z" fill="#DAA7EE"/>
<path d="M18.4421 21.8475H8.82141C8.49731 21.8475 8.23486 22.1103 8.23486 22.4344C8.23486 22.7585 8.49731 23.0212 8.82141 23.0212H18.4421C18.7662 23.0212 19.0289 22.7585 19.0289 22.4344C19.0289 22.1103 18.7662 21.8475 18.4421 21.8475Z" fill="#DAA7EE"/>
<path d="M8.82141 25.7438H13.6319C13.956 25.7438 14.2184 25.481 14.2184 25.1569C14.2184 24.8328 13.956 24.5701 13.6319 24.5701H8.82141C8.49731 24.5701 8.23486 24.8328 8.23486 25.1569C8.23486 25.481 8.49731 25.7438 8.82141 25.7438Z" fill="#DAA7EE"/>
<path d="M8.82141 30.1461H15.972C16.2961 30.1461 16.5588 29.8834 16.5588 29.5593C16.5588 29.2352 16.2961 28.9724 15.972 28.9724H8.82141C8.49731 28.9724 8.23486 29.2352 8.23486 29.5593C8.23486 29.8834 8.49731 30.1461 8.82141 30.1461Z" fill="#DAA7EE"/>
<path d="M8.82141 32.8683H18.4421C18.7662 32.8683 19.0289 32.6056 19.0289 32.2815C19.0289 31.9577 18.7662 31.6949 18.4421 31.6949H8.82141C8.49731 31.6949 8.23486 31.9577 8.23486 32.2815C8.23486 32.6056 8.49731 32.8683 8.82141 32.8683Z" fill="#DAA7EE"/>
<path d="M4.99774 14.2214C3.69067 14.2214 2.62744 15.2847 2.62744 16.5917C2.62744 17.8988 3.69067 18.962 4.99774 18.962C6.30481 18.962 7.36804 17.8988 7.36804 16.5917C7.36804 15.2847 6.30481 14.2214 4.99774 14.2214ZM4.99774 17.7883C4.33795 17.7883 3.80115 17.2515 3.80115 16.5917C3.80115 15.9319 4.33795 15.3951 4.99774 15.3951C5.65753 15.3951 6.19434 15.9319 6.19434 16.5917C6.19434 17.2515 5.65753 17.7883 4.99774 17.7883Z" fill="#DAA7EE"/>
<path d="M4.99774 21.4252C3.69067 21.4252 2.62744 22.4887 2.62744 23.7955C2.62744 25.1025 3.69067 26.1658 4.99774 26.1658C6.30481 26.1658 7.36804 25.1025 7.36804 23.7955C7.36804 22.4887 6.30481 21.4252 4.99774 21.4252ZM4.99774 24.9924C4.33795 24.9924 3.80115 24.4556 3.80115 23.7958C3.80115 23.1357 4.33795 22.5989 4.99774 22.5989C5.65753 22.5989 6.19434 23.1357 6.19434 23.7958C6.19434 24.4556 5.65753 24.9924 4.99774 24.9924Z" fill="#DAA7EE"/>
<path d="M4.99774 28.55C3.69067 28.55 2.62744 29.6133 2.62744 30.9203C2.62744 32.2274 3.69067 33.2906 4.99774 33.2906C6.30481 33.2906 7.36804 32.2274 7.36804 30.9203C7.36804 29.6133 6.30481 28.55 4.99774 28.55ZM4.99774 32.1169C4.33795 32.1169 3.80115 31.5801 3.80115 30.9203C3.80115 30.2606 4.33795 29.7238 4.99774 29.7238C5.65753 29.7238 6.19434 30.2606 6.19434 30.9203C6.19434 31.5801 5.65753 32.1169 4.99774 32.1169Z" fill="#DAA7EE"/>
</svg>
