<svg width="543" height="329" viewBox="0 0 543 329" fill="none" xmlns="http://www.w3.org/2000/svg">
<g clip-path="url(#clip0_1761_6590)">
<path opacity="0.2" d="M127.492 328.58L412.142 311.93C487.412 307.53 545.652 243.73 542.512 168.39C539.872 105.08 517.192 37.64 440.912 8.81999C387.262 -11.45 317.592 5.13999 273.402 38.85C262.782 46.95 253.022 56.24 241.612 63.17C215.022 79.32 191.672 68.17 163.972 63.88C105.412 54.79 46.9621 73.46 16.7021 127.43C-29.7579 210.35 25.0421 334.57 127.492 328.58Z" fill="#999999"/>
<path d="M429.576 83.0025C440.307 79.9963 446.565 68.8722 443.555 58.1562C440.545 47.4402 429.406 41.1902 418.675 44.1964C407.945 47.2026 401.686 58.3267 404.697 69.0427C407.707 79.7587 418.846 86.0087 429.576 83.0025Z" fill="#007CFF"/>
<path d="M429.576 83.0025C440.307 79.9963 446.565 68.8722 443.555 58.1562C440.545 47.4402 429.406 41.1902 418.675 44.1964C407.945 47.2026 401.686 58.3267 404.697 69.0427C407.707 79.7587 418.846 86.0087 429.576 83.0025Z" fill="#B21093"/>
<path d="M437.339 76.7497C445.22 68.8797 445.22 56.1198 437.339 48.2498C429.458 40.3797 416.681 40.3797 408.8 48.2497C400.92 56.1198 400.92 68.8797 408.8 76.7498C416.681 84.6198 429.458 84.6198 437.339 76.7497Z" fill="#E527BB"/>
<path d="M434.925 74.3389C441.472 67.8003 441.472 57.1992 434.925 50.6606C428.377 44.122 417.762 44.122 411.215 50.6606C404.667 57.1992 404.667 67.8003 411.215 74.3389C417.762 80.8776 428.377 80.8775 434.925 74.3389Z" fill="white"/>
<path d="M415.028 74.3785L417.255 71.0839C417.32 71.128 417.386 71.1704 417.451 71.2128L415.305 74.5604C415.212 74.5004 415.12 74.4403 415.028 74.3785ZM410.582 69.5735C410.528 69.4763 410.473 69.3791 410.421 69.2802L413.933 67.4077C413.97 67.4766 414.007 67.5455 414.046 67.6126L410.582 69.5735ZM421.476 76.7527L421.912 72.8009L422.16 72.8257L421.797 76.7845C421.69 76.7757 421.582 76.7633 421.476 76.7527ZM408.718 62.9684C408.714 62.8588 408.713 62.7493 408.711 62.638L412.691 62.5991L412.696 62.8394L408.718 62.9684ZM428.286 75.8606L426.837 72.1579L427.062 72.0678L428.648 75.714L428.555 75.7528C428.489 75.7811 428.388 75.8217 428.286 75.8606ZM410.144 56.259C410.192 56.1583 410.241 56.0594 410.291 55.9622L413.836 57.7694C413.8 57.8401 413.765 57.9107 413.731 57.9814L410.144 56.259ZM430.93 69.2749C430.98 69.2184 431.028 69.1619 431.075 69.1036L434.15 71.6297C434.077 71.7181 434.003 71.8046 433.929 71.8912L430.93 69.2749ZM416.892 54.1674L414.531 50.9682L414.789 50.781L417.094 54.0208L416.892 54.1674ZM433.18 64.8621L433.234 64.6254L437.127 65.4557C437.104 65.5616 437.081 65.6676 437.054 65.7736L433.18 64.8621ZM421.481 52.2525L420.867 48.3255C420.973 48.3096 421.079 48.2937 421.185 48.2795L421.728 52.2172L421.481 52.2525ZM433.126 59.9034C433.106 59.8292 433.087 59.755 433.066 59.6808L436.893 58.5891C436.924 58.6969 436.954 58.8064 436.982 58.9141L433.126 59.9034ZM426.427 52.6871L427.713 48.9243C427.821 48.9614 427.927 48.9985 428.035 49.0392L426.643 52.763C426.57 52.7365 426.499 52.7118 426.427 52.6871ZM430.769 55.5383L430.608 55.3634L433.497 52.6288C433.573 52.7083 433.647 52.7895 433.722 52.8708L430.769 55.5383Z" fill="black"/>
<path d="M418.855 56.2749L422.857 63.1485L429.331 56.8596" stroke="black" stroke-miterlimit="10" stroke-linecap="round" stroke-linejoin="round"/>
<path d="M424.026 63.4612C423.569 63.9805 422.779 64.0318 422.259 63.5778C421.739 63.122 421.687 62.3323 422.142 61.813C422.598 61.2936 423.389 61.2424 423.909 61.6964C424.429 62.1522 424.48 62.9418 424.026 63.4612Z" fill="black"/>
<path opacity="0.3" d="M411.883 51.7206C418.527 45.2798 429.141 45.437 435.59 52.0722C437.175 53.7027 438.355 55.5735 439.144 57.5626C438.396 55.0718 437.066 52.7152 435.127 50.7208C428.678 44.0856 418.064 43.9284 411.42 50.3692C406.409 55.2272 405.092 62.4506 407.514 68.554C405.775 62.7598 407.236 56.2253 411.883 51.7206Z" fill="black"/>
<path d="M381.309 248.442H155.464C150.009 248.442 145.578 244.021 145.578 238.557V36.8854C145.578 31.4305 150 27 155.464 27H381.309C386.773 27 391.195 31.4215 391.195 36.8854V238.566C391.186 244.021 386.764 248.442 381.309 248.442Z" fill="#D6E2FF"/>
<path d="M303.199 134.167H254.562C253.295 134.167 252.262 135.2 252.262 136.467V142.174C252.262 143.441 253.295 144.475 254.562 144.475H303.199C304.466 144.475 305.499 143.441 305.499 142.174V136.467C305.499 135.2 304.466 134.167 303.199 134.167Z" fill="#A78BEF"/>
<path d="M303.199 148.923H254.562C253.295 148.923 252.262 149.957 252.262 151.224V188.707C252.262 189.975 253.295 191.008 254.562 191.008H303.199C304.466 191.008 305.499 189.975 305.499 188.707V151.224C305.499 149.957 304.466 148.923 303.199 148.923Z" fill="#757575"/>
<path d="M370.238 60.6104H340.223V63.6209H370.238V60.6104Z" fill="#E527BB"/>
<path d="M374.723 69.9385H340.223V72.949H374.723V69.9385Z" fill="#E527BB"/>
<path d="M358.027 79.2129H340.18V82.2235H358.027V79.2129Z" fill="#A78BEF"/>
<path d="M367.679 88.4783H340.18V91.4888H367.679V88.4783Z" fill="#A78BEF"/>
<path d="M289.783 217.851H158.441V220.934H289.783V217.851Z" fill="white"/>
<path d="M300.36 225.041H158.441V228.123H300.36V225.041Z" fill="white"/>
<path d="M250.529 232.23H158.441V235.312H250.529V232.23Z" fill="white"/>
<path d="M226.83 217.851H158.441V220.934H226.83V217.851Z" fill="url(#paint0_linear_1761_6590)"/>
<path d="M232.339 225.041H158.441V228.123H232.339V225.041Z" fill="url(#paint1_linear_1761_6590)"/>
<path d="M206.395 232.23H158.441V235.312H206.395V232.23Z" fill="url(#paint2_linear_1761_6590)"/>
<path opacity="0.73" d="M406.006 241.172H332.737C327.821 241.172 323.84 237.191 323.84 232.275V118.988C323.84 114.072 327.821 110.091 332.737 110.091H406.006C410.921 110.091 414.902 114.072 414.902 118.988V232.275C414.902 237.191 410.921 241.172 406.006 241.172Z" fill="white"/>
<path d="M399.092 194.701H336.095C335.394 194.701 334.828 194.135 334.828 193.434V191.304C334.828 190.604 335.394 190.037 336.095 190.037H399.092C399.793 190.037 400.359 190.604 400.359 191.304V193.434C400.359 194.135 399.793 194.701 399.092 194.701Z" fill="#D4DBE1"/>
<path d="M380.202 204.973H336.095C335.394 204.973 334.828 204.407 334.828 203.706V201.585C334.828 200.884 335.394 200.318 336.095 200.318H380.202C380.903 200.318 381.469 200.884 381.469 201.585V203.706C381.469 204.407 380.894 204.973 380.202 204.973Z" fill="#D4DBE1"/>
<path d="M388.964 215.245H336.095C335.394 215.245 334.828 214.679 334.828 213.978V211.857C334.828 211.156 335.394 210.59 336.095 210.59H388.964C389.665 210.59 390.231 211.156 390.231 211.857V213.978C390.231 214.679 389.665 215.245 388.964 215.245Z" fill="#D4DBE1"/>
<path d="M376.9 247.409H361.839C359.313 247.409 357.273 245.36 357.273 242.843V227.782C357.273 225.256 359.322 223.216 361.839 223.216H376.9C379.426 223.216 381.466 225.256 381.466 227.782V242.843C381.475 245.36 379.426 247.409 376.9 247.409Z" fill="white"/>
<path d="M370.514 230.496H368.223V240.12H370.514V230.496Z" fill="#C5CCD1"/>
<path d="M374.184 236.454V234.162H364.559V236.454H374.184Z" fill="#C5CCD1"/>
<path d="M247.04 271.907H111.502C106.307 271.907 102.102 267.701 102.102 262.507V139.972C102.102 134.778 106.307 130.572 111.502 130.572H247.04C252.234 130.572 256.44 134.778 256.44 139.972V262.498C256.44 267.692 252.234 271.907 247.04 271.907Z" fill="#F5F5F5"/>
<path d="M238.053 179.981L237.918 179.164L218.039 182.426L211.587 196.166L190.153 197.622L183.207 207.858L166.815 207.454L166.797 208.281L183.638 208.703L190.612 198.413L212.126 196.957L218.596 183.172L238.053 179.981Z" fill="#A78BEF"/>
<path d="M213.754 152.239H235.179C236.536 152.239 237.632 151.143 237.632 149.786C237.632 148.438 236.536 147.341 235.179 147.341H213.754C212.406 147.341 211.301 148.438 211.301 149.786C211.301 151.143 212.397 152.239 213.754 152.239Z" fill="#E527BB"/>
<path d="M213.754 160.785H235.179C236.536 160.785 237.632 159.689 237.632 158.332C237.632 156.975 236.536 155.879 235.179 155.879H213.754C212.406 155.879 211.301 156.975 211.301 158.332C211.301 159.689 212.397 160.785 213.754 160.785Z" fill="#E527BB"/>
<path d="M213.754 169.332H235.179C236.536 169.332 237.632 168.235 237.632 166.878C237.632 165.521 236.536 164.425 235.179 164.425H213.754C212.406 164.425 211.301 165.521 211.301 166.878C211.301 168.235 212.397 169.332 213.754 169.332Z" fill="#A78BEF"/>
<path d="M194.575 158.332H117.64C116.238 158.332 115.105 157.2 115.105 155.798V149.112C115.105 147.71 116.238 146.578 117.64 146.578H194.575C195.977 146.578 197.109 147.71 197.109 149.112V155.798C197.109 157.2 195.977 158.332 194.575 158.332Z" fill="#E527BB"/>
<path d="M194.575 175.209H117.64C116.238 175.209 115.105 174.077 115.105 172.675V165.989C115.105 164.587 116.238 163.455 117.64 163.455H194.575C195.977 163.455 197.109 164.587 197.109 165.989V172.675C197.109 174.077 195.977 175.209 194.575 175.209Z" fill="#A78BEF"/>
<path d="M235.365 213.529C229.946 206.124 220.519 203.392 212.26 206.115C210.256 206.771 208.324 207.759 206.536 209.071C201.108 213.052 198.187 219.181 198.088 225.427C198.025 229.759 199.319 234.144 202.069 237.91C202.339 238.287 202.626 238.647 202.923 238.997C204.253 240.588 205.79 241.927 207.452 243.014C214.435 247.562 223.79 247.588 230.908 242.376C240.101 235.636 242.096 222.722 235.365 213.529ZM227.852 238.197C222.514 242.107 215.504 242.089 210.265 238.683C209.016 237.865 207.866 236.867 206.868 235.672C206.643 235.411 206.437 235.142 206.23 234.854C204.163 232.032 203.193 228.743 203.247 225.499C203.318 220.817 205.502 216.216 209.573 213.232C210.921 212.253 212.368 211.516 213.869 211.021C220.07 208.972 227.133 211.03 231.195 216.575C236.246 223.477 234.745 233.156 227.852 238.197Z" fill="#E527BB"/>
<path d="M203.249 225.499L198.082 225.427C198.172 219.181 201.093 213.043 206.53 209.071C208.327 207.759 210.259 206.78 212.254 206.115L213.872 211.021C212.371 211.516 210.924 212.252 209.576 213.232C205.505 216.216 203.321 220.817 203.249 225.499Z" fill="#A78BEF"/>
<path d="M206.87 235.672L202.916 238.997C202.619 238.646 202.341 238.287 202.062 237.91C199.303 234.144 198.009 229.759 198.081 225.427L203.248 225.499C203.203 228.743 204.165 232.032 206.232 234.854C206.439 235.142 206.654 235.411 206.87 235.672Z" fill="#A78BEF"/>
<path d="M207.443 243.005C205.781 241.918 204.253 240.579 202.914 238.988L206.868 235.663C207.866 236.858 209.016 237.865 210.265 238.674L207.443 243.005Z" fill="#A78BEF"/>
<path d="M168.019 250.689H142.102V252.225H168.019V250.689Z" fill="#E2D2CA"/>
<path d="M145.57 326.205H147.844V256.234H145.57V326.205Z" fill="#706865"/>
<path d="M181.975 250.258H163.957V252.459H181.975V250.258Z" fill="#CCBDB7"/>
<path d="M176.376 231.502H169.555V252.225H176.376V231.502Z" fill="#998E89"/>
<path d="M232.625 252.252H132.801V256.234H232.625V252.252Z" fill="#B59074"/>
<path d="M113.643 228.177C113.643 228.177 112.555 243.49 115.539 245.324C117.408 246.474 124.885 250.347 124.66 251.066C124.436 251.794 120.446 257.528 120.446 257.528C120.446 257.528 106.094 248.074 105.635 245.09C105.186 242.178 106.345 222.668 108.314 221.77C109.787 221.096 110.569 221.653 112.429 223.037C115.045 224.978 113.643 228.177 113.643 228.177Z" fill="#A78BEF"/>
<path d="M131.297 316.651C131.297 316.651 130.848 319.752 130.794 320.21C130.74 320.668 125.833 319.94 125.833 319.94L125.438 316.256C125.429 316.256 130.686 316.211 131.297 316.651Z" fill="#424773"/>
<path d="M130.849 319.824C130.849 319.824 132.404 321.693 133.905 322.502C135.406 323.32 137.769 323.634 138.659 324.479C139.297 325.09 140.995 327.705 134.75 327.651C128.504 327.597 125.493 328.02 124.819 327.013C124.154 326.007 125.79 319.608 125.79 319.608C125.79 319.608 127.273 320.138 130.849 319.824Z" fill="#A78BEF"/>
<path d="M162.75 316.678C162.75 316.678 162.301 319.779 162.247 320.246C162.193 320.713 157.286 319.968 157.286 319.968L156.891 316.283C156.882 316.283 162.139 316.247 162.75 316.678Z" fill="#424773"/>
<path d="M162.302 319.851C162.302 319.851 163.857 321.72 165.358 322.529C166.859 323.347 172.395 324.012 173.284 324.856C173.922 325.467 174.992 327.912 166.203 327.687C159.957 327.525 156.946 328.056 156.272 327.049C155.607 326.043 157.243 319.644 157.243 319.644C157.243 319.644 158.645 320.21 162.302 319.851Z" fill="#A78BEF"/>
<path d="M115.465 263.135C115.465 263.135 133.313 266.155 137.348 266.784C141.383 267.422 163.238 272.859 165.97 274.512C168.145 275.834 164.829 307.512 164.056 319.599H155.447L154.818 283.346C144.483 283.607 137.114 280.929 129.592 282.07C122.07 283.212 115.798 284.838 111.017 278.422C111.017 278.431 110.837 264.537 115.465 263.135Z" fill="#231F20"/>
<path d="M133.062 319.644L124.669 319.123L123.851 283.355C119.402 283.463 117.875 283.185 114.28 282.753L107.504 267.009C113.444 268.195 132.46 272.994 134.994 274.53C137.178 275.843 133.835 307.548 133.062 319.644Z" fill="#231F20"/>
<path d="M123.678 196.238C123.678 196.238 130.22 194.432 132.719 199.509C135.217 204.587 134.085 214.22 130.786 215.119C127.488 216.027 122.743 214.984 121.377 211.821C120.011 208.658 118.915 204.164 119.248 201.262C119.571 198.35 121.944 196.93 123.678 196.238Z" fill="#EEA886"/>
<path d="M129.078 214.113C129.078 214.113 129.007 217.977 129.429 218.795C129.851 219.621 120.316 219.415 120.316 219.415C120.316 219.415 121.817 214.778 120.963 210.823C120.128 206.914 129.078 214.113 129.078 214.113Z" fill="#EEA886"/>
<path d="M120.458 209.359C120.458 209.359 120.97 210.392 123.432 210.231C125.904 210.06 129.157 207.085 130.208 206.816C131.26 206.546 131.323 205.953 131.323 205.953L131.88 206.941L132.949 207.103C132.949 207.103 132.221 204.12 133.812 203.068C135.403 202.017 133.093 193.551 125.05 195.591C125.05 195.591 118.903 196.714 118.822 200.147C118.732 203.58 119.263 207.543 120.458 209.359Z" fill="#231F20"/>
<path d="M129.931 218.696C129.931 218.696 129.904 217.123 129.194 216.97C128.485 216.818 121.7 215.883 120.819 216.234L120.441 218.31C120.441 218.31 122.131 219.343 129.931 218.696Z" fill="#A78BEF"/>
<path d="M131.893 205.252C131.714 203.967 130.249 202.484 129.404 204.488C128.568 206.501 129.97 209.422 130.914 209.269C131.857 209.107 132.145 207.004 131.893 205.252Z" fill="#EEA886"/>
<path d="M158.341 237.29H158.332C158.377 237.308 158.386 237.308 158.341 237.29Z" fill="#323657"/>
<path d="M121.772 197.164C121.772 197.164 113.792 196.786 120.379 209.242L121.772 197.164Z" fill="#231F20"/>
<path d="M103.996 323.886L104.589 325.548L129.662 317.784L128.467 314.405L103.996 323.886Z" fill="#918783"/>
<path d="M130.528 289.332H127.68V316.589H130.528V289.332Z" fill="#918783"/>
<path d="M137.501 287.885H120.695V289.493H137.501V287.885Z" fill="#5E5854"/>
<path d="M154.42 323.886L153.827 325.548L128.754 317.784L129.859 314.189L154.42 323.886Z" fill="#918783"/>
<path d="M136.752 325.377V327.319L128.754 317.784L129.859 314.189L136.752 325.377Z" fill="#918783"/>
<path d="M154.42 328.549C155.715 328.549 156.765 327.499 156.765 326.204C156.765 324.909 155.715 323.858 154.42 323.858C153.124 323.858 152.074 324.909 152.074 326.204C152.074 327.499 153.124 328.549 154.42 328.549Z" fill="#BFB2AC"/>
<path d="M136.961 326.204C136.961 327.498 135.909 328.549 134.615 328.549C133.321 328.549 132.27 327.498 132.27 326.204C132.27 324.91 133.321 323.858 134.615 323.858C135.909 323.858 136.961 324.91 136.961 326.204Z" fill="#BFB2AC"/>
<path d="M106.343 326.204C106.343 327.498 105.292 328.549 103.998 328.549C102.704 328.549 101.652 327.498 101.652 326.204C101.652 324.91 102.704 323.858 103.998 323.858C105.292 323.858 106.343 324.91 106.343 326.204Z" fill="#BFB2AC"/>
<path d="M146.119 287.885H112.302C110.64 287.885 109.301 286.537 109.301 284.883V284.802C109.301 283.14 110.649 281.801 112.302 281.801H146.119C147.782 281.801 149.121 283.149 149.121 284.802V284.883C149.121 286.537 147.782 287.885 146.119 287.885Z" fill="#E2D2CA"/>
<path d="M219.856 256.234H217.582V326.204H219.856V256.234Z" fill="#706865"/>
<path d="M199.431 241.486H146.508C144.855 241.486 143.516 240.147 143.516 238.494V202.924C143.516 201.271 144.855 199.932 146.508 199.932H199.431C201.085 199.932 202.424 201.271 202.424 202.924V238.494C202.424 240.147 201.085 241.486 199.431 241.486Z" fill="#E527BB"/>
<path d="M200.118 202.178H145.82V234.98H200.118V202.178Z" fill="#F5F7FF"/>
<path d="M197.702 238.071C197.702 239.006 196.722 239.761 195.509 239.761C194.305 239.761 193.316 239.006 193.316 238.071C193.316 237.137 194.296 236.382 195.509 236.382C196.722 236.382 197.702 237.137 197.702 238.071Z" fill="white"/>
<path d="M185.168 252.306V251.569C185.168 251.569 184.125 246.968 176.774 246.968C169.423 246.968 169.567 252.306 169.567 252.306H185.168Z" fill="#A78BEF"/>
<path d="M169.476 247.651C169.476 247.651 171.076 247.525 171.66 247.175C172.244 246.824 175.749 244.47 176.567 244.838C177.394 245.216 182.867 246.896 182.669 247.696C182.48 248.496 181.977 248.415 181.581 248.28C181.195 248.136 177.223 247.301 176.872 247.444C176.872 247.444 180.773 248.864 180.791 249.907C180.809 250.949 179.973 251.201 179.604 251.596C179.236 251.992 178.787 252.962 177.78 253.043C176.774 253.115 171.867 251.408 170.851 251.336C169.845 251.255 167.967 251.399 167.841 251.237C167.733 251.057 169.476 247.651 169.476 247.651Z" fill="#EEA886"/>
<path d="M140.386 220.88C135.29 219.981 129.934 218.696 129.934 218.696L120.444 218.31C120.444 218.31 111.736 220.224 108.312 221.778C107.989 221.922 107.989 229.543 107.09 231.547L109.93 237.541C109.93 237.541 111.574 249.422 111.916 254.706C112.068 257.132 111.475 278.152 111.475 278.152C111.475 278.152 112.329 278.575 118.8 279.285C125.27 279.995 141.455 279.024 141.554 278.26C141.653 277.496 138.418 249.781 138.274 248.352C138.058 246.15 138.912 235.969 138.912 235.969C140.134 237.604 143.243 245.009 146.488 248.532C148.393 250.608 157.838 251.875 159.617 251.929C163.491 252.055 170.563 252.828 170.77 252.45C170.932 252.226 171.39 246.177 170.941 246.025C170.554 245.899 157.425 245.144 154.064 243.356C152.832 242.7 149.157 234.683 149.157 234.683C149.157 234.683 143.199 222.138 140.386 220.88Z" fill="#A78BEF"/>
<path d="M121.694 277.541H105.769C102.588 277.541 100 274.962 100 271.772V245.27C100 242.089 102.579 239.5 105.769 239.5H121.694C124.875 239.5 127.463 242.08 127.463 245.27V271.772C127.463 274.962 124.875 277.541 121.694 277.541Z" fill="#E2D2CA"/>
<path d="M122.591 286.375C118.547 286.375 115.258 285.018 112.832 282.331C107.341 276.274 108.329 265.616 108.374 265.166C108.455 264.331 109.21 263.711 110.046 263.8C110.881 263.881 111.502 264.627 111.412 265.472C111.403 265.589 110.522 275.25 115.096 280.291C116.947 282.331 119.401 283.32 122.591 283.32C123.436 283.32 124.119 284.003 124.119 284.847C124.119 285.683 123.436 286.375 122.591 286.375Z" fill="#E2D2CA"/>
<path d="M165.143 206.519H150.099C149.866 206.519 149.668 206.33 149.668 206.088V205.216C149.668 204.982 149.857 204.784 150.099 204.784H165.143C165.377 204.784 165.574 204.973 165.574 205.216V206.088C165.574 206.33 165.386 206.519 165.143 206.519Z" fill="#DFE1E8"/>
<path d="M165.143 210.24H150.099C149.866 210.24 149.668 210.051 149.668 209.808V208.936C149.668 208.703 149.857 208.505 150.099 208.505H165.143C165.377 208.505 165.574 208.694 165.574 208.936V209.808C165.574 210.042 165.386 210.24 165.143 210.24Z" fill="#DFE1E8"/>
<path d="M164.128 232.365H151.115C150.315 232.365 149.668 231.718 149.668 230.918V214.212C149.668 213.412 150.315 212.765 151.115 212.765H164.128C164.927 212.765 165.574 213.412 165.574 214.212V230.918C165.574 231.718 164.927 232.365 164.128 232.365Z" fill="#DFE1E8"/>
<path d="M194.828 232.365H171.076C169.808 232.365 168.793 231.34 168.793 230.082V207.085C168.793 205.818 169.817 204.802 171.076 204.802H194.828C196.095 204.802 197.11 205.827 197.11 207.085V230.082C197.11 231.34 196.086 232.365 194.828 232.365Z" fill="#DFE1E8"/>
<path d="M163.157 57.0696H162.645V110.397H163.157V57.0696Z" fill="#E0E0E0"/>
<path d="M199.293 57.0696H198.781V110.397H199.293V57.0696Z" fill="#E0E0E0"/>
<path d="M235.438 57.0696H234.926V110.397H235.438V57.0696Z" fill="#E0E0E0"/>
<path d="M271.575 57.0696H271.062V110.397H271.575V57.0696Z" fill="#E0E0E0"/>
<path d="M307.702 57.0696H307.199V110.397H307.702V57.0696Z" fill="#E0E0E0"/>
<path d="M168.65 113.551H162.898V115.402H168.65V113.551Z" fill="#B8B8B8"/>
<path d="M171.553 50.4912H162.898V51.8842H171.553V50.4912Z" fill="#D9D9D9"/>
<path d="M175.174 53.0615H162.898V54.4455H175.174V53.0615Z" fill="#D9D9D9"/>
<path d="M208.809 50.4912H198.645V51.8842H208.809V50.4912Z" fill="#D9D9D9"/>
<path d="M205.142 53.0615H198.645V54.4455H205.142V53.0615Z" fill="#D9D9D9"/>
<path d="M241.725 50.4912H235.426V51.8842H241.725V50.4912Z" fill="#D9D9D9"/>
<path d="M242.768 53.0615H235.426V54.4455H242.768V53.0615Z" fill="#D9D9D9"/>
<path d="M280.75 50.4912H271.574V51.8842H280.75V50.4912Z" fill="#D9D9D9"/>
<path d="M278.916 53.0615H271.574V54.4455H278.916V53.0615Z" fill="#D9D9D9"/>
<path d="M312.939 50.4912H307.457V51.8842H312.939V50.4912Z" fill="#D9D9D9"/>
<path d="M311.843 53.0615H307.457V54.4455H311.843V53.0615Z" fill="#D9D9D9"/>
<path d="M204.794 113.551H199.043V115.402H204.794V113.551Z" fill="#B8B8B8"/>
<path d="M241.177 113.551H235.426V115.402H241.177V113.551Z" fill="#B8B8B8"/>
<path d="M277.326 113.551H271.574V115.402H277.326V113.551Z" fill="#B8B8B8"/>
<path d="M313.462 113.551H307.711V115.402H313.462V113.551Z" fill="#B8B8B8"/>
<path d="M294.932 94.5443C283.662 94.5443 273.858 89.6735 263.649 84.5959C251.04 78.3232 238.001 71.8438 220.62 73.6142C209.522 74.7465 202.566 79.2668 196.419 83.2479C190.856 86.8606 185.599 90.0329 178.472 90.3025C166.96 90.7429 162.97 85.8271 162.898 85.5306V82.3762C162.916 82.4301 165.424 87.939 178.454 87.8761C184.871 87.8402 189.607 84.7667 195.098 81.2079C201.47 77.074 208.695 72.383 220.369 71.1877C238.441 69.3454 251.795 75.9866 264.718 82.4122C278.234 89.1342 291.139 95.4429 307.45 89.97V92.5582C302.804 94.1309 299.083 94.5443 294.932 94.5443Z" fill="#A78BEF"/>
<path d="M227.27 93.9421C218.949 93.9421 212.352 88.3434 205.891 82.8705C200.993 78.7186 195.907 74.4679 190.047 72.3739C172.146 65.9844 162.988 77.6582 162.898 77.757V74.2072C162.997 74.0904 164.633 71.9606 169.36 69.9385C173.665 68.0963 180.881 66.6224 190.847 70.0913C197.156 72.2841 202.395 76.7235 207.464 81.0282C217.744 89.7453 226.623 97.2672 242.036 85.4856C253.709 76.5528 264.718 68.0423 275.556 64.9329C286.152 61.8954 297.196 64.1151 307.531 74.4589L307.459 77.6851C285.496 55.6317 266.794 69.606 243.509 87.4088C237.345 92.1178 232.024 93.9421 227.27 93.9421Z" fill="#E527BB"/>
<path d="M395.839 180.269H341.82C337.722 180.269 334.379 176.935 334.379 172.828V125.018C334.379 120.911 337.713 117.577 341.82 117.577H395.839C399.937 117.577 403.28 120.911 403.28 125.018V172.828C403.28 176.935 399.937 180.269 395.839 180.269ZM341.82 118.485C338.216 118.485 335.287 121.414 335.287 125.018V172.828C335.287 176.431 338.216 179.361 341.82 179.361H395.839C399.443 179.361 402.373 176.431 402.373 172.828V125.018C402.373 121.414 399.443 118.485 395.839 118.485H341.82Z" fill="#E527BB"/>
<path d="M427.836 314.746C427.836 314.746 428.321 318.179 428.384 318.692C428.447 319.204 433.83 318.386 433.83 318.386L434.261 314.306C434.27 314.306 428.51 314.261 427.836 314.746Z" fill="#5C544D"/>
<path d="M428.327 318.26C428.327 318.26 426.62 320.327 424.975 321.226C423.322 322.124 420.733 322.484 419.763 323.418C419.062 324.092 417.202 326.986 424.05 326.932C430.897 326.869 434.205 327.346 434.941 326.231C435.678 325.117 433.881 318.035 433.881 318.035C433.881 318.035 432.245 318.611 428.327 318.26Z" fill="#A78BEF"/>
<path d="M389.273 314.746C389.273 314.746 389.768 318.179 389.822 318.692C389.885 319.204 395.268 318.386 395.268 318.386L395.708 314.306C395.699 314.306 389.947 314.261 389.273 314.746Z" fill="#5C544D"/>
<path d="M389.765 318.26C389.765 318.26 388.057 320.327 386.413 321.226C384.768 322.124 378.693 322.87 377.723 323.796C377.022 324.47 375.853 327.175 385.487 326.923C392.335 326.743 395.642 327.337 396.37 326.222C397.107 325.108 395.31 318.026 395.31 318.026C395.31 318.026 393.773 318.655 389.765 318.26Z" fill="#A78BEF"/>
<path d="M425.929 226.218C425.929 226.218 428.796 234.728 428.419 242.062C428.041 249.395 429.901 257.42 430.656 265.077C431.501 273.614 434.97 293.834 435.096 298.399C435.222 302.965 434.557 317.559 434.557 317.559L427.619 317.721C427.619 317.721 421.795 282.376 420.286 278.772C418.776 275.169 411.29 249.458 411.038 246.573C410.787 243.679 425.929 226.218 425.929 226.218Z" fill="#231F20"/>
<path d="M396.76 227.728C396.76 227.728 392.95 247.831 392.447 252.316C391.944 256.8 391.611 274.036 391.359 276.84C391.108 279.644 389.679 313.551 388.34 317.712H397.21C397.21 317.712 404.022 293.061 404.022 281.406C404.022 269.75 409.279 256.054 412.676 248.361C416.073 240.669 423.846 240.489 425.931 226.209C425.931 226.218 399.582 223.207 396.76 227.728Z" fill="#231F20"/>
<path d="M414.787 159.042C414.787 159.042 407.796 156.427 404.569 161.756C401.343 167.076 401.658 177.735 405.18 179.047C408.703 180.359 413.996 179.676 415.803 176.342C417.609 173.008 419.236 168.2 419.155 164.982C419.083 161.756 416.62 159.968 414.787 159.042Z" fill="#EEA886"/>
<path d="M406.346 178.714C406.346 178.714 406.634 180.547 406.158 181.446C405.69 182.345 414.956 182.372 414.956 182.372C414.956 182.372 415.702 177.465 417.131 173.313C418.568 169.17 406.346 178.714 406.346 178.714Z" fill="#EEA886"/>
<path d="M417.142 173.313C417.142 173.313 416.504 174.364 413.897 173.96C411.291 173.547 408.101 170.078 407.014 169.7C405.926 169.323 405.917 168.676 405.917 168.676L405.234 169.673L404.075 169.745C404.075 169.745 405.126 166.645 403.536 165.378C401.945 164.111 405.189 155.322 413.556 158.251C413.556 158.251 419.981 160.022 419.748 163.679C419.514 167.337 418.58 171.498 417.142 173.313Z" fill="#231F20"/>
<path d="M405.617 181.347C405.617 181.347 405.644 179.622 406.426 179.46C407.208 179.298 415.062 178.543 416.015 178.921V180.934C416.015 180.916 414.164 182.057 405.617 181.347Z" fill="#E2D2CA"/>
<path d="M406.089 167.355C406.233 166.744 407.796 164.991 408.389 166.87C408.983 168.748 407.491 171.264 406.655 171.049C405.81 170.833 405.711 168.901 406.089 167.355Z" fill="#EEA886"/>
<path d="M405.616 181.347C405.616 181.347 401.312 182.893 396.333 185.014C396.333 185.014 390.6 187.153 389.98 193.488C389.647 196.849 386.07 214.688 385.396 216.198C384.722 217.708 376.787 241.954 376.508 242.457C376.23 242.96 382.979 245.764 383.428 245.539C383.878 245.315 391.112 223.423 391.84 221.806C391.84 221.806 396.001 208.685 396.117 206.726C396.117 206.726 396.234 212.307 396.459 213.87C396.684 215.434 392.756 245.827 392.864 246.663C392.972 247.499 410.712 248.568 417.811 247.786C424.911 247.004 430.636 245.369 430.636 245.369C430.636 245.369 425.046 221.383 425.217 218.723C425.594 212.927 427.526 202.017 427.526 202.017L433.314 212.927L425.908 231.988L427.607 237.784C427.607 237.784 441.375 216.98 441.824 215.074C442.273 213.178 441.15 210.752 440.422 209.188C439.694 207.624 434.922 195.708 433.808 194.037C432.693 192.356 430.797 185.643 426.232 183.774C422.413 182.21 416.005 180.934 416.005 180.934L405.616 181.347Z" fill="#E527BB"/>
<path d="M401.956 230.816L369.52 222.498L363.718 245.124L396.154 253.441L401.956 230.816Z" fill="#E527BB"/>
<path d="M373.688 247.391C373.688 247.391 372.762 248.892 372.421 249.314C372.079 249.746 373.256 250.006 373.751 249.575C374.254 249.153 373.688 247.391 373.688 247.391Z" fill="#C98462"/>
<path d="M380.439 252.513C380.439 252.513 380.987 251.947 381.104 251.579C381.104 251.579 381.266 250.896 381.41 250.419C381.455 250.267 381.5 250.141 381.536 250.051C381.688 249.709 382.138 249.008 382.272 248.083C382.416 247.157 382.821 243.005 382.821 243.005L380.313 242.367L378.291 241.945C378.291 241.945 373.933 246.294 373.699 247.139C373.672 247.22 373.663 247.301 373.645 247.382C373.519 248.119 373.735 248.721 373.708 249.116C373.699 249.26 373.717 250.707 374.059 250.976C374.526 251.354 375.002 251.426 375.389 251.3C375.389 251.3 376.332 251.992 377.123 251.956C377.123 251.956 377.977 252.63 378.938 252.298C378.947 252.28 379.891 252.864 380.439 252.513Z" fill="#DE9D7D"/>
<path d="M390.251 226.263C390.251 226.263 384.491 243.697 383.439 245.53C383.439 245.53 379.216 244.641 376.52 242.448L382.837 223.63L390.251 226.263Z" fill="#E527BB"/>
<path d="M306.388 225.84C306.388 225.84 304.681 225.652 303.872 225.688C303.063 225.732 299.486 227.737 298.282 227.683C297.078 227.62 289.026 224.996 288.657 224.78C288.28 224.573 288.756 223.989 288.756 223.989L306.568 222.246L306.388 225.84Z" fill="#EEA886"/>
<path d="M320.702 197.128L322.545 215.892C322.545 215.892 323.344 218.211 318.096 219.064C312.731 219.936 304.355 221.76 304.355 221.76C304.355 221.76 304.49 228.015 305.2 228.051C307.24 228.159 322.464 225.58 328.494 224.313C333.275 223.306 330.282 197.721 330.282 197.721L320.702 197.128Z" fill="#E527BB"/>
<path d="M306.125 219.532C306.125 219.532 304.463 219.981 303.654 220.053C302.854 220.125 299.017 218.678 297.83 218.912C296.644 219.145 289.077 222.947 288.736 223.207C288.394 223.468 288.951 223.971 288.951 223.971L306.826 223.054L306.125 219.532Z" fill="#EEA886"/>
<path d="M325.88 318.718C325.88 318.718 322.177 320.965 320.497 321.81C318.816 322.654 312.256 322.96 311.609 323.589C310.971 324.218 311.231 326.177 312.319 326.357C313.406 326.546 321.395 327.175 324.055 326.519C326.715 325.863 331.703 326.851 332.799 326.465C333.896 326.078 333.114 320.138 332.674 318.808C332.233 317.487 325.88 318.718 325.88 318.718Z" fill="#A78BEF"/>
<path d="M325.539 316.292L325.881 318.718C325.881 318.718 330.886 319.59 332.387 318.808L331.983 316.283L325.539 316.292Z" fill="#3D416B"/>
<path d="M315.674 231.232C315.53 232.913 315.422 236.58 315.341 240.426C315.323 241.28 315.305 242.151 315.296 243.005C315.197 248.19 315.152 252.989 315.152 252.989C315.395 259.514 316.428 273.623 318.37 276.795C320.985 281.073 324.031 316.678 324.031 316.678L333.656 317.712C333.656 317.712 334.249 293.906 332.811 287.696C331.203 280.758 328.12 271.295 329.882 264.978C330.987 261.015 333.297 248.262 333.297 248.262C333.297 248.262 335.759 233.919 333.207 222.911C332.56 220.152 315.674 231.232 315.674 231.232Z" fill="#231F20"/>
<path d="M309.344 318.718C309.344 318.718 305.642 320.965 303.961 321.81C302.281 322.654 295.721 322.96 295.074 323.589C294.435 324.218 294.696 326.177 295.783 326.357C296.871 326.546 304.86 327.175 307.52 326.519C310.18 325.863 315.168 326.851 316.264 326.465C317.361 326.078 316.579 320.138 316.138 318.808C315.698 317.487 309.344 318.718 309.344 318.718Z" fill="#A78BEF"/>
<path d="M309.004 316.292L309.345 318.718C309.345 318.718 314.351 319.59 315.852 318.808L315.447 316.283L309.004 316.292Z" fill="#3D416B"/>
<path d="M306.938 317.397H316.805C316.805 317.397 320.121 298.318 320.391 289.907C320.418 288.99 320.418 288.208 320.364 287.579C320.22 285.8 320.004 283.841 319.815 281.819C319.815 281.801 319.815 281.792 319.807 281.774C319.222 275.753 318.8 269.148 320.795 264.672C322.467 260.916 326.618 248.631 326.618 248.631C326.618 248.631 331.157 234.8 330.24 223.54C330.006 220.727 312.473 227.8 312.473 227.8C312.087 229.444 310.919 234.603 310.496 238.431C308.124 260.305 309.013 274.558 309.013 274.558C310.361 279.401 306.938 317.397 306.938 317.397Z" fill="#231F20"/>
<path d="M314.004 181.167C314.004 181.167 310.58 189.309 309.87 193.668C309.16 198.027 312.054 209.961 312.188 212.423C312.593 220.071 312.781 228.536 312.781 228.536L329.488 235.987C329.488 235.987 331.258 229.184 332.453 220.871C333.64 212.558 332.759 205.36 332.013 200.579C329.686 185.571 320.294 178.319 320.294 178.319L314.004 181.167Z" fill="#A78BEF"/>
<path d="M301.328 166.519C301.328 166.519 300.168 171.003 301.382 171.354C302.379 171.65 301.436 176 301.346 176.692C301.256 177.384 303.197 177.402 303.691 177.707C304.177 178.022 306.576 182.758 308.113 182.542C309.658 182.318 315.868 178.283 317.243 175.901C318.618 173.52 317.998 164.461 315.859 161.1C313.72 157.739 303.386 158.683 301.328 166.519Z" fill="#EEA886"/>
<path d="M310.758 177.564C310.758 177.564 310.875 178.004 311.054 178.678C311.126 178.966 311.207 179.289 311.297 179.649C311.36 179.918 311.432 180.206 311.504 180.502C311.531 180.61 311.558 180.718 311.576 180.826C311.692 181.32 311.8 181.841 311.908 182.354C312.178 183.675 312.375 184.951 312.339 185.679C312.25 187.683 319.385 178.22 319.385 178.22C319.385 178.22 317.723 171.965 316.995 164.767C316.258 157.55 310.758 177.564 310.758 177.564Z" fill="#EEA886"/>
<path d="M301.114 167.481C301.114 167.481 297.879 163.742 301.06 159.599C304.233 155.456 312.905 159.222 313.776 159.231C314.648 159.24 319.303 158.404 319.061 167.184C318.836 174.993 318.459 174.661 318.459 174.661C318.459 174.661 316.05 171.381 315.044 170.976C313.471 170.338 310.595 171.291 310.595 171.291C310.595 171.291 311.08 167.238 308.771 167.256C306.452 167.256 303.118 166.124 301.114 167.481Z" fill="#231F20"/>
<path d="M312.383 168.586C312.455 168.029 312.536 165.692 314.729 166.51C316.922 167.328 314.891 172.199 314.576 172.333C314.262 172.468 311.826 173.268 312.383 168.586Z" fill="#EEA886"/>
<path d="M311.707 231.25C311.707 231.25 312.471 227.647 312.624 227.107L335.162 230.855L334.938 233.767C334.929 233.767 318.69 232.796 311.707 231.25Z" fill="#23263D"/>
<path d="M335.226 213.223C335.226 213.223 334.022 228.905 341.993 245.755C342.964 247.813 327.066 247.705 327.066 247.705L335.226 213.223Z" fill="#E527BB"/>
<path d="M312.004 199.267C312.3 200.992 312.552 202.744 312.777 204.497C313.217 207.984 313.514 211.48 313.711 214.886C313.729 215.245 313.747 215.595 313.765 215.946C313.792 216.521 313.819 217.087 313.846 217.653C313.873 218.408 313.9 219.154 313.927 219.9C314.376 235.411 320.119 247.633 320.119 247.633C320.119 247.633 331.514 248.415 334.444 246.815C334.444 246.815 336.493 229.345 335.558 212.082C335.486 210.752 335.396 209.413 335.288 208.092C334.129 194.108 328.665 180.583 320.29 178.301C320.092 178.498 310.458 190.172 312.004 199.267Z" fill="#E527BB"/>
<path d="M275.182 226.886L304.922 225.684L304.812 222.963L275.072 224.165L275.182 226.886Z" fill="#E527BB"/>
<path d="M265.104 198.886L275.164 226.897L277.727 225.977L267.666 197.966L265.104 198.886Z" fill="#E527BB"/>
<path d="M315.85 272.895C316.686 278.323 320.308 289.655 320.389 289.907C320.416 288.99 320.416 288.208 320.362 287.579C320.218 285.8 320.002 283.841 319.814 281.819C319.814 281.801 319.814 281.792 319.805 281.774C319.616 280.012 318.358 276.768 317.513 274.566C316.668 272.347 315.841 263.531 315.841 263.531C315.841 263.531 315.006 267.404 315.85 272.895Z" fill="#191B2B"/>
<path d="M311.562 180.817C311.679 181.311 311.787 181.832 311.895 182.345C313.998 180.907 316.406 177.069 316.559 176.827C315.696 178.076 311.625 180.772 311.562 180.817Z" fill="#A77860"/>
<path d="M313.766 214.005C313.784 214.355 313.802 214.697 313.82 215.038C313.847 215.595 313.873 216.153 313.9 216.71C316.462 216.189 321.314 214.886 322.779 212.297C324.774 208.766 319.805 200.516 319.697 200.345C319.742 200.57 321.827 210.716 319.697 211.731C318.313 212.378 315.446 213.277 313.766 214.005Z" fill="#B03E3D"/>
<path d="M312.05 188.096C312.05 188.096 310.315 196.777 311.843 207.139C313.119 215.811 313.614 222.039 313.614 222.039L312.976 224.483L311.807 222.605C311.807 222.605 309.794 211.497 309.417 206.878C309.039 202.223 308.635 195.959 311.331 188.051L312.05 188.096Z" fill="#E527BB"/>
<path d="M312.155 188.105C312.155 188.105 311.939 188.384 311.598 188.492C311.247 188.599 310.663 188.105 312.11 185.445L312.155 188.105Z" fill="#282B45"/>
<path d="M319.132 177.222C319.132 177.222 314.728 182.821 311.844 184.339L311.961 189.048L320.3 178.3L319.132 177.222Z" fill="#A78BEF"/>
<path d="M328.683 192.589C328.341 190.451 325.843 181.347 320.703 182.686C315.562 184.025 317.009 190.217 318.132 194.89C319.31 199.77 323.515 211.569 322.778 212.306C322.042 213.043 316.092 215.739 314.789 216.189C313.495 216.638 305.236 219.253 304.607 219.532C303.987 219.801 307.798 226.55 307.798 226.55C307.798 226.55 328.368 219.541 331.855 217.267C335.342 214.984 328.683 192.589 328.683 192.589Z" fill="#E527BB"/>
</g>
<defs>
<linearGradient id="paint0_linear_1761_6590" x1="260.444" y1="219.393" x2="128.972" y2="219.393" gradientUnits="userSpaceOnUse">
<stop stop-color="#FFC05C"/>
<stop offset="1" stop-color="#FF3857"/>
</linearGradient>
<linearGradient id="paint1_linear_1761_6590" x1="260.444" y1="226.58" x2="128.972" y2="226.58" gradientUnits="userSpaceOnUse">
<stop stop-color="#FFC05C"/>
<stop offset="1" stop-color="#FF3857"/>
</linearGradient>
<linearGradient id="paint2_linear_1761_6590" x1="260.444" y1="233.768" x2="128.972" y2="233.768" gradientUnits="userSpaceOnUse">
<stop stop-color="#FFC05C"/>
<stop offset="1" stop-color="#FF3857"/>
</linearGradient>
<clipPath id="clip0_1761_6590">
<rect width="542.64" height="328.79" fill="white"/>
</clipPath>
</defs>
</svg>
