<svg width="533" height="331" viewBox="0 0 533 331" fill="none" xmlns="http://www.w3.org/2000/svg">
<path opacity="0.2" fill-rule="evenodd" clip-rule="evenodd" d="M0 7.5756C0 7.5756 496.166 -10.2363 522.25 8.76437C545.499 25.7019 520.61 239.759 514.929 286.131C514.801 287.134 513.992 287.91 512.938 288.028C382.355 302.136 78.1811 295.779 13.6451 294.227C12.5792 294.197 11.7008 293.49 11.49 292.498C2.02627 247.216 0 7.5756 0 7.5756Z" fill="#999999"/>
<path d="M438.815 312.633H410.262V312.845H438.815V312.633Z" fill="#ECECEC"/>
<path d="M336.515 314.973H329.023V315.184H336.515V314.973Z" fill="#ECECEC"/>
<path d="M409.393 304.648H392.852V304.86H409.393V304.648Z" fill="#ECECEC"/>
<path d="M133.457 306.094H96.2227V306.306H133.457V306.094Z" fill="#ECECEC"/>
<path d="M146.587 306.094H141.125V306.306H146.587V306.094Z" fill="#ECECEC"/>
<path d="M245.08 309.723H164.328V309.935H245.08V309.723Z" fill="#ECECEC"/>
<path d="M482 298.781H51V298.993H482V298.781Z" fill="#ECECEC"/>
<path d="M320.076 298.57H125.554L123.949 293.071H321.672L320.076 298.57Z" fill="#E1E1E1"/>
<path d="M220.954 218.479H115.035V254.978H220.954V218.479Z" fill="#ECECEC"/>
<path d="M220.954 254.979H115.035V291.478H220.954V254.979Z" fill="#ECECEC"/>
<path d="M220.965 224.094V220.401L115.046 220.401V224.094L220.965 224.094Z" fill="#E1E1E1"/>
<path d="M220.965 260.31V256.617H115.046V260.31H220.965Z" fill="#E1E1E1"/>
<path d="M113.191 216.84V293.071H115.037H116.882H219.101H220.946H222.791V216.84H113.191ZM219.11 289.378H116.891V256.903H219.11V289.378ZM219.11 253.219H116.891V220.745H219.11V253.219Z" fill="#F5F5F5"/>
<path d="M330.583 218.479H224.664V254.978H330.583V218.479Z" fill="#ECECEC"/>
<path d="M330.583 254.979H224.664V291.478H330.583V254.979Z" fill="#ECECEC"/>
<path d="M330.586 224.091V220.398L224.667 220.398V224.091L330.586 224.091Z" fill="#E1E1E1"/>
<path d="M330.586 260.307V256.614H224.667V260.307H330.586Z" fill="#E1E1E1"/>
<path d="M222.809 216.84V293.071H224.654H226.499H328.718H330.563H332.408V216.84H222.809ZM328.737 289.378H226.517V256.903H328.737V289.378ZM328.737 253.219H226.517V220.745H328.737V253.219Z" fill="#F5F5F5"/>
<path d="M280.803 240.15C280.803 241.9 279.382 243.328 277.62 243.328C275.867 243.328 274.438 241.909 274.438 240.15C274.438 238.4 275.858 236.973 277.62 236.973C279.382 236.973 280.803 238.4 280.803 240.15Z" fill="#E1E1E1"/>
<path d="M280.803 239.257C280.803 241.007 279.382 242.434 277.62 242.434C275.867 242.434 274.438 241.016 274.438 239.257C274.438 237.507 275.858 236.079 277.62 236.079C279.382 236.079 280.803 237.498 280.803 239.257Z" fill="#FAFAFA"/>
<path d="M280.803 273.675C280.803 275.425 279.382 276.852 277.62 276.852C275.867 276.852 274.438 275.434 274.438 273.675C274.438 271.925 275.858 270.497 277.62 270.497C279.382 270.497 280.803 271.925 280.803 273.675Z" fill="#E1E1E1"/>
<path d="M280.803 272.781C280.803 274.531 279.382 275.959 277.62 275.959C275.867 275.959 274.438 274.541 274.438 272.781C274.438 271.032 275.858 269.604 277.62 269.604C279.382 269.604 280.803 271.032 280.803 272.781Z" fill="#FAFAFA"/>
<path d="M171.182 240.15C171.182 241.9 169.761 243.328 167.999 243.328C166.246 243.328 164.816 241.909 164.816 240.15C164.816 238.4 166.237 236.973 167.999 236.973C169.752 236.973 171.182 238.4 171.182 240.15Z" fill="#E1E1E1"/>
<path d="M171.182 239.257C171.182 241.007 169.761 242.434 167.999 242.434C166.246 242.434 164.816 241.016 164.816 239.257C164.816 237.507 166.237 236.079 167.999 236.079C169.752 236.079 171.182 237.498 171.182 239.257Z" fill="#FAFAFA"/>
<path d="M171.182 273.675C171.182 275.425 169.761 276.852 167.999 276.852C166.246 276.852 164.816 275.434 164.816 273.675C164.816 271.925 166.237 270.497 167.999 270.497C169.752 270.497 171.182 271.925 171.182 273.675Z" fill="#E1E1E1"/>
<path d="M171.182 272.781C171.182 274.531 169.761 275.959 167.999 275.959C166.246 275.959 164.816 274.541 164.816 272.781C164.816 271.032 166.237 269.604 167.999 269.604C169.752 269.604 171.182 271.032 171.182 272.781Z" fill="#FAFAFA"/>
<path d="M375.704 115.616H379.496V104.583H375.704V115.616Z" fill="#1A2E35"/>
<path d="M365.218 98.3157C365.698 94.9908 368.253 92.9922 371.316 92.937C371.694 92.9278 374.25 92.9462 374.72 92.937C375.117 92.9278 375.523 92.9462 375.929 93.0107C377.174 93.1857 378.217 93.2962 379.213 93.3514C380.219 93.287 381.298 93.1764 382.58 93.0107C383.042 92.9462 386.695 92.9462 387.009 92.937C390.173 92.9094 392.332 94.9171 391.981 98.3157C391.972 98.3893 391.972 98.417 391.963 98.4907C391.575 102.23 388.217 106.264 384.444 106.761C381.593 107.139 379.702 107.259 377.506 107.12C375.283 107.259 373.419 107.139 370.661 106.761C367.008 106.264 364.646 102.23 365.181 98.4814C365.199 98.417 365.209 98.3893 365.218 98.3157Z" fill="#E527BB"/>
<path d="M391.18 109.589C390.682 109.607 388.348 109.552 387.619 109.589C387.038 109.616 386.42 109.718 385.765 109.893C382.342 110.804 379.584 111.339 376.973 111.504C374.408 111.339 371.779 110.804 368.578 109.893C367.775 109.662 366.991 109.561 366.253 109.579C365.727 109.589 363.513 109.579 362.922 109.579C360.164 109.598 357.987 111.293 357.507 114.442C355.763 125.918 354.029 137.385 352.285 148.86H384.501C387.536 148.86 390.35 147.949 392.702 146.392C393.708 135.745 394.714 125.089 395.719 114.442C396.024 111.182 394.123 109.478 391.18 109.589Z" fill="#E527BB"/>
<path d="M370.672 106.77C374.722 107.323 376.825 107.323 381.004 106.77C384.778 106.273 388.136 102.239 388.523 98.4998C388.532 98.4261 388.532 98.3985 388.542 98.3248C388.929 94.5855 386.263 92.5225 382.582 93.0198C378.495 93.5632 376.438 93.5632 372.48 93.0198C368.919 92.5317 365.745 94.5855 365.21 98.3248C365.201 98.3985 365.192 98.4261 365.182 98.4998C364.657 102.23 367.018 106.264 370.672 106.77Z" fill="#E527BB"/>
<path opacity="0.2" d="M385.763 109.893C377.396 112.121 372.958 112.121 365.135 109.893C361.38 108.824 358.114 110.491 357.515 114.442C355.771 125.918 354.037 137.385 352.293 148.86H384.509C386.114 148.86 387.655 148.602 389.094 148.133C390.155 136.906 391.216 125.679 392.267 114.452C392.646 110.491 389.776 108.824 385.763 109.893Z" fill="white"/>
<path d="M334.075 131.849L328.134 132.42L319.037 130.274L315.734 135.708L317.856 136.795L320.818 135.883L324.923 136.694L328.604 136.114L335.606 136.289L334.075 131.849Z" fill="#FFC3BD"/>
<path d="M331.668 131.619L333.079 136.685C333.079 136.685 343.32 138.075 347.342 136.316C351.365 134.557 348.329 104.892 344.455 105.223C340.589 105.546 342.711 121.958 342.711 127.115C342.72 131.057 331.668 131.619 331.668 131.619Z" fill="#007CFF"/>
<path d="M331.668 131.619L333.079 136.685C333.079 136.685 343.32 138.075 347.342 136.316C351.365 134.557 348.329 104.892 344.455 105.223C340.589 105.546 342.711 121.958 342.711 127.115C342.72 131.057 331.668 131.619 331.668 131.619Z" fill="#8165E5"/>
<path d="M343.698 105.26C339.823 110.795 348.735 119.49 348.919 148.861H377.703C378.543 140.931 381.513 109.838 377.371 103.971C372.601 97.2382 347.388 99.9828 343.698 105.26Z" fill="#A78BEF"/>
<path d="M353.005 100.01C353.005 100.01 346.122 102.608 352.35 108.686L355.671 107.323L360.45 108.686C360.45 108.686 372.581 95.3132 353.005 100.01Z" fill="#007CFF"/>
<path d="M353.005 100.01C353.005 100.01 346.122 102.608 352.35 108.686L355.671 107.323L360.45 108.686C360.45 108.686 372.581 95.3132 353.005 100.01Z" fill="#8165E5"/>
<path d="M353.958 106.236C352.269 104.855 350.295 102.736 351.965 101.346C355.102 100.581 358.783 100.102 362.408 100.01C363.377 100.646 362.833 102.313 357.639 106.292C356.55 107.12 355.028 107.102 353.958 106.236Z" fill="#FFC3BD"/>
<path d="M352.195 97.4684L357.97 91.2056C358.524 96.0132 361.08 99.9459 361.596 100.102L360.96 102.304C353.957 110.16 352.343 102.617 352.343 102.617C354.05 101.198 352.195 97.4684 352.195 97.4684Z" fill="#FFC3BD"/>
<path opacity="0.2" d="M355.655 93.7197L358.349 93.4526C358.349 93.4526 358.229 101.511 352.712 102.202C353.736 100.572 352.195 97.4774 352.195 97.4774L355.655 93.7197Z" fill="#1A2E35"/>
<path d="M357.184 84.3255C358.429 90.0173 359.462 93.2776 357.479 97.0353C355.578 100.765 351.012 102.239 347.275 100.342C345.901 99.6418 344.775 98.5458 344.047 97.1919C341.426 92.5593 339.812 84.0307 344.6 80.0704C347.783 77.2798 352.636 77.5929 355.431 80.7704C356.307 81.7835 356.916 83.0084 357.184 84.3255Z" fill="#FFC3BD"/>
<path d="M354.076 75.7969C335.698 72.2787 341.077 87.2174 341.077 87.2174C341.077 87.2174 341.215 84.657 343.614 84.657C346.003 84.657 348.116 82.7782 348.116 82.7782C346.705 84.482 344.887 84.9978 344.887 84.9978C349.076 85.0623 351.659 82.594 353.07 80.6046C353.07 80.6046 353.227 81.4243 353.227 81.8756C353.227 83.9755 354.934 85.1175 355.792 87.9726C356.65 90.8277 360.063 87.9726 360.063 87.9726C364.833 75.7233 354.076 75.7969 354.076 75.7969Z" fill="#1A2E35"/>
<path d="M360.628 88.3596C360.6 89.6582 360.083 90.9108 359.179 91.841C357.98 93.0567 356.615 92.1449 356.301 90.5424C356.024 89.0872 356.31 86.7202 357.823 86.1123C359.345 85.5045 360.646 86.7478 360.628 88.3596Z" fill="#FFC3BD"/>
<path d="M354.379 76.626C354.379 76.626 350.495 71.892 347.802 73.1446C345.108 74.4156 352.728 74.7195 354.379 76.626Z" fill="#1A2E35"/>
<path d="M354.084 132.835L348.152 133.406L339.056 130.357L334.84 134.88L336.962 135.957H340.836L344.933 137.679L348.623 137.108L355.625 137.274L354.084 132.835Z" fill="#FFC3BD"/>
<path d="M375.902 103.492C373.992 102.193 371.944 103.455 369.878 115.336C367.424 129.436 365.791 130.072 351.676 132.605L353.207 137.67C353.207 137.67 365.256 139.153 371.086 135.368C376.926 131.582 381.059 107.001 375.902 103.492Z" fill="#007CFF"/>
<path d="M375.902 103.492C373.992 102.193 371.944 103.455 369.878 115.336C367.424 129.436 365.791 130.072 351.676 132.605L353.207 137.67C353.207 137.67 365.256 139.153 371.086 135.368C376.926 131.582 381.059 107.001 375.902 103.492Z" fill="#8165E5"/>
<path d="M358.725 139.088H279.957C280.464 140.488 281.175 141.787 282.06 142.947H358.725C359.795 142.947 360.662 142.082 360.662 141.013C360.653 139.954 359.795 139.088 358.725 139.088Z" fill="#1A2E35"/>
<path opacity="0.6" d="M358.725 139.088H279.957C280.464 140.488 281.175 141.787 282.06 142.947H358.725C359.795 142.947 360.662 142.082 360.662 141.013C360.653 139.954 359.795 139.088 358.725 139.088Z" fill="white"/>
<path d="M293.915 148.86H356.916V142.948H282.051C284.772 146.539 289.071 148.86 293.915 148.86Z" fill="#1A2E35"/>
<path opacity="0.4" d="M293.915 148.86H356.916V142.948H282.051C284.772 146.539 289.071 148.86 293.915 148.86Z" fill="white"/>
<path d="M346.583 136.583H300.677C299.985 136.583 299.422 137.145 299.422 137.836C299.422 138.527 299.985 139.088 300.677 139.088H346.583C347.275 139.088 347.838 138.527 347.838 137.836C347.838 137.145 347.275 136.583 346.583 136.583Z" fill="#1A2E35"/>
<path d="M346.583 136.583H300.677C299.985 136.583 299.422 137.145 299.422 137.836C299.422 138.527 299.985 139.088 300.677 139.088H346.583C347.275 139.088 347.838 138.527 347.838 137.836C347.838 137.145 347.275 136.583 346.583 136.583Z" fill="#C10C9F"/>
<path d="M301.372 138.324H317.064C317.47 138.324 317.756 137.919 317.627 137.532L309.02 112.996C308.78 112.324 308.143 111.864 307.424 111.864H291.731C291.325 111.864 291.039 112.269 291.168 112.656L299.776 137.191C300.015 137.873 300.652 138.324 301.372 138.324Z" fill="#1A2E35"/>
<path d="M301.372 138.324H317.064C317.47 138.324 317.756 137.919 317.627 137.532L309.02 112.996C308.78 112.324 308.143 111.864 307.424 111.864H291.731C291.325 111.864 291.039 112.269 291.168 112.656L299.776 137.191C300.015 137.873 300.652 138.324 301.372 138.324Z" fill="#C10C9F"/>
<path d="M300.614 138.324H316.306C316.712 138.324 316.998 137.919 316.869 137.532L308.262 112.996C308.022 112.324 307.385 111.864 306.666 111.864H290.973C290.567 111.864 290.281 112.269 290.41 112.656L299.018 137.191C299.248 137.873 299.894 138.324 300.614 138.324Z" fill="#1A2E35"/>
<path d="M300.614 138.324H316.306C316.712 138.324 316.998 137.919 316.869 137.532L308.262 112.996C308.022 112.324 307.385 111.864 306.666 111.864H290.973C290.567 111.864 290.281 112.269 290.41 112.656L299.018 137.191C299.248 137.873 299.894 138.324 300.614 138.324Z" fill="#E527BB"/>
<path d="M302.365 125.098C302.568 126.038 303.214 126.802 303.823 126.802C304.423 126.802 304.755 126.038 304.552 125.098C304.349 124.159 303.703 123.395 303.094 123.395C302.485 123.395 302.162 124.159 302.365 125.098Z" fill="#CC8E05"/>
<path d="M319.075 139.088C318.383 139.088 317.82 138.527 317.82 137.836C317.82 137.145 318.383 136.583 319.075 136.583H346.586C347.278 136.583 347.84 137.145 347.84 137.836C347.84 138.527 347.278 139.088 346.586 139.088H319.075Z" fill="#C10C9F"/>
<path d="M384.512 34.978H293.926C283.713 34.978 275.41 43.2671 275.41 53.4626V134.023C275.41 144.209 283.713 152.507 293.926 152.507H384.512C394.715 152.507 403.027 144.218 403.027 134.023V53.4626C403.018 43.2671 394.715 34.978 384.512 34.978ZM399.383 134.014C399.383 142.211 392.722 148.86 384.512 148.86H293.926C285.715 148.86 279.054 142.211 279.054 134.014V53.4626C279.054 45.2657 285.715 38.616 293.926 38.616H384.512C392.722 38.616 399.383 45.2657 399.383 53.4626V134.014Z" fill="#007CFF"/>
<path d="M384.512 34.978H293.926C283.713 34.978 275.41 43.2671 275.41 53.4626V134.023C275.41 144.209 283.713 152.507 293.926 152.507H384.512C394.715 152.507 403.027 144.218 403.027 134.023V53.4626C403.018 43.2671 394.715 34.978 384.512 34.978ZM399.383 134.014C399.383 142.211 392.722 148.86 384.512 148.86H293.926C285.715 148.86 279.054 142.211 279.054 134.014V53.4626C279.054 45.2657 285.715 38.616 293.926 38.616H384.512C392.722 38.616 399.383 45.2657 399.383 53.4626V134.014Z" fill="#E527BB"/>
<path opacity="0.6" d="M345.353 55.6086H356.396C357.696 55.6086 358.748 54.5586 358.748 53.26V51.5654C358.748 50.2667 357.696 49.2168 356.396 49.2168H345.353C344.052 49.2168 343 50.2667 343 51.5654V53.26C343 54.5586 344.052 55.6086 345.353 55.6086Z" fill="white"/>
<path opacity="0.6" d="M378.821 65.6227H389.864C391.165 65.6227 392.217 64.5728 392.217 63.2742V61.5795C392.217 60.2809 391.165 59.231 389.864 59.231H378.821C377.52 59.231 376.469 60.2809 376.469 61.5795V63.2742C376.469 64.5728 377.52 65.6227 378.821 65.6227Z" fill="white"/>
<path opacity="0.6" d="M339.005 63.5109H350.048C351.349 63.5109 352.4 62.461 352.4 61.1624V59.4677C352.4 58.1691 351.349 57.1191 350.048 57.1191H339.005C337.704 57.1191 336.652 58.1691 336.652 59.4677V61.1624C336.662 62.461 337.713 63.5109 339.005 63.5109Z" fill="white"/>
<path opacity="0.6" d="M372.474 73.5248H383.517C384.817 73.5248 385.869 72.4749 385.869 71.1763V69.4816C385.869 68.183 384.817 67.1331 383.517 67.1331H372.474C371.173 67.1331 370.121 68.183 370.121 69.4816V71.1763C370.13 72.4749 371.182 73.5248 372.474 73.5248Z" fill="white"/>
<path opacity="0.6" d="M327.571 55.6086H338.614C339.915 55.6086 340.967 54.5586 340.967 53.26V51.5654C340.967 50.2667 339.915 49.2168 338.614 49.2168H327.571C326.27 49.2168 325.219 50.2667 325.219 51.5654V53.26C325.228 54.5586 326.28 55.6086 327.571 55.6086Z" fill="white"/>
<path opacity="0.6" d="M361.04 65.6227H372.083C373.384 65.6227 374.436 64.5728 374.436 63.2742V61.5795C374.436 60.2809 373.384 59.231 372.083 59.231H361.04C359.739 59.231 358.688 60.2809 358.688 61.5795V63.2742C358.697 64.5728 359.748 65.6227 361.04 65.6227Z" fill="white"/>
<path d="M245.001 71.3853H193.402V129.565H245.001V71.3853Z" fill="#1A2E35"/>
<path d="M249.134 129.565H189.27V134.262H249.134V129.565Z" fill="#1A2E35"/>
<g opacity="0.4">
<path d="M249.134 129.565H189.27V134.262H249.134V129.565Z" fill="white"/>
</g>
<path opacity="0.6" d="M245.001 71.3853H193.402V129.565H245.001V71.3853Z" fill="white"/>
<path opacity="0.5" d="M241.357 75.0232H197.047V125.927H241.357V75.0232Z" fill="white"/>
<g opacity="0.2">
<path d="M197.047 75.0232V125.927H197.361L209.538 75.0232H197.047Z" fill="white"/>
<path d="M235.046 75.0232H232.768L220.59 125.927H222.869L235.046 75.0232Z" fill="white"/>
<path d="M229.698 75.0232H220.14L207.953 125.927H217.52L229.698 75.0232Z" fill="white"/>
</g>
<path d="M163.587 118.301C161.834 118.43 159.629 117.03 158.549 115.207C158.208 114.636 158.042 114.35 157.691 113.779C155.2 109.718 149.739 106.807 145.975 107.084C145.597 107.111 145.412 107.12 145.034 107.148C144.582 107.185 142.838 107.305 142.386 107.341C142.008 107.369 141.823 107.378 141.445 107.406C137.672 107.682 136.823 111.044 139.065 115.124C139.379 115.695 139.535 115.98 139.831 116.551C140.79 118.384 140.08 119.996 138.327 120.125C135.31 120.346 134.037 123.127 135.199 126.415C139.028 139.963 140.08 151.402 138.613 163.781C141.261 166.221 144.794 167.732 148.687 167.732H179.288C180.469 152.222 178.246 139.3 172.074 123.754C170.533 120.484 166.603 118.08 163.587 118.301Z" fill="#007CFF"/>
<path d="M163.587 118.301C161.834 118.43 159.629 117.03 158.549 115.207C158.208 114.636 158.042 114.35 157.691 113.779C155.2 109.718 149.739 106.807 145.975 107.084C145.597 107.111 145.412 107.12 145.034 107.148C144.582 107.185 142.838 107.305 142.386 107.341C142.008 107.369 141.823 107.378 141.445 107.406C137.672 107.682 136.823 111.044 139.065 115.124C139.379 115.695 139.535 115.98 139.831 116.551C140.79 118.384 140.08 119.996 138.327 120.125C135.31 120.346 134.037 123.127 135.199 126.415C139.028 139.963 140.08 151.402 138.613 163.781C141.261 166.221 144.794 167.732 148.687 167.732H179.288C180.469 152.222 178.246 139.3 172.074 123.754C170.533 120.484 166.603 118.08 163.587 118.301Z" fill="#C620A7"/>
<path d="M163.586 118.301C161.833 118.43 159.628 117.03 158.549 115.207C158.208 114.636 158.042 114.35 157.691 113.779C155.2 109.718 149.739 106.807 145.975 107.084C145.596 107.111 145.412 107.12 145.034 107.148C141.27 107.424 140.449 110.786 142.736 114.857C143.059 115.428 143.216 115.713 143.521 116.284C144.508 118.117 143.807 119.729 142.054 119.849C139.037 120.07 137.792 122.851 139 126.139C143.29 140.7 144.342 152.821 142.487 166.369C144.379 167.234 146.473 167.732 148.687 167.732H179.288C180.469 152.222 178.246 139.3 172.074 123.754C170.533 120.484 166.603 118.08 163.586 118.301Z" fill="#E527BB"/>
<path d="M184.291 133.655C184.291 133.655 182.954 151.292 187.391 151.108C191.819 150.923 200.547 150.988 200.547 150.988L207.752 147.774C208.139 147.599 208.592 147.681 208.887 147.976L212.153 151.209C212.808 151.854 212.328 152.977 211.405 152.95L209.413 152.894C209.413 152.894 205.935 155.068 200.63 154.571C201.654 154.257 182.4 157.831 180.417 155.105C177.704 151.375 176.523 135.791 176.523 135.791L184.291 133.655Z" fill="#CD5B51"/>
<path opacity="0.1" d="M184.291 133.655C184.291 133.655 182.954 151.292 187.391 151.108C191.819 150.923 200.547 150.988 200.547 150.988L207.752 147.774C208.139 147.599 208.592 147.681 208.887 147.976L212.153 151.209C212.808 151.854 212.328 152.977 211.405 152.95L209.413 152.894C209.413 152.894 205.935 155.068 200.63 154.571C201.654 154.257 182.4 157.831 180.417 155.105C177.704 151.375 176.523 135.791 176.523 135.791L184.291 133.655Z" fill="black"/>
<path d="M180.12 122.676C183.128 122.584 186.513 126.471 185.019 136.814L176.762 138.407C176.753 138.407 174.077 122.86 180.12 122.676Z" fill="#1A2E35"/>
<path d="M180.12 122.676C183.128 122.584 186.513 126.471 185.019 136.814L176.762 138.407C176.753 138.407 174.077 122.86 180.12 122.676Z" fill="#8165E5"/>
<path d="M149.628 122.842C145.117 128.654 145.855 159.203 146.141 167.492C146.971 167.63 147.811 167.723 148.687 167.723H174.934C177.176 138.352 186.696 129.657 183.209 124.122C179.879 118.854 154.868 116.109 149.628 122.842Z" fill="#A78BEF"/>
<path d="M171.418 126.471C171.418 126.471 177.959 122.409 175.302 120.208C172.166 119.443 168.485 118.964 164.859 118.872C163.789 119.581 164.564 121.543 171.418 126.471Z" fill="#CD5B51"/>
<path d="M175.081 116.34L169.305 110.077C168.752 114.885 166.196 118.817 165.68 118.974L166.316 121.175C173.318 129.031 174.933 121.488 174.933 121.488C173.217 120.061 175.081 116.34 175.081 116.34Z" fill="#CD5B51"/>
<path opacity="0.2" d="M171.62 112.582L168.926 112.315C168.926 112.315 169.046 120.374 174.563 121.064C173.539 119.434 175.079 116.34 175.079 116.34L171.62 112.582Z" fill="#1A2E35"/>
<path d="M170.091 103.188C168.845 108.88 167.812 112.14 169.795 115.898C171.696 119.628 176.263 121.101 179.999 119.204C181.373 118.504 182.499 117.408 183.228 116.054C185.848 111.422 187.462 102.893 182.674 98.9327C179.491 96.1421 174.639 96.4552 171.843 99.6327C170.958 100.646 170.358 101.871 170.091 103.188Z" fill="#CD5B51"/>
<path d="M170.199 106.365C170.199 106.365 175.735 106.42 174.148 103.243C174.148 103.243 181.833 104.717 180.523 101.825C180.523 101.825 185.726 105.905 184.379 102.055C184.379 102.055 187.922 105.067 188.032 103.132C188.143 101.198 186.197 99.9642 186.197 99.9642C186.197 99.9642 190.523 96.4551 184.25 96.4644C184.25 96.4644 185.735 91.2054 178.585 95.4052C178.585 95.4052 179.536 89.9529 174.203 95.4052C174.203 95.4052 166.971 95.4605 168.686 97.8459C168.686 97.8459 164.138 99.3195 166.98 100.913C166.98 100.913 163.511 104.044 166.048 105.315C166.048 105.315 162.773 109.81 167.552 109.257C167.552 109.257 165.845 113.411 167.948 112.564C170.052 111.707 170.199 106.365 170.199 106.365Z" fill="#1A2E35"/>
<path d="M166.641 107.231C166.668 108.53 167.185 109.782 168.089 110.712C169.288 111.928 170.654 111.016 170.967 109.414C171.244 107.959 170.958 105.592 169.445 104.984C167.932 104.376 166.631 105.619 166.641 107.231Z" fill="#CD5B51"/>
<path opacity="0.3" d="M175.95 158.485C176.209 156.735 176.485 155.077 176.79 153.502L174.041 152.95L158.791 143.97L153.329 131.361L151.05 126.48L148.91 127.613C148.91 127.613 148.882 152.867 159.584 157.453C164.086 159.378 169.788 158.78 175.95 158.485Z" fill="black"/>
<path d="M158.457 132.724C158.457 132.724 161.584 148.308 171.335 150.067C181.087 151.817 182.572 151.789 182.572 151.789L190.479 149.21C190.949 149.054 191.475 149.21 191.779 149.606L193.772 152.167C194.353 152.913 193.864 154.009 192.914 154.073L189.538 154.294C189.538 154.294 187.084 156.588 182.886 156.081C182.886 156.081 167.073 157.813 161.556 154.644C156.039 151.476 151.676 138.536 151.676 138.536L158.457 132.724Z" fill="#CD5B51"/>
<path d="M151.462 142.837C151.462 142.837 145.927 125.144 151.148 122.326C156.37 119.508 159.811 131.932 161.103 136.62L151.462 142.837Z" fill="#8165E5"/>
<path d="M203.471 154.34L184.383 155.252V157.96H203.471H215.768V154.34H203.471Z" fill="#007CFF"/>
<path d="M203.471 157.96H184.383V155.252L203.471 154.34V157.96Z" fill="#E527BB"/>
<path d="M215.757 154.34H203.469V157.96H215.757V154.34Z" fill="#C10C9F"/>
<path d="M245.436 148.639H205.102L209.17 115.538H249.504L245.436 148.639Z" fill="#007CFF"/>
<path d="M245.436 148.639H205.102L209.17 115.538H249.504L245.436 148.639Z" fill="#C10C9F"/>
<path d="M211.494 115.538L207.426 148.639H245.435L249.504 115.538H211.494Z" fill="#007CFF"/>
<path d="M211.494 115.538L207.426 148.639H245.435L249.504 115.538H211.494Z" fill="#E527BB"/>
<path d="M232.306 157.858H223.727L222.859 144.2H229.806L232.306 157.858Z" fill="#007CFF"/>
<path d="M232.306 157.858H223.727L222.859 144.2H229.806L232.306 157.858Z" fill="#C10C9F"/>
<path d="M233.828 157.858H225.258L224.391 144.2H231.337L233.828 157.858Z" fill="#007CFF"/>
<path d="M233.828 157.858H225.258L224.391 144.2H231.337L233.828 157.858Z" fill="#E527BB"/>
<path d="M227.887 155.482H226.503H214.648V157.96H226.503H227.887H239.742V155.482H227.887Z" fill="#007CFF"/>
<path d="M227.887 155.482H226.503H214.648V157.96H226.503H227.887H239.742V155.482H227.887Z" fill="#E527BB"/>
<path d="M239.743 155.482H226.504V157.96H239.743V155.482Z" fill="#007CFF"/>
<path d="M239.743 155.482H226.504V157.96H239.743V155.482Z" fill="#E527BB"/>
<path d="M176.598 161.819V167.732H239.276C244.129 167.732 248.419 165.402 251.131 161.819H176.598Z" fill="#1A2E35"/>
<path opacity="0.3" d="M176.598 161.819V167.732H239.276C244.129 167.732 248.419 165.402 251.131 161.819H176.598Z" fill="white"/>
<path d="M253.233 157.96H172.859V161.819H251.129C252.015 160.649 252.725 159.36 253.233 157.96Z" fill="#1A2E35"/>
<path opacity="0.5" d="M253.233 157.96H172.859V161.819H251.129C252.015 160.649 252.725 159.36 253.233 157.96Z" fill="white"/>
<path d="M239.273 53.8494H148.688C138.484 53.8494 130.172 62.1384 130.172 72.3339V152.894C130.172 163.081 138.475 171.379 148.688 171.379H239.273C249.477 171.379 257.789 163.09 257.789 152.894V72.3247C257.789 62.1384 249.477 53.8494 239.273 53.8494ZM254.145 152.885C254.145 161.082 247.484 167.732 239.273 167.732H148.688C140.477 167.732 133.816 161.082 133.816 152.885V72.3247C133.816 64.1278 140.477 57.4781 148.688 57.4781H239.273C247.484 57.4781 254.145 64.1278 254.145 72.3247V152.885Z" fill="#007CFF"/>
<path d="M239.273 53.8494H148.688C138.484 53.8494 130.172 62.1384 130.172 72.3339V152.894C130.172 163.081 138.475 171.379 148.688 171.379H239.273C249.477 171.379 257.789 163.09 257.789 152.894V72.3247C257.789 62.1384 249.477 53.8494 239.273 53.8494ZM254.145 152.885C254.145 161.082 247.484 167.732 239.273 167.732H148.688C140.477 167.732 133.816 161.082 133.816 152.885V72.3247C133.816 64.1278 140.477 57.4781 148.688 57.4781H239.273C247.484 57.4781 254.145 64.1278 254.145 72.3247V152.885Z" fill="#E527BB"/>
<path d="M283.573 97.427C292.828 88.187 292.828 73.2061 283.573 63.9661C274.317 54.7262 259.311 54.7262 250.055 63.9661C240.8 73.2061 240.8 88.187 250.055 97.427C259.311 106.667 274.317 106.667 283.573 97.427Z" fill="#007CFF"/>
<path opacity="0.3" d="M283.573 97.427C292.828 88.187 292.828 73.2061 283.573 63.9661C274.317 54.7262 259.311 54.7262 250.055 63.9661C240.8 73.2061 240.8 88.187 250.055 97.427C259.311 106.667 274.317 106.667 283.573 97.427Z" fill="black"/>
<path d="M289.886 84.5066C292.894 71.7894 285.005 59.0458 272.267 56.0429C259.528 53.04 246.763 60.915 243.755 73.6322C240.747 86.3494 248.635 99.093 261.374 102.096C274.113 105.099 286.878 97.2238 289.886 84.5066Z" fill="#A78BEF"/>
<path opacity="0.9" d="M286.359 83.6749C288.907 72.9032 282.225 62.109 271.435 59.5655C260.645 57.022 249.833 63.6923 247.285 74.4641C244.737 85.2358 251.419 96.0299 262.209 98.5735C272.999 101.117 283.811 94.4467 286.359 83.6749Z" fill="white"/>
<path d="M265.995 64.9567C265.995 69.396 265.848 73.8536 265.995 78.2929C266.041 79.7112 266.706 80.1073 267.73 81.1388C269.298 82.7045 270.866 84.2702 272.426 85.8267C273.173 86.5727 274.335 85.4122 273.588 84.6662C272.13 83.211 270.673 81.7558 269.224 80.3099C268.661 79.7481 267.859 79.1678 267.425 78.5139C267.979 79.352 267.637 78.4034 267.637 77.6942C267.637 73.4484 267.637 69.2026 267.637 64.9567C267.637 63.8976 265.995 63.8976 265.995 64.9567Z" fill="#1A2E35"/>
<path d="M304.362 321.447C303.264 321.447 302.351 320.618 302.24 319.522L301.566 312.431V253.56H307.157V312.431L306.484 319.522C306.382 320.609 305.46 321.447 304.362 321.447Z" fill="#1A2E35"/>
<path opacity="0.3" d="M304.362 321.447C303.264 321.447 302.351 320.618 302.24 319.522L301.566 312.431V253.56H307.157V312.431L306.484 319.522C306.382 320.609 305.46 321.447 304.362 321.447Z" fill="white"/>
<path opacity="0.1" d="M307.157 260.2H301.566V267.053H307.157V260.2Z" fill="black"/>
<path d="M309.139 313.416V311.206C309.139 310.34 308.438 309.64 307.571 309.64H301.15C300.283 309.64 299.582 310.34 299.582 311.206V313.416L283.797 317.745C281.878 318.27 280.559 320.011 280.559 321.991H328.163C328.163 320.011 326.834 318.27 324.924 317.745L309.139 313.416Z" fill="#1A2E35"/>
<path opacity="0.2" d="M309.139 313.416V311.206C309.139 310.34 308.438 309.64 307.571 309.64H301.15C300.283 309.64 299.582 310.34 299.582 311.206V313.416L283.797 317.745C281.878 318.27 280.559 320.011 280.559 321.991H328.163C328.163 320.011 326.834 318.27 324.924 317.745L309.139 313.416Z" fill="white"/>
<path opacity="0.1" d="M309.138 313.361V311.206C309.138 311.132 309.129 311.059 309.12 310.985H299.608C299.599 311.059 299.59 311.132 299.59 311.206V313.361H309.138Z" fill="black"/>
<path d="M329.694 196.062C319.177 196.43 310.09 205.346 308.983 215.817L305.062 253.1C304.702 256.498 307.175 259.261 310.579 259.261H315.967H336.909H342.297C345.701 259.261 348.754 256.507 349.114 253.1L353.09 215.357C354.234 204.461 346.125 195.675 335.082 196.071H329.694V196.062Z" fill="#1A2E35"/>
<path d="M329.694 196.062C319.177 196.43 310.09 205.346 308.983 215.817L305.062 253.1C304.702 256.498 307.175 259.261 310.579 259.261H315.967H336.909H342.297C345.701 259.261 348.754 256.507 349.114 253.1L353.09 215.357C354.234 204.461 346.125 195.675 335.082 196.071H329.694V196.062Z" fill="#C10C9F"/>
<path d="M347.711 215.348C348.854 204.452 340.745 195.666 329.702 196.062C319.185 196.43 310.098 205.345 308.991 215.817L305.07 253.1C304.71 256.498 307.183 259.261 310.587 259.261H336.917C340.321 259.261 343.375 256.507 343.734 253.1L347.711 215.348Z" fill="#E527BB"/>
<path d="M260.197 253.256C266.526 251.506 273.021 250.548 279.534 250.373C286.25 250.189 311.39 250.346 317.359 250.346C324.629 250.346 331.889 251.313 338.947 253.256C343.375 254.481 342.01 261.407 338.006 261.481C337.655 261.49 261.655 261.462 261.378 261.481C257.19 261.683 255.668 254.509 260.197 253.256Z" fill="#E527BB"/>
<path d="M336.89 261.333C324.122 257.806 310.607 257.806 297.839 261.333C293.014 262.669 290.947 254.582 295.781 253.256C309.878 249.36 324.851 249.36 338.948 253.256C343.773 254.582 341.725 262.669 336.89 261.333Z" fill="#C10C9F"/>
<path d="M250.624 280.748L245.246 296.415L240.734 295.134L244.388 278.602L250.624 280.748Z" fill="#CC7A63"/>
<path d="M240.809 293.928L246.363 295.604C246.602 295.669 246.768 295.89 246.759 296.138L246.556 301.646C246.538 302.134 246.132 302.521 245.643 302.502C245.578 302.502 245.514 302.493 245.458 302.475C243.161 301.83 241.132 301.167 238.253 300.421C234.858 299.537 235.615 300.163 231.602 299.178C229.185 298.579 229.461 295.733 230.513 295.871C235.338 296.497 237.045 295.217 239.287 294.02C239.775 293.808 240.311 293.771 240.809 293.928Z" fill="#A78BEF"/>
<path opacity="0.1" d="M247.692 289.295L242.332 287.923L244.389 278.602L250.626 280.748L247.692 289.295Z" fill="black"/>
<path d="M251.592 284.939L250.088 287.831L241.48 284.939V281.605L251.592 284.939Z" fill="#007CFF"/>
<path d="M251.592 284.939L250.088 287.831L241.48 284.939V281.605L251.592 284.939Z" fill="#A78BEF"/>
<path d="M285.238 299.96L287.028 313.831L281.981 313.96L278.328 300.578L285.238 299.96Z" fill="#CC7A63"/>
<path d="M281.918 313.186L287.684 313.204C287.933 313.204 288.145 313.379 288.201 313.619L289.382 319.007C289.492 319.486 289.188 319.955 288.717 320.066C288.653 320.084 288.598 320.084 288.533 320.084C286.144 320.038 284.022 319.9 281.042 319.9C277.536 319.891 278.422 320.315 274.298 320.361C271.807 320.388 271.364 317.561 272.416 317.432C277.241 316.842 278.606 315.387 280.47 313.665C280.876 313.333 281.392 313.168 281.918 313.186Z" fill="#A78BEF"/>
<path opacity="0.1" d="M280.45 308.342L278.328 300.578L285.238 299.96L286.281 307.973L280.45 308.342Z" fill="black"/>
<path d="M302.647 216.702H294.482C294.482 216.702 292.333 222.255 291.899 228.048C291.465 233.842 302.638 229.55 302.638 229.55L303.616 221.611L302.647 216.702Z" fill="#007CFF"/>
<path d="M302.647 216.702H294.482C294.482 216.702 292.333 222.255 291.899 228.048C291.465 233.842 302.638 229.55 302.638 229.55L303.616 221.611L302.647 216.702Z" fill="#A78BEF"/>
<path opacity="0.1" d="M297.907 216.702C300.176 228.583 295.812 227.984 295.812 227.984L298.285 229.697L302.769 228.601L303.627 221.611L302.649 216.702H297.907Z" fill="black"/>
<path d="M318.93 215.956C318.93 215.956 327.243 229.835 325.813 241.431C324.383 253.026 313.635 259.151 272.36 239.404C272.36 239.404 263.891 248.154 249.84 285.648L242.672 283.502C242.672 283.502 250.772 240.16 258.014 227.837C265.321 215.385 297.435 229.982 299.87 227.551C302.038 225.387 300.156 216.821 300.156 216.821L318.93 215.956Z" fill="black"/>
<path opacity="0.2" d="M267.636 243.291L265.376 241.55C265.376 241.55 257.414 245.851 261.381 258.092C264.26 252.096 266.621 247.878 268.411 244.976L267.636 243.291Z" fill="black"/>
<path d="M302.122 250.806C294.621 249.01 284.907 245.409 272.351 239.404C272.351 239.404 262.664 239.533 262.018 246.726C261.372 253.919 278.356 303.644 278.356 303.644L286.207 302.963C286.207 302.963 281.585 253.376 280.506 250.797H302.122V250.806Z" fill="#007CFF"/>
<path d="M302.122 250.806C294.621 249.01 284.907 245.409 272.351 239.404C272.351 239.404 262.664 239.533 262.018 246.726C261.372 253.919 278.356 303.644 278.356 303.644L286.207 302.963C286.207 302.963 281.585 253.376 280.506 250.797H302.122V250.806Z" fill="black"/>
<path opacity="0.1" d="M272.352 239.404C272.352 239.404 270.876 239.423 269.031 239.883C270.803 241.449 277.067 246.643 286.541 250.806H302.123C294.623 249.01 284.908 245.409 272.352 239.404Z" fill="black"/>
<path d="M287.148 301.683L287.36 304.897L278.227 305.615L276.926 302.548L287.148 301.683Z" fill="#007CFF"/>
<path d="M287.148 301.683L287.36 304.897L278.227 305.615L276.926 302.548L287.148 301.683Z" fill="#A78BEF"/>
<path d="M283.06 202.094L273.834 207.261L267.662 206.967C267.109 206.939 266.583 207.215 266.278 207.676L264.516 210.43C264.267 210.807 264.203 211.286 264.341 211.719L264.387 211.857C264.627 212.64 265.439 213.1 266.232 212.907L268.926 212.253L274.277 211.231L287.368 205.53L283.06 202.094Z" fill="#CC7A63"/>
<path d="M281.242 202.38C281.242 202.38 284.526 203.347 285.274 207.261C285.274 207.261 291.999 204.931 293.171 201.183C294.342 197.434 297.47 178.904 292.405 178.876C287.35 178.848 290.099 201.045 281.242 202.38Z" fill="#1A2E35"/>
<path d="M281.242 202.38C281.242 202.38 284.526 203.347 285.274 207.261C285.274 207.261 291.999 204.931 293.171 201.183C294.342 197.434 297.47 178.904 292.405 178.876C287.35 178.848 290.099 201.045 281.242 202.38Z" fill="#8165E5"/>
<path d="M279.535 202.675C279.535 202.675 281.952 204.839 283.465 208.551L287.017 206.801C287.017 206.801 285.587 202.767 282.69 201.137L279.535 202.675Z" fill="#1A2E35"/>
<path d="M279.535 202.675C279.535 202.675 281.952 204.839 283.465 208.551L287.017 206.801C287.017 206.801 285.587 202.767 282.69 201.137L279.535 202.675Z" fill="#8165E5"/>
<path d="M293.809 217.586C293.809 217.586 306.558 218.737 320.074 216.812C320.074 216.812 317.103 206.902 319.244 194.883C321.384 182.855 332.713 175.726 304.584 176.214C300.516 176.288 288.449 175.745 289.833 184.319C291.309 193.483 293.809 217.586 293.809 217.586Z" fill="#1A2E35"/>
<path d="M293.809 217.586C293.809 217.586 306.558 218.737 320.074 216.812C320.074 216.812 317.103 206.902 319.244 194.883C321.384 182.855 332.713 175.726 304.584 176.214C300.516 176.288 288.449 175.745 289.833 184.319C291.309 193.483 293.809 217.586 293.809 217.586Z" fill="#A78BEF"/>
<path d="M310.573 203.522L297.445 207.39L291.827 206.405C291.236 206.303 290.637 206.543 290.277 207.022L288.386 209.573C288.109 209.951 288.008 210.42 288.118 210.881L288.137 210.964C288.33 211.783 289.124 212.308 289.954 212.17L292.648 211.71L298.054 211.056L314.642 207.243L310.573 203.522Z" fill="#CC7A63"/>
<path d="M308.633 203.31C308.633 203.31 311.899 204.535 312.369 208.486C312.369 208.486 319.298 206.967 320.718 203.31C322.148 199.654 326.66 179.18 321.613 178.802C316.576 178.425 317.554 202.573 308.633 203.31Z" fill="#1A2E35"/>
<path d="M308.633 203.31C308.633 203.31 311.899 204.535 312.369 208.486C312.369 208.486 319.298 206.967 320.718 203.31C322.148 199.654 326.66 179.18 321.613 178.802C316.576 178.425 317.554 202.573 308.633 203.31Z" fill="#8165E5"/>
<path d="M306.68 203.642C306.68 203.642 309.512 206.267 310.573 209.518L314.199 208.486C314.199 208.486 312.713 204.139 309.936 202.325L306.68 203.642Z" fill="#1A2E35"/>
<path d="M306.68 203.642C306.68 203.642 309.512 206.267 310.573 209.518L314.199 208.486C314.199 208.486 312.713 204.139 309.936 202.325L306.68 203.642Z" fill="#8165E5"/>
<path d="M309.994 151.144C309.994 151.144 306.064 143.307 312.088 144.329C318.112 145.361 314.542 160.953 320.096 163.09C320.087 163.09 313.675 164.683 309.994 151.144Z" fill="#1A2E35"/>
<path opacity="0.6" d="M308.859 147.847C309.182 149.523 309.994 151.144 309.994 151.144C311 154.847 312.217 157.407 313.444 159.185C314.349 156.33 314.708 151.679 312.033 149.008C311 147.985 309.93 148.262 308.859 147.847Z" fill="black"/>
<path d="M307.891 149.477C307.891 149.477 309.865 147.258 311.553 150.104C313.241 152.95 310.455 153.631 310.455 153.631L307.891 149.477Z" fill="#8165E5"/>
<path d="M309.293 164.361C309.293 164.361 310.179 167.575 312.476 165.374C314.782 163.164 310.621 165.475 309.293 164.361Z" fill="#1A2E35"/>
<path d="M304.578 175.938C304.578 175.938 298.942 173.995 296.543 178.775L298.766 179.65L297.549 181.151L302.143 184.476L309.994 181.796L309.56 180.69L313.343 179.659C313.343 179.659 314.33 174.151 304.578 175.938Z" fill="#1A2E35"/>
<path d="M304.578 175.938C304.578 175.938 298.942 173.995 296.543 178.775L298.766 179.65L297.549 181.151L302.143 184.476L309.994 181.796L309.56 180.69L313.343 179.659C313.343 179.659 314.33 174.151 304.578 175.938Z" fill="#8165E5"/>
<path d="M304.742 176.371C304.742 176.371 295.359 174.317 301.946 183.647C301.946 183.647 320.72 176.177 304.742 176.371Z" fill="#CC7A63"/>
<path d="M308.47 165.623L302.086 171.885C302.658 174.612 301.855 176.021 300.988 176.748V178.775C301.717 179.005 302.769 179.152 304.309 179.069C308.941 178.821 310.444 178.332 310.444 178.332C307.668 176.113 308.064 169.343 308.47 165.623Z" fill="#CC7A63"/>
<path opacity="0.1" d="M302.149 174.777C302.324 174.031 302.343 173.083 302.094 171.876L307.786 166.295L308.349 166.94C308.339 166.94 307.195 174.059 302.149 174.777Z" fill="black"/>
<path d="M309.006 157.334C309.477 163.468 309.809 166.056 307.161 169.601C303.185 174.934 295.528 174.17 293.231 168.303C291.164 163.016 290.749 153.88 296.377 150.629C300.39 148.289 305.538 149.634 307.881 153.64C308.536 154.764 308.923 156.026 309.006 157.334Z" fill="#CC7A63"/>
<path d="M309.293 164.361C309.293 164.361 305.926 162.537 305.723 157.472C305.511 152.406 297.807 151.384 293.056 154.349C293.056 154.349 291.7 149.883 296.663 149.487C296.663 149.487 303.924 144.182 309.865 150.113C315.114 155.344 309.293 164.361 309.293 164.361Z" fill="#1A2E35"/>
<path d="M311.11 161.948C310.926 163.127 310.289 164.177 309.32 164.886C308.038 165.807 306.857 164.794 306.756 163.302C306.663 161.966 307.226 159.866 308.739 159.535C309.846 159.323 310.907 160.05 311.119 161.156C311.175 161.414 311.166 161.681 311.11 161.948Z" fill="#CC7A63"/>
<path d="M293.47 153.557C293.47 153.557 291.957 156.928 290.693 153.557C289.42 150.187 292.206 154.322 293.47 153.557Z" fill="#1A2E35"/>
<path d="M297.342 211.535H253.299C252.589 211.535 252.008 212.115 252.008 212.824C252.008 213.533 252.589 214.113 253.299 214.113H297.342C298.053 214.113 298.634 213.533 298.634 212.824C298.643 212.115 298.062 211.535 297.342 211.535Z" fill="#007CFF"/>
<path d="M297.342 211.535H253.299C252.589 211.535 252.008 212.115 252.008 212.824C252.008 213.533 252.589 214.113 253.299 214.113H297.342C298.053 214.113 298.634 213.533 298.634 212.824C298.643 212.115 298.062 211.535 297.342 211.535Z" fill="#E527BB"/>
<path d="M272.284 214.123C271.573 214.123 270.992 213.542 270.992 212.833C270.992 212.124 271.573 211.544 272.284 211.544H297.35C298.06 211.544 298.641 212.124 298.641 212.833C298.641 213.542 298.06 214.123 297.35 214.123H272.284Z" fill="#E527BB"/>
<path d="M254.01 213.331H270.201C270.625 213.331 270.921 212.916 270.782 212.52L261.898 187.192C261.649 186.492 260.994 186.032 260.256 186.032H244.065C243.641 186.032 243.345 186.446 243.484 186.842L252.368 212.17C252.608 212.861 253.272 213.331 254.01 213.331Z" fill="#E527BB"/>
<path d="M253.225 213.331H269.416C269.84 213.331 270.135 212.916 269.997 212.52L261.113 187.192C260.864 186.492 260.209 186.032 259.471 186.032H243.28C242.855 186.032 242.56 186.446 242.699 186.842L251.583 212.17C251.823 212.861 252.487 213.331 253.225 213.331Z" fill="#007CFF"/>
<path d="M253.225 213.331H269.416C269.84 213.331 270.135 212.916 269.997 212.52L261.113 187.192C260.864 186.492 260.209 186.032 259.471 186.032H243.28C242.855 186.032 242.56 186.446 242.699 186.842L251.583 212.17C251.823 212.861 252.487 213.331 253.225 213.331Z" fill="#E527BB"/>
<path d="M255.031 199.672C255.234 200.639 255.908 201.431 256.535 201.431C257.153 201.431 257.495 200.648 257.292 199.672C257.089 198.705 256.415 197.913 255.788 197.913C255.17 197.922 254.828 198.705 255.031 199.672Z" fill="white"/>
<path d="M221.846 198.972C221.846 198.972 216.311 193.851 219.217 191.641C222.123 189.43 215.767 186.004 218.055 184.337C220.343 182.67 216.929 178.378 218.922 177.66C220.915 176.942 218.433 174.437 219.881 173.221C221.772 171.637 221.385 179.742 223.276 179.88C225.158 180.018 221.413 184.485 223.756 185.056C226.099 185.627 222.907 190.683 225.103 190.775C227.299 190.867 225.315 196.366 221.846 198.972Z" fill="#39B039"/>
<g opacity="0.2">
<path d="M220.011 175.302C220.564 178.655 221.026 182.035 221.395 185.415C221.847 189.559 222.806 194.809 221.505 198.88C221.367 199.313 222.05 199.506 222.197 199.073C223.544 194.883 222.585 189.679 222.114 185.415C221.736 181.97 221.275 178.535 220.703 175.109C220.62 174.658 219.928 174.851 220.011 175.302Z" fill="black"/>
</g>
<path d="M220.002 198.088C220.002 198.088 214.3 195.343 216.081 192.847C217.861 190.351 211.92 189.173 213.35 187.266C214.78 185.369 210.97 182.753 212.4 181.685C213.83 180.616 210.776 178.047 212.077 177.89C214.153 177.632 214.9 182.753 216.441 182.403C217.981 182.044 216.081 186.557 218.101 186.437C220.122 186.317 218.812 191.162 220.601 190.701C222.382 190.232 222.142 195.141 220.002 198.088Z" fill="#39B039"/>
<g opacity="0.2">
<path d="M213.259 180.313C215.99 185.912 218.758 191.982 219.662 198.18C219.726 198.631 220.418 198.438 220.354 197.987C219.449 191.733 216.636 185.599 213.877 179.944C213.674 179.539 213.056 179.898 213.259 180.313Z" fill="black"/>
</g>
<path d="M224.799 198.088C224.799 198.088 230.5 195.343 228.72 192.847C226.939 190.352 232.88 189.173 231.45 187.266C230.02 185.369 233.831 182.753 232.401 181.685C230.971 180.617 233.591 179.649 232.723 177.89C231.801 176.012 229.9 182.753 228.36 182.403C226.819 182.044 228.72 186.557 226.699 186.437C224.679 186.318 225.989 191.162 224.199 190.702C222.419 190.232 222.658 195.141 224.799 198.088Z" fill="#39B039"/>
<g opacity="0.2">
<path d="M231.485 180.313C228.755 185.912 225.987 191.982 225.083 198.18C225.018 198.631 224.326 198.438 224.391 197.987C225.295 191.733 228.109 185.599 230.867 179.944C231.07 179.539 231.688 179.898 231.485 180.313Z" fill="black"/>
</g>
<path d="M227.805 214.27H217.666L215.766 197.213H229.705L227.805 214.27Z" fill="#007CFF"/>
<path d="M227.805 214.27H217.666L215.766 197.213H229.705L227.805 214.27Z" fill="#FF402C"/>
<path d="M253.643 321.447C252.545 321.447 251.632 320.618 251.521 319.522L250.848 312.431V215.246H256.438V312.431L255.765 319.522C255.654 320.609 254.741 321.447 253.643 321.447Z" fill="#1A2E35"/>
<path opacity="0.3" d="M253.643 321.447C252.545 321.447 251.632 320.618 251.521 319.522L250.848 312.431V215.246H256.438V312.431L255.765 319.522C255.654 320.609 254.741 321.447 253.643 321.447Z" fill="white"/>
<path opacity="0.1" d="M256.438 216.195H250.848V223.047H256.438V216.195Z" fill="black"/>
<path d="M258.421 313.416V311.206C258.421 310.34 257.72 309.64 256.852 309.64H250.431C249.564 309.64 248.863 310.34 248.863 311.206V313.416L233.078 317.745C231.159 318.27 229.84 320.01 229.84 321.991H277.444C277.444 320.01 276.115 318.27 274.206 317.745L258.421 313.416Z" fill="#DAA7EE"/>
<path opacity="0.1" d="M258.42 313.361V311.206C258.42 311.132 258.41 311.058 258.401 310.985H248.89C248.88 311.058 248.871 311.132 248.871 311.206V313.361H258.42Z" fill="black"/>
<path d="M314.234 217.383H193.047V220.643H314.234V217.383Z" fill="#1A2E35"/>
<path opacity="0.3" d="M314.234 217.383H193.047V220.643H314.234V217.383Z" fill="white"/>
<path opacity="0.2" d="M314.232 217.383H253.805V220.643H314.232V217.383Z" fill="black"/>
<path d="M321.54 214.123H185.73V217.383H321.54V214.123Z" fill="#DAA7EE"/>
<path opacity="0.3" d="M321.55 214.123H246.5V217.383H321.55V214.123Z" fill="black"/>
</svg>
