<svg width="543" height="329" viewBox="0 0 543 329" fill="none" xmlns="http://www.w3.org/2000/svg">
<g clip-path="url(#clip0_1915_6360)">
<path opacity="0.2" d="M128.492 325.584L413.142 308.934C488.412 304.534 546.652 240.734 543.512 165.394C540.872 102.084 518.192 34.6439 441.912 5.8239C388.262 -14.4461 318.592 2.1439 274.402 35.8539C263.782 43.9539 254.022 53.2439 242.612 60.1739C216.022 76.3239 192.672 65.1739 164.972 60.8839C106.412 51.7939 47.9621 70.4639 17.7021 124.434C-28.7579 207.354 26.0421 331.574 128.492 325.584Z" fill="#999999"/>
<path d="M227.047 99.1182C229.801 101.872 233.092 104.109 236.737 105.633L232.956 122.333L252.9 107.979H254.226C270.818 107.979 284.391 94.4058 284.391 77.8138C284.391 69.5246 280.998 61.9834 275.531 56.5162C270.064 51.049 262.529 47.6558 254.226 47.6558H248.338C231.746 47.6558 218.18 61.2218 218.18 77.8138C218.186 86.103 221.573 93.6442 227.047 99.1182Z" fill="#E527BB"/>
<path d="M319.626 89.5368C316.872 92.2908 313.58 94.528 309.936 96.0512L313.716 112.745L293.772 98.3904H292.446C275.861 98.3904 262.281 84.8176 262.281 68.2256C262.281 59.9364 265.674 52.3952 271.142 46.928C276.602 41.4676 284.143 38.0676 292.446 38.0676H298.335C314.92 38.0676 328.493 51.6336 328.493 68.2256C328.486 76.5216 325.093 84.0628 319.626 89.5368Z" fill="#A78BEF"/>
<path d="M314.701 79.7791L314.32 79.5139C314.157 79.7655 313.987 80.0103 313.81 80.2483C309.689 85.9807 302.957 89.7139 295.375 89.7139C282.85 89.7139 272.656 79.5207 272.656 66.9951C272.656 54.6191 282.605 44.5211 294.926 44.2831C295.076 44.2763 295.226 44.2763 295.375 44.2763C295.525 44.2763 295.674 44.2763 295.824 44.2831C302.699 44.4123 308.832 47.6151 312.912 52.5723C313.103 52.8035 313.286 53.0347 313.463 53.2727L313.83 52.9871C314.014 52.8443 314.055 52.5791 313.919 52.3887C313.905 52.3615 313.885 52.3411 313.864 52.3207C309.54 46.8739 302.855 43.3787 295.375 43.3787C282.36 43.3787 271.766 53.9731 271.766 66.9951C271.766 80.0171 282.36 90.6047 295.375 90.6047C303.386 90.6047 310.471 86.5995 314.742 80.4863C314.782 80.4387 314.816 80.3911 314.85 80.3367C314.946 80.1395 314.884 79.9015 314.701 79.7791Z" fill="#19203F"/>
<path d="M314.854 80.3367C314.847 80.3571 314.833 80.3775 314.82 80.3979C314.799 80.4319 314.772 80.4591 314.745 80.4863C314.663 80.5543 314.561 80.5951 314.452 80.5951C314.364 80.5951 314.276 80.5679 314.201 80.5135L313.813 80.2483L295.127 67.3623C295.093 67.3351 295.059 67.3079 295.032 67.2739C294.998 67.2331 294.977 67.1855 294.957 67.1379C294.936 67.0903 294.93 67.0427 294.93 66.9951V43.8275C294.93 43.5827 295.134 43.3787 295.378 43.3787C295.63 43.3787 295.827 43.5827 295.827 43.8275V66.7571L296.133 66.9679L314.323 79.5139L314.704 79.7791C314.888 79.9015 314.949 80.1395 314.854 80.3367Z" fill="#19203F"/>
<path d="M313.831 52.9869L313.464 53.2725L296.131 66.9677L295.655 67.3485C295.573 67.4097 295.478 67.4437 295.376 67.4437C295.287 67.4437 295.199 67.4165 295.124 67.3621C295.09 67.3349 295.056 67.3077 295.029 67.2737C294.995 67.2329 294.975 67.1853 294.954 67.1377C294.893 66.9609 294.947 66.7637 295.104 66.6413L295.825 66.0701L312.913 52.5721L313.273 52.2865C313.457 52.1505 313.709 52.1641 313.865 52.3205L313.906 52.3613C313.913 52.3681 313.919 52.3749 313.919 52.3885C314.055 52.5789 314.015 52.8441 313.831 52.9869Z" fill="#19203F"/>
<path d="M299.761 63.9895C299.659 63.9895 299.557 63.9555 299.469 63.8807L295.096 60.1611C294.906 59.9979 294.885 59.7191 295.042 59.5287C295.198 59.3383 295.484 59.3179 295.674 59.4811L300.047 63.2007C300.237 63.3639 300.257 63.6427 300.101 63.8331C300.013 63.9351 299.883 63.9895 299.761 63.9895Z" fill="#19203F"/>
<path d="M303.443 61.0721C303.341 61.0721 303.239 61.0381 303.157 60.9701L295.092 54.2993C294.902 54.1429 294.875 53.8573 295.031 53.6669C295.188 53.4765 295.473 53.4493 295.664 53.6057L303.728 60.2765C303.919 60.4329 303.946 60.7185 303.79 60.9089C303.701 61.0177 303.572 61.0721 303.443 61.0721Z" fill="#19203F"/>
<path d="M307.666 57.7403C307.571 57.7403 307.469 57.7063 307.388 57.6451L295.1 48.0163C294.903 47.8667 294.876 47.5811 295.025 47.3907C295.175 47.1935 295.46 47.1595 295.651 47.3159L307.938 56.9447C308.136 57.0943 308.163 57.3799 308.013 57.5703C307.932 57.6791 307.796 57.7403 307.666 57.7403Z" fill="#19203F"/>
<path d="M312.004 54.3059C311.909 54.3059 311.807 54.2719 311.726 54.2107L299.676 44.6363C299.486 44.4799 299.452 44.2011 299.601 44.0107C299.758 43.8203 300.036 43.7863 300.227 43.9359L312.276 53.5103C312.467 53.6667 312.501 53.9455 312.351 54.1359C312.27 54.2447 312.134 54.3059 312.004 54.3059Z" fill="#19203F"/>
<path d="M319.473 66.8383C319.473 70.8775 318.222 74.6379 316.094 77.7319C316.066 77.7795 316.039 77.8135 316.005 77.8543C315.937 77.9087 315.856 77.9427 315.767 77.9427C315.692 77.9427 315.624 77.9223 315.563 77.8747L315.25 77.6571L299.991 67.1375C299.964 67.1171 299.937 67.0899 299.916 67.0627C299.889 67.0287 299.869 66.9879 299.855 66.9539C299.808 66.8111 299.848 66.6479 299.978 66.5459L300.569 66.0767L314.523 55.0539L314.815 54.8227C314.965 54.7139 315.169 54.7207 315.298 54.8499C315.312 54.8703 315.332 54.8839 315.346 54.9043C317.923 58.2023 319.473 62.3435 319.473 66.8383Z" fill="white"/>
<path d="M318.57 52.3889C318.557 52.3615 318.536 52.3409 318.516 52.3203L318.557 52.3615C318.564 52.3683 318.57 52.3752 318.57 52.3889Z" fill="#19203F"/>
<path d="M257.138 80.656H247.441C247.196 80.656 246.992 80.4587 246.992 80.2071V33.5592C246.992 33.3144 247.189 33.1104 247.441 33.1104H257.138C257.383 33.1104 257.587 33.3076 257.587 33.5592V80.2004C257.587 80.452 257.383 80.656 257.138 80.656ZM247.883 79.7584H256.689V34.008H247.883V79.7584Z" fill="#19203F"/>
<path d="M242.512 80.5066H232.815C232.598 80.5066 232.414 80.3298 232.414 80.1054V43.2494C232.414 43.0318 232.591 42.855 232.815 42.855H242.512C242.73 42.855 242.913 43.0318 242.913 43.2494V80.1122C242.913 80.3298 242.73 80.5066 242.512 80.5066ZM233.21 79.711H242.111V43.6438H233.21V79.711Z" fill="#19203F"/>
<path d="M228.174 80.588H218.478C218.28 80.588 218.117 80.4248 218.117 80.2276V50.1172C218.117 49.92 218.28 49.7568 218.478 49.7568H228.174C228.372 49.7568 228.535 49.92 228.535 50.1172V80.2276C228.535 80.4248 228.372 80.588 228.174 80.588ZM218.831 79.8672H227.814V50.4776H218.831V79.8672Z" fill="#19203F"/>
<path d="M214.993 45.1531L214.367 40.7263C227.804 38.8291 240.826 32.7227 251.04 23.5359L254.032 26.8611C243.158 36.6327 229.293 43.1267 214.993 45.1531Z" fill="#E527BB"/>
<path d="M255.657 31.0024L259.036 18.5176L246.531 21.8292L255.657 31.0024Z" fill="#E527BB"/>
<mask id="mask0_1915_6360" style="mask-type:luminance" maskUnits="userSpaceOnUse" x="101" y="-14" width="340" height="340">
<path d="M441 -14H101V326H441V-14Z" fill="white"/>
</mask>
<g mask="url(#mask0_1915_6360)">
<path d="M282.734 238.831C291.777 238.831 299.108 232.669 299.108 225.068C299.108 217.466 291.777 211.304 282.734 211.304C273.69 211.304 266.359 217.466 266.359 225.068C266.359 232.669 273.69 238.831 282.734 238.831Z" fill="#FFA96E"/>
<path d="M284.678 233.472C284.059 234.356 283.059 234.832 282.032 234.832C281.665 234.832 281.291 234.764 280.931 234.628C282.236 235.696 282.508 237.62 281.529 239.001C280.897 239.885 279.897 240.361 278.877 240.361C278.456 240.361 278.02 240.272 277.606 240.089C278.245 241.156 278.238 242.55 277.476 243.611C276.858 244.495 275.858 244.971 274.831 244.971C274.192 244.971 273.539 244.774 272.968 244.373L269.881 242.183C270.935 243.285 271.098 245.012 270.187 246.297C269.568 247.181 268.568 247.657 267.542 247.657C266.902 247.657 266.25 247.46 265.678 247.059L237.703 235.363L238.805 214.643L266.753 212.902C269.242 212.977 271.662 213.705 273.77 215.024L279.04 220.716C280.455 222.212 281.475 224.156 280.523 226.04L280.285 226.38L283.916 228.957C285.358 229.991 285.711 232.017 284.678 233.472Z" fill="#F79654"/>
<path d="M295.428 225.768C295.428 225.768 281.943 230.786 275.891 220.838C275.891 220.838 281.903 230.732 274.98 232.371C268.058 234.01 267.31 227.298 266.691 224.313C266.439 223.096 266.099 221.389 265.793 219.798C265.304 217.275 266.684 214.766 269.078 213.834L284.84 207.7L295.428 225.768Z" fill="#FFA96E"/>
<path d="M272.99 233.078C267.849 233.078 266.972 227.679 266.965 227.624L265.422 220.267C265.054 218.444 265.306 216.867 266.163 215.588C267.57 213.473 270.114 212.95 270.222 212.929C270.474 212.875 270.698 213.038 270.746 213.283C270.794 213.528 270.637 213.759 270.392 213.807C270.182 213.847 265.258 214.901 266.299 220.083L267.842 227.461C267.883 227.706 268.754 232.887 274.085 232.099C275.676 231.861 276.784 231.235 277.383 230.249C278.416 228.542 277.634 226.244 277.628 226.217L275.479 221.015C275.384 220.79 275.492 220.532 275.71 220.437C275.934 220.335 276.193 220.437 276.295 220.654C276.438 220.967 279.987 228.223 292.146 226.169C292.39 226.128 292.622 226.291 292.662 226.536C292.703 226.781 292.54 227.012 292.295 227.053C284.366 228.386 279.844 225.829 277.526 223.646L278.457 225.897C278.505 226.026 279.396 228.631 278.151 230.705C277.41 231.935 276.084 232.704 274.221 232.983C273.779 233.044 273.371 233.078 272.99 233.078Z" fill="#19203F"/>
<path d="M280.933 235.077C280.845 235.077 280.757 235.05 280.675 234.996L278.207 233.269C278.003 233.126 277.955 232.847 278.098 232.643C278.241 232.439 278.519 232.391 278.723 232.534L281.192 234.261C281.396 234.404 281.443 234.683 281.301 234.887C281.212 235.009 281.076 235.077 280.933 235.077Z" fill="#19203F"/>
<path d="M277.605 240.538C277.496 240.538 277.387 240.497 277.299 240.422L275.714 238.953C275.531 238.783 275.524 238.504 275.687 238.321C275.857 238.137 276.136 238.13 276.319 238.294L277.904 239.762C278.087 239.932 278.094 240.211 277.931 240.395C277.843 240.49 277.72 240.538 277.605 240.538Z" fill="#19203F"/>
<path d="M269.882 242.639C269.787 242.639 269.698 242.612 269.617 242.55L268.542 241.762C268.345 241.619 268.298 241.333 268.447 241.136C268.597 240.939 268.876 240.891 269.073 241.041L270.147 241.83C270.344 241.972 270.392 242.258 270.242 242.455C270.154 242.571 270.018 242.639 269.882 242.639Z" fill="#19203F"/>
<path d="M190.957 187.266L183.198 231.956L176.459 270.832L154.747 395.986H107.922L144.125 187.266H190.957Z" fill="#231F20"/>
<path d="M230.135 395.985H183.31L176.462 270.831L174.334 231.956L171.893 187.266L171.75 184.703H218.575L230.135 395.985Z" fill="#231F20"/>
<path d="M176.675 275.082C176.648 275.082 176.627 275.082 176.6 275.075C176.355 275.034 176.192 274.803 176.233 274.558L183.876 227.958C183.903 227.794 184.026 227.652 184.182 227.604L202.331 221.967C202.569 221.892 202.821 222.028 202.889 222.259C202.964 222.497 202.828 222.749 202.596 222.817L184.706 228.372L177.11 274.701C177.076 274.925 176.892 275.082 176.675 275.082Z" fill="white"/>
<path d="M204.693 66.1719V87.7891C204.693 93.5215 201.749 98.6079 197.301 101.613C197.138 101.722 196.968 101.838 196.798 101.933C196.458 102.137 196.111 102.341 195.751 102.531C195.574 102.62 195.391 102.708 195.214 102.803C194.853 102.98 194.479 103.143 194.105 103.293C193.731 103.436 193.344 103.572 192.963 103.694C191.045 104.293 188.999 104.551 186.87 104.401C181.478 104.027 176.874 101.063 174.12 96.7991C173.495 95.8335 172.957 94.8067 172.536 93.7119C172.502 93.6099 172.461 93.5215 172.427 93.4263C172.393 93.3243 172.352 93.2291 172.318 93.1407C172.264 92.9775 172.209 92.8075 172.155 92.6375C171.937 91.9643 171.767 91.2843 171.645 90.5907C171.591 90.3187 171.557 90.0603 171.523 89.7951C171.495 89.6047 171.468 89.4211 171.448 89.2239C171.441 89.1559 171.427 89.0811 171.421 88.9995C171.4 88.7479 171.387 88.4963 171.366 88.2515C171.366 87.9931 171.359 87.7347 171.359 87.4831V76.7051C171.577 76.8275 171.781 76.9771 171.978 77.1335C172.434 77.5007 172.821 77.9563 173.093 78.4867C173.719 78.0787 174.304 77.6299 174.855 77.1335C178.003 74.3591 179.982 70.3947 180.24 66.1855L204.693 66.1719Z" fill="#F79654"/>
<path d="M197.299 101.607V111.195H171.344V93.5011L172.425 93.4331C172.459 93.5351 172.5 93.6235 172.534 93.7187C172.955 94.8067 173.493 95.8403 174.118 96.8059C176.872 101.076 181.476 104.034 186.868 104.408C188.997 104.558 191.043 104.299 192.961 103.701C193.349 103.585 193.729 103.443 194.103 103.3C194.477 103.15 194.851 102.987 195.212 102.81C195.389 102.722 195.572 102.634 195.749 102.538C196.109 102.348 196.456 102.151 196.796 101.94C196.966 101.831 197.136 101.722 197.299 101.607Z" fill="#F79654"/>
<path d="M172.442 93.4264L171.361 93.4944C167.587 92.6716 164.336 89.7272 163.153 86.0416C162.521 84.0628 162.466 81.8528 163.262 79.9284C163.718 78.8268 164.479 77.8408 165.438 77.12L165.465 77.0996C165.492 77.0792 165.513 77.0656 165.54 77.052C165.826 76.8344 166.138 76.6576 166.472 76.4944C166.689 76.3856 166.907 76.2972 167.145 76.2224C167.362 76.1544 167.594 76.0864 167.825 76.0456C169.035 75.8212 170.327 76.066 171.388 76.678V87.456C171.388 87.7076 171.395 87.966 171.395 88.2244C171.415 88.476 171.429 88.7276 171.456 88.9724C171.463 89.0404 171.463 89.122 171.476 89.1968C171.497 89.394 171.524 89.5844 171.551 89.768C171.585 90.04 171.626 90.2984 171.674 90.5636C171.796 91.264 171.966 91.944 172.184 92.6104C172.238 92.7804 172.292 92.9504 172.347 93.1136C172.374 93.2292 172.408 93.3312 172.442 93.4264Z" fill="#F79654"/>
<path d="M199.403 82.5805C200.748 82.5805 201.838 81.4906 201.838 80.1461C201.838 78.8016 200.748 77.7117 199.403 77.7117C198.059 77.7117 196.969 78.8016 196.969 80.1461C196.969 81.4906 198.059 82.5805 199.403 82.5805Z" fill="#F79654"/>
<path d="M197.839 76.3856H200.967C201.416 76.3856 201.783 76.0184 201.783 75.5696V75.0528C201.783 74.604 201.416 74.2368 200.967 74.2368H197.839C197.391 74.2368 197.023 74.604 197.023 75.0528V75.5696C197.023 76.0184 197.391 76.3856 197.839 76.3856Z" fill="#F79654"/>
<path d="M186.028 82.5805C187.373 82.5805 188.463 81.4906 188.463 80.1461C188.463 78.8016 187.373 77.7117 186.028 77.7117C184.684 77.7117 183.594 78.8016 183.594 80.1461C183.594 81.4906 184.684 82.5805 186.028 82.5805Z" fill="#F79654"/>
<path d="M184.464 76.3856H187.592C188.041 76.3856 188.408 76.0184 188.408 75.5696V75.0528C188.408 74.604 188.041 74.2368 187.592 74.2368H184.464C184.016 74.2368 183.648 74.604 183.648 75.0528V75.5696C183.648 76.0184 184.016 76.3856 184.464 76.3856Z" fill="#F79654"/>
<path d="M178.551 91.5225C180.883 91.5225 182.774 89.6319 182.774 87.2997C182.774 84.9675 180.883 83.0769 178.551 83.0769C176.219 83.0769 174.328 84.9675 174.328 87.2997C174.328 89.6319 176.219 91.5225 178.551 91.5225Z" fill="#F79654"/>
<path d="M176.328 99.5601C176.328 99.5601 180.769 104.476 187.249 104.436C193.729 104.395 197.299 101.614 197.299 101.614V108.55C197.299 108.55 185.216 112.303 176.328 99.5601Z" fill="#19203F"/>
<path d="M194.469 79.0718L192.789 89.367H197.454L194.469 79.0718Z" fill="#F79654"/>
<path d="M168.311 79.058C170.167 79.9556 170.235 82.1588 170.154 83.9404C170.147 84.09 170.004 84.2328 169.854 84.2532C168.617 84.4028 167.556 85.4568 167.502 86.7284C167.447 87.9932 168.46 89.1696 169.691 89.3804C170.14 89.462 170.065 90.1692 169.61 90.0876C168.025 89.8156 166.774 88.3944 166.788 86.7692C166.801 85.246 167.998 83.9268 169.453 83.6072C169.508 82.2812 169.487 80.7104 168.304 79.874C167.066 78.9968 165.808 80.044 165.618 81.3428C165.55 81.7984 164.843 81.7168 164.911 81.2612C165.149 79.67 166.658 78.2624 168.311 79.058Z" fill="#19203F"/>
<path d="M192.056 89.2104C193.79 89.1696 195.531 89.1288 197.265 89.0948C196.238 85.6404 195.211 82.1928 194.184 78.7384C194.055 78.2964 194.762 78.1944 194.892 78.6296C195.959 82.2132 197.027 85.8036 198.094 89.3872C198.169 89.6388 197.904 89.7952 197.7 89.7952L191.981 89.9244C191.519 89.9312 191.6 89.2172 192.056 89.2104Z" fill="#F79654"/>
<path d="M185.306 89.3669L194.153 92.1073C194.153 92.1073 192.861 97.2617 188.224 95.7589C183.579 94.2697 185.306 89.3669 185.306 89.3669Z" fill="#F79654"/>
<path d="M204.692 66.172H180.252C179.994 70.388 178.015 74.3456 174.867 77.12C174.309 77.6096 173.731 78.0584 173.106 78.4732C172.827 77.9428 172.446 77.4872 171.99 77.12C171.793 76.9568 171.589 76.814 171.372 76.6916C170.318 76.0728 169.019 75.8348 167.808 76.0592C167.577 76.1068 167.346 76.168 167.128 76.236C166.897 76.304 166.673 76.3992 166.455 76.508C166.122 76.6712 165.809 76.848 165.524 77.0656C165.496 77.0724 165.476 77.0928 165.449 77.1132L165.422 77.1336C164.034 74.2912 163.123 71.8364 162.566 69.708C160.832 63.0848 165.816 56.618 172.664 56.618H178.539L189.432 48.7368V56.04L201.203 49.1584V55.9584L210.24 50.566C214.069 59.8072 204.692 66.172 204.692 66.172Z" fill="#231F20"/>
<path d="M288.025 112.636C287.141 112.793 286.297 113.208 285.617 113.888L278.43 121.068L278.375 121.123L267.516 131.595L265.863 133.193C264.422 134.818 263.368 136.783 262.81 138.918C262.321 140.795 262.212 142.801 262.572 144.828C262.933 146.854 263.721 148.697 264.83 150.295C266.557 152.79 269.059 154.654 271.922 155.606C274.051 156.313 276.363 156.517 278.709 156.102L310.437 150.485C312.355 150.145 313.647 148.302 313.307 146.385C313.137 145.426 312.586 144.624 311.845 144.107C311.594 143.93 311.321 143.78 311.022 143.678L314.368 143.087C316.285 142.747 317.577 140.904 317.237 138.986C317.067 138.034 316.523 137.232 315.776 136.708C315.034 136.185 314.096 135.947 313.137 136.117C315.055 135.777 316.347 133.934 316.007 132.023C315.837 131.064 315.286 130.262 314.545 129.738C313.804 129.215 312.865 128.984 311.906 129.154C313.824 128.814 315.116 126.971 314.776 125.053C314.606 124.094 314.055 123.292 313.314 122.775C312.573 122.252 311.634 122.014 310.675 122.184L285.794 126.59L292.057 120.334C293.832 118.559 293.832 115.669 292.064 113.901C290.956 112.806 289.446 112.385 288.025 112.636Z" fill="#F79654"/>
<path d="M296.117 132.2C301.421 131.078 306.719 129.956 312.023 128.834C312.444 128.746 312.655 129.385 312.233 129.473C306.929 130.595 301.632 131.717 296.328 132.839C295.9 132.928 295.689 132.288 296.117 132.2Z" fill="#19203F"/>
<path d="M297.433 138.979C302.655 137.919 307.885 136.858 313.107 135.79C313.529 135.702 313.739 136.348 313.318 136.429C308.095 137.49 302.866 138.551 297.644 139.619C297.222 139.707 297.011 139.068 297.433 138.979Z" fill="#19203F"/>
<path d="M297.573 145.426C302.014 144.705 306.454 143.991 310.894 143.27C311.323 143.202 311.357 143.876 310.928 143.944L297.607 146.099C297.186 146.167 297.152 145.494 297.573 145.426Z" fill="#19203F"/>
<path d="M236.623 187.538C240.811 186.981 244.83 185.328 248.278 182.67L276.695 161.358L258.675 137.973L235.283 155.408L218.909 121.306L192.008 133.03L211.313 173.775C214.489 180.48 220.452 185.322 227.667 187.062C230.652 187.783 233.678 187.926 236.623 187.538Z" fill="#E527BB"/>
<path d="M259.414 138.932L263.106 136.198L280.168 156.694L276.135 160.638L259.414 138.932Z" fill="white"/>
<path d="M169.945 184.703L171.353 111.195H197.309L203.143 184.703H169.945Z" fill="white"/>
<path d="M243.316 212.134L247.253 214.079L240.759 238.049L235.68 235.784L243.316 212.134Z" fill="white"/>
<path d="M171.355 111.195L169.049 231.956L169.029 232.092C147.378 229.759 135.695 224.333 135.695 224.333L142.638 189.068V129.038C142.638 127.018 142.978 125.067 143.604 123.251C144.229 121.415 145.154 119.708 146.303 118.205C147.527 116.594 149.03 115.2 150.73 114.091C150.737 114.091 150.751 114.085 150.757 114.071C151.866 113.343 153.056 112.745 154.327 112.289C156.245 111.582 158.312 111.201 160.475 111.201L171.355 111.195Z" fill="#E527BB"/>
<path d="M206.875 232.384C206.896 232.384 206.909 232.384 206.93 232.377V232.384H206.875Z" fill="#19203F"/>
<path d="M223.329 230.419C217.61 231.303 212.136 231.949 206.928 232.377L197.312 111.195H202.834C206.424 111.195 209.756 112.249 212.551 114.064C212.558 114.071 212.572 114.085 212.578 114.085C217.454 117.281 220.677 122.782 220.677 129.038V189.068L223.329 230.419Z" fill="#E527BB"/>
<path d="M231.404 169.008C231.166 168.947 231.023 168.702 231.084 168.464L233.879 157.428C233.94 157.19 234.185 157.04 234.423 157.101C234.682 157.149 234.811 157.407 234.75 157.645L231.955 168.682C231.887 168.92 231.642 169.069 231.404 169.008Z" fill="#19203F"/>
<path d="M220.663 181.65C220.431 181.65 220.241 181.473 220.221 181.242L215.291 128.861C215.27 128.617 215.447 128.399 215.692 128.372C215.93 128.351 216.154 128.528 216.181 128.773L221.111 181.153C221.132 181.398 220.955 181.616 220.71 181.643C220.69 181.65 220.676 181.65 220.663 181.65Z" fill="#19203F"/>
<path d="M243.924 210.889L200.533 196.82C196.691 194.977 193.651 191.836 191.917 187.96L171.266 125.522C168.784 118.015 160.685 113.942 153.178 116.424C145.67 118.906 141.597 127.005 144.079 134.512L164.921 197.534L165.288 198.527C169.688 209.115 177.8 217.676 188.13 222.633L234.934 237.369L243.924 210.889Z" fill="#E527BB"/>
<path d="M220.452 233.248C220.405 233.248 220.364 233.241 220.316 233.228L192.076 224.34C187.846 223.007 184.025 221.124 180.733 218.744C173.702 213.657 168.221 206.728 164.889 198.697L164.515 197.691L148.889 150.444C148.814 150.206 148.937 149.955 149.175 149.88C149.413 149.798 149.664 149.928 149.739 150.166L165.359 197.392L165.726 198.371C168.99 206.232 174.369 213.032 181.264 218.023C184.48 220.348 188.207 222.184 192.348 223.49L220.588 232.378C220.826 232.452 220.955 232.704 220.881 232.942C220.819 233.126 220.643 233.248 220.452 233.248Z" fill="#19203F"/>
<path d="M206.615 191.108C206.594 191.108 206.581 191.108 206.56 191.101C206.316 191.074 206.139 190.85 206.173 190.605L209.858 160.08L204.316 150.519C204.248 150.403 204.235 150.261 204.289 150.131L209.845 135.777L202.494 114.703C202.412 114.472 202.535 114.214 202.766 114.132C202.997 114.051 203.256 114.173 203.337 114.404L210.742 135.634C210.776 135.736 210.776 135.845 210.736 135.94L205.194 150.254L210.702 159.76C210.749 159.842 210.77 159.944 210.756 160.039L207.05 190.714C207.03 190.945 206.839 191.108 206.615 191.108Z" fill="#19203F"/>
<path d="M167.557 120.089C167.503 120.089 167.455 120.083 167.401 120.062C167.169 119.974 167.054 119.722 167.135 119.484L169.76 112.405C169.849 112.174 170.1 112.052 170.338 112.14C170.569 112.229 170.685 112.48 170.603 112.718L167.979 119.797C167.911 119.981 167.741 120.089 167.557 120.089Z" fill="#19203F"/>
<path d="M185.722 111.161L181.234 116.104L182.771 121.313H189L190.469 116.233L185.722 111.161Z" fill="#E527BB"/>
<path d="M188.957 178.991L195.968 169.022L189.004 121.313H182.776L180.219 152.614L188.957 178.991Z" fill="#E527BB"/>
<path d="M224.916 205.177C224.868 205.177 224.828 205.171 224.78 205.157L200.395 197.249C196.417 195.345 193.282 192.115 191.508 188.143L170.53 124.815C170.455 124.577 170.577 124.325 170.815 124.251C171.053 124.169 171.305 124.298 171.38 124.536L192.344 187.824C194.01 191.564 196.995 194.631 200.728 196.426L225.059 204.314C225.297 204.389 225.426 204.64 225.344 204.878C225.283 205.055 225.106 205.177 224.916 205.177Z" fill="#19203F"/>
<path d="M180.013 117.906C179.918 117.906 179.83 117.879 179.748 117.825L171.099 111.562C170.901 111.419 170.854 111.14 170.997 110.936C171.139 110.739 171.425 110.692 171.622 110.834L179.952 116.866L185.406 110.862C185.487 110.766 185.61 110.719 185.732 110.712C185.855 110.712 185.977 110.766 186.059 110.855L191.614 116.798L196.986 110.889C197.149 110.705 197.435 110.692 197.619 110.862C197.802 111.025 197.816 111.31 197.646 111.494L191.947 117.757C191.866 117.852 191.73 117.9 191.614 117.9C191.492 117.9 191.369 117.845 191.288 117.757L185.732 111.814L180.34 117.757C180.258 117.859 180.136 117.906 180.013 117.906Z" fill="#19203F"/>
<path d="M188.999 121.755H182.777C182.532 121.755 182.328 121.558 182.328 121.306C182.328 121.055 182.525 120.857 182.777 120.857H188.999C189.244 120.857 189.448 121.055 189.448 121.306C189.448 121.558 189.244 121.755 188.999 121.755Z" fill="#19203F"/>
<path d="M187.478 133.771C187.26 133.771 187.063 133.607 187.036 133.383L185.411 121.367C185.377 121.123 185.547 120.898 185.791 120.864C186.036 120.83 186.261 121 186.295 121.245L187.92 133.261C187.954 133.505 187.784 133.73 187.539 133.764C187.519 133.771 187.498 133.771 187.478 133.771Z" fill="#E527BB"/>
<path d="M358.188 187.328L365.939 232.017L372.678 270.893L394.391 396.047H441.222L405.012 187.328H358.188Z" fill="#231F20"/>
<path d="M319 396.047H365.832L372.672 270.893L374.801 232.017L377.242 187.328L377.385 184.764H330.56L319 396.047Z" fill="#231F20"/>
<path d="M372.47 275.143C372.497 275.143 372.518 275.143 372.545 275.136C372.79 275.095 372.953 274.864 372.912 274.619L365.276 228.019C365.248 227.856 365.126 227.713 364.97 227.665L346.82 222.028C346.582 221.953 346.331 222.089 346.263 222.32C346.188 222.558 346.324 222.81 346.555 222.878L364.439 228.434L372.035 274.762C372.069 274.986 372.259 275.143 372.47 275.143Z" fill="white"/>
<path d="M345.756 113.371C338.188 111.079 330.198 115.356 327.913 122.925L310.464 180.582L310.389 180.827C309.75 183.084 308.54 185.165 306.894 186.831L283.938 206.163L299.863 233.323L327.267 206.952C332.265 201.893 335.937 195.603 337.902 188.769L355.317 131.221C357.602 123.652 353.325 115.662 345.756 113.371Z" fill="#A78BEF"/>
<path d="M302.268 228.746C302.071 228.746 301.887 228.617 301.833 228.413L294.197 200.186C294.129 199.948 294.271 199.703 294.509 199.635C294.754 199.567 294.992 199.71 295.06 199.948L302.697 228.175C302.765 228.413 302.622 228.658 302.384 228.726C302.343 228.746 302.302 228.746 302.268 228.746Z" fill="#19203F"/>
<path d="M340.485 232.446C340.464 232.446 340.45 232.446 340.43 232.439V232.446H340.485Z" fill="#19203F"/>
<path d="M405.383 128.664V188.694C405.383 188.694 395.523 193.828 380.331 196.202C380.066 196.249 379.787 196.283 379.509 196.324C377.006 196.691 374.354 196.984 371.593 197.167C368.642 197.364 365.548 197.426 362.345 197.33C360.897 197.378 359.489 197.392 358.143 197.364C355.709 197.33 353.437 197.194 351.316 196.977H351.309C349.405 196.8 347.63 196.542 345.978 196.242C343.958 195.875 342.102 195.447 340.443 194.971C338.341 194.379 336.512 193.726 334.948 193.074C329.705 190.891 327.359 188.688 327.359 188.688V128.664C327.359 122.408 330.583 116.907 335.458 113.711C335.465 113.711 335.479 113.704 335.485 113.69C338.28 111.875 341.612 110.821 345.203 110.821H387.553C389.715 110.821 391.783 111.208 393.7 111.909C394.972 112.364 396.162 112.963 397.27 113.69C397.277 113.697 397.291 113.711 397.297 113.711C398.997 114.819 400.5 116.213 401.724 117.825C402.88 119.328 403.798 121.034 404.424 122.87C405.043 124.693 405.383 126.644 405.383 128.664Z" fill="#A78BEF"/>
<path d="M330.232 191.19C330.144 191.19 330.049 191.163 329.974 191.108L327.084 189.068C326.955 188.98 326.887 188.823 326.9 188.667L331.687 127.957C331.708 127.712 331.953 127.528 332.17 127.549C332.415 127.569 332.599 127.787 332.578 128.031L327.811 188.483L330.497 190.381C330.701 190.523 330.749 190.802 330.606 191.006C330.511 191.122 330.375 191.19 330.232 191.19Z" fill="#19203F"/>
<path d="M302.39 206.32L320.05 217.921C323.116 219.934 326.972 220.314 330.379 218.941L371.206 202.417L363.699 183.86C363.699 183.86 346.597 181.548 338.457 199.513L333.874 201.37L315.766 194.413C313.766 193.645 311.563 195.27 311.883 197.392C311.903 197.507 311.924 197.623 311.951 197.745L310.557 197.344C309.244 196.97 307.816 197.562 307.211 198.786C306.817 199.581 306.647 200.635 307.136 201.941L306.076 201.662C304.763 201.315 303.362 201.927 302.778 203.158C302.37 204.015 302.111 205.096 302.39 206.32Z" fill="#FFA96E"/>
<path d="M327.09 213.603C326.124 213.603 325.24 213.372 324.458 212.909C321.888 211.4 321.33 207.993 321.31 207.85C321.282 207.66 321.371 207.476 321.541 207.388L333.652 200.982C333.869 200.867 334.141 200.948 334.257 201.166C334.372 201.383 334.291 201.655 334.073 201.771L322.255 208.02C322.445 208.843 323.125 211.094 324.914 212.141C326.158 212.869 327.729 212.896 329.585 212.209L342.9 206.497C343.124 206.402 343.389 206.504 343.484 206.735C343.58 206.959 343.478 207.225 343.246 207.32L329.912 213.039C328.905 213.419 327.96 213.603 327.09 213.603Z" fill="#19203F"/>
<path d="M320.015 207.714C319.961 207.714 319.899 207.7 319.845 207.68L306.959 202.355C306.728 202.26 306.619 202.002 306.714 201.771C306.809 201.539 307.075 201.431 307.299 201.526L320.185 206.85C320.416 206.945 320.525 207.204 320.43 207.435C320.355 207.612 320.185 207.714 320.015 207.714Z" fill="#19203F"/>
<path d="M325.977 204.185C325.916 204.185 325.861 204.171 325.8 204.151L311.765 198.153C311.54 198.058 311.432 197.793 311.527 197.568C311.622 197.344 311.887 197.235 312.112 197.33L326.147 203.328C326.371 203.423 326.48 203.688 326.385 203.913C326.317 204.09 326.154 204.185 325.977 204.185Z" fill="#19203F"/>
<path d="M399.701 190.163L369.108 208.068L354.195 182.581L384.789 164.677C386.999 163.385 387.937 160.624 386.971 158.251L376.595 132.622C373.521 125.067 377.159 116.458 384.707 113.385C384.952 113.283 385.197 113.187 385.441 113.106L396.593 113.697L396.58 113.725C399.803 115.248 402.489 117.941 403.937 121.511L414.314 147.147C420.822 163.113 414.593 181.446 399.701 190.163Z" fill="#A78BEF"/>
<path d="M359.91 192.788C359.754 192.788 359.604 192.706 359.523 192.564L353.811 182.799C353.688 182.581 353.756 182.309 353.967 182.187L384.56 164.289C386.573 163.106 387.437 160.583 386.553 158.414L376.176 132.785C376.081 132.554 376.196 132.295 376.421 132.2C376.645 132.105 376.91 132.214 377.006 132.445L387.382 158.074C388.429 160.651 387.41 163.65 385.009 165.058L354.803 182.731L360.291 192.108C360.413 192.326 360.345 192.598 360.135 192.72C360.067 192.774 359.992 192.788 359.91 192.788Z" fill="#19203F"/>
<path d="M371.847 205.055C371.664 205.055 371.494 204.946 371.426 204.763L362.599 180.956C362.511 180.725 362.633 180.466 362.864 180.378C363.096 180.29 363.354 180.412 363.442 180.643L372.269 204.45C372.357 204.681 372.235 204.94 372.004 205.028C371.949 205.042 371.902 205.055 371.847 205.055Z" fill="#19203F"/>
<path d="M366.327 120.144C366.198 120.144 366.076 120.089 365.994 119.994L359.541 112.793L353.462 119.987C353.38 120.089 353.251 120.144 353.122 120.144C352.992 120.144 352.863 120.083 352.782 119.987L345.682 111.549C345.526 111.358 345.546 111.079 345.737 110.916C345.927 110.76 346.206 110.78 346.369 110.971L353.128 119.008L359.201 111.827C359.282 111.725 359.405 111.671 359.534 111.671C359.65 111.671 359.786 111.725 359.874 111.821L366.348 119.042L373.896 110.957C374.066 110.78 374.351 110.767 374.528 110.937C374.712 111.107 374.718 111.385 374.548 111.569L366.667 120.008C366.572 120.096 366.45 120.144 366.327 120.144Z" fill="#19203F"/>
<path d="M357.527 179.004C357.52 179.004 357.52 179.004 357.514 179.004C357.269 178.998 357.071 178.787 357.078 178.542L359.125 115.458C359.132 115.214 359.329 115.023 359.574 115.023C359.581 115.023 359.581 115.023 359.587 115.023C359.832 115.03 360.03 115.241 360.023 115.486L357.976 178.569C357.969 178.814 357.765 179.004 357.527 179.004Z" fill="#19203F"/>
<path d="M374.193 76.7527V87.5307C374.193 87.7823 374.186 88.0407 374.186 88.2991C374.166 88.5507 374.152 88.8023 374.132 89.0471C374.125 89.1287 374.111 89.1967 374.105 89.2715C374.084 89.4687 374.057 89.6591 374.03 89.8427C373.996 90.1147 373.955 90.3731 373.907 90.6383C373.785 91.3387 373.615 92.0187 373.397 92.6851C373.343 92.8551 373.289 93.0251 373.234 93.1883C373.2 93.2767 373.159 93.3787 373.125 93.4739C373.091 93.5759 373.051 93.6643 373.017 93.7595C372.595 94.8475 372.058 95.8811 371.432 96.8467C368.678 101.117 364.075 104.075 358.682 104.449C356.554 104.599 354.507 104.34 352.589 103.742C352.202 103.619 351.821 103.483 351.447 103.341C351.073 103.191 350.692 103.028 350.339 102.851C350.162 102.763 349.978 102.674 349.801 102.579C349.441 102.389 349.094 102.185 348.754 101.981C348.584 101.879 348.414 101.763 348.251 101.661C343.804 98.6555 340.859 93.5759 340.859 87.8367V68.7967C341.138 68.6743 341.403 68.5451 341.675 68.4023C343.573 67.4095 346 65.7435 348.115 67.1375C348.904 67.6543 349.509 68.4091 350.203 69.0347C350.937 69.7147 351.78 70.2043 352.773 70.4151C354.908 70.8707 357.05 70.0275 359.002 69.2455C360.96 68.4499 363.143 67.5727 365.244 68.3683C365.38 68.4227 365.503 68.4771 365.632 68.5383C366.346 71.8635 368.127 74.9167 370.698 77.1743C371.255 77.6639 371.833 78.1127 372.459 78.5275C372.738 77.9971 373.119 77.5415 373.574 77.1743C373.771 77.0247 373.975 76.8819 374.193 76.7527Z" fill="#FFA96E"/>
<path d="M348.266 101.668V111.256H374.221V93.5621L373.14 93.4941C373.106 93.5961 373.065 93.6845 373.031 93.7797C372.61 94.8677 372.072 95.9013 371.447 96.8669C368.693 101.137 364.089 104.095 358.697 104.469C356.568 104.619 354.522 104.361 352.604 103.762C352.216 103.647 351.836 103.504 351.462 103.361C351.088 103.211 350.707 103.048 350.353 102.871C350.176 102.783 349.993 102.695 349.816 102.599C349.456 102.409 349.109 102.212 348.769 102.001C348.599 101.892 348.429 101.783 348.266 101.668Z" fill="#FFA96E"/>
<path d="M382.422 86.1027C381.238 89.7883 377.995 92.7327 374.214 93.5555L373.133 93.4875C373.167 93.3855 373.208 93.2903 373.242 93.2019C373.296 93.0387 373.35 92.8687 373.405 92.6987C373.622 92.0255 373.792 91.3455 373.915 90.6519C373.969 90.3799 374.003 90.1215 374.037 89.8563C374.064 89.6659 374.092 89.4823 374.112 89.2851C374.119 89.2171 374.119 89.1355 374.132 89.0607C374.16 88.8091 374.18 88.5575 374.194 88.3127C374.194 88.0543 374.2 87.7959 374.2 87.5443V76.7663C375.254 76.1475 376.553 75.9095 377.764 76.1339C377.995 76.1815 378.226 76.2427 378.444 76.3107C378.675 76.3787 378.899 76.4739 379.117 76.5827C379.137 76.5895 379.164 76.6031 379.178 76.6167C379.457 76.7527 379.715 76.9023 379.953 77.0723C379.987 77.0927 380.014 77.1199 380.042 77.1335C380.069 77.1403 380.089 77.1607 380.116 77.1811L380.144 77.2015C381.102 77.9291 381.864 78.9083 382.32 80.0099C383.115 81.9139 383.061 84.1239 382.422 86.1027Z" fill="#FFA96E"/>
<path d="M346.153 82.6415C347.498 82.6415 348.588 81.5516 348.588 80.2071C348.588 78.8626 347.498 77.7727 346.153 77.7727C344.809 77.7727 343.719 78.8626 343.719 80.2071C343.719 81.5516 344.809 82.6415 346.153 82.6415Z" fill="#FFA96E"/>
<path d="M347.717 76.4466H344.589C344.141 76.4466 343.773 76.0794 343.773 75.6306V75.1138C343.773 74.665 344.141 74.2979 344.589 74.2979H347.717C348.166 74.2979 348.533 74.665 348.533 75.1138V75.6306C348.533 76.0794 348.166 76.4466 347.717 76.4466Z" fill="#FFA96E"/>
<path d="M361.97 80.2071C361.97 81.5535 360.882 82.6415 359.536 82.6415C358.19 82.6415 357.102 81.5535 357.102 80.2071C357.102 78.8607 358.19 77.7727 359.536 77.7727C360.876 77.7727 361.97 78.8607 361.97 80.2071Z" fill="#FFA96E"/>
<path d="M361.092 76.4466H357.964C357.516 76.4466 357.148 76.0794 357.148 75.6306V75.1138C357.148 74.665 357.516 74.2979 357.964 74.2979H361.092C361.541 74.2979 361.908 74.665 361.908 75.1138V75.6306C361.908 76.0794 361.541 76.4466 361.092 76.4466Z" fill="#FFA96E"/>
<path d="M371.227 87.3607C371.227 89.6931 369.336 91.5835 367.004 91.5835C364.672 91.5835 362.781 89.6931 362.781 87.3607C362.781 85.0283 364.672 83.1379 367.004 83.1379C369.336 83.1379 371.227 85.0283 371.227 87.3607Z" fill="#FFA96E"/>
<path d="M369.237 99.6211C369.237 99.6211 364.796 104.537 358.316 104.497C351.836 104.456 348.266 101.675 348.266 101.675V108.611C348.266 108.611 360.349 112.364 369.237 99.6211Z" fill="#19203F"/>
<path d="M351.087 79.1328L352.766 89.428H348.102L351.087 79.1328Z" fill="#FFA96E"/>
<path d="M377.255 79.1193C375.398 80.0169 375.33 82.2201 375.412 84.0017C375.419 84.1513 375.561 84.2941 375.711 84.3145C376.949 84.4641 378.009 85.5181 378.064 86.7897C378.118 88.0545 377.105 89.2309 375.874 89.4417C375.425 89.5233 375.5 90.2305 375.956 90.1489C377.54 89.8769 378.791 88.4557 378.778 86.8305C378.764 85.3073 377.567 83.9881 376.112 83.6685C376.058 82.3425 376.078 80.7717 377.268 79.9353C378.506 79.0581 379.764 80.1053 379.954 81.4041C380.022 81.8597 380.729 81.7781 380.661 81.3225C380.417 79.7313 378.907 78.3237 377.255 79.1193Z" fill="#19203F"/>
<path d="M353.504 89.2714C351.77 89.2306 350.03 89.1898 348.296 89.1558C349.322 85.7014 350.349 82.2538 351.376 78.7994C351.505 78.3574 350.798 78.2554 350.669 78.6906C349.601 82.2742 348.534 85.8646 347.466 89.4482C347.391 89.6998 347.656 89.8562 347.86 89.8562L353.579 89.9854C354.042 89.9922 353.96 89.2782 353.504 89.2714Z" fill="#FFA96E"/>
<path d="M351.453 92.9641L359.878 89.1221C359.878 89.1221 362.34 93.8277 357.886 95.7997C353.432 97.7717 351.453 92.9641 351.453 92.9641Z" fill="#FFA96E"/>
<path d="M379.95 77.0586C379.706 76.8886 379.447 76.739 379.175 76.603C379.155 76.5826 379.128 76.5758 379.114 76.569C378.896 76.4602 378.679 76.3718 378.441 76.297C378.223 76.229 377.992 76.161 377.761 76.1202C376.55 75.8958 375.258 76.1406 374.198 76.7526C373.98 76.875 373.776 77.0246 373.579 77.181C373.123 77.5482 372.736 78.0038 372.464 78.5342C371.838 78.1262 371.253 77.6774 370.702 77.181C368.132 74.9234 366.357 71.877 365.636 68.545C365.514 68.4838 365.385 68.4294 365.249 68.375C363.148 67.5794 360.965 68.4566 359.006 69.2522C357.055 70.041 354.92 70.8774 352.778 70.4218C351.785 70.2178 350.942 69.7214 350.207 69.0414C349.52 68.4158 348.908 67.661 348.12 67.1442C345.998 65.7502 343.577 67.4094 341.68 68.409C341.415 68.5518 341.143 68.6742 340.864 68.8034C339.327 69.4766 337.654 69.7758 336.07 68.9462C334.622 68.1778 333.595 66.845 332.391 65.7638C331.806 65.2334 331.174 64.7438 330.426 64.465C329.318 64.0638 328.162 64.3834 327.026 64.4582C325.272 64.5534 323.708 63.8054 322.722 62.3366C321.81 60.997 321.484 59.2562 322.035 57.7126C322.599 56.101 324.041 54.9042 325.625 54.367C327.42 53.7686 329.161 54.0746 330.834 54.8974C332.568 55.7474 334.343 56.883 336.274 55.8902C337.797 55.1014 338.858 53.653 340.334 52.7826C342.176 51.6878 344.182 52.0074 346.018 52.9594C347.936 53.959 349.663 55.625 351.907 55.8018C353.893 55.9514 355.736 54.8974 357.408 53.9658C359.102 53.0274 360.836 52.0414 362.794 51.8442C364.657 51.6538 366.582 52.1298 368.159 53.1226C371.226 55.047 372.572 58.8482 371.682 62.2754C372.865 61.7042 374.204 61.4866 375.517 61.643C378.822 62.0102 381.032 64.6214 381.63 67.7698C382.242 70.9862 381.195 74.1142 379.95 77.0586Z" fill="#231F20"/>
</g>
</g>
<defs>
<clipPath id="clip0_1915_6360">
<rect width="542.64" height="328.79" fill="white"/>
</clipPath>
</defs>
</svg>
