<svg width="533" height="331" viewBox="0 0 533 331" fill="none" xmlns="http://www.w3.org/2000/svg">
<g clip-path="url(#clip0_649_11557)">
<path opacity="0.2" fill-rule="evenodd" clip-rule="evenodd" d="M95.62 234.95H48.52H47.29C21.28 234.95 0 256.23 0 282.24C0 308.25 21.28 329.53 47.29 329.53H185.35H209.13H455.92C498.04 329.53 532.5 295.07 532.5 252.96C532.5 210.84 498.04 176.39 455.93 176.39C438.12 176.39 423.55 161.82 423.55 144.01C423.55 126.2 438.12 111.63 455.93 111.63H494.9C513.41 111.63 528.56 96.48 528.56 77.97C528.56 59.46 513.41 44.31 494.9 44.31H445.63C438.42 44.31 432.53 38.41 432.53 31.2C432.53 23.99 438.43 18.1 445.63 18.1H454.32C459.29 18.1 463.36 14.03 463.36 9.06C463.36 4.09 459.29 0.02 454.32 0.02H421.77C421.77 0.02 409.33 0.02 397.33 0.02C385.33 0.02 383.99 14.2 353.67 14.2C306.8 14.2 330.23 14.2 283.36 14.2C276.87 14.2 271.56 19.51 271.56 26C271.56 32.49 276.87 37.8 283.36 37.8H294.69C304.1 37.8 311.79 45.5 311.79 54.9C311.79 64.31 304.1 72 294.69 72H260.58C214.52 72 208.01 84.04 199.95 107.98C191.88 131.92 149.99 133.85 149.99 133.85H92.67C78.5 133.85 66.9 145.45 66.9 159.62C66.9 173.79 78.5 185.39 92.67 185.39H95.62C109.25 185.39 120.41 196.54 120.41 210.18C120.4 223.8 109.25 234.95 95.62 234.95ZM479.68 18.09C474.68 18.09 470.63 14.04 470.63 9.05C470.63 4.06 474.68 0 479.68 0C484.67 0 488.72 4.05 488.72 9.04C488.72 14.03 484.67 18.09 479.68 18.09Z" fill="#999999"/>
<g clip-path="url(#clip1_649_11557)">
<path d="M406.076 207.911H114.279V282.911H406.076V207.911Z" fill="#825353"/>
<path d="M406.076 243.137V207.911H114.279L406.076 243.137Z" fill="#633B3B"/>
<path d="M416.423 199.325H106V209.679H416.423V199.325Z" fill="#825353"/>
<path d="M416.423 276.595H106V286.949H416.423V276.595Z" fill="#633B3B"/>
<path d="M416.423 199.325H106V201.851H416.423V199.325Z" fill="#966A6A"/>
<path opacity="0.1" d="M391.178 333C410.962 333 427 329.581 427 325.363C427 321.145 410.962 317.726 391.178 317.726C371.394 317.726 355.356 321.145 355.356 325.363C355.356 329.581 371.394 333 391.178 333Z" fill="#231F20"/>
<path opacity="0.1" d="M229.789 303.603C218.875 303.603 208.842 304.327 200.923 305.541C193.002 304.33 182.971 303.603 172.057 303.603C146.449 303.603 125.694 307.592 125.694 312.51C125.694 317.428 146.452 321.417 172.057 321.417C182.971 321.417 193.004 320.693 200.923 319.478C208.845 320.69 218.875 321.417 229.789 321.417C255.397 321.417 276.153 317.428 276.153 312.51C276.153 307.592 255.394 303.603 229.789 303.603Z" fill="#231F20"/>
<path d="M403.336 146.372H246.817C245.979 146.372 245.292 145.688 245.292 144.849V44.5228C245.292 43.6862 245.977 43 246.817 43H403.336C404.173 43 404.86 43.6836 404.86 44.5228V144.851C404.858 145.688 404.173 146.372 403.336 146.372Z" fill="#474747"/>
<path d="M399.332 142.043H250.818C250.037 142.043 249.398 141.405 249.398 140.625V48.7468C249.398 47.9663 250.037 47.3286 250.818 47.3286H399.332C400.113 47.3286 400.751 47.9663 400.751 48.7468V140.625C400.754 141.405 400.113 142.043 399.332 142.043Z" fill="#B8ADA9"/>
<path d="M398.223 139.625H251.929C251.168 139.625 250.545 139.003 250.545 138.243V49.7289C250.545 48.9688 251.168 48.3464 251.929 48.3464H398.223C398.984 48.3464 399.607 48.9688 399.607 49.7289V138.243C399.605 139.003 398.984 139.625 398.223 139.625Z" fill="white"/>
<path d="M307.822 59.4216H314.704V101.177H307.822V59.4216Z" fill="#E527BB"/>
<path d="M297.88 67.3164H304.762V101.18H297.88V67.3164Z" fill="#A78BEF"/>
<path d="M287.939 64.0054H294.821V101.177H287.939V64.0054Z" fill="#E527BB"/>
<path d="M266.91 74.1775H273.91V101.177H266.91V74.1775Z" fill="#E527BB"/>
<path d="M278 84.8833H284.882V101.177H278V84.8833Z" fill="#A78BEF"/>
<path d="M256.91 89.1775H263.91V101.177H256.91V89.1775Z" fill="#A78BEF"/>
<path d="M316 102H257V103H316V102Z" fill="#B8ADA9"/>
<path d="M353.412 81.2154L353.849 58.1133C353.704 58.1107 353.558 58.1082 353.412 58.1082C340.723 58.1082 330.282 68.5382 330.282 81.2154C330.282 93.8901 340.723 104.32 353.412 104.32C366.101 104.32 376.543 93.8901 376.543 81.2154H353.412Z" fill="#E527BB"/>
<path d="M353.412 81.2154L376.543 81.5419C376.546 81.4322 376.546 81.3251 376.546 81.2154C376.546 68.5407 366.104 58.1082 353.415 58.1082C353.359 58.1082 353.305 58.1082 353.249 58.1082L353.412 81.2154Z" fill="#A78BEF"/>
<path d="M256.635 113.908H281.526C281.584 113.908 281.633 113.86 281.633 113.801V113C281.633 112.942 281.584 112.893 281.526 112.893H256.635C256.577 112.893 256.528 112.942 256.528 113V113.801C256.526 113.86 256.574 113.908 256.635 113.908Z" fill="#B8ADA9"/>
<path d="M256.635 116.964H281.526C281.584 116.964 281.633 116.916 281.633 116.857V116.053C281.633 115.995 281.584 115.946 281.526 115.946H256.635C256.577 115.946 256.528 115.995 256.528 116.053V116.857C256.526 116.916 256.574 116.964 256.635 116.964Z" fill="#B8ADA9"/>
<path d="M256.635 120.02H281.526C281.584 120.02 281.633 119.971 281.633 119.913V119.112C281.633 119.053 281.584 119.005 281.526 119.005H256.635C256.577 119.005 256.528 119.053 256.528 119.112V119.913C256.526 119.971 256.574 120.02 256.635 120.02Z" fill="#B8ADA9"/>
<path d="M256.635 122.948H281.526C281.584 122.948 281.633 122.9 281.633 122.841V122.04C281.633 121.982 281.584 121.933 281.526 121.933H256.635C256.577 121.933 256.528 121.982 256.528 122.04V122.839C256.526 122.9 256.574 122.948 256.635 122.948Z" fill="#B8ADA9"/>
<path d="M256.635 126.004H281.526C281.584 126.004 281.633 125.956 281.633 125.897V125.093C281.633 125.035 281.584 124.986 281.526 124.986H256.635C256.577 124.986 256.528 125.035 256.528 125.093V125.897C256.526 125.956 256.574 126.004 256.635 126.004Z" fill="#B8ADA9"/>
<path d="M256.635 129.06H281.526C281.584 129.06 281.633 129.011 281.633 128.953V128.152C281.633 128.093 281.584 128.045 281.526 128.045H256.635C256.577 128.045 256.528 128.093 256.528 128.152V128.953C256.526 129.009 256.574 129.06 256.635 129.06Z" fill="#B8ADA9"/>
<path d="M286.712 113.908H311.602C311.661 113.908 311.709 113.86 311.709 113.801V113C311.709 112.942 311.661 112.893 311.602 112.893H286.712C286.653 112.893 286.605 112.942 286.605 113V113.801C286.605 113.86 286.653 113.908 286.712 113.908Z" fill="#B8ADA9"/>
<path d="M286.712 116.964H311.602C311.661 116.964 311.709 116.916 311.709 116.857V116.053C311.709 115.995 311.661 115.946 311.602 115.946H286.712C286.653 115.946 286.605 115.995 286.605 116.053V116.857C286.605 116.916 286.653 116.964 286.712 116.964Z" fill="#B8ADA9"/>
<path d="M286.712 120.02H311.602C311.661 120.02 311.709 119.971 311.709 119.913V119.112C311.709 119.053 311.661 119.005 311.602 119.005H286.712C286.653 119.005 286.605 119.053 286.605 119.112V119.913C286.605 119.971 286.653 120.02 286.712 120.02Z" fill="#B8ADA9"/>
<path d="M286.712 122.948H311.602C311.661 122.948 311.709 122.9 311.709 122.841V122.04C311.709 121.982 311.661 121.933 311.602 121.933H286.712C286.653 121.933 286.605 121.982 286.605 122.04V122.839C286.605 122.9 286.653 122.948 286.712 122.948Z" fill="#B8ADA9"/>
<path d="M286.712 126.004H311.602C311.661 126.004 311.709 125.956 311.709 125.897V125.093C311.709 125.035 311.661 124.986 311.602 124.986H286.712C286.653 124.986 286.605 125.035 286.605 125.093V125.897C286.605 125.956 286.653 126.004 286.712 126.004Z" fill="#B8ADA9"/>
<path d="M286.712 129.06H311.602C311.661 129.06 311.709 129.011 311.709 128.953V128.152C311.709 128.093 311.661 128.045 311.602 128.045H286.712C286.653 128.045 286.605 128.093 286.605 128.152V128.953C286.605 129.009 286.653 129.06 286.712 129.06Z" fill="#B8ADA9"/>
<path d="M356.769 94.793C364.273 92.9383 368.85 85.3589 366.994 77.8638C365.137 70.3687 357.549 65.7962 350.045 67.6509C342.542 69.5055 337.964 77.085 339.821 84.5801C341.678 92.0752 349.266 96.6476 356.769 94.793Z" fill="white"/>
<path d="M351.061 111.363H331V131.223H351.061V111.363Z" fill="#E527BB"/>
<path d="M374.677 111.363H354.616V131.223H374.677V111.363Z" fill="#A78BEF"/>
<path d="M193.569 206.748L190.987 214.767C190.987 214.767 193.186 225.269 187.067 226.797C180.949 228.325 186.398 213.24 186.398 213.24L186.781 203.978L193.569 206.748Z" fill="#F3B28B"/>
<path d="M304.83 91.3749L319.36 84.0543C319.36 84.0543 328.121 77.2438 329.396 77.9427C330.67 78.6441 323.183 84.8169 323.183 84.8169C323.183 84.8169 325.348 85.3271 325.476 88.4441C325.603 91.5637 320.379 92.5177 317.383 92.3901C314.388 92.2626 305.976 97.6727 305.976 97.6727L304.638 91.7524L304.83 91.3749Z" fill="#F3B28B"/>
<path d="M196.324 284.962L194.115 295.902C194.115 295.902 199.817 298.672 202.014 296.259L203.484 286.768L196.324 284.962Z" fill="#F3B28B"/>
<path d="M204.003 297.024C204.133 297.241 207.922 309.263 209.945 311.37C211.967 313.477 210.302 318.076 205.522 318.364C200.742 318.652 191.942 319.058 192.626 311.938C193.18 306.181 192.953 295.114 193.459 293.229C193.964 291.346 195.198 291.249 195.198 291.249C195.198 291.249 200.134 294.866 202.713 291.714L204.003 297.024Z" fill="#A78BEF"/>
<path opacity="0.1" d="M195.961 310.939C195.961 310.939 202.105 308.209 207.414 310.579C207.414 310.579 202.409 296.999 199.981 297.501C197.555 298.004 195.961 310.939 195.961 310.939Z" fill="white"/>
<path d="M234.639 287.974L235.175 299.134C235.175 299.134 242.601 300.427 244.47 297.544L243.487 287.971H234.639V287.974Z" fill="#F3B28B"/>
<path d="M246.796 291.701C246.796 291.701 245.89 290.869 243.259 293.453C240.629 296.037 237.999 295.205 234.37 294.652C231.827 294.264 231.602 301.225 231.694 305.419C231.732 307.166 233.071 308.592 234.784 308.717C243.374 309.334 268.076 310.821 273.374 307.936C273.374 307.936 274.281 302.218 270.744 301.478C267.207 300.741 264.393 301.756 262.126 301.294C259.858 300.832 246.796 291.701 246.796 291.701Z" fill="#A78BEF"/>
<path d="M193.799 287.347C193.799 287.347 195.744 256.982 197.215 235.543C199.899 196.392 206.306 179.741 206.306 179.741L246.206 179.384L244.559 290.691C244.559 290.691 237.238 292.601 232.846 289.974C228.454 287.347 228.209 204.508 228.209 204.508L223.329 204.269L205.515 288.301C205.512 288.303 198.436 291.645 193.799 287.347Z" fill="#3F2B3B"/>
<path d="M250.537 111.108C250.537 111.108 297.376 94.1757 310.182 87.6841L313.242 95.3236C313.242 95.3236 263.346 127.723 247.861 126.769C232.376 125.813 250.537 111.108 250.537 111.108Z" fill="#372849"/>
<mask id="mask0_649_11557" style="mask-type:luminance" maskUnits="userSpaceOnUse" x="199" y="107" width="53" height="77">
<path d="M199.812 114.281C199.812 114.281 229.508 101.897 250.537 110.914C250.537 110.914 254.146 147.578 246.117 181.126C246.117 181.126 224.603 187.204 205.675 181.253L199.812 114.281Z" fill="white"/>
</mask>
<g mask="url(#mask0_649_11557)">
<path d="M199.812 114.281C199.812 114.281 229.508 101.897 250.537 110.914C250.537 110.914 254.146 147.578 246.117 181.126C246.117 181.126 224.603 187.204 205.675 181.253L199.812 114.281Z" fill="#A78BEF"/>
</g>
<mask id="mask1_649_11557" style="mask-type:luminance" maskUnits="userSpaceOnUse" x="199" y="107" width="53" height="77">
<path d="M199.812 114.281C199.812 114.281 229.508 101.897 250.537 110.914C250.537 110.914 254.146 147.578 246.117 181.126C246.117 181.126 224.603 187.204 205.675 181.253L199.812 114.281Z" fill="white"/>
</mask>
<g mask="url(#mask1_649_11557)">
<path d="M208.096 102.453H205.229V187.237H208.096V102.453Z" fill="#DAA7EE"/>
</g>
<mask id="mask2_649_11557" style="mask-type:luminance" maskUnits="userSpaceOnUse" x="199" y="107" width="53" height="77">
<path d="M199.812 114.281C199.812 114.281 229.508 101.897 250.537 110.914C250.537 110.914 254.146 147.578 246.117 181.126C246.117 181.126 224.603 187.204 205.675 181.253L199.812 114.281Z" fill="white"/>
</mask>
<g mask="url(#mask2_649_11557)">
<path d="M218.803 102.453H215.936V187.237H218.803V102.453Z" fill="#DAA7EE"/>
</g>
<mask id="mask3_649_11557" style="mask-type:luminance" maskUnits="userSpaceOnUse" x="199" y="107" width="53" height="77">
<path d="M199.812 114.281C199.812 114.281 229.508 101.897 250.537 110.914C250.537 110.914 254.146 147.578 246.117 181.126C246.117 181.126 224.603 187.204 205.675 181.253L199.812 114.281Z" fill="white"/>
</mask>
<g mask="url(#mask3_649_11557)">
<path d="M229.508 102.453H226.641V187.237H229.508V102.453Z" fill="#DAA7EE"/>
</g>
<mask id="mask4_649_11557" style="mask-type:luminance" maskUnits="userSpaceOnUse" x="199" y="107" width="53" height="77">
<path d="M199.812 114.281C199.812 114.281 229.508 101.897 250.537 110.914C250.537 110.914 254.146 147.578 246.117 181.126C246.117 181.126 224.603 187.204 205.675 181.253L199.812 114.281Z" fill="white"/>
</mask>
<g mask="url(#mask4_649_11557)">
<path d="M240.213 102.453H237.345V187.237H240.213V102.453Z" fill="#DAA7EE"/>
</g>
<mask id="mask5_649_11557" style="mask-type:luminance" maskUnits="userSpaceOnUse" x="199" y="107" width="53" height="77">
<path d="M199.812 114.281C199.812 114.281 229.508 101.897 250.537 110.914C250.537 110.914 254.146 147.578 246.117 181.126C246.117 181.126 224.603 187.204 205.675 181.253L199.812 114.281Z" fill="white"/>
</mask>
<g mask="url(#mask5_649_11557)">
<path d="M250.92 102.453H248.053V187.237H250.92V102.453Z" fill="#DAA7EE"/>
</g>
<path d="M216.222 109.549C216.222 109.549 214.692 125.591 231.133 135.041C231.133 135.041 246.459 118.428 238.939 107.924C238.939 107.927 225.78 106.208 216.222 109.549Z" fill="#372849"/>
<path d="M219.567 95.8005C219.567 95.8005 208.096 96.8514 207.236 83.6742C206.375 70.4971 214.787 60.567 220.236 61.7148C220.236 61.7148 227.404 53.6953 237.92 59.6155C248.433 65.5358 247.575 83.1029 236.104 89.0232C224.634 94.9409 219.567 95.8005 219.567 95.8005Z" fill="black"/>
<path d="M218.18 79.0446C218.18 79.0446 211.538 76.7055 211.681 82.6717C211.824 88.6405 219.041 86.6331 219.041 86.6331L218.18 79.0446Z" fill="#F3B28B"/>
<path d="M216.38 110.09L217.782 82.5928C217.782 82.5928 235.369 91.25 235.116 92.2678C234.861 93.2855 238.939 107.927 238.939 107.927C238.939 107.927 230.655 122.948 216.38 110.09Z" fill="#F3B28B"/>
<path d="M235.116 92.2676C235.328 91.4233 224.22 90.0051 220.078 87.939C220.747 98.5705 220.047 107.45 237.976 104.404C236.786 100.001 234.942 92.9614 235.116 92.2676Z" fill="#E09D80"/>
<path d="M217.381 69.4003C216.158 71.5021 215.68 73.9508 215.887 76.374C216.439 82.8223 219.026 100.882 230.655 100.099C240.489 99.4354 240.162 84.5186 239.049 75.4813C238.339 69.7166 233.699 65.2323 227.902 64.763C227.205 64.7069 226.467 64.6763 225.685 64.6763C221.24 64.6737 218.755 67.0357 217.381 69.4003Z" fill="#F3B28B"/>
<path d="M215.456 76.5602C215.456 76.5602 215.982 83.6258 218.752 82.7177C221.526 81.8096 218.895 70.8312 218.895 70.8312C218.895 70.8312 225.443 72.1678 226.686 67.4897C226.686 67.4897 229.603 75.0808 236.485 71.5964C236.485 71.5964 238.397 80.5725 242.412 75.6547C242.412 75.6547 239.018 62.0974 227.501 62.8601C215.982 63.6228 215.17 73.2672 215.456 76.5602Z" fill="black"/>
<path d="M219.759 86.3474C219.759 86.3474 219.631 94.0252 223.224 99.1471C226.641 104.016 235.136 104.527 237.92 99.2695C239.322 96.6218 239.393 91.7397 239.544 86.4443C239.544 86.4443 238.875 97.0427 231.993 96.9458C225.111 96.8514 219.759 86.3474 219.759 86.3474Z" fill="black"/>
<path d="M212.494 81.5979C212.494 81.5979 215.147 80.1414 216.222 82.3146C217.297 84.4879 214.884 85.7275 214.884 85.7275C214.884 85.7275 216.27 83.8425 215.313 82.5773C214.358 81.3122 212.494 81.5979 212.494 81.5979Z" fill="#E09D80"/>
<path d="M215.313 81.8123C215.313 81.8123 213.952 82.0979 214.215 83.0545C214.478 84.0085 216.079 83.7228 216.079 83.7228C216.079 83.7228 216.413 82.4091 215.313 81.8123Z" fill="#E09D80"/>
<path d="M185.282 207.488C185.282 207.488 194.585 114.528 199.812 114.671C205.04 114.814 211.63 130.06 209.371 142.551C206.503 158.399 194.904 209.513 194.904 209.513L185.282 207.488Z" fill="#372849"/>
<path d="M164.695 207.498L158.914 288.262L151.756 287.03C151.756 287.03 151.687 251.491 145.464 234.194C139.241 216.898 152.795 186.546 152.795 186.546L164.695 207.498Z" fill="#F3B28B"/>
<path d="M149.743 317.994H147.649C147.468 317.994 147.32 317.846 147.32 317.665V293.803C147.32 293.622 147.468 293.474 147.649 293.474H149.743C149.925 293.474 150.073 293.622 150.073 293.803V317.665C150.07 317.846 149.925 317.994 149.743 317.994Z" fill="#354ACC"/>
<path d="M162.08 309.88C162.08 309.88 166.079 317.361 165.098 318.093C164.118 318.825 152.925 322.118 149.828 314.073C146.73 306.028 150.446 306.88 147.438 298.437C144.432 289.994 151.996 284.059 155.967 284.472C155.967 284.472 153.834 295.792 155.374 298.203C156.911 300.616 156.909 309.508 162.08 309.88Z" fill="#A78BEF"/>
<path d="M150.318 287.372C150.305 287.4 150.201 287.594 150.188 287.622C150.188 287.622 149.595 290.691 151.079 299.524C152.438 307.607 151.896 311.773 157.693 311.77C158.99 311.77 160.275 311.408 161.339 310.62C161.648 310.39 161.919 310.138 162.077 309.883C162.077 309.883 160.885 307.355 160.964 301.116C161.02 296.815 161.957 290.405 159.452 286.78C157.095 283.362 152.198 283.633 150.318 287.372Z" fill="#F3B28B"/>
<path d="M188.959 206.712L183.178 287.477L176.02 286.245C176.02 286.245 175.951 250.705 169.728 233.409C163.505 216.112 177.06 185.76 177.06 185.76L188.959 206.712Z" fill="#F3B28B"/>
<path d="M174.005 317.208H171.911C171.73 317.208 171.582 317.06 171.582 316.879V293.017C171.582 292.836 171.73 292.688 171.911 292.688H174.005C174.187 292.688 174.335 292.836 174.335 293.017V316.879C174.335 317.06 174.187 317.208 174.005 317.208Z" fill="#354ACC"/>
<path d="M186.342 309.092C186.342 309.092 190.341 316.573 189.36 317.305C188.38 318.037 177.187 321.33 174.09 313.285C170.992 305.24 174.708 306.092 171.699 297.649C168.694 289.206 176.258 283.271 180.229 283.684C180.229 283.684 178.096 295.004 179.636 297.415C181.173 299.83 181.171 308.722 186.342 309.092Z" fill="#A78BEF"/>
<path d="M174.58 286.587C174.567 286.615 174.463 286.808 174.45 286.837C174.45 286.837 173.857 289.905 175.341 298.738C176.7 306.822 176.158 310.987 181.955 310.984C183.252 310.984 184.537 310.622 185.604 309.834C185.913 309.605 186.184 309.352 186.342 309.097C186.342 309.097 185.149 306.569 185.229 300.33C185.285 296.029 186.222 289.619 183.717 285.995C181.357 282.577 176.46 282.847 174.58 286.587Z" fill="#F3B28B"/>
<path d="M146.74 132.608C146.74 132.608 123.835 121.441 128.875 112.574C133.916 103.708 148.385 106.991 141.041 96.8107C133.697 86.6281 135.122 84.9879 142.466 78.8559C149.81 72.7265 146.191 65.7196 158.906 62.5439C171.62 59.3682 174.47 70.316 178.306 72.9433C182.141 75.5706 196.171 80.7154 189.815 91.7729C183.459 102.83 203.186 107.646 194.636 117.171C186.087 126.695 170.962 138.301 146.74 132.608Z" fill="black"/>
<path d="M178.592 109.47C178.592 109.47 199.968 124.157 197.116 140.37C197.116 140.37 178.722 138.306 178.722 139.092C178.722 139.878 178.592 109.47 178.592 109.47Z" fill="#A78BEF"/>
<path d="M186.196 154.797L183.334 137.735C188.032 135.822 188.86 132.151 188.262 127.779C187.67 123.436 182.708 117.992 179.496 114.87L178.589 109.473C178.589 109.473 172.688 106.328 164.031 106.72C155.374 107.113 147.146 113.434 147.146 113.434C147.146 113.73 141.342 143.204 149.606 155.19C149.606 155.19 133.474 195.8 135.573 225.144C135.573 225.144 167.606 239.293 199.082 225.144C199.082 225.144 192.361 163.311 186.196 154.797Z" fill="#A78BEF"/>
<path d="M155.014 80.5523C155.014 80.5523 151.618 77.5424 150.083 81.4272C148.548 85.3145 153.48 90.4594 156.549 86.4624C159.618 82.4653 155.014 80.5523 155.014 80.5523Z" fill="#F3B28B"/>
<path d="M154.631 109.988C154.631 109.988 152.946 89.4213 154.179 85.0671C155.413 80.713 171.319 96.3568 171.319 96.3568L173.62 109.371C173.62 109.371 174.401 116.679 166.426 117.829C158.454 118.979 154.631 109.988 154.631 109.988Z" fill="#F3B28B"/>
<path d="M165.811 101.407C167.826 102.415 170.035 102.407 172.289 101.848L171.319 96.3566C171.319 96.3566 161.978 87.1713 157.06 84.8374C157.08 85.0517 157.103 85.271 157.126 85.4904C157.56 89.4849 158.788 93.3748 160.918 96.7851C162.172 98.7977 163.671 100.491 165.811 101.407Z" fill="#E09D80"/>
<path d="M155.862 70.2905C154.021 74.1039 153.76 78.4886 154.994 82.5392C156.792 88.434 160.798 97.3208 168.605 97.2494C177.269 97.1678 174.159 81.195 171.978 72.9662C170.704 68.1504 166.046 64.9212 161.112 65.643C160.962 65.666 160.811 65.6915 160.658 65.7196C158.467 66.1328 156.924 68.0918 155.862 70.2905Z" fill="#F3B28B"/>
<path d="M157.055 64.9315C157.055 64.9315 153.643 62.9393 154.445 62.5082C155.247 62.0772 157.343 64.0489 157.343 64.0489C157.343 64.0489 155.369 61.2992 156.212 61.011C157.055 60.7227 158.186 63.9469 158.186 63.8856C158.186 63.8244 157.795 59.8835 158.617 60.1488C159.44 60.4166 159.029 64.5412 159.029 64.5412C159.029 64.5412 158.577 66.615 157.055 64.9315Z" fill="black"/>
<path d="M154.097 79.8738C154.097 79.8738 156.153 81.6313 157.591 80.9349C159.028 80.236 156.646 70.3289 158.249 69.3851C159.853 68.4414 168.896 75.8309 170.167 68.9745C171.441 62.1181 159.646 62.1997 154.713 65.9773C149.782 69.755 154.097 79.8738 154.097 79.8738Z" fill="black"/>
<path d="M150.931 81.4959C150.931 81.4959 153.068 80.0598 154.692 82.1744C156.316 84.289 153.17 86.2582 153.17 86.2582C153.17 86.2582 155.39 83.4676 153.931 82.5417C152.473 81.6184 150.931 81.4959 150.931 81.4959Z" fill="#E09D80"/>
<path d="M153.666 81.6185C153.602 81.6108 152.412 82.2332 152.905 83.1999C153.398 84.1641 154.92 83.6514 154.92 83.6514C154.92 83.6514 154.774 81.7639 153.666 81.6185Z" fill="#E09D80"/>
<path d="M144.534 155.708L182.627 152.106L203.852 155.368L165.344 157.996L144.534 155.708Z" fill="#E527BB"/>
<path d="M201.771 154.437L144.538 155.712L144.619 159.346L201.852 158.071L201.771 154.437Z" fill="#E527BB"/>
<path d="M166.551 158.853L212.491 157.83C213.02 157.817 213.438 157.381 213.428 156.85L212.721 125.106C212.708 124.578 212.271 124.16 211.74 124.17L165.801 125.193C165.272 125.206 164.853 125.642 164.863 126.172L165.571 157.917C165.584 158.445 166.023 158.865 166.551 158.853Z" fill="#E527BB"/>
<path d="M188.273 140.582C188.303 141.992 189.475 143.109 190.887 143.079C192.3 143.048 193.418 141.877 193.387 140.467C193.357 139.056 192.185 137.939 190.773 137.97C189.36 138.003 188.242 139.171 188.273 140.582Z" fill="white"/>
<path d="M167.409 158.218L173.656 156.565C173.656 156.565 179.23 153.027 180.933 153.159C182.639 153.289 176.671 157.22 176.671 157.22C176.671 157.22 185.458 153.619 187.557 155.19C189.657 156.761 181.919 162.526 174.902 161.411L168.196 163.408L167.409 158.218Z" fill="#F3B28B"/>
<path d="M149.542 111.878C149.542 111.878 126.46 125.239 126.066 150.654C125.673 176.068 169.738 164.411 169.738 164.411L167.902 157.337C167.902 157.337 146.526 162.447 140.625 154.588C134.723 146.729 147.575 135.199 147.575 135.199L148.423 134.041C153.173 127.529 153.615 118.829 149.542 111.878Z" fill="#A78BEF"/>
<path d="M200.318 161.156C200.318 161.156 189.097 162 189.342 156.185C189.36 155.731 189.687 155.335 190.142 155.177C191.36 154.756 195.823 155.307 201.799 157.988C201.799 157.988 199.674 151.971 201.281 152.909C201.763 153.195 207.491 160.817 200.318 161.156Z" fill="#F3B28B"/>
<path d="M389.033 269.711C389.033 269.711 373.995 238.903 397.445 218.28C397.445 218.28 409.934 256.728 389.033 269.711Z" fill="#6DD01F"/>
<path d="M389.342 272.907C389.342 272.907 361.352 253.08 372.026 223.749C372.026 223.749 401.449 251.501 389.342 272.907Z" fill="#6EE213"/>
<path d="M397.432 269.777C397.432 269.777 393.66 247.632 412.215 238.979C412.215 238.979 412.973 265.459 397.432 269.777Z" fill="#6EE213"/>
<path d="M379.916 327.572H403.302C405.989 327.572 408.259 325.588 408.617 322.927L416.405 264.936H368.229L374.587 322.797C374.883 325.516 377.182 327.572 379.916 327.572Z" fill="#D1203D"/>
<path d="M368.226 264.938L369.268 274.414C384.518 274.328 399.822 274.399 415.126 274.437L416.403 264.936H368.226V264.938Z" fill="#062241"/>
<path d="M364.786 266.275H419.845C420.843 266.275 421.661 265.459 421.661 264.461C421.661 263.464 420.843 262.648 419.845 262.648H364.786C363.788 262.648 362.971 263.464 362.971 264.461C362.971 265.459 363.788 266.275 364.786 266.275Z" fill="#DF2D7D"/>
<path d="M340.593 199.785H395.141C395.381 199.785 395.575 199.591 395.575 199.351V196.086C395.575 195.846 395.381 195.652 395.141 195.652H340.593C340.353 195.652 340.159 195.846 340.159 196.086V199.351C340.159 199.588 340.353 199.785 340.593 199.785Z" fill="#232323"/>
<path d="M341.472 196.037H394.263C394.988 196.037 395.575 195.451 395.575 194.726V159.679C395.575 158.955 394.988 158.368 394.263 158.368H341.472C340.747 158.368 340.159 158.955 340.159 159.679V194.726C340.159 195.451 340.747 196.037 341.472 196.037Z" fill="#E527BB"/>
<path d="M369.081 179.883C370.279 179.215 370.709 177.703 370.04 176.506C369.372 175.309 367.858 174.88 366.66 175.548C365.461 176.216 365.032 177.728 365.701 178.925C366.369 180.122 367.883 180.551 369.081 179.883Z" fill="white"/>
<path d="M330.08 154.996H315.134V199.325H330.08V154.996Z" fill="#A78BEF"/>
<path d="M329.161 170.701H315.882V173.027H329.161V170.701Z" fill="white"/>
<path d="M329.161 174.144H315.882V174.746H329.161V174.144Z" fill="white"/>
<path d="M320.363 164.671C320.363 165.923 321.38 166.939 322.633 166.939C323.887 166.939 324.904 165.923 324.904 164.671C324.904 163.419 323.887 162.403 322.633 162.403C321.382 162.403 320.363 163.419 320.363 164.671Z" fill="white"/>
<path d="M303.407 154.996H288.461V199.325H303.407V154.996Z" fill="#E527BB"/>
<path d="M302.486 170.701H289.207V173.027H302.486V170.701Z" fill="white"/>
<path d="M302.486 174.144H289.207V174.746H302.486V174.144Z" fill="white"/>
<path d="M293.691 164.671C293.691 165.923 294.707 166.939 295.961 166.939C297.215 166.939 298.231 165.923 298.231 164.671C298.231 163.419 297.215 162.403 295.961 162.403C294.707 162.403 293.691 163.419 293.691 164.671Z" fill="white"/>
<path d="M313.755 154.996H305.131V199.325H313.755V154.996Z" fill="#DAA7EE"/>
<path d="M313.224 197.716H305.563V198.95H313.224V197.716Z" fill="white"/>
<path d="M313.224 156.23H305.563V158.557H313.224V156.23Z" fill="white"/>
<path d="M313.224 159.674H305.563V160.276H313.224V159.674Z" fill="white"/>
<path d="M341.456 78.08H347.492V79.148C346.828 79.836 346.292 80.544 345.884 81.272C345.476 81.992 345.18 82.744 344.996 83.528C344.82 84.304 344.732 85.128 344.732 86H343.436C343.436 85.12 343.544 84.264 343.76 83.432C343.984 82.592 344.32 81.792 344.768 81.032C345.224 80.264 345.796 79.544 346.484 78.872L346.724 79.196H341.456V78.08ZM351.413 86.12C350.461 86.12 349.713 85.776 349.169 85.088C348.633 84.392 348.365 83.376 348.365 82.04C348.365 80.704 348.633 79.692 349.169 79.004C349.713 78.308 350.461 77.96 351.413 77.96C352.373 77.96 353.121 78.308 353.657 79.004C354.201 79.692 354.473 80.704 354.473 82.04C354.473 83.376 354.201 84.392 353.657 85.088C353.121 85.776 352.373 86.12 351.413 86.12ZM351.413 85.028C351.797 85.028 352.117 84.92 352.373 84.704C352.637 84.48 352.833 84.148 352.961 83.708C353.097 83.26 353.165 82.704 353.165 82.04C353.165 81.376 353.097 80.824 352.961 80.384C352.833 79.936 352.637 79.604 352.373 79.388C352.117 79.164 351.797 79.052 351.413 79.052C351.029 79.052 350.705 79.164 350.441 79.388C350.185 79.604 349.993 79.936 349.865 80.384C349.737 80.824 349.673 81.376 349.673 82.04C349.673 82.704 349.737 83.26 349.865 83.708C349.993 84.148 350.185 84.48 350.441 84.704C350.705 84.92 351.029 85.028 351.413 85.028ZM357.316 86L362.5 78.08H363.604L358.432 86H357.316ZM357.628 77.96C358.036 77.96 358.388 78.052 358.684 78.236C358.988 78.42 359.22 78.676 359.38 79.004C359.548 79.332 359.632 79.72 359.632 80.168C359.632 80.608 359.548 80.996 359.38 81.332C359.22 81.66 358.988 81.916 358.684 82.1C358.388 82.284 358.036 82.376 357.628 82.376C357.228 82.376 356.876 82.284 356.572 82.1C356.268 81.916 356.032 81.66 355.864 81.332C355.704 80.996 355.624 80.608 355.624 80.168C355.624 79.72 355.704 79.332 355.864 79.004C356.032 78.676 356.268 78.42 356.572 78.236C356.876 78.052 357.228 77.96 357.628 77.96ZM357.628 78.896C357.428 78.896 357.256 78.948 357.112 79.052C356.968 79.148 356.86 79.292 356.788 79.484C356.716 79.668 356.68 79.896 356.68 80.168C356.68 80.432 356.716 80.66 356.788 80.852C356.86 81.044 356.968 81.188 357.112 81.284C357.256 81.38 357.428 81.428 357.628 81.428C357.836 81.428 358.012 81.38 358.156 81.284C358.3 81.188 358.408 81.044 358.48 80.852C358.552 80.66 358.588 80.432 358.588 80.168C358.588 79.896 358.552 79.668 358.48 79.484C358.408 79.292 358.3 79.148 358.156 79.052C358.012 78.948 357.836 78.896 357.628 78.896ZM363.292 81.704C363.7 81.704 364.052 81.796 364.348 81.98C364.652 82.164 364.884 82.424 365.044 82.76C365.212 83.088 365.296 83.472 365.296 83.912C365.296 84.36 365.212 84.748 365.044 85.076C364.884 85.404 364.652 85.66 364.348 85.844C364.052 86.028 363.7 86.12 363.292 86.12C362.892 86.12 362.54 86.028 362.236 85.844C361.932 85.66 361.696 85.404 361.528 85.076C361.368 84.748 361.288 84.36 361.288 83.912C361.288 83.472 361.368 83.088 361.528 82.76C361.696 82.424 361.932 82.164 362.236 81.98C362.54 81.796 362.892 81.704 363.292 81.704ZM363.292 82.652C363.092 82.652 362.92 82.7 362.776 82.796C362.632 82.892 362.524 83.036 362.452 83.228C362.38 83.412 362.344 83.64 362.344 83.912C362.344 84.176 362.38 84.404 362.452 84.596C362.524 84.788 362.632 84.936 362.776 85.04C362.92 85.136 363.092 85.184 363.292 85.184C363.5 85.184 363.676 85.136 363.82 85.04C363.964 84.936 364.072 84.788 364.144 84.596C364.216 84.404 364.252 84.176 364.252 83.912C364.252 83.648 364.216 83.42 364.144 83.228C364.072 83.036 363.964 82.892 363.82 82.796C363.676 82.7 363.5 82.652 363.292 82.652Z" fill="black"/>
<path d="M344.591 241H296L304.754 293.195C304.934 294.283 305.42 295.297 306.155 296.118C306.889 296.94 307.842 297.537 308.902 297.838L309.069 297.888C309.217 297.925 309.353 297.974 309.502 297.999C309.828 298.064 310.159 298.101 310.491 298.11V298.16L310.732 298.123H332.369C332.769 298.125 333.169 298.09 333.562 298.017C334.826 297.821 335.991 297.216 336.879 296.295C337.766 295.374 338.328 294.188 338.477 292.917L342.7 256.956L342.885 255.522L344.554 241.303L344.591 241ZM335.417 274.291H330.471L330.972 259.144H336.752L335.417 274.291ZM337.197 259.144H341.97L340.196 274.291H335.912L337.197 259.144ZM322.979 291.087L322.676 277.926H329.853L329.414 291.087H322.979ZM315.195 277.926H322.169L322.472 291.087H316.215L315.195 277.926ZM315.733 291.087H309.879C309.329 287.533 308.599 282.915 307.82 277.926H314.707L315.733 291.087ZM314.911 274.291L313.73 259.144H321.767L322.119 274.291H314.911ZM322.571 274.291L322.218 259.144H330.471L329.964 274.291H322.571ZM322.138 255.509L321.816 241.482H331.046L330.576 255.509H322.138ZM321.656 255.509H313.452L312.358 241.482H321.334L321.656 255.509ZM313.001 255.509H304.346C304.037 253.574 303.728 251.738 303.48 250.088C302.578 244.419 302.244 242.286 302.046 241.482H311.937L313.001 255.509ZM313.279 259.144L314.46 274.291H307.251C307.004 272.757 306.763 271.2 306.516 269.642C305.953 266.068 305.391 262.495 304.865 259.132L313.279 259.144ZM306.794 274.291H302.071L299.561 259.144H304.408C305.125 263.824 305.935 269.036 306.763 274.291H306.794ZM307.363 277.926C308.08 282.476 308.778 286.97 309.421 291.087H304.89L302.683 277.926H307.363ZM329.853 291.087L330.292 277.926H335.089L333.964 291.087H329.853ZM331.09 255.509L331.553 241.482H338.255L337.055 255.509H331.09ZM301.533 241.482C301.725 242.496 302.609 248.017 303.802 255.509H298.943L296.587 241.482H301.533ZM338.23 291.087H334.471L335.596 277.926H339.775L338.23 291.087ZM342.403 255.509H337.513L338.712 241.482H344.072L342.403 255.509Z" fill="#DAA7EE"/>
</g>
</g>
<defs>
<clipPath id="clip0_649_11557">
<rect width="532.49" height="330.06" fill="white"/>
</clipPath>
<clipPath id="clip1_649_11557">
<rect width="321" height="290" fill="white" transform="translate(106 43)"/>
</clipPath>
</defs>
</svg>
