<svg width="533" height="331" viewBox="0 0 533 331" fill="none" xmlns="http://www.w3.org/2000/svg">
<g clip-path="url(#clip0_649_11557)">
<path opacity="0.2" fill-rule="evenodd" clip-rule="evenodd" d="M95.62 234.95H48.52H47.29C21.28 234.95 0 256.23 0 282.24C0 308.25 21.28 329.53 47.29 329.53H185.35H209.13H455.92C498.04 329.53 532.5 295.07 532.5 252.96C532.5 210.84 498.04 176.39 455.93 176.39C438.12 176.39 423.55 161.82 423.55 144.01C423.55 126.2 438.12 111.63 455.93 111.63H494.9C513.41 111.63 528.56 96.48 528.56 77.97C528.56 59.46 513.41 44.31 494.9 44.31H445.63C438.42 44.31 432.53 38.41 432.53 31.2C432.53 23.99 438.43 18.1 445.63 18.1H454.32C459.29 18.1 463.36 14.03 463.36 9.06C463.36 4.09 459.29 0.02 454.32 0.02H421.77C421.77 0.02 409.33 0.02 397.33 0.02C385.33 0.02 383.99 14.2 353.67 14.2C306.8 14.2 330.23 14.2 283.36 14.2C276.87 14.2 271.56 19.51 271.56 26C271.56 32.49 276.87 37.8 283.36 37.8H294.69C304.1 37.8 311.79 45.5 311.79 54.9C311.79 64.31 304.1 72 294.69 72H260.58C214.52 72 208.01 84.04 199.95 107.98C191.88 131.92 149.99 133.85 149.99 133.85H92.67C78.5 133.85 66.9 145.45 66.9 159.62C66.9 173.79 78.5 185.39 92.67 185.39H95.62C109.25 185.39 120.41 196.54 120.41 210.18C120.4 223.8 109.25 234.95 95.62 234.95ZM479.68 18.09C474.68 18.09 470.63 14.04 470.63 9.05C470.63 4.06 474.68 0 479.68 0C484.67 0 488.72 4.05 488.72 9.04C488.72 14.03 484.67 18.09 479.68 18.09Z" fill="#999999"/>
<path d="M70.506 317.856H5V283.519H19.8967V227.278L38.2934 223.022H50.6015V173.164H75.2264V182.284H79.482V133.035H88.299V188.982H96.507H194.397V202.104H225.406V291.039H234.526V202.104H261.721V254.602H284.688V274.514H300.648V180.723H321.168V225.445H342.601L360.841 186.085H417.387L437.907 192.468V150.516H462.335V188.982H478.036V225.445H499.013V256.697L527.741 261.484V317.856H70.506Z" fill="#CBC7D4"/>
<path d="M60.0599 270.704C60.0414 270.704 60.0239 270.703 60.0045 270.701C58.4475 270.555 56.8746 270.288 55.3281 269.904C55.0161 269.827 54.8254 269.512 54.9027 269.199C54.9792 268.886 55.2938 268.695 55.6084 268.774C57.0978 269.143 58.6144 269.401 60.1144 269.541C60.4351 269.571 60.6697 269.855 60.6398 270.176C60.6117 270.478 60.3578 270.704 60.0599 270.704ZM48.9047 267.55C48.8203 267.55 48.7351 267.531 48.6534 267.492C47.2545 266.823 45.8652 266.047 44.5226 265.188C44.2519 265.014 44.1728 264.654 44.3459 264.383C44.5191 264.111 44.8793 264.031 45.1508 264.206C46.4531 265.039 47.801 265.791 49.156 266.44C49.446 266.579 49.569 266.927 49.4302 267.217C49.3309 267.428 49.1226 267.55 48.9047 267.55ZM39.3013 261.022C39.1607 261.022 39.0201 260.971 38.9085 260.869C37.7495 259.812 36.6353 258.678 35.5966 257.5C35.384 257.257 35.4068 256.89 35.6485 256.677C35.8892 256.465 36.2592 256.488 36.471 256.728C37.4823 257.876 38.5658 258.979 39.6941 260.008C39.9322 260.225 39.9489 260.594 39.7318 260.831C39.6167 260.958 39.4594 261.022 39.3013 261.022ZM31.8261 252.124C31.6354 252.124 31.4483 252.031 31.3367 251.858C30.5028 250.572 29.7005 249.206 28.951 247.797C28.7998 247.513 28.9079 247.161 29.1917 247.01C29.4756 246.857 29.8288 246.967 29.9799 247.251C30.7136 248.629 31.4992 249.967 32.3147 251.224C32.4904 251.495 32.4131 251.856 32.1424 252.031C32.044 252.093 31.9342 252.124 31.8261 252.124ZM26.553 241.755C26.321 241.755 26.1013 241.615 26.0108 241.385C25.4511 239.962 24.9221 238.473 24.4388 236.958C24.3413 236.651 24.5108 236.323 24.8175 236.225C25.1224 236.13 25.4519 236.298 25.5495 236.603C26.0249 238.094 26.5451 239.56 27.0951 240.96C27.2129 241.259 27.0653 241.597 26.7665 241.715C26.6962 241.742 26.6241 241.755 26.553 241.755ZM23.162 230.616C22.8967 230.616 22.6559 230.433 22.5944 230.162C22.4784 229.654 22.3677 229.146 22.2605 228.637C22.0469 227.617 21.8492 226.593 21.6709 225.562C21.6155 225.245 21.8281 224.943 22.1454 224.888C22.4643 224.827 22.764 225.045 22.8193 225.362C22.996 226.379 23.191 227.393 23.401 228.399C23.5065 228.9 23.6163 229.402 23.7297 229.903C23.8017 230.217 23.6049 230.529 23.2912 230.601C23.249 230.611 23.2051 230.616 23.162 230.616ZM21.3554 219.112C21.0549 219.112 20.8001 218.88 20.7746 218.576C20.6463 216.989 20.5733 215.41 20.5575 213.879C20.554 213.558 20.8124 213.294 21.134 213.29C21.1366 213.29 21.1384 213.29 21.1401 213.29C21.4591 213.29 21.7192 213.548 21.7227 213.867C21.7376 215.37 21.8097 216.922 21.9362 218.482C21.9617 218.802 21.7227 219.083 21.4029 219.11C21.3879 219.111 21.3721 219.112 21.3554 219.112ZM21.4881 207.477C21.4661 207.477 21.4441 207.477 21.4213 207.474C21.1015 207.438 20.8721 207.149 20.909 206.829C21.0892 205.247 21.3405 203.681 21.6586 202.174C21.7253 201.858 22.0355 201.658 22.3483 201.724C22.6629 201.79 22.865 202.099 22.7982 202.413C22.4889 203.885 22.242 205.414 22.0663 206.961C22.032 207.258 21.7798 207.477 21.4881 207.477ZM63.8234 203.226C63.4842 203.204 63.1819 203.214 62.8612 203.19C62.5405 203.166 62.2997 202.887 62.3235 202.566C62.3463 202.246 62.6213 202.002 62.9473 202.029C63.2399 202.051 63.5431 202.024 63.8234 202.062C65.0492 202.062 66.2153 201.861 67.289 201.465C67.5904 201.355 67.9252 201.508 68.0377 201.811C68.1484 202.113 67.9946 202.448 67.6924 202.559C66.4885 203.002 65.1863 203.226 63.8234 203.226ZM56.372 200.913C56.2612 200.913 56.1496 200.881 56.0503 200.816C55.3614 200.359 54.7165 199.846 54.133 199.29C53.5654 198.749 53.0241 198.155 52.5241 197.523C52.3237 197.271 52.3668 196.905 52.6181 196.705C52.8694 196.503 53.2358 196.548 53.4362 196.8C53.9037 197.389 54.408 197.943 54.937 198.447C55.4704 198.956 56.0618 199.426 56.6944 199.845C56.9624 200.023 57.0363 200.385 56.8588 200.653C56.7463 200.82 56.5609 200.913 56.372 200.913ZM72.5947 198.059C72.5051 198.059 72.4145 198.038 72.3302 197.994C72.0437 197.849 71.9304 197.497 72.0762 197.211C72.7151 195.959 73.0947 194.53 73.2045 192.962C73.2265 192.64 73.5138 192.412 73.8266 192.421C74.1474 192.444 74.3899 192.722 74.3679 193.043C74.2475 194.769 73.8257 196.349 73.1149 197.741C73.0112 197.943 72.8073 198.059 72.5947 198.059ZM24.2033 196.175C24.133 196.175 24.0618 196.163 23.9924 196.136C23.6928 196.019 23.5443 195.682 23.6611 195.381C24.2314 193.913 24.8922 192.466 25.6242 191.081C25.7744 190.796 26.125 190.688 26.4115 190.838C26.6962 190.988 26.8043 191.341 26.654 191.626C25.9431 192.97 25.3017 194.376 24.7463 195.803C24.6567 196.035 24.4362 196.175 24.2033 196.175ZM49.7017 191.606C49.46 191.606 49.2351 191.455 49.1516 191.214C48.6586 189.796 48.2571 188.25 47.9592 186.62C47.9012 186.303 48.1103 186 48.4275 185.942C48.7439 185.885 49.0479 186.094 49.105 186.41C49.3933 187.982 49.779 189.471 50.2517 190.832C50.3572 191.136 50.1964 191.468 49.8924 191.574C49.83 191.596 49.7649 191.606 49.7017 191.606ZM72.6975 186.732C72.4629 186.732 72.2423 186.59 72.1536 186.358C71.6053 184.927 70.8803 183.604 69.9963 182.424C69.8039 182.166 69.8566 181.801 70.1132 181.607C70.3707 181.415 70.7371 181.468 70.9295 181.724C71.8776 182.99 72.6553 184.409 73.2414 185.94C73.3565 186.241 73.2063 186.577 72.9057 186.692C72.8381 186.72 72.7669 186.732 72.6975 186.732ZM29.9501 186.086C29.8235 186.086 29.6952 186.045 29.588 185.96C29.3358 185.759 29.2937 185.393 29.494 185.141C30.4878 183.889 31.5598 182.71 32.6802 181.636C32.9131 181.412 33.2812 181.421 33.5044 181.653C33.7276 181.886 33.7197 182.255 33.4869 182.477C32.4034 183.515 31.3674 184.656 30.4061 185.866C30.2919 186.011 30.1214 186.086 29.9501 186.086ZM47.8845 180.143C47.5655 180.143 47.3054 179.887 47.3019 179.567L47.2993 179.073C47.2993 177.676 47.3661 176.255 47.497 174.851C47.5269 174.53 47.8081 174.291 48.1323 174.326C48.453 174.355 48.6876 174.64 48.6578 174.961C48.5295 176.328 48.4645 177.713 48.4645 179.076L48.4671 179.555C48.4706 179.877 48.2123 180.14 47.8907 180.143C47.888 180.143 47.8863 180.143 47.8845 180.143ZM38.6212 178.396C38.4226 178.396 38.2301 178.295 38.1203 178.112C37.9551 177.836 38.0456 177.478 38.3215 177.313C39.2143 176.78 40.1413 176.29 41.0763 175.859C41.5736 175.63 42.078 175.416 42.5903 175.219C42.8899 175.103 43.2273 175.253 43.3433 175.553C43.4593 175.853 43.3099 176.19 43.0094 176.306C42.5209 176.495 42.0393 176.698 41.5648 176.918C40.6677 177.332 39.7775 177.802 38.919 178.314C38.8259 178.368 38.7231 178.396 38.6212 178.396ZM65.2592 178.049C65.1555 178.049 65.0501 178.02 64.9552 177.962C63.689 177.185 62.3129 176.528 60.8657 176.008C60.5634 175.899 60.4052 175.566 60.5142 175.263C60.6231 174.96 60.9544 174.804 61.2593 174.912C62.7813 175.457 64.2302 176.15 65.565 176.97C65.8392 177.138 65.9253 177.497 65.7566 177.772C65.6458 177.95 65.4543 178.049 65.2592 178.049ZM49.5795 174.721C49.2852 174.721 49.0321 174.499 49.0013 174.199C48.968 173.879 49.1999 173.593 49.5198 173.558C51.0944 173.391 52.6963 173.362 54.2754 173.469C54.5961 173.491 54.8395 173.768 54.8175 174.09C54.7955 174.411 54.5231 174.645 54.1963 174.632C52.6849 174.529 51.1507 174.558 49.641 174.717C49.6208 174.72 49.5997 174.721 49.5795 174.721ZM49.2483 168.602C49.2026 168.602 49.1551 168.597 49.1085 168.586C48.7966 168.509 48.605 168.193 48.6824 167.881C49.0541 166.373 49.5057 164.853 50.025 163.363C50.1305 163.06 50.4635 162.9 50.7667 163.004C51.0707 163.11 51.2306 163.443 51.1252 163.746C50.6182 165.202 50.1771 166.687 49.8133 168.16C49.7474 168.425 49.5101 168.602 49.2483 168.602ZM53.3097 157.708C53.2218 157.708 53.1313 157.688 53.0478 157.646C52.7605 157.501 52.6454 157.15 52.7903 156.863C53.4916 155.475 54.2657 154.093 55.0908 152.754C55.2595 152.48 55.618 152.393 55.8922 152.563C56.1663 152.732 56.2516 153.092 56.0829 153.365C55.2744 154.676 54.5161 156.03 53.8299 157.388C53.7279 157.591 53.5223 157.708 53.3097 157.708ZM59.6144 147.933C59.487 147.933 59.3578 147.89 59.2497 147.804C58.9984 147.603 58.9589 147.237 59.1601 146.985C60.1381 145.766 61.1785 144.571 62.2514 143.435C62.472 143.202 62.841 143.19 63.0747 143.412C63.3085 143.632 63.319 144.001 63.0985 144.235C62.0475 145.348 61.0274 146.519 60.0696 147.715C59.9545 147.858 59.7849 147.933 59.6144 147.933ZM67.7741 139.639C67.6063 139.639 67.4402 139.567 67.3242 139.428C67.1194 139.181 67.1537 138.813 67.4015 138.608C68.6106 137.606 69.8716 136.646 71.1483 135.756C71.4137 135.573 71.7757 135.639 71.9594 135.901C72.143 136.166 72.0789 136.529 71.8144 136.713C70.5631 137.586 69.3285 138.525 68.144 139.507C68.0359 139.595 67.905 139.639 67.7741 139.639ZM77.4601 133.196C77.2501 133.196 77.0471 133.082 76.9425 132.883C76.794 132.597 76.9047 132.246 77.1894 132.097C78.5681 131.377 79.9987 130.699 81.4415 130.083C81.7394 129.957 82.0803 130.095 82.2069 130.389C82.3334 130.685 82.1963 131.028 81.9002 131.155C80.4846 131.759 79.0813 132.424 77.729 133.13C77.6429 133.175 77.5506 133.196 77.4601 133.196ZM136.96 130.915C136.894 130.915 136.827 130.904 136.762 130.88C135.836 130.545 134.903 130.225 133.964 129.921C133.658 129.822 133.49 129.494 133.589 129.187C133.688 128.881 134.014 128.713 134.322 128.812C135.274 129.119 136.22 129.444 137.159 129.783C137.461 129.892 137.618 130.227 137.508 130.529C137.422 130.767 137.198 130.915 136.96 130.915ZM88.241 128.816C87.9905 128.816 87.7586 128.654 87.683 128.402C87.5898 128.095 87.7647 127.769 88.0723 127.677C89.5564 127.228 91.0854 126.825 92.6178 126.478C92.9298 126.41 93.2435 126.604 93.3146 126.918C93.3858 127.232 93.189 127.544 92.8744 127.615C91.3692 127.956 89.8657 128.352 88.4079 128.792C88.3526 128.808 88.2963 128.816 88.241 128.816ZM127.409 128.075C127.365 128.075 127.321 128.069 127.276 128.059C125.776 127.707 124.25 127.393 122.742 127.126C122.424 127.07 122.213 126.767 122.269 126.45C122.325 126.133 122.625 125.919 122.944 125.978C124.474 126.249 126.021 126.567 127.541 126.924C127.855 126.997 128.049 127.31 127.975 127.624C127.913 127.894 127.674 128.075 127.409 128.075ZM99.6317 126.432C99.3417 126.432 99.0895 126.216 99.0544 125.921C99.0148 125.602 99.2424 125.311 99.5614 125.272C101.103 125.082 102.677 124.939 104.24 124.848C104.559 124.838 104.836 125.075 104.856 125.395C104.874 125.717 104.63 125.992 104.308 126.011C102.77 126.102 101.22 126.242 99.7037 126.429C99.6791 126.431 99.6545 126.432 99.6317 126.432ZM115.915 126.207C115.897 126.207 115.88 126.207 115.861 126.205C114.322 126.065 112.768 125.969 111.244 125.92C110.922 125.91 110.67 125.641 110.681 125.319C110.691 124.997 110.994 124.743 111.282 124.756C112.829 124.805 114.405 124.903 115.968 125.044C116.288 125.073 116.524 125.356 116.495 125.678C116.468 125.98 116.213 126.207 115.915 126.207Z" fill="#A78BEF"/>
<path d="M150.305 151.661C150.028 151.661 149.782 151.463 149.732 151.18C149.459 149.646 149.249 148.075 149.107 146.512C149.078 146.192 149.314 145.908 149.634 145.879C149.965 145.853 150.238 146.086 150.267 146.406C150.406 147.936 150.612 149.473 150.88 150.976C150.936 151.293 150.725 151.596 150.408 151.652C150.373 151.658 150.339 151.661 150.305 151.661ZM149.494 140.056C149.487 140.056 149.48 140.056 149.474 140.055C149.152 140.044 148.9 139.775 148.912 139.453C148.964 137.905 149.082 136.326 149.261 134.761C149.297 134.44 149.588 134.201 149.906 134.248C150.226 134.285 150.456 134.573 150.419 134.893C150.244 136.428 150.128 137.976 150.076 139.493C150.064 139.808 149.806 140.056 149.494 140.056ZM151.034 128.526C150.99 128.526 150.946 128.522 150.902 128.511C150.588 128.438 150.393 128.125 150.465 127.812C150.815 126.302 151.227 124.776 151.69 123.273C151.785 122.966 152.109 122.791 152.418 122.888C152.726 122.983 152.898 123.309 152.803 123.617C152.349 125.092 151.944 126.592 151.6 128.075C151.538 128.344 151.298 128.526 151.034 128.526ZM356.263 123.078C355.983 123.078 355.736 122.876 355.688 122.59C355.442 121.088 355.126 119.571 354.746 118.08C354.666 117.767 354.855 117.451 355.167 117.372C355.477 117.291 355.797 117.48 355.876 117.793C356.264 119.316 356.587 120.866 356.839 122.402C356.89 122.719 356.675 123.018 356.357 123.071C356.326 123.076 356.294 123.078 356.263 123.078ZM154.647 117.467C154.57 117.467 154.494 117.452 154.419 117.42C154.123 117.295 153.985 116.953 154.11 116.656C154.713 115.233 155.376 113.798 156.082 112.393C156.225 112.107 156.576 111.99 156.864 112.134C157.152 112.278 157.268 112.629 157.123 112.916C156.429 114.299 155.776 115.71 155.183 117.112C155.089 117.333 154.874 117.467 154.647 117.467ZM353.168 111.869C352.935 111.869 352.716 111.729 352.625 111.499C352.071 110.082 351.449 108.659 350.776 107.27C350.636 106.98 350.757 106.632 351.046 106.492C351.339 106.354 351.685 106.474 351.825 106.762C352.51 108.179 353.145 109.629 353.71 111.074C353.827 111.374 353.68 111.711 353.38 111.829C353.312 111.857 353.239 111.869 353.168 111.869ZM160.026 107.144C159.921 107.144 159.815 107.116 159.719 107.056C159.445 106.885 159.363 106.526 159.532 106.253C160.354 104.935 161.23 103.62 162.136 102.344C162.322 102.083 162.686 102.019 162.949 102.206C163.211 102.392 163.272 102.756 163.087 103.019C162.195 104.276 161.332 105.571 160.522 106.87C160.41 107.046 160.22 107.144 160.026 107.144ZM347.911 101.487C347.717 101.487 347.528 101.391 347.417 101.215C346.607 99.926 345.735 98.6386 344.825 97.3891C344.635 97.129 344.693 96.7644 344.953 96.5746C345.212 96.3856 345.577 96.4428 345.768 96.7029C346.694 97.9735 347.581 99.2827 348.405 100.595C348.576 100.867 348.494 101.226 348.222 101.398C348.124 101.458 348.016 101.487 347.911 101.487ZM166.901 97.7468C166.768 97.7468 166.634 97.7011 166.524 97.6079C166.279 97.3997 166.249 97.0324 166.458 96.7863C167.466 95.5992 168.523 94.4252 169.6 93.2979C169.822 93.065 170.192 93.058 170.424 93.2785C170.657 93.5008 170.666 93.8699 170.443 94.1027C169.382 95.2143 168.34 96.3716 167.345 97.5411C167.231 97.6765 167.067 97.7468 166.901 97.7468ZM340.902 92.1907C340.742 92.1907 340.582 92.1248 340.467 91.9956C339.446 90.8515 338.373 89.7241 337.28 88.6433C337.052 88.4175 337.049 88.0484 337.276 87.8191C337.503 87.5906 337.871 87.5871 338.1 87.8147C339.211 88.9122 340.3 90.0581 341.336 91.2197C341.551 91.4596 341.53 91.8278 341.29 92.0422C341.179 92.1415 341.04 92.1907 340.902 92.1907ZM175.064 89.4386C174.902 89.4386 174.742 89.3718 174.627 89.2408C174.414 88.9992 174.437 88.631 174.679 88.4184C175.85 87.3868 177.066 86.3771 178.292 85.4176C178.545 85.219 178.912 85.2647 179.11 85.5178C179.308 85.7717 179.263 86.1372 179.01 86.3358C177.802 87.2813 176.603 88.276 175.449 89.2918C175.338 89.3902 175.201 89.4386 175.064 89.4386ZM332.496 84.132C332.366 84.132 332.235 84.089 332.127 83.9994C330.942 83.0266 329.71 82.0767 328.464 81.1734C328.203 80.9845 328.145 80.6207 328.334 80.3597C328.521 80.0988 328.885 80.0408 329.148 80.2297C330.413 81.1462 331.664 82.111 332.867 83.0987C333.115 83.3025 333.151 83.6698 332.947 83.9185C332.831 84.0591 332.665 84.132 332.496 84.132ZM184.339 82.3957C184.149 82.3957 183.964 82.3034 183.852 82.133C183.675 81.8641 183.75 81.5029 184.019 81.3263C185.311 80.4784 186.651 79.6462 188.002 78.8519C188.279 78.6876 188.637 78.7816 188.8 79.0593C188.962 79.3369 188.87 79.6937 188.592 79.8571C187.258 80.6409 185.934 81.4634 184.658 82.3008C184.56 82.365 184.449 82.3957 184.339 82.3957ZM322.964 77.4442C322.863 77.4442 322.761 77.4178 322.667 77.3625C321.857 76.8809 321.039 76.4152 320.213 75.9653C319.685 75.678 319.155 75.3959 318.622 75.12C318.336 74.9724 318.225 74.6209 318.372 74.3344C318.52 74.0497 318.87 73.9364 319.158 74.0849C319.698 74.3643 320.235 74.649 320.771 74.9416C321.609 75.3977 322.44 75.8713 323.263 76.3599C323.54 76.5242 323.63 76.8809 323.466 77.1586C323.357 77.3423 323.164 77.4442 322.964 77.4442ZM194.446 76.6112C194.232 76.6112 194.025 76.4925 193.924 76.2878C193.781 75.9996 193.899 75.6499 194.187 75.5075C195.566 74.823 196.994 74.1534 198.43 73.5172C198.728 73.3889 199.069 73.5208 199.199 73.8151C199.329 74.1095 199.196 74.4539 198.901 74.584C197.48 75.2123 196.068 75.8739 194.705 76.5514C194.622 76.5918 194.533 76.6112 194.446 76.6112ZM312.564 72.2167C312.488 72.2167 312.411 72.2018 312.336 72.1711C310.938 71.5779 309.489 71.005 308.029 70.4681C307.727 70.3574 307.572 70.0217 307.683 69.7203C307.794 69.4181 308.13 69.2643 308.431 69.3741C309.909 69.9172 311.375 70.4971 312.792 71.0973C313.088 71.2229 313.227 71.5647 313.101 71.8618C313.006 72.0841 312.791 72.2167 312.564 72.2167ZM205.145 72.0111C204.908 72.0111 204.686 71.8653 204.599 71.6298C204.488 71.3284 204.642 70.9927 204.944 70.8811C206.39 70.3477 207.879 69.8311 209.368 69.346C209.673 69.245 210.003 69.4145 210.103 69.7195C210.202 70.0252 210.035 70.3548 209.73 70.4541C208.253 70.9347 206.779 71.4452 205.347 71.9742C205.281 72.0006 205.212 72.0111 205.145 72.0111ZM216.252 68.5086C215.995 68.5086 215.759 68.3364 215.69 68.0754C215.607 67.7643 215.792 67.4454 216.104 67.3628C217.581 66.97 219.11 66.5921 220.648 66.238C220.965 66.166 221.275 66.3619 221.346 66.6747C221.418 66.9884 221.222 67.3012 220.909 67.3733C219.384 67.7248 217.868 68.0991 216.403 68.4893C216.352 68.5024 216.302 68.5086 216.252 68.5086ZM301.589 68.3206C301.535 68.3206 301.48 68.3135 301.426 68.2968C299.965 67.8707 298.459 67.4647 296.948 67.0912C296.635 67.0139 296.444 66.6976 296.522 66.3856C296.599 66.0728 296.913 65.883 297.228 65.9603C298.755 66.3373 300.277 66.7477 301.752 67.1782C302.062 67.2687 302.239 67.5921 302.149 67.9005C302.074 68.1554 301.842 68.3206 301.589 68.3206ZM227.626 65.9858C227.349 65.9858 227.104 65.7881 227.053 65.5069C226.996 65.1897 227.206 64.8874 227.523 64.8294C229.057 64.5527 230.596 64.2987 232.138 64.0658C232.464 64.0202 232.754 64.2381 232.802 64.5553C232.849 64.8743 232.631 65.1704 232.312 65.2187C230.78 65.4489 229.252 65.7011 227.73 65.977C227.696 65.9832 227.661 65.9858 227.626 65.9858ZM290.254 65.6335C290.219 65.6335 290.183 65.6299 290.147 65.6238C288.657 65.3452 287.117 65.0869 285.57 64.8549C285.252 64.8075 285.033 64.5105 285.08 64.1924C285.127 63.8743 285.42 63.6625 285.743 63.7021C287.304 63.9358 288.857 64.1968 290.362 64.478C290.678 64.5368 290.886 64.8417 290.827 65.1581C290.775 65.4375 290.53 65.6335 290.254 65.6335ZM239.159 64.3259C238.866 64.3259 238.613 64.1054 238.58 63.8066C238.546 63.4868 238.776 63.1994 239.096 63.1643C240.645 62.9947 242.198 62.8453 243.751 62.7153C244.088 62.6854 244.353 62.9262 244.38 63.2469C244.407 63.5676 244.169 63.8497 243.848 63.876C242.305 64.0061 240.763 64.1546 239.223 64.3224C239.201 64.3251 239.18 64.3259 239.159 64.3259ZM278.718 63.9955C278.699 63.9955 278.678 63.9947 278.659 63.9929C277.12 63.8383 275.576 63.7073 274.031 63.5975C273.71 63.5746 273.469 63.297 273.491 62.9754C273.514 62.6538 273.797 62.4104 274.113 62.435C275.67 62.5448 277.224 62.6766 278.775 62.833C279.096 62.8655 279.329 63.1511 279.297 63.471C279.267 63.7715 279.014 63.9955 278.718 63.9955ZM250.778 63.4174C250.47 63.4174 250.213 63.1748 250.197 62.8629C250.181 62.5413 250.429 62.268 250.75 62.2522C252.309 62.1766 253.867 62.1177 255.422 62.0756C255.733 62.0703 256.012 62.3207 256.02 62.6423C256.028 62.9639 255.775 63.2319 255.453 63.2407C253.907 63.282 252.358 63.3409 250.807 63.4165C250.798 63.4174 250.788 63.4174 250.778 63.4174ZM267.09 63.2495C267.084 63.2495 267.078 63.2495 267.072 63.2495C265.522 63.2021 263.972 63.1748 262.425 63.1652C262.102 63.1634 261.844 62.9016 261.846 62.5791C261.848 62.2583 262.109 62 262.428 62H262.432C263.989 62.0088 265.549 62.036 267.107 62.0852C267.429 62.0949 267.681 62.3638 267.672 62.6854C267.662 63 267.404 63.2495 267.09 63.2495Z" fill="#A78BEF"/>
<path d="M464.031 216.981C463.99 216.981 463.949 216.976 463.908 216.967C463.592 216.898 463.394 216.588 463.463 216.273C463.574 215.767 463.678 215.26 463.777 214.751C463.838 214.435 464.15 214.233 464.46 214.29C464.777 214.352 464.982 214.659 464.922 214.974C464.821 215.491 464.713 216.007 464.601 216.52C464.541 216.795 464.3 216.981 464.031 216.981ZM465.316 208.525C465.299 208.525 465.283 208.524 465.266 208.522C464.945 208.495 464.707 208.214 464.735 207.893C464.865 206.355 464.94 204.804 464.962 203.28C464.966 202.961 465.227 202.705 465.545 202.705C465.547 202.705 465.551 202.705 465.553 202.705C465.875 202.71 466.132 202.974 466.127 203.296C466.105 204.848 466.027 206.427 465.895 207.992C465.871 208.295 465.616 208.525 465.316 208.525ZM465.258 196.887C464.962 196.887 464.708 196.661 464.679 196.36C464.532 194.83 464.325 193.291 464.065 191.785C464.01 191.468 464.222 191.167 464.539 191.112C464.851 191.056 465.157 191.269 465.213 191.586C465.479 193.121 465.691 194.689 465.841 196.248C465.872 196.569 465.637 196.853 465.316 196.884C465.296 196.885 465.278 196.887 465.258 196.887ZM391.89 193.347C391.88 193.347 391.87 193.347 391.86 193.346C390.102 193.256 388.509 192.961 387.126 192.468C386.823 192.36 386.666 192.026 386.773 191.723C386.88 191.419 387.212 191.262 387.518 191.37C388.795 191.825 390.276 192.098 391.92 192.182C392.242 192.198 392.489 192.472 392.473 192.793C392.455 193.105 392.198 193.347 391.89 193.347ZM398.847 192.814C398.569 192.814 398.323 192.614 398.273 192.332C398.218 192.015 398.43 191.713 398.747 191.657C400.241 191.394 401.745 191.042 403.22 190.609C403.535 190.518 403.853 190.696 403.943 191.003C404.034 191.313 403.857 191.636 403.548 191.727C402.032 192.172 400.484 192.535 398.948 192.806C398.914 192.811 398.881 192.814 398.847 192.814ZM409.905 189.246C409.688 189.246 409.479 189.124 409.379 188.915C409.24 188.624 409.364 188.276 409.653 188.137C411.026 187.481 412.386 186.742 413.695 185.94C413.967 185.774 414.326 185.858 414.496 186.133C414.663 186.407 414.578 186.766 414.303 186.934C412.961 187.757 411.566 188.515 410.157 189.189C410.075 189.228 409.989 189.246 409.905 189.246ZM382.114 188.104C381.902 188.104 381.697 187.988 381.595 187.786C380.905 186.432 380.503 184.845 380.401 183.067C380.383 182.745 380.628 182.47 380.95 182.452C381.269 182.436 381.546 182.679 381.565 183C381.657 184.616 382.017 186.048 382.632 187.257C382.778 187.543 382.665 187.895 382.378 188.04C382.293 188.083 382.203 188.104 382.114 188.104ZM463.044 185.465C462.793 185.465 462.561 185.302 462.486 185.049C462.041 183.566 461.536 182.099 460.982 180.689C460.866 180.39 461.013 180.051 461.313 179.934C461.611 179.817 461.952 179.964 462.069 180.264C462.633 181.703 463.148 183.201 463.601 184.715C463.694 185.023 463.519 185.348 463.211 185.44C463.155 185.456 463.098 185.465 463.044 185.465ZM419.659 182.926C419.494 182.926 419.331 182.856 419.215 182.721C419.007 182.476 419.037 182.108 419.283 181.9C420.455 180.907 421.582 179.847 422.635 178.751C422.855 178.519 423.225 178.511 423.457 178.734C423.691 178.957 423.697 179.325 423.475 179.558C422.396 180.684 421.238 181.771 420.036 182.79C419.926 182.881 419.792 182.926 419.659 182.926ZM381.864 176.709C381.812 176.709 381.761 176.702 381.708 176.688C381.398 176.601 381.216 176.28 381.302 175.97C381.721 174.46 382.258 172.958 382.898 171.506C383.029 171.212 383.373 171.079 383.666 171.208C383.96 171.338 384.094 171.682 383.964 171.976C383.346 173.377 382.828 174.826 382.424 176.282C382.354 176.54 382.119 176.709 381.864 176.709ZM458.559 174.734C458.354 174.734 458.155 174.625 458.049 174.434C457.393 173.246 456.681 172.073 455.932 170.947L455.638 170.508C455.457 170.242 455.526 169.879 455.792 169.698C456.056 169.52 456.42 169.586 456.601 169.853L456.905 170.303C457.67 171.455 458.398 172.655 459.069 173.869C459.225 174.152 459.123 174.506 458.842 174.662C458.751 174.711 458.655 174.734 458.559 174.734ZM427.481 174.333C427.365 174.333 427.249 174.299 427.148 174.229C426.884 174.044 426.819 173.681 427.004 173.417C427.875 172.168 428.697 170.856 429.446 169.517C429.603 169.236 429.959 169.136 430.239 169.294C430.52 169.451 430.62 169.806 430.463 170.087C429.695 171.458 428.852 172.803 427.96 174.084C427.845 174.246 427.664 174.333 427.481 174.333ZM386.888 166.262C386.771 166.262 386.653 166.227 386.55 166.154C386.289 165.967 386.227 165.603 386.414 165.341C387.318 164.071 388.32 162.836 389.396 161.669C389.615 161.432 389.983 161.417 390.219 161.635C390.455 161.853 390.47 162.222 390.252 162.459C389.21 163.589 388.238 164.786 387.363 166.017C387.25 166.176 387.07 166.262 386.888 166.262ZM451.774 165.293C451.617 165.293 451.461 165.23 451.346 165.105C450.311 163.981 449.209 162.893 448.069 161.87C447.83 161.655 447.81 161.286 448.025 161.047C448.241 160.807 448.608 160.788 448.847 161.003C450.014 162.05 451.143 163.165 452.203 164.315C452.42 164.552 452.406 164.921 452.169 165.139C452.058 165.242 451.916 165.293 451.774 165.293ZM432.921 164.06C432.851 164.06 432.781 164.047 432.712 164.021C432.411 163.906 432.262 163.568 432.377 163.268C432.923 161.848 433.413 160.378 433.831 158.897C433.919 158.588 434.242 158.405 434.55 158.496C434.859 158.583 435.04 158.905 434.952 159.214C434.524 160.729 434.023 162.234 433.464 163.686C433.376 163.918 433.155 164.06 432.921 164.06ZM395 157.96C394.824 157.96 394.649 157.881 394.534 157.728C394.34 157.472 394.391 157.106 394.649 156.912C395.899 155.968 397.222 155.084 398.578 154.287C398.855 154.124 399.214 154.217 399.376 154.495C399.539 154.773 399.446 155.13 399.169 155.293C397.851 156.067 396.566 156.924 395.351 157.843C395.246 157.922 395.122 157.96 395 157.96ZM442.942 157.733C442.83 157.733 442.718 157.701 442.618 157.635C441.337 156.779 440.009 155.982 438.673 155.263C438.39 155.11 438.283 154.757 438.435 154.474C438.587 154.19 438.943 154.084 439.223 154.236C440.593 154.973 441.953 155.79 443.264 156.666C443.533 156.845 443.604 157.207 443.426 157.475C443.313 157.641 443.129 157.733 442.942 157.733ZM435.833 152.8C435.806 152.8 435.778 152.798 435.751 152.794C435.432 152.749 435.211 152.454 435.255 152.135C435.467 150.623 435.614 149.08 435.69 147.55C435.705 147.229 435.944 146.982 436.301 146.997C436.622 147.013 436.869 147.287 436.853 147.608C436.776 149.173 436.625 150.752 436.408 152.299C436.368 152.59 436.118 152.8 435.833 152.8ZM432.566 152.491C432.501 152.491 432.435 152.48 432.37 152.456C430.919 151.939 429.437 151.495 427.966 151.138C427.653 151.063 427.461 150.747 427.537 150.435C427.613 150.122 427.925 149.928 428.242 150.006C429.753 150.373 431.273 150.829 432.762 151.36C433.064 151.469 433.222 151.802 433.114 152.105C433.029 152.341 432.805 152.491 432.566 152.491ZM405.181 152.373C404.944 152.373 404.722 152.228 404.634 151.993C404.522 151.692 404.676 151.356 404.978 151.244C406.461 150.692 407.982 150.227 409.5 149.861C409.813 149.782 410.127 149.978 410.203 150.291C410.277 150.604 410.086 150.918 409.772 150.994C408.299 151.348 406.823 151.8 405.383 152.336C405.317 152.36 405.249 152.373 405.181 152.373ZM421.206 150.075C421.191 150.075 421.178 150.074 421.164 150.073C419.633 149.965 418.099 149.946 416.574 150.019C416.246 150.036 415.979 149.785 415.965 149.464C415.949 149.143 416.197 148.87 416.52 148.854C418.093 148.781 419.671 148.801 421.246 148.912C421.567 148.933 421.81 149.213 421.787 149.534C421.765 149.84 421.508 150.075 421.206 150.075ZM436.134 141.175C435.837 141.175 435.583 140.949 435.555 140.646C435.412 139.097 435.191 137.565 434.899 136.093C434.836 135.777 435.041 135.471 435.357 135.408C435.677 135.345 435.979 135.551 436.042 135.866C436.343 137.377 436.569 138.95 436.717 140.538C436.747 140.859 436.511 141.143 436.19 141.173C436.171 141.175 436.153 141.175 436.134 141.175ZM362.694 134.814C362.55 134.814 362.407 134.762 362.294 134.656C362.059 134.436 362.049 134.067 362.268 133.832C363.334 132.699 364.418 131.575 365.519 130.468C365.747 130.242 366.116 130.24 366.344 130.467C366.571 130.694 366.572 131.063 366.345 131.291C365.25 132.39 364.175 133.506 363.117 134.631C363.004 134.753 362.849 134.814 362.694 134.814ZM433.523 129.857C433.291 129.857 433.071 129.717 432.98 129.487C432.41 128.038 431.753 126.646 431.022 125.352C430.864 125.071 430.963 124.716 431.243 124.558C431.523 124.401 431.878 124.497 432.037 124.78C432.793 126.121 433.475 127.562 434.065 129.061C434.182 129.361 434.034 129.699 433.735 129.816C433.666 129.844 433.593 129.857 433.523 129.857ZM371.001 126.645C370.841 126.645 370.682 126.579 370.566 126.451C370.352 126.211 370.373 125.843 370.612 125.628C371.814 124.555 373.016 123.533 374.186 122.59C374.437 122.388 374.805 122.427 375.006 122.678C375.208 122.929 375.169 123.295 374.918 123.497C373.763 124.427 372.576 125.437 371.389 126.497C371.278 126.596 371.139 126.645 371.001 126.645ZM427.407 120.022C427.252 120.022 427.098 119.961 426.983 119.839C426.574 119.406 426.148 118.986 425.706 118.579C425.034 117.962 424.317 117.373 423.576 116.827C423.317 116.637 423.26 116.273 423.451 116.013C423.643 115.753 424.01 115.699 424.266 115.888C425.043 116.458 425.793 117.075 426.495 117.721C426.957 118.145 427.403 118.586 427.831 119.039C428.052 119.273 428.042 119.642 427.809 119.862C427.695 119.969 427.55 120.022 427.407 120.022ZM380.188 119.49C379.998 119.49 379.813 119.397 379.701 119.228C379.524 118.959 379.598 118.598 379.867 118.42C381.201 117.539 382.555 116.717 383.888 115.978C384.169 115.821 384.524 115.923 384.68 116.205C384.836 116.487 384.734 116.841 384.453 116.997C383.145 117.723 381.818 118.528 380.508 119.394C380.409 119.459 380.298 119.49 380.188 119.49ZM390.487 114.091C390.253 114.091 390.034 113.95 389.944 113.72C389.827 113.42 389.976 113.082 390.275 112.965C390.73 112.789 391.187 112.617 391.647 112.454C392.664 112.093 393.712 111.768 394.762 111.487C395.069 111.402 395.393 111.589 395.475 111.899C395.557 112.21 395.373 112.529 395.063 112.612C394.042 112.884 393.024 113.2 392.037 113.551C391.587 113.71 391.142 113.877 390.699 114.049C390.629 114.078 390.558 114.091 390.487 114.091ZM417.814 113.572C417.742 113.572 417.67 113.559 417.598 113.531C416.21 112.978 414.742 112.518 413.237 112.165C412.924 112.091 412.729 111.778 412.804 111.464C412.877 111.153 413.189 110.958 413.504 111.03C415.065 111.396 416.588 111.874 418.031 112.449C418.329 112.567 418.475 112.906 418.356 113.205C418.265 113.434 418.045 113.572 417.814 113.572ZM401.789 111.419C401.49 111.419 401.236 111.19 401.209 110.887C401.181 110.566 401.418 110.284 401.738 110.255C403.318 110.116 404.904 110.067 406.466 110.119C406.788 110.13 407.039 110.399 407.029 110.72C407.018 111.043 406.722 111.312 406.428 111.283C404.911 111.236 403.373 111.281 401.84 111.416C401.823 111.419 401.807 111.419 401.789 111.419Z" fill="#A78BEF"/>
<path d="M211.08 309.525H64.413C62.6776 309.525 60.9685 308.118 60.5959 306.381L38.3654 202.821C37.9929 201.086 39.0983 199.679 40.8337 199.679H187.5C189.235 199.679 190.944 201.086 191.317 202.821L213.547 306.381C213.92 308.117 212.816 309.525 211.08 309.525Z" fill="url(#paint0_linear_649_11557)"/>
<path d="M209.542 305.996H64.8902C64.2892 305.996 63.6978 305.509 63.5686 304.908L41.7336 203.193C41.6044 202.592 41.9876 202.105 42.5877 202.105H187.24C187.841 202.105 188.432 202.592 188.561 203.193L210.397 304.908C210.526 305.508 210.143 305.996 209.542 305.996Z" fill="url(#paint1_linear_649_11557)"/>
<path d="M251.437 317.856H70.506C66.413 317.856 63.0941 314.538 63.0941 310.444C63.0941 309.936 63.5062 309.524 64.0141 309.524H257.929C258.437 309.524 258.849 309.936 258.849 310.444C258.849 314.538 255.531 317.856 251.437 317.856Z" fill="url(#paint2_linear_649_11557)"/>
<path d="M314.349 309.525H461.016C462.751 309.525 464.46 308.118 464.833 306.381L487.063 202.821C487.436 201.086 486.331 199.679 484.595 199.679H337.93C336.194 199.679 334.485 201.086 334.112 202.821L311.882 306.381C311.509 308.117 312.614 309.525 314.349 309.525Z" fill="url(#paint3_linear_649_11557)"/>
<path d="M315.887 305.996H460.539C461.14 305.996 461.732 305.509 461.861 304.908L483.696 203.193C483.825 202.592 483.442 202.105 482.842 202.105H338.189C337.588 202.105 336.996 202.592 336.867 203.193L315.032 304.908C314.904 305.508 315.286 305.996 315.887 305.996Z" fill="url(#paint4_linear_649_11557)"/>
<path d="M292.365 317.856H463.747C467.735 317.856 470.968 314.623 470.968 310.635V310.42C470.968 309.925 470.566 309.524 470.072 309.524H286.04C285.544 309.524 285.144 309.925 285.144 310.42V310.635C285.144 314.623 288.377 317.856 292.365 317.856Z" fill="url(#paint5_linear_649_11557)"/>
<mask id="mask0_649_11557" style="mask-type:luminance" maskUnits="userSpaceOnUse" x="15" y="110" width="491" height="196">
<path d="M63.3012 306H462.042L506 120.14L15 110L63.3012 306Z" fill="white"/>
</mask>
<g mask="url(#mask0_649_11557)">
<path d="M409.339 271.03C409.339 286.283 421.708 298.652 436.961 298.652C442.359 298.652 447.411 297.092 451.663 294.4L460.153 307.901C453.43 312.139 445.478 314.582 436.961 314.582C412.9 314.582 393.408 295.077 393.408 271.029C393.408 246.968 412.899 227.476 436.961 227.476C453.802 227.476 468.407 237.028 475.655 251.012L461.478 258.342C456.895 249.466 447.632 243.406 436.961 243.406C421.708 243.408 409.339 255.776 409.339 271.03Z" fill="#E527BB"/>
<path d="M480.514 271.03C480.514 286.56 472.383 300.185 460.153 307.902L451.663 294.401C459.421 289.515 464.57 280.872 464.57 271.03C464.57 266.461 463.451 262.14 461.478 258.344L475.655 251.014C478.761 257.005 480.514 263.811 480.514 271.03Z" fill="#A78BEF"/>
<path d="M436.955 292.628C448.883 292.628 458.553 282.958 458.553 271.03C458.553 259.102 448.883 249.432 436.955 249.432C425.027 249.432 415.357 259.102 415.357 271.03C415.357 282.958 425.027 292.628 436.955 292.628Z" fill="url(#paint6_linear_649_11557)"/>
<path d="M436.955 289.189C446.984 289.189 455.114 281.059 455.114 271.03C455.114 261.001 446.984 252.871 436.955 252.871C426.926 252.871 418.796 261.001 418.796 271.03C418.796 281.059 426.926 289.189 436.955 289.189Z" fill="url(#paint7_linear_649_11557)"/>
<path d="M430.478 282.793L445.387 260.96H449.099L434.19 282.793H430.478ZM432.38 272.75C431.32 272.75 430.384 272.511 429.573 272.032C428.762 271.533 428.118 270.837 427.639 269.943C427.182 269.028 426.953 267.957 426.953 266.73C426.953 265.503 427.182 264.443 427.639 263.548C428.118 262.654 428.762 261.958 429.573 261.459C430.384 260.96 431.32 260.71 432.38 260.71C433.441 260.71 434.377 260.96 435.188 261.459C435.999 261.958 436.633 262.654 437.09 263.548C437.548 264.443 437.776 265.503 437.776 266.73C437.776 267.957 437.548 269.028 437.09 269.943C436.633 270.837 435.999 271.533 435.188 272.032C434.377 272.511 433.441 272.75 432.38 272.75ZM432.38 270.192C433.067 270.192 433.618 269.911 434.034 269.35C434.449 268.768 434.657 267.894 434.657 266.73C434.657 265.565 434.449 264.702 434.034 264.141C433.618 263.559 433.067 263.268 432.38 263.268C431.715 263.268 431.164 263.559 430.727 264.141C430.311 264.702 430.104 265.565 430.104 266.73C430.104 267.874 430.311 268.737 430.727 269.319C431.164 269.901 431.715 270.192 432.38 270.192ZM447.196 283.043C446.156 283.043 445.221 282.804 444.389 282.325C443.578 281.826 442.944 281.13 442.486 280.236C442.029 279.321 441.8 278.25 441.8 277.023C441.8 275.796 442.029 274.736 442.486 273.841C442.944 272.947 443.578 272.251 444.389 271.752C445.221 271.253 446.156 271.003 447.196 271.003C448.277 271.003 449.224 271.253 450.035 271.752C450.845 272.251 451.48 272.947 451.937 273.841C452.395 274.736 452.623 275.796 452.623 277.023C452.623 278.25 452.395 279.321 451.937 280.236C451.48 281.13 450.845 281.826 450.035 282.325C449.224 282.804 448.277 283.043 447.196 283.043ZM447.196 280.485C447.882 280.485 448.433 280.204 448.849 279.643C449.265 279.061 449.473 278.187 449.473 277.023C449.473 275.879 449.265 275.016 448.849 274.434C448.433 273.852 447.882 273.561 447.196 273.561C446.531 273.561 445.98 273.852 445.543 274.434C445.127 274.995 444.919 275.858 444.919 277.023C444.919 278.187 445.127 279.061 445.543 279.643C445.98 280.204 446.531 280.485 447.196 280.485Z" fill="#FFC431"/>
</g>
<path d="M146.972 309.923H96.6715L102.186 258.959H141.457L146.972 309.923Z" fill="#E527BB"/>
<path d="M130.205 266.644C129.737 266.644 129.359 266.266 129.359 265.799V251.371C129.359 247.214 125.978 243.833 121.822 243.833C117.666 243.833 114.284 247.214 114.284 251.371V265.799C114.284 266.266 113.906 266.644 113.439 266.644C112.971 266.644 112.594 266.266 112.594 265.799V251.371C112.594 246.281 116.734 242.142 121.823 242.142C126.912 242.142 131.052 246.282 131.052 251.371V265.799C131.051 266.266 130.672 266.644 130.205 266.644Z" fill="#E527BB"/>
<path d="M107.754 319.31H57.4537L62.9685 268.347H102.239L107.754 319.31Z" fill="#A78BEF"/>
<path d="M90.987 276.032C90.5195 276.032 90.1417 275.653 90.1417 275.187V260.758C90.1417 256.602 86.7604 253.221 82.6041 253.221C78.4478 253.221 75.0665 256.602 75.0665 260.758V275.187C75.0665 275.653 74.6887 276.032 74.2212 276.032C73.7537 276.032 73.375 275.653 73.375 275.187V260.758C73.375 255.669 77.5155 251.529 82.6041 251.529C87.6936 251.529 91.8332 255.67 91.8332 260.758V275.187C91.8332 275.653 91.4544 276.032 90.987 276.032Z" fill="#A78BEF"/>
<path d="M324.165 169.833C319.511 176.293 304.537 200.499 299.602 203.325C294.666 206.15 259.334 229.805 259.334 229.805C259.334 229.805 261.789 235.344 263.412 236.512C269.653 235.498 302.05 220.204 308.501 216.333C314.951 212.462 340.165 178.57 340.165 178.57L324.165 169.833Z" fill="url(#paint8_linear_649_11557)"/>
<path d="M332.696 258.473C338.569 258.473 384.486 256.263 384.486 256.263L376.081 331.039L352.323 332.789L349.822 309.032L340.069 332.789L315.812 329.289C315.812 329.289 326.072 273.435 332.696 258.473Z" fill="black"/>
<path d="M387.15 207.422C387.15 207.422 396.04 227.264 396.04 229.646C396.04 232.027 391.3 266.479 390.109 267.67C387.728 269.181 378.25 272.983 377.654 274.609C377.059 276.237 378.29 277.625 378.29 277.625C375.711 279.292 368.964 284.331 370.155 285.522C370.979 286.346 371.537 286.638 371.802 286.739C371.92 286.784 371.981 286.792 371.981 286.792C371.981 286.792 370.274 290.006 373.37 289.569C373.687 291.394 375.116 291.197 376.267 290.681C377.418 290.165 378.727 289.133 378.727 289.133C378.727 290.84 379.839 291.753 382.14 289.848C384.442 287.943 388.529 284.888 390.474 283.3C392.418 281.713 395.99 273.854 397.221 270.957C398.451 268.06 406.399 244.188 407.827 239.02C409.256 233.851 411.121 231.726 409.693 226.796C408.264 221.867 400.962 200.913 400.962 200.913L387.15 207.422Z" fill="url(#paint9_linear_649_11557)"/>
<path d="M378.959 278.179C378.788 278.179 378.616 278.154 378.445 278.095C377.983 277.934 377.598 277.531 377.391 276.984C377.219 276.528 377.186 276.056 377.153 275.599C377.142 275.438 377.263 275.299 377.424 275.288C377.573 275.259 377.724 275.396 377.735 275.557C377.765 275.973 377.795 276.402 377.937 276.779C378.08 277.157 378.342 277.443 378.636 277.545C379.026 277.678 379.488 277.526 379.932 277.339C381.175 276.817 382.352 276.143 383.43 275.335C383.558 275.241 383.741 275.263 383.838 275.394C383.934 275.522 383.908 275.705 383.779 275.802C382.663 276.637 381.445 277.335 380.159 277.876C379.771 278.039 379.366 278.179 378.959 278.179Z" fill="#E07E58"/>
<path d="M372.034 286.977C372.001 286.977 371.967 286.976 371.933 286.972C371.349 286.916 370.804 286.499 370.546 285.907C370.336 285.421 370.308 284.823 370.471 284.221C370.513 284.067 370.672 283.975 370.828 284.016C370.983 284.059 371.075 284.218 371.033 284.374C370.906 284.849 370.923 285.311 371.081 285.676C371.253 286.07 371.618 286.358 371.988 286.393C372.321 286.416 372.72 286.088 373.044 285.816L374.06 284.994C376.201 283.27 377.749 282.024 379.835 280.123C379.954 280.015 380.139 280.023 380.247 280.142C380.355 280.261 380.347 280.445 380.228 280.553C378.129 282.467 376.494 283.784 374.425 285.448L373.417 286.264C373.034 286.581 372.561 286.977 372.034 286.977Z" fill="#E07E58"/>
<path d="M373.059 289.785C372.578 289.785 372.134 289.611 371.841 289.29C371.233 288.623 371.425 287.621 371.806 286.904C371.883 286.762 372.06 286.711 372.201 286.784C372.343 286.861 372.397 287.037 372.321 287.179C372.046 287.695 371.868 288.453 372.271 288.898C372.574 289.229 373.108 289.255 373.504 289.134C373.961 288.995 374.363 288.686 374.802 288.327C377.049 286.488 379.218 284.479 381.316 282.535L381.73 282.946C379.608 284.913 377.431 286.929 375.171 288.778C374.682 289.178 374.233 289.522 373.674 289.692C373.467 289.754 373.259 289.785 373.059 289.785Z" fill="#E07E58"/>
<path d="M374.849 291.166C374.742 291.166 374.636 291.158 374.529 291.141C373.979 291.05 373.384 290.625 373.311 289.988C373.292 289.828 373.407 289.683 373.567 289.665C373.717 289.646 373.871 289.761 373.89 289.921C373.929 290.267 374.298 290.511 374.623 290.565C375.04 290.637 375.481 290.492 375.856 290.345C377.108 289.855 378.317 289.06 379.554 287.915C380.135 287.378 380.789 286.901 381.484 286.395C382.166 285.899 382.871 285.387 383.629 284.735C383.752 284.629 383.935 284.643 384.039 284.765C384.144 284.888 384.13 285.071 384.008 285.176C383.232 285.843 382.485 286.387 381.825 286.865C381.146 287.36 380.504 287.827 379.949 288.342C378.659 289.538 377.389 290.37 376.069 290.886C375.706 291.03 375.288 291.166 374.849 291.166Z" fill="#E07E58"/>
<path d="M379.96 290.964C379.854 290.964 379.747 290.95 379.641 290.92C379 290.738 378.717 290.087 378.524 289.473C378.477 289.32 378.562 289.156 378.716 289.108C378.87 289.061 379.033 289.146 379.081 289.298C379.227 289.763 379.427 290.253 379.801 290.359C380.086 290.439 380.416 290.286 380.733 290.109C382.355 289.207 383.803 287.988 385.203 286.808L387.276 285.064C387.4 284.961 387.585 284.978 387.687 285.099C387.791 285.222 387.775 285.407 387.652 285.509L385.579 287.254C384.158 288.451 382.688 289.689 381.016 290.619C380.697 290.796 380.335 290.964 379.96 290.964Z" fill="#E07E58"/>
<path d="M348.472 156.35C340.873 157.017 330.733 159.651 322.48 167.904C314.227 176.157 309.076 188.042 307.576 193.211C307.576 193.211 316.856 202.748 322.025 202.748L332.484 193.579C330.983 205.249 329.954 258.241 330.621 264.076C330.621 264.076 374.998 259.6 384.334 261.267C385.501 252.431 380 195.58 380 195.58L386.168 209.585C386.168 209.585 400.006 207.084 402.34 202.249C403.507 195.081 395.088 174.491 388.836 168.239C382.584 161.987 366.196 157.685 366.196 157.685C365.276 158.605 361.642 162.32 354.867 162.32C351.638 162.319 348.99 158.421 348.472 156.35Z" fill="#A78BEF"/>
<path d="M331.963 210.796C331.959 210.796 331.955 210.796 331.951 210.796C331.709 210.789 331.519 210.587 331.526 210.346L331.845 199.229C331.895 197.476 331.946 195.719 332.049 193.989C332.303 189.735 332.888 185.466 333.786 181.3C333.837 181.064 334.07 180.917 334.305 180.965C334.54 181.016 334.691 181.249 334.64 181.485C333.75 185.607 333.173 189.832 332.921 194.041C332.817 195.757 332.767 197.508 332.719 199.2L332.4 210.37C332.393 210.608 332.199 210.796 331.963 210.796Z" fill="#9068F4"/>
<path d="M386.809 209.991C386.651 209.991 386.498 209.906 386.421 209.755C382.568 202.345 379.212 194.592 376.445 186.711C376.365 186.484 376.485 186.234 376.713 186.154C376.94 186.076 377.19 186.194 377.27 186.422C380.023 194.264 383.363 201.978 387.196 209.352C387.308 209.565 387.224 209.83 387.01 209.942C386.947 209.975 386.877 209.991 386.809 209.991Z" fill="#8357F3"/>
<path d="M366.465 145.397C365.643 149.491 367.236 159.189 367.236 159.189C359.132 170.259 347.776 162.225 347.776 162.225C349.214 159.796 350.029 147.35 350.029 147.35L366.465 145.397Z" fill="url(#paint10_linear_649_11557)"/>
<path d="M345.037 112.52C338.888 112.109 336.625 124.392 344.9 125.871C353.174 127.349 354.127 113.126 345.037 112.52Z" fill="black"/>
<path d="M354.506 112.029C340.812 111.889 339.082 147.086 352.327 152.896C365.57 158.705 373.272 132.568 371.209 123.939C369.145 115.31 364.483 112.131 354.506 112.029Z" fill="url(#paint11_linear_649_11557)"/>
<path d="M352.536 118.026C348.905 121.584 343.342 120.353 341.053 114.533C338.765 108.713 348.85 101.811 355.566 108.666C359.331 106.356 362.418 109.507 363.615 110.729C367.665 109.303 371.364 113.523 370.465 115.275C374.719 115.318 374.364 136.226 366.86 145.099C367.719 139.824 364.127 137.122 364.127 137.122C366.609 134.69 367.123 125.133 362.34 127.663C361.011 128.367 360.84 130.876 360.84 130.876L359.3 130.86C359.3 130.86 360.757 124.713 359.543 121.398C358.332 118.085 355.695 117.691 352.536 118.026Z" fill="black"/>
<path d="M249.922 227.53C248.678 226.288 247.296 226.414 245.453 227.279C243.609 228.145 242.111 228.642 240.575 228.642C239.039 228.642 234.938 226.491 234.938 226.491L232.333 232.514C232.333 232.514 243.833 239.989 245.397 241.05C246.961 242.112 249.141 244.822 250.341 245.072C251.542 245.323 259.447 241.972 259.307 238.536C258.944 237.447 256.193 234.863 255.034 233.704C253.875 232.545 252.828 231.638 252.129 231.218C251.43 230.799 249.922 227.53 249.922 227.53Z" fill="url(#paint12_linear_649_11557)"/>
<path d="M250.256 226.497C248.315 226.625 245.591 228.871 245.591 230.24C245.591 231.608 245.48 234.263 246.988 234.263C248.495 234.263 248.58 231.693 249.25 231.023C249.921 230.352 252.937 231.386 254.139 233.006C255.34 234.627 259.306 238.537 259.306 238.537C259.306 238.537 266.448 235.89 268.834 234.798C268.834 234.435 263.702 226.887 263.702 226.887C258.369 229.244 252.799 226.33 250.256 226.497Z" fill="url(#paint13_linear_649_11557)"/>
<path d="M240.033 237.242C238.924 237.544 237.993 239.532 239.334 239.895C240.675 240.258 242.099 238.779 241.457 237.857C240.815 236.935 240.648 237.075 240.033 237.242Z" fill="url(#paint14_linear_649_11557)"/>
<path d="M242.024 238.955C240.725 239.183 240.621 241.511 242.024 242.454C243.427 243.397 247.059 245.603 248.225 245.086C249.391 244.57 250.341 244.13 249.734 243.166C249.126 242.202 244.412 238.536 242.024 238.955Z" fill="url(#paint15_linear_649_11557)"/>
<path d="M258.123 240.805C258.079 240.805 258.034 240.793 257.994 240.768C255.591 239.279 253.438 237.287 251.767 235.008C251.687 234.899 251.711 234.745 251.82 234.665C251.93 234.585 252.083 234.609 252.162 234.718C253.797 236.947 255.902 238.895 258.252 240.351C258.367 240.423 258.402 240.574 258.331 240.689C258.285 240.764 258.205 240.805 258.123 240.805Z" fill="#E07E58"/>
<path d="M256.08 242.488C256.038 242.488 255.994 242.478 255.955 242.454C253.814 241.193 251.894 239.505 250.405 237.572C250.322 237.465 250.342 237.311 250.45 237.228C250.557 237.146 250.711 237.166 250.793 237.273C252.245 239.156 254.116 240.802 256.204 242.031C256.321 242.1 256.36 242.25 256.291 242.367C256.246 242.445 256.164 242.488 256.08 242.488Z" fill="#E07E58"/>
<path d="M253.83 243.917C253.79 243.917 253.749 243.908 253.712 243.887C251.899 242.88 250.274 241.534 249.012 239.993C248.926 239.888 248.942 239.734 249.047 239.648C249.151 239.562 249.306 239.577 249.392 239.682C250.614 241.176 252.191 242.481 253.949 243.458C254.067 243.524 254.111 243.673 254.045 243.791C254 243.872 253.916 243.917 253.83 243.917Z" fill="#E07E58"/>
<path d="M247.863 244.423C247.838 244.423 247.813 244.42 247.788 244.412C247.659 244.371 247.588 244.233 247.629 244.103C247.791 243.599 247.876 243.075 247.882 242.546C247.885 242.352 247.877 242.128 247.8 241.939C247.732 241.77 247.605 241.642 247.47 241.606C247.316 241.566 247.113 241.636 246.954 241.786C246.799 241.932 246.686 242.129 246.568 242.338L246.533 242.399C246.393 242.643 246.221 242.921 245.96 243.111C245.908 243.147 245.771 243.234 245.612 243.205C245.523 243.19 245.445 243.141 245.394 243.068C245.306 242.944 245.334 242.802 245.344 242.756C245.4 242.466 245.521 242.205 245.637 241.953C245.701 241.814 245.763 241.682 245.813 241.547C245.868 241.399 246.027 240.893 245.779 240.586C245.64 240.415 245.377 240.333 245.125 240.381C244.886 240.428 244.648 240.582 244.456 240.817C244.259 241.056 244.125 241.353 244.019 241.611L243.998 241.665C243.901 241.91 243.791 242.188 243.559 242.235C243.451 242.258 243.342 242.223 243.258 242.14L243.228 242.11L243.211 242.072C243.162 241.969 243.175 241.856 243.228 241.478C243.279 241.125 243.348 240.64 243.305 240.338C243.228 239.794 242.971 239.343 242.603 239.1C242.489 239.025 242.459 238.873 242.533 238.76C242.608 238.647 242.76 238.616 242.873 238.69C243.359 239.01 243.693 239.585 243.791 240.269C243.818 240.465 243.811 240.704 243.79 240.941C243.871 240.792 243.965 240.642 244.078 240.504C244.343 240.182 244.682 239.967 245.032 239.899C245.464 239.814 245.907 239.963 246.161 240.275C246.444 240.623 246.485 241.148 246.274 241.716C246.218 241.869 246.149 242.016 246.083 242.158C246.056 242.216 246.03 242.273 246.005 242.329C246.042 242.271 246.076 242.212 246.111 242.154L246.145 242.094C246.277 241.863 246.413 241.625 246.622 241.428C246.91 241.156 247.275 241.046 247.599 241.131C247.886 241.206 248.133 241.439 248.259 241.755C248.368 242.024 248.379 242.308 248.377 242.552C248.37 243.13 248.277 243.702 248.1 244.252C248.062 244.357 247.966 244.423 247.863 244.423Z" fill="#E07E58"/>
<path d="M259.089 238.58C259.024 238.58 258.958 238.554 258.91 238.503L254.843 234.157C254.25 233.522 253.636 232.867 252.952 232.323C252.198 231.724 251.437 231.332 250.691 231.157C250.336 231.074 249.683 230.989 249.281 231.352C249.019 231.588 248.916 231.961 248.807 232.356C248.767 232.5 248.726 232.648 248.677 232.792C248.437 233.487 247.97 234.099 247.364 234.514C247.252 234.591 247.1 234.563 247.023 234.451C246.946 234.34 246.975 234.187 247.086 234.11C247.606 233.753 248.006 233.229 248.213 232.632C248.257 232.503 248.294 232.369 248.334 232.226C248.457 231.781 248.584 231.32 248.953 230.988C249.373 230.609 250.03 230.5 250.802 230.68C251.619 230.87 252.445 231.295 253.256 231.939C253.969 232.505 254.596 233.174 255.201 233.822L259.268 238.168C259.36 238.267 259.356 238.422 259.256 238.514C259.21 238.558 259.149 238.58 259.089 238.58Z" fill="#E07E58"/>
<path d="M110.877 145.052C110.149 150.022 110.642 155.414 108.05 159.717C106.152 162.869 102.734 165.142 101.762 168.692C100.608 172.906 103.333 177.181 103.53 181.545C103.839 188.395 97.9301 194.661 99.1717 201.403C100.56 208.944 110.011 212.613 112.183 219.967C113.168 223.3 112.531 227.089 114.206 230.133C115.52 232.524 118.014 233.988 119.871 235.987C122.251 238.551 123.533 241.935 125.596 244.76C127.659 247.586 131.122 249.96 134.484 248.996C138.334 247.892 139.781 243.283 140.492 239.342C146.862 204.037 142.719 167.373 132.373 133.021C130.287 126.094 124.729 122.098 119.005 127.535C114.331 131.976 111.813 138.663 110.877 145.052Z" fill="black"/>
<path d="M160.903 120.355C162.661 121.021 164.463 121.88 165.522 123.435C167.321 126.077 166.448 129.905 168.281 132.523C168.983 133.525 170.013 134.24 170.891 135.092C173.913 138.02 175.005 142.774 173.564 146.727C173.246 147.598 172.817 148.433 172.6 149.335C171.978 151.92 173.172 154.553 174.26 156.979C175.349 159.404 176.373 162.166 175.431 164.652C174.823 166.257 173.47 167.495 172.871 169.103C172.224 170.844 172.465 172.983 171.209 174.352C170.714 174.89 170.045 175.23 169.385 175.546C167.633 176.381 165.798 177.128 163.864 177.291C162.449 177.41 161.028 177.213 159.622 177.016C157.48 176.716 155.337 176.416 153.194 176.116C152.393 176.004 151.564 175.882 150.878 175.453C149.831 174.798 149.317 173.565 148.94 172.389C145.637 162.091 148.084 150.894 147.041 140.129C146.68 136.4 145.897 132.706 145.851 128.961C145.814 125.95 146.26 120.2 149.142 118.336C150.51 117.45 152.686 118.158 154.143 118.44C156.445 118.883 158.71 119.525 160.903 120.355Z" fill="url(#paint16_linear_649_11557)"/>
<path d="M140.631 149.63C144.2 157.291 144.619 171.144 144.619 171.144C144.619 171.144 159.941 174.187 159.941 173.557C159.941 172.927 157.633 163.902 157.107 157.501C156.635 157.029 140.631 149.63 140.631 149.63Z" fill="url(#paint17_linear_649_11557)"/>
<path d="M146.679 175.881C139.246 173.721 133.879 179.453 132.837 197.164C131.795 214.875 130.604 229.609 131.944 234.075C133.284 238.54 144.893 271.879 144.893 271.879L153.079 269.051C153.079 269.051 144.817 235.266 144.817 229.164C144.817 223.062 148.972 201.481 150.311 194.188C151.65 186.894 151.888 177.395 146.679 175.881Z" fill="#8F6AEC"/>
<path d="M143.326 168C146.422 169.675 159.117 169.898 159.117 169.898C163.945 179.498 172.133 183.218 175.555 192C180.685 205.16 167.407 236.204 169.974 247.589H137.9C141.472 236.501 130.756 198.476 133.435 186.233C136.115 173.991 143.326 168 143.326 168Z" fill="#A78BEF"/>
<path d="M140.056 245.163C132.625 251.001 128.078 260.784 128.224 281.106C128.262 286.429 128.892 309.964 129.402 318.166C131.858 357.681 131.796 401.773 131.796 401.773C136.261 403.113 144.075 401.773 144.075 401.773L160.393 299.852L187.386 401.253C192.521 401.253 198.995 398.872 198.995 398.872C198.995 398.872 191.851 335.803 189.172 321.069C186.493 306.335 189.395 270.168 170.419 247.396C164.613 247.395 140.056 245.163 140.056 245.163Z" fill="black"/>
<path d="M154.279 336.343C154.255 336.343 154.229 336.34 154.204 336.336C153.971 336.293 153.817 336.071 153.859 335.839C154.257 333.626 154.648 331.466 155.033 329.349C158.479 310.365 161.2 295.369 161.677 277.827C161.684 277.59 161.856 277.395 162.117 277.41C162.353 277.417 162.54 277.613 162.533 277.85C162.055 295.458 159.328 310.482 155.875 329.503C155.492 331.619 155.099 333.779 154.702 335.991C154.663 336.199 154.483 336.343 154.279 336.343Z" fill="#676360"/>
<path d="M172.782 224.687C172.742 224.687 172.702 224.682 172.662 224.669C172.434 224.603 172.305 224.365 172.372 224.138C173.756 219.44 175.187 214.582 175.95 209.663C176.797 204.196 176.685 199.248 175.614 194.956C174.433 190.209 172.01 185.843 168.605 182.327C168.442 182.158 168.446 181.887 168.615 181.723C168.783 181.558 169.056 181.562 169.22 181.732C172.729 185.355 175.227 189.857 176.446 194.749C177.542 199.152 177.659 204.214 176.795 209.794C176.024 214.768 174.584 219.655 173.192 224.379C173.137 224.566 172.967 224.687 172.782 224.687Z" fill="#9E86E0"/>
<path d="M156.375 183.359C168.459 190.817 191.572 210.385 195.383 211.814C200.146 213.601 236.149 226.063 236.149 226.063C236.149 226.063 234.415 232.014 233.149 233.279C227.494 233.279 195.643 227.069 189.392 224.577C184.723 222.716 155.57 207.894 144.12 199.992C136.016 194.398 136.779 183.721 141.663 180.566C146.45 177.472 149.727 179.256 156.375 183.359Z" fill="#8F6AEC"/>
<path d="M156.303 123.5C169.596 135.254 167.385 153.278 165.819 157.45C164.632 160.612 163.16 161.559 158.122 160.02C153.084 158.48 135.595 151.099 132.796 144.383C129.997 137.666 128.039 129.552 134.195 123.394C140.352 117.238 148.918 116.969 156.303 123.5Z" fill="url(#paint18_linear_649_11557)"/>
<path d="M158.657 117.904C153.695 115.102 146.34 113.903 140.631 114.094C135.111 114.277 133.684 116.195 132.471 117.071C130.465 118.517 129.619 121.202 127.569 122.586C126.345 123.412 124.853 123.668 123.417 124.049C122.104 126.438 121.031 128.959 120.243 131.578C118.744 136.561 118.22 141.779 118.708 146.961C119.192 152.086 120.933 157.13 123.167 161.741C126.847 169.332 129.335 177.715 134.155 184.614C135.149 181.555 139.249 177.043 141.23 174.508C142.098 173.398 143.057 172.344 143.734 171.108C146.523 166.022 143.858 159.849 142.856 154.135C142.579 152.551 142.439 150.895 142.899 149.353C143.731 146.567 146.386 144.568 147.043 141.735C147.441 140.02 147.114 138.015 148.256 136.675C149.927 134.713 153.076 137.143 155.634 136.828C158.001 136.538 163.895 135.219 164.605 131.861C165.789 126.258 162.762 120.22 158.657 117.904Z" fill="black"/>
<path d="M70.2063 219.967C81.4114 219.967 90.4949 210.884 90.4949 199.679C90.4949 188.474 81.4114 179.39 70.2063 179.39C59.0013 179.39 49.9178 188.474 49.9178 199.679C49.9178 210.884 59.0013 219.967 70.2063 219.967Z" fill="url(#paint19_linear_649_11557)"/>
<path d="M70.2064 216.738C79.6279 216.738 87.2656 209.1 87.2656 199.679C87.2656 190.257 79.6279 182.62 70.2064 182.62C60.7848 182.62 53.1471 190.257 53.1471 199.679C53.1471 209.1 60.7848 216.738 70.2064 216.738Z" fill="url(#paint20_linear_649_11557)"/>
<path d="M70.2429 215.683V188.14H73.173V215.683H70.2429ZM71.2977 212.519C69.6569 212.519 68.0844 212.304 66.5803 211.874C65.0762 211.425 63.8651 210.848 62.947 210.145L64.5585 206.571C65.4376 207.196 66.4729 207.713 67.6644 208.123C68.8755 208.514 70.0964 208.71 71.327 208.71C72.2646 208.71 73.0167 208.622 73.5832 208.446C74.1692 208.25 74.5989 207.987 74.8724 207.655C75.1459 207.323 75.2826 206.942 75.2826 206.512C75.2826 205.965 75.0677 205.535 74.638 205.223C74.2082 204.891 73.6418 204.627 72.9385 204.432C72.2353 204.217 71.454 204.021 70.5945 203.846C69.7545 203.65 68.9048 203.416 68.0453 203.142C67.2054 202.869 66.4338 202.517 65.7306 202.088C65.0274 201.658 64.4511 201.091 64.0018 200.388C63.5721 199.685 63.3572 198.786 63.3572 197.692C63.3572 196.52 63.6698 195.456 64.2948 194.499C64.9395 193.522 65.8966 192.75 67.1663 192.184C68.4555 191.598 70.0671 191.305 72.0009 191.305C73.2902 191.305 74.5599 191.461 75.81 191.774C77.0602 192.067 78.1638 192.516 79.121 193.122L77.656 196.726C76.6988 196.179 75.7416 195.778 74.7845 195.524C73.8273 195.251 72.8897 195.114 71.9716 195.114C71.0535 195.114 70.3015 195.221 69.7155 195.436C69.1295 195.651 68.7095 195.934 68.4555 196.286C68.2016 196.618 68.0746 197.009 68.0746 197.458C68.0746 197.985 68.2895 198.415 68.7192 198.747C69.149 199.06 69.7155 199.314 70.4187 199.509C71.1219 199.704 71.8935 199.9 72.7334 200.095C73.5929 200.29 74.4426 200.515 75.2826 200.769C76.1421 201.023 76.9234 201.365 77.6267 201.795C78.3299 202.224 78.8964 202.791 79.3261 203.494C79.7754 204.197 80 205.086 80 206.16C80 207.313 79.6777 208.368 79.0331 209.325C78.3885 210.282 77.4216 211.054 76.1323 211.64C74.8626 212.226 73.2511 212.519 71.2977 212.519Z" fill="#FFC431"/>
<path d="M424.386 166.685C435.771 166.685 445.001 157.455 445.001 146.069C445.001 134.684 435.771 125.454 424.386 125.454C413 125.454 403.77 134.684 403.77 146.069C403.77 157.455 413 166.685 424.386 166.685Z" fill="url(#paint21_linear_649_11557)"/>
<path d="M424.386 163.404C433.959 163.404 441.72 155.643 441.72 146.069C441.72 136.496 433.959 128.735 424.386 128.735C414.812 128.735 407.052 136.496 407.052 146.069C407.052 155.643 414.812 163.404 424.386 163.404Z" fill="url(#paint22_linear_649_11557)"/>
<path d="M413.425 150.547V148.046H429.472V150.547H413.425ZM413.425 146.438V143.937H429.472V146.438H413.425ZM427.596 158.02C425.969 158.02 424.46 157.762 423.071 157.246C421.701 156.71 420.51 155.955 419.498 154.983C418.486 154.01 417.702 152.869 417.146 151.559C416.59 150.249 416.313 148.81 416.313 147.242C416.313 145.674 416.59 144.235 417.146 142.925C417.702 141.615 418.486 140.474 419.498 139.501C420.51 138.529 421.701 137.784 423.071 137.268C424.46 136.732 425.969 136.464 427.596 136.464C429.403 136.464 431.04 136.782 432.509 137.417C433.978 138.032 435.198 138.945 436.171 140.156L433.104 143.014C432.39 142.201 431.596 141.595 430.722 141.198C429.849 140.781 428.886 140.573 427.835 140.573C426.862 140.573 425.969 140.732 425.155 141.049C424.341 141.367 423.637 141.823 423.041 142.419C422.446 143.014 421.979 143.719 421.642 144.533C421.324 145.347 421.165 146.25 421.165 147.242C421.165 148.234 421.324 149.138 421.642 149.951C421.979 150.765 422.446 151.47 423.041 152.065C423.637 152.661 424.341 153.117 425.155 153.435C425.969 153.752 426.862 153.911 427.835 153.911C428.886 153.911 429.849 153.713 430.722 153.316C431.596 152.899 432.39 152.274 433.104 151.44L436.171 154.298C435.198 155.509 433.978 156.432 432.509 157.067C431.04 157.702 429.403 158.02 427.596 158.02Z" fill="#FFC431"/>
<path d="M192.196 140.264C191.008 140.264 189.901 140.073 188.874 139.692C187.862 139.296 186.982 138.739 186.234 138.02C185.486 137.301 184.899 136.458 184.474 135.49C184.063 134.522 183.858 133.459 183.858 132.3C183.858 131.141 184.063 130.078 184.474 129.11C184.899 128.142 185.486 127.299 186.234 126.58C186.997 125.861 187.884 125.311 188.896 124.93C189.908 124.534 191.015 124.336 192.218 124.336C193.553 124.336 194.755 124.571 195.826 125.04C196.911 125.495 197.821 126.169 198.554 127.064L196.266 129.176C195.738 128.575 195.151 128.127 194.506 127.834C193.861 127.526 193.157 127.372 192.394 127.372C191.675 127.372 191.015 127.489 190.414 127.724C189.813 127.959 189.292 128.296 188.852 128.736C188.412 129.176 188.067 129.697 187.818 130.298C187.583 130.899 187.466 131.567 187.466 132.3C187.466 133.033 187.583 133.701 187.818 134.302C188.067 134.903 188.412 135.424 188.852 135.864C189.292 136.304 189.813 136.641 190.414 136.876C191.015 137.111 191.675 137.228 192.394 137.228C193.157 137.228 193.861 137.081 194.506 136.788C195.151 136.48 195.738 136.018 196.266 135.402L198.554 137.514C197.821 138.409 196.911 139.091 195.826 139.56C194.755 140.029 193.545 140.264 192.196 140.264ZM200.719 140V123.676H204.151V140H200.719ZM207.336 140V128.164H210.768V140H207.336ZM209.052 126.514C208.421 126.514 207.908 126.331 207.512 125.964C207.116 125.597 206.918 125.143 206.918 124.6C206.918 124.057 207.116 123.603 207.512 123.236C207.908 122.869 208.421 122.686 209.052 122.686C209.683 122.686 210.196 122.862 210.592 123.214C210.988 123.551 211.186 123.991 211.186 124.534C211.186 125.106 210.988 125.583 210.592 125.964C210.211 126.331 209.697 126.514 209.052 126.514ZM219.827 140.176C218.478 140.176 217.29 139.912 216.263 139.384C215.251 138.856 214.466 138.137 213.909 137.228C213.352 136.304 213.073 135.255 213.073 134.082C213.073 132.894 213.344 131.845 213.887 130.936C214.444 130.012 215.2 129.293 216.153 128.78C217.106 128.252 218.184 127.988 219.387 127.988C220.546 127.988 221.587 128.237 222.511 128.736C223.45 129.22 224.19 129.924 224.733 130.848C225.276 131.757 225.547 132.85 225.547 134.126C225.547 134.258 225.54 134.412 225.525 134.588C225.51 134.749 225.496 134.903 225.481 135.05H215.867V133.048H223.677L222.357 133.642C222.357 133.026 222.232 132.491 221.983 132.036C221.734 131.581 221.389 131.229 220.949 130.98C220.509 130.716 219.996 130.584 219.409 130.584C218.822 130.584 218.302 130.716 217.847 130.98C217.407 131.229 217.062 131.589 216.813 132.058C216.564 132.513 216.439 133.055 216.439 133.686V134.214C216.439 134.859 216.578 135.431 216.857 135.93C217.15 136.414 217.554 136.788 218.067 137.052C218.595 137.301 219.211 137.426 219.915 137.426C220.546 137.426 221.096 137.331 221.565 137.14C222.049 136.949 222.489 136.663 222.885 136.282L224.711 138.262C224.168 138.878 223.486 139.355 222.665 139.692C221.844 140.015 220.898 140.176 219.827 140.176ZM235.026 127.988C235.965 127.988 236.801 128.179 237.534 128.56C238.282 128.927 238.869 129.499 239.294 130.276C239.719 131.039 239.932 132.021 239.932 133.224V140H236.5V133.752C236.5 132.799 236.287 132.095 235.862 131.64C235.451 131.185 234.865 130.958 234.102 130.958C233.559 130.958 233.068 131.075 232.628 131.31C232.203 131.53 231.865 131.875 231.616 132.344C231.381 132.813 231.264 133.415 231.264 134.148V140H227.832V128.164H231.11V131.442L230.494 130.452C230.919 129.66 231.528 129.051 232.32 128.626C233.112 128.201 234.014 127.988 235.026 127.988ZM247.883 140.176C246.49 140.176 245.404 139.824 244.627 139.12C243.85 138.401 243.461 137.338 243.461 135.93V125.546H246.893V135.886C246.893 136.385 247.025 136.773 247.289 137.052C247.553 137.316 247.912 137.448 248.367 137.448C248.91 137.448 249.372 137.301 249.753 137.008L250.677 139.428C250.325 139.677 249.9 139.868 249.401 140C248.917 140.117 248.411 140.176 247.883 140.176ZM241.635 131.068V128.428H249.841V131.068H241.635ZM262.266 140V127.504H257.338V124.6H270.758V127.504H265.83V140H262.266ZM272.176 140V128.164H275.454V131.508L274.992 130.54C275.344 129.704 275.908 129.073 276.686 128.648C277.463 128.208 278.409 127.988 279.524 127.988V131.156C279.377 131.141 279.245 131.134 279.128 131.134C279.01 131.119 278.886 131.112 278.754 131.112C277.815 131.112 277.052 131.383 276.466 131.926C275.894 132.454 275.608 133.283 275.608 134.412V140H272.176ZM286.644 140.176C285.662 140.176 284.782 139.985 284.004 139.604C283.242 139.223 282.648 138.643 282.222 137.866C281.797 137.074 281.584 136.069 281.584 134.852V128.164H285.016V134.346C285.016 135.329 285.222 136.055 285.632 136.524C286.058 136.979 286.652 137.206 287.414 137.206C287.942 137.206 288.412 137.096 288.822 136.876C289.233 136.641 289.556 136.289 289.79 135.82C290.025 135.336 290.142 134.735 290.142 134.016V128.164H293.574V140H290.318V136.744L290.912 137.69C290.516 138.511 289.93 139.135 289.152 139.56C288.39 139.971 287.554 140.176 286.644 140.176ZM300.736 140.176C299.724 140.176 298.749 140.059 297.81 139.824C296.886 139.575 296.153 139.267 295.61 138.9L296.754 136.436C297.297 136.773 297.935 137.052 298.668 137.272C299.416 137.477 300.149 137.58 300.868 137.58C301.66 137.58 302.217 137.485 302.54 137.294C302.877 137.103 303.046 136.839 303.046 136.502C303.046 136.223 302.914 136.018 302.65 135.886C302.401 135.739 302.063 135.629 301.638 135.556C301.213 135.483 300.743 135.409 300.23 135.336C299.731 135.263 299.225 135.167 298.712 135.05C298.199 134.918 297.729 134.727 297.304 134.478C296.879 134.229 296.534 133.891 296.27 133.466C296.021 133.041 295.896 132.491 295.896 131.816C295.896 131.068 296.109 130.408 296.534 129.836C296.974 129.264 297.605 128.817 298.426 128.494C299.247 128.157 300.23 127.988 301.374 127.988C302.181 127.988 303.002 128.076 303.838 128.252C304.674 128.428 305.371 128.685 305.928 129.022L304.784 131.464C304.212 131.127 303.633 130.899 303.046 130.782C302.474 130.65 301.917 130.584 301.374 130.584C300.611 130.584 300.054 130.687 299.702 130.892C299.35 131.097 299.174 131.361 299.174 131.684C299.174 131.977 299.299 132.197 299.548 132.344C299.812 132.491 300.157 132.608 300.582 132.696C301.007 132.784 301.469 132.865 301.968 132.938C302.481 132.997 302.995 133.092 303.508 133.224C304.021 133.356 304.483 133.547 304.894 133.796C305.319 134.031 305.664 134.361 305.928 134.786C306.192 135.197 306.324 135.739 306.324 136.414C306.324 137.147 306.104 137.8 305.664 138.372C305.224 138.929 304.586 139.369 303.75 139.692C302.929 140.015 301.924 140.176 300.736 140.176ZM313.281 140.176C311.888 140.176 310.803 139.824 310.025 139.12C309.248 138.401 308.859 137.338 308.859 135.93V125.546H312.291V135.886C312.291 136.385 312.423 136.773 312.687 137.052C312.951 137.316 313.311 137.448 313.765 137.448C314.308 137.448 314.77 137.301 315.151 137.008L316.075 139.428C315.723 139.677 315.298 139.868 314.799 140C314.315 140.117 313.809 140.176 313.281 140.176ZM307.033 131.068V128.428H315.239V131.068H307.033Z" fill="#E527BB"/>
</g>
<defs>
<linearGradient id="paint0_linear_649_11557" x1="136.992" y1="177.857" x2="88.7566" y2="322.763" gradientUnits="userSpaceOnUse">
<stop stop-color="#263681"/>
<stop offset="0.9959" stop-color="#1A1248"/>
</linearGradient>
<linearGradient id="paint1_linear_649_11557" x1="136.631" y1="180.573" x2="90.4496" y2="319.309" gradientUnits="userSpaceOnUse">
<stop offset="0.0041" stop-color="white"/>
<stop offset="1" stop-color="#F5F0FF"/>
</linearGradient>
<linearGradient id="paint2_linear_649_11557" x1="160.972" y1="310.656" x2="160.972" y2="317.686" gradientUnits="userSpaceOnUse">
<stop stop-color="#263681"/>
<stop offset="0.9959" stop-color="#1A1248"/>
</linearGradient>
<linearGradient id="paint3_linear_649_11557" x1="388.438" y1="177.857" x2="436.673" y2="322.763" gradientUnits="userSpaceOnUse">
<stop stop-color="#263681"/>
<stop offset="0.9959" stop-color="#1A1248"/>
</linearGradient>
<linearGradient id="paint4_linear_649_11557" x1="388.799" y1="180.573" x2="434.98" y2="319.309" gradientUnits="userSpaceOnUse">
<stop offset="0.0041" stop-color="white"/>
<stop offset="1" stop-color="#F5F0FF"/>
</linearGradient>
<linearGradient id="paint5_linear_649_11557" x1="378.056" y1="310.656" x2="378.056" y2="317.686" gradientUnits="userSpaceOnUse">
<stop stop-color="#263681"/>
<stop offset="0.9959" stop-color="#1A1248"/>
</linearGradient>
<linearGradient id="paint6_linear_649_11557" x1="448.35" y1="231.973" x2="433.141" y2="284.101" gradientUnits="userSpaceOnUse">
<stop stop-color="#FFE14D"/>
<stop offset="1" stop-color="#F7A523"/>
</linearGradient>
<linearGradient id="paint7_linear_649_11557" x1="446.536" y1="238.19" x2="433.748" y2="282.02" gradientUnits="userSpaceOnUse">
<stop stop-color="#FAAD1E"/>
<stop offset="0.9959" stop-color="#F2830B"/>
</linearGradient>
<linearGradient id="paint8_linear_649_11557" x1="288.696" y1="192.064" x2="302.551" y2="208.517" gradientUnits="userSpaceOnUse">
<stop stop-color="#FFC085"/>
<stop offset="1" stop-color="#FA976E"/>
</linearGradient>
<linearGradient id="paint9_linear_649_11557" x1="370.014" y1="245.977" x2="410.203" y2="245.977" gradientUnits="userSpaceOnUse">
<stop stop-color="#FFC085"/>
<stop offset="1" stop-color="#FA976E"/>
</linearGradient>
<linearGradient id="paint10_linear_649_11557" x1="359.422" y1="145.823" x2="357.401" y2="161.527" gradientUnits="userSpaceOnUse">
<stop stop-color="#FFC085"/>
<stop offset="1" stop-color="#FA976E"/>
</linearGradient>
<linearGradient id="paint11_linear_649_11557" x1="357.193" y1="114.636" x2="357.625" y2="146.33" gradientUnits="userSpaceOnUse">
<stop stop-color="#FFC085"/>
<stop offset="1" stop-color="#FA976E"/>
</linearGradient>
<linearGradient id="paint12_linear_649_11557" x1="239.785" y1="222.197" x2="246.462" y2="236.935" gradientUnits="userSpaceOnUse">
<stop stop-color="#FFC085"/>
<stop offset="1" stop-color="#FA976E"/>
</linearGradient>
<linearGradient id="paint13_linear_649_11557" x1="250.065" y1="224.595" x2="263.92" y2="241.048" gradientUnits="userSpaceOnUse">
<stop stop-color="#FFC085"/>
<stop offset="1" stop-color="#FA976E"/>
</linearGradient>
<linearGradient id="paint14_linear_649_11557" x1="241.79" y1="238.412" x2="239.045" y2="238.625" gradientUnits="userSpaceOnUse">
<stop stop-color="#FFC085"/>
<stop offset="1" stop-color="#FA976E"/>
</linearGradient>
<linearGradient id="paint15_linear_649_11557" x1="250.243" y1="241.642" x2="242.323" y2="242.257" gradientUnits="userSpaceOnUse">
<stop stop-color="#FFC085"/>
<stop offset="1" stop-color="#FA976E"/>
</linearGradient>
<linearGradient id="paint16_linear_649_11557" x1="175.802" y1="147.615" x2="145.849" y2="147.615" gradientUnits="userSpaceOnUse">
<stop stop-color="#263681"/>
<stop offset="0.9959" stop-color="#1A1248"/>
</linearGradient>
<linearGradient id="paint17_linear_649_11557" x1="149.704" y1="169.23" x2="150.753" y2="155.482" gradientUnits="userSpaceOnUse">
<stop stop-color="#FFC085"/>
<stop offset="1" stop-color="#FA976E"/>
</linearGradient>
<linearGradient id="paint18_linear_649_11557" x1="158.705" y1="129.617" x2="140.246" y2="153.092" gradientUnits="userSpaceOnUse">
<stop stop-color="#FFC085"/>
<stop offset="1" stop-color="#FA976E"/>
</linearGradient>
<linearGradient id="paint19_linear_649_11557" x1="80.9108" y1="162.989" x2="66.6237" y2="211.957" gradientUnits="userSpaceOnUse">
<stop stop-color="#FFE14D"/>
<stop offset="1" stop-color="#F7A523"/>
</linearGradient>
<linearGradient id="paint20_linear_649_11557" x1="79.207" y1="168.829" x2="67.194" y2="210.003" gradientUnits="userSpaceOnUse">
<stop stop-color="#FAAD1E"/>
<stop offset="0.9959" stop-color="#F2830B"/>
</linearGradient>
<linearGradient id="paint21_linear_649_11557" x1="435.263" y1="108.789" x2="420.746" y2="158.546" gradientUnits="userSpaceOnUse">
<stop stop-color="#FFE14D"/>
<stop offset="1" stop-color="#F7A523"/>
</linearGradient>
<linearGradient id="paint22_linear_649_11557" x1="433.532" y1="114.723" x2="421.326" y2="156.56" gradientUnits="userSpaceOnUse">
<stop stop-color="#FAAD1E"/>
<stop offset="0.9959" stop-color="#F2830B"/>
</linearGradient>
<clipPath id="clip0_649_11557">
<rect width="532.49" height="330.06" fill="white"/>
</clipPath>
</defs>
</svg>
