<svg width="544" height="329" viewBox="0 0 544 329" fill="none" xmlns="http://www.w3.org/2000/svg">
<g clip-path="url(#clip0_1882_6284)">
<path opacity="0.2" d="M129.234 325.584L413.884 308.934C489.154 304.534 547.394 240.734 544.254 165.394C541.614 102.084 518.934 34.6439 442.654 5.8239C389.004 -14.4461 319.334 2.1439 275.144 35.8539C264.524 43.9539 254.764 53.2439 243.354 60.1739C216.764 76.3239 193.414 65.1739 165.714 60.8839C107.154 51.7939 48.7043 70.4639 18.4443 124.434C-28.0157 207.354 26.7843 331.574 129.234 325.584Z" fill="#999999"/>
<path d="M104.602 62.2577V235.037C104.602 249.247 114.6 260.869 127.13 261.246C182.81 262.869 377.571 266.821 430.577 265.939C439.692 265.786 447.064 257.528 447.335 247.2C448.359 207.064 450.02 110.534 443.873 65.7279C442.577 56.2937 435.547 49.2358 427.126 48.9299C380.468 47.236 174.013 41.8719 121.03 43.213C111.903 43.4365 104.602 51.8943 104.602 62.2577Z" fill="#E527BB"/>
<path d="M114.176 61.4109V225.568C114.176 233.861 120.052 240.625 127.377 240.754L422.969 244.895C430.223 245.012 436.182 238.401 436.206 230.167L436.701 67.4807C436.724 61.5991 432.579 56.7761 427.397 56.635L124.751 49.7064C118.957 49.5417 114.176 54.8352 114.176 61.4109Z" fill="#A78BEF"/>
<path opacity="0.37" d="M120.898 68.0218V218.757C120.898 226.379 126.457 232.59 133.37 232.696L412.781 236.496C419.646 236.613 425.264 230.532 425.287 222.98L425.758 73.5976C425.782 68.1982 421.872 63.7752 416.961 63.6341L130.909 57.2701C125.421 57.1172 120.898 61.9754 120.898 68.0218Z" fill="white"/>
<g opacity="0.53">
<path d="M286.831 71.5859H278.223V223.179H286.831V71.5859Z" fill="white"/>
<path d="M301.199 71.5859H292.59V223.179H301.199V71.5859Z" fill="white"/>
<path d="M315.577 71.5859H306.969V223.179H315.577V71.5859Z" fill="white"/>
<path d="M329.956 71.5859H321.348V223.179H329.956V71.5859Z" fill="white"/>
<path d="M344.335 71.5859H335.727V223.179H344.335V71.5859Z" fill="white"/>
<path d="M358.714 71.5859H350.105V223.179H358.714V71.5859Z" fill="white"/>
<path d="M373.081 71.5859H364.473V223.179H373.081V71.5859Z" fill="white"/>
</g>
<path d="M286.831 143.848H278.223V223.18H286.831V143.848Z" fill="#A78BEF"/>
<path d="M301.199 171.115H292.59V223.18H301.199V171.115Z" fill="#A78BEF"/>
<path d="M315.577 103.723H306.969V223.179H315.577V103.723Z" fill="#E527BB"/>
<path d="M329.956 194.489H321.348V223.191H329.956V194.489Z" fill="#A78BEF"/>
<path d="M344.335 119.698H335.727V223.179H344.335V119.698Z" fill="#E527BB"/>
<path d="M358.714 137.613H350.105V223.179H358.714V137.613Z" fill="#E527BB"/>
<path d="M373.081 157.093H364.473V223.179H373.081V157.093Z" fill="#A78BEF"/>
<path d="M145.76 64.1633C134.572 64.1633 125.504 73.2211 125.504 84.3962C125.504 95.5713 134.572 104.629 145.76 104.629C156.947 104.629 166.015 95.5713 166.015 84.3962C166.015 73.2211 156.947 64.1633 145.76 64.1633ZM145.76 95.9242C139.388 95.9242 134.219 90.7601 134.219 84.3962C134.219 78.0322 139.388 72.8682 145.76 72.8682C152.131 72.8682 157.301 78.0322 157.301 84.3962C157.301 90.7601 152.131 95.9242 145.76 95.9242Z" fill="#A78BEF"/>
<mask id="mask0_1882_6284" style="mask-type:luminance" maskUnits="userSpaceOnUse" x="125" y="64" width="42" height="41">
<path d="M145.76 64.1633C134.572 64.1633 125.504 73.2211 125.504 84.3962C125.504 95.5713 134.572 104.629 145.76 104.629C156.947 104.629 166.015 95.5713 166.015 84.3962C166.015 73.2211 156.947 64.1633 145.76 64.1633ZM145.76 95.9242C139.388 95.9242 134.219 90.7601 134.219 84.3962C134.219 78.0322 139.388 72.8682 145.76 72.8682C152.131 72.8682 157.301 78.0322 157.301 84.3962C157.301 90.7601 152.131 95.9242 145.76 95.9242Z" fill="white"/>
</mask>
<g mask="url(#mask0_1882_6284)">
<path d="M177.651 79.938H117.473V105.37H177.651V79.938Z" fill="#E527BB"/>
</g>
<path d="M195.139 64.1633C183.951 64.1633 174.883 73.2211 174.883 84.3962C174.883 95.5713 183.951 104.629 195.139 104.629C206.326 104.629 215.394 95.5713 215.394 84.3962C215.394 73.2211 206.326 64.1633 195.139 64.1633ZM195.139 95.9242C188.767 95.9242 183.597 90.7601 183.597 84.3962C183.597 78.0322 188.767 72.8682 195.139 72.8682C201.51 72.8682 206.68 78.0322 206.68 84.3962C206.68 90.7601 201.521 95.9242 195.139 95.9242Z" fill="#A78BEF"/>
<mask id="mask1_1882_6284" style="mask-type:luminance" maskUnits="userSpaceOnUse" x="174" y="64" width="42" height="41">
<path d="M195.139 64.1633C183.951 64.1633 174.883 73.2211 174.883 84.3962C174.883 95.5713 183.951 104.629 195.139 104.629C206.326 104.629 215.394 95.5713 215.394 84.3962C215.394 73.2211 206.326 64.1633 195.139 64.1633ZM195.139 95.9242C188.767 95.9242 183.597 90.7601 183.597 84.3962C183.597 78.0322 188.767 72.8682 195.139 72.8682C201.51 72.8682 206.68 78.0322 206.68 84.3962C206.68 90.7601 201.521 95.9242 195.139 95.9242Z" fill="white"/>
</mask>
<g mask="url(#mask1_1882_6284)">
<path d="M227.03 70.1155H166.852V105.382H227.03V70.1155Z" fill="#E527BB"/>
</g>
<path d="M244.529 64.1633C233.341 64.1633 224.273 73.2211 224.273 84.3962C224.273 95.5713 233.341 104.629 244.529 104.629C255.717 104.629 264.785 95.5713 264.785 84.3962C264.785 73.2211 255.717 64.1633 244.529 64.1633ZM244.529 95.9242C238.158 95.9242 232.988 90.7601 232.988 84.3962C232.988 78.0322 238.158 72.8682 244.529 72.8682C250.9 72.8682 256.07 78.0322 256.07 84.3962C256.07 90.7601 250.9 95.9242 244.529 95.9242Z" fill="#E527BB"/>
<mask id="mask2_1882_6284" style="mask-type:luminance" maskUnits="userSpaceOnUse" x="224" y="64" width="41" height="41">
<path d="M244.529 64.1633C233.341 64.1633 224.273 73.2211 224.273 84.3962C224.273 95.5713 233.341 104.629 244.529 104.629C255.717 104.629 264.785 95.5713 264.785 84.3962C264.785 73.2211 255.717 64.1633 244.529 64.1633ZM244.529 95.9242C238.158 95.9242 232.988 90.7601 232.988 84.3962C232.988 78.0322 238.158 72.8682 244.529 72.8682C250.9 72.8682 256.07 78.0322 256.07 84.3962C256.07 90.7601 250.9 95.9242 244.529 95.9242Z" fill="white"/>
</mask>
<g mask="url(#mask2_1882_6284)">
<path d="M276.42 92.6658H216.242V105.382H276.42V92.6658Z" fill="#A78BEF"/>
</g>
<path opacity="0.24" d="M260.24 226.814L136.256 225.885C133.807 225.862 131.84 223.885 131.84 221.439V157.811C131.84 155.352 133.83 153.365 136.291 153.365H260.275C262.736 153.365 264.727 155.352 264.727 157.811V222.368C264.727 224.838 262.713 226.838 260.24 226.814Z" fill="white"/>
<path opacity="0.54" d="M241.009 182.09L225.064 165.257L202.205 190.089L186.072 172.703L170.939 189.784L159.339 175.703L136.48 199.476V216.674C136.48 218.945 138.318 220.792 140.59 220.815L255.907 221.686C258.203 221.697 260.076 219.851 260.076 217.545V170.774L241.009 182.09Z" fill="white"/>
<path d="M241.526 181.62H241.102V221.674H241.526V181.62Z" fill="white"/>
<path d="M225.276 165.257H224.852V221.45H225.276V165.257Z" fill="url(#paint0_linear_1882_6284)"/>
<path d="M202.416 189.784H201.992V221.274H202.416V189.784Z" fill="url(#paint1_linear_1882_6284)"/>
<path d="M186.717 173.327H186.293V221.286H186.717V173.327Z" fill="url(#paint2_linear_1882_6284)"/>
<path d="M171.162 189.278H170.738V221.274H171.162V189.278Z" fill="url(#paint3_linear_1882_6284)"/>
<path d="M159.811 174.515H159.387V220.968H159.811V174.515Z" fill="url(#paint4_linear_1882_6284)"/>
<path d="M164.036 173.938C164.036 176.42 162.023 178.432 159.538 178.432C157.053 178.432 155.039 176.42 155.039 173.938C155.039 171.456 157.053 169.445 159.538 169.445C162.023 169.445 164.036 171.456 164.036 173.938Z" fill="#E527BB"/>
<path d="M174.555 188.419C174.555 190.172 173.141 191.584 171.387 191.584C169.632 191.584 168.219 190.172 168.219 188.419C168.219 186.666 169.632 185.255 171.387 185.255C173.141 185.255 174.555 186.666 174.555 188.419Z" fill="#E527BB"/>
<path d="M190.076 173.115C190.076 174.974 188.569 176.468 186.72 176.468C184.871 176.468 183.363 174.962 183.363 173.115C183.363 171.268 184.871 169.763 186.72 169.763C188.569 169.751 190.076 171.256 190.076 173.115Z" fill="#E527BB"/>
<path d="M206.093 189.007C206.093 190.713 204.703 192.101 202.996 192.101C201.288 192.101 199.898 190.713 199.898 189.007C199.898 187.302 201.288 185.914 202.996 185.914C204.703 185.914 206.093 187.29 206.093 189.007Z" fill="#E527BB"/>
<path d="M227.949 164.751C227.949 166.304 226.689 167.551 225.147 167.551C223.592 167.551 222.344 166.292 222.344 164.751C222.344 163.199 223.604 161.952 225.147 161.952C226.701 161.952 227.949 163.21 227.949 164.751Z" fill="#E527BB"/>
<path d="M241.893 183.937C243.487 183.937 244.778 182.647 244.778 181.055C244.778 179.464 243.487 178.173 241.893 178.173C240.3 178.173 239.008 179.464 239.008 181.055C239.008 182.647 240.3 183.937 241.893 183.937Z" fill="url(#paint5_linear_1882_6284)"/>
<g opacity="0.48">
<path d="M166.71 134.261H132.075C130.627 134.261 129.449 135.072 129.449 136.084C129.449 137.096 130.627 137.907 132.075 137.907H166.71C168.159 137.907 169.336 137.096 169.336 136.084C169.336 135.084 168.159 134.261 166.71 134.261Z" fill="white"/>
<path d="M166.71 126.191H132.075C130.627 126.191 129.449 127.003 129.449 128.014C129.449 129.026 130.627 129.838 132.075 129.838H166.71C168.159 129.838 169.336 129.026 169.336 128.014C169.336 127.003 168.159 126.191 166.71 126.191Z" fill="white"/>
<path d="M166.71 118.11H132.075C130.627 118.11 129.449 118.922 129.449 119.933C129.449 120.945 130.627 121.756 132.075 121.756H166.71C168.159 121.756 169.336 120.945 169.336 119.933C169.336 118.922 168.159 118.11 166.71 118.11Z" fill="white"/>
</g>
<g opacity="0.48">
<path d="M214.855 134.261H180.22C178.771 134.261 177.594 135.072 177.594 136.084C177.594 137.096 178.771 137.907 180.22 137.907H214.855C216.303 137.907 217.481 137.096 217.481 136.084C217.469 135.084 216.303 134.261 214.855 134.261Z" fill="white"/>
<path d="M214.855 126.191H180.22C178.771 126.191 177.594 127.003 177.594 128.014C177.594 129.026 178.771 129.838 180.22 129.838H214.855C216.303 129.838 217.481 129.026 217.481 128.014C217.481 127.003 216.303 126.191 214.855 126.191Z" fill="white"/>
<path d="M214.855 118.11H180.22C178.771 118.11 177.594 118.922 177.594 119.933C177.594 120.945 178.771 121.756 180.22 121.756H214.855C216.303 121.756 217.481 120.945 217.481 119.933C217.469 118.922 216.303 118.11 214.855 118.11Z" fill="white"/>
</g>
<g opacity="0.48">
<path d="M262.984 134.261H228.361C226.912 134.261 225.734 135.072 225.734 136.084C225.734 137.096 226.912 137.907 228.361 137.907H262.995C264.444 137.907 265.622 137.096 265.622 136.084C265.61 135.084 264.432 134.261 262.984 134.261Z" fill="white"/>
<path d="M262.984 126.191H228.361C226.912 126.191 225.734 127.003 225.734 128.014C225.734 129.026 226.912 129.838 228.361 129.838H262.995C264.444 129.838 265.622 129.026 265.622 128.014C265.622 127.003 264.432 126.191 262.984 126.191Z" fill="white"/>
<path d="M262.984 118.11H228.361C226.912 118.11 225.734 118.922 225.734 119.933C225.734 120.945 226.912 121.756 228.361 121.756H262.995C264.444 121.756 265.622 120.945 265.622 119.933C265.61 118.922 264.432 118.11 262.984 118.11Z" fill="white"/>
</g>
<path opacity="0.91" d="M398.344 155.564C407.632 155.564 415.161 148.044 415.161 138.766C415.161 129.489 407.632 121.968 398.344 121.968C389.057 121.968 381.527 129.489 381.527 138.766C381.527 148.044 389.057 155.564 398.344 155.564Z" fill="white"/>
<path d="M408.33 135.214C408.848 136.472 409.143 137.86 409.143 139.307C409.143 145.26 404.303 150.094 398.344 150.094C392.385 150.094 387.545 145.26 387.545 139.307C387.545 133.355 392.385 128.52 398.344 128.52C398.532 128.52 398.709 128.52 398.886 128.532V125.803C398.709 125.791 398.52 125.791 398.344 125.791C390.866 125.791 384.812 131.849 384.812 139.307C384.812 146.777 390.877 152.823 398.344 152.823C405.822 152.823 411.875 146.765 411.875 139.307C411.875 137.472 411.51 135.719 410.839 134.12L408.33 135.214Z" fill="#E527BB"/>
<path opacity="0.5" d="M412.158 162.669H384.765C383.046 162.669 381.656 164.057 381.656 165.775C381.656 167.492 383.046 168.88 384.765 168.88H412.158C413.877 168.88 415.267 167.492 415.267 165.775C415.278 164.069 413.877 162.669 412.158 162.669Z" fill="white"/>
<path opacity="0.91" d="M398.274 101.594C407.562 101.594 415.091 94.0735 415.091 84.7963C415.091 75.519 407.562 67.9983 398.274 67.9983C388.986 67.9983 381.457 75.519 381.457 84.7963C381.457 94.0735 388.986 101.594 398.274 101.594Z" fill="white"/>
<path d="M403.985 94.4656C402.325 95.5126 400.346 96.1242 398.227 96.1242C392.268 96.1242 387.427 91.2895 387.427 85.3373C387.427 79.3851 392.268 74.5504 398.227 74.5504C398.415 74.5504 398.592 74.5504 398.768 74.5621V71.8331C398.592 71.8213 398.403 71.8213 398.227 71.8213C390.748 71.8213 384.695 77.8794 384.695 85.3373C384.695 92.7952 390.76 98.8533 398.227 98.8533C400.841 98.8533 403.267 98.1122 405.34 96.8418L403.985 94.4656Z" fill="#E527BB"/>
<path opacity="0.5" d="M412.228 108.699H384.836C383.116 108.699 381.727 110.087 381.727 111.805C381.727 113.522 383.116 114.91 384.836 114.91H412.228C413.947 114.91 415.337 113.522 415.337 111.805C415.349 110.099 413.947 108.699 412.228 108.699Z" fill="white"/>
<path opacity="0.91" d="M398.403 209.816C407.691 209.816 415.22 202.296 415.22 193.018C415.22 183.741 407.691 176.22 398.403 176.22C389.115 176.22 381.586 183.741 381.586 193.018C381.586 202.296 389.115 209.816 398.403 209.816Z" fill="white"/>
<path d="M407.552 199.077C405.609 201.923 402.335 203.794 398.625 203.794C392.666 203.794 387.826 198.959 387.826 193.007C387.826 187.055 392.666 182.22 398.625 182.22C398.813 182.22 398.99 182.22 399.167 182.232V179.502C398.99 179.491 398.802 179.491 398.625 179.491C391.147 179.491 385.094 185.549 385.094 193.007C385.094 200.476 391.159 206.523 398.625 206.523C403.253 206.523 407.328 204.205 409.777 200.676L407.552 199.077Z" fill="#E527BB"/>
<path opacity="0.5" d="M384.707 222.591H412.099C413.818 222.591 415.208 221.203 415.208 219.486C415.208 217.768 413.818 216.38 412.099 216.38H384.707C382.987 216.38 381.598 217.768 381.598 219.486C381.598 221.203 382.987 222.591 384.707 222.591Z" fill="white"/>
<path d="M188.383 167.944C190.303 168.085 192.011 166.109 194.955 162.58C197.051 160.074 197.652 158.592 198.158 158.051C198.617 157.569 200.396 155.345 199.501 154.675C199.501 154.675 198.535 154.192 198.099 154.028C197.663 153.851 197.216 153.887 196.91 154.051C196.603 154.204 193.742 156.028 193.742 156.028C193.742 156.028 190.456 157.874 188.913 159.109C187.371 160.345 185.062 162.168 184.533 163.156C184.085 163.991 184.309 164.885 184.839 165.685C185.522 166.732 186.393 167.309 186.794 167.497C186.77 167.497 187.571 167.885 188.383 167.944Z" fill="#A78BEF"/>
<path d="M193.812 156.11C194.531 156.286 195.179 156.333 195.661 156.569C195.661 156.569 195.673 156.569 195.685 156.58C196.45 156.945 196.945 157.321 197.228 157.568C197.44 157.357 197.663 157.133 197.875 156.921C195.873 155.145 194.778 155.545 194.778 155.545C194.342 155.78 194.225 155.863 193.812 156.11Z" fill="#A78BEF"/>
<path d="M194.754 155.545C195.178 155.604 195.814 155.745 196.497 156.086C197.062 156.38 197.486 156.722 197.769 156.992C197.922 156.851 199.017 155.828 199.311 155.322C199.347 155.263 199.394 155.169 199.382 155.051C199.382 154.887 199.17 154.698 198.534 154.381C198.169 154.204 197.78 154.087 197.674 154.051C197.58 154.028 197.404 153.981 197.18 154.075C197.074 154.134 196.179 154.71 194.754 155.545Z" fill="url(#paint6_linear_1882_6284)"/>
<path d="M191.645 157.757C191.751 157.98 192.116 158.204 192.834 158.616L195.661 156.569C195.237 156.369 194.872 156.204 194.318 156.051C194.142 156.004 193.941 156.028 193.777 156.122C192.764 156.722 191.881 157.239 191.881 157.239C191.881 157.239 191.515 157.474 191.645 157.757Z" fill="url(#paint7_linear_1882_6284)"/>
<path d="M192.812 158.592C192.989 158.686 193.543 159.004 193.708 159.086C194.52 159.509 195.203 159.415 195.733 158.956C195.851 158.851 196.522 158.274 197.24 157.568C196.97 157.321 196.463 156.945 195.698 156.58C195.698 156.58 195.568 156.521 195.556 156.521L192.812 158.592Z" fill="url(#paint8_linear_1882_6284)"/>
<path opacity="0.5" d="M195.637 158.31C195.626 158.31 195.626 158.31 195.637 158.31L194.389 158.18C194.33 158.168 194.283 158.121 194.295 158.063C194.307 158.004 194.354 157.968 194.413 157.968L195.52 158.086L195.378 157.357C195.366 157.298 195.402 157.239 195.461 157.239C195.52 157.227 195.578 157.263 195.578 157.321L195.732 158.18C195.732 158.215 195.732 158.251 195.708 158.274C195.696 158.298 195.661 158.31 195.637 158.31Z" fill="white"/>
<path opacity="0.5" d="M193.422 157.533C193.364 157.533 193.316 157.474 193.316 157.416L193.352 156.827C193.352 156.78 193.399 156.733 193.446 156.733L194.153 156.663C194.211 156.651 194.259 156.698 194.27 156.757C194.282 156.816 194.235 156.863 194.176 156.874L193.564 156.933L193.54 157.427C193.528 157.486 193.481 157.533 193.422 157.533Z" fill="white"/>
<path d="M151.959 178.26C151.959 178.26 169.223 184.506 177.326 181.542C177.691 181.413 178.032 181.26 178.362 181.095C185.911 177.107 186.841 166.332 186.841 166.332L190.233 167.003C190.233 167.003 191.34 184.33 179.445 191.788C173.593 195.458 164.595 196.728 150.77 192.352L151.959 178.26Z" fill="url(#paint9_linear_1882_6284)"/>
<path d="M187.018 167.273L186.842 166.332C186.842 166.332 186.135 164.038 188.008 161.78C190.716 158.51 192.695 159.709 192.695 159.709C192.695 159.709 192.553 160.403 192.565 161.027C192.577 161.521 193.177 161.78 193.543 161.439L197.959 157.392C197.959 157.392 199.195 163.827 189.727 168.25L187.018 167.273Z" fill="url(#paint10_linear_1882_6284)"/>
<path d="M137.7 155.839C137.7 155.839 138.418 157.274 133.731 159.521C131.117 160.78 126.029 162.627 125.358 168.038C125.017 170.826 122.944 173.073 120.153 173.496C113.216 174.555 102.523 178.154 100.816 190.188C99.5085 199.375 104.196 202.857 109.118 204.057C112.734 204.939 115.136 208.457 114.406 212.091C113.699 215.585 114.747 219.62 120.812 222.82C134.391 229.972 147.957 205.869 147.957 205.869L150.737 163.768L137.7 155.839Z" fill="#231F20"/>
<path d="M105.773 319.678L105.219 324.254C105.113 325.125 104.43 325.807 103.559 325.901C102.087 326.066 99.7312 326.242 97.4348 325.995C96.422 325.89 95.7625 324.866 96.0805 323.902C96.6458 322.137 97.6703 319.49 99.1542 317.926H104.23C105.16 317.926 105.89 318.737 105.773 319.678Z" fill="#A78BEF"/>
<path d="M145.553 266.108L146.413 271.143C146.413 271.143 143.539 300.187 143.033 311.797C142.95 313.62 143.421 315.42 144.375 316.973L149.369 325.066L136.685 317.585L136.438 316.044L138.511 313.197L135.79 280.671C135.625 278.766 136.026 276.848 136.932 275.154L139.559 270.226L145.553 266.108Z" fill="url(#paint11_linear_1882_6284)"/>
<path d="M150.193 326.242H146.141C145.388 326.242 144.669 325.889 144.21 325.29C142.95 323.654 140.336 320.455 139.087 320.372C137.403 320.255 137.615 326.231 137.615 326.231H136.673L135.484 318.808C135.177 316.938 136.108 315.091 137.792 314.208C137.792 314.208 138.18 317.055 140.265 318.302C142.349 319.561 148.756 324.066 148.756 324.066C148.756 324.066 149.545 323.948 150.405 324.113C151.676 324.348 151.5 326.242 150.193 326.242Z" fill="#A78BEF"/>
<path d="M128.171 268.508C128.171 268.508 111.354 300.363 108.681 307.645C106.008 314.914 105.077 320.984 105.042 321.56C104.983 322.454 103.864 323.325 100.791 323.325C99.2009 323.325 98.4237 322.69 98.0351 322.066C97.7053 321.537 97.6935 320.878 97.9644 320.325C98.9419 318.361 102.027 312.079 103.17 309.221C104.536 305.821 107.468 290.4 109.081 285.035C110.695 279.671 112.508 273.86 119.527 268.496C119.527 268.508 124.332 263.791 128.171 268.508Z" fill="url(#paint12_linear_1882_6284)"/>
<path d="M138.794 216.303C143.128 197.94 132.141 187.565 132.141 187.565C137.711 182.224 146.956 179.225 150.383 178.248C151.219 178.013 152.114 178.19 152.797 178.742C155.729 181.107 163.49 187.977 162.324 193.588C161.488 197.623 153.857 217.773 153.857 217.773C153.857 217.773 146.802 221.102 138.794 216.303Z" fill="#A78BEF"/>
<path d="M129.183 225.396C130.949 220.079 138.804 216.303 138.804 216.303C146.812 221.102 153.867 217.773 153.867 217.773C153.867 217.773 155.445 223.819 154.361 229.431C153.266 235.053 146.412 271.143 146.412 271.143C135.613 273.331 118.996 268.943 118.996 268.943C125.874 256.745 127.416 230.701 129.183 225.396Z" fill="#231F20"/>
<path d="M143.835 165.768L140.314 181.589C139.972 182.977 141.244 182.754 142.657 182.483C144.966 182.048 147.945 181.154 148.934 179.354C149.04 179.166 149.087 178.966 149.111 178.754L150.63 167.779C150.748 166.909 150.277 166.062 149.476 165.709L146.555 164.415C145.425 163.921 144.118 164.568 143.835 165.768Z" fill="url(#paint13_linear_1882_6284)"/>
<path d="M150.584 151.334C150.584 151.334 154.341 153.875 155.954 160.333C157.567 166.803 154.941 169.12 152.256 168.979C149.571 168.838 145.673 168.003 142.293 163.368C138.925 158.733 145.673 148.24 150.584 151.334Z" fill="url(#paint14_linear_1882_6284)"/>
<path d="M145.708 160.768C145.708 160.768 144.33 151.51 152.032 152.922L153.587 154.545C153.587 154.545 157.355 150.311 153.186 147.099C149.017 143.9 143.223 144.711 140.032 150.546C136.829 156.38 135.663 160.474 138.348 164.109C141.033 167.732 143.047 164.627 143.047 164.627C143.047 164.627 141.81 161.486 142.835 160.145C143.859 158.804 145.178 160.933 145.178 160.933L145.708 160.768Z" fill="#231F20"/>
<path d="M145.663 162.45C145.663 162.45 144.98 157.686 142.542 159.051C140.104 160.415 143.425 163.497 144.744 164.556L145.663 162.45Z" fill="url(#paint15_linear_1882_6284)"/>
<path d="M132.095 187.835C132.095 187.835 124.605 199.799 123.11 208.774C121.614 217.749 135.828 221.478 141.069 216.256L140.315 212.515C140.315 212.515 132.083 214.009 131.33 209.527C130.576 205.045 138.066 196.07 138.066 196.07C138.066 196.07 135.84 189.329 132.095 187.835Z" fill="url(#paint16_linear_1882_6284)"/>
<path d="M138.345 223.925L146.847 194.246C146.942 193.905 147.236 193.658 147.578 193.623C149.12 193.447 153.584 192.941 158.742 192.506C164.96 191.976 172.167 191.553 176.477 191.917C177.09 191.964 177.455 192.611 177.184 193.164C174.734 198.117 164.654 218.267 159.601 224.878C159.437 225.102 159.177 225.219 158.895 225.219L139.157 225.031C138.604 225.031 138.192 224.478 138.345 223.925Z" fill="url(#paint17_linear_1882_6284)"/>
<path d="M159.636 189.929L165.807 188.906C166.137 188.847 166.408 189.165 166.302 189.482L165.69 191.329C165.631 191.494 165.501 191.612 165.325 191.623L159.389 192.411C159.083 192.447 158.824 192.176 158.895 191.87L159.271 190.259C159.318 190.094 159.46 189.953 159.636 189.929Z" fill="url(#paint18_linear_1882_6284)"/>
<path d="M155.022 195.141L155.528 192.494C155.575 192.223 155.799 192.023 156.07 192L168.53 190.741C168.954 190.694 169.283 191.082 169.189 191.494L168.4 194.788C168.341 195.047 168.106 195.247 167.835 195.258L155.658 195.87C155.257 195.894 154.951 195.541 155.022 195.141Z" fill="url(#paint19_linear_1882_6284)"/>
<path d="M140.404 216.75C140.404 216.75 139.215 211.88 139.697 210.15C140.18 208.421 141.099 206.198 144.184 206.692C147.27 207.186 150.909 208.48 150.909 208.48C150.909 208.48 150.72 210.727 148.377 210.009L149.837 211.139C149.837 211.139 149.625 212.938 147.647 211.974L149.001 213.468C149.001 213.468 148.153 214.95 146.693 213.997C145.232 213.056 144.538 217.338 140.404 216.75Z" fill="url(#paint20_linear_1882_6284)"/>
<path d="M110.814 198.67C110.602 198.67 110.366 198.564 110.166 198.446C106.998 196.376 105.302 192.117 106.044 188.083C106.492 185.659 107.693 183.577 109.424 182.213C110.649 181.236 112.109 180.648 113.499 180.119C115.842 179.237 118.256 178.46 120.671 177.801C120.871 177.743 121.071 177.696 121.271 177.637C122.684 177.26 124.145 176.872 125.464 176.213C127.159 175.366 128.396 174.131 128.938 172.743C129.279 171.884 129.373 170.92 129.468 170.002C129.585 168.873 129.703 167.697 130.268 166.685C130.28 166.662 130.316 166.65 130.351 166.662C130.374 166.673 130.386 166.709 130.374 166.744C129.821 167.732 129.703 168.885 129.585 170.014C129.491 170.943 129.385 171.908 129.044 172.79C128.49 174.202 127.23 175.461 125.511 176.319C124.18 176.99 122.708 177.378 121.295 177.754C121.094 177.801 120.894 177.86 120.694 177.919C118.28 178.566 115.877 179.342 113.534 180.225C112.156 180.742 110.708 181.33 109.495 182.295C107.787 183.648 106.598 185.706 106.162 188.094C105.42 192.082 107.092 196.293 110.225 198.34C110.46 198.493 110.896 198.681 111.096 198.411C111.12 198.387 111.155 198.375 111.179 198.399C111.202 198.422 111.214 198.458 111.19 198.481C111.108 198.611 110.967 198.67 110.814 198.67Z" fill="white"/>
<path d="M110.002 194.858C109.979 194.858 109.967 194.847 109.955 194.835C108.73 193.011 108.094 191.094 108.118 189.282C108.141 187.177 109.119 185.212 110.673 184.154C110.697 184.13 110.732 184.142 110.756 184.165C110.779 184.189 110.768 184.224 110.744 184.248C109.213 185.271 108.259 187.2 108.236 189.271C108.212 191.047 108.848 192.941 110.061 194.752C110.085 194.776 110.073 194.811 110.049 194.835C110.026 194.858 110.014 194.858 110.002 194.858Z" fill="white"/>
<path d="M286.386 212.64C286.386 212.64 284.477 212.429 283.573 212.469C282.669 212.519 278.67 214.76 277.324 214.699C275.978 214.629 266.977 211.696 266.565 211.455C266.143 211.223 266.675 210.571 266.675 210.571L286.587 208.622L286.386 212.64Z" fill="#EEA886"/>
<path d="M302.391 180.543L304.45 201.519C304.45 201.519 305.344 204.111 299.477 205.065C293.48 206.04 284.117 208.079 284.117 208.079C284.117 208.079 284.268 215.071 285.062 215.111C287.342 215.232 304.36 212.349 311.101 210.932C316.445 209.807 313.1 181.206 313.1 181.206L302.391 180.543Z" fill="#E527BB"/>
<path d="M286.098 205.588C286.098 205.588 284.239 206.09 283.335 206.17C282.441 206.251 278.152 204.633 276.825 204.895C275.499 205.156 267.041 209.405 266.659 209.697C266.277 209.988 266.9 210.55 266.9 210.55L286.882 209.526L286.098 205.588Z" fill="#EEA886"/>
<path d="M308.18 316.465C308.18 316.465 304.041 318.977 302.163 319.921C300.284 320.865 292.951 321.207 292.227 321.91C291.514 322.613 291.805 324.803 293.021 325.004C294.236 325.215 303.167 325.919 306.141 325.185C309.115 324.452 314.69 325.557 315.916 325.125C317.141 324.693 316.267 318.053 315.775 316.566C315.283 315.089 308.18 316.465 308.18 316.465Z" fill="#A78BEF"/>
<path d="M307.801 313.753L308.183 316.465C308.183 316.465 313.778 317.44 315.456 316.566L315.004 313.743L307.801 313.753Z" fill="#3D416B"/>
<path d="M296.766 218.668C296.606 220.546 296.485 224.645 296.395 228.945C296.374 229.899 296.354 230.874 296.344 231.828C296.234 237.624 296.184 242.989 296.184 242.989C296.455 250.282 297.61 266.055 299.78 269.601C302.703 274.383 306.109 314.185 306.109 314.185L316.868 315.34C316.868 315.34 317.531 288.728 315.924 281.786C314.126 274.031 310.68 263.453 312.649 256.39C313.885 251.96 316.466 237.705 316.466 237.705C316.466 237.705 319.219 221.671 316.366 209.365C315.643 206.281 296.766 218.668 296.766 218.668Z" fill="#231F20"/>
<path d="M289.696 316.465C289.696 316.465 285.557 318.977 283.678 319.921C281.8 320.865 274.466 321.207 273.743 321.91C273.03 322.613 273.321 324.803 274.536 325.004C275.752 325.215 284.683 325.919 287.657 325.185C290.63 324.452 296.206 325.557 297.431 325.125C298.657 324.693 297.783 318.053 297.291 316.566C296.798 315.089 289.696 316.465 289.696 316.465Z" fill="#A78BEF"/>
<path d="M289.316 313.753L289.698 316.465C289.698 316.465 295.294 317.44 296.971 316.566L296.519 313.743L289.316 313.753Z" fill="#3D416B"/>
<path d="M287 314.989H298.03C298.03 314.989 301.737 293.661 302.039 284.258C302.069 283.233 302.069 282.359 302.009 281.656C301.848 279.667 301.607 277.477 301.396 275.217C301.396 275.196 301.396 275.186 301.386 275.166C300.733 268.436 300.261 261.052 302.491 256.049C304.359 251.85 309.001 238.117 309.001 238.117C309.001 238.117 314.074 222.656 313.049 210.068C312.788 206.924 293.188 214.83 293.188 214.83C292.756 216.669 291.45 222.435 290.978 226.715C288.326 251.167 289.321 267.099 289.321 267.099C290.828 272.514 287 314.989 287 314.989Z" fill="#231F20"/>
<path d="M294.899 162.702C294.899 162.702 291.071 171.803 290.277 176.676C289.484 181.548 292.719 194.889 292.869 197.642C293.321 206.191 293.532 215.654 293.532 215.654L312.208 223.982C312.208 223.982 314.187 216.377 315.523 207.085C316.849 197.792 315.865 189.745 315.031 184.401C312.429 167.624 301.931 159.517 301.931 159.517L294.899 162.702Z" fill="#A78BEF"/>
<path d="M280.734 146.327C280.734 146.327 279.438 151.34 280.795 151.731C281.91 152.063 280.855 156.925 280.754 157.699C280.654 158.472 282.824 158.492 283.376 158.834C283.919 159.186 286.601 164.48 288.319 164.239C290.047 163.988 296.989 159.477 298.526 156.815C300.063 154.153 299.37 144.026 296.979 140.269C294.588 136.512 283.035 137.567 280.734 146.327Z" fill="#EEA886"/>
<path d="M291.27 158.673C291.27 158.673 291.4 159.165 291.601 159.919C291.681 160.24 291.772 160.602 291.872 161.004C291.943 161.305 292.023 161.627 292.103 161.958C292.133 162.079 292.164 162.199 292.184 162.32C292.314 162.872 292.435 163.455 292.555 164.028C292.857 165.504 293.078 166.931 293.038 167.745C292.937 169.985 300.914 159.407 300.914 159.407C300.914 159.407 299.055 152.415 298.241 144.368C297.418 136.301 291.27 158.673 291.27 158.673Z" fill="#EEA886"/>
<path d="M280.496 147.402C280.496 147.402 276.88 143.222 280.436 138.591C283.982 133.96 293.677 138.169 294.651 138.179C295.626 138.189 300.83 137.255 300.558 147.07C300.307 155.8 299.885 155.428 299.885 155.428C299.885 155.428 297.193 151.761 296.068 151.309C294.31 150.596 291.095 151.661 291.095 151.661C291.095 151.661 291.637 147.13 289.056 147.15C286.464 147.15 282.737 145.885 280.496 147.402Z" fill="#231F20"/>
<path d="M293.092 148.637C293.173 148.014 293.263 145.402 295.714 146.317C298.165 147.231 295.895 152.676 295.543 152.826C295.192 152.977 292.469 153.871 293.092 148.637Z" fill="#EEA886"/>
<path d="M292.336 218.688C292.336 218.688 293.19 214.659 293.361 214.056L318.556 218.246L318.305 221.5C318.295 221.5 300.142 220.416 292.336 218.688Z" fill="#23263D"/>
<path d="M318.626 198.535C318.626 198.535 317.279 216.066 326.19 234.902C327.275 237.202 309.504 237.082 309.504 237.082L318.626 198.535Z" fill="#E527BB"/>
<path d="M292.668 182.934C293 184.863 293.281 186.822 293.532 188.781C294.024 192.679 294.356 196.587 294.577 200.394C294.597 200.796 294.617 201.188 294.637 201.579C294.667 202.222 294.697 202.855 294.728 203.488C294.758 204.332 294.788 205.166 294.818 206C295.32 223.339 301.74 237.001 301.74 237.001C301.74 237.001 314.478 237.875 317.753 236.087C317.753 236.087 320.043 216.558 318.999 197.26C318.918 195.773 318.818 194.276 318.697 192.799C317.401 177.168 311.293 162.049 301.93 159.497C301.709 159.718 290.94 172.768 292.668 182.934Z" fill="#E527BB"/>
<path d="M251.508 213.809L284.754 212.465L284.631 209.423L251.385 210.768L251.508 213.809Z" fill="#E527BB"/>
<path d="M240.242 182.509L251.488 213.822L254.353 212.793L243.107 181.48L240.242 182.509Z" fill="#E527BB"/>
<path d="M296.969 265.241C297.903 271.309 301.952 283.977 302.042 284.258C302.073 283.233 302.073 282.359 302.012 281.656C301.852 279.667 301.61 277.477 301.399 275.217C301.399 275.196 301.399 275.186 301.389 275.166C301.178 273.197 299.772 269.571 298.828 267.109C297.883 264.628 296.959 254.773 296.959 254.773C296.959 254.773 296.025 259.103 296.969 265.241Z" fill="#191B2B"/>
<path d="M292.176 162.31C292.306 162.862 292.427 163.445 292.547 164.018C294.898 162.41 297.591 158.121 297.761 157.849C296.797 159.246 292.246 162.26 292.176 162.31Z" fill="#A77860"/>
<path d="M294.633 199.41C294.653 199.801 294.673 200.183 294.693 200.565C294.723 201.188 294.753 201.811 294.784 202.433C297.647 201.851 303.071 200.394 304.709 197.501C306.939 193.553 301.384 184.331 301.263 184.14C301.313 184.391 303.644 195.733 301.263 196.868C299.716 197.591 296.511 198.596 294.633 199.41Z" fill="#B03E3D"/>
<path d="M292.72 170.447C292.72 170.447 290.782 180.151 292.489 191.734C293.916 201.429 294.468 208.391 294.468 208.391L293.755 211.123L292.449 209.024C292.449 209.024 290.199 196.607 289.777 191.443C289.355 186.239 288.903 179.237 291.917 170.397L292.72 170.447Z" fill="#E527BB"/>
<path d="M292.836 170.457C292.836 170.457 292.595 170.769 292.214 170.889C291.822 171.01 291.169 170.457 292.786 167.484L292.836 170.457Z" fill="#282B45"/>
<path d="M300.636 158.291C300.636 158.291 295.713 164.55 292.488 166.248L292.619 171.512L301.942 159.497L300.636 158.291Z" fill="#A78BEF"/>
<path d="M311.314 175.47C310.932 173.079 308.139 162.902 302.393 164.399C296.647 165.896 298.264 172.818 299.52 178.042C300.836 183.497 305.537 196.687 304.713 197.511C303.89 198.335 297.239 201.348 295.783 201.851C294.336 202.353 285.104 205.276 284.4 205.588C283.707 205.889 287.967 213.434 287.967 213.434C287.967 213.434 310.962 205.598 314.86 203.056C318.758 200.505 311.314 175.47 311.314 175.47Z" fill="#E527BB"/>
</g>
<defs>
<linearGradient id="paint0_linear_1882_6284" x1="280.761" y1="94.733" x2="151.467" y2="324.195" gradientUnits="userSpaceOnUse">
<stop stop-color="#53D8FF"/>
<stop offset="1" stop-color="#3840F7"/>
</linearGradient>
<linearGradient id="paint1_linear_1882_6284" x1="268.636" y1="87.9027" x2="139.342" y2="317.365" gradientUnits="userSpaceOnUse">
<stop stop-color="#53D8FF"/>
<stop offset="1" stop-color="#3840F7"/>
</linearGradient>
<linearGradient id="paint2_linear_1882_6284" x1="253.197" y1="79.203" x2="123.902" y2="308.665" gradientUnits="userSpaceOnUse">
<stop stop-color="#53D8FF"/>
<stop offset="1" stop-color="#3840F7"/>
</linearGradient>
<linearGradient id="paint3_linear_1882_6284" x1="244.815" y1="74.4793" x2="115.521" y2="303.941" gradientUnits="userSpaceOnUse">
<stop stop-color="#53D8FF"/>
<stop offset="1" stop-color="#3840F7"/>
</linearGradient>
<linearGradient id="paint4_linear_1882_6284" x1="232.975" y1="67.8062" x2="103.68" y2="297.269" gradientUnits="userSpaceOnUse">
<stop stop-color="#53D8FF"/>
<stop offset="1" stop-color="#3840F7"/>
</linearGradient>
<linearGradient id="paint5_linear_1882_6284" x1="244.303" y1="173.769" x2="232.232" y2="210.305" gradientUnits="userSpaceOnUse">
<stop stop-color="#CB236D"/>
<stop offset="1" stop-color="#4C246D"/>
</linearGradient>
<linearGradient id="paint6_linear_1882_6284" x1="196.634" y1="154.345" x2="197.844" y2="156.961" gradientUnits="userSpaceOnUse">
<stop stop-color="#2B3582"/>
<stop offset="1" stop-color="#150E42"/>
</linearGradient>
<linearGradient id="paint7_linear_1882_6284" x1="193.278" y1="156.352" x2="194.061" y2="158.046" gradientUnits="userSpaceOnUse">
<stop stop-color="#2B3582"/>
<stop offset="1" stop-color="#150E42"/>
</linearGradient>
<linearGradient id="paint8_linear_1882_6284" x1="194.513" y1="156.995" x2="195.502" y2="159.134" gradientUnits="userSpaceOnUse">
<stop stop-color="#2B3582"/>
<stop offset="1" stop-color="#150E42"/>
</linearGradient>
<linearGradient id="paint9_linear_1882_6284" x1="165.064" y1="161.931" x2="172.496" y2="186.247" gradientUnits="userSpaceOnUse">
<stop stop-color="#F9B776"/>
<stop offset="1" stop-color="#F47960"/>
</linearGradient>
<linearGradient id="paint10_linear_1882_6284" x1="194.373" y1="155.285" x2="185.646" y2="183.836" gradientUnits="userSpaceOnUse">
<stop stop-color="#F9B776"/>
<stop offset="1" stop-color="#F47960"/>
</linearGradient>
<linearGradient id="paint11_linear_1882_6284" x1="147.153" y1="360.578" x2="133.097" y2="196.116" gradientUnits="userSpaceOnUse">
<stop stop-color="#F9B776"/>
<stop offset="1" stop-color="#F47960"/>
</linearGradient>
<linearGradient id="paint12_linear_1882_6284" x1="118.816" y1="363.025" x2="104.757" y2="198.52" gradientUnits="userSpaceOnUse">
<stop stop-color="#F9B776"/>
<stop offset="1" stop-color="#F47960"/>
</linearGradient>
<linearGradient id="paint13_linear_1882_6284" x1="148.699" y1="198.471" x2="146.059" y2="179.133" gradientUnits="userSpaceOnUse">
<stop stop-color="#F9B776"/>
<stop offset="1" stop-color="#F47960"/>
</linearGradient>
<linearGradient id="paint14_linear_1882_6284" x1="153.412" y1="175.183" x2="138.777" y2="130.431" gradientUnits="userSpaceOnUse">
<stop stop-color="#F9B776"/>
<stop offset="1" stop-color="#F47960"/>
</linearGradient>
<linearGradient id="paint15_linear_1882_6284" x1="149.062" y1="177.822" x2="134.428" y2="133.071" gradientUnits="userSpaceOnUse">
<stop stop-color="#F9B776"/>
<stop offset="1" stop-color="#F47960"/>
</linearGradient>
<linearGradient id="paint16_linear_1882_6284" x1="141.081" y1="203.236" x2="123.008" y2="203.236" gradientUnits="userSpaceOnUse">
<stop stop-color="#F9B776"/>
<stop offset="1" stop-color="#F47960"/>
</linearGradient>
<linearGradient id="paint17_linear_1882_6284" x1="153.293" y1="189.694" x2="173.257" y2="272.971" gradientUnits="userSpaceOnUse">
<stop stop-color="#2B3582"/>
<stop offset="1" stop-color="#150E42"/>
</linearGradient>
<linearGradient id="paint18_linear_1882_6284" x1="165.819" y1="176.568" x2="161.567" y2="195.261" gradientUnits="userSpaceOnUse">
<stop stop-color="#53D8FF"/>
<stop offset="1" stop-color="#3840F7"/>
</linearGradient>
<linearGradient id="paint19_linear_1882_6284" x1="163.59" y1="184.409" x2="161.557" y2="196.622" gradientUnits="userSpaceOnUse">
<stop stop-color="#53D8FF"/>
<stop offset="1" stop-color="#3840F7"/>
</linearGradient>
<linearGradient id="paint20_linear_1882_6284" x1="139.582" y1="211.723" x2="150.917" y2="211.723" gradientUnits="userSpaceOnUse">
<stop stop-color="#F9B776"/>
<stop offset="1" stop-color="#F47960"/>
</linearGradient>
<clipPath id="clip0_1882_6284">
<rect width="542.64" height="328.79" fill="white" transform="translate(0.742188)"/>
</clipPath>
</defs>
</svg>
