<svg width="533" height="331" viewBox="0 0 533 331" fill="none" xmlns="http://www.w3.org/2000/svg">
<g clip-path="url(#clip0_1325_11433)">
<path opacity="0.2" fill-rule="evenodd" clip-rule="evenodd" d="M0 7.5756C0 7.5756 496.166 -10.2363 522.25 8.76437C545.499 25.7019 520.61 239.759 514.929 286.131C514.801 287.134 513.992 287.91 512.938 288.028C382.355 302.136 78.1811 295.779 13.6451 294.227C12.5792 294.197 11.7008 293.49 11.49 292.498C2.02627 247.216 0 7.5756 0 7.5756Z" fill="#999999"/>
<g clip-path="url(#clip1_1325_11433)">
<path d="M329.925 225.723C300.121 253.154 263.04 253.101 225.32 237.891H225.318C203.243 228.995 179.894 213.555 167.203 193.657C150.038 167.111 156.026 144.274 169.262 115.717C186.831 77.785 215.267 55.2986 257.121 59.9355C310.826 65.8861 344.731 104.976 354.008 156.895C358.684 183.048 348.825 208.334 329.925 225.723Z" fill="#FCECDB"/>
<path d="M402.493 292.932C402.493 292.932 401.784 304.355 399.577 304.519C399.282 304.54 388.376 304.54 388.376 304.54L374.453 304.459C374.453 304.459 374.544 301.102 378.614 300.391C382.683 299.68 389.496 296.82 391.96 291.436C394.556 285.774 402.493 292.932 402.493 292.932Z" fill="#A78BEF"/>
<path d="M409.926 157.835C409.926 157.835 403.352 161.574 401.511 161.574C399.671 161.574 392.448 160.178 390.436 161.207C388.421 162.236 384.778 166.379 384.093 167.733C382.864 170.167 389.043 169.091 391.965 167.02C392.389 166.718 392.917 166.608 393.424 166.718C394.936 167.049 398.08 167.62 399.597 167.058C401.636 166.302 412.385 165.462 412.385 165.462L409.926 157.835Z" fill="#ED975D"/>
<path d="M459.934 106.89C459.934 106.89 453.121 155.356 441.838 159.696C436.272 161.837 411.667 166.693 404.39 167.181C404.39 167.181 402.606 165.734 403.041 159.843C403.041 159.843 428.818 150.371 432.48 145.221C437.93 137.556 429.096 113.904 435.934 106.706C442.773 99.5075 454.292 96.4113 459.934 106.89Z" fill="#886EE5"/>
<path d="M457.637 208.998C455.651 212.373 453.352 215.535 450.981 218.529C443.657 227.782 435.686 235.411 434.297 242.622C434.021 244.059 433.582 245.606 433.01 247.238C432.431 248.889 431.712 250.627 430.885 252.422C427.779 259.177 423.13 266.747 418.491 273.629C410.469 285.523 403.904 293.505 403.904 293.505C403.904 293.505 401.8 295.147 395.784 295.145C394.109 295.145 388.473 294.229 388.473 294.229C389.026 292.841 395.678 277.05 403.749 256.978C407.027 248.829 410.511 240.164 413.874 231.805C414.322 230.689 414.771 229.577 415.212 228.476C416.241 225.918 417.252 223.399 418.24 220.948C425.819 202.101 431.854 187.093 431.854 187.093C431.854 187.093 462.141 175.61 465.288 183.051C467.884 189.186 465.772 195.196 457.637 208.998Z" fill="#231F20"/>
<path d="M434.524 260.297C434.524 260.297 444.145 266.483 443.212 268.493C443.087 268.76 437.77 278.291 437.77 278.291L430.913 290.417C430.913 290.417 428.029 288.7 429.392 284.8C430.758 280.897 431.581 273.55 428.086 268.771C424.409 263.744 434.524 260.297 434.524 260.297Z" fill="#A78BEF"/>
<path d="M429.056 272.16C429.056 272.16 435.829 265.866 436.889 261.971C436.889 261.971 412.113 232.263 406.738 225.604C406.492 225.298 406.553 224.963 406.88 224.596C410.936 220.016 456.019 210.709 461.909 201.537C463.941 198.377 465.09 195.374 465.716 192.753C467.052 187.155 465.996 183.288 465.996 183.288L420.973 181.985C420.973 181.985 383.486 205.344 379.241 221.271C375 237.195 429.056 272.16 429.056 272.16Z" fill="#231F20"/>
<path d="M406.879 224.594C410.935 220.014 456.018 210.707 461.908 201.535C463.94 198.375 465.089 195.372 465.715 192.751V187.049L446.579 184.037C446.579 184.037 441.153 200.747 425.081 207.014C410.03 212.882 407.178 223.297 406.879 224.594Z" fill="#302F35"/>
<path d="M433.297 103.837C442.404 106.192 457.505 97.7481 457.505 97.7481C457.505 97.7481 451.641 93.8051 449.468 85.1425C449.358 84.7053 449.26 84.2597 449.169 83.7992C448.215 83.5975 446.417 83.2134 444.491 82.8081L437.534 89.0451C437.534 89.0451 437.693 91.6342 438.562 96.0865C438.713 96.8632 438.887 97.6972 439.086 98.5843C435.354 100.897 433.297 103.837 433.297 103.837Z" fill="#FFB27D"/>
<path d="M467.145 141.62C465.84 159.178 467.556 185.886 466.076 190.512C464.799 194.502 450.246 192.129 444.436 190.799C442.286 190.306 439.682 189.602 436.993 188.768C429.491 186.442 421.316 183.123 420.438 180.659C420.404 180.561 420.374 180.468 420.358 180.374C420.277 180.016 420.294 179.681 420.372 179.341C420.665 178.085 421.791 176.726 421.925 173.615C422.073 170.144 422.05 166.052 422.181 161.655C422.188 161.16 422.194 160.619 422.249 160.127L422.251 159.947C422.253 159.851 422.255 159.76 422.257 159.664C422.383 154.76 422.639 149.603 422.936 144.491C423.125 141.278 423.343 138.099 423.596 135.051C424.251 127.185 425.131 120.19 426.299 115.767C428.206 108.558 432.413 103.856 436.24 100.411L439.01 98.0346C442.099 98.7094 445.753 98.2617 449.057 96.6955C452.632 94.9957 453.868 93.7797 454.489 94.238C462.744 100.613 468.684 120.152 467.145 141.62Z" fill="#A78BEF"/>
<path d="M436.995 188.768C429.492 186.442 421.318 183.123 420.44 180.659C420.406 180.561 420.376 180.468 420.359 180.375C420.364 180.031 420.368 179.687 420.374 179.341C420.667 178.085 421.793 176.727 421.926 173.615C422.075 170.144 422.052 166.052 422.183 161.655C422.189 161.16 422.196 160.619 422.251 160.127L422.253 159.947C422.255 159.851 422.257 159.76 422.259 159.664L452.591 120.992C452.589 120.994 472.978 163.482 436.995 188.768Z" fill="#886EE5"/>
<path d="M437.535 89.0429C437.535 89.0429 437.694 91.632 438.564 96.0843C445.358 93.8878 448.439 87.7463 449.467 85.1403C449.357 84.7031 449.26 84.2575 449.168 83.797C448.214 83.5954 446.416 83.2112 444.49 82.8059L437.535 89.0429Z" fill="#ED975D"/>
<path d="M436.62 92.9689C436.62 92.9689 451.434 90.4945 449.753 81.2843C448.071 72.0741 448.851 65.5527 439.32 66.7433C429.79 67.9338 428.598 71.7834 428.412 74.9942C428.227 78.2051 432.723 93.3743 436.62 92.9689Z" fill="#FFB27D"/>
<path d="M414.689 169.127L377.703 169.917L367.189 137.53L365.883 137.957L376.999 172.192L414.735 171.385L414.689 169.127Z" fill="#4A75CB"/>
<path d="M413.979 173.189C413.979 173.189 401.853 176.389 397.305 176.052C392.759 175.716 388.976 173.552 388.403 172.421C387.83 171.29 386.628 169.286 389.724 169.658C392.82 170.027 397.046 170.687 397.178 170.09C397.309 169.496 394.654 169.551 394.654 169.551C394.654 169.551 393.853 168.384 394.862 168.342C395.871 168.299 398.819 167.499 399.913 168.047C401.007 168.594 402.019 170.617 402.818 170.534C403.618 170.449 412.965 166.322 412.965 166.322L413.979 173.189Z" fill="#FFB27D"/>
<path d="M456.925 108.879C456.925 108.879 455.492 157.801 444.756 163.361C439.458 166.105 415.539 173.645 408.359 174.933C408.359 174.933 406.427 173.692 406.211 167.788C406.211 167.788 430.788 155.53 433.86 150.006C438.432 141.787 427.047 119.254 433.052 111.345C439.058 103.433 450.165 99.0872 456.925 108.879Z" fill="#A78BEF"/>
<path d="M449.466 85.1425C449.466 85.1425 449.636 81.9826 447.687 80.1724C447.687 80.1724 448.366 77.004 447.112 76.482C445.859 75.9599 445.598 78.6232 445.026 78.2052C444.451 77.7871 441.896 75.8029 440.8 72.8786C439.703 69.9542 429.675 73.4961 428.507 74.0224C427.339 74.5487 423.581 72.6175 422.852 71.0493C422.852 71.0493 424.938 69.3791 425.878 68.1249C426.817 66.8707 433.39 58.4118 442.574 60.8141C451.758 63.2164 453.009 67.6029 452.488 71.3633C451.966 75.1238 453.226 83.8798 449.466 85.1425Z" fill="#231F20"/>
<path d="M543.377 306H-5.37657C-5.72009 306 -6 305.72 -6 305.376V305.164C-6 304.82 -5.72009 304.54 -5.37657 304.54H543.377C543.72 304.54 544 304.82 544 305.164V305.376C544 305.72 543.72 306 543.377 306Z" fill="#2E3552"/>
<path d="M169.033 267.612C169.033 267.612 163.11 260.698 168.668 256.305C168.668 256.305 172.727 253.846 176.037 254.045C176.037 254.045 171.348 261.914 172.865 262.697C174.383 263.48 177.458 253.551 177.458 253.551C177.458 253.551 186.695 252.655 189.665 254.084C189.665 254.084 181.769 260.55 183.431 260.936C185.094 261.32 193.622 254.973 193.622 254.973C193.622 254.973 202.219 256.437 201.761 261.685C201.303 266.933 198.34 268.555 197.038 268.415C195.736 268.274 188.12 265.365 187.954 266.432C187.789 267.5 192.373 270.989 195.584 271.152C195.584 271.152 189.523 277.841 185.494 275.912C181.468 273.981 181.122 270.921 178.611 269.773C176.1 268.625 173.957 268.627 174.994 269.798C176.031 270.97 180.575 272.107 182.01 274.647C183.446 277.19 184.735 278.904 180.566 278.276C176.397 277.648 169.624 274.596 169.328 271.101C169.033 267.612 169.033 267.612 169.033 267.612Z" fill="#24AA24"/>
<path d="M197.539 261.83C197.539 261.83 174.19 260.93 169.033 267.612C169.033 267.612 167.892 271.031 164.383 274.142L163.836 275.634C163.836 275.634 167.882 271.364 169.33 271.106C169.332 271.106 167.068 262.827 197.539 261.83Z" fill="#82B378"/>
<path d="M164.384 274.142C164.384 274.142 159.371 277.852 159.023 284.479L159.933 284.56C159.933 284.56 161.534 277.708 164.427 275.027C167.321 272.349 164.384 274.142 164.384 274.142Z" fill="#82B378"/>
<path d="M148.329 258.916C148.329 258.916 157.75 253.636 153.352 246.471C153.352 246.471 149.834 242.072 146.068 240.941C146.068 240.941 148.079 251.626 146.068 251.877C144.058 252.129 144.686 239.81 144.686 239.81C144.686 239.81 134.764 235.033 130.871 235.411C130.871 235.411 137.024 245.843 135.016 245.593C133.006 245.34 126.099 234.783 126.099 234.783C126.099 234.783 115.925 232.898 114.292 238.931C112.66 244.965 115.298 247.982 116.805 248.358C118.313 248.736 127.985 248.611 127.732 249.867C127.48 251.123 120.949 253.135 117.308 252.004C117.308 252.004 121.328 261.933 126.602 261.43C131.878 260.928 133.511 257.659 136.776 257.409C140.042 257.156 142.427 258.037 140.795 258.918C139.162 259.799 133.636 259.206 130.998 261.45C128.36 263.693 126.225 265.076 131.123 266.082C136.021 267.088 144.813 266.46 146.573 262.689C148.329 258.916 148.329 258.916 148.329 258.916Z" fill="#39B039"/>
<path d="M118.938 240.816C118.938 240.816 145.315 249.364 148.328 258.918C148.328 258.918 148.203 263.192 150.841 268.094V269.981C150.841 269.981 148.078 263.57 146.57 262.691C146.57 262.687 152.473 254.391 118.938 240.816Z" fill="#82B378"/>
<path d="M150.839 268.092C150.839 268.092 154.906 274.274 152.588 281.799L151.541 281.517C151.541 281.517 152.556 273.228 150.427 269.06C148.301 264.892 150.839 268.092 150.839 268.092Z" fill="#82B378"/>
<path d="M163.316 251.635C163.316 251.635 150.898 244.676 156.693 235.23C156.693 235.23 161.329 229.43 166.297 227.941C166.297 227.941 163.649 242.025 166.297 242.357C168.946 242.688 168.119 226.449 168.119 226.449C168.119 226.449 181.198 220.152 186.332 220.649C186.332 220.649 178.219 234.403 180.867 234.069C183.516 233.738 192.623 219.819 192.623 219.819C192.623 219.819 206.033 217.334 208.188 225.288C210.34 233.242 206.863 237.219 204.876 237.715C202.889 238.212 190.14 238.046 190.471 239.704C190.802 241.361 199.411 244.012 204.214 242.52C204.214 242.52 198.917 255.609 191.962 254.947C185.009 254.285 182.856 249.977 178.552 249.646C174.247 249.315 171.1 250.474 173.255 251.635C175.407 252.793 182.693 252.014 186.168 254.973C189.646 257.931 192.46 259.754 186.003 261.08C179.546 262.407 167.955 261.577 165.638 256.607C163.316 251.635 163.316 251.635 163.316 251.635Z" fill="#39B039"/>
<path d="M202.062 227.775C202.062 227.775 167.292 239.042 163.318 251.635C163.318 251.635 163.483 257.269 160.008 263.731V266.216C160.008 266.216 163.651 257.766 165.638 256.605C165.636 256.607 157.853 245.671 202.062 227.775Z" fill="#82B378"/>
<path d="M160.005 263.731C160.005 263.731 154.642 271.88 157.7 281.799L159.081 281.428C159.081 281.428 157.74 270.503 160.546 265.006C163.351 259.514 160.005 263.731 160.005 263.731Z" fill="#82B378"/>
<path d="M162.899 303.311C176.332 303.311 187.223 292.412 187.223 278.968H138.574C138.574 292.412 149.465 303.311 162.899 303.311Z" fill="#E31E23"/>
<path d="M168.883 303.125C167.895 303.248 166.886 303.311 165.861 303.311C152.428 303.311 141.539 292.412 141.539 278.968H147.583C147.583 291.387 156.877 301.635 168.883 303.125Z" fill="#FF6638"/>
<path d="M187.559 304.549H138.238C138.238 302.891 139.583 301.546 141.239 301.546H184.557C186.215 301.546 187.559 302.891 187.559 304.549Z" fill="#E31E23"/>
<path d="M187.775 278.968H137.773V279.715H187.775V278.968Z" fill="#D86713"/>
<path d="M494.279 303.224C488.495 297.31 478.301 293.237 466.528 292.758V273.2H484.72C485.17 273.2 485.572 272.807 485.829 272.2C486.007 271.774 486.113 271.248 486.113 270.675V269.792C486.113 268.402 485.485 267.266 484.72 267.266H466.53V220.683C466.53 219.397 465.478 218.344 464.193 218.344C462.908 218.344 461.857 219.397 461.857 220.683V267.266H443.665C442.899 267.266 442.272 268.404 442.272 269.792V270.675C442.272 271.267 442.386 271.812 442.575 272.243C442.829 272.826 443.224 273.2 443.665 273.2H461.857V292.758C450.084 293.237 439.89 297.308 434.105 303.224C433.686 303.653 433.289 304.092 432.918 304.54H495.473C495.098 304.092 494.701 303.653 494.279 303.224Z" fill="#D39E7A"/>
<path d="M466.529 292.845C458.314 293.605 451.255 297.575 447.167 303.224C446.855 303.655 446.563 304.092 446.287 304.54H440.5C440.776 304.092 441.068 303.655 441.38 303.224C445.939 296.922 454.201 292.711 463.635 292.711C464.614 292.711 465.579 292.756 466.529 292.845Z" fill="#E0B594"/>
<path d="M494.355 202.685H432.411C430.867 202.685 429.605 203.95 429.605 205.492V217.243C429.605 218.788 430.869 220.05 432.411 220.05H494.355C495.899 220.05 497.161 218.786 497.161 217.243V205.492C497.161 203.947 495.899 202.685 494.355 202.685Z" fill="#E527BB"/>
<path d="M151.448 113.297C150.409 116.092 148.608 119.337 146.719 120.143C144.577 121.058 143.682 122.35 143.682 122.35L141.952 121.347L139.887 120.145C139.887 120.145 139.935 119.916 140.037 119.543C140.137 119.171 140.292 118.651 140.502 118.076C140.502 118.076 141.136 117.261 140.748 116.236C140.36 115.214 140.436 113.633 141.1 112.667C141.763 111.704 142.402 109.329 142.8 109.399C143.767 109.564 142.325 112.828 142.739 113.435C143.112 113.983 143.581 113.794 143.668 113.754C143.674 113.749 143.678 113.747 143.685 113.745C146.395 112.552 149.681 106.122 151.138 106.99C151.681 107.313 151.891 112.107 151.448 113.297Z" fill="#FFB27D"/>
<path d="M142.073 117.191L145.468 119.581C145.708 119.748 146.043 119.691 146.21 119.451L154.908 107.064C155.076 106.824 155.019 106.489 154.779 106.322L151.384 103.934C151.145 103.764 150.809 103.824 150.642 104.064L141.944 116.451C141.776 116.688 141.833 117.021 142.073 117.191Z" fill="#D31CB0"/>
<path d="M145.18 119.377L147.171 120.778C147.354 120.905 147.608 120.863 147.735 120.678L156.58 108.083C156.709 107.9 156.665 107.646 156.48 107.518L154.489 106.118C154.307 105.988 154.052 106.033 153.925 106.218L145.08 118.813C144.953 118.993 144.998 119.248 145.18 119.377Z" fill="#D31CB0"/>
<path d="M93.3615 99.416C93.3615 99.416 110.639 129.574 116.908 135.124L139.89 117.976C139.89 117.976 143.225 118.999 144.684 122.35C144.684 122.35 130.727 150.806 116.986 152.014C103.245 153.219 83.957 117.906 83.957 117.906L93.3615 99.416Z" fill="#D31CB0"/>
<path d="M54.2662 304.54H44.2828C43.0254 303.856 41.9057 302.292 41.5516 299.962C41.0639 296.743 37.459 294.988 36.6787 292.356C35.9004 289.725 39.8955 286.02 39.8955 286.02L40.5635 285.158L41.259 284.265L47.8856 285.827C47.8856 285.827 48.0489 287.405 48.1485 289.417C48.2206 290.869 48.2588 292.545 48.1782 294.016C47.9831 297.526 49.1579 301.306 52.275 301.989C54.58 302.492 54.4783 303.859 54.2662 304.54Z" fill="#A78BEF"/>
<path d="M112.201 304.54H89.3719C88.2735 303.199 88.6785 298.25 88.8439 296.635C88.8778 296.31 88.9011 296.119 88.9011 296.119C88.9011 296.119 96.6983 289.878 97.767 294.657C97.7988 294.808 97.8391 294.954 97.8815 295.098C99.2302 299.568 105.282 301.599 108.777 302.165C111.052 302.532 111.892 303.714 112.201 304.54Z" fill="#A78BEF"/>
<path d="M107.851 177.008C107.851 177.008 106.668 191.789 105.277 209.556C103.385 233.691 101.112 263.338 100.887 268.953C100.499 278.705 98.9385 294.305 98.9385 294.305C98.9385 294.305 95.2382 298.01 87.8312 296.448C87.8312 296.448 81.2322 274.178 79.3449 250.618C79.3152 250.232 79.2856 249.843 79.258 249.453C77.5043 225.466 74.7773 174.958 74.7773 174.958L107.851 177.008Z" fill="#231F20"/>
<path d="M107.851 177.009C107.851 177.009 106.668 191.789 105.277 209.556L79.3449 250.62C79.3152 250.234 79.2856 249.845 79.258 249.455C77.5043 225.468 74.7773 174.961 74.7773 174.961L107.851 177.009Z" fill="#302F35"/>
<path d="M102.447 178.764C102.447 178.764 81.1106 232.293 67.0813 257.449C53.052 282.605 48.6668 289.625 48.6668 289.625C48.6668 289.625 40.63 286.408 39.8984 284.214C39.8984 284.214 45.2633 235.648 54.6593 223.811C59.9691 217.122 66.2034 197.046 66.4961 190.026C66.7887 183.006 68.396 169.112 68.396 169.112L102.447 178.764Z" fill="#231F20"/>
<path d="M97.1309 100.728C88.793 103.361 74.3672 96.2541 74.3672 96.2541C74.3672 96.2541 82.0541 90.4797 81.6512 78.4746L88.0975 83.6739L92.4764 87.2052C92.4764 87.2052 92.4573 89.287 91.9802 92.935C91.8529 93.8942 91.696 94.9638 91.4988 96.1331C95.0761 98.1025 97.1309 100.728 97.1309 100.728Z" fill="#FFB27D"/>
<path d="M92.4778 87.2074C92.4778 87.2074 92.4587 89.2893 91.9816 92.9373C87.1299 92.1033 81.625 84.2555 81.625 84.2555C84.0954 83.5425 86.2583 83.413 88.0989 83.6761L92.4778 87.2074Z" fill="#ED975D"/>
<path d="M95.0279 87.008C95.0279 87.008 81.2551 89.2978 79.9638 80.6924C78.6702 72.0871 76.0217 66.5864 84.7604 64.7614C93.499 62.9363 95.7043 65.9604 96.8346 68.7298C97.9627 71.4971 98.5755 86.1909 95.0279 87.008Z" fill="#FFB27D"/>
<path d="M108.769 178.24C108.519 178.448 108.227 178.575 107.894 178.575C104.762 178.532 95.6329 180.273 87.9057 179.479C81.3936 178.853 75.628 176.922 69.4382 174.146C68.6154 173.777 66.7239 172.766 66.7663 171.848C66.7939 170.842 66.8936 169.38 67.0187 167.542C67.4576 161.148 68.221 150.148 67.4767 137.458C67.3431 135.096 67.2731 132.751 67.2646 130.444C67.201 113.246 70.6087 98.1195 77.4558 93.0008C78.0411 92.5806 81.6311 94.3378 84.9307 95.9655C87.98 97.4701 91.0271 97.6356 93.9068 97.052L96.7865 99.6007C100.294 102.86 104.136 107.289 105.805 114.017C107.226 119.74 108.059 130.062 108.519 140.76C108.727 145.607 108.897 150.497 108.939 155.136V155.301C108.979 155.762 108.979 156.262 108.979 156.723C109.145 168.628 108.977 178.072 108.769 178.24Z" fill="#E527BB"/>
<path d="M67.0195 167.538C67.4585 161.143 68.2219 150.144 67.4776 137.454C67.344 135.092 67.274 132.747 67.2655 130.44C70.1176 123.515 72.4502 118.494 72.4502 118.494H79.6387C79.6366 118.494 84.9082 154.524 67.0195 167.538Z" fill="#D31CB0"/>
<path d="M64.8171 184.924L34.1544 180.553C30.1636 179.984 26.4336 182.785 25.8654 186.779L23.9717 200.076C23.4034 204.07 26.2025 207.803 30.1933 208.372L60.856 212.746C64.8468 213.315 68.5768 210.513 69.1451 206.519L71.0387 193.222C71.607 189.228 68.8079 185.493 64.8171 184.924Z" fill="#8C76DD"/>
<path d="M66.5463 188.889C65.6854 186.728 63.8257 185.024 61.4656 184.447H61.4634C61.4613 184.447 61.4592 184.447 61.4571 184.445C61.2259 184.387 60.9906 184.343 60.7488 184.307L54.6439 183.437L55.051 180.568C55.1422 179.927 54.9789 179.288 54.5887 178.768C54.1986 178.25 53.6303 177.911 52.9899 177.821L51.3974 177.594L44.987 176.68L43.8314 176.514C42.5082 176.325 41.274 177.251 41.0874 178.577L40.6803 181.446L30.1413 179.941C26.1357 179.371 22.393 182.183 21.8204 186.191L19.9056 199.644C19.3352 203.652 22.1449 207.398 26.1505 207.969L56.758 212.336C57.2988 212.415 57.8331 212.428 58.3548 212.387H58.3569C58.359 212.387 58.359 212.387 58.3611 212.387C59.1987 212.324 60.0045 212.113 60.7509 211.785C63.0008 210.791 64.71 208.69 65.081 206.087L66.998 192.634C67.1825 191.325 67.0086 190.043 66.5463 188.889ZM42.5972 178.791C42.6545 178.39 42.9683 178.087 43.35 178.025C43.4391 178.01 43.5281 178.008 43.6236 178.021L44.9849 178.214L50.0296 178.936L52.7799 179.328C53.274 179.398 53.6197 179.859 53.5497 180.353L53.1425 183.222L42.1901 181.658L42.5972 178.791Z" fill="#A78BEF"/>
<path d="M51.8043 172.285C51.8128 172.121 51.8213 171.954 51.834 171.78C51.8976 170.922 53.5092 168.775 53.5092 168.775L49.4717 166.678L47.8729 169.322C45.4576 171.245 45.4152 171.279 45.8541 174.961C46.2358 178.153 44.1492 178.191 44.2001 180.468C44.2489 182.747 47.1837 181.626 47.1837 181.626C51.7301 179.489 52.1075 178.414 51.9676 176.249C52.398 176.862 52.8815 177.219 53.2908 176.951C53.6513 176.716 52.9303 175.784 52.6165 173.624C52.5698 173.301 52.1881 172.76 51.8043 172.285Z" fill="#FFB27D"/>
<path d="M49.4158 170.421C52.005 170.927 54.8104 170.723 54.8104 170.723C54.8104 170.723 62.4951 146.961 63.4854 144.79C64.4736 142.619 86.3149 116.928 86.3149 116.928L77.2158 94.1404C77.2158 94.1404 53.5932 133.63 51.1949 139.179C47.2317 148.349 45.8555 168.906 45.8555 168.906C45.8555 168.906 47.3822 170.025 49.4158 170.421Z" fill="#E527BB"/>
<path d="M79.9524 79.8647C79.9524 79.8647 81.3646 79.6291 81.1377 77.681C80.9087 75.7328 80.913 73.1862 82.4949 73.6616C84.0768 74.1348 84.1574 75.4039 84.8062 74.6632C85.4572 73.9226 85.4678 70.803 90.1775 70.5844C94.8872 70.3659 96.7999 72.0084 98.9904 71.045C101.181 70.0815 101.295 66.7646 101.295 66.7646C101.295 66.7646 100.672 67.9487 99.7325 68.3265C99.7325 68.3265 103.386 63.3245 99.1558 59.8951C94.9253 56.4657 90.6122 58.711 88.1651 58.8595C82.7727 59.1863 79.2887 59.511 77.5265 63.0571C75.7644 66.6033 76.4917 76.4501 79.9524 79.8647Z" fill="#231F20"/>
<mask id="mask0_1325_11433" style="mask-type:luminance" maskUnits="userSpaceOnUse" x="156" y="59" width="200" height="190">
<path d="M329.925 225.723C300.121 253.154 263.04 253.101 225.32 237.891H225.318C203.243 228.995 179.894 213.555 167.203 193.657C150.038 167.111 156.026 144.274 169.262 115.717C186.831 77.785 215.267 55.2986 257.121 59.9355C310.826 65.8861 344.731 104.976 354.008 156.895C358.684 183.048 348.825 208.334 329.925 225.723Z" fill="white"/>
</mask>
<g mask="url(#mask0_1325_11433)">
<path d="M274.994 173.374C274.994 173.374 261.058 170.566 258.731 170.789C256.403 171.009 248.337 174.638 248.248 175.303C248.156 175.967 248.557 176.495 249.967 176.553C251.38 176.61 256.002 175.893 255.722 176.463C255.443 177.034 242.151 180.012 242.075 182.707C241.998 185.402 249.448 190.211 255.642 190.385C261.836 190.559 273.806 183.048 274.847 182.93C283.669 181.924 274.994 173.374 274.994 173.374Z" fill="#ED975D"/>
<path d="M351.115 142.377C345.672 149.162 341.134 154.423 338.742 156.335C336.842 157.854 334.435 159.41 331.679 160.967C311.812 172.189 273.598 183.575 273.598 183.575C273.598 183.575 273.57 183.556 273.522 183.52C273.042 183.169 270.415 181.147 268.75 177.779C267.296 174.834 267.595 173.006 268.027 172.047C268.29 171.464 268.602 171.201 268.602 171.201C268.602 171.201 314.394 141.91 318.057 138.861C320.133 137.131 327.654 119.607 333.78 104.749C334.637 105.993 335.466 107.256 336.27 108.535C342.697 118.751 347.657 130.154 351.115 142.377Z" fill="#886EE5"/>
<path d="M351.429 194.241C351.14 195.06 350.837 195.875 350.521 196.683C349.037 200.478 347.245 204.145 345.171 207.655V207.657C343.941 209.745 342.612 211.778 341.189 213.75C337.995 218.181 334.333 222.302 330.262 226.046C330.283 225.74 330.306 225.432 330.327 225.127C330.359 224.653 330.393 224.184 330.427 223.72C330.501 222.688 330.573 221.674 330.643 220.681C330.673 220.295 330.699 219.913 330.726 219.533C330.9 217.073 331.068 214.741 331.222 212.551C331.267 211.92 331.311 211.305 331.354 210.698C331.367 210.518 331.379 210.339 331.392 210.161C331.42 209.807 331.443 209.452 331.468 209.104C331.492 208.788 331.513 208.478 331.534 208.171C331.536 208.139 331.538 208.107 331.54 208.077C331.562 207.763 331.583 207.453 331.606 207.146C331.644 206.628 331.68 206.123 331.714 205.626C331.735 205.318 331.757 205.015 331.78 204.716C331.812 204.249 331.846 203.795 331.875 203.351C331.884 203.245 331.892 203.137 331.899 203.031C331.916 202.821 331.931 202.608 331.943 202.403C331.95 202.299 331.958 202.195 331.964 202.095C331.967 202.082 331.967 202.069 331.967 202.057C331.996 201.66 332.022 201.271 332.049 200.896C332.051 200.877 332.054 200.856 332.054 200.836C332.073 200.563 332.094 200.293 332.111 200.032C332.117 199.943 332.124 199.856 332.128 199.773C332.138 199.623 332.149 199.476 332.16 199.33C332.168 199.211 332.179 199.092 332.185 198.975C332.242 198.156 332.297 197.407 332.344 196.736C332.35 196.641 332.359 196.545 332.363 196.452C332.37 196.357 332.378 196.263 332.382 196.17C332.395 195.994 332.408 195.822 332.418 195.658C332.503 194.472 332.562 193.608 332.599 193.103C332.603 193.05 332.605 193.001 332.609 192.957C332.611 192.942 332.611 192.927 332.613 192.914C332.618 192.868 332.62 192.825 332.62 192.789C332.63 192.647 332.637 192.573 332.637 192.573L351.429 194.241Z" fill="#6BB7BF"/>
<path d="M351.429 194.241C351.14 195.06 350.837 195.875 350.521 196.683C349.037 200.478 347.245 204.145 345.171 207.655V207.657C343.941 209.745 342.612 211.778 341.189 213.75C337.995 218.181 334.333 222.302 330.262 226.046C330.283 225.74 330.306 225.432 330.327 225.127C330.359 224.653 330.393 224.184 330.427 223.72C330.501 222.688 330.573 221.674 330.643 220.681C330.673 220.295 330.699 219.913 330.726 219.533C330.9 217.073 331.068 214.741 331.222 212.551C331.267 211.92 331.311 211.305 331.354 210.698C331.367 210.518 331.379 210.339 331.392 210.161C331.42 209.807 331.443 209.452 331.468 209.104C331.492 208.788 331.513 208.478 331.534 208.171C331.536 208.139 331.538 208.107 331.54 208.077C331.562 207.763 331.583 207.453 331.606 207.146C331.644 206.628 331.68 206.123 331.714 205.626C331.735 205.318 331.757 205.015 331.78 204.716C331.812 204.249 331.846 203.795 331.875 203.351C331.884 203.245 331.892 203.137 331.899 203.031C331.916 202.821 331.931 202.608 331.943 202.403C331.95 202.299 331.958 202.195 331.964 202.095C331.967 202.082 331.967 202.069 331.967 202.057C331.996 201.66 332.022 201.271 332.049 200.896C332.051 200.877 332.054 200.856 332.054 200.836C332.073 200.563 332.094 200.293 332.111 200.032C332.117 199.943 332.124 199.856 332.128 199.773C332.138 199.623 332.149 199.476 332.16 199.33C332.168 199.211 332.179 199.092 332.185 198.975C332.242 198.156 332.297 197.407 332.344 196.736C332.35 196.641 332.359 196.545 332.363 196.452C332.37 196.357 332.378 196.263 332.382 196.17C332.395 195.994 332.408 195.822 332.418 195.658C332.503 194.472 332.562 193.608 332.599 193.103C332.603 193.05 332.605 193.001 332.609 192.957C332.611 192.942 332.611 192.927 332.613 192.914C332.618 192.868 332.62 192.825 332.62 192.789C332.63 192.647 332.637 192.573 332.637 192.573L351.429 194.241Z" fill="#599DAD"/>
<path d="M354.447 156.912C356.771 169.917 355.516 182.628 351.424 194.243C351.135 195.062 350.832 195.877 350.516 196.686C349.032 200.48 347.24 204.147 345.166 207.657V207.659C343.936 209.747 342.606 211.78 341.184 213.752C337.102 213.162 333.779 212.678 331.732 212.627C331.554 212.621 331.383 212.595 331.219 212.557C330.761 212.451 330.358 212.222 330.006 211.899C329.601 211.547 329.985 192.67 331.228 168.894C331.264 167.977 331.3 166.969 331.419 166.059L331.427 165.723C331.503 164.153 331.586 162.568 331.673 160.97C331.726 160.049 331.777 159.123 331.834 158.192C332.218 151.851 332.693 145.365 333.21 138.897C333.261 138.277 333.31 137.656 333.359 137.038C334.175 127.083 335.134 117.298 336.266 108.544C342.693 118.756 347.653 130.158 351.112 142.382C352.45 147.105 353.563 151.957 354.447 156.912Z" fill="#A78BEF"/>
<path d="M183.461 192.038C183.234 185.383 182.895 177.454 182.447 168.891C182.411 167.975 182.371 166.967 182.256 166.056L182.241 165.721C182.205 164.961 182.169 164.199 182.129 163.433C182.108 163 182.085 162.567 182.061 162.132C181.993 160.827 181.917 159.514 181.836 158.192C181.453 151.851 180.976 145.365 180.462 138.897C180.407 138.277 180.361 137.655 180.31 137.038C179.557 127.815 178.679 118.738 177.651 110.492V110.488C177.644 110.441 177.638 110.396 177.634 110.35C177.506 109.314 177.371 108.287 177.237 107.277C176.968 105.244 176.69 103.268 176.399 101.366C176.003 102.016 175.613 102.672 175.229 103.334C172.958 107.219 170.844 111.3 168.876 115.549C164.862 124.209 161.458 133.579 158.61 143.443C158.591 143.506 158.574 143.568 158.555 143.629C157.629 146.849 156.986 150.03 156.611 153.168V153.171C156.556 153.616 156.507 154.064 156.462 154.51V154.512C155.095 168.701 159.134 181.979 166.804 193.842C167.065 194.251 167.336 194.659 167.61 195.064C168.151 195.871 168.71 196.671 169.287 197.462C169.692 198.022 170.108 198.581 170.532 199.134C170.619 199.251 170.708 199.368 170.801 199.485C173.73 203.281 177.031 206.91 180.638 210.356C181.224 210.915 181.813 211.468 182.413 212.016C182.562 212.152 182.712 212.288 182.863 212.423C183.158 212.298 183.425 212.12 183.671 211.899C183.929 211.668 183.866 203.86 183.461 192.038Z" fill="#E527BB"/>
<path d="M183.459 192.038C172.776 180.835 163.872 167.083 156.609 153.166V153.164C156.987 150.026 157.627 146.844 158.554 143.625C158.573 143.561 158.59 143.5 158.609 143.438C161.457 133.575 164.86 124.205 168.874 115.545C175.431 124.925 180.028 133.558 180.31 137.034C180.361 137.651 180.41 138.271 180.463 138.893C180.974 145.361 181.453 151.848 181.837 158.187C181.918 159.509 181.994 160.825 182.062 162.128C182.085 162.563 182.109 162.996 182.13 163.429C182.17 164.195 182.206 164.959 182.242 165.717L182.257 166.052C182.372 166.963 182.412 167.971 182.448 168.887C182.893 177.452 183.232 185.381 183.459 192.038Z" fill="#D31CB0"/>
<path d="M231.972 174.21C231.972 174.21 246.188 174.225 248.425 174.904C250.662 175.583 257.849 180.74 257.808 181.408C257.766 182.077 257.268 182.516 255.874 182.293C254.479 182.07 250.09 180.449 250.251 181.064C250.412 181.68 262.849 187.236 262.391 189.892C261.933 192.549 253.678 195.784 247.573 194.725C241.468 193.666 231.221 183.929 230.225 183.607C221.777 180.869 231.972 174.21 231.972 174.21Z" fill="#FFB27D"/>
<path d="M234.545 179.065C233.25 181.291 231.543 182.853 230.436 183.717C229.761 184.243 229.312 184.511 229.312 184.511C229.312 184.511 201.957 174.261 182.128 163.429C175.574 159.849 169.842 156.205 166.193 152.848C164.543 151.331 161.869 147.946 158.605 143.436C161.453 133.572 164.857 124.203 168.871 115.543C170.839 111.292 172.953 107.213 175.224 103.327C176.015 105.685 176.829 108.096 177.648 110.483V110.488C181.991 123.17 186.444 135.325 188.03 136.843C191.471 140.141 235.141 172.514 235.141 172.514C235.141 172.514 235.705 173.062 235.86 174.239C236.006 175.307 235.809 176.896 234.545 179.065Z" fill="#E527BB"/>
<path d="M288.341 78.4749H213.758V146.176H288.341V78.4749Z" fill="#DDEBFD"/>
<path d="M288.341 74.415H213.758V78.4769H288.341V74.415Z" fill="#E527BB"/>
<path d="M216.257 75.6331C215.81 75.6331 215.445 75.9959 215.445 76.4458C215.445 76.8957 215.808 77.2586 216.257 77.2586C216.707 77.2586 217.07 76.8957 217.07 76.4458C217.07 75.9959 216.707 75.6331 216.257 75.6331Z" fill="#DDEBFD"/>
<path d="M219.437 75.6331C218.99 75.6331 218.625 75.9959 218.625 76.4458C218.625 76.8957 218.988 77.2586 219.437 77.2586C219.887 77.2586 220.249 76.8957 220.249 76.4458C220.249 75.9959 219.887 75.6331 219.437 75.6331Z" fill="#DDEBFD"/>
<path d="M222.636 75.6331C222.189 75.6331 221.824 75.9959 221.824 76.4458C221.824 76.8957 222.189 77.2586 222.636 77.2586C223.084 77.2586 223.449 76.8957 223.449 76.4458C223.449 75.9959 223.084 75.6331 222.636 75.6331Z" fill="#DDEBFD"/>
<path d="M236.158 87.2945H264.651C265.395 87.2945 266.004 86.6855 266.004 85.9406C266.004 85.1957 265.395 84.5867 264.651 84.5867H236.158C235.413 84.5867 234.805 85.1957 234.805 85.9406C234.805 86.6855 235.413 87.2945 236.158 87.2945Z" fill="#E527BB"/>
<path d="M229.665 91.942H271.143C271.887 91.942 272.496 91.3329 272.496 90.5881C272.496 89.8432 271.887 89.2341 271.143 89.2341H229.665C228.921 89.2341 228.312 89.8432 228.312 90.5881C228.313 91.3329 228.921 91.942 229.665 91.942Z" fill="#886EE5"/>
<path d="M226.156 104.17H276.148C276.693 104.17 277.14 103.724 277.14 103.177C277.14 102.631 276.695 102.184 276.148 102.184H226.156C225.612 102.184 225.164 102.631 225.164 103.177C225.166 103.722 225.612 104.17 226.156 104.17Z" fill="#A8C3F7"/>
<path d="M276.148 106.763H226.156C225.612 106.763 225.164 107.209 225.164 107.756C225.164 108.302 225.609 108.75 226.156 108.75H276.148C276.693 108.75 277.14 108.304 277.14 107.756C277.14 107.211 276.695 106.763 276.148 106.763Z" fill="#A8C3F7"/>
<path d="M276.148 111.343H226.156C225.612 111.343 225.164 111.788 225.164 112.336C225.164 112.881 225.609 113.329 226.156 113.329H276.148C276.693 113.329 277.14 112.881 277.14 112.336C277.14 111.791 276.695 111.343 276.148 111.343Z" fill="#A8C3F7"/>
<path d="M231.176 127.993H226.156C225.612 127.993 225.164 128.441 225.164 128.986C225.164 129.532 225.609 129.98 226.156 129.98H231.176C231.721 129.98 232.168 129.532 232.168 128.986C232.168 128.439 231.723 127.993 231.176 127.993Z" fill="#E527BB"/>
<path d="M239.562 127.993H234.543C233.998 127.993 233.551 128.441 233.551 128.986C233.551 129.532 233.996 129.98 234.543 129.98H239.562C240.107 129.98 240.555 129.532 240.555 128.986C240.555 128.439 240.107 127.993 239.562 127.993Z" fill="#E527BB"/>
<path d="M267.762 127.993H262.742C262.197 127.993 261.75 128.441 261.75 128.986C261.75 129.532 262.195 129.98 262.742 129.98H267.762C268.307 129.98 268.754 129.532 268.754 128.986C268.754 128.439 268.307 127.993 267.762 127.993Z" fill="#886EE5"/>
<path d="M276.144 127.993H271.125C270.58 127.993 270.133 128.441 270.133 128.986C270.133 129.532 270.578 129.98 271.125 129.98H276.144C276.689 129.98 277.137 129.532 277.137 128.986C277.137 128.439 276.692 127.993 276.144 127.993Z" fill="#886EE5"/>
<path d="M232.566 131.185C229.65 131.185 227.277 133.558 227.277 136.476C227.277 139.394 229.65 141.766 232.566 141.766C235.482 141.766 237.852 139.391 237.852 136.476C237.852 133.56 235.482 131.185 232.566 131.185ZM232.566 141.501C229.797 141.501 227.545 139.247 227.545 136.476C227.545 133.704 229.797 131.45 232.566 131.45C235.335 131.45 237.587 133.704 237.587 136.476C237.587 139.247 235.333 141.501 232.566 141.501Z" fill="#A8C3F7"/>
<path d="M232.565 132.212C230.215 132.212 228.305 134.124 228.305 136.476C228.305 138.827 230.215 140.739 232.565 140.739C234.914 140.739 236.825 138.827 236.825 136.476C236.825 134.126 234.914 132.212 232.565 132.212ZM232.565 140.474C230.362 140.474 228.572 138.681 228.572 136.478C228.572 134.273 230.364 132.48 232.565 132.48C234.766 132.48 236.558 134.273 236.558 136.478C236.558 138.681 234.766 140.474 232.565 140.474Z" fill="#A8C3F7"/>
<path d="M231.117 138.222C230.549 138.175 230.256 137.908 230.244 137.428C230.233 137.061 230.369 136.743 230.644 136.473C230.755 137.027 231.045 137.492 231.368 137.594C231.55 137.651 231.726 137.588 231.864 137.418C231.999 137.25 232.137 137.025 232.245 136.79C232.305 136.847 232.377 136.881 232.457 136.883C232.655 136.892 232.85 136.735 233.024 136.429C233.07 136.348 233.113 136.259 233.151 136.168C233.164 136.183 233.178 136.193 233.193 136.202C233.223 136.219 233.299 136.249 233.386 136.174C233.482 136.094 233.603 135.907 233.715 135.686C233.738 135.733 233.768 135.767 233.804 135.788C233.846 135.813 233.935 135.839 234.048 135.737C234.107 135.682 234.103 135.62 234.082 135.582C234.052 135.529 233.959 135.491 233.821 135.468V135.465C233.967 135.128 234.069 134.774 234.016 134.644C233.993 134.589 233.942 134.557 233.885 134.564C233.787 134.572 233.719 134.67 233.677 134.863C233.645 135.013 233.628 135.245 233.651 135.442C233.649 135.444 233.649 135.446 233.649 135.448C233.55 135.442 233.439 135.44 233.318 135.442C233.316 135.357 233.299 135.289 233.267 135.241C233.219 135.164 233.161 135.164 233.134 135.17C233.058 135.19 233.032 135.279 233.019 135.357C233.015 135.385 233.011 135.421 233.009 135.459C232.659 135.487 232.273 135.55 231.925 135.644C231.454 135.771 231.071 135.945 230.774 136.159C230.763 135.992 230.778 135.786 230.897 135.712C231.035 135.625 231.285 135.733 231.37 135.782L231.454 135.637C231.44 135.629 231.062 135.412 230.81 135.569C230.653 135.667 230.587 135.875 230.61 136.191C230.613 136.221 230.615 136.253 230.619 136.283C230.256 136.599 230.072 136.991 230.082 137.437C230.097 137.999 230.462 138.339 231.109 138.392C231.533 138.428 232.074 138.333 232.627 138.154C233.857 137.755 235 136.904 235.229 136.132C234.894 137.095 232.502 138.337 231.117 138.222ZM233.861 134.788C233.855 134.835 233.842 134.895 233.821 134.963C233.832 134.892 233.846 134.833 233.861 134.788ZM233.304 135.606C233.401 135.603 233.49 135.603 233.569 135.606C233.471 135.803 233.365 135.975 233.274 136.055C233.274 136.055 233.251 136.041 233.225 135.962C233.263 135.839 233.291 135.716 233.304 135.606ZM232.413 135.699C232.621 135.661 232.82 135.637 233.005 135.623C233.009 135.735 233.024 135.856 233.051 135.96C233.009 136.087 232.952 136.221 232.879 136.348C232.742 136.588 232.591 136.724 232.466 136.718C232.402 136.715 232.356 136.673 232.32 136.618C232.457 136.263 232.519 135.909 232.413 135.699ZM232.25 135.75C232.328 135.858 232.311 136.096 232.228 136.372C232.175 136.119 232.207 135.837 232.25 135.75ZM231.283 136.047C231.531 135.93 231.798 135.839 232.065 135.773C232.019 135.954 232.025 136.219 232.065 136.41C232.082 136.493 232.105 136.565 232.133 136.626C232.033 136.866 231.893 137.112 231.732 137.312C231.637 137.428 231.531 137.471 231.414 137.435C231.166 137.358 230.876 136.928 230.786 136.344C230.929 136.236 231.092 136.136 231.283 136.047Z" fill="#A8C3F7"/>
<path d="M269.303 131.327C266.317 131.327 263.887 133.759 263.887 136.747C263.887 139.735 266.317 142.167 269.303 142.167C272.288 142.167 274.718 139.735 274.718 136.747C274.718 133.757 272.288 131.327 269.303 131.327ZM269.303 141.893C266.467 141.893 264.16 139.584 264.16 136.747C264.16 133.91 266.467 131.601 269.303 131.601C272.138 131.601 274.445 133.91 274.445 136.747C274.445 139.584 272.138 141.893 269.303 141.893Z" fill="#A8C3F7"/>
<path d="M269.302 132.38C266.895 132.38 264.938 134.338 264.938 136.747C264.938 139.156 266.895 141.114 269.302 141.114C271.708 141.114 273.666 139.156 273.666 136.747C273.666 134.338 271.706 132.38 269.302 132.38ZM269.302 140.841C267.045 140.841 265.211 139.005 265.211 136.747C265.211 134.489 267.045 132.653 269.302 132.653C271.558 132.653 273.392 134.489 273.392 136.747C273.392 139.003 271.558 140.841 269.302 140.841Z" fill="#A8C3F7"/>
<path d="M272.023 136.386C272.036 136.352 272.045 136.318 272.051 136.287C272.043 136.321 272.032 136.355 272.023 136.386Z" fill="#A8C3F7"/>
<path d="M267.819 138.532C267.238 138.483 266.937 138.209 266.924 137.719C266.914 137.343 267.052 137.017 267.336 136.741C267.448 137.307 267.747 137.785 268.076 137.889C268.263 137.948 268.443 137.882 268.585 137.708C268.725 137.537 268.865 137.307 268.975 137.065C269.037 137.125 269.111 137.159 269.191 137.161C269.393 137.172 269.594 137.01 269.772 136.696C269.819 136.613 269.864 136.522 269.902 136.427C269.914 136.442 269.929 136.452 269.944 136.461C269.974 136.478 270.052 136.507 270.143 136.431C270.241 136.35 270.366 136.157 270.478 135.932C270.502 135.979 270.531 136.015 270.57 136.036C270.614 136.062 270.705 136.087 270.818 135.983C270.877 135.928 270.875 135.864 270.852 135.824C270.822 135.769 270.727 135.731 270.584 135.707V135.705C270.735 135.359 270.839 134.996 270.784 134.863C270.76 134.805 270.707 134.773 270.648 134.78C270.548 134.79 270.478 134.89 270.436 135.088C270.402 135.24 270.385 135.478 270.411 135.682C270.408 135.684 270.408 135.686 270.408 135.688C270.307 135.682 270.192 135.68 270.069 135.682C270.065 135.597 270.05 135.525 270.016 135.474C269.965 135.397 269.908 135.395 269.878 135.402C269.8 135.421 269.774 135.512 269.762 135.593C269.757 135.622 269.753 135.658 269.751 135.699C269.393 135.728 268.996 135.792 268.64 135.888C268.159 136.017 267.764 136.197 267.461 136.416C267.45 136.244 267.465 136.034 267.586 135.958C267.728 135.869 267.983 135.979 268.07 136.03L268.154 135.883C268.137 135.875 267.754 135.652 267.495 135.813C267.334 135.913 267.266 136.127 267.291 136.45C267.293 136.482 267.298 136.512 267.3 136.543C266.929 136.868 266.738 137.267 266.751 137.725C266.765 138.301 267.139 138.649 267.8 138.704C268.235 138.74 268.788 138.644 269.355 138.46C270.614 138.052 271.785 137.18 272.02 136.388C271.689 137.38 269.238 138.651 267.819 138.532ZM270.629 135.018C270.623 135.064 270.61 135.126 270.589 135.196C270.599 135.124 270.614 135.062 270.629 135.018ZM270.061 135.854C270.16 135.852 270.252 135.852 270.332 135.856C270.232 136.057 270.124 136.236 270.029 136.316C270.029 136.316 270.006 136.301 269.978 136.221C270.018 136.093 270.046 135.968 270.061 135.854ZM269.147 135.949C269.359 135.911 269.565 135.886 269.753 135.871C269.757 135.985 269.772 136.11 269.802 136.217C269.757 136.348 269.7 136.486 269.626 136.613C269.486 136.86 269.331 136.998 269.202 136.991C269.136 136.989 269.09 136.944 269.051 136.889C269.193 136.529 269.257 136.164 269.147 135.949ZM268.979 136C269.06 136.11 269.043 136.354 268.958 136.637C268.905 136.38 268.935 136.091 268.979 136ZM267.989 136.304C268.243 136.183 268.517 136.091 268.793 136.023C268.744 136.208 268.75 136.48 268.793 136.677C268.81 136.762 268.833 136.836 268.863 136.9C268.761 137.146 268.619 137.396 268.453 137.6C268.356 137.721 268.248 137.764 268.127 137.725C267.872 137.647 267.575 137.208 267.484 136.609C267.626 136.499 267.796 136.397 267.989 136.304Z" fill="#A8C3F7"/>
<path d="M294.897 199.064L288.406 207.829L287.768 208.691L287.456 209.109L286.656 210.189L286.222 210.775L285.422 211.855L284.58 212.99L283.794 214.053L283.781 214.068V214.072L283.043 215.07L283.035 215.083L282.924 215.231L282.912 215.248C282.912 215.25 282.912 215.25 282.909 215.252L282.772 215.439V215.441L281.972 216.434V216.519L281.226 217.529C281.224 217.529 281.224 217.529 281.224 217.529L280.259 218.835C280.257 218.835 280.257 218.835 280.257 218.835L279.527 219.817V219.819L278.728 220.895V220.897L277.392 222.699V222.701H277.39L277.258 222.879L276.805 223.493V223.495L275.755 224.912L274.362 226.708V226.795L273.639 227.771L273.562 227.873V227.875L272.559 229.231H272.557L271.622 230.496L271.613 230.509H271.611L269.294 233.641C269.294 233.643 269.294 233.643 269.294 233.643L265.841 238.303L260.061 246.109L259.342 247.08L258.918 247.651C259.141 247.683 259.359 247.715 259.58 247.743C259.582 247.745 259.586 247.745 259.586 247.745C260.354 247.847 261.121 247.942 261.887 248.023C262.101 248.048 262.317 248.072 262.531 248.093C262.667 248.108 262.801 248.12 262.934 248.133C263.259 248.165 263.583 248.195 263.905 248.222C264.043 248.235 264.177 248.248 264.315 248.258C264.378 248.265 264.44 248.269 264.506 248.275C264.72 248.292 264.936 248.309 265.15 248.324C265.19 248.328 265.231 248.328 265.273 248.333C265.746 248.369 266.219 248.398 266.69 248.424C266.904 248.437 267.12 248.447 267.334 248.456C267.502 248.466 267.669 248.475 267.837 248.481C267.869 248.483 267.9 248.485 267.932 248.485C268.212 248.498 268.492 248.511 268.768 248.517C268.984 248.524 269.198 248.532 269.412 248.534C269.656 248.543 269.9 248.549 270.142 248.551C270.356 248.557 270.572 248.558 270.786 248.562C271.013 248.564 271.24 248.566 271.467 248.566C271.683 248.568 271.898 248.568 272.112 248.566C272.231 248.568 272.347 248.566 272.466 248.564C272.597 248.564 272.727 248.564 272.856 248.56C272.941 248.56 273.026 248.558 273.111 248.555C273.195 248.555 273.278 248.553 273.363 248.551C273.482 248.549 273.6 248.547 273.719 248.545C273.751 248.545 273.779 248.545 273.808 248.543C273.87 248.543 273.929 248.541 273.991 248.538C274.078 248.536 274.162 248.534 274.249 248.532C275.92 248.487 277.578 248.396 279.222 248.258H279.226C281.12 248.103 282.994 247.885 284.85 247.611C286.856 247.314 288.838 246.947 290.794 246.516C290.825 246.51 290.859 246.501 290.893 246.495C290.891 246.503 290.889 246.512 290.887 246.52L292.727 246.068C292.984 246.007 293.241 245.943 293.493 245.879C295.91 245.266 298.281 244.553 300.605 243.744C300.995 243.609 301.381 243.473 301.767 243.331C301.863 243.297 301.96 243.261 302.056 243.225C302.779 242.961 303.495 242.688 304.206 242.401C304.399 242.325 304.592 242.248 304.785 242.17V242.168C304.825 242.153 304.865 242.138 304.901 242.123V242.121C305.128 242.03 305.353 241.934 305.578 241.841C305.747 241.771 305.915 241.701 306.082 241.629C306.28 241.546 306.477 241.461 306.674 241.374C306.799 241.319 306.926 241.264 307.054 241.208L307.056 241.206C307.276 241.109 307.495 241.011 307.715 240.911L307.717 240.909C309.874 239.939 311.982 238.88 314.032 237.743C314.249 237.624 314.465 237.503 314.679 237.38L314.681 237.378L325.977 222.122L294.897 199.064Z" fill="#A8D29F"/>
<path d="M277.817 230.496V231.398L278.475 230.511L278.483 230.498V230.496H277.817ZM276.579 231.686C276.333 231.788 276.108 231.896 275.909 232.017L274.467 233.963L273.362 235.453L273.36 237.412L274.668 235.648L277.811 231.402C277.414 231.419 277.001 231.514 276.579 231.686ZM271.254 238.301L271.091 238.524L270.461 239.373L267.62 243.208L267.617 245.166L269.626 242.456L271.233 240.285L272.075 239.15L272.7 238.303H272.702V238.301H271.254ZM295.271 205.868L288.511 214.996L288.452 215.076L288.042 215.628L287.516 216.337L287.243 216.702V216.708L285.99 218.402L285.468 219.019V219.104L285.127 219.567L284.669 220.184L282.802 222.703V222.705L282.762 222.758L282.669 222.884V222.886L282.075 223.686V223.771L280.302 226.08L279.615 227.007L279.501 227.16L277.597 229.73L277.028 230.496L277.02 230.509L275.904 232.017L274.462 233.963L273.358 235.453L272.558 236.533L271.248 238.301L271.085 238.524L270.455 239.373L267.613 243.208L266.816 244.284L265.465 246.104L263.902 248.214C264.04 248.226 264.174 248.239 264.312 248.25C264.375 248.256 264.437 248.26 264.502 248.267C264.717 248.284 264.933 248.301 265.147 248.316C265.187 248.32 265.228 248.32 265.27 248.324L266.911 246.106H266.913L267.609 245.164L269.617 242.454L271.224 240.283L272.066 239.148L272.692 238.301H272.694V238.299L273.351 237.41L274.66 235.646L277.802 231.4L277.807 231.396L278.464 230.509L278.472 230.496V230.494L279.494 229.201V229.116L280.294 228.038L280.93 227.177L282.067 225.642L282.866 224.564L283.767 223.348L284.111 222.884L284.244 222.705V222.703L284.658 222.143L285.457 221.065L286.301 219.925L287.147 218.784L287.232 218.673V218.669L288.032 217.591L288.644 216.763L288.931 216.383L288.933 216.377L289.669 215.384L289.732 215.299L289.893 215.083L292.975 210.923C294.374 209.034 297.035 208.638 298.923 210.038L314.659 221.71C316.737 223.253 317.174 226.186 315.632 228.265L306.137 241.088L305.577 241.843C305.746 241.773 305.914 241.703 306.081 241.631C306.279 241.548 306.476 241.463 306.673 241.376C306.798 241.321 306.925 241.266 307.053 241.211L307.055 241.209C307.275 241.111 307.494 241.013 307.714 240.914L307.716 240.911L320.051 224.259L295.271 205.868ZM271.254 238.301L271.091 238.524L270.461 239.373L267.62 243.208L267.617 245.166L269.626 242.456L271.233 240.285L272.075 239.15L272.7 238.303H272.702V238.301H271.254ZM276.579 231.686C276.333 231.788 276.108 231.896 275.909 232.017L274.467 233.963L273.362 235.453L273.36 237.412L274.668 235.648L277.811 231.402C277.414 231.419 277.001 231.514 276.579 231.686ZM277.817 230.496V231.398L278.475 230.511L278.483 230.498V230.496H277.817Z" fill="#82B378"/>
<path d="M290.894 246.516C290.899 246.508 290.901 246.499 290.901 246.491C290.869 246.497 290.835 246.505 290.801 246.512C288.846 246.943 286.863 247.31 284.857 247.607C283.002 247.881 281.127 248.099 279.234 248.254H279.229C277.586 248.392 275.928 248.483 274.257 248.528C274.17 248.532 274.085 248.534 273.998 248.534C273.937 248.536 273.877 248.538 273.816 248.538C273.786 248.541 273.758 248.541 273.727 248.541C273.71 248.299 273.705 248.057 273.708 247.815C273.714 247.244 273.771 246.675 273.881 246.111C274.144 244.742 274.711 243.411 275.595 242.214C275.601 242.206 275.608 242.197 275.614 242.189C276.04 241.618 276.515 241.109 277.032 240.661C277.289 240.438 277.554 240.232 277.83 240.041C278.589 239.513 279.412 239.103 280.273 238.819C280.536 238.73 280.803 238.656 281.072 238.592C281.696 238.441 282.332 238.354 282.974 238.333C283.241 238.322 283.509 238.324 283.774 238.337C284.369 238.365 284.961 238.45 285.546 238.588C285.816 238.651 286.081 238.726 286.344 238.815C286.649 238.917 286.948 239.033 287.245 239.167C287.516 239.288 287.779 239.424 288.042 239.57C288.328 239.734 288.608 239.912 288.882 240.107C288.933 240.141 288.984 240.177 289.032 240.215C289.245 240.372 289.448 240.536 289.643 240.708V240.71C289.656 240.718 289.669 240.729 289.679 240.742C289.83 240.875 289.974 241.011 290.116 241.151C290.404 241.44 290.661 241.733 290.915 242.049V242.059C291.024 242.197 291.125 242.337 291.223 242.482V242.495C291.528 242.927 291.796 243.392 292.02 243.863V243.874C292.124 244.097 292.22 244.324 292.304 244.553V244.555C292.489 245.045 292.633 245.548 292.733 246.062L290.894 246.516Z" fill="#82B378"/>
<path opacity="0.5" d="M282.768 215.439L281.968 216.445V216.519L281.22 217.529L280.255 218.834C280.253 218.834 280.253 218.834 280.253 218.834L279.523 219.817V219.819L278.724 220.895V220.897L277.388 222.699V222.701H277.386L277.254 222.879L276.801 223.493V223.495L275.751 224.912L274.358 226.72V226.795L273.635 227.771L273.558 227.873V227.875L272.553 229.231L271.618 230.496L271.61 230.508H271.607L269.29 233.641C269.29 233.643 269.29 233.643 269.29 233.643L265.838 238.303L260.057 246.108L259.338 247.08L258.914 247.651C259.137 247.683 259.355 247.715 259.576 247.743C259.578 247.745 259.582 247.745 259.582 247.745C260.35 247.847 261.117 247.942 261.883 248.023C262.097 248.048 262.313 248.071 262.527 248.093C262.663 248.108 262.797 248.12 262.93 248.133C263.255 248.165 263.579 248.195 263.901 248.222C264.039 248.235 264.173 248.248 264.311 248.258C264.374 248.265 264.436 248.269 264.502 248.275C264.716 248.292 264.932 248.309 265.146 248.324C265.187 248.328 265.227 248.328 265.269 248.333C265.742 248.369 266.215 248.398 266.686 248.424C266.9 248.436 267.116 248.447 267.33 248.456C267.498 248.466 267.665 248.475 267.833 248.481C267.865 248.483 267.897 248.485 267.928 248.485C268.094 247.702 268.285 246.911 268.499 246.113C268.823 244.905 269.199 243.683 269.614 242.46C269.934 241.518 270.278 240.578 270.64 239.638C270.783 239.267 270.929 238.897 271.077 238.528C271.107 238.454 271.137 238.38 271.166 238.305H271.168C271.61 237.212 272.076 236.128 272.553 235.058V234.986C272.816 234.401 273.083 233.889 273.353 233.312C273.798 232.359 274.25 231.425 274.706 230.511C274.708 230.506 274.71 230.502 274.712 230.498C275.329 229.256 275.948 228.055 276.555 226.905C276.635 226.754 276.716 226.659 276.796 226.525V226.453C277.066 225.946 277.333 225.449 277.596 224.965C277.986 224.244 278.37 223.55 278.739 222.886C278.773 222.826 278.804 222.765 278.841 222.705C279.074 222.287 279.301 221.952 279.521 221.559V221.487C280.058 220.53 280.554 219.656 280.993 218.877C281.258 218.406 281.502 217.973 281.72 217.576C281.805 217.425 281.886 217.279 281.962 217.139C282.314 216.496 282.585 215.976 282.761 215.594C282.819 215.467 282.865 215.356 282.899 215.261L282.768 215.439Z" fill="#82B378"/>
<path d="M292.311 240.014L292.307 244.423C292.307 244.468 292.305 244.513 292.301 244.555V244.557C292.277 244.858 292.176 245.134 292.014 245.372C291.821 245.656 291.544 245.883 291.217 246.007C291.141 246.038 291.064 246.062 290.984 246.079C290.958 246.085 290.933 246.089 290.908 246.096C290.857 246.104 290.808 246.113 290.759 246.115C290.71 246.121 290.659 246.121 290.609 246.121L290.11 246.119H288.034L286.336 246.117H285.538L283.766 246.115H282.966L281.064 246.113H280.267L277.826 246.111H277.029L273.88 246.108L272.862 246.106H272.065L268.504 246.102H266.816L265.468 246.1L260.058 246.096H258.769L257.836 246.094H257.456L255.26 246.091L252.03 246.089H250.461V246.087H250.459C249.557 245.892 248.654 245.686 247.751 245.472C247.537 245.419 247.322 245.37 247.106 245.315C246.506 245.17 245.904 245.02 245.302 244.865C245.037 244.799 244.769 244.729 244.504 244.659C244.048 244.542 243.592 244.421 243.137 244.296C242.642 244.162 242.148 244.027 241.654 243.889C241.438 243.827 241.224 243.766 241.01 243.704C239.786 243.354 238.563 242.989 237.339 242.605H237.337C237.288 242.59 237.244 242.575 237.195 242.56C236.826 242.446 236.457 242.329 236.09 242.208C235.874 242.142 235.66 242.07 235.445 242C231.997 240.875 228.566 239.625 225.176 238.259H226.155L244.511 238.271H245.31L250.249 238.276H251.356V238.278H253.731V238.28H256.74L256.742 238.282H259.327L259.329 238.284H259.571L263.578 238.286H264.511L265.311 238.288H265.841L269.842 238.29L271.174 238.293H272.699L273.356 238.295L277.035 238.297H277.807L278.606 238.299L280.273 238.301H283.571L286.011 238.303H286.1C286.102 238.303 286.102 238.303 286.102 238.303L286.809 238.305H288.713L289.512 238.307H290.617C290.619 238.307 290.621 238.309 290.621 238.309H290.693C290.77 238.314 290.844 238.322 290.918 238.337C291.024 238.356 291.128 238.384 291.228 238.424C291.554 238.551 291.832 238.776 292.025 239.061C292.205 239.337 292.311 239.661 292.311 240.014Z" fill="#DAA7EE"/>
<path d="M257.84 246.1H257.46L255.263 246.098L252.034 246.096H251.237L250.465 246.094H250.463C249.561 245.898 248.658 245.692 247.755 245.478C247.541 245.425 247.326 245.376 247.11 245.321C246.51 245.177 245.908 245.026 245.306 244.871C245.04 244.805 244.773 244.735 244.508 244.665C244.052 244.549 243.596 244.428 243.14 244.302C242.646 244.169 242.152 244.033 241.658 243.895C241.442 243.833 241.228 243.772 241.014 243.71C239.79 243.36 238.566 242.995 237.343 242.611H237.341C237.292 242.596 237.248 242.581 237.199 242.567C236.83 242.452 236.461 242.335 236.094 242.214C235.878 242.148 235.664 242.076 235.449 242.006C232.001 240.882 228.57 239.632 225.18 238.265H226.159L244.515 238.278H245.314L250.253 238.282H251.338L251.36 238.284H253.228C253.482 239.392 253.896 240.703 254.579 242.025C255.225 243.282 256.114 244.549 257.335 245.661C257.409 245.729 257.486 245.796 257.564 245.862C257.579 245.877 257.596 245.89 257.611 245.903C257.685 245.973 257.761 246.036 257.84 246.1Z" fill="#DAA7EE"/>
<path d="M283.766 238.31H282.969V246.119H283.766V238.31Z" fill="#DAA7EE"/>
<path d="M281.067 238.307H280.27V246.117H281.067V238.307Z" fill="#DAA7EE"/>
<path d="M277.836 238.292H277.039V246.102H277.836V238.292Z" fill="#DAA7EE"/>
<path d="M272.864 238.301H272.066V246.111H272.864V238.301Z" fill="#DAA7EE"/>
<path d="M267.618 238.297H266.82V246.106H267.618V238.297Z" fill="#DAA7EE"/>
<path d="M259.571 238.292H258.773V246.102H259.571V238.292Z" fill="#DAA7EE"/>
<path d="M252.036 238.286H251.238V246.096H252.036V238.286Z" fill="#DAA7EE"/>
<path d="M245.311 238.282L245.305 244.873C245.04 244.808 244.773 244.738 244.508 244.668L244.512 238.282H245.311Z" fill="#DAA7EE"/>
<path d="M286.34 238.31H285.543V246.119H286.34V238.31Z" fill="#DAA7EE"/>
<path d="M288.036 238.312H287.238V246.121H288.036V238.312Z" fill="#DAA7EE"/>
<path d="M289.684 238.301H288.887V246.111H289.684V238.301Z" fill="#DAA7EE"/>
<path d="M290.915 238.341L290.911 246.096C290.813 246.113 290.713 246.123 290.612 246.123H290.113L290.12 238.314H290.618C290.718 238.314 290.817 238.322 290.915 238.341Z" fill="#DAA7EE"/>
<path d="M292.02 239.065L292.016 245.372C291.823 245.659 291.545 245.881 291.219 246.007L291.225 238.426C291.55 238.556 291.827 238.779 292.02 239.065Z" fill="#DAA7EE"/>
<path d="M298.055 232.208L298.051 236.618C298.051 236.97 297.943 237.295 297.758 237.567C297.565 237.851 297.288 238.076 296.961 238.201C296.861 238.242 296.757 238.269 296.651 238.288C296.554 238.305 296.454 238.316 296.352 238.316L226.161 238.267C225.256 238.267 224.511 237.548 224.467 236.654C224.467 236.625 224.465 236.595 224.465 236.567L224.467 232.157C224.467 232.128 224.467 232.1 224.469 232.07C224.511 231.243 225.154 230.568 225.966 230.47C226.032 230.462 226.1 230.458 226.168 230.458L296.359 230.506C296.461 230.506 296.56 230.517 296.658 230.534C296.764 230.553 296.87 230.583 296.967 230.621C297.294 230.746 297.572 230.971 297.765 231.258C297.947 231.531 298.055 231.858 298.055 232.208Z" fill="#DAA7EE"/>
<path d="M263.58 238.295L225.977 238.269C225.169 238.269 224.505 237.55 224.463 236.656C224.463 236.627 224.461 236.597 224.461 236.569L224.463 232.16C224.463 232.13 224.463 232.102 224.465 232.073C224.503 231.245 225.076 230.57 225.801 230.472C225.858 230.464 225.92 230.46 225.981 230.46L258.968 230.483C258.97 230.487 258.97 230.492 258.97 230.496C259.498 232.794 260.724 235.967 263.58 238.295Z" fill="#C77AE5"/>
<path d="M289.512 230.504H288.715V238.314H289.512V230.504Z" fill="#DAA7EE"/>
<path d="M286.809 230.502H286.012V238.312H286.809V230.502Z" fill="#DAA7EE"/>
<path d="M283.571 230.5H282.773V238.31H283.571V230.5Z" fill="#DAA7EE"/>
<path d="M278.61 230.496H277.812V238.305H278.61V230.496Z" fill="#DAA7EE"/>
<path d="M273.36 230.491H272.562V238.301H273.36V230.491Z" fill="#DAA7EE"/>
<path d="M265.313 230.487H264.516V238.297H265.313V230.487Z" fill="#DAA7EE"/>
<path d="M257.778 230.481H256.98V238.29H257.778V230.481Z" fill="#DAA7EE"/>
<path d="M251.051 230.477H250.254V238.286H251.051V230.477Z" fill="#DAA7EE"/>
<path d="M292.082 230.504H291.285V238.314H292.082V230.504Z" fill="#DAA7EE"/>
<path d="M293.778 230.506H292.98V238.316H293.778V230.506Z" fill="#DAA7EE"/>
<path d="M295.418 230.506H294.621V238.316H295.418V230.506Z" fill="#DAA7EE"/>
<path d="M296.657 230.536L296.653 238.29C296.555 238.307 296.456 238.318 296.354 238.318H295.855L295.862 230.508H296.36C296.46 230.508 296.557 230.517 296.657 230.536Z" fill="#DAA7EE"/>
<path d="M297.762 231.26L297.758 237.567C297.565 237.853 297.287 238.076 296.961 238.201L296.967 230.621C297.292 230.748 297.57 230.973 297.762 231.26Z" fill="#DAA7EE"/>
<path d="M288.842 224.405L288.838 228.815C288.838 229.167 288.73 229.492 288.546 229.764C288.353 230.05 288.075 230.273 287.748 230.398C287.649 230.438 287.545 230.466 287.437 230.485C287.405 230.492 287.371 230.496 287.339 230.5C287.314 230.504 287.286 230.506 287.261 230.508C287.248 230.511 287.235 230.511 287.22 230.511C287.193 230.513 287.165 230.513 287.138 230.513L216.946 230.464C216.041 230.464 215.297 229.745 215.252 228.851C215.25 228.821 215.25 228.794 215.25 228.764L215.252 224.354C215.252 224.325 215.254 224.297 215.254 224.267C215.301 223.374 216.047 222.656 216.953 222.656L287.144 222.705C287.174 222.705 287.203 222.705 287.235 222.707C287.307 222.712 287.375 222.72 287.445 222.733C287.553 222.752 287.657 222.782 287.755 222.82C287.806 222.839 287.854 222.86 287.901 222.886C287.931 222.901 287.96 222.915 287.988 222.932C287.992 222.932 287.994 222.934 287.998 222.939C288.028 222.956 288.056 222.973 288.083 222.992C288.09 222.994 288.094 222.998 288.098 223.002C288.124 223.019 288.149 223.038 288.175 223.058C288.234 223.102 288.291 223.151 288.344 223.206C288.361 223.221 288.378 223.24 288.393 223.255C288.395 223.257 288.399 223.261 288.401 223.266C288.412 223.276 288.42 223.287 288.431 223.297C288.433 223.3 288.435 223.302 288.437 223.304C288.454 223.323 288.471 223.344 288.486 223.365C288.51 223.395 288.533 223.425 288.554 223.459C288.736 223.728 288.842 224.055 288.842 224.405Z" fill="#DAA7EE"/>
<path d="M254.373 230.492L216.77 230.466C215.962 230.466 215.298 229.747 215.256 228.853C215.254 228.824 215.254 228.796 215.254 228.766L215.256 224.356C215.256 224.327 215.258 224.299 215.258 224.269C215.301 223.376 215.966 222.659 216.774 222.659L249.761 222.682C249.774 222.741 249.789 222.801 249.803 222.862C250.348 225.142 251.58 228.21 254.358 230.483C254.363 230.483 254.369 230.487 254.373 230.492Z" fill="#DAA7EE"/>
<path d="M280.301 222.701H279.504V230.51H280.301V222.701Z" fill="#DAA7EE"/>
<path d="M277.598 222.699H276.801V230.509H277.598V222.699Z" fill="#DAA7EE"/>
<path d="M274.36 222.697H273.562V230.506H274.36V222.697Z" fill="#DAA7EE"/>
<path d="M269.395 222.693H268.598V230.502H269.395V222.693Z" fill="#DAA7EE"/>
<path d="M264.149 222.688H263.352V230.498H264.149V222.688Z" fill="#DAA7EE"/>
<path d="M256.102 222.684H255.305V230.494H256.102V222.684Z" fill="#DAA7EE"/>
<path d="M248.567 222.678H247.77V230.487H248.567V222.678Z" fill="#DAA7EE"/>
<path d="M241.848 222.663H241.051V230.472H241.848V222.663Z" fill="#DAA7EE"/>
<path d="M282.868 222.701H282.07V230.51H282.868V222.701Z" fill="#DAA7EE"/>
<path d="M284.567 222.703H283.77V230.513H284.567V222.703Z" fill="#DAA7EE"/>
<path d="M286.207 222.703H285.41V230.513H286.207V222.703Z" fill="#DAA7EE"/>
<path d="M287.444 222.733L287.438 230.487C287.34 230.504 287.241 230.515 287.139 230.515H286.641L286.647 222.705H287.145C287.247 222.705 287.347 222.714 287.444 222.733Z" fill="#DAA7EE"/>
<path d="M288.552 223.457L288.547 229.764C288.354 230.05 288.077 230.273 287.75 230.398L287.754 222.818C288.081 222.945 288.359 223.17 288.552 223.457Z" fill="#DAA7EE"/>
<path d="M294.007 216.78L294.004 221.19C294.004 221.542 293.896 221.867 293.712 222.139C293.519 222.423 293.241 222.648 292.914 222.773C292.815 222.813 292.711 222.841 292.603 222.86C292.505 222.877 292.406 222.888 292.304 222.888L222.113 222.839C221.841 222.839 221.582 222.773 221.353 222.659C220.842 222.402 220.476 221.892 220.42 221.296C220.418 221.273 220.416 221.249 220.416 221.226C220.416 221.196 220.414 221.169 220.414 221.139L220.416 216.729C220.416 216.7 220.418 216.672 220.418 216.642C220.461 215.815 221.103 215.14 221.915 215.044C221.981 215.036 222.047 215.031 222.117 215.031L292.308 215.08C292.41 215.08 292.509 215.091 292.607 215.108C292.715 215.127 292.819 215.157 292.917 215.195C293.243 215.32 293.521 215.545 293.714 215.832C293.901 216.103 294.007 216.428 294.007 216.78Z" fill="#C77AE5"/>
<path d="M259.535 222.867L221.932 222.841C221.688 222.841 221.459 222.775 221.256 222.661C220.798 222.404 220.473 221.895 220.424 221.298C220.422 221.275 220.42 221.252 220.42 221.228C220.42 221.198 220.418 221.171 220.418 221.141L220.42 216.731C220.42 216.702 220.422 216.674 220.422 216.644C220.46 215.817 221.033 215.142 221.758 215.044C221.815 215.036 221.877 215.031 221.936 215.031L254.923 215.055C254.925 215.059 254.925 215.063 254.925 215.068C255.438 217.306 256.615 220.377 259.319 222.688C259.391 222.748 259.463 222.807 259.535 222.867Z" fill="#C77AE5"/>
<path d="M285.465 215.074H284.668V222.884H285.465V215.074Z" fill="#FFA412"/>
<path d="M282.762 215.072H281.965V222.882H282.762V215.072Z" fill="#FFA412"/>
<path d="M279.524 215.07H278.727V222.879H279.524V215.07Z" fill="#FFA412"/>
<path d="M274.559 215.068H273.762V222.877H274.559V215.068Z" fill="#FFA412"/>
<path d="M269.313 215.063H268.516V222.873H269.313V215.063Z" fill="#FFA412"/>
<path d="M261.266 215.057H260.469V222.867H261.266V215.057Z" fill="#FFA412"/>
<path d="M253.731 215.053H252.934V222.862H253.731V215.053Z" fill="#FFA412"/>
<path d="M247.004 215.049H246.207V222.858H247.004V215.049Z" fill="#FFA412"/>
<path d="M288.036 215.076H287.238V222.886H288.036V215.076Z" fill="#FFA412"/>
<path d="M289.731 215.078H288.934V222.888H289.731V215.078Z" fill="#FFA412"/>
<path d="M291.372 215.078H290.574V222.888H291.372V215.078Z" fill="#FFA412"/>
<path d="M292.608 215.106L292.602 222.86C292.504 222.877 292.405 222.888 292.303 222.888H291.805L291.811 215.078H292.309C292.411 215.08 292.511 215.089 292.608 215.106Z" fill="#FFA412"/>
<path d="M293.716 215.832L293.711 222.139C293.518 222.423 293.241 222.648 292.914 222.773L292.918 215.193C293.245 215.32 293.523 215.545 293.716 215.832Z" fill="#FFA412"/>
<path d="M288.854 208.979L288.852 213.389C288.852 213.741 288.744 214.066 288.559 214.338C288.366 214.624 288.088 214.847 287.762 214.972C287.662 215.013 287.558 215.04 287.45 215.059C287.416 215.066 287.384 215.07 287.353 215.074C287.336 215.076 287.316 215.078 287.297 215.08C287.28 215.083 287.261 215.083 287.242 215.085C287.213 215.087 287.183 215.087 287.151 215.087L216.962 215.04C216.057 215.04 215.312 214.321 215.268 213.427C215.266 213.398 215.266 213.368 215.266 213.34L215.268 208.93C215.268 208.901 215.27 208.873 215.27 208.843C215.317 207.948 216.063 207.233 216.968 207.233L287.16 207.281C287.261 207.281 287.361 207.29 287.459 207.309C287.567 207.328 287.668 207.358 287.768 207.396C288.095 207.521 288.372 207.746 288.565 208.033C288.748 208.302 288.854 208.629 288.854 208.979Z" fill="#DAA7EE"/>
<path d="M254.381 215.066L216.778 215.04C215.97 215.04 215.306 214.321 215.264 213.427C215.262 213.398 215.262 213.368 215.262 213.34L215.264 208.93C215.264 208.901 215.266 208.873 215.266 208.843C215.308 207.948 215.974 207.233 216.782 207.233L249.769 207.256C250.293 209.552 251.514 212.725 254.366 215.057C254.37 215.057 254.377 215.061 254.381 215.066Z" fill="#DAA7EE"/>
<path d="M280.317 207.262H279.52V215.072H280.317V207.262Z" fill="#FFA412"/>
<path d="M277.61 207.273H276.812V215.082H277.61V207.273Z" fill="#FFA412"/>
<path d="M274.372 207.271H273.574V215.081H274.372V207.271Z" fill="#FFA412"/>
<path d="M269.407 207.267H268.609V215.076H269.407V207.267Z" fill="#FFA412"/>
<path d="M264.161 207.262H263.363V215.072H264.161V207.262Z" fill="#FFA412"/>
<path d="M256.114 207.258H255.316V215.068H256.114V207.258Z" fill="#FFA412"/>
<path d="M248.579 207.252H247.781V215.061H248.579V207.252Z" fill="#FFA412"/>
<path d="M241.852 207.248H241.055V215.057H241.852V207.248Z" fill="#FFA412"/>
<path d="M282.883 207.275H282.086V215.085H282.883V207.275Z" fill="#FFA412"/>
<path d="M284.579 207.277H283.781V215.087H284.579V207.277Z" fill="#FFA412"/>
<path d="M286.219 207.277H285.422V215.087H286.219V207.277Z" fill="#FFA412"/>
<path d="M287.454 207.307L287.45 215.061C287.352 215.078 287.252 215.089 287.151 215.089H286.652L286.659 207.279H287.157C287.257 207.279 287.356 207.288 287.454 207.307Z" fill="#FFA412"/>
<path d="M288.563 208.031L288.559 214.338C288.366 214.624 288.088 214.847 287.762 214.972L287.766 207.392C288.093 207.519 288.37 207.744 288.563 208.031Z" fill="#FFA412"/>
<path d="M298.341 244.493C296.748 245.001 295.132 245.461 293.498 245.875C293.243 245.941 292.987 246.002 292.732 246.064C292.126 246.212 291.515 246.357 290.898 246.49C290.866 246.497 290.832 246.505 290.798 246.512C288.843 246.942 286.86 247.31 284.854 247.607C282.999 247.88 281.124 248.099 279.231 248.254H279.226C277.583 248.392 275.925 248.483 274.254 248.528C274.167 248.532 274.082 248.534 273.995 248.534C273.934 248.536 273.874 248.538 273.813 248.538C273.783 248.54 273.756 248.54 273.724 248.54C273.605 248.545 273.486 248.545 273.367 248.547C273.283 248.549 273.2 248.551 273.115 248.551C273.03 248.553 272.946 248.555 272.861 248.555C272.731 248.56 272.602 248.56 272.471 248.56C272.354 248.562 272.237 248.564 272.116 248.562C271.902 248.564 271.688 248.564 271.472 248.562C271.245 248.562 271.018 248.56 270.791 248.557C270.577 248.553 270.361 248.551 270.146 248.547C269.903 248.543 269.659 248.538 269.417 248.53C269.203 248.526 268.989 248.519 268.772 248.513C268.495 248.504 268.215 248.494 267.937 248.481C267.905 248.481 267.873 248.479 267.841 248.477C267.674 248.47 267.506 248.462 267.339 248.451C267.125 248.443 266.908 248.432 266.694 248.419C266.223 248.392 265.751 248.364 265.278 248.328C265.235 248.324 265.197 248.322 265.155 248.32C264.941 248.305 264.724 248.288 264.51 248.271C264.444 248.265 264.383 248.26 264.319 248.254C264.181 248.243 264.048 248.231 263.91 248.218C263.588 248.19 263.263 248.163 262.939 248.129C262.805 248.116 262.67 248.103 262.536 248.088C262.322 248.067 262.105 248.044 261.891 248.018C261.128 247.938 260.358 247.844 259.591 247.74C259.588 247.74 259.584 247.74 259.584 247.738C259.364 247.709 259.145 247.679 258.923 247.647C258.848 247.636 258.774 247.626 258.7 247.615C258.641 247.609 258.579 247.6 258.52 247.59C258.369 247.571 258.214 247.547 258.064 247.524C258.021 247.518 257.979 247.511 257.937 247.505C257.928 247.503 257.92 247.503 257.911 247.501L257.909 247.498C257.896 247.498 257.884 247.496 257.871 247.492C257.298 247.407 256.724 247.314 256.149 247.214C255.95 247.18 255.748 247.146 255.547 247.11C255.347 247.074 255.146 247.038 254.944 247C254.72 246.959 254.495 246.915 254.268 246.872C254.054 246.832 253.838 246.792 253.623 246.749C252.574 246.543 251.522 246.327 250.468 246.098H250.466V246.096H250.464C249.563 245.9 248.659 245.695 247.756 245.48C247.542 245.427 247.328 245.378 247.111 245.323C247.01 245.298 246.903 245.272 246.802 245.247C245.985 235.723 250.71 226.166 259.614 221.258C259.932 221.084 260.256 220.916 260.579 220.755C260.886 220.568 261.2 220.386 261.52 220.21C273.577 213.565 288.731 217.962 295.37 230.027C297.893 234.611 298.822 239.646 298.341 244.493Z" fill="#D598ED"/>
<path d="M303.148 226.846C300.917 222.79 297.723 219.601 294.01 217.408C293.913 217.351 293.815 217.294 293.718 217.239C293.455 217.088 293.19 216.941 292.92 216.801C292.819 216.746 292.713 216.691 292.609 216.64C292.346 216.504 292.081 216.375 291.811 216.252C291.667 216.186 291.523 216.118 291.377 216.054C291.112 215.938 290.846 215.825 290.577 215.719C290.297 215.607 290.017 215.501 289.735 215.399C289.714 215.392 289.693 215.384 289.672 215.377C289.428 215.29 289.184 215.208 288.936 215.129C288.881 215.112 288.823 215.093 288.766 215.076H288.694C288.633 215.046 288.592 215.021 288.505 214.995C288.342 214.945 288.175 214.898 288.009 214.851C287.927 214.828 287.842 214.804 287.759 214.783C287.655 214.754 287.551 214.728 287.447 214.703C287.182 214.635 286.915 214.571 286.648 214.514C286.504 214.482 286.359 214.45 286.213 214.422C285.948 214.369 285.681 214.318 285.414 214.274C285.134 214.227 284.854 214.183 284.572 214.147C284.311 214.113 284.05 214.081 283.785 214.055C283.781 214.053 283.777 214.053 283.772 214.053C283.473 214.021 283.174 213.998 282.873 213.979C282.608 213.962 282.341 213.949 282.074 213.941C281.484 213.924 280.893 213.924 280.303 213.947C280.038 213.958 279.771 213.973 279.504 213.992C278.87 214.036 278.236 214.106 277.6 214.204C277.335 214.242 277.067 214.287 276.802 214.335C275.984 214.486 275.17 214.677 274.362 214.915C274.2 214.961 274.037 215.01 273.876 215.063C273.874 215.063 273.874 215.063 273.874 215.063C273.859 215.068 273.846 215.072 273.834 215.076C273.808 215.082 273.783 215.093 273.759 215.099C272.243 215.583 270.752 216.22 269.308 217.016C269.302 217.02 269.296 217.022 269.291 217.026C269.028 217.173 268.768 217.321 268.511 217.476C268.464 217.504 268.418 217.531 268.373 217.561C266.047 218.972 264.03 220.713 262.347 222.686C262.296 222.746 262.245 222.807 262.196 222.867C260.29 225.146 258.827 227.731 257.845 230.481C257.843 230.485 257.841 230.489 257.841 230.494C257.819 230.555 257.798 230.617 257.775 230.678C257.453 231.603 257.185 232.548 256.975 233.507V233.579C256.63 235.145 256.433 236.675 256.394 238.288V238.29C256.333 240.748 256.636 243.231 257.328 245.663C257.368 245.809 257.41 245.954 257.455 246.1C257.597 246.569 257.754 247.036 257.928 247.501C257.97 247.507 258.01 247.515 258.055 247.52C258.205 247.543 258.36 247.566 258.511 247.585C258.57 247.596 258.632 247.605 258.691 247.611C258.765 247.622 258.839 247.632 258.914 247.643C259.136 247.675 259.355 247.706 259.575 247.734C259.577 247.736 259.582 247.736 259.582 247.736C260.349 247.838 261.117 247.934 261.882 248.014C262.097 248.04 262.313 248.063 262.527 248.084C262.663 248.099 262.796 248.112 262.93 248.125C263.254 248.156 263.579 248.186 263.901 248.214C264.039 248.226 264.173 248.239 264.31 248.25C264.374 248.256 264.435 248.26 264.501 248.267C264.715 248.284 264.932 248.301 265.146 248.316C265.186 248.32 265.226 248.32 265.269 248.324C265.742 248.36 266.215 248.39 266.685 248.415C266.899 248.428 267.116 248.439 267.33 248.447C267.497 248.458 267.665 248.466 267.833 248.473C267.864 248.475 267.896 248.477 267.928 248.477C268.208 248.49 268.488 248.502 268.763 248.509C268.98 248.515 269.194 248.523 269.408 248.526C269.652 248.534 269.896 248.54 270.138 248.543C270.352 248.549 270.568 248.549 270.782 248.553C271.009 248.555 271.236 248.557 271.463 248.557C271.679 248.56 271.893 248.56 272.107 248.557C272.226 248.56 272.343 248.557 272.462 248.555C272.593 248.555 272.722 248.555 272.852 248.551C272.937 248.551 273.021 248.549 273.106 248.547C273.191 248.547 273.274 248.545 273.359 248.543C273.477 248.54 273.596 248.538 273.715 248.536C273.747 248.536 273.774 248.536 273.804 248.534C273.865 248.534 273.925 248.532 273.986 248.53C274.073 248.528 274.158 248.526 274.245 248.523C275.916 248.479 277.574 248.388 279.218 248.25H279.222C281.115 248.095 282.99 247.876 284.845 247.602C286.851 247.305 288.834 246.938 290.789 246.507C290.821 246.501 290.855 246.493 290.889 246.486C290.887 246.495 290.885 246.503 290.883 246.512L292.723 246.06C292.98 245.998 293.236 245.934 293.489 245.871C295.906 245.257 298.277 244.544 300.601 243.736C300.991 243.6 301.377 243.464 301.763 243.322C301.858 243.288 301.956 243.252 302.051 243.216C302.774 242.953 303.491 242.679 304.201 242.393C304.394 242.316 304.587 242.24 304.78 242.161V242.159C304.821 242.144 304.861 242.129 304.897 242.115V242.112C305.124 242.021 305.349 241.926 305.573 241.832C305.743 241.762 305.911 241.692 306.078 241.62C306.097 241.44 306.118 241.259 306.131 241.077C306.572 236.308 305.633 231.362 303.148 226.846Z" fill="#D598ED"/>
<path d="M301.246 227.894C299.406 224.55 296.914 221.795 294.011 219.702C293.916 219.632 293.818 219.565 293.718 219.495C293.458 219.31 293.193 219.132 292.923 218.96C292.819 218.894 292.715 218.828 292.612 218.76C292.349 218.597 292.081 218.44 291.812 218.285C291.668 218.202 291.524 218.121 291.377 218.043C291.114 217.897 290.847 217.759 290.578 217.623C290.3 217.485 290.018 217.351 289.736 217.222C289.471 217.101 289.206 216.986 288.937 216.876C288.841 216.835 288.746 216.797 288.65 216.759C288.447 216.678 288.243 216.6 288.038 216.526C287.864 216.46 287.688 216.398 287.514 216.337C287.423 216.305 287.331 216.275 287.242 216.245C286.659 216.05 286.068 215.878 285.472 215.73C285.207 215.664 284.94 215.602 284.672 215.545C284.093 215.418 283.51 215.314 282.923 215.231C282.872 215.223 282.821 215.214 282.77 215.21C282.505 215.172 282.24 215.142 281.973 215.114C281.869 215.102 281.763 215.093 281.657 215.083H281.578C281.562 215.076 281.547 215.074 281.519 215.07C281.517 215.07 281.517 215.07 281.515 215.07C281.513 215.07 281.513 215.07 281.511 215.07C281.509 215.07 281.509 215.07 281.506 215.07C281.504 215.07 281.504 215.07 281.502 215.07C281.5 215.07 281.5 215.07 281.498 215.07C281.496 215.07 281.496 215.07 281.494 215.07C281.492 215.07 281.492 215.07 281.489 215.07C281.487 215.07 281.487 215.07 281.485 215.07C281.483 215.07 281.483 215.07 281.481 215.07C281.479 215.07 281.479 215.07 281.477 215.07C281.475 215.07 281.475 215.07 281.472 215.07C281.47 215.07 281.47 215.07 281.468 215.07C281.466 215.07 281.466 215.07 281.464 215.07C281.462 215.07 281.462 215.07 281.46 215.07C281.458 215.07 281.458 215.07 281.455 215.07C281.453 215.07 281.453 215.07 281.451 215.07C281.449 215.07 281.449 215.07 281.447 215.07C281.445 215.07 281.445 215.07 281.443 215.07C281.441 215.07 281.441 215.07 281.439 215.07C281.436 215.07 281.436 215.07 281.434 215.07C281.432 215.07 281.432 215.07 281.43 215.07C281.428 215.07 281.428 215.07 281.426 215.07C281.424 215.07 281.424 215.07 281.422 215.07C281.419 215.07 281.419 215.07 281.417 215.07C281.415 215.07 281.415 215.07 281.413 215.07C281.411 215.07 281.411 215.07 281.409 215.07C281.407 215.07 281.407 215.07 281.405 215.07C281.402 215.07 281.402 215.07 281.4 215.07C281.398 215.07 281.398 215.07 281.396 215.07C281.394 215.07 281.394 215.07 281.392 215.07C281.39 215.07 281.39 215.07 281.388 215.07C281.386 215.07 281.386 215.07 281.383 215.07C281.381 215.07 281.381 215.07 281.379 215.07C281.377 215.07 281.377 215.07 281.375 215.07C281.373 215.07 281.373 215.07 281.371 215.07C281.369 215.07 281.369 215.07 281.366 215.07C281.364 215.07 281.364 215.07 281.362 215.07C281.36 215.07 281.36 215.07 281.358 215.07C281.356 215.07 281.356 215.07 281.354 215.07C281.352 215.07 281.352 215.07 281.349 215.07C281.347 215.07 281.347 215.07 281.345 215.07C281.343 215.07 281.343 215.07 281.341 215.07C281.339 215.07 281.339 215.07 281.337 215.07C280.997 215.034 280.607 215.01 280.283 214.996C280.016 214.985 279.751 214.979 279.483 214.979C278.852 214.974 278.215 214.996 277.579 215.042C277.48 215.049 277.38 215.057 277.28 215.066H277.301C277.299 215.066 277.299 215.066 277.297 215.066C277.295 215.066 277.295 215.066 277.293 215.066C277.291 215.066 277.291 215.066 277.289 215.066H277.282C277.28 215.066 277.28 215.066 277.278 215.066C277.276 215.066 277.276 215.066 277.274 215.066C277.272 215.066 277.272 215.066 277.27 215.066C277.267 215.066 277.267 215.066 277.265 215.066C277.263 215.066 277.263 215.066 277.261 215.066C277.259 215.066 277.259 215.066 277.257 215.066H277.255C277.253 215.066 277.253 215.066 277.251 215.066H277.248C277.246 215.066 277.246 215.066 277.244 215.066H277.242C277.24 215.066 277.24 215.066 277.238 215.066C277.236 215.066 277.236 215.066 277.234 215.066H277.231C277.229 215.066 277.229 215.066 277.227 215.066H277.193C277.181 215.07 277.172 215.072 277.153 215.078C277.151 215.078 277.149 215.078 277.149 215.078C277.147 215.078 277.147 215.078 277.144 215.078C277.142 215.078 277.142 215.078 277.14 215.078C277.138 215.078 277.138 215.078 277.136 215.078C277.134 215.078 277.134 215.078 277.132 215.078C277.13 215.078 277.13 215.078 277.128 215.078C277.125 215.078 277.125 215.078 277.123 215.078C277.121 215.078 277.121 215.078 277.119 215.078C277.117 215.078 277.117 215.078 277.115 215.078C277.113 215.078 277.113 215.078 277.111 215.078H277.049C276.199 215.155 275.395 215.28 274.549 215.452C274.282 215.505 274.017 215.562 273.75 215.624C272.244 215.974 270.753 216.47 269.299 217.12C269.031 217.237 268.764 217.362 268.499 217.491C268.453 217.512 268.408 217.536 268.361 217.559C268.031 217.723 267.702 217.892 267.375 218.073C265.094 219.331 263.088 220.893 261.376 222.682C261.334 222.727 261.289 222.773 261.249 222.818C261.234 222.833 261.219 222.85 261.207 222.862V222.865C259.107 225.106 257.466 227.692 256.334 230.477C256.332 230.481 256.33 230.485 256.327 230.489C255.316 232.97 254.707 235.604 254.529 238.286C254.444 239.526 254.455 240.776 254.561 242.025C254.676 243.388 254.902 244.748 255.248 246.096C255.333 246.435 255.426 246.771 255.53 247.106C255.732 247.142 255.933 247.176 256.132 247.21C256.707 247.31 257.28 247.403 257.854 247.488C257.867 247.492 257.88 247.494 257.892 247.494L257.894 247.496C257.903 247.499 257.911 247.499 257.92 247.501C257.962 247.507 258.003 247.516 258.047 247.52C258.198 247.543 258.352 247.566 258.503 247.586C258.562 247.596 258.624 247.605 258.683 247.611C258.758 247.622 258.832 247.632 258.906 247.643C259.129 247.675 259.347 247.707 259.568 247.734C259.57 247.736 259.574 247.736 259.574 247.736C260.342 247.838 261.109 247.934 261.875 248.014C262.089 248.04 262.305 248.063 262.519 248.084C262.655 248.099 262.789 248.112 262.922 248.125C263.247 248.156 263.571 248.186 263.893 248.214C264.031 248.226 264.165 248.239 264.303 248.25C264.366 248.256 264.428 248.26 264.493 248.267C264.708 248.284 264.924 248.301 265.138 248.316C265.178 248.32 265.219 248.32 265.261 248.324C265.734 248.36 266.207 248.39 266.678 248.415C266.892 248.428 267.108 248.439 267.322 248.447C267.49 248.458 267.657 248.466 267.825 248.473C267.857 248.475 267.888 248.477 267.92 248.477C268.2 248.49 268.48 248.502 268.756 248.509C268.972 248.515 269.186 248.524 269.4 248.526C269.644 248.534 269.888 248.541 270.13 248.543C270.344 248.549 270.56 248.549 270.774 248.553C271.001 248.555 271.228 248.558 271.455 248.558C271.671 248.56 271.886 248.56 272.1 248.558C272.219 248.56 272.335 248.558 272.454 248.555C272.585 248.555 272.715 248.555 272.844 248.551C272.929 248.551 273.014 248.549 273.099 248.547C273.183 248.547 273.266 248.545 273.351 248.543C273.47 248.541 273.588 248.538 273.707 248.536C273.739 248.536 273.767 248.536 273.796 248.534C273.858 248.534 273.917 248.532 273.979 248.53C274.065 248.528 274.15 248.526 274.237 248.524C275.908 248.479 277.566 248.388 279.21 248.25H279.214C281.108 248.095 282.982 247.876 284.838 247.603C286.844 247.305 288.826 246.938 290.782 246.508C290.813 246.501 290.847 246.493 290.881 246.486C290.879 246.495 290.877 246.503 290.875 246.512L292.715 246.06C292.972 245.998 293.229 245.935 293.481 245.871C295.898 245.258 298.269 244.544 300.593 243.736C300.983 243.6 301.369 243.464 301.755 243.322C301.851 243.288 301.948 243.252 302.044 243.216C302.767 242.953 303.483 242.679 304.194 242.393C304.703 237.541 303.776 232.491 301.246 227.894Z" fill="#FFB93E"/>
<path d="M299.446 229.22C297.928 226.459 295.915 224.14 293.581 222.31C293.362 222.139 293.144 221.973 292.919 221.812C292.817 221.735 292.711 221.661 292.607 221.591C292.346 221.404 292.079 221.226 291.81 221.056C291.666 220.965 291.522 220.874 291.375 220.785C291.112 220.623 290.845 220.468 290.576 220.32C290.298 220.165 290.016 220.016 289.734 219.876C289.469 219.743 289.204 219.617 288.935 219.496C288.638 219.361 288.339 219.233 288.035 219.115C287.772 219.006 287.505 218.907 287.238 218.809C287.208 218.798 287.183 218.788 287.153 218.779C286.767 218.641 286.377 218.516 285.985 218.399C285.811 218.346 285.639 218.297 285.465 218.251C285.2 218.179 284.935 218.111 284.666 218.051C284.036 217.905 283.402 217.786 282.762 217.693C282.497 217.654 282.232 217.623 281.964 217.593C281.886 217.584 281.803 217.576 281.723 217.567C281.555 217.55 281.385 217.536 281.218 217.525C281.216 217.525 281.216 217.525 281.216 217.525C280.654 217.483 280.09 217.459 279.524 217.459C279.256 217.459 278.989 217.466 278.724 217.474C277.333 217.521 275.94 217.699 274.56 218.011C274.292 218.07 274.025 218.136 273.76 218.208C272.248 218.607 270.755 219.17 269.309 219.902C269.072 220.023 268.836 220.148 268.599 220.277C268.569 220.294 268.539 220.309 268.51 220.328C267.276 221.016 266.12 221.803 265.053 222.69C264.979 222.748 264.907 222.807 264.835 222.871C264.602 223.068 264.37 223.272 264.146 223.478C263.872 223.728 263.607 223.985 263.346 224.25C261.563 226.06 260.098 228.161 259.012 230.483C259.008 230.487 259.006 230.491 259.006 230.496C258.995 230.515 258.986 230.534 258.978 230.553C258.501 231.578 258.096 232.645 257.771 233.751V233.798C257.761 233.815 257.75 233.83 257.74 233.857C257.371 235.052 257.112 236.342 256.97 237.556C256.97 237.558 256.97 237.558 256.97 237.56C256.97 237.562 256.97 237.562 256.97 237.565C256.97 237.567 256.97 237.567 256.97 237.569C256.97 237.571 256.97 237.571 256.97 237.573C256.97 237.575 256.97 237.575 256.97 237.577C256.97 237.579 256.97 237.579 256.97 237.582C256.97 237.584 256.97 237.584 256.97 237.586C256.97 237.588 256.97 237.588 256.97 237.59C256.97 237.592 256.97 237.592 256.97 237.594C256.97 237.596 256.97 237.596 256.97 237.599C256.97 237.601 256.97 237.601 256.97 237.603C256.97 237.605 256.97 237.605 256.97 237.607C256.97 237.609 256.97 237.609 256.97 237.611C256.97 237.613 256.97 237.613 256.97 237.616C256.97 237.618 256.97 237.618 256.97 237.62C256.97 237.622 256.97 237.622 256.97 237.624C256.97 237.626 256.97 237.626 256.97 237.628C256.97 237.63 256.97 237.63 256.97 237.632C256.97 237.635 256.97 237.635 256.97 237.637C256.97 237.639 256.97 237.639 256.97 237.641C256.97 237.643 256.97 237.643 256.97 237.645C256.97 237.647 256.97 237.647 256.97 237.649C256.97 237.652 256.97 237.652 256.97 237.654C256.97 237.656 256.97 237.656 256.97 237.658C256.97 237.66 256.97 237.66 256.97 237.662C256.97 237.664 256.97 237.664 256.97 237.666C256.97 237.669 256.97 237.669 256.97 237.671C256.97 237.673 256.97 237.673 256.97 237.675C256.97 237.677 256.97 237.677 256.97 237.679C256.97 237.681 256.97 237.681 256.97 237.683C256.97 237.686 256.97 237.686 256.97 237.688C256.97 237.69 256.97 237.69 256.97 237.692C256.97 237.694 256.97 237.694 256.97 237.696C256.97 237.698 256.97 237.698 256.97 237.7C256.97 237.703 256.97 237.703 256.97 237.705C256.97 237.707 256.97 237.707 256.97 237.709C256.97 237.711 256.97 237.711 256.97 237.713C256.97 237.715 256.97 237.715 256.97 237.717C256.97 237.719 256.97 237.719 256.97 237.722C256.97 237.724 256.97 237.724 256.97 237.726C256.97 237.728 256.97 237.728 256.97 237.73C256.97 237.732 256.97 237.732 256.97 237.734C256.97 237.736 256.97 237.736 256.97 237.739C256.97 237.741 256.97 237.741 256.97 237.743C256.97 237.745 256.97 237.745 256.97 237.747C256.97 237.749 256.97 237.749 256.97 237.751C256.97 237.753 256.97 237.753 256.97 237.756C256.949 237.944 256.93 238.133 256.915 238.322C256.86 238.965 256.832 239.606 256.832 240.247C256.832 242.153 257.074 244.05 257.555 245.896C257.574 245.975 257.595 246.053 257.619 246.13C257.746 246.607 257.892 247.08 258.053 247.551C258.204 247.575 258.359 247.598 258.509 247.617C258.569 247.628 258.63 247.636 258.69 247.643C258.764 247.653 258.838 247.664 258.912 247.675C259.135 247.706 259.353 247.738 259.574 247.766C259.491 247.545 259.411 247.324 259.336 247.102C259.224 246.781 259.122 246.456 259.027 246.13C258.933 245.803 258.847 245.559 258.768 245.23V245.145C258.236 242.912 258.07 240.616 258.278 238.32C258.401 236.962 258.658 235.606 259.044 234.265C259.207 233.704 259.387 233.157 259.593 232.62V232.618C259.862 231.901 260.172 231.204 260.515 230.525C260.515 230.521 260.517 230.517 260.522 230.513C261.294 228.987 262.241 227.569 263.348 226.283C263.605 225.984 263.87 225.691 264.148 225.407C265.024 224.49 265.991 223.652 267.032 222.9H267.034C267.119 222.839 267.201 222.777 267.288 222.72H267.305C267.702 222.44 268.092 222.175 268.512 221.924C268.756 221.774 269.004 221.631 269.254 221.493C269.273 221.483 269.292 221.472 269.311 221.462C270.749 220.672 272.242 220.069 273.762 219.641C274.027 219.564 274.294 219.496 274.562 219.431C275.94 219.1 277.337 218.911 278.728 218.86C278.991 218.849 279.254 218.843 279.517 218.843H279.526C279.768 218.843 280.011 218.847 280.253 218.856C280.253 218.856 280.253 218.856 280.255 218.856C280.501 218.864 280.751 218.877 280.997 218.896C281.322 218.917 281.646 218.949 281.966 218.985C282.234 219.017 282.499 219.051 282.762 219.093C283.402 219.191 284.038 219.318 284.666 219.473C284.819 219.511 284.971 219.552 285.124 219.592C285.238 219.624 285.351 219.656 285.465 219.687C285.747 219.768 286.029 219.857 286.309 219.949C286.621 220.053 286.931 220.165 287.238 220.282C287.507 220.384 287.772 220.494 288.038 220.606C288.341 220.738 288.64 220.876 288.937 221.02C289.206 221.152 289.471 221.29 289.736 221.432C290.02 221.585 290.3 221.746 290.576 221.912C290.845 222.073 291.11 222.243 291.375 222.417C291.522 222.512 291.666 222.612 291.81 222.714C291.903 222.779 291.999 222.845 292.092 222.913C292.094 222.913 292.094 222.913 292.094 222.913C294.569 224.704 296.693 227.054 298.263 229.901C300.616 234.178 301.426 239.022 300.614 243.763C301.004 243.628 301.39 243.492 301.776 243.35C301.872 243.316 301.969 243.28 302.065 243.243C302.722 238.418 301.827 233.547 299.446 229.22Z" fill="#FFA412"/>
<path d="M278.907 247.961C278.481 247.532 278.112 246.932 277.798 246.157L273.709 247.817C273.705 248.059 273.712 248.301 273.729 248.543C273.76 248.543 273.788 248.543 273.818 248.54C273.879 248.54 273.938 248.538 274 248.536C274.087 248.534 274.172 248.532 274.259 248.53C275.93 248.485 277.588 248.394 279.231 248.256C279.119 248.165 279.013 248.067 278.907 247.961ZM278.907 247.961C278.481 247.532 278.112 246.932 277.798 246.157L273.709 247.817C273.705 248.059 273.712 248.301 273.729 248.543C273.76 248.543 273.788 248.543 273.818 248.54C273.879 248.54 273.938 248.538 274 248.536C274.087 248.534 274.172 248.532 274.259 248.53C275.93 248.485 277.588 248.394 279.231 248.256C279.119 248.165 279.013 248.067 278.907 247.961ZM278.907 247.961C278.481 247.532 278.112 246.932 277.798 246.157L273.709 247.817C273.705 248.059 273.712 248.301 273.729 248.543C273.76 248.543 273.788 248.543 273.818 248.54C273.879 248.54 273.938 248.538 274 248.536C274.087 248.534 274.172 248.532 274.259 248.53C275.93 248.485 277.588 248.394 279.231 248.256C279.119 248.165 279.013 248.067 278.907 247.961ZM278.907 247.961C278.481 247.532 278.112 246.932 277.798 246.157L273.709 247.817C273.705 248.059 273.712 248.301 273.729 248.543C273.76 248.543 273.788 248.543 273.818 248.54C273.879 248.54 273.938 248.538 274 248.536C274.087 248.534 274.172 248.532 274.259 248.53C275.93 248.485 277.588 248.394 279.231 248.256C279.119 248.165 279.013 248.067 278.907 247.961ZM278.907 247.961C278.481 247.532 278.112 246.932 277.798 246.157L273.709 247.817C273.705 248.059 273.712 248.301 273.729 248.543C273.76 248.543 273.788 248.543 273.818 248.54C273.879 248.54 273.938 248.538 274 248.536C274.087 248.534 274.172 248.532 274.259 248.53C275.93 248.485 277.588 248.394 279.231 248.256C279.119 248.165 279.013 248.067 278.907 247.961ZM278.907 247.961C278.481 247.532 278.112 246.932 277.798 246.157L273.709 247.817C273.705 248.059 273.712 248.301 273.729 248.543C273.76 248.543 273.788 248.543 273.818 248.54C273.879 248.54 273.938 248.538 274 248.536C274.087 248.534 274.172 248.532 274.259 248.53C275.93 248.485 277.588 248.394 279.231 248.256C279.119 248.165 279.013 248.067 278.907 247.961ZM290.913 243.532C290.824 243.146 290.699 242.755 290.538 242.359C290.408 242.04 290.269 241.741 290.116 241.461C289.978 241.213 289.834 240.977 289.679 240.761C289.668 240.744 289.656 240.729 289.643 240.712V240.71C289.41 240.385 289.155 240.098 288.88 239.848C288.875 239.844 288.873 239.842 288.871 239.84C288.61 239.602 288.335 239.385 288.04 239.19C287.785 239.027 287.52 238.876 287.243 238.742C287.001 238.626 286.751 238.524 286.49 238.437C286.441 238.42 286.39 238.403 286.341 238.388C286.263 238.36 286.182 238.335 286.102 238.312C286.1 238.309 286.1 238.309 286.1 238.309C286.1 238.309 286.1 238.309 286.097 238.309C286.068 238.301 286.038 238.293 286.008 238.286C285.26 238.07 284.448 237.932 283.568 237.872C283.536 237.868 283.502 237.866 283.466 237.866C283.237 237.851 283.006 237.84 282.768 237.83C281.852 237.794 280.875 237.79 279.836 237.817C279.388 237.832 278.977 237.834 278.604 237.824C278.317 237.817 278.05 237.8 277.804 237.779C277.789 237.777 277.774 237.777 277.762 237.775C277.189 237.722 276.701 237.616 276.303 237.454C275.902 237.291 275.578 237.072 275.329 236.794C275.079 236.514 274.874 236.175 274.71 235.771C274.693 235.731 274.678 235.689 274.664 235.646C274.53 235.285 274.454 234.927 274.43 234.57C274.418 234.362 274.428 234.159 274.462 233.961C274.494 233.785 274.541 233.611 274.609 233.443C274.751 233.089 274.982 232.76 275.302 232.459C275.474 232.297 275.673 232.151 275.904 232.015C276.103 231.894 276.33 231.786 276.574 231.684C276.996 231.512 277.41 231.417 277.806 231.4C277.808 231.4 277.811 231.4 277.811 231.4C278.082 231.387 278.347 231.41 278.61 231.47C278.843 231.521 279.072 231.601 279.297 231.712C280.139 232.126 280.826 232.985 281.356 234.292L282.775 233.717L283.574 233.392L286.015 232.401L286.432 232.232C286.303 231.911 286.163 231.606 286.017 231.315V231.23C285.873 230.958 285.72 230.765 285.557 230.513C285.555 230.506 285.55 230.504 285.548 230.5C285.504 230.428 285.455 230.358 285.408 230.29C285.209 229.997 284.997 229.725 284.774 229.473C284.706 229.396 284.641 229.324 284.566 229.252V229.248C284.314 228.983 284.047 228.741 283.769 228.52C283.483 228.293 283.184 228.091 282.87 227.915C282.756 227.849 282.639 227.788 282.522 227.728C282.374 227.656 282.223 227.588 282.073 227.529C281.706 227.38 281.331 227.264 280.938 227.175C280.728 227.128 280.518 227.092 280.302 227.062C280.137 227.039 279.969 227.022 279.8 227.009C279.738 227.005 279.679 227.003 279.617 227C279.579 226.996 279.541 226.994 279.503 226.994C278.883 226.973 278.249 227.017 277.601 227.132C277.338 227.177 277.07 227.234 276.801 227.306C276.778 227.31 276.757 227.317 276.733 227.323L276.562 226.899L275.754 224.908L275.296 223.779L274.363 224.159L273.563 224.481L272.484 224.921L273.561 227.582L273.637 227.769L273.9 228.418C273.786 228.478 273.671 228.539 273.561 228.603C273.205 228.8 272.87 229.006 272.558 229.229H272.556C272.102 229.549 271.691 229.889 271.322 230.256C271.243 230.334 271.165 230.415 271.091 230.494C271.084 230.498 271.082 230.5 271.078 230.506C270.488 231.134 270.028 231.805 269.691 232.522C269.521 232.885 269.388 233.259 269.29 233.636C269.29 233.639 269.29 233.639 269.29 233.639C269.169 234.108 269.104 234.591 269.091 235.086C269.074 235.981 269.252 236.892 269.625 237.817C269.693 237.983 269.765 238.146 269.837 238.301C269.837 238.303 269.837 238.303 269.837 238.303C270.024 238.694 270.228 239.052 270.452 239.375C270.514 239.466 270.577 239.553 270.643 239.636C270.823 239.874 271.018 240.09 271.224 240.287L271.294 240.353C271.536 240.576 271.792 240.778 272.064 240.958C272.316 241.13 272.583 241.283 272.861 241.418C273.12 241.546 273.389 241.654 273.671 241.75C274.269 241.953 274.916 242.104 275.612 242.197C275.961 242.246 276.324 242.28 276.699 242.299C276.808 242.306 276.918 242.31 277.03 242.316C277.289 242.327 277.556 242.335 277.827 242.339C278.599 242.354 279.411 242.342 280.268 242.301C280.292 242.299 280.317 242.299 280.34 242.297C280.593 242.282 280.836 242.274 281.068 242.269C281.53 242.263 281.948 242.276 282.323 242.312C282.552 242.331 282.768 242.363 282.97 242.403C283.262 242.458 283.53 242.537 283.769 242.632C283.771 242.632 283.773 242.634 283.776 242.634C284.183 242.798 284.522 243.029 284.791 243.326C285.063 243.621 285.29 243.999 285.474 244.455C285.499 244.502 285.521 244.523 285.544 244.557V244.642C285.661 244.984 285.718 245.321 285.718 245.661C285.718 245.818 285.703 245.973 285.675 246.125C285.633 246.359 285.557 246.588 285.446 246.807C285.307 247.091 285.109 247.361 284.859 247.613C286.865 247.316 288.848 246.949 290.803 246.518C290.835 246.512 290.869 246.503 290.903 246.497C290.936 246.361 290.966 246.225 290.99 246.085C291.045 245.779 291.076 245.465 291.085 245.145C291.096 244.614 291.04 244.078 290.913 243.532ZM278.907 247.961C278.481 247.532 278.112 246.932 277.798 246.157L273.709 247.817C273.705 248.059 273.712 248.301 273.729 248.543C273.76 248.543 273.788 248.543 273.818 248.54C273.879 248.54 273.938 248.538 274 248.536C274.087 248.534 274.172 248.532 274.259 248.53C275.93 248.485 277.588 248.394 279.231 248.256C279.119 248.165 279.013 248.067 278.907 247.961ZM278.907 247.961C278.481 247.532 278.112 246.932 277.798 246.157L273.709 247.817C273.705 248.059 273.712 248.301 273.729 248.543C273.76 248.543 273.788 248.543 273.818 248.54C273.879 248.54 273.938 248.538 274 248.536C274.087 248.534 274.172 248.532 274.259 248.53C275.93 248.485 277.588 248.394 279.231 248.256C279.119 248.165 279.013 248.067 278.907 247.961ZM278.907 247.961C278.481 247.532 278.112 246.932 277.798 246.157L273.709 247.817C273.705 248.059 273.712 248.301 273.729 248.543C273.76 248.543 273.788 248.543 273.818 248.54C273.879 248.54 273.938 248.538 274 248.536C274.087 248.534 274.172 248.532 274.259 248.53C275.93 248.485 277.588 248.394 279.231 248.256C279.119 248.165 279.013 248.067 278.907 247.961ZM278.907 247.961C278.481 247.532 278.112 246.932 277.798 246.157L273.709 247.817C273.705 248.059 273.712 248.301 273.729 248.543C273.76 248.543 273.788 248.543 273.818 248.54C273.879 248.54 273.938 248.538 274 248.536C274.087 248.534 274.172 248.532 274.259 248.53C275.93 248.485 277.588 248.394 279.231 248.256C279.119 248.165 279.013 248.067 278.907 247.961ZM278.907 247.961C278.481 247.532 278.112 246.932 277.798 246.157L273.709 247.817C273.705 248.059 273.712 248.301 273.729 248.543C273.76 248.543 273.788 248.543 273.818 248.54C273.879 248.54 273.938 248.538 274 248.536C274.087 248.534 274.172 248.532 274.259 248.53C275.93 248.485 277.588 248.394 279.231 248.256C279.119 248.165 279.013 248.067 278.907 247.961ZM278.907 247.961C278.481 247.532 278.112 246.932 277.798 246.157L273.709 247.817C273.705 248.059 273.712 248.301 273.729 248.543C273.76 248.543 273.788 248.543 273.818 248.54C273.879 248.54 273.938 248.538 274 248.536C274.087 248.534 274.172 248.532 274.259 248.53C275.93 248.485 277.588 248.394 279.231 248.256C279.119 248.165 279.013 248.067 278.907 247.961ZM278.907 247.961C278.481 247.532 278.112 246.932 277.798 246.157L273.709 247.817L272.719 248.218C272.766 248.332 272.812 248.447 272.863 248.557C272.948 248.557 273.033 248.555 273.118 248.553C273.203 248.553 273.285 248.551 273.37 248.549C273.489 248.547 273.608 248.545 273.726 248.543C273.758 248.543 273.786 248.543 273.815 248.54C273.877 248.54 273.936 248.538 273.998 248.536C274.085 248.534 274.17 248.532 274.257 248.53C275.927 248.485 277.586 248.394 279.229 248.256C279.119 248.165 279.013 248.067 278.907 247.961Z" fill="#FFA412"/>
</g>
</g>
</g>
<defs>
<clipPath id="clip0_1325_11433">
<rect width="532.49" height="330.06" fill="white"/>
</clipPath>
<clipPath id="clip1_1325_11433">
<rect width="550" height="248" fill="white" transform="translate(-6 58)"/>
</clipPath>
</defs>
</svg>
