<svg width="533" height="331" viewBox="0 0 533 331" fill="none" xmlns="http://www.w3.org/2000/svg">
<path opacity="0.2" fill-rule="evenodd" clip-rule="evenodd" d="M0 7.5756C0 7.5756 496.166 -10.2363 522.25 8.76437C545.499 25.7019 520.61 239.759 514.929 286.131C514.801 287.134 513.992 287.91 512.938 288.028C382.355 302.136 78.1811 295.779 13.6451 294.227C12.5792 294.197 11.7008 293.49 11.49 292.498C2.02627 247.216 0 7.5756 0 7.5756Z" fill="#999999"/>
<g clip-path="url(#clip0_1224_4770)">
<path d="M168.582 189.36H238.458V144.756L168.582 189.36Z" fill="#E527BB"/>
<path d="M230.31 261.23C233.635 261.23 236.586 262.82 238.458 265.279V246.532H220.004C227.703 251.931 223.42 265.279 213.833 264.934C204.247 265.279 199.948 251.931 207.662 246.532H213.923H188.684V296.385H238.473V277.638C233.081 285.362 219.75 281.057 220.094 271.459C220.079 265.819 224.663 261.23 230.31 261.23Z" fill="#E527BB"/>
<path d="M241.781 192.719V211.467C247.174 203.758 260.505 208.047 260.16 217.646C260.505 227.245 247.174 231.549 241.781 223.825V242.572H262.332C254.633 237.173 258.917 223.825 268.503 224.17C278.09 223.825 282.389 237.173 274.675 242.572H291.556V192.719H241.781Z" fill="#E527BB"/>
<path d="M246.606 207.403C243.281 207.403 240.33 208.992 238.458 211.452V192.705H188.668V242.558H207.392C199.692 247.957 203.976 261.305 213.563 260.96C223.149 261.305 227.448 247.957 219.734 242.558H238.458V223.81C243.85 231.534 257.181 227.23 256.837 217.631C256.837 211.992 252.253 207.403 246.606 207.403Z" fill="#A78BEF"/>
<path d="M274.54 246.547C282.239 241.148 277.955 227.8 268.369 228.145C258.782 227.8 254.483 241.148 262.197 246.547H242.44V265.295C237.048 257.586 223.717 261.875 224.061 271.474C223.717 281.072 237.048 285.377 242.44 277.653V296.4H292.23V246.547H274.54Z" fill="#A78BEF"/>
<path d="M332.284 172.127L263.232 182.896L256.387 138.817L332.284 172.127Z" fill="#A78BEF"/>
<path d="M408.139 85.1095C407.599 85.1095 381.701 85.1095 380.098 85.1095V85.0496H372.01V55.0538C377.162 64.9974 381.881 75.3609 387.648 85.0496C383.049 74.986 378.001 65.1323 372.534 55.5187C382.39 64.0675 398.357 76.9957 408.139 85.1095C398.073 76.3208 382.57 63.0476 372.174 54.1539H372.01L367.651 54.1239C367.516 54.0639 335.836 61.7428 335.686 61.6978C304.41 69.1818 271.472 77.1907 240.301 85.1095C271.681 78.0605 304.68 70.2616 335.941 62.7627C335.806 62.7927 357.405 57.5734 365.03 55.7287C343.205 65.0424 321.351 74.881 299.932 85.0496C322.654 75.8258 345.078 64.4424 367.651 55.0838V85.0496H359.562V85.1095C359.383 85.1095 243.746 85.1095 243.461 85.1095H240.301V105.672H243.461H292.083V134.138C291.274 134.213 289.297 133.748 289.326 135.113V142.072C289.297 143.361 291.094 143.001 291.888 143.046V145.356C287.739 145.131 287.005 151.295 291.049 152.06C283.919 160.909 273.194 174.227 266.424 182.836C273.479 174.302 284.324 160.969 291.483 152.105C291.618 152.12 291.978 152.12 292.128 152.12C300.77 158.794 312.469 167.808 320.602 173.957C312.753 167.718 300.71 158.329 292.727 152.12H296.157V148.101C296.172 147.366 295.018 147.366 295.018 148.101V150.995H291.693C288.248 150.65 288.757 145.806 293.026 146.481V143.046C293.835 142.986 295.618 143.376 295.588 142.072V135.113C295.618 133.763 293.64 134.213 292.832 134.138V105.672C293.296 105.672 359.128 105.672 359.562 105.672V283.727H342.516V297H397.489V283.727H380.098V105.672C381.776 105.672 407.539 105.672 408.139 105.672V125.124H434.621V85.1095H408.139ZM347.699 88.1991L342.696 93.2084L337.693 88.1991H347.699ZM329.919 88.1991L324.916 93.2084L319.913 88.1991H329.919ZM312.124 88.1991L307.121 93.2084L302.118 88.1991H312.124ZM294.344 88.1991L289.341 93.2084L284.339 88.1991H294.344ZM276.445 88.1991L271.337 93.3134L266.229 88.1991H276.445ZM257.916 88.1991L252.808 93.3134L247.7 88.1991H257.916ZM243.461 102.582V88.1841H243.626L243.491 88.3191L250.636 95.4731L243.551 102.567H243.461V102.582ZM247.895 102.582L252.808 97.6628L257.721 102.582H247.895ZM254.98 95.4881L262.065 88.3941L269.15 95.4881L262.065 102.582L254.98 95.4881ZM266.424 102.582L271.337 97.6628L276.25 102.582H266.424ZM273.509 95.4881L280.384 88.6041L287.155 95.3831L280.279 102.267L273.509 95.4881ZM284.324 102.582L289.326 97.5728L294.329 102.582H284.324ZM291.513 95.3981L298.224 88.6791L304.934 95.3981L298.224 102.117L291.513 95.3981ZM302.103 102.582L307.106 97.5728L312.109 102.582H302.103ZM309.293 95.3981L316.004 88.6791L322.714 95.3981L316.004 102.117L309.293 95.3981ZM319.898 102.582L324.901 97.5728L329.904 102.582H319.898ZM327.088 95.3981L333.799 88.6791L340.509 95.3981L333.799 102.117L327.088 95.3981ZM337.678 102.582L342.681 97.5728L347.684 102.582H337.678ZM344.868 95.3981L351.579 88.6791L358.289 95.3981L351.579 102.117L344.868 95.3981ZM359.098 102.582H355.458L359.098 98.9376V102.582ZM359.098 91.8286L355.458 88.1841H359.098V91.8286ZM363.816 105.672H375.635L376.803 106.842L369.718 113.936L362.633 106.842L363.816 105.672ZM363.112 249.906L369.823 243.187L376.533 249.906L369.823 256.626L363.112 249.906ZM376.548 267.709L369.838 274.428L363.127 267.709L369.838 260.99L376.548 267.709ZM363.112 232.089L369.823 225.37L376.533 232.089L369.823 238.808L363.112 232.089ZM363.112 214.286L369.823 207.567L376.533 214.286L369.823 221.006L363.112 214.286ZM363.112 196.469L369.823 189.75L376.533 196.469L369.823 203.188L363.112 196.469ZM363.112 178.666L369.823 171.947L376.533 178.666L369.823 185.386L363.112 178.666ZM363.112 160.849L369.823 154.13L376.533 160.849L369.823 167.568L363.112 160.849ZM363.112 143.046L369.823 136.327L376.533 143.046L369.823 149.765L363.112 143.046ZM362.962 125.079L369.733 118.3L376.608 125.184L369.838 131.963L362.962 125.079ZM362.633 111.206L367.546 116.125L362.633 121.045V111.206ZM362.633 129.128L367.636 134.138L362.633 139.147V129.128ZM362.633 146.931L367.636 151.94L362.633 156.949V146.931ZM362.633 164.748L367.636 169.758L362.633 174.767V164.748ZM362.633 182.551L367.636 187.56L362.633 192.57V182.551ZM362.633 200.368L367.636 205.378L362.633 210.387V200.368ZM362.633 218.171L367.636 223.18L362.633 228.19V218.171ZM362.633 235.988L367.636 240.998L362.633 246.007V235.988ZM362.633 253.791L367.636 258.8L362.633 263.81V253.791ZM362.633 271.608L367.636 276.618L362.633 281.627V271.608ZM364.91 283.727L369.823 278.807L374.736 283.727H364.91ZM377.013 281.642L372.01 276.633L377.013 271.623V281.642ZM377.013 263.825L372.01 258.815L377.013 253.806V263.825ZM377.013 246.022L372.01 241.013L377.013 236.003V246.022ZM377.013 228.205L372.01 223.195L377.013 218.186V228.205ZM377.013 210.402L372.01 205.393L377.013 200.383V210.402ZM377.013 192.585L372.01 187.575L377.013 182.566V192.585ZM377.013 174.782L372.01 169.773L377.013 164.763V174.782ZM377.013 156.964L372.01 151.955L377.013 146.946V156.964ZM377.013 139.162L372.01 134.153L377.013 129.143V139.162ZM377.013 121.239L371.905 116.125L377.013 111.011V121.239ZM401.069 88.1991L396.066 93.2084L391.063 88.1991H401.069ZM380.098 88.2141V88.1991H383.274L380.098 91.3787V88.2141ZM380.098 102.582V99.4025L383.274 102.582H380.098ZM380.443 95.3981L387.153 88.6791L393.864 95.3981L387.153 102.117L380.443 95.3981ZM391.048 102.582L396.051 97.5728L401.054 102.582H391.048ZM404.948 102.117L398.238 95.3981L404.948 88.6791V102.117Z" fill="#E527BB"/>
<path d="M295.632 116.126L249.483 126.699C249.483 126.699 239.941 121.54 239.132 123.385C238.803 124.134 243.162 127.419 242.832 127.824C242.502 128.229 232.062 132.023 232.137 133.088C232.212 134.153 236.601 138.892 237.754 138.802C238.908 138.727 249.977 134.888 249.977 134.888V134.828C253.377 134.123 303.526 132.128 304.784 129.504L319.898 121.015L320.512 91.364L295.632 116.126Z" fill="#F4D2C6"/>
<mask id="mask0_1224_4770" style="mask-type:luminance" maskUnits="userSpaceOnUse" x="232" y="91" width="89" height="48">
<path d="M295.632 116.126L249.483 126.699C249.483 126.699 239.941 121.54 239.132 123.385C238.803 124.134 243.162 127.419 242.832 127.824C242.502 128.229 232.062 132.023 232.137 133.088C232.212 134.153 236.601 138.892 237.754 138.802C238.908 138.727 249.977 134.888 249.977 134.888V134.828C253.377 134.123 303.526 132.128 304.784 129.504L319.898 121.015L320.512 91.364L295.632 116.126Z" fill="white"/>
</mask>
<g mask="url(#mask0_1224_4770)">
<path d="M314.313 93.2089C314.313 93.2089 305.37 114.521 318.627 127.479L325.757 86.9697L317.998 87.1047L314.313 93.2089Z" fill="#EDA19D"/>
</g>
<mask id="mask1_1224_4770" style="mask-type:luminance" maskUnits="userSpaceOnUse" x="232" y="91" width="89" height="48">
<path d="M295.632 116.126L249.483 126.699C249.483 126.699 239.941 121.54 239.132 123.385C238.803 124.134 243.162 127.419 242.832 127.824C242.502 128.229 232.062 132.023 232.137 133.088C232.212 134.153 236.601 138.892 237.754 138.802C238.908 138.727 249.977 134.888 249.977 134.888V134.828C253.377 134.123 303.526 132.128 304.784 129.504L319.898 121.015L320.512 91.364L295.632 116.126Z" fill="white"/>
</mask>
<g mask="url(#mask1_1224_4770)">
<path d="M242.083 126.744C242.083 126.744 252.224 133.538 252.793 136.058C252.793 136.058 238.878 140.107 237.754 139.942C236.616 139.777 232.152 136.043 232.152 136.043L232.796 132.053L242.083 126.744Z" fill="#EDA19D"/>
</g>
<path d="M383.735 279.678L384.199 283.547L375.482 292.591C374.448 293.671 374.149 295.26 374.733 296.64L396.692 287.371L391.15 276.543L383.735 279.678Z" fill="#A78BEF"/>
<path d="M320.706 146.181L303.706 188.76C299.407 193.14 302.283 277.068 301.504 284.327H314.266L328.226 201.868L359.127 153.875L320.706 146.181Z" fill="#231F20"/>
<mask id="mask2_1224_4770" style="mask-type:luminance" maskUnits="userSpaceOnUse" x="301" y="146" width="59" height="139">
<path d="M320.706 146.181L303.706 188.76C299.407 193.14 302.283 277.068 301.504 284.327H314.266L328.226 201.868L359.127 153.875L320.706 146.181Z" fill="white"/>
</mask>
<g mask="url(#mask2_1224_4770)">
<path d="M338.68 185.626L336.897 163.774C336.897 163.774 316.945 197.804 316.616 203.413C316.286 209.022 308.707 286.591 308.707 286.591H317.934C320.6 273.558 330.486 195.044 338.68 185.626Z" fill="#231F20"/>
</g>
<path d="M335.504 146.751L339.863 200.024C337.841 203.953 380.261 279.468 382.013 284.327L393.307 278.388L368.397 201.913L369.835 149.106L335.504 146.751Z" fill="#231F20"/>
<mask id="mask3_1224_4770" style="mask-type:luminance" maskUnits="userSpaceOnUse" x="335" y="146" width="59" height="139">
<path d="M335.504 146.751L339.863 200.024C337.841 203.953 380.261 279.468 382.013 284.327L393.307 278.388L368.397 201.913L369.835 149.106L335.504 146.751Z" fill="white"/>
</mask>
<g mask="url(#mask3_1224_4770)">
<path d="M328.613 146.976C328.613 146.976 344.326 165.888 371.348 170.808L372.052 149.691L329.842 144.187L328.613 146.976Z" fill="#231F20"/>
</g>
<path d="M303.554 284.327L302.491 288.076L290.957 293.026C289.579 293.611 288.695 294.975 288.695 296.46H312.527L311.628 284.327H303.554Z" fill="#8A6EED"/>
<path d="M341.003 66.7823C338.232 84.8397 317.112 82.8 320.078 63.5727C321.561 44.9303 343.1 49.9246 341.003 66.7823Z" fill="#F4D2C6"/>
<mask id="mask4_1224_4770" style="mask-type:luminance" maskUnits="userSpaceOnUse" x="319" y="51" width="23" height="29">
<path d="M341.003 66.7823C338.232 84.8397 317.112 82.8 320.078 63.5727C321.561 44.9303 343.1 49.9246 341.003 66.7823Z" fill="white"/>
</mask>
<g mask="url(#mask4_1224_4770)">
<path d="M316.754 67.4272L336.406 61.968L334.729 56.8987L318.162 57.0187L316.754 67.4272Z" fill="#EDA19D"/>
</g>
<path d="M341.077 65.8674C341.077 65.8674 337.452 87.1045 338.965 93.6885C338.965 93.6885 331.64 95.0084 324.93 92.0388C324.93 92.0388 331.46 74.3112 331.101 70.0368L341.077 65.8674Z" fill="#F4D2C6"/>
<path d="M329.17 79.3356C329.17 79.3356 331.581 79.5905 335.071 77.3708C335.071 77.3708 333.708 83.0551 328.121 82.7401L329.17 79.3356Z" fill="#EDA19D"/>
<path d="M319.688 59.0884C319.688 59.0884 324.735 60.7531 333.168 60.9031C336.419 66.4224 330.233 71.3117 339.999 73.1114C343.084 66.8573 350.604 52.7443 334.517 49.4447C327.117 47.69 321.455 50.7795 319.688 59.0884Z" fill="#231F20"/>
<path d="M337.634 67.1722C337.229 70.4267 332.286 69.8418 332.661 66.5872C333.05 63.3327 337.993 63.9176 337.634 67.1722Z" fill="#F4D2C6"/>
<path d="M356.699 102.567C352.61 88.0793 343.308 81.2852 330.591 84.5698C320.75 86.8495 319.372 98.3079 318.623 107.517L315.762 158.854L373.086 153.38L356.699 102.567Z" fill="#E527BB"/>
<path d="M318.625 58.8785L341.752 71.8816C356.147 48.005 324.272 36.8015 318.625 58.8785Z" fill="#A78BEF"/>
<path d="M336.253 65.0876L333.617 67.3223L339.144 70.4269L339.534 66.8874L336.253 65.0876Z" fill="#8A6EED"/>
<path d="M327.177 50.8396L325.799 49.6548C325.799 49.6548 322.174 51.3945 319.897 54.6491L310.91 56.2989L332.51 66.7074L322.129 56.7788C322.743 55.6239 324.586 52.4444 327.177 50.8396Z" fill="#8A6EED"/>
<path d="M338.829 83.7449C338.829 83.7449 330.935 103.527 333.002 133.493L332.508 150.98L373.071 144.756C367.903 135.428 359.23 82.74 338.829 83.7449Z" fill="#A78BEF"/>
<mask id="mask5_1224_4770" style="mask-type:luminance" maskUnits="userSpaceOnUse" x="332" y="83" width="42" height="68">
<path d="M338.829 83.7449C338.829 83.7449 330.935 103.527 333.002 133.493L332.508 150.98L373.071 144.756C367.903 135.428 359.23 82.74 338.829 83.7449Z" fill="white"/>
</mask>
<g mask="url(#mask5_1224_4770)">
<path d="M334.365 96.3432C334.365 96.3432 331.968 124.134 340.506 127.824C349.044 131.528 362.135 113.261 361.341 106.422C360.562 99.5827 355.08 86.8195 350.482 84.5698C345.913 82.3352 336.596 74.0413 334.365 96.3432Z" fill="#A78BEF"/>
</g>
<mask id="mask6_1224_4770" style="mask-type:luminance" maskUnits="userSpaceOnUse" x="332" y="83" width="42" height="68">
<path d="M338.829 83.7449C338.829 83.7449 330.935 103.527 333.002 133.493L332.508 150.98L373.071 144.756C367.903 135.428 359.23 82.74 338.829 83.7449Z" fill="white"/>
</mask>
<g mask="url(#mask6_1224_4770)">
<path d="M367.962 124.824L349.148 129.234L350.227 135.473L370.523 131.408L367.962 124.824Z" fill="white"/>
</g>
<mask id="mask7_1224_4770" style="mask-type:luminance" maskUnits="userSpaceOnUse" x="332" y="83" width="42" height="68">
<path d="M338.829 83.7449C338.829 83.7449 330.935 103.527 333.002 133.493L332.508 150.98L373.071 144.756C367.903 135.428 359.23 82.74 338.829 83.7449Z" fill="white"/>
</mask>
<g mask="url(#mask7_1224_4770)">
<path d="M370.537 133.808L351.574 137.557L352.443 143.826L372.859 140.482L370.537 133.808Z" fill="white"/>
</g>
<path d="M327.026 85.8148C314.085 85.0799 314.249 137.528 312.332 151.161H316.137C316.137 151.161 318.264 110.966 319.522 100.213C320.496 91.8589 327.026 85.8148 327.026 85.8148Z" fill="#A78BEF"/>
<path d="M355.276 124.239C354.572 120.58 355.756 95.9681 352.52 93.5835C349.719 89.4141 345.001 86.8944 340.417 90.089C338.305 91.5887 337.107 94.0634 337.227 96.658L338.605 127.029L319.896 168.693C319.896 168.693 311.928 175.802 313.725 176.507C315.522 177.212 318.144 174.002 318.938 174.227C319.731 174.452 312.437 184.951 314.938 185.401C317.44 185.851 323.611 184.846 324.405 183.811C326.187 181.456 328.539 172.847 328.434 169.158L352.61 133.538C354.467 130.793 355.396 127.539 355.276 124.239Z" fill="#F4D2C6"/>
<path d="M119.403 105.717L116.438 131.123L121.56 131.483L119.403 105.717Z" fill="#A78BEF"/>
<path d="M167.946 118.593L51.3242 175.938L79.4186 233.219L196.041 175.875L167.946 118.593Z" fill="#E527BB"/>
<path d="M139.505 168.033C149.391 189.075 118.385 204.328 107.795 183.631C97.8935 162.589 128.915 147.336 139.505 168.033Z" fill="#DCECFD"/>
<path d="M169.899 132.638L166.199 125.094L166.169 125.109L166.154 125.079L57.5273 178.502L81.1939 226.75L189.82 173.327L189.79 173.267L189.82 173.252L186.121 165.708L186.091 165.723L169.869 132.668L169.899 132.638ZM184.728 166.383L178.571 169.413L181.642 175.667L88.1591 221.636L85.0884 215.381L78.8123 218.471L62.5902 185.401L68.8663 182.311L65.8106 176.087L159.294 130.118L162.349 136.343L168.506 133.313L184.728 166.383Z" fill="#DCECFD"/>
<path d="M129.247 173.057C127.66 172.592 124.095 173.627 122.267 174.017C120.964 174.317 120.095 174.437 119.631 174.407C118.163 174.392 117.429 172.562 118.178 171.408C119.466 169.353 123.57 167.883 124.978 170.688L128.498 168.963C127.06 166.113 124.289 165.168 121.428 165.723L120.155 163.114L115.766 165.273L116.98 167.748C112.756 170.268 113.759 177.482 118.507 178.262C119.646 178.547 123.166 177.737 124.993 177.257C126.836 176.912 128.289 176.342 129.202 177.872C130.131 179.731 128.453 181.141 126.701 181.981C124.379 183.061 122.911 182.926 121.593 180.931L118.103 182.641C119.556 185.746 122.687 186.69 125.847 185.836L127.18 188.55L131.569 186.391L130.251 183.721C134.385 181.171 134.07 174.257 129.247 173.057Z" fill="#BEDBFA"/>
<path d="M98.435 188.235C101.476 194.699 91.9342 199.394 88.6837 193.035C85.643 186.555 95.1846 181.876 98.435 188.235Z" fill="#DCECFD"/>
<path d="M157.826 157.655C160.866 164.119 151.325 168.813 148.074 162.454C145.034 155.975 154.575 151.28 157.826 157.655Z" fill="#DCECFD"/>
<path d="M136.345 67.7872C137.274 85.2147 158.499 84.4049 158.109 66.9623C157.196 49.5347 135.956 50.3446 136.345 67.7872Z" fill="#F4D2C6"/>
<mask id="mask8_1224_4770" style="mask-type:luminance" maskUnits="userSpaceOnUse" x="136" y="54" width="23" height="27">
<path d="M136.345 67.7872C137.274 85.2147 158.499 84.4049 158.109 66.9623C157.196 49.5347 135.956 50.3446 136.345 67.7872Z" fill="white"/>
</mask>
<g mask="url(#mask8_1224_4770)">
<path d="M147.234 61.653C147.234 61.653 149.571 66.2573 159.307 66.6323C159.307 66.6323 159.187 62.6128 157.39 60.1382L147.234 61.653Z" fill="#EDA19D"/>
</g>
<path d="M136.344 66.9172C136.344 66.9172 138.186 87.3444 136.254 93.4935C136.254 93.4935 143.114 95.2933 149.705 92.9836C149.705 92.9836 144.837 75.661 145.511 71.6266L136.344 66.9172Z" fill="#F4D2C6"/>
<path d="M146.618 80.5355C146.618 80.5355 144.131 79.8756 143.457 77.161C143.457 77.161 151.006 79.9806 155.515 76.1411C155.515 76.1411 152.489 81.3154 146.618 80.5355Z" fill="#EDA19D"/>
<path d="M158.034 56.0287C160.46 55.5638 161.779 54.5889 161.779 54.5889C150.649 48.6798 143.459 50.4495 143.459 50.4495C127.852 51.6493 135.476 72.3015 136.854 74.3862C136.854 74.3862 140.479 74.8661 143.444 74.9861C144.613 75.0311 149.481 62.7628 149.481 62.7628C149.481 62.7628 159.337 62.9728 163.067 58.0984L158.034 56.0287Z" fill="#231F20"/>
<path d="M148.717 66.6322C148.702 70.3966 144.613 70.3966 144.598 66.6322C144.628 62.8827 148.702 62.8827 148.717 66.6322Z" fill="#F4D2C6"/>
<path d="M168.369 138.082L189.654 284.837H178.03L133.273 138.337L166.167 138.082" fill="#231F20"/>
<path d="M166.169 138.082H148.899L148.914 138.187L126.086 138.412L128.872 284.822H140.421L153.992 175.982C176.04 162.664 166.169 138.082 166.169 138.082Z" fill="#231F20"/>
<path d="M165.976 105.927C164.163 93.9434 155.506 85.2296 145.395 85.2296C136.737 84.4347 128.109 86.7294 123.166 94.9483C115.227 104.247 122.178 149.481 121.339 160.789H174.274L165.976 105.927Z" fill="#A78BEF"/>
<path d="M151.338 194.879L137.708 166.413C137.708 166.413 135.955 193.889 150.38 201.703L151.338 194.879Z" fill="#231F20"/>
<path d="M187.886 284.837L188.95 288.556L200.408 293.475C201.771 294.06 202.655 295.41 202.655 296.895H181.685L179.902 284.852H187.886V284.837Z" fill="#A78BEF"/>
<path d="M139.103 284.837L140.166 288.556L151.625 293.475C152.988 294.06 153.872 295.41 153.872 296.895H129.98L131.119 284.852H139.103V284.837Z" fill="#A78BEF"/>
<path d="M133.559 86.3246C135.79 90.569 147.938 86.7445 149.196 85.6497C149.196 85.6497 145.901 84.5848 139.76 84.8248C135.641 84.9747 133.559 86.3246 133.559 86.3246Z" fill="white"/>
<path d="M156.225 88.979L184.789 104.682L174.274 127.044L156.09 118.825L156.225 88.979Z" fill="#A78BEF"/>
<path d="M168.804 124.569L152.133 117.73L170.018 132.608L168.804 124.569Z" fill="#5C41BF"/>
<path d="M120.137 131.378L117.231 131.183L116.438 143.916L120.557 141.892" fill="#EDA19D"/>
<path d="M237.619 126.444C237.364 126.384 234.908 126.744 233.65 126.939C227.658 124.539 187.53 111.476 183.605 107.202L176.176 123.009C179.711 124.434 184.834 127.089 188.593 127.539C199.078 129.114 232.316 134.393 242.217 137.512C243.985 137.572 249.213 133.658 249.557 133.148C249.902 132.638 237.963 126.519 237.619 126.444Z" fill="#F4D2C6"/>
<mask id="mask9_1224_4770" style="mask-type:luminance" maskUnits="userSpaceOnUse" x="176" y="107" width="74" height="31">
<path d="M237.619 126.444C237.364 126.384 234.908 126.744 233.65 126.939C227.658 124.539 187.53 111.476 183.605 107.202L176.176 123.009C179.711 124.434 184.834 127.089 188.593 127.539C199.078 129.114 232.316 134.393 242.217 137.512C243.985 137.572 249.213 133.658 249.557 133.148C249.902 132.638 237.963 126.519 237.619 126.444Z" fill="white"/>
</mask>
<g mask="url(#mask9_1224_4770)">
<path d="M185.552 107.202C185.552 107.202 183.47 124.644 184.788 128.574L169.016 121.69L178.093 103.902L185.552 107.202Z" fill="#EDA19D"/>
</g>
<path d="M29.2029 297L10 250.042C10 250.042 24.4546 259.67 29.2029 274.983C29.2029 274.983 23.8404 247.057 36.4227 235.944C36.4227 235.944 45.7994 263.87 40.8714 274.983C40.8714 274.983 48.0313 255.711 69.4959 248.542C69.4959 248.542 64.0736 273.753 49.0199 283.637C49.0199 283.637 60.8681 272.643 80.1159 271.474C80.1159 271.474 64.3282 288.691 55.1911 290.866C55.1911 290.866 68.762 287.356 82.3328 288.091C82.3328 288.091 56.4194 297 47.7766 297H29.2029Z" fill="#39B039"/>
<path d="M496.349 297L516.001 243.188C516.001 243.188 496.693 264.56 494.986 276.543C494.986 276.543 500.109 253.866 480.981 235.989C480.981 235.989 474.495 260.615 485.414 278.808C485.414 278.808 466.631 257.69 447.862 253.806C447.862 253.806 456.056 279.392 476.202 288.196C476.202 288.196 453.33 280.982 440.688 290.401L467.32 297H496.349Z" fill="#39B039"/>
</g>
<defs>
<clipPath id="clip0_1224_4770">
<rect width="506" height="250" fill="white" transform="translate(10 47)"/>
</clipPath>
</defs>
</svg>
