<svg width="557" height="339" viewBox="0 0 557 339" fill="none" xmlns="http://www.w3.org/2000/svg">
<g clip-path="url(#clip0_583_2052)">
<path opacity="0.2" d="M85.5598 333.34C48.2398 295.41 -2.77021 256.24 17.2298 197.07C30.3898 158.15 62.6398 147.31 89.4598 123.31C102.69 111.47 94.3698 94.2299 94.1198 77.1199C93.5598 33.2999 145.94 -0.700057 194.1 0.00994261C246.26 0.779943 268.84 49.7299 312.6 52.3599C329.78 52.6099 345.17 43.1899 360.37 35.7199C405.41 13.5599 476.89 27.6899 480.5 81.2699C481.43 110.21 446.15 156.76 481.5 171.98C509.67 184.11 538.13 188.58 543.21 231.96C549.86 288.74 514.72 319.9 468.95 334.52L85.5598 333.34Z" fill="#999999"/>
<path d="M259.279 48.0833C260.834 35.5595 251.942 24.1466 239.418 22.5918C226.894 21.0371 215.481 29.9293 213.926 42.453C212.372 54.9768 221.264 66.3898 233.788 67.9445C246.311 69.4993 257.724 60.6071 259.279 48.0833Z" fill="#E527BB"/>
<path d="M259.46 45.2699C259.46 32.6499 249.23 22.4199 236.61 22.4199" stroke="#33383C" stroke-width="0.5653" stroke-miterlimit="10" stroke-linecap="round" stroke-linejoin="round"/>
<path d="M236.61 63.84C246.866 63.84 255.18 55.5259 255.18 45.27C255.18 35.014 246.866 26.7 236.61 26.7C226.354 26.7 218.04 35.014 218.04 45.27C218.04 55.5259 226.354 63.84 236.61 63.84Z" fill="white"/>
<path d="M251.25 33.86C247.85 29.5 242.55 26.7 236.61 26.7C226.37 26.7 218.04 35.03 218.04 45.27C218.04 55.51 226.37 63.84 236.61 63.84" stroke="#33383C" stroke-width="0.5653" stroke-miterlimit="10" stroke-linecap="round" stroke-linejoin="round"/>
<path d="M235.33 46.1598C235.38 46.2898 235.49 46.3998 235.63 46.4498L250.27 50.8298C250.52 50.8998 250.77 50.7598 250.85 50.5198C250.92 50.2698 250.78 50.0198 250.54 49.9398L236.26 45.6698L236.98 34.6598C237 34.3998 236.8 34.1798 236.55 34.1698C236.29 34.1498 236.07 34.3498 236.06 34.5998L235.31 45.9798C235.3 46.0398 235.31 46.0998 235.33 46.1598Z" fill="#33383C"/>
<path d="M506.485 197.514C506.27 197.835 506.049 198.151 505.823 198.462V197.514H506.485Z" fill="#DCEAFB"/>
<path d="M492.035 337.304C492.035 337.689 491.725 338 491.339 338H64.6627C64.2789 338 63.9663 337.689 63.9663 337.304C63.9663 336.92 64.2806 336.607 64.6627 336.607H491.337C491.723 336.606 492.035 336.92 492.035 337.304Z" fill="#1D3B77"/>
<path d="M181.661 309.125C174.43 317.671 160.972 316.86 151.058 314.551C141.733 312.38 133.083 306.423 128.137 298.193C126.397 295.296 125.531 291.544 128.453 289.155C130.058 287.842 132.274 287.243 134.307 287.037C132.032 287.267 128.526 285.489 126.421 284.691C122.696 283.276 113.448 277.49 120.436 273.75C123.056 272.347 125.848 272.96 126.925 273.262C122.948 272.149 118.112 271.196 115.205 268.003C111.51 263.943 114.531 256.852 120.436 259.066C116.698 256.147 112.135 251.966 110.909 247.198C109.983 243.597 111.756 239.923 115.512 239.039C117.867 238.485 120.378 239.124 122.495 240.294C126.484 242.498 129.856 246.175 132.194 250.042C130.83 247.788 131.687 243.897 133.194 241.971C134.021 240.916 135.262 240.133 136.603 240.079C143.078 239.811 146.659 250.561 147.416 255.459C146.565 249.957 149.945 243.423 156.175 247.316C160.798 250.205 164.441 256.242 163.568 261.801C163.898 259.703 164.712 257.008 166.195 255.428C168.967 252.476 171.389 257.5 172.221 259.635C173.919 263.999 174.169 268.843 172.937 273.363C173.438 271.521 176.696 268.762 178.533 268.416C184.669 267.263 185.985 282.298 186.443 286.024C187.352 293.379 187.041 301.599 182.632 307.876C182.321 308.309 181.998 308.727 181.661 309.125Z" fill="url(#paint0_linear_583_2052)"/>
<path opacity="0.5" d="M195.607 320.041L168.595 294.005L170.193 270.227C170.224 269.765 169.875 269.366 169.413 269.336C168.96 269.296 168.552 269.654 168.522 270.116L167.018 292.487L152.376 278.372L155.036 260.931C155.105 260.474 154.791 260.047 154.334 259.976C153.876 259.906 153.451 260.22 153.379 260.677L150.898 276.947L138.695 265.185L139.31 250.961C139.331 250.499 138.971 250.108 138.509 250.087C138.061 250.078 137.657 250.426 137.636 250.888L137.085 263.632L122.708 249.775C122.377 249.453 121.845 249.464 121.524 249.795C121.203 250.129 121.213 250.658 121.545 250.98L135.891 264.806L122.075 265.673C121.613 265.702 121.262 266.1 121.291 266.562C121.319 267.006 121.687 267.346 122.127 267.346C122.144 267.346 122.161 267.346 122.181 267.345L137.528 266.383L149.613 278.032L132.016 279.947C131.556 279.997 131.224 280.411 131.275 280.871C131.322 281.3 131.685 281.617 132.107 281.617C132.138 281.617 132.167 281.616 132.199 281.612L151.184 279.546L165.794 293.628L144.273 295.091C143.811 295.123 143.462 295.522 143.495 295.984C143.524 296.427 143.893 296.765 144.33 296.765C144.349 296.765 144.368 296.765 144.387 296.764L167.423 295.197L194.447 321.246C194.608 321.402 194.819 321.48 195.029 321.48C195.247 321.48 195.468 321.395 195.631 321.223C195.951 320.892 195.94 320.362 195.607 320.041Z" fill="white"/>
<path d="M104.47 289.678C98.5653 287.462 95.5402 294.557 99.239 298.613C102.09 301.745 106.798 302.724 110.726 303.81C109.519 303.499 106.923 303.051 104.47 304.362C97.4834 308.102 106.73 313.887 110.454 315.304C112.56 316.105 116.066 317.879 118.345 317.65C116.309 317.86 114.093 318.458 112.491 319.768C109.568 322.159 110.435 325.912 112.173 328.81C113.935 331.746 116.172 334.392 118.744 336.677H167.796C171.122 330.681 171.302 323.302 170.481 316.633C170.443 316.315 170.398 315.917 170.342 315.447C169.76 310.46 168.182 297.969 162.569 299.024C160.73 299.372 157.472 302.131 156.971 303.973C157.691 301.327 157.905 298.571 157.615 295.866C157.561 295.309 157.476 294.756 157.377 294.204C157.13 292.857 156.753 291.529 156.255 290.244C155.422 288.108 153.001 283.088 150.229 286.035C148.746 287.618 147.934 290.315 147.604 292.407C148.274 288.144 146.289 283.6 143.245 280.411C142.722 279.867 142.168 279.36 141.595 278.907C141.147 278.548 140.687 278.216 140.213 277.923C136.373 275.528 133.617 277.086 132.268 279.925C132.03 280.418 131.837 280.951 131.69 281.508C131.304 282.944 131.221 284.548 131.455 286.068C130.928 282.647 129.023 276.377 125.718 272.995C125.688 272.965 125.659 272.936 125.629 272.906H125.626L125.622 272.903C124.211 271.491 122.557 270.607 120.638 270.687C120.236 270.705 119.843 270.783 119.466 270.918H119.463C118.588 271.236 117.813 271.844 117.235 272.58C115.728 274.505 114.868 278.397 116.235 280.654C113.897 276.785 110.523 273.108 106.536 270.906C104.417 269.734 101.908 269.097 99.5499 269.651C95.7937 270.534 94.0225 274.21 94.948 277.811C96.1688 282.576 100.734 286.759 104.47 289.678Z" fill="url(#paint1_linear_583_2052)"/>
<path opacity="0.5" d="M105.327 297.179C105.357 297.623 105.725 297.965 106.164 297.965H106.218L121.562 297.002L133.649 308.647L116.051 310.566C115.59 310.616 115.259 311.031 115.309 311.486C115.356 311.917 115.719 312.236 116.137 312.236C116.17 312.236 116.2 312.233 116.229 312.233L135.217 310.165L149.825 324.247L128.304 325.712C127.843 325.742 127.496 326.143 127.529 326.604C127.559 327.044 127.927 327.384 128.363 327.384H128.422L151.455 325.818L162.725 336.681H165.138L152.633 324.625L153.277 315.032L154.227 300.844C154.26 300.384 153.909 299.986 153.447 299.952C152.996 299.913 152.589 300.269 152.554 300.731L151.617 314.684L151.051 323.106L136.41 308.989L136.615 307.657L139.068 291.549C139.14 291.093 138.825 290.666 138.365 290.594C137.908 290.527 137.481 290.838 137.41 291.298L135.107 306.423L134.932 307.565L122.729 295.803L123.278 283.128L123.346 281.579C123.367 281.119 123.007 280.729 122.545 280.708C122.097 280.699 121.691 281.046 121.67 281.508L121.646 282.053L121.123 294.256L106.746 280.397C106.414 280.079 105.883 280.086 105.562 280.421C105.239 280.753 105.253 281.284 105.583 281.602L119.93 295.428L106.114 296.295C105.65 296.319 105.303 296.717 105.327 297.179Z" fill="white"/>
<path d="M399.866 309.125C407.097 317.671 420.556 316.86 430.469 314.551C439.795 312.38 448.444 306.423 453.39 298.193C455.13 295.296 455.997 291.544 453.074 289.155C451.47 287.842 449.254 287.243 447.22 287.037C449.495 287.267 453.001 285.489 455.106 284.691C458.831 283.276 468.08 277.49 461.092 273.75C458.471 272.347 455.679 272.96 454.602 273.262C458.579 272.149 463.415 271.196 466.322 268.003C470.018 263.943 466.996 256.852 461.092 259.066C464.829 256.147 469.392 251.966 470.618 247.198C471.544 243.597 469.771 239.923 466.015 239.039C463.66 238.485 461.149 239.124 459.032 240.294C455.043 242.498 451.671 246.175 449.334 250.042C450.697 247.788 449.841 243.897 448.333 241.971C447.507 240.916 446.265 240.133 444.924 240.079C438.449 239.811 434.868 250.561 434.111 255.459C434.962 249.957 431.583 243.423 425.352 247.316C420.729 250.205 417.086 256.242 417.959 261.801C417.629 259.703 416.815 257.008 415.332 255.428C412.56 252.476 410.138 257.5 409.306 259.635C407.608 263.999 407.358 268.843 408.591 273.363C408.089 271.521 404.831 268.762 402.994 268.416C396.859 267.263 395.542 282.298 395.084 286.024C394.176 293.379 394.487 301.599 398.896 307.876C399.208 308.309 399.531 308.727 399.866 309.125Z" fill="url(#paint2_linear_583_2052)"/>
<path opacity="0.5" d="M385.921 320.041L412.933 294.005L411.335 270.227C411.304 269.765 411.653 269.366 412.115 269.336C412.568 269.296 412.976 269.654 413.005 270.116L414.509 292.487L429.152 278.372L426.492 260.931C426.422 260.474 426.736 260.047 427.193 259.976C427.652 259.906 428.077 260.22 428.148 260.677L430.63 276.947L442.832 265.185L442.218 250.961C442.197 250.499 442.556 250.108 443.018 250.087C443.466 250.078 443.871 250.426 443.892 250.888L444.442 263.632L458.819 249.775C459.151 249.453 459.682 249.464 460.003 249.795C460.325 250.129 460.314 250.658 459.983 250.98L445.637 264.806L459.453 265.673C459.915 265.702 460.266 266.1 460.236 266.562C460.208 267.006 459.84 267.346 459.401 267.346C459.383 267.346 459.366 267.346 459.347 267.345L443.999 266.383L431.915 278.032L449.511 279.947C449.971 279.997 450.303 280.411 450.253 280.871C450.206 281.3 449.843 281.617 449.421 281.617C449.39 281.617 449.36 281.616 449.329 281.612L430.343 279.546L415.734 293.628L437.255 295.091C437.717 295.123 438.066 295.522 438.033 295.984C438.003 296.427 437.635 296.765 437.197 296.765C437.178 296.765 437.159 296.765 437.14 296.764L414.105 295.197L387.081 321.246C386.919 321.402 386.709 321.48 386.499 321.48C386.28 321.48 386.06 321.395 385.896 321.223C385.578 320.892 385.587 320.362 385.921 320.041Z" fill="white"/>
<path d="M477.058 289.678C482.963 287.462 485.988 294.557 482.289 298.613C479.437 301.745 474.73 302.724 470.802 303.81C472.008 303.499 474.605 303.051 477.058 304.362C484.044 308.102 474.797 313.887 471.074 315.304C468.968 316.105 465.462 317.879 463.183 317.65C465.219 317.86 467.434 318.458 469.037 319.768C471.96 322.159 471.093 325.912 469.355 328.81C467.592 331.746 465.356 334.392 462.784 336.677H413.732C410.406 330.681 410.226 323.302 411.047 316.633C411.085 316.315 411.13 315.917 411.186 315.447C411.768 310.46 413.346 297.969 418.959 299.024C420.798 299.372 424.055 302.131 424.557 303.973C423.837 301.327 423.623 298.571 423.913 295.866C423.967 295.309 424.052 294.756 424.151 294.204C424.398 292.857 424.774 291.529 425.273 290.244C426.106 288.108 428.527 283.088 431.299 286.035C432.782 287.618 433.594 290.315 433.924 292.407C433.254 288.144 435.239 283.6 438.283 280.411C438.806 279.867 439.36 279.36 439.933 278.907C440.381 278.548 440.841 278.216 441.315 277.923C445.154 275.528 447.91 277.086 449.26 279.925C449.498 280.418 449.69 280.951 449.838 281.508C450.223 282.944 450.307 284.548 450.072 286.068C450.6 282.647 452.505 276.377 455.81 272.995C455.839 272.965 455.869 272.936 455.898 272.906H455.902L455.905 272.903C457.317 271.491 458.97 270.607 460.889 270.687C461.29 270.705 461.685 270.783 462.061 270.918H462.065C462.94 271.236 463.715 271.844 464.293 272.58C465.8 274.505 466.66 278.397 465.293 280.654C467.631 276.785 471.005 273.108 474.992 270.906C477.11 269.734 479.62 269.097 481.978 269.651C485.734 270.534 487.505 274.21 486.58 277.811C485.359 282.576 480.794 286.759 477.058 289.678Z" fill="url(#paint3_linear_583_2052)"/>
<path opacity="0.5" d="M476.201 297.179C476.171 297.623 475.803 297.965 475.364 297.965H475.31L459.966 297.002L447.879 308.647L465.477 310.566C465.938 310.616 466.269 311.031 466.219 311.486C466.172 311.917 465.809 312.236 465.389 312.236C465.356 312.236 465.326 312.233 465.297 312.233L446.309 310.165L431.702 324.247L453.223 325.712C453.683 325.742 454.03 326.143 453.997 326.604C453.968 327.044 453.599 327.384 453.164 327.384H453.105L430.071 325.818L418.801 336.681H416.389L428.894 324.625L428.249 315.032L427.299 300.844C427.266 300.384 427.617 299.986 428.079 299.952C428.531 299.913 428.937 300.269 428.972 300.731L429.909 314.684L430.476 323.106L445.116 308.989L444.911 307.657L442.458 291.549C442.387 291.093 442.701 290.666 443.161 290.594C443.618 290.527 444.045 290.838 444.116 291.298L446.419 306.423L446.594 307.565L458.797 295.803L458.248 283.128L458.18 281.579C458.16 281.119 458.519 280.729 458.981 280.708C459.429 280.699 459.835 281.046 459.856 281.508L459.881 282.053L460.403 294.256L474.78 280.397C475.112 280.079 475.643 280.086 475.964 280.421C476.287 280.753 476.274 281.284 475.944 281.602L461.596 295.428L475.412 296.295C475.878 296.319 476.225 296.717 476.201 297.179Z" fill="white"/>
<path d="M186.323 158.709C186.323 163.273 183.541 167.215 179.592 168.908C178.25 169.484 176.777 169.804 175.226 169.804C173.676 169.804 172.205 169.484 170.861 168.908C166.912 167.213 164.13 163.272 164.13 158.709C164.13 154.144 166.912 150.202 170.861 148.507C172.203 147.933 173.676 147.613 175.226 147.613C176.777 147.613 178.248 147.933 179.592 148.507C183.541 150.202 186.323 154.144 186.323 158.709Z" fill="#A78BEF"/>
<path d="M179.681 163.163C182.141 160.703 182.141 156.714 179.681 154.254C177.221 151.794 173.232 151.794 170.771 154.254C168.311 156.714 168.311 160.703 170.771 163.163C173.232 165.623 177.221 165.623 179.681 163.163Z" fill="#BF169F"/>
<path d="M179.593 168.908V314.78H170.863V168.908C172.206 169.484 173.678 169.804 175.229 169.804C176.78 169.804 178.251 169.484 179.593 168.908Z" fill="#A78BEF"/>
<path d="M184.941 137.652C184.901 138.515 184.75 141.609 182.39 144.056C181.519 144.958 180.544 145.566 179.593 145.983V148.509C178.25 147.935 176.778 147.615 175.227 147.615C173.676 147.615 172.206 147.935 170.861 148.509V145.983C169.91 145.568 168.934 144.96 168.064 144.056C165.706 141.609 165.553 138.515 165.513 137.652C165.393 134.775 166.64 132.08 168.279 129.793C169.319 128.338 170.142 127.442 170.861 126.683C171.9 125.596 172.74 124.789 173.763 123.039C174.267 122.183 174.81 121.056 175.225 119.601C175.64 121.056 176.184 122.183 176.689 123.039C177.712 124.789 178.553 125.596 179.591 126.683C180.31 127.442 181.135 128.338 182.173 129.793C183.814 132.08 185.061 134.775 184.941 137.652Z" fill="#A78BEF"/>
<path d="M102.934 185.577L78.3344 260.679H75.8008L100.656 184.825C101.352 185.193 102.12 185.455 102.934 185.577Z" fill="#A78BEF"/>
<path d="M135.225 265.954C132.714 280.919 119.699 292.319 104.021 292.319C88.3438 292.319 75.3284 280.919 72.8174 265.954H135.225Z" fill="#E527BB"/>
<path d="M138.87 263.316C138.87 264.772 137.688 265.954 136.233 265.954H71.8102C70.355 265.954 69.1724 264.772 69.1724 263.316C69.1724 262.589 69.4676 261.934 69.9486 261.453C70.4279 260.974 71.0843 260.677 71.8119 260.677H136.234C136.962 260.677 137.617 260.972 138.098 261.453C138.575 261.934 138.87 262.589 138.87 263.316Z" fill="#BF169F"/>
<path d="M132.235 260.679H129.708L105.108 185.577C105.925 185.457 106.692 185.202 107.395 184.834L132.235 260.679Z" fill="#A78BEF"/>
<path d="M110.247 174.669C109.74 173.83 109.068 173.099 108.253 172.518C106.678 171.384 104.758 170.931 102.847 171.247L102.629 171.29C98.7527 172.049 96.2243 175.69 96.8633 179.579C97.327 182.404 99.3761 184.585 101.955 185.36C102.709 185.587 103.513 185.698 104.336 185.658C104.619 185.644 104.907 185.62 105.199 185.571L105.419 185.528C105.78 185.457 106.136 185.363 106.472 185.24C107.25 184.965 107.953 184.566 108.573 184.071C109.566 183.281 110.332 182.236 110.785 181.055C110.794 181.053 110.794 181.053 110.794 181.053C111.249 179.881 111.407 178.571 111.185 177.23C111.032 176.308 110.707 175.442 110.247 174.669ZM106.965 181.201C106.418 181.781 105.694 182.199 104.864 182.37C104.825 182.385 104.778 182.394 104.74 182.403L104.678 182.415C103.856 182.55 103.058 182.422 102.353 182.104C101.156 181.566 100.246 180.456 100.022 179.067C99.6522 176.85 101.151 174.764 103.368 174.403C105.579 174.044 107.665 175.541 108.024 177.753C108.238 179.055 107.809 180.312 106.965 181.201Z" fill="#A78BEF"/>
<path d="M108.024 177.753C108.238 179.055 107.809 180.312 106.965 181.201C106.418 181.781 105.693 182.2 104.863 182.37C104.825 182.385 104.778 182.394 104.74 182.403L104.678 182.415C103.856 182.55 103.057 182.422 102.352 182.104C101.156 181.566 100.246 180.456 100.022 179.067C99.652 176.85 101.151 174.764 103.368 174.403C105.579 174.044 107.664 175.542 108.024 177.753Z" fill="#BF169F"/>
<path d="M165.948 156.924L166.943 163.246C160.699 164.225 154.834 165.975 149.512 168.46C147.378 169.457 145.874 170.306 144.29 171.202C141.915 172.547 139.45 173.942 135.012 175.699C130.439 177.515 125.792 178.914 121.573 179.75L121.408 179.783C117.915 180.467 114.35 180.896 110.789 181.055C111.244 179.883 111.402 178.572 111.179 177.232C111.032 176.308 110.707 175.443 110.245 174.671C113.617 174.541 117.007 174.129 120.326 173.478C124.169 172.717 128.43 171.434 132.648 169.76C136.686 168.163 138.85 166.941 141.137 165.638C142.758 164.727 144.445 163.768 146.803 162.671C152.672 159.933 159.113 158.002 165.948 156.924Z" fill="#A78BEF"/>
<path d="M248.783 157.351L273.383 232.453H275.917L251.062 156.599C250.365 156.967 249.598 157.231 248.783 157.351Z" fill="#7181B4"/>
<path d="M216.492 237.729C219.003 252.695 232.019 264.094 247.696 264.094C263.374 264.094 276.389 252.695 278.9 237.729H216.492Z" fill="#E527BB"/>
<path d="M212.846 235.092C212.846 236.547 214.028 237.73 215.484 237.73H279.906C281.361 237.73 282.544 236.547 282.544 235.092C282.544 234.365 282.249 233.71 281.768 233.229C281.288 232.75 280.632 232.453 279.904 232.453H215.484C214.756 232.453 214.101 232.748 213.62 233.229C213.143 233.708 212.846 234.365 212.846 235.092Z" fill="#BF169F"/>
<path d="M219.481 232.453H222.008L246.608 157.351C245.792 157.231 245.024 156.976 244.321 156.608L219.481 232.453Z" fill="#7181B4"/>
<path d="M240.623 151.876C240.924 153.203 241.564 154.356 242.429 155.269C242.429 155.269 242.429 155.269 242.438 155.267C243.303 156.189 244.405 156.87 245.624 157.226C246.385 157.451 247.187 157.556 248.01 157.516C248.366 157.504 248.731 157.457 249.092 157.385L249.313 157.342C249.601 157.278 249.877 157.191 250.145 157.097C250.923 156.823 251.624 156.417 252.235 155.922C254.331 154.232 255.406 151.438 254.769 148.648C253.894 144.804 250.178 142.387 246.302 143.146L246.083 143.189C244.195 143.616 242.587 144.762 241.556 146.407C241.021 147.252 240.674 148.185 240.521 149.15C240.387 150.041 240.413 150.963 240.623 151.876ZM243.744 151.166C243.242 148.983 244.609 146.809 246.791 146.308C248.983 145.806 251.157 147.172 251.65 149.364C251.968 150.735 251.544 152.105 250.638 153.057C250.105 153.618 249.412 154.038 248.601 154.222L248.538 154.234C248.498 154.241 248.452 154.251 248.412 154.251C247.578 154.406 246.75 154.291 246.026 153.961C244.909 153.456 244.037 152.453 243.744 151.166Z" fill="#7C9DEA"/>
<path d="M243.743 151.166C244.037 152.453 244.909 153.454 246.027 153.96C246.751 154.29 247.581 154.406 248.413 154.25C248.455 154.25 248.502 154.241 248.54 154.232L248.602 154.22C249.413 154.036 250.104 153.616 250.639 153.055C251.544 152.104 251.969 150.734 251.652 149.362C251.157 147.171 248.983 145.804 246.793 146.306C244.608 146.809 243.242 148.983 243.743 151.166Z" fill="#506BAE"/>
<path d="M182.24 153.732L183.706 159.962C189.858 158.512 195.95 157.922 201.816 158.215C204.169 158.333 205.882 158.55 207.688 158.783C210.395 159.132 213.205 159.495 217.977 159.448C222.896 159.405 227.727 158.946 231.951 158.129L232.116 158.096C235.606 157.411 239.07 156.463 242.429 155.269C241.566 154.354 240.923 153.201 240.623 151.876C240.411 150.964 240.385 150.041 240.52 149.152C237.35 150.303 234.054 151.201 230.735 151.85C226.889 152.595 222.459 153.015 217.921 153.057C213.58 153.1 211.114 152.786 208.506 152.44C206.66 152.208 204.737 151.956 202.138 151.831C195.671 151.508 188.978 152.152 182.24 153.732Z" fill="#A78BEF"/>
<path d="M195.018 326.839H156.376V317.652C156.376 316.067 157.662 314.78 159.249 314.78H192.146C193.731 314.78 195.018 316.065 195.018 317.652V326.839Z" fill="#7C9DEA"/>
<path d="M216.923 336.606H134.47V328.183C134.47 327.441 135.073 326.839 135.814 326.839H215.579C216.321 326.839 216.923 327.441 216.923 328.183V336.606Z" fill="#7C9DEA"/>
<path d="M253.828 302.773H245.22H227.648C225.531 302.773 223.813 304.49 223.813 306.614V315.217H241.386H257.666V306.614C257.666 304.488 255.948 302.776 253.828 302.773Z" fill="#7BACE6"/>
<path d="M244.155 200.896H227.647V302.773H244.155H253.828V200.896H244.155Z" fill="#DAA7EE"/>
<path d="M231.806 200.896H227.647V302.773H231.806H234.245V200.896H231.806Z" fill="#A78BEF"/>
<path d="M223.813 188.448V197.056C223.813 199.172 225.526 200.893 227.648 200.896H240.741H253.828C255.945 200.896 257.666 199.176 257.666 197.056V188.448H236.9H223.813Z" fill="#BF169F"/>
<path d="M309.473 302.773H300.865H283.293C281.176 302.773 279.459 304.49 279.459 306.614V315.217H297.031H313.311V306.614C313.311 304.488 311.596 302.776 309.473 302.773Z" fill="#7BACE6"/>
<path d="M299.801 200.896H283.293V302.773H299.801H309.473V200.896H299.801Z" fill="#AFD1FE"/>
<path d="M287.454 200.896H283.293V302.773H287.454H289.892V200.896H287.454Z" fill="#7BACE6"/>
<path d="M279.461 188.448V197.056C279.461 199.172 281.173 200.893 283.295 200.896H296.389H309.475C311.592 200.896 313.313 199.176 313.313 197.056V188.448H292.548H279.461Z" fill="#7BACE6"/>
<path d="M365.122 302.773H356.514H338.942C336.825 302.773 335.107 304.49 335.107 306.614V315.217H352.68H368.96V306.614C368.96 304.488 367.242 302.776 365.122 302.773Z" fill="#7BACE6"/>
<path d="M355.449 200.896H338.941V302.773H355.449H365.122V200.896H355.449Z" fill="#AFD1FE"/>
<path d="M343.102 200.896H338.941V302.773H343.102H345.539V200.896H343.102Z" fill="#7BACE6"/>
<path d="M335.107 188.448V197.056C335.107 199.172 336.82 200.893 338.942 200.896H352.035H365.122C367.239 200.896 368.96 199.176 368.96 197.056V188.448H348.194H335.107Z" fill="#7BACE6"/>
<path d="M420.767 302.773H412.159H394.587C392.47 302.773 390.753 304.49 390.753 306.614V315.217H408.325H424.605V306.614C424.605 304.488 422.889 302.776 420.767 302.773Z" fill="#7BACE6"/>
<path d="M411.096 200.896H394.589V302.773H411.096H420.767V200.896H411.096Z" fill="#DAA7EE"/>
<path d="M398.748 200.896H394.589V302.773H398.748H401.186V200.896H398.748Z" fill="#A78BEF"/>
<path d="M390.755 188.448V197.056C390.755 199.172 392.467 200.893 394.589 200.896H407.683H420.769C422.886 200.896 424.607 199.176 424.607 197.056V188.448H403.841H390.755Z" fill="#BF169F"/>
<path d="M424.882 173.888V185.429C424.882 187.1 423.531 188.45 421.867 188.45H211.288C209.624 188.45 208.273 187.1 208.273 185.429V173.888H424.882Z" fill="#E8EDFC"/>
<path d="M424.882 173.888H208.275V185.429C208.275 187.1 209.626 188.45 211.288 188.45H421.867H437.13C438.792 188.45 440.144 187.1 440.144 185.429V173.888H424.882Z" fill="#E527BB"/>
<path d="M444.836 141.819L328.093 90.6455C325.676 89.5863 322.932 89.5863 320.513 90.6455L304.751 97.5526L203.77 141.819C202.315 142.456 201.381 143.89 201.381 145.478V169.897C201.381 172.101 203.168 173.888 205.371 173.888H424.881H443.235C445.439 173.888 447.225 172.101 447.225 169.897V145.478C447.225 143.89 446.289 142.456 444.836 141.819Z" fill="#E527BB"/>
<path d="M215.06 160.21V151.805L310.243 110.079L324.302 103.918L433.548 151.805V160.21H215.06Z" fill="#A78BEF"/>
<path d="M383.162 315.218H211.888C208.16 315.218 205.137 318.241 205.137 321.968V336.677H383.162H444.342V321.968C444.342 318.241 441.319 315.218 437.591 315.218H383.162Z" fill="#AFD1FE"/>
<path d="M434.796 276.95V281.689C433.982 297.498 426.25 298.41 426.25 298.41H405.12C405.12 298.41 412.853 297.498 413.667 281.689V276.95C412.853 261.139 405.12 260.22 405.12 260.22H426.25C426.25 260.222 433.982 261.141 434.796 276.95Z" fill="#E527BB"/>
<path d="M413.667 276.95V281.689C412.853 297.498 405.12 298.41 405.12 298.41H382.083C382.083 298.41 389.816 297.498 390.63 281.689V276.95C389.816 261.139 382.083 260.22 382.083 260.22H405.12C405.12 260.222 412.853 261.141 413.667 276.95Z" fill="#BF169F"/>
<path d="M390.63 276.95V281.689C389.816 297.498 382.083 298.41 382.083 298.41H348.489C348.489 298.41 352.018 297.991 354.558 292.843C355.783 290.372 356.773 286.816 357.037 281.689V276.95C356.773 271.821 355.778 268.258 354.558 265.789C352.018 260.639 348.489 260.222 348.489 260.222H382.083C382.084 260.222 389.816 261.141 390.63 276.95Z" fill="#E527BB"/>
<path d="M349.772 292.846C349.667 292.93 349.604 292.972 349.604 292.972" stroke="#6E96E5" stroke-width="1.6486" stroke-miterlimit="10"/>
<path d="M357.037 276.954V281.692C356.773 286.821 355.784 290.377 354.558 292.846C352.018 297.996 348.489 298.413 348.489 298.413H271.057V292.846H346.367C349.116 292.846 351.594 291.183 352.624 288.636C352.721 288.393 352.818 288.134 352.916 287.863C353.006 287.592 353.096 287.306 353.18 287.014C353.221 286.868 353.263 286.715 353.305 286.563C353.624 285.366 353.869 283.974 353.98 282.352C353.994 282.157 354.008 281.956 354.015 281.746C354.029 281.572 354.036 281.392 354.036 281.211C354.064 280.626 354.064 280.022 354.05 279.381C354.057 279.103 354.057 278.838 354.057 278.574C354.057 278.266 354.05 277.975 354.043 277.683C354.036 277.426 354.029 277.174 354.015 276.931C353.994 276.605 353.973 276.29 353.945 275.985C353.925 275.735 353.897 275.49 353.869 275.254C353.834 274.92 353.793 274.599 353.737 274.287C353.709 274.099 353.682 273.912 353.647 273.729C353.619 273.569 353.591 273.422 353.556 273.269C353.286 271.939 352.93 270.826 352.534 269.894C352.506 269.831 352.478 269.769 352.45 269.706C351.351 267.312 348.956 265.789 346.319 265.789H271.057V260.222H348.489C348.489 260.222 352.018 260.639 354.558 265.789C355.778 268.261 356.773 271.824 357.037 276.954Z" fill="#BF169F"/>
<path d="M354.059 278.572C354.059 278.815 354.059 279.06 354.052 279.317H276.619C276.841 268.808 272.172 265.789 272.172 265.789H346.319C348.957 265.789 351.351 267.313 352.451 269.706C352.478 269.769 352.506 269.831 352.534 269.894C352.932 270.826 353.286 271.939 353.557 273.269C353.592 273.422 353.619 273.568 353.647 273.727C353.682 273.908 353.71 274.097 353.737 274.285C353.793 274.597 353.835 274.919 353.869 275.252C353.897 275.488 353.925 275.733 353.946 275.983C353.974 276.288 353.994 276.603 354.015 276.929C354.029 277.172 354.036 277.424 354.043 277.681C354.052 277.973 354.059 278.266 354.059 278.572Z" fill="#D7D7D9"/>
<path d="M354.037 281.209C354.037 281.39 354.03 281.571 354.017 281.746C354.01 281.954 353.996 282.158 353.982 282.352C353.871 283.974 353.628 285.365 353.306 286.563C353.265 286.715 353.223 286.868 353.181 287.014C353.098 287.306 353.008 287.591 352.917 287.863C352.82 288.134 352.723 288.393 352.626 288.636C351.596 291.183 349.118 292.846 346.369 292.846H272.34C273.175 292.185 276.836 288.74 276.62 279.381V279.319H354.053V279.381C354.065 280.02 354.065 280.624 354.037 281.209Z" fill="white"/>
<path d="M272.339 292.846C272.235 292.93 272.172 292.972 272.172 292.972" stroke="#6E96E5" stroke-width="1.6486" stroke-miterlimit="10"/>
<path d="M340.203 270.854C337.341 270.854 334.478 270.854 331.616 270.854C331.02 271.47 330.23 272.469 329.829 273.868C329.6 274.669 329.594 275.262 329.549 276.882C329.511 278.226 329.438 279.568 329.409 280.912C329.374 282.501 329.098 284.842 327.971 287.957C329.56 286.427 331.149 284.896 332.738 283.366C334.092 284.967 335.448 286.566 336.803 288.167C338.103 284.538 338.314 281.683 338.239 279.687C338.195 278.492 338.027 276.999 338.484 274.991C338.897 273.18 339.626 271.779 340.203 270.854Z" fill="#E527BB"/>
<path d="M283.782 315.143V319.881C284.597 335.691 292.328 336.602 292.328 336.602H313.458C313.458 336.602 305.725 335.691 304.911 319.881V315.143C305.725 299.332 313.458 298.413 313.458 298.413H292.328C292.328 298.413 284.597 299.332 283.782 315.143Z" fill="#A78BEF"/>
<path d="M304.911 315.143V319.881C305.726 335.691 313.458 336.602 313.458 336.602H336.495C336.495 336.602 328.763 335.691 327.948 319.881V315.143C328.763 299.332 336.495 298.413 336.495 298.413H313.458C313.458 298.413 305.726 299.332 304.911 315.143Z" fill="#DAA7EE"/>
<path d="M327.948 315.143V319.881C328.763 335.691 336.496 336.602 336.496 336.602H370.089C370.089 336.602 366.56 336.184 364.02 331.036C362.796 328.565 361.806 325.009 361.542 319.881V315.143C361.806 310.014 362.801 306.451 364.02 303.982C366.56 298.832 370.089 298.415 370.089 298.415H336.496C336.494 298.413 328.763 299.332 327.948 315.143Z" fill="#A78BEF"/>
<path d="M368.974 331.165C368.974 331.165 368.911 331.123 368.807 331.039" stroke="#6E96E5" stroke-width="1.6486" stroke-miterlimit="10"/>
<path d="M361.541 315.146V319.885C361.805 325.014 362.793 328.57 364.019 331.039C366.56 336.189 370.088 336.606 370.088 336.606H447.521V331.039H372.21C369.461 331.039 366.983 329.376 365.954 326.828C365.856 326.585 365.759 326.327 365.662 326.056C365.572 325.785 365.481 325.498 365.398 325.207C365.356 325.061 365.315 324.908 365.273 324.755C364.953 323.559 364.708 322.166 364.597 320.545C364.583 320.35 364.57 320.149 364.563 319.939C364.549 319.765 364.542 319.584 364.542 319.404C364.514 318.819 364.514 318.214 364.528 317.574C364.521 317.296 364.521 317.032 364.521 316.766C364.521 316.459 364.528 316.167 364.535 315.875C364.542 315.618 364.549 315.367 364.563 315.124C364.583 314.797 364.604 314.483 364.632 314.177C364.653 313.927 364.681 313.682 364.708 313.446C364.743 313.113 364.785 312.792 364.84 312.479C364.868 312.292 364.896 312.104 364.931 311.922C364.959 311.762 364.986 311.614 365.021 311.462C365.292 310.132 365.648 309.019 366.044 308.086C366.072 308.024 366.099 307.961 366.127 307.899C367.226 305.504 369.621 303.982 372.259 303.982H447.521V298.415H370.088C370.088 298.415 366.56 298.833 364.019 303.982C362.8 306.454 361.805 310.017 361.541 315.146Z" fill="#DAA7EE"/>
<path d="M364.52 316.764C364.52 317.008 364.52 317.252 364.526 317.509H441.959C441.737 307.001 446.406 303.981 446.406 303.981H372.259C369.622 303.981 367.227 305.506 366.128 307.899C366.1 307.961 366.072 308.024 366.044 308.086C365.647 309.019 365.292 310.132 365.021 311.462C364.987 311.614 364.959 311.76 364.931 311.92C364.896 312.101 364.869 312.29 364.841 312.477C364.785 312.79 364.744 313.111 364.709 313.445C364.681 313.681 364.653 313.926 364.632 314.176C364.605 314.481 364.584 314.795 364.563 315.122C364.549 315.365 364.542 315.617 364.535 315.874C364.526 316.165 364.52 316.457 364.52 316.764Z" fill="#D7D7D9"/>
<path d="M364.54 319.402C364.54 319.583 364.547 319.763 364.561 319.939C364.568 320.147 364.582 320.35 364.596 320.545C364.707 322.166 364.95 323.557 365.271 324.755C365.313 324.908 365.354 325.061 365.396 325.207C365.479 325.498 365.57 325.783 365.66 326.056C365.757 326.327 365.855 326.585 365.952 326.828C366.982 329.376 369.46 331.039 372.209 331.039H446.238C445.402 330.378 441.742 326.933 441.957 317.574V317.511H364.524V317.574C364.512 318.211 364.512 318.817 364.54 319.402Z" fill="white"/>
<path d="M446.406 331.165C446.406 331.165 446.344 331.123 446.239 331.039" stroke="#6E96E5" stroke-width="1.6486" stroke-miterlimit="10"/>
<path d="M378.375 309.046C381.237 309.046 384.1 309.046 386.962 309.046C387.558 309.663 388.348 310.661 388.749 312.061C388.978 312.861 388.984 313.455 389.029 315.075C389.067 316.419 389.14 317.761 389.169 319.105C389.204 320.694 389.48 323.034 390.607 326.149C389.018 324.62 387.429 323.088 385.84 321.559C384.486 323.159 383.13 324.759 381.775 326.359C380.474 322.731 380.264 319.876 380.339 317.879C380.382 316.685 380.551 315.191 380.094 313.184C379.681 311.373 378.952 309.972 378.375 309.046Z" fill="#DAA7EE"/>
<path d="M403.706 83.7452V235.894C403.706 238.893 401.278 241.32 398.279 241.32H287.27C286.925 241.32 286.59 241.287 286.261 241.225C283.745 240.754 281.842 238.546 281.842 235.894V83.7452C281.842 80.7465 284.269 78.3191 287.269 78.3191H398.277C401.106 78.3191 403.428 80.4826 403.678 83.2451C403.697 83.4118 403.706 83.5767 403.706 83.7452Z" fill="#A78BEF"/>
<path d="M394.784 232.4V87.2383L290.763 87.2383V232.4L394.784 232.4Z" fill="white"/>
<path d="M374.105 80.8074V83.3928C374.105 87.9021 370.446 91.5606 365.933 91.5606H319.616C315.102 91.5606 311.443 87.9021 311.443 83.3928V80.8074C311.443 85.3167 315.102 88.9751 319.616 88.9751H365.933C370.448 88.9751 374.105 85.3184 374.105 80.8074Z" fill="#F09A47"/>
<path d="M374.105 78.715V80.8073C374.105 85.3166 370.446 88.9751 365.933 88.9751H319.616C315.102 88.9751 311.443 85.3166 311.443 80.8073V78.715C311.443 77.1835 312.687 75.942 314.22 75.942H318.152C318.864 75.942 319.511 75.6538 319.98 75.185C320.449 74.7162 320.737 74.0685 320.737 73.3566C320.737 70.3996 323.134 68 326.095 68H359.455C362.416 68 364.813 70.3996 364.813 73.3566C364.813 74.7839 365.971 75.942 367.398 75.942H371.33C372.863 75.942 374.105 77.1835 374.105 78.715Z" fill="#FEC26C"/>
<path opacity="0.25" d="M375.112 87.2388C373.606 90.8226 370.059 93.3438 365.934 93.3438H319.617C315.493 93.3438 311.945 90.8226 310.439 87.2388H375.112Z" fill="#597CB4"/>
<path d="M375.886 78.715V83.3944C375.886 84.7574 375.61 86.058 375.112 87.2387H310.438C309.939 86.0562 309.663 84.7574 309.663 83.3944V78.715C309.663 78.5813 309.668 78.451 309.68 78.3208H375.869C375.881 78.451 375.886 78.5813 375.886 78.715Z" fill="#597CB4"/>
<path d="M371.328 75.942H367.396C365.969 75.942 364.811 74.7839 364.811 73.3566C364.811 70.3996 362.414 68 359.453 68H326.093C323.132 68 320.735 70.3996 320.735 73.3566C320.735 74.0685 320.447 74.7162 319.978 75.185C319.509 75.6538 318.862 75.942 318.15 75.942H314.218C312.687 75.942 311.441 77.1835 311.441 78.715V80.8073V83.3927C311.441 87.902 315.1 91.5605 319.614 91.5605H365.931C370.444 91.5605 374.103 87.902 374.103 83.3927V80.8073V78.715C374.105 77.1835 372.863 75.942 371.328 75.942Z" fill="#E527BB"/>
<path d="M359.08 80.6584V73.7322H326.469V80.6584H359.08Z" fill="#BF169F"/>
<path d="M357.596 79.1757V75.2168H327.953V79.1757H357.596Z" fill="#FFFDFE"/>
<path d="M347.82 123.603H298.12V125.662H347.82V123.603Z" fill="#C3D7F2"/>
<path d="M347.82 118.653H298.12V120.712H347.82V118.653Z" fill="#C3D7F2"/>
<path d="M347.82 113.701H298.12V115.76H347.82V113.701Z" fill="#C3D7F2"/>
<path d="M347.82 108.75H298.12V110.81H347.82V108.75Z" fill="#C3D7F2"/>
<path d="M347.82 128.553H298.12V130.613H347.82V128.553Z" fill="#C3D7F2"/>
<path d="M387.427 137.127H298.12V139.187H387.427V137.127Z" fill="#C3D7F2"/>
<path d="M387.427 142.894H298.12V144.953H387.427V142.894Z" fill="#C3D7F2"/>
<path d="M387.427 148.66H298.12V150.719H387.427V148.66Z" fill="#C3D7F2"/>
<path d="M336.993 154.427H298.12V156.486H336.993V154.427Z" fill="#C3D7F2"/>
<path d="M387.427 163.001H298.12V165.06H387.427V163.001Z" fill="#C3D7F2"/>
<path d="M387.427 168.767H298.12V170.826H387.427V168.767Z" fill="#C3D7F2"/>
<path d="M387.427 174.532H298.12V176.591H387.427V174.532Z" fill="#C3D7F2"/>
<path d="M387.427 180.298H298.12V182.357H387.427V180.298Z" fill="#C3D7F2"/>
<path d="M364.359 186.065H298.12V188.124H364.359V186.065Z" fill="#C3D7F2"/>
<path d="M387.427 194.639H298.12V196.698H387.427V194.639Z" fill="#C3D7F2"/>
<path d="M387.427 200.405H298.12V202.464H387.427V200.405Z" fill="#C3D7F2"/>
<path d="M387.427 206.171H298.12V208.231H387.427V206.171Z" fill="#C3D7F2"/>
<path d="M309.882 211.938H298.12V213.997H309.882V211.938Z" fill="#C3D7F2"/>
<path d="M369.343 226.159C369.063 226.159 368.784 226.027 368.487 225.754C367.4 224.756 367.118 223.221 367.044 221.762C366.542 222.323 366.03 222.87 365.523 223.41L365.241 223.146C365.837 222.51 366.441 221.868 367.023 221.203C366.974 219.204 367.066 217.183 367.297 215.197C367.438 213.98 367.641 212.69 368.171 211.514C368.339 211.139 368.619 210.603 369.1 210.266C369.602 209.915 370.258 209.877 370.699 210.172C371.194 210.504 371.328 211.134 371.385 211.578C371.722 214.193 370.701 216.588 369.786 218.138C369.107 219.288 368.285 220.342 367.414 221.342C367.459 222.835 367.665 224.473 368.749 225.467C368.978 225.678 369.18 225.78 369.362 225.77C369.668 225.759 369.914 225.462 370.116 225.174C371.033 223.861 371.745 222.439 372.243 220.929C372.3 220.475 372.429 220.029 372.622 219.614L372.983 219.741C372.879 220.172 372.757 220.597 372.62 221.014C372.569 221.441 372.585 221.877 372.668 222.299C372.714 222.523 372.903 223.264 373.45 223.37C373.858 223.448 374.283 223.137 374.754 222.424L376.682 219.494L376.438 220.543C376.352 220.913 376.208 221.797 376.725 222.01C377.018 222.132 377.329 221.957 377.691 221.753C378.048 221.552 378.418 221.344 378.838 221.399L379.036 221.425L379.002 221.623C378.983 221.736 378.826 222.728 379.34 222.842C379.575 222.894 379.773 222.731 380.07 222.457C380.302 222.241 380.544 222.017 380.861 221.941L380.952 222.316C380.731 222.37 380.537 222.549 380.33 222.74C380.037 223.011 379.705 223.318 379.257 223.219C378.672 223.089 378.528 222.429 378.59 221.785C378.359 221.818 378.123 221.951 377.876 222.09C377.486 222.311 377.043 222.561 376.576 222.368C376.19 222.21 375.982 221.828 375.966 221.279L375.074 222.637C374.712 223.186 374.144 223.896 373.375 223.75C372.846 223.649 372.439 223.136 372.288 222.377C372.267 222.271 372.25 222.165 372.236 222.057C371.764 223.231 371.159 224.348 370.427 225.395C370.185 225.74 369.848 226.138 369.371 226.155C369.364 226.159 369.353 226.159 369.343 226.159ZM370.013 210.358C369.76 210.358 369.504 210.453 369.319 210.582C368.916 210.863 368.671 211.339 368.522 211.672C368.014 212.801 367.818 214.054 367.679 215.242C367.467 217.069 367.374 218.925 367.4 220.767C368.153 219.878 368.86 218.947 369.452 217.944C370.336 216.447 371.323 214.134 371.001 211.629C370.925 211.04 370.762 210.679 370.484 210.493C370.34 210.398 370.176 210.358 370.013 210.358Z" fill="#305EBB"/>
<path d="M387.429 108.75H353.812V130.613H387.429V108.75Z" fill="#A78BEF"/>
<path d="M381.851 97.9346H301.244V102.232H381.851V97.9346Z" fill="#A78BEF"/>
<path d="M347.563 230.029C347.242 230.388 346.922 230.732 346.587 231.053C347.497 231.517 348.511 232.159 349.522 233.021C350.748 234.078 351.672 235.227 352.375 236.342C353.29 235.351 354.242 234.269 355.214 233.087C355.827 232.345 356.454 231.583 357.095 230.784L354.155 216.223C353.891 217.425 353.533 218.755 353.04 220.168C352.133 222.724 350.817 226.391 347.563 230.029Z" fill="#122A4F"/>
<path d="M312.153 170.889C311.42 172.695 311.008 174.145 310.817 174.883C310.783 175.025 310.656 175.497 310.519 176.129C310.298 177.102 309.989 178.723 309.791 180.767C309.732 181.423 309.69 182.043 309.666 182.639C309.553 185.512 309.833 187.754 310.036 190.02C310.036 190.02 310.489 195.248 310.43 202.664C310.401 204.47 310.31 206.645 310.019 209.181C309.972 209.575 307.831 210.577 307.466 210.79C306.733 211.226 305.993 211.637 305.248 212.037C304.998 212.162 304.741 212.294 304.491 212.419C304.229 212.556 303.96 212.688 303.698 212.818C302.899 213.205 302.093 213.575 301.277 213.909C300.735 214.134 300.186 214.35 299.638 214.546C299.084 214.749 298.523 214.933 297.957 215.107C294.404 216.18 290.719 216.824 286.997 217.057C284.768 217.194 282.548 217.11 280.331 216.985C279.603 216.944 278.87 216.895 278.143 216.848C280.563 216.491 282.573 216.216 284.062 216.02C291.266 215.067 293.692 214.942 297.401 213.521C300.24 212.431 302.176 211.662 303.93 209.7C306.077 207.291 306.674 204.525 307.4 201.157C307.99 198.433 308.086 196.323 308.233 193.031C308.407 189.251 308.192 188.322 308.371 185.113C308.466 183.474 308.662 180.385 309.277 177.751C309.654 176.136 310.418 173.709 312.153 170.889Z" fill="#6E96E5"/>
<path d="M354.884 211.064C354.945 209.866 355.201 204.268 352.846 197.585C352.137 195.564 351.337 193.889 350.312 192.041C349.734 190.98 349.06 189.865 348.291 188.589C347.98 188.094 347.671 187.565 347.325 187.016C345.632 184.25 344.076 182.021 342.949 180.465C344.66 182.14 346.282 183.91 347.773 185.788C349.168 187.547 350.456 189.407 351.583 191.35C354.457 196.304 356.305 201.806 356.371 207.62C356.467 215.322 353.652 222.965 348.607 228.777C351.116 225.563 352.238 222.434 353.037 220.168C354.492 216.013 354.796 212.561 354.884 211.064Z" fill="#6E96E5"/>
<path d="M340.904 162.817C340.409 164.892 339.396 167.687 337.226 170.352C335.956 171.92 334.609 173.047 333.469 173.841C333.261 173.525 332.98 173.15 332.617 172.743C332.21 172.283 331.693 171.79 331.054 171.33C330.135 170.668 329.26 170.274 328.597 170.042C329.765 169.983 331.387 169.708 333.021 168.777C336.026 167.06 337.356 164.079 337.953 161.874C338.328 161.945 338.705 162.035 339.092 162.131C339.705 162.334 340.306 162.567 340.904 162.817Z" fill="#6E96E5"/>
<path d="M328.596 170.043C327.971 170.575 327.349 171.111 326.724 171.641C326.521 171.837 326.325 172.028 326.122 172.219C325.519 172.809 324.911 173.393 324.309 173.978C323.934 173.304 323.461 172.344 323.062 171.134C322.287 168.767 322.258 166.812 322.246 165.602C322.233 164.63 322.294 163.378 322.537 161.924C322.812 161.883 323.091 161.846 323.39 161.811C323.39 161.811 323.39 161.811 323.397 161.811C323.802 161.758 324.23 161.711 324.679 161.662C324.637 162.657 324.725 164.004 325.264 165.484C326.182 168.015 327.863 169.476 328.596 170.043Z" fill="#6E96E5"/>
<path d="M332.615 172.743L329.765 174.98L329.456 210.368L323.267 218.81L318.984 209.026L327.54 174.294L326.122 172.219C326.325 172.028 326.521 171.837 326.724 171.641C327.349 171.11 327.971 170.573 328.596 170.043C329.258 170.276 330.135 170.669 331.053 171.332C331.691 171.79 332.21 172.283 332.615 172.743Z" fill="#20468F"/>
<path d="M319.801 140.826C320.678 142.284 322.191 142.797 323.325 143.081C323.493 143.12 323.651 143.16 323.797 143.193C326.296 143.767 328.849 143.107 329.154 143.024C329.602 142.906 330.358 142.666 331.459 142.587C332.334 142.522 333.056 142.587 333.525 142.647C333.435 142.904 332.665 145.189 334.02 147.063C334.595 147.855 335.322 148.264 335.774 148.468C336.337 147.695 337.262 147.335 338.066 147.554C339.176 147.851 339.719 149.153 339.481 150.207C339.27 151.171 338.415 151.912 337.358 152.037C337.417 153.47 337.47 154.902 337.53 156.337C337.99 156.09 338.505 155.758 339.018 155.314C340.364 154.149 340.935 152.871 341.716 151.056C342.401 149.468 343.165 147.707 343.404 145.2C343.574 143.45 343.719 141.96 343.015 140.203C342.208 138.194 340.772 137.049 340.096 136.521C339.504 136.06 338.235 135.092 336.274 134.697C335.331 134.507 334.484 134.502 333.789 134.566C333.737 134.518 333.685 134.476 333.627 134.429C331.992 133.122 329.175 132.335 327.192 133.721C326.709 134.059 326.353 134.469 326.089 134.877C325.302 134.407 323.212 133.295 321.378 134.259C320.074 134.947 319.614 136.304 319.454 136.784C319.357 137.068 318.728 139.036 319.801 140.826Z" fill="#122A4F"/>
<path d="M323.324 143.083C323.307 144.747 323.238 146.12 323.177 147.122C323.01 149.7 322.824 150.64 322.963 152.202C323.139 154.175 323.239 155.484 324.16 156.743C324.88 157.729 325.835 158.337 326.735 158.707C327.912 159.196 328.991 159.287 329.31 159.315C332.422 159.573 334.636 157.861 335.157 157.436C334.832 158.085 332.915 161.732 328.584 162.996C327.299 163.367 326.098 163.445 325.073 163.385C323.946 166.281 322.729 168.929 321.501 171.323L338.161 172.113C337.955 166.854 337.741 161.598 337.531 156.338C337.472 154.906 337.418 153.473 337.359 152.039C338.417 151.914 339.271 151.175 339.483 150.209C339.721 149.153 339.177 147.853 338.068 147.556C337.262 147.335 336.338 147.697 335.775 148.469C335.326 148.266 334.596 147.856 334.021 147.065C332.667 145.193 333.436 142.908 333.527 142.649C333.058 142.587 332.335 142.524 331.46 142.588C330.359 142.668 329.604 142.91 329.156 143.026C328.85 143.109 326.297 143.771 323.798 143.194C323.651 143.16 323.493 143.12 323.324 143.083Z" fill="#FFA6AA"/>
<path d="M325.652 256.946C325.886 263.469 325.433 266.157 325.303 271.22C325.195 275.589 325.33 281.345 326.282 288.306C326.766 282.718 327.416 276.525 328.246 267.303C328.623 263.096 329.151 257.012 329.726 249.533C327.902 243.607 325.756 236.148 323.578 227.376C323.674 230.26 323.872 234.983 324.335 240.843C324.934 248.46 325.45 251.287 325.652 256.946Z" fill="#45484C"/>
<path d="M309.772 231.211C309.844 237.41 309.951 245.939 310.505 257.142C311.318 273.521 312.612 285.932 313.44 293.822C314.209 301.099 315.272 310.125 316.743 320.484C317.076 320.588 317.432 320.689 317.818 320.779C319.028 321.071 320.483 321.276 322.128 321.223C323.045 321.194 323.889 321.09 324.651 320.942C324.92 320.894 325.182 320.836 325.433 320.779C325.297 316.85 325.16 310.311 325.433 302.217C325.603 297.093 325.884 292.905 326.282 288.306C325.33 281.343 325.195 275.589 325.302 271.22C325.433 266.159 325.886 263.469 325.651 256.946C325.448 251.287 324.934 248.46 324.335 240.843C323.871 234.983 323.673 230.26 323.578 227.376C325.756 236.148 327.9 243.607 329.725 249.533C330.34 251.539 330.924 253.367 331.455 255.011C333.744 262.075 334.216 262.848 337.654 273.226C341.247 284.076 342.159 287.533 345.847 299.028C347.593 304.476 350.185 312.424 353.514 322.107C353.688 322.118 353.867 322.121 354.049 322.121C355.572 322.154 357.373 322.007 359.344 321.477C359.844 321.343 360.32 321.19 360.771 321.027C361.056 320.927 361.334 320.822 361.6 320.716C361.393 318.716 361.06 315.674 360.605 311.988C359.014 299.186 357.887 294.505 355.668 280.055C354.475 272.295 353.459 265.614 352.464 256.531C351.448 247.233 351.488 244.856 350.783 238.188C350.038 231.116 348.633 220.958 345.741 208.595L310.021 200.573C309.788 208.795 309.633 219.182 309.772 231.211Z" fill="black"/>
<path d="M354.048 322.121C354.187 323.3 354.333 324.476 354.477 325.655C354.749 325.589 355.048 325.469 355.342 325.262C355.805 324.932 355.869 324.656 356.496 324.059C357.016 323.562 357.408 323.186 357.979 323.009C358.841 322.746 359.593 323.08 360.058 323.29C360.49 323.481 360.846 323.729 361.128 323.969C361.01 322.989 360.89 322.007 360.772 321.027C360.32 321.191 359.844 321.343 359.344 321.477C357.372 322.007 355.571 322.154 354.048 322.121Z" fill="#FFA6AA"/>
<path d="M354.572 337.726H369.843C370.472 337.726 370.993 337.106 370.975 336.347C370.949 335.284 370.685 334.616 370.463 334.211C370.142 333.628 369.1 332.94 367.028 331.59C365.672 330.706 365.002 330.319 363.979 329.431C362.737 328.353 362.373 327.745 362.159 327.301C361.716 326.377 361.593 325.455 361.57 324.785C361.562 324.526 361.466 324.281 361.298 324.122C361.244 324.071 361.188 324.019 361.128 323.967C360.846 323.727 360.488 323.479 360.058 323.288C359.594 323.078 358.84 322.743 357.979 323.007C357.408 323.184 357.015 323.561 356.496 324.057C355.869 324.655 355.807 324.931 355.341 325.261C355.048 325.465 354.751 325.585 354.477 325.653L354.47 325.655C354.105 325.736 353.824 326.169 353.839 326.615C353.912 328.822 353.876 331.279 353.648 333.934C353.584 334.684 353.508 335.409 353.422 336.114C353.317 336.965 353.858 337.726 354.572 337.726Z" fill="black"/>
<path d="M302.156 337.726H326.313C326.805 337.726 327.182 337.205 327.114 336.62C326.681 332.852 326.249 329.08 325.813 325.313C325.759 324.847 325.363 324.562 324.997 324.727C324.962 324.743 324.926 324.759 324.889 324.774C324.268 325.047 323.462 325.276 322.526 325.271C321.012 325.266 319.893 324.66 319.23 324.286C318.532 323.896 318.294 323.46 317.969 323.217C317.842 323.121 317.7 323.059 317.512 323.035C316.823 322.958 316.311 323.455 315.236 324.491C313.939 325.728 312.635 326.966 312.084 327.471C310.922 328.532 310.064 329.315 308.788 329.978C308.142 330.317 306.932 330.747 304.513 331.607C303.332 332.027 302.783 332.204 302.288 332.862C301.736 333.593 301.665 334.376 301.444 335.708C301.408 335.937 301.364 336.186 301.314 336.453C301.194 337.108 301.602 337.726 302.156 337.726Z" fill="black"/>
<path d="M317.819 320.779C317.866 321.592 317.918 322.408 317.97 323.219C318.295 323.462 318.533 323.898 319.231 324.288C319.893 324.662 321.011 325.267 322.527 325.273C323.463 325.278 324.269 325.049 324.891 324.776C324.812 323.496 324.733 322.222 324.653 320.942C323.892 321.09 323.046 321.196 322.129 321.224C320.485 321.276 319.028 321.071 317.819 320.779Z" fill="#FFA6AA"/>
<path d="M272.39 216.807C271.317 216.895 270.243 217.051 269.134 217.26C266.97 217.647 264.782 218.053 262.575 218.107C260.328 218.144 258.402 217.499 256.261 217.004C255.552 216.838 254.83 216.664 254.234 216.247C253.31 215.562 252.892 214.244 253.274 213.158C253.816 211.585 255.349 211.37 256.756 211.132C258.956 210.762 261.984 210.321 265.718 209.971C267.673 209.983 269.636 209.892 271.579 209.701C271.961 210.507 272.331 211.532 272.515 212.759C272.76 214.367 272.61 215.768 272.39 216.807Z" fill="#F2949B"/>
<path d="M307.253 181.007C307.038 181.83 306.788 182.729 306.501 183.702C306.095 185.049 305.607 186.527 305.022 188.095C303.858 191.236 302.767 194.509 300.717 197.21C299.274 199.119 297.348 200.37 295.339 201.652C288.172 206.172 279.981 208.884 271.579 209.7C271.961 210.506 272.331 211.53 272.515 212.758C272.699 213.963 272.657 215.053 272.532 215.959C272.498 216.263 272.444 216.55 272.39 216.807C272.468 216.802 272.539 216.795 272.616 216.789C272.829 216.772 273.045 216.753 273.26 216.748C273.29 216.742 273.326 216.742 273.356 216.742C273.571 216.73 273.791 216.718 274.007 216.718C274.22 216.713 274.436 216.706 274.651 216.706H274.754C275.202 216.706 275.653 216.713 276.113 216.736C277.52 216.802 278.928 216.902 280.335 216.986C282.552 217.111 284.772 217.194 287.001 217.057C290.721 216.824 294.406 216.18 297.961 215.107C298.527 214.933 299.088 214.749 299.642 214.546C300.19 214.35 300.739 214.135 301.281 213.909C302.097 213.575 302.903 213.206 303.702 212.818C303.964 212.688 304.231 212.556 304.495 212.419C304.745 212.294 305.002 212.162 305.252 212.037C305.997 211.638 306.737 211.226 307.47 210.79C307.835 210.575 309.974 209.575 310.023 209.181C310.315 206.647 310.405 204.472 310.434 202.664C310.493 195.248 310.04 190.02 310.04 190.02C309.837 187.754 309.557 185.513 309.67 182.639C309.695 182.043 309.736 181.423 309.795 180.767C309.992 178.722 310.302 177.1 310.523 176.129C310.66 175.497 310.785 175.027 310.822 174.883C311.079 173.893 311.723 171.646 313.017 168.944C313.225 168.496 313.47 168.014 313.744 167.501C309.899 172.308 307.253 181.007 307.253 181.007Z" fill="#122A4F"/>
<path d="M310.019 209.181C310.311 206.647 310.401 204.472 310.43 202.664C310.489 195.248 310.036 190.02 310.036 190.02C309.833 187.754 309.553 185.512 309.666 182.639C309.691 182.043 309.732 181.423 309.791 180.767C309.988 178.722 310.298 177.1 310.519 176.129C310.656 175.497 310.781 175.027 310.818 174.883C311.075 173.893 311.719 171.646 313.013 168.944C313.256 168.425 313.549 167.854 313.883 167.244C314.777 166.284 315.767 165.39 316.96 164.525C318.617 163.332 320.138 162.587 321.211 162.122C321.86 162.014 322.588 161.902 323.392 161.806C323.392 161.806 323.392 161.806 323.399 161.806C325.254 161.568 327.513 161.382 330.076 161.37C333.325 161.346 335.973 161.334 339.09 162.127C352.142 166.515 361.414 181.748 361.414 181.748C362.475 183.436 363.59 185.433 364.645 187.721C366.314 191.393 368.323 195.786 368.641 201.546C368.987 207.442 367.377 211.823 366.012 215.591C363.126 223.478 358.833 228.695 355.214 233.083C354.242 234.264 353.288 235.349 352.377 236.339C351.673 235.224 350.75 234.073 349.52 233.019C348.513 232.154 347.499 231.517 346.587 231.052C346.92 230.73 347.243 230.385 347.565 230.027C350.821 226.389 352.139 222.724 353.038 220.166C354.494 216.011 354.797 212.559 354.886 211.063C354.947 209.865 355.202 204.267 352.847 197.583C352.139 195.562 351.338 193.887 350.314 192.039C349.735 190.978 349.062 189.864 348.292 188.587C347.982 188.093 347.672 187.561 347.327 187.014C345.634 184.248 344.078 182.019 342.951 180.463V180.465C344.078 182.022 345.632 184.248 347.329 187.018C347.671 187.561 347.987 188.094 348.291 188.587C347.228 193.258 346.342 199.245 346.532 206.192C346.658 210.851 347.228 215.027 347.975 218.597C347.832 218.329 347.698 218.067 347.566 217.805C347.698 218.065 347.832 218.328 347.973 218.593C348.306 220.179 348.659 221.634 349.041 222.976C342.977 225.342 337.699 226.065 334.129 226.278C329.354 226.57 322.699 226.898 315.532 223.459C312.264 221.885 309.875 220 308.307 218.588C309.189 215.077 309.72 211.929 310.019 209.181Z" fill="#A78BEF"/>
<path d="M337.951 161.876C337.356 164.081 336.026 167.062 333.02 168.779C331.386 169.71 329.764 169.984 328.595 170.043C327.862 169.477 326.181 168.017 325.263 165.482C324.726 164.004 324.637 162.655 324.677 161.66C326.258 161.499 328.076 161.386 330.074 161.374C332.926 161.351 335.31 161.344 337.951 161.876Z" fill="#FFA6AA"/>
<path d="M325.071 163.381C326.096 163.444 327.298 163.365 328.583 162.992C332.914 161.728 334.831 158.082 335.155 157.432C334.634 157.86 332.42 159.57 329.308 159.311C328.991 159.283 327.911 159.193 326.733 158.703C326.355 159.889 325.933 161.1 325.469 162.339C325.339 162.69 325.205 163.036 325.071 163.381Z" fill="#FF797D"/>
<path d="M312.153 170.889C311.42 172.695 311.008 174.145 310.817 174.883C310.783 175.025 310.656 175.497 310.519 176.129C310.298 177.102 309.989 178.723 309.791 180.767C309.732 181.423 309.69 182.043 309.666 182.639C309.553 185.512 309.833 187.754 310.036 190.02C310.036 190.02 310.489 195.248 310.43 202.664C310.401 204.47 310.31 206.645 310.019 209.181C309.972 209.575 307.831 210.577 307.466 210.79C306.733 211.226 305.993 211.637 305.248 212.037C304.998 212.162 304.741 212.294 304.491 212.419C304.229 212.556 303.96 212.688 303.698 212.818C302.899 213.205 302.093 213.575 301.277 213.909C300.735 214.134 300.186 214.35 299.638 214.546C299.084 214.749 298.523 214.933 297.957 215.107C294.404 216.18 290.719 216.824 286.997 217.057C284.768 217.194 282.548 217.11 280.331 216.985C279.603 216.944 278.87 216.895 278.143 216.848C280.563 216.491 282.573 216.216 284.062 216.02C291.266 215.067 293.692 214.942 297.401 213.521C300.24 212.431 302.176 211.662 303.93 209.7C306.077 207.291 306.674 204.525 307.4 201.157C307.99 198.433 308.086 196.323 308.233 193.031C308.407 189.251 308.192 188.322 308.371 185.113C308.466 183.474 308.662 180.385 309.277 177.751C309.654 176.136 310.418 173.709 312.153 170.889Z" fill="black"/>
<path d="M340.904 162.817C340.409 164.892 339.396 167.687 337.226 170.352C335.956 171.92 334.609 173.047 333.469 173.841C333.261 173.525 332.98 173.15 332.617 172.743C332.21 172.283 331.693 171.79 331.054 171.33C330.135 170.668 329.26 170.274 328.597 170.042C329.765 169.983 331.387 169.708 333.021 168.777C336.026 167.06 337.356 164.079 337.953 161.874C338.328 161.945 338.705 162.035 339.092 162.131C339.705 162.334 340.306 162.567 340.904 162.817Z" fill="white"/>
<path d="M328.596 170.043C327.971 170.575 327.349 171.111 326.724 171.641C326.521 171.837 326.325 172.028 326.122 172.219C325.519 172.809 324.911 173.393 324.309 173.978C323.934 173.304 323.461 172.344 323.062 171.134C322.287 168.767 322.258 166.812 322.246 165.602C322.233 164.63 322.294 163.378 322.537 161.924C322.812 161.883 323.091 161.846 323.39 161.811C323.39 161.811 323.39 161.811 323.397 161.811C323.802 161.758 324.23 161.711 324.679 161.662C324.637 162.657 324.725 164.004 325.264 165.484C326.182 168.015 327.863 169.476 328.596 170.043Z" fill="white"/>
<path d="M332.615 172.743L329.765 174.98L329.456 210.368L323.267 218.81L318.984 209.026L327.54 174.294L326.122 172.219C326.325 172.028 326.521 171.837 326.724 171.641C327.349 171.11 327.971 170.573 328.596 170.043C329.258 170.276 330.135 170.669 331.053 171.332C331.691 171.79 332.21 172.283 332.615 172.743Z" fill="#E527BB"/>
<path d="M305.827 235.361C308.206 236.759 310.936 237.966 314.027 238.75C316.597 239.402 319.011 239.66 321.15 239.699C321.505 234.696 321.802 230.02 322.041 225.697C322.486 217.795 322.76 211.063 322.932 205.626C323.003 203.449 323.243 195.526 322.932 185.325C322.755 179.432 322.482 175.832 321.984 172.028C321.534 168.625 320.954 165.456 320.308 162.541C319.72 162.824 319.054 163.178 318.341 163.614C317.896 163.881 317.431 164.188 316.957 164.529C315.765 165.395 314.779 166.289 313.883 167.248C313.548 167.855 313.256 168.43 313.011 168.948C311.719 171.653 311.072 173.898 310.818 174.888C310.78 175.032 310.655 175.501 310.516 176.133C310.295 177.105 309.984 178.727 309.788 180.77C309.731 181.427 309.687 182.048 309.663 182.642C309.615 183.83 309.634 184.912 309.691 185.926C309.767 187.375 309.917 188.697 310.031 190.023C310.031 190.023 310.486 195.25 310.429 202.666C310.396 204.475 310.309 206.649 310.017 209.186C309.715 211.933 309.189 215.079 308.298 218.591C307.815 220.673 307.374 222.847 307.001 225.106C306.416 228.655 306.037 232.078 305.827 235.361Z" fill="#122A4F"/>
<path d="M331.124 218.33C331.129 220.67 331.148 223.379 331.191 226.419C331.24 230.397 331.33 234.934 331.483 239.937C333.718 240.201 336.184 240.348 338.841 240.291C343.945 240.185 348.487 239.353 352.337 238.261C352.112 237.285 351.893 236.308 351.672 235.321C351.931 235.662 352.165 236.006 352.376 236.341C353.291 235.349 354.242 234.267 355.215 233.085C355.828 232.344 356.455 231.581 357.095 230.783C360.24 226.862 363.616 222.151 366.014 215.595C367.379 211.827 368.987 207.443 368.643 201.55C368.327 195.792 366.317 191.397 364.646 187.721C363.594 185.433 362.477 183.438 361.414 181.752C361.414 181.752 354.258 169.986 343.663 164.161C343.318 163.97 342.969 163.787 342.62 163.61C341.001 165.765 339.058 168.698 337.301 172.384C335.271 176.64 333.696 181.469 332.431 190.071C331.587 195.813 331.08 201.907 331.124 218.33ZM348.286 188.589C348.21 188.464 348.133 188.341 348.057 188.211C348.138 188.339 348.215 188.464 348.291 188.589C348.444 188.843 348.593 189.088 348.732 189.327C349.326 190.303 349.852 191.189 350.313 192.041C351.337 193.889 352.136 195.564 352.85 197.584C355.204 204.27 354.946 209.867 354.888 211.063C354.826 212.054 354.673 213.891 354.155 216.223C353.892 217.425 353.534 218.755 353.041 220.168C352.389 222.011 351.523 224.433 349.866 226.999C349.583 225.653 349.305 224.313 349.038 222.978C348.654 221.632 348.305 220.182 347.97 218.593V218.588C347.223 215.017 346.654 210.848 346.529 206.196C346.338 199.245 347.223 193.257 348.286 188.589Z" fill="#122A4F"/>
<path d="M343.427 212.447C344.307 215.918 345.059 217.338 347.841 223.926C348.32 225.056 348.841 226.31 349.411 227.678C349.569 227.452 349.722 227.223 349.866 226.999C349.583 225.653 349.305 224.313 349.037 222.978C348.654 221.632 348.305 220.182 347.969 218.593V218.588C347.223 215.016 346.653 210.847 346.528 206.196C346.351 199.848 347.079 194.3 348.016 189.829L347.681 187.594C347.567 187.403 347.447 187.211 347.322 187.014C346.665 185.946 346.033 184.955 345.441 184.061C344.507 186.085 343.536 188.636 342.836 191.647C340.645 201.079 342.517 208.852 343.427 212.447Z" fill="black"/>
<path d="M335.814 259.531L355.187 246.427C355.618 246.135 355.73 245.55 355.439 245.119L335.562 215.742C335.27 215.312 334.685 215.199 334.255 215.49L314.882 228.595C314.451 228.886 314.338 229.471 314.63 229.902L334.506 259.279C334.798 259.71 335.383 259.823 335.814 259.531Z" fill="#E527BB"/>
<path d="M352.375 236.342C351.326 237.494 350.336 238.518 349.43 239.407C349.149 239.687 348.869 239.938 348.607 240.188C348.416 240.367 348.225 240.546 348.034 240.707C345.351 243.14 342.477 245.215 339.049 246.467C337.88 246.903 336.653 247.231 335.411 247.207C333.259 247.153 330.564 245.46 330.707 243.027C330.778 241.447 332.108 241.102 333.348 240.648C333.867 240.457 334.385 240.19 334.88 239.928C336.389 239.105 337.462 238.127 338.146 237.424C337.198 237.132 336.298 236.672 335.475 236.118C334.879 235.702 333.603 235.241 333.615 234.347C333.627 233.865 334.211 233.686 334.6 233.627C335.69 233.406 336.805 233.627 337.891 233.74C339.047 233.852 340.223 233.943 341.372 233.799C342.828 233.608 343.996 233.12 344.604 232.816C344.604 232.804 344.616 232.804 344.628 232.804C345.285 232.272 345.94 231.694 346.584 231.057C347.496 231.522 348.51 232.159 349.517 233.024C350.748 234.076 351.672 235.228 352.375 236.342Z" fill="#FFA6AA"/>
<path d="M198.62 168.453C198.969 169.335 199.926 171.391 202.147 172.855C203.423 173.695 204.745 174.098 205.955 174.254C206.27 175.695 206.711 177.392 207.734 181.408C208.159 183.071 208.492 184.393 208.671 185.091C202.869 183.472 197.069 181.849 191.268 180.231C192.002 177.386 192.735 174.539 193.468 171.693C194.133 169.106 194.801 166.519 195.467 163.931C194.129 163.956 192.978 163.088 192.688 161.902C192.455 160.95 192.785 159.816 193.687 159.188C194.834 158.389 196.142 158.936 196.217 158.969C196.399 158.731 196.58 158.462 196.748 158.156C197.286 157.177 197.483 156.203 197.54 155.423C197.57 155.034 197.92 154.755 198.304 154.812C199.518 154.996 201.091 155.173 202.928 155.222C206.457 155.316 208.249 155.34 209.578 154.253C209.595 154.239 209.609 154.225 209.625 154.213C210.057 156.359 210.229 158.561 210.132 160.749C210.04 162.829 209.866 165.204 208.564 166.927C207.687 168.088 206.45 168.717 205.082 168.995C202.961 169.425 200.523 169.015 198.62 168.453Z" fill="#FFA6AA"/>
<path d="M209.624 154.211C209.608 154.225 209.593 154.239 209.577 154.251C208.249 155.338 206.457 155.312 202.928 155.22C201.092 155.172 199.517 154.995 198.304 154.81C197.918 154.753 197.567 155.033 197.539 155.422C197.482 156.201 197.286 157.175 196.748 158.155C196.579 158.46 196.399 158.729 196.216 158.967C196.142 158.934 194.834 158.387 193.686 159.186C192.785 159.815 192.455 160.948 192.688 161.9C192.978 163.086 194.129 163.952 195.466 163.93C194.799 166.517 194.132 169.104 193.467 171.691C193.16 170.7 192.854 169.877 192.594 169.236C191.602 166.779 190.331 164.451 189.286 162.018C188.278 159.672 187.587 157.182 187.29 154.642C187.145 153.381 187.264 152.018 188.016 150.997C189.327 149.212 192.003 148.782 194.155 149.152C194.337 148.549 194.643 147.903 195.155 147.296C195.615 146.75 197.001 145.33 199.12 145.424C200.368 145.478 201.311 146.033 201.902 146.507C202.734 145.806 203.788 145.182 205.081 144.892C205.885 144.712 207.594 144.33 209.202 145.297C210.786 146.252 211.248 147.903 211.355 148.292C211.942 150.395 211.225 152.867 209.624 154.211Z" fill="#122A4F"/>
<path d="M205.954 174.252C204.744 174.096 203.422 173.695 202.146 172.853C199.925 171.389 198.968 169.333 198.619 168.451C200.522 169.014 202.961 169.422 205.081 168.991C205.279 170.62 205.503 171.939 205.673 172.851C205.765 173.341 205.852 173.783 205.954 174.252Z" fill="#FF797D"/>
<path d="M191.031 280.03C191.365 279.164 191.74 278.219 192.174 277.148C194.016 272.609 195.743 268.812 197.078 266.003C196.093 261.245 194.619 255.317 192.349 248.597C192.351 252.183 192.304 255.841 192.196 259.568C191.993 266.633 191.592 273.458 191.031 280.03Z" fill="#45484C"/>
<path d="M162.157 326.29C162.456 326.425 162.798 326.573 163.18 326.719C164.564 327.252 166.469 327.782 168.77 327.872C170.189 327.927 171.455 327.802 172.514 327.611C173.059 327.516 173.545 327.403 173.976 327.287C174.855 324.568 176.246 320.353 178.073 315.235C181.212 306.437 181.985 305.192 185.387 295.927C188.561 287.285 189.183 284.843 191.033 280.03C191.592 273.46 191.995 266.633 192.198 259.568C192.305 255.841 192.354 252.183 192.351 248.597C194.62 255.317 196.095 261.245 197.079 266.002C197.327 267.2 197.545 268.326 197.734 269.367C199.118 276.973 199.552 282.817 200.189 291.423C200.821 299.938 200.976 306.673 201.068 310.904C201.193 316.78 201.181 321.829 201.125 325.766C201.339 325.851 201.591 325.946 201.876 326.043C203.187 326.486 205.22 326.957 207.679 326.702C209.002 326.563 210.143 326.245 211.064 325.896C211.644 325.677 212.135 325.446 212.534 325.238C213.974 315.061 214.927 306.178 215.575 298.969C216.188 292.167 217.088 281.991 217.39 268.781C217.518 263.136 217.51 258.102 217.506 253.919C217.496 246.951 217.404 241.008 217.298 236.476C211.098 238.658 205.736 239.497 201.928 239.836C197.301 240.251 192.385 240.645 186.361 238.903C183.545 238.091 181.254 237.033 179.564 236.118C178.647 239.742 177.616 244.241 176.666 249.413C175.242 257.171 175.428 258.68 173.683 269.949C172.979 274.488 171.847 280.678 169.588 293.058C167.448 304.766 166.858 307.564 166.311 310.024C164.79 316.85 163.27 322.435 162.157 326.29Z" fill="#26282B"/>
<path d="M201.244 337.726H225.748C227.095 337.726 227.887 336.174 227.059 335.111C227.052 335.102 227.045 335.093 227.038 335.085C225.798 333.503 224.199 332.765 222.693 332.072C220.712 331.161 218.92 330.813 218.112 330.664C215.584 330.192 214.325 330.433 212.515 329.452C211.974 329.159 211.536 328.839 211.199 328.558C211.178 328.542 211.161 328.525 211.142 328.509C211.142 328.534 211.144 328.558 211.144 328.582C209.279 329.409 206.245 330.325 202.846 329.529C202.301 329.4 201.794 329.24 201.327 329.06C200.926 331.338 200.38 333.517 199.936 335.286C199.889 335.472 199.842 335.663 199.792 335.859C199.552 336.806 200.266 337.726 201.244 337.726Z" fill="#A78BEF"/>
<path d="M201.329 329.06C201.796 329.24 202.303 329.402 202.849 329.528C206.247 330.324 209.279 329.409 211.146 328.582C211.146 328.558 211.144 328.535 211.144 328.509C211.134 328.068 211.121 327.625 211.109 327.181C211.097 326.749 211.082 326.321 211.066 325.896C210.144 326.245 209.005 326.564 207.681 326.702C205.222 326.957 203.189 326.486 201.878 326.044C201.803 326.443 201.72 326.877 201.635 327.346C201.482 328.186 201.383 328.754 201.338 329.011C201.334 329.027 201.333 329.044 201.329 329.06Z" fill="#FFA6AA"/>
<path d="M161.788 337.726H183.55C184.528 337.726 185.132 336.66 184.632 335.819C184.413 335.453 184.153 335.106 183.843 334.786C182.735 333.642 180.881 333.067 177.217 331.964C175.138 331.341 173.37 330.924 172.099 330.654C171.953 330.7 171.78 330.754 171.585 330.81C170.436 331.126 168.468 331.473 166.131 330.983C164.469 330.634 163.168 329.976 162.253 329.386C161.808 330.693 161.15 332.675 160.588 334.696C160.492 335.04 160.393 335.404 160.294 335.79C160.039 336.769 160.775 337.726 161.788 337.726Z" fill="#A78BEF"/>
<path d="M162.251 329.386C163.164 329.976 164.465 330.634 166.129 330.983C168.466 331.473 170.434 331.126 171.583 330.81C171.668 330.501 171.759 330.192 171.849 329.881C172.069 329.12 172.29 328.365 172.514 327.611C171.455 327.802 170.189 327.927 168.77 327.872C166.469 327.782 164.564 327.252 163.18 326.719C162.959 327.337 162.713 328.032 162.454 328.789C162.393 328.966 162.324 329.167 162.251 329.386Z" fill="#FFA6AA"/>
<path d="M217.76 201.999C218.397 201.65 218.979 201.304 219.519 200.973C220.474 200.4 221.26 199.863 221.91 199.414C221.292 198.375 220.444 196.878 219.54 194.974C219.14 194.125 218.739 193.206 218.334 192.216C216.469 187.645 216.537 186.016 214.745 183.026C213.901 181.628 212.967 180.46 212.098 179.515C210.508 177.819 209.099 176.838 208.723 176.582C205.052 174.099 201.351 173.471 197.336 172.813C195.2 172.452 193.385 172.321 192.109 172.255C190.294 173.693 187.954 175.831 185.713 178.827C182.773 182.755 181.375 186.313 180.9 187.591C179.91 190.287 179.161 193.454 178.89 201.881C178.682 208.522 178.963 212.346 179.036 215.909C179.142 221.139 178.856 228.76 176.885 238.296C180.314 240.009 184.664 241.746 189.843 242.885C202.237 245.614 212.725 243.433 218.548 241.72C218.213 239.129 217.932 236.452 217.716 233.687C217.652 233.109 217.617 232.517 217.567 231.925C217.391 229.442 217.259 227.013 217.187 224.639C217.136 222.873 217.091 220.866 217.094 218.659C215.931 218.178 214.719 217.558 213.5 216.697C210.437 214.56 208.874 212.058 207.462 209.818C206.71 208.614 206.087 207.435 205.564 206.279C206.72 206.194 207.705 206.017 208.464 205.862C212.197 205.058 215.165 203.423 217.76 201.999Z" fill="#A78BEF"/>
<path d="M217.718 233.686C214.589 227.421 211.736 222.941 209.529 219.826C208.558 218.447 206.309 215.332 204.3 210.695C203.791 209.526 203.157 208.092 202.612 206.329C202.182 205.015 201.815 203.515 201.541 201.813C200.881 197.693 201.145 194.09 201.598 191.4C201.819 193.189 202.159 195.114 202.643 197.148C203.279 199.813 204.001 202.926 205.568 206.277C206.091 207.432 206.714 208.611 207.466 209.814C208.878 212.054 210.441 214.558 213.504 216.694C214.723 217.555 215.935 218.175 217.098 218.656C217.095 220.863 217.14 222.87 217.191 224.636C217.263 227.009 217.395 229.439 217.571 231.921C217.618 232.515 217.654 233.109 217.718 233.686Z" fill="#DAA7EE"/>
<path d="M270.141 211.835C270.073 212.714 269.846 213.813 269.205 214.869C267.925 216.996 265.872 217.736 264.782 218.114C262.311 219.012 260.161 218.651 258.739 218.42C257.329 218.189 256.099 217.795 255.092 217.35C253.984 216.867 252.753 216.8 251.603 217.138C245.458 218.906 240.17 219.764 236.169 220.222C228.842 221.071 225.05 220.614 222.499 220.114C220.832 219.793 219.022 219.435 217.098 218.658C215.935 218.177 214.722 217.557 213.503 216.696C210.44 214.558 208.877 212.056 207.465 209.816C206.714 208.613 206.09 207.434 205.567 206.279C206.724 206.194 207.709 206.017 208.467 205.862C212.201 205.06 215.169 203.425 217.761 201.999C218.399 201.65 218.98 201.305 219.521 200.973C219.894 202.671 220.675 204.694 222.335 206.387C223.893 207.97 225.645 208.67 227.095 209.24C228.889 209.952 230.787 210.393 234.616 210.634C238.317 210.867 238.35 210.568 245.916 210.488C246.326 210.488 246.75 210.472 247.159 210.471C248.193 210.462 249.24 210.493 250.271 210.485C251.898 210.481 253.449 210.34 255.017 209.901C256.53 209.491 258.025 208.957 259.558 208.759C261.107 208.547 262.693 208.602 264.157 209.142C264.572 209.283 265.001 209.776 264.777 210.238C264.671 210.439 264.478 210.589 264.271 210.722C263.511 211.203 262.618 211.547 261.712 211.523C260.706 211.488 259.607 210.837 258.867 211.882C258.423 212.494 260.963 212.724 261.305 212.77C264.275 213.139 267.305 212.844 270.141 211.835Z" fill="#FFA6AA"/>
<path d="M266.331 217.477C265.74 217.776 265.193 217.972 264.783 218.114C262.312 219.01 260.162 218.651 258.738 218.42C257.328 218.189 256.099 217.796 255.092 217.352C253.984 216.869 252.753 216.801 251.605 217.142C245.457 218.906 240.17 219.765 236.169 220.224C228.844 221.073 225.049 220.614 222.498 220.114C220.831 219.793 219.022 219.435 217.098 218.658C215.933 218.177 214.722 217.557 213.503 216.697C210.44 214.562 208.875 212.056 207.463 209.816C206.713 208.613 206.09 207.436 205.565 206.281C206.72 206.196 207.705 206.017 208.462 205.862C212.197 205.06 215.165 203.423 217.758 201.997C218.395 201.648 218.977 201.303 219.517 200.971C219.682 201.733 219.932 202.562 220.307 203.393C219.178 204.565 217.504 205.953 215.196 206.939C213.173 207.804 211.334 208.076 210.039 208.158C210.871 209.854 212.578 212.738 215.782 215.093C216.367 215.524 218.859 217.298 223.565 218.409C231.504 220.283 238.777 218.623 241.727 217.916C246.548 216.765 248.236 215.55 252.176 215.933C254.83 216.192 255.953 216.928 258.976 217.4C261.795 217.836 264.308 217.741 266.331 217.477Z" fill="#F2949B"/>
<path d="M229.16 191.89C227.788 192.677 225.913 193.593 223.544 194.232C222.101 194.639 220.752 194.857 219.54 194.974C219.14 194.125 218.739 193.206 218.334 192.216C216.469 187.645 216.537 186.016 214.743 183.026C213.899 181.628 212.965 180.46 212.097 179.515C214.408 179.671 217.051 179.602 219.934 179.1C221.86 178.762 223.582 178.274 225.076 177.751C225.093 178.218 225.126 178.711 225.173 179.248C225.355 181.151 225.736 183.429 226.534 185.917C227.144 187.848 227.898 189.516 228.627 190.906C228.797 191.253 228.978 191.586 229.16 191.89Z" fill="#A78BEF"/>
<path d="M221.651 194.675C220.912 194.816 220.207 194.91 219.54 194.974C219.14 194.123 218.739 193.206 218.335 192.217C216.47 187.645 216.539 186.016 214.745 183.026C213.901 181.628 212.969 180.458 212.099 179.515C212.962 179.574 213.872 179.598 214.825 179.585C215.438 180.359 215.992 181.158 216.483 181.976C217.664 183.946 218.138 185.433 218.687 187.157C219.059 188.322 219.481 189.645 220.215 191.449C220.602 192.394 220.993 193.29 221.379 194.109C221.467 194.298 221.558 194.488 221.651 194.675Z" fill="#DAA7EE"/>
<path d="M265.56 155.137C264.002 157.019 262.399 158.846 260.942 160.796C259.687 162.468 258.103 163.997 256.318 165.081C255.543 165.548 254.736 165.946 253.899 166.272C253.131 166.569 252.378 166.822 251.791 167.439C251.41 167.849 251.16 168.354 250.823 168.817C247.133 173.903 243.389 179.078 239.116 183.689C236.12 186.896 232.736 189.525 228.627 190.906C227.897 189.518 227.142 187.848 226.534 185.917C225.735 183.429 225.355 181.151 225.173 179.248C226.889 178.591 228.545 177.866 230.139 176.944C231.206 176.325 232.201 175.666 233.192 174.936C235.712 173.061 238.143 171.049 240.442 168.913C242.644 166.852 245.001 164.756 246.822 162.357C247.767 161.118 248.625 159.815 249.583 158.576C251.299 156.349 253.548 154.81 256.233 153.92C257.309 153.569 256.497 154.574 256.113 154.915C255.015 155.875 253.545 157.441 253.232 158.91C255.997 157.889 258.143 155.461 260.782 154.149C261.463 153.812 262.189 153.531 262.936 153.475C263.502 153.444 266.359 154.159 265.56 155.137Z" fill="#FFA6AA"/>
<path d="M260.036 161.905C258.956 163.136 257.697 164.242 256.316 165.079C255.54 165.546 254.736 165.944 253.899 166.272C253.132 166.569 252.378 166.822 251.791 167.437C251.411 167.849 251.161 168.352 250.824 168.816C247.134 173.901 243.39 179.076 239.118 183.689C236.122 186.896 232.739 189.523 228.631 190.905C227.9 189.52 227.146 187.85 226.538 185.919C225.738 183.431 225.359 181.152 225.177 179.249C225.703 179.05 226.22 178.841 226.734 178.623C226.832 180.46 227.212 182.519 228.113 184.629C228.721 186.049 229.456 187.231 230.173 188.195C233.59 186.568 236.03 184.705 237.647 183.264C241.313 179.996 243.617 176.353 243.957 175.808C245.968 172.58 246.309 170.785 248.829 168.508C250.028 167.427 251.583 166.36 252.057 166.036C254.158 164.598 255.888 163.72 256.511 163.412C257.483 162.931 258.664 162.405 260.036 161.905Z" fill="#F2949B"/>
</g>
<defs>
<linearGradient id="paint0_linear_583_2052" x1="147.286" y1="310.551" x2="149.432" y2="250.192" gradientUnits="userSpaceOnUse">
<stop stop-color="#19936C"/>
<stop offset="1" stop-color="#6FD45C"/>
</linearGradient>
<linearGradient id="paint1_linear_583_2052" x1="134.011" y1="333.277" x2="132.036" y2="277.753" gradientUnits="userSpaceOnUse">
<stop stop-color="#19936C"/>
<stop offset="1" stop-color="#6FD45C"/>
</linearGradient>
<linearGradient id="paint2_linear_583_2052" x1="434.242" y1="310.551" x2="432.095" y2="250.192" gradientUnits="userSpaceOnUse">
<stop stop-color="#19936C"/>
<stop offset="1" stop-color="#6FD45C"/>
</linearGradient>
<linearGradient id="paint3_linear_583_2052" x1="447.517" y1="333.277" x2="449.492" y2="277.753" gradientUnits="userSpaceOnUse">
<stop stop-color="#19936C"/>
<stop offset="1" stop-color="#6FD45C"/>
</linearGradient>
<clipPath id="clip0_583_2052">
<rect width="556.76" height="338.36" fill="white"/>
</clipPath>
</defs>
</svg>
