<svg width="36" height="36" viewBox="0 0 36 36" fill="none" xmlns="http://www.w3.org/2000/svg">
<path d="M32.5688 1.125H3.43125C2.81959 1.125 2.23299 1.36798 1.80048 1.80048C1.36798 2.23299 1.125 2.81959 1.125 3.43125V32.5688C1.125 33.1804 1.36798 33.767 1.80048 34.1995C2.23299 34.632 2.81959 34.875 3.43125 34.875H32.5688C33.1802 34.8743 33.7663 34.631 34.1987 34.1987C34.631 33.7663 34.8743 33.1802 34.875 32.5688V3.43125C34.8743 2.81982 34.631 2.23365 34.1987 1.80131C33.7663 1.36896 33.1802 1.12574 32.5688 1.125ZM33.75 32.5688C33.75 32.882 33.6255 33.1825 33.404 33.404C33.1825 33.6255 32.882 33.75 32.5688 33.75H3.43125C3.11796 33.75 2.81751 33.6255 2.59598 33.404C2.37445 33.1825 2.25 32.882 2.25 32.5688V3.43125C2.25 3.11796 2.37445 2.81751 2.59598 2.59598C2.81751 2.37445 3.11796 2.25 3.43125 2.25H32.5688C32.882 2.25 33.1825 2.37445 33.404 2.59598C33.6255 2.81751 33.75 3.11796 33.75 3.43125V32.5688Z" fill="#DAA7EE"/>
<path d="M31.2141 8.12915H4.78564C4.63646 8.12915 4.49339 8.18841 4.3879 8.2939C4.28241 8.39939 4.22314 8.54247 4.22314 8.69165V19.297C4.22314 19.4462 4.28241 19.5893 4.3879 19.6948C4.49339 19.8003 4.63646 19.8595 4.78564 19.8595H31.2141C31.3633 19.8595 31.5064 19.8003 31.6119 19.6948C31.7174 19.5893 31.7766 19.4462 31.7766 19.297V8.69165C31.7766 8.54247 31.7174 8.39939 31.6119 8.2939C31.5064 8.18841 31.3633 8.12915 31.2141 8.12915ZM30.6516 18.7345H5.34814V9.25415H30.6516V18.7345Z" fill="#DAA7EE"/>
<path d="M4.87113 4.85442C4.92584 4.90406 4.98862 4.94401 5.05676 4.97254C5.12438 5.00137 5.197 5.01666 5.27051 5.01754C5.30823 5.01658 5.34584 5.01282 5.38301 5.00629C5.41826 5.00017 5.45239 4.98879 5.48426 4.97254C5.52011 4.96025 5.55416 4.94323 5.58551 4.92192L5.66988 4.85442C5.71952 4.79971 5.75947 4.73694 5.78801 4.66879C5.81683 4.60117 5.83212 4.52855 5.83301 4.45504C5.83205 4.41732 5.82829 4.37971 5.82176 4.34254C5.81563 4.3073 5.80426 4.27317 5.78801 4.24129C5.77571 4.20544 5.75869 4.17139 5.73738 4.14004C5.71662 4.11057 5.69408 4.0824 5.66988 4.05567L5.58551 3.98817C5.55416 3.96686 5.52011 3.94984 5.48426 3.93754C5.45239 3.9213 5.41826 3.90992 5.38301 3.90379C5.2734 3.8808 5.15934 3.89259 5.05676 3.93754C4.98862 3.96608 4.92584 4.00603 4.87113 4.05567L4.80363 4.14004C4.78233 4.17139 4.7653 4.20544 4.75301 4.24129C4.73676 4.27317 4.72538 4.3073 4.71926 4.34254C4.71273 4.37971 4.70897 4.41732 4.70801 4.45504C4.7089 4.52855 4.72418 4.60117 4.75301 4.66879C4.78154 4.73694 4.82149 4.79971 4.87113 4.85442Z" fill="#DAA7EE"/>
<path d="M8.16754 4.85442C8.19004 4.87692 8.22379 4.89942 8.25191 4.92192C8.2806 4.94422 8.31296 4.96135 8.34754 4.97254C8.38137 4.98883 8.41736 5.0002 8.45441 5.00629C8.49154 5.0131 8.52917 5.01687 8.56691 5.01754C8.71402 5.01467 8.85462 4.95642 8.96066 4.85442C9.06713 4.74859 9.12774 4.60515 9.12941 4.45504C9.12886 4.34399 9.09544 4.23559 9.03338 4.1435C8.97132 4.0514 8.88338 3.97974 8.78066 3.93754C8.67808 3.89259 8.56402 3.8808 8.45441 3.90379C8.41736 3.90989 8.38137 3.92126 8.34754 3.93754C8.31296 3.94874 8.2806 3.96587 8.25191 3.98817C8.2214 4.00752 8.19311 4.03015 8.16754 4.05567C8.11498 4.10921 8.07299 4.17218 8.04379 4.24129C7.99126 4.37895 7.99126 4.53113 8.04379 4.66879C8.07436 4.73716 8.11619 4.7999 8.16754 4.85442Z" fill="#DAA7EE"/>
<path d="M11.3399 4.66887C11.3511 4.70344 11.3682 4.7358 11.3905 4.76449C11.413 4.79824 11.4355 4.82637 11.458 4.85449C11.5128 4.90413 11.5755 4.94408 11.6437 4.97262C11.711 5.00228 11.7838 5.01759 11.8574 5.01759C11.931 5.01759 12.0038 5.00228 12.0712 4.97262C12.1407 4.9468 12.204 4.90654 12.2568 4.85449C12.2824 4.82694 12.305 4.79677 12.3243 4.76449C12.3466 4.7358 12.3637 4.70344 12.3749 4.66887C12.392 4.63537 12.4035 4.59925 12.4087 4.56199C12.4152 4.52671 12.419 4.49098 12.4199 4.45512C12.419 4.41739 12.4152 4.37979 12.4087 4.34262C12.4025 4.30737 12.3912 4.27324 12.3749 4.24137C12.3626 4.20551 12.3456 4.17146 12.3243 4.14012C12.3035 4.11065 12.281 4.08247 12.2568 4.05574C12.204 4.00369 12.1407 3.96343 12.0712 3.93762C12.0037 3.90839 11.931 3.89331 11.8574 3.89331C11.7839 3.89331 11.7111 3.90839 11.6437 3.93762C11.5755 3.96615 11.5128 4.0061 11.458 4.05574C11.3544 4.163 11.296 4.30599 11.2949 4.45512C11.2959 4.49098 11.2996 4.52671 11.3062 4.56199C11.3114 4.59925 11.3228 4.63537 11.3399 4.66887Z" fill="#DAA7EE"/>
<path d="M18 21.8435H4.78125C4.63207 21.8435 4.48899 21.9028 4.3835 22.0083C4.27801 22.1137 4.21875 22.2568 4.21875 22.406C4.21875 22.5552 4.27801 22.6983 4.3835 22.8038C4.48899 22.9092 4.63207 22.9685 4.78125 22.9685H18C18.1492 22.9685 18.2923 22.9092 18.3977 22.8038C18.5032 22.6983 18.5625 22.5552 18.5625 22.406C18.5625 22.2568 18.5032 22.1137 18.3977 22.0083C18.2923 21.9028 18.1492 21.8435 18 21.8435Z" fill="#DAA7EE"/>
<path d="M18 24.9333H4.78125C4.63207 24.9333 4.48899 24.9926 4.3835 25.0981C4.27801 25.2036 4.21875 25.3467 4.21875 25.4958C4.21875 25.645 4.27801 25.7881 4.3835 25.8936C4.48899 25.9991 4.63207 26.0583 4.78125 26.0583H18C18.1492 26.0583 18.2923 25.9991 18.3977 25.8936C18.5032 25.7881 18.5625 25.645 18.5625 25.4958C18.5625 25.3467 18.5032 25.2036 18.3977 25.0981C18.2923 24.9926 18.1492 24.9333 18 24.9333Z" fill="#DAA7EE"/>
<path d="M18 28.0232H4.78125C4.63207 28.0232 4.48899 28.0825 4.3835 28.1879C4.27801 28.2934 4.21875 28.4365 4.21875 28.5857C4.21875 28.7349 4.27801 28.878 4.3835 28.9834C4.48899 29.0889 4.63207 29.1482 4.78125 29.1482H18C18.1492 29.1482 18.2923 29.0889 18.3977 28.9834C18.5032 28.878 18.5625 28.7349 18.5625 28.5857C18.5625 28.4365 18.5032 28.2934 18.3977 28.1879C18.2923 28.0825 18.1492 28.0232 18 28.0232Z" fill="#DAA7EE"/>
<path d="M18 31.113H4.78125C4.63207 31.113 4.48899 31.1723 4.3835 31.2778C4.27801 31.3833 4.21875 31.5264 4.21875 31.6755C4.21875 31.8247 4.27801 31.9678 4.3835 32.0733C4.48899 32.1788 4.63207 32.238 4.78125 32.238H18C18.1492 32.238 18.2923 32.1788 18.3977 32.0733C18.5032 31.9678 18.5625 31.8247 18.5625 31.6755C18.5625 31.5264 18.5032 31.3833 18.3977 31.2778C18.2923 31.1723 18.1492 31.113 18 31.113Z" fill="#DAA7EE"/>
<path d="M31.2141 21.8435H22.8267C22.6775 21.8435 22.5344 21.9028 22.4289 22.0083C22.3234 22.1137 22.2642 22.2568 22.2642 22.406V31.6754C22.2642 31.8246 22.3234 31.9677 22.4289 32.0732C22.5344 32.1787 22.6775 32.2379 22.8267 32.2379H31.2141C31.3633 32.2379 31.5064 32.1787 31.6118 32.0732C31.7173 31.9677 31.7766 31.8246 31.7766 31.6754V22.406C31.7766 22.2568 31.7173 22.1137 31.6118 22.0083C31.5064 21.9028 31.3633 21.8435 31.2141 21.8435ZM30.6516 31.1129H23.3892V22.9685H30.6516V31.1129Z" fill="#DAA7EE"/>
<path d="M10.0166 12.7192H25.9837C26.1329 12.7192 26.276 12.66 26.3815 12.5545C26.487 12.449 26.5462 12.3059 26.5462 12.1567C26.5462 12.0076 26.487 11.8645 26.3815 11.759C26.276 11.6535 26.1329 11.5942 25.9837 11.5942H10.0166C9.86742 11.5942 9.72434 11.6535 9.61885 11.759C9.51337 11.8645 9.4541 12.0076 9.4541 12.1567C9.4541 12.3059 9.51337 12.449 9.61885 12.5545C9.72434 12.66 9.86742 12.7192 10.0166 12.7192Z" fill="#DAA7EE"/>
<path d="M22.5 14.4658H13.5C13.3508 14.4658 13.2077 14.5251 13.1023 14.6306C12.9968 14.7361 12.9375 14.8791 12.9375 15.0283C12.9375 15.1775 12.9968 15.3206 13.1023 15.4261C13.2077 15.5316 13.3508 15.5908 13.5 15.5908H22.5C22.6492 15.5908 22.7923 15.5316 22.8977 15.4261C23.0032 15.3206 23.0625 15.1775 23.0625 15.0283C23.0625 14.8791 23.0032 14.7361 22.8977 14.6306C22.7923 14.5251 22.6492 14.4658 22.5 14.4658Z" fill="#DAA7EE"/>
</svg>
