<svg width="543" height="329" viewBox="0 0 543 329" fill="none" xmlns="http://www.w3.org/2000/svg">
<g clip-path="url(#clip0_1915_6534)">
<path opacity="0.2" d="M78.788 327.839C41.4882 290.535 -9.49424 252.012 10.4949 193.818C23.6478 155.541 55.8804 144.88 82.6859 121.276C95.9087 109.631 87.5932 92.6757 87.3433 75.8481C86.7836 32.7513 139.135 -0.687543 187.269 0.010739C239.401 0.768031 261.969 48.9102 305.705 51.4968C322.876 51.7426 338.257 42.4781 353.449 35.1314C398.465 13.3371 469.906 27.2339 473.514 79.9296C474.444 108.392 439.183 154.174 474.514 169.143C502.668 181.072 531.113 185.469 536.19 228.133C542.837 283.976 507.716 314.621 461.971 329L78.788 327.839Z" fill="#999999"/>
<g clip-path="url(#clip1_1915_6534)">
<path d="M278.06 102.38C291.9 102.38 303.12 91.1603 303.12 77.32C303.12 63.4798 291.9 52.26 278.06 52.26C264.22 52.26 253 63.4798 253 77.32C253 91.1603 264.22 102.38 278.06 102.38Z" fill="#E527BB"/>
<path d="M281.695 102.64C281.645 102.64 281.595 102.64 281.545 102.64C274.785 102.6 268.435 99.93 263.685 95.12C258.935 90.31 256.335 83.94 256.375 77.17C256.415 70.41 259.085 64.06 263.895 59.31C268.665 54.59 274.985 52 281.685 52C281.735 52 281.785 52 281.835 52C288.595 52.04 294.945 54.71 299.695 59.52C304.445 64.33 307.045 70.7 307.005 77.47C306.965 84.23 304.295 90.58 299.485 95.33C294.725 100.05 288.405 102.64 281.695 102.64ZM281.685 52.52C275.115 52.52 268.935 55.06 264.255 59.68C259.545 64.34 256.925 70.55 256.895 77.17C256.855 83.79 259.405 90.04 264.055 94.75C268.715 99.46 274.925 102.08 281.545 102.11C288.185 102.15 294.415 99.6 299.125 94.95C303.835 90.29 306.455 84.08 306.485 77.46C306.515 70.84 303.975 64.59 299.325 59.88C294.665 55.17 288.455 52.55 281.835 52.52C281.785 52.52 281.735 52.52 281.685 52.52Z" fill="white"/>
<path d="M281.733 65.4199C274.753 65.4199 267.893 64.2399 261.893 62.0199C261.763 61.9699 261.693 61.8199 261.743 61.6899C261.793 61.5599 261.943 61.4899 262.073 61.5399C268.013 63.7399 274.813 64.9099 281.733 64.9099C288.593 64.9099 295.353 63.7599 301.263 61.5899C301.393 61.5399 301.543 61.6099 301.593 61.7399C301.643 61.8699 301.573 62.0199 301.443 62.0699C295.473 64.2699 288.663 65.4199 281.733 65.4199Z" fill="white"/>
<path d="M261.764 92.77C261.654 92.77 261.564 92.71 261.524 92.6C261.474 92.47 261.544 92.32 261.674 92.27C267.734 89.99 274.674 88.79 281.744 88.79C288.774 88.79 295.684 89.98 301.724 92.24C301.854 92.29 301.924 92.44 301.874 92.57C301.824 92.7 301.674 92.77 301.544 92.72C295.564 90.48 288.724 89.3 281.754 89.3C274.744 89.3 267.864 90.49 261.864 92.75C261.824 92.77 261.794 92.77 261.764 92.77Z" fill="white"/>
<path d="M281.692 102.64C274.372 102.64 268.422 91.28 268.422 77.32C268.422 63.36 274.372 52 281.692 52C289.012 52 294.962 63.36 294.962 77.32C294.962 91.28 289.012 102.64 281.692 102.64ZM281.692 52.52C274.662 52.52 268.942 63.65 268.942 77.32C268.942 90.99 274.662 102.12 281.692 102.12C288.722 102.12 294.442 90.99 294.442 77.32C294.442 63.64 288.722 52.52 281.692 52.52Z" fill="white"/>
<path d="M281.69 102.61C281.55 102.61 281.43 102.49 281.43 102.35V52.31C281.43 52.17 281.55 52.05 281.69 52.05C281.83 52.05 281.95 52.17 281.95 52.31V102.34C281.95 102.49 281.83 102.61 281.69 102.61Z" fill="white"/>
<path d="M306.752 77.62L256.612 77.23C256.472 77.23 256.352 77.11 256.352 76.97C256.352 76.83 256.472 76.71 256.612 76.71L306.752 77.1C306.892 77.1 307.012 77.22 307.012 77.36C307.012 77.51 306.902 77.62 306.752 77.62Z" fill="white"/>
<path d="M135.936 200.33H134.316C134.176 199.54 133.966 198.77 133.706 198.03L135.106 197.22L132.366 192.48L130.966 193.29C130.446 192.69 129.886 192.13 129.286 191.61L130.096 190.21L125.356 187.47L124.546 188.87C123.806 188.61 123.036 188.4 122.246 188.26V186.64H116.766V188.26C115.976 188.4 115.206 188.61 114.466 188.87L113.656 187.47L108.916 190.21L109.726 191.61C109.126 192.12 108.566 192.69 108.046 193.29L106.646 192.48L103.906 197.22L105.306 198.03C105.046 198.77 104.836 199.54 104.696 200.33H103.086V205.81H104.696C104.836 206.6 105.046 207.37 105.306 208.11L103.906 208.92L106.646 213.66L108.046 212.85C108.556 213.45 109.126 214.01 109.726 214.53L108.916 215.93L113.656 218.67L114.466 217.27C115.206 217.53 115.976 217.74 116.766 217.88V219.5H122.246V217.88C123.036 217.74 123.806 217.53 124.546 217.27L125.356 218.67L130.096 215.93L129.286 214.53C129.886 214.02 130.446 213.45 130.966 212.85L132.366 213.66L135.106 208.92L133.706 208.11C133.966 207.37 134.176 206.6 134.316 205.81H135.936V200.33ZM129.236 207.13C128.246 209.74 126.176 211.82 123.566 212.8C114.696 216.15 106.426 207.88 109.776 199.01C110.766 196.4 112.836 194.32 115.446 193.34C124.326 189.98 132.596 198.26 129.236 207.13Z" fill="#E527BB"/>
<path d="M119.506 215.31C112.756 215.31 107.266 209.82 107.266 203.07C107.266 197.06 111.736 191.86 117.676 190.97C117.816 190.95 117.946 191.05 117.976 191.19C117.996 191.33 117.896 191.46 117.756 191.49C112.076 192.34 107.796 197.32 107.796 203.08C107.796 209.54 113.056 214.8 119.516 214.8C124.856 214.8 129.516 211.2 130.856 206.03C130.896 205.89 131.036 205.81 131.176 205.84C131.316 205.88 131.396 206.02 131.366 206.16C129.956 211.54 125.086 215.31 119.506 215.31Z" fill="#F2E6DC"/>
<path d="M157.977 90.4802L166.317 75.5602L183.247 75.4102L191.847 90.1902L183.507 105.12L166.567 105.26L157.977 90.4802Z" fill="#E527BB"/>
<path d="M130.398 106.55L138.738 91.63L155.678 91.48L164.268 106.26L155.928 121.19L138.998 121.33L130.398 106.55Z" fill="#E527BB"/>
<path d="M102.82 121.71L111.16 106.78L128.09 106.64L136.68 121.42L128.34 136.34L111.41 136.49L102.82 121.71Z" fill="#E527BB"/>
<path d="M102.844 89.7302L111.184 74.8102L128.114 74.6602L136.714 89.4402L128.374 104.36L111.434 104.51L102.844 89.7302Z" fill="#E527BB"/>
<path d="M139.029 89.61C138.939 89.61 138.849 89.56 138.809 89.48L130.209 74.7C130.159 74.62 130.159 74.52 130.209 74.44L138.549 59.52C138.599 59.44 138.679 59.39 138.769 59.39L155.699 59.25C155.779 59.25 155.879 59.3 155.929 59.38L164.519 74.16C164.569 74.24 164.569 74.34 164.519 74.42L156.179 89.34C156.129 89.42 156.049 89.47 155.959 89.47L139.029 89.61ZM130.739 74.57L139.179 89.09L155.809 88.95L163.999 74.29L155.559 59.77L138.929 59.91L130.739 74.57Z" fill="#A78BEF"/>
<path d="M194.014 88.6801C193.924 88.6801 193.834 88.6301 193.794 88.5501L185.194 73.7701C185.144 73.6901 185.144 73.5901 185.194 73.5101L193.534 58.5901C193.584 58.5101 193.664 58.4601 193.754 58.4601L210.684 58.3201C210.784 58.3201 210.864 58.3701 210.914 58.4501L219.504 73.2301C219.554 73.3101 219.554 73.4101 219.504 73.4901L211.164 88.4101C211.114 88.4901 211.034 88.5401 210.944 88.5401L194.014 88.6801ZM185.724 73.6401L194.164 88.1601L210.794 88.0201L218.984 73.3601L210.544 58.8401L193.914 58.9801L185.724 73.6401Z" fill="#A78BEF"/>
<path d="M110.848 169.77C110.758 169.77 110.668 169.72 110.628 169.64L102.038 154.86C101.988 154.78 101.988 154.68 102.038 154.6L110.378 139.68C110.428 139.6 110.508 139.55 110.598 139.55L127.528 139.41C127.618 139.41 127.707 139.46 127.747 139.54L136.338 154.32C136.388 154.4 136.388 154.5 136.338 154.58L127.997 169.5C127.948 169.58 127.868 169.63 127.778 169.63L110.848 169.77ZM102.558 154.73L110.998 169.25L127.627 169.11L135.818 154.45L127.377 139.93L110.748 140.06L102.558 154.73Z" fill="#A78BEF"/>
<path d="M156.584 104.4H155.664C155.584 103.95 155.464 103.51 155.314 103.09L156.114 102.63L154.554 99.9201L153.754 100.38C153.464 100.04 153.144 99.7201 152.794 99.4201L153.254 98.6201L150.544 97.0601L150.084 97.8601C149.664 97.7101 149.224 97.5901 148.774 97.5101V96.5901H145.654V97.5101C145.204 97.5901 144.764 97.7101 144.344 97.8601L143.884 97.0601L141.174 98.6201L141.634 99.4201C141.294 99.7101 140.974 100.03 140.674 100.38L139.874 99.9201L138.314 102.63L139.114 103.09C138.964 103.51 138.844 103.95 138.764 104.4H137.844V107.52H138.764C138.844 107.97 138.964 108.41 139.114 108.83L138.314 109.29L139.874 112L140.674 111.54C140.964 111.88 141.284 112.2 141.634 112.5L141.174 113.3L143.884 114.86L144.344 114.06C144.764 114.21 145.204 114.33 145.654 114.41V115.33H148.774V114.41C149.224 114.33 149.664 114.21 150.084 114.06L150.544 114.86L153.254 113.3L152.794 112.5C153.134 112.21 153.454 111.89 153.754 111.54L154.554 112L156.114 109.29L155.314 108.83C155.464 108.41 155.584 107.97 155.664 107.52H156.584V104.4ZM152.384 106.14C152.294 108.85 150.094 111.06 147.384 111.14C144.394 111.24 141.944 108.79 142.044 105.8C142.134 103.09 144.334 100.88 147.044 100.8C150.034 100.7 152.484 103.14 152.384 106.14Z" fill="#F7F1EB"/>
<path d="M147.215 113.06C143.305 113.06 140.125 109.88 140.125 105.97C140.125 102.49 142.715 99.4701 146.155 98.9601C146.295 98.9401 146.425 99.0401 146.455 99.1801C146.475 99.3201 146.375 99.4501 146.235 99.4801C143.045 99.9601 140.645 102.75 140.645 105.98C140.645 109.6 143.595 112.55 147.215 112.55C150.205 112.55 152.825 110.53 153.575 107.63C153.615 107.49 153.755 107.41 153.895 107.44C154.035 107.48 154.115 107.62 154.085 107.76C153.275 110.88 150.445 113.06 147.215 113.06Z" fill="#F2E6DC"/>
<path d="M120.019 90.1901C122.317 90.1901 124.179 88.3276 124.179 86.0301C124.179 83.7326 122.317 81.8701 120.019 81.8701C117.722 81.8701 115.859 83.7326 115.859 86.0301C115.859 88.3276 117.722 90.1901 120.019 90.1901Z" fill="#F7F1EB"/>
<path d="M111.477 94.6702C115.847 90.3502 124.177 90.0702 128.247 94.4802C128.907 95.1902 128.417 96.3502 127.447 96.3602L112.287 96.5602C111.287 96.5802 110.767 95.3702 111.477 94.6702Z" fill="#F7F1EB"/>
<path d="M119.885 129.17C124.071 129.17 127.465 125.776 127.465 121.59C127.465 117.404 124.071 114.01 119.885 114.01C115.698 114.01 112.305 117.404 112.305 121.59C112.305 125.776 115.698 129.17 119.885 129.17Z" fill="#F2E6DC"/>
<path d="M119.885 128.05C116.435 128.05 113.625 125.24 113.625 121.79C113.625 118.34 116.435 115.53 119.885 115.53C120.065 115.53 120.255 115.54 120.435 115.55C120.575 115.56 120.685 115.69 120.675 115.83C120.665 115.97 120.535 116.08 120.395 116.07C120.225 116.06 120.055 116.05 119.885 116.05C116.725 116.05 114.145 118.62 114.145 121.79C114.145 124.95 116.715 127.53 119.885 127.53C123.045 127.53 125.625 124.96 125.625 121.79C125.625 120.44 125.145 119.13 124.275 118.1C124.185 117.99 124.195 117.83 124.305 117.73C124.415 117.64 124.575 117.65 124.675 117.76C125.625 118.88 126.145 120.31 126.145 121.79C126.145 125.24 123.335 128.05 119.885 128.05Z" fill="white"/>
<path d="M311.368 85.21H206.258V159.86H311.368V85.21Z" fill="white"/>
<path d="M206.518 85.21H311.108C311.248 85.21 311.368 85.33 311.368 85.47V91.83H206.258V85.47C206.258 85.33 206.378 85.21 206.518 85.21Z" fill="#E527BB"/>
<path d="M305.461 88.5698C305.461 89.3998 306.131 90.0798 306.971 90.0798C307.811 90.0798 308.481 89.4098 308.481 88.5698C308.481 87.7298 307.811 87.0598 306.971 87.0598C306.131 87.0598 305.461 87.7398 305.461 88.5698Z" fill="white"/>
<path d="M302.096 90.0798C302.93 90.0798 303.606 89.4038 303.606 88.5698C303.606 87.7359 302.93 87.0598 302.096 87.0598C301.262 87.0598 300.586 87.7359 300.586 88.5698C300.586 89.4038 301.262 90.0798 302.096 90.0798Z" fill="white"/>
<path d="M297.221 90.0798C298.055 90.0798 298.731 89.4038 298.731 88.5698C298.731 87.7359 298.055 87.0598 297.221 87.0598C296.387 87.0598 295.711 87.7359 295.711 88.5698C295.711 89.4038 296.387 90.0798 297.221 90.0798Z" fill="white"/>
<path d="M312.151 159.09H207.041C206.901 159.09 206.781 158.97 206.781 158.83V84.1699C206.781 84.0299 206.901 83.9099 207.041 83.9099H312.151C312.291 83.9099 312.411 84.0299 312.411 84.1699V158.82C312.411 158.97 312.291 159.09 312.151 159.09ZM207.301 158.57H311.891V84.4299H207.301V158.57Z" fill="#363E44"/>
<path d="M261.376 109.99H214.086V112.04H261.376V109.99Z" fill="#E6D0BE"/>
<path d="M298.894 109.99H267.234V112.04H298.894V109.99Z" fill="#E6D0BE"/>
<path d="M239.486 116.6H214.086V118.65H239.486V116.6Z" fill="#E6D0BE"/>
<path d="M295.754 116.6H245.344V118.65H295.754V116.6Z" fill="#E6D0BE"/>
<path d="M239.486 136.45H214.086V138.5H239.486V136.45Z" fill="#E6D0BE"/>
<path d="M295.754 136.45H245.344V138.5H295.754V136.45Z" fill="#E6D0BE"/>
<path d="M283.259 123.22H229.719V125.27H283.259V123.22Z" fill="#E6D0BE"/>
<path d="M258.249 129.83H229.719V131.88H258.249V129.83Z" fill="#E6D0BE"/>
<path d="M280.569 131.16H122.289V251.13H280.569V131.16Z" fill="#A78BEF"/>
<path d="M275.608 136.13H127.258V236.55H275.608V136.13Z" fill="#F2E6DC"/>
<path d="M198.445 243.25C198.445 244.9 199.775 246.23 201.425 246.23C203.075 246.23 204.405 244.9 204.405 243.25C204.405 241.6 203.075 240.27 201.425 240.27C199.775 240.27 198.445 241.61 198.445 243.25Z" fill="#F7F1EB"/>
<path d="M122.289 254.39C122.289 261.26 127.859 266.82 134.719 266.82H300.629C307.499 266.82 313.059 261.25 313.059 254.39H122.289Z" fill="#A78BEF"/>
<path d="M163.948 265.79C158.368 265.79 153.828 261.25 153.828 255.67C153.828 255.53 153.948 255.41 154.088 255.41C154.228 255.41 154.348 255.53 154.348 255.67C154.348 260.96 158.658 265.27 163.948 265.27C164.088 265.27 164.208 265.39 164.208 265.53C164.208 265.67 164.098 265.79 163.948 265.79Z" fill="#F2E6DC"/>
<path d="M245.851 262.87H227.251C224.191 262.87 221.711 260.38 221.711 257.33C221.711 257.19 221.831 257.07 221.971 257.07H251.141C251.281 257.07 251.401 257.19 251.401 257.33C251.401 260.38 248.911 262.87 245.851 262.87ZM222.241 257.58C222.381 260.23 224.571 262.34 227.261 262.34H245.861C248.541 262.34 250.741 260.23 250.881 257.58H222.241Z" fill="#F2E6DC"/>
<path d="M275.571 135.42H127.031V141.75H275.571V135.42Z" fill="#E527BB"/>
<path d="M230.545 173.79H130.885C130.745 173.79 130.625 173.67 130.625 173.53V144.96C130.625 144.82 130.745 144.7 130.885 144.7H230.545C230.685 144.7 230.805 144.82 230.805 144.96V173.53C230.805 173.68 230.685 173.79 230.545 173.79ZM131.145 173.27H230.285V145.22H131.145V173.27Z" fill="#DAA7EE"/>
<path d="M230.443 204.13H130.783C130.643 204.13 130.523 204.01 130.523 203.87V176.47C130.523 176.33 130.643 176.21 130.783 176.21H230.443C230.583 176.21 230.703 176.33 230.703 176.47V203.87C230.703 204.02 230.593 204.13 230.443 204.13ZM131.043 203.61H230.183V176.73H131.043V203.61Z" fill="#DAA7EE"/>
<path d="M230.443 234.03H130.783C130.643 234.03 130.523 233.91 130.523 233.77V206.58C130.523 206.44 130.643 206.32 130.783 206.32H230.443C230.583 206.32 230.703 206.44 230.703 206.58V233.77C230.703 233.91 230.593 234.03 230.443 234.03ZM131.043 233.51H230.183V206.84H131.043V233.51Z" fill="#DAA7EE"/>
<path d="M272.379 234.12H233.369C233.229 234.12 233.109 234 233.109 233.86V144.96C233.109 144.82 233.229 144.7 233.369 144.7H272.379C272.519 144.7 272.639 144.82 272.639 144.96V233.86C272.639 234 272.519 234.12 272.379 234.12ZM233.629 233.6H272.119V145.22H233.629V233.6Z" fill="#DAA7EE"/>
<path d="M185.549 195.46C184.779 195.79 182.799 195.82 182.049 195.46C132.569 171.39 140.719 110.86 140.719 110.86L183.879 92.5801L226.869 110.86C226.879 110.86 234.589 174.76 185.549 195.46Z" fill="#E527BB"/>
<path d="M183.87 92.6101L140.75 110.86C140.75 110.86 132.6 171.39 182.09 195.46C182.47 195.64 183.09 195.73 183.87 195.72V92.6101Z" fill="#E527BB"/>
<path d="M183.742 187.07C183.162 187.07 182.592 187 182.262 186.83C173.042 182.25 165.532 175.7 159.942 167.35C155.472 160.67 152.202 152.84 150.242 144.07C146.902 129.14 148.512 116.49 148.522 116.37C148.532 116.28 148.592 116.2 148.682 116.16L184.182 101.78C184.242 101.75 184.312 101.75 184.382 101.78L218.922 116.16C219.012 116.2 219.072 116.28 219.082 116.37C219.102 116.5 220.612 129.85 217.222 145.12C215.232 154.1 211.962 161.98 207.502 168.54C201.922 176.75 194.462 182.91 185.322 186.85C184.982 186.98 184.352 187.07 183.742 187.07ZM149.022 116.57C148.852 118.03 147.622 129.99 150.752 143.96C153.812 157.64 161.812 176.09 182.492 186.36C183.002 186.61 184.522 186.61 185.122 186.35C205.612 177.52 213.612 158.99 216.712 144.99C219.882 130.68 218.732 118.07 218.572 116.56L184.272 102.28L149.022 116.57Z" fill="#F2E6DC"/>
<path d="M169.359 134.22V145.71C169.359 153.85 175.959 160.44 184.089 160.44C192.229 160.44 198.819 153.84 198.819 145.71V134.22H169.359ZM185.269 146.5V152.72H182.919V146.5C181.639 146.02 180.719 144.79 180.719 143.34C180.719 141.47 182.229 139.96 184.099 139.96C185.969 139.96 187.479 141.47 187.479 143.34C187.479 144.79 186.559 146.02 185.269 146.5Z" fill="#A78BEF"/>
<path d="M197.207 131.4C197.067 131.4 196.947 131.28 196.947 131.14C196.947 124.05 191.177 118.29 184.097 118.29C177.007 118.29 171.247 124.06 171.247 131.14C171.247 131.28 171.127 131.4 170.987 131.4C170.847 131.4 170.727 131.28 170.727 131.14C170.727 123.77 176.727 117.77 184.097 117.77C191.467 117.77 197.467 123.77 197.467 131.14C197.467 131.28 197.347 131.4 197.207 131.4Z" fill="#A78BEF"/>
<path d="M323.105 238.85C321.815 231.08 320.345 223.3 319.385 215.54C319.355 215.31 319.705 215.3 319.755 215.54C319.765 215.57 319.765 215.59 319.775 215.62C319.925 215.46 320.245 215.43 320.465 215.41C320.755 215.38 321.045 215.38 321.335 215.38C321.835 215.38 322.345 215.41 322.855 215.46C322.845 215.37 322.825 215.28 322.815 215.18C322.785 214.95 323.135 214.94 323.185 215.18C323.205 215.3 323.225 215.41 323.255 215.53C323.285 215.56 323.285 215.6 323.275 215.63C324.685 222.42 325.725 229.23 326.835 236.02C327.955 242.89 329.135 249.76 330.285 256.63C332.615 270.46 334.905 284.29 337.155 298.11C338.425 305.88 339.715 313.67 340.825 321.44C340.845 321.56 340.665 321.56 340.635 321.45C340.575 321.54 340.465 321.61 340.365 321.65C340.065 321.78 339.735 321.85 339.395 321.89C338.705 321.97 338.005 321.97 337.315 322.03C337.085 322.05 336.985 321.76 337.075 321.62C337.105 321.57 337.135 321.51 337.155 321.45C335.855 314.61 334.755 307.77 333.545 300.93C332.325 294.05 331.225 287.17 330.055 280.29C327.695 266.49 325.395 252.67 323.105 238.85Z" fill="#AA4729"/>
<path d="M270.624 233.07C271.754 225.99 272.694 219.11 274.054 212.44C274.084 212.27 274.304 212.25 274.364 212.38C274.374 212.38 274.374 212.38 274.384 212.38C275.154 212.42 275.934 212.35 276.714 212.34C277.464 212.33 278.254 212.27 278.994 212.34C279.084 212.35 279.144 212.43 279.084 212.52C279.044 212.57 279.014 212.62 278.994 212.67C279.074 212.67 279.154 212.71 279.144 212.81C278.544 218.7 277.564 224.76 276.624 230.97C275.664 237.28 274.744 243.76 273.774 250.41C271.744 264.37 269.554 279.15 267.194 294.81C265.804 304.04 264.394 313.6 262.724 323.48C262.714 323.54 262.684 323.57 262.644 323.58C262.624 323.65 262.584 323.72 262.504 323.75C262.344 323.81 262.174 323.84 262.014 323.86C261.974 323.87 261.944 323.89 261.904 323.9C261.514 324.03 261.114 324.13 260.724 324.21C259.764 324.41 258.804 324.58 257.844 324.69C257.664 324.71 257.494 324.73 257.314 324.74C257.194 324.75 257.034 324.77 256.904 324.73C256.774 324.75 256.654 324.76 256.524 324.76C256.454 324.76 256.424 324.71 256.404 324.66C256.364 324.64 256.344 324.61 256.354 324.55C257.594 315.55 259.034 306.83 260.294 298.38C261.504 290.27 262.804 282.4 264.004 274.76C266.304 260.09 268.514 246.21 270.624 233.07Z" fill="#AA4729"/>
<path d="M408.16 321.02C408.4 321.02 408.63 321.03 408.87 321.03C408.92 319.32 403.8 300.4 402.68 295.85C402.13 293.62 394.01 259.83 391.96 255.57C391.9 255.45 391.76 255.47 391.68 255.55C391.52 255.42 391.31 255.34 391.02 255.34C390.35 255.35 389.63 255.55 388.97 255.69C388.24 255.85 387.53 256.06 386.87 256.41C386.74 256.48 386.75 256.73 386.92 256.75C386.96 256.76 386.99 256.76 387.03 256.76C388.67 260.83 389.7 265.09 391.02 269.25C392.36 273.46 393.7 277.66 394.89 281.92C396.09 286.21 397.23 290.51 398.51 294.78C399.78 299.01 401.09 303.23 402.37 307.45C403.76 312 405.17 316.56 406.85 321.03C407.29 321.02 407.73 321.02 408.16 321.02Z" fill="#310C03"/>
<path d="M343.413 324.77C343.173 324.77 342.933 324.78 342.703 324.78C342.653 323.03 347.793 303.63 348.913 298.96C349.463 296.68 357.613 262.03 359.663 257.66C359.723 257.54 359.863 257.56 359.943 257.64C360.103 257.51 360.313 257.42 360.613 257.42C361.293 257.43 362.013 257.64 362.663 257.78C363.393 257.94 364.104 258.16 364.764 258.52C364.893 258.59 364.883 258.85 364.713 258.87C364.673 258.88 364.643 258.88 364.603 258.88C362.963 263.05 361.923 267.42 360.593 271.69C359.253 276.01 357.903 280.32 356.703 284.68C355.493 289.07 354.363 293.49 353.073 297.86C351.803 302.19 350.493 306.52 349.193 310.85C347.793 315.52 346.383 320.2 344.693 324.77C344.283 324.77 343.853 324.77 343.413 324.77Z" fill="#310C03"/>
<path d="M370.335 325.93C370.095 325.93 369.855 325.94 369.625 325.94C369.575 324.19 374.715 304.79 375.835 300.12C376.385 297.84 384.535 263.19 386.585 258.82C386.645 258.7 386.785 258.72 386.865 258.8C387.025 258.67 387.235 258.58 387.535 258.58C388.215 258.59 388.935 258.8 389.585 258.94C390.315 259.1 391.025 259.32 391.685 259.68C391.815 259.75 391.805 260.01 391.635 260.03C391.595 260.04 391.565 260.04 391.525 260.04C389.885 264.21 388.845 268.58 387.515 272.85C386.175 277.17 384.825 281.48 383.625 285.84C382.415 290.23 381.285 294.65 379.995 299.02C378.725 303.35 377.415 307.68 376.115 312.01C374.715 316.68 373.305 321.36 371.615 325.93C371.205 325.93 370.765 325.93 370.335 325.93Z" fill="#66220C"/>
<path d="M433.255 321.02C433.485 321.02 433.705 321.03 433.935 321.03C433.985 319.32 429.075 300.4 428.005 295.85C427.475 293.62 419.695 259.83 417.735 255.57C417.685 255.45 417.535 255.47 417.465 255.55C417.305 255.42 417.105 255.34 416.825 255.34C416.175 255.35 415.495 255.55 414.865 255.69C414.165 255.85 413.485 256.06 412.855 256.41C412.725 256.48 412.735 256.73 412.895 256.75C412.925 256.76 412.965 256.76 412.995 256.76C414.565 260.83 415.555 265.09 416.815 269.25C418.095 273.46 419.385 277.66 420.525 281.92C421.675 286.21 422.765 290.51 423.995 294.78C425.215 299.01 426.465 303.23 427.695 307.45C429.025 312 430.385 316.56 431.995 321.03C432.425 321.02 432.835 321.02 433.255 321.02Z" fill="#66220C"/>
<path d="M384.102 245.15C384.642 241.68 385.602 238.31 386.912 235.06C388.282 231.66 389.722 228.28 391.232 224.94C392.772 221.53 394.412 218.16 396.102 214.82C397.722 211.62 399.042 208.26 400.752 205.11C401.362 203.97 402.052 202.41 403.212 201.71C404.072 201.19 405.112 201.37 406.062 201.47C409.672 201.86 413.282 201.57 416.902 201.42C418.622 201.35 420.322 201.39 422.042 201.27C423.952 201.14 425.862 201.05 427.772 201.04C429.812 201.02 431.842 200.98 433.872 201.14C435.212 201.24 436.762 201.38 437.942 202.1C438.132 202.22 438.312 202.37 438.432 202.55C438.542 202.61 438.602 202.73 438.562 202.84C438.562 202.85 438.572 202.85 438.572 202.86C438.582 202.9 438.552 202.93 438.512 202.93C438.092 203.52 437.952 204.17 437.792 204.87C437.592 205.76 437.382 206.64 437.222 207.54C436.892 209.35 436.792 211.19 436.442 212.99C436.092 214.79 435.602 216.57 435.382 218.4C435.182 220.09 434.852 221.74 434.382 223.38C433.902 225.04 433.312 226.67 432.742 228.3C432.122 230.06 431.612 231.85 431.122 233.65C430.282 236.77 429.542 239.93 428.552 243C427.782 245.37 426.792 248.04 424.812 249.68C422.862 251.3 419.912 251.53 417.482 251.71C413.862 251.97 410.222 251.93 406.592 251.94C402.822 251.94 399.062 251.64 395.302 251.34C393.432 251.19 391.552 251.05 389.682 250.97C388.822 250.93 387.952 250.91 387.092 250.9C386.512 250.9 385.922 250.9 385.352 250.79C384.292 250.58 383.532 249.83 383.502 248.72C383.462 247.51 383.922 246.32 384.102 245.15Z" fill="#66220C"/>
<path d="M350.536 252.11C350.506 250.36 353.286 250.42 354.466 250.47C355.546 250.51 356.616 250.64 357.696 250.77C358.906 250.92 360.116 250.98 361.336 251.06C362.326 251.13 363.316 251.19 364.306 251.24C364.926 251.22 365.536 251.21 366.146 251.19C369.166 251.14 372.186 251.18 375.206 251.1C376.686 251.06 378.146 251.07 379.626 251C381.096 250.93 382.566 250.92 384.036 250.86C386.996 250.76 389.956 250.61 392.916 250.48C395.836 250.34 398.786 250.24 401.696 249.96C404.526 249.68 407.336 249.29 410.166 248.99C412.846 248.7 415.516 248.37 418.186 248.05C420.156 247.81 422.256 247.49 424.266 247.65C424.486 246.88 424.496 245.95 424.586 245.33C424.816 243.66 425.376 242.02 425.826 240.4C426.326 238.6 426.776 236.8 427.346 235.02C427.916 233.24 428.516 231.47 429.006 229.67C430.036 225.9 430.926 222.08 431.816 218.28C432.246 216.46 432.576 214.64 432.826 212.79C433.086 210.94 433.306 209.07 433.716 207.24C433.986 206 434.326 204.67 434.906 203.53C435.386 202.6 436.156 201.81 437.266 201.79C438.396 201.77 439.426 202.39 439.796 203.47C440.176 204.59 439.946 205.86 439.786 207.01C439.526 208.91 439.076 210.79 438.676 212.66C438.276 214.54 438.006 216.45 437.616 218.34C436.856 222.1 435.946 225.82 435.196 229.58C434.826 231.47 434.556 233.38 434.166 235.27C433.766 237.16 433.286 239.02 432.856 240.9C432.466 242.58 432.156 244.27 431.716 245.94C431.276 247.61 430.786 249.28 430.476 250.98C430.316 251.82 430.166 252.65 430.096 253.51C430.086 253.6 430.016 253.63 429.946 253.62C429.996 253.81 429.886 254.07 429.626 254.1C428.766 254.21 427.906 254.32 427.046 254.47C426.706 254.53 426.356 254.57 426.016 254.61C423.846 255.09 421.716 255.8 419.566 256.34C416.036 257.23 412.476 257.96 408.926 258.73C405.456 259.48 402.006 260.3 398.486 260.75C395.816 261.09 393.116 261.15 390.436 261C389.366 260.94 388.286 260.83 387.226 260.67C384.656 260.52 382.096 260.2 379.536 259.9C376.136 259.51 372.726 259.24 369.316 258.98C365.866 258.71 362.406 258.45 358.956 258.12C357.226 257.95 355.496 257.84 353.776 257.65C353.156 257.58 352.546 257.5 351.926 257.39C351.546 257.32 351.136 257.25 350.816 257.03C350.146 256.58 350.176 255.58 350.136 254.87C350.086 253.98 350.056 252.9 350.536 252.11Z" fill="#C5674E"/>
<path d="M336.001 323.08C336.521 322.47 337.201 322.04 337.861 321.59C338.831 320.94 339.751 320.23 340.631 319.46C342.361 317.94 343.861 316.23 345.401 314.52C347.081 312.65 348.911 310.86 349.481 308.33C349.501 308.23 349.611 308.15 349.721 308.15C351.231 308.16 352.761 308.17 354.271 308.14C354.991 308.12 355.741 308.13 356.461 308.02C356.861 307.96 357.251 307.83 357.641 307.74C358.171 307.62 358.911 307.37 359.371 307.77C359.401 307.72 359.491 307.7 359.521 307.76C360.721 310.09 361.041 312.84 361.121 315.43C361.151 316.38 360.951 317.24 360.201 317.89C359.231 318.73 357.951 319.13 356.781 319.58C354.071 320.61 351.591 322.08 349.141 323.61C347.011 324.94 344.861 326.32 342.531 327.28C341.361 327.76 340.151 328.18 338.911 328.39C338.131 328.52 337.141 328.66 336.361 328.35C336.031 328.49 335.671 328.52 335.371 328.26C335.001 327.94 334.931 327.36 334.911 326.9C334.831 325.58 335.131 324.09 336.001 323.08Z" fill="#A78BEF"/>
<path d="M349.481 308.33C349.501 308.23 349.611 308.15 349.721 308.15C351.231 308.16 352.761 308.17 354.271 308.14C354.991 308.12 355.741 308.13 356.461 308.02C356.861 307.96 357.251 307.83 357.641 307.74C358.171 307.62 358.911 307.37 359.371 307.77C359.401 307.72 359.491 307.7 359.521 307.76C359.851 308.4 360.111 309.08 360.321 309.78C358.311 311.05 356.261 312.24 354.151 313.32C353.901 312.2 353.371 311.02 352.501 310.27C351.631 309.53 350.431 309.14 349.311 309.37C349.251 309.38 349.201 309.41 349.141 309.42C349.281 309.08 349.401 308.72 349.481 308.33Z" fill="#FC7980"/>
<path d="M298.67 314.22C298.79 313.29 299.25 312.31 299.91 311.64C300.68 310.85 301.79 310.26 302.8 309.85C304.16 309.3 305.59 309 306.96 308.48C309.65 307.46 312.06 305.87 314.2 303.95C314.64 303.56 315.07 303.19 315.6 302.93C316.22 302.63 316.95 302.6 317.62 302.62C319.05 302.65 320.41 303.06 321.82 303.23C323.03 303.38 324.72 303.4 325.58 304.41C325.75 304.6 325.84 304.82 325.91 305.04C325.92 305.06 325.93 305.07 325.94 305.1C325.94 305.11 325.94 305.12 325.94 305.13C326.01 305.41 326.01 305.71 325.99 306.02C326.01 307.11 325.87 308.24 325.75 309.3C325.68 309.96 325.59 310.61 325.49 311.26C325.44 311.61 325.39 311.95 325.33 312.3C325.28 312.58 325.3 312.87 325.09 313.07C325.04 313.11 323.84 313.42 323.48 313.51C322.03 313.89 320.46 313.88 318.98 313.89C317.79 313.9 316.59 313.82 315.41 313.87C314.16 313.92 312.98 314.42 311.79 314.77C310.46 315.16 309.06 315.39 307.69 315.61C306.18 315.84 304.67 315.93 303.14 315.96C301.78 315.99 300.22 316.04 298.96 315.43C298.88 315.39 298.87 315.29 298.91 315.22C298.71 314.97 298.62 314.65 298.67 314.22Z" fill="#A78BEF"/>
<path d="M317.469 307.06C317.939 306.37 318.349 305.67 318.559 304.87C318.749 304.12 318.659 303.27 318.179 302.67C319.399 302.78 320.589 303.08 321.819 303.23C323.029 303.38 324.719 303.4 325.579 304.41C325.749 304.6 325.839 304.82 325.909 305.04C325.919 305.06 325.929 305.07 325.939 305.1C325.939 305.11 325.939 305.12 325.939 305.13C326.009 305.41 326.009 305.71 325.989 306.02C325.999 306.48 325.969 306.94 325.939 307.41C323.129 307.87 320.229 307.75 317.469 307.06Z" fill="#FC7980"/>
<path d="M315.113 302.65C315.483 301.97 335.443 254.2 336.113 252.95C337.543 250.26 338.193 247.31 339.343 244.51C340.253 242.31 341.333 240.2 342.183 237.97C342.513 237.1 342.863 236.22 343.323 235.41C343.613 234.9 344.013 234.24 344.623 234.08C345.533 233.84 346.193 234.73 346.553 235.43C347.233 236.71 347.573 238.17 347.863 239.58C348.193 241.14 348.443 242.72 348.633 244.3C349.093 248.19 349.203 252.15 349.183 256.06C349.183 256.07 349.183 256.08 349.183 256.09C348.513 260.89 347.433 265.67 345.383 270.08C343.373 274.41 340.633 278.4 338.113 282.44C333.613 289.64 330.143 297.39 327.013 305.26C327.003 305.27 326.993 305.28 326.983 305.28C326.943 305.36 326.853 305.41 326.773 305.42C325.633 305.51 324.473 305.4 323.343 305.24C322.263 305.08 321.143 304.91 320.083 304.62C319.733 304.52 319.393 304.4 319.043 304.27C318.863 304.24 318.673 304.22 318.493 304.18C317.513 303.97 316.553 303.63 315.643 303.21C315.523 303.19 315.403 303.16 315.303 303.11C315.303 303.11 315.303 303.11 315.303 303.1C315.313 303.09 315.333 303.09 315.353 303.08C315.303 303.05 315.283 303.01 315.273 302.96C315.143 302.93 315.033 302.8 315.113 302.65Z" fill="#231F20"/>
<path d="M344.452 235.22C345.272 234.15 346.582 234.09 347.832 234.05C349.922 233.99 352.012 234.15 354.082 234.39C356.142 234.63 358.182 234.94 360.242 235.2C362.302 235.46 364.382 235.6 366.452 235.8C368.572 236 370.682 236.23 372.812 236.4C374.932 236.57 377.052 236.63 379.172 236.78C381.272 236.92 383.382 237.09 385.482 237.21C387.472 237.33 389.432 237.62 391.362 238.14C393.272 238.65 395.142 239.31 396.972 240.05C398.452 240.64 399.892 241.28 401.422 241.73C402.592 242.08 403.842 242.42 404.832 243.18C405.832 243.96 406.232 245.09 406.122 246.34C406.092 246.67 406.032 246.97 405.942 247.24C405.882 248.13 405.162 248.82 404.292 249.28C402.542 250.21 400.472 250.55 398.532 250.82C396.682 251.08 394.822 251.23 392.962 251.3C389.732 251.42 386.512 251.19 383.292 251.47C381.052 251.66 378.802 251.77 376.562 251.74C376.332 251.75 376.102 251.77 375.862 251.77C373.772 251.83 371.702 251.54 369.622 251.36C367.642 251.19 365.662 251.18 363.682 251.17C359.912 251.16 356.042 251.25 352.342 250.44C350.772 250.31 349.132 249.98 347.832 249.04C345.512 247.36 344.522 244.34 344.082 241.63C343.752 239.69 343.142 236.93 344.452 235.22Z" fill="#231F20"/>
<path d="M343.647 234.03C343.947 236.35 345.837 238.09 347.757 239.2C350.027 240.51 352.617 241.35 355.077 242.27C356.577 242.84 358.087 243.36 359.647 243.74C361.207 244.13 362.787 244.4 364.357 244.7C370.937 245.99 377.537 247.25 384.167 248.26C387.417 248.75 390.667 249.18 393.927 249.51C396.817 249.81 399.697 249.92 402.597 249.66C402.727 249.65 402.847 249.63 402.977 249.62C403.297 249.58 403.637 249.55 403.957 249.49H403.997C406.307 249.18 408.587 248.64 410.747 247.78C413.097 246.84 415.467 245.57 417.057 243.55C417.097 243.51 417.117 243.46 417.157 243.42C417.297 243.26 417.457 243.11 417.587 242.93C419.107 241.04 419.857 238.82 420.257 236.46C420.457 235.26 420.557 234 420.177 232.81C420.157 232.75 420.117 232.62 420.057 232.48C417.967 230.97 416.177 228.89 414.007 227.6C413.787 227.47 413.577 227.35 413.347 227.21C411.427 226.12 409.377 225.17 407.277 224.39C404.807 223.47 402.257 222.8 399.727 222.4C394.417 221.57 389.107 221.61 383.747 221.8C380.967 221.91 378.177 221.83 375.397 221.88C372.677 221.92 369.997 222.12 367.277 222.38C365.087 222.6 362.887 222.79 360.687 222.98C359.537 223.17 358.387 223.35 357.227 223.48C355.677 223.65 354.127 223.76 352.577 223.93C351.147 224.08 349.807 224.51 348.617 225.22C347.907 225.65 347.257 226.18 346.687 226.81C346.217 227.32 345.747 227.91 345.307 228.54V228.55C344.217 230.21 343.397 232.16 343.647 234.03Z" fill="#231F20"/>
<path d="M358.95 243.04C359.72 242.93 360.51 243.03 361.27 243.2C362.71 243.53 364.09 244.05 365.54 244.31C367.36 244.63 369.17 244.91 371 245.18C374.67 245.72 378.3 246.42 381.94 247.1C385.05 247.69 388.18 248.11 391.31 248.57C394.01 248.97 396.7 249.34 399.43 249.52C400.6 249.59 401.79 249.64 402.97 249.63C403.29 249.59 403.63 249.56 403.95 249.5H404C406.31 249.19 408.59 248.65 410.75 247.79C413.1 246.85 415.47 245.58 417.06 243.56C417.1 243.52 417.12 243.47 417.16 243.43C417.3 243.27 417.46 243.12 417.59 242.94C419.11 241.05 419.86 238.83 420.26 236.47C420.46 235.27 420.56 234.01 420.18 232.82C420.16 232.76 420.12 232.63 420.06 232.49C417.97 230.98 416.18 228.9 414.01 227.61C413.79 227.48 413.58 227.36 413.35 227.22C413.57 227.98 413.81 228.74 413.83 229.55C413.87 231.12 413.52 232.5 413.02 233.97C412.82 234.58 412.61 235.22 412.35 235.83C411.45 237.03 410.34 238.06 409.01 238.83C405.94 240.6 402.28 241.28 398.83 241.9C394.4 242.69 389.96 243.11 385.44 243.18C380.74 243.25 376.05 242.79 371.35 242.81C369.01 242.81 366.68 242.84 364.35 242.84C362.52 242.84 360.63 242.09 358.81 242.64C358.58 242.72 358.7 243.07 358.95 243.04Z" fill="#231F20"/>
<path d="M342.783 240.32C343.333 246.36 343.743 252.4 344.153 258.46C344.363 261.56 344.583 264.66 344.873 267.77C345.153 270.85 345.543 273.93 345.903 277.01C346.603 283.13 346.893 289.3 347.493 295.44C347.773 298.33 348.283 301.2 348.343 304.11C348.363 305.4 348.383 306.69 348.663 307.95C348.743 308.31 348.773 308.98 349.243 309.01C349.383 309.02 349.473 308.99 349.553 308.94C351.443 308.94 353.323 309.03 355.213 308.94C356.983 308.86 358.813 308.64 360.423 307.9C360.463 307.89 360.473 307.86 360.473 307.82C360.543 307.77 360.603 307.68 360.583 307.57C360.383 306.81 360.223 306.04 360.023 305.28C359.933 304.7 359.863 304.11 359.773 303.54C358.803 297.46 358.343 291.29 358.343 285.14C358.353 281.95 358.483 278.77 358.693 275.6V275.54C358.903 272.53 359.163 269.52 359.443 266.5C359.723 263.41 359.993 260.31 360.183 257.22C360.353 254.36 360.423 251.55 359.983 248.71C359.573 246.01 358.783 243.39 357.793 240.85C357.283 239.55 356.683 238.28 356.183 236.97C355.693 235.72 355.253 234.45 354.743 233.21C353.863 231.05 352.753 229.05 350.963 227.51C350.243 226.89 349.413 226.31 348.433 226.26C347.513 226.21 346.863 226.73 346.313 227.4C345.603 228.28 344.853 229.14 344.273 230.12C343.973 230.63 343.713 231.16 343.493 231.71C343.293 232.23 343.123 232.77 343.003 233.31C342.473 235.61 342.583 237.99 342.783 240.32Z" fill="#231F20"/>
<path d="M342.783 240.32C343.333 246.36 343.743 252.4 344.153 258.46C344.363 261.56 344.583 264.66 344.873 267.77C345.153 270.85 345.543 273.93 345.903 277.01C346.603 283.13 346.893 289.3 347.493 295.44C347.773 298.33 348.283 301.2 348.343 304.11C348.363 305.4 348.383 306.69 348.663 307.95C348.743 308.31 348.773 308.98 349.243 309.01C349.383 309.02 349.473 308.99 349.553 308.94C351.443 308.94 353.323 309.03 355.213 308.94C356.983 308.86 358.813 308.64 360.423 307.9C360.463 307.89 360.473 307.86 360.473 307.82C360.543 307.77 360.603 307.68 360.583 307.57C360.383 306.81 360.223 306.04 360.023 305.28C359.933 304.7 359.863 304.11 359.773 303.54C358.803 297.46 358.343 291.29 358.343 285.14C358.353 281.95 358.483 278.77 358.693 275.6V275.54C358.803 271.35 359.033 267.17 359.193 263C359.263 261.35 359.343 259.7 359.543 258.05C359.703 256.73 359.793 255.42 359.843 254.09C359.933 254.06 359.813 251.64 359.663 250.53C359.563 249.85 359.253 249.47 358.693 249.07C357.903 248.51 357.043 248.07 356.223 247.57C355.713 247.26 355.253 246.9 354.813 246.52C353.753 245.39 352.693 244.25 351.633 243.11C350.793 242.2 349.963 241.29 349.063 240.44C347.843 239.05 346.513 237.74 345.323 236.32C344.213 234.98 343.643 233.52 343.513 231.78C343.513 231.76 343.513 231.75 343.493 231.73C343.293 232.25 343.123 232.79 343.003 233.33C342.473 235.61 342.583 237.99 342.783 240.32Z" fill="#231F20"/>
<path d="M343.607 209.15C344.577 209.51 345.727 209.23 346.737 209.17C348.127 209.09 349.547 209.23 350.957 209.27C351.747 209.29 352.547 209.33 353.337 209.37C355.147 209.45 356.947 209.5 358.737 209.13C360.027 208.87 361.277 208.47 362.527 208.11C363.807 207.73 365.097 207.43 366.407 207.16C367.767 206.89 369.137 206.67 370.527 206.56C371.387 206.5 372.257 206.43 373.107 206.25C374.297 206.01 377.997 205.47 378.807 204.87C379.937 204.04 380.937 202.93 381.867 201.89C383.697 199.86 385.237 197.62 386.637 195.27C387.327 194.12 387.957 192.94 388.737 191.85C389.497 190.81 390.307 189.81 390.947 188.69C391.577 187.58 391.977 186.42 391.907 185.13C391.847 183.77 391.387 182.5 391.027 181.2C390.817 180.44 389.697 175.32 388.167 176.53C387.857 176.77 387.677 177.19 387.527 177.55C387.327 178.03 387.157 178.47 386.877 178.9C386.737 179.12 386.567 179.36 386.417 179.59C386.417 179.6 386.407 179.61 386.407 179.61C386.257 179.84 386.097 180.09 385.997 180.35C385.787 180.64 385.587 180.92 385.387 181.2C384.497 182.47 383.777 183.83 383.027 185.18C382.217 186.62 381.297 187.98 380.397 189.36C379.567 190.64 378.887 191.99 378.147 193.32C376.907 195.59 375.317 197.66 374.157 199.98C373.227 199.91 372.297 199.94 371.377 200.1C370.097 200.32 368.877 200.74 367.627 201.03C366.457 201.3 365.267 201.49 364.087 201.71C364.077 201.71 364.067 201.71 364.057 201.72C362.857 201.95 361.687 202.28 360.477 202.52C358.077 203.01 355.617 203.28 353.167 203.28C351.157 203.29 349.217 203.38 347.487 204.42C347.477 204.42 347.477 204.42 347.477 204.42C347.357 204.48 347.257 204.55 347.137 204.64C345.587 205.72 344.417 207.25 343.497 208.87C343.427 208.99 343.497 209.11 343.607 209.15Z" fill="#FC7980"/>
<path d="M364.07 201.72C364.08 201.77 364.11 201.84 364.15 201.89C364.56 202.54 365.68 202.47 366.33 202.46C368.93 202.37 371.53 201.98 374.13 202.13C375.24 202.19 376.19 202.72 377.12 201.91C377.87 201.25 378.32 200.32 378.76 199.45C379.87 197.18 381.12 194.97 382.1 192.63C383.2 190.03 383.93 187.34 384.73 184.65C385.13 183.29 385.57 181.94 386.02 180.6C386.12 180.31 386.3 179.97 386.42 179.62C386.27 179.85 386.11 180.1 386.01 180.36C385.8 180.65 385.6 180.93 385.4 181.21C384.51 182.48 383.79 183.84 383.04 185.19C382.23 186.63 381.31 187.99 380.41 189.37C379.58 190.65 378.9 192 378.16 193.33C376.92 195.6 375.33 197.67 374.17 199.99C373.24 199.92 372.31 199.95 371.39 200.11C370.11 200.33 368.89 200.75 367.64 201.04C366.47 201.31 365.28 201.5 364.1 201.72C364.08 201.71 364.08 201.71 364.07 201.72Z" fill="#FDAEA9"/>
<path d="M386.079 176.22C387.699 172.93 389.569 169.84 391.729 166.87C392.749 165.47 393.769 164.07 395.089 162.94C395.809 162.32 396.819 161.54 397.829 161.48C397.829 161.47 397.829 161.46 397.819 161.45C397.759 161.35 397.909 161.22 397.989 161.32C398.029 161.37 398.049 161.42 398.079 161.47H398.089C398.129 161.47 398.129 161.5 398.119 161.53C398.479 162.28 397.589 163.24 397.189 163.8C396.239 165.13 395.909 166.85 395.119 168.28C394.239 169.85 393.519 171.5 392.629 173.06C392.159 173.87 391.619 174.65 391.129 175.45C390.889 175.84 390.669 176.24 390.459 176.65C390.309 176.94 390.229 177.27 390.079 177.56C389.779 178.13 389.419 177.79 388.959 177.59C388.039 177.19 387.169 176.66 386.179 176.45C386.069 176.42 386.039 176.3 386.079 176.22Z" fill="#8365EF"/>
<path d="M343.603 209.15C344.573 209.51 345.723 209.23 346.733 209.17C348.123 209.09 349.543 209.23 350.953 209.27C351.743 209.29 352.543 209.33 353.333 209.37C353.333 209.23 353.333 209.08 353.343 208.94C353.363 208.34 353.443 207.74 353.583 207.15C353.713 206.56 353.883 205.95 354.123 205.38C354.363 204.81 354.833 204.43 355.123 203.91C355.163 203.91 355.193 203.91 355.233 203.9C355.273 203.89 355.263 203.82 355.213 203.82C355.203 203.82 355.193 203.81 355.183 203.81C355.193 203.8 355.203 203.78 355.213 203.77C355.243 203.71 355.053 203.75 355.023 203.79C354.463 203.71 349.073 203.96 347.943 204.28C347.793 204.33 347.633 204.37 347.493 204.41C347.483 204.41 347.483 204.41 347.483 204.41C347.363 204.47 347.263 204.54 347.143 204.63C345.593 205.71 344.423 207.24 343.503 208.86C343.423 208.99 343.493 209.11 343.603 209.15Z" fill="#FDAEA9"/>
<path d="M349.676 208.18C350.196 207.97 350.746 207.95 351.286 207.85C351.976 207.71 352.646 207.48 353.346 207.35C354.016 207.23 354.926 207.06 355.516 207.5C356.016 207.87 356.046 208.61 355.596 209.03C355.096 209.49 354.316 209.6 353.676 209.67C353.036 209.74 352.396 209.72 351.756 209.75C351.286 209.77 350.806 209.8 350.336 209.75C350.136 209.73 349.886 209.67 349.706 209.54C349.266 209.53 348.826 209.42 348.836 209C348.836 208.59 349.356 208.31 349.676 208.18Z" fill="#FC7980"/>
<path d="M383.107 221.43C383.027 221.38 383.037 221.27 383.117 221.21C383.097 221.17 383.087 221.15 383.107 221.1C383.697 219.27 383.837 217.35 384.217 215.47C384.617 213.44 385.177 211.44 385.687 209.43C386.207 207.36 386.747 205.3 387.247 203.24C387.737 201.28 388.417 199.39 389.007 197.48C389.307 196.54 389.527 195.57 389.797 194.62C389.897 194.26 390.017 193.88 390.147 193.51C389.937 193.11 389.787 192.66 389.657 192.24C389.297 191.06 388.897 189.95 388.427 188.81C387.337 186.19 386.327 183.21 386.487 180.33C386.637 177.61 388.247 175.24 389.557 172.94C390.997 170.42 392.137 167.74 393.747 165.32C394.977 163.46 396.717 161.14 399.087 160.9C399.097 160.84 399.137 160.77 399.227 160.77C400.067 160.75 400.907 160.76 401.747 160.79C402.957 160.83 404.177 160.9 405.377 160.92C407.347 160.95 409.317 161.02 411.277 161.23C412.577 161.37 413.897 161.56 415.187 161.81C415.697 161.91 416.207 162.01 416.717 162.12C417.427 162.28 418.117 162.52 418.807 162.74C419.627 162.75 420.527 163.11 421.247 163.42C421.287 163.44 421.297 163.46 421.327 163.47C421.467 163.5 421.617 163.54 421.757 163.57C421.797 163.58 422.397 164.39 422.527 165.01C422.807 166.24 422.767 167.56 422.767 168.82C422.757 170.14 422.807 171.45 422.817 172.78C422.867 178.23 421.367 183.66 419.887 188.86C419.407 190.52 418.867 192.19 418.237 193.81C418.247 194.84 418.277 195.86 418.367 196.89C418.587 199.66 418.827 202.42 418.947 205.2C419.077 208.09 419.197 210.97 419.407 213.85C419.627 216.76 419.897 219.68 420.057 222.59C420.137 224.19 420.207 225.78 420.247 227.37C420.287 228.93 420.327 230.49 420.207 232.05C420.217 232.1 420.227 232.17 420.227 232.22C420.227 232.35 420.207 232.48 420.167 232.6C420.147 232.64 420.097 232.63 420.097 232.59C420.077 232.6 420.057 232.61 420.047 232.59C419.307 231.71 418.237 231.3 417.327 230.64C416.327 229.92 415.407 229.07 414.387 228.38C412.257 226.97 409.817 226.08 407.467 225.13C405.857 224.48 404.277 223.85 402.647 223.32C402.627 223.31 402.597 223.31 402.577 223.3C401.617 223.06 400.667 222.77 399.697 222.55C398.577 222.3 397.447 222.19 396.307 222.13C394.137 222.02 391.937 222.03 389.767 222.1C387.577 222.17 385.397 222.33 383.207 222.18C383.067 222.17 382.957 222.07 382.957 221.93C382.937 221.7 383.007 221.55 383.107 221.43Z" fill="#A78BEF"/>
<path d="M384.217 215.47C384.297 215.09 384.377 214.71 384.467 214.33C392.007 214.77 399.547 215.22 407.087 215.66C400.167 212.69 392.237 214.05 384.767 213.08C385.067 211.86 385.387 210.65 385.697 209.43C385.717 209.34 385.747 209.25 385.767 209.16C387.037 208.97 388.327 208.9 389.607 208.86C394.287 208.73 398.967 208.79 403.637 209.05C405.807 209.17 407.997 209.33 410.147 209.02C410.577 208.96 411.017 208.87 411.387 208.64C411.757 208.41 412.027 208.06 412.287 207.72C414.307 205.07 416.327 202.43 418.337 199.78C417.917 200.33 418.157 202.56 418.117 203.28C417.737 209.85 417.287 216.32 415.337 222.66C415.247 222.95 415.147 223.25 414.917 223.44C414.487 223.8 413.837 223.61 413.317 223.41C411.537 222.72 409.737 222.09 407.957 221.4C407.127 221.08 406.177 220.47 405.317 220.31C404.077 220.07 404.457 220.33 404.387 221.58C404.377 221.81 404.317 222.09 404.097 222.17C403.957 222.22 403.807 222.17 403.667 222.12C400.737 221.07 397.697 220.53 394.607 220.24C391.347 219.93 388.067 220.12 384.797 220.28C384.317 220.3 383.807 220.32 383.367 220.17C383.737 218.64 383.897 217.04 384.217 215.47Z" fill="#8365EF"/>
<path d="M392.167 177.66C392.817 177.66 392.817 178.67 392.167 178.67C391.517 178.67 391.517 177.66 392.167 177.66Z" fill="white"/>
<path d="M393.237 177.23C393.247 177.19 393.267 177.16 393.297 177.14C393.307 177.13 393.327 177.12 393.337 177.11C393.367 177.09 393.407 177.08 393.447 177.08C393.477 177.08 393.507 177.09 393.527 177.1C393.557 177.11 393.577 177.12 393.597 177.14C393.617 177.16 393.637 177.18 393.637 177.21C393.647 177.24 393.657 177.26 393.657 177.29C393.657 177.31 393.647 177.33 393.647 177.35C393.637 177.39 393.617 177.42 393.587 177.44C393.577 177.45 393.557 177.46 393.547 177.47C393.517 177.49 393.477 177.5 393.437 177.5C393.407 177.5 393.377 177.49 393.357 177.48C393.327 177.47 393.307 177.46 393.287 177.44C393.267 177.42 393.247 177.4 393.247 177.37C393.237 177.34 393.227 177.32 393.227 177.29C393.237 177.27 393.237 177.25 393.237 177.23Z" fill="white"/>
<path d="M390.147 193.52V193.51C389.937 193.11 389.787 192.66 389.657 192.24C389.297 191.06 388.897 189.95 388.427 188.81C387.437 186.43 386.517 183.74 386.477 181.1C386.707 180.43 387.167 179.92 388.007 179.76C388.857 179.6 389.757 179.84 390.547 180.12C391.607 180.5 392.627 181.02 393.607 181.58C394.737 182.22 395.837 182.92 396.917 183.64C397.267 183.87 397.607 184.12 397.957 184.35C397.957 184.34 397.967 184.33 397.967 184.32C397.947 184.29 397.937 184.26 397.947 184.21C398.647 181.59 401.277 181.02 403.677 181.08C406.247 181.15 408.777 181.73 411.367 181.6C411.927 181.57 413.147 181.15 413.277 181.14C414.837 181 415.577 179.39 416.947 178.83C417.027 178.8 417.137 178.85 417.177 178.92C418.007 180.62 417.487 182.59 417.257 184.36C416.957 186.69 416.867 189.02 416.257 191.3C415.987 192.32 415.787 193.37 415.397 194.36C415.137 195.01 414.747 195.51 414.077 195.77C413.317 196.06 412.417 196.1 411.617 196.2C410.417 196.35 409.217 196.42 408.017 196.46C406.687 196.5 405.367 196.52 404.047 196.36C402.867 196.21 401.687 195.99 400.497 195.93C401.087 196.51 401.827 196.92 402.357 197.58C402.477 197.73 402.327 197.92 402.157 197.84C401.197 197.42 400.167 197.22 399.147 197C398.127 196.79 397.157 196.5 396.177 196.15C395.147 195.78 394.127 195.36 393.107 194.95C392.377 194.65 391.607 194.4 390.897 194.05C390.597 193.93 390.357 193.74 390.147 193.52Z" fill="#8365EF"/>
<path d="M398.327 161.32C398.357 161.22 398.407 161.13 398.447 161.04C398.657 160.98 398.877 160.92 399.097 160.9C399.107 160.84 399.147 160.77 399.237 160.77C400.077 160.75 400.917 160.76 401.757 160.79C402.967 160.83 404.187 160.9 405.387 160.92C405.707 160.92 406.037 160.93 406.357 160.94C406.707 161.67 406.737 162.56 406.087 163.08C405.937 163.25 405.747 163.39 405.577 163.49C405.257 163.7 404.907 163.8 404.547 163.87C404.007 164.1 403.367 164.12 402.787 164.11C402.057 164.1 401.307 164.08 400.587 163.94C399.407 163.7 397.947 162.74 398.327 161.32Z" fill="#731116"/>
<path d="M402.847 167.79C403.967 168.17 405.227 168.02 406.377 167.82C407.667 167.59 408.937 167.13 410.077 166.45C411.207 165.78 412.377 165.02 413.317 164.08C413.797 163.6 414.227 163.07 414.687 162.58C414.877 162.38 415.047 162.21 415.087 161.97C415.127 161.92 415.167 161.86 415.207 161.8C413.917 161.56 412.597 161.37 411.297 161.22C409.337 161 407.367 160.93 405.397 160.91C404.197 160.89 402.977 160.83 401.767 160.78C401.557 161.03 401.377 161.31 401.217 161.56C400.887 162.05 400.607 162.6 400.417 163.17C399.757 165.18 400.867 167.13 402.847 167.79Z" fill="#FDAEA9"/>
<path d="M402.806 164.11C402.076 164.1 401.326 164.08 400.606 163.94C400.496 163.92 400.376 163.88 400.266 163.85C400.296 163.63 400.346 163.4 400.416 163.17C400.606 162.6 400.886 162.06 401.216 161.56C401.376 161.31 401.556 161.03 401.766 160.78C402.976 160.82 404.196 160.89 405.396 160.91C405.716 160.91 406.046 160.92 406.366 160.93C406.716 161.66 406.746 162.55 406.096 163.07C405.946 163.24 405.756 163.38 405.586 163.48C405.266 163.69 404.916 163.79 404.556 163.86C404.016 164.1 403.376 164.12 402.806 164.11Z" fill="#FC7980"/>
<path d="M391.979 194.99C393.029 195.44 393.999 196.04 395.039 196.52C396.129 197.01 397.189 197.54 398.279 198.04C398.309 198.05 398.289 198.09 398.259 198.08C397.139 197.74 396.059 197.3 394.989 196.84C393.919 196.38 392.919 195.78 391.839 195.33C391.579 195.24 391.729 194.88 391.979 194.99Z" fill="#731116"/>
<path d="M402.086 168.61C403.226 169.22 404.746 168.94 405.956 168.81C407.366 168.66 408.706 168.37 409.906 167.58C409.936 167.56 409.956 167.6 409.936 167.62C409.006 168.75 407.316 168.94 405.956 169.09C405.156 169.18 404.396 169.28 403.586 169.23C403.066 169.19 402.336 169.18 401.946 168.79C401.856 168.69 401.976 168.54 402.086 168.61Z" fill="#731116"/>
<path d="M416.867 170.41C417.007 169 417.218 167.57 417.758 166.26C417.778 166.2 417.867 166.22 417.847 166.29C417.557 167.72 417.248 169.12 417.108 170.57C417.058 171.08 417.028 171.6 417.008 172.12C417.138 171.62 417.277 171.13 417.407 170.63C417.637 169.78 417.888 168.92 418.228 168.1C418.848 166.6 419.757 165.11 421.287 164.41C421.297 164.41 421.298 164.42 421.298 164.42C419.848 165.46 418.927 166.88 418.317 168.54C418.027 169.32 417.797 170.11 417.567 170.91C417.387 171.56 417.227 172.23 416.967 172.86C416.937 173.51 416.907 174.15 416.837 174.79C416.837 174.82 416.787 174.82 416.787 174.79C416.657 173.36 416.727 171.85 416.867 170.41Z" fill="#731116"/>
<path d="M404.241 162C404.251 162.64 404.151 163.34 404.251 163.98V163.99C404.291 164.24 404.421 164.39 404.661 164.49C405.131 164.68 405.711 164.71 406.211 164.74C407.411 164.82 408.641 164.66 409.781 164.29C410.801 163.96 413.061 163.07 413.251 161.8C413.271 161.79 413.291 161.77 413.291 161.75C413.281 161.71 413.271 161.69 413.261 161.66C413.271 161.46 413.221 161.26 413.131 161.05C412.911 160.16 412.711 159.26 412.551 158.36C412.421 157.72 412.311 157.08 412.221 156.44C412.211 156.38 412.111 156.34 412.061 156.38C410.861 157.19 409.561 157.86 408.221 158.4C406.911 158.93 405.571 159.27 404.191 159.6C404.151 159.57 404.061 159.6 404.071 159.67C404.131 160.45 404.241 161.21 404.241 162Z" fill="#FC7980"/>
<path d="M404.258 163.98C404.298 164.24 404.428 164.39 404.668 164.49C405.138 164.68 405.718 164.71 406.218 164.74C407.418 164.82 408.648 164.66 409.788 164.29C410.808 163.96 413.068 163.07 413.258 161.8C413.278 161.79 413.298 161.77 413.298 161.75C413.288 161.71 413.278 161.69 413.268 161.66C413.278 161.46 413.228 161.26 413.138 161.05C412.918 160.16 412.718 159.26 412.558 158.36C412.218 158.91 411.738 159.39 411.348 159.89C410.628 160.77 409.878 161.5 408.918 162.11C407.928 162.75 406.908 163.35 405.778 163.71C405.268 163.86 404.768 163.95 404.258 163.98Z" fill="#FDAEA9"/>
<path d="M410.802 131.87C410.802 131.91 410.842 131.91 410.862 131.9C410.842 132.59 410.892 133.2 411.192 133.88C411.412 134.36 411.682 134.81 411.992 135.24C412.192 135.55 412.412 135.83 412.632 136.12C413.122 136.75 413.642 137.35 414.192 137.93C414.642 138.41 415.082 138.86 415.702 139.11C417.552 139.87 420.082 138.99 421.272 137.44C422.782 135.46 422.832 132.41 421.552 130.32C421.422 130.11 421.292 129.93 421.152 129.74C421.432 129.96 421.702 130.2 421.942 130.47C422.162 130.73 422.352 131.03 422.592 131.28C422.602 131.28 422.612 131.28 422.612 131.27C422.572 130.53 421.982 129.79 421.502 129.28C421.202 128.98 420.892 128.71 420.552 128.47C420.182 128.21 419.792 127.97 419.402 127.72C419.202 127.59 419.002 127.5 418.782 127.41C418.712 127.38 418.622 127.36 418.552 127.33C418.532 127.31 418.382 127.21 418.352 127.2C417.972 127 417.512 126.89 417.092 126.82C416.872 126.79 416.682 126.77 416.492 126.76C416.852 126.65 417.192 126.57 417.582 126.54C417.892 126.52 418.282 126.43 418.602 126.48C418.672 126.49 418.662 126.37 418.602 126.39C418.212 126.49 417.682 126.23 417.302 126.16C416.922 126.09 416.542 126.04 416.162 126.06C415.492 126.08 414.742 126.23 414.152 126.56C413.602 126.87 413.102 127.2 412.652 127.63C412.532 127.74 412.402 127.85 412.292 127.97C412.242 128.03 412.232 128.1 412.182 128.16C412.172 128.16 412.142 128.19 412.102 128.21C411.892 128.39 411.692 128.73 411.572 128.97C411.492 129.14 411.392 129.32 411.322 129.51C410.902 130.23 410.692 131.04 410.802 131.87Z" fill="#231F20"/>
<path d="M401.192 131.94C402.192 133.86 404.172 135.12 405.682 136.6C407.452 138.33 409.242 139.92 410.542 142.05C411.852 144.19 412.552 146.45 412.692 148.95C412.762 150.07 412.832 151.21 412.972 152.32C413.022 152.74 413.082 153.23 413.332 153.59C413.552 153.9 413.902 153.97 414.202 154.15C414.312 154.22 414.422 154.11 414.392 154.01C414.992 153.7 415.392 152.88 415.702 152.34C416.272 151.35 416.742 150.33 417.122 149.26C417.992 146.81 418.292 144.09 417.872 141.52C417.162 137.26 414.502 133.54 410.732 131.44C410.452 131.29 410.162 131.14 409.882 131.03C409.122 130.72 408.362 130.51 407.542 130.33C406.332 130.06 405.112 129.84 403.872 129.74C403.062 129.67 401.842 129.5 401.202 130.16C401.102 130.27 401.032 130.38 400.982 130.5C400.802 130.95 400.972 131.5 401.192 131.94Z" fill="#231F20"/>
<path d="M413.261 137.21C414.081 137.52 414.951 137.69 415.751 138.04C416.311 138.28 416.771 138.63 417.201 139.04C417.341 139.42 417.471 139.81 417.581 140.21C417.481 140.68 417.311 141.12 417.131 141.57C416.921 142.1 416.741 142.64 416.451 143.13C415.981 143.94 415.541 144.94 414.781 145.52C414.281 145.9 413.831 145.78 413.621 145.19C413.501 144.86 413.471 144.52 413.391 144.18C413.261 143.55 413.081 142.92 412.921 142.3C412.741 141.58 412.631 140.85 412.431 140.13C412.241 139.42 411.981 138.73 411.861 138.01C411.631 137.86 411.541 137.53 411.581 137.26C411.721 136.49 412.861 137.06 413.261 137.21ZM414.081 134.71C414.541 134.95 414.961 135.25 415.371 135.56C415.721 136.04 416.041 136.55 416.331 137.07C415.481 136.39 414.521 135.87 413.511 135.44C412.761 135.12 411.971 134.84 411.151 134.77C410.791 134.74 410.251 134.72 410.151 134.28C409.841 132.77 413.651 134.48 414.081 134.71Z" fill="#231F20"/>
<path d="M414.087 140.69C414.257 141.53 414.657 142.28 414.987 143.06C415.067 143.26 415.167 143.53 415.277 143.77C415.457 143.88 415.647 143.95 415.887 143.87C416.117 143.79 416.297 143.61 416.527 143.55C416.607 143.53 416.687 143.6 416.657 143.68C416.617 143.78 416.567 143.87 416.517 143.97C416.387 144.41 416.117 144.77 415.847 145.13C415.717 145.3 415.597 145.48 415.447 145.64C415.267 145.82 415.057 145.97 414.877 146.13C414.837 146.17 414.787 146.16 414.747 146.14C414.747 146.15 414.747 146.16 414.747 146.17C414.747 146.18 414.737 146.18 414.737 146.17C414.737 146.16 414.737 146.14 414.737 146.13C414.697 146.1 414.687 146.04 414.727 145.99C414.657 145.09 414.477 144.21 414.317 143.31C414.237 142.88 414.197 142.44 414.127 142.01C414.057 141.57 413.947 141.14 413.947 140.7C413.927 140.63 414.067 140.61 414.087 140.69Z" fill="#310C03"/>
<path d="M400.984 130.48C401.004 130.79 401.074 131.13 401.194 131.46C401.634 132.73 402.784 133.63 403.784 134.45C405.134 135.56 406.474 136.69 407.754 137.88C409.094 139.11 410.384 140.4 411.634 141.71C412.214 142.32 412.804 142.93 413.354 143.57C413.944 144.26 414.224 144.9 414.424 145.77C414.464 145.94 414.724 145.87 414.684 145.7C414.634 145.46 414.574 145.24 414.514 145.03C414.504 143.27 414.274 141.51 413.904 139.79C413.514 137.97 413.144 136.09 412.214 134.47C411.544 133.29 410.834 132.01 409.884 131.02C409.124 130.71 408.364 130.5 407.544 130.32C406.334 130.05 405.114 129.83 403.874 129.73C403.064 129.66 401.844 129.49 401.204 130.15C401.114 130.24 401.044 130.36 400.984 130.48Z" fill="#231F20"/>
<path d="M394.764 140.91C394.834 139.78 394.924 138.65 395.084 137.53C395.154 137.03 395.234 136.54 395.324 136.04C395.374 135.76 395.454 135.47 395.524 135.19C395.584 135.24 395.654 135.27 395.734 135.28C395.864 136.07 396.084 136.81 396.384 137.55C396.674 138.26 397.124 138.89 397.394 139.61C397.674 140.35 397.444 140.96 397.304 141.71C397.114 142.76 396.994 143.82 396.974 144.89C396.934 146.9 397.214 148.93 397.354 150.93C397.504 152.97 397.764 154.98 398.144 156.99C398.494 158.81 398.914 160.66 399.824 162.29C399.874 162.34 399.924 162.4 399.974 162.45C400.004 162.48 399.994 162.52 399.964 162.54C399.974 162.56 399.984 162.58 400.004 162.61C400.014 162.62 399.994 162.63 399.984 162.62C399.974 162.6 399.954 162.57 399.944 162.55C399.924 162.55 399.914 162.55 399.894 162.54C399.294 162.04 398.884 161.4 398.514 160.72C398.084 159.91 397.664 159.09 397.234 158.28C396.324 156.55 395.694 154.76 395.284 152.85C394.874 150.96 394.694 149 394.574 147.07C394.464 145.02 394.634 142.95 394.764 140.91Z" fill="#310C03"/>
<path d="M395.902 140.57C396.422 138.9 397.702 137.44 399.032 136.34C400.542 135.09 402.582 134.51 404.532 134.69C406.512 134.87 408.162 136.07 409.712 137.23C410.622 137.92 411.342 138.7 411.962 139.66C412.612 140.67 413.272 141.71 413.852 142.77C414.402 143.77 414.502 144.94 414.582 146.06C414.652 147.05 414.682 148.1 414.552 149.1C414.552 149.59 414.542 150.09 414.542 150.58C414.522 152.3 414.282 153.92 413.312 155.37C412.452 156.66 411.262 157.7 410.092 158.7C408.942 159.68 407.972 160.98 406.532 161.54C406.492 161.55 406.472 161.54 406.452 161.51C405.362 162.03 403.432 161.01 402.552 160.58C401.392 160.01 400.312 159.27 399.322 158.44C398.692 157.92 398.002 157.26 397.542 156.52C396.952 155.77 396.612 154.9 396.562 153.83C396.502 152.64 396.542 151.44 396.462 150.24C396.382 148.97 396.112 147.72 395.892 146.46C395.552 144.54 395.302 142.48 395.902 140.57Z" fill="#FDAEA9"/>
<path d="M413.647 147.29C413.667 147.06 413.707 146.79 413.827 146.59C414.017 146.14 414.337 145.81 414.807 145.76C415.297 145.71 415.777 146 416.107 146.39C417.047 147.49 416.707 149.23 415.997 150.37C415.527 151.13 414.777 151.83 414.017 152.17C413.957 152.2 413.877 152.13 413.877 152.05C413.917 151.39 413.827 150.71 413.777 150.05C413.737 149.53 413.707 149.02 413.677 148.5C413.637 148.1 413.617 147.69 413.647 147.29Z" fill="#FDAEA9"/>
<path d="M396.272 132.89C397.872 130.41 401.092 129.47 403.902 129.94C405.452 130.2 406.812 130.93 407.982 131.9C408.292 132.09 408.592 132.29 408.862 132.52C409.492 133.06 410.052 133.71 410.542 134.38C411.572 135.77 412.382 137.39 413.052 138.98C413.722 140.57 414.162 142.21 414.432 143.91C414.562 144.75 414.682 145.59 414.712 146.44C414.732 146.94 414.702 147.44 414.662 147.95C414.672 148.21 414.672 148.47 414.682 148.73C414.692 150.61 414.702 152.5 414.502 154.37C414.142 157.82 413.312 161.73 410.752 164.27C410.722 164.3 410.682 164.26 410.702 164.23C410.702 164.24 410.692 164.25 410.692 164.26C410.682 164.28 410.642 164.27 410.652 164.24C411.652 161.01 412.302 157.78 412.442 154.39C412.502 152.73 412.532 151.04 412.342 149.39C412.202 148.2 411.952 147.02 411.752 145.84C411.292 145.91 410.752 145.83 410.362 145.81C409.292 145.75 408.252 145.67 407.212 145.4C406.162 145.13 405.112 144.79 404.172 144.24C403.472 143.83 402.812 143.34 402.182 142.83C402.642 143.5 403.262 144.08 403.932 144.54C404.442 144.89 404.992 145.18 405.572 145.41C405.832 145.52 406.102 145.61 406.372 145.69C406.652 145.77 406.952 145.81 407.222 145.91C407.282 145.94 407.272 146.02 407.202 146.03C407.082 146.04 406.952 146.02 406.832 146C405.422 146.3 403.772 145.59 402.512 145.07C400.802 144.37 399.192 143.32 397.802 142.1C396.532 140.98 395.662 139.59 395.392 137.9C395.102 136.19 395.322 134.35 396.272 132.89Z" fill="#231F20"/>
<path d="M400.473 138.58C400.773 139.04 401.043 139.5 401.413 139.91C401.783 140.33 402.193 140.71 402.613 141.07C403.083 141.48 403.573 141.88 404.103 142.22C404.523 142.49 404.933 142.89 405.423 143.03C405.443 143.04 405.433 143.07 405.413 143.06C404.923 142.96 404.503 142.61 404.073 142.36C403.513 142.03 402.993 141.66 402.503 141.23C402.053 140.84 401.613 140.43 401.213 139.99C400.863 139.6 400.473 139.15 400.333 138.63C400.303 138.55 400.423 138.5 400.473 138.58Z" fill="white"/>
<path d="M402.262 138.98C402.292 139.02 402.331 139.06 402.361 139.11C402.391 139.16 402.422 139.21 402.452 139.25C402.522 139.35 402.591 139.44 402.661 139.54C402.801 139.73 402.961 139.9 403.161 140.03C403.191 140.05 403.162 140.1 403.132 140.08C402.922 139.97 402.741 139.8 402.581 139.62C402.501 139.53 402.422 139.43 402.352 139.32C402.322 139.27 402.292 139.22 402.262 139.18C402.232 139.13 402.211 139.07 402.191 139.02C402.171 138.98 402.232 138.94 402.262 138.98Z" fill="white"/>
<path d="M397.143 134.36C397.213 134.2 397.283 134.04 397.363 133.88C397.523 133.55 397.743 133.27 398.003 133.01C398.483 132.53 398.953 131.99 399.613 131.76C399.643 131.75 399.653 131.79 399.633 131.8C399.013 132.08 398.573 132.64 398.133 133.13C397.903 133.39 397.713 133.68 397.563 133.99C397.493 134.13 397.423 134.28 397.363 134.42C397.293 134.58 397.233 134.74 397.113 134.87C397.073 134.91 396.983 134.88 396.993 134.82C397.003 134.66 397.073 134.52 397.143 134.36Z" fill="white"/>
<path d="M412.278 129.19C412.318 129.1 412.368 129.02 412.418 128.95C412.538 128.78 412.688 128.62 412.848 128.48C413.158 128.21 413.508 127.97 413.878 127.8C413.908 127.79 413.928 127.83 413.898 127.84C413.548 128.02 413.228 128.27 412.948 128.54C412.798 128.68 412.658 128.83 412.538 129C412.488 129.07 412.438 129.15 412.408 129.23C412.388 129.27 412.378 129.31 412.368 129.34C412.348 129.38 412.328 129.41 412.308 129.45C412.298 129.48 412.248 129.47 412.248 129.44C412.238 129.35 412.238 129.28 412.278 129.19Z" fill="white"/>
<path d="M405.278 138.73C405.528 138.73 405.528 139.12 405.278 139.12C405.038 139.11 405.028 138.73 405.278 138.73Z" fill="white"/>
<path d="M404.416 159.48C404.426 159.47 404.436 159.45 404.446 159.45C404.456 159.44 404.466 159.45 404.476 159.45C404.486 159.45 404.496 159.45 404.506 159.44C404.506 159.44 404.506 159.44 404.516 159.44C404.526 159.44 404.536 159.44 404.546 159.44C404.546 159.44 404.556 159.44 404.556 159.43C404.576 159.43 404.586 159.42 404.606 159.43C404.626 159.43 404.636 159.44 404.646 159.44C404.676 159.45 404.696 159.49 404.706 159.52C404.716 159.57 404.696 159.63 404.646 159.66C404.616 159.67 404.596 159.68 404.566 159.68H404.556H404.546C404.536 159.68 404.536 159.68 404.526 159.68C404.526 159.68 404.526 159.68 404.516 159.68C404.506 159.68 404.506 159.68 404.496 159.68C404.476 159.68 404.466 159.67 404.456 159.65V159.64C404.446 159.63 404.436 159.62 404.436 159.62C404.426 159.61 404.426 159.61 404.416 159.6C404.406 159.59 404.406 159.58 404.406 159.56C404.406 159.52 404.406 159.49 404.416 159.48Z" fill="white"/>
<path d="M277.763 177.41C277.703 177.12 277.853 176.77 278.243 176.77C283.093 176.79 287.943 176.73 292.793 176.59C295.373 176.51 297.973 176.36 300.563 176.5C303.103 176.64 305.643 176.83 308.193 176.88C308.563 176.89 308.943 176.9 309.313 176.91C310.123 176.74 311.053 176.9 311.833 176.94C312.953 177 314.353 176.56 315.383 177.17C315.493 177.23 315.583 177.31 315.673 177.39C316.453 178.07 316.663 179.25 317.203 180.1C317.633 180.78 318.123 181.41 318.553 182.08C318.993 182.77 319.313 183.51 319.693 184.23C320.463 185.71 321.323 187.14 322.153 188.59C322.953 189.98 323.673 191.42 324.453 192.82C326.073 195.75 327.873 198.55 329.353 201.55C329.733 202.32 330.113 203.1 330.533 203.85C330.913 204.54 331.363 205.2 331.723 205.9C332.023 206.46 332.263 207.06 332.543 207.63C332.753 208.08 332.973 208.61 333.313 208.99C333.393 208.96 333.483 208.94 333.573 208.92C333.583 208.92 333.593 208.92 333.603 208.93C333.713 209.08 333.663 209.2 333.533 209.31C333.523 209.42 333.393 209.52 333.273 209.46C332.913 209.62 332.413 209.7 332.293 209.72C331.193 209.84 330.033 209.78 328.943 209.63C327.623 209.45 326.333 209.53 325.003 209.54C324.433 209.55 323.843 209.54 323.273 209.53C322.963 209.52 322.453 209.63 322.103 209.52C321.543 209.52 320.973 209.54 320.413 209.56C318.643 209.65 316.903 209.68 315.133 209.57C312.643 209.41 310.183 209.39 307.693 209.5C305.553 209.59 303.403 209.72 301.263 209.67C300.443 209.65 299.623 209.63 298.803 209.63C298.063 209.64 297.353 209.69 296.703 209.72C296.393 209.74 296.173 209.55 296.053 209.31C295.073 208.63 294.413 207.08 293.973 206.23C293.653 205.61 293.353 204.95 292.973 204.37C292.243 203.27 291.493 202.19 290.833 201.05C289.393 198.57 288.233 195.94 286.833 193.43C285.453 190.95 283.983 188.52 282.543 186.08C281.763 184.76 281.003 183.42 280.253 182.08C279.903 181.45 279.543 180.83 279.153 180.22C278.763 179.59 278.383 178.89 277.913 178.33C277.623 178.01 277.623 177.67 277.763 177.41Z" fill="#E527BB"/>
<path d="M316.19 177.34C316.58 177.84 317 178.31 317.35 178.84C317.71 179.39 318.04 179.95 318.37 180.51C319.02 181.64 319.65 182.78 320.3 183.91C321.69 186.3 323.14 188.66 324.51 191.06C325.92 193.51 327.14 196.04 328.45 198.55C329.07 199.73 329.74 200.88 330.46 202C330.95 202.76 331.5 203.47 331.92 204.28C332.36 205.11 332.76 205.96 333.24 206.76C333.47 207.14 333.72 207.49 333.99 207.84C334.04 207.91 334.11 207.99 334.17 208.07C334.58 208.01 335.01 207.99 335.39 207.97C336.19 207.94 336.99 207.96 337.78 207.98C339.94 208.02 342.08 207.92 344.24 207.82C346.92 207.69 349.56 207.68 352.23 207.9C354.1 208.05 355.91 208 357.78 207.94C358.54 207.92 359.59 207.77 360.29 208.1C360.6 208.25 360.96 208.45 360.97 208.84C360.97 209.04 360.9 209.22 360.7 209.3C361.13 209.15 360.33 209.45 360.38 209.44C360.08 209.5 359.81 209.55 359.5 209.53C358.8 209.51 358.1 209.54 357.4 209.57C355.63 209.66 353.89 209.69 352.12 209.58C349.63 209.42 347.17 209.4 344.68 209.51C342.54 209.6 340.39 209.73 338.25 209.68C337.43 209.66 336.61 209.64 335.79 209.64C335.05 209.65 334.34 209.7 333.69 209.73C333.38 209.75 333.16 209.56 333.04 209.32C332.06 208.64 331.4 207.09 330.96 206.24C330.64 205.62 330.34 204.96 329.96 204.38C329.23 203.28 328.48 202.2 327.82 201.06C326.38 198.58 325.22 195.95 323.82 193.44C322.44 190.96 320.97 188.53 319.53 186.09C318.75 184.77 317.99 183.43 317.24 182.09C316.89 181.46 316.53 180.84 316.14 180.23C315.75 179.6 315.37 178.9 314.9 178.34C314.14 177.43 315.46 176.39 316.19 177.34Z" fill="#C424A1"/>
<path d="M298.46 189.68C299.34 188.4 301.01 188.77 302.07 189.59C303.07 190.37 303.86 191.5 304.41 192.67C304.92 193.42 305.34 194.28 305.37 195.18C305.4 196.08 304.95 196.92 304.1 197.25C303.38 197.53 302.51 197.38 301.88 196.96C300.68 196.17 299.73 194.87 299.03 193.64C298.4 192.54 297.64 190.87 298.46 189.68Z" fill="#A78BEF"/>
<path d="M362.24 199.79C363.3 199.84 364.39 199.97 365.43 200.17C365.86 200.25 366.26 200.43 366.65 200.62C367.03 200.81 367.42 201 367.8 201.21C367.84 201.21 367.86 201.22 367.88 201.25C367.9 201.26 367.92 201.27 367.93 201.28C367.97 201.3 367.94 201.36 367.9 201.35H367.89C367.89 201.36 367.89 201.36 367.89 201.37C367.81 201.56 367.59 201.59 367.41 201.62C367.11 201.67 366.8 201.68 366.49 201.68C365.92 201.68 365.36 201.64 364.79 201.64C364.16 201.64 363.47 201.7 362.88 201.45C362.25 201.19 362.06 200.58 362.08 199.94C362.09 199.86 362.16 199.78 362.24 199.79Z" fill="#FC7980"/>
<path d="M417.751 184.22C418.081 183.46 418.951 183.2 419.701 183.12C420.711 183.01 421.801 183.06 422.811 183.13C424.021 183.21 425.271 183.51 426.311 184.16C426.731 184.42 427.131 184.76 427.371 185.21C427.591 185.63 427.621 186.1 427.621 186.57C427.641 186.64 427.641 186.7 427.621 186.75C427.621 186.77 427.621 186.79 427.621 186.81C427.621 186.94 427.511 187 427.411 187C426.941 187.32 425.851 187.42 425.551 187.44C423.741 187.55 421.741 187.73 420.041 186.98C419.121 186.56 417.181 185.52 417.751 184.22Z" fill="#8365EF"/>
<path d="M355.06 205.31C354.98 206.42 355.91 207.49 356.62 208.23C357.49 209.14 358.38 209.85 359.69 209.97C359.78 209.98 359.87 209.98 359.96 209.98C359.96 209.98 359.97 209.98 359.98 209.98C360.62 210.01 361.26 209.95 361.9 209.94C362.83 209.91 363.75 209.9 364.69 209.79C366.6 209.58 368.48 209.21 370.4 209.1C372.31 208.97 374.21 209.03 376.11 209.22C376.75 209.43 377.46 209.49 378.08 209.58C379.83 209.85 381.59 210.1 383.36 210.25C387.23 210.57 391.11 210.59 394.99 210.58C398.95 210.57 402.88 211.09 406.82 211.08C407.6 211.08 408.4 211.12 409.14 210.93C409.82 211.07 410.53 211.06 411.19 210.85C411.41 210.78 411.62 210.69 411.82 210.56C412.17 210.37 412.49 210.1 412.74 209.76C413.23 209.09 413.73 208.38 414.18 207.68C416.35 204.32 417.96 200.63 419.38 196.91C420.12 194.96 420.83 192.99 421.74 191.11C422.16 190.25 422.62 189.4 423 188.52C423.15 188.17 423.29 187.81 423.4 187.45C423.58 186.93 423.73 186.39 423.88 185.86C424.17 184.82 424.46 183.77 424.73 182.73C425.23 180.85 425.67 178.95 425.93 177.04C426.57 172.43 426.42 166.18 421.59 163.84C421.56 163.82 421.54 163.84 421.51 163.85C421.47 163.84 421.42 163.84 421.38 163.87C421.37 163.88 421.36 163.89 421.35 163.89C420.86 164.04 420.46 165.02 420.3 165.4C419.64 167 419.03 168.6 418.48 170.25C418.07 171.49 417.69 172.75 417.3 173.99C416.95 174.94 416.59 175.89 416.25 176.84C415.53 178.8 414.82 180.77 414.12 182.73C413.95 183.2 413.79 183.66 413.63 184.11C413.07 185.67 412.52 187.25 411.98 188.82C411.31 190.8 410.63 192.78 409.97 194.75C409.29 196.76 408.72 198.81 407.99 200.8C407.77 201.39 407.48 202.07 407.18 202.78C406.66 202.7 406.14 202.68 405.62 202.7C405.39 202.7 405.16 202.73 404.93 202.74C404.6 202.72 404.26 202.71 403.94 202.73C401.59 202.85 399.31 203.49 396.97 203.73C394.61 203.97 392.24 204.26 389.87 204.44C387.48 204.62 385.11 204.63 382.72 204.55C380.34 204.46 377.95 204.51 375.58 204.53C375.27 204.44 374.38 204.39 374.13 204.24C373.78 204.05 373.4 203.91 373.02 203.77C372.08 203.42 371.22 203 370.38 202.47C369.61 201.98 368.84 201.46 368.01 201.11C367.22 200.78 366.38 200.64 365.54 200.62C363.89 200.57 362.2 200.79 360.57 201C359.21 201.17 358.12 201.67 357.06 202.52C356.22 203.17 355.14 204.16 355.06 205.31Z" fill="#FDAEA9"/>
<path d="M413.617 184.09C415.477 184.3 417.317 184.38 419.117 184.95C420.627 185.44 422.327 186.16 423.377 187.43C423.557 186.91 423.707 186.37 423.857 185.84C424.147 184.8 424.437 183.75 424.707 182.71C424.657 182.64 424.587 182.57 424.517 182.49C423.347 181.3 421.267 181.37 419.747 181.56C418.387 181.74 417.027 182.03 415.677 182.27C415.187 182.36 414.607 182.47 414.107 182.69C413.947 183.18 413.787 183.63 413.617 184.09Z" fill="#FC7980"/>
<path d="M415.183 178.84C415.723 177.13 416.333 175.44 416.893 173.74C417.453 172.04 417.833 170.26 418.523 168.6C419.053 167.33 419.653 165.97 420.413 164.81C420.593 164.53 420.803 164.3 421.023 164.13C421.233 163.89 421.483 163.7 421.803 163.67C422.553 163.59 423.343 164.14 423.893 164.59C425.253 165.69 426.173 167.4 426.823 168.99C427.543 170.74 427.943 172.6 428.263 174.46C428.623 176.52 428.873 178.54 428.813 180.64C428.783 181.83 428.663 182.98 428.453 184.16C428.283 185.1 428.243 186.11 427.603 186.86C427.553 186.92 427.453 186.86 427.463 186.79C427.413 186.77 427.373 186.74 427.363 186.67C427.253 185.85 426.053 185.4 425.383 185.14C424.193 184.69 422.933 184.39 421.683 184.18C419.023 183.74 416.273 183.71 413.593 184.01C413.503 184.02 413.453 183.92 413.473 183.85C413.863 182.13 414.653 180.52 415.183 178.84Z" fill="#A78BEF"/>
<path d="M356.809 207.95C357.729 208.84 358.759 209.54 359.959 209.97C359.959 209.97 359.969 209.97 359.979 209.97C360.619 210 361.259 209.94 361.899 209.93C362.829 209.9 363.749 209.89 364.689 209.78C366.599 209.57 368.479 209.2 370.399 209.09C372.309 208.96 374.209 209.02 376.109 209.21C376.749 209.42 377.459 209.48 378.079 209.57C379.829 209.84 381.589 210.09 383.359 210.24C387.229 210.56 391.109 210.58 394.989 210.57C398.949 210.56 402.879 211.08 406.819 211.07C407.599 211.07 408.399 211.11 409.139 210.92C409.819 211.06 410.529 211.05 411.189 210.84C411.409 210.77 411.619 210.68 411.819 210.55C411.199 209.22 409.039 209.08 407.769 208.99C402.209 208.61 396.679 209.09 391.139 209.19C388.749 209.23 386.359 209.29 383.969 209.23C383.209 209.08 382.439 209.01 381.669 208.92C380.199 208.77 378.749 208.59 377.289 208.39C376.829 208.33 376.319 208.26 375.789 208.22C373.119 207.02 369.999 206.97 367.129 207.14C365.499 207.24 363.879 207.42 362.249 207.53C360.479 207.66 358.709 207.6 356.939 207.69C356.779 207.69 356.699 207.86 356.809 207.95Z" fill="#FC7980"/>
<path d="M355.271 205.12C355.471 205.03 355.651 204.93 355.861 204.88C356.091 204.83 356.341 204.81 356.581 204.8C357.031 204.78 357.491 204.77 357.931 204.77C358.381 204.77 358.831 204.81 359.281 204.81C359.731 204.82 360.221 204.81 360.671 204.9C360.821 204.93 360.801 205.14 360.671 205.18C360.241 205.33 359.741 205.38 359.281 205.43C358.831 205.49 358.381 205.55 357.931 205.58C357.481 205.61 357.021 205.62 356.581 205.61C356.341 205.6 356.091 205.59 355.861 205.54C355.651 205.49 355.471 205.39 355.271 205.3C355.201 205.28 355.201 205.16 355.271 205.12Z" fill="#FC7980"/>
<path d="M384.766 205.51C385.026 205.19 385.856 205.29 386.216 205.28C386.926 205.26 387.626 205.21 388.326 205.16C390.146 205.02 391.976 205.13 393.786 204.86C393.806 204.86 393.816 204.88 393.796 204.89C392.126 205.27 390.426 205.24 388.736 205.37C387.996 205.43 387.256 205.52 386.516 205.54C386.216 205.55 385.906 205.54 385.606 205.56C385.356 205.58 385.086 205.67 384.836 205.65C384.746 205.64 384.716 205.57 384.766 205.51Z" fill="white"/>
<path d="M413.653 191.94C413.653 191.93 413.653 191.93 413.653 191.92C413.663 191.88 413.683 191.84 413.703 191.8C413.733 191.75 413.763 191.72 413.813 191.69C413.853 191.67 413.883 191.66 413.933 191.65C413.973 191.64 414.013 191.64 414.053 191.66C414.073 191.67 414.093 191.68 414.103 191.69C414.113 191.7 414.123 191.7 414.143 191.71C414.163 191.72 414.173 191.72 414.193 191.73C414.213 191.74 414.213 191.75 414.233 191.76C414.253 191.76 414.263 191.76 414.283 191.77C414.323 191.78 414.363 191.81 414.393 191.84C414.413 191.86 414.433 191.89 414.443 191.91C414.463 191.95 414.483 191.99 414.483 192.04C414.493 192.07 414.493 192.1 414.483 192.13C414.483 192.18 414.463 192.22 414.443 192.26C414.423 192.28 414.403 192.31 414.393 192.33C414.353 192.37 414.303 192.4 414.243 192.42C414.233 192.42 414.233 192.42 414.223 192.42C414.183 192.43 414.153 192.43 414.113 192.43C414.103 192.43 414.093 192.43 414.073 192.43C414.033 192.43 413.993 192.42 413.953 192.41H413.943C413.933 192.41 413.933 192.4 413.923 192.4C413.903 192.39 413.883 192.4 413.863 192.39C413.813 192.37 413.773 192.35 413.743 192.31C413.723 192.28 413.703 192.26 413.683 192.23C413.653 192.17 413.633 192.11 413.633 192.04C413.633 192.01 413.653 191.95 413.653 191.94Z" fill="white"/>
<path d="M418.991 236.75C417.981 230.05 416.841 223.52 416.181 217.19C416.161 217 416.471 217 416.511 217.19C416.511 217.21 416.521 217.23 416.521 217.26C416.651 217.13 416.951 217.11 417.141 217.09C417.401 217.07 417.661 217.07 417.921 217.07C418.371 217.07 418.821 217.1 419.271 217.14C419.261 217.07 419.251 216.99 419.241 216.92C419.221 216.73 419.531 216.73 419.571 216.92C419.591 217.01 419.611 217.11 419.621 217.2C419.641 217.23 419.651 217.26 419.641 217.28C420.771 222.81 421.601 228.5 422.501 234.31C423.431 240.34 424.451 246.52 425.471 252.86C427.611 266.14 429.841 280.17 432.151 294.99C433.511 303.7 434.941 312.71 436.211 322.02C436.231 322.17 436.031 322.17 436.001 322.03C435.941 322.14 435.821 322.22 435.701 322.28C435.371 322.44 435.011 322.53 434.631 322.58C433.881 322.68 433.101 322.68 432.341 322.75C432.091 322.77 431.971 322.43 432.081 322.25C432.121 322.19 432.141 322.11 432.161 322.04C430.741 313.84 429.581 305.87 428.331 298.13C427.111 290.56 426.041 283.21 424.941 276.05C422.831 262.23 420.851 249.16 418.991 236.75Z" fill="#D68B6E"/>
<path d="M369.471 237.07C370.741 228.88 371.831 220.66 373.421 212.47C373.461 212.26 373.711 212.24 373.761 212.39C373.771 212.39 373.781 212.39 373.791 212.39C374.651 212.44 375.531 212.35 376.401 212.34C377.241 212.33 378.131 212.26 378.961 212.34C379.061 212.35 379.131 212.46 379.051 212.56C379.001 212.62 378.971 212.69 378.951 212.75C379.041 212.75 379.131 212.8 379.111 212.93C378.301 220.16 377.081 227.43 375.941 234.67C374.811 241.83 373.741 249 372.661 256.16C370.471 270.58 368.241 285 365.981 299.41C364.711 307.52 363.461 315.63 362.021 323.74C362.011 323.79 361.981 323.81 361.951 323.82C361.931 323.88 361.901 323.93 361.821 323.96C361.671 324.01 361.531 324.03 361.381 324.05C361.351 324.06 361.321 324.07 361.281 324.08C360.931 324.19 360.571 324.26 360.221 324.33C359.361 324.49 358.491 324.63 357.631 324.72C357.471 324.74 357.311 324.75 357.161 324.76C357.051 324.77 356.911 324.78 356.791 324.75C356.681 324.77 356.561 324.78 356.451 324.77C356.391 324.77 356.361 324.73 356.341 324.69C356.311 324.68 356.281 324.65 356.291 324.6C357.241 317.26 358.421 309.92 359.471 302.59C360.511 295.33 361.671 288.07 362.771 280.81C364.971 266.24 367.211 251.66 369.471 237.07Z" fill="#D68B6E"/>
<path d="M253.781 214.92C253.831 215.47 253.831 216.03 253.881 216.57C253.881 216.64 253.931 216.69 254.011 216.71C254.031 216.74 254.051 216.76 254.111 216.76C257.541 216.98 261.011 216.93 264.451 216.97C267.781 217.02 271.101 217.04 274.431 217.04C281.211 217.05 287.991 217.07 294.771 217.06C317.101 217.03 339.451 217.04 361.781 217.07C363.661 217.06 365.531 217.07 367.411 217.07C379.551 217.08 391.681 217.07 403.811 217.03C409.871 217.01 415.941 217 422.011 216.99C427.351 216.97 432.771 217.16 438.111 216.82C438.391 216.86 438.671 216.88 438.961 216.89C439.221 216.9 439.471 216.9 439.691 216.88C439.821 216.87 439.951 216.87 440.081 216.86C440.181 216.86 440.241 216.81 440.251 216.73C440.401 214.51 440.421 212.31 440.311 210.09C440.301 209.99 440.201 209.91 440.081 209.91C439.881 209.9 439.681 209.91 439.491 209.92C436.281 209.67 433.051 209.68 429.821 209.67C426.481 209.66 423.141 209.65 419.791 209.64C412.981 209.63 406.171 209.61 399.361 209.59C386.841 209.55 374.321 209.55 361.801 209.55C350.081 209.55 338.371 209.56 326.661 209.56C314.551 209.55 302.451 209.59 290.341 209.57C284.311 209.56 278.261 209.55 272.231 209.6C266.211 209.64 260.131 209.5 254.131 209.87C254.061 209.88 254.021 209.92 254.011 209.97C253.991 209.98 253.971 210 253.971 210.01C253.961 210.05 253.961 210.08 253.961 210.11C253.891 210.14 253.821 210.19 253.821 210.25C253.811 210.76 253.921 211.27 253.891 211.79C253.861 212.28 253.801 212.79 253.761 213.28C253.711 213.85 253.741 214.39 253.781 214.92Z" fill="#F7CAB9"/>
<path d="M361.773 209.59V217.08C363.653 217.07 365.523 217.08 367.403 217.08C379.543 217.09 391.673 217.08 403.803 217.04C409.863 217.02 415.933 217.01 422.003 217C427.343 216.98 432.763 217.17 438.103 216.83C438.383 216.87 438.663 216.89 438.953 216.9C439.213 216.91 439.463 216.91 439.683 216.89C439.813 216.88 439.943 216.88 440.073 216.87C440.173 216.87 440.233 216.82 440.243 216.74C440.393 214.52 440.413 212.32 440.303 210.1C440.293 210 440.193 209.92 440.073 209.92C439.873 209.91 439.673 209.92 439.483 209.93C436.273 209.68 433.043 209.69 429.813 209.68C426.473 209.67 423.133 209.66 419.783 209.65C412.973 209.64 406.163 209.62 399.353 209.6C386.813 209.59 374.303 209.58 361.773 209.59Z" fill="#F2AC8F"/>
<path d="M141.815 260.5C141.815 260.5 144.443 256.867 146.784 258.36C149.115 259.845 145.334 263.643 145.334 263.643C145.334 263.643 146.845 264.211 146.548 265.94C146.251 267.677 142.182 270.541 142.182 270.541C142.182 270.541 143.736 271.502 143.256 273.65C142.775 275.807 137.929 278.593 137.929 278.593C137.929 278.593 142.321 283.159 133.921 292.555H123.032C123.032 292.555 122.674 281.186 124.351 277.484C126.027 273.772 128.865 275.274 128.865 275.274C128.865 275.274 128.97 268.332 130.725 266.857C133.153 264.822 134.82 267.118 134.82 267.118C134.82 267.118 135.633 261.006 137.885 259.565C140.034 258.212 141.815 260.5 141.815 260.5Z" fill="#39B039"/>
<path d="M145.293 259.426C145.293 259.426 133.12 271.154 127.898 292.268" stroke="#1B1C3B" stroke-width="0.5264" stroke-miterlimit="10"/>
<path d="M112.147 257.509C115.997 255.492 118.189 259.937 117.831 262.696C121.184 261.5 123.219 266.643 121.839 269.751C126.624 268.136 126.808 275.314 126.144 277.348C131.287 277.89 133.505 283.81 132.003 292.717H118.015C118.015 292.717 111.614 285.242 116.521 281.173C112.33 279.916 111.081 274.414 114.129 273.218C111.317 271.725 109.405 267.114 112.295 265.901C109.78 264.311 108.793 259.273 112.147 257.509Z" fill="#22A622"/>
<path d="M112.562 258.064C112.562 258.064 123.207 275.537 125.844 298.546" stroke="#1B1C3B" stroke-width="0.5264" stroke-miterlimit="10"/>
<path d="M111.906 290.382L114.089 322.271C114.142 323.005 119.503 323.59 126.07 323.59C132.636 323.59 138.007 323.005 138.05 322.271L140.233 290.382H111.906Z" fill="#E74E1B"/>
<path d="M113.742 293.901H138.419" stroke="#1B1C3B" stroke-width="1.0597" stroke-miterlimit="10"/>
<path d="M113.742 295.822H138.419" stroke="#1B1C3B" stroke-width="1.0597" stroke-miterlimit="10"/>
<path d="M139.876 295.822C139.605 299.786 134.305 319.39 121.547 323.485C122.944 323.546 124.472 323.581 126.079 323.581C132.645 323.581 138.016 322.996 138.059 322.263L139.876 295.822Z" fill="#D33D16"/>
</g>
</g>
<defs>
<clipPath id="clip0_1915_6534">
<rect width="542.64" height="328.79" fill="white"/>
</clipPath>
<clipPath id="clip1_1915_6534">
<rect width="338.36" height="276.54" fill="white" transform="translate(102 52)"/>
</clipPath>
</defs>
</svg>
