<svg width="557" height="339" viewBox="0 0 557 339" fill="none" xmlns="http://www.w3.org/2000/svg">
<g clip-path="url(#clip0_1632_3814)">
<path opacity="0.2" d="M85.5617 333.34C48.2417 295.41 -2.76825 256.24 17.2317 197.07C30.3917 158.15 62.6417 147.31 89.4617 123.31C102.692 111.47 94.3717 94.2299 94.1217 77.1199C93.5618 33.2999 145.942 -0.700057 194.102 0.00994261C246.262 0.779943 268.842 49.7299 312.602 52.3599C329.782 52.6099 345.172 43.1899 360.372 35.7199C405.412 13.5599 476.892 27.6899 480.502 81.2699C481.432 110.21 446.152 156.76 481.502 171.98C509.672 184.11 538.132 188.58 543.212 231.96C549.862 288.74 514.722 319.9 468.952 334.52L85.5617 333.34Z" fill="#999999"/>
<g clip-path="url(#clip1_1632_3814)">
<path d="M219.962 205H194.045C192.362 205 191 203.638 191 201.955V189.045C191 187.362 192.362 186 194.045 186H219.962C221.644 186 223.007 187.362 223.007 189.045V201.947C223.007 203.63 221.644 205 219.962 205Z" fill="#ECC4FC"/>
<path d="M195.812 196.55C195.954 196.423 199.699 192.723 199.699 192.723L203.392 194.54L207.003 190.288L210.695 195.612L214.299 193.259" stroke="#1A2E35" stroke-width="0.5" stroke-miterlimit="10"/>
<path d="M196.961 198.218H195.227V202.059H196.961V198.218Z" fill="#E527BB"/>
<path d="M200.532 195.679H198.797V202.052H200.532V195.679Z" fill="#007CFF"/>
<path d="M204.172 196.319H202.438V202.052H204.172V196.319Z" fill="#E527BB"/>
<path d="M207.868 192.723H206.133V202.052H207.868V192.723Z" fill="#007CFF"/>
<path d="M211.61 197.674H209.875V202.059H211.61V197.674Z" fill="#E527BB"/>
<path d="M197.033 196.118C197.033 196.632 196.616 197.049 196.103 197.049C195.589 197.049 195.172 196.632 195.172 196.118C195.172 195.604 195.589 195.187 196.103 195.187C196.616 195.187 197.033 195.604 197.033 196.118Z" fill="#E527BB"/>
<path d="M200.596 192.723C200.596 193.237 200.179 193.654 199.665 193.654C199.151 193.654 198.734 193.237 198.734 192.723C198.734 192.209 199.151 191.792 199.665 191.792C200.179 191.792 200.596 192.209 200.596 192.723Z" fill="#E527BB"/>
<path d="M204.322 194.257C204.322 194.771 203.905 195.187 203.392 195.187C202.878 195.187 202.461 194.771 202.461 194.257C202.461 193.743 202.878 193.326 203.392 193.326C203.905 193.326 204.322 193.743 204.322 194.257Z" fill="#E527BB"/>
<path d="M207.932 190.296C207.932 190.81 207.515 191.227 207.001 191.227C206.487 191.227 206.07 190.81 206.07 190.296C206.07 189.782 206.487 189.365 207.001 189.365C207.515 189.365 207.932 189.782 207.932 190.296Z" fill="#E527BB"/>
<path d="M211.635 195.619C211.635 196.133 211.218 196.55 210.704 196.55C210.19 196.55 209.773 196.133 209.773 195.619C209.773 195.105 210.19 194.688 210.704 194.688C211.218 194.688 211.635 195.105 211.635 195.619Z" fill="#E527BB"/>
<path d="M215.313 195.478H213.578V202.059H215.313V195.478Z" fill="#007CFF"/>
<path d="M200.532 195.679H198.797V202.052H200.532V195.679Z" fill="#E527BB"/>
<path d="M207.868 192.723H206.133V202.052H207.868V192.723Z" fill="#E527BB"/>
<path d="M215.313 195.478H213.578V202.059H215.313V195.478Z" fill="#E527BB"/>
<path d="M219.141 197.674H217.406V202.059H219.141V197.674Z" fill="#E527BB"/>
<path d="M214.305 193.266L218.28 195.478" stroke="#1A2E35" stroke-width="0.5" stroke-miterlimit="10"/>
<path d="M215.439 193.267C215.439 193.78 215.022 194.197 214.509 194.197C213.995 194.197 213.578 193.78 213.578 193.267C213.578 192.753 213.995 192.336 214.509 192.336C215.022 192.336 215.439 192.753 215.439 193.267Z" fill="#E527BB"/>
<path d="M218.282 196.408C218.796 196.408 219.213 195.992 219.213 195.478C219.213 194.964 218.796 194.547 218.282 194.547C217.768 194.547 217.352 194.964 217.352 195.478C217.352 195.992 217.768 196.408 218.282 196.408Z" fill="#E527BB"/>
<path d="M332.893 188.468H304V206.45H332.893V188.468Z" fill="#A78BEF"/>
<path d="M305.969 190.384V205.482" stroke="white" stroke-miterlimit="10"/>
<path d="M304.938 204.372H331.471" stroke="white" stroke-miterlimit="10"/>
<path d="M307.664 202.797C312.84 191.645 316.477 198.977 318.816 201.316C321.156 203.655 323.108 194.413 326.384 193.304C329.66 192.194 331.69 198.354 331.69 198.354" stroke="white" stroke-miterlimit="10"/>
<path d="M329.472 177.12H181.392C178.372 177.12 175.922 174.67 175.922 171.65V82.47C175.922 79.45 178.372 77 181.392 77H329.462C332.482 77 334.932 79.45 334.932 82.47V171.66C334.942 174.68 332.492 177.12 329.472 177.12Z" fill="#E527BB"/>
<path d="M331.721 79.01H179.141V174.22H331.721V79.01Z" fill="white"/>
<path d="M272.838 109.46C271.758 118.91 276.888 128.32 286.028 132.29L294.188 111.69L272.838 109.46Z" fill="#E527BB"/>
<path d="M294.13 111.66L286 132.28C286.06 132.3 286.13 132.34 286.19 132.36C297.45 137.14 310.47 131.89 315.25 120.62C318.32 113.38 317.25 105.43 313.11 99.3999L294.17 111.67L294.13 111.66Z" fill="#E527BB"/>
<path d="M288.516 90.74L294.196 111.69L299.976 90.42C296.346 89.46 291.636 89.64 288.516 90.74Z" fill="#A78BEF"/>
<path d="M294.127 111.67L288.487 90.73C290.927 90 279.197 92.11 274.447 103.31C273.597 105.32 273.037 107.37 272.797 109.44L294.127 111.67Z" fill="#E527BB"/>
<path d="M294.195 111.69L308.475 94.4999C306.985 93.3399 305.325 92.3499 303.505 91.5799C302.345 91.0899 301.165 90.6999 299.975 90.4199L294.195 111.69Z" fill="#A78BEF"/>
<path d="M308.481 94.5L294.201 111.69L313.101 99.41C317.241 105.44 318.321 113.37 315.251 120.61C310.471 131.87 297.471 137.11 286.211 132.33C297.481 137.11 310.471 131.88 315.251 120.61C319.831 109.82 315.191 97.45 304.901 92.22C306.191 92.87 307.381 93.64 308.481 94.5Z" fill="#A78BEF"/>
<path d="M280.297 141.61H320.487" stroke="#0B0202" stroke-miterlimit="10"/>
<path d="M280.297 147.44H320.487" stroke="#0B0202" stroke-miterlimit="10"/>
<path d="M280.297 153.27H320.487" stroke="#0B0202" stroke-miterlimit="10"/>
<path d="M280.297 159.1H311.517" stroke="#0B0202" stroke-miterlimit="10"/>
<path d="M337.172 292.97C340.292 299.11 335.642 302.41 332.712 307.61C332.092 308.71 331.662 310.29 332.642 311.09C333.622 311.88 335.052 311.16 336.072 310.44C341.282 306.77 346.502 303.09 351.712 299.42C354.702 297.31 346.332 288.97 344.732 286.84L343.612 285.35C341.762 282.88 338.612 282.25 336.632 283.96C334.922 285.44 334.702 288.29 335.962 290.7C336.382 291.49 336.792 292.24 337.172 292.97Z" fill="#A78BEF"/>
<path d="M308.871 233.98C311.711 232.96 315.291 233.11 318.291 233.07C321.571 233.03 324.841 233.13 328.121 233C331.121 232.88 334.101 232.66 336.871 231.47C339.181 230.48 341.301 229.09 343.191 227.43C347.031 224.07 349.901 219.76 352.551 215.45C355.801 210.15 362.741 198.32 355.381 193.42C351.531 190.86 349.011 193.66 347.671 197.27C346.961 199.19 346.521 201.2 346.061 203.19C345.421 205.93 344.681 208.15 343.431 210.73C342.621 212.41 341.801 214.1 340.741 215.64C339.511 217.43 337.971 218.98 336.251 220.3C333.041 222.77 329.191 224.61 325.431 226.03C323.271 226.85 321.081 227.59 318.861 228.24C317.031 228.78 314.521 229.88 312.581 229.65C312.011 229.58 311.481 229.38 310.921 229.24C309.091 228.78 307.131 229.08 305.371 229.74C303.601 230.4 301.991 231.41 300.391 232.41C298.931 233.32 300.801 233.76 301.681 233.46C302.801 233.07 304.011 232.33 305.001 231.69C303.961 232.36 302.881 233.06 302.231 234.11C302.101 234.32 302.031 234.68 302.281 234.75C302.391 234.78 302.511 234.72 302.601 234.66C303.491 234.11 304.331 233.49 305.111 232.8C304.261 233.55 306.271 234.54 306.781 234.54C307.511 234.53 308.191 234.22 308.871 233.98Z" fill="#9A5546"/>
<path d="M363.964 305.841H365.914V262.781H363.964V305.841Z" fill="#0B0202"/>
<path d="M382.006 314.87C382.006 308.51 370.756 305.85 365.136 305.84C358.446 305.83 348.266 308.29 348.266 314.87" stroke="#0B0202" stroke-width="2" stroke-miterlimit="10"/>
<path d="M364.945 316.57V306.01" stroke="#0B0202" stroke-width="2" stroke-miterlimit="10"/>
<path d="M345.492 316.41C345.492 317.93 346.732 319.17 348.252 319.17C349.772 319.17 351.012 317.93 351.012 316.41C351.012 314.89 349.772 313.65 348.252 313.65C346.732 313.65 345.492 314.88 345.492 316.41Z" fill="#0B0202"/>
<path d="M362.234 316.41C362.234 317.93 363.474 319.17 364.994 319.17C366.514 319.17 367.754 317.93 367.754 316.41C367.754 314.89 366.514 313.65 364.994 313.65C363.464 313.65 362.234 314.88 362.234 316.41Z" fill="#0B0202"/>
<path d="M378.961 316.41C378.961 317.93 380.201 319.17 381.721 319.17C383.241 319.17 384.481 317.93 384.481 316.41C384.481 314.89 383.241 313.65 381.721 313.65C380.191 313.65 378.961 314.88 378.961 316.41Z" fill="#0B0202"/>
<path d="M366.832 247.21V215.53C366.832 210.05 371.272 205.6 376.762 205.6H387.692C393.172 205.6 397.622 210.04 397.622 215.53V250.94C397.622 258.76 391.222 265.16 383.402 265.16H367.032H347.772C346.852 265.16 346.102 264.41 346.102 263.49C346.102 262.57 346.852 261.82 347.772 261.82H352.232C360.282 261.83 366.832 255.28 366.832 247.21Z" fill="#E527BB"/>
<path d="M320.202 319.65H325.792C326.802 319.54 327.732 319.43 328.462 319.41C332.182 319.34 335.892 319.26 339.612 319.19C340.602 319.17 341.412 318.2 341.412 317.02V304.41L341.422 302.55C341.442 299.46 339.312 297.06 336.702 297.22C334.452 297.37 332.552 299.5 332.092 302.19C331.942 303.08 331.822 303.92 331.672 304.73C331.242 307.09 330.622 309.11 328.522 310.77C325.432 313.21 321.352 312.86 318.112 314.99C317.822 315.18 317.532 315.4 317.342 315.73C316.972 316.37 317.092 317.25 317.462 317.86C318.062 318.85 319.052 319.38 320.202 319.65Z" fill="#A78BEF"/>
<path d="M352.344 225.35C352.354 225.31 352.364 225.26 352.374 225.22L352.344 225.35Z" fill="#884636"/>
<path d="M359.806 189.86L359.656 190.55L359.806 189.86Z" fill="#884636"/>
<path d="M348.843 189.7C349.433 188.19 350.203 186.77 351.283 185.53C354.243 182.1 358.933 179.55 363.543 179.66C363.123 183.84 362.553 188 361.833 192.14C360.913 197.46 360.313 202.72 357.633 207.54C353.683 205.61 349.043 205.26 345.453 202.72C346.253 199.11 347.483 193.2 348.843 189.7Z" fill="#A78BEF"/>
<path d="M316.649 250.94C317.509 248.8 319.169 247 321.079 245.67C323.279 244.15 325.829 243.2 328.379 242.37C337.709 239.36 347.099 238.76 356.779 237.76C358.039 237.63 359.309 237.5 360.569 237.38C360.669 237.37 360.779 237.36 360.879 237.35C365.559 237.26 369.659 242.14 370.039 248.25C370.419 254.36 366.929 259.4 362.249 259.49C362.139 259.49 362.039 259.48 361.929 259.48C355.339 259.61 348.709 259.02 342.129 259.32C336.929 259.56 331.559 261.68 326.529 262.99C323.599 263.75 320.029 264.09 317.979 261.87C316.989 260.8 316.569 259.34 316.299 257.91C315.919 255.93 315.779 253.86 316.309 251.92C316.399 251.6 316.509 251.26 316.649 250.94Z" fill="#0B0202"/>
<path d="M321.55 245.17C324.01 243.64 327.21 243.31 329.89 244.44C336.89 247.39 337.67 260.3 339.02 266.67C340.02 271.37 340.89 276.09 341.63 280.83C341.84 282.17 344.21 294.1 343.42 294.5C342.68 294.87 330.28 296.02 330.38 296.29C328.17 290.55 325.96 284.8 323.75 279.06C320.35 270.22 310.56 253.59 320.83 245.67C321.06 245.49 321.3 245.32 321.55 245.17Z" fill="black"/>
<path d="M333.422 254.65C336.472 249.7 344.852 246.84 349.802 244.41C352.402 243.14 355.052 241.94 357.602 240.58C361.322 238.6 364.082 236.3 367.142 233.31C369.452 231.06 371.922 228.88 374.902 227.66C377.882 226.45 381.492 226.35 384.162 228.15C387.752 230.57 388.592 235.44 388.862 239.76C389.312 247.1 388.672 256.48 380.482 259.22C376.822 260.44 373.172 261.66 369.512 262.88C362.022 265.38 354.532 267.89 347.032 270.39C346.952 270.42 346.882 270.46 346.802 270.49C346.612 270.56 346.412 270.62 346.202 270.67C343.152 271.38 339.122 269.87 335.792 266.63C331.802 262.72 331.122 258.38 333.422 254.65Z" fill="black"/>
<path d="M353.891 184.9C359.961 177.42 372.891 180.41 378.471 187.72C381.461 191.64 380.801 192.94 381.991 197.74C386.201 214.74 388.371 223.19 388.881 235.24C388.901 235.7 388.911 236.18 388.711 236.59C388.291 237.42 387.191 237.58 386.251 237.64C382.071 237.89 378.081 237.7 373.911 237.7C370.851 237.54 367.791 237.4 364.751 237.04C362.731 236.8 359.031 237.02 358.481 234.57C356.861 227.38 355.231 220.18 353.611 212.99C352.491 208.03 351.371 203.06 350.771 198C350.401 194.85 350.351 191.28 351.721 188.34C352.301 187.12 353.031 185.96 353.891 184.9Z" fill="#A78BEF"/>
<path d="M360.109 188.89C363.129 188.35 365.079 185.39 364.389 182.4L361.739 170.01L351.969 171.77L353.819 184.31C354.229 187.35 357.089 189.44 360.109 188.89Z" fill="#AF6553"/>
<path d="M355.827 178.6C356.957 178.78 358.117 178.53 359.117 177.63C360.087 176.77 360.807 175.67 361.517 174.59C363.237 171.97 365.027 169.1 364.857 165.97C364.777 164.5 364.067 163.15 363.057 162.09C362.527 161.54 362.107 161.09 361.327 160.99C360.467 160.87 359.587 161.05 358.737 161.11C357.537 161.2 356.327 161.1 355.167 160.8C354.417 160.61 353.597 160.35 352.917 160.7C352.207 161.07 351.957 161.96 351.777 162.74C351.387 164.47 350.857 166.21 350.577 167.95C350.287 169.79 350.567 171.49 350.567 173.31C350.997 176.05 353.057 178.16 355.827 178.6Z" fill="#AF6553"/>
<path d="M364.466 169.82C365.096 168.88 365.816 168 366.266 166.91C366.546 166.25 366.726 165.52 366.636 164.81C366.226 161.69 362.676 159.22 359.866 158.7C358.616 158.47 357.336 158.44 356.096 158.18C355.176 157.99 354.276 157.66 353.336 157.69C352.146 157.72 350.986 158.37 350.326 159.36C349.906 159.99 349.686 160.76 349.836 161.5C349.986 162.24 350.536 162.91 351.266 163.08C351.876 163.23 352.506 163.04 353.116 162.9C355.346 162.4 357.006 163.18 359.126 163.8C360.246 164.13 361.326 164.73 361.856 165.81C362.956 168.08 360.046 170.65 361.326 172.73C362.906 175.33 363.826 170.79 364.466 169.82Z" fill="#0B0202"/>
<path d="M333.682 254.96C330.332 261.24 330.932 268.48 330.572 275.33C330.182 282.75 328.722 290.12 329.112 297.58C329.422 303.41 334.212 308.4 340.462 306.45C342.592 305.79 344.222 303.99 345.192 301.99C346.162 299.98 346.572 297.76 346.972 295.57C349.422 282.02 350.532 268.21 351.702 254.47C352.492 244.22 336.712 249.28 333.682 254.96Z" fill="#0B0202"/>
<path d="M186.007 216.95L186.467 223.5L175.227 220.71L175.967 214.35L179.947 215.56C180.137 215.62 180.337 215.6 180.517 215.5L183.007 214.13C183.497 213.86 184.087 213.8 184.617 213.98" fill="#FAC4AB"/>
<path d="M126.489 262.42H124.539V306.59H126.489V262.42Z" fill="#0B0202"/>
<path d="M108.445 315.63C108.445 309.27 119.695 306.61 125.315 306.6C132.005 306.59 142.185 309.05 142.185 315.63" stroke="#0B0202" stroke-width="2" stroke-miterlimit="10"/>
<path d="M125.508 317.33V306.77" stroke="#0B0202" stroke-width="2" stroke-miterlimit="10"/>
<path d="M144.957 317.16C144.957 318.68 143.717 319.92 142.197 319.92C140.677 319.92 139.438 318.68 139.438 317.16C139.438 315.64 140.677 314.4 142.197 314.4C143.717 314.4 144.957 315.64 144.957 317.16Z" fill="#0B0202"/>
<path d="M128.215 317.16C128.215 318.68 126.975 319.92 125.455 319.92C123.935 319.92 122.695 318.68 122.695 317.16C122.695 315.64 123.935 314.4 125.455 314.4C126.985 314.4 128.215 315.64 128.215 317.16Z" fill="#0B0202"/>
<path d="M111.489 317.16C111.489 318.68 110.249 319.92 108.729 319.92C107.209 319.92 105.969 318.68 105.969 317.16C105.969 315.64 107.209 314.4 108.729 314.4C110.249 314.4 111.489 315.64 111.489 317.16Z" fill="#0B0202"/>
<path d="M123.618 250.2V218.52C123.618 213.04 119.178 208.59 113.688 208.59H102.758C97.2781 208.59 92.8281 213.03 92.8281 218.52V253.93C92.8281 261.75 99.2281 268.15 107.048 268.15H123.418H142.698C143.618 268.15 144.368 267.4 144.368 266.48C144.368 265.56 143.618 264.81 142.698 264.81H138.238C130.168 264.81 123.618 258.27 123.618 250.2Z" fill="#E527BB"/>
<path d="M192.217 308.68C192.477 309.15 192.757 309.62 193.067 310.06C194.057 311.47 196.217 312.71 197.997 312.47C199.907 312.22 201.777 311.54 203.707 311.63C204.417 311.66 205.167 311.83 205.667 312.32C207.897 314.49 202.587 316.43 201.127 316.87C197.807 317.87 194.487 318.86 191.167 319.86C190.547 320.05 189.897 320.24 189.257 320.12C186.687 319.65 185.907 316.3 185.127 314.28C184.577 312.85 183.637 311.61 183.047 310.19C182.607 309.13 181.907 306.41 182.887 305.48C183.127 305.25 183.437 305.13 183.717 304.96C184.277 304.63 184.727 304.14 185.307 303.84C186.937 302.99 188.987 303.95 190.177 305.36C191.017 306.36 191.587 307.54 192.217 308.68Z" fill="#A78BEF"/>
<path d="M136.991 228.73C136.981 228.69 136.971 228.64 136.961 228.6L136.991 228.73Z" fill="#F8AD8D"/>
<path d="M129.531 193.24L129.671 193.93L129.531 193.24Z" fill="#F8AD8D"/>
<path d="M136.872 228.2C136.892 228.33 136.932 228.46 136.962 228.59L136.852 228.09C136.862 228.13 136.872 228.16 136.872 228.2Z" fill="#F8AD8D"/>
<path d="M147.32 226.67L137 228.73C137.74 231.31 140.33 232.96 143.02 232.47C145.77 231.97 147.64 229.41 147.32 226.67Z" fill="#F8AD8D"/>
<path d="M176.788 254.43C176.698 253.82 176.348 253.26 176.318 252.63C175.718 240.68 144.998 239.62 136.938 239.05C134.218 238.86 131.408 238.83 128.838 239.76C124.188 241.46 119.128 247.57 119.268 252.7C119.408 257.67 122.798 262.84 128.168 263C128.288 263 128.408 262.99 128.518 262.99C136.518 263.03 144.528 263.08 152.528 263.12C156.328 263.14 160.118 263.52 163.918 263.56C166.908 263.59 170.648 264.13 173.298 262.43C176.018 260.7 177.238 257.48 176.788 254.43Z" fill="#222222"/>
<path d="M140.959 251.57C148.689 255.77 134.439 262.99 127.009 263.02L114.109 263.04C106.639 263.04 100.839 259.3 100.609 251.92V229.62L129.219 229.69C129.219 229.69 132.569 247 140.959 251.57Z" fill="#0B0202"/>
<path d="M168.922 255.03C162.912 251.03 138.682 245.15 135.372 243.85C128.832 241.28 121.622 240.2 114.632 241.12C108.702 241.9 102.492 242.9 101.012 249.59C99.6924 255.58 103.482 261.51 109.472 262.82C109.612 262.85 109.742 262.86 109.882 262.89L165.552 273.88C165.672 273.91 165.792 273.95 165.922 273.98C166.222 274.05 166.512 274.09 166.822 274.13C171.192 274.63 174.712 272.08 175.682 267.69C176.732 262.9 173.992 258.41 168.922 255.03Z" fill="#0B0202"/>
<path d="M147.869 202.17C146.329 199.94 144.999 197.57 143.629 195.24C142.049 192.55 140.349 189.13 138.039 187.03C137.369 186.43 136.699 185.82 135.939 185.35C133.719 183.95 127.849 181.99 126.619 185.51C126.289 186.47 126.369 187.52 126.529 188.52C127.319 193.29 129.819 197.59 132.379 201.69C132.469 201.84 132.569 201.99 132.659 202.15C135.139 206.15 137.529 210.3 140.899 213.64C144.099 216.81 149.489 220.35 153.699 216.76C154.969 215.68 155.609 213.9 155.319 212.25C154.729 208.94 151.429 206.8 149.439 204.32C148.899 203.62 148.369 202.9 147.869 202.17Z" fill="#A78BEF"/>
<path d="M190.752 304.49C191.602 300.76 189.102 296.91 187.572 293.6C185.722 289.6 183.862 285.59 182.012 281.59C179.752 276.72 177.772 271.58 175.192 266.87C175.122 266.74 172.892 262.49 172.802 262.36C170.392 258.48 160.512 256.36 156.382 258.39C152.252 260.42 152.462 264.38 154.862 268.26C154.952 268.41 156.422 272.58 156.422 272.58C159.632 277.5 162.842 282.42 166.052 287.34C168.672 291.36 171.292 295.38 173.922 299.39C176.482 303.31 177.602 308.02 182.832 309.17C185.502 309.76 188.622 308.77 189.992 306.4C190.372 305.77 190.612 305.13 190.752 304.49Z" fill="#222222"/>
<path d="M138.382 189.28C137.532 183.76 132.172 183.06 127.352 182.91C122.742 182.76 118.082 182.97 113.572 184.73C108.622 186.67 103.992 190.39 101.552 195.15C98.9918 200.16 101.262 206.4 101.312 211.61C101.402 221.58 101.192 231.59 100.702 241.61C105.622 241.39 110.542 241.35 115.472 241.09C119.432 240.89 123.402 240.71 127.332 240.09C128.772 239.86 132.622 239.67 133.602 238.51C134.082 237.94 133.872 236.38 133.922 235.67C134.012 234.53 134.132 233.39 134.252 232.25C134.792 227.49 135.612 222.76 136.402 218.04C137.972 208.69 139.482 199.17 138.432 189.67C138.422 189.53 138.402 189.4 138.382 189.28Z" fill="#A78BEF"/>
<path d="M124.633 189.95C121.623 189.34 119.743 186.34 120.493 183.36L123.423 171.03L133.153 173.01L131.023 185.5C130.553 188.54 127.643 190.56 124.633 189.95Z" fill="#F1AD9B"/>
<path d="M122.383 175.58L132.543 174.96L131.523 182.55L125.593 183.26L122.383 175.58Z" fill="url(#paint0_linear_1632_3814)"/>
<path d="M125.688 179.61C123.108 178.83 121.228 176.59 120.668 173.94L119.688 169.27C119.068 166.3 120.968 163.39 123.948 162.77C126.468 162.24 130.038 160.6 132.068 162.89C132.818 163.73 133.238 164.81 133.568 165.89C134.368 168.49 135.328 172.43 134.428 175.08C133.278 178.51 129.528 180.76 125.688 179.61Z" fill="#F1AD9B"/>
<path d="M134.1 163.51C133.85 163.67 133.58 163.81 133.31 163.93C130.71 165.08 127.65 164.83 125.06 166.01C123.93 166.52 122.92 167.38 122.66 168.64C122.26 170.56 122.52 172.54 122.39 174.5C122.33 175.34 121.96 176.41 121.11 176.4C120.58 176.39 120.18 175.93 119.87 175.5C118.11 172.96 117.21 169.84 117.35 166.76C117.46 164.36 117.65 162.4 119.8 160.91C121.09 160.01 122.63 159.55 124.16 159.16C124.45 159.09 124.76 159.02 125.04 159.12C125.32 159.22 125.53 159.56 125.39 159.82C127.21 158.98 129.18 158.12 131.15 158.47C131.66 158.56 132.25 158.85 132.25 159.37C132.25 159.75 131.94 160.04 131.64 160.27C132.21 160.05 132.79 159.83 133.4 159.79C134.01 159.76 134.67 159.94 135.05 160.41C135.53 161 135.48 161.9 135.07 162.55C134.84 162.94 134.49 163.25 134.1 163.51Z" fill="#0B0202"/>
<path d="M96.3216 228.17C99.8316 228.17 103.352 228.12 106.862 228.18C106.592 222.98 108.482 217.08 109.782 212.07C111.212 206.56 112.892 201.12 114.452 195.65C114.892 194.11 115.322 192.52 115.182 190.92C115.022 189.23 113.422 186.22 111.442 186.25C110.712 186.26 110.032 186.58 109.392 186.94C104.882 189.44 101.692 193.89 99.8316 198.7C97.9716 203.51 97.3216 208.69 96.9116 213.83C96.8116 214.94 96.0816 228.17 96.3216 228.17Z" fill="#A78BEF"/>
<path d="M138.618 228.57L111.448 224C109.328 224.16 107.208 224.36 105.108 224.66C104.158 227.5 102.958 230.24 101.828 233.01L138.508 233C138.738 233 138.928 232.82 138.938 232.59L139.118 229.18C139.128 228.88 138.918 228.62 138.618 228.57Z" fill="#F1AD9B"/>
<path d="M149.74 226.75C147.51 226.34 146.63 226.97 144.39 227.79C143.54 228.1 142.34 227.17 143.17 226.78C145.44 225.73 148.28 224.67 150.61 225.85C151.14 226.13 150.56 226.9 149.74 226.75Z" fill="#F1AD9B"/>
<path d="M137.21 229.45C138.45 228.24 139.77 227.82 141.15 227.38C142.96 226.8 144.75 226.42 148.03 227.16C149.17 227.41 147.39 229.04 146.66 230.16C145.9 231.33 144.46 233.31 143.61 233.2C141.56 232.96 141.62 232.72 139.23 232.97C136.64 233.25 134.78 231.82 137.21 229.45Z" fill="#F1AD9B"/>
<path d="M149.342 235.41C147.542 233.27 145.182 232.04 142.642 231.64C141.452 231.45 141.552 232.82 142.662 232.99C144.702 233.31 146.592 234.22 148.152 235.85C148.782 236.5 149.932 236.1 149.342 235.41Z" fill="#F1AD9B"/>
<path d="M154.027 234.28C150.637 229.8 147.317 228.18 142.227 228.82C141.337 228.93 141.607 230.26 142.497 230.2C146.657 229.9 150.187 230.97 152.597 234.34C153.127 235.07 154.567 235 154.027 234.28Z" fill="#F1AD9B"/>
<path d="M151.433 235.22C149.943 233.53 148.273 231.75 146.263 230.67C144.433 229.69 142.543 229.75 140.533 229.96C139.633 230.05 139.963 231.42 140.853 231.33C142.953 231.12 144.723 231.23 146.503 232.48C147.973 233.51 148.933 234.16 150.113 235.51C150.703 236.17 152.033 235.9 151.433 235.22Z" fill="#F1AD9B"/>
<path d="M148.03 227.16C147.18 226.86 146.44 228.06 147.29 228.36C150.12 229.37 151.35 229.74 153.3 232.04C153.88 232.72 155 232.34 154.42 231.65C152.31 229.18 151.09 228.25 148.03 227.16Z" fill="#F1AD9B"/>
<path d="M129.223 233.9C129.283 233.71 129.703 232.6 129.773 232.41C130.103 230.69 131.213 226.63 131.523 224.9L102.943 222.56L102.933 222.61C102.533 222.51 102.123 222.44 101.693 222.43C98.7733 222.38 96.3633 224.7 96.3133 227.62C96.2633 230.54 98.5833 232.95 101.503 233C101.513 233 101.523 233 101.523 233L129.223 233.9Z" fill="#A78BEF"/>
<path d="M375.6 226.3C375.19 227.21 374.75 228.11 374.28 228.99C373.57 230.33 372.62 231.76 371.14 232.05C363.82 233.52 356.19 233.58 348.69 233.1C348.25 233.07 347.71 232.97 347.57 232.55C347.49 232.31 347.58 232.06 347.67 231.83C348.96 228.57 351.01 226.39 354.07 224.9C354.82 224.54 364.62 221 364.64 222.42C364.51 215.38 364.39 208.23 366.28 201.45C366.86 199.38 367.65 197.3 369.12 195.72C370.58 194.14 372.83 193.15 374.92 193.69C376.83 194.18 378.27 195.85 378.99 197.68C380.64 201.89 380.02 207.74 379.51 212.13C378.94 217.02 377.62 221.82 375.6 226.3Z" fill="#9A5546"/>
<path d="M176.742 212.95C172.842 212.75 168.192 211.66 164.582 211.03C162.162 210.61 159.772 210.01 157.342 209.63C155.402 209.32 153.652 208.32 151.632 208.3C149.912 208.28 148.172 208.85 146.872 209.98C145.572 211.12 142.642 214.98 144.532 216.63C146.632 218.46 149.502 219.06 152.232 219.59C156.442 220.41 160.652 220.53 164.932 220.79C168.562 221.01 172.212 221.18 175.852 221.2C176.232 218.45 176.592 215.71 176.742 212.95Z" fill="#A78BEF"/>
<path d="M365.083 195.7C365.033 195.94 364.993 196.18 364.943 196.42C364.693 197.83 362.293 205.58 363.043 206.44C364.333 207.91 366.353 208.43 368.253 208.89C372.653 209.94 377.043 210.99 381.443 212.05C381.713 212.11 381.263 205.03 381.253 204.28C381.173 198.54 381.793 192.83 378.463 187.73C377.323 185.98 375.623 184.61 373.673 183.87C372.093 183.27 370.073 183.18 368.933 184.43C368.483 184.93 368.233 185.58 368.003 186.21C366.853 189.33 365.733 192.46 365.083 195.7Z" fill="#A78BEF"/>
<path d="M80.7422 322.21H82.1522L93.6422 233.64H92.2422L80.7422 322.21Z" fill="#2D393E"/>
<path d="M93.4609 322.21H94.8709L106.361 233.64H104.961L93.4609 322.21Z" fill="#2D393E"/>
<path d="M430.494 322.21H429.094L417.594 233.64H419.004L430.494 322.21Z" fill="#2D393E"/>
<path d="M417.767 322.21H416.367L404.867 233.64H406.277L417.767 322.21Z" fill="#2D393E"/>
<path d="M438.86 232.91H72V236.67H438.86V232.91Z" fill="#0B0202"/>
<path d="M419.149 236.38H91.7188V237.85H419.149V236.38Z" fill="#2D393E"/>
<path d="M334.094 233.45H374.574C374.574 232.67 373.944 232.04 373.164 232.04H334.104V233.45H334.094Z" fill="#E527BB"/>
<path d="M327.142 232.04H367.592L360.382 210.68C360.132 209.95 359.402 209.45 358.562 209.45H322.102C320.822 209.45 319.902 210.6 320.282 211.73L327.142 232.04Z" fill="#E527BB"/>
<path d="M327.133 233.447H367.773V232.037H327.133V233.447Z" fill="#E527BB"/>
<path d="M341.61 220.47C341.74 221.33 342.59 221.84 343.5 221.77C344.41 221.69 345.2 221.04 345.15 220.15C345.09 219.25 344.25 218.48 343.27 218.49C343.21 218.49 343.16 218.51 343.12 218.53C343.07 218.52 343.02 218.51 342.96 218.53C342.05 218.76 341.49 219.63 341.61 220.47ZM343.11 219.05C343.14 219.04 343.16 219.03 343.19 219.02C343.21 219.02 343.23 219.03 343.25 219.03C343.72 219.05 344.17 219.26 344.39 219.64C344.92 220.57 344.17 221.21 343.39 221.24C341.91 221.3 341.8 219.38 343.11 219.05Z" fill="#0B0202"/>
<path d="M192.222 233.01H151.742C151.742 232.23 152.372 231.6 153.152 231.6H192.212V233.01H192.222Z" fill="#E527BB"/>
<path d="M199.169 231.6H158.719L165.929 210.24C166.179 209.51 166.909 209.01 167.749 209.01H204.209C205.489 209.01 206.409 210.16 206.029 211.29L199.169 231.6Z" fill="#E527BB"/>
<path d="M199.171 231.6H158.531V233.01H199.171V231.6Z" fill="#E527BB"/>
<path d="M183.349 218.09C183.289 218.08 183.239 218.08 183.189 218.09C183.149 218.07 183.099 218.05 183.039 218.05C182.059 218.04 181.209 218.81 181.159 219.71C181.099 220.59 181.889 221.25 182.809 221.33C183.719 221.41 184.569 220.89 184.699 220.03C184.819 219.19 184.259 218.32 183.349 218.09ZM182.919 220.81C182.129 220.78 181.379 220.14 181.919 219.21C182.139 218.82 182.589 218.62 183.059 218.6C183.079 218.6 183.099 218.6 183.119 218.59C183.139 218.6 183.169 218.61 183.199 218.62C184.509 218.94 184.399 220.87 182.919 220.81Z" fill="#FFF4F4"/>
<path d="M360.383 170.28C360.423 170.62 360.513 170.96 360.463 171.3C360.433 171.54 360.323 171.77 360.313 172.01C360.283 172.66 361.133 173.82 361.873 173.44C362.043 173.35 362.163 173.19 362.263 173.03C362.933 171.95 363.713 167.95 361.193 168.85C360.833 168.98 360.513 169.27 360.413 169.65C360.353 169.85 360.353 170.06 360.383 170.28Z" fill="#AF6553"/>
<path d="M361.281 170.32C361.431 170.17 361.701 170.21 361.851 170.36C362.001 170.51 362.051 170.73 362.061 170.94C362.071 171.44 361.841 171.95 361.441 172.26" fill="#0B0202"/>
<path d="M159.6 252.32C154.86 248.45 148.18 248.56 142.14 247.59C137.73 246.89 133.43 245.52 129.43 243.55" stroke="#0B0202" stroke-width="0.5" stroke-miterlimit="10"/>
<path d="M113.023 200.4C111.273 206.42 109.523 212.44 107.773 218.47C107.413 219.69 107.093 221.11 107.823 222.15C108.553 223.19 110.003 223.37 111.273 223.45C117.383 223.84 123.493 224.22 129.603 224.61" stroke="#0B0202" stroke-width="0.5" stroke-miterlimit="10"/>
<path d="M354.079 242.23C349.649 244.32 345.289 246.56 341.009 248.95C338.739 250.22 336.449 251.57 334.779 253.56C331.859 257.06 331.329 261.91 330.999 266.45C330.259 276.52 329.089 282.72 329.039 292.82" stroke="#0B0202" stroke-width="0.5" stroke-miterlimit="10"/>
<path d="M365.863 192.86C364.033 197.38 363.293 202.33 363.733 207.18" stroke="#0B0202" stroke-width="0.5" stroke-miterlimit="10"/>
<path d="M380.773 211.64C381.193 208.2 381.483 204.74 381.653 201.27" stroke="#0B0202" stroke-width="0.5" stroke-miterlimit="10"/>
<path d="M352.19 205.2C351.55 202.38 351.27 199.48 351.36 196.59" stroke="#0B0202" stroke-width="0.5" stroke-miterlimit="10"/>
<path d="M124.366 171.68C124.186 172.87 123.746 174.03 122.316 173.55C119.896 172.74 119.456 169.17 121.776 167.99C122.236 167.76 122.806 167.68 123.266 167.9C123.436 167.98 123.596 168.1 123.726 168.24C124.346 168.87 124.536 169.81 124.466 170.69C124.446 171 124.416 171.34 124.366 171.68Z" fill="#F1AD9B"/>
<path d="M122.87 169.97C122.48 169.89 122.04 170.04 121.8 170.36C121.56 170.68 121.53 171.15 121.75 171.48C121.97 171.81 122.44 171.96 122.81 171.8" fill="#0B0202"/>
<path d="M265.884 211.13L262.844 228.68" stroke="#DAA7EE" stroke-width="2" stroke-miterlimit="10"/>
<path d="M256.922 207.54L259.512 225.48" stroke="#A78BEF" stroke-width="2" stroke-miterlimit="10"/>
<path d="M262.842 204.53L261.352 225.48" stroke="#E527BB" stroke-width="2" stroke-miterlimit="10"/>
<path d="M266.751 220.13H255.961V232.91H266.751V220.13Z" fill="#A78BEF"/>
<path d="M181.34 296.26C181.88 297.84 182.55 299.16 184.4 300.05C187.12 301.35 190.44 300.58 193.26 301.65C193.51 301.75 193.77 301.86 193.95 302.07C194.3 302.46 194.27 303.09 194.02 303.56C192.67 306.07 187.56 305.7 185.14 306.04C182.1 306.46 179.05 306.89 176.01 307.31C175.2 307.43 174.45 306.85 174.36 306.04L173.35 297.3L173.2 296C172.94 293.86 174.49 291.92 176.63 291.7C178.49 291.51 180.21 292.75 180.8 294.56C180.99 295.15 181.16 295.72 181.34 296.26Z" fill="#A78BEF"/>
<path d="M168.807 244.37C165.567 243.79 161.797 245.81 160.577 249.1C160.087 250.43 160.027 251.88 160.127 253.29C160.297 255.68 160.907 258.01 161.517 260.32C163.057 266.18 163.227 273.04 164.977 278.84C166.027 282.32 166.687 286.32 167.507 289.85C167.937 291.72 169.967 296.25 172.567 297.2C173.497 297.54 174.487 297.61 175.467 297.55C178.037 297.42 180.907 297.09 182.577 295.13C184.227 293.19 184.127 290.36 183.927 287.82C183.207 278.58 182.817 269.48 180.857 260.36C180.177 257.19 179.307 253.92 177.817 251.03C175.837 247.23 172.997 245.13 168.807 244.37Z" fill="#0B0202"/>
<path d="M181.344 296.26C185.084 293.37 183.694 289.96 183.604 284.78" stroke="#0B0202" stroke-width="0.5" stroke-miterlimit="10"/>
<path d="M159.938 252.78C164.787 271.02 165.187 296.27 173.357 297.29" stroke="#0B0202" stroke-width="0.5" stroke-miterlimit="10"/>
<path d="M72.2188 322.21H175.229" stroke="#0B0202" stroke-width="0.5" stroke-miterlimit="10"/>
<path d="M357.672 322.21H441.232" stroke="#0B0202" stroke-width="0.5" stroke-miterlimit="10"/>
<path d="M210.242 337.1H286.002" stroke="#0B0202" stroke-width="0.5" stroke-miterlimit="10"/>
<path d="M322.641 322.21H343.571" stroke="#0B0202" stroke-width="0.5" stroke-miterlimit="10"/>
<path d="M268.977 319.37H371.997" stroke="#0B0202" stroke-width="0.5" stroke-miterlimit="10"/>
<path d="M119.867 319.88H222.887" stroke="#0B0202" stroke-width="0.5" stroke-miterlimit="10"/>
<path d="M464.727 319.77C464.727 319.77 461.257 303.38 467.577 294.5C473.897 285.62 461.867 294.4 460.487 302.71C460.487 302.71 458.417 287.85 464.537 277.39C470.667 266.93 459.197 275.52 458.227 286.29C458.227 286.29 456.347 273.03 459.167 265.58C461.987 258.13 457.087 262.92 455.197 267.59C453.317 272.26 455.787 283.83 455.787 283.83C455.787 283.83 450.877 262.44 446.217 264.15C441.567 265.85 453.167 279.86 454.777 287.15C454.777 287.15 449.287 277.34 445.127 279.38C440.967 281.42 451.567 282.44 456.427 297.06L458.137 303.92C458.137 303.92 453.087 294.24 449.787 297.29C446.487 300.34 459.567 305.61 462.617 320.29L464.727 319.77Z" fill="#1A8B1A"/>
<path d="M464.046 320.71C464.046 320.71 463.316 300.04 453.106 291.29C442.896 282.54 459.916 289.47 464.046 299.01C464.046 299.01 462.096 280.59 451.646 269.89C441.186 259.19 457.486 266.06 461.856 278.67C461.856 278.67 460.156 262.23 454.566 254.14C448.976 246.05 456.266 250.33 459.916 255.37C463.566 260.4 464.046 274.99 464.046 274.99C464.046 274.99 463.556 247.91 469.636 248.56C475.716 249.21 465.986 269.45 466.236 278.66C466.236 278.66 469.886 265.28 475.476 266.48C481.066 267.69 468.666 272.06 467.206 291.03V299.75C467.206 299.75 470.366 286.65 475.226 289.33C480.086 292 465.986 302.22 466.716 320.7H464.046V320.71Z" fill="#007CFF"/>
<path d="M464.046 320.71C464.046 320.71 463.316 300.04 453.106 291.29C442.896 282.54 459.916 289.47 464.046 299.01C464.046 299.01 462.096 280.59 451.646 269.89C441.186 259.19 457.486 266.06 461.856 278.67C461.856 278.67 460.156 262.23 454.566 254.14C448.976 246.05 456.266 250.33 459.916 255.37C463.566 260.4 464.046 274.99 464.046 274.99C464.046 274.99 463.556 247.91 469.636 248.56C475.716 249.21 465.986 269.45 466.236 278.66C466.236 278.66 469.886 265.28 475.476 266.48C481.066 267.69 468.666 272.06 467.206 291.03V299.75C467.206 299.75 470.366 286.65 475.226 289.33C480.086 292 465.986 302.22 466.716 320.7H464.046V320.71Z" fill="#39B039"/>
<path d="M470.628 329.99H459.767C454.477 329.99 450.188 325.7 450.188 320.41V319.51H480.207V320.41C480.207 325.7 475.918 329.99 470.628 329.99Z" fill="#D32E18"/>
<path d="M446.258 317.78V320.07C446.258 321.6 447.498 322.84 449.028 322.84H481.368C482.898 322.84 484.138 321.6 484.138 320.07V317.78H446.258Z" fill="#1A2E35"/>
<path d="M446.258 317.78V320.07C446.258 321.6 447.498 322.84 449.028 322.84H481.368C482.898 322.84 484.138 321.6 484.138 320.07V317.78H446.258Z" fill="#EF3D1B"/>
<path d="M299.52 325.45C300.04 324.57 299.3 323.25 298.28 323.23C298.73 321.97 298.29 320.44 297.23 319.62C297.1 319.52 296.94 319.42 296.77 319.42C296.59 319.42 296.43 319.53 296.28 319.64C295.32 320.33 294.35 321.03 293.39 321.72C293.17 321.88 292.94 322.05 292.82 322.29C292.23 323.44 294.36 324.91 293.48 325.85C293.23 326.12 292.82 326.18 292.51 326.37C291.82 326.8 291.74 327.75 291.42 328.49C291.1 329.24 289.98 329.82 289.55 329.13C289.87 328.41 288.91 327.8 288.13 327.71C287.36 327.62 286.54 327.58 286.11 326.85C285.01 327.81 282.54 325.12 282.59 324.04C281.68 324.11 281.07 324.96 280.87 325.81C280.66 326.69 280.79 327.61 280.78 328.51C280.75 330.27 280.19 331.99 280.22 333.74C280.24 335.11 280.77 336.62 282.02 337.17C282.62 337.43 283.3 337.43 283.96 337.43C288.71 337.4 293.45 337.37 298.2 337.34C298.54 337.34 298.9 337.33 299.2 337.17C299.84 336.83 299.98 335.99 300.04 335.27C300.29 332.18 300.55 329.08 300.8 325.99C300.38 325.8 299.95 325.62 299.52 325.45Z" fill="#DAA7EE"/>
<path d="M300.356 310.39H298.756H294.356H292.756H288.356H286.756H282.356H280.756H278.266L278.446 312.62L278.576 314.21L278.916 318.36L279.106 320.74L279.356 323.91L279.466 325.27L279.506 325.67L279.636 327.27L279.816 329.46L279.926 330.82L280.036 332.2L280.166 333.8L280.266 335.01L280.376 336.37L280.426 336.96H283.336H285.796H289.346H291.806H295.356H297.816H300.726L300.776 336.37L300.886 335.01L300.986 333.79L301.116 332.19L301.226 330.81L301.336 329.45L301.516 327.25L301.646 325.66L301.676 325.26L301.786 323.9L302.046 320.73L302.236 318.35L302.566 314.2L302.696 312.61L302.876 310.38H300.356V310.39ZM301.686 311.86L301.256 311.43H301.716L301.686 311.86ZM301.576 313.21L301.536 313.75L299.556 315.73L297.286 313.46L299.316 311.43H299.796L301.576 313.21ZM301.006 320.28L299.556 321.73L297.286 319.46L299.556 317.2L301.126 318.77L301.006 320.28ZM279.976 318.77L281.546 317.2L283.816 319.46L281.546 321.73L280.106 320.28L279.976 318.77ZM298.826 316.46L296.556 318.73L294.286 316.46L296.556 314.19L298.826 316.46ZM295.256 311.43H297.856L296.556 312.73L295.256 311.43ZM295.816 319.46L293.556 321.73L291.286 319.46L293.556 317.2L295.816 319.46ZM288.286 322.47L290.556 320.21L292.816 322.47L290.556 324.74L288.286 322.47ZM289.816 325.47L287.546 327.74L285.286 325.48L287.556 323.21L289.816 325.47ZM293.556 323.2L295.816 325.47L293.556 327.73L291.286 325.46L293.556 323.2ZM290.556 318.73L288.286 316.46L290.556 314.19L292.816 316.46L290.556 318.73ZM289.816 319.46L287.556 321.73L285.286 319.46L287.556 317.2L289.816 319.46ZM284.546 318.73L282.286 316.46L284.546 314.19L286.816 316.46L284.546 318.73ZM284.546 320.2L286.816 322.46L284.546 324.73L282.286 322.46L284.546 320.2ZM286.816 328.47L284.546 330.73L282.286 328.47L284.546 326.2L286.816 328.47ZM287.546 329.2L289.816 331.47L287.556 333.74L285.286 331.47L287.546 329.2ZM288.286 328.47L290.556 326.2L292.816 328.47L290.556 330.73L288.286 328.47ZM293.556 329.2L295.816 331.47L293.556 333.74L291.286 331.47L293.556 329.2ZM296.556 332.21L298.826 334.48L297.356 335.95H295.756L294.286 334.48L296.556 332.21ZM294.286 328.47L296.556 326.2L298.826 328.47L296.556 330.73L294.286 328.47ZM294.286 322.47L296.556 320.21L298.826 322.47L296.556 324.74L294.286 322.47ZM295.816 313.46L293.556 315.73L291.286 313.46L293.316 311.43H293.796L295.816 313.46ZM290.556 312.73L289.256 311.43H291.846L290.556 312.73ZM289.816 313.46L287.556 315.73L285.286 313.46L287.316 311.43H287.796L289.816 313.46ZM285.846 311.43L284.546 312.73L283.256 311.43H285.846ZM281.786 311.43L283.816 313.46L281.546 315.73L279.576 313.75L279.536 313.21L281.316 311.43H281.786ZM279.836 311.43L279.416 311.85L279.376 311.43H279.836ZM279.696 315.35L280.806 316.46L279.856 317.41L279.696 315.35ZM280.316 322.96L280.226 321.89L280.806 322.47L280.316 322.96ZM280.426 324.32L281.546 323.2L283.816 325.47L281.546 327.73L280.636 326.82L280.426 324.32ZM280.766 328.52L280.756 328.42L280.806 328.47L280.766 328.52ZM281.156 333.35L280.866 329.87L281.536 329.2L283.806 331.47L281.536 333.73L281.156 333.35ZM281.366 335.94L281.326 335.42L281.546 335.2L282.286 335.94H281.366ZM282.276 334.47L284.536 332.2L286.806 334.47L285.336 335.94H283.736L282.276 334.47ZM286.816 335.94L287.556 335.2L288.296 335.94H286.816ZM289.756 335.94L288.286 334.47L290.556 332.2L292.816 334.47L291.356 335.94H289.756ZM292.816 335.94L293.556 335.2L294.296 335.94H292.816ZM299.736 335.94H298.826L299.566 335.2L299.786 335.42L299.736 335.94ZM299.946 333.35L299.556 333.73L297.286 331.47L299.556 329.2L300.226 329.87L299.946 333.35ZM300.346 328.42L300.336 328.52L300.286 328.47L300.346 328.42ZM300.476 326.82L299.556 327.73L297.286 325.47L299.556 323.2L300.676 324.32L300.476 326.82ZM300.786 322.96L300.286 322.46L300.876 321.88L300.786 322.96ZM301.406 315.35L301.236 317.42L300.286 316.47L301.406 315.35Z" fill="#007CFF"/>
<g opacity="0.6">
<path d="M300.356 310.39H298.756H294.356H292.756H288.356H286.756H282.356H280.756H278.266L278.446 312.62L278.576 314.21L278.916 318.36L279.106 320.74L279.356 323.91L279.466 325.27L279.506 325.67L279.636 327.27L279.816 329.46L279.926 330.82L280.036 332.2L280.166 333.8L280.266 335.01L280.376 336.37L280.426 336.96H283.336H285.796H289.346H291.806H295.356H297.816H300.726L300.776 336.37L300.886 335.01L300.986 333.79L301.116 332.19L301.226 330.81L301.336 329.45L301.516 327.25L301.646 325.66L301.676 325.26L301.786 323.9L302.046 320.73L302.236 318.35L302.566 314.2L302.696 312.61L302.876 310.38H300.356V310.39ZM301.686 311.86L301.256 311.43H301.716L301.686 311.86ZM301.576 313.21L301.536 313.75L299.556 315.73L297.286 313.46L299.316 311.43H299.796L301.576 313.21ZM301.006 320.28L299.556 321.73L297.286 319.46L299.556 317.2L301.126 318.77L301.006 320.28ZM279.976 318.77L281.546 317.2L283.816 319.46L281.546 321.73L280.106 320.28L279.976 318.77ZM298.826 316.46L296.556 318.73L294.286 316.46L296.556 314.19L298.826 316.46ZM295.256 311.43H297.856L296.556 312.73L295.256 311.43ZM295.816 319.46L293.556 321.73L291.286 319.46L293.556 317.2L295.816 319.46ZM288.286 322.47L290.556 320.21L292.816 322.47L290.556 324.74L288.286 322.47ZM289.816 325.47L287.546 327.74L285.286 325.48L287.556 323.21L289.816 325.47ZM293.556 323.2L295.816 325.47L293.556 327.73L291.286 325.46L293.556 323.2ZM290.556 318.73L288.286 316.46L290.556 314.19L292.816 316.46L290.556 318.73ZM289.816 319.46L287.556 321.73L285.286 319.46L287.556 317.2L289.816 319.46ZM284.546 318.73L282.286 316.46L284.546 314.19L286.816 316.46L284.546 318.73ZM284.546 320.2L286.816 322.46L284.546 324.73L282.286 322.46L284.546 320.2ZM286.816 328.47L284.546 330.73L282.286 328.47L284.546 326.2L286.816 328.47ZM287.546 329.2L289.816 331.47L287.556 333.74L285.286 331.47L287.546 329.2ZM288.286 328.47L290.556 326.2L292.816 328.47L290.556 330.73L288.286 328.47ZM293.556 329.2L295.816 331.47L293.556 333.74L291.286 331.47L293.556 329.2ZM296.556 332.21L298.826 334.48L297.356 335.95H295.756L294.286 334.48L296.556 332.21ZM294.286 328.47L296.556 326.2L298.826 328.47L296.556 330.73L294.286 328.47ZM294.286 322.47L296.556 320.21L298.826 322.47L296.556 324.74L294.286 322.47ZM295.816 313.46L293.556 315.73L291.286 313.46L293.316 311.43H293.796L295.816 313.46ZM290.556 312.73L289.256 311.43H291.846L290.556 312.73ZM289.816 313.46L287.556 315.73L285.286 313.46L287.316 311.43H287.796L289.816 313.46ZM285.846 311.43L284.546 312.73L283.256 311.43H285.846ZM281.786 311.43L283.816 313.46L281.546 315.73L279.576 313.75L279.536 313.21L281.316 311.43H281.786ZM279.836 311.43L279.416 311.85L279.376 311.43H279.836ZM279.696 315.35L280.806 316.46L279.856 317.41L279.696 315.35ZM280.316 322.96L280.226 321.89L280.806 322.47L280.316 322.96ZM280.426 324.32L281.546 323.2L283.816 325.47L281.546 327.73L280.636 326.82L280.426 324.32ZM280.766 328.52L280.756 328.42L280.806 328.47L280.766 328.52ZM281.156 333.35L280.866 329.87L281.536 329.2L283.806 331.47L281.536 333.73L281.156 333.35ZM281.366 335.94L281.326 335.42L281.546 335.2L282.286 335.94H281.366ZM282.276 334.47L284.536 332.2L286.806 334.47L285.336 335.94H283.736L282.276 334.47ZM286.816 335.94L287.556 335.2L288.296 335.94H286.816ZM289.756 335.94L288.286 334.47L290.556 332.2L292.816 334.47L291.356 335.94H289.756ZM292.816 335.94L293.556 335.2L294.296 335.94H292.816ZM299.736 335.94H298.826L299.566 335.2L299.786 335.42L299.736 335.94ZM299.946 333.35L299.556 333.73L297.286 331.47L299.556 329.2L300.226 329.87L299.946 333.35ZM300.346 328.42L300.336 328.52L300.286 328.47L300.346 328.42ZM300.476 326.82L299.556 327.73L297.286 325.47L299.556 323.2L300.676 324.32L300.476 326.82ZM300.786 322.96L300.286 322.46L300.876 321.88L300.786 322.96ZM301.406 315.35L301.236 317.42L300.286 316.47L301.406 315.35Z" fill="#E527BB"/>
</g>
<path d="M278.164 312.36H302.934C303.664 312.36 304.254 311.77 304.254 311.04V310.79C304.254 310.06 303.664 309.47 302.934 309.47H278.164C277.434 309.47 276.844 310.06 276.844 310.79V311.04C276.844 311.77 277.434 312.36 278.164 312.36Z" fill="#E527BB"/>
<path d="M300.952 338.32H280.133C279.403 338.32 278.812 337.73 278.812 337V336.75C278.812 336.02 279.403 335.43 280.133 335.43H300.952C301.682 335.43 302.273 336.02 302.273 336.75V337C302.283 337.73 301.682 338.32 300.952 338.32Z" fill="#E527BB"/>
<path d="M258.712 163.19H189.242C187.782 163.19 186.602 164.37 186.602 165.83C186.602 167.29 187.782 168.47 189.242 168.47H258.712C260.172 168.47 261.352 167.29 261.352 165.83C261.352 164.38 260.172 163.19 258.712 163.19Z" fill="#007CFF"/>
<path d="M258.712 163.19H189.242C187.782 163.19 186.602 164.37 186.602 165.83C186.602 167.29 187.782 168.47 189.242 168.47H258.712C260.172 168.47 261.352 167.29 261.352 165.83C261.352 164.38 260.172 163.19 258.712 163.19Z" fill="#A78BEF"/>
<path d="M231.172 163.78H189.292C188.162 163.78 187.242 164.7 187.242 165.83C187.242 166.96 188.162 167.88 189.292 167.88H231.172C232.302 167.88 233.222 166.96 233.222 165.83C233.222 164.7 232.302 163.78 231.172 163.78Z" fill="#E527BB"/>
<path d="M209.024 156.07C209.024 156.75 208.524 157.17 207.714 157.17H206.934V158.12H206.484V154.97H207.714C208.524 154.97 209.024 155.38 209.024 156.07ZM208.574 156.07C208.574 155.62 208.274 155.36 207.694 155.36H206.924V156.77H207.694C208.274 156.78 208.574 156.52 208.574 156.07Z" fill="#1A2E35"/>
<path d="M211.798 158.12L211.118 157.15C211.058 157.15 210.988 157.16 210.918 157.16H210.138V158.12H209.688V154.97H210.918C211.738 154.97 212.228 155.38 212.228 156.07C212.228 156.56 211.978 156.91 211.538 157.07L212.288 158.13H211.798V158.12ZM211.778 156.07C211.778 155.62 211.478 155.36 210.898 155.36H210.128V156.78H210.898C211.478 156.78 211.778 156.52 211.778 156.07Z" fill="#1A2E35"/>
<path d="M212.703 156.55C212.703 155.63 213.413 154.94 214.383 154.94C215.343 154.94 216.053 155.62 216.053 156.55C216.053 157.48 215.343 158.16 214.383 158.16C213.413 158.16 212.703 157.47 212.703 156.55ZM215.603 156.55C215.603 155.85 215.083 155.34 214.383 155.34C213.673 155.34 213.153 155.85 213.153 156.55C213.153 157.25 213.673 157.76 214.383 157.76C215.073 157.76 215.603 157.24 215.603 156.55Z" fill="#1A2E35"/>
<path d="M218.924 156.53H219.354V157.76C219.034 158.03 218.604 158.16 218.164 158.16C217.194 158.16 216.484 157.48 216.484 156.55C216.484 155.62 217.194 154.94 218.174 154.94C218.674 154.94 219.094 155.11 219.384 155.43L219.104 155.71C218.844 155.46 218.544 155.35 218.194 155.35C217.464 155.35 216.934 155.86 216.934 156.56C216.934 157.25 217.464 157.77 218.184 157.77C218.454 157.77 218.694 157.71 218.924 157.57V156.53Z" fill="#1A2E35"/>
<path d="M222.321 158.12L221.641 157.15C221.581 157.15 221.511 157.16 221.441 157.16H220.661V158.12H220.211V154.97H221.441C222.261 154.97 222.751 155.38 222.751 156.07C222.751 156.56 222.501 156.91 222.061 157.07L222.811 158.13H222.321V158.12ZM222.301 156.07C222.301 155.62 222.001 155.36 221.421 155.36H220.651V156.78H221.421C222.001 156.78 222.301 156.52 222.301 156.07Z" fill="#1A2E35"/>
<path d="M225.774 157.73V158.12H223.484V154.97H225.704V155.36H223.934V156.33H225.514V156.71H223.934V157.73H225.774Z" fill="#1A2E35"/>
<path d="M226.211 157.76L226.381 157.41C226.611 157.62 227.011 157.77 227.421 157.77C227.961 157.77 228.201 157.56 228.201 157.28C228.201 156.51 226.291 157 226.291 155.83C226.291 155.34 226.671 154.93 227.501 154.93C227.871 154.93 228.251 155.03 228.511 155.21L228.361 155.57C228.091 155.39 227.771 155.31 227.501 155.31C226.961 155.31 226.731 155.54 226.731 155.81C226.731 156.58 228.641 156.1 228.641 157.26C228.641 157.74 228.251 158.16 227.421 158.16C226.931 158.16 226.461 158 226.211 157.76Z" fill="#1A2E35"/>
<path d="M229.008 157.76L229.178 157.41C229.408 157.62 229.808 157.77 230.218 157.77C230.758 157.77 230.998 157.56 230.998 157.28C230.998 156.51 229.088 157 229.088 155.83C229.088 155.34 229.468 154.93 230.298 154.93C230.668 154.93 231.048 155.03 231.308 155.21L231.158 155.57C230.888 155.39 230.568 155.31 230.298 155.31C229.758 155.31 229.528 155.54 229.528 155.81C229.528 156.58 231.438 156.1 231.438 157.26C231.438 157.74 231.048 158.16 230.218 158.16C229.738 158.16 229.268 158 229.008 157.76Z" fill="#1A2E35"/>
<path d="M235.347 154.97V155.28L234.077 158.13H233.597L234.847 155.37H233.407V155.93H232.977V154.98H235.347V154.97Z" fill="#1A2E35"/>
<path d="M235.641 156.55C235.641 155.52 236.191 154.94 236.931 154.94C237.661 154.94 238.211 155.53 238.211 156.55C238.211 157.58 237.661 158.16 236.931 158.16C236.191 158.16 235.641 157.57 235.641 156.55ZM237.761 156.55C237.761 155.74 237.421 155.34 236.931 155.34C236.431 155.34 236.091 155.75 236.091 156.55C236.091 157.35 236.431 157.76 236.931 157.76C237.421 157.76 237.761 157.35 237.761 156.55Z" fill="#1A2E35"/>
<path d="M238.602 155.8C238.602 155.29 238.902 154.94 239.332 154.94C239.762 154.94 240.062 155.28 240.062 155.8C240.062 156.32 239.772 156.66 239.332 156.66C238.892 156.66 238.602 156.32 238.602 155.8ZM239.772 155.8C239.772 155.42 239.602 155.2 239.332 155.2C239.062 155.2 238.892 155.43 238.892 155.8C238.892 156.17 239.062 156.4 239.332 156.4C239.602 156.41 239.772 156.18 239.772 155.8ZM241.232 154.97H241.582L239.432 158.12H239.082L241.232 154.97ZM240.592 157.29C240.592 156.78 240.882 156.43 241.322 156.43C241.762 156.43 242.052 156.78 242.052 157.29C242.052 157.8 241.752 158.15 241.322 158.15C240.892 158.15 240.592 157.8 240.592 157.29ZM241.772 157.29C241.772 156.92 241.602 156.69 241.332 156.69C241.062 156.69 240.892 156.92 240.892 157.29C240.892 157.67 241.062 157.89 241.332 157.89C241.592 157.89 241.772 157.66 241.772 157.29Z" fill="#1A2E35"/>
<path d="M281.643 231.93V229.78H280.203L281.643 228.94H280.563L282.013 227.99H283.373V226.91H281.793L283.373 226.27V223.92H281.793V222.39H280.203L281.793 221.85V220.76H280.653L281.583 219.83L282.383 219.02H307.013V220.13H308.633L306.833 220.94V221.85H310.153V223.55H311.623L310.153 224.28V226.18H309.103V227.09H307.013V229.78H308.183L307.223 230.74V231.94L281.643 231.93Z" fill="#007CFF"/>
<path opacity="0.7" d="M281.643 231.93V229.78H280.203L281.643 228.94H280.563L282.013 227.99H283.373V226.91H281.793L283.373 226.27V223.92H281.793V222.39H280.203L281.793 221.85V220.76H280.653L281.583 219.83L282.383 219.02H307.013V220.13H308.633L306.833 220.94V221.85H310.153V223.55H311.623L310.153 224.28V226.18H309.103V227.09H307.013V229.78H308.183L307.223 230.74V231.94L281.643 231.93Z" fill="white"/>
<path opacity="0.1" d="M281.643 231.93V229.78H280.203L281.643 228.94H280.563L282.013 227.99H283.373V226.91H281.793L283.373 226.27V223.92H281.793V222.39H280.203L281.793 221.85V220.76H280.653L281.583 219.83L282.383 219.02H295.353V220.13H296.983L295.173 220.94V221.85H298.493V223.55H299.963L298.493 224.28V226.18H297.453V227.09H295.353V229.78H296.533L295.573 230.74V231.94L281.643 231.93Z" fill="black"/>
<path opacity="0.1" d="M306.832 221.85H295.172L306.832 221.43V221.85Z" fill="black"/>
<path opacity="0.1" d="M307.015 227.09H295.355L295.305 227.9L307.015 227.09Z" fill="black"/>
<path opacity="0.1" d="M309.103 226.18H297.453L309.103 226.59V226.18Z" fill="black"/>
<path opacity="0.1" d="M307.012 229.78H295.352L307.012 229.35V229.78Z" fill="black"/>
<path opacity="0.1" d="M307.22 230.74H295.57V231.18L307.22 230.74Z" fill="black"/>
<path opacity="0.1" d="M310.152 223.55H298.492L310.152 223.18V223.55Z" fill="black"/>
<path opacity="0.1" d="M307.012 220.13H295.352L307.012 219.72V220.13Z" fill="black"/>
<path opacity="0.1" d="M281.797 220.76H293.617L281.797 221.12V220.76Z" fill="black"/>
<path opacity="0.1" d="M295.177 221.85H281.797L293.927 222.25L295.177 221.85Z" fill="black"/>
<path opacity="0.1" d="M298.497 223.55L281.797 223.92V223.55H298.497Z" fill="black"/>
<path opacity="0.1" d="M298.494 224.28H290.234L298.494 224.69V224.28Z" fill="black"/>
<path opacity="0.1" d="M283.375 226.27L295.355 226.18L283.375 225.91V226.27Z" fill="black"/>
<path opacity="0.1" d="M283.375 226.91H295.575L283.375 227.31V226.91Z" fill="black"/>
<path opacity="0.1" d="M281.641 228.94H295.171V229.35L281.641 228.94Z" fill="black"/>
<path opacity="0.1" d="M281.641 229.78H291.451L281.641 230.05V229.78Z" fill="black"/>
<path d="M198.141 95.28L204.441 103.17" stroke="#022239" stroke-width="19" stroke-miterlimit="10"/>
<path d="M210.887 93.9901L193.317 107.55L192.737 106.79C189.317 102.36 190.137 95.9901 194.567 92.5701L196.077 91.4001C200.507 87.9801 206.877 88.8001 210.297 93.2301L210.887 93.9901Z" fill="#A78BEF"/>
<path d="M244.87 95.28L238.57 103.17" stroke="#022239" stroke-width="19" stroke-miterlimit="10"/>
<path d="M232.125 93.9901L249.695 107.55L250.275 106.79C253.695 102.36 252.875 95.9901 248.445 92.5701L246.935 91.4001C242.505 87.9801 236.135 88.8001 232.715 93.2301L232.125 93.9901Z" fill="#A78BEF"/>
<path d="M231.867 136.99H240.007L246.537 148.45H238.397L231.867 136.99Z" fill="#022239"/>
<path d="M211.443 136.99H203.303L196.773 148.45H204.913L211.443 136.99Z" fill="#022239"/>
<path d="M221.478 148.61C236.373 148.61 248.448 136.535 248.448 121.64C248.448 106.745 236.373 94.6702 221.478 94.6702C206.583 94.6702 194.508 106.745 194.508 121.64C194.508 136.535 206.583 148.61 221.478 148.61Z" fill="#E527BB"/>
<path d="M221.476 144.71C234.217 144.71 244.546 134.381 244.546 121.64C244.546 108.899 234.217 98.5701 221.476 98.5701C208.735 98.5701 198.406 108.899 198.406 121.64C198.406 134.381 208.735 144.71 221.476 144.71Z" fill="white"/>
<g opacity="0.03">
<path d="M235.131 107.99C226.571 99.43 212.961 99.01 203.891 106.72C204.291 106.25 204.711 105.78 205.161 105.33C214.171 96.32 228.781 96.32 237.781 105.33C246.791 114.34 246.791 128.95 237.781 137.95C237.331 138.4 236.871 138.82 236.391 139.22C244.111 130.16 243.691 116.55 235.131 107.99Z" fill="#231F20"/>
</g>
<path d="M222.808 101.71V98.6101C222.368 98.5801 221.928 98.5701 221.478 98.5701C221.028 98.5701 220.588 98.5901 220.148 98.6101V101.71H222.808Z" fill="#BFE6F8"/>
<path d="M220.148 141.57V144.67C220.588 144.7 221.028 144.71 221.478 144.71C221.928 144.71 222.368 144.69 222.808 144.67V141.57H220.148Z" fill="#BFE6F8"/>
<path d="M204.905 110.57L202.265 108.88C202.135 109.08 202.005 109.28 201.875 109.48L204.515 111.17L204.905 110.57Z" fill="#BFE6F8"/>
<path d="M238.047 132.72L240.687 134.41C240.817 134.21 240.947 134.01 241.077 133.81L238.437 132.12L238.047 132.72Z" fill="#BFE6F8"/>
<path d="M210.403 138.22L208.703 140.86C208.903 140.99 209.103 141.12 209.303 141.25L210.993 138.61L210.403 138.22Z" fill="#BFE6F8"/>
<path d="M232.545 105.07L234.235 102.43C234.035 102.3 233.835 102.17 233.635 102.04L231.945 104.68L232.545 105.07Z" fill="#BFE6F8"/>
<path d="M212.3 103.95L210.81 101.19C210.6 101.3 210.39 101.41 210.18 101.53L211.67 104.29L212.3 103.95Z" fill="#BFE6F8"/>
<path d="M230.656 139.34L232.146 142.1C232.356 141.99 232.566 141.88 232.776 141.76L231.286 139L230.656 139.34Z" fill="#BFE6F8"/>
<path d="M203.783 130.82L201.023 132.31C201.133 132.52 201.243 132.73 201.363 132.94L204.123 131.45L203.783 130.82Z" fill="#BFE6F8"/>
<path d="M239.168 112.46L241.928 110.97C241.818 110.76 241.708 110.55 241.588 110.34L238.828 111.83L239.168 112.46Z" fill="#BFE6F8"/>
<path d="M201.546 120.31H198.446C198.416 120.75 198.406 121.19 198.406 121.64C198.406 122.09 198.426 122.53 198.446 122.97H201.546V120.31Z" fill="#BFE6F8"/>
<path d="M241.406 122.97H244.506C244.536 122.53 244.546 122.09 244.546 121.64C244.546 121.19 244.526 120.75 244.506 120.31H241.406V122.97Z" fill="#BFE6F8"/>
<path d="M221.833 119.7L220.953 120.58L233.603 132.28L221.833 119.7Z" fill="#022239"/>
<path d="M220.755 119.89L214.375 127.16L221.645 120.77L220.755 119.89Z" fill="#022239"/>
<path d="M221.396 99.04L221.086 120.14H221.706L221.396 99.04Z" fill="#E527BB"/>
<path d="M219.825 121.7C218.965 120.84 218.965 119.44 219.825 118.57C220.685 117.71 222.085 117.71 222.955 118.57C223.815 119.43 223.815 120.83 222.955 121.7C222.095 122.57 220.695 122.57 219.825 121.7Z" fill="#022239"/>
<path d="M220.842 120.69C220.532 120.38 220.532 119.89 220.842 119.58C221.152 119.27 221.642 119.27 221.952 119.58C222.262 119.89 222.262 120.38 221.952 120.69C221.642 121 221.142 121 220.842 120.69Z" fill="white"/>
</g>
</g>
<defs>
<linearGradient id="paint0_linear_1632_3814" x1="126.728" y1="171.171" x2="128.79" y2="182.674" gradientUnits="userSpaceOnUse">
<stop offset="4e-07" stop-color="#CF7560"/>
<stop offset="1" stop-color="#F1AD9B"/>
</linearGradient>
<clipPath id="clip0_1632_3814">
<rect width="556.76" height="338.36" fill="white"/>
</clipPath>
<clipPath id="clip1_1632_3814">
<rect width="412.15" height="261.32" fill="white" transform="translate(72 77)"/>
</clipPath>
</defs>
</svg>
