<svg width="51" height="48" viewBox="0 0 51 48" fill="none" xmlns="http://www.w3.org/2000/svg">
<path d="M15.0747 15.6907C15.7464 15.9882 16.4731 16.1414 17.2078 16.1403C18.1728 16.1416 19.1203 15.8819 19.9498 15.3887C20.7793 14.8955 21.46 14.1872 21.9199 13.3388C22.3797 12.4904 22.6016 11.5334 22.5621 10.5692C22.5226 9.60498 22.2231 8.66939 21.6953 7.86146C21.1675 7.05354 20.4311 6.40335 19.564 5.97973C18.6969 5.55611 17.7314 5.37482 16.7697 5.45505C15.808 5.53529 14.8859 5.87406 14.101 6.4355C13.3161 6.99694 12.6976 7.76017 12.311 8.64438C12.0276 9.28697 11.8738 9.97914 11.8582 10.6813C11.8427 11.3834 11.9658 12.0817 12.2205 12.7362C12.4751 13.3907 12.8564 13.9885 13.3424 14.4955C13.8284 15.0025 14.4096 15.4086 15.0528 15.6907H15.0747ZM13.3145 9.11048C13.6468 8.35139 14.193 7.70552 14.8863 7.25173C15.5797 6.79795 16.3901 6.5559 17.2188 6.55516C17.8557 6.54795 18.4861 6.68384 19.0635 6.95278C19.641 7.22172 20.1506 7.61687 20.5549 8.10907C20.9593 8.60126 21.2479 9.17795 21.3996 9.79659C21.5514 10.4152 21.5623 11.06 21.4315 11.6835C21.3008 12.3069 21.0318 12.893 20.6443 13.3985C20.2568 13.9041 19.7608 14.3162 19.1928 14.6045C18.6248 14.8928 17.9993 15.0499 17.3625 15.0642C16.7257 15.0785 16.0938 14.9497 15.5134 14.6872C14.4803 14.2338 13.6692 13.3892 13.2581 12.3386C12.8469 11.288 12.8691 10.1172 13.32 9.08306L13.3145 9.11048Z" fill="#DAA7EE"/>
<path d="M41.1972 29.2247L39.7495 28.9505C39.618 28.5541 39.4586 28.1674 39.2725 27.7935L40.084 26.5597C40.1551 26.4552 40.188 26.3294 40.177 26.2035C40.166 26.0776 40.1118 25.9594 40.0237 25.8688L37.4684 23.308C37.3791 23.2182 37.2616 23.162 37.1356 23.149C37.0097 23.136 36.8832 23.167 36.7775 23.2367L35.5437 24.0483C35.1697 23.8621 34.7831 23.7027 34.3866 23.5712L34.0905 22.1235C34.0649 21.9978 33.996 21.8851 33.8958 21.8049C33.7956 21.7248 33.6705 21.6823 33.5422 21.6849H30.4714C30.3193 20.2075 29.9497 18.7606 29.3747 17.3913C28.7123 15.799 27.7221 14.3641 26.4684 13.1799L26.6659 13.1415C26.7916 13.1159 26.9043 13.047 26.9845 12.9468C27.0646 12.8466 27.1071 12.7215 27.1045 12.5932V8.97407C27.1071 8.84578 27.0646 8.72065 26.9845 8.62046C26.9043 8.52026 26.7916 8.45135 26.6659 8.42571L25.2182 8.15154C25.0867 7.75509 24.9273 7.36845 24.7411 6.99452L25.5527 5.76073C25.6176 5.65943 25.6474 5.5396 25.6375 5.4197C25.6276 5.2998 25.5785 5.18648 25.4979 5.09722L22.9425 2.53642C22.8533 2.4466 22.7357 2.39042 22.6098 2.37743C22.4839 2.36444 22.3573 2.39542 22.2516 2.46513L21.0178 3.27669C20.6469 3.08651 20.262 2.92518 19.8663 2.79414L19.5702 1.32456C19.5445 1.19884 19.4756 1.08608 19.3754 1.00593C19.2752 0.925773 19.1501 0.883291 19.0218 0.885878H15.4027C15.2752 0.883041 15.1507 0.924745 15.0506 1.00381C14.9505 1.08288 14.8811 1.19436 14.8544 1.31908L14.5582 2.76672C14.1618 2.89824 13.7752 3.05766 13.4012 3.24379L12.1674 2.43223C12.0624 2.36183 11.9362 2.32992 11.8102 2.34191C11.6843 2.3539 11.5664 2.40906 11.4765 2.49803L8.91571 5.05884C8.82724 5.14771 8.77191 5.26423 8.75894 5.38896C8.74597 5.51369 8.77614 5.6391 8.84442 5.74428L9.65598 6.97807C9.47081 7.35243 9.31142 7.73901 9.17892 8.13509L7.73127 8.4312C7.60555 8.45683 7.49279 8.52575 7.41264 8.62594C7.33248 8.72614 7.29 8.85127 7.29259 8.97955V12.5987C7.29 12.727 7.33248 12.8521 7.41264 12.9523C7.49279 13.0525 7.60555 13.1214 7.73127 13.147L8.59218 13.3225C7.14576 14.4749 6.07648 16.033 5.52141 17.797L3.54735 23.5054L0.257235 27.7058C0.127931 27.8722 0.0438276 28.0692 0.0130832 28.2777C-0.0176612 28.4861 0.00599679 28.699 0.0817626 28.8957C0.156772 29.0933 0.282363 29.2676 0.445963 29.4014C0.609563 29.5352 0.805432 29.6236 1.01396 29.6579L3.49251 30.0692V38.3657C3.49298 38.456 3.51575 38.5448 3.55879 38.6242C3.60184 38.7036 3.66384 38.7712 3.73927 38.8209C3.827 38.8812 5.85591 40.1972 9.33246 39.1334V47.1229C9.33246 47.2683 9.39023 47.4078 9.49306 47.5106C9.5959 47.6135 9.73538 47.6712 9.88081 47.6712H23.1564C23.3018 47.6712 23.4413 47.6135 23.5441 47.5106C23.647 47.4078 23.7048 47.2683 23.7048 47.1229L23.9076 39.2102C24.1434 38.9579 24.3737 38.7057 24.6041 38.448L26.0023 39.8463C26.0912 39.9347 26.2077 39.9901 26.3325 40.003C26.4572 40.016 26.5826 39.9858 26.6878 39.9176L27.9271 39.095C28.2975 39.2862 28.6826 39.4475 29.0786 39.5776L29.3747 41.0252C29.4003 41.1509 29.4693 41.2637 29.5695 41.3439C29.6696 41.424 29.7948 41.4665 29.9231 41.4639H33.5422C33.6705 41.4665 33.7956 41.424 33.8958 41.3439C33.996 41.2637 34.0649 41.1509 34.0905 41.0252L34.3866 39.5831C34.7831 39.4515 35.1697 39.2921 35.5437 39.106L36.7336 39.9395C36.8393 40.0092 36.9658 40.0402 37.0918 40.0272C37.2177 40.0142 37.3353 39.958 37.4245 39.8682L40.0237 37.3129C40.1122 37.224 40.1675 37.1075 40.1805 36.9828C40.1934 36.858 40.1633 36.7326 40.095 36.6274L39.2834 35.3882C39.4695 35.0161 39.629 34.6313 39.7605 34.2366L41.2081 33.9405C41.3339 33.9149 41.4466 33.846 41.5268 33.7458C41.6069 33.6456 41.6494 33.5205 41.6468 33.3922V29.773C41.6489 29.6432 41.6049 29.5168 41.5226 29.4164C41.4402 29.316 41.3249 29.2481 41.1972 29.2247ZM8.40574 12.1161V9.37436L9.73275 9.10019C9.83058 9.08021 9.9211 9.0339 9.99454 8.96626C10.068 8.89861 10.1216 8.8122 10.1495 8.71634C10.3023 8.17937 10.5176 7.6622 10.7911 7.17547C10.8392 7.09211 10.8645 6.99755 10.8645 6.9013C10.8645 6.80504 10.8392 6.71048 10.7911 6.62712L10.0289 5.51945L11.9591 3.59474L13.0887 4.34049C13.172 4.38862 13.2666 4.41396 13.3628 4.41396C13.4591 4.41396 13.5537 4.38862 13.637 4.34049C14.1229 4.06666 14.6403 3.85306 15.1779 3.70441C15.2737 3.67647 15.3602 3.62289 15.4278 3.54945C15.4954 3.47601 15.5418 3.38549 15.5617 3.28766L15.8359 1.96065H18.5777L18.8518 3.28766C18.8718 3.38549 18.9181 3.47601 18.9858 3.54945C19.0534 3.62289 19.1398 3.67647 19.2357 3.70441C19.7723 3.85836 20.2893 4.07364 20.7766 4.34598C20.8599 4.39411 20.9545 4.41944 21.0507 4.41944C21.147 4.41944 21.2415 4.39411 21.3249 4.34598L22.4764 3.60022L24.4012 5.53042L23.6554 6.66002C23.6073 6.74338 23.5819 6.83794 23.5819 6.9342C23.5819 7.03045 23.6073 7.12501 23.6554 7.20837C23.9237 7.69693 24.137 8.2137 24.2915 8.74924C24.3186 8.84612 24.3718 8.93368 24.4453 9.00235C24.5188 9.07102 24.6097 9.11814 24.7082 9.13857L26.0352 9.41275V12.1545L24.6699 12.4287C24.572 12.4487 24.4815 12.495 24.4081 12.5626C24.3346 12.6303 24.281 12.7167 24.2531 12.8125C24.0987 13.3489 23.8835 13.8659 23.6115 14.3534C23.5634 14.4368 23.5381 14.5313 23.5381 14.6276C23.5381 14.7238 23.5634 14.8184 23.6115 14.9017L24.3957 16.0643L22.4764 17.9835L21.3414 17.2322C21.258 17.1841 21.1634 17.1588 21.0672 17.1588C20.9709 17.1588 20.8764 17.1841 20.793 17.2322C20.3062 17.5042 19.789 17.7177 19.2521 17.8683C19.1553 17.8954 19.0677 17.9486 18.999 18.0221C18.9304 18.0956 18.8832 18.1866 18.8628 18.2851L18.5886 19.6121H15.8469L15.5727 18.2577C15.5523 18.1592 15.5051 18.0682 15.4365 17.9947C15.3678 17.9212 15.2802 17.868 15.1834 17.8409C14.6468 17.687 14.1298 17.4717 13.6425 17.1993C13.5591 17.1512 13.4646 17.1259 13.3683 17.1259C13.2721 17.1259 13.1775 17.1512 13.0941 17.1993L11.9591 17.9451L10.0179 16.0643L10.7637 14.9346C10.816 14.8537 10.8461 14.7604 10.8509 14.6642C10.8557 14.5679 10.8351 14.472 10.7911 14.3863C10.5176 13.8996 10.3023 13.3824 10.1495 12.8454C10.1224 12.7486 10.0692 12.661 9.99572 12.5923C9.92222 12.5237 9.83125 12.4765 9.73275 12.4561L8.40574 12.1161ZM23.3757 36.5891C23.3075 36.6942 23.2773 36.8196 23.2903 36.9444C23.3032 37.0691 23.3586 37.1856 23.447 37.2745L23.8254 37.6583C23.5457 37.9709 23.277 38.2835 22.9645 38.596C22.8711 38.6958 22.8183 38.8268 22.8164 38.9634L22.6245 46.5526H10.4127V38.3273C10.4128 38.2375 10.3909 38.149 10.3488 38.0697C10.3068 37.9903 10.2459 37.9225 10.1714 37.8722C10.0984 37.8222 10.0144 37.7906 9.9266 37.7801C9.83875 37.7696 9.74967 37.7805 9.66695 37.8119C6.95261 38.8592 5.1924 38.2835 4.57276 37.9983V29.6085C4.57466 29.4779 4.52986 29.3509 4.44642 29.2504C4.36297 29.1498 4.24638 29.0824 4.11763 29.0602L1.18395 28.5722C1.16345 28.5697 1.14398 28.5618 1.12758 28.5493C1.11118 28.5367 1.09845 28.52 1.09073 28.5009C1.07957 28.4827 1.07367 28.4619 1.07367 28.4406C1.07367 28.4193 1.07957 28.3984 1.09073 28.3802L4.44116 24.1086C4.47904 24.0608 4.50869 24.0071 4.5289 23.9496L6.57425 18.1096V18.0493C7.07402 16.4423 8.07279 15.0363 9.42568 14.0354C9.50245 14.2218 9.5847 14.4046 9.67243 14.5837L8.86087 15.8175C8.79189 15.9221 8.7608 16.0471 8.77277 16.1718C8.78474 16.2965 8.83906 16.4134 8.92668 16.5029L11.5094 19.0637C11.5986 19.1536 11.7162 19.2097 11.8421 19.2227C11.9681 19.2357 12.0946 19.2047 12.2003 19.135L13.4341 18.3235C13.8076 18.5105 14.1943 18.67 14.5911 18.8005L14.8873 20.2482C14.9129 20.3739 14.9818 20.4867 15.082 20.5668C15.1822 20.647 15.3073 20.6894 15.4356 20.6869H19.0602C19.1877 20.6897 19.3123 20.648 19.4123 20.5689C19.5124 20.4899 19.5818 20.3784 19.6086 20.2537L19.8498 18.806C20.2459 18.6735 20.6325 18.5141 21.0069 18.3289L22.2352 19.1405C22.3403 19.2109 22.4664 19.2428 22.5924 19.2308C22.7183 19.2188 22.8362 19.1637 22.9261 19.0747L25.4869 16.5194C25.5767 16.4302 25.6329 16.3126 25.6459 16.1867C25.6589 16.0607 25.6279 15.9342 25.5582 15.8285L24.7466 14.5947C24.9301 14.2523 25.0877 13.8967 25.2182 13.5309C26.6197 14.6736 27.7146 16.1473 28.4041 17.819C28.9681 19.1697 29.3195 20.5995 29.446 22.0577C29.4439 22.0778 29.4439 22.098 29.446 22.1181L29.1499 23.5657C28.7534 23.6972 28.3668 23.8566 27.9929 24.0428L26.7591 23.2312C26.6545 23.1622 26.5294 23.1311 26.4047 23.1431C26.28 23.1551 26.1632 23.2094 26.0736 23.297L23.5128 25.8523C23.423 25.9416 23.3668 26.0591 23.3538 26.1851C23.3408 26.311 23.3718 26.4376 23.4415 26.5433L24.2531 27.7771C24.0629 28.1498 23.9016 28.5366 23.7706 28.9341L22.2681 29.2247C22.1423 29.2503 22.0296 29.3192 21.9494 29.4194C21.8693 29.5196 21.8268 29.6448 21.8294 29.773V33.3867C21.8268 33.515 21.8693 33.6401 21.9494 33.7403C22.0296 33.8405 22.1423 33.9094 22.2681 33.935L23.7102 34.2311C23.8418 34.6276 24.0012 35.0142 24.1873 35.3882L23.3757 36.5891ZM40.5337 32.9535L39.2067 33.2277C39.1088 33.2476 39.0183 33.2939 38.9449 33.3616C38.8714 33.4292 38.8178 33.5157 38.7899 33.6115C38.636 34.1481 38.4207 34.6651 38.1483 35.1524C38.1002 35.2357 38.0749 35.3303 38.0749 35.4266C38.0749 35.5228 38.1002 35.6174 38.1483 35.7007L38.927 36.8523L36.9968 38.777L35.8562 38.0312C35.7729 37.9831 35.6783 37.9578 35.5821 37.9578C35.4858 37.9578 35.3912 37.9831 35.3079 38.0312C34.8215 38.3041 34.3042 38.5176 33.767 38.6673C33.6701 38.6944 33.5826 38.7476 33.5139 38.8211C33.4452 38.8946 33.3981 38.9856 33.3777 39.0841L33.1035 40.4111H30.3617L30.0876 39.0841C30.0676 38.9862 30.0213 38.8957 29.9536 38.8223C29.886 38.7488 29.7996 38.6952 29.7037 38.6673C29.1665 38.5032 28.6496 38.2788 28.1629 37.9983C28.0795 37.9502 27.9849 37.9249 27.8887 37.9249C27.7924 37.9249 27.6979 37.9502 27.6145 37.9983L26.463 38.766L24.5382 36.8413L25.284 35.7117C25.3321 35.6283 25.3575 35.5338 25.3575 35.4375C25.3575 35.3413 25.3321 35.2467 25.284 35.1633C25.0179 34.6725 24.8117 34.1515 24.6699 33.6115C24.6428 33.5146 24.5896 33.4271 24.5161 33.3584C24.4426 33.2897 24.3516 33.2426 24.2531 33.2222L22.9261 32.948V30.2062L24.2531 29.9376C24.3509 29.9176 24.4415 29.8713 24.5149 29.8036C24.5883 29.736 24.6419 29.6496 24.6699 29.5537C24.8262 29.018 25.0414 28.5012 25.3114 28.0128C25.3596 27.9295 25.3849 27.8349 25.3849 27.7387C25.3849 27.6424 25.3596 27.5478 25.3114 27.4645L24.5711 26.3294L26.4959 24.4047L27.6255 25.1559C27.7088 25.2041 27.8034 25.2294 27.8996 25.2294C27.9959 25.2294 28.0905 25.2041 28.1738 25.1559C28.6611 24.8836 29.1781 24.6683 29.7147 24.5144C29.8116 24.4873 29.8991 24.4341 29.9678 24.3606C30.0365 24.2871 30.0836 24.1961 30.104 24.0976L30.3782 22.7761H33.12L33.3886 24.1031C33.4091 24.2016 33.4562 24.2926 33.5249 24.3661C33.5935 24.4396 33.6811 24.4928 33.778 24.5198C34.3142 24.6748 34.8311 24.89 35.3188 25.1614C35.4022 25.2095 35.4968 25.2349 35.593 25.2349C35.6893 25.2349 35.7838 25.2095 35.8672 25.1614L37.0023 24.4157L38.927 26.3294L38.1758 27.459C38.1276 27.5424 38.1023 27.6369 38.1023 27.7332C38.1023 27.8294 38.1276 27.924 38.1758 28.0074C38.4481 28.4946 38.6634 29.0117 38.8173 29.5482C38.8453 29.6441 38.8988 29.7305 38.9723 29.7981C39.0457 29.8658 39.1362 29.9121 39.2341 29.9321L40.5556 30.2062L40.5337 32.9535Z" fill="#DAA7EE"/>
<path d="M33.8723 26.6801C32.9034 26.2528 31.8294 26.1226 30.7864 26.3059C29.7434 26.4892 28.7783 26.9778 28.0131 27.7098C27.2479 28.4419 26.717 29.3845 26.4878 30.4183C26.2585 31.4522 26.3411 32.5308 26.7251 33.5177C27.1091 34.5046 27.7773 35.3554 28.645 35.9624C29.5128 36.5695 30.5411 36.9054 31.5998 36.9277C32.6586 36.9501 33.7001 36.6578 34.5927 36.088C35.4853 35.5181 36.1888 34.6963 36.6141 33.7265C37.1834 32.4283 37.2144 30.9573 36.7004 29.6363C36.1864 28.3153 35.1693 27.2521 33.8723 26.6801ZM35.6325 33.2604C35.1543 34.2481 34.3131 35.0128 33.2844 35.395C32.2557 35.7771 31.1192 35.747 30.1121 35.3111C29.1051 34.8752 28.3054 34.067 27.88 33.0555C27.4547 32.0439 27.4366 30.9071 27.8295 29.8825C28.0488 29.3712 28.3672 28.9083 28.7662 28.5206C29.1652 28.1328 29.6371 27.8279 30.1545 27.6233C30.6505 27.4282 31.1788 27.3277 31.7118 27.3272C32.2971 27.3258 32.8762 27.4472 33.4117 27.6836C34.4497 28.132 35.2672 28.9741 35.6847 30.025C36.1021 31.0758 36.0853 32.2493 35.638 33.2878L35.6325 33.2604Z" fill="#DAA7EE"/>
<path d="M50.1844 11.0576L48.9342 10.2735C48.9497 9.85619 48.935 9.43836 48.8903 9.02321L50.0857 8.15133C50.1873 8.07694 50.2603 7.96982 50.2922 7.84799C50.3242 7.72616 50.3132 7.59705 50.2612 7.48234L48.7587 4.19223C48.7064 4.07768 48.6162 3.98462 48.5034 3.9287C48.3906 3.87278 48.2619 3.8574 48.1391 3.88516L46.6969 4.21417C46.4146 3.90711 46.1084 3.62291 45.7812 3.36422L46.0115 1.90561C46.0307 1.7808 46.0063 1.65317 45.9424 1.54428C45.8785 1.43538 45.7789 1.35189 45.6605 1.3079L42.2717 0.0357268C42.1535 -0.009149 42.0235 -0.0118292 41.9036 0.0281396C41.7837 0.0681085 41.6813 0.148272 41.6137 0.255068L40.8295 1.50531C40.4123 1.48988 39.9944 1.50454 39.5793 1.54918L38.7129 0.359254C38.6414 0.252574 38.5347 0.174378 38.4114 0.138302C38.2882 0.102226 38.1562 0.110559 38.0384 0.161848L34.7483 1.65885C34.6326 1.71135 34.5388 1.80238 34.4828 1.9164C34.4268 2.03041 34.4121 2.16033 34.4412 2.28397L34.7702 3.72065C34.4642 4.00564 34.1783 4.31163 33.9148 4.6364L32.4562 4.40609C32.3314 4.38682 32.2038 4.41121 32.0949 4.47515C31.986 4.53909 31.9025 4.63866 31.8585 4.75704L30.5918 8.16778C30.5474 8.28655 30.5456 8.41702 30.5866 8.53699C30.6276 8.65696 30.7089 8.75902 30.8166 8.8258L32.0669 9.60995C32.0486 10.0272 32.0633 10.4452 32.1107 10.8602L30.9153 11.7321C30.8137 11.8065 30.7408 11.9136 30.7088 12.0354C30.6769 12.1572 30.6878 12.2864 30.7399 12.4011L32.2423 15.6912C32.2956 15.8047 32.3861 15.8966 32.4989 15.9515C32.6116 16.0063 32.7398 16.0209 32.862 15.9928L34.3041 15.6638C34.5845 15.9725 34.8889 16.2585 35.2144 16.5192L34.9896 17.9778C34.9703 18.1026 34.9947 18.2302 35.0587 18.3391C35.1226 18.448 35.2222 18.5315 35.3405 18.5755L38.7293 19.8422C38.7897 19.877 38.8572 19.8976 38.9268 19.9025C39.019 19.9018 39.1096 19.8778 39.1901 19.8327C39.2706 19.7877 39.3385 19.723 39.3874 19.6448L40.1715 18.3945C40.5888 18.4102 41.0066 18.3955 41.4218 18.3507L42.2936 19.5406C42.368 19.6422 42.4751 19.7152 42.597 19.7471C42.7188 19.7791 42.8479 19.7681 42.9626 19.7161L46.2527 18.2191C46.3684 18.1666 46.4623 18.0755 46.5183 17.9615C46.5743 17.8475 46.589 17.7176 46.5598 17.594L46.2308 16.1573C46.5365 15.8736 46.8206 15.5675 47.0807 15.2415L48.5448 15.4718C48.6696 15.4911 48.7973 15.4667 48.9062 15.4028C49.0151 15.3388 49.0986 15.2393 49.1425 15.1209L50.4092 11.7321C50.458 11.6113 50.4621 11.477 50.4209 11.3535C50.3797 11.2299 50.2959 11.125 50.1844 11.0576ZM48.2487 14.2984L46.9327 14.09C46.8299 14.0704 46.7236 14.0807 46.6265 14.1195C46.5293 14.1584 46.4453 14.2242 46.3843 14.3093C46.0584 14.7526 45.6831 15.1573 45.2657 15.5157C45.1885 15.5818 45.1312 15.6682 45.1002 15.765C45.0692 15.8618 45.0658 15.9654 45.0902 16.064L45.3918 17.3801L42.9133 18.5097L42.1127 17.413C42.0517 17.3279 41.9677 17.2621 41.8706 17.2232C41.7734 17.1843 41.6671 17.1741 41.5643 17.1937C41.0199 17.275 40.4682 17.2953 39.9193 17.254C39.8202 17.2464 39.721 17.2658 39.6321 17.3103C39.5433 17.3547 39.4681 17.4224 39.4148 17.5062L38.691 18.6523L36.1411 17.7091L36.3495 16.3711C36.3697 16.2689 36.3603 16.1629 36.3224 16.0658C36.2845 15.9687 36.2197 15.8844 36.1356 15.8228C35.6846 15.4941 35.2741 15.1131 34.9128 14.6877C34.8473 14.6095 34.7613 14.5511 34.6644 14.5192C34.5675 14.4872 34.4637 14.4829 34.3645 14.5067L33.0429 14.8083L31.9133 12.3298L33.01 11.5347C33.0951 11.4737 33.161 11.3897 33.1998 11.2925C33.2387 11.1954 33.249 11.0891 33.2294 10.9863C33.1498 10.4417 33.1314 9.88994 33.1745 9.34126C33.1826 9.24078 33.1628 9.14002 33.1174 9.05005C33.0719 8.96008 33.0025 8.88439 32.9168 8.83129L31.7982 8.13488L32.7523 5.58505L34.0903 5.79342C34.1931 5.813 34.2994 5.80275 34.3965 5.76388C34.4937 5.72501 34.5777 5.65915 34.6386 5.57408C34.9704 5.12719 35.3511 4.71886 35.7737 4.35674C35.8519 4.29121 35.9103 4.20518 35.9422 4.10831C35.9742 4.01144 35.9785 3.90757 35.9547 3.80839L35.6366 2.49234L38.1152 1.36274L38.9158 2.45944C38.9745 2.53986 39.054 2.60276 39.1458 2.6414C39.2376 2.68005 39.3382 2.69297 39.4367 2.67878C39.9811 2.59749 40.5329 2.57726 41.0818 2.61846C41.1817 2.62709 41.2821 2.60813 41.372 2.56366C41.462 2.51918 41.5379 2.45089 41.5917 2.36622L42.3156 1.22017L44.8654 2.1743L44.657 3.51228C44.6369 3.61455 44.6463 3.72046 44.6842 3.81758C44.722 3.9147 44.7868 3.99901 44.8709 4.06063C45.3196 4.39217 45.7297 4.7729 46.0937 5.19572C46.1592 5.2739 46.2453 5.33225 46.3421 5.36422C46.439 5.39619 46.5429 5.4005 46.6421 5.37667L47.9636 5.07508L49.0932 7.55363L47.9965 8.34874C47.9114 8.40968 47.8456 8.4937 47.8067 8.59086C47.7678 8.68803 47.7576 8.79429 47.7772 8.89709C47.8612 9.44123 47.8814 9.99331 47.8375 10.5421C47.8294 10.6426 47.8492 10.7434 47.8947 10.8334C47.9401 10.9233 48.0095 10.999 48.0952 11.0521L49.2412 11.7705L48.2487 14.2984Z" fill="#DAA7EE"/>
<path d="M40.5009 4.58691H40.4076C39.0165 4.64136 37.7012 5.2352 36.7404 6.24263C35.7795 7.25006 35.2485 8.59196 35.2599 9.9841C35.2714 11.3762 35.8242 12.7093 36.8015 13.7008C37.7787 14.6924 39.1035 15.2646 40.4954 15.2962H40.5721C41.275 15.2905 41.9698 15.1463 42.6169 14.872C43.264 14.5978 43.8508 14.1987 44.3437 13.6977C44.8366 13.1966 45.2259 12.6034 45.4896 11.9519C45.7532 11.3003 45.8859 10.6033 45.8802 9.90044C45.8744 9.19762 45.7303 8.50281 45.456 7.85569C45.1817 7.20857 44.7827 6.62181 44.2816 6.12892C43.7806 5.63602 43.1874 5.24664 42.5358 4.983C41.8843 4.71936 41.1872 4.58664 40.4844 4.5924L40.5009 4.58691ZM43.5607 12.8999C43.1727 13.3028 42.709 13.625 42.1961 13.848C41.6832 14.071 41.1313 14.1905 40.5721 14.1995H40.5009C39.397 14.1702 38.3476 13.7135 37.5738 12.9256C36.8001 12.1377 36.3625 11.0802 36.3533 9.97599C36.344 8.87175 36.7639 7.80706 37.5243 7.00633C38.2847 6.20559 39.3263 5.73137 40.4296 5.68362C40.9884 5.67058 41.5441 5.76964 42.064 5.97496C42.5839 6.18027 43.0574 6.48768 43.4565 6.87902C43.8606 7.26751 44.184 7.73202 44.4081 8.24588C44.6322 8.75973 44.7525 9.3128 44.7622 9.8733C44.7719 10.4338 44.6707 10.9907 44.4645 11.512C44.2583 12.0333 43.9511 12.5087 43.5607 12.9109V12.8999Z" fill="#DAA7EE"/>
</svg>
