<svg width="20" height="20" viewBox="0 0 20 20" fill="none" xmlns="http://www.w3.org/2000/svg">
<path d="M10.418 0.0117188C14.4792 0.223408 17.7537 3.41636 18.082 7.44629C19.2371 7.77806 19.9836 8.9352 19.7725 10.1504L19.7705 10.165L19.7676 10.1797C19.5203 11.3332 18.496 12.1552 17.3154 12.1357V12.1367H17.2949V12.251C17.273 16.2649 14.0119 19.5039 9.99902 19.5039C5.96487 19.5038 2.69678 16.2362 2.69629 12.2021V12.1338C1.53161 12.1315 0.525564 11.32 0.289062 10.1738L0.288086 10.1689C0.256342 10.01 0.248047 9.86132 0.248047 9.73242V9.72754L0.261719 9.48438C0.36493 8.53266 1.02802 7.74823 1.91504 7.46973C2.24323 3.2916 5.73924 0.00674016 9.99902 0H10.001L10.418 0.0117188ZM4.2002 12.2021C4.20069 15.4057 6.7954 18.0009 9.99902 18.001C13.1842 18.0009 15.7713 15.4306 15.791 12.2471V12.1436H4.2002V12.2021ZM10 1.50391C9.41358 1.50494 8.84508 1.58255 8.30371 1.72656V4.84082H6.7998V2.33301C4.97552 3.34574 3.68159 5.19433 3.43555 7.36035H6.27832V8.86426H3.3916V8.87012L2.63379 8.86426C2.1515 8.86088 1.75543 9.25117 1.75195 9.73828C1.7522 9.79809 1.75536 9.84054 1.76172 9.87305C1.85632 10.3247 2.25841 10.6436 2.72461 10.6328H17.333C17.7876 10.6435 18.1916 10.3295 18.2939 9.87402C18.3644 9.41043 18.06 8.97476 17.6045 8.87793C17.5182 8.86972 17.4383 8.86426 17.3604 8.86426H14V7.36035H16.5645C16.3184 5.19433 15.0245 3.34574 13.2002 2.33301V4.84082H11.6963V1.72656C11.1549 1.58255 10.5864 1.50494 10 1.50391Z" fill="url(#paint0_linear_558_647)"/>
<defs>
<linearGradient id="paint0_linear_558_647" x1="10.0281" y1="0" x2="10.0281" y2="19.5039" gradientUnits="userSpaceOnUse">
<stop stop-color="#E527BB"/>
<stop offset="1" stop-color="#A78BEF"/>
</linearGradient>
</defs>
</svg>
