<svg width="37" height="38" viewBox="0 0 37 38" fill="none" xmlns="http://www.w3.org/2000/svg">
<path d="M12.1952 6.94991C12.1952 6.66014 12.4301 6.42524 12.7199 6.42524H24.9395C25.2293 6.42524 25.4642 6.66014 25.4642 6.94991C25.4642 7.23968 25.2293 7.47458 24.9395 7.47458H12.7199C12.4301 7.47458 12.1952 7.23968 12.1952 6.94991ZM36.0669 21.6965V23.9908C36.0669 24.6955 35.4935 25.269 34.7887 25.269C33.798 25.269 33.1788 25.9117 32.9296 26.5131C32.6805 27.1146 32.6639 28.007 33.3644 28.7075C33.8628 29.2059 33.8628 30.0169 33.3644 30.5152L31.7421 32.1376C31.5007 32.379 31.1797 32.512 30.8382 32.512C30.4967 32.512 30.1758 32.379 29.9344 32.1376C29.7839 31.9871 29.6242 31.8714 29.4608 31.7823V36.5019C29.4608 36.7917 29.2259 37.0266 28.9361 37.0266H0.524669C0.234902 37.0266 0 36.7917 0 36.5019V6.37465C0 6.23554 0.05524 6.10204 0.153653 6.00363L6.00363 0.153653C6.10204 0.0552401 6.23554 0 6.37465 0H28.9361C29.2258 0 29.4607 0.234902 29.4607 0.524669V13.9051C29.6242 13.8159 29.7839 13.7003 29.9344 13.5497C30.1757 13.3083 30.4967 13.1753 30.8382 13.1753C31.1797 13.1753 31.5007 13.3083 31.7421 13.5497L33.3645 15.172C33.8629 15.6704 33.8629 16.4813 33.3645 16.9798C32.664 17.6803 32.6806 18.5726 32.9297 19.1741C33.1788 19.7755 33.798 20.4182 34.7887 20.4182C35.4935 20.4183 36.0669 20.9917 36.0669 21.6965ZM1.79137 5.84998H5.84998V1.79129L1.79137 5.84998ZM28.4114 35.9773V31.5505C28.1677 31.5649 27.9379 31.6207 27.74 31.7028C27.1386 31.9519 26.4958 32.5711 26.4958 33.5618C26.4958 34.2666 25.9224 34.8401 25.2176 34.8401H22.9234C22.2186 34.8401 21.6451 34.2667 21.6451 33.5618C21.6451 32.5696 21.0028 31.95 20.4017 31.701C19.8006 31.4519 18.9082 31.4359 18.2066 32.1376C17.7082 32.636 16.8973 32.636 16.3989 32.1376L14.7765 30.5152C14.7299 30.4686 14.6891 30.4185 14.6511 30.3669H3.80025C3.51048 30.3669 3.27558 30.132 3.27558 29.8422C3.27558 29.5525 3.51048 29.3176 3.80025 29.3176H14.4383C14.4907 29.094 14.6026 28.8816 14.7766 28.7075C15.4771 28.007 15.4606 27.1146 15.2114 26.5131C15.1259 26.3067 14.9956 26.0959 14.8228 25.9073H3.80025C3.51048 25.9073 3.27558 25.6724 3.27558 25.3826C3.27558 25.0929 3.51048 24.858 3.80025 24.858H12.4161C12.2046 24.6298 12.0741 24.3256 12.0741 23.9908V21.6965C12.0741 21.6114 12.0829 21.5283 12.0989 21.4478H3.80025C3.51048 21.4478 3.27558 21.2129 3.27558 20.9231C3.27558 20.6333 3.51048 20.3984 3.80025 20.3984H13.6346C14.461 20.2898 14.987 19.7161 15.2114 19.1742C15.4596 18.5751 15.4765 17.6875 14.7844 16.9882H3.80025C3.51048 16.9882 3.27558 16.7533 3.27558 16.4636C3.27558 16.1738 3.51048 15.9389 3.80025 15.9389H14.4108C14.4408 15.6587 14.5622 15.3864 14.7766 15.1721L16.399 13.5497C16.8973 13.0514 17.7083 13.0514 18.2067 13.5497C18.9073 14.2502 19.7995 14.2336 20.4011 13.9845C20.9161 13.7712 21.46 13.2856 21.6061 12.5287H3.80025C3.51048 12.5287 3.27558 12.2938 3.27558 12.004C3.27558 11.7143 3.51048 11.4794 3.80025 11.4794H21.8225C22.0449 11.1019 22.4545 10.8473 22.9234 10.8473H25.2177C25.9224 10.8473 26.4959 11.4207 26.4959 12.1255C26.4959 13.1162 27.1386 13.7354 27.74 13.9845C27.938 14.0665 28.1677 14.1224 28.4115 14.1367V1.04934H6.89932V6.37465C6.89932 6.66441 6.66441 6.89932 6.37465 6.89932H1.04934V35.9773H28.4114ZM35.0176 21.6965C35.0176 21.5703 34.9149 21.4676 34.7887 21.4676C33.5274 21.4676 32.4436 20.7427 31.9602 19.5757C31.4768 18.4087 31.7305 17.1297 32.6224 16.2378C32.7117 16.1485 32.7117 16.0033 32.6224 15.914L31 14.2917C30.9417 14.2334 30.8736 14.2247 30.8381 14.2247C30.8028 14.2247 30.7346 14.2334 30.6763 14.2917C29.7845 15.1836 28.5055 15.4375 27.3384 14.954C26.1714 14.4706 25.4464 13.3868 25.4464 12.1255C25.4464 11.9992 25.3437 11.8966 25.2175 11.8966H22.9233C22.7971 11.8966 22.6944 11.9993 22.6944 12.1255C22.6944 13.3868 21.9694 14.4706 20.8024 14.954C19.6353 15.4374 18.3564 15.1836 17.4645 14.2917C17.3753 14.2026 17.23 14.2026 17.1408 14.2917L15.5184 15.9141C15.4292 16.0034 15.4292 16.1486 15.5184 16.2379C16.4103 17.1298 16.6641 18.4087 16.1806 19.5758C15.752 20.6108 14.8505 21.2968 13.7722 21.439C13.7495 21.4431 13.7262 21.4455 13.7026 21.4466C13.5874 21.4592 13.4709 21.4676 13.3521 21.4676C13.2259 21.4676 13.1232 21.5703 13.1232 21.6965V23.9908C13.1232 24.117 13.2259 24.2197 13.3521 24.2197C14.6134 24.2197 15.6973 24.9446 16.1806 26.1116C16.664 27.2786 16.4103 28.5576 15.5184 29.4496C15.4292 29.5388 15.4292 29.684 15.5184 29.7733L17.1408 31.3956C17.23 31.4848 17.3753 31.4848 17.4645 31.3956C18.0581 30.802 18.8226 30.4906 19.6113 30.4906C20.0088 30.4906 20.4123 30.5697 20.8032 30.7316C21.9697 31.2148 22.6944 32.2993 22.6944 33.5618C22.6944 33.6881 22.7971 33.7908 22.9233 33.7908H25.2175C25.3437 33.7908 25.4464 33.6881 25.4464 33.5618C25.4464 32.3005 26.1714 31.2167 27.3383 30.7334C28.5053 30.2499 29.7844 30.5037 30.6762 31.3956C30.7346 31.4539 30.8027 31.4626 30.8381 31.4626C30.8735 31.4626 30.9417 31.4539 30.9999 31.3956L32.6223 29.7731C32.7116 29.6839 32.7116 29.5387 32.6223 29.4494C31.7305 28.5576 31.4767 27.2786 31.9601 26.1115C32.4435 24.9445 33.5273 24.2195 34.7886 24.2195C34.9148 24.2195 35.0175 24.1168 35.0175 23.9906V21.6965H35.0176ZM30.2012 22.8436C30.2012 26.2241 27.451 28.9743 24.0705 28.9743C20.6901 28.9743 17.9398 26.2241 17.9398 22.8436C17.9398 19.4632 20.6901 16.7129 24.0705 16.7129C27.451 16.7129 30.2012 19.4632 30.2012 22.8436ZM29.1519 22.8436C29.1519 20.0417 26.8723 17.7623 24.0705 17.7623C21.2687 17.7623 18.9892 20.0418 18.9892 22.8436C18.9892 25.6454 21.2687 27.925 24.0705 27.925C26.8723 27.925 29.1519 25.6455 29.1519 22.8436ZM24.0705 22.3477C23.3956 22.3477 22.8465 21.8826 22.8465 21.3109C22.8465 20.7392 23.3956 20.2741 24.0704 20.274C24.4119 20.274 25.0463 20.5505 25.1833 20.759C25.3425 21.0012 25.6678 21.0684 25.9099 20.9094C26.1521 20.7502 26.2194 20.425 26.0603 20.1828C25.7714 19.7432 25.1305 19.4292 24.5867 19.2959L24.5742 18.7741C24.5673 18.4844 24.3284 18.2556 24.0371 18.2621C23.7474 18.269 23.5182 18.5095 23.5251 18.7992L23.5366 19.2828C22.5398 19.5037 21.7971 20.3292 21.797 21.3109C21.797 22.4613 22.8168 23.3971 24.0704 23.3971C24.7452 23.3971 25.2943 23.8623 25.2943 24.434C25.2943 25.0056 24.7452 25.4709 24.0704 25.4709C23.6093 25.4709 23.3805 25.3325 22.9674 24.9427C22.7565 24.7438 22.4245 24.7536 22.2256 24.9643C22.0268 25.1751 22.0365 25.5072 22.2472 25.7061C22.6053 26.0439 22.98 26.3544 23.5559 26.4713L23.5666 26.9135C23.5735 27.1989 23.807 27.4255 24.0909 27.4255C24.0952 27.4255 24.0995 27.4255 24.1038 27.4253C24.3935 27.4184 24.6226 27.1778 24.6156 26.8881L24.6054 26.4619C25.6016 26.2405 26.3437 25.4152 26.3437 24.434C26.3438 23.2836 25.3241 22.3477 24.0705 22.3477Z" fill="#DAA7EE"/>
</svg>
