<svg width="20" height="20" viewBox="0 0 20 20" fill="none" xmlns="http://www.w3.org/2000/svg">
<g clip-path="url(#clip0_379_4126)">
<path d="M0 19.0916V6.3628C0 6.09824 0.114551 5.84459 0.316378 5.67277L6.68212 0.217973C7.02305 -0.0738581 7.52489 -0.0738581 7.86308 0.217973L14.2261 5.67277C14.4279 5.84459 14.5452 6.09824 14.5452 6.3628V12.7258C14.5452 13.2277 14.1388 13.634 13.637 13.634C13.1351 13.634 12.7288 13.2277 12.7288 12.7258V6.78009L7.27397 2.10533L1.81917 6.78009V18.1806H12.7288C13.2306 18.1806 13.637 18.587 13.637 19.0888C13.637 19.5907 13.2306 19.9971 12.7288 19.9971H0.908223C0.406382 19.9998 0 19.5934 0 19.0916ZM5.45479 7.27102C5.45479 8.2747 6.26756 9.09019 7.27397 9.09019C8.28038 9.09019 9.09314 8.27743 9.09314 7.27102C9.09314 6.26461 8.27765 5.45457 7.27397 5.45457C6.27029 5.45457 5.45479 6.26734 5.45479 7.27102ZM20 16.3642C20 15.8623 19.5936 15.4559 19.0918 15.4559H17.2726V13.6368C17.2726 13.1349 16.8662 12.7285 16.3644 12.7285C15.8625 12.7285 15.4562 13.1349 15.4562 13.6368V15.4559H13.637C13.1351 15.4559 12.7288 15.8623 12.7288 16.3642C12.7288 16.866 13.1351 17.2724 13.637 17.2724H15.4562V19.0916C15.4562 19.5934 15.8625 19.9998 16.3644 19.9998C16.8662 19.9998 17.2726 19.5934 17.2726 19.0916V17.2724H19.0918C19.5936 17.2724 20 16.866 20 16.3642Z" fill="url(#paint0_linear_379_4126)"/>
</g>
<defs>
<linearGradient id="paint0_linear_379_4126" x1="10" y1="-0.000900269" x2="10" y2="19.9998" gradientUnits="userSpaceOnUse">
<stop stop-color="#E527BB"/>
<stop offset="1" stop-color="#A78BEF"/>
</linearGradient>
<clipPath id="clip0_379_4126">
<rect width="20" height="20" fill="white"/>
</clipPath>
</defs>
</svg>
