<svg width="543" height="329" viewBox="0 0 543 329" fill="none" xmlns="http://www.w3.org/2000/svg">
<g clip-path="url(#clip0_1825_7066)">
<path opacity="0.2" d="M128.492 325.584L413.142 308.934C488.412 304.534 546.652 240.734 543.512 165.394C540.872 102.084 518.192 34.6439 441.912 5.8239C388.262 -14.4461 318.592 2.1439 274.402 35.8539C263.782 43.9539 254.022 53.2439 242.612 60.1739C216.022 76.3239 192.672 65.1739 164.972 60.8839C106.412 51.7939 47.9621 70.4639 17.7021 124.434C-28.7579 207.354 26.0421 331.574 128.492 325.584Z" fill="#999999"/>
<g clip-path="url(#clip1_1825_7066)">
<path d="M359.374 204.892H329.73V305.744H359.374V204.892Z" fill="#A78BEF"/>
<path d="M313.563 180H283.746V288.528H313.563V180Z" fill="#A78BEF"/>
<path d="M122.811 111.182H93.168V269.083H122.811V111.182Z" fill="#A78BEF"/>
<path d="M172.221 140.789H142.578V275.657H172.221V140.789Z" fill="#A78BEF"/>
<path d="M266.089 151.851H236.445V275.666H266.089V151.851Z" fill="#A78BEF"/>
<path d="M219.975 181.764H190.332V275.666H219.975V181.764Z" fill="#A78BEF"/>
<path d="M365.7 175.634L352.92 144.273C351.862 141.679 348.907 140.431 346.311 141.487C345.541 141.802 344.886 142.282 344.379 142.876C344.099 143.12 343.846 143.399 343.61 143.705L339.142 149.834L256.244 97.6924C251.637 94.6191 245.405 95.8589 242.327 100.469C242.118 100.792 241.925 101.115 241.75 101.447C241.698 101.438 241.646 101.429 241.593 101.429L231.391 116.735L130.415 58.5686C125.808 55.4953 119.576 56.7351 116.498 61.3451C113.421 65.9464 114.663 72.1716 119.278 75.2449L228.55 138.196C232.353 140.728 237.248 140.326 240.579 137.523C241.742 136.79 242.773 135.821 243.586 134.607L253.552 119.686L327.332 166.091L323.066 171.95C322.638 172.544 322.358 173.199 322.21 173.871C321.808 174.543 321.554 175.329 321.502 176.167C321.344 178.961 323.486 181.353 326.283 181.51L360.131 183.414C361.146 183.676 362.256 183.632 363.305 183.204C364.205 182.838 364.931 182.244 365.473 181.519C365.499 181.484 365.525 181.441 365.56 181.406C365.586 181.371 365.613 181.327 365.639 181.292C366.155 180.55 366.478 179.668 366.53 178.699C366.592 177.573 366.277 176.516 365.7 175.634Z" fill="#FBAB18"/>
<path d="M365.7 175.634L352.92 144.273C351.862 141.679 348.907 140.431 346.311 141.487C345.541 141.802 344.886 142.282 344.379 142.876C344.099 143.12 343.846 143.399 343.61 143.705L339.142 149.834L256.244 97.6924C251.637 94.6191 245.405 95.8589 242.327 100.469C242.118 100.792 241.925 101.115 241.75 101.447C241.698 101.438 241.646 101.429 241.593 101.429L231.391 116.735L130.415 58.5686C125.808 55.4953 119.576 56.7351 116.498 61.3451C113.421 65.9464 114.663 72.1716 119.278 75.2449L228.55 138.196C232.353 140.728 237.248 140.326 240.579 137.523C241.742 136.79 242.773 135.821 243.586 134.607L253.552 119.686L327.332 166.091L323.066 171.95C322.638 172.544 322.358 173.199 322.21 173.871C321.808 174.543 321.554 175.329 321.502 176.167C321.344 178.961 323.486 181.353 326.283 181.51L360.131 183.414C361.146 183.676 362.256 183.632 363.305 183.204C364.205 182.838 364.931 182.244 365.473 181.519C365.499 181.484 365.525 181.441 365.56 181.406C365.586 181.371 365.613 181.327 365.639 181.292C366.155 180.55 366.478 179.668 366.53 178.699C366.592 177.573 366.277 176.516 365.7 175.634Z" fill="#E527BB"/>
<path d="M327.333 160.844L253.553 114.439L243.587 129.36C242.774 130.574 241.743 131.543 240.58 132.276C237.249 135.07 232.354 135.48 228.551 132.948L119.279 69.9976C117.173 68.5919 115.783 66.5314 115.171 64.27C114.069 68.3125 115.599 72.7828 119.279 75.2362L228.551 138.187C232.354 140.719 237.249 140.317 240.58 137.515C241.743 136.781 242.774 135.812 243.587 134.599L253.553 119.677L324.72 164.441L327.333 160.844Z" fill="#CC19AA"/>
<path d="M365.63 176.054C365.603 176.088 365.577 176.132 365.551 176.167C365.525 176.202 365.499 176.246 365.464 176.281C364.93 177.005 364.196 177.599 363.296 177.966C362.247 178.393 361.136 178.437 360.122 178.175L326.274 176.272C324.535 176.176 323.049 175.207 322.209 173.818C322.209 173.836 322.201 173.845 322.201 173.862C321.798 174.534 321.545 175.32 321.493 176.158C321.335 178.952 323.477 181.345 326.274 181.502L360.122 183.405C361.136 183.667 362.247 183.623 363.296 183.196C364.196 182.829 364.922 182.235 365.464 181.51C365.49 181.475 365.516 181.432 365.551 181.397C365.577 181.362 365.603 181.318 365.63 181.283C366.145 180.541 366.469 179.659 366.521 178.69C366.583 177.625 366.294 176.63 365.778 175.783C365.735 175.888 365.691 175.975 365.63 176.054Z" fill="#CC19AA"/>
<path d="M232.957 275.666C237.144 269.965 239.627 262.927 239.627 255.314C239.627 236.298 224.189 220.879 205.149 220.879C186.101 220.879 170.672 236.298 170.672 255.314C170.672 262.936 173.155 269.965 177.342 275.666H232.957Z" fill="#E527BB"/>
<path d="M191.706 275.666H218.605C225.213 271.301 229.576 263.818 229.576 255.314C229.576 241.851 218.64 230.928 205.151 230.928C191.663 230.928 180.727 241.851 180.727 255.314C180.727 263.818 185.097 271.301 191.706 275.666Z" fill="white"/>
<path d="M213.255 248.111C213.097 247.927 212.791 247.7 212.354 247.438C211.917 247.168 211.402 246.897 210.798 246.618C210.204 246.338 209.54 246.085 208.823 245.858C208.106 245.631 207.363 245.483 206.585 245.404V252.293L207.581 252.529C208.963 252.904 210.221 253.306 211.349 253.725C212.477 254.153 213.438 254.685 214.216 255.323C215.003 255.96 215.606 256.728 216.035 257.61C216.454 258.501 216.673 259.592 216.673 260.902C216.673 262.369 216.411 263.608 215.895 264.647C215.379 265.686 214.671 266.533 213.779 267.197C212.888 267.86 211.856 268.358 210.667 268.69C209.478 269.022 208.237 269.214 206.934 269.266V273.649H204.539V269.222C202.677 269.091 200.859 268.716 199.093 268.087C197.327 267.467 195.719 266.647 194.285 265.634L196.715 260.893C196.925 261.103 197.292 261.382 197.808 261.731C198.333 262.08 198.953 262.421 199.688 262.753C200.422 263.084 201.235 263.399 202.127 263.687C203.018 263.984 203.945 264.176 204.898 264.289V257.436C204.662 257.383 204.417 257.322 204.181 257.261C203.945 257.191 203.7 257.121 203.464 257.043C202.109 256.676 200.929 256.266 199.932 255.829C198.936 255.392 198.105 254.869 197.441 254.275C196.777 253.672 196.278 252.983 195.946 252.206C195.614 251.42 195.448 250.486 195.448 249.394C195.448 248.067 195.684 246.88 196.147 245.832C196.61 244.784 197.249 243.885 198.062 243.143C198.875 242.401 199.836 241.816 200.955 241.388C202.074 240.96 203.272 240.698 204.548 240.593V236.525H206.943V240.55C208.7 240.681 210.318 241.039 211.795 241.624C213.272 242.209 214.566 242.881 215.685 243.658L213.255 248.111ZM201.121 248.504C201.121 249.403 201.436 250.093 202.057 250.555C202.677 251.018 203.63 251.437 204.906 251.804V245.352C202.38 245.518 201.121 246.565 201.121 248.504ZM210.816 261.452C210.816 260.544 210.44 259.845 209.697 259.339C208.954 258.832 207.914 258.37 206.585 257.942V264.359C209.408 264.281 210.816 263.311 210.816 261.452Z" fill="#E527BB"/>
<path d="M160.934 190.189C160.934 209.476 145.278 225.113 125.967 225.113C106.657 225.113 91 209.476 91 190.189C91 170.902 106.657 155.265 125.967 155.265C145.278 155.265 160.934 170.902 160.934 190.189Z" fill="#E527BB"/>
<path d="M150.734 190.189C150.734 203.853 139.649 214.924 125.969 214.924C112.288 214.924 101.203 203.853 101.203 190.189C101.203 176.525 112.288 165.454 125.969 165.454C139.649 165.454 150.734 176.534 150.734 190.189Z" fill="white"/>
<path d="M134.183 182.881C134.017 182.689 133.711 182.462 133.274 182.192C132.828 181.921 132.304 181.65 131.7 181.362C131.089 181.083 130.424 180.821 129.699 180.594C128.973 180.367 128.213 180.21 127.435 180.131V187.125L128.44 187.369C129.847 187.744 131.115 188.155 132.269 188.583C133.414 189.01 134.384 189.552 135.18 190.198C135.975 190.844 136.587 191.621 137.015 192.52C137.444 193.42 137.662 194.537 137.662 195.856C137.662 197.34 137.4 198.606 136.876 199.654C136.351 200.701 135.634 201.566 134.734 202.238C133.833 202.91 132.776 203.417 131.578 203.757C130.372 204.089 129.113 204.29 127.793 204.342V208.786H125.371V204.299C123.483 204.168 121.639 203.775 119.847 203.146C118.055 202.517 116.429 201.688 114.969 200.658L117.434 195.847C117.652 196.065 118.02 196.345 118.544 196.694C119.069 197.043 119.707 197.392 120.45 197.724C121.193 198.056 122.015 198.379 122.915 198.676C123.815 198.973 124.751 199.173 125.721 199.287V192.337C125.476 192.285 125.24 192.223 124.996 192.154C124.751 192.084 124.515 192.014 124.27 191.927C122.889 191.551 121.7 191.141 120.686 190.696C119.672 190.25 118.833 189.726 118.159 189.124C117.486 188.513 116.979 187.814 116.638 187.02C116.297 186.225 116.131 185.274 116.131 184.173C116.131 182.829 116.367 181.615 116.839 180.55C117.312 179.485 117.958 178.577 118.78 177.826C119.602 177.075 120.581 176.481 121.709 176.045C122.836 175.617 124.051 175.346 125.354 175.233V171.112H127.775V175.198C129.559 175.329 131.193 175.696 132.688 176.289C134.183 176.883 135.494 177.564 136.631 178.35L134.183 182.881ZM121.875 183.292C121.875 184.208 122.189 184.907 122.828 185.37C123.457 185.841 124.427 186.269 125.721 186.644V180.096C123.16 180.262 121.875 181.318 121.875 183.292ZM131.709 196.423C131.709 195.506 131.333 194.79 130.573 194.275C129.812 193.76 128.763 193.289 127.417 192.861V199.374C130.284 199.296 131.709 198.309 131.709 196.423Z" fill="#E527BB"/>
<path d="M345.247 120.987H257.69C254.14 120.987 251.177 118.289 250.836 114.762L245.32 56.2813C244.944 52.2999 248.039 48.8424 252.042 48.7639L345.116 47.0002C348.962 46.9303 352.127 50.0211 352.127 53.8715V114.116C352.127 117.914 349.05 120.987 345.247 120.987Z" fill="#A78BEF"/>
<path opacity="0.87" d="M250.915 61.5024L254.831 112.064C254.997 114.264 256.824 115.967 259.027 115.984L343.071 116.866C345.44 116.892 347.371 114.98 347.371 112.614V58.1758C347.371 55.7748 345.378 53.8452 342.974 53.9325L255.023 56.9273C252.593 57.0059 250.731 59.0839 250.915 61.5024Z" fill="white"/>
<path d="M295.788 61.0397L343.177 59.6253C343.666 59.6079 344.068 60.0008 344.068 60.4897V61.2493C344.068 61.7208 343.693 62.1049 343.22 62.1137L295.831 62.7685C295.351 62.7772 294.957 62.3843 294.957 61.9041C294.948 61.4326 295.316 61.0485 295.788 61.0397Z" fill="#E527BB"/>
<path d="M294.945 65.868V66.1911C294.945 66.6626 295.33 67.0555 295.811 67.0555H343.2C343.672 67.0555 344.065 66.6713 344.065 66.1911V65.868C344.065 65.3966 343.681 65.0037 343.2 65.0037H295.811C295.33 65.0037 294.945 65.3878 294.945 65.868Z" fill="#A78BEF"/>
<path d="M315.771 108.432C315.562 108.432 315.387 108.257 315.387 108.048V106.887C315.387 106.677 315.562 106.502 315.771 106.502C315.981 106.502 316.156 106.677 316.156 106.887V108.048C316.156 108.257 315.981 108.432 315.771 108.432ZM315.78 104.564C315.57 104.564 315.395 104.389 315.395 104.18V103.019C315.395 102.809 315.57 102.635 315.78 102.635C315.99 102.635 316.165 102.809 316.165 103.019V104.18C316.165 104.398 315.99 104.564 315.78 104.564ZM315.789 100.705C315.579 100.705 315.404 100.53 315.404 100.321V99.1595C315.404 98.95 315.579 98.7754 315.789 98.7754C315.999 98.7754 316.173 98.95 316.173 99.1595V100.321C316.173 100.53 315.999 100.705 315.789 100.705ZM315.798 96.8458C315.588 96.8458 315.413 96.6712 315.413 96.4617V95.3004C315.413 95.0909 315.588 94.9163 315.798 94.9163C316.007 94.9163 316.182 95.0909 316.182 95.3004V96.4617C316.182 96.6712 316.007 96.8458 315.798 96.8458Z" fill="#E527BB"/>
<path d="M295.961 106.939V105.778C295.961 105.568 296.136 105.393 296.346 105.393C296.555 105.393 296.73 105.568 296.73 105.778V106.939C296.73 107.148 296.555 107.323 296.346 107.323C296.136 107.332 295.961 107.157 295.961 106.939ZM295.961 103.08V101.919C295.961 101.709 296.136 101.534 296.346 101.534C296.555 101.534 296.73 101.709 296.73 101.919V103.08C296.73 103.289 296.555 103.464 296.346 103.464C296.136 103.464 295.961 103.298 295.961 103.08ZM295.961 99.2206V98.0594C295.961 97.8498 296.136 97.6752 296.346 97.6752C296.555 97.6752 296.73 97.8498 296.73 98.0594V99.2206C296.73 99.4302 296.555 99.6048 296.346 99.6048C296.136 99.6048 295.961 99.4302 295.961 99.2206ZM295.961 95.3615V94.2003C295.961 93.9907 296.136 93.8161 296.346 93.8161C296.555 93.8161 296.73 93.9907 296.73 94.2003V95.3615C296.73 95.571 296.555 95.7457 296.346 95.7457C296.136 95.7457 295.961 95.571 295.961 95.3615ZM295.961 91.4936V90.3324C295.961 90.1229 296.136 89.9482 296.346 89.9482C296.555 89.9482 296.73 90.1229 296.73 90.3324V91.4936C296.73 91.7032 296.555 91.8778 296.346 91.8778C296.136 91.8778 295.961 91.7119 295.961 91.4936Z" fill="#E527BB"/>
<path d="M281.521 110.519C281.311 110.51 281.136 110.335 281.145 110.117L281.162 109.427C281.171 109.218 281.346 109.043 281.564 109.052C281.774 109.06 281.949 109.235 281.94 109.453L281.923 110.143C281.914 110.353 281.748 110.519 281.538 110.519C281.529 110.519 281.529 110.519 281.521 110.519ZM281.626 107.131C281.416 107.122 281.241 106.948 281.25 106.729L281.285 105.568C281.293 105.358 281.468 105.184 281.687 105.193C281.897 105.201 282.071 105.376 282.063 105.594L282.028 106.755C282.019 106.965 281.853 107.131 281.643 107.131C281.634 107.131 281.634 107.131 281.626 107.131ZM281.748 103.263C281.538 103.254 281.363 103.08 281.372 102.861L281.407 101.7C281.416 101.491 281.599 101.325 281.809 101.325C282.019 101.333 282.194 101.508 282.185 101.726L282.15 102.888C282.141 103.097 281.975 103.263 281.766 103.263C281.757 103.263 281.757 103.263 281.748 103.263ZM281.87 99.4039C281.661 99.3952 281.486 99.2206 281.495 99.0023L281.529 97.8411C281.538 97.6315 281.722 97.4569 281.932 97.4656C282.141 97.4743 282.316 97.649 282.308 97.8672L282.273 99.0285C282.264 99.238 282.098 99.4039 281.888 99.4039C281.879 99.4039 281.87 99.4039 281.87 99.4039ZM281.993 95.5448C281.783 95.5361 281.608 95.3614 281.617 95.1432L281.652 93.9819C281.661 93.7724 281.835 93.6065 282.054 93.6065C282.264 93.6152 282.439 93.7898 282.43 94.0081L282.395 95.1694C282.386 95.3789 282.22 95.5448 282.01 95.5448C282.002 95.5448 281.993 95.5448 281.993 95.5448ZM282.106 91.6857C281.897 91.6769 281.722 91.5023 281.731 91.284L281.766 90.1228C281.774 89.9133 281.949 89.7299 282.168 89.7474C282.377 89.7561 282.552 89.9307 282.544 90.149L282.509 91.3102C282.5 91.5198 282.334 91.6857 282.124 91.6857C282.115 91.6857 282.115 91.6857 282.106 91.6857ZM282.229 87.8265C282.019 87.8178 281.844 87.6432 281.853 87.4249L281.888 86.2637C281.897 86.0541 282.063 85.8795 282.29 85.8883C282.5 85.897 282.675 86.0716 282.666 86.2899L282.631 87.4511C282.622 87.6607 282.456 87.8265 282.246 87.8265C282.238 87.8265 282.238 87.8265 282.229 87.8265Z" fill="#E527BB"/>
<path d="M267.07 107.969V106.808C267.07 106.598 267.245 106.424 267.455 106.424C267.665 106.424 267.84 106.598 267.84 106.808V107.969C267.84 108.179 267.665 108.353 267.455 108.353C267.245 108.353 267.07 108.187 267.07 107.969ZM267.07 104.11V102.949C267.07 102.739 267.245 102.565 267.455 102.565C267.665 102.565 267.84 102.739 267.84 102.949V104.11C267.84 104.319 267.665 104.494 267.455 104.494C267.245 104.494 267.07 104.319 267.07 104.11ZM267.07 100.251V99.0896C267.07 98.88 267.245 98.7054 267.455 98.7054C267.665 98.7054 267.84 98.88 267.84 99.0896V100.251C267.84 100.46 267.665 100.635 267.455 100.635C267.245 100.635 267.07 100.46 267.07 100.251ZM267.07 96.3829V95.2217C267.07 95.0122 267.245 94.8375 267.455 94.8375C267.665 94.8375 267.84 95.0122 267.84 95.2217V96.3829C267.84 96.5925 267.665 96.7671 267.455 96.7671C267.245 96.7671 267.07 96.6012 267.07 96.3829ZM267.07 92.5238V91.3626C267.07 91.153 267.245 90.9784 267.455 90.9784C267.665 90.9784 267.84 91.153 267.84 91.3626V92.5238C267.84 92.7334 267.665 92.908 267.455 92.908C267.245 92.908 267.07 92.7421 267.07 92.5238ZM267.07 88.6647V87.5035C267.07 87.2939 267.245 87.1193 267.455 87.1193C267.665 87.1193 267.84 87.2939 267.84 87.5035V88.6647C267.84 88.8742 267.665 89.0489 267.455 89.0489C267.245 89.0489 267.07 88.8742 267.07 88.6647ZM267.07 84.8056V83.6443C267.07 83.4348 267.245 83.2602 267.455 83.2602C267.665 83.2602 267.84 83.4348 267.84 83.6443V84.8056C267.84 85.0151 267.665 85.1897 267.455 85.1897C267.245 85.1897 267.07 85.0151 267.07 84.8056ZM267.07 80.9377V79.7765C267.07 79.5669 267.245 79.3923 267.455 79.3923C267.665 79.3923 267.84 79.5669 267.84 79.7765V80.9377C267.84 81.1473 267.665 81.3219 267.455 81.3219C267.245 81.3219 267.07 81.156 267.07 80.9377ZM267.07 77.0786V75.9174C267.07 75.7078 267.245 75.5332 267.455 75.5332C267.665 75.5332 267.84 75.7078 267.84 75.9174V77.0786C267.84 77.2881 267.665 77.4628 267.455 77.4628C267.245 77.4628 267.07 77.2881 267.07 77.0786Z" fill="#E527BB"/>
<path d="M262.586 112.92C262.289 112.92 262.035 112.693 262.009 112.387L258.049 65.6323C258.023 65.3092 258.259 65.0298 258.582 65.0036C258.906 64.9862 259.185 65.2132 259.212 65.5362L263.172 112.291C263.198 112.614 262.962 112.893 262.638 112.92C262.621 112.92 262.603 112.92 262.586 112.92Z" fill="#E527BB"/>
<path d="M256.859 68.0507L258.651 65.9291L260.775 67.719L260.635 66.0601L258.511 64.2615L256.719 66.3918L256.859 68.0507Z" fill="#E527BB"/>
<path d="M341.138 110.711H259.577C259.254 110.711 259 110.449 259 110.134C259 109.811 259.262 109.558 259.577 109.558H341.138C341.461 109.558 341.715 109.82 341.715 110.134C341.715 110.457 341.461 110.711 341.138 110.711Z" fill="#E527BB"/>
<path d="M338.828 112.099L340.795 110.134L338.828 108.17H340.498L342.465 110.134L340.498 112.099H338.828Z" fill="#E527BB"/>
<path d="M333.155 97.2822C333.444 97.2822 333.689 97.0727 333.732 96.7758C333.776 96.4615 333.549 96.1647 333.234 96.121C332.806 96.0599 290.102 90.2276 266.727 73.0099C266.473 72.8179 266.106 72.8702 265.914 73.1322C265.721 73.3941 265.783 73.7521 266.036 73.9442C289.656 91.3364 332.648 97.2124 333.077 97.2735C333.112 97.2822 333.129 97.2822 333.155 97.2822Z" fill="#E527BB"/>
<path d="M333.053 94.0082C333.044 94.017 333.026 94.0257 333.018 94.0344C332.773 94.2353 332.738 94.602 332.939 94.8464L334.399 96.6014L331.881 98.6095C331.628 98.8103 331.593 99.177 331.794 99.4215C331.995 99.6747 332.362 99.7183 332.607 99.5088L335.579 97.134C335.701 97.0379 335.78 96.8982 335.798 96.7411C335.815 96.5839 335.763 96.4355 335.667 96.3132L333.831 94.1043C333.638 93.8773 333.297 93.8336 333.053 94.0082Z" fill="#E527BB"/>
<path d="M423.592 200.273C423.922 199.838 423.021 198.604 421.581 197.516C420.14 196.428 418.706 195.899 418.377 196.333C418.048 196.768 418.949 198.002 420.389 199.09C421.829 200.178 423.263 200.707 423.592 200.273Z" fill="#7D97F4"/>
<path d="M333.593 120.149C333.864 120.673 335.245 120.507 336.687 119.773C338.13 119.04 339.083 118.018 338.812 117.494C338.541 116.971 337.16 117.136 335.717 117.87C334.275 118.603 333.322 119.616 333.593 120.149Z" fill="#7D97F4"/>
<path d="M391.245 299.013C391.245 299.013 391.971 303.116 392.329 307.185C392.469 308.774 391.245 310.153 389.646 310.215C384.226 310.442 372.634 310.878 368.482 310.695C367.852 310.669 367.45 310.031 367.677 309.446C367.87 308.957 368.246 308.564 368.718 308.346L387.862 299.563L391.245 299.013Z" fill="#A78BEF"/>
<path d="M391.846 296.603L391.26 301.51C391.26 301.51 387.904 303.073 385.613 301.309L387.003 295.835L391.846 296.603Z" fill="url(#paint0_linear_1825_7066)"/>
<path d="M391.399 204.29C391.652 205.573 392.754 268.28 386.04 296.376C385.926 296.839 386.162 297.31 386.6 297.485C387.631 297.904 389.65 298.515 392.063 298.594C392.815 298.62 393.479 298.131 393.698 297.415C395.612 290.893 404.809 258.23 406.006 227.025C407.344 192.154 406.006 225.838 406.006 225.838L405.22 204.281L391.399 204.29Z" fill="#231F20"/>
<path d="M413.273 301.152C413.273 301.152 414.427 303.221 415.546 308.73C415.747 309.726 415.056 310.677 414.042 310.773C412.25 310.948 409.496 311.175 407.293 311.158C406.279 311.149 405.484 310.267 405.606 309.254C405.851 307.246 406.612 303.946 408.963 301.379L413.273 301.152Z" fill="#A78BEF"/>
<path d="M414.286 294.839L412.923 302.261C412.923 302.261 411.576 303.265 408.91 302.54L409.557 294.551L414.286 294.839Z" fill="url(#paint1_linear_1825_7066)"/>
<path d="M417.968 206.211C423.457 239.292 416.779 287.977 414.523 297.511C414.383 298.096 413.911 298.541 413.326 298.637C412.32 298.803 410.668 298.943 409.034 298.463C408.474 298.297 408.072 297.79 408.054 297.206C407.748 289.505 408.299 242.209 403.185 223.515C402.923 222.573 402.346 221.743 401.542 221.176L391.62 214.13L390.859 202.736L417.968 206.211Z" fill="#231F20"/>
<path d="M382.25 143.172C400.843 141.313 417.593 147.844 417.593 147.844C422.497 176.42 418.449 209.371 418.449 209.371C405.712 212.707 391.35 207.328 391.35 207.328C389.234 195.384 379.356 161.778 379.356 161.778C371.322 160.783 364.696 158.469 359.25 155.405C363.411 150.594 365.369 144.465 366.217 140.841C372.039 142.649 377.197 143.679 382.25 143.172Z" fill="#A78BEF"/>
<path d="M334.798 119.826C334.632 120.358 336.59 121.179 337.735 118.987C337.779 117.931 338.417 113.426 337.787 112.57C334.431 108.004 327.936 102.285 327.936 102.285C326.834 103.368 327.743 104.433 327.743 104.433L330.899 107.716C330.243 108.903 329.439 109.907 329.054 111.348C328.766 112.439 328.941 113.6 329.492 114.596C330.042 115.591 330.803 116.883 331.511 117.896C332.875 119.808 334.798 119.826 334.798 119.826Z" fill="url(#paint2_linear_1825_7066)"/>
<path d="M332.279 109.837L335.155 112.273L336.055 114.692L333.494 117.529C333.494 117.529 332.629 112.718 331.991 111.679C331.352 110.64 331.685 110.134 332.279 109.837Z" fill="url(#paint3_linear_1825_7066)"/>
<path d="M417.741 198.728C417.741 198.728 435.242 180.096 427.27 172.622C425.731 171.182 417.094 165.079 415.451 164.843C414.629 159.115 420.748 154.924 421.474 152.104C425.495 152.654 435.933 160.067 438.433 164.267C452.114 187.212 419.839 201.67 419.839 201.67L417.741 198.728Z" fill="url(#paint4_linear_1825_7066)"/>
<path d="M396.33 122.209L404.652 144.849C404.652 144.849 399.179 149.738 391.854 145.085C391.216 144.683 390.796 144.019 390.7 143.269L389.004 130.189L396.33 122.209Z" fill="url(#paint5_linear_1825_7066)"/>
<path d="M417.74 198.728L422.181 200.212C422.154 202.299 422.696 204.071 423.964 206.245C424.13 206.534 424.489 206.638 424.786 206.481L429.804 203.862C430.555 203.469 431.464 203.548 432.138 204.063L432.653 204.456C432.776 204.543 432.767 204.726 432.645 204.814L424.593 210.497C424.593 210.497 423.772 210.917 423.186 211.082C422.95 211.152 422.696 211.082 422.513 210.917C421.167 209.633 414.82 203.233 417.74 198.728Z" fill="url(#paint6_linear_1825_7066)"/>
<path d="M410.145 145.827C447.996 152.593 456.406 179.144 423.563 201.007C422.243 199.234 420.556 198.222 418.379 198.222C431.011 179.764 430.102 168.484 412.138 166.249L410.145 145.827Z" fill="#A78BEF"/>
<path d="M382.25 143.172L379.356 161.778C354.853 159.971 340.954 144.377 333.637 120.227C336.076 120.114 337.667 119.075 338.821 117.573C350.989 132.844 365.413 141.522 382.25 143.172Z" fill="#A78BEF"/>
<path d="M403.41 210.113L398.628 147.328L394.555 146.621L399.686 209.589L403.41 210.113Z" fill="#A78BEF"/>
<path d="M403.326 140.606L406.517 144.674C400.004 148.821 394.252 149.092 387.215 143.085L390.493 140.431C398.186 142.902 399.252 142.509 403.326 140.606Z" fill="#886DE8"/>
<path d="M398.358 146.534L402.082 177.311L398.096 185.352L393.848 177.398L395.176 145.914L398.358 146.534Z" fill="#E527BB"/>
<path d="M399.783 141.758C399.669 144.089 399.529 146.386 398.716 147.241L394.555 146.709C393.734 145.137 393.34 143.111 393.227 140.78C395.132 140.614 397.396 141.077 399.783 141.758Z" fill="#E527BB"/>
<path d="M426.788 198.047C426.805 198.047 426.814 198.047 426.832 198.038C426.902 198.012 426.936 197.942 426.919 197.872C426.036 195.113 424.087 193.664 420.957 193.446C420.887 193.437 420.817 193.498 420.817 193.568C420.808 193.638 420.87 193.708 420.94 193.708C423.947 193.917 425.818 195.305 426.665 197.951C426.674 198.012 426.727 198.047 426.788 198.047Z" fill="#7D97F4"/>
<path d="M335.49 124.881C335.482 124.89 335.482 124.907 335.482 124.916C335.473 124.986 335.517 125.056 335.595 125.064C338.462 125.527 340.639 124.453 342.248 121.764C342.291 121.703 342.265 121.615 342.204 121.581C342.143 121.546 342.055 121.563 342.02 121.624C340.473 124.209 338.384 125.248 335.639 124.802C335.569 124.794 335.517 124.828 335.49 124.881Z" fill="#7D97F4"/>
<path d="M338.223 120.053C338.223 120.367 338.476 120.62 338.791 120.62C339.106 120.62 339.359 120.367 339.359 120.053C339.359 119.738 339.106 119.485 338.791 119.485C338.467 119.494 338.223 119.747 338.223 120.053Z" fill="#7D97F4"/>
<path d="M423.422 198.091C423.422 198.405 423.675 198.658 423.99 198.658C424.305 198.658 424.558 198.405 424.558 198.091C424.558 197.776 424.305 197.523 423.99 197.523C423.675 197.523 423.422 197.776 423.422 198.091Z" fill="#7D97F4"/>
<path d="M386.637 116.447C386.514 116.648 383.367 132.119 383.367 132.119L392.249 133.725L397.415 119.503C397.415 119.503 388.717 113.024 386.637 116.447Z" fill="url(#paint7_linear_1825_7066)"/>
<path d="M394.252 121.912L392.154 129.5C392.12 129.613 392.076 129.727 392.015 129.823C391.674 130.381 390.424 132.084 388.719 130.713C387.268 129.543 385.913 128.487 384.706 128.234C383.998 128.085 383.317 128.548 383.177 129.255C382.888 130.704 382.364 133.647 382.259 136.327C382.233 137 382.74 137.576 383.404 137.654C385.17 137.855 388.623 138.152 391.516 137.759C391.988 137.698 392.39 137.375 392.557 136.93C393.3 134.956 395.398 129.447 396.237 127.98C397.015 126.618 399.095 126.47 400.057 126.479C400.424 126.479 400.765 126.339 401.019 126.068C401.77 125.274 402.968 123.484 400.896 121.598C400.38 121.126 400.354 120.323 400.809 119.791C401.631 118.848 402.382 117.302 400.783 115.582C399.165 113.836 397.225 114.177 395.992 114.692C395.441 114.919 394.786 114.779 394.419 114.316C394.252 114.107 394.008 113.958 393.632 113.985C392.924 114.037 392.312 113.539 392.251 112.832C392.154 111.618 391.569 110.169 389.445 109.663C385.546 108.746 383.43 112.588 383.386 115.347C383.343 118.106 387.626 118.865 390.083 118.507C391.892 118.245 393.378 119.887 394.034 120.769C394.279 121.118 394.357 121.528 394.252 121.912Z" fill="#231F20"/>
<path d="M395.434 130.792C395.434 130.792 395.713 125.981 397.689 125.614C399.665 125.248 401.701 126.741 399.918 129.552C397.689 133.044 395.434 130.792 395.434 130.792Z" fill="url(#paint8_linear_1825_7066)"/>
</g>
</g>
<defs>
<linearGradient id="paint0_linear_1825_7066" x1="391.842" y1="298.994" x2="385.615" y2="298.994" gradientUnits="userSpaceOnUse">
<stop stop-color="#FEBBBA"/>
<stop offset="1" stop-color="#FF928E"/>
</linearGradient>
<linearGradient id="paint1_linear_1825_7066" x1="414.283" y1="298.676" x2="408.907" y2="298.676" gradientUnits="userSpaceOnUse">
<stop stop-color="#FEBBBA"/>
<stop offset="1" stop-color="#FF928E"/>
</linearGradient>
<linearGradient id="paint2_linear_1825_7066" x1="329.922" y1="103.007" x2="340.885" y2="134.367" gradientUnits="userSpaceOnUse">
<stop stop-color="#FEBBBA"/>
<stop offset="1" stop-color="#FF928E"/>
</linearGradient>
<linearGradient id="paint3_linear_1825_7066" x1="338.361" y1="123.037" x2="330.102" y2="106.356" gradientUnits="userSpaceOnUse">
<stop stop-color="#FEBBBA"/>
<stop offset="1" stop-color="#FF928E"/>
</linearGradient>
<linearGradient id="paint4_linear_1825_7066" x1="428.898" y1="153.313" x2="427.849" y2="209.985" gradientUnits="userSpaceOnUse">
<stop stop-color="#FEBBBA"/>
<stop offset="1" stop-color="#FF928E"/>
</linearGradient>
<linearGradient id="paint5_linear_1825_7066" x1="404.648" y1="134.655" x2="388.999" y2="134.655" gradientUnits="userSpaceOnUse">
<stop stop-color="#FEBBBA"/>
<stop offset="1" stop-color="#FF928E"/>
</linearGradient>
<linearGradient id="paint6_linear_1825_7066" x1="425.783" y1="153.267" x2="424.723" y2="210.573" gradientUnits="userSpaceOnUse">
<stop stop-color="#FEBBBA"/>
<stop offset="1" stop-color="#FF928E"/>
</linearGradient>
<linearGradient id="paint7_linear_1825_7066" x1="439.586" y1="158.998" x2="390.483" y2="125.779" gradientUnits="userSpaceOnUse">
<stop stop-color="#FEBBBA"/>
<stop offset="1" stop-color="#FF928E"/>
</linearGradient>
<linearGradient id="paint8_linear_1825_7066" x1="402.493" y1="148.353" x2="397.802" y2="128.074" gradientUnits="userSpaceOnUse">
<stop stop-color="#FEBBBA"/>
<stop offset="1" stop-color="#FF928E"/>
</linearGradient>
<clipPath id="clip0_1825_7066">
<rect width="542.64" height="328.79" fill="white"/>
</clipPath>
<clipPath id="clip1_1825_7066">
<rect width="361" height="266" fill="white" transform="translate(91 47)"/>
</clipPath>
</defs>
</svg>
