<svg width="543" height="329" viewBox="0 0 543 329" fill="none" xmlns="http://www.w3.org/2000/svg">
<g clip-path="url(#clip0_1761_6320)">
<path opacity="0.2" d="M128.492 325.584L413.142 308.934C488.412 304.534 546.652 240.734 543.512 165.394C540.872 102.084 518.192 34.6439 441.912 5.8239C388.262 -14.4461 318.592 2.1439 274.402 35.8539C263.782 43.9539 254.022 53.2439 242.612 60.1739C216.022 76.3239 192.672 65.1739 164.972 60.8839C106.412 51.7939 47.9621 70.4639 17.7021 124.434C-28.7579 207.354 26.0421 331.574 128.492 325.584Z" fill="#999999"/>
<g clip-path="url(#clip1_1761_6320)">
<path d="M356.01 285.789C357.951 285.789 359.322 283.848 358.592 282.05C356.491 276.887 350.563 273.344 344.919 271.653C334.985 268.68 324.463 268.733 314.102 268.252C303.758 267.79 293.094 266.686 283.997 261.719C281.042 260.099 278.282 257.98 275.95 255.505V193.212H260.853V255.505C258.503 257.98 255.761 260.099 252.806 261.719C243.708 266.686 233.044 267.79 222.701 268.252C212.357 268.715 201.818 268.662 191.884 271.653C186.24 273.344 180.312 276.887 178.211 282.05C177.481 283.848 178.852 285.789 180.792 285.789C182.163 285.789 183.516 285.789 184.887 285.789L184.673 285.753C184.851 284.079 186.169 282.691 187.7 281.996C189.231 281.284 190.94 280.127 192.631 279.985C200.892 279.255 335.946 279.255 344.189 279.985C345.863 280.127 347.59 281.284 349.121 281.996C350.652 282.709 351.987 284.079 352.147 285.753L351.933 285.789H356.01Z" fill="#E527BB"/>
<path d="M268.968 261.416H268.879C266.493 261.416 264.57 259.475 264.57 257.108V238.966C264.57 236.581 266.511 234.658 268.879 234.658H268.968C271.353 234.658 273.276 236.598 273.276 238.966V257.108C273.294 259.475 271.353 261.416 268.968 261.416Z" fill="#CE11AA"/>
<path d="M425.566 253.885C319.619 238.076 212.676 238.076 106.73 253.885C103.917 254.313 101.371 252.141 101.371 249.274V56.4311C101.371 53.5827 103.899 51.4107 106.73 51.8201C212.676 67.6293 319.619 67.6293 425.566 51.8201C428.378 51.3929 430.924 53.5648 430.924 56.4311V249.292C430.906 252.141 428.378 254.313 425.566 253.885Z" fill="#E527BB"/>
<path d="M422.111 252.693C316.646 236.421 210.13 236.421 104.664 252.693C104.664 187.284 104.664 121.875 104.664 56.4668C210.13 72.7388 316.646 72.7388 422.111 56.4668C422.111 121.875 422.111 187.284 422.111 252.693Z" fill="#D1D1FF"/>
<path d="M104.664 56.4668C104.664 121.875 104.664 187.284 104.664 252.693C113.067 251.393 121.488 250.218 129.927 249.114L179.117 65.2437C154.246 63.2142 129.428 60.2945 104.664 56.4668Z" fill="#E6E6FF"/>
<path d="M196.935 88.0671C181.019 88.0671 168.094 100.974 168.094 116.89C168.094 132.806 181.001 145.714 196.935 145.714C212.851 145.714 225.758 132.806 225.758 116.89C225.758 100.974 212.869 88.0671 196.935 88.0671ZM196.935 134.355C187.285 134.355 179.47 126.54 179.47 116.89C179.47 107.241 187.285 99.4255 196.935 99.4255C206.584 99.4255 214.4 107.241 214.4 116.89C214.4 126.54 206.584 134.355 196.935 134.355Z" fill="#A78BEF"/>
<path d="M196.936 134.355C187.465 134.355 179.774 126.825 179.489 117.425H168.113C168.398 133.109 181.181 145.731 196.936 145.731C212.674 145.731 225.475 133.109 225.76 117.425H214.384C214.099 126.825 206.408 134.355 196.936 134.355Z" fill="#E527BB"/>
<path d="M211 91.7346L206.016 101.989C211.036 105.051 214.383 110.588 214.383 116.908C214.383 117.086 214.383 117.264 214.365 117.442H225.741C225.741 117.264 225.759 117.086 225.759 116.908C225.777 106.084 219.813 96.6661 211 91.7346Z" fill="#E527BB"/>
<path d="M265.19 88.0671C249.274 88.0671 236.367 100.974 236.367 116.89C236.367 132.806 249.274 145.714 265.19 145.714C281.106 145.714 294.031 132.806 294.031 116.89C294.031 100.974 281.106 88.0671 265.19 88.0671ZM265.19 134.355C255.541 134.355 247.726 126.54 247.726 116.89C247.726 107.241 255.541 99.4255 265.19 99.4255C274.84 99.4255 282.655 107.241 282.655 116.89C282.637 126.54 274.822 134.355 265.19 134.355Z" fill="#A78BEF"/>
<path d="M265.19 99.4433C270.317 99.4433 274.928 101.669 278.133 105.194L286.536 97.5384C281.266 91.7346 273.664 88.0671 265.19 88.0671C259.475 88.0671 254.152 89.7406 249.684 92.6069L256.734 101.651C259.226 100.262 262.11 99.4433 265.19 99.4433Z" fill="#E527BB"/>
<path d="M293.995 115.84C293.746 108.808 290.951 102.399 286.536 97.5383L278.133 105.194C280.714 108.042 282.37 111.745 282.619 115.84H293.995Z" fill="#E527BB"/>
<path d="M256.717 101.651L249.667 92.6069C241.94 97.5562 236.724 106.084 236.368 115.84C236.35 116.196 236.332 116.534 236.332 116.89C236.332 124.403 239.198 131.24 243.898 136.367L252.301 128.712C249.435 125.596 247.69 121.448 247.69 116.908C247.69 116.552 247.708 116.196 247.726 115.858C248.135 109.734 251.643 104.482 256.717 101.651Z" fill="#E527BB"/>
<path d="M294.012 116.908C294.012 116.552 293.995 116.196 293.977 115.858H282.601C282.618 116.214 282.636 116.552 282.636 116.908C282.636 121.537 280.838 125.738 277.883 128.872L284.915 137.916C290.523 132.646 294.012 125.186 294.012 116.908Z" fill="#A78BEF"/>
<path d="M333.433 88.0671C317.517 88.0671 304.609 100.974 304.609 116.89C304.609 132.806 317.517 145.714 333.433 145.714C349.349 145.714 362.256 132.806 362.256 116.89C362.256 100.974 349.349 88.0671 333.433 88.0671ZM333.433 134.355C323.783 134.355 315.968 126.54 315.968 116.89C315.968 107.241 323.783 99.4255 333.433 99.4255C343.082 99.4255 350.897 107.241 350.897 116.89C350.897 126.54 343.082 134.355 333.433 134.355Z" fill="#E527BB"/>
<path d="M350.896 116.908C350.896 123.175 347.584 128.676 342.617 131.756L350.54 140.106C357.643 134.854 362.272 126.415 362.272 116.89C362.272 108.416 358.622 100.796 352.801 95.5266L344.593 103.467C348.439 106.671 350.896 111.496 350.896 116.908Z" fill="#A78BEF"/>
<path d="M192.219 198.713H159.906V203.467H192.219V198.713Z" fill="#9994FF"/>
<path d="M176.57 209.217H159.906V211.158H176.57V209.217Z" fill="white"/>
<path d="M189.906 209.217H179.277V211.158H189.906V209.217Z" fill="white"/>
<path d="M183.885 214.398V215.68H182.799V214.398H165.602V216.321H191.22V214.398H183.885Z" fill="white"/>
<path d="M164.25 214.398H159.906V216.338H164.25V214.398Z" fill="white"/>
<path d="M196.296 214.398H192.219V216.338H196.296V214.398Z" fill="white"/>
<path d="M193.59 219.561H159.906V221.501H193.59V219.561Z" fill="white"/>
<path d="M184.439 224.724H159.906V226.664H184.439V224.724Z" fill="white"/>
<path d="M196.315 224.724H186.078V226.664H196.315V224.724Z" fill="white"/>
<path d="M358.32 198.713H326.008V203.467H358.32V198.713Z" fill="#9994FF"/>
<path d="M342.672 209.217H326.008V211.158H342.672V209.217Z" fill="white"/>
<path d="M356.007 209.217H345.379V211.158H356.007V209.217Z" fill="white"/>
<path d="M349.987 214.398V215.68H348.901V214.398H331.703V216.321H357.322V214.398H349.987Z" fill="white"/>
<path d="M330.352 214.398H326.008V216.338H330.352V214.398Z" fill="white"/>
<path d="M362.397 214.398H358.32V216.338H362.397V214.398Z" fill="white"/>
<path d="M359.691 219.561H326.008V221.501H359.691V219.561Z" fill="white"/>
<path d="M350.541 224.724H326.008V226.664H350.541V224.724Z" fill="white"/>
<path d="M362.397 224.724H352.16V226.664H362.397V224.724Z" fill="white"/>
<path d="M206.426 154.811H186.184V159.618H206.426V154.811Z" fill="white"/>
<path d="M206.46 163.517H186.129V164.852H206.46V163.517Z" fill="white"/>
<path d="M206.46 169.071H186.129V170.407H206.46V169.071Z" fill="white"/>
<path d="M275.305 154.811H255.062V159.618H275.305V154.811Z" fill="white"/>
<path d="M275.358 163.517H255.027V164.852H275.358V163.517Z" fill="white"/>
<path d="M275.358 169.071H255.027V170.407H275.358V169.071Z" fill="white"/>
<path d="M344.203 154.811H323.961V159.618H344.203V154.811Z" fill="white"/>
<path d="M344.237 163.517H323.906V164.852H344.237V163.517Z" fill="white"/>
<path d="M344.237 169.071H323.906V170.407H344.237V169.071Z" fill="white"/>
<path d="M292.647 198.144H237.742V203.271H292.647V198.144Z" fill="#E527BB"/>
<path d="M270.357 208.274H237.742V209.502H270.357V208.274Z" fill="white"/>
<path d="M279.864 212.796H237.742V214.024H279.864V212.796Z" fill="white"/>
<path d="M255.438 217.157H237.742V218.386H255.438V217.157Z" fill="white"/>
<path d="M139.592 278.169L140.5 288.833L132.595 288.94L130.797 278.703L139.592 278.169Z" fill="#E59B72"/>
<path d="M158.997 301.366L130.102 301.224C129.889 300.832 129.782 300.28 129.728 299.621C129.568 297.182 130.351 293.284 130.761 290.827C130.814 290.542 130.85 290.275 130.886 290.026C130.939 289.616 130.975 289.278 130.975 289.029C130.992 287.017 132.755 287.373 132.755 287.373C135.657 290.257 139.004 285.966 140.926 287.391C140.926 287.391 141.763 287.996 144.042 290.061C146.321 292.144 150.22 293.515 153.531 294.921C157.804 296.737 159.014 298.535 159.246 299.764C159.424 300.743 158.997 301.366 158.997 301.366Z" fill="#A78BEF"/>
<path d="M158.995 301.366L130.1 301.224C129.887 300.832 129.78 300.28 129.727 299.621L159.244 299.764C159.422 300.743 158.995 301.366 158.995 301.366Z" fill="#2F3470"/>
<path d="M133.056 301.242H132.202C133.056 300.262 133.875 298.767 133.786 296.631C133.661 293.782 131.952 291.842 130.777 290.827C130.831 290.542 130.866 290.275 130.902 290.026C132.184 291.005 134.338 293.177 134.48 296.595C134.552 298.642 133.875 300.173 133.056 301.242Z" fill="#2F3470"/>
<path d="M143.544 291.77C143.331 291.77 143.135 291.628 143.081 291.414C143.028 291.165 143.17 290.898 143.437 290.845L145.236 290.399C145.485 290.328 145.752 290.489 145.805 290.756C145.859 291.005 145.716 291.272 145.449 291.325L143.651 291.753C143.616 291.753 143.58 291.77 143.544 291.77Z" fill="white"/>
<path d="M141.548 290.204C141.335 290.204 141.139 290.061 141.085 289.848C141.032 289.598 141.174 289.331 141.441 289.278L143.24 288.833C143.489 288.762 143.756 288.922 143.809 289.189C143.863 289.438 143.72 289.705 143.453 289.759L141.655 290.204C141.619 290.186 141.584 290.204 141.548 290.204Z" fill="white"/>
<path d="M145.341 292.821C145.128 292.821 144.932 292.678 144.878 292.465C144.825 292.215 144.967 291.948 145.234 291.895L147.032 291.45C147.282 291.379 147.549 291.539 147.602 291.806C147.656 292.055 147.513 292.322 147.246 292.376L145.43 292.821C145.412 292.821 145.377 292.821 145.341 292.821Z" fill="white"/>
<path d="M147.138 293.836C146.924 293.836 146.729 293.693 146.675 293.479C146.622 293.23 146.764 292.963 147.031 292.91L148.829 292.465C149.079 292.393 149.346 292.554 149.399 292.821C149.452 293.07 149.31 293.337 149.043 293.39L147.245 293.836C147.209 293.836 147.174 293.836 147.138 293.836Z" fill="white"/>
<path d="M149.099 294.779C148.885 294.779 148.69 294.637 148.636 294.423C148.583 294.174 148.725 293.907 148.992 293.853L150.808 293.408C151.057 293.355 151.324 293.497 151.378 293.764C151.431 294.013 151.289 294.28 151.022 294.334L149.224 294.779C149.17 294.779 149.135 294.779 149.099 294.779Z" fill="white"/>
<path d="M151.236 295.58C151.022 295.58 150.826 295.438 150.773 295.224C150.719 294.975 150.862 294.708 151.129 294.654L152.927 294.209C153.176 294.138 153.443 294.298 153.497 294.565C153.55 294.815 153.408 295.082 153.141 295.135L151.343 295.58C151.307 295.58 151.271 295.598 151.236 295.58Z" fill="white"/>
<path d="M140.234 222.552C140.358 223.495 140.465 224.35 140.536 225.098C140.554 225.294 140.572 225.489 140.59 225.703C141.373 235.085 140.679 267.434 140.429 277.546C140.412 277.884 140.412 278.204 140.412 278.489C140.376 279.842 140.518 281.872 140.518 281.872L130.851 282.691C130.851 282.691 130.531 280.697 130.282 279.397C130.21 279.077 130.157 278.738 130.068 278.365C129 272.97 126.685 261.416 124.727 251.286C122.057 237.524 122.626 229.353 122.626 229.353C122.626 229.353 123.178 226.077 121.113 218.101C119.404 211.496 112.087 191.218 110.04 184.24C109.63 182.833 111.037 181.302 111.037 181.302C111.037 181.302 124.46 172.044 128.982 176.175C129.338 176.495 130.531 179.575 130.745 180.02C131.296 181.16 131.955 183.029 132.65 185.379C135.587 195.064 138.987 213.152 140.234 222.552Z" fill="black"/>
<path d="M134.413 225.917C137.654 226.807 140.217 225.365 140.324 225.294C140.555 225.169 140.627 224.884 140.502 224.653C140.377 224.421 140.093 224.35 139.861 224.475C139.825 224.493 137.386 225.846 134.467 224.938C134.218 224.866 133.968 224.991 133.879 225.24C133.808 225.49 133.933 225.739 134.182 225.828C134.271 225.863 134.342 225.899 134.413 225.917Z" fill="#606060"/>
<path d="M131.384 278.952C131.206 278.97 131.046 278.863 131.028 278.685C130.992 278.436 127.307 253.155 125.972 245.553C124.85 239.162 124.476 226.593 124.441 225.845C121.414 213.793 113.438 183.065 113.367 182.744C113.332 182.584 113.421 182.406 113.599 182.37C113.759 182.335 113.937 182.424 113.972 182.602C114.061 182.904 122.037 213.704 125.064 225.739C125.064 225.756 125.064 225.792 125.082 225.81C125.082 225.934 125.455 238.949 126.595 245.464C127.912 253.066 131.615 278.347 131.651 278.614C131.669 278.774 131.562 278.934 131.384 278.952Z" fill="#606060"/>
<path d="M100.959 280.27L100.567 289.171L91.5234 289.331L92.1822 280.982L100.959 280.27Z" fill="#E59B72"/>
<path d="M89.4768 299.372C89.4768 299.443 89.4768 299.515 89.4768 299.586C89.4768 299.906 89.4946 300.173 89.5124 300.423C89.548 300.957 89.5836 301.277 89.5836 301.277H107.137C107.137 301.277 107.226 300.601 107.155 299.586C107.048 297.788 106.443 294.957 104.022 293.088C100.711 290.524 101.992 291.058 101.298 289.883C101.227 289.758 100.622 287.765 100.568 287.622C99.9984 286.411 99.4643 285.842 96.331 285.842C92.165 285.842 91.7912 287.871 91.3461 288.94C91.1681 289.385 90.9188 290.31 90.6518 291.414C90.5449 291.859 90.4381 292.34 90.3313 292.821C90.0821 294.031 89.8328 295.295 89.6726 296.31C89.4946 297.36 89.459 298.482 89.4768 299.372Z" fill="#A78BEF"/>
<path d="M89.4766 299.372C89.4766 299.443 89.4766 299.515 89.4766 299.586C89.4766 299.906 89.4944 300.173 89.5122 300.423C90.3667 299.817 90.972 299.034 91.3281 298.055C92.4141 295.1 90.7406 291.539 90.6694 291.396L90.6338 291.414C90.5269 291.859 90.4201 292.34 90.3133 292.821C90.705 294.031 91.1679 296.061 90.5269 297.788C90.3311 298.393 89.9572 298.927 89.4766 299.372Z" fill="#2F3470"/>
<path d="M89.4766 299.568C89.4944 300.565 89.5834 301.259 89.5834 301.259H107.137C107.137 301.259 107.226 300.583 107.155 299.568H89.4766Z" fill="#2F3470"/>
<path d="M95.7437 291.307C95.7793 291.307 95.8327 291.307 95.8683 291.29C98.0937 290.72 99.9274 291.201 99.9452 291.201C100.212 291.272 100.479 291.112 100.568 290.845C100.64 290.578 100.479 290.31 100.212 290.221C100.123 290.204 98.1115 289.652 95.6191 290.293C95.352 290.364 95.1918 290.631 95.263 290.898C95.3164 291.147 95.5301 291.307 95.7437 291.307Z" fill="white"/>
<path d="M95.4585 289.278C95.4941 289.278 95.5476 289.278 95.5832 289.26C97.8085 288.69 99.6423 289.171 99.6601 289.171C99.9271 289.242 100.194 289.082 100.283 288.815C100.354 288.548 100.194 288.281 99.9271 288.192C99.8381 288.174 97.8264 287.622 95.3339 288.263C95.0669 288.334 94.9066 288.601 94.9779 288.868C95.0313 289.135 95.2449 289.278 95.4585 289.278Z" fill="white"/>
<path d="M96.4898 292.892C96.5254 292.892 96.5788 292.892 96.6144 292.874C98.8398 292.304 100.674 292.785 100.691 292.785C100.958 292.856 101.225 292.696 101.314 292.429C101.386 292.162 101.225 291.895 100.958 291.806C100.869 291.788 98.8576 291.236 96.3652 291.877C96.0981 291.948 95.9379 292.215 96.0091 292.482C96.0803 292.75 96.2762 292.892 96.4898 292.892Z" fill="white"/>
<path d="M97.3804 294.69C97.416 294.69 97.4694 294.69 97.505 294.672C99.7304 294.103 101.564 294.583 101.582 294.583C101.849 294.654 102.116 294.494 102.205 294.227C102.276 293.96 102.116 293.693 101.849 293.604C101.76 293.586 99.7482 293.034 97.2558 293.675C96.9887 293.746 96.8285 294.014 96.8997 294.281C96.9531 294.548 97.1668 294.69 97.3804 294.69Z" fill="white"/>
<path d="M112.762 187.854C112.263 187.96 111.765 188.067 111.248 188.174C104.804 189.474 98.0208 190.008 93.2851 189.011C90.9529 188.512 89.4575 185.984 88.4961 183.154C88.2291 182.388 88.051 181.569 87.8374 180.804C85.5764 173.13 86.7336 166.775 86.7336 166.775L124.316 166.152C124.316 166.152 125.473 168.039 126.755 170.513C127.681 172.294 128.678 174.377 129.354 176.264C129.764 177.385 130.049 178.454 130.138 179.326C130.44 182.121 122.162 185.753 112.762 187.854Z" fill="black"/>
<path d="M110.18 226.095C110.144 227.038 110.126 227.911 110.073 228.658C110.055 228.854 110.055 229.05 110.037 229.264C109.361 238.646 103.646 270.496 101.83 280.465C101.759 280.804 101.705 281.106 101.67 281.391C101.421 282.726 101.278 283.474 101.278 283.474L91.6111 282.78C91.6111 282.78 91.5755 282.032 91.5221 280.715C91.5043 280.394 91.4865 280.038 91.4687 279.664C91.2372 274.181 90.7565 262.395 90.4005 252.087C89.902 238.076 91.7357 230.083 91.7357 230.083C91.7357 230.083 92.7861 226.932 91.985 218.724C91.3262 211.924 88.994 190.311 88.0505 183.1C87.8546 181.64 87.7656 180.483 87.7656 180.483C87.7656 180.483 102.916 176.513 106.744 181.302C107.046 181.676 107.278 182.103 107.42 182.584C107.794 183.795 108.15 185.753 108.488 188.174C109.859 198.215 110.411 216.606 110.18 226.095Z" fill="black"/>
<path d="M104.093 228C107.333 228.89 109.897 227.448 110.004 227.376C110.235 227.252 110.306 226.967 110.182 226.736C110.057 226.504 109.772 226.433 109.541 226.558C109.505 226.575 107.066 227.928 104.146 227.02C103.897 226.949 103.648 227.074 103.559 227.323C103.488 227.572 103.612 227.822 103.862 227.911C103.933 227.946 104.022 227.982 104.093 228Z" fill="#606060"/>
<path d="M101.832 280.465C101.778 280.804 101.707 281.106 101.672 281.373L91.5239 280.697C91.5061 280.376 91.4883 280.038 91.4883 279.646L101.832 280.465Z" fill="#606060"/>
<path d="M91.3994 194.263C91.2569 194.263 91.1323 194.174 91.0967 194.031C91.0611 193.871 91.1679 193.711 91.3281 193.657C91.3638 193.657 93.0907 193.23 94.871 191.77C97.2566 189.812 98.574 187.017 98.7876 183.438C98.8054 183.278 98.9479 183.136 99.1081 183.154C99.2683 183.171 99.4108 183.314 99.393 183.474C99.1081 188.156 96.9717 190.827 95.227 192.251C93.3399 193.8 91.524 194.227 91.4528 194.245C91.435 194.263 91.4172 194.263 91.3994 194.263Z" fill="#606060"/>
<path d="M92.6961 280.448C92.5181 280.448 92.3757 280.305 92.3757 280.127C92.3757 279.878 92.6605 254.313 92.5359 246.622C92.4291 240.124 93.9957 227.661 94.0848 226.914C92.9632 214.54 89.8654 182.94 89.8298 182.619C89.812 182.441 89.9366 182.299 90.1147 182.281C90.2927 182.263 90.4351 182.388 90.4529 182.566C90.4885 182.887 93.5863 214.54 94.7079 226.896C94.7079 226.914 94.7079 226.949 94.7079 226.967C94.6901 227.092 93.0522 239.999 93.159 246.622C93.2836 254.33 93.0166 279.896 92.9988 280.145C92.9988 280.305 92.8741 280.448 92.6961 280.448Z" fill="#606060"/>
<path d="M140.428 277.546C140.428 277.884 140.41 278.187 140.41 278.471L130.28 279.379C130.227 279.077 130.155 278.721 130.066 278.347L140.428 277.546Z" fill="#606060"/>
<path d="M109.825 187.907C109.718 187.889 109.611 187.818 109.576 187.711C109.504 187.551 109.593 187.373 109.754 187.302C109.807 187.284 113.296 185.877 114.382 182.068C114.436 181.907 114.596 181.801 114.774 181.854C114.934 181.907 115.041 182.068 114.988 182.246C113.813 186.358 110.145 187.836 109.985 187.889C109.914 187.907 109.86 187.907 109.825 187.907Z" fill="#606060"/>
<path d="M117.034 101.954C117.034 101.954 104.946 102.808 100.157 105.496C93.659 109.11 93.1961 131.703 90.9351 141.459C88.6919 151.215 83.9029 168.608 87.0362 176.495C88.7453 180.786 121.877 181.462 129.194 178.863C133.057 177.492 130.529 151.161 133.894 140.23C137.259 129.281 140.926 121.982 140.428 117.086C140.018 113.116 128.749 107.081 128.749 107.081L117.034 101.954Z" fill="#A78BEF"/>
<path d="M89.0485 173.202C88.8349 173.202 88.6747 173.041 88.6747 172.828C88.4966 163.926 89.9565 154.918 93.1432 145.304C96.7573 134.409 97.7186 117.941 97.7186 117.781C97.7364 117.567 97.9145 117.407 98.1281 117.424C98.3417 117.442 98.502 117.62 98.4842 117.834C98.4664 117.994 97.5228 134.569 93.8554 145.553C90.6864 155.096 89.2266 164.015 89.4224 172.828C89.4402 173.024 89.28 173.202 89.0485 173.202C89.0663 173.202 89.0663 173.202 89.0485 173.202Z" fill="#2F3470"/>
<path d="M103.147 164.745C107.064 164.745 111.443 163.641 116.09 161.434C121.52 158.87 125.472 155.683 125.508 155.648C125.668 155.505 125.703 155.256 125.561 155.096C125.419 154.918 125.169 154.9 125.009 155.042C124.974 155.078 121.075 158.211 115.734 160.722C110.838 163.036 103.663 165.297 97.3253 162.965C97.1295 162.894 96.898 163 96.8268 163.196C96.7556 163.392 96.8624 163.624 97.0583 163.695C98.9276 164.407 100.957 164.745 103.147 164.745Z" fill="#2F3470"/>
<path d="M103.932 171.475C108.115 171.475 111.587 170.335 113.937 169.267C117.035 167.861 118.815 166.33 118.904 166.258C119.064 166.116 119.082 165.867 118.94 165.706C118.797 165.546 118.548 165.528 118.388 165.671C118.317 165.724 111.231 171.742 101.243 170.513C101.03 170.495 100.834 170.638 100.798 170.851C100.781 171.065 100.923 171.261 101.137 171.297C102.098 171.421 103.042 171.475 103.932 171.475Z" fill="#2F3470"/>
<path d="M121.591 112.618C125.098 112.618 127.894 110.339 128.036 110.25C128.196 110.108 128.232 109.858 128.089 109.698C127.947 109.538 127.698 109.502 127.537 109.645C127.484 109.68 124.297 112.244 120.701 111.781C118.636 111.514 116.82 110.303 115.289 108.203C115.164 108.025 114.915 107.989 114.737 108.114C114.559 108.238 114.523 108.487 114.648 108.665C116.304 110.962 118.315 112.28 120.612 112.564C120.932 112.6 121.271 112.618 121.591 112.618Z" fill="#2F3470"/>
<path d="M135.086 91.8237C135.086 91.8237 136.136 92.0374 136.172 93.426C136.207 94.7968 135.246 96.9688 133.928 96.5237C132.593 96.0787 135.086 91.8237 135.086 91.8237Z" fill="#D17360"/>
<path d="M117.979 84.9517C117.979 84.9517 115.825 80.3229 117.267 78.1865C118.691 76.0502 119.563 77.2608 119.563 77.2608C119.563 77.2608 118.726 74.5725 120.649 73.8782C122.572 73.1839 123.427 74.8752 123.427 74.8752C123.427 74.8752 125.83 71.4926 128.358 72.632C130.886 73.7536 129.497 75.6941 129.497 75.6941C129.497 75.6941 133.948 73.1483 135.924 75.0888C137.9 77.0115 136.156 78.4002 136.156 78.4002C136.156 78.4002 140.553 76.6733 141.728 80.3585C142.921 84.0438 139.289 84.2396 139.289 84.2396C139.289 84.2396 143.953 85.2188 142.084 87.2661C140.215 89.3135 135.337 86.3404 135.337 86.3404C135.337 86.3404 120.614 82.7441 117.979 84.9517Z" fill="black"/>
<path d="M115.77 102.434C115.93 104.428 118.565 107.152 120.131 107.9C122.57 109.057 125.223 109.146 127.413 108.327L128.232 104.517L128.392 103.734L128.712 102.256L120.737 94.245L120.274 93.7821L119.971 93.4617L119.775 93.7643L119.562 94.1204L119.579 94.2984C118.12 97.8768 117.692 100.067 115.77 102.434Z" fill="#FF9783"/>
<path d="M127.574 107.526C124.049 105.853 122.696 102.185 122.215 100.191C123.728 102.06 125.722 103.485 127.752 103.698C127.965 103.716 128.179 103.734 128.393 103.734L127.574 107.526Z" fill="#D17360"/>
<path d="M128.392 103.734C128.179 103.734 127.965 103.716 127.751 103.698C123.799 103.253 119.954 98.2329 119.562 94.3163C119.562 94.2628 119.544 94.2094 119.544 94.1382C119.526 94.0136 119.526 93.8712 119.526 93.7466C119.508 93.7466 119.491 93.7287 119.473 93.7287C116.998 92.892 114.969 89.5094 116.197 87.4621C116.856 86.3583 117.675 86.1624 118.351 86.2692C118.28 85.112 118.298 84.0083 118.458 83.0647C119.099 79.326 122.98 74.6972 129.834 77.5813C136.688 80.4654 137.81 86.1802 136.493 89.5806C135.745 91.5212 135.104 93.4973 134.695 94.8503C134.552 95.2954 134.445 95.6871 134.356 95.9719C134.249 96.328 134.196 96.5238 134.196 96.5238C134.018 99.6928 132.202 103.734 128.392 103.734Z" fill="#FF9783"/>
<path d="M127.555 95.6157C127.555 95.6157 127.252 98.0904 129.282 98.6066C131.329 99.1051 131.917 97.1112 131.917 97.1112L127.555 95.6157Z" fill="#FF9783"/>
<path d="M128.714 99.4612C128.322 99.301 128.162 98.9805 128.162 98.9627C128.109 98.8737 128.162 98.7491 128.251 98.7135C128.34 98.6601 128.465 98.6957 128.5 98.8025C128.518 98.8203 128.732 99.2298 129.284 99.1586C129.39 99.1408 129.479 99.2298 129.497 99.3188C129.515 99.4256 129.426 99.5146 129.337 99.5324C129.07 99.5502 128.874 99.5146 128.714 99.4612Z" fill="#FF9783"/>
<path d="M127.554 88.4944C127.447 88.441 127.358 88.352 127.287 88.263C127.056 87.9247 127.127 87.444 127.465 87.2126C127.554 87.1592 129.477 85.8418 131.311 87.1058C131.649 87.3372 131.738 87.8179 131.506 88.1562C131.275 88.4944 130.794 88.5834 130.456 88.352C129.477 87.6755 128.338 88.441 128.338 88.4588C128.088 88.6191 127.803 88.6191 127.554 88.4944Z" fill="#FF9783"/>
<path d="M135.087 90.72C134.891 90.6131 134.749 90.4351 134.695 90.2037C134.57 89.5806 133.556 89.2779 133.289 89.2245C132.879 89.1533 132.612 88.7616 132.683 88.3521C132.755 87.9427 133.146 87.6756 133.556 87.7468C134.392 87.9071 135.87 88.5302 136.155 89.901C136.244 90.3105 135.977 90.7022 135.567 90.7912C135.407 90.809 135.229 90.7912 135.087 90.72Z" fill="#FF9783"/>
<path d="M133.894 92.5716C133.716 93.0523 133.377 93.3727 133.128 93.2837C132.879 93.1947 132.808 92.7318 132.986 92.2333C133.164 91.7526 133.502 91.4322 133.751 91.5212C134.018 91.628 134.072 92.0909 133.894 92.5716Z" fill="#FF9783"/>
<path d="M132.202 91.6458C132.185 91.628 132.167 91.6102 132.149 91.5746C132.131 91.5033 132.167 91.4321 132.238 91.3965C132.291 91.3787 133.716 90.898 134.57 91.9128C134.624 91.9662 134.606 92.0552 134.552 92.1086C134.499 92.1621 134.41 92.1443 134.357 92.0908C133.627 91.2007 132.345 91.6458 132.327 91.6458C132.274 91.6814 132.238 91.6814 132.202 91.6458Z" fill="#FF9783"/>
<path d="M118.37 86.2869C118.37 86.2869 119.99 86.4115 120.809 87.5331C121.61 88.6547 121.147 91.076 122.447 91.432C123.746 91.7881 122.625 86.9278 123.479 86.1801C124.316 85.4324 126.88 86.6074 127.164 83.1536C127.325 81.213 134.036 83.4918 135.14 85.1297C136.244 86.7854 137.989 88.2809 138.096 86.1267C138.185 83.9725 134.179 77.4922 129.871 76.602C125.562 75.7119 120.898 75.8721 118.975 80.0024C117.035 84.1506 118.37 86.2869 118.37 86.2869Z" fill="black"/>
<path d="M121.431 93.8712C121.217 94.067 120.968 94.1917 120.737 94.2629C120.309 94.4053 119.882 94.3697 119.562 94.3163C119.562 94.2629 119.544 94.2095 119.544 94.1382C119.526 94.0136 119.526 93.8712 119.526 93.7466C119.508 93.7466 119.49 93.7288 119.473 93.7288C119.544 93.7466 119.651 93.7644 119.758 93.7822C119.9 93.8 120.078 93.8 120.256 93.7822C120.523 93.7466 120.808 93.6576 121.057 93.4439C121.164 93.3371 121.342 93.3549 121.449 93.4795C121.556 93.6041 121.538 93.7644 121.431 93.8712Z" fill="#D17360"/>
<path d="M119.4 91.7882C119.293 91.7348 119.24 91.628 119.257 91.5034C119.489 89.5806 117.584 88.0852 117.566 88.0674C117.441 87.9783 117.424 87.8003 117.513 87.6757C117.602 87.5511 117.78 87.5333 117.904 87.6223C117.993 87.6935 120.094 89.3136 119.809 91.5568C119.791 91.6992 119.649 91.806 119.507 91.7882C119.453 91.806 119.418 91.806 119.4 91.7882Z" fill="#D17360"/>
<path d="M117.46 90.0433C117.424 90.0255 117.407 90.0077 117.371 89.9721C117.264 89.8653 117.282 89.6872 117.407 89.5804C117.442 89.5448 118.19 88.9217 119.222 89.3134C119.365 89.3668 119.436 89.527 119.383 89.6694C119.329 89.8119 119.169 89.8831 119.027 89.8297C118.279 89.5626 117.745 89.9899 117.745 90.0077C117.674 90.0789 117.549 90.0789 117.46 90.0433Z" fill="#D17360"/>
<path d="M130.74 95.2776C130.687 95.242 130.633 95.1886 130.615 95.1352C130.562 94.9928 130.633 94.8326 130.776 94.7792L132.503 94.156L131.363 93.4083C131.292 93.3727 131.256 93.3015 131.238 93.2125L130.793 89.7409C130.776 89.5984 130.882 89.456 131.025 89.4382C131.167 89.4204 131.31 89.5272 131.328 89.6697L131.755 92.9988L133.25 93.978C133.339 94.0314 133.375 94.1382 133.375 94.2451C133.357 94.3519 133.286 94.4409 133.197 94.4765L130.971 95.2954C130.882 95.331 130.793 95.3132 130.74 95.2776Z" fill="#FF9783"/>
<path d="M129.64 91.1294C129.462 91.6101 129.123 91.9306 128.874 91.8416C128.625 91.7526 128.554 91.2897 128.732 90.7912C128.91 90.3105 129.248 89.99 129.497 90.0791C129.746 90.1681 129.8 90.6488 129.64 91.1294Z" fill="#FF9783"/>
<path d="M127.681 90.3104C127.663 90.2926 127.628 90.2748 127.628 90.257C127.592 90.1858 127.628 90.1146 127.681 90.079C127.734 90.0433 129.07 89.3846 130.049 90.3104C130.102 90.3638 130.102 90.4528 130.049 90.5062C129.995 90.5596 129.906 90.5596 129.853 90.5062C129.016 89.7229 127.806 90.3104 127.788 90.3282C127.752 90.3282 127.717 90.3282 127.681 90.3104Z" fill="#FF9783"/>
<path d="M128.432 120.202L128.592 120.789L128.734 121.324L129.037 122.356C129.251 123.033 129.464 123.709 129.696 124.386C130.141 125.721 130.621 127.056 131.138 128.374C131.636 129.691 132.188 131.008 132.758 132.308C133.328 133.608 133.933 134.907 134.592 136.207C135.909 138.771 137.351 141.334 139.131 143.844C140.022 145.091 140.965 146.337 142.051 147.548C142.318 147.85 142.603 148.153 142.87 148.455C143.012 148.598 143.155 148.758 143.315 148.901L143.529 149.114L143.76 149.328C144.365 149.915 145.024 150.485 145.718 151.037C147.107 152.141 148.709 153.191 150.597 153.992C151.54 154.384 152.555 154.74 153.623 154.971L153.819 155.007L153.872 155.025L154.015 155.043C154.139 155.06 154.246 155.078 154.371 155.096C154.602 155.132 154.851 155.149 155.083 155.167C155.332 155.185 155.599 155.185 155.848 155.167C156.098 155.149 156.365 155.132 156.614 155.096C156.863 155.06 157.13 155.007 157.38 154.936C157.504 154.9 157.629 154.865 157.753 154.829C157.86 154.793 157.985 154.758 158.092 154.704C158.323 154.615 158.537 154.526 158.768 154.419C158.822 154.402 158.875 154.366 158.928 154.348L159.071 154.277C159.16 154.224 159.249 154.17 159.356 154.117C159.534 154.01 159.73 153.885 159.89 153.779C160.032 153.672 160.175 153.565 160.317 153.44L160.531 153.262L160.637 153.173L160.691 153.12L160.727 153.084C160.833 152.977 160.94 152.871 161.047 152.764L161.207 152.604L161.278 152.515C161.314 152.479 161.332 152.461 161.35 152.443C161.51 152.248 161.67 152.052 161.83 151.838C162.382 151.073 162.703 150.449 162.97 149.862L163.148 149.435C163.201 149.292 163.255 149.168 163.308 149.043C163.415 148.776 163.486 148.544 163.575 148.295C163.878 147.334 164.073 146.497 164.234 145.678C164.536 144.058 164.714 142.58 164.821 141.103C165.053 138.183 165.088 135.406 165.017 132.628C164.999 131.24 164.91 129.869 164.839 128.498C164.803 127.804 164.75 127.127 164.679 126.433C164.661 126.095 164.625 125.739 164.59 125.4L164.536 124.884L164.483 124.35C164.18 121.555 161.67 119.525 158.857 119.828C156.383 120.095 154.513 122.089 154.317 124.492V124.617L154.015 128.445C153.908 129.727 153.801 131.008 153.676 132.29C153.427 134.836 153.16 137.364 152.786 139.732C152.59 140.907 152.377 142.064 152.128 143.043C152.003 143.524 151.861 143.969 151.736 144.272C151.7 144.343 151.683 144.414 151.647 144.468C151.629 144.485 151.629 144.521 151.611 144.539C151.594 144.557 151.594 144.557 151.594 144.574C151.576 144.592 151.576 144.557 151.736 144.325C151.789 144.254 151.843 144.183 151.914 144.112C151.914 144.112 151.932 144.094 151.95 144.076L151.985 144.04L152.056 143.969C152.11 143.916 152.163 143.862 152.217 143.827L152.234 143.809L152.252 143.791L152.306 143.738C152.341 143.702 152.377 143.666 152.412 143.649C152.484 143.577 152.573 143.524 152.644 143.471C152.751 143.399 152.858 143.328 152.964 143.257C153.018 143.221 153.071 143.186 153.142 143.168L153.338 143.079C153.481 143.008 153.623 142.936 153.783 142.883C153.855 142.847 153.926 142.83 154.015 142.812C154.104 142.776 154.175 142.758 154.264 142.741C154.442 142.687 154.602 142.652 154.78 142.634C154.958 142.616 155.119 142.58 155.297 142.58C155.475 142.563 155.653 142.58 155.813 142.58C155.973 142.58 156.116 142.598 156.276 142.616C156.347 142.634 156.436 142.634 156.507 142.652V142.563C156.543 142.563 156.525 142.563 156.525 142.563H156.507L156.472 142.545C156.24 142.491 155.991 142.385 155.724 142.26C155.172 141.993 154.531 141.566 153.855 140.996C153.516 140.711 153.178 140.391 152.84 140.052L152.715 139.928L152.59 139.785L152.341 139.518C152.163 139.322 152.003 139.144 151.825 138.949C151.148 138.165 150.49 137.275 149.849 136.349C149.528 135.886 149.208 135.406 148.905 134.907C148.603 134.427 148.282 133.91 147.997 133.412C147.392 132.397 146.822 131.329 146.27 130.261C145.718 129.175 145.167 128.071 144.65 126.949C144.383 126.397 144.134 125.828 143.885 125.258C143.636 124.688 143.386 124.119 143.137 123.549C142.656 122.392 142.193 121.235 141.731 120.077C141.499 119.49 141.286 118.902 141.072 118.333L140.751 117.46L140.467 116.659L140.395 116.445C139.238 113.188 135.642 111.478 132.384 112.653C129.268 113.739 127.577 117.069 128.432 120.202Z" fill="#242645"/>
<path d="M136.319 138.397C136.284 138.397 136.248 138.397 136.213 138.397C135.999 138.361 135.857 138.183 135.892 137.969C135.91 137.827 137.833 123.852 138.687 119.899C138.741 119.686 138.937 119.561 139.15 119.614C139.364 119.668 139.488 119.864 139.435 120.077C138.58 123.994 136.658 137.934 136.64 138.076C136.622 138.254 136.497 138.379 136.319 138.397Z" fill="#2F3470"/>
<path d="M159.319 129.442C159.782 129.406 160.262 129.317 160.761 129.21C162.808 128.73 164.339 127.768 164.411 127.733C164.571 127.626 164.624 127.412 164.517 127.252C164.411 127.092 164.197 127.038 164.037 127.145C163.983 127.181 158.108 130.777 154.476 127.199C154.334 127.056 154.12 127.056 153.978 127.199C153.835 127.341 153.835 127.555 153.978 127.697C155.349 129.05 157.182 129.638 159.319 129.442Z" fill="#2F3470"/>
<path d="M150.738 145.696C150.934 145.678 151.076 145.518 151.058 145.322C150.916 142.936 152.625 140.284 152.643 140.248C152.749 140.088 152.696 139.874 152.536 139.767C152.376 139.661 152.162 139.714 152.055 139.874C151.984 139.999 150.186 142.758 150.346 145.375C150.364 145.553 150.542 145.714 150.738 145.696Z" fill="#2F3470"/>
<path d="M148.281 142.865C148.37 142.865 148.459 142.812 148.53 142.741C148.548 142.723 149.705 141.352 152.055 141.014C152.251 140.978 152.375 140.8 152.358 140.622C152.322 140.426 152.144 140.302 151.966 140.319C149.331 140.711 148.049 142.242 147.996 142.295C147.871 142.438 147.889 142.669 148.049 142.794C148.103 142.847 148.192 142.883 148.281 142.865Z" fill="#2F3470"/>
<path d="M152.838 102.109L111.688 119.249L135.249 175.815L176.4 158.675L152.838 102.109Z" fill="#E527BB"/>
<path d="M166.263 146.355C168.079 150.681 166.031 155.666 161.705 157.464C157.379 159.28 152.394 157.232 150.596 152.906C148.78 148.58 150.827 143.595 155.154 141.797C159.48 139.981 164.447 142.011 166.263 146.355Z" fill="#9994FF"/>
<path d="M155.117 141.797C152.927 142.723 151.342 144.45 150.523 146.479L158.072 149.897L158.713 141.138C157.52 141.085 156.292 141.299 155.117 141.797Z" fill="#A78BEF"/>
<path d="M163.484 142.794C162.113 141.779 160.44 141.192 158.731 141.121L158.09 149.88L158.197 149.933L163.484 142.794Z" fill="#A78BEF"/>
<path d="M150.523 146.479C149.722 148.473 149.687 150.788 150.595 152.924C151.218 154.384 152.179 155.577 153.372 156.449L158.072 150.111L158.09 149.897L150.523 146.479Z" fill="#A78BEF"/>
<path d="M158.07 149.897V150.111L158.195 149.951L158.07 149.897Z" fill="#9994FF"/>
<path d="M165.994 153.476L158.196 149.951L158.072 150.129L157.484 158.069C158.891 158.229 160.333 158.034 161.722 157.446C163.644 156.645 165.104 155.203 165.994 153.476Z" fill="#CE11AA"/>
<path d="M153.371 156.449C154.582 157.339 155.988 157.891 157.484 158.051L158.071 150.111L153.371 156.449Z" fill="#CE11AA"/>
<path d="M163.483 142.794L158.195 149.951L165.993 153.476C167.097 151.322 167.257 148.723 166.26 146.319C165.637 144.859 164.658 143.667 163.483 142.794Z" fill="#CE11AA"/>
<path d="M163.894 147.334C165.158 150.36 163.734 153.832 160.708 155.096C157.681 156.36 154.209 154.936 152.945 151.909C151.681 148.883 153.106 145.411 156.132 144.147C159.159 142.883 162.63 144.307 163.894 147.334Z" fill="white"/>
<path d="M160.406 154.366C157.789 155.452 154.78 154.224 153.676 151.607C152.59 148.99 153.819 145.981 156.436 144.877C159.053 143.791 162.062 145.019 163.165 147.636C164.251 150.254 163.023 153.262 160.406 154.366ZM156.56 145.144C154.086 146.177 152.929 149.025 153.961 151.482C154.994 153.957 157.842 155.114 160.299 154.081C162.774 153.049 163.931 150.2 162.898 147.743C161.866 145.286 159.017 144.111 156.56 145.144Z" fill="#9994FF"/>
<path d="M138.465 157.296L136.133 158.27L136.359 158.812L138.692 157.838L138.465 157.296Z" fill="white"/>
<path d="M140.164 158.263L136.715 159.704L136.941 160.246L140.391 158.805L140.164 158.263Z" fill="white"/>
<path d="M142.321 157.367L140.629 158.073L140.855 158.616L142.547 157.909L142.321 157.367Z" fill="white"/>
<path d="M143.561 156.846L142.477 157.299L142.703 157.841L143.787 157.388L143.561 156.846Z" fill="white"/>
<path d="M138.959 160.456L137.316 161.142L137.543 161.684L139.186 160.998L138.959 160.456Z" fill="white"/>
<path d="M143.652 158.482L139.414 160.252L139.64 160.794L143.879 159.024L143.652 158.482Z" fill="white"/>
<path d="M144.763 159.72L142.824 160.529L143.051 161.071L144.989 160.262L144.763 159.72Z" fill="white"/>
<path d="M142.624 160.596L137.926 162.558L138.152 163.1L142.85 161.138L142.624 160.596Z" fill="white"/>
<path d="M141.489 162.757L138.516 163.999L138.742 164.541L141.715 163.299L141.489 162.757Z" fill="white"/>
<path d="M143.234 162.021L141.953 162.557L142.18 163.099L143.461 162.563L143.234 162.021Z" fill="white"/>
<path d="M144.149 161.637L143.41 161.946L143.637 162.488L144.376 162.179L144.149 161.637Z" fill="white"/>
<path d="M141.047 146.97L132.879 150.371L133.084 150.864L141.252 147.463L141.047 146.97Z" fill="#9994FF"/>
<path d="M143.261 147.6L133.434 151.694L133.639 152.187L143.467 148.093L143.261 147.6Z" fill="#9494F2"/>
<path d="M143.818 148.954L137.754 151.48L137.959 151.973L144.023 149.447L143.818 148.954Z" fill="#9494F2"/>
<path d="M136.86 151.845L134 153.036L134.205 153.529L137.065 152.338L136.86 151.845Z" fill="#9494F2"/>
<path d="M144.382 150.267L134.555 154.361L134.76 154.854L144.588 150.76L144.382 150.267Z" fill="#9494F2"/>
<path d="M144.941 151.621L135.113 155.715L135.319 156.208L145.146 152.114L144.941 151.621Z" fill="#9494F2"/>
<path d="M123.088 121.555L122.727 121.706L132.734 145.733L133.096 145.582L123.088 121.555Z" fill="#552D7F"/>
<path d="M129.932 118.729L129.57 118.88L139.576 142.909L139.937 142.758L129.932 118.729Z" fill="#552D7F"/>
<path d="M136.768 115.879L136.406 116.03L146.411 140.059L146.773 139.909L136.768 115.879Z" fill="#552D7F"/>
<path d="M143.604 113.03L143.242 113.18L153.247 137.209L153.609 137.059L143.604 113.03Z" fill="#552D7F"/>
<path d="M150.151 110.293L149.789 110.444L159.794 134.473L160.156 134.322L150.151 110.293Z" fill="#552D7F"/>
<path d="M128.012 130.714L125.793 131.638L131.824 146.117L134.042 145.193L128.012 130.714Z" fill="#A78BEF"/>
<path d="M136.965 132.819L134.746 133.743L138.708 143.259L140.927 142.335L136.965 132.819Z" fill="#A78BEF"/>
<path d="M142.004 125.805L139.785 126.729L145.487 140.419L147.706 139.495L142.004 125.805Z" fill="#A78BEF"/>
<path d="M146.644 117.752L144.426 118.676L152.296 137.575L154.514 136.651L146.644 117.752Z" fill="#A78BEF"/>
<path d="M163.097 133.622L128.438 148.058L128.568 148.371L163.227 133.934L163.097 133.622Z" fill="white"/>
<path d="M154.509 114.612L150.467 111.532L149.809 116.588L151.055 116.054L158.87 134.854L161.096 133.928L153.262 115.128L154.509 114.612Z" fill="#A78BEF"/>
<path d="M130.617 145.233C130.688 145.393 130.617 145.571 130.456 145.625L128.142 146.586C127.982 146.657 127.804 146.586 127.75 146.426C127.679 146.266 127.75 146.088 127.91 146.034L130.225 145.073C130.385 145.002 130.563 145.073 130.617 145.233Z" fill="white"/>
<path d="M128.964 141.227C129.035 141.388 128.964 141.566 128.804 141.619L126.49 142.58C126.329 142.652 126.151 142.58 126.098 142.42C126.027 142.26 126.098 142.082 126.258 142.028L128.573 141.067C128.715 140.996 128.893 141.085 128.964 141.227Z" fill="white"/>
<path d="M127.288 137.222C127.36 137.382 127.288 137.56 127.128 137.613L124.814 138.575C124.654 138.646 124.476 138.575 124.422 138.414C124.351 138.254 124.422 138.076 124.582 138.023L126.897 137.061C127.039 137.008 127.217 137.079 127.288 137.222Z" fill="white"/>
<path d="M125.617 133.234C125.688 133.394 125.617 133.572 125.456 133.625L123.142 134.587C122.982 134.658 122.804 134.587 122.75 134.427C122.679 134.266 122.75 134.088 122.91 134.035L125.225 133.074C125.385 133.002 125.563 133.074 125.617 133.234Z" fill="white"/>
<path d="M123.96 129.228C124.032 129.388 123.96 129.566 123.8 129.62L121.486 130.581C121.325 130.652 121.147 130.581 121.094 130.421C121.023 130.261 121.094 130.083 121.254 130.029L123.569 129.068C123.711 128.997 123.889 129.068 123.96 129.228Z" fill="white"/>
<path d="M122.285 125.222C122.356 125.382 122.285 125.561 122.124 125.614L119.81 126.575C119.65 126.647 119.472 126.575 119.418 126.415C119.347 126.255 119.418 126.077 119.578 126.023L121.893 125.062C122.035 124.991 122.213 125.062 122.285 125.222Z" fill="white"/>
<path d="M120.613 121.217C120.684 121.377 120.613 121.555 120.452 121.608L118.138 122.57C117.978 122.641 117.8 122.57 117.746 122.409C117.675 122.249 117.746 122.071 117.907 122.018L120.221 121.056C120.381 120.985 120.559 121.056 120.613 121.217Z" fill="white"/>
<path d="M157.469 113.205C157.469 113.205 159.641 112.297 160.566 113.775C161.474 115.253 159.997 119.08 159.391 120.38C158.786 121.679 157.896 118.404 158.288 116.944C158.679 115.484 158.216 114.665 158.216 114.665L157.469 113.205Z" fill="#FF9783"/>
<path d="M160.691 117.959C160.691 117.959 163.024 116.926 163.932 118.404C164.84 119.881 163.362 123.709 162.757 125.009C162.151 126.308 161.261 123.032 161.653 121.573C162.044 120.113 161.528 119.49 161.528 119.49L160.691 117.959Z" fill="#FF9783"/>
<path d="M162.684 119.935C162.684 119.935 164.731 119.027 165.55 120.326C166.351 121.626 165.051 125.009 164.517 126.166C163.983 127.323 163.2 124.421 163.538 123.139C163.876 121.857 163.431 121.288 163.431 121.288L162.684 119.935Z" fill="#FF9783"/>
<path d="M158.82 115.751C158.82 115.751 161.153 114.718 162.06 116.196C162.968 117.674 161.491 121.501 160.885 122.801C160.28 124.101 159.39 120.825 159.782 119.365C160.173 117.905 159.657 117.282 159.657 117.282L158.82 115.751Z" fill="#FF9783"/>
<path d="M105.393 128.623C105.286 128.641 105.126 128.676 105.001 128.694L104.592 128.783L103.755 128.961C103.203 129.086 102.633 129.21 102.082 129.317C100.96 129.549 99.8562 129.78 98.7346 129.994C96.527 130.421 94.3194 130.795 92.2008 131.044C91.6667 131.097 91.1504 131.169 90.6341 131.204C90.1179 131.24 89.6194 131.275 89.1209 131.293C88.6402 131.311 88.1595 131.311 87.7144 131.293C87.2694 131.275 86.8599 131.24 86.5038 131.186C86.1478 131.133 85.8629 131.062 85.6849 130.991C85.6137 130.955 85.5425 130.919 85.5603 130.919C85.5781 130.919 85.5781 130.919 85.5959 130.919C85.5959 130.919 85.6315 130.919 85.6493 130.937C85.6671 130.937 85.6671 130.937 85.6849 130.955L85.7205 130.973L85.7739 131.008C85.9163 131.08 86.1122 131.204 86.2902 131.365C86.4682 131.489 86.6819 131.703 86.8599 131.952C87.0379 132.201 87.1981 132.486 87.305 132.753C87.4118 133.02 87.483 133.269 87.5364 133.501C87.572 133.715 87.5898 133.893 87.5898 134.035C87.5898 134.177 87.5898 134.284 87.5898 134.355C87.5898 134.498 87.572 134.533 87.6076 134.516C87.6432 134.462 87.7678 134.213 87.9637 133.928C88.1417 133.643 88.3732 133.305 88.6402 132.949C89.1743 132.237 89.8152 131.471 90.5095 130.706C91.2038 129.94 91.9338 129.157 92.6993 128.391C93.4648 127.608 94.2482 126.843 95.0493 126.077C96.6516 124.546 98.3073 122.997 99.9986 121.484L102.527 119.205L105.019 116.962L105.09 116.908C107.583 114.665 107.796 110.838 105.553 108.345C103.452 105.995 99.8918 105.692 97.3993 107.544L97.0077 107.847L96.6338 108.131L95.9039 108.701C95.4232 109.075 94.9425 109.467 94.4796 109.841C93.9989 110.232 93.5361 110.606 93.0732 111.016C92.6103 111.407 92.1474 111.799 91.6845 112.208C89.8508 113.811 88.0527 115.484 86.308 117.247C84.5455 119.009 82.8542 120.861 81.1807 122.908C80.3618 123.941 79.5428 125.027 78.7417 126.273C78.35 126.896 77.9583 127.555 77.5667 128.302C77.1928 129.05 76.8011 129.869 76.4807 130.937C76.3205 131.471 76.178 132.077 76.0712 132.807C76.0178 133.091 76 133.501 76 133.928C76 134.373 76.0356 134.836 76.1246 135.352C76.2136 135.869 76.3561 136.403 76.5875 136.955C76.8011 137.507 77.1038 138.041 77.4421 138.539C77.7981 139.02 78.1898 139.465 78.5993 139.821C79.0087 140.177 79.436 140.48 79.8277 140.711L79.9701 140.782L80.0413 140.818L80.0947 140.854L80.3084 140.96C80.4508 141.032 80.611 141.121 80.7534 141.174L81.1807 141.352C81.3231 141.405 81.4656 141.459 81.5902 141.512C82.1421 141.708 82.6584 141.833 83.1568 141.94C84.136 142.135 85.0084 142.207 85.8273 142.224C87.4652 142.26 88.8894 142.082 90.2603 141.868C91.6311 141.637 92.9129 141.334 94.1592 140.996C96.6516 140.319 99.0016 139.465 101.298 138.504C102.438 138.023 103.559 137.524 104.681 136.99C105.233 136.723 105.785 136.438 106.336 136.171C106.604 136.029 106.888 135.886 107.155 135.744L107.565 135.513L107.992 135.281C109.737 134.32 110.36 132.112 109.381 130.385C108.615 129.014 107.084 128.338 105.624 128.587L105.393 128.623Z" fill="#A78BEF"/>
<path d="M104.398 130.065C104.593 129.37 105.751 128.854 106.427 128.178C107.335 127.287 108.955 126.237 110.023 125.881C111.643 125.347 116.468 124.047 117.696 124.742C118.925 125.436 114.848 126.878 114.011 127.198C113.175 127.519 112.729 128.035 112.729 128.035C112.729 128.035 122.361 125.436 123.269 126.095C124.177 126.753 118.854 128.783 117.536 129.281C117.536 129.281 124.907 127.733 125.352 128.32C126.26 129.531 118.124 131.489 118.124 131.489C118.124 131.489 124.39 130.492 124.515 131.525C124.658 132.611 117.946 133.661 117.946 133.661C117.946 133.661 122.129 133.608 122.646 134.444C123.162 135.281 114.403 136.064 113.05 136.029C111.697 135.993 108.385 136.99 106.641 136.634C105.466 136.385 103.792 132.29 104.398 130.065Z" fill="#FF9783"/>
<path d="M95.0144 126.237C95.1212 126.308 95.2458 126.308 95.3527 126.237C95.4239 126.184 102.83 121.074 105.946 118.546C106.07 118.439 106.088 118.244 105.981 118.119C105.874 117.994 105.678 117.977 105.554 118.083C102.456 120.594 95.0678 125.703 94.9966 125.756C94.8542 125.845 94.8186 126.041 94.9254 126.184C94.961 126.184 94.9788 126.219 95.0144 126.237Z" fill="#2F3470"/>
<path d="M102.632 120.967C102.685 121.003 102.739 121.021 102.81 121.021L105.552 120.985C105.712 120.985 105.854 120.843 105.854 120.683C105.854 120.522 105.712 120.38 105.552 120.38L102.81 120.415C102.65 120.415 102.507 120.558 102.507 120.718C102.49 120.825 102.543 120.914 102.632 120.967Z" fill="#2F3470"/>
<path d="M83.9394 131.631C84.0107 131.667 84.1175 131.685 84.2065 131.649C86.1648 130.777 89.4406 131.329 89.4584 131.329C89.6186 131.364 89.7611 131.258 89.7967 131.097C89.8323 130.937 89.7255 130.795 89.5652 130.759C89.4228 130.741 86.0936 130.172 83.975 131.115C83.8326 131.186 83.7614 131.347 83.8326 131.489C83.8504 131.542 83.886 131.596 83.9394 131.631Z" fill="#2F3470"/>
<path d="M87.4271 131.115C87.5161 131.169 87.6407 131.169 87.7297 131.097C87.8543 131.008 87.89 130.83 87.8009 130.688C86.5013 128.836 84.8812 128.854 84.8278 128.854C84.6676 128.854 84.543 128.997 84.543 129.157C84.543 129.317 84.6854 129.442 84.8278 129.442C84.8812 129.442 86.2165 129.442 87.3381 131.026C87.3737 131.062 87.3915 131.097 87.4271 131.115Z" fill="#2F3470"/>
<path d="M459.906 281.765L462.007 289.047C459.461 291.183 456.951 290.934 454.458 290.044L451.895 283.047L459.906 281.765Z" fill="#B65F42"/>
<path d="M466.601 296.239L465.604 297.984L465.266 298.571L460.726 306.494C460.049 307.669 458.803 308.381 457.468 308.363C455.047 308.345 451.059 308.309 448.05 308.345C447.32 308.363 447.035 307.971 447.035 307.366C447.035 305.71 449.332 302.417 450.827 301.722C450.827 301.722 453.32 292.945 452.465 290.916C450.987 287.426 453.159 287.248 455.278 288.317C456.346 288.851 456.649 289.652 457.432 289.67C458.678 289.687 461.438 288.406 461.438 288.406C461.438 288.406 462.453 287.053 462.773 288.388C462.844 288.673 463.04 289.171 463.325 289.794C463.467 290.097 463.61 290.417 463.788 290.773C464.553 292.358 465.533 294.263 466.12 295.367C466.423 295.883 466.601 296.239 466.601 296.239Z" fill="#A78BEF"/>
<path d="M465.605 297.984L465.267 298.571C463.54 297.343 462.721 295.313 462.864 292.661C462.917 291.575 463.131 290.56 463.344 289.794C463.487 290.097 463.629 290.418 463.807 290.774C463.682 291.361 463.576 292.038 463.54 292.732C463.415 295.1 464.11 296.88 465.605 297.984Z" fill="#4333D6"/>
<path d="M466.602 296.239L460.745 306.476C460.069 307.651 458.823 308.363 457.487 308.345C455.066 308.327 451.078 308.292 448.069 308.327C447.34 308.345 447.055 307.953 447.055 307.348L457.434 307.313C458.538 307.313 459.552 306.725 460.104 305.764L466.14 295.331C466.424 295.883 466.602 296.239 466.602 296.239Z" fill="#4333D6"/>
<path d="M455.224 293.64C455.473 293.587 455.669 293.373 455.686 293.159C455.704 292.892 455.455 292.679 455.135 292.696L452.891 292.768C452.571 292.785 452.304 292.999 452.286 293.266C452.268 293.533 452.517 293.747 452.838 293.729L455.081 293.658C455.117 293.658 455.17 293.658 455.224 293.64Z" fill="white"/>
<path d="M453.622 300.975C453.871 300.921 454.067 300.708 454.085 300.494C454.103 300.227 453.853 300.013 453.533 300.031L451.29 300.102C450.969 300.12 450.702 300.334 450.684 300.601C450.667 300.868 450.916 301.081 451.236 301.064L453.48 300.992C453.533 300.992 453.569 300.992 453.622 300.975Z" fill="white"/>
<path d="M454.138 299.016C454.387 298.963 454.583 298.749 454.601 298.536C454.618 298.269 454.369 298.055 454.049 298.073L451.805 298.144C451.485 298.162 451.218 298.375 451.2 298.642C451.182 298.91 451.432 299.123 451.752 299.105L453.995 299.034C454.049 299.034 454.102 299.016 454.138 299.016Z" fill="white"/>
<path d="M454.493 297.236C454.742 297.183 454.938 296.969 454.956 296.755C454.974 296.488 454.725 296.275 454.404 296.293L452.161 296.364C451.84 296.382 451.573 296.595 451.556 296.862C451.538 297.129 451.787 297.343 452.107 297.325L454.351 297.254C454.404 297.254 454.458 297.236 454.493 297.236Z" fill="white"/>
<path d="M454.852 295.456C455.102 295.402 455.298 295.189 455.315 294.975C455.333 294.708 455.084 294.494 454.763 294.512L452.52 294.583C452.2 294.601 451.933 294.815 451.915 295.082C451.897 295.349 452.146 295.563 452.467 295.545L454.71 295.474C454.763 295.474 454.817 295.474 454.852 295.456Z" fill="white"/>
<path d="M412.657 286.643L412.07 296.969L404.29 297.04L403.613 286.554L412.657 286.643Z" fill="#B65F42"/>
<path d="M385.952 308.363L413.725 308.345C413.939 307.971 414.045 307.437 414.081 306.796C414.259 304.446 413.493 300.707 413.137 298.34C413.084 298.073 413.048 297.806 413.031 297.574C412.977 297.182 412.942 296.844 412.942 296.613C412.942 294.69 411.232 295.011 411.232 295.011C408.42 297.77 405.233 293.64 403.381 294.993C403.381 294.993 402.58 295.562 400.373 297.556C398.165 299.55 394.426 300.85 391.24 302.185C387.127 303.912 385.952 305.639 385.721 306.814C385.543 307.758 385.952 308.363 385.952 308.363Z" fill="#A78BEF"/>
<path d="M385.952 308.363L413.725 308.345C413.939 307.971 414.045 307.437 414.081 306.796L385.721 306.814C385.543 307.758 385.952 308.363 385.952 308.363Z" fill="#4333D6"/>
<path d="M410.875 308.345H411.693C410.875 307.402 410.091 305.959 410.198 303.894C410.323 301.153 411.978 299.301 413.118 298.34C413.064 298.073 413.029 297.806 413.011 297.574C411.783 298.518 409.7 300.583 409.539 303.877C409.45 305.835 410.109 307.295 410.875 308.345Z" fill="#4333D6"/>
<path d="M400.855 299.194C401.069 299.194 401.247 299.052 401.3 298.838C401.354 298.589 401.211 298.34 400.962 298.286L399.235 297.859C398.986 297.806 398.736 297.948 398.683 298.197C398.63 298.447 398.772 298.696 399.021 298.749L400.748 299.177C400.766 299.177 400.819 299.194 400.855 299.194Z" fill="white"/>
<path d="M402.437 297.681C402.651 297.681 402.829 297.538 402.882 297.325C402.936 297.076 402.793 296.826 402.544 296.773L400.817 296.346C400.568 296.292 400.318 296.435 400.265 296.684C400.212 296.933 400.354 297.182 400.603 297.236L402.33 297.663C402.366 297.681 402.401 297.681 402.437 297.681Z" fill="white"/>
<path d="M399.109 300.191C399.323 300.191 399.501 300.049 399.554 299.835C399.607 299.586 399.465 299.337 399.216 299.283L397.489 298.856C397.24 298.802 396.99 298.945 396.937 299.194C396.884 299.443 397.026 299.693 397.275 299.746L399.002 300.173C399.038 300.191 399.073 300.191 399.109 300.191Z" fill="white"/>
<path d="M397.382 301.17C397.596 301.17 397.774 301.028 397.827 300.814C397.881 300.565 397.738 300.316 397.489 300.262L395.762 299.835C395.513 299.782 395.264 299.924 395.21 300.173C395.157 300.423 395.299 300.672 395.549 300.725L397.276 301.153C397.311 301.17 397.347 301.17 397.382 301.17Z" fill="white"/>
<path d="M395.496 302.061C395.709 302.061 395.887 301.918 395.941 301.704C395.994 301.455 395.852 301.206 395.602 301.153L393.876 300.725C393.626 300.672 393.377 300.814 393.324 301.064C393.27 301.313 393.413 301.562 393.662 301.615L395.389 302.043C395.407 302.061 395.46 302.061 395.496 302.061Z" fill="white"/>
<path d="M393.429 302.826C393.643 302.826 393.821 302.684 393.874 302.47C393.928 302.221 393.785 301.972 393.536 301.918L391.809 301.491C391.56 301.437 391.311 301.58 391.257 301.829C391.204 302.078 391.346 302.328 391.596 302.381L393.322 302.808C393.358 302.826 393.394 302.826 393.429 302.826Z" fill="white"/>
<path d="M423.98 188.139C424.443 188.263 424.924 188.37 425.387 188.477C431.44 189.865 437.795 190.417 442.246 189.349C444.436 188.833 445.842 186.145 446.733 183.136C446.982 182.317 447.302 181.48 447.356 180.643C447.908 172.294 445.842 168.751 445.842 168.751L413.085 165.101C413.085 165.101 411.999 167.113 410.788 169.712C409.916 171.599 408.972 173.825 408.349 175.819C407.975 177.012 407.708 178.133 407.619 179.059C407.37 182.05 415.15 185.913 423.98 188.139Z" fill="black"/>
<path d="M461.812 282.584C459.034 282.851 456.524 283.172 453.765 283.563C452.696 283.723 451.575 283.901 450.524 284.062C450.275 283.421 449.848 282.086 449.563 281.338C449.492 281.16 449.421 280.964 449.349 280.768C444.062 267.291 434.074 241.53 432.152 233.946C432.098 233.768 432.045 233.554 432.009 233.358C431.6 231.685 431.137 229.549 430.638 227.127C428.538 216.73 425.992 200.868 425.44 191.486C425.28 188.904 425.262 186.803 425.386 185.468C425.44 184.934 425.582 184.436 425.814 183.99C428.805 178.222 445.468 179.522 445.468 179.522C445.468 179.522 445.54 180.43 445.646 181.997C446.145 189.687 448.192 212.671 448.922 219.864C449.795 228.552 451.539 231.614 451.539 231.614C451.539 231.614 455.1 239.554 457.485 254.224C458.91 263.072 460.476 272.935 461.491 279.397C461.527 279.593 461.562 279.789 461.58 279.985C461.651 280.554 461.74 282.05 461.812 282.584Z" fill="black"/>
<path d="M437.937 231.436C434.84 232.753 432.116 231.649 431.991 231.596C431.76 231.489 431.635 231.222 431.742 230.991C431.849 230.759 432.116 230.634 432.347 230.741C432.383 230.759 434.964 231.774 437.759 230.51C437.991 230.403 438.276 230.51 438.382 230.741C438.489 230.973 438.382 231.258 438.151 231.364C438.08 231.382 438.008 231.4 437.937 231.436Z" fill="black"/>
<path d="M449.332 280.768C449.403 280.964 449.474 281.142 449.546 281.338L460.067 280.145L460.69 280.074L461.545 279.985C461.509 279.789 461.492 279.593 461.456 279.397L460.69 279.486L459.943 279.575L449.332 280.768Z" fill="#2F3470"/>
<path d="M443.509 194.939C443.652 194.939 443.794 194.832 443.83 194.69C443.865 194.512 443.758 194.334 443.58 194.298C443.545 194.298 441.711 193.853 439.824 192.304C437.296 190.221 435.889 187.266 435.658 183.474C435.64 183.296 435.498 183.154 435.32 183.171C435.142 183.189 434.999 183.332 435.017 183.51C435.32 188.477 437.581 191.307 439.432 192.821C441.444 194.459 443.349 194.921 443.438 194.939C443.456 194.939 443.474 194.939 443.509 194.939Z" fill="black"/>
<path d="M419.545 215.733C416.857 224.012 417.106 228.124 417.106 228.124C417.106 228.124 419.225 236.599 416.982 251.304C415.308 262.324 414.293 277.706 413.884 284.685C413.866 284.898 413.866 285.094 413.848 285.29C413.742 287.231 413.688 288.388 413.688 288.388L402.935 289.563C402.935 289.563 402.846 288.299 402.704 286.127C402.686 285.931 402.668 285.735 402.668 285.522C401.885 273.985 399.766 240.8 399.944 227.555C399.962 226.006 400.015 224.706 400.104 223.78C400.176 223.086 400.282 222.143 400.425 221.003C401.707 210.731 405.784 184.311 408.65 175.303C410.911 168.164 426.88 175.463 426.88 175.463C426.88 175.463 422.234 207.455 419.545 215.733Z" fill="black"/>
<path d="M406.105 224.955C402.882 225.917 400.301 224.528 400.176 224.457C399.945 224.332 399.874 224.047 399.998 223.816C400.123 223.584 400.408 223.513 400.621 223.638C400.657 223.656 403.114 224.955 406.033 223.994C406.283 223.905 406.55 224.047 406.621 224.297C406.71 224.546 406.568 224.813 406.318 224.884C406.247 224.92 406.176 224.937 406.105 224.955Z" fill="black"/>
<path d="M413.886 284.667C413.868 284.881 413.868 285.076 413.851 285.272L402.688 286.109C402.67 285.913 402.652 285.717 402.652 285.504L413.886 284.667Z" fill="#2F3470"/>
<path d="M443.296 181.569C443.474 181.552 443.635 181.676 443.652 181.872C443.688 182.21 446.999 215.716 448.406 228.819C448.655 229.584 452.874 242.224 454.103 248.99C455.207 255.078 458.678 271.742 460.316 279.611C460.102 279.682 459.889 279.736 459.675 279.789C458.037 271.938 454.548 255.221 453.444 249.114C452.18 242.207 447.801 229.121 447.765 228.997C447.765 228.979 447.747 228.943 447.747 228.926C446.341 215.84 443.029 182.264 442.994 181.925C442.976 181.747 443.118 181.587 443.296 181.569Z" fill="black"/>
<path d="M425.332 186.483C425.456 186.483 425.563 186.412 425.634 186.305C425.723 186.144 425.652 185.949 425.492 185.86C425.438 185.824 421.931 183.937 421.237 179.789C421.201 179.611 421.041 179.486 420.863 179.522C420.685 179.557 420.56 179.718 420.596 179.896C421.361 184.382 425.047 186.358 425.207 186.429C425.225 186.465 425.278 186.483 425.332 186.483Z" fill="#2F3470"/>
<path d="M411.783 285.272C411.944 285.254 412.068 285.13 412.086 284.969C412.104 284.631 414.276 250.627 415.006 242.865C415.718 235.406 414.632 224.67 414.543 223.691C417.035 216.054 423.907 185.664 423.961 185.361C423.996 185.183 423.889 185.005 423.711 184.969C423.533 184.934 423.355 185.041 423.32 185.219C423.249 185.521 416.359 216.054 413.884 223.549C413.866 223.602 413.866 223.638 413.866 223.691C413.884 223.798 415.077 235.085 414.347 242.812C413.617 250.574 411.445 284.578 411.427 284.934C411.409 285.112 411.552 285.272 411.73 285.29C411.748 285.272 411.766 285.272 411.783 285.272Z" fill="black"/>
<path d="M390.742 134.355C390.778 134.462 390.814 134.605 390.849 134.729L390.956 135.121L391.187 135.922L391.65 137.507C391.953 138.557 392.273 139.625 392.594 140.658C393.235 142.741 393.894 144.788 394.641 146.693C394.819 147.174 395.015 147.637 395.211 148.082C395.407 148.527 395.603 148.954 395.799 149.363C396.012 149.755 396.208 150.129 396.404 150.449C396.6 150.77 396.795 151.037 396.956 151.215L397.009 151.268L397.063 151.304L397.08 151.322L397.098 151.34C397.116 151.34 397.116 151.357 397.134 151.357C397.169 151.375 397.169 151.357 397.098 151.304L397.027 151.251C396.991 151.233 396.956 151.197 396.92 151.179C396.849 151.144 396.778 151.09 396.689 151.037C396.528 150.948 396.333 150.841 396.119 150.77C395.709 150.61 395.211 150.503 394.766 150.503C394.321 150.485 393.929 150.556 393.644 150.627C393.359 150.699 393.164 150.788 393.003 150.859C392.719 151.001 392.647 151.073 392.63 151.073C392.612 151.073 392.665 151.019 392.736 150.948C392.879 150.77 393.092 150.485 393.324 150.147C393.769 149.47 394.25 148.616 394.713 147.726C395.175 146.835 395.638 145.892 396.083 144.931C396.991 143.008 397.846 140.996 398.683 138.949C399.519 136.919 400.356 134.854 401.175 132.771L402.403 129.655L403.632 126.575L403.65 126.522C404.682 123.941 407.62 122.694 410.201 123.727C412.569 124.671 413.815 127.216 413.21 129.62C413.139 129.94 413.067 130.207 412.996 130.492L412.765 131.347C412.622 131.916 412.462 132.468 412.302 133.038C411.981 134.16 411.643 135.281 411.287 136.385C410.575 138.61 409.81 140.836 408.955 143.026C408.528 144.129 408.1 145.233 407.638 146.337C407.175 147.441 406.694 148.545 406.178 149.648C405.661 150.752 405.11 151.856 404.486 152.977C404.184 153.547 403.846 154.099 403.507 154.669C403.151 155.238 402.777 155.826 402.35 156.413C401.923 157.019 401.442 157.642 400.819 158.301C400.499 158.639 400.142 158.995 399.697 159.369C399.252 159.743 398.7 160.152 397.917 160.544C397.508 160.74 397.045 160.935 396.493 161.096C395.923 161.238 395.247 161.345 394.517 161.327C393.787 161.309 393.003 161.167 392.327 160.9C391.989 160.775 391.668 160.615 391.383 160.455C391.241 160.366 391.098 160.277 390.974 160.206L390.778 160.081L390.689 160.01L390.636 159.974L390.618 159.956C390.102 159.565 389.692 159.155 389.318 158.764L389.069 158.479L388.944 158.336L388.837 158.194L388.606 157.909L388.392 157.624C387.858 156.876 387.467 156.164 387.111 155.488C386.772 154.811 386.487 154.153 386.238 153.494C385.989 152.853 385.775 152.212 385.58 151.589C385.384 150.966 385.223 150.343 385.063 149.72C384.44 147.263 384.066 144.859 383.799 142.456C383.675 141.263 383.586 140.07 383.514 138.877C383.479 138.272 383.461 137.685 383.461 137.079C383.461 136.777 383.461 136.474 383.461 136.171V135.708L383.479 135.228C383.514 133.198 385.206 131.578 387.235 131.614C388.82 131.649 390.155 132.682 390.653 134.106L390.742 134.355Z" fill="#B65F42"/>
<path d="M397.809 152.746C397.702 152.746 397.613 152.675 397.577 152.586C397.043 150.788 394.854 147.69 394.836 147.672C394.764 147.565 394.782 147.423 394.889 147.352C394.996 147.281 395.138 147.298 395.21 147.405C395.299 147.53 397.471 150.592 398.022 152.461C398.058 152.586 397.987 152.711 397.862 152.746C397.862 152.746 397.827 152.746 397.809 152.746Z" fill="#80301A"/>
<path d="M398.007 150.004C397.954 150.004 397.9 149.987 397.847 149.951C397.847 149.951 397.188 149.417 395.853 149.061C395.728 149.025 395.657 148.901 395.693 148.776C395.728 148.651 395.853 148.58 395.978 148.616C397.42 148.99 398.132 149.577 398.15 149.595C398.256 149.684 398.256 149.826 398.185 149.933C398.132 149.969 398.061 149.987 398.007 150.004Z" fill="#80301A"/>
<path d="M409.577 172.543C418.604 172.632 432.045 175.534 446.27 169.677C443.065 161.38 440.626 146.586 440.59 146.372C440.323 144.984 440.092 143.257 439.914 141.334C439.861 140.658 439.789 139.945 439.754 139.233C439.7 138.521 439.665 137.791 439.647 137.044C439.611 136.349 439.593 135.619 439.576 134.907C439.558 134.444 439.558 133.981 439.558 133.519C439.558 133.251 439.558 132.967 439.558 132.7C439.558 132.646 439.558 132.611 439.558 132.557C439.558 132.344 439.558 132.13 439.558 131.916C439.558 131.453 439.576 130.99 439.576 130.51C439.611 129.406 439.647 128.302 439.718 127.234C440.145 120.54 438.24 113.846 431.529 113.971C431.048 113.971 430.567 113.989 430.087 114.006C426.935 114.113 424.354 114.362 423.642 114.434C423.517 114.451 423.446 114.451 423.446 114.451L411.215 119.953L410.058 120.469C408.367 121.288 407.014 122.018 405.928 122.694C404.966 123.282 404.219 123.851 403.649 124.386C401.139 126.771 401.887 128.943 402.581 133.376C402.599 133.447 402.599 133.536 402.616 133.608C402.616 133.625 402.616 133.661 402.634 133.679C402.741 134.426 402.83 135.192 402.901 135.94C402.972 136.776 403.008 137.631 403.044 138.45C403.097 140.195 403.079 141.868 403.097 143.417C403.097 144.165 403.115 144.895 403.151 145.571C403.186 146.355 403.257 147.067 403.346 147.725C403.471 148.473 403.649 149.15 403.898 149.684C403.987 149.897 404.094 150.075 404.219 150.253C404.521 150.681 404.86 151.072 405.216 151.446C405.768 152.034 406.391 152.55 406.978 152.977C408.046 153.778 409.043 154.33 409.56 154.597C409.791 154.722 409.916 154.775 409.916 154.775C409.916 154.793 409.916 154.811 409.934 154.811C409.969 154.918 409.987 155.025 410.005 155.149C410.112 155.612 410.218 156.146 410.325 156.769C410.379 157.054 412.248 163.695 409.577 172.543Z" fill="#A78BEF"/>
<path d="M403.151 145.554L436.194 133.857C435.268 133.661 434.307 133.252 433.381 132.682L403.098 143.417C403.098 144.165 403.115 144.877 403.151 145.554Z" fill="#E9DBD2"/>
<path d="M403.898 149.684L439.629 137.026C439.593 136.332 439.575 135.602 439.557 134.89L403.328 147.726C403.471 148.473 403.649 149.132 403.898 149.684Z" fill="#E9DBD2"/>
<path d="M405.215 151.447C405.767 152.034 406.39 152.55 406.977 152.978L439.895 141.317C439.842 140.64 439.771 139.928 439.735 139.216L405.215 151.447Z" fill="#E9DBD2"/>
<path d="M403.665 124.386C404.341 127.27 404.306 132.201 402.899 135.94C402.846 135.192 402.757 134.427 402.632 133.679C402.632 133.661 402.632 133.626 402.615 133.608C402.597 133.537 402.597 133.448 402.579 133.376C401.885 128.943 401.137 126.754 403.665 124.386Z" fill="#B65F42"/>
<path d="M426.952 125.49C429.213 130.919 436.085 135.424 439.539 133.483C439.539 133.163 439.539 132.842 439.539 132.522C439.539 132.308 439.539 132.094 439.539 131.881C439.557 130.314 439.61 128.73 439.717 127.199C440.144 120.505 438.239 113.811 431.528 113.935C431.047 113.953 430.566 113.953 430.103 113.971C427.006 115.858 424.353 119.223 426.952 125.49Z" fill="#B65F42"/>
<path d="M428.804 150.04C428.786 150.147 428.697 150.236 428.608 150.272C428.554 150.289 428.501 150.289 428.448 150.289C428.394 150.272 422.715 149.292 417.339 152.461C414.615 154.081 412.087 154.9 410.004 155.15C409.986 155.025 409.95 154.918 409.932 154.811C409.932 154.794 409.932 154.776 409.915 154.776C409.915 154.776 409.79 154.722 409.559 154.598C411.624 154.402 414.187 153.601 417.018 151.927C422.59 148.634 428.305 149.631 428.554 149.684C428.733 149.72 428.839 149.88 428.804 150.04Z" fill="#E9DBD2"/>
<path d="M413.691 136.759C410.005 138.058 407.798 134.373 407.762 134.338C407.673 134.195 407.727 133.999 407.869 133.91C408.012 133.821 408.207 133.875 408.296 134.017C408.385 134.16 410.272 137.293 413.477 136.171C416.842 134.978 422.325 127.27 422.379 127.199C422.485 127.056 422.663 127.02 422.806 127.127C422.948 127.234 422.984 127.412 422.877 127.555C422.646 127.893 417.216 135.513 413.691 136.759Z" fill="#E9DBD2"/>
<path d="M411.855 117.727C411.855 117.727 410.716 120.754 407.404 118.101C407.404 118.101 402.224 120.54 401.333 114.345C401.333 114.345 397.399 113.312 399.161 108.808C399.161 108.808 394.978 108.309 395.939 102.648C395.939 102.648 392.877 100.227 393.518 96.4347C394.283 91.9306 398.592 92.4825 398.592 92.4825C398.592 92.4825 396.616 88.993 400.479 86.8745C404.182 84.8449 406.657 87.8715 406.657 87.8715C406.657 87.8715 407.44 84.204 410.876 83.9014C415.451 83.4741 415.932 87.64 415.932 87.64C415.932 87.64 418.78 84.7025 421.789 86.8033C424.798 88.904 423.285 92.5003 423.285 92.5003C423.285 92.5003 427.023 91.3609 427.896 94.9215C428.768 98.4821 426.774 99.7283 426.774 99.7283C426.774 99.7283 428.857 102.666 425.029 105.959C425.029 105.959 429.356 112.422 421.024 112.725C415.54 112.867 411.855 117.727 411.855 117.727Z" fill="#242645"/>
<path d="M411.731 121.875C416.787 126.931 421.54 117.247 421.255 115.502C418.745 111.817 418.193 107.651 418.193 107.651L409.398 114.042C409.505 114.327 409.612 114.612 409.719 114.879C410.217 116.178 410.734 117.514 411.125 118.973C411.303 119.65 411.606 121.128 411.731 121.875Z" fill="#B65F42"/>
<path d="M411.127 118.974C415.952 116.303 417.75 110.019 417.75 110.019L409.738 114.897C410.219 116.178 410.735 117.514 411.127 118.974Z" fill="#242645"/>
<path d="M405.093 107.366C405.093 107.366 403.633 105.158 401.817 106.28C400.001 107.402 401.817 113.971 405.502 112.689L405.093 107.366Z" fill="#80301A"/>
<path d="M406.073 117.585C404.222 117.87 402.477 116.588 402.192 114.736C401.907 112.885 403.189 111.14 405.04 110.855C406.892 110.57 408.637 111.852 408.922 113.704C409.206 115.573 407.925 117.3 406.073 117.585ZM405.112 111.354C403.527 111.603 402.441 113.081 402.69 114.665C402.94 116.25 404.417 117.336 406.002 117.086C407.586 116.837 408.672 115.359 408.423 113.775C408.174 112.208 406.696 111.122 405.112 111.354Z" fill="white"/>
<path d="M418.551 108.381C418.248 111.283 412.284 116.232 409.115 115.716C407.192 115.395 405.252 114.22 403.454 110.944C403.436 110.927 403.436 110.909 403.418 110.891C403.311 110.695 403.204 110.499 403.115 110.321C402.937 109.983 402.777 109.645 402.635 109.307C402.599 109.235 402.564 109.146 402.528 109.075C402.439 108.879 402.368 108.666 402.279 108.488C402.19 108.256 402.101 108.025 402.047 107.811C400.979 104.322 399.715 100.423 402.314 97.3607C404.931 94.2807 409.756 92.3224 413.495 94.6902C413.495 94.6902 416.379 96.8622 417.678 101.954C418.978 107.063 418.764 106.28 418.551 108.381Z" fill="#B65F42"/>
<path d="M410.4 108.238C410.4 108.238 411.183 110.517 409.367 111.389C407.551 112.262 406.59 110.517 406.59 110.517L410.4 108.238Z" fill="#B65F42"/>
<path d="M410.076 112.084C410.415 111.852 410.504 111.532 410.504 111.514C410.521 111.425 410.468 111.318 410.379 111.301C410.29 111.283 410.183 111.336 410.165 111.425C410.165 111.443 410.041 111.87 409.507 111.924C409.4 111.941 409.329 112.03 409.346 112.119C409.364 112.226 409.453 112.298 409.542 112.28C409.774 112.244 409.952 112.173 410.076 112.084Z" fill="#B65F42"/>
<path d="M410.682 103.52C410.718 103.503 410.736 103.467 410.754 103.431C410.825 103.289 410.754 103.129 410.611 103.058C410.575 103.04 409.668 102.63 408.849 103.342C408.136 103.965 408.297 104.98 408.297 105.016C408.314 105.176 408.475 105.265 408.617 105.247C408.777 105.229 408.866 105.069 408.849 104.927C408.849 104.927 408.724 104.179 409.205 103.77C409.757 103.289 410.362 103.556 410.38 103.574C410.486 103.609 410.611 103.574 410.682 103.52Z" fill="#B65F42"/>
<path d="M406.267 106.494C406.374 106.405 406.392 106.262 406.321 106.138C406.303 106.102 405.893 105.408 405.092 105.497C404.238 105.586 403.882 106.333 403.864 106.369C403.793 106.511 403.864 106.672 404.006 106.743C404.149 106.814 404.309 106.743 404.38 106.6C404.398 106.583 404.629 106.102 405.146 106.049C405.573 105.995 405.822 106.405 405.822 106.422C405.893 106.547 406.071 106.6 406.214 106.529C406.249 106.511 406.267 106.511 406.267 106.494Z" fill="#B65F42"/>
<path d="M407.569 108.666C407.533 108.683 407.48 108.683 407.444 108.683L406.251 108.47C406.162 108.452 406.109 108.399 406.073 108.327C406.038 108.256 406.055 108.167 406.109 108.096C406.714 107.348 406.91 106.476 406.75 105.354C406.732 105.23 406.821 105.105 406.946 105.087C407.07 105.069 407.195 105.158 407.213 105.283C407.373 106.405 407.213 107.295 406.696 108.078L407.515 108.221C407.64 108.238 407.729 108.363 407.711 108.488C407.693 108.577 407.622 108.63 407.569 108.666Z" fill="#B65F42"/>
<path d="M407.353 101.651C406.819 101.954 406.232 101.295 406.624 100.815C406.819 100.565 407.14 100.352 407.621 100.245C409.703 99.8354 411.11 101.277 411.11 101.277C411.11 101.277 408.956 101.046 407.923 101.402C407.692 101.473 407.496 101.562 407.353 101.651Z" fill="#B65F42"/>
<path d="M404.364 103.022C404.951 102.862 404.898 101.972 404.275 101.918C403.954 101.883 403.58 101.954 403.171 102.239C401.426 103.449 401.871 104.856 401.871 104.856C401.871 104.856 402.797 103.734 403.776 103.253C403.99 103.129 404.186 103.058 404.364 103.022Z" fill="#B65F42"/>
<path d="M410.648 94.797C410.648 94.797 413.764 99.853 415.651 100.53C417.538 101.206 418.179 98.1617 418.179 98.1617C418.179 98.1617 412.731 90.5954 410.648 94.797Z" fill="#242645"/>
<path d="M403.828 96.7732C403.828 96.7732 408.136 100.494 411.804 98.3932C415.489 96.2925 411.964 93.6932 411.964 93.6932C411.964 93.6932 403.828 92.6072 403.828 96.7732Z" fill="#242645"/>
<path d="M404.79 96.1143C404.79 96.1143 404.362 102.506 400.232 102.506C396.102 102.506 400.036 95.2776 402.689 94.8325C405.324 94.4052 404.79 96.1143 404.79 96.1143Z" fill="#242645"/>
<path d="M403.417 110.891C403.311 110.695 403.204 110.499 403.115 110.321C402.937 109.983 402.777 109.645 402.634 109.307C402.599 109.235 402.563 109.146 402.527 109.075C402.581 109.057 402.634 109.04 402.705 109.022C404.005 108.612 405.216 108.701 405.376 109.235C405.536 109.734 404.664 110.482 403.417 110.891Z" fill="#B65F42"/>
<path d="M415.293 105.319C415.453 105.853 414.527 106.601 413.228 107.01C411.928 107.419 410.717 107.33 410.557 106.796C410.397 106.262 411.323 105.515 412.622 105.087C413.922 104.696 415.115 104.785 415.293 105.319Z" fill="#B65F42"/>
<path d="M416.238 101.687C416.238 101.687 416.808 99.319 419.14 99.6039C421.472 99.9065 422.647 107.33 418.357 107.722L416.238 101.687Z" fill="#B65F42"/>
<path d="M414.367 99.0874C414.367 99.0874 415.008 105.728 416.308 104.749C417.607 103.77 417.02 99.8351 417.02 99.8351L414.367 99.0874Z" fill="#242645"/>
<path d="M420.955 105.568C420.883 105.728 420.848 105.888 420.759 106.066C422.272 106.049 423.607 107.224 423.696 108.826C423.767 110.179 422.877 111.407 421.578 111.763C419.886 112.226 418.213 111.105 417.946 109.413C417.786 108.345 418.231 107.313 419.032 106.689C419.584 106.333 419.602 106.066 419.548 105.817C418.106 106.387 417.198 107.9 417.447 109.502C417.732 111.354 419.477 112.636 421.328 112.351C423.18 112.066 424.462 110.321 424.177 108.47C423.928 106.814 422.521 105.657 420.955 105.568Z" fill="white"/>
<path d="M418.07 104.767C418.07 104.873 418.159 104.963 418.284 104.963C418.302 104.963 418.32 104.963 418.32 104.963C418.409 104.945 418.48 104.856 418.48 104.767C418.48 104.749 418.462 104.019 418.765 103.271C419.263 103.503 419.673 103.752 419.691 103.752C419.744 103.788 419.797 103.788 419.833 103.77C419.886 103.752 419.922 103.716 419.958 103.681C420.011 103.592 419.975 103.467 419.886 103.414C419.869 103.396 419.459 103.164 418.943 102.915C419.156 102.523 419.495 102.15 419.958 101.9C420.064 101.847 420.1 101.722 420.047 101.633C419.993 101.527 419.869 101.491 419.78 101.544C418.017 102.434 418.07 104.678 418.07 104.767Z" fill="#242645"/>
<path d="M387.496 116.381L366.395 195.104L429.796 212.098L450.897 133.375L387.496 116.381Z" fill="#E527BB"/>
<path d="M397.157 126.359L396.664 128.199L412.811 132.528L413.304 130.688L397.157 126.359Z" fill="#D9D9FF"/>
<path d="M436.802 137.001L436.309 138.841L443.393 140.74L443.887 138.9L436.802 137.001Z" fill="#D9D9FF"/>
<path d="M435.654 141.284L435.492 141.886L442.577 143.785L442.738 143.183L435.654 141.284Z" fill="#D9D9FF"/>
<path d="M385.012 163.873C382.413 163.179 379.76 164.71 379.066 167.309C378.371 169.908 379.902 172.561 382.502 173.255C385.101 173.95 387.754 172.418 388.448 169.819C389.142 167.22 387.611 164.567 385.012 163.873ZM383 171.404C381.433 170.976 380.508 169.374 380.917 167.807C381.344 166.241 382.947 165.315 384.513 165.724C386.08 166.152 387.006 167.754 386.596 169.321C386.187 170.887 384.567 171.831 383 171.404Z" fill="#F9C5F9"/>
<path d="M384.265 166.686C383.232 166.401 382.164 167.024 381.897 168.057C381.612 169.089 382.235 170.157 383.268 170.424C384.301 170.709 385.369 170.086 385.636 169.054C385.921 168.021 385.298 166.971 384.265 166.686ZM383.321 170.211C382.413 169.962 381.862 169.036 382.111 168.11C382.36 167.202 383.286 166.65 384.212 166.899C385.12 167.149 385.671 168.074 385.422 169C385.173 169.908 384.229 170.46 383.321 170.211Z" fill="#F9C5F9"/>
<path d="M395.426 166.65C392.827 165.956 390.174 167.487 389.48 170.086C388.785 172.686 390.316 175.338 392.916 176.033C395.515 176.727 398.168 175.196 398.862 172.597C399.556 170.015 398.007 167.345 395.426 166.65ZM393.396 174.199C391.83 173.772 390.904 172.169 391.313 170.603C391.741 169.036 393.343 168.11 394.91 168.52C396.476 168.947 397.402 170.549 396.993 172.116C396.583 173.683 394.963 174.608 393.396 174.199Z" fill="#F9C5F9"/>
<path d="M394.66 169.481C393.627 169.196 392.559 169.819 392.292 170.852C392.007 171.884 392.63 172.953 393.663 173.22C394.695 173.504 395.763 172.881 396.03 171.849C396.315 170.816 395.692 169.748 394.66 169.481ZM393.716 173.006C392.808 172.757 392.256 171.831 392.505 170.905C392.755 169.997 393.68 169.445 394.606 169.695C395.514 169.944 396.066 170.87 395.817 171.795C395.568 172.703 394.624 173.237 393.716 173.006Z" fill="#F9C5F9"/>
<path d="M376.661 182.157L376.625 181.836L394.428 179.611L397.49 182.085L403.454 177.029L405.858 179.611L410.184 175.961L410.397 176.21L405.822 180.056L403.436 177.474L397.508 182.495L394.321 179.931L376.661 182.157Z" fill="#F9C5F9"/>
<path d="M382.402 179.932L379.383 191.195L382.203 191.951L385.222 180.688L382.402 179.932Z" fill="#A78BEF"/>
<path d="M386.498 182.91L383.949 192.419L386.769 193.175L389.318 183.665L386.498 182.91Z" fill="#A78BEF"/>
<path d="M391.613 182.078L388.516 193.634L391.336 194.39L394.433 182.834L391.613 182.078Z" fill="#A78BEF"/>
<path d="M395.322 186.508L393.082 194.865L395.902 195.621L398.142 187.264L395.322 186.508Z" fill="#A78BEF"/>
<path d="M401.991 179.866L397.645 196.082L400.465 196.838L404.811 180.622L401.991 179.866Z" fill="#A78BEF"/>
<path d="M406.968 179.539L402.207 197.302L405.027 198.058L409.789 180.294L406.968 179.539Z" fill="#A78BEF"/>
<path d="M395.824 134.188L388.348 162.08L392.01 163.062L399.487 135.17L395.824 134.188Z" fill="#D9D9FF"/>
<path d="M401.148 135.621L393.672 163.513L397.335 164.495L404.811 136.603L401.148 135.621Z" fill="#D9D9FF"/>
<path d="M406.472 137.053L398.996 164.945L402.659 165.927L410.135 138.035L406.472 137.053Z" fill="#D9D9FF"/>
<path d="M411.8 138.469L404.324 166.361L407.987 167.343L415.463 139.451L411.8 138.469Z" fill="#D9D9FF"/>
<path d="M417.14 139.906L409.664 167.798L413.327 168.78L420.803 140.888L417.14 139.906Z" fill="#D9D9FF"/>
<path d="M422.464 141.339L414.988 169.231L418.651 170.213L426.127 142.321L422.464 141.339Z" fill="#D9D9FF"/>
<path d="M427.796 142.757L420.32 170.649L423.983 171.631L431.459 143.739L427.796 142.757Z" fill="#D9D9FF"/>
<path d="M433.117 144.188L425.641 172.08L429.303 173.062L436.78 145.17L433.117 144.188Z" fill="#D9D9FF"/>
<path d="M438.441 145.621L430.965 173.513L434.628 174.494L442.104 146.603L438.441 145.621Z" fill="#D9D9FF"/>
<path d="M396.46 136.35L389.527 162.212L389.992 162.337L396.924 136.474L396.46 136.35Z" fill="white"/>
<path d="M401.811 137.798L394.879 163.661L395.343 163.785L402.275 137.922L401.811 137.798Z" fill="white"/>
<path d="M407.186 139.234L400.254 165.097L400.718 165.221L407.65 139.358L407.186 139.234Z" fill="white"/>
<path d="M412.561 140.67L405.629 166.533L406.093 166.657L413.025 140.795L412.561 140.67Z" fill="white"/>
<path d="M417.936 142.106L411.004 167.969L411.468 168.093L418.4 142.23L417.936 142.106Z" fill="white"/>
<path d="M423.307 143.559L416.375 169.422L416.839 169.546L423.772 143.683L423.307 143.559Z" fill="white"/>
<path d="M428.682 144.995L421.75 170.858L422.214 170.982L429.147 145.12L428.682 144.995Z" fill="white"/>
<path d="M434.057 146.431L427.125 172.294L427.589 172.418L434.522 146.556L434.057 146.431Z" fill="white"/>
<path d="M439.428 147.884L432.496 173.747L432.96 173.871L439.893 148.008L439.428 147.884Z" fill="white"/>
<path d="M392.355 149.155L388.898 162.052L390.584 162.504L394.041 149.607L392.355 149.155Z" fill="#A78BEF"/>
<path d="M397.742 150.598L394.285 163.495L395.97 163.947L399.427 151.05L397.742 150.598Z" fill="#A78BEF"/>
<path d="M401.978 156.206L399.641 164.925L401.326 165.376L403.663 156.658L401.978 156.206Z" fill="#A78BEF"/>
<path d="M409.693 148.949L405.023 166.369L406.709 166.82L411.378 149.401L409.693 148.949Z" fill="#A78BEF"/>
<path d="M409.68 148.947L408.703 152.592L410.388 153.044L411.365 149.398L409.68 148.947Z" fill="#F9C5F9"/>
<path d="M415.779 147.702L410.391 167.804L412.076 168.255L417.464 148.153L415.779 147.702Z" fill="#A78BEF"/>
<path d="M419.211 156.348L415.754 169.245L417.439 169.696L420.896 156.799L419.211 156.348Z" fill="#A78BEF"/>
<path d="M426.017 152.508L421.141 170.701L422.826 171.153L427.702 152.959L426.017 152.508Z" fill="#A78BEF"/>
<path d="M426.019 152.503L425.688 153.741L427.373 154.193L427.705 152.955L426.019 152.503Z" fill="#F9C5F9"/>
<path d="M430.838 155.932L426.496 172.131L428.181 172.582L432.523 156.384L430.838 155.932Z" fill="#A78BEF"/>
<path d="M435.332 160.673L431.875 173.57L433.56 174.021L437.017 161.124L435.332 160.673Z" fill="#A78BEF"/>
<path d="M383.459 159.403L383.191 160.4L386.648 161.327L386.915 160.329L383.459 159.403Z" fill="#D9D9FF"/>
<path d="M384.56 155.278L384.293 156.275L387.749 157.202L388.017 156.204L384.56 155.278Z" fill="#D9D9FF"/>
<path d="M385.662 151.153L385.395 152.15L388.851 153.076L389.118 152.079L385.662 151.153Z" fill="#D9D9FF"/>
<path d="M386.763 147.027L386.496 148.025L389.952 148.951L390.22 147.954L386.763 147.027Z" fill="#D9D9FF"/>
<path d="M387.881 142.907L387.613 143.904L391.07 144.831L391.337 143.833L387.881 142.907Z" fill="#D9D9FF"/>
<path d="M388.982 138.781L388.715 139.778L392.171 140.705L392.439 139.707L388.982 138.781Z" fill="#D9D9FF"/>
<path d="M390.084 134.656L389.816 135.654L393.273 136.58L393.54 135.583L390.084 134.656Z" fill="#D9D9FF"/>
<path d="M396.169 132.87L396.062 133.265L399.725 134.247L399.831 133.851L396.169 132.87Z" fill="#D1D1FF"/>
<path d="M401.497 134.285L401.391 134.68L405.053 135.662L405.159 135.267L401.497 134.285Z" fill="#D1D1FF"/>
<path d="M406.836 135.722L406.73 136.118L410.393 137.1L410.499 136.704L406.836 135.722Z" fill="#D1D1FF"/>
<path d="M412.161 137.155L412.055 137.551L415.717 138.532L415.823 138.137L412.161 137.155Z" fill="#D1D1FF"/>
<path d="M417.489 138.571L417.383 138.966L421.046 139.948L421.152 139.552L417.489 138.571Z" fill="#D1D1FF"/>
<path d="M422.813 140.003L422.707 140.399L426.37 141.38L426.476 140.985L422.813 140.003Z" fill="#D1D1FF"/>
<path d="M428.137 141.436L428.031 141.832L431.694 142.813L431.8 142.418L428.137 141.436Z" fill="#D1D1FF"/>
<path d="M433.481 142.856L433.375 143.251L437.038 144.233L437.144 143.838L433.481 142.856Z" fill="#D1D1FF"/>
<path d="M438.805 144.29L438.699 144.685L442.362 145.667L442.468 145.271L438.805 144.29Z" fill="#D1D1FF"/>
<path d="M437.136 133.002C437.225 132.967 437.35 132.913 437.475 132.878L437.831 132.753L438.543 132.504L439.985 131.988C440.946 131.649 441.907 131.293 442.851 130.955C444.738 130.261 446.608 129.531 448.334 128.765C448.762 128.569 449.189 128.374 449.598 128.178C450.008 127.982 450.4 127.768 450.791 127.572C451.165 127.359 451.539 127.163 451.859 126.949C452.18 126.736 452.483 126.54 452.732 126.344C452.981 126.148 453.159 125.97 453.248 125.863C453.284 125.81 453.319 125.774 453.284 125.774C453.284 125.774 453.266 125.792 453.248 125.81C453.248 125.81 453.212 125.845 453.212 125.863C453.212 125.881 453.195 125.881 453.195 125.899L453.141 125.988C453.07 126.13 452.963 126.326 452.892 126.558C452.821 126.789 452.75 127.074 452.732 127.377C452.714 127.679 452.714 127.982 452.767 128.267C452.821 128.552 452.892 128.783 452.963 128.997C453.034 129.192 453.123 129.353 453.195 129.477C453.266 129.584 453.319 129.673 453.373 129.744C453.462 129.869 453.497 129.887 453.479 129.887C453.444 129.869 453.248 129.744 452.981 129.602C452.714 129.46 452.394 129.299 452.02 129.139C451.29 128.836 450.453 128.516 449.581 128.231C448.708 127.946 447.783 127.661 446.839 127.394C445.895 127.127 444.934 126.878 443.973 126.629C442.032 126.148 440.056 125.685 438.044 125.222L435.035 124.546L432.08 123.887L431.991 123.869C429.267 123.264 427.576 120.558 428.181 117.852C428.733 115.395 430.994 113.775 433.415 113.935L433.86 113.971L434.27 114.006L435.089 114.078C435.641 114.131 436.175 114.184 436.727 114.238C437.813 114.362 438.899 114.505 439.985 114.665C442.157 114.986 444.329 115.377 446.501 115.858C447.587 116.089 448.69 116.374 449.794 116.659C450.898 116.962 452.002 117.3 453.141 117.674C454.263 118.066 455.42 118.493 456.613 119.063C457.218 119.347 457.841 119.668 458.482 120.042C459.141 120.433 459.835 120.878 460.601 121.555C460.992 121.893 461.402 122.303 461.811 122.819C462.025 123.086 462.239 123.389 462.452 123.727C462.666 124.065 462.862 124.457 463.04 124.902C463.218 125.347 463.36 125.845 463.467 126.397C463.556 126.931 463.592 127.519 463.556 128.071C463.52 128.623 463.414 129.175 463.253 129.655C463.111 130.136 462.915 130.581 462.702 130.955L462.63 131.097L462.595 131.169L462.559 131.222L462.434 131.418C462.345 131.542 462.274 131.685 462.185 131.792L461.936 132.148C461.847 132.272 461.776 132.361 461.687 132.468C461.348 132.896 461.01 133.234 460.672 133.554C459.995 134.177 459.337 134.658 458.714 135.068C457.45 135.886 456.275 136.438 455.1 136.919C453.942 137.4 452.803 137.774 451.681 138.112C449.438 138.771 447.213 139.233 445.005 139.589C443.901 139.768 442.798 139.91 441.694 140.017C441.142 140.07 440.59 140.124 440.02 140.159C439.736 140.177 439.468 140.195 439.184 140.213L438.756 140.23L438.311 140.248C436.282 140.319 434.573 138.717 434.501 136.688C434.448 135.103 435.392 133.732 436.78 133.163L437.136 133.002Z" fill="#B65F42"/>
<path d="M435.692 133.946C435.692 133.946 431.472 134.907 428.802 135.78C426.968 136.385 425.366 136.527 425.099 137.4C424.832 138.29 428.784 137.97 429.14 137.934C429.496 137.916 435.692 133.946 435.692 133.946Z" fill="#B65F42"/>
<path d="M439.218 134.462C440.571 136.064 440.251 138.468 438.702 139.857C437.883 140.604 437.046 141.477 436.601 142.349C435.533 144.432 435.462 147.369 434.162 148.633C432.862 149.898 432.488 149.506 432.595 147.957C432.72 146.39 433.272 143.524 433.272 143.524C433.272 143.524 431.438 147.049 431.313 148.616C431.189 150.182 430.032 150.983 429.319 149.452C428.59 147.939 429.818 143.631 430.477 142.527C430.477 142.527 428.785 144.414 428.554 146.515C428.323 148.633 428.287 149.826 427.788 150.521C427.29 151.215 426.062 150.218 426.453 147.28C426.845 144.343 427.343 142.687 428.18 141.512C428.18 141.512 427.201 142.153 425.83 143.506C424.477 144.877 424.406 147.334 423.32 147.708C422.198 148.099 422.412 145.269 423.231 143.755C424.05 142.242 424.513 141.085 426.204 139.679C427.895 138.29 429.569 137.008 430.779 136.421C431.99 135.833 436.031 133.163 437.936 133.536C438.399 133.661 438.844 134.017 439.218 134.462Z" fill="#B65F42"/>
<path d="M436.086 133.608C436.086 133.608 440.074 134.658 440.822 140.124C440.822 140.124 441.979 140.658 442.637 139.91C442.637 139.91 441.801 134.106 437.831 132.753C437.831 132.753 436.478 132.718 436.086 133.608Z" fill="#242645"/>
<path d="M439.787 125.685C439.751 125.81 439.644 125.881 439.52 125.845C439.466 125.828 433.449 124.653 430.814 123.923C430.689 123.887 430.618 123.763 430.654 123.638C430.689 123.513 430.814 123.442 430.939 123.478C433.556 124.208 439.537 125.383 439.591 125.383C439.715 125.4 439.804 125.525 439.769 125.667C439.787 125.667 439.787 125.685 439.787 125.685Z" fill="#80301A"/>
<path d="M432.719 124.208C432.701 124.279 432.665 124.332 432.594 124.368L430.974 125.294C430.867 125.365 430.725 125.311 430.654 125.205C430.582 125.098 430.636 124.955 430.743 124.884L432.363 123.958C432.469 123.887 432.612 123.941 432.683 124.047C432.719 124.101 432.719 124.154 432.719 124.208Z" fill="#80301A"/>
<path d="M453.797 126.219C453.779 126.309 453.69 126.398 453.601 126.398C452.07 126.593 450.29 128.142 450.272 128.16C450.165 128.249 450.023 128.231 449.934 128.142C449.845 128.035 449.862 127.893 449.951 127.804C450.023 127.733 451.874 126.148 453.53 125.935C453.654 125.917 453.779 126.006 453.797 126.13C453.797 126.166 453.797 126.184 453.797 126.219Z" fill="#80301A"/>
<path d="M452.497 125.116C452.48 125.169 452.444 125.24 452.391 125.276C452.355 125.294 451.554 125.792 451.465 127.163C451.447 127.288 451.34 127.394 451.216 127.377C451.091 127.359 450.984 127.252 451.002 127.127C451.127 125.49 452.124 124.884 452.177 124.866C452.284 124.795 452.426 124.849 452.497 124.955C452.497 125.009 452.515 125.062 452.497 125.116Z" fill="#80301A"/>
<path d="M382.926 135.263C382.926 135.263 380.896 133.946 381.609 132.468C382.303 130.973 386.113 130.172 387.466 129.976C388.819 129.78 386.665 132.184 385.312 132.629C383.959 133.074 383.709 133.821 383.709 133.821L382.926 135.263Z" fill="#B65F42"/>
<path d="M384.688 130.136C384.688 130.136 382.658 128.819 383.37 127.341C384.065 125.845 387.874 125.044 389.227 124.848C390.581 124.653 388.426 127.056 387.073 127.501C385.72 127.946 385.471 128.694 385.471 128.694L384.688 130.136Z" fill="#B65F42"/>
<path d="M385.24 127.519C385.24 127.519 383.442 126.362 384.065 125.044C384.688 123.727 388.053 123.015 389.246 122.837C390.438 122.659 388.533 124.777 387.341 125.187C386.148 125.578 385.934 126.237 385.934 126.237L385.24 127.519Z" fill="#B65F42"/>
<path d="M383.906 132.771C383.906 132.771 381.877 131.454 382.589 129.976C383.283 128.48 387.093 127.679 388.446 127.483C389.799 127.288 387.645 129.691 386.292 130.136C384.939 130.581 384.69 131.329 384.69 131.329L383.906 132.771Z" fill="#B65F42"/>
</g>
</g>
<defs>
<clipPath id="clip0_1761_6320">
<rect width="542.64" height="328.79" fill="white"/>
</clipPath>
<clipPath id="clip1_1761_6320">
<rect width="390.6" height="256.596" fill="white" transform="translate(76 51.7668)"/>
</clipPath>
</defs>
</svg>
