<svg width="19" height="20" viewBox="0 0 19 20" fill="none" xmlns="http://www.w3.org/2000/svg">
<g clip-path="url(#clip0_439_5574)">
<path d="M5.64778 17.3717C5.64778 17.6187 5.41632 17.8245 5.13856 17.8245H0.509227C0.370347 17.8245 0.231467 17.7833 0.13888 17.6598C0 17.5775 0 17.4128 0 17.2893L1.20363 11.5674C1.52768 9.96196 3.14795 8.80933 5.27744 8.68584C6.29589 8.60351 7.26805 8.80933 8.10133 9.17982C9.0272 9.63264 9.6753 10.2913 9.99936 11.1146C10.0457 11.1969 10.0456 11.2792 10.0919 11.3616C10.1382 11.6086 9.99936 11.8556 9.7216 11.8967C9.44384 11.9379 9.16608 11.8144 9.11978 11.5674C9.11978 11.4851 9.07349 11.4439 9.07349 11.3616C8.56426 9.96196 6.85141 9.46798 5.37003 9.55031C4.12011 9.63264 2.49984 10.2501 2.22208 11.6909L1.11104 16.9189H5.13856C5.41632 16.9189 5.64778 17.1247 5.64778 17.3717ZM3.14795 6.79224C2.59243 6.2571 1.89803 5.26913 1.99061 3.62253C2.0832 1.72894 3.70347 0.740973 5.32373 0.617477C5.41632 0.617477 5.92554 0.617477 6.06442 0.617477C7.6384 0.782138 9.25866 1.7701 9.35125 3.62253C9.44384 5.26913 8.74944 6.2571 8.19392 6.79224C7.54581 7.40972 6.61994 7.73904 5.69408 7.73904C4.72192 7.73904 3.84235 7.40972 3.14795 6.79224ZM3.51829 2.34641C4.12011 2.55224 4.8608 2.7169 5.64778 2.7169C6.43477 2.7169 7.17546 2.55224 7.77728 2.34641C7.26805 1.7701 6.43477 1.48194 5.64778 1.48194C4.8608 1.52311 4.02752 1.7701 3.51829 2.34641ZM3.88864 6.17477C4.35157 6.62758 4.99968 6.83341 5.64778 6.83341C6.29589 6.83341 6.944 6.58642 7.45322 6.17477C8.10133 5.59846 8.37909 4.73399 8.3328 3.6637C8.3328 3.49903 8.2865 3.33437 8.24021 3.16971C7.49952 3.45787 6.57365 3.62253 5.64778 3.62253C4.72192 3.58137 3.84235 3.45787 3.05536 3.16971C3.05536 3.29321 3.00907 3.45787 3.00907 3.6637C2.96277 4.73399 3.28683 5.59846 3.88864 6.17477ZM15.9712 18.7713H6.66624C6.38848 18.7713 6.15701 18.9771 6.15701 19.2241C6.15701 19.4711 6.38848 19.6769 6.66624 19.6769H15.9712C16.249 19.6769 16.4804 19.4711 16.4804 19.2241C16.4804 18.9771 16.249 18.7713 15.9712 18.7713ZM6.8977 12.8847V17.5363C6.8977 17.7833 7.12917 17.9892 7.40693 17.9892H15.2305C15.5083 17.9892 15.7397 17.7833 15.7397 17.5363V16.7954C15.7397 16.5484 15.5083 16.3425 15.2305 16.3425C14.9527 16.3425 14.7213 16.5484 14.7213 16.7954V17.0835H7.91616V13.3375H10.7863C11.0641 13.3375 11.2956 13.1317 11.2956 12.8847C11.2956 12.6377 11.0641 12.4319 10.7863 12.4319H7.40693C7.12917 12.4319 6.8977 12.5965 6.8977 12.8847ZM18.0544 12.8847C18.0544 13.1317 17.8229 13.3375 17.5452 13.3375H16.9896C16.9434 13.4198 16.8971 13.5845 16.8045 13.6668L17.1748 13.9961C17.36 14.1608 17.36 14.449 17.1748 14.6136C17.0822 14.6959 16.9434 14.7371 16.8045 14.7371C16.6656 14.7371 16.5267 14.6959 16.4341 14.6136L16.0638 14.2843C15.9249 14.3255 15.8323 14.4078 15.6934 14.449V14.9429C15.6934 15.1899 15.462 15.3958 15.1842 15.3958C14.9064 15.3958 14.675 15.1899 14.675 14.9429V14.449C14.5361 14.4078 14.3972 14.3666 14.2583 14.2843L13.888 14.6136C13.7954 14.6959 13.6565 14.7371 13.5176 14.7371C13.3788 14.7371 13.2399 14.6959 13.1473 14.6136C12.9621 14.449 12.9621 14.1608 13.1473 13.9961L13.5176 13.6668C13.4714 13.5433 13.3788 13.4198 13.3325 13.3375H12.777C12.4992 13.3375 12.2677 13.1317 12.2677 12.8847C12.2677 12.6377 12.4992 12.4319 12.777 12.4319H13.4251C13.4714 12.3084 13.5176 12.1849 13.6102 12.0614L13.2399 11.7321C13.0547 11.5674 13.0547 11.2792 13.2399 11.1146C13.4251 10.9499 13.7491 10.9499 13.9343 11.1146L14.3046 11.4439C14.4435 11.4027 14.5361 11.3204 14.7213 11.2792V10.7853C14.7213 10.5383 14.9527 10.3324 15.2305 10.3324C15.5083 10.3324 15.7397 10.5383 15.7397 10.7853V11.2792C15.8786 11.3204 16.0175 11.3616 16.1101 11.4439L16.4804 11.1146C16.6656 10.9499 16.9896 10.9499 17.1748 11.1146C17.36 11.2792 17.36 11.5674 17.1748 11.7321L16.8045 12.0614C16.8508 12.1849 16.9434 12.2672 16.9896 12.4319H17.5452C17.8229 12.4319 18.0544 12.6377 18.0544 12.8847ZM16.0638 12.8847C16.0638 12.473 15.6934 12.1437 15.2305 12.1437C14.7676 12.1437 14.3972 12.473 14.3972 12.8847C14.3972 13.2963 14.7676 13.6257 15.2305 13.6257C15.6934 13.6257 16.0638 13.2963 16.0638 12.8847Z" fill="url(#paint0_linear_439_5574)"/>
</g>
<defs>
<linearGradient id="paint0_linear_439_5574" x1="9.0272" y1="0.617477" x2="9.0272" y2="19.6769" gradientUnits="userSpaceOnUse">
<stop stop-color="#E527BB"/>
<stop offset="1" stop-color="#A78BEF"/>
</linearGradient>
<clipPath id="clip0_439_5574">
<rect width="18.0544" height="19.6769" fill="white"/>
</clipPath>
</defs>
</svg>
