<svg width="543" height="329" viewBox="0 0 543 329" fill="none" xmlns="http://www.w3.org/2000/svg">
<g clip-path="url(#clip0_1325_11016)">
<path opacity="0.2" d="M127.492 328.58L412.142 311.93C487.412 307.53 545.652 243.73 542.512 168.39C539.872 105.08 517.192 37.64 440.912 8.81999C387.262 -11.45 317.592 5.13999 273.402 38.85C262.782 46.95 253.022 56.24 241.612 63.17C215.022 79.32 191.672 68.17 163.972 63.88C105.412 54.79 46.9621 73.46 16.7021 127.43C-29.7579 210.35 25.0421 334.57 127.492 328.58Z" fill="#999999"/>
<g clip-path="url(#clip1_1325_11016)">
<g opacity="0.3">
<path d="M214.796 54.4572C214.194 54.6056 213.587 54.238 213.44 53.6368C213.152 52.4699 212.809 51.2974 212.421 50.1527C212.225 49.5736 212.53 48.9459 213.103 48.7388C213.11 48.7366 213.116 48.7344 213.124 48.7311C213.71 48.5329 214.347 48.8462 214.545 49.433C214.954 50.6376 215.314 51.8721 215.618 53.0999C215.756 53.6612 215.444 54.2292 214.911 54.4207C214.872 54.4362 214.835 54.4484 214.796 54.4572ZM210.149 44.7122C209.608 43.6316 209.017 42.5643 208.39 41.538C208.067 41.0099 208.233 40.3212 208.762 39.9979C209.294 39.6758 209.981 39.8418 210.303 40.3699C210.963 41.4494 211.586 42.5732 212.154 43.7091C212.431 44.2627 212.207 44.9358 211.653 45.2126C211.613 45.2325 211.572 45.2502 211.531 45.2646C211.003 45.4562 210.406 45.2259 210.149 44.7122ZM204.973 36.7374C204.207 35.8063 203.392 34.8984 202.55 34.0371C202.117 33.5953 202.125 32.8857 202.568 32.4528C203.011 32.021 203.72 32.0287 204.153 32.4705C205.04 33.3783 205.899 34.3349 206.705 35.3147C207.098 35.793 207.028 36.4983 206.551 36.8913C206.449 36.9754 206.336 37.0374 206.219 37.0806C205.785 37.2356 205.282 37.1127 204.973 36.7374ZM198.14 30.1189C197.185 29.3816 196.186 28.6785 195.172 28.0264C194.651 27.6909 194.501 26.9979 194.835 26.4786C195.171 25.9583 195.865 25.8088 196.384 26.1432C197.451 26.8296 198.503 27.5714 199.509 28.3464C199.998 28.7239 200.089 29.4281 199.711 29.9174C199.576 30.0923 199.399 30.2174 199.205 30.2872C198.858 30.4101 198.455 30.3614 198.14 30.1189ZM190.004 25.1866C188.911 24.6817 187.781 24.2156 186.645 23.8027C186.064 23.5912 185.763 22.9479 185.975 22.3667C186.187 21.7843 186.83 21.4854 187.412 21.6969C188.606 22.1309 189.795 22.6213 190.945 23.1528C191.507 23.4129 191.752 24.0783 191.492 24.6397C191.361 24.9231 191.126 25.1257 190.854 25.2231C190.586 25.3194 190.283 25.315 190.004 25.1866ZM180.977 22.1752C179.798 21.9238 178.594 21.719 177.397 21.5684C176.784 21.4909 176.348 20.9307 176.426 20.3174C176.503 19.7029 177.064 19.2689 177.678 19.3464C178.937 19.5047 180.205 19.7206 181.446 19.9852C182.051 20.1148 182.437 20.7093 182.308 21.3149C182.224 21.7079 181.943 22.008 181.591 22.1353C181.4 22.2028 181.19 22.2206 180.977 22.1752ZM140.853 33.2676C140.421 32.8248 140.43 32.1151 140.874 31.6833C141.783 30.7987 142.742 29.9418 143.726 29.1369C144.206 28.7449 144.912 28.8147 145.304 29.2941C145.696 29.7724 145.625 30.4787 145.147 30.8707C144.213 31.6346 143.301 32.4483 142.439 33.2887C142.32 33.4038 142.183 33.4879 142.038 33.54C141.637 33.685 141.17 33.5931 140.853 33.2676ZM171.513 21.2396C170.308 21.2562 169.089 21.3249 167.89 21.4456C167.274 21.5064 166.725 21.0581 166.663 20.4425C166.601 19.8269 167.052 19.2811 167.666 19.2158C168.93 19.0896 170.213 19.0165 171.481 18.9999C172.1 18.991 172.609 19.4859 172.618 20.1048C172.624 20.5953 172.314 21.0171 171.877 21.1743C171.764 21.2153 171.642 21.2385 171.513 21.2396ZM148.419 27.0898C148.098 26.5617 148.265 25.8719 148.795 25.5508C149.879 24.8921 151.005 24.2721 152.142 23.7063C152.696 23.4284 153.37 23.6565 153.646 24.2101C153.921 24.7637 153.695 25.4368 153.141 25.7125C152.06 26.2506 150.99 26.8396 149.961 27.4662C149.895 27.5061 149.827 27.5382 149.757 27.5636C149.265 27.7386 148.701 27.5526 148.419 27.0898ZM162.079 22.4409C160.909 22.7265 159.736 23.0664 158.593 23.4506C158.005 23.6488 157.37 23.3332 157.172 22.7464C156.977 22.1674 157.282 21.5408 157.855 21.3348C157.862 21.3326 157.87 21.3293 157.877 21.3271C159.081 20.9219 160.316 20.5643 161.547 20.2631C162.149 20.117 162.756 20.4846 162.902 21.0857C163.04 21.6471 162.726 22.2128 162.194 22.4043C162.157 22.4198 162.119 22.4309 162.079 22.4409Z" fill="#A78BEF"/>
<path d="M136.92 39.5163C137.127 39.4422 137.315 39.3049 137.453 39.1111C137.787 38.6395 138.137 38.1678 138.493 37.7084C138.872 37.219 138.781 36.5149 138.291 36.1373C137.802 35.7587 137.097 35.8484 136.719 36.3388C136.345 36.8227 135.977 37.3187 135.625 37.8147C135.267 38.3195 135.385 39.0192 135.889 39.3768C136.201 39.5972 136.586 39.637 136.92 39.5163Z" fill="#91B3FA"/>
</g>
<g opacity="0.3">
<path d="M129.588 72.8768C130.097 72.693 130.413 72.1638 130.308 71.6146C130.201 71.0478 130.103 70.4676 130.019 69.893C129.929 69.2808 129.36 68.8579 128.747 68.9475C128.132 69.0383 127.711 69.6063 127.801 70.2185C127.89 70.8241 127.993 71.4342 128.106 72.0309C128.221 72.6388 128.807 73.0384 129.415 72.9233C129.475 72.9122 129.533 72.8967 129.588 72.8768Z" fill="#91B3FA"/>
<path d="M185.162 106.559C184.57 106.741 183.943 106.408 183.761 105.815C183.581 105.224 183.913 104.599 184.506 104.417C185.632 104.073 186.763 103.674 187.877 103.23C188.449 103 189.105 103.281 189.334 103.856C189.563 104.43 189.283 105.082 188.708 105.312C188.225 105.504 187.741 105.688 187.256 105.862C186.563 106.112 185.858 106.347 185.162 106.559ZM192.689 102.248C192.384 101.71 192.574 101.026 193.112 100.721C194.146 100.136 195.167 99.5013 196.146 98.8326C196.655 98.4827 197.354 98.6156 197.703 99.126C198.052 99.6364 197.921 100.334 197.41 100.683C196.379 101.386 195.305 102.054 194.217 102.67C194.16 102.702 194.103 102.729 194.043 102.75C193.539 102.932 192.961 102.731 192.689 102.248ZM179.211 107.941C177.98 108.139 176.722 108.288 175.475 108.382C174.858 108.428 174.319 107.965 174.273 107.349C174.226 106.732 174.689 106.195 175.307 106.147C176.491 106.059 177.684 105.918 178.854 105.729C179.466 105.63 180.041 106.046 180.139 106.657C180.227 107.197 179.911 107.71 179.414 107.888C179.349 107.912 179.282 107.93 179.211 107.941ZM200.625 96.8253C200.21 96.367 200.244 95.6584 200.703 95.2432C201.582 94.4472 202.438 93.6024 203.245 92.7355C203.667 92.2827 204.376 92.2572 204.83 92.6791C205.283 93.1009 205.308 93.8095 204.886 94.2623C204.035 95.1757 203.134 96.0647 202.208 96.9028C202.096 97.0036 201.97 97.0789 201.836 97.1276C201.422 97.2759 200.94 97.1707 200.625 96.8253ZM169.371 108.42C168.127 108.343 166.868 108.211 165.631 108.03C165.018 107.94 164.595 107.371 164.686 106.759C164.776 106.146 165.346 105.723 165.958 105.813C167.133 105.986 168.329 106.111 169.51 106.184C170.128 106.223 170.598 106.754 170.559 107.372C170.53 107.833 170.228 108.21 169.82 108.357C169.68 108.407 169.529 108.43 169.371 108.42ZM159.664 106.731C158.464 106.383 157.264 105.98 156.099 105.534C155.521 105.313 155.232 104.665 155.453 104.087C155.675 103.508 156.323 103.22 156.902 103.442C158.008 103.866 159.148 104.248 160.288 104.579C160.883 104.751 161.226 105.372 161.053 105.967C160.949 106.325 160.682 106.591 160.356 106.709C160.141 106.787 159.9 106.8 159.664 106.731ZM150.556 102.968C149.46 102.367 148.377 101.712 147.338 101.024C146.822 100.681 146.681 99.9862 147.023 99.4703C147.366 98.9544 148.061 98.8137 148.576 99.1559C149.565 99.8102 150.593 100.431 151.635 101.003C152.178 101.3 152.377 101.981 152.079 102.524C151.942 102.773 151.724 102.949 151.476 103.039C151.183 103.145 150.85 103.129 150.556 102.968ZM142.486 97.3091C141.548 96.4832 140.635 95.6075 139.771 94.7062C139.342 94.259 139.357 93.5504 139.805 93.1219C140.251 92.6946 140.962 92.7101 141.39 93.1562C142.21 94.0121 143.078 94.8435 143.97 95.6274C144.434 96.0359 144.479 96.7445 144.069 97.2084C143.94 97.3545 143.781 97.4597 143.61 97.5217C143.236 97.6568 142.804 97.5892 142.486 97.3091ZM135.855 90.0131C135.124 89.0034 134.427 87.9482 133.782 86.8787C133.463 86.3484 133.634 85.6598 134.164 85.3409C134.693 85.0232 135.383 85.1926 135.703 85.7229C136.316 86.7392 136.979 87.7412 137.672 88.7011C138.036 89.2026 137.923 89.9024 137.421 90.2655C137.333 90.3286 137.24 90.3773 137.144 90.4128C136.685 90.5766 136.154 90.4271 135.855 90.0131ZM130.994 81.4493C130.63 80.6057 130.288 79.741 129.976 78.8785C129.863 78.5663 129.755 78.253 129.65 77.9408C129.452 77.3551 129.757 76.7107 130.355 76.5225C130.943 76.3255 131.577 76.641 131.776 77.2278C131.875 77.5256 131.98 77.8234 132.086 78.1201C132.382 78.9405 132.706 79.762 133.052 80.5647C133.297 81.1327 133.034 81.7925 132.466 82.0372C132.445 82.0461 132.423 82.0549 132.402 82.0627C131.849 82.2597 131.23 81.9962 130.994 81.4493Z" fill="#91B3FA"/>
<path d="M208.213 89.9036C208.423 89.8283 208.612 89.6899 208.749 89.4939C209.098 88.9979 209.443 88.4842 209.774 87.9694C210.109 87.449 209.958 86.7559 209.437 86.4216C208.917 86.0872 208.223 86.2378 207.889 86.7582C207.574 87.2475 207.246 87.7347 206.915 88.2063C206.559 88.7123 206.681 89.4109 207.187 89.7663C207.497 89.9844 207.881 90.022 208.213 89.9036Z" fill="#91B3FA"/>
</g>
<path d="M204.922 70.9814C204.997 70.771 204.929 70.5363 204.754 70.3968L199.758 66.4354C200.081 63.4771 199.933 60.4458 199.275 57.4543L203.811 52.9803C203.971 52.8231 204.012 52.5829 203.915 52.3814L200.61 45.4883C200.514 45.2868 200.3 45.1683 200.077 45.1938L193.746 45.9223C191.826 43.5353 189.554 41.5203 187.045 39.9182L187.087 33.5455C187.088 33.3219 186.947 33.1226 186.737 33.0484L179.522 30.5097C179.311 30.4356 179.077 30.5031 178.937 30.678L174.974 35.6701C172.014 35.348 168.98 35.4941 165.986 36.1529L161.509 31.6202C161.352 31.4608 161.111 31.4187 160.91 31.5161L154.013 34.821C153.811 34.9173 153.693 35.131 153.719 35.3535L154.449 41.6808C152.061 43.5995 150.044 45.8691 148.441 48.3768L142.064 48.3347C141.84 48.3336 141.641 48.4731 141.566 48.6846L139.026 55.8943C138.952 56.1047 139.019 56.3394 139.194 56.4789L144.19 60.4402C143.868 63.3985 144.015 66.4299 144.673 69.4214L140.137 73.8954C139.978 74.0526 139.935 74.2928 140.033 74.4943L143.338 81.3885C143.434 81.59 143.648 81.7085 143.871 81.6819L150.203 80.9534C152.123 83.3404 154.394 85.3554 156.904 86.9574L156.861 93.3301C156.86 93.5538 157 93.7531 157.212 93.8272L164.426 96.367C164.637 96.4412 164.872 96.3737 165.011 96.1987L168.974 91.2066C171.935 91.5288 174.968 91.3816 177.962 90.7239L182.439 95.2566C182.597 95.4149 182.837 95.457 183.039 95.3606L189.938 92.058C190.139 91.9617 190.258 91.748 190.232 91.5255L189.503 85.1993C191.892 83.2806 193.909 81.011 195.512 78.5033L201.889 78.5454C202.113 78.5465 202.312 78.4059 202.386 78.1955L204.922 70.9814Z" fill="#A78BEF"/>
<path d="M173.497 70.968C169.341 71.8072 165.277 69.1124 164.436 64.9595C164.029 62.9479 164.43 60.8985 165.566 59.188C166.702 57.4786 168.436 56.3117 170.449 55.9053C174.605 55.0661 178.668 57.7609 179.509 61.9138C180.274 65.6914 178.11 69.3948 174.585 70.6635C174.235 70.7909 173.871 70.8927 173.497 70.968ZM167.061 60.18C166.19 61.4909 165.882 63.063 166.194 64.6053C166.839 67.7894 169.955 69.8553 173.141 69.2121C176.329 68.5688 178.395 65.4544 177.751 62.2703C177.106 59.0862 173.991 57.0202 170.804 57.6635C170.515 57.7222 170.235 57.8008 169.962 57.8982C168.78 58.3233 167.769 59.1138 167.061 60.18Z" fill="white"/>
<path d="M178.201 81.1583C178.807 80.9402 179.405 80.6911 179.994 80.4088C180.179 80.3202 180.363 80.2283 180.545 80.1342C181.444 79.6681 182.305 79.13 183.114 78.5311C183.125 78.5233 183.136 78.5145 183.147 78.5067C183.178 78.4834 183.209 78.4602 183.24 78.4358C183.301 78.3905 183.361 78.344 183.42 78.2975C183.578 78.1757 183.632 77.9697 183.568 77.7915C183.552 77.7483 183.53 77.7062 183.5 77.6686C183.348 77.4726 183.067 77.4383 182.871 77.5889C181.864 78.3683 180.765 79.0448 179.607 79.5994C173.852 82.3551 167.345 81.7739 162.291 78.6318C159.479 76.8847 157.117 74.3449 155.585 71.1453C155.315 70.584 155.077 70.0138 154.869 69.437C153.469 65.552 153.449 61.3393 154.839 57.3924C156.437 52.8586 159.706 49.2172 164.045 47.1402C173.005 42.8523 183.777 46.6453 188.067 55.5944C188.332 56.1457 188.568 56.7093 188.773 57.2806C189.666 59.7583 190.006 62.4044 189.761 65.0295C189.754 65.097 189.764 65.1634 189.785 65.2232C189.843 65.3815 189.987 65.5011 190.166 65.5177C190.413 65.5398 190.631 65.3605 190.654 65.1125C190.912 62.3568 190.554 59.579 189.617 56.9772C189.401 56.3771 189.154 55.7859 188.876 55.2069C184.371 45.8117 173.056 41.8315 163.657 46.3309C159.102 48.5109 155.671 52.3338 153.994 57.0935C152.533 61.2375 152.554 65.6605 154.025 69.7381C154.243 70.3437 154.493 70.9427 154.776 71.5317C156.958 76.0832 160.783 79.5131 165.546 81.1893C169.692 82.6507 174.118 82.6286 178.201 81.1583Z" fill="white"/>
<g opacity="0.3">
<path d="M260.918 69.2387C261.199 69.1368 261.393 68.86 261.375 68.5456C261.339 67.9588 261.286 67.3654 261.215 66.7819C261.17 66.4033 260.825 66.132 260.445 66.1785C260.065 66.2228 259.795 66.5693 259.841 66.948C259.909 67.5038 259.96 68.0695 259.994 68.6286C260.017 69.0095 260.345 69.3007 260.726 69.2774C260.793 69.2741 260.857 69.2608 260.918 69.2387Z" fill="#91B3FA"/>
<path d="M260.042 63.9986C259.671 64.0905 259.295 63.8646 259.203 63.4937C258.97 62.5582 258.686 61.6227 258.359 60.7159C258.29 60.5244 258.218 60.3328 258.145 60.1424C258.009 59.7859 258.186 59.3851 258.543 59.2489C258.885 59.1327 259.301 59.2899 259.438 59.6475C259.515 59.8479 259.59 60.0472 259.662 60.2476C260.004 61.1986 260.303 62.1784 260.547 63.1605C260.634 63.5081 260.441 63.8591 260.111 63.9787C260.089 63.9853 260.066 63.9919 260.042 63.9986ZM256.686 56.945C256.137 55.912 255.518 54.9045 254.848 53.9501C254.629 53.6368 254.704 53.2061 255.018 52.9858C255.329 52.7677 255.762 52.8419 255.981 53.1552C256.684 54.1561 257.332 55.2123 257.908 56.2951C258.088 56.6328 257.959 57.0513 257.622 57.2317C257.592 57.2472 257.561 57.2605 257.531 57.2716C257.212 57.3867 256.85 57.2528 256.686 56.945ZM252.653 51.2055C251.869 50.3398 251.021 49.516 250.135 48.7532C249.846 48.5041 249.812 48.0668 250.062 47.7778C250.312 47.4878 250.748 47.4545 251.038 47.7048C251.967 48.5041 252.857 49.3699 253.679 50.2766C253.936 50.5601 253.915 50.9974 253.631 51.2543C253.563 51.3163 253.484 51.3628 253.401 51.3926C253.145 51.4834 252.847 51.4192 252.653 51.2055ZM247.332 46.6308C246.357 45.9831 245.333 45.3897 244.29 44.8694C243.948 44.6978 243.81 44.2826 243.98 43.9405C244.151 43.5995 244.566 43.46 244.909 43.6305C246.003 44.1774 247.076 44.7985 248.098 45.4772C248.416 45.6886 248.503 46.1182 248.291 46.4371C248.206 46.5655 248.085 46.6552 247.95 46.7039C247.751 46.777 247.522 46.757 247.332 46.6308ZM241.054 43.4921C239.952 43.1013 238.815 42.7746 237.676 42.5211C237.303 42.4381 237.068 42.0683 237.151 41.6952C237.234 41.3221 237.603 41.0863 237.977 41.1704C239.172 41.4361 240.364 41.7782 241.518 42.1868C241.879 42.3152 242.067 42.7104 241.939 43.0703C241.867 43.274 241.71 43.4223 241.521 43.4899C241.374 43.5441 241.212 43.5485 241.054 43.4921ZM234.205 41.972C233.042 41.8601 231.861 41.8214 230.695 41.8546C230.313 41.8657 229.994 41.5645 229.983 41.1826C229.972 40.8006 230.272 40.4829 230.655 40.4707C231.878 40.4353 233.117 40.4773 234.337 40.5936C234.718 40.6301 234.996 40.9678 234.959 41.3486C234.933 41.6243 234.749 41.8458 234.505 41.9343C234.412 41.9686 234.31 41.983 234.205 41.972ZM227.194 42.1724C226.043 42.3495 224.887 42.6008 223.759 42.9208C223.392 43.0249 223.008 42.8112 222.904 42.4436C222.8 42.076 223.015 41.6996 223.382 41.5889C224.564 41.2545 225.776 40.991 226.983 40.805C227.361 40.7475 227.715 41.0065 227.773 41.3841C227.824 41.7162 227.629 42.0295 227.325 42.1403C227.283 42.1546 227.239 42.1657 227.194 42.1724ZM216.346 45.3919C216.156 45.0609 216.27 44.638 216.601 44.4475C217.518 43.9205 218.481 43.4345 219.459 43.0038C219.608 42.9374 219.756 42.8743 219.905 42.8112C220.252 42.654 220.664 42.8278 220.811 43.181C220.96 43.533 220.793 43.9383 220.441 44.0866C220.302 44.1453 220.162 44.2051 220.02 44.2682C219.084 44.68 218.167 45.1428 217.291 45.6455C217.256 45.6665 217.218 45.6831 217.18 45.6964C216.87 45.8104 216.516 45.6864 216.346 45.3919Z" fill="#E527BB"/>
</g>
<g opacity="0.3">
<path d="M241.259 98.6045C240.119 98.9987 238.943 99.3264 237.768 99.5788C237.394 99.6585 237.025 99.4216 236.946 99.0474C236.865 98.6732 237.106 98.3089 237.478 98.2259C238.599 97.9845 239.719 97.6723 240.807 97.2959C241.168 97.1708 241.562 97.3623 241.688 97.7233C241.812 98.082 241.623 98.4728 241.268 98.6001C241.266 98.6023 241.262 98.6045 241.259 98.6045ZM243.684 96.8973C243.517 96.5541 243.66 96.14 244.004 95.9729C245.038 95.4702 246.053 94.8989 247.019 94.2767C247.339 94.0719 247.769 94.1616 247.976 94.4838C248.183 94.8048 248.092 95.2322 247.77 95.4403C246.758 96.0924 245.695 96.6914 244.61 97.2184C244.587 97.2295 244.565 97.2394 244.542 97.2472C244.213 97.3645 243.84 97.2184 243.684 96.8973ZM234.183 100.124C232.98 100.231 231.761 100.265 230.558 100.227C230.176 100.214 229.876 99.8944 229.889 99.5124C229.901 99.1304 230.221 98.8326 230.604 98.8426C231.751 98.8802 232.914 98.847 234.061 98.7452C234.442 98.7108 234.777 98.992 234.812 99.3729C234.841 99.6929 234.646 99.9818 234.358 100.086C234.301 100.105 234.243 100.118 234.183 100.124ZM249.717 93.2028C249.472 92.9094 249.511 92.4732 249.804 92.2285C250.687 91.4923 251.534 90.694 252.319 89.8559C252.581 89.578 253.02 89.5636 253.298 89.8238C253.577 90.0851 253.591 90.5235 253.33 90.8025C252.506 91.6816 251.618 92.5197 250.692 93.2914C250.628 93.3445 250.557 93.3844 250.482 93.4109C250.217 93.5061 249.907 93.432 249.717 93.2028ZM226.95 99.8877C225.76 99.7028 224.568 99.4427 223.408 99.116C223.04 99.012 222.826 98.63 222.929 98.2624C223.032 97.8949 223.416 97.6801 223.783 97.7841C224.89 98.0964 226.026 98.3444 227.162 98.5204C227.539 98.5791 227.799 98.9323 227.739 99.3109C227.699 99.57 227.519 99.7726 227.289 99.8556C227.185 99.8922 227.068 99.9054 226.95 99.8877ZM219.984 97.9236C218.871 97.4586 217.775 96.9217 216.729 96.3272C216.397 96.1389 216.28 95.7171 216.469 95.3839C216.657 95.0517 217.08 94.9344 217.413 95.1237C218.411 95.6894 219.456 96.202 220.518 96.646C220.871 96.7933 221.038 97.1985 220.89 97.5517C220.812 97.7377 220.661 97.8727 220.485 97.9358C220.329 97.9934 220.151 97.9934 219.984 97.9236ZM213.689 94.3509C212.718 93.6324 211.783 92.8474 210.911 92.0204C210.633 91.7569 210.622 91.3195 210.886 91.0417C211.149 90.7649 211.587 90.7538 211.864 91.0162C212.696 91.8056 213.588 92.554 214.513 93.2382C214.82 93.4663 214.886 93.8992 214.657 94.2059C214.573 94.3199 214.46 94.4007 214.336 94.445C214.127 94.5214 213.883 94.4937 213.689 94.3509Z" fill="#91B3FA"/>
<path d="M255.341 88.2273C255.466 88.1819 255.581 88.1 255.666 87.9838C256.015 87.5055 256.352 87.0139 256.666 86.5246C256.872 86.2035 256.779 85.775 256.458 85.568C256.137 85.3632 255.708 85.4551 255.501 85.7761C255.201 86.2433 254.879 86.7117 254.547 87.1678C254.322 87.4767 254.389 87.9096 254.699 88.1343C254.891 88.2761 255.132 88.3026 255.341 88.2273Z" fill="#91B3FA"/>
</g>
<path d="M253.466 75.1885C253.516 75.0479 253.47 74.8907 253.353 74.7977L250.01 72.1472C250.226 70.1676 250.127 68.1393 249.686 66.1376L252.722 63.1439C252.829 63.0387 252.856 62.8782 252.792 62.7431L250.581 58.1307C250.516 57.9957 250.372 57.9171 250.225 57.9337L245.988 58.4219C244.704 56.8243 243.184 55.4769 241.504 54.4041L241.532 50.1394C241.533 49.9899 241.439 49.8559 241.298 49.8061L236.47 48.1067C236.329 48.0568 236.172 48.1022 236.079 48.2196L233.426 51.5598C231.445 51.3439 229.416 51.4425 227.413 51.8831L224.417 48.8496C224.311 48.7433 224.151 48.7156 224.016 48.7798L219.399 50.9897C219.264 51.0539 219.185 51.1978 219.202 51.3462L219.69 55.5799C218.092 56.8631 216.743 58.3821 215.67 60.0605L211.402 60.0328C211.252 60.0317 211.118 60.1258 211.068 60.2664L209.368 65.0913C209.318 65.2319 209.363 65.3892 209.481 65.4822L212.823 68.1327C212.607 70.1122 212.706 72.1405 213.147 74.1422L210.111 77.1359C210.005 77.2411 209.977 77.4017 210.041 77.5367L212.253 82.1502C212.317 82.2853 212.461 82.3639 212.609 82.3473L216.846 81.859C218.13 83.4566 219.65 84.804 221.33 85.8768L221.302 90.1416C221.301 90.291 221.395 90.425 221.536 90.4748L226.364 92.1743C226.505 92.2241 226.663 92.1787 226.756 92.0613L229.408 88.7211C231.389 88.937 233.419 88.8384 235.422 88.3978L238.418 91.4314C238.523 91.5377 238.684 91.5653 238.819 91.5011L243.436 89.2913C243.571 89.2271 243.649 89.0831 243.633 88.9348L243.144 84.701C244.743 83.4179 246.091 81.8978 247.165 80.2204L251.433 80.2481C251.582 80.2492 251.716 80.1551 251.766 80.0145L253.466 75.1885Z" fill="#E527BB"/>
<path d="M232.456 75.2705C231.084 75.5484 229.687 75.2749 228.521 74.501C227.356 73.7282 226.561 72.548 226.284 71.1774C225.712 68.3486 227.546 65.5874 230.38 65.0095C233.211 64.4382 235.98 66.2738 236.552 69.1026C236.829 70.4732 236.556 71.8693 235.783 73.034C235.153 73.9806 234.255 74.6826 233.205 75.0612C232.962 75.1487 232.712 75.2184 232.456 75.2705ZM227.642 70.9039C227.845 71.9125 228.43 72.7805 229.288 73.3496C230.146 73.9175 231.174 74.119 232.182 73.9153C233.19 73.7105 234.059 73.127 234.628 72.2701C235.198 71.4143 235.398 70.3858 235.194 69.3783C234.773 67.2979 232.737 65.9472 230.655 66.3668C230.467 66.4045 230.285 66.4565 230.11 66.5196C228.343 67.1551 227.258 69.0107 227.642 70.9039Z" fill="white"/>
<path d="M235.729 82.3628C236.142 82.2145 236.549 82.044 236.953 81.8513C237.754 81.4683 238.516 81.0033 239.222 80.4674C239.253 80.4431 239.285 80.4187 239.316 80.3943C239.56 80.2061 239.643 79.8884 239.544 79.6138C239.52 79.5474 239.485 79.4832 239.44 79.4234C239.206 79.1211 238.771 79.068 238.468 79.3005C237.815 79.8064 237.103 80.2438 236.355 80.6025C236.314 80.6224 236.273 80.6412 236.232 80.6612C234.453 81.4926 232.534 81.848 230.624 81.7318C229.587 81.6687 228.553 81.4649 227.545 81.1206C227.537 81.1173 227.528 81.1151 227.521 81.1118C227.495 81.1029 227.471 81.0941 227.445 81.0852C224.508 80.0511 222.149 77.9365 220.804 75.1299C220.63 74.7667 220.475 74.3981 220.341 74.0238C219.435 71.5084 219.422 68.7815 220.322 66.2262C221.357 63.2912 223.473 60.9341 226.282 59.59C229.09 58.2471 232.255 58.0743 235.192 59.1073C238.129 60.1414 240.488 62.256 241.833 65.0626C242.005 65.4191 242.157 65.7845 242.291 66.1543C242.869 67.7585 243.089 69.4713 242.93 71.1707C242.92 71.2759 242.934 71.3767 242.968 71.4697C243.055 71.7143 243.279 71.8981 243.555 71.9236C243.936 71.9579 244.273 71.68 244.309 71.2992C244.488 69.3982 244.241 67.4817 243.595 65.6859C243.445 65.2719 243.274 64.8633 243.084 64.4648C241.578 61.3249 238.939 58.9589 235.653 57.802C232.367 56.6461 228.828 56.8343 225.685 58.3412C222.543 59.8458 220.175 62.4819 219.017 65.7668C218.009 68.6254 218.025 71.6767 219.038 74.4911C219.189 74.9084 219.362 75.3225 219.557 75.7277C222.469 81.8071 229.515 84.6004 235.729 82.3628Z" fill="white"/>
<path d="M422.62 302.979H119.381C117.515 302.979 116 301.467 116 299.601V77.0443C116 75.1787 117.513 73.6653 119.381 73.6653H422.62C424.487 73.6653 426 75.1776 426 77.0443V299.6C426 301.465 424.487 302.979 422.62 302.979Z" fill="#E527BB"/>
<path d="M405.123 294.041H134.245C127.951 294.041 122.848 288.943 122.848 282.652V92.1856C122.848 85.8959 127.951 80.7964 134.245 80.7964H405.123C411.417 80.7964 416.52 85.8948 416.52 92.1856V282.653C416.52 288.943 411.417 294.041 405.123 294.041Z" fill="#7D97F4"/>
<path d="M402.072 291.202H137.311C131.017 291.202 125.914 286.104 125.914 279.813V97.5794C125.914 91.2897 131.016 86.1902 137.311 86.1902H402.072C408.366 86.1902 413.47 91.2897 413.47 97.5794V279.813C413.47 286.104 408.366 291.202 402.072 291.202Z" fill="#BDD0FB"/>
<path opacity="0.59" d="M217.878 273.272H214.495C214.1 273.272 213.781 272.953 213.781 272.559V92.7369C213.781 92.3428 214.1 92.0239 214.495 92.0239H217.878C218.273 92.0239 218.592 92.3428 218.592 92.7369V272.558C218.592 272.953 218.273 273.272 217.878 273.272Z" fill="white"/>
<path opacity="0.59" d="M319.847 272.293H316.464C316.069 272.293 315.75 271.974 315.75 271.58V91.7591C315.75 91.365 316.069 91.0461 316.464 91.0461H319.847C320.242 91.0461 320.561 91.365 320.561 91.7591V271.58C320.561 271.974 320.242 272.293 319.847 272.293Z" fill="white"/>
<path d="M406.896 166.603H331.951C330.68 166.603 329.648 165.574 329.648 164.303V123.754C329.648 122.484 330.679 121.453 331.951 121.453H406.896C408.167 121.453 409.198 122.483 409.198 123.754V164.303C409.197 165.573 408.167 166.603 406.896 166.603Z" fill="#7C61E0"/>
<path d="M398.66 164.686H339.127C334.842 164.686 331.367 161.214 331.367 156.931V131.125C331.367 126.842 334.842 123.37 339.127 123.37H398.66C402.945 123.37 406.42 126.842 406.42 131.125V156.931C406.42 161.214 402.945 164.686 398.66 164.686Z" fill="#A78BEF"/>
<path d="M402.142 137.948H366.959C366.621 137.948 366.348 137.675 366.348 137.337V134.441C366.348 134.103 366.621 133.83 366.959 133.83H402.142C402.48 133.83 402.753 134.103 402.753 134.441V137.337C402.753 137.675 402.48 137.948 402.142 137.948Z" fill="url(#paint0_linear_1325_11016)"/>
<path d="M402.142 146.774H366.959C366.621 146.774 366.348 146.501 366.348 146.163V143.267C366.348 142.929 366.621 142.656 366.959 142.656H402.142C402.48 142.656 402.753 142.929 402.753 143.267V146.163C402.753 146.5 402.48 146.774 402.142 146.774Z" fill="url(#paint1_linear_1325_11016)"/>
<path d="M402.142 155.24H366.959C366.621 155.24 366.348 154.966 366.348 154.629V151.732C366.348 151.395 366.621 151.121 366.959 151.121H402.142C402.48 151.121 402.753 151.395 402.753 151.732V154.629C402.753 154.966 402.48 155.24 402.142 155.24Z" fill="url(#paint2_linear_1325_11016)"/>
<path d="M350.769 140.694H337.054C336.606 140.694 336.242 140.331 336.242 139.882V128.694C336.242 128.245 336.606 127.882 337.054 127.882H350.769C351.218 127.882 351.582 128.245 351.582 128.694V139.882C351.582 140.331 351.218 140.694 350.769 140.694Z" fill="url(#paint3_linear_1325_11016)"/>
<path d="M339.378 133.835C339.934 133.51 340.649 133.703 340.963 134.266L342.44 136.911C342.588 137.175 342.974 137.159 343.099 136.882L346.762 128.733C346.945 128.327 347.551 128.464 347.544 128.909C347.507 131.402 346.845 136.14 342.86 140.106C342.86 140.106 340.664 139.253 338.895 135.372C338.638 134.813 338.846 134.147 339.378 133.835Z" fill="#7C61E0"/>
<path d="M306.001 165.603H231.056C229.785 165.603 228.754 164.574 228.754 163.303V122.755C228.754 121.485 229.784 120.454 231.056 120.454H306.001C307.272 120.454 308.304 121.484 308.304 122.755V163.304C308.302 164.574 307.272 165.603 306.001 165.603Z" fill="#7C61E0"/>
<path d="M297.761 163.686H238.229C233.943 163.686 230.469 160.214 230.469 155.931V130.125C230.469 125.843 233.943 122.371 238.229 122.371H297.761C302.047 122.371 305.521 125.843 305.521 130.125V155.931C305.521 160.214 302.047 163.686 297.761 163.686Z" fill="#A78BEF"/>
<path d="M301.247 136.948H266.065C265.727 136.948 265.453 136.675 265.453 136.337V133.441C265.453 133.103 265.727 132.83 266.065 132.83H301.247C301.585 132.83 301.859 133.103 301.859 133.441V136.337C301.859 136.676 301.585 136.948 301.247 136.948Z" fill="url(#paint4_linear_1325_11016)"/>
<path d="M301.247 145.775H266.065C265.727 145.775 265.453 145.501 265.453 145.163V142.267C265.453 141.929 265.727 141.656 266.065 141.656H301.247C301.585 141.656 301.859 141.929 301.859 142.267V145.163C301.859 145.501 301.585 145.775 301.247 145.775Z" fill="url(#paint5_linear_1325_11016)"/>
<path d="M301.247 154.24H266.065C265.727 154.24 265.453 153.966 265.453 153.629V150.732C265.453 150.395 265.727 150.121 266.065 150.121H301.247C301.585 150.121 301.859 150.395 301.859 150.732V153.629C301.859 153.966 301.585 154.24 301.247 154.24Z" fill="url(#paint6_linear_1325_11016)"/>
<path d="M249.875 139.694H236.16C235.711 139.694 235.348 139.331 235.348 138.882V127.694C235.348 127.245 235.711 126.882 236.16 126.882H249.875C250.324 126.882 250.687 127.245 250.687 127.694V138.882C250.688 139.331 250.324 139.694 249.875 139.694Z" fill="url(#paint7_linear_1325_11016)"/>
<path d="M306.232 217.496H231.287C230.016 217.496 228.984 216.467 228.984 215.196V174.647C228.984 173.377 230.015 172.346 231.287 172.346H306.232C307.503 172.346 308.534 173.376 308.534 174.647V215.196C308.534 216.466 307.504 217.496 306.232 217.496Z" fill="#7C61E0"/>
<path d="M297.996 215.579H238.463C234.178 215.579 230.703 212.107 230.703 207.824V182.018C230.703 177.735 234.178 174.263 238.463 174.263H297.996C302.281 174.263 305.756 177.735 305.756 182.018V207.824C305.756 212.107 302.281 215.579 297.996 215.579Z" fill="#A78BEF"/>
<path d="M301.482 188.841H266.299C265.961 188.841 265.688 188.568 265.688 188.23V185.334C265.688 184.996 265.961 184.723 266.299 184.723H301.482C301.819 184.723 302.093 184.996 302.093 185.334V188.23C302.092 188.568 301.819 188.841 301.482 188.841Z" fill="url(#paint8_linear_1325_11016)"/>
<path d="M301.482 197.667H266.299C265.961 197.667 265.688 197.394 265.688 197.056V194.16C265.688 193.822 265.961 193.549 266.299 193.549H301.482C301.819 193.549 302.093 193.822 302.093 194.16V197.056C302.092 197.394 301.819 197.667 301.482 197.667Z" fill="url(#paint9_linear_1325_11016)"/>
<path d="M301.482 206.133H266.299C265.961 206.133 265.688 205.859 265.688 205.522V202.625C265.688 202.288 265.961 202.014 266.299 202.014H301.482C301.819 202.014 302.093 202.288 302.093 202.625V205.522C302.092 205.859 301.819 206.133 301.482 206.133Z" fill="url(#paint10_linear_1325_11016)"/>
<path d="M250.105 191.587H236.39C235.942 191.587 235.578 191.224 235.578 190.775V179.587C235.578 179.138 235.942 178.775 236.39 178.775H250.105C250.554 178.775 250.917 179.138 250.917 179.587V190.775C250.919 191.224 250.554 191.587 250.105 191.587Z" fill="white"/>
<path d="M205.001 162.954H130.056C128.785 162.954 127.754 161.924 127.754 160.653V120.105C127.754 118.835 128.784 117.805 130.056 117.805H205.001C206.272 117.805 207.304 118.834 207.304 120.105V160.654C207.304 161.924 206.273 162.954 205.001 162.954Z" fill="#7C61E0"/>
<path d="M196.765 161.036H137.233C132.947 161.036 129.473 157.564 129.473 153.282V127.477C129.473 123.194 132.947 119.722 137.233 119.722H196.765C201.051 119.722 204.525 123.194 204.525 127.477V153.283C204.525 157.565 201.051 161.036 196.765 161.036Z" fill="#A78BEF"/>
<path d="M200.251 134.3H165.069C164.731 134.3 164.457 134.027 164.457 133.689V130.793C164.457 130.455 164.731 130.181 165.069 130.181H200.251C200.589 130.181 200.863 130.455 200.863 130.793V133.689C200.862 134.027 200.588 134.3 200.251 134.3Z" fill="url(#paint11_linear_1325_11016)"/>
<path d="M200.251 143.125H165.069C164.731 143.125 164.457 142.852 164.457 142.514V139.618C164.457 139.28 164.731 139.007 165.069 139.007H200.251C200.589 139.007 200.863 139.28 200.863 139.618V142.514C200.862 142.852 200.588 143.125 200.251 143.125Z" fill="url(#paint12_linear_1325_11016)"/>
<path d="M200.251 151.59H165.069C164.731 151.59 164.457 151.317 164.457 150.979V148.083C164.457 147.745 164.731 147.472 165.069 147.472H200.251C200.589 147.472 200.863 147.745 200.863 148.083V150.979C200.862 151.317 200.588 151.59 200.251 151.59Z" fill="url(#paint13_linear_1325_11016)"/>
<path d="M148.875 137.046H135.16C134.711 137.046 134.348 136.682 134.348 136.234V125.044C134.348 124.596 134.711 124.233 135.16 124.233H148.875C149.324 124.233 149.687 124.596 149.687 125.044V136.233C149.688 136.681 149.324 137.046 148.875 137.046Z" fill="url(#paint14_linear_1325_11016)"/>
<path d="M406.896 218.869H331.951C330.68 218.869 329.648 217.84 329.648 216.569V176.019C329.648 174.75 330.679 173.719 331.951 173.719H406.896C408.167 173.719 409.198 174.748 409.198 176.019V216.569C409.197 217.838 408.167 218.869 406.896 218.869Z" fill="#7C61E0"/>
<path d="M398.66 216.951H339.127C334.842 216.951 331.367 213.479 331.367 209.197V183.391C331.367 179.108 334.842 175.636 339.127 175.636H398.66C402.945 175.636 406.42 179.108 406.42 183.391V209.197C406.42 213.479 402.945 216.951 398.66 216.951Z" fill="#A78BEF"/>
<path d="M402.142 190.214H366.959C366.621 190.214 366.348 189.941 366.348 189.603V186.707C366.348 186.369 366.621 186.095 366.959 186.095H402.142C402.48 186.095 402.753 186.369 402.753 186.707V189.603C402.753 189.941 402.48 190.214 402.142 190.214Z" fill="url(#paint15_linear_1325_11016)"/>
<path d="M402.142 199.04H366.959C366.621 199.04 366.348 198.767 366.348 198.429V195.533C366.348 195.195 366.621 194.922 366.959 194.922H402.142C402.48 194.922 402.753 195.195 402.753 195.533V198.429C402.753 198.767 402.48 199.04 402.142 199.04Z" fill="url(#paint16_linear_1325_11016)"/>
<path d="M402.142 207.506H366.959C366.621 207.506 366.348 207.232 366.348 206.894V203.998C366.348 203.66 366.621 203.387 366.959 203.387H402.142C402.48 203.387 402.753 203.66 402.753 203.998V206.894C402.753 207.232 402.48 207.506 402.142 207.506Z" fill="url(#paint17_linear_1325_11016)"/>
<path d="M350.769 192.96H337.054C336.606 192.96 336.242 192.597 336.242 192.148V180.959C336.242 180.511 336.606 180.148 337.054 180.148H350.769C351.218 180.148 351.582 180.511 351.582 180.959V192.148C351.582 192.597 351.218 192.96 350.769 192.96Z" fill="url(#paint18_linear_1325_11016)"/>
<path d="M384.076 215.668C398.413 213.713 402.335 216.493 402.335 216.493L395.991 227.777C395.991 227.777 381.825 228.244 371.273 220.971C373.063 218.828 374.262 216.502 375.014 214.7C377.686 215.646 380.731 216.125 384.076 215.668Z" fill="#7C61E0"/>
<path d="M360.402 195.734C360.398 195.272 361.016 195.113 361.234 195.521L363.28 199.343C363.675 200.081 363.834 200.922 363.734 201.754L363.21 204.069C363.076 205.192 363.427 206.315 364.179 207.16C365.98 209.181 369.779 212.843 375.01 214.699C374.258 216.501 373.059 218.827 371.27 220.969C367.398 218.3 364.012 214.59 361.991 209.431C361.142 209.218 360.543 208.462 360.53 207.589L360.402 195.734Z" fill="url(#paint19_linear_1325_11016)"/>
<path d="M407.367 320.852C407.367 320.852 408.22 322.603 407.965 327.209C407.942 327.638 407.562 327.963 407.135 327.915L399.02 327.001C398.693 326.964 398.496 326.618 398.635 326.32C399.27 324.967 401.095 321.7 404.524 320.102L407.367 320.852Z" fill="#A78BEF"/>
<path d="M408.068 317.79L407.175 321.584C407.097 321.912 406.808 322.148 406.471 322.149C406.022 322.15 405.372 322.114 404.757 321.94C404.198 321.781 403.846 321.228 403.91 320.651L404.329 316.938L408.068 317.79Z" fill="url(#paint20_linear_1325_11016)"/>
<path d="M387.359 318.417C387.359 318.417 388.861 320.883 388.744 324.214C388.716 324.999 388.044 325.607 387.258 325.588L374.578 325.271C373.984 325.257 373.762 324.489 374.256 324.16C376.698 322.536 381.492 319.509 384.935 318.357L387.359 318.417Z" fill="#A78BEF"/>
<path d="M388.448 314.768L387.261 319.502C387.128 320.031 386.591 320.369 386.062 320.227C385.741 320.141 385.365 319.987 384.968 319.715C384.59 319.455 384.413 318.986 384.511 318.54L385.775 312.797L388.448 314.768Z" fill="url(#paint21_linear_1325_11016)"/>
<path d="M413.887 250.069C413.887 250.069 416.952 253.451 417.186 257.132C417.42 260.813 408.347 319.183 408.347 319.183C408.347 319.183 404.879 319.366 403.244 318.105C403.244 318.105 405.458 279.809 404.867 270.835C404.867 270.835 392.122 309.327 389.019 316.193C389.019 316.193 385.694 316.222 384.707 315.479C384.707 315.479 392.646 264.615 396.402 255.837L413.887 250.069Z" fill="#231F20"/>
<path d="M405.148 269.563C405.109 269.563 405.07 269.557 405.031 269.541C404.865 269.477 404.782 269.29 404.845 269.124L406.917 263.744C406.946 263.668 407.004 263.606 407.076 263.57L410.426 261.92C410.587 261.841 410.781 261.906 410.859 262.067C410.938 262.227 410.873 262.421 410.713 262.5L407.476 264.095L405.45 269.357C405.399 269.485 405.277 269.563 405.148 269.563Z" fill="#7D97F4"/>
<path d="M378.69 218.164C384.348 213.3 394.234 211.929 399.911 211.548C402.399 211.381 404.648 213.007 405.25 215.424C406.995 222.431 411.83 240.697 412.811 243.852C413.615 246.442 414.474 248.978 415.022 250.566C415.35 251.514 414.854 252.548 413.906 252.881C408.971 254.608 400.259 256.21 396.733 256.82C395.957 256.954 395.272 256.306 395.361 255.525C395.436 254.861 395.329 254.19 395.052 253.584L384.55 230.592C375.481 238.615 368.331 238.636 363.129 236.07C364.359 233.356 365.273 230.603 365.879 227.808C374.043 227.339 378.69 218.164 378.69 218.164Z" fill="#A78BEF"/>
<path d="M352.805 224.817L354.468 223.053C358.785 226.793 362.612 227.994 365.877 227.807C365.272 230.602 364.357 233.355 363.127 236.069C356.274 232.689 352.805 224.817 352.805 224.817Z" fill="url(#paint22_linear_1325_11016)"/>
<path d="M353.821 224.967L345.64 224.367L338.613 219.336C339.766 218.783 345.697 220.848 345.697 220.848C345.697 220.848 352.169 220.603 353.892 220.795C355.322 220.954 354.887 222.987 354.697 223.671C354.658 223.81 354.631 223.893 354.631 223.893L353.821 224.967Z" fill="url(#paint23_linear_1325_11016)"/>
<path d="M393.382 200.708L396.497 211.671C396.497 211.671 391.174 214.529 387.238 213.757L386.156 204.092L393.382 200.708Z" fill="url(#paint24_linear_1325_11016)"/>
<path d="M386.263 190.866C386.263 190.866 382.512 196.86 381.822 200.197C381.132 203.534 380.08 205.61 383.872 206.868C387.664 208.127 391.234 206.677 393.512 203.591C393.512 203.591 397.067 198.841 396.759 196.633C396.45 194.425 386.263 190.866 386.263 190.866Z" fill="url(#paint25_linear_1325_11016)"/>
<path d="M392.541 200.983L392.334 200.853C392.07 200.687 392 200.332 392.182 200.08C392.89 199.102 394.323 196.833 393.025 196.059C391.353 195.062 384.509 192.571 383.36 189.841C382.255 187.217 384.017 184.305 386.098 183.713C386.237 183.673 386.383 183.743 386.431 183.88L386.547 184.211C386.627 184.438 386.943 184.453 387.043 184.235C387.139 184.024 387.437 184.025 387.529 184.238C387.886 185.056 388.968 186.459 392.254 187.587C396.925 189.189 399.81 191.606 399.395 194.934C399.368 195.145 399.576 195.296 399.772 195.213C400.158 195.05 400.741 195.034 401.405 195.784C402.558 197.09 401.589 199.884 398.344 201.818C398.19 201.91 398.159 202.125 398.293 202.243C398.766 202.663 399.426 203.591 397.24 204.37C394.978 205.176 393.428 204.852 392.84 204.662C392.694 204.615 392.62 204.456 392.674 204.313L393.752 201.494C393.813 201.334 393.711 201.159 393.542 201.134L392.541 200.983Z" fill="#231F20"/>
<path d="M392.328 201.58C392.328 201.58 394.006 197.644 395.672 199.066C397.338 200.489 394.033 203.512 392.533 203.445L392.328 201.58Z" fill="url(#paint26_linear_1325_11016)"/>
<path d="M338.129 201.706C339.902 200.667 342.182 201.288 343.184 203.08L347.892 211.514C348.363 212.359 349.596 212.305 349.993 211.424L361.672 185.442C362.254 184.146 364.186 184.584 364.165 186.005C364.045 193.952 361.935 209.059 349.227 221.703C349.227 221.703 342.224 218.983 336.585 206.609C335.77 204.822 336.434 202.7 338.129 201.706Z" fill="#E527BB"/>
<path opacity="0.59" d="M205.828 106.702H129.23C128.415 106.702 127.754 106.042 127.754 105.228V90.0697C127.754 89.2559 128.414 88.595 129.23 88.595H205.828C206.642 88.595 207.304 89.2548 207.304 90.0697V105.228C207.304 106.041 206.643 106.702 205.828 106.702Z" fill="white"/>
<path opacity="0.59" d="M305.843 107.075H229.245C228.431 107.075 227.77 106.415 227.77 105.601V90.4427C227.77 89.629 228.43 88.968 229.245 88.968H305.843C306.658 88.968 307.319 89.6279 307.319 90.4427V105.601C307.318 106.415 306.658 107.075 305.843 107.075Z" fill="white"/>
<path opacity="0.59" d="M406.441 107.075H329.843C329.029 107.075 328.367 106.415 328.367 105.601V90.4427C328.367 89.629 329.028 88.968 329.843 88.968H406.441C407.255 88.968 407.917 89.6279 407.917 90.4427V105.601C407.917 106.415 407.255 107.075 406.441 107.075Z" fill="white"/>
<path d="M319.303 297.903C319.303 297.903 303.484 315.33 290.271 307.965C279.653 302.046 294.739 303.592 307.535 300.796C308.539 300.576 308.277 299.076 307.257 299.211C297.246 300.538 281.969 301.621 279.315 296.406C275.31 288.531 279.194 291.085 291.385 292.222C303.576 293.359 305.924 290.351 297.967 288.477C290.01 286.604 277.351 290.748 274.401 286.894C271.452 283.041 269.84 275.392 268.666 272.103C267.491 268.814 283.841 263.878 288.262 268.196C292.682 272.514 296.272 282.153 301.518 283.913C306.764 285.672 301.121 277.146 297.641 272.745C294.161 268.344 292.783 265.074 299.734 266.123C306.686 267.173 310.359 275.65 311.092 281.979C311.824 288.307 314.273 291.845 314.162 288.716C314.051 285.586 312.914 275.984 310.693 273.098C308.472 270.211 324.33 273.733 319.303 297.903Z" fill="#198919"/>
<path opacity="0.53" d="M318.017 298.069C317.947 298.095 317.866 298.083 317.805 298.031C304.228 286.16 281.454 277.532 281.225 277.447C281.117 277.407 281.063 277.286 281.103 277.179C281.143 277.072 281.264 277.017 281.371 277.058C281.6 277.144 304.443 285.798 318.079 297.719C318.166 297.794 318.174 297.926 318.099 298.012C318.077 298.039 318.048 298.058 318.017 298.069Z" fill="white"/>
<path d="M328.853 309.034C328.853 309.034 299.963 309.986 295.174 292.055C291.325 277.643 302.848 292.254 316.248 301.138C317.299 301.835 318.398 300.322 317.409 299.539C307.685 291.852 293.678 279.32 296.013 272.526C299.539 262.269 300.605 267.874 310.015 279.585C319.426 291.296 324.087 290.796 318.942 282.186C313.797 273.575 299.326 265.963 300.207 260.073C301.088 254.183 306.458 246.228 308.356 242.383C310.254 238.538 328.577 248.724 328.543 256.308C328.51 263.892 323.072 275.289 326.002 281.414C328.931 287.539 331.632 275.284 332.542 268.459C333.453 261.635 335.16 257.626 340.171 264.645C345.182 271.664 340.844 282.145 335.887 288.196C330.93 294.248 329.9 299.428 332.566 296.656C335.233 293.884 342.733 284.68 343.381 280.257C344.029 275.834 354.47 292.814 328.853 309.034Z" fill="#39B039"/>
<path opacity="0.53" d="M327.607 308.042C327.523 308.003 327.465 307.921 327.46 307.824C326.332 285.721 314.49 258.287 314.369 258.012C314.312 257.883 314.372 257.733 314.501 257.677C314.629 257.621 314.78 257.68 314.837 257.81C314.956 258.085 326.837 285.601 327.969 307.798C327.977 307.939 327.868 308.058 327.727 308.066C327.685 308.067 327.643 308.058 327.607 308.042Z" fill="white"/>
<path d="M294.325 199.434H206.841C205.571 199.434 204.539 198.405 204.539 197.134V149.469C204.539 148.199 205.569 147.168 206.841 147.168H294.325C295.596 147.168 296.627 148.198 296.627 149.469V197.134C296.627 198.405 295.597 199.434 294.325 199.434Z" fill="#E527BB"/>
<path d="M291.107 197.215H208.83C207.559 197.215 206.527 196.185 206.527 194.914V151.688C206.527 150.418 207.558 149.387 208.83 149.387H291.107C292.378 149.387 293.409 150.417 293.409 151.688V194.914C293.408 196.185 292.378 197.215 291.107 197.215Z" fill="#E527BB"/>
<path d="M288.555 166.263H247.635C247.297 166.263 247.023 165.99 247.023 165.652V162.106C247.023 161.768 247.297 161.495 247.635 161.495H288.555C288.893 161.495 289.167 161.768 289.167 162.106V165.652C289.167 165.99 288.893 166.263 288.555 166.263Z" fill="white"/>
<path d="M288.555 176.48H247.635C247.297 176.48 247.023 176.207 247.023 175.869V172.323C247.023 171.985 247.297 171.712 247.635 171.712H288.555C288.893 171.712 289.167 171.985 289.167 172.323V175.869C289.167 176.207 288.893 176.48 288.555 176.48Z" fill="white"/>
<path d="M288.555 186.279H247.635C247.297 186.279 247.023 186.006 247.023 185.668V182.122C247.023 181.784 247.297 181.511 247.635 181.511H288.555C288.893 181.511 289.167 181.784 289.167 182.122V185.668C289.167 186.006 288.893 186.279 288.555 186.279Z" fill="white"/>
<path d="M229.118 169.442H212.984C212.535 169.442 212.172 169.079 212.172 168.63V155.422C212.172 154.974 212.535 154.611 212.984 154.611H229.118C229.566 154.611 229.93 154.974 229.93 155.422V168.63C229.93 169.079 229.566 169.442 229.118 169.442Z" fill="white"/>
<path d="M204.681 187.162L204.765 184.361L201.835 178.546C201.299 177.482 201.294 176.229 201.824 175.161L205.143 168.464C205.143 168.464 207.06 183.002 207.565 184.21C208.07 185.418 206.197 187.589 206.197 187.589L204.681 187.162Z" fill="url(#paint27_linear_1325_11016)"/>
<path d="M180.428 184.708C180.428 184.708 177.295 186.232 176.718 187.981C176.256 189.385 172.792 189.565 172.45 192.327C172.273 193.751 171.218 194.893 169.797 195.111C166.26 195.652 160.806 197.489 159.933 203.628C159.267 208.314 161.658 210.091 164.167 210.706C166.009 211.158 167.233 212.949 166.861 214.807C166.503 216.59 167.037 218.651 170.127 220.281C177.054 223.933 183.972 211.627 183.972 211.627L185.39 190.141L180.428 184.708Z" fill="#231F20"/>
<path d="M204.684 187.162C204.684 187.162 205.317 205.794 188.934 205.247C188.934 205.247 193.988 213.489 196.626 213.989C196.626 213.989 213.387 208.175 207.567 184.21L204.684 187.162Z" fill="url(#paint28_linear_1325_11016)"/>
<path d="M151.954 319.432L151.505 323.115C151.039 324.865 148.784 329.275 145.89 328.987C144.11 328.811 143.896 323.613 144.143 322.833C144.595 321.412 145.423 319.278 146.615 318.022H150.703C151.46 318.022 152.046 318.683 151.954 319.432Z" fill="#A78BEF"/>
<path d="M183.97 276.297L184.66 280.352C184.66 280.352 182.35 303.738 181.939 313.094C181.874 314.561 182.253 316.01 183.025 317.26L187.042 323.78L176.831 317.759L176.627 316.514L178.299 314.217L176.11 288.019C175.981 286.48 176.299 284.937 177.025 283.573L179.137 279.608L183.97 276.297Z" fill="url(#paint29_linear_1325_11016)"/>
<path d="M187.713 324.723H184.455C183.844 324.723 183.269 324.443 182.898 323.96C181.882 322.642 179.778 320.068 178.771 320.001C177.416 319.91 177.59 324.723 177.59 324.723H176.831L175.869 318.744C175.628 317.239 176.375 315.749 177.728 315.043C177.728 315.043 178.037 317.332 179.717 318.344C181.397 319.356 186.55 322.982 186.55 322.982C186.55 322.982 187.181 322.892 187.874 323.017C188.902 323.202 188.758 324.723 187.713 324.723Z" fill="#A78BEF"/>
<path d="M169.986 278.222C169.986 278.222 156.451 303.879 154.299 309.737C152.148 315.595 151.394 320.482 151.365 320.945C151.32 321.668 150.42 322.362 147.94 322.362C146.659 322.362 146.032 321.849 145.725 321.352C145.463 320.928 145.449 320.399 145.671 319.953C146.454 318.369 148.938 313.309 149.859 311.014C150.958 308.273 153.321 295.855 154.617 291.538C155.913 287.22 157.378 282.537 163.023 278.222C163.022 278.222 166.896 274.43 169.986 278.222Z" fill="url(#paint30_linear_1325_11016)"/>
<path d="M178.538 236.182C180.52 227.787 178.526 221.463 176.432 217.565C174.761 214.456 175.935 210.609 179.069 208.981C183.966 206.436 188.934 205.246 188.934 205.246C188.934 205.246 198.637 212.335 197.486 217.883C196.811 221.134 190.665 237.362 190.665 237.362C190.665 237.362 184.983 240.05 178.538 236.182Z" fill="#A78BEF"/>
<path d="M170.795 243.502C172.217 239.224 178.536 236.183 178.536 236.183C184.981 240.051 190.664 237.363 190.664 237.363C190.664 237.363 191.938 242.231 191.058 246.755C190.179 251.279 184.66 280.352 184.66 280.352C175.965 282.113 162.59 278.581 162.59 278.581C168.13 268.754 169.374 247.779 170.795 243.502Z" fill="#231F20"/>
<path d="M182.59 195.476L179.751 208.218C179.48 209.341 180.503 209.157 181.639 208.944C183.498 208.593 185.896 207.872 186.697 206.426C186.779 206.279 186.819 206.113 186.842 205.946L188.062 197.111C188.158 196.41 187.779 195.729 187.132 195.442L184.779 194.399C183.872 193.997 182.822 194.513 182.59 195.476Z" fill="url(#paint31_linear_1325_11016)"/>
<path d="M185.92 183.345C185.92 183.345 189.282 184.763 191.568 189.618C193.855 194.472 192.147 196.713 190.003 197.021C187.859 197.329 184.652 197.282 181.26 194.146C177.868 191.01 181.549 181.663 185.92 183.345Z" fill="url(#paint32_linear_1325_11016)"/>
<path d="M183.539 191.555C183.539 191.555 181.003 184.453 187.304 184.369L188.786 185.404C188.786 185.404 191.098 181.466 187.304 179.586C183.509 177.706 179.067 179.259 177.452 184.367C175.837 189.477 175.561 192.897 178.247 195.341C180.934 197.786 182.041 195.015 182.041 195.015C182.041 195.015 180.577 192.729 181.173 191.505C181.77 190.282 183.143 191.759 183.143 191.759L183.539 191.555Z" fill="#231F20"/>
<path d="M182.833 192.345C182.833 192.345 181.551 188.686 179.84 190.143C178.128 191.6 181.23 193.523 182.444 194.146L182.833 192.345Z" fill="url(#paint33_linear_1325_11016)"/>
<path d="M216.5 201.682C216.5 201.682 207.909 220.956 180.471 210.559C178.663 209.874 176.85 211.83 176.701 213.757L176.62 214.798C176.403 217.589 178.682 219.942 181.479 219.8C191.499 219.294 205.893 225.147 218.535 208.174L216.5 201.682Z" fill="url(#paint34_linear_1325_11016)"/>
<path d="M218.536 208.174C218.536 208.174 219.972 203.953 220.332 201.313C220.693 198.674 219.365 192.752 218.225 191.085C217.085 189.419 216.893 193.502 216.379 195.421C215.865 197.34 216.735 200.078 216.735 200.078L216.211 203.666L218.536 208.174Z" fill="url(#paint35_linear_1325_11016)"/>
</g>
</g>
<defs>
<linearGradient id="paint0_linear_1325_11016" x1="366.348" y1="135.889" x2="402.753" y2="135.889" gradientUnits="userSpaceOnUse">
<stop stop-color="#DAE3FE"/>
<stop offset="1" stop-color="#E9EFFD"/>
</linearGradient>
<linearGradient id="paint1_linear_1325_11016" x1="366.348" y1="144.715" x2="402.753" y2="144.715" gradientUnits="userSpaceOnUse">
<stop stop-color="#DAE3FE"/>
<stop offset="1" stop-color="#E9EFFD"/>
</linearGradient>
<linearGradient id="paint2_linear_1325_11016" x1="366.348" y1="153.18" x2="402.753" y2="153.18" gradientUnits="userSpaceOnUse">
<stop stop-color="#DAE3FE"/>
<stop offset="1" stop-color="#E9EFFD"/>
</linearGradient>
<linearGradient id="paint3_linear_1325_11016" x1="336.241" y1="134.288" x2="351.582" y2="134.288" gradientUnits="userSpaceOnUse">
<stop stop-color="#DAE3FE"/>
<stop offset="1" stop-color="#E9EFFD"/>
</linearGradient>
<linearGradient id="paint4_linear_1325_11016" x1="265.453" y1="134.89" x2="301.858" y2="134.89" gradientUnits="userSpaceOnUse">
<stop stop-color="#DAE3FE"/>
<stop offset="1" stop-color="#E9EFFD"/>
</linearGradient>
<linearGradient id="paint5_linear_1325_11016" x1="265.453" y1="143.715" x2="301.858" y2="143.715" gradientUnits="userSpaceOnUse">
<stop stop-color="#DAE3FE"/>
<stop offset="1" stop-color="#E9EFFD"/>
</linearGradient>
<linearGradient id="paint6_linear_1325_11016" x1="265.453" y1="152.18" x2="301.858" y2="152.18" gradientUnits="userSpaceOnUse">
<stop stop-color="#DAE3FE"/>
<stop offset="1" stop-color="#E9EFFD"/>
</linearGradient>
<linearGradient id="paint7_linear_1325_11016" x1="235.348" y1="133.288" x2="250.688" y2="133.288" gradientUnits="userSpaceOnUse">
<stop stop-color="#DAE3FE"/>
<stop offset="1" stop-color="#E9EFFD"/>
</linearGradient>
<linearGradient id="paint8_linear_1325_11016" x1="265.688" y1="186.782" x2="302.093" y2="186.782" gradientUnits="userSpaceOnUse">
<stop stop-color="#DAE3FE"/>
<stop offset="1" stop-color="#E9EFFD"/>
</linearGradient>
<linearGradient id="paint9_linear_1325_11016" x1="265.688" y1="195.608" x2="302.093" y2="195.608" gradientUnits="userSpaceOnUse">
<stop stop-color="#DAE3FE"/>
<stop offset="1" stop-color="#E9EFFD"/>
</linearGradient>
<linearGradient id="paint10_linear_1325_11016" x1="265.688" y1="204.073" x2="302.093" y2="204.073" gradientUnits="userSpaceOnUse">
<stop stop-color="#DAE3FE"/>
<stop offset="1" stop-color="#E9EFFD"/>
</linearGradient>
<linearGradient id="paint11_linear_1325_11016" x1="164.457" y1="132.24" x2="200.862" y2="132.24" gradientUnits="userSpaceOnUse">
<stop stop-color="#DAE3FE"/>
<stop offset="1" stop-color="#E9EFFD"/>
</linearGradient>
<linearGradient id="paint12_linear_1325_11016" x1="164.457" y1="141.066" x2="200.862" y2="141.066" gradientUnits="userSpaceOnUse">
<stop stop-color="#DAE3FE"/>
<stop offset="1" stop-color="#E9EFFD"/>
</linearGradient>
<linearGradient id="paint13_linear_1325_11016" x1="164.457" y1="149.531" x2="200.862" y2="149.531" gradientUnits="userSpaceOnUse">
<stop stop-color="#DAE3FE"/>
<stop offset="1" stop-color="#E9EFFD"/>
</linearGradient>
<linearGradient id="paint14_linear_1325_11016" x1="134.347" y1="130.639" x2="149.688" y2="130.639" gradientUnits="userSpaceOnUse">
<stop stop-color="#DAE3FE"/>
<stop offset="1" stop-color="#E9EFFD"/>
</linearGradient>
<linearGradient id="paint15_linear_1325_11016" x1="366.348" y1="188.155" x2="402.753" y2="188.155" gradientUnits="userSpaceOnUse">
<stop stop-color="#DAE3FE"/>
<stop offset="1" stop-color="#E9EFFD"/>
</linearGradient>
<linearGradient id="paint16_linear_1325_11016" x1="366.348" y1="196.98" x2="402.753" y2="196.98" gradientUnits="userSpaceOnUse">
<stop stop-color="#DAE3FE"/>
<stop offset="1" stop-color="#E9EFFD"/>
</linearGradient>
<linearGradient id="paint17_linear_1325_11016" x1="366.348" y1="205.446" x2="402.753" y2="205.446" gradientUnits="userSpaceOnUse">
<stop stop-color="#DAE3FE"/>
<stop offset="1" stop-color="#E9EFFD"/>
</linearGradient>
<linearGradient id="paint18_linear_1325_11016" x1="336.241" y1="186.554" x2="351.582" y2="186.554" gradientUnits="userSpaceOnUse">
<stop stop-color="#DAE3FE"/>
<stop offset="1" stop-color="#E9EFFD"/>
</linearGradient>
<linearGradient id="paint19_linear_1325_11016" x1="374.639" y1="207.675" x2="360.573" y2="208.419" gradientUnits="userSpaceOnUse">
<stop stop-color="#FEBBBA"/>
<stop offset="1" stop-color="#FF928E"/>
</linearGradient>
<linearGradient id="paint20_linear_1325_11016" x1="407.836" y1="319.843" x2="404.049" y2="319.416" gradientUnits="userSpaceOnUse">
<stop stop-color="#FEBBBA"/>
<stop offset="1" stop-color="#FF928E"/>
</linearGradient>
<linearGradient id="paint21_linear_1325_11016" x1="388.368" y1="316.626" x2="384.582" y2="316.466" gradientUnits="userSpaceOnUse">
<stop stop-color="#FEBBBA"/>
<stop offset="1" stop-color="#FF928E"/>
</linearGradient>
<linearGradient id="paint22_linear_1325_11016" x1="344.086" y1="202.442" x2="370.063" y2="243.466" gradientUnits="userSpaceOnUse">
<stop stop-color="#FEBBBA"/>
<stop offset="1" stop-color="#FF928E"/>
</linearGradient>
<linearGradient id="paint23_linear_1325_11016" x1="337.833" y1="206.401" x2="363.812" y2="247.426" gradientUnits="userSpaceOnUse">
<stop stop-color="#FEBBBA"/>
<stop offset="1" stop-color="#FF928E"/>
</linearGradient>
<linearGradient id="paint24_linear_1325_11016" x1="380.675" y1="183.552" x2="403.872" y2="240.646" gradientUnits="userSpaceOnUse">
<stop stop-color="#FEBBBA"/>
<stop offset="1" stop-color="#FF928E"/>
</linearGradient>
<linearGradient id="paint25_linear_1325_11016" x1="384.834" y1="196.422" x2="398.966" y2="211.021" gradientUnits="userSpaceOnUse">
<stop stop-color="#FEBBBA"/>
<stop offset="1" stop-color="#FF928E"/>
</linearGradient>
<linearGradient id="paint26_linear_1325_11016" x1="387.2" y1="194.132" x2="401.332" y2="208.73" gradientUnits="userSpaceOnUse">
<stop stop-color="#FEBBBA"/>
<stop offset="1" stop-color="#FF928E"/>
</linearGradient>
<linearGradient id="paint27_linear_1325_11016" x1="206.295" y1="176.63" x2="180.443" y2="235.044" gradientUnits="userSpaceOnUse">
<stop stop-color="#FEBBBA"/>
<stop offset="1" stop-color="#FF928E"/>
</linearGradient>
<linearGradient id="paint28_linear_1325_11016" x1="209.249" y1="178.871" x2="190.545" y2="221.133" gradientUnits="userSpaceOnUse">
<stop stop-color="#FEBBBA"/>
<stop offset="1" stop-color="#FF928E"/>
</linearGradient>
<linearGradient id="paint29_linear_1325_11016" x1="185.262" y1="352.375" x2="173.937" y2="219.923" gradientUnits="userSpaceOnUse">
<stop stop-color="#FEBBBA"/>
<stop offset="1" stop-color="#FF928E"/>
</linearGradient>
<linearGradient id="paint30_linear_1325_11016" x1="162.451" y1="354.346" x2="151.124" y2="221.859" gradientUnits="userSpaceOnUse">
<stop stop-color="#FEBBBA"/>
<stop offset="1" stop-color="#FF928E"/>
</linearGradient>
<linearGradient id="paint31_linear_1325_11016" x1="186.507" y1="221.819" x2="184.38" y2="206.244" gradientUnits="userSpaceOnUse">
<stop stop-color="#FEBBBA"/>
<stop offset="1" stop-color="#FF928E"/>
</linearGradient>
<linearGradient id="paint32_linear_1325_11016" x1="191.884" y1="201.739" x2="173.317" y2="168.673" gradientUnits="userSpaceOnUse">
<stop stop-color="#FEBBBA"/>
<stop offset="1" stop-color="#FF928E"/>
</linearGradient>
<linearGradient id="paint33_linear_1325_11016" x1="187.929" y1="203.961" x2="169.362" y2="170.894" gradientUnits="userSpaceOnUse">
<stop stop-color="#FEBBBA"/>
<stop offset="1" stop-color="#FF928E"/>
</linearGradient>
<linearGradient id="paint34_linear_1325_11016" x1="169.674" y1="230.394" x2="233.635" y2="186.57" gradientUnits="userSpaceOnUse">
<stop stop-color="#FEBBBA"/>
<stop offset="1" stop-color="#FF928E"/>
</linearGradient>
<linearGradient id="paint35_linear_1325_11016" x1="170.688" y1="231.871" x2="234.648" y2="188.047" gradientUnits="userSpaceOnUse">
<stop stop-color="#FEBBBA"/>
<stop offset="1" stop-color="#FF928E"/>
</linearGradient>
<clipPath id="clip0_1325_11016">
<rect width="542.64" height="328.79" fill="white"/>
</clipPath>
<clipPath id="clip1_1325_11016">
<rect width="310" height="310" fill="white" transform="translate(116 19)"/>
</clipPath>
</defs>
</svg>
