<svg width="533" height="331" viewBox="0 0 533 331" fill="none" xmlns="http://www.w3.org/2000/svg">
<path opacity="0.2" fill-rule="evenodd" clip-rule="evenodd" d="M0 7.5756C0 7.5756 496.166 -10.2363 522.25 8.76437C545.499 25.7019 520.61 239.759 514.929 286.131C514.801 287.134 513.992 287.91 512.938 288.028C382.355 302.136 78.1811 295.779 13.6451 294.227C12.5792 294.197 11.7008 293.49 11.49 292.498C2.02627 247.216 0 7.5756 0 7.5756Z" fill="#999999"/>
<path d="M103 82.7916L103.914 86.8333L104.827 90.875L110.779 90.6082C111.839 92.8057 113.25 94.8461 114.993 96.6355L112.799 102.274L116.249 104.476L119.699 106.677L123.724 102.208C126.064 103.024 128.485 103.428 130.89 103.436L133.253 109L137.224 108.07L141.194 107.14L140.932 101.081C143.091 100.002 145.095 98.5661 146.853 96.7924L152.393 99.0252L154.555 95.5132L156.718 92.0012L152.327 87.9046C153.129 85.5227 153.526 83.0584 153.534 80.6099L159 78.2045L158.086 74.1627L157.173 70.121L151.217 70.3839C150.157 68.1865 148.746 66.146 147.004 64.3567L149.197 58.7179L145.747 56.5165L142.297 54.3152L138.268 58.7924C135.928 57.9762 133.508 57.5721 131.102 57.5642L128.739 52L124.769 52.93L120.798 53.86L121.06 59.9186C118.901 60.9977 116.897 62.4339 115.139 64.2076L109.6 61.9748L107.437 65.4868L105.274 68.9988L109.665 73.0954C108.863 75.4773 108.466 77.9416 108.459 80.3901L103 82.7916ZM118.046 72.2439C122.525 64.9649 131.954 62.7596 139.105 67.3154C146.256 71.875 148.422 81.4731 143.947 88.7522C139.467 96.0312 130.038 98.2365 122.887 93.6807C115.737 89.121 113.566 79.5229 118.046 72.2439Z" fill="#A78BEF"/>
<g opacity="0.5">
<path d="M355.582 92.9487L354.791 95.1028L354 97.2569L356.893 98.9659C356.73 100.313 356.778 101.692 357.06 103.059L354.318 104.999L355.284 107.082L356.249 109.164L359.504 108.329C360.362 109.43 361.383 110.36 362.516 111.108L361.952 114.418L364.105 115.209L366.259 116L367.968 113.107C369.315 113.27 370.694 113.222 372.061 112.94L374 115.682L376.083 114.716L378.165 113.751L377.33 110.496C378.431 109.637 379.361 108.616 380.108 107.483L383.418 108.047L384.209 105.893L385 103.739L382.107 102.03C382.27 100.683 382.222 99.3037 381.94 97.9365L384.682 95.9971L383.716 93.9145L382.751 91.8319L379.496 92.6665C378.638 91.5656 377.617 90.6356 376.484 89.8885L377.048 86.5778L374.895 85.7869L372.737 85L371.028 87.8933C369.681 87.7304 368.302 87.7781 366.935 88.0603L364.996 85.3179L362.913 86.2837L360.831 87.2495L361.666 90.5045C360.565 91.3629 359.635 92.3844 358.888 93.5171L355.582 92.9487ZM365.878 92.6864C370.193 90.6873 375.316 92.5632 377.315 96.8833C379.313 101.199 377.438 106.322 373.118 108.322C368.803 110.321 363.68 108.445 361.681 104.125C359.683 99.8045 361.562 94.6855 365.878 92.6864Z" fill="#A78BEF"/>
</g>
<g opacity="0.5">
<path d="M455.582 116.949L454.791 119.103L454 121.257L456.893 122.966C456.73 124.313 456.778 125.692 457.06 127.059L454.318 128.999L455.284 131.082L456.249 133.164L459.504 132.329C460.362 133.43 461.383 134.36 462.516 135.108L461.952 138.418L464.105 139.209L466.259 140L467.968 137.107C469.315 137.27 470.694 137.222 472.061 136.94L474 139.682L476.083 138.716L478.165 137.751L477.33 134.496C478.431 133.637 479.361 132.616 480.108 131.483L483.418 132.047L484.209 129.893L485 127.739L482.107 126.03C482.27 124.683 482.222 123.304 481.94 121.937L484.682 119.997L483.716 117.914L482.751 115.832L479.496 116.667C478.638 115.566 477.617 114.636 476.484 113.888L477.048 110.578L474.895 109.787L472.737 109L471.028 111.893C469.681 111.73 468.302 111.778 466.935 112.06L464.996 109.318L462.913 110.284L460.831 111.249L461.666 114.504C460.565 115.363 459.635 116.384 458.888 117.517L455.582 116.949ZM465.878 116.686C470.193 114.687 475.316 116.563 477.315 120.883C479.313 125.199 477.438 130.322 473.118 132.322C468.803 134.321 463.68 132.445 461.681 128.125C459.683 123.804 461.562 118.686 465.878 116.686Z" fill="#A78BEF"/>
</g>
<path d="M106.749 291.478L105.02 306.032L93.2266 305.597L95.3576 292.441L106.749 291.478Z" fill="#FFC5AE"/>
<path d="M97.6349 301.663C97.6349 301.663 101.863 304.658 105.587 301.034L114.838 305.132C114.838 305.132 118.233 306.265 118.233 308.011H93V302.868C93.0048 302.873 94.8404 300.405 97.6349 301.663Z" fill="#A78BEF"/>
<path d="M93.0981 302.873H92.9141V307.242H93.0981V302.873Z" fill="black"/>
<path d="M97.6847 301.586C99.7624 303.013 101.947 302.708 101.966 302.703L101.995 302.887C101.99 302.887 101.777 302.916 101.419 302.916C100.61 302.916 99.065 302.757 97.5781 301.736L97.6847 301.586Z" fill="black"/>
<path d="M94.1419 305.549L94.0391 305.701L95.2196 306.496L95.3225 306.344L94.1419 305.549Z" fill="black"/>
<path d="M95.0248 305.315L94.9219 305.467L96.1024 306.262L96.2053 306.11L95.0248 305.315Z" fill="black"/>
<path d="M92.6853 309.816C92.5351 309.816 92.4141 309.695 92.4141 309.545V307.61C92.4141 307.46 92.5351 307.339 92.6853 307.339H118.092C118.775 307.339 119.332 307.895 119.332 308.577C119.332 309.26 118.775 309.816 118.092 309.816H92.6853Z" fill="#231F20"/>
<path d="M115.679 305.578C113.814 304.784 105.629 301.155 105.547 301.121L105.624 300.952C105.707 300.991 113.892 304.615 115.756 305.408C117.65 306.216 118.158 307.252 118.178 307.3L118.008 307.377C118.003 307.368 117.505 306.352 115.679 305.578Z" fill="black"/>
<path d="M92.3203 309.192V307.958C92.3203 307.566 92.64 307.242 93.0371 307.242H118.091C118.827 307.242 119.423 307.837 119.423 308.573C119.423 308.964 119.253 309.332 118.953 309.589L118.832 309.448C119.088 309.231 119.239 308.911 119.239 308.573C119.239 307.939 118.725 307.426 118.091 307.426H93.0371C92.7465 307.426 92.5092 307.663 92.5092 307.953V309.187L92.3203 309.192Z" fill="black"/>
<path d="M73.2365 289.233L67.7008 302.81L56.4453 299.258L62.0004 287.143L73.2365 289.233Z" fill="#FFC5AE"/>
<path d="M61.7367 296.636C61.7367 296.636 65.0155 300.647 69.573 298.141L77.4043 304.547C77.4043 304.547 80.378 306.541 79.9131 308.224L55.5859 301.528L56.9517 296.568C56.9565 296.573 59.3781 294.681 61.7367 296.636Z" fill="#A78BEF"/>
<path d="M56.8725 296.561L55.7109 300.774L55.8884 300.823L57.0499 296.61L56.8725 296.561Z" fill="black"/>
<path d="M61.8094 296.578C63.4318 298.504 65.6209 298.789 65.6403 298.794L65.6161 298.978C65.6112 298.978 65.3933 298.949 65.0543 298.857C64.2745 298.644 62.8264 298.083 61.6641 296.699L61.8094 296.578Z" fill="black"/>
<path d="M57.3506 299.454L57.2109 299.574L58.1377 300.654L58.2774 300.534L57.3506 299.454Z" fill="black"/>
<path d="M58.2335 299.465L58.0938 299.585L59.0204 300.665L59.1601 300.545L58.2335 299.465Z" fill="black"/>
<path d="M54.8 303.182C54.6547 303.144 54.5724 302.994 54.6111 302.849L55.1245 300.981C55.1632 300.836 55.3134 300.754 55.4587 300.792L79.9505 307.532C80.6091 307.716 80.9966 308.398 80.8174 309.056C80.6334 309.714 79.9505 310.102 79.2918 309.923L54.8 303.182Z" fill="#231F20"/>
<path d="M78.0977 305.2C76.514 303.942 69.5834 298.272 69.5156 298.214L69.6319 298.068C69.6997 298.126 76.6302 303.792 78.2139 305.05C79.8267 306.333 80.0398 307.465 80.0446 307.513L79.8606 307.547C79.8606 307.537 79.6475 306.429 78.0977 305.2Z" fill="black"/>
<path d="M54.6172 302.486L54.9465 301.296C55.0531 300.918 55.4454 300.691 55.8231 300.797L79.9808 307.445C80.6879 307.639 81.1092 308.374 80.9107 309.081C80.8041 309.458 80.5426 309.768 80.189 309.937L80.1115 309.768C80.4166 309.628 80.6443 309.357 80.7363 309.032C80.9058 308.423 80.5426 307.789 79.9323 307.624L55.7747 300.976C55.4938 300.899 55.2032 301.063 55.1257 301.344L54.7964 302.534L54.6172 302.486Z" fill="black"/>
<path d="M158.816 183.192C158.675 182.723 158.646 182.128 158.845 181.91L162.821 178.397C163.126 178.058 163.644 178.029 163.983 178.334C164.322 178.639 164.351 179.157 164.046 179.495L162.816 181.532C163.838 181.479 170.294 180.623 170.294 180.623C170.759 180.536 171.205 180.855 171.263 181.334C171.316 181.769 171.001 182.166 170.57 182.249L166.376 183.032C166.313 183.042 166.264 183.086 166.235 183.139C166.221 183.168 166.206 183.202 166.211 183.24L166.221 183.453C166.226 183.507 166.25 183.555 166.289 183.589C166.352 184.581 166.405 185.839 166.516 186.893C166.594 187.639 166.909 188.248 166.366 188.732C166.051 189.013 164.216 189.313 163.557 189.371L158.825 190.106C158.738 188.8 158.714 188.05 158.816 183.192Z" fill="#FE9F73"/>
<path d="M167.435 184.126C167.406 184.682 167.004 185.089 166.878 185.084L162.65 184.861C162.175 184.837 161.778 184.455 161.773 183.981C161.769 183.458 162.2 183.052 162.713 183.076L167.048 183.303C167.053 183.303 167.469 183.57 167.435 184.126Z" fill="#FE9F73"/>
<path d="M167.326 185.882C167.307 186.439 166.914 186.855 166.788 186.85L162.556 186.71C162.081 186.695 161.679 186.323 161.664 185.848C161.65 185.326 162.076 184.91 162.589 184.929L166.929 185.074C166.924 185.069 167.345 185.326 167.326 185.882Z" fill="#FE9F73"/>
<path d="M167.072 187.508C167.057 188.026 166.699 188.418 166.583 188.418L162.64 188.33C162.2 188.321 161.817 187.977 161.798 187.537C161.778 187.053 162.17 186.656 162.645 186.671L166.689 186.758C166.689 186.753 167.086 186.99 167.072 187.508Z" fill="#FE9F73"/>
<path d="M166.9 185.234C166.978 185.219 167.036 185.157 167.041 185.079C167.045 184.987 166.973 184.91 166.881 184.905L162.653 184.697C162.256 184.678 161.941 184.363 161.936 183.981C161.936 183.778 162.013 183.589 162.159 183.449C162.304 183.308 162.498 183.236 162.701 183.245L166.566 183.449C166.658 183.453 166.735 183.381 166.74 183.289C166.745 183.197 166.673 183.12 166.58 183.115L162.716 182.911C162.425 182.897 162.134 183.003 161.926 183.207C161.713 183.41 161.597 183.69 161.602 183.986C161.607 184.542 162.062 185.002 162.638 185.031L166.866 185.239C166.881 185.234 166.89 185.234 166.9 185.234Z" fill="#F07162"/>
<path d="M166.68 186.918C166.757 186.903 166.82 186.835 166.82 186.753C166.82 186.661 166.748 186.584 166.656 186.584L162.529 186.502C162.127 186.487 161.841 186.216 161.827 185.839C161.822 185.636 161.895 185.447 162.04 185.302C162.185 185.157 162.374 185.084 162.578 185.089L166.917 185.234C167.009 185.239 167.087 185.166 167.091 185.069C167.096 184.978 167.024 184.9 166.927 184.895L162.587 184.75C162.297 184.74 162.011 184.852 161.803 185.06C161.594 185.268 161.483 185.548 161.493 185.844C161.512 186.395 161.943 186.811 162.52 186.831L166.646 186.913C166.66 186.923 166.67 186.923 166.68 186.918Z" fill="#F07162"/>
<path d="M166.609 188.582C166.687 188.568 166.75 188.5 166.75 188.423C166.75 188.331 166.677 188.253 166.585 188.253L162.643 188.166C162.279 188.156 161.979 187.881 161.965 187.532C161.955 187.348 162.023 187.169 162.154 187.039C162.284 186.908 162.459 186.836 162.643 186.84L166.687 186.927C166.779 186.927 166.856 186.855 166.856 186.763C166.856 186.671 166.784 186.594 166.692 186.594L162.648 186.507C162.371 186.502 162.105 186.608 161.911 186.806C161.718 187.005 161.616 187.271 161.626 187.552C161.65 188.074 162.091 188.495 162.633 188.505L166.575 188.592C166.59 188.582 166.6 188.582 166.609 188.582Z" fill="#F07162"/>
<path d="M160.317 180.608C160.317 180.608 158.341 181.905 157.745 181.963C157.149 182.026 154.641 181.934 154.641 181.934L154.883 190.725C154.883 190.725 156.728 190.638 159.832 189.956C162.932 189.274 160.317 180.608 160.317 180.608Z" fill="#FE9F73"/>
<path d="M90.258 231.829C90.258 231.829 89.5557 252.035 88.9939 253.718C88.4321 255.402 70.8757 295.954 70.8757 295.954C66.5701 297.246 61.9013 296.002 58.8114 292.741L58.7969 292.727L72.9825 253.718C72.9825 253.718 72.7403 220.981 80.3053 200.166L90.258 231.829Z" fill="#231F20"/>
<path d="M80.9842 198.148C80.9842 198.148 76.6302 209.654 77.8943 219.055C79.1583 228.456 100.086 253.152 100.086 253.152L94.3271 298.896L94.5595 299.002C98.1532 300.628 102.28 300.589 105.844 298.896C105.844 298.896 116.509 253.428 114.969 248.517C113.428 243.606 100.086 213.438 100.086 213.438L102.754 206.001C102.754 206.006 89.5517 195.342 80.9842 198.148Z" fill="#231F20"/>
<path d="M122.702 167.699L136.888 183.463L157.379 180.884L158.604 191.156C158.604 191.156 137.169 195.158 135.202 195.158C133.236 195.158 115.539 181.034 115.539 181.034L122.702 167.699Z" fill="#CC1FAB"/>
<path d="M114.648 145.931L115.942 145.66L116.436 142.35L118.218 138.765C118.223 138.765 114.803 139.491 114.648 145.931Z" fill="#231F20"/>
<path d="M111.745 158.816C111.686 160.006 112.679 162.687 115.653 163.5C116.588 163.756 117.459 163.819 118.215 163.79C119.755 163.727 121.024 162.546 121.252 161.017L121.857 156.9C124.56 157.239 125.257 154.214 125.257 154.214L127.679 145.375L117.779 139.723L114.646 149.821L114.016 152.477C114.016 152.477 111.808 157.63 111.745 158.816Z" fill="#FE9F73"/>
<path d="M119.488 146.579C119.575 146.54 121.619 145.65 122.505 147.261C122.539 147.324 122.616 147.348 122.679 147.31C122.742 147.276 122.766 147.198 122.728 147.136C121.73 145.316 119.405 146.332 119.381 146.342C119.318 146.371 119.289 146.449 119.313 146.511C119.328 146.545 119.352 146.565 119.381 146.579C119.415 146.594 119.454 146.594 119.488 146.579Z" fill="#FE9F73"/>
<path d="M124.772 148.166C124.786 148.161 126.157 147.697 126.525 148.413C126.559 148.476 126.636 148.5 126.699 148.466C126.762 148.432 126.786 148.355 126.752 148.292C126.288 147.382 124.757 147.9 124.689 147.924C124.621 147.949 124.588 148.021 124.607 148.089C124.621 148.128 124.646 148.152 124.68 148.166C124.714 148.176 124.743 148.176 124.772 148.166Z" fill="#FE9F73"/>
<path d="M121.651 149.023C121.709 148.814 121.588 148.602 121.38 148.548C121.176 148.49 120.963 148.616 120.905 148.819C120.847 149.027 120.968 149.24 121.176 149.294C121.385 149.347 121.598 149.226 121.651 149.023Z" fill="#FE9F73"/>
<path d="M125.706 149.729C125.764 149.521 125.643 149.308 125.434 149.255C125.231 149.197 125.018 149.323 124.96 149.526C124.902 149.734 125.023 149.947 125.231 150C125.434 150.053 125.648 149.932 125.706 149.729Z" fill="#FE9F73"/>
<path d="M117.282 147.963C117.621 146.724 116.899 145.447 115.669 145.113C114.439 144.774 113.165 145.505 112.826 146.744C112.487 147.982 113.208 149.26 114.439 149.594C115.669 149.932 116.943 149.202 117.282 147.963Z" fill="#FE9F73"/>
<path d="M114.463 146.816C114.07 146.932 113.823 147.295 113.828 147.745C113.833 148.123 114.046 148.558 114.511 148.684C114.516 148.684 114.521 148.684 114.526 148.689C114.56 148.698 114.593 148.679 114.603 148.64C114.613 148.607 114.593 148.573 114.56 148.563C114.555 148.563 114.55 148.563 114.545 148.558C114.119 148.442 113.964 148.045 113.959 147.74C113.954 147.445 114.095 147.058 114.501 146.937C115.233 146.72 115.625 147.382 115.64 147.411L115.756 147.61L115.761 147.378C115.77 146.966 115.654 146.637 115.417 146.405C115.005 146.003 114.375 146.032 114.351 146.032C114.317 146.032 114.288 146.066 114.288 146.1C114.288 146.134 114.322 146.163 114.356 146.163C114.361 146.163 114.957 146.134 115.33 146.497C115.504 146.666 115.601 146.889 115.63 147.169C115.431 146.961 115.039 146.642 114.463 146.816Z" fill="#F07162"/>
<path d="M121.229 158.264C125.239 159.135 126.072 152.927 126.072 152.927C125.351 152.11 118.294 151.224 117.897 150.876C117.611 150.629 118.294 147.01 118.536 145.665C118.648 145.045 118.561 144.407 118.285 143.845L117.665 145.389L116.221 150.885C115.829 153.624 115.49 157.021 121.229 158.264Z" fill="#FE9F73"/>
<path d="M122.227 151.839C122.227 151.868 122.246 151.892 122.276 151.897C122.28 151.897 122.29 151.902 122.295 151.897L123.758 151.819L124.184 148.669C124.189 148.636 124.164 148.602 124.13 148.597C124.097 148.592 124.063 148.616 124.058 148.65L123.646 151.693L122.29 151.766C122.251 151.776 122.222 151.805 122.227 151.839Z" fill="#FE9F73"/>
<path d="M116.308 154.839C117.974 158.879 117.465 149.802 117.519 149.507C117.572 149.211 118.24 143.942 118.24 143.942L117.402 142.616L115.484 145.079C115.484 145.079 116.85 145.708 116.468 147.203C116.085 148.694 114.647 150.798 116.308 154.839Z" fill="#FE9F73"/>
<path d="M126.528 140.952C124.058 138.368 119.733 137.909 118.217 138.77C115.176 140.488 116.067 145.244 116.067 145.244C116.261 144.755 116.493 144.344 116.755 143.995C116.9 146.294 117.37 152.313 118.179 147.678C118.706 144.639 119.317 143.187 119.767 142.491C120.76 142.462 121.893 142.694 123.148 143.125C124.412 143.56 125.308 144.194 125.932 144.813L126.979 146.187C127.197 146.584 127.274 146.845 127.274 146.845C127.284 146.763 127.289 146.681 127.293 146.603L127.327 146.647C127.468 146.574 129.439 143.516 126.528 140.952Z" fill="#231F20"/>
<path d="M126.997 147.857C126.997 147.857 127.583 146.066 127.603 145.645C127.622 145.224 123.893 142.979 121.597 142.674C119.302 142.374 122.924 145.979 122.973 145.994C123.026 146.013 126.997 147.857 126.997 147.857Z" fill="#FE9F73"/>
<path d="M118.547 140.202L119.767 143.662L120.14 142.776L118.547 140.202Z" fill="#FE9F73"/>
<path d="M131.345 227.382C131.626 226.032 122.865 224.397 121.232 223.802C120.719 223.613 117.493 222.461 115.58 222.442C115.556 222.413 113.779 222.824 113.459 223.332C113.459 223.332 111.914 228.171 114.142 228.452C114.142 228.452 126.972 230.6 126.129 229.695C126.129 229.695 127.93 229.434 126.206 227.929C126.206 227.929 131.079 228.679 131.345 227.382Z" fill="#FE9F73"/>
<path d="M110.479 157.596C110.479 157.596 122.558 163.63 122.698 167.699C122.839 171.768 115.676 184.116 108.934 189.168C108.934 189.168 104.721 200.674 102.754 206.006C102.754 206.006 86.0406 203.059 80.9844 198.148C80.9844 198.148 100.648 160.824 110.479 157.596Z" fill="#E527BB"/>
<path d="M110.477 157.596L111.954 154.088C111.954 154.088 117.431 157.596 119.679 160.616C121.926 163.635 121.543 165.285 121.543 165.285L110.477 157.596Z" fill="#CC1FAB"/>
<path d="M122.696 167.699L121.204 224.649C121.204 224.649 115.024 225.911 113.058 224.649C113.058 224.649 107.667 185.099 107.246 181.803C106.825 178.504 117.901 168.831 122.696 167.699Z" fill="#E527BB"/>
<path d="M112.824 224.682L107.109 182.558L107.584 182.495L113.299 224.615L112.824 224.682Z" fill="#1D1D1B"/>
<path d="M102.757 206.006C102.757 206.006 88.4307 203.112 80.9868 198.148C80.9868 198.148 79.868 198.777 80.3039 200.161C80.7398 201.545 96.1217 207.844 102.229 207.472C102.229 207.477 103.004 206.799 102.757 206.006Z" fill="#072738"/>
<path d="M100.093 300.439C98.1748 300.439 96.2569 300.033 94.465 299.225L94.0727 299.045L99.8408 253.23C98.3056 251.41 78.8991 228.277 77.6641 219.089L78.1387 219.026C79.3785 228.253 100.068 252.755 100.277 253.002L100.345 253.084L100.33 253.191L94.5909 298.76L94.6635 298.794C98.1651 300.376 102.161 300.357 105.643 298.741C106.234 296.21 116.211 253.278 114.743 248.604L115.203 248.459C116.743 253.375 106.52 297.1 106.084 298.963L106.059 299.075L105.953 299.123C104.093 299.999 102.093 300.439 100.093 300.439Z" fill="#1D1D1B"/>
<path d="M316.535 305.979H330.226V259.186H333.268V305.979H346.606C348.466 305.979 349.977 307.484 349.977 309.347H333.268H330.226H313.164C313.164 307.484 314.67 305.979 316.535 305.979Z" fill="#CC1FAB"/>
<path d="M278.723 303.753C278.742 303.753 280.456 303.99 282.089 302.887L282.171 303.003C281.004 303.797 279.788 303.918 279.154 303.918C278.878 303.918 278.708 303.894 278.703 303.894L278.723 303.753Z" fill="black"/>
<path d="M310.967 294.565L320.687 295.9L320.537 306.11L310.773 305.974L310.967 294.565Z" fill="#FE9F73"/>
<path d="M300.981 309.25C300.38 309.25 299.906 308.713 300.027 308.098C300.114 307.643 300.55 307.329 301.02 307.329H302.385L308.735 303.603L312.207 307.329H320.765C320.978 307.329 321.153 307.498 321.153 307.711V308.989C321.153 309.134 321.036 309.25 320.886 309.25H300.981Z" fill="#231F20"/>
<path d="M303.536 305.631L310.805 302.457C314.767 303.618 317.053 302.945 317.053 302.945C319.247 301.968 320.69 303.879 320.69 303.879V307.339H301.008C301.541 306.289 303.536 305.631 303.536 305.631Z" fill="#A78BEF"/>
<path d="M320.755 303.879H320.609V307.324H320.755V303.879Z" fill="black"/>
<path d="M319.766 305.96L319.848 306.076L318.918 306.695L318.836 306.574L319.766 305.96Z" fill="black"/>
<path d="M319.097 305.785L319.179 305.902L318.249 306.521L318.172 306.4L319.097 305.785Z" fill="black"/>
<path d="M300.306 309.081C300.068 308.882 299.938 308.597 299.938 308.292C299.938 307.721 300.407 307.261 300.984 307.261H320.666C320.976 307.261 321.228 307.508 321.228 307.813V308.771H321.083V307.813C321.083 307.585 320.899 307.402 320.666 307.402H300.984C300.485 307.402 300.083 307.798 300.083 308.287C300.083 308.548 300.199 308.795 300.402 308.964L300.306 309.081Z" fill="black"/>
<path d="M301.045 307.368L300.914 307.305C300.929 307.271 301.331 306.468 302.817 305.843C304.28 305.229 310.707 302.423 310.775 302.394L310.833 302.524C310.77 302.553 304.338 305.36 302.876 305.974C301.442 306.574 301.05 307.358 301.045 307.368Z" fill="black"/>
<path d="M275.053 294.565L284.773 295.9L284.618 306.11L274.859 305.974L275.053 294.565Z" fill="#FE9F73"/>
<path d="M265.059 309.25C264.458 309.25 263.984 308.713 264.105 308.098C264.192 307.643 264.628 307.329 265.098 307.329H266.464L272.813 303.603L276.285 307.329H284.843C285.056 307.329 285.231 307.498 285.231 307.711V308.989C285.231 309.134 285.115 309.25 284.964 309.25H265.059Z" fill="#231F20"/>
<path d="M267.622 305.631L274.891 302.457C278.853 303.618 281.139 302.945 281.139 302.945C283.333 301.968 284.776 303.879 284.776 303.879V307.339H265.094C265.626 306.289 267.622 305.631 267.622 305.631Z" fill="#A78BEF"/>
<path d="M284.841 303.879H284.695V307.324H284.841V303.879Z" fill="black"/>
<path d="M283.852 305.96L283.929 306.076L283.004 306.695L282.922 306.574L283.852 305.96Z" fill="black"/>
<path d="M283.18 305.785L283.262 305.902L282.332 306.521L282.25 306.4L283.18 305.785Z" fill="black"/>
<path d="M264.384 309.081C264.146 308.882 264.016 308.597 264.016 308.292C264.016 307.721 264.485 307.261 265.062 307.261H284.739C285.049 307.261 285.301 307.508 285.301 307.813V308.771H285.156V307.813C285.156 307.585 284.972 307.402 284.739 307.402H265.062C264.563 307.402 264.161 307.798 264.161 308.287C264.161 308.548 264.277 308.795 264.481 308.964L264.384 309.081Z" fill="black"/>
<path d="M265.131 307.368L265 307.305C265.015 307.271 265.417 306.468 266.903 305.843C268.366 305.229 274.793 302.423 274.861 302.394L274.919 302.524C274.856 302.553 268.424 305.36 266.961 305.974C265.528 306.574 265.136 307.358 265.131 307.368Z" fill="black"/>
<path d="M357.071 259.457L369.837 208.207C370.506 206.219 369.024 204.162 366.922 204.162H346.198C346.198 204.162 332.08 260.691 332.666 260.458C333.247 260.221 357.071 259.457 357.071 259.457Z" fill="#E527BB"/>
<path d="M354.439 259.457L367.206 208.207C367.874 206.219 366.392 204.162 364.29 204.162H366.92C369.022 204.162 370.504 206.219 369.836 208.207L356.958 260.226C356.958 260.226 333.25 260.221 332.664 260.454C332.64 260.463 332.645 260.4 332.669 260.265C338.985 259.95 354.439 259.457 354.439 259.457Z" fill="#CC1FAB"/>
<path d="M298.289 262.007H355.337C356.295 262.007 357.07 261.232 357.07 260.274V258.755C357.07 257.797 356.295 257.023 355.337 257.023H298.289V262.007Z" fill="#CC1FAB"/>
<path d="M309.18 233.73C309.18 233.73 290.079 235.1 287.866 237.979C285.652 240.857 276.944 277.809 273.617 302.394C273.617 302.394 278.896 305.297 286.127 304.465C286.127 304.465 299.199 273.798 300.196 257.023H309.921L334.36 235.632C334.36 235.632 314.668 229.163 309.18 233.73Z" fill="#231F20"/>
<path d="M344 238.501C344 238.501 339.186 257.018 334.308 257.909C329.431 258.794 322.293 257.56 322.293 257.56L322.152 303.879C322.152 303.879 312.137 303.918 307.928 302.587C307.928 302.587 305.753 274.63 305.08 259.849C304.944 256.931 304.809 254.493 304.828 252.925C304.94 243.403 302.629 234.055 322.685 236.735C342.731 239.416 344 238.501 344 238.501Z" fill="#231F20"/>
<path d="M305.767 275.753C305.39 270.223 304.639 253.835 304.61 248.498C304.581 243.083 305.661 241.022 305.709 240.935L306.039 241.114C306.029 241.133 304.954 243.199 304.988 248.498C305.017 253.83 305.763 270.208 306.145 275.734L305.767 275.753Z" fill="#1D1D1B"/>
<path d="M305.035 257.207H300.139L300.09 257.173C300.061 257.154 297.204 255.059 295.383 252.823L295.673 252.586C297.335 254.623 299.882 256.549 300.265 256.834H305.04L305.035 257.207Z" fill="#1D1D1B"/>
<path d="M297.917 270.963L297.558 270.861C299.205 264.973 299.883 258.388 299.999 257.192C299.563 257.163 298.473 257.086 297.5 256.955L297.548 256.583C298.774 256.747 300.198 256.83 300.212 256.83L300.406 256.839L300.391 257.033C300.382 257.11 299.738 264.46 297.917 270.963Z" fill="#1D1D1B"/>
<path d="M322.428 215.107C322.462 214.812 318.011 206.809 317.299 206.707C316.588 206.606 310.141 208.362 310.141 208.362L309.391 221.653L317.832 223.313C317.832 223.308 322.394 215.397 322.428 215.107Z" fill="#F49069"/>
<path d="M336.961 228.894L336.734 229.06L340.012 233.529L340.239 233.363L336.961 228.894Z" fill="black"/>
<path d="M338.023 232.287L337.781 232.43L339.986 236.13L340.228 235.987L338.023 232.287Z" fill="black"/>
<path d="M309.031 233.885L345.239 238.67L345.694 207.094L348.934 214.284C356.092 214.1 361.647 209.238 361.647 209.238C359.405 202.478 349.728 187.818 347.583 186.55C345.432 185.282 336.138 183.473 336.138 183.473C329.678 182.495 318.8 184.058 313.778 187.029C311.162 188.577 309.031 233.885 309.031 233.885Z" fill="#A78BEF"/>
<path d="M316.932 196.063L316.047 223.928L316.424 223.94L317.309 196.075L316.932 196.063Z" fill="#21111D"/>
<path d="M359.945 205.527L359.674 205.265C359.63 205.314 355.083 209.891 347.406 211.086L347.464 211.459C355.272 210.244 359.902 205.575 359.945 205.527Z" fill="#21111D"/>
<path d="M315.107 222.413L312.971 225.732C312.971 225.732 312.671 226.226 313.131 226.773C313.17 226.826 313.213 226.874 313.267 226.918C313.267 226.918 313.267 226.918 313.272 226.918C313.276 226.923 313.286 226.927 313.291 226.932C313.296 226.937 313.296 226.937 313.301 226.942C313.315 226.952 313.33 226.966 313.344 226.976C313.732 227.227 314.255 227.116 314.507 226.729L314.284 227.073C314.032 227.46 314.143 227.982 314.531 228.234C314.918 228.485 315.441 228.374 315.693 227.987C315.441 228.374 315.553 228.897 315.94 229.148C316.328 229.4 316.851 229.289 317.102 228.902L317.325 228.558C317.073 228.945 317.185 229.468 317.572 229.719C317.96 229.971 318.483 229.86 318.735 229.472L319.267 228.65L322.609 227.639C325.452 228.51 356.763 229.951 360.952 223.318C363.219 219.728 360.754 213.626 359.95 210.491L356.797 212.238L353.533 213.597C353.533 213.597 348.83 214.449 348.82 214.376L349.353 215.847C343.1 216.617 323.403 217.425 320.168 217.787C318.183 218.02 316.284 220.512 315.107 222.413Z" fill="#FE9F73"/>
<path d="M347.331 210.641L346.992 210.805L348.833 214.546L348.954 214.541C355.318 214.391 361.715 209.504 361.778 209.455L361.895 209.363L357.86 200.427L357.516 200.582L361.43 209.243C360.538 209.901 354.795 213.97 349.065 214.158L347.331 210.641Z" fill="#21111D"/>
<path d="M351.606 218.939C351.64 218.949 351.678 218.939 351.712 218.915C351.766 218.871 351.775 218.794 351.737 218.741L349.441 215.789C349.397 215.736 349.32 215.726 349.267 215.765C349.213 215.809 349.204 215.886 349.242 215.939L351.538 218.891C351.552 218.915 351.577 218.934 351.606 218.939Z" fill="#F07162"/>
<path d="M314.274 227.169L317.276 223.052C317.315 222.994 317.305 222.916 317.247 222.877C317.189 222.839 317.112 222.848 317.073 222.907L314.07 227.024C314.031 227.082 314.041 227.16 314.099 227.198C314.114 227.208 314.128 227.218 314.148 227.218C314.191 227.232 314.24 227.213 314.274 227.169Z" fill="#F07162"/>
<path d="M315.589 228.369L318.452 224.126C318.49 224.068 318.476 223.99 318.418 223.952C318.36 223.913 318.282 223.928 318.243 223.986L315.381 228.229C315.342 228.287 315.357 228.365 315.415 228.403C315.429 228.413 315.444 228.418 315.458 228.423C315.507 228.437 315.56 228.418 315.589 228.369Z" fill="#F07162"/>
<path d="M317.052 229.192C317.101 229.201 317.154 229.182 317.183 229.138L319.566 225.543C319.605 225.485 319.59 225.408 319.532 225.369C319.474 225.331 319.396 225.345 319.358 225.403L316.975 228.998C316.936 229.056 316.951 229.134 317.009 229.172C317.023 229.182 317.038 229.187 317.052 229.192Z" fill="#F07162"/>
<path d="M341.633 197.238L341.289 197.388L346.994 210.805L347.585 211.086L341.633 197.238Z" fill="#21111D"/>
<path d="M312.703 200.867H282.719L293.175 227.474H323.159L312.703 200.867Z" fill="#E527BB"/>
<path d="M323.161 227.474L312.705 200.867H311.141L321.597 227.474H323.161Z" fill="#CC1FAB"/>
<g opacity="0.6">
<path d="M301.371 216.48C302.16 216.214 302.465 215.004 302.049 213.78C301.632 212.556 300.654 211.786 299.864 212.053C299.075 212.324 298.77 213.528 299.186 214.752C299.598 215.977 300.576 216.751 301.371 216.48Z" fill="white"/>
</g>
<path d="M334.145 226.4C334.145 225.805 333.665 225.326 333.069 225.326H321.867V227.474H333.069C333.66 227.474 334.145 226.99 334.145 226.4Z" fill="#CC1FAB"/>
<path d="M330.232 226.061H323.156V226.4H330.232V226.061Z" fill="#CC1FAB"/>
<path d="M345.166 238.67L319.584 230.827L309.031 233.885C310.436 238.67 345.166 239.566 345.166 239.566V238.67Z" fill="#A78BEF"/>
<path d="M322.076 238.022L322.604 237.872C310.501 236.89 309.184 233.759 309.179 233.73L309.13 228.848L308.82 228.853L308.874 233.764C308.908 233.929 309.75 237.021 322.076 238.022Z" fill="black"/>
<path d="M345.391 227.653H345.086L345.173 239.425H345.478L345.391 227.653Z" fill="black"/>
<path d="M326.182 164.394C329.597 163.185 333.442 164.873 333.442 164.873C333.442 164.873 334.813 166.988 334.948 167.23C335.084 167.472 333.418 166.664 333.418 166.664L322.898 171.299V169.189C322.894 167.036 324.206 165.096 326.182 164.394Z" fill="#FE9F73"/>
<path d="M322.892 168.957L333.924 165.536L334.273 176.375L334.181 179.171C334.181 179.171 334.951 184.866 334.694 186.057C334.438 187.247 332.772 189.632 329.691 189.632C328.723 189.632 327.865 189.463 327.149 189.226C325.681 188.747 324.771 187.237 324.955 185.66L325.458 181.421C322.766 181.024 322.892 177.846 322.892 177.846V168.957Z" fill="#FE9F73"/>
<path d="M330.418 172.925C330.467 172.978 330.467 173.06 330.414 173.113C330.389 173.138 330.355 173.152 330.326 173.152C330.293 173.152 330.259 173.138 330.234 173.113C330.167 173.046 328.617 171.405 327.183 172.596C327.13 172.644 327.048 172.634 327.004 172.576C326.96 172.518 326.97 172.436 327.023 172.393C328.636 171.043 330.404 172.905 330.418 172.925Z" fill="#FE9F73"/>
<path d="M325.121 172.122C325.174 172.17 325.179 172.252 325.136 172.31C325.111 172.339 325.073 172.354 325.039 172.354C325.01 172.354 324.981 172.344 324.956 172.32C324.947 172.31 323.847 171.343 323.242 171.88C323.189 171.928 323.106 171.923 323.063 171.865C323.014 171.812 323.024 171.725 323.077 171.676C323.847 170.994 325.073 172.078 325.121 172.122Z" fill="#FE9F73"/>
<path d="M328.117 173.288C328.33 173.288 328.5 173.467 328.5 173.684C328.5 173.902 328.325 174.081 328.117 174.081C327.904 174.081 327.734 173.902 327.734 173.684C327.734 173.467 327.904 173.288 328.117 173.288Z" fill="#FE9F73"/>
<path d="M324.023 172.891C324.236 172.891 324.406 173.07 324.406 173.288C324.406 173.505 324.232 173.684 324.023 173.684C323.81 173.684 323.641 173.505 323.641 173.288C323.636 173.07 323.81 172.891 324.023 172.891Z" fill="#FE9F73"/>
<path d="M333.436 164.733C333.436 164.733 336.696 164.574 337.524 167.515C338.352 170.457 336.943 172.015 336.914 172.891C336.885 173.767 337.461 179.684 333.436 179.239L332.352 169.47L333.751 165.58L333.436 164.733Z" fill="#231F20"/>
<path d="M333.224 171.164C334.498 171.164 335.534 172.233 335.534 173.549C335.534 174.865 334.503 175.934 333.224 175.934C331.946 175.934 330.914 174.865 330.914 173.549C330.914 172.228 331.946 171.164 333.224 171.164Z" fill="#FE9F73"/>
<path d="M333.123 172.514C333.626 172.228 334.222 172.427 334.251 172.436C334.285 172.446 334.304 172.485 334.29 172.518C334.28 172.552 334.241 172.572 334.207 172.562C334.203 172.562 333.636 172.373 333.181 172.63C332.972 172.751 332.813 172.944 332.716 173.215C332.953 173.056 333.418 172.843 333.927 173.172C334.27 173.394 334.416 173.82 334.29 174.26C334.183 174.633 333.864 175.005 333.384 175.005C333.379 175.005 333.374 175.005 333.37 175.005C333.336 175.005 333.307 174.976 333.307 174.938C333.307 174.899 333.336 174.875 333.37 174.875C333.374 174.875 333.379 174.875 333.384 174.875C333.825 174.875 334.082 174.526 334.164 174.226C334.246 173.936 334.212 173.515 333.854 173.288C333.205 172.872 332.658 173.423 332.633 173.447L332.469 173.617L332.527 173.385C332.633 172.973 332.832 172.678 333.123 172.514Z" fill="#F07162"/>
<path d="M331.709 178.726C331.709 178.726 331.53 184.044 325.094 184.552L325.467 181.426C325.462 181.426 329.637 182.292 331.709 178.726Z" fill="#F07162"/>
<path d="M325.455 172.596C325.489 172.601 325.513 172.634 325.508 172.668L325.101 175.794L326.39 176.234C326.424 176.244 326.443 176.283 326.428 176.317C326.419 176.346 326.395 176.36 326.365 176.36C326.361 176.36 326.351 176.36 326.346 176.355L324.961 175.881L325.382 172.649C325.387 172.62 325.421 172.591 325.455 172.596Z" fill="#FE9F73"/>
<path d="M334.276 179.912L332.75 180.042V175.552L333.83 175.431L334.276 179.912Z" fill="#FE9F73"/>
<path d="M332.832 164.646C335.219 163.911 335.529 168.454 335.529 168.454C335.529 168.454 331.112 172.717 332.352 169.61C333.587 166.504 332.832 164.646 332.832 164.646Z" fill="#21111D"/>
<path d="M323.637 164.206C323.637 164.206 323.206 160.838 326.17 161.835C329.134 162.832 334.621 162.701 336.166 165.536C337.711 168.372 332.35 169.61 332.35 169.61C332.35 169.61 322.543 169.01 321.937 166.639C321.332 164.269 323.637 164.206 323.637 164.206Z" fill="#231F20"/>
<path d="M334.341 169.228L332.554 171.299L332.132 173.147L331.706 172.596C331.706 172.596 330.868 169.944 331.445 168.672C332.021 167.399 334.341 169.228 334.341 169.228Z" fill="#21111D"/>
<path d="M326.11 178.474C325.127 178.566 324.672 177.483 324.672 177.483C324.715 177.473 327.355 177.236 327.355 177.236C327.355 177.236 327.093 178.383 326.11 178.474Z" fill="#FE9F73"/>
<path d="M359.094 301.803L371.148 305.911L372.495 303.25L376.926 293.723L364.353 289.751L359.094 301.803Z" fill="#FE9F73"/>
<path d="M371.426 306.739L360.858 303.24L358.122 297.158L348.74 299.229L347.055 298.673C346.474 298.479 345.81 298.697 345.51 299.229C345.108 299.95 345.471 300.812 346.212 301.058L370.786 309.187C370.966 309.245 371.164 309.148 371.222 308.969L371.75 307.368C371.833 307.111 371.692 306.826 371.426 306.739Z" fill="#231F20"/>
<path d="M371.326 306.72L372.765 302.384C372.765 302.384 371.777 299.404 368.663 299.728C368.663 299.728 363.602 301.276 361.151 296.563L350.859 297.57C350.859 297.57 348.128 297.58 347.023 298.673L371.326 306.72Z" fill="#A78BEF"/>
<path d="M372.672 302.337L371.242 306.65L371.422 306.71L372.851 302.397L372.672 302.337Z" fill="black"/>
<path d="M364.586 299.733C364.242 299.621 364.044 299.52 364.039 299.52L364.126 299.35C364.146 299.36 366.165 300.357 368.64 299.641L368.693 299.825C366.921 300.333 365.371 299.994 364.586 299.733Z" fill="black"/>
<path d="M370.787 304.613L369.383 305.005L369.434 305.186L370.838 304.794L370.787 304.613Z" fill="black"/>
<path d="M369.997 304.098L368.594 304.492L368.645 304.673L370.048 304.28L369.997 304.098Z" fill="black"/>
<path d="M345.442 300.575C345.234 300.231 345.185 299.82 345.311 299.438C345.548 298.726 346.318 298.339 347.03 298.576L371.328 306.618C371.711 306.744 371.919 307.16 371.793 307.537L371.396 308.737L371.217 308.679L371.614 307.479C371.706 307.199 371.556 306.889 371.27 306.797L346.972 298.755C346.357 298.552 345.694 298.886 345.49 299.501C345.384 299.83 345.422 300.183 345.602 300.478L345.442 300.575Z" fill="black"/>
<path d="M347.073 298.731L346.938 298.6C346.971 298.567 347.8 297.72 349.892 297.546C351.95 297.376 361.055 296.481 361.147 296.476L361.167 296.665C361.075 296.675 351.97 297.565 349.906 297.734C347.892 297.904 347.078 298.721 347.073 298.731Z" fill="black"/>
<path d="M414.752 208.972L414.016 221.929L422.249 223.55C422.249 223.55 426.7 215.838 426.729 215.552C426.763 215.267 422.423 207.462 421.731 207.361C421.038 207.259 414.752 208.972 414.752 208.972Z" fill="#F49069"/>
<path d="M391.365 305.563L403.87 304.382L404.006 301.402L404.151 290.897L391.234 292.417L391.365 305.563Z" fill="#FE9F73"/>
<path d="M427.931 231.688C427.931 231.688 397.342 235.521 393.065 240.998C390.958 243.698 386.508 283.253 388.285 298.32C388.285 298.32 401.274 298.571 405.357 297.855L405.866 257.729L429.355 250.631L441.414 232.119L427.931 231.688Z" fill="#231F20"/>
<path d="M393.155 298.649C399.074 298.649 405.287 298.005 405.37 297.996L405.491 297.981L405.932 257.966L405.66 257.962L405.22 297.734C404.048 297.85 394.594 298.76 388.298 298.184L388.273 298.455C389.77 298.591 391.451 298.649 393.155 298.649Z" fill="black"/>
<path d="M428.666 306.458H439.771V264H442.237V306.458H453.051C454.562 306.458 455.783 307.682 455.783 309.187H442.232H439.767H425.93C425.93 307.682 427.155 306.458 428.666 306.458Z" fill="#CC1FAB"/>
<path d="M473.12 204.361H452.144C449.48 204.361 447.175 206.199 446.579 208.788L434.094 263.086L463.342 260.037L473.12 204.361Z" fill="#E527BB"/>
<path d="M414.655 257.105C414.655 257.105 448.199 257.105 458.205 257.105C459.822 257.105 461.203 255.954 461.498 254.367L470.4 206.228C470.637 204.936 471.906 204.09 473.199 204.375C474.434 204.651 475.204 205.885 474.976 207.128L464.893 261.658C464.816 262.079 464.627 262.452 464.36 262.757C463.711 263.961 462.438 264.779 460.975 264.779H414.65C412.529 264.779 410.805 263.061 410.805 260.937C410.81 258.823 412.534 257.105 414.655 257.105Z" fill="#CC1FAB"/>
<path d="M458.207 257.429C459.912 257.429 461.375 256.215 461.685 254.536L470.587 206.398C470.693 205.822 471.022 205.323 471.512 204.999C472.001 204.675 472.587 204.569 473.163 204.694C473.265 204.719 473.367 204.651 473.386 204.554C473.41 204.453 473.342 204.351 473.245 204.332C472.572 204.182 471.88 204.307 471.308 204.69C470.732 205.072 470.349 205.652 470.223 206.33L461.322 254.468C461.046 255.968 459.738 257.052 458.212 257.052C458.111 257.052 458.023 257.134 458.023 257.241C458.023 257.347 458.106 257.429 458.207 257.429Z" fill="#21111D"/>
<path d="M441.533 265.002L459.704 264.968C464.601 265.408 465.182 261.223 465.211 260.995L466.291 255.15C466.31 255.049 466.242 254.952 466.141 254.933C466.039 254.913 465.942 254.981 465.923 255.083L464.838 260.947C464.819 261.112 464.368 265.016 459.728 264.595H459.709L441.533 264.629C441.431 264.629 441.344 264.711 441.344 264.818C441.344 264.919 441.426 265.002 441.533 265.002Z" fill="#21111D"/>
<path d="M448.509 236.261C448.509 236.261 453.139 252.668 442.509 256.302C431.878 259.936 395.564 257.294 395.564 257.294L379.378 298.455C379.378 298.455 368.263 296.955 363.086 290.08C363.086 290.08 377.606 242.246 383.902 239.314C390.198 236.377 417.823 233.426 417.823 233.426L448.509 236.261Z" fill="#231F20"/>
<path d="M379.577 298.649L379.616 298.547L390.033 272.109L389.781 272.008L379.403 298.344C378.235 298.141 367.881 296.2 363.304 290.041L363.086 290.205C367.978 296.796 379.354 298.615 379.465 298.634L379.577 298.649Z" fill="black"/>
<path d="M440.906 228.985L440.688 229.146L443.882 233.501L444.101 233.341L440.906 228.985Z" fill="black"/>
<path d="M441.936 232.346L441.703 232.485L443.854 236.094L444.087 235.955L441.936 232.346Z" fill="black"/>
<path d="M419.075 258.296C427.653 258.296 437.678 257.976 442.603 256.651C446.613 255.576 449.001 251.972 449.505 246.238C449.887 241.941 449.074 237.906 449.064 237.867L448.711 237.94C448.72 237.979 449.519 241.97 449.142 246.214C448.638 251.86 446.405 255.252 442.507 256.302C433.038 258.847 404.488 257.662 404.202 257.647L404.188 258.01C404.328 258.015 411.07 258.296 419.075 258.296Z" fill="black"/>
<path d="M420.506 226.347L421.121 211.991C419.281 212.373 416.269 211.038 414.041 209.833C414.573 199.614 415.75 189.681 418.303 188.176C423.199 185.282 433.806 183.758 440.107 184.711C440.107 184.711 449.173 186.478 451.27 187.711C453.367 188.945 462.797 203.243 464.986 209.833C464.986 209.833 459.566 214.575 452.587 214.754L449.43 207.743L449.241 239.474L413.682 233.866C413.682 233.866 413.624 230.944 413.634 226.574C416.414 226.86 420.506 226.347 420.506 226.347Z" fill="#A78BEF"/>
<path d="M428.774 169.601V178.305C428.774 178.305 428.653 181.247 431.23 181.615L430.75 185.539C430.571 187 431.443 188.394 432.847 188.839C433.535 189.057 434.354 189.216 435.279 189.216C438.223 189.216 439.817 187.01 440.064 185.907C440.311 184.803 439.575 179.534 439.575 179.534L439.667 176.946L439.332 166.911L428.774 169.601Z" fill="#FE9F73"/>
<path d="M435.887 173.95C435.916 173.95 435.95 173.941 435.974 173.917C436.023 173.868 436.023 173.791 435.979 173.742C435.965 173.723 434.274 172.001 432.734 173.239C432.681 173.283 432.671 173.36 432.715 173.413C432.759 173.467 432.836 173.476 432.889 173.433C434.255 172.334 435.742 173.849 435.805 173.912C435.819 173.941 435.853 173.95 435.887 173.95Z" fill="#FE9F73"/>
<path d="M430.826 173.215C430.86 173.215 430.894 173.201 430.918 173.172C430.962 173.118 430.957 173.041 430.904 172.997C430.855 172.954 429.683 171.952 428.942 172.586C428.889 172.63 428.884 172.707 428.928 172.76C428.971 172.813 429.049 172.818 429.102 172.775C429.683 172.276 430.73 173.172 430.744 173.181C430.773 173.205 430.797 173.215 430.826 173.215Z" fill="#FE9F73"/>
<path d="M433.398 174.449C433.398 174.652 433.563 174.817 433.767 174.817C433.97 174.817 434.135 174.652 434.135 174.449C434.135 174.246 433.97 174.081 433.767 174.081C433.563 174.081 433.398 174.246 433.398 174.449Z" fill="#FE9F73"/>
<path d="M429.492 174.081C429.492 174.284 429.657 174.449 429.86 174.449C430.064 174.449 430.228 174.284 430.228 174.081C430.228 173.878 430.064 173.713 429.86 173.713C429.657 173.713 429.492 173.878 429.492 174.081Z" fill="#FE9F73"/>
<path d="M438.983 167.39L436.929 170.297C436.929 170.297 430.706 172.712 427.514 169.852C424.323 166.993 425.306 165.619 426.241 164.186C426.701 163.48 428.904 162.043 431.602 163.243C433.074 163.896 434.164 161.946 435.883 162.928C437.603 163.911 439.627 165.609 439.399 166.281C439.172 166.954 438.983 167.39 438.983 167.39Z" fill="#21111D"/>
<path d="M438.862 166.161C438.862 166.161 441.695 166.025 442.484 168.749C443.274 171.473 442.213 172.901 442.184 173.713C442.155 174.526 442.707 180.004 438.862 179.592L437.82 170.549L439.157 166.949L438.862 166.161Z" fill="#21111D"/>
<path d="M421.375 196.983L420.516 224.152L420.884 224.163L421.743 196.994L421.375 196.983Z" fill="#21111D"/>
<path d="M436.445 174.318C436.445 175.538 437.433 176.525 438.654 176.525C439.874 176.525 440.862 175.538 440.862 174.318C440.862 173.099 439.874 172.112 438.654 172.112C437.433 172.112 436.445 173.104 436.445 174.318Z" fill="#FE9F73"/>
<path d="M438.812 175.673C439.272 175.673 439.577 175.33 439.679 174.986C439.8 174.58 439.66 174.183 439.33 173.98C438.841 173.675 438.396 173.873 438.173 174.018C438.27 173.767 438.42 173.588 438.618 173.476C439.054 173.239 439.592 173.414 439.597 173.414C439.631 173.423 439.665 173.409 439.674 173.375C439.684 173.341 439.669 173.307 439.636 173.297C439.611 173.288 439.04 173.104 438.56 173.37C438.279 173.525 438.091 173.791 437.999 174.173L437.945 174.386L438.1 174.231C438.125 174.207 438.648 173.699 439.267 174.086C439.611 174.299 439.64 174.686 439.563 174.957C439.481 175.238 439.238 175.557 438.817 175.557C438.812 175.557 438.807 175.557 438.803 175.557C438.769 175.557 438.74 175.586 438.74 175.62C438.74 175.654 438.764 175.683 438.798 175.683C438.803 175.673 438.807 175.673 438.812 175.673Z" fill="#F07162"/>
<path d="M437.205 179.113C437.205 179.113 437.031 184.039 430.875 184.508L431.229 181.615C431.229 181.615 435.224 182.418 437.205 179.113Z" fill="#F07162"/>
<path d="M451.155 211.991C458.768 210.806 463.282 206.253 463.326 206.209L463.064 205.953C463.021 205.996 458.584 210.462 451.102 211.628L451.155 211.991Z" fill="#21111D"/>
<path d="M417.512 225.911L419.594 222.674C420.742 220.821 422.597 218.387 424.53 218.175C427.683 217.821 446.89 217.033 452.988 216.283L452.465 214.846C452.475 214.918 457.061 214.086 457.061 214.086L460.248 212.76L463.318 211.057C464.103 214.115 466.51 220.066 464.297 223.565C460.214 230.029 428.985 227.3 426.215 226.453L423.648 228.761L423.125 229.56C422.878 229.937 422.37 230.043 421.992 229.802C421.614 229.56 421.508 229.047 421.75 228.669L421.532 229.003C421.285 229.381 420.776 229.487 420.398 229.245C420.021 228.998 419.914 228.49 420.156 228.113C419.909 228.49 419.401 228.597 419.023 228.355C418.645 228.108 418.539 227.6 418.781 227.223L418.999 226.889C418.752 227.266 418.243 227.373 417.865 227.131C417.851 227.121 417.836 227.111 417.822 227.097C417.817 227.097 417.817 227.092 417.812 227.087C417.807 227.082 417.798 227.077 417.793 227.073C417.793 227.073 417.793 227.073 417.788 227.073C417.735 227.029 417.691 226.981 417.652 226.932C417.216 226.39 417.512 225.911 417.512 225.911Z" fill="#FE9F73"/>
<path d="M452.479 215.005L452.596 215C458.8 214.855 465.038 210.089 465.101 210.041L465.217 209.954L461.279 201.24L460.945 201.39L464.762 209.833C463.89 210.476 458.291 214.444 452.707 214.628L451.017 211.193L450.688 211.357L452.479 215.005Z" fill="#21111D"/>
<path d="M455.181 219.283C455.215 219.292 455.254 219.283 455.283 219.258C455.336 219.215 455.346 219.137 455.302 219.084L453.065 216.21C453.021 216.157 452.944 216.147 452.891 216.191C452.837 216.234 452.828 216.312 452.871 216.365L455.109 219.239C455.133 219.263 455.157 219.278 455.181 219.283Z" fill="#F07162"/>
<path d="M418.651 227.358C418.699 227.368 418.747 227.353 418.777 227.31L421.702 223.294C421.741 223.24 421.731 223.163 421.673 223.124C421.619 223.086 421.542 223.095 421.503 223.153L418.578 227.169C418.539 227.223 418.549 227.3 418.607 227.339C418.622 227.348 418.636 227.358 418.651 227.358Z" fill="#F07162"/>
<path d="M419.946 228.534C419.994 228.544 420.048 228.524 420.077 228.481L422.871 224.344C422.91 224.286 422.895 224.213 422.837 224.174C422.779 224.136 422.706 224.15 422.668 224.208L419.873 228.345C419.834 228.403 419.849 228.476 419.907 228.515C419.917 228.524 419.931 228.529 419.946 228.534Z" fill="#F07162"/>
<path d="M421.493 229.284C421.541 229.294 421.594 229.274 421.623 229.231L423.948 225.723C423.987 225.665 423.972 225.592 423.914 225.553C423.856 225.515 423.784 225.529 423.745 225.587L421.42 229.095C421.381 229.153 421.396 229.226 421.454 229.264C421.464 229.274 421.478 229.279 421.493 229.284Z" fill="#F07162"/>
<path d="M450.69 211.357L445.125 198.269L445.464 198.124L451.261 211.628L450.69 211.357Z" fill="#21111D"/>
<path d="M432.104 176.931C432.128 176.931 432.153 176.917 432.162 176.888C432.172 176.854 432.157 176.82 432.124 176.81L430.893 176.404L431.281 173.51C431.286 173.476 431.262 173.447 431.228 173.443C431.194 173.438 431.165 173.462 431.16 173.496L430.758 176.486L432.085 176.926C432.095 176.926 432.099 176.931 432.104 176.931Z" fill="#FE9F73"/>
<path d="M433.056 178.121C433.017 178.112 430.625 178.059 430.625 178.059C430.625 178.059 430.925 179.046 431.816 179.07C432.703 179.094 433.056 178.121 433.056 178.121Z" fill="#FE9F73"/>
<path d="M387.797 201.467H417.035L427.23 227.411H397.992L387.797 201.467Z" fill="#E527BB"/>
<path d="M427.228 227.411H425.703L415.508 201.467H417.033L427.228 227.411Z" fill="#CC1FAB"/>
<g opacity="0.6">
<path d="M406.906 213.612C407.313 214.802 407.012 215.983 406.242 216.244C405.472 216.505 404.518 215.751 404.111 214.56C403.705 213.37 404.005 212.189 404.775 211.928C405.55 211.667 406.504 212.422 406.906 213.612Z" fill="white"/>
</g>
<path d="M436.898 225.316H425.977V227.411H436.898C437.479 227.411 437.944 226.942 437.944 226.366C437.944 225.786 437.474 225.316 436.898 225.316Z" fill="#CC1FAB"/>
<path d="M434.128 226.032H427.227V226.362H434.128V226.032Z" fill="#CC1FAB"/>
<path d="M448.46 239.261C448.46 239.261 415.038 238.525 413.672 233.861L423.964 230.881L448.46 239.261Z" fill="#A78BEF"/>
<path d="M426.398 237.892L426.916 237.746C415.114 236.788 413.83 233.735 413.825 233.706L413.777 228.95L413.477 228.955L413.525 233.745C413.559 233.9 414.377 236.919 426.398 237.892Z" fill="black"/>
<path d="M426.733 229.071H417.773V230.881H426.733V229.071Z" fill="#FF424D"/>
<path d="M448.984 239.474H449.285L449.357 227.784H449.057L448.984 239.474Z" fill="black"/>
<path d="M404.363 306.656H393.228L388.715 301.745L380.457 306.656H378.68C378.064 306.656 377.507 307.073 377.391 307.673C377.236 308.481 377.851 309.187 378.636 309.187H404.523C404.711 309.187 404.866 309.032 404.866 308.843V307.16C404.866 306.884 404.639 306.656 404.363 306.656Z" fill="#231F20"/>
<path d="M404.265 306.671V302.103C404.265 302.103 402.391 299.583 399.533 300.87C399.533 300.87 395.213 303.928 391.411 300.226L381.957 304.416C381.957 304.416 379.366 305.282 378.664 306.671H404.265Z" fill="#A78BEF"/>
<path d="M404.353 302.108H404.164V306.652H404.353V302.108Z" fill="black"/>
<path d="M395.664 302.157C395.301 302.157 395.083 302.128 395.078 302.123L395.107 301.934C395.131 301.939 397.359 302.249 399.481 300.792L399.587 300.947C398.066 301.997 396.492 302.157 395.664 302.157Z" fill="black"/>
<path d="M403.061 304.838L401.852 305.651L401.957 305.807L403.167 304.994L403.061 304.838Z" fill="black"/>
<path d="M402.232 304.613L401.023 305.428L401.129 305.584L402.338 304.77L402.232 304.613Z" fill="black"/>
<path d="M377.753 308.969C377.448 308.708 377.273 308.331 377.273 307.934C377.273 307.184 377.884 306.574 378.634 306.574H404.23C404.632 306.574 404.962 306.903 404.962 307.305V308.568H404.773V307.305C404.773 307.005 404.531 306.763 404.23 306.763H378.634C377.99 306.763 377.462 307.29 377.462 307.934C377.462 308.277 377.612 308.602 377.874 308.829L377.753 308.969Z" fill="black"/>
<path d="M378.724 306.71L378.555 306.627C378.574 306.584 379.092 305.519 381.03 304.697C382.933 303.889 391.292 300.183 391.374 300.144L391.452 300.318C391.37 300.357 383.006 304.063 381.102 304.871C379.238 305.665 378.729 306.695 378.724 306.71Z" fill="black"/>
<path d="M461.039 309.192H463.446L459.106 227.784H454.297L461.039 309.192Z" fill="#21111D"/>
<path d="M491 307.966H32V309.966H491V307.966Z" fill="#49263E"/>
<path d="M218.074 208.991L218.844 222.573L210.214 224.271C210.214 224.271 205.55 216.186 205.516 215.886C205.482 215.586 210.03 207.404 210.756 207.303C211.487 207.201 218.074 208.991 218.074 208.991Z" fill="#F49069"/>
<path d="M203.503 306.666H191.864V266.676H189.278V306.666H177.94C176.357 306.666 175.078 307.949 175.078 309.526H189.278H191.864H206.37C206.365 307.944 205.081 306.666 203.503 306.666Z" fill="#CC1FAB"/>
<path d="M156.906 204.162H178.889C181.679 204.162 184.101 206.088 184.725 208.802L197.812 265.713L167.159 262.52L156.906 204.162Z" fill="#E527BB"/>
<path d="M218.179 259.447C218.179 259.447 183.023 259.447 172.533 259.447C170.838 259.447 169.389 258.242 169.079 256.578L159.752 206.122C159.5 204.767 158.173 203.882 156.817 204.182C155.523 204.467 154.715 205.764 154.957 207.066L165.525 264.223C165.607 264.668 165.805 265.055 166.082 265.374C166.76 266.637 168.096 267.494 169.632 267.494H218.179C220.402 267.494 222.209 265.694 222.209 263.468C222.209 261.247 220.407 259.447 218.179 259.447Z" fill="#CC1FAB"/>
<path d="M172.535 259.786C170.748 259.786 169.212 258.513 168.888 256.757L159.56 206.301C159.449 205.696 159.105 205.174 158.591 204.835C158.078 204.496 157.463 204.38 156.862 204.516C156.756 204.54 156.649 204.472 156.63 204.366C156.606 204.259 156.674 204.153 156.78 204.133C157.487 203.979 158.209 204.109 158.814 204.511C159.42 204.908 159.822 205.522 159.952 206.233L169.28 256.689C169.571 258.262 170.941 259.399 172.54 259.399C172.646 259.399 172.738 259.486 172.738 259.597C172.738 259.709 172.641 259.786 172.535 259.786Z" fill="#21111D"/>
<path d="M190.011 267.726L170.967 267.692C165.838 268.152 165.228 263.768 165.199 263.526L164.066 257.401C164.046 257.294 164.114 257.193 164.226 257.173C164.332 257.154 164.434 257.222 164.453 257.328L165.587 263.473C165.606 263.647 166.076 267.736 170.938 267.295H170.958L190.011 267.329C190.117 267.329 190.209 267.416 190.204 267.528C190.204 267.639 190.117 267.726 190.011 267.726Z" fill="#21111D"/>
<path d="M190.663 229.988L187.312 234.554L187.543 234.722L190.893 230.157L190.663 229.988Z" fill="black"/>
<path d="M190.728 167.598C188.341 170.946 188.568 183.565 188.568 183.565L189.799 183.584C189.866 183.173 190.167 181.992 190.167 181.992L190.51 183.594L195.291 183.676L198.259 164.588C198.255 164.588 193.116 164.249 190.728 167.598Z" fill="#231F20"/>
<path d="M192.985 169.809C192.985 169.809 189.082 178.963 194.032 180.99L193.228 187.672L200.55 186.956L203.253 165.469C203.253 165.469 201.107 165.464 201.083 165.638C201.069 165.812 192.985 169.809 192.985 169.809Z" fill="#FE9F73"/>
<path d="M194.524 176.462C194.553 176.466 194.582 176.447 194.592 176.418C194.601 176.384 194.587 176.345 194.553 176.336C194.146 176.195 193.943 175.644 193.889 175.465C194.524 175.223 194.94 174.855 195.124 174.371C195.425 173.583 195.003 172.784 194.984 172.75C194.965 172.717 194.926 172.707 194.897 172.721C194.863 172.741 194.853 172.779 194.868 172.808C194.873 172.818 195.279 173.592 195.003 174.323C194.829 174.783 194.417 175.131 193.788 175.363L193.734 175.383L193.749 175.441C193.759 175.474 193.957 176.268 194.514 176.462C194.514 176.462 194.519 176.462 194.524 176.462Z" fill="#FE9F73"/>
<path d="M193.773 183.032L194.03 180.995C194.03 180.995 197.503 181.228 199.789 180.158C199.789 180.153 196.573 182.553 193.773 183.032Z" fill="#F07162"/>
<path d="M196.526 173.839C196.502 174.038 196.642 174.222 196.846 174.246C197.044 174.27 197.228 174.13 197.253 173.926C197.277 173.728 197.136 173.544 196.933 173.52C196.734 173.496 196.55 173.641 196.526 173.839Z" fill="#FE9F73"/>
<path d="M192.839 173.496C192.814 173.694 192.955 173.878 193.158 173.902C193.357 173.926 193.541 173.786 193.565 173.583C193.589 173.379 193.449 173.2 193.245 173.176C193.047 173.152 192.863 173.297 192.839 173.496Z" fill="#FE9F73"/>
<path d="M197.379 176.646C197.34 176.65 194.875 177.366 194.875 177.366C194.875 177.366 195.5 178.281 196.415 178.015C197.335 177.754 197.379 176.646 197.379 176.646Z" fill="#FE9F73"/>
<path d="M195.845 166.596C195.845 166.596 196.242 171.139 200.194 173.394C204.146 175.649 201.032 180.928 201.032 180.928L205.759 175.489C205.759 175.489 206.636 167.486 203.255 165.469C200.805 164.002 195.744 164.027 195.845 166.596Z" fill="#231F20"/>
<path d="M198.179 172.721C198.14 172.736 198.096 172.726 198.058 172.702C198.048 172.697 197.181 172.034 196.212 172.238C196.14 172.252 196.072 172.208 196.057 172.136C196.043 172.063 196.087 171.996 196.159 171.981C197.249 171.749 198.179 172.465 198.218 172.494C198.276 172.538 198.285 172.62 198.242 172.678C198.222 172.702 198.203 172.717 198.179 172.721Z" fill="#FE9F73"/>
<path d="M192.55 172.523C192.506 172.523 192.468 172.504 192.443 172.465C192.405 172.407 192.419 172.325 192.477 172.281C192.516 172.252 193.49 171.589 194.565 171.884C194.633 171.904 194.676 171.976 194.657 172.044C194.637 172.112 194.565 172.155 194.497 172.136C193.538 171.875 192.637 172.489 192.628 172.494C192.603 172.518 192.574 172.523 192.55 172.523Z" fill="#FE9F73"/>
<path d="M195.93 168.338L197.901 166.896L196.351 168.667L195.93 168.338Z" fill="#FE9F73"/>
<path d="M200.002 172.388C200.084 172.417 200.176 172.373 200.215 172.291C200.249 172.204 200.21 172.102 200.123 172.068C197.832 171.11 197.333 168.759 197.329 168.735C197.309 168.643 197.217 168.585 197.13 168.599C197.038 168.618 196.98 168.706 196.994 168.798C197.014 168.899 197.532 171.352 199.987 172.378C199.992 172.383 199.997 172.388 200.002 172.388Z" fill="#21111D"/>
<path d="M207.454 171.028C207.018 166.393 202.127 164.956 202.127 164.956L201.241 173.805C201.241 173.805 201.71 177.763 200.572 183.434L200.32 184.498C200.32 184.498 202.136 184.61 204.243 184.45C204.495 183.623 204.907 182.282 204.907 182.282L205.207 184.353C205.677 184.3 206.147 184.227 206.607 184.14C206.612 184.145 207.808 174.792 207.454 171.028Z" fill="#231F20"/>
<path d="M200.407 175.3C200.266 176.423 201.061 177.449 202.189 177.589C203.313 177.729 204.339 176.936 204.48 175.808C204.62 174.686 203.826 173.66 202.698 173.52C201.574 173.379 200.547 174.173 200.407 175.3Z" fill="#FE9F73"/>
<path d="M202.439 176.829C202.865 176.883 203.194 176.597 203.325 176.287C203.485 175.92 203.403 175.538 203.117 175.305C202.71 174.976 202.294 175.088 202.056 175.194C202.172 174.986 202.323 174.846 202.516 174.773C202.943 174.604 203.417 174.826 203.422 174.826C203.456 174.841 203.495 174.826 203.509 174.797C203.524 174.763 203.509 174.725 203.48 174.71C203.461 174.7 202.952 174.463 202.473 174.652C202.197 174.763 201.988 174.991 201.853 175.334L201.766 175.552L201.955 175.407C201.979 175.388 202.516 174.986 203.039 175.407C203.33 175.639 203.311 175.997 203.209 176.234C203.102 176.481 202.841 176.747 202.449 176.694C202.415 176.689 202.381 176.713 202.376 176.752C202.371 176.786 202.395 176.82 202.434 176.825C202.429 176.829 202.434 176.829 202.439 176.829Z" fill="#F07162"/>
<path d="M189.591 233.481L187.336 237.264L187.581 237.41L189.837 233.627L189.591 233.481Z" fill="black"/>
<path d="M254.588 304.503L241.1 304.687L240.906 292.088L254.341 290.423L254.588 304.503Z" fill="#FE9F73"/>
<path d="M240.962 306.874H252.63L257.361 301.726L266.011 306.874H267.876C268.52 306.874 269.106 307.31 269.227 307.939C269.392 308.785 268.743 309.526 267.924 309.526H240.793C240.594 309.526 240.43 309.366 240.43 309.163V307.397C240.435 307.107 240.672 306.874 240.962 306.874Z" fill="#231F20"/>
<path d="M241.07 306.889V302.104C241.07 302.104 243.037 299.462 246.025 300.812C246.025 300.812 250.548 304.02 254.539 300.139L264.443 304.528C264.443 304.528 267.16 305.433 267.897 306.889H241.07Z" fill="#A78BEF"/>
<path d="M241.167 302.104H240.969V306.865H241.167V302.104Z" fill="black"/>
<path d="M250.081 302.152C250.458 302.152 250.686 302.118 250.696 302.118L250.667 301.92C250.642 301.925 248.303 302.249 246.08 300.72L245.969 300.884C247.562 301.987 249.214 302.152 250.081 302.152Z" fill="black"/>
<path d="M242.322 304.966L242.211 305.13L243.477 305.981L243.588 305.816L242.322 304.966Z" fill="black"/>
<path d="M243.252 304.732L243.141 304.896L244.406 305.748L244.517 305.584L243.252 304.732Z" fill="black"/>
<path d="M268.852 309.294C269.172 309.023 269.356 308.626 269.356 308.205C269.356 307.421 268.717 306.778 267.927 306.778H241.101C240.68 306.778 240.336 307.121 240.336 307.542V308.863H240.535V307.542C240.535 307.228 240.786 306.976 241.101 306.976H267.927C268.605 306.976 269.158 307.528 269.158 308.205C269.158 308.568 268.998 308.907 268.722 309.139L268.852 309.294Z" fill="black"/>
<path d="M267.838 306.923L268.017 306.84C267.993 306.792 267.451 305.679 265.426 304.818C263.436 303.971 254.67 300.086 254.582 300.047L254.5 300.226C254.587 300.265 263.353 304.15 265.349 304.997C267.296 305.829 267.833 306.913 267.838 306.923Z" fill="black"/>
<path d="M212.633 259.573C212.633 259.573 201.02 259.762 192.878 259.486C190.268 259.399 187.938 259.583 186.563 259.273C180.896 258.015 179.502 240.35 185.933 229.526C192.365 218.702 214.876 251.933 214.876 251.933L212.633 259.573Z" fill="#231F20"/>
<path d="M233.655 304.503L220.162 304.687L219.969 292.088L233.408 290.423L233.655 304.503Z" fill="#FE9F73"/>
<path d="M225.137 235.927C225.137 235.927 253.663 237.746 254.486 241.041C255.309 244.332 257.668 279.324 255.905 294.251C255.905 294.251 245.081 294.996 239.903 293.743L238.644 257.347L230.101 256.37L209.023 235.676L225.137 235.927Z" fill="#231F20"/>
<path d="M211.431 235.39C211.431 235.39 233.433 241.593 234.257 244.883C235.08 248.173 237.424 279.401 235.661 294.328C235.661 294.328 224.023 294.996 218.846 293.743L217.451 259.409L212.429 259.583L200.258 238.187L211.431 235.39Z" fill="#231F20"/>
<path d="M225.829 294.735C220.685 294.735 218.854 293.96 218.767 293.922L218.656 293.873L217.305 259.336L219.431 260.338L219.261 260.696L217.726 259.975L219.039 293.602C219.595 293.796 222.264 294.565 228.56 294.275L228.58 294.672C227.572 294.71 226.657 294.735 225.829 294.735Z" fill="#21111D"/>
<path d="M221.009 287.283C220.462 285.169 220.302 264.537 220.297 263.662L220.694 263.657C220.694 263.87 220.859 285.116 221.391 287.182L221.009 287.283Z" fill="#21111D"/>
<path d="M241.452 258.117C238.841 257.275 235.253 257.149 235.219 257.144L235.233 256.747C235.272 256.747 238.914 256.878 241.578 257.739L241.452 258.117Z" fill="#21111D"/>
<path d="M247.323 294.657C242.93 294.657 239.893 293.936 239.864 293.931L239.719 293.897L238.445 257.096L240.073 258.402L239.826 258.712L238.876 257.947L240.111 293.578C240.785 293.723 243.715 294.304 247.715 294.26L247.72 294.657C247.584 294.657 247.454 294.657 247.323 294.657Z" fill="#21111D"/>
<path d="M241.788 288.052C241.241 284.859 241.764 263.231 241.783 262.312L242.18 262.321C242.175 262.544 241.638 284.825 242.175 287.985L241.788 288.052Z" fill="#21111D"/>
<path d="M203.895 259.941C198.829 259.941 192.751 259.771 185.922 259.254L185.951 258.862C206.302 260.396 219.945 258.876 220.081 258.862L220.124 259.254C220.037 259.268 213.954 259.941 203.895 259.941Z" fill="#21111D"/>
<path d="M219.767 306.874H231.434L236.166 301.726L244.816 306.874H246.681C247.325 306.874 247.911 307.31 248.032 307.939C248.196 308.785 247.547 309.526 246.729 309.526H219.598C219.399 309.526 219.234 309.366 219.234 309.163V307.397C219.239 307.107 219.477 306.874 219.767 306.874Z" fill="#231F20"/>
<path d="M219.875 306.889V302.104C219.875 302.104 221.841 299.462 224.83 300.812C224.83 300.812 229.353 304.02 233.344 300.139L243.248 304.528C243.248 304.528 245.965 305.433 246.701 306.889H219.875Z" fill="#A78BEF"/>
<path d="M219.972 302.104H219.773V306.865H219.972V302.104Z" fill="black"/>
<path d="M228.885 302.152C229.263 302.152 229.491 302.118 229.5 302.118L229.471 301.92C229.447 301.925 227.108 302.249 224.885 300.72L224.773 300.884C226.362 301.987 228.018 302.152 228.885 302.152Z" fill="black"/>
<path d="M221.126 305.003L221.016 305.168L222.281 306.019L222.392 305.854L221.126 305.003Z" fill="black"/>
<path d="M221.994 304.736L221.883 304.901L223.148 305.753L223.259 305.588L221.994 304.736Z" fill="black"/>
<path d="M247.652 309.294C247.972 309.023 248.156 308.626 248.156 308.205C248.156 307.421 247.517 306.778 246.727 306.778H219.906C219.484 306.778 219.141 307.121 219.141 307.542V308.863H219.339V307.542C219.339 307.228 219.591 306.976 219.906 306.976H246.732C247.41 306.976 247.962 307.528 247.962 308.205C247.962 308.568 247.802 308.907 247.526 309.139L247.652 309.294Z" fill="black"/>
<path d="M246.643 306.923L246.822 306.84C246.798 306.792 246.255 305.679 244.231 304.818C242.24 303.971 233.474 300.086 233.387 300.047L233.305 300.226C233.392 300.265 242.158 304.15 244.153 304.997C246.1 305.829 246.638 306.913 246.643 306.923Z" fill="black"/>
<path d="M212.048 227.203L211.404 212.155C213.331 212.557 216.489 211.154 218.824 209.896C218.267 199.183 213.85 188.819 211.147 187.295C210.193 186.758 208.759 186.26 207.016 185.907C205.694 185.64 203.815 186.4 202.212 186.236C197.543 185.761 192.404 184.76 187.837 185.132C184.287 185.418 181.313 185.94 179.812 186.705C174.242 189.54 167.728 202.986 165.438 209.891C165.438 209.891 171.114 214.86 178.432 215.049L181.744 207.699L182.209 239.972L199.606 239.474L206.081 238.671L210.392 237.645L213.724 236.106L214.876 234.935C214.876 234.935 214.901 232.545 214.886 227.963C211.961 228.268 212.048 227.203 212.048 227.203Z" fill="#A78BEF"/>
<path d="M179.929 212.155C171.952 210.917 167.22 206.141 167.172 206.093L167.448 205.822C167.496 205.87 172.141 210.549 179.987 211.768L179.929 212.155Z" fill="#21111D"/>
<path d="M215.187 226.753L213.003 223.361C211.797 221.416 209.855 218.871 207.83 218.644C204.527 218.276 184.389 217.449 178.006 216.66L178.553 215.155C178.544 215.233 173.734 214.362 173.734 214.362L170.398 212.973L167.177 211.188C166.353 214.391 163.835 220.628 166.15 224.3C170.431 231.079 203.176 227.74 206.077 226.855L208.75 229.748L209.298 230.585C209.554 230.982 210.087 231.093 210.484 230.837C210.881 230.581 210.993 230.048 210.736 229.652L210.964 230.005C211.22 230.401 211.753 230.513 212.15 230.256C212.547 230 212.659 229.468 212.402 229.071C212.659 229.468 213.192 229.579 213.589 229.323C213.986 229.066 214.097 228.534 213.841 228.137L213.613 227.784C213.87 228.181 214.402 228.292 214.8 228.035C214.814 228.026 214.829 228.011 214.848 228.002C214.853 228.002 214.853 227.997 214.858 227.992C214.867 227.987 214.872 227.982 214.877 227.973C214.877 227.973 214.877 227.973 214.882 227.973C214.935 227.929 214.984 227.876 215.022 227.823C215.492 227.252 215.187 226.753 215.187 226.753Z" fill="#FE9F73"/>
<path d="M178.535 215.315L178.414 215.31C171.91 215.16 165.372 210.162 165.309 210.114L165.188 210.022L169.314 200.891L169.667 201.051L165.667 209.906C166.577 210.578 172.452 214.739 178.303 214.928L180.075 211.328L180.419 211.497L178.535 215.315Z" fill="#21111D"/>
<path d="M175.705 219.805C175.671 219.815 175.627 219.805 175.598 219.781C175.54 219.738 175.53 219.655 175.574 219.602L177.918 216.588C177.962 216.53 178.044 216.52 178.097 216.563C178.155 216.607 178.165 216.689 178.121 216.742L175.777 219.757C175.763 219.781 175.734 219.8 175.705 219.805Z" fill="#F07162"/>
<path d="M213.987 228.268C213.939 228.277 213.886 228.263 213.857 228.219L210.791 224.01C210.747 223.952 210.762 223.874 210.82 223.831C210.878 223.787 210.956 223.802 210.999 223.86L214.065 228.069C214.109 228.127 214.094 228.205 214.036 228.248C214.021 228.258 214.007 228.263 213.987 228.268Z" fill="#F07162"/>
<path d="M212.637 229.502C212.589 229.511 212.531 229.492 212.502 229.448L209.576 225.113C209.538 225.055 209.552 224.973 209.61 224.934C209.668 224.895 209.751 224.91 209.789 224.968L212.715 229.303C212.753 229.361 212.739 229.443 212.681 229.482C212.666 229.492 212.652 229.497 212.637 229.502Z" fill="#F07162"/>
<path d="M211.015 230.285C210.967 230.295 210.909 230.276 210.88 230.232L208.443 226.555C208.405 226.497 208.419 226.415 208.477 226.376C208.536 226.337 208.618 226.352 208.657 226.41L211.093 230.087C211.131 230.145 211.117 230.227 211.059 230.266C211.044 230.276 211.03 230.281 211.015 230.285Z" fill="#F07162"/>
<path d="M212.746 216.433H212.373V204.559L212.388 204.525C214.998 198.342 210.339 196.077 210.141 195.985L210.3 195.646C210.354 195.671 215.468 198.138 212.751 204.636V216.433H212.746Z" fill="#21111D"/>
<path d="M180.413 211.493L186.244 197.78L185.891 197.625L179.812 211.778L180.413 211.493Z" fill="#21111D"/>
<path d="M246.331 200.891H215.689L205 228.079H235.643L246.331 200.891Z" fill="#E527BB"/>
<path d="M205 228.079H206.603L217.287 200.891H215.689L205 228.079Z" fill="#CC1FAB"/>
<g opacity="0.6">
<path d="M226.3 213.617C225.873 214.865 226.188 216.099 226.997 216.375C227.806 216.65 228.803 215.857 229.23 214.609C229.656 213.36 229.341 212.126 228.532 211.851C227.723 211.58 226.721 212.368 226.3 213.617Z" fill="white"/>
</g>
<path d="M194.873 225.887H206.322V228.084H194.873C194.267 228.084 193.773 227.59 193.773 226.986C193.773 226.376 194.267 225.887 194.873 225.887Z" fill="#CC1FAB"/>
<path d="M204.996 226.637H197.766V226.981H204.996V226.637Z" fill="#CC1FAB"/>
<path d="M201.519 239.309L200.977 239.154C213.346 238.153 214.692 234.95 214.697 234.921L214.746 229.932L215.06 229.937L215.007 234.959C214.973 235.124 214.111 238.288 201.519 239.309Z" fill="black"/>
<path d="M213.719 230.063H204.328V231.959H213.719V230.063Z" fill="#FD7583"/>
<path d="M182.362 228.713H182.047V239.309H182.362V228.713Z" fill="black"/>
<path d="M121.589 309.526H119.07L123.613 228.079H128.655L121.589 309.526Z" fill="#21111D"/>
<path d="M476.556 229.7H113.252C113.111 229.7 113 229.589 113 229.448V227.252C113 227.111 113.111 227 113.252 227H476.551C476.692 227 476.803 227.111 476.803 227.252V229.448C476.808 229.589 476.696 229.7 476.556 229.7Z" fill="#374169"/>
<path d="M187.836 185.132C187.836 185.132 191.396 189.061 197.973 189.439C204.554 189.811 207.01 185.911 207.01 185.911C207.01 185.911 197.532 184.358 187.836 185.132Z" fill="#FE9F73"/>
<path d="M123.687 154.006C123.653 153.987 121.266 153.13 121.266 153.13C121.266 153.13 121.237 154.224 122.123 154.543C123.009 154.867 123.687 154.006 123.687 154.006Z" fill="#FE9F73"/>
<g opacity="0.4">
<path d="M167.109 108.412L166.615 111.04L166.117 113.668L169.767 115.078C169.834 116.656 170.159 118.231 170.743 119.746L167.964 122.5L169.473 124.709L170.982 126.918L174.562 125.335C175.761 126.432 177.11 127.309 178.557 127.944L178.541 131.853L181.171 132.35L183.802 132.848L185.213 129.201C186.793 129.135 188.369 128.809 189.886 128.226L192.642 131.003L194.853 129.495L197.065 127.987L195.481 124.411C196.578 123.213 197.457 121.865 198.092 120.42L202.004 120.436L202.502 117.808L203 115.18L199.35 113.77C199.283 112.191 198.958 110.617 198.374 109.101L201.154 106.348L199.644 104.139L198.135 101.93L194.556 103.512C193.356 102.415 192.007 101.538 190.561 100.904L190.576 96.9948L187.946 96.4974L185.315 96L183.904 99.6464C182.324 99.7129 180.748 100.038 179.231 100.622L176.475 97.8447L174.264 99.3526L172.053 100.861L173.636 104.436C172.539 105.635 171.661 106.982 171.025 108.427L167.109 108.412ZM178.89 106.136C183.469 103.015 189.714 104.19 192.838 108.764C195.963 113.339 194.787 119.578 190.208 122.7C185.629 125.821 179.384 124.646 176.259 120.072C173.135 115.497 174.315 109.258 178.89 106.136Z" fill="#A78BEF"/>
</g>
<path d="M356 139V170.134H379.208V144.123L374.21 139H356Z" fill="white"/>
<path d="M379.209 144.133L374.242 139V144.133H379.209Z" fill="#A78BEF"/>
<path d="M371.98 142.875H361.857C361.712 142.875 361.594 142.757 361.594 142.613C361.594 142.468 361.712 142.35 361.857 142.35H371.98C372.125 142.35 372.243 142.468 372.243 142.613C372.243 142.757 372.125 142.875 371.98 142.875Z" fill="#A78BEF"/>
<path d="M373.36 144.913H360.474C360.329 144.913 360.211 144.795 360.211 144.651C360.211 144.506 360.329 144.388 360.474 144.388H373.36C373.505 144.388 373.623 144.506 373.623 144.651C373.623 144.795 373.505 144.913 373.36 144.913Z" fill="#A78BEF"/>
<path d="M376.777 149.771H358.107C357.962 149.771 357.844 149.653 357.844 149.509C357.844 149.364 357.962 149.246 358.107 149.246H376.777C376.922 149.246 377.04 149.364 377.04 149.509C377.04 149.655 376.922 149.771 376.777 149.771Z" fill="#A78BEF"/>
<path d="M376.777 152.072H358.107C357.962 152.072 357.844 151.953 357.844 151.809C357.844 151.664 357.962 151.546 358.107 151.546H376.777C376.922 151.546 377.04 151.664 377.04 151.809C377.04 151.953 376.922 152.072 376.777 152.072Z" fill="#A78BEF"/>
<path d="M376.777 154.37H358.107C357.962 154.37 357.844 154.252 357.844 154.107C357.844 153.963 357.962 153.844 358.107 153.844H376.777C376.922 153.844 377.04 153.963 377.04 154.107C377.04 154.254 376.922 154.37 376.777 154.37Z" fill="#A78BEF"/>
<path d="M376.777 158.968H358.107C357.962 158.968 357.844 158.849 357.844 158.705C357.844 158.56 357.962 158.442 358.107 158.442H376.777C376.922 158.442 377.04 158.56 377.04 158.705C377.04 158.849 376.922 158.968 376.777 158.968Z" fill="#A78BEF"/>
<path d="M376.777 161.268H358.107C357.962 161.268 357.844 161.15 357.844 161.005C357.844 160.86 357.962 160.742 358.107 160.742H376.777C376.922 160.742 377.04 160.86 377.04 161.005C377.04 161.15 376.922 161.268 376.777 161.268Z" fill="#A78BEF"/>
<path d="M376.777 167.179H358.107C357.962 167.179 357.844 167.061 357.844 166.916C357.844 166.772 357.962 166.654 358.107 166.654H376.777C376.922 166.654 377.04 166.772 377.04 166.916C377.04 167.061 376.922 167.179 376.777 167.179Z" fill="#A78BEF"/>
<path d="M179.181 121.966H138.405C137.101 121.966 136.047 123.019 136.047 124.322V144.053C136.047 145.356 137.101 146.409 138.405 146.409H141.88L140.298 150.726L146.547 146.409H179.181C180.486 146.409 181.54 145.356 181.54 144.053V124.318C181.54 123.019 180.486 121.966 179.181 121.966Z" fill="#E527BB"/>
<path d="M177.277 137.357H139.344C139.083 137.357 138.867 137.145 138.867 136.88C138.867 136.615 139.079 136.404 139.344 136.404H177.277C177.539 136.404 177.754 136.615 177.754 136.88C177.75 137.145 177.539 137.357 177.277 137.357Z" fill="white"/>
<path d="M163.992 126.571H139.344C139.083 126.571 138.867 126.36 138.867 126.094C138.867 125.833 139.079 125.618 139.344 125.618H163.992C164.253 125.618 164.469 125.829 164.469 126.094C164.465 126.36 164.253 126.571 163.992 126.571Z" fill="white"/>
<path d="M149.994 142.754H139.336C139.075 142.754 138.859 142.542 138.859 142.277C138.859 142.012 139.071 141.8 139.336 141.8H149.994C150.256 141.8 150.471 142.012 150.471 142.277C150.471 142.538 150.26 142.754 149.994 142.754Z" fill="white"/>
<path d="M177.272 142.754H153.329C153.067 142.754 152.852 142.542 152.852 142.277C152.852 142.012 153.063 141.8 153.329 141.8H177.272C177.533 141.8 177.749 142.012 177.749 142.277C177.745 142.538 177.533 142.754 177.272 142.754Z" fill="white"/>
<path d="M177.554 126.571H167.719C167.458 126.571 167.242 126.36 167.242 126.094C167.242 125.833 167.454 125.618 167.719 125.618H177.554C177.815 125.618 178.031 125.829 178.031 126.094C178.031 126.36 177.815 126.571 177.554 126.571Z" fill="white"/>
<path d="M154.83 131.964H139.336C139.075 131.964 138.859 131.752 138.859 131.487C138.859 131.222 139.071 131.01 139.336 131.01H154.83C155.092 131.01 155.308 131.222 155.308 131.487C155.308 131.752 155.092 131.964 154.83 131.964Z" fill="white"/>
<path d="M177.554 131.964H158.305C158.044 131.964 157.828 131.752 157.828 131.487C157.828 131.222 158.04 131.01 158.305 131.01H177.554C177.816 131.01 178.031 131.222 178.031 131.487C178.031 131.752 177.816 131.964 177.554 131.964Z" fill="white"/>
<path d="M414.138 121.875H356.702C354.658 121.875 353 120.219 353 118.177V107.698C353 105.657 354.658 104 356.702 104H414.138C416.181 104 417.84 105.657 417.84 107.698V118.177C417.84 120.222 416.181 121.875 414.138 121.875Z" fill="#E527BB"/>
<path d="M405.897 108.752C403.452 108.752 401.469 110.733 401.469 113.176C401.469 115.619 403.452 117.6 405.897 117.6C408.343 117.6 410.326 115.619 410.326 113.176C410.329 110.733 408.346 108.752 405.897 108.752ZM405.897 116.954C403.808 116.954 402.115 115.263 402.115 113.176C402.115 111.089 403.808 109.398 405.897 109.398C407.987 109.398 409.679 111.089 409.679 113.176C409.679 115.263 407.987 116.954 405.897 116.954Z" fill="white"/>
<path d="M408.352 113.449H405.516V110.423C405.516 110.322 405.596 110.242 405.697 110.242C405.797 110.242 405.878 110.322 405.878 110.423V113.09H408.355C408.456 113.09 408.536 113.17 408.536 113.271C408.533 113.369 408.453 113.449 408.352 113.449Z" fill="white"/>
<path d="M395.2 111.514H360.826C360.564 111.514 360.352 111.301 360.352 111.04V110.621C360.352 110.36 360.564 110.147 360.826 110.147H395.2C395.461 110.147 395.674 110.36 395.674 110.621V111.037C395.674 111.301 395.461 111.514 395.2 111.514Z" fill="white"/>
<path d="M395.2 115.731H360.826C360.564 115.731 360.352 115.519 360.352 115.258V114.841C360.352 114.58 360.564 114.368 360.826 114.368H395.2C395.461 114.368 395.674 114.58 395.674 114.841V115.258C395.674 115.519 395.461 115.731 395.2 115.731Z" fill="white"/>
<path d="M444.669 80.6557C456.885 77.2295 464.009 64.5513 460.582 52.3382C457.155 40.1251 444.475 33.0019 432.259 36.4281C420.043 39.8543 412.919 52.5325 416.346 64.7456C419.773 76.9587 432.453 84.0819 444.669 80.6557Z" fill="#007CFF"/>
<path d="M444.669 80.6557C456.885 77.2295 464.009 64.5513 460.582 52.3382C457.155 40.1251 444.475 33.0019 432.259 36.4281C420.043 39.8543 412.919 52.5325 416.346 64.7456C419.773 76.9587 432.453 84.0819 444.669 80.6557Z" fill="#A78BEF"/>
<path d="M451.587 75.2474C461.515 67.3485 463.159 52.8985 455.258 42.9725C447.357 33.0465 432.904 31.4032 422.976 39.3022C413.048 47.2011 411.405 61.6511 419.305 71.5771C427.206 81.5031 441.659 83.1464 451.587 75.2474Z" fill="#E527BB"/>
<path d="M453.639 67.0899C459.053 58.0479 456.11 46.3301 447.066 40.9175C438.022 35.5049 426.302 38.4472 420.888 47.4892C415.475 56.5313 418.417 68.2491 427.461 73.6617C436.505 79.0743 448.226 76.132 453.639 67.0899Z" fill="white"/>
<path d="M428.107 70.8262L430.646 67.069C430.72 67.1151 430.794 67.1705 430.868 67.2167L428.421 71.0293C428.319 70.9739 428.218 70.9001 428.107 70.8262ZM423.047 65.3519C422.982 65.2411 422.927 65.1303 422.862 65.0196L426.86 62.8871C426.907 62.9701 426.944 63.044 426.99 63.1179L423.047 65.3519ZM435.448 73.5403L435.946 69.0353L436.223 69.063L435.808 73.5773C435.697 73.5588 435.577 73.5496 435.448 73.5403ZM420.923 57.8281C420.923 57.6989 420.914 57.5789 420.914 57.4497L425.448 57.4035L425.457 57.6804L420.923 57.8281ZM443.204 72.5156L441.551 68.2968L441.809 68.1952L443.619 72.3494L443.508 72.3956C443.435 72.4325 443.324 72.4787 443.204 72.5156ZM422.548 50.1752C422.604 50.0644 422.659 49.9444 422.715 49.8336L426.75 51.8922C426.713 51.9753 426.667 52.0492 426.63 52.1323L422.548 50.1752ZM446.214 65.0103C446.269 64.9457 446.325 64.8811 446.38 64.8165L449.88 67.6967C449.796 67.7983 449.713 67.8998 449.63 67.9921L446.214 65.0103ZM430.231 47.7934L427.544 44.1469L427.839 43.9346L430.462 47.6272L430.231 47.7934ZM448.781 59.9791L448.845 59.7114L453.277 60.6622C453.25 60.7823 453.222 60.9023 453.194 61.0223L448.781 59.9791ZM435.457 45.6147L434.755 41.1374C434.875 41.119 434.995 41.1005 435.115 41.082L435.734 45.5686L435.457 45.6147ZM448.716 54.3294C448.698 54.2463 448.67 54.1632 448.652 54.0709L453.001 52.8339C453.037 52.9539 453.065 53.0831 453.102 53.2031L448.716 54.3294ZM441.089 46.104L442.548 41.8113C442.668 41.8575 442.788 41.8944 442.917 41.9406L441.329 46.1871C441.255 46.1594 441.172 46.1317 441.089 46.104ZM446.029 49.3535L445.845 49.1504L449.132 46.0302C449.215 46.1225 449.307 46.2148 449.39 46.3071L446.029 49.3535Z" fill="black"/>
<path d="M432.469 50.1938L437.03 58.0315L444.398 50.8585" stroke="black" stroke-miterlimit="10" stroke-linecap="round" stroke-linejoin="round"/>
<path d="M438.363 58.3823C437.846 58.9731 436.941 59.0285 436.35 58.5115C435.759 57.9946 435.704 57.0899 436.221 56.499C436.738 55.9082 437.643 55.8528 438.234 56.3698C438.816 56.896 438.88 57.7915 438.363 58.3823Z" fill="black"/>
<path opacity="0.3" d="M424.534 45.0055C432.096 37.6664 444.183 37.8418 451.523 45.4025C453.324 47.2581 454.672 49.3906 455.568 51.6615C454.718 48.8182 453.204 46.1318 450.997 43.8608C443.656 36.3002 431.57 36.1155 424.007 43.4639C418.301 49.0028 416.805 57.2374 419.557 64.1888C417.581 57.5882 419.243 50.1383 424.534 45.0055Z" fill="black"/>
<path d="M264.364 172.833H229.636C228.734 172.833 228 172.098 228 171.194V131.64C228 130.736 228.734 130 229.636 130H264.364C265.266 130 266 130.736 266 131.64V171.194C266 172.102 265.266 172.833 264.364 172.833Z" fill="white"/>
<path opacity="0.45" d="M265.996 132.92H228.477V152.881H265.996V132.92Z" fill="url(#paint0_linear_1612_10654)"/>
<path d="M235.615 138.97H232.578V152.882H235.615V138.97Z" fill="#E527BB"/>
<path d="M240.803 145.11H237.766V152.881H240.803V145.11Z" fill="#A78BEF"/>
<path d="M245.975 136.513H242.938V152.881H245.975V136.513Z" fill="#E527BB"/>
<path d="M251.146 142.145H248.109V152.886H251.146V142.145Z" fill="#A78BEF"/>
<path d="M256.334 135.182H253.297V152.882H256.334V135.182Z" fill="#E527BB"/>
<path d="M261.506 138.97H258.469V152.882H261.506V138.97Z" fill="#A78BEF"/>
<path d="M236.712 158.236H232.578V161.888H236.712V158.236Z" fill="#E527BB"/>
<path d="M261.114 158.236H240.258V159.735H261.114V158.236Z" fill="#DADADA"/>
<path d="M254.809 160.384H240.258V161.883H254.809V160.384Z" fill="#DADADA"/>
<path d="M236.712 164.635H232.578V168.287H236.712V164.635Z" fill="#A78BEF"/>
<path d="M261.114 164.635H240.258V166.134H261.114V164.635Z" fill="#DADADA"/>
<path d="M254.809 166.784H240.258V168.283H254.809V166.784Z" fill="#DADADA"/>
<defs>
<linearGradient id="paint0_linear_1612_10654" x1="247.238" y1="134.253" x2="247.238" y2="156.843" gradientUnits="userSpaceOnUse">
<stop stop-color="#C8E7FF" stop-opacity="0"/>
<stop offset="1" stop-color="#A78BEF"/>
</linearGradient>
</defs>
</svg>
