<svg width="50" height="50" viewBox="0 0 50 50" fill="none" xmlns="http://www.w3.org/2000/svg">
<g clip-path="url(#clip0_781_6908)">
<path fill-rule="evenodd" clip-rule="evenodd" d="M46.5142 43.6293H3.48227C2.02678 43.6293 0.852539 42.4481 0.852539 41.0067V11.714C0.852539 10.2726 2.03381 9.09131 3.48227 9.09131H6.30184C6.68154 9.09131 6.98388 9.39366 6.98388 9.77335C6.98388 10.153 6.68154 10.4554 6.30184 10.4554H3.48227C2.78616 10.4554 2.22365 11.0249 2.22365 11.714V41.0067C2.22365 41.7028 2.78616 42.2653 3.48227 42.2653H46.5142C47.2033 42.2653 47.7728 41.7028 47.7728 41.0067V11.714C47.7728 11.0249 47.2033 10.4554 46.5142 10.4554H43.6946C43.3149 10.4554 43.0126 10.153 43.0126 9.77335C43.0126 9.39366 43.3149 9.09131 43.6946 9.09131H46.5142C47.9697 9.09131 49.1369 10.2726 49.1369 11.714V41.0067C49.1509 42.4621 47.9697 43.6293 46.5142 43.6293Z" fill="#DAA7EE"/>
<path fill-rule="evenodd" clip-rule="evenodd" d="M31.0164 49.9786H19.0068C18.6693 49.9786 18.374 49.7255 18.3388 49.381C18.2967 49.0364 18.5076 48.72 18.8451 48.6286C20.4904 48.1997 20.6451 44.3184 20.5678 42.9895C20.5537 42.6098 20.835 42.2863 21.2147 42.2652C21.5873 42.2442 21.9178 42.5324 21.9389 42.9121C21.967 43.3903 22.1006 46.6669 20.9053 48.6075H29.1179C27.9015 46.6669 28.0492 43.3903 28.0773 42.9121C28.0984 42.5324 28.4288 42.2442 28.8015 42.2652C29.1812 42.2863 29.4625 42.6098 29.4414 42.9895C29.364 44.3184 29.5187 48.1997 31.1992 48.6286C31.5297 48.72 31.7476 49.0364 31.7055 49.381C31.6492 49.7255 31.3539 49.9786 31.0164 49.9786Z" fill="#DAA7EE"/>
<path fill-rule="evenodd" clip-rule="evenodd" d="M29.0552 47.1942H20.9692C20.5895 47.1942 20.2871 46.8918 20.2871 46.5121C20.2871 46.1324 20.5895 45.8301 20.9692 45.8301H29.0552C29.4349 45.8301 29.7373 46.1324 29.7373 46.5121C29.7373 46.8918 29.4208 47.1942 29.0552 47.1942Z" fill="#DAA7EE"/>
<path fill-rule="evenodd" clip-rule="evenodd" d="M48.4619 36.9144H1.54161C1.15489 36.9144 0.852539 36.612 0.852539 36.2323C0.852539 35.8526 1.15489 35.5503 1.54161 35.5503H48.4619C48.8486 35.5503 49.151 35.8526 49.151 36.2323C49.151 36.612 48.8345 36.9144 48.4619 36.9144Z" fill="#DAA7EE"/>
<path fill-rule="evenodd" clip-rule="evenodd" d="M26.5236 40.2757H23.4579C23.0782 40.2757 22.7759 39.9734 22.7759 39.5937C22.7759 39.214 23.0782 38.9116 23.4579 38.9116H26.5236C26.9033 38.9116 27.2056 39.214 27.2056 39.5937C27.2056 39.9734 26.9033 40.2757 26.5236 40.2757Z" fill="#DAA7EE"/>
<path fill-rule="evenodd" clip-rule="evenodd" d="M42.1963 33.7715H7.79183C6.5965 33.7715 5.61914 32.8012 5.61914 31.5988V4.23278C5.61914 1.9054 7.51058 0.0209961 9.82389 0.0209961H40.1712C42.4916 0.0209961 44.376 1.91946 44.376 4.23278V31.5918C44.383 32.8012 43.3986 33.7715 42.1963 33.7715ZM9.82389 1.37805C8.2559 1.37805 6.98322 2.65776 6.98322 4.21872V31.5918C6.98322 32.0348 7.34885 32.4004 7.79183 32.4004H42.1963C42.6463 32.4004 43.0119 32.0348 43.0119 31.5918V4.21872C43.0119 2.65072 41.7322 1.37805 40.1712 1.37805H9.82389Z" fill="#DAA7EE"/>
<path fill-rule="evenodd" clip-rule="evenodd" d="M43.701 8.11457H6.30118C5.92149 8.11457 5.61914 7.81222 5.61914 7.43253C5.61914 7.05284 5.92149 6.75049 6.30118 6.75049H43.701C44.0807 6.75049 44.383 7.05284 44.383 7.43253C44.383 7.81222 44.0736 8.11457 43.701 8.11457Z" fill="#DAA7EE"/>
<path fill-rule="evenodd" clip-rule="evenodd" d="M10.3933 5.97643C9.33859 5.97643 8.48779 5.1186 8.48779 4.0639C8.48779 3.00919 9.34562 2.15137 10.3933 2.15137C11.448 2.15137 12.3058 3.00919 12.3058 4.0639C12.3058 5.1186 11.448 5.97643 10.3933 5.97643ZM10.3933 3.51545C10.098 3.51545 9.85188 3.76155 9.85188 4.0639C9.85188 4.36625 10.098 4.61234 10.3933 4.61234C10.6956 4.61234 10.9347 4.36625 10.9347 4.0639C10.9347 3.76155 10.6956 3.51545 10.3933 3.51545Z" fill="#DAA7EE"/>
<path fill-rule="evenodd" clip-rule="evenodd" d="M15.0619 5.97643C14.0143 5.97643 13.1494 5.1186 13.1494 4.0639C13.1494 3.00919 14.0143 2.15137 15.0619 2.15137C16.1166 2.15137 16.9815 3.00919 16.9815 4.0639C16.9815 5.1186 16.1166 5.97643 15.0619 5.97643ZM15.0619 3.51545C14.7596 3.51545 14.5205 3.76155 14.5205 4.0639C14.5205 4.36625 14.7596 4.61234 15.0619 4.61234C15.3713 4.61234 15.6104 4.36625 15.6104 4.0639C15.6104 3.76858 15.3573 3.51545 15.0619 3.51545Z" fill="#DAA7EE"/>
<path fill-rule="evenodd" clip-rule="evenodd" d="M19.7387 5.97643C18.684 5.97643 17.8262 5.1186 17.8262 4.0639C17.8262 3.00919 18.684 2.15137 19.7387 2.15137C20.7934 2.15137 21.6512 3.00919 21.6512 4.0639C21.6512 5.1186 20.7934 5.97643 19.7387 5.97643ZM19.7387 3.51545C19.4364 3.51545 19.1973 3.76155 19.1973 4.0639C19.1973 4.36625 19.4364 4.61234 19.7387 4.61234C20.041 4.61234 20.2871 4.36625 20.2871 4.0639C20.2871 3.76155 20.041 3.51545 19.7387 3.51545Z" fill="#DAA7EE"/>
<path fill-rule="evenodd" clip-rule="evenodd" d="M14.4998 19.0547C14.4576 19.0547 14.4084 19.0547 14.3733 19.0477C14.0006 18.9774 13.7545 18.6188 13.8389 18.2461L15.21 11.1023C15.2803 10.7296 15.6389 10.4835 16.0116 10.5679C16.3842 10.6312 16.6303 10.9968 16.5459 11.3624L15.1748 18.5063C15.1045 18.8297 14.8233 19.0547 14.4998 19.0547Z" fill="#DAA7EE"/>
<path fill-rule="evenodd" clip-rule="evenodd" d="M12.56 18.3653C12.3842 18.3653 12.2084 18.295 12.0678 18.1614L9.19903 15.2786C8.93887 15.0184 8.93887 14.5754 9.19903 14.3153L12.0678 11.4465C12.335 11.1793 12.771 11.1793 13.0381 11.4465C13.2983 11.7066 13.2983 12.1426 13.0381 12.4098L10.6475 14.8004L13.0381 17.1981C13.2983 17.4653 13.2983 17.9013 13.0381 18.1685C12.9116 18.295 12.7358 18.3653 12.56 18.3653Z" fill="#DAA7EE"/>
<path fill-rule="evenodd" clip-rule="evenodd" d="M17.8192 18.3653C17.6434 18.3653 17.4676 18.295 17.341 18.1685C17.0738 17.9013 17.0738 17.4653 17.341 17.1981L19.7317 14.8004L17.341 12.4098C17.0738 12.1426 17.0738 11.7066 17.341 11.4465C17.6012 11.1793 18.0442 11.1793 18.3043 11.4465L21.1731 14.3153C21.4403 14.5754 21.4403 15.0184 21.1731 15.2786L18.3043 18.1614C18.1637 18.295 17.9949 18.3653 17.8192 18.3653Z" fill="#DAA7EE"/>
<path fill-rule="evenodd" clip-rule="evenodd" d="M29.7587 15.6729H23.2758C22.8961 15.6729 22.5938 15.3705 22.5938 14.9838C22.5938 14.6041 22.8961 14.3018 23.2758 14.3018H29.7587C30.1384 14.3018 30.4407 14.6041 30.4407 14.9838C30.4407 15.3705 30.1384 15.6729 29.7587 15.6729Z" fill="#DAA7EE"/>
<path fill-rule="evenodd" clip-rule="evenodd" d="M31.9031 19.055H23.2826C22.9029 19.055 22.6006 18.7527 22.6006 18.373C22.6006 17.9933 22.9029 17.6909 23.2826 17.6909H31.9031C32.2828 17.6909 32.5851 17.9933 32.5851 18.373C32.5851 18.7527 32.2828 19.055 31.9031 19.055Z" fill="#DAA7EE"/>
<path fill-rule="evenodd" clip-rule="evenodd" d="M40.3122 19.0548H34.3356C33.9488 19.0548 33.6465 18.7525 33.6465 18.3728V11.2289C33.6465 10.8492 33.9488 10.5469 34.3356 10.5469H40.3122C40.6989 10.5469 41.0013 10.8492 41.0013 11.2289V18.3728C41.0013 18.7525 40.6849 19.0548 40.3122 19.0548ZM35.0035 17.6907H39.6231V11.911H35.0035V17.6907Z" fill="#DAA7EE"/>
<path fill-rule="evenodd" clip-rule="evenodd" d="M24.8645 29.9747H10.4291C10.0494 29.9747 9.74707 29.6724 9.74707 29.2927V22.1488C9.74707 21.7691 10.0494 21.4668 10.4291 21.4668H24.8645C25.2442 21.4668 25.5465 21.7691 25.5465 22.1488V29.2927C25.5465 29.6724 25.2442 29.9747 24.8645 29.9747ZM11.1112 28.6107H24.1825V22.8309H11.1112V28.6107Z" fill="#DAA7EE"/>
<path fill-rule="evenodd" clip-rule="evenodd" d="M40.312 22.8309H29.2939C28.9142 22.8309 28.6118 22.5285 28.6118 22.1488C28.6118 21.7691 28.9142 21.4668 29.2939 21.4668H40.312C40.6987 21.4668 41.0011 21.7691 41.0011 22.1488C41.0011 22.5285 40.6847 22.8309 40.312 22.8309Z" fill="#DAA7EE"/>
<path fill-rule="evenodd" clip-rule="evenodd" d="M40.312 26.4027H29.2939C28.9142 26.4027 28.6118 26.1003 28.6118 25.7206C28.6118 25.3409 28.9142 25.0386 29.2939 25.0386H40.312C40.6987 25.0386 41.0011 25.3409 41.0011 25.7206C41.0011 26.1003 40.6847 26.4027 40.312 26.4027Z" fill="#DAA7EE"/>
<path fill-rule="evenodd" clip-rule="evenodd" d="M40.312 29.9676H29.2939C28.9142 29.9676 28.6118 29.6653 28.6118 29.2856C28.6118 28.9059 28.9142 28.6035 29.2939 28.6035H40.312C40.6987 28.6035 41.0011 28.9059 41.0011 29.2856C41.0011 29.6653 40.6847 29.9676 40.312 29.9676Z" fill="#DAA7EE"/>
</g>
<defs>
<clipPath id="clip0_781_6908">
<rect width="50" height="50" fill="white"/>
</clipPath>
</defs>
</svg>
