<svg width="57" height="33" viewBox="0 0 57 33" fill="none" xmlns="http://www.w3.org/2000/svg">
<path d="M24.6454 14.5847L22.8867 14.2074C22.7992 13.9662 22.6998 13.7284 22.591 13.4954L23.5679 11.984C23.8873 11.4908 23.8199 10.8557 23.4035 10.4393L21.4024 8.43822C20.9873 8.02309 20.3522 7.95568 19.8578 8.27382L18.3463 9.25073C18.1133 9.14193 17.8744 9.04258 17.6343 8.95506L17.2571 7.19638C17.1341 6.62159 16.6373 6.22066 16.0495 6.22066H13.2193C12.6315 6.22066 12.1348 6.62159 12.0118 7.19638L11.6333 8.95506C11.3932 9.04258 11.1543 9.14193 10.9213 9.25073L9.40983 8.27382C8.91665 7.95449 8.28154 8.02191 7.86641 8.43822L5.86528 10.4393C5.45015 10.8545 5.38274 11.4896 5.70088 11.9828L6.67779 13.4943C6.56899 13.7273 6.46964 13.9662 6.38212 14.2063L4.62344 14.5847C4.04865 14.7077 3.64771 15.2044 3.64771 15.7923V18.6225C3.64771 19.2103 4.04865 19.707 4.62344 19.83L6.38212 20.2085C6.46964 20.4485 6.56899 20.6875 6.67779 20.9204L5.70088 22.4319C5.38155 22.9251 5.44897 23.5602 5.86528 23.9765L7.86641 25.9777C8.28154 26.3928 8.91665 26.4602 9.41102 26.1421L10.9225 25.1652C11.1555 25.274 11.3944 25.3733 11.6345 25.4608L12.0118 27.2195C12.1348 27.7943 12.6315 28.1952 13.2193 28.1952H16.0495C16.6373 28.1952 17.1341 27.7943 17.2571 27.2195L17.6343 25.4608C17.8756 25.3733 18.1145 25.274 18.3463 25.1652L19.8578 26.1421C20.351 26.4614 20.9861 26.394 21.4024 25.9777L23.4035 23.9765C23.8187 23.5614 23.8861 22.9263 23.5679 22.4331L22.591 20.9216C22.6998 20.6886 22.7992 20.4497 22.8867 20.2096L24.6454 19.8312C25.2202 19.7082 25.6211 19.2114 25.6211 18.6236V15.7934C25.6211 15.2044 25.2202 14.7077 24.6454 14.5847ZM24.2019 18.4746L22.4881 18.8424C22.0647 18.9335 21.7253 19.2315 21.581 19.6419C21.4911 19.8974 21.3859 20.1529 21.2676 20.3977C21.0784 20.7892 21.1067 21.2398 21.3421 21.6052L22.2942 23.0777L20.5024 24.8695L19.0287 23.9174C18.6645 23.682 18.2127 23.6537 17.8212 23.8429C17.5764 23.9612 17.3209 24.0664 17.0643 24.1575C16.6551 24.3006 16.3558 24.64 16.2659 25.0634L15.8981 26.7772H13.3648L12.997 25.0634C12.9059 24.6389 12.6067 24.3006 12.1975 24.1575C11.942 24.0676 11.6865 23.9623 11.4405 23.8429C11.0491 23.6548 10.5984 23.682 10.233 23.9186L8.76053 24.8707L6.96874 23.0789L7.92081 21.6052C8.15617 21.241 8.18456 20.7892 7.99532 20.3989C7.87705 20.1529 7.77061 19.8986 7.68191 19.6419C7.5388 19.2327 7.19937 18.9335 6.77596 18.8436L5.06222 18.4758V15.9425L6.77596 15.5746C7.19937 15.4836 7.5388 15.1843 7.68191 14.7751C7.77179 14.5185 7.87705 14.2642 7.99532 14.0182C8.18456 13.6267 8.15617 13.1761 7.91963 12.8107L6.96756 11.3382L8.75935 9.54641L10.2318 10.4985C10.5973 10.7338 11.0479 10.7622 11.4382 10.573C11.6842 10.4547 11.9384 10.3483 12.1951 10.2584C12.6043 10.1153 12.9035 9.77585 12.9934 9.35245L13.3612 7.63871H15.8946L16.2624 9.35245C16.3535 9.77585 16.6527 10.1153 17.0619 10.2584C17.3174 10.3483 17.5717 10.4535 17.8177 10.5718C18.2091 10.761 18.6597 10.7327 19.0252 10.4973L20.4977 9.54523L22.2894 11.337L21.3374 12.8095C21.102 13.1738 21.0736 13.6255 21.2617 14.017C21.3799 14.263 21.4864 14.5173 21.5751 14.7739C21.7182 15.1832 22.0576 15.4812 22.481 15.5735L24.1948 15.9413V18.4746H24.2019ZM53.4997 24.2959C50.9617 27.268 47.4171 29.074 43.5213 29.3815C39.6243 29.689 35.842 28.4602 32.8687 25.9221C29.9261 23.4088 28.0764 19.817 27.7937 16.0655C27.5395 12.6888 25.8707 9.45061 23.2131 7.18101C20.5284 4.88893 17.1128 3.77956 13.5942 4.05631C10.0757 4.33306 6.8753 5.96401 4.58323 8.64874C2.29116 11.3335 1.18178 14.7491 1.45972 18.2676C1.73647 21.7862 3.36741 24.9866 6.05215 27.2786C10.1301 30.7605 15.9454 31.3921 20.6467 28.9971L19.5018 28.6659C19.1257 28.5571 18.9081 28.1633 19.0169 27.7872C19.1257 27.4111 19.5196 27.1935 19.8957 27.3023L22.5177 28.0592C22.8938 28.168 23.1114 28.5619 23.0026 28.938L22.2457 31.56C22.1558 31.8711 21.872 32.0733 21.5644 32.0733C21.4994 32.0733 21.4332 32.0639 21.3669 32.0449C20.9908 31.9361 20.7732 31.5423 20.882 31.1662L21.1186 30.3466C19.1068 31.3365 16.8656 31.8628 14.6137 31.8628C14.3476 31.8628 14.0827 31.8557 13.8166 31.8403C10.5949 31.6629 7.59202 30.4577 5.132 28.3573C2.15988 25.8192 0.353893 22.2758 0.046391 18.3788C-0.261111 14.4818 0.967715 10.6995 3.50579 7.72623C6.04387 4.75411 9.58842 2.94812 13.4842 2.64062C17.3812 2.33312 21.1635 3.56194 24.1368 6.10002C27.0794 8.61326 28.9291 12.2063 29.2118 15.9566C29.4661 19.3333 31.1349 22.5715 33.7924 24.8411C36.4759 27.1332 39.8928 28.2425 43.4113 27.9658C46.9298 27.689 50.1302 26.0581 52.4223 23.3734C54.7144 20.6886 55.8237 17.273 55.547 13.7545C55.2702 10.2359 53.6393 7.03554 50.9546 4.74346C46.8056 1.20009 40.9442 0.60401 36.2134 3.09833L37.279 3.40583C37.6551 3.51464 37.8727 3.90848 37.7639 4.28457C37.674 4.59563 37.3902 4.79787 37.0827 4.79787C37.0176 4.79787 36.9514 4.7884 36.8852 4.76948L34.2631 4.01255C34.0822 3.96051 33.9296 3.8387 33.8385 3.67312C33.7474 3.50872 33.7262 3.31358 33.7782 3.13381L34.5351 0.512941C34.6439 0.136843 35.0378 -0.080774 35.4139 0.0280344C35.79 0.136843 36.0076 0.530683 35.8988 0.906782L35.6421 1.79381C40.8649 -0.912212 47.3059 -0.235708 51.8735 3.66484C54.8456 6.20291 56.6516 9.74629 56.9591 13.6433C57.2666 17.5403 56.0378 21.3237 53.4997 24.2959ZM32.5281 17.4374L34.2868 17.8159C34.3743 18.0559 34.4736 18.2948 34.5824 18.5278L33.6055 20.0393C33.2862 20.5325 33.3536 21.1676 33.7699 21.5839L35.771 23.5851C36.1862 24.0002 36.8213 24.0676 37.3157 23.7495L38.8271 22.7726C39.0601 22.8814 39.299 22.9807 39.5391 23.0682L39.9164 24.8269C40.0394 25.4017 40.5362 25.8026 41.124 25.8026H43.9542C44.542 25.8026 45.0387 25.4017 45.1617 24.8269L45.539 23.0682C45.7791 22.9807 46.018 22.8814 46.251 22.7726L47.7625 23.7495C48.2556 24.0688 48.8908 24.0014 49.3071 23.5851L51.3082 21.5839C51.7233 21.1688 51.7907 20.5337 51.4726 20.0393L50.4957 18.5278C50.6045 18.2948 50.7038 18.0559 50.7913 17.8159L52.55 17.4374C53.1248 17.3144 53.5258 16.8177 53.5258 16.2299V13.3996C53.5258 12.8118 53.1248 12.3151 52.55 12.1921L50.7913 11.8136C50.7038 11.5736 50.6045 11.3347 50.4957 11.1017L51.4726 9.59017C51.7919 9.09698 51.7245 8.46187 51.3082 8.04556L49.3071 6.04443C48.8919 5.62812 48.2568 5.56189 47.7625 5.88004L46.251 6.85695C46.018 6.74814 45.7802 6.64879 45.539 6.56127L45.1605 4.8026C45.0375 4.2278 44.5408 3.82687 43.953 3.82687H41.1228C40.535 3.82687 40.0382 4.2278 39.9152 4.8026L39.538 6.56127C39.2979 6.64879 39.059 6.74814 38.826 6.85695L37.3145 5.88004C36.8213 5.56071 36.1862 5.62812 35.7699 6.04443L33.7687 8.04556C33.3524 8.46069 33.285 9.0958 33.6043 9.59017L34.5813 11.1017C34.4724 11.3347 34.3731 11.5736 34.2856 11.8136L32.5269 12.1921C31.9521 12.3151 31.5512 12.8118 31.5512 13.3996V16.2299C31.5524 16.8177 31.9545 17.3144 32.5281 17.4374ZM32.9716 13.5475L34.6853 13.1797C35.1087 13.0886 35.4482 12.7894 35.5913 12.3802C35.6812 12.1235 35.7864 11.8692 35.9047 11.6232C36.0927 11.2318 36.0655 10.7811 35.829 10.4157L34.8769 8.94323L36.6687 7.15144L38.1412 8.10351C38.5055 8.33887 38.9572 8.36726 39.3487 8.17803C39.5947 8.05976 39.849 7.95331 40.1045 7.86461C40.5137 7.7215 40.8129 7.38207 40.904 6.95866L41.2718 5.24493H43.8051L44.173 6.95866C44.264 7.38207 44.5621 7.7215 44.9725 7.86461C45.2291 7.95449 45.4834 8.05975 45.7294 8.17921C46.1209 8.36726 46.5715 8.34005 46.9369 8.10351L48.4094 7.15144L50.2012 8.94323L49.2491 10.4157C49.0138 10.78 48.9854 11.2318 49.1734 11.6232C49.2917 11.8692 49.3981 12.1235 49.4868 12.3802C49.6299 12.7894 49.9694 13.0874 50.3928 13.1797L52.1065 13.5475V16.0808L50.3928 16.4487C49.9682 16.5397 49.6299 16.8378 49.4868 17.247C49.3969 17.5036 49.2917 17.7579 49.1722 18.0039C48.983 18.3954 49.0114 18.846 49.2479 19.2114L50.2 20.6839L48.4082 22.4757L46.9357 21.5236C46.5703 21.2871 46.1197 21.2599 45.7282 21.4479C45.4822 21.5662 45.2279 21.6726 44.9713 21.7625C44.5621 21.9056 44.2628 22.2451 44.1718 22.6685L43.804 24.3822H41.2706L40.9028 22.6685C40.8117 22.2439 40.5125 21.9056 40.1033 21.7625C39.8478 21.6726 39.5935 21.5674 39.3475 21.4491C38.9561 21.2599 38.5055 21.2883 38.14 21.5236L36.6675 22.4757L34.8757 20.6839L35.8278 19.2114C36.0632 18.8472 36.0916 18.3954 35.9035 18.0039C35.7852 17.7579 35.6788 17.5036 35.5889 17.247C35.4458 16.8378 35.1064 16.5385 34.683 16.4487L32.9692 16.0808V13.5475H32.9716ZM42.5408 21.3699C46.1552 21.3699 49.0965 18.4285 49.0965 14.8142C49.0965 11.1986 46.1552 8.25845 42.5408 8.25845C38.9265 8.25845 35.9851 11.1998 35.9851 14.8142C35.9851 18.4297 38.9253 21.3699 42.5408 21.3699ZM41.8939 19.9092V17.5344C41.8939 17.26 41.7366 17.0104 41.4882 16.8933C40.6367 16.4889 40.0879 15.6196 40.0879 14.677C40.0879 13.978 40.3789 13.3358 40.8649 12.8828V14.677C40.8649 15.0684 41.1831 15.3866 41.5746 15.3866H43.5071C43.8986 15.3866 44.2167 15.0684 44.2167 14.677V12.8828C44.7016 13.3358 44.9938 13.978 44.9938 14.677C44.9938 15.6196 44.4438 16.4877 43.5934 16.8898C43.3451 17.0069 43.1866 17.2564 43.1866 17.5308V19.9081C42.9749 19.9353 42.7596 19.9506 42.5396 19.9506C42.3208 19.9506 42.1056 19.9353 41.8939 19.9092ZM42.5408 9.67769C45.3734 9.67769 47.6773 11.9816 47.6773 14.8142C47.6773 16.9123 46.413 18.7183 44.6058 19.5154V17.9495C45.7164 17.2482 46.4118 16.0087 46.4118 14.677C46.4118 12.9869 45.3308 11.505 43.7223 10.9893C43.5059 10.9207 43.2706 10.9586 43.0872 11.0922C42.9039 11.2258 42.7963 11.4387 42.7963 11.6658V13.9673H42.283V11.6658C42.283 11.4387 42.1742 11.2258 41.9921 11.0922C41.8087 10.9586 41.5734 10.9207 41.3569 10.9893C39.7485 11.505 38.6675 12.9869 38.6675 14.677C38.6675 16.0087 39.3641 17.2482 40.4735 17.9519V19.5166C38.6675 18.7194 37.4032 16.9135 37.4032 14.8153C37.4044 11.9828 39.7083 9.67769 42.5408 9.67769ZM14.6338 10.6511C11.0195 10.6511 8.07811 13.5924 8.07811 17.2068C8.07811 20.8211 11.0195 23.7625 14.6338 23.7625C18.2482 23.7625 21.1895 20.8211 21.1895 17.2068C21.1895 13.5924 18.2482 10.6511 14.6338 10.6511ZM13.9869 22.3018V19.9258C13.9869 19.6514 13.8296 19.4019 13.5812 19.2848C12.7297 18.8803 12.1809 18.011 12.1809 17.0684C12.1809 16.3694 12.4718 15.7272 12.9579 15.2742V17.0684C12.9579 17.4599 13.2761 17.778 13.6676 17.778H15.6001C15.9916 17.778 16.3097 17.4599 16.3097 17.0684V15.2742C16.7946 15.7272 17.0867 16.3694 17.0867 17.0684C17.0867 18.011 16.5368 18.8791 15.6864 19.2812C15.4381 19.3983 15.2796 19.6479 15.2796 19.9222V22.2995C15.0679 22.3267 14.8526 22.342 14.6326 22.342C14.415 22.3444 14.1998 22.329 13.9869 22.3018ZM16.7 21.9092V20.3421C17.8106 19.6408 18.506 18.4013 18.506 17.0696C18.506 15.3795 17.425 13.8976 15.8165 13.3819C15.6013 13.3133 15.3647 13.3512 15.1814 13.4848C14.9981 13.6184 14.8905 13.8313 14.8905 14.0584V16.3599H14.3772V14.0584C14.3772 13.8313 14.2684 13.6184 14.0862 13.4848C13.9029 13.3512 13.6676 13.3133 13.4511 13.3819C11.8426 13.8976 10.7617 15.3795 10.7617 17.0696C10.7617 18.4013 11.4583 19.6408 12.5676 20.3445V21.9092C10.7617 21.112 9.49617 19.3061 9.49617 17.2079C9.49617 14.3754 11.8001 12.0715 14.6326 12.0715C17.4652 12.0715 19.7691 14.3754 19.7691 17.2079C19.7703 19.3049 18.506 21.112 16.7 21.9092Z" fill="#DAA7EE"/>
</svg>
