<svg width="48" height="50" viewBox="0 0 48 50" fill="none" xmlns="http://www.w3.org/2000/svg">
<path d="M3.81676 35.8416C7.95912 42.1247 15.07 46.2857 23.1429 46.2857C23.6166 46.2857 24 45.9023 24 45.4286C24 44.9548 23.6166 44.5714 23.1429 44.5714C20.1362 44.5714 17.4122 41.1611 15.6722 36H24.8571C25.3309 36 25.7143 35.6166 25.7143 35.1429C25.7143 34.6691 25.3309 34.2857 24.8571 34.2857H15.1492C14.3126 31.2463 13.8029 27.7319 13.7341 24H32.5573C32.5431 24.8931 32.5139 25.7353 32.4542 26.5045C32.4174 26.9766 32.769 27.3892 33.2411 27.4261C33.7098 27.4654 34.125 27.1113 34.1618 26.6384C34.226 25.8256 34.2569 24.9395 34.2715 24H45.4286C45.9023 24 46.2857 23.6166 46.2857 23.1429C46.2857 10.382 35.9046 0 23.1429 0C20.2483 0 17.4157 0.533203 14.7221 1.58454C14.2801 1.75698 14.0625 2.25419 14.2349 2.69448C14.4074 3.13644 14.9062 3.35658 15.3449 3.18164C16.2935 2.81145 17.2654 2.53334 18.2473 2.30263C16.4422 4.09759 14.9179 6.84888 13.8296 10.2857H6.02919C7.09068 8.87884 8.3156 7.57952 9.72656 6.44531C10.0949 6.149 10.1535 5.6091 9.85714 5.23996C9.56083 4.87081 9.02176 4.81473 8.65179 5.10938C3.15402 9.53069 0 16.1032 0 23.1429C0 27.577 1.27546 31.7092 3.44678 35.2332C3.47492 35.4901 3.61283 35.7044 3.81676 35.8416ZM18.2394 44.0056C13.2853 42.8409 9.00146 39.942 6.03181 36H13.839C14.927 39.4312 16.4367 42.2122 18.2394 44.0056ZM13.3632 34.2857H4.86663C3.01768 31.2648 1.90095 27.7578 1.75153 24H12.029C12.0927 27.7485 12.5675 31.2267 13.3632 34.2857ZM13.7341 22.2857C13.8029 18.5538 14.3126 15.0394 15.1492 12H31.1365C31.9731 15.0394 32.4828 18.5538 32.5517 22.2857H13.7341ZM34.2655 22.2857C34.2024 18.5472 33.7439 15.0534 32.9526 12H41.4185C43.2683 15.0224 44.4059 18.5259 44.5547 22.2857H34.2655ZM40.2508 10.2857H32.4561C31.3676 6.84814 29.8427 4.09633 28.0371 2.30137C32.9908 3.4653 37.2809 6.34424 40.2508 10.2857ZM23.1429 1.71429C26.1496 1.71429 28.8735 5.12465 30.6136 10.2857H15.6722C17.4122 5.12465 20.1362 1.71429 23.1429 1.71429ZM13.3331 12C12.5418 15.0534 12.0833 18.5472 12.0202 22.2857H1.76221C1.90848 18.5991 2.96924 15.0743 4.84853 12H13.3331Z" fill="#DAA7EE"/>
<path d="M34.3309 30.0687C34.1434 29.8812 33.8755 29.7908 33.6194 29.8242C33.3582 29.856 33.1255 30.0076 32.9899 30.2336L25.7159 42.3549C25.5134 42.6923 25.5669 43.1242 25.8448 43.4021L30.6947 48.2511C30.8605 48.4169 31.0798 48.5023 31.3008 48.5023C31.4531 48.5023 31.6055 48.4621 31.7411 48.38L32.9905 47.6304L36.9777 49.6239C37.1015 49.685 37.2321 49.7143 37.361 49.7143C37.6741 49.7143 37.9771 49.541 38.1278 49.2405C38.3387 48.817 38.168 48.3022 37.7444 48.0904L34.733 46.5847L43.8616 41.1069C44.0893 40.9713 44.2399 40.7386 44.2717 40.4766C44.3036 40.2146 44.2148 39.9526 44.0273 39.7659L42.148 37.8864C43.2478 36.2232 43.0665 33.956 41.6032 32.4928C40.1399 31.0295 37.8729 30.8483 36.2101 31.9481L34.3309 30.0687ZM31.433 46.5661L27.5307 42.663L33.8956 32.0567L35.5423 33.7039C35.542 33.7036 35.5426 33.7042 35.5423 33.7039C35.5426 33.7042 35.5436 33.7051 35.5439 33.7054L42.0385 40.202L31.433 46.5661ZM40.3912 33.7048C41.179 34.4927 41.3249 35.6587 40.8747 36.613L37.4897 33.2278C38.4417 32.8003 39.6322 32.9458 40.3912 33.7048Z" fill="#DAA7EE"/>
<path d="M45.2377 27.6437L42.8136 30.0686C42.4788 30.4035 42.4788 30.9459 42.8136 31.2807C42.981 31.4481 43.2003 31.5318 43.4196 31.5318C43.639 31.5318 43.8583 31.4481 44.0257 31.2807L46.4498 28.8557C46.7846 28.5209 46.7846 27.9785 46.4498 27.6437C46.115 27.3089 45.5725 27.3089 45.2377 27.6437Z" fill="#DAA7EE"/>
<path d="M39.4286 28.6658V26.5715C39.4286 26.0977 39.0453 25.7144 38.5715 25.7144C38.0977 25.7144 37.7144 26.0977 37.7144 26.5715V28.6658C37.7144 29.1396 38.0977 29.5229 38.5715 29.5229C39.0453 29.5229 39.4286 29.1396 39.4286 28.6658Z" fill="#DAA7EE"/>
<path d="M44.5715 35.5227C44.5715 35.9964 44.9549 36.3798 45.4287 36.3798H47.143C47.6167 36.3798 48.0001 35.9964 48.0001 35.5227C48.0001 35.0489 47.6167 34.6655 47.143 34.6655H45.4287C44.9549 34.6655 44.5715 35.0489 44.5715 35.5227Z" fill="#DAA7EE"/>
</svg>
