<svg width="534" height="331" viewBox="0 0 534 331" fill="none" xmlns="http://www.w3.org/2000/svg">
<g clip-path="url(#clip0_1882_5366)">
<path opacity="0.2" fill-rule="evenodd" clip-rule="evenodd" d="M0.742188 7.5756C0.742188 7.5756 496.908 -10.2363 522.992 8.76437C546.241 25.7019 521.352 239.759 515.672 286.131C515.543 287.134 514.735 287.91 513.68 288.028C383.098 302.136 78.9233 295.779 14.3873 294.227C13.3214 294.197 12.443 293.49 12.2322 292.498C2.76845 247.216 0.742188 7.5756 0.742188 7.5756Z" fill="#999999"/>
<path d="M135.918 296.973C135.918 299.592 138.066 301.734 140.686 301.734H398.534C401.154 301.734 403.302 299.592 403.302 296.973L405.45 148.795C405.45 146.175 402.366 141.06 396.707 141.447L144.714 134.924C141.426 134.839 138.243 136.103 135.912 138.427C133.58 140.752 132.31 143.929 132.382 147.216L135.918 296.973Z" fill="#E527BB"/>
<path d="M140.625 292.402C140.625 294.884 142.656 296.914 145.138 296.914H392.318C394.8 296.914 396.83 294.884 396.83 292.402L398.854 157.885C398.618 149.79 391.519 146.882 387.216 147.053L145.694 140.576C143.383 140.517 141.149 141.407 139.512 143.038C137.875 144.669 136.971 146.909 137.03 149.22L140.625 292.402Z" fill="#DAA7EE"/>
<path d="M394.15 228.496C394.143 228.496 394.143 228.496 394.137 228.496C393.77 228.49 393.482 228.189 393.488 227.828L393.646 216.918C393.652 216.557 393.947 216.269 394.307 216.269C394.314 216.269 394.314 216.269 394.32 216.269C394.687 216.276 394.975 216.577 394.968 216.937L394.811 227.848C394.805 228.208 394.51 228.496 394.15 228.496Z" fill="white"/>
<path opacity="0.62" d="M394.543 201.763C394.537 201.763 394.537 201.763 394.53 201.763C394.163 201.757 393.875 201.455 393.882 201.095L394.497 159.312C394.484 156.83 393.731 154.846 392.258 153.438C389.507 150.799 385.139 150.936 384.949 150.943L307.756 148.873C307.389 148.867 307.101 148.559 307.114 148.192C307.12 147.825 307.402 147.518 307.795 147.55L384.942 149.62C385.42 149.594 390.077 149.508 393.174 152.482C394.917 154.152 395.807 156.45 395.82 159.319L395.205 201.115C395.198 201.475 394.903 201.763 394.543 201.763Z" fill="white"/>
<path d="M115.616 314.033H418.377C418.711 314.033 418.993 313.758 418.993 313.418V301.623C418.993 301.289 418.718 301.007 418.377 301.007H115.616C115.282 301.007 115 301.282 115 301.623V313.418C115 313.758 115.275 314.033 115.616 314.033Z" fill="#E527BB"/>
<path d="M336.813 40.0873L159.229 39.0002C153.394 38.9674 148.724 43.8399 149.013 49.6685L161.233 301.963H358.844L369.82 76.5523L336.813 40.0873Z" fill="#91B3FA"/>
<path d="M344.262 75.4718C338.48 75.2688 334.033 70.285 334.485 64.5153L336.39 40.4214L369.922 76.4018L344.262 75.4718Z" fill="#7D97F4"/>
<path d="M268.565 170.557H183.231C182.662 170.557 182.203 170.099 182.203 169.529V158.232C182.203 157.662 182.662 157.204 183.231 157.204H268.565C269.135 157.204 269.593 157.662 269.593 158.232V169.529C269.6 170.092 269.135 170.557 268.565 170.557Z" fill="url(#paint0_linear_1882_5366)"/>
<path d="M330.636 171.009H306.012C304.067 171.009 302.488 169.431 302.488 167.486V161.172C302.488 159.227 304.067 157.649 306.012 157.649H330.636C332.581 157.649 334.159 159.227 334.159 161.172V167.486C334.159 169.431 332.581 171.009 330.636 171.009Z" fill="#BDD0FB"/>
<path d="M330.167 197.873H305.543C303.598 197.873 302.02 196.295 302.02 194.35V188.037C302.02 186.092 303.598 184.513 305.543 184.513H330.167C332.112 184.513 333.691 186.092 333.691 188.037V194.35C333.691 196.301 332.112 197.873 330.167 197.873Z" fill="#BDD0FB"/>
<path d="M330.054 223.336H305.43C303.485 223.336 301.906 221.758 301.906 219.812V213.499C301.906 211.554 303.485 209.976 305.43 209.976H330.054C331.999 209.976 333.577 211.554 333.577 213.499V219.812C333.584 221.758 332.006 223.336 330.054 223.336Z" fill="#BDD0FB"/>
<path d="M329.589 250.206H304.965C303.02 250.206 301.441 248.628 301.441 246.683V240.37C301.441 238.425 303.02 236.846 304.965 236.846H329.589C331.534 236.846 333.112 238.425 333.112 240.37V246.683C333.112 248.628 331.541 250.206 329.589 250.206Z" fill="#BDD0FB"/>
<path d="M257.999 198.319H184.27C183.746 198.319 183.32 197.893 183.32 197.369V185.915C183.32 185.391 183.746 184.965 184.27 184.965H257.999C258.523 184.965 258.949 185.391 258.949 185.915V197.369C258.955 197.893 258.529 198.319 257.999 198.319Z" fill="url(#paint1_linear_1882_5366)"/>
<path d="M273.204 224.063H184.897C184.432 224.063 184.059 223.689 184.059 223.224V211.548C184.059 211.083 184.432 210.709 184.897 210.709H273.204C273.669 210.709 274.042 211.083 274.042 211.548V223.224C274.042 223.689 273.669 224.063 273.204 224.063Z" fill="url(#paint2_linear_1882_5366)"/>
<path d="M284.052 249.787H187.015C186.609 249.787 186.281 249.46 186.281 249.054V237.161C186.281 236.755 186.609 236.427 187.015 236.427H284.052C284.458 236.427 284.785 236.755 284.785 237.161V249.054C284.785 249.453 284.458 249.787 284.052 249.787Z" fill="url(#paint3_linear_1882_5366)"/>
<path d="M329.67 120.11H188.434C187.563 120.11 186.855 119.403 186.855 118.532V104.982C186.855 104.111 187.563 103.403 188.434 103.403H329.664C330.535 103.403 331.242 104.111 331.242 104.982V118.532C331.248 119.409 330.541 120.11 329.67 120.11Z" fill="url(#paint4_linear_1882_5366)"/>
<path d="M174.936 151.938H342.971L343.305 142.973C343.469 138.5 339.749 134.904 335.099 134.904H182.644C177.942 134.904 174.202 138.585 174.445 143.104L174.936 151.938Z" fill="#BDD0FB"/>
<path d="M330.809 267.732H188.964C184.104 267.732 180.096 264.058 179.841 259.368L173.521 143.241C173.39 140.857 174.235 138.578 175.905 136.823C177.634 135.002 180.09 133.955 182.644 133.955H335.099C337.627 133.955 340.063 134.976 341.785 136.764C343.449 138.487 344.313 140.739 344.228 143.09L339.938 259.218C339.762 263.992 335.754 267.732 330.809 267.732ZM182.644 135.808C180.594 135.808 178.629 136.64 177.247 138.1C175.938 139.489 175.27 141.276 175.368 143.149L181.688 259.277C181.891 262.984 185.087 265.885 188.957 265.885H330.803C334.745 265.885 337.941 262.931 338.078 259.159L342.368 143.032C342.434 141.185 341.752 139.416 340.443 138.054C339.067 136.627 337.116 135.808 335.092 135.808H182.644Z" fill="#BDD0FB"/>
<path d="M235.171 86.5987H178.083C175.529 86.5987 173.453 84.5292 173.453 81.9686V64.6267C173.453 62.0726 175.523 59.9966 178.083 59.9966H235.171C237.725 59.9966 239.801 62.0661 239.801 64.6267V81.9751C239.795 84.5292 237.725 86.5987 235.171 86.5987Z" fill="#BDD0FB"/>
<path d="M191.516 113.273C206.79 113.273 219.172 100.891 219.172 85.6163C219.172 70.342 206.79 57.9597 191.516 57.9597C176.242 57.9597 163.859 70.342 163.859 85.6163C163.859 100.891 176.242 113.273 191.516 113.273Z" fill="#E527BB"/>
<path d="M191.514 112.349C206.279 112.349 218.248 100.38 218.248 85.6162C218.248 70.8519 206.279 58.8831 191.514 58.8831C176.75 58.8831 164.781 70.8519 164.781 85.6162C164.781 100.38 176.75 112.349 191.514 112.349Z" fill="#E527BB"/>
<path opacity="0.62" d="M169.465 74.8821C169.406 74.8821 169.354 74.869 169.301 74.8428C169.118 74.7511 169.046 74.5284 169.137 74.3451C173.427 65.8444 182 60.5659 191.515 60.5659C193.035 60.5659 194.554 60.7034 196.034 60.972C196.237 61.0113 196.368 61.2012 196.329 61.4042C196.29 61.6072 196.1 61.7382 195.897 61.6989C194.462 61.4369 192.982 61.306 191.509 61.306C182.275 61.306 173.957 66.4273 169.792 74.6725C169.733 74.8035 169.602 74.8821 169.465 74.8821Z" fill="white"/>
<path opacity="0.78" d="M192.096 108.826C204.592 108.826 214.723 98.6954 214.723 86.1989C214.723 73.7024 204.592 63.572 192.096 63.572C179.599 63.572 169.469 73.7024 169.469 86.1989C169.469 98.6954 179.599 108.826 192.096 108.826Z" fill="white"/>
<path d="M189.875 103.017V100.561C187.307 100.456 184.773 99.8536 182.965 99.0612C182.324 98.7796 181.996 98.0592 182.179 97.3781L182.808 95.0859C183.037 94.2477 183.954 93.8089 184.753 94.1494C186.541 94.896 188.748 95.492 191.132 95.492C193.601 95.492 195.448 94.6537 195.448 92.9379C195.448 91.3857 194.027 90.4689 190.588 89.5455C185.69 88.2029 182.166 86.0679 182.166 81.7521C182.166 77.8554 185.015 74.8822 189.96 74.0832V71.6208C189.96 70.8283 190.602 70.1865 191.394 70.1865H192.841C193.634 70.1865 194.276 70.8283 194.276 71.6208V73.8343C196.653 73.9326 198.382 74.3386 199.751 74.8167C200.451 75.0656 200.838 75.8187 200.641 76.5391L200.065 78.661C199.842 79.4796 198.971 79.9249 198.179 79.6302C196.915 79.1521 195.127 78.6544 192.809 78.6544C189.875 78.6544 189.036 79.8725 189.036 80.9597C189.036 82.3022 190.798 83.2191 194.61 84.3979C200.058 86.0286 202.318 88.2946 202.318 92.355C202.318 96.0814 199.554 99.4345 194.19 100.273V103.03C194.19 103.822 193.549 104.464 192.756 104.464H191.309C190.516 104.451 189.875 103.809 189.875 103.017Z" fill="#E527BB"/>
<path d="M209.587 208.45C219.671 208.45 227.846 200.275 227.846 190.191C227.846 180.107 219.671 171.932 209.587 171.932C199.503 171.932 191.328 180.107 191.328 190.191C191.328 200.275 199.503 208.45 209.587 208.45Z" fill="#E527BB"/>
<path d="M209.59 207.847C219.341 207.847 227.246 199.942 227.246 190.191C227.246 180.44 219.341 172.535 209.59 172.535C199.839 172.535 191.934 180.44 191.934 190.191C191.934 199.942 199.839 207.847 209.59 207.847Z" fill="#E527BB"/>
<path opacity="0.62" d="M195.027 183.229C194.968 183.229 194.916 183.216 194.864 183.19C194.68 183.098 194.608 182.876 194.7 182.692C197.555 177.041 203.259 173.524 209.586 173.524C210.594 173.524 211.609 173.615 212.592 173.792C212.795 173.831 212.926 174.021 212.887 174.224C212.847 174.427 212.657 174.558 212.454 174.526C211.511 174.355 210.549 174.27 209.579 174.27C203.528 174.27 198.079 177.63 195.355 183.033C195.289 183.151 195.165 183.229 195.027 183.229Z" fill="white"/>
<path opacity="0.78" d="M224.759 192.657C225.903 184.484 220.205 176.929 212.032 175.785C203.858 174.64 196.304 180.338 195.159 188.512C194.014 196.685 199.712 204.24 207.886 205.384C216.06 206.529 223.614 200.831 224.759 192.657Z" fill="white"/>
<path d="M208.505 201.685V200.06C206.809 199.995 205.132 199.595 203.947 199.071C203.521 198.888 203.305 198.41 203.429 197.958L203.842 196.445C203.993 195.889 204.595 195.6 205.126 195.823C206.304 196.321 207.765 196.707 209.337 196.707C210.967 196.707 212.186 196.151 212.186 195.018C212.186 193.996 211.242 193.387 208.977 192.778C205.741 191.894 203.416 190.479 203.416 187.63C203.416 185.057 205.296 183.092 208.564 182.568V180.944C208.564 180.42 208.99 179.994 209.514 179.994H210.47C210.994 179.994 211.419 180.42 211.419 180.944V182.404C212.985 182.47 214.131 182.738 215.034 183.053C215.499 183.216 215.755 183.714 215.624 184.192L215.244 185.594C215.1 186.131 214.524 186.432 214 186.229C213.168 185.914 211.989 185.587 210.457 185.587C208.518 185.587 207.968 186.393 207.968 187.106C207.968 187.991 209.127 188.6 211.649 189.372C215.244 190.453 216.737 191.946 216.737 194.631C216.737 197.094 214.91 199.307 211.367 199.857V201.678C211.367 202.202 210.941 202.628 210.417 202.628H209.461C208.924 202.628 208.505 202.208 208.505 201.685Z" fill="#E527BB"/>
<path d="M236.511 234.194C243.111 234.194 248.463 228.843 248.463 222.242C248.463 215.641 243.111 210.29 236.511 210.29C229.91 210.29 224.559 215.641 224.559 222.242C224.559 228.843 229.91 234.194 236.511 234.194Z" fill="#E527BB"/>
<path d="M236.513 233.795C242.894 233.795 248.066 228.622 248.066 222.242C248.066 215.862 242.894 210.69 236.513 210.69C230.133 210.69 224.961 215.862 224.961 222.242C224.961 228.622 230.133 233.795 236.513 233.795Z" fill="#E527BB"/>
<path opacity="0.62" d="M226.984 217.815C226.925 217.815 226.873 217.802 226.821 217.775C226.637 217.684 226.565 217.461 226.657 217.278C228.543 213.532 232.322 211.207 236.513 211.207C237.181 211.207 237.849 211.266 238.504 211.384C238.707 211.423 238.838 211.613 238.799 211.816C238.76 212.019 238.57 212.15 238.367 212.117C237.758 212.006 237.135 211.947 236.507 211.947C232.597 211.947 229.074 214.115 227.312 217.612C227.246 217.743 227.115 217.815 226.984 217.815Z" fill="white"/>
<path opacity="0.78" d="M236.77 232.275C242.17 232.275 246.548 227.897 246.548 222.497C246.548 217.097 242.17 212.72 236.77 212.72C231.37 212.72 226.992 217.097 226.992 222.497C226.992 227.897 231.37 232.275 236.77 232.275Z" fill="white"/>
<path d="M235.797 229.767V228.706C234.691 228.66 233.59 228.398 232.811 228.058C232.536 227.933 232.392 227.625 232.471 227.331L232.739 226.342C232.837 225.975 233.237 225.792 233.584 225.936C234.357 226.257 235.313 226.519 236.341 226.519C237.409 226.519 238.208 226.158 238.208 225.412C238.208 224.744 237.592 224.344 236.105 223.945C233.99 223.369 232.464 222.445 232.464 220.579C232.464 218.896 233.695 217.612 235.83 217.265V216.204C235.83 215.863 236.105 215.582 236.452 215.582H237.075C237.415 215.582 237.697 215.857 237.697 216.204V217.16C238.725 217.199 239.471 217.376 240.061 217.586C240.362 217.691 240.532 218.018 240.447 218.332L240.198 219.249C240.1 219.603 239.727 219.799 239.38 219.668C238.836 219.459 238.063 219.249 237.061 219.249C235.791 219.249 235.431 219.773 235.431 220.245C235.431 220.821 236.19 221.22 237.841 221.731C240.192 222.439 241.174 223.414 241.174 225.17C241.174 226.781 239.982 228.228 237.664 228.588V229.78C237.664 230.121 237.389 230.402 237.042 230.402H236.42C236.079 230.383 235.797 230.108 235.797 229.767Z" fill="#E527BB"/>
<path d="M189.671 165.698C201.74 165.698 211.525 155.913 211.525 143.844C211.525 131.774 201.74 121.99 189.671 121.99C177.601 121.99 167.816 131.774 167.816 143.844C167.816 155.913 177.601 165.698 189.671 165.698Z" fill="#E527BB"/>
<path d="M210.74 145.338C211.568 133.699 202.803 123.593 191.164 122.766C179.525 121.939 169.419 130.703 168.592 142.342C167.764 153.981 176.529 164.087 188.168 164.915C199.807 165.742 209.913 156.977 210.74 145.338Z" fill="#E527BB"/>
<path opacity="0.62" d="M172.238 135.435C172.179 135.435 172.127 135.422 172.075 135.395C171.891 135.304 171.819 135.081 171.911 134.898C175.316 128.152 182.114 123.967 189.665 123.967C190.87 123.967 192.075 124.079 193.248 124.288C193.451 124.327 193.582 124.517 193.542 124.72C193.503 124.923 193.313 125.054 193.11 125.022C191.977 124.819 190.818 124.714 189.659 124.714C182.389 124.714 175.84 128.748 172.566 135.238C172.507 135.363 172.376 135.435 172.238 135.435Z" fill="white"/>
<path opacity="0.78" d="M190.124 162.188C200.002 162.188 208.009 154.18 208.009 144.302C208.009 134.424 200.002 126.417 190.124 126.417C180.246 126.417 172.238 134.424 172.238 144.302C172.238 154.18 180.246 162.188 190.124 162.188Z" fill="white"/>
<path d="M188.37 157.596V155.651C186.34 155.573 184.336 155.095 182.908 154.466C182.397 154.243 182.142 153.674 182.286 153.137L182.777 151.322C182.961 150.654 183.681 150.314 184.316 150.582C185.731 151.172 187.473 151.643 189.359 151.643C191.311 151.643 192.771 150.982 192.771 149.626C192.771 148.402 191.645 147.675 188.933 146.941C185.056 145.88 182.279 144.191 182.279 140.785C182.279 137.707 184.532 135.356 188.435 134.727V132.782C188.435 132.153 188.946 131.649 189.568 131.649H190.715C191.343 131.649 191.848 132.16 191.848 132.782V134.531C193.727 134.603 195.089 134.924 196.176 135.31C196.733 135.507 197.034 136.103 196.884 136.672L196.432 138.349C196.255 138.997 195.567 139.351 194.939 139.115C193.943 138.735 192.529 138.342 190.695 138.342C188.377 138.342 187.715 139.305 187.715 140.163C187.715 141.224 189.103 141.951 192.116 142.881C196.419 144.171 198.207 145.959 198.207 149.174C198.207 152.121 196.019 154.767 191.782 155.435V157.61C191.782 158.238 191.271 158.743 190.649 158.743H189.503C188.874 158.729 188.37 158.225 188.37 157.596Z" fill="#E527BB"/>
<path d="M264.878 291.269C266.542 291.498 276.241 296.534 275.868 290.155C275.835 289.553 275.455 283.03 275.455 283.03C275.455 283.03 264.4 291.203 264.878 291.269Z" fill="url(#paint5_linear_1882_5366)"/>
<path d="M233.769 323.784C233.769 323.784 231.483 322.101 228.602 322.534C226.604 323.005 224.338 324.931 222.891 326.339C222.635 326.587 222.57 326.961 222.721 327.275C222.871 327.589 223.205 327.779 223.565 327.753C227.344 327.452 234.745 326.797 234.712 326.24C234.666 325.494 233.769 323.784 233.769 323.784Z" fill="#A78BEF"/>
<path d="M235.084 320.51L233.539 323.896C233.539 323.896 229.629 324.446 229.668 322.894C229.708 321.342 230.565 319.417 230.565 319.417L235.084 320.51Z" fill="url(#paint6_linear_1882_5366)"/>
<path d="M279.592 320.17C276.003 305.461 275.918 296.371 275.918 296.371C275.918 296.371 242.158 278.308 239.348 283.253C236.532 288.197 229.57 321.218 229.57 321.218L235.569 322.482C235.569 322.482 245.969 306.541 246.238 293.43C249.695 302.782 253.723 325.37 276.121 324.728C277.234 324.695 278.269 324.165 278.943 323.281C279.611 322.396 279.854 321.25 279.592 320.17Z" fill="#231F20"/>
<path d="M214.335 323.588L210.929 327.21L207.93 324.544L211.414 320.012L214.335 323.588Z" fill="url(#paint7_linear_1882_5366)"/>
<path d="M289.362 244.941L293.016 255.858C293.187 256.356 293.042 256.919 292.669 257.24C291.281 258.419 287.62 260.822 282.302 259.002C281.693 258.792 281.254 258.203 281.156 257.509L279.879 247.888L289.362 244.941Z" fill="url(#paint8_linear_1882_5366)"/>
<path d="M271.227 237.017C271.227 237.017 272.425 247.475 276.341 250.789C280.258 254.103 288.123 251.902 290.965 244.116L286.08 230.54L271.227 237.017Z" fill="url(#paint9_linear_1882_5366)"/>
<path d="M285.453 240.016C285.145 240.108 284.831 239.905 284.792 239.584C284.674 238.621 284.366 236.702 283.672 235.386C283.672 235.386 284.091 234.03 280.201 235.988C276.311 237.947 270.462 240.828 267.116 238.929C263.854 237.076 260.744 228.123 269.441 230.003C269.775 230.075 270.083 229.819 270.069 229.479C270.004 228.018 270.24 224.672 273.658 223.689C276.861 222.766 278.564 224.253 279.258 225.137C279.461 225.399 279.854 225.405 280.063 225.143C281.046 223.925 283.705 221.351 287.464 223.133C290.561 224.6 290.994 226.538 290.908 227.743C290.882 228.13 291.269 228.405 291.629 228.254C292.598 227.835 294.15 227.652 295.578 229.544C297.549 232.164 294.569 234.305 293.679 234.862C293.535 234.954 293.436 235.111 293.436 235.281C293.391 236.611 293.273 242.544 290.273 245.74C290.011 246.015 289.304 245.792 289.166 245.439L287.071 240.036C286.972 239.787 286.697 239.649 286.442 239.728L285.453 240.016Z" fill="#231F20"/>
<path d="M285.051 240.795C285.051 240.795 286.57 235.255 288.6 237.121C290.631 238.988 287.9 242.904 285.496 243.598L285.051 240.795Z" fill="url(#paint10_linear_1882_5366)"/>
<path d="M212.589 325.448C211.711 325.507 207.906 324.093 207.906 324.093L204.507 325.212C201.468 324.924 198.94 326.097 197.264 327.243C196.897 327.491 196.74 327.956 196.877 328.376C197.015 328.795 197.421 329.076 197.866 329.057C201.278 328.913 206.884 328.644 209.707 328.31C213.938 327.819 214.586 327.904 212.589 325.448Z" fill="#A78BEF"/>
<path d="M240.284 287.051L231.371 262.584C231.004 261.588 230.061 260.92 229 260.907L218.875 260.803C217.847 260.79 217.14 261.837 217.539 262.787L227.264 286.082C227.579 286.835 228.299 287.333 229.111 287.365L239.105 287.889L240.284 287.051Z" fill="#E527BB"/>
<path d="M239.102 287.896C239.115 287.896 239.135 287.896 239.148 287.889L260.242 285.591C260.766 285.532 261.139 285.067 261.08 284.543C261.021 284.019 260.55 283.639 260.033 283.705L238.938 286.003C238.414 286.062 238.041 286.527 238.1 287.051C238.159 287.555 238.598 287.922 239.102 287.896Z" fill="#E527BB"/>
<path d="M270.388 283.069C270.388 283.069 266.55 288.656 254.278 282.441C254.278 282.441 250.741 279.546 247.309 280.096C243.878 280.646 241.645 285.486 241.645 285.486L248.298 284.962C248.298 284.962 258.2 295.65 277.546 294.53C277.848 290.188 273.211 286.796 270.388 283.069Z" fill="url(#paint11_linear_1882_5366)"/>
<path d="M285.242 254.994C282.747 255.694 280.101 258.53 278.248 260.894C276.761 262.794 275.733 264.961 275.196 267.306C273.978 272.598 271.247 282.965 269.105 284.071C274.495 290.85 275.465 293.116 275.465 293.116C275.019 301.603 273.159 303.411 273.159 303.411C273.159 303.411 283.441 312.501 295.38 314.564C305.649 306.043 305.976 283.364 305.976 283.364C305.263 256.513 292.643 252.911 285.242 254.994Z" fill="#A78BEF"/>
<path d="M275.399 293.404C275.333 293.41 275.261 293.384 275.209 293.332C275.117 293.234 275.117 293.083 275.215 292.991C275.307 292.9 284.482 283.901 286.46 272.919C286.486 272.788 286.61 272.702 286.741 272.722C286.872 272.748 286.964 272.873 286.938 273.004C284.94 284.144 275.647 293.253 275.556 293.338C275.51 293.378 275.457 293.397 275.399 293.404Z" fill="url(#paint12_linear_1882_5366)"/>
<path d="M295.387 314.557C295.387 314.557 291.393 329.194 267.096 322.527C255.314 319.299 237.821 297.615 237.821 297.615C237.821 297.615 234.468 308.787 214.461 324.675L209.582 320.779C209.582 320.779 228.581 283.161 239.616 286.311C250.658 289.468 298.151 305.054 295.387 314.557Z" fill="#231F20"/>
<path d="M219.992 262.544L229.436 284.733L238.054 284.006L229.914 262.662L219.992 262.544Z" fill="#BDD0FB"/>
<path d="M416.793 203.27C417.389 224.547 419.321 297.936 418.398 323.942C418.3 326.699 415.804 328.906 412.694 328.998C397.303 329.443 340.877 330.576 315.703 329.64C310.457 329.443 306.292 325.684 306.18 321.041C305.656 298.709 304.504 235.897 307.248 207.127C307.575 203.682 310.634 200.932 314.524 200.591C331.283 199.104 387.951 195.476 409.701 196.727C413.624 196.943 416.695 199.785 416.793 203.27Z" fill="#E527BB"/>
<path d="M412.371 212.648V230.677C412.371 234.135 409.568 236.938 406.11 236.938H319.964C316.506 236.938 313.703 234.135 313.703 230.677V212.648C313.703 209.19 316.506 206.387 319.964 206.387H406.11C409.568 206.387 412.371 209.19 412.371 212.648Z" fill="#DAA7EE"/>
<path d="M318.288 211.764C319.061 210.991 320.116 210.559 321.209 210.559L401.828 210.709C403.982 210.716 405.77 212.373 405.934 214.527L407.29 232.439C407.401 233.906 404.971 235.098 401.9 235.078L322.65 234.633C319.585 234.613 317.07 233.402 317.07 231.935L317.077 214.684C317.077 213.584 317.509 212.536 318.288 211.764Z" fill="white"/>
<path d="M390.836 255.217C390.836 258.399 393.416 260.973 396.593 260.973H403.607C406.789 260.973 409.363 258.393 409.363 255.217C409.363 252.034 406.783 249.46 403.607 249.46H396.593C393.41 249.46 390.836 252.04 390.836 255.217Z" fill="white"/>
<path d="M364.793 255.217C364.793 258.399 367.373 260.973 370.55 260.973H377.564C380.746 260.973 383.32 258.393 383.32 255.217C383.32 252.034 380.74 249.46 377.564 249.46H370.55C367.373 249.46 364.793 252.04 364.793 255.217Z" fill="white"/>
<path d="M339.746 255.217C339.746 258.399 342.326 260.973 345.503 260.973H352.517C355.7 260.973 358.273 258.393 358.273 255.217C358.273 252.034 355.693 249.46 352.517 249.46H345.503C342.326 249.46 339.746 252.04 339.746 255.217Z" fill="white"/>
<path d="M314.363 256.061C314.363 259.296 316.983 261.916 320.218 261.916H326.996C330.232 261.916 332.851 259.296 332.851 256.061C332.851 252.826 330.232 250.206 326.996 250.206H320.218C316.983 250.213 314.363 252.832 314.363 256.061Z" fill="#DAA7EE"/>
<path d="M390.836 273.252C390.836 276.435 393.416 279.009 396.593 279.009H403.607C406.789 279.009 409.363 276.429 409.363 273.252C409.363 270.07 406.783 267.496 403.607 267.496H396.593C393.41 267.489 390.836 270.07 390.836 273.252Z" fill="white"/>
<path d="M364.793 273.252C364.793 276.435 367.373 279.009 370.55 279.009H377.564C380.746 279.009 383.32 276.429 383.32 273.252C383.32 270.07 380.74 267.496 377.564 267.496H370.55C367.373 267.489 364.793 270.07 364.793 273.252Z" fill="white"/>
<path d="M339.746 273.252C339.746 276.435 342.326 279.009 345.503 279.009H352.517C355.7 279.009 358.273 276.429 358.273 273.252C358.273 270.07 355.693 267.496 352.517 267.496H345.503C342.326 267.489 339.746 270.07 339.746 273.252Z" fill="white"/>
<path d="M313.703 273.252C313.703 276.435 316.283 279.009 319.46 279.009H326.474C329.657 279.009 332.23 276.429 332.23 273.252C332.23 270.07 329.65 267.496 326.474 267.496H319.46C316.283 267.489 313.703 270.07 313.703 273.252Z" fill="white"/>
<path d="M390.836 289.219C390.836 292.402 393.416 294.975 396.593 294.975H403.607C406.789 294.975 409.363 292.395 409.363 289.219C409.363 286.036 406.783 283.462 403.607 283.462H396.593C393.41 283.456 390.836 286.036 390.836 289.219Z" fill="white"/>
<path d="M364.793 289.219C364.793 292.402 367.373 294.975 370.55 294.975H377.564C380.746 294.975 383.32 292.395 383.32 289.219C383.32 286.036 380.74 283.462 377.564 283.462H370.55C367.373 283.456 364.793 286.036 364.793 289.219Z" fill="white"/>
<path d="M339.746 289.219C339.746 292.402 342.326 294.975 345.503 294.975H352.517C355.7 294.975 358.273 292.395 358.273 289.219C358.273 286.036 355.693 283.462 352.517 283.462H345.503C342.326 283.456 339.746 286.036 339.746 289.219Z" fill="white"/>
<path d="M390.836 306.744C390.836 309.927 393.416 312.501 396.593 312.501H403.607C406.789 312.501 409.363 309.92 409.363 306.744C409.363 303.561 406.783 300.988 403.607 300.988H396.593C393.41 300.988 390.836 303.568 390.836 306.744Z" fill="white"/>
<path d="M364.793 306.744C364.793 309.927 367.373 312.501 370.55 312.501H377.564C380.746 312.501 383.32 309.92 383.32 306.744C383.32 303.561 380.74 300.988 377.564 300.988H370.55C367.373 300.988 364.793 303.568 364.793 306.744Z" fill="white"/>
<path d="M339.746 306.744C339.746 309.927 342.326 312.501 345.503 312.501H352.517C355.7 312.501 358.273 309.92 358.273 306.744C358.273 303.561 355.693 300.988 352.517 300.988H345.503C342.326 300.988 339.746 303.568 339.746 306.744Z" fill="white"/>
<path d="M316.211 306.279C316.211 310.307 319.472 313.568 323.5 313.568H323.945C327.973 313.568 331.234 310.307 331.234 306.279V292.31C331.234 288.282 327.973 285.021 323.945 285.021H323.5C319.472 285.021 316.211 288.282 316.211 292.31V306.279Z" fill="#DAA7EE"/>
</g>
<defs>
<linearGradient id="paint0_linear_1882_5366" x1="182.202" y1="163.876" x2="269.597" y2="163.876" gradientUnits="userSpaceOnUse">
<stop stop-color="#DAE3FE"/>
<stop offset="1" stop-color="#E9EFFD"/>
</linearGradient>
<linearGradient id="paint1_linear_1882_5366" x1="183.317" y1="191.637" x2="258.953" y2="191.637" gradientUnits="userSpaceOnUse">
<stop stop-color="#DAE3FE"/>
<stop offset="1" stop-color="#E9EFFD"/>
</linearGradient>
<linearGradient id="paint2_linear_1882_5366" x1="184.056" y1="217.385" x2="274.043" y2="217.385" gradientUnits="userSpaceOnUse">
<stop stop-color="#DAE3FE"/>
<stop offset="1" stop-color="#E9EFFD"/>
</linearGradient>
<linearGradient id="paint3_linear_1882_5366" x1="186.281" y1="243.105" x2="284.784" y2="243.105" gradientUnits="userSpaceOnUse">
<stop stop-color="#DAE3FE"/>
<stop offset="1" stop-color="#E9EFFD"/>
</linearGradient>
<linearGradient id="paint4_linear_1882_5366" x1="186.859" y1="111.76" x2="331.247" y2="111.76" gradientUnits="userSpaceOnUse">
<stop stop-color="#DAE3FE"/>
<stop offset="1" stop-color="#E9EFFD"/>
</linearGradient>
<linearGradient id="paint5_linear_1882_5366" x1="273.746" y1="285.541" x2="266.879" y2="297.436" gradientUnits="userSpaceOnUse">
<stop stop-color="#FDF53F"/>
<stop offset="0.6645" stop-color="#E57A58"/>
<stop offset="1" stop-color="#D93C65"/>
</linearGradient>
<linearGradient id="paint6_linear_1882_5366" x1="234.22" y1="318.579" x2="229.465" y2="325.325" gradientUnits="userSpaceOnUse">
<stop stop-color="#FF928E"/>
<stop offset="1" stop-color="#FEB3B1"/>
</linearGradient>
<linearGradient id="paint7_linear_1882_5366" x1="209.399" y1="319.099" x2="213.278" y2="330.219" gradientUnits="userSpaceOnUse">
<stop stop-color="#FF928E"/>
<stop offset="1" stop-color="#FEB3B1"/>
</linearGradient>
<linearGradient id="paint8_linear_1882_5366" x1="285.043" y1="243.035" x2="290.227" y2="277.47" gradientUnits="userSpaceOnUse">
<stop stop-color="#FF928E"/>
<stop offset="1" stop-color="#FEB3B1"/>
</linearGradient>
<linearGradient id="paint9_linear_1882_5366" x1="190.424" y1="-201.218" x2="197.949" y2="-164.529" gradientUnits="userSpaceOnUse">
<stop stop-color="#FF928E"/>
<stop offset="1" stop-color="#FEB3B1"/>
</linearGradient>
<linearGradient id="paint10_linear_1882_5366" x1="196.445" y1="-202.453" x2="203.97" y2="-165.763" gradientUnits="userSpaceOnUse">
<stop stop-color="#FF928E"/>
<stop offset="1" stop-color="#FEB3B1"/>
</linearGradient>
<linearGradient id="paint11_linear_1882_5366" x1="260.546" y1="291.599" x2="236.106" y2="229.792" gradientUnits="userSpaceOnUse">
<stop stop-color="#FF928E"/>
<stop offset="1" stop-color="#FEB3B1"/>
</linearGradient>
<linearGradient id="paint12_linear_1882_5366" x1="275.142" y1="283.058" x2="286.939" y2="283.058" gradientUnits="userSpaceOnUse">
<stop stop-color="#E1473D"/>
<stop offset="1" stop-color="#E9605A"/>
</linearGradient>
<clipPath id="clip0_1882_5366">
<rect width="532.49" height="330.06" fill="white" transform="translate(0.742188)"/>
</clipPath>
</defs>
</svg>
