<svg width="533" height="331" viewBox="0 0 533 331" fill="none" xmlns="http://www.w3.org/2000/svg">
<path opacity="0.2" fill-rule="evenodd" clip-rule="evenodd" d="M0 7.5756C0 7.5756 496.166 -10.2363 522.25 8.76437C545.499 25.7019 520.61 239.759 514.929 286.131C514.801 287.134 513.992 287.91 512.938 288.028C382.355 302.136 78.1811 295.779 13.6451 294.227C12.5792 294.197 11.7008 293.49 11.49 292.498C2.02627 247.216 0 7.5756 0 7.5756Z" fill="#999999"/>
<g clip-path="url(#clip0_1761_4098)">
<path d="M95.4752 244.081C95.2684 244.081 95.0981 243.91 95.0859 243.703C95.0859 243.497 95.2562 243.314 95.463 243.314L156.479 242.949C156.673 242.937 156.868 243.12 156.868 243.326C156.868 243.533 156.698 243.716 156.491 243.716L95.4752 244.081Z" fill="#FF9E80"/>
<path d="M187.968 195.12H166.438V237.402H187.968V195.12Z" fill="#E527BB"/>
<path d="M209.454 252.072H143.463C141.139 252.072 139.254 250.187 139.254 247.863V238.813C139.254 236.49 141.139 234.604 143.463 234.604H209.454C211.777 234.604 213.662 236.49 213.662 238.813V247.863C213.662 250.187 211.777 252.072 209.454 252.072Z" fill="#E527BB"/>
<path d="M272.951 211.894H81.4499C77.4965 211.894 74.2852 208.683 74.2852 204.729V86.1647C74.2852 82.2114 77.4965 79 81.4499 79H272.951C276.904 79 280.116 82.2114 280.116 86.1647V204.729C280.128 208.695 276.917 211.894 272.951 211.894Z" fill="#E527BB"/>
<path d="M263.46 192.93H90.9349C87.6141 192.93 84.9258 190.242 84.9258 186.921V94.7406C84.9258 91.4197 87.6141 88.7314 90.9349 88.7314H263.46C266.781 88.7314 269.469 91.4197 269.469 94.7406V186.921C269.481 190.242 266.781 192.93 263.46 192.93Z" fill="#BDD0FB"/>
<path d="M245.433 112.67H108.963C106.335 112.67 104.219 110.542 104.219 107.926C104.219 105.299 106.347 103.182 108.963 103.182H245.445C248.073 103.182 250.189 105.311 250.189 107.926C250.189 110.542 248.061 112.67 245.433 112.67Z" fill="#A78BEF"/>
<path d="M245.433 128.667H108.963C106.335 128.667 104.219 126.538 104.219 123.923C104.219 121.307 106.347 119.178 108.963 119.178H245.445C248.073 119.178 250.189 121.307 250.189 123.923C250.189 126.538 248.061 128.667 245.433 128.667Z" fill="#A78BEF"/>
<path d="M245.433 144.662H108.963C106.335 144.662 104.219 142.534 104.219 139.918C104.219 137.303 106.347 135.174 108.963 135.174H245.445C248.073 135.174 250.189 137.303 250.189 139.918C250.189 142.534 248.061 144.662 245.433 144.662Z" fill="#A78BEF"/>
<path d="M177.193 205.386C179.404 205.386 181.195 203.594 181.195 201.384C181.195 199.174 179.404 197.382 177.193 197.382C174.983 197.382 173.191 199.174 173.191 201.384C173.191 203.594 174.983 205.386 177.193 205.386Z" fill="#A78BEF"/>
<path d="M428.882 242.025H221.641V121.976C221.641 116.867 225.776 112.731 230.885 112.731H419.625C424.734 112.731 428.87 116.867 428.87 121.976V242.025H428.882Z" fill="#E527BB"/>
<path d="M414.639 230.201H235.849C232.467 230.201 229.73 227.464 229.73 224.082V132.109C229.73 128.727 232.467 125.99 235.849 125.99H414.626C418.008 125.99 420.745 128.727 420.745 132.109V224.082C420.745 227.464 418.008 230.201 414.639 230.201Z" fill="#FFEEEB"/>
<path d="M442.712 252.145H211.774C208.587 252.145 205.996 249.554 205.996 246.367V246.1C205.996 242.913 208.587 240.322 211.774 240.322H442.724C445.911 240.322 448.502 242.913 448.502 246.1V246.367C448.502 249.554 445.911 252.145 442.712 252.145Z" fill="#A78BEF"/>
<path d="M107.042 252.012H67.5084C65.1485 252.012 63.2266 250.102 63.2266 247.73V247.316C63.2266 235.59 72.7268 226.09 84.4531 226.09H90.073C101.799 226.09 111.3 235.59 111.3 247.316V247.73C111.324 250.102 109.402 252.012 107.042 252.012Z" fill="#E527BB"/>
<path d="M87.276 240.626C87.0692 240.626 86.8867 240.456 86.8867 240.237V226.357C86.8867 226.15 87.057 225.968 87.276 225.968C87.4828 225.968 87.6652 226.138 87.6652 226.357V240.237C87.6652 240.456 87.4828 240.626 87.276 240.626Z" fill="#A76FA8"/>
<path d="M91.1797 227.841H83.3703C82.5553 227.841 81.8984 227.184 81.8984 226.369C81.8984 225.554 82.5553 224.897 83.3703 224.897H91.1797C91.9947 224.897 92.6516 225.554 92.6516 226.369C92.6516 227.184 91.9947 227.841 91.1797 227.841Z" fill="#B780BA"/>
<path d="M110.108 240.626H64.4439C64.2372 240.626 64.0547 240.456 64.0547 240.237C64.0547 240.03 64.225 239.847 64.4439 239.847H110.108C110.315 239.847 110.498 240.018 110.498 240.237C110.498 240.456 110.315 240.626 110.108 240.626Z" fill="#A76FA8"/>
<path d="M199.954 247.936H165.128C164.921 247.936 164.738 247.766 164.738 247.547C164.738 247.34 164.909 247.158 165.128 247.158H199.954C200.16 247.158 200.343 247.328 200.343 247.547C200.343 247.766 200.16 247.936 199.954 247.936Z" fill="#D098D3"/>
<path d="M77.8228 133.24C77.6161 133.24 77.4336 133.07 77.4336 132.851V88.7313C77.4336 88.5245 77.6039 88.342 77.8228 88.342C78.0296 88.342 78.2121 88.5123 78.2121 88.7313V132.851C78.2121 133.07 78.0418 133.24 77.8228 133.24Z" fill="#D098D3"/>
<path d="M285.721 118.132H235.288C235.081 118.132 234.898 117.962 234.898 117.743C234.898 117.536 235.069 117.354 235.288 117.354H285.721C285.927 117.354 286.11 117.524 286.11 117.743C286.11 117.962 285.927 118.132 285.721 118.132Z" fill="#FFEEEB"/>
<path d="M355.592 246.55H294.917C294.71 246.55 294.527 246.379 294.527 246.16C294.527 245.954 294.698 245.771 294.917 245.771H355.592C355.798 245.771 355.981 245.942 355.981 246.16C355.981 246.367 355.811 246.55 355.592 246.55Z" fill="#A76FA8"/>
<path d="M319.172 174.343H266.598C264.712 174.343 263.18 172.81 263.18 170.925V147.716C263.18 145.83 264.712 144.297 266.598 144.297H319.172C321.057 144.297 322.59 145.83 322.59 147.716V170.925C322.578 172.822 321.057 174.343 319.172 174.343Z" fill="#A78BEF"/>
<path d="M319.172 213.354H266.598C264.712 213.354 263.18 211.821 263.18 209.936V186.726C263.18 184.841 264.712 183.308 266.598 183.308H319.172C321.057 183.308 322.59 184.841 322.59 186.726V209.936C322.578 211.821 321.057 213.354 319.172 213.354Z" fill="#A78BEF"/>
<path d="M386.078 174.343H333.504C331.619 174.343 330.086 172.81 330.086 170.925V147.716C330.086 145.83 331.619 144.297 333.504 144.297H386.078C387.963 144.297 389.496 145.83 389.496 147.716V170.925C389.496 172.822 387.963 174.343 386.078 174.343Z" fill="#A78BEF"/>
<path d="M386.078 213.354H333.504C331.619 213.354 330.086 211.821 330.086 209.936V186.726C330.086 184.841 331.619 183.308 333.504 183.308H386.078C387.963 183.308 389.496 184.841 389.496 186.726V209.936C389.496 211.821 387.963 213.354 386.078 213.354Z" fill="#A78BEF"/>
<path d="M462.566 270.063C462.408 270.063 462.25 270.014 462.104 269.917C461.727 269.662 461.618 269.139 461.873 268.762L492.636 223.134C492.892 222.757 493.415 222.647 493.792 222.903C494.169 223.158 494.278 223.681 494.023 224.058L463.26 269.686C463.089 269.929 462.834 270.063 462.566 270.063Z" fill="#81538C"/>
<path d="M493.327 270.063C493.059 270.063 492.792 269.929 492.634 269.686L465.763 228.766C465.508 228.376 465.617 227.865 466.006 227.61C466.396 227.354 466.906 227.464 467.162 227.853L494.033 268.774C494.288 269.163 494.179 269.674 493.789 269.929C493.643 270.014 493.485 270.063 493.327 270.063Z" fill="#81538C"/>
<path d="M472.054 237.646C471.604 237.646 471.227 237.281 471.227 236.831C471.215 236.368 471.58 235.991 472.042 235.979L484.595 235.711C485.07 235.711 485.435 236.076 485.447 236.526C485.459 236.989 485.094 237.366 484.632 237.378L472.078 237.646C472.066 237.646 472.054 237.646 472.054 237.646Z" fill="#81538C"/>
<path d="M493.293 189.755C493.293 189.755 504.532 196.482 502.027 211.225C499.156 228.194 482.235 233.692 467.565 229.678C452.895 225.676 455.34 214.108 455.34 214.108L493.293 189.755Z" fill="#E527BB"/>
<path d="M428.967 258.069C428.967 258.069 418.214 263.215 415.027 266.219C411.852 269.224 411.682 271.267 412.047 272.277C412.412 273.287 434.66 272.289 434.66 272.289C434.66 272.289 434.904 266.183 437.276 266.572C439.648 266.961 438.346 272.435 438.346 272.435L445.073 272.374C445.073 272.374 445.389 266.304 444.89 263.92C444.367 261.341 442.871 257.875 442.871 257.875L428.967 258.069Z" fill="#A78BEF"/>
<path d="M431.265 256.293C431.265 256.293 422.008 261.512 423.699 262.059C425.389 262.606 434.926 262.692 437.724 261.67C440.522 260.648 442.857 257.753 442.857 257.753L436.507 254.748L431.265 256.293Z" fill="#F48462"/>
<path d="M442.859 257.753L444.063 252.449L432.689 250.138L431.035 258.544L442.859 257.753Z" fill="#F48462"/>
<path d="M458.1 252.218C458.1 252.218 451.495 262.156 450.303 266.353C449.111 270.55 450.023 272.399 450.85 273.08C451.677 273.761 470.276 261.512 470.276 261.512C470.276 261.512 467.357 256.135 469.595 255.259C471.833 254.383 473.524 259.748 473.524 259.748L479.266 256.245C479.266 256.245 476.419 250.868 474.777 249.068C473.013 247.121 469.948 244.907 469.948 244.907L458.1 252.218Z" fill="#A78BEF"/>
<path d="M459.161 249.518C459.161 249.518 453.882 258.738 455.609 258.337C457.336 257.935 465.571 253.13 467.457 250.831C469.342 248.52 469.865 244.834 469.865 244.834L462.871 245.504L459.161 249.518Z" fill="#F48462"/>
<path d="M469.865 244.835L468.187 239.677L457.227 243.509L460.122 251.574L469.865 244.835Z" fill="#F48462"/>
<path d="M462.028 217.818L472.928 243.618L454.487 250.138L447.918 234.531L453.368 217.818H462.028Z" fill="#231F20"/>
<path d="M485.872 206.979C485.872 206.979 487.064 220.579 483.719 222.319C480.373 224.058 455.972 226.71 454.731 227.805C453.49 228.887 445.182 255.259 445.182 255.259L424.844 253.228C424.844 253.228 432.191 216.893 437.543 213.208C441.557 210.434 463.83 206.992 463.83 206.992L485.872 206.979Z" fill="#231F20"/>
<path d="M471.738 160.634C471.738 160.634 475.996 158.736 479.791 161.133C483.586 163.541 482.175 169.112 482.175 169.112C482.175 169.112 487.272 174.075 487.832 179.123C488.391 184.172 485.776 185.498 485.776 185.498L477.237 181.641L473.867 165.804L471.738 160.634Z" fill="#231F20"/>
<path d="M462.213 180.328C462.213 180.328 460.972 176.143 462.736 173.808C464.597 171.351 467.626 171.205 467.614 169.173C467.577 164.466 470.996 162.288 470.996 162.288L471.142 180.839L462.213 180.328Z" fill="#231F20"/>
<path d="M468.817 176.97C468.817 176.97 463.611 177.299 461.372 179.987C459.803 181.873 452.651 188.514 451.58 189.84C450.607 191.044 444.975 192.845 443.053 191.896C442.895 191.811 442.713 191.908 442.676 192.078C442.262 194.171 439.465 196.847 440.012 201.7C440.109 202.552 448.259 208.889 455.886 206.408C463.513 203.926 466.08 196.713 466.08 196.713L468.817 176.97Z" fill="#A78BEF"/>
<path d="M458.027 209.023C458.027 209.023 473.622 211.626 473.889 209.534C474.522 204.741 478.098 179.61 478.098 179.61L475.97 176.24L469.145 177.043C469.145 177.043 465.873 177.396 462.674 186.154C459.487 194.913 458.027 209.023 458.027 209.023Z" fill="#A78BEF"/>
<path d="M476.652 173.102L476.53 178.004C476.53 178.004 475.606 179.391 472.735 179.549C470.594 179.671 469.949 178.552 469.949 178.552L470.57 174.27L475.776 173.26L476.652 173.102Z" fill="#F48462"/>
<path d="M475.774 173.272C475.762 173.406 475.701 173.564 475.616 173.747C474.461 176.168 471.444 176.618 470.203 176.703L470.556 174.282L475.774 173.272Z" fill="black"/>
<path d="M469.753 163.079C469.753 163.079 467.029 169.161 467.953 172.603C468.878 176.046 472.016 175.535 473.889 174.89C475.763 174.246 476.651 173.102 476.651 173.102C476.651 173.102 478.39 173.71 479.582 172.093C480.774 170.475 480.069 168.601 479.071 168.163C478.074 167.726 476.882 168.431 476.882 168.431L477.83 166.667C477.818 166.679 473.999 157.629 469.753 163.079Z" fill="#F48462"/>
<path d="M476.868 168.455C476.868 168.455 474.241 168.991 472.416 166.059C470.592 163.14 470.762 161.935 470.762 161.935L468.937 164.952C468.937 164.952 468.536 162.86 469.363 161.522C470.202 160.184 471.066 160.464 471.066 160.464L476.856 161.911L478.377 166.558L476.868 168.455Z" fill="#231F20"/>
<path d="M469.96 170.864C469.863 170.864 469.777 170.803 469.753 170.718C469.352 169.404 470.276 168.066 470.325 168.005C470.398 167.908 470.532 167.884 470.629 167.957C470.726 168.03 470.751 168.164 470.678 168.261C470.665 168.273 469.826 169.477 470.167 170.596C470.203 170.706 470.142 170.827 470.021 170.864C469.996 170.864 469.972 170.864 469.96 170.864Z" fill="#F48462"/>
<path d="M472.675 166.655C472.59 166.655 472.505 166.607 472.468 166.509C472.128 165.573 471.629 165.67 471.605 165.682C471.495 165.706 471.373 165.633 471.349 165.524C471.325 165.414 471.386 165.293 471.495 165.268C471.532 165.256 472.395 165.037 472.87 166.375C472.906 166.485 472.857 166.607 472.736 166.655C472.724 166.655 472.699 166.655 472.675 166.655Z" fill="#F48462"/>
<path d="M477.125 171.338C477.077 171.338 477.016 171.314 476.98 171.277C476.894 171.192 476.894 171.059 476.967 170.973L478.634 169.222C478.719 169.137 478.853 169.137 478.938 169.21C479.023 169.295 479.023 169.429 478.95 169.514L477.284 171.265C477.235 171.314 477.186 171.338 477.125 171.338Z" fill="black"/>
<path d="M478.891 170.876C478.855 170.876 477.711 170.694 477.711 170.694C477.589 170.681 477.516 170.56 477.529 170.45C477.541 170.329 477.65 170.256 477.772 170.268L478.915 170.45C479.037 170.463 479.11 170.584 479.098 170.694C479.086 170.791 478.988 170.876 478.891 170.876Z" fill="black"/>
<path d="M469.266 210.288C469.266 210.288 476.503 176.751 476.515 176.459C476.528 176.167 476.528 176.167 476.528 176.167C476.528 176.167 482.829 178.016 485.006 180.668C486.587 182.602 483.972 209.4 483.218 209.899C482.452 210.41 469.266 210.288 469.266 210.288Z" fill="#A78BEF"/>
<path d="M458.028 209.023C458.028 209.023 459.719 201.591 463.624 191.336C467.565 180.997 470.205 176.703 470.205 176.703C470.205 176.703 465.424 177.335 463.746 178.26C462.566 178.905 457.98 189.11 457.201 196.433C456.423 203.768 455.973 208.5 455.973 208.5C456.35 208.816 458.028 209.023 458.028 209.023Z" fill="#A78BEF"/>
<path d="M452.431 194.365C452.273 194.365 452.127 194.329 451.981 194.244C450.838 193.611 450.449 190.558 450.412 190.205C450.4 190.12 450.449 190.035 450.521 189.986C450.594 189.95 450.692 189.95 450.765 190.01C451.045 190.242 453.538 192.322 453.392 193.562C453.368 193.769 453.258 194.061 452.869 194.244C452.735 194.329 452.577 194.365 452.431 194.365ZM450.935 190.728C451.118 191.799 451.531 193.502 452.2 193.866C452.358 193.952 452.516 193.952 452.699 193.866C452.918 193.757 452.967 193.623 452.979 193.526C453.064 192.82 451.774 191.494 450.935 190.728Z" fill="#431949"/>
<path d="M472.842 179.732C470.896 179.732 469.838 178.771 469.789 178.734C469.704 178.649 469.692 178.515 469.777 178.43C469.862 178.345 469.996 178.333 470.081 178.418C470.093 178.43 471.346 179.549 473.596 179.257C475.81 178.977 476.309 177.53 476.333 177.469C476.37 177.36 476.491 177.299 476.601 177.335C476.71 177.372 476.771 177.493 476.735 177.603C476.71 177.676 476.139 179.367 473.645 179.695C473.365 179.707 473.098 179.732 472.842 179.732Z" fill="#5D2866"/>
<path d="M472.224 168.747C472.078 168.735 471.993 168.626 472.005 168.504L472.139 167.495L471.591 166.959C471.506 166.874 471.506 166.74 471.591 166.655C471.676 166.57 471.81 166.57 471.895 166.655L472.516 167.276C472.564 167.324 472.589 167.397 472.577 167.458L472.431 168.577C472.418 168.662 472.333 168.747 472.224 168.747Z" fill="#F48462"/>
<path d="M459.524 190.023C459.512 190.023 459.487 190.023 459.475 190.01C459.366 189.986 459.293 189.864 459.317 189.743L460.509 185.133C460.534 185.023 460.655 184.95 460.777 184.974C460.886 184.999 460.959 185.12 460.935 185.242L459.743 189.852C459.706 189.95 459.621 190.023 459.524 190.023Z" fill="#5D2866"/>
<path d="M470.786 173.053C470.178 173.053 469.424 172.53 469.339 172.47C469.266 172.421 469.229 172.336 469.254 172.251C469.266 172.165 469.339 172.105 469.424 172.08L472.088 171.557C472.173 171.545 472.258 171.582 472.307 171.655C472.355 171.728 472.355 171.825 472.307 171.898C472.246 171.995 471.638 172.859 471.03 173.029C470.944 173.041 470.859 173.053 470.786 173.053ZM470.044 172.384C470.348 172.543 470.689 172.664 470.896 172.603C471.115 172.543 471.37 172.311 471.577 172.092L470.044 172.384Z" fill="#F48462"/>
<path d="M449.755 240.48C449.73 240.48 449.706 240.48 449.682 240.467C449.572 240.419 449.511 240.297 449.56 240.188C449.755 239.701 454.219 228.255 455.082 227.221C455.97 226.162 463.804 225.603 464.704 225.542C464.85 225.542 464.923 225.627 464.935 225.737C464.948 225.858 464.85 225.956 464.741 225.968C461.444 226.187 456.007 226.795 455.423 227.488C454.766 228.279 451.567 236.234 449.974 240.334C449.913 240.419 449.84 240.48 449.755 240.48Z" fill="#5D2866"/>
<path d="M455.231 227.574C455.195 227.574 455.158 227.561 455.122 227.537C454.976 227.452 451.631 225.408 451.314 223.693C451.241 223.304 451.327 222.963 451.558 222.671C451.838 222.319 452.13 222.282 452.336 222.319C453.699 222.538 455.256 226.783 455.426 227.269C455.462 227.355 455.426 227.452 455.365 227.513C455.329 227.549 455.292 227.574 455.231 227.574ZM452.227 222.757C452.142 222.757 452.032 222.793 451.911 222.951C451.752 223.146 451.704 223.365 451.752 223.632C451.959 224.764 453.857 226.187 454.818 226.832C454.149 225.116 453.042 222.89 452.288 222.769C452.263 222.757 452.239 222.757 452.227 222.757Z" fill="#231F20"/>
<path d="M495.517 220.603C495.456 220.603 495.395 220.579 495.359 220.53C495.274 220.445 495.286 220.311 495.371 220.226C498.996 216.869 499.701 210.276 499.701 210.215C499.714 210.093 499.823 210.008 499.933 210.02C500.054 210.033 500.139 210.142 500.127 210.252C500.103 210.531 499.41 217.076 495.651 220.542C495.626 220.579 495.578 220.603 495.517 220.603Z" fill="#28A09A"/>
<path d="M445.087 206.736H467.019C467.797 206.736 468.43 206.104 468.43 205.325V190.412C468.43 189.633 467.797 189.001 467.019 189.001H445.087C444.308 189.001 443.676 189.633 443.676 190.412V205.325C443.676 206.104 444.308 206.736 445.087 206.736Z" fill="white"/>
<path d="M443.442 206.736H465.472C466.25 206.736 466.883 206.104 466.883 205.325V190.424C466.883 189.645 466.25 189.013 465.472 189.013H443.442C442.664 189.013 442.031 189.645 442.031 190.424V205.337C442.031 206.104 442.664 206.736 443.442 206.736Z" fill="#E527BB"/>
<path d="M452.905 199.961C454.06 199.961 454.997 199.024 454.997 197.869C454.997 196.713 454.06 195.776 452.905 195.776C451.749 195.776 450.812 196.713 450.812 197.869C450.812 199.024 451.749 199.961 452.905 199.961Z" fill="white"/>
<path d="M445.754 197.078C445.548 196.689 445.244 196.384 444.879 196.129C443.674 195.29 439.867 193.538 438.736 194.608C437.653 195.63 439.733 196.676 439.733 196.676C439.733 196.676 437.884 196.178 437.982 197.552C438.055 198.696 439.234 199.073 439.234 199.073C439.234 199.073 437.264 198.732 437.982 200.386C438.699 202.029 442.774 203.501 444.27 203.452C445.767 203.403 444.708 201.445 444.708 201.445C444.708 201.445 446.314 201.177 446.314 200.289C446.314 199.34 445.049 198.988 445.049 198.988C445.049 198.988 446.484 198.465 445.754 197.078Z" fill="#F48462"/>
<path d="M444.574 199.085C444.55 199.085 444.514 199.085 444.489 199.061L439.648 196.871C439.538 196.822 439.49 196.701 439.538 196.591C439.587 196.482 439.709 196.433 439.818 196.482L444.66 198.671C444.769 198.72 444.818 198.842 444.769 198.951C444.733 199.036 444.66 199.085 444.574 199.085Z" fill="black"/>
<path d="M444.111 201.433C444.087 201.433 444.05 201.433 444.026 201.42L439.148 199.292C439.038 199.243 438.99 199.121 439.038 199.012C439.087 198.902 439.209 198.854 439.318 198.902L444.196 201.031C444.306 201.08 444.354 201.201 444.306 201.311C444.281 201.384 444.196 201.433 444.111 201.433Z" fill="black"/>
<path d="M473.246 198.793C473.246 198.793 471.299 197.37 470.302 196.956C469.365 196.567 468.429 196.336 468.429 196.336L468.088 197.978C468.088 197.978 464.609 198.246 462.067 199.097C459.524 199.949 459.804 201.092 459.804 201.092C459.804 201.092 458.15 201.858 458.709 202.588C459.269 203.33 461.848 203.026 461.848 203.026C461.848 203.026 458.539 203.78 459.743 204.656C460.948 205.544 463.83 205.727 463.83 205.727C463.83 205.727 469.9 207.685 472.26 205.812C474.62 203.951 473.246 198.793 473.246 198.793Z" fill="#F48462"/>
<path d="M468.086 198.16C468.001 198.16 467.916 198.1 467.904 198.002C467.892 197.905 467.953 197.808 468.062 197.795L470.033 197.503C470.13 197.491 470.227 197.552 470.239 197.662C470.252 197.759 470.191 197.856 470.081 197.868L468.111 198.16C468.099 198.16 468.098 198.16 468.086 198.16Z" fill="black"/>
<path d="M459.961 201.129C459.876 201.129 459.791 201.068 459.779 200.97C459.767 200.873 459.839 200.776 459.937 200.764L464.961 200.046C465.058 200.034 465.155 200.107 465.167 200.204C465.18 200.301 465.107 200.399 465.009 200.411L459.985 201.129C459.973 201.129 459.973 201.129 459.961 201.129Z" fill="black"/>
<path d="M461.508 203.245C461.423 203.245 461.338 203.184 461.326 203.087C461.314 202.99 461.374 202.892 461.484 202.88L464.634 202.418C464.744 202.406 464.829 202.467 464.841 202.576C464.853 202.673 464.793 202.771 464.683 202.783L461.533 203.245C461.52 203.245 461.508 203.245 461.508 203.245Z" fill="black"/>
<path d="M481.442 178.296C481.442 178.296 497.389 186.191 496.781 200.946C496.258 213.682 473.231 209.972 472.477 209.984C471.017 209.996 471.601 195.18 472.051 194.755C472.501 194.341 479.654 193.806 479.654 193.806L481.442 178.296Z" fill="#A78BEF"/>
<path d="M473.974 194.669C473.864 194.669 473.779 194.596 473.767 194.487C473.755 194.365 473.828 194.256 473.949 194.244L483.389 192.881C483.827 192.699 488.048 191.044 489.288 192.431C489.568 192.747 489.544 192.991 489.459 193.137C488.984 194.025 484.715 193.489 483.401 193.295L474.01 194.657C473.998 194.669 473.986 194.669 473.974 194.669ZM484.313 193.003C486.588 193.27 488.875 193.331 489.069 192.954C489.082 192.93 489.057 192.845 488.948 192.735C488.242 191.908 485.834 192.492 484.313 193.003Z" fill="#5D2866"/>
<path d="M82.7969 142.643C83.0524 143.106 84.4878 146.962 82.7605 150.854C81.021 154.747 76.7148 152.034 76.7148 152.034V144.857L82.7969 142.643Z" fill="#F48462"/>
<path d="M67.6992 174.927C67.6992 174.927 73.7083 176.143 78.6105 173.029C83.5127 169.915 82.1868 150.854 82.1868 150.854H74.6328L70.1929 161.315L67.6992 174.927Z" fill="#F48462"/>
<path d="M67.5547 253.824V259.918L79.0255 259.48V253.824H67.5547Z" fill="#F48462"/>
<path d="M41.0625 253.131V259.225L51.6819 258.799V253.131H41.0625Z" fill="#F48462"/>
<path d="M64.1235 185.972C64.1235 185.972 72.3952 199.085 77.3095 220.068C81.7859 239.215 82.7469 255.04 82.7469 255.04H63.3936C63.3936 255.04 61.2406 239.434 60.6689 233.254C60.0971 227.075 58.1874 218.815 58.1874 218.815C58.1874 218.815 55.5356 254.444 54.903 255.04C54.2705 255.649 35.7444 255.174 35.939 254.359C36.1337 253.544 39.8437 197.37 40.3425 193.477C41.8873 181.496 64.1235 185.972 64.1235 185.972Z" fill="#231F20"/>
<path d="M54.3221 269.297C54.3221 270.367 53.9571 271.608 53.2151 271.912C52.4731 272.216 46.4883 272.873 41.2455 272.411C36.2339 271.973 35.1878 271.608 34.8228 271.146C34.6404 270.915 34.9931 269.832 35.3946 268.798C35.4189 268.749 35.4432 268.689 35.4675 268.64C35.6743 268.117 35.8933 267.606 36.0393 267.241C36.1974 266.901 36.3799 266.572 36.611 266.256C37.1584 265.502 38.2288 263.957 38.5086 263.154C38.8735 262.083 39.4209 259.784 39.7858 258.702C40.1508 257.631 41.0631 257.412 41.0631 257.412C41.0631 257.412 51.3783 256.707 52.1203 257.327C52.8502 257.935 53.2273 263.008 53.2273 263.774V264.541C53.2273 265.258 53.7138 266.669 54.0301 267.837C54.1153 268.129 54.1883 268.409 54.2369 268.652C54.2856 268.908 54.3221 269.114 54.3221 269.297Z" fill="#A78BEF"/>
<path d="M97.4772 271.487C96.7838 271.766 67.5168 272.569 66.8356 271.487C66.6288 271.158 66.4828 270.051 66.3855 268.652C66.1422 265.368 66.1422 260.478 66.1422 260.478C66.1422 260.478 65.9232 258.811 65.9719 258.033C66.0084 257.267 80.0945 257.558 80.0945 257.558L89.242 264.772C89.242 264.772 91.76 264.322 94.497 264.772C95.9567 265.003 96.8933 266.779 97.3556 268.458C97.7691 269.966 97.8056 271.353 97.4772 271.487Z" fill="#A78BEF"/>
<path d="M97.4784 271.486C96.7851 271.766 67.518 272.569 66.8368 271.486C66.63 271.158 66.484 270.051 66.3867 268.652C71.9579 269.054 85.6427 269.796 97.3568 268.47C97.7704 269.966 97.8069 271.353 97.4784 271.486Z" fill="#286C7C"/>
<path d="M54.3221 269.297C54.3221 270.367 53.9571 271.608 53.2151 271.912C52.4731 272.216 46.4883 272.873 41.2455 272.411C36.2339 271.973 35.1878 271.608 34.8228 271.146C34.6404 270.915 34.9931 269.832 35.3946 268.798C40.0534 269.151 48.4589 269.467 54.018 267.837C54.1031 268.129 54.1761 268.409 54.2247 268.652C54.2856 268.908 54.3221 269.114 54.3221 269.297Z" fill="#286C7C"/>
<path d="M58.1877 219.022C58.0539 219.01 57.9688 218.913 57.9688 218.791C57.9688 218.718 58.577 211.043 58.7473 207.649C58.9176 204.255 58.9297 202.625 58.9297 202.613C58.9297 202.528 58.9784 202.455 59.0514 202.418L65.3159 199.633C65.4254 199.584 65.5471 199.633 65.5957 199.742C65.6444 199.852 65.5957 199.973 65.4862 200.022L59.3433 202.759C59.3433 203.221 59.3068 204.827 59.1608 207.673C58.9905 211.079 58.3823 218.755 58.3702 218.828C58.3945 218.949 58.2972 219.022 58.1877 219.022Z" fill="#231F20"/>
<path d="M41.3295 262.741C41.2322 262.741 41.147 262.68 41.1227 262.582C41.0862 262.473 41.1592 262.351 41.2808 262.315C41.4511 262.266 45.441 261.208 47.5454 261.573L48.7862 261.792C47.6549 260.965 45.3559 259.505 43.9326 260.113C43.8232 260.162 43.7015 260.113 43.6529 260.004C43.6042 259.894 43.6529 259.772 43.7623 259.724C45.9397 258.787 49.589 261.853 49.735 261.986C49.808 262.047 49.8323 262.157 49.7958 262.242C49.7593 262.327 49.662 262.376 49.5647 262.363L47.4724 262.011C45.4532 261.67 41.4268 262.728 41.3903 262.741C41.366 262.741 41.3538 262.741 41.3295 262.741Z" fill="#FFBA57"/>
<path d="M87.0546 263.276C87.0303 263.276 81.8118 262.74 81.8118 262.74C81.7267 262.728 81.6658 262.68 81.6294 262.607C81.605 262.534 81.6172 262.449 81.6658 262.388L83.4905 260.247C83.5635 260.162 83.6973 260.149 83.7946 260.222C83.8797 260.295 83.8919 260.429 83.8189 260.527L82.2619 262.363L87.0668 262.862C87.1884 262.874 87.2735 262.984 87.2614 263.093C87.2492 263.191 87.1641 263.276 87.0546 263.276Z" fill="#FFBA57"/>
<path d="M49.6254 156.182C49.6254 156.182 43.9204 156.158 40.8307 159.162C37.7531 162.167 40.3441 191.543 40.3441 191.543C40.3441 191.543 50.9878 192.796 56.8266 191.543C62.6532 190.29 66.266 187.748 66.266 187.748C66.266 187.748 64.3806 160.5 62.7749 157.605C61.1692 154.71 49.6254 156.182 49.6254 156.182Z" fill="#A78BEF"/>
<path d="M48.4922 154.078L48.5287 157.776C48.5287 157.776 49.9397 158.943 51.7157 158.943C54.1242 158.943 54.9392 157.082 54.9392 157.082L54.8541 152.752L48.4922 154.078Z" fill="#F48462"/>
<path d="M48.4922 153.98C48.4922 153.98 49.9519 156.973 52.6767 156.511C54.8662 156.146 54.8541 153.044 54.8541 153.044L48.4922 153.98Z" fill="black"/>
<path d="M55.7791 143.349C55.7791 143.349 57.1658 149.93 55.0736 153.129C52.9813 156.328 50.1714 155.44 48.9063 154.503C47.1912 153.238 46.8262 151.438 46.8262 151.438C46.8262 151.438 44.515 151.937 43.7122 150.063C42.8607 148.093 44.2839 146.463 45.4395 146.353C46.5951 146.244 46.7411 146.451 46.7411 146.451L46.364 144.334C46.3518 144.322 53.2733 136.366 55.7791 143.349Z" fill="#F48462"/>
<path d="M54.7109 146.463C54.7109 146.463 58.2021 144.906 58.5183 147.618C58.8833 150.769 55.1245 150.854 55.1245 150.854L54.7109 146.463Z" fill="#F48462"/>
<path d="M56.5091 149.273C56.4726 149.273 56.4361 149.261 56.3996 149.248C56.2901 149.188 56.2536 149.054 56.3145 148.956L57.4579 146.925C57.5187 146.816 57.6404 146.779 57.7498 146.84C57.8593 146.901 57.8958 147.034 57.835 147.132L56.6915 149.163C56.6551 149.236 56.5821 149.273 56.5091 149.273Z" fill="black"/>
<path d="M46.3908 149.516C46.3422 149.516 46.2935 149.504 46.257 149.467L44.4446 147.959C44.3472 147.886 44.3351 147.752 44.4202 147.655C44.4932 147.57 44.627 147.545 44.7243 147.631L46.5368 149.139C46.6341 149.212 46.6463 149.346 46.5611 149.443C46.5125 149.492 46.4516 149.516 46.3908 149.516Z" fill="black"/>
<path d="M44.7485 149.82C44.6876 149.82 44.6268 149.796 44.5782 149.735C44.5052 149.638 44.5173 149.504 44.6147 149.431L45.6608 148.616C45.7581 148.543 45.8919 148.555 45.9649 148.652C46.0379 148.75 46.0257 148.883 45.9284 148.956L44.8823 149.771C44.8336 149.808 44.7971 149.82 44.7485 149.82Z" fill="black"/>
<path d="M57.861 148.652H56.8635C56.7418 148.652 56.6445 148.555 56.6445 148.433C56.6445 148.312 56.7418 148.214 56.8635 148.214H57.861C57.9826 148.214 58.0799 148.312 58.0799 148.433C58.0799 148.555 57.9826 148.652 57.861 148.652Z" fill="black"/>
<path d="M50.1738 147.801C50.0643 147.801 49.967 147.716 49.9548 147.606L49.8332 146.475C49.821 146.353 49.9062 146.256 50.0278 146.244C50.1495 146.232 50.2468 146.317 50.2589 146.438L50.3806 147.57C50.3927 147.691 50.3076 147.789 50.1859 147.801C50.1859 147.801 50.1859 147.801 50.1738 147.801Z" fill="#F48462"/>
<path d="M54.5136 147.363C54.4042 147.363 54.3068 147.278 54.2947 147.168L54.173 146.037C54.1609 145.915 54.246 145.818 54.3677 145.806C54.4893 145.794 54.5866 145.879 54.5988 146L54.7204 147.12C54.7326 147.241 54.6474 147.339 54.5258 147.351C54.5258 147.363 54.5136 147.363 54.5136 147.363Z" fill="#F48462"/>
<path d="M52.6652 150.428C52.5193 150.404 52.4341 150.295 52.4463 150.185C52.7017 148.506 52.0814 147.144 52.0814 147.132C52.0327 147.022 52.0814 146.901 52.1908 146.852C52.3003 146.803 52.422 146.852 52.4706 146.962C52.4949 147.022 53.1396 148.446 52.872 150.258C52.8599 150.343 52.7626 150.428 52.6652 150.428Z" fill="#F48462"/>
<path d="M54.7228 145.295C54.6863 145.295 54.6498 145.283 54.6255 145.271C54.1997 145.04 53.5307 145.21 53.5186 145.21C53.4091 145.234 53.2874 145.173 53.2631 145.052C53.2388 144.942 53.2996 144.821 53.4212 144.796C53.4577 144.784 54.2484 144.59 54.8323 144.894C54.9418 144.955 54.9783 145.076 54.9174 145.186C54.8688 145.259 54.7958 145.295 54.7228 145.295Z" fill="#F48462"/>
<path d="M49.2489 145.83C49.2002 145.83 49.1394 145.806 49.1029 145.769C49.0178 145.684 49.0178 145.55 49.1029 145.465C49.5652 145.003 50.3802 144.942 50.4167 144.942C50.5261 144.942 50.6356 145.027 50.6478 145.137C50.6599 145.258 50.5626 145.356 50.4532 145.368C50.441 145.368 49.7598 145.417 49.4192 145.769C49.3584 145.806 49.3097 145.83 49.2489 145.83Z" fill="#F48462"/>
<path d="M47.7644 147.034C47.7644 147.034 49.4431 145.891 49.3458 144.176C49.2485 142.449 48.8714 142.011 48.8714 142.011C48.8714 142.011 50.5987 142.935 52.7518 142.278C55.1846 141.548 56.5227 138.203 55.1968 137.291C53.7127 136.269 50.1243 137.705 50.1243 137.705C50.1243 137.705 46.3534 137.498 43.8962 140.49C41.439 143.483 44.1881 147.01 44.1881 147.01C44.1881 147.01 44.918 145.453 47.7644 147.034Z" fill="black"/>
<path d="M52.312 152.253C51.3511 152.253 50.5847 151.462 50.5482 151.426C50.4631 151.341 50.4631 151.207 50.5482 151.122C50.6334 151.037 50.7672 151.037 50.8523 151.122C50.8645 151.134 51.7525 152.034 52.677 151.754C52.7864 151.718 52.9081 151.779 52.9446 151.9C52.9811 152.01 52.9203 152.131 52.7986 152.168C52.6405 152.241 52.4702 152.253 52.312 152.253Z" fill="#F48462"/>
<path d="M54.5168 139.407C54.5168 139.407 56.1347 140.892 56.5118 142.692C56.8888 144.492 56.5118 146.025 56.5118 146.025H56.1468C56.1468 146.025 55.271 141.658 53.86 141.256C52.4489 140.843 54.5168 139.407 54.5168 139.407Z" fill="black"/>
<path d="M45.6839 156.754C45.6839 156.754 36.0255 157.544 31.841 164.271C27.6566 170.998 27.3281 177.031 27.3281 177.031L42.3753 174.927L45.6839 156.754Z" fill="#A78BEF"/>
<path d="M61.8026 174.927L69.6728 175.255L70.1959 161.303C70.1959 161.303 62.4716 156.425 59.3454 156.048C56.2192 155.683 61.8026 174.927 61.8026 174.927Z" fill="#A78BEF"/>
<path d="M29.1647 176.776C29.1647 176.776 28.2767 187.906 36.5118 186.763C45.854 185.449 50.7075 166.169 50.7075 166.169L53.4931 164.454C53.4931 164.454 52.9579 166.655 55.1961 165.475C57.4343 164.296 56.9842 162.07 56.9842 162.07L54.3567 157.593C54.3567 157.593 58.2128 154.017 57.0694 153.834C55.3055 153.555 49.8195 157.216 49.8195 157.216C49.8195 157.216 50.1236 155.014 48.8464 155.379C47.4718 155.768 46.9852 159.843 46.9852 159.843L32.3517 176.022L29.1647 176.776Z" fill="#F48462"/>
<path d="M53.492 164.661C53.4312 164.661 53.3703 164.636 53.3217 164.588C53.2609 164.515 53.2487 164.405 53.3095 164.32L54.3313 162.885C54.4043 162.787 54.5381 162.763 54.6354 162.836C54.7327 162.909 54.7571 163.043 54.6841 163.14L54.1367 163.919L54.9274 163.541C55.0368 163.493 55.1585 163.541 55.2193 163.651C55.268 163.76 55.2193 163.882 55.1098 163.931L53.5771 164.648C53.5528 164.661 53.5163 164.661 53.492 164.661Z" fill="black"/>
<path d="M47.7378 159.15C47.6769 159.15 47.6161 159.126 47.5675 159.077C47.4945 158.98 47.5066 158.846 47.5918 158.773L50.2679 156.571C50.3652 156.498 50.499 156.51 50.572 156.595C50.645 156.693 50.6328 156.827 50.5477 156.9L47.8716 159.101C47.8351 159.138 47.7864 159.15 47.7378 159.15Z" fill="black"/>
<path d="M53.3719 158.481C53.2989 158.481 53.2381 158.445 53.1894 158.384C53.1286 158.286 53.1529 158.153 53.2502 158.08L54.2477 157.411C54.345 157.35 54.4788 157.374 54.5518 157.471C54.6126 157.569 54.5883 157.703 54.491 157.776L53.4935 158.445C53.457 158.469 53.4084 158.481 53.3719 158.481Z" fill="black"/>
<path d="M41.3304 199.937C41.2574 199.937 41.1966 199.9 41.1479 199.839C41.0749 199.742 41.0992 199.608 41.1966 199.535C44.4201 197.285 45.2594 194.025 45.2716 193.988C45.2959 193.879 45.4175 193.806 45.527 193.83C45.6365 193.854 45.7095 193.976 45.6852 194.086C45.6487 194.232 44.7972 197.54 41.4398 199.876C41.4155 199.924 41.379 199.937 41.3304 199.937Z" fill="#231F20"/>
<path d="M91.9428 150.611L78.2945 150.246C77.4917 150.222 76.8592 149.552 76.8835 148.762L77.066 141.828C77.0903 141.025 77.7593 140.393 78.55 140.417L92.1982 140.782C93.0011 140.806 93.6336 141.475 93.6093 142.266L93.4268 149.2C93.4025 150.003 92.7335 150.635 91.9428 150.611Z" fill="#A78BEF"/>
<path d="M89.8645 149.759L78.8438 149.467C78.1869 149.455 77.6638 148.896 77.676 148.239L77.8341 142.388C77.8463 141.731 78.4058 141.208 79.0627 141.22L90.0835 141.512C90.7403 141.524 91.2634 142.084 91.2513 142.74L91.0931 148.591C91.0688 149.26 90.5214 149.784 89.8645 149.759Z" fill="white"/>
<path d="M92.9165 145.721C92.9043 146.061 92.6245 146.329 92.2839 146.317C91.9433 146.305 91.6757 146.025 91.6879 145.684C91.7001 145.344 91.9798 145.076 92.3204 145.088C92.661 145.1 92.9286 145.38 92.9165 145.721Z" fill="#3F9E97"/>
<path d="M74.6349 151.511C74.6349 151.511 73.4307 147.205 74.27 145.806C75.0972 144.407 77.1407 142.972 78.8924 143.361C80.644 143.75 77.6881 146.171 77.6881 146.171C77.6881 146.171 79.5371 150.246 78.3328 152.18C77.1286 154.114 74.6349 151.511 74.6349 151.511Z" fill="#F48462"/>
<path d="M77.6641 153.007C77.5789 153.007 77.4938 152.958 77.4573 152.861C77.4208 152.752 77.4695 152.63 77.5789 152.581C78.7102 152.168 78.4912 149.735 78.3088 148.823C78.2845 148.701 78.3574 148.591 78.4791 148.567C78.6007 148.543 78.7102 148.616 78.7345 148.737C78.7589 148.883 79.4279 152.35 77.7249 152.983C77.7127 153.007 77.6884 153.007 77.6641 153.007Z" fill="black"/>
<path d="M231.434 202.223C231.434 202.223 231.531 185.388 238.051 183.77C244.571 182.153 245.629 186.872 245.629 186.872C245.629 186.872 247.807 186.69 248.318 190.363C248.828 194.037 247.721 203.695 247.721 203.695L231.434 202.223Z" fill="black"/>
<path d="M230.06 203.404C230.06 203.404 228.576 197.99 239.877 197.565C251.177 197.139 249.255 203.404 249.255 203.404L239.208 206.007L230.06 203.404Z" fill="#A78BEF"/>
<path d="M216.738 220.287C216.738 220.287 224.207 203.647 231.968 201.409C239.729 199.17 230.873 222.088 230.873 222.088L216.738 220.287Z" fill="#A78BEF"/>
<path d="M246.227 202.223C246.227 202.223 259.461 204.681 262.697 216.76C265.933 228.839 247.747 234.617 247.747 234.617L246.227 202.223Z" fill="#A78BEF"/>
<path d="M254 254.7L253.586 259.943L264.643 260.794V255.551L254 254.7Z" fill="white"/>
<path d="M247.906 233.145C247.906 233.145 262.029 217.319 275.701 220.786C289.374 224.253 269.327 257.461 269.327 257.461H249.451L250.132 252.243L227.543 252.766L230.426 227.124L247.906 233.145Z" fill="#231F20"/>
<path d="M232.357 247.316H239.035L236.14 258.556H231.883L232.357 247.316Z" fill="white"/>
<path d="M219.587 233.729C219.587 233.729 194.638 240.31 193.178 249.834C191.718 259.371 209.575 263.519 217.944 264.115C226.326 264.711 233.442 264.115 233.442 264.115V230.262L219.587 233.729Z" fill="#231F20"/>
<path d="M225.133 233.729C225.133 233.729 226.13 203.768 231.981 201.409C238.38 198.83 249.181 201.98 251.201 205.982C253.22 209.984 247.904 233.145 247.904 233.145C247.904 233.145 236.02 236.016 225.133 233.729Z" fill="#A78BEF"/>
<path d="M243.041 196.932L242.931 201.822C242.931 201.822 242.019 203.209 239.148 203.379C237.019 203.501 236.277 203.002 236.277 203.002L236.63 200.533L236.971 198.124L242.165 197.102L243.041 196.932Z" fill="#F48462"/>
<path d="M242.164 197.102C242.152 197.236 242.091 197.394 242.006 197.577C240.862 199.997 237.858 200.46 236.617 200.533L236.958 198.124L242.164 197.102Z" fill="black"/>
<path d="M236.129 186.957C236.129 186.957 233.429 193.027 234.365 196.458C235.302 199.888 238.428 199.365 240.289 198.72C242.163 198.076 243.038 196.932 243.038 196.932C243.038 196.932 244.778 197.528 245.958 195.923C247.138 194.305 246.432 192.444 245.435 192.018C244.437 191.58 243.257 192.298 243.257 192.298L244.194 190.534C244.194 190.534 240.35 181.508 236.129 186.957Z" fill="#F48462"/>
<path d="M236.556 194.743C236.471 194.755 236.373 194.706 236.337 194.621C235.765 193.368 236.507 191.933 236.532 191.872C236.592 191.762 236.714 191.726 236.824 191.787C236.933 191.847 236.97 191.969 236.909 192.079C236.897 192.091 236.24 193.392 236.714 194.451C236.763 194.56 236.714 194.682 236.605 194.73C236.605 194.73 236.58 194.73 236.556 194.743Z" fill="#F48462"/>
<path d="M243.512 195.168C243.464 195.168 243.403 195.144 243.366 195.107C243.281 195.022 243.281 194.888 243.354 194.803L245.008 193.052C245.094 192.966 245.227 192.966 245.313 193.039C245.398 193.125 245.398 193.258 245.325 193.343L243.67 195.095C243.622 195.144 243.561 195.168 243.512 195.168Z" fill="black"/>
<path d="M245.266 194.706C245.23 194.706 244.086 194.536 244.086 194.536C243.964 194.524 243.891 194.414 243.904 194.292C243.916 194.171 244.025 194.098 244.147 194.11L245.29 194.28C245.412 194.292 245.485 194.402 245.473 194.524C245.461 194.621 245.363 194.706 245.266 194.706Z" fill="black"/>
<path d="M238.294 196.592C237.662 196.592 237.151 196.081 237.126 196.056C237.078 196.008 237.053 195.922 237.066 195.862C237.078 195.789 237.139 195.728 237.212 195.704L239.596 194.913C239.669 194.889 239.754 194.913 239.815 194.962C239.876 195.01 239.9 195.095 239.876 195.18C239.863 195.217 239.608 196.081 238.817 196.482C238.623 196.567 238.452 196.592 238.294 196.592ZM237.722 195.983C237.954 196.117 238.282 196.251 238.61 196.093C238.915 195.947 239.121 195.691 239.255 195.485L237.722 195.983Z" fill="#F48462"/>
<path d="M239.121 193.003C238.975 192.991 238.89 192.881 238.914 192.76L239.06 191.628C239.072 191.507 239.182 191.434 239.304 191.446C239.425 191.458 239.498 191.568 239.486 191.689L239.34 192.82C239.316 192.93 239.231 193.003 239.121 193.003Z" fill="#F48462"/>
<path d="M235.754 192.735C235.608 192.711 235.523 192.602 235.547 192.492L235.717 191.361C235.73 191.239 235.839 191.166 235.961 191.178C236.082 191.19 236.155 191.3 236.143 191.422L235.973 192.553C235.949 192.662 235.863 192.735 235.754 192.735Z" fill="#F48462"/>
<path d="M240.18 190.826C240.107 190.826 240.022 190.789 239.985 190.704C239.717 190.181 238.988 190.327 238.963 190.339C238.854 190.363 238.732 190.29 238.708 190.169C238.683 190.047 238.756 189.938 238.866 189.913C238.915 189.901 239.949 189.694 240.362 190.509C240.411 190.619 240.374 190.74 240.265 190.801C240.253 190.826 240.216 190.826 240.18 190.826Z" fill="#F48462"/>
<path d="M236.898 190.132C236.825 190.132 236.764 190.096 236.716 190.035C236.618 189.889 236.497 189.804 236.363 189.792C236.071 189.767 235.743 189.986 235.645 190.071C235.56 190.144 235.426 190.144 235.341 190.047C235.268 189.962 235.268 189.828 235.365 189.743C235.39 189.719 235.888 189.281 236.424 189.354C236.691 189.39 236.91 189.536 237.081 189.779C237.141 189.877 237.117 190.011 237.02 190.084C236.983 190.12 236.935 190.132 236.898 190.132Z" fill="#F48462"/>
<path d="M234.56 246.951C234.56 246.951 246.7 246.27 247.393 246.927C248.086 247.584 247.673 260.028 247.673 260.028C247.673 260.028 249.193 274.065 248.147 275.415C247.6 276.121 246.468 276.814 245.495 277.325C244.401 277.897 243.026 277.641 242.247 276.681C241.566 275.829 240.849 274.564 240.484 272.727C239.681 268.664 239.681 268.664 239.681 268.664L234.316 259.383L234.56 246.951Z" fill="#A78BEF"/>
<path d="M252.797 259.845C252.797 259.845 252.262 269.102 252.809 269.82C253.356 270.538 269.827 277.739 270.447 278.006C271.067 278.274 276.602 278.432 277.989 278.517C279.376 278.615 279.266 273.871 278.402 272.46C277.539 271.049 274.206 269.832 274.206 269.832L265.131 259.115L252.882 258.556L252.797 259.845Z" fill="#A78BEF"/>
<path d="M250.118 252.462C250.093 252.462 250.069 252.462 250.045 252.45C249.935 252.413 249.875 252.279 249.923 252.17C249.972 252.024 255.434 237.439 261.856 231.077C261.941 230.992 262.075 230.992 262.16 231.077C262.246 231.162 262.246 231.296 262.16 231.381C255.811 237.682 250.385 252.17 250.325 252.316C250.288 252.401 250.203 252.462 250.118 252.462Z" fill="#231F20"/>
<path d="M232.358 247.535C232.346 247.535 232.321 247.535 232.309 247.523C232.187 247.486 219.756 244.409 206.497 243.606C206.375 243.594 206.29 243.497 206.302 243.375C206.314 243.253 206.424 243.168 206.533 243.18C219.829 243.983 232.297 247.073 232.418 247.109C232.528 247.134 232.601 247.255 232.577 247.365C232.54 247.462 232.455 247.535 232.358 247.535Z" fill="#231F20"/>
<path d="M226.264 219.497C226.154 219.497 226.069 219.412 226.045 219.302C225.765 216.918 227.602 209.777 227.687 209.473C227.711 209.364 227.833 209.291 227.954 209.315C228.064 209.34 228.137 209.461 228.113 209.583C228.088 209.656 226.215 216.942 226.483 219.253C226.495 219.375 226.41 219.485 226.3 219.497C226.276 219.497 226.264 219.497 226.264 219.497Z" fill="#5D2866"/>
<path d="M214.357 244.056C213.858 244.02 209.637 243.691 208.92 242.304C208.81 242.086 208.725 241.721 209.005 241.271C209.102 241.112 209.26 241.015 209.455 240.979C210.732 240.76 214.102 243.375 214.479 243.667C214.552 243.728 214.576 243.825 214.552 243.91C214.528 243.995 214.455 244.056 214.357 244.056ZM209.662 241.392C209.625 241.392 209.577 241.392 209.54 241.404C209.443 241.429 209.394 241.465 209.382 241.502C209.2 241.806 209.26 242 209.321 242.11C209.747 242.937 212.143 243.375 213.64 243.557C212.447 242.694 210.501 241.392 209.662 241.392Z" fill="#231F20"/>
<path d="M235.839 191.556C235.815 191.556 235.779 191.556 235.754 191.531L235.195 191.276C235.085 191.227 235.037 191.105 235.085 190.996C235.134 190.887 235.268 190.838 235.365 190.887L235.925 191.142C236.034 191.191 236.083 191.312 236.034 191.422C235.998 191.507 235.925 191.556 235.839 191.556Z" fill="#F48462"/>
<path d="M217.239 233.266H239.269C240.047 233.266 240.68 232.634 240.68 231.855V216.942C240.68 216.164 240.047 215.531 239.269 215.531H217.239C216.461 215.531 215.828 216.164 215.828 216.942V231.855C215.828 232.634 216.461 233.266 217.239 233.266Z" fill="#8B558E"/>
<path d="M218.868 233.266H240.8C241.579 233.266 242.211 232.634 242.211 231.855V216.942C242.211 216.164 241.579 215.531 240.8 215.531H218.868C218.09 215.531 217.457 216.164 217.457 216.942V231.855C217.457 232.634 218.09 233.266 218.868 233.266Z" fill="#E527BB"/>
<path d="M228.881 226.491C230.037 226.491 230.974 225.554 230.974 224.399C230.974 223.243 230.037 222.307 228.881 222.307C227.726 222.307 226.789 223.243 226.789 224.399C226.789 225.554 227.726 226.491 228.881 226.491Z" fill="white"/>
<path d="M239.256 191.811C239.219 191.811 239.183 191.799 239.146 191.786L238.599 191.458C238.502 191.397 238.465 191.263 238.526 191.166C238.587 191.057 238.72 191.032 238.818 191.093L239.365 191.422C239.462 191.482 239.499 191.616 239.438 191.714C239.402 191.774 239.329 191.811 239.256 191.811Z" fill="#F48462"/>
<path d="M247.176 223.608C247.176 223.608 242.809 222.185 242.225 222.002C242.225 222.002 242.164 223.572 242.359 223.851C242.554 224.131 233.941 225.457 233.966 226.284C233.99 227.111 234.793 227.306 234.793 227.306C234.793 227.306 233.066 227.671 233.528 228.51C233.99 229.337 234.793 229.374 234.793 229.374C234.793 229.374 233.102 230.201 234.793 231.247C236.484 232.293 244.804 232.95 247.48 230.286C249.426 228.316 247.176 223.608 247.176 223.608Z" fill="#F48462"/>
<path d="M243.259 192.297C243.259 192.297 240.4 191.75 239.208 189.901C238.113 188.198 237.736 186.264 237.736 186.264C237.736 186.264 237.128 186.568 236.204 187.578C235.279 188.587 235.243 189.378 235.243 189.378C235.243 189.378 234.221 185.692 237.919 184.439C241.617 183.186 244.633 185.729 245.485 188.04C246.324 190.339 243.259 192.297 243.259 192.297Z" fill="black"/>
<path d="M244.586 221.054L244.805 232.111C244.805 232.111 246.277 233.352 251.86 229.338C259.074 224.168 254.78 219.387 254.78 219.387L252.152 217.514L244.586 221.054Z" fill="#A78BEF"/>
<path d="M234.779 227.513C234.669 227.513 234.584 227.428 234.56 227.318C234.548 227.197 234.633 227.087 234.754 227.075L239.681 226.503C239.803 226.479 239.912 226.576 239.924 226.698C239.936 226.82 239.851 226.929 239.73 226.941L234.803 227.513C234.791 227.513 234.779 227.513 234.779 227.513Z" fill="black"/>
<path d="M239.692 229.581H234.766C234.644 229.581 234.547 229.483 234.547 229.362C234.547 229.24 234.644 229.143 234.766 229.143H239.692C239.814 229.143 239.911 229.24 239.911 229.362C239.911 229.483 239.814 229.581 239.692 229.581Z" fill="black"/>
<path d="M230.059 202.065C230.059 202.065 232.005 203.513 234.17 204.571C236.335 205.642 237.722 206.007 237.722 206.007C237.722 206.007 243.038 205.119 245.373 204.401C247.709 203.695 249.254 203.075 249.254 203.075L244.692 199.195L239.036 201.773L235.107 200.168C235.107 200.168 230.959 201.08 230.059 202.065Z" fill="#A78BEF"/>
<path d="M241.411 209.923C241.314 209.923 241.229 209.863 241.204 209.765L240.073 206.067C240.037 205.958 240.097 205.836 240.219 205.8C240.341 205.763 240.45 205.824 240.487 205.946L241.618 209.644C241.654 209.753 241.594 209.875 241.472 209.911C241.46 209.911 241.435 209.923 241.411 209.923Z" fill="#5D2866"/>
<path d="M234.427 209.923C234.403 209.923 234.391 209.923 234.366 209.911C234.257 209.875 234.184 209.765 234.22 209.644L235.267 205.946C235.303 205.836 235.425 205.763 235.534 205.8C235.644 205.836 235.717 205.946 235.68 206.067L234.634 209.765C234.598 209.85 234.512 209.923 234.427 209.923Z" fill="#5D2866"/>
<path d="M243.04 220.92C242.967 220.92 242.882 220.871 242.845 220.798C242.797 220.689 242.833 220.567 242.943 220.506C243.222 220.36 249.888 217.039 253.331 216.796C253.44 216.784 253.55 216.881 253.562 216.991C253.574 217.112 253.477 217.21 253.367 217.222C249.998 217.465 243.21 220.859 243.137 220.896C243.101 220.908 243.076 220.92 243.04 220.92Z" fill="#5D2866"/>
<path d="M247.404 218.949C247.356 218.949 247.319 218.937 247.283 218.913C247.21 218.852 247.173 218.755 247.21 218.657C247.38 218.231 248.888 214.521 250.652 214.57C251.005 214.582 251.139 214.753 251.187 214.886C251.455 215.701 248.73 217.976 247.55 218.913C247.502 218.937 247.453 218.949 247.404 218.949ZM250.603 214.996C249.618 214.996 248.56 216.76 247.964 218.013C249.618 216.626 250.847 215.324 250.774 215.02C250.774 215.02 250.749 215.008 250.64 214.996C250.616 214.996 250.603 214.996 250.603 214.996Z" fill="#5D2866"/>
<path d="M269.34 264.589H265.18C265.058 264.589 264.961 264.492 264.961 264.37C264.961 264.249 265.058 264.151 265.18 264.151H269.34C269.462 264.151 269.559 264.249 269.559 264.37C269.547 264.492 269.45 264.589 269.34 264.589Z" fill="#5D2866"/>
<path d="M272.086 267.533H266.235C266.113 267.533 266.016 267.436 266.016 267.314C266.016 267.193 266.113 267.095 266.235 267.095H272.086C272.207 267.095 272.305 267.193 272.305 267.314C272.292 267.436 272.195 267.533 272.086 267.533Z" fill="#5D2866"/>
<path d="M236.153 262.801C236.141 262.801 236.117 262.801 236.105 262.801C235.983 262.777 235.922 262.655 235.947 262.546L236.689 259.517C236.713 259.407 236.835 259.334 236.944 259.359C237.066 259.383 237.127 259.505 237.102 259.614L236.36 262.643C236.336 262.74 236.251 262.801 236.153 262.801Z" fill="#5D2866"/>
<path d="M238.185 266.025C238.173 266.025 238.148 266.025 238.136 266.025C238.015 266 237.942 265.879 237.978 265.769L238.976 261.329C239 261.208 239.122 261.135 239.231 261.171C239.353 261.196 239.426 261.317 239.389 261.427L238.392 265.867C238.367 265.952 238.282 266.025 238.185 266.025Z" fill="#5D2866"/>
<path d="M219.95 224.788C219.743 224.399 219.439 224.095 219.074 223.839C217.87 223 214.062 221.248 212.931 222.319C211.848 223.34 213.928 224.387 213.928 224.387C213.928 224.387 212.08 223.888 212.177 225.262C212.25 226.406 213.43 226.783 213.43 226.783C213.43 226.783 211.459 226.442 212.177 228.097C212.895 229.739 216.97 231.211 218.466 231.162C219.962 231.113 218.904 229.155 218.904 229.155C218.904 229.155 220.509 228.887 220.509 227.999C220.509 227.051 219.244 226.698 219.244 226.698C219.244 226.698 220.68 226.175 219.95 224.788Z" fill="#F48462"/>
<path d="M218.785 226.795C218.761 226.795 218.725 226.795 218.7 226.771L213.859 224.581C213.749 224.533 213.701 224.411 213.749 224.301C213.798 224.192 213.932 224.143 214.029 224.192L218.87 226.382C218.98 226.43 219.029 226.552 218.98 226.661C218.943 226.746 218.858 226.795 218.785 226.795Z" fill="black"/>
<path d="M218.322 229.143C218.297 229.143 218.261 229.143 218.237 229.131L213.359 227.002C213.249 226.953 213.201 226.832 213.249 226.722C213.298 226.613 213.42 226.564 213.529 226.613L218.407 228.741C218.516 228.79 218.565 228.912 218.516 229.021C218.48 229.094 218.395 229.143 218.322 229.143Z" fill="black"/>
<path d="M163.544 179.975H108.099C105.958 179.975 104.219 178.236 104.219 176.095V160.099C104.219 157.958 105.958 156.219 108.099 156.219H163.556C165.697 156.219 167.436 157.958 167.436 160.099V176.083C167.436 178.224 165.697 179.975 163.544 179.975Z" fill="#A78BEF"/>
<path d="M483.002 153.932H516.843C518.4 153.932 519.665 152.666 519.665 151.109V133.97C519.665 132.413 518.4 131.148 516.843 131.148H483.002C481.445 131.148 480.18 132.413 480.18 133.97V151.109C480.18 152.666 481.445 153.932 483.002 153.932Z" fill="#E527BB"/>
<path d="M491.14 151.085L487.223 161.352L499.436 152.168L491.14 151.085Z" fill="#E527BB"/>
<path d="M49.0182 132.109H15.7005C14.2164 132.109 13 130.892 13 129.408V113.522C13 112.026 14.2164 110.822 15.7005 110.822H49.0182C50.5144 110.822 51.7187 112.038 51.7187 113.522V129.396C51.7187 130.892 50.5144 132.109 49.0182 132.109Z" fill="#E527BB"/>
<path d="M34.5538 129.469L38.4585 139.748L26.2578 130.564L34.5538 129.469Z" fill="#E527BB"/>
<path d="M369.567 188.49C369.567 188.49 366.939 188.685 367.779 192.395C368.618 196.105 371.002 191.495 371.002 191.495L369.567 188.49Z" fill="#FFA98F"/>
<path d="M343.671 259.991C344.182 260.283 373.766 258.751 374.423 258.142C374.666 257.923 374.641 256.512 374.459 254.517C374.118 250.868 372.05 244.652 370.919 240.808C370.919 240.808 360.567 241.502 359.643 242.098C358.719 242.694 348.744 251.111 348.744 251.111C348.744 251.111 344.936 252.559 343.574 254.809C343.173 255.466 342.978 256.172 342.905 256.829C342.723 258.41 343.319 259.797 343.671 259.991Z" fill="#A78BEF"/>
<path d="M343.672 259.991C344.183 260.283 373.766 258.75 374.423 258.142C374.666 257.923 374.642 256.512 374.459 254.517L342.893 256.816C342.723 258.41 343.319 259.797 343.672 259.991Z" fill="white"/>
<path d="M352.162 248.496C352.052 248.496 351.955 248.411 351.943 248.302C351.93 248.18 352.016 248.083 352.137 248.07L360.153 247.426L356.443 244.993C356.346 244.932 356.322 244.798 356.382 244.701C356.443 244.604 356.577 244.579 356.674 244.64L360.92 247.414C360.993 247.462 361.029 247.56 361.005 247.645C360.981 247.73 360.908 247.803 360.81 247.803L352.174 248.496H352.162Z" fill="white"/>
<path d="M379.871 213.451C379.871 213.451 363.449 201.834 349.278 205.398C335.106 208.962 355.798 243.436 355.798 243.436L376.404 243.484L374.397 233.607L399.127 233.558L388.215 218.11L379.871 213.451Z" fill="#231F20"/>
<path d="M360.872 215.507C360.799 215.507 360.726 215.47 360.69 215.409C360.677 215.385 358.853 212.527 356.42 210.459C356.335 210.386 356.323 210.24 356.396 210.155C356.469 210.069 356.602 210.057 356.7 210.13C359.181 212.247 361.03 215.154 361.054 215.178C361.115 215.276 361.091 215.409 360.982 215.47C360.945 215.507 360.909 215.507 360.872 215.507Z" fill="#431949"/>
<path d="M386.21 186.921L368.11 201.311C368.11 201.311 367.964 210.848 376.929 213.451C385.881 216.054 386.928 205.204 386.928 205.204L386.21 186.921Z" fill="#A78BEF"/>
<path d="M374.591 198.854C374.591 198.854 375.029 204.206 370.759 203.695C366.49 203.184 366.757 197.054 366.757 197.054L374.591 198.854Z" fill="#FFA98F"/>
<path d="M407.896 226.126C407.896 226.126 416.119 196.457 409.198 188.295C402.276 180.133 386.207 186.933 386.207 186.933L378.52 214.156L407.896 226.126Z" fill="#A78BEF"/>
<path d="M396.088 205.958C396.088 205.958 391.94 199.377 389.921 198.623C387.901 197.869 383.036 198.866 383.023 199.45C383.023 200.034 387.536 200.739 387.536 200.739C387.536 200.739 384.994 205.179 384.958 206.165C384.921 207.162 387.208 210.069 387.707 210.349C388.205 210.641 389.47 209.023 389.47 209.023C389.47 209.023 390.869 210.714 392.828 211.225C394.786 211.748 397.049 208.768 397.049 208.768L396.088 205.958Z" fill="#FFA98F"/>
<path d="M389.479 209.254C389.443 209.254 387.788 208.974 387.788 208.974C387.667 208.95 387.594 208.841 387.618 208.731C387.642 208.61 387.74 208.537 387.861 208.561L388.859 208.731L388.019 207.88C387.934 207.795 387.934 207.661 388.019 207.576C388.104 207.49 388.238 207.49 388.323 207.576L389.625 208.901C389.686 208.962 389.71 209.072 389.662 209.157C389.625 209.206 389.552 209.254 389.479 209.254Z" fill="black"/>
<path d="M390.248 201.421C390.212 201.421 387.499 200.958 387.499 200.958C387.378 200.934 387.305 200.824 387.329 200.715C387.353 200.593 387.451 200.52 387.572 200.545L390.285 200.995C390.406 201.019 390.479 201.129 390.455 201.238C390.443 201.348 390.358 201.421 390.248 201.421Z" fill="black"/>
<path d="M403.214 179.938L403.081 185.23C403.081 185.23 402.083 186.726 398.981 186.909C396.67 187.042 395.867 186.495 395.867 186.495L396.256 183.819L396.634 181.216L402.253 180.121L403.214 179.938Z" fill="#FFA98F"/>
<path d="M402.179 180.571C402.167 180.705 402.106 180.875 402.008 181.058C400.768 183.563 397.544 184.05 396.23 184.135L396.608 181.641L402.179 180.571Z" fill="black"/>
<path d="M395.952 170.025C395.952 170.025 393.129 176.326 394.103 179.878C395.064 183.442 398.311 182.907 400.246 182.238C402.192 181.569 403.092 180.389 403.092 180.389C403.092 180.389 404.892 181.021 406.121 179.342C407.349 177.676 406.62 175.73 405.586 175.28C404.552 174.83 403.323 175.559 403.323 175.559L404.296 173.735C404.296 173.747 400.331 164.381 395.952 170.025Z" fill="#FFA98F"/>
<path d="M396.169 178.078C396.072 178.078 395.987 178.017 395.963 177.932C395.549 176.569 396.51 175.195 396.546 175.134C396.619 175.037 396.753 175.012 396.851 175.085C396.948 175.158 396.972 175.292 396.899 175.389C396.887 175.401 396.023 176.654 396.376 177.81C396.413 177.919 396.352 178.041 396.23 178.078C396.206 178.078 396.182 178.078 396.169 178.078Z" fill="#FFA98F"/>
<path d="M403.579 178.552C403.53 178.552 403.469 178.528 403.433 178.491C403.348 178.406 403.348 178.272 403.42 178.187L405.148 176.375C405.233 176.289 405.367 176.289 405.452 176.362C405.537 176.448 405.537 176.581 405.464 176.666L403.737 178.479C403.7 178.54 403.639 178.552 403.579 178.552Z" fill="black"/>
<path d="M405.404 178.078C405.368 178.078 404.188 177.895 404.188 177.895C404.066 177.883 403.993 177.761 404.005 177.652C404.017 177.53 404.127 177.457 404.249 177.469L405.441 177.652C405.562 177.664 405.635 177.786 405.623 177.895C405.599 177.992 405.501 178.078 405.404 178.078Z" fill="black"/>
<path d="M373.011 202.017L378.619 201.554C379.251 201.506 379.725 200.946 379.677 200.302L378.594 187.225C378.546 186.593 377.986 186.118 377.341 186.167L371.734 186.629C371.101 186.678 370.627 187.237 370.675 187.882L371.758 200.958C371.819 201.591 372.378 202.065 373.011 202.017Z" fill="white"/>
<path d="M371.866 202.114L377.474 201.652C378.107 201.603 378.581 201.043 378.532 200.399L377.45 187.322C377.401 186.69 376.841 186.215 376.197 186.264L370.589 186.726C369.957 186.775 369.482 187.334 369.531 187.979L370.613 201.056C370.674 201.688 371.234 202.163 371.866 202.114Z" fill="#E527BB"/>
<path d="M403.323 175.584C403.323 175.584 402.667 176.01 402.192 175.268C401.718 174.526 402.764 172.336 402.764 172.336C402.764 172.336 400.805 172.774 399.601 172.129C398.397 171.484 397.801 169.696 397.801 169.696C397.801 169.696 396.901 171.545 394.237 170.73C391.573 169.903 391.062 166.266 393.92 165.536C396.779 164.806 398.324 166.071 398.324 166.071C398.324 166.071 398.689 163.432 402.216 164.745C405.428 165.938 405.963 169.964 405.963 169.964C405.963 169.964 407.897 170.061 408.262 172.153C408.627 174.258 406.17 175.766 406.17 175.766C406.17 175.766 404.771 174.927 403.323 175.584Z" fill="black"/>
<path d="M399.04 175.73C398.894 175.718 398.809 175.608 398.821 175.487L398.98 174.307C398.992 174.185 399.089 174.112 399.223 174.124C399.345 174.136 399.43 174.246 399.405 174.367L399.247 175.547C399.235 175.645 399.138 175.73 399.04 175.73Z" fill="#FFA98F"/>
<path d="M395.539 175.438C395.393 175.413 395.308 175.304 395.332 175.195L395.503 174.015C395.515 173.893 395.624 173.82 395.746 173.832C395.867 173.844 395.94 173.954 395.928 174.075L395.758 175.255C395.734 175.365 395.649 175.438 395.539 175.438Z" fill="#FFA98F"/>
<path d="M400.138 173.467C400.065 173.467 399.98 173.431 399.944 173.346C399.664 172.798 398.91 172.944 398.873 172.956C398.764 172.981 398.642 172.908 398.618 172.786C398.594 172.664 398.667 172.555 398.788 172.531C398.837 172.518 399.895 172.299 400.333 173.151C400.382 173.26 400.345 173.382 400.236 173.443C400.211 173.467 400.175 173.467 400.138 173.467Z" fill="#FFA98F"/>
<path d="M396.732 172.737C396.659 172.737 396.599 172.701 396.55 172.64C396.44 172.482 396.319 172.397 396.173 172.385C395.881 172.348 395.528 172.579 395.419 172.677C395.333 172.75 395.188 172.75 395.115 172.652C395.042 172.567 395.042 172.433 395.139 172.348C395.163 172.336 395.686 171.886 396.234 171.947C396.513 171.983 396.732 172.129 396.915 172.397C396.988 172.494 396.951 172.628 396.854 172.701C396.818 172.725 396.769 172.737 396.732 172.737Z" fill="#FFA98F"/>
<path d="M368.035 195.46C368.035 195.46 364.288 195.034 365.444 193.307C366.6 191.58 373.375 190.765 374.093 192.784C374.81 194.803 368.035 195.46 368.035 195.46Z" fill="#FFA98F"/>
<path d="M368.437 198.55C368.437 198.55 364.691 198.124 365.846 196.397C367.002 194.669 373.777 193.854 374.495 195.874C375.225 197.893 368.437 198.55 368.437 198.55Z" fill="#FFA98F"/>
<path d="M370.603 201.141C369.8 201.408 368.936 201.494 368.109 201.311C367.367 201.153 366.722 200.776 367.099 199.937C367.841 198.258 373.632 196.518 374.568 198.173C375.262 199.414 372.208 200.606 370.603 201.141Z" fill="#FFA98F"/>
<path d="M367.599 195.046C367.489 195.046 367.392 194.961 367.38 194.852C367.368 194.73 367.465 194.633 367.575 194.621L371.929 194.292C372.063 194.28 372.148 194.377 372.16 194.487C372.173 194.609 372.075 194.706 371.966 194.718L367.611 195.046H367.599Z" fill="black"/>
<path d="M368.302 198.477C368.193 198.477 368.095 198.392 368.083 198.282C368.071 198.161 368.168 198.063 368.278 198.051L372.632 197.723C372.742 197.711 372.851 197.808 372.864 197.917C372.876 198.039 372.778 198.136 372.669 198.148L368.314 198.477H368.302Z" fill="black"/>
<path d="M401.4 226.722C401.376 226.722 401.364 226.722 401.339 226.71C401.218 226.673 401.145 226.552 401.181 226.43L401.911 223.681C401.948 223.559 402.069 223.486 402.191 223.523C402.313 223.559 402.386 223.681 402.349 223.803L401.619 226.552C401.595 226.649 401.498 226.722 401.4 226.722Z" fill="#534579"/>
<path d="M379.786 219.801C379.652 219.801 379.555 219.691 379.555 219.569L379.628 216.638C379.628 216.516 379.713 216.419 379.859 216.419C379.98 216.419 380.09 216.528 380.078 216.65L380.005 219.582C380.017 219.703 379.92 219.801 379.786 219.801Z" fill="#534579"/>
<path d="M382.219 221.625C382.098 221.625 381.988 221.528 381.988 221.394L382 218.28C382 218.159 382.098 218.049 382.232 218.049C382.353 218.049 382.463 218.146 382.463 218.28L382.451 221.394C382.438 221.528 382.341 221.625 382.219 221.625Z" fill="#534579"/>
<path d="M397.667 179.865C397.533 179.865 397.387 179.853 397.241 179.805C397.131 179.78 397.058 179.659 397.083 179.537C397.107 179.415 397.229 179.355 397.35 179.379C398.275 179.622 398.822 178.746 398.834 178.71C398.895 178.613 399.029 178.576 399.126 178.637C399.224 178.698 399.26 178.832 399.199 178.929C399.005 179.294 398.445 179.865 397.667 179.865Z" fill="#FFA98F"/>
<path d="M316.873 248.691C317.116 249.226 341.858 265.514 342.746 265.416C343.062 265.38 343.889 264.237 344.923 262.509C346.809 259.371 348.828 253.131 350.191 249.36C350.191 249.36 341.432 243.788 340.35 243.716C339.243 243.643 326.227 244.518 326.227 244.518C326.227 244.518 322.298 243.436 319.877 244.433C319.16 244.725 318.588 245.175 318.138 245.662C317.055 246.854 316.702 248.314 316.873 248.691Z" fill="#A78BEF"/>
<path d="M316.873 248.691C317.116 249.226 341.858 265.514 342.746 265.417C343.062 265.38 343.89 264.237 344.923 262.509L318.126 245.674C317.055 246.854 316.703 248.314 316.873 248.691Z" fill="white"/>
<path d="M337.201 249.104C337.164 249.104 337.128 249.092 337.091 249.068L329.72 244.506C329.623 244.445 329.586 244.312 329.647 244.214C329.708 244.117 329.842 244.081 329.939 244.141L336.775 248.375L335.218 244.214C335.182 244.105 335.23 243.983 335.34 243.935C335.449 243.898 335.571 243.947 335.62 244.056L337.396 248.8C337.432 248.885 337.408 248.983 337.335 249.044C337.298 249.08 337.25 249.104 337.201 249.104Z" fill="white"/>
<path d="M407.896 226.126C407.896 226.126 372.486 208.111 364.676 210.69C354.422 214.059 335.859 241.854 335.859 241.854L352.135 257.607C352.135 257.607 368.995 234.86 371.695 235.152C374.821 235.505 392.374 242.888 398.627 240.881C404.867 238.862 407.896 226.126 407.896 226.126Z" fill="#231F20"/>
<path d="M371.126 235.359C371.066 235.359 371.017 235.334 370.968 235.298C370.603 234.921 367.38 231.539 367.891 230.189C367.976 229.958 368.207 229.678 368.815 229.629C369.363 229.581 369.825 229.763 370.214 230.14C371.564 231.478 371.345 235.018 371.345 235.164C371.345 235.249 371.285 235.322 371.199 235.346C371.175 235.359 371.151 235.359 371.126 235.359ZM368.973 230.043C368.937 230.043 368.888 230.043 368.852 230.043C368.389 230.079 368.329 230.262 368.304 230.323C368.012 231.077 369.642 233.206 370.932 234.604C370.944 233.595 370.847 231.344 369.922 230.42C369.642 230.177 369.338 230.043 368.973 230.043Z" fill="#431949"/>
<path d="M405.649 185.595C405.649 185.595 430.099 196.178 425.854 214.436C421.803 231.831 393.898 216.638 393.898 216.638L395.273 202.978L408.301 204.364L405.649 185.595Z" fill="#A78BEF"/>
<path d="M412.666 203.951C412.654 203.951 412.642 203.951 412.617 203.951C405.477 202.479 397.388 202.966 397.302 202.966C397.169 202.966 397.084 202.88 397.071 202.759C397.059 202.637 397.157 202.54 397.278 202.528C397.363 202.528 405.501 202.029 412.702 203.513C412.824 203.537 412.897 203.647 412.873 203.768C412.861 203.878 412.763 203.951 412.666 203.951Z" fill="white"/>
<path d="M406.085 202.88C405.902 202.88 405.768 202.856 405.732 202.734C405.707 202.649 405.732 202.552 405.805 202.491C405.926 202.406 408.773 200.253 410.451 200.484C410.841 200.533 411.145 200.715 411.364 200.995C411.619 201.335 411.571 201.603 411.485 201.773C410.962 202.807 407.179 202.88 406.085 202.88ZM410.172 200.897C409.065 200.897 407.459 201.883 406.62 202.442C408.505 202.394 410.829 202.126 411.108 201.579C411.121 201.542 411.169 201.457 411.023 201.262C410.877 201.068 410.67 200.958 410.403 200.91C410.318 200.91 410.245 200.897 410.172 200.897Z" fill="white"/>
<path d="M398.252 187.067C397.498 187.067 396.683 186.957 395.82 186.702C395.71 186.665 395.637 186.544 395.674 186.434C395.71 186.325 395.832 186.252 395.941 186.288C400.004 187.517 402.911 185.096 402.948 185.072C403.033 184.999 403.179 185.011 403.252 185.096C403.325 185.181 403.325 185.327 403.228 185.4C403.203 185.412 401.233 187.067 398.252 187.067Z" fill="white"/>
<path d="M406.753 221.613C406.729 221.613 406.704 221.613 406.68 221.601C406.595 221.564 398.019 218.268 393.774 215.482C393.676 215.422 393.652 215.288 393.713 215.19C393.774 215.093 393.907 215.069 394.005 215.13C398.214 217.891 406.741 221.175 406.826 221.212C406.935 221.26 406.996 221.382 406.947 221.491C406.923 221.564 406.838 221.613 406.753 221.613Z" fill="white"/>
<path d="M378.654 213.256C378.52 213.244 378.422 213.135 378.435 213.025C378.824 209.108 380.697 203.695 380.721 203.634C380.758 203.525 380.88 203.464 381.001 203.501C381.111 203.537 381.172 203.659 381.135 203.78C381.111 203.829 379.25 209.193 378.873 213.062C378.86 213.183 378.763 213.256 378.654 213.256Z" fill="white"/>
<path d="M514.006 140.575H485.846C485.286 140.575 484.824 140.125 484.824 139.554C484.824 138.994 485.274 138.532 485.846 138.532H514.006C514.566 138.532 515.028 138.982 515.028 139.554C515.028 140.113 514.566 140.575 514.006 140.575Z" fill="white"/>
<path d="M514.006 146.536H485.846C485.286 146.536 484.824 146.086 484.824 145.514C484.824 144.942 485.274 144.492 485.846 144.492H514.006C514.566 144.492 515.028 144.942 515.028 145.514C515.028 146.086 514.566 146.536 514.006 146.536Z" fill="white"/>
<path d="M46.4397 119.507H18.2796C17.7201 119.507 17.2578 119.057 17.2578 118.485C17.2578 117.913 17.7079 117.463 18.2796 117.463H46.4397C46.9993 117.463 47.4615 117.913 47.4615 118.485C47.4615 119.057 47.0115 119.507 46.4397 119.507Z" fill="#FFEEEB"/>
<path d="M46.4397 125.467H18.2796C17.7201 125.467 17.2578 125.017 17.2578 124.445C17.2578 123.886 17.7079 123.424 18.2796 123.424H46.4397C46.9993 123.424 47.4615 123.874 47.4615 124.445C47.4615 125.005 47.0115 125.467 46.4397 125.467Z" fill="#FFEEEB"/>
</g>
<path d="M475.047 89.0938C491.089 89.0938 504.094 76.0891 504.094 60.0469C504.094 44.0047 491.089 31 475.047 31C459.005 31 446 44.0047 446 60.0469C446 76.0891 459.005 89.0938 475.047 89.0938Z" fill="#A78BEF"/>
<path d="M475.05 36.3452C488.14 36.3455 498.751 46.9575 498.751 60.0474C498.751 73.1371 488.139 83.7483 475.05 83.7485C461.96 83.7485 451.348 73.1372 451.348 60.0474C451.348 46.9573 461.96 36.3452 475.05 36.3452Z" fill="white" stroke="#E527BB"/>
<path d="M475.051 37.9392V44.903" stroke="#E527BB" stroke-width="1.0153" stroke-miterlimit="10" stroke-linecap="round"/>
<path d="M497.16 60.0469H490.191" stroke="#E527BB" stroke-width="1.0153" stroke-miterlimit="10" stroke-linecap="round"/>
<path d="M475.051 82.1596V75.1909" stroke="#E527BB" stroke-width="1.0153" stroke-miterlimit="10" stroke-linecap="round"/>
<path d="M452.941 60.0469H459.905" stroke="#E527BB" stroke-width="1.0153" stroke-miterlimit="10" stroke-linecap="round"/>
<path d="M490.682 44.4126L485.758 49.3412" stroke="#E527BB" stroke-width="1.0153" stroke-miterlimit="10" stroke-linecap="round"/>
<path d="M490.682 75.6813L485.758 70.7576" stroke="#E527BB" stroke-width="1.0153" stroke-miterlimit="10" stroke-linecap="round"/>
<path d="M459.414 75.6813L464.343 70.7527" stroke="#E527BB" stroke-width="1.0153" stroke-miterlimit="10" stroke-linecap="round"/>
<path d="M459.414 44.4126L464.343 49.3412" stroke="#E527BB" stroke-width="1.0153" stroke-miterlimit="10" stroke-linecap="round"/>
<path d="M475.051 48.2429V60.0471H483.501" stroke="#E527BB" stroke-width="1.0153" stroke-miterlimit="10" stroke-linecap="round"/>
<defs>
<clipPath id="clip0_1761_4098">
<rect width="506.676" height="199.517" fill="white" transform="translate(13 79)"/>
</clipPath>
</defs>
</svg>
