<svg width="557" height="339" viewBox="0 0 557 339" fill="none" xmlns="http://www.w3.org/2000/svg">
<g clip-path="url(#clip0_1600_3698)">
<path opacity="0.2" d="M85.5617 333.34C48.2417 295.41 -2.76825 256.24 17.2317 197.07C30.3917 158.15 62.6417 147.31 89.4617 123.31C102.692 111.47 94.3717 94.2299 94.1217 77.1199C93.5618 33.2999 145.942 -0.700057 194.102 0.00994261C246.262 0.779943 268.842 49.7299 312.602 52.3599C329.782 52.6099 345.172 43.1899 360.372 35.7199C405.412 13.5599 476.892 27.6899 480.502 81.2699C481.432 110.21 446.152 156.76 481.502 171.98C509.672 184.11 538.132 188.58 543.212 231.96C549.862 288.74 514.722 319.9 468.952 334.52L85.5617 333.34Z" fill="#999999"/>
<g clip-path="url(#clip1_1600_3698)">
<path d="M284.317 96.7295H233.232C231.384 96.7295 229.891 98.223 229.891 100.071V154.727C229.891 156.574 231.384 158.068 233.232 158.068H284.317C286.165 158.068 287.658 156.574 287.658 154.727V100.071C287.658 98.223 286.165 96.7295 284.317 96.7295Z" fill="#A78BEF"/>
<path d="M254.982 108.687H236.648V109.597H254.982V108.687Z" fill="white"/>
<path d="M264.613 104.226H236.648V105.135H264.613V104.226Z" fill="white"/>
<path d="M184.531 236.562C184.531 236.581 184.541 236.562 184.56 236.524C184.541 236.543 184.531 236.553 184.531 236.562Z" fill="#6174FF"/>
<path d="M184.561 236.524C184.542 236.562 184.532 236.581 184.532 236.562C184.532 236.553 184.542 236.543 184.561 236.524C185.595 234.408 213.1 152.438 167.836 152.438C135.017 152.438 71.0746 328.221 197.256 330.509C197.256 330.509 283.265 331.495 283.265 269.955C283.275 209.009 186.437 235.069 184.561 236.524Z" fill="#E527BB"/>
<g opacity="0.61">
<path d="M134.38 194.094C123.313 216.295 122.25 253.824 122.25 253.824C122.25 283.914 134.246 330.509 197.26 330.509C120.689 288.739 134.38 194.094 134.38 194.094Z" fill="#8B0A6F"/>
</g>
<path d="M180.079 172.256V171.346C179.456 171.643 178.853 171.959 178.25 172.275C178.863 172.266 179.466 172.266 180.079 172.256Z" fill="#0D0062"/>
<path d="M201.502 127.183C201.473 127.145 201.435 127.116 201.406 127.087C201.406 127.154 201.425 127.193 201.502 127.183Z" fill="#0D0062"/>
<path d="M201.419 126.523C201.505 126.657 201.4 126.934 201.409 127.087C201.438 127.126 201.476 127.154 201.505 127.183C201.428 127.193 201.409 127.154 201.409 127.087C200.423 125.986 198.901 125.259 197.503 124.79C195.569 124.139 193.52 123.641 191.491 123.909C190.342 124.062 189.231 124.455 188.159 124.914C186.714 125.527 185.297 126.283 184.196 127.403C183.344 128.284 182.721 129.366 182.195 130.477C180.625 133.808 179.907 137.523 180.069 141.199V171.337C182.157 170.332 184.349 169.537 186.627 169.729C187.681 169.815 188.724 170.121 189.777 170.006C191.462 169.824 192.831 168.628 194.028 167.421C196.182 165.248 198.145 162.883 199.897 160.375C203.266 155.512 205.832 149.988 206.617 144.119C207.402 138.25 206.292 132.027 202.912 127.164C202.548 126.685 201.907 126.159 201.419 126.523Z" fill="black"/>
<path d="M197.274 124.742L192.133 168.178L209.346 171.337C209.346 171.337 209.346 171.337 209.346 146.484C209.346 121.631 197.274 124.742 197.274 124.742Z" fill="black"/>
<path d="M241.897 306.555L232.562 322.247L264.988 330.585L250.781 310.318L241.897 306.555Z" fill="#A78BEF"/>
<path d="M257.928 320.492L252.984 321.501L253.074 321.942L258.018 320.933L257.928 320.492Z" fill="white"/>
<path d="M259.6 322.877L254.656 323.887L254.746 324.328L259.69 323.318L259.6 322.877Z" fill="white"/>
<path d="M266.208 225.581C246.4 222.039 224.601 229.191 224.601 229.191L211.208 201.446L191.984 202.959C191.984 202.959 167.839 245.025 213.821 251.248L248.574 251.717L239.249 308.317L255.591 312.07L279.276 242.622C279.286 242.622 286.007 229.124 266.208 225.581Z" fill="#2D2C2C"/>
<path d="M198.097 221.024C195.703 214.524 196.862 207.219 198.25 202.241C199.762 196.822 201.869 192.897 201.888 192.859L201.486 192.638C201.467 192.677 199.341 196.64 197.809 202.097C196.402 207.152 195.234 214.553 197.666 221.168C199.82 227.017 204.406 231.326 211.347 234.006L255.481 241.742L243.84 306.134L245.477 306.211L257.195 241.368L211.461 233.566C204.702 230.971 200.203 226.749 198.097 221.024Z" fill="white"/>
<path d="M256.303 318.143L251.359 319.153L251.449 319.594L256.393 318.584L256.303 318.143Z" fill="white"/>
<path d="M270.562 308.604L272.841 326.718L303.544 313.381L279.887 306.105L270.562 308.604Z" fill="#A78BEF"/>
<path d="M289.054 308.903L285.773 312.736L286.115 313.029L289.396 309.196L289.054 308.903Z" fill="white"/>
<path d="M291.773 309.76L288.492 313.593L288.834 313.886L292.115 310.053L291.773 309.76Z" fill="white"/>
<path d="M294.562 310.603L291.281 314.436L291.623 314.729L294.904 310.896L294.562 310.603Z" fill="white"/>
<path d="M251.89 224.212C232.216 228.434 218.248 231.593 218.248 231.593L203.246 219.186L174.63 231.373C174.63 231.373 168.206 279.443 213.126 267.801L245.466 255.078L266.633 312.52L281.109 305.943L270.195 230.11C270.195 230.11 271.564 220 251.89 224.212Z" fill="black"/>
<path d="M174.516 232.522L220.737 234.523L214.658 227.353L174.516 232.522Z" fill="black"/>
<path d="M248.914 246.366L206.34 261.598C199.17 262.67 193.167 261.224 188.514 257.289C178.376 248.74 177.887 231.115 177.887 230.933L177.438 230.943C177.438 231.125 177.926 248.951 188.227 257.634C192.985 261.655 199.112 263.139 206.465 262.028L248.656 246.94L270.369 308.671L270.8 308.518L249.01 246.567L248.914 246.366Z" fill="white"/>
<path d="M163.141 275.546C165.199 274.244 173.069 270.616 196.974 270.616C226.126 270.616 238.696 276.006 238.696 276.006C196.323 254.197 167.65 272.358 163.141 275.546Z" fill="#8B0A6F"/>
<path d="M163.138 275.546C162.688 275.834 162.516 276.006 162.516 276.006C162.516 276.006 162.726 275.843 163.138 275.546Z" fill="#3952D1"/>
<path d="M279.3 143.411C279.3 143.411 280.918 141.257 282.392 139.102C283.866 136.948 282.028 135.493 282.028 135.493L264.633 156.957L275.968 162.567L283.79 150.935C284.623 149.586 283.656 147.623 282.516 146.522L279.3 143.411Z" fill="#FBC4D1"/>
<path d="M279.711 143.392C280.094 142.875 281.454 141.036 282.698 139.217C284.268 136.929 282.315 135.35 282.296 135.331L282.143 135.206L264.633 156.756L264.949 157.015L282.191 135.78C282.574 136.173 283.474 137.351 282.363 138.978C280.908 141.103 279.29 143.257 279.281 143.277L279.175 143.42L282.526 146.666C283.684 147.786 284.517 149.624 283.771 150.821L284.115 151.031C284.967 149.653 284.077 147.594 282.813 146.359L279.711 143.392Z" fill="#EA758D"/>
<path d="M284.138 135.8L273.43 149.75L289.065 161.753L299.774 147.803L284.138 135.8Z" fill="#E527BB"/>
<path d="M283.667 147.987L294.38 149.145L295.911 152.218L279.703 150.457L283.896 138.681L285.677 142.233L283.667 147.987Z" fill="white"/>
<path d="M285.763 147.192C284.384 146.235 282.029 149.662 281.177 150.6C280.325 151.539 277.405 152.783 277.405 152.783L276.945 161.064L285.236 149.375C285.236 149.375 286.548 147.738 285.763 147.192Z" fill="#FBC4D1"/>
<path d="M180.95 160.806C175.942 160.394 163.889 162.673 163.889 162.673C154.89 168.254 139.342 182.835 139.342 182.835C139.342 182.835 120.425 156.364 119.649 156.459L107.031 162.864C109.329 166.971 120.856 188.263 128.208 198.861C131.827 204.079 138.347 206.281 143.603 202.71L174.123 185.717L185.42 161.084C185.411 161.074 184.109 161.064 180.95 160.806Z" fill="#A78BEF"/>
<path d="M244.136 182.797C244.136 182.797 228.588 168.216 219.589 162.634C214.477 159.466 204.645 159.341 199.025 159.533C188.886 159.887 178.824 161.916 173.425 165.248L172.86 176.555L170.993 178.058L170.543 208.521L170.266 234.399L223.438 228.205L216.928 198.057C216.928 198.057 218.967 194.314 219.446 191.643C219.618 190.666 219.656 189.738 219.599 188.857L239.866 202.662C245.113 206.233 251.642 204.031 255.261 198.813C262.604 188.215 274.14 166.923 276.438 162.816L263.819 156.412C263.054 156.325 244.136 182.797 244.136 182.797Z" fill="#A78BEF"/>
<path d="M195.168 165.124C185.192 165.124 181.822 161.964 181.822 161.964L175.839 163.573L174.125 165.621L174.623 171.883L179.668 179.139L182.713 183.85L188.754 186.731L198.059 184.903L206.369 180.087L213.846 174.104L215.56 170.504L216.833 162.912L209.299 160.806C209.289 160.806 205.134 165.124 195.168 165.124Z" fill="#A78BEF"/>
<path d="M101.93 136.23C101.7 137.638 103.165 142.635 105.089 146.235C107.014 149.834 110.269 148.733 110.269 148.733C110.269 148.733 106.353 142.52 104.544 136.278C103.96 134.287 102.15 134.823 101.93 136.23Z" fill="#FBC4D1"/>
<path d="M99.3783 137.81C99.1389 139.217 100.537 144.224 102.413 147.853C104.29 151.481 107.564 150.409 107.564 150.409C107.564 150.409 102.815 139.792 101.992 137.887C101.169 135.981 99.6272 136.403 99.3783 137.81Z" fill="#FBC4D1"/>
<path d="M96.8314 139.61C96.5921 141.017 97.9898 146.024 99.8663 149.653C101.743 153.281 105.017 152.209 105.017 152.209C105.017 152.209 100.268 141.592 99.445 139.686C98.6313 137.781 97.0803 138.202 96.8314 139.61Z" fill="#FBC4D1"/>
<path d="M102.265 138.126C102.246 138.04 102.16 137.982 102.073 138.001C101.987 138.021 101.93 138.107 101.949 138.193C101.959 138.231 102.772 141.936 105.472 146.761C105.482 146.781 105.501 146.8 105.52 146.809C105.568 146.848 105.635 146.848 105.692 146.819C105.769 146.771 105.798 146.675 105.75 146.599C103.069 141.821 102.275 138.155 102.265 138.126Z" fill="#E9798C"/>
<path d="M99.7515 139.974C99.7228 139.887 99.6271 139.849 99.5505 139.878C99.4643 139.907 99.426 140.002 99.4547 140.079C99.4643 140.117 100.881 144.138 102.375 146.646C102.384 146.666 102.403 146.685 102.413 146.694C102.461 146.733 102.537 146.733 102.585 146.704C102.662 146.656 102.691 146.56 102.643 146.484C101.168 144.004 99.7611 140.021 99.7515 139.974Z" fill="#E9798C"/>
<path d="M114.147 143.841C114.089 143.458 114.185 141.496 113.17 141.764C112.156 142.032 111.667 143.525 111.572 145.411C111.476 147.297 112.73 150.007 112.73 150.007C112.73 150.007 107.943 146.11 107.216 144.425L100.916 148.446C99.662 145.928 98.4078 143.411 98.0057 142.587C97.125 140.768 95.6506 141.084 95.4879 142.386C95.3251 143.688 96.9431 148.427 98.8961 151.931C101.988 157.474 108.135 162.491 108.135 162.491L118.876 156.948C118.876 156.948 118.675 156.392 117.335 151.673C115.985 146.962 114.204 144.224 114.147 143.841Z" fill="#FBC4D1"/>
<path d="M97.1272 141.391C97.0985 141.304 97.0123 141.256 96.9262 141.285C96.84 141.314 96.7921 141.4 96.8208 141.486C96.8304 141.515 97.8069 144.827 98.9462 147.135C98.9558 147.154 98.9749 147.183 98.9941 147.192C99.0419 147.23 99.109 147.23 99.1568 147.211C99.2334 147.173 99.2717 147.077 99.2334 147.001C98.1133 144.713 97.1368 141.419 97.1272 141.391Z" fill="#E9798C"/>
<path d="M268.385 226.472H223.102V230.943H268.385V226.472Z" fill="#BE1198"/>
<path d="M243.586 230.943H291.157L305.863 195.913H258.291L243.586 230.943Z" fill="#E527BB"/>
<path d="M241.008 230.943H243.593L258.298 195.913H255.991L241.008 230.943Z" fill="#BE1198"/>
<path d="M317.877 230.493H199.164V238.152H317.877V230.493Z" fill="#374169"/>
<path d="M207.325 232.91H198.875V330.858H207.325V232.91Z" fill="#374169"/>
<path d="M317.882 233.312H309.266V330.963H317.882V233.312Z" fill="#374169"/>
<path d="M204.099 133.033C201.83 132.104 199.389 131.376 196.948 131.242C195.713 131.175 194.459 131.204 193.262 131.51C191.653 131.913 190.179 132.803 189.069 134.038C188.59 134.564 188.178 135.158 187.968 135.838C187.24 138.135 188.906 139.179 187.91 141.381C187.46 140.29 187.096 140.759 186.646 139.667C186.551 139.428 186.445 139.179 186.263 138.988C186.072 138.786 185.804 138.672 185.545 138.585C184.559 138.26 183.363 138.289 182.606 139.007C182.243 139.351 182.022 139.83 181.888 140.309C181.687 141.027 181.659 141.793 181.888 142.501C182.118 143.21 182.616 143.832 183.286 144.148C184.109 144.531 185.076 144.32 185.967 144.196V158.834C185.967 158.834 186.062 163.898 192.257 163.898C198.451 163.898 199.197 158.087 199.197 158.087V152.448C201.629 151.749 203.41 149.48 203.975 147.02C204.3 145.613 204.272 144.157 204.252 142.712C204.205 139.485 204.157 136.259 204.099 133.033Z" fill="#FBC4D1"/>
<path d="M190.797 150.6C190.797 150.6 192.396 154.554 199.222 154.851V152.429C199.212 152.438 194.617 153.31 190.797 150.6Z" fill="#E9798C"/>
<path d="M183.535 139.801L183.516 140.251C183.602 140.261 185.727 140.395 185.746 142.386H186.196C186.187 139.964 183.563 139.801 183.535 139.801Z" fill="#37020F"/>
<path d="M185.808 135.445C184.468 139.083 186.976 141.553 186.976 141.553C196.598 136.623 196.042 127.097 196.042 127.097C196.042 127.097 187.158 131.798 185.808 135.445Z" fill="black"/>
<path d="M193.641 129.701C193.641 129.701 198.657 137.35 205.158 139.131C211.658 140.902 205.818 125.68 193.641 129.701Z" fill="black"/>
<path d="M418.358 84.1113C417.171 83.3742 415.648 83.221 414.337 83.7092C413.035 84.1975 411.972 85.3176 411.57 86.6484C411.417 87.1462 411.302 87.8163 411.484 88.3142C411.809 89.2045 411.857 88.8599 412.604 88.8024C413.801 88.7067 414.835 88.8886 415.687 89.8364C416.606 90.8703 416.931 92.2968 417.065 93.6754C417.199 95.054 417.171 96.4518 417.534 97.7921C417.62 98.1272 418.023 98.5197 418.233 98.2421C418.07 97.1602 418.406 96.0018 419.143 95.1881C419.526 94.7572 419.995 94.4222 420.378 94.0009C421.909 92.3255 421.747 89.6736 420.923 87.5483C420.397 86.1984 419.593 84.8772 418.358 84.1113Z" fill="black"/>
<path d="M420.228 83.7763C418.4 84.322 419.319 86.5623 419.52 87.9792C419.721 89.3865 419.922 90.7938 419.951 92.2203C419.979 93.6564 419.826 95.0828 419.491 96.4806C419.06 98.29 418.333 100.109 418.62 101.947C418.716 102.55 418.926 103.163 419.386 103.565C419.845 103.967 420.583 104.101 421.071 103.737C421.368 103.517 421.53 103.173 421.684 102.837C422.526 100.971 423.359 99.1038 424.201 97.2465C425.063 95.3317 425.934 93.3787 426.221 91.3012C426.509 89.2237 426.145 86.9548 424.766 85.3656C423.445 84.3699 422.038 83.2306 420.228 83.7763Z" fill="black"/>
<path d="M401.374 86.0932C400.809 86.6388 400.397 87.3186 400.043 88.0175C399.794 88.5153 399.564 89.0323 399.507 89.5875C399.44 90.2194 399.612 90.8608 399.823 91.464C400.005 91.9714 400.225 92.4596 400.55 92.8905C400.617 92.9766 400.704 93.0724 400.809 93.0915C401.106 93.1489 401.211 92.7277 401.211 92.4213C401.211 91.2055 401.661 89.9035 402.456 88.9748C402.973 88.3717 403.853 88.1419 404.332 87.5579C404.782 87.0026 404.82 85.9304 404.227 85.4134C403.413 84.6762 402.025 85.4709 401.374 86.0932Z" fill="black"/>
<path d="M424.369 319.681L419.773 331.38H448.466L438.442 319.681H424.369Z" fill="#A78BEF"/>
<path d="M436.666 322.907H428.5V323.357H436.666V322.907Z" fill="white"/>
<path d="M436.666 324.908H428.5V325.358H436.666V324.908Z" fill="white"/>
<path d="M436.666 326.919H428.5V327.369H436.666V326.919Z" fill="white"/>
<path d="M355.203 331.38H388.089V319.69H374.896L355.203 331.38Z" fill="#A78BEF"/>
<path d="M391.696 184.309L372.922 319.777H388.891L409.263 227.084L423.777 321.05H438.549L430.91 184.309H391.696Z" fill="black"/>
<path d="M399.529 202.289L399.328 202.691L406.92 206.396L409.036 227.113L409.486 227.065L407.351 206.099L399.529 202.289Z" fill="white"/>
<path d="M421.867 185.907L421.539 186.215L431.426 196.748L431.754 196.44L421.867 185.907Z" fill="white"/>
<path d="M398.783 185.194L389.914 195.762L390.259 196.051L399.128 185.484L398.783 185.194Z" fill="white"/>
<path d="M370.732 321.981L370.469 322.346L374.329 325.128L374.592 324.762L370.732 321.981Z" fill="white"/>
<path d="M368.427 323.373L368.164 323.738L372.024 326.519L372.287 326.154L368.427 323.373Z" fill="white"/>
<path d="M366.06 324.767L365.797 325.132L369.657 327.914L369.92 327.549L366.06 324.767Z" fill="white"/>
<path d="M400.104 115.149C396.447 115.637 392.618 117.198 389.305 119.534C381.934 124.742 375.653 132.564 371.489 137.733C369.134 140.663 367.276 142.98 366.539 143.095L366.587 143.391C367.429 143.248 369.143 141.132 371.718 137.915C375.864 132.755 382.135 124.962 389.468 119.773C392.742 117.466 396.524 115.924 400.133 115.436H400.171L400.133 115.13L400.104 115.149Z" fill="#00898F"/>
<path d="M428.59 114.02C428.255 121.056 421.736 127.107 414.019 126.743C407.059 126.417 404.79 119.285 403.996 113.167C403.105 113.282 392.584 115.35 387.242 119.419C375.217 128.572 349.77 150.878 347.664 151.232C347.387 151.28 354.385 162.941 359.191 158.776C367.903 151.232 388.333 143.401 388.333 143.401C386.888 165.803 386.84 191.298 386.84 191.298C386.84 191.298 396.969 190.934 411.693 190.628C426.427 190.322 435.349 190.628 435.349 190.628L433.243 114.556C433.234 114.565 431.271 114.192 428.59 114.02Z" fill="#A78BEF"/>
<path d="M434.172 138.624L432.908 139.83L430.477 166.837L432.296 163.621C434.373 163.037 435.35 162.577 435.35 162.577L434.354 140.261L434.172 138.624Z" fill="#A78BEF"/>
<path d="M401.734 170.887L405.114 168.235L401.734 165.813V170.887Z" fill="#FF993B"/>
<path d="M429.226 114.039L413.295 121.171L403.999 113.177C403.195 113.053 395.383 116.336 395.383 116.336L403.875 124.522L407.283 127.308L409.265 130.467L421.663 130.218L425.999 127.557L427.924 124.148L431.275 120.242L436.052 116.518C434.625 113.857 429.226 114.039 429.226 114.039Z" fill="#A78BEF"/>
<path d="M403.328 118.136L410.489 124.886L426.247 120.721L429.225 114.039L403.998 113.167L403.328 118.136Z" fill="#A78BEF"/>
<path d="M422.641 93.685C421.875 92.9479 420.65 92.9191 419.635 93.2542C419.367 93.3404 419.099 93.4553 418.898 93.6659C418.716 93.8574 418.61 94.1159 418.505 94.3552C418.046 95.4657 417.672 94.9966 417.213 96.1072C416.198 93.8574 417.902 92.7947 417.155 90.4491C416.935 89.7598 416.514 89.1471 416.025 88.611C414.896 87.3568 413.383 86.4473 411.746 86.0357C410.521 85.7293 409.238 85.691 407.984 85.758C405.485 85.9016 402.986 86.6388 400.669 87.5866C400.612 90.88 400.564 94.1733 400.507 97.4762C400.478 98.9506 400.459 100.444 400.794 101.88C401.368 104.398 403.187 106.715 405.676 107.423V113.187C405.676 113.187 406.442 119.132 412.77 119.132C419.099 119.132 419.194 113.952 419.194 113.952V98.9888C420.113 99.1133 421.1 99.3239 421.942 98.941C422.631 98.625 423.139 97.9836 423.378 97.256C423.617 96.538 423.589 95.7434 423.378 95.0158C423.234 94.5179 423.005 94.0393 422.641 93.685Z" fill="#FBC4D1"/>
<path d="M405.672 107.414V109.884C412.642 109.577 414.279 105.537 414.279 105.537C410.363 108.313 405.672 107.414 405.672 107.414Z" fill="#E9798C"/>
<path d="M418.977 97.1412H419.427C419.436 95.102 421.619 94.9584 421.705 94.9584L421.686 94.5084C421.667 94.4988 418.996 94.6712 418.977 97.1412Z" fill="#37020F"/>
<path d="M412.015 121.592C409.037 121.592 406.845 120.778 405.495 119.161C403.456 116.719 404.059 113.244 404.059 113.215L403.609 113.139C403.58 113.292 402.967 116.853 405.141 119.457C406.577 121.181 408.884 122.052 412.005 122.052C421.856 122.052 422.297 113.952 422.297 113.876L421.847 113.857C421.847 114.163 421.425 121.592 412.015 121.592Z" fill="#E527BB"/>
<path d="M408.354 121.295L402.906 149.116L408.354 159.111L415.716 149.26L414.28 121.669C414.28 121.659 410.814 122.033 408.354 121.295Z" fill="#E527BB"/>
<path d="M363.158 193.557C384.461 193.557 401.731 176.288 401.731 154.985C401.731 133.682 384.461 116.413 363.158 116.413C341.855 116.413 324.586 133.682 324.586 154.985C324.586 176.288 341.855 193.557 363.158 193.557Z" fill="#E527BB"/>
<path d="M363.16 190.082C382.427 190.082 398.046 174.463 398.046 155.196C398.046 135.929 382.427 120.309 363.16 120.309C343.893 120.309 328.273 135.929 328.273 155.196C328.273 174.463 343.893 190.082 363.16 190.082Z" fill="white"/>
<path d="M363.159 120.146C343.839 120.146 328.109 135.866 328.109 155.196C328.109 174.525 343.829 190.245 363.159 190.245C382.478 190.245 398.208 174.525 398.208 155.196C398.208 135.866 382.478 120.146 363.159 120.146ZM363.159 189.919C344.011 189.919 328.435 174.343 328.435 155.196C328.435 136.048 344.011 120.472 363.159 120.472C382.306 120.472 397.882 136.048 397.882 155.196C397.882 174.343 382.306 189.919 363.159 189.919Z" fill="white"/>
<path d="M345.197 123.907L343.547 124.859L345.701 128.59L347.351 127.637L345.197 123.907Z" fill="#A78BEF"/>
<path d="M332.054 137.094L331.102 138.744L334.832 140.898L335.785 139.249L332.054 137.094Z" fill="#A9D4CF"/>
<path d="M335.817 170.872L332.086 173.026L333.039 174.676L336.769 172.521L335.817 170.872Z" fill="#A78BEF"/>
<path d="M347.404 182.43L345.25 186.161L346.9 187.114L349.054 183.382L347.404 182.43Z" fill="#A78BEF"/>
<path d="M380.689 181.473L379.039 182.425L381.193 186.156L382.843 185.204L380.689 181.473Z" fill="#A78BEF"/>
<path d="M391.57 169.189L390.617 170.838L394.348 172.992L395.301 171.343L391.57 169.189Z" fill="#A9D4CF"/>
<path d="M362.614 118.758H361.723C361.474 118.758 361.273 118.959 361.273 119.208V122.655C361.273 122.904 361.474 123.105 361.723 123.105H362.614C362.863 123.105 363.064 122.904 363.064 122.655V119.208C363.064 118.959 362.863 118.758 362.614 118.758Z" fill="#A78BEF"/>
<path d="M330.818 155.081H327.372C327.123 155.081 326.922 155.282 326.922 155.531V156.421C326.922 156.67 327.123 156.871 327.372 156.871H330.818C331.067 156.871 331.268 156.67 331.268 156.421V155.531C331.268 155.282 331.067 155.081 330.818 155.081Z" fill="#A78BEF"/>
<path d="M364.598 186.875H363.708C363.459 186.875 363.258 187.076 363.258 187.325V190.771C363.258 191.02 363.459 191.221 363.708 191.221H364.598C364.847 191.221 365.048 191.02 365.048 190.771V187.325C365.048 187.066 364.847 186.875 364.598 186.875Z" fill="#A78BEF"/>
<path d="M398.936 153.099H395.489C395.24 153.099 395.039 153.3 395.039 153.549V154.439C395.039 154.688 395.24 154.889 395.489 154.889H398.936C399.184 154.889 399.386 154.688 399.386 154.439V153.549C399.386 153.3 399.184 153.099 398.936 153.099Z" fill="#A78BEF"/>
<path d="M393.364 135.376L389.633 137.531L390.585 139.18L394.316 137.026L393.364 135.376Z" fill="#A78BEF"/>
<path d="M379.49 122.915L377.336 126.646L378.986 127.599L381.14 123.868L379.49 122.915Z" fill="#A78BEF"/>
<path d="M340.227 133.268L337.938 135.569L363.11 160.613L365.399 158.313L340.227 133.268Z" fill="#E527BB"/>
<path d="M384.494 138.996L362.562 159.458L363.764 160.746L385.696 140.284L384.494 138.996Z" fill="#E527BB"/>
<path d="M366.681 160.363C368.266 158.778 368.266 156.208 366.681 154.623C365.096 153.038 362.526 153.038 360.941 154.623C359.355 156.208 359.355 158.778 360.941 160.363C362.526 161.949 365.096 161.949 366.681 160.363Z" fill="#E527BB"/>
<path d="M386.755 168.245C387.722 169.106 392.26 170.447 395.965 170.734C399.67 171.031 400.417 167.977 400.417 167.977C400.417 167.977 393.735 167.929 388.067 166.253C386.267 165.727 385.789 167.383 386.755 168.245Z" fill="#FBC4D1"/>
<path d="M386.718 170.983C387.675 171.863 392.203 173.242 395.899 173.587C399.594 173.922 400.389 170.887 400.389 170.887C400.389 170.887 389.925 169.317 388.058 169.02C386.201 168.704 385.76 170.102 386.718 170.983Z" fill="#FBC4D1"/>
<path d="M386.843 173.816C387.8 174.697 392.328 176.076 396.024 176.421C399.719 176.756 400.514 173.721 400.514 173.721C400.514 173.721 390.05 172.151 388.183 171.854C386.326 171.548 385.885 172.945 386.843 173.816Z" fill="#FBC4D1"/>
<path d="M406.15 164.003C402.512 162.922 403.297 160.911 403.115 158.192C403.067 157.484 403.249 155.942 402.857 155.579C402.656 155.387 402.407 155.32 402.167 155.339L400.1 166.1C400.846 166.655 401.823 166.885 401.823 166.885C401.823 166.885 397.275 168.484 395.629 168.206L395.619 175.023C393.072 174.755 390.526 174.477 389.703 174.381C387.874 174.161 387.395 175.454 388.314 176.219C389.233 176.985 393.656 178.067 397.294 178.287C403.058 178.632 412.718 176.076 412.718 176.076L409.434 165.085C409.443 165.085 408.419 164.674 406.15 164.003Z" fill="#FBC4D1"/>
<path d="M396.743 170.274C391.765 169.987 388.567 168.8 388.529 168.79C388.453 168.762 388.366 168.8 388.338 168.876C388.309 168.953 388.347 169.039 388.424 169.068C388.443 169.078 389.745 169.556 391.966 169.987C393.259 170.236 394.867 170.466 396.724 170.571C396.801 170.571 396.877 170.514 396.877 170.437C396.887 170.351 396.82 170.284 396.743 170.274Z" fill="#E9798C"/>
<path d="M395.12 172.62C392.497 172.534 388.754 171.653 388.716 171.643C388.639 171.624 388.562 171.672 388.543 171.749C388.524 171.825 388.572 171.902 388.649 171.921C388.668 171.921 389.395 172.093 390.429 172.294C391.77 172.553 393.617 172.85 395.101 172.907C395.178 172.907 395.245 172.85 395.254 172.763C395.264 172.687 395.197 172.62 395.12 172.62Z" fill="#E9798C"/>
<path d="M393.83 175.482C391.532 175.224 388.545 174.362 388.507 174.353C388.431 174.333 388.344 174.372 388.325 174.448C388.306 174.525 388.344 174.611 388.421 174.63C388.44 174.64 390.192 175.138 392.04 175.501C392.624 175.616 393.227 175.712 393.782 175.779C393.859 175.789 393.935 175.731 393.945 175.655C393.964 175.559 393.907 175.492 393.83 175.482Z" fill="#E9798C"/>
<path d="M444.336 121.975C439.712 115.551 434.265 115.188 434.265 115.188L428.894 133.78L440.42 151.05L408.492 162.424L412.886 177.129L448.998 164.396C455.777 162.012 459.156 154.401 456.399 147.757C452.416 138.126 447.036 125.738 444.336 121.975Z" fill="#A78BEF"/>
<path d="M444.458 121.889C439.853 115.484 434.329 115.092 434.272 115.092L434.253 115.398C434.31 115.398 439.691 115.781 444.209 122.071C446.9 125.814 452.251 138.145 456.263 147.824C457.584 151.003 457.536 154.487 456.129 157.628C454.731 160.768 452.175 163.123 448.948 164.262L412.98 176.938L408.672 162.52L440.648 151.127L429.006 133.693L428.748 133.866L440.169 150.974L408.289 162.328L412.77 177.33L449.035 164.549C452.347 163.381 454.961 160.969 456.397 157.752C457.833 154.535 457.881 150.964 456.531 147.709C452.529 138.002 447.168 125.652 444.458 121.889Z" fill="#3A56DD"/>
<path d="M343.708 137.915C338.739 134.708 334.354 129.672 334.354 129.672C334.354 129.672 332.535 132.229 335.168 134.842C337.801 137.456 341.774 140.031 343.066 140.203C344.349 140.385 345.297 138.94 343.708 137.915Z" fill="#FBC4D1"/>
<path d="M341.64 139.725C340.194 138.509 332.181 131.597 332.181 131.597C332.181 131.597 330.391 134.172 333.062 136.757C335.733 139.342 339.735 141.869 341.018 142.022C342.31 142.185 343.085 140.941 341.64 139.725Z" fill="#FBC4D1"/>
<path d="M339.398 141.486C337.952 140.271 329.939 133.358 329.939 133.358C329.939 133.358 328.149 135.934 330.82 138.519C333.491 141.103 337.492 143.631 338.775 143.784C340.068 143.937 340.843 142.693 339.398 141.486Z" fill="#FBC4D1"/>
<path d="M336.085 127.423L335.357 127.394C334.046 127.346 332.782 127.911 331.93 128.916L327.842 133.751C326.779 135.005 326.76 136.862 327.852 138.078C328.062 138.317 328.311 138.566 328.608 138.825C331.317 141.228 334.802 144.052 335.98 144.244C337.157 144.435 337.827 143.229 336.477 141.994C335.874 141.438 334.017 139.696 332.169 137.954L337.33 133.483C332.476 129.06 336.085 127.423 336.085 127.423Z" fill="#FBC4D1"/>
<path d="M335.019 134.162C334.962 134.105 334.866 134.105 334.809 134.162C334.751 134.22 334.751 134.316 334.809 134.373C335.948 135.551 337.03 136.518 337.978 137.293C339.95 138.901 341.338 139.677 341.357 139.686C341.424 139.725 341.52 139.696 341.558 139.629C341.596 139.562 341.568 139.466 341.501 139.428C341.462 139.409 338.475 137.753 335.019 134.162Z" fill="#E9798C"/>
<path d="M334.306 136.92C334.248 136.862 334.162 136.853 334.095 136.91C334.038 136.968 334.028 137.054 334.085 137.121C334.918 138.03 336.048 139.007 337.015 139.801C338.126 140.711 339.025 141.362 339.045 141.381C339.112 141.429 339.198 141.41 339.246 141.352C339.294 141.285 339.274 141.199 339.217 141.151C339.188 141.113 336.086 138.854 334.306 136.92Z" fill="#E9798C"/>
<path d="M332.976 139.763C332.918 139.706 332.823 139.715 332.765 139.773C332.708 139.83 332.717 139.926 332.775 139.983C333.091 140.28 333.435 140.567 333.79 140.864C335.36 142.147 337.121 143.296 337.14 143.315C337.207 143.363 337.293 143.344 337.341 143.277C337.389 143.21 337.37 143.124 337.303 143.076C337.274 143.047 334.67 141.343 332.976 139.763Z" fill="#E9798C"/>
<path d="M416.784 82.0243C412.045 79.4298 405.353 79.7074 400.939 82.6944C400.097 83.2688 399.312 83.939 398.862 84.7719C397.378 87.5195 399.81 91.081 397.914 93.6371C399.905 90.8895 403.878 89.2619 407.67 89.6449C409.556 89.8364 411.346 90.4778 413.232 90.7267C415.118 90.9756 417.272 90.7267 418.488 89.4821C420.891 87.0217 419.646 83.5943 416.784 82.0243Z" fill="black"/>
<path d="M118.702 70.2871H74.8831C72.6333 70.2871 70.8047 72.1157 70.8047 74.3655V97.2753C70.8047 99.5251 72.6333 101.354 74.8831 101.354H115.801H118.711C120.961 101.354 122.79 99.5251 122.79 97.2753V74.3559C122.78 72.1061 120.952 70.2871 118.702 70.2871Z" fill="#E527BB"/>
<path d="M114.375 99.4964L122.809 107.921L122.781 93.7905L114.375 99.4964Z" fill="#E527BB"/>
<path d="M116.999 79.7747H99.2109V80.6842H116.999V79.7747Z" fill="white"/>
<path d="M116.991 75.4377H89.8594V76.3472H116.991V75.4377Z" fill="white"/>
<path d="M116.991 84.1116H89.8594V85.0211H116.991V84.1116Z" fill="white"/>
<path d="M116.999 94.949H99.2109V95.8585H116.999V94.949Z" fill="white"/>
<path d="M86.8185 94.949H75.9141V95.8585H86.8185V94.949Z" fill="white"/>
<path d="M484.925 56.8743H444.534C442.457 56.8743 440.781 58.5592 440.781 60.6271V81.7466C440.781 83.8241 442.466 85.4995 444.534 85.4995H447.215H484.925C487.003 85.4995 488.678 83.8146 488.678 81.7466V60.6271C488.688 58.5497 487.003 56.8743 484.925 56.8743Z" fill="#A78BEF"/>
<path d="M440.75 91.5693L448.533 83.7955L440.779 78.5396L440.75 91.5693Z" fill="#A78BEF"/>
<path d="M462.507 65.5862H446.117V66.4957H462.507V65.5862Z" fill="white"/>
<path d="M471.124 61.594H446.117V62.5035H471.124V61.594Z" fill="white"/>
<path d="M471.124 69.5881H446.117V70.4976H471.124V69.5881Z" fill="white"/>
<path d="M462.507 79.5735H446.117V80.483H462.507V79.5735Z" fill="white"/>
<path d="M483.974 79.5735H473.922V80.483H483.974V79.5735Z" fill="white"/>
<path d="M221.023 41.499H185.888C184.04 41.499 182.547 42.9925 182.547 44.8402V87.3282C182.547 89.1759 184.04 90.6694 185.888 90.6694H221.023C222.871 90.6694 224.365 89.1759 224.365 87.3282V44.8402C224.365 42.9925 222.871 41.499 221.023 41.499Z" fill="#A78BEF"/>
<path d="M200.83 51.8481H186.805V52.7576H200.83V51.8481Z" fill="white"/>
<path d="M208.202 48.4304H186.805V49.3399H208.202V48.4304Z" fill="white"/>
<path d="M210.666 82.3499H196.641V83.2593H210.666V82.3499Z" fill="white"/>
<path d="M325.467 87.8547V78.0609C325.467 73.7336 321.943 70.2104 317.616 70.2104C313.289 70.2104 309.766 73.7336 309.766 78.0609V87.8547C309.766 90.2194 308.119 93.1298 306.492 94.9679C304.089 97.6869 302.758 101.181 302.758 104.81C302.758 113.005 309.421 119.668 317.616 119.668C325.811 119.668 332.474 113.005 332.474 104.81C332.474 101.181 331.153 97.6773 328.741 94.9679C327.104 93.1298 325.467 90.2194 325.467 87.8547ZM317.607 118.758C309.919 118.758 303.658 112.497 303.658 104.81C303.658 101.401 304.902 98.1177 307.162 95.5711C308.904 93.6085 310.656 90.4587 310.656 87.8547V78.0609C310.656 74.2314 313.777 71.1104 317.607 71.1104C321.436 71.1104 324.557 74.2314 324.557 78.0609V87.8547C324.557 90.4587 326.309 93.6085 328.051 95.5711C330.311 98.1177 331.555 101.401 331.555 104.81C331.555 112.507 325.304 118.758 317.607 118.758Z" fill="white"/>
<path d="M318.479 17H316.555V65.6342H318.479V17Z" fill="#3A56DD"/>
<path d="M318.49 17H317.523V65.6342H318.49V17Z" fill="#E527BB"/>
<path d="M320.695 82.7999C321.087 80.7319 320.925 79.5544 320.216 79.2097C318.694 78.463 315.362 82.1871 314.989 82.6084L314.932 82.6754V82.7616C314.932 82.886 315.018 95.1595 310.834 102.857L310.547 103.393L311.121 103.173C311.198 103.144 318.407 100.454 323.835 103.163L324.362 103.431L324.141 102.885C324.094 102.751 319.259 90.3535 320.695 82.7999ZM311.495 102.56C315.276 95.0924 315.382 83.9391 315.382 82.8381C316.722 81.3255 319.115 79.1714 320.015 79.6118C320.293 79.7459 320.705 80.3394 320.255 82.7137C318.962 89.5014 322.619 100.061 323.529 102.522C318.886 100.502 313.247 102.005 311.495 102.56Z" fill="white"/>
<path d="M317.521 65.2129C311.71 65.2129 307 69.9231 307 75.7343V88.5535H328.043V75.7343C328.043 69.9231 323.333 65.2129 317.521 65.2129Z" fill="#E527BB"/>
<g opacity="0.38">
<path d="M328.952 107.663C327.43 106.562 325.085 108.85 324.644 110.152C324.395 110.889 324.367 111.693 324.118 112.43C323.897 113.053 323.524 113.608 323.026 114.039C322.662 114.355 322.174 114.757 322.337 115.207C322.433 115.484 322.749 115.628 323.036 115.618C323.323 115.609 323.601 115.475 323.859 115.341C325.276 114.594 326.607 113.637 327.631 112.402C328.33 111.55 330.293 108.63 328.952 107.663Z" fill="white"/>
</g>
<g opacity="0.57">
<path d="M306.861 97.5242C305.913 98.9219 305.377 100.377 305.339 102.081C305.329 102.359 305.339 102.646 305.435 102.905C305.53 103.163 305.741 103.393 306.009 103.45C306.268 103.288 306.382 102.981 306.421 102.675C306.449 102.378 306.411 102.072 306.43 101.775C306.478 101.076 306.871 100.415 307.464 100.032C307.991 99.6974 308.69 99.5442 309.006 99.0081C309.111 98.8262 309.159 98.6251 309.178 98.4145C309.302 96.7487 307.675 96.3179 306.861 97.5242Z" fill="white"/>
</g>
<path d="M245.331 144.148H236.781V151.778H245.331V144.148Z" fill="#E527BB"/>
<path d="M245.331 129.548H236.781V137.178H245.331V129.548Z" fill="#E527BB"/>
<path d="M245.331 115.609H236.781V123.239H245.331V115.609Z" fill="#E527BB"/>
<path d="M240.819 134.201L238.981 132.305H237.258L241.011 136.221L244.84 130.276H243.356L240.819 134.201Z" fill="white"/>
<path d="M240.819 120.262L238.981 118.366H237.258L241.011 122.282L244.84 116.337H243.356L240.819 120.262Z" fill="white"/>
<path d="M240.819 149.213L238.981 147.317H237.258L241.011 151.233L244.84 145.287H243.356L240.819 149.213Z" fill="white"/>
<path d="M260.541 119.86H247.664V120.769H260.541V119.86Z" fill="white"/>
<path d="M267.319 117.629H247.664V118.538H267.319V117.629Z" fill="white"/>
<path d="M260.541 134.479H247.664V135.388H260.541V134.479Z" fill="white"/>
<path d="M267.319 132.248H247.664V133.157H267.319V132.248Z" fill="white"/>
<path d="M260.541 148.676H247.664V149.586H260.541V148.676Z" fill="white"/>
<path d="M267.319 146.446H247.664V147.355H267.319V146.446Z" fill="white"/>
<path d="M208.146 63.1354C208.941 64.1502 209.41 65.414 209.41 66.8022C209.41 70.0955 206.739 72.7665 203.445 72.7665V77.0555C205.762 77.0555 207.744 76.4141 209.62 75.0451C214.311 71.6369 215.355 65.0597 211.947 60.3687L208.146 63.1354Z" fill="#E527BB"/>
<path d="M203.461 56.0317V60.8281C205.366 60.8281 207.061 61.7281 208.152 63.1258L211.953 60.359C209.914 57.554 206.936 56.0317 203.461 56.0317Z" fill="white"/>
<path d="M192.945 66.5436C192.945 72.3453 197.646 77.0459 203.448 77.0459V72.7569C200.154 72.7569 197.483 70.0859 197.483 66.7925C197.483 63.4992 200.154 60.8281 203.448 60.8281V56.0317C197.656 56.0317 192.945 60.742 192.945 66.5436Z" fill="#E527BB"/>
<path d="M85.8166 206.855C95.6564 206.855 103.633 198.879 103.633 189.039C103.633 179.199 95.6564 171.222 85.8166 171.222C75.9768 171.222 68 179.199 68 189.039C68 198.879 75.9768 206.855 85.8166 206.855Z" fill="#E527BB"/>
<path d="M85.2923 191.25L81.0512 186.875H77.0781L85.7327 195.894L94.5596 182.184H91.1323L85.2923 191.25Z" fill="white"/>
<path d="M218.3 183.869L217.965 184.175C218.003 184.223 222.024 188.847 216.759 197.952L216.711 198.028L222.857 226.51L223.298 226.414L217.18 198.095C222.57 188.742 218.472 184.06 218.3 183.869Z" fill="#AD2566"/>
<path d="M170.281 234.408L179.884 233.288L170.865 187.517L170.281 234.408Z" fill="#A78BEF"/>
<path d="M139.375 182.5L119.835 156.316L119.72 156.163L106.93 162.654L107.131 163.056L119.586 156.747L139.308 183.161L155.65 168.953L155.353 168.609L139.375 182.5Z" fill="#AD2566"/>
<path d="M263.731 156.622L276.138 162.912L258.57 193.385L258.963 193.605L276.77 162.73L263.932 156.22L263.731 156.622Z" fill="#AD2566"/>
<circle cx="285.5" cy="221.5" r="2.5" fill="white"/>
</g>
</g>
<defs>
<clipPath id="clip0_1600_3698">
<rect width="556.76" height="338.36" fill="white"/>
</clipPath>
<clipPath id="clip1_1600_3698">
<rect width="420.686" height="314.38" fill="white" transform="translate(68 17)"/>
</clipPath>
</defs>
</svg>
