<svg width="543" height="329" viewBox="0 0 543 329" fill="none" xmlns="http://www.w3.org/2000/svg">
<g clip-path="url(#clip0_1224_4562)">
<path opacity="0.2" d="M127.492 328.58L412.142 311.93C487.412 307.53 545.652 243.73 542.512 168.39C539.872 105.08 517.192 37.64 440.912 8.81999C387.262 -11.45 317.592 5.13999 273.402 38.85C262.782 46.95 253.022 56.24 241.612 63.17C215.022 79.32 191.672 68.17 163.972 63.88C105.412 54.79 46.9621 73.46 16.7021 127.43C-29.7579 210.35 25.0421 334.57 127.492 328.58Z" fill="#999999"/>
<g clip-path="url(#clip1_1224_4562)">
<path d="M354.811 40H180.129V301.23H354.811V40Z" fill="#A78BEF"/>
<path d="M354.811 40H180.129L354.811 301.23V40Z" fill="#A78BEF"/>
<path d="M290.148 163.815H246.246V196.881H290.148V163.815Z" fill="#FDFDFC"/>
<path d="M286.017 170.401H250.75V172.026H286.017V170.401Z" fill="#E1E1E1"/>
<path d="M286.017 176.88H250.75V178.505H286.017V176.88Z" fill="#E1E1E1"/>
<path d="M286.017 189.497H250.75V191.122H286.017V189.497Z" fill="#E1E1E1"/>
<path d="M270.899 183.246H250.75V184.871H270.899V183.246Z" fill="#E1E1E1"/>
<path d="M346.51 55.5171H187.68V66.0732H346.51V55.5171Z" fill="white"/>
<path d="M313.444 58.3538H192.176V63.2291H313.444V58.3538Z" fill="#E1E1E1"/>
<path d="M341.787 58.3538H323.355V63.2291H341.787V58.3538Z" fill="#E1E1E1"/>
<path d="M192.29 47.648C192.29 49.3872 190.88 50.7985 189.141 50.7985C187.403 50.7985 185.992 49.3872 185.992 47.648C185.992 45.9088 187.403 44.4976 189.141 44.4976C190.88 44.4976 192.29 45.9088 192.29 47.648Z" fill="white"/>
<path d="M201.326 47.648C201.326 49.3872 199.915 50.7985 198.176 50.7985C196.438 50.7985 195.027 49.3872 195.027 47.648C195.027 45.9088 196.438 44.4976 198.176 44.4976C199.915 44.4976 201.326 45.9088 201.326 47.648Z" fill="white"/>
<path d="M211.021 47.648C211.021 49.3872 209.61 50.7985 207.872 50.7985C206.133 50.7985 204.723 49.3872 204.723 47.648C204.723 45.9088 206.133 44.4976 207.872 44.4976C209.61 44.4976 211.021 45.9088 211.021 47.648Z" fill="white"/>
<path d="M344.846 195.648V196.881H343.613" stroke="white" stroke-width="1.3886" stroke-miterlimit="10"/>
<path d="M341.225 196.881H304.227" stroke="white" stroke-width="1.3886" stroke-miterlimit="10" stroke-dasharray="3.35 3.35"/>
<path d="M303.037 196.881H301.797V195.648" stroke="white" stroke-width="1.3886" stroke-miterlimit="10"/>
<path d="M301.797 193.288V166.232" stroke="white" stroke-width="1.3886" stroke-miterlimit="10" stroke-dasharray="3.3 3.3"/>
<path d="M301.797 165.056V163.815H303.037" stroke="white" stroke-width="1.3886" stroke-miterlimit="10"/>
<path d="M305.422 163.815H342.413" stroke="white" stroke-width="1.3886" stroke-miterlimit="10" stroke-dasharray="3.35 3.35"/>
<path d="M343.613 163.815H344.846V165.056" stroke="white" stroke-width="1.3886" stroke-miterlimit="10"/>
<path d="M344.844 167.408V194.472" stroke="white" stroke-width="1.3886" stroke-miterlimit="10" stroke-dasharray="3.3 3.3"/>
<path d="M346.509 152.575V153.815H345.27" stroke="white" stroke-width="1.3886" stroke-miterlimit="10"/>
<path d="M342.779 153.815H189.043" stroke="white" stroke-width="1.3886" stroke-miterlimit="10" stroke-dasharray="3.51 3.51"/>
<path d="M187.794 153.815H186.555V152.575" stroke="white" stroke-width="1.3886" stroke-miterlimit="10"/>
<path d="M186.555 150.372V138.234" stroke="white" stroke-width="1.3886" stroke-miterlimit="10" stroke-dasharray="3.1 3.1"/>
<path d="M186.555 137.129V135.889H187.794" stroke="white" stroke-width="1.3886" stroke-miterlimit="10"/>
<path d="M190.297 135.889H344.025" stroke="white" stroke-width="1.3886" stroke-miterlimit="10" stroke-dasharray="3.51 3.51"/>
<path d="M345.27 135.889H346.509V137.129" stroke="white" stroke-width="1.3886" stroke-miterlimit="10"/>
<path d="M346.512 139.332V151.47" stroke="white" stroke-width="1.3886" stroke-miterlimit="10" stroke-dasharray="3.1 3.1"/>
<path d="M279.681 234.33V235.563H278.441" stroke="white" stroke-width="1.3886" stroke-miterlimit="10"/>
<path d="M276.011 235.563H189.746" stroke="white" stroke-width="1.3886" stroke-miterlimit="10" stroke-dasharray="3.41 3.41"/>
<path d="M188.537 235.563H187.297V234.33" stroke="white" stroke-width="1.3886" stroke-miterlimit="10"/>
<path d="M187.297 231.486V221.528" stroke="white" stroke-width="1.3886" stroke-miterlimit="10" stroke-dasharray="3.99 3.99"/>
<path d="M187.297 220.11V218.87H188.537" stroke="white" stroke-width="1.3886" stroke-miterlimit="10"/>
<path d="M190.965 218.87H277.23" stroke="white" stroke-width="1.3886" stroke-miterlimit="10" stroke-dasharray="3.41 3.41"/>
<path d="M278.441 218.87H279.681V220.11" stroke="white" stroke-width="1.3886" stroke-miterlimit="10"/>
<path d="M279.684 222.954V232.904" stroke="white" stroke-width="1.3886" stroke-miterlimit="10" stroke-dasharray="3.99 3.99"/>
<path d="M346.513 128.298V129.538H345.273" stroke="white" stroke-width="1.3886" stroke-miterlimit="10"/>
<path d="M342.786 129.538H189.777" stroke="white" stroke-width="1.3886" stroke-miterlimit="10" stroke-dasharray="3.49 3.49"/>
<path d="M188.537 129.538H187.297V128.298" stroke="white" stroke-width="1.3886" stroke-miterlimit="10"/>
<path d="M187.297 125.739V80.8916" stroke="white" stroke-width="1.3886" stroke-miterlimit="10" stroke-dasharray="3.6 3.6"/>
<path d="M187.297 79.6086V78.3684H188.537" stroke="white" stroke-width="1.3886" stroke-miterlimit="10"/>
<path d="M191.023 78.3684H344.032" stroke="white" stroke-width="1.3886" stroke-miterlimit="10" stroke-dasharray="3.49 3.49"/>
<path d="M345.273 78.3684H346.513V79.6086" stroke="white" stroke-width="1.3886" stroke-miterlimit="10"/>
<path d="M346.512 82.1746V127.015" stroke="white" stroke-width="1.3886" stroke-miterlimit="10" stroke-dasharray="3.6 3.6"/>
<path d="M279.681 254.188V255.428H278.441" stroke="white" stroke-width="1.3886" stroke-miterlimit="10"/>
<path d="M276.011 255.428H189.746" stroke="white" stroke-width="1.3886" stroke-miterlimit="10" stroke-dasharray="3.41 3.41"/>
<path d="M188.537 255.428H187.297V254.188" stroke="white" stroke-width="1.3886" stroke-miterlimit="10"/>
<path d="M187.297 251.344V241.393" stroke="white" stroke-width="1.3886" stroke-miterlimit="10" stroke-dasharray="3.99 3.99"/>
<path d="M187.297 239.968V238.728H188.537" stroke="white" stroke-width="1.3886" stroke-miterlimit="10"/>
<path d="M190.965 238.728H277.23" stroke="white" stroke-width="1.3886" stroke-miterlimit="10" stroke-dasharray="3.41 3.41"/>
<path d="M278.441 238.728H279.681V239.968" stroke="white" stroke-width="1.3886" stroke-miterlimit="10"/>
<path d="M279.684 242.812V252.762" stroke="white" stroke-width="1.3886" stroke-miterlimit="10" stroke-dasharray="3.99 3.99"/>
<path d="M221.392 287.474V288.707H220.152" stroke="white" stroke-width="1.3886" stroke-miterlimit="10"/>
<path d="M217.788 288.707H190.551" stroke="white" stroke-width="1.3886" stroke-miterlimit="10" stroke-dasharray="3.32 3.32"/>
<path d="M189.369 288.707H188.129V287.474" stroke="white" stroke-width="1.3886" stroke-miterlimit="10"/>
<path d="M188.129 284.808V270.175" stroke="white" stroke-width="1.3886" stroke-miterlimit="10" stroke-dasharray="3.73 3.73"/>
<path d="M188.129 268.849V267.609H189.369" stroke="white" stroke-width="1.3886" stroke-miterlimit="10"/>
<path d="M191.734 267.609H218.972" stroke="white" stroke-width="1.3886" stroke-miterlimit="10" stroke-dasharray="3.32 3.32"/>
<path d="M220.152 267.609H221.392V268.849" stroke="white" stroke-width="1.3886" stroke-miterlimit="10"/>
<path d="M221.395 271.508V286.141" stroke="white" stroke-width="1.3886" stroke-miterlimit="10" stroke-dasharray="3.73 3.73"/>
<path d="M263.678 287.474V288.707H262.445" stroke="white" stroke-width="1.3886" stroke-miterlimit="10"/>
<path d="M260.074 288.707H232.844" stroke="white" stroke-width="1.3886" stroke-miterlimit="10" stroke-dasharray="3.32 3.32"/>
<path d="M231.654 288.707H230.422V287.474" stroke="white" stroke-width="1.3886" stroke-miterlimit="10"/>
<path d="M230.422 284.808V270.175" stroke="white" stroke-width="1.3886" stroke-miterlimit="10" stroke-dasharray="3.73 3.73"/>
<path d="M230.422 268.849V267.609H231.654" stroke="white" stroke-width="1.3886" stroke-miterlimit="10"/>
<path d="M234.027 267.609H261.258" stroke="white" stroke-width="1.3886" stroke-miterlimit="10" stroke-dasharray="3.32 3.32"/>
<path d="M262.445 267.609H263.678V268.849" stroke="white" stroke-width="1.3886" stroke-miterlimit="10"/>
<path d="M263.68 271.508V286.141" stroke="white" stroke-width="1.3886" stroke-miterlimit="10" stroke-dasharray="3.73 3.73"/>
<path d="M305.97 287.474V288.707H304.73" stroke="white" stroke-width="1.3886" stroke-miterlimit="10"/>
<path d="M302.366 288.707H275.129" stroke="white" stroke-width="1.3886" stroke-miterlimit="10" stroke-dasharray="3.32 3.32"/>
<path d="M273.947 288.707H272.707V287.474" stroke="white" stroke-width="1.3886" stroke-miterlimit="10"/>
<path d="M272.707 284.808V270.175" stroke="white" stroke-width="1.3886" stroke-miterlimit="10" stroke-dasharray="3.73 3.73"/>
<path d="M272.707 268.849V267.609H273.947" stroke="white" stroke-width="1.3886" stroke-miterlimit="10"/>
<path d="M276.312 267.609H303.55" stroke="white" stroke-width="1.3886" stroke-miterlimit="10" stroke-dasharray="3.32 3.32"/>
<path d="M304.73 267.609H305.97V268.849" stroke="white" stroke-width="1.3886" stroke-miterlimit="10"/>
<path d="M305.973 271.508V286.141" stroke="white" stroke-width="1.3886" stroke-miterlimit="10" stroke-dasharray="3.73 3.73"/>
<path d="M348.252 287.474V288.707H347.02" stroke="white" stroke-width="1.3886" stroke-miterlimit="10"/>
<path d="M344.648 288.707H317.418" stroke="white" stroke-width="1.3886" stroke-miterlimit="10" stroke-dasharray="3.32 3.32"/>
<path d="M316.236 288.707H314.996V287.474" stroke="white" stroke-width="1.3886" stroke-miterlimit="10"/>
<path d="M314.996 284.808V270.175" stroke="white" stroke-width="1.3886" stroke-miterlimit="10" stroke-dasharray="3.73 3.73"/>
<path d="M314.996 268.849V267.609H316.236" stroke="white" stroke-width="1.3886" stroke-miterlimit="10"/>
<path d="M318.602 267.609H345.839" stroke="white" stroke-width="1.3886" stroke-miterlimit="10" stroke-dasharray="3.32 3.32"/>
<path d="M347.02 267.609H348.252V268.849" stroke="white" stroke-width="1.3886" stroke-miterlimit="10"/>
<path d="M348.254 271.508V286.141" stroke="white" stroke-width="1.3886" stroke-miterlimit="10" stroke-dasharray="3.73 3.73"/>
<path d="M224.289 84.6337L230.089 131.47L382.193 110.465L375.104 65.1323L224.289 84.6337Z" fill="#E527BB"/>
<path d="M224.289 84.6337L382.193 110.465L375.104 65.1323L224.289 84.6337Z" fill="#C11AA1"/>
<path d="M421.043 138.348C420.936 138.22 420.886 138.056 420.907 137.892L427.241 93.9996C427.284 93.7216 427.519 93.5149 427.797 93.5149C427.797 93.5149 427.797 93.5149 427.804 93.5149C428.082 93.5149 428.317 93.7145 428.367 93.9924L435.413 137.885C435.441 138.049 435.392 138.22 435.285 138.341C435.178 138.469 435.021 138.541 434.85 138.541H421.47C421.306 138.541 421.149 138.469 421.043 138.348ZM427.839 97.8485L422.133 137.407H434.195L427.839 97.8485Z" fill="#E527BB"/>
<path d="M421.938 301.587V150.023C421.938 149.71 422.194 149.453 422.507 149.453H434.099C434.413 149.453 434.669 149.71 434.669 150.023V301.587C434.669 301.901 434.413 302.157 434.099 302.157H422.507C422.194 302.157 421.938 301.901 421.938 301.587ZM433.529 150.594H423.07V301.017H433.529V150.594Z" fill="#E527BB"/>
<path d="M434.091 302.157C434.233 302.157 434.383 302.1 434.49 301.993C434.711 301.772 434.711 301.409 434.49 301.188L422.834 289.527C422.613 289.306 422.25 289.306 422.029 289.527C421.808 289.748 421.808 290.111 422.029 290.332L433.685 301.993C433.806 302.1 433.948 302.157 434.091 302.157Z" fill="#E527BB"/>
<path d="M422.443 302.157C422.585 302.157 422.735 302.1 422.842 301.993L434.498 290.332C434.719 290.111 434.719 289.748 434.498 289.527C434.277 289.306 433.914 289.306 433.693 289.527L422.037 301.188C421.816 301.409 421.816 301.772 422.037 301.993C422.151 302.1 422.293 302.157 422.443 302.157Z" fill="#E527BB"/>
<path d="M434.091 290.496C434.233 290.496 434.383 290.439 434.49 290.332C434.711 290.111 434.711 289.748 434.49 289.527L422.834 277.866C422.613 277.645 422.25 277.645 422.029 277.866C421.808 278.087 421.808 278.45 422.029 278.671L433.685 290.332C433.806 290.439 433.948 290.496 434.091 290.496Z" fill="#E527BB"/>
<path d="M422.443 290.496C422.585 290.496 422.735 290.439 422.842 290.332L434.498 278.671C434.719 278.45 434.719 278.087 434.498 277.866C434.277 277.645 433.914 277.645 433.693 277.866L422.037 289.527C421.816 289.748 421.816 290.111 422.037 290.332C422.151 290.439 422.293 290.496 422.443 290.496Z" fill="#E527BB"/>
<path d="M434.091 278.835C434.233 278.835 434.383 278.778 434.49 278.671C434.711 278.45 434.711 278.087 434.49 277.866L422.834 266.205C422.613 265.984 422.25 265.984 422.029 266.205C421.808 266.426 421.808 266.79 422.029 267.01L433.685 278.671C433.806 278.778 433.948 278.835 434.091 278.835Z" fill="#E527BB"/>
<path d="M422.443 278.835C422.585 278.835 422.735 278.778 422.842 278.671L434.498 267.01C434.719 266.79 434.719 266.426 434.498 266.205C434.277 265.984 433.914 265.984 433.693 266.205L422.037 277.866C421.816 278.087 421.816 278.45 422.037 278.671C422.151 278.778 422.293 278.835 422.443 278.835Z" fill="#E527BB"/>
<path d="M434.091 267.182C434.233 267.182 434.383 267.124 434.49 267.018C434.711 266.797 434.711 266.433 434.49 266.212L422.834 254.551C422.613 254.33 422.25 254.33 422.029 254.551C421.808 254.772 421.808 255.136 422.029 255.357L433.685 267.018C433.806 267.124 433.948 267.182 434.091 267.182Z" fill="#E527BB"/>
<path d="M422.443 267.182C422.585 267.182 422.735 267.124 422.842 267.018L434.498 255.357C434.719 255.136 434.719 254.772 434.498 254.551C434.277 254.33 433.914 254.33 433.693 254.551L422.037 266.212C421.816 266.433 421.816 266.797 422.037 267.018C422.151 267.124 422.293 267.182 422.443 267.182Z" fill="#E527BB"/>
<path d="M434.091 255.521C434.233 255.521 434.383 255.464 434.49 255.357C434.711 255.136 434.711 254.772 434.49 254.551L422.834 242.89C422.613 242.669 422.25 242.669 422.029 242.89C421.808 243.111 421.808 243.475 422.029 243.696L433.685 255.357C433.806 255.464 433.948 255.521 434.091 255.521Z" fill="#E527BB"/>
<path d="M422.443 255.521C422.585 255.521 422.735 255.464 422.842 255.357L434.498 243.696C434.719 243.475 434.719 243.111 434.498 242.89C434.277 242.669 433.914 242.669 433.693 242.89L422.037 254.551C421.816 254.772 421.816 255.136 422.037 255.357C422.151 255.464 422.293 255.521 422.443 255.521Z" fill="#E527BB"/>
<path d="M434.091 243.86C434.233 243.86 434.383 243.803 434.49 243.696C434.711 243.475 434.711 243.111 434.49 242.89L422.834 231.229C422.613 231.008 422.25 231.008 422.029 231.229C421.808 231.45 421.808 231.814 422.029 232.035L433.685 243.696C433.806 243.803 433.948 243.86 434.091 243.86Z" fill="#E527BB"/>
<path d="M422.443 243.86C422.585 243.86 422.735 243.803 422.842 243.696L434.498 232.035C434.719 231.814 434.719 231.45 434.498 231.229C434.277 231.008 433.914 231.008 433.693 231.229L422.037 242.89C421.816 243.111 421.816 243.475 422.037 243.696C422.151 243.803 422.293 243.86 422.443 243.86Z" fill="#E527BB"/>
<path d="M434.091 232.199C434.233 232.199 434.383 232.142 434.49 232.035C434.711 231.814 434.711 231.45 434.49 231.229L422.834 219.569C422.613 219.348 422.25 219.348 422.029 219.569C421.808 219.79 421.808 220.153 422.029 220.374L433.685 232.035C433.806 232.149 433.948 232.199 434.091 232.199Z" fill="#E527BB"/>
<path d="M422.443 232.199C422.585 232.199 422.735 232.142 422.842 232.035L434.498 220.374C434.719 220.153 434.719 219.79 434.498 219.569C434.277 219.348 433.914 219.348 433.693 219.569L422.037 231.229C421.816 231.45 421.816 231.814 422.037 232.035C422.151 232.149 422.293 232.199 422.443 232.199Z" fill="#E527BB"/>
<path d="M434.091 220.545C434.233 220.545 434.383 220.488 434.49 220.381C434.711 220.16 434.711 219.797 434.49 219.576L422.834 207.915C422.613 207.694 422.25 207.694 422.029 207.915C421.808 208.136 421.808 208.499 422.029 208.72L433.685 220.381C433.806 220.488 433.948 220.545 434.091 220.545Z" fill="#E527BB"/>
<path d="M422.443 220.545C422.585 220.545 422.735 220.488 422.842 220.381L434.498 208.72C434.719 208.499 434.719 208.136 434.498 207.915C434.277 207.694 433.914 207.694 433.693 207.915L422.037 219.576C421.816 219.797 421.816 220.16 422.037 220.381C422.151 220.488 422.293 220.545 422.443 220.545Z" fill="#E527BB"/>
<path d="M434.091 208.884C434.233 208.884 434.383 208.827 434.49 208.72C434.711 208.499 434.711 208.135 434.49 207.915L422.834 196.254C422.613 196.033 422.25 196.033 422.029 196.254C421.808 196.475 421.808 196.838 422.029 197.059L433.685 208.72C433.806 208.827 433.948 208.884 434.091 208.884Z" fill="#E527BB"/>
<path d="M422.443 208.884C422.585 208.884 422.735 208.827 422.842 208.72L434.498 197.059C434.719 196.838 434.719 196.475 434.498 196.254C434.277 196.033 433.914 196.033 433.693 196.254L422.037 207.915C421.816 208.135 421.816 208.499 422.037 208.72C422.151 208.827 422.293 208.884 422.443 208.884Z" fill="#E527BB"/>
<path d="M434.091 197.223C434.233 197.223 434.383 197.166 434.49 197.059C434.711 196.838 434.711 196.475 434.49 196.254L422.834 184.593C422.613 184.372 422.25 184.372 422.029 184.593C421.808 184.814 421.808 185.177 422.029 185.398L433.685 197.059C433.806 197.173 433.948 197.223 434.091 197.223Z" fill="#E527BB"/>
<path d="M422.443 197.223C422.585 197.223 422.735 197.166 422.842 197.059L434.498 185.398C434.719 185.177 434.719 184.814 434.498 184.593C434.277 184.372 433.914 184.372 433.693 184.593L422.037 196.254C421.816 196.475 421.816 196.838 422.037 197.059C422.151 197.173 422.293 197.223 422.443 197.223Z" fill="#E527BB"/>
<path d="M434.091 185.569C434.233 185.569 434.383 185.512 434.49 185.405C434.711 185.184 434.711 184.821 434.49 184.6L422.834 172.939C422.613 172.718 422.25 172.718 422.029 172.939C421.808 173.16 421.808 173.523 422.029 173.744L433.685 185.405C433.806 185.512 433.948 185.569 434.091 185.569Z" fill="#E527BB"/>
<path d="M422.443 185.569C422.585 185.569 422.735 185.512 422.842 185.405L434.498 173.744C434.719 173.523 434.719 173.16 434.498 172.939C434.277 172.718 433.914 172.718 433.693 172.939L422.037 184.6C421.816 184.821 421.816 185.184 422.037 185.405C422.151 185.512 422.293 185.569 422.443 185.569Z" fill="#E527BB"/>
<path d="M434.091 173.908C434.233 173.908 434.383 173.851 434.49 173.744C434.711 173.523 434.711 173.16 434.49 172.939L422.834 161.278C422.613 161.057 422.25 161.057 422.029 161.278C421.808 161.499 421.808 161.862 422.029 162.083L433.685 173.744C433.806 173.851 433.948 173.908 434.091 173.908Z" fill="#E527BB"/>
<path d="M422.443 173.908C422.585 173.908 422.735 173.851 422.842 173.744L434.498 162.083C434.719 161.862 434.719 161.499 434.498 161.278C434.277 161.057 433.914 161.057 433.693 161.278L422.037 172.939C421.816 173.16 421.816 173.523 422.037 173.744C422.151 173.851 422.293 173.908 422.443 173.908Z" fill="#E527BB"/>
<path d="M434.091 162.247C434.233 162.247 434.383 162.19 434.49 162.083C434.711 161.863 434.711 161.499 434.49 161.278L422.834 149.617C422.613 149.396 422.25 149.396 422.029 149.617C421.808 149.838 421.808 150.202 422.029 150.423L433.685 162.083C433.806 162.198 433.948 162.247 434.091 162.247Z" fill="#E527BB"/>
<path d="M422.443 162.247C422.585 162.247 422.735 162.19 422.842 162.083L434.498 150.423C434.719 150.202 434.719 149.838 434.498 149.617C434.277 149.396 433.914 149.396 433.693 149.617L422.037 161.278C421.816 161.499 421.816 161.863 422.037 162.083C422.151 162.198 422.293 162.247 422.443 162.247Z" fill="#E527BB"/>
<path d="M273.941 150.166C273.856 149.945 273.913 149.696 274.091 149.539L286.887 137.942C286.994 137.849 287.129 137.792 287.265 137.792H495.433C495.746 137.792 496.003 138.049 496.003 138.362V149.959C496.003 150.273 495.746 150.529 495.433 150.529H274.469C274.241 150.529 274.027 150.387 273.941 150.166ZM494.87 138.933H287.485L275.943 149.396H494.87V138.933Z" fill="#E527BB"/>
<path d="M483.785 150.594C483.928 150.594 484.077 150.536 484.184 150.43L495.84 138.769C495.961 138.647 496.018 138.476 496.004 138.312C495.99 138.141 495.89 137.992 495.747 137.899L428.12 93.6146C427.956 93.5077 427.743 93.4935 427.564 93.579L334.303 137.863C334.018 137.999 333.897 138.334 334.032 138.619C334.167 138.904 334.502 139.025 334.787 138.89L427.757 94.7408L494.536 138.469L483.386 149.624C483.165 149.845 483.165 150.209 483.386 150.43C483.493 150.536 483.643 150.594 483.785 150.594Z" fill="#E527BB"/>
<path d="M495.443 150.594C495.585 150.594 495.735 150.537 495.841 150.43C496.062 150.209 496.062 149.845 495.841 149.624L484.186 137.963C483.965 137.742 483.601 137.742 483.38 137.963C483.16 138.184 483.16 138.548 483.38 138.769L495.036 150.43C495.15 150.537 495.293 150.594 495.443 150.594Z" fill="#E527BB"/>
<path d="M472.126 150.594C472.269 150.594 472.419 150.537 472.525 150.43L484.181 138.769C484.402 138.548 484.402 138.184 484.181 137.963C483.96 137.742 483.597 137.742 483.376 137.963L471.72 149.624C471.499 149.845 471.499 150.209 471.72 150.43C471.834 150.537 471.984 150.594 472.126 150.594Z" fill="#E527BB"/>
<path d="M483.782 150.594C483.925 150.594 484.074 150.537 484.181 150.43C484.402 150.209 484.402 149.845 484.181 149.624L472.525 137.963C472.305 137.742 471.941 137.742 471.72 137.963C471.499 138.184 471.499 138.548 471.72 138.769L483.376 150.43C483.49 150.537 483.64 150.594 483.782 150.594Z" fill="#E527BB"/>
<path d="M460.47 150.594C460.613 150.594 460.762 150.537 460.869 150.43L472.525 138.769C472.746 138.548 472.746 138.184 472.525 137.963C472.304 137.742 471.941 137.742 471.72 137.963L460.064 149.624C459.843 149.845 459.843 150.209 460.064 150.43C460.185 150.537 460.328 150.594 460.47 150.594Z" fill="#E527BB"/>
<path d="M472.126 150.594C472.269 150.594 472.418 150.537 472.525 150.43C472.746 150.209 472.746 149.845 472.525 149.624L460.869 137.963C460.648 137.742 460.285 137.742 460.064 137.963C459.843 138.184 459.843 138.548 460.064 138.769L471.72 150.43C471.834 150.537 471.984 150.594 472.126 150.594Z" fill="#E527BB"/>
<path d="M448.826 150.594C448.968 150.594 449.118 150.537 449.225 150.43L460.881 138.769C461.101 138.548 461.101 138.184 460.881 137.963C460.66 137.742 460.296 137.742 460.075 137.963L448.42 149.624C448.199 149.845 448.199 150.209 448.42 150.43C448.534 150.537 448.676 150.594 448.826 150.594Z" fill="#E527BB"/>
<path d="M460.474 150.594C460.616 150.594 460.766 150.537 460.873 150.43C461.094 150.209 461.094 149.845 460.873 149.624L449.217 137.963C448.996 137.742 448.633 137.742 448.412 137.963C448.191 138.184 448.191 138.548 448.412 138.769L460.068 150.43C460.189 150.537 460.331 150.594 460.474 150.594Z" fill="#E527BB"/>
<path d="M437.166 150.594C437.308 150.594 437.458 150.537 437.564 150.43L449.22 138.769C449.441 138.548 449.441 138.184 449.22 137.963C449 137.742 448.636 137.742 448.415 137.963L436.759 149.624C436.539 149.845 436.539 150.209 436.759 150.43C436.873 150.537 437.023 150.594 437.166 150.594Z" fill="#E527BB"/>
<path d="M448.821 150.594C448.964 150.594 449.114 150.537 449.22 150.43C449.441 150.209 449.441 149.845 449.22 149.624L437.564 137.963C437.344 137.742 436.98 137.742 436.759 137.963C436.539 138.184 436.539 138.548 436.759 138.769L448.415 150.43C448.529 150.537 448.672 150.594 448.821 150.594Z" fill="#E527BB"/>
<path d="M425.517 150.594C425.66 150.594 425.809 150.537 425.916 150.43L437.572 138.769C437.793 138.548 437.793 138.184 437.572 137.963C437.351 137.742 436.988 137.742 436.767 137.963L425.111 149.624C424.89 149.845 424.89 150.209 425.111 150.43C425.225 150.537 425.367 150.594 425.517 150.594Z" fill="#E527BB"/>
<path d="M437.165 150.594C437.308 150.594 437.457 150.537 437.564 150.43C437.785 150.209 437.785 149.845 437.564 149.624L425.908 137.963C425.687 137.742 425.324 137.742 425.103 137.963C424.882 138.184 424.882 138.548 425.103 138.769L436.759 150.43C436.873 150.537 437.023 150.594 437.165 150.594Z" fill="#E527BB"/>
<path d="M413.861 150.594C414.003 150.594 414.153 150.537 414.26 150.43L425.916 138.769C426.137 138.548 426.137 138.184 425.916 137.963C425.695 137.742 425.331 137.742 425.111 137.963L413.455 149.624C413.234 149.845 413.234 150.209 413.455 150.43C413.569 150.537 413.711 150.594 413.861 150.594Z" fill="#E527BB"/>
<path d="M425.517 150.594C425.659 150.594 425.809 150.537 425.916 150.43C426.137 150.209 426.137 149.845 425.916 149.624L414.26 137.963C414.039 137.742 413.676 137.742 413.455 137.963C413.234 138.184 413.234 138.548 413.455 138.769L425.111 150.43C425.225 150.537 425.367 150.594 425.517 150.594Z" fill="#E527BB"/>
<path d="M402.205 150.594C402.348 150.594 402.497 150.537 402.604 150.43L414.26 138.769C414.481 138.548 414.481 138.184 414.26 137.963C414.039 137.742 413.676 137.742 413.455 137.963L401.806 149.624C401.585 149.845 401.585 150.209 401.806 150.43C401.913 150.537 402.063 150.594 402.205 150.594Z" fill="#E527BB"/>
<path d="M413.86 150.594C414.003 150.594 414.153 150.537 414.259 150.43C414.48 150.209 414.48 149.845 414.259 149.624L402.604 137.963C402.383 137.742 402.019 137.742 401.798 137.963C401.578 138.184 401.578 138.548 401.798 138.769L413.454 150.43C413.568 150.537 413.711 150.594 413.86 150.594Z" fill="#E527BB"/>
<path d="M390.552 150.594C390.695 150.594 390.844 150.537 390.951 150.43L402.607 138.769C402.828 138.548 402.828 138.184 402.607 137.963C402.386 137.742 402.023 137.742 401.802 137.963L390.146 149.624C389.925 149.845 389.925 150.209 390.146 150.43C390.267 150.537 390.41 150.594 390.552 150.594Z" fill="#E527BB"/>
<path d="M402.208 150.594C402.351 150.594 402.5 150.537 402.607 150.43C402.828 150.209 402.828 149.845 402.607 149.624L390.951 137.963C390.73 137.742 390.367 137.742 390.146 137.963C389.925 138.184 389.925 138.548 390.146 138.769L401.802 150.43C401.916 150.537 402.066 150.594 402.208 150.594Z" fill="#E527BB"/>
<path d="M378.904 150.594C379.046 150.594 379.196 150.537 379.303 150.43L390.959 138.769C391.18 138.548 391.18 138.184 390.959 137.963C390.738 137.742 390.374 137.742 390.154 137.963L378.498 149.624C378.277 149.845 378.277 150.209 378.498 150.43C378.612 150.537 378.754 150.594 378.904 150.594Z" fill="#E527BB"/>
<path d="M390.552 150.594C390.694 150.594 390.844 150.537 390.951 150.43C391.172 150.209 391.172 149.845 390.951 149.624L379.295 137.963C379.074 137.742 378.711 137.742 378.49 137.963C378.269 138.184 378.269 138.548 378.49 138.769L390.146 150.43C390.267 150.537 390.409 150.594 390.552 150.594Z" fill="#E527BB"/>
<path d="M367.248 150.594C367.39 150.594 367.54 150.537 367.647 150.43L379.302 138.769C379.523 138.548 379.523 138.184 379.302 137.963C379.082 137.742 378.718 137.742 378.497 137.963L366.841 149.624C366.621 149.845 366.621 150.209 366.841 150.43C366.955 150.537 367.105 150.594 367.248 150.594Z" fill="#E527BB"/>
<path d="M378.903 150.594C379.046 150.594 379.196 150.537 379.302 150.43C379.523 150.209 379.523 149.845 379.302 149.624L367.647 137.963C367.426 137.742 367.062 137.742 366.841 137.963C366.621 138.184 366.621 138.548 366.841 138.769L378.497 150.43C378.611 150.537 378.754 150.594 378.903 150.594Z" fill="#E527BB"/>
<path d="M355.591 150.594C355.734 150.594 355.883 150.537 355.99 150.43L367.646 138.769C367.867 138.548 367.867 138.184 367.646 137.963C367.425 137.742 367.062 137.742 366.841 137.963L355.185 149.624C354.964 149.845 354.964 150.209 355.185 150.43C355.306 150.537 355.449 150.594 355.591 150.594Z" fill="#E527BB"/>
<path d="M367.247 150.594C367.39 150.594 367.539 150.537 367.646 150.43C367.867 150.209 367.867 149.845 367.646 149.624L355.99 137.963C355.769 137.742 355.406 137.742 355.185 137.963C354.964 138.184 354.964 138.548 355.185 138.769L366.841 150.43C366.955 150.537 367.105 150.594 367.247 150.594Z" fill="#E527BB"/>
<path d="M343.943 150.594C344.085 150.594 344.235 150.537 344.342 150.43L355.998 138.769C356.219 138.548 356.219 138.184 355.998 137.963C355.777 137.742 355.414 137.742 355.193 137.963L343.537 149.624C343.316 149.845 343.316 150.209 343.537 150.43C343.651 150.537 343.793 150.594 343.943 150.594Z" fill="#E527BB"/>
<path d="M332.287 150.594C332.429 150.594 332.579 150.537 332.686 150.43L344.341 138.769C344.562 138.548 344.562 138.184 344.341 137.963C344.121 137.742 343.757 137.742 343.536 137.963L331.88 149.624C331.66 149.845 331.66 150.209 331.88 150.43C331.994 150.537 332.144 150.594 332.287 150.594Z" fill="#E527BB"/>
<path d="M343.943 150.594C344.085 150.594 344.235 150.537 344.341 150.43C344.562 150.209 344.562 149.845 344.341 149.624L332.686 137.963C332.465 137.742 332.101 137.742 331.88 137.963C331.66 138.184 331.66 138.548 331.88 138.769L343.536 150.43C343.65 150.537 343.793 150.594 343.943 150.594Z" fill="#E527BB"/>
<path d="M320.631 150.594C320.774 150.594 320.923 150.537 321.03 150.43L332.686 138.769C332.907 138.548 332.907 138.184 332.686 137.963C332.465 137.742 332.102 137.742 331.881 137.963L320.232 149.624C320.011 149.845 320.011 150.209 320.232 150.43C320.346 150.537 320.489 150.594 320.631 150.594Z" fill="#E527BB"/>
<path d="M332.286 150.594C332.429 150.594 332.578 150.537 332.685 150.43C332.906 150.209 332.906 149.845 332.685 149.624L321.029 137.963C320.808 137.742 320.445 137.742 320.224 137.963C320.003 138.184 320.003 138.548 320.224 138.769L331.88 150.43C331.994 150.537 332.144 150.594 332.286 150.594Z" fill="#E527BB"/>
<path d="M308.982 150.594C309.124 150.594 309.274 150.537 309.381 150.43L321.037 138.769C321.258 138.548 321.258 138.184 321.037 137.963C320.816 137.742 320.453 137.742 320.232 137.963L308.576 149.624C308.355 149.845 308.355 150.209 308.576 150.43C308.69 150.537 308.832 150.594 308.982 150.594Z" fill="#E527BB"/>
<path d="M320.63 150.594C320.773 150.594 320.922 150.537 321.029 150.43C321.25 150.209 321.25 149.845 321.029 149.624L309.373 137.963C309.152 137.742 308.789 137.742 308.568 137.963C308.347 138.184 308.347 138.548 308.568 138.769L320.224 150.43C320.345 150.537 320.488 150.594 320.63 150.594Z" fill="#E527BB"/>
<path d="M308.982 150.594C309.124 150.594 309.274 150.537 309.381 150.43C309.601 150.209 309.601 149.845 309.381 149.624L297.725 137.963C297.504 137.742 297.14 137.742 296.92 137.963C296.699 138.184 296.699 138.548 296.92 138.769L308.575 150.43C308.689 150.537 308.832 150.594 308.982 150.594Z" fill="#E527BB"/>
<path d="M285.669 150.594C285.812 150.594 285.962 150.537 286.068 150.43L297.724 138.769C297.945 138.548 297.945 138.184 297.724 137.963C297.503 137.742 297.14 137.742 296.919 137.963L285.263 149.624C285.042 149.845 285.042 150.209 285.263 150.43C285.377 150.537 285.527 150.594 285.669 150.594Z" fill="#E527BB"/>
<path d="M421.471 138.541C421.592 138.541 421.72 138.498 421.827 138.419L432.928 129.56C433.056 129.46 433.134 129.31 433.141 129.146C433.148 128.982 433.091 128.826 432.977 128.712L425.326 121.056L430.847 115.532C431.068 115.311 431.068 114.948 430.847 114.727L426.579 110.457L430.156 106.879C430.377 106.658 430.377 106.295 430.156 106.074C429.935 105.853 429.572 105.853 429.351 106.074L425.368 110.058C425.147 110.279 425.147 110.643 425.368 110.864L429.636 115.133L424.114 120.657C423.894 120.878 423.894 121.242 424.114 121.463L431.716 129.068L421.108 137.536C420.866 137.728 420.823 138.092 421.015 138.334C421.143 138.469 421.307 138.541 421.471 138.541Z" fill="#E527BB"/>
<path d="M434.852 138.541C435.016 138.541 435.18 138.469 435.294 138.334C435.493 138.091 435.458 137.735 435.215 137.536L424.528 128.747L431.724 121.548C431.831 121.441 431.888 121.299 431.888 121.149C431.888 120.999 431.831 120.857 431.724 120.75L426.082 115.105C427.678 113.494 429.794 111.363 430.043 111.134C430.121 111.077 430.185 110.992 430.221 110.899C430.378 110.522 430.378 110.522 426.431 106.616C426.21 106.395 425.847 106.395 425.626 106.623C425.405 106.844 425.405 107.207 425.633 107.428C426.659 108.447 428.205 109.973 428.896 110.678C428.297 111.249 427.165 112.396 424.87 114.705C424.65 114.926 424.65 115.283 424.87 115.504L430.513 121.142L423.282 128.384C423.168 128.498 423.111 128.654 423.118 128.811C423.125 128.968 423.203 129.118 423.324 129.225L434.496 138.412C434.603 138.498 434.731 138.541 434.852 138.541Z" fill="#E527BB"/>
<path d="M360.555 138.933C360.662 138.933 360.769 138.904 360.869 138.84L428.118 94.5555C428.382 94.3845 428.453 94.0281 428.282 93.7715C428.111 93.5077 427.755 93.4365 427.498 93.6075L360.249 137.892C359.985 138.063 359.914 138.419 360.085 138.676C360.192 138.84 360.37 138.933 360.555 138.933Z" fill="#E527BB"/>
<path d="M287.594 205.028L318.885 150.423L346.222 205.541" stroke="#001848" stroke-width="1.3886" stroke-miterlimit="10"/>
<path d="M348.406 196.329L281.348 203.713L285.409 240.625L352.467 233.242L348.406 196.329Z" fill="#8268E0"/>
<path d="M352.463 233.24L281.352 203.717L348.402 196.332L352.463 233.24Z" fill="#8268E0"/>
<path d="M342.447 203.185L286.762 209.316L286.939 210.925L342.624 204.793L342.447 203.185Z" fill="white"/>
<path d="M343.22 210.249L287.535 216.38L287.712 217.988L343.397 211.857L343.22 210.249Z" fill="white"/>
<path d="M344.861 225.167L289.176 231.299L289.353 232.907L345.038 226.776L344.861 225.167Z" fill="white"/>
<path d="M318.983 220.646L288.375 224.016L288.549 225.596L319.157 222.226L318.983 220.646Z" fill="white"/>
<path d="M130.229 94.6269H115.11C114.925 94.6269 114.747 94.5414 114.626 94.3988C114.505 94.2563 114.448 94.0638 114.483 93.8785L122.434 44.2768C122.484 43.9632 122.755 43.7351 123.068 43.7351C123.068 43.7351 123.068 43.7351 123.075 43.7351C123.389 43.7351 123.66 43.9703 123.702 44.2839L130.863 93.8928C130.891 94.0781 130.834 94.2634 130.713 94.406C130.592 94.5414 130.414 94.6269 130.229 94.6269ZM115.858 93.3439H129.488L123.033 48.6318L115.858 93.3439Z" fill="#E527BB"/>
<path d="M129.068 302.585H115.973C115.617 302.585 115.332 302.285 115.332 301.908V107.635C115.332 107.264 115.617 106.958 115.973 106.958H129.075C129.432 106.958 129.717 107.257 129.717 107.635V301.908C129.71 302.285 129.425 302.585 129.068 302.585ZM116.614 301.231H128.434V108.312H116.614V301.231Z" fill="#E527BB"/>
<path d="M115.975 302.585C115.811 302.585 115.647 302.521 115.519 302.385C115.27 302.122 115.27 301.694 115.519 301.43L128.693 287.553C128.942 287.289 129.348 287.289 129.597 287.553C129.847 287.816 129.847 288.244 129.597 288.508L116.424 302.385C116.303 302.521 116.139 302.585 115.975 302.585Z" fill="#E527BB"/>
<path d="M129.141 302.585C128.977 302.585 128.813 302.521 128.685 302.385L115.511 288.508C115.262 288.244 115.262 287.816 115.511 287.553C115.761 287.289 116.167 287.289 116.416 287.553L129.59 301.43C129.839 301.694 129.839 302.122 129.59 302.385C129.468 302.521 129.305 302.585 129.141 302.585Z" fill="#E527BB"/>
<path d="M115.975 288.707C115.811 288.707 115.647 288.643 115.519 288.508C115.27 288.244 115.27 287.816 115.519 287.552L128.693 273.675C128.942 273.411 129.348 273.411 129.597 273.675C129.847 273.939 129.847 274.366 129.597 274.63L116.424 288.508C116.303 288.643 116.139 288.707 115.975 288.707Z" fill="#E527BB"/>
<path d="M129.141 288.707C128.977 288.707 128.813 288.643 128.685 288.508L115.511 274.63C115.262 274.366 115.262 273.939 115.511 273.675C115.761 273.411 116.167 273.411 116.416 273.675L129.59 287.552C129.839 287.816 129.839 288.244 129.59 288.508C129.468 288.643 129.305 288.707 129.141 288.707Z" fill="#E527BB"/>
<path d="M115.975 274.829C115.811 274.829 115.647 274.765 115.519 274.63C115.27 274.366 115.27 273.939 115.519 273.675L128.693 259.797C128.942 259.533 129.348 259.533 129.597 259.797C129.847 260.061 129.847 260.489 129.597 260.752L116.424 274.63C116.303 274.765 116.139 274.829 115.975 274.829Z" fill="#E527BB"/>
<path d="M129.141 274.829C128.977 274.829 128.813 274.765 128.685 274.63L115.511 260.752C115.262 260.489 115.262 260.061 115.511 259.797C115.761 259.533 116.167 259.533 116.416 259.797L129.59 273.675C129.839 273.939 129.839 274.366 129.59 274.63C129.468 274.765 129.305 274.829 129.141 274.829Z" fill="#E527BB"/>
<path d="M115.975 260.952C115.811 260.952 115.647 260.888 115.519 260.752C115.27 260.489 115.27 260.061 115.519 259.797L128.693 245.919C128.942 245.656 129.348 245.656 129.597 245.919C129.847 246.183 129.847 246.611 129.597 246.875L116.424 260.752C116.303 260.888 116.139 260.952 115.975 260.952Z" fill="#E527BB"/>
<path d="M129.141 260.952C128.977 260.952 128.813 260.888 128.685 260.752L115.511 246.875C115.262 246.611 115.262 246.183 115.511 245.919C115.761 245.656 116.167 245.656 116.416 245.919L129.59 259.797C129.839 260.061 129.839 260.489 129.59 260.752C129.468 260.888 129.305 260.952 129.141 260.952Z" fill="#E527BB"/>
<path d="M115.975 247.081C115.811 247.081 115.647 247.017 115.519 246.882C115.27 246.618 115.27 246.19 115.519 245.927L128.693 232.049C128.942 231.785 129.348 231.785 129.597 232.049C129.847 232.313 129.847 232.74 129.597 233.004L116.424 246.882C116.303 247.01 116.139 247.081 115.975 247.081Z" fill="#E527BB"/>
<path d="M129.141 247.081C128.977 247.081 128.813 247.017 128.685 246.882L115.511 233.004C115.262 232.74 115.262 232.313 115.511 232.049C115.761 231.785 116.167 231.785 116.416 232.049L129.59 245.927C129.839 246.19 129.839 246.618 129.59 246.882C129.468 247.01 129.305 247.081 129.141 247.081Z" fill="#E527BB"/>
<path d="M115.975 233.204C115.811 233.204 115.647 233.14 115.519 233.004C115.27 232.74 115.27 232.313 115.519 232.049L128.693 218.171C128.942 217.908 129.348 217.908 129.597 218.171C129.847 218.435 129.847 218.863 129.597 219.127L116.424 233.004C116.303 233.132 116.139 233.204 115.975 233.204Z" fill="#E527BB"/>
<path d="M129.141 233.204C128.977 233.204 128.813 233.14 128.685 233.004L115.511 219.127C115.262 218.863 115.262 218.435 115.511 218.171C115.761 217.908 116.167 217.908 116.416 218.171L129.59 232.049C129.839 232.313 129.839 232.74 129.59 233.004C129.468 233.132 129.305 233.204 129.141 233.204Z" fill="#E527BB"/>
<path d="M115.975 219.326C115.811 219.326 115.647 219.262 115.519 219.126C115.27 218.863 115.27 218.435 115.519 218.171L128.693 204.294C128.942 204.03 129.348 204.03 129.597 204.294C129.847 204.557 129.847 204.985 129.597 205.249L116.424 219.126C116.303 219.262 116.139 219.326 115.975 219.326Z" fill="#E527BB"/>
<path d="M129.141 219.326C128.977 219.326 128.813 219.262 128.685 219.126L115.511 205.249C115.262 204.985 115.262 204.557 115.511 204.294C115.761 204.03 116.167 204.03 116.416 204.294L129.59 218.171C129.839 218.435 129.839 218.863 129.59 219.126C129.468 219.262 129.305 219.326 129.141 219.326Z" fill="#E527BB"/>
<path d="M115.975 205.448C115.811 205.448 115.647 205.384 115.519 205.249C115.27 204.985 115.27 204.557 115.519 204.294L128.693 190.416C128.942 190.152 129.348 190.152 129.597 190.416C129.847 190.68 129.847 191.107 129.597 191.371L116.424 205.249C116.303 205.384 116.139 205.448 115.975 205.448Z" fill="#E527BB"/>
<path d="M129.141 205.448C128.977 205.448 128.813 205.384 128.685 205.249L115.511 191.371C115.262 191.107 115.262 190.68 115.511 190.416C115.761 190.152 116.167 190.152 116.416 190.416L129.59 204.294C129.839 204.557 129.839 204.985 129.59 205.249C129.468 205.384 129.305 205.448 129.141 205.448Z" fill="#E527BB"/>
<path d="M115.975 191.571C115.811 191.571 115.647 191.507 115.519 191.371C115.27 191.107 115.27 190.68 115.519 190.416L128.693 176.538C128.942 176.275 129.348 176.275 129.597 176.538C129.847 176.802 129.847 177.23 129.597 177.493L116.424 191.371C116.303 191.507 116.139 191.571 115.975 191.571Z" fill="#E527BB"/>
<path d="M129.141 191.571C128.978 191.571 128.814 191.507 128.685 191.371L115.519 177.493C115.27 177.23 115.27 176.802 115.519 176.538C115.768 176.275 116.175 176.275 116.424 176.538L129.597 190.416C129.847 190.68 129.847 191.107 129.597 191.371C129.469 191.507 129.305 191.571 129.141 191.571Z" fill="#E527BB"/>
<path d="M115.975 177.693C115.811 177.693 115.647 177.629 115.519 177.493C115.27 177.23 115.27 176.802 115.519 176.538L128.693 162.661C128.942 162.397 129.348 162.397 129.597 162.661C129.847 162.924 129.847 163.352 129.597 163.616L116.424 177.493C116.303 177.629 116.139 177.693 115.975 177.693Z" fill="#E527BB"/>
<path d="M129.141 177.693C128.977 177.693 128.813 177.629 128.685 177.493L115.511 163.616C115.262 163.352 115.262 162.924 115.511 162.661C115.761 162.397 116.167 162.397 116.416 162.661L129.59 176.538C129.839 176.802 129.839 177.23 129.59 177.493C129.468 177.629 129.305 177.693 129.141 177.693Z" fill="#E527BB"/>
<path d="M115.975 163.816C115.811 163.816 115.647 163.751 115.519 163.616C115.27 163.352 115.27 162.925 115.519 162.661L128.693 148.783C128.942 148.52 129.348 148.52 129.597 148.783C129.847 149.047 129.847 149.475 129.597 149.738L116.424 163.616C116.303 163.751 116.139 163.816 115.975 163.816Z" fill="#E527BB"/>
<path d="M129.141 163.816C128.977 163.816 128.813 163.751 128.685 163.616L115.511 149.738C115.262 149.475 115.262 149.047 115.511 148.783C115.761 148.52 116.167 148.52 116.416 148.783L129.59 162.661C129.839 162.925 129.839 163.352 129.59 163.616C129.468 163.751 129.305 163.816 129.141 163.816Z" fill="#E527BB"/>
<path d="M115.975 149.938C115.811 149.938 115.647 149.874 115.519 149.738C115.27 149.475 115.27 149.047 115.519 148.783L128.693 134.906C128.942 134.642 129.348 134.642 129.597 134.906C129.847 135.169 129.847 135.597 129.597 135.861L116.424 149.738C116.303 149.874 116.139 149.938 115.975 149.938Z" fill="#E527BB"/>
<path d="M129.141 149.938C128.978 149.938 128.814 149.874 128.685 149.739L115.519 135.868C115.27 135.604 115.27 135.177 115.519 134.913C115.768 134.649 116.175 134.649 116.424 134.913L129.597 148.791C129.847 149.054 129.847 149.482 129.597 149.746C129.469 149.874 129.305 149.938 129.141 149.938Z" fill="#E527BB"/>
<path d="M115.975 136.06C115.811 136.06 115.647 135.996 115.519 135.861C115.27 135.597 115.27 135.169 115.519 134.906L128.693 121.028C128.942 120.764 129.348 120.764 129.597 121.028C129.847 121.292 129.847 121.719 129.597 121.983L116.424 135.868C116.303 135.996 116.139 136.06 115.975 136.06Z" fill="#E527BB"/>
<path d="M129.141 136.06C128.977 136.06 128.813 135.996 128.685 135.861L115.511 121.983C115.262 121.719 115.262 121.292 115.511 121.028C115.761 120.764 116.167 120.764 116.416 121.028L129.59 134.906C129.839 135.169 129.839 135.597 129.59 135.861C129.468 135.996 129.305 136.06 129.141 136.06Z" fill="#E527BB"/>
<path d="M115.975 122.19C115.811 122.19 115.647 122.125 115.519 121.99C115.27 121.726 115.27 121.299 115.519 121.035L128.693 107.157C128.942 106.894 129.348 106.894 129.597 107.157C129.847 107.421 129.847 107.849 129.597 108.112L116.424 121.99C116.303 122.118 116.139 122.19 115.975 122.19Z" fill="#E527BB"/>
<path d="M129.141 122.19C128.978 122.19 128.814 122.125 128.685 121.99L115.519 108.112C115.27 107.849 115.27 107.421 115.519 107.157C115.768 106.894 116.175 106.894 116.424 107.157L129.597 121.035C129.847 121.299 129.847 121.726 129.597 121.99C129.469 122.118 129.305 122.19 129.141 122.19Z" fill="#E527BB"/>
<path d="M296.367 108.169H46.6412C46.285 108.169 46 107.884 46 107.528V94.4271C46 94.0708 46.285 93.7856 46.6412 93.7856H281.904C282.061 93.7856 282.218 93.8427 282.332 93.9496L296.795 107.057C296.994 107.236 297.058 107.514 296.966 107.763C296.866 108.005 296.631 108.169 296.367 108.169ZM47.2824 106.886H294.7L281.655 95.0615H47.2824V106.886Z" fill="#E527BB"/>
<path d="M59.8166 108.241C59.6528 108.241 59.4889 108.177 59.3607 108.056L46.1872 94.8764C46.0518 94.741 45.9877 94.5485 46.0019 94.3561C46.0233 94.1636 46.1302 93.9925 46.2869 93.8856L122.72 43.842C122.905 43.7208 123.148 43.7066 123.347 43.7992L228.742 93.85C229.063 93.9997 229.198 94.3846 229.048 94.7053C228.899 95.0261 228.514 95.1615 228.193 95.0118L123.119 45.1179L47.6549 94.5271L60.2655 107.143C60.5149 107.393 60.5149 107.799 60.2655 108.048C60.1444 108.177 59.9805 108.241 59.8166 108.241Z" fill="#E527BB"/>
<path d="M46.643 108.241C46.4791 108.241 46.3153 108.177 46.187 108.055C45.9377 107.806 45.9377 107.4 46.187 107.15L59.3605 93.971C59.6099 93.7216 60.016 93.7216 60.2653 93.971C60.5147 94.2205 60.5147 94.6268 60.2653 94.8763L47.099 108.055C46.9707 108.177 46.8069 108.241 46.643 108.241Z" fill="#E527BB"/>
<path d="M72.9812 108.241C72.8174 108.241 72.6535 108.177 72.5253 108.055L59.3589 94.8763C59.1095 94.6268 59.1095 94.2205 59.3589 93.971C59.6083 93.7216 60.0144 93.7216 60.2637 93.971L73.4372 107.143C73.6866 107.393 73.6866 107.799 73.4372 108.048C73.309 108.177 73.1451 108.241 72.9812 108.241Z" fill="#E527BB"/>
<path d="M59.8149 108.241C59.651 108.241 59.4871 108.177 59.3589 108.055C59.1095 107.806 59.1095 107.4 59.3589 107.15L72.5324 93.971C72.7817 93.7216 73.1878 93.7216 73.4372 93.971C73.6866 94.2205 73.6866 94.6268 73.4372 94.8763L60.2637 108.055C60.1426 108.177 59.9787 108.241 59.8149 108.241Z" fill="#E527BB"/>
<path d="M86.157 108.241C85.9931 108.241 85.8293 108.177 85.701 108.055L72.5347 94.8763C72.2853 94.6268 72.2853 94.2205 72.5347 93.971C72.784 93.7216 73.1901 93.7216 73.4395 93.971L86.6059 107.143C86.8552 107.393 86.8552 107.799 86.6059 108.048C86.4847 108.177 86.3209 108.241 86.157 108.241Z" fill="#E527BB"/>
<path d="M72.9828 108.241C72.819 108.241 72.6551 108.177 72.5269 108.055C72.2775 107.806 72.2775 107.4 72.5269 107.15L85.7003 93.971C85.9497 93.7216 86.3558 93.7216 86.6052 93.971C86.8545 94.2205 86.8545 94.6268 86.6052 94.8763L73.4388 108.055C73.3106 108.177 73.1467 108.241 72.9828 108.241Z" fill="#E527BB"/>
<path d="M99.3211 108.241C99.1572 108.241 98.9933 108.177 98.8651 108.055L85.6987 94.8763C85.4494 94.6268 85.4494 94.2205 85.6987 93.971C85.9481 93.7216 86.3542 93.7216 86.6036 93.971L99.7771 107.143C100.026 107.393 100.026 107.799 99.7771 108.048C99.6488 108.177 99.4849 108.241 99.3211 108.241Z" fill="#E527BB"/>
<path d="M86.1547 108.241C85.9909 108.241 85.827 108.177 85.6987 108.055C85.4494 107.806 85.4494 107.4 85.6987 107.15L98.8651 93.971C99.1145 93.7216 99.5206 93.7216 99.7699 93.971C100.019 94.2205 100.019 94.6268 99.7699 94.8763L86.6036 108.055C86.4825 108.177 86.3186 108.241 86.1547 108.241Z" fill="#E527BB"/>
<path d="M112.497 108.241C112.333 108.241 112.169 108.177 112.041 108.055L98.8745 94.8763C98.6252 94.6268 98.6252 94.2205 98.8745 93.971C99.1239 93.7216 99.53 93.7216 99.7794 93.971L112.946 107.143C113.195 107.393 113.195 107.799 112.946 108.048C112.825 108.177 112.661 108.241 112.497 108.241Z" fill="#E527BB"/>
<path d="M99.3227 108.241C99.1588 108.241 98.995 108.177 98.8667 108.055C98.6173 107.806 98.6173 107.4 98.8667 107.15L112.04 93.971C112.29 93.7216 112.696 93.7216 112.945 93.971C113.194 94.2205 113.194 94.6268 112.945 94.8763L99.7787 108.055C99.6504 108.177 99.4866 108.241 99.3227 108.241Z" fill="#E527BB"/>
<path d="M125.661 108.241C125.497 108.241 125.333 108.177 125.205 108.055L112.039 94.8763C111.789 94.6268 111.789 94.2205 112.039 93.971C112.288 93.7216 112.694 93.7216 112.943 93.971L126.117 107.15C126.366 107.4 126.366 107.806 126.117 108.055C125.989 108.177 125.825 108.241 125.661 108.241Z" fill="#E527BB"/>
<path d="M112.495 108.241C112.331 108.241 112.167 108.177 112.039 108.055C111.789 107.806 111.789 107.4 112.039 107.15L125.212 93.971C125.461 93.7216 125.868 93.7216 126.117 93.971C126.366 94.2205 126.366 94.6268 126.117 94.8763L112.943 108.055C112.822 108.177 112.658 108.241 112.495 108.241Z" fill="#E527BB"/>
<path d="M138.836 108.241C138.672 108.241 138.508 108.177 138.38 108.055L125.207 94.8763C124.957 94.6268 124.957 94.2205 125.207 93.971C125.456 93.7216 125.862 93.7216 126.111 93.971L139.285 107.15C139.534 107.4 139.534 107.806 139.285 108.055C139.164 108.177 139 108.241 138.836 108.241Z" fill="#E527BB"/>
<path d="M125.663 108.241C125.499 108.241 125.335 108.177 125.207 108.055C124.957 107.806 124.957 107.4 125.207 107.15L138.38 93.971C138.629 93.7216 139.035 93.7216 139.285 93.971C139.534 94.2205 139.534 94.6268 139.285 94.8763L126.111 108.055C125.99 108.177 125.826 108.241 125.663 108.241Z" fill="#E527BB"/>
<path d="M152.008 108.241C151.844 108.241 151.68 108.177 151.552 108.055L138.378 94.8763C138.129 94.6268 138.129 94.2205 138.378 93.971C138.628 93.7216 139.034 93.7216 139.283 93.971L152.457 107.15C152.706 107.4 152.706 107.806 152.457 108.055C152.336 108.177 152.172 108.241 152.008 108.241Z" fill="#E527BB"/>
<path d="M138.834 108.241C138.671 108.241 138.507 108.177 138.378 108.055C138.129 107.806 138.129 107.4 138.378 107.15L151.552 93.971C151.801 93.7216 152.207 93.7216 152.457 93.971C152.706 94.2205 152.706 94.6268 152.457 94.8763L139.283 108.055C139.162 108.177 138.998 108.241 138.834 108.241Z" fill="#E527BB"/>
<path d="M165.176 108.241C165.012 108.241 164.848 108.177 164.72 108.055L151.546 94.8763C151.297 94.6268 151.297 94.2205 151.546 93.971C151.796 93.7216 152.202 93.7216 152.451 93.971L165.625 107.15C165.874 107.4 165.874 107.806 165.625 108.055C165.504 108.177 165.34 108.241 165.176 108.241Z" fill="#E527BB"/>
<path d="M152.01 108.241C151.846 108.241 151.682 108.177 151.554 108.055C151.305 107.806 151.305 107.4 151.554 107.15L164.728 93.971C164.977 93.7216 165.383 93.7216 165.633 93.971C165.882 94.2205 165.882 94.6268 165.633 94.8763L152.459 108.055C152.338 108.177 152.174 108.241 152.01 108.241Z" fill="#E527BB"/>
<path d="M178.348 108.241C178.184 108.241 178.02 108.177 177.892 108.055L164.718 94.8763C164.469 94.6268 164.469 94.2205 164.718 93.971C164.968 93.7216 165.374 93.7216 165.623 93.971L178.797 107.15C179.046 107.4 179.046 107.806 178.797 108.055C178.675 108.177 178.512 108.241 178.348 108.241Z" fill="#E527BB"/>
<path d="M165.174 108.241C165.01 108.241 164.847 108.177 164.718 108.055C164.469 107.806 164.469 107.4 164.718 107.15L177.892 93.971C178.141 93.7216 178.547 93.7216 178.797 93.971C179.046 94.2205 179.046 94.6268 178.797 94.8763L165.623 108.055C165.502 108.177 165.338 108.241 165.174 108.241Z" fill="#E527BB"/>
<path d="M191.516 108.241C191.352 108.241 191.188 108.177 191.06 108.055L177.886 94.8763C177.637 94.6268 177.637 94.2205 177.886 93.971C178.136 93.7216 178.542 93.7216 178.791 93.971L191.965 107.15C192.214 107.4 192.214 107.806 191.965 108.055C191.843 108.177 191.68 108.241 191.516 108.241Z" fill="#E527BB"/>
<path d="M178.35 108.241C178.186 108.241 178.022 108.177 177.894 108.055C177.645 107.806 177.645 107.4 177.894 107.15L191.068 93.971C191.317 93.7216 191.723 93.7216 191.972 93.971C192.222 94.2205 192.222 94.6268 191.972 94.8763L178.799 108.055C178.678 108.177 178.514 108.241 178.35 108.241Z" fill="#E527BB"/>
<path d="M204.688 108.241C204.524 108.241 204.36 108.177 204.232 108.055L191.058 94.8763C190.809 94.6268 190.809 94.2205 191.058 93.971C191.307 93.7216 191.714 93.7216 191.963 93.971L205.136 107.15C205.386 107.4 205.386 107.806 205.136 108.055C205.015 108.177 204.851 108.241 204.688 108.241Z" fill="#E527BB"/>
<path d="M191.514 108.241C191.35 108.241 191.186 108.177 191.058 108.055C190.809 107.806 190.809 107.4 191.058 107.15L204.232 93.971C204.481 93.7216 204.887 93.7216 205.136 93.971C205.386 94.2205 205.386 94.6268 205.136 94.8763L191.963 108.055C191.842 108.177 191.678 108.241 191.514 108.241Z" fill="#E527BB"/>
<path d="M217.856 108.241C217.692 108.241 217.528 108.177 217.4 108.055L204.226 94.8763C203.977 94.6268 203.977 94.2205 204.226 93.971C204.475 93.7216 204.882 93.7216 205.131 93.971L218.304 107.15C218.554 107.4 218.554 107.806 218.304 108.055C218.183 108.177 218.019 108.241 217.856 108.241Z" fill="#E527BB"/>
<path d="M231.027 108.241C230.864 108.241 230.7 108.177 230.571 108.055L217.398 94.8763C217.149 94.6268 217.149 94.2205 217.398 93.971C217.647 93.7216 218.053 93.7216 218.303 93.971L231.476 107.15C231.726 107.4 231.726 107.806 231.476 108.055C231.355 108.177 231.191 108.241 231.027 108.241Z" fill="#E527BB"/>
<path d="M217.854 108.241C217.69 108.241 217.526 108.177 217.398 108.055C217.149 107.806 217.149 107.4 217.398 107.15L230.571 93.971C230.821 93.7216 231.227 93.7216 231.476 93.971C231.726 94.2205 231.726 94.6268 231.476 94.8763L218.303 108.055C218.182 108.177 218.018 108.241 217.854 108.241Z" fill="#E527BB"/>
<path d="M244.195 108.241C244.032 108.241 243.868 108.177 243.739 108.055L230.566 94.8763C230.317 94.6268 230.317 94.2205 230.566 93.971C230.815 93.7216 231.221 93.7216 231.471 93.971L244.644 107.15C244.894 107.4 244.894 107.806 244.644 108.055C244.53 108.177 244.366 108.241 244.195 108.241Z" fill="#E527BB"/>
<path d="M231.03 108.241C230.866 108.241 230.702 108.177 230.574 108.055C230.324 107.806 230.324 107.4 230.574 107.15L243.747 93.971C243.997 93.7216 244.403 93.7216 244.652 93.971C244.901 94.2205 244.901 94.6268 244.652 94.8763L231.479 108.055C231.357 108.177 231.194 108.241 231.03 108.241Z" fill="#E527BB"/>
<path d="M257.367 108.241C257.203 108.241 257.04 108.177 256.911 108.055L243.738 94.8763C243.488 94.6268 243.488 94.2205 243.738 93.971C243.987 93.7216 244.393 93.7216 244.643 93.971L257.816 107.15C258.065 107.4 258.065 107.806 257.816 108.055C257.695 108.177 257.531 108.241 257.367 108.241Z" fill="#E527BB"/>
<path d="M244.194 108.241C244.03 108.241 243.866 108.177 243.738 108.055C243.488 107.806 243.488 107.4 243.738 107.15L256.911 93.971C257.161 93.7216 257.567 93.7216 257.816 93.971C258.065 94.2205 258.065 94.6268 257.816 94.8763L244.643 108.055C244.529 108.177 244.365 108.241 244.194 108.241Z" fill="#E527BB"/>
<path d="M257.37 108.241C257.206 108.241 257.042 108.177 256.914 108.055C256.664 107.806 256.664 107.4 256.914 107.15L270.087 93.971C270.336 93.7216 270.743 93.7216 270.992 93.971C271.241 94.2205 271.241 94.6268 270.992 94.8763L257.818 108.055C257.697 108.177 257.533 108.241 257.37 108.241Z" fill="#E527BB"/>
<path d="M283.707 108.241C283.543 108.241 283.379 108.177 283.251 108.055L270.078 94.8763C269.828 94.6268 269.828 94.2205 270.078 93.971C270.327 93.7216 270.733 93.7216 270.982 93.971L284.156 107.15C284.405 107.4 284.405 107.806 284.156 108.055C284.035 108.177 283.871 108.241 283.707 108.241Z" fill="#E527BB"/>
<path d="M130.231 94.6269C130.089 94.6269 129.953 94.5841 129.832 94.4843L117.286 84.4699C117.143 84.3559 117.058 84.1848 117.044 84.0066C117.036 83.8213 117.101 83.6431 117.229 83.5148L125.878 74.8617L119.637 68.6179C119.388 68.3684 119.388 67.9621 119.637 67.7127L124.46 62.8872L120.413 58.8387C120.164 58.5892 120.164 58.1829 120.413 57.9334C120.663 57.684 121.069 57.684 121.318 57.9334L125.814 62.431C126.063 62.6805 126.063 63.0868 125.814 63.3362L120.991 68.1617L127.232 74.4056C127.481 74.655 127.481 75.0613 127.232 75.3108L118.639 83.9068L130.623 93.4722C130.901 93.6931 130.944 94.0994 130.723 94.3703C130.609 94.5413 130.424 94.6269 130.231 94.6269Z" fill="#E527BB"/>
<path d="M115.111 94.6269C114.926 94.6269 114.74 94.5485 114.612 94.3917C114.384 94.1208 114.427 93.7145 114.698 93.4864L126.781 83.5504L118.645 75.4106C118.524 75.2894 118.46 75.1255 118.46 74.9544C118.46 74.7833 118.524 74.6194 118.645 74.4982L125.021 68.1189C123.212 66.2942 120.825 63.8922 120.54 63.6356C120.454 63.5715 120.383 63.4788 120.34 63.3719C120.162 62.9442 120.162 62.9442 124.622 58.5322C124.879 58.2827 125.278 58.2827 125.527 58.5393C125.777 58.7888 125.777 59.195 125.52 59.4445C124.359 60.5921 122.62 62.3241 121.829 63.1153C122.506 63.7568 123.789 65.054 126.382 67.6699C126.631 67.9194 126.631 68.3256 126.382 68.5751L120.006 74.9473L128.192 83.1299C128.32 83.2582 128.391 83.4364 128.377 83.6146C128.363 83.7928 128.284 83.9638 128.142 84.0779L115.517 94.4772C115.396 94.577 115.253 94.6269 115.111 94.6269Z" fill="#E527BB"/>
<path d="M199.077 95.0687C198.956 95.0687 198.835 95.0331 198.728 94.9618L122.722 44.9111C122.43 44.7186 122.344 44.3195 122.537 44.0201C122.729 43.7279 123.128 43.6423 123.427 43.8348L199.433 93.8855C199.725 94.078 199.811 94.4771 199.618 94.7765C199.49 94.9618 199.283 95.0687 199.077 95.0687Z" fill="#E527BB"/>
<path d="M172.828 172.326L204.112 108.055L231.45 172.925" stroke="#001848" stroke-width="1.5065" stroke-miterlimit="10"/>
<path d="M239.851 169.339H167.586V206.71H239.851V169.339Z" fill="#E527BB"/>
<path d="M167.586 169.339H239.851V206.71L167.586 169.339Z" fill="#E527BB"/>
<path d="M203.717 202.048C211.46 202.048 217.738 195.768 217.738 188.021C217.738 180.274 211.46 173.994 203.717 173.994C195.973 173.994 189.695 180.274 189.695 188.021C189.695 195.768 195.973 202.048 203.717 202.048Z" fill="white"/>
<path d="M200.516 193.944V182.105L209.635 188.313L200.516 193.944Z" fill="#E527BB"/>
<path d="M489.6 301.23H79.5625V306.248H489.6V301.23Z" fill="#E527BB"/>
<path d="M357.486 215.727H317.254C316.513 215.727 315.914 216.325 315.914 217.067V246.369C315.914 247.11 316.513 247.709 317.254 247.709H332.308V252.719H332.073C331.125 252.719 330.349 253.489 330.349 254.444H344.377C344.377 253.496 343.608 252.719 342.653 252.719H342.418V247.709H357.472C358.213 247.709 358.812 247.11 358.812 246.369V217.067C358.826 216.332 358.227 215.727 357.486 215.727Z" fill="#C11AA1"/>
<path d="M358.998 247.709H318.765C318.024 247.709 317.426 247.11 317.426 246.369V217.067C317.426 216.325 318.024 215.727 318.765 215.727H358.998C359.739 215.727 360.338 216.325 360.338 217.067V246.369C360.338 247.11 359.739 247.709 358.998 247.709Z" fill="#E527BB"/>
<path d="M357.895 218.086H319.871V245.349H357.895V218.086Z" fill="#FFFFF6"/>
<path d="M344.179 252.727H333.591C332.644 252.727 331.867 253.496 331.867 254.451H345.896C345.896 253.496 345.126 252.727 344.179 252.727Z" fill="#E527BB"/>
<path d="M343.945 247.708H333.828V252.719H343.945V247.708Z" fill="#E527BB"/>
<path d="M357.895 218.086H319.871V219.112H357.895V218.086Z" fill="#CACACA"/>
<path d="M357.895 218.827H319.871V219.854H357.895V218.827Z" fill="#4C4C4C"/>
<path d="M357.596 218.243H356.613V218.392H357.596V218.243Z" fill="#4C4C4C"/>
<path d="M357.596 218.449H356.613V218.599H357.596V218.449Z" fill="#4C4C4C"/>
<path d="M320.549 219.326C320.549 219.44 320.456 219.54 320.335 219.54C320.221 219.54 320.121 219.447 320.121 219.326C320.121 219.212 320.214 219.112 320.335 219.112C320.456 219.119 320.549 219.212 320.549 219.326Z" fill="#FD161F"/>
<path d="M321.267 219.326C321.267 219.44 321.175 219.54 321.054 219.54C320.94 219.54 320.84 219.447 320.84 219.326C320.84 219.212 320.932 219.112 321.054 219.112C321.168 219.119 321.267 219.212 321.267 219.326Z" fill="#F9D13F"/>
<path d="M321.967 219.326C321.967 219.44 321.874 219.54 321.753 219.54C321.639 219.54 321.539 219.447 321.539 219.326C321.539 219.212 321.632 219.112 321.753 219.112C321.874 219.119 321.967 219.212 321.967 219.326Z" fill="#07B03E"/>
<path d="M356.614 222.177H321.547V223.76H356.614V222.177Z" fill="#E4E4E4"/>
<path d="M356.614 226.097H321.547V227.68H356.614V226.097Z" fill="#E4E4E4"/>
<path d="M356.614 236.753H321.547V238.336H356.614V236.753Z" fill="#E4E4E4"/>
<path d="M356.614 240.674H321.547V242.256H356.614V240.674Z" fill="#E4E4E4"/>
<path d="M343.947 230.274H321.547V231.857H343.947V230.274Z" fill="#E4E4E4"/>
<path d="M343.947 234.195H321.547V235.777H343.947V234.195Z" fill="#E4E4E4"/>
<path d="M356.614 229.875H345.898V236.076H356.614V229.875Z" fill="#E4E4E4"/>
<path d="M449.068 215.762H408.836C408.095 215.762 407.496 216.361 407.496 217.102V246.404C407.496 247.146 408.095 247.744 408.836 247.744H423.89V252.755H423.655C422.707 252.755 421.931 253.525 421.931 254.48H435.959C435.959 253.532 435.19 252.755 434.235 252.755H434V247.744H449.054C449.795 247.744 450.394 247.146 450.394 246.404V217.102C450.408 216.361 449.809 215.762 449.068 215.762Z" fill="#C11AA1"/>
<path d="M451.471 247.737H411.238C410.497 247.737 409.898 247.138 409.898 246.397V217.095C409.898 216.354 410.497 215.755 411.238 215.755H451.471C452.212 215.755 452.81 216.354 452.81 217.095V246.397C452.81 247.138 452.212 247.737 451.471 247.737Z" fill="#E527BB"/>
<path d="M450.368 218.115H412.344V245.378H450.368V218.115Z" fill="#FFFFF6"/>
<path d="M436.643 252.755H426.056C425.109 252.755 424.332 253.525 424.332 254.48H438.36C438.368 253.525 437.598 252.755 436.643 252.755Z" fill="#E527BB"/>
<path d="M436.41 247.737H426.293V252.748H436.41V247.737Z" fill="#E527BB"/>
<path d="M450.368 218.115H412.344V219.141H450.368V218.115Z" fill="#CACACA"/>
<path d="M450.368 218.856H412.344V219.882H450.368V218.856Z" fill="#4C4C4C"/>
<path d="M450.061 218.271H449.078V218.421H450.061V218.271Z" fill="#4C4C4C"/>
<path d="M450.061 218.478H449.078V218.628H450.061V218.478Z" fill="#4C4C4C"/>
<path d="M413.013 219.355C413.013 219.469 412.921 219.569 412.8 219.569C412.686 219.569 412.586 219.476 412.586 219.355C412.586 219.241 412.679 219.141 412.8 219.141C412.921 219.148 413.013 219.241 413.013 219.355Z" fill="#FD161F"/>
<path d="M413.732 219.355C413.732 219.469 413.64 219.569 413.518 219.569C413.404 219.569 413.305 219.476 413.305 219.355C413.305 219.241 413.397 219.141 413.518 219.141C413.64 219.148 413.732 219.241 413.732 219.355Z" fill="#F9D13F"/>
<path d="M414.439 219.355C414.439 219.469 414.347 219.569 414.225 219.569C414.111 219.569 414.012 219.476 414.012 219.355C414.012 219.241 414.104 219.141 414.225 219.141C414.347 219.148 414.439 219.241 414.439 219.355Z" fill="#07B03E"/>
<path d="M449.087 222.206H414.02V223.788H449.087V222.206Z" fill="#E4E4E4"/>
<path d="M449.087 226.126H414.02V227.708H449.087V226.126Z" fill="#E4E4E4"/>
<path d="M449.087 236.782H414.02V238.364H449.087V236.782Z" fill="#E4E4E4"/>
<path d="M449.087 240.702H414.02V242.285H449.087V240.702Z" fill="#E4E4E4"/>
<path d="M436.419 230.303H414.02V231.885H436.419V230.303Z" fill="#E4E4E4"/>
<path d="M436.419 234.223H414.02V235.805H436.419V234.223Z" fill="#E4E4E4"/>
<path d="M449.087 229.904H438.371V236.105H449.087V229.904Z" fill="#E4E4E4"/>
<path d="M412.177 256.383H406.577H386.179H380.579H304.73V256.768C304.73 259.983 307.331 262.584 310.544 262.584H314.776V322.649C314.776 322.984 315.068 323.248 315.425 323.248H320.227C320.583 323.248 320.875 322.977 320.875 322.649V262.584H386.179H396.161V322.607C396.161 322.963 396.475 323.248 396.852 323.248H396.874H401.569H401.676C402.032 323.248 402.324 322.977 402.324 322.649V262.584H406.577H477.603V322.607C477.603 322.963 477.916 323.248 478.294 323.248H483.003C483.388 323.248 483.695 322.963 483.695 322.607V262.584C486.081 262.584 488.019 260.645 488.019 258.258V256.761V256.376H412.177V256.383Z" fill="#E1E1E1"/>
<path d="M492.436 253.653H410.987H381.769H300.32C299.251 253.653 298.375 254.466 298.375 255.456C298.375 256.447 299.251 257.26 300.32 257.26H304.73V256.875H380.579H386.179H406.577H412.177H488.026V257.26H492.436C493.505 257.26 494.381 256.447 494.381 255.456C494.381 254.466 493.505 253.653 492.436 253.653Z" fill="#001848"/>
<path d="M351.76 223.496C352.166 223.432 352.458 223.389 352.458 223.389L352.416 220.602H352.423C352.302 219.64 352.059 218.599 351.582 217.722L357.125 215.776C357.125 215.776 357.36 217.116 357.624 218.649L357.631 218.692L358.422 222.177C358.457 222.576 358.878 222.369 359.277 222.419C359.398 222.434 359.519 222.455 359.633 222.476C357.681 223.196 354.724 223.46 351.76 223.496Z" fill="#FF926E"/>
<path d="M323.403 253.803H338.842C339.305 253.803 339.676 254.173 339.676 254.63H322.562C322.562 254.166 322.94 253.803 323.403 253.803Z" fill="#E527BB"/>
<path d="M348.889 298.116C350.171 302.955 351.511 307.097 352.259 309.363C352.629 310.482 352.651 311.687 352.323 312.82C351.511 315.664 351.432 318.301 351.055 320.319C350.855 321.388 350.563 322.279 350.043 322.934C348.533 324.83 353.541 325.486 355.465 324.666C357.403 323.832 356.256 317.389 356.256 317.389C356.256 317.389 358.97 313.512 356.327 311.209C356.334 311.131 356.334 311.045 356.341 310.96C356.562 306.263 356.755 301.38 356.812 296.811C356.947 285.706 356.327 276.405 353.577 275.899C353.791 275.842 355.629 275.207 355.836 275.15C359.904 273.874 362.625 271.793 363.274 268.464C363.274 268.464 346.78 267.053 345.783 274.053C344.849 280.532 346.801 290.247 348.889 298.116Z" fill="#231F20"/>
<path d="M327.13 310.411C328.989 308.501 331.519 305.985 332.894 301.009V301.002C332.901 300.995 332.901 300.988 332.901 300.981C335.708 297.36 338.772 293.654 341.714 289.997C348.96 280.966 355.422 272.157 355.229 265.179C355.194 263.938 354.66 262.833 353.826 262.042C352.985 261.237 351.838 260.752 350.598 260.752C347.884 260.752 345.447 262.363 344.4 264.836L335.772 285.607L330.25 298.893L330.222 298.878C327.515 301.124 325.919 302.663 324.807 304.666C324.216 305.728 323.76 306.925 323.354 308.422C322.663 310.917 325.334 312.264 327.13 310.411Z" fill="#231F20"/>
<path d="M358.516 212.954C359.086 210.302 358.708 207.508 357.297 205.185C356.385 203.673 355.21 202.54 353.956 202.312C351.177 201.799 347.473 202.127 346.582 208.556C346.468 209.369 346.119 210.153 345.527 210.723C344.908 211.322 344.48 212.12 346.204 212.376C346.112 215.47 347.985 218.67 350.899 219.468C352.46 219.896 354.326 219.069 355.88 217.715C357.212 216.56 358.081 214.978 358.444 213.267L358.516 212.954Z" fill="#FFBDA8"/>
<path d="M349.01 209.518C348.953 209.889 348.639 210.153 348.305 210.103C347.97 210.053 347.749 209.711 347.806 209.34C347.863 208.969 348.176 208.706 348.511 208.756C348.846 208.805 349.067 209.148 349.01 209.518Z" fill="#FFBDA8"/>
<path d="M350.051 207.829C349.966 207.822 349.88 207.765 349.852 207.672C349.367 206.275 348.085 206.624 348.028 206.639C347.907 206.674 347.771 206.603 347.736 206.482C347.7 206.361 347.771 206.232 347.9 206.197C348.505 206.026 349.795 206.083 350.293 207.53C350.336 207.651 350.272 207.786 350.144 207.822C350.115 207.829 350.087 207.829 350.051 207.829Z" fill="#FFBDA8"/>
<path d="M347.214 214.037C347.256 213.959 347.349 213.916 347.442 213.93C348.923 214.101 349.166 212.804 349.173 212.754C349.194 212.626 349.315 212.547 349.444 212.562C349.572 212.583 349.657 212.704 349.636 212.833C349.529 213.453 348.923 214.572 347.392 214.394C347.263 214.379 347.171 214.265 347.185 214.137C347.185 214.094 347.192 214.066 347.214 214.037Z" fill="#FFBDA8"/>
<path d="M355.471 324.666C357.409 323.832 356.262 317.389 356.262 317.389C356.262 317.389 358.976 313.511 356.333 311.209C356.326 311.288 356.34 311.131 356.333 311.209C354.41 310.988 352.479 311.402 352.237 315.635C352.187 316.491 352.094 317.339 351.902 318.173C351.702 319.007 351.417 319.933 351.061 320.318C350.861 321.387 350.569 322.278 350.049 322.934C348.539 324.837 353.547 325.493 355.471 324.666Z" fill="#8268E0"/>
<path d="M327.129 310.411C328.988 308.501 331.518 305.985 332.893 301.009V301.002C332.608 300.589 330.249 298.9 330.249 298.9C330.249 298.9 329.088 299.833 328.981 299.933C327.157 301.622 325.433 303.305 324.813 304.666C324.222 305.728 323.766 306.925 323.36 308.422C322.662 310.917 325.333 312.264 327.129 310.411Z" fill="#8268E0"/>
<path d="M326.19 250.424L327.651 248.892C328.406 248.1 329.567 247.851 330.579 248.257L341.601 251.279L341.629 251.108C342.634 252.534 343.952 254.893 344.173 257.666C343.581 257.716 342.969 257.623 342.377 257.331L329.945 250.731L329.738 250.895C329.14 251.372 328.449 251.714 327.743 252.021C327.437 252.156 327.152 252.32 326.881 252.52L325.813 253.311C325.542 253.51 325.164 253.318 325.164 252.983C325.157 252.035 325.528 251.115 326.19 250.424Z" fill="#FFBDA8"/>
<path d="M349.421 272.477H369.413C372.847 272.477 375.654 269.648 375.654 266.191C375.654 262.734 372.847 259.904 369.413 259.904H349.421C345.987 259.904 343.18 262.734 343.18 266.191C343.18 269.648 345.987 272.477 349.421 272.477Z" fill="#231F20"/>
<path d="M365.888 228.371C365.125 225.313 362.625 223.011 359.632 222.477C357.68 223.196 354.723 223.46 351.759 223.496C351.752 223.496 351.745 223.496 351.745 223.496C350.848 223.638 349.387 223.866 349.316 223.895C345.882 225.214 343.417 228.87 343.132 235.449C342.989 238.535 342.868 241.622 342.469 244.687L341.999 248.272L341.621 251.109C342.626 252.534 343.944 254.893 344.157 257.666C344.35 257.652 344.542 257.616 344.727 257.573C346.081 257.238 347.193 256.105 347.328 254.573L347.371 254.102L347.898 248.272L348.895 237.153C348.895 237.174 348.902 237.174 348.902 237.181V237.188C348.91 237.502 348.938 237.823 348.981 238.143V238.15C349.066 238.92 349.216 239.697 349.43 240.431C350.441 243.838 353.37 243.838 353.37 243.838C353.37 243.838 356.732 256.718 356.925 259.904L372.699 260.767C367.398 247.409 368.032 236.996 365.888 228.371Z" fill="#A78BEF"/>
<path d="M359.212 201.485C359.084 201.364 358.942 201.243 358.806 201.129C356.989 199.647 354.546 199.162 352.251 199.639C350.648 199.974 348.547 200.416 347.82 200.594C346.773 200.851 345.319 202.098 345.398 203.26C346.032 203.317 346.63 202.997 347.25 202.925C346.716 203.581 346.117 204.579 346.958 205.292C347.663 205.89 348.397 204.914 349.28 204.586C349.715 206.147 350.762 206.995 352.031 207.908C352.508 207.573 352.9 207.024 353.327 206.575C353.413 208.071 353.313 209.953 352.572 211.229C353.484 211.115 354.04 210.174 354.952 210.908C355.486 211.343 355.557 212.27 355.479 212.911C355.358 213.966 355.002 214.18 354.111 214.75C353.178 215.356 353.306 214.843 353.434 216.076C353.505 216.767 353.185 218.67 353.684 219.162C354.702 220.167 357.153 218.948 357.923 218.428C361.243 216.19 362.853 213.945 363.074 209.868C363.245 206.674 361.528 203.652 359.212 201.485Z" fill="#231F20"/>
<path d="M346.25 201.742C346.072 202.519 352.583 207.038 362.359 208.478C362.359 208.478 362.757 206.332 362.936 205.363C362.978 205.113 363.014 204.942 363.021 204.907C363.413 203.139 363.256 202.362 362.715 200.815V200.808C362.572 200.402 362.408 200.01 362.209 199.639C361.589 198.435 360.691 197.387 359.551 196.589C358.625 195.947 357.549 195.462 356.338 195.184C355.049 194.892 353.795 194.899 352.619 195.149C352.306 195.213 352.006 195.299 351.714 195.391C350.311 195.847 349.214 196.667 348.195 197.864C348.145 197.922 348.095 197.986 348.045 198.043C347.162 199.133 346.592 200.21 346.25 201.742Z" fill="#E527BB"/>
<path d="M361.02 208.299C361.02 208.299 351.195 207.43 346.693 204.536C346.693 204.536 344.634 203.132 344.676 202.113C344.698 201.435 346.365 201.279 346.365 201.279C348.16 203.645 354.117 205.976 361.02 208.299Z" fill="#C11AA1"/>
<path d="M369.421 217.701C368.766 215.377 368.288 213.695 368.416 211.25C368.53 209.148 368.716 206.91 368.438 204.807C368.146 202.583 366.956 200.103 364.498 199.696C363.408 199.518 362.475 199.989 361.584 200.544C360.358 201.3 360.024 202.177 359.276 203.153C359.276 203.153 358.798 204.629 358.207 206.154C357.501 207.957 356.989 209.825 356.668 211.706C356.119 214.985 354.616 220.153 356.54 223.225C357.623 222.847 357.672 221.065 358.449 220.26C359.774 221.422 359.539 225.755 359.689 227.444C359.91 229.889 360.358 232.099 361.171 234.465C361.99 236.86 362.938 238.585 365.716 237.751C367.911 237.088 368.78 234.415 369.678 232.498C371.851 227.851 370.753 222.398 369.421 217.701Z" fill="#231F20"/>
<path d="M369.657 320.817H364.435V283.361H358.257V320.817H353.035C350.178 320.817 347.855 323.134 347.855 325.999H374.829C374.837 323.134 372.514 320.817 369.657 320.817Z" fill="#CCCCCC"/>
<path d="M377.059 236.803C368.574 236.803 361.884 244.031 362.539 252.498L363.173 260.66H347.912C346.787 260.66 345.875 261.572 345.875 262.698C345.875 263.824 346.787 264.737 347.912 264.737H350.67V271.472C344.813 272.698 340.41 277.887 340.41 284.11C340.41 285.421 341.472 286.483 342.783 286.483H373.44C375.905 286.483 378.256 285.984 380.394 285.079C384.562 283.319 388.637 267.388 391.33 254.302C393.19 245.271 386.286 236.803 377.059 236.803ZM357.552 271.202H353.32H353.313V264.744H363.487L363.558 265.663C363.302 268.792 360.694 271.202 357.552 271.202Z" fill="#C11AA1"/>
<path d="M460.183 217.687C460.183 217.687 461.031 223.966 460.889 229.305C460.825 231.814 454.085 233.76 453.843 233.624C453.55 233.46 453.358 233.125 453.436 232.747C453.971 230.196 454.576 225.613 453.102 221.806L460.183 217.687Z" fill="#FF926E"/>
<path d="M463.789 213.417C463.254 209.604 461.331 205.669 458.794 204.928C455.845 204.058 452.931 204.586 450.537 209.361C450.009 210.409 449.511 211.671 449.041 213.16C448.848 213.773 446.967 216.667 446.946 216.995C446.917 217.352 447.929 217.729 448.285 217.858C448.314 217.872 448.349 217.872 448.378 217.865C448.535 221.079 450.131 224.223 453.023 225.349C455.645 226.375 459.457 224.415 461.637 221.6C464.28 218.2 463.881 214.044 463.789 213.417Z" fill="#FFBDA8"/>
<path d="M451.051 215.021C450.994 215.406 450.666 215.669 450.31 215.62C449.954 215.57 449.719 215.213 449.768 214.835C449.825 214.451 450.153 214.187 450.509 214.237C450.866 214.287 451.108 214.643 451.051 215.021Z" fill="#FFBDA8"/>
<path d="M452.511 213.16C452.518 213.16 452.525 213.153 452.532 213.153C452.639 213.118 452.696 213.004 452.661 212.897C452.226 211.642 451.122 211.599 450.594 211.749C450.488 211.778 450.423 211.892 450.459 211.999C450.488 212.106 450.587 212.17 450.708 212.141C450.744 212.127 451.863 211.828 452.283 213.039C452.312 213.125 452.411 213.182 452.511 213.16Z" fill="#FFBDA8"/>
<path d="M449.712 219.205C449.712 219.212 449.712 219.219 449.705 219.226C449.691 219.333 449.762 219.44 449.876 219.454C451.194 219.654 451.743 218.699 451.857 218.164C451.878 218.057 451.807 217.95 451.7 217.929C451.593 217.908 451.486 217.965 451.458 218.086C451.45 218.121 451.194 219.248 449.933 219.062C449.833 219.041 449.733 219.105 449.712 219.205Z" fill="#FFBDA8"/>
<path d="M461.987 226.967C462.97 227.815 463.889 228.82 464.751 229.975C468.25 234.643 469.56 243.767 469.404 250.246C468.862 272.691 463.07 283.09 451.742 280.774C448.97 280.211 448.536 278.315 448.885 275.706C449.64 269.99 450.046 264.231 449.683 258.471C449.198 250.845 448.764 240.83 449.419 236.147C449.996 232.006 452.625 228.364 456.487 226.767C458.496 225.926 460.548 225.72 461.987 226.967Z" fill="#A78BEF"/>
<path d="M426.605 283.269L441.71 318.458L445.058 317.881L435.832 282.114L426.605 283.269Z" fill="#231F20"/>
<path d="M445.056 317.881L441.715 318.458C441.715 318.458 436.015 319.72 434.583 322.827C434.362 323.305 434.747 323.847 435.274 323.804L445.327 322.97C446.232 322.685 446.695 321.68 446.317 320.803L445.056 317.881Z" fill="#A78BEF"/>
<path d="M454.111 271.437L424.85 274.323C417.654 275.029 412.66 281.822 414.128 288.907C416.849 302.036 420.604 320.24 420.604 320.532C420.604 320.996 423.867 320.532 423.867 320.532L424.637 285.742L456.028 285.143C459.996 285.065 462.953 281.444 462.219 277.538V277.531C461.507 273.703 457.98 271.059 454.111 271.437Z" fill="#231F20"/>
<path d="M423.876 320.069H420.613C420.613 320.069 413.246 321.124 413.125 324.588L422.786 324.802C423.392 324.802 423.883 324.31 423.883 323.704V320.069H423.876Z" fill="#A78BEF"/>
<path d="M423.312 252.235L424.986 251.579C425.464 251.401 425.955 251.272 426.476 251.215C427.288 251.123 428.093 250.973 428.841 250.652L429.596 250.331L443.475 263.283C444.138 263.874 444.893 264.209 445.676 264.345C445.712 264.116 445.748 263.881 445.79 263.66C445.762 263.888 445.733 264.116 445.691 264.352C447.835 264.744 450.079 263.632 450.899 261.422C450.899 261.422 454.226 253.681 457.14 246.468L449.239 242.27C447.009 248.478 444.693 254.936 444.693 254.936L444.601 255.143L431.306 247.345C430.13 246.454 428.52 246.376 427.273 247.138L424.83 248.621C423.733 249.284 422.935 250.36 422.6 251.6C422.464 252.028 422.892 252.413 423.312 252.235Z" fill="#FFBDA8"/>
<path d="M468.475 212.077C468.005 208.214 465.176 205.113 461.436 204.265C460.246 204.301 459.056 204.365 457.859 204.436C455.273 204.586 452.651 204.351 450.2 205.334C450.015 205.413 449.851 205.391 449.716 205.327C449.523 205.541 449.338 205.783 449.146 206.047C448.619 206.803 447.6 208.214 448.07 209.19L449.181 207.515C448.676 208.335 448.54 209.732 449.089 210.552C449.538 209.875 450.172 209.34 450.856 208.884C450.692 210.088 451.796 211.044 452.722 211.585C453.143 211.036 453.342 210.345 454.169 210.345C454.34 212.676 454.86 214.75 456.249 216.639C456.406 216.411 456.627 216.168 456.855 215.947C457.873 214.957 459.59 215.078 460.246 216.311C460.438 216.682 460.524 217.102 460.424 217.573C460.089 219.169 458.543 219.547 457.19 219.533C457.724 220.809 457.902 223.788 457.261 225C457.66 225.014 463.124 224.985 466.715 219.533C467.884 217.794 468.696 213.866 468.475 212.077Z" fill="#231F20"/>
<path d="M450.174 205.235C449.867 206.033 456.921 211.806 468.178 214.786C468.178 214.786 468.912 212.569 469.253 211.571C469.332 211.314 469.396 211.136 469.41 211.101C470.101 209.283 470.009 208.435 469.574 206.71V206.703C469.46 206.254 469.31 205.812 469.132 205.384C468.562 204.009 467.636 202.761 466.411 201.749C465.413 200.929 464.209 200.252 462.82 199.782C461.345 199.283 459.877 199.105 458.467 199.19C458.089 199.212 457.726 199.254 457.377 199.319C455.674 199.597 454.285 200.302 452.945 201.414C452.881 201.471 452.817 201.528 452.746 201.578C451.57 202.597 450.772 203.659 450.174 205.235Z" fill="#E527BB"/>
<path d="M466.639 214.394C466.639 214.394 455.247 212.006 450.338 208.264C450.338 208.264 448.108 206.468 448.279 205.391C448.393 204.679 450.366 204.764 450.366 204.764C452.169 207.537 458.852 210.901 466.639 214.394Z" fill="#C11AA1"/>
<path d="M465.969 322.778H460.747V285.322H454.57V322.778H449.348C446.491 322.778 444.168 325.094 444.168 327.959H471.142C471.149 325.094 468.834 322.778 465.969 322.778Z" fill="#CCCCCC"/>
<path d="M473.38 238.771C464.894 238.771 458.204 245.998 458.86 254.466L459.494 262.627H444.233C443.107 262.627 442.195 263.539 442.195 264.665C442.195 265.792 443.107 266.704 444.233 266.704H446.99V273.44C441.134 274.666 436.73 279.855 436.73 286.077C436.73 287.389 437.792 288.451 439.103 288.451H469.76C472.226 288.451 474.577 287.952 476.714 287.046C480.882 285.286 484.957 269.356 487.65 256.269C489.503 247.238 482.599 238.771 473.38 238.771ZM453.865 273.169H449.633H449.626V266.711H459.8L459.871 267.631C459.615 270.76 457.007 273.169 453.865 273.169Z" fill="#C11AA1"/>
<path d="M449.227 242.27L457.128 246.468C459.272 241.151 461.196 236.126 461.403 234.672C462.464 227.188 454.663 227.088 453.409 230.631C453.402 230.659 453.387 230.695 453.38 230.723C453.352 230.809 453.323 230.88 453.288 230.951C453.259 231.037 451.278 236.554 449.227 242.27Z" fill="#E527BB"/>
<path d="M159.41 199.283C159.317 196.902 157.443 194.215 155.719 193.139C153.974 192.048 150.44 190.594 148.773 192.561L144.89 194.792C143.992 195.847 144.049 197.95 143.871 199.326C143.664 200.879 143.586 202.276 143.942 203.83C144.669 207.038 146.058 210.174 148.851 211.193C154.615 213.317 159.659 205.569 159.41 199.283Z" fill="#231F20"/>
<path d="M166.89 284.922C166.591 288.229 166.534 291.437 166.099 294.609C164.938 303.44 162.516 311.908 158.839 321.217C158.804 321.295 158.775 321.38 158.747 321.459L158.975 321.673H155.334L155.384 321.473C155.391 321.366 155.413 321.259 155.413 321.159C156.467 311.33 156.966 302.578 156.937 294.459C156.909 284.694 156.132 275.884 154.65 267.288C154.451 266.105 154.23 264.922 153.995 263.746L154.194 267.039C154.201 267.117 154.216 267.196 154.223 267.267C155.427 277.353 155.526 286.077 154.55 294.423C153.496 303.305 151.18 311.779 147.618 321.031C147.426 321.53 147.233 322.022 147.034 322.514H143.671C143.728 321.993 143.778 321.487 143.828 320.967C144.854 311.145 145.31 302.385 145.217 294.252C145.139 284.737 139.126 260.289 142.268 250.638C142.332 250.446 142.396 250.225 142.439 249.996C142.631 249.205 142.766 248.229 142.816 247.566L161.682 247.573C161.704 247.73 161.739 247.922 161.775 248.158C162.217 250.431 163.606 256.447 164.846 263.29C164.867 263.368 164.874 263.432 164.881 263.503C164.888 263.561 164.903 263.632 164.917 263.689C164.945 263.91 164.981 264.124 165.031 264.345C166.32 271.579 167.368 279.562 166.89 284.922Z" fill="#231F20"/>
<path d="M181.918 199.354L169.842 212.49L169.571 212.775C169.571 212.775 161.228 214.878 155.906 216.803L159.49 225.27C159.583 225.235 159.682 225.185 159.768 225.128L169.6 221.215C170.989 220.659 172.279 219.882 173.426 218.92C173.903 218.535 174.345 218.114 174.758 217.658C175.463 216.91 176.09 216.068 176.625 215.163L184.505 202.747L181.918 199.354Z" fill="#E527BB"/>
<path d="M189.819 194.65C189.477 195.498 188.914 196.225 188.252 196.831L184.497 202.747L181.918 199.354L184.333 196.731H184.397C184.604 195.84 185.245 193.196 186.236 191.442C186.912 190.231 187.432 188.933 187.888 187.615L188.302 186.424C189.442 186.047 189.477 187.301 187.817 191.015C187.817 191.015 191.087 191.507 189.819 194.65Z" fill="#FFBDA8"/>
<path d="M161.682 247.559H157.287L147.967 247.552L142.816 247.545C142.774 248.208 142.695 243.311 142.033 240.032L138.121 220.616C137.523 217.637 139.532 214.764 142.531 214.315L146.193 213.759L147.804 213.517C147.811 213.517 147.825 213.517 147.832 213.503C147.853 213.503 147.875 213.496 147.889 213.496L148.103 214.529C148.794 217.829 153.489 217.829 154.18 214.529L154.373 213.61C154.387 213.617 154.415 213.631 154.43 213.638C154.622 213.724 154.843 213.781 155.092 213.838L155.171 213.852L162.616 214.935L160.906 241.408C160.849 242.327 161.177 244.694 161.682 247.559Z" fill="#E527BB"/>
<path d="M149.05 233.125C149.007 234.016 148.978 235.342 148.957 236.939C148.95 237.395 148.943 237.872 148.936 238.364C148.914 240.061 148.9 241.964 148.886 243.924C148.886 244.394 148.886 244.872 148.879 245.349C148.857 250.695 148.843 256.162 148.765 258.671L141.825 258.386C140.849 258.343 140.137 257.466 140.293 256.504C140.764 253.724 141.64 248.307 141.989 244.309C142.032 243.817 142.067 243.339 142.089 242.897C142.16 241.65 142.153 240.638 142.032 240.032L141.562 237.68H141.555L141.262 236.219L138.12 220.616C137.529 217.658 139.503 214.807 142.466 214.329C142.488 214.322 142.509 214.315 142.531 214.315L143.813 214.123L146.193 213.759C146.478 215.919 147.888 218.407 148.337 220.345C149.263 224.429 149.256 228.891 149.05 233.125Z" fill="#A78BEF"/>
<path d="M163.722 258.307H158.798C158.385 255.592 157.587 250.51 156.825 245.264C156.761 244.8 156.697 244.33 156.633 243.859C156.362 241.971 156.098 240.089 155.87 238.314C155.806 237.829 155.749 237.352 155.692 236.881C155.35 234.109 155.094 231.7 155.022 230.074C154.78 224.779 155.521 219.112 155.172 213.852L157.202 214.144L158.627 214.358L162.631 214.664L161.264 235.898L161.164 237.437L160.907 241.408C160.893 241.593 161.057 242.263 161.328 243.254C161.442 243.66 161.57 244.123 161.712 244.629C162.703 248.058 164.341 253.368 165.161 256.44C165.41 257.388 164.705 258.307 163.722 258.307Z" fill="#A78BEF"/>
<path d="M147.268 243.796C147.809 243.845 148.343 243.895 148.885 243.924C148.885 244.394 148.885 244.872 148.878 245.349C148.343 245.321 147.802 245.271 147.268 245.221C145.515 245.05 143.748 244.622 141.988 244.309C142.031 243.817 142.067 243.339 142.088 242.897C143.812 243.211 145.543 243.632 147.268 243.796Z" fill="#FFBE2E"/>
<path d="M146.89 236.803C147.574 236.853 148.265 236.903 148.956 236.939C148.949 237.395 148.942 237.872 148.935 238.364C146.463 238.236 144.026 237.972 141.561 237.68H141.554L141.262 236.219C142.615 236.383 143.962 236.539 145.309 236.668C144.332 233.788 144.703 229.811 144.482 226.995C144.233 223.838 144.026 220.744 143.235 217.658C142.943 216.525 142.665 215.434 142.466 214.33C142.487 214.322 142.509 214.315 142.53 214.315L143.812 214.123C144.297 217.523 145.451 220.916 145.707 224.344C145.893 226.689 146.057 229.027 146.263 231.372C146.391 232.904 146.22 235.349 146.89 236.803Z" fill="#FFBE2E"/>
<path d="M161.709 244.63C160.726 244.801 159.742 244.95 158.745 245.071C158.104 245.15 157.462 245.214 156.821 245.264C156.757 244.801 156.693 244.33 156.629 243.86C156.893 243.838 157.149 243.817 157.405 243.788C158.724 243.66 160.027 243.482 161.324 243.254C161.438 243.66 161.566 244.123 161.709 244.63Z" fill="#FFBE2E"/>
<path d="M161.259 235.898L161.159 237.438C159.435 237.851 157.682 238.165 155.866 238.314C155.801 237.83 155.744 237.352 155.688 236.882C156.407 236.81 157.127 236.725 157.832 236.611C157.804 229.12 157.362 221.636 157.198 214.144L158.623 214.358C158.794 221.693 159.214 229.013 159.257 236.347C159.927 236.212 160.596 236.069 161.259 235.898Z" fill="#FFBE2E"/>
<path d="M147.891 213.488L148.375 215.812C149.002 218.813 153.284 218.813 153.911 215.812L154.374 213.602C153.797 213.346 153.491 212.911 153.32 212.141C153.32 212.134 153.32 212.134 153.32 212.134C153.184 211.136 153.27 210.338 153.597 209.739L148.959 208.634L148.724 211.179C148.689 211.642 148.667 212.091 148.667 212.547V212.555C148.66 213.025 148.339 213.41 147.891 213.488Z" fill="#FF926E"/>
<path d="M146.941 213.652L148.666 212.555L151.594 218.064L149.264 219.725L146.941 213.652Z" fill="#C11AA1"/>
<path d="M155.171 213.852L153.511 212.74L151.438 218.064L153.76 219.725L155.171 213.852Z" fill="#C11AA1"/>
<path d="M143.401 203.617C143.073 202.319 143.387 200.587 144.47 200.466C144.79 200.43 145.168 200.544 145.531 200.744C146.251 197.016 148.901 192.811 151.609 192.512C155.149 192.12 158.27 193.795 159.032 202.982C159.332 206.617 156.959 210.509 153.489 211.208C150.882 211.728 147.754 208.984 146.244 206.047C145.075 205.748 143.814 205.256 143.401 203.617Z" fill="#FFBDA8"/>
<path d="M155.028 207.216C155.249 207.209 155.384 207.195 155.392 207.195C155.513 207.173 155.598 207.066 155.577 206.945C155.555 206.824 155.456 206.738 155.327 206.76C155.221 206.774 152.584 207.13 151.879 204.579C151.843 204.465 151.729 204.393 151.608 204.422C151.494 204.457 151.423 204.579 151.452 204.693C152.1 207.023 154.18 207.237 155.028 207.216Z" fill="#FFBDA8"/>
<path d="M150.698 200.01C150.783 200.017 150.869 199.974 150.912 199.896C151.603 198.67 152.728 199.211 152.778 199.233C152.885 199.29 153.021 199.24 153.078 199.133C153.135 199.026 153.085 198.891 152.978 198.834C152.443 198.57 151.239 198.406 150.527 199.675C150.47 199.782 150.506 199.917 150.612 199.974C150.641 200.003 150.669 200.01 150.698 200.01Z" fill="#001848"/>
<path d="M156.061 199.818C156.11 199.867 156.189 199.889 156.253 199.86C157.364 199.461 157.785 200.423 157.799 200.466C157.842 200.559 157.949 200.602 158.041 200.566C158.134 200.523 158.177 200.416 158.141 200.324C157.949 199.86 157.272 199.098 156.125 199.511C156.032 199.547 155.975 199.654 156.011 199.746C156.032 199.775 156.046 199.796 156.061 199.818Z" fill="#FFBDA8"/>
<path d="M156.254 201.699C156.155 202.034 156.333 202.383 156.653 202.476C156.974 202.569 157.309 202.369 157.408 202.034C157.508 201.699 157.33 201.35 157.009 201.257C156.689 201.165 156.347 201.364 156.254 201.699Z" fill="#FFBDA8"/>
<path d="M151.821 201.699C151.721 202.034 151.899 202.383 152.22 202.476C152.54 202.569 152.875 202.369 152.975 202.034C153.075 201.699 152.896 201.35 152.576 201.257C152.255 201.165 151.92 201.364 151.821 201.699Z" fill="#FFBDA8"/>
<path d="M154.807 205.242C154.551 205.242 154.237 205.177 153.874 205.013C153.774 204.971 153.732 204.85 153.774 204.75C153.817 204.65 153.938 204.607 154.038 204.65C154.921 205.049 155.342 204.721 155.484 204.579L154.679 201.963C154.651 201.856 154.708 201.749 154.815 201.713C154.921 201.685 155.028 201.742 155.064 201.849L155.897 204.564C155.912 204.621 155.905 204.678 155.876 204.721C155.869 204.721 155.555 205.242 154.807 205.242Z" fill="#FFBDA8"/>
<path d="M163.713 327.71C163.627 327.731 163.549 327.76 163.464 327.767C161.91 328.095 159.11 328.066 158.063 326.833C157.621 326.306 157.009 325.949 156.303 325.928L155.976 325.935C154.159 325.885 154.786 323.861 155.227 322.093L155.334 321.658H158.975L164.005 326.242C164.546 326.676 164.375 327.539 163.713 327.71Z" fill="#A78BEF"/>
<path d="M152.002 328.772C151.917 328.793 151.832 328.808 151.746 328.829C150.193 329.143 147.407 329.114 146.36 327.888C145.911 327.368 145.291 327.004 144.6 326.997H144.287C142.463 326.961 143.09 324.923 143.531 323.155L143.688 322.528V322.5H147.051V322.507L152.316 327.311C152.843 327.724 152.665 328.587 152.002 328.772Z" fill="#A78BEF"/>
<path d="M162.461 232.954L146.139 255.299C145.604 256.026 144.685 256.361 143.816 256.133C143.773 256.119 143.731 256.112 143.695 256.098C143.609 256.069 143.524 256.041 143.446 255.998C142.22 255.456 141.821 253.831 142.64 252.705L158.935 230.402C159.355 229.825 160.096 229.575 160.787 229.768C161.307 229.91 161.742 230.146 162.091 230.488C162.262 230.645 162.404 230.823 162.54 231.022C162.917 231.621 162.874 232.391 162.461 232.954Z" fill="#CCCCCC"/>
<path d="M162.461 232.954L146.138 255.299C145.604 256.026 144.685 256.361 143.816 256.133C143.773 256.119 143.73 256.112 143.695 256.098C143.609 256.069 143.524 256.041 143.445 255.998L162.091 230.488C162.262 230.645 162.404 230.823 162.539 231.022C162.917 231.621 162.874 232.391 162.461 232.954Z" fill="#E6E6E6"/>
<path d="M146.059 254.936C145.518 255.877 144.314 256.198 143.373 255.656C142.433 255.114 142.112 253.91 142.654 252.969C143.195 252.028 144.399 251.707 145.34 252.249C146.28 252.791 146.601 253.995 146.059 254.936Z" fill="#CCCCCC"/>
<path d="M145.617 254.679C145.211 255.378 144.32 255.62 143.622 255.214C142.924 254.808 142.682 253.917 143.088 253.218C143.494 252.52 144.384 252.277 145.083 252.684C145.781 253.09 146.023 253.981 145.617 254.679Z" fill="#E6E6E6"/>
<path d="M145.624 242.619L145.197 245.798L145.019 247.117C145.019 247.117 129.815 246.354 128.055 243.489C127.734 243.161 127.485 242.762 127.357 242.306C124.828 233.467 139.433 215.755 139.433 215.755C140.872 216.532 141.485 219.119 141.727 221.407C141.791 222.02 141.834 222.605 141.855 223.139C141.92 224.543 141.513 225.926 140.701 227.074C137.908 231.037 133.79 237.801 132.878 239.305C132.871 239.319 132.871 239.319 132.871 239.319C132.757 239.512 132.7 239.611 132.7 239.611C132.821 239.718 133.007 239.818 133.249 239.939C133.249 239.939 133.256 239.939 133.263 239.946H133.27C133.448 240.01 134.766 240.474 136.555 241.008C139.511 241.757 143.387 242.441 145.603 242.612C145.61 242.612 145.617 242.612 145.624 242.619Z" fill="#E527BB"/>
<path d="M157.813 239.298C157.692 239.405 157.343 239.383 156.93 239.312C156.075 239.162 154.949 238.792 154.949 238.792L154.529 238.977C155.27 240.124 155.198 241.165 155.077 241.714C155.049 241.857 154.863 241.871 154.792 241.742C154.749 241.657 154.707 241.579 154.664 241.5C154.657 241.493 154.657 241.493 154.657 241.486C154.529 241.265 154.4 241.101 154.4 241.101C154.407 241.115 154.407 241.115 154.407 241.129C154.407 241.137 154.407 241.137 154.407 241.137C154.479 241.543 154.393 242.049 154.308 242.42C154.272 242.562 154.087 242.591 154.009 242.469C153.93 242.334 153.823 242.206 153.745 242.099C153.745 242.092 153.745 242.092 153.738 242.092C153.638 241.971 153.567 241.892 153.567 241.892C153.574 241.921 153.581 241.949 153.588 241.971C153.588 241.978 153.588 241.978 153.588 241.978C153.645 242.177 153.674 242.355 153.681 242.512C153.695 242.783 153.353 242.904 153.196 242.683C152.356 241.536 151.551 241.493 151.109 241.586C150.916 241.628 150.753 241.742 150.631 241.899L148.394 244.857C148.195 245.128 147.903 245.313 147.575 245.385C146.77 245.556 145.979 245.691 145.195 245.791L145.623 242.612C146.107 242.648 146.506 242.655 146.805 242.641C147.098 242.626 147.354 242.469 147.518 242.227L150.004 238.628C150.225 238.307 150.603 238.122 150.995 238.143L152.733 238.243L154.179 237.765C154.657 237.608 155.184 237.665 155.612 237.936L157.813 239.298Z" fill="#FFBDA8"/>
<path d="M157.73 193.117C155.992 192.048 154.389 191.393 152.494 190.951C149.117 190.159 144.443 193.338 144.087 197.629C143.987 198.855 144.193 199.789 144.778 200.858C144.785 200.865 144.792 200.872 144.792 200.887C145.198 204.422 147.506 206.182 148.247 205.819C149.288 205.32 148.368 199.048 150.948 197.743C151.617 198.292 152.743 198.192 153.42 197.779C153.819 197.537 154.588 196.988 155.044 196.489C155.272 197.152 156.113 198.299 156.312 198.485C157.068 199.197 158.094 199.582 158.984 199.169C160.153 198.62 159.319 194.094 157.73 193.117Z" fill="#231F20"/>
<path d="M159.754 197.287C159.74 198.028 152.85 199.81 143.695 198.948C143.695 198.948 143.809 197.786 143.859 196.874C143.873 196.638 143.881 196.475 143.881 196.439C143.916 194.757 144.23 194.087 145.063 192.804V192.797C145.277 192.462 145.519 192.148 145.776 191.849C146.602 190.894 147.649 190.145 148.854 189.675C149.83 189.297 150.913 189.097 152.074 189.119C153.306 189.14 154.439 189.425 155.444 189.91C155.715 190.038 155.964 190.181 156.206 190.33C157.375 191.05 158.187 192.041 158.842 193.345C158.871 193.41 158.906 193.474 158.935 193.538C159.512 194.721 159.783 195.826 159.754 197.287Z" fill="#E527BB"/>
<path d="M143.695 198.948C143.695 198.948 147.129 201.735 158.743 199.618C159.989 199.39 160.445 198.349 159.754 197.28C157.61 199.026 150.449 198.378 143.695 198.948Z" fill="#C11AA1"/>
</g>
</g>
<defs>
<clipPath id="clip0_1224_4562">
<rect width="542.64" height="328.79" fill="white"/>
</clipPath>
<clipPath id="clip1_1224_4562">
<rect width="450" height="289" fill="white" transform="translate(46 40)"/>
</clipPath>
</defs>
</svg>
