<svg width="543" height="329" viewBox="0 0 543 329" fill="none" xmlns="http://www.w3.org/2000/svg">
<g clip-path="url(#clip0_410_479)">
<path opacity="0.2" d="M127.49 328.58L412.14 311.93C487.41 307.53 545.65 243.73 542.51 168.39C539.87 105.08 517.19 37.64 440.91 8.81999C387.26 -11.45 317.59 5.13999 273.4 38.85C262.78 46.95 253.02 56.24 241.61 63.17C215.02 79.32 191.67 68.17 163.97 63.88C105.41 54.79 46.9602 73.46 16.7002 127.43C-29.7598 210.35 25.0402 334.57 127.49 328.58Z" fill="#999999"/>
<path d="M518.04 269.91C518.02 269.89 518 269.87 517.98 269.85C517.9 269.79 517.8 269.76 517.71 269.72C517.55 269.64 517.44 269.51 517.33 269.39C516.26 268.33 514.35 268.3 512.85 268.31C511.93 268.32 510.94 268.44 510.13 268.85C509.98 268.93 509.9 269.08 509.94 269.23L510.09 269.85C510.16 270.15 509.79 270.38 509.49 270.23L508.86 269.9C508.73 269.83 508.56 269.83 508.43 269.91C506.93 270.83 505.86 272.26 505.06 273.71C501.64 279.89 502.97 286.22 503.2 286.38C503.41 286.52 511.65 279.95 513.35 279C513.47 278.93 513.53 278.8 513.49 278.68L513.19 277.68C513.12 277.44 513.41 277.24 513.66 277.35L514.78 277.86C514.91 277.92 515.07 277.89 515.17 277.8C517.25 275.81 519.37 272.84 518.16 270.09C518.12 270.03 518.09 269.96 518.04 269.91Z" fill="#6EE213"/>
<path d="M502.011 291.04C502.001 291.04 501.991 291.04 501.971 291.04C501.831 291.02 501.731 290.89 501.751 290.75C501.771 290.63 502.211 287.71 504.941 280.76C507.691 273.73 516.931 269.61 517.321 269.44C517.451 269.39 517.601 269.44 517.661 269.57C517.721 269.7 517.661 269.85 517.531 269.91C517.441 269.95 508.091 274.12 505.421 280.95C502.721 287.84 502.271 290.8 502.261 290.83C502.241 290.95 502.131 291.04 502.011 291.04Z" fill="#2B2B39"/>
<path d="M490.261 260.83C490.271 260.82 490.281 260.8 490.301 260.79C490.351 260.75 490.421 260.73 490.481 260.69C490.591 260.63 490.661 260.54 490.741 260.45C491.461 259.69 492.781 259.62 493.831 259.6C494.471 259.58 495.161 259.65 495.731 259.91C495.841 259.96 495.901 260.06 495.871 260.17L495.781 260.6C495.741 260.81 496.001 260.96 496.201 260.85L496.631 260.6C496.721 260.55 496.841 260.55 496.931 260.6C498.001 261.21 498.771 262.17 499.361 263.16C501.881 267.37 501.101 271.8 500.951 271.91C500.811 272.02 494.931 267.64 493.731 267.02C493.641 266.98 493.601 266.89 493.621 266.8L493.801 266.1C493.841 265.93 493.641 265.8 493.471 265.88L492.711 266.26C492.621 266.3 492.511 266.29 492.441 266.23C490.951 264.89 489.411 262.89 490.181 260.95C490.211 260.92 490.231 260.87 490.261 260.83Z" fill="#6EE213"/>
<path d="M502.051 275.45C501.931 275.45 501.831 275.37 501.801 275.25C501.791 275.23 501.241 272.94 499.211 268.22C497.211 263.57 490.651 260.91 490.591 260.88C490.461 260.83 490.401 260.68 490.451 260.55C490.501 260.42 490.651 260.35 490.781 260.41C491.061 260.52 497.601 263.18 499.681 268.02C501.731 272.79 502.281 275.04 502.301 275.13C502.331 275.27 502.251 275.4 502.111 275.44C502.091 275.45 502.071 275.45 502.051 275.45Z" fill="#2B2B39"/>
<path d="M490.141 279.81C490.151 279.8 490.161 279.78 490.181 279.77C490.231 279.73 490.301 279.71 490.361 279.67C490.471 279.61 490.541 279.52 490.621 279.43C491.341 278.67 492.661 278.6 493.711 278.58C494.351 278.56 495.041 278.63 495.611 278.89C495.721 278.94 495.781 279.04 495.751 279.15L495.661 279.58C495.621 279.79 495.881 279.94 496.081 279.83L496.511 279.58C496.601 279.53 496.721 279.53 496.811 279.58C497.881 280.19 498.651 281.15 499.241 282.14C501.761 286.35 500.981 290.78 500.831 290.89C500.691 291 494.811 286.62 493.611 286C493.521 285.96 493.481 285.87 493.501 285.78L493.681 285.08C493.721 284.91 493.521 284.78 493.351 284.86L492.591 285.24C492.501 285.28 492.391 285.27 492.321 285.21C490.831 283.87 489.291 281.87 490.061 279.93C490.081 279.9 490.101 279.85 490.141 279.81Z" fill="#6EE213"/>
<path d="M501.931 294.43C501.811 294.43 501.711 294.35 501.681 294.23C501.671 294.21 501.121 291.92 499.091 287.2C497.091 282.55 490.531 279.88 490.471 279.86C490.341 279.81 490.281 279.66 490.331 279.53C490.381 279.4 490.531 279.34 490.661 279.39C490.941 279.5 497.481 282.16 499.561 287C501.611 291.77 502.161 294.02 502.181 294.11C502.211 294.25 502.131 294.38 501.991 294.42C501.971 294.43 501.951 294.43 501.931 294.43Z" fill="#2B2B39"/>
<path d="M490.711 242.05C490.731 242.03 490.761 242.02 490.781 242C490.871 241.95 490.981 241.94 491.081 241.91C491.261 241.86 491.401 241.74 491.551 241.64C492.871 240.74 494.881 241.06 496.451 241.36C497.411 241.54 498.421 241.86 499.191 242.44C499.331 242.55 499.391 242.72 499.321 242.87L499.041 243.49C498.911 243.79 499.251 244.11 499.591 244L500.311 243.77C500.461 243.72 500.641 243.76 500.761 243.87C502.161 245.12 503.011 246.82 503.571 248.49C505.981 255.61 503.381 261.99 503.111 262.11C502.861 262.22 495.481 253.77 493.881 252.45C493.771 252.36 493.731 252.21 493.791 252.09L494.291 251.1C494.411 250.86 494.151 250.6 493.861 250.67L492.591 250.99C492.441 251.03 492.281 250.97 492.191 250.85C490.391 248.37 488.731 244.86 490.521 242.21C490.601 242.16 490.651 242.1 490.711 242.05Z" fill="#6EE213"/>
<path d="M503.711 267.64C503.571 267.64 503.461 267.53 503.451 267.39C503.451 267.35 503.361 263.74 501.841 256C500.341 248.34 491.341 242.19 491.251 242.13C491.131 242.05 491.101 241.89 491.181 241.78C491.261 241.66 491.421 241.63 491.531 241.71C491.621 241.77 500.791 248.04 502.341 255.91C503.871 263.7 503.951 267.35 503.961 267.39C503.971 267.52 503.851 267.63 503.711 267.64Z" fill="#2B2B39"/>
<path d="M502.011 294.68C501.871 294.68 501.751 294.57 501.751 294.42V280.85C501.751 271.66 503.981 262.49 508.191 254.32L511.381 248.13C511.441 248 511.601 247.96 511.721 248.02C511.851 248.08 511.891 248.24 511.831 248.36L508.641 254.55C504.471 262.65 502.261 271.74 502.261 280.85V294.42C502.261 294.56 502.151 294.68 502.011 294.68Z" fill="#2B2B39"/>
<path d="M519.411 246.44C519.401 246.42 519.381 246.41 519.371 246.39C519.311 246.34 519.241 246.31 519.171 246.27C519.051 246.2 518.971 246.09 518.891 245.99C518.111 245.08 516.601 244.93 515.411 244.85C514.681 244.8 513.891 244.83 513.221 245.1C513.091 245.15 513.021 245.27 513.041 245.39L513.121 245.89C513.161 246.13 512.851 246.29 512.621 246.15L512.141 245.85C512.041 245.79 511.911 245.78 511.801 245.83C510.551 246.46 509.611 247.53 508.881 248.62C505.771 253.29 506.431 258.4 506.601 258.54C506.761 258.67 513.711 253.99 515.111 253.34C515.211 253.29 515.261 253.2 515.241 253.1L515.071 252.29C515.031 252.1 515.271 251.95 515.461 252.06L516.311 252.54C516.411 252.6 516.541 252.59 516.621 252.52C518.401 251.07 520.271 248.86 519.481 246.6C519.471 246.54 519.441 246.48 519.411 246.44Z" fill="#6EE213"/>
<path d="M505.161 262.48C505.141 262.48 505.111 262.48 505.091 262.47C504.951 262.43 504.881 262.29 504.911 262.15C504.941 262.04 505.681 259.5 508.281 254.17C510.921 248.76 518.521 246.07 518.851 245.96C518.981 245.91 519.131 245.98 519.171 246.12C519.221 246.25 519.151 246.4 519.011 246.45C518.931 246.48 511.281 249.18 508.741 254.4C506.161 259.69 505.411 262.27 505.401 262.3C505.371 262.41 505.271 262.48 505.161 262.48Z" fill="#2B2B39"/>
<path d="M518.691 259.91C518.681 259.89 518.671 259.88 518.661 259.86C518.621 259.8 518.561 259.76 518.511 259.71C518.421 259.62 518.381 259.51 518.321 259.4C517.841 258.45 516.551 258 515.541 257.67C514.921 257.47 514.231 257.33 513.591 257.43C513.471 257.45 513.381 257.53 513.371 257.64L513.331 258.09C513.311 258.31 513.011 258.38 512.841 258.21L512.491 257.85C512.421 257.77 512.301 257.74 512.201 257.76C510.981 258.05 509.941 258.77 509.081 259.57C505.391 262.97 504.881 267.54 505.001 267.7C505.111 267.84 512.141 265.25 513.491 264.99C513.591 264.97 513.651 264.9 513.661 264.81L513.681 264.07C513.691 263.89 513.931 263.82 514.071 263.95L514.711 264.54C514.781 264.61 514.901 264.63 514.991 264.59C516.841 263.71 518.931 262.19 518.731 260.06C518.711 260.02 518.711 259.96 518.691 259.91Z" fill="#6EE213"/>
<path d="M502.971 270.86C502.931 270.86 502.881 270.85 502.841 270.83C502.721 270.76 502.671 270.6 502.741 270.48C502.791 270.39 503.971 268.34 507.361 264.26C510.801 260.11 517.991 259.39 518.291 259.36C518.431 259.35 518.551 259.45 518.571 259.59C518.581 259.73 518.481 259.85 518.341 259.87C518.271 259.88 511.061 260.6 507.761 264.58C504.401 268.62 503.201 270.71 503.191 270.73C503.151 270.81 503.061 270.86 502.971 270.86Z" fill="#2B2B39"/>
<path d="M510.62 321.03H493.48L489.91 294.6H513.17L510.62 321.03Z" fill="#D1203D"/>
<path d="M512.981 295.78H490.531C489.601 295.78 488.851 295.03 488.851 294.1V293.46C488.851 292.53 489.601 291.78 490.531 291.78H512.981C513.911 291.78 514.661 292.53 514.661 293.46V294.1C514.661 295.03 513.911 295.78 512.981 295.78Z" fill="#1A060A"/>
<path d="M494.66 328.79C493.99 328.79 493.44 328.23 493.44 327.53V320.56H497.54V325.81C497.53 327.46 496.25 328.79 494.66 328.79ZM493.95 321.07V327.53C493.95 327.94 494.27 328.28 494.66 328.28C495.96 328.28 497.02 327.18 497.02 325.82V321.08H493.95V321.07Z" fill="#2B2B39"/>
<path d="M509.391 328.79C507.811 328.79 506.521 327.46 506.521 325.82V320.57H510.621V327.54C510.611 328.22 510.061 328.79 509.391 328.79ZM507.031 321.07V325.81C507.031 327.17 508.091 328.27 509.391 328.27C509.781 328.27 510.101 327.93 510.101 327.52V321.06H507.031V321.07Z" fill="#2B2B39"/>
<path d="M72.2602 31.21L68.5902 32.76C67.9302 31.54 67.1702 30.4 66.3102 29.36L69.1402 26.56C69.9202 25.79 69.9202 24.54 69.1502 23.77C68.3802 23 67.1302 22.99 66.3602 23.76L63.5302 26.56C62.3502 25.58 61.0702 24.72 59.7202 24.02L61.2202 20.33C61.6302 19.32 61.1402 18.17 60.1302 17.76C59.1202 17.35 57.9702 17.84 57.5602 18.85L56.0702 22.54C54.7602 22.15 53.4202 21.88 52.0502 21.74L52.0702 17.77C52.0702 16.68 51.1902 15.79 50.1002 15.79C49.0102 15.79 48.1202 16.67 48.1202 17.76L48.1002 21.73C46.6002 21.86 45.0902 22.16 43.6102 22.63L42.0602 18.96C41.6402 17.96 40.4802 17.48 39.4702 17.91C38.4702 18.33 37.9902 19.49 38.4202 20.5L39.9702 24.17C38.7502 24.83 37.6102 25.59 36.5702 26.45L33.7702 23.62C33.0002 22.85 31.7502 22.84 30.9802 23.61C30.2002 24.38 30.2002 25.63 30.9702 26.4L33.7702 29.23C32.7902 30.41 31.9302 31.69 31.2302 33.04L27.5402 31.54C26.5302 31.13 25.3802 31.62 24.9702 32.63C24.5602 33.64 25.0402 34.79 26.0602 35.2L29.7402 36.7C29.3502 38 29.0802 39.35 28.9402 40.72L24.9702 40.7C23.8802 40.7 22.9902 41.58 22.9902 42.67C22.9902 43.76 23.8602 44.65 24.9602 44.65L28.9402 44.67C29.0702 46.17 29.3702 47.67 29.8402 49.16L26.1702 50.71C25.1702 51.13 24.6902 52.29 25.1202 53.3C25.5402 54.31 26.7002 54.78 27.7102 54.35L31.3802 52.8C32.0402 54.03 32.8002 55.16 33.6602 56.2L30.8402 59C30.0602 59.77 30.0602 61.02 30.8302 61.79C31.6002 62.56 32.8502 62.57 33.6202 61.8L36.4502 59C37.6302 59.99 38.9102 60.84 40.2602 61.54L38.7602 65.23C38.3502 66.24 38.8402 67.39 39.8502 67.8C40.8602 68.21 42.0102 67.72 42.4202 66.71L43.9202 63.02C45.2202 63.41 46.5702 63.68 47.9402 63.82L47.9202 67.79C47.9202 68.88 48.8002 69.77 49.8902 69.78C50.9802 69.78 51.8702 68.9 51.8702 67.81L51.8902 63.84C53.3902 63.71 54.9002 63.41 56.3802 62.94L57.9302 66.61C58.3502 67.62 59.5102 68.09 60.5202 67.66C61.5302 67.24 62.0002 66.08 61.5702 65.07L60.0202 61.4C61.2502 60.74 62.3802 59.98 63.4202 59.12L66.2202 61.95C66.9902 62.73 68.2402 62.73 69.0102 61.96C69.7902 61.19 69.7902 59.94 69.0202 59.17L66.2202 56.34C67.2002 55.16 68.0602 53.88 68.7602 52.53L72.4502 54.03C73.4602 54.44 74.6102 53.95 75.0202 52.94C75.4302 51.93 74.9402 50.78 73.9302 50.37L70.2402 48.87C70.6302 47.56 70.9002 46.22 71.0402 44.85L75.0102 44.87C76.1002 44.87 76.9902 43.99 76.9902 42.9C77.0002 41.81 76.1202 40.92 75.0202 40.92L71.0402 40.9C70.9102 39.4 70.6102 37.89 70.1302 36.41L73.8002 34.86C74.8102 34.43 75.2802 33.28 74.8502 32.27C74.4202 31.26 73.2602 30.78 72.2602 31.21ZM53.6902 51.56C48.8302 53.61 43.2302 51.34 41.1802 46.48C39.1302 41.62 41.4002 36.02 46.2602 33.97C51.1202 31.92 56.7202 34.19 58.7702 39.05C60.8202 43.91 58.5402 49.51 53.6902 51.56Z" fill="#E527BB"/>
<g opacity="0.35">
<path d="M126.94 58.6899L166.04 51.4799C177.59 48.0599 176.28 37.5999 174.75 26.5899C174.14 22.2199 172.36 18.0399 169.34 14.8299C165.93 11.2099 160.37 7.94994 151.81 9.38994L115.65 17.7599C108.01 19.2499 102.62 28.2399 104.08 37.8699C107.17 51.4899 113.52 60.4399 126.94 58.6899Z" fill="#0A0A0A"/>
<path d="M169.22 49.5798L170.59 60.6598L155.87 52.3898L169.22 49.5798Z" fill="#0A0A0A"/>
</g>
<path d="M129.95 52.01L169.07 44.93C180.63 41.55 179.36 31.08 177.86 20.07C177.26 15.7 175.5 11.52 172.48 8.29003C169.08 4.66003 163.53 1.38003 154.97 2.79003L118.78 11.04C111.13 12.5 105.71 21.47 107.14 31.12C110.21 44.74 116.52 53.71 129.95 52.01Z" fill="#A78BEF"/>
<path d="M172.259 43.04L173.589 54.12L158.899 45.81L172.259 43.04Z" fill="#A78BEF"/>
<path d="M168.37 36.5701L161.43 8.90015L120.42 19.2001L127.37 46.8701L168.37 36.5701ZM128.19 44.0401L122.38 20.9101L138.6 26.6301L128.19 44.0401ZM123.9 19.8601L158.66 11.1301L144.17 27.0101L123.9 19.8601ZM160.5 11.3401L166.34 34.5801L148.85 24.1101L160.5 11.3401ZM165.42 35.7701L129.47 44.8001L140.04 27.1401L144.61 28.7501L147.82 25.2301L165.42 35.7701Z" fill="white"/>
<path d="M171.19 321.86L182.37 172.03" stroke="black" stroke-width="5.1095" stroke-miterlimit="10"/>
<path d="M136.436 291.772L127.884 287.258L120.84 300.604L129.392 305.118L136.436 291.772Z" fill="#1B1B1B"/>
<path fill-rule="evenodd" clip-rule="evenodd" d="M120.31 300.17L138.96 310.01C143.29 312.3 144.95 317.66 142.66 321.99L116.17 308.01L120.31 300.17Z" fill="#A78BEF"/>
<path d="M151.71 224.61L121.79 290.18L139.51 295.88L169.71 249.24L151.71 224.61Z" fill="#2C2C38"/>
<path d="M83.6302 232.97C83.1702 232.76 72.4102 227.71 73.3902 210.08C74.1402 196.6 80.1302 174.04 80.3802 173.09L83.6202 173.95C83.5602 174.18 77.4702 197.12 76.7402 210.26C75.8902 225.48 84.6502 229.74 85.0202 229.92L83.6302 232.97Z" fill="black"/>
<path fill-rule="evenodd" clip-rule="evenodd" d="M107.221 307.63H111.671C112.291 307.63 112.791 308.13 112.791 308.75V310.78L135.471 312.1C137.121 312.2 138.411 313.56 138.411 315.21H112.791H110.801H108.091H80.4707C80.4707 313.56 81.7607 312.19 83.4107 312.1L106.091 310.78V308.75C106.101 308.13 106.601 307.63 107.221 307.63Z" fill="black"/>
<path d="M77.9404 314.99C77.9404 317.31 79.8404 319.21 82.1604 319.21C84.4804 319.21 86.3804 317.31 86.3804 314.99H77.9404Z" fill="#0F0723"/>
<path d="M82.1604 310.77C79.8404 310.77 77.9404 312.67 77.9404 314.99H86.3804C86.3804 312.67 84.4804 310.77 82.1604 310.77Z" fill="#3F2E59"/>
<path d="M105.471 316.76C105.471 319.08 107.371 320.98 109.691 320.98C112.011 320.98 113.911 319.08 113.911 316.76H105.471Z" fill="#0F0723"/>
<path d="M109.691 312.54C107.371 312.54 105.471 314.44 105.471 316.76H113.911C113.911 314.44 112.011 312.54 109.691 312.54Z" fill="#3F2E59"/>
<path d="M128.551 315.2C128.551 317.52 130.451 319.42 132.771 319.42C135.091 319.42 136.991 317.52 136.991 315.2H128.551Z" fill="#0F0723"/>
<path d="M132.771 310.98C130.451 310.98 128.551 312.88 128.551 315.2H136.991C136.981 312.87 135.091 310.98 132.771 310.98Z" fill="#3F2E59"/>
<path d="M111.921 250.72H106.961V310.81H111.921V250.72Z" fill="black"/>
<path fill-rule="evenodd" clip-rule="evenodd" d="M125.551 235.86C125.551 238.85 123.121 241.28 120.131 241.28H115.441V250.44C115.441 251.14 114.871 251.71 114.171 251.71H113.461V256.72C113.461 257.33 112.961 257.83 112.351 257.83H106.551C105.941 257.83 105.441 257.33 105.441 256.72V251.71H104.731C104.031 251.71 103.461 251.14 103.461 250.44V241.28H98.8009C95.8109 241.28 93.3809 238.85 93.3809 235.86H125.551Z" fill="black"/>
<path opacity="0.53" d="M105.451 251.7H104.531C103.941 251.7 103.471 251.23 103.471 250.64V241.27H105.451V251.7Z" fill="#CACACA"/>
<path opacity="0.53" d="M107.441 257.82H106.521C105.931 257.82 105.461 257.35 105.461 256.76V251.7H107.441V257.82Z" fill="#CACACA"/>
<path d="M81.1602 232.23V224.88C81.1602 222.04 83.3502 219.7 86.1802 219.5C95.7402 218.84 117.14 218.25 134.34 224.29C136.93 225.2 138.82 227.45 139.18 230.18L139.55 232.93L81.1602 232.23Z" fill="#E527BB"/>
<path d="M136.521 236.26H84.0209C82.4509 236.26 81.1709 234.98 81.1709 233.41V232.23H139.381V233.41C139.371 234.98 138.101 236.26 136.521 236.26Z" fill="black"/>
<path d="M192.378 297.75L182.906 299.698L185.945 314.478L195.417 312.531L192.378 297.75Z" fill="#1B1B1B"/>
<path fill-rule="evenodd" clip-rule="evenodd" d="M185.291 314.47L204.931 310.43C209.731 309.44 214.411 312.53 215.401 317.33L187.071 323.16L185.291 314.47Z" fill="#A78BEF"/>
<path d="M83.0704 196.81C83.0704 196.81 77.3904 221.52 113.86 224.78C150.33 228.04 179.42 303.3 179.42 303.3L198.4 299.97C198.4 299.97 189.17 245.76 175.91 228.98C162.65 212.2 137.54 196.34 137.54 196.34L83.0704 196.81Z" fill="#1A1A22"/>
<path d="M412.79 256.08C412.79 256.08 421.92 269.34 428.87 296.78L419.29 300.61L400.86 261.26L412.79 256.08Z" fill="#001338"/>
<path d="M429.081 295.22L424.421 296.83C416.611 299.73 413.181 300.07 406.381 308C404.891 309.74 404.231 312.05 404.541 314.32L432.661 303.35L429.081 295.22Z" fill="#A78BEF"/>
<path d="M432.341 195.96C432.341 195.96 408.891 196.66 395.301 196.66C394.881 196.66 394.461 196.67 394.051 196.7C382.191 197.37 374.791 209.96 379.391 220.92L406.831 286.27L429.191 282.52C429.191 282.52 425.531 245.89 411.951 223.51L432.341 195.96Z" fill="#1A1A22"/>
<path d="M360.216 312.759L369.688 314.707L372.727 299.926L363.255 297.979L360.216 312.759Z" fill="#1B1B1B"/>
<path fill-rule="evenodd" clip-rule="evenodd" d="M370.361 314.69L358.141 312.32C352.361 311.13 340.081 312.52 339.091 317.31L368.581 323.37L370.361 314.69Z" fill="#A78BEF"/>
<path d="M472.841 196.81C472.841 196.81 478.521 221.52 442.051 224.78C405.581 228.04 376.491 303.3 376.491 303.3L357.511 301.09C357.511 301.09 366.741 245.77 380.001 228.98C386.221 221.11 394.421 213.28 401.371 207.19C409.921 199.7 420.981 195.72 432.341 195.96L472.841 196.81Z" fill="#2C2C38"/>
<path fill-rule="evenodd" clip-rule="evenodd" d="M339.09 317.31L338.36 319.96L367.96 326.33L368.58 323.37L339.09 317.31Z" fill="#1B1B1B"/>
<path fill-rule="evenodd" clip-rule="evenodd" d="M432.92 302.95L433.95 305.28L405.34 316.34L404.45 314.06L432.92 302.95Z" fill="#1B1B1B"/>
<path d="M409.62 176.7H168.51C168.51 172.7 171.75 169.45 175.76 169.45H402.38C406.38 169.46 409.62 172.7 409.62 176.7Z" fill="#0B0202"/>
<path d="M406.43 322.12L395.25 172.3" stroke="black" stroke-width="5.1095" stroke-miterlimit="10"/>
<path d="M110.04 94.8099C111.873 94.8099 113.36 93.3235 113.36 91.4899C113.36 89.6563 111.873 88.1699 110.04 88.1699C108.206 88.1699 106.72 89.6563 106.72 91.4899C106.72 93.3235 108.206 94.8099 110.04 94.8099Z" fill="#FBB99D"/>
<path opacity="0.65" d="M111.509 92.73C111.509 92.73 111.759 89.73 109.409 90.23C107.059 90.73 108.359 92.23 109.509 92.23C110.659 92.24 110.559 90.54 111.509 92.73Z" fill="#E69A82"/>
<path d="M206.7 169.16H183.14C183.14 167.01 184.88 165.27 187.03 165.27H202.82C204.95 165.28 206.7 167.02 206.7 169.16Z" fill="#A78BEF"/>
<path d="M244.899 169.39H216.529C216.529 167.12 218.369 165.27 220.649 165.27H244.899V169.39Z" fill="#A78BEF"/>
<path d="M247.05 152.68L242.5 152.11L251.42 80.52C251.73 78.01 254.03 76.22 256.54 76.53L247.05 152.68Z" fill="#A78BEF"/>
<path d="M245.179 148.83C245.179 148.83 245.409 165.76 235.569 166.67" stroke="black" stroke-width="1.6054" stroke-miterlimit="10"/>
<path opacity="0.23" d="M253.22 77.18L127.99 66.2L166.98 94.65L125.04 167.75L244.68 148.37L253.22 77.18Z" fill="url(#paint0_linear_410_479)"/>
<path d="M448.17 89.41L444.49 89.17C443.49 89.11 442.83 87.92 443.11 86.7C443.86 83.41 444.04 77.42 442.57 76.27C438.32 72.94 425.94 79.55 421.81 74.94C416 68.44 431.13 63.36 441.89 66.67C447.94 68.53 454.37 73.83 451.04 83.46C450.31 85.56 449.53 87.65 448.17 89.41Z" fill="black"/>
<path d="M200.671 157.67C201.021 156.61 185.851 159.87 185.851 159.87C185.851 159.87 143.031 164.4 141.951 162.27L133.261 142.85L123.841 155.92L130.871 169.03C133.381 173.72 138.631 176.26 143.861 175.32L184.331 168.08C184.331 168.08 196.531 168.23 199.531 165.24C202.521 162.25 195.741 159.87 195.741 159.87C195.741 159.87 200.311 158.73 200.671 157.67Z" fill="#EAAD96"/>
<path d="M83.0705 196.82L137.54 196.35C137.54 196.35 136.591 124.82 127.121 115.82C117.651 106.82 107.7 114.87 107.7 114.87C107.7 114.87 76.4405 141.4 83.0705 196.82Z" fill="#A78BEF"/>
<path d="M103.56 148.09L105.23 152.27C105.23 152.27 124.76 183.85 131.37 181.68L181.59 166.57L180.07 158.06C180.07 158.06 147.57 164.96 135.25 167.93L122.42 144.63L120.9 141.02C119 136.51 113.95 134 109.33 135.58C108.57 135.84 107.85 136.18 107.17 136.6C103.3 138.95 101.89 143.88 103.56 148.09Z" fill="#FBB99D"/>
<path d="M106.54 162.8L129.22 153.5C129.22 153.5 118.37 114.89 108.94 120.97C92.2902 131.7 106.54 162.8 106.54 162.8Z" fill="#897FD3"/>
<path d="M120.011 102.87C128.223 102.87 134.881 94.9814 134.881 85.2501C134.881 75.5189 128.223 67.6301 120.011 67.6301C111.798 67.6301 105.141 75.5189 105.141 85.2501C105.141 94.9814 111.798 102.87 120.011 102.87Z" fill="black"/>
<path d="M118.48 118.54C115.09 118.54 112.32 115.77 112.32 112.38V103.33C112.32 99.9402 115.09 97.1702 118.48 97.1702C121.87 97.1702 124.64 99.9402 124.64 103.33V112.38C124.64 115.77 121.86 118.54 118.48 118.54Z" fill="#F0AE97"/>
<path d="M138.881 87.9801C139.291 94.5401 135.331 112.18 124.141 112.04C121.811 112.01 110.581 106.2 108.671 93.9301C107.091 83.8301 111.381 74.6801 122.161 74.1101C132.941 73.5301 138.241 77.7801 138.881 87.9801Z" fill="#F9B79B"/>
<path d="M108.61 93.9301C110.11 93.6101 111.2 92.4601 111.32 91.0901C111.94 83.5101 112.38 82.5301 115.33 81.0901C119.29 79.1601 119.7 77.0801 119.99 76.7001C129.69 82.0601 139.61 78.8801 141.75 77.1401C147.15 72.7401 142.93 71.4601 139.19 71.4401C139.19 71.4401 140.71 68.9801 139.22 67.0701C139.22 67.0701 139.19 67.0901 139.12 67.1301C137.51 68.1801 135.4 68.4701 133.53 67.8601C130.87 66.9801 127.56 66.8401 123.66 68.0101C116.25 70.2401 114.2 73.8901 111.98 76.9001C107.48 83.0201 108.07 87.9601 108.07 87.9601L108.52 93.9401L108.61 93.9301Z" fill="black"/>
<path d="M133.031 155.97L141.101 151.71C141.101 151.71 132.811 120.1 127.121 115.81C123.201 112.86 133.031 155.97 133.031 155.97Z" fill="#897FD3"/>
<path d="M180.07 158.05C180.07 158.05 190.64 149.07 191.01 151.22C191.38 153.38 187.54 156 187.54 156C191.73 156.44 195.96 156.21 200.07 155.3C201.95 154.88 203.61 154.68 203.56 155.25C203.47 156.56 195.13 158.53 195.13 158.53C195.13 158.53 205.91 156.94 205.06 158.06C204.22 159.18 194.94 161.06 194.94 161.06C194.94 161.06 205.72 160.93 204.12 162.05C202.53 163.17 193.21 163.95 193.21 163.95C193.21 163.95 201.28 164.31 200.21 165.61C198.88 167.23 181.58 166.55 181.58 166.55L173.57 163.3L180.07 158.05Z" fill="#FBB99D"/>
<g opacity="0.35">
<path d="M414.031 55.6901L306.941 56.2301C303.341 56.2501 300.391 53.3801 300.311 49.7701L300.061 38.6801C299.961 34.2001 303.561 30.5101 308.051 30.5001L414.411 30.3301C417.331 30.3301 419.681 32.7101 419.641 35.6301L419.431 50.3301C419.401 53.2901 417.001 55.6801 414.031 55.6901Z" fill="#0A0A0A"/>
<path d="M403.761 54.71C403.761 54.71 412.661 65.42 412.691 65.29C412.721 65.17 413.361 54.84 413.361 54.84L403.761 54.71Z" fill="#0A0A0A"/>
</g>
<path d="M410.09 51.7301L303 52.2701C299.4 52.2901 296.45 49.4201 296.37 45.8101L296.12 34.7201C296.02 30.2401 299.62 26.5501 304.11 26.5401L410.47 26.3701C413.39 26.3701 415.74 28.7501 415.7 31.6701L415.49 46.3701C415.46 49.3301 413.05 51.7101 410.09 51.7301Z" fill="#E527BB"/>
<path d="M399.05 50.8601C399.05 50.8601 407.95 61.5701 407.98 61.4401C408.01 61.3201 408.65 50.9901 408.65 50.9901L399.05 50.8601Z" fill="#E527BB"/>
<path d="M405.12 35.6602C405.51 36.7602 404.56 37.9002 403.39 37.9102L402.11 37.9202L305 38.2302C304.2 38.2302 303.53 37.6102 303.47 36.8102C303.41 35.9302 304.1 35.1802 304.98 35.1802L401.75 34.3502C404 34.3302 404.83 34.8302 405.12 35.6602Z" fill="#EFEFF1"/>
<path d="M303.551 43.5102C303.541 44.3302 304.191 45.0002 304.991 44.9902L345.231 44.4302C345.971 44.4202 346.581 43.8002 346.581 43.0302C346.591 42.2402 345.961 41.6002 345.201 41.6102L304.961 42.0702C304.181 42.0702 303.551 42.7102 303.551 43.5102Z" fill="#EFEFF1"/>
<path opacity="0.35" d="M256.86 42.4501C264.697 42.4501 271.05 36.097 271.05 28.2601C271.05 20.4231 264.697 14.0701 256.86 14.0701C249.023 14.0701 242.67 20.4231 242.67 28.2601C242.67 36.097 249.023 42.4501 256.86 42.4501Z" fill="#0A0A0A"/>
<path d="M252.43 38.67C260.267 38.67 266.62 32.317 266.62 24.48C266.62 16.6431 260.267 10.29 252.43 10.29C244.593 10.29 238.24 16.6431 238.24 24.48C238.24 32.317 244.593 38.67 252.43 38.67Z" fill="#3F65ED"/>
<path d="M260.29 23.08C260.35 24.06 260.25 24.96 259.99 25.79C259.73 26.62 259.33 27.28 258.79 27.78C258.25 28.28 257.6 28.55 256.85 28.6C256.35 28.63 255.9 28.54 255.49 28.32C255.08 28.1 254.79 27.8 254.6 27.42L254.44 27.43C253.76 28.35 252.86 28.85 251.73 28.92C250.53 29 249.56 28.69 248.82 28.02C248.08 27.34 247.67 26.38 247.6 25.12C247.51 23.69 247.89 22.51 248.74 21.58C249.59 20.65 250.75 20.14 252.22 20.04C252.8 20 253.45 20.02 254.16 20.09C254.87 20.16 255.45 20.25 255.92 20.38L256 25.37C256.06 26.31 256.35 26.77 256.86 26.73C257.29 26.7 257.62 26.36 257.84 25.71C258.06 25.06 258.13 24.22 258.07 23.2C258 22.11 257.71 21.16 257.21 20.35C256.7 19.54 256.02 18.94 255.17 18.55C254.32 18.16 253.36 18 252.31 18.07C250.94 18.16 249.77 18.51 248.79 19.14C247.82 19.77 247.09 20.63 246.62 21.72C246.15 22.82 245.96 24.06 246.04 25.45C246.16 27.32 246.75 28.73 247.81 29.66C248.87 30.6 250.35 31.01 252.25 30.89C252.97 30.84 253.75 30.72 254.6 30.5C255.45 30.29 256.28 30 257.1 29.64L257.22 31.59C255.81 32.3 254.22 32.71 252.45 32.82C249.87 32.98 247.82 32.43 246.3 31.17C244.77 29.91 243.93 28.07 243.78 25.65C243.67 23.98 243.95 22.43 244.6 21.02C245.25 19.61 246.23 18.47 247.54 17.61C248.85 16.75 250.39 16.26 252.16 16.15C253.65 16.06 255 16.28 256.21 16.81C257.42 17.35 258.38 18.16 259.09 19.24C259.8 20.33 260.2 21.61 260.29 23.08ZM249.96 25.01C250.05 26.44 250.68 27.12 251.84 27.05C252.45 27.01 252.9 26.77 253.19 26.32C253.48 25.87 253.63 25.16 253.64 24.18L253.63 21.92C253.28 21.87 252.89 21.85 252.45 21.88C251.6 21.93 250.96 22.24 250.52 22.8C250.09 23.35 249.9 24.09 249.96 25.01Z" fill="white"/>
<path d="M421.821 141.53C421.821 141.53 416.391 160.54 414.011 160.64L371.351 161.03C370.481 161.04 369.621 161.17 368.791 161.42C365.801 162.34 358.681 164.87 357.601 168.55L371.931 168.79L372.021 169.17L414.681 170.5C419.951 171.19 426.101 167.95 428.391 163.15L431.871 154.14L421.821 141.53Z" fill="#E7AA92"/>
<path d="M472.721 196.82L423.831 196.35C423.831 196.35 419.191 124.82 428.671 115.82C438.141 106.82 448.091 114.87 448.091 114.87C448.091 114.87 479.361 141.4 472.721 196.82Z" fill="#A78BEF"/>
<path d="M424.971 157.54L416.101 152.5C416.101 152.5 421.581 139.41 426.671 119.1C426.661 119.1 432.831 148.07 424.971 157.54Z" fill="#897FD3"/>
<path d="M440.101 134.07C431.911 133.69 426.711 158.96 424.051 165.45C424.051 165.45 401.611 165.44 391.541 163.86L389.851 170.12C389.851 170.12 420.581 176.87 426.791 173.66C443.561 165.01 458.641 134.92 440.101 134.07Z" fill="#FBB99D"/>
<path d="M395.58 165.34C395.58 165.34 391.54 165.14 387.74 160.18C387.14 159.4 386.31 158.81 385.38 158.49L371.49 153.78C370.83 153.56 370.29 154.33 370.72 154.87C371.57 155.94 373.57 157.46 378.28 159.08C378.28 159.08 378.67 165.72 381.7 167.42C384.73 169.12 389.87 170.12 389.87 170.12L395.58 165.34Z" fill="#FBB99D"/>
<path d="M424.771 153.55L446.861 165.1C446.861 165.1 460.421 135.98 450.881 131.96C441.341 127.94 432.801 129.95 424.771 153.55Z" fill="#897FD3"/>
<path d="M434.801 100.93C443.61 100.93 450.751 93.0412 450.751 83.3099C450.751 73.5787 443.61 65.6899 434.801 65.6899C425.992 65.6899 418.851 73.5787 418.851 83.3099C418.851 93.0412 425.992 100.93 434.801 100.93Z" fill="black"/>
<path d="M437.41 119.96C440.8 119.96 443.57 117.19 443.57 113.8V104.75C443.57 101.36 440.8 98.5898 437.41 98.5898C434.02 98.5898 431.25 101.36 431.25 104.75V113.8C431.25 117.19 434.02 119.96 437.41 119.96Z" fill="#F0AE97"/>
<path d="M416.64 89.24C416.21 96.18 422.37 111.07 430.94 111.91C436.87 112.49 446.48 105.9 447.16 93.08C447.73 82.3 444.51 72.75 433.73 72.17C422.95 71.6 417.31 78.46 416.64 89.24Z" fill="#F9B79B"/>
<path d="M445.8 95.65C447.63 95.65 449.12 94.16 449.12 92.33C449.12 90.5 447.63 89.01 445.8 89.01C443.97 89.01 442.48 90.5 442.48 92.33C442.48 94.16 443.97 95.65 445.8 95.65Z" fill="#FBB99D"/>
<path opacity="0.65" d="M444.33 93.5699C444.33 93.5699 444.08 90.5699 446.43 91.0699C448.78 91.5699 447.48 93.0699 446.33 93.0699C445.18 93.0699 445.28 91.3799 444.33 93.5699Z" fill="#E69A82"/>
<path d="M445.05 77.18C445.05 77.18 429.83 82.87 422.03 79.04C414.23 75.2 414.48 72.11 414.48 72.11L418.19 72.98L416.09 68.77C420.12 71.2 432.01 65.23 435.23 65.52C446.66 66.55 445.05 77.18 445.05 77.18Z" fill="black"/>
<path d="M472.16 232.97C472.62 232.76 483.38 227.71 482.4 210.08C481.65 196.6 475.66 174.04 475.41 173.09L472.17 173.95C472.23 174.18 478.32 197.12 479.05 210.26C479.9 225.48 471.14 229.74 470.77 229.92L472.16 232.97Z" fill="black"/>
<path fill-rule="evenodd" clip-rule="evenodd" d="M443.63 307.63H448.08C448.7 307.63 449.2 308.13 449.2 308.75V310.78L471.89 312.1C473.54 312.2 474.83 313.56 474.83 315.21H449.2H447.21H444.5H416.88C416.88 313.56 418.17 312.19 419.82 312.1L442.5 310.78V308.75C442.5 308.13 443.01 307.63 443.63 307.63Z" fill="black"/>
<path d="M414.34 314.99C414.34 317.31 416.24 319.21 418.56 319.21C420.88 319.21 422.78 317.31 422.78 314.99H414.34Z" fill="#0F0723"/>
<path d="M418.56 310.77C416.24 310.77 414.34 312.67 414.34 314.99H422.78C422.78 312.67 420.89 310.77 418.56 310.77Z" fill="#3F2E59"/>
<path d="M441.87 316.76C441.87 319.08 443.77 320.98 446.09 320.98C448.41 320.98 450.31 319.08 450.31 316.76H441.87Z" fill="#0F0723"/>
<path d="M446.09 312.54C443.77 312.54 441.87 314.44 441.87 316.76H450.31C450.31 314.44 448.42 312.54 446.09 312.54Z" fill="#3F2E59"/>
<path d="M464.95 315.2C464.95 317.52 466.85 319.42 469.17 319.42C471.49 319.42 473.39 317.52 473.39 315.2H464.95Z" fill="#0F0723"/>
<path d="M469.17 310.98C466.85 310.98 464.95 312.88 464.95 315.2H473.39C473.39 312.87 471.5 310.98 469.17 310.98Z" fill="#3F2E59"/>
<path d="M448.33 250.72H443.37V310.81H448.33V250.72Z" fill="black"/>
<path fill-rule="evenodd" clip-rule="evenodd" d="M461.95 235.86C461.95 238.85 459.52 241.28 456.53 241.28H451.84V250.44C451.84 251.14 451.27 251.71 450.57 251.71H449.86V256.72C449.86 257.33 449.36 257.83 448.75 257.83H442.95C442.34 257.83 441.84 257.33 441.84 256.72V251.71H441.13C440.43 251.71 439.86 251.14 439.86 250.44V241.28H435.2C432.21 241.28 429.78 238.85 429.78 235.86H461.95Z" fill="black"/>
<path opacity="0.53" d="M441.86 251.7H440.94C440.35 251.7 439.88 251.23 439.88 250.64V241.27H441.86V251.7Z" fill="#CACACA"/>
<path opacity="0.53" d="M443.84 257.82H442.92C442.33 257.82 441.86 257.35 441.86 256.76V251.7H443.84V257.82Z" fill="#CACACA"/>
<path d="M474.63 231.78V224.43C474.63 221.59 472.44 219.25 469.61 219.05C460.05 218.39 438.65 217.8 421.45 223.84C418.86 224.75 416.98 227 416.61 229.73L416.24 232.48L474.63 231.78Z" fill="#E527BB"/>
<path d="M419.27 236.26H471.78C473.35 236.26 474.63 234.98 474.63 233.41V232.23H416.42V233.41C416.42 234.98 417.69 236.26 419.27 236.26Z" fill="black"/>
<path d="M472.77 154.23L478.12 181.48L462.86 182.13C460.52 182.16 458.51 180.49 458.11 178.18C456.93 171.29 455.16 157.5 459.11 153.22C464.43 147.43 472.77 154.23 472.77 154.23Z" fill="#E527BB"/>
<path d="M83.0307 154.23L77.6807 181.48L92.9407 182.13C95.2807 182.16 97.2907 180.49 97.6907 178.18C98.8707 171.29 100.641 157.5 96.6907 153.22C91.3607 147.43 83.0307 154.23 83.0307 154.23Z" fill="#E527BB"/>
<path opacity="0.23" d="M320.71 76.1699L445.94 65.1899L466.05 93.8099L449.39 168.76L329.25 147.36L320.71 76.1699Z" fill="url(#paint1_linear_410_479)"/>
<path d="M370.5 169.16H394.06C394.06 167.01 392.32 165.27 390.17 165.27H374.38C372.24 165.28 370.5 167.02 370.5 169.16Z" fill="#E527BB"/>
<path d="M332.29 169.39H360.66C360.66 167.12 358.82 165.27 356.54 165.27H332.29V169.39Z" fill="#E527BB"/>
<path d="M330.15 152.68L334.7 152.11L325.78 80.52C325.47 78.01 323.17 76.22 320.66 76.53L330.15 152.68Z" fill="#E527BB"/>
<path d="M332.01 148.83C332.01 148.83 331.78 165.76 341.62 166.67" stroke="black" stroke-width="1.6054" stroke-miterlimit="10"/>
</g>
<defs>
<linearGradient id="paint0_linear_410_479" x1="300.437" y1="93.1486" x2="150.518" y2="113.684" gradientUnits="userSpaceOnUse">
<stop stop-color="white"/>
<stop offset="1" stop-color="white" stop-opacity="0"/>
</linearGradient>
<linearGradient id="paint1_linear_410_479" x1="271.101" y1="92.7869" x2="428.675" y2="114.371" gradientUnits="userSpaceOnUse">
<stop stop-color="white"/>
<stop offset="1" stop-color="white" stop-opacity="0"/>
</linearGradient>
<clipPath id="clip0_410_479">
<rect width="542.64" height="328.79" fill="white"/>
</clipPath>
</defs>
</svg>
