<svg width="543" height="329" viewBox="0 0 543 329" fill="none" xmlns="http://www.w3.org/2000/svg">
<g clip-path="url(#clip0_1632_4464)">
<path opacity="0.2" d="M78.788 349.839C41.4882 312.535 -9.49424 274.012 10.4949 215.818C23.6478 177.541 55.8804 166.88 82.6859 143.276C95.9087 131.631 87.5932 114.676 87.3433 97.8481C86.7836 54.7513 139.135 21.3125 187.269 22.0107C239.401 22.768 261.969 70.9102 305.705 73.4968C322.876 73.7426 338.257 64.4781 353.449 57.1314C398.465 35.3371 469.906 49.2339 473.514 101.93C474.444 130.392 439.183 176.174 474.514 191.143C502.668 203.072 531.113 207.469 536.19 250.133C542.837 305.976 507.716 336.621 461.971 351L78.788 349.839Z" fill="#999999"/>
<g clip-path="url(#clip1_1632_4464)">
<path d="M425.426 193.858C424.004 194.721 422.431 195.371 420.724 195.763C416.308 196.789 411.903 195.909 408.366 193.651C404.901 191.449 402.259 187.931 401.258 183.611C399.237 174.865 404.672 166.142 413.403 164.119C422.129 162.091 430.849 167.537 432.875 176.277C434.498 183.314 431.286 190.334 425.426 193.858Z" fill="#A78BEF"/>
<path d="M422.02 178.143C421.986 180.871 419.753 183.056 417.022 183.028C414.296 182.995 412.113 180.759 412.141 178.025C412.174 175.297 414.408 173.112 417.139 173.14C419.87 173.173 422.053 175.414 422.02 178.143Z" fill="white"/>
<path d="M425.447 191.819L425.425 193.858C424.003 194.721 422.43 195.371 420.723 195.763C416.307 196.788 411.902 195.909 408.359 193.651L408.382 191.617C408.438 186.911 412.3 183.124 417.012 183.18C421.736 183.23 425.509 187.113 425.447 191.819Z" fill="white"/>
<path d="M125.82 147.967C124.891 148.533 123.861 148.959 122.742 149.216C119.848 149.889 116.966 149.312 114.643 147.833C112.376 146.393 110.641 144.084 109.986 141.255C108.666 135.529 112.22 129.809 117.945 128.487C123.66 127.159 129.375 130.722 130.701 136.454C131.759 141.065 129.66 145.659 125.82 147.967Z" fill="#A78BEF"/>
<path d="M123.588 137.675C123.565 139.462 122.104 140.897 120.313 140.874C118.528 140.852 117.095 139.384 117.117 137.597C117.14 135.809 118.601 134.375 120.392 134.397C122.177 134.42 123.604 135.888 123.588 137.675Z" fill="white"/>
<path d="M125.835 146.634L125.818 147.967C124.889 148.533 123.859 148.959 122.74 149.216C119.846 149.889 116.963 149.312 114.641 147.833L114.657 146.499C114.697 143.418 117.226 140.936 120.31 140.969C123.4 141.009 125.868 143.552 125.835 146.634Z" fill="white"/>
<path d="M144.998 171.438L108.07 176.478L111.264 199.92L148.191 194.88L144.998 171.438Z" fill="#E527BB"/>
<path d="M145.002 171.442C143.703 173.073 142.371 174.647 141.061 176.26C139.735 177.84 138.403 179.426 137.059 180.995C135.66 182.631 134.255 184.255 132.851 185.869C132.806 185.919 132.767 185.97 132.727 186.026C131.479 187.449 130.231 188.878 128.977 190.301L128.793 190.502L128.563 190.357C126.974 189.32 125.395 188.278 123.811 187.236C123.755 187.208 123.699 187.169 123.643 187.13C121.852 185.953 120.061 184.765 118.276 183.555C116.574 182.412 114.867 181.241 113.166 180.076C111.47 178.877 109.768 177.717 108.078 176.49C109.83 177.499 111.565 178.569 113.306 179.611C115.046 180.675 116.781 181.74 118.511 182.827C120.436 184.026 122.367 185.247 124.293 186.485C124.298 186.485 124.298 186.485 124.304 186.491C125.742 187.41 127.186 188.334 128.63 189.264C129.767 187.987 130.908 186.698 132.05 185.432C132.056 185.415 132.056 185.415 132.061 185.415C133.584 183.712 135.112 182.02 136.651 180.339C138.028 178.838 139.41 177.336 140.804 175.857C142.198 174.378 143.586 172.882 145.002 171.442Z" fill="white"/>
<path d="M124.416 187.001C124.4 187.012 124.394 187.034 124.377 187.046C124.204 187.242 124.036 187.432 123.862 187.617C123.045 188.525 122.194 189.404 121.332 190.267C120.28 191.326 119.194 192.351 118.103 193.371C117 194.374 115.898 195.377 114.756 196.346C113.614 197.315 112.467 198.268 111.258 199.164C112.243 198.027 113.284 196.951 114.336 195.898C115.394 194.839 116.48 193.814 117.571 192.794C118.674 191.785 119.782 190.783 120.924 189.813C121.831 189.04 122.754 188.273 123.706 187.544C123.924 187.371 124.148 187.208 124.372 187.04C124.377 187.029 124.4 187.018 124.416 187.001Z" fill="white"/>
<path d="M148.005 194.144C146.606 193.606 145.234 192.996 143.88 192.368C142.526 191.741 141.188 191.074 139.856 190.402C138.529 189.713 137.208 189.018 135.91 188.278C134.852 187.684 133.8 187.068 132.776 186.413C132.552 186.272 132.333 186.132 132.121 185.992C132.104 185.981 132.087 185.97 132.07 185.959C132.087 185.97 132.109 185.976 132.132 185.981C132.395 186.088 132.652 186.188 132.91 186.295C134.024 186.743 135.109 187.231 136.195 187.735C137.55 188.362 138.887 189.029 140.214 189.707C141.54 190.396 142.861 191.091 144.16 191.83C145.458 192.559 146.751 193.315 148.005 194.144Z" fill="white"/>
<path d="M90 270.077L135.375 269.937L180.75 269.892L271.5 269.797L362.25 269.892L407.625 269.937L453 270.077L407.625 270.211L362.25 270.262L271.5 270.357L180.75 270.262L135.375 270.211L90 270.077Z" fill="#263238"/>
<path d="M394.572 111.107H147.492V276.553H394.572V111.107Z" fill="#DBDBDB"/>
<path d="M392.776 113.124H149.289V274.531H392.776V113.124Z" fill="#263238"/>
<path d="M426.753 288.958H115.312V300.314H426.753V288.958Z" fill="#C7C7C7"/>
<path d="M115.312 288.958L147.495 276.548H394.57L426.753 288.958H115.312Z" fill="#DBDBDB"/>
<path d="M150.367 284.554L171.132 276.548H370.934L391.699 284.554H150.367Z" fill="#263238"/>
<path d="M379.021 125.388H163.055V262.272H379.021V125.388Z" fill="white"/>
<path d="M379.018 125.388H162.867V130.655H379.018V125.388Z" fill="#A78BEF"/>
<path d="M167.046 128.021C167.046 128.744 166.464 129.327 165.742 129.327C165.02 129.327 164.438 128.744 164.438 128.021C164.438 127.299 165.02 126.716 165.742 126.716C166.464 126.716 167.046 127.299 167.046 128.021Z" fill="white"/>
<path d="M172.382 128.021C172.382 128.744 171.8 129.327 171.078 129.327C170.356 129.327 169.773 128.744 169.773 128.021C169.773 127.299 170.356 126.716 171.078 126.716C171.794 126.716 172.382 127.299 172.382 128.021Z" fill="white"/>
<path d="M177.71 128.021C177.71 128.744 177.128 129.327 176.406 129.327C175.684 129.327 175.102 128.744 175.102 128.021C175.102 127.299 175.684 126.716 176.406 126.716C177.122 126.716 177.71 127.299 177.71 128.021Z" fill="white"/>
<path d="M379.021 130.655H375.188V262.267H379.021V130.655Z" fill="#DBDBDB"/>
<path d="M377.1 176.283C376.552 176.283 376.109 175.84 376.109 175.291V132.42C376.109 131.871 376.552 131.428 377.1 131.428C377.649 131.428 378.091 131.871 378.091 132.42V175.297C378.091 175.84 377.649 176.283 377.1 176.283Z" fill="#A6A6A6"/>
<path d="M341.701 138.936H225.289V143.367H341.701V138.936Z" fill="white"/>
<path d="M341.744 143.412H225.242V138.891H341.744V143.412Z" fill="#EBEBEB"/>
<path d="M341.741 138.891H337.219V143.418H341.741V138.891Z" fill="#A78BEF"/>
<path d="M340.892 142.392L340.483 142.7L339.727 141.698L339.453 141.333C339.509 141.311 339.565 141.283 339.61 141.244C339.705 141.171 339.778 141.076 339.823 140.969L340.119 141.356L340.892 142.392Z" fill="white"/>
<path d="M340.084 140.034C339.709 139.546 339.009 139.451 338.516 139.826C338.024 140.202 337.934 140.902 338.309 141.395C338.645 141.838 339.244 141.955 339.72 141.703C339.776 141.675 339.826 141.641 339.877 141.602C339.966 141.535 340.044 141.451 340.106 141.361C340.386 140.975 340.391 140.437 340.084 140.034ZM339.602 141.249C339.552 141.289 339.502 141.317 339.446 141.339C339.177 141.445 338.852 141.367 338.668 141.126C338.444 140.835 338.5 140.415 338.791 140.19C339.082 139.966 339.502 140.022 339.725 140.314C339.877 140.51 339.899 140.767 339.809 140.975C339.77 141.076 339.697 141.171 339.602 141.249Z" fill="white"/>
<path d="M226.446 139.81H226.211V142.499H226.446V139.81Z" fill="#C7C7C7"/>
<path d="M367.402 143.541C367.184 143.675 366.943 143.782 366.674 143.843C365.991 144.011 365.309 143.883 364.754 143.541C364.212 143.205 363.797 142.667 363.635 142C363.305 140.65 364.133 139.283 365.482 138.958C366.831 138.627 368.191 139.457 368.521 140.807C368.79 141.888 368.309 142.981 367.402 143.541Z" fill="#FFC727"/>
<path d="M366.854 141.109C366.854 141.53 366.512 141.877 366.087 141.877C365.662 141.877 365.32 141.535 365.32 141.109C365.32 140.684 365.662 140.342 366.087 140.342C366.512 140.342 366.854 140.689 366.854 141.109Z" fill="white"/>
<path d="M367.405 143.222V143.535C367.187 143.67 366.946 143.776 366.678 143.838C365.995 144.006 365.312 143.877 364.758 143.535V143.222C364.758 142.493 365.351 141.899 366.079 141.899C366.818 141.899 367.405 142.493 367.405 143.222Z" fill="white"/>
<path d="M358.699 143.916H356.953V143.294C356.953 143.261 356.93 143.227 356.897 143.21C356.835 143.177 356.768 143.143 356.707 143.098C356.673 143.076 356.639 143.076 356.606 143.093L356.068 143.401L355.195 141.882L355.733 141.569C355.761 141.552 355.777 141.518 355.777 141.479C355.777 141.445 355.772 141.406 355.772 141.372C355.772 141.333 355.772 141.3 355.777 141.266C355.783 141.227 355.761 141.193 355.733 141.176L355.195 140.868L356.068 139.35L356.606 139.664C356.639 139.68 356.673 139.68 356.707 139.658C356.768 139.619 356.83 139.58 356.897 139.546C356.93 139.529 356.947 139.496 356.947 139.462V138.84H358.693V139.462C358.693 139.496 358.716 139.529 358.749 139.546C358.811 139.58 358.878 139.613 358.94 139.658C358.973 139.68 359.012 139.68 359.04 139.664L359.578 139.35L360.451 140.868L359.914 141.176C359.886 141.193 359.869 141.227 359.869 141.266C359.869 141.3 359.874 141.339 359.874 141.372C359.874 141.406 359.874 141.445 359.869 141.479C359.863 141.518 359.886 141.552 359.914 141.569L360.451 141.882L359.578 143.395L359.04 143.087C359.012 143.07 358.973 143.07 358.94 143.093C358.878 143.132 358.817 143.171 358.749 143.205C358.716 143.221 358.693 143.255 358.693 143.289L358.699 143.916ZM357.384 143.479H358.262V143.294C358.262 143.098 358.374 142.913 358.554 142.824C358.604 142.796 358.654 142.768 358.705 142.74C358.873 142.627 359.085 142.622 359.259 142.723L359.421 142.818L359.858 142.056L359.695 141.961C359.527 141.86 359.427 141.675 359.432 141.473L359.438 141.389L359.432 141.305C359.421 141.104 359.522 140.913 359.695 140.818L359.858 140.723L359.421 139.961L359.264 140.05C359.091 140.151 358.878 140.146 358.71 140.033C358.66 140 358.609 139.972 358.559 139.949C358.38 139.854 358.268 139.675 358.268 139.479V139.294H357.389V139.479C357.389 139.68 357.277 139.86 357.098 139.949C357.048 139.977 356.998 140.005 356.947 140.033C356.779 140.146 356.567 140.151 356.393 140.05L356.236 139.961L355.8 140.723L355.962 140.818C356.136 140.919 356.236 141.104 356.225 141.305L356.22 141.389L356.225 141.473C356.236 141.675 356.136 141.866 355.962 141.961L355.8 142.056L356.236 142.818L356.399 142.723C356.567 142.622 356.785 142.627 356.953 142.74C357.003 142.773 357.048 142.801 357.104 142.824C357.283 142.913 357.395 143.098 357.395 143.294L357.384 143.479ZM357.826 142.678C357.115 142.678 356.533 142.095 356.533 141.384C356.533 140.672 357.115 140.089 357.826 140.089C358.542 140.089 359.119 140.672 359.119 141.384C359.119 142.095 358.537 142.678 357.826 142.678ZM357.826 140.526C357.356 140.526 356.97 140.913 356.97 141.384C356.97 141.86 357.356 142.241 357.826 142.241C358.296 142.241 358.682 141.854 358.682 141.384C358.682 140.913 358.296 140.526 357.826 140.526Z" fill="#DBDBDB"/>
<path d="M375.187 161.643H213.938V170.792H375.187V161.643Z" fill="#EBEBEB"/>
<path d="M223.836 164.842H221.094V167.588H223.836V164.842Z" fill="white"/>
<path d="M235.5 167.588H232.758L233.877 166.215L232.758 164.842H235.5L236.62 166.215L235.5 167.588Z" fill="white"/>
<path d="M228.452 164.842L228.894 165.744L229.896 165.89L229.174 166.596L229.342 167.588L228.452 167.123L227.556 167.588L227.73 166.596L227.008 165.89L228.004 165.744L228.452 164.842Z" fill="#FFC727"/>
<path d="M260.461 165.655H238.594V166.77H260.461V165.655Z" fill="#263238"/>
<path d="M363.196 165.655H343.344V166.77H363.196V165.655Z" fill="#263238"/>
<path d="M335.002 165.655H267.133V166.77H335.002V165.655Z" fill="#455A64"/>
<path d="M223.836 173.991H221.094V176.737H223.836V173.991Z" fill="white" stroke="#EBEBEB" stroke-width="0.5" stroke-miterlimit="10"/>
<path d="M235.5 176.737H232.758L233.877 175.364L232.758 173.991H235.5L236.62 175.364L235.5 176.737Z" fill="white" stroke="#EBEBEB" stroke-width="0.5" stroke-miterlimit="10"/>
<path d="M228.452 173.991L228.894 174.893L229.896 175.039L229.174 175.745L229.342 176.737L228.452 176.271L227.556 176.737L227.73 175.745L227.008 175.039L228.004 174.893L228.452 173.991Z" fill="#FFC727"/>
<path d="M260.461 174.804H238.594V175.919H260.461V174.804Z" fill="#263238"/>
<path d="M363.196 174.804H343.344V175.919H363.196V174.804Z" fill="#263238"/>
<path d="M335.002 174.804H267.133V175.919H335.002V174.804Z" fill="#455A64"/>
<path d="M375.187 179.941H213.938V189.091H375.187V179.941Z" fill="#EBEBEB"/>
<path d="M223.836 183.141H221.094V185.886H223.836V183.141Z" fill="white"/>
<path d="M235.5 185.886H232.758L233.877 184.513L232.758 183.141H235.5L236.62 184.513L235.5 185.886Z" fill="white"/>
<path d="M228.452 183.141L228.894 184.043L229.896 184.188L229.174 184.894L229.342 185.886L228.452 185.415L227.556 185.886L227.73 184.894L227.008 184.188L228.004 184.043L228.452 183.141Z" fill="white"/>
<path d="M260.461 183.953H238.594V185.068H260.461V183.953Z" fill="#DBDBDB"/>
<path d="M363.196 183.953H343.344V185.068H363.196V183.953Z" fill="#DBDBDB"/>
<path d="M335.002 183.953H267.133V185.068H335.002V183.953Z" fill="#C7C7C7"/>
<path d="M223.836 192.29H221.094V195.035H223.836V192.29Z" fill="white" stroke="#EBEBEB" stroke-width="0.5" stroke-miterlimit="10"/>
<path d="M235.5 195.035H232.758L233.877 193.662L232.758 192.29H235.5L236.62 193.662L235.5 195.035Z" fill="white" stroke="#EBEBEB" stroke-width="0.5" stroke-miterlimit="10"/>
<path d="M228.452 192.29L228.894 193.192L229.896 193.337L229.174 194.043L229.342 195.035L228.452 194.564L227.556 195.035L227.73 194.043L227.008 193.337L228.004 193.192L228.452 192.29Z" fill="#FFC727"/>
<path d="M260.461 193.102H238.594V194.217H260.461V193.102Z" fill="#DBDBDB"/>
<path d="M363.196 193.102H343.344V194.217H363.196V193.102Z" fill="#DBDBDB"/>
<path d="M335.002 193.102H267.133V194.217H335.002V193.102Z" fill="#C7C7C7"/>
<path d="M375.187 198.234H213.938V207.383H375.187V198.234Z" fill="#EBEBEB"/>
<path d="M223.836 201.433H221.094V204.179H223.836V201.433Z" fill="white"/>
<path d="M235.5 204.184H232.758L233.877 202.812L232.758 201.433H235.5L236.62 202.812L235.5 204.184Z" fill="white"/>
<path d="M228.452 201.433L228.894 202.341L229.896 202.487L229.174 203.187L229.342 204.184L228.452 203.714L227.556 204.184L227.73 203.187L227.008 202.487L228.004 202.341L228.452 201.433Z" fill="#FFC727"/>
<path d="M260.461 202.251H238.594V203.366H260.461V202.251Z" fill="#DBDBDB"/>
<path d="M363.196 202.251H343.344V203.366H363.196V202.251Z" fill="#DBDBDB"/>
<path d="M335.002 202.251H267.133V203.366H335.002V202.251Z" fill="#C7C7C7"/>
<path d="M223.836 210.582H221.094V213.328H223.836V210.582Z" fill="white" stroke="#EBEBEB" stroke-width="0.5" stroke-miterlimit="10"/>
<path d="M235.5 213.333H232.758L233.877 211.961L232.758 210.582H235.5L236.62 211.961L235.5 213.333Z" fill="white" stroke="#EBEBEB" stroke-width="0.5" stroke-miterlimit="10"/>
<path d="M228.452 210.582L228.894 211.49L229.896 211.636L229.174 212.336L229.342 213.333L228.452 212.863L227.556 213.333L227.73 212.336L227.008 211.636L228.004 211.49L228.452 210.582Z" fill="white" stroke="#EBEBEB" stroke-width="0.5" stroke-miterlimit="10"/>
<path d="M260.461 211.4H238.594V212.515H260.461V211.4Z" fill="#DBDBDB"/>
<path d="M363.196 211.4H343.344V212.515H363.196V211.4Z" fill="#DBDBDB"/>
<path d="M335.002 211.4H267.133V212.515H335.002V211.4Z" fill="#C7C7C7"/>
<path d="M375.187 216.532H213.938V225.681H375.187V216.532Z" fill="#EBEBEB"/>
<path d="M223.836 219.731H221.094V222.477H223.836V219.731Z" fill="white"/>
<path d="M235.5 222.482H232.758L233.877 221.104L232.758 219.731H235.5L236.62 221.104L235.5 222.482Z" fill="white"/>
<path d="M228.452 219.731L228.894 220.639L229.896 220.785L229.174 221.485L229.342 222.482L228.452 222.012L227.556 222.482L227.73 221.485L227.008 220.785L228.004 220.639L228.452 219.731Z" fill="#FFC727"/>
<path d="M260.461 220.549H238.594V221.664H260.461V220.549Z" fill="#DBDBDB"/>
<path d="M363.196 220.549H343.344V221.664H363.196V220.549Z" fill="#DBDBDB"/>
<path d="M335.002 220.549H267.133V221.664H335.002V220.549Z" fill="#C7C7C7"/>
<path d="M223.836 228.881H221.094V231.626H223.836V228.881Z" fill="white" stroke="#EBEBEB" stroke-width="0.5" stroke-miterlimit="10"/>
<path d="M235.5 231.626H232.758L233.877 230.253L232.758 228.881H235.5L236.62 230.253L235.5 231.626Z" fill="white" stroke="#EBEBEB" stroke-width="0.5" stroke-miterlimit="10"/>
<path d="M228.452 228.881L228.894 229.783L229.896 229.928L229.174 230.634L229.342 231.626L228.452 231.161L227.556 231.626L227.73 230.634L227.008 229.928L228.004 229.783L228.452 228.881Z" fill="white" stroke="#EBEBEB" stroke-width="0.5" stroke-miterlimit="10"/>
<path d="M260.461 229.693H238.594V230.808H260.461V229.693Z" fill="#DBDBDB"/>
<path d="M363.196 229.693H343.344V230.808H363.196V229.693Z" fill="#DBDBDB"/>
<path d="M335.002 229.693H267.133V230.808H335.002V229.693Z" fill="#C7C7C7"/>
<path d="M375.187 234.831H213.938V243.98H375.187V234.831Z" fill="#EBEBEB"/>
<path d="M223.836 238.03H221.094V240.775H223.836V238.03Z" fill="white"/>
<path d="M235.5 240.775H232.758L233.877 239.402L232.758 238.03H235.5L236.62 239.402L235.5 240.775Z" fill="white"/>
<path d="M228.452 238.03L228.894 238.932L229.896 239.077L229.174 239.783L229.342 240.775L228.452 240.31L227.556 240.775L227.73 239.783L227.008 239.077L228.004 238.932L228.452 238.03Z" fill="white"/>
<path d="M260.461 238.842H238.594V239.957H260.461V238.842Z" fill="#DBDBDB"/>
<path d="M363.196 238.842H343.344V239.957H363.196V238.842Z" fill="#DBDBDB"/>
<path d="M335.002 238.842H267.133V239.957H335.002V238.842Z" fill="#C7C7C7"/>
<path d="M223.836 247.179H221.094V249.924H223.836V247.179Z" fill="white" stroke="#EBEBEB" stroke-width="0.5" stroke-miterlimit="10"/>
<path d="M235.5 249.924H232.758L233.877 248.552L232.758 247.179H235.5L236.62 248.552L235.5 249.924Z" fill="white" stroke="#EBEBEB" stroke-width="0.5" stroke-miterlimit="10"/>
<path d="M228.452 247.179L228.894 248.081L229.896 248.227L229.174 248.933L229.342 249.924L228.452 249.454L227.556 249.924L227.73 248.933L227.008 248.227L228.004 248.081L228.452 247.179Z" fill="white" stroke="#EBEBEB" stroke-width="0.5" stroke-miterlimit="10"/>
<path d="M260.461 247.991H238.594V249.106H260.461V247.991Z" fill="#DBDBDB"/>
<path d="M363.196 247.991H343.344V249.106H363.196V247.991Z" fill="#DBDBDB"/>
<path d="M335.002 247.991H267.133V249.106H335.002V247.991Z" fill="#C7C7C7"/>
<path d="M375.187 253.123H213.938V262.272H375.187V253.123Z" fill="#EBEBEB"/>
<path d="M223.836 256.328H221.094V259.073H223.836V256.328Z" fill="white"/>
<path d="M235.5 259.073H232.758L233.877 257.701L232.758 256.328H235.5L236.62 257.701L235.5 259.073Z" fill="white"/>
<path d="M228.452 256.328L228.894 257.23L229.896 257.376L229.174 258.082L229.342 259.073L228.452 258.603L227.556 259.073L227.73 258.082L227.008 257.376L228.004 257.23L228.452 256.328Z" fill="#FFC727"/>
<path d="M260.461 257.14H238.594V258.255H260.461V257.14Z" fill="#DBDBDB"/>
<path d="M363.196 257.14H343.344V258.255H363.196V257.14Z" fill="#DBDBDB"/>
<path d="M335.002 257.14H267.133V258.255H335.002V257.14Z" fill="#C7C7C7"/>
<path d="M260.456 153.39H229.93V156.662H260.456V153.39Z" fill="#DBDBDB"/>
<path d="M225.245 153.39H221.086V156.662H225.245V153.39Z" fill="#DBDBDB"/>
<path d="M225.25 153.39C225.082 153.57 224.909 153.743 224.741 153.923C224.573 154.096 224.399 154.27 224.226 154.444C224.047 154.623 223.868 154.802 223.689 154.982C223.683 154.987 223.677 154.993 223.672 154.998C223.509 155.155 223.353 155.312 223.19 155.469L223.168 155.491L223.146 155.469C222.983 155.312 222.827 155.155 222.664 154.998C222.659 154.993 222.653 154.987 222.648 154.982C222.468 154.802 222.289 154.629 222.11 154.444C221.937 154.27 221.769 154.096 221.595 153.923C221.427 153.743 221.254 153.57 221.086 153.39C221.265 153.547 221.439 153.71 221.618 153.867C221.797 154.029 221.97 154.192 222.144 154.354C222.34 154.533 222.536 154.724 222.726 154.909C222.871 155.049 223.017 155.189 223.162 155.329C223.308 155.189 223.453 155.049 223.599 154.909C223.795 154.724 223.991 154.539 224.181 154.354C224.355 154.192 224.534 154.029 224.707 153.867C224.898 153.71 225.071 153.547 225.25 153.39Z" fill="white"/>
<path d="M222.734 154.903L222.728 154.909C222.706 154.937 222.683 154.965 222.661 154.993C222.555 155.127 222.448 155.256 222.342 155.385C222.208 155.542 222.073 155.687 221.939 155.839C221.805 155.984 221.665 156.124 221.525 156.265C221.385 156.405 221.239 156.539 221.094 156.662C221.222 156.494 221.351 156.332 221.486 156.18C221.62 156.024 221.754 155.878 221.889 155.727C222.028 155.581 222.163 155.435 222.303 155.301C222.415 155.189 222.527 155.082 222.644 154.982C222.672 154.959 222.7 154.937 222.722 154.914C222.728 154.909 222.728 154.909 222.734 154.903Z" fill="white"/>
<path d="M225.241 156.662C225.096 156.539 224.95 156.405 224.811 156.265C224.671 156.124 224.531 155.984 224.396 155.839C224.262 155.693 224.122 155.542 223.993 155.385C223.887 155.262 223.781 155.133 223.674 154.993C223.652 154.965 223.63 154.937 223.607 154.909C223.635 154.931 223.663 154.953 223.686 154.982C223.803 155.082 223.915 155.194 224.027 155.301C224.167 155.441 224.307 155.581 224.441 155.727C224.575 155.872 224.715 156.024 224.844 156.18C224.984 156.337 225.113 156.494 225.241 156.662Z" fill="white"/>
<path d="M311.823 153.39H281.297V156.662H311.823V153.39Z" fill="#DBDBDB"/>
<path d="M274.333 154.5C274.333 154.881 274.026 155.194 273.639 155.194C273.253 155.194 272.945 154.886 272.945 154.5C272.945 154.113 273.253 153.805 273.639 153.805C274.026 153.805 274.333 154.119 274.333 154.5Z" fill="#DBDBDB"/>
<path d="M274.841 156.41V156.662H272.445V156.41C272.445 155.749 272.983 155.217 273.643 155.217C274.304 155.211 274.841 155.749 274.841 156.41Z" fill="#DBDBDB"/>
<path d="M276.107 154.079C276.107 154.46 275.799 154.774 275.413 154.774C275.027 154.774 274.719 154.466 274.719 154.079C274.719 153.693 275.027 153.385 275.413 153.385C275.799 153.39 276.107 153.699 276.107 154.079Z" fill="#DBDBDB"/>
<path d="M276.614 155.99V156.242H274.219V155.99C274.219 155.329 274.756 154.797 275.417 154.797C276.077 154.797 276.614 155.334 276.614 155.99Z" fill="#DBDBDB"/>
<path d="M363.198 153.39H332.672V156.662H363.198V153.39Z" fill="#DBDBDB"/>
<path d="M327.987 153.39H323.828V156.662H327.987L329.229 155.026L327.987 153.39ZM328.02 155.273C327.886 155.273 327.774 155.161 327.774 155.026C327.774 154.886 327.886 154.78 328.02 154.78C328.16 154.78 328.267 154.886 328.267 155.026C328.267 155.161 328.16 155.273 328.02 155.273Z" fill="#DBDBDB"/>
<path d="M213.934 130.655H162.867V262.267H213.934V130.655Z" fill="#E527BB"/>
<path d="M206.797 150.146H170.008V159.912H206.797V150.146Z" fill="white"/>
<path d="M175.135 138.891H170.008V139.714H175.135V138.891Z" fill="white"/>
<path d="M175.135 142.588H170.008V143.412H175.135V142.588Z" fill="white"/>
<path d="M175.135 140.762H170.008V141.586H175.135V140.762Z" fill="white"/>
<path d="M187.138 138.891H180.008V143.418H187.138V138.891Z" fill="#EBEBEB"/>
<path d="M187.138 138.891V143.418H180.008V138.891C180.316 139.065 180.618 139.249 180.92 139.423C181.222 139.602 181.525 139.787 181.821 139.967C182.157 140.168 182.487 140.376 182.823 140.588C182.829 140.588 182.829 140.583 182.834 140.583C182.829 140.583 182.829 140.588 182.829 140.588C183.081 140.745 183.327 140.902 183.579 141.059C183.825 140.902 184.077 140.745 184.329 140.588C184.323 140.588 184.323 140.583 184.323 140.583C184.329 140.583 184.329 140.588 184.334 140.588C184.67 140.381 185 140.174 185.336 139.967C185.638 139.782 185.935 139.602 186.237 139.423C186.528 139.244 186.831 139.065 187.138 138.891Z" fill="#EBEBEB"/>
<path d="M187.141 138.891C186.855 139.092 186.559 139.288 186.267 139.484C185.976 139.681 185.68 139.877 185.389 140.067C185.081 140.269 184.773 140.465 184.465 140.667C184.454 140.672 184.448 140.678 184.437 140.683C184.163 140.857 183.889 141.031 183.615 141.205L183.575 141.227L183.536 141.205C183.262 141.031 182.988 140.857 182.719 140.678C182.708 140.672 182.702 140.667 182.691 140.661C182.383 140.465 182.075 140.263 181.767 140.062C181.476 139.871 181.18 139.675 180.889 139.479C180.598 139.277 180.307 139.087 180.016 138.885C180.323 139.059 180.626 139.244 180.928 139.417C181.23 139.597 181.532 139.781 181.829 139.961C182.165 140.162 182.495 140.37 182.831 140.583C183.083 140.739 183.329 140.896 183.581 141.053C183.827 140.896 184.079 140.739 184.331 140.583C184.667 140.375 184.997 140.168 185.333 139.961C185.635 139.776 185.932 139.597 186.234 139.417C186.531 139.244 186.833 139.064 187.141 138.891Z" fill="white"/>
<path d="M182.83 140.588C182.791 140.622 182.757 140.65 182.718 140.683C182.539 140.835 182.354 140.98 182.169 141.12C181.94 141.294 181.71 141.462 181.475 141.625C181.24 141.787 181.005 141.95 180.764 142.101C180.524 142.252 180.278 142.403 180.031 142.543C180.25 142.353 180.473 142.179 180.697 142.006C180.927 141.832 181.156 141.664 181.391 141.501C181.626 141.339 181.861 141.176 182.102 141.025C182.292 140.902 182.488 140.779 182.69 140.667C182.735 140.639 182.779 140.616 182.83 140.588Z" fill="white"/>
<path d="M187.124 142.549C186.873 142.409 186.632 142.258 186.391 142.106C186.151 141.955 185.915 141.793 185.68 141.63C185.445 141.468 185.216 141.3 184.986 141.126C184.802 140.986 184.617 140.84 184.438 140.689C184.399 140.655 184.359 140.627 184.326 140.594C184.32 140.594 184.32 140.588 184.32 140.588C184.326 140.588 184.326 140.594 184.332 140.594C184.376 140.622 184.427 140.644 184.471 140.672C184.673 140.784 184.863 140.907 185.059 141.031C185.3 141.188 185.535 141.344 185.77 141.507C186.005 141.669 186.234 141.838 186.464 142.011C186.682 142.179 186.906 142.359 187.124 142.549Z" fill="white"/>
<path opacity="0.1" d="M213.934 168.422H162.867V175.364H213.934V168.422Z" fill="#020100"/>
<path d="M199.622 169.913H170.008V173.991H199.622V169.913Z" fill="white"/>
<path d="M199.622 177.902H170.008V181.981H199.622V177.902Z" fill="white"/>
<path d="M199.622 185.886H170.008V189.964H199.622V185.886Z" fill="white"/>
<path d="M199.622 193.875H170.008V197.954H199.622V193.875Z" fill="white"/>
<path d="M205.911 201.859H176.297V205.938H205.911V201.859Z" fill="#455A64"/>
<path d="M205.911 209.848H176.297V213.927H205.911V209.848Z" fill="#455A64"/>
<path d="M199.622 217.832H170.008V221.911H199.622V217.832Z" fill="white"/>
<path d="M199.622 225.822H170.008V229.9H199.622V225.822Z" fill="white"/>
<path d="M162.719 219.474C162.719 219.843 162.736 220.213 162.764 220.594" stroke="#263238" stroke-width="0.75" stroke-miterlimit="10"/>
<path d="M163.242 223.35C166.931 237.447 189.414 254.501 214.438 243.654C241.41 231.956 240.408 187.482 275.238 168.697" stroke="#263238" stroke-width="0.75" stroke-miterlimit="10" stroke-dasharray="4.01 4.01"/>
<path d="M276.484 168.041C276.815 167.873 277.15 167.705 277.486 167.542" stroke="#263238" stroke-width="0.75" stroke-miterlimit="10"/>
<path d="M275.314 161.458L271.805 171.112L279.176 165.346L307.351 155.116L275.314 161.458Z" fill="#FFC727"/>
<path d="M275.314 161.458L271.805 171.112L279.176 165.346L307.351 155.116L275.314 161.458Z" fill="#856AE5"/>
<path d="M280.122 167.599L271.805 171.112L279.176 165.346L280.122 167.599Z" fill="#263238"/>
<path d="M279.172 165.346L307.347 155.116L284.237 177.695L279.172 165.346Z" fill="#A78BEF"/>
<path d="M275.311 161.458L263.602 153.889L307.348 155.116L275.311 161.458Z" fill="#A78BEF"/>
<path d="M376.099 157.665C391.178 157.665 403.401 145.429 403.401 130.335C403.401 115.242 391.178 103.006 376.099 103.006C361.021 103.006 348.797 115.242 348.797 130.335C348.797 145.429 361.021 157.665 376.099 157.665Z" fill="#E527BB"/>
<path d="M394.731 118.514H357.461V142.174H394.731V118.514Z" fill="white"/>
<path d="M394.739 118.514C393.234 119.954 391.7 121.337 390.183 122.755C388.655 124.144 387.122 125.528 385.583 126.901C383.976 128.335 382.364 129.753 380.752 131.164C380.702 131.209 380.657 131.254 380.607 131.305C379.18 132.548 377.747 133.792 376.314 135.03L376.101 135.204L375.894 135.03C374.461 133.787 373.034 132.543 371.607 131.293C371.556 131.254 371.506 131.209 371.456 131.164C369.838 129.753 368.226 128.335 366.62 126.895C365.086 125.528 363.553 124.144 362.025 122.755C360.508 121.337 358.974 119.954 357.469 118.514C359.069 119.752 360.642 121.046 362.226 122.312C363.805 123.601 365.383 124.889 366.95 126.201C368.696 127.652 370.443 129.12 372.183 130.61C372.189 130.61 372.189 130.61 372.194 130.615C373.499 131.719 374.803 132.834 376.107 133.949C377.405 132.834 378.709 131.714 380.014 130.615C380.019 130.599 380.019 130.599 380.025 130.599C381.765 129.12 383.506 127.646 385.258 126.189C386.825 124.884 388.398 123.59 389.976 122.307C391.566 121.046 393.139 119.752 394.739 118.514Z" fill="#DBDBDB"/>
<path d="M372.236 131.148C372.219 131.159 372.208 131.176 372.191 131.187C371.995 131.355 371.799 131.523 371.603 131.686C370.668 132.476 369.711 133.232 368.738 133.966C367.551 134.873 366.336 135.742 365.116 136.605C363.89 137.451 362.659 138.291 361.4 139.098C360.141 139.905 358.87 140.695 357.555 141.417C358.685 140.426 359.861 139.501 361.047 138.599C362.239 137.692 363.454 136.823 364.668 135.96C365.9 135.109 367.131 134.268 368.391 133.462C369.392 132.817 370.411 132.184 371.452 131.59C371.693 131.45 371.933 131.316 372.18 131.181C372.196 131.17 372.219 131.159 372.236 131.148Z" fill="#DBDBDB"/>
<path d="M394.65 141.417C393.334 140.695 392.058 139.905 390.805 139.098C389.545 138.291 388.314 137.451 387.083 136.605C385.862 135.742 384.648 134.873 383.461 133.966C382.493 133.232 381.536 132.481 380.607 131.691C380.405 131.523 380.209 131.355 380.014 131.187C379.997 131.176 379.986 131.159 379.969 131.148C379.986 131.159 380.008 131.17 380.025 131.176C380.271 131.316 380.512 131.45 380.752 131.59C381.793 132.184 382.806 132.817 383.814 133.462C385.073 134.268 386.305 135.109 387.53 135.96C388.75 136.823 389.965 137.692 391.152 138.599C392.344 139.501 393.519 140.426 394.65 141.417Z" fill="#DBDBDB"/>
<path d="M390.66 124.514C393.98 124.514 396.671 121.82 396.671 118.497C396.671 115.174 393.98 112.48 390.66 112.48C387.34 112.48 384.648 115.174 384.648 118.497C384.648 121.82 387.34 124.514 390.66 124.514Z" fill="#A78BEF"/>
<path d="M390 119.836V114.939C390 114.575 390.302 114.273 390.666 114.273C391.03 114.273 391.321 114.575 391.321 114.939V119.836C391.321 120.212 391.03 120.503 390.666 120.503C390.302 120.503 390 120.212 390 119.836ZM390.666 122.755C390.302 122.755 390 122.464 390 122.088V121.847C390 121.483 390.302 121.181 390.666 121.181C391.03 121.181 391.321 121.483 391.321 121.847V122.088C391.321 122.464 391.03 122.755 390.666 122.755Z" fill="white"/>
<path d="M418.725 218.017C418.881 215.692 419.167 213.367 419.71 211.103C420.197 209.058 420.885 206.963 422.178 205.271C423.353 203.725 425.049 202.492 427.014 202.251C428.911 202.021 430.686 202.862 432.107 204.061C433.865 205.54 435.208 207.501 436.473 209.4C437.883 211.523 439.087 213.731 440.24 216.006C440.279 216.078 440.161 216.146 440.128 216.067C439.176 214.151 438.001 212.285 436.758 210.543C435.583 208.896 434.329 207.254 432.88 205.837C431.581 204.565 429.924 203.377 428.044 203.316C426.169 203.254 424.439 204.307 423.309 205.758C422.044 207.377 421.406 209.394 420.924 211.367C420.398 213.529 420.135 215.737 419.95 217.95C419.581 222.505 419.48 227.088 419.374 231.654C419.318 234.237 419.279 236.825 419.256 239.408C419.245 240.719 419.234 242.03 419.223 243.341C419.212 244.602 419.279 245.885 419.072 247.128C419.027 247.38 418.613 247.358 418.568 247.117C418.361 245.935 418.411 244.725 418.395 243.526C418.378 242.282 418.361 241.044 418.35 239.8C418.327 237.385 418.316 234.971 418.322 232.556C418.339 227.71 418.395 222.846 418.725 218.017Z" fill="#263238"/>
<path d="M425.231 214.577C425.472 213.288 425.909 211.607 426.642 210.61C427.957 208.817 429.384 209.596 428.069 211.585C426.631 213.753 426.424 215.468 426.217 216.482C426.217 216.482 428.433 219.647 431.103 221.21C430.991 219.995 430.644 218.118 430.884 216.314C431.399 212.403 433.761 212.621 433.179 215.731C432.709 218.224 432.519 220.869 432.642 222.017C433.442 222.628 434.814 223.149 435.496 223.418C435.345 222.964 435.177 222.421 434.998 221.759C434.052 218.252 436.386 217.16 436.459 219.132C436.515 220.751 437.142 223.267 437.366 224.107C438.648 224.538 439.711 224.83 440.36 225.059C443.064 226.012 444.743 228.057 444.743 228.057C445.968 226.964 446.954 225.642 447.726 224.191C446.909 223.485 445.616 222.443 443.825 221.177C440.467 218.801 441.631 215.804 444.301 217.669C446.226 219.014 447.715 221.507 448.386 222.785C449.315 220.572 449.802 218.14 449.909 215.781C447.273 213.299 440.746 209.848 442.711 209.848C444.48 209.848 448.442 212.448 449.898 213.451C449.858 212.75 449.786 212.072 449.674 211.417C447.189 209.787 439.112 207.249 440.399 206.52C441.815 205.719 447.446 208.33 449.153 209.159C448.778 207.949 448.274 206.89 447.659 206.066C444.222 201.467 438.032 199.881 435.328 200.755C433.414 201.377 433.974 206.229 433.565 206.066C425.898 202.963 422.405 205.148 425.231 214.577ZM444.054 214.05C444.597 213.389 447.121 215.328 446.388 216.386C445.666 217.445 443.355 214.891 444.054 214.05ZM430.89 209.904C431.551 210.324 430.571 212.778 429.552 212.033C428.679 211.406 430.218 209.478 430.89 209.904Z" fill="#39B039"/>
<path d="M431.893 210.66C432.24 209.977 432.604 209.293 432.996 208.632C433.371 208.005 433.774 207.338 434.266 206.789C434.154 206.655 434.048 206.515 433.936 206.386C433.891 206.33 433.969 206.257 434.014 206.307C434.143 206.453 434.266 206.604 434.389 206.755C434.412 206.767 434.434 206.789 434.44 206.817C434.915 207.389 435.363 207.971 435.788 208.571C436.544 208.733 437.288 208.974 438.016 209.215C438.772 209.467 439.516 209.73 440.249 210.039C440.328 210.072 440.288 210.195 440.21 210.162C439.482 209.843 438.749 209.529 437.999 209.277C437.288 209.036 436.566 208.851 435.844 208.649C436.079 208.98 436.309 209.316 436.527 209.652C437.882 210.044 439.203 210.66 440.473 211.26C441.805 211.893 443.087 212.633 444.363 213.367C444.436 213.406 444.369 213.518 444.296 213.479C443.048 212.728 441.744 212.089 440.423 211.473C439.186 210.896 437.91 210.42 436.662 209.865C439.796 214.762 441.676 220.415 444.195 225.653C444.234 225.732 444.111 225.793 444.083 225.715C443.316 223.877 442.432 222.09 441.598 220.286C440.848 218.667 440.115 217.036 439.365 215.412C439.147 214.935 438.917 214.465 438.688 213.988C438.822 216.605 438.772 219.266 439.197 221.855C439.214 221.95 439.074 221.967 439.068 221.866C438.889 219.07 438.397 216.319 438.413 213.507C438.413 213.49 438.425 213.484 438.43 213.473C437.899 212.403 437.333 211.35 436.718 210.324C435.677 212.773 434.585 215.26 434.098 217.888C434.081 217.966 433.953 217.933 433.975 217.849C434.68 215.215 435.335 212.577 436.606 210.139C435.934 209.03 435.206 207.96 434.395 206.952C434.048 207.601 433.6 208.218 433.203 208.84C432.816 209.45 432.436 210.061 432.078 210.683C431.311 212.022 430.639 213.383 430.113 214.834C430.085 214.913 429.956 214.874 429.99 214.795C430.6 213.411 431.21 212.011 431.893 210.66Z" fill="#263238"/>
<path d="M407.165 216.616C409.18 214.594 411.519 211.944 414.626 211.949C417.626 211.955 419.836 214.375 421.107 216.868C422.434 219.479 422.909 222.437 423.284 225.312C423.732 228.752 423.984 232.22 424.079 235.688C424.135 237.615 424.124 239.542 424.079 241.47C424.029 243.414 423.984 245.386 423.637 247.302C423.581 247.61 423.083 247.627 423.066 247.291C422.976 245.672 423.038 244.041 423.049 242.416C423.06 240.82 423.032 239.217 422.976 237.621C422.859 234.388 422.624 231.161 422.243 227.945C421.913 225.138 421.65 222.253 420.81 219.541C420.055 217.098 418.633 214.297 416.159 213.227C412.779 211.759 409.476 214.437 407.266 216.7C407.21 216.756 407.109 216.672 407.165 216.616Z" fill="#263238"/>
<path d="M396.901 221.132C396.918 221.547 396.941 221.956 396.969 222.359C397.887 221.715 399.04 221.126 400.265 220.992C403.12 220.689 402.941 222.863 401.032 222.953C399.213 223.037 397.993 223.351 397.114 223.737C397.579 227.513 398.62 230.55 398.771 230.589C398.928 230.628 402.42 230.376 406.316 229.637C405.605 228.124 403.987 226.107 404.81 225.945C405.655 225.777 406.534 227.575 406.993 229.497C408.873 229.116 410.81 228.617 412.484 227.984C411.23 226.897 409.288 225.541 410.026 224.964C410.771 224.382 412.31 226.292 413.234 227.681C414.151 227.289 414.963 226.852 415.607 226.359C413.916 223.872 409.786 223.362 410.329 221.563C410.877 219.731 414.728 222.258 416.457 225.592C418.495 223.479 419.088 220.488 418.875 217.933C417.101 217.726 413.693 218.101 413.939 216.824C414.168 215.613 416.648 215.793 418.668 216.538C418.422 215.378 417.997 214.392 417.482 213.731C415.612 211.327 409.909 214.381 409.909 214.381C409.909 214.381 410.519 208.644 408.342 207.652C407.088 207.081 404.877 207.086 402.655 208.397C403.898 208.498 405.403 208.896 406.008 209.759C406.78 210.862 405.56 211.462 404.788 210.952C404.245 210.588 403.221 209.456 401.379 209.305C400.663 209.899 399.969 210.655 399.319 211.585C399.107 211.882 398.911 212.196 398.721 212.532C400.512 211.787 402.885 211.406 405.398 212.655C407.872 213.882 406.489 216.454 404.362 215.456C402.258 214.47 400.209 213.479 397.954 214.045C397.125 215.955 396.851 218.219 396.868 220.443C397.713 219.832 398.961 219.098 400.528 218.684C402.985 218.039 403.73 219.507 401.032 219.782C399.331 219.95 397.887 220.577 396.901 221.132ZM399.89 217.182C399.722 216.387 401.463 216.157 401.754 216.801C401.995 217.35 400.058 217.978 399.89 217.182ZM414.801 221.591C414.963 221.154 416.133 221.653 416.026 222.191C415.881 222.919 414.644 222.028 414.801 221.591ZM406.568 224.393C407.418 224.051 408.745 226.169 407.816 226.651C406.892 227.132 405.873 224.667 406.568 224.393Z" fill="#39B039"/>
<path d="M399.103 230.152C400.385 228.006 401.65 225.855 402.993 223.748C403.62 222.768 404.275 221.81 404.957 220.863C404.857 220.841 404.75 220.813 404.65 220.79C404.482 220.757 404.308 220.723 404.14 220.695C403.749 220.628 403.351 220.572 402.954 220.527C402.579 220.488 402.204 220.471 401.829 220.465C401.437 220.46 401.012 220.448 400.625 220.527C400.575 220.538 400.569 220.46 400.614 220.465C401.012 220.482 401.426 220.426 401.823 220.42C402.215 220.415 402.601 220.426 402.993 220.448C403.357 220.471 403.721 220.504 404.084 220.56C404.286 220.588 404.482 220.628 404.683 220.667C404.801 220.689 404.924 220.706 405.041 220.745C405.735 219.793 406.457 218.852 407.202 217.938C404.957 216.908 402.646 216.056 400.189 215.697C400.15 215.692 400.161 215.63 400.206 215.636C402.651 216.028 405.103 216.661 407.319 217.793C407.728 217.289 408.142 216.79 408.556 216.291C409.021 215.737 409.513 215.188 409.933 214.599C409.961 214.56 410.017 214.605 409.984 214.638C409.402 215.26 408.875 215.944 408.36 216.633C408.366 216.633 408.366 216.633 408.372 216.633C409.295 217.255 410.146 217.989 410.98 218.728C411.831 219.485 412.665 220.264 413.471 221.07C413.499 221.098 413.454 221.149 413.426 221.115C412.625 220.32 411.797 219.563 410.935 218.84C410.068 218.123 409.161 217.462 408.288 216.745C408.282 216.739 408.282 216.734 408.282 216.734C408.086 216.997 407.885 217.261 407.683 217.518C407.582 217.647 407.482 217.782 407.381 217.91C407.375 217.922 407.37 217.927 407.359 217.938C407.028 218.37 406.693 218.807 406.362 219.244C406.765 219.782 407.062 220.426 407.353 221.031C407.638 221.636 407.89 222.264 408.12 222.891C408.596 224.191 408.915 225.552 409.189 226.908C409.2 226.948 409.133 226.97 409.127 226.925C408.87 225.575 408.45 224.269 407.963 222.986C407.717 222.331 407.431 221.692 407.14 221.054C406.877 220.471 406.553 219.916 406.301 219.328C406.015 219.709 405.73 220.095 405.444 220.482C405.36 220.594 405.288 220.712 405.204 220.824C405.215 220.852 405.209 220.88 405.176 220.885C405.17 220.885 405.165 220.885 405.165 220.885C404.286 222.118 403.446 223.373 402.635 224.645C402.691 224.729 402.713 224.83 402.747 224.925C402.797 225.082 402.847 225.233 402.892 225.39C402.982 225.704 403.06 226.023 403.116 226.342C403.172 226.645 403.211 226.948 403.245 227.256C403.278 227.592 403.245 227.967 403.323 228.292C403.334 228.343 403.25 228.348 403.262 228.292C403.312 227.984 403.234 227.631 403.189 227.323C403.144 226.992 403.082 226.662 403.004 226.337C402.937 226.04 402.853 225.749 402.769 225.457C402.724 225.312 402.679 225.166 402.629 225.026C402.601 224.947 402.568 224.869 402.54 224.79C402.159 225.39 401.778 225.989 401.409 226.595C400.67 227.794 399.943 228.998 399.204 230.197C399.159 230.264 399.064 230.208 399.103 230.152Z" fill="#263238"/>
<path d="M418.859 246.613C418.893 245.397 419.083 244.176 419.218 242.966C419.346 241.75 419.486 240.54 419.615 239.324C419.867 236.982 420.007 234.59 420.555 232.298C421.025 230.326 421.899 228.438 423.41 227.043C424.177 226.337 425.15 225.76 426.208 225.704C427.294 225.642 428.29 226.023 429.18 226.623C430.193 227.306 430.971 228.275 431.682 229.261C432.41 230.276 433.053 231.323 433.63 232.433C433.652 232.477 433.585 232.5 433.563 232.461C432.499 230.612 431.033 229.021 429.348 227.732C428.57 227.138 427.68 226.69 426.69 226.623C425.71 226.555 424.831 227.026 424.115 227.654C422.699 228.886 421.882 230.696 421.395 232.477C420.818 234.584 420.628 236.803 420.343 238.965C420.169 240.248 420.007 241.537 419.839 242.82C419.671 244.097 419.565 245.408 419.29 246.669C419.223 246.943 418.854 246.882 418.859 246.613Z" fill="#263238"/>
<path d="M424.831 237.178C425.178 237.665 425.626 238.114 426.152 238.528C425.95 237.34 425.71 235.234 426.308 234.113C427.237 232.371 428.335 233.239 427.78 234.752C426.98 236.915 426.879 238.371 426.885 239.044C428.06 239.817 429.482 240.444 430.915 240.949C430.786 240.366 430.708 239.643 430.78 238.87C430.965 237.01 432.392 237.043 432.017 238.982C431.855 239.817 431.821 240.624 431.821 241.257C435.068 242.276 438.107 242.674 438.107 242.674C439.316 241.061 440.167 239.514 440.71 238.041C439.198 237.66 436.131 237.576 436.198 236.489C436.288 235.032 439.254 236.153 440.989 237.212C441.415 235.816 441.566 234.5 441.515 233.29C440.838 233.066 439.585 232.791 437.34 232.595C434.223 232.326 434.374 230.556 436.635 230.595C438.303 230.623 440.407 231.648 441.409 232.18C440.76 227.934 437.525 225.216 434.928 225.11C430.568 224.931 432.135 230.365 432.135 230.365C432.135 230.365 429.18 228.287 426.392 228.337C423.616 228.41 421.848 233.026 424.831 237.178ZM436.473 229.323C436.377 228.712 438.32 228.567 438.42 229.351C438.538 230.231 436.573 229.945 436.473 229.323ZM439.607 235.699C439.568 235.301 440.407 235.228 440.598 235.732C440.721 236.057 439.64 236.091 439.607 235.699ZM429.135 236.069C429.79 236.164 430.165 238.511 429.034 238.467C428.172 238.433 428.581 235.99 429.135 236.069Z" fill="#39B039"/>
<path d="M430.05 238.679C430.157 238.388 430.258 238.091 430.347 237.789C430.263 238.091 430.185 238.394 430.129 238.702C430.118 238.763 430.028 238.741 430.05 238.679Z" fill="#263238"/>
<path d="M431.199 234.903C431.4 234.298 431.635 233.704 431.865 233.11C431.988 232.797 432.117 232.483 432.257 232.169C432.374 231.906 432.469 231.609 432.643 231.379C432.509 231.127 432.385 230.875 432.29 230.617C432.279 230.595 432.313 230.572 432.329 230.595C432.66 230.981 432.917 231.474 433.18 231.911C433.303 232.119 433.415 232.326 433.538 232.533C433.785 232.55 434.031 232.6 434.272 232.645C434.535 232.69 434.792 232.746 435.055 232.808C435.318 232.869 435.576 232.925 435.833 232.987C436.091 233.049 436.342 233.133 436.606 233.172C436.667 233.183 436.639 233.278 436.583 233.25C436.326 233.144 436.04 233.099 435.766 233.037C435.514 232.981 435.262 232.937 435.01 232.903C434.759 232.869 434.501 232.836 434.249 232.808C434.059 232.791 433.863 232.78 433.673 232.763C433.779 232.948 433.885 233.127 433.986 233.312C434.003 233.34 434.014 233.374 434.031 233.402C434.244 233.385 434.451 233.441 434.658 233.474C434.882 233.514 435.106 233.559 435.329 233.609C435.783 233.71 436.236 233.816 436.684 233.945C437.63 234.208 438.559 234.511 439.488 234.814C439.538 234.83 439.505 234.909 439.454 234.892C438.531 234.578 437.585 234.326 436.634 234.108C436.186 234.007 435.744 233.906 435.296 233.811C435.072 233.766 434.848 233.715 434.624 233.665C434.451 233.626 434.272 233.609 434.104 233.547C434.585 234.433 435.033 235.335 435.453 236.253C436.354 238.259 437.12 240.321 437.893 242.372C437.915 242.422 437.831 242.456 437.814 242.405C437.087 240.349 436.175 238.377 435.217 236.421C435.044 236.069 434.865 235.716 434.686 235.357C434.669 235.43 434.652 235.503 434.641 235.575C434.596 235.816 434.551 236.063 434.512 236.304C434.428 236.791 434.35 237.279 434.277 237.766C434.132 238.752 433.891 239.794 433.925 240.797C433.925 240.859 433.829 240.859 433.841 240.797C433.919 240.315 433.919 239.811 433.947 239.318C433.981 238.808 434.014 238.298 434.076 237.789C434.132 237.296 434.193 236.808 434.277 236.321C434.316 236.08 434.361 235.833 434.406 235.592C434.44 235.413 434.445 235.217 434.54 235.066C434.283 234.55 434.031 234.04 433.773 233.525C433.533 233.043 433.287 232.567 433.035 232.091C432.928 231.889 432.816 231.687 432.704 231.48C432.643 231.732 432.514 231.979 432.413 232.214C432.301 232.488 432.189 232.763 432.078 233.037C431.826 233.648 431.596 234.259 431.361 234.875C431.031 235.749 430.667 236.64 430.398 237.553C430.678 236.69 430.902 235.783 431.199 234.903Z" fill="#263238"/>
<path d="M430.344 237.794C430.361 237.721 430.389 237.654 430.405 237.581C430.383 237.649 430.366 237.721 430.344 237.794Z" fill="#263238"/>
<path d="M411.57 244.249L411.878 250.748L412.667 267.488H429.929L430.718 250.748L431.026 244.249H411.57Z" fill="#E31E23"/>
<path d="M411.57 244.249L411.878 250.748H430.718L431.026 244.249H411.57Z" fill="#263238"/>
<path d="M432.25 241.621H410.344V246.876H432.25V241.621Z" fill="#E31E23"/>
<path d="M428.528 267.494H425.5V270.245H428.528V267.494Z" fill="#37474F"/>
<path d="M428.528 267.494H425.5V268.867H428.528V267.494Z" fill="#263238"/>
<path d="M417.091 267.494H414.062V270.245H417.091V267.494Z" fill="#37474F"/>
<path d="M417.091 267.494H414.062V268.867H417.091V267.494Z" fill="#263238"/>
<path d="M110.577 319.436L191.504 319.784C211.172 304.32 213.204 281.417 199.172 267.533C190.681 259.135 179.896 260.832 169.625 259.493C169.614 259.493 169.603 259.488 169.597 259.488C166.021 259.023 162.512 258.188 159.181 256.429C148.609 250.843 142.648 237.671 133.754 226.595C132.646 225.205 131.487 223.855 130.273 222.555C122.957 214.739 108.4 214.482 100.782 225.474C81.4276 253.398 90.2877 294.969 110.577 319.436Z" fill="#E527BB"/>
<path d="M108.781 255.527C110.902 288.762 149.242 301.166 173.191 291.21C194.012 282.554 187.201 262.793 169.626 259.488C169.615 259.488 169.604 259.482 169.598 259.482C166.022 259.017 162.512 258.182 159.182 256.423C148.609 250.837 142.648 237.665 133.755 226.589C120.496 219.703 107.225 231.194 108.781 255.527Z" fill="#C11AA1"/>
<path d="M173.107 324.63C171.91 324.21 144.669 303.048 144.143 301.58C143.941 301.026 146.785 296.874 150.372 291.961C151.145 290.896 151.951 289.809 152.773 288.7C158.113 281.523 163.951 274.032 163.951 274.032L182.214 288.134L170.533 302.41L167.969 305.547C167.969 305.547 174.775 318.321 175.184 319.985C175.593 321.655 174.305 325.05 173.107 324.63Z" fill="#774442"/>
<path d="M155.645 284.868C154.699 286.123 153.731 287.423 152.773 288.7C151.945 289.804 151.139 290.896 150.367 291.955C146.785 296.874 143.941 301.026 144.143 301.58C144.675 303.043 171.904 324.21 173.107 324.63C174.305 325.05 175.587 321.655 175.184 319.991C174.775 318.327 167.964 305.553 167.964 305.553L170.527 302.415L173.135 299.227L155.645 284.868Z" fill="#FFC2A9"/>
<path d="M173.236 324.887C172.016 324.456 144.417 302.802 143.885 301.312C143.639 300.622 147.993 294.555 152.723 288.252L170.723 302.286L168.103 305.463C168.103 305.463 174.965 318.484 175.374 320.181C175.777 321.873 174.456 325.319 173.236 324.887Z" fill="#A78BEF"/>
<path d="M173.704 323.47C169.165 319.727 150.51 305.06 145.736 301.704C145.697 301.676 145.68 301.704 145.713 301.732C150.129 305.542 168.907 320.058 173.642 323.549C173.743 323.621 173.799 323.549 173.704 323.47Z" fill="#263238"/>
<path d="M169.56 304.942C168.004 303.172 165.558 301.709 163.152 301.917C163.057 301.922 163.073 302.057 163.146 302.085C165.385 302.925 167.35 303.878 169.376 305.172C169.516 305.256 169.672 305.071 169.56 304.942Z" fill="#263238"/>
<path d="M170.248 306.768C168.692 304.998 166.246 303.536 163.839 303.743C163.744 303.749 163.761 303.883 163.834 303.911C166.072 304.752 168.037 305.704 170.063 306.998C170.203 307.082 170.36 306.892 170.248 306.768Z" fill="#263238"/>
<path d="M170.943 308.59C169.387 306.819 166.941 305.357 164.535 305.564C164.439 305.57 164.456 305.704 164.529 305.732C166.768 306.573 168.732 307.525 170.758 308.819C170.898 308.909 171.055 308.718 170.943 308.59Z" fill="#263238"/>
<path d="M171.638 310.416C170.083 308.645 167.637 307.183 165.23 307.39C165.135 307.396 165.152 307.531 165.224 307.559C167.463 308.399 169.428 309.351 171.454 310.646C171.594 310.73 171.75 310.539 171.638 310.416Z" fill="#263238"/>
<path d="M176.22 303.368C176.276 301.821 174.597 301.216 173.338 301.261C171.295 301.328 168.95 302.101 167.265 303.239C167.226 303.267 167.231 303.312 167.259 303.34C167.159 303.485 167.164 303.726 167.366 303.794C169.308 304.415 171.3 305.323 173.377 305.329C174.586 305.329 176.17 304.83 176.22 303.368ZM170.5 304.13C169.537 303.844 168.597 303.519 167.623 303.272C168.81 302.891 169.974 302.46 171.194 302.197C171.776 302.073 172.381 301.956 172.974 301.911C173.903 301.844 176.87 302.477 174.983 304.225C173.948 305.183 171.642 304.466 170.5 304.13Z" fill="#263238"/>
<path d="M163.009 299.132C164.01 300.947 165.757 302.27 167.234 303.676C167.385 303.822 167.604 303.715 167.682 303.553C167.721 303.564 167.76 303.547 167.766 303.497C167.951 301.468 167.509 299.043 166.591 297.216C166.025 296.09 164.693 294.902 163.361 295.692C162.102 296.437 162.421 298.068 163.009 299.132ZM163.204 297.182C163.831 294.689 165.807 296.992 166.193 297.838C166.44 298.381 166.624 298.97 166.798 299.541C167.156 300.74 167.335 301.973 167.565 303.194C166.882 302.46 166.143 301.788 165.438 301.076C164.587 300.236 162.857 298.561 163.204 297.182Z" fill="#263238"/>
<path d="M201.056 260.098C199.802 269.601 176.412 297.026 173.709 300.174C173.312 300.639 173.093 300.891 173.093 300.891L153.745 286.005L153.968 285.719L171.006 263.387C171.006 263.387 142.83 279.848 128.731 272.374C122.401 269.018 117.711 263.057 117.711 263.057L136.108 253.235C136.108 253.235 141.202 254.882 144.453 254.406C155.67 252.765 180.8 243.212 186.767 243.453C194.457 243.772 202.203 251.381 201.056 260.098Z" fill="#455A64"/>
<path d="M177.12 255.084C176.459 255.756 175.933 256.591 175.362 257.336C174.758 258.126 174.148 258.911 173.549 259.701C173.543 259.706 173.538 259.717 173.532 259.723C173.638 259.493 173.745 259.258 173.851 259.028C174.232 258.244 174.534 257.426 174.982 256.675C175.01 256.63 174.937 256.586 174.909 256.63C174.45 257.375 173.913 258.087 173.515 258.871C173.331 259.241 173.151 259.617 172.989 259.998C172.9 260.205 172.81 260.412 172.726 260.625C172.687 260.72 172.642 260.827 172.614 260.928C172.346 261.292 172.077 261.662 171.819 262.037C171.249 262.866 170.739 263.746 170.157 264.575C170.124 264.62 170.196 264.659 170.23 264.62C170.818 263.841 171.478 263.118 172.077 262.351C172.687 261.566 173.263 260.76 173.829 259.947C174.383 259.157 174.931 258.356 175.485 257.56C176.045 256.765 176.706 255.975 177.159 255.112C177.187 255.095 177.148 255.056 177.12 255.084Z" fill="#263238"/>
<path d="M175.074 296.292C174.011 295.306 172.869 294.392 171.75 293.474C170.625 292.549 169.494 291.636 168.358 290.728C166.085 288.907 163.824 287.07 161.529 285.283C160.264 284.296 159 283.327 157.684 282.414C157.628 282.375 157.561 282.464 157.612 282.515C159.761 284.476 162.061 286.263 164.328 288.078C166.6 289.899 168.884 291.714 171.184 293.496C172.444 294.471 173.697 295.479 175.013 296.376C175.063 296.421 175.125 296.337 175.074 296.292Z" fill="#263238"/>
<path d="M111.077 219.888C110.545 220.264 110.271 220.936 110.427 221.608C110.623 222.46 111.446 222.998 112.291 222.869C112.252 223.093 112.258 223.334 112.314 223.569C112.526 224.494 113.411 225.093 114.334 224.964C114.306 225.155 114.312 225.351 114.356 225.552C114.564 226.443 115.453 227.004 116.349 226.796C116.73 226.707 117.049 226.494 117.273 226.208C117.536 227.026 118.375 227.508 119.226 227.312C119.461 227.256 119.679 227.149 119.853 227.009C119.858 227.06 119.87 227.11 119.881 227.155C120.088 228.046 120.972 228.6 121.868 228.393C122.405 228.27 122.825 227.894 123.026 227.418C123.34 228.119 124.118 228.511 124.89 228.331C125.5 228.191 125.948 227.732 126.11 227.177C126.468 227.345 126.888 227.401 127.314 227.306C127.812 227.188 128.215 226.88 128.455 226.477C128.853 226.723 129.334 226.824 129.827 226.707C130.633 226.522 131.192 225.821 131.231 225.031C131.439 225.065 131.657 225.059 131.881 225.009C132.698 224.819 133.241 224.051 133.157 223.239C133.409 223.295 133.683 223.3 133.957 223.239C134.942 223.009 135.552 222.034 135.328 221.054C135.284 220.852 135.2 220.661 135.099 220.504C135.194 220.51 135.289 220.493 135.384 220.471C136.274 220.264 136.834 219.378 136.627 218.482C136.554 218.174 136.403 217.905 136.19 217.692C137.075 217.401 137.606 216.482 137.394 215.557C137.315 215.21 137.142 214.913 136.907 214.683C137.523 214.274 137.858 213.512 137.679 212.745C137.545 212.179 137.159 211.731 136.666 211.507C136.924 211.137 137.024 210.661 136.918 210.196C136.806 209.714 136.504 209.333 136.101 209.12C136.453 208.7 136.61 208.123 136.476 207.546C136.291 206.75 135.614 206.195 134.842 206.139C134.909 205.887 134.92 205.618 134.853 205.344C134.662 204.526 133.896 203.988 133.084 204.066C133.146 203.82 133.146 203.545 133.084 203.282C132.855 202.296 131.875 201.691 130.901 201.915C130.761 201.948 130.621 201.999 130.504 202.061C130.498 201.96 130.481 201.87 130.459 201.769C130.235 200.789 129.25 200.178 128.276 200.402C128.125 200.436 127.98 200.486 127.851 200.565C127.868 200.397 127.851 200.223 127.812 200.049C127.582 199.063 126.603 198.452 125.618 198.682C125.114 198.8 124.705 199.114 124.459 199.539C124.034 199.091 123.384 198.873 122.741 199.024C122.259 199.136 121.873 199.422 121.627 199.803C121.286 199.158 120.547 198.8 119.802 198.973C119.22 199.108 118.784 199.528 118.605 200.06C118.224 199.775 117.726 199.651 117.228 199.769C116.517 199.932 116.03 200.531 115.957 201.22C115.554 200.929 115.034 200.817 114.513 200.94C113.651 201.142 113.075 201.915 113.097 202.761C112.901 202.733 112.7 202.738 112.493 202.783C111.603 202.991 111.049 203.881 111.256 204.772C111.301 204.974 111.379 205.159 111.491 205.316C111.452 205.316 111.418 205.327 111.384 205.332C110.399 205.562 109.789 206.543 110.019 207.529C110.058 207.702 110.125 207.876 110.215 208.022C110.069 208.011 109.918 208.027 109.773 208.061C108.883 208.268 108.328 209.154 108.536 210.044C108.636 210.487 108.916 210.857 109.28 211.081C108.843 211.467 108.631 212.078 108.771 212.689C108.871 213.131 109.14 213.484 109.493 213.714C108.815 214.101 108.44 214.902 108.625 215.703C108.804 216.471 109.448 217.02 110.192 217.098C109.795 217.485 109.605 218.062 109.739 218.639C109.89 219.294 110.439 219.776 111.077 219.888Z" fill="#263238"/>
<path d="M126.335 234.113C129.777 239.066 141.587 251.907 149.753 253.773C154.253 254.798 175.997 257.846 178.975 255.129C182.467 251.952 180.844 239.968 178.074 239.856C169.606 239.52 153.934 241.184 150.016 240.315C148.247 239.923 138.861 233.861 128.837 229.015C125.048 227.188 124.113 230.92 126.335 234.113Z" fill="#774442"/>
<path d="M173.465 239.201L172.01 257.14C172.01 257.14 152.28 256.827 146.325 253.476C140.375 250.126 130.681 241.576 126.97 235.632C123.26 229.693 124.502 226.449 131.745 230.102C138.987 233.755 148.76 239.621 150.041 239.929C151.318 240.243 173.465 239.201 173.465 239.201Z" fill="#A78BEF"/>
<path d="M169.532 240.45C169.532 240.405 169.459 240.383 169.448 240.439C169.201 241.671 169.101 242.938 168.961 244.181C168.815 245.47 168.692 246.764 168.574 248.058C168.345 250.636 168.071 253.23 167.992 255.818C167.987 255.93 168.138 255.93 168.155 255.824C168.541 253.286 168.748 250.703 168.989 248.142C169.106 246.876 169.224 245.604 169.313 244.333C169.408 243.044 169.548 241.739 169.532 240.45Z" fill="#263238"/>
<path d="M142.778 236.08C140.858 239.8 138.536 243.33 136.504 246.153C136.437 246.086 136.364 246.024 136.297 245.968C138.317 243.15 140.629 239.637 142.532 235.94C142.616 235.985 142.7 236.029 142.778 236.08Z" fill="white"/>
<path d="M145.127 237.391C143.185 241.285 140.761 245.01 138.635 247.98C138.562 247.924 138.489 247.862 138.422 247.801C140.538 244.837 142.955 241.128 144.886 237.256C144.97 237.301 145.049 237.346 145.127 237.391Z" fill="white"/>
<path opacity="0.1" d="M154.536 255.751C151.161 255.219 148.122 254.485 146.331 253.476C140.375 250.12 130.681 241.576 126.971 235.632C124.139 231.093 124.189 228.13 127.603 228.611L154.536 255.751Z" fill="#020100"/>
<path d="M108.875 267.348C109.955 267.696 140.716 258.787 140.716 258.787L137.084 248.098C137.084 248.098 138.875 244.663 138.047 241.352C136.933 236.931 128.767 229.67 128.123 229.245C125.543 227.536 123.131 227.564 120.993 228.701C112.099 233.43 108.875 267.348 108.875 267.348Z" fill="#A78BEF"/>
<path d="M136.511 238.231C128.552 242.131 117.565 243.621 112.953 244.092C112.976 243.996 113.003 243.901 113.031 243.806C117.677 243.318 128.49 241.839 136.349 237.996C136.405 238.074 136.461 238.153 136.511 238.231Z" fill="white"/>
<path d="M137.732 240.427C129.281 245.044 116.503 246.596 112.227 247.005C112.243 246.91 112.266 246.809 112.294 246.714C116.643 246.293 129.269 244.736 137.615 240.17C137.659 240.259 137.699 240.343 137.732 240.427Z" fill="white"/>
<path d="M132.342 233.094C133.137 234.018 133.982 234.892 134.805 235.8C134.424 235.127 134.044 234.449 133.635 233.794C133.629 233.783 133.646 233.766 133.657 233.777C134.251 234.567 134.788 235.379 135.219 236.265C135.823 236.954 136.405 237.665 136.915 238.433C137.53 239.352 138.04 240.338 138.314 241.414C138.583 242.489 138.583 243.621 138.409 244.713C138.202 245.98 137.799 247.195 137.368 248.394C137.312 248.551 137.088 248.456 137.127 248.299C137.704 246.209 138.359 244.008 137.894 241.828C137.435 239.677 136.086 237.85 134.782 236.141C133.993 235.111 133.193 234.074 132.28 233.155C132.236 233.11 132.303 233.054 132.342 233.094Z" fill="#263238"/>
<path d="M116.976 236.147C114.502 250.193 116.512 260.793 118.896 262.093C125.31 265.6 137.691 259.415 142.034 257.997C143.792 257.426 142.101 242.831 140.165 243.223C135.396 244.193 126.877 249.151 126.637 249.128C126.161 249.078 125.607 245.498 123.155 235.049C121.168 226.6 117.989 230.404 116.976 236.147Z" fill="#774442"/>
<path d="M138.344 243.722C138.344 243.722 147.361 239.946 154.659 240.282C157.133 240.394 167.168 243.559 166.508 246.013C165.909 248.238 157.592 244.607 157.592 244.607C157.592 244.607 166.306 247.526 165.097 250.07C163.883 252.613 155.034 247.263 155.034 247.263C155.034 247.263 163.922 250.462 162.254 252.888C160.995 254.72 152.706 250.327 152.706 250.327C152.706 250.327 160.323 253.134 159.114 255.073C157.777 257.219 149.868 253.644 149.868 253.644C145.956 258.059 142.29 258.558 139.642 258.603C138.993 258.608 138.344 243.722 138.344 243.722Z" fill="#FFC2A9"/>
<path d="M154.637 243.403C155.672 243.711 156.724 244.013 157.726 244.411C158.734 244.809 159.724 245.24 160.687 245.728C163.055 246.927 164.348 248.047 164.258 247.986C162.193 246.557 158.611 245.078 157.609 244.68C156.607 244.282 155.622 243.84 154.62 243.442C154.598 243.431 154.614 243.397 154.637 243.403Z" fill="#263238"/>
<path d="M153.148 247.011C154.453 247.459 155.768 247.857 157.055 248.361C158.337 248.865 159.507 249.454 160.749 250.042C160.844 250.087 160.788 250.126 160.693 250.081C159.428 249.543 158.219 249.14 156.943 248.613C155.678 248.092 154.419 247.515 153.137 247.039C153.115 247.033 153.126 247.005 153.148 247.011Z" fill="#263238"/>
<path d="M151.298 249.879C153.33 250.462 155.25 251.42 157.114 252.401C157.209 252.451 157.13 252.49 157.03 252.445C155.11 251.571 153.615 250.871 151.276 249.952C151.242 249.935 151.259 249.863 151.298 249.879Z" fill="#263238"/>
<path d="M136.574 243.772L143.951 259.561C143.951 259.561 121.059 266.245 117.958 262.222C114.852 258.199 115.07 245.548 116.525 236.797C117.98 228.046 121.915 227.878 123.639 235.789C125.363 243.699 126.376 248.697 126.684 248.652C126.992 248.613 136.574 243.772 136.574 243.772Z" fill="#A78BEF"/>
<path d="M125.575 244.714C122.435 246.848 118.853 248.675 115.5 250.148V249.846C118.836 248.372 122.401 246.551 125.507 244.428C125.535 244.523 125.552 244.618 125.575 244.714Z" fill="white"/>
<path d="M126.222 247.442C122.92 249.7 119.114 251.611 115.611 253.129C115.605 253.028 115.599 252.927 115.594 252.826C119.086 251.314 122.87 249.403 126.144 247.156C126.172 247.257 126.2 247.353 126.222 247.442Z" fill="white"/>
<path d="M133.581 245.896C133.558 245.856 133.486 245.873 133.502 245.924C133.911 247.111 134.465 248.254 134.975 249.403C135.501 250.591 136.044 251.767 136.598 252.944C137.7 255.286 138.775 257.661 140.012 259.936C140.068 260.037 140.191 259.958 140.152 259.858C139.206 257.471 138.081 255.134 136.995 252.809C136.458 251.655 135.915 250.501 135.355 249.358C134.784 248.193 134.247 247.005 133.581 245.896Z" fill="#263238"/>
<path d="M131.853 262.468C131.226 262.452 130.554 262.681 129.939 262.788C129.278 262.905 128.612 263.012 127.952 263.096C126.665 263.264 125.366 263.393 124.068 263.432C122.786 263.466 119.623 263.275 118.65 262.39C117.799 261.617 117.2 260.395 116.993 259.538C116.64 258.059 116.394 256.546 116.209 255.039C115.806 251.84 115.778 248.619 115.907 245.397C115.941 244.501 115.997 243.61 116.064 242.713C116.131 241.806 116.237 240.893 116.265 239.979C116.265 239.946 116.209 239.94 116.204 239.974C115.873 241.414 115.728 242.915 115.599 244.389C115.543 243.464 115.431 242.545 115.42 241.621C115.42 241.565 115.336 241.571 115.336 241.621C115.353 242.596 115.286 243.565 115.325 244.54C115.347 245.089 115.403 245.632 115.459 246.176C115.381 247.414 115.347 248.652 115.359 249.89C115.392 253.118 115.633 256.462 116.495 259.583C116.875 260.956 117.452 262.272 118.711 263.012C119.439 263.438 120.748 263.729 121.722 263.802C123.928 263.97 126.144 263.791 128.316 263.382C128.926 263.27 129.53 263.141 130.135 263.001C130.7 262.872 131.355 262.793 131.87 262.524C131.898 262.508 131.881 262.468 131.853 262.468Z" fill="#263238"/>
<path d="M136.539 243.475C134.855 244.316 133.164 245.167 131.485 246.025C130.657 246.45 129.828 246.871 129 247.296C128.205 247.705 126.688 248.529 126.688 248.529C126.672 248.148 126.381 247.044 126.218 246.338C126.045 245.565 125.866 244.786 125.664 244.019C125.614 243.817 125.558 243.621 125.502 243.419C125.463 243.05 125.435 242.68 125.401 242.31C125.345 241.716 125.295 241.105 125.205 240.512C125.2 240.489 125.172 240.489 125.172 240.512C125.11 241.077 125.127 241.649 125.183 242.22C124.925 241.29 124.662 240.36 124.382 239.436C124.371 239.402 124.327 239.419 124.338 239.453C124.64 241.016 124.959 242.579 125.317 244.131C125.491 244.882 125.681 245.632 125.877 246.377C126.067 247.1 126.476 248.792 126.543 248.77C127.41 248.473 128.239 248.047 129.067 247.655C129.929 247.246 130.785 246.826 131.636 246.4C133.293 245.571 134.961 244.725 136.556 243.789C136.55 243.8 136.802 244.31 136.819 244.333C136.864 244.4 136.914 244.282 136.897 244.209C136.869 244.075 136.578 243.459 136.539 243.475Z" fill="#263238"/>
<path d="M170.371 255.056H137.734V256.518H170.371V255.056Z" fill="#C7C7C7"/>
<path d="M144.715 255.056L143.602 256.524H170.372V255.056H144.715Z" fill="#A6A6A6"/>
<path d="M146.109 256.524H177.912L180.565 234.898H148.757L146.109 256.524Z" fill="#A78BEF"/>
<path d="M161.399 245.711C161.382 246.781 162.233 247.649 163.302 247.649C164.371 247.649 165.255 246.781 165.272 245.711C165.289 244.641 164.438 243.772 163.369 243.772C162.3 243.772 161.415 244.641 161.399 245.711Z" fill="white"/>
<path d="M180.302 236.988C181.5 238.842 184.461 241.005 184.87 242.596C185.239 244.03 184.097 244.702 184.097 244.702C184.097 244.702 185.815 245.291 185.944 246.798C186.011 247.571 184.836 248.361 184.836 248.361C184.836 248.361 186.19 248.893 186.224 250.238C186.252 251.308 185.071 251.935 185.071 251.935C185.071 251.935 186.135 253.05 185.81 254.154C185.161 256.384 176.054 257.589 174.202 254.417C173.34 252.938 175.579 252.765 175.579 252.765C175.579 252.765 172.299 252.232 172.002 250.361C171.705 248.49 174.633 248.439 174.633 248.439C174.633 248.439 171.459 247.902 171.347 245.924C171.23 243.868 174.162 244.321 174.162 244.321C174.162 244.321 171.957 243.218 172.215 241.688C172.646 239.161 177.834 241.845 179.776 241.106L180.302 236.988Z" fill="#FFC2A9"/>
<path d="M184.893 252.065C184.921 252.059 184.938 252.098 184.91 252.109C182.01 253.235 178.484 253.583 175.456 252.793C175.356 252.765 175.356 252.591 175.473 252.602C178.747 252.821 181.669 252.754 184.893 252.065Z" fill="#263238"/>
<path d="M184.88 248.372C184.914 248.367 184.931 248.423 184.891 248.434C181.897 249.577 177.912 249.863 174.531 248.535C174.414 248.49 174.358 248.333 174.492 248.372C176.815 249.089 181.981 249.011 184.88 248.372Z" fill="#263238"/>
<path d="M173.942 244.153C177.233 245.302 180.557 245.274 183.971 244.759C184.016 244.753 184.022 244.815 183.983 244.831C182.382 245.537 180.171 245.644 178.447 245.577C176.796 245.515 175.313 245.123 173.902 244.271C173.852 244.237 173.874 244.131 173.942 244.153Z" fill="#263238"/>
<path d="M119.516 229.799C119.516 229.799 124.962 234.416 128.42 233.57C131.879 232.724 129.758 229.217 129.758 229.217C129.758 229.217 126.601 227.289 123.226 227.732C120.82 228.04 119.516 229.799 119.516 229.799Z" fill="#FFC2A9"/>
<path d="M122.314 228.97C122.437 229.53 125.04 233.178 127.581 233.099C128.409 233.071 128.454 228.539 128.454 228.539L128.532 228.202L129.646 223.53L123.406 219.44C123.411 219.44 122.264 228.735 122.314 228.97Z" fill="#FFC2A9"/>
<path d="M129.653 223.53L128.539 228.202C127.212 227.681 124.363 226.174 123.031 222.617C123.222 221.003 123.389 219.664 123.406 219.468C123.412 219.451 123.412 219.44 123.412 219.44L124.201 219.916L129.653 223.53Z" fill="#263238"/>
<path d="M136.345 216.751C136.519 225.183 131.493 226.236 129.679 226.275C128.034 226.309 122.414 226.208 121.368 217.843C120.327 209.479 124.183 206.733 127.95 206.459C131.717 206.179 136.172 208.319 136.345 216.751Z" fill="#FFC2A9"/>
<path d="M135.046 215.406C134.85 215.372 134.677 215.311 134.481 215.26C134.268 215.199 134.089 215.176 133.938 215.003C133.854 214.907 133.871 214.728 133.955 214.638C134.151 214.431 134.431 214.442 134.694 214.498C134.979 214.566 135.181 214.689 135.36 214.919C135.533 215.137 135.304 215.445 135.046 215.406Z" fill="#FFC2A9"/>
<path d="M129.313 215.832C129.515 215.821 129.694 215.77 129.89 215.742C130.108 215.703 130.287 215.697 130.455 215.535C130.545 215.451 130.55 215.266 130.472 215.171C130.299 214.947 130.013 214.924 129.75 214.963C129.459 215.003 129.246 215.103 129.045 215.316C128.854 215.512 129.05 215.849 129.313 215.832Z" fill="#FFC2A9"/>
<path d="M130.438 217.148C130.432 217.126 130.393 217.176 130.393 217.199C130.399 217.77 130.304 218.431 129.778 218.611C129.761 218.616 129.761 218.644 129.783 218.644C130.416 218.572 130.533 217.692 130.438 217.148Z" fill="#FFC2A9"/>
<path d="M129.943 216.538C129.025 216.442 128.902 218.291 129.753 218.381C130.598 218.465 130.716 216.616 129.943 216.538Z" fill="#FFC2A9"/>
<path d="M129.574 216.611C129.406 216.706 129.238 216.88 129.043 216.885C128.819 216.891 128.656 216.689 128.522 216.493C128.505 216.471 128.488 216.487 128.488 216.51C128.46 216.863 128.572 217.238 128.947 217.311C129.289 217.384 129.557 217.087 129.669 216.734C129.692 216.678 129.641 216.571 129.574 216.611Z" fill="#FFC2A9"/>
<path d="M133.768 217.176C133.774 217.154 133.813 217.204 133.807 217.233C133.746 217.804 133.774 218.465 134.277 218.695C134.294 218.7 134.289 218.728 134.272 218.728C133.651 218.588 133.623 217.709 133.768 217.176Z" fill="#FFC2A9"/>
<path d="M134.321 216.616C135.244 216.611 135.183 218.465 134.326 218.471C133.487 218.471 133.548 216.616 134.321 216.616Z" fill="#FFC2A9"/>
<path d="M134.712 216.751C134.857 216.852 134.992 217.036 135.165 217.053C135.367 217.076 135.523 216.88 135.658 216.689C135.669 216.667 135.686 216.683 135.686 216.712C135.686 217.064 135.551 217.429 135.21 217.49C134.896 217.541 134.678 217.233 134.611 216.874C134.6 216.807 134.65 216.706 134.712 216.751Z" fill="#FFC2A9"/>
<path d="M130.037 222.219C130.154 222.37 130.266 222.572 130.467 222.617C130.663 222.661 130.91 222.605 131.1 222.561C131.117 222.555 131.134 222.577 131.122 222.594C130.943 222.79 130.613 222.885 130.361 222.801C130.109 222.723 130.014 222.482 129.986 222.236C129.975 222.202 130.02 222.196 130.037 222.219Z" fill="#FFC2A9"/>
<path d="M132.65 220.168C132.65 220.168 132.7 221.031 132.667 221.434C132.661 221.474 132.566 221.479 132.426 221.479C132.421 221.479 132.415 221.485 132.409 221.479C131.687 221.535 130.993 221.227 130.607 220.611C130.585 220.572 130.635 220.532 130.669 220.56C131.167 220.992 131.749 221.143 132.376 221.205C132.415 221.093 132.241 219.726 132.309 219.726C132.532 219.726 132.952 219.911 133.204 220.006C133.154 218.202 132.818 216.42 132.796 214.627C132.796 214.566 132.891 214.549 132.902 214.61C133.389 216.454 133.49 218.527 133.585 220.387C133.613 220.622 132.807 220.247 132.65 220.168Z" fill="#FFC2A9"/>
<path d="M132.422 221.317C132.422 221.317 132.036 221.86 131.493 222.062C131.292 222.14 131.079 222.168 130.85 222.112C130.385 222 130.363 221.569 130.441 221.205C130.503 220.902 130.642 220.645 130.642 220.645C130.642 220.645 131.336 221.266 132.422 221.317Z" fill="#FFC2A9"/>
<path d="M131.493 222.062C131.292 222.14 131.079 222.168 130.85 222.112C130.385 222 130.363 221.569 130.441 221.205C130.945 221.25 131.443 221.58 131.493 222.062Z" fill="#FFC2A9"/>
<path d="M122.027 217.479C122.917 217.423 125.234 214.958 125.29 210.644C125.29 210.644 124.971 214.515 124.685 215.081C124.394 215.647 125.978 213.692 126.073 210.218C126.073 210.218 128.004 211.602 129.644 212.056C131.284 212.509 132.292 212.493 132.409 212.369C132.527 212.246 130.109 211.495 129.454 210.745C129.454 210.745 133.825 212.762 135.84 212.907C136.075 212.924 136.008 208.784 132.89 206.761C129.773 204.739 125.178 206.302 123.857 207.59C123.857 207.59 122.922 208.016 121.237 210.324C119.547 212.627 121.064 217.535 122.027 217.479Z" fill="#263238"/>
<path d="M121.852 219.49C122.278 220.661 118.959 215.35 118.886 214.482C118.813 213.613 120.005 209.198 123.414 206.997C126.274 205.153 130.108 205.792 130.78 205.915C132.045 206.139 132.873 206.761 132.873 206.761C132.873 206.761 127.841 205.91 123.839 207.59C121.914 208.397 120.252 215.098 121.852 219.49Z" fill="#E527BB"/>
<path d="M121.828 206.784C121.828 206.784 122.489 204.117 124.671 203.136C124.671 203.136 125.298 205.411 124.739 206.403C124.459 206.896 122.74 207.618 122.438 207.389C122.136 207.159 121.828 206.784 121.828 206.784Z" fill="#E527BB"/>
<path opacity="0.1" d="M121.828 206.784C121.828 206.784 122.136 207.159 122.433 207.383C122.444 207.394 122.461 207.4 122.477 207.405C122.494 207.417 122.511 207.417 122.539 207.422C122.556 207.422 122.567 207.428 122.589 207.428C122.819 207.439 123.199 207.333 123.586 207.165C123.44 206.879 123.233 206.515 123.031 206.268C122.858 206.055 122.5 205.938 122.158 205.865C121.923 206.403 121.828 206.784 121.828 206.784Z" fill="#050400"/>
<path d="M121.374 207.265C121.374 207.265 118.072 207.786 116.773 208.952C116.773 208.952 118.122 210.33 119.829 210.235C120.596 210.19 122.253 208.246 122.023 207.91C121.788 207.574 121.374 207.265 121.374 207.265Z" fill="#E527BB"/>
<path opacity="0.1" d="M120.633 207.405C120.666 207.714 120.773 208.145 121.019 208.431C121.159 208.593 121.372 208.716 121.595 208.817C121.915 208.408 122.105 208.039 122.021 207.91C121.791 207.579 121.372 207.265 121.372 207.265C121.372 207.265 121.081 207.31 120.633 207.405Z" fill="#050400"/>
<path d="M121.272 208.083C121.698 208.509 122.386 208.509 122.811 208.078C123.237 207.652 123.231 206.963 122.811 206.537C122.386 206.111 121.698 206.111 121.272 206.543C120.847 206.974 120.847 207.663 121.272 208.083Z" fill="#E527BB"/>
<path d="M122.72 218.454C122.72 218.454 121.057 215.709 119.826 216.28C118.595 216.857 119.72 220.757 121.085 221.367C122.451 221.978 123.039 220.729 123.039 220.729L122.72 218.454Z" fill="#FFC2A9"/>
<path d="M120.169 217.395C120.147 217.39 120.141 217.423 120.158 217.434C121.11 217.899 121.569 218.841 121.865 219.804C121.597 219.423 121.216 219.199 120.707 219.513C120.679 219.53 120.701 219.569 120.729 219.569C121.138 219.507 121.423 219.597 121.669 219.939C121.848 220.18 121.96 220.477 122.078 220.751C122.117 220.841 122.279 220.807 122.251 220.701C122.251 220.695 122.246 220.684 122.246 220.678C122.358 219.423 121.501 217.608 120.169 217.395Z" fill="#263238"/>
<path d="M243.247 300.146C242.805 301.34 221.195 328.232 219.723 328.737C219.168 328.933 215.071 326.008 210.219 322.338C209.172 321.543 208.092 320.719 207.006 319.879C199.932 314.405 192.555 308.438 192.555 308.438L206.961 290.409L221.021 302.348L224.111 304.965C224.111 304.965 236.984 298.37 238.657 297.995C240.32 297.614 243.689 298.953 243.247 300.146Z" fill="#774442"/>
<path d="M203.227 316.932C204.464 317.901 205.745 318.893 207.005 319.873C208.096 320.719 209.165 321.543 210.212 322.339C215.064 326.008 219.156 328.927 219.715 328.737C221.187 328.233 242.797 301.345 243.24 300.146C243.682 298.959 240.312 297.614 238.644 297.984C236.977 298.365 224.098 304.959 224.098 304.959L221.008 302.337L217.868 299.67L203.227 316.932Z" fill="#FFC2A9"/>
<path d="M243.506 300.023C243.053 301.233 220.945 328.484 219.445 328.994C218.751 329.23 212.767 324.764 206.555 319.924L220.883 302.152L224.012 304.83C224.012 304.83 237.137 298.185 238.844 297.81C240.545 297.435 243.965 298.813 243.506 300.023Z" fill="#A78BEF"/>
<path d="M242.103 299.53C238.286 304.007 223.309 322.422 219.872 327.14C219.844 327.179 219.866 327.202 219.9 327.162C223.779 322.809 238.611 304.27 242.176 299.586C242.255 299.491 242.187 299.435 242.103 299.53Z" fill="#263238"/>
<path d="M223.53 303.357C221.739 304.881 220.228 307.306 220.396 309.716C220.401 309.811 220.536 309.8 220.563 309.727C221.442 307.497 222.427 305.553 223.754 303.547C223.843 303.407 223.659 303.25 223.53 303.357Z" fill="#263238"/>
<path d="M225.358 302.695C223.567 304.219 222.056 306.645 222.224 309.06C222.229 309.155 222.364 309.144 222.392 309.071C223.27 306.841 224.255 304.897 225.582 302.891C225.671 302.746 225.487 302.589 225.358 302.695Z" fill="#263238"/>
<path d="M227.194 302.034C225.403 303.558 223.892 305.984 224.06 308.393C224.065 308.489 224.2 308.477 224.228 308.405C225.106 306.175 226.091 304.231 227.418 302.225C227.507 302.085 227.323 301.922 227.194 302.034Z" fill="#263238"/>
<path d="M229.03 301.373C227.239 302.897 225.728 305.323 225.896 307.732C225.901 307.828 226.036 307.816 226.063 307.744C226.942 305.514 227.927 303.57 229.254 301.564C229.343 301.424 229.153 301.261 229.03 301.373Z" fill="#263238"/>
<path d="M222.062 296.661C220.517 296.577 219.884 298.247 219.907 299.513C219.94 301.558 220.674 303.917 221.776 305.626C221.804 305.671 221.843 305.659 221.877 305.637C222.017 305.743 222.263 305.738 222.33 305.536C222.985 303.603 223.925 301.625 223.97 299.547C223.993 298.337 223.522 296.74 222.062 296.661ZM222.722 302.404C222.42 303.362 222.078 304.298 221.815 305.267C221.457 304.074 221.043 302.903 220.802 301.67C220.69 301.082 220.578 300.477 220.545 299.883C220.495 298.953 221.177 295.995 222.89 297.911C223.836 298.975 223.08 301.261 222.722 302.404Z" fill="#263238"/>
<path d="M217.602 309.811C219.432 308.842 220.786 307.111 222.214 305.659C222.365 305.508 222.258 305.29 222.102 305.211C222.113 305.172 222.096 305.133 222.046 305.127C220.025 304.909 217.59 305.312 215.749 306.197C214.613 306.746 213.404 308.057 214.171 309.402C214.898 310.674 216.533 310.377 217.602 309.811ZM215.66 309.581C213.18 308.909 215.514 306.97 216.37 306.601C216.919 306.365 217.507 306.186 218.083 306.029C219.286 305.693 220.518 305.536 221.749 305.323C221.005 305.996 220.322 306.718 219.6 307.419C218.738 308.248 217.031 309.957 215.66 309.581Z" fill="#263238"/>
<path d="M220.256 299.575L205.088 320.058L153.915 284.515L148.978 281.086C148.978 281.086 147.579 282.027 145.48 283.193C142.558 284.812 138.277 286.857 134.493 287.417C128.14 288.358 117.534 288.257 112.178 281.092C107.667 275.058 110.118 267.18 110.118 267.18L117.092 264.183C117.092 264.183 133.598 250.417 144.293 250.003C148.833 249.823 155.448 253.269 161.571 256.866C167.689 260.452 220.256 299.575 220.256 299.575Z" fill="#455A64"/>
<path d="M148.981 281.08C148.981 281.08 147.582 282.022 145.483 283.187C141.766 278.733 133.891 270.637 133.656 270.351L148.981 281.08Z" fill="#263238"/>
<path d="M123.134 259.566C122.149 260.25 121.192 260.978 120.218 261.684C119.261 262.379 118.27 263.029 117.364 263.785C116.44 264.553 115.561 265.376 114.688 266.205C114.268 266.603 113.849 267.007 113.446 267.421C113.043 267.83 112.589 268.245 112.259 268.71C112.226 268.755 112.293 268.805 112.332 268.777C112.802 268.475 113.227 268.06 113.653 267.701C114.117 267.315 114.571 266.917 115.03 266.525C115.914 265.768 116.821 265.034 117.705 264.278C118.584 263.527 119.401 262.704 120.268 261.942C121.203 261.129 122.183 260.367 123.151 259.594C123.173 259.583 123.157 259.555 123.134 259.566Z" fill="#263238"/>
<path d="M216.694 298.841C215.709 299.905 214.796 301.048 213.878 302.169C212.955 303.295 212.043 304.427 211.136 305.564C209.317 307.839 207.481 310.102 205.696 312.399C204.711 313.665 203.742 314.932 202.83 316.248C202.791 316.31 202.88 316.372 202.931 316.321C204.89 314.17 206.675 311.867 208.489 309.598C210.308 307.323 212.121 305.037 213.901 302.735C214.875 301.474 215.882 300.219 216.778 298.902C216.822 298.852 216.739 298.796 216.694 298.841Z" fill="#263238"/>
<path d="M174.698 299.048C172.151 297.042 169.509 295.143 166.873 293.261C164.248 291.384 161.623 289.507 158.953 287.686C158.187 287.165 157.414 286.655 156.647 286.14C155.875 285.63 155.075 285.154 154.325 284.621C154.28 284.593 154.241 284.666 154.285 284.694C154.979 285.193 155.634 285.747 156.312 286.263C156.961 286.756 157.604 287.255 158.259 287.742C159.535 288.689 160.828 289.619 162.121 290.555C164.735 292.448 167.371 294.314 170.03 296.14C171.541 297.177 173.041 298.219 174.586 299.205C174.675 299.267 174.782 299.121 174.698 299.048Z" fill="#263238"/>
<path d="M191.065 277.915C188.715 275.965 186.19 274.206 183.722 272.402C181.226 270.576 178.746 268.732 176.239 266.923C173.754 265.124 171.269 263.326 168.784 261.527C166.377 259.785 163.976 258.014 161.435 256.468C160.041 255.622 158.614 254.843 157.148 254.137C155.72 253.454 154.243 252.753 152.715 252.328C152.67 252.316 152.642 252.384 152.687 252.406C153.94 253.106 155.256 253.695 156.526 254.373C157.78 255.039 159.017 255.745 160.232 256.485C162.756 258.014 165.14 259.757 167.536 261.482C172.511 265.063 177.476 268.659 182.485 272.189C185.289 274.167 188.032 276.251 190.948 278.066C191.043 278.128 191.149 277.988 191.065 277.915Z" fill="#263238"/>
</g>
</g>
<defs>
<clipPath id="clip0_1632_4464">
<rect width="542.64" height="328.79" fill="white"/>
</clipPath>
<clipPath id="clip1_1632_4464">
<rect width="363" height="226" fill="white" transform="translate(90 103)"/>
</clipPath>
</defs>
</svg>
