<svg width="20" height="15" viewBox="0 0 20 15" fill="none" xmlns="http://www.w3.org/2000/svg">
<path d="M18.5303 0C19.3406 8.21517e-05 19.9999 0.659341 20 1.46973V11.7832C20 12.5937 19.3407 13.2528 18.5303 13.2529H13.6943L14.248 13.8486H15.0781C15.2665 13.8488 15.4189 14.002 15.4189 14.1904C15.4188 14.3787 15.2665 14.5311 15.0781 14.5312H4.92188C4.73351 14.5311 4.58117 14.3787 4.58105 14.1904C4.58105 14.002 4.73344 13.8488 4.92188 13.8486H5.75195L6.30566 13.2529H1.46973C0.659269 13.2529 0 12.5937 0 11.7832V1.46973C8.13465e-05 0.659325 0.659319 5.67812e-05 1.46973 0H18.5303ZM7.2373 13.2529L6.68359 13.8486H13.3164L12.7627 13.2529H7.2373ZM0.741211 12.0791C0.858458 12.3668 1.14041 12.5703 1.46973 12.5703H18.5303C18.8596 12.5703 19.1416 12.3667 19.2588 12.0791H0.741211ZM0.682617 1.85645V11.3965H19.3174V1.85645H0.682617ZM15.5312 4.50781C15.9438 4.09541 16.6149 4.09539 17.0273 4.50781C17.4398 4.92029 17.4397 5.59136 17.0273 6.00391C16.8211 6.21017 16.5502 6.31345 16.2793 6.31348C16.1081 6.31348 15.9371 6.27178 15.7822 6.18945L13.0566 8.33887C13.2306 8.72788 13.1596 9.2007 12.8408 9.51953C12.6346 9.72574 12.3636 9.82907 12.0928 9.8291C11.8218 9.8291 11.551 9.72574 11.3447 9.51953C11.026 9.20081 10.9541 8.72784 11.1279 8.33887L8.40332 6.18945C8.2485 6.27175 8.0774 6.31345 7.90625 6.31348C7.73509 6.31348 7.56404 6.27178 7.40918 6.18945L4.68359 8.33887C4.85758 8.72789 4.78655 9.20069 4.46777 9.51953C4.26152 9.72579 3.99064 9.82907 3.71973 9.8291C3.44886 9.8291 3.17796 9.72571 2.97168 9.51953C2.55919 9.107 2.55919 8.43597 2.97168 8.02344C3.30835 7.68682 3.81683 7.62528 4.2168 7.83789L6.94238 5.68848C6.76839 5.29945 6.83941 4.82665 7.1582 4.50781C7.57082 4.09541 8.24181 4.09543 8.6543 4.50781C8.97311 4.82658 9.04406 5.29947 8.87012 5.68848L11.5957 7.83789C11.9054 7.67324 12.2801 7.67324 12.5898 7.83789L15.3145 5.68945C15.2539 5.55484 15.2207 5.40786 15.2207 5.25586C15.2207 4.97332 15.3314 4.7076 15.5312 4.50781ZM3.71973 8.39648C3.62361 8.39648 3.52723 8.43268 3.4541 8.50586C3.30771 8.65222 3.3077 8.89071 3.4541 9.03711C3.60047 9.18341 3.83912 9.18343 3.98535 9.03711C4.1317 8.89079 4.13162 8.65222 3.98535 8.50586C3.91225 8.43272 3.81584 8.39652 3.71973 8.39648ZM12.0928 8.39648C11.9966 8.39648 11.9003 8.43269 11.8271 8.50586C11.6807 8.65221 11.6807 8.89071 11.8271 9.03711C11.9735 9.18334 12.212 9.18346 12.3584 9.03711C12.5047 8.8908 12.5047 8.65222 12.3584 8.50586C12.2853 8.43272 12.1888 8.39652 12.0928 8.39648ZM7.90625 4.88086C7.8102 4.88086 7.71374 4.91715 7.64062 4.99023C7.49423 5.13658 7.49425 5.37508 7.64062 5.52148C7.78703 5.66788 8.02566 5.66784 8.17188 5.52148C8.31811 5.37512 8.31822 5.13658 8.17188 4.99023C8.09878 4.9171 8.00235 4.8809 7.90625 4.88086ZM16.2793 4.88086C16.1832 4.88086 16.0868 4.91715 16.0137 4.99023C15.9427 5.0611 15.9034 5.15567 15.9033 5.25586C15.9033 5.35616 15.9427 5.45058 16.0137 5.52148C16.1601 5.66784 16.3986 5.66784 16.5449 5.52148C16.6912 5.37507 16.6913 5.13654 16.5449 4.99023C16.4718 4.91709 16.3754 4.88089 16.2793 4.88086ZM1.46973 0.682617C1.14045 0.68266 0.858485 0.886236 0.741211 1.17383H19.2588C19.1416 0.886195 18.8595 0.68268 18.5303 0.682617H1.46973Z" fill="url(#paint0_linear_1656_3099)"/>
<defs>
<linearGradient id="paint0_linear_1656_3099" x1="10" y1="0" x2="10" y2="14.5312" gradientUnits="userSpaceOnUse">
<stop stop-color="#E527BB"/>
<stop offset="1" stop-color="#A78BEF"/>
</linearGradient>
</defs>
</svg>
