<svg width="533" height="331" viewBox="0 0 533 331" fill="none" xmlns="http://www.w3.org/2000/svg">
<path opacity="0.2" fill-rule="evenodd" clip-rule="evenodd" d="M0 7.5756C0 7.5756 496.166 -10.2363 522.25 8.76437C545.499 25.7019 520.61 239.759 514.929 286.131C514.801 287.134 513.992 287.91 512.938 288.028C382.355 302.136 78.1811 295.779 13.6451 294.227C12.5792 294.197 11.7008 293.49 11.49 292.498C2.02627 247.216 0 7.5756 0 7.5756Z" fill="#999999"/>
<g clip-path="url(#clip0_1632_4954)">
<path d="M169.175 17.018C168.688 15.4734 170.497 14.2209 171.777 15.195C184.886 25.117 217.087 55.5927 216.169 114.93C215.028 189.366 233.174 214.567 253.978 228.901C253.978 228.901 226.995 223.988 207.638 198.522C160.116 135.998 177.845 44.4601 169.175 17.018Z" fill="#39B039"/>
<path d="M180.686 39.005C183.052 47.0345 185.251 55.0917 187.143 63.2325C189.091 71.3594 190.789 79.5279 192.222 87.7522C193.628 95.9765 194.88 104.229 195.785 112.508C196.731 120.788 197.302 129.11 197.858 137.46C198.457 145.809 199.013 154.214 200.447 162.592C201.852 170.955 204.287 179.277 208.17 186.917C209.144 188.823 210.146 190.716 211.259 192.525C212.331 194.361 213.5 196.143 214.683 197.91C217.076 201.431 219.72 204.798 222.587 207.957C228.348 214.261 235.069 219.688 242.305 224.114C243.071 224.573 244.059 224.336 244.532 223.571C244.991 222.819 244.769 221.845 244.031 221.372C242.305 220.245 240.58 219.104 238.924 217.879C238.089 217.281 237.268 216.655 236.447 216.042C235.654 215.402 234.833 214.776 234.053 214.108C230.894 211.478 227.93 208.639 225.203 205.592C219.706 199.524 215.072 192.608 211.357 185.316C209.534 181.656 207.989 177.857 206.737 173.961C205.484 170.064 204.538 166.057 203.828 161.993C202.381 153.866 201.769 145.545 201.101 137.209C200.433 128.874 199.695 120.496 198.624 112.161C198.095 108 197.496 103.839 196.815 99.692C196.495 97.6185 196.119 95.5451 195.757 93.4855C195.381 91.426 194.978 89.3525 194.574 87.3069C192.918 79.0826 191.012 70.9001 188.841 62.8011C186.642 54.7021 184.221 46.6726 181.507 38.7406C181.424 38.518 181.187 38.3927 180.951 38.4762C180.742 38.5458 180.63 38.7824 180.686 39.005Z" fill="white"/>
<path d="M208.276 237.375C207.705 240.465 204.17 241.968 201.526 240.27C186.943 230.891 148.103 200.651 141.466 141.161C135.871 90.9389 128.051 64.2205 123.667 52.3503C122.735 49.8315 125.56 47.605 127.8 49.0661C152.487 65.292 228.857 125.381 208.276 237.375Z" fill="#39B039"/>
<path d="M204.088 238.099C204.033 238.155 203.963 238.196 203.894 238.238C203.323 238.6 202.558 238.419 202.21 237.848C201.806 237.194 161.367 171.915 150.415 102.419C150.304 101.752 150.763 101.125 151.431 101.014C152.099 100.903 152.725 101.362 152.836 102.03C163.705 171.025 203.88 235.886 204.283 236.54C204.603 237.069 204.506 237.709 204.088 238.099Z" fill="white"/>
<path d="M148.383 167.977C148.383 235.441 205.146 290.13 275.156 290.13C345.167 290.13 405.074 233.047 405.074 165.583C405.074 98.1195 345.181 45.8098 275.156 45.8098C205.132 45.8098 148.383 100.513 148.383 167.977Z" fill="#E527BB"/>
<path d="M395.126 138.281C395.196 138.281 395.279 138.267 395.349 138.253C395.822 138.128 396.1 137.668 395.975 137.223C394.611 132.283 392.872 127.384 390.798 122.667C390.604 122.236 390.089 122.041 389.657 122.222C389.212 122.403 389.003 122.904 389.198 123.335C391.244 127.983 392.955 132.798 394.291 137.668C394.389 138.03 394.737 138.281 395.126 138.281Z" fill="#91B3FA"/>
<path d="M375.755 100.096C375.936 100.096 376.117 100.04 376.283 99.9286C376.673 99.6503 376.743 99.1215 376.45 98.7457C352.961 68.7293 315.123 50.8196 275.241 50.8196C258.208 50.8196 241.731 54.1455 226.271 60.7137C225.825 60.9086 225.631 61.3956 225.825 61.827C226.02 62.2584 226.535 62.4532 226.98 62.2584C242.218 55.7875 258.458 52.5173 275.241 52.5173C314.581 52.5173 351.889 70.1904 375.045 99.7755C375.226 99.9843 375.49 100.096 375.755 100.096Z" fill="#91B3FA"/>
<path d="M165.641 167.977C165.641 226.382 214.777 273.723 275.381 273.723C335.984 273.723 387.835 224.308 387.835 165.917C387.835 107.513 335.984 62.2444 275.381 62.2444C214.777 62.2444 165.641 109.586 165.641 167.977Z" fill="#AC51D0"/>
<path opacity="0.78" d="M359.779 162.494C360.058 166.989 364.052 170.412 368.7 170.148C373.361 169.884 376.91 166.043 376.645 161.548C376.381 157.053 372.373 153.63 367.725 153.894C363.064 154.159 359.515 157.999 359.779 162.494Z" fill="white"/>
<path d="M177.257 172.736C177.522 177.231 181.53 180.654 186.178 180.39C190.839 180.125 194.388 176.285 194.123 171.79C193.859 167.295 189.851 163.872 185.203 164.136C180.542 164.387 176.979 168.241 177.257 172.736Z" fill="white"/>
<path d="M291.859 245.78C287.267 246.588 284.233 250.832 285.068 255.257C285.903 259.682 290.314 262.605 294.892 261.798C299.485 260.991 302.518 256.746 301.683 252.321C300.848 247.91 296.451 244.973 291.859 245.78Z" fill="white"/>
<path d="M259.015 72.4726C254.423 73.2797 251.389 77.5241 252.224 81.9493C253.059 86.3745 257.456 89.2969 262.049 88.4898C266.641 87.6826 269.675 83.4383 268.84 79.0131C268.005 74.6017 263.593 71.6655 259.015 72.4726Z" fill="white"/>
<path d="M231.793 250.442C230.93 252.53 231.153 254.478 232.266 254.812C233.393 255.132 234.994 253.713 235.856 251.625C236.719 249.538 236.496 247.59 235.383 247.256C234.256 246.922 232.656 248.355 231.793 250.442Z" fill="white"/>
<path opacity="0.78" d="M305.23 86.0544C304.368 88.1418 304.59 90.09 305.704 90.424C306.831 90.744 308.431 89.3246 309.294 87.2372C310.157 85.1499 309.934 83.2016 308.821 82.8677C307.693 82.5337 306.093 83.967 305.23 86.0544Z" fill="white"/>
<path d="M193.454 219.187C191.589 220.537 190.726 222.318 191.505 223.153C192.285 223.988 194.428 223.571 196.292 222.221C198.157 220.871 199.02 219.09 198.241 218.255C197.447 217.42 195.304 217.837 193.454 219.187Z" fill="white"/>
<path opacity="0.78" d="M344.789 115.445C342.925 116.795 342.062 118.576 342.841 119.411C343.621 120.246 345.764 119.828 347.628 118.478C349.493 117.129 350.356 115.347 349.577 114.512C348.797 113.664 346.654 114.081 344.789 115.445Z" fill="white"/>
<path opacity="0.78" d="M188.641 126.118C186.539 125.158 184.494 125.228 184.09 126.285C183.673 127.343 185.05 128.985 187.152 129.945C189.253 130.905 191.299 130.836 191.702 129.778C192.12 128.72 190.742 127.078 188.641 126.118Z" fill="white"/>
<path opacity="0.78" d="M353.938 207.721C351.836 206.761 349.791 206.83 349.387 207.888C348.97 208.945 350.347 210.587 352.449 211.548C354.55 212.508 356.596 212.438 356.999 211.381C357.417 210.323 356.039 208.681 353.938 207.721Z" fill="white"/>
<path d="M223.571 91.3424C222.291 89.4637 220.509 88.5035 219.591 89.2133C218.672 89.909 218.965 91.9964 220.231 93.8751C221.511 95.7537 223.293 96.7139 224.211 96.0042C225.129 95.3084 224.837 93.221 223.571 91.3424Z" fill="white"/>
<path d="M320.852 243.791C319.572 241.912 317.791 240.952 316.872 241.661C315.954 242.357 316.246 244.445 317.512 246.323C318.793 248.202 320.574 249.162 321.492 248.452C322.425 247.757 322.132 245.669 320.852 243.791Z" fill="white"/>
<path d="M271.164 165.945L364.47 234.968C430.32 144.32 362.522 68.0194 276.828 59.6838L271.164 165.945Z" fill="#A78BEF"/>
<path d="M276.925 165.611L339.212 207.93C340.423 208.751 342.079 208.041 342.246 206.635L343.234 198.272C343.429 196.644 345.544 196.045 346.643 197.298L389.003 245.739C390.297 247.228 388.725 249.371 386.846 248.689L326.27 226.465C324.823 225.937 324.545 224.072 325.797 223.195L334.161 217.337C335.19 216.613 335.218 215.124 334.202 214.359L274.629 168.603C273.794 167.963 273.641 166.808 274.267 166.001C274.879 165.194 276.062 165.027 276.925 165.611Z" fill="#DB38B7"/>
<path opacity="0.72" d="M381.474 244.417C382.1 244.514 382.712 244.264 383.088 243.735C383.533 243.109 383.478 242.316 382.935 241.745L373.584 231.698C373.264 231.35 372.707 231.322 372.345 231.628C371.983 231.934 371.955 232.477 372.289 232.825L381.641 242.872C367.962 237.64 335.858 225.714 335.176 225.547C334.717 225.422 334.23 225.7 334.118 226.145C334.007 226.591 334.285 227.05 334.731 227.175C335.705 227.481 360.308 236.596 381.112 244.333C381.237 244.361 381.349 244.403 381.474 244.417Z" fill="white"/>
<path d="M271.705 161.492L271.844 97.549C271.816 96.1296 270.243 95.2528 268.949 95.9486L261.309 100.054C259.82 100.847 258.067 99.5528 258.484 97.9664L274.279 36.8341C274.766 34.9694 277.507 34.9277 278.036 36.7924L295.125 96.8532C295.528 98.2865 294.123 99.5946 292.648 99.1215L282.768 96.0321C281.543 95.6425 280.277 96.4914 280.221 97.7299L275.587 161.562C275.545 162.578 274.655 163.371 273.611 163.357C272.567 163.315 271.732 162.494 271.705 161.492Z" fill="#DB38B7"/>
<path opacity="0.72" d="M289.893 90.9667C290.004 90.9667 290.101 90.9528 290.213 90.9111C290.658 90.7441 290.881 90.257 290.714 89.8396C290.394 88.9072 283.533 64.471 277.758 43.7781C277.549 43.0406 276.909 42.5674 276.102 42.5814C275.309 42.5953 274.669 43.1102 274.502 43.8616L271.566 56.9843C271.468 57.4435 271.76 57.8888 272.234 57.9862C272.707 58.0836 273.166 57.7914 273.277 57.3461L276.213 44.2234C279.901 57.9166 288.821 89.8256 289.086 90.4519C289.211 90.7719 289.545 90.9667 289.893 90.9667Z" fill="white"/>
<path d="M275.932 173.613C280.912 173.613 284.949 169.719 284.949 164.916C284.949 160.112 280.912 156.218 275.932 156.218C270.951 156.218 266.914 160.112 266.914 164.916C266.914 169.719 270.951 173.613 275.932 173.613Z" fill="#DB38B7"/>
<path d="M416.493 91.1617C415.158 77.705 411.818 44.2931 411.094 39.4086C410.176 33.2718 402.661 34.6216 402.661 34.6216L401.047 96.7419H411.539C412.945 96.7419 414.295 96.1296 415.241 95.072C416.187 94.0144 416.647 92.5811 416.493 91.1617Z" fill="#A78BEF"/>
<path d="M331.648 98.3005C328.378 98.2309 325.776 95.5174 325.845 92.2471L326.917 41.8161C326.972 39.033 329.199 36.7925 331.982 36.709L405.179 34.5381C407.35 34.4686 409.159 36.222 409.145 38.4067L408.964 96.2271C408.964 98.2727 407.281 99.9148 405.235 99.873L331.648 98.3005Z" fill="#8970E8"/>
<path d="M326.934 94.0701C325.891 94.0562 325.097 93.1099 325.264 92.0801C326.35 85.2196 329.731 61.5905 328.646 41.9831C328.59 41.0925 329.286 40.3271 330.191 40.2993L403.722 37.9475C404.724 37.9197 405.573 38.699 405.615 39.7148C405.921 47.9669 407.09 81.9216 405.573 93.9866C405.475 94.7241 404.849 95.2669 404.112 95.2529L326.934 94.0701Z" fill="#91B3FA"/>
<path opacity="0.6" d="M328.782 93.3048C327.78 93.2909 327.015 92.3863 327.168 91.3844C328.212 84.7744 331.468 62.0498 330.424 43.166C330.383 42.3032 331.037 41.5796 331.899 41.5517L402.661 39.2974C403.636 39.2695 404.443 40.021 404.484 40.9951C404.791 48.9271 405.904 81.6015 404.443 93.2213C404.359 93.931 403.747 94.4598 403.037 94.4459L328.782 93.3048Z" fill="white"/>
<path opacity="0.72" d="M372.276 53.5473L372.164 58.6405C372.15 59.4198 372.777 60.0599 373.556 60.0599L378.788 60.0877C379.554 60.0877 380.18 59.4893 380.194 58.724L380.305 53.3664C380.319 52.5593 379.651 51.9052 378.844 51.947L373.612 52.1835C372.874 52.2114 372.29 52.8097 372.276 53.5473Z" fill="white"/>
<path opacity="0.72" d="M354.001 60.0181L359.234 60.0459C359.999 60.0459 360.625 59.4476 360.639 58.6822L360.736 54.1317C360.75 53.3246 360.096 52.6845 359.289 52.7123L354.057 52.9071C353.319 52.935 352.735 53.5333 352.707 54.2709L352.61 58.6126C352.596 59.378 353.222 60.0181 354.001 60.0181Z" fill="white"/>
<path opacity="0.72" d="M358.581 82.7148L353.613 82.6731C352.778 82.6591 352.096 83.3271 352.082 84.1621L351.985 88.8239C351.971 89.6449 352.611 90.3407 353.446 90.3685L358.414 90.5773C359.263 90.619 359.986 89.9371 360 89.0883L360.098 84.2734C360.111 83.4245 359.43 82.7287 358.581 82.7148Z" fill="white"/>
<path opacity="0.72" d="M350.213 88.6986L350.31 84.1481C350.324 83.3132 349.656 82.6313 348.835 82.6174L343.811 82.5757C342.99 82.5617 342.323 83.2158 342.309 84.0368L342.211 88.4203C342.197 89.2274 342.823 89.9093 343.645 89.9511L348.668 90.1598C349.489 90.2015 350.199 89.5336 350.213 88.6986Z" fill="white"/>
<path opacity="0.72" d="M350.65 68.145L350.734 64.4016C350.748 63.4971 350.024 62.7595 349.12 62.7595L344.319 62.7734C343.442 62.7734 342.732 63.4692 342.718 64.3459L342.649 67.9223C342.635 68.799 343.317 69.5365 344.207 69.5644L349.008 69.7174C349.885 69.7453 350.636 69.0495 350.65 68.145Z" fill="white"/>
<path opacity="0.72" d="M350.422 79.0132L350.547 73.2937C350.561 72.4727 349.921 71.7908 349.1 71.763L344.188 71.596C343.297 71.5682 342.546 72.2779 342.532 73.1685L342.406 78.9297C342.393 79.7646 343.06 80.4604 343.895 80.4604H348.919C349.74 80.4743 350.408 79.8203 350.422 79.0132Z" fill="white"/>
<path opacity="0.72" d="M363.785 60.0738L369.017 60.1016C369.783 60.1016 370.409 59.5032 370.423 58.7379L370.534 53.7699C370.548 52.9628 369.894 52.3227 369.087 52.3505L363.854 52.5453C363.117 52.5731 362.532 53.1715 362.505 53.9091L362.407 58.6544C362.379 59.4336 363.006 60.0738 363.785 60.0738Z" fill="white"/>
<path opacity="0.72" d="M360.195 78.9854L360.307 73.6417C360.321 72.8067 359.667 72.1109 358.832 72.0831L353.864 71.9161C353.015 71.8883 352.305 72.5563 352.291 73.4051L352.18 78.9158C352.166 79.7647 352.848 80.4744 353.697 80.4744H358.665C359.514 80.4744 360.182 79.8064 360.195 78.9854Z" fill="white"/>
<path opacity="0.72" d="M369.144 62.7317L363.438 62.7456C362.812 62.7456 362.297 63.2466 362.283 63.8728L362.172 69.0077C362.158 69.6339 362.659 70.1628 363.285 70.1906L368.991 70.3715C369.631 70.3993 370.174 69.8844 370.188 69.2443L370.299 63.9006C370.313 63.2605 369.784 62.7317 369.144 62.7317Z" fill="white"/>
<path opacity="0.72" d="M372.051 64.1372L371.953 69.0356C371.939 69.8288 372.566 70.4828 373.359 70.5106L378.466 70.6776C379.273 70.7055 379.941 70.0653 379.969 69.2582L380.08 64.1789C380.094 63.3718 379.44 62.7039 378.633 62.7039L373.512 62.7178C372.705 62.7317 372.065 63.3579 372.051 64.1372Z" fill="white"/>
<path opacity="0.72" d="M353.515 69.8705L359.22 70.0514C359.86 70.0793 360.403 69.5644 360.417 68.9242L360.528 63.9285C360.542 63.2744 360.027 62.7456 359.373 62.7456L353.668 62.7595C353.041 62.7595 352.527 63.2605 352.513 63.8867L352.415 68.6877C352.387 69.3278 352.888 69.8427 353.515 69.8705Z" fill="white"/>
<path opacity="0.72" d="M368.613 72.4032L363.645 72.2362C362.796 72.2084 362.086 72.8763 362.072 73.7252L361.961 78.9158C361.947 79.7647 362.629 80.4744 363.478 80.4744H368.446C369.267 80.4744 369.949 79.8064 369.963 78.9854L370.074 73.9618C370.102 73.1268 369.448 72.431 368.613 72.4032Z" fill="white"/>
<path opacity="0.72" d="M378.546 72.7373L373.23 72.5564C372.478 72.5285 371.852 73.1269 371.838 73.8784L371.727 79.0968C371.713 79.8483 372.311 80.4745 373.077 80.4745H378.392C379.13 80.4745 379.728 79.89 379.742 79.1525L379.854 74.101C379.868 73.3635 379.283 72.7512 378.546 72.7373Z" fill="white"/>
<path opacity="0.72" d="M344.956 59.8928L348.922 59.9207C349.98 59.9207 350.842 59.0857 350.87 58.0281L350.94 54.7579C350.968 53.7699 350.147 52.9627 349.158 53.0045L344.747 53.1576C343.745 53.1993 342.952 54.0064 342.924 55.0084L342.869 57.7359C342.827 58.9187 343.773 59.8928 344.956 59.8928Z" fill="white"/>
<path opacity="0.72" d="M340.532 84.162C340.546 83.2714 339.836 82.5339 338.945 82.5199L337.22 82.506C335.912 82.4921 334.826 83.3549 334.812 84.4542L334.743 87.6131C334.715 88.6986 335.745 89.6031 337.039 89.6588L338.89 89.7423C339.725 89.784 340.434 89.1161 340.448 88.2811L340.532 84.162Z" fill="white"/>
<path opacity="0.72" d="M396.106 83.0766L392.711 83.0488C391.876 83.0349 391.194 83.7028 391.18 84.5378L391.055 90.4659C391.041 91.287 391.681 91.9828 392.516 92.0245L395.898 92.1637C397.247 92.2193 398.375 91.3426 398.402 90.2155L398.514 85.1362C398.514 84.0229 397.442 83.0905 396.106 83.0766Z" fill="white"/>
<path opacity="0.72" d="M337.359 80.4745H339.043C339.92 80.4745 340.63 79.7787 340.657 78.902L340.783 73.0851C340.797 72.2084 340.115 71.4709 339.224 71.4431L337.526 71.3874C336.19 71.3457 335.077 72.2224 335.049 73.3356L334.938 78.4149C334.91 79.5421 336.01 80.4745 337.359 80.4745Z" fill="white"/>
<path opacity="0.72" d="M337.494 69.3417L339.623 69.4113C340.305 69.4391 340.862 68.8964 340.876 68.2145L340.959 64.012C340.973 63.3301 340.43 62.7734 339.735 62.7734H337.592C336.297 62.7734 335.24 63.6362 335.212 64.7217L335.156 67.2822C335.142 68.3954 336.186 69.3 337.494 69.3417Z" fill="white"/>
<path opacity="0.72" d="M396.653 51.2929L393.244 51.4181C392.478 51.4459 391.866 52.0721 391.852 52.8375L391.727 58.6961C391.713 59.5032 392.353 60.1712 393.174 60.1712L396.681 60.1851C397.989 60.199 399.06 59.3223 399.074 58.2369L399.172 53.3385C399.2 52.1835 398.045 51.2511 396.653 51.2929Z" fill="white"/>
<path opacity="0.72" d="M368.36 82.8122L363.392 82.7705C362.557 82.7566 361.875 83.4245 361.862 84.2595L361.75 89.2274C361.736 90.0485 362.376 90.7443 363.211 90.7721L368.179 90.9808C369.028 91.0226 369.752 90.3407 369.766 89.4918L369.877 84.3569C369.877 83.5219 369.195 82.8261 368.36 82.8122Z" fill="white"/>
<path opacity="0.72" d="M396.502 62.676H393.051C392.258 62.676 391.618 63.3022 391.604 64.0954L391.492 69.6618C391.478 70.455 392.105 71.109 392.898 71.1369L396.363 71.2482C397.699 71.2899 398.812 70.4132 398.84 69.3L398.937 64.7077C398.951 63.6084 397.866 62.676 396.502 62.676Z" fill="white"/>
<path opacity="0.72" d="M396.375 73.3078L392.77 73.1965C392.019 73.1687 391.393 73.767 391.379 74.5185L391.281 79.1107C391.268 79.8622 391.866 80.4884 392.631 80.4884H396.249C397.558 80.4884 398.615 79.6256 398.629 78.5402L398.699 75.3813C398.726 74.268 397.697 73.3635 396.375 73.3078Z" fill="white"/>
<path opacity="0.72" d="M381.613 74.1984L381.516 79.1107C381.502 79.8622 382.1 80.4884 382.866 80.4884H388.182C388.919 80.4884 389.517 79.9039 389.531 79.1664L389.629 74.435C389.643 73.6975 389.058 73.0852 388.321 73.0573L383.005 72.8764C382.253 72.8486 381.641 73.447 381.613 74.1984Z" fill="white"/>
<path opacity="0.72" d="M387.898 83.007L382.93 82.9653C382.095 82.9514 381.413 83.6193 381.399 84.4543L381.274 90.0624C381.26 90.8834 381.9 91.5792 382.735 91.621L387.703 91.8297C388.552 91.8714 389.275 91.1896 389.289 90.3407L389.414 84.5656C389.428 83.7028 388.746 83.007 387.898 83.007Z" fill="white"/>
<path opacity="0.72" d="M337.773 59.8652L339.847 59.8791C340.514 59.8791 341.057 59.3503 341.071 58.6823L341.155 54.5771C341.169 53.8813 340.598 53.3108 339.888 53.3386L337.69 53.4221C336.423 53.4639 335.435 54.3127 335.407 55.3703L335.352 57.8195C335.338 58.9328 336.423 59.8512 337.773 59.8652Z" fill="white"/>
<path opacity="0.72" d="M378.132 82.9096L373.248 82.8679C372.371 82.854 371.647 83.5637 371.619 84.4404L371.508 89.6449C371.494 90.4659 372.134 91.1617 372.969 91.2035L377.937 91.4122C378.786 91.454 379.51 90.7721 379.524 89.9232L379.635 84.4682C379.649 83.6193 378.981 82.9096 378.132 82.9096Z" fill="white"/>
<path opacity="0.72" d="M382.057 53.1854L381.946 58.6404C381.932 59.4475 382.572 60.1155 383.393 60.1155L388.514 60.1433C389.307 60.1433 389.961 59.5171 389.975 58.7239L390.1 53.0601C390.114 52.2252 389.432 51.5572 388.597 51.5851L383.476 51.766C382.697 51.7938 382.085 52.42 382.057 53.1854Z" fill="white"/>
<path opacity="0.72" d="M381.83 64.1233L381.719 69.3556C381.705 70.1488 382.331 70.8029 383.124 70.8307L388.232 70.9977C389.039 71.0255 389.707 70.3854 389.734 69.5783L389.846 64.165C389.86 63.3579 389.206 62.6899 388.399 62.6899L383.278 62.7039C382.484 62.7039 381.844 63.344 381.83 64.1233Z" fill="white"/>
<path d="M337.205 48.9967L337.442 50.7223C337.512 51.2789 337.985 51.6964 338.541 51.6964H338.625C339.251 51.7103 339.766 51.2093 339.78 50.5831L339.822 48.8158C339.835 48.1339 339.251 47.5912 338.569 47.6608L338.221 47.7026C337.567 47.786 337.122 48.3705 337.205 48.9967Z" fill="white"/>
<path d="M345.221 48.5514L345.458 50.277C345.527 50.8336 346 51.2511 346.557 51.2511H346.64C347.267 51.265 347.782 50.764 347.795 50.1378L347.837 48.3705C347.851 47.6886 347.267 47.1459 346.585 47.2155L346.237 47.2572C345.583 47.3407 345.137 47.9252 345.221 48.5514Z" fill="white"/>
<path d="M355.073 48.6906L355.309 50.4161C355.379 50.9728 355.852 51.3902 356.408 51.3902H356.492C357.118 51.4042 357.633 50.9032 357.647 50.277L357.689 48.5097C357.703 47.8278 357.118 47.2851 356.436 47.3547L356.088 47.3964C355.434 47.4799 354.989 48.0644 355.073 48.6906Z" fill="white"/>
<path d="M364.674 48.2592L364.911 49.9847C364.98 50.5414 365.453 50.9589 366.01 50.9589H366.094C366.72 50.9728 367.235 50.4718 367.249 49.8456L367.29 48.0783C367.304 47.3964 366.72 46.8537 366.038 46.9233L365.69 46.965C365.036 47.0485 364.591 47.633 364.674 48.2592Z" fill="white"/>
<path d="M374.544 47.0067L374.781 48.7323C374.85 49.2889 375.324 49.7064 375.88 49.7064H375.964C376.59 49.7203 377.105 49.2194 377.119 48.5931L377.16 46.8258C377.174 46.144 376.59 45.6012 375.908 45.6708L375.56 45.7126C374.906 45.7961 374.447 46.3805 374.544 47.0067Z" fill="white"/>
<path d="M384.979 47.2294L385.215 48.955C385.285 49.5116 385.758 49.9291 386.314 49.9291H386.398C387.024 49.943 387.539 49.442 387.553 48.8158L387.595 47.0485C387.609 46.3666 387.024 45.8239 386.342 45.8935L385.994 45.9352C385.354 46.0187 384.895 46.5893 384.979 47.2294Z" fill="white"/>
<path d="M393.799 47.0485L394.036 48.774C394.105 49.3307 394.578 49.7482 395.135 49.7482H395.219C395.845 49.7621 396.36 49.2611 396.374 48.6349L396.415 46.8676C396.429 46.1857 395.845 45.643 395.163 45.7126L394.815 45.7543C394.161 45.8378 393.716 46.4084 393.799 47.0485Z" fill="white"/>
<path d="M390.449 46.5616C390.421 46.1859 390.031 46.0328 389.753 46.2554C388.946 46.8956 388.612 47.8836 388.208 48.816C387.749 49.8875 387.29 50.9729 386.9 52.0862C386.483 53.2551 386.121 54.438 385.856 55.6347C385.314 54.2014 384.687 52.7959 383.894 51.46C383.686 51.1121 383.087 51.3069 383.212 51.7383C383.894 54.1736 384.743 56.5671 385.383 59.0163C385.606 59.8791 386.789 59.6703 386.886 58.8493C387.123 56.581 387.679 54.4101 388.459 52.2671C388.834 51.2512 389.238 50.2493 389.669 49.2474C390.045 48.3707 390.504 47.5496 390.449 46.5616Z" fill="#E527BB"/>
<path d="M391.562 48.3708C390.852 48.2455 390.602 49.1361 391.242 49.4284C395.514 51.307 396.085 56.609 392.995 59.8235C391.562 61.3125 389.67 62.4675 387.874 63.4555C386.051 64.4575 384.02 65.2229 381.904 65.0141C377.006 64.5271 376.338 59.5313 377.799 55.6905C379.205 51.9889 382.225 49.1361 385.926 47.7585C386.399 47.5776 386.218 46.7983 385.731 46.9792C382.266 48.2177 379.316 50.6808 377.493 53.8814C375.809 56.8316 374.807 60.9924 377.006 63.9565C379.288 67.018 383.602 67.0737 386.859 65.7934C390.435 64.3879 394.902 61.7856 396.321 58.0005C397.81 54.0484 395.973 49.2057 391.562 48.3708Z" fill="#E527BB"/>
<path d="M409.154 95.7818C409.056 95.7818 408.973 95.6983 408.973 95.6009L408.75 63.0378C408.75 62.9404 408.833 62.8569 408.931 62.8569C409.028 62.8569 409.112 62.9404 409.112 63.0378L409.334 95.6009C409.334 95.6983 409.251 95.7818 409.154 95.7818Z" fill="#91B3FA"/>
<path d="M408.874 55.7459C408.776 55.7459 408.693 55.6625 408.693 55.565L408.609 44.1958C408.609 44.0984 408.693 44.0149 408.79 44.0149C408.888 44.0149 408.971 44.0984 408.971 44.1958L409.055 55.565C409.055 55.6625 408.971 55.7459 408.874 55.7459Z" fill="#91B3FA"/>
<path d="M339.177 46.1997C340.276 46.1997 341.167 45.3087 341.167 44.2097C341.167 43.1107 340.276 42.2197 339.177 42.2197C338.078 42.2197 337.188 43.1107 337.188 44.2097C337.188 45.3087 338.078 46.1997 339.177 46.1997Z" fill="#C61EA6"/>
<path d="M355.435 46.0466C356.534 46.0466 357.425 45.1556 357.425 44.0566C357.425 42.9576 356.534 42.0667 355.435 42.0667C354.336 42.0667 353.445 42.9576 353.445 44.0566C353.445 45.1556 354.336 46.0466 355.435 46.0466Z" fill="#C61EA6"/>
<path d="M371.842 45.5178C372.941 45.5178 373.831 44.6268 373.831 43.5278C373.831 42.4288 372.941 41.5378 371.842 41.5378C370.743 41.5378 369.852 42.4288 369.852 43.5278C369.852 44.6268 370.743 45.5178 371.842 45.5178Z" fill="#C61EA6"/>
<path d="M388.092 44.7524C389.191 44.7524 390.081 43.8615 390.081 42.7624C390.081 41.6634 389.191 40.7725 388.092 40.7725C386.992 40.7725 386.102 41.6634 386.102 42.7624C386.102 43.8615 386.992 44.7524 388.092 44.7524Z" fill="#C61EA6"/>
<path d="M389.612 29.0136C386.272 29.7372 386.592 38.5321 386.857 42.0945C386.926 42.9295 387.622 43.5835 388.457 43.5835C388.694 43.5835 388.916 43.4861 389.069 43.3052C389.222 43.1382 389.306 42.9016 389.278 42.6651C388.986 39.9654 388.374 32.2143 390.837 31.7968C390.837 31.7968 392.604 31.4906 392.896 34.9H394.803C394.803 34.9 393.801 28.1091 389.612 29.0136Z" fill="#E527BB"/>
<path d="M373.362 29.4729C370.022 30.1965 370.342 38.9913 370.607 42.5538C370.676 43.3887 371.372 44.0428 372.207 44.0428C372.444 44.0428 372.666 43.9453 372.819 43.7644C372.972 43.5975 373.056 43.3609 373.028 43.1243C372.736 40.4246 372.124 32.6596 374.587 32.2421C374.587 32.2421 376.354 31.9916 376.646 35.3454H378.553C378.539 35.3454 377.551 28.5544 373.362 29.4729Z" fill="#E527BB"/>
<path d="M357.089 29.9181C353.749 30.6417 354.069 39.4365 354.333 42.999C354.403 43.8339 355.099 44.488 355.934 44.488C356.17 44.488 356.393 44.3906 356.546 44.2096C356.699 44.0427 356.783 43.8061 356.755 43.5695C356.462 40.8698 355.85 33.1048 358.313 32.6873C358.313 32.6873 360.081 32.4925 360.373 35.8462L362.279 35.7766C362.279 35.7906 361.291 29.0135 357.089 29.9181Z" fill="#E527BB"/>
<path d="M340.839 30.4469C337.499 31.1705 337.819 39.9653 338.083 43.5278C338.153 44.3628 338.849 45.0168 339.684 45.0168C339.92 45.0168 340.143 44.9194 340.296 44.7385C340.449 44.5715 340.533 44.3349 340.505 44.0984C340.212 41.3987 339.6 33.6197 342.063 33.2022C342.063 33.2022 343.831 32.9518 344.123 36.2916H346.029C346.029 36.3055 345.041 29.5285 340.839 30.4469Z" fill="#E527BB"/>
<path d="M187.285 151.938H133.013C130.828 151.938 129.047 150.31 129.047 148.306V115.98C129.047 114.059 130.689 112.459 132.79 112.362L189.163 109.481C191.529 109.356 193.477 111.137 193.352 113.308L191.251 148.515C191.125 150.435 189.386 151.938 187.285 151.938Z" fill="#9C78F9"/>
<path d="M161.419 132.428L191.087 109.829C190.503 109.579 189.849 109.453 189.167 109.481L132.794 112.348C131.82 112.403 130.957 112.765 130.289 113.336L152.499 132.234C154.906 134.279 158.872 134.363 161.419 132.428Z" fill="#A78BEF"/>
<path opacity="0.72" d="M157.285 131.315C155.81 131.315 154.335 130.828 153.166 129.882L144.803 123.119C144.552 122.924 144.538 122.576 144.747 122.353C144.97 122.13 145.345 122.103 145.582 122.311L153.945 129.074C155.727 130.508 158.315 130.633 160.235 129.367L164.577 126.514C164.841 126.333 165.217 126.389 165.398 126.639C165.593 126.876 165.523 127.224 165.259 127.391L160.917 130.243C159.832 130.953 158.565 131.315 157.285 131.315Z" fill="white"/>
<path opacity="0.72" d="M142.069 120.739C141.93 120.739 141.791 120.697 141.68 120.6L140.553 119.695C140.302 119.501 140.288 119.153 140.497 118.93C140.72 118.707 141.095 118.68 141.332 118.888L142.459 119.793C142.71 119.988 142.723 120.336 142.515 120.558C142.403 120.67 142.236 120.739 142.069 120.739Z" fill="white"/>
<path d="M267.901 291.647H235.686C233.223 291.647 231.219 290.102 231.219 288.21V263.273C231.219 261.478 233 259.989 235.324 259.835L269.64 257.692C272.34 257.525 274.608 259.237 274.455 261.324L272.354 288.405C272.215 290.228 270.253 291.647 267.901 291.647Z" fill="#A78BEF"/>
<path opacity="0.72" d="M240.28 286.679C239.39 286.679 238.555 286.359 237.956 285.802C237.483 285.343 237.219 284.759 237.219 284.146V268.157C237.219 267.768 237.539 267.447 237.928 267.447C238.318 267.447 238.638 267.768 238.638 268.157V284.146C238.638 284.425 238.805 284.647 238.944 284.773C239.278 285.093 239.835 285.274 240.392 285.246L264.925 284.119C265.774 284.077 266.47 283.59 266.47 283.005V267.308C266.47 267.016 266.303 266.793 266.15 266.668C265.788 266.334 265.231 266.167 264.647 266.209L244.232 267.768C243.397 267.837 242.952 268.255 242.813 268.602C242.702 268.895 242.771 269.187 243.022 269.451L250.801 277.745C251.107 278.065 251.622 278.274 252.164 278.274C252.721 278.26 253.25 278.093 253.556 277.759L262.128 268.936C262.406 268.658 262.852 268.644 263.13 268.923C263.408 269.201 263.422 269.646 263.144 269.924L254.572 278.747C253.987 279.359 253.097 279.679 252.15 279.693C251.204 279.679 250.327 279.332 249.757 278.719L241.978 270.425C241.366 269.771 241.171 268.895 241.477 268.102C241.853 267.127 242.869 266.459 244.107 266.362L264.522 264.803C265.496 264.734 266.456 265.04 267.096 265.638C267.597 266.098 267.861 266.696 267.861 267.322V283.019C267.861 284.355 266.595 285.468 264.967 285.538L240.433 286.665C240.392 286.679 240.336 286.679 240.28 286.679Z" fill="white"/>
<path d="M389.194 288.335C390.878 288.669 400.494 294.388 400.494 287.848C400.494 287.236 400.494 280.542 400.494 280.542C400.494 280.542 388.707 288.238 389.194 288.335Z" fill="url(#paint0_linear_1632_4954)"/>
<path d="M355.456 319.715C355.456 319.715 353.215 317.864 350.251 318.129C348.178 318.491 345.756 320.328 344.184 321.677C343.906 321.914 343.822 322.29 343.947 322.624C344.087 322.958 344.421 323.166 344.782 323.166C348.665 323.083 356.263 322.86 356.263 322.29C356.277 321.51 355.456 319.715 355.456 319.715Z" fill="#A78BEF"/>
<path d="M357.001 316.445L355.22 319.813C355.22 319.813 351.198 320.147 351.323 318.56C351.448 316.974 352.45 315.067 352.45 315.067L357.001 316.445Z" fill="url(#paint1_linear_1632_4954)"/>
<path d="M402.511 318.741C399.714 303.503 400.173 294.208 400.173 294.208C400.173 294.208 366.747 273.751 363.574 278.636C360.401 283.52 351.328 316.849 351.328 316.849L357.382 318.505C357.382 318.505 368.96 302.835 370.017 289.448C372.995 299.203 375.778 322.54 398.698 323.208C399.839 323.236 400.924 322.763 401.676 321.9C402.399 321.009 402.719 319.854 402.511 318.741Z" fill="#231F20"/>
<path d="M335.612 318.365L331.91 321.858L329.016 318.95L332.842 314.539L335.612 318.365Z" fill="url(#paint2_linear_1632_4954)"/>
<path d="M416.951 242.441L420.04 253.81C420.179 254.325 420.012 254.895 419.595 255.201C418.106 256.329 414.223 258.569 408.893 256.384C408.281 256.134 407.864 255.508 407.808 254.798L407.07 244.89L416.951 242.441Z" fill="url(#paint3_linear_1632_4954)"/>
<path d="M398.891 233.256C398.891 233.256 399.489 244.013 403.302 247.631C407.101 251.249 415.27 249.468 418.651 241.675L414.462 227.509L398.891 233.256Z" fill="url(#paint4_linear_1632_4954)"/>
<path d="M413.254 237.167C412.934 237.236 412.628 237.014 412.6 236.68C412.531 235.692 412.336 233.715 411.696 232.324C411.696 232.324 412.211 230.96 408.106 232.741C404.014 234.509 397.864 237.111 394.565 234.968C391.337 232.881 388.693 223.543 397.474 225.978C397.808 226.076 398.142 225.825 398.142 225.477C398.156 223.988 398.601 220.579 402.15 219.772C405.476 219.02 407.131 220.635 407.786 221.581C407.98 221.859 408.384 221.887 408.607 221.637C409.692 220.454 412.559 217.977 416.288 220.022C419.364 221.706 419.698 223.71 419.531 224.935C419.475 225.324 419.864 225.63 420.24 225.505C421.256 225.143 422.856 225.032 424.206 227.05C426.071 229.847 422.898 231.851 421.952 232.366C421.799 232.449 421.687 232.602 421.674 232.783C421.548 234.147 421.075 240.2 417.819 243.29C417.541 243.554 416.831 243.29 416.706 242.914L414.883 237.264C414.799 237 414.521 236.847 414.256 236.916L413.254 237.167Z" fill="#231F20"/>
<path d="M412.812 237.946C412.812 237.946 414.691 232.38 416.653 234.397C418.615 236.429 415.596 240.27 413.105 240.827L412.812 237.946Z" fill="url(#paint5_linear_1632_4954)"/>
<path d="M333.723 320.147C332.818 320.161 329.019 318.491 329.019 318.491L325.471 319.437C322.381 318.964 319.737 320.008 317.942 321.079C317.553 321.316 317.358 321.775 317.483 322.22C317.594 322.665 317.998 322.972 318.443 322.972C321.936 323.027 327.683 323.083 330.592 322.916C334.961 322.652 335.615 322.777 333.723 320.147Z" fill="#A78BEF"/>
<path d="M364.296 282.56L356.643 257.025C356.336 255.981 355.404 255.243 354.319 255.174L343.979 254.464C342.922 254.394 342.142 255.424 342.49 256.412L351.048 280.793C351.327 281.572 352.036 282.129 352.858 282.212L363.044 283.339L364.296 282.56Z" fill="#A78BEF"/>
<path d="M363.04 283.353C363.054 283.353 363.068 283.353 363.095 283.353L384.79 282.254C385.333 282.226 385.736 281.767 385.709 281.238C385.681 280.695 385.222 280.278 384.693 280.32L362.998 281.419C362.455 281.447 362.052 281.906 362.079 282.435C362.093 282.95 362.525 283.353 363.04 283.353Z" fill="#A78BEF"/>
<path d="M395.297 280.278C395.297 280.278 391.039 285.761 378.876 278.678C378.876 278.678 375.439 275.519 371.89 275.867C368.356 276.228 365.781 281.043 365.781 281.043L372.614 280.904C372.614 280.904 382.105 292.413 401.935 292.413C402.505 288.001 397.969 284.258 395.297 280.278Z" fill="url(#paint6_linear_1632_4954)"/>
<path d="M412.152 252.46C409.563 253.031 406.683 255.772 404.651 258.068C403.023 259.919 401.84 262.076 401.144 264.442C399.586 269.771 396.176 280.208 393.922 281.21C399.029 288.46 399.892 290.826 399.892 290.826C398.932 299.482 396.928 301.207 396.928 301.207C396.928 301.207 406.905 311.101 418.97 313.926C429.964 305.827 431.648 282.671 431.648 282.671C432.524 255.201 419.833 250.776 412.152 252.46Z" fill="#A78BEF"/>
<path d="M399.809 291.132C399.739 291.132 399.67 291.104 399.614 291.049C399.531 290.951 399.531 290.784 399.642 290.701C399.739 290.617 409.648 281.962 412.319 270.857C412.347 270.718 412.486 270.648 412.626 270.676C412.765 270.704 412.834 270.843 412.806 270.982C410.107 282.254 400.073 291.007 399.962 291.091C399.92 291.118 399.865 291.132 399.809 291.132Z" fill="#6F42E0"/>
<path d="M418.981 313.94C418.981 313.94 414.027 328.663 389.591 320.411C377.749 316.417 361.161 293.22 361.161 293.22C361.161 293.22 357.07 304.436 335.681 319.493L330.922 315.221C330.922 315.221 352.575 277.898 363.666 281.781C374.757 285.649 422.363 304.394 418.981 313.94Z" fill="#231F20"/>
<path d="M345.023 256.315L353.359 279.54L362.21 279.318L355.154 257.024L345.023 256.315Z" fill="#BDD0FB"/>
</g>
<path d="M114.362 159.934C114.362 159.934 110.702 161.715 110.034 163.747C109.492 165.389 105.456 165.598 105.052 168.812C104.844 170.482 103.619 171.804 101.963 172.055C97.844 172.681 91.4845 174.824 90.4686 181.99C89.6894 187.459 92.4725 189.533 95.4088 190.243C97.5518 190.771 98.9851 192.859 98.5537 195.03C98.1363 197.103 98.7625 199.511 102.367 201.417C110.438 205.675 118.509 191.328 118.509 191.328L120.165 166.266L114.362 159.934Z" fill="#231F20"/>
<path d="M158.312 153.992C158.312 153.992 142.184 179.499 123.008 184.426C123.008 184.426 126.737 195.071 129.632 196.282C129.632 196.282 153.219 176.605 159.286 157.61L158.312 153.992Z" fill="url(#paint7_linear_1632_4954)"/>
<path d="M81.1824 317.127L80.6536 321.427C80.5562 322.248 79.9161 322.888 79.095 322.985C77.7174 323.138 75.5047 323.305 73.3478 323.069C72.4015 322.971 71.7892 322.011 72.0675 321.093C72.5963 319.437 73.5565 316.946 74.9481 315.485H79.7073C80.5979 315.485 81.2798 316.25 81.1824 317.127Z" fill="#A78BEF"/>
<path d="M118.512 266.793L119.319 271.525C119.319 271.525 116.619 298.814 116.146 309.724C116.077 311.435 116.508 313.119 117.413 314.58L122.102 322.192L110.204 315.165L109.968 313.717L111.916 311.032L109.369 280.459C109.216 278.663 109.592 276.868 110.441 275.268L112.904 270.648L118.512 266.793Z" fill="url(#paint8_linear_1632_4954)"/>
<path d="M122.878 323.291H119.079C118.369 323.291 117.701 322.971 117.27 322.401C116.087 320.856 113.638 317.864 112.455 317.781C110.869 317.669 111.077 323.291 111.077 323.291H110.187L109.06 316.32C108.781 314.566 109.644 312.827 111.23 312.006C111.23 312.006 111.592 314.677 113.554 315.86C115.516 317.043 121.514 321.274 121.514 321.274C121.514 321.274 122.252 321.162 123.059 321.315C124.256 321.524 124.089 323.291 122.878 323.291Z" fill="#A78BEF"/>
<path d="M102.2 269.047C102.2 269.047 86.4191 298.98 83.9143 305.813C81.4094 312.646 80.5327 318.351 80.491 318.894C80.4353 319.743 79.3916 320.55 76.4971 320.55C75.0081 320.55 74.2706 319.951 73.9088 319.367C73.6026 318.866 73.5887 318.254 73.8392 317.739C74.7576 315.888 77.6521 309.988 78.7236 307.316C80.0039 304.115 82.7592 289.629 84.2761 284.591C85.7929 279.554 87.4906 274.085 94.0728 269.061C94.0867 269.047 98.5955 264.622 102.2 269.047Z" fill="url(#paint9_linear_1632_4954)"/>
<path d="M112.162 219.994C116.24 202.739 105.914 192.984 105.914 192.984C112.427 186.736 124.283 183.897 124.283 183.897C124.283 183.897 135.597 192.163 134.261 198.648C133.467 202.447 126.315 221.372 126.315 221.372C126.315 221.372 119.677 224.503 112.162 219.994Z" fill="#A78BEF"/>
<path d="M103.146 228.525C104.802 223.529 112.178 219.98 112.178 219.98C119.692 224.489 126.316 221.358 126.316 221.358C126.316 221.358 127.805 227.036 126.775 232.31C125.745 237.584 119.316 271.511 119.316 271.511C109.172 273.57 93.5859 269.437 93.5859 269.437C100.043 257.999 101.49 233.521 103.146 228.525Z" fill="#231F20"/>
<path d="M116.896 172.499L113.584 187.362C113.264 188.67 114.46 188.461 115.782 188.21C117.953 187.807 120.75 186.958 121.683 185.274C121.78 185.107 121.822 184.912 121.85 184.718L123.269 174.406C123.38 173.585 122.935 172.792 122.184 172.458L119.442 171.247C118.399 170.774 117.174 171.372 116.896 172.499Z" fill="url(#paint10_linear_1632_4954)"/>
<path d="M123.229 158.946C123.229 158.946 126.75 161.325 128.266 167.406C129.783 173.488 127.32 175.659 124.801 175.519C122.283 175.38 118.623 174.601 115.45 170.245C112.277 165.89 118.609 156.037 123.229 158.946Z" fill="url(#paint11_linear_1632_4954)"/>
<path d="M118.649 167.796C118.649 167.796 117.354 159.098 124.591 160.42L126.052 161.937C126.052 161.937 129.586 157.957 125.676 154.938C121.766 151.932 116.325 152.697 113.319 158.18C110.313 163.663 109.228 167.517 111.746 170.913C114.265 174.322 116.158 171.4 116.158 171.4C116.158 171.4 115.003 168.45 115.963 167.184C116.923 165.917 118.162 167.921 118.162 167.921L118.649 167.796Z" fill="#231F20"/>
<path d="M117.652 168.547C117.652 168.547 117.012 164.066 114.729 165.347C112.447 166.627 115.55 169.535 116.803 170.523L117.652 168.547Z" fill="url(#paint12_linear_1632_4954)"/>
<path d="M158.205 159.238C158.26 159.766 156.298 160.128 155.672 157.888C155.839 156.914 156.145 152.655 156.896 151.987C160.876 148.453 167.96 144.487 167.96 144.487C168.753 145.697 167.709 146.491 167.709 146.491L164.174 148.884C164.55 150.109 165.079 151.194 165.149 152.586C165.19 153.643 164.801 154.673 164.105 155.48C163.395 156.287 162.449 157.331 161.6 158.11C159.972 159.613 158.205 159.238 158.205 159.238Z" fill="url(#paint13_linear_1632_4954)"/>
<path d="M160.123 157.499L159.58 157.276C159.649 157.095 161.347 152.976 162.168 152.113C162.474 151.793 162.627 151.515 162.613 151.278C162.6 151.153 162.544 151.042 162.433 150.916L159.566 152.447L158.3 154.423L157.812 154.103L159.162 151.988L162.516 150.193L162.669 150.318C163.003 150.596 163.184 150.889 163.198 151.237C163.226 151.64 163.017 152.058 162.586 152.503C161.973 153.171 160.61 156.344 160.123 157.499Z" fill="url(#paint14_linear_1632_4954)"/>
<path d="M115.862 229.095C115.89 229.095 115.904 229.095 115.932 229.095L145.503 229.068C146.24 229.068 146.825 228.483 146.825 227.76C146.825 227.036 146.226 226.437 145.503 226.451L115.932 226.479C115.194 226.479 114.61 227.064 114.61 227.787C114.596 228.483 115.152 229.054 115.862 229.095Z" fill="#A78BEF"/>
<path d="M172.063 202.53H147.432C145.609 202.53 143.967 203.574 143.188 205.188L131.805 229.068H162.406C163.575 229.068 164.632 228.358 165.064 227.286L173.886 205.188C174.415 203.908 173.455 202.53 172.063 202.53Z" fill="#A78BEF"/>
<path d="M158.384 215.972C158.923 214.337 158.537 212.741 157.523 212.407C156.508 212.072 155.249 213.127 154.71 214.762C154.171 216.397 154.557 217.993 155.571 218.327C156.586 218.662 157.845 217.607 158.384 215.972Z" fill="white"/>
<path d="M105.885 193.025C101.85 197.103 96.7287 215.138 99.2753 218.157C101.516 221.664 109.128 226.437 116.378 226.451H127.079C122.584 221.678 119.495 220.467 115.807 223.807C112.885 222.555 109.086 217.712 106.553 215.555C105.565 214.706 105.329 213.259 105.983 212.132C108.001 208.722 110.519 205.23 111.312 201.834C111.493 197.854 108.543 193.304 105.885 193.025Z" fill="url(#paint15_linear_1632_4954)"/>
<path d="M394.852 163.705V188.559C394.852 191.509 397.176 193.944 400.126 194.083L431.214 195.544C434.373 195.697 437.003 193.179 437.003 190.02V163.705C437.003 160.643 434.526 158.18 431.478 158.18H400.39C397.329 158.166 394.852 160.643 394.852 163.705Z" fill="#A78BEF"/>
<path opacity="0.72" d="M406.11 189.449C405.706 189.449 405.372 189.449 405.094 189.435C404.635 189.421 404.259 189.087 404.203 188.628C404.147 188.169 404.426 187.738 404.871 187.612C407.265 186.944 409.867 185.803 411.773 184.885C402.631 184.133 400.808 179.444 400.46 177.301C399.569 171.887 404.273 165.751 410.938 163.635C417.743 161.478 424.632 162.258 428.5 165.611C430.56 167.393 432.786 170.816 431.729 176.981C429.767 188.517 411.801 189.449 406.11 189.449ZM418.342 183.271L415.447 184.885C415.294 184.968 412.747 186.388 409.644 187.682C416.7 187.251 428.639 185.261 430.101 176.716C430.838 172.375 429.934 169.077 427.415 166.878C423.504 163.468 416.574 163.594 411.439 165.222C405.623 167.073 401.35 172.472 402.102 177.036C402.784 181.169 407.487 183.493 415.03 183.326L418.342 183.271Z" fill="white"/>
<defs>
<linearGradient id="paint0_linear_1632_4954" x1="398.595" y1="283" x2="390.872" y2="294.75" gradientUnits="userSpaceOnUse">
<stop stop-color="#FDF53F"/>
<stop offset="0.6645" stop-color="#E57A58"/>
<stop offset="1" stop-color="#D93C65"/>
</linearGradient>
<linearGradient id="paint1_linear_1632_4954" x1="356.23" y1="314.419" x2="350.971" y2="321.031" gradientUnits="userSpaceOnUse">
<stop stop-color="#FEBBBA"/>
<stop offset="1" stop-color="#FF928E"/>
</linearGradient>
<linearGradient id="paint2_linear_1632_4954" x1="330.835" y1="313.479" x2="334.14" y2="325.072" gradientUnits="userSpaceOnUse">
<stop stop-color="#FEBBBA"/>
<stop offset="1" stop-color="#FF928E"/>
</linearGradient>
<linearGradient id="paint3_linear_1632_4954" x1="414.375" y1="258.219" x2="412.783" y2="243.888" gradientUnits="userSpaceOnUse">
<stop stop-color="#FEBBBA"/>
<stop offset="1" stop-color="#FF928E"/>
</linearGradient>
<linearGradient id="paint4_linear_1632_4954" x1="405.682" y1="245.215" x2="413.777" y2="224.917" gradientUnits="userSpaceOnUse">
<stop stop-color="#FEBBBA"/>
<stop offset="1" stop-color="#FF928E"/>
</linearGradient>
<linearGradient id="paint5_linear_1632_4954" x1="410.698" y1="248.153" x2="418.793" y2="227.856" gradientUnits="userSpaceOnUse">
<stop stop-color="#FEBBBA"/>
<stop offset="1" stop-color="#FF928E"/>
</linearGradient>
<linearGradient id="paint6_linear_1632_4954" x1="384.738" y1="288.409" x2="363.423" y2="223.793" gradientUnits="userSpaceOnUse">
<stop stop-color="#FEBBBA"/>
<stop offset="1" stop-color="#FF928E"/>
</linearGradient>
<linearGradient id="paint7_linear_1632_4954" x1="146.27" y1="166.028" x2="117.109" y2="206.336" gradientUnits="userSpaceOnUse">
<stop stop-color="#FEBBBA"/>
<stop offset="1" stop-color="#FF928E"/>
</linearGradient>
<linearGradient id="paint8_linear_1632_4954" x1="120.019" y1="355.561" x2="106.797" y2="201.023" gradientUnits="userSpaceOnUse">
<stop stop-color="#FEBBBA"/>
<stop offset="1" stop-color="#FF928E"/>
</linearGradient>
<linearGradient id="paint9_linear_1632_4954" x1="93.4179" y1="357.86" x2="80.1921" y2="203.281" gradientUnits="userSpaceOnUse">
<stop stop-color="#FEBBBA"/>
<stop offset="1" stop-color="#FF928E"/>
</linearGradient>
<linearGradient id="paint10_linear_1632_4954" x1="121.467" y1="203.233" x2="118.983" y2="185.062" gradientUnits="userSpaceOnUse">
<stop stop-color="#FEBBBA"/>
<stop offset="1" stop-color="#FF928E"/>
</linearGradient>
<linearGradient id="paint11_linear_1632_4954" x1="125.877" y1="181.35" x2="112.113" y2="139.307" gradientUnits="userSpaceOnUse">
<stop stop-color="#FEBBBA"/>
<stop offset="1" stop-color="#FF928E"/>
</linearGradient>
<linearGradient id="paint12_linear_1632_4954" x1="120.851" y1="182.997" x2="107.087" y2="140.954" gradientUnits="userSpaceOnUse">
<stop stop-color="#FEBBBA"/>
<stop offset="1" stop-color="#FF928E"/>
</linearGradient>
<linearGradient id="paint13_linear_1632_4954" x1="149.775" y1="168.559" x2="120.614" y2="208.869" gradientUnits="userSpaceOnUse">
<stop stop-color="#FEBBBA"/>
<stop offset="1" stop-color="#FF928E"/>
</linearGradient>
<linearGradient id="paint14_linear_1632_4954" x1="157.821" y1="153.86" x2="163.211" y2="153.86" gradientUnits="userSpaceOnUse">
<stop stop-color="#FEBBBA"/>
<stop offset="1" stop-color="#FF928E"/>
</linearGradient>
<linearGradient id="paint15_linear_1632_4954" x1="75.8324" y1="226.735" x2="127.779" y2="205.003" gradientUnits="userSpaceOnUse">
<stop stop-color="#FEBBBA"/>
<stop offset="1" stop-color="#FF928E"/>
</linearGradient>
<clipPath id="clip0_1632_4954">
<rect width="308.222" height="308.445" fill="white" transform="translate(123.484 14.8472)"/>
</clipPath>
</defs>
</svg>
