<svg width="543" height="329" viewBox="0 0 543 329" fill="none" xmlns="http://www.w3.org/2000/svg">
<g clip-path="url(#clip0_644_7711)">
<path opacity="0.2" d="M78.8274 327.341C41.5074 289.411 -9.50263 250.241 10.4974 191.071C23.6574 152.151 55.9074 141.311 82.7274 117.311C95.9574 105.471 87.6374 88.2309 87.3874 71.1209C86.8274 27.3009 139.207 -6.69908 187.367 -5.98908C239.527 -5.21908 262.107 43.7309 305.867 46.3609C323.047 46.6109 338.437 37.1909 353.637 29.7209C398.677 7.56092 470.157 21.6909 473.767 75.2709C474.697 104.211 439.417 150.761 474.767 165.981C502.937 178.111 531.397 182.581 536.477 225.961C543.127 282.741 507.987 313.901 462.217 328.521L78.8274 327.341Z" fill="#999999"/>
<g clip-path="url(#clip1_644_7711)">
<g opacity="0.3">
<path d="M334.997 58.9633C334.623 58.5755 334.594 57.9509 334.954 57.5345C335.737 56.6082 336.571 55.7036 337.434 54.8492C337.851 54.4327 338.534 54.4327 338.95 54.8492C338.958 54.8564 338.958 54.8564 338.965 54.8635C339.367 55.28 339.36 55.9477 338.95 56.3641C338.131 57.1826 337.34 58.0371 336.6 58.913C336.219 59.3653 335.543 59.4228 335.09 59.0422C335.047 59.0207 335.026 58.992 334.997 58.9633ZM341.783 52.5588C341.754 52.5301 341.725 52.4942 341.704 52.4654C341.344 51.9916 341.438 51.3238 341.912 50.9648C342.882 50.2325 343.896 49.536 344.917 48.8898C345.42 48.5739 346.074 48.7247 346.398 49.2273C346.714 49.7299 346.563 50.3905 346.06 50.7064C345.089 51.3167 344.126 51.9844 343.206 52.6808C342.76 52.9968 342.156 52.9393 341.783 52.5588ZM349.812 47.7985C349.726 47.7123 349.661 47.6118 349.611 47.4969C349.366 46.9585 349.611 46.3266 350.15 46.0825C351.257 45.5871 352.4 45.1276 353.543 44.7327C354.103 44.5388 354.714 44.8332 354.908 45.3861C355.103 45.9461 354.808 46.5564 354.247 46.7502C353.162 47.1308 352.076 47.5616 351.02 48.0354C350.603 48.2221 350.121 48.1144 349.812 47.7985ZM358.711 44.9553C358.574 44.8117 358.474 44.6322 358.431 44.4239C358.316 43.8424 358.69 43.2823 359.272 43.1675C360.465 42.9305 361.68 42.7439 362.887 42.6074C363.477 42.5428 364.009 42.9664 364.074 43.5552C364.138 44.1439 363.714 44.6752 363.125 44.7399C361.982 44.8691 360.824 45.0486 359.696 45.2712C359.322 45.3358 358.955 45.2066 358.711 44.9553ZM368.013 44.1583C367.819 43.9573 367.704 43.6844 367.718 43.39C367.732 42.8013 368.228 42.3346 368.818 42.349C370.025 42.3777 371.255 42.4638 372.462 42.6003C373.052 42.6649 373.476 43.1962 373.411 43.7849C373.346 44.3737 372.814 44.7973 372.225 44.7327C371.075 44.6034 369.91 44.5245 368.76 44.4957C368.466 44.4814 368.207 44.3593 368.013 44.1583ZM377.264 45.4435C377.012 45.185 376.905 44.8117 376.998 44.4383C377.142 43.8639 377.731 43.5193 378.299 43.6629C379.478 43.9644 380.65 44.3162 381.8 44.7111C382.361 44.905 382.655 45.5153 382.461 46.0753C382.267 46.6354 381.656 46.9297 381.095 46.7359C380.003 46.3553 378.889 46.0251 377.767 45.7379C377.573 45.6876 377.401 45.5871 377.264 45.4435ZM406.305 71.9876C406.204 71.8799 406.118 71.7507 406.068 71.5999C405.687 70.5157 405.248 69.4316 404.774 68.3833C404.529 67.8448 404.766 67.213 405.306 66.9689C405.845 66.7247 406.477 66.9617 406.722 67.5002C407.225 68.6059 407.678 69.7475 408.08 70.8891C408.274 71.4491 407.987 72.0594 407.426 72.2533C407.024 72.404 406.585 72.282 406.305 71.9876ZM385.991 48.7391C385.682 48.416 385.595 47.9277 385.811 47.5113C386.084 46.9872 386.724 46.779 387.256 47.0446C388.334 47.5975 389.405 48.2078 390.433 48.8468C390.936 49.1627 391.087 49.8232 390.771 50.3258C390.455 50.8284 389.793 50.9792 389.29 50.6633C388.312 50.053 387.299 49.4786 386.271 48.9473C386.17 48.897 386.077 48.8252 385.991 48.7391ZM402.236 63.5943C402.186 63.544 402.143 63.4866 402.1 63.422C401.481 62.4527 400.82 61.4906 400.116 60.5716C399.756 60.0977 399.85 59.43 400.324 59.071C400.799 58.712 401.467 58.8053 401.826 59.2792C402.56 60.2485 403.264 61.2536 403.911 62.2804C404.227 62.783 404.076 63.4435 403.58 63.7594C403.142 64.0323 402.581 63.9533 402.236 63.5943ZM393.768 53.9014C393.395 53.5137 393.366 52.8962 393.725 52.4726C394.106 52.0203 394.782 51.9629 395.235 52.3434C396.162 53.126 397.068 53.9517 397.93 54.8133C397.938 54.8205 397.945 54.8205 397.945 54.8276C398.347 55.2441 398.34 55.9118 397.93 56.3282C397.513 56.7447 396.831 56.7447 396.414 56.3282C395.594 55.5169 394.739 54.7271 393.855 53.9876C393.819 53.9589 393.79 53.9301 393.768 53.9014Z" fill="url(#paint0_linear_644_7711)"/>
<path d="M408.152 79.2752C408.008 79.1244 407.901 78.9234 407.865 78.7008C407.778 78.1552 407.678 77.6023 407.57 77.0566C407.455 76.4751 407.829 75.915 408.411 75.793C408.993 75.6781 409.554 76.0514 409.676 76.633C409.791 77.2074 409.899 77.789 409.985 78.3634C410.079 78.945 409.676 79.4978 409.094 79.5911C408.734 79.6558 408.389 79.5265 408.152 79.2752Z" fill="url(#paint1_linear_644_7711)"/>
</g>
<g opacity="0.3">
<path d="M400.259 110.96C399.9 110.587 399.857 109.998 400.18 109.574C400.511 109.136 400.842 108.677 401.158 108.225C401.496 107.736 402.164 107.614 402.653 107.952C403.142 108.289 403.264 108.957 402.926 109.445C402.596 109.926 402.243 110.407 401.898 110.867C401.539 111.341 400.87 111.434 400.396 111.075C400.338 111.039 400.295 110.996 400.259 110.96Z" fill="url(#paint2_linear_644_7711)"/>
<path d="M336.83 114.744C336.485 114.385 336.154 114.026 335.816 113.66C335.421 113.222 335.457 112.54 335.895 112.145C336.334 111.75 337.017 111.786 337.412 112.224C338.181 113.078 338.979 113.897 339.799 114.672C340.23 115.081 340.252 115.756 339.842 116.187C339.432 116.618 338.756 116.639 338.325 116.23C337.822 115.756 337.319 115.254 336.83 114.744ZM332.337 109.201C332.294 109.158 332.258 109.108 332.222 109.057C331.554 108.067 330.914 107.04 330.332 105.999C330.044 105.482 330.224 104.828 330.741 104.541C331.259 104.254 331.913 104.434 332.201 104.951C332.754 105.934 333.358 106.918 333.998 107.851C334.328 108.339 334.199 109.007 333.71 109.337C333.272 109.646 332.689 109.574 332.337 109.201ZM342.688 119.806C342.336 119.44 342.286 118.872 342.588 118.442C342.933 117.961 343.601 117.846 344.083 118.19C345.003 118.851 345.966 119.475 346.944 120.05C347.454 120.351 347.62 121.012 347.318 121.515C347.016 122.024 346.354 122.19 345.851 121.888C344.823 121.278 343.81 120.617 342.839 119.928C342.782 119.899 342.732 119.856 342.688 119.806ZM328.053 101.081C327.96 100.98 327.88 100.865 327.83 100.729C327.392 99.6159 326.996 98.4743 326.658 97.3327C326.486 96.7654 326.809 96.1695 327.377 96.0044C327.945 95.8321 328.542 96.1552 328.714 96.7224C329.038 97.8065 329.412 98.8907 329.829 99.9461C330.044 100.499 329.771 101.116 329.225 101.332C328.801 101.497 328.341 101.382 328.053 101.081ZM350.711 124.279C350.423 123.977 350.322 123.525 350.495 123.123C350.725 122.577 351.35 122.319 351.897 122.548C352.939 122.986 354.017 123.389 355.095 123.74C355.656 123.92 355.965 124.53 355.785 125.09C355.606 125.65 354.995 125.959 354.434 125.779C353.298 125.413 352.163 124.99 351.063 124.53C350.926 124.466 350.811 124.379 350.711 124.279ZM359.516 126.878C359.286 126.641 359.171 126.296 359.236 125.945C359.344 125.363 359.897 124.975 360.479 125.083C361.594 125.284 362.737 125.442 363.865 125.543C364.455 125.6 364.886 126.117 364.828 126.706C364.771 127.294 364.246 127.725 363.657 127.668C362.471 127.553 361.27 127.395 360.091 127.18C359.868 127.151 359.667 127.036 359.516 126.878ZM368.688 127.503C368.516 127.323 368.401 127.079 368.394 126.806C368.372 126.217 368.825 125.715 369.422 125.693C370.557 125.643 371.7 125.55 372.829 125.406C373.418 125.334 373.95 125.751 374.029 126.332C374.101 126.921 373.684 127.452 373.102 127.531C371.916 127.682 370.716 127.783 369.515 127.833C369.184 127.847 368.89 127.718 368.688 127.503ZM377.767 126.117C377.645 125.988 377.552 125.837 377.508 125.65C377.358 125.076 377.695 124.494 378.263 124.336C379.363 124.042 380.456 123.697 381.52 123.317C382.073 123.116 382.691 123.403 382.893 123.963C383.094 124.516 382.806 125.133 382.246 125.334C381.124 125.736 379.967 126.103 378.81 126.411C378.429 126.512 378.033 126.39 377.767 126.117ZM386.336 122.771C386.271 122.699 386.206 122.62 386.163 122.527C385.89 122.003 386.091 121.357 386.616 121.084C387.615 120.56 388.614 119.978 389.57 119.368C390.066 119.052 390.735 119.195 391.051 119.691C391.368 120.186 391.224 120.854 390.728 121.17C389.721 121.816 388.672 122.419 387.622 122.972C387.17 123.202 386.652 123.101 386.336 122.771ZM393.941 117.63C393.927 117.616 393.912 117.594 393.898 117.58C393.517 117.128 393.567 116.453 394.02 116.072C394.66 115.534 395.285 114.967 395.889 114.392C396.105 114.184 396.32 113.976 396.536 113.76C396.953 113.344 397.636 113.344 398.053 113.76C398.484 114.177 398.47 114.859 398.053 115.275C397.83 115.498 397.6 115.72 397.377 115.943C396.744 116.553 396.083 117.142 395.415 117.716C394.976 118.068 394.329 118.032 393.941 117.63Z" fill="url(#paint3_linear_644_7711)"/>
<path d="M325.659 92.1919C325.508 92.0412 325.408 91.8401 325.372 91.6104C325.286 91.036 325.206 90.4544 325.142 89.8728C325.077 89.2841 325.501 88.7528 326.091 88.6882C326.68 88.6235 327.212 89.0471 327.277 89.6359C327.341 90.1888 327.413 90.7488 327.492 91.2873C327.586 91.8689 327.183 92.4145 326.594 92.5079C326.234 92.5653 325.889 92.4361 325.659 92.1919Z" fill="url(#paint4_linear_644_7711)"/>
</g>
<path d="M335.629 84.6315C335.601 84.8468 335.716 85.0479 335.91 85.1412L341.394 87.8121C341.703 90.641 342.465 93.4412 343.695 96.0978L340.381 101.21C340.266 101.389 340.273 101.619 340.41 101.791L344.917 107.543C345.046 107.708 345.276 107.779 345.477 107.708L351.242 105.726C353.528 107.557 356.066 108.971 358.74 109.955L360.012 115.914C360.055 116.123 360.228 116.28 360.443 116.309L367.704 117.192C367.919 117.221 368.12 117.106 368.214 116.912L370.888 111.434C373.72 111.125 376.524 110.364 379.183 109.136L384.301 112.446C384.481 112.561 384.711 112.554 384.884 112.418L390.641 107.916C390.807 107.787 390.879 107.564 390.807 107.356L388.823 101.598C390.656 99.3144 392.072 96.7799 393.057 94.1089L399.023 92.8381C399.231 92.795 399.39 92.6227 399.418 92.4073L400.302 85.1556C400.331 84.9402 400.216 84.7392 400.022 84.6458L394.537 81.9749C394.228 79.146 393.466 76.3458 392.237 73.6893L395.551 68.5772C395.666 68.3977 395.659 68.1679 395.522 67.9956L391.015 62.2445C390.886 62.0794 390.663 62.0076 390.454 62.0794L384.689 64.061C382.404 62.2301 379.866 60.8157 377.192 59.8321L375.92 53.8727C375.877 53.6645 375.704 53.5066 375.488 53.4778L368.228 52.5947C368.013 52.566 367.811 52.6809 367.718 52.8747L365.044 58.353C362.212 58.6617 359.408 59.4228 356.749 60.6506L351.631 57.3406C351.451 57.2257 351.221 57.2329 351.048 57.3693L345.29 61.8711C345.125 62.0004 345.053 62.223 345.125 62.4312L347.109 68.1895C345.276 70.4727 343.86 73.0072 342.875 75.6781L336.909 76.949C336.7 76.992 336.542 77.1644 336.514 77.3797L335.629 84.6315Z" fill="#A78BEF"/>
<path opacity="0.56" d="M362.643 89.9804C360.163 87.3956 359.883 83.3103 362.14 80.3952C364.627 77.193 369.249 76.6114 372.455 79.0957C374.008 80.2947 375 82.0323 375.244 83.978C375.488 85.9238 374.964 87.848 373.756 89.3988C371.269 92.6011 366.647 93.1827 363.441 90.6984C363.16 90.4758 362.887 90.2317 362.643 89.9804ZM372.031 81.0055C371.837 80.8045 371.635 80.6178 371.413 80.4455C368.954 78.5428 365.41 78.988 363.506 81.4435C361.601 83.899 362.046 87.4387 364.505 89.3414C366.963 91.2441 370.507 90.7989 372.412 88.3434C373.332 87.1515 373.742 85.6796 373.548 84.1862C373.389 82.9728 372.857 81.8671 372.031 81.0055Z" fill="white"/>
<path opacity="0.56" d="M355.088 97.4333C354.664 96.9882 354.254 96.5215 353.873 96.0333C353.751 95.8753 353.636 95.7245 353.521 95.5666C352.946 94.784 352.443 93.9583 352.004 93.1039C351.997 93.0895 351.99 93.0823 351.99 93.068C351.976 93.0321 351.954 93.0033 351.94 92.9674C351.904 92.9028 351.875 92.8382 351.846 92.7736C351.76 92.6013 351.803 92.4002 351.933 92.2782C351.961 92.2495 352.004 92.2207 352.04 92.1992C352.256 92.0987 352.508 92.1848 352.615 92.4002C353.147 93.4988 353.801 94.5398 354.556 95.5091C358.316 100.312 364.138 102.574 369.803 102.021C372.951 101.72 376.056 100.542 378.73 98.4529C379.198 98.0867 379.643 97.699 380.068 97.2897C382.921 94.5542 384.726 90.9571 385.214 86.9866C385.775 82.4273 384.517 77.9184 381.685 74.2997C375.834 66.8254 364.986 65.5043 357.511 71.3487C357.051 71.7077 356.605 72.0883 356.188 72.4904C354.369 74.2351 352.953 76.3531 352.048 78.7081C352.026 78.7656 351.99 78.823 351.947 78.8661C351.832 78.9738 351.659 79.0169 351.494 78.9594C351.271 78.8733 351.163 78.6292 351.25 78.4066C352.199 75.9367 353.686 73.7109 355.599 71.8801C356.037 71.4564 356.504 71.0544 356.986 70.681C364.836 64.5422 376.222 65.9351 382.368 73.7756C385.344 77.5737 386.659 82.3053 386.077 87.0943C385.567 91.2658 383.669 95.0424 380.679 97.9072C380.233 98.3308 379.766 98.7401 379.27 99.1278C375.467 102.1 370.73 103.414 365.935 102.833C361.745 102.316 357.956 100.42 355.088 97.4333Z" fill="white"/>
<g opacity="0.3">
<path d="M289.287 52.1425C289.085 51.9343 289.042 51.6184 289.193 51.3527C289.473 50.8645 289.768 50.3834 290.077 49.9095C290.279 49.6008 290.688 49.5218 290.997 49.7157C291.306 49.9167 291.386 50.326 291.191 50.6347C290.897 51.0799 290.616 51.5466 290.343 52.0132C290.163 52.3292 289.754 52.4369 289.437 52.2574C289.373 52.2215 289.33 52.1856 289.287 52.1425Z" fill="url(#paint5_linear_644_7711)"/>
<path d="M292.212 47.9781C291.982 47.734 291.96 47.3534 292.183 47.0949C292.809 46.3554 293.484 45.6446 294.182 44.9769C294.325 44.8333 294.476 44.6969 294.627 44.5604C294.9 44.3163 295.317 44.3522 295.562 44.5963C295.806 44.862 295.792 45.2856 295.526 45.5297C295.382 45.659 295.238 45.7954 295.102 45.9318C294.433 46.5708 293.793 47.2529 293.197 47.9494C292.96 48.2294 292.543 48.2581 292.262 48.0283C292.241 48.0068 292.226 47.9924 292.212 47.9781ZM297.273 43.3255C297.251 43.304 297.229 43.2752 297.208 43.2537C296.992 42.9593 297.064 42.5429 297.359 42.3275C298.315 41.6454 299.314 41.0136 300.342 40.4535C300.666 40.2812 301.068 40.3961 301.241 40.7192C301.413 41.0423 301.298 41.4444 300.975 41.6167C299.997 42.148 299.034 42.7511 298.128 43.4045C297.862 43.5983 297.495 43.5624 297.273 43.3255ZM303.311 40.0443C303.253 39.9868 303.203 39.9079 303.174 39.8289C303.038 39.4914 303.21 39.1037 303.548 38.9745C304.641 38.5437 305.769 38.1847 306.905 37.8903C307.257 37.797 307.617 38.0124 307.71 38.3642C307.803 38.716 307.588 39.075 307.236 39.1683C306.15 39.4483 305.072 39.793 304.037 40.2022C303.771 40.3028 303.491 40.231 303.311 40.0443ZM309.967 38.3426C309.874 38.2421 309.809 38.1129 309.787 37.9693C309.744 37.6103 309.996 37.2728 310.363 37.2298C311.527 37.079 312.713 37.0072 313.878 37C314.244 37 314.539 37.2944 314.539 37.6606C314.539 38.0267 314.244 38.3211 313.878 38.3211C312.763 38.3211 311.635 38.4001 310.521 38.5365C310.312 38.5652 310.111 38.4862 309.967 38.3426ZM316.846 38.3211C316.717 38.1847 316.645 37.9908 316.667 37.7826C316.71 37.4236 317.04 37.1651 317.4 37.201C318.564 37.3375 319.729 37.5529 320.865 37.8329C321.224 37.919 321.44 38.278 321.346 38.6298C321.26 38.9817 320.901 39.2042 320.548 39.1109C319.463 38.8452 318.349 38.6442 317.242 38.5078C317.084 38.5006 316.947 38.4216 316.846 38.3211ZM323.517 39.9581C323.345 39.7786 323.28 39.513 323.373 39.2617C323.503 38.9242 323.884 38.7519 324.229 38.8811C325.321 39.2976 326.4 39.7858 327.435 40.3387C327.758 40.511 327.88 40.913 327.708 41.2361C327.535 41.5592 327.133 41.6813 326.809 41.509C325.825 40.9848 324.797 40.5182 323.754 40.1233C323.661 40.0874 323.582 40.0299 323.517 39.9581ZM329.584 43.1819C329.368 42.9593 329.332 42.6075 329.519 42.3419C329.728 42.0403 330.145 41.9685 330.439 42.1839C331.395 42.8516 332.323 43.5983 333.193 44.3809C333.458 44.6322 333.487 45.0487 333.236 45.3143C332.991 45.5872 332.574 45.6087 332.301 45.3574C331.467 44.6035 330.59 43.8999 329.677 43.2609C329.642 43.2393 329.613 43.2106 329.584 43.1819ZM336.758 50.5341C336.729 50.5054 336.708 50.4767 336.686 50.4408C336.147 49.6366 335.557 48.854 334.932 48.1001C334.839 47.9853 334.745 47.8776 334.652 47.7627C334.415 47.4827 334.443 47.0662 334.716 46.8293C334.997 46.5924 335.421 46.6139 335.651 46.8939C335.752 47.0088 335.852 47.1308 335.953 47.2457C336.607 48.0283 337.225 48.854 337.786 49.6941C337.987 49.9956 337.908 50.4049 337.606 50.6131C337.333 50.807 336.981 50.7567 336.758 50.5341Z" fill="#E527BB"/>
</g>
<g opacity="0.3">
<path d="M293.643 85.6224C293.391 85.3639 293.398 84.9475 293.657 84.6962C293.916 84.4377 294.34 84.4449 294.592 84.7034C295.361 85.486 296.187 86.2327 297.05 86.9148C297.33 87.1445 297.381 87.561 297.158 87.841C296.928 88.1282 296.511 88.1713 296.23 87.9487C295.325 87.2235 294.455 86.4481 293.643 85.6224ZM291.414 83.0735C291.4 83.0592 291.386 83.0376 291.364 83.0161C290.66 82.1042 290.005 81.1421 289.416 80.1513C289.229 79.8354 289.33 79.4333 289.646 79.2466C289.962 79.06 290.365 79.1677 290.552 79.4764C291.112 80.417 291.738 81.336 292.413 82.2048C292.636 82.492 292.586 82.9084 292.291 83.131C292.025 83.3464 291.644 83.3105 291.414 83.0735ZM298.933 89.8226C298.732 89.6144 298.689 89.2841 298.847 89.0185C299.034 88.7098 299.444 88.6092 299.76 88.8031C300.702 89.3775 301.679 89.9016 302.678 90.354C303.009 90.5047 303.16 90.8996 303.009 91.2299C302.858 91.5602 302.463 91.711 302.132 91.5602C301.083 91.0863 300.055 90.5335 299.07 89.9375C299.012 89.9016 298.969 89.8657 298.933 89.8226ZM287.95 77.265C287.899 77.2075 287.856 77.1501 287.82 77.0711C287.353 76.0157 286.95 74.9243 286.62 73.8186C286.512 73.4668 286.713 73.1006 287.065 72.9929C287.418 72.8852 287.784 73.0863 287.892 73.4381C288.208 74.4864 288.596 75.5346 289.035 76.5398C289.179 76.8773 289.028 77.265 288.697 77.4086C288.438 77.5306 288.136 77.4588 287.95 77.265ZM305.086 92.6228C304.921 92.4505 304.856 92.2064 304.935 91.9623C305.043 91.6104 305.417 91.4238 305.769 91.5315C306.819 91.8617 307.897 92.1346 308.975 92.3356C309.335 92.4002 309.572 92.7449 309.507 93.111C309.443 93.47 309.097 93.707 308.738 93.6424C307.602 93.427 306.474 93.1469 305.374 92.8023C305.252 92.7592 305.158 92.7018 305.086 92.6228ZM311.728 93.8649C311.606 93.7357 311.534 93.5562 311.541 93.3623C311.563 92.9962 311.879 92.7233 312.246 92.7449C313.346 92.8167 314.46 92.8167 315.553 92.7592C315.919 92.7377 316.228 93.0177 316.25 93.3839C316.271 93.7501 315.991 94.0588 315.624 94.0803C314.474 94.1449 313.31 94.1378 312.16 94.066C311.994 94.0588 311.836 93.9798 311.728 93.8649ZM318.478 93.4844C318.392 93.3911 318.327 93.2762 318.306 93.1469C318.241 92.7879 318.478 92.4433 318.838 92.3787C319.923 92.1848 321.001 91.9192 322.051 91.5961C322.403 91.4884 322.77 91.6822 322.877 92.0341C322.985 92.3859 322.791 92.752 322.439 92.8597C321.339 93.1972 320.203 93.4772 319.068 93.6783C318.852 93.7142 318.629 93.6352 318.478 93.4844Z" fill="url(#paint6_linear_644_7711)"/>
<path d="M285.994 70.7671C285.908 70.6738 285.843 70.5589 285.822 70.4225C285.728 69.8625 285.649 69.3024 285.585 68.7496C285.542 68.3834 285.808 68.0603 286.167 68.0172C286.526 67.9813 286.857 68.2398 286.9 68.5988C286.958 69.1229 287.037 69.6614 287.123 70.1928C287.188 70.5518 286.943 70.8964 286.584 70.9538C286.361 70.9969 286.138 70.9179 285.994 70.7671Z" fill="url(#paint7_linear_644_7711)"/>
</g>
<path d="M292.543 65.2458C292.528 65.3894 292.6 65.5259 292.73 65.5905L296.396 67.3783C296.604 69.2738 297.115 71.1405 297.934 72.9212L295.72 76.3388C295.641 76.4609 295.648 76.6116 295.734 76.7265L298.754 80.5749C298.84 80.6898 298.991 80.7329 299.127 80.6826L302.98 79.3544C304.511 80.5821 306.208 81.5299 307.998 82.1832L308.853 86.1681C308.882 86.3045 308.997 86.4122 309.141 86.4337L314 87.0297C314.144 87.044 314.28 86.9722 314.345 86.843L316.135 83.1813C318.033 82.973 319.901 82.4633 321.684 81.6447L325.106 83.8562C325.228 83.9351 325.379 83.928 325.494 83.8418L329.347 80.8262C329.462 80.7401 329.505 80.5893 329.455 80.4529L328.125 76.6045C329.354 75.0751 330.303 73.3807 330.957 71.5929L334.947 70.7385C335.083 70.7098 335.191 70.5949 335.213 70.4513L335.809 65.5977C335.824 65.4541 335.752 65.3176 335.622 65.253L331.956 63.4652C331.748 61.5697 331.237 59.703 330.418 57.9223L332.632 54.5047C332.711 54.3826 332.704 54.2319 332.618 54.117L329.598 50.2686C329.512 50.1537 329.361 50.1106 329.225 50.1609L325.365 51.4891C323.833 50.2614 322.137 49.3136 320.347 48.6603L319.492 44.6754C319.463 44.539 319.348 44.4313 319.204 44.4098L314.345 43.8138C314.201 43.7995 314.065 43.8713 314 44.0005L312.21 47.6623C310.312 47.8705 308.443 48.3802 306.661 49.1988L303.239 46.9873C303.117 46.9084 302.966 46.9155 302.851 47.0017L298.998 50.0173C298.883 50.1034 298.84 50.2542 298.89 50.3906L300.22 54.239C298.991 55.7684 298.042 57.4628 297.388 59.2506L293.398 60.105C293.262 60.1338 293.154 60.2486 293.132 60.3922L292.543 65.2458Z" fill="#E527BB"/>
<path opacity="0.56" d="M310.55 68.8789C309.809 68.1107 309.342 67.127 309.205 66.0501C309.04 64.7218 309.399 63.415 310.219 62.3596C311.908 60.1769 315.064 59.782 317.242 61.4693C319.427 63.1637 319.822 66.3085 318.133 68.4912C317.314 69.5467 316.128 70.2216 314.805 70.3867C313.475 70.5519 312.167 70.1929 311.11 69.3743C310.909 69.2236 310.722 69.0584 310.55 68.8789ZM316.832 62.8765C316.71 62.7473 316.573 62.6252 316.43 62.5175C314.827 61.2754 312.505 61.5698 311.261 63.1709C310.657 63.9463 310.391 64.9156 310.521 65.8849C310.643 66.8614 311.139 67.7301 311.915 68.3333C312.692 68.9364 313.662 69.202 314.633 69.0728C315.61 68.9507 316.48 68.4553 317.084 67.6799C318.219 66.2224 318.076 64.1689 316.832 62.8765Z" fill="white"/>
<path opacity="0.56" d="M305.288 74.0629C305 73.7613 304.72 73.4454 304.454 73.1079C303.929 72.4402 303.476 71.715 303.095 70.9611C303.081 70.9252 303.059 70.8893 303.045 70.8606C302.916 70.595 302.98 70.2862 303.182 70.0924C303.232 70.0421 303.289 70.0062 303.354 69.9775C303.685 69.8195 304.08 69.956 304.238 70.2862C304.583 70.997 305.007 71.6719 305.496 72.2966C305.525 72.3325 305.554 72.3684 305.575 72.3971C306.747 73.8618 308.242 74.9819 309.924 75.6927C310.837 76.0804 311.815 76.3389 312.821 76.4753C312.828 76.4753 312.835 76.4753 312.843 76.4753C312.871 76.4753 312.893 76.4825 312.914 76.4825C315.869 76.8415 318.787 76.0302 321.138 74.1993C321.44 73.9623 321.727 73.711 322.008 73.4454C323.855 71.6791 325.027 69.3457 325.336 66.7753C325.695 63.8243 324.883 60.9093 323.05 58.5614C321.217 56.2208 318.579 54.7274 315.624 54.3684C312.67 54.0094 309.752 54.8207 307.401 56.6516C307.099 56.8813 306.819 57.1326 306.546 57.3911C305.367 58.5184 304.454 59.8897 303.864 61.419C303.828 61.5124 303.771 61.5914 303.706 61.656C303.527 61.8283 303.261 61.8929 303.009 61.7996C302.671 61.6703 302.499 61.2898 302.628 60.9452C303.282 59.2435 304.31 57.707 305.626 56.4434C305.927 56.149 306.251 55.8762 306.582 55.6177C309.205 53.5642 312.469 52.6596 315.783 53.0616C319.089 53.4637 322.044 55.1294 324.092 57.7501C326.148 60.3708 327.054 63.6305 326.651 66.9332C326.299 69.8124 324.991 72.4187 322.928 74.3931C322.619 74.6875 322.295 74.9675 321.957 75.2332C316.882 79.2109 309.658 78.6149 305.288 74.0629Z" fill="white"/>
<path d="M397.427 182.637C394.502 249.224 333.797 300.646 261.835 297.487C189.88 294.335 133.919 237.793 136.845 171.207C139.77 104.62 200.475 53.1979 272.43 56.3571C344.392 59.5091 400.353 116.051 397.427 182.637Z" fill="#DAA7EE"/>
<path opacity="0.26" d="M260.073 264.775C316.59 264.775 362.406 221.543 362.406 168.213C362.406 114.883 316.59 71.6504 260.073 71.6504C203.557 71.6504 157.741 114.883 157.741 168.213C157.741 221.543 203.557 264.775 260.073 264.775Z" fill="url(#paint8_linear_644_7711)"/>
<g opacity="0.68">
<path d="M300.306 177.504C300.278 198.785 298.818 220.102 295.08 241.082C294.132 246.323 293.039 251.536 291.731 256.698C290.415 261.86 288.898 266.98 287.044 271.984C286.109 274.483 285.096 276.953 283.953 279.372C282.81 281.785 281.53 284.147 280.057 286.387C278.576 288.613 276.887 290.752 274.817 292.504C273.782 293.373 272.639 294.148 271.395 294.716C270.144 295.276 268.786 295.635 267.405 295.656C266.025 295.699 264.645 295.426 263.373 294.917C262.093 294.407 260.929 293.675 259.872 292.827C257.752 291.126 256.026 289.015 254.517 286.811C253.007 284.592 251.721 282.237 250.556 279.832C249.399 277.426 248.364 274.957 247.422 272.465C245.539 267.468 244.008 262.356 242.685 257.201C241.362 252.038 240.255 246.826 239.299 241.592C237.394 231.116 236.1 220.533 235.224 209.928C234.354 199.316 233.93 188.676 233.879 178.028C233.858 172.708 233.987 167.387 234.174 162.067C234.368 156.747 234.656 151.433 235.044 146.128C235.82 135.516 236.985 124.925 238.724 114.421C239.594 109.173 240.615 103.946 241.844 98.7617C243.073 93.5849 244.504 88.4441 246.279 83.4182C247.17 80.9052 248.148 78.421 249.255 75.9942C250.362 73.5674 251.606 71.198 253.072 68.9579C254.538 66.7249 256.221 64.5925 258.312 62.8909C259.362 62.0436 260.512 61.3113 261.777 60.8159C263.035 60.3133 264.401 60.0548 265.759 60.105C267.118 60.1409 268.455 60.4856 269.691 61.0313C270.928 61.5769 272.064 62.3236 273.113 63.1709C275.205 64.8725 276.937 66.9475 278.468 69.1302C279.999 71.3201 281.336 73.6464 282.537 76.0229C283.744 78.3994 284.823 80.8478 285.815 83.3177C287.791 88.2718 289.423 93.348 290.847 98.4816C292.263 103.615 293.463 108.806 294.498 114.026C298.581 134.898 300.249 156.222 300.306 177.504ZM299.02 177.504C299.034 166.892 298.624 156.28 297.74 145.711C296.863 135.142 295.533 124.595 293.564 114.177C292.579 108.964 291.429 103.788 290.063 98.6611C288.69 93.5419 287.116 88.4729 285.189 83.5331C284.226 81.0632 283.177 78.6292 281.998 76.2598C280.826 73.8905 279.518 71.5785 278.03 69.3958C276.535 67.2275 274.845 65.1597 272.818 63.4868C271.805 62.6539 270.705 61.9216 269.512 61.3759C268.318 60.8446 267.039 60.4928 265.731 60.4569C264.43 60.4138 263.121 60.6723 261.921 61.1677C260.713 61.6559 259.599 62.3739 258.585 63.2068C256.558 64.8869 254.919 66.9906 253.496 69.2092C252.073 71.4349 250.865 73.7971 249.78 76.2096C248.702 78.622 247.753 81.0991 246.89 83.6049C245.172 88.6165 243.792 93.7429 242.613 98.9124C241.441 104.082 240.471 109.302 239.644 114.543C238.005 125.026 236.934 135.595 236.251 146.185C235.569 156.775 235.317 167.387 235.331 177.999C235.31 188.611 235.676 199.223 236.467 209.799C237.272 220.375 238.494 230.929 240.327 241.376C241.247 246.596 242.318 251.794 243.598 256.935C244.885 262.076 246.373 267.166 248.206 272.135C249.126 274.619 250.132 277.067 251.261 279.451C252.396 281.835 253.654 284.168 255.121 286.351C256.587 288.527 258.262 290.594 260.289 292.239C261.303 293.05 262.41 293.761 263.603 294.242C264.796 294.73 266.076 294.996 267.355 294.953C268.635 294.924 269.9 294.586 271.072 294.048C272.243 293.509 273.321 292.77 274.313 291.923C276.297 290.228 277.929 288.132 279.374 285.935C282.242 281.505 284.363 276.622 286.189 271.661C288 266.685 289.474 261.588 290.746 256.447C292.011 251.299 293.075 246.101 293.981 240.881C295.799 230.434 297.007 219.88 297.812 209.296C298.646 198.728 299.02 188.116 299.02 177.504Z" fill="white"/>
<path d="M354.039 177.504C354.01 184.353 353.579 191.203 352.666 197.988C351.746 204.773 350.387 211.501 348.547 218.099C344.83 231.281 339.224 243.961 331.59 255.348C327.773 261.035 323.445 266.391 318.607 271.245C313.777 276.098 308.422 280.449 302.621 284.104C296.82 287.744 290.544 290.673 283.981 292.655C277.411 294.622 270.554 295.649 263.696 295.642C256.839 295.649 249.981 294.63 243.411 292.669C236.841 290.688 230.565 287.766 224.757 284.125C218.949 280.478 213.594 276.127 208.749 271.273C203.904 266.42 199.569 261.071 195.745 255.377C188.097 243.99 182.483 231.296 178.752 218.113C176.905 211.515 175.532 204.78 174.612 197.988C173.699 191.196 173.267 184.339 173.246 177.489C173.267 170.64 173.706 163.783 174.619 156.991C175.539 150.199 176.919 143.471 178.766 136.873C182.504 123.69 188.126 111.011 195.781 99.6304C199.605 93.9439 203.94 88.6021 208.785 83.7485C213.622 78.902 218.978 74.5582 224.786 70.918C230.594 67.285 236.862 64.3843 243.425 62.4026C249.988 60.4353 256.838 59.4158 263.689 59.4158C270.539 59.4158 277.39 60.4425 283.946 62.417C290.501 64.3986 296.769 67.3137 302.57 70.9467C308.371 74.5869 313.719 78.9379 318.557 83.7844C323.395 88.638 327.722 93.9798 331.539 99.6663C339.18 111.046 344.794 123.719 348.518 136.894C350.358 143.492 351.724 150.22 352.644 157.005C353.571 163.812 354.01 170.654 354.039 177.504ZM352.565 177.504C352.558 170.719 352.155 163.934 351.271 157.206C350.387 150.479 349.057 143.808 347.253 137.267C343.652 124.193 338.217 111.571 330.734 100.226C326.996 94.5614 322.748 89.2196 317.989 84.3659C313.231 79.5195 307.976 75.1469 302.233 71.5067C296.489 67.8737 290.293 64.9443 283.787 62.9626C277.282 60.9954 270.489 59.9758 263.689 59.9614C256.889 59.9758 250.103 61.0097 243.598 62.977C237.092 64.9658 230.903 67.8952 225.167 71.5283C219.431 75.1757 214.176 79.5482 209.432 84.3947C204.68 89.2483 200.439 94.5901 196.708 100.255C189.24 111.599 183.813 124.214 180.226 137.289C176.653 150.378 174.921 163.941 174.921 177.504C174.928 191.067 176.66 204.629 180.247 217.711C183.841 230.779 189.276 243.387 196.744 254.724C200.475 260.389 204.716 265.723 209.468 270.57C214.219 275.409 219.467 279.781 225.203 283.422C230.939 287.048 237.135 289.963 243.626 291.951C250.125 293.926 256.903 294.953 263.696 294.974C270.489 294.96 277.268 293.933 283.766 291.966C290.264 289.984 296.46 287.069 302.204 283.45C307.94 279.817 313.202 275.452 317.953 270.606C322.712 265.759 326.953 260.424 330.698 254.759C338.181 243.422 343.623 230.807 347.231 217.74C349.036 211.199 350.365 204.529 351.257 197.801C352.148 191.074 352.558 184.289 352.565 177.504Z" fill="white"/>
<path d="M158.079 130.748L185.257 130.569L212.436 130.468L266.801 130.389L321.167 130.482L348.345 130.59L375.524 130.784C375.56 130.784 375.589 130.813 375.589 130.849C375.589 130.885 375.56 130.913 375.524 130.913L348.345 131.107L321.167 131.215L266.801 131.308L212.436 131.229L185.257 131.129L158.079 130.949C158.028 130.949 157.985 130.906 157.985 130.849C157.985 130.791 158.028 130.748 158.079 130.748Z" fill="white"/>
<path d="M189.614 85.2706L208.914 85.0911L228.215 84.9906C234.648 84.9475 241.082 84.9547 247.515 84.9403L266.816 84.9116L305.41 85.005L324.71 85.1127L344.011 85.3065C344.047 85.3065 344.076 85.3352 344.076 85.3711C344.076 85.407 344.047 85.4358 344.011 85.4358L324.71 85.6296L305.41 85.7373L266.802 85.8235L247.501 85.7947C241.068 85.7804 234.634 85.7876 228.2 85.7445L208.914 85.644L189.614 85.4645C189.563 85.4645 189.52 85.4214 189.52 85.364C189.52 85.3137 189.563 85.2706 189.614 85.2706Z" fill="white"/>
<path d="M148.633 176.218L178.177 176.039L207.721 175.938L266.809 175.859L325.897 175.953L355.44 176.06L384.984 176.254C385.02 176.254 385.049 176.283 385.049 176.319C385.049 176.355 385.02 176.384 384.984 176.384L355.44 176.577L325.897 176.685L266.809 176.778L207.721 176.699L178.177 176.599L148.633 176.419C148.583 176.419 148.54 176.376 148.54 176.319C148.54 176.261 148.583 176.218 148.633 176.218Z" fill="white"/>
<path d="M158.079 221.689L185.257 221.509L212.436 221.409L266.801 221.33L321.167 221.423L348.345 221.531L375.524 221.725C375.56 221.725 375.589 221.753 375.589 221.789C375.589 221.825 375.56 221.854 375.524 221.854L348.345 222.048L321.167 222.156L266.801 222.249L212.436 222.17L185.257 222.069L158.079 221.89C158.028 221.89 157.985 221.847 157.985 221.789C157.985 221.732 158.028 221.689 158.079 221.689Z" fill="white"/>
<path d="M347.886 267.604H193.503C193.316 267.604 193.165 267.454 193.165 267.267C193.165 267.08 193.316 266.929 193.503 266.929H347.886C348.072 266.929 348.223 267.08 348.223 267.267C348.223 267.446 348.072 267.604 347.886 267.604Z" fill="white"/>
</g>
<path d="M314.604 207.795L185.474 205.168C180.241 205.06 175.942 200.996 175.561 195.776L169.171 109.373C168.739 103.493 173.397 98.4814 179.306 98.4885L316.631 98.668C322.31 98.6752 326.882 103.335 326.767 109.014L324.955 197.866C324.84 203.466 320.204 207.91 314.604 207.795Z" fill="#A78BEF"/>
<path opacity="0.87" d="M177.272 117.228L181.527 191.921C181.714 195.166 184.345 197.729 187.601 197.83L311.513 201.649C315.007 201.757 317.911 199 317.982 195.511L319.614 115.218C319.686 111.671 316.804 108.77 313.253 108.82L183.454 110.601C179.881 110.651 177.07 113.667 177.272 117.228Z" fill="white"/>
<path d="M240.076 178.458L310.011 177.791C310.73 177.783 311.312 178.372 311.29 179.083L311.269 180.21C311.254 180.907 310.687 181.46 309.989 181.452L240.076 180.993C239.364 180.986 238.796 180.404 238.811 179.7C238.832 179.018 239.386 178.466 240.076 178.458Z" fill="url(#paint9_linear_644_7711)"/>
<path d="M238.696 185.552L238.689 186.033C238.674 186.737 239.235 187.311 239.932 187.325L309.824 188.747C310.528 188.761 311.103 188.201 311.118 187.505L311.125 187.024C311.139 186.32 310.579 185.746 309.881 185.731L239.99 184.31C239.292 184.295 238.71 184.856 238.696 185.552Z" fill="#A78BEF"/>
<path d="M259.779 192.244L259.772 192.452C259.757 193.155 260.318 193.73 261.015 193.744L309.694 194.735C310.399 194.749 310.974 194.189 310.988 193.493L311.01 192.502C311.024 191.791 310.456 191.21 309.745 191.21L261.051 191.002C260.361 190.994 259.793 191.547 259.779 192.244Z" fill="#A78BEF"/>
<path d="M295.548 186.421H152.285C146.477 186.421 141.625 182.005 141.079 176.233L132.05 80.5532C131.439 74.0411 136.492 68.3833 143.041 68.2541L295.332 65.3606C301.629 65.2385 306.805 70.3075 306.805 76.6043V175.177C306.805 181.388 301.758 186.421 295.548 186.421Z" fill="#E527BB"/>
<path opacity="0.87" d="M141.208 89.083L147.613 171.817C147.893 175.414 150.869 178.2 154.478 178.236L291.975 179.672C295.85 179.715 299.013 176.584 299.013 172.722V83.6478C299.013 79.7132 295.749 76.5612 291.817 76.6976L147.908 81.5943C143.954 81.7307 140.899 85.134 141.208 89.083Z" fill="white"/>
<path d="M214.615 88.3292L292.148 86.0101C292.946 85.9885 293.6 86.6203 293.6 87.4173V88.6666C293.6 89.4349 292.982 90.0667 292.212 90.0739L214.68 91.1437C213.896 91.1581 213.249 90.519 213.249 89.7364C213.242 88.9754 213.853 88.3507 214.615 88.3292Z" fill="#E527BB"/>
<path d="M213.242 96.2271V96.7584C213.242 97.5338 213.875 98.1657 214.651 98.1657H292.184C292.96 98.1657 293.593 97.5338 293.593 96.7584V96.2271C293.593 95.4517 292.96 94.8198 292.184 94.8198H214.651C213.875 94.8198 213.242 95.4517 213.242 96.2271Z" fill="#E527BB"/>
<path d="M236.776 103.17V103.4C236.776 104.175 237.409 104.807 238.185 104.807H292.191C292.967 104.807 293.6 104.175 293.6 103.4V102.301C293.6 101.511 292.953 100.879 292.169 100.894L238.164 101.755C237.395 101.777 236.776 102.402 236.776 103.17Z" fill="#E527BB"/>
<path d="M273.041 145.682C272.905 145.682 272.768 145.639 272.66 145.546L249.384 126.663L226.439 143.449C226.181 143.636 225.814 143.593 225.613 143.349L193.697 105.101C190.067 108.282 166.554 128.874 163.42 131.61C163.168 131.832 162.78 131.803 162.557 131.552C162.334 131.301 162.363 130.913 162.615 130.691C166.015 127.725 193.359 103.773 193.359 103.773C193.481 103.665 193.646 103.608 193.805 103.622C193.97 103.637 194.121 103.716 194.229 103.838L226.181 142.121L249.039 125.399C249.262 125.234 249.571 125.241 249.787 125.42L273.027 144.282L285.47 133.419C285.721 133.196 286.109 133.225 286.332 133.476C286.555 133.728 286.526 134.115 286.275 134.338L273.444 145.539C273.329 145.632 273.185 145.682 273.041 145.682Z" fill="#E527BB"/>
<path d="M194.243 166.245C194.02 166.245 193.833 166.066 193.833 165.836V164.616C193.833 164.393 194.013 164.206 194.243 164.206C194.466 164.206 194.653 164.386 194.653 164.616V165.836C194.646 166.066 194.466 166.245 194.243 166.245ZM194.243 162.189C194.02 162.189 193.833 162.009 193.833 161.779V160.559C193.833 160.336 194.013 160.15 194.243 160.15C194.466 160.15 194.653 160.329 194.653 160.559V161.779C194.646 162.009 194.466 162.189 194.243 162.189ZM194.243 158.132C194.02 158.132 193.833 157.953 193.833 157.723V156.502C193.833 156.28 194.013 156.093 194.243 156.093C194.466 156.093 194.653 156.272 194.653 156.502V157.723C194.646 157.945 194.466 158.132 194.243 158.132ZM194.243 154.068C194.02 154.068 193.833 153.889 193.833 153.659V152.438C193.833 152.216 194.013 152.029 194.243 152.029C194.466 152.029 194.653 152.209 194.653 152.438V153.659C194.646 153.889 194.466 154.068 194.243 154.068ZM194.243 150.012C194.02 150.012 193.833 149.832 193.833 149.602V148.382C193.833 148.159 194.013 147.973 194.243 147.973C194.466 147.973 194.653 148.152 194.653 148.382V149.602C194.646 149.832 194.466 150.012 194.243 150.012ZM194.243 145.948C194.02 145.948 193.833 145.768 193.833 145.539V144.318C193.833 144.095 194.013 143.909 194.243 143.909C194.466 143.909 194.653 144.088 194.653 144.318V145.539C194.646 145.768 194.466 145.948 194.243 145.948ZM194.243 141.891C194.02 141.891 193.833 141.712 193.833 141.482V140.261C193.833 140.039 194.013 139.852 194.243 139.852C194.466 139.852 194.653 140.032 194.653 140.261V141.482C194.646 141.712 194.466 141.891 194.243 141.891ZM194.243 137.834C194.02 137.834 193.833 137.655 193.833 137.425V136.205C193.833 135.982 194.013 135.795 194.243 135.795C194.466 135.795 194.653 135.975 194.653 136.205V137.425C194.646 137.648 194.466 137.834 194.243 137.834ZM194.243 133.771C194.02 133.771 193.833 133.591 193.833 133.361V132.141C193.833 131.918 194.013 131.732 194.243 131.732C194.466 131.732 194.653 131.911 194.653 132.141V133.361C194.646 133.591 194.466 133.771 194.243 133.771ZM194.243 129.714C194.02 129.714 193.833 129.535 193.833 129.305V128.084C193.833 127.862 194.013 127.675 194.243 127.675C194.466 127.675 194.653 127.854 194.653 128.084V129.305C194.646 129.535 194.466 129.714 194.243 129.714ZM194.243 125.657C194.02 125.657 193.833 125.478 193.833 125.248V124.028C193.833 123.805 194.013 123.618 194.243 123.618C194.466 123.618 194.653 123.798 194.653 124.028V125.248C194.646 125.471 194.466 125.657 194.243 125.657ZM194.243 121.594C194.02 121.594 193.833 121.414 193.833 121.184V119.964C193.833 119.741 194.013 119.554 194.243 119.554C194.466 119.554 194.653 119.734 194.653 119.964V121.184C194.646 121.414 194.466 121.594 194.243 121.594ZM194.243 117.537C194.02 117.537 193.833 117.357 193.833 117.128V115.907C193.833 115.684 194.013 115.498 194.243 115.498C194.466 115.498 194.653 115.677 194.653 115.907V117.128C194.646 117.357 194.466 117.537 194.243 117.537ZM194.243 113.48C194.02 113.48 193.833 113.301 193.833 113.071V111.85C193.833 111.628 194.013 111.441 194.243 111.441C194.466 111.441 194.653 111.621 194.653 111.85V113.071C194.646 113.294 194.466 113.48 194.243 113.48Z" fill="#E527BB"/>
<path d="M226.08 166.992C225.857 166.992 225.67 166.813 225.67 166.583V165.362C225.67 165.14 225.85 164.953 226.08 164.953C226.303 164.953 226.49 165.133 226.49 165.362V166.583C226.483 166.813 226.303 166.992 226.08 166.992ZM226.08 162.936C225.857 162.936 225.67 162.756 225.67 162.526V161.306C225.67 161.083 225.85 160.896 226.08 160.896C226.303 160.896 226.49 161.076 226.49 161.306V162.526C226.483 162.756 226.303 162.936 226.08 162.936ZM226.08 158.879C225.857 158.879 225.67 158.699 225.67 158.47V157.249C225.67 157.026 225.85 156.84 226.08 156.84C226.303 156.84 226.49 157.019 226.49 157.249V158.47C226.483 158.692 226.303 158.879 226.08 158.879ZM226.08 154.815C225.857 154.815 225.67 154.636 225.67 154.406V153.185C225.67 152.963 225.85 152.776 226.08 152.776C226.303 152.776 226.49 152.955 226.49 153.185V154.406C226.483 154.636 226.303 154.815 226.08 154.815ZM226.08 150.758C225.857 150.758 225.67 150.579 225.67 150.349V149.129C225.67 148.906 225.85 148.719 226.08 148.719C226.303 148.719 226.49 148.899 226.49 149.129V150.349C226.483 150.579 226.303 150.758 226.08 150.758ZM226.08 146.695C225.857 146.695 225.67 146.515 225.67 146.285V145.065C225.67 144.842 225.85 144.656 226.08 144.656C226.303 144.656 226.49 144.835 226.49 145.065V146.285C226.483 146.515 226.303 146.695 226.08 146.695Z" fill="#E527BB"/>
<path d="M250.276 167.775C250.06 167.775 249.873 167.602 249.873 167.38L249.837 166.159C249.83 165.937 250.01 165.75 250.233 165.743C250.47 165.729 250.642 165.915 250.65 166.138L250.686 167.358C250.693 167.581 250.513 167.768 250.29 167.775C250.283 167.775 250.276 167.775 250.276 167.775ZM250.146 163.718C249.931 163.718 249.744 163.546 249.744 163.323L249.708 162.103C249.701 161.88 249.881 161.693 250.103 161.686C250.326 161.679 250.513 161.859 250.52 162.081L250.556 163.302C250.563 163.524 250.384 163.711 250.161 163.718C250.154 163.718 250.154 163.718 250.146 163.718ZM250.017 159.661C249.801 159.661 249.615 159.489 249.615 159.267L249.579 158.046C249.571 157.823 249.751 157.637 249.974 157.63C250.197 157.615 250.384 157.802 250.391 158.024L250.427 159.245C250.434 159.468 250.254 159.654 250.031 159.661C250.031 159.661 250.024 159.661 250.017 159.661ZM249.895 155.605C249.679 155.605 249.492 155.433 249.492 155.21L249.456 153.989C249.449 153.767 249.629 153.58 249.852 153.573C250.082 153.559 250.261 153.745 250.269 153.968L250.305 155.188C250.312 155.411 250.132 155.598 249.909 155.605C249.902 155.605 249.895 155.605 249.895 155.605ZM249.765 151.541C249.55 151.541 249.363 151.369 249.363 151.146L249.327 149.926C249.32 149.703 249.5 149.516 249.722 149.509C249.952 149.495 250.132 149.681 250.139 149.904L250.175 151.125C250.182 151.347 250.003 151.534 249.78 151.541C249.78 151.541 249.773 151.541 249.765 151.541ZM249.643 147.484C249.428 147.484 249.241 147.312 249.241 147.089L249.205 145.869C249.198 145.646 249.377 145.46 249.6 145.452C249.816 145.431 250.01 145.625 250.017 145.847L250.053 147.068C250.06 147.291 249.88 147.477 249.658 147.484C249.65 147.484 249.643 147.484 249.643 147.484ZM249.514 143.428C249.298 143.428 249.111 143.255 249.111 143.033L249.075 141.812C249.068 141.59 249.248 141.403 249.471 141.396C249.686 141.389 249.88 141.568 249.888 141.791L249.924 143.011C249.931 143.234 249.751 143.421 249.528 143.428C249.528 143.428 249.521 143.428 249.514 143.428ZM249.392 139.371C249.176 139.371 248.989 139.199 248.989 138.976L248.953 137.756C248.946 137.533 249.126 137.346 249.349 137.339C249.579 137.325 249.758 137.511 249.765 137.734L249.801 138.955C249.809 139.177 249.629 139.364 249.406 139.371C249.399 139.371 249.392 139.371 249.392 139.371ZM249.262 135.314C249.047 135.314 248.86 135.142 248.86 134.92L248.824 133.699C248.817 133.476 248.996 133.29 249.219 133.283C249.456 133.268 249.629 133.455 249.636 133.677L249.672 134.898C249.679 135.121 249.5 135.307 249.277 135.314C249.269 135.314 249.269 135.314 249.262 135.314ZM249.14 131.258C248.924 131.258 248.738 131.085 248.738 130.863L248.702 129.642C248.694 129.42 248.874 129.233 249.097 129.226C249.334 129.212 249.507 129.398 249.514 129.621L249.55 130.841C249.557 131.064 249.377 131.251 249.154 131.258C249.147 131.258 249.14 131.258 249.14 131.258Z" fill="#E527BB"/>
<path d="M273.35 164.443C273.128 164.443 272.941 164.264 272.941 164.034V162.814C272.941 162.591 273.12 162.404 273.35 162.404C273.573 162.404 273.76 162.584 273.76 162.814V164.034C273.753 164.257 273.573 164.443 273.35 164.443ZM273.35 160.38C273.128 160.38 272.941 160.2 272.941 159.97V158.75C272.941 158.527 273.12 158.34 273.35 158.34C273.573 158.34 273.76 158.52 273.76 158.75V159.97C273.753 160.2 273.573 160.38 273.35 160.38ZM273.35 156.323C273.128 156.323 272.941 156.143 272.941 155.914V154.693C272.941 154.47 273.12 154.284 273.35 154.284C273.573 154.284 273.76 154.463 273.76 154.693V155.914C273.753 156.143 273.573 156.323 273.35 156.323ZM273.35 152.266C273.128 152.266 272.941 152.087 272.941 151.857V150.636C272.941 150.414 273.12 150.227 273.35 150.227C273.573 150.227 273.76 150.407 273.76 150.636V151.857C273.753 152.08 273.573 152.266 273.35 152.266ZM273.35 148.202C273.128 148.202 272.941 148.023 272.941 147.793V146.573C272.941 146.35 273.12 146.163 273.35 146.163C273.573 146.163 273.76 146.343 273.76 146.573V147.793C273.753 148.023 273.573 148.202 273.35 148.202Z" fill="#E527BB"/>
<path d="M160.3 172.873C159.984 172.873 159.718 172.636 159.696 172.312L153.141 95.0495C153.112 94.7121 153.364 94.4177 153.694 94.389C154.032 94.3602 154.327 94.6115 154.355 94.9418L160.904 172.212C160.933 172.549 160.681 172.844 160.351 172.873C160.329 172.873 160.315 172.873 160.3 172.873Z" fill="#E527BB"/>
<path d="M151.89 97.5912L153.78 95.3582L156.009 97.2394L155.865 95.4947L153.629 93.6135L151.746 95.8393L151.89 97.5912Z" fill="#E527BB"/>
<path d="M289.596 169.268H155.376C155.038 169.268 154.765 168.995 154.765 168.658C154.765 168.32 155.038 168.048 155.376 168.048H289.596C289.934 168.048 290.207 168.32 290.207 168.658C290.207 168.995 289.934 169.268 289.596 169.268Z" fill="#E527BB"/>
<path d="M287.166 170.726L289.236 168.658L287.166 166.597H288.92L290.99 168.658L288.92 170.726H287.166Z" fill="#E527BB"/>
<path d="M146.635 87.8266C152.284 87.8266 156.864 83.2523 156.864 77.6096C156.864 71.9669 152.284 67.3926 146.635 67.3926C140.986 67.3926 136.406 71.9669 136.406 77.6096C136.406 83.2523 140.986 87.8266 146.635 87.8266Z" fill="url(#paint10_linear_644_7711)"/>
<path d="M146.635 87.482C152.094 87.482 156.519 83.062 156.519 77.6097C156.519 72.1573 152.094 67.7373 146.635 67.7373C141.176 67.7373 136.751 72.1573 136.751 77.6097C136.751 83.062 141.176 87.482 146.635 87.482Z" fill="url(#paint11_linear_644_7711)"/>
<path d="M138.484 73.8903C138.426 73.8903 138.369 73.8759 138.311 73.8472C138.124 73.7539 138.045 73.5241 138.138 73.3302C139.77 70.1065 143.019 68.1033 146.635 68.1033C147.21 68.1033 147.792 68.1535 148.353 68.254C148.562 68.2899 148.698 68.491 148.662 68.6992C148.626 68.9074 148.425 69.0438 148.216 69.0079C147.699 68.9146 147.167 68.8643 146.642 68.8643C143.321 68.8643 140.331 70.7024 138.836 73.6677C138.764 73.8113 138.627 73.8903 138.484 73.8903Z" fill="white"/>
<path opacity="0.78" d="M146.858 86.1824C151.479 86.1824 155.225 82.4406 155.225 77.8249C155.225 73.2093 151.479 69.4675 146.858 69.4675C142.237 69.4675 138.491 73.2093 138.491 77.8249C138.491 82.4406 142.237 86.1824 146.858 86.1824Z" fill="white"/>
<path d="M146.031 84.0357V83.1238C145.082 83.0879 144.14 82.8653 143.479 82.571C143.242 82.4704 143.12 82.1976 143.192 81.9463L143.422 81.0991C143.508 80.7903 143.846 80.6252 144.14 80.7544C144.802 81.0345 145.621 81.2498 146.498 81.2498C147.411 81.2498 148.094 80.9411 148.094 80.3093C148.094 79.7349 147.569 79.3974 146.297 79.0528C144.486 78.5574 143.184 77.7676 143.184 76.1737C143.184 74.7377 144.241 73.6391 146.067 73.3448V72.4329C146.067 72.1385 146.304 71.9016 146.599 71.9016H147.131C147.426 71.9016 147.663 72.1385 147.663 72.4329V73.2514C148.54 73.2873 149.179 73.4381 149.69 73.6176C149.949 73.7109 150.092 73.991 150.021 74.2566L149.805 75.0392C149.726 75.3408 149.402 75.5059 149.108 75.3982C148.64 75.2187 147.979 75.0392 147.124 75.0392C146.038 75.0392 145.729 75.4916 145.729 75.8936C145.729 76.3891 146.383 76.7265 147.792 77.1645C149.805 77.7676 150.646 78.6005 150.646 80.1082C150.646 81.4868 149.625 82.7217 147.641 83.0305V84.05C147.641 84.3444 147.404 84.5813 147.109 84.5813H146.577C146.268 84.567 146.031 84.33 146.031 84.0357Z" fill="url(#paint12_linear_644_7711)"/>
<path d="M175.748 83.2817C185.581 83.2817 193.553 75.3192 193.553 65.497C193.553 55.6749 185.581 47.7124 175.748 47.7124C165.914 47.7124 157.942 55.6749 157.942 65.497C157.942 75.3192 165.914 83.2817 175.748 83.2817Z" fill="url(#paint13_linear_644_7711)"/>
<path d="M175.748 82.6857C185.252 82.6857 192.956 74.9901 192.956 65.497C192.956 56.004 185.252 48.3083 175.748 48.3083C166.243 48.3083 158.539 56.004 158.539 65.497C158.539 74.9901 166.243 82.6857 175.748 82.6857Z" fill="url(#paint14_linear_644_7711)"/>
<path d="M161.558 58.7336C161.5 58.7336 161.443 58.7193 161.385 58.6906C161.198 58.5972 161.119 58.3675 161.213 58.1736C164.002 52.6594 169.565 49.2346 175.747 49.2346C176.732 49.2346 177.724 49.3208 178.68 49.5003C178.889 49.5362 179.025 49.7372 178.989 49.9454C178.953 50.1536 178.752 50.2901 178.544 50.2542C177.624 50.089 176.689 50.0029 175.747 50.0029C169.86 50.0029 164.555 53.2697 161.896 58.5182C161.831 58.6618 161.694 58.7336 161.558 58.7336Z" fill="white"/>
<path opacity="0.78" d="M176.121 80.424C184.169 80.424 190.692 73.9081 190.692 65.8703C190.692 57.8325 184.169 51.3167 176.121 51.3167C168.074 51.3167 161.551 57.8325 161.551 65.8703C161.551 73.9081 168.074 80.424 176.121 80.424Z" fill="white"/>
<path d="M174.698 76.6834V75.1038C173.045 75.0392 171.413 74.6515 170.249 74.1417C169.832 73.9622 169.623 73.4955 169.745 73.0575L170.148 71.5857C170.299 71.0472 170.881 70.7671 171.399 70.9825C172.549 71.4636 173.972 71.8441 175.503 71.8441C177.092 71.8441 178.278 71.3056 178.278 70.1999C178.278 69.2019 177.358 68.6132 175.151 68.0172C171.995 67.1557 169.731 65.7843 169.731 63.0057C169.731 60.4999 171.564 58.59 174.748 58.0731V56.4935C174.748 55.9837 175.165 55.5745 175.669 55.5745H176.603C177.113 55.5745 177.523 55.9909 177.523 56.4935V57.9151C179.054 57.9797 180.161 58.2382 181.045 58.5469C181.498 58.7049 181.743 59.1931 181.62 59.6526L181.247 61.0168C181.103 61.541 180.542 61.8282 180.032 61.6415C179.22 61.3327 178.069 61.0168 176.574 61.0168C174.684 61.0168 174.145 61.7994 174.145 62.4959C174.145 63.3575 175.28 63.9534 177.732 64.7073C181.239 65.7556 182.691 67.2131 182.691 69.8266C182.691 72.2247 180.909 74.3786 177.458 74.9171V76.6906C177.458 77.2003 177.041 77.6096 176.538 77.6096H175.604C175.108 77.6096 174.698 77.1932 174.698 76.6834Z" fill="url(#paint15_linear_644_7711)"/>
<path d="M188.025 123.518C198.145 123.518 206.348 115.324 206.348 105.216C206.348 95.1085 198.145 86.9146 188.025 86.9146C177.906 86.9146 169.702 95.1085 169.702 105.216C169.702 115.324 177.906 123.518 188.025 123.518Z" fill="url(#paint16_linear_644_7711)"/>
<path d="M188.025 122.907C197.807 122.907 205.737 114.987 205.737 105.216C205.737 95.4456 197.807 87.5249 188.025 87.5249C178.243 87.5249 170.313 95.4456 170.313 105.216C170.313 114.987 178.243 122.907 188.025 122.907Z" fill="url(#paint17_linear_644_7711)"/>
<path d="M173.426 98.2445C173.368 98.2445 173.311 98.2301 173.253 98.2014C173.066 98.108 172.987 97.8783 173.081 97.6844C175.949 92.0123 181.671 88.4941 188.025 88.4941C189.039 88.4941 190.052 88.5875 191.044 88.767C191.253 88.8029 191.389 89.0039 191.353 89.2121C191.318 89.4203 191.116 89.5568 190.908 89.5209C189.966 89.3485 188.996 89.2624 188.025 89.2624C181.966 89.2624 176.495 92.6226 173.764 98.0362C173.699 98.1727 173.562 98.2445 173.426 98.2445Z" fill="white"/>
<path opacity="0.78" d="M199.009 116.182C204.862 110.335 204.862 100.857 199.009 95.0108C193.156 89.1647 183.667 89.1647 177.814 95.0108C171.961 100.857 171.961 110.335 177.814 116.182C183.667 122.028 193.156 122.028 199.009 116.182Z" fill="white"/>
<path d="M186.94 116.726V115.096C185.236 115.031 183.561 114.629 182.361 114.105C181.937 113.918 181.714 113.437 181.836 112.992L182.253 111.477C182.404 110.917 183.008 110.63 183.547 110.852C184.733 111.348 186.192 111.743 187.774 111.743C189.412 111.743 190.635 111.19 190.635 110.048C190.635 109.021 189.693 108.411 187.414 107.801C184.165 106.911 181.836 105.503 181.836 102.646C181.836 100.068 183.727 98.1008 186.997 97.5695V95.9397C186.997 95.4156 187.421 94.9919 187.946 94.9919H188.902C189.427 94.9919 189.851 95.4156 189.851 95.9397V97.4044C191.425 97.469 192.568 97.7347 193.481 98.0578C193.948 98.2229 194.2 98.7255 194.071 99.1994L193.69 100.599C193.546 101.138 192.964 101.44 192.439 101.238C191.605 100.923 190.419 100.592 188.881 100.592C186.94 100.592 186.386 101.396 186.386 102.114C186.386 103.005 187.551 103.608 190.081 104.39C193.69 105.475 195.185 106.968 195.185 109.66C195.185 112.13 193.352 114.342 189.801 114.902V116.726C189.801 117.25 189.377 117.673 188.852 117.673H187.896C187.371 117.68 186.94 117.25 186.94 116.726Z" fill="url(#paint18_linear_644_7711)"/>
<path d="M211.531 93.6926C218.943 93.6926 224.951 87.691 224.951 80.2877C224.951 72.8844 218.943 66.8828 211.531 66.8828C204.119 66.8828 198.11 72.8844 198.11 80.2877C198.11 87.691 204.119 93.6926 211.531 93.6926Z" fill="url(#paint19_linear_644_7711)"/>
<path d="M211.531 93.2473C218.697 93.2473 224.506 87.4451 224.506 80.2876C224.506 73.1301 218.697 67.3279 211.531 67.3279C204.365 67.3279 198.556 73.1301 198.556 80.2876C198.556 87.4451 204.365 93.2473 211.531 93.2473Z" fill="url(#paint20_linear_644_7711)"/>
<path d="M200.828 75.2834C200.77 75.2834 200.713 75.269 200.655 75.2403C200.468 75.147 200.389 74.9172 200.482 74.7233C202.596 70.5375 206.83 67.9312 211.524 67.9312C212.271 67.9312 213.026 67.9958 213.752 68.1322C213.961 68.1681 214.097 68.3691 214.061 68.5773C214.025 68.7856 213.824 68.922 213.615 68.8861C212.933 68.764 212.228 68.6994 211.524 68.6994C207.117 68.6994 203.149 71.1406 201.165 75.068C201.108 75.2116 200.971 75.2834 200.828 75.2834Z" fill="white"/>
<path opacity="0.78" d="M213.279 91.4503C219.292 90.6463 223.514 85.1259 222.709 79.1201C221.904 73.1144 216.377 68.8976 210.364 69.7016C204.351 70.5057 200.13 76.0261 200.935 82.0318C201.74 88.0376 207.266 92.2544 213.279 91.4503Z" fill="white"/>
<path d="M210.733 88.724V87.5321C209.489 87.4819 208.253 87.1875 207.383 86.807C207.074 86.6706 206.909 86.3187 207.002 85.9885L207.304 84.8756C207.412 84.4663 207.858 84.2581 208.253 84.4232C209.123 84.7894 210.194 85.0766 211.351 85.0766C212.552 85.0766 213.443 84.6674 213.443 83.8345C213.443 83.0806 212.753 82.6354 211.085 82.1903C208.706 81.5369 206.995 80.503 206.995 78.4137C206.995 76.5253 208.375 75.0822 210.776 74.6945V73.5026C210.776 73.1221 211.085 72.8062 211.473 72.8062H212.178C212.566 72.8062 212.875 73.1149 212.875 73.5026V74.5724C214.025 74.6155 214.866 74.8165 215.535 75.0463C215.873 75.1683 216.06 75.5345 215.966 75.8792L215.686 76.9059C215.578 77.3008 215.154 77.5162 214.766 77.3726C214.155 77.1428 213.285 76.8987 212.156 76.8987C210.733 76.8987 210.323 77.4875 210.323 78.0188C210.323 78.6721 211.179 79.1173 213.026 79.6845C215.671 80.4743 216.771 81.5728 216.771 83.5401C216.771 85.3495 215.427 86.9721 212.825 87.3814V88.7168C212.825 89.0974 212.516 89.4133 212.128 89.4133H211.423C211.049 89.4205 210.733 89.1117 210.733 88.724Z" fill="url(#paint21_linear_644_7711)"/>
<path d="M326.522 309.435C330.325 309.765 336.916 310.296 342.113 310.526C345.24 310.662 347.037 310.361 348.073 309.944C348.073 310.059 348.065 310.174 348.065 310.275C348.044 310.82 347.598 311.258 347.045 311.287C337.225 311.833 329.412 311.474 326.63 311.309C326.055 311.273 325.71 310.648 326.004 310.16C326.155 309.916 326.328 309.672 326.522 309.435Z" fill="#A78BEF"/>
<path d="M342.113 310.526C336.916 310.296 330.325 309.765 326.522 309.434C330.26 304.861 342.113 301.773 342.113 301.773H345.463C347.763 305.091 348.101 308.243 348.072 309.944C347.037 310.353 345.24 310.662 342.113 310.526Z" fill="#A78BEF"/>
<path d="M346.024 296.31L345.708 302.506C345.672 303.174 345.168 303.741 344.5 303.834C343.831 303.927 342.933 303.942 341.984 303.626C341.402 303.432 340.963 302.937 340.855 302.341L339.77 296.31H346.024Z" fill="url(#paint22_linear_644_7711)"/>
<path d="M384.891 316.578C386.537 316.284 387.285 315.178 387.594 313.994C387.594 314.001 387.601 314.015 387.601 314.022C387.845 315.272 387.285 316.557 386.156 317.174C384.798 317.914 383.317 318.043 382.16 317.978C380.923 317.914 379.787 317.253 379.162 316.198L379.155 316.184C380.398 316.98 382.138 317.074 384.891 316.578Z" fill="#A78BEF"/>
<path d="M377.12 298.22H379.881C384.086 298.112 386.731 309.564 387.594 313.994C387.285 315.178 386.537 316.277 384.891 316.579C382.145 317.074 380.398 316.981 379.162 316.184C376.89 312.321 375.762 306.67 375.223 303.367C374.597 299.62 377.12 298.22 377.12 298.22Z" fill="#A78BEF"/>
<path d="M379.529 292.476L381.06 298.564C381.247 299.311 380.887 300.086 380.197 300.438C379.342 300.876 378.134 301.343 377.02 301.206C376.495 301.142 376.064 300.776 375.891 300.287L373.641 293.876L379.529 292.476Z" fill="url(#paint23_linear_644_7711)"/>
<path d="M325.588 212.247C325.588 212.247 339.289 297.796 339.066 298.27C339.066 298.27 342.847 299.986 346.973 298.485C346.973 298.485 345.736 252.749 342.832 235.216C342.832 235.216 366.216 276.091 373.641 296.46C373.641 296.46 377.516 296.001 380.722 293.89C380.722 293.89 355.541 220.317 348.827 210.517L325.588 212.247Z" fill="#231F20"/>
<path d="M342.286 234.771C342.358 234.771 342.437 234.749 342.502 234.706C342.689 234.584 342.746 234.34 342.631 234.146L337.513 225.975C337.455 225.882 337.362 225.817 337.247 225.796L333.48 225.035C333.258 224.992 333.049 225.135 333.006 225.351C332.963 225.566 333.107 225.781 333.322 225.825L336.916 226.55L341.948 234.57C342.02 234.706 342.149 234.771 342.286 234.771Z" fill="#231F20"/>
<path d="M262.712 128.472C262.712 128.472 271.956 130.511 277.584 133.103C278.698 133.62 279.59 134.518 280.1 135.631C281.782 139.314 286.814 148.54 296.576 152.941C295.167 154.801 292.91 158.678 291.925 165.197C286.066 160.839 281.006 153.566 278.576 141.626C278.576 141.626 276.729 142.631 274.421 141.511C273.199 140.922 271.798 140.082 270.741 139.422C269.691 138.761 268.901 137.741 268.599 136.55C268.196 134.97 268.433 133.584 268.433 132.098L263.682 130.626C263.66 130.626 262.23 130.088 262.712 128.472Z" fill="url(#paint24_linear_644_7711)"/>
<path d="M291.91 165.197C292.895 158.685 295.159 154.808 296.561 152.941C302.621 155.677 310.506 156.553 320.549 153.078C321.476 152.754 322.439 152.568 323.417 152.51C328.765 152.194 346.376 151.627 360.954 156.438C364.023 157.45 366.503 159.719 367.79 162.648C371.736 171.688 378.12 192.273 360.393 202.662C359.035 199.287 357.46 196.573 356.116 194.577C358.97 189.767 359.818 183.204 354.75 174.646C351.056 184.605 349.323 199.144 348.964 205.57C348.842 207.688 349.215 209.799 350.049 211.759L350.143 211.974C350.322 212.391 350.078 212.872 349.625 212.972C339.648 215.212 329.268 214.602 326.17 214.344C325.616 214.301 325.156 213.906 325.027 213.367C320.175 192.948 320.168 179.019 321.354 170.216C316.825 171.236 302.952 173.397 291.91 165.197Z" fill="#A78BEF"/>
<path d="M321.347 170.769C321.548 170.769 321.72 170.618 321.749 170.417C322.892 161.823 325.207 158.068 325.235 158.032C325.358 157.845 325.3 157.594 325.113 157.472C324.926 157.357 324.675 157.407 324.552 157.594C324.452 157.752 322.116 161.507 320.951 170.31C320.922 170.532 321.081 170.733 321.296 170.762C321.311 170.769 321.325 170.769 321.347 170.769Z" fill="#A78BEF"/>
<path d="M345.966 140.613C345.966 140.613 346.973 151.275 347.864 154.427C348.001 154.908 347.792 155.411 347.354 155.655C345.844 156.517 342.228 157.917 337.283 155.497C336.478 155.102 335.996 154.269 336.039 153.386L336.478 143.083L345.966 140.613Z" fill="url(#paint25_linear_644_7711)"/>
<path d="M336.255 126.979C336.255 126.979 333.027 134.388 332.812 138.273C332.596 142.157 331.755 144.684 336.255 145.467C340.755 146.25 344.55 144.009 346.599 140.14C346.599 140.14 349.819 134.173 349.093 131.725C348.367 129.276 336.255 126.979 336.255 126.979Z" fill="url(#paint26_linear_644_7711)"/>
<path d="M345.061 137.354L344.802 137.239C344.478 137.095 344.335 136.707 344.5 136.392C345.132 135.164 346.369 132.356 344.773 131.703C342.71 130.856 334.551 129.197 332.79 126.304C331.101 123.525 332.596 119.935 334.853 118.916C335.004 118.844 335.184 118.901 335.256 119.045L335.443 119.397C335.572 119.641 335.931 119.605 336.003 119.339C336.075 119.088 336.413 119.038 336.557 119.26C337.096 120.129 338.562 121.529 342.466 122.247C348.015 123.274 351.688 125.514 351.782 129.348C351.789 129.592 352.048 129.729 352.256 129.599C352.666 129.348 353.32 129.233 354.197 129.966C355.721 131.244 355.095 134.568 351.753 137.303C351.595 137.433 351.595 137.684 351.767 137.792C352.371 138.187 353.277 139.12 350.933 140.376C348.511 141.669 346.707 141.561 346.009 141.446C345.837 141.418 345.722 141.252 345.765 141.08L346.505 137.713C346.549 137.519 346.405 137.339 346.204 137.339L345.061 137.354Z" fill="#231F20"/>
<path d="M344.924 138.064C344.924 138.064 346.153 133.333 348.281 134.661C350.402 135.989 347.181 139.96 345.47 140.139L344.924 138.064Z" fill="url(#paint27_linear_644_7711)"/>
<path d="M276.096 140.527C276.182 140.527 276.276 140.498 276.348 140.434C276.52 140.29 276.549 140.039 276.405 139.867C276.053 139.436 272.955 135.645 271.754 134.97C271.316 134.726 271.057 134.467 271.007 134.238C270.978 134.123 271 134.001 271.064 133.857L274.709 134.589L276.772 136.363C276.937 136.506 277.196 136.492 277.34 136.32C277.483 136.147 277.469 135.896 277.297 135.753L275.154 133.914C275.104 133.871 275.039 133.836 274.968 133.828L270.935 133.017C270.77 132.981 270.611 133.053 270.518 133.189C270.223 133.627 270.123 134.037 270.216 134.431C270.331 134.905 270.698 135.315 271.352 135.681C272.25 136.191 274.845 139.242 275.773 140.384C275.859 140.477 275.981 140.527 276.096 140.527Z" fill="#F8A570"/>
<path d="M345.082 207.789L330.813 207.968L335.809 203.272C337.053 202.102 338.943 201.915 340.381 202.842C341.222 203.387 342.128 204.12 342.919 205.103C342.919 205.103 351.818 201.851 356.138 194.585C357.482 196.581 359.056 199.295 360.415 202.669C356.54 204.931 351.523 206.719 345.082 207.789Z" fill="url(#paint28_linear_644_7711)"/>
<path d="M343.544 209.627C343.515 209.627 343.487 209.627 343.458 209.627L307.236 209.591C306.337 209.591 305.619 208.873 305.619 207.99C305.619 207.107 306.352 206.374 307.243 206.389L343.465 206.425C344.364 206.425 345.082 207.143 345.082 208.026C345.082 208.887 344.399 209.584 343.544 209.627Z" fill="#D621AE"/>
<path d="M274.673 177.123H304.842C307.071 177.123 309.091 178.394 310.039 180.383L323.985 209.605H286.498C285.06 209.605 283.773 208.736 283.249 207.422L272.437 180.376C271.812 178.818 272.977 177.123 274.673 177.123Z" fill="#D73AB4"/>
<path d="M295.929 192.108C296.583 194.118 296.101 196.064 294.85 196.459C293.6 196.854 292.061 195.554 291.407 193.544C290.753 191.533 291.235 189.588 292.485 189.193C293.729 188.798 295.275 190.105 295.929 192.108Z" fill="white"/>
<path d="M224.736 274.224C220.674 269.514 221.702 266.42 223.622 263.605L225.491 273.176L224.736 274.224Z" fill="url(#paint29_linear_644_7711)"/>
<path d="M224.736 274.224C222.91 270.684 222.543 267.145 223.622 263.605C219.611 264.969 217.095 267.353 216.857 271.287L224.736 274.224Z" fill="url(#paint30_linear_644_7711)"/>
<path d="M219.409 315.867H224.621C224.843 315.867 225.023 315.688 225.023 315.465V306.584C225.023 306.361 224.843 306.182 224.621 306.182H219.409C219.186 306.182 219.007 306.361 219.007 306.584V315.465C219.007 315.688 219.186 315.867 219.409 315.867Z" fill="url(#paint31_linear_644_7711)"/>
<path d="M192.726 316.715H197.938C198.161 316.715 198.34 316.535 198.34 316.313V307.431C198.34 307.209 198.161 307.029 197.938 307.029H192.726C192.503 307.029 192.324 307.209 192.324 307.431V316.313C192.331 316.535 192.511 316.715 192.726 316.715Z" fill="url(#paint32_linear_644_7711)"/>
<path d="M207.261 268.329C222.134 268.329 234.454 276.543 236.683 287.27H238.846C240.334 287.27 241.542 288.476 241.542 289.962V295.792C241.542 297.279 240.334 298.485 238.846 298.485H235.231C231.047 307.065 220.106 313.189 207.268 313.189C190.821 313.189 177.487 303.145 177.487 290.759C177.487 278.374 190.814 268.329 207.261 268.329Z" fill="url(#paint33_linear_644_7711)"/>
<path d="M224.736 286.186C225.49 286.186 226.101 285.575 226.101 284.821C226.101 284.068 225.49 283.457 224.736 283.457C223.981 283.457 223.37 284.068 223.37 284.821C223.37 285.575 223.981 286.186 224.736 286.186Z" fill="url(#paint34_linear_644_7711)"/>
<path d="M193.668 272.321C199.203 270.526 202.366 270.002 207.354 270.06C207.513 270.06 207.649 269.938 207.656 269.772C207.663 269.607 207.527 269.464 207.362 269.464C202.287 269.413 199.073 269.945 193.474 271.747C193.308 271.804 193.222 271.991 193.294 272.149V272.156C193.359 272.3 193.517 272.372 193.668 272.321Z" fill="url(#paint35_linear_644_7711)"/>
<path d="M219.639 273.233C214.155 266.879 215.549 262.693 218.137 258.888L220.66 271.812L219.639 273.233Z" fill="url(#paint36_linear_644_7711)"/>
<path d="M219.639 273.233C217.181 268.451 216.678 263.67 218.137 258.888C212.717 260.726 209.324 263.942 209 269.263L219.639 273.233Z" fill="url(#paint37_linear_644_7711)"/>
<path d="M180.765 287.363C180.765 287.363 180.751 287.27 180.736 287.09C180.729 287.047 180.722 286.997 180.722 286.939C180.707 286.86 180.693 286.774 180.672 286.681C180.65 286.588 180.628 286.487 180.607 286.379C180.585 286.272 180.549 286.186 180.513 286.078C180.391 285.661 180.168 285.166 179.823 284.671C179.485 284.175 179.011 283.665 178.407 283.256C177.803 282.84 177.056 282.524 176.229 282.395C176.021 282.366 175.812 282.344 175.604 282.337C175.496 282.337 175.388 282.337 175.287 282.337H175.129C175.137 282.337 175.022 282.344 175.065 282.337H175.057H175.043L175.014 282.344L174.95 282.352L174.82 282.366C174.777 282.373 174.741 282.373 174.669 282.387C174.54 282.409 174.418 282.438 174.288 282.466C174.058 282.531 173.843 282.596 173.627 282.696C173.196 282.883 172.793 283.141 172.441 283.457C172.089 283.78 171.787 284.161 171.557 284.584C171.327 285.008 171.161 285.468 171.09 285.941C171.061 286.178 171.032 286.423 171.039 286.659V286.839V286.889V286.896V286.911L171.046 286.947L171.054 287.018L171.068 287.162L171.104 287.37C171.118 287.435 171.133 287.514 171.147 287.571L171.205 287.751C171.24 287.873 171.291 287.988 171.341 288.095C171.384 288.21 171.456 288.318 171.514 288.426C171.578 288.533 171.65 288.634 171.722 288.734C172.017 289.129 172.398 289.452 172.822 289.682C173.246 289.912 173.713 290.048 174.173 290.084C174.288 290.099 174.403 290.099 174.518 290.091H174.605H174.626H174.633C174.626 290.091 174.705 290.084 174.676 290.091L174.712 290.084L174.849 290.07C174.885 290.07 174.964 290.048 175.029 290.041C175.093 290.027 175.165 290.012 175.223 289.998C175.338 289.962 175.453 289.933 175.553 289.883C176.43 289.524 177.027 288.742 177.192 287.923C177.214 287.823 177.236 287.722 177.236 287.614C177.243 287.564 177.243 287.514 177.25 287.464V287.313V287.241V287.219V287.176V287.148L177.236 287.033C177.221 286.947 177.2 286.803 177.171 286.717C177.113 286.523 177.034 286.344 176.934 286.171C176.826 286.006 176.711 285.855 176.581 285.733C176.049 285.216 175.316 285.051 174.763 285.144C174.109 285.252 173.713 285.647 173.505 286.013C173.397 286.2 173.339 286.379 173.311 286.545C173.275 286.703 173.275 286.846 173.282 286.961C173.289 287.076 173.304 287.169 173.318 287.227C173.332 287.284 173.339 287.313 173.339 287.313C173.397 287.492 173.591 287.586 173.771 287.528C173.936 287.471 174.03 287.306 174.001 287.148V287.133C174.001 287.133 174.001 287.119 173.994 287.083C173.986 287.054 173.986 287.004 173.986 286.947C173.994 286.817 174.022 286.616 174.159 286.415C174.231 286.315 174.324 286.221 174.439 286.143C174.504 286.107 174.561 286.071 174.641 286.049C174.712 286.02 174.799 286.013 174.849 286.006C174.863 286.006 174.907 286.006 174.928 285.999H174.971H174.993C174.95 285.999 174.986 285.999 174.978 285.999H174.986H174.993C175.036 286.006 175.086 286.006 175.129 286.013C175.216 286.028 175.309 286.049 175.395 286.085C175.568 286.157 175.74 286.265 175.87 286.423C175.942 286.494 175.992 286.588 176.042 286.674C176.085 286.767 176.121 286.868 176.143 286.968C176.15 286.997 176.15 287.011 176.15 287.033L176.157 287.062V287.076V287.105L176.164 287.219V287.248C176.164 287.198 176.164 287.234 176.164 287.227V287.234V287.248L176.157 287.291L176.15 287.377C176.143 287.406 176.136 287.435 176.136 287.464C176.129 287.521 176.114 287.578 176.093 287.636C175.963 288.095 175.575 288.498 175.101 288.641C175.043 288.663 174.978 288.67 174.921 288.684C174.892 288.691 174.871 288.691 174.849 288.691C174.82 288.691 174.813 288.699 174.756 288.699L174.619 288.706H174.583C174.547 288.706 174.619 288.706 174.612 288.706H174.605H174.59L174.54 288.699C174.475 288.691 174.403 288.691 174.339 288.677C174.073 288.634 173.814 288.533 173.591 288.383C173.368 288.232 173.174 288.038 173.03 287.808C173.002 287.751 172.958 287.693 172.937 287.636C172.915 287.571 172.879 287.514 172.858 287.449C172.836 287.385 172.815 287.327 172.8 287.263L172.779 287.169C172.772 287.141 172.772 287.119 172.772 287.09C172.772 287.069 172.764 287.04 172.757 287.018L172.75 286.882V286.81V286.774V286.76V286.753C172.75 286.738 172.757 286.832 172.75 286.789L172.757 286.681C172.764 286.537 172.793 286.401 172.822 286.265C172.887 285.992 173.009 285.74 173.153 285.518C173.304 285.295 173.49 285.094 173.692 284.936C173.9 284.778 174.13 284.663 174.36 284.584C174.475 284.541 174.605 284.52 174.712 284.498C174.756 284.498 174.806 284.491 174.849 284.484C174.863 284.477 174.914 284.477 174.957 284.477L175.086 284.47H175.151H175.18H175.194H175.201C175.252 284.47 175.144 284.47 175.151 284.47L175.244 284.477C175.309 284.484 175.367 284.484 175.431 284.491C175.553 284.513 175.676 284.534 175.791 284.556C176.258 284.671 176.66 284.893 176.977 285.152C177.293 285.41 177.523 285.712 177.681 285.992C177.839 286.279 177.933 286.545 177.976 286.767C177.983 286.825 178.005 286.882 178.012 286.918C178.012 286.954 178.019 286.997 178.026 287.026C178.033 287.062 178.033 287.09 178.041 287.119C178.041 287.176 178.048 287.227 178.048 287.27C178.055 287.449 178.055 287.543 178.055 287.543C178.084 288.282 178.702 288.864 179.442 288.835C180.183 288.806 180.765 288.189 180.736 287.449C180.772 287.435 180.765 287.399 180.765 287.363Z" fill="url(#paint38_linear_644_7711)"/>
<path d="M186.013 303.281C185.941 303.281 185.876 303.26 185.811 303.209C183.202 301.113 181.196 298.7 179.845 296.037C179.766 295.879 179.831 295.692 179.982 295.613C180.14 295.534 180.327 295.599 180.406 295.749C181.714 298.334 183.669 300.675 186.207 302.714C186.343 302.822 186.365 303.023 186.257 303.159C186.199 303.238 186.106 303.281 186.013 303.281Z" fill="white"/>
<path d="M208.95 310.777C202.725 310.777 196.141 309.283 190.455 306.246C190.297 306.167 190.239 305.973 190.325 305.816C190.405 305.665 190.599 305.6 190.757 305.686C196.349 308.673 203.401 310.274 210.093 310.095C217.059 309.908 223.003 307.855 226.828 304.315C226.957 304.193 227.158 304.207 227.273 304.329C227.395 304.458 227.381 304.66 227.259 304.774C222.96 308.759 216.196 310.777 208.95 310.777Z" fill="white"/>
<path d="M228.078 238.734C232.326 238.734 235.77 235.294 235.77 231.051C235.77 226.808 232.326 223.369 228.078 223.369C223.831 223.369 220.387 226.808 220.387 231.051C220.387 235.294 223.831 238.734 228.078 238.734Z" fill="url(#paint39_linear_644_7711)"/>
<path d="M228.079 238.483C232.187 238.483 235.518 235.155 235.518 231.051C235.518 226.947 232.187 223.62 228.079 223.62C223.97 223.62 220.639 226.947 220.639 231.051C220.639 235.155 223.97 238.483 228.079 238.483Z" fill="url(#paint40_linear_644_7711)"/>
<path d="M221.947 228.273C221.897 228.273 221.853 228.266 221.803 228.237C221.652 228.158 221.587 227.971 221.666 227.82C222.896 225.386 225.354 223.879 228.078 223.879C228.517 223.879 228.948 223.915 229.372 223.994C229.545 224.022 229.653 224.187 229.624 224.36C229.595 224.532 229.43 224.64 229.257 224.611C228.869 224.539 228.474 224.503 228.071 224.503C225.584 224.503 223.341 225.882 222.213 228.1C222.17 228.215 222.062 228.273 221.947 228.273Z" fill="white"/>
<path opacity="0.78" d="M228.244 237.499C231.721 237.499 234.541 234.683 234.541 231.209C234.541 227.736 231.721 224.92 228.244 224.92C224.766 224.92 221.947 227.736 221.947 231.209C221.947 234.683 224.766 237.499 228.244 237.499Z" fill="white"/>
<path d="M227.625 235.883V235.201C226.914 235.173 226.202 235.008 225.706 234.785C225.526 234.706 225.433 234.505 225.491 234.318L225.663 233.679C225.728 233.442 225.979 233.327 226.202 233.421C226.698 233.629 227.316 233.794 227.978 233.794C228.668 233.794 229.178 233.564 229.178 233.083C229.178 232.653 228.783 232.394 227.827 232.143C226.461 231.769 225.483 231.173 225.483 229.974C225.483 228.89 226.274 228.065 227.654 227.842V227.16C227.654 226.937 227.834 226.758 228.057 226.758H228.459C228.682 226.758 228.862 226.937 228.862 227.16V227.777C229.523 227.806 230.005 227.914 230.386 228.05C230.58 228.122 230.688 228.33 230.637 228.531L230.479 229.12C230.415 229.35 230.177 229.472 229.954 229.386C229.602 229.256 229.106 229.113 228.459 229.113C227.64 229.113 227.41 229.45 227.41 229.752C227.41 230.125 227.899 230.384 228.962 230.707C230.479 231.159 231.105 231.791 231.105 232.918C231.105 233.952 230.335 234.885 228.84 235.115V235.883C228.84 236.106 228.661 236.286 228.438 236.286H228.035C227.805 236.286 227.625 236.106 227.625 235.883Z" fill="url(#paint41_linear_644_7711)"/>
<path d="M206.175 235.309C213.572 235.309 219.567 229.32 219.567 221.933C219.567 214.545 213.572 208.557 206.175 208.557C198.779 208.557 192.784 214.545 192.784 221.933C192.784 229.32 198.779 235.309 206.175 235.309Z" fill="url(#paint42_linear_644_7711)"/>
<path d="M206.175 234.864C213.325 234.864 219.121 229.074 219.121 221.933C219.121 214.791 213.325 209.002 206.175 209.002C199.025 209.002 193.229 214.791 193.229 221.933C193.229 229.074 199.025 234.864 206.175 234.864Z" fill="url(#paint43_linear_644_7711)"/>
<path d="M195.501 216.878C195.45 216.878 195.407 216.871 195.357 216.842C195.206 216.763 195.141 216.577 195.22 216.426C197.319 212.269 201.517 209.691 206.175 209.691C206.916 209.691 207.663 209.756 208.389 209.892C208.562 209.921 208.67 210.086 208.641 210.258C208.612 210.431 208.447 210.546 208.274 210.51C207.584 210.388 206.88 210.323 206.175 210.323C201.755 210.323 197.772 212.771 195.774 216.72C195.724 216.814 195.616 216.878 195.501 216.878Z" fill="white"/>
<path opacity="0.78" d="M206.463 233.169C212.517 233.169 217.425 228.267 217.425 222.22C217.425 216.173 212.517 211.271 206.463 211.271C200.409 211.271 195.501 216.173 195.501 222.22C195.501 228.267 200.409 233.169 206.463 233.169Z" fill="white"/>
<path d="M205.385 230.355V229.163C204.141 229.113 202.912 228.818 202.042 228.438C201.733 228.301 201.575 227.95 201.661 227.626L201.963 226.514C202.071 226.104 202.517 225.896 202.905 226.061C203.775 226.427 204.839 226.707 205.996 226.707C207.196 226.707 208.088 226.305 208.088 225.472C208.088 224.726 207.398 224.273 205.737 223.828C203.365 223.182 201.661 222.148 201.661 220.059C201.661 218.171 203.041 216.735 205.435 216.347V215.155C205.435 214.774 205.744 214.458 206.132 214.458H206.83C207.211 214.458 207.527 214.767 207.527 215.155V216.225C208.677 216.268 209.511 216.469 210.179 216.699C210.517 216.821 210.704 217.187 210.611 217.531L210.33 218.558C210.223 218.953 209.798 219.169 209.417 219.025C208.806 218.795 207.944 218.551 206.815 218.551C205.392 218.551 204.989 219.14 204.989 219.664C204.989 220.31 205.845 220.755 207.685 221.322C210.323 222.112 211.416 223.211 211.416 225.171C211.416 226.973 210.079 228.596 207.477 229.005V230.34C207.477 230.721 207.168 231.037 206.779 231.037H206.082C205.694 231.051 205.385 230.743 205.385 230.355Z" fill="url(#paint44_linear_644_7711)"/>
<path d="M196.939 265.58C204.549 265.58 210.719 259.417 210.719 251.816C210.719 244.214 204.549 238.052 196.939 238.052C189.328 238.052 183.159 244.214 183.159 251.816C183.159 259.417 189.328 265.58 196.939 265.58Z" fill="url(#paint45_linear_644_7711)"/>
<path d="M196.939 265.127C204.299 265.127 210.266 259.167 210.266 251.816C210.266 244.464 204.299 238.504 196.939 238.504C189.578 238.504 183.612 244.464 183.612 251.816C183.612 259.167 189.578 265.127 196.939 265.127Z" fill="url(#paint46_linear_644_7711)"/>
<path d="M185.955 246.603C185.905 246.603 185.861 246.596 185.811 246.567C185.66 246.488 185.595 246.302 185.675 246.151C187.831 241.879 192.151 239.222 196.939 239.222C197.701 239.222 198.47 239.294 199.21 239.423C199.383 239.452 199.49 239.617 199.462 239.789C199.433 239.962 199.268 240.077 199.095 240.041C198.383 239.911 197.657 239.847 196.931 239.847C192.381 239.847 188.277 242.367 186.221 246.431C186.178 246.538 186.07 246.603 185.955 246.603Z" fill="white"/>
<path opacity="0.78" d="M197.226 263.375C203.455 263.375 208.505 258.332 208.505 252.11C208.505 245.888 203.455 240.845 197.226 240.845C190.997 240.845 185.948 245.888 185.948 252.11C185.948 258.332 190.997 263.375 197.226 263.375Z" fill="white"/>
<path d="M196.126 260.482V259.254C194.847 259.204 193.582 258.902 192.683 258.507C192.36 258.364 192.202 258.005 192.288 257.667L192.597 256.526C192.712 256.109 193.165 255.894 193.567 256.059C194.459 256.432 195.559 256.727 196.745 256.727C197.974 256.727 198.894 256.31 198.894 255.456C198.894 254.688 198.182 254.228 196.472 253.769C194.028 253.101 192.274 252.038 192.274 249.891C192.274 247.953 193.697 246.474 196.155 246.072V244.844C196.155 244.449 196.479 244.133 196.867 244.133H197.586C197.981 244.133 198.297 244.456 198.297 244.844V245.942C199.483 245.993 200.346 246.194 201.029 246.431C201.381 246.553 201.568 246.933 201.475 247.285L201.187 248.34C201.079 248.75 200.641 248.972 200.245 248.822C199.613 248.585 198.729 248.333 197.571 248.333C196.112 248.333 195.695 248.936 195.695 249.482C195.695 250.15 196.572 250.609 198.47 251.191C201.187 252.002 202.308 253.129 202.308 255.154C202.308 257.014 200.928 258.68 198.254 259.096V260.467C198.254 260.862 197.931 261.178 197.543 261.178H196.824C196.443 261.2 196.126 260.877 196.126 260.482Z" fill="url(#paint47_linear_644_7711)"/>
<path d="M179.263 243.156C184.84 243.156 189.362 238.64 189.362 233.069C189.362 227.497 184.84 222.981 179.263 222.981C173.685 222.981 169.163 227.497 169.163 233.069C169.163 238.64 173.685 243.156 179.263 243.156Z" fill="url(#paint48_linear_644_7711)"/>
<path d="M179.263 242.819C184.654 242.819 189.024 238.454 189.024 233.069C189.024 227.684 184.654 223.318 179.263 223.318C173.871 223.318 169.501 227.684 169.501 233.069C169.501 238.454 173.871 242.819 179.263 242.819Z" fill="url(#paint49_linear_644_7711)"/>
<path d="M171.212 229.328C171.161 229.328 171.118 229.321 171.068 229.292C170.917 229.213 170.852 229.026 170.931 228.876C172.527 225.716 175.719 223.756 179.263 223.756C179.83 223.756 180.391 223.807 180.945 223.907C181.117 223.936 181.225 224.101 181.196 224.273C181.168 224.446 181.002 224.553 180.83 224.525C180.312 224.431 179.787 224.381 179.263 224.381C175.956 224.381 172.98 226.212 171.492 229.163C171.435 229.263 171.327 229.328 171.212 229.328Z" fill="white"/>
<path opacity="0.78" d="M179.478 241.548C184.044 241.548 187.745 237.851 187.745 233.291C187.745 228.731 184.044 225.034 179.478 225.034C174.913 225.034 171.212 228.731 171.212 233.291C171.212 237.851 174.913 241.548 179.478 241.548Z" fill="white"/>
<path d="M178.659 239.416V238.518C177.724 238.482 176.797 238.26 176.136 237.973C175.898 237.872 175.783 237.606 175.848 237.362L176.078 236.529C176.164 236.221 176.495 236.063 176.79 236.185C177.444 236.458 178.249 236.673 179.119 236.673C180.025 236.673 180.693 236.364 180.693 235.74C180.693 235.172 180.175 234.835 178.918 234.505C177.128 234.016 175.841 233.234 175.841 231.661C175.841 230.24 176.883 229.156 178.688 228.868V227.971C178.688 227.684 178.925 227.447 179.212 227.447H179.737C180.025 227.447 180.262 227.684 180.262 227.971V228.775C181.132 228.811 181.757 228.955 182.26 229.134C182.519 229.227 182.655 229.5 182.584 229.766L182.375 230.541C182.296 230.843 181.973 231.001 181.685 230.893C181.225 230.721 180.571 230.534 179.723 230.534C178.652 230.534 178.342 230.979 178.342 231.374C178.342 231.862 178.982 232.2 180.377 232.631C182.368 233.227 183.195 234.052 183.195 235.531C183.195 236.888 182.188 238.116 180.226 238.418V239.423C180.226 239.71 179.989 239.947 179.701 239.947H179.176C178.896 239.94 178.659 239.703 178.659 239.416Z" fill="url(#paint50_linear_644_7711)"/>
</g>
</g>
<defs>
<linearGradient id="paint0_linear_644_7711" x1="351.521" y1="41.3401" x2="393.808" y2="85.4551" gradientUnits="userSpaceOnUse">
<stop stop-color="#B37CFF"/>
<stop offset="1" stop-color="#F895E7"/>
</linearGradient>
<linearGradient id="paint1_linear_644_7711" x1="407.538" y1="76.4085" x2="410.008" y2="78.9851" gradientUnits="userSpaceOnUse">
<stop stop-color="#B37CFF"/>
<stop offset="1" stop-color="#F895E7"/>
</linearGradient>
<linearGradient id="paint2_linear_644_7711" x1="400.685" y1="108.64" x2="402.38" y2="110.408" gradientUnits="userSpaceOnUse">
<stop stop-color="#B37CFF"/>
<stop offset="1" stop-color="#F895E7"/>
</linearGradient>
<linearGradient id="paint3_linear_644_7711" x1="339.023" y1="84.6729" x2="382.579" y2="130.113" gradientUnits="userSpaceOnUse">
<stop stop-color="#B37CFF"/>
<stop offset="1" stop-color="#F895E7"/>
</linearGradient>
<linearGradient id="paint4_linear_644_7711" x1="325.097" y1="89.3306" x2="327.535" y2="91.8743" gradientUnits="userSpaceOnUse">
<stop stop-color="#B37CFF"/>
<stop offset="1" stop-color="#F895E7"/>
</linearGradient>
<linearGradient id="paint5_linear_644_7711" x1="289.591" y1="50.3502" x2="290.796" y2="51.6078" gradientUnits="userSpaceOnUse">
<stop stop-color="#B37CFF"/>
<stop offset="1" stop-color="#F895E7"/>
</linearGradient>
<linearGradient id="paint6_linear_644_7711" x1="290.159" y1="69.9337" x2="317.122" y2="98.062" gradientUnits="userSpaceOnUse">
<stop stop-color="#B37CFF"/>
<stop offset="1" stop-color="#F895E7"/>
</linearGradient>
<linearGradient id="paint7_linear_644_7711" x1="285.432" y1="68.5321" x2="287.276" y2="70.4556" gradientUnits="userSpaceOnUse">
<stop stop-color="#B37CFF"/>
<stop offset="1" stop-color="#F895E7"/>
</linearGradient>
<linearGradient id="paint8_linear_644_7711" x1="157.739" y1="168.215" x2="362.411" y2="168.215" gradientUnits="userSpaceOnUse">
<stop stop-color="#B37CFF"/>
<stop offset="1" stop-color="#F895E7"/>
</linearGradient>
<linearGradient id="paint9_linear_644_7711" x1="361.594" y1="112.485" x2="169.841" y2="262.311" gradientUnits="userSpaceOnUse">
<stop stop-color="#CB236D"/>
<stop offset="1" stop-color="#4C246D"/>
</linearGradient>
<linearGradient id="paint10_linear_644_7711" x1="132.643" y1="93.8334" x2="146.342" y2="77.9139" gradientUnits="userSpaceOnUse">
<stop stop-color="#FDF53F"/>
<stop offset="1" stop-color="#D93C65"/>
</linearGradient>
<linearGradient id="paint11_linear_644_7711" x1="154.112" y1="66.3298" x2="113.614" y2="127.582" gradientUnits="userSpaceOnUse">
<stop stop-color="#FDF53F"/>
<stop offset="1" stop-color="#D93C65"/>
</linearGradient>
<linearGradient id="paint12_linear_644_7711" x1="152.902" y1="68.084" x2="131.34" y2="104.325" gradientUnits="userSpaceOnUse">
<stop stop-color="#FDF53F"/>
<stop offset="1" stop-color="#D93C65"/>
</linearGradient>
<linearGradient id="paint13_linear_644_7711" x1="151.387" y1="93.7395" x2="175.235" y2="66.0258" gradientUnits="userSpaceOnUse">
<stop stop-color="#FDF53F"/>
<stop offset="1" stop-color="#D93C65"/>
</linearGradient>
<linearGradient id="paint14_linear_644_7711" x1="188.761" y1="45.8606" x2="118.261" y2="152.49" gradientUnits="userSpaceOnUse">
<stop stop-color="#FDF53F"/>
<stop offset="1" stop-color="#D93C65"/>
</linearGradient>
<linearGradient id="paint15_linear_644_7711" x1="186.654" y1="48.9134" x2="149.119" y2="112.004" gradientUnits="userSpaceOnUse">
<stop stop-color="#FDF53F"/>
<stop offset="1" stop-color="#D93C65"/>
</linearGradient>
<linearGradient id="paint16_linear_644_7711" x1="162.959" y1="134.276" x2="187.499" y2="105.76" gradientUnits="userSpaceOnUse">
<stop stop-color="#FDF53F"/>
<stop offset="1" stop-color="#D93C65"/>
</linearGradient>
<linearGradient id="paint17_linear_644_7711" x1="201.417" y1="85.0099" x2="128.873" y2="194.73" gradientUnits="userSpaceOnUse">
<stop stop-color="#FDF53F"/>
<stop offset="1" stop-color="#D93C65"/>
</linearGradient>
<linearGradient id="paint18_linear_644_7711" x1="199.249" y1="88.1517" x2="160.625" y2="153.071" gradientUnits="userSpaceOnUse">
<stop stop-color="#FDF53F"/>
<stop offset="1" stop-color="#D93C65"/>
</linearGradient>
<linearGradient id="paint19_linear_644_7711" x1="193.162" y1="101.582" x2="211.142" y2="80.6883" gradientUnits="userSpaceOnUse">
<stop stop-color="#FDF53F"/>
<stop offset="1" stop-color="#D93C65"/>
</linearGradient>
<linearGradient id="paint20_linear_644_7711" x1="221.339" y1="65.4847" x2="168.187" y2="145.876" gradientUnits="userSpaceOnUse">
<stop stop-color="#FDF53F"/>
<stop offset="1" stop-color="#D93C65"/>
</linearGradient>
<linearGradient id="paint21_linear_644_7711" x1="219.751" y1="67.7866" x2="191.452" y2="115.352" gradientUnits="userSpaceOnUse">
<stop stop-color="#FDF53F"/>
<stop offset="1" stop-color="#D93C65"/>
</linearGradient>
<linearGradient id="paint22_linear_644_7711" x1="346.026" y1="300.104" x2="339.78" y2="300.104" gradientUnits="userSpaceOnUse">
<stop stop-color="#F9B776"/>
<stop offset="1" stop-color="#F47960"/>
</linearGradient>
<linearGradient id="paint23_linear_644_7711" x1="381.11" y1="296.851" x2="373.644" y2="296.851" gradientUnits="userSpaceOnUse">
<stop stop-color="#F9B776"/>
<stop offset="1" stop-color="#F47960"/>
</linearGradient>
<linearGradient id="paint24_linear_644_7711" x1="278.428" y1="139.787" x2="307.952" y2="178.241" gradientUnits="userSpaceOnUse">
<stop stop-color="#F9B776"/>
<stop offset="1" stop-color="#F47960"/>
</linearGradient>
<linearGradient id="paint25_linear_644_7711" x1="344.332" y1="164.619" x2="341.104" y2="147.655" gradientUnits="userSpaceOnUse">
<stop stop-color="#F9B776"/>
<stop offset="1" stop-color="#F47960"/>
</linearGradient>
<linearGradient id="paint26_linear_644_7711" x1="335.579" y1="133.499" x2="354.019" y2="147.624" gradientUnits="userSpaceOnUse">
<stop stop-color="#F9B776"/>
<stop offset="1" stop-color="#F47960"/>
</linearGradient>
<linearGradient id="paint27_linear_644_7711" x1="337.868" y1="130.511" x2="356.308" y2="144.636" gradientUnits="userSpaceOnUse">
<stop stop-color="#F9B776"/>
<stop offset="1" stop-color="#F47960"/>
</linearGradient>
<linearGradient id="paint28_linear_644_7711" x1="327.048" y1="176.668" x2="339.945" y2="196.036" gradientUnits="userSpaceOnUse">
<stop stop-color="#F9B776"/>
<stop offset="1" stop-color="#F47960"/>
</linearGradient>
<linearGradient id="paint29_linear_644_7711" x1="218.017" y1="260.341" x2="229.94" y2="277.105" gradientUnits="userSpaceOnUse">
<stop stop-color="#FDF53F"/>
<stop offset="1" stop-color="#D93C65"/>
</linearGradient>
<linearGradient id="paint30_linear_644_7711" x1="220.121" y1="259.964" x2="221.459" y2="285.427" gradientUnits="userSpaceOnUse">
<stop stop-color="#FDF53F"/>
<stop offset="1" stop-color="#D93C65"/>
</linearGradient>
<linearGradient id="paint31_linear_644_7711" x1="218.146" y1="287.985" x2="223.14" y2="317.777" gradientUnits="userSpaceOnUse">
<stop stop-color="#FDF53F"/>
<stop offset="1" stop-color="#D93C65"/>
</linearGradient>
<linearGradient id="paint32_linear_644_7711" x1="192.079" y1="292.487" x2="197.073" y2="322.28" gradientUnits="userSpaceOnUse">
<stop stop-color="#FDF53F"/>
<stop offset="1" stop-color="#D93C65"/>
</linearGradient>
<linearGradient id="paint33_linear_644_7711" x1="211.248" y1="264.219" x2="206.028" y2="351.195" gradientUnits="userSpaceOnUse">
<stop stop-color="#FDF53F"/>
<stop offset="1" stop-color="#D93C65"/>
</linearGradient>
<linearGradient id="paint34_linear_644_7711" x1="223.145" y1="285.645" x2="227.391" y2="283.448" gradientUnits="userSpaceOnUse">
<stop stop-color="#2B3582"/>
<stop offset="0.6502" stop-color="#150E42"/>
</linearGradient>
<linearGradient id="paint35_linear_644_7711" x1="207.697" y1="270.442" x2="193.226" y2="271.246" gradientUnits="userSpaceOnUse">
<stop stop-color="#CE1567"/>
<stop offset="1" stop-color="#7A1DBC"/>
</linearGradient>
<linearGradient id="paint36_linear_644_7711" x1="215.846" y1="261.884" x2="227.769" y2="278.649" gradientUnits="userSpaceOnUse">
<stop stop-color="#FDF53F"/>
<stop offset="1" stop-color="#D93C65"/>
</linearGradient>
<linearGradient id="paint37_linear_644_7711" x1="214.251" y1="273.033" x2="211.573" y2="339.907" gradientUnits="userSpaceOnUse">
<stop stop-color="#FDF53F"/>
<stop offset="1" stop-color="#D93C65"/>
</linearGradient>
<linearGradient id="paint38_linear_644_7711" x1="177.401" y1="262.187" x2="172.18" y2="349.164" gradientUnits="userSpaceOnUse">
<stop stop-color="#FDF53F"/>
<stop offset="1" stop-color="#D93C65"/>
</linearGradient>
<linearGradient id="paint39_linear_644_7711" x1="217.552" y1="243.257" x2="227.858" y2="231.28" gradientUnits="userSpaceOnUse">
<stop stop-color="#FDF53F"/>
<stop offset="1" stop-color="#D93C65"/>
</linearGradient>
<linearGradient id="paint40_linear_644_7711" x1="233.704" y1="222.565" x2="203.236" y2="268.648" gradientUnits="userSpaceOnUse">
<stop stop-color="#FDF53F"/>
<stop offset="1" stop-color="#D93C65"/>
</linearGradient>
<linearGradient id="paint41_linear_644_7711" x1="232.793" y1="223.884" x2="216.571" y2="251.15" gradientUnits="userSpaceOnUse">
<stop stop-color="#FDF53F"/>
<stop offset="1" stop-color="#D93C65"/>
</linearGradient>
<linearGradient id="paint42_linear_644_7711" x1="187.85" y1="243.186" x2="205.792" y2="222.337" gradientUnits="userSpaceOnUse">
<stop stop-color="#FDF53F"/>
<stop offset="1" stop-color="#D93C65"/>
</linearGradient>
<linearGradient id="paint43_linear_644_7711" x1="215.968" y1="207.165" x2="162.928" y2="287.387" gradientUnits="userSpaceOnUse">
<stop stop-color="#FDF53F"/>
<stop offset="1" stop-color="#D93C65"/>
</linearGradient>
<linearGradient id="paint44_linear_644_7711" x1="214.383" y1="209.462" x2="186.143" y2="256.928" gradientUnits="userSpaceOnUse">
<stop stop-color="#FDF53F"/>
<stop offset="1" stop-color="#D93C65"/>
</linearGradient>
<linearGradient id="paint45_linear_644_7711" x1="178.081" y1="273.684" x2="196.543" y2="252.23" gradientUnits="userSpaceOnUse">
<stop stop-color="#FDF53F"/>
<stop offset="1" stop-color="#D93C65"/>
</linearGradient>
<linearGradient id="paint46_linear_644_7711" x1="207.014" y1="236.619" x2="152.436" y2="319.167" gradientUnits="userSpaceOnUse">
<stop stop-color="#FDF53F"/>
<stop offset="1" stop-color="#D93C65"/>
</linearGradient>
<linearGradient id="paint47_linear_644_7711" x1="205.383" y1="238.982" x2="176.325" y2="287.824" gradientUnits="userSpaceOnUse">
<stop stop-color="#FDF53F"/>
<stop offset="1" stop-color="#D93C65"/>
</linearGradient>
<linearGradient id="paint48_linear_644_7711" x1="165.441" y1="249.086" x2="178.968" y2="233.367" gradientUnits="userSpaceOnUse">
<stop stop-color="#FDF53F"/>
<stop offset="1" stop-color="#D93C65"/>
</linearGradient>
<linearGradient id="paint49_linear_644_7711" x1="186.64" y1="221.929" x2="146.652" y2="282.41" gradientUnits="userSpaceOnUse">
<stop stop-color="#FDF53F"/>
<stop offset="1" stop-color="#D93C65"/>
</linearGradient>
<linearGradient id="paint50_linear_644_7711" x1="185.445" y1="223.66" x2="164.154" y2="259.447" gradientUnits="userSpaceOnUse">
<stop stop-color="#FDF53F"/>
<stop offset="1" stop-color="#D93C65"/>
</linearGradient>
<clipPath id="clip0_644_7711">
<rect width="542.64" height="328.79" fill="white"/>
</clipPath>
<clipPath id="clip1_644_7711">
<rect width="278" height="281" fill="white" transform="translate(132 37)"/>
</clipPath>
</defs>
</svg>
