<svg width="543" height="329" viewBox="0 0 543 329" fill="none" xmlns="http://www.w3.org/2000/svg">
<g clip-path="url(#clip0_1224_4446)">
<path opacity="0.2" d="M128.492 325.584L413.142 308.934C488.412 304.534 546.652 240.734 543.512 165.394C540.872 102.084 518.192 34.6439 441.912 5.8239C388.262 -14.4461 318.592 2.1439 274.402 35.8539C263.782 43.9539 254.022 53.2439 242.612 60.1739C216.022 76.3239 192.672 65.1739 164.972 60.8839C106.412 51.7939 47.9621 70.4639 17.7021 124.434C-28.7579 207.354 26.0421 331.574 128.492 325.584Z" fill="#999999"/>
<path d="M137.413 166.997C137.413 166.997 143.644 161.95 144.34 162.159C145.053 162.385 142.93 163.951 142.6 164.16C142.6 164.16 143.087 164.177 143.243 165.326C143.243 165.326 143.8 165.761 143.679 166.475C143.679 166.475 143.957 167.031 143.574 167.519C143.191 168.006 141.173 168.911 140.076 168.406L138.649 169.015C138.666 169.033 136.16 168.72 137.413 166.997Z" fill="#F7A282"/>
<path d="M111.836 175.472L125.671 173.627L137.558 166.492C137.558 166.492 138.671 167.049 139.507 169.085C139.507 169.085 128.543 178.831 126.977 179.214C125.393 179.596 111.94 182.346 111.94 182.346L111.836 175.472Z" fill="#A78BEF"/>
<path d="M94.4825 289.601C94.4825 289.601 95.8051 291.933 98.0675 293.638C98.0675 293.638 98.7462 294.23 98.9203 295.257C98.9203 295.257 93.5601 296.144 91.7154 295.726C91.7154 295.726 90.445 294.195 90.2188 293.481C90.2188 293.481 90.6538 290.192 90.7234 289.74L94.4825 289.601Z" fill="#A78BEF"/>
<path d="M101.679 288.957C101.679 288.957 104.759 288.678 105.107 288.817L105.717 289.6C105.717 289.6 106.917 291.254 111.721 293.325V294.23L101.348 294.247C101.348 294.247 100.513 292.872 101.679 288.957Z" fill="#A78BEF"/>
<path d="M101.602 276.027C101.602 280.76 102.106 289.375 102.106 289.375C102.837 289.792 104.612 289.375 104.612 289.375C104.839 287.025 105.448 278.811 105.691 276.027H101.602Z" fill="#F9B384"/>
<path d="M88.8086 218.422L89.9398 290.157C89.9398 290.157 92.3762 290.732 96.3093 290.14L98.6239 262.817L101.043 234.868L100.834 289.531C101.739 289.722 106.838 289.635 107.099 289.566L108.961 260.468L111.189 226.166L111.311 219.101C111.311 219.083 102.801 219.849 88.8086 218.422Z" fill="#202A31"/>
<path d="M109.472 185.652C109.35 184.469 109.228 180.275 109.019 179.979C109.019 179.979 105.295 179.126 104.982 178.465C104.512 177.438 103.868 174.34 103.712 171.33C103.677 170.581 98.2992 167.223 98.2992 167.223C98.2992 167.223 98.334 174.445 96.646 177.699C96.646 177.699 91.077 178.448 89.8066 179.683C89.4759 179.996 89.2149 180.623 89.0234 181.458L109.472 185.652Z" fill="#E49479"/>
<path d="M104.768 177.873C104.351 176.585 103.898 174.166 103.742 171.713L99.2516 168.597L98.277 168.58C98.2422 169.433 98.1726 170.616 98.0508 171.869C99.0079 174.062 101.688 179.248 104.768 177.873Z" fill="#D27964"/>
<path d="M107.731 161.95C107.731 161.95 108.514 165.291 108.166 168.633C107.974 170.599 106.199 173.61 105.016 174.271C105.016 174.271 104.703 174.48 103.467 174.393C101.953 174.289 99.0814 172.305 98.0894 169.45C98.0894 169.45 97.2889 169.764 96.7146 168.441C96.1403 167.118 96.3491 165.013 97.898 166.144C97.898 166.144 96.8886 160.262 99.4991 159.653C102.127 159.061 107.104 157.703 107.731 161.95Z" fill="#F7A282"/>
<path d="M95.1293 160.697L107.886 159.531L108.129 162.263C108.008 162.646 107.921 162.889 107.921 162.889L107.503 161.027C106.581 162.089 104.562 162.228 104.562 162.228C102.038 162.367 99.045 161.079 99.045 161.079C98.5577 162.506 98.8362 163.899 98.8362 163.899C99.2887 165.152 98.5229 166.735 98.2097 166.596C98.0704 166.527 97.9312 166.37 97.792 166.213C96.5564 165.03 96.1909 167.153 96.7652 168.267C97.5658 169.833 98.1401 169.45 98.1401 169.45C98.1575 169.52 98.1923 169.572 98.2097 169.642C98.2445 170.529 98.053 171.747 98.0182 172.879C97.8616 172.913 98.2967 171.26 97.3917 169.798C96.2083 167.867 94.7291 163.794 95.1293 160.697Z" fill="#3D1F0F"/>
<path d="M109.11 160.853C109.11 160.818 109.11 160.784 109.11 160.749C108.692 156.642 105.02 153.648 100.913 154.066C96.806 154.484 93.8126 158.156 94.2303 162.263C94.2303 162.298 94.2477 162.332 94.2477 162.367L109.11 160.853Z" fill="#E527BB"/>
<path d="M100.909 154.083C97.0456 154.484 94.1741 157.738 94.1915 161.549C94.1915 161.654 94.2089 161.758 94.2089 161.845C94.2089 161.88 94.2263 161.984 94.2263 162.019C94.818 156.711 98.7685 155.302 98.7685 155.302C105.799 153.544 106.687 160.749 106.687 160.749L109.036 160.505C109.036 160.47 109.036 160.436 109.036 160.401C109.019 160.279 109.001 160.14 108.984 160.018C108.218 156.294 104.755 153.683 100.909 154.083Z" fill="#C3B284"/>
<path d="M109.017 160.227L110.966 161.306C110.966 161.306 110.322 163.411 103.517 162.994L94.2589 162.367L94.1719 161.897L109.017 160.227Z" fill="#E527BB"/>
<path d="M94.1858 161.34C94.1858 161.306 94.1684 161.201 94.1684 161.166C93.7507 157.059 96.6918 153.457 100.799 153.039C104.906 152.621 108.578 155.615 108.996 159.704C108.996 159.739 108.996 159.774 108.996 159.809L106.646 160.053C106.646 160.053 105.759 152.865 98.728 154.605C98.728 154.623 94.7775 156.032 94.1858 161.34Z" fill="#E527BB"/>
<path d="M109.31 160.018C109.328 160.192 109.206 160.366 109.014 160.383L94.1523 161.898C93.9782 161.915 93.8042 161.776 93.7868 161.602C93.7694 161.428 93.8912 161.254 94.0827 161.236L108.945 159.722C109.119 159.705 109.293 159.844 109.31 160.018Z" fill="#EFE7CA"/>
<path d="M94.1506 161.897L109.013 160.383C109.187 160.366 109.326 160.209 109.309 160.018L93.7852 161.602C93.8026 161.793 93.9592 161.915 94.1506 161.897Z" fill="#DBCFA9"/>
<path d="M111.889 221.12C112.15 211.496 113.142 175.959 111.836 175.489L104.318 176.638C103.761 177.334 102.926 178.048 102.926 178.048C102.926 178.048 102.474 179.509 102.317 180.223C99.1671 178.726 97.2354 176.69 97.2354 176.69C96.1042 176.742 89.1952 178.483 87.6289 179.179C87.6289 179.179 88.4991 187.741 88.6209 195.677C88.6905 199.958 88.0118 213.358 88.2902 222.164C88.2902 222.164 91.1965 224.844 92.5888 225.488C92.5888 225.488 100.42 222.912 102.926 221.242C102.926 221.242 107.625 224.148 108.652 224.566C108.669 224.548 111.314 222.164 111.889 221.12Z" fill="#A78BEF"/>
<path d="M108.445 196.147L110.412 196.216L109.785 195.59H109.263C109.246 195.59 108.967 195.677 108.445 196.147Z" fill="#7EAEC8"/>
<path d="M95.5625 177.039C95.5625 177.039 100.296 185.705 103.498 198.444C103.498 198.444 106.405 184.261 105.221 176.969L104.02 177.839L102.767 178.57L102.315 180.206L96.6067 176.621L95.5625 177.039Z" fill="#CEE3F5"/>
<path d="M102.069 181.963L101.773 194.406L103.496 198.461L104.906 193.536L102.713 182.363L102.069 181.963Z" fill="#E527BB"/>
<path d="M103.191 198.827C103.191 198.827 105.854 182.502 104.444 175.646C104.444 175.646 104.566 175.524 104.792 175.646C105.036 175.785 106.568 176.29 106.568 176.29L108.987 185.409L106.637 186.853L108.552 189.307L103.522 199.227L103.191 198.827Z" fill="#8468EA"/>
<path d="M102.32 180.206L104.061 179.544L102.877 178.152L102.32 180.206Z" fill="#E527BB"/>
<path d="M102.316 180.205L102.072 178.83L100.715 179.996L102.316 180.205Z" fill="#E527BB"/>
<path d="M102.07 178.831L99.7211 181.963L95.6836 177.334C97.2673 174.201 97.6327 174.915 97.6327 174.915C97.6327 174.915 100.748 177.665 102.07 178.831Z" fill="white"/>
<path d="M102.32 180.206L102.634 178.239L104.078 175.629C104.078 175.629 104.182 175.263 104.443 175.629L105.227 176.969L104.356 180.206L102.86 178.396L102.32 180.206Z" fill="white"/>
<path d="M96.2407 176.29C96.2407 176.29 102.575 191.796 103.759 200.028L97.9462 194.023V188.159L94.0305 187.532L93.9609 177.491C93.9609 177.508 95.4924 176.412 96.2407 176.29Z" fill="#8468EA"/>
<path d="M102.731 180.049H101.843C101.843 180.049 101.391 180.78 101.391 181.146C101.391 181.529 102.052 182.347 102.052 182.347H102.713L103.375 181.285L102.731 180.049Z" fill="#E527BB"/>
<path d="M119.005 196.146H107.066V213.306H119.005V196.146Z" fill="#E527BB"/>
<path d="M107.641 196.268H119.005V196.146H107.066V213.306H107.641V196.268Z" fill="#5E95BB"/>
<path d="M104.263 202.446C104.263 202.446 105.795 201.367 107.083 201.437L107.065 202.238C107.065 202.238 110.163 202.551 110.267 202.969C110.372 203.404 109.902 203.752 109.815 203.891C109.815 203.891 109.919 204.326 109.693 204.657C109.467 204.987 109.066 205.161 109.066 205.161C109.066 205.161 109.153 205.753 108.44 205.979C108.44 205.979 108.457 206.658 107.796 206.658C107.135 206.658 103.915 205.718 103.637 205.005L104.263 202.446Z" fill="#F7A282"/>
<path d="M87.6266 179.178C87.6266 179.178 90.4111 181.441 90.5329 185.652C90.6548 189.864 87.9051 198.565 87.0349 200.671C87.0349 200.671 90.881 201.489 104.438 202.342C104.438 202.342 104.977 202.585 103.585 205.3C103.585 205.3 86.6521 208.05 80.9787 205.944C80.9787 205.944 79.4994 205.266 80.1782 202.968C80.1608 202.968 84.3549 178.099 87.6266 179.178Z" fill="#8468EA"/>
<path d="M108.445 196.146C108.445 196.146 110.481 193.988 110.481 198.444C110.481 202.899 110.951 207.841 111.16 208.12H120.488C120.488 208.12 119.496 202.638 119.775 199.644C120.14 195.659 119.253 195.624 118.818 195.502H109.298C109.298 195.502 108.846 195.746 108.445 196.146Z" fill="#DFEFFA"/>
<path d="M459.735 279.656V258.174V256.444V215.548V213.818V112.294V110.564V107.742H458.116V110.564H451.923V101.967H450.022H441.061V95.101H450.022V93.3704H441.061V86.4668H450.022V84.7361H441.061H439.611H436.9H435.451H433.512V82.6669H408.569H406.14V81.6323H433.512V78.2839H378.58V81.6323H386.205V82.6669H378.58V84.7361H386.205V102.983H381.988H380.256H376.321H374.59H370.825V105.071H374.59V113.498H369.902V115.229H374.59V119.913H359.341V121.926H360.264V132.385H358.306V134.284H360.264V142.26H358.607V144.16H360.264V152.832H358.306V154.732H360.264V163.404H357.986V165.304H360.264V173.976H357.703V175.876H360.264V184.548H357.402V186.448H360.264V195.119H357.101V197.019H360.264V205.691H356.8V207.591H360.264V216.263H356.499V218.144H360.264V226.816H356.197V228.716H360.264V237.388H355.896V239.288H360.264V247.96H355.595V249.86H360.264V258.532H355.294V260.432H360.264V269.085H354.993V270.984H360.264V279.656H354.691V281.556H360.264H361.525H368.509H371.276H374.571H376.303H380.237H381.969H386.186H387.579H389.424H390.817H393.829H398.573H401.283H402.488H404.22H406.121H408.55H433.493H435.432H436.882H439.592H441.042H450.003H451.904H462.371V279.656H459.735ZM450.04 119.142H441.08V112.276H447.725H450.04V119.142ZM458.135 205.202H451.942V198.336H458.135V205.202ZM458.135 248.035H451.942V241.357H458.135V248.035ZM398.591 266.564V260.413H401.302V266.564H398.591ZM398.591 258.513V249.841H401.302V258.513H398.591ZM433.531 113.498V112.294H435.47V119.16H433.531V115.229V113.498ZM458.135 187.99H451.942V181.124H458.135V187.99ZM458.135 239.626H451.942V232.76H458.135V239.626ZM450.04 239.626H441.08V232.76H450.04V239.626ZM439.63 239.626H436.919V232.76H439.63V239.626ZM401.302 134.284V142.26H398.591V134.284H401.302ZM401.302 144.16V148.75H398.591V144.16H401.302ZM402.526 202.381V197.001H404.258V202.381H402.526ZM402.526 195.101V186.429H404.258V195.101H402.526ZM402.526 184.529V175.857H404.258V184.529H402.526ZM402.526 173.957V165.285H404.258V173.957H402.526ZM404.258 154.732V160.545H402.526V154.732H404.258ZM406.159 165.285H408.588V173.957H406.159V165.285ZM407.985 163.385V160.526H406.159V154.713H408.588V163.385H407.985ZM401.302 154.732V160.545H398.591V154.732H401.302ZM401.302 165.285V173.957H398.591V165.285H401.302ZM401.302 175.857V184.529H399.646V180.804H398.573V175.876H401.302V175.857ZM401.302 186.429V195.101H398.591V186.429H401.302ZM401.302 197.001V202.381H398.591V197.001H401.302ZM401.302 207.572V216.244H398.591V207.572H401.302ZM401.302 218.144V221.267H398.591V218.144H401.302ZM402.526 221.267V218.144H404.258V221.267H402.526ZM402.526 216.225V207.554H404.258V216.225H402.526ZM406.159 207.572H408.588V216.244H406.159V207.572ZM407.025 205.672V202.381H406.159V197.001H408.588V205.672H407.025ZM406.159 195.101V186.429H408.588V195.101H406.159ZM406.159 184.529V175.857H408.588V184.529H406.159ZM406.159 152.813V148.731V144.141H408.588V152.813H406.159ZM404.258 148.75H402.526V144.16H404.258V148.75ZM393.848 163.385H390.836V154.713H393.848V163.385ZM393.848 165.285V170.778H390.836V165.285H393.848ZM393.848 175.857V184.529H390.836V175.857H393.848ZM393.848 186.429V191.545H390.836V186.429H393.848ZM393.848 197.001V205.672H390.836V197.001H393.848ZM393.848 207.572V213.818H390.836V207.572H393.848ZM393.848 218.144V226.816H390.836V218.144H393.848ZM393.848 228.716V234.604H390.836V228.716H393.848ZM398.591 234.942V228.697H401.302V234.942H398.591ZM406.159 221.267V218.144H408.588V226.816H407.025V221.267H406.159ZM433.531 172.509H435.47V179.375H433.531V172.509ZM433.531 170.778V163.912H435.47V170.778H433.531ZM436.919 163.912H439.63V170.778H436.919V163.912ZM436.919 162.181V155.315H439.63V162.181H436.919ZM435.47 162.181H433.531V155.315H435.47V162.181ZM433.531 153.566V152.813V146.7H435.47V153.566H433.531ZM408.588 142.242H406.159V134.266H408.588V142.242ZM404.258 142.242H402.526V134.266H404.258V142.242ZM402.526 132.366V121.907H404.258V132.366H402.526ZM401.302 121.926V128.622H398.591V121.926H401.302ZM393.848 134.284V142.26H390.836V134.284H393.848ZM393.848 144.16V150.913H390.836V144.16H393.848ZM389.461 163.385H387.616V154.713H389.461V163.385ZM389.461 165.285V170.778H387.616V165.285H389.461ZM389.461 175.857V184.529H387.616V175.857H389.461ZM389.461 186.429V191.545H387.616V186.429H389.461ZM389.461 197.001V205.672H387.616V197.001H389.461ZM389.461 207.572V213.818H387.616V207.572H389.461ZM389.461 218.144V226.816H387.616V218.144H389.461ZM389.461 228.716V234.604H387.616V228.716H389.461ZM402.526 234.942V228.697H404.258V237.369H403.392V234.942H402.526ZM406.159 228.716H408.588V237.388H406.159V228.716ZM433.531 239.626V232.76H435.47V239.626H433.531ZM435.47 241.357V248.035H433.531V241.357H435.47ZM433.531 231.011V224.145H435.47V231.011H433.531ZM433.531 222.414V215.548H435.47V222.414H433.531ZM433.531 213.818V206.952H435.47V213.818H433.531ZM433.531 205.202V198.336H435.47V205.202H433.531ZM433.531 196.587V189.721H435.47V196.587H433.531ZM433.531 187.99V181.124H435.47V187.99H433.531ZM436.919 181.124H439.63V187.99H436.919V181.124ZM436.919 179.393V172.527H439.63V179.393H436.919ZM441.08 172.509H450.04V179.375H441.08V172.509ZM441.08 170.778V163.912H450.04V170.778H441.08ZM441.08 162.181V155.315H450.04V162.181H441.08ZM441.08 153.566V146.7H450.04V153.566H441.08ZM439.63 153.566H436.919V146.7H439.63V153.566ZM436.919 144.969V138.084H439.63V144.969H436.919ZM435.47 144.969H433.531V138.084H435.47V144.969ZM433.531 136.354V134.266V132.366V129.469H435.47V136.335H433.531V136.354ZM408.588 132.366H406.159V121.907H408.588V132.366ZM393.848 115.229V119.913H390.836V115.229H393.848ZM393.848 121.926V129.488H390.836V121.926H393.848ZM389.461 134.284V142.26H387.616V134.284H389.461ZM389.461 144.16V150.913H387.616V144.16H389.461ZM386.223 163.385H382.007V154.713H386.223V163.385ZM386.223 165.285V170.778H382.835V173.957H382.007V165.285H386.223ZM386.223 175.857V184.529H382.007V175.857H386.223ZM386.223 186.429V191.545H383.795V195.101H382.007V186.429H386.223ZM386.223 197.001V205.672H382.007V197.001H386.223ZM386.223 207.572V213.818H383.795V216.244H382.007V207.572H386.223ZM386.223 218.144V226.816H382.007V218.144H386.223ZM386.223 228.716V234.604H382.835V237.369H382.007V228.697H386.223V228.716ZM386.223 239.269V247.941H382.007V239.269H386.223ZM387.616 239.269H389.461V247.941H387.616V239.269ZM390.854 239.269H393.866V247.941H390.854V239.269ZM398.591 239.269H401.302V247.941H398.591V239.269ZM402.526 239.269H404.258V247.941H402.526V239.269ZM406.159 239.269H408.588V247.941H406.159V239.269ZM433.531 249.766H435.47V256.425H433.531V249.766ZM436.919 249.766H439.63V256.425H436.919V249.766ZM436.919 248.035V241.357H439.63V248.035H436.919ZM436.919 231.011V224.145H439.63V231.011H436.919ZM436.919 222.414V215.548H439.63V222.414H436.919ZM436.919 213.818V206.952H439.63V213.818H436.919ZM436.919 205.202V198.336H439.63V205.202H436.919ZM436.919 196.587V189.721H439.63V196.587H436.919ZM441.08 189.721H450.04V196.587H441.08V189.721ZM441.08 187.99V181.124H450.04V187.99H441.08ZM458.135 179.393H451.942V172.527H458.135V179.393ZM458.135 170.778H451.942V163.912H458.135V170.778ZM458.135 162.181H451.942V155.315H458.135V162.181ZM458.135 153.566H451.942V146.7H458.135V153.566ZM458.135 144.969H451.942V138.084H458.135V144.969ZM450.04 144.969H441.08V138.084H450.04V144.969ZM441.08 136.354V129.488H450.04V136.354H441.08ZM439.63 136.354H436.919V129.488H439.63V136.354ZM436.919 127.757V120.891H439.63V127.757H436.919ZM435.47 127.757H433.531V121.926V120.891H435.47V127.757ZM408.588 119.894H406.686V117.731H406.159V115.229H408.588V119.894ZM404.258 117.731H402.526V115.229H404.258V117.731ZM401.302 117.731H398.591V115.229H401.302V117.731ZM398.591 113.498V105.071H401.302V113.498H398.591ZM389.461 115.229V119.913H387.616V115.229H389.461ZM389.461 121.926V129.488H387.616V121.926H389.461ZM386.223 134.284V142.26H382.007V134.284H386.223ZM386.223 144.16V150.913H382.835V152.813H382.007V144.141H386.223V144.16ZM380.275 152.813H376.34V144.141H380.275V152.813ZM380.275 154.732V163.404H376.34V154.732H380.275ZM380.275 165.285V173.957H376.34V165.285H380.275ZM380.275 175.857V184.529H376.34V175.857H380.275ZM380.275 186.429V195.101H376.34V186.429H380.275ZM380.275 197.001V205.672H376.34V197.001H380.275ZM380.275 207.572V216.244H376.34V207.572H380.275ZM380.275 218.144V226.816H376.34V218.144H380.275ZM380.275 228.716V237.388H376.34V228.716H380.275ZM380.275 239.269V247.941H376.34V239.269H380.275ZM380.275 249.841V258.513H376.34V249.841H380.275ZM382.007 249.841H386.223V258.513H382.007V249.841ZM387.616 249.841H389.461V258.513H387.616V249.841ZM390.854 249.841H393.866V258.513H390.854V249.841ZM402.526 249.841H404.258V258.513H402.526V249.841ZM406.159 249.841H408.588V258.513H406.159V249.841ZM433.531 258.155H435.47V264.814H433.531V258.155ZM436.919 258.155H439.63V264.814H436.919V258.155ZM441.08 258.155H450.04V264.814H441.08V258.155ZM441.08 256.425V249.766H450.04V256.425H441.08ZM441.08 248.035V241.357H450.04V248.035H441.08ZM458.135 231.011H451.942V224.145H458.135V231.011ZM450.04 231.011H441.08V224.145H450.04V231.011ZM441.08 222.414V215.548H450.04V222.414H441.08ZM441.08 213.818V206.952H450.04V213.818H441.08ZM441.08 205.202V198.336H450.04V205.202H441.08ZM451.942 196.587V189.721H458.135V196.587H451.942ZM451.942 136.354V129.488H458.135V136.354H451.942ZM458.135 127.757H451.942V120.891H458.135V127.757ZM450.04 127.757H441.08V120.891H450.04V127.757ZM439.63 119.142H436.919V112.276H439.63V119.142ZM436.919 110.545V103.679H439.63V110.545H436.919ZM435.47 110.545H433.531V103.679H435.47V110.545ZM433.531 101.929V95.0634H435.47V101.929H433.531ZM408.588 113.498H406.159V105.071H408.588V113.498ZM404.258 113.498H402.526V105.071H404.258V113.498ZM402.526 102.983V84.7361H404.258V102.983H402.526ZM401.302 102.983H398.591V84.7361H401.302V102.983ZM398.591 82.6481V81.6135H401.302V82.6481H398.591ZM393.848 82.6481H390.836V81.6135H393.848V82.6481ZM393.848 84.7173V102.964H390.836V84.7173H393.848ZM393.848 105.052V110.978H390.836V105.052H393.848ZM389.461 110.978H387.616V105.052H389.461V110.978ZM386.223 115.229V119.913H382.007V115.229H386.223ZM386.223 121.926V129.488H383.626V132.385H382.007V121.926H386.223ZM380.275 132.366H376.34V121.907H380.275V132.366ZM380.275 134.284V142.26H376.34V134.284H380.275ZM374.608 142.242H371.314V134.266H374.608V142.242ZM374.608 144.16V152.832H371.314V144.16H374.608ZM374.608 154.732V163.404H371.314V154.732H374.608ZM374.608 165.285V173.957H371.314V165.285H374.608ZM374.608 175.857V184.529H371.314V175.857H374.608ZM374.608 186.429V195.101H371.314V186.429H374.608ZM374.608 197.001V205.672H371.314V197.001H374.608ZM374.608 207.572V216.244H371.314V207.572H374.608ZM374.608 218.144V226.816H371.314V218.144H374.608ZM374.608 228.716V237.388H371.314V228.716H374.608ZM374.608 239.269V247.941H371.314V239.269H374.608ZM374.608 249.841V258.513H371.314V249.841H374.608ZM374.608 260.413V269.066H371.314V260.413H374.608ZM376.34 260.413H380.275V269.066H376.34V260.413ZM382.007 260.413H386.223V269.066H382.007V260.413ZM387.616 260.413H389.461V269.066H387.616V260.413ZM390.854 260.413H393.866V269.066H390.854V260.413ZM402.526 266.564V260.413H404.258V269.066H403.392V266.545H402.526V266.564ZM406.159 260.413H408.588V269.066H406.159V260.413ZM433.531 266.564H435.47V273.223H433.531V266.564ZM436.919 266.564H439.63V273.223H436.919V266.564ZM441.08 266.564H450.04V273.223H441.08V266.564ZM451.942 266.564H458.135V273.223H451.942V266.564ZM458.135 264.833H451.942V258.174H458.135V264.833ZM451.942 256.425V249.766H458.135V256.425H451.942ZM458.135 222.414H451.942V215.548H458.135V222.414ZM451.942 213.818V206.952H458.135V213.818H451.942ZM458.135 112.276V119.142H451.942V112.276H458.135ZM450.04 103.679V110.545H447.725H441.08V103.679H450.04ZM439.63 101.929H436.919V95.0634H439.63V101.929ZM439.63 86.4668V93.3328H436.919V86.4668H439.63ZM435.47 86.4668V93.3328H433.531V86.4668H435.47ZM408.588 84.7173V102.964H406.159V84.7173H408.588ZM404.258 82.6481H402.526V81.6135H404.258V82.6481ZM387.616 81.6135H389.461V82.6481H387.616V81.6135ZM387.616 84.7173H389.461V102.964H387.616V84.7173ZM386.223 105.052V110.978H383.964V113.498H382.007V105.071H386.223V105.052ZM376.34 105.052H380.275V113.479H376.34V105.052ZM376.34 115.229H380.275V119.913H376.34V115.229ZM374.608 121.926V132.385H371.314V121.926H374.608ZM361.544 121.926H368.528V132.385H361.544V121.926ZM361.544 134.284H368.528V142.26H361.544V134.284ZM361.544 144.16H368.528V152.832H361.544V144.16ZM361.544 154.732H368.528V163.404H361.544V154.732ZM361.544 165.285H368.528V173.957H361.544V165.285ZM361.544 175.857H368.528V184.529H361.544V175.857ZM361.544 186.429H368.528V195.101H361.544V186.429ZM361.544 197.001H368.528V205.672H361.544V197.001ZM361.544 207.572H368.528V216.244H361.544V207.572ZM361.544 218.144H368.528V226.816H361.544V218.144ZM361.544 228.716H368.528V237.388H361.544V228.716ZM361.544 239.269H368.528V247.941H361.544V239.269ZM361.544 249.841H368.528V258.513H361.544V249.841ZM361.544 260.413H368.528V269.066H361.544V260.413ZM361.544 279.656V270.984H368.528V279.656H361.544ZM371.314 279.656V270.984H374.608V279.656H371.314ZM376.34 279.656V270.984H380.275V279.656H376.34ZM382.007 279.656V270.984H386.223V279.656H382.007ZM387.616 279.656V270.984H389.461V279.656H387.616ZM390.854 279.656V270.984H393.866V279.656H390.854ZM398.591 279.656V270.984H401.302V279.656H398.591ZM402.526 279.656V270.984H404.258V279.656H402.526ZM406.159 279.656V270.984H408.588V279.656H406.159ZM433.531 279.656V274.972H435.47V279.656H433.531ZM436.919 279.656V274.972H439.63V279.656H436.919ZM441.08 279.656V274.972H450.04V279.656H441.08ZM451.942 274.972H458.135V279.656H451.942V274.972Z" fill="#CEC9C9"/>
<path d="M343.392 183.904C344.667 185.252 346.909 184.863 347.678 183.176C351.91 173.869 361.487 146.477 345.669 114.92C332.311 88.272 327.611 72.5581 325.974 65.2764C325.627 63.7374 323.509 63.5332 322.87 64.9759C315.815 80.9023 297.188 135.075 343.392 183.904Z" fill="#39B039"/>
<path d="M345.709 182.922C345.754 182.931 345.8 182.934 345.849 182.934C346.249 182.927 346.569 182.599 346.564 182.2C346.557 181.747 345.672 136.51 328.78 98.6201C328.617 98.2549 328.189 98.0905 327.822 98.2532C327.455 98.4159 327.29 98.8426 327.454 99.2079C344.224 136.822 345.105 181.774 345.114 182.223C345.117 182.574 345.374 182.863 345.709 182.922Z" fill="white"/>
<path d="M360.247 66.4086C360.527 65.2249 358.853 64.4379 357.83 65.2647C347.431 73.6637 322.443 98.8176 328.67 142.773C336.483 197.924 323.127 218.047 306.5 230.323C306.5 230.323 329.334 224.55 343.7 204.13C378.97 153.995 355.281 87.4651 360.247 66.4086Z" fill="#39B039"/>
<path d="M352.333 83.6349C351.031 89.7743 349.872 95.932 348.976 102.12C348.042 108.301 347.327 114.503 346.837 120.716C346.375 126.93 346.049 133.149 346.03 139.373C345.979 145.596 346.239 151.813 346.525 158.056C346.77 164.295 347.059 170.58 346.6 176.909C346.149 183.224 344.815 189.596 342.167 195.568C341.505 197.057 340.808 198.54 340.016 199.974C339.256 201.422 338.421 202.84 337.556 204.244C335.811 207.048 333.846 209.756 331.657 212.326C327.264 217.46 321.963 222.012 316.124 225.865C315.509 226.27 314.629 226.171 314.157 225.643C313.694 225.123 313.797 224.384 314.384 223.974L314.389 223.971C315.777 223 317.153 222.015 318.471 220.981C319.139 220.473 319.781 219.94 320.435 219.419C321.063 218.876 321.718 218.354 322.326 217.797C324.805 215.598 327.102 213.254 329.185 210.774C333.378 205.838 336.733 200.338 339.275 194.637C340.508 191.773 341.495 188.836 342.215 185.843C342.933 182.849 343.383 179.804 343.634 176.735C344.134 170.592 343.907 164.369 343.714 158.129C343.53 151.886 343.395 145.612 343.56 139.343C343.633 136.209 343.772 133.076 343.975 129.948C344.067 128.383 344.194 126.82 344.317 125.256C344.457 123.694 344.609 122.134 344.774 120.573C345.449 114.334 346.345 108.116 347.467 101.932C348.626 95.7527 349.972 89.6 351.594 83.5037C351.641 83.3294 351.843 83.2198 352.044 83.2596C352.243 83.2995 352.368 83.4655 352.333 83.6349Z" fill="white"/>
<path d="M143.472 273.877C143.472 275.911 145.144 277.574 147.187 277.574H348.082C350.125 277.574 351.797 275.911 351.797 273.877L353.469 158.887C353.469 156.854 351.064 152.884 346.657 153.183L150.319 148.123C147.756 148.056 145.277 149.039 143.462 150.842C141.647 152.645 140.654 155.109 140.714 157.66L143.472 273.877Z" fill="url(#paint0_linear_1224_4446)"/>
<path d="M131.005 287.688H360.895C361.149 287.688 361.357 287.481 361.357 287.228V277.476C361.357 277.224 361.149 277.016 360.895 277.016H131.005C130.751 277.016 130.543 277.224 130.543 277.476V287.228C130.543 287.481 130.751 287.688 131.005 287.688Z" fill="#231F20"/>
<path d="M147.14 270.331C147.14 272.257 148.722 273.832 150.656 273.832H343.238C345.171 273.832 346.753 272.257 346.753 270.331L348.33 165.942C348.145 159.659 342.614 157.402 339.262 157.536L151.093 152.507C149.291 152.459 147.551 153.15 146.274 154.418C144.999 155.685 144.297 157.42 144.342 159.215L147.14 270.331Z" fill="url(#paint1_linear_1224_4446)"/>
<path d="M321.965 190.885H156.401C154.558 190.885 153.051 189.382 153.051 187.548V94.2902C153.051 92.454 154.559 90.9531 156.401 90.9531H321.965C323.809 90.9531 325.316 92.4556 325.316 94.2902V187.548C325.316 189.382 323.807 190.885 321.965 190.885Z" fill="#E527BB"/>
<path d="M325.361 105.101V100.614C325.361 95.2994 321.02 91.1472 315.771 91.1472H162.595C157.346 91.1472 153.051 95.2994 153.051 100.614V105.101H325.361Z" fill="#E527BB"/>
<path opacity="0.32" d="M206.858 145.433H159.195C158.841 145.433 158.555 145.147 158.555 144.795V110.695C158.555 110.343 158.841 110.057 159.195 110.057H206.856C207.209 110.057 207.496 110.343 207.496 110.695V144.795C207.498 145.147 207.211 145.433 206.858 145.433Z" fill="white"/>
<path opacity="0.32" d="M316.664 133.342H263.016C262.594 133.342 262.254 133.001 262.254 132.583V110.479C262.254 110.059 262.596 109.72 263.016 109.72H316.666C317.088 109.72 317.428 110.061 317.428 110.479V132.583C317.428 133.001 317.086 133.342 316.664 133.342Z" fill="white"/>
<path opacity="0.32" d="M316.871 159.39H263.249C262.821 159.39 262.473 159.045 262.473 158.617V136.541C262.473 136.114 262.819 135.767 263.249 135.767H316.871C317.3 135.767 317.648 136.112 317.648 136.541V158.618C317.648 159.045 317.3 159.39 316.871 159.39Z" fill="white"/>
<path opacity="0.32" d="M316.936 185.439H263.613C263.101 185.439 262.688 185.026 262.688 184.518V162.739C262.688 162.229 263.103 161.818 263.613 161.818H316.936C317.448 161.818 317.861 162.231 317.861 162.739V184.518C317.861 185.027 317.448 185.439 316.936 185.439Z" fill="white"/>
<path opacity="0.32" d="M206.652 185.049H159.18C158.774 185.049 158.445 184.72 158.445 184.317V150.405C158.445 150 158.775 149.673 159.18 149.673H206.652C207.058 149.673 207.387 150.002 207.387 150.405V184.317C207.388 184.72 207.058 185.049 206.652 185.049Z" fill="white"/>
<path opacity="0.32" d="M258.467 145.433H210.804C210.451 145.433 210.164 145.147 210.164 144.795V110.695C210.164 110.343 210.451 110.057 210.804 110.057H258.465C258.819 110.057 259.105 110.343 259.105 110.695V144.795C259.107 145.147 258.82 145.433 258.467 145.433Z" fill="white"/>
<path opacity="0.32" d="M258.265 185.049H210.794C210.387 185.049 210.059 184.72 210.059 184.317V150.405C210.059 150 210.389 149.673 210.794 149.673H258.265C258.672 149.673 259 150.002 259 150.405V184.317C259 184.72 258.672 185.049 258.265 185.049Z" fill="white"/>
<path d="M162.263 101.788C164.207 101.788 165.783 100.218 165.783 98.2815C165.783 96.345 164.207 94.7751 162.263 94.7751C160.318 94.7751 158.742 96.345 158.742 98.2815C158.742 100.218 160.318 101.788 162.263 101.788Z" fill="white"/>
<path d="M185.025 101.521C186.821 100.78 187.674 98.7292 186.93 96.94C186.186 95.1509 184.127 94.3013 182.331 95.0424C180.534 95.7835 179.681 97.8347 180.425 99.6238C181.169 101.413 183.229 102.263 185.025 101.521Z" fill="white"/>
<path d="M172.821 101.788C174.765 101.788 176.341 100.218 176.341 98.2815C176.341 96.345 174.765 94.7751 172.821 94.7751C170.877 94.7751 169.301 96.345 169.301 98.2815C169.301 100.218 170.877 101.788 172.821 101.788Z" fill="white"/>
<path d="M341.378 223.812H180.651C178.808 223.812 177.301 222.309 177.301 220.475V130.023C177.301 128.187 178.809 126.686 180.651 126.686H341.377C343.22 126.686 344.727 128.189 344.727 130.023V220.475C344.729 222.309 343.22 223.812 341.378 223.812Z" fill="#A78BEF"/>
<path d="M344.696 140.544V136.078C344.696 130.913 340.554 126.87 335.452 126.87H186.578C181.476 126.87 177.148 130.913 177.148 136.078V140.544H344.696Z" fill="#A78BEF"/>
<path opacity="0.6" d="M229.527 191.908H183.679C183.326 191.908 183.039 191.622 183.039 191.27V145.325C183.039 144.973 183.326 144.688 183.679 144.688H229.527C229.88 144.688 230.167 144.973 230.167 145.325V191.27C230.167 191.622 229.882 191.908 229.527 191.908Z" fill="white"/>
<path opacity="0.6" d="M280.453 191.908H234.605C234.252 191.908 233.965 191.622 233.965 191.27V145.325C233.965 144.973 234.252 144.688 234.605 144.688H280.453C280.806 144.688 281.093 144.973 281.093 145.325V191.27C281.093 191.622 280.806 191.908 280.453 191.908Z" fill="white"/>
<path opacity="0.6" d="M337.42 179.564H285.32C284.899 179.564 284.559 179.223 284.559 178.805V145.685C284.559 145.265 284.9 144.927 285.32 144.927H337.42C337.842 144.927 338.182 145.267 338.182 145.685V178.805C338.182 179.225 337.84 179.564 337.42 179.564Z" fill="white"/>
<path opacity="0.6" d="M337.62 218.318H285.546C285.118 218.318 284.77 217.973 284.77 217.544V184.453C284.77 184.026 285.116 183.679 285.546 183.679H337.62C338.048 183.679 338.396 184.025 338.396 184.453V217.546C338.395 217.973 338.048 218.318 337.62 218.318Z" fill="white"/>
<path opacity="0.6" d="M279.726 218.411H184.122C183.715 218.411 183.387 218.082 183.387 217.679V196.812C183.387 196.407 183.717 196.08 184.122 196.08H279.728C280.134 196.08 280.463 196.408 280.463 196.812V217.679C280.463 218.082 280.133 218.411 279.726 218.411Z" fill="white"/>
<path d="M186.252 137.217C188.141 137.217 189.673 135.691 189.673 133.81C189.673 131.928 188.141 130.403 186.252 130.403C184.363 130.403 182.832 131.928 182.832 133.81C182.832 135.691 184.363 137.217 186.252 137.217Z" fill="white"/>
<path d="M207.065 137.227C208.954 137.227 210.485 135.701 210.485 133.82C210.485 131.938 208.954 130.413 207.065 130.413C205.176 130.413 203.645 131.938 203.645 133.82C203.645 135.701 205.176 137.227 207.065 137.227Z" fill="white"/>
<path d="M196.518 137.217C198.407 137.217 199.938 135.691 199.938 133.81C199.938 131.928 198.407 130.403 196.518 130.403C194.629 130.403 193.098 131.928 193.098 133.81C193.098 135.691 194.629 137.217 196.518 137.217Z" fill="white"/>
<path d="M360.699 276.45H194.276C192.433 276.45 190.926 274.948 190.926 273.113V179.854C190.926 178.018 192.434 176.517 194.276 176.517H359.84C361.684 176.517 363.191 178.02 363.191 179.854V273.967C363.191 275.333 362.069 276.45 360.699 276.45Z" fill="#E527BB"/>
<path d="M363.189 190.777V186.181C363.189 180.867 358.893 176.544 353.645 176.544H200.468C195.219 176.544 190.879 180.867 190.879 186.181V190.777H363.189Z" fill="#E527BB"/>
<path opacity="0.6" d="M296.901 231.277H198.3C197.947 231.277 197.66 230.992 197.66 230.64V196.539C197.66 196.187 197.947 195.902 198.3 195.902H296.901C297.255 195.902 297.541 196.187 297.541 196.539V230.64C297.541 230.992 297.255 231.277 296.901 231.277Z" fill="white"/>
<path opacity="0.6" d="M355.656 218.907H302.008C301.586 218.907 301.246 218.567 301.246 218.149V196.045C301.246 195.625 301.588 195.286 302.008 195.286H355.658C356.08 195.286 356.42 195.626 356.42 196.045V218.149C356.42 218.567 356.078 218.907 355.656 218.907Z" fill="white"/>
<path opacity="0.6" d="M355.863 244.956H302.242C301.813 244.956 301.465 244.611 301.465 244.183V222.107C301.465 221.68 301.812 221.333 302.242 221.333H355.863C356.292 221.333 356.64 221.678 356.64 222.107V244.184C356.64 244.611 356.292 244.956 355.863 244.956Z" fill="white"/>
<path opacity="0.6" d="M355.932 271.005H302.609C302.097 271.005 301.684 270.591 301.684 270.083V248.305C301.684 247.795 302.099 247.383 302.609 247.383H355.932C356.444 247.383 356.857 247.797 356.857 248.305V270.083C356.857 270.591 356.444 271.005 355.932 271.005Z" fill="white"/>
<path opacity="0.6" d="M296.59 270.894H198.18C197.774 270.894 197.445 270.565 197.445 270.161V236.25C197.445 235.845 197.775 235.518 198.18 235.518H296.592C296.998 235.518 297.327 235.847 297.327 236.25V270.161C297.327 270.565 296.997 270.894 296.59 270.894Z" fill="white"/>
<path d="M200.138 187.353C202.082 187.353 203.658 185.783 203.658 183.847C203.658 181.91 202.082 180.341 200.138 180.341C198.193 180.341 196.617 181.91 196.617 183.847C196.617 185.783 198.193 187.353 200.138 187.353Z" fill="white"/>
<path d="M221.544 187.353C223.488 187.353 225.064 185.783 225.064 183.847C225.064 181.91 223.488 180.341 221.544 180.341C219.6 180.341 218.023 181.91 218.023 183.847C218.023 185.783 219.6 187.353 221.544 187.353Z" fill="white"/>
<path d="M210.696 187.353C212.64 187.353 214.216 185.783 214.216 183.847C214.216 181.91 212.64 180.341 210.696 180.341C208.752 180.341 207.176 181.91 207.176 183.847C207.176 185.783 208.752 187.353 210.696 187.353Z" fill="white"/>
<path d="M263.315 197.159C263.248 197.285 261.226 198.703 261.226 198.703C261.226 198.703 259.821 206.408 262.398 210.201C264.975 213.995 273.754 207.241 273.754 207.241C273.754 207.241 278.693 206.472 281.173 196.802C281.741 194.584 278.183 196.269 274.219 196.677C269.105 197.203 263.315 197.159 263.315 197.159Z" fill="#231F20"/>
<path d="M254.545 221.313C256.226 220.161 258.087 219.292 260.057 218.758C260.797 218.557 264.796 219.714 267.267 219.658C270.659 219.58 274.113 218.042 276.91 218.736C279.689 219.425 281.962 220.327 283.274 221.257C287.203 224.041 289.511 229.231 290.916 234.372C288.255 237.095 284.904 238.304 284.904 238.304L284.286 263.295L269.449 270.855L252.514 262.387L253.121 237.963C253.121 237.963 247.744 235.47 247.349 234.561C246.954 233.653 249.801 224.562 254.545 221.313Z" fill="#A78BEF"/>
<path d="M247.604 234.455C247.604 234.455 240.399 254.355 256.83 262.533C260.242 262.081 258.931 256.438 258.931 256.438C258.931 256.438 251.79 254.864 253.935 238.264C251.962 236.645 247.604 234.455 247.604 234.455Z" fill="url(#paint2_linear_1224_4446)"/>
<path d="M290.574 234.455C290.574 234.455 295.533 255.228 281.348 262.533C277.936 262.081 279.248 256.438 279.248 256.438C279.248 256.438 285.002 253.616 284.243 238.264C286.219 236.645 290.574 234.455 290.574 234.455Z" fill="url(#paint3_linear_1224_4446)"/>
<path d="M284.443 263.931H252.734C252.507 263.931 252.32 263.746 252.32 263.519V242.456C252.32 242.23 252.505 242.044 252.734 242.044H284.443C284.67 242.044 284.857 242.228 284.857 242.456V263.519C284.857 263.745 284.67 263.931 284.443 263.931Z" fill="#E527BB"/>
<path d="M270.507 247.971C270.68 249.131 270.055 250.186 268.889 250.358C267.724 250.531 266.638 249.727 266.465 248.567C266.293 247.406 266.827 246.253 267.992 246.082C269.159 245.909 270.334 246.81 270.507 247.971Z" fill="white"/>
<path d="M299.123 270.419C295.399 269.567 286.793 270.025 286.793 270.025L286.443 270.97L285.863 275.663C285.863 275.663 294.059 277.134 298.098 277.131C298.51 277.131 298.886 277.069 299.231 276.962C299.355 276.852 299.475 276.737 299.588 276.613C301.305 274.749 300.81 272.009 299.123 270.419Z" fill="#A78BEF"/>
<path d="M299.497 270.512C299.381 270.478 299.257 270.449 299.129 270.419C300.816 272.009 301.311 274.749 299.596 276.613C299.482 276.737 299.361 276.85 299.239 276.962C302.268 276.022 302.628 271.388 299.497 270.512Z" fill="url(#paint4_linear_1224_4446)"/>
<path d="M284.324 269.76L285.781 269.821C286.564 269.854 287.301 270.234 287.828 270.875C288.354 271.516 288.624 272.364 288.579 273.228C288.543 273.917 288.259 274.561 287.791 275.017C287.322 275.474 286.709 275.706 286.086 275.663L283.855 275.506L284.324 269.76Z" fill="url(#paint5_linear_1224_4446)"/>
<path d="M235.328 269.967C239.072 269.23 247.663 269.951 247.663 269.951L247.989 270.905L248.451 275.614C248.451 275.614 240.222 276.834 236.183 276.706C235.771 276.693 235.396 276.62 235.055 276.503C234.935 276.389 234.816 276.273 234.706 276.145C233.039 274.229 233.603 271.506 235.328 269.967Z" fill="#A78BEF"/>
<path d="M234.958 270.049C235.074 270.019 235.199 269.992 235.329 269.967C233.604 271.506 233.041 274.229 234.707 276.145C234.817 276.273 234.936 276.391 235.056 276.504C232.049 275.471 231.806 270.829 234.958 270.049Z" fill="url(#paint6_linear_1224_4446)"/>
<path d="M250.14 269.761L248.682 269.778C247.898 269.788 247.152 270.145 246.608 270.769C246.067 271.393 245.775 272.233 245.798 273.098C245.818 273.787 246.085 274.441 246.542 274.911C246.998 275.383 247.605 275.633 248.23 275.608L250.464 275.519L250.14 269.761Z" fill="url(#paint7_linear_1224_4446)"/>
<path d="M300.167 255.706C298.479 251.834 294.348 251.207 290.833 253.016C290.771 253.096 268.511 264.46 248.879 269.441C249.441 271.236 249.731 273.145 249.792 275.023C249.804 275.441 249.797 275.853 249.772 276.259C264.827 275.489 281.165 270.489 295.207 266.094C299.56 264.696 302.039 259.996 300.167 255.706Z" fill="#231F20"/>
<path d="M284.434 275.316C284.375 273.153 284.797 271.139 285.7 269.275C285.725 269.19 285.757 269.107 285.784 269.022C284.662 268.677 283.215 268.207 281.312 267.565C267.37 262.813 256.736 258.015 246.587 252.492C242.643 250.347 238.161 251.784 236.897 256.431C235.771 260.58 238.328 263.897 242.001 265.367C254.627 270.419 273.174 275.032 284.457 275.788C284.449 275.63 284.439 275.474 284.434 275.316Z" fill="#231F20"/>
<path d="M260.062 218.758C260.062 218.758 261.561 225.229 268.84 225.095C276.254 224.96 276.914 218.736 276.914 218.736L272.07 217.704L271.665 212.33L264.38 212.867L264.245 217.974L260.062 218.758Z" fill="url(#paint8_linear_1224_4446)"/>
<path d="M265.084 196.488C265.084 196.488 257.326 211.455 266.529 215.085C273.019 217.647 277.088 205.147 275.875 201.761C273.998 196.526 272.763 197.147 272.763 197.147L265.084 196.488Z" fill="url(#paint9_linear_1224_4446)"/>
<path d="M275.871 201.761C275.849 201.699 275.831 201.646 275.812 201.594C275.843 201.87 275.858 202.157 275.861 202.454C275.873 202.244 275.883 202.033 275.889 201.82C275.884 201.8 275.879 201.779 275.871 201.761Z" fill="white"/>
<path d="M275.814 201.595C275.803 201.492 275.791 201.39 275.776 201.292C276.174 201.953 275.408 200.411 275.814 201.595Z" fill="white"/>
<path d="M279.463 192.469C283.618 191.527 280.734 204.332 274.545 202.234C268.358 200.134 265.475 198.845 264.511 200.537C263.548 202.229 261.941 209.152 261.406 205.563C260.907 202.207 260.424 196.06 263.674 194.718C265.521 193.956 267.143 195.608 268.416 195.195C270.377 194.559 272.262 194.537 273.427 195.205C275.629 196.47 276.821 193.068 279.463 192.469Z" fill="#231F20"/>
<path d="M263.821 203.027C263.821 203.027 262.479 201.009 261.867 203.074C261.256 205.139 261.644 207.993 262.874 206.667C264.104 205.34 263.821 203.027 263.821 203.027Z" fill="url(#paint10_linear_1224_4446)"/>
<path d="M268.63 225.523C264.238 225.523 260.891 223.053 259.65 218.879C259.584 218.653 259.712 218.416 259.94 218.348C260.167 218.281 260.405 218.409 260.474 218.637C261.017 220.463 262.891 224.67 268.615 224.67C268.686 224.67 268.76 224.67 268.833 224.668C270.538 224.637 272.008 224.268 273.202 223.571C273.407 223.451 273.668 223.519 273.788 223.724C273.908 223.928 273.84 224.188 273.635 224.308C272.313 225.08 270.703 225.49 268.848 225.523C268.775 225.523 268.703 225.523 268.63 225.523Z" fill="#5436DF"/>
<g opacity="0.3">
<path d="M158.468 247.621C158.919 247.797 159.143 248.306 158.964 248.756C158.619 249.631 158.308 250.533 158.038 251.439C157.901 251.897 157.421 252.16 156.961 252.034C156.956 252.032 156.949 252.03 156.944 252.029C156.479 251.891 156.214 251.403 156.352 250.94C156.637 249.987 156.966 249.037 157.328 248.115C157.494 247.694 157.951 247.473 158.379 247.591C158.409 247.599 158.438 247.609 158.468 247.621ZM157.026 255.935C156.882 256.868 156.777 257.816 156.714 258.754C156.681 259.236 156.262 259.601 155.777 259.569C155.291 259.534 154.927 259.119 154.959 258.636C155.026 257.65 155.136 256.652 155.287 255.669C155.361 255.191 155.809 254.864 156.289 254.937C156.324 254.942 156.357 254.951 156.391 254.959C156.816 255.075 157.094 255.492 157.026 255.935ZM156.724 263.358C156.792 264.298 156.902 265.244 157.051 266.174C157.127 266.652 156.801 267.1 156.321 267.176C155.842 267.253 155.391 266.927 155.314 266.449C155.157 265.47 155.041 264.472 154.969 263.484C154.934 263.001 155.297 262.583 155.782 262.548C155.886 262.541 155.986 262.551 156.081 262.578C156.431 262.674 156.697 262.979 156.724 263.358ZM158.098 270.663C158.374 271.564 158.696 272.464 159.049 273.337C159.231 273.786 159.013 274.297 158.563 274.476C158.113 274.657 157.601 274.44 157.419 273.992C157.047 273.072 156.711 272.125 156.417 271.178C156.276 270.716 156.536 270.225 156.999 270.083C157.166 270.032 157.334 270.034 157.491 270.077C157.771 270.153 158.006 270.367 158.098 270.663ZM161.071 277.481C161.541 278.297 162.053 279.103 162.593 279.879C162.87 280.277 162.77 280.822 162.371 281.097C161.971 281.373 161.425 281.273 161.148 280.876C160.579 280.061 160.041 279.211 159.546 278.353C159.304 277.935 159.449 277.398 159.869 277.158C160.081 277.036 160.323 277.013 160.541 277.073C160.76 277.133 160.951 277.274 161.071 277.481ZM165.485 283.473C166.125 284.165 166.803 284.839 167.502 285.475C167.86 285.802 167.885 286.355 167.557 286.712C167.228 287.069 166.673 287.094 166.315 286.767C165.582 286.098 164.867 285.389 164.193 284.66C163.865 284.305 163.886 283.75 164.243 283.423C164.475 283.211 164.792 283.146 165.075 283.224C165.227 283.266 165.37 283.349 165.485 283.473ZM196.196 294.497C196.271 294.975 195.945 295.423 195.465 295.498C194.483 295.652 193.479 295.765 192.484 295.837C191.999 295.87 191.579 295.508 191.546 295.025C191.511 294.543 191.876 294.123 192.361 294.09C193.306 294.024 194.258 293.916 195.19 293.77C195.318 293.75 195.443 293.758 195.561 293.79C195.885 293.878 196.141 294.145 196.196 294.497ZM171.119 288.339C171.897 288.872 172.709 289.378 173.531 289.842C173.952 290.081 174.101 290.615 173.862 291.035C173.622 291.455 173.087 291.601 172.664 291.364C171.799 290.874 170.944 290.343 170.124 289.782C169.724 289.508 169.622 288.963 169.897 288.565C170.115 288.249 170.504 288.12 170.855 288.216C170.947 288.243 171.037 288.283 171.119 288.339ZM188.554 295.025C188.521 295.506 188.1 295.871 187.615 295.838C186.624 295.77 185.622 295.657 184.637 295.505C184.157 295.433 183.828 294.983 183.903 294.505C183.978 294.027 184.427 293.7 184.907 293.775C185.842 293.919 186.795 294.025 187.737 294.092C187.797 294.097 187.855 294.107 187.912 294.122C188.306 294.23 188.582 294.603 188.554 295.025ZM177.703 291.829C178.581 292.174 179.486 292.486 180.393 292.757C180.858 292.895 181.123 293.383 180.983 293.846C180.846 294.303 180.366 294.565 179.906 294.439C179.9 294.437 179.895 294.435 179.888 294.434C178.933 294.15 177.981 293.821 177.056 293.458C176.604 293.28 176.383 292.77 176.561 292.322C176.728 291.902 177.184 291.681 177.613 291.799C177.643 291.807 177.673 291.817 177.703 291.829Z" fill="url(#paint11_linear_1224_4446)"/>
<path d="M201.55 292.284C201.384 292.237 201.202 292.241 201.025 292.302C200.597 292.452 200.16 292.594 199.723 292.729C199.26 292.87 198.998 293.36 199.14 293.823C199.282 294.286 199.773 294.547 200.238 294.404C200.697 294.265 201.157 294.113 201.607 293.956C202.065 293.796 202.305 293.295 202.145 292.84C202.047 292.556 201.817 292.357 201.55 292.284Z" fill="url(#paint12_linear_1224_4446)"/>
</g>
<g opacity="0.3">
<path d="M221.357 274.305C220.948 274.192 220.507 274.388 220.323 274.785C220.135 275.195 219.935 275.609 219.728 276.014C219.508 276.445 219.682 276.972 220.113 277.191C220.548 277.41 221.075 277.237 221.295 276.807C221.512 276.381 221.723 275.946 221.922 275.514C222.124 275.074 221.929 274.554 221.488 274.353C221.447 274.334 221.402 274.317 221.357 274.305Z" fill="url(#paint13_linear_1224_4446)"/>
<path d="M201.053 227.745C201.514 227.896 201.764 228.392 201.611 228.85C201.459 229.31 200.963 229.558 200.501 229.407C199.622 229.118 198.719 228.862 197.804 228.643C197.334 228.532 197.042 228.057 197.156 227.587C197.269 227.117 197.744 226.828 198.216 226.941C198.612 227.036 199.006 227.137 199.396 227.245C199.951 227.398 200.509 227.565 201.053 227.745ZM194.279 227.1C194.23 227.582 193.799 227.932 193.315 227.884C192.388 227.791 191.447 227.736 190.517 227.72C190.032 227.713 189.645 227.313 189.651 226.83C189.66 226.347 190.06 225.962 190.545 225.97C191.523 225.986 192.513 226.045 193.49 226.143C193.54 226.148 193.59 226.157 193.637 226.171C194.045 226.28 194.324 226.669 194.279 227.1ZM205.486 229.548C206.365 229.976 207.237 230.449 208.077 230.952C208.493 231.201 208.628 231.739 208.378 232.154C208.128 232.569 207.588 232.702 207.172 232.455C206.373 231.977 205.545 231.528 204.711 231.122C204.276 230.909 204.095 230.384 204.31 229.949C204.498 229.566 204.933 229.382 205.333 229.491C205.385 229.504 205.436 229.523 205.486 229.548ZM186.741 226.981C186.8 227.461 186.456 227.897 185.974 227.955C185.051 228.067 184.121 228.219 183.211 228.409C182.736 228.508 182.271 228.205 182.171 227.73C182.072 227.257 182.377 226.793 182.853 226.694C183.811 226.494 184.791 226.333 185.763 226.217C185.881 226.204 185.994 226.212 186.103 226.242C186.435 226.333 186.696 226.617 186.741 226.981ZM212.004 233.68C212.765 234.291 213.51 234.942 214.221 235.617C214.572 235.951 214.586 236.506 214.251 236.854C213.916 237.205 213.359 237.218 213.007 236.882C212.334 236.242 211.625 235.622 210.902 235.043C210.524 234.739 210.464 234.188 210.769 233.811C210.995 233.53 211.36 233.426 211.689 233.516C211.799 233.549 211.907 233.604 212.004 233.68ZM217.451 239.137C218.061 239.901 218.646 240.698 219.191 241.508C219.461 241.91 219.353 242.454 218.949 242.723C218.544 242.992 217.999 242.884 217.729 242.481C217.212 241.71 216.656 240.953 216.076 240.228C215.772 239.849 215.836 239.298 216.216 238.998C216.444 238.817 216.736 238.767 216.999 238.838C217.171 238.886 217.331 238.988 217.451 239.137ZM221.576 245.647C222.006 246.525 222.403 247.431 222.756 248.34C222.931 248.791 222.706 249.298 222.255 249.472C221.801 249.646 221.293 249.422 221.118 248.972C220.783 248.109 220.404 247.249 219.998 246.414C219.784 245.979 219.966 245.454 220.403 245.243C220.603 245.145 220.823 245.132 221.021 245.187C221.255 245.25 221.461 245.411 221.576 245.647ZM224.176 252.897C224.403 253.846 224.59 254.818 224.735 255.782C224.807 256.26 224.475 256.707 223.995 256.777C223.515 256.848 223.068 256.518 222.996 256.04C222.86 255.123 222.681 254.202 222.466 253.299C222.355 252.829 222.646 252.356 223.118 252.244C223.268 252.21 223.416 252.215 223.555 252.253C223.855 252.337 224.1 252.575 224.176 252.897ZM225.115 260.544C225.125 261.518 225.093 262.506 225.022 263.479C224.985 263.962 224.565 264.324 224.08 264.288C223.596 264.251 223.231 263.833 223.268 263.35C223.336 262.425 223.366 261.487 223.356 260.562C223.351 260.079 223.741 259.682 224.226 259.677C224.312 259.675 224.393 259.687 224.47 259.709C224.84 259.81 225.112 260.145 225.115 260.544ZM224.347 268.201C224.196 268.903 224.023 269.609 223.831 270.299C223.761 270.55 223.69 270.797 223.615 271.045C223.475 271.508 222.988 271.782 222.52 271.631C222.055 271.491 221.791 271.003 221.93 270.54C222 270.306 222.07 270.068 222.135 269.831C222.316 269.174 222.481 268.503 222.623 267.835C222.723 267.362 223.19 267.06 223.665 267.161C223.683 267.165 223.7 267.17 223.718 267.175C224.166 267.299 224.443 267.746 224.347 268.201Z" fill="url(#paint14_linear_1224_4446)"/>
<path d="M178.742 227.974C178.573 227.927 178.39 227.931 178.213 227.994C177.765 228.153 177.311 228.324 176.866 228.505C176.416 228.686 176.198 229.197 176.381 229.646C176.563 230.094 177.075 230.311 177.526 230.129C177.95 229.958 178.38 229.795 178.807 229.644C179.263 229.481 179.502 228.981 179.34 228.525C179.237 228.244 179.008 228.047 178.742 227.974Z" fill="url(#paint15_linear_1224_4446)"/>
</g>
<path d="M172.273 241.531C172.13 241.632 172.067 241.812 172.117 241.979L173.52 246.761C171.973 248.502 170.693 250.503 169.76 252.709L164.829 253.518C164.656 253.546 164.521 253.681 164.491 253.853L163.483 259.742C163.453 259.915 163.536 260.086 163.691 260.17L168.075 262.561C168.221 264.95 168.763 267.259 169.643 269.414L166.728 273.462C166.626 273.603 166.625 273.794 166.726 273.937L170.193 278.811C170.295 278.954 170.475 279.017 170.643 278.967L175.444 277.569C177.192 279.11 179.201 280.385 181.416 281.315L182.228 286.226C182.256 286.398 182.391 286.533 182.564 286.563L188.477 287.567C188.65 287.597 188.822 287.514 188.907 287.36L191.307 282.993C193.706 282.847 196.026 282.308 198.188 281.431L202.251 284.335C202.393 284.436 202.585 284.438 202.728 284.336L207.622 280.883C207.765 280.782 207.829 280.603 207.779 280.435L206.375 275.653C207.922 273.912 209.202 271.911 210.135 269.705L215.066 268.896C215.239 268.868 215.374 268.734 215.404 268.561L216.413 262.672C216.443 262.5 216.359 262.329 216.204 262.244L211.821 259.853C211.674 257.464 211.132 255.153 210.252 253L213.167 248.952C213.269 248.811 213.271 248.62 213.169 248.477L209.702 243.603C209.6 243.46 209.42 243.397 209.252 243.447L204.452 244.845C202.703 243.304 200.695 242.029 198.479 241.099L197.668 236.189C197.639 236.016 197.504 235.881 197.331 235.852L191.419 234.847C191.245 234.817 191.074 234.9 190.989 235.055L188.588 239.421C186.19 239.567 183.871 240.107 181.708 240.983L177.644 238.08C177.502 237.978 177.311 237.977 177.167 238.078L172.273 241.531Z" fill="#A78BEF"/>
<path opacity="0.56" d="M192.381 255.716C195.421 257.056 196.801 260.609 195.458 263.637C194.806 265.104 193.621 266.23 192.119 266.81C190.617 267.389 188.979 267.351 187.505 266.702C184.465 265.362 183.085 261.809 184.428 258.781C185.652 256.025 188.714 254.638 191.547 255.419C191.827 255.495 192.107 255.595 192.381 255.716ZM191.611 265.501C192.762 265.058 193.671 264.193 194.171 263.069C195.201 260.746 194.143 258.022 191.812 256.996C189.48 255.968 186.745 257.024 185.715 259.345C184.685 261.668 185.743 264.392 188.074 265.418C188.285 265.511 188.5 265.588 188.719 265.647C189.67 265.911 190.676 265.863 191.611 265.501Z" fill="white"/>
<path opacity="0.56" d="M193.989 247.091C193.502 246.957 193.006 246.847 192.502 246.761C192.344 246.734 192.184 246.709 192.024 246.688C191.237 246.58 190.442 246.535 189.654 246.551C189.644 246.551 189.632 246.551 189.622 246.551C189.592 246.553 189.56 246.553 189.53 246.555C189.47 246.556 189.412 246.56 189.352 246.561C189.195 246.568 189.069 246.674 189.029 246.817C189.019 246.852 189.015 246.888 189.017 246.927C189.025 247.119 189.19 247.269 189.384 247.262C190.382 247.219 191.392 247.282 192.384 247.451C197.318 248.288 201.218 251.595 203.03 255.88C204.038 258.264 204.398 260.949 203.93 263.682C203.848 264.161 203.742 264.633 203.613 265.094C202.748 268.206 200.853 270.902 198.173 272.793C195.094 274.964 191.352 275.813 187.633 275.182C179.954 273.877 174.777 266.597 176.087 258.952C176.167 258.48 176.272 258.015 176.399 257.557C176.951 255.573 177.933 253.732 179.279 252.168C179.314 252.128 179.338 252.082 179.351 252.033C179.386 251.907 179.348 251.766 179.241 251.675C179.093 251.549 178.871 251.565 178.744 251.713C177.331 253.355 176.299 255.289 175.721 257.371C175.587 257.851 175.477 258.341 175.392 258.835C174.017 266.863 179.458 274.506 187.513 275.874C191.417 276.538 195.346 275.647 198.578 273.366C201.391 271.38 203.382 268.549 204.288 265.284C204.423 264.799 204.533 264.304 204.62 263.801C205.285 259.913 204.392 256 202.103 252.781C200.113 249.978 197.269 247.994 193.989 247.091Z" fill="white"/>
<g opacity="0.3">
<path d="M135.641 217.385C135.414 217.322 135.166 217.412 135.036 217.621C134.793 218.011 134.558 218.414 134.339 218.818C134.196 219.08 134.294 219.409 134.559 219.55C134.823 219.693 135.153 219.595 135.294 219.331C135.503 218.946 135.728 218.562 135.959 218.19C136.118 217.936 136.039 217.604 135.784 217.445C135.738 217.418 135.689 217.398 135.641 217.385Z" fill="url(#paint16_linear_1224_4446)"/>
<path d="M133.825 221.124C134.105 221.232 134.242 221.546 134.134 221.825C133.859 222.527 133.617 223.252 133.415 223.978C133.372 224.131 133.332 224.285 133.292 224.441C133.219 224.73 132.922 224.906 132.632 224.831C132.36 224.751 132.165 224.463 132.24 224.174C132.282 224.011 132.325 223.85 132.368 223.689C132.58 222.927 132.834 222.168 133.122 221.431C133.224 221.17 133.507 221.033 133.772 221.106C133.79 221.111 133.809 221.117 133.825 221.124ZM132.779 227.139C132.662 228.045 132.602 228.967 132.597 229.878C132.595 230.177 132.352 230.418 132.052 230.416C131.753 230.414 131.51 230.172 131.512 229.873C131.515 228.919 131.58 227.951 131.702 227.001C131.74 226.704 132.012 226.495 132.31 226.533C132.337 226.536 132.362 226.541 132.387 226.548C132.64 226.619 132.812 226.868 132.779 227.139ZM132.759 232.619C132.869 233.526 133.037 234.434 133.259 235.32C133.33 235.609 133.154 235.903 132.864 235.976C132.572 236.049 132.278 235.873 132.205 235.583C131.972 234.653 131.795 233.7 131.68 232.75C131.643 232.453 131.857 232.184 132.153 232.148C132.227 232.139 132.297 232.144 132.363 232.163C132.568 232.221 132.73 232.395 132.759 232.619ZM134.09 237.939C134.42 238.792 134.807 239.632 135.239 240.434C135.38 240.698 135.28 241.025 135.017 241.166C134.754 241.307 134.424 241.208 134.282 240.945C133.829 240.102 133.424 239.222 133.077 238.327C132.969 238.048 133.109 237.736 133.389 237.628C133.502 237.585 133.62 237.582 133.729 237.611C133.889 237.656 134.027 237.773 134.09 237.939ZM136.687 242.773C137.216 243.52 137.796 244.241 138.411 244.916C138.612 245.137 138.596 245.479 138.372 245.68C138.151 245.881 137.807 245.864 137.606 245.642C136.961 244.935 136.354 244.178 135.799 243.396C135.627 243.152 135.685 242.815 135.93 242.642C136.069 242.544 136.237 242.521 136.389 242.562C136.506 242.595 136.612 242.667 136.687 242.773ZM140.383 246.832C141.076 247.428 141.814 247.986 142.576 248.491C142.826 248.657 142.893 248.992 142.728 249.241C142.561 249.49 142.226 249.557 141.974 249.392C141.176 248.863 140.401 248.278 139.673 247.652C139.446 247.457 139.419 247.116 139.616 246.89C139.758 246.726 139.976 246.668 140.173 246.723C140.248 246.743 140.321 246.779 140.383 246.832ZM144.961 249.867C145.778 250.274 146.632 250.634 147.498 250.94C147.782 251.039 147.928 251.348 147.83 251.63C147.73 251.913 147.422 252.055 147.137 251.961C146.228 251.64 145.333 251.262 144.476 250.837C144.208 250.704 144.1 250.379 144.233 250.111C144.351 249.875 144.618 249.764 144.863 249.832C144.896 249.839 144.93 249.852 144.961 249.867ZM153.364 252.708C153.336 253.005 153.07 253.222 152.772 253.196C151.945 253.118 151.109 252.993 150.289 252.827C150.164 252.802 150.04 252.776 149.915 252.749C149.622 252.695 149.437 252.396 149.503 252.103C149.568 251.811 149.858 251.629 150.152 251.692C150.269 251.718 150.385 251.742 150.504 251.766C151.289 251.926 152.087 252.044 152.875 252.118C152.907 252.122 152.939 252.127 152.97 252.135C153.219 252.203 153.389 252.442 153.364 252.708Z" fill="url(#paint17_linear_1224_4446)"/>
</g>
<g opacity="0.3">
<path d="M161.533 207.515C162.442 207.777 163.342 208.1 164.21 208.468C164.485 208.586 164.614 208.903 164.495 209.179C164.377 209.454 164.057 209.577 163.782 209.463C162.955 209.111 162.097 208.805 161.23 208.554C160.941 208.471 160.776 208.171 160.86 207.884C160.943 207.6 161.24 207.434 161.527 207.513C161.528 207.513 161.532 207.515 161.533 207.515ZM159.206 207.512C159.158 207.806 158.878 208.007 158.583 207.957C157.693 207.811 156.784 207.718 155.884 207.679C155.586 207.666 155.353 207.414 155.366 207.115C155.379 206.816 155.631 206.585 155.931 206.599C156.874 206.639 157.826 206.736 158.76 206.889C158.78 206.893 158.798 206.896 158.818 206.903C159.081 206.976 159.253 207.235 159.206 207.512ZM166.752 209.74C167.57 210.215 168.367 210.743 169.119 211.309C169.357 211.49 169.406 211.828 169.224 212.066C169.042 212.305 168.704 212.35 168.464 212.17C167.747 211.629 166.987 211.126 166.207 210.673C165.947 210.522 165.86 210.191 166.01 209.934C166.137 209.717 166.392 209.62 166.624 209.685C166.667 209.697 166.71 209.715 166.752 209.74ZM153.671 207.147C153.694 207.444 153.472 207.704 153.172 207.729C152.274 207.801 151.371 207.929 150.487 208.109C150.194 208.169 149.907 207.98 149.847 207.688C149.787 207.396 149.975 207.108 150.27 207.049C151.196 206.859 152.144 206.725 153.087 206.65C153.152 206.645 153.216 206.652 153.276 206.668C153.489 206.728 153.652 206.914 153.671 207.147ZM171.274 213.152C171.953 213.806 172.598 214.51 173.193 215.242C173.381 215.474 173.344 215.815 173.111 216.002C172.878 216.19 172.536 216.155 172.348 215.921C171.781 215.222 171.166 214.551 170.519 213.927C170.304 213.719 170.299 213.377 170.507 213.162C170.651 213.014 170.857 212.966 171.042 213.017C171.126 213.044 171.207 213.087 171.274 213.152ZM174.843 217.546C175.345 218.345 175.803 219.181 176.203 220.033C176.33 220.304 176.213 220.626 175.943 220.752C175.671 220.878 175.348 220.764 175.221 220.493C174.839 219.681 174.403 218.884 173.923 218.121C173.764 217.868 173.841 217.533 174.094 217.375C174.229 217.292 174.386 217.274 174.528 217.312C174.654 217.347 174.768 217.428 174.843 217.546ZM177.253 222.666C177.548 223.563 177.791 224.484 177.975 225.407C178.033 225.701 177.841 225.985 177.548 226.043C177.255 226.101 176.968 225.91 176.91 225.618C176.735 224.738 176.503 223.86 176.221 223.005C176.128 222.721 176.283 222.416 176.568 222.323C176.673 222.288 176.783 222.288 176.881 222.314C177.051 222.361 177.195 222.489 177.253 222.666Z" fill="url(#paint18_linear_1224_4446)"/>
<path d="M147.819 207.786C147.717 207.758 147.607 207.759 147.501 207.794C147.061 207.942 146.622 208.103 146.199 208.274C145.92 208.385 145.787 208.701 145.899 208.978C146.012 209.253 146.327 209.388 146.606 209.277C147.009 209.114 147.427 208.96 147.847 208.818C148.132 208.724 148.284 208.417 148.189 208.133C148.129 207.957 147.987 207.831 147.819 207.786Z" fill="url(#paint19_linear_1224_4446)"/>
</g>
<path d="M143.108 216.95C143.013 217.018 142.97 217.138 143.003 217.25L143.942 220.45C142.907 221.615 142.05 222.953 141.425 224.429L138.124 224.97C138.009 224.989 137.918 225.08 137.898 225.195L137.223 229.136C137.203 229.25 137.259 229.367 137.361 229.421L140.295 231.022C140.393 232.621 140.755 234.166 141.345 235.607L139.395 238.315C139.326 238.41 139.326 238.538 139.393 238.634L141.713 241.896C141.782 241.991 141.902 242.034 142.015 242.001L145.227 241.066C146.397 242.097 147.74 242.951 149.222 243.573L149.766 246.86C149.784 246.975 149.876 247.066 149.991 247.086L153.948 247.759C154.063 247.778 154.179 247.722 154.234 247.621L155.841 244.699C157.446 244.601 158.998 244.241 160.445 243.653L163.164 245.595C163.259 245.663 163.387 245.663 163.484 245.597L166.759 243.286C166.854 243.218 166.897 243.098 166.864 242.985L165.926 239.786C166.961 238.621 167.817 237.283 168.442 235.807L171.743 235.265C171.858 235.247 171.949 235.156 171.969 235.041L172.644 231.1C172.664 230.985 172.608 230.869 172.506 230.814L169.573 229.214C169.474 227.615 169.112 226.07 168.522 224.628L170.473 221.921C170.541 221.826 170.541 221.698 170.474 221.602L168.154 218.34C168.086 218.245 167.966 218.202 167.852 218.235L164.64 219.17C163.47 218.139 162.127 217.285 160.645 216.663L160.102 213.376C160.083 213.261 159.992 213.17 159.877 213.15L155.92 212.477C155.805 212.457 155.688 212.514 155.633 212.615L154.026 215.537C152.421 215.635 150.869 215.995 149.422 216.583L146.704 214.641C146.609 214.573 146.48 214.573 146.385 214.639L143.108 216.95Z" fill="#A78BEF"/>
<path opacity="0.56" d="M156.594 226.375C157.598 226.817 158.369 227.622 158.764 228.641C159.161 229.661 159.134 230.771 158.691 231.771C157.776 233.834 155.349 234.767 153.274 233.858C151.202 232.944 150.264 230.526 151.179 228.462C151.622 227.462 152.43 226.695 153.452 226.3C154.284 225.98 155.177 225.937 156.021 226.169C156.214 226.224 156.406 226.292 156.594 226.375ZM157.698 231.332C158.024 230.597 158.043 229.78 157.753 229.03C157.461 228.281 156.894 227.688 156.156 227.363C155.417 227.039 154.597 227.019 153.844 227.308C153.092 227.597 152.497 228.163 152.17 228.897C151.497 230.414 152.189 232.194 153.712 232.866C153.851 232.926 153.989 232.976 154.131 233.016C155.549 233.408 157.084 232.714 157.698 231.332Z" fill="white"/>
<path opacity="0.56" d="M157.713 220.372C157.381 220.28 157.042 220.206 156.697 220.146C156.011 220.03 155.312 219.981 154.619 220.005C154.587 220.006 154.557 220.008 154.526 220.008C154.284 220.018 154.087 220.184 154.026 220.403C154.011 220.456 154.004 220.513 154.007 220.571C154.021 220.87 154.274 221.099 154.574 221.087C155.222 221.059 155.876 221.1 156.516 221.21C156.551 221.217 156.586 221.222 156.621 221.228C158.136 221.501 159.526 222.14 160.696 223.074C161.331 223.582 161.901 224.178 162.39 224.854C162.393 224.859 162.398 224.866 162.401 224.871C162.413 224.887 162.426 224.904 162.438 224.921C163.85 226.905 164.402 229.319 163.99 231.716C163.936 232.026 163.868 232.332 163.785 232.631C163.225 234.644 161.998 236.391 160.263 237.615C158.271 239.021 155.847 239.569 153.44 239.16C151.035 238.75 148.93 237.434 147.518 235.448C146.106 233.464 145.555 231.05 145.966 228.653C146.018 228.347 146.086 228.047 146.168 227.75C146.525 226.465 147.16 225.273 148.032 224.26C148.085 224.197 148.122 224.127 148.143 224.052C148.198 223.856 148.138 223.639 147.973 223.498C147.745 223.304 147.403 223.328 147.208 223.556C146.233 224.688 145.521 226.023 145.121 227.459C145.03 227.791 144.953 228.128 144.895 228.468C144.435 231.151 145.051 233.851 146.631 236.072C148.212 238.292 150.562 239.768 153.257 240.224C155.951 240.683 158.661 240.068 160.89 238.495C162.83 237.125 164.203 235.171 164.83 232.92C164.923 232.586 165 232.244 165.058 231.897C165.948 226.709 162.705 221.748 157.713 220.372Z" fill="white"/>
<path d="M408.104 168.973C408.104 168.973 406.068 164.535 406.712 163.126C407.356 161.716 409.34 163.108 409.931 164.588C409.931 164.588 411.08 166.659 410.349 168.538L408.104 168.973Z" fill="#F7A282"/>
<path d="M407.468 168.938C407.172 182.635 407.729 183.035 407.729 183.035C405.502 183.452 394.433 183.296 391.51 184.914C389.944 185.785 394.12 190.309 393.598 191.475L411.175 189.474C412.55 188.412 413.594 187.42 413.594 187.42C414.29 181.66 411.106 167.894 411.106 167.894C408.408 167.72 407.468 168.938 407.468 168.938Z" fill="#A78BEF"/>
<path d="M459.463 177.884C459.463 177.988 459.394 178.075 459.289 178.075L294.9 192.05C294.796 192.05 294.709 191.98 294.692 191.876L293.16 173.776C293.16 173.672 293.23 173.585 293.334 173.568L457.723 159.593C457.827 159.593 457.914 159.663 457.932 159.767L459.463 177.884Z" fill="#F9B077"/>
<path d="M457.86 161.368L293.471 175.325C293.366 175.325 293.297 175.43 293.297 175.534L294.689 191.875C294.689 191.98 294.794 192.049 294.898 192.049L459.287 178.075C459.391 178.075 459.461 177.97 459.461 177.883L458.069 161.542C458.051 161.42 457.964 161.35 457.86 161.368Z" fill="#ED954C"/>
<path d="M360.246 290.707C360.246 290.707 360.977 293.283 362.769 295.493C362.769 295.493 363.291 296.224 363.204 297.268C363.204 297.268 357.792 296.85 356.086 296.015C356.086 296.015 355.216 294.222 355.164 293.492C355.164 293.492 356.382 290.394 356.539 289.976L360.246 290.707Z" fill="#A78BEF"/>
<path d="M398.744 292.326C398.744 292.326 401.772 291.717 402.138 291.804L402.816 292.517C402.816 292.517 404.191 294.031 409.203 295.545L409.308 296.45L399.005 297.616C398.988 297.616 398.013 296.346 398.744 292.326Z" fill="#A78BEF"/>
<path d="M371.124 223.375L368.792 264.863L355.688 290.15C355.688 290.15 357.915 291.299 361.883 291.647L377.424 267.979L383.358 239.803L390.406 266.656L397.611 292.569C398.516 292.761 403.615 292.673 403.876 292.604L399.613 266.395L393.992 229.205L394.218 222.156C394.235 222.174 385.116 224.802 371.124 223.375Z" fill="#155B81"/>
<path d="M393.262 192.328C393.21 191.145 393.314 186.933 393.123 186.637C393.123 186.637 389.451 185.593 389.172 184.897C388.755 183.835 388.285 180.72 388.302 177.71C388.302 176.961 383.116 173.307 383.116 173.307C383.116 173.307 382.751 180.529 380.906 183.679C380.906 183.679 375.302 184.131 373.98 185.297C373.631 185.593 373.336 186.22 373.109 187.02L393.262 192.328Z" fill="#E49479"/>
<path d="M388.99 184.305C388.642 183 388.329 180.563 388.294 178.11L383.978 174.751L383.004 174.681C382.917 175.534 382.795 176.7 382.586 177.953C383.456 180.198 385.84 185.523 388.99 184.305Z" fill="#D27964"/>
<path d="M393.781 169.478C393.781 169.478 394.025 172.889 393.189 176.143C392.685 178.058 390.474 180.755 389.204 181.208C389.204 181.208 388.856 181.382 387.655 181.086C386.176 180.738 383.653 178.336 383.113 175.378C383.113 175.378 382.278 175.569 381.912 174.159C381.547 172.75 382.086 170.714 383.444 172.088C383.444 172.088 383.357 166.119 386.037 165.928C388.699 165.754 393.833 165.179 393.781 169.478Z" fill="#F7A282"/>
<path d="M381.529 166.276L394.303 167.111L394.129 169.843C393.954 170.209 393.815 170.418 393.815 170.418L393.693 168.521C392.614 169.426 390.596 169.252 390.596 169.252C388.09 168.99 385.323 167.268 385.323 167.268C384.626 168.608 384.679 170.017 384.679 170.017C384.922 171.322 383.93 172.784 383.635 172.576C383.513 172.489 383.391 172.314 383.269 172.123C382.225 170.766 381.546 172.819 381.929 174.003C382.469 175.673 383.095 175.377 383.095 175.377C383.112 175.447 383.112 175.517 383.13 175.569C383.025 176.456 382.643 177.622 382.451 178.736C382.294 178.754 382.973 177.187 382.312 175.586C381.477 173.533 380.659 169.286 381.529 166.276Z" fill="#3D1F0F"/>
<path d="M395.299 168.625C395.299 168.59 395.317 168.556 395.317 168.521C395.543 164.396 392.376 160.881 388.269 160.655C384.144 160.428 380.629 163.578 380.402 167.703C380.402 167.738 380.402 167.772 380.402 167.807L395.299 168.625Z" fill="#E527BB"/>
<path d="M388.265 160.654C384.384 160.446 381.043 163.213 380.468 166.972C380.468 167.076 380.451 167.181 380.451 167.268C380.451 167.302 380.434 167.407 380.434 167.442C381.843 162.29 385.968 161.525 385.968 161.525C393.19 160.881 392.946 168.138 392.946 168.138L395.296 168.26C395.296 168.225 395.296 168.19 395.296 168.155C395.296 168.033 395.296 167.894 395.296 167.772C395.139 163.978 392.128 160.863 388.265 160.654Z" fill="#C912A6"/>
<path d="M395.311 167.981L397.068 169.356C397.068 169.356 396.111 171.323 389.446 169.878L380.396 167.825L380.379 167.337L395.311 167.981Z" fill="#C912A6"/>
<path d="M380.5 166.78C380.5 166.745 380.5 166.641 380.5 166.606C380.726 162.482 384.189 159.384 388.297 159.61C392.421 159.837 395.571 163.352 395.345 167.476C395.345 167.511 395.327 167.546 395.327 167.581L392.978 167.459C392.978 167.459 393.222 160.219 385.999 160.846C386.034 160.863 381.91 161.629 380.5 166.78Z" fill="#E527BB"/>
<path d="M395.647 167.825C395.63 168.016 395.491 168.155 395.299 168.138L380.385 167.32C380.194 167.32 380.054 167.163 380.072 166.972C380.089 166.798 380.246 166.641 380.42 166.659L395.334 167.476C395.508 167.494 395.647 167.651 395.647 167.825Z" fill="#C912A6"/>
<path d="M380.385 167.319L395.299 168.137C395.491 168.155 395.63 168.016 395.647 167.824L380.072 166.971C380.054 167.163 380.194 167.319 380.385 167.319Z" fill="#C912A6"/>
<path d="M393.752 227.865C394.535 218.258 397.372 184.479 396.101 183.94L388.74 183.104C388.949 186.568 385.712 186.237 385.068 186.237C381.918 185.193 381.378 182.704 381.378 182.704C380.247 182.704 373.425 184.044 371.824 184.671C371.824 184.671 372.224 193.268 371.911 201.186C371.754 205.467 370.641 217.98 370.449 226.786C370.467 226.803 393.108 228.892 393.752 227.865Z" fill="#A78BEF"/>
<path d="M371.421 208.931C371.421 208.931 378.557 208.444 379.392 198.245L394.428 198.715C394.428 198.715 394.045 206.877 395.438 207.539C395.438 207.539 393.767 227.848 394.011 229.205C394.011 229.205 380.071 234.844 371.039 228.77C371.039 228.77 368.881 228.039 371.421 208.931Z" fill="#155B81"/>
<path d="M379.393 198.245C379.393 198.245 379.097 187.978 377.879 183.244L379.985 182.878C379.985 182.878 381.534 191.075 381.812 199.968C381.812 199.968 379.584 202.3 379.393 198.245Z" fill="#155B81"/>
<path d="M392.107 198.698C392.107 198.698 391.88 188.064 390.68 183.331L393.273 183.627C393.273 183.627 394.108 191.406 394.369 200.281C394.369 200.281 392.298 202.735 392.107 198.698Z" fill="#155B81"/>
<path d="M377.39 224.419C377.39 224.419 379.182 225.794 379.826 226.142C380.487 226.49 380.87 227.882 380.522 228.683C380.522 228.683 381.201 229.901 381.166 230.406C381.131 230.91 380.383 231.171 379.617 230.771C378.852 230.388 378.242 229.762 377.459 228.996C376.676 228.23 376.328 226.438 376.328 226.438L377.39 224.419Z" fill="#F7A282"/>
<path d="M372.496 184.549C372.496 184.549 376.22 188.691 375.559 192.85C374.898 197.009 368.667 205.084 367.432 206.981C367.432 206.981 370.164 212.341 377.699 224.21C377.699 224.21 378.187 224.558 376.307 226.96C376.307 226.96 363.064 213.264 361.341 209.557C361.341 209.557 360.731 206.79 361.828 204.649C361.828 204.649 369.764 183.278 372.496 184.549Z" fill="#8468EA"/>
</g>
<defs>
<linearGradient id="paint0_linear_1224_4446" x1="242.068" y1="66.565" x2="246.138" y2="162.579" gradientUnits="userSpaceOnUse">
<stop stop-color="#2B3582"/>
<stop offset="1" stop-color="#150E42"/>
</linearGradient>
<linearGradient id="paint1_linear_1224_4446" x1="258.889" y1="168.488" x2="210.032" y2="338.222" gradientUnits="userSpaceOnUse">
<stop stop-color="#A737D5"/>
<stop offset="1" stop-color="#EF497A"/>
</linearGradient>
<linearGradient id="paint2_linear_1224_4446" x1="243.923" y1="229.105" x2="271.926" y2="297.018" gradientUnits="userSpaceOnUse">
<stop stop-color="#F9B776"/>
<stop offset="1" stop-color="#F47960"/>
</linearGradient>
<linearGradient id="paint3_linear_1224_4446" x1="293.903" y1="228.959" x2="265.9" y2="296.873" gradientUnits="userSpaceOnUse">
<stop stop-color="#F9B776"/>
<stop offset="1" stop-color="#F47960"/>
</linearGradient>
<linearGradient id="paint4_linear_1224_4446" x1="300.731" y1="269.77" x2="306.027" y2="231.665" gradientUnits="userSpaceOnUse">
<stop stop-color="#7C27DD"/>
<stop offset="1" stop-color="#2B41D9"/>
</linearGradient>
<linearGradient id="paint5_linear_1224_4446" x1="296.054" y1="245.775" x2="279.904" y2="289.693" gradientUnits="userSpaceOnUse">
<stop stop-color="#F9B776"/>
<stop offset="1" stop-color="#F47960"/>
</linearGradient>
<linearGradient id="paint6_linear_1224_4446" x1="206.94" y1="29.5927" x2="202.697" y2="-8.64319" gradientUnits="userSpaceOnUse">
<stop stop-color="#7C27DD"/>
<stop offset="1" stop-color="#2B41D9"/>
</linearGradient>
<linearGradient id="paint7_linear_1224_4446" x1="263.473" y1="232.553" x2="247.314" y2="276.494" gradientUnits="userSpaceOnUse">
<stop stop-color="#F9B776"/>
<stop offset="1" stop-color="#F47960"/>
</linearGradient>
<linearGradient id="paint8_linear_1224_4446" x1="268.673" y1="234.706" x2="268.301" y2="202.196" gradientUnits="userSpaceOnUse">
<stop stop-color="#F9B776"/>
<stop offset="1" stop-color="#F47960"/>
</linearGradient>
<linearGradient id="paint9_linear_1224_4446" x1="267.109" y1="214.66" x2="272.383" y2="188.882" gradientUnits="userSpaceOnUse">
<stop stop-color="#F9B776"/>
<stop offset="1" stop-color="#F47960"/>
</linearGradient>
<linearGradient id="paint10_linear_1224_4446" x1="261.764" y1="217.539" x2="264.707" y2="176.418" gradientUnits="userSpaceOnUse">
<stop stop-color="#F9B776"/>
<stop offset="1" stop-color="#F47960"/>
</linearGradient>
<linearGradient id="paint11_linear_1224_4446" x1="152.08" y1="266.313" x2="200.38" y2="279.732" gradientUnits="userSpaceOnUse">
<stop stop-color="#B37CFF"/>
<stop offset="1" stop-color="#F895E7"/>
</linearGradient>
<linearGradient id="paint12_linear_1224_4446" x1="199.237" y1="292.958" x2="202.058" y2="293.742" gradientUnits="userSpaceOnUse">
<stop stop-color="#B37CFF"/>
<stop offset="1" stop-color="#F895E7"/>
</linearGradient>
<linearGradient id="paint13_linear_1224_4446" x1="219.85" y1="275.513" x2="221.786" y2="276.051" gradientUnits="userSpaceOnUse">
<stop stop-color="#B37CFF"/>
<stop offset="1" stop-color="#F895E7"/>
</linearGradient>
<linearGradient id="paint14_linear_1224_4446" x1="178.521" y1="240.499" x2="228.271" y2="254.321" gradientUnits="userSpaceOnUse">
<stop stop-color="#B37CFF"/>
<stop offset="1" stop-color="#F895E7"/>
</linearGradient>
<linearGradient id="paint15_linear_1224_4446" x1="176.458" y1="228.682" x2="179.243" y2="229.456" gradientUnits="userSpaceOnUse">
<stop stop-color="#B37CFF"/>
<stop offset="1" stop-color="#F895E7"/>
</linearGradient>
<linearGradient id="paint16_linear_1224_4446" x1="134.467" y1="218.301" x2="135.844" y2="218.684" gradientUnits="userSpaceOnUse">
<stop stop-color="#B37CFF"/>
<stop offset="1" stop-color="#F895E7"/>
</linearGradient>
<linearGradient id="paint17_linear_1224_4446" x1="129.627" y1="233.561" x2="156.61" y2="241.057" gradientUnits="userSpaceOnUse">
<stop stop-color="#B37CFF"/>
<stop offset="1" stop-color="#F895E7"/>
</linearGradient>
<linearGradient id="paint18_linear_1224_4446" x1="148.837" y1="211.103" x2="179.633" y2="219.658" gradientUnits="userSpaceOnUse">
<stop stop-color="#B37CFF"/>
<stop offset="1" stop-color="#F895E7"/>
</linearGradient>
<linearGradient id="paint19_linear_1224_4446" x1="145.985" y1="208.25" x2="148.091" y2="208.835" gradientUnits="userSpaceOnUse">
<stop stop-color="#B37CFF"/>
<stop offset="1" stop-color="#F895E7"/>
</linearGradient>
<clipPath id="clip0_1224_4446">
<rect width="542.64" height="328.79" fill="white"/>
</clipPath>
</defs>
</svg>
