<svg width="543" height="329" viewBox="0 0 543 329" fill="none" xmlns="http://www.w3.org/2000/svg">
<g clip-path="url(#clip0_1514_5963)">
<path opacity="0.2" d="M127.492 328.58L412.142 311.93C487.412 307.53 545.652 243.73 542.512 168.39C539.872 105.08 517.192 37.64 440.912 8.81999C387.262 -11.45 317.592 5.13999 273.402 38.85C262.782 46.95 253.022 56.24 241.612 63.17C215.022 79.32 191.672 68.17 163.972 63.88C105.412 54.79 46.9621 73.46 16.7021 127.43C-29.7579 210.35 25.0421 334.57 127.492 328.58Z" fill="#999999"/>
<path d="M311.644 41.1412C311.536 41.1412 311.444 41.0662 311.419 40.9663C311.353 40.6749 311.286 40.3751 311.211 40.0837C311.178 39.9588 311.253 39.8339 311.378 39.8089C311.502 39.7756 311.627 39.8506 311.652 39.9755C311.727 40.2752 311.794 40.5666 311.861 40.8664C311.885 40.9913 311.811 41.1079 311.686 41.1412C311.677 41.1412 311.661 41.1412 311.644 41.1412Z" fill="#91B3FA"/>
<path d="M272.972 88.7687C272.964 88.7687 272.964 88.7687 272.972 88.7687C272.356 88.7604 271.732 88.7354 271.124 88.7021C270.999 88.6938 270.899 88.5855 270.907 88.4606C270.916 88.3358 271.024 88.2358 271.149 88.2442C271.757 88.2775 272.365 88.3024 272.972 88.3108C273.097 88.3108 273.197 88.419 273.197 88.5439C273.197 88.6688 273.097 88.7687 272.972 88.7687ZM275.953 88.6855C275.837 88.6855 275.737 88.5939 275.728 88.469C275.72 88.3441 275.812 88.2358 275.945 88.2275C276.553 88.1859 277.161 88.1359 277.76 88.0693C277.885 88.0527 278.002 88.1442 278.01 88.2691C278.027 88.394 277.935 88.5106 277.81 88.5189C277.202 88.5855 276.578 88.6438 275.97 88.6771C275.962 88.6855 275.953 88.6855 275.953 88.6855ZM268.16 88.4107C268.151 88.4107 268.143 88.4107 268.126 88.4107C267.518 88.3274 266.902 88.2275 266.303 88.1193C266.178 88.0943 266.095 87.9777 266.12 87.8528C266.145 87.7279 266.261 87.6446 266.386 87.6696C266.986 87.7779 267.593 87.8778 268.193 87.9527C268.318 87.9694 268.401 88.086 268.384 88.2109C268.368 88.3274 268.276 88.4107 268.16 88.4107ZM280.733 88.086C280.624 88.086 280.533 88.011 280.508 87.9028C280.483 87.7779 280.566 87.6613 280.691 87.6363C281.291 87.5198 281.89 87.3949 282.473 87.2533C282.598 87.2283 282.714 87.3033 282.748 87.4198C282.781 87.5447 282.698 87.6613 282.581 87.6946C281.982 87.8362 281.382 87.9694 280.774 88.086C280.758 88.086 280.749 88.086 280.733 88.086ZM263.43 87.4781C263.414 87.4781 263.389 87.4781 263.372 87.4698C262.781 87.3116 262.181 87.1451 261.598 86.9619C261.482 86.9202 261.415 86.7953 261.448 86.6788C261.49 86.5622 261.615 86.4956 261.732 86.5289C262.306 86.7121 262.897 86.8786 263.488 87.0368C263.613 87.0701 263.68 87.195 263.655 87.3116C263.622 87.4115 263.53 87.4781 263.43 87.4781ZM285.395 86.8953C285.296 86.8953 285.212 86.837 285.179 86.7371C285.137 86.6205 285.204 86.4873 285.329 86.454C285.903 86.2708 286.486 86.0709 287.052 85.8545C287.169 85.8128 287.302 85.8711 287.344 85.9877C287.385 86.1043 287.327 86.2375 287.211 86.2791C286.636 86.4956 286.053 86.6954 285.47 86.8869C285.445 86.8953 285.42 86.8953 285.395 86.8953ZM258.851 85.971C258.826 85.971 258.792 85.9627 258.767 85.9544C258.201 85.7296 257.627 85.4798 257.069 85.23C256.952 85.18 256.902 85.0468 256.952 84.9302C257.002 84.8136 257.144 84.7637 257.252 84.8136C257.801 85.0634 258.368 85.3049 258.934 85.5297C259.05 85.5797 259.109 85.7129 259.059 85.8295C259.025 85.9127 258.942 85.971 258.851 85.971ZM289.883 85.1384C289.8 85.1384 289.717 85.0884 289.675 85.0052C289.625 84.8886 289.675 84.7554 289.784 84.7054C290.333 84.4473 290.883 84.1808 291.416 83.8977C291.524 83.8394 291.665 83.8811 291.724 83.9976C291.782 84.1059 291.74 84.2474 291.624 84.3057C291.082 84.5888 290.525 84.8636 289.967 85.1217C289.95 85.1301 289.917 85.1384 289.883 85.1384ZM254.496 83.9061C254.463 83.9061 254.421 83.8977 254.388 83.8811C253.855 83.5813 253.313 83.2732 252.789 82.9485C252.681 82.8819 252.647 82.7403 252.714 82.6321C252.781 82.5239 252.922 82.4906 253.03 82.5572C253.547 82.8736 254.08 83.1816 254.604 83.4731C254.712 83.5314 254.754 83.6729 254.696 83.7812C254.654 83.8644 254.579 83.9061 254.496 83.9061ZM294.113 82.8403C294.038 82.8403 293.963 82.7986 293.922 82.732C293.855 82.6238 293.888 82.4822 293.997 82.4156C294.513 82.0909 295.021 81.7578 295.52 81.4164C295.62 81.3415 295.77 81.3748 295.837 81.4747C295.912 81.5746 295.879 81.7162 295.779 81.7911C295.271 82.1408 294.754 82.4822 294.238 82.807C294.197 82.8319 294.155 82.8403 294.113 82.8403ZM298.043 80.0509C297.977 80.0509 297.91 80.0259 297.869 79.9676C297.785 79.8677 297.802 79.7262 297.902 79.6512C298.376 79.2682 298.843 78.8685 299.292 78.4689C299.384 78.3856 299.534 78.3939 299.617 78.4855C299.7 78.5771 299.692 78.727 299.6 78.8102C299.142 79.2182 298.668 79.6179 298.193 80.0093C298.143 80.0342 298.093 80.0509 298.043 80.0509ZM301.59 76.7952C301.532 76.7952 301.474 76.7702 301.432 76.7286C301.341 76.637 301.341 76.4955 301.424 76.4039C301.849 75.9709 302.265 75.5129 302.665 75.0633C302.748 74.9717 302.889 74.9634 302.989 75.0467C303.089 75.1299 303.089 75.2715 303.006 75.3714C302.598 75.8294 302.182 76.2873 301.757 76.7286C301.715 76.7702 301.657 76.7952 301.59 76.7952ZM304.721 73.1232C304.671 73.1232 304.63 73.1066 304.588 73.0733C304.488 72.9983 304.471 72.8568 304.546 72.7569C304.913 72.2739 305.271 71.7743 305.612 71.2748C305.687 71.1748 305.829 71.1415 305.929 71.2165C306.037 71.2914 306.062 71.433 305.987 71.5329C305.637 72.0408 305.279 72.5487 304.913 73.04C304.863 73.0983 304.796 73.1232 304.721 73.1232ZM307.377 69.1016C307.336 69.1016 307.302 69.0932 307.261 69.0682C307.153 69.0016 307.111 68.8684 307.178 68.7602C307.477 68.2356 307.777 67.6944 308.052 67.1531C308.11 67.0449 308.243 66.9949 308.36 67.0532C308.468 67.1115 308.518 67.2447 308.46 67.3613C308.177 67.9109 307.885 68.4521 307.577 68.985C307.536 69.0599 307.461 69.1016 307.377 69.1016ZM309.517 64.7801C309.484 64.7801 309.459 64.7718 309.426 64.7634C309.309 64.7135 309.251 64.5803 309.301 64.4637C309.534 63.9058 309.759 63.3313 309.967 62.7651C310.009 62.6485 310.142 62.5819 310.258 62.6319C310.375 62.6735 310.442 62.8067 310.392 62.9233C310.183 63.4978 309.959 64.0807 309.717 64.6469C309.692 64.7218 309.609 64.7801 309.517 64.7801ZM311.099 60.2255C311.083 60.2255 311.058 60.2255 311.041 60.2172C310.916 60.1839 310.85 60.059 310.883 59.9341C311.049 59.3512 311.199 58.76 311.333 58.1689C311.357 58.044 311.482 57.969 311.607 57.994C311.732 58.019 311.807 58.1439 311.782 58.2688C311.641 58.8683 311.491 59.4678 311.324 60.059C311.291 60.1589 311.199 60.2255 311.099 60.2255ZM312.115 55.521C312.107 55.521 312.09 55.521 312.082 55.521C311.957 55.5044 311.874 55.3878 311.89 55.2629C311.965 54.7717 312.032 54.2804 312.09 53.7891C312.107 53.6809 312.115 53.5643 312.124 53.4561C312.14 53.3312 312.248 53.2396 312.373 53.2562C312.498 53.2729 312.59 53.3811 312.573 53.506C312.565 53.6226 312.548 53.7308 312.54 53.8474C312.482 54.347 312.415 54.8466 312.34 55.3379C312.323 55.4378 312.223 55.521 312.115 55.521ZM312.548 50.7167C312.415 50.7167 312.315 50.6084 312.323 50.4835C312.332 50.1005 312.34 49.7175 312.34 49.3345C312.34 49.1096 312.34 48.8848 312.332 48.66C312.332 48.5351 312.432 48.4269 312.557 48.4269C312.681 48.4352 312.79 48.5268 312.79 48.6517C312.79 48.8765 312.798 49.1096 312.798 49.3345C312.798 49.7175 312.79 50.1088 312.781 50.5002C312.773 50.6167 312.673 50.7167 312.548 50.7167ZM312.398 45.9039C312.282 45.9039 312.182 45.8123 312.173 45.6958C312.115 45.0963 312.049 44.4801 311.957 43.8806C311.94 43.7557 312.024 43.6391 312.148 43.6225C312.273 43.6058 312.39 43.6891 312.407 43.814C312.49 44.4218 312.565 45.038 312.623 45.6458C312.631 45.7707 312.54 45.879 312.415 45.8956C312.407 45.9039 312.398 45.9039 312.398 45.9039Z" fill="#E527BB"/>
<path d="M250.415 81.308C250.365 81.308 250.324 81.2914 250.282 81.2664C250.032 81.0832 249.791 80.9084 249.549 80.7169C249.449 80.6419 249.433 80.5004 249.508 80.4005C249.582 80.3005 249.724 80.2839 249.824 80.3588C250.065 80.542 250.307 80.7252 250.548 80.9C250.648 80.975 250.673 81.1165 250.598 81.2165C250.557 81.2747 250.482 81.308 250.415 81.308Z" fill="#91B3FA"/>
<path d="M234.727 55.7207C234.619 55.7207 234.519 55.6375 234.502 55.5292C234.452 55.2295 234.411 54.9214 234.369 54.6217C234.352 54.4968 234.444 54.3802 234.569 54.3635C234.694 54.3469 234.81 54.4385 234.827 54.5634C234.869 54.8631 234.91 55.1629 234.96 55.4626C234.977 55.5875 234.894 55.7041 234.769 55.7207C234.752 55.7207 234.736 55.7207 234.727 55.7207Z" fill="#91B3FA"/>
<path d="M234.314 51.8989C234.198 51.8989 234.098 51.8073 234.09 51.6824C234.056 51.0829 234.031 50.4668 234.031 49.8673C234.031 49.7424 234.131 49.6341 234.256 49.6341C234.373 49.6258 234.489 49.734 234.489 49.8589C234.498 50.4584 234.514 51.0579 234.548 51.6574C234.556 51.7823 234.456 51.8906 234.331 51.8989C234.323 51.8989 234.314 51.8989 234.314 51.8989ZM234.323 47.1528C234.314 47.1528 234.314 47.1528 234.306 47.1528C234.181 47.1445 234.081 47.0362 234.09 46.9114C234.131 46.3118 234.181 45.704 234.248 45.0962C234.264 44.9713 234.373 44.8797 234.498 44.8963C234.622 44.913 234.714 45.0212 234.697 45.1461C234.631 45.7373 234.581 46.3451 234.539 46.9363C234.547 47.0612 234.448 47.1528 234.323 47.1528ZM234.906 42.4483C234.889 42.4483 234.881 42.4483 234.864 42.4483C234.739 42.4234 234.656 42.3068 234.681 42.1819C234.789 41.5907 234.914 40.9912 235.055 40.4C235.08 40.2751 235.205 40.2002 235.33 40.2335C235.455 40.2585 235.53 40.3834 235.497 40.5083C235.363 41.0911 235.239 41.6823 235.13 42.2652C235.114 42.3734 235.014 42.4483 234.906 42.4483ZM236.055 37.8438C236.03 37.8438 236.013 37.8438 235.988 37.8355C235.871 37.7938 235.805 37.6689 235.838 37.5524C236.021 36.9778 236.213 36.395 236.421 35.8288C236.463 35.7122 236.596 35.6539 236.712 35.6956C236.829 35.7372 236.887 35.8704 236.846 35.987C236.646 36.5449 236.446 37.1194 236.271 37.6856C236.238 37.7855 236.146 37.8438 236.055 37.8438ZM237.745 33.4141C237.712 33.4141 237.678 33.4058 237.653 33.3974C237.537 33.3475 237.487 33.2143 237.537 33.0977C237.787 32.5481 238.053 31.9903 238.328 31.4574C238.386 31.3491 238.519 31.2992 238.636 31.3575C238.744 31.4157 238.794 31.549 238.736 31.6655C238.461 32.1984 238.203 32.7397 237.953 33.2892C237.911 33.3641 237.828 33.4141 237.745 33.4141ZM239.968 29.2175C239.926 29.2175 239.885 29.2092 239.851 29.1842C239.743 29.1176 239.71 28.9761 239.777 28.8678C240.093 28.3516 240.426 27.8354 240.759 27.3358C240.826 27.2275 240.976 27.2025 241.075 27.2775C241.184 27.3441 241.209 27.4856 241.134 27.5939C240.801 28.0851 240.476 28.6014 240.16 29.1093C240.118 29.1842 240.043 29.2175 239.968 29.2175ZM242.682 25.3291C242.633 25.3291 242.583 25.3124 242.541 25.2791C242.441 25.2042 242.424 25.0543 242.508 24.9627C242.882 24.4881 243.274 24.0218 243.673 23.5639C243.757 23.4723 243.898 23.4556 243.998 23.5389C244.09 23.6221 244.106 23.7637 244.023 23.8636C243.632 24.3132 243.24 24.7795 242.874 25.2458C242.816 25.2958 242.749 25.3291 242.682 25.3291ZM245.847 21.7903C245.788 21.7903 245.73 21.7653 245.688 21.7237C245.597 21.6321 245.597 21.4906 245.688 21.399C246.121 20.9743 246.563 20.558 247.012 20.15C247.104 20.0667 247.254 20.0751 247.337 20.1666C247.42 20.2582 247.412 20.4081 247.32 20.4914C246.879 20.8911 246.438 21.3074 246.013 21.7237C245.963 21.7737 245.905 21.7903 245.847 21.7903ZM249.419 18.6679C249.352 18.6679 249.285 18.6346 249.235 18.5763C249.16 18.4764 249.177 18.3348 249.277 18.2599C249.752 17.8935 250.243 17.5272 250.743 17.1774C250.842 17.1025 250.984 17.1275 251.059 17.2357C251.134 17.3356 251.109 17.4772 251.001 17.5521C250.509 17.8935 250.026 18.2516 249.552 18.6179C249.51 18.6512 249.46 18.6679 249.419 18.6679ZM295.464 17.2524C295.422 17.2524 295.373 17.2357 295.339 17.2107C294.848 16.8777 294.34 16.5446 293.832 16.2282C293.724 16.1616 293.691 16.0201 293.757 15.9118C293.824 15.8036 293.965 15.7703 294.074 15.8369C294.59 16.1533 295.098 16.4863 295.597 16.8277C295.697 16.9027 295.731 17.0442 295.656 17.1441C295.606 17.2191 295.539 17.2524 295.464 17.2524ZM253.332 15.9951C253.257 15.9951 253.182 15.9534 253.132 15.8868C253.066 15.7786 253.099 15.637 253.207 15.5704C253.723 15.2623 254.256 14.9626 254.789 14.6712C254.897 14.6129 255.039 14.6545 255.097 14.7628C255.156 14.871 255.114 15.0125 255.006 15.0708C254.481 15.3539 253.957 15.6537 253.44 15.9534C253.415 15.9784 253.374 15.9951 253.332 15.9951ZM291.392 14.821C291.359 14.821 291.318 14.8127 291.284 14.7961C290.751 14.5213 290.21 14.2548 289.669 14.005C289.552 13.9551 289.502 13.8135 289.561 13.7053C289.611 13.5887 289.752 13.5388 289.86 13.597C290.41 13.8468 290.959 14.1133 291.492 14.3964C291.601 14.4547 291.651 14.5879 291.592 14.7045C291.551 14.7794 291.476 14.821 291.392 14.821ZM257.537 13.8135C257.454 13.8135 257.362 13.7636 257.329 13.6803C257.279 13.5637 257.329 13.4305 257.445 13.3806C257.995 13.1391 258.561 12.8976 259.119 12.6811C259.236 12.6395 259.369 12.6895 259.41 12.8144C259.46 12.9309 259.402 13.0641 259.277 13.1058C258.719 13.3223 258.17 13.5554 257.62 13.7969C257.604 13.8052 257.57 13.8135 257.537 13.8135ZM287.054 12.9059C287.029 12.9059 287.004 12.8976 286.971 12.8893C286.413 12.6811 285.839 12.4813 285.273 12.3064C285.156 12.2648 285.089 12.1399 285.123 12.0233C285.164 11.9068 285.289 11.8402 285.406 11.8735C285.98 12.0566 286.563 12.2565 287.129 12.4646C287.246 12.5063 287.304 12.6395 287.263 12.7561C287.229 12.8477 287.146 12.9059 287.054 12.9059ZM261.975 12.1482C261.875 12.1482 261.783 12.0816 261.758 11.99C261.725 11.8735 261.792 11.7402 261.908 11.7069C262.483 11.5321 263.074 11.3655 263.657 11.2157C263.782 11.1824 263.907 11.2573 263.932 11.3822C263.965 11.5071 263.89 11.632 263.765 11.657C263.191 11.8068 262.608 11.9651 262.042 12.1399C262.025 12.1482 262 12.1482 261.975 12.1482ZM282.516 11.5321C282.5 11.5321 282.483 11.5321 282.466 11.5237C281.884 11.3822 281.292 11.2573 280.71 11.1491C280.585 11.1241 280.501 11.0075 280.526 10.8826C280.551 10.7577 280.668 10.6744 280.793 10.6994C281.384 10.816 281.984 10.9409 282.575 11.0824C282.7 11.1158 282.775 11.2323 282.741 11.3572C282.708 11.4571 282.616 11.5321 282.516 11.5321ZM266.588 11.0491C266.48 11.0491 266.38 10.9742 266.363 10.8576C266.338 10.7327 266.421 10.6162 266.546 10.5912C267.137 10.4829 267.745 10.3913 268.345 10.3164C268.47 10.2998 268.586 10.3913 268.603 10.5162C268.619 10.6411 268.528 10.7577 268.403 10.7744C267.812 10.8493 267.212 10.9409 266.629 11.0491C266.613 11.0491 266.596 11.0491 266.588 11.0491ZM277.837 10.7078C277.829 10.7078 277.82 10.7078 277.812 10.7078C277.204 10.6411 276.605 10.5829 276.022 10.5412C275.897 10.5329 275.805 10.4247 275.814 10.2998C275.822 10.1749 275.93 10.0749 276.055 10.0916C276.655 10.1332 277.254 10.1832 277.854 10.2581C277.978 10.2748 278.078 10.383 278.062 10.5079C278.045 10.6245 277.954 10.7078 277.837 10.7078ZM271.292 10.5079C271.176 10.5079 271.068 10.4163 271.068 10.2914C271.059 10.1665 271.159 10.0583 271.284 10.05C271.883 10.0167 272.5 10 273.099 10C273.224 10 273.324 10.0999 273.324 10.2248C273.324 10.3497 273.224 10.4496 273.099 10.458C272.508 10.458 271.9 10.4829 271.301 10.5079C271.301 10.5079 271.301 10.5079 271.292 10.5079Z" fill="#E527BB"/>
<path d="M298.553 19.592C298.503 19.592 298.453 19.5753 298.403 19.542C298.17 19.3505 297.937 19.159 297.704 18.9675C297.604 18.8925 297.587 18.7427 297.671 18.6511C297.745 18.5512 297.895 18.5345 297.987 18.6178C298.228 18.8093 298.462 19.0008 298.695 19.2006C298.795 19.2839 298.803 19.4254 298.72 19.5254C298.686 19.567 298.62 19.592 298.553 19.592Z" fill="#91B3FA"/>
<path d="M295.473 28.9427C295.357 28.7845 295.149 28.7179 294.957 28.7762L289.503 30.5081C287.463 28.7845 285.132 27.3773 282.576 26.3698L281.51 20.7578C281.476 20.5579 281.318 20.4081 281.118 20.3831L274.332 19.3922C274.132 19.3672 273.941 19.4672 273.849 19.642L271.227 24.7212C268.487 24.9543 265.848 25.6371 263.4 26.7029L258.67 23.4805C258.504 23.364 258.287 23.3723 258.129 23.4889L252.625 27.5855C252.467 27.7021 252.4 27.9102 252.459 28.1017L254.19 33.5556C252.467 35.5956 251.06 37.927 250.052 40.4832L244.432 41.549C244.232 41.5823 244.082 41.7405 244.057 41.9404L243.066 48.7265C243.041 48.9263 243.141 49.1178 243.316 49.2094L248.395 51.8323C248.628 54.5717 249.311 57.2112 250.377 59.6592L247.155 64.3886C247.038 64.5551 247.046 64.7716 247.163 64.9298L251.26 70.4336C251.376 70.5918 251.584 70.6585 251.776 70.6002L257.23 68.8683C259.27 70.5918 261.601 71.999 264.157 73.0065L265.223 78.6186C265.256 78.8184 265.415 78.9683 265.614 78.9933L272.401 79.9841C272.6 80.0091 272.792 79.9092 272.883 79.7343L275.506 74.6552C278.246 74.422 280.885 73.7393 283.333 72.6735L288.063 75.8958C288.229 76.0124 288.446 76.0041 288.604 75.8875L294.108 71.7909C294.266 71.6743 294.333 71.4661 294.274 71.2746L292.542 65.8208C294.266 63.7808 295.673 61.4494 296.681 58.8931L302.301 57.8273C302.501 57.794 302.651 57.6358 302.676 57.436L303.667 50.6499C303.692 50.4501 303.592 50.2585 303.417 50.167L298.338 47.5441C298.104 44.8047 297.422 42.1652 296.356 39.7172L299.578 34.9878C299.695 34.8212 299.686 34.6047 299.57 34.4382L295.473 28.9427Z" fill="#E527BB"/>
<path d="M273.359 56.1288C270.103 56.1288 267.305 53.6558 266.964 50.3502C266.789 48.6433 267.289 46.9613 268.371 45.6291C269.453 44.2968 270.994 43.4642 272.701 43.2893C274.408 43.1145 276.09 43.6141 277.422 44.6965C278.754 45.7789 279.587 47.3194 279.762 49.0263C279.937 50.7332 279.437 52.4152 278.355 53.7474C277.272 55.0796 275.732 55.9123 274.025 56.0871C273.8 56.1121 273.575 56.1288 273.359 56.1288ZM272.776 43.9721C271.252 44.1303 269.87 44.8714 268.904 46.0621C267.938 47.2527 267.488 48.7515 267.647 50.2753C267.971 53.431 270.802 55.7291 273.95 55.4044C275.474 55.2462 276.856 54.5051 277.822 53.3144C278.787 52.1237 279.237 50.625 279.079 49.1012C278.763 45.9538 275.932 43.6474 272.776 43.9721Z" fill="#BDD0FB"/>
<path d="M273.263 66.6867C272.455 66.6867 271.631 66.6285 270.806 66.5119C262.413 65.2879 256.352 58.0438 256.352 49.8006C256.352 48.9929 256.41 48.1686 256.526 47.3526C257.176 42.8896 259.532 38.9429 263.154 36.2451C266.776 33.5473 271.223 32.4232 275.694 33.0727C276.885 33.2475 278.059 33.5473 279.174 33.9636L278.933 34.6048C277.859 34.2051 276.735 33.9137 275.586 33.7471C271.298 33.1226 267.026 34.2051 263.554 36.7863C260.082 39.3758 257.825 43.1561 257.201 47.4442C257.084 48.2352 257.026 49.0179 257.026 49.8006C257.026 57.7108 262.838 64.6551 270.898 65.8374C279.741 67.128 287.992 60.9831 289.283 52.1404C289.399 51.3577 289.458 50.5667 289.458 49.784C289.458 47.6524 289.041 45.5458 288.217 43.5724L288.85 43.3059C289.708 45.3626 290.14 47.5691 290.14 49.7923C290.14 50.6083 290.082 51.4243 289.966 52.2403C288.742 60.6251 281.506 66.6867 273.263 66.6867Z" fill="#BDD0FB"/>
<path d="M235.846 63.4227C235.738 63.4227 235.646 63.3477 235.621 63.2395C235.563 62.9481 235.505 62.6483 235.43 62.3652C235.396 62.2403 235.471 62.1154 235.596 62.0904C235.721 62.0571 235.846 62.1321 235.871 62.257C235.946 62.5567 236.013 62.8565 236.063 63.1562C236.088 63.2811 236.004 63.3977 235.879 63.4227C235.871 63.4227 235.863 63.4227 235.846 63.4227Z" fill="#91B3FA"/>
<path d="M219.964 82.5652C219.448 82.5652 218.915 82.5402 218.399 82.4902C218.274 82.4819 218.182 82.3654 218.19 82.2405C218.199 82.1156 218.315 82.024 218.44 82.0323C219.065 82.0906 219.697 82.1156 220.314 82.0989C220.439 82.0906 220.547 82.1988 220.547 82.3237C220.547 82.4486 220.447 82.5569 220.322 82.5569C220.205 82.5652 220.089 82.5652 219.964 82.5652ZM223.378 82.1988C223.27 82.1988 223.178 82.1239 223.153 82.0156C223.128 81.8907 223.203 81.7742 223.328 81.7409C223.936 81.6076 224.543 81.4411 225.126 81.233C225.243 81.1913 225.376 81.2579 225.418 81.3745C225.459 81.4911 225.393 81.6243 225.276 81.6659C224.668 81.8741 224.044 82.0489 223.419 82.1822C223.411 82.1988 223.394 82.1988 223.378 82.1988ZM215.393 81.9157C215.368 81.9157 215.351 81.9157 215.326 81.9074C214.71 81.7242 214.102 81.5077 213.511 81.2579C213.394 81.208 213.344 81.0747 213.394 80.9582C213.444 80.8416 213.577 80.7916 213.694 80.8416C214.269 81.0831 214.86 81.2996 215.459 81.4744C215.584 81.5077 215.651 81.6326 215.617 81.7575C215.584 81.8491 215.493 81.9157 215.393 81.9157ZM228.007 80.4086C227.932 80.4086 227.849 80.367 227.807 80.2921C227.741 80.1838 227.782 80.0423 227.891 79.984C228.432 79.6759 228.957 79.3262 229.456 78.9598C229.556 78.8849 229.698 78.9015 229.773 79.0098C229.847 79.1097 229.831 79.2512 229.723 79.3262C229.206 79.7092 228.665 80.0672 228.116 80.3836C228.091 80.4003 228.049 80.4086 228.007 80.4086ZM231.887 77.3028C231.829 77.3028 231.779 77.2862 231.738 77.2446C231.646 77.1613 231.638 77.0114 231.721 76.9198C232.137 76.4619 232.537 75.9706 232.903 75.4627C232.978 75.3628 233.12 75.3378 233.22 75.4127C233.32 75.4877 233.345 75.6292 233.27 75.7291C232.895 76.2454 232.487 76.7533 232.054 77.2196C232.004 77.2779 231.946 77.3028 231.887 77.3028ZM234.635 73.1646C234.602 73.1646 234.569 73.1563 234.544 73.1396C234.427 73.0896 234.377 72.9481 234.435 72.8398C234.693 72.2736 234.927 71.6908 235.118 71.0996C235.16 70.983 235.285 70.9164 235.401 70.9497C235.518 70.9914 235.584 71.1163 235.551 71.2328C235.351 71.8407 235.118 72.4485 234.852 73.0313C234.802 73.1146 234.718 73.1646 234.635 73.1646ZM235.992 68.3852C235.984 68.3852 235.976 68.3852 235.967 68.3852C235.843 68.3685 235.751 68.2603 235.768 68.127L235.784 67.9605C235.851 67.3943 235.884 66.8198 235.884 66.2536C235.884 66.1287 235.992 66.0204 236.117 66.0288C236.242 66.0288 236.342 66.1287 236.342 66.2619C236.334 66.8448 236.3 67.4359 236.234 68.0188L236.217 68.1853C236.201 68.3019 236.109 68.3852 235.992 68.3852Z" fill="#91B3FA"/>
<path d="M210.892 79.7924C210.851 79.7924 210.801 79.7757 210.767 79.7508C210.517 79.5759 210.259 79.4011 210.018 79.2095C209.918 79.1346 209.901 78.9931 209.976 78.8931C210.051 78.7932 210.193 78.7766 210.293 78.8515C210.534 79.0347 210.776 79.2095 211.025 79.3761C211.134 79.4427 211.159 79.5842 211.084 79.6925C211.034 79.7591 210.967 79.7924 210.892 79.7924Z" fill="#91B3FA"/>
<path d="M203.968 68.9181C203.86 68.9181 203.76 68.8348 203.744 68.7266C203.694 68.4268 203.66 68.1188 203.627 67.8107C203.61 67.6858 203.702 67.5775 203.835 67.5609C203.96 67.5525 204.068 67.6358 204.085 67.769C204.118 68.0688 204.152 68.3685 204.201 68.66C204.218 68.7849 204.135 68.9014 204.01 68.9181C203.993 68.9181 203.985 68.9181 203.968 68.9181Z" fill="#91B3FA"/>
<path d="M203.835 64.9798C203.826 64.9798 203.818 64.9798 203.818 64.9798C203.693 64.9714 203.602 64.8549 203.61 64.73C203.618 64.5884 203.635 64.4469 203.652 64.3136C203.71 63.8224 203.785 63.3394 203.885 62.8565C203.91 62.7316 204.026 62.6567 204.151 62.6816C204.276 62.7066 204.351 62.8232 204.326 62.9481C204.234 63.4144 204.151 63.889 204.101 64.3636C204.085 64.4968 204.068 64.6384 204.06 64.7716C204.051 64.8965 203.951 64.9798 203.835 64.9798ZM204.992 60.2337C204.967 60.2337 204.934 60.2253 204.909 60.217C204.792 60.167 204.734 60.0338 204.784 59.9173C205.025 59.3344 205.3 58.7599 205.608 58.2103C205.667 58.1021 205.808 58.0604 205.916 58.1187C206.025 58.177 206.066 58.3186 206.008 58.4268C205.708 58.9597 205.442 59.5176 205.209 60.0838C205.167 60.1837 205.084 60.2337 204.992 60.2337ZM207.515 56.0454C207.465 56.0454 207.415 56.0288 207.365 55.9955C207.265 55.9122 207.257 55.7707 207.332 55.6707C207.732 55.1878 208.173 54.7215 208.631 54.2885C208.722 54.2053 208.864 54.2053 208.956 54.2969C209.039 54.3885 209.039 54.53 208.947 54.6216C208.506 55.0463 208.081 55.4959 207.69 55.9622C207.648 56.0205 207.582 56.0454 207.515 56.0454ZM211.179 52.8064C211.104 52.8064 211.029 52.7731 210.987 52.6982C210.921 52.5899 210.946 52.4484 211.054 52.3818C211.587 52.0404 212.136 51.724 212.702 51.4492C212.819 51.3909 212.952 51.4409 213.011 51.5491C213.069 51.6657 213.019 51.7989 212.911 51.8572C212.361 52.1237 211.82 52.4317 211.312 52.7648C211.262 52.7981 211.22 52.8064 211.179 52.8064ZM227.016 51.8489C226.982 51.8489 226.949 51.8405 226.916 51.8239C226.366 51.5574 225.792 51.316 225.217 51.1161C225.101 51.0745 225.034 50.9413 225.076 50.8247C225.117 50.7081 225.25 50.6415 225.367 50.6832C225.958 50.8913 226.549 51.1328 227.116 51.4076C227.232 51.4659 227.274 51.5991 227.224 51.7157C227.182 51.7989 227.099 51.8489 227.016 51.8489ZM215.633 50.8081C215.533 50.8081 215.442 50.7415 215.417 50.6415C215.384 50.5166 215.458 50.3917 215.575 50.3584C216.183 50.1919 216.807 50.0587 217.424 49.9588C217.548 49.9421 217.665 50.0254 217.682 50.1503C217.698 50.2752 217.615 50.3917 217.49 50.4084C216.882 50.5 216.283 50.6332 215.692 50.7997C215.675 50.8081 215.65 50.8081 215.633 50.8081ZM222.345 50.4084C222.336 50.4084 222.32 50.4084 222.311 50.4084C222.12 50.3834 221.937 50.3584 221.745 50.3335C221.32 50.2835 220.896 50.2502 220.479 50.2419C220.354 50.2335 220.255 50.1336 220.263 50.0087C220.271 49.8838 220.371 49.7839 220.496 49.7922C220.929 49.8089 221.37 49.8422 221.803 49.8922C221.995 49.9171 222.195 49.9421 222.386 49.9671C222.511 49.9837 222.594 50.1003 222.578 50.2252C222.553 50.3251 222.461 50.4084 222.345 50.4084Z" fill="#91B3FA"/>
<path d="M230.326 53.9973C230.276 53.9973 230.226 53.9806 230.176 53.9473C229.943 53.7558 229.71 53.5643 229.469 53.3894C229.369 53.3145 229.344 53.1729 229.419 53.073C229.494 52.9731 229.635 52.9481 229.735 53.0231C229.976 53.2062 230.226 53.3978 230.459 53.5976C230.559 53.6809 230.568 53.8224 230.484 53.9223C230.451 53.9723 230.393 53.9973 230.326 53.9973Z" fill="#91B3FA"/>
<path d="M229.056 57.7274C229.006 57.6607 228.923 57.6358 228.84 57.6607L226.592 58.3768C225.751 57.6691 224.785 57.0862 223.727 56.6699L223.286 54.3468C223.269 54.2635 223.203 54.2052 223.119 54.1886L220.313 53.7806C220.23 53.7723 220.147 53.8139 220.114 53.8805L219.031 55.9788C217.899 56.0787 216.808 56.3535 215.8 56.7948L213.852 55.4625C213.785 55.4126 213.694 55.4209 213.627 55.4709L211.354 57.1612C211.287 57.2111 211.262 57.2944 211.287 57.3776L212.004 59.6258C211.296 60.4668 210.713 61.4326 210.297 62.4901L207.974 62.9314C207.89 62.9481 207.832 63.0147 207.815 63.0979L207.407 65.904C207.399 65.9872 207.441 66.0705 207.507 66.1038L209.605 67.1863C209.705 68.3187 209.98 69.4094 210.421 70.4169L209.089 72.3653C209.039 72.4319 209.048 72.5235 209.098 72.5901L210.788 74.8633C210.838 74.9299 210.921 74.9549 211.004 74.9299L213.253 74.2138C214.093 74.9216 215.059 75.5044 216.117 75.9207L216.558 78.2438C216.575 78.3271 216.641 78.3854 216.725 78.402L219.531 78.81C219.614 78.8184 219.697 78.7767 219.731 78.7101L220.813 76.6118C221.945 76.5119 223.036 76.2371 224.044 75.7958L225.992 77.1281C226.059 77.178 226.15 77.1697 226.217 77.1198L228.49 75.4295C228.557 75.3795 228.582 75.2963 228.557 75.213L227.841 72.9648C228.548 72.1239 229.131 71.158 229.547 70.1005L231.871 69.6592C231.954 69.6426 232.012 69.576 232.029 69.4927L232.437 66.6867C232.445 66.6034 232.403 66.5201 232.337 66.4868L230.239 65.4044C230.139 64.272 229.864 63.1812 229.423 62.1737L230.755 60.2253C230.805 60.1587 230.796 60.0671 230.746 60.0005L229.056 57.7274Z" fill="#A78BEF"/>
<path d="M219.924 69.1513C219.266 69.1513 218.642 68.9264 218.126 68.5101C217.534 68.0272 217.168 67.3444 217.085 66.5867C217.01 65.829 217.226 65.0796 217.709 64.4884C218.192 63.8972 218.875 63.5309 219.633 63.4476C220.39 63.3727 221.14 63.5892 221.731 64.0721C222.322 64.555 222.689 65.2378 222.772 65.9955C222.847 66.7532 222.63 67.5026 222.147 68.0938C221.664 68.685 220.982 69.0513 220.224 69.1346C220.124 69.1513 220.024 69.1513 219.924 69.1513ZM219.708 64.1304C218.517 64.2553 217.643 65.3211 217.768 66.5118C217.826 67.0863 218.109 67.6109 218.559 67.9772C219.008 68.3436 219.574 68.5101 220.149 68.4518C220.724 68.3935 221.248 68.1104 221.614 67.6608C221.981 67.2112 222.147 66.645 222.089 66.0705C221.972 64.8798 220.907 64.0138 219.708 64.1304Z" fill="#BDD0FB"/>
<path d="M219.889 73.5144C219.548 73.5144 219.198 73.4895 218.848 73.4395C215.284 72.9149 212.703 69.8425 212.703 66.337C212.703 65.9956 212.728 65.6459 212.778 65.2962C213.053 63.3978 214.052 61.7241 215.592 60.5751C217.133 59.426 219.023 58.9514 220.921 59.2262C221.379 59.2928 221.829 59.401 222.262 59.5509C222.279 59.5592 222.295 59.5592 222.312 59.5676C222.345 59.5759 222.37 59.5925 222.403 59.6009L222.162 60.242C221.729 60.0838 221.279 59.9672 220.821 59.9006C219.814 59.7507 218.798 59.8423 217.857 60.1504C217.216 60.3586 216.6 60.675 216.042 61.0913C216.025 61.0996 216.017 61.108 216 61.1246C214.61 62.1571 213.702 63.6809 213.453 65.3961C213.403 65.7125 213.386 66.0289 213.386 66.337C213.386 69.5094 215.717 72.2905 218.94 72.7567C222.487 73.273 225.784 70.8167 226.309 67.2696C226.359 66.9532 226.375 66.6368 226.375 66.3287C226.375 65.4794 226.209 64.6301 225.876 63.8391L226.508 63.5726C226.875 64.4469 227.058 65.3795 227.058 66.3204C227.058 66.6701 227.033 67.0198 226.983 67.3612C226.467 70.9416 223.394 73.5144 219.889 73.5144Z" fill="#BDD0FB"/>
<path d="M426.035 282.276C426.035 285.424 423.454 288.005 420.298 288.005H110.178C107.022 288.005 104.441 285.424 104.441 282.276L101.859 104.056C101.859 100.909 105.573 94.7555 112.376 95.2134L415.46 87.3699C419.415 87.2699 423.245 88.7937 426.043 91.5831C428.849 94.3808 430.381 98.1943 430.29 102.149L426.035 282.276Z" fill="#E527BB"/>
<path d="M420.375 276.781C420.375 279.762 417.935 282.21 414.946 282.21H117.657C114.676 282.21 112.228 279.77 112.228 276.781L109.797 114.989C110.08 105.255 118.623 101.75 123.794 101.958L414.28 94.1643C417.061 94.0894 419.751 95.1635 421.716 97.1285C423.681 99.0936 424.763 101.783 424.688 104.564L420.375 276.781Z" fill="#C10C9F"/>
<g opacity="0.63">
<path d="M115.448 199.353C115.323 199.353 115.223 199.253 115.223 199.128L115.031 186.006C115.031 185.881 115.131 185.772 115.256 185.772C115.381 185.772 115.481 185.872 115.481 185.997L115.672 199.12C115.672 199.245 115.572 199.353 115.448 199.353Z" fill="white"/>
<path d="M114.974 167.196C114.849 167.196 114.749 167.096 114.749 166.971L114.008 116.721C114.024 113.432 115.032 110.801 117.014 108.902C120.636 105.439 126.306 105.613 126.548 105.622L219.321 103.132C219.455 103.124 219.554 103.224 219.554 103.357C219.554 103.482 219.463 103.59 219.33 103.59L126.539 106.08C126.289 106.071 120.802 105.905 117.322 109.235C115.432 111.042 114.466 113.565 114.457 116.729L115.199 166.98C115.207 167.096 115.107 167.196 114.974 167.196Z" fill="white"/>
</g>
<path d="M125.328 267.805C125.636 254.433 125.519 136.022 124.753 125.797C123.987 115.572 139.916 113.648 164.37 112.499C188.825 111.35 395.148 106.796 400.46 106.363C412.4 105.397 414.873 123.24 413.674 161.992C412.775 191.101 411.293 239.054 410.602 261.11C410.402 267.68 405.031 272.884 398.462 272.901C348.811 273.034 158.517 273.584 145.852 273.958C131.273 274.391 125.203 273.109 125.328 267.805Z" fill="#DBEAF9"/>
<path d="M365.863 177.854C365.388 200.369 363.839 278.021 364.58 305.54C364.655 308.455 366.654 310.795 369.152 310.894C381.475 311.369 426.663 312.56 446.821 311.569C451.018 311.361 454.357 307.381 454.448 302.468C454.864 278.837 455.789 212.375 453.591 181.934C453.324 178.287 450.876 175.381 447.762 175.014C434.34 173.441 388.96 169.602 371.55 170.926C368.402 171.168 365.946 174.173 365.863 177.854Z" fill="#A78BEF"/>
<path d="M371.368 184.765C370.702 202.933 368.612 263.383 369.278 285.74C369.378 289.004 371.576 291.652 374.365 291.843C385.848 292.626 425.04 294.366 441.885 292.784C444.916 292.501 447.297 289.629 447.464 286.073C448.321 267.538 450.769 211.251 450.128 189.144C450.028 185.622 447.688 182.741 444.691 182.425C432.268 181.118 390.619 178.012 376.305 178.928C373.616 179.094 371.484 181.617 371.368 184.765Z" fill="#DBEAF9"/>
<path d="M396.328 174.864C396.328 175.556 396.786 176.122 397.377 176.163C400.292 176.338 408.485 176.846 412.157 177.096C412.881 177.146 413.447 176.388 413.306 175.556L413.281 175.414C413.189 174.848 412.781 174.423 412.29 174.365C409.809 174.098 402.34 173.366 397.386 173.574C396.794 173.59 396.328 174.165 396.328 174.864Z" fill="url(#paint0_linear_1514_5963)"/>
<path d="M393.033 85.8377C405.697 85.8377 415.964 75.571 415.964 62.9065C415.964 50.242 405.697 39.9753 393.033 39.9753C380.368 39.9753 370.102 50.242 370.102 62.9065C370.102 75.571 380.368 85.8377 393.033 85.8377Z" fill="#E527BB"/>
<path d="M384.093 75.7045C383.985 75.7045 383.893 75.6296 383.868 75.5213L381.046 62.5154C381.029 62.4571 381.046 62.3905 381.079 62.3405C381.112 62.2905 381.162 62.2572 381.22 62.2406C381.237 62.2406 382.611 61.9408 383.702 61.0582C384.176 60.6669 384.459 59.6261 384.793 58.4104C385.184 56.9616 385.667 55.1631 386.708 53.7059C388.656 50.9832 387.932 47.3112 387.84 46.8948C387.723 46.3703 388.073 45.3128 388.856 44.9215C389.397 44.6467 390.305 44.6051 391.52 45.9873C393.277 47.9773 392.886 50.9499 392.594 53.1231C392.495 53.8558 392.411 54.4803 392.436 54.9216C392.445 55.1464 392.52 55.3046 392.661 55.4129C393.269 55.8625 395.026 55.4045 396.724 54.9716C397.324 54.8133 397.948 54.6551 398.556 54.5219C401.421 53.8974 402.803 54.447 403.311 56.3954C403.669 57.7693 402.836 58.7851 402.378 59.2097C403.635 59.9175 404.335 60.7501 404.451 61.6744C404.576 62.6902 403.977 63.5229 403.619 63.9225C404.718 64.4804 405.267 65.438 405.159 66.587C405.068 67.5446 404.51 68.4105 403.777 68.8435C404.61 69.1765 404.784 69.7261 404.809 70.0675C404.893 71.2332 403.419 72.632 401.387 73.3148C398.256 74.364 384.693 75.6546 384.118 75.7128C384.101 75.7045 384.093 75.7045 384.093 75.7045ZM381.537 62.6319L384.268 75.2299C386 75.0634 397.449 73.8394 400.321 72.8735C402.345 72.1907 404.41 70.9251 404.351 70.0925C404.31 69.468 403.602 69.2099 403.011 69.0933C402.903 69.0766 402.828 68.9767 402.828 68.8685C402.828 68.7602 402.903 68.6686 403.011 68.6437C403.852 68.4855 404.601 67.5529 404.701 66.5371C404.801 65.5046 404.235 64.6469 403.144 64.2056C403.069 64.1723 403.019 64.114 403.003 64.0308C402.986 63.9558 403.019 63.8726 403.077 63.8226C403.086 63.8143 404.135 62.8734 403.993 61.7327C403.885 60.8917 403.177 60.1257 401.87 59.4595C401.804 59.4262 401.754 59.3513 401.745 59.2763C401.737 59.2014 401.779 59.1181 401.837 59.0765C401.895 59.0349 403.261 58.0274 402.869 56.5203C402.495 55.0881 401.654 54.3221 398.648 54.9799C398.057 55.1048 397.432 55.2713 396.833 55.4212C394.868 55.9291 393.161 56.3621 392.386 55.7875C392.128 55.596 391.995 55.3213 391.978 54.9549C391.953 54.472 392.045 53.8225 392.145 53.0731C392.42 50.9915 392.803 48.1355 391.179 46.3037C390.371 45.3878 389.639 45.0547 389.064 45.3461C388.481 45.6375 388.215 46.4785 388.29 46.8199C388.381 47.2529 389.139 51.1081 387.082 53.989C386.091 55.3795 385.633 57.0615 385.234 58.5436C384.876 59.8842 384.584 60.9416 383.993 61.4246C383.069 62.1573 381.995 62.507 381.537 62.6319Z" fill="url(#paint1_linear_1514_5963)"/>
<path d="M372.21 64.4803H372.201C372.076 64.4719 371.977 64.3637 371.985 64.2388C371.993 64.0972 372.784 49.7507 383.684 44.7881C383.8 44.7381 383.933 44.7881 383.983 44.9047C384.033 45.0212 383.983 45.1545 383.867 45.2044C373.217 50.0504 372.443 64.1222 372.434 64.2638C372.426 64.3803 372.326 64.4803 372.21 64.4803Z" fill="url(#paint2_linear_1514_5963)"/>
<path d="M401.657 82.1074C401.565 82.1074 401.473 82.0491 401.44 81.9575C401.398 81.8409 401.457 81.7077 401.573 81.6661C399.142 82.5653 412.648 76.512 414.046 64.2221C414.063 64.0972 414.171 64.0056 414.296 64.0222C414.421 64.0389 414.513 64.1471 414.496 64.272C413.688 71.3329 410.266 75.7959 407.535 78.3022C404.571 81.0166 401.84 82.0491 401.732 82.0907C401.715 82.099 401.69 82.1074 401.657 82.1074Z" fill="url(#paint3_linear_1514_5963)"/>
<path d="M266.084 246.656C297.17 246.656 322.371 221.455 322.371 190.369C322.371 159.282 297.17 134.082 266.084 134.082C234.997 134.082 209.797 159.282 209.797 190.369C209.797 221.455 234.997 246.656 266.084 246.656Z" fill="#E527BB"/>
<path d="M266.074 190.344H322.37C322.37 221.226 296.957 246.639 266.074 246.639C244.917 246.639 225.474 234.707 215.891 215.848L266.074 190.344Z" fill="#A78BEF"/>
<path d="M266.081 190.343L258.055 134.631C260.711 134.248 263.392 134.056 266.081 134.056C296.964 134.056 322.377 159.469 322.377 190.352L266.081 190.343Z" fill="#E527BB"/>
<path d="M266.078 190.344H322.374C322.374 200.96 319.368 211.368 313.706 220.352C308.044 229.336 299.95 236.539 290.375 241.118L266.078 190.344Z" fill="#A78BEF"/>
<path d="M307.937 200.264C313.396 177.144 299.079 153.976 275.96 148.517C252.84 143.058 229.672 157.375 224.213 180.494C218.754 203.614 233.07 226.782 256.19 232.241C279.31 237.7 302.477 223.384 307.937 200.264Z" fill="white"/>
<path d="M307.914 162.192H325.874L340.97 147.096H365.384" stroke="#E527BB" stroke-miterlimit="10"/>
<path d="M365.376 137.312H339.039V141.417H365.376V137.312Z" fill="#E527BB"/>
<path d="M307.914 220.985H325.874L340.97 205.889H365.384" stroke="#A78BEF" stroke-miterlimit="10"/>
<path d="M365.376 196.097H339.039V200.202H365.376V196.097Z" fill="#A78BEF"/>
<path d="M224.242 162.192H206.282L191.186 147.096H166.781" stroke="#E527BB" stroke-miterlimit="10"/>
<path d="M193.118 137.304H166.781V141.409H193.118V137.304Z" fill="#E527BB"/>
<path d="M224.242 220.985H206.282L191.186 205.889H166.781" stroke="#A78BEF" stroke-miterlimit="10"/>
<path d="M193.118 196.097H166.781V200.202H193.118V196.097Z" fill="#A78BEF"/>
<path d="M410.93 258.554C421.981 258.554 430.939 249.596 430.939 238.546C430.939 227.495 421.981 218.537 410.93 218.537C399.88 218.537 390.922 227.495 390.922 238.546C390.922 249.596 399.88 258.554 410.93 258.554Z" fill="#E527BB"/>
<path d="M410.921 238.537H430.93C430.93 249.512 421.896 258.546 410.921 258.546C403.402 258.546 396.491 254.308 393.086 247.597L410.921 238.537Z" fill="#A78BEF"/>
<path d="M410.926 238.537L408.07 218.728C409.02 218.595 409.969 218.52 410.926 218.52C421.901 218.52 430.935 227.555 430.935 238.529L410.926 238.537Z" fill="#E527BB"/>
<path d="M410.93 238.537H430.938C430.938 242.309 429.872 246.015 427.857 249.204C425.842 252.401 422.97 254.957 419.564 256.589L410.93 238.537Z" fill="#A78BEF"/>
<path d="M410.936 253.833C419.379 253.833 426.223 246.989 426.223 238.546C426.223 230.102 419.379 223.258 410.936 223.258C402.493 223.258 395.648 230.102 395.648 238.546C395.648 246.989 402.493 253.833 410.936 253.833Z" fill="white"/>
<path d="M425.797 228.529H432.183L437.546 223.167H446.222" stroke="#E527BB" stroke-miterlimit="10"/>
<path d="M446.218 219.686H436.859V221.143H446.218V219.686Z" fill="#E527BB"/>
<path d="M425.797 249.428H432.183L437.546 244.066H446.222" stroke="#A78BEF" stroke-miterlimit="10"/>
<path d="M446.218 240.585H436.859V242.043H446.218V240.585Z" fill="#A78BEF"/>
<path d="M396.058 228.529H389.671L384.309 223.167H375.633" stroke="#E527BB" stroke-miterlimit="10"/>
<path d="M384.992 219.686H375.633V221.143H384.992V219.686Z" fill="#E527BB"/>
<path d="M396.058 249.428H389.671L384.309 244.066H375.633" stroke="#A78BEF" stroke-miterlimit="10"/>
<path d="M384.992 240.585H375.633V242.043H384.992V240.585Z" fill="#A78BEF"/>
<path d="M329.46 205.673C329.552 205.714 329.644 205.756 329.727 205.798C329.81 205.548 329.81 205.248 329.61 204.94C329.028 204.049 330.077 202.842 330.077 202.842C330.077 202.842 330.143 203.908 330.959 204.582C331.659 205.157 331.992 206.447 331.517 207.505C330.51 211.426 328.994 216.614 334.889 220.411C340.785 224.199 349.078 213.258 349.078 213.258L344.956 226.314C344.956 226.314 338.603 231.002 331.209 224.407C323.815 217.813 328.719 208.212 328.719 208.212C328.719 208.212 327.595 204.857 329.46 205.673Z" fill="url(#paint4_linear_1514_5963)"/>
<path d="M350.113 194.074C350.113 194.074 348.406 186.414 357.174 188.445C357.174 188.445 361.428 187.746 361.645 191.767C361.645 191.767 364.393 193.574 362.378 197.055C362.378 197.055 370.538 193.907 374.085 201.051C377.64 208.204 374.368 212.134 370.946 213.158C370.946 213.158 373.718 214.549 372.403 217.696C371.087 220.844 364.443 223.058 360.513 219.237C360.513 219.237 349.33 220.71 349.555 212.817C349.555 212.817 344.359 209.461 349.813 202.933C355.292 196.405 350.113 194.074 350.113 194.074Z" fill="black"/>
<path d="M349.636 211.817C351.402 211.293 356.531 210.31 361.41 214.815C362.234 215.581 362.576 216.738 362.284 217.829C360.977 222.659 357.513 236.913 360.544 243.083C360.544 243.083 355.198 248.979 349.37 244.224C349.37 244.224 346.755 232.825 343.325 227.813C340.96 224.357 347.097 214.832 348.654 212.534C348.887 212.2 349.237 211.942 349.636 211.817Z" fill="#A78BEF"/>
<path d="M354.489 202.234C354.489 202.234 357.095 209.611 357.295 212.859C357.295 212.859 354.414 214.166 351.699 211.959C351.699 211.959 351.416 204.599 351 203.275L354.489 202.234Z" fill="url(#paint5_linear_1514_5963)"/>
<path d="M350.876 192.175C350.876 192.175 344.057 201.717 348.137 204.49C352.209 207.263 357.063 200.477 357.063 200.477C357.063 200.477 358.645 195.256 356.988 193.483C355.331 191.717 350.876 192.175 350.876 192.175Z" fill="url(#paint6_linear_1514_5963)"/>
<path d="M354.038 189.894C354.038 189.894 350.907 190.635 350.466 192.05C350.024 193.466 354.904 194.782 356.278 194.848L357.377 200.568C357.377 200.568 360.632 195.19 359.342 192.084C358.051 188.978 354.038 189.894 354.038 189.894Z" fill="black"/>
<path d="M355.742 199.777C355.742 199.777 358.398 196.705 359.447 198.712C360.505 200.718 357.058 202.217 355.867 201.235L355.742 199.777Z" fill="url(#paint7_linear_1514_5963)"/>
<path d="M342.549 268.18C342.566 268.696 341.658 272.801 341.167 274.991C340.967 275.873 341.108 276.798 341.558 277.58L358.686 306.415C358.894 306.765 359.044 307.139 359.135 307.539C359.452 308.888 360.101 312.21 359.76 315.224L358.877 317.065L362.707 316.19L363.54 305.899L362.458 305.241C361.517 304.666 360.792 303.817 360.376 302.801C358.827 299.038 354.98 289.462 353.99 284.791C352.865 279.487 346.97 275.174 346.97 275.174L348.003 272.726L342.549 268.18Z" fill="url(#paint8_linear_1514_5963)"/>
<path d="M366.975 312.643C366.975 312.643 364.902 309.362 364.661 308.089C364.419 306.815 363.736 304.558 362.463 305.233C362.463 305.233 361.863 311.436 362.071 313.859C362.279 316.282 359.332 316.207 359.332 316.207C359.332 316.207 358.516 316.323 357.925 316.915C357.517 317.323 357.808 318.039 358.391 318.072C359.357 318.13 360.889 318.147 362.496 317.839C363.062 317.731 363.478 317.248 363.512 316.681L363.936 309.537L366.551 312.835L366.975 312.643Z" fill="#A78BEF"/>
<path d="M352.782 272.768C352.782 272.768 353.39 298.555 353.465 302.219C353.54 305.882 352.891 314.001 349.219 316.424L350.817 317.606C350.817 317.606 352.816 315.907 354.764 312.643C356.954 308.971 357.62 308.305 357.62 308.305L356.896 306.815C356.579 306.165 356.488 305.424 356.629 304.716C357.42 300.878 360.068 288.105 360.793 285.349C361.642 282.102 361.708 277.764 358.744 274.133C355.772 270.511 352.782 272.768 352.782 272.768Z" fill="url(#paint9_linear_1514_5963)"/>
<path d="M356.181 318.771C356.297 318.771 356.389 318.688 356.406 318.58C356.53 317.722 357.038 314.275 357.455 313.384C357.929 312.36 359.486 308.064 357.455 307.697C357.455 307.697 352.392 315.091 351.426 316.082C350.452 317.081 349.228 316.432 349.228 316.432C349.228 316.432 348.279 316.715 347.571 317.622C347.23 318.055 347.546 318.697 348.096 318.697L351.501 318.73C352.492 318.738 353.383 318.139 353.749 317.223C354.349 315.724 355.381 313.526 356.58 312.552L355.956 318.53C355.939 318.655 356.039 318.771 356.181 318.771Z" fill="#A78BEF"/>
<path d="M348.555 241.451C348.555 241.451 349.321 243.899 348.147 247.929L340.828 273.492C340.712 273.891 340.928 274.316 341.32 274.458C343.51 275.24 350.704 277.464 360.529 276.789C361.02 276.756 361.436 276.406 361.545 275.923C362.194 273.009 364.401 263.067 364.859 261.027C366.591 253.242 368.522 244.849 360.013 239.778C356.091 241.443 352.436 242.434 348.555 241.451Z" fill="black"/>
<path d="M362.099 215.781C362.099 215.781 370.426 222.7 372.491 232.159C374.556 241.618 360.326 242.617 360.326 242.617C360.326 242.617 358.394 240.461 356.096 241.227C353.798 241.993 355.921 237.463 358.602 237.471C361.283 237.48 360.043 239.603 363.84 237.888C367.537 236.214 369.826 231.027 360.384 223.175C359.835 222.717 359.402 222.142 359.135 221.476C357.312 216.872 358.769 213.841 362.099 215.781Z" fill="url(#paint10_linear_1514_5963)"/>
<path d="M333.33 204.782C333.33 204.782 333.972 203.624 333.905 202.7C333.838 201.767 334.413 200.402 333.797 200.502C333.181 200.602 333.056 200.518 332.889 201.634C332.714 202.758 331.215 206.872 333.33 204.782Z" fill="url(#paint11_linear_1514_5963)"/>
<path d="M328.668 197.879C328.677 197.704 328.76 197.546 328.901 197.438C329.043 197.33 329.218 197.296 329.393 197.33L333.647 198.295C333.814 198.337 333.922 198.487 333.906 198.653L332.665 209.711C332.657 209.761 332.632 209.803 332.598 209.836C332.557 209.869 332.515 209.878 332.465 209.869L328.751 209.42C328.443 209.386 328.219 209.12 328.235 208.812L328.668 197.879Z" fill="#E527BB"/>
<path d="M329.863 198.52C329.871 198.42 329.921 198.329 329.996 198.27C330.079 198.212 330.179 198.195 330.271 198.212L333.068 198.911C333.226 198.953 333.335 199.103 333.318 199.269L332.252 208.687C332.244 208.737 332.219 208.778 332.177 208.812C332.136 208.845 332.086 208.853 332.036 208.845L329.455 208.387C329.363 208.37 329.305 208.287 329.305 208.204L329.863 198.52Z" fill="#A78BEF"/>
<path d="M331.47 198.27C331.461 198.303 331.511 198.345 331.57 198.353L332.502 198.545C332.569 198.562 332.619 198.545 332.627 198.512L332.635 198.478C332.644 198.445 332.594 198.403 332.535 198.395L331.603 198.204C331.536 198.187 331.486 198.204 331.478 198.237L331.47 198.27Z" fill="url(#paint12_linear_1514_5963)"/>
<path d="M327.188 200.693C327.879 200.444 329.22 198.112 329.478 198.878C329.736 199.644 329.37 200.693 329.478 201.018C329.586 201.343 330.327 203.15 329.994 203.982C329.753 204.582 329.353 206.43 329.153 207.413C329.087 207.738 328.795 207.971 328.462 207.971C328.129 207.971 327.846 207.738 327.771 207.413C327.755 207.28 326.506 200.943 327.188 200.693Z" fill="url(#paint13_linear_1514_5963)"/>
<path d="M253.478 199.453H247.508V213.891H253.478V199.453Z" fill="#A78BEF"/>
<path d="M262.29 189.203H256.32V213.891H262.29V189.203Z" fill="#A78BEF"/>
<path d="M272.048 181.634H266.078V213.883H272.048V181.634Z" fill="#E527BB"/>
<path d="M281.603 172.758H275.633V213.891H281.603V172.758Z" fill="#E527BB"/>
<path d="M270.602 166.438L274.74 167.953L274.265 163.107L270.602 166.438Z" fill="#E527BB"/>
<path d="M245.865 192.442C245.682 192.442 245.515 192.334 245.449 192.15C245.365 191.917 245.482 191.659 245.715 191.576C245.898 191.509 263.875 184.623 272.643 166.105C272.751 165.88 273.018 165.789 273.243 165.889C273.467 165.997 273.559 166.263 273.459 166.488C264.533 185.339 246.223 192.342 246.04 192.417C245.965 192.433 245.915 192.442 245.865 192.442Z" fill="#E527BB"/>
<path d="M406.621 240.053H404.789V244.482H406.621V240.053Z" fill="#A78BEF"/>
<path d="M409.308 236.905H407.477V244.474H409.308V236.905Z" fill="#A78BEF"/>
<path d="M412.308 234.591H410.477V244.482H412.308V234.591Z" fill="#E527BB"/>
<path d="M415.246 231.868H413.414V244.482H415.246V231.868Z" fill="#E527BB"/>
<path d="M411.867 229.928L413.141 230.394L412.991 228.904L411.867 229.928Z" fill="#E527BB"/>
<path d="M404.274 237.904C404.215 237.904 404.165 237.871 404.149 237.813C404.124 237.738 404.157 237.663 404.232 237.638C404.29 237.621 409.803 235.506 412.492 229.828C412.525 229.761 412.609 229.728 412.675 229.761C412.742 229.794 412.775 229.878 412.742 229.944C410.002 235.731 404.39 237.879 404.332 237.896C404.307 237.904 404.29 237.904 404.274 237.904Z" fill="#E527BB"/>
<path d="M169.572 165.22C169.572 165.22 173.571 164.896 177.228 170.515C167.688 168.341 162.547 170.144 162.547 170.144C162.547 170.144 165.255 164.961 169.572 165.22Z" fill="#900F73"/>
<path d="M145.039 168.546C145.942 169.154 147.093 169.212 148.181 169.243C154.852 169.436 161.528 169.38 168.201 169.323C165.87 166.566 164.198 163.217 162.957 159.827C165.486 158.701 166.411 155.272 165.344 152.717C164.279 150.162 161.705 148.488 159.025 147.791C156.818 147.216 154.422 147.214 152.301 148.052C150.179 148.891 148.37 150.624 147.689 152.801C147.009 154.978 147.183 157.974 148.895 159.481C147.761 161.769 146.347 163.918 144.694 165.865C143.989 166.694 144.137 167.938 145.039 168.546ZM150.77 152.706C151.821 148.958 156.416 150.18 157.326 150.899C157.99 151.424 158.516 152.146 158.768 152.978C159.008 153.771 159.017 154.661 158.671 155.41C158.299 156.216 157.552 156.783 156.75 157.103C155.375 157.652 153.743 157.523 152.52 156.668C151.298 155.815 150.357 154.182 150.77 152.706Z" fill="#E527BB"/>
<path d="M162.649 169.363C161.756 166.104 160.608 162.907 159.133 159.872C161.714 159.086 163.646 156.526 163.694 153.828C163.731 151.748 162.644 149.713 160.976 148.487C162.887 149.371 164.542 150.794 165.344 152.716C166.41 155.271 165.485 158.701 162.957 159.826C164.198 163.216 165.87 166.566 168.201 169.322C166.35 169.338 164.5 169.352 162.649 169.363Z" fill="#900F73"/>
<path d="M194.126 167.344H108.048L97.0469 292.84L182.081 303.094L194.126 167.344Z" fill="#E527BB"/>
<path d="M194.124 167.344L197.355 169.699L185.237 301.845L182.078 303.094L194.124 167.344Z" fill="#DAA7EE"/>
<path d="M97.0469 292.84L104.63 206.33L110.691 172.633L186.817 171.131C186.817 171.131 187.641 270.236 172.117 301.892L97.0469 292.84Z" fill="#A78BEF"/>
<g opacity="0.68">
<path d="M91.4375 287.352C107.191 287.834 124.851 286.984 141.963 289.423C152.603 290.94 163.031 292.702 172.656 294.542C182.082 266.084 187.435 193.539 187.435 174.08C161.844 173.621 136.253 173.161 110.663 172.702C108.103 210.519 98.7753 250.166 91.4375 287.352Z" fill="#AED6F4"/>
</g>
<path d="M87 284.761C102.753 285.243 120.414 287.05 137.525 289.489C137.532 289.49 137.539 289.491 137.546 289.492C138.502 289.61 139.437 289.703 140.353 289.773C160.45 291.302 171.147 281.611 171.147 281.611C177.227 250.076 182.997 193.605 182.997 174.146C157.407 173.688 131.816 173.228 106.226 172.769C103.665 210.585 94.3371 247.576 87 284.761Z" fill="#FFF7F2"/>
<path d="M173.587 281.022C173.587 281.022 162.139 274.208 162.719 269.124C162.719 269.124 147.222 288.953 142.797 289.183L165.119 281.387L173.587 281.022Z" fill="#D9ECF9"/>
<path d="M142.797 289.184C162.894 290.712 173.591 281.021 173.591 281.021C173.591 281.021 166.484 280.476 163.398 273.869C163.398 273.869 154.464 288.277 142.801 289.183C142.8 289.183 142.798 289.183 142.797 289.184Z" fill="white"/>
<g opacity="0.41">
<path d="M130.144 180.452C130.144 180.452 123.162 177.574 125.681 167.344H136.447L130.144 180.452Z" fill="#518798"/>
</g>
<path d="M161.32 166.174C155.898 165.927 150.476 165.68 145.055 165.433C146.116 164.137 147.075 162.757 147.916 161.308C149.768 161.457 151.591 161.847 153.365 162.431C156.153 163.35 158.782 164.699 161.32 166.174Z" fill="#900F73"/>
<path d="M165.38 180.429L130.146 180.452C128.291 176.435 129.1 171.607 130.579 167.245C131.064 165.818 132.33 164.805 133.83 164.666C145.274 163.609 156.986 163.533 169.575 165.22C165.652 167.286 165.032 174.771 165.38 180.429Z" fill="#E527BB"/>
<path d="M163.439 169.189C163.439 169.189 161.226 175.192 162.541 178.132H131.602L158.937 173.961C158.937 173.961 160.939 169.933 163.439 169.189Z" fill="#900F73"/>
<path d="M148.309 165.886C149.693 165.915 153.444 166.413 154.648 166.94C155.001 167.094 155.403 167.38 155.332 167.758C155.27 168.087 154.892 168.236 154.569 168.321C149.606 169.625 144.418 169.565 139.338 169.19C138.341 169.117 133.221 169.262 133.436 167.902C133.725 166.084 138.177 166.302 139.429 166.19C142.381 165.926 145.347 165.823 148.309 165.886Z" fill="#E527BB"/>
<path d="M159.292 168.736C160.653 168.736 161.757 168.309 161.757 167.782C161.757 167.255 160.653 166.828 159.292 166.828C157.931 166.828 156.828 167.255 156.828 167.782C156.828 168.309 157.931 168.736 159.292 168.736Z" fill="#E527BB"/>
<path d="M108.573 220.234L122.519 220.877L119.931 237.799L105.984 237.156L108.573 220.234ZM120.558 222.484L110.019 221.999L107.946 235.548L118.485 236.034L120.558 222.484Z" fill="#DAA7EE"/>
<path d="M127.551 228.918C127.02 228.818 126.642 228.328 126.692 227.779C126.745 227.196 127.261 226.766 127.844 226.82L171.616 230.824C172.197 230.873 172.628 231.393 172.574 231.976C172.521 232.559 172.005 232.989 171.422 232.935L127.651 228.932C127.618 228.928 127.584 228.923 127.551 228.918Z" fill="#DAA7EE"/>
<path d="M127.129 233.435C126.598 233.336 126.22 232.846 126.27 232.297C126.323 231.714 126.839 231.284 127.422 231.337L159.513 234.16C160.093 234.212 160.525 234.729 160.471 235.313C160.418 235.896 159.903 236.326 159.319 236.272L127.229 233.449C127.195 233.447 127.161 233.442 127.129 233.435Z" fill="#DAA7EE"/>
<path d="M126.489 237.954C125.958 237.855 125.58 237.365 125.629 236.816C125.683 236.233 126.198 235.804 126.782 235.857L148.668 237.858C149.246 237.917 149.68 238.428 149.626 239.011C149.573 239.594 149.058 240.024 148.474 239.97L126.588 237.969C126.555 237.965 126.522 237.961 126.489 237.954Z" fill="#DAA7EE"/>
<path d="M128.231 224.407C127.7 224.308 127.322 223.818 127.372 223.269C127.425 222.686 127.94 222.256 128.524 222.31L150.41 224.312C150.99 224.364 151.422 224.881 151.369 225.465C151.315 226.048 150.8 226.477 150.216 226.423L128.33 224.421C128.297 224.419 128.264 224.414 128.231 224.407Z" fill="#DAA7EE"/>
<path d="M122.473 258.067C121.942 257.967 121.563 257.478 121.614 256.928C121.667 256.345 122.183 255.916 122.766 255.969L166.538 259.973C167.119 260.022 167.55 260.542 167.496 261.126C167.443 261.709 166.927 262.138 166.344 262.084L122.572 258.081C122.539 258.078 122.506 258.073 122.473 258.067Z" fill="#DAA7EE"/>
<path d="M122.051 262.586C121.52 262.486 121.142 261.996 121.192 261.447C121.245 260.864 121.761 260.434 122.344 260.488L153.119 263.331C153.699 263.382 154.131 263.9 154.077 264.483C154.024 265.066 153.508 265.496 152.925 265.442L122.15 262.6C122.118 262.596 122.084 262.592 122.051 262.586Z" fill="#DAA7EE"/>
<path d="M121.418 267.103C120.887 267.004 120.509 266.514 120.559 265.965C120.612 265.382 121.128 264.953 121.711 265.006L143.597 267.007C144.176 267.065 144.61 267.577 144.556 268.16C144.503 268.743 143.987 269.173 143.404 269.119L121.518 267.118C121.484 267.114 121.451 267.11 121.418 267.103Z" fill="#DAA7EE"/>
<path d="M123.145 253.557C122.614 253.458 122.236 252.968 122.286 252.419C122.339 251.836 122.854 251.406 123.438 251.46L145.324 253.462C145.904 253.514 146.336 254.031 146.283 254.615C146.23 255.198 145.714 255.627 145.131 255.573L123.245 253.571C123.211 253.568 123.178 253.564 123.145 253.557Z" fill="#DAA7EE"/>
<path d="M106.828 222.05C109.528 223.747 111.93 225.731 113.574 228.634C117.389 225.633 120.831 222.912 125.628 221.028C120.603 224.742 116.322 229.156 112.953 234.097C111.965 229.962 109.846 225.671 106.828 222.05Z" fill="#E527BB"/>
<path d="M102.805 250.961C105.327 252.912 107.525 255.121 108.879 258.17C112.967 255.554 116.657 253.181 121.615 251.771C116.253 254.979 111.564 258.956 107.731 263.546C107.148 259.334 105.457 254.857 102.805 250.961Z" fill="#E527BB"/>
<path d="M122.452 203.096C122.523 203.293 122.739 203.396 122.937 203.325C123.135 203.255 123.238 203.038 123.168 202.841C123.097 202.644 122.88 202.541 122.682 202.611C122.485 202.681 122.381 202.898 122.452 203.096Z" fill="#B2114C"/>
<path d="M130.3 199.866C132.25 202.388 134.36 205.05 134.953 208.304C136.013 212.715 132.682 215.131 129.017 216.484C128.203 216.813 127.404 217.114 126.632 217.436C126.125 217.651 125.539 217.413 125.327 216.905C125.136 216.448 125.312 215.93 125.722 215.678C126.476 215.212 127.23 214.783 127.953 214.347C129.678 213.256 132.359 211.845 131.438 209.507C130.699 206.665 128.457 204.702 126.598 202.54C124.657 200.035 128.519 197.234 130.3 199.866Z" fill="#FABA97"/>
<path d="M134.629 206.273C136.347 211.894 133.955 214.911 131.352 216.234C130.002 216.921 128.815 217.201 127.984 217.311C127.212 217.414 126.749 217.371 126.749 217.371C126.826 216.166 125.961 215.588 125.961 215.588C125.941 215.269 126.152 214.901 126.494 214.509C127.618 213.217 129.687 211.942 129.872 210.556C130.116 208.733 129.852 206.453 127.904 204.428C125.288 201.708 125.496 199.42 125.496 199.42C125.496 199.42 125.595 198.339 127.164 197.936C128.96 197.474 132.609 199.668 134.629 206.273Z" fill="#A78BEF"/>
<path d="M127.165 197.936C127.165 197.936 127.431 198.822 126.608 199.222C125.786 199.623 126.175 200.549 125.168 200.652C124.161 200.755 123.986 199.797 123.059 200.384C122.06 201.017 121.472 200.114 121.72 199.576C121.967 199.038 121.139 199.231 121.393 198.46C121.393 198.46 122.251 197.82 122.894 198.243C122.894 198.243 123.062 199.083 123.676 199.139C124.079 199.176 125.089 198.555 125.624 198.075C125.623 198.074 126.426 197.646 127.165 197.936Z" fill="#B2114C"/>
<path d="M122.605 198.08C122.605 198.08 122.355 199.147 123.658 199.197C124.96 199.247 126.306 197.829 126.306 197.829L122.605 198.08Z" fill="#FABA97"/>
<path d="M118.409 289.293L118.383 293.434C118.38 293.907 118.742 294.292 119.192 294.295L152.947 294.517C153.396 294.52 153.763 294.139 153.767 293.667L153.793 289.526C153.796 289.053 153.434 288.668 152.985 288.665L119.229 288.443C118.78 288.44 118.412 288.82 118.409 289.293Z" fill="#FCD224"/>
<path d="M118.415 289.345L118.391 293.187L153.775 293.414L153.799 289.572L118.415 289.345Z" fill="#F4A61D"/>
<g opacity="0.8">
<path d="M150.486 289.553L150.461 293.394L151.481 293.401L151.506 289.559L150.486 289.553Z" fill="#F58023"/>
<path d="M147.197 289.531L147.172 293.372L148.192 293.379L148.217 289.538L147.197 289.531Z" fill="#F58023"/>
<path d="M143.9 289.509L143.875 293.35L144.895 293.357L144.92 289.516L143.9 289.509Z" fill="#F58023"/>
<path d="M140.603 289.488L140.578 293.329L141.598 293.336L141.624 289.495L140.603 289.488Z" fill="#F58023"/>
<path d="M137.306 289.466L137.281 293.308L138.301 293.314L138.327 289.473L137.306 289.466Z" fill="#F58023"/>
<path d="M134.01 289.445L133.984 293.286L135.005 293.293L135.03 289.451L134.01 289.445Z" fill="#F58023"/>
<path d="M130.713 289.423L130.688 293.265L131.708 293.271L131.733 289.43L130.713 289.423Z" fill="#F58023"/>
<path d="M127.424 289.402L127.398 293.243L128.419 293.25L128.444 289.409L127.424 289.402Z" fill="#F58023"/>
<path d="M124.127 289.38L124.102 293.221L125.122 293.228L125.147 289.387L124.127 289.38Z" fill="#F58023"/>
<path d="M120.83 289.358L120.805 293.199L121.825 293.206L121.85 289.365L120.83 289.358Z" fill="#F58023"/>
</g>
<path d="M113.573 283.409L113.547 287.55C113.544 288.023 113.907 288.408 114.356 288.411L148.111 288.633C148.56 288.636 148.927 288.255 148.931 287.783L148.957 283.642C148.96 283.17 148.598 282.784 148.149 282.781L114.394 282.559C113.944 282.556 113.576 282.937 113.573 283.409Z" fill="#FCD224"/>
<path d="M113.572 283.461L113.547 287.303L148.931 287.53L148.955 283.688L113.572 283.461Z" fill="#F4A61D"/>
<g opacity="0.8">
<path d="M145.658 283.669L145.633 287.51L146.653 287.517L146.678 283.676L145.658 283.669Z" fill="#F58023"/>
<path d="M142.361 283.647L142.336 287.489L143.356 287.495L143.381 283.654L142.361 283.647Z" fill="#F58023"/>
<path d="M139.064 283.626L139.039 287.467L140.059 287.474L140.084 283.632L139.064 283.626Z" fill="#F58023"/>
<path d="M135.767 283.605L135.742 287.446L136.762 287.453L136.788 283.611L135.767 283.605Z" fill="#F58023"/>
<path d="M132.471 283.583L132.445 287.424L133.465 287.431L133.491 283.59L132.471 283.583Z" fill="white"/>
<path d="M133.695 287.665L132.219 287.655L132.246 283.357L133.722 283.367L133.695 287.665ZM132.678 287.201L133.241 287.205L133.263 283.82L132.699 283.817L132.678 287.201Z" fill="black"/>
<path d="M129.181 283.561L129.156 287.402L130.176 287.409L130.202 283.568L129.181 283.561Z" fill="#F58023"/>
<path d="M125.877 283.54L125.852 287.381L126.872 287.388L126.897 283.546L125.877 283.54Z" fill="#F58023"/>
<path d="M122.58 283.518L122.555 287.359L123.575 287.366L123.6 283.525L122.58 283.518Z" fill="#F58023"/>
<path d="M119.291 283.496L119.266 287.337L120.286 287.344L120.311 283.503L119.291 283.496Z" fill="#F58023"/>
<path d="M115.994 283.474L115.969 287.316L116.989 287.322L117.014 283.481L115.994 283.474Z" fill="#F58023"/>
</g>
<g opacity="0.54">
<path d="M131.156 283.578L132.968 287.431L136.132 287.452L134.169 283.597L131.156 283.578Z" fill="white"/>
<path d="M136.499 287.683L132.817 287.659L130.789 283.347L134.303 283.37L136.499 287.683ZM133.107 287.204L135.751 287.222L134.022 283.825L131.51 283.808L133.107 287.204Z" fill="black"/>
<path d="M142.938 283.656L144.72 287.509L146.141 287.518L144.426 283.665L142.938 283.656Z" fill="#FFF45C"/>
<path d="M122.195 283.519L124.534 287.376L129.86 287.411L127.368 283.552L122.195 283.519Z" fill="#FFF45C"/>
</g>
<path d="M119.855 278.365L119.828 282.506C119.825 282.979 120.188 283.364 120.637 283.367L154.392 283.589C154.841 283.592 155.209 283.211 155.212 282.739L155.239 278.598C155.241 278.126 154.879 277.74 154.43 277.737L120.675 277.515C120.225 277.512 119.858 277.893 119.855 278.365Z" fill="#FCD224"/>
<path d="M119.853 278.417L119.828 282.259L155.212 282.486L155.237 278.644L119.853 278.417Z" fill="#F4A61D"/>
<g opacity="0.8">
<path d="M151.931 278.625L151.906 282.466L152.926 282.473L152.952 278.631L151.931 278.625Z" fill="#F58023"/>
<path d="M148.635 278.603L148.609 282.444L149.63 282.451L149.655 278.61L148.635 278.603Z" fill="#F58023"/>
<path d="M145.346 278.581L145.32 282.423L146.34 282.429L146.366 278.588L145.346 278.581Z" fill="#F58023"/>
<path d="M142.049 278.56L142.023 282.402L143.044 282.408L143.069 278.567L142.049 278.56Z" fill="#F58023"/>
<path d="M138.752 278.538L138.727 282.38L139.747 282.386L139.772 278.545L138.752 278.538Z" fill="#F58023"/>
<path d="M135.455 278.517L135.43 282.358L136.45 282.365L136.475 278.523L135.455 278.517Z" fill="#F58023"/>
<path d="M132.158 278.496L132.133 282.337L133.153 282.344L133.178 278.502L132.158 278.496Z" fill="#F58023"/>
<path d="M128.869 278.474L128.844 282.315L129.864 282.322L129.889 278.48L128.869 278.474Z" fill="#F58023"/>
<path d="M125.564 278.452L125.539 282.293L126.559 282.3L126.584 278.459L125.564 278.452Z" fill="#F58023"/>
<path d="M122.267 278.43L122.242 282.271L123.262 282.278L123.288 278.437L122.267 278.43Z" fill="#F58023"/>
</g>
<path d="M115.011 272.481L114.984 276.623C114.982 277.095 115.344 277.481 115.793 277.484L149.548 277.706C149.997 277.708 150.365 277.328 150.368 276.856L150.395 272.714C150.398 272.242 150.035 271.856 149.586 271.854L115.831 271.632C115.381 271.628 115.014 272.009 115.011 272.481Z" fill="#FCD224"/>
<path d="M115.017 272.533L114.992 276.375L150.376 276.602L150.401 272.76L115.017 272.533Z" fill="#F4A61D"/>
<path d="M147.103 272.741L147.078 276.583L148.098 276.589L148.124 272.748L147.103 272.741Z" fill="#F58023"/>
<path d="M143.799 272.72L143.773 276.561L144.794 276.567L144.819 272.726L143.799 272.72Z" fill="#F58023"/>
<path d="M140.502 272.698L140.477 276.539L141.497 276.546L141.522 272.705L140.502 272.698Z" fill="#F58023"/>
<path d="M137.213 272.677L137.188 276.518L138.208 276.525L138.233 272.683L137.213 272.677Z" fill="#F58023"/>
<path d="M133.916 272.655L133.891 276.496L134.911 276.503L134.936 272.662L133.916 272.655Z" fill="#F58023"/>
<path d="M130.619 272.633L130.594 276.474L131.614 276.481L131.639 272.64L130.619 272.633Z" fill="#F58023"/>
<path d="M127.322 272.611L127.297 276.452L128.317 276.459L128.342 272.618L127.322 272.611Z" fill="#F58023"/>
<path d="M124.025 272.59L124 276.431L125.02 276.438L125.045 272.597L124.025 272.59Z" fill="#F58023"/>
<path d="M120.736 272.569L120.711 276.41L121.731 276.417L121.756 272.575L120.736 272.569Z" fill="#F58023"/>
<path d="M117.439 272.547L117.414 276.388L118.434 276.395L118.46 272.553L117.439 272.547Z" fill="#F58023"/>
<g opacity="0.5">
<path d="M132.594 272.65L134.406 276.504L137.569 276.524L135.607 272.669L132.594 272.65Z" fill="#FFF45C"/>
<path d="M144.383 272.727L146.166 276.581L147.586 276.59L145.871 272.737L144.383 272.727Z" fill="#FFF45C"/>
<path d="M123.633 272.591L125.972 276.448L131.297 276.483L128.806 272.625L123.633 272.591Z" fill="#FFF45C"/>
</g>
<path d="M108.323 300.276L108.297 304.417C108.294 304.889 108.657 305.275 109.106 305.278L142.861 305.5C143.31 305.502 143.677 305.122 143.681 304.65L143.707 300.509C143.71 300.036 143.348 299.651 142.899 299.648L109.144 299.426C108.694 299.423 108.326 299.803 108.323 300.276Z" fill="#FCD224"/>
<path d="M108.329 300.328L108.305 304.17L143.689 304.397L143.713 300.555L108.329 300.328Z" fill="#F4A61D"/>
<g opacity="0.8">
<path d="M140.408 300.536L140.383 304.377L141.403 304.384L141.428 300.543L140.408 300.536Z" fill="#F58023"/>
<path d="M137.111 300.514L137.086 304.355L138.106 304.362L138.131 300.521L137.111 300.514Z" fill="#F58023"/>
<path d="M133.814 300.493L133.789 304.335L134.809 304.341L134.834 300.5L133.814 300.493Z" fill="#F58023"/>
<path d="M130.517 300.471L130.492 304.313L131.512 304.319L131.538 300.478L130.517 300.471Z" fill="#F58023"/>
<path d="M127.228 300.45L127.203 304.291L128.223 304.297L128.249 300.456L127.228 300.45Z" fill="#F58023"/>
<path d="M123.932 300.428L123.906 304.269L124.926 304.276L124.952 300.434L123.932 300.428Z" fill="#F58023"/>
<path d="M120.635 300.407L120.609 304.248L121.63 304.255L121.655 300.413L120.635 300.407Z" fill="#F58023"/>
<path d="M117.338 300.385L117.312 304.226L118.333 304.233L118.358 300.392L117.338 300.385Z" fill="#F58023"/>
<path d="M114.041 300.363L114.016 304.204L115.036 304.211L115.061 300.37L114.041 300.363Z" fill="#F58023"/>
<path d="M110.752 300.341L110.727 304.182L111.747 304.189L111.772 300.348L110.752 300.341Z" fill="#F58023"/>
</g>
<path d="M103.488 294.392L103.461 298.533C103.458 299.006 103.821 299.391 104.27 299.394L138.025 299.616C138.474 299.619 138.841 299.238 138.845 298.766L138.871 294.625C138.874 294.152 138.512 293.767 138.063 293.764L104.308 293.542C103.858 293.539 103.49 293.92 103.488 294.392Z" fill="#FCD224"/>
<path d="M103.493 294.444L103.469 298.286L138.853 298.513L138.877 294.671L103.493 294.444Z" fill="#F4A61D"/>
<g opacity="0.8">
<path d="M135.572 294.652L135.547 298.493L136.567 298.5L136.592 294.659L135.572 294.652Z" fill="#F58023"/>
<path d="M132.275 294.63L132.25 298.472L133.27 298.478L133.295 294.637L132.275 294.63Z" fill="#F58023"/>
<path d="M128.986 294.609L128.961 298.45L129.981 298.457L130.006 294.615L128.986 294.609Z" fill="#F58023"/>
<path d="M125.682 294.587L125.656 298.429L126.676 298.435L126.702 294.594L125.682 294.587Z" fill="#F58023"/>
<path d="M122.385 294.566L122.359 298.407L123.38 298.414L123.405 294.573L122.385 294.566Z" fill="#F58023"/>
<path d="M119.096 294.544L119.07 298.385L120.09 298.392L120.116 294.551L119.096 294.544Z" fill="#F58023"/>
<path d="M115.799 294.522L115.773 298.364L116.794 298.37L116.819 294.529L115.799 294.522Z" fill="#F58023"/>
<path d="M112.502 294.501L112.477 298.343L113.497 298.349L113.522 294.508L112.502 294.501Z" fill="#F58023"/>
<path d="M109.205 294.48L109.18 298.321L110.2 298.328L110.225 294.486L109.205 294.48Z" fill="#F58023"/>
<path d="M105.908 294.458L105.883 298.299L106.903 298.306L106.928 294.465L105.908 294.458Z" fill="#F58023"/>
</g>
<g opacity="0.3">
<path d="M121.07 294.56L122.883 298.414L126.046 298.435L124.083 294.58L121.07 294.56Z" fill="#FFF45C"/>
<path d="M132.852 294.638L134.634 298.492L136.055 298.501L134.34 294.648L132.852 294.638Z" fill="#FFF45C"/>
<path d="M112.117 294.501L114.456 298.359L119.782 298.394L117.29 294.536L112.117 294.501Z" fill="#FFF45C"/>
</g>
<path d="M128.245 279.272L125.63 282.457C125.332 282.821 125.371 283.351 125.716 283.642L151.675 305.489C152.021 305.78 152.544 305.721 152.842 305.358L155.457 302.173C155.755 301.81 155.716 301.279 155.37 300.988L129.412 279.142C129.066 278.85 128.543 278.909 128.245 279.272Z" fill="#FCD224"/>
<path d="M128.214 279.313L125.789 282.268L153 305.168L155.426 302.214L128.214 279.313Z" fill="#F4A61D"/>
<g opacity="0.8">
<path d="M150.461 303.032L151.245 303.692L153.67 300.738L152.886 300.078L150.461 303.032Z" fill="#F58023"/>
<path d="M147.93 300.899L148.714 301.559L151.139 298.605L150.355 297.945L147.93 300.899Z" fill="#F58023"/>
<path d="M145.398 298.766L146.183 299.426L148.607 296.472L147.823 295.812L145.398 298.766Z" fill="#F58023"/>
<path d="M142.859 296.633L143.644 297.293L146.069 294.339L145.285 293.679L142.859 296.633Z" fill="#F58023"/>
<path d="M140.32 294.5L141.105 295.16L143.529 292.206L142.745 291.546L140.32 294.5Z" fill="#F58023"/>
<path d="M137.789 292.367L138.573 293.027L140.999 290.073L140.214 289.413L137.789 292.367Z" fill="#F58023"/>
<path d="M135.258 290.233L136.042 290.894L138.467 287.94L137.683 287.28L135.258 290.233Z" fill="#F58023"/>
<path d="M132.719 288.1L133.503 288.761L135.928 285.807L135.143 285.146L132.719 288.1Z" fill="#F58023"/>
<path d="M130.188 285.967L130.972 286.627L133.397 283.673L132.613 283.013L130.188 285.967Z" fill="#F58023"/>
<path d="M127.648 283.834L128.433 284.494L130.858 281.54L130.074 280.88L127.648 283.834Z" fill="#F58023"/>
</g>
<g opacity="0.55">
<path d="M141.739 290.693L140.727 294.836L143.159 296.883L144.056 292.643L141.739 290.693Z" fill="#FFF45C"/>
<path d="M150.793 298.318L149.758 302.443L150.85 303.363L151.938 299.282L150.793 298.318Z" fill="#FFF45C"/>
<path d="M134.85 284.896L134.242 289.38L138.338 292.827L138.829 288.244L134.85 284.896Z" fill="#FFF45C"/>
</g>
<path d="M129.098 287.862C127.924 283.63 125.121 280.158 121.473 278.293C119.608 277.338 117.521 276.803 115.318 276.803C114.724 276.803 114.137 276.842 113.562 276.918C112.296 277.084 111.082 277.428 109.941 277.925C108.545 278.532 107.257 279.368 106.119 280.393C102.953 283.238 100.938 287.522 100.938 292.315C100.938 299.451 105.406 305.463 111.49 307.27C112.709 307.632 113.993 307.826 115.318 307.826C115.603 307.826 115.885 307.818 116.164 307.8C117.361 307.725 118.518 307.492 119.617 307.122C122.15 306.266 124.382 304.676 126.097 302.583C128.339 299.848 129.699 296.253 129.699 292.315C129.699 290.767 129.489 289.272 129.098 287.862ZM103.552 292.315C103.552 288.942 104.772 285.878 106.76 283.606C107.818 282.396 109.095 281.41 110.523 280.722H110.523C111.64 280.184 112.848 279.827 114.116 279.689C114.512 279.645 114.913 279.623 115.318 279.623C117.878 279.623 120.247 280.505 122.179 282.004C125.149 284.307 127.083 288.067 127.083 292.314C127.083 294.715 126.465 296.96 125.391 298.875C123.962 301.424 121.724 303.386 119.061 304.349C117.964 304.746 116.795 304.973 115.581 305.001C115.493 305.004 115.406 305.004 115.318 305.004C113.736 305.004 112.226 304.668 110.848 304.057C106.567 302.159 103.552 297.617 103.552 292.315Z" fill="#FCD224"/>
<path d="M103.547 292.315C103.547 299.323 108.815 305.005 115.313 305.005C121.811 305.005 127.079 299.323 127.079 292.315C127.079 285.306 121.811 279.624 115.313 279.624C108.815 279.624 103.547 285.306 103.547 292.315ZM104.078 292.315C104.078 288.87 105.502 285.784 107.749 283.704C108.483 283.023 109.306 282.451 110.195 282.009C110.925 281.646 111.7 281.371 112.509 281.195C113.183 281.049 113.88 280.972 114.594 280.972C115.979 280.972 117.302 281.261 118.513 281.786C122.379 283.462 125.11 287.544 125.11 292.315C125.11 295.791 123.66 298.902 121.377 300.982C119.995 302.242 118.307 303.124 116.451 303.48C115.848 303.597 115.227 303.657 114.594 303.657C114.291 303.657 113.994 303.643 113.698 303.616H113.697C112.821 303.536 111.976 303.341 111.175 303.044C107.046 301.514 104.078 297.288 104.078 292.315Z" fill="#F58023"/>
<path d="M104.086 292.315C104.086 297.288 107.054 301.514 111.183 303.045C111.984 303.342 112.829 303.538 113.705 303.617H113.706C114.001 303.644 114.299 303.658 114.602 303.658C115.235 303.658 115.856 303.598 116.459 303.482C118.315 303.125 120.003 302.243 121.385 300.983C123.668 298.903 125.118 295.791 125.118 292.316C125.118 287.546 122.387 283.464 118.521 281.788C117.31 281.263 115.987 280.974 114.602 280.974C113.888 280.974 113.191 281.051 112.517 281.196C111.708 281.372 110.933 281.647 110.203 282.011C109.314 282.452 108.491 283.025 107.757 283.705C105.51 285.783 104.086 288.87 104.086 292.315Z" fill="#FCD224"/>
<path d="M97.3984 292.295V292.315C97.3984 294.815 97.9344 297.18 98.8888 299.283C101.281 304.557 106.304 308.188 112.115 308.188C113.193 308.188 114.244 308.064 115.256 307.826C109.664 307.8 104.826 304.331 102.469 299.283C101.491 297.189 100.94 294.821 100.94 292.315V292.295C100.942 291.15 101.059 290.034 101.278 288.96C101.495 287.897 101.814 286.874 102.222 285.905C102.347 285.608 102.481 285.314 102.625 285.027C103.17 283.922 103.836 282.897 104.604 281.972C107.223 278.816 111.022 276.824 115.254 276.803C114.243 276.566 113.193 276.441 112.116 276.441C107.651 276.441 103.651 278.586 100.952 281.972C100.211 282.903 99.5675 283.927 99.04 285.027C98.9014 285.314 98.7713 285.607 98.6495 285.905C98.2514 286.876 97.9414 287.898 97.7294 288.96C97.5132 290.035 97.3998 291.15 97.3984 292.295Z" fill="#F4A61D"/>
<path d="M97.3984 292.295V292.315C97.3984 294.815 97.9344 297.18 98.8888 299.283H102.468C101.49 297.189 100.94 294.821 100.94 292.315V292.295H97.3984Z" fill="#FFDC48"/>
<path d="M97.7266 288.96H101.276C101.493 287.897 101.811 286.875 102.22 285.905H98.6467C98.2485 286.876 97.9379 287.898 97.7266 288.96Z" fill="#F58023"/>
<path d="M99.0312 285.027H102.617C103.162 283.922 103.828 282.897 104.596 281.972H100.944C100.202 282.903 99.5588 283.927 99.0312 285.027Z" fill="#FFDC48"/>
<path d="M115.314 305.005C113.732 305.005 112.222 304.669 110.844 304.058L111.486 307.27C112.705 307.632 113.989 307.826 115.314 307.826C115.598 307.826 115.88 307.818 116.16 307.8L115.577 305.002C115.49 305.004 115.402 305.005 115.314 305.005Z" fill="#FFDC48"/>
<path d="M106.117 280.393L106.76 283.606C107.817 282.396 109.094 281.41 110.522 280.722L109.939 277.925C108.543 278.532 107.256 279.368 106.117 280.393Z" fill="#FFDC48"/>
<path d="M119.062 304.349L119.619 307.121C122.152 306.265 124.384 304.676 126.099 302.582L125.393 298.875C123.963 301.424 121.725 303.386 119.062 304.349Z" fill="#FFDC48"/>
<path d="M113.562 276.918L114.118 279.69C114.513 279.646 114.914 279.624 115.319 279.624C117.88 279.624 120.249 280.506 122.181 282.005L121.474 278.292C119.609 277.338 117.522 276.803 115.319 276.803C114.725 276.804 114.138 276.842 113.562 276.918Z" fill="#FFDC48"/>
<path d="M112.516 281.195L116.457 303.481C118.313 303.125 120.001 302.242 121.383 300.983L118.518 281.786C117.308 281.261 115.985 280.972 114.599 280.972C113.886 280.972 113.19 281.049 112.516 281.195Z" fill="#FFDC48"/>
<path d="M107.758 283.704L111.184 303.045C111.985 303.342 112.83 303.538 113.706 303.617L110.203 282.01C109.315 282.451 108.492 283.023 107.758 283.704Z" fill="#FFDC48"/>
<path d="M114.077 298.259C113.589 298.222 113.155 298.142 112.776 298.02C112.395 297.898 112.063 297.763 111.777 297.616C111.492 297.469 111.26 297.322 111.082 297.175C110.903 297.028 110.772 296.918 110.689 296.844C110.606 296.759 110.549 296.679 110.52 296.605C110.49 296.532 110.517 296.428 110.6 296.293L111.296 295.191C111.367 295.069 111.459 295.004 111.572 294.998C111.685 294.992 111.831 295.069 112.009 295.228C112.282 295.461 112.597 295.668 112.954 295.852C113.311 296.036 113.685 296.159 114.077 296.22V292.637C113.661 292.465 113.245 292.269 112.829 292.049C112.412 291.829 112.035 291.562 111.697 291.25C111.358 290.938 111.082 290.564 110.867 290.129C110.653 289.694 110.546 289.171 110.546 288.558C110.546 288.117 110.614 287.697 110.751 287.299C110.888 286.901 111.102 286.546 111.394 286.234C111.685 285.921 112.053 285.661 112.499 285.453C112.945 285.245 113.471 285.116 114.077 285.067V284.479C114.077 284.381 114.11 284.299 114.175 284.231C114.24 284.164 114.32 284.131 114.416 284.131H114.647C114.742 284.131 114.823 284.165 114.888 284.231C114.953 284.299 114.986 284.382 114.986 284.479V285.086C115.378 285.123 115.749 285.194 116.1 285.297C116.451 285.401 116.763 285.518 117.037 285.646C117.31 285.775 117.539 285.898 117.723 286.014C117.907 286.131 118.041 286.219 118.124 286.28C118.219 286.342 118.276 286.434 118.293 286.556C118.311 286.679 118.291 286.789 118.231 286.886L117.518 287.952C117.363 288.173 117.197 288.222 117.019 288.099C116.769 287.928 116.471 287.744 116.127 287.548C115.782 287.352 115.401 287.205 114.986 287.107V290.469C115.378 290.641 115.791 290.84 116.225 291.066C116.659 291.293 117.057 291.572 117.419 291.903C117.782 292.234 118.085 292.622 118.329 293.069C118.573 293.516 118.694 294.041 118.694 294.64C118.694 295.645 118.376 296.481 117.741 297.148C117.105 297.816 116.186 298.187 114.986 298.26V300.171C114.986 300.269 114.95 300.349 114.879 300.41C114.807 300.471 114.724 300.501 114.629 300.501C114.522 300.501 114.403 300.486 114.272 300.455C114.141 300.424 114.076 300.329 114.076 300.17V298.259H114.077ZM114.077 287.106C113.625 287.168 113.286 287.321 113.06 287.565C112.834 287.81 112.722 288.11 112.722 288.466C112.722 288.833 112.834 289.136 113.06 289.376C113.286 289.614 113.625 289.856 114.077 290.101V287.106ZM114.986 296.256C115.39 296.207 115.72 296.073 115.975 295.852C116.231 295.631 116.359 295.313 116.359 294.897C116.359 294.542 116.252 294.204 116.038 293.886C115.823 293.568 115.473 293.279 114.986 293.022V296.256Z" fill="#F58023"/>
<rect x="114.719" y="194.625" width="23.6188" height="23.6188" fill="#FFF7F2"/>
<path d="M112.713 192.656L126.66 193.299L124.071 210.222L110.125 209.578L112.713 192.656ZM124.698 194.907L114.159 194.421L112.087 207.971L122.626 208.457L124.698 194.907Z" fill="#DAA7EE"/>
<path d="M110.969 196.303C113.669 198 116.071 199.984 117.715 202.887C121.529 199.886 124.972 197.165 129.769 195.281C124.744 198.995 120.463 203.409 117.094 208.35C116.106 204.215 113.987 199.924 110.969 196.303Z" fill="#E527BB"/>
<path d="M132.58 202.518C132.208 202.478 131.949 201.995 131.998 201.423C132.048 200.84 132.4 200.385 132.784 200.408L161.628 202.079C162.016 202.103 162.283 202.592 162.233 203.175C162.183 203.758 161.831 204.213 161.447 204.19L132.604 202.519C132.596 202.519 132.588 202.518 132.58 202.518Z" fill="#DAA7EE"/>
<path d="M132.19 207.062C131.818 207.022 131.558 206.539 131.608 205.967C131.657 205.384 132.009 204.929 132.393 204.952L161.237 206.623C161.63 206.649 161.892 207.136 161.842 207.719C161.793 208.302 161.441 208.757 161.057 208.734L132.213 207.063C132.205 207.063 132.197 207.062 132.19 207.062Z" fill="#DAA7EE"/>
<path d="M131.705 211.575C131.333 211.535 131.074 211.052 131.123 210.48C131.173 209.897 131.525 209.443 131.909 209.465L146.331 210.3C146.72 210.322 146.986 210.813 146.936 211.396C146.886 211.98 146.534 212.434 146.15 212.412L131.729 211.576C131.721 211.576 131.713 211.576 131.705 211.575Z" fill="#DAA7EE"/>
<path d="M133.143 198.047C132.771 198.008 132.511 197.525 132.561 196.953C132.61 196.369 132.962 195.915 133.347 195.938L147.768 196.773C148.159 196.798 148.423 197.286 148.373 197.869C148.324 198.453 147.972 198.907 147.588 198.884L133.166 198.049C133.158 198.049 133.151 198.048 133.143 198.047Z" fill="#DAA7EE"/>
<path d="M188.08 312.124C203.943 312.124 216.801 299.287 216.801 283.452C216.801 267.616 203.943 254.779 188.08 254.779C172.218 254.779 159.359 267.616 159.359 283.452C159.359 299.287 172.218 312.124 188.08 312.124Z" fill="#6363CE"/>
<path d="M188.071 309.51C202.487 309.51 214.173 297.843 214.173 283.451C214.173 269.06 202.487 257.393 188.071 257.393C173.655 257.393 161.969 269.06 161.969 283.451C161.969 297.843 173.655 309.51 188.071 309.51Z" fill="#A78BEF"/>
<path d="M188.08 306.851C201.025 306.851 211.519 296.375 211.519 283.451C211.519 270.528 201.025 260.051 188.08 260.051C175.135 260.051 164.641 270.528 164.641 283.451C164.641 296.375 175.135 306.851 188.08 306.851Z" fill="white"/>
<path d="M188.045 268.323C187.74 268.323 187.492 268.076 187.492 267.771V264.437C187.492 264.132 187.74 263.885 188.045 263.885C188.351 263.885 188.598 264.132 188.598 264.437V267.771C188.598 268.076 188.351 268.323 188.045 268.323Z" fill="#010190"/>
<path d="M188.108 303.018C187.802 303.018 187.555 302.771 187.555 302.466V299.844C187.555 299.539 187.802 299.292 188.108 299.292C188.413 299.292 188.661 299.539 188.661 299.844V302.466C188.661 302.771 188.413 303.018 188.108 303.018Z" fill="#010190"/>
<path d="M203.945 283.417C203.945 283.112 204.193 282.865 204.498 282.865H207.126C207.431 282.865 207.679 283.112 207.679 283.417C207.679 283.722 207.431 283.969 207.126 283.969H204.498C204.193 283.969 203.945 283.722 203.945 283.417Z" fill="#010190"/>
<path d="M168.477 283.486C168.477 283.181 168.724 282.934 169.03 282.934H173.483C173.789 282.934 174.036 283.181 174.036 283.486C174.036 283.791 173.789 284.038 173.483 284.038H169.03C168.724 284.038 168.477 283.791 168.477 283.486Z" fill="#010190"/>
<path d="M198.724 272.796L198.695 272.767C198.487 272.56 198.487 272.223 198.695 272.015L200.726 269.989C200.934 269.781 201.271 269.781 201.479 269.989L201.508 270.017C201.716 270.225 201.716 270.562 201.508 270.769L199.477 272.796C199.269 273.004 198.931 273.004 198.724 272.796Z" fill="#010190"/>
<path d="M174.653 296.931L174.625 296.902C174.417 296.695 174.417 296.358 174.625 296.15L176.596 294.202C176.804 293.995 177.141 293.995 177.349 294.202L177.378 294.231C177.586 294.438 177.586 294.775 177.378 294.983L175.407 296.931C175.199 297.138 174.861 297.138 174.653 296.931Z" fill="#010190"/>
<path d="M199.818 295.142C200.034 294.927 200.384 294.927 200.6 295.142L201.547 296.087C201.763 296.303 201.763 296.652 201.547 296.868C201.331 297.084 200.981 297.084 200.765 296.868L199.818 295.923C199.602 295.708 199.602 295.358 199.818 295.142Z" fill="#010190"/>
<path d="M174.57 270.066L174.599 270.037C174.807 269.83 175.144 269.83 175.352 270.037L177.147 271.853C177.354 272.06 177.354 272.397 177.147 272.605L177.118 272.634C176.91 272.841 176.573 272.841 176.364 272.634L174.57 270.818C174.362 270.611 174.362 270.274 174.57 270.066Z" fill="#010190"/>
<path d="M188.625 283.557C188.625 283.172 188.938 282.86 189.323 282.86H203.989C204.375 282.86 204.687 283.172 204.687 283.557C204.687 283.941 204.375 284.254 203.989 284.254H189.323C188.938 284.254 188.625 283.941 188.625 283.557Z" fill="#A78BEF"/>
<path d="M188.097 282.86C188.482 282.86 188.795 283.172 188.795 283.557V293.666C188.795 294.051 188.482 294.363 188.097 294.363C187.711 294.363 187.398 294.051 187.398 293.666V283.557C187.398 283.172 187.711 282.86 188.097 282.86Z" fill="#E527BB"/>
<path d="M188.153 283.561C188.102 283.561 188.052 283.541 188.016 283.5C187.948 283.424 187.954 283.309 188.03 283.241L198.505 273.829C198.581 273.761 198.697 273.766 198.766 273.842C198.834 273.918 198.827 274.034 198.752 274.101L188.276 283.514C188.241 283.546 188.197 283.561 188.153 283.561Z" fill="#373449"/>
<path d="M189.862 285.238C190.851 284.252 190.851 282.651 189.862 281.664C188.874 280.677 187.271 280.677 186.282 281.664C185.294 282.651 185.294 284.252 186.282 285.238C187.271 286.225 188.874 286.225 189.862 285.238Z" fill="#E527BB"/>
</g>
<defs>
<linearGradient id="paint0_linear_1514_5963" x1="411.243" y1="124.566" x2="407.482" y2="154.305" gradientUnits="userSpaceOnUse">
<stop stop-color="#09005D"/>
<stop offset="1" stop-color="#1A0F91"/>
</linearGradient>
<linearGradient id="paint1_linear_1514_5963" x1="381.042" y1="60.2364" x2="405.173" y2="60.2364" gradientUnits="userSpaceOnUse">
<stop stop-color="#DAE3FE"/>
<stop offset="1" stop-color="#E9EFFD"/>
</linearGradient>
<linearGradient id="paint2_linear_1514_5963" x1="371.978" y1="54.6232" x2="384.004" y2="54.6232" gradientUnits="userSpaceOnUse">
<stop stop-color="#DAE3FE"/>
<stop offset="1" stop-color="#E9EFFD"/>
</linearGradient>
<linearGradient id="paint3_linear_1514_5963" x1="401.289" y1="73.0641" x2="414.509" y2="73.0641" gradientUnits="userSpaceOnUse">
<stop stop-color="#DAE3FE"/>
<stop offset="1" stop-color="#E9EFFD"/>
</linearGradient>
<linearGradient id="paint4_linear_1514_5963" x1="346.903" y1="204.045" x2="341.32" y2="210.312" gradientUnits="userSpaceOnUse">
<stop stop-color="#FF928E"/>
<stop offset="1" stop-color="#FEB3B1"/>
</linearGradient>
<linearGradient id="paint5_linear_1514_5963" x1="350.345" y1="216.511" x2="354.498" y2="207.288" gradientUnits="userSpaceOnUse">
<stop stop-color="#FF928E"/>
<stop offset="1" stop-color="#FEB3B1"/>
</linearGradient>
<linearGradient id="paint6_linear_1514_5963" x1="350.133" y1="194.096" x2="358.562" y2="212.344" gradientUnits="userSpaceOnUse">
<stop stop-color="#FF928E"/>
<stop offset="1" stop-color="#FEB3B1"/>
</linearGradient>
<linearGradient id="paint7_linear_1514_5963" x1="354.101" y1="192.265" x2="362.53" y2="210.513" gradientUnits="userSpaceOnUse">
<stop stop-color="#FF928E"/>
<stop offset="1" stop-color="#FEB3B1"/>
</linearGradient>
<linearGradient id="paint8_linear_1514_5963" x1="338.615" y1="279.657" x2="360.645" y2="302.296" gradientUnits="userSpaceOnUse">
<stop stop-color="#FF928E"/>
<stop offset="1" stop-color="#FEB3B1"/>
</linearGradient>
<linearGradient id="paint9_linear_1514_5963" x1="394.789" y1="262.412" x2="382.634" y2="271.68" gradientUnits="userSpaceOnUse">
<stop stop-color="#FF928E"/>
<stop offset="1" stop-color="#FEB3B1"/>
</linearGradient>
<linearGradient id="paint10_linear_1514_5963" x1="383.855" y1="217.898" x2="377.702" y2="220.975" gradientUnits="userSpaceOnUse">
<stop stop-color="#FF928E"/>
<stop offset="1" stop-color="#FEB3B1"/>
</linearGradient>
<linearGradient id="paint11_linear_1514_5963" x1="331.918" y1="201.18" x2="336.468" y2="207.599" gradientUnits="userSpaceOnUse">
<stop stop-color="#FF928E"/>
<stop offset="1" stop-color="#FEB3B1"/>
</linearGradient>
<linearGradient id="paint12_linear_1514_5963" x1="331.821" y1="198.105" x2="331.993" y2="199.23" gradientUnits="userSpaceOnUse">
<stop stop-color="#8D55D1"/>
<stop offset="0.9964" stop-color="#1C2873"/>
</linearGradient>
<linearGradient id="paint13_linear_1514_5963" x1="342.314" y1="197.594" x2="332.514" y2="201.81" gradientUnits="userSpaceOnUse">
<stop stop-color="#FF928E"/>
<stop offset="1" stop-color="#FEB3B1"/>
</linearGradient>
<clipPath id="clip0_1514_5963">
<rect width="542.64" height="328.79" fill="white"/>
</clipPath>
</defs>
</svg>
