<svg width="543" height="329" viewBox="0 0 543 329" fill="none" xmlns="http://www.w3.org/2000/svg">
<g clip-path="url(#clip0_1224_4446)">
<path opacity="0.2" d="M128.492 325.584L413.142 308.934C488.412 304.534 546.652 240.734 543.512 165.394C540.872 102.084 518.192 34.6439 441.912 5.8239C388.262 -14.4461 318.592 2.1439 274.402 35.8539C263.782 43.9539 254.022 53.2439 242.612 60.1739C216.022 76.3239 192.672 65.1739 164.972 60.8839C106.412 51.7939 47.9621 70.4639 17.7021 124.434C-28.7579 207.354 26.0421 331.574 128.492 325.584Z" fill="#999999"/>
<g clip-path="url(#clip1_1224_4446)">
<g opacity="0.3">
<path d="M416.23 294.33V241.75H400.55V221.26H388.43V213.38H377.14V191.9H357.57V169.11L351.68 157.12V132H333.75V191.9H326.98V146.2H317.7V115.06H297.13V143.43H288.85V157.62H276.18V181.33H268.66V125.9H266.84V118.22H264.52V112.9H262.64V104.82H260.57V102.26H244.51V104.82H242.44V112.9H240.56V118.22H238.24V125.9H236.42V159.79H223.5V188.16H213.68V141.14H195.7V196.05H189.51V162.29H181.9V148.89H167.03V179.23H163.6V241.76H161.85V209.45H160.72V200.78H158.92V209.45H158.47V200.78H156.66V209.45H156.09V200.78H154.28V209.45H153.15V222.32H151.29V213.39H149.49V222.32H149.04V213.39H147.23V222.32H146.66V213.39H144.86V222.32H144.13V209.45H143V199.99H141.2V209.45H140.75V199.99H138.94V209.45H138.38V199.99H136.57V209.45H135.44V241.76H131.84V294.34H416.23V294.33ZM367.86 205.4C367.86 203.06 369.07 201.17 370.56 201.17C372.05 201.17 373.25 203.07 373.25 205.4V247.96C373.25 248.06 373.25 248.16 373.24 248.25H367.86C367.86 248.15 367.85 248.05 367.85 247.96V205.4H367.86ZM359.58 205.4C359.58 203.06 360.79 201.17 362.28 201.17C363.77 201.17 364.98 203.07 364.98 205.4V247.96C364.98 248.06 364.98 248.16 364.97 248.25H359.59C359.59 248.15 359.58 248.05 359.58 247.96V205.4ZM349.92 236.5H347.91V218.37H349.92V236.5ZM349.86 215.75H347.85V197.62H349.86V215.75ZM349.8 194.99H347.79V176.86H349.8V194.99ZM349.73 174.24H347.73V156.11H349.73V174.24ZM347.67 135.36H349.68V153.49H347.67V135.36ZM346.91 236.5H344.9V218.37H346.91V236.5ZM346.85 215.75H344.85V197.62H346.85V215.75ZM346.79 194.99H344.79V176.86H346.79V194.99ZM346.73 174.24H344.72V156.11H346.73V174.24ZM344.66 135.36H346.67V153.49H344.66V135.36ZM343.9 236.5H341.9V218.37H343.9V236.5ZM343.84 215.75H341.83V197.62H343.84V215.75ZM343.78 194.99H341.77V176.86H343.78V194.99ZM343.72 174.24H341.71V156.11H343.72V174.24ZM341.65 135.36H343.65V153.49H341.65V135.36ZM340.89 236.5H338.88V218.37H340.89V236.5ZM340.83 215.75H338.82V197.62H340.83V215.75ZM340.77 194.99H338.76V176.86H340.77V194.99ZM340.7 174.24H338.7V156.11H340.7V174.24ZM338.64 135.36H340.64V153.49H338.64V135.36ZM337.88 236.5H335.87V218.37H337.88V236.5ZM337.82 215.75H335.81V197.62H337.82V215.75ZM337.76 194.99H335.76V176.86H337.76V194.99ZM337.7 174.24H335.69V156.11H337.7V174.24ZM335.63 135.36H337.64V153.49H335.63V135.36ZM248.53 202.35H246.65V194.47H248.53V202.35ZM256.18 211.15H254.3V203.27H256.18V211.15ZM261.7 132.01H263.58V139.89H261.7V132.01ZM261.7 165.18H263.58V173.06H261.7V165.18ZM261.7 209.44H263.58V217.32H261.7V209.44ZM261.44 187.11V194.99H259.56V187.11H261.44ZM257.68 141.14H259.56V149.02H257.68V141.14ZM256.18 163.73H254.3V155.85H256.18V163.73ZM252.54 132.01H254.42V139.89H252.54V132.01ZM251.6 176.14H253.48V184.02H251.6V176.14ZM246.64 143.44H248.52V151.32H246.64V143.44ZM245.7 169.12H247.58V177H245.7V169.12ZM243.82 218.9H245.7V226.78H243.82V218.9ZM240.56 132.01H242.44V139.89H240.56V132.01ZM240.56 201.82H242.44V209.7H240.56V201.82ZM210.59 144.69H212.1V154.41H210.59V144.69ZM210.59 156.9H212.1V166.62H210.59V156.9ZM210.59 169.12H212.1V178.84H210.59V169.12ZM210.59 181.33H212.1V191.05H210.59V181.33ZM210.59 193.55H212.1V203.27H210.59V193.55ZM210.59 205.76H212.1V215.48H210.59V205.76ZM210.59 217.98H212.1V227.7H210.59V217.98ZM208.33 144.69H209.84V154.41H208.33V144.69ZM208.33 156.9H209.84V166.62H208.33V156.9ZM208.33 169.12H209.84V178.84H208.33V169.12ZM208.33 181.33H209.84V191.05H208.33V181.33ZM208.33 193.55H209.84V203.27H208.33V193.55ZM208.33 205.76H209.84V215.48H208.33V205.76ZM208.33 217.98H209.84V227.7H208.33V217.98ZM206.07 144.69H207.58V154.41H206.07V144.69ZM206.07 156.9H207.58V166.62H206.07V156.9ZM206.07 169.12H207.58V178.84H206.07V169.12ZM206.07 181.33H207.58V191.05H206.07V181.33ZM206.07 193.55H207.58V203.27H206.07V193.55ZM206.07 205.76H207.58V215.48H206.07V205.76ZM206.07 217.98H207.58V227.7H206.07V217.98ZM203.81 144.69H205.31V154.41H203.81V144.69ZM203.81 156.9H205.31V166.62H203.81V156.9ZM203.81 169.12H205.31V178.84H203.81V169.12ZM203.81 181.33H205.31V191.05H203.81V181.33ZM203.81 193.55H205.31V203.27H203.81V193.55ZM203.81 205.76H205.31V215.48H203.81V205.76ZM203.81 217.98H205.31V227.7H203.81V217.98ZM201.56 144.69H203.06V154.41H201.56V144.69ZM201.56 156.9H203.06V166.62H201.56V156.9ZM201.56 169.12H203.06V178.84H201.56V169.12ZM201.56 181.33H203.06V191.05H201.56V181.33ZM201.56 193.55H203.06V203.27H201.56V193.55ZM201.56 205.76H203.06V215.48H201.56V205.76ZM201.56 217.98H203.06V227.7H201.56V217.98ZM199.3 144.69H200.81V154.41H199.3V144.69ZM199.3 156.9H200.81V166.62H199.3V156.9ZM199.3 169.12H200.81V178.84H199.3V169.12ZM199.3 181.33H200.81V191.05H199.3V181.33ZM199.3 193.55H200.81V203.27H199.3V193.55ZM199.3 205.76H200.81V215.48H199.3V205.76ZM199.3 217.98H200.81V227.7H199.3V217.98ZM197.04 144.69H198.54V154.41H197.04V144.69ZM197.04 156.9H198.54V166.62H197.04V156.9ZM197.04 169.12H198.54V178.84H197.04V169.12ZM197.04 181.33H198.54V191.05H197.04V181.33ZM197.04 193.55H198.54V203.27H197.04V193.55ZM197.04 205.76H198.54V215.48H197.04V205.76ZM197.04 217.98H198.54V227.7H197.04V217.98Z" fill="#ECECEC"/>
</g>
<path d="M196.739 102.241V103.687H195.074V95.918V93.6982H192.199H186.649V90.1499H178.224V86.6016H165.36V83.9446H150.511V87.9301H138.974V85.4917H128.111V78.1765H107.494V85.4917H101.289V93.6982H99.7415H94.6292H91.9722H88.878V95.918H91.9722V103.687H82V106.798H87.0954V113.458H83.3285V115.896H87.0954V126.76H84.657V128.761H82V132.309H87.0954V148.941H84.4384V151.379H87.0954V163.134H84.4384V165.135H87.0954V174.67H84.5393V177.108H87.0954V188.863H84.5393V190.864H87.0954V200.399H84.657V202.838H87.0954V214.592H84.657V216.593H87.0954V218.477H84.7747V220.915H87.0954V240.322H84.7747V242.323H87.0954V248.764V251.858H84.8756V254.296H87.0954V266.051H84.8756V268.052H87.0954V274.375V277.032H84.4384V282.346H87.0954V295.648H88.8611V282.346H91.9554V295.648H94.6124V282.346H99.7078V295.648H105.695V282.346H118.341V295.648H120.779V282.346H124.327V295.648H127.203V282.346H140.841V295.648H152.932H155.808V282.346H181.537V295.648H184.43V282.346H192.199V295.648H195.074V282.346H196.739V294.202H198.74V102.241H196.739ZM118.357 274.325H105.711V268.002H118.357V274.325ZM181.554 115.879V126.743H169.799V122.757H165.36V119.209H155.825V115.879H181.554ZM196.739 163.117H195.074V151.362H196.739V163.117ZM196.739 188.829H195.074V177.075H196.739V188.829ZM192.199 188.829H184.43V177.075H192.199V188.829ZM196.739 214.559H195.074V202.804H196.739V214.559ZM192.199 214.559H184.43V202.804H192.199V214.559ZM196.739 240.271H195.074V220.865H196.739V240.271ZM192.199 240.271H187.103V234.503H184.43V220.865H192.199V240.271ZM140.858 261.124H127.22V254.246H140.858V261.124ZM130.112 95.9348H132.988V103.704H130.112V95.9348ZM129.002 103.687H127.237V95.918H129.002V103.687ZM132.988 106.798H134.989H152.949V113.458H140.858V109.472H127.22V106.815H132.988V106.798ZM163.594 106.798V107.908H160.483V106.798H163.594ZM160.483 103.687V95.918H163.594V103.687H160.483ZM159.541 107.908H158.044V113.441H155.825V106.781H159.541V107.908ZM152.949 132.292V135.622H137.427V139.826H132.988V148.924H127.22V132.292H152.949ZM138.302 190.831H140.858V200.366H138.302V190.831ZM152.949 151.362V155.129H151.402V151.362H152.949ZM152.949 165.118V172.215H149.401V165.118H152.949ZM155.825 202.804H161.593V214.559H155.825V202.804ZM161.593 200.366H155.825V190.831H161.593V200.366ZM155.825 184.625V177.091H161.593V184.625H155.825ZM155.825 174.653V172.215V165.118H158.044H160.483H161.593V174.653H155.825ZM155.825 155.129V151.362H158.044V155.129H155.825ZM169.799 145.594V139.826H163.594V135.622H155.825V132.292H173.785V145.594H169.799ZM149.401 151.362V155.129H140.858V163.117H136.317V158.509H127.22V151.362H149.401ZM142.741 165.118V172.215H140.858V174.653H137.427V169.104H129.002V174.653H127.237V165.118H142.741ZM140.858 177.075V188.829H138.302V178.185H136.301V188.829H133.98V182.624H130.112V188.829H129.002V185.449H127.237V177.075H140.858ZM129.002 190.831H136.317V200.366H134.266V196.38H127.22V190.831H129.002ZM140.858 202.804V206.134H127.22V202.804H140.858ZM127.22 216.56H140.858V218.443H127.22V216.56ZM140.858 220.882V240.288H137.427V234.52H127.22V220.882H140.858ZM140.858 242.272V245.821H127.22V242.272H140.858ZM155.825 233.191V220.882H161.593V233.191H155.825ZM155.825 218.443V216.56H161.593V218.443H155.825ZM163.039 216.56H181.554V218.443H163.039V216.56ZM176.223 214.559V206.134H165.78V214.559H163.039V202.804H181.554V214.559H176.223ZM169.244 200.366V194.379H163.039V190.831H181.554V200.366H169.244ZM181.554 181.077H175.012V188.846H173.802V184.625H163.039V177.091H181.554V181.077ZM163.039 174.653V165.118H181.554V174.653H163.039ZM178.224 160.813V155.129H160.483V151.362H181.554V160.813H178.224ZM184.43 145.594V132.292H192.199V148.924H188.432V145.594H184.43ZM181.554 145.594H176.223V132.292H181.554V145.594ZM145.415 119.209V122.757H137.427V126.743H127.22V115.879H152.949V119.209H145.415ZM124.344 115.879V126.743H120.796V115.879H124.344ZM124.344 132.292V142.264H120.796V132.292H124.344ZM124.344 151.362V158.509H120.796V151.362H124.344ZM124.344 165.118V174.653H120.796V165.118H124.344ZM124.344 177.075V185.449H120.796V177.075H124.344ZM124.344 190.831V196.38H120.796V190.831H124.344ZM124.344 202.804V214.559H120.796V202.804H124.344ZM124.344 216.56V218.443H120.796V216.56H124.344ZM124.344 220.882V234.52H120.796V220.882H124.344ZM124.344 242.272V245.821H120.796V242.272H124.344ZM124.344 254.246V261.124H120.796V254.246H124.344ZM155.825 254.246H161.593V261.124H155.825V254.246ZM155.825 251.807V242.272H161.593V251.807H155.825ZM163.039 233.191V220.882H181.554V234.52H176.223V240.288H170.674V233.191H163.039ZM184.43 218.443V216.56H192.199V218.443H184.43ZM184.43 200.366V190.831H192.199V200.366H184.43ZM184.43 174.653V165.118H192.199V174.653H184.43ZM189.76 163.117V160.813H184.43V151.362H192.199V163.117H189.76ZM196.739 148.924H195.074V132.292H196.739V148.924ZM166.806 107.908V106.798H168.689V107.908H166.806ZM166.806 103.687V95.918H168.689V103.687H166.806ZM159.541 95.9348V103.704H155.825V95.9348H159.541ZM152.949 99.2476H139.529V103.687H134.989V95.918H152.949V99.2476ZM124.344 95.9348V103.704H120.796V95.9348H124.344ZM124.344 106.798V109.455H120.796V106.798H124.344ZM118.357 115.879V126.743H105.711V115.879H118.357ZM118.357 132.292V142.264H109.714V148.924H105.728V132.292H118.357ZM118.357 151.362V158.509H109.714V163.117H105.728V151.362H118.357ZM118.357 165.118V174.653H105.711V165.118H118.357ZM118.357 177.075V185.449H110.824V188.829H105.728V177.075H118.357ZM110.807 190.831H118.341V196.38H109.697V200.366H105.711V190.831H110.807ZM118.357 202.804V214.559H105.711V202.804H118.357ZM118.357 216.56V218.443H105.711V216.56H118.357ZM118.357 220.882V234.52H105.711V220.882H118.357ZM118.357 242.272V245.821H105.711V242.272H118.357ZM118.357 254.246V261.124H105.711V254.246H118.357ZM163.039 261.124V254.246H181.554V261.124H163.039ZM163.039 251.807V242.272H176.24H181.571V251.807H163.039ZM184.43 242.272H187.087H192.182V251.807H184.43V242.272ZM195.074 242.272H196.739V251.807H195.074V242.272ZM195.074 218.443V216.56H196.739V218.443H195.074ZM195.074 200.366V190.831H196.739V200.366H195.074ZM195.074 174.653V165.118H196.739V174.653H195.074ZM196.739 126.743H195.074V115.879H196.739V126.743ZM192.199 126.743H184.43V115.879H192.199V126.743ZM186.649 113.441V107.908H184.43V106.798H192.199V113.458H186.649V113.441ZM181.554 107.908H173.785V113.441H170.909V107.908H169.799V106.798H181.554V107.908ZM169.799 103.687V95.918H181.554V103.687H169.799ZM118.357 95.9348V103.704H105.711V95.9348H118.357ZM118.357 106.798V109.455H111.698V113.441H105.711V106.781H118.357V106.798ZM99.7246 113.441H94.6292V106.781H99.7246V113.441ZM99.7246 115.879V126.743H94.6292V115.879H99.7246ZM99.7246 132.292V148.924H94.6292V132.292H99.7246ZM99.7246 151.362V159.787H94.6292V151.362H99.7246ZM99.7246 165.118V174.653H94.6292V165.118H99.7246ZM99.7246 177.075V188.829H94.6292V177.075H99.7246ZM99.7246 190.831V200.366H94.6292V190.831H99.7246ZM99.7246 202.804V214.559H94.6292V202.804H99.7246ZM99.7246 216.56V218.443H94.6292V216.56H99.7246ZM99.7246 220.882V234.52H94.6292V220.882H99.7246ZM99.7246 242.272V245.821H94.6292V242.272H99.7246ZM99.7246 254.246V261.124H94.6292V254.246H99.7246ZM99.7246 268.002V274.325H94.6292V268.002H99.7246ZM184.43 261.124V254.246H192.199V266.001H188.432V261.124H184.43ZM195.074 254.246H196.739V266.001H195.074V254.246ZM196.739 106.798V113.458H195.074V106.798H196.739ZM192.199 103.687H184.43V95.918H192.199V103.687ZM94.6292 95.9348H99.7246V103.704H94.6292V95.9348ZM88.8611 106.798H91.9554V113.458H88.8611V106.798ZM88.8611 115.879H91.9554V126.743H88.8611V115.879ZM88.8611 132.292H91.9554V148.924H88.8611V132.292ZM88.8611 151.362H91.9554V163.117H88.8611V151.362ZM88.8611 165.118H91.9554V174.653H88.8611V165.118ZM88.8611 177.075H91.9554V188.829H88.8611V177.075ZM88.8611 190.831H91.9554V200.366H88.8611V190.831ZM88.8611 202.804H91.9554V214.559H88.8611V202.804ZM88.8611 216.56H91.9554V218.443H88.8611V216.56ZM91.9722 220.882V234.52H88.878V220.882H91.9722ZM88.8611 242.272H91.9554V245.821H89.7524V248.713H88.8611V242.272ZM91.9722 254.246V261.124H88.878V254.246H91.9722ZM88.8611 268.002H91.9554V274.325H88.8611V268.002ZM120.796 276.982V268.002H124.344V276.982H120.796ZM137.427 276.982V272.979H132.046V276.982H127.22V268.002H140.858V276.982H137.427ZM155.825 276.982V268.002H159.541V276.982H155.825ZM170.69 276.982V268.002H181.554V272.492H175.012V276.982H170.69ZM184.43 276.982V268.002H192.199V276.982H184.43ZM195.074 276.982V268.002H196.739V276.982H195.074Z" fill="#DCDCDC"/>
<path d="M315.136 109.674H209.629V291.881H315.136V109.674Z" fill="#CEC9C9"/>
<path d="M242.301 117.998H216.387V139.17H242.301V117.998Z" fill="#DCDCDC"/>
<path d="M275.348 117.998H249.434V139.17H275.348V117.998Z" fill="#DCDCDC"/>
<path d="M308.354 117.998H282.457V139.17H308.354V117.998Z" fill="#DCDCDC"/>
<path d="M242.301 149.68H216.387V170.852H242.301V149.68Z" fill="#DCDCDC"/>
<path d="M275.348 149.68H249.434V170.852H275.348V149.68Z" fill="#DCDCDC"/>
<path d="M308.354 149.68H282.457V170.852H308.354V149.68Z" fill="#DCDCDC"/>
<path d="M242.301 181.345H216.387V202.517H242.301V181.345Z" fill="#DCDCDC"/>
<path d="M275.348 181.345H249.434V202.517H275.348V181.345Z" fill="#DCDCDC"/>
<path d="M308.354 181.345H282.457V202.517H308.354V181.345Z" fill="#DCDCDC"/>
<path d="M242.301 213.028H216.387V234.2H242.301V213.028Z" fill="#DCDCDC"/>
<path d="M275.348 213.028H249.434V234.2H275.348V213.028Z" fill="#DCDCDC"/>
<path d="M308.354 213.028H282.457V234.2H308.354V213.028Z" fill="#DCDCDC"/>
<path d="M242.301 244.694H216.387V265.866H242.301V244.694Z" fill="#DCDCDC"/>
<path d="M275.348 244.694H249.434V265.866H275.348V244.694Z" fill="#DCDCDC"/>
<path d="M308.354 244.694H282.457V265.866H308.354V244.694Z" fill="#DCDCDC"/>
<path d="M369.972 109.674H315.133V291.881H369.972V109.674Z" fill="#CEC9C9"/>
<path d="M332.118 117.998H318.648V139.17H332.118V117.998Z" fill="#DCDCDC"/>
<path d="M349.29 117.998H335.82V139.17H349.29V117.998Z" fill="#DCDCDC"/>
<path d="M366.445 117.998H352.992V139.17H366.445V117.998Z" fill="#DCDCDC"/>
<path d="M332.118 149.68H318.648V170.852H332.118V149.68Z" fill="#DCDCDC"/>
<path d="M349.29 149.68H335.82V170.852H349.29V149.68Z" fill="#DCDCDC"/>
<path d="M366.445 149.68H352.992V170.852H366.445V149.68Z" fill="#DCDCDC"/>
<path d="M332.118 181.345H318.648V202.517H332.118V181.345Z" fill="#DCDCDC"/>
<path d="M349.29 181.345H335.82V202.517H349.29V181.345Z" fill="#DCDCDC"/>
<path d="M366.445 181.345H352.992V202.517H366.445V181.345Z" fill="#DCDCDC"/>
<path d="M332.118 213.028H318.648V234.2H332.118V213.028Z" fill="#DCDCDC"/>
<path d="M349.29 213.028H335.82V234.2H349.29V213.028Z" fill="#DCDCDC"/>
<path d="M366.445 213.028H352.992V234.2H366.445V213.028Z" fill="#DCDCDC"/>
<path d="M332.118 244.694H318.648V265.866H332.118V244.694Z" fill="#DCDCDC"/>
<path d="M349.29 244.694H335.82V265.866H349.29V244.694Z" fill="#DCDCDC"/>
<path d="M366.445 244.694H352.992V265.866H366.445V244.694Z" fill="#DCDCDC"/>
<path d="M318.65 85.3066H314.379V109.674H318.65V85.3066Z" fill="#DCDCDC"/>
<path d="M335.632 85.3066H332.117V109.674H335.632V85.3066Z" fill="#DCDCDC"/>
<path d="M352.605 85.3066H349.09V109.674H352.605V85.3066Z" fill="#DCDCDC"/>
<path d="M369.585 85.3066H366.07V109.674H369.585V85.3066Z" fill="#DCDCDC"/>
<path d="M332.1 117.998H329.359V139.17H332.1V117.998Z" fill="#DCDCDC"/>
<path d="M332.118 117.998H318.648V120.167H332.118V117.998Z" fill="#DCDCDC"/>
<path d="M349.276 117.998H346.535V139.17H349.276V117.998Z" fill="#DCDCDC"/>
<path d="M349.29 117.998H335.82V120.167H349.29V117.998Z" fill="#DCDCDC"/>
<path d="M366.444 117.998H363.703V139.17H366.444V117.998Z" fill="#DCDCDC"/>
<path d="M366.445 117.998H352.992V120.167H366.445V117.998Z" fill="#DCDCDC"/>
<path d="M366.444 149.68H363.703V170.852H366.444V149.68Z" fill="#DCDCDC"/>
<path d="M366.445 149.68H352.992V151.849H366.445V149.68Z" fill="#DCDCDC"/>
<path d="M349.276 149.68H346.535V170.852H349.276V149.68Z" fill="#DCDCDC"/>
<path d="M349.29 149.68H335.82V151.849H349.29V149.68Z" fill="#DCDCDC"/>
<path d="M332.1 149.68H329.359V170.852H332.1V149.68Z" fill="#DCDCDC"/>
<path d="M332.118 149.68H318.648V151.849H332.118V149.68Z" fill="#DCDCDC"/>
<path d="M332.1 181.346H329.359V202.518H332.1V181.346Z" fill="#DCDCDC"/>
<path d="M332.118 181.346H318.648V183.515H332.118V181.346Z" fill="#DCDCDC"/>
<path d="M349.276 181.346H346.535V202.518H349.276V181.346Z" fill="#DCDCDC"/>
<path d="M349.29 181.346H335.82V183.515H349.29V181.346Z" fill="#DCDCDC"/>
<path d="M366.444 181.346H363.703V202.518H366.444V181.346Z" fill="#DCDCDC"/>
<path d="M366.445 181.346H352.992V183.515H366.445V181.346Z" fill="#DCDCDC"/>
<path d="M366.444 213.028H363.703V234.2H366.444V213.028Z" fill="#DCDCDC"/>
<path d="M366.445 213.028H352.992V215.197H366.445V213.028Z" fill="#DCDCDC"/>
<path d="M366.444 244.694H363.703V265.866H366.444V244.694Z" fill="#DCDCDC"/>
<path d="M366.445 244.694H352.992V246.863H366.445V244.694Z" fill="#DCDCDC"/>
<path d="M349.276 244.694H346.535V265.866H349.276V244.694Z" fill="#DCDCDC"/>
<path d="M349.29 244.694H335.82V246.863H349.29V244.694Z" fill="#DCDCDC"/>
<path d="M332.1 244.694H329.359V265.866H332.1V244.694Z" fill="#DCDCDC"/>
<path d="M332.118 244.694H318.648V246.863H332.118V244.694Z" fill="#DCDCDC"/>
<path d="M332.1 213.028H329.359V234.2H332.1V213.028Z" fill="#DCDCDC"/>
<path d="M332.118 213.028H318.648V215.197H332.118V213.028Z" fill="#DCDCDC"/>
<path d="M349.276 213.028H346.535V234.2H349.276V213.028Z" fill="#DCDCDC"/>
<path d="M349.29 213.028H335.82V215.197H349.29V213.028Z" fill="#DCDCDC"/>
<path d="M369.584 85.3066H332.117V87.3751H369.584V85.3066Z" fill="#DCDCDC"/>
<path d="M349.09 64.0332V87.3745H369.572V64.0332H349.09ZM366.075 84.8521H352.605V66.5389H366.075V84.8521Z" fill="#DCDCDC"/>
<path d="M191.953 145.829H104.625V296.64H191.953V145.829Z" fill="#ECECEC"/>
<path d="M131.664 152.724H110.223V170.247H131.664V152.724Z" fill="#DCDCDC"/>
<path d="M159.011 152.724H137.57V170.247H159.011V152.724Z" fill="#DCDCDC"/>
<path d="M186.367 152.724H164.926V170.247H186.367V152.724Z" fill="#DCDCDC"/>
<path d="M131.664 178.941H110.223V196.464H131.664V178.941Z" fill="#DCDCDC"/>
<path d="M159.011 178.941H137.57V196.464H159.011V178.941Z" fill="#DCDCDC"/>
<path d="M186.367 178.941H164.926V196.464H186.367V178.941Z" fill="#DCDCDC"/>
<path d="M131.664 205.158H110.223V222.681H131.664V205.158Z" fill="#DCDCDC"/>
<path d="M159.011 205.158H137.57V222.681H159.011V205.158Z" fill="#DCDCDC"/>
<path d="M186.367 205.158H164.926V222.681H186.367V205.158Z" fill="#DCDCDC"/>
<path d="M131.664 231.358H110.223V248.881H131.664V231.358Z" fill="#DCDCDC"/>
<path d="M159.011 231.358H137.57V248.881H159.011V231.358Z" fill="#DCDCDC"/>
<path d="M186.367 231.358H164.926V248.881H186.367V231.358Z" fill="#DCDCDC"/>
<path d="M131.664 257.575H110.223V275.098H131.664V257.575Z" fill="#DCDCDC"/>
<path d="M159.011 257.575H137.57V275.098H159.011V257.575Z" fill="#DCDCDC"/>
<path d="M186.367 257.575H164.926V275.098H186.367V257.575Z" fill="#DCDCDC"/>
<path d="M110.225 134.343H104.625V145.829H110.225V134.343Z" fill="#ECECEC"/>
<path d="M137.264 134.343H131.664V145.829H137.264V134.343Z" fill="#ECECEC"/>
<path d="M164.307 134.343H158.707V145.829H164.307V134.343Z" fill="#ECECEC"/>
<path d="M191.346 134.343H185.746V145.829H191.346V134.343Z" fill="#ECECEC"/>
<path d="M237.337 145.829H191.949V296.64H237.337V145.829Z" fill="#ECECEC"/>
<path d="M206.017 152.724H194.867V170.247H206.017V152.724Z" fill="#DCDCDC"/>
<path d="M220.224 152.724H209.074V170.247H220.224V152.724Z" fill="#DCDCDC"/>
<path d="M234.431 152.724H223.281V170.247H234.431V152.724Z" fill="#DCDCDC"/>
<path d="M206.017 178.941H194.867V196.464H206.017V178.941Z" fill="#DCDCDC"/>
<path d="M220.224 178.941H209.074V196.464H220.224V178.941Z" fill="#ECECEC"/>
<path d="M234.431 178.941H223.281V196.464H234.431V178.941Z" fill="#DCDCDC"/>
<path d="M206.017 205.158H194.867V222.681H206.017V205.158Z" fill="#ECECEC"/>
<path d="M220.224 205.158H209.074V222.681H220.224V205.158Z" fill="#ECECEC"/>
<path d="M234.431 205.158H223.281V222.681H234.431V205.158Z" fill="#ECECEC"/>
<path d="M206.017 231.358H194.867V248.881H206.017V231.358Z" fill="#ECECEC"/>
<path d="M220.224 231.358H209.074V248.881H220.224V231.358Z" fill="#ECECEC"/>
<path d="M234.431 231.358H223.281V248.881H234.431V231.358Z" fill="#ECECEC"/>
<path d="M206.017 257.575H194.867V275.098H206.017V257.575Z" fill="#ECECEC"/>
<path d="M220.224 257.575H209.074V275.098H220.224V257.575Z" fill="#ECECEC"/>
<path d="M234.431 257.575H223.281V275.098H234.431V257.575Z" fill="#ECECEC"/>
<path d="M194.864 134.343H191.332V145.829H194.864V134.343Z" fill="#ECECEC"/>
<path d="M208.917 134.343H206.008V145.829H208.917V134.343Z" fill="#ECECEC"/>
<path d="M222.956 134.343H220.047V145.829H222.956V134.343Z" fill="#ECECEC"/>
<path d="M237.019 134.343H234.109V145.829H237.019V134.343Z" fill="#ECECEC"/>
<path d="M206.016 152.724H203.746V170.246H206.016V152.724Z" fill="#ECECEC"/>
<path d="M206.017 152.724H194.867V154.523H206.017V152.724Z" fill="#ECECEC"/>
<path d="M220.223 152.724H217.953V170.246H220.223V152.724Z" fill="#DCDCDC"/>
<path d="M220.224 152.724H209.074V154.523H220.224V152.724Z" fill="#ECECEC"/>
<path d="M234.43 152.724H232.16V170.246H234.43V152.724Z" fill="#DCDCDC"/>
<path d="M234.431 152.724H223.281V154.523H234.431V152.724Z" fill="#ECECEC"/>
<path d="M234.43 178.941H232.16V196.464H234.43V178.941Z" fill="#ECECEC"/>
<path d="M234.431 178.941H223.281V180.74H234.431V178.941Z" fill="#DCDCDC"/>
<path d="M220.223 178.941H217.953V196.464H220.223V178.941Z" fill="#DCDCDC"/>
<path d="M220.224 178.941H209.074V180.74H220.224V178.941Z" fill="#ECECEC"/>
<path d="M206.016 178.941H203.746V196.464H206.016V178.941Z" fill="#ECECEC"/>
<path d="M206.017 178.941H194.867V180.74H206.017V178.941Z" fill="#ECECEC"/>
<path d="M206.016 205.158H203.746V222.681H206.016V205.158Z" fill="#ECECEC"/>
<path d="M206.017 205.158H194.867V206.958H206.017V205.158Z" fill="#ECECEC"/>
<path d="M220.223 205.158H217.953V222.681H220.223V205.158Z" fill="#ECECEC"/>
<path d="M220.224 205.158H209.074V206.958H220.224V205.158Z" fill="#ECECEC"/>
<path d="M234.43 205.158H232.16V222.681H234.43V205.158Z" fill="#ECECEC"/>
<path d="M234.431 205.158H223.281V206.958H234.431V205.158Z" fill="#ECECEC"/>
<path d="M234.43 231.358H232.16V248.881H234.43V231.358Z" fill="#ECECEC"/>
<path d="M234.431 231.358H223.281V233.158H234.431V231.358Z" fill="#ECECEC"/>
<path d="M234.43 257.575H232.16V275.098H234.43V257.575Z" fill="#ECECEC"/>
<path d="M234.431 257.575H223.281V259.374H234.431V257.575Z" fill="#ECECEC"/>
<path d="M220.223 257.575H217.953V275.098H220.223V257.575Z" fill="#ECECEC"/>
<path d="M220.224 257.575H209.074V259.374H220.224V257.575Z" fill="#ECECEC"/>
<path d="M206.016 257.575H203.746V275.098H206.016V257.575Z" fill="#ECECEC"/>
<path d="M206.017 257.575H194.867V259.374H206.017V257.575Z" fill="#ECECEC"/>
<path d="M206.016 231.358H203.746V248.881H206.016V231.358Z" fill="#ECECEC"/>
<path d="M206.017 231.358H194.867V233.158H206.017V231.358Z" fill="#ECECEC"/>
<path d="M220.223 231.358H217.953V248.881H220.223V231.358Z" fill="#ECECEC"/>
<path d="M220.224 231.358H209.074V233.158H220.224V231.358Z" fill="#ECECEC"/>
<path d="M258.411 114.66C258.411 115.77 257.511 116.67 256.401 116.67C255.291 116.67 254.391 115.77 254.391 114.66C254.391 113.55 255.291 112.65 256.401 112.65C257.511 112.65 258.411 113.55 258.411 114.66Z" fill="#E527BB"/>
<path d="M257.692 114.66C257.692 115.77 256.792 116.67 255.682 116.67C254.572 116.67 253.672 115.77 253.672 114.66C253.672 113.55 254.572 112.65 255.682 112.65C256.792 112.65 257.692 113.55 257.692 114.66Z" fill="#E527BB"/>
<path d="M261.813 108.55H255.703V113.18H261.813V108.55Z" fill="#E527BB"/>
<path d="M255.961 75.02V103.96" stroke="#000B1B" stroke-width="0.5239" stroke-miterlimit="10"/>
<path d="M255.891 76.1499L261.621 103.96" stroke="#000B1B" stroke-width="0.5239" stroke-miterlimit="10"/>
<path d="M255.892 76.1499L250.602 103.96" stroke="#000B1B" stroke-width="0.5239" stroke-miterlimit="10"/>
<path d="M258.742 64.5399L374.402 22.1899" stroke="#000B1B" stroke-width="0.5239" stroke-miterlimit="10"/>
<path d="M373.872 22.1899L290.172 63.1899" stroke="#000B1B" stroke-width="0.5239" stroke-miterlimit="10"/>
<path d="M377.672 22.1899L412.292 63.1899" stroke="#000B1B" stroke-width="0.5239" stroke-miterlimit="10"/>
<path d="M373.87 22.1899L339.25 63.1899" stroke="#000B1B" stroke-width="0.5239" stroke-miterlimit="10"/>
<path d="M417.92 65.6699H406.66V68.9199H417.92V65.6699Z" fill="#E527BB"/>
<path d="M414.662 65.6699H403.402V68.9199H414.662V65.6699Z" fill="#E527BB"/>
<path d="M383.43 71.96H368.41V73.47H383.43V71.96Z" fill="#E527BB"/>
<path d="M383.43 85.6399H368.41V87.1499H383.43V85.6399Z" fill="#E527BB"/>
<path d="M383.43 96.8799H368.41V98.3899H383.43V96.8799Z" fill="#E527BB"/>
<path d="M384.301 65.6699H382.551V106.19H384.301V65.6699Z" fill="#E527BB"/>
<path d="M382.976 66.4996L376.16 72.438L377.08 73.4936L383.896 67.5552L382.976 66.4996Z" fill="#E527BB"/>
<path d="M377.111 72.4717L376.121 73.4617L382.669 80.0094L383.659 79.0195L377.111 72.4717Z" fill="#E527BB"/>
<path d="M382.958 79.002L376.152 84.9365L377.072 85.9917L383.878 80.0572L382.958 79.002Z" fill="#E527BB"/>
<path d="M377.111 84.9607L376.121 85.9507L382.669 92.4984L383.659 91.5085L377.111 84.9607Z" fill="#E527BB"/>
<path d="M382.966 91.4727L376.152 97.4138L377.072 98.469L383.886 92.5279L382.966 91.4727Z" fill="#E527BB"/>
<path d="M377.107 97.4405L376.117 98.4304L382.665 104.978L383.655 103.988L377.107 97.4405Z" fill="#E527BB"/>
<path d="M382.53 106.19L383.88 105.01L382.97 103.96L380.41 106.19H382.53Z" fill="#C27028"/>
<path d="M376.621 65.6699H374.871V106.19H376.621V65.6699Z" fill="#E527BB"/>
<path d="M369.281 65.6699H367.531V106.19H369.281V65.6699Z" fill="#E527BB"/>
<path d="M368.869 66.5487L367.949 67.604L374.764 73.5442L375.684 72.4889L368.869 66.5487Z" fill="#E527BB"/>
<path d="M374.722 72.5173L368.172 79.0623L369.161 80.0526L375.712 73.5076L374.722 72.5173Z" fill="#E527BB"/>
<path d="M368.869 79.0374L367.949 80.0928L374.764 86.033L375.684 84.9776L368.869 79.0374Z" fill="#E527BB"/>
<path d="M374.727 85.0204L368.176 91.5645L369.165 92.555L375.717 86.0109L374.727 85.0204Z" fill="#F79841"/>
<path d="M368.865 91.5199L367.945 92.5752L374.76 98.5154L375.68 97.46L368.865 91.5199Z" fill="#F79841"/>
<path d="M374.731 97.5097L368.18 104.054L369.169 105.044L375.721 98.5002L374.731 97.5097Z" fill="#F79841"/>
<path d="M371.373 106.19L368.873 104L367.953 105.06L369.253 106.19H371.373Z" fill="#F79841"/>
<path d="M383.43 113.17H368.41V114.68H383.43V113.17Z" fill="#E527BB"/>
<path d="M383.43 126.85H368.41V128.36H383.43V126.85Z" fill="#E527BB"/>
<path d="M383.43 138.09H368.41V139.6H383.43V138.09Z" fill="#E527BB"/>
<path d="M383.43 150.72H368.41V152.23H383.43V150.72Z" fill="#E527BB"/>
<path d="M383.43 163.67H368.41V165.18H383.43V163.67Z" fill="#E527BB"/>
<path d="M383.43 176.13H368.41V177.65H383.43V176.13Z" fill="#E527BB"/>
<path d="M383.43 188.59H368.41V190.1H383.43V188.59Z" fill="#E527BB"/>
<path d="M383.43 200.7H368.41V202.21H383.43V200.7Z" fill="#E527BB"/>
<path d="M383.43 213.33H368.41V214.84H383.43V213.33Z" fill="#E527BB"/>
<path d="M383.43 225.61H368.41V227.12H383.43V225.61Z" fill="#E527BB"/>
<path d="M383.43 238.07H368.41V239.58H383.43V238.07Z" fill="#E527BB"/>
<path d="M383.25 250.77H368.23V252.28H383.25V250.77Z" fill="#E527BB"/>
<path d="M383.082 263.47H368.062V264.98H383.082V263.47Z" fill="#E527BB"/>
<path d="M382.903 276.17H367.883V277.68H382.903V276.17Z" fill="#E527BB"/>
<path d="M382.731 288.87H367.711V290.38H382.731V288.87Z" fill="#E527BB"/>
<path d="M384.301 106.89H382.551V296.89H384.301V106.89Z" fill="#E527BB"/>
<path d="M383.429 108.24L376.609 114.18" stroke="#E527BB" stroke-width="1.3971" stroke-miterlimit="10"/>
<path d="M376.609 114.18L383.159 120.73" stroke="#E527BB" stroke-width="1.3971" stroke-miterlimit="10"/>
<path d="M383.429 120.73L376.609 126.67" stroke="#E527BB" stroke-width="1.3971" stroke-miterlimit="10"/>
<path d="M376.609 126.67L383.159 133.21" stroke="#E527BB" stroke-width="1.3971" stroke-miterlimit="10"/>
<path d="M383.429 133.21L376.609 139.15" stroke="#E527BB" stroke-width="1.3971" stroke-miterlimit="10"/>
<path d="M376.609 139.15L383.159 145.7" stroke="#E527BB" stroke-width="1.3971" stroke-miterlimit="10"/>
<path d="M383.429 145.7L376.609 151.64" stroke="#E527BB" stroke-width="1.3971" stroke-miterlimit="10"/>
<path d="M376.609 151.64L383.159 158.19" stroke="#E527BB" stroke-width="1.3971" stroke-miterlimit="10"/>
<path d="M383.429 158.19L376.609 164.12" stroke="#E527BB" stroke-width="1.3971" stroke-miterlimit="10"/>
<path d="M376.609 164.12L383.159 170.67" stroke="#E527BB" stroke-width="1.3971" stroke-miterlimit="10"/>
<path d="M383.429 170.67L376.609 176.61" stroke="#E527BB" stroke-width="1.3971" stroke-miterlimit="10"/>
<path d="M376.609 176.61L383.159 183.16" stroke="#E527BB" stroke-width="1.3971" stroke-miterlimit="10"/>
<path d="M383.429 183.16L376.609 189.1" stroke="#E527BB" stroke-width="1.3971" stroke-miterlimit="10"/>
<path d="M376.609 189.1L383.159 195.65" stroke="#E527BB" stroke-width="1.3971" stroke-miterlimit="10"/>
<path d="M383.429 195.65L376.609 201.58" stroke="#E527BB" stroke-width="1.3971" stroke-miterlimit="10"/>
<path d="M376.609 201.58L383.159 208.13" stroke="#E527BB" stroke-width="1.3971" stroke-miterlimit="10"/>
<path d="M383.429 208.13L376.609 214.07" stroke="#E527BB" stroke-width="1.3971" stroke-miterlimit="10"/>
<path d="M376.609 214.07L383.159 220.62" stroke="#E527BB" stroke-width="1.3971" stroke-miterlimit="10"/>
<path d="M383.429 220.62L376.609 226.55" stroke="#E527BB" stroke-width="1.3971" stroke-miterlimit="10"/>
<path d="M376.609 226.55L383.159 233.1" stroke="#E527BB" stroke-width="1.3971" stroke-miterlimit="10"/>
<path d="M383.429 233.1L376.609 239.04" stroke="#E527BB" stroke-width="1.3971" stroke-miterlimit="10"/>
<path d="M376.609 239.04L383.159 245.59" stroke="#E527BB" stroke-width="1.3971" stroke-miterlimit="10"/>
<path d="M383.429 245.59L376.609 251.53" stroke="#E527BB" stroke-width="1.3971" stroke-miterlimit="10"/>
<path d="M376.609 251.53L383.159 258.08" stroke="#E527BB" stroke-width="1.3971" stroke-miterlimit="10"/>
<path d="M383.429 258.08L376.609 264.01" stroke="#E527BB" stroke-width="1.3971" stroke-miterlimit="10"/>
<path d="M376.609 264.01L383.159 270.56" stroke="#E527BB" stroke-width="1.3971" stroke-miterlimit="10"/>
<path d="M383.429 270.56L376.609 276.5" stroke="#E527BB" stroke-width="1.3971" stroke-miterlimit="10"/>
<path d="M376.609 276.5L383.159 283.05" stroke="#E527BB" stroke-width="1.3971" stroke-miterlimit="10"/>
<path d="M383.429 283.05L376.609 288.99" stroke="#E527BB" stroke-width="1.3971" stroke-miterlimit="10"/>
<path d="M376.609 288.99L383.159 295.54" stroke="#E527BB" stroke-width="1.3971" stroke-miterlimit="10"/>
<path d="M376.621 106.89H374.871V296.89H376.621V106.89Z" fill="#E527BB"/>
<path d="M369.281 106.89H367.531V296.89H369.281V106.89Z" fill="#E527BB"/>
<path d="M375.222 114.22L368.672 120.77" stroke="#E527BB" stroke-width="1.3971" stroke-miterlimit="10"/>
<path d="M368.41 120.77L375.22 126.71" stroke="#E527BB" stroke-width="1.3971" stroke-miterlimit="10"/>
<path d="M375.222 126.71L368.672 133.26" stroke="#E527BB" stroke-width="1.3971" stroke-miterlimit="10"/>
<path d="M368.41 133.26L375.22 139.2" stroke="#E527BB" stroke-width="1.3971" stroke-miterlimit="10"/>
<path d="M375.222 139.2L368.672 145.74" stroke="#E527BB" stroke-width="1.3971" stroke-miterlimit="10"/>
<path d="M368.41 145.74L375.22 151.68" stroke="#E527BB" stroke-width="1.3971" stroke-miterlimit="10"/>
<path d="M375.222 151.68L368.672 158.23" stroke="#E527BB" stroke-width="1.3971" stroke-miterlimit="10"/>
<path d="M368.41 158.23L375.22 164.17" stroke="#E527BB" stroke-width="1.3971" stroke-miterlimit="10"/>
<path d="M375.222 164.17L368.672 170.72" stroke="#E527BB" stroke-width="1.3971" stroke-miterlimit="10"/>
<path d="M368.41 170.72L375.22 176.65" stroke="#E527BB" stroke-width="1.3971" stroke-miterlimit="10"/>
<path d="M375.222 176.65L368.672 183.2" stroke="#E527BB" stroke-width="1.3971" stroke-miterlimit="10"/>
<path d="M368.41 183.2L375.22 189.14" stroke="#E527BB" stroke-width="1.3971" stroke-miterlimit="10"/>
<path d="M375.222 189.14L368.672 195.69" stroke="#E527BB" stroke-width="1.3971" stroke-miterlimit="10"/>
<path d="M368.41 195.69L375.22 201.63" stroke="#E527BB" stroke-width="1.3971" stroke-miterlimit="10"/>
<path d="M375.222 201.63L368.672 208.18" stroke="#E527BB" stroke-width="1.3971" stroke-miterlimit="10"/>
<path d="M368.41 208.18L375.22 214.11" stroke="#E527BB" stroke-width="1.3971" stroke-miterlimit="10"/>
<path d="M375.222 214.11L368.672 220.66" stroke="#E527BB" stroke-width="1.3971" stroke-miterlimit="10"/>
<path d="M368.41 220.66L375.22 226.6" stroke="#E527BB" stroke-width="1.3971" stroke-miterlimit="10"/>
<path d="M375.222 226.6L368.672 233.15" stroke="#E527BB" stroke-width="1.3971" stroke-miterlimit="10"/>
<path d="M368.41 233.15L375.22 239.09" stroke="#E527BB" stroke-width="1.3971" stroke-miterlimit="10"/>
<path d="M375.222 239.09L368.672 245.63" stroke="#E527BB" stroke-width="1.3971" stroke-miterlimit="10"/>
<path d="M368.41 245.63L375.22 251.57" stroke="#E527BB" stroke-width="1.3971" stroke-miterlimit="10"/>
<path d="M375.222 251.57L368.672 258.12" stroke="#E527BB" stroke-width="1.3971" stroke-miterlimit="10"/>
<path d="M368.41 258.12L375.22 264.06" stroke="#E527BB" stroke-width="1.3971" stroke-miterlimit="10"/>
<path d="M375.222 264.06L368.672 270.61" stroke="#E527BB" stroke-width="1.3971" stroke-miterlimit="10"/>
<path d="M368.41 270.61L375.22 276.54" stroke="#E527BB" stroke-width="1.3971" stroke-miterlimit="10"/>
<path d="M375.222 276.54L368.672 283.09" stroke="#E527BB" stroke-width="1.3971" stroke-miterlimit="10"/>
<path d="M368.41 283.09L375.22 289.03" stroke="#E527BB" stroke-width="1.3971" stroke-miterlimit="10"/>
<path d="M375.222 289.03L368.672 295.58" stroke="#E527BB" stroke-width="1.3971" stroke-miterlimit="10"/>
<path d="M391.24 103.22H360.59V110.55H391.24V103.22Z" fill="#E527BB"/>
<path d="M377.2 103.22H360.59V110.55H377.2V103.22Z" fill="#E527BB"/>
<path d="M393.712 100.1H356.512V103.22H393.712V100.1Z" fill="#E527BB"/>
<path d="M393.713 100.1H379.043V103.22H393.713V100.1Z" fill="#E527BB"/>
<path d="M370.66 100.1H357.82V88.7001L362.54 79.5701H370.66V100.1Z" fill="#E527BB"/>
<path d="M377.21 79.5701H370.66V100.1H377.21V79.5701Z" fill="#E527BB"/>
<path d="M423.252 63.1899H254.902V65.8899H423.252V63.1899Z" fill="#E527BB"/>
<path d="M423.242 63.1899H416.492V65.8899H423.242V63.1899Z" fill="#E527BB"/>
<path d="M423.241 68.9299H397.371V82.5299H423.241V68.9299Z" fill="#E527BB"/>
<path d="M423.251 68.9299H415.191V82.5299H423.251V68.9299Z" fill="#E527BB"/>
<path d="M377.504 26.3799H375.164V65.6699H377.504V26.3799Z" fill="#E527BB"/>
<path d="M376.043 26.3799H373.703V65.6699H376.043V26.3799Z" fill="#E527BB"/>
<path d="M376.033 18H372.773V26.38H376.033V18Z" fill="#E527BB"/>
<path d="M379.303 18H376.043V26.38H379.303V18Z" fill="#E527BB"/>
<path d="M362.043 65.45H360.453V72.81H362.043V65.45Z" fill="#E527BB"/>
<path d="M347.633 65.45H346.043V72.81H347.633V65.45Z" fill="#E527BB"/>
<path d="M335.803 65.45H334.203V72.81H335.803V65.45Z" fill="#E527BB"/>
<path d="M322.492 65.45H320.902V72.81H322.492V65.45Z" fill="#E527BB"/>
<path d="M308.84 65.45H307.25V72.81H308.84V65.45Z" fill="#E527BB"/>
<path d="M295.723 65.45H294.133V72.81H295.723V65.45Z" fill="#E527BB"/>
<path d="M282.602 65.45H281.012V72.81H282.602V65.45Z" fill="#E527BB"/>
<path d="M269.84 65.45H268.25V72.81H269.84V65.45Z" fill="#E527BB"/>
<path d="M256.541 65.45H255.941V72.81H256.541V65.45Z" fill="#894D1E"/>
<path d="M366.69 73.03L360.43 69.7L361.54 69.25L367.8 72.58L366.69 73.03Z" fill="#E527BB"/>
<path d="M354.61 72.92L353.57 72.44L360.47 69.23L361.51 69.71L354.61 72.92Z" fill="#E527BB"/>
<path d="M353.531 73.03L347.281 69.7L348.391 69.25L354.641 72.58L353.531 73.03Z" fill="#E527BB"/>
<path d="M341.462 72.92L340.422 72.44L347.312 69.23L348.362 69.71L341.462 72.92Z" fill="#E527BB"/>
<path d="M340.383 73.03L334.133 69.7L335.243 69.25L341.493 72.58L340.383 73.03Z" fill="#E527BB"/>
<path d="M328.302 72.92L327.262 72.44L334.162 69.23L335.202 69.71L328.302 72.92Z" fill="#E527BB"/>
<path d="M327.233 73.03L320.973 69.7L322.083 69.25L328.343 72.58L327.233 73.03Z" fill="#E527BB"/>
<path d="M315.153 72.92L314.113 72.44L321.013 69.23L322.053 69.71L315.153 72.92Z" fill="#E527BB"/>
<path d="M314.074 73.03L307.824 69.7L308.934 69.25L315.184 72.58L314.074 73.03Z" fill="#E527BB"/>
<path d="M302.003 72.92L300.953 72.44L307.853 69.23L308.893 69.71L302.003 72.92Z" fill="#E527BB"/>
<path d="M300.922 73.03L294.672 69.7L295.782 69.25L302.032 72.58L300.922 73.03Z" fill="#E527BB"/>
<path d="M288.841 72.92L287.801 72.44L294.701 69.23L295.741 69.71L288.841 72.92Z" fill="#E527BB"/>
<path d="M287.772 73.03L281.512 69.7L282.622 69.25L288.882 72.58L287.772 73.03Z" fill="#E527BB"/>
<path d="M275.692 72.92L274.652 72.44L281.552 69.23L282.592 69.71L275.692 72.92Z" fill="#E527BB"/>
<path d="M274.613 73.03L268.363 69.7L269.473 69.25L275.723 72.58L274.613 73.03Z" fill="#E527BB"/>
<path d="M262.532 72.92L261.492 72.44L268.392 69.23L269.432 69.71L262.532 72.92Z" fill="#E527BB"/>
<path d="M256.311 69.25L255.941 69.4V70.09L261.461 73.03L262.571 72.58L256.311 69.25Z" fill="#E527BB"/>
<path d="M368.671 68.6101H255.941V69.4701H368.671V68.6101Z" fill="#E527BB"/>
<path d="M368.671 65.02H255.941V65.88H368.671V65.02Z" fill="#E527BB"/>
<path d="M361.501 69.01L360.391 68.56L366.641 65.22L367.751 65.67L361.501 69.01Z" fill="#E527BB"/>
<path d="M360.42 69.0301L353.52 65.8201L354.56 65.3301L361.46 68.5401L360.42 69.0301Z" fill="#E527BB"/>
<path d="M348.34 69.01L347.23 68.56L353.49 65.22L354.6 65.67L348.34 69.01Z" fill="#E527BB"/>
<path d="M347.271 69.0301L340.371 65.8201L341.411 65.3301L348.311 68.5401L347.271 69.0301Z" fill="#E527BB"/>
<path d="M335.192 69.01L334.082 68.56L340.342 65.22L341.452 65.67L335.192 69.01Z" fill="#E527BB"/>
<path d="M334.113 69.0301L327.223 65.8201L328.263 65.3301L335.163 68.5401L334.113 69.0301Z" fill="#E527BB"/>
<path d="M322.044 69.01L320.934 68.56L327.184 65.22L328.294 65.67L322.044 69.01Z" fill="#E527BB"/>
<path d="M320.963 69.0301L314.062 65.8201L315.103 65.3301L322.003 68.5401L320.963 69.0301Z" fill="#E527BB"/>
<path d="M308.88 69.01L307.77 68.56L314.03 65.22L315.14 65.67L308.88 69.01Z" fill="#E527BB"/>
<path d="M307.81 69.0301L300.91 65.8201L301.95 65.3301L308.85 68.5401L307.81 69.0301Z" fill="#E527BB"/>
<path d="M295.731 69.01L294.621 68.56L300.871 65.22L301.981 65.67L295.731 69.01Z" fill="#E527BB"/>
<path d="M294.652 69.0301L287.762 65.8201L288.802 65.3301L295.702 68.5401L294.652 69.0301Z" fill="#E527BB"/>
<path d="M282.583 69.01L281.473 68.56L287.723 65.22L288.833 65.67L282.583 69.01Z" fill="#E527BB"/>
<path d="M281.502 69.0301L274.602 65.8201L275.642 65.3301L282.542 68.5401L281.502 69.0301Z" fill="#E527BB"/>
<path d="M269.423 69.01L268.312 68.56L274.573 65.22L275.682 65.67L269.423 69.01Z" fill="#E527BB"/>
<path d="M268.353 69.0301L261.453 65.8201L262.493 65.3301L269.393 68.5401L268.353 69.0301Z" fill="#E527BB"/>
<path d="M261.411 65.22L255.941 68.14V68.88L256.271 69.01L262.521 65.67L261.411 65.22Z" fill="#E527BB"/>
<path d="M368.672 72.3801H242.762V73.2401H368.672V72.3801Z" fill="#E527BB"/>
<path d="M256.542 63.1899H254.902V73.2299H256.542V63.1899Z" fill="#E527BB"/>
<path d="M246.931 72.8099L245.031 72.8299L254.911 63.1899L255.831 64.1299L246.931 72.8099Z" fill="#E527BB"/>
<path d="M261.494 72.8301H250.434V77.2001H261.494V72.8301Z" fill="#E527BB"/>
<path d="M262.05 103.96H249.48V108.55H262.05V103.96Z" fill="#E527BB"/>
<path d="M264.071 103.96H258.391V108.55H264.071V103.96Z" fill="#E527BB"/>
<path d="M257.77 108.55H251.66V113.18H257.77V108.55Z" fill="#E527BB"/>
<path d="M256.211 116.19C256.211 116.19 256.211 116.21 256.211 116.23C256.211 116.26 256.211 116.3 256.201 116.36C256.191 116.48 256.191 116.65 256.211 116.86C256.231 117.06 256.281 117.3 256.381 117.5C256.411 117.55 256.431 117.59 256.471 117.63C256.491 117.65 256.501 117.67 256.521 117.69L256.551 117.72L256.561 117.73L256.571 117.74C256.551 117.71 256.571 117.74 256.561 117.73C256.631 117.8 256.701 117.88 256.761 117.94C256.831 118.01 256.901 118.08 256.971 118.15C257.271 118.46 257.591 118.82 257.911 119.25C258.071 119.47 258.211 119.7 258.361 119.95C258.431 120.08 258.491 120.21 258.561 120.35C258.621 120.49 258.681 120.63 258.741 120.77C258.961 121.35 259.101 122.02 259.091 122.71C259.081 122.88 259.081 123.06 259.061 123.23C259.031 123.4 259.001 123.57 258.971 123.74C258.941 123.91 258.881 124.07 258.841 124.24L258.771 124.49L258.741 124.56V124.57L258.731 124.59L258.711 124.64L258.671 124.74L258.651 124.79L258.641 124.82L258.621 124.86L258.531 125.02C258.471 125.12 258.411 125.23 258.351 125.31L258.171 125.55L257.961 125.77C257.671 126.05 257.361 126.28 257.031 126.45C256.701 126.62 256.361 126.74 256.021 126.82C255.681 126.9 255.351 126.94 255.021 126.94C254.361 126.95 253.741 126.82 253.181 126.59C252.621 126.36 252.141 126.01 251.781 125.59C251.421 125.18 251.201 124.7 251.121 124.28C251.031 123.85 251.051 123.49 251.101 123.21C251.151 122.93 251.211 122.72 251.271 122.59C251.321 122.46 251.351 122.38 251.351 122.38C251.421 122.2 251.631 122.11 251.811 122.18C251.941 122.23 252.021 122.35 252.031 122.48V122.53C252.031 122.53 252.031 122.59 252.041 122.72C252.041 122.84 252.071 123.01 252.111 123.22C252.151 123.42 252.231 123.65 252.351 123.87C252.471 124.09 252.661 124.29 252.901 124.46C253.141 124.62 253.441 124.76 253.791 124.83C254.141 124.9 254.531 124.92 254.911 124.87C255.291 124.82 255.671 124.7 255.971 124.51C256.121 124.42 256.251 124.31 256.351 124.2C256.371 124.17 256.401 124.14 256.431 124.12C256.451 124.09 256.471 124.06 256.491 124.03C256.521 124 256.521 123.98 256.531 123.97C256.531 123.96 256.541 123.95 256.551 123.95L256.561 123.94L256.571 123.92L256.591 123.87L256.631 123.77L256.651 123.72L256.661 123.7L256.671 123.69V123.68C256.661 123.71 256.701 123.61 256.651 123.74L256.701 123.59C256.731 123.49 256.771 123.39 256.791 123.29C256.811 123.19 256.831 123.09 256.851 122.99C256.871 122.89 256.871 122.79 256.881 122.69C256.901 122.28 256.861 121.88 256.761 121.47C256.661 121.06 256.501 120.66 256.311 120.28C256.131 119.9 255.921 119.53 255.701 119.18C255.641 119.08 255.591 118.99 255.531 118.9C255.471 118.8 255.431 118.72 255.381 118.64C255.381 118.63 255.391 118.65 255.371 118.62V118.61V118.6L255.361 118.58L255.341 118.53L255.301 118.44C255.271 118.38 255.251 118.32 255.231 118.25C255.191 118.13 255.161 118.01 255.141 117.89C255.081 117.43 255.151 117.06 255.231 116.79C255.311 116.51 255.411 116.32 255.481 116.19C255.521 116.12 255.551 116.08 255.571 116.04C255.591 116 255.601 115.99 255.601 115.99L255.611 115.98C255.731 115.82 255.961 115.8 256.111 115.92C256.191 115.93 256.241 116.06 256.211 116.19Z" fill="#E527BB"/>
<path d="M297.762 186.668H245.176V238.24H297.762V186.668Z" fill="#E527BB"/>
<path d="M297.784 186.668H272.199V238.24H297.784V186.668Z" fill="#E527BB"/>
<path d="M284.46 195.037C284.46 195.037 286.742 195.559 287.966 197.29C289.189 199.02 300.512 217.922 300.78 219.921C301.064 221.935 300.914 226.425 295.604 224.933L281.551 209.09L284.46 195.037Z" fill="#8468EA"/>
<path d="M259.399 193.859C259.399 193.859 257.131 194.381 255.893 196.111C254.67 197.842 243.347 216.743 243.079 218.742C242.81 220.741 242.944 225.246 248.255 223.754L262.308 207.911L259.399 193.859Z" fill="#8468EA"/>
<path d="M277.937 320.379C277.937 320.379 282.368 323.288 283.964 323.974C283.964 323.974 284.725 324.735 284.576 325.495C284.576 325.495 276.326 325.883 273.954 325.495C273.954 325.495 273.88 320.453 274.879 320.006L277.937 320.379Z" fill="#A78BEF"/>
<path d="M263.381 320.379C263.381 320.379 258.95 323.288 257.354 323.974C257.354 323.974 256.593 324.735 256.742 325.495C256.742 325.495 264.992 325.883 267.364 325.495C267.364 325.495 267.438 320.453 266.454 320.006L263.381 320.379Z" fill="#A78BEF"/>
<path d="M279.652 192.934C277.952 192.561 276.549 192.367 276.549 192.367C274.476 188.265 274.625 179.195 274.625 179.195C274.625 179.195 267.837 183.342 267.778 184.282C267.554 188.071 266.689 191.935 266.092 193.218C265.704 194.053 261.005 195.067 261.005 195.067C260.736 195.44 260.527 200.706 260.363 202.183L279.652 198.424V192.934Z" fill="#E49479"/>
<path d="M258.02 238.24L261.122 320.752C263.972 321.512 267.463 320.767 267.463 320.767L270.968 256.515L272.982 320.767C277.726 321.483 280.635 320.781 280.635 320.781L283.798 238.225H258.02V238.24Z" fill="#202A31"/>
<path d="M284.951 244.222C284.951 244.222 269.586 248.101 256.309 242.939L258.531 220.801L257.323 197.931C257.323 197.931 257.054 194.545 258.502 194.157L265.886 192.009C268.884 192.009 276.12 192.113 276.12 192.113C277.567 192.188 283.43 193.516 284.459 195.037C284.459 195.037 286.368 201.974 283.459 220.115C283.459 220.13 284.116 233.123 284.951 244.222Z" fill="#A78BEF"/>
<path d="M277.302 177.762C277.302 177.762 278.167 171.034 274.452 169.408C271.364 168.065 264.845 168.229 264.547 173.63C264.547 173.63 264.308 175.33 264.338 177.628C262.279 176.569 262.264 178.985 263.07 180.596C263.697 181.865 264.428 181.879 264.726 181.82C264.741 181.879 264.756 181.954 264.756 182.014C265.114 183.849 266.635 186.31 268.038 187.712H273.349C275.019 186.534 276.795 184.415 277.436 181.894C277.436 181.894 278.465 182.193 279.047 180.462C279.599 178.762 279.107 176.151 277.302 177.762Z" fill="#F7A282"/>
<path d="M264.096 177.733C264.096 177.733 264.842 180.656 264.991 182.312C265.14 183.953 267.751 187.504 268.138 188.25C268.138 188.25 270.585 188.324 274.121 188.25C274.121 188.25 276.776 183.536 276.955 181.895C277.134 180.254 277.462 177.464 277.462 177.464C277.462 177.464 278.536 167.409 270.913 168.185C270.913 168.185 262.395 167.021 264.096 177.733Z" fill="#1E0E12"/>
<path d="M279.238 178.016C279.238 177.896 279.253 177.777 279.253 177.673C279.253 172.034 276.836 167.469 270.913 167.469C265.006 167.469 262.574 172.034 262.574 177.673C262.574 177.792 262.574 177.911 262.589 178.016H279.238Z" fill="#E527BB"/>
<path d="M272.313 178.001V167.678C272.313 167.334 272.03 167.066 271.701 167.066H270.135C269.792 167.066 269.523 167.334 269.523 167.678V178.001H272.313Z" fill="#C912A6"/>
<path d="M279.581 178.001C279.581 178.24 279.387 178.434 279.148 178.434H262.679C262.44 178.434 262.246 178.24 262.246 178.001C262.246 177.762 262.44 177.568 262.679 177.568H279.148C279.387 177.568 279.581 177.762 279.581 178.001Z" fill="#C912A6"/>
<path d="M262.249 177.941C262.249 177.956 262.234 177.986 262.234 178.001C262.234 178.24 262.428 178.434 262.667 178.434H279.137C279.375 178.434 279.569 178.24 279.569 178.001C279.569 177.986 279.569 177.956 279.569 177.941H262.249Z" fill="#C912A6"/>
<path d="M304.12 244.058C304.12 244.058 303.508 246.549 302.643 246.922C302.061 247.161 301.718 249.07 301.971 250.458C302.225 251.83 308.058 251.83 308.476 250.458C308.878 249.07 308.61 247.474 307.968 246.549C307.968 246.549 307.924 245.803 308.118 244.311L304.12 244.058Z" fill="#F7A282"/>
<path d="M310.15 247.772H299.305C298.857 247.772 298.484 248.145 298.484 248.593V253.531C298.484 253.978 298.857 254.351 299.305 254.351H310.15C310.598 254.351 310.971 253.978 310.971 253.531V248.593C310.956 248.145 310.598 247.772 310.15 247.772ZM309.196 253.516C309.196 253.859 308.927 254.142 308.614 254.142H300.841C300.513 254.142 300.26 253.859 300.26 253.516V249.726C300.26 249.383 300.528 249.1 300.841 249.1H308.614C308.942 249.1 309.196 249.383 309.196 249.726V253.516Z" fill="#1E2933"/>
<path d="M310.15 247.772H299.305C298.857 247.772 298.484 248.145 298.484 248.593V248.996C298.484 248.548 298.857 248.175 299.305 248.175H310.15C310.598 248.175 310.971 248.533 310.971 248.996V248.593C310.956 248.145 310.598 247.772 310.15 247.772Z" fill="#45525E"/>
<path d="M319.118 254.083H291.43V267.181H319.118V254.083Z" fill="#A78BEF"/>
<path d="M319.118 254.083H291.43V258.931H319.118V254.083Z" fill="#8468EA"/>
<path d="M320.145 252.039H290.398V256.678H320.145V252.039Z" fill="#A78BEF"/>
<path d="M320.145 252.039H290.398V252.784H320.145V252.039Z" fill="#8468EA"/>
<path d="M306.289 258.468H303.156V254.351H306.289V258.468Z" fill="#E527BB"/>
<path d="M305.972 257.334H303.48V255.485H305.972V257.334Z" fill="#475461"/>
<path d="M356.048 156.429C356.048 156.429 357.226 151.521 356.555 150.551C356.555 150.551 356.197 149.731 355.377 149.791C355.377 149.791 355.018 148.866 353.9 149.283C353.9 149.283 353.392 149.492 353.392 148.925C353.392 148.925 353.437 145.912 353.139 145.703C352.826 145.494 352.781 146.016 352.676 146.315C352.572 146.628 352.572 152.461 352.318 153.073C352.318 153.073 351.453 153.028 351.393 153.535C351.334 154.042 352.259 156.146 352.259 156.146L356.048 156.429Z" fill="#F7A282"/>
<path d="M315.861 193.56C315.861 193.56 312.609 194.247 311.385 195.813C310.073 197.469 303.419 241.88 303.151 243.894C302.882 245.908 306.567 246.549 309.133 244.804L316.651 205.957L315.861 193.56Z" fill="#A78BEF"/>
<path d="M335.465 320.378C335.465 320.378 339.881 323.287 341.492 323.974C341.492 323.974 342.253 324.734 342.103 325.495C342.103 325.495 333.854 325.883 331.482 325.495C331.482 325.495 331.407 320.453 332.392 319.99L335.465 320.378Z" fill="#A78BEF"/>
<path d="M320.904 320.378C320.904 320.378 316.473 323.287 314.877 323.974C314.877 323.974 314.101 324.734 314.265 325.495C314.265 325.495 322.515 325.883 324.887 325.495C324.887 325.495 324.961 320.453 323.962 319.99L320.904 320.378Z" fill="#A78BEF"/>
<path d="M337.18 192.934C335.494 192.561 334.077 192.367 334.077 192.367C332.018 188.264 332.152 179.194 332.152 179.194C332.152 179.194 325.365 183.341 325.305 184.281C325.081 188.07 324.216 191.934 323.619 193.217C323.231 194.052 318.532 195.067 318.532 195.067C318.264 195.44 318.055 200.706 317.891 202.183L337.18 198.423V192.934Z" fill="#E49479"/>
<path d="M315.547 238.24L318.65 320.752C321.499 321.512 324.99 320.767 324.99 320.767L328.496 256.529L330.51 320.781C335.239 321.498 338.163 320.796 338.163 320.796L341.325 238.24H315.547Z" fill="#202A31"/>
<path d="M341.338 245.624C341.338 245.624 328.837 248.727 315.56 243.565L316.052 220.8L314.844 197.931C314.844 197.931 314.575 193.873 316.037 193.471L324.033 192.009C327.032 192.009 333.64 192.113 333.64 192.113C336.236 190.666 340.309 186.743 341.338 188.264C341.338 188.264 343.889 201.959 340.98 220.114C340.98 220.129 341.338 231.064 341.338 245.624Z" fill="#A78BEF"/>
<path d="M337.999 189.159C337.999 189.159 335.493 214.147 341.58 215.907C341.58 215.907 342.027 244.908 340.908 249.697C340.908 249.697 318.337 249.368 315.906 247.429C315.906 247.429 314.026 230.601 315.906 217.936C315.906 217.936 319.978 211.387 319.844 192.784L321.992 192.426C321.992 192.426 322.291 202.093 322.902 202.809H333.136L335.493 190.666C335.478 190.681 337.298 189.607 337.999 189.159Z" fill="#E527BB"/>
<path d="M334.821 177.762C334.821 177.762 335.687 171.034 331.972 169.408C328.884 168.065 322.365 168.229 322.066 173.63C322.066 173.63 321.828 175.33 321.858 177.628C319.799 176.569 319.784 178.985 320.59 180.596C321.216 181.85 321.947 181.879 322.245 181.82C322.26 181.879 322.26 181.954 322.29 182.014C322.648 183.849 324.17 186.31 325.572 187.712H330.883C332.554 186.534 334.329 184.415 334.971 181.894C334.971 181.894 336 182.193 336.582 180.462C337.119 178.762 336.626 176.151 334.821 177.762Z" fill="#F7A282"/>
<path d="M321.631 177.732C321.631 177.732 322.377 180.656 322.526 182.312C322.675 183.953 325.286 187.503 325.658 188.249C325.658 188.249 328.105 188.324 331.641 188.249C331.641 188.249 334.296 183.535 334.475 181.894C334.654 180.253 334.982 177.464 334.982 177.464C334.982 177.464 336.056 167.409 328.433 168.2C328.433 168.185 319.915 167.021 321.631 177.732Z" fill="#1E0E12"/>
<path d="M340.255 188.279C340.255 188.279 348.713 176.36 349.668 175.137C349.668 175.137 351.041 156.728 351.444 155.624C351.444 155.624 354.039 153.983 357.172 156.31C357.172 156.31 356.754 175.644 356.352 177.568C355.949 179.493 342.358 201.049 342.358 201.049C342.358 201.049 339.3 195.694 340.255 188.279Z" fill="#A78BEF"/>
<path d="M336.957 177.658C336.957 177.538 336.972 177.419 336.972 177.315C336.972 171.661 334.541 167.081 328.603 167.081C322.666 167.081 320.234 171.661 320.234 177.315C320.234 177.434 320.234 177.553 320.234 177.658H336.957Z" fill="#E527BB"/>
<path d="M330.005 177.658V167.305C330.005 166.962 329.736 166.693 329.393 166.693H327.826C327.483 166.693 327.215 166.962 327.215 167.305V177.658H330.005Z" fill="#C912A6"/>
<path d="M337.301 177.658C337.301 177.897 337.107 178.091 336.868 178.091H320.339C320.1 178.091 319.906 177.897 319.906 177.658C319.906 177.419 320.1 177.225 320.339 177.225H336.868C337.107 177.225 337.301 177.419 337.301 177.658Z" fill="#C912A6"/>
<path d="M319.906 177.598C319.906 177.613 319.906 177.643 319.906 177.658C319.906 177.897 320.1 178.09 320.339 178.09H336.868C337.107 178.09 337.301 177.897 337.301 177.658C337.301 177.643 337.301 177.613 337.301 177.598H319.906Z" fill="#C912A6"/>
<path d="M302.6 249.339C302.6 249.339 302.122 247.802 303.689 247.325C305.255 246.847 307.642 247.056 307.881 247.325C308.119 247.593 308.224 249.13 308.015 249.697L302.6 249.339Z" fill="#F7A282"/>
</g>
<path d="M185.257 189.931C185.257 189.931 183.404 185.892 183.99 184.609C184.576 183.326 186.381 184.593 186.92 185.94C186.92 185.94 187.965 187.825 187.3 189.535L185.257 189.931Z" fill="#F7A282"/>
<path d="M184.678 189.899C184.409 202.364 184.915 202.729 184.915 202.729C182.888 203.109 172.815 202.966 170.154 204.439C168.728 205.231 172.53 209.349 172.054 210.41L188.051 208.589C189.303 207.623 190.253 206.72 190.253 206.72C190.887 201.477 187.988 188.949 187.988 188.949C185.533 188.791 184.678 189.899 184.678 189.899Z" fill="#A78BEF"/>
<path d="M231.999 198.04C231.999 198.135 231.935 198.215 231.84 198.215L82.2284 210.933C82.1334 210.933 82.0542 210.87 82.0383 210.775L80.6445 194.303C80.6445 194.208 80.7079 194.128 80.8029 194.112L230.415 181.394C230.51 181.394 230.589 181.457 230.605 181.552L231.999 198.04Z" fill="#F9B077"/>
<path d="M230.54 183.009L80.9279 195.712C80.8329 195.712 80.7695 195.807 80.7695 195.902L82.0366 210.775C82.0366 210.87 82.1317 210.933 82.2267 210.933L231.838 198.215C231.933 198.215 231.997 198.12 231.997 198.04L230.73 183.168C230.714 183.057 230.635 182.994 230.54 183.009Z" fill="#ED954C"/>
<path d="M141.699 300.722C141.699 300.722 142.364 303.066 143.996 305.078C143.996 305.078 144.471 305.743 144.392 306.693C144.392 306.693 139.466 306.313 137.914 305.553C137.914 305.553 137.122 303.922 137.074 303.256C137.074 303.256 138.183 300.437 138.325 300.057L141.699 300.722Z" fill="#A78BEF"/>
<path d="M176.735 302.195C176.735 302.195 179.491 301.641 179.824 301.72L180.442 302.37C180.442 302.37 181.693 303.747 186.254 305.125L186.349 305.949L176.973 307.01C176.957 307.01 176.07 305.854 176.735 302.195Z" fill="#A78BEF"/>
<path d="M151.6 239.442L149.477 277.202L137.551 300.215C137.551 300.215 139.578 301.261 143.189 301.577L157.333 280.037L162.734 254.394L169.149 278.833L175.706 302.417C176.53 302.591 181.17 302.512 181.408 302.449L177.527 278.596L172.412 244.748L172.618 238.334C172.633 238.35 164.334 240.741 151.6 239.442Z" fill="#155B81"/>
<path d="M171.747 211.187C171.7 210.11 171.795 206.277 171.621 206.007C171.621 206.007 168.279 205.057 168.025 204.424C167.645 203.457 167.218 200.622 167.233 197.882C167.233 197.201 162.513 193.875 162.513 193.875C162.513 193.875 162.181 200.448 160.502 203.315C160.502 203.315 155.402 203.727 154.198 204.788C153.881 205.057 153.612 205.627 153.406 206.356L171.747 211.187Z" fill="#E49479"/>
<path d="M167.86 203.885C167.543 202.697 167.258 200.479 167.226 198.246L163.298 195.189L162.411 195.126C162.332 195.902 162.221 196.963 162.031 198.104C162.823 200.147 164.993 204.993 167.86 203.885Z" fill="#D27964"/>
<path d="M172.22 190.391C172.22 190.391 172.442 193.495 171.681 196.457C171.222 198.199 169.21 200.654 168.054 201.066C168.054 201.066 167.737 201.224 166.645 200.955C165.298 200.638 163.002 198.452 162.511 195.76C162.511 195.76 161.75 195.934 161.418 194.651C161.085 193.368 161.576 191.515 162.812 192.766C162.812 192.766 162.732 187.334 165.172 187.159C167.595 187.001 172.267 186.478 172.22 190.391Z" fill="#F7A282"/>
<path d="M161.069 187.476L172.695 188.236L172.537 190.723C172.378 191.056 172.252 191.246 172.252 191.246L172.141 189.519C171.159 190.343 169.321 190.184 169.321 190.184C167.041 189.947 164.522 188.379 164.522 188.379C163.889 189.598 163.936 190.881 163.936 190.881C164.158 192.069 163.255 193.4 162.986 193.21C162.875 193.13 162.764 192.972 162.653 192.798C161.703 191.562 161.085 193.431 161.434 194.508C161.925 196.029 162.495 195.76 162.495 195.76C162.511 195.823 162.511 195.886 162.527 195.934C162.432 196.742 162.083 197.803 161.909 198.817C161.766 198.832 162.384 197.407 161.782 195.95C161.022 194.081 160.278 190.216 161.069 187.476Z" fill="#3D1F0F"/>
<path d="M173.601 189.614C173.601 189.583 173.617 189.551 173.617 189.519C173.823 185.766 170.94 182.566 167.202 182.36C163.448 182.154 160.249 185.021 160.043 188.775C160.043 188.807 160.043 188.838 160.043 188.87L173.601 189.614Z" fill="#E527BB"/>
<path d="M167.198 182.36C163.666 182.17 160.625 184.688 160.102 188.11C160.102 188.205 160.086 188.3 160.086 188.379C160.086 188.411 160.07 188.506 160.07 188.537C161.353 183.849 165.107 183.152 165.107 183.152C171.68 182.566 171.458 189.171 171.458 189.171L173.597 189.282C173.597 189.25 173.597 189.218 173.597 189.187C173.597 189.076 173.597 188.949 173.597 188.838C173.454 185.385 170.714 182.55 167.198 182.36Z" fill="#C912A6"/>
<path d="M173.613 189.028L175.213 190.28C175.213 190.28 174.342 192.069 168.275 190.755L160.039 188.886L160.023 188.442L173.613 189.028Z" fill="#C912A6"/>
<path d="M160.133 187.935C160.133 187.904 160.133 187.809 160.133 187.777C160.339 184.023 163.491 181.204 167.229 181.41C170.982 181.616 173.849 184.815 173.643 188.569C173.643 188.6 173.627 188.632 173.627 188.664L171.489 188.553C171.489 188.553 171.711 181.964 165.138 182.534C165.169 182.55 161.416 183.247 160.133 187.935Z" fill="#E527BB"/>
<path d="M173.919 188.886C173.903 189.06 173.777 189.187 173.602 189.171L160.029 188.426C159.854 188.426 159.728 188.284 159.744 188.11C159.759 187.951 159.902 187.809 160.06 187.824L173.634 188.569C173.792 188.585 173.919 188.727 173.919 188.886Z" fill="#C912A6"/>
<path d="M160.029 188.426L173.602 189.171C173.777 189.186 173.903 189.06 173.919 188.885L159.744 188.109C159.728 188.284 159.854 188.426 160.029 188.426Z" fill="#C912A6"/>
<path d="M172.192 243.529C172.905 234.786 175.487 204.043 174.331 203.552L167.631 202.792C167.821 205.944 164.875 205.643 164.289 205.643C161.422 204.693 160.931 202.428 160.931 202.428C159.902 202.428 153.693 203.647 152.236 204.218C152.236 204.218 152.6 212.042 152.315 219.248C152.172 223.145 151.159 234.533 150.984 242.547C151 242.563 171.606 244.463 172.192 243.529Z" fill="#A78BEF"/>
<path d="M151.869 226.297C151.869 226.297 158.363 225.853 159.123 216.572L172.807 217C172.807 217 172.459 224.428 173.726 225.03C173.726 225.03 172.206 243.514 172.427 244.749C172.427 244.749 159.741 249.881 151.52 244.353C151.52 244.353 149.556 243.688 151.869 226.297Z" fill="#155B81"/>
<path d="M159.124 216.572C159.124 216.572 158.855 207.227 157.746 202.919L159.663 202.586C159.663 202.586 161.072 210.046 161.326 218.14C161.326 218.14 159.298 220.262 159.124 216.572Z" fill="#155B81"/>
<path d="M170.697 216.984C170.697 216.984 170.491 207.306 169.398 202.998L171.758 203.267C171.758 203.267 172.519 210.347 172.756 218.425C172.756 218.425 170.871 220.658 170.697 216.984Z" fill="#155B81"/>
<path d="M157.302 240.393C157.302 240.393 158.933 241.644 159.52 241.961C160.121 242.278 160.47 243.545 160.153 244.273C160.153 244.273 160.771 245.382 160.739 245.841C160.707 246.301 160.026 246.538 159.329 246.174C158.633 245.825 158.078 245.255 157.365 244.558C156.653 243.861 156.336 242.23 156.336 242.23L157.302 240.393Z" fill="#F7A282"/>
<path d="M152.849 204.107C152.849 204.107 156.239 207.876 155.637 211.662C155.035 215.447 149.365 222.796 148.24 224.523C148.24 224.523 150.727 229.401 157.585 240.203C157.585 240.203 158.028 240.52 156.318 242.705C156.318 242.705 144.265 230.24 142.697 226.867C142.697 226.867 142.142 224.348 143.14 222.4C143.14 222.4 150.362 202.95 152.849 204.107Z" fill="#8468EA"/>
<path d="M129.253 191.42C129.253 191.42 134.923 186.827 135.557 187.017C136.206 187.223 134.274 188.648 133.973 188.838C133.973 188.838 134.416 188.854 134.559 189.899C134.559 189.899 135.066 190.295 134.955 190.945C134.955 190.945 135.208 191.452 134.86 191.895C134.511 192.339 132.674 193.162 131.676 192.703L130.378 193.257C130.393 193.273 128.113 192.988 129.253 191.42Z" fill="#F7A282"/>
<path d="M105.973 199.133L118.564 197.454L129.382 190.96C129.382 190.96 130.396 191.467 131.156 193.32C131.156 193.32 121.178 202.19 119.752 202.538C118.311 202.887 106.068 205.389 106.068 205.389L105.973 199.133Z" fill="#A78BEF"/>
<path d="M90.1812 303.003C90.1812 303.003 91.385 305.125 93.444 306.677C93.444 306.677 94.0617 307.216 94.2201 308.15C94.2201 308.15 89.3418 308.958 87.6629 308.578C87.6629 308.578 86.5067 307.184 86.3008 306.535C86.3008 306.535 86.6967 303.541 86.7601 303.129L90.1812 303.003Z" fill="#A78BEF"/>
<path d="M96.7287 302.417C96.7287 302.417 99.5321 302.163 99.8489 302.29L100.403 303.003C100.403 303.003 101.496 304.507 105.868 306.392V307.216L96.4278 307.232C96.4278 307.232 95.6675 305.98 96.7287 302.417Z" fill="#A78BEF"/>
<path d="M96.6602 290.649C96.6602 294.957 97.1195 302.797 97.1195 302.797C97.7847 303.177 99.4002 302.797 99.4002 302.797C99.6061 300.659 100.16 293.183 100.382 290.649H96.6602Z" fill="#F9B384"/>
<path d="M85.0156 238.223L86.0451 303.509C86.0451 303.509 88.2625 304.032 91.8421 303.494L93.9486 278.627L96.1502 253.19L95.9601 302.939C96.7837 303.114 101.424 303.034 101.662 302.971L103.357 276.489L105.384 245.271L105.495 238.84C105.495 238.825 97.7499 239.521 85.0156 238.223Z" fill="#202A31"/>
<path d="M103.821 208.399C103.71 207.322 103.6 203.504 103.41 203.235C103.41 203.235 100.02 202.459 99.735 201.857C99.3073 200.923 98.7213 198.103 98.5787 195.363C98.5471 194.682 93.6529 191.625 93.6529 191.625C93.6529 191.625 93.6846 198.199 92.1483 201.16C92.1483 201.16 87.0799 201.841 85.9237 202.966C85.6227 203.251 85.3852 203.821 85.2109 204.581L103.821 208.399Z" fill="#E49479"/>
<path d="M99.5434 201.319C99.1633 200.147 98.7515 197.945 98.6089 195.712L94.5226 192.877L93.6356 192.861C93.6039 193.637 93.5406 194.714 93.4297 195.854C94.3008 197.85 96.74 202.57 99.5434 201.319Z" fill="#D27964"/>
<path d="M102.238 186.827C102.238 186.827 102.95 189.868 102.634 192.909C102.459 194.698 100.844 197.439 99.7667 198.04C99.7667 198.04 99.4816 198.23 98.3571 198.151C96.9791 198.056 94.3658 196.251 93.463 193.653C93.463 193.653 92.7344 193.938 92.2117 192.734C91.689 191.531 91.8791 189.614 93.2887 190.644C93.2887 190.644 92.3701 185.29 94.7459 184.736C97.1375 184.197 101.667 182.962 102.238 186.827Z" fill="#F7A282"/>
<path d="M90.7679 185.686L102.378 184.625L102.599 187.111C102.488 187.46 102.409 187.682 102.409 187.682L102.029 185.987C101.19 186.953 99.3524 187.08 99.3524 187.08C97.0558 187.206 94.3316 186.034 94.3316 186.034C93.8881 187.333 94.1415 188.6 94.1415 188.6C94.5533 189.741 93.8564 191.182 93.5713 191.055C93.4446 190.992 93.3179 190.849 93.1912 190.707C92.0666 189.63 91.734 191.562 92.2567 192.576C92.9853 194.001 93.5079 193.653 93.5079 193.653C93.5238 193.716 93.5555 193.764 93.5713 193.827C93.603 194.635 93.4287 195.743 93.3971 196.773C93.2545 196.805 93.6505 195.3 92.8269 193.97C91.7499 192.211 90.4036 188.505 90.7679 185.686Z" fill="#3D1F0F"/>
<path d="M103.491 185.829C103.491 185.797 103.491 185.765 103.491 185.734C103.111 181.996 99.7694 179.271 96.0315 179.652C92.2936 180.032 89.5693 183.374 89.9495 187.112C89.9495 187.143 89.9653 187.175 89.9653 187.207L103.491 185.829Z" fill="#E527BB"/>
<path d="M96.0278 179.667C92.5117 180.032 89.8983 182.994 89.9141 186.462C89.9141 186.557 89.93 186.652 89.93 186.732C89.93 186.763 89.9458 186.858 89.9458 186.89C90.4843 182.059 94.0797 180.776 94.0797 180.776C100.479 179.176 101.286 185.734 101.286 185.734L103.424 185.512C103.424 185.48 103.424 185.449 103.424 185.417C103.409 185.306 103.393 185.179 103.377 185.068C102.68 181.679 99.5282 179.303 96.0278 179.667Z" fill="#C3B284"/>
<path d="M103.409 185.258L105.183 186.24C105.183 186.24 104.597 188.157 98.4038 187.777L89.9776 187.206L89.8984 186.779L103.409 185.258Z" fill="#E527BB"/>
<path d="M89.9112 186.272C89.9112 186.24 89.8953 186.145 89.8953 186.114C89.5152 182.376 92.1919 179.097 95.9298 178.717C99.6678 178.337 103.01 181.061 103.39 184.783C103.39 184.815 103.39 184.847 103.39 184.878L101.252 185.1C101.252 185.1 100.444 178.559 94.045 180.143C94.045 180.158 90.4497 181.441 89.9112 186.272Z" fill="#E527BB"/>
<path d="M103.676 185.068C103.692 185.227 103.581 185.385 103.407 185.401L89.881 186.779C89.7226 186.795 89.5642 186.668 89.5484 186.51C89.5325 186.351 89.6434 186.193 89.8176 186.177L103.344 184.799C103.502 184.783 103.661 184.91 103.676 185.068Z" fill="#EFE7CA"/>
<path d="M89.8795 186.779L103.406 185.401C103.564 185.385 103.691 185.243 103.675 185.068L89.5469 186.51C89.5627 186.684 89.7053 186.795 89.8795 186.779Z" fill="#DBCFA9"/>
<path d="M106.02 240.678C106.258 231.919 107.161 199.577 105.973 199.149L99.1307 200.194C98.6238 200.828 97.8636 201.477 97.8636 201.477C97.8636 201.477 97.4518 202.808 97.3092 203.457C94.4424 202.095 92.6843 200.242 92.6843 200.242C91.6548 200.289 85.3669 201.873 83.9414 202.507C83.9414 202.507 84.7333 210.299 84.8442 217.522C84.9076 221.418 84.2899 233.614 84.5433 241.628C84.5433 241.628 87.1883 244.067 88.4554 244.653C88.4554 244.653 95.5828 242.309 97.8636 240.789C97.8636 240.789 102.14 243.434 103.074 243.814C103.09 243.798 105.498 241.628 106.02 240.678Z" fill="#A78BEF"/>
<path d="M102.887 217.949L104.676 218.013L104.106 217.443H103.631C103.615 217.443 103.362 217.522 102.887 217.949Z" fill="#7EAEC8"/>
<path d="M91.1641 200.559C91.1641 200.559 95.4722 208.447 98.3865 220.041C98.3865 220.041 101.032 207.132 99.9545 200.496L98.8616 201.288L97.7213 201.953L97.3095 203.442L92.1144 200.179L91.1641 200.559Z" fill="#CEE3F5"/>
<path d="M97.0857 205.041L96.8164 216.365L98.3844 220.056L99.6674 215.573L97.6717 205.405L97.0857 205.041Z" fill="#E527BB"/>
<path d="M98.1055 220.389C98.1055 220.389 100.529 205.532 99.2459 199.291C99.2459 199.291 99.3567 199.181 99.5626 199.291C99.7844 199.418 101.178 199.877 101.178 199.877L103.38 208.177L101.242 209.492L102.984 211.725L98.4064 220.753L98.1055 220.389Z" fill="#8468EA"/>
<path d="M97.3125 203.441L98.8964 202.84L97.8193 201.573L97.3125 203.441Z" fill="#E527BB"/>
<path d="M97.3087 203.441L97.087 202.19L95.8516 203.251L97.3087 203.441Z" fill="#E527BB"/>
<path d="M97.0862 202.19L94.948 205.041L91.2734 200.828C92.7148 197.977 93.0474 198.626 93.0474 198.626C93.0474 198.626 95.8825 201.129 97.0862 202.19Z" fill="white"/>
<path d="M97.3125 203.442L97.5976 201.652L98.9122 199.276C98.9122 199.276 99.0072 198.943 99.2448 199.276L99.9576 200.496L99.1656 203.442L97.8035 201.794L97.3125 203.442Z" fill="white"/>
<path d="M91.7819 199.878C91.7819 199.878 97.5472 213.99 98.6242 221.482L93.3341 216.017V210.68L89.7704 210.109L89.707 200.971C89.707 200.986 91.1008 199.989 91.7819 199.878Z" fill="#8468EA"/>
<path d="M97.6883 203.299H96.8806C96.8806 203.299 96.4688 203.964 96.4688 204.297C96.4688 204.645 97.0706 205.39 97.0706 205.39H97.6725L98.2744 204.424L97.6883 203.299Z" fill="#E527BB"/>
<path d="M112.498 217.949H101.633V233.566H112.498V217.949Z" fill="#E527BB"/>
<path d="M102.155 218.06H112.498V217.949H101.633V233.566H102.155V218.06Z" fill="#5E95BB"/>
<path d="M99.0819 223.683C99.0819 223.683 100.476 222.701 101.648 222.764L101.632 223.493C101.632 223.493 104.451 223.778 104.546 224.158C104.641 224.554 104.214 224.871 104.134 224.998C104.134 224.998 104.229 225.394 104.024 225.695C103.818 225.995 103.453 226.154 103.453 226.154C103.453 226.154 103.533 226.692 102.883 226.898C102.883 226.898 102.899 227.516 102.297 227.516C101.695 227.516 98.7651 226.661 98.5117 226.011L99.0819 223.683Z" fill="#F7A282"/>
<path d="M83.9411 202.507C83.9411 202.507 86.4753 204.566 86.5861 208.399C86.697 212.232 84.1945 220.151 83.4026 222.067C83.4026 222.067 86.9029 222.812 99.2412 223.588C99.2412 223.588 99.7322 223.81 98.4651 226.28C98.4651 226.28 83.0541 228.783 77.8907 226.866C77.8907 226.866 76.5444 226.249 77.1621 224.158C77.1463 224.158 80.9634 201.525 83.9411 202.507Z" fill="#8468EA"/>
<path d="M102.887 217.949C102.887 217.949 104.74 215.985 104.74 220.04C104.74 224.095 105.167 228.593 105.358 228.846H113.847C113.847 228.846 112.944 223.857 113.198 221.133C113.53 217.506 112.723 217.474 112.327 217.363H103.663C103.663 217.363 103.251 217.585 102.887 217.949Z" fill="#DFEFFA"/>
<path d="M475.601 281.271V261.72V260.145V222.926V221.35V128.953V127.378V124.81H474.128V127.378H468.491V119.554H466.761H458.606V113.305H466.761V111.73H458.606V105.447H466.761V103.872H458.606H457.286H454.819H453.5H451.735V101.989H429.034H426.824V101.047H451.735V98H401.742V101.047H408.68V101.989H401.742V103.872H408.68V120.479H404.843H403.266H399.686H398.109H394.683V122.379H398.109V130.049H393.843V131.624H398.109V135.887H384.232V137.719H385.071V147.237H383.29V148.967H385.071V156.226H383.564V157.955H385.071V165.847H383.29V167.576H385.071V175.469H382.998V177.198H385.071V185.09H382.741V186.819H385.071V194.712H382.467V196.441H385.071V204.333H382.193V206.062H385.071V213.955H381.919V215.684H385.071V223.576H381.645V225.288H385.071V233.18H381.371V234.91H385.071V242.802H381.097V244.531H385.071V252.423H380.822V254.153H385.071V262.045H380.548V263.774H385.071V271.649H380.274V273.379H385.071V281.271H380V283H385.071H386.219H392.576H395.094H398.092H399.669H403.249H404.826H408.663H409.931H411.61H412.878H415.619H419.937H422.404H423.5H425.077H426.807H429.017H451.718H453.483H454.802H457.269H458.588H466.744H468.474H478V281.271H475.601ZM466.778 135.185H458.623V128.936H464.671H466.778V135.185ZM474.145 213.509H468.508V207.261H474.145V213.509ZM474.145 252.492H468.508V246.414H474.145V252.492ZM419.954 269.355V263.757H422.421V269.355H419.954ZM419.954 262.028V254.136H422.421V262.028H419.954ZM451.752 130.049V128.953H453.517V135.202H451.752V131.624V130.049ZM474.145 197.845H468.508V191.596H474.145V197.845ZM474.145 244.839H468.508V238.59H474.145V244.839ZM466.778 244.839H458.623V238.59H466.778V244.839ZM457.304 244.839H454.836V238.59H457.304V244.839ZM422.421 148.967V156.226H419.954V148.967H422.421ZM422.421 157.955V162.132H419.954V157.955H422.421ZM423.535 210.941V206.045H425.111V210.941H423.535ZM423.535 204.316V196.424H425.111V204.316H423.535ZM423.535 194.694V186.802H425.111V194.694H423.535ZM423.535 185.073V177.181H425.111V185.073H423.535ZM425.111 167.576V172.866H423.535V167.576H425.111ZM426.841 177.181H429.051V185.073H426.841V177.181ZM428.503 175.451V172.849H426.841V167.559H429.051V175.451H428.503ZM422.421 167.576V172.866H419.954V167.576H422.421ZM422.421 177.181V185.073H419.954V177.181H422.421ZM422.421 186.802V194.694H420.913V191.305H419.937V186.819H422.421V186.802ZM422.421 196.424V204.316H419.954V196.424H422.421ZM422.421 206.045V210.941H419.954V206.045H422.421ZM422.421 215.667V223.559H419.954V215.667H422.421ZM422.421 225.288V228.13H419.954V225.288H422.421ZM423.535 228.13V225.288H425.111V228.13H423.535ZM423.535 223.542V215.649H425.111V223.542H423.535ZM426.841 215.667H429.051V223.559H426.841V215.667ZM427.629 213.937V210.941H426.841V206.045H429.051V213.937H427.629ZM426.841 204.316V196.424H429.051V204.316H426.841ZM426.841 194.694V186.802H429.051V194.694H426.841ZM426.841 165.83V162.115V157.938H429.051V165.83H426.841ZM425.111 162.132H423.535V157.955H425.111V162.132ZM415.636 175.451H412.895V167.559H415.636V175.451ZM415.636 177.181V182.18H412.895V177.181H415.636ZM415.636 186.802V194.694H412.895V186.802H415.636ZM415.636 196.424V201.08H412.895V196.424H415.636ZM415.636 206.045V213.937H412.895V206.045H415.636ZM415.636 215.667V221.35H412.895V215.667H415.636ZM415.636 225.288V233.18H412.895V225.288H415.636ZM415.636 234.91V240.268H412.895V234.91H415.636ZM419.954 240.576V234.892H422.421V240.576H419.954ZM426.841 228.13V225.288H429.051V233.18H427.629V228.13H426.841ZM451.752 183.755H453.517V190.004H451.752V183.755ZM451.752 182.18V175.931H453.517V182.18H451.752ZM454.836 175.931H457.304V182.18H454.836V175.931ZM454.836 174.356V168.107H457.304V174.356H454.836ZM453.517 174.356H451.752V168.107H453.517V174.356ZM451.752 166.515V165.83V160.266H453.517V166.515H451.752ZM429.051 156.208H426.841V148.949H429.051V156.208ZM425.111 156.208H423.535V148.949H425.111V156.208ZM423.535 147.22V137.702H425.111V147.22H423.535ZM422.421 137.719V143.813H419.954V137.719H422.421ZM415.636 148.967V156.226H412.895V148.967H415.636ZM415.636 157.955V164.101H412.895V157.955H415.636ZM411.644 175.451H409.965V167.559H411.644V175.451ZM411.644 177.181V182.18H409.965V177.181H411.644ZM411.644 186.802V194.694H409.965V186.802H411.644ZM411.644 196.424V201.08H409.965V196.424H411.644ZM411.644 206.045V213.937H409.965V206.045H411.644ZM411.644 215.667V221.35H409.965V215.667H411.644ZM411.644 225.288V233.18H409.965V225.288H411.644ZM411.644 234.91V240.268H409.965V234.91H411.644ZM423.535 240.576V234.892H425.111V242.785H424.323V240.576H423.535ZM426.841 234.91H429.051V242.802H426.841V234.91ZM451.752 244.839V238.59H453.517V244.839H451.752ZM453.517 246.414V252.492H451.752V246.414H453.517ZM451.752 236.998V230.749H453.517V236.998H451.752ZM451.752 229.174V222.926H453.517V229.174H451.752ZM451.752 221.35V215.102H453.517V221.35H451.752ZM451.752 213.509V207.261H453.517V213.509H451.752ZM451.752 205.668V199.42H453.517V205.668H451.752ZM451.752 197.845V191.596H453.517V197.845H451.752ZM454.836 191.596H457.304V197.845H454.836V191.596ZM454.836 190.021V183.772H457.304V190.021H454.836ZM458.623 183.755H466.778V190.004H458.623V183.755ZM458.623 182.18V175.931H466.778V182.18H458.623ZM458.623 174.356V168.107H466.778V174.356H458.623ZM458.623 166.515V160.266H466.778V166.515H458.623ZM457.304 166.515H454.836V160.266H457.304V166.515ZM454.836 158.691V152.425H457.304V158.691H454.836ZM453.517 158.691H451.752V152.425H453.517V158.691ZM451.752 150.85V148.949V147.22V144.584H453.517V150.833H451.752V150.85ZM429.051 147.22H426.841V137.702H429.051V147.22ZM415.636 131.624V135.887H412.895V131.624H415.636ZM415.636 137.719V144.601H412.895V137.719H415.636ZM411.644 148.967V156.226H409.965V148.967H411.644ZM411.644 157.955V164.101H409.965V157.955H411.644ZM408.698 175.451H404.86V167.559H408.698V175.451ZM408.698 177.181V182.18H405.614V185.073H404.86V177.181H408.698ZM408.698 186.802V194.694H404.86V186.802H408.698ZM408.698 196.424V201.08H406.487V204.316H404.86V196.424H408.698ZM408.698 206.045V213.937H404.86V206.045H408.698ZM408.698 215.667V221.35H406.487V223.559H404.86V215.667H408.698ZM408.698 225.288V233.18H404.86V225.288H408.698ZM408.698 234.91V240.268H405.614V242.785H404.86V234.892H408.698V234.91ZM408.698 244.514V252.406H404.86V244.514H408.698ZM409.965 244.514H411.644V252.406H409.965V244.514ZM412.912 244.514H415.654V252.406H412.912V244.514ZM419.954 244.514H422.421V252.406H419.954V244.514ZM423.535 244.514H425.111V252.406H423.535V244.514ZM426.841 244.514H429.051V252.406H426.841V244.514ZM451.752 254.067H453.517V260.128H451.752V254.067ZM454.836 254.067H457.304V260.128H454.836V254.067ZM454.836 252.492V246.414H457.304V252.492H454.836ZM454.836 236.998V230.749H457.304V236.998H454.836ZM454.836 229.174V222.926H457.304V229.174H454.836ZM454.836 221.35V215.102H457.304V221.35H454.836ZM454.836 213.509V207.261H457.304V213.509H454.836ZM454.836 205.668V199.42H457.304V205.668H454.836ZM458.623 199.42H466.778V205.668H458.623V199.42ZM458.623 197.845V191.596H466.778V197.845H458.623ZM474.145 190.021H468.508V183.772H474.145V190.021ZM474.145 182.18H468.508V175.931H474.145V182.18ZM474.145 174.356H468.508V168.107H474.145V174.356ZM474.145 166.515H468.508V160.266H474.145V166.515ZM474.145 158.691H468.508V152.425H474.145V158.691ZM466.778 158.691H458.623V152.425H466.778V158.691ZM458.623 150.85V144.601H466.778V150.85H458.623ZM457.304 150.85H454.836V144.601H457.304V150.85ZM454.836 143.026V136.777H457.304V143.026H454.836ZM453.517 143.026H451.752V137.719V136.777H453.517V143.026ZM429.051 135.87H427.321V133.901H426.841V131.624H429.051V135.87ZM425.111 133.901H423.535V131.624H425.111V133.901ZM422.421 133.901H419.954V131.624H422.421V133.901ZM419.954 130.049V122.379H422.421V130.049H419.954ZM411.644 131.624V135.887H409.965V131.624H411.644ZM411.644 137.719V144.601H409.965V137.719H411.644ZM408.698 148.967V156.226H404.86V148.967H408.698ZM408.698 157.955V164.101H405.614V165.83H404.86V157.938H408.698V157.955ZM403.284 165.83H399.703V157.938H403.284V165.83ZM403.284 167.576V175.469H399.703V167.576H403.284ZM403.284 177.181V185.073H399.703V177.181H403.284ZM403.284 186.802V194.694H399.703V186.802H403.284ZM403.284 196.424V204.316H399.703V196.424H403.284ZM403.284 206.045V213.937H399.703V206.045H403.284ZM403.284 215.667V223.559H399.703V215.667H403.284ZM403.284 225.288V233.18H399.703V225.288H403.284ZM403.284 234.91V242.802H399.703V234.91H403.284ZM403.284 244.514V252.406H399.703V244.514H403.284ZM403.284 254.136V262.028H399.703V254.136H403.284ZM404.86 254.136H408.698V262.028H404.86V254.136ZM409.965 254.136H411.644V262.028H409.965V254.136ZM412.912 254.136H415.654V262.028H412.912V254.136ZM423.535 254.136H425.111V262.028H423.535V254.136ZM426.841 254.136H429.051V262.028H426.841V254.136ZM451.752 261.703H453.517V267.763H451.752V261.703ZM454.836 261.703H457.304V267.763H454.836V261.703ZM458.623 261.703H466.778V267.763H458.623V261.703ZM458.623 260.128V254.067H466.778V260.128H458.623ZM458.623 252.492V246.414H466.778V252.492H458.623ZM474.145 236.998H468.508V230.749H474.145V236.998ZM466.778 236.998H458.623V230.749H466.778V236.998ZM458.623 229.174V222.926H466.778V229.174H458.623ZM458.623 221.35V215.102H466.778V221.35H458.623ZM458.623 213.509V207.261H466.778V213.509H458.623ZM468.508 205.668V199.42H474.145V205.668H468.508ZM468.508 150.85V144.601H474.145V150.85H468.508ZM474.145 143.026H468.508V136.777H474.145V143.026ZM466.778 143.026H458.623V136.777H466.778V143.026ZM457.304 135.185H454.836V128.936H457.304V135.185ZM454.836 127.361V121.112H457.304V127.361H454.836ZM453.517 127.361H451.752V121.112H453.517V127.361ZM451.752 119.52V113.271H453.517V119.52H451.752ZM429.051 130.049H426.841V122.379H429.051V130.049ZM425.111 130.049H423.535V122.379H425.111V130.049ZM423.535 120.479V103.872H425.111V120.479H423.535ZM422.421 120.479H419.954V103.872H422.421V120.479ZM419.954 101.972V101.03H422.421V101.972H419.954ZM415.636 101.972H412.895V101.03H415.636V101.972ZM415.636 103.855V120.462H412.895V103.855H415.636ZM415.636 122.362V127.755H412.895V122.362H415.636ZM411.644 127.755H409.965V122.362H411.644V127.755ZM408.698 131.624V135.887H404.86V131.624H408.698ZM408.698 137.719V144.601H406.333V147.237H404.86V137.719H408.698ZM403.284 147.22H399.703V137.702H403.284V147.22ZM403.284 148.967V156.226H399.703V148.967H403.284ZM398.127 156.208H395.128V148.949H398.127V156.208ZM398.127 157.955V165.847H395.128V157.955H398.127ZM398.127 167.576V175.469H395.128V167.576H398.127ZM398.127 177.181V185.073H395.128V177.181H398.127ZM398.127 186.802V194.694H395.128V186.802H398.127ZM398.127 196.424V204.316H395.128V196.424H398.127ZM398.127 206.045V213.937H395.128V206.045H398.127ZM398.127 215.667V223.559H395.128V215.667H398.127ZM398.127 225.288V233.18H395.128V225.288H398.127ZM398.127 234.91V242.802H395.128V234.91H398.127ZM398.127 244.514V252.406H395.128V244.514H398.127ZM398.127 254.136V262.028H395.128V254.136H398.127ZM398.127 263.757V271.632H395.128V263.757H398.127ZM399.703 263.757H403.284V271.632H399.703V263.757ZM404.86 263.757H408.698V271.632H404.86V263.757ZM409.965 263.757H411.644V271.632H409.965V263.757ZM412.912 263.757H415.654V271.632H412.912V263.757ZM423.535 269.355V263.757H425.111V271.632H424.323V269.338H423.535V269.355ZM426.841 263.757H429.051V271.632H426.841V263.757ZM451.752 269.355H453.517V275.416H451.752V269.355ZM454.836 269.355H457.304V275.416H454.836V269.355ZM458.623 269.355H466.778V275.416H458.623V269.355ZM468.508 269.355H474.145V275.416H468.508V269.355ZM474.145 267.78H468.508V261.72H474.145V267.78ZM468.508 260.128V254.067H474.145V260.128H468.508ZM474.145 229.174H468.508V222.926H474.145V229.174ZM468.508 221.35V215.102H474.145V221.35H468.508ZM474.145 128.936V135.185H468.508V128.936H474.145ZM466.778 121.112V127.361H464.671H458.623V121.112H466.778ZM457.304 119.52H454.836V113.271H457.304V119.52ZM457.304 105.447V111.696H454.836V105.447H457.304ZM453.517 105.447V111.696H451.752V105.447H453.517ZM429.051 103.855V120.462H426.841V103.855H429.051ZM425.111 101.972H423.535V101.03H425.111V101.972ZM409.965 101.03H411.644V101.972H409.965V101.03ZM409.965 103.855H411.644V120.462H409.965V103.855ZM408.698 122.362V127.755H406.642V130.049H404.86V122.379H408.698V122.362ZM399.703 122.362H403.284V130.032H399.703V122.362ZM399.703 131.624H403.284V135.887H399.703V131.624ZM398.127 137.719V147.237H395.128V137.719H398.127ZM386.236 137.719H392.593V147.237H386.236V137.719ZM386.236 148.967H392.593V156.226H386.236V148.967ZM386.236 157.955H392.593V165.847H386.236V157.955ZM386.236 167.576H392.593V175.469H386.236V167.576ZM386.236 177.181H392.593V185.073H386.236V177.181ZM386.236 186.802H392.593V194.694H386.236V186.802ZM386.236 196.424H392.593V204.316H386.236V196.424ZM386.236 206.045H392.593V213.937H386.236V206.045ZM386.236 215.667H392.593V223.559H386.236V215.667ZM386.236 225.288H392.593V233.18H386.236V225.288ZM386.236 234.91H392.593V242.802H386.236V234.91ZM386.236 244.514H392.593V252.406H386.236V244.514ZM386.236 254.136H392.593V262.028H386.236V254.136ZM386.236 263.757H392.593V271.632H386.236V263.757ZM386.236 281.271V273.379H392.593V281.271H386.236ZM395.128 281.271V273.379H398.127V281.271H395.128ZM399.703 281.271V273.379H403.284V281.271H399.703ZM404.86 281.271V273.379H408.698V281.271H404.86ZM409.965 281.271V273.379H411.644V281.271H409.965ZM412.912 281.271V273.379H415.654V281.271H412.912ZM419.954 281.271V273.379H422.421V281.271H419.954ZM423.535 281.271V273.379H425.111V281.271H423.535ZM426.841 281.271V273.379H429.051V281.271H426.841ZM451.752 281.271V277.008H453.517V281.271H451.752ZM454.836 281.271V277.008H457.304V281.271H454.836ZM458.623 281.271V277.008H466.778V281.271H458.623ZM468.508 277.008H474.145V281.271H468.508V277.008Z" fill="#CEC9C9"/>
</g>
<defs>
<clipPath id="clip0_1224_4446">
<rect width="542.64" height="328.79" fill="white"/>
</clipPath>
<clipPath id="clip1_1224_4446">
<rect width="313.24" height="307.62" fill="white" transform="translate(110 18)"/>
</clipPath>
</defs>
</svg>
