<svg width="544" height="329" viewBox="0 0 544 329" fill="none" xmlns="http://www.w3.org/2000/svg">
<g clip-path="url(#clip0_1882_6368)">
<path opacity="0.2" d="M79.5302 327.839C42.2303 290.535 -8.75205 252.012 11.2371 193.818C24.39 155.541 56.6226 144.88 83.428 121.276C96.6509 109.631 88.3354 92.6757 88.0855 75.8481C87.5258 32.7513 139.878 -0.687543 188.011 0.010739C240.143 0.768031 262.711 48.9102 306.447 51.4968C323.618 51.7426 339 42.4781 354.191 35.1314C399.207 13.3371 470.648 27.2339 474.256 79.9296C475.186 108.392 439.925 154.174 475.256 169.143C503.411 181.072 531.855 185.469 536.933 228.133C543.579 283.976 508.458 314.621 462.713 329L79.5302 327.839Z" fill="#999999"/>
<path d="M321.131 65.5996H169V217.731H321.131V65.5996Z" fill="#E5E5FF"/>
<path d="M217.601 174.84H152.363V199.666H217.601V174.84Z" stroke="white" stroke-width="0.5264" stroke-miterlimit="10"/>
<path d="M417.533 145.57H285.293V277.81H417.533V145.57Z" fill="#A78BEF"/>
<path d="M210.466 169.26H152.258C149.202 169.26 146.73 166.789 146.73 163.733V146.688C146.73 143.632 149.202 141.16 152.258 141.16H210.466C213.523 141.16 215.994 143.632 215.994 146.688V163.733C215.994 166.781 213.514 169.26 210.466 169.26Z" fill="#E527BB"/>
<path d="M190.025 158.756H157.297C155.655 158.756 154.328 157.428 154.328 155.787C154.328 154.145 155.655 152.818 157.297 152.818H190.025C191.667 152.818 192.994 154.145 192.994 155.787C192.994 157.428 191.658 158.756 190.025 158.756Z" fill="#A78BEF"/>
<path d="M163.759 155.202L163.497 154.748L162.484 155.333V154.171H161.969V155.333L160.956 154.748L160.703 155.202L161.707 155.787L160.703 156.363L160.956 156.817L161.969 156.232V157.394H162.484V156.232L163.497 156.817L163.759 156.363L162.746 155.787L163.759 155.202Z" fill="white"/>
<path d="M169.47 155.202L169.208 154.748L168.204 155.333V154.171H167.68V155.333L166.676 154.748L166.414 155.202L167.418 155.787L166.414 156.363L166.676 156.817L167.68 156.232V157.394H168.204V156.232L169.208 156.817L169.47 156.363L168.466 155.787L169.47 155.202Z" fill="white"/>
<path d="M175.189 155.202L174.927 154.748L173.923 155.333V154.171H173.399V155.333L172.395 154.748L172.133 155.202L173.137 155.787L172.133 156.363L172.395 156.817L173.399 156.232V157.394H173.923V156.232L174.927 156.817L175.189 156.363L174.185 155.787L175.189 155.202Z" fill="white"/>
<path d="M180.9 155.202L180.638 154.748L179.634 155.333V154.171H179.11V155.333L178.106 154.748L177.844 155.202L178.857 155.787L177.844 156.363L178.106 156.817L179.11 156.232V157.394H179.634V156.232L180.638 156.817L180.9 156.363L179.896 155.787L180.9 155.202Z" fill="white"/>
<path d="M186.619 155.202L186.357 154.748L185.353 155.333V154.171H184.829V155.333L183.824 154.748L183.562 155.202L184.567 155.787L183.562 156.363L183.824 156.817L184.829 156.232V157.394H185.353V156.232L186.357 156.817L186.619 156.363L185.615 155.787L186.619 155.202Z" fill="white"/>
<path d="M295.759 175.678H206.752L201.539 116.195H290.546L295.759 175.678Z" fill="white"/>
<path d="M203.67 180.691H207.198L201.54 116.195H198.012L203.67 180.691Z" fill="#D1D1D1"/>
<path d="M293.052 173.199H209.031L204.246 118.666H288.267L293.052 173.199Z" fill="#E527BB"/>
<path d="M255.703 144.225H241.286C240.404 144.225 239.618 143.509 239.54 142.618L239.007 136.558C238.579 131.703 242.186 127.748 247.049 127.748C251.905 127.748 256.209 131.703 256.637 136.558L257.17 142.618C257.249 143.509 256.594 144.225 255.703 144.225ZM241.417 142.33H255.249L254.742 136.558C254.411 132.742 251.031 129.642 247.215 129.642C243.399 129.642 240.57 132.742 240.902 136.558L241.417 142.33Z" fill="#A78BEF"/>
<path d="M259.295 158.197H240.163C239.49 158.197 238.888 157.647 238.827 156.974L237.255 139.038C237.194 138.366 237.7 137.816 238.373 137.816H257.505C258.177 137.816 258.78 138.366 258.841 139.038L260.413 156.974C260.474 157.647 259.967 158.197 259.295 158.197Z" fill="white"/>
<path d="M252.816 151.499L251.532 147.561C251.916 147.151 252.126 146.583 252.073 145.954C251.96 144.706 250.868 143.701 249.62 143.701C248.371 143.701 247.454 144.714 247.559 145.954C247.611 146.583 247.926 147.151 248.38 147.561L247.786 151.499H252.816Z" fill="#A78BEF"/>
<path d="M240.075 137.807H238.373C237.7 137.807 237.194 138.357 237.255 139.03L238.827 156.965C238.888 157.638 239.482 158.188 240.163 158.188H241.866L240.075 137.807Z" fill="#A78BEF"/>
<path d="M317.198 175.678H206.754L207.199 180.691H317.198V175.678Z" fill="#D1D1D1"/>
<path d="M402.859 212.991C402.859 212.991 406.596 207.839 409.914 209.944C413.224 212.057 407.853 217.453 407.853 217.453C407.853 217.453 410.002 218.257 409.574 220.719C409.146 223.182 403.374 227.259 403.374 227.259C403.374 227.259 405.583 228.622 404.902 231.678C404.221 234.734 397.34 238.699 397.34 238.699C397.34 238.699 403.583 245.195 391.647 258.529H376.182C376.182 258.529 375.676 242.383 378.051 237.118C380.426 231.853 384.469 233.983 384.469 233.983C384.469 233.983 384.617 224.116 387.115 222.02C390.555 219.13 392.93 222.387 392.93 222.387C392.93 222.387 394.083 213.698 397.288 211.664C400.318 209.743 402.859 212.991 402.859 212.991Z" fill="#319E5D"/>
<path d="M407.848 211.891C407.848 211.891 390.558 228.543 383.145 258.538" stroke="#1B1C3B" stroke-width="0.5264" stroke-miterlimit="10"/>
<path d="M360.762 208.52C366.228 205.656 369.346 211.969 368.831 215.881C373.598 214.179 376.48 221.487 374.524 225.906C381.318 223.609 381.58 233.808 380.645 236.699C387.954 237.467 391.098 245.876 388.976 258.538H369.084C369.084 258.538 359.994 247.92 366.962 242.139C361.015 240.358 359.234 232.542 363.565 230.84C359.575 228.718 356.85 222.177 360.963 220.448C357.391 218.178 355.994 211.018 360.762 208.52Z" fill="#257847"/>
<path d="M361.359 209.952C361.359 209.952 376.483 234.778 380.221 267.462" stroke="#1B1C3B" stroke-width="0.5264" stroke-miterlimit="10"/>
<path d="M360.414 255.857L363.523 301.151C363.593 302.19 371.216 303.019 380.542 303.019C389.868 303.019 397.491 302.181 397.561 301.151L400.669 255.857H360.414Z" fill="#37395C"/>
<path d="M363.004 260.86H398.063" stroke="#1B1C3B" stroke-width="0.9016" stroke-miterlimit="10"/>
<path d="M363.004 263.576H398.063" stroke="#1B1C3B" stroke-width="0.9016" stroke-miterlimit="10"/>
<path d="M400.136 263.576C399.752 269.208 392.225 297.055 374.105 302.871C376.096 302.958 378.262 303.011 380.541 303.011C389.867 303.011 397.49 302.172 397.56 301.142L400.136 263.576Z" fill="#1B1C3B"/>
<path d="M258.133 315.602H173.012L189.839 188.445L196.606 189.335L180.81 308.774H250.335L234.538 189.335L241.306 188.445L258.133 315.602Z" fill="#5C3030"/>
<path d="M254.229 315.602H169.117L185.944 188.445L192.711 189.335L176.906 308.774H246.44L230.644 189.335L237.411 188.445L254.229 315.602Z" fill="#FF824D"/>
<path d="M195.002 201.456L196.608 189.335L189.841 188.445L189.771 188.951L185.947 188.445L184.488 199.447L195.002 201.456Z" fill="#5C3030"/>
<path d="M237.482 188.951L237.412 188.445L230.645 189.335L233.212 208.773L244.275 210.886L241.306 188.445L237.482 188.951Z" fill="#5C3030"/>
<path d="M371.982 307.167H289.848L306.081 184.463L312.612 185.328L297.366 300.574H364.464L349.218 185.328L355.749 184.463L371.982 307.167Z" fill="#5C3030"/>
<path d="M368.877 307.167H286.742L302.975 184.463L309.507 185.328L294.261 300.574H361.358L346.112 185.328L352.644 184.463L368.877 307.167Z" fill="#FF824D"/>
<path d="M181.475 74.1849C181.475 75.1716 180.671 75.975 179.685 75.975C178.698 75.975 177.895 75.1716 177.895 74.1849C177.895 73.1981 178.698 72.3948 179.685 72.3948C180.68 72.3948 181.475 73.1894 181.475 74.1849Z" fill="white"/>
<path d="M189.385 74.1849C189.385 75.1716 188.582 75.975 187.595 75.975C186.608 75.975 185.805 75.1716 185.805 74.1849C185.805 73.1981 186.608 72.3948 187.595 72.3948C188.582 72.3948 189.385 73.1894 189.385 74.1849Z" fill="white"/>
<path d="M197.299 74.1849C197.299 75.1716 196.496 75.975 195.509 75.975C194.522 75.975 193.719 75.1716 193.719 74.1849C193.719 73.1981 194.522 72.3948 195.509 72.3948C196.496 72.3948 197.299 73.1894 197.299 74.1849Z" fill="white"/>
<path d="M205.209 74.1849C205.209 75.1716 204.406 75.975 203.419 75.975C202.432 75.975 201.629 75.1716 201.629 74.1849C201.629 73.1981 202.432 72.3948 203.419 72.3948C204.406 72.3948 205.209 73.1894 205.209 74.1849Z" fill="white"/>
<path d="M213.119 74.1849C213.119 75.1716 212.316 75.975 211.329 75.975C210.342 75.975 209.539 75.1716 209.539 74.1849C209.539 73.1981 210.342 72.3948 211.329 72.3948C212.316 72.3948 213.119 73.1894 213.119 74.1849Z" fill="white"/>
<path d="M406.458 159.166C405.471 159.166 404.668 158.363 404.668 157.376C404.668 156.389 405.471 155.586 406.458 155.586C407.445 155.586 408.248 156.389 408.248 157.376C408.248 158.371 407.445 159.166 406.458 159.166Z" fill="white"/>
<path d="M406.458 167.077C405.471 167.077 404.668 166.274 404.668 165.287C404.668 164.301 405.471 163.497 406.458 163.497C407.445 163.497 408.248 164.301 408.248 165.287C408.248 166.283 407.445 167.077 406.458 167.077Z" fill="white"/>
<path d="M406.458 174.989C405.471 174.989 404.668 174.185 404.668 173.199C404.668 172.212 405.471 171.408 406.458 171.408C407.445 171.408 408.248 172.212 408.248 173.199C408.248 174.185 407.445 174.989 406.458 174.989Z" fill="white"/>
<path d="M406.458 182.9C405.471 182.9 404.668 182.097 404.668 181.11C404.668 180.123 405.471 179.32 406.458 179.32C407.445 179.32 408.248 180.123 408.248 181.11C408.248 182.097 407.445 182.9 406.458 182.9Z" fill="white"/>
<path d="M406.458 190.811C407.447 190.811 408.248 190.01 408.248 189.021C408.248 188.033 407.447 187.231 406.458 187.231C405.469 187.231 404.668 188.033 404.668 189.021C404.668 190.01 405.469 190.811 406.458 190.811Z" fill="white"/>
<path d="M359.199 186.471H173.012V194.226H359.199V186.471Z" fill="#FF824D"/>
<path d="M359.199 194.226L173.012 190.349V186.471H359.199V194.226Z" fill="#5C3030"/>
<path d="M361.084 180.691H171.125V188.445H361.084V180.691Z" fill="#FF824D"/>
<path d="M157.815 252.5C157.815 252.5 160.443 248.867 162.784 250.36C165.115 251.845 161.334 255.643 161.334 255.643C161.334 255.643 162.845 256.211 162.548 257.94C162.251 259.677 158.182 262.541 158.182 262.541C158.182 262.541 159.736 263.502 159.256 265.65C158.775 267.807 153.929 270.593 153.929 270.593C153.929 270.593 158.321 275.159 149.921 284.555H139.032C139.032 284.555 138.674 273.186 140.351 269.484C142.027 265.772 144.865 267.274 144.865 267.274C144.865 267.274 144.97 260.332 146.725 258.857C149.153 256.822 150.82 259.118 150.82 259.118C150.82 259.118 151.633 253.006 153.885 251.565C156.034 250.212 157.815 252.5 157.815 252.5Z" fill="#39B039"/>
<path d="M161.297 251.426C161.297 251.426 149.124 263.154 143.902 284.268" stroke="#1B1C3B" stroke-width="0.5264" stroke-miterlimit="10"/>
<path d="M128.147 249.509C131.997 247.492 134.189 251.937 133.831 254.696C137.184 253.5 139.219 258.643 137.839 261.751C142.624 260.136 142.808 267.314 142.144 269.348C147.287 269.89 149.505 275.81 148.003 284.717H134.015C134.015 284.717 127.614 277.242 132.521 273.173C128.33 271.916 127.081 266.414 130.129 265.218C127.317 263.725 125.405 259.114 128.295 257.901C125.78 256.311 124.793 251.273 128.147 249.509Z" fill="#22A622"/>
<path d="M128.566 250.064C128.566 250.064 139.211 267.537 141.848 290.546" stroke="#1B1C3B" stroke-width="0.5264" stroke-miterlimit="10"/>
<path d="M127.902 282.382L130.085 314.271C130.138 315.005 135.499 315.59 142.066 315.59C148.632 315.59 154.003 315.005 154.046 314.271L156.229 282.382H127.902Z" fill="#E74E1B"/>
<path d="M129.738 285.901H154.415" stroke="#1B1C3B" stroke-width="1.0597" stroke-miterlimit="10"/>
<path d="M129.738 287.822H154.415" stroke="#1B1C3B" stroke-width="1.0597" stroke-miterlimit="10"/>
<path d="M155.872 287.822C155.601 291.786 150.301 311.39 137.543 315.485C138.94 315.546 140.468 315.581 142.075 315.581C148.642 315.581 154.012 314.996 154.055 314.263L155.872 287.822Z" fill="#D33D16"/>
<path d="M298.095 79.8957C298.095 67.3564 287.93 57.1921 275.391 57.1921C262.852 57.1921 252.688 67.3564 252.688 79.8957C252.688 90.9943 260.651 100.224 271.165 102.206L275.391 112.423L279.617 102.206C290.131 100.224 298.095 90.9943 298.095 79.8957Z" fill="#E527BB"/>
<path d="M275.391 85.7461C271.689 85.7461 268.231 84.1219 266.353 81.4935L266.152 81.2141L266.353 80.9347C268.231 78.315 271.689 76.6821 275.391 76.6821C279.085 76.6821 282.551 78.315 284.42 80.9347L284.621 81.2141L284.42 81.4935C282.551 84.1132 279.085 85.7461 275.391 85.7461ZM267.34 81.2141C269.078 83.4321 272.134 84.7943 275.391 84.7943C278.657 84.7943 281.704 83.4321 283.442 81.2141C281.704 78.9961 278.648 77.6339 275.391 77.6339C272.125 77.6427 269.078 79.0049 267.34 81.2141Z" fill="white"/>
<path d="M286.578 81.4674C284.273 77.6078 279.985 75.2065 275.392 75.2065C270.799 75.2065 266.512 77.6078 264.206 81.4674L263.359 80.9609C265.848 76.8044 270.459 74.2197 275.392 74.2197C280.326 74.2197 284.945 76.8044 287.425 80.9609L286.578 81.4674Z" fill="white"/>
<path d="M278.3 81.2142C278.3 82.8209 276.999 84.122 275.392 84.122C273.785 84.122 272.484 82.8209 272.484 81.2142C272.484 79.6075 273.785 78.3064 275.392 78.3064C276.999 78.3064 278.3 79.6075 278.3 81.2142Z" fill="#A78BEF"/>
<path d="M277.527 73.4513C277.816 73.495 278.095 73.5474 278.374 73.5998L279.641 69.81C279.361 69.7489 279.082 69.6965 278.794 69.6528L277.527 73.4513Z" fill="white"/>
<path d="M280.125 74.0626C280.404 74.1587 280.684 74.2547 280.963 74.3595L283.4 71.05C283.138 70.9365 282.867 70.8143 282.596 70.7095L280.125 74.0626Z" fill="white"/>
<path d="M286.361 72.6479L282.824 75.2414C283.095 75.3898 283.357 75.547 283.619 75.7129L287.103 73.1631C286.858 72.9885 286.614 72.8139 286.361 72.6479Z" fill="white"/>
<path d="M264.896 77.4766C265.132 77.2583 265.368 77.0488 265.612 76.8479L261.307 75.1277C261.089 75.3373 260.871 75.5643 260.652 75.7826L264.896 77.4766Z" fill="white"/>
<path d="M267.155 75.7129C267.417 75.547 267.679 75.3898 267.95 75.2414L264.413 72.6479C264.16 72.8139 263.924 72.9885 263.68 73.1631L267.155 75.7129Z" fill="white"/>
<path d="M274.965 69.3558V73.3115C275.105 73.3115 275.244 73.294 275.393 73.294C275.532 73.294 275.672 73.3028 275.821 73.3115V69.3558C275.681 69.3558 275.541 69.3384 275.393 69.3384C275.244 69.3384 275.105 69.3558 274.965 69.3558Z" fill="white"/>
<path d="M269.811 74.3595C270.082 74.2547 270.361 74.1499 270.65 74.0626L268.178 70.7095C267.908 70.8143 267.637 70.9365 267.375 71.05L269.811 74.3595Z" fill="white"/>
<path d="M289.469 75.1277L285.164 76.8479C285.409 77.0488 285.644 77.2583 285.88 77.4766L290.124 75.7826C289.914 75.5643 289.696 75.3373 289.469 75.1277Z" fill="white"/>
<path d="M272.395 73.5998C272.675 73.5474 272.954 73.495 273.242 73.4513L271.976 69.6528C271.696 69.7052 271.408 69.7489 271.129 69.81L272.395 73.5998Z" fill="white"/>
<path d="M370.648 67.1555C356.197 67.1555 344.478 78.8741 344.478 93.3258C344.478 97.3338 345.386 101.132 346.993 104.529L340.086 113.846L351.708 111.384C356.476 116.379 363.191 119.496 370.64 119.496C385.091 119.496 396.81 107.777 396.81 93.3258C396.81 78.8741 385.1 67.1555 370.648 67.1555Z" fill="#E527BB"/>
<path d="M354.47 81.6597L353.632 82.9171L353.222 83.5371L350.672 87.3618L352.069 88.2961L354.008 85.3796L354.951 86.0083L353.012 88.9248L353.946 89.5448L355.885 86.6283L357.291 87.5626L355.352 90.4791L357.195 91.7016L359.745 87.877L373.253 96.8798C372.24 99.351 373.061 102.276 375.375 103.813C378.003 105.568 381.557 104.852 383.313 102.224C385.068 99.5955 384.352 96.0415 381.723 94.2864C379.418 92.7495 376.397 93.1075 374.502 94.9937L354.47 81.6597ZM376.982 98.0237C377.549 97.168 378.711 96.9322 379.567 97.5085C380.422 98.0761 380.658 99.2375 380.082 100.093C379.514 100.949 378.353 101.185 377.497 100.608C376.641 100.041 376.414 98.8882 376.982 98.0237Z" fill="#37395C"/>
<path d="M355.623 81.0046L354.784 82.2621L354.374 82.8821L351.824 86.7067L353.221 87.6323L355.16 84.7158L356.103 85.3445L354.164 88.2611L355.099 88.881L357.037 85.9645L358.443 86.8988L356.505 89.8154L358.347 91.0379L360.897 87.2132L374.406 96.216C373.393 98.6872 374.222 101.613 376.527 103.149C379.156 104.905 382.71 104.188 384.465 101.56C386.22 98.9317 385.504 95.3777 382.876 93.6226C380.57 92.0857 377.549 92.4438 375.654 94.3299L355.623 81.0046ZM378.143 97.3687C378.711 96.5129 379.872 96.2772 380.728 96.8535C381.583 97.4211 381.819 98.5824 381.243 99.4382C380.675 100.294 379.514 100.53 378.658 99.9534C377.802 99.3771 377.567 98.2244 378.143 97.3687Z" fill="white"/>
<path d="M358.852 57L361.244 65.9504" stroke="#E527BB" stroke-width="1.5908" stroke-miterlimit="10"/>
<path d="M349.719 60.8162L354.347 68.841" stroke="#E527BB" stroke-width="1.5908" stroke-miterlimit="10"/>
<path d="M341.879 66.8586L348.437 73.4165" stroke="#E527BB" stroke-width="1.5908" stroke-miterlimit="10"/>
<path d="M335.879 74.7351L343.904 79.3631" stroke="#E527BB" stroke-width="1.5908" stroke-miterlimit="10"/>
<path d="M332.113 83.8862L341.064 86.2876" stroke="#E527BB" stroke-width="1.5908" stroke-miterlimit="10"/>
<path d="M330.855 93.7012H340.12" stroke="#E527BB" stroke-width="1.5908" stroke-miterlimit="10"/>
<path d="M286.47 310.084L278.437 315.987C278.437 315.987 266.91 317.908 266.771 318.973C266.631 320.038 281.353 319.759 287.116 319.541C290.81 319.401 295.167 319.322 297.831 319.287C299.106 319.27 300.04 318.1 299.778 316.851L298.355 309.935L286.47 310.084Z" fill="#A78BEF"/>
<path d="M355.395 194.392C355.395 194.392 346.916 193.003 331.129 193.431C315.341 193.859 305.098 197.553 303.107 211.07C301.116 224.587 324.798 301.972 324.798 301.972H346.488C346.488 301.972 346.087 295.283 342.734 290.305C342.934 281.626 341.083 267.122 337.669 262.424C338.376 252.321 338.953 237.668 334.543 229.844H363.359L355.395 194.392Z" fill="black"/>
<path d="M344.359 298.095H325.375" stroke="#30318A" stroke-width="0.5264" stroke-miterlimit="10"/>
<path d="M309.007 101.682C309.007 101.682 308.012 104.669 308.082 108.013L306.23 112.283H308.51C308.51 112.283 307.654 117.4 309.365 119.609C311.068 121.819 314.255 120.317 314.255 120.317L317.041 126.298H332.829L326.428 116.981L325.502 103.542L317.346 99.77L309.007 101.682Z" fill="#FF8585"/>
<path d="M314.258 120.317C317.148 118.867 318.877 116.518 318.877 116.518L320.047 126.298H317.043L314.258 120.317Z" fill="#D95959"/>
<path d="M317.193 102.11C317.193 102.11 316.555 106.808 319.542 108.153L319.585 110.668C319.585 110.668 319.751 107.655 321.812 108.232C323.873 108.799 322.807 113.349 320.389 114.204C320.389 114.204 321.742 116.195 326.431 116.981C326.431 116.981 329.514 107.009 330.073 105.018C331.051 101.551 327.925 99.0628 325.855 99.4819C325.427 95.5699 317.324 95.2818 312.696 96.2773C308.076 97.2727 304.164 98.1285 304.444 101.255C304.741 104.389 317.193 102.11 317.193 102.11Z" fill="#1B1C3B"/>
<path d="M228.769 171.409L222.796 172.159C222.796 172.159 219.007 170.238 215.916 169.549C212.824 168.859 209.777 169.549 209.192 170.404C208.607 171.26 213.086 170.3 215.06 171.898C209.777 172.963 208.502 173.6 207.961 175.949C206.677 177.39 207.157 178.455 207.157 178.455C207.157 178.455 206.52 178.726 206.406 180.7H228.507L228.769 171.409Z" fill="#FF8585"/>
<path d="M208.344 175.678C208.344 175.678 212.823 173.949 215.705 174.84" stroke="#37395C" stroke-width="0.602" stroke-miterlimit="10"/>
<path d="M207.867 178.289C207.867 178.289 212.137 176.744 214.905 177.6" stroke="#37395C" stroke-width="0.602" stroke-miterlimit="10"/>
<path d="M313.071 125.163C324.379 125.163 334.945 125.163 344.114 125.163C353.292 125.163 360.33 134.978 359.474 144.688L368.433 203.368H306.871C306.871 203.368 304.313 198.565 306.871 195.579C306.871 195.579 302.706 183.634 303.352 178.508C303.352 178.508 293.965 164.851 293.747 158.878C293.747 158.878 280.841 176.805 275.183 182.778C267.324 191.082 227.068 180.857 227.068 180.857C227.068 180.857 225.497 176.831 228.195 171.601C228.431 171.155 228.841 170.823 229.321 170.684C230.334 170.387 232.22 169.933 234.107 170.081C234.107 170.081 238.377 167.2 244.882 167.523C244.882 167.523 251.387 164.318 257.788 164.859C257.788 164.859 282.544 139.143 288.726 133.494C294.908 127.844 300.593 125.163 313.071 125.163Z" fill="#A78BEF"/>
<path d="M300.627 148.626L293.266 158.651C293.475 164.624 302.871 178.281 302.871 178.281C299.134 170.177 300.627 148.626 300.627 148.626Z" fill="#1B1C3B"/>
<path d="M314.85 166.484L306.746 176.01" stroke="#1B1C3B" stroke-width="0.602" stroke-miterlimit="10"/>
<path d="M308.449 179.285H313.287" stroke="#1B1C3B" stroke-width="0.602" stroke-miterlimit="10"/>
<path d="M257.313 164.633L253.113 169.968" stroke="#1B1C3B" stroke-width="0.602" stroke-miterlimit="10"/>
<path d="M258.238 165.698C258.238 165.698 261.443 166.335 266.35 165.13" stroke="#1B1C3B" stroke-width="0.602" stroke-miterlimit="10"/>
<path d="M257.883 167.304C257.883 167.304 262.79 170.046 264.572 172.675" stroke="#1B1C3B" stroke-width="0.602" stroke-miterlimit="10"/>
<path d="M231.092 169.968C229.005 172.745 228.865 177.224 229.075 179.713" stroke="#1B1C3B" stroke-width="0.602" stroke-miterlimit="10"/>
<path d="M338.752 203.15C338.752 203.15 303.186 201.762 287.398 202.19C271.61 202.617 261.368 206.311 259.377 219.828C257.386 233.346 281.067 310.73 281.067 310.73H302.758C302.758 310.73 302.356 304.041 299.003 299.064C299.204 290.384 297.353 275.88 293.938 271.182C294.646 261.079 295.222 246.427 290.812 238.603H346.716L338.752 203.15Z" fill="black"/>
<path d="M283.414 272.038C290.81 280.569 298.232 291.1 299.001 299.064C299.202 290.384 297.35 275.88 293.936 271.182C294.644 261.079 295.22 246.427 290.81 238.603L269.469 232.63C269.477 232.63 285.125 258.521 283.414 272.038Z" fill="#151730"/>
<path d="M281.641 306.853H300.624" stroke="#080947" stroke-width="0.5264" stroke-miterlimit="10"/>
<path d="M273.035 226.089L289.251 236.76" stroke="#080947" stroke-width="0.5264" stroke-miterlimit="10"/>
<path d="M331.755 301.334L323.722 307.237C323.722 307.237 312.195 309.158 312.056 310.223C311.916 311.289 326.638 311.009 332.402 310.791C336.095 310.651 340.453 310.573 343.116 310.538C344.391 310.52 345.325 309.35 345.063 308.101L343.64 301.186L331.755 301.334Z" fill="#A78BEF"/>
<path d="M287.091 235.214H283.484V200.356C283.484 192.741 289.684 186.541 297.299 186.541H336.733V190.148H297.299C291.666 190.148 287.091 194.723 287.091 200.356V235.214Z" fill="white"/>
<path d="M338.245 313.498L341.144 243.58H326.413L330.465 313.349C330.613 315.96 328.605 318.178 325.994 318.327C314.703 318.938 306.469 320.842 306.469 323.103C306.469 325.854 318.694 328.081 333.783 328.081C348.863 328.081 361.097 325.854 361.097 323.103C361.097 320.92 353.395 319.069 342.69 318.397C340.114 318.231 338.14 316.074 338.245 313.498Z" fill="#E74E1B"/>
<path d="M341.141 243.588H326.41L327.938 269.837C331.449 273.845 335.623 278.726 339.491 283.564L341.141 243.588Z" fill="#BF3939"/>
<path d="M362.859 127.748C347.019 127.748 333.624 139.449 331.484 155.14L324.953 203.211C323.599 213.148 308.772 231.486 283.117 231.101C281.039 231.066 279.336 232.734 279.336 234.813C279.336 239.065 282.279 242.75 286.426 243.693C297.866 246.278 321.748 250.574 347.674 248.636C367.216 247.177 383.1 232.315 385.737 212.904L393.91 152.73C395.709 139.51 385.431 127.739 372.089 127.739H362.859V127.748Z" fill="#E527BB"/>
<path d="M342.957 155.21H385.404" stroke="#BF3939" stroke-width="1.0527" stroke-miterlimit="10"/>
<path d="M341.547 168.09H383.994" stroke="#BF3939" stroke-width="1.0527" stroke-miterlimit="10"/>
<path d="M340.137 180.97H382.575" stroke="#BF3939" stroke-width="1.0527" stroke-miterlimit="10"/>
<path d="M338.727 193.85H381.174" stroke="#BF3939" stroke-width="1.0527" stroke-miterlimit="10"/>
<path d="M337.309 206.73H379.756" stroke="#BF3939" stroke-width="1.0527" stroke-miterlimit="10"/>
<path d="M196.373 134.079C196.373 134.611 195.963 135.074 195.465 135.1L163.444 136.759C162.859 136.786 162.379 136.34 162.379 135.764V88.261C162.379 87.6759 162.859 87.2393 163.444 87.2742L163.872 87.248L195.465 89.2215C195.971 89.2564 196.373 89.7105 196.373 90.2519V134.079Z" fill="#97A6B7"/>
<path d="M196.998 134.052C196.998 134.585 196.588 135.048 196.09 135.074L164.069 136.733C163.484 136.759 163.004 136.314 163.004 135.738V88.2348C163.004 87.6497 163.484 87.2131 164.069 87.2481L196.09 89.204C196.596 89.239 196.998 89.693 196.998 90.2344V134.052Z" fill="#E527BB"/>
<path d="M172.376 91.7101C171.581 92.7318 171.468 94.6703 172.83 95.4649C175.79 97.2812 179.65 96.7136 182.496 94.7838C184.592 93.3168 183.702 90.6011 183.099 88.4094L176.803 88.0251C176.262 89.5358 173.371 90.3828 172.376 91.7101Z" fill="#D8DEE8"/>
<path d="M195.499 132.149C195.499 132.62 195.141 133.022 194.687 133.048L165.696 134.401C165.181 134.428 164.762 134.035 164.762 133.52V92.8627C164.762 92.3475 165.181 91.9545 165.696 91.9807L194.687 93.439C195.132 93.4652 195.499 93.8669 195.499 94.3384V132.149Z" fill="white"/>
<path d="M187.543 92.1556C187.5 91.9023 187.308 91.7277 187.063 91.719L185.535 91.6404C184.845 91.6054 184.347 91.0291 184.382 90.3043L184.461 88.6278C184.478 88.3222 184.26 88.0689 183.963 88.0515L183.474 88.0165C183.099 87.9903 182.845 87.6585 182.898 87.2656C183.003 86.5757 182.549 85.9819 181.885 85.9295C181.213 85.8859 180.584 86.4098 180.479 87.1084C180.453 87.3005 180.348 87.4751 180.2 87.5974C180.051 87.7196 179.868 87.7895 179.684 87.772L179.178 87.7371C178.872 87.7196 178.584 87.9379 178.506 88.2523L178.069 89.9289C177.877 90.6536 177.196 91.1776 176.48 91.1339L174.873 91.0466C174.611 91.0291 174.349 91.1863 174.227 91.4395L173.074 93.7535L173.17 93.8758L187.945 94.4521L187.543 92.1556ZM181.658 87.3791C181.466 87.3703 181.326 87.1957 181.361 86.9861C181.396 86.7853 181.579 86.6281 181.771 86.6368C181.964 86.6456 182.103 86.8202 182.068 87.0298C182.042 87.2306 181.859 87.3878 181.658 87.3791Z" fill="url(#paint0_linear_1882_6368)"/>
<path d="M187.649 92.2776C187.605 92.0244 187.413 91.8498 187.169 91.841L185.64 91.7624C184.951 91.7275 184.453 91.1512 184.488 90.4264L184.566 88.7498C184.584 88.4442 184.366 88.191 184.069 88.1735L183.58 88.1386C183.204 88.1124 182.951 87.7806 183.003 87.3876C183.108 86.6978 182.654 86.104 181.99 86.0516C181.318 86.008 180.689 86.5319 180.585 87.2305C180.558 87.4226 180.454 87.5972 180.305 87.7195C180.157 87.8417 179.973 87.9116 179.79 87.8941L179.283 87.8592C178.978 87.8417 178.69 88.06 178.611 88.3744L178.174 90.0509C177.982 90.7757 177.301 91.2996 176.585 91.256L174.979 91.1686C174.717 91.1512 174.455 91.3084 174.332 91.5616L173.18 93.8756L188.059 94.5742L187.649 92.2776ZM181.763 87.5011C181.571 87.4924 181.432 87.3178 181.466 87.1082C181.501 86.9074 181.685 86.7502 181.877 86.7589C182.069 86.7676 182.209 86.9423 182.174 87.1519C182.139 87.3614 181.955 87.5099 181.763 87.5011Z" fill="#A78BEF"/>
<path opacity="0.3" d="M187.157 91.8411L185.629 91.7625C185.175 91.7363 184.799 91.4743 184.607 91.0901C183.192 91.387 181.699 91.0726 180.215 91.3783C179.193 91.6053 179.307 93.1945 178.171 93.3081C176.539 93.5264 174.923 93.5438 173.334 93.5613L173.168 93.8931L188.048 94.5917L187.646 92.2777C187.602 92.0332 187.401 91.8498 187.157 91.8411Z" fill="#97A6B7"/>
<path d="M193.368 99.997L167.434 99.3682V95.9714L193.368 96.7748V99.997Z" fill="#D8DEE8"/>
<path d="M193.368 110.641L167.434 110.607V101.936L193.368 102.433V110.641ZM167.914 110.118L192.879 110.179V102.879L167.914 102.425V110.118Z" fill="#D8DEE8"/>
<path d="M173.465 110.327H172.906V102.241L173.465 102.25V110.327Z" fill="#D8DEE8"/>
<path d="M193.088 105.516L173.188 105.262V104.782L193.088 105.053V105.516Z" fill="#D8DEE8"/>
<path d="M193.088 108.013L173.188 107.865V107.385L193.088 107.55V108.013Z" fill="#D8DEE8"/>
<path d="M188.023 110.563H187.473V102.512L188.023 102.521V110.563Z" fill="#D8DEE8"/>
<path d="M193.368 126.08L167.434 126.901V118.23L193.368 117.872V126.08ZM167.914 126.394L192.879 125.635V118.335L167.914 118.71V126.394Z" fill="#D8DEE8"/>
<path d="M173.465 126.438L172.906 126.455V118.361L173.465 118.352V126.438Z" fill="#D8DEE8"/>
<path d="M193.088 120.963L173.188 121.373V120.893L193.088 120.5V120.963Z" fill="#D8DEE8"/>
<path d="M193.088 123.46L173.188 123.976V123.495L193.088 122.998V123.46Z" fill="#D8DEE8"/>
<path d="M188.023 126.185L187.473 126.202V118.151L188.023 118.143V126.185Z" fill="#D8DEE8"/>
<path d="M193.368 113.401L167.434 113.514V112.405L193.368 112.353V113.401Z" fill="#D8DEE8"/>
<path d="M193.368 115.898L167.434 116.152V115.043L193.368 114.842V115.898Z" fill="#D8DEE8"/>
<path d="M193.368 128.839L167.434 129.808V128.699L193.368 127.791V128.839Z" fill="#D8DEE8"/>
</g>
<defs>
<linearGradient id="paint0_linear_1882_6368" x1="173.07" y1="90.198" x2="187.947" y2="90.198" gradientUnits="userSpaceOnUse">
<stop stop-color="#444B8C"/>
<stop offset="0.9964" stop-color="#26264F"/>
</linearGradient>
<clipPath id="clip0_1882_6368">
<rect width="542.64" height="328.79" fill="white" transform="translate(0.742188)"/>
</clipPath>
</defs>
</svg>
