<svg width="22" height="21" viewBox="0 0 22 21" fill="none" xmlns="http://www.w3.org/2000/svg">
<path d="M21.2939 20.6709H0V19.167H21.2939V20.6709ZM13.8418 5.2056e-07C15.3266 5.2056e-07 16.5158 -0.0012468 17.4473 0.124024C18.4005 0.252261 19.1963 0.525386 19.8271 1.15625C20.4578 1.78702 20.7311 2.58214 20.8594 3.53516C20.9847 4.46658 20.9834 5.65582 20.9834 7.14063V12.4658C20.9834 13.4491 20.9846 14.2619 20.8984 14.9033C20.8094 15.5664 20.6142 16.1583 20.1396 16.6328C19.6649 17.1075 19.0722 17.3026 18.4092 17.3916C17.7674 17.4777 16.9545 17.4766 15.9727 17.4766H5.32227C4.33904 17.4766 3.52616 17.4777 2.88477 17.3916C2.2218 17.3025 1.62975 17.1073 1.15527 16.6328L1.1543 16.6318C0.681097 16.1562 0.48654 15.5645 0.397461 14.9014C0.311314 14.2599 0.3125 13.4477 0.3125 12.4658V7.14063C0.3125 5.65582 0.311221 4.46658 0.436523 3.53516C0.564781 2.58207 0.837965 1.78704 1.46875 1.15625C2.09953 0.525466 2.89457 0.252282 3.84766 0.124024C4.77908 -0.00127821 5.96832 3.65356e-07 7.45312 5.2056e-07H13.8418ZM7.45312 1.50391C5.92599 1.50391 4.85665 1.50562 4.04883 1.61426C3.2627 1.72001 2.83733 1.91462 2.53223 2.21973C2.22712 2.52483 2.03251 2.9502 1.92676 3.73633C1.81812 4.54416 1.81641 5.61349 1.81641 7.14063V12.4658C1.81641 13.4901 1.81811 14.1831 1.8877 14.7012C1.95412 15.1957 2.06988 15.4189 2.21875 15.5693L2.27832 15.624C2.42684 15.7466 2.65069 15.843 3.08496 15.9014C3.603 15.9709 4.29657 15.9727 5.32227 15.9727H15.9727C16.9967 15.9727 17.6905 15.9709 18.209 15.9014C18.7063 15.8346 18.928 15.7175 19.0762 15.5693C19.2245 15.421 19.3415 15.1996 19.4082 14.7031C19.4777 14.1851 19.4795 13.4915 19.4795 12.4658V7.14063C19.4795 5.61351 19.4778 4.54415 19.3691 3.73633C19.2634 2.95034 19.0687 2.52482 18.7637 2.21973C18.4586 1.91462 18.0332 1.72001 17.2471 1.61426C16.4392 1.50557 15.3693 1.50391 13.8418 1.50391H7.45312ZM13.8418 14.2813H7.45312V12.7773H13.8418V14.2813Z" fill="url(#paint0_linear_558_635)"/>
<defs>
<linearGradient id="paint0_linear_558_635" x1="10.647" y1="0" x2="10.647" y2="20.6709" gradientUnits="userSpaceOnUse">
<stop stop-color="#E527BB"/>
<stop offset="1" stop-color="#A78BEF"/>
</linearGradient>
</defs>
</svg>
