<svg width="50" height="50" viewBox="0 0 50 50" fill="none" xmlns="http://www.w3.org/2000/svg">
<mask id="mask0_754_12069" style="mask-type:luminance" maskUnits="userSpaceOnUse" x="0" y="0" width="50" height="50">
<path d="M49.9512 49.9512V0.0488281H0.0488281V49.9512H49.9512Z" fill="white" stroke="white" stroke-width="0.0976562"/>
</mask>
<g mask="url(#mask0_754_12069)">
<path d="M0.976562 15.1685H16.2983H45.4608" stroke="#DAA7EE" stroke-width="1.97031" stroke-miterlimit="10" stroke-linecap="round" stroke-linejoin="round"/>
<path d="M9.13125 11.0127C10.4102 11.0127 11.4537 9.97246 11.4537 8.69424C11.4537 7.41602 10.4102 6.37578 9.13125 6.37578C7.85518 6.37578 6.81152 7.41602 6.81152 8.69424C6.81152 9.97246 7.85518 11.0127 9.13125 11.0127Z" stroke="#DAA7EE" stroke-width="1.97031" stroke-miterlimit="10" stroke-linecap="round" stroke-linejoin="round"/>
<path d="M29.2914 6.37578H38.0277C39.3038 6.37578 40.3475 7.41885 40.3475 8.69424C40.3475 9.96973 39.3038 11.0127 38.0277 11.0127H29.2914C28.0153 11.0127 26.9717 9.96973 26.9717 8.69424C26.9717 7.41885 28.0153 6.37578 29.2914 6.37578Z" stroke="#DAA7EE" stroke-width="1.97031" stroke-miterlimit="10" stroke-linecap="round" stroke-linejoin="round"/>
<path d="M17.6957 11.0127C18.9746 11.0127 20.0182 9.97246 20.0182 8.69424C20.0182 7.41602 18.9746 6.37578 17.6957 6.37578C16.4196 6.37578 15.376 7.41602 15.376 8.69424C15.376 9.97246 16.4196 11.0127 17.6957 11.0127Z" stroke="#DAA7EE" stroke-width="1.97031" stroke-miterlimit="10" stroke-linecap="round" stroke-linejoin="round"/>
<path d="M15.8616 22.68L13.9072 30.8584" stroke="#DAA7EE" stroke-width="1.97031" stroke-miterlimit="10" stroke-linecap="round" stroke-linejoin="round"/>
<path d="M20.3613 30.1201L23.1267 27.0158C23.2484 26.8803 23.2484 26.659 23.1267 26.5234L20.3613 23.4191" stroke="#DAA7EE" stroke-width="1.97031" stroke-miterlimit="10" stroke-linecap="round" stroke-linejoin="round"/>
<path d="M9.40605 30.1201L6.64072 27.0158C6.51885 26.8803 6.51885 26.659 6.64072 26.5234L9.40605 23.4191" stroke="#DAA7EE" stroke-width="1.97031" stroke-miterlimit="10" stroke-linecap="round" stroke-linejoin="round"/>
<path d="M39.5037 26.9961C40.5722 27.2341 41.5715 27.6546 42.4712 28.2189L43.2712 27.4222C43.7445 26.9463 44.5224 26.9463 44.9985 27.4222L46.258 28.6811C46.7341 29.1569 46.7341 29.9344 46.258 30.4075L45.4607 31.207C46.0228 32.0979 46.4379 33.0885 46.6788 34.1453H47.7998C48.4726 34.1453 49.0233 34.6959 49.0233 35.3654V37.15C49.0233 37.8194 48.4726 38.37 47.7998 38.37H46.6732C46.4323 39.4214 46.0172 40.4063 45.4607 41.2917L46.258 42.0885C46.7341 42.5644 46.7341 43.3418 46.258 43.8149L44.9985 45.0766C44.5224 45.5524 43.7445 45.5524 43.2712 45.0766L42.4712 44.2797C41.5826 44.8386 40.5943 45.2536 39.5369 45.4943V46.6286C39.5369 47.301 38.986 47.8516 38.3162 47.8516H36.5308C35.8607 47.8516 35.31 47.301 35.31 46.6286V45.4916C34.258 45.2536 33.2698 44.8358 32.3812 44.2797L31.584 45.0766C31.1078 45.5524 30.3301 45.5524 29.8566 45.0766L28.5944 43.8149C28.121 43.3418 28.121 42.5644 28.5944 42.0885L29.3943 41.2917C28.8353 40.4063 28.42 39.4214 28.1792 38.37H27.047C26.3744 38.37 25.8262 37.8194 25.8262 37.15V35.3654C25.8262 34.6959 26.3744 34.1453 27.047 34.1453H28.1765C28.4145 33.0995 28.8242 32.1201 29.375 31.2375L28.5723 30.4324C28.0962 29.9593 28.0962 29.1818 28.5723 28.706L29.8317 27.4471C30.3079 26.9712 31.0857 26.9712 31.5591 27.4471L32.3535 28.2384C33.2395 27.6768 34.2248 27.2589 35.2768 27.0127V25.8867C35.2768 25.2144 35.8248 24.6638 36.4975 24.6638H38.2802C38.9528 24.6638 39.5037 25.2144 39.5037 25.8867V26.9961Z" stroke="#DAA7EE" stroke-width="1.97031" stroke-miterlimit="10" stroke-linecap="round" stroke-linejoin="round"/>
<path d="M37.425 31.2266C40.2042 31.2266 42.4575 33.4787 42.4575 36.2592C42.4575 39.037 40.2042 41.2891 37.425 41.2891C34.6431 41.2891 32.3896 39.037 32.3896 36.2592C32.3896 33.4787 34.6431 31.2266 37.425 31.2266Z" stroke="#DAA7EE" stroke-width="1.97031" stroke-miterlimit="10" stroke-linecap="round" stroke-linejoin="round"/>
<path d="M10.3938 38.3701H4.61387C2.61543 38.3701 0.976562 36.4142 0.976562 34.0265V6.49219C0.976562 4.10185 2.6125 2.14853 4.61387 2.14853H8.82705H41.8235C43.8249 2.14853 45.4608 4.10459 45.4608 6.49219V27.8844M27.0471 38.3701H19.1219" stroke="#DAA7EE" stroke-width="1.97031" stroke-miterlimit="10" stroke-linecap="round" stroke-linejoin="round"/>
<path d="M14.7686 38.3701H14.7887" stroke="#DAA7EE" stroke-width="1.97031" stroke-miterlimit="10" stroke-linecap="round" stroke-linejoin="round"/>
</g>
</svg>
