<svg width="48" height="44" viewBox="0 0 48 44" fill="none" xmlns="http://www.w3.org/2000/svg">
<path d="M46.3605 7.50058H45.6668C45.5197 7.01509 45.325 6.54532 45.0855 6.09813L45.5768 5.6069C45.8832 5.27829 46.047 4.84164 46.0322 4.39255C46.0175 3.94346 45.8254 3.51851 45.498 3.21073L44.7893 2.50201C44.481 2.17553 44.0562 1.98407 43.6074 1.96932C43.1586 1.95457 42.7222 2.11773 42.3931 2.42326L41.9019 2.91449C41.4547 2.67506 40.9849 2.48037 40.4994 2.33326V1.63954C40.4838 1.19026 40.2907 0.765516 39.9624 0.458357C39.6342 0.151199 39.1976 -0.0133214 38.7483 0.000844543H37.7508C37.3015 -0.0133214 36.8649 0.151199 36.5366 0.458357C36.2084 0.765516 36.0153 1.19026 35.9996 1.63954V2.33326C35.514 2.47998 35.0442 2.67468 34.5972 2.91449L34.1247 2.42326C33.7956 2.11773 33.3592 1.95457 32.9104 1.96932C32.4616 1.98407 32.0368 2.17553 31.7285 2.50201L31.0235 3.20698C30.857 3.35847 30.7221 3.54149 30.6268 3.74544C30.5314 3.9494 30.4775 4.17024 30.4681 4.39518C30.4587 4.62012 30.494 4.8447 30.5719 5.05591C30.6499 5.26712 30.769 5.46077 30.9223 5.62565L31.4135 6.11688C31.1751 6.55803 30.9804 7.02148 30.8323 7.50058H30.1386C29.6893 7.51624 29.2645 7.70934 28.9574 8.03759C28.6502 8.36583 28.4857 8.80245 28.4999 9.25177V10.2492C28.4857 10.6986 28.6502 11.1352 28.9574 11.4634C29.2645 11.7917 29.6893 11.9848 30.1386 12.0004H30.8323C30.9794 12.4859 31.1741 12.9556 31.4135 13.4029L30.9185 13.8979C30.613 14.2269 30.4498 14.6634 30.4646 15.1121C30.4793 15.5609 30.6708 15.9857 30.9973 16.294L31.706 17.0027C32.0148 17.3283 32.4394 17.5192 32.8879 17.5339C33.3364 17.5486 33.7727 17.3861 34.1022 17.0815L34.5934 16.5903C35.0419 16.8288 35.5129 17.0222 35.9996 17.1677V17.8615C36.0153 18.3107 36.2084 18.7355 36.5366 19.0426C36.8649 19.3498 37.3015 19.5143 37.7508 19.5002H38.7483C39.1976 19.5143 39.6342 19.3498 39.9624 19.0426C40.2907 18.7355 40.4838 18.3107 40.4994 17.8615V17.1677C40.985 17.0208 41.4548 16.8261 41.9019 16.5865L42.3969 17.0815C42.7269 17.3856 43.1634 17.5475 43.6119 17.5321C44.0604 17.5166 44.4848 17.3251 44.793 16.999L45.498 16.2903C45.8245 15.982 46.016 15.5572 46.0307 15.1084C46.0455 14.6596 45.8823 14.2232 45.5768 13.8941L45.0855 13.4029C45.3249 12.9556 45.5196 12.4859 45.6668 12.0004H46.3605C46.8098 11.9848 47.2345 11.7917 47.5417 11.4634C47.8488 11.1352 48.0133 10.6986 47.9992 10.2492V9.25177C48.0133 8.80245 47.8488 8.36583 47.5417 8.03759C47.2345 7.70934 46.8098 7.51624 46.3605 7.50058ZM46.4992 10.2492C46.4992 10.4067 46.4092 10.5005 46.3605 10.5005H44.4856L44.3581 11.0892C44.195 11.8135 43.9042 12.503 43.4993 13.1254L43.1731 13.6316L44.5006 14.9591C44.5343 14.9928 44.5306 15.1278 44.4218 15.2366L43.7168 15.9415C43.6043 16.0503 43.4731 16.054 43.4393 16.0203L42.1119 14.6891L41.6244 15.0003C41.0037 15.399 40.3166 15.6835 39.5957 15.8403L39.007 15.9678V17.8427C39.007 17.8915 38.9133 17.9815 38.7558 17.9815H37.7583C37.6008 17.9815 37.507 17.8915 37.507 17.8427V15.9678L36.9183 15.8403C36.1923 15.685 35.5 15.4005 34.8746 15.0003L34.3647 14.6741L33.041 16.0015C33.0072 16.0353 32.8797 16.039 32.7635 15.9228L32.0622 15.2328C31.9535 15.1241 31.9497 14.9891 31.9835 14.9553L33.3109 13.6279L32.9997 13.1254C32.6014 12.5044 32.317 11.8175 32.1597 11.0967L32.0172 10.5005H30.1423C30.0936 10.5005 30.0036 10.4067 30.0036 10.2492V9.25177C30.0036 9.09802 30.0936 9.00053 30.1423 9.00053H32.0172L32.1447 8.40805C32.3058 7.68487 32.5954 6.99648 32.9997 6.37562L33.3259 5.86564L31.9985 4.53819C31.9647 4.50444 31.9685 4.37319 32.0772 4.26069L32.7822 3.55572C32.891 3.44697 33.0222 3.43572 33.0597 3.47697L34.3872 4.80443L34.8746 4.50069C35.4954 4.10206 36.1825 3.8176 36.9033 3.66072L37.4921 3.53322V1.65829C37.4921 1.60954 37.5858 1.51954 37.7433 1.51954H38.7408C38.8983 1.51954 38.992 1.60954 38.992 1.65829V3.53322L39.5845 3.66072C40.3092 3.81663 41.0001 4.10112 41.6244 4.50069L42.1306 4.82693L43.4581 3.49947C43.4918 3.46572 43.6231 3.46947 43.7318 3.57822L44.4368 4.28694C44.5456 4.39569 44.5493 4.52694 44.5156 4.56443L43.1881 5.89189L43.4993 6.37562C43.8975 6.99662 44.182 7.68357 44.3393 8.4043L44.4668 8.99303H46.3417C46.3905 8.99303 46.4805 9.08677 46.4805 9.24427L46.4992 10.2492Z" fill="#DAA7EE"/>
<path d="M38.2491 5.77197C37.4622 5.77197 36.693 6.00531 36.0387 6.44249C35.3844 6.87967 34.8745 7.50104 34.5734 8.22803C34.2722 8.95503 34.1934 9.755 34.347 10.5268C34.5005 11.2985 34.8794 12.0075 35.4358 12.5639C35.9922 13.1203 36.7012 13.4992 37.4729 13.6527C38.2447 13.8063 39.0447 13.7275 39.7717 13.4263C40.4987 13.1252 41.12 12.6153 41.5572 11.961C41.9944 11.3067 42.2277 10.5375 42.2277 9.75058C42.2277 8.69539 41.8086 7.68341 41.0624 6.93728C40.3163 6.19115 39.3043 5.77197 38.2491 5.77197ZM38.2491 12.2255C37.7587 12.2255 37.2794 12.08 36.8717 11.8075C36.464 11.535 36.1463 11.1476 35.9588 10.6945C35.7713 10.2414 35.7224 9.7428 35.8184 9.26189C35.9143 8.78097 36.1508 8.33932 36.4978 7.99283C36.8448 7.64633 37.2868 7.41056 37.7679 7.31534C38.2489 7.22012 38.7474 7.26975 39.2003 7.45792C39.6531 7.6461 40.04 7.96438 40.3119 8.37249C40.5838 8.7806 40.7285 9.26019 40.7278 9.75058C40.7278 10.408 40.4666 11.0384 40.0018 11.5033C39.537 11.9681 38.9065 12.2292 38.2491 12.2292V12.2255Z" fill="#DAA7EE"/>
<path d="M1.63954 12.0004H2.33326C2.4804 12.4859 2.67508 12.9556 2.91449 13.4029L2.42326 13.8941C2.11773 14.2232 1.95457 14.6596 1.96932 15.1084C1.98407 15.5572 2.17553 15.982 2.50201 16.2903L3.21073 16.999C3.51953 17.3246 3.94416 17.5154 4.39265 17.5302C4.84115 17.5449 5.27739 17.3824 5.6069 17.0777L6.09813 16.5865C6.54527 16.8261 7.01505 17.0208 7.50058 17.1677V17.8615C7.51624 18.3107 7.70934 18.7355 8.03759 19.0426C8.36583 19.3498 8.80245 19.5143 9.25177 19.5002H10.2492C10.6986 19.5143 11.1352 19.3498 11.4634 19.0426C11.7917 18.7355 11.9848 18.3107 12.0004 17.8615V17.1677C12.486 17.0208 12.9557 16.8261 13.4029 16.5865L13.8979 17.0815C14.2278 17.3856 14.6644 17.5475 15.1129 17.5321C15.5614 17.5166 15.9857 17.3251 16.294 16.999L16.999 16.2903C17.3255 15.982 17.5169 15.5572 17.5317 15.1084C17.5464 14.6596 17.3833 14.2232 17.0777 13.8941L16.5865 13.4029C16.8259 12.9556 17.0206 12.4859 17.1677 12.0004H17.8615C18.3107 11.9848 18.7355 11.7917 19.0426 11.4634C19.3498 11.1352 19.5143 10.6986 19.5002 10.2492V9.25177C19.5143 8.80245 19.3498 8.36583 19.0426 8.03759C18.7355 7.70934 18.3107 7.51624 17.8615 7.50058H17.1677C17.0207 7.01509 16.826 6.54532 16.5865 6.09813L17.0777 5.6069C17.3842 5.27829 17.548 4.84164 17.5332 4.39255C17.5185 3.94346 17.3264 3.51851 16.999 3.21073L16.2903 2.50201C15.982 2.17553 15.5572 1.98407 15.1084 1.96932C14.6596 1.95457 14.2232 2.11773 13.8941 2.42326L13.4029 2.91449C12.9557 2.67506 12.4859 2.48037 12.0004 2.33326V1.63954C11.9848 1.19026 11.7917 0.765516 11.4634 0.458357C11.1352 0.151199 10.6986 -0.0133214 10.2492 0.000844543H9.25177C8.80245 -0.0133214 8.36583 0.151199 8.03759 0.458357C7.70934 0.765516 7.51624 1.19026 7.50058 1.63954V2.33326C7.01496 2.47998 6.54516 2.67468 6.09813 2.91449L5.62565 2.42326C5.29659 2.11773 4.86014 1.95457 4.41135 1.96932C3.96256 1.98407 3.53777 2.17553 3.22948 2.50201L2.50201 3.21073C2.33756 3.3637 2.205 3.54769 2.11197 3.7521C2.01894 3.95652 1.96728 4.17733 1.95996 4.4018C1.95264 4.62627 1.98981 4.84997 2.06932 5.06002C2.14884 5.27006 2.26913 5.4623 2.42326 5.62565L2.91449 6.11688C2.67604 6.55803 2.48136 7.02148 2.33326 7.50058H1.63954C1.19026 7.51624 0.765516 7.70934 0.458357 8.03759C0.151199 8.36583 -0.0133214 8.80245 0.000844544 9.25177V10.2492C-0.0133214 10.6986 0.151199 11.1352 0.458357 11.4634C0.765516 11.7917 1.19026 11.9848 1.63954 12.0004ZM1.50079 9.25177C1.50079 9.09802 1.59079 9.00053 1.63954 9.00053H3.51447L3.64197 8.40805C3.8042 7.68462 4.09506 6.99621 4.50069 6.37562L4.82692 5.86564L3.48447 4.54568C3.45072 4.51194 3.45447 4.38069 3.56322 4.26819L4.26819 3.56322C4.37694 3.45447 4.50444 3.44322 4.54568 3.48447L5.87314 4.81193L6.37562 4.50069C6.9964 4.10206 7.68343 3.8176 8.4043 3.66072L9.00053 3.51822V1.64329C9.00053 1.59454 9.09427 1.50454 9.25177 1.50454H10.2492C10.4067 1.50454 10.5005 1.59454 10.5005 1.64329V3.51822L11.093 3.64572C11.816 3.80711 12.5044 4.09667 13.1254 4.50069L13.6316 4.82693L14.9591 3.49947C14.9928 3.46572 15.1241 3.46947 15.2328 3.57822L15.9378 4.28694C16.0465 4.39569 16.0503 4.52694 16.0165 4.56443L14.6891 5.89189L15.0003 6.37562C15.3985 6.99662 15.6829 7.68357 15.8403 8.4043L15.9828 9.00053H17.8577C17.9065 9.00053 17.9965 9.09427 17.9965 9.25177V10.2492C17.9965 10.4067 17.9065 10.5005 17.8577 10.5005H15.9828L15.8553 11.0892C15.6934 11.8133 15.4039 12.5028 15.0003 13.1254L14.6741 13.6316L16.0015 14.9591C16.0353 14.9928 16.0315 15.1278 15.9228 15.2366L15.2328 15.9378C15.1203 16.0465 14.9891 16.0503 14.9553 16.0165L13.6279 14.6853L13.1254 15.0003C12.5046 15.399 11.8176 15.6835 11.0967 15.8403L10.5005 15.9828V17.8577C10.5005 17.9065 10.4067 17.9965 10.2492 17.9965H9.25177C9.09427 17.9965 9.00053 17.9065 9.00053 17.8577V15.9828L8.4118 15.8553C7.68734 15.6946 6.99766 15.405 6.37562 15.0003L5.86564 14.6741L4.54193 16.0015C4.50819 16.0353 4.37694 16.039 4.26444 15.9228L3.56322 15.2328C3.45447 15.1241 3.45072 14.9891 3.48447 14.9553L4.81193 13.6279L4.50069 13.1254C4.10242 12.5044 3.81798 11.8175 3.66072 11.0967L3.51822 10.5005H1.64329C1.59454 10.5005 1.50454 10.4067 1.50454 10.2492L1.50079 9.25177Z" fill="#DAA7EE"/>
<path d="M9.75009 13.7292C10.537 13.7292 11.3062 13.4959 11.9605 13.0587C12.6148 12.6215 13.1247 12.0001 13.4259 11.2731C13.727 10.5461 13.8058 9.74617 13.6523 8.9744C13.4987 8.20262 13.1198 7.4937 12.5634 6.93728C12.007 6.38086 11.2981 6.00194 10.5263 5.84842C9.75451 5.69491 8.95454 5.7737 8.22755 6.07483C7.50055 6.37596 6.87918 6.88591 6.442 7.54019C6.00483 8.19447 5.77148 8.96369 5.77148 9.75058C5.77148 10.2731 5.87439 10.7904 6.07434 11.2731C6.27428 11.7558 6.56734 12.1944 6.93679 12.5639C7.68293 13.31 8.6949 13.7292 9.75009 13.7292ZM9.75009 7.27567C10.2405 7.27567 10.7199 7.42114 11.1276 7.69366C11.5352 7.96619 11.8529 8.35352 12.0404 8.80666C12.2279 9.25979 12.2768 9.75836 12.1809 10.2393C12.0849 10.7202 11.8485 11.1618 11.5014 11.5083C11.1544 11.8548 10.7124 12.0906 10.2314 12.1858C9.75029 12.281 9.2518 12.2314 8.79895 12.0432C8.3461 11.8551 7.95924 11.5368 7.68734 11.1287C7.41543 10.7206 7.27069 10.241 7.27143 9.75058C7.27143 9.0932 7.53258 8.46274 7.99742 7.99791C8.46226 7.53307 9.09271 7.27192 9.75009 7.27192V7.27567Z" fill="#DAA7EE"/>
<path d="M37.8743 23.5086C37.8732 23.3708 37.8341 23.2359 37.7614 23.1188C37.6886 23.0017 37.585 22.9069 37.4618 22.8449L24.3373 16.2076C24.2321 16.1543 24.1159 16.1265 23.9979 16.1265C23.88 16.1265 23.7637 16.1543 23.6586 16.2076L10.534 22.8449C10.4112 22.9078 10.3081 23.0035 10.2361 23.1212C10.1641 23.239 10.126 23.3744 10.126 23.5124C10.126 23.6504 10.1641 23.7858 10.2361 23.9035C10.3081 24.0213 10.4112 24.1169 10.534 24.1799L12.0977 24.9973L10.5003 25.856C10.3803 25.92 10.2799 26.0154 10.21 26.1319C10.14 26.2485 10.103 26.3819 10.103 26.5179C10.103 26.6539 10.14 26.7873 10.21 26.9039C10.2799 27.0204 10.3803 27.1158 10.5003 27.1798L12.064 27.9972L10.5003 28.8559C10.3803 28.9199 10.2799 29.0153 10.21 29.1318C10.14 29.2484 10.103 29.3818 10.103 29.5178C10.103 29.6538 10.14 29.7872 10.21 29.9038C10.2799 30.0203 10.3803 30.1157 10.5003 30.1796L23.6436 37.0419C23.7507 37.0978 23.8696 37.1269 23.9904 37.1269C24.1112 37.1269 24.2302 37.0978 24.3373 37.0419L37.4431 30.1796C37.5615 30.1194 37.6618 30.0287 37.7336 29.9169C37.8055 29.8052 37.8464 29.6763 37.8521 29.5436C37.8578 29.4108 37.8282 29.2789 37.7662 29.1614C37.7042 29.0439 37.6121 28.9449 37.4993 28.8747L35.9581 27.9785L37.4581 27.1873C37.5774 27.1262 37.6782 27.0342 37.75 26.9209C37.8217 26.8076 37.8618 26.6772 37.866 26.5432C37.8702 26.4092 37.8384 26.2765 37.7739 26.1589C37.7094 26.0414 37.6146 25.9433 37.4993 25.8748L35.9581 24.9786L37.4581 24.1874C37.5842 24.1247 37.6901 24.0278 37.7637 23.9078C37.8373 23.7878 37.8756 23.6494 37.8743 23.5086ZM23.9998 17.7151L35.4857 23.5236L24.0186 29.5234L12.514 23.5236L23.9998 17.7151ZM23.9998 35.527L12.4652 29.4972L13.6877 28.8297L23.6736 34.0383C23.7807 34.0941 23.8996 34.1233 24.0204 34.1233C24.1412 34.1233 24.2602 34.0941 24.3673 34.0383L34.3869 28.7884L35.5719 29.4747L23.9998 35.527ZM23.9998 32.5271L12.4652 26.4973L13.6877 25.8298L23.6736 31.0384C23.7807 31.0942 23.8996 31.1234 24.0204 31.1234C24.1412 31.1234 24.2602 31.0942 24.3673 31.0384L34.3869 25.7886L35.5719 26.4748L23.9998 32.5271Z" fill="#DAA7EE"/>
<path d="M42.7494 33.3749C42.7494 32.9299 42.6174 32.4949 42.3702 32.1249C42.1229 31.7549 41.7716 31.4666 41.3604 31.2963C40.9493 31.126 40.4969 31.0814 40.0605 31.1682C39.6241 31.255 39.2232 31.4693 38.9085 31.784C38.5938 32.0986 38.3796 32.4995 38.2927 32.936C38.2059 33.3724 38.2505 33.8248 38.4208 34.2359C38.5911 34.647 38.8794 34.9984 39.2494 35.2457C39.6194 35.4929 40.0544 35.6248 40.4994 35.6248C41.0961 35.6248 41.6684 35.3878 42.0904 34.9659C42.5123 34.5439 42.7494 33.9716 42.7494 33.3749ZM39.7495 33.3749C39.7495 33.2266 39.7934 33.0816 39.8759 32.9583C39.9583 32.8349 40.0754 32.7388 40.2124 32.682C40.3495 32.6253 40.5003 32.6104 40.6457 32.6394C40.7912 32.6683 40.9249 32.7397 41.0297 32.8446C41.1346 32.9495 41.2061 33.0831 41.235 33.2286C41.2639 33.3741 41.2491 33.5249 41.1923 33.6619C41.1356 33.799 41.0394 33.9161 40.9161 33.9985C40.7928 34.0809 40.6478 34.1249 40.4994 34.1249C40.3005 34.1249 40.1098 34.0459 39.9691 33.9052C39.8285 33.7646 39.7495 33.5738 39.7495 33.3749Z" fill="#DAA7EE"/>
<path d="M44.249 37.1245C44.6632 37.1245 44.999 36.7887 44.999 36.3745C44.999 35.9603 44.6632 35.6245 44.249 35.6245C43.8348 35.6245 43.499 35.9603 43.499 36.3745C43.499 36.7887 43.8348 37.1245 44.249 37.1245Z" fill="#DAA7EE"/>
<path d="M7.50041 31.125C7.05542 31.125 6.62042 31.257 6.25042 31.5042C5.88042 31.7514 5.59205 32.1028 5.42175 32.5139C5.25146 32.925 5.20691 33.3774 5.29372 33.8139C5.38053 34.2503 5.59482 34.6512 5.90948 34.9659C6.22413 35.2805 6.62503 35.4948 7.06147 35.5816C7.49791 35.6684 7.9503 35.6239 8.36142 35.4536C8.77254 35.2833 9.12393 34.9949 9.37115 34.6249C9.61838 34.2549 9.75033 33.8199 9.75033 33.3749C9.75033 32.7782 9.51329 32.2059 9.09134 31.784C8.6694 31.362 8.09713 31.125 7.50041 31.125ZM7.50041 34.1249C7.35208 34.1249 7.20708 34.0809 7.08375 33.9985C6.96041 33.9161 6.86429 33.799 6.80752 33.6619C6.75076 33.5249 6.73591 33.3741 6.76485 33.2286C6.79378 33.0831 6.86521 32.9495 6.9701 32.8446C7.07498 32.7397 7.20862 32.6683 7.3541 32.6394C7.49958 32.6104 7.65037 32.6253 7.78741 32.682C7.92445 32.7388 8.04158 32.8349 8.12399 32.9583C8.2064 33.0816 8.25038 33.2266 8.25038 33.3749C8.25038 33.5738 8.17137 33.7646 8.03072 33.9052C7.89007 34.0459 7.69932 34.1249 7.50041 34.1249Z" fill="#DAA7EE"/>
<path d="M3.75046 37.1245C4.16466 37.1245 4.50044 36.7887 4.50044 36.3745C4.50044 35.9603 4.16466 35.6245 3.75046 35.6245C3.33626 35.6245 3.00049 35.9603 3.00049 36.3745C3.00049 36.7887 3.33626 37.1245 3.75046 37.1245Z" fill="#DAA7EE"/>
<path d="M27 10.5005H21.0002C20.9612 11.0325 20.7939 11.5471 20.5127 12.0004H27.4987C27.2135 11.5482 27.0424 11.0335 27 10.5005Z" fill="#DAA7EE"/>
<path d="M46.5589 17.3516L46.4989 17.4116V38.2496C46.4989 38.4485 46.4198 38.6393 46.2792 38.7799C46.1385 38.9206 45.9478 38.9996 45.7489 38.9996H2.25041C2.0515 38.9996 1.86075 38.9206 1.7201 38.7799C1.57945 38.6393 1.50044 38.4485 1.50044 38.2496V17.4116L1.44044 17.3516C0.926869 16.8469 0.596089 16.1854 0.500341 15.4717C0.404594 14.758 0.549336 14.0328 0.911706 13.4105C0.589704 13.3355 0.281975 13.2089 0.000488281 13.0355L0.000488281 38.2496C0.000488281 38.8463 0.237533 39.4186 0.659475 39.8406C1.08142 40.2625 1.65369 40.4995 2.25041 40.4995H20.9998V41.9995H17.6249C17.426 41.9995 17.2352 42.0785 17.0946 42.2191C16.9539 42.3598 16.8749 42.5506 16.8749 42.7495C16.8749 42.9484 16.9539 43.1391 17.0946 43.2798C17.2352 43.4204 17.426 43.4994 17.6249 43.4994H30.3744C30.5733 43.4994 30.7641 43.4204 30.9047 43.2798C31.0454 43.1391 31.1244 42.9484 31.1244 42.7495C31.1244 42.5506 31.0454 42.3598 30.9047 42.2191C30.7641 42.0785 30.5733 41.9995 30.3744 41.9995H26.9995V40.4995H45.7489C46.3456 40.4995 46.9179 40.2625 47.3398 39.8406C47.7618 39.4186 47.9988 38.8463 47.9988 38.2496V13.0205C47.7173 13.1939 47.4096 13.3205 47.0876 13.3955C47.4537 14.0193 47.6006 14.7477 47.5047 15.4646C47.4089 16.1816 47.0759 16.8458 46.5589 17.3516ZM25.4996 41.9995H22.4997V40.4995H25.4996V41.9995Z" fill="#DAA7EE"/>
</svg>
