<svg width="543" height="329" viewBox="0 0 543 329" fill="none" xmlns="http://www.w3.org/2000/svg">
<g clip-path="url(#clip0_809_5111)">
<path opacity="0.2" d="M127.492 328.58L412.142 311.93C487.412 307.53 545.652 243.73 542.512 168.39C539.872 105.08 517.192 37.64 440.912 8.81999C387.262 -11.45 317.592 5.13999 273.402 38.85C262.782 46.95 253.022 56.24 241.612 63.17C215.022 79.32 191.672 68.17 163.972 63.88C105.412 54.79 46.9621 73.46 16.7021 127.43C-29.7579 210.35 25.0421 334.57 127.492 328.58Z" fill="#999999"/>
<g opacity="0.19">
<path d="M387.395 211.546C385.457 211.546 383.898 213.108 383.898 215.05V221.879C379.313 222.812 374.949 224.624 371.046 227.209L366.228 222.382C364.856 221.008 362.648 221.008 361.277 222.382L355.976 227.692C354.604 229.066 354.604 231.279 355.976 232.652L360.794 237.479C358.211 241.389 356.405 245.759 355.469 250.354H348.654C346.716 250.354 345.156 251.916 345.156 253.858V261.372C345.156 263.313 346.716 264.876 348.654 264.876H355.469C356.403 269.47 358.211 273.84 360.794 277.75L355.976 282.577C354.604 283.951 354.604 286.164 355.976 287.537L361.277 292.848C362.648 294.221 364.856 294.221 366.228 292.848L371.046 288.021C374.949 290.606 379.311 292.415 383.898 293.351V300.18C383.898 302.122 385.457 303.684 387.395 303.684H394.895C396.834 303.684 398.393 302.122 398.393 300.18V293.351C402.977 292.417 407.342 290.606 411.245 288.021L416.063 292.848C417.434 294.221 419.643 294.221 421.014 292.848L426.315 287.537C427.686 286.164 427.686 283.951 426.315 282.577L421.497 277.75C424.078 273.84 425.883 269.47 426.817 264.876H433.634C435.573 264.876 437.132 263.313 437.132 261.372V253.858C437.132 251.916 435.573 250.354 433.634 250.354H426.892C425.958 245.74 424.145 241.351 421.55 237.426L426.315 232.652C427.686 231.279 427.686 229.066 426.315 227.692L421.014 222.382C419.643 221.008 417.434 221.008 416.063 222.382L411.298 227.156C407.38 224.553 402.999 222.735 398.393 221.799V215.05C398.393 213.108 396.834 211.546 394.895 211.546H387.395ZM391.144 237.085C402.463 237.085 411.636 246.277 411.639 257.616C411.639 268.955 402.463 278.145 391.144 278.147C379.828 278.147 370.652 268.955 370.652 257.616C370.652 246.277 379.828 237.085 391.144 237.085Z" fill="#E527BB"/>
<path d="M427.476 167.328C426.399 167.328 425.532 168.196 425.532 169.274V173.069C422.986 173.589 420.56 174.592 418.392 176.029L415.715 173.347C414.952 172.585 413.726 172.585 412.963 173.347L410.018 176.297C409.255 177.061 409.255 178.29 410.018 179.054L412.695 181.736C411.261 183.907 410.257 186.338 409.738 188.889H405.953C404.876 188.889 404.01 189.757 404.01 190.836V195.009C404.01 196.088 404.876 196.956 405.953 196.956H409.738C410.257 199.507 411.261 201.938 412.695 204.109L410.018 206.791C409.255 207.555 409.255 208.784 410.018 209.548L412.963 212.498C413.726 213.263 414.952 213.263 415.715 212.498L418.392 209.816C420.56 211.253 422.986 212.259 425.532 212.776V216.571C425.532 217.649 426.399 218.517 427.476 218.517H431.645C432.721 218.517 433.588 217.649 433.588 216.571V212.784C436.134 212.264 438.56 211.26 440.728 209.824L443.405 212.506C444.168 213.27 445.394 213.27 446.157 212.506L449.102 209.555C449.865 208.791 449.865 207.563 449.102 206.798L446.425 204.117C447.859 201.945 448.863 199.515 449.38 196.963H453.167C454.244 196.963 455.11 196.095 455.11 195.017V190.843C455.11 189.764 454.244 188.896 453.167 188.896H449.421C448.902 186.333 447.895 183.893 446.452 181.714L449.1 179.061C449.863 178.297 449.863 177.068 449.1 176.304L446.155 173.354C445.392 172.592 444.166 172.592 443.403 173.354L440.755 176.007C438.577 174.561 436.144 173.552 433.585 173.03V169.279C433.585 168.201 432.719 167.332 431.642 167.332H427.476V167.328ZM429.559 181.52C435.847 181.52 440.945 186.628 440.945 192.927C440.945 199.227 435.847 204.334 429.559 204.334C423.271 204.334 418.172 199.227 418.172 192.927C418.172 186.628 423.271 181.52 429.559 181.52Z" fill="#E527BB"/>
<path d="M445.508 218.914C444.878 218.914 444.373 219.422 444.373 220.05V222.268C442.884 222.57 441.469 223.158 440.202 223.997L438.638 222.43C438.193 221.985 437.474 221.985 437.03 222.43L435.309 224.154C434.865 224.599 434.865 225.317 435.309 225.765L436.873 227.332C436.035 228.601 435.449 230.018 435.145 231.511H432.933C432.303 231.511 431.799 232.018 431.799 232.647V235.087C431.799 235.718 432.306 236.224 432.933 236.224H435.145C435.449 237.716 436.035 239.133 436.873 240.403L435.309 241.97C434.865 242.414 434.865 243.135 435.309 243.58L437.03 245.304C437.474 245.749 438.193 245.749 438.638 245.304L440.202 243.737C441.469 244.576 442.884 245.164 444.373 245.466V247.684C444.373 248.315 444.88 248.82 445.508 248.82H447.943C448.573 248.82 449.078 248.313 449.078 247.684V245.466C450.567 245.164 451.982 244.576 453.249 243.737L454.813 245.304C455.257 245.749 455.977 245.749 456.421 245.304L458.142 243.58C458.586 243.135 458.586 242.414 458.142 241.97L456.578 240.403C457.416 239.133 458.002 237.713 458.304 236.224H460.517C461.147 236.224 461.652 235.716 461.652 235.087V232.647C461.652 232.016 461.145 231.511 460.517 231.511H458.328C458.026 230.014 457.437 228.589 456.595 227.315L458.142 225.765C458.586 225.32 458.586 224.602 458.142 224.154L456.421 222.43C455.977 221.985 455.257 221.985 454.813 222.43L453.266 223.98C451.994 223.136 450.572 222.546 449.078 222.241V220.05C449.078 219.419 448.571 218.914 447.943 218.914H445.508ZM446.724 227.204C450.398 227.204 453.377 230.188 453.377 233.868C453.377 237.549 450.398 240.533 446.724 240.533C443.05 240.533 440.071 237.549 440.071 233.868C440.071 230.188 443.05 227.204 446.724 227.204Z" fill="#E527BB"/>
</g>
<path d="M265.729 275.987H212.523V330.276H265.729V275.987Z" fill="#E527BB"/>
<path d="M170.401 322.873H307.851C309.892 322.873 311.544 324.53 311.544 326.575C311.544 328.62 309.89 330.276 307.851 330.276H170.401C168.36 330.276 166.707 328.618 166.707 326.575C166.707 324.53 168.362 322.873 170.401 322.873Z" fill="#E527BB"/>
<path d="M97.5626 62.7822H380.691C390.39 62.7822 398.253 70.6581 398.253 80.3763V270.24C398.253 279.956 390.392 287.834 380.691 287.834H97.5626C87.8638 287.834 80 279.958 80 270.24V80.3743C80 70.6581 87.8638 62.7822 97.5626 62.7822Z" fill="#E527BB"/>
<path d="M80.002 263.596V273.767C80.002 281.56 86.2648 287.832 94.0413 287.832H384.212C391.99 287.832 398.251 281.56 398.251 273.767V263.596H80.002Z" fill="#A78BEF"/>
<path d="M384.389 77.9375H93.8613V249.635H384.389V77.9375Z" fill="#F6F5F4"/>
<path d="M239.125 281.916C242.828 281.916 245.83 278.908 245.83 275.198C245.83 271.489 242.828 268.481 239.125 268.481C235.422 268.481 232.42 271.489 232.42 275.198C232.42 278.908 235.422 281.916 239.125 281.916Z" fill="#E527BB"/>
<path d="M93.8613 77.9395V90.0246H384.389V77.9395H93.8613Z" fill="#A78BEF"/>
<path d="M108.738 83.9809C108.738 84.8474 108.038 85.5489 107.173 85.5489C106.308 85.5489 105.607 84.8474 105.607 83.9809C105.607 83.1164 106.308 82.4128 107.173 82.4128C108.038 82.4128 108.738 83.1164 108.738 83.9809Z" fill="white"/>
<path d="M115.457 83.9809C115.457 84.8474 114.756 85.5489 113.891 85.5489C113.026 85.5489 112.326 84.8474 112.326 83.9809C112.326 83.1164 113.026 82.4128 113.891 82.4128C114.756 82.4148 115.457 83.1164 115.457 83.9809Z" fill="white"/>
<path d="M122.183 83.9809C122.183 84.8474 121.483 85.5489 120.618 85.5489C119.753 85.5489 119.053 84.8474 119.053 83.9809C119.053 83.1164 119.753 82.4128 120.618 82.4128C121.483 82.4128 122.183 83.1164 122.183 83.9809Z" fill="white"/>
<path d="M231.287 124.3C226.843 124.463 222.983 125.93 219.648 128.102C213.552 132.073 209.136 138.291 205.517 143.069C203.76 145.39 202.121 146.795 200.433 147.547C198.745 148.296 196.969 148.427 194.799 148.055C190.46 147.312 184.674 144.448 176.235 140.801C167.71 137.117 161.146 136.322 154.375 138.325C147.989 140.215 141.405 144.581 132.645 151.036V153.276C141.949 146.382 148.646 141.912 154.887 140.064C161.235 138.184 167.21 138.876 175.516 142.465C183.91 146.092 189.673 149.015 194.492 149.842C196.9 150.255 199.106 150.116 201.163 149.204C203.22 148.292 205.085 146.638 206.958 144.166C210.6 139.357 214.929 133.341 220.632 129.625C226.274 125.948 233.186 124.424 242.539 128.458V126.516C239.2 125.161 236.092 124.452 233.223 124.314C232.569 124.279 231.922 124.277 231.287 124.3Z" fill="#A78BEF"/>
<path d="M242.543 107.378C241.531 108.298 240.619 109.453 239.776 110.733C237.994 113.442 236.481 116.766 235.038 119.885C233.596 123.003 232.211 125.916 230.843 127.693C230.158 128.581 229.486 129.166 228.908 129.408C228.329 129.65 227.847 129.652 227.137 129.265C219.809 125.26 206.958 119.296 197.481 121.238C189.953 122.78 185.138 127.355 181.174 131.992C177.213 136.63 174.013 141.31 169.853 143.471C165.584 145.688 162.693 145.44 159.37 144.172C156.047 142.904 152.373 140.489 147.164 138.47C140.79 136 135.717 137.153 132.646 138.464V140.388C135.194 139.104 140.004 137.642 146.511 140.164C151.532 142.111 155.117 144.492 158.726 145.869C162.334 147.246 166.044 147.493 170.684 145.082C175.435 142.614 178.671 137.709 182.547 133.172C186.423 128.635 190.849 124.448 197.84 123.015C206.249 121.292 219.073 126.928 226.266 130.857C227.369 131.459 228.579 131.513 229.607 131.081C230.634 130.65 231.485 129.829 232.275 128.802C233.856 126.747 235.235 123.772 236.679 120.65C238.123 117.528 239.621 114.262 241.285 111.732C241.696 111.108 242.115 110.536 242.541 110.021V107.378H242.543Z" fill="#E527BB"/>
<path opacity="0.41" d="M242.543 165.437H132.648V167.42H242.543V165.437Z" fill="#F79DBF"/>
<path d="M149.4 176.615H157.03C157.916 176.615 158.634 177.335 158.634 178.223V185.867C158.634 186.755 157.916 187.474 157.03 187.474H149.4C148.513 187.474 147.795 186.755 147.795 185.867V178.223C147.793 177.337 148.513 176.615 149.4 176.615Z" fill="#E527BB"/>
<path d="M149.298 177.78C149.088 177.78 148.953 177.913 148.953 178.124V185.966C148.953 186.177 149.088 186.312 149.298 186.312H157.126C157.337 186.312 157.47 186.179 157.47 185.966V178.124C157.47 177.913 157.337 177.78 157.126 177.78H149.298Z" fill="#F6F5F4"/>
<path d="M134.617 176.615H142.246C143.133 176.615 143.851 177.335 143.851 178.223V185.867C143.851 186.755 143.133 187.474 142.246 187.474H134.617C133.73 187.474 133.012 186.755 133.012 185.867V178.223C133.01 177.337 133.73 176.615 134.617 176.615Z" fill="#E527BB"/>
<path d="M135.209 181.757L137.655 184.132L141.652 180.252" stroke="white" stroke-width="1.60401" stroke-miterlimit="3.6443" stroke-linecap="round" stroke-linejoin="round"/>
<path d="M142.247 191.654H134.617C133.73 191.654 133.012 192.373 133.012 193.262V200.905C133.012 201.794 133.73 202.513 134.617 202.513H142.247C143.133 202.513 143.852 201.794 143.852 200.905V193.262C143.854 192.373 143.133 191.654 142.247 191.654Z" fill="#E527BB"/>
<path d="M142.346 192.819C142.557 192.819 142.691 192.952 142.691 193.163V201.005C142.691 201.215 142.557 201.351 142.346 201.351H134.518C134.308 201.351 134.175 201.217 134.175 201.005V193.163C134.175 192.952 134.308 192.819 134.518 192.819H142.346Z" fill="#F6F5F4"/>
<path d="M149.4 191.654H157.03C157.916 191.654 158.634 192.373 158.634 193.262V200.905C158.634 201.794 157.916 202.513 157.03 202.513H149.4C148.513 202.513 147.795 201.794 147.795 200.905V193.262C147.795 192.373 148.513 191.654 149.4 191.654Z" fill="#E527BB"/>
<path d="M149.992 196.796L152.438 199.171L156.436 195.291" stroke="white" stroke-width="1.60401" stroke-miterlimit="3.6443" stroke-linecap="round" stroke-linejoin="round"/>
<path d="M142.247 206.693H134.617C133.73 206.693 133.012 207.412 133.012 208.301V215.944C133.012 216.832 133.73 217.552 134.617 217.552H142.247C143.133 217.552 143.852 216.832 143.852 215.944V208.301C143.854 207.412 143.133 206.693 142.247 206.693Z" fill="#E527BB"/>
<path d="M142.346 207.857C142.557 207.857 142.691 207.991 142.691 208.201V216.043C142.691 216.254 142.557 216.389 142.346 216.389H134.518C134.308 216.389 134.175 216.256 134.175 216.043V208.201C134.175 207.991 134.308 207.857 134.518 207.857H142.346Z" fill="#F6F5F4"/>
<path d="M149.4 206.693H157.03C157.916 206.693 158.634 207.412 158.634 208.301V215.944C158.634 216.832 157.916 217.552 157.03 217.552H149.4C148.513 217.552 147.795 216.832 147.795 215.944V208.301C147.795 207.412 148.513 206.693 149.4 206.693Z" fill="#A78BEF"/>
<path d="M149.992 211.834L152.438 214.209L156.436 210.33" stroke="white" stroke-width="1.60401" stroke-miterlimit="3.6443" stroke-linecap="round" stroke-linejoin="round"/>
<path d="M149.4 221.731H157.03C157.916 221.731 158.634 222.45 158.634 223.339V230.982C158.634 231.87 157.916 232.59 157.03 232.59H149.4C148.513 232.59 147.795 231.87 147.795 230.982V223.339C147.793 222.45 148.513 221.731 149.4 221.731Z" fill="#E527BB"/>
<path d="M149.298 222.896C149.088 222.896 148.953 223.029 148.953 223.24V231.082C148.953 231.292 149.088 231.427 149.298 231.427H157.126C157.337 231.427 157.47 231.294 157.47 231.082V223.24C157.47 223.029 157.337 222.896 157.126 222.896H149.298Z" fill="#F6F5F4"/>
<path d="M134.617 221.731H142.246C143.133 221.731 143.851 222.45 143.851 223.339V230.982C143.851 231.87 143.133 232.59 142.246 232.59H134.617C133.73 232.59 133.012 231.87 133.012 230.982V223.339C133.01 222.45 133.73 221.731 134.617 221.731Z" fill="#A78BEF"/>
<path d="M135.207 226.872L137.653 229.247L141.65 225.368" stroke="white" stroke-width="1.60401" stroke-miterlimit="3.6443" stroke-linecap="round" stroke-linejoin="round"/>
<path d="M242.543 182.715H163.857V184.698H242.543V182.715Z" fill="#E527BB"/>
<path d="M242.543 197.799H163.857V199.782H242.543V197.799Z" fill="#E527BB"/>
<path d="M242.543 212.883H163.857V214.866H242.543V212.883Z" fill="#A78BEF"/>
<path d="M242.543 227.967H163.857V229.95H242.543V227.967Z" fill="#A78BEF"/>
<path d="M158.694 108.827H135.551V110.759H158.694V108.827Z" fill="#E527BB"/>
<path d="M169.439 114.795H136.748V116.727H169.439V114.795Z" fill="#E527BB"/>
<path d="M407.513 119.821H428.847L405.892 179.4H384.559L407.513 119.821Z" fill="#E527BB"/>
<path d="M374.754 141.644H353.422L384.56 179.4H405.893L374.754 141.644Z" fill="#C618A5"/>
<path d="M353.422 141.644H374.754L346.678 214.518H325.344L353.422 141.644Z" fill="#E527BB"/>
<path d="M315.541 176.761H294.207L325.345 214.519H346.679L315.541 176.761Z" fill="#C618A5"/>
<path d="M294.206 176.761H315.539L287.461 249.637H266.127L294.206 176.761Z" fill="#E527BB"/>
<path opacity="0.5" d="M416.156 46.1194C416.156 51.7368 419.148 59.6425 424.004 62.4512C425.217 63.1534 426.5 63.6803 427.819 64.0308C430.518 65.4364 430.644 69.4639 430.644 69.4639C430.644 69.4639 430.518 73.4902 427.819 74.8971C426.5 75.2489 425.217 75.7758 424.004 76.4767C419.148 79.2854 416.156 87.1911 416.156 92.8085H447.547C447.547 87.1911 444.556 79.2854 439.7 76.4767C438.921 76.0271 438.111 75.656 437.286 75.3507C437.185 75.2991 437.07 75.2553 436.933 75.2192C436.929 75.218 436.929 75.218 436.927 75.2167C436.819 75.1793 436.709 75.1484 436.601 75.1136C433.426 73.9682 433.286 69.4639 433.286 69.4639C433.286 69.4639 433.425 64.9597 436.601 63.8143C436.709 63.7795 436.819 63.7486 436.927 63.7112C436.931 63.7099 436.932 63.7099 436.933 63.7087C437.068 63.6726 437.184 63.6275 437.286 63.5772C438.113 63.2719 438.921 62.9008 439.7 62.4512C444.556 59.6425 447.547 51.7368 447.547 46.1194H416.156Z" fill="#E527BB" fill-opacity="0.39"/>
<path d="M415.588 44H448.12C448.893 44 449.521 44.4741 449.521 45.0591C449.521 45.644 448.894 46.1181 448.12 46.1181H415.588C414.815 46.1181 414.188 45.644 414.188 45.0591C414.188 44.4741 414.814 44 415.588 44Z" fill="#A78BEF"/>
<path d="M415.588 92.8083H448.12C448.893 92.8083 449.521 93.2825 449.521 93.8674C449.521 94.4524 448.894 94.9265 448.12 94.9265H415.588C414.815 94.9265 414.188 94.4524 414.188 93.8674C414.188 93.2825 414.814 92.8083 415.588 92.8083Z" fill="#A78BEF"/>
<path d="M439.027 51.5501C441.792 51.6545 443.797 52.6182 445.078 53.5033C444.903 53.9813 444.717 54.4555 444.509 54.918C443.213 57.8156 441.334 60.319 439.188 61.561C438.053 62.2168 436.855 62.709 435.623 63.0375C435.551 63.0568 435.48 63.0839 435.413 63.1187C432.014 64.8889 432.034 69.4306 432.034 69.4306C432.034 86.7261 446.457 87.7671 446.457 91.7805H417.248C417.248 87.2028 431.444 87.6872 431.444 69.495C431.444 69.495 431.409 68.1653 430.923 66.7365C430.437 65.3077 429.438 63.5632 427.451 62.8468C427.438 62.843 427.426 62.8391 427.413 62.8352C427.286 62.7953 427.184 62.7657 427.109 62.7399C427.066 62.7257 427.022 62.7128 426.979 62.7038C427.049 62.718 427.164 62.7579 427.094 62.7347C427.075 62.7283 427.056 62.7218 427.035 62.7167C426.961 62.6974 426.913 62.6768 426.881 62.6613C426.846 62.6433 426.81 62.6278 426.773 62.6136C425.995 62.3263 425.239 61.9797 424.516 61.5623C422.372 60.3228 420.494 57.8233 419.199 54.9296C425.708 58.5139 427.898 53.6837 434.97 51.983C436.468 51.6223 437.819 51.5037 439.027 51.5501Z" fill="#E527BB"/>
<path opacity="0.5" d="M418.512 47.0225C418.512 47.0225 420.109 61.5801 428.412 62.2205C422.823 57.7407 422.663 47.0225 422.663 47.0225H418.512Z" fill="white"/>
<path opacity="0.5" d="M418.512 91.3372C418.512 91.3372 420.109 76.7795 428.412 76.1392C422.823 80.6189 422.663 91.3372 422.663 91.3372H418.512Z" fill="white"/>
<path opacity="0.35" d="M445.82 47.0225C445.82 47.0225 444.223 61.5801 435.92 62.2205C441.509 57.7407 441.669 47.0225 441.669 47.0225H445.82Z" fill="#F2659B"/>
<path opacity="0.35" d="M445.82 91.3372C445.82 91.3372 444.223 76.7795 435.92 76.1392C441.509 80.6189 441.669 91.3372 441.669 91.3372H445.82Z" fill="#F2659B"/>
<path d="M405.943 201.457C405.943 201.457 405.473 204.859 405.545 205.582C405.617 206.305 405.256 206.741 405.112 207.608C404.968 208.475 405.002 209.851 405.147 212.53C405.291 215.208 405.363 216.148 406.087 216.726C406.808 217.304 409.194 216.509 409.194 216.509L408.978 217.957H414.828L414.756 216.365C414.756 216.365 415.55 215.351 415.841 214.556C416.129 213.761 417.502 208.041 417.791 206.521C418.08 205.001 418.296 202.975 417.214 201.166C416.129 199.357 413.313 198.487 411.072 198.559C408.833 198.636 406.522 198.564 405.943 201.457Z" fill="#F4B58E"/>
<path d="M377.195 196.246C377.195 196.246 376.038 194.365 376.329 193.64C376.618 192.917 376.618 192.192 376.329 190.889C376.041 189.585 374.163 188.574 374.163 188.574C374.163 188.574 372.284 183.507 371.563 183.796C370.841 184.085 372.429 187.704 372.14 188.429C371.851 189.152 370.262 190.166 369.973 191.469C369.685 192.773 370.55 194.654 371.13 194.799C371.707 194.943 372.575 197.405 372.575 197.405L377.195 196.246Z" fill="#F4B58E"/>
<path d="M427.33 255.45L424.006 259.213C424.006 259.213 422.85 260.95 422.85 262.687C422.85 264.424 423.571 265.872 425.016 265.438C426.462 265.004 428.34 262.978 428.773 261.53C429.206 260.083 430.074 257.334 430.074 257.334L427.33 255.45Z" fill="#F4B58E"/>
<path d="M394.625 321.254C394.625 321.254 394.216 322.788 392.787 323.506C391.356 324.222 387.066 326.166 386.554 326.987C386.045 327.805 386.145 328.624 386.145 328.624C386.145 328.624 388.598 329.545 392.07 329.237C395.545 328.929 396.974 328.624 397.791 328.827C398.607 329.032 400.856 329.134 400.856 328.724C400.856 328.314 401.163 323.812 399.732 321.765C396.669 321.254 394.625 321.254 394.625 321.254Z" fill="#A78BEF"/>
<path d="M398.816 255.748C398.816 255.748 396.773 287.683 396.363 289.73C395.954 291.777 393.91 321.664 393.91 321.664C393.91 321.664 396.77 324.121 400.45 322.074C405.763 305.698 403.31 297.1 404.537 293.005C405.763 288.911 413.12 270.078 413.12 270.078C413.12 270.078 419.25 293.005 420.067 295.871C420.884 298.736 424.154 322.482 424.154 322.482H429.467C429.467 322.482 430.693 311.429 431.101 306.106C431.51 300.783 428.648 296.281 428.24 291.777C427.831 287.272 426.607 264.755 424.971 257.387C411.893 256.156 398.816 255.748 398.816 255.748Z" fill="black"/>
<mask id="mask0_809_5111" style="mask-type:luminance" maskUnits="userSpaceOnUse" x="393" y="255" width="39" height="68">
<path d="M398.816 255.748C398.816 255.748 396.773 287.683 396.363 289.73C395.954 291.777 393.91 321.664 393.91 321.664C393.91 321.664 396.77 324.121 400.45 322.074C405.763 305.698 403.31 297.1 404.537 293.005C405.763 288.911 413.12 270.078 413.12 270.078C413.12 270.078 419.25 293.005 420.067 295.871C420.884 298.736 424.154 322.482 424.154 322.482H429.467C429.467 322.482 430.693 311.429 431.101 306.106C431.51 300.783 428.648 296.281 428.24 291.777C427.831 287.272 426.607 264.755 424.971 257.387C411.893 256.156 398.816 255.748 398.816 255.748Z" fill="white"/>
</mask>
<g mask="url(#mask0_809_5111)">
<path opacity="0.53" d="M424.083 266.835C428.054 266.126 432.387 264.867 434.479 261.414C425.796 252.515 411.953 248.663 400.249 252.834C397.426 253.839 394.647 255.366 392.981 257.861C391.638 259.868 390.202 264.482 392.164 266.562C393.635 268.119 397.373 267.672 399.3 267.842C407.58 268.572 415.896 268.296 424.083 266.835Z" fill="#3E73B2"/>
</g>
<path d="M424.457 321.254C424.457 321.254 424.048 322.788 422.619 323.506C421.188 324.222 416.898 326.166 416.386 326.987C415.877 327.805 415.977 328.624 415.977 328.624C415.977 328.624 418.43 329.545 421.902 329.237C425.377 328.929 426.806 328.624 427.623 328.827C428.439 329.032 430.688 329.134 430.688 328.724C430.688 328.314 430.995 323.812 429.564 321.765C426.501 321.254 424.457 321.254 424.457 321.254Z" fill="#A78BEF"/>
<path d="M407.605 218.755C407.605 218.755 407.822 217.451 408.399 217.235C408.976 217.018 413.889 217.018 415.19 217.379C416.491 217.741 416.563 219.478 416.563 219.478L407.605 218.755Z" fill="#3E73B2"/>
<path d="M400.041 218.081C400.041 218.081 413.118 218.081 422.518 219.718C426.605 220.536 427.421 222.994 429.058 225.041C430.691 227.088 437.231 241.007 438.048 244.282C438.865 247.558 430.691 259.43 430.691 259.43C430.691 259.43 427.421 259.43 426.605 255.336C429.058 250.013 429.874 244.282 429.874 244.282L424.154 234.047L427.014 263.116C427.014 263.116 406.171 266.392 396.773 262.298C398 249.197 397.59 233.639 397.59 233.639C397.59 233.639 381.243 222.994 379.199 218.9C377.156 214.805 371.436 197.2 371.436 197.2C371.436 197.2 375.113 193.925 377.566 195.564C380.019 201.294 384.922 211.122 386.556 213.577C388.19 216.034 400.041 218.081 400.041 218.081Z" fill="#A78BEF"/>
<path d="M405.548 201.966C405.438 202.22 405.043 202.98 405.692 203.341C406.341 203.703 407.535 203.847 407.714 204.246C407.896 204.645 407.679 206.743 407.787 207.466C407.896 208.188 408.185 208.333 408.436 207.827C408.69 207.321 408.326 206.633 409.376 206.706C410.423 206.778 410.856 207.393 410.533 208.804C410.207 210.214 410.063 210.795 409.16 212.206C409.376 213.255 410.856 214.847 410.856 214.847C410.856 214.847 414.324 215.934 415.481 215.353C417.215 211.084 418.695 206.741 418.588 204.859C418.478 202.978 418.155 201.241 416.565 199.975C414.976 198.709 411.58 198.021 408.98 198.454C406.379 198.888 405.981 199.865 405.548 201.966Z" fill="black"/>
<path d="M117.411 208.604C116.742 211.383 119.93 212.674 120.389 214.974C120.731 216.688 119.954 219.007 118.225 219.585C117.565 219.807 116.705 219.125 116.061 219.041C115.62 218.986 113.564 219.115 113.219 218.77C112.941 218.492 113.247 216.667 113.219 216.33C112.978 213.467 113.617 208.604 117.411 208.604Z" fill="black"/>
<path d="M146.895 209.854C146.895 209.854 148.192 207.918 148.553 206.303C148.914 204.688 149.657 203.647 150.563 202.468C151.469 201.288 151.222 200.522 151.805 200.868C152.388 201.214 152.132 202.187 151.586 202.999C151.041 203.811 151.836 204.141 152.705 203.051C153.575 201.961 155.14 200.432 156.811 200.405C158.482 200.377 158.636 201.998 157.893 203.036C157.15 204.073 154.854 206.856 153.75 208.264C152.647 209.672 149.336 211.815 149.336 211.815L146.895 209.854Z" fill="#F4B58E"/>
<path d="M117.463 217.306L131.871 219.792C131.871 219.792 137.836 215.734 139.923 214.922C142.01 214.11 147.321 208.693 147.321 208.693C147.728 209.601 148.853 210.808 150.595 211.417C150.595 211.417 146.205 218.325 142.047 221.719C137.888 225.113 138.884 225.218 136.877 226.197C134.87 227.175 121.131 228.491 121.131 228.491L117.463 217.306Z" fill="#A78BEF"/>
<path d="M123.808 283.11C122.06 290.37 119.93 314.368 119.689 317.823C119.517 320.331 120.229 322.557 121.887 323.969C124.427 326.13 125.33 326.652 126.576 327.035C127.821 327.418 127.821 328.091 126.289 328.474C124.757 328.857 122.556 329.144 121.601 328.666C120.645 328.187 117.775 325.117 117.199 325.213C116.625 325.309 116.335 327.705 116.53 328.471C115.67 328.758 115.478 328.567 115.478 328.567C114.147 324.064 115.969 321.511 116.021 318.568C116.363 307.237 111.154 299.412 113.536 293.464C115.67 290.429 112.84 287.507 113.318 282.316C114.945 283.554 119.011 280.957 123.808 283.11Z" fill="#F1A271"/>
<path d="M115.244 322.897C117.544 323.218 119.97 325.744 121.884 326.745C123.185 327.424 124.514 326.998 125.386 326.538C125.787 326.742 126.166 326.909 126.57 327.032C127.815 327.415 127.815 328.088 126.283 328.471C124.751 328.854 122.55 329.141 121.595 328.663C120.639 328.184 117.769 325.114 117.193 325.21C116.619 325.306 116.33 327.702 116.524 328.468C115.664 328.755 115.473 328.564 115.473 328.564C114.798 326.273 114.939 324.488 115.244 322.897Z" fill="#A78BEF"/>
<path d="M111.935 285.601C110.187 292.862 104.047 314.75 103.806 318.206C103.633 320.713 104.346 322.94 106.004 324.351C108.544 326.513 109.447 327.035 110.693 327.418C111.938 327.801 111.938 328.474 110.406 328.857C108.874 329.24 106.673 329.527 105.717 329.048C104.762 328.57 101.892 325.5 101.315 325.596C100.742 325.691 100.452 328.088 100.646 328.854C99.7864 329.141 99.5953 328.949 99.5953 328.949C98.2636 324.447 100.085 321.893 100.138 318.95C101.297 299.637 97.1107 302.867 100.514 293.847C102.647 290.811 101.537 288.273 102.015 283.082C103.649 284.32 107.142 283.452 111.935 285.601Z" fill="#F4B58E"/>
<path d="M99.3636 323.28C101.663 323.601 104.089 326.127 106.004 327.127C107.304 327.807 108.633 327.381 109.505 326.92C109.906 327.124 110.285 327.291 110.689 327.415C111.934 327.797 111.934 328.471 110.402 328.854C108.87 329.237 106.669 329.524 105.714 329.045C104.758 328.566 101.888 325.497 101.312 325.593C100.738 325.688 100.449 328.085 100.643 328.85C99.7828 329.138 99.5917 328.946 99.5917 328.946C98.9167 326.658 99.0585 324.873 99.3636 323.28Z" fill="#A78BEF"/>
<path d="M118.38 200.985C118.38 200.985 119.625 204.351 120.399 206.661C121.173 208.971 121.721 210.846 120.035 211.377C118.346 211.908 116.259 213.032 116.259 213.032L115.717 217.714L109.69 217.757L111.096 213.628C111.096 213.628 108.611 205.062 109.117 202.718C109.622 200.374 112.073 199.216 114.705 198.959C117.332 198.703 118.025 200.195 118.38 200.985Z" fill="#F4B58E"/>
<path d="M122.336 244.463C122.336 244.463 124.059 250.79 124.823 256.157C125.588 261.524 124.087 283.765 124.087 283.765C124.087 283.765 110.671 289.16 101.294 284.559C99.7619 267.688 99.9437 263.828 101.285 257.118C102.626 250.407 106.26 242.931 106.26 242.931L122.336 244.463Z" fill="black"/>
<path d="M112.89 215.422C108.916 215.264 106.798 217.979 106.139 224.909C105.479 231.841 108.586 234.087 105.088 243.851C103.858 247.282 119.181 248.666 122.147 246.683C125.112 244.703 119.508 238.289 124.144 231.925C127.914 226.758 119.505 215.688 112.89 215.422Z" fill="#A78BEF"/>
<path d="M116.587 197.656C116.587 197.656 115.727 197.082 114.673 197.752C113.622 198.422 114.195 199.67 114.195 199.67L116.587 197.656Z" fill="#F5C211"/>
<path d="M110.901 213.078C110.901 213.078 108.217 209.694 106.315 207.649C103.935 205.092 103.54 197.613 111.459 196.192C113.626 195.803 118.839 196.755 118.71 199.682C118.63 201.486 118.46 202.387 116.641 202.307C114.819 202.227 113.121 202.613 113.167 204.425C113.213 206.238 113.519 208.023 113.519 208.023C113.519 208.023 112.523 205.784 111.518 207.439C110.513 209.095 112.766 210.951 110.901 213.078Z" fill="black"/>
<path d="M105.983 199.586C105.983 199.586 104.766 201.214 104.495 204.466C104.223 207.721 104.495 209.753 102.87 213.143C101.245 216.534 104.63 218.702 107.472 218.838C110.315 218.974 113.292 217.89 112.885 215.314C112.478 212.739 111.532 211.383 111.125 209.215C110.718 207.047 110.314 202.709 110.314 202.709L105.983 199.586Z" fill="black"/>
<path opacity="0.53" d="M110.75 219.823C110.75 219.823 108.502 222.571 106.095 225.548C105.679 231.98 108.472 234.398 105.084 243.851C103.854 247.282 119.177 248.666 122.143 246.683C123.249 245.945 123.163 244.583 122.861 242.841C119.328 242.915 113.965 242.906 112.485 242.233C110.238 241.211 108.706 237.934 108.604 236.807C108.502 235.68 113.2 226.573 113.099 223.911C113 221.255 110.75 219.823 110.75 219.823Z" fill="#F7A3C3"/>
<path d="M123.145 227.453C123 228.902 119.967 251.627 119.967 251.627L133.694 249.021L136.582 225.282L123.145 227.453Z" fill="#47464C"/>
<path d="M123.553 227.657C123.408 229.106 120.375 251.831 120.375 251.831L134.102 249.225L136.99 225.486L123.553 227.657Z" fill="#E527BB"/>
<path d="M115.393 240.809C115.393 240.809 118.205 241.245 119.154 239.982C120.104 238.719 121.118 238.144 123.029 238.076C124.94 238.008 127.391 237.996 126.747 240.244C126.099 242.492 125.057 243.335 122.551 243.888C120.042 244.438 119.139 244.858 118.063 244.744C116.987 244.629 114.037 244.617 114.037 244.617L115.393 240.809Z" fill="#F4B58E"/>
<path d="M106.023 218.816C109.935 217.868 111.855 220.372 112.527 223.034C113.199 225.696 106.473 237.678 106.473 237.678L116.917 240.563C116.917 240.563 117.987 242.619 116.979 244.42C108.767 246.137 100.579 243.475 98.8837 242.752C97.1883 242.033 99.5188 221.126 106.023 218.816Z" fill="#A78BEF"/>
<path d="M399.539 123.763H436.34L424.762 98.5837L399.539 123.763Z" fill="#E527BB"/>
<path d="M244.017 240.702L223.785 240.7L214.996 221.358L216.017 221.154L224.399 239.475L244.219 239.478L244.017 240.702Z" fill="#E527BB"/>
<path d="M231.346 228.01C231.346 228.01 230.734 228.93 230.631 229.75C230.528 230.57 231.348 230.978 232.163 231.081C232.982 231.185 234.921 231.286 234.921 230.878C234.92 230.469 234.716 228.729 234.716 228.729C234.716 228.729 232.265 227.702 231.346 228.01Z" fill="#EF8F6A"/>
<path d="M249.671 268.451C251.59 275.807 256.053 285.569 256.053 285.569C255.376 284.523 267.708 314.506 268.673 318.057C269.343 320.521 269.058 322.882 267.678 324.613C265.566 327.266 264.766 327.963 263.599 328.589C262.431 329.215 262.562 329.886 264.165 329.967C265.768 330.049 268.019 329.904 268.879 329.24C269.739 328.575 272.004 324.953 272.598 324.936C273.188 324.919 273.944 327.251 273.9 328.052C274.814 328.17 274.967 327.942 274.967 327.942C275.418 323.193 273.103 321.003 272.478 318.08C267.558 299.054 273.03 297.755 268.122 285.616C266.874 282.533 262.612 270.28 262.631 265.443C262.659 260.607 247.751 261.095 249.671 268.451Z" fill="#F1A474"/>
<path d="M274.098 322.247C271.867 323.017 269.94 326.01 268.227 327.382C267.062 328.313 265.654 328.149 264.695 327.861C264.335 328.143 263.989 328.383 263.611 328.585C262.444 329.211 262.575 329.882 264.177 329.963C265.779 330.045 268.029 329.9 268.889 329.236C269.749 328.572 272.012 324.951 272.606 324.933C273.196 324.916 273.952 327.248 273.907 328.049C274.821 328.167 274.974 327.939 274.974 327.939C275.204 325.522 274.715 323.771 274.098 322.247Z" fill="#A78BEF"/>
<path d="M263.378 253.542C259.776 250.385 252.443 249.819 249.026 253.172C246.935 255.223 248.398 262.382 248.361 268.958C248.325 275.534 246.797 285.554 246.797 285.554C246.994 289.576 250.588 316.529 250.604 320.209C250.615 322.763 249.73 324.969 247.95 326.284C245.225 328.298 244.273 328.764 242.983 329.065C241.693 329.367 241.647 330.049 243.174 330.544C244.702 331.039 246.914 331.483 247.917 331.065C248.919 330.646 252.042 327.735 252.62 327.872C253.195 328.009 253.323 330.458 253.073 331.221C253.926 331.572 254.133 331.391 254.133 331.391C255.794 326.921 254.123 324.205 254.273 321.219C254.432 301.565 260.052 301.731 258.444 288.731C258.035 285.427 264.005 268.389 265.1 264.351C266.202 260.317 266.123 255.944 263.378 253.542Z" fill="#F4B58E"/>
<path d="M254.752 325.664C252.399 325.829 249.765 328.22 247.756 329.1C246.39 329.698 245.073 329.173 244.22 328.646C243.8 328.825 243.404 328.967 242.986 329.064C241.697 329.366 241.651 330.048 243.178 330.542C244.704 331.037 246.915 331.481 247.917 331.063C248.919 330.645 252.04 327.735 252.617 327.872C253.195 328.009 253.32 330.457 253.07 331.219C253.922 331.57 254.129 331.39 254.129 331.39C254.975 329.115 254.954 327.297 254.752 325.664Z" fill="#A78BEF"/>
<path d="M248.382 235.16L240.163 229.911L238.328 232.517C238.328 232.517 246.88 242.864 248.86 242.415C250.841 241.963 248.382 235.16 248.382 235.16Z" fill="#F4B58E"/>
<path d="M265.058 243.829L248.209 244.329C248.209 244.329 247.134 264.135 247.399 268.294C247.668 272.454 246.384 287.88 246.384 287.88C246.384 287.88 262.512 289.21 269.377 285.541C266.506 275.127 265.071 267.853 266.78 263C268.493 258.146 270.608 251.389 265.058 243.829Z" fill="#3E73B2"/>
<path d="M246.695 206.314C246.695 206.314 247.322 209.904 247.823 212.328C248.323 214.752 248.797 216.677 250.551 216.279C252.305 215.88 254.712 215.794 254.712 215.794L256.014 219.075L262.11 218.497C262.11 218.497 260.224 215.811 259.551 213.671C258.874 211.53 257.353 204.882 255.711 203.084C254.07 201.286 251.328 201.529 248.888 202.65C246.447 203.772 246.6 205.44 246.695 206.314Z" fill="#F4B58E"/>
<path d="M259.133 216.993C263.172 217.11 264.006 219.343 264.195 226.415C264.385 233.487 264.743 240.75 267.484 247.881C268.812 251.336 250.696 253.369 247.827 251.156C248.858 244.602 250.84 239.71 246.58 232.94C244.733 230.006 248.249 227.203 251.334 223.768C254.035 220.762 255.997 216.903 259.133 216.993Z" fill="#A78BEF"/>
<path d="M256.616 198.728C256.616 198.728 257.528 198.206 258.55 198.958C259.569 199.71 258.902 200.935 258.902 200.935L256.616 198.728Z" fill="#F5C211"/>
<path d="M259.689 213.96C259.689 213.96 260.061 208.744 260.686 205.976C261.468 202.514 257.993 195.745 250.317 198.557C248.215 199.328 244.11 202.847 245.739 205.336C247.752 208.414 254.56 209.995 254.56 209.995C254.56 209.995 254.905 206.868 256.631 207.807C257.787 208.437 258.039 211.224 256.916 212.05C257.499 213.256 258.906 214.164 259.689 213.96Z" fill="black"/>
<path d="M252.025 234.627L251.808 240.665C251.808 240.665 248.859 241.047 246.672 241.68C244.485 242.309 236.727 241.776 236.727 241.776L236.097 244.201C236.097 244.201 244.097 247.59 248.316 247.87C253.75 248.231 256.144 248.574 257.439 246.711C258.734 244.847 258.855 234.512 258.855 234.512L252.025 234.627Z" fill="#F4B58E"/>
<path d="M256.692 220.305C253.378 222.03 251.947 224.275 251.629 228.938C251.311 233.601 251.165 235.739 251.165 235.739C251.165 235.739 257.581 238.522 260.337 235.589C260.442 227.785 261.663 219.279 256.692 220.305Z" fill="#A78BEF"/>
<path d="M256.992 198.841C256.992 198.841 258.32 195.669 260.261 196.896C262.202 198.124 263.021 200.07 262.1 201.604C261.179 203.138 258.421 202.524 258.421 202.524L256.992 198.841Z" fill="black"/>
<path d="M237.783 242.034C237.783 242.034 235.229 240.909 234.205 240.499C233.185 240.09 229.813 239.679 229.3 239.886C228.79 240.09 229.198 240.602 229.198 240.602C229.198 240.602 226.746 240.6 225.417 240.704C224.089 240.807 224.804 241.828 226.134 242.444C227.464 243.057 230.324 244.389 231.754 244.594C233.184 244.799 237.373 244.593 237.373 244.593L237.783 242.034Z" fill="#F4B58E"/>
<path d="M231.959 227.703C231.959 227.703 229.814 227.295 229.301 227.599C228.79 227.907 227.87 229.341 227.77 229.749C227.667 230.157 227.872 230.875 228.384 230.363C228.896 229.851 229.303 228.625 230.017 228.419C230.731 228.213 232.776 228.52 232.776 228.52L231.959 227.703Z" fill="#EF8F6A"/>
<path d="M241.053 230.469C241.053 230.469 237.885 228.217 237.068 227.809C236.252 227.401 233.184 227.501 232.675 227.196C232.165 226.887 230.222 225.559 229.508 225.661C228.792 225.763 226.575 225.997 226.766 226.517C227.097 227.41 229.099 226.787 229.61 226.891C230.121 226.992 231.96 228.323 232.572 228.937C233.186 229.551 234.308 229.345 234.412 230.167C234.513 230.985 233.185 232.419 232.879 233.133C232.572 233.851 232.163 234.464 232.572 234.769C232.981 235.077 233.084 234.77 233.595 233.95C234.106 233.129 235.026 232.62 236.048 232.414C237.07 232.211 239.216 232.723 239.216 232.723L241.053 230.469Z" fill="#F4B58E"/>
<path d="M302.559 129.775H328.119C328.119 143.794 316.578 155.335 302.559 155.335C288.541 155.335 277 143.794 277 129.775C277 115.974 288.171 104.542 301.962 104.227L302.559 129.775Z" fill="#E527BB"/>
<path d="M309.451 123.549L308.875 98C315.526 98 322.502 100.597 327.273 105.237C332.044 109.878 334.815 116.507 334.999 123.157L309.451 123.549Z" fill="#A78BEF"/>
</g>
<defs>
<clipPath id="clip0_809_5111">
<rect width="542.64" height="328.79" fill="white"/>
</clipPath>
</defs>
</svg>
