<svg width="533" height="331" viewBox="0 0 533 331" fill="none" xmlns="http://www.w3.org/2000/svg">
<path opacity="0.2" fill-rule="evenodd" clip-rule="evenodd" d="M0 7.5756C0 7.5756 496.166 -10.2363 522.25 8.76437C545.499 25.7019 520.61 239.759 514.929 286.131C514.801 287.134 513.992 287.91 512.938 288.028C382.355 302.136 78.1811 295.779 13.6451 294.227C12.5792 294.197 11.7008 293.49 11.49 292.498C2.02627 247.216 0 7.5756 0 7.5756Z" fill="#999999"/>
<path d="M358.998 107.246H411.981V85H471.89V107.246H496.16V303H167.998V67H358.998V107.246Z" fill="#A6A6A6" fill-opacity="0.38"/>
<rect x="185" y="79" width="45" height="16" fill="#DAA7EE" fill-opacity="0.45"/>
<rect x="239" y="79" width="45" height="16" fill="#DAA7EE" fill-opacity="0.45"/>
<rect x="185" y="138" width="45" height="16" fill="#DAA7EE" fill-opacity="0.45"/>
<rect x="239" y="138" width="45" height="16" fill="#DAA7EE" fill-opacity="0.45"/>
<rect x="185" y="108" width="45" height="16" fill="#DAA7EE" fill-opacity="0.45"/>
<rect x="239" y="108" width="45" height="16" fill="#DAA7EE" fill-opacity="0.45"/>
<rect x="185" y="167" width="45" height="16" fill="#DAA7EE" fill-opacity="0.45"/>
<rect x="239" y="167" width="45" height="16" fill="#DAA7EE" fill-opacity="0.45"/>
<rect x="427" y="123" width="27.4517" height="9.76059" fill="#DAA7EE" fill-opacity="0.45"/>
<rect x="459.943" y="123" width="27.4517" height="9.76059" fill="#DAA7EE" fill-opacity="0.45"/>
<rect x="427" y="158.992" width="27.4517" height="9.76059" fill="#DAA7EE" fill-opacity="0.45"/>
<rect x="459.943" y="158.992" width="27.4517" height="9.76059" fill="#DAA7EE" fill-opacity="0.45"/>
<rect x="427" y="140.691" width="27.4517" height="9.76059" fill="#DAA7EE" fill-opacity="0.45"/>
<rect x="459.943" y="140.691" width="27.4517" height="9.76059" fill="#DAA7EE" fill-opacity="0.45"/>
<rect x="427" y="176.684" width="27.4517" height="9.76059" fill="#DAA7EE" fill-opacity="0.45"/>
<rect x="459.943" y="176.684" width="27.4517" height="9.76059" fill="#DAA7EE" fill-opacity="0.45"/>
<rect x="427" y="194" width="27.4517" height="9.76059" fill="#DAA7EE" fill-opacity="0.45"/>
<rect x="459.943" y="194" width="27.4517" height="9.76059" fill="#DAA7EE" fill-opacity="0.45"/>
<rect x="427" y="229.992" width="27.4517" height="9.76059" fill="#DAA7EE" fill-opacity="0.45"/>
<rect x="459.943" y="229.992" width="27.4517" height="9.76059" fill="#DAA7EE" fill-opacity="0.45"/>
<rect x="427" y="211.691" width="27.4517" height="9.76059" fill="#DAA7EE" fill-opacity="0.45"/>
<rect x="459.943" y="211.691" width="27.4517" height="9.76059" fill="#DAA7EE" fill-opacity="0.45"/>
<rect x="427" y="247.684" width="27.4517" height="9.76059" fill="#DAA7EE" fill-opacity="0.45"/>
<rect x="459.943" y="247.684" width="27.4517" height="9.76059" fill="#DAA7EE" fill-opacity="0.45"/>
<rect x="185" y="193" width="45" height="16" fill="#DAA7EE" fill-opacity="0.45"/>
<rect x="239" y="193" width="45" height="16" fill="#DAA7EE" fill-opacity="0.45"/>
<rect x="185" y="252" width="45" height="16" fill="#DAA7EE" fill-opacity="0.45"/>
<rect x="239" y="252" width="45" height="16" fill="#DAA7EE" fill-opacity="0.45"/>
<rect x="185" y="222" width="45" height="16" fill="#DAA7EE" fill-opacity="0.45"/>
<rect x="239" y="222" width="45" height="16" fill="#DAA7EE" fill-opacity="0.45"/>
<rect x="185" y="281" width="45" height="16" fill="#DAA7EE" fill-opacity="0.45"/>
<rect x="239" y="281" width="45" height="16" fill="#DAA7EE" fill-opacity="0.45"/>
<rect x="305" y="119" width="45" height="16" fill="#DAA7EE" fill-opacity="0.45"/>
<rect x="359" y="119" width="45" height="16" fill="#DAA7EE" fill-opacity="0.45"/>
<rect x="305" y="178" width="45" height="16" fill="#DAA7EE" fill-opacity="0.45"/>
<rect x="359" y="178" width="45" height="16" fill="#DAA7EE" fill-opacity="0.45"/>
<rect x="305" y="148" width="45" height="16" fill="#DAA7EE" fill-opacity="0.45"/>
<rect x="359" y="148" width="45" height="16" fill="#DAA7EE" fill-opacity="0.45"/>
<rect x="305" y="207" width="45" height="16" fill="#DAA7EE" fill-opacity="0.45"/>
<rect x="359" y="207" width="45" height="16" fill="#DAA7EE" fill-opacity="0.45"/>
<rect x="305" y="238" width="45" height="16" fill="#DAA7EE" fill-opacity="0.45"/>
<rect x="359" y="238" width="45" height="16" fill="#DAA7EE" fill-opacity="0.45"/>
<rect x="305" y="267" width="45" height="16" fill="#DAA7EE" fill-opacity="0.45"/>
<rect x="359" y="267" width="45" height="16" fill="#DAA7EE" fill-opacity="0.45"/>
<path d="M153.871 31H36.6899C35.2047 31 34 32.2047 34 33.6899V96.3101C34 97.7953 35.2047 99 36.6899 99H153.871C155.356 99 156.561 97.7953 156.561 96.3101V33.6847C156.561 32.1995 155.356 31 153.871 31Z" fill="#D223AB"/>
<path d="M150.365 32.48H38.0395C36.5543 32.48 35.3496 33.6847 35.3496 35.1699V91.7197C35.3496 93.2048 36.5543 94.4096 38.0395 94.4096H150.371C151.856 94.4096 153.06 93.2048 153.06 91.7197V35.1699C153.055 33.6847 151.851 32.48 150.365 32.48Z" fill="#E527BB"/>
<path d="M150.366 34.095H38.0398C37.4478 34.095 36.9648 34.5779 36.9648 35.1699V91.7197C36.9648 92.3117 37.4478 92.7946 38.0398 92.7946H150.371C150.963 92.7946 151.446 92.3117 151.446 91.7197V35.1699C151.441 34.5779 150.958 34.095 150.366 34.095Z" fill="#FFFDF0"/>
<g opacity="0.18">
<path d="M150.615 34.6765H37.9927C37.8421 34.6765 37.7227 34.7959 37.7227 34.9465V91.3665C37.7227 91.5171 37.8421 91.6366 37.9927 91.6366H150.615C150.765 91.6366 150.885 91.5171 150.885 91.3665V34.9465C150.89 34.7959 150.765 34.6765 150.615 34.6765ZM150.345 91.0965H38.2679V35.2166H150.345V91.0965Z" fill="#00574D"/>
<path d="M150.615 81.6924H37.9927C37.8421 81.6924 37.7227 81.8118 37.7227 81.9624C37.7227 82.113 37.8421 82.2324 37.9927 82.2324H150.615C150.765 82.2324 150.885 82.113 150.885 81.9624C150.89 81.8118 150.765 81.6924 150.615 81.6924Z" fill="#00574D"/>
<path d="M150.615 72.2881H37.9927C37.8421 72.2881 37.7227 72.4075 37.7227 72.5581C37.7227 72.7087 37.8421 72.8281 37.9927 72.8281H150.615C150.765 72.8281 150.885 72.7087 150.885 72.5581C150.89 72.4127 150.765 72.2881 150.615 72.2881Z" fill="#00574D"/>
<path d="M150.615 62.884H37.9927C37.8421 62.884 37.7227 63.0035 37.7227 63.1541C37.7227 63.3047 37.8421 63.4241 37.9927 63.4241H150.615C150.765 63.4241 150.885 63.3047 150.885 63.1541C150.89 63.0087 150.765 62.884 150.615 62.884Z" fill="#00574D"/>
<path d="M150.615 53.4797H37.9927C37.8421 53.4797 37.7227 53.5992 37.7227 53.7498C37.7227 53.9004 37.8421 54.0198 37.9927 54.0198H150.615C150.765 54.0198 150.885 53.9004 150.885 53.7498C150.89 53.6044 150.765 53.4797 150.615 53.4797Z" fill="#00574D"/>
<path d="M150.615 44.0757H37.9927C37.8421 44.0757 37.7227 44.1951 37.7227 44.3457C37.7227 44.4963 37.8421 44.6157 37.9927 44.6157H150.615C150.765 44.6157 150.885 44.4963 150.885 44.3457C150.89 44.2003 150.765 44.0757 150.615 44.0757Z" fill="#00574D"/>
<path d="M131.842 34.6765C131.692 34.6765 131.572 34.7959 131.572 34.9465V91.3665C131.572 91.5171 131.692 91.6366 131.842 91.6366C131.993 91.6366 132.112 91.5171 132.112 91.3665V34.9465C132.118 34.7959 131.993 34.6765 131.842 34.6765Z" fill="#00574D"/>
<path d="M113.075 34.6765C112.924 34.6765 112.805 34.7959 112.805 34.9465V91.3665C112.805 91.5171 112.924 91.6366 113.075 91.6366C113.225 91.6366 113.345 91.5171 113.345 91.3665V34.9465C113.345 34.7959 113.225 34.6765 113.075 34.6765Z" fill="#00574D"/>
<path d="M94.3032 34.6765C94.1526 34.6765 94.0332 34.7959 94.0332 34.9465V91.3665C94.0332 91.5171 94.1526 91.6366 94.3032 91.6366C94.4538 91.6366 94.5732 91.5171 94.5732 91.3665V34.9465C94.5784 34.7959 94.4538 34.6765 94.3032 34.6765Z" fill="#00574D"/>
<path d="M75.5317 34.6765C75.3812 34.6765 75.2617 34.7959 75.2617 34.9465V91.3665C75.2617 91.5171 75.3812 91.6366 75.5317 91.6366C75.6823 91.6366 75.8018 91.5171 75.8018 91.3665V34.9465C75.807 34.7959 75.6823 34.6765 75.5317 34.6765Z" fill="#00574D"/>
<path d="M56.7642 34.6765C56.6136 34.6765 56.4941 34.7959 56.4941 34.9465V91.3665C56.4941 91.5171 56.6136 91.6366 56.7642 91.6366C56.9148 91.6366 57.0342 91.5171 57.0342 91.3665V34.9465C57.0342 34.7959 56.9148 34.6765 56.7642 34.6765Z" fill="#00574D"/>
</g>
<path d="M150.232 34.5622L131.46 53.3706C131.402 53.4277 131.356 53.5004 131.33 53.5835L122.201 80.9549L113.461 72.179C113.352 72.07 113.212 72.0128 113.056 72.018C112.906 72.0232 112.765 72.0907 112.662 72.205L104.981 81.0276L94.7878 62.9098L86.2093 44.4545C86.1366 44.2988 85.9964 44.1845 85.825 44.1534C85.6589 44.117 85.4823 44.1637 85.3525 44.278L75.1746 53.3498C75.1226 53.3966 75.0759 53.4537 75.0447 53.5212L66.0923 72.2361L56.4493 81.5157L37.7551 90.8835C37.4851 91.0186 37.376 91.3457 37.511 91.6157C37.6045 91.8079 37.7966 91.9169 37.9992 91.9169C38.0822 91.9169 38.1653 91.8962 38.2432 91.8598L57.0153 82.4556C57.062 82.4296 57.1087 82.3985 57.1503 82.3621L66.9232 72.9579C66.9699 72.9112 67.0063 72.8593 67.0374 72.8021L75.9898 54.0924L85.5394 45.5814L93.822 63.3928C93.8272 63.4031 93.8324 63.4187 93.8427 63.4291L104.426 82.2375C104.514 82.3933 104.67 82.492 104.846 82.5127C105.023 82.5283 105.194 82.4608 105.314 82.331L113.113 73.3682L122.061 82.3569C122.196 82.492 122.388 82.5439 122.569 82.5023C122.751 82.4608 122.902 82.3258 122.959 82.144L132.327 54.0561L151.005 35.3411C151.218 35.1282 151.218 34.7855 151.005 34.5726C150.787 34.3493 150.445 34.3493 150.232 34.5622Z" fill="#E527BB"/>
<path d="M150.859 34.4585C150.589 34.3235 150.262 34.4326 150.127 34.7026L131.692 71.6391L113.455 53.3656C113.351 53.2618 113.206 53.2046 113.066 53.2046C112.92 53.2046 112.78 53.2669 112.676 53.3708L104.051 62.3803L94.6832 53.3604C94.4703 53.1527 94.1328 53.1579 93.9199 53.3656L75.5217 71.8001L65.889 62.7594C65.6709 62.5569 65.3334 62.5621 65.1257 62.775L37.6037 90.9876C37.396 91.2005 37.396 91.5484 37.6141 91.7561C37.718 91.86 37.8582 91.9119 37.9932 91.9119C38.1334 91.9119 38.2736 91.8548 38.3827 91.7458L65.5307 63.9174L75.1582 72.9581C75.3711 73.1606 75.7086 73.1554 75.9164 72.9477L94.3093 54.5184L103.693 63.5539C103.797 63.6526 103.937 63.7097 104.082 63.7045C104.228 63.6993 104.363 63.6422 104.466 63.5383L113.081 54.5392L131.459 72.9529C131.583 73.0776 131.76 73.1347 131.931 73.1035C132.103 73.0776 132.253 72.9685 132.331 72.8075L151.103 35.1907C151.238 34.9207 151.129 34.5936 150.859 34.4585Z" fill="#DAA7EE"/>
<path d="M143.984 80.716C143.703 80.4772 143.371 80.2643 142.982 80.0825C142.592 79.9008 142.161 79.7242 141.688 79.5476C141.398 79.4386 141.148 79.3399 140.951 79.2361C140.754 79.1374 140.593 79.0284 140.473 78.9141C140.354 78.7999 140.266 78.6753 140.219 78.5402C140.167 78.4052 140.146 78.2546 140.141 78.0833C140.141 77.9171 140.162 77.7613 140.209 77.6159C140.255 77.4705 140.333 77.3459 140.432 77.2368C140.536 77.1278 140.666 77.0447 140.821 76.9824C140.977 76.9201 141.169 76.8889 141.387 76.8889C141.792 76.8837 142.114 77.0187 142.358 77.2836C142.602 77.5536 142.727 77.9586 142.727 78.4987L144.841 78.4831C144.835 78.0313 144.768 77.6211 144.638 77.2576C144.508 76.8941 144.321 76.5774 144.077 76.3125C143.838 76.0477 143.542 75.8296 143.205 75.6686C142.862 75.5024 142.483 75.3934 142.062 75.3415L142.052 73.8667L140.884 73.8771L140.894 75.3311C140.458 75.3726 140.058 75.4713 139.71 75.6219C139.357 75.7725 139.056 75.9646 138.806 76.2035C138.557 76.4423 138.36 76.7176 138.23 77.0343C138.095 77.3511 138.028 77.7042 138.033 78.0885C138.038 78.5299 138.116 78.9141 138.272 79.2361C138.427 79.558 138.646 79.8333 138.926 80.0721C139.206 80.311 139.539 80.5187 139.933 80.7005C140.323 80.8822 140.759 81.0536 141.237 81.2197C141.517 81.3132 141.751 81.4067 141.943 81.5053C142.135 81.604 142.296 81.7131 142.415 81.8273C142.54 81.9467 142.628 82.0766 142.68 82.2168C142.737 82.3622 142.763 82.5283 142.763 82.7205C142.763 82.8866 142.737 83.0424 142.68 83.1878C142.623 83.3332 142.535 83.4527 142.421 83.5617C142.306 83.6656 142.161 83.7486 141.99 83.811C141.818 83.8733 141.616 83.9044 141.387 83.9044C141.185 83.9044 140.993 83.8837 140.801 83.8317C140.608 83.7798 140.437 83.6915 140.281 83.5617C140.131 83.4319 140.006 83.2605 139.918 83.0476C139.824 82.8347 139.778 82.5647 139.778 82.2427L137.664 82.2583C137.669 82.8035 137.758 83.2657 137.939 83.6552C138.116 84.0446 138.355 84.3666 138.645 84.6158C138.941 84.8703 139.274 85.0624 139.653 85.1974C140.032 85.3325 140.421 85.4155 140.826 85.4519L140.837 86.7968L142 86.7864L141.99 85.4363C142.426 85.3948 142.826 85.3013 143.184 85.1559C143.542 85.0105 143.844 84.8236 144.098 84.5899C144.347 84.3562 144.545 84.081 144.68 83.7642C144.815 83.4475 144.882 83.0892 144.882 82.6893C144.877 82.2479 144.799 81.8688 144.643 81.5521C144.477 81.2353 144.259 80.9549 143.984 80.716Z" fill="#E527BB"/>
<path d="M114.765 45.3894C114.485 45.1505 114.152 44.9376 113.763 44.7558C113.373 44.5741 112.942 44.3975 112.47 44.221C112.179 44.1119 111.93 44.0133 111.732 43.9094C111.535 43.8108 111.374 43.7017 111.255 43.5875C111.135 43.4732 111.047 43.3486 111 43.2136C110.948 43.0786 110.927 42.928 110.922 42.7566C110.922 42.5904 110.943 42.4347 110.99 42.2893C111.037 42.1439 111.114 42.0192 111.213 41.9102C111.317 41.8011 111.447 41.718 111.603 41.6557C111.758 41.5934 111.95 41.5623 112.169 41.5623C112.574 41.5571 112.896 41.6921 113.14 41.9569C113.384 42.2269 113.508 42.632 113.508 43.172L115.622 43.1565C115.617 42.7047 115.549 42.2944 115.419 41.931C115.289 41.5675 115.102 41.2507 114.858 40.9859C114.62 40.721 114.324 40.5029 113.986 40.3419C113.643 40.1758 113.264 40.0667 112.844 40.0148L112.833 38.54L111.665 38.5504L111.675 40.0044C111.239 40.046 110.839 40.1446 110.491 40.2952C110.138 40.4458 109.837 40.6379 109.588 40.8768C109.338 41.1157 109.141 41.3909 109.011 41.7077C108.876 42.0244 108.809 42.3775 108.814 42.7618C108.819 43.2032 108.897 43.5875 109.053 43.9094C109.209 44.2314 109.427 44.5066 109.707 44.7455C109.988 44.9843 110.32 45.192 110.715 45.3738C111.104 45.5555 111.54 45.7269 112.018 45.8931C112.298 45.9865 112.532 46.08 112.724 46.1787C112.916 46.2773 113.077 46.3864 113.197 46.5006C113.321 46.6201 113.41 46.7499 113.462 46.8901C113.519 47.0355 113.545 47.2017 113.545 47.3938C113.545 47.56 113.519 47.7158 113.462 47.8612C113.404 48.0065 113.316 48.126 113.202 48.235C113.088 48.3389 112.942 48.422 112.771 48.4843C112.6 48.5466 112.397 48.5778 112.169 48.5778C111.966 48.5778 111.774 48.557 111.582 48.5051C111.39 48.4531 111.218 48.3649 111.062 48.235C110.912 48.1052 110.787 47.9339 110.699 47.7209C110.606 47.508 110.559 47.238 110.559 46.9161L108.445 46.9316C108.451 47.4769 108.539 47.939 108.721 48.3285C108.897 48.718 109.136 49.0399 109.427 49.2892C109.723 49.5436 110.055 49.7358 110.434 49.8708C110.813 50.0058 111.203 50.0889 111.608 50.1252L111.618 51.4702L112.781 51.4598L112.771 50.1096C113.207 50.0681 113.607 49.9746 113.965 49.8292C114.324 49.6838 114.625 49.4969 114.879 49.2632C115.128 49.0295 115.326 48.7543 115.461 48.4376C115.596 48.1208 115.663 47.7625 115.663 47.3626C115.658 46.9213 115.58 46.5422 115.424 46.2254C115.258 45.9087 115.04 45.6282 114.765 45.3894Z" fill="#E527BB"/>
<path d="M70.3867 80.8771C70.1842 80.7057 69.9453 80.5499 69.6597 80.4201C69.3793 80.2903 69.0677 80.1605 68.725 80.0359C68.5121 79.958 68.3355 79.8853 68.1901 79.8126C68.0447 79.7399 67.9305 79.662 67.8422 79.5789C67.7539 79.4958 67.6916 79.4075 67.6553 79.3089C67.6189 79.2102 67.6034 79.1011 67.5982 78.9817C67.5982 78.8623 67.6137 78.748 67.6501 78.6442C67.6864 78.5403 67.7384 78.4469 67.8111 78.369C67.8838 78.2911 67.9772 78.2288 68.0915 78.1872C68.2057 78.1405 68.3407 78.1197 68.5017 78.1197C68.7925 78.1197 69.0262 78.2132 69.2028 78.4053C69.3793 78.5974 69.4676 78.8934 69.4728 79.2829L70.9995 79.2725C70.9995 78.9454 70.9475 78.6494 70.8541 78.3845C70.7606 78.1197 70.6256 77.8964 70.449 77.7043C70.2725 77.5121 70.0648 77.3564 69.8155 77.2369C69.5662 77.1175 69.291 77.0396 68.9898 77.0032L68.9847 75.9387L68.1382 75.9439L68.1434 76.9929C67.8266 77.024 67.541 77.0967 67.2866 77.2006C67.0321 77.3096 66.814 77.4498 66.6323 77.6212C66.4505 77.7926 66.3103 77.9951 66.2117 78.2236C66.113 78.452 66.0663 78.7065 66.0715 78.9869C66.0715 79.3089 66.1338 79.5841 66.2428 79.8178C66.3571 80.0514 66.5129 80.2488 66.7154 80.4253C66.9179 80.5967 67.162 80.7473 67.4424 80.8771C67.7228 81.0069 68.0396 81.1315 68.3875 81.251C68.59 81.3185 68.7614 81.386 68.9016 81.4587C69.0418 81.5314 69.156 81.6093 69.2443 81.6924C69.3326 81.7755 69.3949 81.8689 69.4364 81.978C69.478 82.0818 69.4987 82.2013 69.4987 82.3415C69.4987 82.4609 69.478 82.5751 69.4364 82.679C69.3949 82.7829 69.3326 82.8711 69.2495 82.949C69.1664 83.0269 69.0625 83.084 68.9379 83.1256C68.8133 83.1671 68.6679 83.1931 68.5017 83.1931C68.3563 83.1931 68.2161 83.1775 68.0759 83.1412C67.9357 83.1048 67.8111 83.0373 67.702 82.949C67.593 82.8556 67.5047 82.7309 67.4372 82.5751C67.3697 82.4194 67.3385 82.2272 67.3333 81.9935L65.8066 82.0039C65.8118 82.3986 65.8741 82.7361 66.004 83.0165C66.1338 83.2969 66.3052 83.5306 66.5181 83.7124C66.731 83.8941 66.975 84.0343 67.2502 84.133C67.5255 84.2317 67.8059 84.2888 68.1019 84.3199L68.1071 85.291L68.9483 85.2858L68.9431 84.3095C69.2599 84.2784 69.5455 84.2109 69.8051 84.107C70.0648 84.0032 70.2829 83.8682 70.4646 83.702C70.6464 83.5358 70.7866 83.3333 70.8852 83.1048C70.9839 82.8763 71.0306 82.6167 71.0306 82.3259C71.0306 82.0091 70.9683 81.7339 70.8593 81.5002C70.745 81.2562 70.5892 81.0536 70.3867 80.8771Z" fill="#DAA7EE"/>
<path d="M81.0476 75.4296C80.923 75.3258 80.7776 75.2271 80.601 75.1492C80.4297 75.0661 80.2375 74.9883 80.0298 74.9104C79.9 74.8636 79.7909 74.8169 79.7027 74.7702C79.6144 74.7234 79.5469 74.6767 79.4898 74.6248C79.4378 74.5728 79.3963 74.5209 79.3755 74.4586C79.3547 74.3963 79.3443 74.334 79.3392 74.2561C79.3392 74.1834 79.3495 74.1107 79.3703 74.0484C79.3911 73.986 79.4222 73.9289 79.469 73.8822C79.5157 73.8355 79.5728 73.7991 79.6403 73.7679C79.7078 73.742 79.7961 73.7264 79.8896 73.7264C80.0714 73.7264 80.2116 73.7835 80.3206 73.903C80.4296 74.0224 80.4816 74.1989 80.4868 74.443L81.4215 74.4378C81.4215 74.2353 81.3903 74.0587 81.3332 73.8978C81.2761 73.7368 81.193 73.5966 81.0839 73.4771C80.9749 73.3577 80.8503 73.2642 80.6945 73.1915C80.5439 73.1188 80.3725 73.0721 80.1856 73.0461L80.1804 72.3918L79.6611 72.397L79.6663 73.0409C79.4742 73.0617 79.2976 73.1033 79.1418 73.1708C78.9861 73.2383 78.851 73.3214 78.742 73.4304C78.6329 73.5343 78.5447 73.6589 78.4875 73.7991C78.4304 73.9393 78.3993 74.0951 78.3993 74.2665C78.3993 74.4638 78.4356 74.6299 78.5031 74.7753C78.5706 74.9156 78.6693 75.0402 78.7939 75.144C78.9185 75.2479 79.0639 75.3414 79.2405 75.4245C79.4119 75.5023 79.604 75.5802 79.8169 75.6529C79.9415 75.6945 80.0454 75.736 80.1285 75.7776C80.2116 75.8191 80.2843 75.871 80.3362 75.923C80.3881 75.9749 80.4297 76.032 80.4556 76.0943C80.4816 76.1566 80.492 76.2345 80.492 76.3176C80.492 76.3903 80.4816 76.463 80.4556 76.5253C80.4297 76.5876 80.3933 76.6448 80.3414 76.6915C80.2894 76.7382 80.2271 76.7746 80.1492 76.8005C80.0714 76.8265 79.9831 76.8421 79.8844 76.8421C79.7961 76.8421 79.7078 76.8317 79.6248 76.8109C79.5417 76.7902 79.4638 76.7486 79.3963 76.6915C79.3288 76.6344 79.2768 76.5565 79.2353 76.463C79.1938 76.3695 79.173 76.2501 79.173 76.1047L78.2383 76.1099C78.2383 76.3488 78.2798 76.5565 78.3577 76.7279C78.4356 76.8992 78.5395 77.0446 78.6693 77.1537C78.7991 77.2679 78.9497 77.351 79.1159 77.4133C79.282 77.4704 79.4586 77.512 79.6352 77.5275L79.6403 78.1247L80.1544 78.1195L80.1492 77.5224C80.3414 77.5016 80.5179 77.46 80.6789 77.3977C80.8347 77.3354 80.9697 77.2523 81.0839 77.1485C81.193 77.0446 81.2813 76.9252 81.3436 76.785C81.4059 76.6448 81.4319 76.4838 81.4319 76.3072C81.4319 76.1151 81.3955 75.9437 81.328 75.8035C81.2657 75.6581 81.1722 75.5335 81.0476 75.4296Z" fill="#DAA7EE"/>
<path d="M132.321 87.1863C132.165 87.0512 131.978 86.9318 131.76 86.828C131.542 86.7241 131.298 86.6254 131.033 86.5268C130.867 86.4645 130.732 86.4073 130.618 86.3502C130.509 86.2931 130.415 86.236 130.348 86.1685C130.28 86.1062 130.233 86.0335 130.202 85.9556C130.176 85.8777 130.161 85.7946 130.161 85.7011C130.161 85.6076 130.171 85.5194 130.202 85.4363C130.228 85.3532 130.27 85.2857 130.327 85.2234C130.384 85.1611 130.457 85.1143 130.545 85.0832C130.633 85.0468 130.737 85.0312 130.862 85.0312C131.09 85.0312 131.272 85.1039 131.407 85.2545C131.542 85.4051 131.615 85.6336 131.615 85.9348L132.799 85.9244C132.799 85.67 132.757 85.4415 132.684 85.2389C132.612 85.0364 132.508 84.8599 132.373 84.7093C132.238 84.5587 132.072 84.4393 131.885 84.3458C131.692 84.2523 131.48 84.19 131.246 84.164L131.241 83.3384L130.586 83.3436L130.592 84.1588C130.348 84.1848 130.124 84.2367 129.927 84.3198C129.73 84.4029 129.558 84.512 129.418 84.647C129.278 84.782 129.169 84.9378 129.091 85.1143C129.013 85.2909 128.977 85.4882 128.982 85.7063C128.982 85.9556 129.029 86.1685 129.117 86.3502C129.205 86.532 129.325 86.6877 129.486 86.8176C129.641 86.9526 129.828 87.0668 130.052 87.1707C130.27 87.2745 130.514 87.368 130.784 87.4615C130.94 87.5134 131.075 87.5653 131.178 87.6225C131.287 87.6796 131.376 87.7367 131.443 87.8042C131.511 87.8717 131.563 87.9444 131.594 88.0223C131.625 88.1054 131.641 88.1989 131.641 88.3027C131.641 88.3962 131.625 88.4845 131.594 88.5624C131.563 88.6402 131.511 88.7129 131.448 88.7701C131.381 88.8272 131.303 88.8739 131.204 88.9103C131.106 88.9414 130.997 88.9622 130.867 88.9622C130.753 88.9622 130.644 88.9518 130.534 88.9207C130.425 88.8947 130.332 88.8428 130.244 88.7701C130.161 88.6974 130.088 88.6039 130.041 88.4845C129.989 88.365 129.963 88.2144 129.963 88.0327L128.779 88.0431C128.779 88.3495 128.831 88.6091 128.935 88.8272C129.034 89.0453 129.169 89.227 129.335 89.3672C129.501 89.5075 129.688 89.6165 129.901 89.6944C130.114 89.7671 130.332 89.819 130.56 89.8398L130.566 90.5928L131.22 90.5876L131.215 89.8294C131.459 89.8034 131.682 89.7515 131.885 89.6736C132.087 89.5957 132.253 89.4867 132.399 89.3569C132.539 89.227 132.648 89.0713 132.726 88.8947C132.804 88.7181 132.84 88.5156 132.84 88.2923C132.84 88.0483 132.793 87.8354 132.705 87.6536C132.601 87.4771 132.482 87.3213 132.321 87.1863Z" fill="#E527BB"/>
<g clip-path="url(#clip0_817_12254)">
<path d="M215.967 268.468C278.46 268.468 329.121 217.892 329.121 155.504C329.121 93.1155 278.46 42.5398 215.967 42.5398C153.473 42.5398 102.812 93.1155 102.812 155.504C102.812 217.892 153.473 268.468 215.967 268.468Z" fill="#6363CE"/>
<path d="M215.967 258.167C272.762 258.167 318.804 212.203 318.804 155.504C318.804 98.8045 272.762 52.8406 215.967 52.8406C159.172 52.8406 113.131 98.8045 113.131 155.504C113.131 212.203 159.172 258.167 215.967 258.167Z" fill="#A78BEF"/>
<path d="M215.967 247.695C266.969 247.695 308.313 206.419 308.313 155.504C308.313 104.588 266.969 63.313 215.967 63.313C164.966 63.313 123.621 104.588 123.621 155.504C123.621 206.419 164.966 247.695 215.967 247.695Z" fill="white"/>
<path d="M215.831 95.9016C214.628 95.9016 213.652 94.9276 213.652 93.7265V80.5899C213.652 79.3887 214.628 78.4148 215.831 78.4148C217.034 78.4148 218.01 79.3887 218.01 80.5899V93.7265C218.01 94.9276 217.034 95.9016 215.831 95.9016Z" fill="#010190"/>
<path d="M216.103 232.593C214.899 232.593 213.924 231.619 213.924 230.418V220.085C213.924 218.884 214.899 217.91 216.103 217.91C217.306 217.91 218.281 218.884 218.281 220.085V230.418C218.281 231.619 217.306 232.593 216.103 232.593Z" fill="#010190"/>
<path d="M278.479 155.368C278.479 154.167 279.454 153.193 280.657 153.193H291.008C292.211 153.193 293.187 154.167 293.187 155.368C293.187 156.57 292.211 157.544 291.008 157.544H280.657C279.454 157.544 278.479 156.57 278.479 155.368Z" fill="#010190"/>
<path d="M138.746 155.64C138.746 154.439 139.722 153.465 140.925 153.465H158.472C159.675 153.465 160.65 154.439 160.65 155.64C160.65 156.841 159.675 157.815 158.472 157.815H140.925C139.722 157.815 138.746 156.841 138.746 155.64Z" fill="#010190"/>
<path d="M257.936 113.524L257.823 113.411C257.004 112.594 257.004 111.267 257.823 110.447L265.825 102.463C266.643 101.646 267.973 101.646 268.793 102.463L268.906 102.576C269.725 103.393 269.725 104.72 268.906 105.54L260.905 113.524C260.084 114.341 258.755 114.341 257.936 113.524Z" fill="#010190"/>
<path d="M163.078 208.61L162.966 208.497C162.147 207.68 162.147 206.353 162.966 205.533L170.732 197.858C171.551 197.041 172.88 197.041 173.701 197.858L173.814 197.971C174.632 198.788 174.632 200.116 173.814 200.935L166.047 208.61C165.227 209.427 163.897 209.427 163.078 208.61Z" fill="#010190"/>
<path d="M262.232 201.563C263.083 200.713 264.463 200.713 265.314 201.563L269.042 205.285C269.893 206.135 269.893 207.511 269.042 208.361C268.191 209.211 266.812 209.211 265.96 208.361L262.232 204.639C261.381 203.79 261.381 202.411 262.232 201.563Z" fill="#010190"/>
<path d="M162.772 102.767L162.885 102.654C163.703 101.837 165.033 101.837 165.853 102.654L172.921 109.806C173.74 110.623 173.74 111.95 172.921 112.769L172.809 112.882C171.99 113.699 170.66 113.699 169.84 112.882L162.772 105.73C161.951 104.913 161.951 103.586 162.772 102.767Z" fill="#010190"/>
<path d="M218.135 155.918C218.135 154.402 219.367 153.172 220.885 153.172H278.666C280.185 153.172 281.417 154.402 281.417 155.918C281.417 157.434 280.185 158.664 278.666 158.664H220.885C219.367 158.664 218.135 157.434 218.135 155.918Z" fill="#A78BEF"/>
<path d="M216.071 153.172C217.59 153.172 218.822 154.402 218.822 155.918V195.748C218.822 197.264 217.59 198.494 216.071 198.494C214.552 198.494 213.32 197.264 213.32 195.748V155.918C213.32 154.402 214.552 153.172 216.071 153.172Z" fill="#E527BB"/>
<path d="M216.276 155.936C216.077 155.936 215.88 155.855 215.737 155.695C215.469 155.397 215.494 154.941 215.79 154.673L257.062 117.591C257.361 117.324 257.818 117.347 258.088 117.645C258.356 117.943 258.331 118.399 258.034 118.667L216.76 155.75C216.622 155.874 216.448 155.936 216.276 155.936Z" fill="#373449"/>
<path d="M223.019 162.544C226.914 158.656 226.914 152.351 223.019 148.463C219.124 144.574 212.809 144.574 208.914 148.463C205.019 152.351 205.019 158.656 208.914 162.544C212.809 166.432 219.124 166.432 223.019 162.544Z" fill="#E527BB"/>
<path d="M143.893 260.129C143.893 260.129 145.668 248.503 142.988 239.588C140.308 230.672 138.529 224.983 138.401 223.045C138.401 223.045 135.185 231.266 133.307 235.929C129.162 246.219 128.159 254.222 132.456 262.665C132.456 262.665 132.48 267.276 132.519 267.479C132.557 267.681 137.278 272.18 137.278 272.18L144.378 267.817L143.893 260.129Z" fill="#6EE213"/>
<path d="M139.177 273.638C139.177 273.638 140.505 248.972 138.691 234.533C138.691 234.533 138.776 260.457 135.354 272.423L139.177 273.638Z" fill="#1CAE7D"/>
<path d="M140.267 272.326L140.292 278.097L140.317 284.504L138.14 284.861C138.14 284.861 137.266 283.978 135.957 282.806C133.937 281.005 130.886 278.521 128.415 277.556C124.344 275.967 117.971 269.799 113.114 258.738C112.942 258.349 112.766 257.978 112.582 257.625C107.589 247.865 98.5625 250.368 98.5625 250.368C105.906 247.981 112.15 248.075 117.399 249.582H117.402C133.599 254.232 140.267 272.326 140.267 272.326Z" fill="#7CDA32"/>
<path d="M140.293 278.095L140.318 284.502L138.141 284.859C138.141 284.859 137.267 283.977 135.958 282.804C121.26 254.192 111.986 250.626 111.695 250.519C125.743 253.789 136.612 271.401 140.293 278.095Z" fill="#1CAE7D"/>
<path d="M132.949 275.601L134.403 280.892L136.019 286.767L138.104 286.539C138.104 286.539 138.678 285.508 139.577 284.101C140.966 281.935 143.126 278.882 145.144 277.369C148.466 274.875 152.725 267.599 154.343 256.229C154.4 255.828 154.467 255.444 154.544 255.074C156.619 244.861 165.527 244.851 165.527 244.851C158.192 244.538 152.495 246.217 148.074 248.936H148.071C134.426 257.327 132.949 275.601 132.949 275.601Z" fill="#67C41F"/>
<path d="M134.404 280.892L136.021 286.767L138.106 286.539C138.106 286.539 138.68 285.508 139.579 284.101C145.719 254.144 153.302 248.512 153.541 248.34C141.509 254.917 136.061 273.821 134.404 280.892Z" fill="#1CAE7D"/>
<path d="M103.579 296.307C107.663 291.812 121.363 278.433 135.471 283.852C135.997 284.053 136.525 284.28 137.051 284.538C137.236 284.628 137.437 284.691 137.642 284.71C137.954 284.736 138.359 284.683 138.574 284.295C138.742 283.988 138.706 283.606 138.514 283.312C138.025 282.558 136.67 280.596 134.61 278.542C130.654 274.59 124.091 270.292 116.044 273.571C105.265 277.961 102.967 290.928 102.479 295.824C102.424 296.424 103.17 296.758 103.579 296.307Z" fill="#6EE213"/>
<path d="M108.262 285.094C109.063 283.978 120.481 269.65 135.472 283.852C135.998 284.053 136.526 284.28 137.052 284.538C137.238 284.628 137.439 284.691 137.644 284.71C137.955 284.736 138.361 284.683 138.575 284.295C138.743 283.988 138.707 283.606 138.516 283.312C138.516 283.31 122.369 265.466 108.262 285.094Z" fill="#1CAE7D"/>
<path d="M108.221 285.153C108.234 285.132 108.248 285.113 108.263 285.094C108.24 285.122 108.228 285.142 108.221 285.153Z" fill="#3C7219"/>
<path d="M177.122 280.323C170.888 278.169 150.858 272.562 140.257 285.061C139.861 285.525 139.476 286.018 139.109 286.535C138.979 286.717 138.822 286.883 138.636 287.007C138.353 287.194 137.94 287.355 137.533 287.097C137.211 286.89 137.047 286.509 137.075 286.129C137.148 285.155 137.412 282.584 138.3 279.555C140.002 273.735 144.006 266.228 153.379 265.16C165.933 263.73 174.889 274.879 177.91 279.286C178.283 279.83 177.747 280.539 177.122 280.323Z" fill="#6EE213"/>
<path d="M166.807 272.083C165.445 271.474 147.11 263.74 140.255 285.061C139.859 285.525 139.474 286.018 139.107 286.535C138.977 286.717 138.82 286.883 138.634 287.007C138.351 287.194 137.938 287.355 137.531 287.097C137.209 286.891 137.045 286.509 137.074 286.129C137.146 285.155 137.41 282.584 138.298 279.556C141.858 272.627 149.938 263.915 166.807 272.083Z" fill="#1CAE7D"/>
<path d="M109.369 265.107C109.369 265.107 129.604 267.945 136.737 282.665C136.739 282.665 130.545 270.13 109.369 265.107Z" fill="#022D28"/>
<path d="M111.603 262.369C111.915 264.215 112.749 264.687 113.137 264.807C113.254 264.844 113.378 264.769 113.399 264.647C113.47 264.248 113.432 263.291 111.928 262.17C111.779 262.059 111.57 262.185 111.603 262.369Z" fill="#022D28"/>
<path d="M113.938 262.953C114.105 264.819 114.899 265.354 115.277 265.505C115.392 265.55 115.52 265.485 115.551 265.365C115.652 264.972 115.689 264.017 114.281 262.779C114.139 262.657 113.923 262.768 113.938 262.953Z" fill="#022D28"/>
<path d="M116.59 263.925C116.46 265.594 117.08 266.182 117.39 266.37C117.483 266.427 117.606 266.389 117.652 266.287C117.799 265.957 117.975 265.121 116.917 263.822C116.812 263.696 116.603 263.761 116.59 263.925Z" fill="#022D28"/>
<path d="M119.028 264.704C118.569 266.314 119.061 267.013 119.328 267.259C119.409 267.334 119.537 267.321 119.6 267.231C119.81 266.935 120.147 266.15 119.367 264.67C119.292 264.523 119.074 264.546 119.028 264.704Z" fill="#022D28"/>
<path d="M121.378 265.678C120.718 267.109 121.074 267.831 121.286 268.096C121.351 268.176 121.472 268.182 121.545 268.109C121.784 267.865 122.21 267.183 121.699 265.694C121.648 265.547 121.443 265.537 121.378 265.678Z" fill="#022D28"/>
<path d="M124.24 266.354C122.941 267.246 122.876 268.048 122.922 268.386C122.935 268.487 123.037 268.556 123.136 268.529C123.467 268.442 124.183 268.075 124.508 266.534C124.54 266.381 124.37 266.266 124.24 266.354Z" fill="#022D28"/>
<path d="M109.251 267.643C110.63 266.368 111.579 266.503 111.959 266.645C112.074 266.687 112.126 266.822 112.07 266.931C111.883 267.292 111.267 268.025 109.388 268C109.201 267.997 109.113 267.769 109.251 267.643Z" fill="#022D28"/>
<path d="M111.46 268.604C112.733 267.225 113.69 267.284 114.082 267.397C114.201 267.431 114.262 267.561 114.214 267.674C114.055 268.048 113.499 268.827 111.624 268.949C111.438 268.961 111.333 268.741 111.46 268.604Z" fill="#022D28"/>
<path d="M114.159 269.45C115.075 268.046 115.928 267.958 116.29 267.998C116.399 268.01 116.474 268.117 116.447 268.222C116.363 268.575 115.988 269.345 114.356 269.729C114.194 269.769 114.069 269.589 114.159 269.45Z" fill="#022D28"/>
<path d="M116.57 270.319C117.192 268.762 118.009 268.506 118.37 268.474C118.479 268.464 118.573 268.552 118.569 268.663C118.556 269.026 118.341 269.855 116.817 270.553C116.668 270.622 116.509 270.471 116.57 270.319Z" fill="#022D28"/>
<path d="M118.946 271.698C119.066 270.027 119.768 269.536 120.103 269.396C120.205 269.354 120.321 269.41 120.35 269.517C120.448 269.866 120.495 270.72 119.254 271.847C119.13 271.959 118.933 271.864 118.946 271.698Z" fill="#022D28"/>
<path d="M121.281 272.639C121.243 270.964 121.895 270.41 122.214 270.239C122.312 270.187 122.432 270.233 122.471 270.334C122.601 270.674 122.729 271.518 121.6 272.757C121.489 272.882 121.285 272.805 121.281 272.639Z" fill="#022D28"/>
<path d="M163.666 250.24C163.666 250.24 140.738 262.632 138.777 283.406C138.775 283.406 140.587 265.665 163.666 250.24Z" fill="#022D28"/>
<path d="M159.773 247.962C160.224 250.309 159.438 251.245 159.027 251.56C158.902 251.655 158.722 251.621 158.642 251.485C158.378 251.039 157.999 249.879 159.294 247.869C159.423 247.67 159.729 247.729 159.773 247.962Z" fill="#022D28"/>
<path d="M157.242 249.698C157.875 252.003 157.166 252.996 156.781 253.344C156.665 253.449 156.483 253.428 156.393 253.3C156.096 252.876 155.626 251.749 156.758 249.643C156.869 249.435 157.179 249.471 157.242 249.698Z" fill="#022D28"/>
<path d="M154.503 252.041C155.404 253.978 154.926 254.957 154.639 255.32C154.553 255.429 154.388 255.438 154.291 255.339C153.965 255.009 153.384 254.086 154.071 252.064C154.136 251.864 154.413 251.848 154.503 252.041Z" fill="#022D28"/>
<path d="M151.936 254.056C153.202 255.776 152.927 256.831 152.718 257.243C152.655 257.367 152.496 257.409 152.38 257.331C151.995 257.071 151.243 256.283 151.515 254.165C151.542 253.957 151.811 253.886 151.936 254.056Z" fill="#022D28"/>
<path d="M149.562 256.265C150.989 257.682 150.886 258.702 150.75 259.116C150.71 259.241 150.567 259.302 150.448 259.246C150.054 259.061 149.239 258.435 149.186 256.428C149.182 256.227 149.421 256.124 149.562 256.265Z" fill="#022D28"/>
<path d="M146.44 258.347C148.392 258.836 148.828 259.766 148.923 260.19C148.952 260.318 148.862 260.444 148.73 260.455C148.296 260.497 147.276 260.375 146.201 258.677C146.094 258.511 146.247 258.299 146.44 258.347Z" fill="#022D28"/>
<path d="M164.94 253.221C162.723 252.31 161.648 252.893 161.256 253.233C161.138 253.336 161.136 253.519 161.252 253.624C161.639 253.972 162.702 254.575 164.937 253.71C165.157 253.622 165.16 253.311 164.94 253.221Z" fill="#022D28"/>
<path d="M162.726 255.352C160.588 254.27 159.471 254.768 159.052 255.076C158.926 255.169 158.908 255.352 159.017 255.465C159.375 255.841 160.387 256.527 162.682 255.839C162.91 255.771 162.939 255.459 162.726 255.352Z" fill="#022D28"/>
<path d="M159.877 257.566C158.153 256.296 157.096 256.569 156.682 256.777C156.558 256.84 156.516 256.999 156.594 257.115C156.853 257.499 157.643 258.253 159.768 257.988C159.976 257.961 160.047 257.692 159.877 257.566Z" fill="#022D28"/>
<path d="M157.382 259.674C155.945 258.089 154.853 258.147 154.405 258.271C154.27 258.307 154.199 258.456 154.252 258.584C154.43 259.012 155.056 259.907 157.191 260.066C157.401 260.081 157.523 259.833 157.382 259.674Z" fill="#022D28"/>
<path d="M155.158 262.38C154.269 260.436 153.211 260.161 152.748 260.144C152.608 260.138 152.494 260.257 152.507 260.396C152.547 260.858 152.87 261.899 154.858 262.695C155.055 262.774 155.246 262.573 155.158 262.38Z" fill="#022D28"/>
<path d="M152.784 264.546C152.082 262.525 151.055 262.153 150.596 262.092C150.456 262.073 150.332 262.182 150.332 262.321C150.328 262.785 150.552 263.852 152.455 264.832C152.643 264.928 152.855 264.744 152.784 264.546Z" fill="#022D28"/>
<path d="M119.494 232.698C119.494 232.698 145.572 264.001 136.32 295.308C136.32 295.308 144.025 268.493 119.494 232.698Z" fill="#022D28"/>
<path d="M126.473 231.646C124.451 234.793 125.048 236.607 125.461 237.304C125.585 237.514 125.868 237.57 126.062 237.419C126.704 236.922 127.93 235.46 127.221 231.789C127.15 231.426 126.672 231.335 126.473 231.646Z" fill="#022D28"/>
<path d="M129.136 235.639C126.873 238.62 127.326 240.472 127.684 241.202C127.791 241.422 128.069 241.498 128.275 241.364C128.954 240.921 130.293 239.558 129.872 235.841C129.83 235.473 129.362 235.343 129.136 235.639Z" fill="#022D28"/>
<path d="M131.75 240.629C129.315 242.919 129.437 244.618 129.644 245.314C129.707 245.524 129.938 245.631 130.139 245.543C130.803 245.252 132.184 244.25 132.368 240.916C132.387 240.587 131.991 240.404 131.75 240.629Z" fill="#022D28"/>
<path d="M134.304 245.046C131.463 246.811 131.247 248.501 131.312 249.221C131.331 249.438 131.538 249.591 131.752 249.543C132.46 249.391 134.013 248.68 134.853 245.447C134.935 245.13 134.585 244.872 134.304 245.046Z" fill="#022D28"/>
<path d="M136.465 249.631C133.567 250.861 133.123 252.402 133.079 253.082C133.065 253.286 133.236 253.458 133.442 253.447C134.123 253.407 135.669 252.971 136.918 250.086C137.04 249.801 136.752 249.511 136.465 249.631Z" fill="#022D28"/>
<path d="M139.784 254.468C136.664 254.044 135.493 255.142 135.107 255.704C134.99 255.874 135.05 256.107 135.231 256.202C135.838 256.516 137.389 256.932 139.941 255.089C140.193 254.908 140.094 254.51 139.784 254.468Z" fill="#022D28"/>
<path d="M115.907 236.287C119.656 236.25 120.878 237.721 121.251 238.441C121.364 238.658 121.259 238.926 121.029 239.012C120.266 239.292 118.37 239.552 115.629 236.997C115.358 236.745 115.536 236.29 115.907 236.287Z" fill="#022D28"/>
<path d="M117.879 240.665C121.615 240.335 122.949 241.706 123.377 242.395C123.507 242.604 123.423 242.879 123.201 242.982C122.463 243.32 120.594 243.728 117.659 241.397C117.369 241.166 117.51 240.7 117.879 240.665Z" fill="#022D28"/>
<path d="M120.73 245.535C123.97 244.691 125.35 245.701 125.83 246.243C125.975 246.408 125.943 246.662 125.761 246.786C125.16 247.192 123.574 247.83 120.644 246.209C120.355 246.049 120.409 245.617 120.73 245.535Z" fill="#022D28"/>
<path d="M123.124 250.046C126.135 248.579 127.685 249.297 128.264 249.734C128.438 249.866 128.457 250.122 128.304 250.279C127.797 250.796 126.368 251.734 123.176 250.724C122.858 250.624 122.826 250.191 123.124 250.046Z" fill="#022D28"/>
<path d="M124.777 255.267C127.203 252.96 128.898 253.176 129.581 253.418C129.787 253.491 129.883 253.729 129.783 253.926C129.456 254.573 128.379 255.897 125.03 255.899C124.699 255.899 124.536 255.494 124.777 255.267Z" fill="#022D28"/>
<path d="M126.962 259.787C129.158 257.26 130.866 257.316 131.57 257.493C131.783 257.547 131.901 257.776 131.821 257.978C131.557 258.652 130.61 260.073 127.276 260.392C126.945 260.423 126.744 260.037 126.962 259.787Z" fill="#022D28"/>
<path d="M148.061 283.573V309.461C148.061 310.311 147.371 311 146.521 311H129.854C129.003 311 128.312 310.311 128.312 309.461V283.573C128.312 282.724 129.003 282.036 129.854 282.036H146.521C147.371 282.036 148.061 282.724 148.061 283.573Z" fill="#D1203D"/>
<path d="M148.061 283.574V309.461C148.061 310.311 147.371 311 146.521 311H129.854C129.003 311 128.312 310.311 128.312 309.461V308.51C142.803 304.465 144.555 287.951 144.712 282.034H146.521C147.371 282.036 148.061 282.724 148.061 283.574Z" fill="#D35248"/>
<path d="M144.216 279.678L147.694 277.008L149.838 281.085C152.725 283.196 155.908 287.084 158.478 291.969C161.047 296.853 162.448 301.677 162.547 305.248L163.993 307.998L161.277 310.084C161.053 310.322 160.801 310.519 160.516 310.668C157.139 312.438 150.754 306.935 146.253 298.377C141.752 289.82 140.84 281.448 144.216 279.678Z" fill="#FFCB48"/>
<path d="M163.999 308.007C167.375 306.237 166.463 297.865 161.961 289.306C157.46 280.748 151.074 275.244 147.698 277.014C144.323 278.784 145.235 287.156 149.736 295.714C154.238 304.273 160.623 309.776 163.999 308.007Z" fill="#FFDC8D"/>
<path d="M146.461 283.736C146.836 287.183 148.221 291.317 150.356 295.379C152.208 298.901 154.496 302.076 156.795 304.318C158.981 306.451 161.036 307.626 162.581 307.626C162.843 307.626 163.088 307.592 163.316 307.519C163.438 307.481 163.555 307.433 163.664 307.376C165.003 306.675 165.571 304.448 165.225 301.272C164.85 297.826 163.465 293.691 161.328 289.629C159.477 286.108 157.191 282.932 154.89 280.69C152.703 278.559 150.649 277.383 149.105 277.383C148.701 277.383 148.336 277.467 148.02 277.633C147.909 277.692 147.804 277.759 147.703 277.839C146.595 278.71 146.142 280.824 146.461 283.736Z" fill="#F28E23"/>
<path d="M146.461 283.736C146.836 287.183 148.221 291.317 150.356 295.379C152.208 298.901 154.496 302.076 156.795 304.318C158.981 306.451 161.036 307.626 162.581 307.626C162.843 307.626 163.088 307.591 163.316 307.519C164.425 306.648 164.877 304.536 164.561 301.622C164.186 298.175 162.801 294.04 160.665 289.979C158.813 286.457 156.527 283.281 154.226 281.039C152.039 278.906 149.985 277.732 148.439 277.732C148.177 277.732 147.932 277.766 147.705 277.839C146.595 278.71 146.142 280.824 146.461 283.736Z" fill="#FBA800"/>
<path d="M150.823 284.572C150.995 284.406 151.192 284.358 151.414 284.429C151.636 284.5 151.825 284.664 151.984 284.922L152.546 285.835C152.948 285.5 153.338 285.266 153.715 285.13C154.09 284.994 154.427 284.91 154.723 284.876C154.987 284.842 155.222 284.931 155.427 285.145C155.634 285.359 155.781 285.617 155.873 285.917C155.965 286.218 155.972 286.495 155.9 286.749C155.827 287.003 155.643 287.154 155.353 287.202C155.117 287.225 154.819 287.307 154.457 287.45C154.094 287.593 153.711 287.872 153.308 288.287C152.854 288.753 152.602 289.201 152.552 289.635C152.502 290.07 152.585 290.466 152.801 290.823C152.979 291.115 153.193 291.287 153.443 291.34C153.694 291.394 154.027 291.298 154.44 291.054L155.741 290.297C157.151 289.482 158.346 289.885 159.356 291.502C159.913 292.39 160.211 293.345 160.251 294.371C160.292 295.408 160.068 296.364 159.57 297.241L160.217 298.289C160.389 298.568 160.481 298.87 160.496 299.195C160.51 299.521 160.437 299.785 160.272 299.985C160.116 300.178 159.92 300.243 159.693 300.178C159.463 300.111 159.262 299.937 159.09 299.655L158.471 298.641C158.197 298.868 157.889 299.061 157.543 299.219C157.195 299.378 156.848 299.454 156.506 299.449C156.244 299.464 156.012 299.359 155.814 299.135C155.615 298.91 155.479 298.639 155.402 298.324C155.326 298.009 155.333 297.717 155.427 297.449C155.519 297.182 155.726 297.018 156.045 296.956C156.311 296.899 156.579 296.8 156.848 296.66C157.118 296.521 157.403 296.277 157.705 295.929C158.075 295.503 158.283 295.039 158.329 294.539C158.375 294.04 158.272 293.588 158.019 293.179C157.839 292.889 157.631 292.719 157.392 292.667C157.153 292.616 156.841 292.706 156.454 292.933L155.134 293.735C154.367 294.193 153.669 294.329 153.044 294.138C152.418 293.945 151.858 293.439 151.368 292.623C150.808 291.69 150.547 290.723 150.584 289.725C150.62 288.737 150.897 287.853 151.41 287.068L150.806 286.079C150.647 285.817 150.568 285.541 150.57 285.248C150.572 284.958 150.656 284.733 150.823 284.572Z" fill="#D36D11"/>
<path d="M125.11 149.351C125.11 149.351 122.641 149.758 124.475 152.532C124.997 153.321 125.562 154.564 125.52 155.51C125.462 156.755 124.544 157.891 122.505 158.233L121.396 158.42C121.097 158.47 120.869 158.708 120.827 159.006C120.772 159.405 120.623 159.965 120.217 160.364C119.647 160.925 119.36 162.686 120.166 163.715C120.456 164.086 120.929 164.265 121.394 164.187L133.944 162.075C134.227 162.027 134.309 161.661 134.074 161.496C133.322 160.969 132.754 159.684 134.235 157.985C134.981 157.129 134.702 157.032 135.115 156.485C135.233 156.327 134.923 156.144 134.728 156.176L131.218 156.766C130.874 156.823 130.518 156.78 130.204 156.623C129.477 156.258 128.728 155.183 130.505 152.007C132.134 149.095 131.144 148.526 129.717 148.576L125.11 149.351Z" fill="#A78BEF"/>
<path d="M125.46 149.292C125.46 149.292 122.99 149.699 124.825 152.473C125.347 153.262 125.911 154.505 125.869 155.451C125.812 156.696 124.894 157.832 122.855 158.174L121.745 158.361C121.447 158.411 121.219 158.649 121.177 158.947C121.122 159.346 120.972 159.906 120.567 160.305C119.997 160.866 119.71 162.627 120.515 163.656C120.806 164.027 121.278 164.206 121.743 164.128L134.294 162.016C134.577 161.968 134.659 161.602 134.424 161.437C133.672 160.91 133.104 159.625 134.584 157.925C135.33 157.07 135.051 156.973 135.464 156.426C135.583 156.268 135.273 156.085 135.078 156.117L131.568 156.707C131.223 156.764 130.868 156.72 130.554 156.564C129.827 156.199 129.077 155.124 130.854 151.948C132.484 149.036 131.493 148.467 130.066 148.517L125.46 149.292Z" fill="#8267E5"/>
<path d="M168.507 211.952L149.055 155.546C148.638 154.339 147.5 153.528 146.222 153.528C146.056 153.528 145.887 153.541 145.723 153.57L110.422 159.511C109.552 159.658 108.795 160.175 108.345 160.933C107.894 161.689 107.8 162.602 108.089 163.435L127.539 219.839C127.956 221.046 129.094 221.857 130.372 221.857C130.538 221.857 130.707 221.844 130.871 221.815L166.171 215.874C167.042 215.727 167.799 215.21 168.249 214.451C168.7 213.695 168.794 212.784 168.507 211.952Z" fill="#000047"/>
<path d="M170.568 211.553L151.116 155.147C150.698 153.94 149.56 153.128 148.283 153.128C148.116 153.128 147.948 153.142 147.783 153.17L112.483 159.111C111.613 159.258 110.855 159.776 110.406 160.534C109.954 161.29 109.86 162.203 110.149 163.036L129.599 219.439C130.016 220.646 131.155 221.458 132.432 221.458C132.599 221.458 132.767 221.445 132.932 221.416L168.232 215.475C169.102 215.328 169.86 214.81 170.309 214.052C170.761 213.296 170.854 212.385 170.568 211.553Z" fill="#E527BB"/>
<path d="M167.9 212.609C167.871 212.666 167.814 212.702 167.751 212.714L132.464 218.653C132.374 218.668 132.286 218.616 132.255 218.529L112.809 162.136C112.788 162.075 112.794 162.008 112.83 161.955C112.859 161.913 112.899 161.888 112.951 161.878L148.251 155.937C148.343 155.922 148.429 155.974 148.459 156.062L167.91 212.467C167.927 212.515 167.923 212.563 167.9 212.609Z" fill="#EFD3CB"/>
<path d="M166.907 212.775C166.878 212.832 166.821 212.868 166.758 212.88L132.464 218.651C132.374 218.666 132.286 218.615 132.255 218.527L112.809 162.134C112.788 162.073 112.794 162.007 112.83 161.953C112.859 161.911 112.899 161.886 112.951 161.877L147.258 156.104C147.348 156.088 147.436 156.14 147.467 156.228L166.917 212.634C166.934 212.681 166.93 212.729 166.907 212.775Z" fill="#FFF2EE"/>
<path d="M130.057 148.474C130.057 148.474 132.343 147.802 131.711 151.314C131.543 152.244 131.621 153.207 131.973 154.085C132.436 155.242 133.406 156.398 135.445 156.054L136.555 155.867C136.853 155.817 137.146 155.966 137.284 156.235C137.467 156.594 137.792 157.074 138.305 157.318C139.028 157.662 139.877 159.231 139.455 160.467C139.302 160.912 138.913 161.237 138.449 161.315L125.898 163.427C125.615 163.475 125.418 163.156 125.584 162.923C126.122 162.178 126.237 160.778 124.28 159.657C123.295 159.094 123.524 158.911 122.956 158.529C122.792 158.418 123.025 158.143 123.22 158.111L126.73 157.52C127.075 157.463 127.398 157.305 127.641 157.054C128.207 156.472 128.565 155.21 125.841 152.792C123.344 150.573 124.092 149.712 125.46 149.294L130.057 148.474Z" fill="#A78BEF"/>
<path d="M139.909 159.757C139.906 159.915 139.886 160.072 139.85 160.225C139.837 160.288 139.818 160.349 139.797 160.41C139.795 160.416 139.793 160.421 139.791 160.429C139.758 160.517 139.718 160.601 139.668 160.679C139.475 160.983 139.156 161.197 138.792 161.258L126.242 163.37C126.01 163.408 125.838 163.206 125.871 163.001C125.878 162.955 125.898 162.908 125.928 162.864C125.955 162.828 125.98 162.787 126.005 162.747C126.045 162.68 126.083 162.61 126.116 162.535C126.181 162.388 126.228 162.226 126.251 162.054C126.353 161.315 126.001 160.387 124.624 159.598C124.576 159.57 124.53 159.543 124.486 159.518C124.008 159.228 123.868 159.044 123.728 158.871C123.627 158.745 123.527 158.622 123.3 158.47C123.135 158.359 123.369 158.084 123.564 158.051L127.074 157.461C127.418 157.404 127.74 157.246 127.985 156.995C128.551 156.413 128.907 155.151 126.184 152.733C123.688 150.514 124.438 149.653 125.804 149.233L130.4 148.415C130.4 148.415 132.686 147.743 132.055 151.255C131.887 152.185 131.967 153.147 132.317 154.026C132.78 155.183 133.75 156.338 135.789 155.995L136.899 155.808C137.197 155.758 137.492 155.909 137.627 156.176C137.679 156.277 137.742 156.388 137.817 156.499C137.977 156.74 138.194 156.986 138.475 157.162C138.53 157.196 138.59 157.228 138.649 157.257C139.248 157.545 139.934 158.674 139.909 159.757Z" fill="#A78BEF"/>
<path d="M130.215 149.918C130.242 150.077 130.202 150.233 130.116 150.354C130.03 150.476 129.896 150.564 129.735 150.59L127.092 151.035C126.772 151.089 126.47 150.875 126.416 150.556C126.39 150.398 126.43 150.241 126.516 150.121C126.602 149.998 126.736 149.911 126.897 149.884L129.54 149.439C129.86 149.385 130.162 149.599 130.215 149.918Z" fill="#A78BEF"/>
<path d="M129.927 149.968C129.953 150.126 129.913 150.283 129.827 150.403C129.741 150.525 129.607 150.613 129.446 150.64L127.09 151.037C126.77 151.091 126.468 150.877 126.414 150.558C126.388 150.399 126.428 150.243 126.514 150.122C126.6 150 126.734 149.912 126.895 149.886L129.251 149.488C129.571 149.433 129.873 149.649 129.927 149.968Z" fill="#8267E5"/>
<path d="M123.674 172.798L120.149 173.392C119.822 173.447 119.502 173.26 119.391 172.947L118.165 169.513C118.022 169.112 118.276 168.681 118.697 168.61L122.222 168.016C122.55 167.961 122.869 168.148 122.98 168.461L124.206 171.895C124.348 172.294 124.093 172.727 123.674 172.798Z" fill="#A78BEF"/>
<path d="M126.071 180.035L122.545 180.629C122.218 180.685 121.899 180.497 121.788 180.184L120.562 176.751C120.418 176.35 120.673 175.918 121.094 175.847L124.619 175.254C124.946 175.198 125.266 175.385 125.376 175.699L126.603 179.132C126.744 179.531 126.49 179.965 126.071 180.035Z" fill="#A78BEF"/>
<path d="M128.467 187.271L124.942 187.865C124.615 187.92 124.295 187.733 124.184 187.42L122.958 183.987C122.815 183.586 123.069 183.154 123.49 183.083L127.015 182.489C127.343 182.434 127.662 182.621 127.773 182.934L128.999 186.368C129.141 186.769 128.886 187.201 128.467 187.271Z" fill="#A78BEF"/>
<path d="M147.89 164.665L125.255 168.474C125.018 168.514 124.792 168.354 124.752 168.117C124.712 167.88 124.873 167.655 125.11 167.615L147.745 163.805C147.982 163.765 148.208 163.926 148.248 164.162C148.288 164.399 148.13 164.624 147.89 164.665Z" fill="#EFD3CB"/>
<path d="M141.195 167.966L125.976 170.527C125.739 170.567 125.513 170.407 125.473 170.17C125.433 169.933 125.593 169.708 125.831 169.668L141.05 167.107C141.287 167.067 141.512 167.227 141.553 167.464C141.593 167.701 141.432 167.926 141.195 167.966Z" fill="#EFD3CB"/>
<path d="M142.263 173.888L128.607 176.186C128.37 176.226 128.144 176.065 128.104 175.828C128.064 175.592 128.224 175.366 128.462 175.326L142.118 173.029C142.355 172.989 142.58 173.149 142.621 173.386C142.659 173.623 142.5 173.848 142.263 173.888Z" fill="#EFD3CB"/>
<path d="M149.174 174.898L129.328 178.238C129.09 178.279 128.865 178.118 128.825 177.881C128.784 177.645 128.945 177.419 129.182 177.379L149.028 174.039C149.266 173.999 149.491 174.159 149.531 174.396C149.572 174.635 149.411 174.858 149.174 174.898Z" fill="#EFD3CB"/>
<path d="M133.386 208.199C133.773 207.508 134.159 206.815 134.544 206.123C135.154 205.029 135.764 203.935 136.374 202.841C136.514 202.589 136.656 202.338 136.795 202.086C136.531 202.13 136.269 202.174 136.005 202.22C136.692 202.594 137.379 202.97 138.063 203.345C139.158 203.943 140.25 204.54 141.344 205.136C141.595 205.274 141.843 205.409 142.094 205.547C142.224 205.617 142.362 205.676 142.517 205.644C142.656 205.613 142.807 205.541 142.884 205.415C142.993 205.235 143.1 205.056 143.209 204.876C143.504 204.389 143.798 203.9 144.093 203.414C144.527 202.695 144.961 201.977 145.395 201.258C145.925 200.381 146.455 199.506 146.983 198.63C147.565 197.667 148.148 196.703 148.73 195.741C149.317 194.768 149.904 193.796 150.491 192.824C151.037 191.921 151.584 191.018 152.129 190.115C152.59 189.351 153.051 188.589 153.512 187.825C153.845 187.275 154.177 186.723 154.51 186.173C154.667 185.913 154.826 185.654 154.983 185.392C154.989 185.381 154.996 185.371 155.002 185.36C155.155 185.108 155.138 184.747 154.868 184.571C154.627 184.414 154.243 184.433 154.078 184.705C153.969 184.884 153.862 185.064 153.753 185.243C153.458 185.73 153.164 186.219 152.869 186.706C152.435 187.424 152.001 188.142 151.566 188.862C151.037 189.738 150.507 190.613 149.979 191.49C149.397 192.452 148.814 193.416 148.232 194.379C147.645 195.351 147.058 196.323 146.47 197.295C145.925 198.198 145.378 199.102 144.833 200.005C144.372 200.769 143.911 201.531 143.45 202.294C143.117 202.844 142.784 203.396 142.452 203.946C142.295 204.206 142.13 204.464 141.979 204.727C141.973 204.739 141.966 204.748 141.96 204.76C142.224 204.716 142.486 204.672 142.75 204.626C142.063 204.252 141.376 203.876 140.692 203.501C139.598 202.904 138.505 202.306 137.411 201.71C137.161 201.573 136.912 201.437 136.661 201.3C136.529 201.229 136.393 201.17 136.238 201.202C136.101 201.231 135.942 201.303 135.871 201.431C135.485 202.123 135.098 202.816 134.714 203.507C134.104 204.601 133.494 205.696 132.883 206.79C132.744 207.042 132.602 207.294 132.462 207.544C132.386 207.68 132.338 207.806 132.365 207.966C132.388 208.104 132.476 208.256 132.594 208.333C132.832 208.484 133.233 208.474 133.386 208.199Z" fill="#E527BB"/>
<path d="M150.995 187.193L152.979 187.386C153.047 187.393 153.111 187.43 153.149 187.487L154.258 189.148C154.379 189.328 154.656 189.261 154.681 189.047L155.259 184.168C155.282 183.969 155.058 183.836 154.895 183.952L150.884 186.775C150.708 186.897 150.781 187.172 150.995 187.193Z" fill="#E527BB"/>
<path d="M146.673 204.512L145.267 204.764C145.137 204.787 145.007 204.714 144.961 204.59L141.812 195.742C141.753 195.584 141.852 195.408 142.021 195.38L143.427 195.127C143.557 195.105 143.687 195.177 143.733 195.301L146.881 204.149C146.939 204.307 146.839 204.481 146.673 204.512Z" fill="#E527BB"/>
<path d="M149.623 201.494L148.219 201.746C148.089 201.769 147.961 201.697 147.915 201.572L144.275 191.232C144.216 191.073 144.315 190.899 144.484 190.869L145.888 190.617C146.018 190.594 146.146 190.666 146.192 190.791L149.832 201.131C149.889 201.29 149.79 201.464 149.623 201.494Z" fill="#E527BB"/>
<path d="M153.627 199.365L152.076 199.644C151.932 199.67 151.789 199.588 151.739 199.451L147.716 188.022C147.651 187.846 147.76 187.653 147.946 187.621L149.497 187.342C149.641 187.315 149.784 187.397 149.834 187.535L153.857 198.964C153.922 199.14 153.811 199.331 153.627 199.365Z" fill="#E527BB"/>
<path d="M163.336 99.7074L156.644 95.4069L159.341 91.2228C159.525 90.9363 159.575 90.6021 159.508 90.2928C159.439 89.9834 159.253 89.7008 158.965 89.5136C158.884 89.4621 158.8 89.4201 158.714 89.3895C158.182 89.1966 157.57 89.3838 157.251 89.8765L154.553 94.0605L147.902 89.7848L150.6 85.6007C150.783 85.3143 150.833 84.9801 150.766 84.6707C150.697 84.3614 150.512 84.0787 150.223 83.8916C150.142 83.84 150.058 83.798 149.972 83.7675C149.44 83.5746 148.828 83.7617 148.511 84.2544L145.814 88.4385L139.162 84.1628L141.86 79.9787C142.043 79.6923 142.093 79.3581 142.026 79.0487C141.957 78.7393 141.772 78.4567 141.483 78.2696C141.402 78.218 141.318 78.176 141.232 78.1454C140.7 77.9526 140.088 78.1397 139.771 78.6324L137.074 82.8165L130.423 78.5407L133.12 74.3567C133.303 74.0702 133.353 73.736 133.286 73.4267C133.217 73.1173 133.032 72.8347 132.743 72.6475C132.663 72.596 132.578 72.5539 132.492 72.5234C131.96 72.3305 131.348 72.5177 131.029 73.0104L128.332 77.1944L121.681 72.9187L124.378 68.7346C124.561 68.4482 124.611 68.114 124.544 67.8046C124.475 67.4952 124.29 67.2126 124.001 67.0255C123.921 66.9739 123.836 66.9319 123.75 66.9013C123.219 66.7085 122.607 66.8956 122.287 67.3883L119.59 71.5724L114.251 68.1407C112.411 66.9586 109.949 67.4895 108.765 69.3285L86.8357 103.328C85.6516 105.165 86.1834 107.623 88.0255 108.805L137.121 140.36C138.962 141.542 141.423 141.011 142.608 139.172L164.525 105.184C165.709 103.347 165.176 100.889 163.336 99.7074Z" fill="#000047"/>
<path d="M162.13 98.9321L113.034 67.3788C111.194 66.1967 108.732 66.7276 107.548 68.5666L85.6306 102.553C84.4465 104.39 84.9783 106.848 86.8204 108.03L135.916 139.585C137.757 140.767 140.218 140.236 141.402 138.397L163.32 104.409C164.504 102.574 163.971 100.116 162.13 98.9321Z" fill="#8267E5"/>
<path d="M161.577 103.277L139.646 137.286C139.082 138.16 137.907 138.411 137.026 137.841L87.9488 106.3C87.065 105.732 86.8068 104.562 87.3711 103.687L109.302 69.678C109.867 68.8034 111.041 68.5533 111.923 69.1223L160.998 100.664C161.883 101.231 162.142 102.402 161.577 103.277Z" fill="#FCEDE8"/>
<path d="M161.577 103.277L152.73 116.998L100.455 83.399L109.302 69.678C109.866 68.8034 111.041 68.5533 111.923 69.1223L160.998 100.664C161.883 101.231 162.142 102.402 161.577 103.277Z" fill="#E527BB"/>
<path d="M118.547 76.9577C119.21 75.929 118.905 74.5537 117.866 73.8857C116.827 73.2178 115.446 73.5102 114.783 74.5388C114.12 75.5675 114.425 76.9428 115.464 77.6108C116.503 78.2787 117.883 77.9863 118.547 76.9577Z" fill="#050590"/>
<path d="M123.163 67.9708L117.773 76.3294C117.403 76.9023 116.636 77.0646 116.059 76.6922C115.978 76.6406 115.906 76.5814 115.841 76.5146C115.443 76.1117 115.362 75.4758 115.68 74.9831L121.07 66.6245C121.388 66.1318 122 65.9427 122.532 66.1375C122.618 66.1681 122.702 66.2101 122.782 66.2616C123.071 66.4469 123.259 66.7314 123.326 67.0408C123.396 67.3501 123.347 67.6843 123.163 67.9708Z" fill="#DCFFFC"/>
<path d="M122.694 67.6691L117.304 76.0276C116.986 76.5203 116.374 76.7094 115.843 76.5146C115.445 76.1117 115.364 75.4758 115.682 74.9831L121.072 66.6245C121.39 66.1318 122.002 65.9427 122.534 66.1375C122.7 66.3075 122.811 66.5156 122.861 66.7391C122.93 67.0503 122.878 67.3826 122.694 67.6691Z" fill="#E527BB"/>
<path d="M127.293 82.5783C127.956 81.5496 127.651 80.1742 126.612 79.5064C125.573 78.8386 124.192 79.1312 123.529 80.1599C122.866 81.1887 123.171 82.5641 124.21 83.2319C125.25 83.8997 126.63 83.6071 127.293 82.5783Z" fill="#050590"/>
<path d="M131.907 73.5909L126.517 81.9495C126.148 82.5224 125.38 82.6847 124.803 82.3123C124.722 82.2608 124.65 82.2016 124.585 82.1347C124.187 81.7318 124.106 81.0959 124.424 80.6032L129.815 72.2446C130.132 71.7519 130.744 71.5628 131.278 71.7576C131.364 71.7882 131.448 71.8302 131.528 71.8818C131.817 72.067 132.005 72.3515 132.072 72.6609C132.141 72.9703 132.091 73.3044 131.907 73.5909Z" fill="#DCFFFC"/>
<path d="M131.439 73.2892L126.048 81.6478C125.731 82.1405 125.118 82.3295 124.587 82.1347C124.189 81.7318 124.108 81.0959 124.426 80.6032L129.816 72.2446C130.134 71.7519 130.746 71.5628 131.28 71.7576C131.446 71.9276 131.557 72.1357 131.607 72.3592C131.674 72.6685 131.622 73.0027 131.439 73.2892Z" fill="#E527BB"/>
<path d="M136.033 88.2057C136.696 87.1771 136.392 85.8017 135.352 85.1338C134.313 84.4658 132.933 84.7582 132.269 85.7869C131.606 86.8155 131.911 88.1909 132.95 88.8588C133.989 89.5268 135.37 89.2344 136.033 88.2057Z" fill="#050590"/>
<path d="M140.651 79.2091L135.261 87.5677C134.892 88.1406 134.125 88.3029 133.547 87.9305C133.467 87.8789 133.394 87.8197 133.329 87.7529C132.931 87.35 132.851 86.714 133.168 86.2213L138.559 77.8628C138.876 77.3701 139.488 77.181 140.022 77.3758C140.108 77.4063 140.192 77.4484 140.273 77.4999C140.561 77.6852 140.749 77.9697 140.816 78.2791C140.885 78.5903 140.835 78.9245 140.651 79.2091Z" fill="#DCFFFC"/>
<path d="M140.183 78.9093L134.792 87.2679C134.475 87.7606 133.863 87.9496 133.331 87.7548C132.933 87.3519 132.853 86.716 133.17 86.2233L138.561 77.8647C138.878 77.372 139.49 77.183 140.024 77.3777C140.19 77.5477 140.301 77.7559 140.351 77.9793C140.416 78.2887 140.366 78.6228 140.183 78.9093Z" fill="#E527BB"/>
<path d="M144.775 93.8232C145.439 92.7945 145.134 91.4191 144.095 90.7512C143.055 90.0832 141.675 90.3756 141.012 91.4043C140.348 92.433 140.653 93.8083 141.692 94.4763C142.732 95.1442 144.112 94.8518 144.775 93.8232Z" fill="#050590"/>
<path d="M149.394 84.8292L144.003 93.1878C143.634 93.7607 142.867 93.923 142.289 93.5506C142.209 93.499 142.136 93.4398 142.071 93.373C141.673 92.9701 141.593 92.3342 141.91 91.8415L147.301 83.4829C147.618 82.9902 148.231 82.8011 148.762 82.9959C148.848 83.0265 148.933 83.0685 149.013 83.12C149.302 83.3053 149.489 83.5898 149.556 83.8992C149.627 84.2085 149.577 84.5427 149.394 84.8292Z" fill="#DCFFFC"/>
<path d="M148.925 84.5275L143.534 92.886C143.217 93.3787 142.605 93.5678 142.073 93.373C141.675 92.9701 141.595 92.3342 141.912 91.8415L147.303 83.4829C147.62 82.9902 148.232 82.8011 148.764 82.9959C148.931 83.1659 149.042 83.374 149.091 83.5975C149.158 83.9087 149.109 84.2429 148.925 84.5275Z" fill="#E527BB"/>
<path d="M153.519 99.4359C154.183 98.4073 153.878 97.0319 152.839 96.364C151.799 95.696 150.419 95.9884 149.756 97.0171C149.092 98.0457 149.397 99.4211 150.436 100.089C151.476 100.757 152.856 100.465 153.519 99.4359Z" fill="#050590"/>
<path d="M158.138 90.4493L152.747 98.8079C152.378 99.3808 151.611 99.5431 151.033 99.1707C150.953 99.1192 150.88 99.06 150.815 98.9931C150.417 98.5902 150.337 97.9543 150.654 97.4616L156.045 89.103C156.363 88.6103 156.975 88.4212 157.506 88.616C157.592 88.6466 157.677 88.6886 157.757 88.7402C158.046 88.9254 158.233 89.2099 158.3 89.5193C158.371 89.8287 158.321 90.1628 158.138 90.4493Z" fill="#DCFFFC"/>
<path d="M157.669 90.1476L152.279 98.5062C151.961 98.9988 151.349 99.1879 150.817 98.9931C150.419 98.5902 150.339 97.9543 150.656 97.4616L156.047 89.103C156.364 88.6103 156.977 88.4212 157.508 88.616C157.675 88.786 157.786 88.9941 157.835 89.2176C157.902 89.5269 157.853 89.8611 157.669 90.1476Z" fill="#E527BB"/>
<path d="M107.92 88.196L94.8322 108.49C94.7748 108.578 94.6581 108.603 94.5701 108.547H94.5682C94.4802 108.49 94.4534 108.374 94.5108 108.286L107.599 87.9917L107.92 88.196Z" fill="#DDC8C3"/>
<path d="M115.453 93.0371L102.367 113.331C102.31 113.419 102.193 113.444 102.105 113.388H102.103C102.015 113.331 101.989 113.215 102.046 113.127L115.134 92.8328L115.453 93.0371Z" fill="#DDC8C3"/>
<path d="M122.988 97.8799L109.902 118.174C109.844 118.262 109.728 118.287 109.64 118.231H109.638C109.55 118.174 109.525 118.057 109.58 117.969L122.668 97.6755L122.988 97.8799Z" fill="#DDC8C3"/>
<path d="M130.521 102.721L117.433 123.015C117.375 123.103 117.259 123.128 117.171 123.072H117.169C117.081 123.015 117.056 122.898 117.112 122.811L130.199 102.517L130.521 102.721Z" fill="#DDC8C3"/>
<path d="M138.053 107.564L124.965 127.858C124.908 127.946 124.791 127.97 124.703 127.915H124.701C124.613 127.858 124.586 127.741 124.644 127.653L137.732 107.359L138.053 107.564Z" fill="#DDC8C3"/>
<path d="M145.588 112.405L132.5 132.699C132.443 132.787 132.326 132.811 132.238 132.756H132.236C132.148 132.699 132.121 132.582 132.179 132.494L145.267 112.2L145.588 112.405Z" fill="#DDC8C3"/>
<path d="M98.0778 92.2005C98.1352 92.1126 98.2518 92.0878 98.3398 92.1432L145.416 122.4C145.504 122.457 145.529 122.574 145.473 122.661C145.416 122.749 145.299 122.774 145.211 122.719L98.1332 92.4602C98.0452 92.4048 98.0204 92.2864 98.0778 92.2005Z" fill="#DDC8C3"/>
<path d="M93.2658 99.6614C93.3232 99.5736 93.4399 99.5488 93.5279 99.6041L140.604 129.861C140.692 129.918 140.717 130.035 140.661 130.122C140.604 130.21 140.487 130.235 140.399 130.18L93.3232 99.9211C93.2352 99.8658 93.2103 99.7493 93.2658 99.6614Z" fill="#DDC8C3"/>
<path d="M109.697 86.6434C109.389 86.4448 109.102 86.2137 108.836 85.9483C108.57 85.6828 108.367 85.4116 108.224 85.1367C108.136 84.9782 108.115 84.8254 108.159 84.6822C108.205 84.537 108.289 84.4224 108.411 84.3384C108.534 84.2544 108.664 84.2219 108.802 84.241C108.939 84.262 109.058 84.3556 109.161 84.5236C109.282 84.7585 109.444 84.9781 109.647 85.1825C109.85 85.3868 110.066 85.5644 110.298 85.7134C110.644 85.9368 110.929 86.0418 111.151 86.0323C111.373 86.0208 111.535 85.9349 111.642 85.7707C111.732 85.6313 111.751 85.4861 111.698 85.3372C111.644 85.1863 111.505 84.9972 111.277 84.77L110.571 84.0711C109.785 83.2938 109.634 82.5281 110.118 81.7776C110.326 81.4548 110.594 81.2276 110.925 81.0958C111.256 80.964 111.619 80.9316 112.017 80.9965C112.415 81.0614 112.819 81.2257 113.228 81.4892C113.498 81.663 113.743 81.8654 113.961 82.0984C114.179 82.3314 114.347 82.572 114.464 82.8241C114.538 82.973 114.552 83.1162 114.506 83.2499C114.46 83.3836 114.38 83.4886 114.267 83.565C114.152 83.6414 114.028 83.6662 113.892 83.6395C113.756 83.6127 113.632 83.5096 113.523 83.3301C113.416 83.1468 113.285 82.9768 113.132 82.8241C112.979 82.6713 112.807 82.5338 112.62 82.4135C112.316 82.2187 112.044 82.127 111.801 82.1366C111.558 82.148 111.376 82.2473 111.256 82.4345C111.166 82.5739 111.143 82.719 111.189 82.8718C111.235 83.0227 111.365 83.206 111.581 83.4199L112.287 84.1188C113.092 84.9228 113.264 85.679 112.805 86.3913C112.601 86.7083 112.335 86.9317 112.012 87.0597C111.686 87.1876 111.327 87.2182 110.931 87.1513C110.533 87.0864 110.122 86.9165 109.697 86.6434Z" fill="white"/>
<path d="M114.981 90.0407C114.432 89.6874 114.032 89.2768 113.782 88.809C113.531 88.3411 113.428 87.8446 113.47 87.3175C113.514 86.7904 113.707 86.2596 114.052 85.7268C114.392 85.1978 114.796 84.8044 115.257 84.5466C115.72 84.2888 116.215 84.178 116.745 84.2124C117.275 84.2468 117.814 84.4396 118.363 84.7929C118.604 84.9476 118.828 85.1367 119.037 85.3582C119.245 85.5797 119.406 85.8031 119.521 86.0266C119.614 86.2099 119.635 86.376 119.586 86.5288C119.536 86.6797 119.446 86.7962 119.316 86.8764C119.186 86.9566 119.048 86.9833 118.901 86.9566C118.753 86.9298 118.635 86.8305 118.543 86.6549C118.455 86.4753 118.342 86.3149 118.208 86.1736C118.074 86.0323 117.925 85.9101 117.761 85.8051C117.273 85.4919 116.816 85.3964 116.385 85.5186C115.955 85.6408 115.572 85.9636 115.234 86.4887C114.895 87.0139 114.759 87.497 114.824 87.9401C114.889 88.3831 115.165 88.7612 115.653 89.0744C115.808 89.1737 115.978 89.2558 116.163 89.3207C116.349 89.3857 116.544 89.4258 116.747 89.4391C116.953 89.4563 117.101 89.5251 117.187 89.6454C117.273 89.7657 117.309 89.8975 117.294 90.0407C117.279 90.1839 117.217 90.3119 117.106 90.4207C116.996 90.5296 116.846 90.5811 116.659 90.5773C116.399 90.5792 116.117 90.5315 115.815 90.4341C115.515 90.3367 115.238 90.2049 114.981 90.0407Z" fill="white"/>
<path d="M118.028 91.977C117.845 91.8586 117.738 91.7192 117.707 91.5569C117.676 91.3946 117.718 91.2208 117.837 91.0375L120.458 86.9737C120.706 86.588 121.018 86.5173 121.393 86.7579C121.764 86.9966 121.825 87.3079 121.577 87.6937L120.59 89.2233L122.962 90.7472L123.949 89.2176C124.197 88.8318 124.507 88.7593 124.878 88.998C125.255 89.2405 125.318 89.5537 125.07 89.9375L122.449 94.0013C122.33 94.1846 122.191 94.2954 122.03 94.3336C121.869 94.3718 121.695 94.3336 121.514 94.2152C121.336 94.1006 121.23 93.9612 121.2 93.7988C121.169 93.6365 121.211 93.4627 121.33 93.2794L122.363 91.6772L119.991 90.1533L118.958 91.7555C118.709 92.1432 118.399 92.2157 118.028 91.977Z" fill="white"/>
<path d="M123.729 95.5501C123.339 95.2999 123.27 94.9791 123.52 94.5895L126.047 90.6709C126.298 90.2813 126.619 90.2126 127.009 90.4627L129.533 92.084C129.827 92.2731 129.881 92.5118 129.695 92.8002C129.506 93.0943 129.265 93.1458 128.97 92.9568L126.931 91.6467L126.164 92.8384L128.037 94.0414C128.335 94.2343 128.391 94.4768 128.201 94.769C128.012 95.0631 127.767 95.1128 127.469 94.9218L125.596 93.7187L124.777 94.9886L126.816 96.2987C127.111 96.4877 127.164 96.7264 126.979 97.0148C126.789 97.3089 126.548 97.3604 126.254 97.1714L123.729 95.5501Z" fill="white"/>
<path d="M128.104 98.3611C127.714 98.1109 127.645 97.7901 127.895 97.4006L130.422 93.4819C130.673 93.0924 130.994 93.0236 131.384 93.2738L132.794 94.1789C133.663 94.7366 134.193 95.3897 134.386 96.1364C134.579 96.883 134.413 97.6641 133.888 98.4757C133.364 99.2892 132.72 99.7628 131.958 99.9003C131.195 100.036 130.38 99.8258 129.514 99.2682L128.104 98.3611ZM129.231 97.7882L130.04 98.3095C131.124 99.0066 132.018 98.8118 132.718 97.7233C133.416 96.6405 133.223 95.7506 132.138 95.0536L131.329 94.5322L129.231 97.7882Z" fill="white"/>
<path d="M135.247 103.065C134.524 102.601 134.094 102.06 133.954 101.447C133.814 100.834 133.981 100.162 134.453 99.4286L136.035 96.9747C136.154 96.7913 136.292 96.6825 136.452 96.6462C136.613 96.6099 136.783 96.65 136.967 96.7684C137.338 97.0071 137.401 97.3165 137.156 97.6965L135.569 100.158C135.301 100.572 135.195 100.943 135.247 101.273C135.301 101.604 135.505 101.882 135.861 102.112C136.588 102.58 137.221 102.398 137.759 101.565L139.346 99.1039C139.591 98.7239 139.899 98.6533 140.27 98.892C140.448 99.0065 140.553 99.144 140.584 99.3025C140.615 99.461 140.571 99.6329 140.452 99.8162L138.87 102.27C138.398 103.002 137.858 103.433 137.248 103.565C136.636 103.695 135.97 103.529 135.247 103.065Z" fill="white"/>
<path d="M139.058 105.402C138.871 105.282 138.76 105.14 138.727 104.98C138.695 104.82 138.737 104.648 138.856 104.464L141.411 100.502C141.53 100.318 141.668 100.21 141.828 100.173C141.989 100.137 142.159 100.177 142.343 100.296C142.714 100.534 142.777 100.844 142.532 101.224L140.219 104.81L142.157 106.055C142.48 106.263 142.54 106.523 142.339 106.836C142.134 107.153 141.87 107.208 141.547 107L139.058 105.402Z" fill="white"/>
<path d="M143.215 108.074C142.825 107.823 142.756 107.503 143.007 107.113L145.534 103.194C145.784 102.805 146.106 102.736 146.496 102.986L149.019 104.607C149.313 104.797 149.367 105.035 149.181 105.324C148.992 105.618 148.751 105.669 148.456 105.48L146.417 104.17L145.65 105.362L147.523 106.565C147.821 106.758 147.877 107 147.688 107.292C147.498 107.587 147.253 107.636 146.955 107.445L145.082 106.242L144.263 107.512L146.303 108.822C146.597 109.011 146.651 109.25 146.465 109.538C146.276 109.832 146.035 109.884 145.74 109.695L143.215 108.074Z" fill="white"/>
<path d="M269.188 73.3866L204.922 82.9101C203.494 83.1221 201.852 82.1825 201.257 80.8133L184.191 41.522C183.596 40.1509 184.271 38.8695 185.702 38.6575L249.965 29.1321C251.394 28.9202 253.035 29.8597 253.63 31.229L270.697 70.5202C271.294 71.8914 270.616 73.1747 269.188 73.3866Z" fill="#E527BB"/>
<path d="M235.787 74.5782L227.169 75.8558L213.19 43.6723C212.918 43.0478 213.314 42.3355 213.99 42.2362L220.482 41.2737C220.947 41.205 221.398 41.4552 221.586 41.8867L235.787 74.5782Z" fill="white"/>
<path d="M249.076 72.6093L240.459 73.8869L234.33 59.6867C234.079 59.1099 234.445 58.453 235.068 58.3594L241.723 57.3741C242.152 57.311 242.57 57.5421 242.743 57.9393L249.076 72.6093Z" fill="white"/>
<path d="M222.475 76.5508L213.858 77.8284L202.843 52.5846C202.593 52.0079 202.958 51.351 203.582 51.2574L210.237 50.272C210.665 50.209 211.084 50.4401 211.256 50.8373L222.475 76.5508Z" fill="white"/>
<path d="M190.968 45.9429C191.45 47.0524 191.932 48.16 192.412 49.2695C193.57 51.9316 194.725 54.5955 195.882 57.2576C197.28 60.4773 198.681 63.6989 200.079 66.9186C201.288 69.7009 202.497 72.4833 203.704 75.2657C204.289 76.612 204.831 77.9851 205.462 79.3104C205.47 79.3275 205.477 79.3466 205.485 79.3638C205.676 79.8069 206.177 80.0761 206.654 80.0055C207.086 79.9406 207.52 79.8775 207.952 79.8126C209.131 79.6388 210.309 79.4631 211.487 79.2894C213.222 79.0316 214.957 78.7757 216.692 78.5179C218.808 78.2047 220.924 77.8915 223.039 77.5764C225.365 77.2307 227.693 76.887 230.019 76.5414C232.368 76.1938 234.717 75.8443 237.066 75.4968C239.247 75.174 241.43 74.8494 243.61 74.5267C245.462 74.2517 247.314 73.9786 249.163 73.7036C250.489 73.5069 251.817 73.3102 253.142 73.1135C253.774 73.0199 254.407 72.9359 255.038 72.8328C255.065 72.829 255.091 72.8251 255.12 72.8213C255.69 72.7373 256.161 72.1568 256.048 71.5724C255.933 70.9881 255.407 70.5565 254.797 70.6462C254.365 70.7112 253.93 70.7742 253.498 70.8391C252.32 71.0129 251.141 71.1886 249.963 71.3624C248.228 71.6202 246.493 71.8761 244.758 72.1339C242.642 72.447 240.527 72.7602 238.411 73.0753C236.085 73.421 233.757 73.7647 231.431 74.1104C229.082 74.4579 226.733 74.8074 224.384 75.1549C222.203 75.4777 220.021 75.8023 217.84 76.125C215.988 76.4 214.137 76.6731 212.287 76.9481C210.961 77.1448 209.634 77.3415 208.308 77.5382C207.677 77.6318 207.042 77.7082 206.413 77.8189C206.386 77.8227 206.359 77.8266 206.33 77.8304C206.721 78.0443 207.109 78.2581 207.499 78.472C207.017 77.3625 206.535 76.2549 206.055 75.1454C204.898 72.4833 203.742 69.8193 202.585 67.1573C201.187 63.9376 199.786 60.716 198.388 57.4963C197.179 54.7139 195.97 51.9316 194.763 49.1492C194.178 47.8029 193.625 46.4355 193.005 45.1045C192.998 45.0873 192.99 45.0682 192.982 45.051C192.753 44.524 192.06 44.228 191.53 44.4896C190.993 44.7589 190.723 45.3776 190.968 45.9429Z" fill="#A78BEF"/>
<path d="M256.916 59.8643C256.478 60.3513 255.875 60.5957 255.275 60.5957C254.672 60.5957 254.071 60.3532 253.633 59.8643C240.763 45.5438 241.64 27.6121 241.64 27.6121C241.64 20.0937 247.744 14 255.275 14C262.804 14 268.91 20.0937 268.91 27.6121C268.91 27.6121 269.786 45.5438 256.916 59.8643Z" fill="#A78BEF"/>
<path d="M256.917 59.8643C256.479 60.3513 255.876 60.5957 255.275 60.5957V14C262.804 14 268.91 20.0937 268.91 27.6121C268.91 27.6121 269.786 45.5438 256.917 59.8643Z" fill="#8267E5"/>
<path d="M255.274 36.6506C260.275 36.6506 264.328 32.6039 264.328 27.6122C264.328 22.6204 260.275 18.5737 255.274 18.5737C250.274 18.5737 246.221 22.6204 246.221 27.6122C246.221 32.6039 250.274 36.6506 255.274 36.6506Z" fill="white"/>
<path fill-rule="evenodd" clip-rule="evenodd" d="M279.09 173L253.838 174.433L250 198.767L281.463 199.277L289.22 182.063L279.09 173Z" fill="url(#paint0_radial_817_12254)"/>
<path fill-rule="evenodd" clip-rule="evenodd" d="M281.462 199.277L319.496 198.767L320.396 193.146H316.951L317.177 192.151L318.3 191.825L320.396 180.548H318.899L319.122 179.022L318.077 178.756L318.899 173H279.09V178.756L280.404 179.022V180.548H280.873L280.39 192.907L279.09 193.146V194.07H282.37L281.462 199.277Z" fill="url(#paint1_linear_817_12254)"/>
<path opacity="0.2" fill-rule="evenodd" clip-rule="evenodd" d="M317.177 192.151L279.09 193.146V194.07L316.951 193.146L317.177 192.151Z" fill="#9A597C"/>
<path fill-rule="evenodd" clip-rule="evenodd" d="M318.899 180.548H280.873L318.968 180.083L320.635 180.548H318.899Z" fill="url(#paint2_linear_817_12254)"/>
<path fill-rule="evenodd" clip-rule="evenodd" d="M319.123 179.022L279.09 179.505L276.662 178.887L279.09 178.757H318.077L319.123 179.022Z" fill="url(#paint3_linear_817_12254)"/>
<path fill-rule="evenodd" clip-rule="evenodd" d="M319.416 185.816L324.544 187.772L328.859 191.018L289.697 190.859L318.856 188.828L319.416 185.816Z" fill="url(#paint4_linear_817_12254)"/>
<path opacity="0.5" fill-rule="evenodd" clip-rule="evenodd" d="M289.697 190.859L306.914 192.48L303.49 192.509V193.475H306.914L311.393 197.626L320.396 193.146H316.951L317.176 192.151L318.299 191.825L318.48 190.859H289.697Z" fill="#9A6D92"/>
<path fill-rule="evenodd" clip-rule="evenodd" d="M279.09 176.498H282.243L327.034 176.827L318.615 174.99L279.09 176.498Z" fill="url(#paint5_linear_817_12254)"/>
<path opacity="0.5" fill-rule="evenodd" clip-rule="evenodd" d="M279.09 176.498L302.516 178.757L305.046 179.131L305.834 180.084L312.668 180.161L313.573 180.548L319.95 182.947L320.396 180.548L318.968 180.084L319.122 179.022L318.077 178.757L318.353 176.827L279.09 176.498Z" fill="#9A6D92"/>
</g>
<path d="M482.39 69.23H477.27C476.23 69.08 475.18 69 474.1 69H447.64C446.56 69 445.51 69.08 444.47 69.23H437.88C428.56 69.23 421 76.79 421 86.11V98.68C421 108 428.56 115.56 437.88 115.56H443.67L439.07 121.18L455.18 115.56H482.4C491.72 115.56 499.28 108 499.28 98.68V86.12C499.27 76.79 491.72 69.23 482.39 69.23Z" fill="#E527BB"/>
<path d="M488.731 80.25H433.401C433.081 80.25 432.811 80.51 432.811 80.84C432.811 81.16 433.071 81.43 433.401 81.43H488.731C489.051 81.43 489.321 81.17 489.321 80.84C489.321 80.51 489.061 80.25 488.731 80.25Z" fill="white"/>
<path d="M488.731 107.02H433.401C433.081 107.02 432.811 107.28 432.811 107.61C432.811 107.93 433.071 108.2 433.401 108.2H488.731C489.051 108.2 489.321 107.94 489.321 107.61C489.321 107.28 489.061 107.02 488.731 107.02Z" fill="white"/>
<path d="M458.581 98.8501H433.401C433.081 98.8501 432.811 99.1101 432.811 99.4401C432.811 99.7701 433.071 100.03 433.401 100.03H458.581C458.901 100.03 459.171 99.7701 459.171 99.4401C459.171 99.1101 458.901 98.8501 458.581 98.8501Z" fill="white"/>
<path d="M469.991 89.48H433.401C433.081 89.48 432.811 89.74 432.811 90.07C432.811 90.39 433.071 90.66 433.401 90.66H469.991C470.311 90.66 470.581 90.4 470.581 90.07C470.581 89.74 470.311 89.48 469.991 89.48Z" fill="white"/>
<path d="M488.41 89.53H476.58C476.26 89.53 475.99 89.79 475.99 90.12C475.99 90.44 476.25 90.71 476.58 90.71H488.41C488.73 90.71 489 90.45 489 90.12C489 89.79 488.73 89.53 488.41 89.53Z" fill="white"/>
<path d="M400.04 295.668H406.4L374.9 205.718H368.54L400.04 295.668Z" fill="black"/>
<path d="M400.04 295.668H406.4L374.9 205.718H368.54L400.04 295.668Z" fill="black"/>
<path d="M377.73 231.968L368.54 205.718H374.9L384.09 231.968H377.73Z" fill="black"/>
<path d="M330.67 295.668H324.31L355.81 205.718H362.17L330.67 295.668Z" fill="black"/>
<path d="M292.55 295.668H298.91L267.41 205.718H261.05L292.55 295.668Z" fill="black"/>
<path d="M270.24 231.968L261.05 205.718H267.41L276.6 231.968H270.24Z" fill="black"/>
<path d="M450.099 295.228H454.439L441.399 235.738H437.059L450.099 295.228Z" fill="#4A3333"/>
<path opacity="0.34" d="M443.91 247.178L441.4 235.738H437.06L439.56 247.178H443.91Z" fill="#4A3333"/>
<path d="M398.04 295.228H393.69L406.73 235.738H411.08L398.04 295.228Z" fill="#4A3333"/>
<path opacity="0.34" d="M408.57 247.178L411.08 235.738H406.73L404.22 247.178H408.57Z" fill="#4A3333"/>
<path d="M448.99 226.228V188.738H459.32V227.728C459.32 231.448 456.78 234.568 453.34 235.468V235.738H451.31H448.99H394.41C394.01 235.738 393.69 235.418 393.69 235.018C393.69 230.168 397.62 226.238 402.47 226.238H448.99V226.228Z" fill="#E527BB"/>
<path opacity="0.34" d="M449 188.748H459.32V206.978H449V188.748Z" fill="#4A3333"/>
<path d="M447.69 200.428H458.56C460.87 200.428 462.75 198.548 462.75 196.238V184.928C462.75 182.618 460.87 180.738 458.56 180.738H451.83C450.07 180.738 448.5 181.838 447.89 183.488L443.75 194.798C442.75 197.528 444.78 200.428 447.69 200.428Z" fill="#E527BB"/>
<path opacity="0.34" d="M443.75 194.798L447.89 183.488C448.18 182.688 448.7 182.028 449.35 181.548C450.48 181.678 451.51 182.188 452.38 183.038C454.96 185.558 455.77 189.758 455.34 193.228C454.94 196.458 453.25 199.258 450.35 200.438H447.69C444.78 200.428 442.75 197.528 443.75 194.798Z" fill="#4A3333"/>
<path d="M414.789 173.248L411.659 157.378C411.659 157.378 406.819 171.608 402.309 184.698L398.449 185.958C401.039 188.488 402.619 191.798 402.669 195.438C403.129 195.408 405.109 194.978 406.889 194.578C408.839 194.138 410.529 192.948 411.599 191.258L414.949 185.958C417.089 182.588 415.919 177.078 414.789 173.248Z" fill="#E93F23"/>
<path d="M414.789 173.248L411.659 157.378C411.659 157.378 406.399 172.948 402.309 184.698L398.449 185.958C401.039 188.488 402.619 191.798 402.669 195.438C403.129 195.408 405.109 194.978 406.889 194.578C408.839 194.138 410.529 192.948 411.599 191.258L414.949 185.958C417.089 182.588 415.919 177.078 414.789 173.248Z" fill="#4FB664"/>
<path d="M414.789 173.248L411.659 157.378C411.659 157.378 406.399 172.948 402.309 184.698L398.449 185.958C401.039 188.488 402.619 191.798 402.669 195.438C403.129 195.408 405.109 194.978 406.889 194.578C408.839 194.138 410.529 192.948 411.599 191.258L414.949 185.958C417.089 182.588 415.919 177.078 414.789 173.248Z" fill="#9473E8"/>
<path d="M397.848 186.078L401.348 183.518C412.028 186.018 408.018 194.508 408.018 194.508C405.168 196.978 401.378 195.928 401.378 195.928C402.478 190.638 397.848 186.078 397.848 186.078Z" fill="#A78BEF"/>
<path d="M387.318 189.578C387.318 189.578 376.508 191.598 376.388 195.618H389.308C389.308 195.618 390.488 194.918 390.668 193.498C390.668 193.498 396.238 194.838 401.248 195.408C401.728 195.468 402.208 195.468 402.668 195.438C402.608 191.798 401.028 188.488 398.448 185.958L387.318 189.578Z" fill="#ED9F8A"/>
<path d="M420.809 143.428L424.139 151.278C422.169 156.108 416.479 157.128 414.779 157.328C414.469 157.368 414.289 157.378 414.289 157.378C414.199 157.158 414.109 156.948 414.009 156.728C412.099 152.258 409.839 148.218 409.839 148.218L408.919 148.528L405.319 149.738C402.489 150.238 401.619 147.518 401.429 146.718C401.379 146.488 401.319 146.278 401.249 146.048L399.519 142.748L398.559 142.228C396.989 141.148 397.329 140.368 397.329 140.368L398.449 138.308C399.209 136.898 399.479 135.278 399.199 133.698C397.989 126.868 401.699 124.118 401.699 124.118C417.289 112.098 424.499 126.758 424.499 126.758C429.679 138.058 420.809 143.428 420.809 143.428Z" fill="#FFAB87"/>
<path opacity="0.18" d="M414.01 156.718C412.1 152.248 409.84 148.208 409.84 148.208L408.92 148.518L410.04 148.088C412.37 147.188 414.93 148.728 415.22 151.218C415.43 153.018 415.25 155.048 414.01 156.718Z" fill="#985235"/>
<g opacity="0.45">
<path opacity="0.53" d="M411.998 142.268C412.018 142.268 412.038 142.258 412.068 142.248C413.978 141.528 415.228 140.518 415.788 139.238C416.398 137.848 415.938 136.668 415.918 136.618C415.858 136.468 415.688 136.388 415.538 136.458C415.388 136.518 415.318 136.688 415.378 136.838C415.378 136.848 415.768 137.848 415.248 139.018C414.748 140.138 413.608 141.038 411.868 141.698C411.718 141.758 411.638 141.928 411.698 142.078C411.728 142.208 411.858 142.288 411.998 142.268Z" fill="#985235"/>
<path opacity="0.53" d="M410.998 141.208C411.008 141.208 411.018 141.208 411.018 141.208C411.178 141.178 411.278 141.018 411.248 140.858C410.938 139.408 412.648 138.868 412.718 138.848C412.878 138.798 412.958 138.638 412.918 138.478C412.868 138.318 412.698 138.238 412.548 138.278C411.758 138.518 410.338 139.398 410.668 140.978C410.708 141.128 410.848 141.228 410.998 141.208Z" fill="#985235"/>
</g>
<path d="M398.369 126.568C400.609 120.228 407.749 116.128 414.389 117.158C421.029 118.188 426.529 124.098 427.309 130.768C427.529 132.598 427.269 134.658 426.399 136.228L426.519 136.118C425.219 139.588 423.849 143.768 420.169 144.208C419.879 144.238 418.569 143.738 418.319 143.588C417.849 143.298 417.859 142.638 417.889 142.088C417.959 140.788 417.839 139.438 417.219 138.288C416.599 137.138 415.399 136.248 414.099 136.268C412.839 136.288 411.749 137.098 410.639 137.688C409.519 138.278 408.039 138.608 407.089 137.778C406.039 136.858 406.339 135.188 406.249 133.788C406.119 131.888 404.409 129.848 402.609 130.458C401.889 130.698 401.329 131.318 400.589 131.468C399.519 131.698 398.439 130.818 398.109 129.778C397.759 128.738 397.999 127.598 398.369 126.568Z" fill="#231F20"/>
<path d="M449.299 206.568C448.869 210.688 447.909 214.558 446.699 218.158C444.419 224.888 438.839 229.598 432.369 230.268C427.389 230.788 422.489 230.118 417.489 228.518C413.869 227.358 410.189 225.708 406.379 223.668C405.409 223.148 404.449 222.608 403.519 222.008C398.879 219.008 393.969 219.408 393.969 219.408C389.329 221.178 386.529 226.378 387.349 231.718L387.789 234.608C383.209 243.658 377.239 252.458 370.679 260.718V260.728L370.849 264.348C370.949 266.538 369.899 268.628 368.099 269.568C367.389 269.948 366.629 270.238 365.889 270.478C363.379 271.278 360.989 272.468 359.019 274.208C355.599 277.218 351.929 277.918 348.029 276.458C347.019 276.078 346.119 275.338 345.589 274.308C344.529 272.238 345.559 270.418 346.509 269.308C347.049 268.678 347.719 268.198 348.419 267.808C355.109 264.168 363.069 255.828 363.329 255.558C363.339 255.548 363.339 255.548 363.339 255.548L385.279 207.448C386.179 205.458 388.019 204.198 390.029 204.198C399.229 204.198 422.999 206.788 422.999 206.788L423.679 204.948L449.299 206.568Z" fill="#231F20"/>
<path d="M450.459 207.358C452.109 191.168 434.349 148.598 423.829 149.408L411.939 154.938L410.469 160.088C408.279 167.728 409.439 175.978 413.779 182.638C418.669 190.148 421.919 198.078 422.999 206.528C429.479 212.358 438.599 212.278 449.179 208.918C449.879 208.708 450.389 208.088 450.459 207.358Z" fill="#A78BEF"/>
<path d="M345.23 273.358C345.3 273.668 345.42 273.988 345.59 274.308C346.12 275.338 347.01 276.078 348.02 276.458C351.57 277.788 354.93 277.328 358.07 274.978C360.64 273.048 363.42 271.378 366.44 270.288C367 270.088 367.56 269.848 368.1 269.568C369.89 268.638 370.94 266.538 370.84 264.358L370.67 260.738C370.81 260.558 370.95 260.378 371.09 260.208L369.97 259.538L363.33 255.568C363.07 255.848 355.11 264.178 348.42 267.818C347.71 268.208 347.05 268.688 346.51 269.318C345.7 270.238 344.84 271.688 345.23 273.358Z" fill="black"/>
<path d="M345.229 273.358C345.759 274.088 346.489 274.618 347.309 274.928C350.859 276.258 354.209 275.798 357.359 273.448C359.929 271.528 362.709 269.848 365.729 268.758C366.289 268.558 366.849 268.318 367.379 268.038C369.169 267.108 370.219 265.008 370.129 262.828L369.969 259.538L363.329 255.568C363.069 255.848 355.109 264.178 348.419 267.818C347.709 268.208 347.049 268.688 346.509 269.318C345.699 270.238 344.839 271.688 345.229 273.358Z" fill="#A78BEF"/>
<path opacity="0.48" d="M355.19 263.408C356.88 263.988 358.33 265.118 359.3 266.618C359.52 266.948 358.98 267.258 358.77 266.928C357.89 265.568 356.55 264.528 355.02 263.998C354.65 263.878 354.81 263.278 355.19 263.408Z" fill="white"/>
<path opacity="0.48" d="M353.22 264.698C354.85 265.118 356.28 266.158 357.19 267.578C357.4 267.908 356.87 268.218 356.66 267.888C355.83 266.608 354.53 265.678 353.05 265.298C352.67 265.198 352.83 264.598 353.22 264.698Z" fill="white"/>
<path d="M369.669 191.378C370.019 189.908 371.799 187.408 372.619 186.298C372.889 185.938 373.269 185.678 373.699 185.548L378.999 183.938C379.279 183.848 379.579 183.838 379.869 183.898C381.799 184.338 387.659 184.988 389.839 185.218C390.399 185.278 390.949 185.388 391.489 185.548C399.319 187.858 406.999 189.248 414.469 189.448C416.849 189.508 418.829 191.308 419.119 193.668C419.489 196.678 417.019 199.278 413.999 199.068C410.259 198.808 406.589 197.948 403.119 196.518L394.639 193.028C394.279 192.878 393.919 192.758 393.549 192.668L391.199 192.078C388.919 192.828 386.559 192.458 384.139 191.368L379.119 193.238C377.169 194.078 376.009 193.738 376.209 193.098C375.559 193.878 374.989 194.498 374.989 194.498C374.279 195.118 373.749 194.758 373.479 194.468C373.349 194.328 373.329 194.128 373.419 193.968L376.269 188.718L375.219 189.608L373.449 193.388C372.879 194.568 372.249 194.788 371.769 194.708C371.279 194.628 370.999 194.088 371.159 193.618L372.239 190.358C371.459 191.428 370.869 191.898 370.449 192.078C370.019 192.268 369.549 191.858 369.669 191.378ZM376.689 192.538C376.819 192.438 376.959 192.338 377.149 192.238L382.759 189.148L380.889 189.508C380.809 189.528 380.719 189.548 380.639 189.568L378.109 190.378C377.919 190.908 377.319 191.748 376.689 192.538Z" fill="#FFAB87"/>
<path opacity="0.53" d="M371.96 190.518C372.36 189.748 372.8 188.988 373.27 188.258C373.68 187.608 374.11 187.008 374.83 186.678C375.63 186.318 376.52 186.108 377.36 185.838C378.29 185.538 379.23 185.238 380.16 184.938C380.34 184.878 380.46 185.148 380.28 185.208C378.62 185.738 376.94 186.238 375.3 186.818C374.5 187.108 374.03 187.618 373.58 188.318C373.09 189.068 372.65 189.838 372.23 190.628C372.15 190.788 371.87 190.678 371.96 190.518Z" fill="#985235"/>
<path opacity="0.53" d="M376.03 188.828C376.2 188.458 376.5 188.218 376.85 188.028C377.32 187.778 377.84 187.578 378.33 187.368C379.28 186.948 380.23 186.518 381.23 186.238C381.41 186.188 381.46 186.478 381.28 186.528C380.37 186.778 379.51 187.168 378.65 187.548C378.22 187.738 377.79 187.918 377.37 188.108C376.95 188.298 376.51 188.498 376.3 188.938C376.22 189.098 375.95 188.998 376.03 188.828Z" fill="#985235"/>
<path d="M426.32 154.168C430.11 155.388 432.45 159.178 431.85 163.118C428.93 182.178 424.9 198.218 415.3 198.998L411.75 189.338L415.83 160.738C416.54 155.768 421.55 152.628 426.32 154.168Z" fill="#9473E8"/>
<path d="M410.47 189.238L412.37 186.228C423.05 188.728 420.64 197.668 420.64 197.668C417.79 200.138 414 199.088 414 199.088C415.1 193.788 410.47 189.238 410.47 189.238Z" fill="#A78BEF"/>
<path d="M422.148 146.588L412.528 153.258L409.388 164.328C414.468 158.428 419.638 154.068 424.938 151.938C425.988 151.108 425.968 149.508 424.908 148.688L422.148 146.588Z" fill="#E527BB"/>
<path d="M402.899 274.728C402.759 275.538 402.609 276.368 402.449 277.198C402.449 277.198 404.639 282.508 404.099 288.698C403.959 290.408 402.659 291.728 401.119 291.818L393.759 292.248C392.979 292.298 392.209 292.488 391.479 292.818C390.799 293.128 389.889 293.548 388.929 293.998C385.709 295.458 382.119 295.628 378.799 294.448C378.019 294.178 377.249 293.858 376.579 293.528C374.989 292.738 374.519 290.468 375.679 289.018C376.849 287.568 379.149 285.728 383.659 283.978C383.659 283.978 393.359 280.508 393.719 274.458C393.729 274.288 393.739 274.108 393.729 273.918L387.749 234.598L387.309 231.708C386.489 226.368 389.299 221.158 393.929 219.398C393.929 219.398 398.839 218.988 403.479 221.998C404.409 222.598 405.379 223.138 406.339 223.658C410.149 225.698 413.829 227.348 417.449 228.508C411.309 229.968 402.559 232.198 401.249 233.378C401.279 233.388 407.349 248.868 402.899 274.728Z" fill="#231F20"/>
<path opacity="0.41" d="M387.338 231.728C387.398 231.558 387.458 231.388 387.528 231.218C390.208 224.858 398.238 225.428 403.788 226.448C406.368 226.918 408.918 227.518 411.508 227.968C412.928 228.218 414.378 228.408 415.818 228.328C416.088 228.318 416.368 228.288 416.648 228.238C413.288 227.098 409.878 225.548 406.358 223.658C405.388 223.138 404.428 222.598 403.498 221.998C398.858 218.998 393.948 219.398 393.948 219.398C389.318 221.178 386.518 226.378 387.338 231.728Z" fill="#004CAD"/>
<path d="M375.159 292.068C375.409 292.698 375.859 293.218 376.469 293.528C377.149 293.858 377.909 294.168 378.689 294.438C382.009 295.628 385.599 295.448 388.819 293.988C389.779 293.548 390.689 293.118 391.369 292.808C392.089 292.468 392.859 292.278 393.639 292.228L400.999 291.798C402.549 291.708 403.839 290.388 403.979 288.678C404.519 282.488 402.329 277.178 402.329 277.178C402.499 276.348 402.639 275.518 402.779 274.708L401.789 274.678L393.609 274.448C393.239 280.498 383.549 283.968 383.549 283.968C379.039 285.708 376.739 287.558 375.569 289.008C374.869 289.908 374.759 291.098 375.159 292.068Z" fill="black"/>
<path d="M375.268 292.068C375.428 292.208 375.598 292.318 375.788 292.408C376.458 292.738 377.228 293.048 378.008 293.318C381.328 294.498 384.908 294.328 388.138 292.868C389.098 292.428 390.018 291.998 390.688 291.688C391.408 291.358 392.178 291.158 392.958 291.118L400.318 290.688C401.868 290.598 403.158 289.278 403.298 287.558C403.848 281.378 401.648 276.068 401.648 276.068L401.908 274.688L393.728 274.458C393.358 280.508 383.668 283.978 383.668 283.978C379.158 285.718 376.858 287.568 375.688 289.018C374.988 289.908 374.878 291.098 375.268 292.068Z" fill="#A78BEF"/>
<path opacity="0.48" d="M387.43 282.118C389.57 282.158 391.64 283.108 393.06 284.708C393.32 284.998 392.89 285.438 392.63 285.138C391.31 283.658 389.42 282.768 387.43 282.728C387.03 282.728 387.03 282.108 387.43 282.118Z" fill="white"/>
<path opacity="0.48" d="M385.42 283.238C387.41 283.678 389.25 284.688 390.68 286.128C390.96 286.408 390.53 286.838 390.25 286.558C388.88 285.188 387.15 284.238 385.26 283.818C384.87 283.738 385.04 283.148 385.42 283.238Z" fill="white"/>
<path d="M236.36 295.668H230L261.49 205.718H267.85L236.36 295.668Z" fill="black"/>
<path d="M242.69 211.168H398.59C401.58 211.168 404 208.748 404 205.758V203.288C404 200.298 401.58 197.878 398.59 197.878H242.68C239.69 197.878 237.27 200.298 237.27 203.288V205.758C237.28 208.748 239.7 211.168 242.69 211.168Z" fill="#E527BB"/>
<path d="M329.56 192.208H356.93V198.008H329.56V192.208Z" fill="#DA25B2"/>
<path d="M332.06 192.208H356.93V198.008H332.06V192.208Z" fill="#DA25B2"/>
<path d="M319.259 166.868L325.949 191.938H363.719L357.019 166.868H319.259Z" fill="#FF9C00"/>
<path d="M314.71 165.878L322.1 193.558C322.23 194.028 322.61 194.348 323.05 194.348H324.42L316.44 164.448H315.67C315 164.448 314.52 165.168 314.71 165.878Z" fill="#E93F23"/>
<path d="M314.71 165.878L322.1 193.558C322.23 194.028 322.61 194.348 323.05 194.348H324.42L316.44 164.448H315.67C315 164.448 314.52 165.168 314.71 165.878Z" fill="#CC1AA5"/>
<path d="M358.549 164.448L366.529 194.348H324.419L316.439 164.448H358.549ZM325.949 191.938H363.719L357.029 166.868H319.269L325.949 191.938Z" fill="#E527BB"/>
<path d="M319.259 166.868L325.949 191.938H363.719L357.019 166.868H319.259Z" fill="#FF9C00"/>
<path d="M319.259 166.868L325.949 191.938H363.719L357.019 166.868H319.259Z" fill="white"/>
<path d="M319.259 166.868L319.509 167.818H356.089L362.529 191.948H363.719L357.029 166.868H319.259Z" fill="#A78BEF"/>
<path d="M336.369 187.208H338.209L334.209 171.608H332.369L336.369 187.208Z" fill="#E527BB"/>
<path d="M332.469 187.208H334.299L331.339 175.268H329.499L332.469 187.208Z" fill="#A78BEF"/>
<path d="M328.558 187.208H330.398L328.418 178.908H326.578L328.558 187.208Z" fill="#DAA7EE"/>
<path d="M327.5 187.518H340.13C340.23 187.518 340.32 187.478 340.37 187.398C340.43 187.318 340.45 187.218 340.42 187.128L336.26 171.528C336.22 171.358 336.05 171.268 335.88 171.308C335.72 171.348 335.62 171.518 335.66 171.688L339.72 186.898H327.49C327.32 186.898 327.18 187.038 327.18 187.208C327.2 187.378 327.33 187.518 327.5 187.518Z" fill="#4A3333"/>
<path d="M340.519 175.958H355.129C355.599 175.958 355.869 175.528 355.729 175.008C355.589 174.488 355.099 174.058 354.629 174.058H340.019C339.549 174.058 339.279 174.488 339.419 175.008C339.559 175.528 340.049 175.958 340.519 175.958Z" fill="#4A3333"/>
<path d="M341.689 180.358H356.299C356.769 180.358 357.039 179.928 356.899 179.408C356.759 178.888 356.269 178.458 355.799 178.458H341.189C340.719 178.458 340.449 178.888 340.589 179.408C340.729 179.928 341.219 180.358 341.689 180.358Z" fill="#4A3333"/>
<path d="M346.608 184.758H357.468C357.938 184.758 358.208 184.328 358.068 183.808C357.928 183.288 357.438 182.858 356.968 182.858H346.108C345.638 182.858 345.368 183.288 345.508 183.808C345.638 184.328 346.138 184.758 346.608 184.758Z" fill="#4A3333"/>
<path d="M367.239 194.938V197.998H388.949C388.949 197.158 388.609 196.388 388.059 195.828C387.509 195.268 386.759 194.928 385.919 194.928H367.239V194.938Z" fill="#004CAD"/>
<path opacity="0.52" d="M367.239 194.938V197.998H378.699C378.699 197.158 378.359 196.388 377.809 195.828C377.259 195.268 376.509 194.928 375.669 194.928H367.239V194.938Z" fill="#E93F23"/>
<defs>
<radialGradient id="paint0_radial_817_12254" cx="0" cy="0" r="1" gradientUnits="userSpaceOnUse" gradientTransform="translate(269.61 186.138) scale(16.6906 16.6906)">
<stop stop-color="#9D94C2"/>
<stop offset="0.9829" stop-color="#8C74B1"/>
</radialGradient>
<linearGradient id="paint1_linear_817_12254" x1="279.09" y1="186.138" x2="320.396" y2="186.138" gradientUnits="userSpaceOnUse">
<stop offset="0.0171" stop-color="#C9BDDA"/>
<stop offset="1" stop-color="#CEC9E0"/>
</linearGradient>
<linearGradient id="paint2_linear_817_12254" x1="280.873" y1="180.315" x2="320.634" y2="180.315" gradientUnits="userSpaceOnUse">
<stop offset="0.0171" stop-color="#E6E0EE"/>
<stop offset="1" stop-color="#F0EFF6"/>
</linearGradient>
<linearGradient id="paint3_linear_817_12254" x1="276.661" y1="179.132" x2="319.124" y2="179.132" gradientUnits="userSpaceOnUse">
<stop offset="0.0171" stop-color="#E6E0EE"/>
<stop offset="1" stop-color="#F0EFF6"/>
</linearGradient>
<linearGradient id="paint4_linear_817_12254" x1="289.696" y1="188.417" x2="328.858" y2="188.417" gradientUnits="userSpaceOnUse">
<stop offset="0.0171" stop-color="#E6E0EE"/>
<stop offset="1" stop-color="#F0EFF6"/>
</linearGradient>
<linearGradient id="paint5_linear_817_12254" x1="279.09" y1="175.908" x2="327.034" y2="175.908" gradientUnits="userSpaceOnUse">
<stop offset="0.0171" stop-color="#E6E0EE"/>
<stop offset="1" stop-color="#F0EFF6"/>
</linearGradient>
<clipPath id="clip0_817_12254">
<rect width="301.998" height="297" fill="white" transform="translate(85 14)"/>
</clipPath>
</defs>
</svg>
