<svg width="21" height="21" viewBox="0 0 21 21" fill="none" xmlns="http://www.w3.org/2000/svg">
<path d="M20.7056 19.2436H20.3169V18.37C20.3169 18.2075 20.1851 18.0756 20.0225 18.0756H19.0305V16.9931C19.0305 16.8306 18.8986 16.6987 18.7361 16.6987H18.3719L18.3942 8.35224H18.7599C18.9224 8.35224 19.0543 8.22037 19.0543 8.05785V6.97534H19.4429C19.6055 6.97534 19.7373 6.84348 19.7373 6.68095V5.04109C19.7373 5.02695 19.7312 5.01483 19.7293 5.00122C19.7264 4.98057 19.7242 4.96054 19.7171 4.94104C19.7106 4.92336 19.7008 4.90841 19.6912 4.8925C19.6815 4.87607 19.6726 4.85992 19.6596 4.84555C19.6456 4.83002 19.6289 4.81871 19.6118 4.80645C19.6009 4.79854 19.5932 4.78766 19.5809 4.7812L10.638 0.0344992C10.5514 -0.0114997 10.4486 -0.0114997 10.362 0.0344992L1.41906 4.7812C1.4068 4.78766 1.39908 4.79854 1.38816 4.80645C1.37115 4.81871 1.35443 4.83002 1.34043 4.84555C1.3274 4.85992 1.31854 4.87607 1.30876 4.8925C1.29918 4.90841 1.28936 4.92336 1.28289 4.94104C1.2758 4.96054 1.27359 4.98057 1.27072 5.00122C1.2688 5.01483 1.26267 5.02695 1.26267 5.04109V6.68095C1.26267 6.84348 1.39453 6.97534 1.55706 6.97534H1.94575V8.05785C1.94575 8.22037 2.07761 8.35224 2.24014 8.35224H2.60425L2.58173 16.6987H2.21638C2.05385 16.6987 1.92198 16.8306 1.92198 16.9931V18.0756H0.977475C0.814946 18.0756 0.683083 18.2075 0.683083 18.37V19.2436H0.294393C0.131863 19.2436 0 19.3755 0 19.538V20.7056C0 20.8681 0.131863 21 0.294393 21H20.7056C20.8681 21 21 20.8681 21 20.7056V19.538C21 19.3755 20.8681 19.2436 20.7056 19.2436ZM18.4417 18.0756H16.0547V17.2875H18.4417V18.0756ZM14.5908 18.0756V16.9931C14.5908 16.8306 14.459 16.6987 14.2964 16.6987H13.9323L13.9548 8.35224H14.3202C14.4827 8.35224 14.6146 8.22037 14.6146 8.05785V6.97534H15.4901V8.05785C15.4901 8.22037 15.622 8.35224 15.7845 8.35224H16.1483L16.126 16.6987H15.7604C15.5978 16.6987 15.466 16.8306 15.466 16.9931V18.0756H14.5908ZM11.6155 18.0756V17.2875H14.002V18.0756H11.6155ZM9.92578 18.0756V16.9931C9.92578 16.8306 9.79392 16.6987 9.63139 16.6987H9.26723L9.28946 8.35224H9.65516C9.81768 8.35224 9.94955 8.22037 9.94955 8.05785V6.97534H11.0505V8.05785C11.0505 8.22037 11.1823 8.35224 11.3448 8.35224H11.709L11.6864 16.6987H11.3211C11.1586 16.6987 11.0267 16.8306 11.0267 16.9931V18.0756H9.92578ZM6.95004 18.0756V17.2875H9.337V18.0756H6.95004ZM5.48613 18.0756V16.9931C5.48613 16.8306 5.35426 16.6987 5.19173 16.6987H4.82763L4.85015 8.35224H5.2155C5.37803 8.35224 5.50989 8.22037 5.50989 8.05785V6.97534H6.3854V8.05785C6.3854 8.22037 6.51727 8.35224 6.6798 8.35224H7.04357L7.02134 16.6987H6.65565C6.49312 16.6987 6.36126 16.8306 6.36126 16.9931V18.0756H5.48613ZM9.36076 6.97534V7.76345H6.97419V6.97534H9.36076ZM7.61012 16.6987L7.63236 8.35224H8.70068L8.67845 16.6987H7.61012ZM14.0258 6.97534V7.76345H11.6392V6.97534H14.0258ZM12.2752 16.6987L12.2977 8.35224H13.3661L13.3435 16.6987H12.2752ZM17.7831 16.6987H16.7148L16.7371 8.35224H17.8054L17.7831 16.6987ZM18.4655 7.76345H16.0789V6.97534H18.4655V7.76345ZM10.5 0.627501L18.2607 4.7467H2.73933L10.5 0.627501ZM1.85145 5.33548H19.1485V6.38655H1.85145V5.33548ZM2.53454 6.97534H4.92111V7.76345H2.53454V6.97534ZM3.19304 8.35224H4.26136L4.23884 16.6987H3.17052L3.19304 8.35224ZM2.51077 17.2875H4.89734V18.0756H2.51077V17.2875ZM1.27187 18.6644H19.7281V19.2436H1.27187V18.6644ZM20.4112 20.4112H0.588785V19.8324H20.4112V20.4112Z" fill="url(#paint0_linear_439_5733)"/>
<defs>
<linearGradient id="paint0_linear_439_5733" x1="10.5" y1="0" x2="10.5" y2="21" gradientUnits="userSpaceOnUse">
<stop stop-color="#E527BB"/>
<stop offset="1" stop-color="#A78BEF"/>
</linearGradient>
</defs>
</svg>
