<svg width="533" height="331" viewBox="0 0 533 331" fill="none" xmlns="http://www.w3.org/2000/svg">
<path opacity="0.2" fill-rule="evenodd" clip-rule="evenodd" d="M0 7.5756C0 7.5756 496.166 -10.2363 522.25 8.76437C545.499 25.7019 520.61 239.759 514.929 286.131C514.801 287.134 513.992 287.91 512.938 288.028C382.355 302.136 78.1811 295.779 13.6451 294.227C12.5792 294.197 11.7008 293.49 11.49 292.498C2.02627 247.216 0 7.5756 0 7.5756Z" fill="#999999"/>
<path d="M290.436 312.457H191.734C180.79 312.457 171.914 303.58 171.914 292.619V60.8382C171.914 49.8844 180.79 41 191.734 41H290.436C301.38 41 310.256 49.8844 310.256 60.8382V292.619C310.256 303.58 301.38 312.457 290.436 312.457Z" fill="#E5EDFD"/>
<path d="M290.436 47.794C297.621 47.794 303.469 53.6473 303.469 60.8384V292.619C303.469 299.81 297.621 305.663 290.436 305.663H191.734C184.549 305.663 178.702 299.81 178.702 292.619V60.8384C178.702 53.6473 184.549 47.794 191.734 47.794H290.436ZM290.436 41.0071H191.734C180.79 41.0071 171.914 49.8914 171.914 60.8453V292.626C171.914 303.58 180.79 312.464 191.734 312.464H290.436C301.38 312.464 310.256 303.587 310.256 292.626V60.8384C310.256 49.8845 301.38 41.0071 290.436 41.0071Z" fill="#060000"/>
<path d="M271.968 41.6897H210.211V48.8808C210.211 52.0652 212.794 54.6504 215.975 54.6504H266.204C269.385 54.6504 271.968 52.0652 271.968 48.8808V41.6897Z" fill="#060000"/>
<path d="M229.586 47.0762H253.27" stroke="white" stroke-width="0.764" stroke-miterlimit="10" stroke-linecap="round" stroke-linejoin="round"/>
<path d="M265.744 282.634H195.208C192.159 282.634 189.688 280.16 189.688 277.108V218.144C189.688 215.092 192.159 212.618 195.208 212.618H265.744C268.793 212.618 271.264 215.092 271.264 218.144V277.108C271.264 280.16 268.793 282.634 265.744 282.634Z" fill="#A78BEF"/>
<path d="M219.501 243.034H203.294C202.083 243.034 201.102 242.051 201.102 240.839V224.617C201.102 223.404 202.083 222.422 203.294 222.422H219.501C220.713 222.422 221.694 223.404 221.694 224.617V240.839C221.694 242.051 220.713 243.034 219.501 243.034Z" fill="white"/>
<path d="M228.734 228.923H247.35" stroke="white" stroke-width="1.3" stroke-miterlimit="10" stroke-linecap="round" stroke-linejoin="round"/>
<path d="M228.734 235.557H258.76" stroke="white" stroke-width="1.3" stroke-miterlimit="10" stroke-linecap="round" stroke-linejoin="round"/>
<path d="M201.102 251.618H221.701" stroke="white" stroke-width="1.3" stroke-miterlimit="10" stroke-linecap="round" stroke-linejoin="round"/>
<path d="M201.102 258.468H258.758" stroke="white" stroke-width="1.3" stroke-miterlimit="10" stroke-linecap="round" stroke-linejoin="round"/>
<path d="M201.102 266.015H258.758" stroke="white" stroke-width="1.3" stroke-miterlimit="10" stroke-linecap="round" stroke-linejoin="round"/>
<path d="M143.067 124.687C152.191 124.687 159.587 117.284 159.587 108.152C159.587 99.0196 152.191 91.6165 143.067 91.6165C133.943 91.6165 126.547 99.0196 126.547 108.152C126.547 117.284 133.943 124.687 143.067 124.687Z" fill="#E527BB"/>
<path d="M136.414 108.939L141.594 112.786L150.477 103.56" stroke="white" stroke-width="2.1361" stroke-miterlimit="10" stroke-linecap="round" stroke-linejoin="round"/>
<path d="M207.602 197.762H152.285C150.294 197.762 148.672 196.145 148.672 194.152V155.577C148.672 153.584 150.287 151.967 152.285 151.967H207.602C209.593 151.967 211.208 153.584 211.208 155.577V194.152C211.208 196.145 209.593 197.762 207.602 197.762Z" fill="#E527BB"/>
<path d="M189.585 171.137C189.585 165.674 185.165 161.249 179.707 161.249C174.249 161.249 169.828 165.674 169.828 171.137C169.828 172.962 170.329 174.662 171.193 176.133H171.186L171.213 176.168C171.589 176.809 172.035 177.401 172.55 177.937L179.714 187.428L186.87 177.944C187.385 177.401 187.838 176.802 188.214 176.161L188.235 176.133H188.228C189.084 174.662 189.585 172.955 189.585 171.137ZM179.707 175.436C177.305 175.436 175.356 173.485 175.356 171.081C175.356 168.677 177.305 166.733 179.707 166.733C182.108 166.733 184.058 168.684 184.058 171.081C184.058 173.492 182.108 175.436 179.707 175.436Z" fill="white"/>
<path d="M288.76 145.215H193.364C190.315 145.215 187.844 142.741 187.844 139.689V80.7252C187.844 77.6731 190.315 75.1995 193.364 75.1995H288.76C291.809 75.1995 294.281 77.6731 294.281 80.7252V139.689C294.274 142.741 291.802 145.215 288.76 145.215Z" fill="white"/>
<path d="M212.724 109.971H198.515C197.45 109.971 196.594 109.107 196.594 108.047V93.8185C196.594 92.7523 197.457 91.8953 198.515 91.8953H212.731C213.796 91.8953 214.652 92.7593 214.652 93.8185V108.047C214.652 109.113 213.789 109.971 212.724 109.971Z" fill="#A78BEF"/>
<path d="M235.739 109.971H221.523C220.458 109.971 219.602 109.107 219.602 108.047V93.8185C219.602 92.7523 220.465 91.8953 221.523 91.8953H235.739C236.804 91.8953 237.66 92.7593 237.66 93.8185V108.047C237.667 109.113 236.804 109.971 235.739 109.971Z" fill="#A78BEF"/>
<path d="M258.747 109.971H244.539C243.473 109.971 242.617 109.107 242.617 108.047V93.8185C242.617 92.7523 243.48 91.8953 244.539 91.8953H258.754C259.819 91.8953 260.676 92.7593 260.676 93.8185V108.047C260.676 109.113 259.812 109.971 258.747 109.971Z" fill="#A78BEF"/>
<path d="M281.754 109.971H267.539C266.473 109.971 265.617 109.107 265.617 108.047V93.8185C265.617 92.7523 266.48 91.8953 267.539 91.8953H281.754C282.819 91.8953 283.676 92.7593 283.676 93.8185V108.047C283.683 109.113 282.819 109.971 281.754 109.971Z" fill="#E527BB"/>
<path d="M212.724 134.359H198.515C197.45 134.359 196.594 133.495 196.594 132.436V118.207C196.594 117.141 197.457 116.284 198.515 116.284H212.731C213.796 116.284 214.652 117.148 214.652 118.207V132.436C214.652 133.495 213.789 134.359 212.724 134.359Z" fill="#A78BEF"/>
<path d="M235.739 134.359H221.523C220.458 134.359 219.602 133.495 219.602 132.436V118.207C219.602 117.141 220.465 116.284 221.523 116.284H235.739C236.804 116.284 237.66 117.148 237.66 118.207V132.436C237.667 133.495 236.804 134.359 235.739 134.359Z" fill="#A78BEF"/>
<path d="M258.747 134.359H244.539C243.473 134.359 242.617 133.495 242.617 132.436V118.207C242.617 117.141 243.48 116.284 244.539 116.284H258.754C259.819 116.284 260.676 117.148 260.676 118.207V132.436C260.676 133.495 259.812 134.359 258.747 134.359Z" fill="#A78BEF"/>
<path d="M281.754 134.359H267.539C266.473 134.359 265.617 133.495 265.617 132.436V118.207C265.617 117.141 266.48 116.284 267.539 116.284H281.754C282.819 116.284 283.676 117.148 283.676 118.207V132.436C283.683 133.495 282.819 134.359 281.754 134.359Z" fill="#A78BEF"/>
<path d="M290.674 197.762H228.262C226.271 197.762 224.656 196.145 224.656 194.152V155.577C224.656 153.584 226.271 151.967 228.262 151.967H290.674C292.665 151.967 294.28 153.584 294.28 155.577V194.152C294.28 196.145 292.665 197.762 290.674 197.762Z" fill="white"/>
<path d="M284.806 167.569H235.343C234.278 167.569 233.422 166.705 233.422 165.646V159.082C233.422 158.016 234.285 157.158 235.343 157.158H284.806C285.871 157.158 286.727 158.022 286.727 159.082V165.646C286.734 166.705 285.871 167.569 284.806 167.569Z" fill="#E527BB"/>
<path d="M234.125 174.391H258.421" stroke="black" stroke-width="1.3" stroke-miterlimit="10" stroke-linecap="round" stroke-linejoin="round"/>
<path d="M234.125 180.313H286.045" stroke="black" stroke-width="1.3" stroke-miterlimit="10" stroke-linecap="round" stroke-linejoin="round"/>
<path d="M234.125 186.843H286.045" stroke="black" stroke-width="1.3" stroke-miterlimit="10" stroke-linecap="round" stroke-linejoin="round"/>
<path d="M324.136 267.729H287.963C285.533 267.729 283.57 265.757 283.57 263.332V231.926C283.57 229.495 285.54 227.53 287.963 227.53H324.136C326.566 227.53 328.529 229.502 328.529 231.926V263.332C328.529 265.757 326.566 267.729 324.136 267.729Z" fill="#E527BB"/>
<path d="M314.951 245.877L313.475 245.619C313.301 244.978 313.043 244.358 312.709 243.779L313.572 242.553C313.886 242.1 313.837 241.487 313.447 241.097L312.563 240.212C312.166 239.828 311.554 239.787 311.108 240.107L309.883 240.971C309.305 240.637 308.685 240.379 308.045 240.205L307.794 238.693C307.704 238.156 307.244 237.759 306.694 237.752H305.42C304.87 237.752 304.397 238.149 304.3 238.693L304.042 240.163C303.401 240.337 302.782 240.595 302.204 240.929L300.979 240.107C300.526 239.794 299.914 239.842 299.524 240.233L298.64 241.118C298.25 241.508 298.194 242.121 298.514 242.574L299.378 243.8C299.043 244.379 298.786 244.999 298.612 245.64L297.143 245.898C296.6 245.995 296.203 246.462 296.203 247.02V248.274C296.203 248.824 296.6 249.298 297.143 249.396L298.612 249.654C298.786 250.295 299.043 250.915 299.378 251.493L298.514 252.719C298.201 253.172 298.25 253.786 298.64 254.176L299.524 255.061C299.914 255.451 300.526 255.507 300.979 255.186L302.204 254.322C302.782 254.657 303.401 254.914 304.042 255.082L304.3 256.552C304.397 257.095 304.87 257.493 305.42 257.493H306.694C307.244 257.493 307.718 257.095 307.815 256.552L308.073 255.082C308.713 254.907 309.333 254.65 309.911 254.322L311.108 255.165C311.561 255.486 312.173 255.43 312.563 255.04L313.447 254.155C313.837 253.765 313.893 253.151 313.572 252.699L312.709 251.458C313.043 250.88 313.301 250.26 313.475 249.619L314.951 249.361C315.494 249.263 315.891 248.789 315.891 248.239V246.985C315.891 246.441 315.494 245.967 314.951 245.877ZM306.047 251.542C303.882 251.542 302.121 249.786 302.121 247.612C302.121 245.445 303.875 243.682 306.047 243.682C308.212 243.682 309.973 245.438 309.973 247.612C309.973 247.619 309.973 247.626 309.973 247.633C309.952 249.8 308.205 251.542 306.047 251.542Z" fill="white"/>
<path d="M449.687 281.536C448.68 281.943 447.536 281.474 447.067 280.549C446.475 279.383 451.768 289.787 419.118 225.58C417.877 223.151 418.849 220.178 421.275 218.943C423.702 217.701 426.672 218.674 427.906 221.102C428.147 221.544 426.962 218.667 450.852 278.845C451.272 279.908 450.755 281.122 449.687 281.536Z" fill="#9FADB7"/>
<path d="M448.373 281.605C447.821 281.446 447.339 281.074 447.07 280.55L423.359 233.914C423.435 233.859 423.518 233.817 423.601 233.776C426.027 232.541 428.998 233.507 430.238 235.935C430.438 236.37 432.795 242.358 448.373 281.605Z" fill="#BFC9D1"/>
<path d="M406.425 294.437C406.859 294.064 407.149 293.526 407.169 292.933C407.224 291.629 406.756 303.295 409.637 231.299C409.754 228.574 407.631 226.277 404.908 226.173C402.186 226.056 399.891 228.181 399.78 230.906C399.773 231.057 399.773 231.216 399.773 231.368L403.013 292.967C403.109 294.699 405.143 295.52 406.425 294.437Z" fill="#9FADB7"/>
<path d="M406.422 294.437C406.856 294.064 407.145 293.526 407.166 292.933L409.254 240.647C409.165 240.633 409.075 240.626 408.979 240.626C406.263 240.516 403.961 242.634 403.844 245.359C403.851 245.842 404.209 252.264 406.422 294.437Z" fill="#BFC9D1"/>
<path d="M361.812 281.612C362.364 281.453 362.846 281.081 363.115 280.556L386.826 233.92L391.065 225.587C392.305 223.158 391.333 220.185 388.907 218.95C386.481 217.708 383.51 218.681 382.277 221.109C382.201 221.247 382.139 221.392 382.077 221.523L359.331 278.852C358.69 280.46 360.193 282.053 361.812 281.612Z" fill="#9FADB7"/>
<path d="M361.82 281.612C362.372 281.453 362.854 281.081 363.123 280.556L386.834 233.921C386.758 233.865 386.675 233.824 386.592 233.783C384.166 232.548 381.195 233.514 379.955 235.942C379.893 236.08 379.831 236.225 379.769 236.37L361.82 281.612Z" fill="#BFC9D1"/>
<path d="M436.018 223.441H436.011C436.018 223.469 436.018 223.51 436.018 223.545C436.018 228.395 422.171 232.334 405.091 232.334C388.011 232.334 374.164 228.395 374.164 223.545C374.164 223.517 374.164 223.476 374.171 223.441H374.164V218.943C374.185 223.8 388.018 227.732 405.091 227.732C422.164 227.732 435.998 223.807 436.018 218.943V223.441Z" fill="#BC0F9C"/>
<path d="M374.172 218.936C374.172 223.793 388.012 227.725 405.092 227.725C422.172 227.725 436.019 223.786 436.019 218.936C436.019 214.08 422.172 210.147 405.092 210.147C388.012 210.154 374.172 214.086 374.172 218.936Z" fill="#E527BB"/>
<path d="M388.499 169.203C387.755 168.072 386.501 167.423 385.294 166.83C385.136 166.754 385.66 167.009 377.65 163.049C377.733 163.16 377.657 163.311 377.74 163.429C377.416 164.243 374.37 171.914 374.197 172.39C367.973 168.872 362.066 164.353 355.884 160.855C355.787 160.614 355.408 160.731 355.305 160.49C354.092 162.511 352.61 163.863 350.562 165.084C350.893 165.346 351.224 165.616 351.534 165.905C351.527 165.967 352.01 166.271 352.83 167.313C357.724 173.604 363.472 179.786 369.876 184.636C371.24 185.657 372.653 186.629 374.246 187.243C378.236 188.761 381.083 187.499 383.806 184.339C386.273 181.49 388.031 178.04 388.899 174.384C389.292 172.639 389.471 170.686 388.499 169.203Z" fill="#FCA987"/>
<path d="M354.586 169.527C359.128 175.088 364.18 180.331 369.881 184.643C371.238 185.664 372.658 186.636 374.244 187.243C378.2 188.754 381.054 187.519 383.811 184.332C386.278 181.483 388.036 178.033 388.897 174.37C389.304 172.632 389.483 170.679 388.504 169.196C387.705 167.982 386.244 167.271 384.851 166.609C383.59 165.981 378.303 163.367 377.649 163.049C377.731 163.153 377.656 163.311 377.738 163.422C377.711 163.491 376.463 166.623 376.339 166.968C379.51 167.92 382.294 170.3 383.301 173.446C384.383 176.806 383.094 180.896 380.047 182.663C374.823 185.691 369.267 181.724 364.897 178.089C361.451 175.239 358.018 172.383 354.586 169.527Z" fill="#F69E7C"/>
<path d="M371.375 170.735C372.512 172.866 373.808 175.177 376.145 176.088C375.331 174.764 374.752 173.301 374.428 171.783C374.353 171.99 374.263 172.19 374.18 172.397C373.236 171.866 372.312 171.307 371.375 170.735Z" fill="#F69E7C"/>
<path d="M355.796 160.917C355.127 162.987 353.852 164.663 351.943 165.94L351.226 165.36C351.157 165.346 351.074 165.34 351.005 165.326C346.325 164.498 340.391 159.821 342.796 158.11C341.873 156.695 343.555 156.206 343.555 156.206C343.1 154.481 345.119 154.529 345.119 154.529L344.382 153.701L340.887 150.459L340.818 150.383C340.094 149.555 340.06 148.044 340.908 148.141C343.217 149.176 346.181 151.57 348.931 154.101C348.883 153.991 348.841 153.881 348.814 153.812C348.434 152.68 348.958 151.342 349.399 151.197C350.868 150.693 354.658 159.075 355.286 160.49C355.403 160.607 355.575 160.752 355.796 160.917Z" fill="#FCA987"/>
<path d="M350.006 156.44L348.8 154.184C348.759 154.108 348.786 154.005 348.869 153.963C348.945 153.922 349.048 153.95 349.09 154.032L350.296 156.288C350.337 156.364 350.31 156.468 350.227 156.509C350.144 156.55 350.048 156.516 350.006 156.44Z" fill="#B55C38"/>
<path d="M345.175 160.373C343.652 158.551 342.763 158.261 342.756 158.261C342.549 158.199 342.646 157.889 342.846 157.951C342.887 157.965 343.817 158.248 345.423 160.166C345.479 160.235 345.472 160.338 345.403 160.393C345.334 160.448 345.23 160.441 345.175 160.373Z" fill="#B55C38"/>
<path d="M346.026 158.482C345.978 158.482 345.936 158.461 345.902 158.427C344.379 156.599 343.489 156.316 343.483 156.316C343.276 156.254 343.372 155.943 343.572 156.005C343.614 156.019 344.544 156.302 346.15 158.22C346.233 158.317 346.157 158.482 346.026 158.482Z" fill="#B55C38"/>
<path d="M347.425 156.723C345.902 154.902 345.013 154.612 345.006 154.612C344.923 154.584 344.875 154.495 344.895 154.412C344.923 154.329 345.013 154.274 345.095 154.301C345.137 154.315 346.067 154.598 347.673 156.516C347.728 156.585 347.721 156.688 347.652 156.744C347.584 156.799 347.48 156.792 347.425 156.723Z" fill="#B55C38"/>
<path d="M360.672 297.879C360.844 298.279 361.223 298.555 361.63 298.707C362.657 299.086 367.006 299.155 371.197 297.734C373.203 297.058 373.485 296.286 373.306 294.381C373.113 292.574 373.037 290.711 372.727 288.918C372.5 287.565 371.452 286.496 370.197 285.993C369.067 285.537 367.826 285.475 366.613 285.427C365.848 285.406 364.987 285.42 364.415 285.93C363.953 286.344 363.78 287.007 363.787 287.634C363.787 288.255 363.953 288.856 364.049 289.476C364.263 290.877 364.125 292.332 363.649 293.698C363.091 295.333 362.057 296.831 360.672 297.879Z" fill="#FCA987"/>
<path d="M360.672 297.879C360.844 298.279 361.223 298.555 361.63 298.707C362.657 299.086 367.006 299.155 371.197 297.734C373.203 297.058 373.485 296.286 373.306 294.381C373.113 292.574 373.037 290.711 372.727 288.918C372.5 287.565 371.452 286.496 370.197 285.993C369.067 285.537 367.826 285.475 366.613 285.427C365.848 285.406 364.987 285.42 364.415 285.93C363.953 286.344 363.78 287.007 363.787 287.634C363.787 288.255 363.953 288.856 364.049 289.476C364.139 290.056 364.173 290.642 364.132 291.229C365.407 290.904 366.73 290.746 368.047 290.753C369.115 290.766 370.37 291.015 370.797 291.988C371.507 293.588 369.295 296.051 366.586 295.672C365.38 295.499 364.263 294.747 363.649 293.698C363.091 295.333 362.057 296.831 360.672 297.879Z" fill="#F69E7C"/>
<path d="M347.745 310.89C349.861 311.553 352.15 311.235 354.341 310.925C360.662 310 366.982 309.09 373.303 308.172C374.371 308.02 375.55 307.8 376.212 306.944C376.846 306.13 376.804 304.992 376.66 303.964C376.48 302.729 376.198 301.501 375.812 300.301C375.488 299.335 375.164 297.99 374.358 297.286C372.896 296.017 371.401 298.038 368.912 298.9C367.21 299.494 365.252 299.597 363.653 298.755C363.171 298.507 362.716 298.169 362.185 298.052C361.317 297.872 360.455 298.314 359.683 298.749C355.513 301.087 348.055 305.523 346.966 306.337C346.367 306.392 345.367 306.579 345.367 306.579L345.533 308.572C345.519 309.766 346.622 310.539 347.745 310.89Z" fill="#BCC7DA"/>
<path d="M347.588 308.91C349.711 309.566 351.992 309.255 354.184 308.938C360.498 308.021 366.825 307.103 373.139 306.185C374.214 306.027 375.393 305.813 376.054 304.957C377.316 303.336 376.089 300.121 374.91 295.458C374.738 294.768 374.538 294.085 374.131 293.485C373.869 293.105 373.49 292.933 373.187 293.119C372.787 293.333 372.746 293.919 372.629 294.313C372.401 295.044 371.822 295.617 371.154 295.989C370.485 296.362 369.741 296.562 368.996 296.755C368.086 296.996 367.094 297.245 366.17 297.224C365.212 297.196 364.213 296.865 363.599 296.134C363.186 295.658 363.055 295.251 361.986 295.603C360.525 296.065 359.298 296.9 357.982 297.652C354.246 299.77 351.137 301.639 347.567 303.867C347.016 304.219 346.45 304.571 346.016 305.068C344.81 306.427 345.258 308.186 347.588 308.91Z" fill="#A78BEF"/>
<path d="M347.59 308.91C349.712 309.566 351.994 309.255 354.186 308.938C360.499 308.021 366.827 307.103 373.14 306.185C374.216 306.027 375.394 305.813 376.056 304.957C377.317 303.336 376.091 300.121 374.912 295.458C374.74 294.768 374.54 294.085 374.133 293.485C373.871 293.105 373.492 292.933 373.189 293.119C374.36 295.803 373.657 299.094 371.817 301.384C369.915 303.736 367.006 305.116 364.028 305.647C361.058 306.172 357.997 305.937 355.006 305.551C354.138 305.44 353.255 305.309 352.463 304.916C351.208 304.274 350.491 303.067 351.022 301.736C349.857 302.439 348.713 303.15 347.562 303.867C347.011 304.219 346.445 304.571 346.011 305.068C344.812 306.427 345.26 308.186 347.59 308.91Z" fill="#A78BEF"/>
<path d="M359.706 299.763C359.74 300.204 360.133 300.542 360.581 300.508C361.022 300.473 361.353 300.073 361.318 299.632C361.284 299.183 360.891 298.852 360.45 298.887C360.002 298.921 359.671 299.314 359.706 299.763Z" fill="#BFC9D1"/>
<path d="M356.293 301.536C356.327 301.977 356.72 302.315 357.168 302.281C357.609 302.246 357.94 301.846 357.905 301.405C357.871 300.956 357.478 300.625 357.037 300.659C356.582 300.694 356.251 301.08 356.293 301.536Z" fill="#BFC9D1"/>
<path d="M356.688 301.432C356.605 301.432 356.529 301.363 356.529 301.28C356.488 300.528 355.978 299.804 355.281 299.521C355.199 299.487 355.157 299.39 355.192 299.307C355.226 299.224 355.323 299.183 355.406 299.218C356.226 299.556 356.805 300.377 356.846 301.26C356.853 301.349 356.784 301.425 356.694 301.432H356.688Z" fill="#BFC9D1"/>
<path d="M360.39 299.811C360.307 299.811 360.231 299.742 360.231 299.659C360.197 298.928 359.666 298.238 358.963 298.024C358.88 297.996 358.832 297.907 358.859 297.824C358.887 297.741 358.977 297.693 359.059 297.72C359.879 297.976 360.507 298.79 360.548 299.652C360.555 299.742 360.486 299.818 360.396 299.825C360.389 299.811 360.39 299.811 360.39 299.811Z" fill="#BFC9D1"/>
<path d="M386.188 299.149C386.339 299.556 386.698 299.852 387.097 300.032C387.497 300.211 387.938 300.26 388.366 300.308C391.15 300.584 393.976 300.349 396.671 299.604C398.704 299.045 399.035 298.293 398.966 296.382C398.877 294.568 398.911 292.712 398.704 290.912C398.553 289.553 397.574 288.428 396.354 287.855C395.258 287.338 394.024 287.2 392.818 287.09C392.053 287.028 391.205 286.986 390.606 287.462C390.123 287.849 389.91 288.497 389.889 289.118C389.827 290.194 390.233 291.022 390.027 292.712C389.937 293.554 389.723 294.368 389.399 295.148C388.745 296.755 387.628 298.183 386.188 299.149Z" fill="#FCA987"/>
<path d="M386.188 299.149C386.339 299.556 386.698 299.852 387.097 300.032C387.497 300.211 387.938 300.26 388.366 300.308C391.15 300.584 393.976 300.349 396.671 299.604C398.704 299.045 399.035 298.293 398.966 296.382C398.877 294.568 398.911 292.712 398.704 290.912C398.553 289.553 397.574 288.428 396.354 287.855C395.258 287.338 394.024 287.2 392.818 287.09C392.053 287.028 391.205 286.986 390.606 287.462C390.123 287.849 389.91 288.497 389.889 289.118C389.827 290.194 390.233 291.022 390.027 292.712C391.316 292.464 392.639 292.381 393.949 292.464C395.01 292.54 396.251 292.857 396.616 293.851C397.223 295.458 394.92 297.81 392.212 297.272C391.019 297.038 389.951 296.217 389.399 295.141C388.745 296.755 387.628 298.183 386.188 299.149Z" fill="#F69E7C"/>
<path d="M372.591 311.36C374.659 312.139 376.954 311.96 379.153 311.767C385.494 311.208 391.842 310.663 398.176 310.111C399.244 310.021 400.437 309.869 401.14 309.055C401.822 308.283 401.843 307.144 401.76 306.116C401.657 304.875 401.443 303.64 401.126 302.426C400.857 301.446 400.609 300.094 399.851 299.342C399.217 298.728 398.424 298.797 397.666 299.149C396.556 299.673 395.536 300.301 394.337 300.639C392.607 301.129 390.656 301.122 389.112 300.197C388.651 299.921 388.216 299.556 387.686 299.418C386.831 299.19 385.949 299.576 385.156 299.97C380.869 302.06 373.197 306.048 372.067 306.799C371.467 306.82 370.461 306.951 370.461 306.951L370.509 308.945C370.44 310.111 371.495 310.946 372.591 311.36Z" fill="#BCC7DA"/>
<path d="M372.552 309.373C374.627 310.145 376.915 309.966 379.114 309.78C385.449 309.228 391.797 308.676 398.138 308.124C399.213 308.027 400.405 307.883 401.109 307.068C402.459 305.53 401.419 302.26 400.509 297.548C400.378 296.851 400.212 296.161 399.847 295.541C399.613 295.147 399.241 294.954 398.924 295.12C398.517 295.313 398.441 295.892 398.303 296.272C398.034 296.989 397.421 297.521 396.739 297.859C396.056 298.197 395.298 298.348 394.547 298.5C393.63 298.693 392.631 298.88 391.707 298.804C390.749 298.721 389.784 298.335 389.212 297.569C388.826 297.072 388.716 296.658 387.633 296.948C386.158 297.327 384.89 298.086 383.532 298.755C379.672 300.659 376.536 302.308 372.814 304.343C372.242 304.661 371.663 304.985 371.201 305.447C369.926 306.751 370.278 308.524 372.552 309.373Z" fill="#A78BEF"/>
<path d="M372.546 309.373C374.621 310.145 376.909 309.966 379.108 309.78C385.442 309.228 391.79 308.676 398.132 308.124C399.207 308.027 400.399 307.883 401.102 307.068C402.453 305.53 401.413 302.26 400.503 297.548C400.372 296.851 400.206 296.161 399.841 295.541C399.607 295.147 399.234 294.954 398.917 295.12C399.931 297.852 399.041 301.087 397.084 303.26C395.058 305.496 392.08 306.696 389.089 307.055C386.104 307.406 383.071 306.999 380.114 306.441C379.26 306.275 378.384 306.096 377.619 305.668C376.406 304.957 375.765 303.716 376.365 302.419C375.165 303.053 373.987 303.688 372.801 304.337C372.229 304.654 371.65 304.978 371.188 305.44C369.92 306.751 370.272 308.524 372.546 309.373Z" fill="#A78BEF"/>
<path d="M385.125 300.97C385.139 301.412 385.504 301.77 385.952 301.763C386.393 301.75 386.745 301.377 386.731 300.936C386.717 300.487 386.352 300.135 385.911 300.142C385.463 300.149 385.118 300.515 385.125 300.97Z" fill="#BFC9D1"/>
<path d="M381.625 302.536C381.639 302.977 382.004 303.336 382.453 303.329C382.894 303.316 383.245 302.943 383.231 302.501C383.218 302.053 382.852 301.701 382.411 301.708C381.963 301.715 381.612 302.088 381.625 302.536Z" fill="#BFC9D1"/>
<path d="M382.03 302.46C381.94 302.46 381.864 302.384 381.871 302.295C381.878 301.543 381.409 300.798 380.734 300.473C380.651 300.432 380.617 300.335 380.658 300.259C380.7 300.177 380.796 300.142 380.872 300.184C381.664 300.563 382.195 301.418 382.195 302.301C382.195 302.391 382.119 302.46 382.03 302.46Z" fill="#BFC9D1"/>
<path d="M385.812 301.06C385.722 301.06 385.646 300.984 385.653 300.894C385.66 300.163 385.17 299.452 384.488 299.19C384.288 299.114 384.399 298.811 384.605 298.887C385.412 299.19 385.991 300.032 385.977 300.894C385.97 300.991 385.901 301.06 385.812 301.06Z" fill="#BFC9D1"/>
<path d="M431.875 216.384C428.911 221.827 408.812 225.89 408.812 225.89L401.478 290.649C401.375 291.567 400.603 292.257 399.679 292.257H389.664C388.672 292.257 387.865 291.463 387.852 290.477L387.838 289.621L386.845 223.324L372.557 223.641L373.908 257.873L375.397 288.925C375.452 290.049 374.556 290.987 373.432 290.987H363.769C362.831 290.987 362.032 290.325 361.846 289.414C359.716 278.88 349.177 219.157 354.188 208.085C357.118 201.607 384.219 197.55 391.801 196.536C393.042 196.364 393.759 196.288 393.759 196.288C395.627 196.336 383.771 196.012 433.205 197.378C433.205 197.378 433.619 200.868 433.646 205.022C433.681 209.05 433.336 213.7 431.875 216.384Z" fill="#231F20"/>
<path d="M431.865 216.384C428.901 221.827 408.802 225.89 408.802 225.89L401.469 290.649C401.365 291.567 400.593 292.257 399.67 292.257H389.655C388.662 292.257 387.856 291.463 387.842 290.477L387.828 289.621C392.425 289.028 396.602 285.579 398.898 281.405C401.669 276.369 402.289 270.463 402.854 264.737C404.15 251.623 404.88 245.773 404.639 240.309C404.391 234.555 403.054 228.877 403.123 223.117C403.13 222.593 403.157 222.02 403.481 221.599C403.881 221.075 404.605 220.937 405.26 220.847C409.498 220.233 413.744 219.619 417.976 218.998C421.678 218.46 425.627 217.805 428.329 215.211C431.376 212.279 431.576 207.974 430.48 204.131C429.777 201.682 430.259 198.999 431.975 197.336L433.195 197.371C433.195 197.371 433.609 200.861 433.636 205.015C433.671 209.05 433.326 213.7 431.865 216.384Z" fill="#18142E"/>
<path d="M433.642 205.021C432.112 204.67 431.574 203.842 430.526 203.359C430.003 203.111 429.431 203.014 428.858 202.917C418.237 201.158 407.395 201.137 396.718 199.758C395.629 199.613 394.499 199.44 393.575 198.847C392.72 198.288 392.135 197.474 391.797 196.536C393.038 196.363 393.754 196.288 393.754 196.288L433.201 197.378C433.201 197.378 433.614 200.868 433.642 205.021Z" fill="#18142E"/>
<path d="M433.328 196.75C433.975 202.221 393.75 198.792 393.75 196.288C393.75 193.783 395.232 189.61 394.398 188.589C393.564 187.568 387.361 166.237 387.361 166.237L384.3 171.059L375.312 166.05C375.312 166.05 383.666 148.741 386.72 146.051C390.566 142.656 406.729 141.222 411.988 140.766C411.988 140.766 412.422 140.739 413.16 140.732H413.167C416.744 140.663 427.455 140.794 431.756 144.63C436.946 149.272 444.466 166.899 444.466 166.899L428.882 170.976C428.882 170.955 432.68 191.272 433.328 196.75Z" fill="#A78BEF"/>
<path d="M413.155 140.718L413.044 141.152C412.776 142.18 410.232 151.252 404.284 151.777C399.549 152.115 397.867 147.168 397.915 142.449C401.83 141.787 406.579 141.221 411.983 140.752C411.983 140.752 412.417 140.732 413.155 140.718Z" fill="#EDF1F5"/>
<path d="M407.608 132.005C407.608 132.005 407.477 138.234 411.654 140.787C411.654 140.787 409.269 149.886 404.161 150.335C399.054 150.79 399.371 142.215 399.371 142.215L399.633 135.385L407.608 132.005Z" fill="#F69E7C"/>
<path d="M386.896 126.824C387.289 135.282 393.362 142.988 399.007 142.719C404.652 142.457 408.58 134.226 408.188 125.768C407.795 117.31 402.894 110.66 397.249 110.929C391.604 111.191 386.503 118.366 386.896 126.824Z" fill="#FCA987"/>
<path d="M387.713 125.727C387.713 125.727 384.012 125.727 381.662 120.035C379.311 114.344 383.764 114.468 383.764 114.468C383.764 114.468 382.433 111.115 383.86 109.88C385.287 108.652 388.106 109.88 388.106 109.88C388.106 109.88 394.813 105.272 401.519 106.665C408.226 108.052 411.238 114.088 411.238 114.088C411.238 114.088 415.084 116.751 412.664 121.394C410.245 126.037 407.123 125.389 407.123 125.389L406.992 128.341H405.524L404.648 120.794C404.648 120.794 399.81 123.809 393.462 120.994C393.462 120.994 388.272 121.042 387.713 125.727Z" fill="#231F20"/>
<path d="M391.216 179.165C391.216 179.165 396.179 183.4 403.906 185.905C411.632 188.402 432.944 194.073 432.944 194.073L431.69 185.332L410.474 174.929L401.066 174.046L390.203 175.853L391.216 179.165Z" fill="#8F77E5"/>
<path d="M386.948 176.854H398.866C399.693 176.854 400.23 175.985 399.865 175.246L389.768 154.75C389.375 153.957 388.568 153.453 387.686 153.453H376.148C375.493 153.453 375.072 154.136 375.355 154.723L385.949 176.226C386.135 176.612 386.521 176.854 386.948 176.854Z" fill="#BC0F9C"/>
<path d="M384.698 176.854H396.616C397.443 176.854 397.981 175.985 397.615 175.246L387.518 154.75C387.125 153.957 386.318 153.453 385.436 153.453H373.898C373.243 153.453 372.822 154.136 373.105 154.723L383.699 176.226C383.892 176.612 384.278 176.854 384.698 176.854Z" fill="#E527BB"/>
<path d="M411.65 178.613C418.736 178.537 427.11 178.696 428.875 178.613C430.639 178.53 431.908 176.847 431.908 176.847L428.875 170.955L423.14 153.453L424.843 171.438C424.843 171.438 405.709 169.293 404.351 168.189C402.993 167.085 404.558 178.696 411.65 178.613Z" fill="#8F77E5"/>
<path d="M445.323 183.221C442.863 187.512 433.502 192.514 406.049 179.006C406.049 179.006 400.942 177.399 398.198 177.73C395.462 178.054 387.315 174.956 385.109 173.501C382.911 172.045 384.599 171.024 384.599 171.024C384.599 171.024 383.538 169.844 383.758 169.368C383.972 168.892 384.517 168.989 384.517 168.989C384.517 168.989 383.29 167.589 383.689 167.071C384.082 166.554 384.613 166.712 384.613 166.712C384.613 166.712 383.469 163.953 384.689 164.008C385.364 164.036 387.487 165.015 389.231 165.878C392.505 167.499 395.255 167.147 395.882 167.202L393.47 162.311C393.47 162.311 395.745 161.311 397.509 162.47C398.943 163.401 407.869 171.5 409.502 171.886C411.143 172.273 430.042 174.467 430.042 174.467C430.022 174.398 428.802 170.721 428.877 170.948L442.587 167.361C442.608 167.437 447.798 178.958 445.323 183.221Z" fill="#FCA987"/>
<path d="M412.062 128.724C412.688 126.676 411.892 124.617 410.283 124.123C408.674 123.63 406.862 124.89 406.236 126.938C405.609 128.985 406.406 131.045 408.015 131.538C409.624 132.031 411.436 130.771 412.062 128.724Z" fill="#FCA987"/>
<path d="M403.495 202.207C403.109 202.393 390.455 208.567 389.042 212.203C387.877 215.204 386.843 223.324 386.843 223.324C386.843 223.324 385.175 213.328 386.843 210.623C389.248 206.705 403.068 202.338 403.495 202.207Z" fill="#18142E"/>
<path d="M394.116 169.824C389.332 169.796 384.57 166.892 384.521 166.864C384.446 166.816 384.425 166.719 384.466 166.643C384.515 166.568 384.611 166.54 384.687 166.588C384.735 166.616 389.429 169.472 394.116 169.5C394.206 169.5 394.274 169.575 394.274 169.665C394.281 169.748 394.206 169.824 394.116 169.824Z" fill="#B55C38"/>
<path d="M393.999 172.08C389.215 172.052 384.452 169.148 384.404 169.12C384.328 169.072 384.308 168.975 384.349 168.899C384.397 168.823 384.494 168.796 384.57 168.844C384.618 168.872 389.312 171.728 393.999 171.755C394.088 171.755 394.157 171.831 394.157 171.921C394.164 172.011 394.088 172.08 393.999 172.08Z" fill="#B55C38"/>
<path d="M393.999 174.198C389.215 174.17 384.452 171.266 384.404 171.238C384.328 171.19 384.308 171.093 384.349 171.017C384.397 170.941 384.494 170.914 384.57 170.962C384.618 170.99 389.312 173.846 393.999 173.873C394.088 173.873 394.157 173.949 394.157 174.039C394.164 174.122 394.088 174.198 393.999 174.198Z" fill="#B55C38"/>
<path d="M366.32 216.094C371.228 218.626 372.565 223.641 372.565 223.641H376.673C373.378 216.618 366.32 216.094 366.32 216.094Z" fill="#18142E"/>
<path d="M375.714 155.84C375.866 156.323 376.383 156.716 376.865 156.716C377.348 156.716 377.617 156.323 377.465 155.84C377.313 155.357 376.796 154.964 376.314 154.964C375.831 154.964 375.563 155.357 375.714 155.84Z" fill="#EDF1F5"/>
<path d="M376.607 157.73C376.704 158.047 377.042 158.303 377.359 158.303C377.676 158.303 377.848 158.047 377.752 157.73C377.655 157.413 377.317 157.157 377 157.157C376.683 157.157 376.504 157.413 376.607 157.73Z" fill="#EDF1F5"/>
<g opacity="0.5">
<path d="M445.77 182.048C444.246 180.069 444.391 178.185 443.888 176.557C443.213 174.37 441.303 172.618 439.077 172.135C436.416 171.555 432.398 172.77 429.551 172.977L428.883 170.962L442.592 167.375C442.592 167.375 446.983 177.137 445.77 182.048Z" fill="#D37652"/>
</g>
<path d="M91.2907 231.962C89.7192 231.582 87.9409 232.548 87.4032 234.08C87.0241 235.149 87.2309 236.363 87.7479 237.377C88.2648 238.391 89.0644 239.226 89.9053 239.992C91.973 241.868 94.3717 243.379 96.9495 244.448C96.5704 244.29 95.6054 244.821 95.2815 245C94.7094 245.318 94.1718 245.752 93.7858 246.284C93.0759 247.256 94.0753 248.622 94.668 249.45C98.4797 254.762 104.201 258.536 106.289 264.979C106.634 266.042 106.868 267.152 106.916 268.263C106.958 269.174 107.033 270.195 107.833 269.298C107.888 269.236 107.95 269.167 108.012 269.091C109.239 267.511 109.894 264.972 110.411 263.075C111.603 258.743 111.865 253.907 110.99 249.064C108.743 236.57 99.0724 224.069 84.0396 218.019C83.3986 217.764 82.8541 217.364 82.1028 217.288C81.7375 217.26 81.3722 217.247 81 217.226C84.1292 222.345 87.5687 227.27 91.2907 231.962Z" fill="#39B039"/>
<path d="M91.2907 231.962C89.7192 231.582 87.9409 232.548 87.4032 234.08C87.0241 235.149 87.2309 236.363 87.7479 237.377C88.2648 238.391 89.0644 239.226 89.9053 239.992C91.973 241.868 94.3717 243.379 96.9495 244.449C96.5704 244.29 95.6054 244.821 95.2815 245C94.7094 245.318 94.1718 245.752 93.7858 246.284C93.0759 247.256 94.0753 248.622 94.668 249.45C98.4797 254.762 104.201 258.536 106.289 264.979C106.634 266.042 106.868 267.152 106.916 268.263C106.958 269.174 107.033 270.195 107.833 269.298C108.95 266.262 108.212 262.592 106.496 259.75C104.428 256.328 101.188 253.803 98.1695 251.182C97.3079 250.437 96.3981 249.554 96.3361 248.422C96.274 247.291 97.1149 246.27 98.1281 245.773C99.1414 245.276 100.306 245.194 101.43 245.118C98.6864 242.931 94.9093 242.248 92.4624 239.702C91.2493 238.44 90.4498 236.653 90.7599 234.928C91.077 233.197 92.745 231.706 94.4819 231.962C89.9466 228.133 86.2866 223.29 83.7984 217.909C82.282 217.212 82.6542 217.316 81 217.219C84.1292 222.345 87.5687 227.271 91.2907 231.962Z" fill="#309D6D"/>
<path d="M107.965 255.576C106.132 251.817 102.872 248.726 99.0257 247.098C98.943 247.063 98.9085 246.967 98.943 246.884C98.9774 246.801 99.0739 246.767 99.1566 246.801C103.072 248.464 106.394 251.61 108.262 255.438C108.303 255.521 108.269 255.618 108.186 255.652C108.103 255.694 108.007 255.659 107.965 255.576Z" fill="#309D6D"/>
<path d="M97.9144 286.78C97.8455 286.724 97.8317 286.621 97.8869 286.552C102.395 280.874 105.765 274.307 107.736 267.642C107.888 267.125 107.909 266.621 107.923 266.09C107.957 265.11 108.053 264.517 108.116 262.675C108.674 245.815 101.154 230.506 89.0574 220.613C88.9885 220.558 88.9816 220.455 89.0368 220.386C89.0919 220.317 89.1953 220.31 89.2642 220.365C102.636 231.3 109.749 248.133 108.288 265.373C108.219 266.173 108.288 266.939 108.053 267.739C106.117 274.3 102.781 280.923 98.1488 286.759C98.0799 286.828 97.9834 286.835 97.9144 286.78Z" fill="#309D6D"/>
<path d="M116.867 280.557C116.785 280.557 116.716 280.495 116.709 280.412C115.372 268.104 115.31 255.625 116.516 243.303C116.523 243.214 116.606 243.158 116.695 243.158C116.785 243.165 116.847 243.248 116.84 243.338C115.634 255.631 115.696 268.098 117.026 280.377C117.033 280.467 116.971 280.543 116.881 280.557C116.881 280.55 116.874 280.557 116.867 280.557Z" fill="#309D6D"/>
<path d="M133.421 270.961V274.169C133.421 274.879 132.849 275.452 132.139 275.452H95.4636C94.7605 275.452 94.1953 274.879 94.1953 274.169V270.961C94.1953 270.25 94.7674 269.677 95.4636 269.677H132.139C132.201 269.677 132.256 269.677 132.305 269.691C132.939 269.774 133.421 270.312 133.421 270.961Z" fill="#8D3826"/>
<path d="M132.304 269.699V272.479C132.304 273.182 131.732 273.762 131.035 273.762C92.5539 273.762 94.2702 273.769 94.1875 273.748V270.968C94.1875 270.257 94.7596 269.685 95.4557 269.685H132.131C132.2 269.678 132.255 269.678 132.304 269.699Z" fill="#E31E23"/>
<path d="M116.858 261.813C118.244 263.255 120.236 264.124 122.248 264.076C124.86 264.007 127.376 262.385 128.514 260.033C130.347 264.51 134.793 267.801 139.604 268.236C139.556 268.001 139.507 267.76 139.452 267.525C138.873 264.924 138.012 262.365 136.578 260.123C135.02 257.673 132.725 255.611 129.961 254.735C126.597 253.665 122.386 254.307 118.754 257.211C118.057 257.77 116.582 259.102 116.21 259.819C115.81 260.55 116.19 261.116 116.858 261.813Z" fill="#39B039"/>
<path d="M116.577 262.068C117.962 263.51 119.954 264.379 121.967 264.331C124.579 264.262 127.095 262.64 128.232 260.288C130.066 264.765 134.511 268.056 139.323 268.491C139.274 268.256 139.226 268.015 139.171 267.78C133.864 266.387 129.287 262.309 127.398 257.135C127.564 259.019 126.344 260.861 124.662 261.716C122.98 262.572 120.94 262.53 119.162 261.902C117.99 261.488 116.915 260.847 115.929 260.081C115.529 260.805 115.908 261.371 116.577 262.068Z" fill="#298B5D"/>
<path d="M115.855 258.674C115.897 259.398 115.786 260.578 116.069 261.24C116.11 261.344 116.145 261.42 116.241 261.489C116.048 261.351 116.324 259.619 116.352 259.35C116.558 257.039 117.124 254.845 118.309 252.824C121.142 248.022 128.062 246.918 132.915 245.663C134.107 245.352 135.368 244.959 136.133 244C136.816 243.138 136.967 241.889 136.513 240.896C136.127 240.054 135.334 239.426 134.438 239.226C136.409 239.495 138.408 239.73 140.366 239.413C143.343 238.937 146.1 237.046 146.321 234.08C146.438 232.617 145.914 231.12 144.722 230.292C148.023 229.671 151.173 228.271 157.735 225.629C158.197 225.442 158.721 225.187 158.824 224.697C158.969 224.049 158.286 223.545 157.687 223.256C150.587 219.875 141.951 221.124 134.996 224.801C125.36 229.892 118.337 239.226 116.345 250.437C116.041 252.244 115.711 255.852 115.855 258.674Z" fill="#309D6D"/>
<path d="M122.439 240.116C122.398 240.033 122.433 239.937 122.515 239.902C125.617 238.405 129.077 237.784 132.51 238.088C132.709 238.109 132.702 238.419 132.482 238.412C129.105 238.109 125.713 238.723 122.66 240.192C122.577 240.227 122.481 240.192 122.439 240.116Z" fill="#298B5D"/>
<path d="M115.846 258.674C115.887 259.398 115.777 260.578 116.059 261.24C116.101 261.344 116.135 261.42 116.232 261.488C116.039 261.351 116.314 259.619 116.342 259.35C116.549 257.039 117.114 254.845 118.3 252.824C121.132 248.022 128.053 246.918 132.905 245.663C134.097 245.352 135.359 244.959 136.124 244C136.806 243.138 136.958 241.889 136.503 240.896C136.117 240.054 135.324 239.426 134.428 239.226C136.4 239.495 138.398 239.73 140.356 239.412C143.334 238.936 146.091 237.046 146.311 234.08C144.174 236.149 141.3 237.391 138.371 238.005C135.083 238.695 131.692 238.653 128.335 238.612C130.458 239.833 132.581 241.054 134.704 242.275C131.396 244.911 126.75 244.731 122.676 245.87C120.512 246.477 118.472 247.498 116.673 248.843C116.549 249.374 116.445 249.912 116.349 250.45C115.88 253.106 115.701 255.852 115.846 258.674Z" fill="#298B5D"/>
<path d="M118.016 249.574C117.933 249.554 117.878 249.464 117.906 249.374C121.828 235.156 133.959 224.621 148.598 222.752C148.681 222.738 148.771 222.8 148.778 222.89C148.791 222.98 148.729 223.062 148.64 223.069C134.151 224.918 122.11 235.349 118.216 249.457C118.188 249.547 118.099 249.595 118.016 249.574Z" fill="#298B5D"/>
<path d="M139.96 233.749C139.058 233.555 138.148 232.521 138.637 231.651C138.83 231.306 139.23 231.086 139.823 230.996C141.622 230.727 143.283 231.513 143.731 232.141C143.958 232.452 144.02 232.838 143.896 233.141C143.745 233.507 143.359 233.755 142.766 233.859C141.897 234.011 140.829 233.942 139.96 233.749ZM139.871 231.32C138.885 231.465 138.672 232.024 138.899 232.534C139.106 232.99 139.63 233.348 140.023 233.438C140.912 233.631 143.255 233.866 143.593 233.031C143.676 232.831 143.627 232.555 143.469 232.341C143.297 232.107 143.035 231.948 142.828 231.838C141.925 231.348 140.87 231.175 139.871 231.32Z" fill="#298B5D"/>
<path d="M137.137 226.236C137.054 226.194 137.027 226.098 137.061 226.022C137.544 225.022 138.254 224.118 139.095 223.4C139.164 223.345 139.267 223.352 139.322 223.421C139.377 223.49 139.37 223.593 139.301 223.649C138.488 224.339 137.813 225.208 137.344 226.167C137.316 226.236 137.22 226.27 137.137 226.236Z" fill="#298B5D"/>
<path d="M132.611 228.574C131.308 232.514 129.261 236.211 126.614 239.399C124.298 242.186 121.803 244.214 118.212 244.345C116.482 244.407 114.711 244 113.367 243.041C112.195 242.213 111.74 240.213 111.154 238.895C109.114 234.252 106.164 230.147 106.646 224.821C106.998 220.937 108.914 217.219 111.871 214.687C110.541 212.797 110.575 210.217 111.299 208.016C112.022 205.815 113.346 203.877 114.497 201.869C117.102 197.309 118.805 192.397 119.618 186.989C126.201 191.073 128.516 199.579 124.946 206.443C125.642 205.015 127.738 204.725 129.02 205.615C130.315 206.519 130.812 208.264 130.584 209.824C130.129 212.983 127.379 215.198 125.918 217.957C127.414 216.853 129.64 217.074 131.115 218.219C132.59 219.358 133.362 221.234 133.493 223.097C133.624 224.959 133.197 226.808 132.611 228.574Z" fill="#39B039"/>
<path d="M125.57 205.063C125.398 205.491 125.322 205.912 124.984 206.25C124.226 206.995 123.344 207.616 122.386 208.071C123.385 206.146 124.171 203.925 124.467 202.587C124.915 200.579 124.943 198.468 124.516 196.454C123.868 193.432 122.262 191.245 120.29 188.968C119.973 188.603 119.642 188.092 119.539 187.575C119.567 187.382 119.601 187.182 119.629 186.989C125.598 190.707 128.251 198.268 125.57 205.063Z" fill="#309D6D"/>
<path d="M128.607 214.066C128.083 214.798 127.339 215.515 126.939 216.315C126.546 217.102 126.16 217.73 125.436 218.261C124.692 218.813 123.823 219.178 122.969 219.537C124.713 216.495 126.753 213.549 127.863 210.196C128.952 206.892 127.504 205.443 125.684 205.588C126.629 204.946 128.042 204.939 129.014 205.615C130.309 206.519 130.806 208.265 130.578 209.824C130.358 211.383 129.531 212.79 128.607 214.066Z" fill="#309D6D"/>
<path d="M132.61 228.575C131.307 232.514 129.26 236.212 126.613 239.399C124.297 242.186 121.802 244.214 118.211 244.345C124.118 239.53 134.829 226.077 130.804 219.558C130.087 218.399 128.888 217.612 127.571 217.281C130.349 216.854 133.209 219.075 133.499 223.09C133.637 224.953 133.195 226.808 132.61 228.575Z" fill="#309D6D"/>
<path d="M116.448 245.918C116.441 245.918 116.441 245.918 116.434 245.918C116.345 245.911 116.283 245.835 116.29 245.746C117.427 232.272 122.651 217.074 121.507 203.877C121.5 203.787 121.562 203.711 121.652 203.704C121.735 203.691 121.817 203.76 121.824 203.849C122.527 212.017 120.811 220.965 119.143 229.623C118.109 235.004 117.041 240.565 116.6 245.78C116.607 245.856 116.531 245.918 116.448 245.918Z" fill="#309D6D"/>
<path d="M118.42 238.799C118.344 238.75 118.323 238.654 118.365 238.578C120.37 235.342 122.831 232.424 125.685 229.913C125.754 229.851 125.857 229.858 125.912 229.927C125.974 229.996 125.967 230.099 125.898 230.154C123.065 232.652 120.625 235.542 118.64 238.75C118.592 238.819 118.496 238.847 118.42 238.799Z" fill="#309D6D"/>
<path d="M114.134 212.19C113.479 211.245 112.996 210.21 112.686 209.106C112.631 208.899 112.941 208.809 112.996 209.016C113.293 210.086 113.768 211.093 114.402 212.004C114.678 212.404 114.947 212.583 115.188 212.542C115.423 212.5 115.574 212.259 115.609 212.052C115.657 211.797 115.602 211.528 115.533 211.245C115.016 209.182 114.161 207.237 112.983 205.464C112.934 205.388 112.955 205.291 113.031 205.243C113.107 205.194 113.203 205.215 113.251 205.291C114.451 207.092 115.319 209.072 115.843 211.176C115.919 211.479 115.988 211.804 115.926 212.121C115.864 212.445 115.629 212.804 115.243 212.873C114.782 212.949 114.402 212.576 114.134 212.19Z" fill="#309D6D"/>
<path d="M121.623 206.947C120.879 203.794 119.624 200.8 117.901 198.061C117.853 197.985 117.873 197.889 117.949 197.84C118.025 197.792 118.122 197.813 118.17 197.889C119.914 200.662 121.182 203.684 121.933 206.871C121.954 206.961 121.899 207.043 121.816 207.064C121.733 207.092 121.644 207.037 121.623 206.947Z" fill="#309D6D"/>
<path d="M133.332 313.043H98.6208C98.4416 313.043 98.2969 312.898 98.2969 312.719C98.2969 312.54 98.4416 312.395 98.6208 312.395H133.325C133.504 312.395 133.649 312.54 133.649 312.719C133.656 312.898 133.511 313.043 133.332 313.043Z" fill="#C86150"/>
<path d="M122.928 312.726H105.683C97.3774 302.378 96.4056 288.677 96.6192 281.102C96.7157 277.639 97.0535 275.452 97.0535 275.452H131.565C131.565 275.445 135.039 297.638 122.928 312.726Z" fill="#E31E23"/>
<path d="M120.282 312.726H105.683C97.3774 302.378 96.4056 288.677 96.6192 281.102H119.193C122.715 281.102 125.603 283.923 125.658 287.449C125.768 293.761 125.01 303.778 120.282 312.726Z" fill="#E31E23"/>
<g opacity="0.3">
<path d="M356.493 103.28H329.178C328.909 103.28 328.695 103.066 328.695 102.797C328.695 102.528 328.909 102.314 329.178 102.314H356.493C356.762 102.314 356.976 102.528 356.976 102.797C356.976 103.059 356.762 103.28 356.493 103.28Z" fill="#9A9AE2"/>
<path d="M362.712 93.7598H335.397C335.128 93.7598 334.914 93.5459 334.914 93.2769C334.914 93.0078 335.128 92.7939 335.397 92.7939H362.712C362.981 92.7939 363.194 93.0078 363.194 93.2769C363.194 93.5459 362.974 93.7598 362.712 93.7598Z" fill="#9A9AE2"/>
<path d="M368.915 84.5432H341.6C341.331 84.5432 341.117 84.3294 341.117 84.0603C341.117 83.7913 341.331 83.5774 341.6 83.5774H368.915C369.184 83.5774 369.398 83.7913 369.398 84.0603C369.398 84.3294 369.184 84.5432 368.915 84.5432Z" fill="#9A9AE2"/>
<path d="M348.615 93.7599C348.346 93.7599 348.133 93.5461 348.133 93.277V84.0671C348.133 83.7981 348.346 83.5842 348.615 83.5842C348.884 83.5842 349.098 83.7981 349.098 84.0671V93.277C349.098 93.5392 348.884 93.7599 348.615 93.7599Z" fill="#9A9AE2"/>
<path d="M339.232 102.97C338.964 102.97 338.75 102.756 338.75 102.487V93.2769C338.75 93.0078 338.964 92.7939 339.232 92.7939C339.501 92.7939 339.715 93.0078 339.715 93.2769V102.487C339.715 102.749 339.501 102.97 339.232 102.97Z" fill="#9A9AE2"/>
<path d="M354.068 103.087C353.8 103.087 353.586 102.873 353.586 102.604V93.3943C353.586 93.1252 353.8 92.9114 354.068 92.9114C354.337 92.9114 354.551 93.1252 354.551 93.3943V102.604C354.551 102.873 354.337 103.087 354.068 103.087Z" fill="#9A9AE2"/>
<path d="M360.787 84.5432C360.518 84.5432 360.305 84.3293 360.305 84.0603V76.0232C360.305 75.7541 360.518 75.5403 360.787 75.5403C361.056 75.5403 361.27 75.7541 361.27 76.0232V84.0672C361.27 84.3293 361.056 84.5432 360.787 84.5432Z" fill="#9A9AE2"/>
</g>
</svg>
