<svg width="543" height="329" viewBox="0 0 543 329" fill="none" xmlns="http://www.w3.org/2000/svg">
<g clip-path="url(#clip0_2068_11448)">
<path opacity="0.2" d="M128.578 325.793L413.421 309.284C488.741 304.922 547.021 241.664 543.879 166.964C541.237 104.191 518.542 37.3242 442.21 8.74895C388.524 -11.3489 318.807 5.10021 274.587 38.5239C263.96 46.5551 254.193 55.7662 242.775 62.6373C216.167 78.6501 192.802 67.5948 165.083 63.3413C106.483 54.3285 47.9939 72.8399 17.7134 126.352C-28.778 208.567 26.059 331.732 128.578 325.793Z" fill="#999999"/>
<path d="M434.879 25.6711C435.192 24.3402 433.318 23.4546 432.168 24.3843C420.518 33.8326 392.52 62.1285 399.498 111.582C408.251 173.624 393.284 196.264 374.656 210.072C374.656 210.072 400.242 203.579 416.339 180.607C455.86 124.201 429.315 49.3579 434.879 25.6711Z" fill="#2C962C"/>
<path d="M425.955 45.9705C424.497 52.8794 423.2 59.8078 422.192 66.7656C421.145 73.7185 420.343 80.6958 419.795 87.6879C419.276 94.6799 418.914 101.677 418.889 108.679C418.831 115.68 419.124 122.673 419.442 129.694C419.716 136.715 420.039 143.781 419.525 150.905C419.021 158.009 417.524 165.178 414.554 171.896C413.811 173.569 413.033 175.238 412.147 176.852C411.296 178.482 410.361 180.077 409.392 181.657C407.435 184.813 405.233 187.856 402.782 190.748C397.859 196.522 391.919 201.645 385.378 205.98C384.688 206.435 383.704 206.322 383.176 205.73C382.657 205.148 382.774 204.316 383.43 203.852L383.435 203.847C384.991 202.755 386.532 201.645 388.01 200.485C388.759 199.913 389.478 199.316 390.212 198.729C390.916 198.117 391.65 197.53 392.33 196.904C395.11 194.433 397.683 191.795 400.017 189.001C404.714 183.448 408.472 177.263 411.32 170.849C412.705 167.624 413.811 164.321 414.613 160.955C415.415 157.589 415.924 154.164 416.203 150.709C416.761 143.8 416.511 136.798 416.291 129.777C416.086 122.756 415.934 115.695 416.12 108.644C416.203 105.117 416.355 101.594 416.585 98.0756C416.688 96.3142 416.829 94.5576 416.966 92.7961C417.123 91.0395 417.294 89.283 417.48 87.5264C418.239 80.5099 419.242 73.513 420.499 66.5552C421.796 59.6023 423.308 52.6837 425.123 45.8237C425.177 45.628 425.402 45.5057 425.627 45.5497C425.852 45.5938 425.994 45.7797 425.955 45.9705Z" fill="white"/>
<path d="M398.077 197.197C399.413 199.345 402.51 199.433 403.992 197.378C412.159 186.051 432.357 151.938 419.792 105.396C409.179 66.0907 407.158 43.7739 406.948 33.577C406.904 31.4192 404.129 30.5776 402.887 32.3391C389.162 51.769 349.641 119.326 398.077 197.197Z" fill="#39B039"/>
<path d="M401.785 196.39C401.844 196.414 401.903 196.429 401.971 196.444C402.51 196.542 403.023 196.189 403.121 195.651C403.234 195.044 414.302 134.201 402.015 78.8857C401.898 78.3524 401.369 78.0197 400.836 78.1371C400.303 78.2545 399.965 78.783 400.088 79.3163C412.281 134.23 401.291 194.687 401.179 195.294C401.091 195.759 401.355 196.219 401.785 196.39Z" fill="white"/>
<g opacity="0.3">
<path d="M197.347 87.003C196.814 86.9296 196.408 86.4648 196.422 85.9118C196.457 84.7082 196.549 83.4849 196.686 82.2813C196.755 81.6941 197.283 81.2733 197.871 81.3418C197.875 81.3418 197.885 81.3418 197.89 81.3467C198.468 81.425 198.874 81.9486 198.805 82.5259C198.673 83.6709 198.59 84.8305 198.556 85.9755C198.536 86.5626 198.047 87.0274 197.455 87.0128C197.42 87.0128 197.386 87.0079 197.347 87.003ZM198.663 77.7944C198.624 77.7895 198.58 77.7798 198.541 77.77C197.968 77.6232 197.626 77.0409 197.773 76.4684C198.076 75.2941 198.428 74.1247 198.83 72.9847C199.025 72.4269 199.632 72.1382 200.19 72.329C200.748 72.5247 201.041 73.1314 200.845 73.6892C200.469 74.7706 200.131 75.8813 199.842 76.9969C199.701 77.5302 199.192 77.8629 198.663 77.7944ZM201.971 69.1045C201.853 69.0899 201.736 69.0507 201.623 68.9969C201.1 68.7278 200.894 68.0819 201.164 67.5584C201.716 66.4819 202.328 65.4202 202.969 64.3975C203.282 63.8984 203.943 63.7517 204.442 64.0648C204.941 64.378 205.088 65.0385 204.775 65.5376C204.163 66.5113 203.586 67.5192 203.057 68.537C202.852 68.948 202.406 69.1633 201.971 69.1045ZM207.143 61.3688C206.947 61.3443 206.756 61.2611 206.6 61.1241C206.149 60.7425 206.096 60.0673 206.472 59.6171C207.255 58.6923 208.082 57.792 208.943 56.9407C209.359 56.5248 210.039 56.5248 210.455 56.9456C210.871 57.3615 210.871 58.0416 210.45 58.4575C209.638 59.2697 208.845 60.1211 208.107 61.0018C207.857 61.2905 207.495 61.4177 207.143 61.3688ZM213.91 54.9835C213.636 54.9443 213.376 54.8024 213.2 54.5676C212.848 54.0979 212.941 53.4275 213.411 53.0703C214.375 52.3462 215.382 51.6514 216.41 51.0055C216.909 50.6924 217.57 50.844 217.883 51.3431C218.196 51.8422 218.044 52.5028 217.545 52.8159C216.571 53.4275 215.612 54.0881 214.693 54.778C214.463 54.9541 214.179 55.0177 213.91 54.9835ZM221.919 50.252C221.567 50.2031 221.244 49.9829 221.088 49.6306C220.848 49.0924 221.088 48.4612 221.626 48.2214C222.727 47.7272 223.867 47.2722 225.007 46.871C225.565 46.6752 226.171 46.9688 226.367 47.5266C226.563 48.0844 226.269 48.6911 225.711 48.8869C224.625 49.2685 223.544 49.6991 222.497 50.1688C222.311 50.252 222.11 50.2765 221.919 50.252ZM261.034 52.9774C260.887 52.9578 260.745 52.9089 260.608 52.8208C259.634 52.2092 258.626 51.6318 257.604 51.1083C257.08 50.8391 256.875 50.1933 257.144 49.6697C257.413 49.1462 258.059 48.9407 258.582 49.2098C259.659 49.7627 260.725 50.3694 261.748 51.0104C262.247 51.3235 262.399 51.9841 262.086 52.4832C261.856 52.855 261.44 53.0312 261.034 52.9774ZM230.771 47.419C230.33 47.3603 229.959 47.0275 229.866 46.5725C229.748 45.9951 230.125 45.4324 230.702 45.315C231.886 45.0752 233.1 44.8893 234.299 44.7523C234.886 44.6887 235.414 45.1095 235.478 45.6967C235.541 46.2838 235.121 46.8122 234.533 46.8759C233.393 47.0031 232.244 47.1841 231.118 47.4092C231.006 47.4288 230.888 47.4337 230.771 47.419ZM252.652 48.9505C252.584 48.9407 252.51 48.926 252.442 48.9015C251.355 48.5248 250.245 48.1872 249.129 47.9034C248.557 47.7566 248.214 47.1743 248.361 46.6018C248.508 46.0294 249.09 45.682 249.663 45.8337C250.837 46.1321 252.006 46.4844 253.151 46.8856C253.709 47.0814 254.003 47.6881 253.807 48.2459C253.631 48.7303 253.146 49.0141 252.652 48.9505ZM240.038 46.6312C239.505 46.5578 239.099 46.093 239.113 45.545C239.128 44.9578 239.622 44.493 240.209 44.5077C241.418 44.5419 242.636 44.63 243.84 44.767C243.85 44.767 243.855 44.767 243.864 44.7719C244.437 44.8502 244.848 45.3737 244.779 45.9511C244.711 46.5382 244.182 46.959 243.595 46.8905C242.455 46.7584 241.291 46.6801 240.146 46.6459C240.111 46.6361 240.072 46.6361 240.038 46.6312Z" fill="#E527BB"/>
<path d="M267.001 57.5231C266.791 57.4937 266.59 57.4057 266.424 57.254C266.018 56.8821 265.597 56.5102 265.176 56.1531C264.726 55.7714 264.667 55.1011 265.049 54.646C265.431 54.1959 266.106 54.1372 266.556 54.5188C267.001 54.8956 267.442 55.2821 267.872 55.6735C268.308 56.0699 268.337 56.75 267.936 57.1806C267.686 57.4546 267.334 57.572 267.001 57.5231Z" fill="#E527BB"/>
</g>
<g opacity="0.3">
<path d="M280.493 87.15C279.984 87.0815 279.583 86.6509 279.568 86.1176C279.553 85.5696 279.529 85.0069 279.495 84.454C279.455 83.8668 279.901 83.3579 280.488 83.3188C281.08 83.2797 281.584 83.7249 281.623 84.3121C281.662 84.8943 281.687 85.4815 281.701 86.0637C281.716 86.6509 281.251 87.1451 280.659 87.1598C280.605 87.1598 280.551 87.1549 280.493 87.15Z" fill="#E527BB"/>
<path d="M233.392 129.415C232.903 129.352 232.418 129.273 231.929 129.19C231.347 129.092 230.955 128.539 231.053 127.957C231.151 127.375 231.704 126.983 232.286 127.081C233.412 127.272 234.547 127.419 235.663 127.512C236.25 127.561 236.685 128.079 236.636 128.667C236.587 129.254 236.069 129.689 235.481 129.64C234.792 129.586 234.087 129.508 233.392 129.415ZM226.449 127.869C226.39 127.859 226.332 127.849 226.273 127.83C225.138 127.473 224.003 127.067 222.902 126.616C222.354 126.391 222.094 125.77 222.315 125.227C222.54 124.679 223.161 124.419 223.709 124.64C224.756 125.065 225.833 125.452 226.914 125.794C227.477 125.971 227.79 126.567 227.614 127.13C227.452 127.634 226.953 127.938 226.449 127.869ZM241.099 129.738C240.599 129.67 240.203 129.259 240.179 128.735C240.149 128.148 240.599 127.644 241.192 127.615C242.317 127.556 243.457 127.448 244.577 127.297C245.16 127.218 245.698 127.624 245.781 128.212C245.859 128.794 245.453 129.337 244.866 129.415C243.687 129.577 242.483 129.689 241.299 129.753C241.231 129.748 241.167 129.743 241.099 129.738ZM218.067 124.19C217.935 124.17 217.798 124.126 217.676 124.053C216.648 123.456 215.631 122.81 214.652 122.125C214.168 121.787 214.05 121.122 214.388 120.637C214.726 120.153 215.391 120.035 215.875 120.373C216.8 121.019 217.769 121.635 218.743 122.203C219.252 122.497 219.428 123.152 219.129 123.661C218.909 124.048 218.483 124.243 218.067 124.19ZM250.126 128.256C249.715 128.202 249.358 127.908 249.24 127.487C249.079 126.92 249.412 126.328 249.979 126.171C251.066 125.868 252.152 125.511 253.214 125.114C253.766 124.909 254.383 125.188 254.588 125.741C254.794 126.293 254.515 126.91 253.962 127.116C252.847 127.531 251.702 127.908 250.557 128.226C250.415 128.265 250.268 128.275 250.126 128.256ZM258.61 124.83C258.283 124.786 257.979 124.591 257.813 124.278C257.534 123.759 257.73 123.113 258.248 122.829C259.247 122.291 260.23 121.709 261.174 121.092C261.669 120.769 262.329 120.911 262.652 121.405C262.975 121.9 262.833 122.56 262.339 122.883C261.341 123.534 260.308 124.145 259.256 124.713C259.056 124.821 258.826 124.86 258.61 124.83ZM266.146 119.634C265.896 119.6 265.661 119.478 265.48 119.277C265.094 118.832 265.143 118.156 265.588 117.77C266.444 117.031 267.276 116.243 268.069 115.436C268.48 115.015 269.155 115.005 269.58 115.416C270.001 115.827 270.011 116.503 269.6 116.928C268.768 117.78 267.892 118.602 266.992 119.385C266.747 119.59 266.439 119.673 266.146 119.634ZM272.369 112.921C272.198 112.897 272.027 112.833 271.88 112.72C271.406 112.368 271.308 111.703 271.655 111.228C272.33 110.318 272.971 109.369 273.563 108.41C273.872 107.906 274.532 107.754 275.031 108.062C275.535 108.371 275.692 109.031 275.379 109.53C274.752 110.543 274.077 111.541 273.373 112.5C273.133 112.823 272.746 112.97 272.369 112.921ZM276.969 104.999C276.871 104.985 276.773 104.96 276.68 104.916C276.142 104.676 275.897 104.05 276.132 103.507C276.587 102.475 277.003 101.408 277.37 100.336C277.561 99.7786 278.172 99.4801 278.725 99.6709C279.283 99.8617 279.582 100.468 279.391 101.026C279.004 102.152 278.564 103.277 278.089 104.363C277.894 104.818 277.429 105.063 276.969 104.999ZM279.714 96.2703C279.694 96.2654 279.67 96.2654 279.65 96.2605C279.073 96.148 278.696 95.5853 278.809 95.0079C278.97 94.1908 279.107 93.359 279.22 92.537C279.259 92.2385 279.298 91.94 279.332 91.6416C279.401 91.0544 279.929 90.6336 280.511 90.7021C281.108 90.756 281.519 91.2991 281.451 91.8813C281.417 92.1945 281.377 92.5076 281.333 92.8208C281.216 93.6868 281.069 94.5627 280.903 95.4189C280.795 95.9767 280.272 96.3437 279.714 96.2703Z" fill="#E527BB"/>
<path d="M210.682 118.729C210.472 118.7 210.266 118.611 210.1 118.455C209.674 118.063 209.254 117.652 208.843 117.237C208.427 116.821 208.427 116.141 208.847 115.725C209.268 115.309 209.943 115.309 210.359 115.73C210.751 116.121 211.152 116.512 211.558 116.884C211.989 117.285 212.018 117.961 211.617 118.391C211.362 118.66 211.015 118.773 210.682 118.729Z" fill="#91B3FA"/>
</g>
<path d="M213.771 106.648C213.884 106.829 214.099 106.922 214.305 106.873L220.235 105.562C222.231 107.578 224.56 109.29 227.168 110.602L227.755 116.644C227.775 116.855 227.927 117.031 228.137 117.08L235.222 118.778C235.427 118.827 235.643 118.739 235.76 118.562L239.024 113.444C241.945 113.459 244.797 112.989 247.489 112.099L252.176 115.959C252.342 116.096 252.572 116.111 252.753 115.999L258.963 112.192C259.144 112.079 259.237 111.864 259.188 111.658L257.876 105.728C259.892 103.732 261.605 101.403 262.916 98.7949L268.959 98.2077C269.169 98.1882 269.345 98.0365 269.394 97.8261L271.092 90.7411C271.141 90.5356 271.053 90.3203 270.877 90.2028L265.759 86.9392C265.774 84.0182 265.304 81.1656 264.413 78.4744L268.274 73.787C268.411 73.6206 268.425 73.3907 268.313 73.2096L264.506 67.0005C264.394 66.8194 264.178 66.7265 263.973 66.7754L258.043 68.0867C256.046 66.0708 253.717 64.3583 251.109 63.0469L250.522 57.0041C250.503 56.7938 250.351 56.6176 250.141 56.5687L243.056 54.8708C242.85 54.8219 242.635 54.91 242.517 55.0861L239.254 60.2041C236.333 60.1895 233.48 60.6592 230.789 61.5497L226.101 57.6892C225.935 57.5522 225.705 57.5375 225.524 57.65L219.315 61.4567C219.134 61.5693 219.041 61.7846 219.09 61.9901L220.401 67.9203C218.385 69.9167 216.673 72.2457 215.361 74.8537L209.319 75.4408C209.108 75.4604 208.932 75.6121 208.883 75.8225L207.185 82.9075C207.136 83.113 207.224 83.3282 207.401 83.4457L212.519 86.7093C212.504 89.6304 212.974 92.483 213.864 95.1741L210.004 99.8615C209.867 100.028 209.852 100.258 209.964 100.439L213.771 106.648Z" fill="#E527BB"/>
<path d="M238.157 94.0779C234.62 93.5984 231.865 90.5795 231.821 86.9097C231.772 82.8731 235.021 79.5458 239.058 79.5018C241.015 79.4773 242.864 80.2162 244.259 81.5862C245.658 82.9513 246.441 84.7813 246.465 86.7385C246.514 90.7752 243.265 94.1024 239.229 94.1464C238.867 94.1513 238.505 94.1268 238.157 94.0779ZM239.909 81.2584C239.635 81.2192 239.356 81.2046 239.077 81.2094C235.98 81.2486 233.494 83.7929 233.529 86.8902C233.568 89.9874 236.112 92.4779 239.209 92.4388C242.306 92.4045 244.792 89.8553 244.758 86.7581C244.738 85.2559 244.141 83.8565 243.065 82.8094C242.194 81.9532 241.093 81.4198 239.909 81.2584Z" fill="white"/>
<path d="M236.882 104.583C236.275 104.5 235.669 104.388 235.062 104.241C234.871 104.197 234.68 104.148 234.494 104.094C233.565 103.84 232.655 103.512 231.784 103.115C231.774 103.11 231.759 103.106 231.749 103.101C231.715 103.086 231.681 103.071 231.647 103.052C231.583 103.022 231.515 102.988 231.451 102.959C231.28 102.876 231.187 102.695 231.211 102.518C231.216 102.474 231.231 102.43 231.25 102.391C231.353 102.181 231.608 102.088 231.818 102.191C232.914 102.714 234.069 103.125 235.263 103.414C241.173 104.833 247.118 102.988 251.194 99.0493C253.464 96.8573 255.152 94.0194 255.945 90.7313C256.082 90.1539 256.19 89.5766 256.268 88.9943C256.796 85.0946 255.97 81.1656 253.885 77.765C251.493 73.8604 247.715 71.1204 243.263 70.0488C234.059 67.8421 224.787 73.5326 222.58 82.7264C222.443 83.294 222.335 83.8665 222.262 84.439C221.924 86.9246 222.14 89.4592 222.893 91.8567C222.913 91.9203 222.918 91.9839 222.908 92.0426C222.888 92.1992 222.776 92.3411 222.614 92.3949C222.389 92.4634 222.149 92.3411 222.081 92.116C221.288 89.601 221.068 86.9393 221.42 84.3264C221.504 83.7246 221.616 83.1228 221.758 82.5307C224.072 72.8769 233.814 66.9026 243.468 69.217C248.146 70.3375 252.104 73.2145 254.619 77.3148C256.806 80.8867 257.672 85.0114 257.119 89.1069C257.036 89.7136 256.924 90.3252 256.777 90.927C255.656 95.6047 252.779 99.5631 248.679 102.078C245.107 104.27 240.978 105.136 236.882 104.583Z" fill="white"/>
<g opacity="0.3">
<path d="M157.474 110.005C157.19 109.966 156.956 109.746 156.912 109.452C156.828 108.899 156.76 108.336 156.706 107.779C156.672 107.417 156.941 107.094 157.303 107.064C157.665 107.03 157.988 107.299 158.017 107.661C158.066 108.194 158.13 108.728 158.213 109.256C158.267 109.618 158.022 109.951 157.66 110.01C157.601 110.01 157.538 110.01 157.474 110.005Z" fill="#91B3FA"/>
<path d="M157.17 104.941C156.837 104.897 156.587 104.608 156.602 104.265C156.632 103.302 156.715 102.328 156.847 101.374C156.876 101.173 156.906 100.973 156.935 100.772C156.994 100.41 157.346 100.18 157.688 100.224C158.05 100.283 158.295 100.615 158.236 100.977C158.207 101.168 158.178 101.364 158.153 101.555C158.031 102.465 157.953 103.395 157.923 104.314C157.913 104.676 157.605 104.965 157.243 104.95C157.214 104.946 157.194 104.941 157.17 104.941ZM158.232 98.1737C158.202 98.1689 158.168 98.164 158.139 98.1542C157.786 98.0563 157.586 97.6893 157.684 97.3371C158.002 96.2117 158.398 95.101 158.848 94.0245C158.99 93.6869 159.376 93.5352 159.714 93.6722C160.052 93.8141 160.208 94.2007 160.066 94.5383C159.631 95.5609 159.259 96.6227 158.956 97.6942C158.863 98.0221 158.55 98.2178 158.232 98.1737ZM160.903 91.8667C160.82 91.8569 160.737 91.8276 160.663 91.7835C160.35 91.6025 160.243 91.1964 160.424 90.8832C161.011 89.8753 161.661 88.8869 162.371 87.9573C162.591 87.6686 163.002 87.6099 163.296 87.83C163.584 88.0502 163.643 88.4661 163.423 88.7548C162.748 89.6404 162.126 90.5799 161.569 91.5438C161.422 91.7835 161.158 91.9059 160.903 91.8667ZM165.043 86.4111C164.906 86.3915 164.778 86.3328 164.671 86.23C164.411 85.9756 164.406 85.5597 164.661 85.2955C165.478 84.4588 166.354 83.6661 167.264 82.9371C167.548 82.712 167.964 82.756 168.189 83.0398C168.419 83.3236 168.37 83.7395 168.086 83.9646C167.22 84.6594 166.383 85.4178 165.605 86.2154C165.449 86.3768 165.238 86.4404 165.043 86.4111ZM170.386 82.1346C170.195 82.1102 170.019 82.0025 169.911 81.8264C169.72 81.5181 169.818 81.112 170.126 80.9212C171.12 80.3096 172.162 79.7518 173.219 79.2674C173.551 79.1157 173.943 79.2625 174.094 79.5903C174.246 79.923 174.099 80.3145 173.772 80.4661C172.759 80.931 171.765 81.4594 170.821 82.0466C170.684 82.1249 170.532 82.1542 170.386 82.1346ZM176.609 79.282C176.365 79.2478 176.15 79.0765 176.071 78.827C175.964 78.4796 176.154 78.1077 176.502 78.0001C177.613 77.6478 178.762 77.3591 179.907 77.1487C180.265 77.0851 180.607 77.32 180.676 77.6772C180.744 78.0343 180.504 78.3817 180.147 78.4454C179.056 78.646 177.965 78.92 176.903 79.2576C176.8 79.2869 176.702 79.2918 176.609 79.282ZM183.337 78.0343C183.029 77.9952 182.784 77.7408 182.77 77.4178C182.75 77.0558 183.024 76.7426 183.391 76.7181C184.551 76.6496 185.735 76.6545 186.899 76.7279C187.261 76.7573 187.54 77.0655 187.516 77.4276C187.491 77.7897 187.178 78.0686 186.816 78.0441C185.701 77.9707 184.575 77.9658 183.469 78.0343C183.42 78.0441 183.376 78.0392 183.337 78.0343ZM193.495 79.3261C193.456 79.3212 193.422 79.3114 193.383 79.3016C192.468 79.008 191.518 78.7585 190.564 78.5628C190.422 78.5334 190.275 78.5041 190.134 78.4796C189.776 78.4111 189.542 78.0686 189.61 77.7114C189.679 77.3542 190.026 77.1096 190.378 77.183C190.53 77.2123 190.682 77.2417 190.833 77.2759C191.831 77.4814 192.825 77.7408 193.784 78.049C194.131 78.1616 194.322 78.5334 194.209 78.8759C194.112 79.1793 193.803 79.3652 193.495 79.3261Z" fill="#A78BEF"/>
</g>
<g opacity="0.3">
<path d="M181.64 133.442C181.283 133.393 181.029 133.066 181.073 132.708C181.117 132.346 181.445 132.087 181.807 132.136C182.893 132.268 183.999 132.336 185.095 132.336C185.457 132.341 185.755 132.63 185.755 132.997C185.755 133.364 185.462 133.658 185.095 133.658C183.95 133.658 182.79 133.584 181.65 133.447C181.645 133.442 181.645 133.442 181.64 133.442ZM178.323 132.831C178.298 132.826 178.274 132.821 178.254 132.816C177.139 132.542 176.028 132.195 174.957 131.788C174.614 131.661 174.443 131.28 174.575 130.937C174.702 130.595 175.084 130.428 175.426 130.551C176.449 130.937 177.511 131.265 178.572 131.529C178.925 131.617 179.14 131.974 179.057 132.327C178.969 132.669 178.651 132.875 178.323 132.831ZM188.373 133.442C188.084 133.403 187.845 133.173 187.805 132.87C187.761 132.508 188.016 132.18 188.378 132.136C189.469 131.999 190.555 131.798 191.617 131.534C191.969 131.446 192.327 131.661 192.415 132.014C192.503 132.366 192.287 132.723 191.935 132.811C190.824 133.09 189.679 133.3 188.539 133.437C188.486 133.452 188.432 133.452 188.373 133.442ZM172.021 130.443C171.947 130.433 171.874 130.409 171.801 130.374C170.783 129.841 169.79 129.234 168.845 128.584C168.547 128.378 168.473 127.967 168.679 127.664C168.884 127.365 169.295 127.292 169.599 127.497C170.499 128.124 171.448 128.696 172.417 129.205C172.74 129.376 172.862 129.773 172.696 130.096C172.564 130.35 172.29 130.482 172.021 130.443ZM194.91 131.818C194.68 131.788 194.47 131.632 194.382 131.402C194.249 131.059 194.421 130.678 194.763 130.551C195.786 130.159 196.794 129.704 197.763 129.19C198.086 129.019 198.482 129.141 198.653 129.464C198.824 129.787 198.702 130.184 198.379 130.355C197.366 130.893 196.305 131.373 195.233 131.784C195.125 131.818 195.013 131.833 194.91 131.818ZM200.865 128.667C200.689 128.642 200.522 128.549 200.41 128.388C200.204 128.089 200.278 127.678 200.576 127.468C201.476 126.842 202.347 126.157 203.164 125.428C203.438 125.183 203.854 125.207 204.094 125.481C204.339 125.755 204.314 126.171 204.04 126.411C203.184 127.174 202.274 127.894 201.33 128.549C201.188 128.657 201.021 128.691 200.865 128.667ZM205.89 124.185C205.768 124.17 205.645 124.116 205.542 124.028C205.268 123.789 205.244 123.373 205.484 123.099C206.208 122.277 206.888 121.401 207.505 120.5C207.71 120.202 208.121 120.124 208.419 120.329C208.718 120.535 208.796 120.946 208.591 121.244C207.945 122.189 207.231 123.108 206.467 123.97C206.325 124.141 206.1 124.214 205.89 124.185Z" fill="#91B3FA"/>
<path d="M166.461 126.587C166.334 126.573 166.212 126.519 166.109 126.426C165.688 126.049 165.277 125.658 164.886 125.266C164.631 125.007 164.631 124.591 164.89 124.332C165.15 124.077 165.566 124.077 165.825 124.336C166.197 124.713 166.593 125.085 166.994 125.442C167.268 125.687 167.288 126.103 167.048 126.372C166.892 126.543 166.671 126.617 166.461 126.587Z" fill="#91B3FA"/>
</g>
<path d="M168.145 118.215C168.218 118.337 168.365 118.396 168.502 118.367L172.47 117.486C173.806 118.836 175.367 119.981 177.109 120.857L177.5 124.899C177.515 125.041 177.618 125.158 177.755 125.192L182.496 126.328C182.633 126.362 182.78 126.303 182.853 126.181L185.035 122.756C186.988 122.765 188.901 122.452 190.701 121.855L193.838 124.439C193.945 124.527 194.102 124.542 194.224 124.463L198.378 121.914C198.501 121.841 198.559 121.694 198.53 121.557L197.649 117.589C199 116.253 200.145 114.692 201.021 112.95L205.062 112.559C205.204 112.544 205.321 112.441 205.356 112.304L206.491 107.563C206.525 107.426 206.466 107.279 206.344 107.206L202.919 105.024C202.929 103.071 202.616 101.158 202.019 99.3576L204.602 96.2212C204.69 96.1135 204.705 95.957 204.632 95.8346L202.082 91.6805C202.009 91.5582 201.862 91.4995 201.725 91.5288L197.757 92.4096C196.421 91.0591 194.86 89.9142 193.118 89.0383L192.727 84.9967C192.712 84.8549 192.61 84.7374 192.473 84.7032L187.731 83.568C187.594 83.5338 187.447 83.5925 187.374 83.7148L185.192 87.1399C183.24 87.1301 181.326 87.4432 179.526 88.0402L176.389 85.4567C176.282 85.3637 176.125 85.3539 176.003 85.4273L171.849 87.9766C171.726 88.0499 171.668 88.1967 171.697 88.3337L172.578 92.3019C171.227 93.6377 170.082 95.1986 169.207 96.9405L165.165 97.3319C165.023 97.3466 164.906 97.4493 164.871 97.5863L163.736 102.328C163.702 102.465 163.761 102.611 163.883 102.685L167.308 104.867C167.298 106.819 167.611 108.732 168.208 110.533L165.625 113.669C165.532 113.777 165.522 113.934 165.596 114.056L168.145 118.215Z" fill="#A78BEF"/>
<path d="M184.444 109.892C183.392 109.75 182.413 109.276 181.635 108.517C180.681 107.588 180.148 106.34 180.133 105.009C180.099 102.259 182.311 99.9938 185.06 99.9595C187.815 99.9302 190.076 102.137 190.11 104.887C190.125 106.218 189.621 107.48 188.691 108.429C187.761 109.383 186.514 109.917 185.183 109.931C184.933 109.941 184.684 109.926 184.444 109.892ZM185.618 101.315C185.442 101.29 185.261 101.281 185.08 101.281C183.059 101.305 181.43 102.969 181.454 104.994C181.464 105.973 181.86 106.893 182.56 107.578C183.26 108.263 184.189 108.635 185.168 108.62C186.147 108.61 187.067 108.214 187.752 107.514C188.437 106.815 188.808 105.885 188.794 104.906C188.769 103.067 187.389 101.555 185.618 101.315Z" fill="white"/>
<path d="M183.551 117.202C183.135 117.149 182.724 117.07 182.309 116.972C181.487 116.777 180.684 116.493 179.921 116.136C179.887 116.121 179.852 116.102 179.818 116.087C179.554 115.96 179.412 115.681 179.451 115.407C179.461 115.338 179.48 115.275 179.51 115.211C179.666 114.883 180.063 114.746 180.391 114.903C181.1 115.245 181.849 115.509 182.617 115.695C182.661 115.705 182.7 115.715 182.744 115.725C184.569 116.146 186.424 116.092 188.18 115.602C189.134 115.338 190.054 114.942 190.925 114.418C190.93 114.413 190.94 114.409 190.945 114.404C190.964 114.389 190.989 114.379 191.008 114.365C193.538 112.813 195.309 110.372 196.004 107.485C196.092 107.113 196.165 106.736 196.214 106.36C196.557 103.835 196.024 101.291 194.673 99.0887C193.122 96.5591 190.68 94.7878 187.798 94.093C184.917 93.4031 181.932 93.8728 179.402 95.4239C176.872 96.975 175.101 99.4166 174.406 102.303C174.318 102.67 174.25 103.042 174.201 103.414C173.986 105.024 174.123 106.663 174.607 108.219C174.636 108.317 174.646 108.41 174.632 108.503C174.597 108.747 174.426 108.963 174.176 109.046C173.829 109.154 173.457 108.963 173.35 108.615C172.802 106.878 172.65 105.043 172.895 103.243C172.948 102.827 173.027 102.411 173.124 102C173.898 98.7707 175.884 96.0404 178.712 94.3034C181.54 92.5713 184.877 92.038 188.102 92.816C191.331 93.5891 194.061 95.5756 195.794 98.4037C197.305 100.865 197.902 103.713 197.521 106.536C197.462 106.957 197.384 107.373 197.286 107.793C195.794 114.032 189.79 118.044 183.551 117.202Z" fill="white"/>
<path d="M149.525 279.756C149.525 282.437 151.722 284.634 154.409 284.634H418.374C421.06 284.634 423.257 282.442 423.257 279.756L425.454 128.065C425.454 125.383 422.293 120.148 416.505 120.539L158.533 113.865C155.167 113.777 151.908 115.074 149.521 117.452C147.133 119.83 145.831 123.079 145.91 126.445L149.525 279.756Z" fill="#E527BB"/>
<path d="M154.346 275.078C154.346 277.618 156.426 279.697 158.965 279.697H412.004C414.544 279.697 416.623 277.618 416.623 275.078L418.698 137.371C418.453 129.082 411.187 126.108 406.784 126.284L159.538 119.649C157.169 119.585 154.884 120.495 153.206 122.169C151.528 123.842 150.608 126.127 150.667 128.495L154.346 275.078Z" fill="#DAA7EE"/>
<path d="M413.894 209.655C413.889 209.655 413.889 209.655 413.884 209.655C413.512 209.65 413.214 209.341 413.219 208.97L413.38 197.804C413.385 197.432 413.689 197.138 414.056 197.138C414.06 197.138 414.06 197.138 414.065 197.138C414.437 197.143 414.736 197.452 414.731 197.823L414.569 208.989C414.564 209.361 414.266 209.655 413.894 209.655Z" fill="url(#paint0_linear_2068_11448)"/>
<path d="M414.293 182.288C414.288 182.288 414.288 182.288 414.283 182.288C413.912 182.284 413.613 181.975 413.618 181.603L414.244 138.829C414.234 136.29 413.461 134.259 411.949 132.816C409.131 130.115 404.659 130.252 404.468 130.262L325.442 128.143C325.07 128.133 324.772 127.82 324.781 127.448C324.791 127.076 325.08 126.758 325.476 126.793L404.453 128.911C404.943 128.882 409.708 128.799 412.879 131.837C414.665 133.545 415.575 135.903 415.59 138.839L414.964 181.628C414.964 181.995 414.665 182.288 414.293 182.288Z" fill="url(#paint1_linear_2068_11448)"/>
<path d="M134.38 297.224H434.211C434.543 297.224 434.817 296.95 434.817 296.617V284.507C434.817 284.174 434.543 283.9 434.211 283.9H134.38C134.048 283.9 133.774 284.174 133.774 284.507V296.617C133.769 296.95 134.043 297.224 134.38 297.224Z" fill="#E527BB"/>
<path opacity="0.44" d="M400.552 175.609H166.072C162.358 175.609 159.344 172.713 159.344 169.141V137.948C159.344 134.337 162.417 131.431 166.169 131.48L400.655 134.807C404.329 134.861 407.28 137.738 407.28 141.276V169.141C407.28 172.713 404.27 175.609 400.552 175.609Z" fill="white"/>
<path opacity="0.44" d="M405.463 241.244H163.712C162.714 241.244 161.906 240.436 161.906 239.438V184.094C161.906 183.096 162.714 182.288 163.712 182.288H405.463C406.461 182.288 407.268 183.096 407.268 184.094V239.438C407.268 240.436 406.461 241.244 405.463 241.244Z" fill="white"/>
<path opacity="0.44" d="M406.368 273.928H162.807C162.307 273.928 161.906 273.527 161.906 273.028V249.498C161.906 248.999 162.307 248.598 162.807 248.598H406.368C406.867 248.598 407.268 248.999 407.268 249.498V273.028C407.268 273.527 406.867 273.928 406.368 273.928Z" fill="white"/>
<path d="M370.824 139.534C370.457 133.863 367.032 128.833 361.894 126.396L295.364 94.7973C291.103 92.7717 286.161 92.7717 281.899 94.7973L215.37 126.396C210.232 128.833 206.807 133.863 206.44 139.534C200.201 235.998 262.053 271.149 282.33 280.025C286.352 281.786 290.922 281.786 294.939 280.025C315.21 271.144 377.062 235.998 370.824 139.534Z" fill="#E527BB"/>
<path opacity="0.67" d="M268.504 108.762C267.907 108.762 267.334 108.424 267.06 107.852C266.684 107.054 267.021 106.105 267.819 105.728L283.54 98.2615C284.337 97.8847 285.287 98.2223 285.663 99.0199C286.04 99.8174 285.702 100.767 284.905 101.143L269.184 108.61C268.964 108.708 268.729 108.762 268.504 108.762Z" fill="white"/>
<path opacity="0.67" d="M211.52 160.828C210.663 160.828 209.954 160.148 209.925 159.286C209.714 152.994 209.822 146.428 210.252 139.783C210.531 135.507 213.115 131.705 217 129.86L261.756 108.605C262.553 108.228 263.502 108.566 263.879 109.364C264.256 110.161 263.918 111.11 263.121 111.487L218.365 132.742C215.522 134.093 213.633 136.867 213.433 139.989C213.007 146.535 212.899 152.989 213.11 159.179C213.139 160.06 212.449 160.798 211.569 160.828C211.554 160.828 211.539 160.828 211.52 160.828Z" fill="white"/>
<path d="M354.731 143.296C354.658 141.858 353.802 140.576 352.5 139.955L290.306 110.416C289.244 109.912 288.011 109.912 286.949 110.416L224.755 139.955C223.453 140.571 222.597 141.858 222.524 143.296C220.684 179.279 228.997 209.307 247.248 232.578C261.163 250.32 277.437 259.827 286.974 264.265C288.026 264.754 289.234 264.754 290.286 264.265C299.823 259.827 316.101 250.32 330.012 232.578C348.258 209.307 356.566 179.284 354.731 143.296Z" fill="#A78BEF"/>
<path d="M270.238 181.96H264.039V157.256C264.039 147.553 271.3 139.353 280.934 138.183L293.607 136.642C299.063 135.976 304.553 137.689 308.663 141.334C312.778 144.979 315.136 150.22 315.136 155.715V177.278H308.942V155.715C308.942 151.991 307.342 148.444 304.558 145.973C301.774 143.507 298.055 142.347 294.361 142.797L281.688 144.338C275.166 145.131 270.243 150.685 270.243 157.256L270.238 181.96Z" fill="#E527BB"/>
<path d="M262.205 176.412L316.541 173.403C318.748 173.28 320.602 175.037 320.602 177.249V220.297C320.602 222.425 318.88 224.148 316.751 224.148H263.721C261.642 224.148 259.939 222.499 259.871 220.424L258.564 180.39C258.501 178.291 260.115 176.529 262.205 176.412Z" fill="#E527BB"/>
<path d="M298.445 211.812L295.157 202.359C294.761 201.224 295.03 199.952 295.877 199.096C297.56 197.388 298.568 195.005 298.445 192.392C298.235 187.778 294.467 184.04 289.853 183.864C284.75 183.668 280.547 187.749 280.547 192.813C280.547 195.622 281.839 198.127 283.864 199.766C284.911 200.617 285.347 202.017 284.902 203.294L281.936 211.817C281.217 213.892 282.754 216.055 284.951 216.055H295.431C297.628 216.055 299.169 213.887 298.445 211.812Z" fill="white"/>
<path d="M331.271 147.896C331.315 147.881 354.4 107.456 357.517 103.649C358.04 103.008 358.853 102.685 359.675 102.783L366.119 103.551L373.688 119.928L361.079 112.583C362.327 121.215 346.126 134.039 340.572 138.717C340.01 139.191 339.961 140.043 340.47 140.576L342.686 142.9C339.046 146.589 334.843 148.963 330.102 150.059L331.271 147.896Z" fill="url(#paint2_linear_2068_11448)"/>
<path d="M341.403 141.643C341.403 141.643 342.817 142.098 343.296 143.36C343.526 143.962 343.277 144.647 342.753 145.024C340.424 146.692 332.732 152.084 329.185 153.141C328.896 153.229 328.617 152.965 328.681 152.666C328.862 151.844 329.454 150.195 331.348 147.788L331.176 148.131C330.961 148.566 331.436 149.021 331.857 148.781C334.239 147.441 339.074 144.51 341.403 141.643Z" fill="#E527BB"/>
<path d="M340.269 157.819C340.308 157.794 343.772 149.452 343.812 149.422C346.987 130.09 354.733 113.533 357.018 109.173C357.404 108.439 358.133 107.955 358.955 107.886L365.419 107.333L376.144 121.836L362.307 117.197C365.277 125.398 352.007 141.232 347.511 146.942C347.056 147.519 347.183 148.366 347.79 148.781L350.432 150.607C347.613 154.956 343.978 158.132 339.555 160.162L340.269 157.819Z" fill="url(#paint3_linear_2068_11448)"/>
<path d="M348.922 149.643C348.922 149.643 350.399 149.804 351.123 150.939C351.471 151.482 351.368 152.202 350.928 152.676C348.985 154.785 342.546 161.621 339.283 163.372C339.013 163.514 338.69 163.313 338.695 163.01C338.705 162.164 338.95 160.436 340.32 157.691L340.222 158.063C340.1 158.533 340.657 158.88 341.02 158.562C343.079 156.772 347.219 152.921 348.922 149.643Z" fill="#E527BB"/>
<path d="M395.681 104.28C395.681 104.28 401.528 112.98 402.008 116.948C402.487 120.916 400.388 122.286 394.267 122.795C376.05 124.302 367.072 118.841 367.072 118.841C365.824 110.895 364.939 108.874 354.531 104.554C354.531 104.554 367.693 105.601 370.345 104.569C372.997 103.541 395.681 104.28 395.681 104.28Z" fill="black"/>
<path d="M367.682 58.6728C367.682 58.6728 364.59 55.4825 369.062 52.9186C373.534 50.3547 376.979 53.589 380.986 58.0465C384.264 61.6966 390.385 61.9461 394.804 63.2085C400.367 64.7987 404.399 69.0556 405.035 75.025C405.559 79.9082 401.375 83.3332 397.211 84.8403C384.465 89.4592 381.456 91.0054 377.453 83.3822C373.451 75.759 367.682 58.6728 367.682 58.6728Z" fill="black"/>
<path d="M400.404 80.6226C401.182 80.0795 401.891 79.3651 402.322 78.6654C402.968 77.6183 403.168 75.7149 403.139 74.2813C403.002 67.2795 396.284 64.7596 391.244 63.4728C389.742 63.0911 388.152 62.7437 386.527 62.4452C386.488 62.4355 386.444 62.4648 386.439 62.5089C386.43 62.548 386.459 62.592 386.503 62.5969C388.127 62.8954 389.708 63.2379 391.21 63.6196C396.201 64.8917 402.85 67.3822 402.987 74.2813C403.017 75.6905 402.821 77.5645 402.195 78.5822C401.617 79.5217 400.507 80.5002 399.44 81.014C399.401 81.0336 399.386 81.0776 399.406 81.1168C399.425 81.1559 399.469 81.1706 399.508 81.151C399.807 81.0091 400.11 80.8281 400.404 80.6226Z" fill="black"/>
<path d="M379.866 103.13C379.866 103.13 373.055 96.6469 369.703 92.3509C367.893 90.0267 367.32 86.9735 368.162 84.1503C369.693 78.9931 372.414 73.6549 372.658 72.8231C373.04 71.5509 380.673 71.5999 380.673 71.5999C380.673 71.5999 395.699 81.3515 401.605 97.875L394.975 99.9399C394.975 99.9399 391.051 93.3588 387.176 89.1705C387.176 89.1705 393.884 98.0316 394.119 101.662L379.866 103.13Z" fill="#A78BEF"/>
<path d="M366.883 105.689L372.001 100.121L377.912 101.711C377.912 101.711 384.801 102.778 388.745 101.711C392.688 100.645 392.688 100.645 392.688 100.645L401.598 97.8704L402.998 101.824C403.355 102.827 402.998 103.943 402.127 104.559C401.354 105.107 400.453 105.709 399.876 105.963C398.702 106.477 372.842 106.125 372.842 106.125L366.883 105.689Z" fill="url(#paint4_linear_2068_11448)"/>
<path d="M375.421 62.4159L380.554 71.9621C380.216 74.0465 374.966 74.1052 374.158 72.8624C374.075 72.7351 374.026 72.5884 373.997 72.4416L370.929 66.066C370.797 65.4446 372.5 63.3505 373.062 63.052L375.103 61.9657C375.886 61.5401 372.607 61.5058 375.421 62.4159Z" fill="url(#paint5_linear_2068_11448)"/>
<path d="M365.033 60.1749C365.033 60.1749 364.456 63.3993 366.99 67.4996C369.525 71.5999 372.05 71.414 373.332 69.951C374.614 68.488 376.15 66.0562 375.45 61.9657C374.751 57.8752 365.909 56.0648 365.033 60.1749Z" fill="url(#paint6_linear_2068_11448)"/>
<path d="M365.403 55.4335C365.403 55.4335 363.28 58.6286 363.715 59.9888C364.151 61.349 368.784 58.8145 369.9 58.1099L380.097 65.9533C380.097 65.9533 374.636 55.4237 371.906 53.6818C369.176 51.9399 365.403 55.4335 365.403 55.4335Z" fill="black"/>
<path d="M364.238 60.0084C364.258 59.9888 364.268 59.9595 364.258 59.9301C364.238 59.8763 363.813 58.5454 365.109 57.3466C365.139 57.3173 365.144 57.2683 365.114 57.239C365.085 57.2096 365.036 57.2047 365.007 57.2341C363.632 58.5014 364.111 59.9643 364.116 59.979C364.131 60.0182 364.175 60.0377 364.214 60.028C364.224 60.0182 364.229 60.0133 364.238 60.0084Z" fill="black"/>
<path d="M374.026 62.2642C374.026 62.2642 371.903 59.5045 373.836 58.9321C375.768 58.3596 375.7 61.633 375.573 62.8513L374.026 62.2642Z" fill="url(#paint7_linear_2068_11448)"/>
<path d="M383.825 107.891C383.806 107.891 383.791 107.891 383.772 107.891L360.232 107.867C359.649 107.867 359.18 107.392 359.18 106.81C359.18 106.227 359.654 105.748 360.237 105.758L383.777 105.782C384.359 105.782 384.829 106.257 384.829 106.839C384.829 107.407 384.383 107.867 383.825 107.891Z" fill="#E527BB"/>
<path d="M339.077 86.5188H358.678C360.126 86.5188 361.443 87.3555 362.059 88.6619L371.121 107.877H346.759C345.829 107.877 344.988 107.309 344.645 106.438L337.619 88.657C337.213 87.6344 337.971 86.5188 339.077 86.5188Z" fill="#E527BB"/>
<path d="M352.889 96.3733C353.314 97.6944 353.001 98.9763 352.189 99.2356C351.377 99.495 350.374 98.6387 349.948 97.3176C349.522 95.9965 349.835 94.7146 350.648 94.4552C351.46 94.1959 352.463 95.0522 352.889 96.3733Z" fill="white"/>
<path d="M154.154 318.792C151.101 319.056 145.797 319.487 141.618 319.668C139.108 319.78 137.66 319.531 136.828 319.198C136.828 319.291 136.833 319.379 136.838 319.462C136.857 319.903 137.215 320.255 137.66 320.279C145.557 320.72 151.84 320.431 154.076 320.294C154.536 320.265 154.815 319.766 154.575 319.369C154.453 319.179 154.311 318.983 154.154 318.792Z" fill="#5254CF"/>
<path d="M141.611 319.668C145.79 319.482 151.094 319.056 154.147 318.792C151.143 315.108 141.611 312.627 141.611 312.627H138.92C137.071 315.299 136.802 317.838 136.821 319.203C137.653 319.536 139.096 319.78 141.611 319.668Z" fill="#A78BEF"/>
<path d="M138.477 308.228L138.731 313.214C138.76 313.752 139.162 314.207 139.705 314.286C140.243 314.364 140.962 314.374 141.725 314.119C142.195 313.963 142.543 313.566 142.631 313.082L143.502 308.228H138.477Z" fill="url(#paint8_linear_2068_11448)"/>
<path d="M107.227 324.546C105.901 324.306 105.304 323.416 105.05 322.467C105.05 322.476 105.045 322.481 105.045 322.491C104.849 323.494 105.3 324.531 106.205 325.026C107.296 325.623 108.49 325.725 109.419 325.676C110.413 325.623 111.328 325.089 111.827 324.243L111.837 324.228C110.838 324.869 109.434 324.942 107.227 324.546Z" fill="#5254CF"/>
<path d="M113.468 309.765H111.246C107.865 309.676 105.742 318.895 105.047 322.467C105.296 323.416 105.898 324.306 107.224 324.546C109.436 324.942 110.835 324.869 111.833 324.233C113.658 321.126 114.569 316.576 115.004 313.919C115.493 310.895 113.468 309.765 113.468 309.765Z" fill="#A78BEF"/>
<path d="M111.539 305.136L110.306 310.039C110.154 310.641 110.443 311.262 111.001 311.546C111.69 311.898 112.659 312.27 113.555 312.162C113.975 312.113 114.323 311.815 114.46 311.419L116.27 306.261L111.539 305.136Z" fill="url(#paint9_linear_2068_11448)"/>
<path d="M154.908 240.554C154.908 240.554 143.889 309.422 144.07 309.804C144.07 309.804 141.027 311.189 137.71 309.98C137.71 309.98 138.708 273.165 141.042 259.049C141.042 259.049 122.238 291.954 116.269 308.351C116.269 308.351 113.152 307.979 110.578 306.281C110.578 306.281 130.825 247.052 136.227 239.164L154.908 240.554Z" fill="black"/>
<path d="M141.485 258.804C141.631 258.804 141.778 258.731 141.861 258.599L145.879 252.184L148.721 251.612C148.961 251.563 149.118 251.328 149.069 251.088C149.02 250.848 148.79 250.697 148.545 250.741L145.517 251.352C145.399 251.377 145.291 251.45 145.228 251.553L141.108 258.129C140.976 258.335 141.039 258.609 141.25 258.741C141.323 258.785 141.402 258.804 141.485 258.804Z" fill="black"/>
<path d="M205.467 173.114C205.467 173.114 198.034 174.753 193.508 176.842C192.608 177.258 191.894 177.983 191.487 178.878C190.137 181.838 186.09 189.271 178.242 192.813C179.372 194.315 181.193 197.432 181.985 202.677C186.697 199.169 190.768 193.312 192.72 183.702C192.72 183.702 194.208 184.51 196.062 183.609C197.041 183.135 198.176 182.46 199.023 181.926C199.869 181.398 200.5 180.576 200.745 179.612C201.068 178.345 200.877 177.229 200.877 176.03L204.698 174.846C204.698 174.851 205.848 174.416 205.467 173.114Z" fill="url(#paint10_linear_2068_11448)"/>
<path d="M181.982 202.677C181.189 197.432 179.369 194.315 178.239 192.813C173.365 195.015 167.024 195.719 158.951 192.921C158.207 192.661 157.429 192.51 156.641 192.466C152.34 192.211 138.175 191.756 126.456 195.626C123.99 196.444 121.989 198.264 120.962 200.627C117.791 207.903 112.658 224.475 126.907 232.842C128.003 230.122 129.265 227.94 130.346 226.335C128.052 222.464 127.371 217.175 131.442 210.291C134.412 218.31 135.807 230.009 136.096 235.186C136.193 236.889 135.89 238.591 135.225 240.167L135.151 240.338C135.009 240.676 135.205 241.062 135.567 241.141C143.592 242.941 151.934 242.452 154.425 242.247C154.87 242.207 155.242 241.889 155.34 241.459C159.239 225.018 159.249 213.809 158.295 206.719C161.945 207.541 173.106 209.283 181.982 202.677Z" fill="#A78BEF"/>
<path d="M158.32 207.281C158.339 207.281 158.359 207.281 158.379 207.277C158.618 207.242 158.79 207.022 158.76 206.778C157.821 199.668 155.927 196.625 155.849 196.497C155.717 196.292 155.443 196.233 155.237 196.36C155.032 196.493 154.968 196.767 155.1 196.972C155.12 197.001 156.974 200.006 157.884 206.895C157.909 207.12 158.1 207.281 158.32 207.281Z" fill="#5254CF"/>
<path d="M138.528 182.89C138.528 182.89 137.716 191.473 137.001 194.012C136.894 194.399 137.06 194.805 137.412 195.005C138.626 195.7 141.532 196.83 145.515 194.878C146.161 194.56 146.547 193.89 146.518 193.18L146.166 184.887L138.528 182.89Z" fill="url(#paint11_linear_2068_11448)"/>
<path d="M194.698 182.934C194.826 182.934 194.953 182.88 195.041 182.773C196.108 181.461 197.928 179.372 198.559 179.015C199.117 178.702 199.435 178.345 199.533 177.934C199.616 177.581 199.528 177.214 199.273 176.838C199.175 176.691 198.999 176.617 198.818 176.652L195.574 177.302C195.501 177.317 195.432 177.351 195.374 177.4L193.646 178.883C193.46 179.044 193.441 179.323 193.597 179.509C193.759 179.695 194.038 179.715 194.224 179.558L195.863 178.154L198.667 177.591C198.686 177.669 198.676 177.713 198.671 177.733C198.637 177.885 198.441 178.071 198.123 178.247C197.145 178.8 194.635 181.868 194.351 182.215C194.194 182.406 194.224 182.685 194.415 182.836C194.498 182.9 194.601 182.934 194.698 182.934Z" fill="url(#paint12_linear_2068_11448)"/>
<path d="M139.288 238.704L151.002 238.45C151.002 238.45 140.786 235.563 140.154 236.351C140.154 236.351 133.823 232.192 130.354 226.34C129.272 227.945 128.01 230.132 126.914 232.847C130.026 234.668 134.112 237.838 139.288 238.704Z" fill="url(#paint13_linear_2068_11448)"/>
<path d="M138.962 236.674C138.962 236.674 138.722 241.341 144.848 240.661C148.176 240.294 153.553 237.187 153.553 237.187C153.553 237.187 139.54 237.153 138.962 236.674Z" fill="url(#paint14_linear_2068_11448)"/>
<path d="M141.355 237.926C141.38 237.926 141.399 237.926 141.424 237.926L170.551 237.897C171.271 237.897 171.853 237.319 171.853 236.605C171.853 235.891 171.266 235.303 170.546 235.318L141.419 235.347C140.699 235.347 140.117 235.925 140.117 236.639C140.117 237.329 140.665 237.892 141.355 237.926Z" fill="#E527BB"/>
<path d="M196.731 211.759H172.476C170.685 211.759 169.056 212.781 168.293 214.381L157.078 237.906H187.224C188.378 237.906 189.411 237.212 189.836 236.15L198.531 214.381C199.035 213.124 198.101 211.759 196.731 211.759Z" fill="#E527BB"/>
<path d="M179.647 223.825C179.124 225.439 179.51 227.01 180.514 227.328C181.517 227.646 182.759 226.599 183.283 224.979C183.806 223.365 183.42 221.794 182.417 221.476C181.414 221.158 180.171 222.21 179.647 223.825Z" fill="white"/>
<path d="M148.113 170.971C148.221 171.147 151.107 184.495 151.107 184.495L143.45 185.983L138.836 173.736C138.831 173.736 146.283 168.035 148.113 170.971Z" fill="url(#paint15_linear_2068_11448)"/>
<path d="M141.567 175.712L143.49 182.352C143.514 182.435 143.549 182.518 143.598 182.592C143.886 183.052 144.987 184.564 146.465 183.345C147.806 182.235 149.048 181.246 150.149 181.114C150.643 181.055 151.098 181.383 151.206 181.868C151.47 183.081 152.009 185.826 152.111 188.282C152.131 188.781 151.764 189.207 151.27 189.276C149.777 189.471 146.626 189.794 144.028 189.462C143.676 189.418 143.377 189.188 143.25 188.855C142.619 187.24 140.691 182.347 139.943 181.07C139.238 179.866 137.354 179.793 136.557 179.818C136.297 179.827 136.048 179.729 135.862 179.544C135.206 178.898 133.978 177.273 135.935 175.526C136.346 175.159 136.371 174.533 135.994 174.137C135.24 173.344 134.467 171.969 135.886 170.399C137.33 168.804 139.091 169.17 140.158 169.63C140.588 169.816 141.083 169.66 141.342 169.268C141.494 169.048 141.738 168.887 142.149 168.945C142.702 169.024 143.196 168.588 143.216 168.03C143.26 166.959 143.72 165.628 145.609 165.153C148.965 164.317 150.839 167.619 150.908 170.007C150.976 172.395 147.287 173.1 145.154 172.816C143.534 172.6 142.232 174.142 141.704 174.895C141.533 175.13 141.484 175.433 141.567 175.712Z" fill="black"/>
<path d="M140.669 183.477C140.669 183.477 140.371 179.318 138.668 179.02C136.965 178.721 135.213 180.033 136.784 182.45C138.741 185.449 140.669 183.477 140.669 183.477Z" fill="url(#paint16_linear_2068_11448)"/>
</g>
<defs>
<linearGradient id="paint0_linear_2068_11448" x1="413.218" y1="203.396" x2="414.735" y2="203.396" gradientUnits="userSpaceOnUse">
<stop stop-color="#DAE3FE"/>
<stop offset="1" stop-color="#E9EFFD"/>
</linearGradient>
<linearGradient id="paint1_linear_2068_11448" x1="324.791" y1="154.539" x2="415.599" y2="154.539" gradientUnits="userSpaceOnUse">
<stop stop-color="#DAE3FE"/>
<stop offset="1" stop-color="#E9EFFD"/>
</linearGradient>
<linearGradient id="paint2_linear_2068_11448" x1="325.738" y1="114.03" x2="362.131" y2="134.803" gradientUnits="userSpaceOnUse">
<stop stop-color="#FEBBBA"/>
<stop offset="1" stop-color="#FF928E"/>
</linearGradient>
<linearGradient id="paint3_linear_2068_11448" x1="329.263" y1="119.211" x2="204.744" y2="41.2595" gradientUnits="userSpaceOnUse">
<stop stop-color="#FEBBBA"/>
<stop offset="1" stop-color="#FF928E"/>
</linearGradient>
<linearGradient id="paint4_linear_2068_11448" x1="389.48" y1="102.057" x2="425.733" y2="102.057" gradientUnits="userSpaceOnUse">
<stop stop-color="#FEBBBA"/>
<stop offset="1" stop-color="#FF928E"/>
</linearGradient>
<linearGradient id="paint5_linear_2068_11448" x1="374.724" y1="84.7296" x2="375.562" y2="71.6714" gradientUnits="userSpaceOnUse">
<stop stop-color="#FEBBBA"/>
<stop offset="1" stop-color="#FF928E"/>
</linearGradient>
<linearGradient id="paint6_linear_2068_11448" x1="375.958" y1="73.6806" x2="360.183" y2="43.4912" gradientUnits="userSpaceOnUse">
<stop stop-color="#FEBBBA"/>
<stop offset="1" stop-color="#FF928E"/>
</linearGradient>
<linearGradient id="paint7_linear_2068_11448" x1="380.275" y1="71.7936" x2="364.5" y2="41.6042" gradientUnits="userSpaceOnUse">
<stop stop-color="#FEBBBA"/>
<stop offset="1" stop-color="#FF928E"/>
</linearGradient>
<linearGradient id="paint8_linear_2068_11448" x1="138.477" y1="311.282" x2="143.499" y2="311.282" gradientUnits="userSpaceOnUse">
<stop stop-color="#FEBBBA"/>
<stop offset="1" stop-color="#FF928E"/>
</linearGradient>
<linearGradient id="paint9_linear_2068_11448" x1="110.265" y1="308.663" x2="116.268" y2="308.663" gradientUnits="userSpaceOnUse">
<stop stop-color="#FEBBBA"/>
<stop offset="1" stop-color="#FF928E"/>
</linearGradient>
<linearGradient id="paint10_linear_2068_11448" x1="192.826" y1="182.223" x2="169.052" y2="213.152" gradientUnits="userSpaceOnUse">
<stop stop-color="#FEBBBA"/>
<stop offset="1" stop-color="#FF928E"/>
</linearGradient>
<linearGradient id="paint11_linear_2068_11448" x1="139.841" y1="202.214" x2="142.442" y2="188.559" gradientUnits="userSpaceOnUse">
<stop stop-color="#FEBBBA"/>
<stop offset="1" stop-color="#FF928E"/>
</linearGradient>
<linearGradient id="paint12_linear_2068_11448" x1="248.635" y1="115.144" x2="215.374" y2="155.635" gradientUnits="userSpaceOnUse">
<stop stop-color="#FEBBBA"/>
<stop offset="1" stop-color="#FF928E"/>
</linearGradient>
<linearGradient id="paint13_linear_2068_11448" x1="150.92" y1="217.028" x2="142.404" y2="229.801" gradientUnits="userSpaceOnUse">
<stop stop-color="#FEBBBA"/>
<stop offset="1" stop-color="#FF928E"/>
</linearGradient>
<linearGradient id="paint14_linear_2068_11448" x1="133.934" y1="219.091" x2="142.278" y2="231.607" gradientUnits="userSpaceOnUse">
<stop stop-color="#FEBBBA"/>
<stop offset="1" stop-color="#FF928E"/>
</linearGradient>
<linearGradient id="paint15_linear_2068_11448" x1="145.549" y1="172.675" x2="143.222" y2="198.557" gradientUnits="userSpaceOnUse">
<stop stop-color="#FEBBBA"/>
<stop offset="1" stop-color="#FF928E"/>
</linearGradient>
<linearGradient id="paint16_linear_2068_11448" x1="134.76" y1="198.749" x2="138.601" y2="181.157" gradientUnits="userSpaceOnUse">
<stop stop-color="#FEBBBA"/>
<stop offset="1" stop-color="#FF928E"/>
</linearGradient>
<clipPath id="clip0_2068_11448">
<rect width="542.64" height="328.79" fill="white"/>
</clipPath>
</defs>
</svg>
