<svg width="543" height="329" viewBox="0 0 543 329" fill="none" xmlns="http://www.w3.org/2000/svg">
<g clip-path="url(#clip0_2068_11754)">
<path opacity="0.2" d="M78.788 327.839C41.4882 290.535 -9.49424 252.012 10.4949 193.818C23.6478 155.541 55.8804 144.88 82.6859 121.276C95.9087 109.631 87.5932 92.6757 87.3433 75.8481C86.7836 32.7513 139.135 -0.687543 187.269 0.010739C239.401 0.768031 261.969 48.9102 305.705 51.4968C322.876 51.7426 338.257 42.4781 353.449 35.1314C398.465 13.3371 469.906 27.2339 473.514 79.9296C474.444 108.392 439.183 154.174 474.514 169.143C502.668 181.072 531.113 185.469 536.19 228.133C542.837 283.976 507.716 314.621 461.971 329L78.788 327.839Z" fill="#999999"/>
<g clip-path="url(#clip1_2068_11754)">
<path d="M219.994 125.93C219.994 125.93 211.272 124.527 208.929 140.112C206.33 157.445 199.37 154.595 188.338 168.666C181.891 176.892 188.673 191.408 202.471 191.13C216.269 190.841 228.728 186.811 236.67 188.536C244.612 190.262 245.047 169.69 237.217 163.334C229.386 156.988 246.085 138.754 235.912 130.639C225.728 122.535 219.994 125.93 219.994 125.93Z" fill="#231F20"/>
<path d="M246.081 174.21L255.094 207.093L251.882 203.398C253.075 204.032 254.447 204.511 255.975 204.856C257.503 205.201 259.165 205.39 260.894 205.49C262.635 205.58 264.442 205.568 266.293 205.49C268.145 205.413 270.041 205.279 271.96 205.112H271.971C274.804 204.867 277.303 206.971 277.537 209.799C277.771 212.492 275.853 214.886 273.22 215.309C271.235 215.621 269.227 215.921 267.152 216.166C265.088 216.4 262.969 216.578 260.772 216.634C258.574 216.678 256.31 216.6 253.956 216.255C251.614 215.91 249.182 215.309 246.795 214.285C245.278 213.628 244.185 212.381 243.694 210.934L243.583 210.589L232.774 178.239C231.558 174.599 233.521 170.67 237.169 169.456C240.816 168.243 244.754 170.202 245.97 173.842C246.003 173.954 246.048 174.098 246.081 174.21Z" fill="#FF9783"/>
<path d="M201.236 213.016C201.236 213.016 200.901 215.487 204.225 216.144L238.782 216.856C238.782 216.856 241.102 215.654 240.645 212.771C240.656 212.771 225.965 204.778 201.236 213.016Z" fill="#4333D6"/>
<path d="M239.193 229.302C217.81 232.463 201.859 226.329 201.859 226.329C202.785 223.713 203.454 220.763 203.934 218.081C204.492 214.964 204.793 212.203 204.927 210.756C212.545 210.244 231.24 209.208 238.58 210.845L238.68 213.773L239.193 229.302Z" fill="#FF9783"/>
<path d="M226.057 219.383C225.934 220.307 225.533 221.019 225.142 220.964C224.763 220.919 224.551 220.129 224.663 219.205C224.785 218.281 225.187 217.568 225.577 217.624C225.956 217.669 226.168 218.459 226.057 219.383Z" fill="#D17360"/>
<path d="M238.691 213.784C231.051 213.416 216.026 213.45 203.945 218.081C204.503 214.964 204.804 212.203 204.938 210.756C212.557 210.244 231.251 209.208 238.591 210.845L238.691 213.784Z" fill="#D17360"/>
<path d="M240.813 206.593C240.813 206.604 240.813 206.626 240.813 206.648C240.802 206.782 240.791 206.915 240.779 207.071C240.746 207.639 240.713 208.307 240.701 209.075C240.679 209.698 240.679 210.366 240.668 211.09C240.668 211.624 240.657 212.192 240.657 212.771C230.462 208.385 209.636 211.502 201.248 213.027C201.337 212.604 201.415 212.192 201.482 211.791C201.538 211.491 201.594 211.19 201.639 210.901C202.196 207.695 202.486 204.811 202.587 202.229C202.598 202.006 202.598 201.772 202.609 201.539C202.687 197.709 202.274 192.277 201.438 186.666C201.382 186.277 201.315 185.898 201.259 185.509C201.215 185.252 201.17 185.008 201.137 184.752C200.824 182.881 200.467 181.011 200.066 179.197C199.932 178.573 199.809 177.95 199.709 177.338C199.597 176.647 199.508 175.957 199.441 175.278C199.285 173.553 199.296 171.861 199.519 170.302C199.921 167.519 201.014 165.115 203.033 163.567C204.171 162.699 205.621 162.098 207.405 161.853C207.985 161.775 208.565 161.697 209.123 161.63C210.874 161.419 212.492 161.274 213.797 161.163C214.232 161.129 214.633 161.096 214.99 161.074C215.905 161.007 216.574 160.974 216.92 160.951C217.076 160.94 217.166 160.94 217.166 160.94L233.339 163.267C233.339 163.267 236.061 164.057 236.619 164.246C237.991 164.703 239.173 165.137 240.188 165.571C241.449 166.105 242.642 166.528 243.423 167.074C246.87 169.456 245.643 174.299 245.632 179.698C245.632 179.787 245.632 179.887 245.632 179.976C245.632 180.009 245.632 180.043 245.632 180.065C245.632 180.477 245.643 180.878 245.654 181.289C245.665 181.802 245.699 182.302 245.732 182.815C245.799 183.839 245.911 184.852 246.033 185.842C246.781 191.921 248.175 197.353 246.792 200.147C245.308 203.153 242.274 205.546 241.215 206.325C240.958 206.492 240.813 206.593 240.813 206.593Z" fill="#A78BEF"/>
<path d="M217.341 204.433C217.386 204.566 217.497 204.655 217.62 204.678C217.687 204.689 217.743 204.689 217.81 204.667C217.876 204.644 224.48 202.418 231.496 205.212C235.065 206.637 238.222 207.149 240.765 207.071C240.777 206.926 240.788 206.782 240.799 206.648C240.799 206.626 240.799 206.615 240.799 206.592C240.799 206.592 240.944 206.503 241.189 206.314C238.691 206.47 235.467 205.98 231.775 204.511C224.491 201.605 217.843 203.854 217.564 203.954C217.375 204.021 217.274 204.232 217.341 204.433Z" fill="#4333D6"/>
<path d="M229.961 178.451C234.613 179.33 236.576 174.521 236.598 174.466C236.676 174.276 236.576 174.054 236.386 173.987C236.197 173.909 235.973 174.009 235.906 174.198C235.828 174.377 234.144 178.484 230.106 177.716C225.867 176.915 217.881 168.721 217.803 168.644C217.658 168.499 217.424 168.488 217.279 168.632C217.134 168.777 217.122 169.011 217.267 169.156C217.602 169.501 225.499 177.605 229.961 178.451Z" fill="#4333D6"/>
<path d="M212.081 210.288C211.947 210.266 211.836 210.155 211.802 210.021C211.769 209.832 211.892 209.654 212.07 209.62C219.198 208.218 224.329 205.702 224.373 205.68C224.541 205.591 224.753 205.668 224.842 205.835C224.931 206.002 224.853 206.214 224.686 206.303C224.63 206.325 219.432 208.874 212.204 210.299C212.159 210.299 212.115 210.288 212.081 210.288Z" fill="#4333D6"/>
<path d="M234.332 139.656C234.332 139.656 235.794 139.544 236.374 141.325C236.954 143.107 236.541 146.313 234.622 146.246C232.704 146.179 234.332 139.656 234.332 139.656Z" fill="#D17360"/>
<path d="M230.914 149.062C230.78 146.836 232.475 144.91 234.717 144.765C236.948 144.632 238.878 146.324 239.023 148.561C239.157 150.788 237.461 152.713 235.219 152.858C232.977 152.992 231.048 151.289 230.914 149.062ZM231.639 149.006C231.75 150.832 233.334 152.224 235.164 152.112C236.993 152.001 238.387 150.42 238.276 148.595C238.164 146.769 236.58 145.377 234.751 145.489C232.921 145.611 231.527 147.181 231.639 149.006Z" fill="white"/>
<path d="M217.688 161.296C217.688 161.296 220.543 165.961 226.042 165.849C233.014 165.705 233.348 163.256 233.348 163.256C232.902 162.376 232.579 161.497 232.344 160.528C232.255 160.161 232.166 159.782 232.099 159.393C231.909 158.313 231.787 157.133 231.697 155.741C231.675 155.419 231.664 155.085 231.642 154.728V154.684C226.734 154.35 222.529 152.892 219.316 149.853L218.535 149.552L218.011 149.341L217.966 149.63L218.201 150.487C219.316 154.539 219.338 157.122 217.688 161.296Z" fill="#FF9783"/>
<path d="M230.913 170.258C231.069 170.246 231.214 170.213 231.359 170.18C232.72 169.868 233.679 169.156 234.203 168.042C235.72 164.803 232.976 159.359 232.854 159.126C232.765 158.948 232.53 158.87 232.352 158.959C232.173 159.048 232.095 159.281 232.185 159.46C232.207 159.515 234.884 164.814 233.523 167.72C233.099 168.621 232.341 169.189 231.192 169.445C226.418 170.525 217.505 160.361 217.416 160.25C217.282 160.094 217.048 160.083 216.892 160.217C216.736 160.35 216.724 160.584 216.858 160.74C217.215 161.174 225.67 170.803 230.913 170.258Z" fill="white"/>
<path d="M223.172 152.947C224.544 155.029 227.511 158.625 232.084 159.393C231.895 158.313 231.772 157.133 231.683 155.741C231.66 155.419 231.649 155.085 231.627 154.728C231.538 154.751 231.437 154.773 231.348 154.795C228.805 155.396 225.793 154.539 223.172 152.947Z" fill="#D17360"/>
<path d="M211.133 143.507C211.389 146.09 213.899 149.029 217.29 148.773H217.312H217.379C217.446 148.918 217.524 149.051 217.603 149.196C217.636 149.251 217.669 149.318 217.714 149.385C217.714 149.396 217.725 149.396 217.725 149.407C220.268 153.571 226.783 155.519 230.185 155.274C231.401 155.185 232.181 154.829 232.438 154.751C235.94 153.615 236.13 148.706 235.193 145.066C235.059 144.543 234.892 144.042 234.725 143.574C234.713 143.541 234.702 143.507 234.691 143.474C234.691 143.474 235.372 138.186 235.427 135.904C235.528 131.474 232.572 127.288 222.879 127.388C213.185 127.477 211.479 133.667 211.133 136.884C211.077 137.418 211.49 140.546 212.07 140.992C211.178 141.548 211.044 142.65 211.133 143.507Z" fill="#FF9783"/>
<path d="M217.289 148.784H217.311H217.378C217.445 148.929 217.523 149.062 217.601 149.207C217.635 149.263 217.668 149.329 217.713 149.396C217.713 149.407 217.724 149.407 217.724 149.418C218.103 149.318 218.572 149.129 218.973 148.773C219.208 148.561 219.431 148.294 219.587 147.96C219.665 147.782 219.598 147.582 219.42 147.493C219.241 147.404 219.04 147.481 218.951 147.66C218.773 148.038 218.494 148.294 218.193 148.472C217.992 148.595 217.791 148.673 217.601 148.728C217.49 148.739 217.389 148.762 217.289 148.784Z" fill="#D17360"/>
<path d="M213.53 147.637C213.764 147.782 213.987 147.916 214.222 148.049C213.218 148.673 212.582 149.808 212.66 151.077C212.771 152.903 214.355 154.294 216.185 154.183C218.014 154.072 219.408 152.491 219.297 150.665C219.185 148.94 217.769 147.604 216.062 147.559C215.806 147.504 215.582 147.214 215.527 146.847C215.594 146.836 215.649 146.836 215.716 146.836C217.947 146.702 219.877 148.394 220.022 150.632C220.156 152.858 218.46 154.784 216.218 154.929C213.987 155.062 212.058 153.37 211.913 151.133C211.835 149.708 212.481 148.428 213.53 147.637Z" fill="white"/>
<path d="M217.413 146.736C217.268 146.725 217.145 146.636 217.1 146.491C216.386 144.109 213.386 143.352 213.352 143.34C213.163 143.296 213.051 143.107 213.096 142.917C213.14 142.728 213.33 142.617 213.52 142.661C213.665 142.695 216.944 143.519 217.769 146.29C217.825 146.48 217.725 146.669 217.535 146.725C217.491 146.736 217.446 146.736 217.413 146.736Z" fill="#D17360"/>
<path d="M214.247 145.689C214.203 145.689 214.158 145.678 214.114 145.656C213.935 145.567 213.868 145.366 213.946 145.188C213.969 145.144 214.526 144.019 215.943 143.942C216.133 143.93 216.3 144.075 216.311 144.264C216.322 144.454 216.177 144.621 215.988 144.632C214.972 144.687 214.582 145.478 214.571 145.489C214.515 145.622 214.381 145.7 214.247 145.689Z" fill="#D17360"/>
<path d="M222.701 132.654C222.701 132.654 223.504 135.325 221.362 137.118C219.588 138.609 218.473 139.088 218.473 139.088C218.473 139.088 222.388 146.246 219.655 147.615C216.923 148.984 216.432 140.769 212.048 140.992C212.048 140.992 210.442 140.825 210.319 138.064C210.196 135.303 211.702 127.566 221.284 126.731C228.479 126.108 235.227 129.292 235.997 134.301C236.766 139.3 235.584 138.431 235.584 138.431C235.584 138.431 235.796 135.459 232.104 133.611C229.036 132.086 222.701 132.654 222.701 132.654Z" fill="#231F20"/>
<path d="M249.551 293.433C249.417 293.433 249.284 293.411 249.15 293.367L201.933 276.379C201.319 276.156 200.996 275.477 201.219 274.854C201.442 274.242 202.123 273.919 202.747 274.142L249.964 291.129C250.578 291.352 250.901 292.031 250.678 292.654C250.499 293.133 250.042 293.433 249.551 293.433Z" fill="#E527BB"/>
<path d="M200.374 293.433C199.883 293.433 199.425 293.133 199.258 292.654C199.035 292.042 199.359 291.352 199.972 291.129L247.747 273.863C248.36 273.641 249.052 273.963 249.275 274.576C249.498 275.188 249.174 275.878 248.561 276.101L200.786 293.366C200.641 293.411 200.507 293.433 200.374 293.433Z" fill="#E527BB"/>
<path d="M253.752 323.801C252.748 323.801 251.867 323.055 251.733 322.042L243.2 258.49H207.517L199.118 322.031C198.973 323.144 197.947 323.924 196.831 323.779C195.716 323.634 194.935 322.61 195.08 321.497L203.713 256.186C203.847 255.173 204.706 254.416 205.732 254.416H244.985C246.011 254.416 246.87 255.173 247.004 256.174L255.771 321.486C255.916 322.599 255.135 323.623 254.02 323.768C253.942 323.79 253.841 323.801 253.752 323.801Z" fill="#E527BB"/>
<path d="M233.615 256.453H208.127C200.051 256.453 191.395 252.044 190.157 244.074C188.495 233.421 188.093 223.101 188.551 213.639C189.075 202.93 194.195 192.978 202.628 186.332C202.628 186.332 207.725 208.485 201.311 239.053C203.765 250.675 233.615 256.453 233.615 256.453Z" fill="#E527BB"/>
<path d="M292.596 296.572H281.207C281.207 296.572 278.575 283.96 277.682 276.88C276.801 269.811 276.344 253.035 276.344 253.035C276.344 253.035 267.264 255.974 248.268 254.872C206.171 252.423 222.133 221.554 222.133 221.554C223.55 223.513 232.261 222.155 238.218 223.09C256.489 224.838 272.339 231.996 281.854 236.092C284.141 237.083 286.182 238.118 287.967 239.22C290.264 240.634 291.692 244.909 292.562 250.542C295.172 267.462 292.596 296.572 292.596 296.572Z" fill="black"/>
<path d="M282.624 290.494C282.435 290.494 282.267 290.361 282.223 290.172C280.583 282.056 280.025 271.96 279.59 263.844C279.222 257.11 278.877 250.753 278.006 249.996C277.304 249.373 274.392 249.863 270.7 250.475C263.361 251.688 252.273 253.525 240.048 250.686C233.389 249.139 228.492 245.911 225.491 241.091C220.327 232.775 222.68 222.467 222.703 222.367C222.758 222.144 222.97 222.01 223.193 222.066C223.417 222.122 223.55 222.333 223.495 222.556C223.472 222.656 221.197 232.653 226.183 240.668C229.061 245.299 233.79 248.404 240.226 249.896C252.295 252.701 263.283 250.876 270.555 249.673C274.906 248.95 277.538 248.516 278.531 249.395C279.602 250.341 279.903 254.983 280.382 263.811C280.829 271.904 281.375 281.967 283.004 290.027C283.048 290.25 282.903 290.461 282.68 290.506C282.68 290.483 282.658 290.494 282.624 290.494Z" fill="black"/>
<path d="M292.815 290.706L280.144 290.439C279.921 290.439 279.742 290.25 279.742 290.027C279.742 289.804 279.932 289.615 280.155 289.626L292.815 289.893C293.038 289.893 293.217 290.083 293.217 290.305C293.217 290.528 293.038 290.706 292.815 290.706Z" fill="black"/>
<path d="M292.281 311.133H284.25L282.699 301.715L281.852 296.573H291.835L291.991 301.715L292.281 311.133Z" fill="#FF9783"/>
<path d="M292.285 311.133H284.254L283.094 304.12L282.703 301.716H291.995L292.073 304.209L292.285 311.133Z" fill="#E527BB"/>
<path d="M312.126 323.801H281.719C281.496 323.39 281.373 322.811 281.317 322.12C281.128 319.549 281.942 315.452 282.343 312.87C282.388 312.569 282.433 312.291 282.466 312.035C282.522 311.601 282.555 311.245 282.555 310.977C282.555 308.873 284.429 309.23 284.429 309.23C287.508 312.246 290.988 307.727 293.018 309.207C293.018 309.207 293.096 309.263 293.286 309.408C293.453 309.541 293.721 309.753 294.078 310.053C294.591 310.488 295.327 311.111 296.309 312.001C298.718 314.172 302.823 315.597 306.326 317.055C306.772 317.245 307.184 317.423 307.564 317.612C307.854 317.757 308.133 317.89 308.389 318.035C311.245 319.571 312.159 321.041 312.36 322.12C312.572 323.145 312.126 323.801 312.126 323.801Z" fill="#A78BEF"/>
<path d="M308.404 318.035C307.623 318.659 305.883 319.905 304.477 319.905C304.41 319.905 304.355 319.905 304.299 319.894C303.317 319.816 299.692 318.035 296.736 316.421C295.052 315.497 293.501 314.584 292.397 313.849C290.579 312.647 290.267 312.191 290.189 311.879C289.921 310.677 291.906 309.842 293.301 309.419C293.468 309.553 293.736 309.764 294.093 310.065C292.364 310.532 290.947 311.267 291.014 311.69C291.181 312.046 292.977 313.415 297.283 315.764C300.562 317.556 303.674 319.004 304.366 319.059C305.303 319.137 306.675 318.28 307.578 317.612C307.868 317.757 308.147 317.89 308.404 318.035Z" fill="#2F2780"/>
<path d="M312.129 323.801H281.722C281.499 323.389 281.376 322.811 281.32 322.12H312.374C312.575 323.145 312.129 323.801 312.129 323.801Z" fill="#2F2780"/>
<path d="M284.82 323.802H283.917C284.82 322.777 285.657 321.197 285.545 318.948C285.4 315.953 283.593 313.927 282.344 312.881C282.388 312.58 282.433 312.302 282.466 312.046C283.816 313.07 286.092 315.33 286.27 318.915C286.382 321.063 285.679 322.666 284.82 323.802Z" fill="#2F2780"/>
<path d="M295.81 313.794C295.587 313.794 295.386 313.638 295.319 313.415C295.253 313.148 295.42 312.881 295.688 312.814L297.584 312.347C297.852 312.28 298.119 312.447 298.186 312.714C298.253 312.981 298.086 313.248 297.818 313.315L295.922 313.783C295.888 313.783 295.844 313.794 295.81 313.794Z" fill="white"/>
<path d="M293.912 312.213C293.689 312.213 293.488 312.057 293.421 311.835C293.354 311.567 293.521 311.3 293.789 311.233L295.685 310.766C295.953 310.699 296.221 310.866 296.288 311.133C296.355 311.4 296.187 311.668 295.92 311.734L294.023 312.202C294.001 312.213 293.956 312.213 293.912 312.213Z" fill="white"/>
<path d="M297.701 314.896C297.478 314.896 297.277 314.74 297.21 314.517C297.143 314.25 297.31 313.983 297.578 313.916L299.474 313.449C299.742 313.382 300.01 313.549 300.077 313.816C300.144 314.083 299.976 314.35 299.709 314.417L297.812 314.885C297.779 314.885 297.734 314.896 297.701 314.896Z" fill="white"/>
<path d="M299.599 315.953C299.376 315.953 299.175 315.798 299.109 315.575C299.042 315.308 299.209 315.041 299.477 314.974L301.373 314.506C301.641 314.439 301.908 314.606 301.975 314.874C302.042 315.141 301.875 315.408 301.607 315.475L299.711 315.942C299.677 315.942 299.644 315.953 299.599 315.953Z" fill="white"/>
<path d="M301.677 316.933C301.454 316.933 301.254 316.777 301.187 316.555C301.12 316.287 301.287 316.02 301.555 315.953L303.451 315.486C303.719 315.419 303.986 315.586 304.053 315.853C304.12 316.12 303.953 316.388 303.685 316.454L301.789 316.922C301.756 316.922 301.711 316.933 301.677 316.933Z" fill="white"/>
<path d="M303.92 317.768C303.697 317.768 303.496 317.612 303.429 317.389C303.362 317.122 303.529 316.855 303.797 316.788L305.693 316.321C305.961 316.254 306.229 316.421 306.296 316.688C306.362 316.955 306.195 317.222 305.927 317.289L304.031 317.757C303.998 317.757 303.964 317.768 303.92 317.768Z" fill="white"/>
<path d="M215.217 169.768L225.624 207.728L221.921 203.464C223.293 204.188 224.888 204.756 226.639 205.145C228.402 205.535 230.32 205.769 232.317 205.869C234.325 205.969 236.411 205.958 238.552 205.869C240.694 205.78 242.88 205.624 245.089 205.435H245.1C248.368 205.157 251.246 207.572 251.525 210.845C251.793 213.962 249.573 216.712 246.539 217.212C244.252 217.58 241.921 217.925 239.545 218.192C237.158 218.47 234.715 218.671 232.183 218.726C229.651 218.782 227.03 218.682 224.319 218.292C221.609 217.903 218.809 217.19 216.065 216.01C214.314 215.253 213.053 213.817 212.484 212.136L212.351 211.747L199.869 174.421C198.463 170.224 200.739 165.694 204.944 164.291C209.149 162.888 213.689 165.159 215.095 169.356C215.128 169.478 215.173 169.634 215.217 169.768Z" fill="#FF9783"/>
<path d="M219.865 206.515C219.754 206.515 219.653 206.459 219.598 206.359C219.508 206.214 219.564 206.025 219.709 205.936C219.81 205.88 222.085 204.6 224.461 204.411C224.628 204.399 224.773 204.522 224.796 204.689C224.807 204.856 224.684 205.001 224.517 205.023C222.275 205.19 220.044 206.448 220.022 206.459C219.966 206.503 219.91 206.515 219.865 206.515Z" fill="#D17360"/>
<path d="M223.645 205.145C223.589 205.145 223.533 205.134 223.489 205.101C222.05 204.233 220.321 204.099 220.298 204.099C220.131 204.088 219.997 203.943 220.008 203.776C220.02 203.609 220.165 203.476 220.343 203.487C220.421 203.487 222.251 203.631 223.812 204.578C223.957 204.667 224.002 204.856 223.913 205.001C223.846 205.09 223.745 205.145 223.645 205.145Z" fill="#D17360"/>
<path d="M272.775 296.606H261.387C261.387 296.606 258.754 283.993 257.862 276.913C256.981 269.845 256.523 253.069 256.523 253.069C256.523 253.069 247.444 256.008 228.448 254.905C186.351 252.456 202.313 221.587 202.313 221.587C203.729 223.547 214.404 226.252 220.361 227.187C238.632 228.935 252.53 232.029 262.045 236.126C264.332 237.117 266.373 238.152 268.158 239.254C270.455 240.668 271.883 244.942 272.753 250.575C275.341 267.496 272.775 296.606 272.775 296.606Z" fill="black"/>
<path d="M262.804 290.528C262.614 290.528 262.447 290.394 262.403 290.205C260.763 282.09 260.205 271.993 259.77 263.878C259.402 257.143 259.056 250.787 258.186 250.03C257.483 249.406 254.572 249.896 250.88 250.508C243.54 251.722 232.453 253.559 220.228 250.72C213.568 249.173 208.672 245.944 205.671 241.124C200.506 232.809 202.86 222.5 202.882 222.4C202.938 222.177 203.15 222.044 203.373 222.1C203.596 222.155 203.73 222.367 203.674 222.589C203.652 222.69 201.377 232.686 206.363 240.701C209.24 245.332 213.959 248.438 220.406 249.93C232.475 252.735 243.462 250.909 250.735 249.707C255.085 248.983 257.718 248.549 258.71 249.429C259.781 250.375 260.082 255.017 260.562 263.845C261.008 271.937 261.555 282.001 263.183 290.06C263.228 290.283 263.083 290.495 262.86 290.539C262.86 290.528 262.826 290.528 262.804 290.528Z" fill="black"/>
<path d="M272.995 290.739C272.984 290.739 272.984 290.739 272.995 290.739L260.323 290.472C260.1 290.472 259.922 290.283 259.922 290.06C259.922 289.838 260.111 289.649 260.335 289.66L272.995 289.927C273.218 289.927 273.396 290.116 273.396 290.339C273.396 290.561 273.207 290.739 272.995 290.739Z" fill="black"/>
<path d="M272.468 311.167H264.426L262.887 301.76L262.039 296.606H272.022L272.178 301.76L272.468 311.167Z" fill="#FF9783"/>
<path d="M272.277 311.168H264.235L263.086 304.165L262.695 301.761H271.987L272.065 304.255L272.277 311.168Z" fill="#E527BB"/>
<path d="M292.298 323.835H261.891C261.668 323.423 261.545 322.844 261.489 322.154C261.3 319.582 262.114 315.486 262.515 312.903C262.56 312.603 262.605 312.324 262.638 312.068C262.694 311.634 262.727 311.278 262.727 311.011C262.727 308.907 264.601 309.263 264.601 309.263C267.68 312.28 271.16 307.76 273.19 309.241C273.19 309.241 273.268 309.296 273.458 309.441C273.625 309.575 273.893 309.786 274.25 310.087C274.763 310.521 275.499 311.144 276.481 312.035C278.89 314.206 282.995 315.631 286.497 317.089C286.944 317.278 287.356 317.456 287.736 317.645C288.026 317.79 288.304 317.924 288.561 318.068C291.417 319.605 292.331 321.074 292.532 322.154C292.744 323.178 292.298 323.835 292.298 323.835Z" fill="#A78BEF"/>
<path d="M288.583 318.069C287.803 318.692 286.063 319.939 284.657 319.939C284.59 319.939 284.534 319.939 284.479 319.928C283.497 319.85 279.872 318.069 276.916 316.454C275.232 315.53 273.681 314.618 272.577 313.883C270.759 312.681 270.446 312.224 270.368 311.913C270.101 310.71 272.086 309.887 273.48 309.452C273.648 309.586 273.915 309.797 274.272 310.098C272.543 310.566 271.127 311.3 271.194 311.723C271.361 312.08 273.157 313.449 277.462 315.798C280.742 317.59 283.854 319.037 284.546 319.093C285.483 319.171 286.855 318.313 287.758 317.646C288.048 317.79 288.316 317.935 288.583 318.069Z" fill="#2F2780"/>
<path d="M292.301 323.835H261.894C261.671 323.423 261.548 322.844 261.492 322.154H292.546C292.747 323.178 292.301 323.835 292.301 323.835Z" fill="#2F2780"/>
<path d="M265 323.835H264.096C265 322.811 265.836 321.23 265.725 318.981C265.58 315.987 263.773 313.961 262.523 312.914C262.568 312.614 262.613 312.336 262.646 312.08C263.996 313.104 266.271 315.364 266.45 318.948C266.561 321.097 265.847 322.7 265 323.835Z" fill="#2F2780"/>
<path d="M275.982 313.827C275.759 313.827 275.558 313.671 275.491 313.449C275.424 313.181 275.592 312.914 275.859 312.848L277.756 312.38C278.023 312.313 278.291 312.48 278.358 312.747C278.425 313.015 278.258 313.282 277.99 313.348L276.094 313.816C276.06 313.827 276.027 313.827 275.982 313.827Z" fill="white"/>
<path d="M274.091 312.247C273.868 312.247 273.668 312.091 273.601 311.868C273.534 311.601 273.701 311.334 273.969 311.267L275.865 310.799C276.133 310.733 276.4 310.9 276.467 311.167C276.534 311.434 276.367 311.701 276.099 311.768L274.203 312.235C274.17 312.247 274.136 312.247 274.091 312.247Z" fill="white"/>
<path d="M277.873 314.929C277.65 314.929 277.449 314.773 277.382 314.551C277.315 314.284 277.482 314.016 277.75 313.95L279.646 313.482C279.914 313.415 280.182 313.582 280.249 313.849C280.316 314.117 280.148 314.384 279.881 314.45L277.984 314.918C277.962 314.929 277.917 314.929 277.873 314.929Z" fill="white"/>
<path d="M279.779 315.987C279.556 315.987 279.355 315.831 279.288 315.608C279.221 315.341 279.389 315.074 279.656 315.007L281.553 314.54C281.82 314.473 282.088 314.64 282.155 314.907C282.222 315.174 282.055 315.441 281.787 315.508L279.891 315.976C279.857 315.987 279.812 315.987 279.779 315.987Z" fill="white"/>
<path d="M281.849 316.967C281.626 316.967 281.425 316.811 281.359 316.588C281.292 316.321 281.459 316.054 281.727 315.987L283.623 315.519C283.891 315.453 284.158 315.62 284.225 315.887C284.292 316.154 284.125 316.421 283.857 316.488L281.961 316.955C281.939 316.967 281.894 316.967 281.849 316.967Z" fill="white"/>
<path d="M284.099 317.801C283.876 317.801 283.675 317.645 283.609 317.423C283.542 317.156 283.709 316.888 283.977 316.822L285.873 316.354C286.141 316.287 286.408 316.454 286.475 316.721C286.542 316.989 286.375 317.256 286.107 317.323L284.211 317.79C284.177 317.801 284.133 317.801 284.099 317.801Z" fill="white"/>
<path d="M201.32 224.637L202.324 221.598L204.31 216.645C204.31 216.645 224.265 224.381 239.078 220.641L239.29 223.201C239.29 223.201 230.512 230.292 217.416 228.155C204.31 226.007 201.32 224.637 201.32 224.637Z" fill="#242645"/>
<path d="M331.107 221.142V223.658C331.107 225.105 330.036 226.285 328.709 226.285H161.961C160.633 226.285 159.562 225.116 159.562 223.658V221.142C159.562 219.695 160.633 218.515 161.961 218.515H328.72C330.036 218.515 331.107 219.695 331.107 221.142Z" fill="#7768FF"/>
<path d="M331.107 221.932H159.562V223.09H331.107V221.932Z" fill="#4333D6"/>
<path d="M326.092 232.753H169.35C168.647 232.753 168.078 232.285 168.078 231.718V226.252H327.364V231.718C327.364 232.296 326.795 232.753 326.092 232.753Z" fill="#4333D6"/>
<path d="M304.872 264.88H171.375V269.344H304.872V264.88Z" fill="#4333D6"/>
<path d="M160.875 324.636L183.072 232.753H175.275L153.078 324.636H160.875Z" fill="#7768FF"/>
<path d="M312.99 324.636L290.781 232.753H298.578L320.787 324.636H312.99Z" fill="#7768FF"/>
<path d="M174.122 197.389L171.719 197.757L174.5 215.87L176.904 215.502L174.122 197.389Z" fill="#A78BEF"/>
<path d="M174.112 197.386L171.703 197.765L172.239 195.928L172.517 194.971L173.064 195.794L174.112 197.386Z" fill="#FF9783"/>
<path d="M176.693 214.191L174.289 214.559L174.492 215.879L176.896 215.512L176.693 214.191Z" fill="#242645"/>
<path d="M176.902 216.578L174.816 216.901C174.726 216.912 174.648 216.856 174.626 216.767L174.492 215.877L176.902 215.509L177.035 216.4C177.047 216.489 176.991 216.567 176.902 216.578Z" fill="#7768FF"/>
<path d="M173.068 195.794L172.242 195.928L172.521 194.971L173.068 195.794Z" fill="#242645"/>
<path d="M176.552 213.253L174.148 213.62L174.294 214.566L176.697 214.199L176.552 213.253Z" fill="#2F2780"/>
<path d="M172.439 198.555L174.502 211.969C174.513 212.069 174.614 212.136 174.714 212.125C174.815 212.114 174.882 212.014 174.87 211.914L172.807 198.5C172.796 198.399 172.695 198.333 172.595 198.344C172.494 198.366 172.428 198.455 172.439 198.555Z" fill="white"/>
<path d="M173.387 198.41L175.45 211.825C175.461 211.925 175.562 211.992 175.662 211.98C175.763 211.969 175.829 211.869 175.818 211.769L173.755 198.355C173.744 198.255 173.643 198.188 173.543 198.199C173.442 198.221 173.364 198.31 173.387 198.41Z" fill="white"/>
<path d="M178.463 197.472L176.031 197.48L176.092 215.804L178.523 215.796L178.463 197.472Z" fill="#E527BB"/>
<path d="M178.474 197.475L176.031 197.486L176.834 195.75L177.247 194.848L177.66 195.739L178.474 197.475Z" fill="#FF9783"/>
<path d="M178.518 214.471L176.086 214.479L176.09 215.815L178.522 215.807L178.518 214.471Z" fill="#242645"/>
<path d="M178.377 216.867L176.269 216.878C176.18 216.878 176.102 216.812 176.102 216.723V215.821L178.533 215.81V216.712C178.533 216.789 178.466 216.867 178.377 216.867Z" fill="#7768FF"/>
<path d="M177.661 195.739L176.836 195.75L177.249 194.848L177.661 195.739Z" fill="#242645"/>
<path d="M178.518 213.513L176.086 213.521L176.089 214.479L178.521 214.471L178.518 213.513Z" fill="#4333D6"/>
<path d="M176.648 198.388L176.693 211.958C176.693 212.058 176.782 212.147 176.883 212.147C176.983 212.147 177.072 212.058 177.072 211.958L177.028 198.388C177.028 198.288 176.938 198.199 176.838 198.199C176.727 198.199 176.648 198.277 176.648 198.388Z" fill="white"/>
<path d="M177.594 198.377L177.638 211.947C177.638 212.047 177.728 212.136 177.828 212.136C177.928 212.136 178.018 212.047 178.018 211.947L177.973 198.377C177.973 198.277 177.884 198.188 177.783 198.188C177.683 198.199 177.594 198.277 177.594 198.377Z" fill="white"/>
<path d="M180.261 197.391L177.68 215.533L180.087 215.874L182.669 197.732L180.261 197.391Z" fill="#DAA7EE"/>
<path d="M182.667 197.731L180.258 197.386L181.295 195.783L181.831 194.959L182.121 195.906L182.667 197.731Z" fill="#FF9783"/>
<path d="M180.275 214.567L177.867 214.226L177.679 215.549L180.087 215.89L180.275 214.567Z" fill="#242645"/>
<path d="M179.776 216.901L177.69 216.6C177.601 216.589 177.545 216.511 177.556 216.422L177.679 215.531L180.088 215.877L179.965 216.767C179.943 216.856 179.865 216.912 179.776 216.901Z" fill="#7768FF"/>
<path d="M182.114 195.906L181.289 195.783L181.824 194.959L182.114 195.906Z" fill="#242645"/>
<path d="M178.01 213.265L177.875 214.213L180.283 214.554L180.418 213.606L178.01 213.265Z" fill="#2F2780"/>
<path d="M180.721 198.366L178.814 211.802C178.803 211.902 178.869 212.002 178.97 212.014C179.07 212.025 179.171 211.958 179.182 211.858L181.089 198.421C181.1 198.321 181.033 198.221 180.933 198.21C180.833 198.199 180.743 198.266 180.721 198.366Z" fill="white"/>
<path d="M181.674 198.499L179.767 211.936C179.756 212.036 179.823 212.136 179.923 212.147C180.023 212.158 180.124 212.092 180.135 211.991L182.042 198.555C182.054 198.455 181.987 198.355 181.886 198.343C181.786 198.332 181.685 198.399 181.674 198.499Z" fill="white"/>
<path d="M183.46 204.722L183.338 205.702L183.215 206.603L183.048 207.95L182.925 208.841L182.758 210.21L182.635 211.079L182.468 212.459L182.356 213.316L182.166 214.708L182.066 215.554L181.876 216.956L181.776 217.791L181.676 218.515H172.105L172.016 217.791L171.904 216.956L171.726 215.554L171.614 214.708L171.436 213.316L171.324 212.459L171.146 211.079L171.034 210.21L170.856 208.841L170.744 207.95L170.566 206.603L170.454 205.702L170.32 204.722H183.46Z" fill="#A78BEF"/>
<path d="M183.337 205.702L183.214 206.604H170.565L170.453 205.702H183.337Z" fill="#2F3470"/>
<path d="M183.046 207.951L182.923 208.841H170.854L170.742 207.951H183.046Z" fill="#2F3470"/>
<path d="M182.755 210.21L182.632 211.079H171.143L171.031 210.21H182.755Z" fill="#2F3470"/>
<path d="M182.464 212.459L182.352 213.316H171.432L171.32 212.459H182.464Z" fill="#2F3470"/>
<path d="M182.161 214.708L182.061 215.554H171.721L171.609 214.708H182.161Z" fill="#2F3470"/>
<path d="M181.878 216.956L181.778 217.791H172.018L171.906 216.956H181.878Z" fill="#2F3470"/>
<path d="M231.062 218.537H278.848L279.372 216.734C279.696 215.598 278.848 214.474 277.666 214.474H233.572C232.78 214.474 232.089 214.997 231.866 215.754L231.062 218.537Z" fill="#C11EA2"/>
<path d="M313.938 169.79L305.773 204.244L305.561 205.145L305.014 207.461C304.78 208.463 303.876 209.175 302.85 209.175H247.859C246.42 209.175 245.36 207.839 245.683 206.437L254.607 168.755C254.841 167.753 255.745 167.041 256.771 167.041H311.762C313.201 167.052 314.261 168.399 313.938 169.79Z" fill="#E527BB"/>
<path d="M305.773 204.244L305.561 205.145H248.461V204.244H305.773Z" fill="white"/>
<path d="M270.012 175.579C269.555 178.017 267.201 179.998 264.758 179.998C262.316 179.998 260.698 178.017 261.155 175.579C261.613 173.141 263.966 171.159 266.409 171.159C268.852 171.159 270.469 173.141 270.012 175.579Z" fill="#F8B200"/>
<path d="M265.005 174.733C264.916 175.223 264.671 175.612 264.459 175.612C264.247 175.612 264.146 175.211 264.236 174.733C264.325 174.243 264.57 173.853 264.782 173.853C265.005 173.853 265.106 174.243 265.005 174.733Z" fill="#242645"/>
<path d="M267.326 174.733C267.236 175.223 266.991 175.612 266.779 175.612C266.567 175.612 266.467 175.211 266.556 174.733C266.645 174.243 266.891 173.853 267.103 173.853C267.315 173.853 267.415 174.243 267.326 174.733Z" fill="#242645"/>
<path d="M265.212 177.738C263.305 177.738 263.227 175.835 263.227 175.824C263.227 175.724 263.305 175.612 263.416 175.59C263.528 175.568 263.617 175.635 263.617 175.735C263.617 175.801 263.695 177.349 265.279 177.349C266.874 177.349 267.521 175.801 267.554 175.735C267.599 175.635 267.711 175.568 267.811 175.59C267.911 175.612 267.956 175.712 267.911 175.824C267.911 175.835 267.119 177.738 265.212 177.738Z" fill="#242645"/>
<path d="M287.214 189.594C286.957 191.965 284.815 193.891 282.439 193.891C280.064 193.891 278.346 191.965 278.613 189.594C278.87 187.223 281.012 185.297 283.388 185.297C285.763 185.297 287.481 187.223 287.214 189.594Z" fill="white"/>
<path d="M258.961 167.052L249.457 209.175H247.851C246.412 209.175 245.352 207.839 245.676 206.437L254.599 168.755C254.833 167.753 255.737 167.041 256.774 167.041H258.961V167.052Z" fill="#C11EA2"/>
<path d="M274.892 209.186L273.219 218.548H278.729L280.402 209.186H274.892Z" fill="#E527BB"/>
<path d="M264.972 216.934L266.098 215.353C266.5 214.786 267.158 214.452 267.85 214.452H282.953C283.756 214.452 284.481 214.897 284.86 215.598L285.619 217.045C285.976 217.724 285.485 218.537 284.715 218.537H265.808C264.972 218.548 264.492 217.602 264.972 216.934Z" fill="#C11EA2"/>
<path d="M344.044 118.894C344.044 118.894 342.181 113.495 341.3 109.9C340.697 107.417 339.738 105.525 340.541 104.612C341.344 103.699 343.754 108.352 343.966 108.775C344.166 109.187 344.044 118.894 344.044 118.894Z" fill="#FF9783"/>
<path d="M344.254 119.752H352.229C352.497 119.262 352.687 118.716 352.787 118.149C353.044 116.713 353.468 115.165 354.126 114.063C355.721 111.414 358.978 109.276 359.491 106.939C360.004 104.601 359.301 104.445 357.628 105.658C355.955 106.883 353.122 109.499 353.122 109.499C353.122 109.499 355.799 104.979 357.472 103.766C359.145 102.542 359.234 100.682 357.026 100.939C354.817 101.183 350.824 105.547 350.043 107.061C350.043 107.061 350.98 103.844 353.189 102.119C355.397 100.393 356.725 99.5136 357.149 98.4561C357.572 97.3985 355.609 96.7306 352.575 99.2242C349.552 101.718 348.035 103.421 347.299 105.18C347.299 105.18 347.321 103.632 347.901 101.161C348.482 98.6898 351.203 96.8976 350.869 95.4059C350.523 93.892 347.489 96.0961 346.362 98.0553C345.236 100.015 344.243 101.35 343.864 104.222C343.484 107.095 343.217 109.844 343.406 111.614C343.551 112.972 343.484 117.08 344.254 119.752Z" fill="#FF9783"/>
<path d="M370.772 297.964L369.734 310.209L378.836 310.354L380.911 298.576L370.772 297.964Z" fill="#E59B72"/>
<path d="M348.427 324.636L381.701 324.469C381.947 324.024 382.08 323.378 382.125 322.621C382.315 319.816 381.4 315.33 380.943 312.514C380.887 312.18 380.842 311.879 380.809 311.601C380.742 311.133 380.708 310.732 380.708 310.443C380.697 308.139 378.656 308.539 378.656 308.539C375.31 311.846 371.473 306.925 369.253 308.562C369.253 308.562 368.293 309.252 365.672 311.634C363.04 314.016 358.556 315.608 354.741 317.222C349.811 319.304 348.427 321.375 348.16 322.788C347.937 323.913 348.427 324.636 348.427 324.636Z" fill="#A78BEF"/>
<path d="M348.426 324.636L381.699 324.469C381.945 324.024 382.079 323.378 382.123 322.621L348.147 322.788C347.935 323.913 348.426 324.636 348.426 324.636Z" fill="#2F3470"/>
<path d="M378.298 324.481H379.291C378.298 323.356 377.372 321.642 377.473 319.171C377.618 315.887 379.581 313.671 380.942 312.514C380.886 312.18 380.841 311.879 380.808 311.601C379.335 312.736 376.859 315.219 376.681 319.148C376.58 321.497 377.361 323.245 378.298 324.481Z" fill="#2F3470"/>
<path d="M366.229 313.593C366.475 313.593 366.698 313.426 366.753 313.17C366.82 312.881 366.642 312.58 366.352 312.514L364.266 312.013C363.976 311.946 363.675 312.124 363.608 312.413C363.541 312.703 363.719 313.003 364.009 313.07L366.095 313.571C366.14 313.582 366.184 313.593 366.229 313.593Z" fill="white"/>
<path d="M368.518 311.79C368.764 311.79 368.987 311.623 369.042 311.367C369.109 311.078 368.931 310.777 368.641 310.71L366.555 310.209C366.265 310.143 365.964 310.321 365.897 310.61C365.83 310.9 366.008 311.2 366.298 311.267L368.384 311.768C368.429 311.79 368.474 311.79 368.518 311.79Z" fill="white"/>
<path d="M364.151 314.807C364.396 314.807 364.619 314.64 364.675 314.384C364.742 314.094 364.564 313.794 364.274 313.727L362.188 313.226C361.898 313.159 361.597 313.337 361.53 313.627C361.463 313.916 361.641 314.217 361.931 314.283L364.017 314.784C364.062 314.807 364.106 314.807 364.151 314.807Z" fill="white"/>
<path d="M362.081 315.976C362.326 315.976 362.549 315.809 362.605 315.553C362.672 315.263 362.493 314.963 362.203 314.896L360.117 314.395C359.827 314.328 359.526 314.506 359.459 314.796C359.392 315.085 359.571 315.386 359.861 315.452L361.947 315.953C361.991 315.976 362.036 315.976 362.081 315.976Z" fill="white"/>
<path d="M359.823 317.055C360.068 317.055 360.291 316.888 360.347 316.632C360.414 316.343 360.236 316.042 359.946 315.976L357.86 315.475C357.57 315.408 357.268 315.586 357.202 315.875C357.135 316.165 357.313 316.465 357.603 316.532L359.689 317.033C359.734 317.055 359.778 317.055 359.823 317.055Z" fill="white"/>
<path d="M357.37 317.99C357.615 317.99 357.838 317.824 357.894 317.567C357.961 317.278 357.782 316.977 357.492 316.911L355.407 316.41C355.117 316.343 354.815 316.521 354.748 316.811C354.681 317.1 354.86 317.401 355.15 317.467L357.236 317.968C357.28 317.979 357.325 317.99 357.37 317.99Z" fill="white"/>
<path d="M370.046 234.055C369.912 235.135 369.789 236.126 369.7 236.983C369.678 237.206 369.656 237.428 369.633 237.673C368.719 248.449 369.533 285.63 369.812 297.252C369.823 297.641 369.834 297.997 369.834 298.331C369.879 299.879 369.711 302.216 369.711 302.216L380.832 303.163C380.832 303.163 381.2 300.858 381.49 299.367C381.569 299.01 381.647 298.61 381.736 298.187C382.974 291.997 385.629 278.717 387.893 267.062C390.972 251.254 390.314 241.848 390.314 241.848C390.314 241.848 389.689 238.074 392.054 228.912C394.017 221.32 402.439 198.01 404.814 189.995C405.294 188.381 403.666 186.611 403.666 186.611C403.666 186.611 388.205 175.98 383.007 180.722C382.606 181.089 381.223 184.618 380.966 185.141C380.33 186.455 379.572 188.603 378.758 191.286C375.389 202.463 371.474 223.246 370.046 234.055Z" fill="black"/>
<path d="M376.739 237.907C373.013 238.942 370.057 237.272 369.934 237.206C369.678 237.061 369.589 236.727 369.734 236.471C369.879 236.215 370.213 236.126 370.47 236.27C370.514 236.293 373.314 237.84 376.683 236.805C376.962 236.716 377.263 236.872 377.352 237.161C377.441 237.439 377.285 237.74 376.995 237.829C376.906 237.862 376.817 237.885 376.739 237.907Z" fill="black"/>
<path d="M380.213 298.866C380.414 298.899 380.592 298.754 380.626 298.565C380.671 298.276 384.92 269.221 386.437 260.494C387.72 253.135 388.166 238.708 388.189 237.84C391.669 223.992 400.849 188.67 400.938 188.314C400.983 188.125 400.871 187.924 400.682 187.88C400.492 187.835 400.291 187.946 400.247 188.136C400.157 188.492 390.955 223.881 387.486 237.706C387.475 237.729 387.475 237.762 387.475 237.784C387.475 237.929 387.04 252.879 385.724 260.371C384.195 269.099 379.945 298.164 379.901 298.454C379.879 298.654 380.012 298.843 380.213 298.866Z" fill="black"/>
<path d="M415.266 300.391L415.712 310.61L426.119 310.799L425.372 301.192L415.266 300.391Z" fill="#E59B72"/>
<path d="M428.48 322.332C428.48 322.41 428.48 322.488 428.48 322.566C428.469 322.922 428.458 323.245 428.447 323.523C428.413 324.135 428.369 324.503 428.369 324.503H408.146C408.146 324.503 408.045 323.723 408.123 322.566C408.257 320.506 408.938 317.244 411.738 315.096C415.563 312.146 414.08 312.758 414.872 311.422C414.961 311.278 415.653 308.985 415.72 308.829C416.378 307.437 416.98 306.769 420.605 306.769C425.413 306.769 425.837 309.096 426.35 310.32C426.562 310.832 426.852 311.901 427.153 313.17C427.276 313.682 427.398 314.228 427.51 314.784C427.811 316.176 428.079 317.623 428.268 318.781C428.458 320.027 428.492 321.297 428.48 322.332Z" fill="#A78BEF"/>
<path d="M428.481 322.332C428.481 322.41 428.481 322.488 428.481 322.566C428.47 322.922 428.459 323.245 428.448 323.523C427.466 322.833 426.764 321.92 426.351 320.807C425.102 317.4 427.02 313.326 427.109 313.148L427.154 313.17C427.277 313.682 427.399 314.228 427.511 314.784C427.054 316.176 426.529 318.502 427.254 320.484C427.511 321.196 427.924 321.82 428.481 322.332Z" fill="#2F3470"/>
<path d="M428.484 322.566C428.461 323.712 428.361 324.503 428.361 324.503H408.138C408.138 324.503 408.038 323.723 408.116 322.566H428.484Z" fill="#2F3470"/>
<path d="M421.253 313.059C421.209 313.059 421.153 313.048 421.108 313.037C418.532 312.369 416.446 312.936 416.424 312.936C416.111 313.025 415.799 312.836 415.71 312.536C415.62 312.224 415.81 311.912 416.111 311.823C416.212 311.801 418.532 311.177 421.398 311.912C421.711 311.99 421.889 312.302 421.811 312.614C421.744 312.892 421.51 313.059 421.253 313.059Z" fill="white"/>
<path d="M421.589 310.732C421.545 310.732 421.489 310.721 421.444 310.71C418.868 310.042 416.782 310.61 416.759 310.61C416.447 310.699 416.135 310.51 416.046 310.209C415.956 309.897 416.146 309.586 416.447 309.497C416.548 309.474 418.868 308.851 421.734 309.586C422.047 309.664 422.225 309.975 422.147 310.287C422.08 310.565 421.846 310.732 421.589 310.732Z" fill="white"/>
<path d="M420.399 314.884C420.354 314.884 420.298 314.873 420.253 314.862C417.699 314.205 415.591 314.762 415.569 314.762C415.267 314.851 414.944 314.662 414.866 314.361C414.777 314.061 414.966 313.738 415.267 313.649C415.368 313.627 417.688 313.003 420.555 313.738C420.867 313.816 421.045 314.127 420.967 314.439C420.889 314.717 420.655 314.884 420.399 314.884Z" fill="white"/>
<path d="M419.383 316.955C419.338 316.955 419.282 316.944 419.238 316.933C416.683 316.276 414.575 316.833 414.553 316.833C414.241 316.922 413.928 316.732 413.85 316.432C413.761 316.131 413.951 315.808 414.252 315.719C414.352 315.697 416.672 315.074 419.539 315.808C419.851 315.886 420.03 316.198 419.952 316.51C419.874 316.788 419.639 316.955 419.383 316.955Z" fill="white"/>
<path d="M401.659 194.169C402.239 194.292 402.807 194.414 403.399 194.536C410.828 196.039 418.624 196.64 424.079 195.494C426.767 194.926 428.496 192.01 429.589 188.759C429.89 187.868 430.091 186.944 430.359 186.054C432.958 177.226 431.631 169.924 431.631 169.924L388.34 169.211C388.34 169.211 387.002 171.382 385.518 174.221C384.447 176.269 383.298 178.662 382.518 180.833C382.518 180.833 382.518 180.833 382.518 180.844C382.049 182.135 381.726 183.36 381.625 184.362C381.302 187.579 390.85 191.765 401.659 194.169Z" fill="black"/>
<path d="M404.642 238.129C404.675 239.22 404.709 240.211 404.753 241.068C404.764 241.291 404.776 241.513 404.798 241.77C405.579 252.556 412.16 289.158 414.246 300.602C414.324 300.981 414.38 301.337 414.435 301.66C414.714 303.185 414.881 304.053 414.881 304.053L426.014 303.263C426.014 303.263 426.058 302.394 426.114 300.88C426.136 300.513 426.147 300.112 426.17 299.678C426.426 293.366 426.984 279.841 427.408 267.985C427.988 251.889 425.869 242.705 425.869 242.705C425.869 242.705 424.664 239.076 425.579 229.658C426.337 221.854 429.025 197.008 430.118 188.726C430.342 187.056 430.442 185.731 430.442 185.731C430.442 185.731 412.996 181.167 408.602 186.666C408.256 187.089 407.988 187.59 407.821 188.147C407.397 189.549 406.984 191.776 406.605 194.559C404.999 206.091 404.363 227.22 404.642 238.129Z" fill="black"/>
<path d="M411.653 240.311C407.927 241.346 404.971 239.677 404.848 239.61C404.592 239.465 404.503 239.131 404.648 238.875C404.793 238.619 405.127 238.53 405.384 238.675C405.428 238.697 408.228 240.244 411.597 239.209C411.876 239.12 412.177 239.276 412.266 239.565C412.355 239.844 412.199 240.144 411.909 240.233C411.831 240.256 411.742 240.289 411.653 240.311Z" fill="black"/>
<path d="M414.25 300.602C414.317 300.981 414.384 301.337 414.44 301.66L426.118 300.88C426.13 300.513 426.152 300.112 426.174 299.678L414.25 300.602Z" fill="black"/>
<path d="M426.272 201.55C426.428 201.55 426.573 201.438 426.618 201.282C426.663 201.093 426.54 200.904 426.35 200.859C426.317 200.848 424.32 200.37 422.268 198.689C419.524 196.44 418.007 193.223 417.75 189.126C417.739 188.937 417.572 188.781 417.382 188.792C417.192 188.803 417.036 188.97 417.047 189.16C417.382 194.536 419.836 197.609 421.844 199.245C424.019 201.026 426.105 201.516 426.183 201.538C426.216 201.538 426.239 201.55 426.272 201.55Z" fill="black"/>
<path d="M424.765 300.58C424.777 300.58 424.777 300.58 424.765 300.58C424.966 300.58 425.122 300.413 425.122 300.213C425.122 299.912 424.799 270.557 424.944 261.707C425.067 254.237 423.26 239.922 423.159 239.053C424.442 224.827 428.011 188.514 428.056 188.147C428.078 187.946 427.933 187.768 427.733 187.757C427.532 187.735 427.353 187.88 427.342 188.08C427.309 188.447 423.728 224.827 422.445 239.031C422.445 239.053 422.445 239.087 422.445 239.109C422.468 239.254 424.364 254.082 424.23 261.696C424.085 270.557 424.409 299.923 424.409 300.224C424.409 300.424 424.576 300.58 424.765 300.58Z" fill="black"/>
<path d="M369.812 297.262C369.824 297.652 369.835 298.008 369.835 298.331L381.491 299.366C381.558 299.01 381.636 298.621 381.725 298.186L369.812 297.262Z" fill="black"/>
<path d="M405.055 194.236C405.188 194.225 405.3 194.136 405.356 194.013C405.423 193.824 405.333 193.624 405.155 193.546C405.099 193.523 401.084 191.898 399.823 187.534C399.767 187.345 399.567 187.234 399.377 187.29C399.187 187.345 399.076 187.546 399.132 187.735C400.492 192.466 404.709 194.147 404.898 194.225C404.932 194.236 404.999 194.247 405.055 194.236Z" fill="black"/>
<path d="M396.749 95.4504C396.749 95.4504 410.67 96.4301 416.192 99.5136C423.665 103.677 424.201 129.648 426.8 140.858C429.387 152.068 434.909 172.05 431.284 181.111C429.321 186.032 391.161 186.811 382.728 183.827C378.278 182.258 381.189 152.001 377.33 139.422C373.459 126.843 369.231 118.449 369.811 112.827C370.28 108.263 383.264 101.328 383.264 101.328L396.749 95.4504Z" fill="#A78BEF"/>
<path d="M428.966 177.326C429.201 177.326 429.402 177.137 429.413 176.892C429.625 166.662 427.94 156.32 424.259 145.255C420.088 132.743 418.994 113.807 418.983 113.618C418.972 113.373 418.76 113.184 418.515 113.206C418.269 113.217 418.091 113.429 418.102 113.673C418.113 113.863 419.217 132.91 423.423 145.533C427.07 156.498 428.743 166.751 428.531 176.87C428.52 177.126 428.721 177.326 428.966 177.326Z" fill="#2F3470"/>
<path d="M412.745 167.619C408.228 167.619 403.186 166.35 397.832 163.823C391.574 160.873 387.023 157.222 386.978 157.188C386.789 157.033 386.755 156.743 386.911 156.554C387.068 156.365 387.358 156.331 387.547 156.487C387.592 156.521 392.065 160.116 398.233 163.022C403.877 165.682 412.143 168.287 419.427 165.593C419.661 165.504 419.917 165.627 420.007 165.86C420.096 166.094 419.973 166.35 419.739 166.439C417.597 167.23 415.255 167.619 412.745 167.619Z" fill="#2F3470"/>
<path d="M411.844 175.356C407.037 175.356 403.021 174.053 400.322 172.829C396.763 171.215 394.7 169.456 394.61 169.378C394.421 169.211 394.399 168.933 394.566 168.743C394.733 168.554 395.012 168.532 395.202 168.699C395.28 168.766 403.434 175.679 414.945 174.265C415.19 174.232 415.425 174.41 415.447 174.655C415.48 174.899 415.302 175.133 415.057 175.155C413.941 175.3 412.87 175.356 411.844 175.356Z" fill="#2F3470"/>
<path d="M391.498 107.707C387.46 107.707 384.236 105.102 384.08 104.979C383.89 104.824 383.857 104.534 384.013 104.345C384.169 104.156 384.459 104.122 384.649 104.278C384.705 104.323 388.374 107.273 392.535 106.738C394.911 106.427 397.008 105.046 398.77 102.619C398.915 102.419 399.205 102.375 399.406 102.519C399.607 102.664 399.652 102.953 399.507 103.154C397.588 105.792 395.279 107.295 392.647 107.64C392.256 107.685 391.877 107.707 391.498 107.707Z" fill="#2F3470"/>
<path d="M375.954 83.8064C375.954 83.8064 374.749 84.0624 374.704 85.6432C374.66 87.2239 375.764 89.7175 377.292 89.2054C378.832 88.6933 375.954 83.8064 375.954 83.8064Z" fill="#D17360"/>
<path d="M395.664 75.9139C395.664 75.9139 398.14 70.6039 396.49 68.1326C394.839 65.6724 393.846 67.0639 393.846 67.0639C393.846 67.0639 394.816 63.9692 392.597 63.1677C390.377 62.3662 389.395 64.3032 389.395 64.3032C389.395 64.3032 386.629 60.4293 383.729 61.7206C380.818 63.023 382.413 65.2494 382.413 65.2494C382.413 65.2494 377.282 62.3328 375.006 64.5481C372.731 66.7634 374.738 68.3552 374.738 68.3552C374.738 68.3552 369.685 66.3737 368.325 70.6039C366.964 74.8341 371.124 75.0567 371.124 75.0567C371.124 75.0567 365.748 76.1922 367.912 78.541C370.076 80.8899 375.675 77.4835 375.675 77.4835C375.675 77.4835 392.63 73.3646 395.664 75.9139Z" fill="#231F20"/>
<path d="M398.21 96.0072C398.021 98.3004 394.987 101.428 393.18 102.286C390.369 103.621 387.324 103.711 384.792 102.775L383.855 98.4005L383.665 97.51L383.297 95.8179L392.477 86.6118L393.001 86.0774L393.358 85.7212L393.581 86.0774L393.838 86.4893L393.827 86.6897C395.5 90.764 396.002 93.2798 398.21 96.0072Z" fill="#FF9783"/>
<path d="M384.601 101.862C388.661 99.9478 390.212 95.7176 390.769 93.4355C389.029 95.5729 386.732 97.2093 384.4 97.4765C384.144 97.5099 383.898 97.521 383.664 97.521L384.601 101.862Z" fill="#D17360"/>
<path d="M383.659 97.51C383.893 97.51 384.138 97.4988 384.395 97.4655C388.957 96.9534 393.374 91.1759 393.82 86.6785C393.832 86.6118 393.832 86.545 393.832 86.4782C393.843 86.3223 393.854 86.1776 393.854 86.0329C393.876 86.0218 393.899 86.0218 393.91 86.0106C396.765 85.0421 399.097 81.1571 397.68 78.8194C396.91 77.5503 395.984 77.3165 395.192 77.439C395.271 76.1143 395.259 74.8341 395.07 73.7543C394.334 69.4573 389.861 64.1362 381.963 67.4536C374.066 70.7709 372.772 77.3388 374.289 81.235C375.159 83.4614 375.895 85.7435 376.364 87.2908C376.52 87.814 376.654 88.2482 376.743 88.5821C376.866 88.994 376.921 89.2278 376.921 89.2278C377.178 92.8568 379.264 97.51 383.659 97.51Z" fill="#FF9783"/>
<path d="M395.209 77.45C395.209 77.45 393.335 77.6058 392.409 78.886C391.472 80.1773 392.03 82.9603 390.524 83.3722C389.03 83.7841 390.312 78.1958 389.342 77.3386C388.371 76.4815 385.438 77.8173 385.092 73.8655C384.902 71.6391 377.183 74.2551 375.912 76.1475C374.629 78.04 372.621 79.7766 372.51 77.2941C372.398 74.8117 377.016 67.3755 381.98 66.3514C386.955 65.3272 392.32 65.5165 394.529 70.2587C396.748 75.0009 395.209 77.45 395.209 77.45Z" fill="#231F20"/>
<path d="M391.682 86.1665C391.938 86.3892 392.206 86.5339 392.485 86.6118C392.976 86.7677 393.478 86.7454 393.823 86.6786C393.835 86.6118 393.835 86.545 393.835 86.4782C393.846 86.3224 393.857 86.1777 393.857 86.033C393.879 86.0218 393.901 86.0218 393.913 86.0107C393.823 86.033 393.712 86.0552 393.578 86.0664C393.411 86.0886 393.21 86.0997 392.998 86.0664C392.697 86.033 392.362 85.9216 392.083 85.6767C391.949 85.5654 391.749 85.5765 391.637 85.7101C391.537 85.8548 391.548 86.0441 391.682 86.1665Z" fill="#D17360"/>
<path d="M394.026 83.7732C394.138 83.7175 394.216 83.5839 394.194 83.4503C393.915 81.2351 396.123 79.5207 396.146 79.5096C396.279 79.4094 396.313 79.209 396.201 79.0643C396.101 78.9307 395.9 78.8973 395.755 79.0087C395.655 79.0866 393.245 80.9456 393.569 83.5283C393.591 83.6952 393.747 83.8177 393.926 83.8066C393.959 83.7954 393.993 83.7843 394.026 83.7732Z" fill="#D17360"/>
<path d="M396.253 81.7582C396.287 81.7359 396.32 81.7136 396.354 81.6802C396.465 81.5467 396.454 81.3463 396.32 81.235C396.287 81.2016 395.417 80.4891 394.223 80.9233C394.056 80.9789 393.978 81.1682 394.033 81.324C394.089 81.491 394.279 81.5689 394.435 81.5133C395.294 81.2016 395.896 81.7025 395.907 81.7136C396.008 81.8027 396.142 81.825 396.253 81.7582Z" fill="#D17360"/>
<path d="M379.083 107.729C375.324 106.393 371.185 108.341 369.847 112.093L369.758 112.338L369.434 113.251L369.066 114.241C368.821 114.909 368.564 115.577 368.308 116.245C367.783 117.581 367.259 118.917 366.701 120.241C366.422 120.898 366.132 121.555 365.854 122.212C365.564 122.869 365.274 123.514 364.972 124.16C364.381 125.451 363.745 126.709 363.121 127.956C362.485 129.203 361.816 130.416 361.135 131.585C360.789 132.164 360.432 132.743 360.076 133.31C359.719 133.878 359.362 134.424 358.994 134.969C358.257 136.038 357.488 137.051 356.707 137.952C356.517 138.186 356.316 138.398 356.116 138.609L355.826 138.921L355.681 139.077C355.67 138.977 355.647 138.888 355.636 138.787C355.201 136.06 354.889 133.155 354.61 130.227C354.487 128.757 354.342 127.288 354.231 125.807L353.874 121.41L353.863 121.277C353.84 120.976 353.784 119.607 353.718 119.317H342.284C342.228 119.551 342.184 120.876 342.15 121.121L342.083 121.744L342.028 122.345C341.994 122.746 341.95 123.136 341.916 123.536C341.849 124.327 341.793 125.117 341.738 125.908C341.648 127.488 341.559 129.069 341.537 130.661C341.459 133.845 341.492 137.051 341.76 140.401C341.894 142.082 342.095 143.786 342.44 145.656C342.63 146.591 342.842 147.559 343.199 148.661C343.299 148.951 343.377 149.218 343.5 149.519C343.556 149.674 343.612 149.808 343.678 149.975L343.89 150.454C344.203 151.122 344.56 151.845 345.196 152.725C345.374 152.958 345.564 153.192 345.753 153.426C345.776 153.448 345.798 153.482 345.831 153.515L345.921 153.615L346.099 153.804C346.222 153.927 346.344 154.06 346.478 154.183L346.523 154.227L346.579 154.283L346.701 154.383L346.947 154.584C347.114 154.717 347.281 154.84 347.449 154.973C347.649 155.107 347.861 155.24 348.073 155.374C348.185 155.441 348.285 155.496 348.397 155.552L348.564 155.641C348.62 155.675 348.687 155.697 348.754 155.73C349.01 155.853 349.267 155.953 349.523 156.053C349.657 156.098 349.791 156.153 349.914 156.198C350.059 156.242 350.204 156.276 350.349 156.32C350.639 156.398 350.929 156.454 351.23 156.498C351.52 156.543 351.821 156.565 352.111 156.587C352.401 156.599 352.714 156.61 352.992 156.587C353.26 156.565 353.539 156.543 353.807 156.498C353.941 156.476 354.074 156.454 354.208 156.432L354.364 156.398L354.42 156.387L354.654 156.331C355.893 156.064 357.053 155.675 358.135 155.218C360.31 154.294 362.15 153.092 363.757 151.823C364.548 151.188 365.307 150.52 365.999 149.853L366.266 149.596L366.523 149.34C366.69 149.173 366.857 148.995 367.025 148.828C367.348 148.483 367.672 148.138 367.973 147.793C369.211 146.402 370.315 144.977 371.33 143.541C373.372 140.68 375.034 137.73 376.551 134.769C377.309 133.288 378.001 131.796 378.659 130.294C379.328 128.791 379.953 127.288 380.533 125.774C381.124 124.26 381.682 122.735 382.195 121.199C382.451 120.431 382.708 119.651 382.942 118.872L383.299 117.692L383.478 117.091L383.656 116.423C384.604 112.828 382.663 108.998 379.083 107.729ZM356.997 144.364C356.986 144.353 356.975 144.331 356.975 144.32C356.963 144.298 356.952 144.264 356.93 144.242C356.919 144.22 356.908 144.197 356.897 144.164C357.008 144.353 357.019 144.387 356.997 144.364Z" fill="#A78BEF"/>
<path d="M374.541 137.351C374.574 137.351 374.619 137.351 374.652 137.351C374.898 137.318 375.065 137.095 375.031 136.85C375.009 136.683 372.789 120.62 371.808 116.089C371.752 115.855 371.518 115.7 371.283 115.755C371.049 115.811 370.893 116.045 370.949 116.278C371.93 120.776 374.139 136.806 374.161 136.973C374.184 137.173 374.351 137.318 374.541 137.351Z" fill="#2F3470"/>
<path d="M348.066 127.054C347.531 127.01 346.973 126.909 346.404 126.776C344.05 126.219 342.277 125.128 342.199 125.084C342.009 124.961 341.953 124.716 342.065 124.527C342.188 124.338 342.433 124.282 342.623 124.394C342.69 124.438 349.449 128.557 353.643 124.46C353.799 124.305 354.056 124.305 354.212 124.472C354.368 124.627 354.368 124.883 354.201 125.039C352.639 126.598 350.531 127.277 348.066 127.054Z" fill="#2F3470"/>
<path d="M357.943 145.723C357.72 145.7 357.564 145.511 357.575 145.288C357.742 142.539 355.757 139.5 355.745 139.466C355.623 139.277 355.678 139.032 355.857 138.91C356.047 138.787 356.292 138.843 356.415 139.021C356.504 139.155 358.567 142.327 358.378 145.344C358.367 145.567 358.166 145.734 357.943 145.723Z" fill="#2F3470"/>
<path d="M360.752 142.483C360.651 142.472 360.551 142.427 360.473 142.338C360.462 142.327 359.123 140.747 356.413 140.346C356.19 140.312 356.034 140.112 356.067 139.889C356.1 139.667 356.301 139.511 356.524 139.544C359.558 139.99 361.031 141.748 361.098 141.826C361.243 142.004 361.209 142.249 361.042 142.394C360.964 142.461 360.863 142.494 360.752 142.483Z" fill="#2F3470"/>
<path d="M385.055 159.526L364.531 121.499L388.893 108.074L411.09 145.277L385.055 159.526Z" fill="#E527BB"/>
<path d="M391.423 136.027C390.107 138.453 387.084 139.344 384.686 138.019C382.276 136.683 381.406 133.633 382.723 131.206C384.039 128.78 387.062 127.889 389.46 129.225C391.869 130.55 392.739 133.6 391.423 136.027Z" fill="white"/>
<path d="M410.157 126.097C410.279 126.119 410.458 126.152 410.614 126.186L411.093 126.286L412.053 126.486C412.689 126.631 413.336 126.765 413.982 126.898C415.265 127.165 416.548 127.422 417.831 127.666C420.385 128.156 422.917 128.59 425.36 128.869C425.974 128.935 426.576 129.002 427.167 129.047C427.758 129.091 428.338 129.125 428.896 129.147C429.454 129.169 430 129.169 430.513 129.147C431.027 129.136 431.495 129.091 431.908 129.036C432.309 128.98 432.655 128.891 432.845 128.813C432.934 128.769 433.001 128.746 432.99 128.724C432.99 128.724 433.001 128.713 432.979 128.713C432.967 128.713 432.956 128.713 432.945 128.713C432.945 128.713 432.9 128.724 432.889 128.724C432.878 128.724 432.867 128.735 432.856 128.735L432.822 128.757L432.755 128.791C432.599 128.88 432.376 129.025 432.164 129.203C431.941 129.392 431.707 129.637 431.506 129.926C431.294 130.216 431.116 130.527 430.993 130.85C430.859 131.162 430.781 131.451 430.736 131.707C430.692 131.952 430.67 132.164 430.67 132.331C430.658 132.487 430.67 132.609 430.67 132.687C430.681 132.854 430.681 132.887 430.658 132.865C430.614 132.809 430.469 132.52 430.257 132.197C430.045 131.863 429.777 131.474 429.465 131.073C428.851 130.26 428.115 129.37 427.323 128.49C426.531 127.611 425.684 126.709 424.802 125.83C423.932 124.939 423.018 124.049 422.103 123.158C420.251 121.388 418.344 119.629 416.414 117.87L413.503 115.243L410.625 112.672L410.547 112.605C407.669 110.033 407.435 105.625 410 102.764C412.432 100.059 416.526 99.7029 419.392 101.84L419.85 102.174L420.274 102.497L421.11 103.143C421.668 103.577 422.203 104.022 422.75 104.467C423.296 104.913 423.832 105.358 424.367 105.814C424.903 106.271 425.438 106.727 425.962 107.184C428.071 109.031 430.145 110.946 432.164 112.972C434.183 114.998 436.146 117.113 438.065 119.484C439.013 120.676 439.961 121.922 440.876 123.336C441.333 124.049 441.791 124.806 442.226 125.663C442.661 126.52 443.107 127.466 443.486 128.691C443.676 129.303 443.843 130.004 443.943 130.839C443.999 131.251 444.021 131.718 444.021 132.208C444.021 132.709 443.977 133.255 443.876 133.834C443.776 134.424 443.609 135.036 443.352 135.67C443.096 136.294 442.761 136.917 442.359 137.485C441.958 138.041 441.501 138.554 441.021 138.965C440.552 139.377 440.062 139.722 439.604 139.978L439.426 140.079L439.348 140.123L439.281 140.157L439.024 140.29C438.857 140.368 438.678 140.468 438.511 140.535L438.02 140.747C437.853 140.813 437.697 140.869 437.541 140.925C436.894 141.147 436.314 141.292 435.745 141.414C434.618 141.637 433.603 141.715 432.666 141.726C430.781 141.76 429.13 141.57 427.557 141.314C425.985 141.058 424.501 140.702 423.062 140.312C420.184 139.522 417.485 138.542 414.841 137.463C413.525 136.917 412.231 136.338 410.948 135.726C410.313 135.414 409.677 135.103 409.041 134.78C408.729 134.624 408.416 134.446 408.093 134.279L407.613 134.023L407.123 133.745C405.126 132.631 404.401 130.115 405.516 128.112C406.397 126.531 408.16 125.752 409.844 126.041L410.157 126.097Z" fill="#A78BEF"/>
<path d="M411.3 127.755C411.077 126.943 409.75 126.364 408.958 125.585C407.92 124.561 406.046 123.347 404.808 122.946C402.956 122.334 397.379 120.831 395.963 121.633C394.546 122.423 399.253 124.093 400.201 124.449C401.161 124.805 401.674 125.407 401.674 125.407C401.674 125.407 390.586 122.412 389.538 123.169C388.489 123.926 394.624 126.253 396.141 126.82C396.141 126.82 387.664 125.028 387.151 125.718C386.113 127.099 395.472 129.358 395.472 129.358C395.472 129.358 388.266 128.212 388.11 129.403C387.943 130.661 395.673 131.863 395.673 131.863C395.673 131.863 390.865 131.807 390.263 132.765C389.66 133.733 399.744 134.635 401.317 134.579C402.89 134.535 406.682 135.693 408.69 135.281C410.062 135.025 411.992 130.316 411.3 127.755Z" fill="#FF9783"/>
<path d="M422.111 123.369C421.999 123.447 421.832 123.447 421.709 123.369C421.62 123.314 413.098 117.436 409.506 114.52C409.361 114.397 409.328 114.174 409.45 114.03C409.573 113.885 409.796 113.852 409.941 113.974C413.51 116.868 422.01 122.735 422.099 122.791C422.256 122.902 422.3 123.113 422.189 123.28C422.178 123.314 422.144 123.347 422.111 123.369Z" fill="#2F3470"/>
<path d="M413.332 117.303C413.276 117.336 413.209 117.358 413.131 117.358L409.963 117.325C409.773 117.325 409.617 117.169 409.617 116.969C409.617 116.779 409.773 116.624 409.974 116.624L413.142 116.657C413.332 116.657 413.488 116.813 413.488 117.013C413.488 117.136 413.432 117.236 413.332 117.303Z" fill="#2F3470"/>
<path d="M434.86 129.559C434.771 129.615 434.659 129.615 434.559 129.57C432.294 128.568 428.535 129.203 428.502 129.203C428.323 129.236 428.145 129.114 428.123 128.935C428.089 128.757 428.212 128.579 428.39 128.557C428.558 128.524 432.384 127.889 434.827 128.969C434.994 129.047 435.072 129.236 434.994 129.403C434.96 129.47 434.916 129.525 434.86 129.559Z" fill="#2F3470"/>
<path d="M430.834 128.969C430.722 129.036 430.588 129.025 430.477 128.947C430.332 128.835 430.287 128.635 430.399 128.479C431.904 126.353 433.767 126.364 433.845 126.375C434.024 126.375 434.18 126.531 434.169 126.709C434.169 126.887 434.013 127.032 433.834 127.032C433.767 127.032 432.239 127.032 430.945 128.858C430.912 128.913 430.867 128.947 430.834 128.969Z" fill="#2F3470"/>
<path d="M316.653 88.1171C333.55 87.1798 346.487 72.7495 345.547 55.8862C344.608 39.0229 330.149 26.1123 313.252 27.0497C296.354 27.987 283.418 42.4172 284.357 59.2806C285.296 76.1439 299.755 89.0544 316.653 88.1171Z" fill="white"/>
<path d="M343.055 55.854L358.214 69.6466C359.374 70.7041 358.738 72.6299 357.177 72.7969L335.805 75.0901L343.055 55.854Z" fill="white"/>
<path d="M189.771 66.8791C191.691 51.4428 180.709 37.3757 165.241 35.4594C149.774 33.5431 135.678 44.5032 133.758 59.9395C131.838 75.3758 142.82 89.4429 158.288 91.3592C173.755 93.2755 187.85 82.3154 189.771 66.8791Z" fill="#A78BEF"/>
<path d="M189.986 63.4127C189.986 47.8613 177.348 35.2488 161.766 35.2488" stroke="#33383C" stroke-width="0.5653" stroke-miterlimit="10" stroke-linecap="round" stroke-linejoin="round"/>
<path d="M161.765 86.3112C174.437 86.3112 184.71 76.0592 184.71 63.4127C184.71 50.7662 174.437 40.5142 161.765 40.5142C149.093 40.5142 138.82 50.7662 138.82 63.4127C138.82 76.0592 149.093 86.3112 161.765 86.3112Z" fill="white"/>
<path d="M179.85 49.3418C175.645 43.9762 169.097 40.5142 161.757 40.5142C149.108 40.5142 138.812 50.789 138.812 63.4127C138.812 76.0364 149.108 86.3112 161.757 86.3112" stroke="#33383C" stroke-width="0.5653" stroke-miterlimit="10" stroke-linecap="round" stroke-linejoin="round"/>
<path d="M160.185 64.5148C160.241 64.6818 160.386 64.8154 160.564 64.8711L178.646 70.2701C178.947 70.3591 179.271 70.1921 179.36 69.8804C179.449 69.5799 179.282 69.2571 178.969 69.168L161.323 63.9026L162.215 50.3327C162.238 50.021 161.992 49.7427 161.68 49.7204C161.368 49.6981 161.089 49.943 161.066 50.2547L160.141 64.2811C160.152 64.359 160.163 64.4369 160.185 64.5148Z" fill="#33383C"/>
<path d="M303.426 123.303V140.78C303.426 143.096 301.552 144.966 299.232 144.966H267.42L257.816 148.406C256.834 148.762 255.886 147.793 256.265 146.814L259.902 137.452V123.303C259.902 120.988 261.775 119.117 264.096 119.117H299.232C301.541 119.117 303.426 120.988 303.426 123.303Z" fill="#E527BB"/>
<path d="M264.094 119.117H299.23C301.55 119.117 303.424 120.988 303.424 123.303" stroke="#33383C" stroke-miterlimit="10" stroke-linecap="round" stroke-linejoin="round"/>
<path d="M275.795 132.543C275.795 134.212 274.434 135.57 272.761 135.57C271.087 135.57 269.727 134.212 269.727 132.543C269.727 130.873 271.087 129.515 272.761 129.515C274.434 129.515 275.795 130.862 275.795 132.543Z" fill="white"/>
<path d="M285.396 132.543C285.396 134.212 284.035 135.57 282.362 135.57C280.689 135.57 279.328 134.212 279.328 132.543C279.328 130.873 280.689 129.515 282.362 129.515C284.035 129.515 285.396 130.862 285.396 132.543Z" fill="white"/>
<path d="M295.006 132.543C295.006 134.212 293.645 135.57 291.972 135.57C290.298 135.57 288.938 134.212 288.938 132.543C288.938 130.873 290.298 129.515 291.972 129.515C293.645 129.515 295.006 130.862 295.006 132.543Z" fill="white"/>
<path d="M177.547 63.1455V106.794C177.547 109.143 179.454 111.046 181.808 111.046H216.442C218.796 111.046 220.703 109.143 220.703 106.794V63.1455H177.547Z" fill="white"/>
<path d="M192.085 95.6289H187.891V105.748H192.085V95.6289Z" fill="#E527BB"/>
<path d="M198.264 88.4377H194.07V105.737H198.264V88.4377Z" fill="#E527BB"/>
<path d="M205.124 83.1389H200.93V105.748H205.124V83.1389Z" fill="#E527BB"/>
<path d="M211.827 76.916H207.633V105.748H211.827V76.916Z" fill="#E527BB"/>
<path d="M220.692 61.5315V67.4203H177.547V61.5315C177.547 60.3626 178.495 59.4053 179.677 59.4053H218.573C219.744 59.4053 220.692 60.3626 220.692 61.5315Z" fill="#E527BB"/>
<path d="M210.248 63.0232C210.248 63.7913 209.624 64.4259 208.843 64.4259C208.073 64.4259 207.438 63.8025 207.438 63.0232C207.438 62.2551 208.062 61.6206 208.843 61.6206C209.613 61.6317 210.248 62.2551 210.248 63.0232Z" fill="white"/>
<path d="M214.787 63.0232C214.787 63.7913 214.163 64.4259 213.382 64.4259C212.601 64.4259 211.977 63.8025 211.977 63.0232C211.977 62.2551 212.601 61.6206 213.382 61.6206C214.163 61.6206 214.787 62.2551 214.787 63.0232Z" fill="white"/>
<path d="M219.147 63.0232C219.147 63.7913 218.522 64.4259 217.741 64.4259C216.972 64.4259 216.336 63.8025 216.336 63.0232C216.336 62.2551 216.961 61.6206 217.741 61.6206C218.511 61.6317 219.147 62.2551 219.147 63.0232Z" fill="white"/>
<path d="M141.162 304.621H112.094V308.606H141.162V304.621Z" fill="#DB2A40"/>
<path d="M141.208 308.662H112.039V304.576H141.208V308.662ZM112.139 308.561H141.108V304.676H112.139V308.561Z" fill="#1A2E35"/>
<path d="M114.781 307.281L118.964 327.887H134.447L138.496 308.606L114.781 307.281Z" fill="#ED3748"/>
<path d="M114.781 325.939L117.012 329H135.83L138.496 325.939H114.781Z" fill="#ED3748"/>
<path d="M125.535 307.882C125.479 307.882 125.401 298.342 125.367 286.576C125.334 274.798 125.356 265.258 125.412 265.258C125.468 265.258 125.546 274.798 125.579 286.576C125.602 298.342 125.59 307.882 125.535 307.882Z" fill="#1A2E35"/>
<path d="M132.003 284.004C132.014 284.004 131.981 284.082 131.925 284.227C131.858 284.394 131.769 284.594 131.668 284.839C131.612 284.973 131.546 285.129 131.479 285.285C131.423 285.452 131.356 285.63 131.289 285.83C131.222 286.03 131.144 286.231 131.066 286.453C130.988 286.676 130.932 286.91 130.854 287.166C130.542 288.157 130.285 289.37 130.04 290.717C129.828 292.075 129.672 293.578 129.594 295.159C129.449 298.331 129.627 301.203 129.828 303.274C129.917 304.309 130.017 305.144 130.084 305.723C130.118 305.99 130.14 306.213 130.162 306.391C130.174 306.547 130.185 306.625 130.174 306.625C130.162 306.625 130.151 306.547 130.118 306.391C130.084 306.213 130.051 306.001 130.006 305.734C129.917 305.155 129.794 304.32 129.683 303.285C129.449 301.214 129.248 298.331 129.393 295.148C129.471 293.556 129.638 292.042 129.861 290.684C130.118 289.325 130.385 288.112 130.72 287.121C130.798 286.876 130.865 286.632 130.954 286.409C131.044 286.186 131.122 285.986 131.2 285.786C131.278 285.596 131.345 285.418 131.412 285.251C131.479 285.084 131.557 284.939 131.624 284.817C131.746 284.572 131.847 284.372 131.925 284.216C131.958 284.071 131.992 284.004 132.003 284.004Z" fill="#1A2E35"/>
<path d="M131.262 276.29C131.274 276.29 131.24 276.401 131.173 276.602C131.095 276.824 130.995 277.114 130.872 277.492C130.805 277.681 130.727 277.904 130.649 278.127C130.582 278.36 130.504 278.616 130.415 278.895C130.247 279.451 130.047 280.075 129.868 280.776C129.779 281.132 129.678 281.5 129.578 281.878C129.489 282.268 129.4 282.668 129.31 283.08C129.11 283.915 128.965 284.817 128.775 285.752C128.451 287.644 128.173 289.737 127.983 291.953C127.805 294.168 127.715 296.283 127.693 298.198C127.682 300.123 127.715 301.849 127.793 303.307C127.816 304.031 127.86 304.688 127.905 305.266C127.938 305.845 127.972 306.335 128.016 306.747C128.05 307.137 128.072 307.448 128.083 307.682C128.095 307.894 128.106 308.005 128.095 308.005C128.083 308.005 128.072 307.894 128.039 307.682C128.016 307.448 127.972 307.137 127.927 306.747C127.883 306.346 127.827 305.845 127.782 305.266C127.738 304.688 127.682 304.031 127.637 303.307C127.537 301.849 127.503 300.112 127.492 298.186C127.514 296.261 127.581 294.146 127.771 291.919C127.961 289.704 128.251 287.6 128.585 285.707C128.775 284.761 128.931 283.86 129.143 283.025C129.243 282.613 129.333 282.201 129.433 281.822C129.545 281.444 129.645 281.077 129.734 280.72C129.924 280.019 130.125 279.385 130.303 278.839C130.392 278.561 130.482 278.305 130.549 278.071C130.638 277.837 130.716 277.626 130.794 277.436C130.939 277.069 131.05 276.78 131.129 276.557C131.218 276.39 131.262 276.279 131.262 276.29Z" fill="#1A2E35"/>
<path d="M123.7 309.575C123.7 309.575 123.689 309.541 123.689 309.463C123.678 309.374 123.678 309.274 123.667 309.129C123.644 308.829 123.622 308.406 123.577 307.86C123.51 306.747 123.41 305.166 123.287 303.207C123.031 299.289 122.674 293.856 122.005 287.901C121.67 284.917 121.279 282.09 120.867 279.518C120.655 278.238 120.454 277.014 120.231 275.889C120.03 274.754 119.807 273.696 119.606 272.739C119.417 271.77 119.205 270.913 119.026 270.145C118.859 269.377 118.692 268.731 118.558 268.197C118.435 267.674 118.324 267.262 118.257 266.972C118.223 266.839 118.201 266.739 118.179 266.65C118.167 266.572 118.156 266.538 118.156 266.538C118.156 266.538 118.167 266.572 118.19 266.65C118.212 266.728 118.245 266.839 118.279 266.961C118.357 267.251 118.48 267.663 118.614 268.186C118.759 268.72 118.937 269.366 119.116 270.123C119.294 270.88 119.517 271.748 119.718 272.705C119.93 273.663 120.164 274.72 120.376 275.856C120.61 276.991 120.811 278.205 121.034 279.496C121.458 282.067 121.848 284.895 122.194 287.878C122.852 293.845 123.198 299.278 123.41 303.196C123.522 305.155 123.588 306.747 123.633 307.849C123.655 308.384 123.667 308.807 123.678 309.118C123.678 309.252 123.678 309.363 123.689 309.452C123.7 309.53 123.7 309.575 123.7 309.575Z" fill="#1A2E35"/>
<path d="M125.292 269.845C125.169 268.498 123.797 267.473 122.436 267.462C121.075 267.451 119.804 268.264 118.978 269.332C118.142 270.412 117.684 271.715 117.316 273.028C116.401 276.212 115.899 279.563 116.29 282.847C116.68 286.142 118.019 289.381 120.384 291.697C120.763 292.075 121.265 292.454 121.789 292.342C122.079 292.276 122.313 292.086 122.536 291.886C127.188 287.7 129.865 281.422 129.686 275.177C129.653 273.93 129.486 272.628 128.794 271.581C128.091 270.535 126.474 269.433 125.292 269.845Z" fill="#1DA313"/>
<path d="M115.136 259.013C114.501 260.171 113.854 261.317 113.218 262.475C113.173 262.553 113.118 262.642 113.017 262.653C112.917 262.664 112.839 262.564 112.783 262.486C111.099 259.903 109.403 257.31 107.719 254.727L108.89 254.07L115.136 259.013Z" fill="#0F4C81"/>
<path d="M115.136 259.013C114.501 260.171 113.854 261.317 113.218 262.475C113.173 262.553 113.118 262.642 113.017 262.653C112.917 262.664 112.839 262.564 112.783 262.486C111.099 259.903 109.403 257.31 107.719 254.727L108.89 254.07L115.136 259.013Z" fill="#1B8C13"/>
<path d="M125.411 265.258C119.655 261.863 113.889 258.479 108.133 255.083C107.954 254.983 107.765 254.861 107.709 254.66C107.642 254.404 107.832 254.159 108.021 253.97C110.397 251.521 113.855 250.107 117.257 250.352C120.659 250.597 123.939 252.556 125.601 255.54C127.263 258.501 127.319 262.431 125.411 265.258Z" fill="#1DA313"/>
<path d="M110.617 251.833C110.617 251.822 110.695 251.822 110.84 251.799C110.985 251.788 111.208 251.766 111.498 251.766C112.067 251.755 112.893 251.788 113.897 251.955C114.9 252.122 116.083 252.445 117.31 252.991C118.537 253.536 119.82 254.326 120.98 255.362C122.129 256.408 123.043 257.599 123.713 258.768C124.382 259.937 124.817 261.072 125.085 262.052C125.352 263.032 125.475 263.844 125.508 264.412C125.542 264.69 125.531 264.913 125.542 265.069C125.542 265.214 125.542 265.291 125.542 265.291C125.52 265.291 125.497 264.98 125.43 264.423C125.363 263.867 125.218 263.054 124.94 262.097C124.393 260.171 123.121 257.588 120.835 255.518C118.548 253.447 115.837 252.445 113.863 252.1C112.87 251.922 112.056 251.855 111.487 251.844C110.93 251.844 110.617 251.855 110.617 251.833Z" fill="#1A2E35"/>
<path d="M123.065 258.234C123.076 258.256 122.741 258.412 122.195 258.635C121.648 258.846 120.879 259.124 120.02 259.403C119.161 259.67 118.369 259.892 117.8 260.037C117.22 260.182 116.863 260.249 116.852 260.215C116.841 260.182 117.186 260.071 117.755 259.892C118.391 259.692 119.138 259.458 119.953 259.202C120.767 258.935 121.514 258.701 122.15 258.49C122.708 258.312 123.054 258.212 123.065 258.234Z" fill="#1A2E35"/>
<path d="M120.344 250.942C120.4 250.942 120.522 251.8 120.545 252.868C120.578 253.937 120.489 254.805 120.433 254.805C120.377 254.805 120.355 253.937 120.333 252.879C120.322 251.811 120.288 250.942 120.344 250.942Z" fill="#1A2E35"/>
<path d="M107.977 254.894C107.966 254.872 108.445 254.694 109.237 254.449C110.018 254.204 111.111 253.903 112.338 253.603C113.554 253.313 114.669 253.08 115.484 252.946C116.298 252.801 116.8 252.746 116.8 252.768C116.8 252.801 116.309 252.913 115.506 253.091C114.703 253.269 113.599 253.514 112.383 253.803C111.167 254.093 110.074 254.382 109.282 254.582C108.479 254.794 107.988 254.916 107.977 254.894Z" fill="#1A2E35"/>
<path d="M117.439 266.65C115.955 265.525 114.382 265.303 112.52 265.381C110.657 265.458 108.839 266.026 107.132 266.772C104.221 268.041 101.477 269.922 99.7366 272.583C97.9965 275.243 97.3942 278.761 98.6881 281.655C98.8219 281.945 98.9892 282.245 99.2793 282.368C99.5916 282.502 99.9374 282.401 100.25 282.29C103.563 281.21 106.898 280.119 109.954 278.427C112.999 276.735 115.777 274.386 117.405 271.314C117.796 270.579 118.13 269.789 118.186 268.954C118.264 268.119 118.041 267.24 117.439 266.65Z" fill="#1DA313"/>
<path d="M117.474 266.293C117.474 266.304 117.396 266.338 117.24 266.393C117.061 266.46 116.827 266.538 116.548 266.627C116.392 266.683 116.225 266.738 116.046 266.794C115.868 266.861 115.667 266.939 115.455 267.028C115.031 267.195 114.552 267.362 114.038 267.618C113.782 267.74 113.503 267.863 113.224 267.985C112.945 268.119 112.666 268.275 112.365 268.431C111.763 268.72 111.161 269.098 110.514 269.488C109.242 270.29 107.903 271.258 106.587 272.394C105.293 273.54 104.156 274.754 103.196 275.911C102.739 276.501 102.282 277.058 101.914 277.614C101.724 277.893 101.534 278.149 101.367 278.416C101.2 278.683 101.043 278.928 100.898 279.173C100.586 279.652 100.352 280.108 100.14 280.498C100.028 280.698 99.928 280.876 99.8388 281.054C99.7607 281.221 99.6826 281.388 99.6045 281.533C99.4707 281.8 99.3591 282.023 99.2811 282.19C99.203 282.334 99.1584 282.412 99.1584 282.412C99.1472 282.412 99.1807 282.323 99.2476 282.167C99.3257 281.989 99.4149 281.767 99.5376 281.488C99.6045 281.344 99.6715 281.177 99.7495 280.999C99.8276 280.82 99.9392 280.642 100.04 280.431C100.252 280.03 100.475 279.563 100.776 279.084C100.921 278.839 101.077 278.583 101.233 278.316C101.4 278.049 101.59 277.793 101.78 277.503C102.148 276.935 102.594 276.379 103.051 275.778C104.011 274.609 105.148 273.384 106.453 272.227C107.77 271.08 109.13 270.111 110.413 269.31C111.071 268.931 111.685 268.553 112.287 268.264C112.588 268.119 112.878 267.963 113.157 267.829C113.447 267.707 113.715 267.585 113.983 267.473C114.507 267.228 114.998 267.072 115.422 266.917C115.633 266.839 115.834 266.761 116.013 266.705C116.202 266.649 116.37 266.605 116.526 266.549C116.816 266.471 117.05 266.405 117.229 266.349C117.385 266.315 117.474 266.293 117.474 266.293Z" fill="#1A2E35"/>
<path d="M105.862 272.572C105.873 272.627 104.256 273.151 102.248 273.729C100.24 274.319 98.5893 274.754 98.5782 274.698C98.567 274.642 100.184 274.119 102.192 273.54C104.2 272.95 105.851 272.516 105.862 272.572Z" fill="#1A2E35"/>
<path d="M105.719 280.531C105.685 280.531 105.663 280.097 105.641 279.407C105.618 278.717 105.618 277.748 105.652 276.691C105.685 275.633 105.741 274.676 105.797 273.974C105.852 273.284 105.908 272.85 105.942 272.861C105.975 272.861 105.964 273.295 105.942 273.986C105.919 274.743 105.886 275.678 105.852 276.691C105.83 277.715 105.808 278.639 105.786 279.396C105.763 280.108 105.741 280.531 105.719 280.531Z" fill="#1A2E35"/>
<path d="M112.556 277.058C112.501 277.058 112.322 275.11 112.155 272.694C111.988 270.279 111.898 268.319 111.954 268.319C112.01 268.319 112.188 270.267 112.356 272.683C112.523 275.099 112.612 277.058 112.556 277.058Z" fill="#1A2E35"/>
<path d="M104.039 268.13C104.039 268.097 104.485 268.086 105.199 268.097C105.913 268.097 106.895 268.119 107.988 268.163C109.081 268.197 110.062 268.241 110.776 268.286C111.49 268.33 111.925 268.364 111.925 268.397C111.925 268.431 111.479 268.442 110.765 268.431C110.051 268.431 109.059 268.408 107.977 268.364C106.883 268.33 105.902 268.286 105.188 268.241C104.474 268.208 104.039 268.163 104.039 268.13Z" fill="#1A2E35"/>
<path d="M121.118 292.632C121.107 292.632 121.107 292.554 121.096 292.398C121.085 292.22 121.074 291.997 121.062 291.719C121.04 291.129 121.029 290.283 121.051 289.225C121.074 288.168 121.14 286.921 121.263 285.529C121.397 284.138 121.598 282.624 121.877 281.043C122.167 279.463 122.501 277.96 122.858 276.613C123.226 275.266 123.594 274.064 123.94 273.073C124.286 272.082 124.587 271.281 124.81 270.735C124.922 270.479 125 270.279 125.078 270.112C125.145 269.967 125.178 269.9 125.178 269.9C125.19 269.9 125.167 269.978 125.111 270.123C125.056 270.29 124.978 270.501 124.888 270.757C124.688 271.314 124.409 272.115 124.085 273.117C123.762 274.119 123.405 275.321 123.048 276.657C122.702 278.004 122.367 279.496 122.089 281.077C121.81 282.657 121.609 284.171 121.464 285.552C121.33 286.932 121.241 288.179 121.207 289.236C121.163 290.283 121.152 291.14 121.152 291.73C121.152 292.008 121.14 292.231 121.14 292.409C121.14 292.554 121.129 292.632 121.118 292.632Z" fill="#1A2E35"/>
<path d="M122.037 280.865C122.06 280.887 121.792 281.177 121.346 281.622C120.9 282.067 120.264 282.668 119.539 283.303C118.814 283.938 118.133 284.483 117.642 284.873C117.141 285.262 116.817 285.474 116.806 285.451C116.784 285.429 117.074 285.173 117.553 284.75C118.089 284.294 118.713 283.748 119.416 283.136C120.108 282.524 120.732 281.978 121.257 281.511C121.725 281.099 122.015 280.843 122.037 280.865Z" fill="#1A2E35"/>
<path d="M127.496 285.262C127.474 285.273 127.195 284.884 126.76 284.249C126.292 283.559 125.7 282.702 125.053 281.767C124.395 280.832 123.793 279.986 123.313 279.307C122.867 278.672 122.588 278.283 122.611 278.271C122.633 278.249 122.945 278.617 123.425 279.229C123.905 279.841 124.54 280.687 125.221 281.656C125.901 282.624 126.481 283.526 126.883 284.183C127.295 284.828 127.53 285.251 127.496 285.262Z" fill="#1A2E35"/>
<path d="M124.647 271.436C124.68 271.481 122.862 272.705 120.586 274.164C118.311 275.622 116.448 276.769 116.415 276.713C116.381 276.668 118.199 275.444 120.475 273.985C122.739 272.527 124.613 271.381 124.647 271.436Z" fill="#1A2E35"/>
<path d="M129.766 276.947C129.721 276.991 128.494 275.856 127.022 274.408C125.539 272.972 124.379 271.77 124.423 271.726C124.468 271.681 125.695 272.817 127.167 274.264C128.64 275.711 129.8 276.913 129.766 276.947Z" fill="#1A2E35"/>
<path d="M131.047 276.847L132.609 276.713C133.713 276.624 134.795 276.29 135.754 275.756C136.234 275.488 136.713 275.221 137.226 275.021C139.156 274.253 141.309 274.386 143.384 274.286C146.775 274.119 150.121 273.262 153.177 271.793C153.356 271.704 153.512 271.581 153.601 271.403C153.925 270.824 153.322 270.301 152.809 269.989C150.177 268.375 147.511 266.739 144.521 265.937C141.543 265.136 138.163 265.269 135.62 267.017C132.642 269.054 131.56 273.262 131.047 276.847Z" fill="#1DA313"/>
<path d="M153.635 271.203C153.635 271.214 153.545 271.169 153.367 271.08C153.177 270.98 152.932 270.858 152.631 270.691C151.995 270.357 151.069 269.856 149.898 269.299C148.727 268.743 147.321 268.119 145.67 267.674C144.031 267.217 142.146 266.984 140.193 267.229C138.253 267.485 136.468 268.242 135.196 269.366C133.925 270.49 133.144 271.86 132.597 273.006C132.051 274.175 131.716 275.166 131.471 275.845C131.359 276.168 131.259 276.435 131.192 276.635C131.125 276.813 131.091 276.902 131.08 276.902C131.069 276.902 131.103 276.802 131.147 276.624C131.203 276.424 131.292 276.156 131.393 275.823C131.616 275.132 131.928 274.13 132.463 272.95C132.999 271.782 133.769 270.39 135.074 269.221C136.367 268.052 138.197 267.273 140.171 267.017C142.157 266.761 144.075 267.017 145.726 267.485C147.388 267.952 148.805 268.587 149.965 269.166C151.125 269.744 152.04 270.256 152.675 270.613C152.976 270.791 153.211 270.924 153.4 271.036C153.557 271.136 153.646 271.192 153.635 271.203Z" fill="#1A2E35"/>
<path d="M149.897 273.206C149.864 273.251 147.822 271.937 145.346 270.267C142.859 268.598 140.873 267.206 140.907 267.151C140.94 267.106 142.981 268.42 145.458 270.089C147.934 271.77 149.919 273.162 149.897 273.206Z" fill="#1A2E35"/>
<path d="M147.935 266.961C147.946 267.017 147.243 267.195 146.339 267.284C145.447 267.362 144.711 267.318 144.711 267.262C144.711 267.206 145.436 267.162 146.317 267.084C147.21 266.995 147.923 266.906 147.935 266.961Z" fill="#1A2E35"/>
<path d="M138.787 265.325C138.832 265.358 138.542 265.948 138.118 266.661C137.694 267.373 137.315 267.919 137.27 267.896C137.226 267.863 137.516 267.273 137.939 266.561C138.352 265.848 138.731 265.292 138.787 265.325Z" fill="#1A2E35"/>
<path d="M140.62 274.409C140.608 274.431 140.229 274.23 139.638 273.874C139.047 273.518 138.255 272.995 137.396 272.383C136.548 271.77 135.79 271.18 135.254 270.757C134.719 270.334 134.395 270.056 134.407 270.034C134.429 270.011 134.786 270.245 135.344 270.646C135.957 271.091 136.693 271.626 137.519 272.227C138.366 272.839 139.147 273.384 139.716 273.763C140.285 274.141 140.631 274.386 140.62 274.409Z" fill="#1A2E35"/>
<path d="M133.349 283.459C131.865 283.069 130.091 284.516 129.779 286.019C129.478 287.522 130.036 289.058 130.705 290.45C132.166 293.522 134.196 296.361 136.862 298.487C139.528 300.602 142.863 301.96 146.265 301.938C145.641 299.021 146.433 295.971 146.076 293.01C145.775 290.427 144.559 287.956 142.707 286.119C140.855 284.283 138.368 283.103 135.769 282.824C134.832 282.724 133.728 282.579 133.349 283.459Z" fill="#1DA313"/>
<path d="M146.268 301.927C146.268 301.938 146.19 301.905 146.056 301.827C145.922 301.749 145.733 301.637 145.498 301.459C145.03 301.103 144.494 300.424 144.026 299.5C143.792 299.044 143.524 298.543 143.267 297.986C143.011 297.43 142.743 296.84 142.464 296.216C142.185 295.593 141.873 294.958 141.483 294.324C141.092 293.7 140.635 293.088 140.133 292.487C139.118 291.296 138.025 290.261 137.077 289.27C136.129 288.29 135.325 287.344 134.745 286.476C134.165 285.618 133.808 284.85 133.608 284.305C133.507 284.027 133.44 283.815 133.407 283.67C133.373 283.526 133.351 283.448 133.362 283.448C133.385 283.448 133.463 283.748 133.686 284.283C133.909 284.817 134.277 285.563 134.868 286.398C135.459 287.244 136.262 288.168 137.222 289.136C138.17 290.116 139.274 291.14 140.3 292.353C140.813 292.954 141.282 293.578 141.672 294.224C142.063 294.858 142.375 295.515 142.654 296.138C142.933 296.762 143.189 297.352 143.435 297.908C143.68 298.454 143.948 298.966 144.171 299.422C144.617 300.346 145.119 301.025 145.565 301.393C145.989 301.771 146.279 301.916 146.268 301.927Z" fill="#1A2E35"/>
<path d="M138.568 299.511C138.546 299.511 138.59 299.122 138.702 298.509C138.813 297.897 139.014 297.062 139.271 296.149C139.527 295.237 139.806 294.424 140.029 293.834C140.252 293.255 140.409 292.899 140.431 292.91C140.453 292.921 140.353 293.288 140.163 293.878C139.974 294.468 139.728 295.292 139.472 296.205C139.215 297.118 139.003 297.942 138.847 298.543C138.702 299.144 138.602 299.511 138.568 299.511Z" fill="#1A2E35"/>
<path d="M145.983 292.353C145.972 292.387 145.581 292.275 144.934 292.108C144.299 291.941 143.406 291.708 142.425 291.496C141.443 291.273 140.539 291.106 139.892 290.984C139.246 290.862 138.833 290.784 138.844 290.75C138.844 290.728 139.257 290.75 139.915 290.839C140.573 290.928 141.476 291.073 142.469 291.296C143.462 291.518 144.343 291.774 144.979 291.975C145.604 292.175 145.983 292.331 145.983 292.353Z" fill="#1A2E35"/>
<path d="M133.044 294.435C133.022 294.435 133.077 293.99 133.2 293.277C133.334 292.565 133.535 291.596 133.814 290.528C134.092 289.459 134.382 288.513 134.617 287.834C134.851 287.155 135.018 286.743 135.041 286.743C135.074 286.754 134.951 287.177 134.751 287.878C134.55 288.568 134.282 289.526 134.003 290.583C133.724 291.641 133.501 292.609 133.334 293.311C133.189 294.001 133.077 294.435 133.044 294.435Z" fill="#1A2E35"/>
<path d="M142.573 286.119C142.562 286.175 140.711 286.03 138.424 285.785C136.137 285.54 134.297 285.307 134.297 285.24C134.308 285.184 136.16 285.329 138.446 285.574C140.733 285.819 142.573 286.064 142.573 286.119Z" fill="#1A2E35"/>
<path d="M141.212 308.595C141.212 308.65 134.687 308.695 126.634 308.695C118.58 308.695 112.055 308.65 112.055 308.595C112.055 308.539 118.58 308.495 126.634 308.495C134.676 308.495 141.212 308.539 141.212 308.595Z" fill="#375A64"/>
<path d="M136.654 316.977C136.654 317.033 132.259 317.078 126.827 317.078C121.395 317.078 117 317.033 117 316.977C117 316.922 121.395 316.877 126.827 316.877C132.259 316.877 136.654 316.922 136.654 316.977Z" fill="#375A64"/>
<path d="M136.834 318.18C136.834 318.235 132.439 318.28 127.007 318.28C121.575 318.28 117.18 318.235 117.18 318.18C117.18 318.124 121.575 318.079 127.007 318.079C132.428 318.079 136.834 318.124 136.834 318.18Z" fill="#375A64"/>
<path d="M136.839 315.987C136.839 316.042 132.288 316.087 126.677 316.087C121.067 316.087 116.516 316.042 116.516 315.987C116.516 315.931 121.067 315.886 126.677 315.886C132.288 315.886 136.839 315.931 136.839 315.987Z" fill="#375A64"/>
<path d="M315.435 72.3334C315.486 72.4015 315.552 72.4571 315.627 72.4958C315.703 72.5345 315.786 72.5553 315.871 72.5565H315.879C315.962 72.5565 316.045 72.5375 316.12 72.5008C316.195 72.4642 316.261 72.4109 316.313 72.3451C316.769 71.7629 327.492 57.9892 327.492 49.2658C327.492 46.1875 326.268 43.2352 324.09 41.0585C321.912 38.8818 318.959 37.6589 315.879 37.6589C312.799 37.6589 309.845 38.8818 307.667 41.0585C305.489 43.2352 304.266 46.1875 304.266 49.2658C304.266 52.6067 306.152 57.5124 309.872 63.8458C312.621 68.5248 315.407 72.2959 315.435 72.3334ZM315.879 38.762C318.665 38.7651 321.336 39.8728 323.306 41.8421C325.277 43.8113 326.385 46.4813 326.388 49.2661C326.388 56.6314 317.944 68.3401 315.89 71.0793C313.86 68.2342 305.369 55.944 305.369 49.2661C305.372 46.4813 306.48 43.8113 308.451 41.8421C310.421 39.8728 313.092 38.7651 315.879 38.762Z" fill="#DAA7EE" stroke="#DAA7EE"/>
<path d="M322.555 49.266C322.555 47.9464 322.163 46.6564 321.43 45.5591C320.696 44.4618 319.654 43.6065 318.434 43.1015C317.214 42.5964 315.872 42.4643 314.577 42.7217C313.282 42.9791 312.092 43.6145 311.159 44.5476C310.225 45.4808 309.589 46.6696 309.331 47.9639C309.074 49.2582 309.206 50.5998 309.711 51.819C310.217 53.0382 311.072 54.0803 312.17 54.8135C313.268 55.5466 314.558 55.938 315.879 55.938C317.649 55.936 319.346 55.2325 320.597 53.9817C321.849 52.7309 322.553 51.035 322.555 49.266ZM315.879 54.8349C314.777 54.8349 313.699 54.5082 312.783 53.8963C311.867 53.2843 311.153 52.4145 310.731 51.3969C310.309 50.3792 310.199 49.2594 310.414 48.1791C310.629 47.0988 311.16 46.1065 311.939 45.3277C312.718 44.5488 313.711 44.0184 314.792 43.8036C315.873 43.5887 316.993 43.6991 318.011 44.1206C319.03 44.5422 319.9 45.256 320.512 46.1719C321.124 47.0878 321.451 48.1646 321.451 49.266C321.449 50.7425 320.861 52.158 319.817 53.202C318.772 54.2459 317.356 54.8332 315.879 54.8349Z" fill="#DAA7EE" stroke="#DAA7EE"/>
<path d="M321.503 68.7964C321.36 68.7822 321.217 68.8247 321.104 68.9148C320.992 69.0049 320.919 69.1354 320.901 69.2784C320.884 69.4214 320.923 69.5657 321.01 69.6802C321.098 69.7948 321.226 69.8707 321.369 69.8916C326.12 70.4743 327.658 71.5737 327.658 72.0146C327.658 72.8426 323.5 74.454 315.877 74.454C308.254 74.454 304.096 72.8413 304.096 72.0146C304.096 71.5418 305.603 70.5746 309.65 69.9896C309.792 69.9655 309.919 69.8868 310.003 69.7705C310.088 69.6541 310.124 69.5092 310.104 69.3667C310.083 69.2243 310.007 69.0954 309.893 69.0078C309.779 68.9201 309.635 68.8806 309.492 68.8975C306.528 69.3265 302.992 70.215 302.992 72.0146C302.992 74.6138 310.697 75.5572 315.877 75.5572C321.056 75.5572 328.762 74.6138 328.762 72.0146C328.761 69.9893 324.214 69.1292 321.503 68.7964Z" fill="#DAA7EE" stroke="#DAA7EE"/>
</g>
</g>
<defs>
<clipPath id="clip0_2068_11754">
<rect width="542.64" height="328.79" fill="white"/>
</clipPath>
<clipPath id="clip1_2068_11754">
<rect width="346" height="302" fill="white" transform="translate(98 27)"/>
</clipPath>
</defs>
</svg>
