<svg width="21" height="22" viewBox="0 0 21 22" fill="none" xmlns="http://www.w3.org/2000/svg">
<path d="M15.7217 14.0361C15.87 14.0362 16.0123 14.0954 16.1172 14.2002C16.2222 14.3052 16.2812 14.4482 16.2812 14.5967C16.2812 14.7451 16.2221 14.8872 16.1172 14.9922C16.0122 15.0971 15.8701 15.1562 15.7217 15.1562H12.9766L12.8906 15.1621C12.6933 15.1841 12.508 15.2726 12.3672 15.415C12.2062 15.578 12.1163 15.7983 12.1162 16.0273C12.1162 16.2564 12.2063 16.4766 12.3672 16.6396C12.5282 16.8027 12.7474 16.8956 12.9766 16.8984H18.3633C19.0796 16.9197 19.6305 17.1985 20.001 17.6162C20.3686 18.0307 20.549 18.5716 20.5488 19.1074C20.5485 19.6435 20.3677 20.1854 20 20.6006C19.6295 21.0188 19.0786 21.2977 18.3633 21.3203L18.3574 21.3213V21.3203H7.7207C7.57217 21.3203 7.42925 21.2613 7.32422 21.1562C7.21946 21.0513 7.16017 20.9091 7.16016 20.7607C7.1602 20.6123 7.21922 20.4693 7.32422 20.3643C7.42923 20.2593 7.57225 20.2002 7.7207 20.2002H18.3564C18.6448 20.1988 18.9206 20.0833 19.124 19.8789C19.3274 19.6745 19.4424 19.3978 19.4424 19.1094C19.4422 18.8211 19.3274 18.5442 19.124 18.3398C18.9461 18.1612 18.7125 18.0502 18.4639 18.0244L18.3564 18.0186H12.9678C10.353 17.9369 10.3346 14.1116 12.9678 14.0361H15.7217ZM6.01172 14.4922C6.66314 14.5576 7.27609 14.8456 7.74316 15.3125C8.27704 15.8464 8.57712 16.5712 8.57812 17.3262L8.57129 17.4746C8.53941 17.8235 8.4001 18.1914 8.21484 18.5449C8.00123 18.9524 7.71568 19.3602 7.42676 19.7266C6.84966 20.4582 6.24264 21.0443 6.11523 21.165C6.01126 21.2638 5.87288 21.3193 5.72949 21.3193C5.58619 21.3193 5.44866 21.2637 5.34473 21.165C5.21806 21.0451 4.60985 20.4589 4.03223 19.7266C3.74335 19.3603 3.45773 18.9524 3.24414 18.5449C3.05891 18.1914 2.91956 17.8234 2.8877 17.4746L2.88086 17.3262C2.88186 16.5712 3.18196 15.8464 3.71582 15.3125C4.24977 14.7787 4.97445 14.4784 5.72949 14.4775L6.01172 14.4922ZM5.72949 15.5977C5.27125 15.5977 4.83189 15.7805 4.50781 16.1045C4.18382 16.4285 4.00113 16.868 4.00098 17.3262C4.00098 17.4647 4.05509 17.6548 4.16602 17.8877C4.27524 18.1169 4.43208 18.3716 4.61719 18.6338C4.94465 19.0975 5.3556 19.5726 5.72949 19.9639C6.10349 19.5726 6.51524 19.0976 6.84277 18.6338C7.02785 18.3717 7.18375 18.1169 7.29297 17.8877C7.40393 17.6547 7.45801 17.4647 7.45801 17.3262C7.45785 16.8682 7.27592 16.4285 6.95215 16.1045C6.62803 15.7805 6.18778 15.5977 5.72949 15.5977ZM5.73047 16.1865C6.03006 16.1869 6.31741 16.3058 6.5293 16.5176C6.74115 16.7295 6.86002 17.0177 6.86035 17.3174C6.86021 17.5408 6.79403 17.7596 6.66992 17.9453C6.54577 18.1309 6.36936 18.2758 6.16309 18.3613C5.95659 18.4468 5.72897 18.4693 5.50977 18.4258C5.29051 18.3822 5.08877 18.2742 4.93066 18.1162C4.7728 17.9583 4.66481 17.757 4.62109 17.5381C4.57751 17.319 4.6002 17.0912 4.68555 16.8848C4.77105 16.6783 4.91585 16.5012 5.10156 16.377C5.2875 16.2527 5.50684 16.1865 5.73047 16.1865ZM5.66992 17.0127C5.60978 17.0247 5.55411 17.0543 5.51074 17.0977C5.46747 17.141 5.43773 17.1968 5.42578 17.2568C5.41401 17.3167 5.42005 17.3791 5.44336 17.4355C5.46686 17.4921 5.5067 17.5412 5.55762 17.5752C5.60859 17.6092 5.66918 17.6269 5.73047 17.627C5.8125 17.6268 5.89116 17.5941 5.94922 17.5361C6.00721 17.4781 6.03978 17.3994 6.04004 17.3174C6.04004 17.2561 6.02226 17.1955 5.98828 17.1445C5.95422 17.0935 5.90527 17.0538 5.84863 17.0303C5.79211 17.0069 5.72992 17.0008 5.66992 17.0127ZM0 11.0352C0.197333 -0.355448 15.579 -3.09485 19.8145 7.19629L20.0078 7.69629L20.0098 7.70215C20.0328 7.77292 20.0413 7.8477 20.0352 7.92188C20.029 7.99615 20.0081 8.06868 19.9736 8.13477C19.9392 8.20084 19.8923 8.26004 19.835 8.30762C19.7776 8.35514 19.7109 8.39048 19.6396 8.41211C19.5686 8.43367 19.4938 8.44116 19.4199 8.43359C19.3458 8.42593 19.2734 8.40296 19.208 8.36719C19.1427 8.33143 19.0855 8.28286 19.0391 8.22461C18.9955 8.16995 18.963 8.10769 18.9424 8.04102V8.04199C15.4158 -1.62812 1.29797 0.735897 1.12012 11.042C1.11696 12.8143 1.63248 14.5489 2.60254 16.0322L2.60449 16.0352C2.68263 16.1594 2.70896 16.3097 2.67773 16.4531C2.64644 16.5965 2.56023 16.7223 2.4375 16.8027C2.31466 16.8831 2.16449 16.9125 2.02051 16.8838C1.87662 16.8551 1.74958 16.7707 1.66699 16.6494L1.66504 16.6465C0.574758 14.9798 -0.0041027 13.0297 0 11.0381V11.0352ZM17.998 8.33105C18.6496 8.39651 19.2624 8.68436 19.7295 9.15137C20.2634 9.68532 20.5636 10.4099 20.5645 11.165L20.5576 11.3135C20.5257 11.6624 20.3865 12.0302 20.2012 12.3838C19.9875 12.7914 19.7021 13.199 19.4131 13.5654C18.8357 14.2974 18.2286 14.8836 18.1016 15.0039C17.9976 15.1026 17.8592 15.1582 17.7158 15.1582C17.5725 15.1582 17.435 15.1026 17.3311 15.0039C17.2048 14.8843 16.5964 14.2981 16.0186 13.5654C15.7296 13.1991 15.4441 12.7913 15.2305 12.3838C15.0452 12.0302 14.9059 11.6624 14.874 11.3135L14.8672 11.165C14.8681 10.4099 15.1682 9.68532 15.7021 9.15137C16.2361 8.61742 16.9607 8.31728 17.7158 8.31641L17.998 8.33105ZM17.7158 9.43652C17.2575 9.43656 16.8182 9.61928 16.4941 9.94336C16.1701 10.2674 15.9874 10.7067 15.9873 11.165C15.9873 11.3036 16.0413 11.4935 16.1523 11.7266C16.2616 11.9559 16.4183 12.2104 16.6035 12.4727C16.931 12.9364 17.3419 13.4115 17.7158 13.8027C18.0899 13.4114 18.5015 12.9366 18.8291 12.4727C19.0143 12.2104 19.17 11.9558 19.2793 11.7266C19.3904 11.4935 19.4443 11.3036 19.4443 11.165C19.4443 10.7069 19.2623 10.2674 18.9385 9.94336C18.6143 9.61926 18.1742 9.43652 17.7158 9.43652ZM10.2842 3.27637C10.3576 3.2764 10.4302 3.2903 10.498 3.31836C10.5659 3.34646 10.6277 3.38752 10.6797 3.43945C10.7317 3.49146 10.7736 3.55314 10.8018 3.62109C10.8299 3.68906 10.8438 3.76237 10.8438 3.83594V9.50293C11.0645 9.58291 11.2673 9.70749 11.4355 9.87305C11.6414 10.0756 11.7899 10.3298 11.8662 10.6084C11.9424 10.8869 11.9431 11.1808 11.8691 11.46C11.7951 11.7391 11.6486 11.994 11.4443 12.1982C11.2401 12.4024 10.9852 12.549 10.7061 12.623C10.4269 12.697 10.133 12.6954 9.85449 12.6191C9.57595 12.5429 9.32269 12.3943 9.12012 12.1885C8.95477 12.0204 8.83098 11.8181 8.75098 11.5977H4.88281C4.7343 11.5977 4.59135 11.5386 4.48633 11.4336C4.38131 11.3286 4.32227 11.1856 4.32227 11.0371C4.32232 10.8888 4.38151 10.7466 4.48633 10.6416C4.59136 10.5366 4.73428 10.4775 4.88281 10.4775H8.75098C8.8326 10.2546 8.95921 10.0506 9.12793 9.88184C9.29671 9.71306 9.50068 9.58556 9.72363 9.50391V3.83594C9.7236 3.76237 9.73847 3.68907 9.7666 3.62109C9.79473 3.55326 9.83576 3.49138 9.8877 3.43945C9.93966 3.38751 10.0015 3.34648 10.0693 3.31836C10.1371 3.29031 10.2099 3.27641 10.2832 3.27637H10.2842ZM17.7168 10.0244C18.0163 10.0248 18.3038 10.1437 18.5156 10.3555C18.7275 10.5674 18.8463 10.8556 18.8467 11.1553C18.8466 11.3787 18.7804 11.5974 18.6562 11.7832C18.5321 11.9689 18.3558 12.1137 18.1494 12.1992C17.9429 12.2848 17.7154 12.3073 17.4961 12.2637C17.2768 12.22 17.0751 12.1122 16.917 11.9541C16.7591 11.7961 16.6511 11.595 16.6074 11.376C16.5639 11.1568 16.5864 10.9291 16.6719 10.7227C16.7574 10.5162 16.9021 10.339 17.0879 10.2148C17.2738 10.0906 17.4932 10.0244 17.7168 10.0244ZM10.2832 10.5176C10.1807 10.5177 10.0804 10.5476 9.99512 10.6045C9.90962 10.6616 9.84211 10.7429 9.80273 10.8379C9.76339 10.9329 9.75341 11.0378 9.77344 11.1387C9.7935 11.2396 9.84329 11.3325 9.91602 11.4053C9.98874 11.4779 10.0818 11.5278 10.1826 11.5479C10.2833 11.5678 10.3876 11.5568 10.4824 11.5176C10.5774 11.4782 10.6587 11.4116 10.7158 11.3262C10.773 11.2406 10.8037 11.14 10.8037 11.0371C10.8034 10.8994 10.7487 10.7674 10.6514 10.6699C10.5538 10.5724 10.4212 10.5178 10.2832 10.5176ZM17.6562 10.8506C17.5961 10.8625 17.5404 10.8922 17.4971 10.9355C17.4537 10.9789 17.4241 11.0346 17.4121 11.0947C17.4003 11.1547 17.4064 11.217 17.4297 11.2734C17.4531 11.3301 17.493 11.379 17.5439 11.4131C17.595 11.4472 17.6554 11.4648 17.7168 11.4648C17.7989 11.4647 17.8775 11.4321 17.9355 11.374C17.9936 11.316 18.0262 11.2374 18.0264 11.1553C18.0263 11.094 18.0087 11.0334 17.9746 10.9824C17.9405 10.9315 17.8916 10.8916 17.835 10.8682C17.7785 10.8448 17.7162 10.8387 17.6562 10.8506Z" fill="url(#paint0_linear_2172_4118)"/>
<defs>
<linearGradient id="paint0_linear_2172_4118" x1="13.8556" y1="14.2365" x2="13.8556" y2="21.1209" gradientUnits="userSpaceOnUse">
<stop stop-color="#E527BB"/>
<stop offset="1" stop-color="#A78BEF"/>
</linearGradient>
</defs>
</svg>
