<svg width="543" height="329" viewBox="0 0 543 329" fill="none" xmlns="http://www.w3.org/2000/svg">
<g clip-path="url(#clip0_2068_8996)">
<path opacity="0.2" d="M78.788 327.839C41.4882 290.535 -9.49424 252.012 10.4949 193.818C23.6478 155.541 55.8804 144.88 82.6859 121.276C95.9087 109.631 87.5932 92.6757 87.3433 75.8481C86.7836 32.7513 139.135 -0.687543 187.269 0.010739C239.401 0.768031 261.969 48.9102 305.705 51.4968C322.876 51.7426 338.257 42.4781 353.449 35.1314C398.465 13.3371 469.906 27.2339 473.514 79.9296C474.444 108.392 439.183 154.174 474.514 169.143C502.668 181.072 531.113 185.469 536.19 228.133C542.837 283.976 507.716 314.621 461.971 329L78.788 327.839Z" fill="#999999"/>
<path d="M338.976 142.299C335.86 153.592 330.619 168.324 325.229 180.871L323.289 180.531C330.058 165.441 337.543 144.46 340.844 119.342C344.175 94.0089 343.387 62.4026 357.432 49.8377C369.126 39.3858 409.99 44.7043 423.373 46.7815C425.044 47.0441 425.659 49.1274 424.393 50.2495C418.15 55.7829 404.827 68.7955 401.604 81.641C397.359 98.5693 381.667 109.684 367.442 112.955C353.218 116.22 345.333 119.24 338.976 142.299Z" fill="#39B039"/>
<path d="M405.43 54.432C396.865 55.0707 388.448 57.4464 380.76 61.38C376.91 63.3319 373.305 65.7912 370.058 68.6743C366.834 71.5812 363.975 74.9179 361.737 78.6546L360.907 80.0573C360.632 80.5289 360.406 81.0183 360.149 81.5018C359.91 81.9853 359.647 82.4748 359.421 82.9583L358.746 84.4088C357.845 86.3428 356.949 88.2827 356.078 90.2286C354.329 94.1205 352.64 98.0422 351.01 101.988C347.751 109.879 344.737 117.871 342.212 126.043C342.152 126.24 342.26 126.449 342.456 126.509C342.648 126.568 342.844 126.467 342.916 126.282L342.922 126.27C344.396 122.289 345.948 118.319 347.572 114.386C349.178 110.446 350.837 106.524 352.532 102.626L355.099 96.7827L357.731 90.9688C358.609 89.0288 359.504 87.1008 360.406 85.1728L361.08 83.7283C361.307 83.2448 361.552 82.7971 361.784 82.3256C362.023 81.8659 362.244 81.3884 362.501 80.9348L363.289 79.5858C365.408 75.9864 368.153 72.7929 371.21 69.9397C372.768 68.5489 374.379 67.1999 376.11 66.018L376.749 65.5644L377.406 65.1346C377.847 64.8481 378.277 64.5496 378.725 64.275C379.626 63.7319 380.521 63.1827 381.453 62.6932C385.135 60.6578 389.069 59.07 393.092 57.7747C397.115 56.4913 401.276 55.5363 405.466 55.023H405.484C405.645 55.005 405.765 54.8558 405.747 54.6887C405.729 54.5335 405.586 54.4201 405.43 54.432Z" fill="url(#paint0_linear_2068_8996)"/>
<path d="M362.387 148.648C360.208 162.287 363.826 167.648 365.915 172.644C366.285 173.533 366.816 174.781 367.395 176.279L365.473 177.18C364.93 175.002 364.261 172.865 363.438 170.841C357.767 156.993 349.965 132.478 355.141 113.186C360.316 93.8937 372.493 86.6293 394.489 91.6195C412.82 95.7739 423.666 97.123 429.032 95.7978C430.363 95.4695 431.623 96.5499 431.545 97.9168C431.121 105.193 428.483 122.683 413.106 128.765C393.48 136.537 364.566 135.009 362.387 148.648Z" fill="#39B039"/>
<path opacity="0.5" d="M396.847 110.822C395.318 110.315 393.778 109.933 392.215 109.604C390.657 109.276 389.075 109.008 387.487 108.828C384.311 108.464 381.07 108.405 377.853 108.822C376.247 109.037 374.642 109.378 373.078 109.879C371.52 110.392 369.998 111.079 368.595 111.968C368.249 112.201 367.891 112.416 367.562 112.673C367.234 112.929 366.894 113.18 366.583 113.449L364.787 115.09L363.109 116.857L361.569 118.749C359.605 121.352 358.119 124.324 357.182 127.434C356.227 130.55 355.863 133.797 355.809 137.003L355.791 138.208C355.779 138.608 355.821 139.008 355.833 139.408C355.881 140.208 355.899 141.008 355.964 141.808L356.221 144.189C356.287 144.983 356.46 145.765 356.585 146.553C357.086 149.699 357.868 152.785 358.722 155.835C358.77 156.008 358.949 156.104 359.116 156.056C359.277 156.008 359.379 155.847 359.343 155.686V155.674C358.71 152.588 358.053 149.508 357.713 146.386C357.492 144.834 357.409 143.27 357.277 141.712C357.236 140.93 357.242 140.154 357.218 139.372C357.218 138.984 357.188 138.59 357.212 138.202L357.266 137.038C357.397 133.934 357.874 130.86 358.8 127.936C359.725 125.005 361.169 122.271 363.014 119.829L364.476 118.057L366.07 116.397L367.783 114.851C368.07 114.601 368.368 114.386 368.661 114.153C368.953 113.92 369.275 113.729 369.58 113.514C370.839 112.708 372.218 112.076 373.651 111.586C375.083 111.091 376.582 110.739 378.098 110.5C381.136 110.022 384.264 109.969 387.374 110.16C388.932 110.267 390.49 110.41 392.041 110.625C393.587 110.846 395.145 111.121 396.662 111.455H396.673C396.853 111.497 397.032 111.383 397.073 111.204C397.103 111.043 397.008 110.876 396.847 110.822Z" fill="white"/>
<path d="M167.311 93.1595C167.311 83.5732 175.082 75.8074 184.663 75.8074H332.249C340.39 75.8074 347.106 82.1883 347.517 90.3182L358.411 304.292C358.733 310.655 353.725 316.021 347.356 316.141L178.204 319.215C172.217 319.322 167.305 314.499 167.305 308.512L167.311 93.1595Z" fill="#E527BB"/>
<path d="M179.406 79.0963C179.388 76.0282 182.086 73.6584 185.125 74.0703C205.276 76.8041 274.583 85.2564 331.887 80.8572C334.501 80.6542 336.769 82.6359 336.907 85.2564L348.332 300.185C348.487 303.134 346.236 305.653 343.294 305.826C319.196 307.253 219.942 312.768 184.54 309.055C182.385 308.829 180.749 307.014 180.737 304.847L179.406 79.0963Z" fill="#C76FE9"/>
<path d="M181.781 84.4865C181.763 81.5378 184.36 79.2516 187.285 79.6456C206.678 82.278 273.377 90.4079 328.519 86.1758C331.032 85.9848 333.217 87.8889 333.348 90.4079L344.343 297.243C344.493 300.078 342.326 302.501 339.491 302.675C316.301 304.047 220.783 309.354 186.718 305.785C184.647 305.57 183.071 303.821 183.059 301.737L181.781 84.4865Z" fill="#DAA7EE"/>
<path opacity="0.78" d="M200.003 100.13L202.063 144.474C202.128 145.949 203.322 147.125 204.797 147.166C213.01 147.399 238.6 148.02 253.051 147.268C254.686 147.184 255.976 145.859 256.035 144.224C256.31 135.909 256.913 111.704 255.021 101.586C254.716 99.9509 253.307 98.7571 251.648 98.6974L203.107 97.0022C201.353 96.9365 199.92 98.381 200.003 100.13Z" fill="white"/>
<path d="M227.665 125.816C232.93 125.816 237.198 121.548 237.198 116.284C237.198 111.019 232.93 106.751 227.665 106.751C222.401 106.751 218.133 111.019 218.133 116.284C218.133 121.548 222.401 125.816 227.665 125.816Z" fill="#E527BB"/>
<path d="M213.185 144.273H243.555C245.418 144.273 246.534 142.219 245.531 140.649C242.952 136.614 237.556 130.681 228.209 130.95C219.201 131.206 213.859 136.567 211.179 140.405C210.033 142.034 211.197 144.273 213.185 144.273Z" fill="#E527BB"/>
<g opacity="0.6">
<path d="M322.464 104.292C322.709 104.292 322.9 104.095 322.894 103.85L322.834 101.755C322.828 101.51 322.625 101.307 322.38 101.307L266.575 100.31C266.331 100.304 266.199 100.49 266.283 100.716L267.393 103.868C267.477 104.095 267.739 104.286 267.984 104.286H322.464V104.292Z" fill="white"/>
</g>
<g opacity="0.6">
<path d="M266.575 108.577C266.331 108.571 266.199 108.756 266.283 108.983L267.393 112.135C267.477 112.362 267.739 112.553 267.984 112.553H322.47C322.715 112.553 322.906 112.356 322.9 112.111L322.84 110.016C322.834 109.771 322.631 109.568 322.386 109.568L266.575 108.577Z" fill="white"/>
</g>
<g opacity="0.6">
<path d="M266.575 116.97C266.331 116.964 266.199 117.149 266.283 117.376L267.393 120.528C267.477 120.755 267.739 120.946 267.984 120.946H322.47C322.715 120.946 322.906 120.749 322.9 120.504L322.84 118.409C322.834 118.164 322.631 117.961 322.386 117.961L266.575 116.97Z" fill="white"/>
</g>
<g opacity="0.6">
<path d="M327.635 161.392C327.879 161.392 328.064 161.195 328.046 160.95L327.909 158.855C327.891 158.61 327.682 158.413 327.438 158.413L200.159 157.411C199.914 157.411 199.842 157.56 199.992 157.751L202.612 161.046C202.761 161.237 203.084 161.392 203.328 161.392H327.635Z" fill="white"/>
</g>
<g opacity="0.6">
<path d="M200.159 165.672C199.914 165.672 199.842 165.821 199.992 166.012L202.612 169.307C202.761 169.498 203.084 169.653 203.328 169.653H327.629C327.873 169.653 328.058 169.456 328.041 169.212L327.903 167.116C327.885 166.872 327.676 166.675 327.432 166.675L200.159 165.672Z" fill="white"/>
</g>
<path d="M216.979 222.056C216.967 222.056 216.961 222.056 216.949 222.056L206.426 221.955C204.922 221.943 203.68 220.904 203.537 219.549L202.612 210.721C202.558 210.202 202.719 209.688 203.065 209.276C203.453 208.817 204.038 208.524 204.677 208.482C205.566 208.423 206.814 208.315 208.133 208.202C210.915 207.963 214.383 207.671 216.329 207.647C217.743 207.641 218.943 208.476 219.277 209.706C219.827 211.736 219.779 215.568 219.671 219.657C219.642 220.988 218.436 222.056 216.979 222.056ZM204.731 209.288C204.313 209.318 203.931 209.503 203.686 209.796C203.483 210.04 203.388 210.339 203.418 210.631L204.343 219.46C204.444 220.409 205.34 221.131 206.432 221.143L216.955 221.244C216.961 221.244 216.967 221.244 216.979 221.244C218 221.244 218.842 220.528 218.866 219.633C218.967 215.61 219.015 211.837 218.495 209.909C218.263 209.05 217.367 208.447 216.341 208.447C214.419 208.47 210.974 208.763 208.205 209.002C206.874 209.121 205.626 209.229 204.731 209.288Z" fill="white"/>
<path opacity="0.6" d="M205.864 210.202C208.072 210.052 212.877 209.563 215.157 209.533C216.124 209.521 216.972 210.106 217.199 210.942C217.641 212.565 217.581 215.813 217.503 218.803C217.479 219.698 216.656 220.415 215.653 220.403L207.242 220.319C206.21 220.307 205.35 219.603 205.255 218.684L204.515 211.628C204.437 210.906 205.04 210.255 205.864 210.202Z" fill="white"/>
<g opacity="0.6">
<path d="M226.22 216.195C226.524 217.353 227.575 218.152 228.768 218.14L326.148 217.311C327.252 217.299 328.13 216.392 328.106 215.293C328.082 214.225 327.211 213.365 326.142 213.359L228.762 212.918C227.043 212.906 225.784 214.535 226.22 216.195Z" fill="white"/>
</g>
<path d="M206.309 211.587C207.091 211.127 208.094 211.402 208.536 212.195L210.613 215.914C210.822 216.284 211.365 216.26 211.538 215.872L216.69 204.412C216.946 203.839 217.8 204.036 217.788 204.662C217.734 208.166 216.803 214.834 211.204 220.415C211.204 220.415 208.118 219.215 205.629 213.753C205.271 212.959 205.563 212.022 206.309 211.587Z" fill="#E527BB"/>
<path d="M216.979 244.613C216.967 244.613 216.961 244.613 216.949 244.613L206.426 244.512C204.922 244.5 203.68 243.461 203.537 242.106L202.612 233.278C202.558 232.759 202.719 232.246 203.065 231.834C203.453 231.374 204.038 231.082 204.677 231.04C205.566 230.98 206.814 230.873 208.133 230.759C210.915 230.52 214.383 230.228 216.329 230.204C216.341 230.204 216.359 230.204 216.37 230.204C217.755 230.204 218.943 231.046 219.277 232.263C219.827 234.293 219.779 238.125 219.671 242.214C219.642 243.545 218.436 244.613 216.979 244.613ZM204.731 231.846C204.313 231.875 203.931 232.06 203.686 232.353C203.483 232.598 203.388 232.896 203.418 233.189L204.343 242.017C204.444 242.966 205.34 243.688 206.432 243.7L216.955 243.802C216.961 243.802 216.967 243.802 216.979 243.802C218 243.802 218.842 243.085 218.866 242.19C218.967 238.167 219.015 234.394 218.495 232.466C218.263 231.607 217.355 230.986 216.341 231.004C214.419 231.028 210.974 231.32 208.205 231.559C206.874 231.678 205.626 231.786 204.731 231.846Z" fill="white"/>
<path opacity="0.6" d="M205.864 232.759C208.072 232.61 212.877 232.12 215.157 232.09C216.124 232.078 216.972 232.663 217.199 233.499C217.641 235.123 217.581 238.37 217.503 241.36C217.479 242.256 216.656 242.972 215.653 242.96L207.242 242.876C206.21 242.864 205.35 242.16 205.255 241.241L204.515 234.185C204.437 233.463 205.04 232.813 205.864 232.759Z" fill="white"/>
<g opacity="0.6">
<path d="M226.22 238.752C226.524 239.91 227.575 240.71 228.768 240.698L326.148 239.868C327.252 239.856 328.13 238.949 328.106 237.85C328.082 236.782 327.211 235.922 326.142 235.916L228.762 235.475C227.043 235.463 225.784 237.092 226.22 238.752Z" fill="white"/>
</g>
<path d="M206.309 234.144C207.091 233.684 208.094 233.959 208.536 234.753L210.613 238.471C210.822 238.841 211.365 238.818 211.538 238.43L216.69 226.969C216.946 226.396 217.8 226.593 217.788 227.22C217.734 230.723 216.803 237.391 211.204 242.972C211.204 242.972 208.118 241.772 205.629 236.311C205.271 235.517 205.563 234.579 206.309 234.144Z" fill="#E527BB"/>
<path d="M216.979 267.171C216.967 267.171 216.961 267.171 216.949 267.171L206.426 267.069C204.922 267.057 203.68 266.019 203.537 264.664L202.612 255.835C202.558 255.316 202.719 254.803 203.065 254.391C203.453 253.931 204.038 253.639 204.677 253.597C205.566 253.537 206.814 253.43 208.133 253.316C210.915 253.078 214.383 252.785 216.329 252.761C216.341 252.761 216.359 252.761 216.37 252.761C217.755 252.761 218.943 253.603 219.277 254.821C219.827 256.85 219.779 260.682 219.671 264.771C219.642 266.102 218.436 267.171 216.979 267.171ZM204.731 254.403C204.313 254.433 203.931 254.618 203.686 254.91C203.483 255.155 203.388 255.453 203.418 255.752L204.343 264.58C204.444 265.529 205.34 266.251 206.432 266.263L216.955 266.365C216.961 266.365 216.967 266.365 216.979 266.365C218 266.365 218.842 265.648 218.866 264.753C218.967 260.73 219.015 256.957 218.495 255.029C218.263 254.17 217.355 253.549 216.341 253.567C214.419 253.591 210.974 253.883 208.205 254.122C206.874 254.236 205.626 254.343 204.731 254.403Z" fill="white"/>
<path opacity="0.6" d="M205.864 255.316C208.072 255.167 212.877 254.677 215.157 254.647C216.124 254.635 216.972 255.22 217.199 256.056C217.641 257.68 217.581 260.927 217.503 263.917C217.479 264.813 216.656 265.529 215.653 265.517L207.242 265.434C206.21 265.422 205.35 264.717 205.255 263.798L204.515 256.743C204.437 256.02 205.04 255.37 205.864 255.316Z" fill="white"/>
<g opacity="0.6">
<path d="M226.22 261.309C226.524 262.467 227.575 263.267 228.768 263.255L326.148 262.425C327.252 262.413 328.13 261.506 328.106 260.408C328.082 259.339 327.211 258.48 326.142 258.474L228.762 258.032C227.043 258.02 225.784 259.65 226.22 261.309Z" fill="white"/>
</g>
<path d="M206.309 256.701C207.091 256.241 208.094 256.516 208.536 257.31L210.613 261.028C210.822 261.399 211.365 261.375 211.538 260.987L216.69 249.526C216.946 248.953 217.8 249.15 217.788 249.777C217.734 253.281 216.803 259.948 211.204 265.529C211.204 265.529 208.118 264.329 205.629 258.868C205.271 258.074 205.563 257.137 206.309 256.701Z" fill="#E527BB"/>
<path d="M216.979 289.728C216.967 289.728 216.961 289.728 216.949 289.728L206.426 289.626C204.922 289.614 203.68 288.576 203.537 287.221L202.612 278.392C202.558 277.873 202.719 277.36 203.065 276.948C203.453 276.488 204.038 276.196 204.677 276.154C205.566 276.094 206.814 275.987 208.133 275.873C210.915 275.635 214.383 275.342 216.329 275.318C216.341 275.318 216.359 275.318 216.37 275.318C217.755 275.318 218.943 276.16 219.277 277.378C219.827 279.407 219.779 283.239 219.671 287.328C219.642 288.659 218.436 289.728 216.979 289.728ZM204.731 276.96C204.313 276.99 203.931 277.175 203.686 277.467C203.483 277.712 203.388 278.01 203.418 278.309L204.343 287.137C204.444 288.086 205.34 288.808 206.432 288.82L216.955 288.922C216.961 288.922 216.967 288.922 216.979 288.922C218 288.922 218.842 288.206 218.866 287.31C218.967 283.287 219.015 279.515 218.495 277.587C218.263 276.727 217.355 276.1 216.341 276.124C214.419 276.148 210.974 276.441 208.205 276.679C206.874 276.793 205.626 276.9 204.731 276.96Z" fill="white"/>
<path opacity="0.6" d="M205.864 277.873C208.072 277.724 212.877 277.235 215.157 277.205C216.124 277.193 216.972 277.778 217.199 278.613C217.641 280.237 217.581 283.484 217.503 286.475C217.479 287.37 216.656 288.086 215.653 288.074L207.242 287.991C206.21 287.979 205.35 287.275 205.255 286.355L204.515 279.3C204.437 278.572 205.04 277.927 205.864 277.873Z" fill="white"/>
<g opacity="0.6">
<path d="M226.22 283.866C226.524 285.024 227.575 285.824 228.768 285.812L326.148 284.982C327.252 284.97 328.13 284.063 328.106 282.965C328.082 281.896 327.211 281.037 326.142 281.031L228.762 280.589C227.043 280.577 225.784 282.207 226.22 283.866Z" fill="white"/>
</g>
<path d="M215.518 199.982C215.506 199.982 215.5 199.982 215.489 199.982L204.965 199.881C203.461 199.869 202.219 198.83 202.076 197.475L201.151 188.647C201.097 188.128 201.258 187.614 201.604 187.203C201.992 186.743 202.577 186.45 203.216 186.409C204.105 186.349 205.353 186.242 206.672 186.128C209.454 185.889 212.922 185.597 214.868 185.573C214.88 185.573 214.898 185.573 214.909 185.573C216.294 185.573 217.482 186.415 217.816 187.632C218.366 189.662 218.318 193.494 218.21 197.583C218.181 198.914 216.975 199.982 215.518 199.982ZM203.276 187.214C202.858 187.244 202.476 187.429 202.231 187.722C202.028 187.967 201.933 188.265 201.963 188.563L202.888 197.392C202.989 198.341 203.885 199.063 204.977 199.075L215.5 199.177C215.506 199.177 215.512 199.177 215.524 199.177C216.545 199.177 217.387 198.46 217.411 197.565C217.512 193.542 217.56 189.769 217.04 187.841C216.808 186.982 215.9 186.355 214.886 186.379C212.964 186.403 209.519 186.695 206.75 186.934C205.419 187.047 204.165 187.155 203.276 187.214Z" fill="white"/>
<path opacity="0.6" d="M204.403 188.128C206.611 187.978 211.416 187.489 213.696 187.459C214.663 187.447 215.511 188.032 215.738 188.868C216.18 190.491 216.12 193.739 216.042 196.729C216.018 197.625 215.195 198.341 214.192 198.329L205.781 198.245C204.749 198.233 203.889 197.529 203.794 196.61L203.054 189.554C202.976 188.832 203.585 188.181 204.403 188.128Z" fill="white"/>
<g opacity="0.6">
<path d="M224.767 194.121C225.071 195.279 226.122 196.078 227.316 196.067L324.695 195.237C325.8 195.225 326.677 194.318 326.653 193.219C326.629 192.151 325.758 191.291 324.689 191.285L227.31 190.844C225.585 190.832 224.331 192.461 224.767 194.121Z" fill="white"/>
</g>
<path d="M204.848 189.513C205.63 189.053 206.633 189.328 207.075 190.121L209.152 193.84C209.361 194.21 209.904 194.186 210.077 193.798L215.229 182.338C215.485 181.765 216.339 181.962 216.327 182.588C216.273 186.092 215.342 192.76 209.743 198.341C209.743 198.341 206.657 197.141 204.168 191.679C203.81 190.885 204.102 189.948 204.848 189.513Z" fill="#E527BB"/>
<path d="M267.618 46.6306C262.287 42.9237 257.65 42.9954 254.39 43.9564C251.412 44.8339 249.484 47.711 249.77 50.797L251.179 66.1554L267.922 67.6417C267.916 67.6477 278.076 53.9069 267.618 46.6306ZM260.252 59.0224C257.948 59.0224 256.074 57.1541 256.074 54.844C256.074 52.5399 257.942 50.6657 260.252 50.6657C262.562 50.6657 264.43 52.534 264.43 54.844C264.43 57.1541 262.562 59.0224 260.252 59.0224Z" fill="#E527BB"/>
<path d="M252.847 59.7026C252.638 59.7026 252.465 59.5474 252.447 59.3326L252.22 56.8852C252.202 56.6644 252.364 56.4674 252.584 56.4435C252.811 56.4196 253.002 56.5868 253.026 56.8076L253.253 59.255C253.271 59.4758 253.11 59.6728 252.889 59.6967C252.871 59.6967 252.859 59.7026 252.847 59.7026ZM252.411 54.9035C252.202 54.9035 252.029 54.7483 252.011 54.5334L251.838 52.677C251.57 49.7343 253.42 46.9945 256.244 46.1588C258.243 45.5678 260.303 45.4843 262.362 45.9081C262.583 45.9499 262.72 46.1647 262.678 46.3856C262.636 46.6065 262.422 46.7437 262.201 46.702C260.267 46.308 258.345 46.3856 256.47 46.9348C254.017 47.657 252.405 50.0447 252.644 52.6054L252.817 54.4618C252.835 54.6826 252.674 54.8796 252.453 54.9035C252.435 54.9035 252.423 54.9035 252.411 54.9035Z" fill="#91B3FA"/>
<path d="M228.312 76.0879V68.3639C228.312 65.6958 230.521 63.5648 233.189 63.6543L286.434 65.4809C288.797 65.5644 290.707 67.4268 290.851 69.7846L291.298 77.2042L228.312 76.0879Z" fill="#E527BB"/>
<path d="M248.167 66.5672H245.875C245.654 66.5672 245.469 66.3881 245.469 66.1613C245.469 65.9344 245.648 65.7554 245.875 65.7554H248.167C248.388 65.7554 248.573 65.9344 248.573 66.1613C248.573 66.3821 248.394 66.5672 248.167 66.5672Z" fill="#91B3FA"/>
<path d="M231.195 73.6646C230.974 73.6646 230.789 73.4855 230.789 73.2587V70.1368C230.789 67.7253 232.753 65.7615 235.164 65.7615H243.581C243.802 65.7615 243.987 65.9405 243.987 66.1674C243.987 66.3882 243.808 66.5733 243.581 66.5733H235.164C233.195 66.5733 231.595 68.173 231.595 70.1428V73.2646C231.601 73.4795 231.416 73.6646 231.195 73.6646Z" fill="#91B3FA"/>
<path d="M206.628 78.0399C206.759 75.3658 208.962 73.2646 211.642 73.2646H304.748C308.096 73.2646 310.955 75.6762 311.528 78.9711L311.606 79.4247C312.233 83.036 309.451 86.3429 305.78 86.3429H210.257C208.06 86.3429 206.311 84.5104 206.419 82.3138L206.628 78.0399Z" fill="#E527BB"/>
<path d="M260.275 144.124C261.534 142.942 263.242 142.351 264.967 142.506C283.393 144.165 317.781 135.289 340.249 112.297C341.807 110.703 344.654 111.604 346.445 112.941C371.437 131.618 412.863 135.486 427.242 136.28C430.215 136.441 432.632 138.752 432.937 141.712C446.015 268.024 363.773 313.795 346.719 321.877C344.857 322.761 342.66 322.629 340.905 321.543C255.894 268.591 259.529 199.726 258.353 148.702C258.317 146.971 259.009 145.306 260.275 144.124Z" fill="#E527BB"/>
<path d="M344.414 312.78C344.02 312.78 343.62 312.667 343.28 312.452C310.671 291.608 289.421 266.687 278.306 236.269C268.38 209.097 267.896 181.442 267.466 157.041L267.407 153.788C267.395 153.221 267.61 152.689 268.004 152.289C268.404 151.884 268.935 151.657 269.508 151.657C289.677 151.657 319.947 142.751 342.152 122.856C342.862 122.217 343.913 122.14 344.712 122.671C369.108 138.859 403.92 143.575 422.496 144.941C423.522 145.019 424.34 145.819 424.43 146.852C428.751 196.156 418.496 237.856 393.945 270.782C375.608 295.374 353.863 308.19 345.369 312.553C345.071 312.709 344.742 312.78 344.414 312.78ZM269.532 152.648C269.209 152.648 268.929 152.767 268.72 152.982C268.511 153.191 268.404 153.471 268.41 153.77L268.469 157.023C268.899 181.347 269.382 208.918 279.249 235.928C290.286 266.138 311.405 290.898 343.823 311.616C344.157 311.831 344.575 311.849 344.921 311.67C353.356 307.337 374.946 294.61 393.158 270.185C417.559 237.462 427.748 195.995 423.451 146.935C423.403 146.392 422.973 145.968 422.436 145.932C403.759 144.553 368.762 139.808 344.175 123.495C343.757 123.214 343.202 123.256 342.826 123.59C320.424 143.664 289.874 152.648 269.532 152.648Z" fill="#91B3FA"/>
<path d="M153.719 294.151L154.417 315.866C154.537 319.651 157.646 322.665 161.455 322.689L213.457 322.993C216 323.011 218.167 321.161 218.543 318.654C219.355 313.168 220.393 303.355 219.224 294.145H153.719V294.151Z" fill="#A78BEF"/>
<path d="M211.608 321.662H211.226C211.19 321.662 211.161 321.632 211.161 321.597C211.161 321.561 211.19 321.531 211.226 321.531H211.602C211.638 321.531 211.668 321.561 211.668 321.597C211.668 321.632 211.638 321.662 211.608 321.662ZM212.492 321.656C212.456 321.656 212.432 321.632 212.426 321.597C212.426 321.561 212.45 321.531 212.486 321.531C212.611 321.525 212.736 321.513 212.856 321.495C212.892 321.489 212.921 321.513 212.927 321.549C212.933 321.585 212.91 321.614 212.874 321.62C212.748 321.632 212.623 321.644 212.492 321.656ZM210.343 321.65H209.961C209.925 321.65 209.895 321.62 209.895 321.585C209.895 321.549 209.925 321.519 209.961 321.519H210.337C210.373 321.519 210.403 321.549 210.403 321.585C210.408 321.626 210.379 321.65 210.343 321.65ZM209.083 321.644H208.701C208.666 321.644 208.636 321.614 208.636 321.579C208.636 321.543 208.666 321.513 208.701 321.513H209.077C209.113 321.513 209.143 321.543 209.143 321.579C209.143 321.62 209.113 321.644 209.083 321.644ZM207.818 321.638H207.436C207.4 321.638 207.37 321.609 207.37 321.573C207.37 321.537 207.406 321.513 207.436 321.507H207.812C207.848 321.507 207.878 321.537 207.878 321.573C207.884 321.609 207.854 321.638 207.818 321.638ZM206.558 321.632H206.176C206.141 321.632 206.111 321.603 206.111 321.567C206.111 321.531 206.141 321.501 206.176 321.501H206.552C206.588 321.501 206.618 321.531 206.618 321.567C206.618 321.603 206.588 321.632 206.558 321.632ZM205.293 321.62H204.911C204.875 321.62 204.845 321.591 204.845 321.555C204.845 321.519 204.881 321.489 204.911 321.489H205.287C205.323 321.489 205.353 321.519 205.353 321.555C205.359 321.597 205.329 321.62 205.293 321.62ZM204.028 321.614H203.646C203.61 321.614 203.58 321.585 203.58 321.549C203.58 321.513 203.61 321.483 203.646 321.483H204.022C204.057 321.483 204.087 321.513 204.087 321.549C204.093 321.591 204.063 321.614 204.028 321.614ZM202.768 321.609H202.386C202.35 321.609 202.32 321.579 202.32 321.543C202.32 321.507 202.35 321.477 202.386 321.477H202.762C202.798 321.477 202.828 321.507 202.828 321.543C202.828 321.579 202.804 321.609 202.768 321.609ZM201.503 321.603H201.121C201.085 321.603 201.055 321.573 201.055 321.537C201.055 321.501 201.085 321.471 201.121 321.471H201.497C201.532 321.471 201.562 321.501 201.562 321.537C201.568 321.573 201.538 321.603 201.503 321.603ZM200.243 321.591H199.861C199.825 321.591 199.795 321.561 199.795 321.525C199.795 321.489 199.825 321.459 199.861 321.459H200.237C200.273 321.459 200.303 321.489 200.303 321.525C200.303 321.567 200.279 321.591 200.243 321.591ZM198.978 321.585H198.596C198.56 321.585 198.53 321.555 198.53 321.519C198.53 321.483 198.56 321.453 198.596 321.453H198.972C199.008 321.453 199.037 321.483 199.037 321.519C199.043 321.561 199.014 321.585 198.978 321.585ZM197.718 321.579H197.336C197.3 321.579 197.271 321.549 197.271 321.513C197.271 321.477 197.3 321.447 197.336 321.447H197.712C197.748 321.447 197.778 321.477 197.778 321.513C197.778 321.549 197.754 321.579 197.718 321.579ZM196.453 321.573H196.071C196.035 321.573 196.005 321.543 196.005 321.507C196.005 321.471 196.035 321.441 196.071 321.441H196.447C196.483 321.441 196.512 321.471 196.512 321.507C196.518 321.543 196.489 321.573 196.453 321.573ZM195.193 321.561H194.811C194.775 321.561 194.746 321.531 194.746 321.495C194.746 321.459 194.775 321.429 194.811 321.429H195.187C195.223 321.429 195.253 321.459 195.253 321.495C195.253 321.537 195.229 321.561 195.193 321.561ZM193.928 321.555H193.546C193.51 321.555 193.48 321.525 193.48 321.489C193.48 321.453 193.51 321.423 193.546 321.423H193.922C193.958 321.423 193.988 321.453 193.988 321.489C193.994 321.531 193.964 321.555 193.928 321.555ZM192.668 321.549H192.286C192.251 321.549 192.221 321.519 192.221 321.483C192.221 321.447 192.251 321.423 192.286 321.418H192.662C192.698 321.418 192.728 321.447 192.728 321.483C192.728 321.519 192.704 321.549 192.668 321.549ZM191.403 321.543H191.021C190.985 321.543 190.955 321.513 190.955 321.477C190.955 321.441 190.985 321.412 191.021 321.412H191.397C191.433 321.412 191.463 321.441 191.463 321.477C191.469 321.513 191.439 321.543 191.403 321.543ZM190.143 321.531H189.761C189.726 321.531 189.696 321.501 189.696 321.465C189.696 321.429 189.726 321.406 189.761 321.4H190.137C190.173 321.4 190.203 321.429 190.203 321.465C190.203 321.507 190.173 321.531 190.143 321.531ZM188.878 321.525H188.496C188.46 321.525 188.43 321.495 188.43 321.459C188.43 321.423 188.46 321.394 188.496 321.394H188.872C188.908 321.394 188.938 321.423 188.938 321.459C188.944 321.501 188.914 321.525 188.878 321.525ZM187.619 321.519H187.236C187.201 321.519 187.171 321.489 187.171 321.453C187.171 321.418 187.201 321.388 187.236 321.388H187.613C187.648 321.388 187.678 321.418 187.678 321.453C187.678 321.489 187.648 321.519 187.619 321.519ZM186.353 321.513H185.971C185.935 321.513 185.905 321.483 185.905 321.447C185.905 321.412 185.935 321.382 185.971 321.382H186.347C186.383 321.382 186.413 321.412 186.413 321.447C186.413 321.483 186.389 321.513 186.353 321.513ZM185.094 321.507H184.712C184.676 321.507 184.646 321.477 184.646 321.441C184.646 321.406 184.676 321.376 184.712 321.376H185.088C185.123 321.376 185.153 321.406 185.153 321.441C185.153 321.477 185.123 321.507 185.094 321.507ZM183.828 321.495H183.446C183.41 321.495 183.38 321.465 183.38 321.429C183.38 321.394 183.41 321.364 183.446 321.364H183.822C183.858 321.364 183.888 321.394 183.888 321.429C183.894 321.471 183.864 321.495 183.828 321.495ZM182.563 321.489H182.181C182.145 321.489 182.115 321.459 182.115 321.423C182.115 321.388 182.145 321.358 182.181 321.358H182.557C182.593 321.358 182.622 321.388 182.622 321.423C182.628 321.459 182.599 321.489 182.563 321.489ZM181.303 321.483H180.921C180.885 321.483 180.856 321.453 180.856 321.418C180.856 321.382 180.885 321.352 180.921 321.352H181.297C181.333 321.352 181.363 321.382 181.363 321.418C181.369 321.453 181.339 321.483 181.303 321.483ZM180.038 321.477H179.656C179.62 321.477 179.59 321.447 179.59 321.412C179.59 321.376 179.62 321.346 179.656 321.346H180.032C180.068 321.346 180.097 321.376 180.097 321.412C180.103 321.447 180.074 321.477 180.038 321.477ZM178.778 321.465H178.396C178.36 321.465 178.331 321.435 178.331 321.4C178.331 321.364 178.36 321.334 178.396 321.334H178.772C178.808 321.334 178.838 321.364 178.838 321.4C178.838 321.441 178.814 321.465 178.778 321.465ZM177.513 321.459H177.131C177.095 321.459 177.065 321.429 177.065 321.394C177.065 321.358 177.095 321.328 177.131 321.328H177.507C177.543 321.328 177.573 321.358 177.573 321.394C177.579 321.429 177.549 321.459 177.513 321.459ZM176.253 321.453H175.871C175.836 321.453 175.806 321.423 175.806 321.388C175.806 321.352 175.836 321.322 175.871 321.322H176.247C176.283 321.322 176.313 321.352 176.313 321.388C176.313 321.423 176.289 321.453 176.253 321.453ZM174.988 321.447H174.606C174.57 321.447 174.54 321.418 174.54 321.382C174.54 321.346 174.57 321.322 174.606 321.316H174.982C175.018 321.316 175.048 321.346 175.048 321.382C175.054 321.418 175.024 321.447 174.988 321.447ZM173.728 321.435H173.346C173.311 321.435 173.281 321.406 173.281 321.37C173.281 321.334 173.311 321.304 173.346 321.304H173.722C173.758 321.304 173.788 321.334 173.788 321.37C173.788 321.412 173.764 321.435 173.728 321.435ZM172.463 321.429H172.081C172.045 321.429 172.015 321.4 172.015 321.364C172.015 321.328 172.045 321.304 172.081 321.298H172.457C172.493 321.298 172.523 321.328 172.523 321.364C172.529 321.4 172.499 321.429 172.463 321.429ZM171.204 321.423H170.822C170.786 321.423 170.756 321.394 170.756 321.358C170.756 321.322 170.786 321.292 170.822 321.292H171.198C171.233 321.292 171.263 321.322 171.263 321.358C171.263 321.394 171.239 321.423 171.204 321.423ZM213.727 321.418C213.703 321.418 213.674 321.4 213.668 321.376C213.656 321.34 213.674 321.304 213.709 321.298C213.829 321.256 213.942 321.215 214.062 321.167C214.091 321.155 214.133 321.167 214.145 321.203C214.157 321.232 214.145 321.274 214.109 321.286C213.99 321.334 213.871 321.382 213.751 321.423C213.739 321.418 213.733 321.418 213.727 321.418ZM169.938 321.418H169.556C169.52 321.418 169.49 321.388 169.49 321.352C169.49 321.316 169.52 321.286 169.556 321.286H169.932C169.968 321.286 169.998 321.316 169.998 321.352C170.004 321.388 169.974 321.418 169.938 321.418ZM168.679 321.406H168.297C168.261 321.406 168.231 321.376 168.231 321.34C168.231 321.304 168.261 321.274 168.297 321.274H168.673C168.708 321.274 168.738 321.304 168.738 321.34C168.738 321.382 168.708 321.406 168.679 321.406ZM167.413 321.4H167.031C166.995 321.4 166.965 321.37 166.965 321.334C166.965 321.298 166.995 321.268 167.031 321.268H167.407C167.443 321.268 167.473 321.298 167.473 321.334C167.479 321.37 167.449 321.4 167.413 321.4ZM166.154 321.394H165.772C165.736 321.394 165.706 321.364 165.706 321.328C165.706 321.292 165.736 321.262 165.772 321.262H166.148C166.184 321.262 166.213 321.292 166.213 321.328C166.213 321.364 166.184 321.394 166.154 321.394ZM164.888 321.388H164.506C164.47 321.388 164.441 321.358 164.441 321.322C164.441 321.286 164.47 321.256 164.506 321.256H164.882C164.918 321.256 164.948 321.286 164.948 321.322C164.954 321.358 164.924 321.388 164.888 321.388ZM163.629 321.376H163.247C163.211 321.376 163.181 321.346 163.181 321.31C163.181 321.274 163.211 321.244 163.247 321.244H163.623C163.659 321.244 163.688 321.274 163.688 321.31C163.688 321.352 163.659 321.376 163.629 321.376ZM162.363 321.364C162.232 321.358 162.107 321.346 161.981 321.334C161.945 321.328 161.922 321.298 161.928 321.262C161.934 321.227 161.963 321.203 161.999 321.209C162.125 321.221 162.25 321.232 162.375 321.238C162.411 321.238 162.435 321.268 162.435 321.304C162.423 321.34 162.399 321.364 162.363 321.364ZM161.116 321.185C161.11 321.185 161.104 321.185 161.104 321.185C160.978 321.155 160.859 321.119 160.734 321.083C160.698 321.071 160.68 321.036 160.692 321.006C160.704 320.97 160.74 320.952 160.77 320.964C160.889 321 161.008 321.035 161.134 321.059C161.169 321.065 161.187 321.101 161.181 321.137C161.169 321.167 161.146 321.185 161.116 321.185ZM214.861 320.868C214.844 320.868 214.82 320.856 214.808 320.839C214.79 320.809 214.796 320.773 214.826 320.749C214.927 320.683 215.035 320.606 215.13 320.534C215.16 320.51 215.196 320.516 215.22 320.546C215.243 320.576 215.237 320.612 215.208 320.636C215.106 320.713 215.005 320.791 214.897 320.856C214.885 320.862 214.873 320.868 214.861 320.868ZM159.922 320.773C159.916 320.773 159.904 320.773 159.898 320.767C159.785 320.713 159.665 320.659 159.552 320.6C159.522 320.582 159.51 320.546 159.528 320.516C159.546 320.486 159.582 320.474 159.612 320.492C159.725 320.552 159.838 320.606 159.946 320.653C159.976 320.665 159.994 320.707 159.976 320.737C159.97 320.761 159.946 320.773 159.922 320.773ZM158.83 320.152C158.818 320.152 158.806 320.146 158.794 320.14C158.692 320.069 158.585 319.991 158.489 319.913C158.46 319.889 158.46 319.854 158.477 319.824C158.501 319.794 158.537 319.794 158.567 319.812C158.662 319.889 158.764 319.967 158.865 320.033C158.895 320.051 158.901 320.092 158.883 320.122C158.871 320.14 158.848 320.152 158.83 320.152ZM215.816 320.045C215.799 320.045 215.787 320.039 215.775 320.027C215.751 320.003 215.745 319.961 215.769 319.937C215.852 319.848 215.93 319.746 216.007 319.651C216.031 319.621 216.067 319.615 216.097 319.639C216.127 319.663 216.133 319.698 216.109 319.728C216.031 319.83 215.948 319.931 215.864 320.021C215.846 320.039 215.828 320.045 215.816 320.045ZM157.869 319.334C157.851 319.334 157.833 319.328 157.821 319.316C157.731 319.227 157.648 319.131 157.564 319.036C157.54 319.012 157.546 318.97 157.57 318.946C157.594 318.922 157.636 318.928 157.66 318.952C157.743 319.048 157.827 319.137 157.916 319.227C157.94 319.251 157.94 319.293 157.916 319.316C157.904 319.328 157.886 319.334 157.869 319.334ZM216.527 319.006C216.515 319.006 216.509 319.006 216.497 319C216.467 318.982 216.455 318.946 216.467 318.916C216.521 318.803 216.575 318.69 216.622 318.576C216.634 318.546 216.67 318.528 216.706 318.54C216.736 318.552 216.754 318.588 216.742 318.624C216.694 318.743 216.64 318.857 216.581 318.97C216.569 318.994 216.551 319.006 216.527 319.006ZM157.081 318.355C157.063 318.355 157.039 318.343 157.027 318.326C156.955 318.218 156.89 318.111 156.824 318.003C156.806 317.973 156.818 317.932 156.848 317.92C156.878 317.902 156.919 317.914 156.931 317.944C156.997 318.051 157.063 318.158 157.128 318.26C157.146 318.29 157.14 318.326 157.111 318.349C157.105 318.349 157.093 318.355 157.081 318.355ZM216.945 317.818C216.939 317.818 216.939 317.818 216.933 317.818C216.897 317.812 216.879 317.776 216.885 317.741C216.903 317.645 216.921 317.556 216.933 317.46L216.945 317.37C216.951 317.335 216.98 317.311 217.016 317.317C217.052 317.323 217.076 317.353 217.07 317.388L217.058 317.478C217.046 317.573 217.028 317.675 217.004 317.77C216.998 317.8 216.974 317.818 216.945 317.818ZM156.484 317.239C156.46 317.239 156.436 317.227 156.424 317.197C156.376 317.078 156.329 316.959 156.287 316.839C156.275 316.803 156.293 316.768 156.323 316.762C156.352 316.75 156.394 316.768 156.4 316.797C156.442 316.917 156.49 317.036 156.537 317.15C156.549 317.179 156.537 317.221 156.502 317.233C156.502 317.239 156.49 317.239 156.484 317.239ZM217.13 316.571H217.124C217.088 316.565 217.064 316.535 217.07 316.499C217.088 316.374 217.106 316.248 217.124 316.123C217.13 316.087 217.16 316.063 217.195 316.069C217.231 316.075 217.255 316.105 217.249 316.141C217.231 316.266 217.213 316.392 217.195 316.517C217.189 316.553 217.166 316.571 217.13 316.571ZM156.108 316.033C156.078 316.033 156.054 316.015 156.048 315.986C156.024 315.86 156 315.735 155.982 315.61C155.976 315.574 156 315.544 156.036 315.538C156.072 315.532 156.102 315.556 156.108 315.592C156.126 315.717 156.149 315.836 156.173 315.962C156.179 315.998 156.161 316.027 156.126 316.033C156.12 316.033 156.114 316.033 156.108 316.033ZM217.297 315.323H217.291C217.255 315.317 217.231 315.287 217.237 315.251L217.285 314.875C217.291 314.84 217.321 314.816 217.357 314.822C217.392 314.828 217.416 314.857 217.41 314.893L217.362 315.269C217.357 315.299 217.333 315.323 217.297 315.323ZM155.97 314.786C155.935 314.786 155.911 314.756 155.905 314.726L155.893 314.35C155.893 314.314 155.917 314.284 155.953 314.284C155.988 314.279 156.018 314.308 156.018 314.344L156.03 314.72C156.03 314.756 156.006 314.78 155.97 314.786ZM217.452 314.07H217.446C217.41 314.064 217.386 314.034 217.392 313.998C217.404 313.873 217.422 313.747 217.434 313.622C217.44 313.586 217.47 313.562 217.506 313.568C217.542 313.574 217.565 313.604 217.559 313.64C217.548 313.765 217.53 313.891 217.518 314.016C217.512 314.046 217.482 314.07 217.452 314.07ZM155.929 313.52C155.893 313.52 155.869 313.491 155.863 313.461L155.851 313.079C155.851 313.043 155.875 313.013 155.911 313.013C155.947 313.013 155.976 313.037 155.976 313.073L155.988 313.449C155.994 313.491 155.964 313.52 155.929 313.52ZM217.589 312.81H217.583C217.548 312.804 217.524 312.774 217.53 312.738C217.542 312.613 217.553 312.488 217.565 312.362C217.571 312.327 217.601 312.303 217.637 312.309C217.673 312.315 217.697 312.345 217.691 312.38C217.679 312.506 217.667 312.631 217.655 312.756C217.649 312.786 217.619 312.81 217.589 312.81ZM155.887 312.261C155.851 312.261 155.827 312.231 155.821 312.201L155.809 311.825C155.809 311.789 155.833 311.76 155.869 311.76C155.899 311.754 155.935 311.783 155.935 311.819L155.947 312.195C155.953 312.231 155.923 312.261 155.887 312.261ZM217.715 311.557H217.709C217.673 311.551 217.649 311.521 217.649 311.485C217.661 311.36 217.673 311.234 217.685 311.109C217.691 311.073 217.721 311.049 217.75 311.049C217.786 311.055 217.81 311.085 217.81 311.115C217.798 311.24 217.786 311.366 217.774 311.491C217.774 311.533 217.745 311.557 217.715 311.557ZM155.845 310.995C155.809 310.995 155.785 310.966 155.779 310.936L155.767 310.56C155.767 310.524 155.791 310.494 155.827 310.494C155.857 310.488 155.893 310.518 155.893 310.554L155.905 310.93C155.911 310.966 155.881 310.995 155.845 310.995ZM217.822 310.297C217.78 310.291 217.756 310.261 217.756 310.231L217.786 309.855C217.786 309.82 217.816 309.796 217.852 309.796C217.888 309.796 217.912 309.832 217.912 309.861L217.882 310.237C217.882 310.273 217.852 310.297 217.822 310.297ZM155.809 309.736C155.773 309.736 155.75 309.706 155.744 309.676L155.732 309.3C155.732 309.264 155.756 309.235 155.791 309.235C155.827 309.235 155.857 309.258 155.857 309.294L155.869 309.67C155.869 309.706 155.845 309.736 155.809 309.736ZM217.918 309.038C217.876 309.038 217.852 309.008 217.852 308.972L217.876 308.596C217.876 308.56 217.906 308.536 217.941 308.536C217.977 308.536 218.001 308.566 218.001 308.602L217.977 308.978C217.977 309.014 217.947 309.038 217.918 309.038ZM155.767 308.471C155.732 308.471 155.708 308.441 155.702 308.411L155.69 308.035C155.69 307.999 155.714 307.969 155.75 307.969C155.785 307.963 155.815 307.993 155.815 308.029L155.827 308.405C155.827 308.441 155.803 308.471 155.767 308.471ZM217.995 307.778C217.959 307.778 217.93 307.748 217.93 307.712C217.936 307.587 217.941 307.462 217.947 307.336C217.947 307.301 217.977 307.277 218.013 307.277C218.049 307.277 218.073 307.307 218.073 307.342C218.067 307.468 218.061 307.593 218.055 307.718C218.055 307.748 218.025 307.778 217.995 307.778ZM155.726 307.211C155.69 307.211 155.666 307.181 155.66 307.151L155.648 306.775C155.648 306.74 155.672 306.71 155.708 306.71C155.744 306.71 155.773 306.734 155.773 306.769L155.785 307.145C155.791 307.181 155.761 307.211 155.726 307.211ZM218.055 306.513C218.019 306.513 217.989 306.483 217.989 306.447C217.995 306.322 218.001 306.196 218.007 306.071C218.007 306.035 218.037 306.005 218.073 306.011C218.109 306.011 218.132 306.041 218.132 306.077C218.127 306.202 218.121 306.328 218.115 306.453C218.121 306.489 218.091 306.513 218.055 306.513ZM155.684 305.952C155.648 305.952 155.624 305.922 155.618 305.892L155.606 305.516C155.606 305.48 155.63 305.45 155.666 305.45C155.696 305.444 155.732 305.474 155.732 305.51L155.744 305.886C155.75 305.922 155.72 305.946 155.684 305.952ZM218.103 305.253C218.067 305.253 218.037 305.223 218.037 305.188C218.043 305.062 218.043 304.937 218.049 304.812C218.049 304.776 218.079 304.752 218.115 304.752C218.15 304.752 218.174 304.782 218.174 304.817C218.168 304.943 218.168 305.068 218.162 305.194C218.162 305.229 218.138 305.253 218.103 305.253ZM155.642 304.686C155.606 304.686 155.582 304.656 155.576 304.626L155.565 304.25C155.565 304.215 155.588 304.185 155.624 304.185C155.654 304.179 155.69 304.209 155.69 304.244L155.702 304.62C155.708 304.656 155.678 304.686 155.642 304.686ZM218.132 303.994C218.097 303.994 218.067 303.964 218.067 303.928C218.067 303.803 218.073 303.677 218.073 303.552C218.073 303.516 218.109 303.492 218.138 303.492C218.174 303.492 218.204 303.522 218.198 303.558C218.198 303.683 218.192 303.809 218.192 303.94C218.192 303.964 218.168 303.994 218.132 303.994ZM155.606 303.427C155.57 303.427 155.547 303.397 155.541 303.367L155.529 302.991C155.529 302.955 155.553 302.925 155.588 302.925C155.618 302.919 155.654 302.949 155.654 302.985L155.666 303.361C155.666 303.397 155.642 303.427 155.606 303.427ZM218.138 302.728C218.103 302.728 218.073 302.698 218.073 302.663V302.633C218.073 302.519 218.073 302.4 218.073 302.287C218.073 302.251 218.103 302.221 218.138 302.221C218.174 302.221 218.204 302.251 218.204 302.287C218.204 302.4 218.204 302.519 218.204 302.633V302.663C218.204 302.698 218.174 302.728 218.138 302.728ZM155.565 302.161C155.529 302.161 155.505 302.131 155.499 302.102L155.487 301.726C155.487 301.69 155.511 301.66 155.547 301.66C155.582 301.654 155.612 301.684 155.612 301.72L155.624 302.096C155.624 302.131 155.6 302.161 155.565 302.161ZM218.132 301.469C218.097 301.469 218.073 301.439 218.067 301.409C218.067 301.284 218.061 301.158 218.061 301.033C218.061 300.997 218.091 300.967 218.121 300.967C218.15 300.967 218.186 300.997 218.186 301.027C218.186 301.152 218.192 301.278 218.192 301.403C218.198 301.439 218.168 301.469 218.132 301.469ZM155.523 300.902C155.487 300.902 155.463 300.872 155.457 300.842L155.445 300.466C155.445 300.43 155.469 300.4 155.505 300.4C155.535 300.394 155.57 300.424 155.57 300.46L155.582 300.836C155.588 300.872 155.559 300.902 155.523 300.902ZM218.103 300.203C218.067 300.203 218.043 300.174 218.037 300.144C218.031 300.018 218.031 299.893 218.025 299.768C218.025 299.732 218.049 299.702 218.085 299.702C218.121 299.696 218.15 299.726 218.15 299.762C218.156 299.887 218.156 300.012 218.162 300.138C218.168 300.174 218.138 300.203 218.103 300.203ZM155.481 299.642C155.445 299.642 155.421 299.612 155.415 299.583L155.403 299.207C155.403 299.171 155.427 299.141 155.463 299.141C155.499 299.141 155.529 299.165 155.529 299.201L155.541 299.577C155.547 299.606 155.517 299.636 155.481 299.642ZM218.049 298.944C218.013 298.944 217.989 298.92 217.983 298.884C217.977 298.759 217.971 298.634 217.965 298.508C217.965 298.472 217.989 298.443 218.025 298.443C218.061 298.443 218.091 298.466 218.091 298.502C218.097 298.628 218.103 298.753 218.109 298.878C218.115 298.914 218.091 298.938 218.049 298.944ZM155.439 298.377C155.403 298.377 155.379 298.347 155.374 298.317L155.362 297.941C155.362 297.905 155.385 297.875 155.421 297.875C155.457 297.875 155.487 297.899 155.487 297.935L155.499 298.311C155.505 298.347 155.475 298.377 155.439 298.377ZM217.977 297.684C217.941 297.684 217.918 297.661 217.912 297.625C217.906 297.499 217.894 297.374 217.888 297.249C217.888 297.213 217.912 297.183 217.947 297.183C217.983 297.183 218.013 297.207 218.013 297.243C218.025 297.368 218.031 297.493 218.043 297.619C218.043 297.649 218.019 297.678 217.977 297.684ZM155.403 297.117C155.368 297.117 155.344 297.088 155.338 297.058L155.326 296.682C155.326 296.646 155.35 296.616 155.385 296.616C155.415 296.61 155.451 296.64 155.451 296.676L155.463 297.052C155.463 297.088 155.439 297.111 155.403 297.117ZM217.882 296.425C217.852 296.425 217.822 296.401 217.816 296.365C217.804 296.24 217.792 296.115 217.78 295.989C217.774 295.953 217.804 295.924 217.84 295.918C217.876 295.918 217.906 295.941 217.912 295.977C217.924 296.103 217.936 296.228 217.947 296.353C217.947 296.389 217.918 296.419 217.882 296.425ZM155.362 295.852C155.326 295.852 155.302 295.822 155.296 295.792L155.284 295.416C155.284 295.38 155.308 295.351 155.344 295.351C155.374 295.351 155.409 295.374 155.409 295.41L155.421 295.786C155.427 295.822 155.397 295.852 155.362 295.852ZM217.756 295.165C217.727 295.165 217.697 295.142 217.691 295.112C217.679 294.986 217.661 294.861 217.649 294.736C217.643 294.7 217.667 294.67 217.703 294.664C217.739 294.658 217.768 294.682 217.774 294.718C217.786 294.843 217.804 294.968 217.816 295.094C217.822 295.13 217.792 295.159 217.762 295.165H217.756ZM155.32 294.592C155.284 294.592 155.26 294.563 155.254 294.533L155.242 294.091H155.469C155.505 294.091 155.535 294.121 155.535 294.157C155.535 294.192 155.505 294.222 155.469 294.222H155.374L155.385 294.539C155.385 294.563 155.356 294.592 155.32 294.592ZM217.339 294.21H216.963C216.927 294.21 216.897 294.181 216.897 294.145C216.897 294.109 216.927 294.079 216.963 294.079H217.339C217.374 294.079 217.404 294.109 217.404 294.145C217.404 294.187 217.374 294.21 217.339 294.21ZM216.079 294.21H215.703C215.667 294.21 215.637 294.181 215.637 294.145C215.637 294.109 215.667 294.079 215.703 294.079H216.079C216.115 294.079 216.145 294.109 216.145 294.145C216.139 294.187 216.115 294.21 216.079 294.21ZM214.814 294.21H214.438C214.402 294.21 214.372 294.181 214.372 294.145C214.372 294.109 214.402 294.079 214.438 294.079H214.814C214.849 294.079 214.879 294.109 214.879 294.145C214.879 294.187 214.849 294.21 214.814 294.21ZM213.554 294.21H213.178C213.142 294.21 213.112 294.181 213.112 294.145C213.112 294.109 213.142 294.079 213.178 294.079H213.554C213.59 294.079 213.62 294.109 213.62 294.145C213.614 294.187 213.59 294.21 213.554 294.21ZM212.289 294.21H211.913C211.877 294.21 211.847 294.181 211.847 294.145C211.847 294.109 211.877 294.079 211.913 294.079H212.289C212.325 294.079 212.354 294.109 212.354 294.145C212.354 294.187 212.325 294.21 212.289 294.21ZM211.029 294.21H210.653C210.617 294.21 210.588 294.181 210.588 294.145C210.588 294.109 210.617 294.079 210.653 294.079H211.029C211.065 294.079 211.095 294.109 211.095 294.145C211.089 294.187 211.065 294.21 211.029 294.21ZM209.764 294.21H209.388C209.352 294.21 209.322 294.181 209.322 294.145C209.322 294.109 209.352 294.079 209.388 294.079H209.764C209.8 294.079 209.829 294.109 209.829 294.145C209.829 294.187 209.8 294.21 209.764 294.21ZM208.504 294.21H208.128C208.092 294.21 208.063 294.181 208.063 294.145C208.063 294.109 208.092 294.079 208.128 294.079H208.504C208.54 294.079 208.57 294.109 208.57 294.145C208.564 294.187 208.54 294.21 208.504 294.21ZM207.239 294.21H206.863C206.827 294.21 206.797 294.181 206.797 294.145C206.797 294.109 206.827 294.079 206.863 294.079H207.239C207.275 294.079 207.305 294.109 207.305 294.145C207.305 294.187 207.275 294.21 207.239 294.21ZM205.979 294.21H205.603C205.568 294.21 205.538 294.181 205.538 294.145C205.538 294.109 205.568 294.079 205.603 294.079H205.979C206.015 294.079 206.045 294.109 206.045 294.145C206.039 294.187 206.009 294.21 205.979 294.21ZM204.714 294.21H204.338C204.302 294.21 204.272 294.181 204.272 294.145C204.272 294.109 204.302 294.079 204.338 294.079H204.714C204.75 294.079 204.78 294.109 204.78 294.145C204.78 294.187 204.75 294.21 204.714 294.21ZM203.455 294.21H203.078C203.043 294.21 203.013 294.181 203.013 294.145C203.013 294.109 203.043 294.079 203.078 294.079H203.455C203.49 294.079 203.52 294.109 203.52 294.145C203.514 294.187 203.484 294.21 203.455 294.21ZM202.189 294.21H201.813C201.777 294.21 201.747 294.181 201.747 294.145C201.747 294.109 201.777 294.079 201.813 294.079H202.189C202.225 294.079 202.255 294.109 202.255 294.145C202.255 294.187 202.225 294.21 202.189 294.21ZM200.93 294.21H200.554C200.518 294.21 200.488 294.181 200.488 294.145C200.488 294.109 200.518 294.079 200.554 294.079H200.93C200.965 294.079 200.995 294.109 200.995 294.145C200.989 294.187 200.959 294.21 200.93 294.21ZM199.664 294.21H199.288C199.252 294.21 199.222 294.181 199.222 294.145C199.222 294.109 199.252 294.079 199.288 294.079H199.664C199.7 294.079 199.73 294.109 199.73 294.145C199.73 294.187 199.7 294.21 199.664 294.21ZM198.399 294.21H198.023C197.987 294.21 197.957 294.181 197.957 294.145C197.957 294.109 197.987 294.079 198.023 294.079H198.399C198.435 294.079 198.464 294.109 198.464 294.145C198.464 294.187 198.435 294.21 198.399 294.21ZM197.139 294.21H196.763C196.727 294.21 196.697 294.181 196.697 294.145C196.697 294.109 196.727 294.079 196.763 294.079H197.139C197.175 294.079 197.205 294.109 197.205 294.145C197.205 294.187 197.175 294.21 197.139 294.21ZM195.874 294.21H195.498C195.462 294.21 195.432 294.181 195.432 294.145C195.432 294.109 195.462 294.079 195.498 294.079H195.874C195.91 294.079 195.939 294.109 195.939 294.145C195.939 294.187 195.91 294.21 195.874 294.21ZM194.614 294.21H194.238C194.202 294.21 194.173 294.181 194.173 294.145C194.173 294.109 194.202 294.079 194.238 294.079H194.614C194.65 294.079 194.68 294.109 194.68 294.145C194.674 294.187 194.65 294.21 194.614 294.21ZM193.349 294.21H192.973C192.937 294.21 192.907 294.181 192.907 294.145C192.907 294.109 192.937 294.079 192.973 294.079H193.349C193.385 294.079 193.415 294.109 193.415 294.145C193.415 294.187 193.385 294.21 193.349 294.21ZM192.089 294.21H191.713C191.678 294.21 191.648 294.181 191.648 294.145C191.648 294.109 191.678 294.079 191.713 294.079H192.089C192.125 294.079 192.155 294.109 192.155 294.145C192.149 294.187 192.125 294.21 192.089 294.21ZM190.824 294.21H190.448C190.412 294.21 190.382 294.181 190.382 294.145C190.382 294.109 190.412 294.079 190.448 294.079H190.824C190.86 294.079 190.89 294.109 190.89 294.145C190.89 294.187 190.86 294.21 190.824 294.21ZM189.564 294.21H189.188C189.153 294.21 189.123 294.181 189.123 294.145C189.123 294.109 189.153 294.079 189.188 294.079H189.564C189.6 294.079 189.63 294.109 189.63 294.145C189.624 294.187 189.6 294.21 189.564 294.21ZM188.299 294.21H187.923C187.887 294.21 187.857 294.181 187.857 294.145C187.857 294.109 187.887 294.079 187.923 294.079H188.299C188.335 294.079 188.365 294.109 188.365 294.145C188.365 294.187 188.335 294.21 188.299 294.21ZM187.04 294.21H186.663C186.628 294.21 186.598 294.181 186.598 294.145C186.598 294.109 186.628 294.079 186.663 294.079H187.04C187.075 294.079 187.105 294.109 187.105 294.145C187.099 294.187 187.075 294.21 187.04 294.21ZM185.774 294.21H185.398C185.362 294.21 185.332 294.181 185.332 294.145C185.332 294.109 185.362 294.079 185.398 294.079H185.774C185.81 294.079 185.84 294.109 185.84 294.145C185.84 294.187 185.81 294.21 185.774 294.21ZM184.515 294.21H184.139C184.103 294.21 184.073 294.181 184.073 294.145C184.073 294.109 184.103 294.079 184.139 294.079H184.515C184.55 294.079 184.58 294.109 184.58 294.145C184.574 294.187 184.544 294.21 184.515 294.21ZM183.249 294.21H182.873C182.837 294.21 182.807 294.181 182.807 294.145C182.807 294.109 182.837 294.079 182.873 294.079H183.249C183.285 294.079 183.315 294.109 183.315 294.145C183.315 294.187 183.285 294.21 183.249 294.21ZM181.99 294.21H181.614C181.578 294.21 181.548 294.181 181.548 294.145C181.548 294.109 181.578 294.079 181.614 294.079H181.99C182.025 294.079 182.055 294.109 182.055 294.145C182.049 294.187 182.02 294.21 181.99 294.21ZM180.724 294.21H180.348C180.312 294.21 180.283 294.181 180.283 294.145C180.283 294.109 180.312 294.079 180.348 294.079H180.724C180.76 294.079 180.79 294.109 180.79 294.145C180.79 294.187 180.76 294.21 180.724 294.21ZM179.459 294.21H179.083C179.047 294.21 179.017 294.181 179.017 294.145C179.017 294.109 179.047 294.079 179.083 294.079H179.459C179.495 294.079 179.524 294.109 179.524 294.145C179.524 294.187 179.495 294.21 179.459 294.21ZM178.199 294.21H177.823C177.787 294.21 177.758 294.181 177.758 294.145C177.758 294.109 177.787 294.079 177.823 294.079H178.199C178.235 294.079 178.265 294.109 178.265 294.145C178.265 294.187 178.235 294.21 178.199 294.21ZM176.934 294.21H176.558C176.522 294.21 176.492 294.181 176.492 294.145C176.492 294.109 176.522 294.079 176.558 294.079H176.934C176.97 294.079 177 294.109 177 294.145C177 294.187 176.97 294.21 176.934 294.21ZM175.674 294.21H175.298C175.263 294.21 175.233 294.181 175.233 294.145C175.233 294.109 175.263 294.079 175.298 294.079H175.674C175.71 294.079 175.74 294.109 175.74 294.145C175.734 294.187 175.71 294.21 175.674 294.21ZM174.409 294.21H174.033C173.997 294.21 173.967 294.181 173.967 294.145C173.967 294.109 173.997 294.079 174.033 294.079H174.409C174.445 294.079 174.475 294.109 174.475 294.145C174.475 294.187 174.445 294.21 174.409 294.21ZM173.149 294.21H172.773C172.738 294.21 172.708 294.181 172.708 294.145C172.708 294.109 172.738 294.079 172.773 294.079H173.149C173.185 294.079 173.215 294.109 173.215 294.145C173.209 294.187 173.185 294.21 173.149 294.21ZM171.884 294.21H171.508C171.472 294.21 171.442 294.181 171.442 294.145C171.442 294.109 171.472 294.079 171.508 294.079H171.884C171.92 294.079 171.95 294.109 171.95 294.145C171.95 294.187 171.92 294.21 171.884 294.21ZM170.625 294.21H170.248C170.213 294.21 170.183 294.181 170.183 294.145C170.183 294.109 170.213 294.079 170.248 294.079H170.625C170.66 294.079 170.69 294.109 170.69 294.145C170.684 294.187 170.66 294.21 170.625 294.21ZM169.359 294.21H168.983C168.947 294.21 168.917 294.181 168.917 294.145C168.917 294.109 168.947 294.079 168.983 294.079H169.359C169.395 294.079 169.425 294.109 169.425 294.145C169.425 294.187 169.395 294.21 169.359 294.21ZM168.1 294.21H167.724C167.688 294.21 167.658 294.181 167.658 294.145C167.658 294.109 167.688 294.079 167.724 294.079H168.1C168.135 294.079 168.165 294.109 168.165 294.145C168.159 294.187 168.135 294.21 168.1 294.21ZM166.834 294.21H166.458C166.422 294.21 166.392 294.181 166.392 294.145C166.392 294.109 166.422 294.079 166.458 294.079H166.834C166.87 294.079 166.9 294.109 166.9 294.145C166.9 294.187 166.87 294.21 166.834 294.21ZM165.575 294.21H165.199C165.163 294.21 165.133 294.181 165.133 294.145C165.133 294.109 165.163 294.079 165.199 294.079H165.575C165.61 294.079 165.64 294.109 165.64 294.145C165.634 294.187 165.605 294.21 165.575 294.21ZM164.309 294.21H163.933C163.897 294.21 163.868 294.181 163.868 294.145C163.868 294.109 163.897 294.079 163.933 294.079H164.309C164.345 294.079 164.375 294.109 164.375 294.145C164.375 294.187 164.345 294.21 164.309 294.21ZM163.05 294.21H162.674C162.638 294.21 162.608 294.181 162.608 294.145C162.608 294.109 162.638 294.079 162.674 294.079H163.05C163.086 294.079 163.115 294.109 163.115 294.145C163.109 294.187 163.08 294.21 163.05 294.21ZM161.784 294.21H161.408C161.372 294.21 161.343 294.181 161.343 294.145C161.343 294.109 161.372 294.079 161.408 294.079H161.784C161.82 294.079 161.85 294.109 161.85 294.145C161.85 294.187 161.82 294.21 161.784 294.21ZM160.519 294.21H160.143C160.107 294.21 160.077 294.181 160.077 294.145C160.077 294.109 160.107 294.079 160.143 294.079H160.519C160.555 294.079 160.585 294.109 160.585 294.145C160.585 294.187 160.555 294.21 160.519 294.21ZM159.259 294.21H158.883C158.848 294.21 158.818 294.181 158.818 294.145C158.818 294.109 158.848 294.079 158.883 294.079H159.259C159.295 294.079 159.325 294.109 159.325 294.145C159.325 294.187 159.295 294.21 159.259 294.21ZM157.994 294.21H157.618C157.582 294.21 157.552 294.181 157.552 294.145C157.552 294.109 157.582 294.079 157.618 294.079H157.994C158.03 294.079 158.06 294.109 158.06 294.145C158.06 294.187 158.03 294.21 157.994 294.21ZM156.734 294.21H156.358C156.323 294.21 156.293 294.181 156.293 294.145C156.293 294.109 156.323 294.079 156.358 294.079H156.734C156.77 294.079 156.8 294.109 156.8 294.145C156.794 294.187 156.77 294.21 156.734 294.21Z" fill="white"/>
<path d="M168.961 278.386L169.116 276.709C169.295 276.309 169.659 276.029 170.095 275.957C171.713 275.7 175.736 275.247 177.67 276.691L177.956 278.637L168.961 278.386Z" fill="#5254CF"/>
<path d="M174.017 276.775C173.647 276.864 173.271 276.864 172.895 276.775C172.441 276.661 172.125 276.255 172.125 275.796V270.549H174.793V275.79C174.793 276.255 174.471 276.661 174.017 276.775Z" fill="#5254CF"/>
<path d="M194.805 278.386L194.96 276.709C195.139 276.309 195.503 276.029 195.939 275.957C197.556 275.7 201.58 275.247 203.514 276.691L203.8 278.637L194.805 278.386Z" fill="#5254CF"/>
<path d="M199.869 276.775C199.499 276.864 199.123 276.864 198.747 276.775C198.293 276.661 197.977 276.255 197.977 275.796V270H200.645V275.79C200.645 276.255 200.322 276.661 199.869 276.775Z" fill="#5254CF"/>
<path d="M171.859 271.832L200.558 270.883C201.215 270.859 201.77 270.388 201.877 269.749C202.032 268.848 202.176 267.505 201.967 266.114C201.734 264.526 200.367 263.35 198.755 263.314C193.401 263.189 179.768 263.189 172.258 266.162C171.465 266.478 170.874 267.153 170.671 267.982C170.48 268.77 170.348 269.827 170.599 270.895C170.742 271.462 171.274 271.85 171.859 271.832Z" fill="#A78BEF"/>
<path d="M171.359 270.34C171.293 270.34 171.24 270.292 171.234 270.227C171.228 270.179 171.126 269.104 171.407 268.066C171.622 267.278 172.242 266.639 173.036 266.412C174.636 265.941 177.692 265.147 180.187 265.075C180.259 265.075 180.313 265.129 180.319 265.201C180.319 265.272 180.265 265.326 180.193 265.332C177.728 265.404 174.696 266.191 173.108 266.657C172.398 266.866 171.842 267.433 171.651 268.137C171.383 269.128 171.484 270.197 171.484 270.209C171.49 270.28 171.443 270.34 171.371 270.346C171.365 270.34 171.359 270.34 171.359 270.34Z" fill="#91B3FA"/>
<path d="M155.639 277.73C164.909 277.61 205.021 277.193 216.673 278.595C217.676 278.715 218.493 279.449 218.714 280.434C219.401 283.544 220.786 290.778 220.624 297.947C220.601 298.92 219.884 299.744 218.923 299.929L192.325 304.961H182.876L154.535 299.326C153.538 299.129 152.798 298.281 152.75 297.267C152.565 293.661 152.278 285.197 153.251 279.753C153.46 278.595 154.457 277.748 155.639 277.73Z" fill="#9774F1"/>
<path d="M192.116 302.728H191.74C191.704 302.728 191.674 302.699 191.674 302.663C191.674 302.627 191.704 302.597 191.74 302.597H192.116C192.151 302.597 192.181 302.627 192.181 302.663C192.175 302.705 192.145 302.728 192.116 302.728ZM190.85 302.728H190.474C190.438 302.728 190.408 302.699 190.408 302.663C190.408 302.627 190.438 302.597 190.474 302.597H190.85C190.886 302.597 190.916 302.627 190.916 302.663C190.916 302.705 190.886 302.728 190.85 302.728ZM189.585 302.728H189.209C189.173 302.728 189.143 302.699 189.143 302.663C189.143 302.627 189.173 302.597 189.209 302.597H189.585C189.621 302.597 189.65 302.627 189.65 302.663C189.65 302.705 189.621 302.728 189.585 302.728ZM188.325 302.728H187.949C187.913 302.728 187.884 302.699 187.884 302.663C187.884 302.627 187.913 302.597 187.949 302.597H188.325C188.361 302.597 188.391 302.627 188.391 302.663C188.391 302.705 188.361 302.728 188.325 302.728ZM187.06 302.728H186.684C186.648 302.728 186.618 302.699 186.618 302.663C186.618 302.627 186.648 302.597 186.684 302.597H187.06C187.096 302.597 187.125 302.627 187.125 302.663C187.125 302.705 187.096 302.728 187.06 302.728ZM185.8 302.728H185.424C185.388 302.728 185.359 302.699 185.359 302.663C185.359 302.627 185.388 302.597 185.424 302.597H185.8C185.836 302.597 185.866 302.627 185.866 302.663C185.86 302.705 185.836 302.728 185.8 302.728ZM184.535 302.728H184.159C184.123 302.728 184.093 302.699 184.093 302.663C184.093 302.627 184.123 302.597 184.159 302.597H184.535C184.571 302.597 184.601 302.627 184.601 302.663C184.601 302.705 184.571 302.728 184.535 302.728ZM183.275 302.728H183.108L182.726 302.651C182.69 302.645 182.673 302.609 182.678 302.579C182.684 302.543 182.72 302.525 182.75 302.531L183.12 302.603H183.275C183.311 302.603 183.341 302.633 183.341 302.669C183.335 302.705 183.311 302.728 183.275 302.728ZM192.981 302.567C192.951 302.567 192.927 302.543 192.921 302.514C192.915 302.478 192.939 302.448 192.969 302.442L193.339 302.37C193.375 302.364 193.405 302.388 193.411 302.418C193.417 302.454 193.393 302.484 193.363 302.49L192.993 302.561C192.987 302.567 192.987 302.567 192.981 302.567ZM181.873 302.484C181.867 302.484 181.867 302.484 181.861 302.484L181.491 302.412C181.455 302.406 181.437 302.37 181.443 302.34C181.449 302.305 181.485 302.281 181.515 302.293L181.885 302.364C181.92 302.37 181.938 302.406 181.932 302.436C181.926 302.466 181.903 302.484 181.873 302.484ZM194.223 302.334C194.193 302.334 194.169 302.311 194.163 302.281C194.157 302.245 194.181 302.215 194.211 302.209L194.581 302.137C194.617 302.132 194.647 302.155 194.652 302.185C194.658 302.221 194.635 302.251 194.605 302.257L194.235 302.328C194.229 302.328 194.229 302.334 194.223 302.334ZM180.631 302.239C180.625 302.239 180.625 302.239 180.619 302.239L180.249 302.167C180.213 302.161 180.195 302.126 180.201 302.096C180.207 302.06 180.243 302.036 180.273 302.048L180.643 302.12C180.679 302.126 180.697 302.161 180.691 302.191C180.691 302.215 180.661 302.239 180.631 302.239ZM195.464 302.096C195.434 302.096 195.411 302.072 195.405 302.042C195.399 302.006 195.422 301.976 195.452 301.97L195.822 301.899C195.858 301.893 195.888 301.917 195.894 301.946C195.9 301.982 195.876 302.012 195.846 302.018L195.476 302.09C195.47 302.096 195.464 302.096 195.464 302.096ZM179.395 301.994C179.39 301.994 179.39 301.994 179.384 301.994L179.013 301.923C178.978 301.917 178.96 301.881 178.966 301.851C178.972 301.815 179.007 301.791 179.037 301.803L179.407 301.875C179.443 301.881 179.461 301.917 179.455 301.946C179.449 301.97 179.425 301.994 179.395 301.994ZM196.706 301.863C196.676 301.863 196.652 301.839 196.646 301.809C196.64 301.773 196.664 301.744 196.694 301.738L197.064 301.666C197.1 301.66 197.13 301.684 197.136 301.714C197.142 301.749 197.118 301.779 197.088 301.785L196.718 301.857C196.712 301.863 196.706 301.863 196.706 301.863ZM178.154 301.744C178.148 301.744 178.148 301.744 178.142 301.744L177.772 301.672C177.736 301.666 177.718 301.63 177.724 301.6C177.73 301.564 177.766 301.547 177.796 301.553L178.166 301.624C178.202 301.63 178.22 301.666 178.214 301.696C178.214 301.726 178.184 301.744 178.154 301.744ZM197.941 301.63C197.912 301.63 197.888 301.606 197.882 301.576C197.876 301.541 197.9 301.511 197.93 301.505L198.3 301.433C198.335 301.427 198.365 301.451 198.371 301.481C198.377 301.517 198.353 301.547 198.323 301.553L197.953 301.624C197.953 301.63 197.947 301.63 197.941 301.63ZM176.918 301.499C176.912 301.499 176.912 301.499 176.906 301.499L176.536 301.427C176.5 301.421 176.483 301.385 176.489 301.356C176.495 301.32 176.53 301.296 176.56 301.308L176.93 301.379C176.966 301.385 176.984 301.421 176.978 301.451C176.972 301.481 176.948 301.499 176.918 301.499ZM199.183 301.391C199.153 301.391 199.129 301.367 199.123 301.338C199.117 301.302 199.141 301.272 199.171 301.266L199.541 301.194C199.577 301.188 199.607 301.212 199.613 301.242C199.619 301.278 199.595 301.308 199.565 301.314L199.195 301.385C199.195 301.391 199.189 301.391 199.183 301.391ZM175.677 301.254C175.671 301.254 175.671 301.254 175.665 301.254L175.295 301.182C175.259 301.176 175.241 301.141 175.247 301.111C175.253 301.075 175.289 301.057 175.319 301.063L175.689 301.135C175.725 301.141 175.742 301.176 175.736 301.206C175.736 301.23 175.707 301.254 175.677 301.254ZM200.425 301.159C200.395 301.159 200.371 301.135 200.365 301.105C200.359 301.069 200.383 301.039 200.413 301.033L200.783 300.962C200.819 300.956 200.848 300.979 200.854 301.009C200.86 301.045 200.836 301.075 200.807 301.081L200.437 301.153C200.431 301.159 200.431 301.159 200.425 301.159ZM174.441 301.009C174.435 301.009 174.435 301.009 174.429 301.009L174.059 300.938C174.023 300.932 174.005 300.896 174.011 300.866C174.017 300.83 174.053 300.806 174.083 300.818L174.453 300.89C174.489 300.896 174.507 300.932 174.501 300.962C174.495 300.985 174.471 301.009 174.441 301.009ZM201.666 300.926C201.636 300.926 201.612 300.902 201.606 300.872C201.6 300.836 201.624 300.806 201.654 300.8L202.024 300.729C202.06 300.723 202.09 300.747 202.096 300.777C202.102 300.812 202.078 300.842 202.048 300.848L201.678 300.92C201.672 300.926 201.672 300.926 201.666 300.926ZM173.2 300.759C173.194 300.759 173.194 300.759 173.188 300.759L172.818 300.687C172.782 300.681 172.764 300.645 172.77 300.615C172.776 300.58 172.812 300.562 172.841 300.568L173.212 300.639C173.247 300.645 173.265 300.681 173.259 300.711C173.259 300.741 173.229 300.759 173.2 300.759ZM202.908 300.687C202.878 300.687 202.854 300.663 202.848 300.633C202.842 300.597 202.866 300.568 202.896 300.562L203.266 300.49C203.302 300.484 203.332 300.508 203.337 300.538C203.343 300.574 203.32 300.603 203.29 300.609L202.92 300.681C202.914 300.687 202.908 300.687 202.908 300.687ZM171.964 300.514C171.958 300.514 171.958 300.514 171.952 300.514L171.582 300.442C171.546 300.436 171.528 300.4 171.534 300.371C171.54 300.335 171.576 300.311 171.606 300.323L171.976 300.395C172.012 300.4 172.03 300.436 172.024 300.466C172.018 300.496 171.994 300.514 171.964 300.514ZM204.149 300.454C204.119 300.454 204.096 300.43 204.09 300.4C204.084 300.365 204.108 300.335 204.137 300.329L204.507 300.257C204.543 300.251 204.573 300.275 204.579 300.305C204.585 300.341 204.561 300.371 204.531 300.377L204.161 300.448C204.155 300.454 204.149 300.454 204.149 300.454ZM170.722 300.269C170.716 300.269 170.716 300.269 170.71 300.269L170.34 300.198C170.305 300.192 170.287 300.156 170.293 300.126C170.299 300.09 170.334 300.072 170.364 300.078L170.734 300.15C170.77 300.156 170.788 300.192 170.782 300.221C170.782 300.245 170.752 300.269 170.722 300.269ZM205.385 300.221C205.355 300.221 205.331 300.198 205.325 300.168C205.319 300.132 205.343 300.102 205.373 300.096L205.743 300.024C205.779 300.018 205.809 300.042 205.815 300.072C205.821 300.108 205.797 300.138 205.767 300.144L205.397 300.215C205.397 300.221 205.391 300.221 205.385 300.221ZM169.487 300.024C169.481 300.024 169.481 300.024 169.475 300.024L169.105 299.953C169.069 299.947 169.051 299.911 169.057 299.881C169.063 299.845 169.099 299.821 169.129 299.833L169.499 299.905C169.535 299.911 169.552 299.947 169.546 299.977C169.541 300.001 169.517 300.024 169.487 300.024ZM206.626 299.983C206.597 299.983 206.573 299.959 206.567 299.929C206.561 299.893 206.585 299.863 206.615 299.857L206.985 299.786C207.02 299.78 207.05 299.804 207.056 299.833C207.062 299.863 207.038 299.899 207.008 299.905L206.638 299.977C206.638 299.983 206.632 299.983 206.626 299.983ZM168.251 299.774C168.245 299.774 168.245 299.774 168.239 299.774L167.869 299.702C167.833 299.696 167.815 299.66 167.821 299.63C167.827 299.595 167.863 299.571 167.893 299.583L168.263 299.654C168.299 299.66 168.317 299.696 168.311 299.726C168.305 299.756 168.275 299.774 168.251 299.774ZM207.868 299.75C207.838 299.75 207.814 299.726 207.808 299.696C207.802 299.66 207.826 299.63 207.856 299.624L208.226 299.553C208.262 299.547 208.292 299.571 208.298 299.601C208.304 299.636 208.28 299.666 208.25 299.672L207.88 299.744C207.874 299.75 207.874 299.75 207.868 299.75ZM167.01 299.529C167.004 299.529 167.004 299.529 166.998 299.529L166.628 299.457C166.592 299.451 166.574 299.416 166.58 299.386C166.586 299.35 166.622 299.326 166.651 299.338L167.022 299.41C167.057 299.416 167.075 299.451 167.069 299.481C167.063 299.511 167.039 299.529 167.01 299.529ZM209.11 299.517C209.08 299.517 209.056 299.493 209.05 299.463C209.044 299.428 209.068 299.398 209.098 299.392L209.468 299.32C209.504 299.314 209.533 299.338 209.539 299.368C209.545 299.404 209.521 299.433 209.492 299.439L209.122 299.511C209.116 299.517 209.116 299.517 209.11 299.517ZM165.774 299.284C165.768 299.284 165.768 299.284 165.762 299.284L165.392 299.213C165.356 299.207 165.338 299.171 165.344 299.141C165.35 299.105 165.386 299.081 165.416 299.093L165.786 299.165C165.822 299.171 165.84 299.207 165.834 299.237C165.828 299.26 165.798 299.284 165.774 299.284ZM210.351 299.278C210.321 299.278 210.297 299.254 210.291 299.225C210.286 299.189 210.309 299.159 210.339 299.153L210.709 299.081C210.745 299.075 210.775 299.099 210.781 299.129C210.787 299.165 210.763 299.195 210.733 299.201L210.363 299.272C210.357 299.278 210.357 299.278 210.351 299.278ZM211.593 299.045C211.563 299.045 211.539 299.022 211.533 298.992C211.527 298.956 211.551 298.926 211.581 298.92L211.951 298.849C211.987 298.843 212.017 298.866 212.023 298.896C212.028 298.932 212.005 298.962 211.975 298.968L211.605 299.04C211.599 299.045 211.593 299.045 211.593 299.045ZM164.532 299.04C164.526 299.04 164.526 299.04 164.521 299.04L164.15 298.968C164.115 298.962 164.097 298.926 164.103 298.896C164.109 298.86 164.144 298.837 164.174 298.849L164.544 298.92C164.58 298.926 164.598 298.962 164.592 298.992C164.586 299.016 164.562 299.04 164.532 299.04ZM212.834 298.813C212.804 298.813 212.781 298.789 212.775 298.759C212.769 298.723 212.793 298.693 212.822 298.687L213.192 298.616C213.228 298.61 213.258 298.634 213.264 298.663C213.27 298.699 213.246 298.729 213.216 298.735L212.846 298.807C212.84 298.813 212.834 298.813 212.834 298.813ZM163.297 298.789C163.291 298.789 163.291 298.789 163.285 298.789L162.915 298.717C162.879 298.711 162.861 298.675 162.867 298.646C162.873 298.61 162.909 298.586 162.939 298.598L163.309 298.669C163.345 298.675 163.363 298.711 163.357 298.741C163.351 298.771 163.327 298.789 163.297 298.789ZM214.07 298.574C214.04 298.574 214.016 298.55 214.01 298.52C214.004 298.484 214.028 298.455 214.058 298.449L214.428 298.377C214.464 298.371 214.494 298.395 214.5 298.425C214.506 298.461 214.482 298.49 214.452 298.496L214.082 298.568C214.082 298.574 214.076 298.574 214.07 298.574ZM162.055 298.544C162.049 298.544 162.049 298.544 162.043 298.544L161.673 298.472C161.637 298.466 161.62 298.431 161.626 298.401C161.631 298.365 161.667 298.347 161.697 298.353L162.067 298.425C162.103 298.431 162.121 298.466 162.115 298.496C162.115 298.526 162.085 298.544 162.055 298.544ZM215.312 298.341C215.282 298.341 215.258 298.317 215.252 298.287C215.246 298.252 215.27 298.222 215.3 298.216L215.67 298.144C215.705 298.138 215.735 298.162 215.741 298.192C215.747 298.222 215.723 298.258 215.694 298.264L215.323 298.335C215.323 298.341 215.317 298.341 215.312 298.341ZM160.82 298.299C160.814 298.299 160.814 298.299 160.808 298.299L160.438 298.228C160.402 298.222 160.384 298.186 160.39 298.156C160.396 298.12 160.432 298.096 160.462 298.108L160.832 298.18C160.867 298.186 160.885 298.222 160.879 298.252C160.873 298.275 160.85 298.299 160.82 298.299ZM216.553 298.108C216.523 298.108 216.499 298.084 216.493 298.055C216.487 298.019 216.511 297.989 216.541 297.983L216.911 297.911C216.947 297.905 216.977 297.929 216.983 297.959C216.989 297.995 216.965 298.025 216.935 298.031L216.565 298.102C216.559 298.108 216.559 298.108 216.553 298.108ZM159.578 298.055C159.572 298.055 159.572 298.055 159.566 298.055L159.196 297.983C159.16 297.977 159.142 297.941 159.148 297.911C159.154 297.876 159.19 297.858 159.22 297.864L159.59 297.935C159.626 297.941 159.644 297.977 159.638 298.007C159.638 298.031 159.608 298.055 159.578 298.055ZM217.795 297.87C217.765 297.87 217.741 297.846 217.735 297.816C217.729 297.78 217.753 297.75 217.783 297.744L218.153 297.673C218.189 297.667 218.218 297.691 218.224 297.72C218.23 297.756 218.207 297.786 218.177 297.792L217.807 297.864C217.801 297.87 217.801 297.87 217.795 297.87ZM158.343 297.804C158.337 297.804 158.337 297.804 158.331 297.804L157.96 297.732C157.925 297.726 157.907 297.691 157.913 297.661C157.919 297.625 157.955 297.601 157.984 297.613L158.354 297.685C158.39 297.691 158.408 297.726 158.402 297.756C158.396 297.786 158.372 297.804 158.343 297.804ZM157.101 297.559C157.095 297.559 157.095 297.559 157.089 297.559L156.719 297.488C156.683 297.482 156.665 297.446 156.671 297.416C156.677 297.38 156.713 297.362 156.743 297.368L157.113 297.44C157.149 297.446 157.167 297.482 157.161 297.511C157.161 297.541 157.131 297.559 157.101 297.559ZM155.865 297.314C155.859 297.314 155.859 297.314 155.853 297.314L155.483 297.243C155.448 297.237 155.43 297.201 155.436 297.171C155.442 297.135 155.477 297.112 155.507 297.123L155.877 297.195C155.913 297.201 155.931 297.237 155.925 297.267C155.919 297.297 155.895 297.314 155.865 297.314ZM218.35 297.064C218.314 297.064 218.284 297.034 218.284 296.998V296.771V296.622C218.284 296.586 218.314 296.556 218.35 296.556C218.386 296.556 218.415 296.586 218.415 296.622V296.771V296.998C218.415 297.034 218.386 297.064 218.35 297.064ZM155.024 296.724C154.988 296.724 154.964 296.7 154.958 296.664C154.952 296.544 154.946 296.413 154.94 296.288C154.94 296.252 154.964 296.222 155 296.222C155.036 296.222 155.065 296.246 155.065 296.282C155.071 296.413 155.077 296.538 155.083 296.658C155.089 296.694 155.06 296.724 155.024 296.724ZM218.338 295.798C218.302 295.798 218.278 295.768 218.272 295.739C218.272 295.613 218.266 295.488 218.266 295.363C218.266 295.327 218.29 295.297 218.326 295.297C218.362 295.297 218.392 295.321 218.392 295.357C218.398 295.482 218.398 295.607 218.398 295.733C218.403 295.768 218.374 295.798 218.338 295.798ZM154.97 295.464C154.934 295.464 154.91 295.44 154.904 295.404L154.892 295.028C154.892 294.992 154.916 294.963 154.952 294.963C154.988 294.963 155.018 294.987 155.018 295.022L155.03 295.398C155.03 295.434 155.006 295.464 154.97 295.464ZM218.302 294.539C218.266 294.539 218.242 294.515 218.236 294.479C218.23 294.354 218.224 294.228 218.218 294.103C218.218 294.067 218.242 294.037 218.278 294.037C218.314 294.037 218.344 294.061 218.344 294.097C218.35 294.222 218.356 294.348 218.362 294.473C218.368 294.509 218.338 294.539 218.302 294.539ZM154.922 294.205C154.886 294.205 154.863 294.175 154.857 294.145L154.845 293.769C154.845 293.733 154.869 293.703 154.904 293.703C154.94 293.703 154.97 293.727 154.97 293.763L154.982 294.139C154.988 294.175 154.958 294.199 154.922 294.205ZM218.236 293.279C218.201 293.279 218.177 293.255 218.171 293.22C218.165 293.094 218.153 292.969 218.147 292.844C218.147 292.808 218.171 292.778 218.207 292.778C218.242 292.778 218.272 292.802 218.272 292.838C218.278 292.963 218.29 293.088 218.296 293.214C218.302 293.25 218.278 293.279 218.236 293.279ZM154.892 292.939C154.857 292.939 154.833 292.909 154.827 292.879L154.821 292.497C154.821 292.462 154.851 292.432 154.88 292.432C154.916 292.432 154.946 292.462 154.946 292.491L154.952 292.867C154.958 292.909 154.928 292.939 154.892 292.939ZM218.147 292.02C218.117 292.02 218.087 291.996 218.081 291.96C218.069 291.835 218.063 291.709 218.051 291.584C218.045 291.548 218.075 291.518 218.111 291.518C218.147 291.513 218.177 291.542 218.177 291.578C218.189 291.704 218.201 291.829 218.207 291.954C218.212 291.984 218.189 292.014 218.147 292.02ZM154.869 291.68C154.833 291.68 154.803 291.65 154.803 291.62L154.797 291.238C154.797 291.202 154.827 291.172 154.857 291.172C154.892 291.172 154.922 291.202 154.922 291.232L154.928 291.608C154.934 291.65 154.904 291.674 154.869 291.68ZM218.033 290.76C218.004 290.76 217.974 290.737 217.968 290.701C217.956 290.575 217.944 290.45 217.932 290.325C217.926 290.289 217.956 290.259 217.986 290.253C218.021 290.247 218.051 290.277 218.057 290.307C218.069 290.432 218.081 290.557 218.093 290.683C218.099 290.719 218.069 290.748 218.039 290.754C218.039 290.76 218.039 290.76 218.033 290.76ZM154.863 290.414C154.827 290.414 154.797 290.384 154.797 290.349V290.134V289.972C154.797 289.937 154.827 289.907 154.863 289.907C154.898 289.907 154.928 289.937 154.928 289.972V290.134V290.349C154.922 290.384 154.898 290.414 154.863 290.414ZM217.902 289.507C217.872 289.507 217.842 289.483 217.842 289.453C217.83 289.328 217.813 289.202 217.801 289.077C217.795 289.041 217.819 289.011 217.854 289.005C217.89 289 217.92 289.023 217.926 289.059C217.944 289.185 217.956 289.31 217.968 289.435C217.974 289.471 217.95 289.501 217.914 289.507C217.908 289.507 217.902 289.507 217.902 289.507ZM154.869 289.155C154.833 289.155 154.803 289.125 154.803 289.089C154.803 288.964 154.803 288.838 154.809 288.713C154.809 288.677 154.839 288.653 154.874 288.653C154.91 288.653 154.94 288.683 154.94 288.719C154.94 288.844 154.934 288.97 154.934 289.095C154.928 289.125 154.898 289.155 154.869 289.155ZM217.747 288.253C217.717 288.253 217.687 288.23 217.687 288.2C217.669 288.074 217.651 287.949 217.639 287.824C217.633 287.788 217.657 287.758 217.693 287.752C217.729 287.746 217.759 287.77 217.765 287.806C217.783 287.931 217.801 288.056 217.813 288.182C217.819 288.218 217.795 288.247 217.759 288.253C217.753 288.253 217.753 288.253 217.747 288.253ZM154.886 287.889C154.851 287.889 154.821 287.859 154.821 287.824C154.821 287.698 154.827 287.573 154.827 287.448C154.827 287.412 154.857 287.382 154.892 287.388C154.928 287.388 154.952 287.418 154.952 287.454C154.946 287.579 154.946 287.704 154.946 287.83C154.946 287.859 154.922 287.889 154.886 287.889ZM217.574 287C217.544 287 217.514 286.976 217.514 286.946C217.496 286.821 217.478 286.695 217.46 286.57C217.454 286.534 217.478 286.504 217.514 286.498C217.55 286.493 217.58 286.516 217.586 286.552C217.604 286.678 217.622 286.803 217.639 286.928C217.645 286.964 217.622 286.994 217.586 287C217.58 287 217.58 287 217.574 287ZM154.922 286.63C154.886 286.63 154.857 286.6 154.857 286.564C154.863 286.439 154.869 286.313 154.869 286.182C154.869 286.146 154.904 286.122 154.934 286.122C154.97 286.122 154.994 286.152 154.994 286.188C154.988 286.313 154.982 286.439 154.982 286.564C154.982 286.6 154.958 286.63 154.922 286.63ZM217.383 285.752C217.353 285.752 217.323 285.728 217.323 285.699C217.305 285.573 217.281 285.448 217.263 285.323C217.257 285.287 217.281 285.257 217.317 285.251C217.353 285.245 217.383 285.269 217.389 285.305C217.407 285.43 217.431 285.555 217.448 285.681C217.454 285.717 217.431 285.746 217.395 285.752C217.389 285.752 217.389 285.752 217.383 285.752ZM154.976 285.364C154.94 285.364 154.91 285.334 154.91 285.299C154.916 285.173 154.922 285.048 154.934 284.917C154.934 284.881 154.964 284.857 155 284.857C155.036 284.857 155.06 284.887 155.06 284.923C155.054 285.048 155.048 285.173 155.036 285.299C155.042 285.34 155.012 285.364 154.976 285.364ZM217.174 284.505C217.144 284.505 217.114 284.481 217.114 284.451C217.09 284.326 217.072 284.2 217.048 284.081C217.043 284.045 217.066 284.015 217.102 284.009C217.138 284.003 217.168 284.027 217.174 284.063C217.198 284.188 217.216 284.308 217.24 284.439C217.245 284.475 217.222 284.505 217.186 284.511C217.18 284.505 217.18 284.505 217.174 284.505ZM155.06 284.105C155.018 284.105 154.994 284.069 154.994 284.039C155.006 283.914 155.012 283.789 155.024 283.663C155.024 283.627 155.054 283.603 155.089 283.603C155.125 283.603 155.149 283.639 155.149 283.669C155.137 283.794 155.131 283.92 155.119 284.045C155.119 284.081 155.089 284.105 155.06 284.105ZM216.947 283.263C216.917 283.263 216.893 283.239 216.887 283.209C216.863 283.084 216.84 282.959 216.816 282.839C216.81 282.804 216.834 282.774 216.863 282.768C216.899 282.762 216.929 282.786 216.935 282.816C216.959 282.935 216.983 283.06 217.007 283.186C217.013 283.221 216.989 283.251 216.959 283.257C216.953 283.263 216.953 283.263 216.947 283.263ZM155.167 282.845C155.161 282.845 155.161 282.845 155.167 282.845C155.125 282.839 155.101 282.81 155.101 282.774C155.113 282.648 155.125 282.523 155.137 282.398C155.143 282.362 155.173 282.338 155.209 282.344C155.245 282.35 155.268 282.38 155.262 282.416C155.251 282.541 155.239 282.666 155.227 282.792C155.227 282.822 155.197 282.845 155.167 282.845ZM216.702 282.022C216.672 282.022 216.649 282.004 216.643 281.974C216.619 281.843 216.589 281.723 216.565 281.604C216.559 281.568 216.577 281.538 216.613 281.526C216.649 281.52 216.678 281.538 216.69 281.574C216.714 281.693 216.744 281.819 216.768 281.944C216.774 281.98 216.756 282.01 216.72 282.016C216.708 282.022 216.708 282.022 216.702 282.022ZM155.304 281.592H155.298C155.262 281.586 155.239 281.556 155.245 281.52C155.262 281.395 155.28 281.27 155.298 281.144C155.304 281.108 155.334 281.085 155.37 281.09C155.406 281.096 155.43 281.126 155.424 281.162C155.406 281.287 155.388 281.413 155.37 281.538C155.364 281.568 155.34 281.592 155.304 281.592ZM216.296 280.923H216.29C216.171 280.911 216.046 280.893 215.914 280.882C215.879 280.876 215.855 280.846 215.861 280.81C215.867 280.774 215.896 280.75 215.932 280.756C216.064 280.768 216.189 280.786 216.308 280.798C216.344 280.804 216.368 280.834 216.362 280.87C216.356 280.899 216.326 280.923 216.296 280.923ZM215.043 280.792C215.037 280.792 215.037 280.792 215.043 280.792C214.912 280.78 214.786 280.768 214.661 280.756C214.625 280.75 214.601 280.72 214.601 280.691C214.607 280.655 214.637 280.631 214.667 280.631C214.798 280.643 214.924 280.655 215.043 280.667C215.079 280.673 215.103 280.702 215.103 280.732C215.103 280.768 215.073 280.792 215.043 280.792ZM213.783 280.685C213.652 280.673 213.527 280.667 213.401 280.655C213.366 280.655 213.342 280.625 213.342 280.589C213.342 280.553 213.378 280.529 213.407 280.529C213.533 280.541 213.664 280.547 213.783 280.559C213.819 280.559 213.843 280.595 213.843 280.625C213.843 280.661 213.813 280.685 213.783 280.685ZM212.524 280.595L212.142 280.571C212.106 280.571 212.082 280.541 212.082 280.506C212.082 280.47 212.112 280.446 212.148 280.446L212.524 280.47C212.56 280.47 212.584 280.5 212.584 280.535C212.584 280.571 212.554 280.595 212.524 280.595ZM211.264 280.523C211.258 280.523 211.258 280.523 211.264 280.523L210.882 280.5C210.847 280.5 210.823 280.47 210.823 280.434C210.823 280.398 210.853 280.374 210.888 280.374L211.264 280.398C211.3 280.398 211.324 280.428 211.324 280.464C211.324 280.494 211.294 280.523 211.264 280.523ZM209.999 280.452L209.617 280.434C209.581 280.434 209.557 280.404 209.557 280.368C209.557 280.332 209.587 280.309 209.623 280.309L209.999 280.326C210.035 280.326 210.059 280.356 210.059 280.392C210.065 280.428 210.035 280.452 209.999 280.452ZM208.74 280.392L208.358 280.374C208.322 280.374 208.298 280.344 208.298 280.309C208.298 280.273 208.328 280.249 208.363 280.249L208.74 280.267C208.775 280.267 208.799 280.297 208.799 280.332C208.799 280.368 208.775 280.392 208.74 280.392ZM207.48 280.344L207.098 280.332C207.062 280.332 207.038 280.303 207.038 280.267C207.038 280.231 207.074 280.201 207.104 280.207L207.48 280.219C207.516 280.219 207.54 280.249 207.54 280.285C207.54 280.314 207.51 280.344 207.48 280.344ZM155.495 280.344C155.489 280.344 155.489 280.344 155.483 280.344C155.448 280.338 155.424 280.309 155.43 280.273L155.453 280.153C155.471 280.046 155.561 279.968 155.674 279.968H155.71C155.746 279.962 155.776 279.998 155.776 280.028C155.776 280.064 155.746 280.094 155.716 280.094H155.68C155.633 280.094 155.591 280.129 155.585 280.177L155.561 280.297C155.555 280.32 155.525 280.344 155.495 280.344ZM206.215 280.297L205.833 280.285C205.797 280.285 205.773 280.255 205.773 280.219C205.773 280.183 205.803 280.153 205.839 280.159L206.215 280.171C206.25 280.171 206.274 280.201 206.274 280.237C206.28 280.267 206.25 280.297 206.215 280.297ZM204.955 280.255L204.573 280.243C204.537 280.243 204.513 280.213 204.513 280.177C204.513 280.141 204.543 280.118 204.579 280.118L204.955 280.129C204.991 280.129 205.015 280.159 205.015 280.195C205.015 280.225 204.991 280.255 204.955 280.255ZM203.69 280.213L203.308 280.201C203.272 280.201 203.248 280.171 203.248 280.135C203.248 280.1 203.278 280.07 203.314 280.076L203.69 280.088C203.725 280.088 203.749 280.118 203.749 280.153C203.755 280.189 203.725 280.213 203.69 280.213ZM202.43 280.177L202.048 280.165C202.012 280.165 201.988 280.135 201.988 280.1C201.988 280.064 202.012 280.04 202.054 280.04L202.43 280.052C202.466 280.052 202.49 280.082 202.49 280.118C202.49 280.153 202.466 280.177 202.43 280.177ZM201.171 280.147L200.789 280.141C200.753 280.141 200.729 280.112 200.729 280.076C200.729 280.04 200.753 280.016 200.795 280.016L201.171 280.022C201.207 280.022 201.23 280.052 201.23 280.088C201.23 280.123 201.201 280.147 201.171 280.147ZM199.905 280.123L199.523 280.118C199.487 280.118 199.464 280.088 199.464 280.052C199.464 280.016 199.499 279.986 199.529 279.992L199.905 279.998C199.941 279.998 199.965 280.028 199.965 280.064C199.965 280.094 199.941 280.123 199.905 280.123ZM198.646 280.094L198.264 280.088C198.228 280.088 198.204 280.058 198.204 280.022C198.204 279.986 198.234 279.956 198.27 279.962L198.646 279.968C198.682 279.968 198.705 279.998 198.705 280.034C198.705 280.07 198.676 280.094 198.646 280.094ZM156.588 280.076C156.552 280.076 156.522 280.046 156.522 280.016C156.522 279.98 156.552 279.95 156.582 279.95L156.958 279.944C156.988 279.944 157.023 279.974 157.023 280.004C157.023 280.04 156.993 280.07 156.964 280.07L156.588 280.076ZM197.38 280.07L196.998 280.064C196.963 280.064 196.933 280.034 196.939 279.998C196.939 279.962 196.968 279.938 197.004 279.938L197.38 279.944C197.416 279.944 197.44 279.974 197.44 280.01C197.44 280.046 197.416 280.07 197.38 280.07ZM157.853 280.064C157.817 280.064 157.787 280.034 157.787 280.004C157.787 279.968 157.817 279.938 157.847 279.938L158.223 279.932C158.259 279.927 158.289 279.962 158.289 279.992C158.289 280.028 158.259 280.058 158.229 280.058L157.853 280.064ZM196.121 280.052L195.739 280.046C195.703 280.046 195.673 280.016 195.679 279.98C195.679 279.944 195.703 279.915 195.745 279.921L196.121 279.926C196.157 279.926 196.187 279.956 196.181 279.992C196.181 280.022 196.151 280.052 196.121 280.052ZM159.118 280.046C159.083 280.046 159.053 280.016 159.053 279.986C159.053 279.95 159.083 279.921 159.113 279.921L159.489 279.915C159.524 279.915 159.554 279.944 159.554 279.974C159.554 280.01 159.524 280.04 159.495 280.04L159.118 280.046ZM160.378 280.034C160.342 280.034 160.312 280.004 160.312 279.974C160.312 279.938 160.342 279.909 160.372 279.909L160.748 279.903C160.79 279.903 160.814 279.932 160.814 279.962C160.814 279.998 160.784 280.028 160.754 280.028L160.378 280.034ZM194.855 280.034L194.473 280.028C194.438 280.028 194.408 279.998 194.414 279.962C194.414 279.926 194.444 279.903 194.479 279.903L194.855 279.909C194.891 279.909 194.921 279.938 194.915 279.974C194.915 280.004 194.891 280.034 194.855 280.034ZM161.643 280.022C161.608 280.022 161.578 279.992 161.578 279.962C161.578 279.926 161.608 279.897 161.637 279.897L162.014 279.891C162.055 279.897 162.079 279.921 162.079 279.95C162.079 279.986 162.049 280.016 162.019 280.016L161.643 280.022ZM193.59 280.016L193.208 280.01C193.172 280.01 193.142 279.98 193.148 279.944C193.148 279.909 193.178 279.879 193.214 279.885L193.59 279.891C193.626 279.891 193.656 279.921 193.65 279.956C193.656 279.986 193.626 280.016 193.59 280.016ZM162.909 280.01C162.873 280.01 162.843 279.98 162.843 279.95C162.843 279.915 162.873 279.885 162.903 279.885L163.279 279.879C163.315 279.879 163.345 279.909 163.345 279.938C163.345 279.974 163.315 280.004 163.285 280.004L162.909 280.01ZM192.331 280.004L191.948 279.998C191.913 279.998 191.883 279.968 191.889 279.932C191.889 279.897 191.919 279.867 191.954 279.873L192.331 279.879C192.366 279.879 192.396 279.909 192.39 279.944C192.39 279.974 192.366 280.004 192.331 280.004ZM164.168 279.998C164.133 279.998 164.103 279.968 164.103 279.938C164.103 279.903 164.133 279.873 164.162 279.873L164.538 279.867C164.574 279.867 164.604 279.897 164.604 279.926C164.604 279.962 164.574 279.992 164.538 279.992L164.168 279.998ZM165.434 279.992C165.398 279.992 165.368 279.962 165.368 279.932C165.368 279.897 165.398 279.867 165.434 279.867H165.81C165.846 279.867 165.876 279.897 165.876 279.926C165.876 279.962 165.846 279.992 165.81 279.992H165.434ZM191.065 279.986L190.683 279.98C190.647 279.98 190.617 279.95 190.623 279.915C190.623 279.879 190.653 279.855 190.689 279.855L191.071 279.861C191.107 279.861 191.137 279.891 191.131 279.926C191.131 279.962 191.101 279.986 191.065 279.986ZM166.693 279.98C166.657 279.98 166.628 279.95 166.628 279.915C166.628 279.879 166.657 279.849 166.693 279.849H167.069C167.105 279.843 167.135 279.879 167.135 279.909C167.135 279.944 167.105 279.974 167.069 279.974L166.693 279.98ZM189.806 279.98L189.424 279.974C189.388 279.974 189.358 279.944 189.358 279.909C189.358 279.873 189.388 279.849 189.424 279.849L189.8 279.855C189.835 279.855 189.865 279.885 189.865 279.921C189.865 279.95 189.841 279.98 189.806 279.98ZM167.959 279.974C167.923 279.974 167.893 279.944 167.893 279.915C167.893 279.879 167.923 279.849 167.959 279.849H168.335C168.371 279.849 168.4 279.879 168.4 279.915C168.4 279.95 168.371 279.98 168.335 279.98L167.959 279.974ZM188.54 279.968H188.158C188.122 279.968 188.092 279.938 188.098 279.903C188.098 279.867 188.128 279.837 188.164 279.843H188.54C188.576 279.843 188.606 279.873 188.606 279.909C188.606 279.938 188.576 279.968 188.54 279.968ZM169.224 279.962C169.188 279.962 169.159 279.932 169.159 279.897C169.159 279.861 169.188 279.831 169.224 279.831H169.6C169.636 279.831 169.666 279.861 169.666 279.897C169.666 279.932 169.636 279.962 169.6 279.962H169.224ZM187.281 279.956H186.899C186.863 279.956 186.833 279.927 186.833 279.891C186.833 279.855 186.863 279.831 186.899 279.825H187.275C187.311 279.825 187.34 279.855 187.34 279.891C187.34 279.932 187.316 279.956 187.281 279.956ZM170.484 279.956C170.448 279.956 170.418 279.927 170.418 279.891C170.418 279.855 170.448 279.825 170.484 279.825H170.86C170.896 279.825 170.925 279.855 170.925 279.891C170.925 279.927 170.896 279.956 170.86 279.956H170.484ZM186.015 279.95H185.633C185.597 279.95 185.568 279.921 185.568 279.885C185.568 279.849 185.597 279.819 185.633 279.819H186.009C186.045 279.819 186.075 279.849 186.075 279.885C186.081 279.927 186.051 279.95 186.015 279.95ZM171.749 279.95C171.713 279.95 171.683 279.921 171.683 279.885C171.683 279.849 171.713 279.819 171.749 279.819H172.125C172.161 279.819 172.191 279.849 172.191 279.885C172.191 279.921 172.161 279.95 172.125 279.95H171.749ZM173.009 279.944C172.973 279.944 172.943 279.915 172.943 279.879C172.943 279.843 172.973 279.813 173.009 279.813H173.385C173.42 279.813 173.45 279.843 173.45 279.879C173.45 279.915 173.42 279.944 173.385 279.944H173.009ZM184.756 279.944H184.374C184.338 279.944 184.308 279.915 184.308 279.879C184.308 279.843 184.338 279.813 184.374 279.813H184.75C184.786 279.813 184.815 279.843 184.815 279.879C184.815 279.921 184.792 279.944 184.756 279.944ZM174.274 279.944C174.238 279.944 174.208 279.915 174.208 279.879C174.208 279.843 174.238 279.813 174.274 279.813H174.65C174.686 279.813 174.716 279.843 174.716 279.879C174.716 279.915 174.686 279.944 174.65 279.944H174.274ZM183.49 279.944H183.114C183.078 279.944 183.049 279.915 183.049 279.879C183.049 279.843 183.078 279.813 183.114 279.813H183.49C183.526 279.813 183.556 279.843 183.556 279.879C183.556 279.915 183.526 279.944 183.49 279.944ZM175.539 279.938C175.504 279.938 175.474 279.909 175.474 279.873C175.474 279.837 175.504 279.807 175.539 279.807H175.916C175.951 279.807 175.981 279.837 175.981 279.873C175.981 279.909 175.951 279.938 175.916 279.938H175.539ZM182.231 279.938H181.855C181.819 279.938 181.789 279.909 181.789 279.873C181.789 279.837 181.819 279.807 181.855 279.807H182.231C182.267 279.807 182.296 279.837 182.296 279.873C182.29 279.909 182.267 279.938 182.231 279.938ZM176.799 279.938C176.763 279.938 176.733 279.909 176.733 279.873C176.733 279.837 176.763 279.807 176.799 279.807H177.175C177.211 279.807 177.241 279.837 177.241 279.873C177.241 279.909 177.211 279.938 177.175 279.938H176.799ZM180.965 279.938H180.589C180.553 279.938 180.524 279.909 180.524 279.873C180.524 279.837 180.553 279.807 180.589 279.807H180.965C181.001 279.807 181.031 279.837 181.031 279.873C181.031 279.909 181.001 279.938 180.965 279.938ZM178.064 279.938C178.029 279.938 177.999 279.909 177.999 279.873C177.999 279.837 178.029 279.807 178.064 279.807H178.44C178.476 279.807 178.506 279.837 178.506 279.873C178.506 279.909 178.476 279.938 178.44 279.938H178.064ZM179.706 279.938H179.33C179.294 279.938 179.264 279.909 179.264 279.873C179.264 279.837 179.294 279.807 179.33 279.807H179.706C179.742 279.807 179.772 279.837 179.772 279.873C179.766 279.909 179.736 279.938 179.706 279.938Z" fill="white"/>
<path d="M191.438 308.924H183.159C182.072 308.924 181.159 308.118 181.034 307.044L180.078 299.081C179.923 297.81 180.92 296.694 182.203 296.694H192.148C193.407 296.694 194.392 297.768 194.279 299.016L193.569 306.978C193.473 308.083 192.548 308.924 191.438 308.924Z" fill="#5254CF"/>
<path d="M190.428 307.462H184.131C183.307 307.462 182.608 306.847 182.513 306.029L181.785 299.965C181.671 298.998 182.429 298.15 183.402 298.15H190.971C191.926 298.15 192.678 298.968 192.595 299.917L192.052 305.981C191.974 306.817 191.27 307.462 190.428 307.462Z" fill="#9475E4"/>
<path opacity="0.78" d="M371.984 165.111L391.682 204.728L417.009 148.451L390.703 177.574L371.984 165.111Z" fill="white"/>
<path d="M297.511 177.956C297.386 178.362 298.866 178.983 299.738 177.318C299.768 176.518 300.251 173.104 299.779 172.453C297.243 168.991 292.318 164.651 292.318 164.651C291.488 165.469 292.169 166.281 292.169 166.281L294.557 168.77C294.055 169.671 293.446 170.435 293.16 171.528C292.945 172.351 293.076 173.235 293.494 173.993C293.912 174.745 294.485 175.73 295.028 176.5C296.049 177.945 297.511 177.956 297.511 177.956Z" fill="url(#paint1_linear_2068_8996)"/>
<path d="M295.607 170.382L297.785 172.226L298.466 174.065L296.526 176.22C296.526 176.22 295.875 172.578 295.392 171.785C294.902 170.997 295.153 170.615 295.607 170.382Z" fill="url(#paint2_linear_2068_8996)"/>
<path d="M340.248 313.789C340.248 313.789 340.797 316.899 341.065 319.979C341.173 321.185 340.242 322.229 339.036 322.277C334.935 322.45 326.161 322.779 323.009 322.641C322.537 322.617 322.227 322.134 322.4 321.698C322.549 321.328 322.83 321.03 323.188 320.862L337.681 314.201L340.248 313.789Z" fill="#A78BEF"/>
<path d="M340.7 311.963L340.258 315.687C340.258 315.687 337.721 316.869 335.984 315.538L337.035 311.39L340.7 311.963Z" fill="url(#paint3_linear_2068_8996)"/>
<path d="M340.368 241.987C340.559 242.96 341.395 290.492 336.309 311.789C336.226 312.136 336.405 312.494 336.733 312.631C337.515 312.947 339.037 313.413 340.87 313.473C341.437 313.491 341.944 313.121 342.105 312.577C343.556 307.635 350.516 282.875 351.423 259.22C352.438 232.789 351.423 258.318 351.423 258.318L350.826 241.981L340.368 241.987Z" fill="black"/>
<path d="M356.927 315.413C356.927 315.413 357.805 316.983 358.646 321.155C358.802 321.907 358.27 322.629 357.506 322.707C356.151 322.838 354.068 323.011 352.397 322.999C351.627 322.993 351.024 322.325 351.119 321.561C351.304 320.039 351.883 317.538 353.662 315.592L356.927 315.413Z" fill="#A78BEF"/>
<path d="M357.688 310.626L356.655 316.254C356.655 316.254 355.635 317.013 353.617 316.463L354.113 310.405L357.688 310.626Z" fill="url(#paint4_linear_2068_8996)"/>
<path d="M360.479 243.443C364.633 268.52 359.578 305.426 357.87 312.649C357.769 313.091 357.411 313.431 356.963 313.503C356.199 313.628 354.946 313.729 353.71 313.371C353.286 313.246 352.988 312.864 352.97 312.422C352.743 306.584 353.155 270.734 349.281 256.563C349.084 255.847 348.648 255.22 348.039 254.791L340.524 249.448L339.945 240.811L360.479 243.443Z" fill="black"/>
<path d="M333.995 195.924C346.446 195.721 360.187 199.195 360.187 199.195C363.9 220.856 360.838 245.837 360.838 245.837C351.197 248.368 340.322 244.291 340.322 244.291C338.722 235.236 331.243 209.76 331.243 209.76C325.16 209.002 320.146 207.247 316.016 204.931C319.161 201.284 320.648 196.64 321.292 193.894C325.697 195.255 330.156 195.989 333.995 195.924Z" fill="#A78BEF"/>
<path d="M297.219 177.58C298.442 176.1 299.988 176.804 299.988 176.804C301.821 184.546 311.431 190.82 321.304 193.888C320.659 196.634 319.173 201.278 316.027 204.925C299.642 195.714 297.219 177.58 297.219 177.58Z" fill="url(#paint5_linear_2068_8996)"/>
<path d="M355.414 211.252L360.189 199.195C360.189 199.195 371.823 207.098 373.733 217.12C371.537 217.281 367.537 217.854 363.622 219.83C362.768 215.096 355.414 211.252 355.414 211.252Z" fill="#A78BEF"/>
<path d="M346.617 185.812L350.581 197.273C350.646 197.464 350.569 197.672 350.39 197.768C349.309 198.365 345.417 200.09 340.726 197.117C340.236 196.807 339.902 196.3 339.83 195.727L338.547 185.806H346.617V185.812Z" fill="url(#paint6_linear_2068_8996)"/>
<path d="M337.994 175.205C337.994 175.205 333.642 183.394 334.197 186.701C334.752 190.008 340.149 189.769 344.858 187.083L348.147 178.237L337.994 175.205Z" fill="url(#paint7_linear_2068_8996)"/>
<path d="M344.655 182.744C344.464 182.66 344.392 182.427 344.505 182.248C344.852 181.717 345.508 180.631 345.717 179.676C345.717 179.676 346.499 179.174 343.724 178.512C340.948 177.849 336.817 176.816 335.946 174.459C335.098 172.155 337.325 166.371 340.876 170.979C341.014 171.152 341.276 171.158 341.413 170.985C341.998 170.227 343.527 168.651 345.652 169.606C347.639 170.501 347.866 171.958 347.836 172.692C347.83 172.907 348.021 173.074 348.236 173.038C349.239 172.847 351.656 172.68 352.785 175.157C353.71 177.199 353.107 178.351 352.558 178.918C352.379 179.103 352.456 179.401 352.701 179.479C353.364 179.682 354.217 180.243 354.128 181.789C354.008 183.932 351.615 183.741 350.934 183.645C350.821 183.627 350.707 183.669 350.636 183.753C350.051 184.397 347.418 187.143 344.571 187.477C344.326 187.507 344.135 187.262 344.213 187.03L345.449 183.442C345.508 183.275 345.425 183.096 345.264 183.024L344.655 182.744Z" fill="black"/>
<path d="M344.149 183.251C344.149 183.251 347.246 181.126 347.473 182.917C347.7 184.708 344.686 185.507 343.188 184.845L344.149 183.251Z" fill="url(#paint8_linear_2068_8996)"/>
<path d="M363.625 219.83C363.625 219.83 367.69 238.173 364.007 248.481C368.52 250.577 367.69 250.183 367.69 250.183C367.69 250.183 376.62 224.086 373.737 217.12C368.048 216.517 365.231 218.045 363.625 219.83Z" fill="url(#paint9_linear_2068_8996)"/>
<path d="M364.005 248.481C364.005 248.481 361.677 251.49 361.862 252.69C362.047 253.889 362.095 254.379 362.095 254.379C362.095 254.379 363.265 253.579 363.193 252.558C363.032 255.799 361.946 259.488 362.931 259.309C363.915 259.13 369.025 254.421 367.873 249.401C365.247 247.586 364.512 247.783 364.005 248.481Z" fill="url(#paint10_linear_2068_8996)"/>
</g>
<defs>
<linearGradient id="paint0_linear_2068_8996" x1="349.229" y1="86.1191" x2="398.698" y2="94.8235" gradientUnits="userSpaceOnUse">
<stop stop-color="#DAE3FE"/>
<stop offset="1" stop-color="#E9EFFD"/>
</linearGradient>
<linearGradient id="paint1_linear_2068_8996" x1="293.816" y1="165.21" x2="302.134" y2="188.975" gradientUnits="userSpaceOnUse">
<stop stop-color="#FEBBBA"/>
<stop offset="1" stop-color="#FF928E"/>
</linearGradient>
<linearGradient id="paint2_linear_2068_8996" x1="300.212" y1="180.394" x2="293.947" y2="167.754" gradientUnits="userSpaceOnUse">
<stop stop-color="#FEBBBA"/>
<stop offset="1" stop-color="#FF928E"/>
</linearGradient>
<linearGradient id="paint3_linear_2068_8996" x1="340.699" y1="313.775" x2="335.985" y2="313.775" gradientUnits="userSpaceOnUse">
<stop stop-color="#FEBBBA"/>
<stop offset="1" stop-color="#FF928E"/>
</linearGradient>
<linearGradient id="paint4_linear_2068_8996" x1="357.69" y1="313.534" x2="353.619" y2="313.534" gradientUnits="userSpaceOnUse">
<stop stop-color="#FEBBBA"/>
<stop offset="1" stop-color="#FF928E"/>
</linearGradient>
<linearGradient id="paint5_linear_2068_8996" x1="300.932" y1="162.721" x2="309.25" y2="186.487" gradientUnits="userSpaceOnUse">
<stop stop-color="#FEBBBA"/>
<stop offset="1" stop-color="#FF928E"/>
</linearGradient>
<linearGradient id="paint6_linear_2068_8996" x1="350.6" y1="192.314" x2="338.549" y2="192.314" gradientUnits="userSpaceOnUse">
<stop stop-color="#FEBBBA"/>
<stop offset="1" stop-color="#FF928E"/>
</linearGradient>
<linearGradient id="paint7_linear_2068_8996" x1="335.685" y1="184.648" x2="348.935" y2="176.566" gradientUnits="userSpaceOnUse">
<stop stop-color="#FEBBBA"/>
<stop offset="1" stop-color="#FF928E"/>
</linearGradient>
<linearGradient id="paint8_linear_2068_8996" x1="339.16" y1="187.661" x2="351.081" y2="180.391" gradientUnits="userSpaceOnUse">
<stop stop-color="#FEBBBA"/>
<stop offset="1" stop-color="#FF928E"/>
</linearGradient>
<linearGradient id="paint9_linear_2068_8996" x1="360.686" y1="280.919" x2="370.483" y2="210.559" gradientUnits="userSpaceOnUse">
<stop stop-color="#FEBBBA"/>
<stop offset="1" stop-color="#FF928E"/>
</linearGradient>
<linearGradient id="paint10_linear_2068_8996" x1="361.851" y1="274.151" x2="369.669" y2="218.003" gradientUnits="userSpaceOnUse">
<stop stop-color="#FEBBBA"/>
<stop offset="1" stop-color="#FF928E"/>
</linearGradient>
<clipPath id="clip0_2068_8996">
<rect width="542.64" height="328.79" fill="white"/>
</clipPath>
</defs>
</svg>
