<svg width="543" height="329" viewBox="0 0 543 329" fill="none" xmlns="http://www.w3.org/2000/svg">
<g clip-path="url(#clip0_1267_12129)">
<path opacity="0.2" d="M128.492 325.584L413.142 308.934C488.412 304.534 546.652 240.734 543.512 165.394C540.872 102.084 518.192 34.6439 441.912 5.8239C388.262 -14.4461 318.592 2.1439 274.402 35.8539C263.782 43.9539 254.022 53.2439 242.612 60.1739C216.022 76.3239 192.672 65.1739 164.972 60.8839C106.412 51.7939 47.9621 70.4639 17.7021 124.434C-28.7579 207.354 26.0421 331.574 128.492 325.584Z" fill="#999999"/>
<path d="M335.981 86.8357V187.013H158.812V86.8357C158.812 81.358 163.26 76.9194 168.735 76.9194H326.053C331.546 76.9194 335.981 81.358 335.981 86.8357Z" fill="white"/>
<path d="M335.981 86.8357V90.3073H158.812V86.8357C158.812 81.358 163.26 76.9194 168.735 76.9194H326.053C331.546 76.9194 335.981 81.358 335.981 86.8357Z" fill="#E527BB"/>
<path d="M326.144 180.965H168.082V93.6768H326.144V180.965ZM169.074 179.974H325.147V94.6738H169.074V179.974Z" fill="#A78BEF"/>
<path d="M191.656 94.6677H190.664V179.974H191.656V94.6677Z" fill="#A78BEF"/>
<path d="M214.484 94.6677H213.492V179.974H214.484V94.6677Z" fill="#A78BEF"/>
<path d="M237.316 94.6677H236.324V179.974H237.316V94.6677Z" fill="#A78BEF"/>
<path d="M258.98 94.6677H257.988V179.974H258.98V94.6677Z" fill="#A78BEF"/>
<path d="M282.222 94.6677H281.23V179.974H282.222V94.6677Z" fill="#A78BEF"/>
<path d="M304.804 94.6677H303.812V179.974H304.804V94.6677Z" fill="#A78BEF"/>
<path d="M325.731 115.089H168.414V116.08H325.731V115.089Z" fill="#A78BEF"/>
<path d="M325.731 136.747H168.414V137.738H325.731V136.747Z" fill="#A78BEF"/>
<path d="M325.731 158.406H168.414V159.397H325.731V158.406Z" fill="#A78BEF"/>
<path d="M233.841 117.485H215.973V135.342H233.841V117.485Z" fill="#E527BB"/>
<path d="M211.357 117.485H193.488V135.342H211.357V117.485Z" fill="#E527BB"/>
<path d="M188.853 117.485H170.984V135.342H188.853V117.485Z" fill="#E527BB"/>
<path d="M256.665 117.485H238.797V135.342H256.665V117.485Z" fill="#E527BB"/>
<path d="M278.755 117.485H260.887V135.342H278.755V117.485Z" fill="#E527BB"/>
<path d="M301.579 117.485H283.711V135.342H301.579V117.485Z" fill="#F9D4E1"/>
<path d="M323.669 117.485H305.801V135.342H323.669V117.485Z" fill="#E527BB"/>
<path d="M173.207 96.0732H170.562V98.716H173.207V96.0732Z" fill="#A78BEF"/>
<path d="M196.203 96.0732H193.559V98.716H196.203V96.0732Z" fill="#A78BEF"/>
<path d="M219.027 96.0732H216.383V98.716H219.027V96.0732Z" fill="#A78BEF"/>
<path d="M241.523 96.0732H238.879V98.716H241.523V96.0732Z" fill="#A78BEF"/>
<path d="M263.359 96.0732H260.715V98.716H263.359V96.0732Z" fill="#A78BEF"/>
<path d="M286.355 96.0732H283.711V98.716H286.355V96.0732Z" fill="#A78BEF"/>
<path d="M309.352 96.0732H306.707V98.716H309.352V96.0732Z" fill="#A78BEF"/>
<path d="M173.207 117.75H170.562V120.392H173.207V117.75Z" fill="white"/>
<path d="M196.203 117.75H193.559V120.392H196.203V117.75Z" fill="white"/>
<path d="M219.027 117.75H216.383V120.392H219.027V117.75Z" fill="white"/>
<path d="M241.523 117.75H238.879V120.392H241.523V117.75Z" fill="white"/>
<path d="M263.359 117.75H260.715V120.392H263.359V117.75Z" fill="white"/>
<path d="M286.355 117.75H283.711V120.392H286.355V117.75Z" fill="#80CDD1"/>
<path d="M309.352 117.75H306.707V120.392H309.352V117.75Z" fill="white"/>
<path d="M173.207 139.39H170.562V142.033H173.207V139.39Z" fill="#80CDD1"/>
<path d="M196.203 139.39H193.559V142.033H196.203V139.39Z" fill="#A78BEF"/>
<path d="M219.027 139.39H216.383V142.033H219.027V139.39Z" fill="#A78BEF"/>
<path d="M241.523 139.39H238.879V142.033H241.523V139.39Z" fill="#A78BEF"/>
<path d="M263.359 139.39H260.715V142.033H263.359V139.39Z" fill="#A78BEF"/>
<path d="M286.355 139.39H283.711V142.033H286.355V139.39Z" fill="#80CDD1"/>
<path d="M309.352 139.39H306.707V142.033H309.352V139.39Z" fill="#80CDD1"/>
<path d="M173.207 160.88H170.562V163.523H173.207V160.88Z" fill="#A78BEF"/>
<path d="M196.203 160.88H193.559V163.523H196.203V160.88Z" fill="#A78BEF"/>
<path d="M219.027 160.88H216.383V163.523H219.027V160.88Z" fill="#A78BEF"/>
<path d="M241.523 160.88H238.879V163.523H241.523V160.88Z" fill="#A78BEF"/>
<path d="M263.359 160.88H260.715V163.523H263.359V160.88Z" fill="#A78BEF"/>
<path d="M286.355 160.88H283.711V163.523H286.355V160.88Z" fill="#80CDD1"/>
<path d="M309.352 160.88H306.707V163.523H309.352V160.88Z" fill="#80CDD1"/>
<path d="M171.061 84.8476C172.157 84.8476 173.045 83.9602 173.045 82.8656C173.045 81.7709 172.157 80.8835 171.061 80.8835C169.966 80.8835 169.078 81.7709 169.078 82.8656C169.078 83.9602 169.966 84.8476 171.061 84.8476Z" fill="white"/>
<path d="M176.765 84.8476C177.86 84.8476 178.748 83.9602 178.748 82.8656C178.748 81.7709 177.86 80.8835 176.765 80.8835C175.669 80.8835 174.781 81.7709 174.781 82.8656C174.781 83.9602 175.669 84.8476 176.765 84.8476Z" fill="white"/>
<path d="M182.061 84.8476C183.157 84.8476 184.045 83.9602 184.045 82.8656C184.045 81.7709 183.157 80.8835 182.061 80.8835C180.966 80.8835 180.078 81.7709 180.078 82.8656C180.078 83.9602 180.966 84.8476 182.061 84.8476Z" fill="white"/>
<path d="M180.015 128.393C180.556 126.393 175.099 130.068 174.456 130.399C172.616 131.36 170.849 132.459 169.082 133.552C169.593 131.78 170.044 129.516 168.734 129.804C168.415 129.876 168.169 131.132 167.971 131.396C167.574 131.93 166.991 132.243 166.504 132.663C165.597 133.444 164.689 134.249 164.052 135.246C163.553 136.027 163.259 137.414 162.784 138.591C162.237 139.138 161.714 139.841 161.173 140.573C160.26 141.811 159.304 143.084 158.102 143.618C158.06 144.195 162.724 148.61 162.237 148.844C164.683 147.649 166.66 145.673 169.227 144.604C170.693 143.991 172.466 143.649 173.807 142.772C175.652 141.564 175.904 139.138 176.144 137.114C176.175 136.849 176.325 135.87 176.295 135.486C176.169 133.624 175.291 133.408 176.709 131.606C177.449 130.669 179.57 129.588 179.961 128.531C179.985 128.489 180.003 128.435 180.015 128.393Z" fill="#FFBBB5"/>
<path d="M132.71 150.766C134.243 152.327 137.043 152.736 138.961 151.673L161.048 139.216L166.097 147.979L137.753 168.184C135.955 169.445 133.071 169.409 131.304 168.112L106.211 149.637L109.685 127.318L132.71 150.766Z" fill="#A78BEF"/>
<path d="M127.101 324.405C127.083 324.808 127.053 325.18 127.017 325.547C126.915 326.057 126.848 326.261 126.398 326.526C126.247 326.61 126.067 326.676 125.899 326.724C125.099 326.694 124.294 326.676 123.495 326.676C122.124 326.658 120.754 326.658 119.372 326.676C117.316 326.676 115.279 326.706 113.259 326.742C112.556 326.76 111.835 326.76 111.12 326.772C109.184 326.808 107.243 326.826 105.29 326.826C104.418 326.826 103.553 326.826 102.669 326.808C102.399 326.808 102.134 326.808 101.852 326.79C100.482 326.688 99.1474 326.369 98.4442 325.084C98.3781 324.952 98.312 324.838 98.2579 324.706C98.1437 324.423 98.0415 324.135 97.9574 323.835C97.8732 323.619 97.8251 323.396 97.7711 323.186C97.7049 322.886 97.6388 322.585 97.6028 322.285C97.5667 322.015 97.5547 321.751 97.5547 321.486C97.5547 321.318 97.5547 321.168 97.5727 321.024C97.5907 320.639 97.6388 320.273 97.7049 319.925C97.7049 319.871 97.723 319.823 97.723 319.793C97.7951 319.456 97.8732 319.144 97.9574 318.82C98.324 317.438 98.925 316.303 99.508 315.45C100.343 314.195 101.041 313.126 101.443 311.624C101.792 310.243 101.93 308.819 102.098 307.402C102.964 299.732 102.026 293.852 101.81 292.266C101.624 290.999 101.461 289.317 101.395 287.311C101.329 285.209 101.365 282.758 101.612 280.086C102.165 274.181 103.769 267.322 107.604 261.1C108.662 259.382 109.689 258.079 110.362 257.244C110.062 255.34 109.761 253.436 109.461 251.538C108.962 248.403 108.463 245.28 107.958 242.126C107.922 241.958 107.91 241.796 107.874 241.628C107.772 241.039 107.694 240.457 107.61 239.874C109.779 240.409 111.949 240.943 114.137 241.496C115.104 241.712 116.06 241.946 117.028 242.18C118.332 242.499 119.636 242.835 120.952 243.147C121.019 246.667 120.952 249.808 120.82 252.427C120.7 254.577 120.568 256.379 120.436 257.797C119.035 273.214 115.507 280.59 112.286 299.96C111.799 302.897 111.384 305.852 110.981 308.783C110.735 310.567 110.014 312.519 110.531 314.321C111.168 316.489 113.62 317.288 115.507 318.075C117.31 318.826 119.113 319.444 120.934 320.147C122.154 320.627 123.357 321.144 124.559 321.781C124.721 321.865 124.871 321.943 125.039 322.045C125.238 322.165 125.442 322.267 125.622 322.399C126.157 322.73 126.572 323.096 126.824 323.583C126.969 323.823 127.071 324.087 127.101 324.405Z" fill="#FFBBB5"/>
<path d="M110.659 260.151C103.897 275.851 98.1876 288.116 90.0678 300.915C87.0627 305.654 84.4904 312.213 80.8722 317.582C80.5357 318.081 80.1871 318.567 79.8385 319.048C78.0354 321.498 75.5171 325.234 72.524 326.243C69.9877 327.09 65.4801 327.378 64.3922 324.237C62.6072 319.03 67.3493 315.21 71.0215 312.057C71.6886 311.492 72.3077 310.957 72.8606 310.423C73.2934 310.002 73.7141 309.588 74.1167 309.15C77.6748 305.36 80.6979 301.672 82.9337 296.939C87.5255 287.275 85.7705 280.92 88.7276 271.31C90.6629 265.016 95.2066 259.983 97.3402 253.79C98.7466 249.718 96.2764 240.961 102.383 239.472C105.105 238.805 109.114 241.676 111.482 246.499C111.759 252.175 111.993 257.01 110.659 260.151Z" fill="#FFBBB5"/>
<path d="M127.017 325.547C126.915 326.057 126.848 326.261 126.398 326.526C126.247 326.61 126.067 326.676 125.899 326.724C125.148 326.904 124.264 326.694 123.495 326.676C122.124 326.658 120.754 326.658 119.372 326.676C117.316 326.676 115.279 326.706 113.259 326.742C112.556 326.76 111.835 326.76 111.12 326.772C109.184 326.808 107.243 326.826 105.29 326.826H103.337C103.12 326.826 102.886 326.826 102.669 326.808C102.399 326.808 102.134 326.808 101.852 326.79C100.482 326.688 99.1474 326.369 98.4442 325.084C98.3781 324.952 98.312 324.838 98.2579 324.706C98.1437 324.423 98.0415 324.135 97.9574 323.835C97.8732 323.619 97.8251 323.396 97.7711 323.186C97.7049 322.886 97.6388 322.585 97.6028 322.285C97.5667 322.015 97.5547 321.751 97.5547 321.486C97.5547 321.318 97.5547 321.168 97.5727 321.024C97.5907 320.639 97.6388 320.273 97.7049 319.925C97.7049 319.871 97.723 319.823 97.723 319.793C97.7951 319.456 97.8732 319.144 97.9574 318.82C100.53 321.258 108.205 326.712 120.928 320.159C121.415 319.907 124.054 321.528 124.553 321.793C124.715 321.877 124.865 321.955 125.033 322.057C125.232 322.177 125.436 322.279 125.616 322.411C126.151 322.742 126.566 323.108 126.818 323.595C126.951 323.823 127.053 324.093 127.083 324.405C127.137 324.76 127.119 325.126 127.017 325.547Z" fill="#A78BEF"/>
<path d="M80.8722 317.582C80.5357 318.081 80.1871 318.567 79.8385 319.048C78.0354 321.498 75.5171 325.234 72.524 326.243C69.9877 327.09 65.4801 327.378 64.3922 324.237C62.6072 319.03 67.3493 315.21 71.0215 312.057C68.2027 318.183 70.9013 322.537 80.8722 317.582Z" fill="#A78BEF"/>
<path d="M101.668 280.332C101.765 280.332 101.861 280.278 101.897 280.182L112.889 254.733C112.944 254.607 112.883 254.463 112.757 254.409C112.631 254.355 112.481 254.415 112.427 254.541L101.434 279.989C101.38 280.116 101.44 280.266 101.566 280.32C101.602 280.332 101.638 280.332 101.668 280.332Z" fill="white"/>
<path d="M82.9103 86.7696C78.4747 87.9047 75.8783 92.2052 74.6042 96.7579C70.6675 110.836 72.3563 126.128 69.5195 140.237C74.9227 140.861 80.1456 139.943 85.4766 139.876C86.6486 130.032 86.1378 120.705 85.2002 110.981C84.7975 106.806 84.0823 102.073 85.2362 97.9531C85.8012 95.923 86.6847 94.2413 88.4276 93.2262C89.6357 92.5235 91.9977 93.0881 92.4545 91.5505C92.8211 90.3132 90.97 88.5654 90.2367 88.0008C88.2534 86.4693 85.2362 86.175 82.9103 86.7696Z" fill="#231F20"/>
<path d="M83.8536 76.7874C89.3589 73.7542 95.898 75.6582 101.367 72.541C104.042 71.0214 107.155 68.2525 110.329 70.4028C112.612 71.9524 116.489 77.2498 115.479 80.1929C114.71 82.4512 111.543 81.6824 109.625 82.199C107.317 82.8176 104.649 83.0398 102.557 84.2771C100.147 85.7066 97.4727 87.5084 95.291 89.1842C93.1033 90.8539 92.7487 94.0132 90.3386 95.5387C87.3635 97.4067 84.5508 94.806 83.2165 92.1933C80.5059 86.8838 77.2784 80.4091 83.8536 76.7874Z" fill="#E527BB"/>
<path d="M109.031 113.215C109.031 113.215 109.476 126.723 109.476 126.729C109.482 127.095 110.618 128.11 110.84 128.417C111.766 129.678 112.649 131.077 113.118 132.579C113.551 133.96 113.701 135.522 112.77 136.753C111.147 138.886 107.361 137.252 105.587 136.069C102.991 134.333 100.888 131.618 99.1265 129.095L95.875 124.813L97.4978 110.044L108.731 112.404L109.031 113.215Z" fill="#FFBBB5"/>
<path d="M105.429 83.3702C111.15 82.7276 116.596 85.1781 118.459 91.7729C120.021 97.2926 119.715 103.515 118.573 109.083C117.004 116.735 109.816 120.164 102.454 116.981C94.8567 113.702 93.4503 104.644 92.7531 97.3167C92.2482 92.0612 94.5021 87.5986 99.2621 85.2322C101.246 84.2411 103.355 83.6045 105.429 83.3702Z" fill="#FFBBB5"/>
<path d="M118.81 85.5445C116.677 81.5804 113.107 78.7875 108.401 78.5773C105.864 78.4631 102.565 79.1599 100.449 80.5713C98.1772 82.0789 99.4934 83.5024 100.329 85.3342C101.747 88.4575 102.312 92.2534 103.063 95.5688C102.889 94.782 120.649 93.6889 120.595 94.5658C120.782 91.2203 120.415 88.5235 118.81 85.5445Z" fill="#231F20"/>
<path d="M101.147 81.4481C97.793 80.4811 93.9705 81.388 91.4042 83.7424C88.2789 86.6074 87.3713 90.9018 87.5336 94.9861C87.7019 99.1243 88.6816 104.206 91.5905 107.341C92.9909 108.842 95.5572 111.641 97.174 112.831C97.2461 109.677 95.6594 107.263 96.5369 104.278C96.9997 102.698 98.6765 99.3045 99.5721 98.0132C101.736 94.896 107.776 83.3641 101.147 81.4481Z" fill="#231F20"/>
<path d="M94.4077 103.293C94.6601 105.972 96.1506 108.026 97.7373 107.875C99.324 107.731 100.4 105.431 100.147 102.758C99.895 100.079 98.4044 98.0253 96.8177 98.1755C95.2371 98.3196 94.1552 100.614 94.4077 103.293Z" fill="#FFBBB5"/>
<path d="M88.6095 85.8627C89.2286 85.0459 89.9137 84.2831 90.7011 83.6164C93.1172 81.5623 95.6414 79.8265 98.5744 78.5712C102.349 76.9495 106.808 75.5981 110.949 76.1507C112.999 76.421 114.964 77.2558 116.19 78.9796C117.813 81.25 117.002 81.7305 114.61 81.4422C107.884 80.6313 100.786 82.1869 95.383 86.5775C94.0908 87.6286 92.6484 89.034 91.6987 90.3974C90.2082 92.5477 88.6936 95.3826 88.1407 97.9472C87.9123 99.0103 86.3617 98.0433 86.0672 97.701C85.4421 96.9562 85.5022 95.6168 85.388 94.7219C84.9613 91.4185 86.7463 88.3373 88.6095 85.8627Z" fill="#C618A5"/>
<path d="M108.74 118.314C107.875 118.314 100.314 118.08 97.0865 110.212C96.9963 109.984 97.1045 109.725 97.3269 109.635C97.5553 109.545 97.8137 109.653 97.9039 109.876C101.071 117.606 108.476 117.443 108.782 117.425C109.023 117.437 109.233 117.606 109.239 117.852C109.245 118.098 109.059 118.302 108.812 118.308C108.812 118.314 108.788 118.314 108.74 118.314Z" fill="#FFBBB5"/>
<path d="M96.3124 105.167C96.084 105.167 95.8917 104.993 95.8737 104.764C95.8677 104.68 95.8496 104.56 95.8256 104.404C95.6333 103.041 95.477 101.533 96.1501 100.872C96.3244 100.698 96.643 100.506 97.1298 100.584C97.3943 100.62 97.7609 100.782 97.9893 101.323C98.0854 101.545 97.9833 101.809 97.7549 101.905C97.5325 102.002 97.268 101.899 97.1719 101.671C97.1178 101.539 97.0577 101.467 96.9916 101.461C96.8353 101.437 96.7872 101.479 96.7632 101.503C96.3545 101.905 96.6129 103.689 96.6911 104.278C96.7151 104.446 96.7331 104.584 96.7452 104.68C96.7692 104.921 96.5889 105.137 96.3485 105.161C96.3425 105.167 96.3305 105.167 96.3124 105.167Z" fill="#A86770"/>
<path d="M102.479 101.203C102.287 101.203 102.094 101.125 101.95 100.974C101.674 100.68 101.686 100.218 101.974 99.9413C104.787 97.2746 108.237 98.3857 108.381 98.4338C108.766 98.5599 108.97 98.9743 108.844 99.3587C108.718 99.7431 108.303 99.9473 107.924 99.8212C107.804 99.7792 105.141 98.9563 102.984 101.004C102.84 101.137 102.659 101.203 102.479 101.203Z" fill="#FFBBB5"/>
<path d="M112.227 108.602C112.023 108.602 111.86 108.44 111.86 108.236C111.86 108.032 112.023 107.87 112.227 107.87C112.563 107.87 112.996 107.821 113.14 107.581C113.411 107.131 112.822 106.032 112.467 105.377C112.353 105.167 112.251 104.981 112.185 104.83C111.656 103.677 111.458 101.749 112.137 100.458C112.233 100.278 112.449 100.212 112.63 100.308C112.81 100.404 112.876 100.62 112.78 100.8C112.233 101.845 112.383 103.521 112.846 104.53C112.912 104.668 113.002 104.842 113.104 105.035C113.585 105.93 114.24 107.149 113.76 107.96C113.507 108.386 112.99 108.602 112.227 108.602Z" fill="#FFBBB5"/>
<path d="M110.424 112.2C109.144 112.2 107.653 111.816 106.211 110.554C106.061 110.422 106.043 110.194 106.175 110.038C106.307 109.888 106.535 109.87 106.692 110.002C109.973 112.873 113.507 110.656 113.543 110.632C113.712 110.524 113.94 110.572 114.048 110.74C114.156 110.909 114.108 111.137 113.94 111.245C113.922 111.263 112.425 112.2 110.424 112.2Z" fill="#FFBBB5"/>
<path d="M104.668 102.95C104.668 103.683 105.047 104.284 105.515 104.284C105.984 104.284 106.363 103.689 106.363 102.95C106.363 102.218 105.984 101.623 105.515 101.623C105.047 101.623 104.668 102.218 104.668 102.95Z" fill="#FFBBB5"/>
<path d="M115.16 102.14C115.16 102.872 115.539 103.467 116.008 103.467C116.476 103.467 116.861 102.872 116.861 102.14C116.861 101.407 116.476 100.812 116.008 100.812C115.539 100.806 115.16 101.401 115.16 102.14Z" fill="#FFBBB5"/>
<path d="M98.9149 127.035C98.9149 127.035 107.624 132.345 111.873 129.372C111.873 129.372 124.194 148.478 121.856 155.697C121.856 155.697 119.097 164.808 119.091 164.826C118.55 166.616 119.752 170.25 119.975 172.058C120.696 177.98 121.423 183.908 122.144 189.83C124.603 209.969 126.658 230.24 129.549 250.301C125.751 250.265 122.114 251.826 118.286 251.628C114.596 251.436 110.947 250.397 107.365 250.307C103.627 250.211 101.313 251.538 97.773 251.628C96.5469 251.658 81.263 247.184 80.9023 249.646C80.9264 249.478 98.9149 127.035 98.9149 127.035Z" fill="#E527BB"/>
<path d="M117.04 251.814C117.094 252.865 117.16 253.55 117.226 253.574C113.746 252.385 109.984 253.875 106.414 253.61C103.27 253.382 100.319 252.025 97.1099 252.613C93.2333 253.322 91.0276 253.658 87.2592 252.529C83.4667 251.388 78.2439 254.403 77.156 250.187C76.4408 247.424 77.757 242.781 77.9854 239.916C78.6105 232.186 79.2356 224.456 79.8606 216.726C80.6179 207.386 81.3752 198.041 82.1265 188.701C81.8079 172.148 79.2416 151.439 79.2416 151.439C76.7594 132.759 91.256 123.63 91.256 123.63C112.935 126.813 113.993 146.976 113.993 146.976L113.668 169.908C113.969 174.647 114.251 179.404 114.552 184.142C115.219 194.87 115.369 205.645 115.766 216.378C116.06 224.246 116.355 232.108 116.691 239.97C116.733 240.799 116.853 248.325 117.04 251.814Z" fill="#A78BEF"/>
<path d="M100.298 168.646L111.422 168.514L110.815 176.286L99.0234 177.884L100.298 168.646Z" fill="#FFBBB5"/>
<path d="M124.517 170.448C124.45 170.328 124.342 170.19 124.162 170.022C123.633 169.535 122.665 169.415 121.992 169.301C120.406 169.025 118.735 169.139 117.172 168.778C116.066 168.526 111.324 167.157 110.789 168.995C110.224 169.055 109.725 169.259 109.713 170.178C108.698 170.394 108.547 171.535 109.281 172.142C108.121 172.58 108.758 174.833 109.725 175.301C108.812 178.01 114.413 178.376 115.976 178.232C116.926 178.142 123.723 176.671 121.806 175.313C123.284 175.361 124.498 174.292 123.11 173.025C124.643 173.289 124.36 172.322 123.657 171.655C124.787 171.511 124.517 170.448 124.517 170.448Z" fill="#FFBBB5"/>
<path d="M100.826 167.799L99.1309 180.112L76.4003 180.539C76.4003 180.539 70.0234 180.112 70.0234 172.677C71.3938 167.595 72.7581 162.514 74.1284 157.439C75.4026 152.706 77.0494 148.033 78.1913 143.318C78.8284 140.693 80.0004 138.015 81.6291 135.852C83.5644 133.288 88.1502 132.447 90.4521 134.855C93.4332 137.967 93.1026 143.09 91.7023 146.784L85.3254 167.583L100.826 167.799Z" fill="#A78BEF"/>
<path d="M100.825 168.118C100.819 168.118 85.313 167.902 85.313 167.902C85.2108 167.902 85.1147 167.854 85.0606 167.769C85.0005 167.685 84.9824 167.583 85.0185 167.487L92.2428 145.198C92.2969 145.03 92.4772 144.94 92.6455 144.994C92.8137 145.048 92.9039 145.228 92.8498 145.396L85.7578 167.277L100.831 167.487C101.006 167.487 101.15 167.631 101.144 167.812C101.138 167.98 101 168.118 100.825 168.118Z" fill="white"/>
<path d="M81.4008 180.857C81.2265 180.857 81.0822 180.719 81.0822 180.545C81.0762 180.37 81.2204 180.22 81.3947 180.22C83.7087 180.178 86.5876 180.1 89.4604 180.022C92.3393 179.944 95.2122 179.866 97.5322 179.824L99.1249 179.794C99.2811 179.788 99.4434 179.932 99.4494 180.106C99.4554 180.28 99.3112 180.431 99.1369 180.431L97.5442 180.461C95.2302 180.503 92.3514 180.581 89.4785 180.659C86.5996 180.737 83.7207 180.815 81.4008 180.857Z" fill="white"/>
<path d="M91.4793 125.336L91.0586 116.633C91.0586 116.633 107.31 117.852 106.992 133.936L91.4793 125.336Z" fill="#A78BEF"/>
<path d="M137.806 152.189C137.709 152.189 137.625 152.135 137.583 152.045C137.523 151.919 137.577 151.775 137.703 151.715C137.824 151.655 150.06 145.853 160.921 139C161.035 138.928 161.191 138.958 161.263 139.078C161.335 139.192 161.299 139.348 161.185 139.42C150.295 146.291 138.04 152.105 137.914 152.165C137.878 152.183 137.842 152.189 137.806 152.189Z" fill="#A78BEF"/>
<path d="M136.154 169.385C136.076 169.385 135.998 169.349 135.95 169.277C135.872 169.163 135.902 169.013 136.016 168.935C136.19 168.814 153.674 156.76 165.111 147.126C165.213 147.036 165.37 147.048 165.46 147.156C165.55 147.258 165.538 147.414 165.43 147.504C153.974 157.156 136.473 169.223 136.298 169.343C136.25 169.367 136.202 169.385 136.154 169.385Z" fill="#A78BEF"/>
<path d="M152.949 244.138L145.178 327.919C145.118 328.549 144.559 329.018 143.922 328.958C143.309 328.898 142.852 328.369 142.876 327.763L146.476 243.7C146.554 241.91 148.069 240.522 149.854 240.601C151.645 240.679 153.033 242.186 152.955 243.976C152.961 244.03 152.955 244.09 152.949 244.138Z" fill="#A78BEF"/>
<path d="M162.923 238.931L156.39 322.76C156.342 323.39 155.915 323.865 155.441 323.817C154.978 323.763 154.641 323.24 154.665 322.633L158.061 238.564C158.133 236.775 159.281 235.375 160.627 235.429C161.974 235.489 163.001 236.985 162.935 238.775C162.929 238.817 162.923 238.877 162.923 238.931Z" fill="#A78BEF"/>
<path d="M218.185 244.138L225.956 327.919C226.016 328.549 226.575 329.018 227.212 328.958C227.825 328.898 228.282 328.369 228.258 327.763L224.658 243.7C224.58 241.91 223.065 240.522 221.28 240.601C219.489 240.679 218.101 242.186 218.179 243.976C218.179 244.03 218.179 244.09 218.185 244.138Z" fill="#A78BEF"/>
<path d="M209.322 239.363L216.42 323.144C216.474 323.775 216.9 324.243 217.381 324.189C217.844 324.135 218.175 323.606 218.151 323L214.184 238.955C214.1 237.165 212.94 235.772 211.593 235.838C210.247 235.904 209.225 237.411 209.31 239.195C209.316 239.255 209.322 239.315 209.322 239.363Z" fill="#A78BEF"/>
<path d="M233.866 243.538L224.003 231.814L148.431 231.471L138.76 243.55L136.008 243.538V246.985H236.769V243.538H233.866Z" fill="#A78BEF"/>
<path d="M148.431 228.018L136.008 243.538H236.769L224.003 228.366L148.431 228.018Z" fill="white"/>
<path d="M206.277 237.976L217.625 236.438C217.625 236.438 218.328 237.423 217.889 238.589L206.59 240.258L206.277 237.976Z" fill="#E527BB"/>
<path d="M206.584 240.258C206.848 240.222 206.992 239.682 206.902 239.051C206.818 238.42 206.536 237.94 206.271 237.976C206.007 238.012 205.863 238.553 205.953 239.177C206.043 239.814 206.319 240.294 206.584 240.258Z" fill="#C618A5"/>
<path d="M206.16 238.649L205.535 238.907L205.631 239.574L206.304 239.598C206.298 239.598 206.389 238.925 206.16 238.649Z" fill="#E527BB"/>
<path d="M205.663 239.117L199.965 240.03L205.705 239.333L205.663 239.117Z" fill="#C618A5"/>
<path d="M217.953 237.447L223.314 236.655L223.41 237.153L218.043 237.97L217.953 237.447Z" fill="#E527BB"/>
<path d="M223.541 238.18C223.842 238.144 224.028 237.55 223.95 236.853C223.872 236.156 223.565 235.616 223.259 235.652C222.952 235.682 222.772 236.276 222.85 236.973C222.928 237.67 223.235 238.21 223.541 238.18Z" fill="#E527BB"/>
<path d="M156.695 235.97C156.695 236.384 155.199 236.727 153.353 236.727C151.508 236.727 150.012 236.39 150.012 235.97C150.012 235.555 151.508 235.219 153.353 235.219C155.199 235.213 156.695 235.555 156.695 235.97Z" fill="#2095F2"/>
<path d="M157.881 221.795C157.881 221.747 157.881 221.693 157.881 221.645C157.803 221.032 157.581 220.414 157.329 219.993C157.142 219.681 156.914 219.399 156.643 219.158C156.463 218.996 156.054 218.63 155.796 218.63H153.344H152.424L150.988 218.552C150.255 218.846 149.684 219.519 149.329 220.215C149.119 220.624 148.938 221.134 148.878 221.645C148.788 221.645 148.83 230.156 148.83 230.864C148.83 231.543 148.83 232.216 148.83 232.895C148.83 233.231 148.83 233.573 148.83 233.91C148.83 234.528 148.89 235.027 149.221 235.561C149.497 236.006 149.912 236.468 150.435 236.624C152.028 237.093 153.945 237.033 155.568 236.781C156.084 236.703 156.583 236.606 156.962 236.228C157.305 235.88 157.545 235.435 157.707 234.979C157.875 234.504 157.888 234.078 157.888 233.573C157.888 231.747 157.888 229.921 157.888 228.096C157.888 226.132 157.888 224.162 157.888 222.192C157.894 222.059 157.887 221.927 157.881 221.795Z" fill="#E527BB"/>
<path d="M156.055 216.954C156.061 216.594 154.853 216.312 153.363 216.312C151.872 216.312 150.664 216.594 150.664 216.936C150.664 219.189 151.872 219.465 153.363 219.465C154.853 219.465 156.061 219.182 156.061 218.84C156.055 216.972 156.055 216.96 156.055 216.954Z" fill="#C618A5"/>
<path d="M156.752 214.63C156.758 214.173 155.274 213.987 153.399 213.987C151.524 213.987 149.961 214.173 149.961 214.606C149.961 217.549 151.482 217.903 153.363 217.903C155.238 217.903 156.764 217.549 156.764 217.116C156.758 214.648 156.752 214.636 156.752 214.63Z" fill="#E527BB"/>
<path d="M156.757 214.606C156.757 215.038 155.236 215.392 153.355 215.392C151.48 215.392 149.953 215.044 149.953 214.606C149.953 214.173 151.474 213.819 153.355 213.819C155.236 213.819 156.757 214.173 156.757 214.606Z" fill="#E527BB"/>
<path d="M153.372 215.441C152.11 215.441 151.167 215.242 151.149 215.242C151.119 215.236 151.101 215.206 151.107 215.176C151.113 215.146 151.143 215.122 151.173 215.134C151.203 215.14 153.871 215.699 156.215 214.918C156.245 214.912 156.275 214.924 156.281 214.954C156.293 214.984 156.275 215.014 156.245 215.02C155.278 215.344 154.25 215.441 153.372 215.441Z" fill="white"/>
<path d="M157.792 225.699C157.798 226.324 155.79 226.804 153.32 226.804C150.844 226.804 148.842 226.318 148.842 225.723C148.806 227.994 148.818 230.486 148.818 230.859V233.904C148.818 234.522 148.878 235.021 149.209 235.555C149.485 236.006 149.894 236.462 150.411 236.618C151.992 237.087 153.903 237.027 155.514 236.775C156.025 236.697 156.523 236.6 156.902 236.222C157.245 235.874 157.479 235.429 157.641 234.973C157.81 234.498 157.822 234.072 157.822 233.567V225.705L157.792 225.699Z" fill="#E527BB"/>
<path d="M157.797 225.729C157.797 226.324 155.777 226.81 153.289 226.81C150.801 226.81 148.781 226.324 148.781 225.729C148.781 225.135 150.801 224.654 153.289 224.654C155.783 224.654 157.797 225.135 157.797 225.729Z" fill="#C618A5"/>
<path d="M156.83 227.969C156.83 226.612 156.83 225.249 156.83 223.891C156.782 223.399 156.386 223.543 156.386 223.543C154.354 224.101 152.22 224.101 150.201 223.537C149.871 223.471 149.768 223.663 149.738 223.813C149.738 225.183 149.738 226.552 149.738 227.927C149.762 228.041 149.834 228.186 150.027 228.276C152.178 228.912 154.468 228.906 156.614 228.258C156.698 228.204 156.794 228.108 156.83 227.969Z" fill="white"/>
<path d="M150.496 225.549C150.574 225.561 150.658 225.573 150.736 225.585C150.755 225.747 150.773 225.903 150.791 226.066C150.809 226.18 150.815 226.282 150.833 226.396C150.887 226.294 150.917 226.192 150.965 226.09C151.025 225.939 151.085 225.789 151.145 225.639C151.223 225.645 151.301 225.657 151.374 225.663C151.235 225.988 151.091 226.306 150.947 226.624C150.851 226.612 150.755 226.6 150.658 226.588C150.598 226.24 150.544 225.897 150.496 225.549Z" fill="#75CAD8"/>
<path d="M151.644 225.693C151.734 225.705 151.824 225.711 151.914 225.717C151.992 226.059 152.076 226.402 152.167 226.744C152.082 226.738 151.998 226.732 151.908 226.726C151.89 226.648 151.878 226.564 151.86 226.486C151.752 226.474 151.65 226.468 151.541 226.456C151.511 226.534 151.481 226.612 151.457 226.69C151.373 226.684 151.295 226.672 151.211 226.666C151.361 226.342 151.505 226.017 151.644 225.693ZM151.614 226.282C151.686 226.288 151.764 226.294 151.836 226.3C151.83 226.264 151.824 226.234 151.818 226.204C151.8 226.102 151.776 225.981 151.764 225.873C151.722 225.975 151.686 226.09 151.65 226.192C151.638 226.222 151.626 226.252 151.614 226.282Z" fill="#75CAD8"/>
<path d="M152.252 226.252C152.27 225.922 152.504 225.735 152.757 225.747C152.889 225.753 152.991 225.813 153.057 225.886C153.015 225.934 152.973 225.982 152.931 226.03C152.877 225.982 152.829 225.946 152.751 225.946C152.612 225.94 152.492 226.054 152.486 226.258C152.474 226.462 152.57 226.588 152.727 226.594C152.811 226.6 152.883 226.558 152.931 226.504C152.973 226.552 153.015 226.6 153.051 226.648C152.967 226.744 152.847 226.792 152.703 226.786C152.444 226.78 152.228 226.588 152.252 226.252Z" fill="#75CAD8"/>
<path d="M153.117 226.282C153.123 225.951 153.346 225.759 153.598 225.753C153.73 225.753 153.833 225.807 153.905 225.873C153.863 225.921 153.827 225.975 153.79 226.023C153.736 225.981 153.682 225.945 153.61 225.945C153.472 225.945 153.358 226.065 153.358 226.27C153.358 226.48 153.46 226.594 153.616 226.594C153.7 226.594 153.766 226.546 153.82 226.492C153.863 226.54 153.905 226.588 153.953 226.63C153.869 226.732 153.748 226.78 153.61 226.786C153.34 226.798 153.111 226.618 153.117 226.282Z" fill="#75CAD8"/>
<path d="M154.07 225.759C154.148 225.753 154.221 225.753 154.299 225.747C154.317 226.084 154.335 226.42 154.353 226.75C154.275 226.756 154.191 226.756 154.112 226.762C154.1 226.432 154.088 226.096 154.07 225.759Z" fill="#75CAD8"/>
<path d="M154.539 225.735C154.617 225.729 154.695 225.723 154.773 225.717C154.876 225.873 154.978 226.036 155.08 226.192C155.122 226.264 155.164 226.336 155.2 226.402C155.188 226.294 155.152 226.156 155.14 226.036C155.128 225.915 155.116 225.801 155.104 225.681C155.176 225.675 155.248 225.663 155.32 225.657C155.356 225.988 155.393 226.324 155.429 226.66C155.344 226.672 155.266 226.678 155.182 226.684C155.074 226.528 154.966 226.366 154.864 226.21C154.822 226.138 154.785 226.072 154.743 226C154.755 226.108 154.785 226.24 154.791 226.36C154.798 226.48 154.81 226.594 154.816 226.714C154.737 226.72 154.665 226.726 154.587 226.732C154.581 226.402 154.557 226.072 154.539 225.735Z" fill="#75CAD8"/>
<path d="M155.57 225.639C155.781 225.615 155.991 225.585 156.201 225.549C156.213 225.615 156.219 225.675 156.231 225.741C156.099 225.765 155.961 225.783 155.823 225.801C155.835 225.867 155.841 225.933 155.853 226C155.967 225.988 156.087 225.969 156.201 225.951C156.213 226.018 156.219 226.078 156.231 226.144C156.111 226.162 155.997 226.18 155.877 226.192C155.889 226.27 155.895 226.342 155.907 226.42C156.051 226.396 156.195 226.378 156.34 226.354C156.352 226.42 156.358 226.48 156.37 226.546C156.141 226.582 155.919 226.612 155.691 226.642C155.648 226.306 155.612 225.97 155.57 225.639Z" fill="#75CAD8"/>
<path d="M190.603 234.21L181.089 230.84L166.701 234.522L161.977 232.768V235.729L175.752 240.835L195.532 235.952V232.991L190.603 234.21Z" fill="#C618A5"/>
<path d="M161.977 232.768L175.752 237.874L195.532 232.991L181.089 227.879L161.977 232.768Z" fill="#E527BB"/>
<path d="M166.863 232.654L176.642 236.21L180.422 235.207L171.088 231.543L166.863 232.654Z" fill="white"/>
<path d="M201.314 228.588C201.23 228.348 201.086 228.102 200.978 227.903C200.791 227.573 200.629 227.207 200.629 226.816C200.629 226.678 200.936 226.3 201.074 226.144C201.14 226.011 201.11 225.825 201.116 225.819L200.749 222.69C200.629 221.879 200.118 221.939 200.118 221.939C200.118 221.939 199.607 221.879 199.487 222.69C199.487 222.69 199.126 225.819 199.126 225.825C199.126 225.825 199.096 226.011 199.162 226.144C199.301 226.306 199.607 226.678 199.607 226.816C199.607 227.183 199.463 227.525 199.289 227.843C199.193 228.012 199.078 228.162 198.988 228.33C198.796 228.696 198.826 229.189 198.826 229.591C198.826 230.018 198.826 230.45 198.826 230.876C198.826 231.837 198.826 232.792 198.826 233.753C198.826 234.216 198.826 234.678 198.826 235.141C198.826 235.369 199.373 235.549 200.052 235.549C200.725 235.549 201.278 235.363 201.278 235.141C201.29 234.498 201.296 233.85 201.302 233.201C201.314 232.264 201.326 231.333 201.344 230.396C201.35 230.024 201.356 229.645 201.362 229.273C201.362 229.135 201.398 228.967 201.38 228.834C201.368 228.756 201.344 228.672 201.314 228.588Z" fill="#E527BB"/>
<path d="M201.006 235.123C201.006 235.231 200.567 235.315 200.032 235.315C199.491 235.315 199.059 235.231 199.059 235.123C199.059 235.015 199.497 234.931 200.032 234.931C200.573 234.937 201.006 235.021 201.006 235.123Z" fill="#94D6D4"/>
<path d="M201.074 229.249C201.074 229.357 200.623 229.441 200.07 229.441C199.517 229.441 199.066 229.357 199.066 229.249C199.066 229.141 199.517 229.057 200.07 229.057C200.623 229.057 201.074 229.147 201.074 229.249Z" fill="#DFF4F1"/>
<path d="M201.068 229.267C201.014 229.363 200.587 229.435 200.07 229.435C199.553 229.435 199.121 229.363 199.072 229.267C199.066 229.333 199.066 229.399 199.066 229.459V235.111C199.145 235.183 199.499 235.315 200.052 235.315C200.605 235.315 200.96 235.189 201.038 235.111L201.116 229.273C201.116 229.267 201.068 229.267 201.068 229.267Z" fill="#A78BEF"/>
<path d="M204.58 228.588C204.496 228.348 204.351 228.102 204.243 227.903C204.057 227.573 203.895 227.207 203.895 226.816C203.895 226.678 204.201 226.3 204.339 226.144C204.405 226.011 204.375 225.825 204.381 225.819L204.015 222.69C203.895 221.879 203.384 221.939 203.384 221.939C203.384 221.939 202.873 221.879 202.753 222.69C202.753 222.69 202.386 225.819 202.392 225.825C202.392 225.825 202.362 226.011 202.428 226.144C202.566 226.306 202.873 226.678 202.873 226.816C202.873 227.183 202.729 227.525 202.554 227.843C202.458 228.012 202.344 228.162 202.254 228.33C202.061 228.696 202.092 229.189 202.092 229.591C202.092 230.018 202.092 230.45 202.092 230.876C202.092 231.837 202.092 232.792 202.092 233.753C202.092 234.216 202.092 234.678 202.092 235.141C202.092 235.369 202.638 235.549 203.318 235.549C203.991 235.549 204.544 235.363 204.544 235.141C204.55 234.498 204.562 233.85 204.568 233.201C204.58 232.264 204.592 231.333 204.61 230.396C204.616 230.024 204.622 229.645 204.628 229.273C204.628 229.135 204.664 228.967 204.646 228.834C204.628 228.756 204.61 228.672 204.58 228.588Z" fill="#E527BB"/>
<path d="M204.272 235.123C204.272 235.231 203.833 235.315 203.298 235.315C202.757 235.315 202.324 235.231 202.324 235.123C202.324 235.015 202.763 234.931 203.298 234.931C203.833 234.937 204.272 235.021 204.272 235.123Z" fill="#94D6D4"/>
<path d="M204.332 229.249C204.332 229.357 203.881 229.441 203.328 229.441C202.775 229.441 202.324 229.357 202.324 229.249C202.324 229.141 202.775 229.057 203.328 229.057C203.881 229.057 204.332 229.147 204.332 229.249Z" fill="#DFF4F1"/>
<path d="M204.326 229.267C204.272 229.363 203.845 229.435 203.328 229.435C202.811 229.435 202.378 229.363 202.33 229.267C202.324 229.333 202.324 229.399 202.324 229.459V235.111C202.402 235.183 202.757 235.315 203.31 235.315C203.863 235.315 204.217 235.189 204.296 235.111L204.374 229.273C204.374 229.267 204.326 229.267 204.326 229.267Z" fill="#A78BEF"/>
<path d="M192.854 233.904C192.602 233.91 192.319 233.976 192.097 234.024C191.724 234.102 191.328 234.15 190.955 234.036C190.823 233.994 190.558 233.591 190.444 233.411C190.336 233.309 190.15 233.279 190.15 233.279L187.048 232.697C186.237 232.57 186.141 233.075 186.141 233.075C186.141 233.075 185.931 233.549 186.67 233.904L189.555 235.183C189.555 235.183 189.723 235.267 189.867 235.243C190.066 235.159 190.51 234.979 190.643 235.021C190.997 235.129 191.28 235.369 191.526 235.634C191.658 235.772 191.767 235.928 191.905 236.066C192.199 236.354 192.674 236.474 193.059 236.601C193.467 236.727 193.882 236.853 194.291 236.985C195.204 237.267 196.124 237.556 197.037 237.838C197.482 237.976 197.921 238.114 198.366 238.252C198.582 238.318 198.925 237.85 199.123 237.201C199.321 236.559 199.309 235.976 199.093 235.91C198.48 235.712 197.861 235.507 197.248 235.309C196.358 235.021 195.469 234.727 194.579 234.438C194.225 234.324 193.864 234.204 193.509 234.09C193.377 234.048 193.227 233.97 193.095 233.94C193.029 233.904 192.945 233.904 192.854 233.904Z" fill="#8369E2"/>
<path d="M199.008 236.138C199.11 236.168 199.062 236.613 198.9 237.123C198.737 237.64 198.527 238.03 198.425 238C198.323 237.97 198.371 237.526 198.533 237.015C198.695 236.498 198.906 236.108 199.008 236.138Z" fill="#94D6D4"/>
<path d="M193.413 234.33C193.515 234.36 193.461 234.817 193.298 235.345C193.136 235.874 192.92 236.276 192.818 236.246C192.715 236.216 192.769 235.76 192.932 235.231C193.094 234.709 193.31 234.3 193.413 234.33Z" fill="#8369E2"/>
<path d="M193.431 234.342C193.509 234.42 193.449 234.853 193.299 235.345C193.142 235.844 192.944 236.228 192.836 236.246C192.896 236.27 192.956 236.288 193.016 236.306L198.413 237.988C198.51 237.934 198.738 237.634 198.9 237.105C199.063 236.576 199.044 236.204 198.996 236.102L193.443 234.288C193.443 234.3 193.431 234.342 193.431 234.342Z" fill="#E527BB"/>
<path d="M224.865 229.231C224.865 228.588 222.569 228.066 219.732 228.066C216.895 228.066 214.6 228.588 214.6 229.231C214.6 229.231 213.962 230.817 214.6 233.153C214.6 233.796 216.895 234.318 219.732 234.318C222.569 234.318 224.865 233.796 224.865 233.153C224.865 233.153 225.31 230.985 224.865 229.231Z" fill="#A78BEF"/>
<path d="M224.197 229.393C224.197 229.627 223.848 229.843 223.277 230.012C222.46 230.258 221.18 230.414 219.731 230.414C218.241 230.414 216.924 230.246 216.113 229.994C215.578 229.825 215.266 229.615 215.266 229.393C215.266 228.834 217.267 228.378 219.731 228.378C222.201 228.378 224.197 228.834 224.197 229.393Z" fill="#8369E2"/>
<path d="M223.274 230.012C222.456 230.258 221.176 230.414 219.728 230.414C218.237 230.414 216.921 230.246 216.109 229.994C217.39 229.609 220.13 229.051 223.274 230.012Z" fill="#E527BB"/>
<path d="M215.536 229.501L215.097 228.774L213.246 229.597C212.422 229.825 211.449 230.18 210.421 230.636C209.399 231.093 208.48 231.579 207.758 232.036L205.715 232.943L206.154 233.675C206.388 234.204 208.678 233.693 211.268 232.54C213.865 231.387 215.77 230.024 215.536 229.501Z" fill="#8369E2"/>
<path d="M215.097 228.768C215.331 229.297 213.42 230.654 210.829 231.807C208.239 232.961 205.949 233.465 205.715 232.943C205.48 232.414 207.392 231.057 209.982 229.904C212.578 228.75 214.862 228.246 215.097 228.768Z" fill="#A78BEF"/>
<path d="M363.18 87.0822C357.376 92.9508 360.368 101.268 359.67 108.509C359.436 110.93 358.569 113.214 357.176 115.21C356.497 116.185 354.54 117.862 354.889 119.217C355.274 120.708 358.026 120.991 359.221 121.173C363.153 121.78 367.233 121.89 371.204 122.081C375.478 122.288 379.801 122.33 384.058 121.817C386.369 121.537 389.518 121.091 391.193 119.286C392.637 117.731 391.909 115.815 391.229 114.101C390.374 111.945 389.497 109.785 388.972 107.516C387.598 101.58 387.628 94.746 384.737 89.2631C383.023 86.013 380.171 84.5792 376.564 83.8654C371.48 82.8569 366.45 83.7743 363.18 87.0822Z" fill="#231F20"/>
<path d="M345.491 162.113C345.491 162.113 346.647 165.588 348.98 165.986C348.98 165.986 352.147 168.677 355.202 156.758L363.344 135.091C363.344 135.091 367.23 119.615 356.142 123.497C356.142 123.497 350.587 126.072 349.435 132.454C349.435 132.451 344.429 155.898 345.491 162.113Z" fill="#F6B5A0"/>
<path d="M361.131 121.073C361.131 121.073 352.683 122.12 350.268 129.338L345.001 148.857C345.001 148.857 356.681 157.648 360.81 152.669L364.547 132.682C364.547 132.685 366.158 123.509 361.131 121.073Z" fill="#A78BEF"/>
<path d="M377.543 314.289H381.271L383.355 320.489C383.355 320.489 383.337 322.721 378.668 322.721H374.7L377.543 314.289Z" fill="#F6B5A0"/>
<path d="M373.178 322.348L374.865 319.025L376.919 316.279L376.421 319.237C376.421 319.237 376.245 320.334 377.298 320.489H380.723C383.296 320.364 381.952 315.498 381.952 315.498L383.462 319.028L384.758 322.931V324.665H373.175V322.348H373.178Z" fill="#A78BEF"/>
<path d="M381.273 314.289L392.406 204.924H371.334L377.544 314.289H381.273Z" fill="#F6B5A0"/>
<path d="M362.974 119.648C362.974 119.648 356.891 120.741 354.764 129.216L350.417 146.545C354.033 149.17 357.734 151.773 361.988 152.341C364.372 147.356 366.641 141.518 367.97 135.355C367.97 135.358 371.653 124.092 362.974 119.648Z" fill="#A78BEF"/>
<path d="M366.14 159.838C358.17 140.57 361.583 120.14 361.583 120.14C367.377 118.156 369.904 117.13 369.904 117.13L379.008 117.063C379.008 117.063 388.834 119.821 395.688 123.074L386.238 159.692L366.14 159.838Z" fill="#F6B5A0"/>
<path d="M395.312 124.52L386.236 159.692L366.141 159.835C360.416 145.996 360.565 131.555 361.102 124.517H395.312V124.52Z" fill="#E527BB"/>
<path d="M378.973 204.924H357.971C357.971 204.924 353.265 237.375 365.746 317.606L370.579 317.818C370.575 317.818 372.92 238.687 378.973 204.924Z" fill="#F6B5A0"/>
<path d="M395.071 236.737C395.071 236.737 384.213 243.657 352.196 236.737C350.64 219.174 352.8 192.477 352.8 192.477C353.889 180.503 358.069 171.159 361.807 164.51C361.807 164.51 370.046 167.134 387.144 164.798C390.9 169.224 397.58 188.753 397.395 204.915C397.395 204.912 396.83 217.482 395.071 236.737Z" fill="#231F20"/>
<path d="M365.781 317.606L354.144 321.795C354.144 321.795 352.949 322.439 352.894 323.371L371.254 322.582L370.571 317.603H365.781V317.606Z" fill="#F6B5A0"/>
<path d="M359.675 324.419C361.829 324.367 364.111 323.441 366.268 323.471C366.817 323.48 367.369 323.553 367.915 323.553C367.915 323.553 371.552 323.611 371.343 322.581L370.691 318.168L361.447 321.327C358.686 322.071 357.531 320.534 357.531 320.534L352.898 322.253C352.898 322.253 351.845 322.843 351.66 323.793C351.657 323.793 353.314 325.227 359.675 324.419Z" fill="#A78BEF"/>
<path d="M386.395 94.1231C386.838 97.668 385.828 101.435 384.266 104.66C383.589 106.055 381.657 108.318 380.78 109.596C380.234 110.392 379.206 111.261 378.362 111.741C376.936 112.558 375.368 109.952 373.936 109.633C372.055 109.217 369.595 109.347 368.29 107.98C364.28 103.78 361.607 99.6819 361.504 92.7744C361.431 87.9143 363.703 85.1653 367.474 84.1569C371.09 83.1909 375.608 84.169 379.36 84.6945C383.216 85.2413 385.955 90.6026 386.395 94.1231Z" fill="#231F20"/>
<path d="M369.465 103.549H379.719V118.767H369.465V103.549Z" fill="#F6B5A0"/>
<path d="M376.924 111.841C378.299 109.323 378.708 106.571 378.875 103.546L369.465 103.552L369.474 116.78C372.171 116.285 375.538 114.393 376.924 111.841Z" fill="#F1927C"/>
<path d="M384.265 99.9888C384.287 101.875 383.234 104.011 381.535 104.788C379.232 105.845 378.356 103.728 378.362 101.666C378.368 99.9979 379.105 97.1335 380.992 96.5473C382.773 95.9944 384.247 98.4427 384.265 99.9888Z" fill="#F6B5A0"/>
<path d="M379.536 105.101C378.45 107.817 376.97 110.046 374.406 111.611C371.9 113.141 369.313 113.922 366.904 111.917C364.987 110.326 363.749 108.005 363.057 105.669C361.465 100.293 362.711 92.8597 366.133 88.5402C369.892 83.7956 377.127 84.8739 379.909 90.1896C382.182 94.5121 381.293 100.718 379.536 105.101Z" fill="#F6B5A0"/>
<path d="M381.494 103.151C381.339 103.151 381.199 103.048 381.154 102.893C380.577 100.809 381.033 98.8405 382.237 98.2087C382.41 98.1176 382.622 98.1844 382.713 98.3576C382.804 98.5307 382.737 98.7433 382.565 98.8345C381.682 99.2962 381.36 100.997 381.833 102.704C381.885 102.893 381.776 103.087 381.588 103.139L381.494 103.151Z" fill="#F1927C"/>
<path d="M383.215 100.52L383.075 100.49C382.608 100.286 381.953 100.159 381.622 100.362C381.458 100.466 381.24 100.414 381.137 100.247C381.034 100.083 381.085 99.8641 381.252 99.7608C381.838 99.3993 382.72 99.5634 383.354 99.8398C383.533 99.9157 383.615 100.125 383.536 100.305L383.215 100.52Z" fill="#F1927C"/>
<path d="M366.633 98.7311C366.597 99.3295 366.281 99.7943 365.92 99.773C365.565 99.7518 365.302 99.2506 365.338 98.6522C365.374 98.0538 365.693 97.586 366.051 97.6103C366.409 97.6315 366.67 98.1327 366.633 98.7311Z" fill="#F6B5A0"/>
<path d="M374.391 98.7311C374.355 99.3295 374.036 99.7943 373.678 99.773C373.32 99.7518 373.059 99.2475 373.096 98.6522C373.129 98.0538 373.451 97.586 373.809 97.6103C374.167 97.6315 374.428 98.1327 374.391 98.7311Z" fill="#F6B5A0"/>
<path d="M375.495 101.304C375.471 101.729 374.67 102.027 373.712 101.969C372.753 101.911 371.995 101.52 372.022 101.094C372.046 100.669 372.847 100.371 373.806 100.432C374.764 100.49 375.523 100.882 375.495 101.304Z" fill="#F6B5A0"/>
<path d="M366.929 101.304C366.905 101.729 366.104 102.027 365.145 101.969C364.187 101.912 363.428 101.52 363.452 101.094C363.477 100.669 364.278 100.375 365.236 100.432C366.198 100.487 366.956 100.882 366.929 101.304Z" fill="#F6B5A0"/>
<path d="M375.435 97.1063L375.156 96.9696C374.722 96.4016 373.296 96.2133 372.538 96.7874C372.383 96.9058 372.161 96.8724 372.046 96.7175C371.928 96.5626 371.961 96.3439 372.116 96.2254C373.129 95.4569 375.016 95.624 375.717 96.5413C375.835 96.6962 375.805 96.915 375.65 97.0334L375.435 97.1063Z" fill="#F6B5A0"/>
<path d="M367.54 97.1063L367.261 96.9696C366.83 96.4016 365.401 96.2133 364.643 96.7874C364.488 96.9058 364.267 96.8724 364.152 96.7175C364.033 96.5626 364.067 96.3439 364.221 96.2254C365.235 95.4569 367.122 95.624 367.822 96.5413C367.941 96.6962 367.91 96.915 367.756 97.0334L367.54 97.1063Z" fill="#F6B5A0"/>
<path d="M378.492 100.365C379.524 100.168 379.776 100.174 380.027 99.5452L380.312 98.5216C380.78 97.346 381.189 97.0939 382.33 97.0544C383.146 97.0271 383.932 98.2664 384.165 99.0926C384.22 98.2239 384.202 96.9755 384.214 96.049C384.223 95.1681 384.174 94.2234 384.065 93.3213C383.816 91.2162 383.65 90.062 382.651 88.0906C381.578 85.9673 379.894 84.321 377.509 83.7165C374.63 82.9905 369.925 82.3952 367.477 84.1661C366.224 85.0743 367.265 85.3051 367.447 89.2631C367.45 89.257 378.741 86.5414 378.492 100.365Z" fill="#231F20"/>
<path d="M362.769 96.4196C361.152 92.9113 360.718 86.5111 367.207 83.9626C368.799 83.3369 372.719 82.8569 374.06 84.2542C377.033 87.3525 370.583 88.7923 368.851 89.0141C366.093 89.3725 364.431 91.2922 362.769 96.4196Z" fill="#231F20"/>
<path d="M381.152 117.698L391.731 120.747C387.034 125.45 387.662 131.267 388.676 134.805C390.332 140.58 394.761 140.747 393.948 143.727C393.566 145.13 389.355 163.592 388.087 164.613C384.328 167.644 361.94 169.646 360.799 163.817C359.895 159.203 359.498 154.2 358.212 149.179C356.161 141.172 354.726 140.203 355.469 136.634C358.266 126.853 361.585 120.134 361.585 120.134L366.521 118.399C366.521 118.399 366.6 122.269 371.684 125.434C371.684 125.437 379.22 123.897 381.152 117.698Z" fill="#A78BEF"/>
<path d="M400.522 131.264L403.643 160.862C403.643 160.862 404.256 164.303 401.896 164.504C401.896 164.504 396.399 168.185 394.348 156.053L388.038 133.782C388.038 133.782 385.453 118.035 396.177 122.828C396.18 122.828 399.903 124.809 400.522 131.264Z" fill="#F6B5A0"/>
<path d="M403.715 145.045C402.52 136.531 401.021 129.268 401.021 129.268C399.553 121.799 391.729 120.748 391.729 120.748C386.432 122.518 386.432 130.75 386.432 130.75C386.432 130.75 387.294 139.511 389.566 149.592C394.462 149.194 399.513 147.697 403.715 145.045Z" fill="#A78BEF"/>
<path d="M389.092 148.979C388.926 148.979 388.777 148.86 388.747 148.69C385.03 128.217 385.03 128.217 388.24 123.129C388.343 122.965 388.561 122.916 388.725 123.02C388.889 123.123 388.938 123.342 388.835 123.506C385.771 128.363 385.771 128.363 389.435 148.565C389.472 148.757 389.344 148.939 389.153 148.972L389.092 148.979Z" fill="#21263D"/>
<path d="M374.836 136.637H385.254V138.894H374.836V136.637Z" fill="#E527BB"/>
<path d="M371.979 167.623C371.785 167.623 371.627 167.465 371.627 167.271C371.627 167.076 371.785 166.918 371.979 166.918C376.433 166.918 381.038 166.918 385.443 165.53C385.628 165.472 385.825 165.576 385.882 165.761C385.94 165.946 385.837 166.144 385.652 166.201C381.147 167.623 376.484 167.623 371.979 167.623Z" fill="#21263D"/>
<path d="M358.655 151.436C358.476 151.436 358.321 151.299 358.306 151.117C358.021 147.997 357.745 146.591 356.583 143.869C354.08 138.019 354.978 135.744 356.465 131.98C357.184 130.161 358.079 127.898 358.813 124.651C358.855 124.462 359.043 124.344 359.231 124.386C359.419 124.429 359.538 124.617 359.495 124.806C358.749 128.104 357.842 130.398 357.114 132.238C355.643 135.956 354.833 138.007 357.223 143.593C358.424 146.403 358.71 147.852 359.001 151.053C359.019 151.248 358.876 151.418 358.682 151.436H358.655Z" fill="#21263D"/>
<path d="M369.507 103.181C368.315 103.169 367.711 102.984 367.478 102.562C367.208 102.067 367.551 101.517 367.951 100.876C368.261 100.381 368.609 99.8218 368.691 99.2629C368.719 99.0715 368.898 98.9379 369.092 98.9652C369.283 98.9926 369.416 99.1718 369.389 99.3662C369.286 100.071 368.895 100.697 368.549 101.249C368.339 101.584 368.024 102.091 368.097 102.221C368.109 102.246 368.267 102.464 369.51 102.477C369.705 102.477 369.862 102.638 369.859 102.832C369.859 103.026 369.702 103.181 369.507 103.181Z" fill="#F6B5A0"/>
<path d="M368.79 106.307C368.231 106.307 367.697 106.091 367.273 105.654C367.136 105.514 367.139 105.292 367.279 105.156C367.418 105.019 367.64 105.022 367.776 105.162C368.486 105.888 369.451 105.62 370.094 105.031C370.237 104.901 370.458 104.91 370.592 105.052C370.722 105.195 370.713 105.42 370.57 105.551C370.021 106.052 369.39 106.307 368.79 106.307Z" fill="#F6B5A0"/>
<path d="M363.447 88.6708C363.447 88.6708 372.627 90.9095 379.726 88.6708L380.742 81.0708C380.742 81.0708 374.396 76.8547 362.634 80.4542C362.631 80.4572 362.458 84.9771 363.447 88.6708Z" fill="#E527BB"/>
<path d="M370.824 81.7239H372.547V86.9424H370.824V81.7239Z" fill="#A78BEF"/>
<path d="M369.074 83.4705H374.289V85.1958H369.074V83.4705Z" fill="#A78BEF"/>
<path d="M345.493 162.113C352.492 154.82 354.676 158.176 354.676 158.176C354.676 158.176 360.719 177.216 369.656 184.722L367.888 187.054C367.885 187.054 347.253 171.879 345.493 162.113Z" fill="#F6B5A0"/>
<path d="M403.64 160.862C397.518 155.552 395.31 157.256 395.31 157.256C395.31 157.256 390.405 175.734 382.029 183.859L383.297 186.365C383.294 186.368 403.713 172.496 403.64 160.862Z" fill="#F6B5A0"/>
<path d="M367.627 183.868C367.108 184.02 366.586 184.391 366.434 184.928C366.089 186.137 366.908 187.641 367.454 188.658C368.149 189.955 368.855 191.854 370.509 192.143C370.761 192.188 371.058 192.091 371.319 192.088C371.865 192.079 372.026 192.452 372.471 192.085C372.723 191.872 373.551 191.748 373.709 191.492C373.864 191.243 374.792 191.055 374.956 190.839C375.954 189.509 376.485 188.613 376.085 187.92C375.839 187.507 374.577 185.906 374.668 184.998C374.668 184.998 374.583 184.087 372.423 183.82L367.627 183.868Z" fill="#F6B5A0"/>
<path d="M376.674 191.732L378.546 190.724C378.546 190.724 375.534 193.361 373.85 192.799C373.85 192.799 373.474 192.765 373.717 192.139C373.717 192.139 376.723 190.49 377.876 189.424C377.876 189.424 375.215 191.684 372.949 192.556C372.949 192.556 371.827 192.428 372.482 191.462C371.66 191.544 372.018 190.794 372.018 190.794C372.018 190.794 372.461 190.135 373.677 188.956C373.677 188.956 375.54 187.127 377.475 184.728C377.475 184.728 374.818 184.427 375.036 182.996L378.935 183.066L382.627 183.455L383.949 185.156L382.062 188.637C382.062 188.637 379.814 191.195 378.246 192.051C378.249 192.051 373.589 194.199 376.674 191.732Z" fill="#F6B5A0"/>
<g clip-path="url(#clip1_1267_12129)">
<path d="M361.979 63.0668H343.896C342.227 63.0668 340.875 61.7179 340.875 60.0535V42.0133C340.875 40.349 342.227 39 343.896 39H361.979C363.648 39 365 40.349 365 42.0133V60.0492C365 61.7135 363.648 63.0668 361.979 63.0668Z" fill="#E527BB"/>
<path d="M348.333 60.4522C348.32 60.4522 348.306 60.4522 348.293 60.4522C348.061 60.4346 347.876 60.2507 347.854 60.0186L346.559 45.1011L345 51.1539C344.947 51.3641 344.754 51.5131 344.534 51.5131H342.791C342.528 51.5131 342.312 51.2984 342.312 51.0357C342.312 50.7729 342.528 50.5583 342.791 50.5583H344.166L346.33 42.1491C346.388 41.9214 346.603 41.7725 346.835 41.79C347.068 41.8075 347.253 41.9914 347.275 42.2279L348.574 57.1805L351.363 46.5508C351.42 46.3405 351.613 46.1916 351.828 46.1916C352.048 46.1916 352.237 46.3405 352.294 46.5508L353.317 50.5583H356.702L358.656 43.774C358.718 43.555 358.933 43.4105 359.161 43.428C359.39 43.4499 359.574 43.6295 359.596 43.8572L360.676 54.868L361.326 50.9568C361.366 50.7247 361.563 50.5583 361.801 50.5583H363.329C363.592 50.5583 363.807 50.7729 363.807 51.0357C363.807 51.2984 363.592 51.5131 363.329 51.5131H362.209L361.032 58.617C360.993 58.8535 360.786 59.0287 360.545 59.0156C360.303 59.0068 360.106 58.8229 360.084 58.582L358.88 46.4457L357.524 51.1671C357.466 51.3729 357.278 51.5131 357.062 51.5131H352.944C352.724 51.5131 352.531 51.3641 352.478 51.1539L351.819 48.583L348.798 60.0974C348.741 60.3076 348.552 60.4522 348.333 60.4522Z" fill="white"/>
<path d="M335.017 70.0001H319.582C318.155 70.0001 317 68.8438 317 67.4248V52.0299C317 50.6065 318.155 49.4546 319.582 49.4546H335.017C336.444 49.4546 337.599 50.6065 337.599 52.0299V67.4248C337.599 68.8438 336.44 70.0001 335.017 70.0001Z" fill="#A78BEF"/>
<path d="M332.094 58.9192C331.941 58.9192 331.796 58.8316 331.725 58.6871L329.969 54.9949C329.872 54.7891 329.96 54.5482 330.162 54.4518C330.369 54.3555 330.61 54.4431 330.707 54.6445L332.463 58.3367C332.56 58.5425 332.472 58.7834 332.27 58.8798C332.213 58.906 332.151 58.9192 332.094 58.9192Z" fill="white"/>
<path d="M329.683 60.2771C329.511 60.2771 329.353 60.1719 329.296 60.0055L327.847 55.8929C327.772 55.6783 327.887 55.4462 328.097 55.3717C328.313 55.2973 328.545 55.4111 328.62 55.6214L330.069 59.734C330.144 59.9486 330.03 60.1807 329.819 60.2552C329.775 60.2683 329.731 60.2771 329.683 60.2771Z" fill="white"/>
<path d="M327.608 61.5165C327.573 61.5165 327.533 61.5121 327.498 61.5034L323.414 60.3821C323.195 60.3208 323.067 60.0975 323.129 59.8785C323.19 59.6595 323.414 59.5325 323.634 59.5938L327.718 60.715C327.937 60.7763 328.064 60.9997 328.003 61.2187C327.955 61.3939 327.788 61.5165 327.608 61.5165Z" fill="white"/>
<path d="M326.585 63.8377C326.537 63.8377 326.484 63.8289 326.436 63.8114L322.08 62.1383C321.869 62.0551 321.764 61.8186 321.843 61.6084C321.926 61.3982 322.163 61.293 322.374 61.3719L326.73 63.0449C326.941 63.1282 327.046 63.3647 326.967 63.5749C326.906 63.737 326.748 63.8377 326.585 63.8377Z" fill="white"/>
<path d="M322.357 66.5094C322.19 66.5094 322.036 66.4087 321.975 66.2422C321.909 66.0627 320.385 61.8537 323.279 59.6551C324.873 58.4463 326.217 58.8054 327.512 59.1514C328.57 59.4361 329.572 59.7033 330.77 59.1426C333.269 57.9732 331.855 53.5146 331.842 53.4708C331.772 53.2562 331.89 53.0241 332.105 52.954C332.321 52.884 332.553 53.0022 332.624 53.2168C332.694 53.427 334.275 58.4068 331.122 59.8828C329.651 60.5704 328.404 60.2376 327.301 59.9398C326.094 59.6157 325.053 59.3354 323.775 60.3033C321.365 62.134 322.73 65.9138 322.743 65.9532C322.822 66.1634 322.713 66.3999 322.502 66.4788C322.454 66.5007 322.405 66.5094 322.357 66.5094Z" fill="white"/>
<path d="M323.571 65.0377C321.81 65.0377 320.273 64.2625 320.168 64.2099C319.966 64.1048 319.887 63.8595 319.992 63.6581C320.097 63.4566 320.343 63.3778 320.545 63.4829C320.58 63.5004 324.181 65.3092 326.293 63.1456C327.409 62.0025 327.259 60.9338 327.084 59.6987C326.921 58.5731 326.741 57.2943 327.606 55.9234C329.459 52.9802 334.219 55.1526 334.421 55.2445C334.628 55.3409 334.716 55.5818 334.619 55.7876C334.522 55.9935 334.281 56.0811 334.075 55.9847C334.017 55.9584 329.767 54.027 328.3 56.357C327.598 57.4782 327.742 58.4987 327.896 59.5849C328.085 60.9119 328.283 62.2828 326.882 63.715C325.894 64.7223 324.686 65.0377 323.571 65.0377Z" fill="white"/>
</g>
<g clip-path="url(#clip2_1267_12129)">
<path d="M436.528 323.445L431.592 323.186L431.146 307.935L437.113 310.32L436.528 323.445Z" fill="#F6B5A0"/>
<path d="M417.758 326C417.758 324.109 419.667 323.442 419.667 323.442L427.617 320.873L430.989 317.088L432.999 318.062C432.999 318.062 433.404 317.99 432.993 318.976C432.993 318.976 435.536 319.512 436.731 318.985L438.836 326H417.758Z" fill="#A78BEF"/>
<path d="M461.619 313.914L463.02 317.779L470.07 323.499C470.07 323.499 470.962 324.779 470.679 326H458.783L452.872 322.948L454.736 313.911H461.619V313.914Z" fill="#A78BEF"/>
<path d="M459.689 85.1359C464.239 87.8367 465.612 95.0784 465.027 99.9796C464.691 102.788 463.341 105.194 463.127 108.067C462.889 111.271 464.212 112.727 465.838 115.16C467.373 117.459 467.866 120.061 466.909 122.702C465.895 125.492 463.721 126.746 463.124 129.747C462.761 131.57 462.841 133.261 463.272 135.06C461.239 134 459.342 130.188 458.268 128.065C456.808 125.174 456.966 123.372 458.53 120.633C461.688 115.103 455.176 110.527 456.383 104.628C456.984 101.695 458.934 99.1756 459.582 96.2635C460.243 93.2977 458.503 89.9776 455.111 90.463C453.77 90.6535 452.375 92.1364 451.177 92.199C449.06 92.3061 447.686 90.4779 449.964 87.6074C452.583 84.3051 456.05 82.9741 459.689 85.1359Z" fill="#231F20"/>
<path d="M429.624 104.616C431.209 108.675 436.852 113.99 441.167 115.464C451.728 119.067 459.31 100.939 452.751 89.9391C449.248 84.0701 440.399 85.2314 434.375 87.6582C428.601 89.9838 427.679 99.6314 429.624 104.616Z" fill="#231F20"/>
<path d="M453.762 99.1758C454.062 95.3168 453.503 90.4334 450.007 88.1614C444.42 84.5316 440.608 89.9272 439.496 95.3078C438.586 99.7089 439.751 106.093 442.876 109.44C444.919 111.623 447.149 111.902 449.019 109.547C451.401 106.552 453.456 103.074 453.762 99.1758Z" fill="#231F20"/>
<path d="M428.446 94.3878C429.71 90.2667 432.692 86.753 435.505 87.2324C441.538 88.2627 440.113 95.5222 437.541 98.7739C436.435 100.176 433.673 103.75 431.609 103.383C428.6 102.85 427.762 96.6299 428.446 94.3878Z" fill="#231F20"/>
<path d="M433.57 136.623L413.56 154.471C413.56 154.471 407.188 158.825 404.413 153.673C404.413 153.673 404.122 151.467 410.527 142.325L423.821 127.863C423.821 127.863 434.59 118.304 438.613 128.819C438.613 128.822 438.747 132.955 433.57 136.623Z" fill="#F6B5A0"/>
<path d="M403.999 154.909C403.999 154.909 404.927 158.357 415.066 163.333L425.627 169.523L426.133 165.834L409.985 147.188C409.985 147.191 405.385 147.676 403.999 154.909Z" fill="#F6B5A0"/>
<path d="M416.904 155.18C416.904 155.18 423.778 149.897 431.705 139.633C431.705 139.633 439.049 130.144 433.801 122.16C433.801 122.16 425.83 123.881 421.946 128.804L406.773 146.515C406.773 146.518 404.184 153.384 416.904 155.18Z" fill="#A78BEF"/>
<path d="M434.501 162.246C426.853 143.314 430.359 123.334 430.359 123.334C436.047 121.437 438.529 120.454 438.529 120.454L447.441 120.463C447.441 120.463 457.039 123.241 463.723 126.484L454.172 162.267L434.501 162.246Z" fill="#F6B5A0"/>
<path d="M438.48 121.705L448.512 121.419L448.087 106.519L438.054 106.805L438.48 121.705Z" fill="#F6B5A0"/>
<path d="M445.579 114.719C446.854 112.215 447.184 109.511 447.262 106.545L438.053 106.807L438.422 119.757C441.047 119.195 444.291 117.25 445.579 114.719Z" fill="#F1927C"/>
<path d="M466.316 212.372C468.385 195.721 459.81 171.849 455.487 167.034C438.815 169.791 429.851 167.472 429.851 167.472C425.245 176.232 421.466 189.587 422.688 207.301L466.316 212.372Z" fill="#231F20"/>
<path d="M444.018 220.593C444.018 220.593 446.888 252.687 452.867 317.091C452.867 317.091 459.108 321.516 462.388 316.046C466.634 274.367 463.827 251.609 463.827 251.609L466.648 206.509C466.648 206.509 437.331 192.746 444.018 220.593Z" fill="#231F20"/>
<path d="M437.25 319.646C446.515 265.827 442.127 235.774 442.127 235.774L447.074 200.592C445.266 185.216 422.595 195.099 422.595 195.099C422.595 195.099 421.512 233.579 428.298 318.627C428.298 318.627 431.289 321.62 437.25 319.646Z" fill="#231F20"/>
<path d="M448.884 275.511C448.714 275.511 448.566 275.383 448.542 275.21C447.879 269.993 447.466 264.407 447.029 258.496C446.606 252.779 446.169 246.868 445.476 241.125C445.063 237.703 444.65 233.603 444.245 229.64C443.844 225.682 443.428 221.588 443.02 218.205C442.108 210.627 441.578 202.793 441.07 195.218L440.948 193.407C440.933 193.217 441.079 193.053 441.266 193.038C441.459 193.038 441.62 193.169 441.632 193.36L441.754 195.173C442.262 202.739 442.789 210.562 443.701 218.125C444.112 221.517 444.525 225.611 444.926 229.571C445.328 233.531 445.744 237.626 446.154 241.044C446.847 246.803 447.287 252.723 447.709 258.446C448.147 264.347 448.557 269.922 449.22 275.121C449.244 275.308 449.11 275.481 448.923 275.508L448.884 275.511Z" fill="#131824"/>
<path d="M452.25 102.285C452.5 103.937 451.736 105.95 450.178 106.861C448.073 108.097 446.967 106.358 446.726 104.545C446.533 103.086 446.904 100.468 448.667 99.7059C450.324 98.9793 452.048 100.93 452.25 102.285Z" fill="#F6B5A0"/>
<path d="M447.947 108.046C446.957 110.732 445.569 112.954 443.104 114.556C440.692 116.125 438.186 116.959 435.771 115.065C433.851 113.558 432.575 111.322 431.835 109.053C430.128 103.833 431.148 96.5227 434.38 92.1991C437.93 87.4527 445.039 88.3103 447.906 93.4349C450.246 97.6096 449.547 103.711 447.947 108.046Z" fill="#F6B5A0"/>
<path d="M449.895 106.346L449.58 106.143C448.714 104.214 448.866 102.24 449.939 101.448C450.094 101.338 450.311 101.37 450.421 101.522C450.534 101.677 450.501 101.894 450.347 102.008C449.562 102.585 449.499 104.279 450.207 105.864C450.284 106.036 450.207 106.242 450.032 106.319L449.895 106.346Z" fill="#F1927C"/>
<path d="M449.439 103.711L449.177 103.589C449.055 103.446 449.073 103.228 449.219 103.103C449.73 102.666 450.61 102.695 451.268 102.871C451.449 102.916 451.562 103.106 451.511 103.291C451.464 103.476 451.273 103.586 451.089 103.535C450.604 103.407 449.953 103.383 449.665 103.627L449.439 103.711Z" fill="#F1927C"/>
<path d="M424.042 139.175C429.557 128.643 430.357 123.331 430.357 123.331L438.438 120.418L436.851 123.012L440.41 130.519L448.506 122.955V120.782L458.164 123.801C453.528 128.369 455.794 134.44 456.76 137.915C458.336 143.582 462.924 142.236 462.106 145.148C461.72 146.518 457.194 166.111 455.943 167.099C452.238 170.035 429.429 171.908 429.233 166.099C428.635 148.569 422.582 145.886 424.042 139.175Z" fill="#A78BEF"/>
<path d="M435.85 165.453L432.24 164.134L429.098 163.446L428.91 161.308L426.133 164.021L425.506 167.147L425.628 169.526L427.632 171.53H430.614L431.268 173.603C431.268 173.603 431.982 174.1 431.878 172.188L431.613 170.679L429.829 169.419L431.958 170.16L432.82 173.257C432.82 173.257 434.134 172.453 433.561 171.092L432.82 169.029L430.355 167.632L433.162 168.21L434.937 172.397C434.937 172.397 437.179 172.167 434.301 167.022L431.268 165.917L434.765 166.549L436.025 169.339C436.023 169.336 437.283 169.008 435.85 165.453Z" fill="#F6B5A0"/>
<path d="M446.577 96.6C446.89 97.0318 447.22 97.3414 447.686 97.5767C449.414 98.4491 448.201 99.9231 448.849 102.055C449.83 100.176 451.344 99.7623 452.438 101.391C452.5 100.254 452.964 98.3211 452.64 97.2104C452.268 95.9449 452.506 95.0724 452.566 93.7682C452.691 90.8203 451.769 89.7365 449.708 87.5717C447.615 85.3771 440.532 85.3563 437.708 85.6779C437.708 85.6779 428.541 86.8243 432.103 96.728C432.103 96.728 433.075 94.2119 433.777 93.7861C433.777 93.7861 434.952 91.3533 445.662 94.2655C445.659 94.2714 446.684 95.6471 446.577 96.6Z" fill="#231F20"/>
<path d="M449.883 106.34C449.883 106.718 449.574 107.028 449.196 107.028C448.818 107.028 448.509 106.718 448.509 106.34C448.509 105.962 448.818 105.652 449.196 105.652C449.574 105.649 449.883 105.959 449.883 106.34Z" fill="white"/>
<path d="M440.414 130.519L436.537 126.341L431.86 122.827L438.422 119.757L438.44 120.418L437.717 122.753L440.414 130.519Z" fill="#E527BB"/>
<path d="M437.72 122.753L438.531 120.454L438.424 119.757L431.862 122.827L434.044 127.401L437.72 122.753Z" fill="#E527BB"/>
<path d="M440.415 130.519L442.136 122.163L444.551 126.672L440.415 130.519Z" fill="#E527BB"/>
<path d="M442.138 122.164L448.451 119.168L453.547 122.473L445.45 128.348L442.138 122.164Z" fill="#E527BB"/>
<path d="M428.635 160.465C428.472 160.465 428.326 160.349 428.296 160.182L428.017 158.595C427.3 154.522 426.735 151.303 425.002 147.328C424.068 145.184 423.045 142.167 423.477 139.973C423.762 138.52 424.428 137.338 425.073 136.194C425.492 135.453 425.924 134.687 426.254 133.842C426.322 133.663 426.524 133.577 426.7 133.645C426.878 133.717 426.961 133.916 426.893 134.092C426.542 134.982 426.099 135.768 425.671 136.531C425.026 137.677 424.416 138.758 424.151 140.104C423.735 142.233 424.901 145.371 425.632 147.051C427.395 151.1 427.969 154.355 428.692 158.473L428.971 160.057C429.004 160.245 428.882 160.423 428.695 160.459L428.635 160.465Z" fill="#21263D"/>
<path d="M417.067 155.531L417.013 155.525C416.707 155.478 416.41 155.436 416.118 155.397C415.226 155.275 414.388 155.165 413.505 154.82C413.329 154.751 413.24 154.552 413.309 154.376C413.377 154.197 413.576 154.108 413.755 154.179C414.56 154.492 415.36 154.602 416.211 154.718C416.505 154.76 416.808 154.799 417.12 154.849C417.308 154.879 417.436 155.055 417.406 155.242C417.379 155.412 417.233 155.531 417.067 155.531Z" fill="#21263D"/>
<path d="M455.792 138.624L475.547 159.012C475.547 159.012 481.91 163.315 484.645 158.178C484.645 158.178 484.999 154.885 478.514 146.911L465.949 130.921C465.949 130.921 458.667 119.594 454.706 130.075C454.706 130.072 453.3 133.124 455.792 138.624Z" fill="#F6B5A0"/>
<path d="M455.554 139.44C455.554 139.44 460.727 147.575 464.857 152.524C470.358 150.288 473.736 145.124 475.109 140.488C474.295 138.892 463.727 126.487 463.727 126.487C463.727 126.487 461.283 124.808 457.932 123.76C457.929 123.757 451.18 129.197 455.554 139.44Z" fill="#A78BEF"/>
<path d="M485 159.477C485 159.477 484.078 162.91 473.987 167.862L461.713 175.151L460.535 172.096L479.047 151.791C479.044 151.794 483.623 152.28 485 159.477Z" fill="#F6B5A0"/>
<path d="M451.508 171.623L455.1 170.309L457.282 169.684L456.316 168.109L461.805 170.702V173.308L461.713 175.154L460.22 176.485L456.723 177.67L456.072 179.731C456.072 179.731 455.364 180.225 455.466 178.322L455.727 176.819L457.502 175.568L455.385 176.306L454.526 179.388C454.526 179.388 453.218 178.59 453.789 177.235L454.526 175.181L456.982 173.79L454.19 174.368L452.424 178.534C452.424 178.534 450.191 178.304 453.057 173.183L456.075 172.081L452.596 172.709L451.341 175.491C451.336 175.488 450.081 175.163 451.508 171.623Z" fill="#F6B5A0"/>
<path d="M464.562 152.512L464.291 152.378L463.022 150.761C457.461 143.695 452.659 137.591 453.923 132.219C453.968 132.034 454.152 131.921 454.336 131.963C454.521 132.008 454.637 132.192 454.592 132.377C453.403 137.424 458.113 143.406 463.56 150.335L464.829 151.955C464.945 152.104 464.921 152.321 464.77 152.437L464.562 152.512Z" fill="#21263D"/>
<path d="M433.699 103.865C433.74 103.865 433.782 103.865 433.827 103.868C434.766 103.898 435.519 104.262 435.504 104.678C435.504 104.72 435.495 104.759 435.477 104.8C434.85 105.015 434.121 105.113 433.405 105.113C433.083 105.113 432.765 105.092 432.462 105.057C432.23 104.92 432.093 104.75 432.096 104.571C432.108 104.166 432.816 103.865 433.699 103.865Z" fill="#F6B6A2"/>
<path d="M442.091 104.14C442.136 104.14 442.181 104.14 442.225 104.143C443.165 104.172 443.914 104.536 443.902 104.95C443.899 105.003 443.887 105.054 443.864 105.101C443.754 105.107 443.641 105.107 443.531 105.107C442.52 105.107 441.479 104.911 440.733 104.473C441.012 104.271 441.515 104.14 442.091 104.14Z" fill="#F6B6A2"/>
<path d="M431.695 90.4691C431.695 90.4691 440.683 92.6637 447.632 90.4691L448.625 83.0279C448.625 83.0279 442.411 78.8979 430.895 82.4264C430.895 82.4264 430.725 86.8512 431.695 90.4691Z" fill="#E527BB"/>
<path d="M438.912 83.665H440.598V88.7777H438.912V83.665Z" fill="#A78BEF"/>
<path d="M437.199 85.3772H442.305V87.0685H437.199V85.3772Z" fill="#A78BEF"/>
</g>
</g>
<defs>
<clipPath id="clip0_1267_12129">
<rect width="542.64" height="328.79" fill="white"/>
</clipPath>
<clipPath id="clip1_1267_12129">
<rect width="48" height="31" fill="white" transform="translate(317 39)"/>
</clipPath>
<clipPath id="clip2_1267_12129">
<rect width="81" height="245" fill="white" transform="matrix(-1 0 0 1 485 81)"/>
</clipPath>
</defs>
</svg>
