<svg width="543" height="329" viewBox="0 0 543 329" fill="none" xmlns="http://www.w3.org/2000/svg">
<g clip-path="url(#clip0_1267_13532)">
<path opacity="0.2" d="M78.788 327.839C41.4882 290.535 -9.49424 252.012 10.4949 193.818C23.6478 155.541 55.8804 144.88 82.6859 121.276C95.9087 109.631 87.5932 92.6757 87.3433 75.8481C86.7836 32.7513 139.135 -0.687543 187.269 0.010739C239.401 0.768031 261.969 48.9102 305.705 51.4968C322.876 51.7426 338.257 42.4781 353.449 35.1314C398.465 13.3371 469.906 27.2339 473.514 79.9296C474.444 108.392 439.183 154.174 474.514 169.143C502.668 181.072 531.113 185.469 536.19 228.133C542.837 283.976 507.716 314.621 461.971 329L78.788 327.839Z" fill="#999999"/>
<g clip-path="url(#clip1_1267_13532)">
<path d="M185.199 210.633C185.721 210.207 186.393 210.046 187.042 210.191C189.971 210.85 195.194 211.793 197.246 210.722C197.414 210.633 197.621 210.701 197.707 210.872C197.733 210.924 197.743 210.976 197.744 211.03C197.742 211.158 197.674 211.282 197.555 211.343C195.422 212.455 190.577 211.701 186.888 210.873C186.442 210.774 185.984 210.884 185.625 211.176C185.269 211.468 185.065 211.902 185.063 212.365C185.062 212.435 185.041 212.499 185.007 212.553L184.527 212.551C184.494 212.551 184.463 212.554 184.43 212.559C184.396 212.505 184.376 212.439 184.376 212.372C184.38 211.694 184.677 211.061 185.199 210.633Z" fill="#E527BB"/>
<path d="M184.015 213.063C184.019 212.812 184.196 212.604 184.428 212.559C184.461 212.554 184.492 212.551 184.525 212.551L185.005 212.553L198.002 212.596L197.966 215.461L184.488 215.418C184.211 215.417 183.987 215.186 183.991 214.903L183.995 214.601L184.01 213.365L184.015 213.063Z" fill="#A78BEF"/>
<path d="M182.593 213.362L184.013 213.365L183.998 214.601L182.577 214.595L182.593 213.362Z" fill="#E527BB"/>
<path d="M198.005 212.596L199.399 212.599L199.398 212.601L199.362 215.466L197.969 215.461L198.007 212.597L198.005 212.596Z" fill="#E527BB"/>
<path d="M199.397 212.601L210.292 212.636C211.419 212.638 212.541 212.786 213.631 213.069L213.888 213.137C213.644 213.75 213.579 214.41 213.878 215.017L213.604 215.087C212.508 215.364 211.383 215.503 210.254 215.5L199.358 215.465L199.397 212.601Z" fill="#A78BEF"/>
<path d="M213.891 213.137L216.788 213.893C216.986 213.945 216.981 214.232 216.783 214.283L214.102 214.962L213.881 215.017C213.582 214.41 213.647 213.75 213.891 213.137Z" fill="#960C78"/>
</g>
<path fill-rule="evenodd" clip-rule="evenodd" d="M224.315 143.918L242.678 144.073L253.292 144.191C253.281 143.561 253.019 142.968 252.484 142.566L217.819 116.474C217.311 116.09 216.639 115.984 216.031 116.147L219.08 126.315L224.315 143.918Z" fill="#BE96F8"/>
<path fill-rule="evenodd" clip-rule="evenodd" d="M245.005 116.417L250.24 134.023L253.289 144.191C252.681 144.354 252.04 144.267 251.5 143.865L216.836 117.773C216.327 117.389 216.039 116.774 216.027 116.147L226.642 116.265L245.005 116.417Z" fill="#BE96F8"/>
<path d="M227.056 109.72L204.812 139.28L234.172 161.378L256.415 131.817L227.056 109.72Z" fill="white"/>
<path fill-rule="evenodd" clip-rule="evenodd" d="M253.29 144.191C253.297 144.594 253.183 145.038 252.906 145.406L236.719 166.919C236.039 167.823 234.775 167.975 233.871 167.295L199.207 141.203C198.33 140.546 198.129 139.286 198.808 138.382L214.996 116.869C215.273 116.501 215.641 116.246 216.028 116.144L219.077 126.312L224.312 143.918L242.675 144.073L253.29 144.191Z" fill="#E527BB"/>
<path fill-rule="evenodd" clip-rule="evenodd" d="M227.373 139.851L209.029 139.665L198.395 139.578C198.38 140.185 198.668 140.8 199.204 141.203L233.868 167.295C234.403 167.697 235.075 167.807 235.656 167.621L232.627 157.427L227.373 139.851Z" fill="#E527BB"/>
<path d="M239.92 134.145C239.366 134.881 238.77 135.466 238.136 135.891C237.502 136.316 236.857 136.601 236.208 136.738C235.555 136.874 234.909 136.867 234.264 136.711C233.622 136.556 233.015 136.267 232.453 135.842C232.073 135.557 231.849 135.23 231.785 134.87C231.717 134.505 231.796 134.152 232.02 133.803C230.957 134.145 230.012 134.004 229.181 133.378C228.839 133.119 228.569 132.819 228.376 132.474C228.178 132.128 228.064 131.76 228.027 131.369C227.989 130.978 228.038 130.572 228.167 130.154C228.296 129.733 228.516 129.319 228.824 128.912C229.257 128.339 229.769 127.861 230.373 127.481C230.972 127.101 231.587 126.828 232.218 126.661C232.848 126.494 233.459 126.437 234.048 126.494C234.636 126.547 235.141 126.733 235.558 127.048C236.5 127.754 236.975 128.552 236.986 129.44L237.627 128.905L238.797 129.786L234.477 133.419C234.23 133.617 234.029 133.795 233.869 133.955C233.713 134.114 233.581 134.262 233.478 134.403C233.246 134.71 233.25 134.953 233.486 135.132C233.854 135.409 234.264 135.58 234.719 135.648C235.175 135.716 235.65 135.678 236.136 135.534C236.625 135.39 237.111 135.139 237.597 134.786C238.083 134.433 238.542 133.962 238.983 133.381C239.431 132.785 239.731 132.151 239.883 131.475C240.034 130.799 240.05 130.12 239.924 129.436C239.799 128.757 239.529 128.092 239.119 127.454C238.706 126.813 238.151 126.232 237.457 125.708C236.652 125.1 235.794 124.698 234.887 124.497C233.979 124.295 233.083 124.276 232.203 124.436C231.322 124.599 230.483 124.933 229.682 125.435C228.884 125.939 228.186 126.585 227.594 127.375C226.998 128.168 226.595 128.966 226.39 129.771C226.185 130.575 226.163 131.373 226.326 132.166C226.489 132.956 226.838 133.723 227.37 134.467C227.901 135.211 228.611 135.918 229.496 136.582C230.604 137.417 231.648 137.938 232.631 138.15L232.506 139.316C231.238 139.016 230.004 138.416 228.805 137.509C227.776 136.734 226.956 135.902 226.341 135.018C225.73 134.129 225.327 133.218 225.141 132.284C224.955 131.346 224.982 130.401 225.225 129.448C225.468 128.491 225.935 127.561 226.618 126.65C228.061 124.732 229.879 123.585 232.073 123.217C234.264 122.879 236.291 123.411 238.151 124.812C239.006 125.457 239.681 126.167 240.179 126.946C240.676 127.724 240.995 128.525 241.135 129.349C241.28 130.173 241.245 130.997 241.04 131.817C240.847 132.641 240.471 133.416 239.92 134.145ZM236.041 130.222C236.09 129.41 235.714 128.7 234.909 128.092C234.609 127.868 234.249 127.754 233.82 127.751C233.395 127.747 232.954 127.827 232.499 127.99C232.047 128.153 231.603 128.392 231.17 128.704C230.737 129.015 230.369 129.376 230.058 129.786C229.173 130.963 229.196 131.901 230.126 132.603C230.357 132.778 230.623 132.895 230.923 132.96C231.223 133.024 231.534 133.036 231.865 132.994C232.191 132.952 232.525 132.857 232.867 132.709C233.209 132.561 233.535 132.352 233.846 132.087L236.041 130.222Z" fill="#E527BB"/>
<path fill-rule="evenodd" clip-rule="evenodd" d="M150.498 172.944L160.334 172.156L161.333 183.998L171.387 216.444L165.54 218.013L152.56 184.85L150.498 172.944Z" fill="#FF9866"/>
<path fill-rule="evenodd" clip-rule="evenodd" d="M144.071 312.782L149.207 317.771C154.413 321.767 169.955 318.552 166.318 329.178C156.264 328.966 146.28 328.678 136.226 328.396C136.085 324.976 136.085 320.691 138.007 316.49L144.071 312.782Z" fill="#A78BEF"/>
<path fill-rule="evenodd" clip-rule="evenodd" d="M115.339 312.782L120.257 317.771C121.326 321.691 141.216 318.552 137.585 329.178C127.531 328.966 118.476 328.467 108.422 328.178C107.564 325.111 108.352 321.691 110.203 317.483C112.489 316.138 113.059 314.069 115.339 312.782Z" fill="#A78BEF"/>
<path fill-rule="evenodd" clip-rule="evenodd" d="M125.109 197.544L146.357 212.736C151.064 226.57 155.77 240.474 160.4 254.308C161.969 260.367 161.47 266.573 160.4 271.568L149.207 317.778C143.149 320.628 142.291 317.637 138.013 316.349L144.788 264.792L131.026 243.33C128.177 268.36 123.182 292.748 120.262 317.778C114.703 320.916 113.916 319.058 110.208 317.489L110.496 213.088L125.109 197.544Z" fill="#231F20"/>
<path fill-rule="evenodd" clip-rule="evenodd" d="M146.571 212.947C134.878 220.005 122.474 213.088 110.493 213.158L109.852 169.447C109.423 172.944 108.924 176.505 108.495 180.001C104.288 182.141 100.439 181.071 98.1591 179.713L100.228 152.327C100.516 150.329 101.867 146.621 105.075 145.481L129.89 136.066L152.994 146.262C155.562 147.69 157.983 150.829 158.482 153.967C159.481 162.094 160.333 169.44 161.332 177.568C158.482 179.137 154.486 179.777 150.35 177.997L149.85 170.651L146.571 212.947Z" fill="#A78BEF"/>
<path fill-rule="evenodd" clip-rule="evenodd" d="M138.445 133.792L128.18 130.155L125.183 139.14C128.462 144.629 132.599 146.057 135.877 144.699L138.445 133.792Z" fill="#FF9866"/>
<path fill-rule="evenodd" clip-rule="evenodd" d="M134.737 107.975C141.582 111.184 148.428 114.393 155.273 117.601C155.062 122.591 145.36 138.711 139.584 140.632C132.38 143.06 126.393 135.073 127.033 129.079C127.321 123.526 131.099 111.184 134.737 107.975Z" fill="#FFAA81"/>
<path fill-rule="evenodd" clip-rule="evenodd" d="M138.512 115.891C145.569 113.394 147.926 123.097 151.915 124.237C155.764 123.948 162.898 120.029 163.32 111.684C163.89 106.906 156.545 108.545 153.478 106.477C151.339 104.478 151.838 100.7 147.061 100.488L140.645 101.487C139.505 99.1369 134.298 101.917 132.87 103.486C127.805 107.623 129.163 116.18 128.023 123.097C130.808 124.448 137.231 115.891 138.512 115.891Z" fill="#231F20"/>
<path fill-rule="evenodd" clip-rule="evenodd" d="M131.384 122.098C135.733 123.379 136.52 121.739 135.95 118.031C135.95 116.462 135.092 114.534 133.312 115.322C131.737 116.18 131.384 120.17 131.384 122.098Z" fill="#FFAA81"/>
<path fill-rule="evenodd" clip-rule="evenodd" d="M163.369 207.754C163.727 210.252 158.592 214.101 160.301 215.1C162.011 215.958 164.009 211.891 164.65 212.25C167.499 213.031 166.43 221.165 168.857 221.447C174.774 222.376 176.061 212.321 168.857 204.686L164.22 205.186C163.727 205.333 163.157 204.834 163.369 207.754Z" fill="#FF9866"/>
<path fill-rule="evenodd" clip-rule="evenodd" d="M141.652 148.337C150.136 154.684 162.041 154.396 172.242 157.393C170.462 173.584 157.341 186.771 155.983 202.892C142.292 203.321 135.946 193.624 124.611 193.125C127.102 177.151 136.804 166.456 141.652 148.337Z" fill="white"/>
<path fill-rule="evenodd" clip-rule="evenodd" d="M98.7246 180.072L98.0138 189.058C97.8729 191.485 99.0128 193.125 102.221 193.125L137.301 191.626V185.849L107.639 183.998L107.997 180.219C104.36 181.859 101.004 181.142 98.7246 180.072Z" fill="#FF9866"/>
<path fill-rule="evenodd" clip-rule="evenodd" d="M138.017 185.42C140.444 184.85 142.224 178.644 143.722 179.861C145.15 181.218 142.083 184.568 142.653 184.997C144.433 187.348 151.567 183.428 152.777 185.497C155.774 190.774 146.86 195.552 137.165 191.632L135.955 187.213C135.878 186.637 135.237 186.278 138.017 185.42Z" fill="#FF9866"/>
<path d="M413.482 67.2888H407.574C406.374 67.1158 405.162 67.0234 403.916 67.0234H373.382C372.136 67.0234 370.924 67.1158 369.724 67.2888H362.119C351.365 67.2888 342.641 76.0128 342.641 86.7677V101.273C342.641 112.028 351.365 120.752 362.119 120.752H368.801L363.493 127.237L382.083 120.752H413.494C424.249 120.752 432.973 112.028 432.973 101.273V86.7793C432.961 76.0128 424.249 67.2888 413.482 67.2888Z" fill="#E527BB"/>
<path d="M420.799 80.0056H356.95C356.581 80.0056 356.27 80.3056 356.27 80.6864C356.27 81.0557 356.57 81.3673 356.95 81.3673H420.799C421.168 81.3673 421.48 81.0673 421.48 80.6864C421.48 80.3056 421.18 80.0056 420.799 80.0056Z" fill="white"/>
<path d="M420.799 110.897H356.95C356.581 110.897 356.27 111.197 356.27 111.578C356.27 111.947 356.57 112.259 356.95 112.259H420.799C421.168 112.259 421.48 111.959 421.48 111.578C421.48 111.197 421.18 110.897 420.799 110.897Z" fill="white"/>
<path d="M386.007 101.469H356.95C356.581 101.469 356.27 101.769 356.27 102.15C356.27 102.531 356.57 102.831 356.95 102.831H386.007C386.376 102.831 386.688 102.531 386.688 102.15C386.688 101.769 386.376 101.469 386.007 101.469Z" fill="white"/>
<path d="M399.174 90.6565H356.95C356.581 90.6565 356.27 90.9565 356.27 91.3373C356.27 91.7066 356.57 92.0182 356.95 92.0182H399.174C399.543 92.0182 399.855 91.7181 399.855 91.3373C399.855 90.9565 399.543 90.6565 399.174 90.6565Z" fill="white"/>
<path d="M420.43 90.7144H406.778C406.409 90.7144 406.098 91.0144 406.098 91.3952C406.098 91.7645 406.398 92.076 406.778 92.076H420.43C420.799 92.076 421.111 91.776 421.111 91.3952C421.111 91.0144 420.799 90.7144 420.43 90.7144Z" fill="white"/>
<path d="M318.45 328.59H325.789L289.439 224.791H282.1L318.45 328.59Z" fill="black"/>
<path d="M318.45 328.59H325.789L289.439 224.791H282.1L318.45 328.59Z" fill="black"/>
<path d="M292.708 255.083L282.103 224.791H289.442L300.047 255.083H292.708Z" fill="black"/>
<path d="M238.4 328.59H231.061L267.411 224.791H274.75L238.4 328.59Z" fill="black"/>
<path d="M194.411 328.59H201.75L165.4 224.791H158.061L194.411 328.59Z" fill="black"/>
<path d="M168.669 255.083L158.064 224.791H165.403L176.008 255.083H168.669Z" fill="black"/>
<path d="M376.222 328.082H381.23L366.183 259.433H361.175L376.222 328.082Z" fill="#4A3333"/>
<path opacity="0.34" d="M369.074 272.634L366.178 259.433H361.17L364.054 272.634H369.074Z" fill="#4A3333"/>
<path d="M316.148 328.082H311.128L326.176 259.433H331.195L316.148 328.082Z" fill="#4A3333"/>
<path opacity="0.34" d="M328.299 272.634L331.195 259.433H326.176L323.279 272.634H328.299Z" fill="#4A3333"/>
<path d="M374.939 248.459V205.197H386.859V250.19C386.859 254.482 383.928 258.083 379.959 259.121V259.433H377.616H374.939H311.956C311.494 259.433 311.125 259.064 311.125 258.602C311.125 253.005 315.66 248.47 321.257 248.47H374.939V248.459Z" fill="#E527BB"/>
<path opacity="0.34" d="M374.95 205.208H386.859V226.245H374.95V205.208Z" fill="#4A3333"/>
<path d="M373.438 218.687H385.981C388.647 218.687 390.816 216.517 390.816 213.851V200.8C390.816 198.135 388.647 195.965 385.981 195.965H378.215C376.184 195.965 374.372 197.234 373.669 199.138L368.891 212.19C367.737 215.34 370.08 218.687 373.438 218.687Z" fill="#E527BB"/>
<path opacity="0.34" d="M368.89 212.19L373.668 199.139C374.002 198.215 374.602 197.454 375.352 196.9C376.656 197.05 377.845 197.638 378.849 198.619C381.826 201.527 382.761 206.374 382.265 210.378C381.803 214.105 379.853 217.337 376.506 218.698H373.437C370.079 218.687 367.736 215.34 368.89 212.19Z" fill="#4A3333"/>
<path d="M335.473 187.322L331.861 169.009C331.861 169.009 326.276 185.429 321.071 200.535L316.617 201.989C319.606 204.908 321.429 208.728 321.487 212.928C322.018 212.894 324.302 212.397 326.357 211.936C328.607 211.428 330.557 210.055 331.792 208.105L335.657 201.989C338.127 198.1 336.777 191.742 335.473 187.322Z" fill="#E93F23"/>
<path d="M335.473 187.322L331.861 169.009C331.861 169.009 325.791 186.976 321.071 200.535L316.617 201.989C319.606 204.908 321.429 208.728 321.487 212.928C322.018 212.894 324.302 212.397 326.357 211.936C328.607 211.428 330.557 210.055 331.792 208.105L335.657 201.989C338.127 198.1 336.777 191.742 335.473 187.322Z" fill="#4FB664"/>
<path d="M335.473 187.322L331.861 169.009C331.861 169.009 325.791 186.976 321.071 200.535L316.617 201.989C319.606 204.908 321.429 208.728 321.487 212.928C322.018 212.894 324.302 212.397 326.357 211.936C328.607 211.428 330.557 210.055 331.792 208.105L335.657 201.989C338.127 198.1 336.777 191.742 335.473 187.322Z" fill="#9473E8"/>
<path d="M315.925 202.127L319.964 199.173C332.288 202.058 327.661 211.855 327.661 211.855C324.372 214.705 319.998 213.493 319.998 213.493C321.268 207.389 315.925 202.127 315.925 202.127Z" fill="#A78BEF"/>
<path d="M303.775 206.166C303.775 206.166 291.301 208.497 291.162 213.136H306.071C306.071 213.136 307.433 212.328 307.641 210.69C307.641 210.69 314.068 212.236 319.85 212.894C320.404 212.963 320.957 212.963 321.488 212.928C321.419 208.728 319.596 204.908 316.619 201.989L303.775 206.166Z" fill="#ED9F8A"/>
<path d="M342.415 152.911L346.258 161.969C343.984 167.543 337.418 168.72 335.457 168.951C335.099 168.997 334.891 169.008 334.891 169.008C334.787 168.754 334.683 168.512 334.568 168.258C332.364 163.1 329.756 158.438 329.756 158.438L328.694 158.796L324.54 160.192C321.274 160.769 320.27 157.63 320.051 156.707C319.994 156.442 319.924 156.199 319.844 155.934L317.847 152.126L316.739 151.526C314.928 150.279 315.32 149.379 315.32 149.379L316.612 147.002C317.489 145.375 317.801 143.506 317.478 141.682C316.082 133.801 320.363 130.628 320.363 130.628C338.353 116.757 346.673 133.674 346.673 133.674C352.651 146.714 342.415 152.911 342.415 152.911Z" fill="#FFAB87"/>
<path opacity="0.18" d="M334.572 168.247C332.368 163.089 329.76 158.427 329.76 158.427L328.698 158.784L329.991 158.288C332.679 157.25 335.634 159.027 335.968 161.9C336.211 163.977 336.003 166.32 334.572 168.247Z" fill="#985235"/>
<g opacity="0.45">
<path opacity="0.53" d="M332.247 151.572C332.27 151.572 332.293 151.56 332.328 151.549C334.532 150.718 335.975 149.553 336.621 148.075C337.325 146.471 336.794 145.11 336.771 145.052C336.702 144.879 336.505 144.787 336.332 144.867C336.159 144.937 336.078 145.133 336.148 145.306C336.148 145.317 336.598 146.471 335.998 147.822C335.421 149.114 334.105 150.153 332.097 150.914C331.924 150.983 331.832 151.18 331.901 151.353C331.936 151.503 332.086 151.595 332.247 151.572Z" fill="#985235"/>
<path opacity="0.53" d="M331.093 150.349C331.104 150.349 331.116 150.349 331.116 150.349C331.301 150.314 331.416 150.129 331.381 149.945C331.024 148.272 332.997 147.648 333.078 147.625C333.262 147.568 333.355 147.383 333.309 147.198C333.251 147.014 333.055 146.921 332.882 146.968C331.97 147.245 330.331 148.26 330.712 150.083C330.758 150.256 330.92 150.372 331.093 150.349Z" fill="#985235"/>
</g>
<path d="M316.523 133.455C319.108 126.139 327.347 121.408 335.009 122.596C342.671 123.785 349.018 130.605 349.918 138.302C350.172 140.413 349.872 142.79 348.868 144.602L349.007 144.475C347.507 148.479 345.926 153.303 341.679 153.811C341.344 153.845 339.833 153.268 339.544 153.095C339.002 152.761 339.013 151.999 339.048 151.364C339.129 149.864 338.99 148.306 338.275 146.979C337.559 145.652 336.175 144.625 334.675 144.648C333.221 144.671 331.963 145.606 330.682 146.287C329.389 146.968 327.682 147.349 326.585 146.391C325.374 145.329 325.72 143.402 325.616 141.786C325.466 139.594 323.493 137.24 321.416 137.944C320.585 138.221 319.938 138.936 319.085 139.109C317.85 139.375 316.604 138.359 316.223 137.159C315.819 135.959 316.096 134.643 316.523 133.455Z" fill="#231F20"/>
<path d="M375.297 225.772C374.801 230.526 373.693 234.992 372.297 239.146C369.666 246.913 363.226 252.348 355.76 253.121C350.014 253.721 344.359 252.948 338.589 251.101C334.412 249.763 330.165 247.859 325.769 245.505C324.65 244.905 323.542 244.282 322.469 243.589C317.114 240.127 311.448 240.589 311.448 240.589C306.094 242.631 302.863 248.632 303.809 254.794L304.317 258.129C299.032 268.572 292.142 278.727 284.572 288.259V288.271L284.769 292.448C284.884 294.975 283.672 297.387 281.595 298.472C280.776 298.91 279.899 299.245 279.045 299.522C276.149 300.445 273.391 301.818 271.117 303.826C267.171 307.299 262.936 308.107 258.435 306.422C257.27 305.984 256.231 305.13 255.62 303.941C254.396 301.553 255.585 299.452 256.681 298.172C257.304 297.445 258.077 296.891 258.885 296.441C266.605 292.24 275.791 282.616 276.091 282.305C276.102 282.293 276.102 282.293 276.102 282.293L301.42 226.787C302.459 224.491 304.582 223.037 306.902 223.037C317.518 223.037 344.948 226.026 344.948 226.026L345.732 223.903L375.297 225.772Z" fill="#231F20"/>
<path d="M376.634 226.683C378.538 208.001 358.044 158.877 345.904 159.811L332.183 166.193L330.487 172.136C327.96 180.952 329.298 190.472 334.307 198.157C339.95 206.824 343.7 215.975 344.946 225.726C352.424 232.453 362.948 232.361 375.157 228.483C375.965 228.241 376.553 227.526 376.634 226.683Z" fill="#A78BEF"/>
<path d="M255.202 302.845C255.282 303.203 255.421 303.572 255.617 303.941C256.229 305.13 257.256 305.984 258.421 306.422C262.518 307.957 266.395 307.426 270.018 304.714C272.984 302.487 276.192 300.56 279.677 299.302C280.323 299.071 280.969 298.794 281.593 298.471C283.658 297.398 284.87 294.975 284.754 292.459L284.558 288.282C284.72 288.074 284.881 287.866 285.043 287.67L283.751 286.897L276.088 282.316C275.788 282.639 266.603 292.252 258.883 296.452C258.063 296.902 257.302 297.456 256.679 298.183C255.744 299.245 254.751 300.918 255.202 302.845Z" fill="black"/>
<path d="M255.202 302.845C255.813 303.687 256.656 304.299 257.602 304.657C261.698 306.191 265.564 305.661 269.199 302.949C272.165 300.733 275.373 298.794 278.858 297.537C279.504 297.306 280.15 297.029 280.762 296.706C282.827 295.633 284.039 293.209 283.935 290.694L283.751 286.897L276.088 282.316C275.788 282.639 266.603 292.252 258.883 296.452C258.063 296.902 257.302 297.456 256.679 298.183C255.744 299.245 254.752 300.918 255.202 302.845Z" fill="#A78BEF"/>
<path opacity="0.48" d="M266.698 291.363C268.648 292.032 270.321 293.336 271.44 295.067C271.694 295.448 271.071 295.806 270.829 295.425C269.813 293.856 268.267 292.655 266.501 292.044C266.074 291.905 266.259 291.213 266.698 291.363Z" fill="white"/>
<path opacity="0.48" d="M264.422 292.852C266.303 293.336 267.953 294.536 269.003 296.175C269.245 296.556 268.634 296.913 268.391 296.533C267.433 295.056 265.933 293.982 264.225 293.544C263.787 293.429 263.972 292.736 264.422 292.852Z" fill="white"/>
<path d="M283.406 208.243C283.81 206.547 285.864 203.662 286.81 202.381C287.122 201.966 287.56 201.666 288.056 201.516L294.172 199.658C294.495 199.554 294.842 199.542 295.176 199.612C297.403 200.119 304.166 200.869 306.681 201.135C307.327 201.204 307.962 201.331 308.585 201.516C317.621 204.181 326.483 205.785 335.103 206.016C337.85 206.085 340.135 208.162 340.469 210.886C340.896 214.359 338.046 217.359 334.561 217.117C330.245 216.817 326.01 215.825 322.006 214.175L312.22 210.147C311.805 209.974 311.389 209.836 310.962 209.732L308.251 209.051C305.62 209.916 302.896 209.489 300.104 208.232L294.311 210.39C292.061 211.359 290.722 210.967 290.953 210.228C290.203 211.128 289.545 211.844 289.545 211.844C288.726 212.559 288.114 212.144 287.802 211.809C287.652 211.647 287.629 211.417 287.733 211.232L291.022 205.174L289.81 206.201L287.768 210.563C287.11 211.924 286.383 212.178 285.829 212.086C285.264 211.994 284.941 211.37 285.125 210.828L286.372 207.066C285.471 208.301 284.791 208.843 284.306 209.051C283.81 209.27 283.267 208.797 283.406 208.243ZM291.507 209.582C291.657 209.466 291.818 209.351 292.037 209.236L298.511 205.67L296.353 206.085C296.261 206.108 296.157 206.131 296.065 206.154L293.145 207.089C292.926 207.701 292.234 208.67 291.507 209.582Z" fill="#FFAB87"/>
<path opacity="0.53" d="M286.046 207.251C286.508 206.362 287.016 205.485 287.558 204.643C288.031 203.893 288.527 203.2 289.358 202.819C290.281 202.404 291.308 202.162 292.278 201.85C293.351 201.504 294.436 201.158 295.509 200.811C295.716 200.742 295.855 201.054 295.647 201.123C293.732 201.735 291.793 202.312 289.901 202.981C288.977 203.316 288.435 203.904 287.916 204.712C287.35 205.577 286.843 206.466 286.358 207.378C286.266 207.562 285.942 207.435 286.046 207.251Z" fill="#985235"/>
<path opacity="0.53" d="M290.741 205.301C290.938 204.874 291.284 204.597 291.688 204.377C292.23 204.089 292.83 203.858 293.396 203.616C294.492 203.131 295.588 202.635 296.742 202.312C296.95 202.254 297.007 202.589 296.8 202.646C295.75 202.935 294.757 203.385 293.765 203.824C293.269 204.043 292.772 204.25 292.288 204.47C291.803 204.689 291.295 204.92 291.053 205.428C290.961 205.612 290.649 205.497 290.741 205.301Z" fill="#985235"/>
<path d="M348.776 165.304C353.15 166.712 355.85 171.086 355.158 175.632C351.788 197.627 347.138 216.136 336.06 217.036L331.963 205.889L336.671 172.886C337.491 167.151 343.272 163.527 348.776 165.304Z" fill="#9473E8"/>
<path d="M330.484 205.774L332.676 202.3C345 205.185 342.219 215.502 342.219 215.502C338.931 218.352 334.557 217.14 334.557 217.14C335.826 211.024 330.484 205.774 330.484 205.774Z" fill="#A78BEF"/>
<path d="M343.963 156.557L332.862 164.254L329.238 177.028C335.1 170.22 341.066 165.189 347.182 162.731C348.394 161.773 348.371 159.927 347.148 158.98L343.963 156.557Z" fill="#E527BB"/>
<path d="M321.753 304.426C321.591 305.361 321.418 306.318 321.234 307.276C321.234 307.276 323.761 313.404 323.138 320.547C322.976 322.52 321.476 324.043 319.699 324.147L311.206 324.643C310.306 324.701 309.417 324.92 308.575 325.301C307.79 325.659 306.74 326.143 305.632 326.663C301.916 328.347 297.774 328.544 293.942 327.182C293.042 326.87 292.154 326.501 291.381 326.12C289.546 325.209 289.003 322.589 290.342 320.916C291.692 319.243 294.346 317.119 299.551 315.1C299.551 315.1 310.744 311.096 311.159 304.114C311.171 303.918 311.183 303.71 311.171 303.491L304.27 258.117L303.763 254.782C302.816 248.62 306.059 242.608 311.402 240.577C311.402 240.577 317.068 240.104 322.422 243.577C323.495 244.27 324.615 244.893 325.722 245.493C330.119 247.847 334.366 249.751 338.543 251.09C331.458 252.774 321.36 255.348 319.849 256.709C319.883 256.721 326.888 274.584 321.753 304.426Z" fill="#231F20"/>
<path opacity="0.41" d="M303.795 254.805C303.864 254.609 303.933 254.413 304.014 254.217C307.106 246.878 316.373 247.535 322.777 248.713C325.754 249.255 328.697 249.947 331.686 250.467C333.324 250.755 334.998 250.974 336.659 250.882C336.971 250.87 337.294 250.836 337.617 250.778C333.74 249.463 329.805 247.674 325.743 245.493C324.624 244.893 323.516 244.27 322.443 243.577C317.088 240.116 311.422 240.577 311.422 240.577C306.079 242.631 302.848 248.632 303.795 254.805Z" fill="#004CAD"/>
<path d="M289.742 324.436C290.03 325.163 290.549 325.763 291.253 326.12C292.038 326.501 292.915 326.859 293.815 327.17C297.646 328.544 301.789 328.336 305.505 326.651C306.613 326.143 307.663 325.647 308.447 325.29C309.278 324.897 310.167 324.678 311.067 324.62L319.56 324.124C321.349 324.02 322.837 322.497 322.999 320.524C323.622 313.381 321.095 307.253 321.095 307.253C321.291 306.295 321.453 305.338 321.614 304.403L320.472 304.368L311.032 304.103C310.605 311.084 299.423 315.088 299.423 315.088C294.219 317.096 291.565 319.231 290.215 320.904C289.407 321.943 289.28 323.316 289.742 324.436Z" fill="black"/>
<path d="M289.865 324.436C290.05 324.597 290.246 324.724 290.465 324.828C291.238 325.209 292.127 325.566 293.027 325.878C296.858 327.24 300.989 327.043 304.717 325.359C305.824 324.851 306.886 324.355 307.659 323.997C308.49 323.616 309.379 323.385 310.279 323.339L318.772 322.843C320.56 322.739 322.049 321.216 322.211 319.231C322.845 312.1 320.307 305.972 320.307 305.972L320.607 304.38L311.167 304.114C310.74 311.096 299.558 315.1 299.558 315.1C294.354 317.108 291.7 319.243 290.35 320.916C289.542 321.943 289.415 323.316 289.865 324.436Z" fill="#A78BEF"/>
<path opacity="0.48" d="M303.899 312.954C306.368 313 308.757 314.096 310.395 315.943C310.695 316.277 310.199 316.785 309.899 316.439C308.376 314.731 306.195 313.704 303.899 313.658C303.437 313.658 303.437 312.942 303.899 312.954Z" fill="white"/>
<path opacity="0.48" d="M301.579 314.246C303.875 314.754 305.999 315.919 307.649 317.581C307.972 317.904 307.476 318.4 307.153 318.077C305.572 316.496 303.575 315.4 301.394 314.915C300.944 314.823 301.141 314.142 301.579 314.246Z" fill="white"/>
<path d="M129.572 328.59H122.233L158.571 224.791H165.91L129.572 328.59Z" fill="black"/>
<path d="M136.874 231.08H316.777C320.227 231.08 323.02 228.287 323.02 224.837V221.987C323.02 218.536 320.227 215.744 316.777 215.744H136.862C133.412 215.744 130.62 218.536 130.62 221.987V224.837C130.631 228.287 133.424 231.08 136.874 231.08Z" fill="#E527BB"/>
<path d="M237.115 209.201H268.699V215.894H237.115V209.201Z" fill="#DA25B2"/>
<path d="M240 209.201H268.699V215.894H240V209.201Z" fill="#DA25B2"/>
<path d="M225.234 179.959L232.954 208.889H276.539L268.808 179.959H225.234Z" fill="#FF9C00"/>
<path d="M219.983 178.817L228.51 210.759C228.66 211.301 229.099 211.67 229.607 211.67H231.188L221.979 177.167H221.09C220.317 177.167 219.763 177.998 219.983 178.817Z" fill="#E93F23"/>
<path d="M219.983 178.817L228.51 210.759C228.66 211.301 229.099 211.67 229.607 211.67H231.188L221.979 177.167H221.09C220.317 177.167 219.763 177.998 219.983 178.817Z" fill="#CC1AA5"/>
<path d="M270.569 177.167L279.777 211.67H231.184L221.975 177.167H270.569ZM232.95 208.889H276.535L268.815 179.96H225.241L232.95 208.889Z" fill="#E527BB"/>
<path d="M225.234 179.959L232.954 208.889H276.539L268.808 179.959H225.234Z" fill="#FF9C00"/>
<path d="M225.234 179.959L232.954 208.889H276.539L268.808 179.959H225.234Z" fill="white"/>
<path d="M225.234 179.959L225.522 181.056H267.734L275.166 208.901H276.539L268.819 179.959H225.234Z" fill="#A78BEF"/>
<path d="M235.377 190.392H264.189C265.116 190.392 265.648 189.869 265.372 189.238C265.096 188.606 264.13 188.084 263.203 188.084H234.391C233.464 188.084 232.931 188.606 233.207 189.238C233.483 189.869 234.45 190.392 235.377 190.392Z" fill="#E527BB"/>
<path d="M237.685 195.007H266.498C267.425 195.007 267.957 194.485 267.681 193.853C267.405 193.222 266.439 192.699 265.512 192.699H236.699C235.772 192.699 235.24 193.222 235.516 193.853C235.792 194.485 236.758 195.007 237.685 195.007Z" fill="#E527BB"/>
<path d="M246.96 200.777H268.783C269.727 200.777 270.27 200.255 269.988 199.623C269.707 198.992 268.722 198.469 267.778 198.469H245.955C245.011 198.469 244.468 198.992 244.75 199.623C245.011 200.255 246.016 200.777 246.96 200.777Z" fill="#E527BB"/>
<path d="M280.6 212.351V215.883H305.652C305.652 214.913 305.26 214.025 304.625 213.378C303.991 212.732 303.125 212.34 302.156 212.34H280.6V212.351Z" fill="#004CAD"/>
<path opacity="0.52" d="M280.6 212.351V215.883H293.824C293.824 214.913 293.432 214.025 292.797 213.378C292.163 212.732 291.297 212.34 290.328 212.34H280.6V212.351Z" fill="#E93F23"/>
<path d="M436.26 277.919C434.697 276.39 432.68 274.541 430.294 275.202C428.047 275.824 427.19 278.272 426.786 280.317C426.271 282.95 425.868 285.606 425.447 288.256C425.027 290.934 424.629 293.612 424.243 296.29C424.024 297.803 423.811 299.315 423.599 300.828C423.492 301.584 423.386 302.341 423.285 303.097C423.184 303.842 423.055 304.582 423.016 305.332C423.005 305.573 423.38 305.607 423.43 305.377C423.722 304.117 423.839 302.8 424.024 301.523C424.209 300.234 424.4 298.946 424.585 297.657C424.96 295.097 425.347 292.542 425.733 289.982C426.12 287.421 426.517 284.866 426.926 282.312C427.274 280.144 427.436 277.454 429.358 276.02C430.411 275.236 431.756 275.225 432.949 275.684C434.215 276.166 435.224 277.073 436.21 277.97C436.243 277.998 436.288 277.953 436.26 277.919Z" fill="#1A2E35"/>
<path d="M434.127 276.356C434.127 276.356 430.933 275.208 429.359 277.538C427.785 279.869 429.667 285.791 444.195 289.13C444.195 289.13 443.814 282.788 440.699 275.998C437.584 269.207 432.037 271.779 434.127 276.356Z" fill="#3CAA18"/>
<path d="M443.359 288.161C443.157 287.752 442.877 287.365 442.63 286.984C442.389 286.609 442.143 286.239 441.896 285.864C441.711 285.584 441.521 285.309 441.331 285.034C441.342 284.967 441.347 284.894 441.359 284.827C441.375 284.704 441.392 284.575 441.409 284.452C441.443 284.177 441.482 283.908 441.527 283.634C441.566 283.365 441.611 283.09 441.661 282.822C441.711 282.547 441.74 282.222 441.852 281.964C441.868 281.92 441.796 281.903 441.79 281.953C441.773 282.116 441.706 282.278 441.661 282.435C441.627 282.558 441.594 282.681 441.566 282.805C441.493 283.079 441.426 283.359 441.364 283.634C441.308 283.892 441.258 284.149 441.213 284.407C441.19 284.53 441.174 284.654 441.157 284.782C440.899 284.413 440.636 284.048 440.361 283.69C439.588 282.676 438.776 281.695 437.93 280.743C437.935 280.732 437.941 280.726 437.941 280.715C438.014 279.191 437.98 277.678 438.316 276.177C438.328 276.138 438.266 276.115 438.255 276.155C437.935 277.561 437.622 279.04 437.711 280.496C437.409 280.16 437.101 279.824 436.792 279.488C436.087 278.726 435.364 277.981 434.63 277.247C434.602 277.219 434.551 277.258 434.58 277.292C435.806 278.608 436.966 279.981 438.098 281.382C437.218 281.354 436.322 281.415 435.442 281.483C434.456 281.555 433.476 281.684 432.501 281.819C432.462 281.824 432.473 281.891 432.512 281.88C433.487 281.735 434.467 281.656 435.448 281.617C436.395 281.578 437.336 281.623 438.283 281.617C438.893 282.373 439.498 283.141 440.098 283.908C440.053 283.908 440.008 283.908 439.964 283.908C439.739 283.903 439.515 283.903 439.297 283.903C438.854 283.908 438.412 283.942 437.975 283.981C437.073 284.06 436.176 284.183 435.291 284.385C435.252 284.396 435.263 284.452 435.302 284.446C436.193 284.345 437.089 284.261 437.986 284.228C438.412 284.211 438.843 284.211 439.269 284.211C439.493 284.211 439.711 284.211 439.936 284.211C440.07 284.211 440.188 284.228 440.3 284.177C440.692 284.687 441.084 285.191 441.471 285.701C441.779 286.105 442.081 286.514 442.384 286.928C442.686 287.348 442.966 287.813 443.303 288.206C443.331 288.228 443.375 288.194 443.359 288.161Z" fill="#1A2E35"/>
<path d="M435.513 279.656C435.004 279.572 434.477 279.583 433.962 279.583C433.441 279.583 432.925 279.6 432.404 279.617C432.359 279.617 432.359 279.684 432.41 279.684C432.936 279.645 433.463 279.639 433.99 279.645C434.499 279.65 435.009 279.701 435.513 279.69C435.525 279.684 435.53 279.662 435.513 279.656Z" fill="#1A2E35"/>
<path d="M440.075 280.827C440.136 280.329 440.198 279.83 440.304 279.343C440.316 279.298 440.248 279.281 440.243 279.331C440.17 279.819 440.075 280.306 440.002 280.794C439.968 281.04 439.935 281.281 439.901 281.528C439.873 281.752 439.822 281.993 439.839 282.222C439.845 282.267 439.912 282.267 439.923 282.228C439.985 282.009 439.979 281.763 439.996 281.539C440.019 281.303 440.047 281.063 440.075 280.827Z" fill="#1A2E35"/>
<path d="M439.116 275.331C438.987 275.813 438.864 276.3 438.775 276.793C438.73 277.04 438.69 277.292 438.657 277.544C438.623 277.785 438.578 278.037 438.606 278.278C438.606 278.295 438.64 278.3 438.646 278.278C438.719 278.054 438.73 277.813 438.763 277.578C438.797 277.337 438.831 277.096 438.875 276.855C438.965 276.351 439.055 275.847 439.184 275.348C439.189 275.314 439.127 275.292 439.116 275.331Z" fill="#1A2E35"/>
<path d="M420.195 304.794C420.117 303.881 420.027 302.968 419.932 302.055C419.741 300.245 419.517 298.441 419.276 296.637C419.036 294.839 418.806 293.035 418.515 291.247C418.38 290.424 418.246 289.584 417.96 288.799C417.713 288.121 417.31 287.511 416.604 287.27C414.895 286.681 413.741 288.452 413.052 289.707C413.03 289.746 413.086 289.774 413.108 289.74C413.523 289.147 414.666 287.477 415.96 287.555C416.834 287.606 417.528 288.228 417.949 290.401C418.991 295.825 419.932 306.822 420.044 307.54C420.1 307.921 420.369 307.904 420.375 307.495C420.38 306.593 420.274 305.691 420.195 304.794Z" fill="#1A2E35"/>
<path d="M413.513 289.029C413.513 289.029 415.009 283.752 411.704 286.39C406.208 290.783 406.012 300.335 406.012 300.335C406.012 300.335 415.783 294.66 416.998 290.917C418.813 285.337 413.513 289.029 413.513 289.029Z" fill="#3CAA18"/>
<path d="M415.359 291.618C414.592 291.774 413.813 291.875 413.04 291.987C412.675 292.038 412.306 292.094 411.942 292.144C411.695 292.178 411.443 292.2 411.196 292.234C411.925 291.231 412.659 290.234 413.359 289.208C413.387 289.169 413.325 289.13 413.292 289.158C412.709 289.746 412.177 290.385 411.661 291.04C411.516 290.631 411.37 290.222 411.23 289.814C411.062 289.343 410.883 288.872 410.765 288.385C410.754 288.346 410.692 288.362 410.703 288.402C410.838 288.883 410.933 289.377 411.062 289.864C411.185 290.335 411.331 290.794 411.493 291.248C411.135 291.713 410.793 292.189 410.457 292.671C410.289 292.195 410.082 291.735 409.93 291.248C409.919 291.209 409.852 291.225 409.869 291.265C410.042 291.802 410.138 292.357 410.3 292.895C410.076 293.22 409.852 293.55 409.639 293.881C409.247 294.492 408.871 295.113 408.507 295.735C408.451 295.769 408.412 295.814 408.423 295.881C407.807 296.951 407.219 298.032 406.642 299.125C406.619 299.164 406.681 299.192 406.698 299.158C407.28 298.077 407.925 297.03 408.597 295.993H408.602C408.675 295.954 408.832 295.948 408.922 295.931C409.034 295.909 409.146 295.881 409.258 295.859C409.51 295.803 409.762 295.741 410.014 295.674C410.507 295.55 411 295.433 411.505 295.349C411.544 295.343 411.527 295.276 411.488 295.287C410.894 295.399 410.3 295.466 409.706 295.534C409.426 295.567 409.14 295.601 408.86 295.646C408.849 295.646 408.832 295.651 408.821 295.651C409.174 295.119 409.527 294.587 409.891 294.066C410.244 293.55 410.608 293.041 410.978 292.536C411.314 292.492 411.65 292.402 411.986 292.335C412.367 292.262 412.743 292.189 413.118 292.116C413.874 291.965 414.625 291.797 415.387 291.674C415.421 291.674 415.404 291.612 415.359 291.618Z" fill="#1A2E35"/>
<path d="M409.488 292.139C409.443 291.998 409.398 291.858 409.353 291.718C409.258 291.427 409.191 291.136 409.129 290.833C409.124 290.794 409.056 290.811 409.068 290.85C409.129 291.147 409.202 291.444 409.269 291.741C409.337 292.032 409.409 292.34 409.521 292.62C409.549 292.688 409.656 292.66 409.634 292.587C409.594 292.435 409.538 292.29 409.488 292.139Z" fill="#1A2E35"/>
<path d="M416.366 290.396C415.918 290.463 415.47 290.497 415.022 290.536C414.568 290.575 414.125 290.637 413.677 290.704C413.655 290.71 413.655 290.743 413.677 290.743C414.125 290.71 414.573 290.676 415.022 290.62C415.47 290.564 415.912 290.497 416.366 290.463C416.411 290.458 416.405 290.39 416.366 290.396Z" fill="#1A2E35"/>
<path d="M427.389 298.116C427.215 294.234 426.968 290.357 426.576 286.486C426.38 284.558 426.162 282.631 425.893 280.715C425.629 278.838 425.305 276.956 424.778 275.129C424.38 273.729 423.854 272.328 422.918 271.191C421.999 270.07 420.638 269.37 419.164 269.549C417.467 269.762 416.094 270.832 414.912 271.992C413.584 273.297 412.368 274.72 411.136 276.121C410.822 276.474 410.514 276.832 410.211 277.185C410.183 277.219 410.234 277.264 410.256 277.23C411.461 275.846 412.71 274.507 414.015 273.224C415.226 272.037 416.469 270.742 418.145 270.249C418.918 270.02 419.758 269.958 420.542 270.193C421.175 270.384 421.725 270.759 422.178 271.23C423.12 272.21 423.652 273.538 424.027 274.821C425.069 278.39 425.445 282.132 425.831 285.824C426.223 289.573 426.492 293.326 426.677 297.085C426.868 300.867 427.013 304.654 427.377 308.425C427.422 308.89 427.484 309.355 427.54 309.82C427.579 310.134 428.067 310.134 428.039 309.809C427.742 305.921 427.562 302.021 427.389 298.116Z" fill="#1A2E35"/>
<path d="M414.699 272.423C414.699 272.423 416.918 268.317 414.296 267C411.674 265.683 402.906 275.477 400.34 289.791C400.34 289.791 414.509 283.522 419.316 277.275C424.134 271.034 418.677 269.656 414.699 272.423Z" fill="#3CAA18"/>
<path d="M416.78 275.762C415.189 275.768 413.598 275.639 412.007 275.656C412.304 275.314 412.601 274.972 412.904 274.631C413.318 274.16 413.794 273.706 414.147 273.185C414.17 273.152 414.119 273.107 414.091 273.129C413.649 273.476 413.273 273.93 412.887 274.339C412.489 274.765 412.091 275.191 411.693 275.617C411.083 276.278 410.489 276.944 409.895 277.617C409.895 277.549 409.895 277.488 409.895 277.426C409.895 277.146 409.895 276.866 409.895 276.591C409.901 276.054 409.906 275.51 409.912 274.972C409.923 273.88 409.917 272.776 409.996 271.684C410.001 271.639 409.934 271.644 409.929 271.684C409.85 272.782 409.738 273.874 409.688 274.972C409.66 275.51 409.648 276.054 409.643 276.591C409.637 276.872 409.637 277.152 409.637 277.426C409.637 277.577 409.632 277.74 409.643 277.897C409.548 278.003 409.452 278.104 409.363 278.211C408.091 279.662 406.886 281.163 405.71 282.693C405.71 282.609 405.699 282.525 405.688 282.44C405.671 282.272 405.648 282.104 405.631 281.936C405.592 281.572 405.542 281.208 405.486 280.844C405.435 280.502 405.379 280.16 405.323 279.818C405.256 279.438 405.166 279.045 405.138 278.659C405.133 278.614 405.066 278.62 405.077 278.67C405.161 279.051 405.172 279.449 405.211 279.835C405.245 280.183 405.279 280.536 405.307 280.889C405.34 281.242 405.368 281.589 405.407 281.942C405.424 282.11 405.441 282.278 405.458 282.446C405.469 282.53 405.475 282.614 405.491 282.698C405.508 282.81 405.525 282.821 405.559 282.9C405.357 283.163 405.155 283.427 404.954 283.69C404.152 284.754 403.362 285.83 402.573 286.9C402.55 286.934 402.595 286.979 402.617 286.945C403.362 285.97 404.136 285.012 404.914 284.065C405.497 284.088 406.091 284.048 406.674 284.037C407.29 284.026 407.9 284.026 408.517 284.02C408.562 284.02 408.556 283.953 408.517 283.953C407.9 283.964 407.29 283.976 406.674 283.976C406.113 283.976 405.542 283.948 404.982 283.981C405.665 283.146 406.36 282.323 407.055 281.494C407.307 281.191 407.564 280.894 407.816 280.592C408.046 280.642 408.293 280.614 408.528 280.614C408.808 280.614 409.088 280.614 409.368 280.614C409.889 280.614 410.416 280.603 410.937 280.592C412.018 280.575 413.1 280.541 414.181 280.536C414.226 280.536 414.22 280.468 414.181 280.468C413.1 280.457 412.013 280.407 410.931 280.379C410.41 280.368 409.884 280.351 409.357 280.34C409.077 280.334 408.797 280.334 408.517 280.328C408.36 280.328 408.192 280.317 408.035 280.323C408.629 279.617 409.223 278.911 409.822 278.205C409.839 278.194 409.85 278.183 409.856 278.166C410.438 277.482 411.015 276.799 411.604 276.115C411.682 276.02 411.766 275.93 411.845 275.835C413.497 275.886 415.145 275.779 416.792 275.813C416.825 275.83 416.825 275.762 416.78 275.762Z" fill="#1A2E35"/>
<path d="M415.975 278.575C415.846 278.575 415.717 278.575 415.588 278.58C415.549 278.58 415.549 278.636 415.588 278.642C415.717 278.642 415.846 278.642 415.975 278.648C416.019 278.642 416.014 278.575 415.975 278.575Z" fill="#1A2E35"/>
<path d="M415.111 278.58C414.601 278.575 414.092 278.564 413.582 278.547C413.324 278.541 413.072 278.53 412.814 278.524C412.585 278.519 412.327 278.48 412.103 278.53C412.08 278.536 412.08 278.569 412.103 278.575C412.321 278.642 412.585 278.62 412.814 278.625C413.066 278.631 413.324 278.631 413.576 278.636C414.086 278.642 414.596 278.642 415.106 278.642C415.156 278.648 415.151 278.58 415.111 278.58Z" fill="#1A2E35"/>
<path d="M410.658 283.365C409.622 283.219 408.574 283.074 407.526 283.085C407.509 283.085 407.515 283.107 407.526 283.107C408.568 283.208 409.61 283.264 410.641 283.432C410.68 283.432 410.697 283.371 410.658 283.365Z" fill="#1A2E35"/>
<path d="M406.403 278.804C406.391 278.715 406.38 278.619 406.369 278.53C406.341 278.322 406.307 278.121 406.279 277.913C406.218 277.527 406.15 277.135 406.078 276.748C406.072 276.715 406.01 276.72 406.016 276.759C406.066 277.157 406.106 277.561 406.145 277.964C406.162 278.16 406.178 278.356 406.195 278.558C406.212 278.737 406.195 278.956 406.274 279.118C406.302 279.18 406.397 279.152 406.414 279.096C406.436 279 406.414 278.905 406.403 278.804Z" fill="#1A2E35"/>
<path d="M427.247 267.151C426.737 266.21 426.093 264.961 424.826 265.039C423.779 265.106 423.308 266.171 423.09 267.05C422.401 269.779 422.35 272.653 422.216 275.449C421.93 281.354 421.678 287.264 421.639 293.181C421.627 294.822 421.633 296.458 421.65 298.1C421.667 299.769 421.661 301.45 421.767 303.119C421.779 303.276 422.014 303.271 422.014 303.114C422.025 301.685 421.975 300.251 421.969 298.822C421.964 297.427 421.975 296.032 421.997 294.637C422.042 291.814 422.12 288.984 422.221 286.161C422.328 283.354 422.451 280.547 422.569 277.74C422.63 276.339 422.686 274.933 422.748 273.533C422.81 272.171 422.866 270.815 423.022 269.46C423.112 268.703 423.224 267.947 423.381 267.202C423.493 266.669 423.656 266.098 424.037 265.689C424.535 265.151 425.291 265.19 425.885 265.555C426.502 265.936 426.871 266.563 427.196 267.191C427.213 267.224 427.269 267.191 427.247 267.151Z" fill="#1A2E35"/>
<path d="M426.909 266.703C426.909 266.703 425.867 263.028 428.17 264.865C432.002 267.924 432.136 274.58 432.136 274.58C432.136 274.58 425.329 270.625 424.483 268.02C423.217 264.126 426.909 266.703 426.909 266.703Z" fill="#3CAA18"/>
<path d="M430.7 271.846C430.639 271.745 430.572 271.644 430.51 271.543C430.527 271.442 430.51 271.33 430.51 271.23C430.51 271.073 430.51 270.916 430.51 270.753C430.515 270.445 430.527 270.131 430.543 269.823C430.543 269.778 430.482 269.784 430.476 269.823C430.459 270.126 430.448 270.434 430.437 270.737C430.431 270.888 430.426 271.039 430.42 271.196C430.42 271.258 430.409 271.325 430.409 271.392C430.14 270.977 429.866 270.568 429.585 270.165C429.501 270.047 429.417 269.935 429.333 269.818C429.272 269.426 429.305 269.011 429.311 268.619C429.317 268.193 429.322 267.767 429.339 267.336C429.339 267.291 429.277 267.297 429.272 267.336C429.261 267.778 429.238 268.221 429.216 268.669C429.199 268.983 429.171 269.302 429.188 269.622C428.532 268.725 427.832 267.868 427.126 267.011C427.104 266.983 427.053 267.022 427.076 267.05C427.513 267.605 427.933 268.171 428.342 268.748C427.541 268.563 426.728 268.451 425.91 268.333C425.871 268.327 425.854 268.389 425.893 268.395C426.756 268.524 427.602 268.742 428.454 268.927C428.459 268.927 428.465 268.921 428.471 268.921C428.796 269.381 429.12 269.84 429.44 270.305C429.569 270.496 429.698 270.686 429.826 270.877C429.815 270.877 429.804 270.871 429.787 270.871C429.698 270.86 429.613 270.843 429.524 270.837C429.333 270.815 429.148 270.798 428.958 270.787C428.566 270.753 428.174 270.737 427.781 270.714C427.742 270.714 427.742 270.781 427.781 270.781C428.168 270.793 428.555 270.821 428.936 270.86C429.137 270.882 429.339 270.91 429.546 270.933C429.636 270.944 429.726 270.955 429.81 270.966C429.838 270.972 429.86 270.972 429.888 270.977C430.107 271.297 430.325 271.622 430.543 271.941C430.93 272.507 431.272 273.118 431.681 273.667C431.703 273.7 431.748 273.672 431.731 273.633C431.451 273.017 431.059 272.428 430.7 271.846Z" fill="#1A2E35"/>
<path d="M429.004 267.695C429.004 267.549 429.01 267.409 429.004 267.264C429.004 266.967 428.999 266.658 429.038 266.362C429.043 266.317 428.971 266.306 428.971 266.356C428.971 266.653 428.937 266.95 428.926 267.247C428.92 267.398 428.92 267.544 428.92 267.695C428.92 267.762 428.92 267.835 428.92 267.902C428.92 267.969 428.909 268.048 428.937 268.115C428.948 268.143 428.987 268.143 428.993 268.115C429.015 268.054 429.004 267.981 429.004 267.919C429.01 267.846 429.004 267.773 429.004 267.695Z" fill="#1A2E35"/>
<path d="M428.162 269.218C427.91 269.174 427.653 269.162 427.395 269.14C427.115 269.118 426.835 269.09 426.554 269.056C426.51 269.05 426.498 269.118 426.549 269.123C427.087 269.157 427.619 269.252 428.157 269.274C428.185 269.269 428.19 269.224 428.162 269.218Z" fill="#1A2E35"/>
<path d="M430.302 269.241C430.324 269.269 430.307 269.347 430.307 269.381V269.499C430.307 269.583 430.307 269.672 430.307 269.756C430.307 269.841 430.307 269.93 430.307 270.014C430.307 270.081 430.29 270.177 430.318 270.238C430.324 270.25 430.341 270.25 430.346 270.238C430.363 270.205 430.358 270.171 430.358 270.132C430.358 270.093 430.358 270.053 430.358 270.014C430.358 269.93 430.358 269.841 430.358 269.756C430.358 269.672 430.358 269.583 430.358 269.499V269.381C430.358 269.347 430.346 269.269 430.363 269.241C430.402 269.179 430.257 269.179 430.302 269.241Z" fill="#1A2E35"/>
<path d="M427.407 286.76C425.973 285.684 424.69 284.138 422.762 284.065C421.171 284.003 420.056 285.197 419.423 286.53C419.087 287.23 418.857 287.981 418.644 288.726C418.359 289.735 418.084 290.743 417.832 291.757C417.333 293.752 416.902 295.769 416.555 297.797C416.359 298.928 416.179 300.06 416.039 301.203C415.894 302.352 415.709 303.528 415.703 304.688C415.703 304.89 416.017 304.929 416.056 304.727C416.252 303.775 416.331 302.794 416.471 301.831C416.611 300.861 416.756 299.898 416.924 298.934C417.249 297.007 417.63 295.085 418.067 293.175C418.476 291.376 418.88 289.544 419.462 287.791C419.877 286.536 420.549 285.068 421.905 284.614C423.972 283.925 425.849 285.673 427.362 286.81C427.396 286.833 427.44 286.782 427.407 286.76Z" fill="#1A2E35"/>
<path d="M425.924 285.729C425.924 285.729 424.601 281.959 426.512 281.219C429.375 280.11 436.86 288.547 435.392 301.467C435.392 301.467 429.604 298.279 425.335 294.693C421.066 291.108 419.968 286.424 421.851 285.214C423.739 284.009 425.924 285.729 425.924 285.729Z" fill="#3CAA18"/>
<path d="M434.528 298.699C434.36 298.245 434.069 297.82 433.834 297.394C433.587 296.951 433.341 296.509 433.089 296.077C432.59 295.226 432.097 294.374 431.587 293.534C431.503 293.399 431.419 293.265 431.335 293.125C431.346 293.074 431.357 293.024 431.369 292.973C431.397 292.85 431.425 292.727 431.453 292.598C431.514 292.318 431.565 292.032 431.615 291.752C431.716 291.198 431.817 290.637 431.962 290.094C431.974 290.055 431.906 290.043 431.895 290.083C431.778 290.637 431.604 291.181 431.441 291.719C431.363 291.987 431.273 292.251 431.206 292.52C431.184 292.609 431.156 292.705 431.133 292.794C430.517 291.786 429.895 290.783 429.217 289.814C429.273 289.685 429.268 289.545 429.284 289.399C429.307 289.209 429.329 289.024 429.352 288.833C429.402 288.407 429.453 287.982 429.514 287.561C429.637 286.727 429.761 285.903 429.968 285.085C429.979 285.046 429.912 285.035 429.901 285.074C429.693 285.886 429.469 286.699 429.318 287.528C429.24 287.931 429.172 288.34 429.116 288.744C429.088 288.945 429.066 289.153 429.049 289.36C429.044 289.422 429.032 289.483 429.027 289.545C428.819 289.253 428.612 288.957 428.394 288.671C427.733 287.802 427.049 286.951 426.36 286.105C426.332 286.071 426.281 286.11 426.304 286.144C427.52 287.629 428.545 289.27 429.559 290.895C429.749 291.198 429.934 291.506 430.119 291.808C430.058 291.803 429.996 291.791 429.934 291.786C429.693 291.758 429.447 291.741 429.206 291.719C428.719 291.674 428.231 291.629 427.744 291.59C426.769 291.511 425.794 291.45 424.819 291.349C424.78 291.343 424.763 291.41 424.808 291.416C425.794 291.528 426.774 291.685 427.755 291.825C428.237 291.892 428.719 291.959 429.206 292.021C429.542 292.066 429.957 292.161 430.321 292.133C430.702 292.755 431.088 293.377 431.469 293.999C431.385 293.988 431.296 293.993 431.212 293.988C431.049 293.988 430.887 293.988 430.724 293.988C430.422 293.988 430.119 293.988 429.817 293.988C429.189 293.988 428.562 293.999 427.934 293.999C427.889 293.999 427.901 294.066 427.94 294.066C428.579 294.072 429.212 294.105 429.845 294.139C430.147 294.156 430.45 294.172 430.747 294.195C430.898 294.206 431.049 294.217 431.2 294.228C431.335 294.234 431.475 294.262 431.598 294.212C431.923 294.744 432.254 295.271 432.573 295.797C432.87 296.285 433.173 296.772 433.486 297.254C433.8 297.741 434.086 298.296 434.467 298.727C434.489 298.767 434.545 298.744 434.528 298.699Z" fill="#1A2E35"/>
<path d="M431.769 288.256C431.724 288.67 431.612 289.079 431.511 289.483C431.405 289.903 431.281 290.318 431.147 290.727C431.13 290.783 431.209 290.811 431.225 290.749C431.354 290.34 431.466 289.931 431.567 289.516C431.668 289.102 431.73 288.676 431.836 288.261C431.842 288.228 431.774 288.217 431.769 288.256Z" fill="#1A2E35"/>
<path d="M427.529 290.783C427.439 290.693 427.338 290.682 427.215 290.665C427.036 290.637 426.851 290.614 426.671 290.592C426.335 290.547 425.994 290.508 425.652 290.469C424.946 290.385 424.24 290.318 423.534 290.228C423.495 290.222 423.478 290.289 423.523 290.295C424.19 290.374 424.851 290.474 425.512 290.564C425.837 290.609 426.162 290.654 426.487 290.693C426.643 290.71 426.8 290.727 426.957 290.743C427.131 290.76 427.333 290.76 427.495 290.833C427.529 290.844 427.551 290.805 427.529 290.783Z" fill="#1A2E35"/>
<path d="M431.762 296.463C431.431 296.435 431.095 296.424 430.759 296.413C430.591 296.407 430.423 296.402 430.254 296.396C430.176 296.396 430.092 296.391 430.014 296.391C429.913 296.385 429.795 296.396 429.7 296.374C429.655 296.363 429.649 296.447 429.7 296.441C429.795 296.424 429.901 296.447 429.997 296.452C430.086 296.458 430.17 296.463 430.26 296.469C430.428 296.48 430.596 296.491 430.764 296.497C431.095 296.519 431.431 296.536 431.767 296.536C431.801 296.536 431.806 296.469 431.762 296.463Z" fill="#1A2E35"/>
<path d="M433.799 295.018C433.838 294.828 433.872 294.637 433.905 294.452C433.973 294.083 434.04 293.707 434.113 293.337C434.118 293.298 434.057 293.287 434.045 293.326C433.961 293.69 433.883 294.054 433.799 294.413C433.76 294.592 433.715 294.777 433.681 294.956C433.664 295.041 433.648 295.125 433.631 295.209C433.614 295.298 433.586 295.388 433.603 295.478C433.608 295.506 433.653 295.534 433.676 295.5C433.765 295.365 433.771 295.175 433.799 295.018Z" fill="#1A2E35"/>
<path d="M430.354 306.156L430.029 311.495L429.082 327.261H414.639L413.687 311.495L413.367 306.156H430.354Z" fill="#E31E23"/>
<path d="M430.354 306.156L430.029 311.495H413.687L413.367 306.156H430.354Z" fill="#1A2E35"/>
<path d="M431.842 302.374H411.875V307.719H431.842V302.374Z" fill="#E31E23"/>
<path d="M101.484 93.8685L123.669 80.4856C124.239 80.1418 124.99 80.3272 125.335 80.8979L133.639 94.6649C133.986 95.2402 133.798 95.9862 133.227 96.3304L111.042 109.713C110.472 110.057 109.724 109.876 109.377 109.301L101.072 95.5333C100.728 94.9633 100.913 94.2127 101.484 93.8685Z" fill="#E527BB"/>
<path d="M133.283 96.417L111.098 109.8C110.478 110.174 109.667 109.974 109.293 109.353L100.988 95.5859C100.614 94.9654 100.814 94.1551 101.435 93.7805L123.62 80.3975C124.24 80.0232 125.05 80.2233 125.425 80.8445L133.73 94.6115C134.104 95.2331 133.904 96.0427 133.283 96.417ZM101.54 93.9558C101.016 94.2722 100.846 94.9565 101.163 95.4812L109.468 109.248C109.784 109.773 110.469 109.942 110.993 109.626L133.178 96.2429C133.703 95.9265 133.872 95.2422 133.556 94.7175L125.251 80.9498C124.934 80.4251 124.25 80.2557 123.725 80.5722L101.54 93.9551L101.54 93.9558Z" fill="white"/>
<path d="M116.576 93.7935L112.386 103.917L109.959 109.791C110.301 109.932 110.707 109.916 111.049 109.71L133.234 96.3273C133.575 96.1218 133.779 95.7691 133.814 95.4006L127.481 94.812L116.576 93.7935Z" fill="#E527BB"/>
<path d="M133.282 96.4152L111.096 109.798C110.742 110.012 110.3 110.045 109.916 109.886L109.821 109.847L112.288 103.879L116.507 93.6859L127.485 94.7116L133.92 95.3097L133.911 95.4113C133.871 95.8259 133.636 96.2013 133.282 96.4152ZM110.089 109.732C110.39 109.825 110.721 109.787 110.99 109.624L133.176 96.2405C133.447 96.0773 133.635 95.8027 133.693 95.4936L127.466 94.9141L116.636 93.9023L112.476 103.957L110.089 109.732Z" fill="white"/>
<path d="M118.134 96.3912L122.318 86.2705L124.749 80.4013C124.401 80.2633 124.003 80.2815 123.667 80.4843L101.482 93.8668C101.146 94.0696 100.939 94.4166 100.904 94.7851L107.224 95.3754L118.134 96.3912Z" fill="#E527BB"/>
<path d="M118.206 96.4986L100.8 94.8761L100.81 94.7746C100.849 94.3642 101.083 93.992 101.436 93.7785L123.622 80.3956C123.975 80.1825 124.402 80.1497 124.794 80.3047L124.89 80.3425L122.419 86.3085L118.206 96.4986ZM101.027 94.6927L107.241 95.2729L118.075 96.2819L122.23 86.2305L124.62 80.4612C124.317 80.3704 123.996 80.4089 123.727 80.5713L101.542 93.9538C101.273 94.1162 101.085 94.387 101.027 94.6927Z" fill="white"/>
<path d="M163.693 197.162C163.309 196.852 162.71 196.955 162.354 197.394L156.587 204.482C156.23 204.921 156.252 205.527 156.635 205.837L170.2 216.819C170.583 217.129 171.183 217.025 171.539 216.587L177.306 209.498C177.662 209.06 177.64 208.453 177.258 208.143L163.693 197.162Z" fill="#A78BEF"/>
<path d="M172.204 213.159L170.907 214.753C170.686 215.025 170.24 215.029 169.912 214.763L169.842 214.706C169.513 214.44 169.425 214.004 169.646 213.732L170.943 212.138C171.164 211.867 171.61 211.862 171.938 212.129L172.008 212.185C172.337 212.451 172.425 212.888 172.204 213.159Z" fill="#E5E5E4"/>
<path d="M169.766 214.94L169.696 214.884C169.367 214.618 169.292 214.167 169.528 213.876L170.221 213.025L171.482 214.045L170.789 214.897C170.553 215.187 170.095 215.207 169.766 214.94Z" fill="#FD5B68"/>
<path d="M172.184 213.197L171.494 214.046L171.195 213.804L171.886 212.955C172.093 212.7 172.056 212.318 171.816 212.047C171.858 212.071 171.899 212.098 171.938 212.13L172.009 212.187C172.341 212.455 172.42 212.908 172.184 213.197Z" fill="#E5E5E4"/>
<path d="M169.652 214.824C169.67 214.842 169.689 214.858 169.708 214.874C169.688 214.858 169.67 214.841 169.652 214.824Z" fill="#DA3832"/>
<path d="M169.777 214.931L169.706 214.874C169.687 214.858 169.668 214.842 169.651 214.825C169.633 214.808 169.616 214.791 169.6 214.773C169.915 214.951 170.298 214.908 170.505 214.653L171.196 213.805L171.494 214.046L170.804 214.895C170.569 215.184 170.109 215.2 169.777 214.931Z" fill="#FD5B68"/>
<path opacity="0.4" d="M171.448 212.583L170.039 214.316C169.981 214.386 169.869 214.391 169.789 214.326L169.772 214.313C169.692 214.247 169.673 214.137 169.731 214.066L171.14 212.333C171.198 212.263 171.31 212.258 171.39 212.323L171.407 212.337C171.487 212.402 171.506 212.512 171.448 212.583Z" fill="white"/>
<path d="M175.532 209.059L174.235 210.653C174.014 210.924 173.569 210.929 173.24 210.662L173.17 210.606C172.841 210.34 172.753 209.904 172.974 209.632L174.271 208.038C174.492 207.766 174.938 207.762 175.266 208.028L175.336 208.085C175.665 208.351 175.753 208.787 175.532 209.059Z" fill="white"/>
<path d="M173.098 210.84L173.028 210.784C172.699 210.517 172.624 210.066 172.86 209.776L173.553 208.924L174.814 209.945L174.121 210.797C173.885 211.087 173.427 211.106 173.098 210.84Z" fill="#FD5B68"/>
<path d="M175.516 209.096L174.826 209.945L174.527 209.703L175.218 208.855C175.425 208.6 175.388 208.217 175.148 207.947C175.19 207.971 175.231 207.998 175.27 208.029L175.341 208.086C175.673 208.355 175.752 208.807 175.516 209.096Z" fill="#E5E5E4"/>
<path d="M173.109 210.831L173.038 210.774C173.019 210.758 173 210.741 172.983 210.725C172.965 210.707 172.948 210.69 172.932 210.672C173.247 210.85 173.63 210.808 173.837 210.553L174.528 209.704L174.826 209.946L174.136 210.794C173.901 211.083 173.441 211.1 173.109 210.831Z" fill="#FD5B68"/>
<path opacity="0.4" d="M174.78 208.483L173.371 210.215C173.313 210.286 173.201 210.291 173.121 210.226L173.104 210.212C173.024 210.147 173.005 210.037 173.063 209.966L174.472 208.233C174.53 208.163 174.642 208.157 174.722 208.223L174.739 208.237C174.82 208.302 174.838 208.412 174.78 208.483Z" fill="white"/>
<path d="M169.54 211L168.243 212.594C168.022 212.865 167.576 212.87 167.248 212.603L167.178 212.547C166.849 212.281 166.761 211.845 166.982 211.573L168.279 209.979C168.5 209.707 168.945 209.703 169.274 209.969L169.344 210.026C169.673 210.292 169.761 210.728 169.54 211Z" fill="#E5E5E4"/>
<path d="M167.106 212.78L167.036 212.723C166.707 212.457 166.632 212.006 166.868 211.716L167.561 210.864L168.822 211.885L168.129 212.737C167.893 213.027 167.435 213.046 167.106 212.78Z" fill="#FD5B68"/>
<path d="M169.52 211.037L168.83 211.886L168.531 211.645L169.222 210.796C169.429 210.541 169.392 210.159 169.152 209.888C169.194 209.912 169.235 209.939 169.274 209.971L169.345 210.028C169.676 210.296 169.755 210.748 169.52 211.037Z" fill="#E5E5E4"/>
<path d="M166.988 212.666C167.006 212.683 167.025 212.7 167.044 212.715C167.024 212.7 167.006 212.683 166.988 212.666Z" fill="#DA3832"/>
<path d="M167.113 212.773L167.042 212.716C167.023 212.7 167.004 212.683 166.987 212.666C166.969 212.649 166.952 212.632 166.936 212.614C167.251 212.792 167.634 212.75 167.841 212.495L168.532 211.646L168.83 211.888L168.14 212.736C167.905 213.025 167.445 213.041 167.113 212.773Z" fill="#FD5B68"/>
<path opacity="0.4" d="M168.788 210.423L167.379 212.156C167.321 212.227 167.209 212.232 167.129 212.167L167.112 212.153C167.032 212.088 167.013 211.978 167.071 211.907L168.48 210.174C168.538 210.103 168.65 210.098 168.73 210.163L168.747 210.177C168.828 210.242 168.846 210.352 168.788 210.423Z" fill="white"/>
<path d="M172.872 206.898L171.575 208.493C171.354 208.764 170.908 208.769 170.58 208.502L170.51 208.446C170.181 208.18 170.093 207.744 170.314 207.472L171.611 205.878C171.832 205.606 172.278 205.602 172.606 205.868L172.676 205.925C173.005 206.191 173.093 206.627 172.872 206.898Z" fill="#E5E5E4"/>
<path d="M170.43 208.68L170.36 208.623C170.032 208.357 169.956 207.906 170.192 207.616L170.885 206.764L172.146 207.785L171.453 208.637C171.217 208.927 170.759 208.946 170.43 208.68Z" fill="#FD5B68"/>
<path d="M172.852 206.937L172.162 207.786L171.863 207.544L172.554 206.695C172.761 206.44 172.724 206.058 172.484 205.787C172.526 205.811 172.567 205.838 172.606 205.87L172.677 205.927C173.009 206.195 173.087 206.648 172.852 206.937Z" fill="#E5E5E4"/>
<path d="M170.316 208.565C170.334 208.582 170.353 208.598 170.372 208.614C170.352 208.598 170.334 208.582 170.316 208.565Z" fill="#DA3832"/>
<path d="M170.441 208.671L170.37 208.614C170.351 208.598 170.332 208.582 170.315 208.565C170.297 208.548 170.28 208.531 170.264 208.513C170.579 208.691 170.962 208.648 171.169 208.393L171.86 207.545L172.158 207.786L171.468 208.635C171.233 208.924 170.773 208.94 170.441 208.671Z" fill="#FD5B68"/>
<path opacity="0.4" d="M172.12 206.322L170.711 208.055C170.653 208.126 170.541 208.131 170.461 208.066L170.444 208.052C170.364 207.987 170.345 207.877 170.403 207.806L171.812 206.073C171.87 206.002 171.982 205.997 172.062 206.062L172.079 206.076C172.16 206.141 172.178 206.251 172.12 206.322Z" fill="white"/>
<path d="M166.739 208.738L165.442 210.333C165.221 210.604 164.776 210.608 164.447 210.342L164.377 210.286C164.048 210.019 163.96 209.584 164.181 209.312L165.478 207.717C165.699 207.446 166.145 207.442 166.473 207.708L166.543 207.764C166.872 208.031 166.96 208.467 166.739 208.738Z" fill="#E5E5E4"/>
<path d="M164.301 210.52L164.231 210.463C163.903 210.197 163.827 209.746 164.063 209.456L164.756 208.604L166.018 209.625L165.324 210.477C165.088 210.767 164.63 210.786 164.301 210.52Z" fill="#FD5B68"/>
<path d="M166.716 208.777L166.025 209.626L165.726 209.384L166.417 208.535C166.624 208.28 166.587 207.898 166.348 207.628C166.389 207.651 166.431 207.678 166.469 207.71L166.54 207.767C166.872 208.036 166.951 208.488 166.716 208.777Z" fill="#E5E5E4"/>
<path d="M164.308 210.512L164.238 210.455C164.218 210.439 164.199 210.422 164.182 210.406C164.164 210.388 164.148 210.371 164.132 210.353C164.446 210.531 164.829 210.489 165.036 210.234L165.727 209.385L166.026 209.627L165.335 210.475C165.1 210.764 164.64 210.78 164.308 210.512Z" fill="#FD5B68"/>
<path opacity="0.4" d="M165.987 208.163L164.578 209.896C164.52 209.967 164.408 209.972 164.328 209.907L164.311 209.893C164.231 209.828 164.212 209.718 164.27 209.647L165.679 207.914C165.737 207.843 165.849 207.838 165.929 207.903L165.946 207.917C166.027 207.981 166.045 208.092 165.987 208.163Z" fill="white"/>
<path d="M170.071 204.638L168.774 206.233C168.554 206.504 168.108 206.509 167.779 206.242L167.709 206.186C167.38 205.92 167.292 205.484 167.513 205.212L168.81 203.618C169.031 203.346 169.477 203.342 169.805 203.608L169.875 203.665C170.204 203.931 170.292 204.367 170.071 204.638Z" fill="#E5E5E4"/>
<path d="M167.637 206.419L167.567 206.363C167.239 206.097 167.163 205.646 167.399 205.355L168.092 204.504L169.353 205.524L168.66 206.376C168.424 206.666 167.966 206.685 167.637 206.419Z" fill="#FD5B68"/>
<path d="M170.052 204.677L169.361 205.526L169.062 205.284L169.753 204.435C169.96 204.18 169.923 203.798 169.684 203.527C169.725 203.551 169.767 203.578 169.805 203.61L169.876 203.667C170.208 203.935 170.287 204.388 170.052 204.677Z" fill="#E5E5E4"/>
<path d="M167.52 206.304C167.537 206.322 167.556 206.338 167.575 206.354C167.556 206.338 167.537 206.321 167.52 206.304Z" fill="#DA3832"/>
<path d="M167.644 206.411L167.574 206.354C167.554 206.338 167.535 206.322 167.518 206.305C167.5 206.288 167.484 206.27 167.467 206.252C167.782 206.431 168.165 206.388 168.372 206.133L169.063 205.284L169.362 205.526L168.671 206.375C168.436 206.664 167.976 206.68 167.644 206.411Z" fill="#FD5B68"/>
<path opacity="0.4" d="M169.323 204.062L167.914 205.795C167.856 205.866 167.744 205.871 167.664 205.806L167.647 205.792C167.567 205.727 167.548 205.617 167.606 205.546L169.015 203.813C169.073 203.742 169.185 203.737 169.265 203.803L169.282 203.817C169.363 203.881 169.381 203.992 169.323 204.062Z" fill="white"/>
<path d="M164.009 206.529L162.712 208.124C162.491 208.395 162.045 208.399 161.716 208.133L161.647 208.077C161.318 207.81 161.23 207.375 161.451 207.103L162.747 205.508C162.968 205.237 163.414 205.233 163.743 205.499L163.813 205.555C164.142 205.822 164.229 206.258 164.009 206.529Z" fill="#E5E5E4"/>
<path d="M161.575 208.309L161.505 208.253C161.176 207.987 161.1 207.536 161.336 207.245L162.03 206.394L163.291 207.415L162.598 208.266C162.362 208.557 161.903 208.576 161.575 208.309Z" fill="#FD5B68"/>
<path d="M163.993 206.567L163.302 207.416L163.004 207.174L163.694 206.326C163.902 206.071 163.865 205.688 163.625 205.418C163.667 205.441 163.708 205.469 163.747 205.5L163.817 205.557C164.149 205.826 164.228 206.278 163.993 206.567Z" fill="#E5E5E4"/>
<path d="M161.457 208.196C161.475 208.213 161.493 208.229 161.513 208.245C161.493 208.229 161.474 208.213 161.457 208.196Z" fill="#DA3832"/>
<path d="M161.586 208.301L161.515 208.244C161.495 208.228 161.477 208.212 161.459 208.195C161.441 208.178 161.425 208.161 161.409 208.143C161.724 208.321 162.106 208.278 162.314 208.023L163.004 207.175L163.303 207.416L162.612 208.265C162.377 208.554 161.918 208.57 161.586 208.301Z" fill="#FD5B68"/>
<path opacity="0.4" d="M163.261 205.953L161.851 207.685C161.794 207.756 161.682 207.761 161.601 207.696L161.585 207.682C161.504 207.617 161.486 207.507 161.543 207.436L162.953 205.703C163.01 205.632 163.122 205.627 163.203 205.693L163.22 205.707C163.3 205.772 163.318 205.882 163.261 205.953Z" fill="white"/>
<path d="M167.345 202.429L166.048 204.024C165.827 204.295 165.381 204.3 165.052 204.033L164.982 203.977C164.654 203.711 164.566 203.275 164.787 203.003L166.083 201.409C166.304 201.137 166.75 201.133 167.079 201.399L167.149 201.456C167.478 201.722 167.566 202.158 167.345 202.429Z" fill="#E5E5E4"/>
<path d="M164.911 204.209L164.841 204.153C164.512 203.886 164.436 203.435 164.672 203.145L165.366 202.293L166.627 203.314L165.934 204.166C165.697 204.456 165.239 204.475 164.911 204.209Z" fill="#FD5B68"/>
<path d="M167.329 202.467L166.638 203.316L166.34 203.074L167.03 202.226C167.238 201.97 167.201 201.588 166.961 201.318C167.003 201.341 167.044 201.369 167.083 201.4L167.153 201.457C167.485 201.726 167.564 202.178 167.329 202.467Z" fill="#E5E5E4"/>
<path d="M164.793 204.095C164.811 204.112 164.829 204.129 164.849 204.144C164.829 204.128 164.81 204.112 164.793 204.095Z" fill="#DA3832"/>
<path d="M164.921 204.202L164.851 204.145C164.831 204.129 164.813 204.112 164.795 204.095C164.777 204.078 164.761 204.061 164.745 204.043C165.06 204.221 165.442 204.179 165.65 203.924L166.34 203.075L166.639 203.317L165.948 204.165C165.713 204.454 165.253 204.47 164.921 204.202Z" fill="#FD5B68"/>
<path opacity="0.4" d="M166.597 201.852L165.187 203.585C165.13 203.656 165.018 203.661 164.937 203.596L164.921 203.582C164.84 203.517 164.822 203.407 164.879 203.336L166.289 201.603C166.346 201.532 166.458 201.527 166.539 201.593L166.556 201.606C166.636 201.671 166.654 201.781 166.597 201.852Z" fill="white"/>
<path d="M161.282 204.32L159.985 205.914C159.764 206.185 159.319 206.19 158.99 205.923L158.92 205.867C158.591 205.601 158.503 205.165 158.724 204.893L160.021 203.299C160.242 203.027 160.688 203.023 161.016 203.289L161.086 203.346C161.415 203.612 161.503 204.048 161.282 204.32Z" fill="#E5E5E4"/>
<path d="M158.848 206.1L158.778 206.044C158.449 205.777 158.374 205.326 158.61 205.036L159.303 204.184L160.564 205.205L159.871 206.057C159.635 206.347 159.177 206.366 158.848 206.1Z" fill="#FD5B68"/>
<path d="M161.266 204.356L160.576 205.205L160.277 204.963L160.968 204.115C161.175 203.86 161.138 203.477 160.898 203.207C160.94 203.231 160.981 203.258 161.02 203.289L161.091 203.346C161.423 203.615 161.502 204.067 161.266 204.356Z" fill="#E5E5E4"/>
<path d="M158.734 205.984C158.752 206.001 158.771 206.018 158.79 206.033C158.77 206.017 158.752 206.001 158.734 205.984Z" fill="#DA3832"/>
<path d="M158.859 206.091L158.788 206.034C158.769 206.018 158.75 206.001 158.733 205.985C158.715 205.967 158.698 205.95 158.682 205.932C158.997 206.11 159.38 206.068 159.587 205.813L160.278 204.964L160.576 205.206L159.886 206.054C159.65 206.343 159.191 206.36 158.859 206.091Z" fill="#FD5B68"/>
<path opacity="0.4" d="M160.534 203.742L159.125 205.475C159.067 205.546 158.955 205.551 158.875 205.485L158.858 205.472C158.778 205.407 158.759 205.297 158.817 205.225L160.226 203.493C160.284 203.422 160.396 203.417 160.476 203.482L160.493 203.496C160.574 203.561 160.592 203.671 160.534 203.742Z" fill="white"/>
<path d="M164.618 200.219L163.321 201.813C163.1 202.085 162.654 202.089 162.326 201.823L162.256 201.766C161.927 201.5 161.839 201.064 162.06 200.793L163.357 199.198C163.578 198.927 164.024 198.922 164.352 199.189L164.422 199.245C164.751 199.511 164.839 199.948 164.618 200.219Z" fill="#E5E5E4"/>
<path d="M162.184 201.999L162.114 201.943C161.785 201.677 161.71 201.226 161.946 200.935L162.639 200.084L163.9 201.104L163.207 201.956C162.971 202.246 162.513 202.265 162.184 201.999Z" fill="#FD5B68"/>
<path d="M164.595 200.257L163.904 201.105L163.605 200.864L164.296 200.015C164.503 199.76 164.466 199.378 164.227 199.107C164.268 199.131 164.31 199.158 164.348 199.19L164.419 199.247C164.751 199.515 164.83 199.968 164.595 200.257Z" fill="#E5E5E4"/>
<path d="M162.187 201.991L162.117 201.934C162.097 201.918 162.078 201.902 162.061 201.885C162.043 201.868 162.027 201.85 162.01 201.832C162.325 202.01 162.708 201.968 162.915 201.713L163.606 200.864L163.905 201.106L163.214 201.955C162.979 202.244 162.519 202.26 162.187 201.991Z" fill="#FD5B68"/>
<path opacity="0.4" d="M163.87 199.643L162.461 201.376C162.403 201.446 162.291 201.451 162.211 201.386L162.194 201.373C162.114 201.308 162.095 201.198 162.153 201.126L163.562 199.393C163.62 199.323 163.732 199.318 163.812 199.383L163.829 199.397C163.91 199.461 163.928 199.571 163.87 199.643Z" fill="white"/>
<path d="M159.582 200.807L159.426 201L174.368 213.116L174.525 212.924L159.582 200.807Z" fill="white"/>
<path d="M177.652 186.437L163.204 192.442C162.617 192.686 162.338 193.36 162.582 193.946L171.527 215.467C171.77 216.053 172.444 216.33 173.031 216.086L187.479 210.081C188.067 209.836 188.345 209.163 188.101 208.578L179.156 187.057C178.913 186.47 178.239 186.193 177.652 186.437Z" fill="#E527BB"/>
<path d="M177.88 186.977L163.433 192.982C163.144 193.101 163.007 193.433 163.127 193.72L172.072 215.241C172.191 215.528 172.523 215.665 172.811 215.545L187.258 209.54C187.547 209.42 187.683 209.089 187.564 208.802L178.619 187.281C178.5 186.994 178.168 186.857 177.88 186.977Z" fill="white"/>
<path d="M173.853 187.962L174.351 189.16C174.444 189.383 174.338 189.64 174.114 189.733L167.896 192.317C167.672 192.41 167.416 192.304 167.323 192.081L166.825 190.883L166.617 190.969L167.131 192.206C167.263 192.522 167.626 192.672 167.944 192.54L174.239 189.923C174.556 189.792 174.706 189.428 174.575 189.112L174.061 187.875L173.853 187.962Z" fill="#A78BEF"/>
<path d="M169.83 188.202C169.517 188.333 169.367 188.693 169.498 189.006L169.911 190L171.047 189.528L170.634 188.534C170.504 188.221 170.144 188.072 169.83 188.202ZM170.155 188.983C170.023 189.038 169.872 188.976 169.818 188.845C169.763 188.713 169.826 188.562 169.957 188.508C170.089 188.453 170.24 188.515 170.294 188.647C170.349 188.778 170.286 188.929 170.155 188.983Z" fill="#A78BEF"/>
<path d="M174.188 188.223L166.772 191.305C166.615 191.37 166.434 191.296 166.368 191.139C166.303 190.981 166.378 190.801 166.535 190.735L173.951 187.653C174.108 187.588 174.289 187.662 174.354 187.819C174.42 187.977 174.345 188.157 174.188 188.223Z" fill="#A78BEF"/>
<path d="M172.183 190.87L170.215 191.688C170.198 191.695 170.179 191.687 170.171 191.67L170.025 191.317C170.018 191.3 170.025 191.28 170.043 191.273L172.01 190.455C172.027 190.448 172.047 190.456 172.054 190.473L172.201 190.827C172.208 190.844 172.2 190.863 172.183 190.87Z" fill="#A78BEF"/>
<path d="M173.579 197.021C174.864 196.487 175.473 195.015 174.94 193.733C174.407 192.451 172.934 191.845 171.65 192.378C170.365 192.912 169.756 194.384 170.289 195.666C170.822 196.948 172.295 197.555 173.579 197.021Z" fill="#A78BEF"/>
<path d="M171.285 194.902L172.135 194.549L171.824 193.8C171.755 193.635 171.834 193.446 171.999 193.377C172.164 193.308 172.354 193.386 172.423 193.551L172.734 194.3L173.583 193.947C173.749 193.878 173.938 193.956 174.007 194.121C174.075 194.286 173.997 194.475 173.832 194.544L172.982 194.897L173.293 195.646C173.362 195.811 173.283 196 173.118 196.069C172.953 196.138 172.763 196.06 172.694 195.895L172.383 195.146L171.534 195.499C171.368 195.568 171.179 195.49 171.11 195.325C171.042 195.16 171.12 194.971 171.285 194.902Z" fill="white"/>
<path d="M170.515 199.938L169.11 200.522C168.858 200.627 168.737 200.916 168.842 201.169L169.425 202.571C169.53 202.823 169.82 202.943 170.073 202.837L171.477 202.254C171.73 202.149 171.85 201.859 171.745 201.606L171.163 200.205C171.058 199.952 170.768 199.833 170.515 199.938Z" fill="#A78BEF"/>
<path d="M180.135 196.607L173.02 199.564C172.953 199.592 172.921 199.669 172.949 199.736C172.977 199.803 173.055 199.835 173.122 199.807L180.236 196.85C180.304 196.822 180.336 196.745 180.308 196.678C180.28 196.611 180.203 196.579 180.135 196.607Z" fill="#D7E0F7"/>
<path d="M178.813 198.25L175.11 199.789C175.043 199.817 175.011 199.895 175.039 199.962C175.067 200.029 175.144 200.061 175.212 200.033L178.914 198.494C178.982 198.466 179.013 198.389 178.986 198.322C178.958 198.254 178.881 198.222 178.813 198.25Z" fill="#D7E0F7"/>
<path d="M170.534 200.456C170.437 200.873 170.34 201.29 170.243 201.708C170.02 201.624 169.797 201.54 169.574 201.457C169.528 201.62 169.483 201.783 169.437 201.946C169.783 202.012 170.13 202.079 170.477 202.145C170.67 201.628 170.862 201.111 171.055 200.594C170.882 200.548 170.708 200.502 170.534 200.456Z" fill="#E527BB"/>
<path d="M171.851 203.148L170.446 203.731C170.194 203.836 170.073 204.126 170.178 204.379L170.761 205.78C170.866 206.033 171.156 206.152 171.409 206.047L172.813 205.463C173.066 205.358 173.186 205.069 173.081 204.816L172.498 203.414C172.394 203.162 172.104 203.042 171.851 203.148Z" fill="#A78BEF"/>
<path d="M181.467 199.816L174.353 202.773C174.285 202.802 174.253 202.879 174.281 202.946C174.309 203.013 174.387 203.045 174.454 203.017L181.568 200.06C181.636 200.032 181.668 199.955 181.64 199.887C181.612 199.82 181.535 199.788 181.467 199.816Z" fill="#D7E0F7"/>
<path d="M180.153 201.46L176.45 202.999C176.383 203.027 176.351 203.104 176.379 203.171C176.407 203.238 176.484 203.27 176.551 203.242L180.254 201.703C180.322 201.675 180.353 201.598 180.325 201.531C180.297 201.463 180.22 201.432 180.153 201.46Z" fill="#D7E0F7"/>
<path d="M171.866 203.665C171.769 204.082 171.672 204.499 171.575 204.917C171.352 204.833 171.129 204.749 170.906 204.666C170.86 204.829 170.815 204.992 170.769 205.155C171.115 205.221 171.462 205.288 171.809 205.354C172.002 204.837 172.194 204.32 172.387 203.803C172.214 203.757 172.04 203.711 171.866 203.665Z" fill="#E527BB"/>
<path d="M173.186 206.357L171.782 206.941C171.53 207.046 171.409 207.336 171.514 207.588L172.097 208.99C172.202 209.242 172.492 209.362 172.745 209.257L174.149 208.673C174.402 208.568 174.522 208.278 174.417 208.025L173.834 206.623C173.729 206.371 173.44 206.252 173.186 206.357Z" fill="#A78BEF"/>
<path d="M182.799 203.026L175.685 205.983C175.617 206.011 175.585 206.088 175.613 206.155C175.641 206.223 175.719 206.254 175.786 206.227L182.9 203.269C182.968 203.241 183 203.164 182.972 203.097C182.944 203.029 182.867 202.998 182.799 203.026Z" fill="#D7E0F7"/>
<path d="M181.477 204.67L177.774 206.209C177.707 206.237 177.675 206.314 177.703 206.381C177.731 206.449 177.808 206.48 177.876 206.452L181.578 204.913C181.646 204.885 181.678 204.808 181.65 204.741C181.622 204.674 181.545 204.642 181.477 204.67Z" fill="#D7E0F7"/>
<path d="M173.202 206.875C173.105 207.292 173.008 207.709 172.911 208.126C172.688 208.043 172.465 207.959 172.242 207.875C172.196 208.038 172.151 208.201 172.105 208.364C172.451 208.431 172.798 208.497 173.145 208.564C173.338 208.047 173.53 207.53 173.723 207.013C173.55 206.967 173.376 206.921 173.202 206.875Z" fill="#E527BB"/>
<path d="M174.515 209.567L173.11 210.15C172.858 210.255 172.737 210.545 172.842 210.798L173.425 212.199C173.53 212.451 173.82 212.571 174.073 212.466L175.477 211.882C175.73 211.777 175.85 211.488 175.745 211.235L175.163 209.833C175.058 209.581 174.768 209.461 174.515 209.567Z" fill="#A78BEF"/>
<path d="M184.135 206.235L177.02 209.192C176.953 209.22 176.921 209.298 176.949 209.365C176.977 209.432 177.055 209.464 177.122 209.436L184.236 206.479C184.304 206.451 184.336 206.373 184.308 206.306C184.28 206.239 184.203 206.207 184.135 206.235Z" fill="#D7E0F7"/>
<path d="M182.821 207.879L179.118 209.418C179.051 209.446 179.019 209.523 179.047 209.59C179.075 209.658 179.152 209.689 179.219 209.661L182.922 208.122C182.99 208.094 183.021 208.017 182.993 207.95C182.966 207.883 182.888 207.85 182.821 207.879Z" fill="#D7E0F7"/>
<path d="M174.534 210.084C174.437 210.501 174.34 210.919 174.243 211.336C174.02 211.252 173.797 211.168 173.574 211.085C173.528 211.248 173.483 211.411 173.437 211.574C173.783 211.64 174.13 211.707 174.477 211.774C174.67 211.256 174.862 210.74 175.055 210.222C174.882 210.176 174.708 210.13 174.534 210.084Z" fill="#E527BB"/>
<path d="M177.877 186.978C183.613 201.739 183.987 210.091 172.068 215.242C172.187 215.53 172.519 215.666 172.807 215.546L187.254 209.541C187.543 209.421 187.679 209.09 187.56 208.803L178.615 187.282C178.497 186.995 178.165 186.858 177.877 186.978Z" fill="#EBEDF7"/>
</g>
<defs>
<clipPath id="clip0_1267_13532">
<rect width="542.64" height="328.79" fill="white"/>
</clipPath>
<clipPath id="clip1_1267_13532">
<rect width="9.67157" height="33.4109" fill="white" transform="matrix(-0.253312 0.967385 0.967385 0.253312 184.656 205.479)"/>
</clipPath>
</defs>
</svg>
