<svg width="543" height="329" viewBox="0 0 543 329" fill="none" xmlns="http://www.w3.org/2000/svg">
<g clip-path="url(#clip0_1267_13532)">
<path opacity="0.2" d="M78.788 327.839C41.4882 290.535 -9.49424 252.012 10.4949 193.818C23.6478 155.541 55.8804 144.88 82.6859 121.276C95.9087 109.631 87.5932 92.6757 87.3433 75.8481C86.7836 32.7513 139.135 -0.687543 187.269 0.010739C239.401 0.768031 261.969 48.9102 305.705 51.4968C322.876 51.7426 338.257 42.4781 353.449 35.1314C398.465 13.3371 469.906 27.2339 473.514 79.9296C474.444 108.392 439.183 154.174 474.514 169.143C502.668 181.072 531.113 185.469 536.19 228.133C542.837 283.976 507.716 314.621 461.971 329L78.788 327.839Z" fill="#999999"/>
<path d="M468.071 280.758C466.717 279.433 464.969 277.831 462.901 278.403C460.954 278.942 460.211 281.064 459.861 282.836C459.415 285.118 459.065 287.419 458.701 289.716C458.337 292.036 457.992 294.357 457.657 296.678C457.468 297.989 457.283 299.299 457.099 300.61C457.007 301.266 456.914 301.921 456.827 302.577C456.74 303.222 456.628 303.863 456.594 304.514C456.584 304.723 456.91 304.752 456.953 304.553C457.206 303.46 457.308 302.319 457.468 301.212C457.628 300.096 457.793 298.979 457.953 297.862C458.279 295.644 458.614 293.43 458.949 291.211C459.284 288.992 459.628 286.778 459.983 284.564C460.284 282.686 460.425 280.355 462.09 279.112C463.003 278.433 464.168 278.423 465.202 278.821C466.299 279.239 467.173 280.025 468.028 280.802C468.057 280.826 468.096 280.787 468.071 280.758Z" fill="#1A2E35"/>
<path d="M466.222 279.404C466.222 279.404 463.455 278.408 462.091 280.428C460.726 282.448 462.358 287.579 474.947 290.473C474.947 290.473 474.617 284.977 471.917 279.093C469.218 273.209 464.411 275.437 466.222 279.404Z" fill="#3CAA18"/>
<path d="M474.223 289.633C474.048 289.279 473.806 288.944 473.592 288.614C473.383 288.288 473.17 287.968 472.956 287.643C472.796 287.4 472.631 287.162 472.466 286.924C472.475 286.866 472.48 286.803 472.49 286.745C472.504 286.638 472.519 286.526 472.534 286.419C472.563 286.181 472.597 285.948 472.636 285.71C472.67 285.477 472.708 285.239 472.752 285.006C472.796 284.769 472.82 284.487 472.917 284.264C472.932 284.225 472.869 284.21 472.864 284.254C472.849 284.395 472.791 284.535 472.752 284.671C472.723 284.778 472.694 284.885 472.67 284.992C472.606 285.23 472.548 285.472 472.495 285.71C472.446 285.934 472.403 286.157 472.364 286.38C472.344 286.487 472.33 286.594 472.315 286.706C472.092 286.385 471.864 286.07 471.626 285.759C470.956 284.88 470.252 284.031 469.519 283.205C469.523 283.195 469.528 283.191 469.528 283.181C469.591 281.86 469.562 280.55 469.854 279.248C469.863 279.214 469.81 279.195 469.8 279.229C469.523 280.448 469.252 281.729 469.329 282.992C469.067 282.7 468.8 282.409 468.533 282.118C467.921 281.457 467.295 280.812 466.659 280.176C466.635 280.151 466.591 280.185 466.615 280.215C467.679 281.355 468.684 282.545 469.664 283.759C468.902 283.734 468.125 283.788 467.363 283.846C466.509 283.909 465.659 284.021 464.814 284.137C464.78 284.142 464.79 284.2 464.824 284.191C465.669 284.065 466.518 283.997 467.368 283.963C468.188 283.929 469.004 283.967 469.824 283.963C470.354 284.618 470.878 285.283 471.398 285.948C471.359 285.948 471.32 285.948 471.281 285.948C471.087 285.943 470.893 285.943 470.703 285.943C470.32 285.948 469.936 285.977 469.557 286.011C468.776 286.079 467.999 286.186 467.232 286.361C467.198 286.371 467.208 286.419 467.242 286.414C468.014 286.327 468.79 286.254 469.567 286.225C469.936 286.21 470.31 286.21 470.679 286.21C470.873 286.21 471.063 286.21 471.257 286.21C471.373 286.21 471.475 286.225 471.572 286.181C471.912 286.623 472.252 287.06 472.587 287.502C472.854 287.851 473.116 288.206 473.378 288.565C473.641 288.929 473.883 289.332 474.175 289.672C474.199 289.692 474.238 289.662 474.223 289.633Z" fill="#1A2E35"/>
<path d="M467.426 282.263C466.984 282.19 466.528 282.2 466.081 282.2C465.63 282.2 465.183 282.215 464.732 282.229C464.693 282.229 464.693 282.288 464.737 282.288C465.193 282.254 465.649 282.249 466.106 282.254C466.547 282.258 466.989 282.302 467.426 282.292C467.436 282.288 467.441 282.268 467.426 282.263Z" fill="#1A2E35"/>
<path d="M471.379 283.278C471.432 282.846 471.486 282.414 471.578 281.992C471.587 281.953 471.529 281.938 471.524 281.982C471.461 282.404 471.379 282.827 471.316 283.249C471.286 283.463 471.257 283.671 471.228 283.885C471.204 284.079 471.16 284.288 471.175 284.487C471.18 284.526 471.238 284.526 471.248 284.492C471.301 284.303 471.296 284.089 471.311 283.895C471.33 283.691 471.354 283.482 471.379 283.278Z" fill="#1A2E35"/>
<path d="M470.547 278.515C470.435 278.933 470.329 279.355 470.251 279.782C470.212 279.996 470.178 280.215 470.149 280.433C470.12 280.642 470.081 280.86 470.105 281.069C470.105 281.084 470.134 281.088 470.139 281.069C470.202 280.875 470.212 280.666 470.241 280.462C470.27 280.253 470.299 280.045 470.338 279.836C470.416 279.399 470.494 278.962 470.605 278.53C470.61 278.501 470.557 278.481 470.547 278.515Z" fill="#1A2E35"/>
<path d="M454.152 304.048C454.084 303.256 454.006 302.465 453.923 301.673C453.758 300.105 453.564 298.542 453.355 296.979C453.147 295.42 452.948 293.857 452.695 292.308C452.579 291.594 452.462 290.866 452.215 290.187C452.001 289.599 451.651 289.07 451.04 288.861C449.559 288.351 448.559 289.886 447.962 290.973C447.942 291.007 447.991 291.031 448.01 291.002C448.369 290.488 449.36 289.041 450.481 289.109C451.239 289.152 451.841 289.691 452.205 291.575C453.108 296.275 453.924 305.805 454.021 306.427C454.069 306.757 454.302 306.742 454.307 306.388C454.312 305.606 454.22 304.824 454.152 304.048Z" fill="#1A2E35"/>
<path d="M448.36 290.386C448.36 290.386 449.657 285.812 446.792 288.099C442.029 291.905 441.859 300.183 441.859 300.183C441.859 300.183 450.327 295.265 451.38 292.022C452.953 287.186 448.36 290.386 448.36 290.386Z" fill="#3CAA18"/>
<path d="M449.961 292.629C449.296 292.765 448.621 292.852 447.951 292.949C447.635 292.993 447.315 293.041 446.999 293.085C446.786 293.114 446.567 293.134 446.354 293.163C446.985 292.294 447.621 291.43 448.228 290.541C448.252 290.507 448.199 290.473 448.169 290.497C447.665 291.007 447.203 291.561 446.757 292.129C446.63 291.774 446.504 291.42 446.383 291.065C446.237 290.658 446.082 290.25 445.98 289.827C445.97 289.793 445.917 289.808 445.926 289.842C446.043 290.26 446.125 290.687 446.237 291.109C446.344 291.517 446.47 291.915 446.611 292.308C446.3 292.711 446.004 293.124 445.713 293.542C445.567 293.129 445.388 292.731 445.256 292.308C445.247 292.274 445.188 292.289 445.203 292.323C445.354 292.789 445.436 293.27 445.577 293.736C445.383 294.017 445.188 294.304 445.004 294.59C444.664 295.119 444.339 295.658 444.023 296.197C443.975 296.226 443.941 296.265 443.95 296.323C443.416 297.251 442.907 298.188 442.407 299.135C442.387 299.169 442.441 299.193 442.455 299.164C442.96 298.227 443.518 297.319 444.101 296.421H444.106C444.169 296.387 444.305 296.382 444.383 296.367C444.48 296.348 444.577 296.323 444.674 296.304C444.892 296.255 445.111 296.202 445.329 296.144C445.757 296.037 446.184 295.935 446.621 295.862C446.655 295.857 446.64 295.799 446.606 295.809C446.092 295.906 445.577 295.964 445.062 296.022C444.819 296.052 444.572 296.081 444.329 296.12C444.319 296.12 444.305 296.124 444.295 296.124C444.601 295.663 444.907 295.202 445.222 294.75C445.528 294.304 445.844 293.862 446.164 293.425C446.456 293.386 446.747 293.309 447.038 293.25C447.368 293.187 447.694 293.124 448.019 293.061C448.674 292.93 449.325 292.784 449.985 292.677C450.014 292.677 450 292.624 449.961 292.629Z" fill="#1A2E35"/>
<path d="M444.873 293.08C444.834 292.959 444.795 292.838 444.756 292.716C444.674 292.464 444.616 292.211 444.562 291.949C444.557 291.915 444.499 291.93 444.509 291.964C444.562 292.221 444.625 292.478 444.684 292.736C444.742 292.988 444.805 293.255 444.902 293.498C444.926 293.556 445.019 293.532 444.999 293.469C444.965 293.338 444.917 293.211 444.873 293.08Z" fill="#1A2E35"/>
<path d="M450.833 291.57C450.445 291.629 450.056 291.658 449.668 291.692C449.275 291.726 448.891 291.779 448.503 291.837C448.483 291.842 448.483 291.871 448.503 291.871C448.891 291.842 449.28 291.813 449.668 291.765C450.056 291.716 450.44 291.658 450.833 291.629C450.872 291.624 450.867 291.566 450.833 291.57Z" fill="#1A2E35"/>
<path d="M460.385 298.26C460.234 294.896 460.021 291.536 459.681 288.181C459.511 286.511 459.322 284.841 459.089 283.181C458.86 281.554 458.579 279.923 458.122 278.34C457.778 277.127 457.321 275.913 456.511 274.927C455.714 273.956 454.535 273.349 453.258 273.505C451.787 273.689 450.597 274.616 449.573 275.621C448.422 276.753 447.369 277.986 446.3 279.2C446.029 279.505 445.762 279.816 445.499 280.122C445.475 280.151 445.519 280.19 445.538 280.161C446.582 278.962 447.665 277.801 448.796 276.69C449.845 275.66 450.922 274.539 452.374 274.112C453.044 273.912 453.772 273.859 454.452 274.063C455.001 274.228 455.476 274.553 455.87 274.961C456.685 275.811 457.147 276.961 457.472 278.073C458.375 281.166 458.7 284.409 459.035 287.608C459.375 290.857 459.608 294.109 459.768 297.367C459.933 300.644 460.06 303.926 460.375 307.194C460.414 307.597 460.467 308 460.516 308.403C460.55 308.674 460.972 308.674 460.948 308.393C460.691 305.023 460.535 301.644 460.385 298.26Z" fill="#1A2E35"/>
<path d="M449.389 275.995C449.389 275.995 451.311 272.437 449.039 271.296C446.767 270.155 439.169 278.641 436.945 291.046C436.945 291.046 449.224 285.613 453.389 280.2C457.565 274.791 452.836 273.597 449.389 275.995Z" fill="#3CAA18"/>
<path d="M451.193 278.889C449.814 278.894 448.435 278.782 447.056 278.797C447.313 278.501 447.571 278.204 447.833 277.908C448.192 277.5 448.605 277.107 448.911 276.656C448.93 276.627 448.886 276.588 448.862 276.607C448.479 276.908 448.153 277.301 447.818 277.656C447.474 278.025 447.129 278.394 446.784 278.763C446.255 279.336 445.74 279.913 445.226 280.496C445.226 280.438 445.226 280.384 445.226 280.331C445.226 280.088 445.226 279.845 445.226 279.607C445.231 279.141 445.236 278.67 445.24 278.204C445.25 277.258 445.245 276.301 445.313 275.354C445.318 275.316 445.26 275.321 445.255 275.354C445.187 276.306 445.09 277.253 445.046 278.204C445.022 278.67 445.012 279.141 445.007 279.607C445.002 279.85 445.002 280.093 445.002 280.331C445.002 280.462 444.998 280.603 445.007 280.739C444.925 280.831 444.842 280.918 444.765 281.011C443.662 282.268 442.619 283.569 441.599 284.895C441.599 284.822 441.589 284.749 441.58 284.676C441.565 284.53 441.546 284.385 441.531 284.239C441.497 283.924 441.453 283.608 441.405 283.292C441.361 282.996 441.313 282.7 441.264 282.404C441.206 282.074 441.128 281.734 441.104 281.399C441.099 281.36 441.041 281.365 441.05 281.409C441.123 281.739 441.133 282.084 441.167 282.419C441.196 282.72 441.225 283.025 441.25 283.331C441.279 283.637 441.303 283.938 441.337 284.244C441.351 284.39 441.366 284.535 441.381 284.681C441.39 284.754 441.395 284.827 441.41 284.899C441.424 284.997 441.439 285.006 441.468 285.074C441.293 285.302 441.118 285.531 440.944 285.759C440.249 286.681 439.565 287.613 438.88 288.541C438.861 288.57 438.9 288.609 438.919 288.58C439.565 287.735 440.235 286.905 440.91 286.084C441.415 286.104 441.929 286.07 442.434 286.06C442.968 286.05 443.497 286.05 444.031 286.045C444.07 286.045 444.065 285.987 444.031 285.987C443.497 285.997 442.968 286.006 442.434 286.006C441.949 286.006 441.453 285.982 440.968 286.011C441.56 285.288 442.162 284.574 442.764 283.856C442.983 283.593 443.206 283.336 443.425 283.074C443.624 283.118 443.837 283.093 444.041 283.093C444.284 283.093 444.527 283.093 444.769 283.093C445.221 283.093 445.677 283.084 446.129 283.074C447.066 283.059 448.003 283.03 448.94 283.025C448.979 283.025 448.974 282.967 448.94 282.967C448.003 282.957 447.061 282.914 446.124 282.889C445.672 282.88 445.216 282.865 444.76 282.856C444.517 282.851 444.274 282.851 444.031 282.846C443.896 282.846 443.75 282.836 443.614 282.841C444.129 282.229 444.643 281.617 445.163 281.006C445.177 280.996 445.187 280.986 445.192 280.972C445.697 280.379 446.197 279.787 446.707 279.195C446.775 279.112 446.847 279.035 446.915 278.952C448.348 278.996 449.775 278.904 451.202 278.933C451.231 278.947 451.231 278.889 451.193 278.889Z" fill="#1A2E35"/>
<path d="M450.493 281.326C450.382 281.326 450.27 281.326 450.158 281.331C450.124 281.331 450.124 281.38 450.158 281.384C450.27 281.384 450.382 281.384 450.493 281.389C450.532 281.384 450.527 281.326 450.493 281.326Z" fill="#1A2E35"/>
<path d="M449.747 281.331C449.305 281.326 448.863 281.317 448.421 281.302C448.198 281.297 447.979 281.287 447.756 281.283C447.557 281.278 447.334 281.244 447.14 281.287C447.12 281.292 447.12 281.321 447.14 281.326C447.329 281.385 447.557 281.365 447.756 281.37C447.975 281.375 448.198 281.375 448.416 281.38C448.858 281.385 449.3 281.385 449.742 281.385C449.786 281.389 449.781 281.331 449.747 281.331Z" fill="#1A2E35"/>
<path d="M445.887 285.477C444.989 285.351 444.081 285.225 443.173 285.234C443.159 285.234 443.164 285.254 443.173 285.254C444.076 285.341 444.979 285.39 445.873 285.535C445.907 285.535 445.921 285.482 445.887 285.477Z" fill="#1A2E35"/>
<path d="M442.199 281.525C442.189 281.447 442.179 281.365 442.169 281.287C442.145 281.108 442.116 280.933 442.092 280.753C442.038 280.418 441.98 280.078 441.917 279.743C441.912 279.714 441.859 279.719 441.864 279.753C441.907 280.098 441.941 280.447 441.975 280.797C441.99 280.967 442.004 281.137 442.019 281.311C442.034 281.467 442.019 281.656 442.087 281.797C442.111 281.85 442.194 281.826 442.208 281.778C442.228 281.695 442.208 281.612 442.199 281.525Z" fill="#1A2E35"/>
<path d="M460.263 271.427C459.822 270.611 459.263 269.529 458.166 269.597C457.258 269.655 456.85 270.577 456.661 271.34C456.064 273.704 456.02 276.195 455.904 278.617C455.656 283.734 455.437 288.856 455.403 293.983C455.394 295.406 455.399 296.824 455.413 298.246C455.428 299.693 455.423 301.149 455.515 302.596C455.525 302.732 455.729 302.727 455.729 302.591C455.738 301.353 455.695 300.11 455.69 298.872C455.685 297.663 455.695 296.455 455.714 295.246C455.753 292.799 455.821 290.347 455.908 287.9C456.001 285.468 456.107 283.035 456.209 280.603C456.263 279.389 456.311 278.171 456.365 276.957C456.418 275.777 456.467 274.602 456.603 273.427C456.68 272.772 456.777 272.116 456.913 271.471C457.01 271.009 457.151 270.514 457.481 270.16C457.914 269.694 458.569 269.728 459.084 270.043C459.618 270.373 459.938 270.917 460.22 271.461C460.234 271.49 460.283 271.461 460.263 271.427Z" fill="#1A2E35"/>
<path d="M459.968 271.038C459.968 271.038 459.065 267.853 461.06 269.446C464.381 272.097 464.498 277.865 464.498 277.865C464.498 277.865 458.599 274.437 457.866 272.179C456.769 268.805 459.968 271.038 459.968 271.038Z" fill="#3CAA18"/>
<path d="M463.255 275.495C463.202 275.408 463.144 275.32 463.09 275.233C463.105 275.146 463.09 275.048 463.09 274.961C463.09 274.825 463.09 274.689 463.09 274.548C463.095 274.281 463.105 274.009 463.119 273.742C463.119 273.704 463.066 273.708 463.061 273.742C463.046 274.005 463.037 274.272 463.027 274.534C463.022 274.665 463.017 274.796 463.013 274.932C463.013 274.985 463.003 275.044 463.003 275.102C462.77 274.743 462.532 274.388 462.289 274.039C462.216 273.937 462.143 273.84 462.071 273.738C462.017 273.398 462.046 273.038 462.051 272.699C462.056 272.33 462.061 271.961 462.075 271.587C462.075 271.548 462.022 271.553 462.017 271.587C462.008 271.97 461.988 272.354 461.969 272.742C461.954 273.014 461.93 273.291 461.944 273.568C461.376 272.791 460.769 272.048 460.158 271.305C460.138 271.281 460.095 271.315 460.114 271.339C460.493 271.82 460.857 272.31 461.211 272.81C460.517 272.65 459.813 272.553 459.104 272.451C459.07 272.446 459.056 272.5 459.09 272.504C459.837 272.616 460.57 272.805 461.308 272.966C461.313 272.966 461.318 272.961 461.323 272.961C461.605 273.359 461.886 273.757 462.163 274.16C462.275 274.325 462.386 274.49 462.498 274.655C462.488 274.655 462.478 274.65 462.464 274.65C462.386 274.641 462.313 274.626 462.236 274.621C462.071 274.602 461.91 274.587 461.745 274.578C461.406 274.548 461.066 274.534 460.726 274.514C460.692 274.514 460.692 274.573 460.726 274.573C461.061 274.582 461.396 274.607 461.726 274.641C461.901 274.66 462.075 274.684 462.255 274.704C462.333 274.713 462.41 274.723 462.483 274.733C462.508 274.738 462.527 274.738 462.551 274.743C462.741 275.019 462.93 275.301 463.119 275.578C463.454 276.068 463.75 276.597 464.105 277.073C464.124 277.102 464.163 277.078 464.149 277.044C463.906 276.51 463.566 276 463.255 275.495Z" fill="#1A2E35"/>
<path d="M461.786 271.898C461.786 271.772 461.791 271.65 461.786 271.524C461.786 271.267 461.781 271 461.815 270.742C461.82 270.704 461.757 270.694 461.757 270.738C461.757 270.995 461.727 271.252 461.718 271.509C461.713 271.641 461.713 271.767 461.713 271.898C461.713 271.956 461.713 272.019 461.713 272.077C461.713 272.136 461.703 272.204 461.727 272.262C461.737 272.286 461.771 272.286 461.776 272.262C461.795 272.209 461.786 272.145 461.786 272.092C461.791 272.029 461.786 271.966 461.786 271.898Z" fill="#1A2E35"/>
<path d="M461.056 273.218C460.837 273.179 460.614 273.17 460.391 273.15C460.148 273.131 459.905 273.107 459.663 273.077C459.624 273.073 459.614 273.131 459.658 273.136C460.124 273.165 460.585 273.247 461.051 273.267C461.075 273.262 461.08 273.223 461.056 273.218Z" fill="#1A2E35"/>
<path d="M462.91 273.238C462.929 273.262 462.915 273.33 462.915 273.359V273.461C462.915 273.534 462.915 273.612 462.915 273.684C462.915 273.757 462.915 273.835 462.915 273.908C462.915 273.966 462.9 274.049 462.924 274.102C462.929 274.112 462.944 274.112 462.949 274.102C462.963 274.073 462.958 274.044 462.958 274.01C462.958 273.976 462.958 273.942 462.958 273.908C462.958 273.835 462.958 273.757 462.958 273.684C462.958 273.612 462.958 273.534 462.958 273.461V273.359C462.958 273.33 462.949 273.262 462.963 273.238C462.997 273.184 462.871 273.184 462.91 273.238Z" fill="#1A2E35"/>
<path d="M460.4 288.419C459.157 287.487 458.045 286.147 456.375 286.084C454.996 286.031 454.03 287.065 453.482 288.22C453.19 288.827 452.991 289.478 452.807 290.123C452.559 290.997 452.321 291.871 452.103 292.75C451.671 294.478 451.297 296.226 450.996 297.984C450.826 298.964 450.67 299.945 450.549 300.936C450.423 301.931 450.263 302.95 450.258 303.955C450.258 304.13 450.53 304.164 450.564 303.989C450.734 303.164 450.802 302.314 450.923 301.479C451.044 300.639 451.171 299.804 451.316 298.969C451.598 297.299 451.928 295.634 452.307 293.978C452.661 292.42 453.011 290.832 453.516 289.313C453.875 288.225 454.457 286.953 455.632 286.56C457.424 285.963 459.05 287.477 460.361 288.463C460.39 288.482 460.429 288.439 460.4 288.419Z" fill="#1A2E35"/>
<path d="M459.114 287.526C459.114 287.526 457.968 284.259 459.623 283.618C462.104 282.657 468.591 289.968 467.319 301.164C467.319 301.164 462.303 298.401 458.604 295.294C454.904 292.187 453.953 288.128 455.584 287.079C457.22 286.036 459.114 287.526 459.114 287.526Z" fill="#3CAA18"/>
<path d="M466.572 298.766C466.426 298.372 466.174 298.003 465.97 297.634C465.756 297.251 465.542 296.867 465.324 296.493C464.892 295.755 464.465 295.017 464.023 294.289C463.95 294.173 463.877 294.056 463.804 293.935C463.814 293.891 463.824 293.847 463.833 293.804C463.858 293.697 463.882 293.59 463.906 293.478C463.96 293.236 464.003 292.988 464.047 292.745C464.134 292.265 464.222 291.779 464.348 291.308C464.358 291.274 464.3 291.265 464.29 291.299C464.188 291.779 464.037 292.25 463.897 292.716C463.829 292.949 463.751 293.177 463.693 293.41C463.673 293.488 463.649 293.571 463.63 293.648C463.095 292.774 462.557 291.905 461.969 291.066C462.018 290.954 462.013 290.832 462.027 290.706C462.047 290.541 462.066 290.381 462.086 290.216C462.129 289.847 462.173 289.478 462.226 289.114C462.333 288.39 462.44 287.677 462.62 286.968C462.629 286.934 462.571 286.924 462.561 286.958C462.382 287.662 462.188 288.366 462.056 289.085C461.989 289.434 461.93 289.789 461.882 290.138C461.857 290.313 461.838 290.493 461.823 290.672C461.819 290.726 461.809 290.779 461.804 290.832C461.624 290.58 461.445 290.323 461.255 290.075C460.683 289.323 460.09 288.585 459.493 287.851C459.469 287.822 459.425 287.856 459.444 287.885C460.498 289.172 461.386 290.595 462.265 292.003C462.43 292.265 462.591 292.532 462.751 292.794C462.697 292.789 462.644 292.779 462.591 292.774C462.382 292.75 462.168 292.736 461.959 292.716C461.537 292.677 461.115 292.639 460.692 292.605C459.847 292.537 459.003 292.483 458.158 292.396C458.124 292.391 458.109 292.449 458.148 292.454C459.003 292.551 459.852 292.687 460.702 292.808C461.119 292.867 461.537 292.925 461.959 292.978C462.251 293.017 462.61 293.1 462.926 293.075C463.256 293.614 463.591 294.153 463.921 294.692C463.848 294.683 463.77 294.687 463.697 294.682C463.557 294.682 463.416 294.682 463.275 294.682C463.013 294.682 462.751 294.682 462.489 294.682C461.945 294.682 461.401 294.692 460.857 294.692C460.818 294.692 460.828 294.75 460.862 294.75C461.416 294.755 461.964 294.784 462.513 294.814C462.775 294.828 463.037 294.843 463.295 294.862C463.426 294.872 463.557 294.882 463.688 294.891C463.804 294.896 463.926 294.92 464.032 294.877C464.314 295.338 464.601 295.794 464.877 296.251C465.135 296.673 465.397 297.095 465.669 297.513C465.941 297.935 466.188 298.416 466.518 298.79C466.538 298.824 466.586 298.804 466.572 298.766Z" fill="#1A2E35"/>
<path d="M464.182 289.716C464.143 290.075 464.046 290.429 463.958 290.779C463.866 291.143 463.759 291.502 463.643 291.857C463.628 291.905 463.696 291.93 463.711 291.876C463.822 291.522 463.919 291.167 464.007 290.808C464.094 290.449 464.148 290.08 464.24 289.721C464.245 289.691 464.186 289.682 464.182 289.716Z" fill="#1A2E35"/>
<path d="M460.506 291.905C460.429 291.828 460.341 291.818 460.234 291.803C460.079 291.779 459.919 291.76 459.763 291.74C459.472 291.701 459.176 291.667 458.88 291.633C458.268 291.561 457.656 291.502 457.045 291.425C457.011 291.42 456.996 291.478 457.035 291.483C457.613 291.551 458.186 291.638 458.758 291.716C459.04 291.755 459.322 291.794 459.603 291.828C459.739 291.842 459.875 291.857 460.011 291.871C460.162 291.886 460.336 291.886 460.477 291.949C460.506 291.959 460.526 291.925 460.506 291.905Z" fill="#1A2E35"/>
<path d="M464.173 296.828C463.887 296.804 463.595 296.794 463.304 296.784C463.158 296.78 463.013 296.775 462.867 296.77C462.799 296.77 462.726 296.765 462.658 296.765C462.571 296.76 462.469 296.77 462.386 296.75C462.348 296.741 462.343 296.814 462.386 296.809C462.469 296.794 462.561 296.814 462.644 296.818C462.721 296.823 462.794 296.828 462.872 296.833C463.018 296.843 463.163 296.852 463.309 296.857C463.595 296.877 463.887 296.891 464.178 296.891C464.207 296.891 464.212 296.833 464.173 296.828Z" fill="#1A2E35"/>
<path d="M465.94 295.576C465.974 295.411 466.003 295.246 466.032 295.085C466.091 294.765 466.149 294.44 466.212 294.119C466.217 294.085 466.163 294.076 466.154 294.11C466.081 294.425 466.013 294.741 465.94 295.051C465.906 295.207 465.867 295.367 465.838 295.522C465.824 295.595 465.809 295.668 465.794 295.741C465.78 295.819 465.756 295.896 465.77 295.974C465.775 295.998 465.814 296.022 465.833 295.993C465.911 295.877 465.916 295.712 465.94 295.576Z" fill="#1A2E35"/>
<path d="M462.955 305.228L462.673 309.854L461.853 323.516H449.336L448.511 309.854L448.234 305.228H462.955Z" fill="#E31E23"/>
<path d="M462.955 305.228L462.673 309.854H448.511L448.234 305.228H462.955Z" fill="#1A2E35"/>
<path d="M464.245 301.95H446.941V306.582H464.245V301.95Z" fill="#E31E23"/>
<path d="M231.4 208.99H391.199C395.304 208.99 398.68 212.362 398.68 216.473V315.636C398.68 319.779 395.308 323.119 391.199 323.119H231.4C227.295 323.119 223.918 319.779 223.918 315.636V216.468C223.918 212.362 227.29 208.99 231.4 208.99Z" fill="#E527BB"/>
<path d="M391.199 323.743H231.4C226.931 323.743 223.289 320.106 223.289 315.631V216.468C223.289 211.998 226.926 208.356 231.4 208.356H391.199C395.668 208.356 399.309 211.993 399.309 216.468V315.631C399.305 320.106 395.668 323.743 391.199 323.743ZM231.4 209.619C227.621 209.619 224.547 212.693 224.547 216.473V315.636C224.547 319.415 227.621 322.49 231.4 322.49H391.199C394.977 322.49 398.051 319.415 398.051 315.636V216.468C398.051 212.689 394.977 209.614 391.199 209.614H231.4V209.619Z" fill="white"/>
<path d="M311.296 256.663L256.918 296.782L225.383 320.068C226.74 321.903 228.939 323.114 231.399 323.114H391.197C393.652 323.114 395.856 321.903 397.213 320.068L365.64 296.782L311.296 256.663Z" fill="#E527BB"/>
<path d="M391.197 323.743H231.398C228.845 323.743 226.409 322.509 224.881 320.446L224.508 319.94L256.549 296.281L311.3 255.887L366.014 296.281L398.093 319.94L397.719 320.446C396.187 322.509 393.751 323.743 391.197 323.743ZM226.286 320.186C227.582 321.638 229.45 322.485 231.394 322.485H391.197C393.146 322.485 395.014 321.634 396.305 320.186L365.266 297.288L311.296 257.443L257.291 297.288L226.286 320.186Z" fill="white"/>
<path d="M311.297 275.365L365.637 235.246L397.172 211.993C395.777 210.158 393.615 208.985 391.194 208.985H231.4C228.978 208.985 226.779 210.158 225.422 211.993L256.919 235.246L311.297 275.365Z" fill="#E527BB"/>
<path d="M311.298 276.146L224.543 212.126L224.917 211.62C226.43 209.576 228.851 208.356 231.4 208.356H391.199C393.744 208.356 396.104 209.543 397.679 211.61L398.066 212.116L366.011 235.752L311.298 276.146ZM226.326 211.88L257.293 234.74L311.298 274.585L365.264 234.74L396.264 211.885C394.95 210.437 393.134 209.619 391.195 209.619H231.4C229.461 209.619 227.608 210.451 226.326 211.88Z" fill="white"/>
<path d="M318.653 124.461H223.216C210.957 124.461 200.945 133.76 200.945 145.145V184.999H340.924V145.145C340.924 133.76 330.912 124.461 318.653 124.461Z" fill="#A78BEF"/>
<path d="M318.653 124.461H305.997C293.739 124.461 283.727 133.76 283.727 145.145V184.999H340.923V145.145C340.923 133.76 330.911 124.461 318.653 124.461Z" fill="#BE96F8"/>
<path d="M318.653 245.491H305.997C293.739 245.491 283.727 236.139 283.727 224.806V184.9H340.923V224.806C340.923 236.144 330.911 245.491 318.653 245.491Z" fill="#DFCFFD"/>
<path d="M318.033 127.493H306.617C295.593 127.493 286.598 135.85 286.598 146.086V181.972H338.057V146.086C338.057 135.85 329.057 127.493 318.033 127.493Z" fill="#E527BB"/>
<path fill-rule="evenodd" clip-rule="evenodd" d="M407.011 103.602L429.886 103.796L443.11 103.942C443.095 103.157 442.769 102.419 442.102 101.918L398.919 69.4137C398.285 68.936 397.448 68.8035 396.691 69.0069L400.489 81.6737L407.011 103.602Z" fill="#BE96F8"/>
<path fill-rule="evenodd" clip-rule="evenodd" d="M432.786 69.3427L439.308 91.2754L443.106 103.942C442.349 104.146 441.55 104.037 440.878 103.535L397.695 71.0313C397.061 70.5535 396.702 69.7873 396.688 69.0068L409.911 69.1535L432.786 69.3427Z" fill="#BE96F8"/>
<path d="M410.424 60.9999L382.715 97.8247L419.289 125.353L446.998 88.5281L410.424 60.9999Z" fill="white"/>
<path fill-rule="evenodd" clip-rule="evenodd" d="M443.106 103.942C443.116 104.444 442.974 104.997 442.629 105.456L422.463 132.256C421.616 133.382 420.042 133.571 418.916 132.724L375.733 100.22C374.64 99.4016 374.39 97.8312 375.236 96.7055L395.402 69.9056C395.747 69.4468 396.206 69.1299 396.688 69.0022L400.486 81.669L407.008 103.602L429.883 103.796L443.106 103.942Z" fill="#E527BB"/>
<path fill-rule="evenodd" clip-rule="evenodd" d="M410.818 98.5359L387.966 98.3041L374.719 98.1953C374.701 98.9521 375.06 99.7184 375.727 100.22L418.91 132.724C419.577 133.225 420.414 133.362 421.138 133.131L417.364 120.431L410.818 98.5359Z" fill="#E527BB"/>
<path d="M426.454 91.4269C425.763 92.3445 425.021 93.0729 424.231 93.6027C423.441 94.1324 422.637 94.4872 421.828 94.6575C421.015 94.8277 420.211 94.8183 419.407 94.6244C418.608 94.4304 417.851 94.071 417.151 93.5412C416.678 93.1865 416.399 92.7797 416.319 92.3303C416.233 91.8763 416.333 91.4364 416.612 91.0012C415.288 91.4269 414.11 91.2519 413.074 90.4715C412.649 90.1498 412.313 89.7762 412.072 89.3457C411.826 88.9153 411.684 88.4565 411.637 87.9693C411.589 87.4821 411.651 86.976 411.812 86.4557C411.972 85.9307 412.247 85.4151 412.63 84.909C413.169 84.1948 413.807 83.5988 414.559 83.1258C415.307 82.6529 416.073 82.3123 416.858 82.1042C417.643 81.8961 418.404 81.8251 419.137 81.8961C419.87 81.9623 420.499 82.194 421.02 82.5866C422.192 83.4664 422.784 84.4597 422.798 85.5665L423.597 84.8996L425.054 85.9969L419.672 90.5235C419.364 90.7694 419.114 90.9918 418.915 91.1904C418.721 91.3891 418.556 91.5735 418.428 91.7485C418.139 92.1317 418.144 92.4344 418.437 92.6567C418.896 93.002 419.407 93.2148 419.974 93.3C420.542 93.3851 421.133 93.3378 421.738 93.1581C422.348 92.9783 422.954 92.6662 423.559 92.2263C424.165 91.7864 424.737 91.1999 425.285 90.4762C425.843 89.7336 426.217 88.9437 426.406 88.1018C426.595 87.2598 426.614 86.4132 426.458 85.5618C426.302 84.7151 425.966 83.8874 425.456 83.0927C424.94 82.2934 424.25 81.5697 423.384 80.917C422.382 80.1602 421.313 79.6588 420.182 79.4081C419.052 79.1574 417.936 79.1338 416.839 79.3324C415.742 79.5358 414.696 79.9521 413.699 80.5764C412.705 81.2055 411.835 82.0096 411.097 82.9934C410.355 83.982 409.854 84.9753 409.598 85.978C409.343 86.9808 409.314 87.974 409.518 88.9626C409.721 89.9464 410.156 90.9019 410.818 91.829C411.481 92.756 412.365 93.6358 413.467 94.4635C414.848 95.5041 416.148 96.1521 417.373 96.417L417.217 97.8691C415.638 97.4954 414.101 96.7481 412.606 95.6177C411.324 94.6527 410.303 93.6169 409.537 92.5148C408.775 91.408 408.274 90.2728 408.042 89.1092C407.811 87.9409 407.844 86.7632 408.146 85.576C408.449 84.384 409.031 83.2252 409.882 82.09C411.679 79.7014 413.944 78.2729 416.678 77.8141C419.407 77.3931 421.932 78.0553 424.25 79.8007C425.314 80.6048 426.156 81.4893 426.775 82.4589C427.395 83.4286 427.792 84.4266 427.967 85.453C428.147 86.4794 428.104 87.5058 427.849 88.5275C427.607 89.5539 427.139 90.5188 426.454 91.4269ZM421.62 86.5409C421.682 85.5287 421.213 84.6442 420.211 83.8874C419.837 83.6083 419.388 83.4664 418.854 83.4617C418.324 83.4569 417.775 83.5563 417.208 83.7597C416.645 83.9631 416.092 84.261 415.552 84.6489C415.013 85.0367 414.555 85.4861 414.167 85.9969C413.065 87.4632 413.093 88.6315 414.252 89.5066C414.54 89.7241 414.871 89.8708 415.245 89.9512C415.619 90.0316 416.006 90.0458 416.418 89.9937C416.825 89.9417 417.241 89.8235 417.666 89.639C418.092 89.4545 418.499 89.1944 418.887 88.8633L421.62 86.5409Z" fill="#E527BB"/>
<path fill-rule="evenodd" clip-rule="evenodd" d="M398.99 209.084L391.725 208.503L390.988 217.248L383.562 241.21L387.88 242.369L397.467 217.877L398.99 209.084Z" fill="#FF9866"/>
<path fill-rule="evenodd" clip-rule="evenodd" d="M403.735 312.358L399.942 316.043C396.097 318.994 384.619 316.62 387.305 324.467C394.73 324.311 402.103 324.098 409.528 323.89C409.633 321.364 409.633 318.2 408.214 315.097L403.735 312.358Z" fill="#A78BEF"/>
<path fill-rule="evenodd" clip-rule="evenodd" d="M424.955 312.358L421.323 316.043C420.534 318.938 405.844 316.62 408.526 324.467C415.951 324.311 422.638 323.942 430.063 323.729C430.697 321.463 430.115 318.937 428.748 315.83C427.06 314.837 426.639 313.309 424.955 312.358Z" fill="#A78BEF"/>
<path fill-rule="evenodd" clip-rule="evenodd" d="M417.738 227.252L402.046 238.472C398.57 248.688 395.094 258.957 391.675 269.174C390.516 273.648 390.885 278.232 391.675 281.921L399.941 316.048C404.415 318.152 405.049 315.944 408.208 314.993L403.205 276.917L413.368 261.067C415.473 279.551 419.161 297.563 421.318 316.048C425.423 318.365 426.005 316.994 428.743 315.835L428.53 238.732L417.738 227.252Z" fill="#231F20"/>
<path fill-rule="evenodd" clip-rule="evenodd" d="M401.889 238.628C410.525 243.84 419.686 238.732 428.534 238.784L429.007 206.502C429.324 209.084 429.693 211.714 430.01 214.297C433.117 215.877 435.959 215.087 437.643 214.084L436.115 193.859C435.903 192.383 434.905 189.644 432.535 188.802L414.209 181.849L397.146 189.379C395.249 190.434 393.462 192.752 393.093 195.07C392.355 201.072 391.726 206.497 390.988 212.499C393.093 213.658 396.044 214.131 399.099 212.816L399.468 207.391L401.889 238.628Z" fill="#A78BEF"/>
<path fill-rule="evenodd" clip-rule="evenodd" d="M407.891 180.17L415.472 177.484L417.685 184.12C415.264 188.173 412.208 189.228 409.787 188.225L407.891 180.17Z" fill="#FF9866"/>
<path fill-rule="evenodd" clip-rule="evenodd" d="M410.628 161.104C405.572 163.473 400.517 165.843 395.461 168.213C395.617 171.898 402.782 183.803 407.048 185.222C412.368 187.014 416.79 181.116 416.317 176.689C416.104 172.588 413.314 163.473 410.628 161.104Z" fill="#FFAA81"/>
<path fill-rule="evenodd" clip-rule="evenodd" d="M407.841 166.95C402.629 165.105 400.889 172.271 397.942 173.113C395.1 172.9 389.831 170.006 389.519 163.842C389.098 160.314 394.523 161.525 396.788 159.997C398.368 158.521 397.999 155.731 401.527 155.574L406.266 156.312C407.108 154.576 410.953 156.629 412.007 157.788C415.748 160.844 414.745 167.163 415.587 172.271C413.53 173.269 408.787 166.95 407.841 166.95Z" fill="#231F20"/>
<path fill-rule="evenodd" clip-rule="evenodd" d="M413.102 171.533C409.891 172.479 409.309 171.268 409.73 168.53C409.73 167.371 410.363 165.947 411.678 166.529C412.842 167.163 413.102 170.11 413.102 171.533Z" fill="#FFAA81"/>
<path fill-rule="evenodd" clip-rule="evenodd" d="M387.778 243.315C387.513 245.16 391.306 248.002 390.043 248.74C388.78 249.374 387.305 246.371 386.832 246.635C384.727 247.212 385.517 253.219 383.725 253.428C379.355 254.113 378.404 246.687 383.725 241.049L387.149 241.418C387.513 241.527 387.934 241.158 387.778 243.315Z" fill="#FF9866"/>
<path fill-rule="evenodd" clip-rule="evenodd" d="M405.522 190.912C399.255 195.599 390.463 195.386 382.93 197.6C384.244 209.557 393.935 219.296 394.937 231.202C405.049 231.518 409.735 224.357 418.106 223.988C416.267 212.192 409.102 204.293 405.522 190.912Z" fill="white"/>
<path fill-rule="evenodd" clip-rule="evenodd" d="M437.224 214.349L437.749 220.985C437.853 222.778 437.011 223.989 434.642 223.989L408.734 222.882V218.615L430.641 217.248L430.376 214.458C433.062 215.669 435.54 215.139 437.224 214.349Z" fill="#FF9866"/>
<path fill-rule="evenodd" clip-rule="evenodd" d="M408.208 218.298C406.415 217.877 405.101 213.294 403.994 214.193C402.939 215.195 405.205 217.669 404.784 217.986C403.469 219.722 398.201 216.827 397.307 218.355C395.093 222.252 401.677 225.781 408.837 222.886L409.731 219.623C409.787 219.197 410.26 218.932 408.208 218.298Z" fill="#FF9866"/>
<path d="M125.764 205.413C124.399 202.894 120.952 202.115 118.062 203.67L71.3202 228.843C68.428 230.399 67.1907 233.702 68.5551 236.219L116.843 325.382C118.208 327.899 121.655 328.68 124.545 327.124L171.287 301.952C174.176 300.396 175.414 297.093 174.052 294.576L125.764 205.413Z" fill="#A78BEF"/>
<path d="M135.736 310.211L125.223 315.873C123.433 316.836 121.031 315.865 119.861 313.703L119.612 313.245C118.442 311.083 118.943 308.549 120.733 307.583L131.246 301.921C133.036 300.958 135.438 301.929 136.608 304.091L136.857 304.549C138.027 306.711 137.526 309.248 135.736 310.211Z" fill="#E5E5E4"/>
<path d="M118.694 314.33L118.445 313.872C117.276 311.71 117.875 309.121 119.789 308.091L125.407 305.067L129.898 313.356L124.279 316.38C122.365 317.411 119.864 316.492 118.694 314.33Z" fill="#FD5B68"/>
<path d="M135.556 310.371L129.958 313.385L128.895 311.422L134.492 308.409C136.173 307.503 136.827 305.369 136.145 303.384C136.316 303.604 136.477 303.842 136.614 304.098L136.866 304.562C138.048 306.741 137.462 309.343 135.556 310.371Z" fill="#E5E5E4"/>
<path d="M118.332 313.455C118.389 313.587 118.451 313.716 118.521 313.843C118.451 313.713 118.389 313.584 118.332 313.455Z" fill="#DA3832"/>
<path d="M118.77 314.307L118.518 313.843C118.448 313.714 118.386 313.584 118.329 313.455C118.272 313.323 118.222 313.193 118.176 313.061C119.468 314.718 121.615 315.345 123.296 314.439L128.894 311.425L129.957 313.387L124.36 316.401C122.456 317.426 119.95 316.486 118.77 314.307Z" fill="#FD5B68"/>
<path opacity="0.4" d="M132.992 305.44L121.566 311.594C121.099 311.845 120.487 311.622 120.202 311.094L120.142 310.983C119.857 310.455 120.002 309.823 120.469 309.569L131.895 303.415C132.362 303.164 132.974 303.387 133.26 303.917L133.319 304.029C133.605 304.557 133.459 305.189 132.992 305.44Z" fill="white"/>
<path d="M162.775 295.651L152.262 301.313C150.472 302.276 148.07 301.305 146.9 299.143L146.651 298.685C145.482 296.523 145.982 293.989 147.772 293.023L158.285 287.361C160.075 286.398 162.477 287.369 163.647 289.531L163.896 289.989C165.068 292.151 164.565 294.688 162.775 295.651Z" fill="white"/>
<path d="M145.73 299.772L145.481 299.314C144.311 297.152 144.91 294.563 146.824 293.533L152.443 290.509L156.933 298.799L151.314 301.823C149.403 302.851 146.899 301.931 145.73 299.772Z" fill="#FD5B68"/>
<path d="M162.591 295.811L156.993 298.825L155.93 296.862L161.527 293.849C163.208 292.943 163.862 290.809 163.18 288.824C163.351 289.044 163.512 289.282 163.649 289.538L163.901 290.002C165.084 292.182 164.497 294.786 162.591 295.811Z" fill="#E5E5E4"/>
<path d="M145.805 299.746L145.553 299.283C145.483 299.154 145.421 299.024 145.364 298.895C145.307 298.763 145.258 298.633 145.211 298.501C146.503 300.158 148.65 300.785 150.331 299.879L155.929 296.865L156.992 298.827L151.395 301.841C149.491 302.866 146.985 301.929 145.805 299.746Z" fill="#FD5B68"/>
<path opacity="0.4" d="M160.024 290.879L148.597 297.033C148.131 297.284 147.518 297.062 147.233 296.533L147.173 296.422C146.888 295.894 147.033 295.262 147.5 295.009L158.926 288.855C159.393 288.603 160.005 288.826 160.291 289.357L160.35 289.468C160.638 289.996 160.491 290.628 160.024 290.879Z" fill="white"/>
<path d="M126.236 292.676L115.723 298.338C113.933 299.301 111.531 298.33 110.361 296.169L110.112 295.71C108.942 293.549 109.443 291.014 111.233 290.048L121.746 284.386C123.536 283.423 125.938 284.394 127.108 286.556L127.357 287.014C128.527 289.176 128.026 291.71 126.236 292.676Z" fill="#E5E5E4"/>
<path d="M109.202 296.795L108.953 296.337C107.783 294.175 108.383 291.586 110.297 290.556L115.915 287.532L120.403 295.822L114.784 298.845C112.873 299.876 110.372 298.957 109.202 296.795Z" fill="#FD5B68"/>
<path d="M126.056 292.836L120.458 295.85L119.395 293.888L124.992 290.874C126.673 289.968 127.327 287.835 126.645 285.849C126.816 286.069 126.977 286.307 127.114 286.563L127.366 287.027C128.546 289.207 127.96 291.809 126.056 292.836Z" fill="#E5E5E4"/>
<path d="M108.824 295.92C108.881 296.052 108.944 296.182 109.014 296.309C108.944 296.179 108.881 296.05 108.824 295.92Z" fill="#DA3832"/>
<path d="M109.262 296.772L109.01 296.308C108.94 296.179 108.878 296.05 108.821 295.92C108.764 295.788 108.715 295.659 108.668 295.527C109.96 297.184 112.107 297.81 113.788 296.904L119.386 293.89L120.45 295.853L114.852 298.866C112.948 299.892 110.445 298.952 109.262 296.772Z" fill="#FD5B68"/>
<path opacity="0.4" d="M123.488 287.904L112.062 294.058C111.595 294.309 110.983 294.087 110.698 293.559L110.638 293.447C110.353 292.919 110.498 292.287 110.965 292.034L122.391 285.88C122.858 285.629 123.47 285.851 123.756 286.382L123.815 286.493C124.103 287.021 123.955 287.653 123.488 287.904Z" fill="white"/>
<path d="M153.279 278.116L142.766 283.778C140.976 284.741 138.574 283.77 137.404 281.608L137.155 281.15C135.985 278.988 136.486 276.453 138.276 275.488L148.789 269.826C150.579 268.863 152.981 269.833 154.151 271.995L154.4 272.453C155.569 274.615 155.069 277.152 153.279 278.116Z" fill="#E5E5E4"/>
<path d="M136.233 282.235L135.984 281.777C134.815 279.615 135.414 277.026 137.328 275.996L142.947 272.972L147.437 281.261L141.818 284.285C139.904 285.316 137.403 284.397 136.233 282.235Z" fill="#FD5B68"/>
<path d="M153.091 278.276L147.493 281.29L146.43 279.327L152.027 276.314C153.708 275.408 154.362 273.274 153.68 271.289C153.851 271.509 154.012 271.747 154.149 272.003L154.401 272.467C155.584 274.646 154.995 277.248 153.091 278.276Z" fill="#E5E5E4"/>
<path d="M135.867 281.36C135.924 281.492 135.987 281.621 136.057 281.748C135.987 281.619 135.924 281.489 135.867 281.36Z" fill="#DA3832"/>
<path d="M136.305 282.211L136.053 281.748C135.983 281.618 135.921 281.489 135.864 281.359C135.807 281.227 135.758 281.098 135.711 280.966C137.003 282.623 139.15 283.249 140.831 282.343L146.429 279.33L147.492 281.292L141.895 284.306C139.991 285.331 137.488 284.391 136.305 282.211Z" fill="#FD5B68"/>
<path opacity="0.4" d="M150.535 273.344L139.109 279.498C138.642 279.749 138.03 279.527 137.745 278.999L137.685 278.887C137.4 278.359 137.545 277.727 138.012 277.474L149.438 271.32C149.905 271.069 150.517 271.291 150.803 271.822L150.862 271.933C151.15 272.461 151.002 273.093 150.535 273.344Z" fill="white"/>
<path d="M116.302 274.323L105.789 279.985C104 280.948 101.598 279.977 100.428 277.816L100.179 277.357C99.0089 275.196 99.5095 272.661 101.299 271.695L111.812 266.033C113.602 265.07 116.004 266.041 117.174 268.203L117.423 268.661C118.593 270.825 118.092 273.36 116.302 274.323Z" fill="#E5E5E4"/>
<path d="M99.2608 278.444L99.0118 277.986C97.842 275.824 98.4412 273.235 100.355 272.205L105.974 269.181L110.464 277.471L104.846 280.495C102.931 281.525 100.431 280.606 99.2608 278.444Z" fill="#FD5B68"/>
<path d="M116.114 274.484L110.517 277.497L109.453 275.535L115.051 272.521C116.732 271.615 117.385 269.482 116.703 267.496C116.874 267.716 117.035 267.954 117.173 268.211L117.424 268.674C118.607 270.857 118.021 273.458 116.114 274.484Z" fill="#E5E5E4"/>
<path d="M99.3284 278.421L99.0768 277.958C99.0067 277.828 98.9445 277.699 98.8874 277.57C98.8303 277.437 98.7811 277.308 98.7344 277.176C100.026 278.833 102.174 279.459 103.855 278.553L109.452 275.54L110.516 277.502L104.918 280.516C103.012 281.538 100.509 280.601 99.3284 278.421Z" fill="#FD5B68"/>
<path opacity="0.4" d="M113.551 269.554L102.125 275.708C101.658 275.959 101.046 275.737 100.76 275.208L100.701 275.097C100.415 274.569 100.561 273.937 101.028 273.684L112.454 267.53C112.921 267.279 113.533 267.501 113.818 268.032L113.878 268.143C114.168 268.669 114.018 269.303 113.551 269.554Z" fill="white"/>
<path d="M143.338 259.763L132.825 265.425C131.035 266.388 128.633 265.417 127.463 263.255L127.214 262.797C126.044 260.635 126.545 258.101 128.334 257.135L138.848 251.473C140.637 250.51 143.039 251.481 144.209 253.642L144.458 254.101C145.628 256.265 145.127 258.8 143.338 259.763Z" fill="#E5E5E4"/>
<path d="M126.292 263.884L126.043 263.426C124.873 261.264 125.472 258.675 127.387 257.645L133.005 254.621L137.495 262.911L131.877 265.935C129.962 266.965 127.465 266.046 126.292 263.884Z" fill="#FD5B68"/>
<path d="M143.153 259.926L137.556 262.94L136.492 260.977L142.09 257.964C143.771 257.057 144.424 254.924 143.742 252.938C143.913 253.159 144.074 253.397 144.212 253.653L144.463 254.116C145.646 256.296 145.06 258.898 143.153 259.926Z" fill="#E5E5E4"/>
<path d="M125.934 263.009C125.991 263.141 126.053 263.271 126.123 263.398C126.053 263.268 125.991 263.139 125.934 263.009Z" fill="#DA3832"/>
<path d="M126.367 263.861L126.116 263.398C126.046 263.268 125.984 263.139 125.926 263.009C125.869 262.877 125.82 262.748 125.773 262.616C127.065 264.273 129.213 264.899 130.894 263.993L136.491 260.979L137.555 262.942L131.957 265.955C130.053 266.981 127.548 266.041 126.367 263.861Z" fill="#FD5B68"/>
<path opacity="0.4" d="M140.59 254.994L129.164 261.148C128.697 261.399 128.085 261.177 127.799 260.648L127.74 260.537C127.454 260.009 127.6 259.377 128.067 259.124L139.493 252.97C139.96 252.718 140.572 252.941 140.857 253.472L140.917 253.583C141.205 254.111 141.057 254.743 140.59 254.994Z" fill="white"/>
<path d="M106.592 256.381L96.0784 262.043C94.2886 263.006 91.8867 262.036 90.7168 259.874L90.4678 259.416C89.298 257.254 89.7986 254.719 91.5884 253.754L102.102 248.092C103.891 247.128 106.293 248.099 107.463 250.261L107.712 250.719C108.882 252.881 108.381 255.416 106.592 256.381Z" fill="#E5E5E4"/>
<path d="M89.546 260.501L89.297 260.043C88.1271 257.881 88.7263 255.292 90.6406 254.261L96.259 251.238L100.749 259.527L95.1307 262.551C93.2164 263.582 90.7158 262.663 89.546 260.501Z" fill="#FD5B68"/>
<path d="M106.399 256.542L100.802 259.556L99.7383 257.593L105.336 254.58C107.017 253.674 107.67 251.54 106.988 249.555C107.159 249.775 107.32 250.013 107.458 250.269L107.709 250.733C108.892 252.913 108.306 255.514 106.399 256.542Z" fill="#E5E5E4"/>
<path d="M89.1719 259.625C89.2289 259.757 89.2912 259.887 89.3612 260.014C89.2912 259.884 89.2263 259.755 89.1719 259.625Z" fill="#DA3832"/>
<path d="M89.6174 260.477L89.3658 260.014C89.2958 259.884 89.2335 259.755 89.1765 259.625C89.1194 259.493 89.0701 259.364 89.0234 259.232C90.3152 260.889 92.463 261.515 94.1438 260.609L99.7415 257.596L100.805 259.558L95.2073 262.572C93.3034 263.597 90.8003 262.657 89.6174 260.477Z" fill="#FD5B68"/>
<path opacity="0.4" d="M103.84 251.61L92.4138 257.764C91.9469 258.015 91.3348 257.793 91.0494 257.264L90.9898 257.153C90.7045 256.625 90.8497 255.993 91.3166 255.74L102.743 249.586C103.21 249.334 103.822 249.557 104.107 250.088L104.167 250.199C104.455 250.727 104.307 251.359 103.84 251.61Z" fill="white"/>
<path d="M133.619 241.821L123.106 247.483C121.316 248.446 118.914 247.476 117.744 245.314L117.495 244.856C116.325 242.694 116.826 240.159 118.616 239.194L129.129 233.532C130.919 232.568 133.321 233.539 134.49 235.701L134.739 236.159C135.909 238.321 135.409 240.858 133.619 241.821Z" fill="#E5E5E4"/>
<path d="M116.589 245.94L116.34 245.482C115.17 243.32 115.769 240.731 117.684 239.7L123.302 236.677L127.792 244.966L122.174 247.99C120.259 249.021 117.759 248.102 116.589 245.94Z" fill="#FD5B68"/>
<path d="M133.431 241.981L127.833 244.995L126.77 243.032L132.367 240.019C134.048 239.113 134.702 236.979 134.02 234.994C134.191 235.214 134.352 235.452 134.489 235.708L134.741 236.172C135.923 238.352 135.335 240.953 133.431 241.981Z" fill="#E5E5E4"/>
<path d="M116.207 245.065C116.264 245.197 116.326 245.326 116.396 245.453C116.326 245.324 116.262 245.194 116.207 245.065Z" fill="#DA3832"/>
<path d="M116.645 245.917L116.393 245.453C116.323 245.324 116.261 245.194 116.204 245.065C116.147 244.933 116.097 244.803 116.051 244.671C117.343 246.328 119.49 246.955 121.171 246.049L126.769 243.035L127.832 244.998L122.235 248.011C120.331 249.036 117.828 248.097 116.645 245.917Z" fill="#FD5B68"/>
<path opacity="0.4" d="M130.875 237.05L119.449 243.204C118.982 243.455 118.37 243.232 118.085 242.704L118.025 242.593C117.74 242.065 117.885 241.433 118.352 241.179L129.778 235.025C130.245 234.774 130.857 234.997 131.142 235.528L131.202 235.639C131.49 236.167 131.342 236.799 130.875 237.05Z" fill="white"/>
<path d="M96.8689 238.437L86.3558 244.099C84.566 245.062 82.164 244.092 80.9942 241.93L80.7452 241.472C79.5753 239.31 80.0759 236.775 81.8657 235.81L92.3788 230.147C94.1686 229.184 96.5706 230.155 97.7405 232.317L97.9895 232.775C99.1593 234.937 98.6587 237.474 96.8689 238.437Z" fill="#E5E5E4"/>
<path d="M79.8233 242.559L79.5743 242.101C78.4045 239.939 79.0037 237.35 80.918 236.32L86.5364 233.296L91.0264 241.585L85.408 244.609C83.4937 245.637 80.9932 244.718 79.8233 242.559Z" fill="#FD5B68"/>
<path d="M96.6846 238.598L91.0869 241.611L90.0234 239.649L95.6211 236.635C97.3019 235.729 97.9556 233.596 97.2734 231.61C97.4446 231.83 97.6054 232.069 97.7429 232.325L97.9945 232.788C99.1773 234.968 98.5911 237.573 96.6846 238.598Z" fill="#E5E5E4"/>
<path d="M79.4648 241.681C79.5219 241.813 79.5842 241.943 79.6542 242.07C79.5842 241.94 79.5219 241.813 79.4648 241.681Z" fill="#DA3832"/>
<path d="M79.8987 242.533L79.6471 242.07C79.577 241.94 79.5148 241.811 79.4577 241.682C79.4007 241.55 79.3514 241.42 79.3047 241.288C80.5965 242.945 82.7442 243.572 84.4251 242.665L90.0227 239.652L91.0862 241.614L85.4886 244.628C83.582 245.653 81.0789 244.716 79.8987 242.533Z" fill="#FD5B68"/>
<path opacity="0.4" d="M94.1213 233.666L82.6951 239.82C82.2282 240.071 81.616 239.848 81.3307 239.32L81.271 239.209C80.9857 238.681 81.131 238.049 81.5979 237.795L93.024 231.641C93.4909 231.39 94.1031 231.613 94.3884 232.143L94.4481 232.255C94.736 232.783 94.5908 233.415 94.1213 233.666Z" fill="white"/>
<path d="M123.908 223.877L113.395 229.539C111.605 230.502 109.203 229.531 108.033 227.369L107.784 226.911C106.614 224.749 107.115 222.215 108.905 221.249L119.418 215.587C121.208 214.624 123.61 215.595 124.78 217.757L125.029 218.215C126.198 220.377 125.698 222.914 123.908 223.877Z" fill="#E5E5E4"/>
<path d="M106.862 227.999L106.613 227.54C105.444 225.379 106.043 222.79 107.957 221.759L113.575 218.735L118.065 227.023L112.447 230.046C110.535 231.077 108.032 230.158 106.862 227.999Z" fill="#FD5B68"/>
<path d="M123.716 224.038L118.118 227.051L117.055 225.089L122.652 222.075C124.333 221.169 124.987 219.036 124.305 217.05C124.476 217.27 124.637 217.509 124.774 217.765L125.026 218.228C126.209 220.408 125.622 223.013 123.716 224.038Z" fill="#E5E5E4"/>
<path d="M106.93 227.973L106.678 227.509C106.608 227.38 106.546 227.25 106.489 227.121C106.432 226.989 106.383 226.86 106.336 226.728C107.628 228.384 109.775 229.011 111.456 228.105L117.054 225.091L118.117 227.054L112.52 230.067C110.613 231.092 108.11 230.155 106.93 227.973Z" fill="#FD5B68"/>
<path opacity="0.4" d="M121.156 219.108L109.73 225.262C109.263 225.513 108.651 225.291 108.366 224.762L108.306 224.651C108.021 224.123 108.166 223.491 108.633 223.238L120.059 217.084C120.526 216.832 121.138 217.055 121.424 217.586L121.483 217.697C121.774 218.223 121.626 218.854 121.156 219.108Z" fill="white"/>
<path d="M95.56 215.798L94.293 216.48L147.44 314.806L148.707 314.124L95.56 215.798Z" fill="white"/>
<path d="M214.312 179.016H123.411C119.715 179.016 116.719 182.007 116.719 185.696V321.098C116.719 324.787 119.715 327.775 123.411 327.775H214.312C218.008 327.775 221.002 324.784 221.002 321.098V185.696C221.004 182.007 218.008 179.016 214.312 179.016Z" fill="#E527BB"/>
<path d="M214.309 182.413H123.408C121.594 182.413 120.121 183.886 120.121 185.693V321.095C120.121 322.905 121.597 324.375 123.408 324.375H214.309C216.122 324.375 217.595 322.902 217.595 321.095V185.693C217.598 183.886 216.122 182.413 214.309 182.413Z" fill="white"/>
<path d="M190.505 178.716V186.252C190.505 187.658 189.364 188.797 187.955 188.797H148.834C147.425 188.797 146.284 187.658 146.284 186.252V178.716H144.977V186.493C144.977 188.487 146.595 190.1 148.592 190.1H188.199C190.196 190.1 191.812 188.484 191.812 186.493V178.716H190.505Z" fill="#A78BEF"/>
<path d="M168.401 171.04C166.427 171.04 164.824 172.637 164.824 174.61V180.865H171.976V174.61C171.976 172.64 170.375 171.04 168.401 171.04ZM168.401 175.954C167.574 175.954 166.902 175.283 166.902 174.457C166.902 173.631 167.574 172.961 168.401 172.961C169.229 172.961 169.901 173.631 169.901 174.457C169.901 175.283 169.229 175.954 168.401 175.954Z" fill="#A78BEF"/>
<path d="M191.725 180.865H145.068C144.078 180.865 143.273 180.062 143.273 179.073C143.273 178.084 144.078 177.281 145.068 177.281H191.725C192.716 177.281 193.52 178.084 193.52 179.073C193.52 180.065 192.716 180.865 191.725 180.865Z" fill="#A78BEF"/>
<path d="M175.048 190.589H162.667C162.561 190.589 162.473 190.503 162.473 190.395V188.171C162.473 188.065 162.558 187.977 162.667 187.977H175.048C175.154 187.977 175.242 188.062 175.242 188.171V190.395C175.24 190.503 175.154 190.589 175.048 190.589Z" fill="#A78BEF"/>
<path d="M168.859 226.713C176.94 226.713 183.491 220.174 183.491 212.108C183.491 204.043 176.94 197.504 168.859 197.504C160.778 197.504 154.227 204.043 154.227 212.108C154.227 220.174 160.778 226.713 168.859 226.713Z" fill="#A78BEF"/>
<path d="M161.266 210.229H166.612V205.519C166.612 204.481 167.455 203.64 168.495 203.64C169.535 203.64 170.378 204.481 170.378 205.519V210.229H175.724C176.765 210.229 177.608 211.07 177.608 212.108C177.608 213.147 176.765 213.988 175.724 213.988H170.378V218.697C170.378 219.735 169.535 220.577 168.495 220.577C167.455 220.577 166.612 219.735 166.612 218.697V213.985H161.266C160.226 213.985 159.383 213.144 159.383 212.106C159.383 211.07 160.226 210.229 161.266 210.229Z" fill="white"/>
<path d="M145.892 235.525H137.058C135.468 235.525 134.176 236.812 134.176 238.401V247.219C134.176 248.806 135.465 250.096 137.058 250.096H145.892C147.483 250.096 148.774 248.809 148.774 247.219V238.401C148.774 236.812 147.485 235.525 145.892 235.525Z" fill="#A78BEF"/>
<path d="M204.929 239.103H160.166C159.741 239.103 159.398 239.448 159.398 239.87C159.398 240.292 159.743 240.636 160.166 240.636H204.929C205.355 240.636 205.697 240.292 205.697 239.87C205.697 239.448 205.355 239.103 204.929 239.103Z" fill="#D7E0F7"/>
<path d="M194.197 244.982H170.901C170.475 244.982 170.133 245.327 170.133 245.749C170.133 246.171 170.478 246.515 170.901 246.515H194.197C194.622 246.515 194.964 246.171 194.964 245.749C194.964 245.327 194.622 244.982 194.197 244.982Z" fill="#D7E0F7"/>
<path d="M144.829 238.342C143.379 240.364 141.927 242.386 140.477 244.408C139.468 243.463 138.456 242.515 137.447 241.57C136.838 242.342 136.231 243.116 135.621 243.888C137.333 245.016 139.045 246.148 140.757 247.279C142.944 244.933 145.128 242.59 147.314 240.245C146.49 239.611 145.66 238.976 144.829 238.342Z" fill="#E527BB"/>
<path d="M145.892 255.719H137.058C135.468 255.719 134.176 257.005 134.176 258.595V267.413C134.176 269 135.465 270.289 137.058 270.289H145.892C147.483 270.289 148.774 269.003 148.774 267.413V258.592C148.774 257.005 147.485 255.719 145.892 255.719Z" fill="#A78BEF"/>
<path d="M204.929 259.297H160.166C159.741 259.297 159.398 259.641 159.398 260.063C159.398 260.485 159.743 260.83 160.166 260.83H204.929C205.355 260.83 205.697 260.485 205.697 260.063C205.697 259.641 205.355 259.297 204.929 259.297Z" fill="#D7E0F7"/>
<path d="M194.197 265.177H170.901C170.475 265.177 170.133 265.521 170.133 265.943C170.133 266.365 170.478 266.709 170.901 266.709H194.197C194.622 266.709 194.964 266.365 194.964 265.943C194.964 265.518 194.622 265.177 194.197 265.177Z" fill="#D7E0F7"/>
<path d="M144.829 258.533C143.379 260.555 141.927 262.577 140.477 264.599C139.468 263.654 138.456 262.707 137.447 261.762C136.838 262.533 136.231 263.307 135.621 264.079C137.333 265.208 139.045 266.339 140.757 267.47C142.944 265.125 145.128 262.782 147.314 260.436C146.49 259.804 145.66 259.17 144.829 258.533Z" fill="#E527BB"/>
<path d="M145.892 275.913H137.058C135.468 275.913 134.176 277.2 134.176 278.789V287.607C134.176 289.194 135.465 290.483 137.058 290.483H145.892C147.483 290.483 148.774 289.197 148.774 287.607V278.787C148.774 277.2 147.485 275.913 145.892 275.913Z" fill="#A78BEF"/>
<path d="M204.929 279.491H160.166C159.741 279.491 159.398 279.835 159.398 280.257C159.398 280.679 159.743 281.023 160.166 281.023H204.929C205.355 281.023 205.697 280.679 205.697 280.257C205.697 279.832 205.355 279.491 204.929 279.491Z" fill="#D7E0F7"/>
<path d="M194.197 285.368H170.901C170.475 285.368 170.133 285.712 170.133 286.134C170.133 286.559 170.478 286.9 170.901 286.9H194.197C194.622 286.9 194.964 286.556 194.964 286.134C194.964 285.712 194.622 285.368 194.197 285.368Z" fill="#D7E0F7"/>
<path d="M144.829 278.727C143.379 280.749 141.927 282.771 140.477 284.793C139.468 283.848 138.456 282.9 137.447 281.955C136.838 282.727 136.231 283.501 135.621 284.273C137.333 285.401 139.045 286.533 140.757 287.664C142.944 285.319 145.128 282.976 147.314 280.63C146.49 279.996 145.66 279.361 144.829 278.727Z" fill="#E527BB"/>
<path d="M145.892 296.104H137.058C135.468 296.104 134.176 297.391 134.176 298.981V307.799C134.176 309.386 135.465 310.675 137.058 310.675H145.892C147.483 310.675 148.774 309.388 148.774 307.799V298.981C148.774 297.391 147.485 296.104 145.892 296.104Z" fill="#A78BEF"/>
<path d="M204.929 299.682H160.166C159.741 299.682 159.398 300.026 159.398 300.448C159.398 300.873 159.743 301.215 160.166 301.215H204.929C205.355 301.215 205.697 300.87 205.697 300.448C205.697 300.026 205.355 299.682 204.929 299.682Z" fill="#D7E0F7"/>
<path d="M194.197 305.561H170.901C170.475 305.561 170.133 305.906 170.133 306.328C170.133 306.752 170.478 307.094 170.901 307.094H194.197C194.622 307.094 194.964 306.75 194.964 306.328C194.964 305.906 194.622 305.561 194.197 305.561Z" fill="#D7E0F7"/>
<path d="M144.829 298.921C143.379 300.943 141.927 302.965 140.477 304.987C139.468 304.042 138.456 303.094 137.447 302.149C136.838 302.921 136.231 303.695 135.621 304.466C137.333 305.595 139.045 306.727 140.757 307.858C142.944 305.512 145.128 303.169 147.314 300.824C146.49 300.189 145.66 299.555 144.829 298.921Z" fill="#E527BB"/>
<path d="M214.307 182.413C212.167 274.398 195.548 320.042 120.117 321.095C120.117 322.905 121.593 324.375 123.404 324.375H214.305C216.118 324.375 217.591 322.902 217.591 321.095V185.693C217.596 183.886 216.12 182.413 214.307 182.413Z" fill="#EBEDF7"/>
<path fill-rule="evenodd" clip-rule="evenodd" d="M229.809 226.755C226.21 224.873 224.446 224.594 222.928 226.874C221.968 228.354 221.646 231.036 219.769 231.916C218.047 232.715 218.771 239.479 218.771 240.879C218.771 243.282 221.892 247.203 219.21 250.642C217.73 252.524 219.769 258.522 217.73 260.924C217.371 261.326 217.092 263.805 220.133 264.084C225.094 264.524 227.293 265.243 231.857 263.323C233.578 262.604 247.979 265.162 248.617 263.285C249.738 259.803 245.539 256.365 247.175 252.401C247.175 252.321 246.655 247.558 246.655 246.801C246.655 243.84 245.373 242.96 246.693 238.76C248.012 234.479 246.054 228.917 240.653 228.359C239.575 228.278 237.012 224.636 233.252 225.757L229.809 226.755Z" fill="#231F20"/>
<path fill-rule="evenodd" clip-rule="evenodd" d="M224.13 300.216H242.211C245.289 300.216 247.81 302.737 247.81 305.859C247.81 308.938 245.289 311.502 242.211 311.502H224.13C221.009 311.502 218.488 308.943 218.488 305.859C218.488 302.737 221.009 300.216 224.13 300.216Z" fill="#606060"/>
<path fill-rule="evenodd" clip-rule="evenodd" d="M233.449 257.282H233.369H233.17H233.132H232.934H232.896C230.418 257.282 227.854 257.282 225.296 257.524C222.576 257.765 219.895 258.285 217.417 259.283C211.136 263.526 203.096 282.569 204.373 289.853C205.891 294.214 217.095 293.774 225.296 294.815V295.855H239.38V295.056C247.661 293.694 260.345 294.536 261.981 289.853C263.22 282.569 255.18 263.526 248.938 259.283C244.09 257.325 238.528 257.282 233.449 257.282Z" fill="#A78BEF"/>
<path fill-rule="evenodd" clip-rule="evenodd" d="M207.487 326.302L205.605 321.099C204.886 320.46 202.763 320.058 201.765 319.978C198.365 320.219 192.164 320.176 192.004 322.499C191.805 325.739 199.925 327.219 202.526 327.021L207.487 326.302Z" fill="#A78BEF"/>
<path fill-rule="evenodd" clip-rule="evenodd" d="M212.163 324.982L210.243 319.339L205.684 321.179C205.003 323.298 205.925 325.181 207.486 326.302L212.163 324.982Z" fill="#FF9866"/>
<path fill-rule="evenodd" clip-rule="evenodd" d="M211.486 326.184C209.888 324.145 208.526 321.704 208.445 318.942C219.805 314.983 265.935 289.692 273.336 297.775C282.417 310.22 227.367 320.583 211.486 326.184Z" fill="#231F20"/>
<path fill-rule="evenodd" clip-rule="evenodd" d="M258.852 326.302L260.691 321.099C261.453 320.46 263.571 320.058 264.531 319.978C267.932 320.219 274.132 320.176 274.331 322.499C274.491 325.739 266.371 327.219 263.808 327.021L258.852 326.302Z" fill="#A78BEF"/>
<path fill-rule="evenodd" clip-rule="evenodd" d="M254.133 324.982L256.091 319.339L260.612 321.179C261.331 323.298 260.371 325.181 258.853 326.302L254.133 324.982Z" fill="#FF9866"/>
<path fill-rule="evenodd" clip-rule="evenodd" d="M254.851 326.184C256.45 324.145 257.774 321.704 257.85 318.942C246.49 314.983 200.403 289.692 193.001 297.775C183.921 310.22 238.932 320.583 254.851 326.184Z" fill="#231F20"/>
<path fill-rule="evenodd" clip-rule="evenodd" d="M214.686 276.571H251.651C252.772 276.571 253.732 277.531 253.732 278.652V303.418C253.732 304.577 252.772 305.499 251.651 305.499H214.686C213.528 305.499 212.605 304.577 212.605 303.418V278.652C212.61 277.531 213.528 276.571 214.686 276.571Z" fill="#E527BB"/>
<path fill-rule="evenodd" clip-rule="evenodd" d="M233.169 287.412C233.207 287.412 233.249 287.412 233.287 287.412C233.249 287.653 233.207 287.852 233.207 288.093C233.207 289.692 234.526 291.016 236.129 291.016C236.371 291.016 236.569 290.978 236.768 290.936C236.768 290.974 236.768 291.016 236.768 291.054C236.768 293.055 235.169 294.654 233.169 294.654C231.168 294.654 229.527 293.055 229.527 291.054C229.532 289.053 231.173 287.412 233.169 287.412Z" fill="white"/>
<path fill-rule="evenodd" clip-rule="evenodd" d="M228.527 249.204C228.565 252.406 228.608 255.603 228.646 258.806C231.204 262.485 236.165 261.804 238.326 258.806L237.967 248.641L228.527 249.204Z" fill="#FF9866"/>
<path fill-rule="evenodd" clip-rule="evenodd" d="M233.452 234.716L223.449 234.597C225.128 245.079 223.487 255.523 233.329 256.284V256.322C233.367 256.322 233.409 256.322 233.447 256.322C233.485 256.322 233.527 256.322 233.565 256.322V256.284C243.364 255.523 241.766 245.079 243.407 234.597L233.452 234.716Z" fill="#FFAA81"/>
<path fill-rule="evenodd" clip-rule="evenodd" d="M221.566 234.479C222.928 234.881 220.526 237.038 224.248 237.8C224.687 237.88 224.929 237.998 227.809 238.079C229.767 238.117 228.211 236.958 231.767 237.961C234.567 238.76 234.926 235.841 237.527 239.521C237.929 240.122 242.167 241.442 242.848 241.48C244.21 241.517 245.728 243.48 245.728 239.559C245.728 238.079 246.21 234.716 245.567 234.12C243.529 232.162 239.807 233.079 237.206 232.162C234.685 231.282 234.364 230.08 230.164 230.161C227.482 230.199 226.726 233.443 222.602 233.841C222.29 233.836 221.448 234.437 221.566 234.479Z" fill="#231F20"/>
<g clip-path="url(#clip1_1267_13532)">
<path d="M370.537 130.589C368.906 131.799 367.927 133.659 367.855 135.689C367.542 144.85 366.309 161.004 361.644 166.235C361.259 166.664 361.298 167.328 361.729 167.711C361.859 167.829 362.003 167.9 362.159 167.946C362.531 168.037 362.942 167.933 363.21 167.627C368.057 162.188 369.551 147.296 369.949 135.761C370.002 134.369 370.667 133.1 371.789 132.267C372.905 131.441 374.321 131.174 375.665 131.525C375.867 131.577 376.069 131.564 376.252 131.506L376.611 130.088C376.637 129.99 376.669 129.899 376.708 129.808C376.578 129.665 376.402 129.554 376.206 129.502C374.236 128.988 372.174 129.378 370.537 130.589Z" fill="#E527BB"/>
<path d="M378.482 128.975C377.752 128.793 377.014 129.157 376.708 129.808C376.669 129.899 376.636 129.99 376.61 130.088L376.251 131.506L366.504 169.923L374.842 172.031L384.954 132.195C385.163 131.376 384.661 130.536 383.839 130.328L382.958 130.107L379.363 129.196L378.482 128.975Z" fill="#A78BEF"/>
<path d="M380.433 125L379.363 129.196L382.958 130.107L384.022 125.904L380.433 125Z" fill="#E527BB"/>
<path d="M366.504 169.923L365.453 174.042H365.46L373.798 176.15L374.841 172.031L366.504 169.93V169.923Z" fill="#E527BB"/>
<path d="M365.461 174.042L357.287 206.246C356.438 209.577 356.014 213.006 356.008 216.441V217.254C357.972 217.007 359.935 217.326 361.469 218.679L361.88 217.924C363.517 214.899 364.776 211.685 365.624 208.348L373.799 176.143L365.461 174.042Z" fill="#A78BEF"/>
<path d="M356.007 217.261L356 226.401C356 227.026 356.835 227.234 357.135 226.688L361.141 219.297L361.467 218.685C359.934 217.332 357.97 217.013 356.007 217.261Z" fill="#960C78"/>
</g>
</g>
<defs>
<clipPath id="clip0_1267_13532">
<rect width="542.64" height="328.79" fill="white"/>
</clipPath>
<clipPath id="clip1_1267_13532">
<rect width="29" height="102" fill="white" transform="translate(356 125)"/>
</clipPath>
</defs>
</svg>
