<svg width="543" height="329" viewBox="0 0 543 329" fill="none" xmlns="http://www.w3.org/2000/svg">
<g clip-path="url(#clip0_1267_12129)">
<path opacity="0.2" d="M128.492 325.584L413.142 308.934C488.412 304.534 546.652 240.734 543.512 165.394C540.872 102.084 518.192 34.6439 441.912 5.8239C388.262 -14.4461 318.592 2.1439 274.402 35.8539C263.782 43.9539 254.022 53.2439 242.612 60.1739C216.022 76.3239 192.672 65.1739 164.972 60.8839C106.412 51.7939 47.9621 70.4639 17.7021 124.434C-28.7579 207.354 26.0421 331.574 128.492 325.584Z" fill="#999999"/>
<g clip-path="url(#clip1_1267_12129)">
<path d="M353.981 86.8357V187.013H176.812V86.8357C176.812 81.358 181.26 76.9194 186.735 76.9194H344.053C349.546 76.9194 353.981 81.358 353.981 86.8357Z" fill="white"/>
<path d="M353.981 86.8357V90.3073H176.812V86.8357C176.812 81.358 181.26 76.9194 186.735 76.9194H344.053C349.546 76.9194 353.981 81.358 353.981 86.8357Z" fill="#E527BB"/>
<path d="M344.144 180.965H186.082V93.6768H344.144V180.965ZM187.074 179.974H343.147V94.6738H187.074V179.974Z" fill="#A78BEF"/>
<path d="M209.656 94.6677H208.664V179.974H209.656V94.6677Z" fill="#A78BEF"/>
<path d="M232.484 94.6677H231.492V179.974H232.484V94.6677Z" fill="#A78BEF"/>
<path d="M255.316 94.6677H254.324V179.974H255.316V94.6677Z" fill="#A78BEF"/>
<path d="M276.98 94.6677H275.988V179.974H276.98V94.6677Z" fill="#A78BEF"/>
<path d="M300.222 94.6677H299.23V179.974H300.222V94.6677Z" fill="#A78BEF"/>
<path d="M322.804 94.6677H321.812V179.974H322.804V94.6677Z" fill="#A78BEF"/>
<path d="M343.731 115.089H186.414V116.08H343.731V115.089Z" fill="#A78BEF"/>
<path d="M343.731 136.747H186.414V137.738H343.731V136.747Z" fill="#A78BEF"/>
<path d="M343.731 158.406H186.414V159.397H343.731V158.406Z" fill="#A78BEF"/>
<path d="M251.841 117.485H233.973V135.342H251.841V117.485Z" fill="#E527BB"/>
<path d="M229.357 117.485H211.488V135.342H229.357V117.485Z" fill="#E527BB"/>
<path d="M206.853 117.485H188.984V135.342H206.853V117.485Z" fill="#E527BB"/>
<path d="M274.665 117.485H256.797V135.342H274.665V117.485Z" fill="#E527BB"/>
<path d="M296.755 117.485H278.887V135.342H296.755V117.485Z" fill="#E527BB"/>
<path d="M319.579 117.485H301.711V135.342H319.579V117.485Z" fill="#F9D4E1"/>
<path d="M341.669 117.485H323.801V135.342H341.669V117.485Z" fill="#E527BB"/>
<path d="M191.207 96.0732H188.562V98.716H191.207V96.0732Z" fill="#A78BEF"/>
<path d="M214.203 96.0732H211.559V98.716H214.203V96.0732Z" fill="#A78BEF"/>
<path d="M237.027 96.0732H234.383V98.716H237.027V96.0732Z" fill="#A78BEF"/>
<path d="M259.523 96.0732H256.879V98.716H259.523V96.0732Z" fill="#A78BEF"/>
<path d="M281.359 96.0732H278.715V98.716H281.359V96.0732Z" fill="#A78BEF"/>
<path d="M304.355 96.0732H301.711V98.716H304.355V96.0732Z" fill="#A78BEF"/>
<path d="M327.352 96.0732H324.707V98.716H327.352V96.0732Z" fill="#A78BEF"/>
<path d="M191.207 117.75H188.562V120.392H191.207V117.75Z" fill="white"/>
<path d="M214.203 117.75H211.559V120.392H214.203V117.75Z" fill="white"/>
<path d="M237.027 117.75H234.383V120.392H237.027V117.75Z" fill="white"/>
<path d="M259.523 117.75H256.879V120.392H259.523V117.75Z" fill="white"/>
<path d="M281.359 117.75H278.715V120.392H281.359V117.75Z" fill="white"/>
<path d="M304.355 117.75H301.711V120.392H304.355V117.75Z" fill="#80CDD1"/>
<path d="M327.352 117.75H324.707V120.392H327.352V117.75Z" fill="white"/>
<path d="M191.207 139.39H188.562V142.033H191.207V139.39Z" fill="#80CDD1"/>
<path d="M214.203 139.39H211.559V142.033H214.203V139.39Z" fill="#A78BEF"/>
<path d="M237.027 139.39H234.383V142.033H237.027V139.39Z" fill="#A78BEF"/>
<path d="M259.523 139.39H256.879V142.033H259.523V139.39Z" fill="#A78BEF"/>
<path d="M281.359 139.39H278.715V142.033H281.359V139.39Z" fill="#A78BEF"/>
<path d="M304.355 139.39H301.711V142.033H304.355V139.39Z" fill="#80CDD1"/>
<path d="M327.352 139.39H324.707V142.033H327.352V139.39Z" fill="#80CDD1"/>
<path d="M191.207 160.88H188.562V163.523H191.207V160.88Z" fill="#A78BEF"/>
<path d="M214.203 160.88H211.559V163.523H214.203V160.88Z" fill="#A78BEF"/>
<path d="M237.027 160.88H234.383V163.523H237.027V160.88Z" fill="#A78BEF"/>
<path d="M259.523 160.88H256.879V163.523H259.523V160.88Z" fill="#A78BEF"/>
<path d="M281.359 160.88H278.715V163.523H281.359V160.88Z" fill="#A78BEF"/>
<path d="M304.355 160.88H301.711V163.523H304.355V160.88Z" fill="#80CDD1"/>
<path d="M327.352 160.88H324.707V163.523H327.352V160.88Z" fill="#80CDD1"/>
<path d="M189.061 84.8476C190.157 84.8476 191.045 83.9602 191.045 82.8656C191.045 81.7709 190.157 80.8835 189.061 80.8835C187.966 80.8835 187.078 81.7709 187.078 82.8656C187.078 83.9602 187.966 84.8476 189.061 84.8476Z" fill="white"/>
<path d="M194.765 84.8476C195.86 84.8476 196.748 83.9602 196.748 82.8656C196.748 81.7709 195.86 80.8835 194.765 80.8835C193.669 80.8835 192.781 81.7709 192.781 82.8656C192.781 83.9602 193.669 84.8476 194.765 84.8476Z" fill="white"/>
<path d="M200.061 84.8476C201.157 84.8476 202.045 83.9602 202.045 82.8656C202.045 81.7709 201.157 80.8835 200.061 80.8835C198.966 80.8835 198.078 81.7709 198.078 82.8656C198.078 83.9602 198.966 84.8476 200.061 84.8476Z" fill="white"/>
<path d="M198.015 128.393C198.556 126.393 193.099 130.068 192.456 130.399C190.616 131.36 188.849 132.459 187.082 133.552C187.593 131.78 188.044 129.516 186.734 129.804C186.415 129.876 186.169 131.132 185.971 131.396C185.574 131.93 184.991 132.243 184.504 132.663C183.597 133.444 182.689 134.249 182.052 135.246C181.553 136.027 181.259 137.414 180.784 138.591C180.237 139.138 179.714 139.841 179.173 140.573C178.26 141.811 177.304 143.084 176.102 143.618C176.06 144.195 180.724 148.61 180.237 148.844C182.683 147.649 184.66 145.673 187.227 144.604C188.693 143.991 190.466 143.649 191.807 142.772C193.652 141.564 193.904 139.138 194.144 137.114C194.175 136.849 194.325 135.87 194.295 135.486C194.169 133.624 193.291 133.408 194.709 131.606C195.449 130.669 197.57 129.588 197.961 128.531C197.985 128.489 198.003 128.435 198.015 128.393Z" fill="#FFBBB5"/>
<path d="M150.71 150.766C152.243 152.327 155.043 152.736 156.961 151.673L179.048 139.216L184.097 147.979L155.753 168.184C153.955 169.445 151.071 169.409 149.304 168.112L124.211 149.637L127.685 127.318L150.71 150.766Z" fill="#A78BEF"/>
<path d="M145.101 324.405C145.083 324.808 145.053 325.18 145.017 325.547C144.915 326.057 144.848 326.261 144.398 326.526C144.247 326.61 144.067 326.676 143.899 326.724C143.099 326.694 142.294 326.676 141.495 326.676C140.124 326.658 138.754 326.658 137.372 326.676C135.316 326.676 133.279 326.706 131.259 326.742C130.556 326.76 129.835 326.76 129.12 326.772C127.184 326.808 125.243 326.826 123.29 326.826C122.418 326.826 121.553 326.826 120.669 326.808C120.399 326.808 120.134 326.808 119.852 326.79C118.482 326.688 117.147 326.369 116.444 325.084C116.378 324.952 116.312 324.838 116.258 324.706C116.144 324.423 116.042 324.135 115.957 323.835C115.873 323.619 115.825 323.396 115.771 323.186C115.705 322.886 115.639 322.585 115.603 322.285C115.567 322.015 115.555 321.751 115.555 321.486C115.555 321.318 115.555 321.168 115.573 321.024C115.591 320.639 115.639 320.273 115.705 319.925C115.705 319.871 115.723 319.823 115.723 319.793C115.795 319.456 115.873 319.144 115.957 318.82C116.324 317.438 116.925 316.303 117.508 315.45C118.343 314.195 119.041 313.126 119.443 311.624C119.792 310.243 119.93 308.819 120.098 307.402C120.964 299.732 120.026 293.852 119.81 292.266C119.624 290.999 119.461 289.317 119.395 287.311C119.329 285.209 119.365 282.758 119.612 280.086C120.165 274.181 121.769 267.322 125.604 261.1C126.662 259.382 127.689 258.079 128.362 257.244C128.062 255.34 127.761 253.436 127.461 251.538C126.962 248.403 126.463 245.28 125.958 242.126C125.922 241.958 125.91 241.796 125.874 241.628C125.772 241.039 125.694 240.457 125.61 239.874C127.779 240.409 129.949 240.943 132.137 241.496C133.104 241.712 134.06 241.946 135.028 242.18C136.332 242.499 137.636 242.835 138.952 243.147C139.019 246.667 138.952 249.808 138.82 252.427C138.7 254.577 138.568 256.379 138.436 257.797C137.035 273.214 133.507 280.59 130.286 299.96C129.799 302.897 129.384 305.852 128.981 308.783C128.735 310.567 128.014 312.519 128.531 314.321C129.168 316.489 131.62 317.288 133.507 318.075C135.31 318.826 137.113 319.444 138.934 320.147C140.154 320.627 141.357 321.144 142.559 321.781C142.721 321.865 142.871 321.943 143.039 322.045C143.238 322.165 143.442 322.267 143.622 322.399C144.157 322.73 144.572 323.096 144.824 323.583C144.969 323.823 145.071 324.087 145.101 324.405Z" fill="#FFBBB5"/>
<path d="M128.659 260.151C121.897 275.851 116.188 288.116 108.068 300.915C105.063 305.654 102.49 312.213 98.8722 317.582C98.5357 318.081 98.1871 318.567 97.8385 319.048C96.0354 321.498 93.5171 325.234 90.524 326.243C87.9877 327.09 83.4801 327.378 82.3922 324.237C80.6072 319.03 85.3493 315.21 89.0215 312.057C89.6886 311.492 90.3077 310.957 90.8606 310.423C91.2934 310.002 91.7141 309.588 92.1167 309.15C95.6748 305.36 98.6979 301.672 100.934 296.939C105.526 287.275 103.771 280.92 106.728 271.31C108.663 265.016 113.207 259.983 115.34 253.79C116.747 249.718 114.276 240.961 120.383 239.472C123.105 238.805 127.114 241.676 129.482 246.499C129.759 252.175 129.993 257.01 128.659 260.151Z" fill="#FFBBB5"/>
<path d="M145.017 325.547C144.915 326.057 144.848 326.261 144.398 326.526C144.247 326.61 144.067 326.676 143.899 326.724C143.148 326.904 142.264 326.694 141.495 326.676C140.124 326.658 138.754 326.658 137.372 326.676C135.316 326.676 133.279 326.706 131.259 326.742C130.556 326.76 129.835 326.76 129.12 326.772C127.184 326.808 125.243 326.826 123.29 326.826H121.337C121.12 326.826 120.886 326.826 120.669 326.808C120.399 326.808 120.134 326.808 119.852 326.79C118.482 326.688 117.147 326.369 116.444 325.084C116.378 324.952 116.312 324.838 116.258 324.706C116.144 324.423 116.042 324.135 115.957 323.835C115.873 323.619 115.825 323.396 115.771 323.186C115.705 322.886 115.639 322.585 115.603 322.285C115.567 322.015 115.555 321.751 115.555 321.486C115.555 321.318 115.555 321.168 115.573 321.024C115.591 320.639 115.639 320.273 115.705 319.925C115.705 319.871 115.723 319.823 115.723 319.793C115.795 319.456 115.873 319.144 115.957 318.82C118.53 321.258 126.205 326.712 138.928 320.159C139.415 319.907 142.054 321.528 142.553 321.793C142.715 321.877 142.865 321.955 143.033 322.057C143.232 322.177 143.436 322.279 143.616 322.411C144.151 322.742 144.566 323.108 144.818 323.595C144.951 323.823 145.053 324.093 145.083 324.405C145.137 324.76 145.119 325.126 145.017 325.547Z" fill="#A78BEF"/>
<path d="M98.8722 317.582C98.5357 318.081 98.1871 318.567 97.8385 319.048C96.0354 321.498 93.5171 325.234 90.524 326.243C87.9877 327.09 83.4801 327.378 82.3922 324.237C80.6072 319.03 85.3493 315.21 89.0215 312.057C86.2027 318.183 88.9013 322.537 98.8722 317.582Z" fill="#A78BEF"/>
<path d="M119.668 280.332C119.765 280.332 119.861 280.278 119.897 280.182L130.889 254.733C130.944 254.607 130.883 254.463 130.757 254.409C130.631 254.355 130.481 254.415 130.427 254.541L119.434 279.989C119.38 280.116 119.44 280.266 119.566 280.32C119.602 280.332 119.638 280.332 119.668 280.332Z" fill="white"/>
<path d="M100.91 86.7696C96.4747 87.9047 93.8783 92.2052 92.6042 96.7579C88.6675 110.836 90.3563 126.128 87.5195 140.237C92.9227 140.861 98.1456 139.943 103.477 139.876C104.649 130.032 104.138 120.705 103.2 110.981C102.797 106.806 102.082 102.073 103.236 97.9531C103.801 95.923 104.685 94.2413 106.428 93.2262C107.636 92.5235 109.998 93.0881 110.454 91.5505C110.821 90.3132 108.97 88.5654 108.237 88.0008C106.253 86.4693 103.236 86.175 100.91 86.7696Z" fill="#231F20"/>
<path d="M101.854 76.7874C107.359 73.7542 113.898 75.6582 119.367 72.541C122.042 71.0214 125.155 68.2525 128.329 70.4028C130.612 71.9524 134.489 77.2498 133.479 80.1929C132.71 82.4512 129.543 81.6824 127.625 82.199C125.317 82.8176 122.649 83.0398 120.557 84.2771C118.147 85.7066 115.473 87.5084 113.291 89.1842C111.103 90.8539 110.749 94.0132 108.339 95.5387C105.364 97.4067 102.551 94.806 101.217 92.1933C98.5059 86.8838 95.2784 80.4091 101.854 76.7874Z" fill="#E527BB"/>
<path d="M127.031 113.215C127.031 113.215 127.476 126.723 127.476 126.729C127.482 127.095 128.618 128.11 128.84 128.417C129.766 129.678 130.649 131.077 131.118 132.579C131.551 133.96 131.701 135.522 130.77 136.753C129.147 138.886 125.361 137.252 123.587 136.069C120.991 134.333 118.888 131.618 117.127 129.095L113.875 124.813L115.498 110.044L126.731 112.404L127.031 113.215Z" fill="#FFBBB5"/>
<path d="M123.429 83.3702C129.15 82.7276 134.596 85.1781 136.459 91.7729C138.021 97.2926 137.715 103.515 136.573 109.083C135.004 116.735 127.816 120.164 120.454 116.981C112.857 113.702 111.45 104.644 110.753 97.3167C110.248 92.0612 112.502 87.5986 117.262 85.2322C119.246 84.2411 121.355 83.6045 123.429 83.3702Z" fill="#FFBBB5"/>
<path d="M136.81 85.5445C134.677 81.5804 131.107 78.7875 126.401 78.5773C123.864 78.4631 120.565 79.1599 118.449 80.5713C116.177 82.0789 117.493 83.5024 118.329 85.3342C119.747 88.4575 120.312 92.2534 121.063 95.5688C120.889 94.782 138.649 93.6889 138.595 94.5658C138.782 91.2203 138.415 88.5235 136.81 85.5445Z" fill="#231F20"/>
<path d="M119.147 81.4481C115.793 80.4811 111.971 81.388 109.404 83.7424C106.279 86.6074 105.371 90.9018 105.534 94.9861C105.702 99.1243 106.682 104.206 109.591 107.341C110.991 108.842 113.557 111.641 115.174 112.831C115.246 109.677 113.659 107.263 114.537 104.278C115 102.698 116.677 99.3045 117.572 98.0132C119.736 94.896 125.776 83.3641 119.147 81.4481Z" fill="#231F20"/>
<path d="M112.408 103.293C112.66 105.972 114.151 108.026 115.737 107.875C117.324 107.731 118.4 105.431 118.147 102.758C117.895 100.079 116.404 98.0253 114.818 98.1755C113.237 98.3196 112.155 100.614 112.408 103.293Z" fill="#FFBBB5"/>
<path d="M106.609 85.8627C107.229 85.0459 107.914 84.2831 108.701 83.6164C111.117 81.5623 113.641 79.8265 116.574 78.5712C120.349 76.9495 124.808 75.5981 128.949 76.1507C130.999 76.421 132.964 77.2558 134.19 78.9796C135.813 81.25 135.002 81.7305 132.61 81.4422C125.884 80.6313 118.786 82.1869 113.383 86.5775C112.091 87.6286 110.648 89.034 109.699 90.3974C108.208 92.5477 106.694 95.3826 106.141 97.9472C105.912 99.0103 104.362 98.0433 104.067 97.701C103.442 96.9562 103.502 95.6168 103.388 94.7219C102.961 91.4185 104.746 88.3373 106.609 85.8627Z" fill="#C618A5"/>
<path d="M126.74 118.314C125.875 118.314 118.314 118.08 115.086 110.212C114.996 109.984 115.105 109.725 115.327 109.635C115.555 109.545 115.814 109.653 115.904 109.876C119.071 117.606 126.476 117.443 126.782 117.425C127.023 117.437 127.233 117.606 127.239 117.852C127.245 118.098 127.059 118.302 126.812 118.308C126.812 118.314 126.788 118.314 126.74 118.314Z" fill="#FFBBB5"/>
<path d="M114.312 105.167C114.084 105.167 113.892 104.993 113.874 104.764C113.868 104.68 113.85 104.56 113.826 104.404C113.633 103.041 113.477 101.533 114.15 100.872C114.324 100.698 114.643 100.506 115.13 100.584C115.394 100.62 115.761 100.782 115.989 101.323C116.085 101.545 115.983 101.809 115.755 101.905C115.532 102.002 115.268 101.899 115.172 101.671C115.118 101.539 115.058 101.467 114.992 101.461C114.835 101.437 114.787 101.479 114.763 101.503C114.354 101.905 114.613 103.689 114.691 104.278C114.715 104.446 114.733 104.584 114.745 104.68C114.769 104.921 114.589 105.137 114.348 105.161C114.342 105.167 114.33 105.167 114.312 105.167Z" fill="#A86770"/>
<path d="M120.479 101.203C120.287 101.203 120.094 101.125 119.95 100.974C119.674 100.68 119.686 100.218 119.974 99.9413C122.787 97.2746 126.237 98.3857 126.381 98.4338C126.766 98.5599 126.97 98.9743 126.844 99.3587C126.718 99.7431 126.303 99.9473 125.924 99.8212C125.804 99.7792 123.141 98.9563 120.984 101.004C120.84 101.137 120.659 101.203 120.479 101.203Z" fill="#FFBBB5"/>
<path d="M130.227 108.602C130.023 108.602 129.86 108.44 129.86 108.236C129.86 108.032 130.023 107.87 130.227 107.87C130.563 107.87 130.996 107.821 131.14 107.581C131.411 107.131 130.822 106.032 130.467 105.377C130.353 105.167 130.251 104.981 130.185 104.83C129.656 103.677 129.458 101.749 130.137 100.458C130.233 100.278 130.449 100.212 130.63 100.308C130.81 100.404 130.876 100.62 130.78 100.8C130.233 101.845 130.383 103.521 130.846 104.53C130.912 104.668 131.002 104.842 131.104 105.035C131.585 105.93 132.24 107.149 131.76 107.96C131.507 108.386 130.99 108.602 130.227 108.602Z" fill="#FFBBB5"/>
<path d="M128.424 112.2C127.144 112.2 125.653 111.816 124.211 110.554C124.061 110.422 124.043 110.194 124.175 110.038C124.307 109.888 124.535 109.87 124.692 110.002C127.973 112.873 131.507 110.656 131.543 110.632C131.712 110.524 131.94 110.572 132.048 110.74C132.156 110.909 132.108 111.137 131.94 111.245C131.922 111.263 130.425 112.2 128.424 112.2Z" fill="#FFBBB5"/>
<path d="M122.668 102.95C122.668 103.683 123.047 104.284 123.515 104.284C123.984 104.284 124.363 103.689 124.363 102.95C124.363 102.218 123.984 101.623 123.515 101.623C123.047 101.623 122.668 102.218 122.668 102.95Z" fill="#FFBBB5"/>
<path d="M133.16 102.14C133.16 102.872 133.539 103.467 134.008 103.467C134.476 103.467 134.861 102.872 134.861 102.14C134.861 101.407 134.476 100.812 134.008 100.812C133.539 100.806 133.16 101.401 133.16 102.14Z" fill="#FFBBB5"/>
<path d="M116.915 127.035C116.915 127.035 125.624 132.345 129.873 129.372C129.873 129.372 142.194 148.478 139.856 155.697C139.856 155.697 137.097 164.808 137.091 164.826C136.55 166.616 137.752 170.25 137.975 172.058C138.696 177.98 139.423 183.908 140.144 189.83C142.603 209.969 144.658 230.24 147.549 250.301C143.751 250.265 140.114 251.826 136.286 251.628C132.596 251.436 128.947 250.397 125.365 250.307C121.627 250.211 119.313 251.538 115.773 251.628C114.547 251.658 99.263 247.184 98.9023 249.646C98.9264 249.478 116.915 127.035 116.915 127.035Z" fill="#E527BB"/>
<path d="M135.04 251.814C135.094 252.865 135.16 253.55 135.226 253.574C131.746 252.385 127.984 253.875 124.414 253.61C121.27 253.382 118.319 252.025 115.11 252.613C111.233 253.322 109.028 253.658 105.259 252.529C101.467 251.388 96.2439 254.403 95.156 250.187C94.4408 247.424 95.757 242.781 95.9854 239.916C96.6105 232.186 97.2356 224.456 97.8606 216.726C98.6179 207.386 99.3752 198.041 100.126 188.701C99.8079 172.148 97.2416 151.439 97.2416 151.439C94.7594 132.759 109.256 123.63 109.256 123.63C130.935 126.813 131.993 146.976 131.993 146.976L131.668 169.908C131.969 174.647 132.251 179.404 132.552 184.142C133.219 194.87 133.369 205.645 133.766 216.378C134.06 224.246 134.355 232.108 134.691 239.97C134.733 240.799 134.853 248.325 135.04 251.814Z" fill="#A78BEF"/>
<path d="M118.298 168.646L129.422 168.514L128.815 176.286L117.023 177.884L118.298 168.646Z" fill="#FFBBB5"/>
<path d="M142.517 170.448C142.45 170.328 142.342 170.19 142.162 170.022C141.633 169.535 140.665 169.415 139.992 169.301C138.406 169.025 136.735 169.139 135.172 168.778C134.066 168.526 129.324 167.157 128.789 168.995C128.224 169.055 127.725 169.259 127.713 170.178C126.698 170.394 126.547 171.535 127.281 172.142C126.121 172.58 126.758 174.833 127.725 175.301C126.812 178.01 132.413 178.376 133.976 178.232C134.926 178.142 141.723 176.671 139.806 175.313C141.284 175.361 142.498 174.292 141.11 173.025C142.643 173.289 142.36 172.322 141.657 171.655C142.787 171.511 142.517 170.448 142.517 170.448Z" fill="#FFBBB5"/>
<path d="M118.826 167.799L117.131 180.112L94.4003 180.539C94.4003 180.539 88.0234 180.112 88.0234 172.677C89.3938 167.595 90.7581 162.514 92.1284 157.439C93.4026 152.706 95.0494 148.033 96.1913 143.318C96.8284 140.693 98.0004 138.015 99.6291 135.852C101.564 133.288 106.15 132.447 108.452 134.855C111.433 137.967 111.103 143.09 109.702 146.784L103.325 167.583L118.826 167.799Z" fill="#A78BEF"/>
<path d="M118.825 168.118C118.819 168.118 103.313 167.902 103.313 167.902C103.211 167.902 103.115 167.854 103.061 167.769C103 167.685 102.982 167.583 103.019 167.487L110.243 145.198C110.297 145.03 110.477 144.94 110.645 144.994C110.814 145.048 110.904 145.228 110.85 145.396L103.758 167.277L118.831 167.487C119.006 167.487 119.15 167.631 119.144 167.812C119.138 167.98 119 168.118 118.825 168.118Z" fill="white"/>
<path d="M99.4008 180.857C99.2265 180.857 99.0822 180.719 99.0822 180.545C99.0762 180.37 99.2204 180.22 99.3947 180.22C101.709 180.178 104.588 180.1 107.46 180.022C110.339 179.944 113.212 179.866 115.532 179.824L117.125 179.794C117.281 179.788 117.443 179.932 117.449 180.106C117.455 180.28 117.311 180.431 117.137 180.431L115.544 180.461C113.23 180.503 110.351 180.581 107.478 180.659C104.6 180.737 101.721 180.815 99.4008 180.857Z" fill="white"/>
<path d="M109.479 125.336L109.059 116.633C109.059 116.633 125.31 117.852 124.992 133.936L109.479 125.336Z" fill="#A78BEF"/>
<path d="M155.806 152.189C155.709 152.189 155.625 152.135 155.583 152.045C155.523 151.919 155.577 151.775 155.703 151.715C155.824 151.655 168.06 145.853 178.921 139C179.035 138.928 179.191 138.958 179.263 139.078C179.335 139.192 179.299 139.348 179.185 139.42C168.295 146.291 156.04 152.105 155.914 152.165C155.878 152.183 155.842 152.189 155.806 152.189Z" fill="#A78BEF"/>
<path d="M154.154 169.385C154.076 169.385 153.998 169.349 153.95 169.277C153.872 169.163 153.902 169.013 154.016 168.935C154.19 168.814 171.674 156.76 183.111 147.126C183.213 147.036 183.37 147.048 183.46 147.156C183.55 147.258 183.538 147.414 183.43 147.504C171.974 157.156 154.473 169.223 154.298 169.343C154.25 169.367 154.202 169.385 154.154 169.385Z" fill="#A78BEF"/>
<path d="M340.661 241.61V243.087C336.556 242.697 331.958 242.475 327.06 242.475C319.938 242.475 313.338 242.937 307.989 243.718L295.494 241.862L294.899 248.649C294.605 252.06 308.512 254.817 325.978 254.817C343.438 254.817 357.838 252.054 358.133 248.649L358.728 241.862L340.661 241.61Z" fill="#C618A5"/>
<path d="M358.732 241.856C358.432 245.261 344.037 248.024 326.572 248.024C309.112 248.024 295.198 245.261 295.493 241.856C295.793 238.444 310.188 235.681 327.653 235.681C345.119 235.681 359.033 238.444 358.732 241.856Z" fill="#A30F8E"/>
<path d="M326.615 315.15C324.661 312.483 324.295 308.915 324.265 306.777L328.424 259.262C329.8 256.301 334.969 252.229 334.969 252.229L324.818 252.511L314.714 252.229C314.714 252.229 319.174 256.301 320.028 259.262L315.935 306.05C315.478 308.933 314.714 311.149 314.228 312.345C312.875 314.609 310.423 317.456 306.324 318.513H315.832H322.257H331.765C329.403 317.864 327.769 316.567 326.615 315.15Z" fill="#C618A5"/>
<path d="M334.909 320.027C331.531 319.618 327.18 319.366 322.389 319.366C318.495 319.366 314.865 319.534 311.787 319.816L302.736 319.552L302.502 322.207C302.363 323.775 311.048 325.042 321.891 325.042C332.739 325.042 341.64 323.769 341.778 322.207L342.007 319.552L334.909 320.027Z" fill="#A30F8E"/>
<path d="M341.898 319.366C341.898 320.933 333.111 322.207 322.256 322.207C311.414 322.207 302.621 320.933 302.621 319.366C302.621 317.798 311.414 316.525 322.256 316.525C333.111 316.525 341.898 317.798 341.898 319.366Z" fill="#C618A5"/>
<path d="M314.368 159.781C314.536 156.453 314.488 152.802 311.477 150.724C308.76 148.856 305.316 150.453 303.465 152.958C301.578 155.51 300.953 158.91 300.652 161.997C300.009 168.526 299.312 174.887 298.056 181.253C295.766 192.845 291.571 204.581 288.434 216.047C287.851 218.173 287.045 220.426 285.867 222.275C292.821 222.972 294.931 220.348 297.779 214.666C300.177 209.879 302.485 205.098 303.964 200.113C307.985 186.551 313.646 174.352 314.368 159.781Z" fill="#FFBBB5"/>
<path d="M313.614 315.66C311.926 317.498 309.065 318.441 307.232 320.387C303.529 324.267 301.185 332.309 294.664 327.522C294.688 327.27 294.845 327.114 295.091 327.054C295.109 326.309 296.323 324.711 297.495 323.204C298.337 322.081 299.172 321.024 299.448 320.393C300.59 317.858 301.6 315.029 302.135 312.351C303.379 306.068 301.552 300.458 299.641 294.578C297.597 288.272 294.202 282.554 291.846 276.422C290.463 272.836 289.237 269.094 288.684 265.286C288.167 261.7 286.52 258.385 286.094 254.961C291.341 251.676 297.489 250.787 301.101 256.355C304.557 261.682 306.276 267.58 306.943 273.827C308.097 284.524 305.236 299.882 311.715 308.945C311.799 309.095 311.92 309.245 312.028 309.39C314.005 311.96 316.421 312.615 313.614 315.66Z" fill="#FFBBB5"/>
<path d="M284.924 309.87C286.3 312.2 287.797 313.324 284.792 315.516C282.79 316.981 279.803 317.366 277.616 318.909C273.228 322.003 269.376 329.438 263.906 323.468C263.984 323.234 264.141 323.102 264.411 323.084C264.591 322.327 266.262 320.879 267.759 319.558C268.726 318.699 269.628 317.9 269.983 317.396C271.599 315.143 273.138 312.555 274.178 310.038C276.606 304.116 275.915 298.248 275.187 292.104C274.4 285.527 272.194 279.262 271.064 272.794C270.415 269.016 269.928 265.094 270.133 261.256C270.307 257.64 269.345 254.054 269.586 250.637C275.38 248.415 281.588 248.739 284.052 254.901C286.414 260.811 286.943 266.914 286.378 273.178C285.417 284.079 279.461 298.891 284.467 309.047C284.611 309.335 284.762 309.606 284.924 309.87Z" fill="#FFBBB5"/>
<path d="M294.165 123.678C292.326 126.513 291.731 128.981 293.011 132.243C293.588 133.708 294.496 135.402 294.351 137.011C294.237 138.267 293.402 139.354 293.234 140.525C292.855 143.216 294.73 145.534 294.718 148.303C294.712 150.658 294.52 149.613 296.347 149.372C297.657 149.198 298.691 150.309 300.067 150.123C299.214 149.006 299.448 148.039 298.961 146.7C300.223 147.925 301.846 148.76 302.135 150.64C303.283 149.595 304.761 150.724 305.831 150.387C306.799 150.087 308.493 148.201 309.028 147.372C310.339 145.336 310.236 141.937 310.423 139.57C310.777 135.102 310.206 130.651 309.906 126.224C309.557 121.149 307.532 115.029 301.239 117.984C299.658 118.723 293.546 122.23 294.159 124.23L294.165 123.678Z" fill="#231F20"/>
<path d="M343.985 206.059C334.615 197.896 317.624 204.371 309.691 211.356C300.182 219.723 284.562 217.32 276.43 226.666C272.301 231.417 270.221 237.309 267.673 242.979C265.732 247.303 261.561 252.385 260.695 256.685C265.089 258.043 267.457 257.73 271.117 260.619C274.224 263.076 276.767 265.785 280.89 266.175C285.343 266.589 288.841 263.646 293.241 263.694C296.847 263.736 301.096 266.908 304.606 265.67C310.881 263.454 303.518 250.156 311.409 245.79C315.448 243.556 322.606 243.55 327.33 242.342C332.68 240.979 338.63 240.042 343.636 237.664C354.923 232.306 352.002 213.044 343.985 206.059Z" fill="#231F20"/>
<path d="M321.773 219.759C324.706 219.945 327.302 221.651 330.079 221.789C332.916 221.933 335.356 220.21 338.247 220.42C340.639 220.594 343.295 220.996 345.585 221.705C347.388 222.264 348.885 223.483 350.778 223.591C352.299 218.312 349.486 207.488 347.37 202.239C343.596 192.887 342.785 183.824 341.138 173.95C340.477 170.004 341.402 152.496 337.141 150.297C332.411 147.853 327.248 145.715 321.857 145.51C316.255 145.3 305.599 148.634 303.526 154.622C301.885 159.349 301.368 164.364 299.974 169.145C298.658 173.667 296.091 181.47 299.926 185.398C302.192 187.722 306.405 187.53 308.881 189.812C310.792 191.572 311.165 196.149 311.285 198.515C311.429 201.404 312.012 205.945 311.093 208.654C310.095 211.567 306.976 212.287 304.367 213.122C302.54 213.711 298.237 214.167 298.027 216.474C298.159 215.026 303.832 218.33 304.139 218.558C305.918 219.861 308.04 221.753 310.359 222.312C314.507 223.333 317.728 219.507 321.773 219.759Z" fill="#A78BEF"/>
<path d="M317.328 120.092C314.293 113.275 304.412 111.023 298.318 114.638C293.985 117.209 292.759 122.05 293.101 126.795C293.438 131.498 294.664 136.705 297.302 140.603C297.729 141.234 298.186 141.853 298.667 142.447C300.145 144.267 302.11 147.643 304.737 147.679C307.832 147.727 310.296 145.282 311.991 142.958C316.499 136.795 320.64 127.522 317.328 120.092Z" fill="#FFBBB5"/>
<path d="M311.973 153.486C310.735 152.976 309.881 151.871 309.785 149.913C309.707 148.405 309.827 146.814 309.593 145.414C309.064 142.249 308.301 141.588 309.959 138.657C311.228 136.411 312.502 134.261 313.079 131.72C313.451 130.068 314.305 126.248 316.661 127.57C318.434 128.567 317.767 133.059 317.971 134.705C318.362 137.966 319.305 141.498 321.403 144.105C323.152 146.285 325.58 148.525 322.581 150.814C320.387 152.483 315.014 154.742 311.973 153.486Z" fill="#FFBBB5"/>
<path d="M331.28 150.153C329.604 151.114 329.85 154.357 329.904 155.901C330.036 159.925 331.022 163.949 332.038 167.823C333.654 173.98 336.954 179.667 337.789 186.034C338.306 189.98 335.452 192.725 333.318 195.89C332.561 197.007 322.53 211.032 322.884 211.368C322.884 211.368 327.578 215.807 327.578 215.813C328.299 216.504 340.272 204.425 341.065 203.548C344.094 200.227 347.803 196.185 349.239 191.836C350.711 187.379 349.173 182.899 348.379 178.49C347.502 173.625 346.45 168.766 344.978 164.039C343.385 158.928 339.064 145.708 331.28 150.153Z" fill="#FFBBB5"/>
<path d="M323.863 219.459C325.738 218.792 329.272 215.813 329.747 213.837C331.009 208.569 321.296 210.563 318.995 210.876C315.797 211.314 312.75 211.536 310.111 213.338C309.414 213.813 308.789 214.419 308.158 214.966C307.539 215.507 306.842 215.939 306.295 216.558C306.127 216.75 305.171 217.555 305.255 217.717C305.496 218.161 307.347 217.543 307.677 217.398C308.483 217.044 309.198 216.528 309.949 216.083C309.571 216.305 309.222 216.822 308.879 217.116C308.453 217.477 308.014 217.819 307.587 218.173C307.154 218.534 305.514 219.501 306.181 220.251C307.04 221.224 309.186 219.435 309.913 219.026C309.456 219.278 308.218 220.648 308.879 221.194C309.589 221.783 311.704 220.071 312.275 219.717C311.848 219.981 311.53 220.492 311.662 221.008C311.854 221.759 312.461 221.699 313.056 221.519C314.493 221.08 315.713 220.089 317.186 219.753C319.361 219.248 321.699 220.227 323.863 219.459Z" fill="#FFBBB5"/>
<path d="M310.035 145.835C309.92 145.835 309.8 145.781 309.734 145.678C309.62 145.51 309.656 145.282 309.824 145.162C309.836 145.156 311.068 144.255 313.689 140.675C313.809 140.513 314.043 140.477 314.206 140.597C314.374 140.717 314.404 140.952 314.284 141.114C311.561 144.826 310.299 145.727 310.245 145.769C310.185 145.817 310.113 145.835 310.035 145.835Z" fill="#A86770"/>
<path d="M307.588 188.142C306.524 188.142 305.43 188.016 304.283 187.668C304.084 187.608 303.976 187.403 304.036 187.205C304.102 187.013 304.301 186.899 304.499 186.959C307.029 187.728 309.241 187.355 311.585 186.959C313.166 186.695 314.8 186.418 316.513 186.539L317.787 186.635C322.68 187.001 326.208 187.271 330.499 183.794C330.661 183.668 330.89 183.692 331.022 183.848C331.148 184.004 331.13 184.238 330.968 184.37C326.448 188.034 322.602 187.734 317.733 187.373L316.459 187.277C314.83 187.163 313.316 187.415 311.705 187.692C310.377 187.914 309.013 188.142 307.588 188.142Z" fill="#F9D4E1"/>
<path d="M300.4 111.155C295.429 111.275 293.176 115.918 291.523 119.557C290.495 121.81 287.82 122.825 286.997 125.221C286.3 127.269 287.538 129.984 286.414 131.846C287.73 131.924 289.287 132.092 290.495 131.588C287.899 128.459 292.064 124.224 293.254 121.365C292.935 122.969 291.998 124.519 291.757 126.218C291.511 127.984 292.082 129.972 291.541 131.606C294.714 131.888 293.067 126.687 294.678 124.567C294.215 126.579 294.245 128.663 294.215 130.825C294.69 130.651 295.459 130.345 295.922 130.134C295.994 128.723 295.664 126.861 296.397 125.75C296.77 127.468 297.809 128.387 298.471 129.888C299.504 129.936 300.568 129.936 301.602 129.888C301.632 127.786 300.508 125.6 301.656 123.6C301.398 125.966 303.597 126.495 303.898 128.789C304.962 128.549 306.067 128.339 307.233 128.326C307.161 126.909 307.083 126.338 307.077 124.819C306.843 126.873 309.92 128.471 310.96 129.984C312.3 131.936 311.675 134.513 312.805 136.555C313.28 137.414 314.145 138.027 314.674 138.849C315.293 139.798 315.522 140.861 316.074 141.852C316.964 143.426 318.641 143.588 318.659 145.702C318.653 145.18 322.253 145.985 322.493 146.075C322.529 145.306 322.517 144.525 322.511 143.75C322.92 144.357 323.203 145.024 323.293 145.702C325.372 145.961 327.644 145.054 329.531 144.405C329.507 144.039 329.664 143.564 329.567 143.192C329.633 145.27 333.726 143.324 334.922 142.91C333.865 141.078 333.6 138.945 332.578 137.035C331.388 134.807 330.559 132.393 330.006 129.936C329.207 126.423 328.762 123.065 326.923 119.858C325.438 117.281 322.758 114.927 320.859 112.65C318.965 110.38 318.575 111.257 315.984 110.488C313.658 109.797 312.643 108.944 310.004 108.95C306.638 108.956 300.208 108.999 298.453 112.404L300.4 111.155Z" fill="#231F20"/>
<path d="M313.616 315.66C311.928 317.498 309.067 318.441 307.234 320.387C305.815 321.883 304.763 323.684 303.549 325.336C302.437 326.85 301.049 328.586 299.09 328.934C298.062 329.114 297.028 328.862 296.103 328.405C295.712 328.219 294.594 327.865 294.582 327.366C294.57 326.808 295.496 325.967 295.79 325.51C296.307 324.706 296.908 323.949 297.491 323.192C303.387 324.141 309.956 313.06 311.717 308.927C311.801 309.077 311.922 309.228 312.03 309.372C314.007 311.96 316.423 312.615 313.616 315.66Z" fill="#A78BEF"/>
<path d="M284.792 315.516C282.79 316.981 279.803 317.366 277.616 318.909C273.228 322.003 269.376 329.438 263.906 323.468C264.02 323.102 264.363 322.783 264.639 322.531C264.958 322.249 265.204 321.919 265.505 321.612C265.697 321.414 267.693 319.498 267.753 319.558C269.472 321.084 274.707 318.033 276.185 317.084C277.952 315.96 279.533 314.525 281.228 313.294C282.592 312.303 283.704 311.029 284.918 309.87C286.3 312.195 287.803 313.324 284.792 315.516Z" fill="#A78BEF"/>
<path d="M309.517 216.864C309.481 216.864 309.451 216.852 309.415 216.834C309.331 216.78 309.307 216.66 309.361 216.576C309.433 216.462 311.236 213.813 315.87 212.93C315.972 212.912 316.068 212.978 316.086 213.074C316.104 213.176 316.038 213.272 315.936 213.29C311.464 214.143 309.685 216.756 309.667 216.78C309.631 216.834 309.571 216.864 309.517 216.864Z" fill="#A86770"/>
<path d="M309.943 219.02C309.907 219.02 309.864 219.008 309.828 218.978C309.75 218.912 309.732 218.798 309.798 218.714C309.876 218.612 311.848 216.245 317.221 215.044C317.329 215.02 317.419 215.086 317.443 215.182C317.461 215.284 317.401 215.38 317.299 215.404C312.064 216.576 310.105 218.924 310.087 218.948C310.051 218.996 309.997 219.02 309.943 219.02Z" fill="#A86770"/>
<path d="M312.009 220.005C311.967 220.005 311.925 219.993 311.895 219.963C311.817 219.903 311.799 219.783 311.865 219.705C311.931 219.621 313.572 217.663 318.464 216.798C318.56 216.792 318.662 216.846 318.68 216.948C318.698 217.05 318.632 217.146 318.53 217.164C313.794 217.999 312.171 219.915 312.153 219.939C312.117 219.981 312.063 220.005 312.009 220.005Z" fill="#A86770"/>
<path d="M303.199 132.759C303.007 132.759 302.821 132.657 302.718 132.483C302.568 132.219 302.652 131.876 302.923 131.726C303.031 131.666 305.507 130.267 309.137 131.174C309.438 131.246 309.618 131.546 309.546 131.846C309.474 132.141 309.173 132.327 308.873 132.249C305.675 131.45 303.506 132.675 303.482 132.687C303.386 132.735 303.295 132.759 303.199 132.759Z" fill="#FFBBB5"/>
<path d="M302.333 141.78C302.099 141.78 301.883 141.726 301.69 141.612C300.873 141.12 300.825 139.774 300.771 138.213C300.711 136.579 300.645 134.723 299.587 134.273C299.394 134.195 299.31 133.978 299.388 133.786C299.467 133.6 299.683 133.51 299.869 133.588C301.36 134.219 301.438 136.327 301.504 138.177C301.546 139.354 301.594 140.687 302.069 140.97C302.321 141.126 302.766 140.97 303.085 140.813C303.271 140.723 303.493 140.801 303.584 140.988C303.674 141.174 303.596 141.396 303.415 141.486C303.013 141.678 302.652 141.78 302.333 141.78Z" fill="#FFBBB5"/>
<path d="M307.177 134.051C307.369 134.849 307.213 135.564 306.841 135.654C306.468 135.738 306.011 135.168 305.825 134.369C305.632 133.57 305.789 132.855 306.161 132.765C306.534 132.681 306.991 133.252 307.177 134.051Z" fill="#FFBBB5"/>
<path d="M297.452 135.804C297.638 136.603 297.488 137.318 297.115 137.402C296.743 137.492 296.286 136.916 296.099 136.123C295.913 135.324 296.063 134.609 296.436 134.519C296.809 134.435 297.265 135.012 297.452 135.804Z" fill="#FFBBB5"/>
<path d="M287.308 256.709C287.122 256.709 286.966 256.571 286.941 256.385C286.665 254.181 286.16 251.964 285.667 249.832C284.976 246.805 284.255 243.67 284.171 240.462C283.954 232.612 288.991 230.432 295.356 227.669L296.053 227.369C296.245 227.291 296.462 227.375 296.54 227.561C296.624 227.747 296.534 227.97 296.347 228.048L295.65 228.348C289.297 231.105 284.706 233.087 284.91 240.444C284.994 243.58 285.703 246.673 286.389 249.67C286.881 251.826 287.392 254.055 287.675 256.295C287.699 256.499 287.555 256.685 287.35 256.709C287.338 256.709 287.326 256.709 287.308 256.709Z" fill="#C68383"/>
<path d="M302.892 144.441C301.846 144.441 301.101 144.159 301.083 144.153C300.89 144.081 300.8 143.865 300.872 143.672C300.945 143.48 301.161 143.384 301.353 143.462C301.485 143.51 304.575 144.663 306.72 141.618C306.841 141.45 307.075 141.414 307.231 141.528C307.399 141.648 307.442 141.877 307.327 142.045C305.951 144.003 304.196 144.441 302.892 144.441Z" fill="#FFBBB5"/>
<path d="M362.985 155.733L357.366 154.886C352.564 156.309 349.631 154.916 348.296 153.853C347.9 153.865 347.527 153.865 347.185 153.865C345.616 153.853 344.81 154.946 343.374 155.523C342.665 155.817 339.419 156.826 339.582 155.15C339.642 154.544 340.886 154.117 341.343 153.763C341.643 153.559 341.908 153.276 342.16 153.006C340.453 154.141 338.025 156.472 336.486 154.946C335.104 153.571 338.41 152.682 339.215 152.177C339.93 151.733 340.609 151.216 341.276 150.712C340.333 151.426 338.698 151.757 337.61 152.195C336.685 152.568 335.248 153.42 334.227 153.108C332.946 152.718 333.463 151.228 334.287 150.652C335.05 150.117 335.957 149.865 336.787 149.45C337.779 148.964 338.776 148.471 339.774 147.979L340.068 147.835L340.465 147.66C339.978 147.823 339.503 148.045 339.101 148.195C337.911 148.609 336.715 149.054 335.483 149.348C334.623 149.54 332.976 150.063 332.592 148.784C332.147 147.288 334.443 146.874 335.35 146.399C336.889 145.6 338.506 145.138 340.195 144.609C340.507 144.507 341.012 144.219 341.349 144.237C341.349 144.237 343.56 144.279 345.736 144.327C344.33 143.732 342.503 143.072 342.503 141.822C342.485 139.336 347.13 141.348 348.242 141.51C351.013 141.895 354.277 142.579 356.29 144.693L364.115 145.51C364.374 147.672 364.716 152.538 362.985 155.733Z" fill="#E527BB"/>
<path d="M345.742 143.372C345.411 143.132 344.912 143.174 344.63 143.474L337.315 151.108C337.033 151.402 337.057 151.865 337.358 152.135L337.82 152.544C338.127 152.814 338.608 152.796 338.896 152.507L346.445 144.802C346.727 144.513 346.691 144.075 346.367 143.835L345.742 143.372Z" fill="#A78BEF"/>
<path d="M345.605 143.522L347.216 141.768L347.739 142.261L346.104 144.021L345.605 143.522Z" fill="#D7F2F1"/>
<path d="M348.87 142.759C348.671 143 347.974 142.759 347.313 142.219C346.652 141.678 346.285 141.042 346.483 140.801C346.682 140.555 347.379 140.795 348.04 141.336C348.701 141.882 349.074 142.519 348.87 142.759Z" fill="#D7F2F1"/>
<path d="M337.515 152.159L332.641 157.811L337.797 152.321L337.515 152.159Z" fill="#A78BEF"/>
<path d="M353.668 150.435C350.861 149.805 349.131 146.988 348.896 146.591L346.624 145.228C346.534 145.174 346.504 145.06 346.558 144.976C346.612 144.886 346.726 144.862 346.817 144.91L349.131 146.297C349.155 146.315 349.179 146.339 349.197 146.369C349.215 146.399 350.952 149.45 353.71 150.075C353.806 150.099 353.873 150.195 353.855 150.297C353.825 150.381 353.746 150.435 353.668 150.435Z" fill="white"/>
<path d="M387.17 106.932C387.17 106.932 380.745 120.26 377.102 142.663L362.281 144.886L362.468 160.436L386.184 158.027L388.408 122.663L387.17 106.932Z" fill="#A78BEF"/>
<path d="M449.223 316.207C447.69 314.657 445.905 313.564 444.559 313.558C443.453 313.552 439.252 313.78 438.855 315.084C438.849 315.09 438.819 315.144 438.777 315.198L438.548 315.029C438.548 318.099 436.301 324.411 439.348 325.841C441.59 326.892 448.832 326.67 450.899 325.402C454.049 323.456 452.053 319.066 449.223 316.207Z" fill="#A78BEF"/>
<path d="M412.907 312.795C412.12 311.612 409.373 312.086 408.255 312.225C406.224 312.477 404.643 312.699 403.597 314.231C401.229 317.708 399.3 320.099 394.816 321.03C393.037 321.396 389.66 321.042 388.055 321.877C386.168 322.862 385.939 325.36 387.875 326.381C391.289 328.189 397.13 325.973 400.749 325.901C403.676 325.841 410.858 327.03 413.1 324.85C414.674 323.324 413.671 321.156 413.376 319.24C413.196 318.051 413.472 313.642 412.907 312.795Z" fill="#A78BEF"/>
<path d="M395.924 119.858C395.527 123.9 396.441 127.9 396.681 131.882C397.108 139.096 397.054 146.309 397.054 153.553C397.054 165.457 398.538 177.085 398.538 189.109C398.538 194.575 398.496 199.872 397.871 205.284C397.216 211.074 395.557 217.254 396.032 223.074C397.024 235.573 402.097 247.736 401.441 260.415C395.738 260.709 390.329 261.466 384.589 261.61C385.659 257.184 384.931 252.487 384.475 247.892C383.789 240.841 384.312 233.88 384.901 226.858C386.145 212.239 381.896 197.902 383.363 183.361C384.427 172.802 384.072 162.165 383.495 151.595C383.17 145.606 383.176 139.612 383.236 133.618C383.279 129.384 383.387 125.209 383.717 120.987C384.03 117.029 384.823 113.695 386.091 109.917C387.227 106.524 389.625 102.884 392.907 101.232C395.371 99.9892 395.78 101.689 396.285 103.623C396.844 105.01 397.385 106.674 397.577 108.158C397.721 109.257 396.988 110.92 398.797 110.464C397.986 113.647 396.255 116.476 395.924 119.858Z" fill="#A78BEF"/>
<path d="M389.871 75.1536C391.187 70.1024 384.702 70.703 384.113 75.0876C383.632 78.7033 385.405 82.2409 386.03 85.7245C386.962 82.0728 388.933 78.7694 389.871 75.1536Z" fill="#231F20"/>
<path d="M408.862 120.975C410.323 119.251 411.933 117.762 413.598 116.2C414.878 115.011 416.267 113.93 417.583 112.782C418.983 111.575 421.442 110.254 422.085 108.38C423.774 103.473 416.159 103.551 413.58 103.413C411.332 101.395 408.225 96.9922 407.979 87.8147C405.364 89.2201 402.87 90.8178 400.021 91.6707C398.236 92.2052 394.48 92.8239 393.897 94.9561C393.308 97.1063 394.251 101.004 394.877 103.1C395.46 105.071 395.838 105.869 395.339 107.875C394.498 111.239 394.372 113.924 394.828 117.353C395.219 120.302 397.491 124.399 400.19 125.906C403.465 127.738 406.687 123.666 408.478 121.443C408.61 121.287 408.73 121.131 408.862 120.975Z" fill="#FFAE6A"/>
<path d="M386.62 88.8056C387.155 91.3042 388.056 94.2293 389.932 96.0551C392.378 98.4396 394.626 98.9201 397.955 97.9051C401.531 96.8119 404.5 94.0431 406.592 90.8598C408.587 87.8266 409.904 84.3671 410.408 80.8174C410.883 77.532 410.601 74.0124 408.768 71.3696C406.003 67.3815 399.404 65.6217 394.83 65.7118C389.595 65.8199 387.323 68.4626 386.434 73.2436C385.731 76.9914 385.466 81.0636 385.977 84.9497C386.139 86.1209 386.338 87.4543 386.62 88.8056Z" fill="#FFAE6A"/>
<path d="M394.735 98.734C394.393 98.734 394.074 98.7159 393.798 98.6919C393.654 98.6799 393.551 98.5478 393.563 98.4096C393.575 98.2655 393.708 98.1574 393.846 98.1754C395.895 98.3736 399.934 98.0372 403.937 93.5686C404.033 93.4665 404.196 93.4545 404.304 93.5506C404.412 93.6467 404.418 93.8149 404.328 93.917C400.71 97.9472 397.043 98.734 394.735 98.734Z" fill="#9F6464"/>
<path d="M396.36 81.454C396.469 81.472 396.595 81.472 396.715 81.4419C397.749 81.1657 398.686 81.5801 398.692 81.5921C399.089 81.7783 399.582 81.5981 399.786 81.1717C399.985 80.7572 399.828 80.2587 399.438 80.0725C399.378 80.0485 397.989 79.4058 396.372 79.8323C395.94 79.9524 395.657 80.4029 395.741 80.8593C395.814 81.1717 396.06 81.3999 396.36 81.454Z" fill="#FFAE6A"/>
<path d="M390.19 81.9465C390.082 81.9825 389.967 81.9945 389.841 81.9885C388.795 81.8804 387.894 82.451 387.882 82.463C387.491 82.7153 386.992 82.6072 386.758 82.2228C386.536 81.8384 386.662 81.3218 387.046 81.0696C387.107 81.0396 388.453 80.1687 390.088 80.3428C390.538 80.3969 390.833 80.7933 390.773 81.2558C390.713 81.5801 390.484 81.8444 390.19 81.9465Z" fill="#FFAE6A"/>
<path d="M391.321 89.6343C390.991 89.6343 390.858 89.5923 390.822 89.5743C390.756 89.5502 390.702 89.4962 390.678 89.4241C390.035 87.7604 391.375 83.0816 391.435 82.8834C391.471 82.7452 391.61 82.6611 391.754 82.7092C391.892 82.7512 391.97 82.8954 391.934 83.0335C391.574 84.2948 390.738 87.7544 391.123 89.1118C391.315 89.1298 391.832 89.1298 392.926 88.9196C393.07 88.8956 393.202 88.9857 393.232 89.1238C393.256 89.2619 393.166 89.4001 393.028 89.4301C392.187 89.5863 391.652 89.6343 391.321 89.6343Z" fill="#FFAE6A"/>
<path d="M404.92 83.8685C404.89 83.8685 404.86 83.8625 404.83 83.8505C404.698 83.8025 404.632 83.6523 404.68 83.5142C404.824 83.1298 405.569 81.2198 406.387 81.0336C406.531 81.0096 406.663 81.0877 406.699 81.2318C406.723 81.3699 406.645 81.5141 406.501 81.5441C406.104 81.6342 405.473 82.8835 405.167 83.7004C405.124 83.8025 405.028 83.8685 404.92 83.8685Z" fill="#9F6464"/>
<path d="M405.684 82.9496C405.576 82.9496 405.474 82.8835 405.437 82.7754C405.389 82.6433 405.455 82.4931 405.594 82.445L406.339 82.1748C406.471 82.1267 406.627 82.1928 406.67 82.3309C406.718 82.4631 406.652 82.6132 406.513 82.6613L405.762 82.9316C405.744 82.9436 405.714 82.9496 405.684 82.9496Z" fill="#9F6464"/>
<path d="M401.278 70.5527C399.883 72.5527 401.163 74.5108 401.602 76.3967C402.047 78.3668 401.891 80.1626 401.813 82.1927C401.927 81.5921 402.137 81.4059 402.377 80.8773C402.299 81.2497 402.323 81.5681 402.197 81.9645C403.453 80.1746 407.162 76.2646 407.787 80.3668C408.201 83.0816 405.431 85.9466 406.549 88.3311C406.699 87.7605 406.867 87.298 406.951 86.7274C406.957 87.5983 406.951 88.4632 406.945 89.3341C406.921 89.4542 407.108 88.7515 407.144 88.5353C407.138 90.1329 406.843 91.8327 407.931 93.0219C407.925 92.2531 407.925 91.4843 407.919 90.7155C408.099 91.3642 408.171 91.9228 408.117 92.6135C409.361 85.5382 413.941 78.1746 411.477 70.901C410.449 67.8799 407.45 66.3183 404.487 66.5586C399.925 66.9309 400.737 70.5407 400.869 73.79L401.278 70.5527Z" fill="#231F20"/>
<path d="M407.288 66.6788C406.537 63.1412 402.751 59.153 399.151 62.0661C397.738 57.9758 387.876 60.7687 389.859 63.4835C386.289 63.7898 383.067 66.871 383.596 70.685C383.939 73.1115 385.982 73.8082 387.725 72.2406C388.206 73.8262 392.179 72.1204 392.9 71.1054C393.729 73.5679 399.055 72.4808 401.308 71.3156C402.096 71.9703 403.352 72.3607 404.187 72.5289C404.692 72.631 406.952 72.7391 407.343 72.1625C407.793 72.5289 409.092 72.1024 409.596 71.7541C410.474 71.1414 410.768 69.3996 409.62 70.0904C412.043 69.1053 409.061 64.1802 407.288 66.6788Z" fill="#231F20"/>
<path d="M396.973 83.0157C397.496 83.256 398.103 83.0517 398.626 82.9076C398.8 82.8656 398.626 83.6704 398.566 83.7485C398.397 83.9707 398.109 84.0908 397.845 84.1148C397.123 84.1869 396.919 83.5803 396.973 83.0157Z" fill="#FFAE6A"/>
<path d="M388.216 84.0248C388.751 84.2351 389.346 83.9888 389.863 83.8266C390.032 83.7666 389.911 84.5834 389.857 84.6675C389.707 84.9018 389.418 85.0339 389.154 85.0759C388.439 85.184 388.192 84.5834 388.216 84.0248Z" fill="#FFAE6A"/>
<path d="M393.559 92.8178C392.189 92.8178 391.233 92.3073 391.221 92.3013C391.065 92.2112 391.005 92.013 391.089 91.8568C391.179 91.7007 391.377 91.6406 391.534 91.7247C391.642 91.7848 394.196 93.1241 396.859 90.9018C396.997 90.7877 397.207 90.7997 397.321 90.9439C397.436 91.082 397.418 91.2922 397.279 91.4064C395.951 92.5055 394.629 92.8178 393.559 92.8178Z" fill="#FFAE6A"/>
<path d="M422.607 198.161C422.342 191.608 424.83 179.89 417.065 177.145C412.509 175.535 404.648 173.169 399.72 173.817C394.22 174.538 395.519 181.595 395.446 185.439C395.242 196.377 393.325 207.38 395.05 218.287C396.63 228.252 395.308 238.246 396.42 248.162C396.745 251.033 397.917 253.676 398.199 256.559C398.704 261.796 398.001 267.142 398.241 272.403C398.512 278.325 399.413 284.662 399.269 290.554C399.179 294.272 398.421 297.774 398.608 301.569C398.758 304.627 398.914 307.762 398.608 310.825C398.253 314.387 397.394 316.525 401.859 316.381C404.888 316.279 406.084 315.63 409.258 316.393C413.074 317.306 415.328 318.032 415.965 313.792C416.446 310.585 415.442 307.329 415.575 304.074C415.785 298.999 417.041 294.002 417.522 288.902C418.796 275.274 420.088 261.592 421.218 247.886C422.588 231.159 423.286 214.936 422.607 198.161Z" fill="#231F20"/>
<path d="M447.245 197.332C446.301 190.845 447.564 178.929 439.546 177.007C434.846 175.878 426.78 174.34 421.942 175.499C416.545 176.785 418.582 183.674 418.907 187.5C419.845 198.401 419.081 209.542 421.942 220.209C424.551 229.957 424.28 240.036 426.42 249.778C427.039 252.601 428.481 255.105 429.058 257.946C430.104 263.106 429.966 268.487 430.753 273.701C431.643 279.569 433.199 285.773 433.668 291.647C433.963 295.353 433.578 298.915 434.161 302.675C434.63 305.702 435.11 308.801 435.128 311.882C435.147 315.456 434.515 317.678 438.939 317.065C441.938 316.651 443.056 315.882 446.295 316.309C450.19 316.825 452.504 317.312 452.696 313.023C452.841 309.786 451.5 306.651 451.296 303.395C450.977 298.326 451.705 293.227 451.651 288.104C451.506 274.415 451.362 260.679 451.05 246.925C450.671 230.15 449.679 213.945 447.245 197.332Z" fill="#231F20"/>
<path d="M359.379 156.55C359.379 156.55 359.253 168.766 364.812 174.442L369.633 160.376L359.379 156.55Z" fill="#D0F3F4"/>
<path d="M428.696 163.667C428.967 165.901 429.292 168.124 429.207 170.31C428.949 177.121 417.415 177.457 412.361 177.992C411.123 178.118 395.652 178.863 395.568 177.577C395.166 171.715 394.811 165.859 394.324 160.009C393.374 148.549 391.445 136.429 392.413 124.891C392.695 121.563 393.044 118.236 393.302 114.909C393.423 113.377 393.615 111.845 393.915 110.338C394.084 109.461 394.39 108.686 394.643 107.857C394.883 107.107 394.751 106.224 395.081 105.515C395.472 104.674 395.767 105.269 396.674 105.521C398.255 105.959 399.968 105.845 401.506 105.293C403.868 104.446 405.605 103.214 407.643 101.719C408.55 101.046 408.893 99.9471 409.933 99.3945C411.718 98.4516 412.745 99.3945 414.068 100.356C415.835 101.635 418.173 102.229 420.102 103.245C422.314 104.398 424.213 106.055 425.643 108.092C428.546 112.212 429.46 117.413 429.772 122.344C429.856 123.702 429.893 125.065 429.905 126.428C429.935 132.543 429.832 138.573 429.34 144.675C428.961 149.438 428.408 154.189 428.354 158.97C428.336 160.52 428.504 162.093 428.696 163.667Z" fill="#E527BB"/>
<path d="M397.678 112.891C397.395 112.428 397.425 111.683 397.75 111.245L398.844 109.713C399.168 109.263 399.655 109.275 399.937 109.731L400.899 111.299C401.182 111.761 401.145 112.494 400.827 112.951L399.733 114.476C399.408 114.921 398.922 114.915 398.639 114.458L397.678 112.891Z" fill="white"/>
<path d="M400.069 112.746C400.063 112.746 398.2 112.746 398.2 112.746C397.887 115.93 397.376 119.203 397.262 122.41C397.112 126.789 395.381 130.669 395.525 135.174C395.633 138.633 395.399 141.516 395.068 144.928C395.02 145.444 394.347 149.324 394.599 149.703L397.743 154.345L401.096 149.697C401 146.357 401.181 142.675 400.724 139.462C399.985 134.243 400.081 129.738 400.381 124.416C400.429 123.75 400.093 112.746 400.069 112.746Z" fill="white"/>
<path d="M398.941 110.74C398.922 110.662 398.862 110.56 398.766 110.44C397.955 109.413 397.071 108.236 396.386 107.113C396.224 106.842 395.364 104.902 394.878 105.509C393.652 107.034 395.653 108.932 396.675 109.815C397.041 110.134 397.462 110.5 397.931 110.662C397.967 110.68 398.442 110.77 398.736 110.794L398.91 110.878C398.928 110.86 398.922 110.824 398.941 110.74Z" fill="white"/>
<path d="M400.45 109.569C402.025 107.875 405.8 106.836 407.116 105.713C408.023 104.938 409.562 102.146 410.56 102.554C410.536 103.239 410.902 104.482 410.686 105.161C410.133 106.884 407.729 107.815 406.653 108.224C405.403 108.698 404.014 109.023 402.83 109.653C402.632 109.761 399.885 111.936 399.813 111.635C399.615 110.837 399.897 110.164 400.45 109.569Z" fill="white"/>
<path d="M451.567 197.386C450.882 187.746 449.362 178.178 447.342 168.736C446.345 164.088 445.215 159.475 444.031 154.868C442.961 150.676 442.54 146.333 441.368 142.159C440.19 137.949 440.016 133.792 438.79 129.6C437.57 125.438 436.903 120.987 435.22 116.987C434.234 114.651 432.677 112.963 430.958 111.209C426.811 106.975 420.994 102.236 415.482 99.9293C414.28 99.4308 411.233 97.5809 410.031 98.4938C408.811 99.4368 409.532 102.764 409.37 104.092C409.057 106.65 408.33 109.161 407.423 111.563C405.728 116.044 403.39 120.41 402.759 125.221C402.128 130.092 402.482 135.102 402.482 140.009C402.482 148.976 402.212 158.009 403.029 166.893C404.249 180.136 406.016 193.374 407.164 206.648C408.126 217.741 408.066 228.943 408.661 240.042C408.871 244 408.697 248.054 408.649 252.018C408.625 254.403 407.867 256.847 408.192 259.19C410.993 259.977 413.595 258.799 416.372 258.421C420.489 257.869 424.852 258.697 428.909 259.466C433.675 260.373 438.435 261.046 443.231 259.905C444.662 259.562 459.958 257.106 459.994 257.22C459.074 253.946 459.928 250.078 459.224 246.685C458.095 241.225 457.061 235.682 456.015 230.156C454.987 224.69 455.396 219.603 454.555 214.191C453.689 208.576 451.964 203.086 451.567 197.386Z" fill="#A78BEF"/>
<path d="M358.516 160.616L372.099 157.289L374.449 168.022L360.12 169.505L358.516 160.634V160.616Z" fill="#FF8F67"/>
<path d="M424.105 111.293C416.79 110.482 411.826 122.843 407.992 128.315C404.097 133.858 401.2 142.928 394.643 144.946C388.573 146.808 381.733 149.21 375.578 151.012C370.259 152.568 365.313 154.988 360 156.544C360 156.544 365.926 164.316 365.187 174.19C365.187 174.19 401.5 164.562 414.855 154.916C420.685 148.165 427.386 140.687 430.8 132.333C432.97 127.017 433.793 117.918 429.171 113.84C427.362 112.254 425.686 111.467 424.105 111.293Z" fill="#9780E8"/>
<path d="M359.808 159.883L353.016 161.733C348.623 160.688 344.722 161.511 343.177 161.943C343.135 161.913 337.642 163.03 337.642 163.03C336.554 163.421 335.466 163.817 334.384 164.208C333.411 164.556 330.622 165.078 331.091 166.634C331.758 168.862 337.107 165.703 338.381 165.625C338.387 165.625 339.734 165.541 341.146 165.451L337.63 166.532C336.248 167.157 334.859 167.781 333.477 168.406C332.744 168.736 331.65 169.018 331.169 169.715C330.58 170.55 331.415 171.625 332.359 171.553C333.393 171.475 334.33 170.904 335.274 170.526C336.446 170.058 337.612 169.589 338.784 169.121L341.951 168.694L338.79 169.733L334.354 172.43C334.354 172.43 333.219 173.805 334.294 174.406C334.294 174.406 334.835 175.007 336.278 174.286L340.713 171.769L344.307 170.898L341.194 172.166C340.196 172.814 339.115 173.313 338.171 174.046C337.804 174.328 337.239 174.724 337.227 175.241C337.221 175.571 337.444 175.95 337.69 176.154C338.447 176.785 339.962 175.679 340.671 175.337C341.404 174.983 342.138 174.622 342.865 174.268L346.537 172.766C351.664 172.766 354.873 170.424 354.873 170.424C354.873 170.424 363.089 169.745 362.59 169.373C363.27 163.397 359.808 159.883 359.808 159.883Z" fill="#E527BB"/>
<path d="M403.531 135.131C403.458 135.131 403.386 135.119 403.314 135.089C403.032 134.969 402.899 134.645 403.014 134.363C403.831 132.423 404.739 130.669 405.965 128.693C406.157 128.381 406.421 128.02 406.704 127.63C407.317 126.795 408.074 125.762 408.17 125.065C408.261 124.44 407.942 123.792 407.599 123.107C407.251 122.398 406.854 121.593 406.86 120.687C406.878 118.44 408.303 117.725 409.943 116.903C410.37 116.692 410.905 116.5 411.47 116.302C412.474 115.948 413.616 115.545 414.078 115.005C414.661 114.326 414.289 112.933 413.952 111.713C413.874 111.419 413.79 111.131 413.73 110.86C413.55 110.098 413.387 109.239 413.219 108.332C412.63 105.245 411.963 101.749 410.322 99.7549C410.124 99.5147 410.16 99.1663 410.394 98.9741C410.635 98.7759 410.983 98.8119 411.176 99.0462C413.003 101.262 413.7 104.908 414.313 108.122C414.481 109.01 414.643 109.851 414.818 110.602C414.878 110.86 414.956 111.131 415.028 111.413C415.419 112.83 415.894 114.596 414.926 115.725C414.271 116.488 412.979 116.939 411.843 117.341C411.308 117.527 410.809 117.707 410.442 117.888C408.693 118.765 407.984 119.179 407.972 120.687C407.966 121.329 408.273 121.954 408.597 122.609C408.994 123.419 409.403 124.248 409.27 125.215C409.132 126.182 408.321 127.293 407.599 128.278C407.335 128.639 407.089 128.981 406.908 129.269C405.712 131.197 404.829 132.897 404.041 134.783C403.957 135.005 403.747 135.131 403.531 135.131Z" fill="white"/>
<path d="M392.604 144.76C392.412 144.76 392.22 144.657 392.118 144.471C390.681 141.877 390.056 138.921 389.455 136.057C389.125 134.501 388.788 132.891 388.319 131.39C387.772 129.624 387.303 128.098 387.953 126.068C388.223 125.209 388.656 124.422 389.07 123.66C389.972 122.014 390.747 120.597 389.762 118.933C389.473 118.434 388.938 117.96 388.421 117.491C387.76 116.897 387.081 116.284 386.763 115.539C386.168 114.17 386.805 112.951 387.352 111.876L387.61 111.371C387.935 110.71 388.247 110.026 388.566 109.329C389.918 106.38 391.318 103.329 393.716 101.202C393.945 100.998 394.299 101.022 394.504 101.251C394.708 101.479 394.684 101.827 394.456 102.031C392.232 104.001 390.886 106.944 389.581 109.791C389.263 110.494 388.944 111.185 388.614 111.858L388.343 112.386C387.838 113.365 387.4 114.212 387.778 115.101C388.007 115.629 388.572 116.134 389.167 116.668C389.744 117.191 390.339 117.726 390.723 118.368C392.027 120.573 391.024 122.41 390.05 124.188C389.659 124.903 389.257 125.648 389.01 126.405C388.469 128.104 388.854 129.348 389.383 131.059C389.864 132.609 390.206 134.243 390.543 135.822C391.132 138.603 391.739 141.48 393.091 143.925C393.242 144.195 393.145 144.531 392.875 144.681C392.785 144.735 392.695 144.76 392.604 144.76Z" fill="white"/>
<path d="M344.205 143.606C344.205 143.606 346.567 145.042 348.094 145.504C349.62 145.967 352.721 142.591 352.721 142.591C352.721 142.591 347.997 141.156 346.188 140.928C346.194 140.922 342.955 141.522 344.205 143.606Z" fill="#E527BB"/>
<path d="M170.949 244.138L163.178 327.919C163.118 328.549 162.559 329.018 161.922 328.958C161.309 328.898 160.852 328.369 160.876 327.763L164.476 243.7C164.554 241.91 166.069 240.522 167.854 240.601C169.645 240.679 171.033 242.186 170.955 243.976C170.961 244.03 170.955 244.09 170.949 244.138Z" fill="#A78BEF"/>
<path d="M180.923 238.931L174.39 322.76C174.342 323.39 173.915 323.865 173.441 323.817C172.978 323.763 172.641 323.24 172.665 322.633L176.061 238.564C176.133 236.775 177.281 235.375 178.627 235.429C179.974 235.489 181.001 236.985 180.935 238.775C180.929 238.817 180.923 238.877 180.923 238.931Z" fill="#A78BEF"/>
<path d="M236.185 244.138L243.956 327.919C244.016 328.549 244.575 329.018 245.212 328.958C245.825 328.898 246.282 328.369 246.258 327.763L242.658 243.7C242.58 241.91 241.065 240.522 239.28 240.601C237.489 240.679 236.101 242.186 236.179 243.976C236.179 244.03 236.179 244.09 236.185 244.138Z" fill="#A78BEF"/>
<path d="M227.322 239.363L234.42 323.144C234.474 323.775 234.9 324.243 235.381 324.189C235.844 324.135 236.175 323.606 236.151 323L232.184 238.955C232.1 237.165 230.94 235.772 229.593 235.838C228.247 235.904 227.225 237.411 227.31 239.195C227.316 239.255 227.322 239.315 227.322 239.363Z" fill="#A78BEF"/>
<path d="M251.866 243.538L242.003 231.814L166.431 231.471L156.76 243.55L154.008 243.538V246.985H254.769V243.538H251.866Z" fill="#A78BEF"/>
<path d="M166.431 228.018L154.008 243.538H254.769L242.003 228.366L166.431 228.018Z" fill="white"/>
<path d="M224.277 237.976L235.625 236.438C235.625 236.438 236.328 237.423 235.889 238.589L224.59 240.258L224.277 237.976Z" fill="#E527BB"/>
<path d="M224.584 240.258C224.848 240.222 224.992 239.682 224.902 239.051C224.818 238.42 224.536 237.94 224.271 237.976C224.007 238.012 223.863 238.553 223.953 239.177C224.043 239.814 224.319 240.294 224.584 240.258Z" fill="#C618A5"/>
<path d="M224.16 238.649L223.535 238.907L223.631 239.574L224.304 239.598C224.298 239.598 224.389 238.925 224.16 238.649Z" fill="#E527BB"/>
<path d="M223.663 239.117L217.965 240.03L223.705 239.333L223.663 239.117Z" fill="#C618A5"/>
<path d="M235.953 237.447L241.314 236.655L241.41 237.153L236.043 237.97L235.953 237.447Z" fill="#E527BB"/>
<path d="M241.541 238.18C241.842 238.144 242.028 237.55 241.95 236.853C241.872 236.156 241.565 235.616 241.259 235.652C240.952 235.682 240.772 236.276 240.85 236.973C240.928 237.67 241.235 238.21 241.541 238.18Z" fill="#E527BB"/>
<path d="M174.695 235.97C174.695 236.384 173.199 236.727 171.353 236.727C169.508 236.727 168.012 236.39 168.012 235.97C168.012 235.555 169.508 235.219 171.353 235.219C173.199 235.213 174.695 235.555 174.695 235.97Z" fill="#2095F2"/>
<path d="M175.881 221.795C175.881 221.747 175.881 221.693 175.881 221.645C175.803 221.032 175.581 220.414 175.329 219.993C175.142 219.681 174.914 219.399 174.643 219.158C174.463 218.996 174.054 218.63 173.796 218.63H171.344H170.424L168.988 218.552C168.255 218.846 167.684 219.519 167.329 220.215C167.119 220.624 166.938 221.134 166.878 221.645C166.788 221.645 166.83 230.156 166.83 230.864C166.83 231.543 166.83 232.216 166.83 232.895C166.83 233.231 166.83 233.573 166.83 233.91C166.83 234.528 166.89 235.027 167.221 235.561C167.497 236.006 167.912 236.468 168.435 236.624C170.028 237.093 171.945 237.033 173.568 236.781C174.084 236.703 174.583 236.606 174.962 236.228C175.305 235.88 175.545 235.435 175.707 234.979C175.875 234.504 175.888 234.078 175.888 233.573C175.888 231.747 175.888 229.921 175.888 228.096C175.888 226.132 175.888 224.162 175.888 222.192C175.894 222.059 175.887 221.927 175.881 221.795Z" fill="#E527BB"/>
<path d="M174.055 216.954C174.061 216.594 172.853 216.312 171.363 216.312C169.872 216.312 168.664 216.594 168.664 216.936C168.664 219.189 169.872 219.465 171.363 219.465C172.853 219.465 174.061 219.182 174.061 218.84C174.055 216.972 174.055 216.96 174.055 216.954Z" fill="#C618A5"/>
<path d="M174.752 214.63C174.758 214.173 173.274 213.987 171.399 213.987C169.524 213.987 167.961 214.173 167.961 214.606C167.961 217.549 169.482 217.903 171.363 217.903C173.238 217.903 174.764 217.549 174.764 217.116C174.758 214.648 174.752 214.636 174.752 214.63Z" fill="#E527BB"/>
<path d="M174.757 214.606C174.757 215.038 173.236 215.392 171.355 215.392C169.48 215.392 167.953 215.044 167.953 214.606C167.953 214.173 169.474 213.819 171.355 213.819C173.236 213.819 174.757 214.173 174.757 214.606Z" fill="#E527BB"/>
<path d="M171.372 215.441C170.11 215.441 169.167 215.242 169.149 215.242C169.119 215.236 169.101 215.206 169.107 215.176C169.113 215.146 169.143 215.122 169.173 215.134C169.203 215.14 171.871 215.699 174.215 214.918C174.245 214.912 174.275 214.924 174.281 214.954C174.293 214.984 174.275 215.014 174.245 215.02C173.278 215.344 172.25 215.441 171.372 215.441Z" fill="white"/>
<path d="M175.792 225.699C175.798 226.324 173.79 226.804 171.32 226.804C168.844 226.804 166.842 226.318 166.842 225.723C166.806 227.994 166.818 230.486 166.818 230.859V233.904C166.818 234.522 166.878 235.021 167.209 235.555C167.485 236.006 167.894 236.462 168.411 236.618C169.992 237.087 171.903 237.027 173.514 236.775C174.025 236.697 174.523 236.6 174.902 236.222C175.245 235.874 175.479 235.429 175.641 234.973C175.81 234.498 175.822 234.072 175.822 233.567V225.705L175.792 225.699Z" fill="#E527BB"/>
<path d="M175.797 225.729C175.797 226.324 173.777 226.81 171.289 226.81C168.801 226.81 166.781 226.324 166.781 225.729C166.781 225.135 168.801 224.654 171.289 224.654C173.783 224.654 175.797 225.135 175.797 225.729Z" fill="#C618A5"/>
<path d="M174.83 227.969C174.83 226.612 174.83 225.249 174.83 223.891C174.782 223.399 174.386 223.543 174.386 223.543C172.354 224.101 170.22 224.101 168.201 223.537C167.871 223.471 167.768 223.663 167.738 223.813C167.738 225.183 167.738 226.552 167.738 227.927C167.762 228.041 167.834 228.186 168.027 228.276C170.178 228.912 172.468 228.906 174.614 228.258C174.698 228.204 174.794 228.108 174.83 227.969Z" fill="white"/>
<path d="M168.496 225.549C168.574 225.561 168.658 225.573 168.736 225.585C168.755 225.747 168.773 225.903 168.791 226.066C168.809 226.18 168.815 226.282 168.833 226.396C168.887 226.294 168.917 226.192 168.965 226.09C169.025 225.939 169.085 225.789 169.145 225.639C169.223 225.645 169.301 225.657 169.374 225.663C169.235 225.988 169.091 226.306 168.947 226.624C168.851 226.612 168.755 226.6 168.658 226.588C168.598 226.24 168.544 225.897 168.496 225.549Z" fill="#75CAD8"/>
<path d="M169.644 225.693C169.734 225.705 169.824 225.711 169.914 225.717C169.992 226.059 170.076 226.402 170.167 226.744C170.082 226.738 169.998 226.732 169.908 226.726C169.89 226.648 169.878 226.564 169.86 226.486C169.752 226.474 169.65 226.468 169.541 226.456C169.511 226.534 169.481 226.612 169.457 226.69C169.373 226.684 169.295 226.672 169.211 226.666C169.361 226.342 169.505 226.017 169.644 225.693ZM169.614 226.282C169.686 226.288 169.764 226.294 169.836 226.3C169.83 226.264 169.824 226.234 169.818 226.204C169.8 226.102 169.776 225.981 169.764 225.873C169.722 225.975 169.686 226.09 169.65 226.192C169.638 226.222 169.626 226.252 169.614 226.282Z" fill="#75CAD8"/>
<path d="M170.252 226.252C170.27 225.922 170.504 225.735 170.757 225.747C170.889 225.753 170.991 225.813 171.057 225.886C171.015 225.934 170.973 225.982 170.931 226.03C170.877 225.982 170.829 225.946 170.751 225.946C170.612 225.94 170.492 226.054 170.486 226.258C170.474 226.462 170.57 226.588 170.727 226.594C170.811 226.6 170.883 226.558 170.931 226.504C170.973 226.552 171.015 226.6 171.051 226.648C170.967 226.744 170.847 226.792 170.703 226.786C170.444 226.78 170.228 226.588 170.252 226.252Z" fill="#75CAD8"/>
<path d="M171.117 226.282C171.123 225.951 171.346 225.759 171.598 225.753C171.73 225.753 171.833 225.807 171.905 225.873C171.863 225.921 171.827 225.975 171.79 226.023C171.736 225.981 171.682 225.945 171.61 225.945C171.472 225.945 171.358 226.065 171.358 226.27C171.358 226.48 171.46 226.594 171.616 226.594C171.7 226.594 171.766 226.546 171.82 226.492C171.863 226.54 171.905 226.588 171.953 226.63C171.869 226.732 171.748 226.78 171.61 226.786C171.34 226.798 171.111 226.618 171.117 226.282Z" fill="#75CAD8"/>
<path d="M172.07 225.759C172.148 225.753 172.221 225.753 172.299 225.747C172.317 226.084 172.335 226.42 172.353 226.75C172.275 226.756 172.191 226.756 172.112 226.762C172.1 226.432 172.088 226.096 172.07 225.759Z" fill="#75CAD8"/>
<path d="M172.539 225.735C172.617 225.729 172.695 225.723 172.773 225.717C172.876 225.873 172.978 226.036 173.08 226.192C173.122 226.264 173.164 226.336 173.2 226.402C173.188 226.294 173.152 226.156 173.14 226.036C173.128 225.915 173.116 225.801 173.104 225.681C173.176 225.675 173.248 225.663 173.32 225.657C173.356 225.988 173.393 226.324 173.429 226.66C173.344 226.672 173.266 226.678 173.182 226.684C173.074 226.528 172.966 226.366 172.864 226.21C172.822 226.138 172.785 226.072 172.743 226C172.755 226.108 172.785 226.24 172.791 226.36C172.798 226.48 172.81 226.594 172.816 226.714C172.737 226.72 172.665 226.726 172.587 226.732C172.581 226.402 172.557 226.072 172.539 225.735Z" fill="#75CAD8"/>
<path d="M173.57 225.639C173.781 225.615 173.991 225.585 174.201 225.549C174.213 225.615 174.219 225.675 174.231 225.741C174.099 225.765 173.961 225.783 173.823 225.801C173.835 225.867 173.841 225.933 173.853 226C173.967 225.988 174.087 225.969 174.201 225.951C174.213 226.018 174.219 226.078 174.231 226.144C174.111 226.162 173.997 226.18 173.877 226.192C173.889 226.27 173.895 226.342 173.907 226.42C174.051 226.396 174.195 226.378 174.34 226.354C174.352 226.42 174.358 226.48 174.37 226.546C174.141 226.582 173.919 226.612 173.691 226.642C173.648 226.306 173.612 225.97 173.57 225.639Z" fill="#75CAD8"/>
<path d="M208.603 234.21L199.089 230.84L184.701 234.522L179.977 232.768V235.729L193.752 240.835L213.532 235.952V232.991L208.603 234.21Z" fill="#C618A5"/>
<path d="M179.977 232.768L193.752 237.874L213.532 232.991L199.089 227.879L179.977 232.768Z" fill="#E527BB"/>
<path d="M184.863 232.654L194.642 236.21L198.422 235.207L189.088 231.543L184.863 232.654Z" fill="white"/>
<path d="M219.314 228.588C219.23 228.348 219.086 228.102 218.978 227.903C218.791 227.573 218.629 227.207 218.629 226.816C218.629 226.678 218.936 226.3 219.074 226.144C219.14 226.011 219.11 225.825 219.116 225.819L218.749 222.69C218.629 221.879 218.118 221.939 218.118 221.939C218.118 221.939 217.607 221.879 217.487 222.69C217.487 222.69 217.126 225.819 217.126 225.825C217.126 225.825 217.096 226.011 217.162 226.144C217.301 226.306 217.607 226.678 217.607 226.816C217.607 227.183 217.463 227.525 217.289 227.843C217.193 228.012 217.078 228.162 216.988 228.33C216.796 228.696 216.826 229.189 216.826 229.591C216.826 230.018 216.826 230.45 216.826 230.876C216.826 231.837 216.826 232.792 216.826 233.753C216.826 234.216 216.826 234.678 216.826 235.141C216.826 235.369 217.373 235.549 218.052 235.549C218.725 235.549 219.278 235.363 219.278 235.141C219.29 234.498 219.296 233.85 219.302 233.201C219.314 232.264 219.326 231.333 219.344 230.396C219.35 230.024 219.356 229.645 219.362 229.273C219.362 229.135 219.398 228.967 219.38 228.834C219.368 228.756 219.344 228.672 219.314 228.588Z" fill="#E527BB"/>
<path d="M219.006 235.123C219.006 235.231 218.567 235.315 218.032 235.315C217.491 235.315 217.059 235.231 217.059 235.123C217.059 235.015 217.497 234.931 218.032 234.931C218.573 234.937 219.006 235.021 219.006 235.123Z" fill="#94D6D4"/>
<path d="M219.074 229.249C219.074 229.357 218.623 229.441 218.07 229.441C217.517 229.441 217.066 229.357 217.066 229.249C217.066 229.141 217.517 229.057 218.07 229.057C218.623 229.057 219.074 229.147 219.074 229.249Z" fill="#DFF4F1"/>
<path d="M219.068 229.267C219.014 229.363 218.587 229.435 218.07 229.435C217.553 229.435 217.121 229.363 217.072 229.267C217.066 229.333 217.066 229.399 217.066 229.459V235.111C217.145 235.183 217.499 235.315 218.052 235.315C218.605 235.315 218.96 235.189 219.038 235.111L219.116 229.273C219.116 229.267 219.068 229.267 219.068 229.267Z" fill="#A78BEF"/>
<path d="M222.58 228.588C222.496 228.348 222.351 228.102 222.243 227.903C222.057 227.573 221.895 227.207 221.895 226.816C221.895 226.678 222.201 226.3 222.339 226.144C222.405 226.011 222.375 225.825 222.381 225.819L222.015 222.69C221.895 221.879 221.384 221.939 221.384 221.939C221.384 221.939 220.873 221.879 220.753 222.69C220.753 222.69 220.386 225.819 220.392 225.825C220.392 225.825 220.362 226.011 220.428 226.144C220.566 226.306 220.873 226.678 220.873 226.816C220.873 227.183 220.729 227.525 220.554 227.843C220.458 228.012 220.344 228.162 220.254 228.33C220.061 228.696 220.092 229.189 220.092 229.591C220.092 230.018 220.092 230.45 220.092 230.876C220.092 231.837 220.092 232.792 220.092 233.753C220.092 234.216 220.092 234.678 220.092 235.141C220.092 235.369 220.638 235.549 221.318 235.549C221.991 235.549 222.544 235.363 222.544 235.141C222.55 234.498 222.562 233.85 222.568 233.201C222.58 232.264 222.592 231.333 222.61 230.396C222.616 230.024 222.622 229.645 222.628 229.273C222.628 229.135 222.664 228.967 222.646 228.834C222.628 228.756 222.61 228.672 222.58 228.588Z" fill="#E527BB"/>
<path d="M222.272 235.123C222.272 235.231 221.833 235.315 221.298 235.315C220.757 235.315 220.324 235.231 220.324 235.123C220.324 235.015 220.763 234.931 221.298 234.931C221.833 234.937 222.272 235.021 222.272 235.123Z" fill="#94D6D4"/>
<path d="M222.332 229.249C222.332 229.357 221.881 229.441 221.328 229.441C220.775 229.441 220.324 229.357 220.324 229.249C220.324 229.141 220.775 229.057 221.328 229.057C221.881 229.057 222.332 229.147 222.332 229.249Z" fill="#DFF4F1"/>
<path d="M222.326 229.267C222.272 229.363 221.845 229.435 221.328 229.435C220.811 229.435 220.378 229.363 220.33 229.267C220.324 229.333 220.324 229.399 220.324 229.459V235.111C220.402 235.183 220.757 235.315 221.31 235.315C221.863 235.315 222.217 235.189 222.296 235.111L222.374 229.273C222.374 229.267 222.326 229.267 222.326 229.267Z" fill="#A78BEF"/>
<path d="M210.854 233.904C210.602 233.91 210.319 233.976 210.097 234.024C209.724 234.102 209.328 234.15 208.955 234.036C208.823 233.994 208.558 233.591 208.444 233.411C208.336 233.309 208.15 233.279 208.15 233.279L205.048 232.697C204.237 232.57 204.141 233.075 204.141 233.075C204.141 233.075 203.931 233.549 204.67 233.904L207.555 235.183C207.555 235.183 207.723 235.267 207.867 235.243C208.066 235.159 208.51 234.979 208.643 235.021C208.997 235.129 209.28 235.369 209.526 235.634C209.658 235.772 209.767 235.928 209.905 236.066C210.199 236.354 210.674 236.474 211.059 236.601C211.467 236.727 211.882 236.853 212.291 236.985C213.204 237.267 214.124 237.556 215.037 237.838C215.482 237.976 215.921 238.114 216.366 238.252C216.582 238.318 216.925 237.85 217.123 237.201C217.321 236.559 217.309 235.976 217.093 235.91C216.48 235.712 215.861 235.507 215.248 235.309C214.358 235.021 213.469 234.727 212.579 234.438C212.225 234.324 211.864 234.204 211.509 234.09C211.377 234.048 211.227 233.97 211.095 233.94C211.029 233.904 210.945 233.904 210.854 233.904Z" fill="#8369E2"/>
<path d="M217.008 236.138C217.11 236.168 217.062 236.613 216.9 237.123C216.737 237.64 216.527 238.03 216.425 238C216.323 237.97 216.371 237.526 216.533 237.015C216.695 236.498 216.906 236.108 217.008 236.138Z" fill="#94D6D4"/>
<path d="M211.413 234.33C211.515 234.36 211.461 234.817 211.298 235.345C211.136 235.874 210.92 236.276 210.818 236.246C210.715 236.216 210.769 235.76 210.932 235.231C211.094 234.709 211.31 234.3 211.413 234.33Z" fill="#8369E2"/>
<path d="M211.431 234.342C211.509 234.42 211.449 234.853 211.299 235.345C211.142 235.844 210.944 236.228 210.836 236.246C210.896 236.27 210.956 236.288 211.016 236.306L216.413 237.988C216.51 237.934 216.738 237.634 216.9 237.105C217.063 236.576 217.044 236.204 216.996 236.102L211.443 234.288C211.443 234.3 211.431 234.342 211.431 234.342Z" fill="#E527BB"/>
<path d="M242.865 229.231C242.865 228.588 240.569 228.066 237.732 228.066C234.895 228.066 232.6 228.588 232.6 229.231C232.6 229.231 231.962 230.817 232.6 233.153C232.6 233.796 234.895 234.318 237.732 234.318C240.569 234.318 242.865 233.796 242.865 233.153C242.865 233.153 243.31 230.985 242.865 229.231Z" fill="#A78BEF"/>
<path d="M242.197 229.393C242.197 229.627 241.848 229.843 241.277 230.012C240.46 230.258 239.18 230.414 237.731 230.414C236.241 230.414 234.924 230.246 234.113 229.994C233.578 229.825 233.266 229.615 233.266 229.393C233.266 228.834 235.267 228.378 237.731 228.378C240.201 228.378 242.197 228.834 242.197 229.393Z" fill="#8369E2"/>
<path d="M241.274 230.012C240.456 230.258 239.176 230.414 237.728 230.414C236.237 230.414 234.921 230.246 234.109 229.994C235.39 229.609 238.13 229.051 241.274 230.012Z" fill="#E527BB"/>
<path d="M233.536 229.501L233.097 228.774L231.246 229.597C230.422 229.825 229.449 230.18 228.421 230.636C227.399 231.093 226.48 231.579 225.758 232.036L223.715 232.943L224.154 233.675C224.388 234.204 226.678 233.693 229.268 232.54C231.865 231.387 233.77 230.024 233.536 229.501Z" fill="#8369E2"/>
<path d="M233.097 228.768C233.331 229.297 231.42 230.654 228.829 231.807C226.239 232.961 223.949 233.465 223.715 232.943C223.48 232.414 225.392 231.057 227.982 229.904C230.578 228.75 232.862 228.246 233.097 228.768Z" fill="#A78BEF"/>
</g>
<g clip-path="url(#clip2_1267_12129)">
<path d="M361.979 63.0668H343.896C342.227 63.0668 340.875 61.7179 340.875 60.0535V42.0133C340.875 40.349 342.227 39 343.896 39H361.979C363.648 39 365 40.349 365 42.0133V60.0492C365 61.7135 363.648 63.0668 361.979 63.0668Z" fill="#E527BB"/>
<path d="M348.333 60.4522C348.32 60.4522 348.306 60.4522 348.293 60.4522C348.061 60.4346 347.876 60.2507 347.854 60.0186L346.559 45.1011L345 51.1539C344.947 51.3641 344.754 51.5131 344.534 51.5131H342.791C342.528 51.5131 342.312 51.2984 342.312 51.0357C342.312 50.7729 342.528 50.5583 342.791 50.5583H344.166L346.33 42.1491C346.388 41.9214 346.603 41.7725 346.835 41.79C347.068 41.8075 347.253 41.9914 347.275 42.2279L348.574 57.1805L351.363 46.5508C351.42 46.3405 351.613 46.1916 351.828 46.1916C352.048 46.1916 352.237 46.3405 352.294 46.5508L353.317 50.5583H356.702L358.656 43.774C358.718 43.555 358.933 43.4105 359.161 43.428C359.39 43.4499 359.574 43.6295 359.596 43.8572L360.676 54.868L361.326 50.9568C361.366 50.7247 361.563 50.5583 361.801 50.5583H363.329C363.592 50.5583 363.807 50.7729 363.807 51.0357C363.807 51.2984 363.592 51.5131 363.329 51.5131H362.209L361.032 58.617C360.993 58.8535 360.786 59.0287 360.545 59.0156C360.303 59.0068 360.106 58.8229 360.084 58.582L358.88 46.4457L357.524 51.1671C357.466 51.3729 357.278 51.5131 357.062 51.5131H352.944C352.724 51.5131 352.531 51.3641 352.478 51.1539L351.819 48.583L348.798 60.0974C348.741 60.3076 348.552 60.4522 348.333 60.4522Z" fill="white"/>
<path d="M335.017 70.0001H319.582C318.155 70.0001 317 68.8438 317 67.4248V52.0299C317 50.6065 318.155 49.4546 319.582 49.4546H335.017C336.444 49.4546 337.599 50.6065 337.599 52.0299V67.4248C337.599 68.8438 336.44 70.0001 335.017 70.0001Z" fill="#A78BEF"/>
<path d="M332.094 58.9192C331.941 58.9192 331.796 58.8316 331.725 58.6871L329.969 54.9949C329.872 54.7891 329.96 54.5482 330.162 54.4518C330.369 54.3555 330.61 54.4431 330.707 54.6445L332.463 58.3367C332.56 58.5425 332.472 58.7834 332.27 58.8798C332.213 58.906 332.151 58.9192 332.094 58.9192Z" fill="white"/>
<path d="M329.683 60.2771C329.511 60.2771 329.353 60.1719 329.296 60.0055L327.847 55.8929C327.772 55.6783 327.887 55.4462 328.097 55.3717C328.313 55.2973 328.545 55.4111 328.62 55.6214L330.069 59.734C330.144 59.9486 330.03 60.1807 329.819 60.2552C329.775 60.2683 329.731 60.2771 329.683 60.2771Z" fill="white"/>
<path d="M327.608 61.5165C327.573 61.5165 327.533 61.5121 327.498 61.5034L323.414 60.3821C323.195 60.3208 323.067 60.0975 323.129 59.8785C323.19 59.6595 323.414 59.5325 323.634 59.5938L327.718 60.715C327.937 60.7763 328.064 60.9997 328.003 61.2187C327.955 61.3939 327.788 61.5165 327.608 61.5165Z" fill="white"/>
<path d="M326.585 63.8377C326.537 63.8377 326.484 63.8289 326.436 63.8114L322.08 62.1383C321.869 62.0551 321.764 61.8186 321.843 61.6084C321.926 61.3982 322.163 61.293 322.374 61.3719L326.73 63.0449C326.941 63.1282 327.046 63.3647 326.967 63.5749C326.906 63.737 326.748 63.8377 326.585 63.8377Z" fill="white"/>
<path d="M322.357 66.5094C322.19 66.5094 322.036 66.4087 321.975 66.2422C321.909 66.0627 320.385 61.8537 323.279 59.6551C324.873 58.4463 326.217 58.8054 327.512 59.1514C328.57 59.4361 329.572 59.7033 330.77 59.1426C333.269 57.9732 331.855 53.5146 331.842 53.4708C331.772 53.2562 331.89 53.0241 332.105 52.954C332.321 52.884 332.553 53.0022 332.624 53.2168C332.694 53.427 334.275 58.4068 331.122 59.8828C329.651 60.5704 328.404 60.2376 327.301 59.9398C326.094 59.6157 325.053 59.3354 323.775 60.3033C321.365 62.134 322.73 65.9138 322.743 65.9532C322.822 66.1634 322.713 66.3999 322.502 66.4788C322.454 66.5007 322.405 66.5094 322.357 66.5094Z" fill="white"/>
<path d="M323.571 65.0377C321.81 65.0377 320.273 64.2625 320.168 64.2099C319.966 64.1048 319.887 63.8595 319.992 63.6581C320.097 63.4566 320.343 63.3778 320.545 63.4829C320.58 63.5004 324.181 65.3092 326.293 63.1456C327.409 62.0025 327.259 60.9338 327.084 59.6987C326.921 58.5731 326.741 57.2943 327.606 55.9234C329.459 52.9802 334.219 55.1526 334.421 55.2445C334.628 55.3409 334.716 55.5818 334.619 55.7876C334.522 55.9935 334.281 56.0811 334.075 55.9847C334.017 55.9584 329.767 54.027 328.3 56.357C327.598 57.4782 327.742 58.4987 327.896 59.5849C328.085 60.9119 328.283 62.2828 326.882 63.715C325.894 64.7223 324.686 65.0377 323.571 65.0377Z" fill="white"/>
</g>
</g>
<defs>
<clipPath id="clip0_1267_12129">
<rect width="542.64" height="328.79" fill="white"/>
</clipPath>
<clipPath id="clip1_1267_12129">
<rect width="378" height="269" fill="white" transform="translate(82 60)"/>
</clipPath>
<clipPath id="clip2_1267_12129">
<rect width="48" height="31" fill="white" transform="translate(317 39)"/>
</clipPath>
</defs>
</svg>
