<svg width="20" height="20" viewBox="0 0 20 20" fill="none" xmlns="http://www.w3.org/2000/svg">
<g clip-path="url(#clip0_439_5688)">
<path d="M7.14993 10.1901H12.7773M9.96362 7.37642V13.0038M4.56438 19.1635H15.3629C16.6556 19.1635 17.264 19.1635 17.7203 18.9354C18.1765 18.7072 18.4807 18.403 18.7089 17.9468C19.0131 17.4905 19.013 16.8061 19.013 15.5894V4.79087C19.013 3.4981 19.0131 2.88973 18.7849 2.43346C18.5568 1.97718 18.2526 1.673 17.7963 1.44487C17.34 1.21673 16.6556 1.21673 15.4389 1.21673H4.56438C3.2716 1.21673 2.66324 1.21673 2.20696 1.44487C1.75069 1.673 1.44651 1.97718 1.21837 2.43346C0.990234 2.88973 0.990234 3.4981 0.990234 4.79087V15.5894C0.990234 16.8821 0.990234 17.4905 1.21837 17.9468C1.44651 18.403 1.75069 18.7072 2.20696 18.9354C2.66324 19.1635 3.34765 19.1635 4.56438 19.1635Z" stroke="url(#paint0_linear_439_5688)" stroke-width="1.5038" stroke-miterlimit="4.01"/>
</g>
<defs>
<linearGradient id="paint0_linear_439_5688" x1="10.0016" y1="1.21673" x2="10.0016" y2="19.1635" gradientUnits="userSpaceOnUse">
<stop stop-color="#E527BB"/>
<stop offset="1" stop-color="#DAA7EE"/>
</linearGradient>
<clipPath id="clip0_439_5688">
<rect width="20" height="20" fill="white"/>
</clipPath>
</defs>
</svg>
