<svg width="557" height="339" viewBox="0 0 557 339" fill="none" xmlns="http://www.w3.org/2000/svg">
<g clip-path="url(#clip0_1267_11156)">
<path opacity="0.2" d="M85.5617 333.34C48.2417 295.41 -2.76825 256.24 17.2317 197.07C30.3917 158.15 62.6417 147.31 89.4617 123.31C102.692 111.47 94.3717 94.2299 94.1217 77.1199C93.5618 33.2999 145.942 -0.700057 194.102 0.00994261C246.262 0.779943 268.842 49.7299 312.602 52.3599C329.782 52.6099 345.172 43.1899 360.372 35.7199C405.412 13.5599 476.892 27.6899 480.502 81.2699C481.432 110.21 446.152 156.76 481.502 171.98C509.672 184.11 538.132 188.58 543.212 231.96C549.862 288.74 514.722 319.9 468.952 334.52L85.5617 333.34Z" fill="#999999"/>
<path d="M473.548 39.5681C480.581 40.9426 485.183 47.7839 483.809 54.8169C483.724 55.2522 483.617 55.678 483.49 56.0943C483.317 56.6526 483.705 57.2251 484.289 57.2511L486.2 57.3363C486.616 57.3552 486.985 57.0784 487.096 56.6763C487.2 56.2954 487.292 55.9074 487.37 55.5124C489.127 46.5159 483.239 37.7655 474.245 36.0079C473.564 35.8754 472.883 35.7879 472.209 35.7429C471.703 35.7098 471.27 36.1001 471.256 36.6064L471.211 38.4705C471.199 38.9412 471.559 39.3387 472.029 39.3694C472.533 39.4049 473.039 39.4688 473.548 39.5681Z" fill="#E527BB"/>
<path d="M475.346 30.3707C487.447 32.7363 495.369 44.5076 493.004 56.6125C493.004 56.6148 493.002 56.6196 493.002 56.6219C492.898 57.1518 493.281 57.651 493.82 57.6746L495.693 57.7574C496.041 57.483 496.266 57.3079 496.616 57.0335C499.193 43.0598 490.015 29.5356 476.041 26.8057C474.821 26.5668 473.606 26.4248 472.399 26.3633C471.91 26.3397 471.498 26.7347 471.487 27.2244L471.442 29.0838C471.43 29.5569 471.794 29.9614 472.265 29.9874C473.284 30.0466 474.313 30.1696 475.346 30.3707Z" fill="#E527BB"/>
<path d="M477.139 21.1754C493.863 24.4447 504.954 40.3748 502.419 57.0736C502.339 57.5988 502.72 58.079 503.249 58.1027L505.108 58.1855C505.56 58.2044 505.959 57.8827 506.026 57.4356C508.745 38.8939 496.408 21.2464 477.834 17.6151C476.089 17.2745 474.351 17.0758 472.624 17.0001C472.133 16.9788 471.721 17.3739 471.709 17.8659L471.664 19.7229C471.653 20.2079 472.033 20.6029 472.516 20.6242C474.048 20.6952 475.592 20.8726 477.139 21.1754Z" fill="#E527BB"/>
<path d="M20 104.547C20 138.399 48.4705 165.842 83.591 165.842C118.712 165.842 148.757 137.202 148.757 103.35C148.757 69.4977 118.714 43.2512 83.591 43.2512C48.4681 43.2512 20 70.6947 20 104.547Z" fill="#E527BB"/>
<path d="M143.767 89.6433C143.805 89.6433 143.842 89.6385 143.88 89.6291C144.114 89.5699 144.254 89.3381 144.192 89.111C143.509 86.6342 142.634 84.1763 141.593 81.8083C141.499 81.5931 141.239 81.4961 141.019 81.5836C140.796 81.6759 140.69 81.9242 140.785 82.1395C141.809 84.4696 142.669 86.8897 143.343 89.3286C143.393 89.5179 143.573 89.6433 143.767 89.6433Z" fill="white"/>
<path d="M134.047 70.4866C134.139 70.4866 134.231 70.4582 134.311 70.4014C134.505 70.2619 134.543 69.9945 134.397 69.8076C122.615 54.7481 103.637 45.7588 83.6302 45.7588C75.086 45.7588 66.8208 47.4289 59.0665 50.7195C58.8442 50.8141 58.7448 51.0649 58.8418 51.2778C58.9388 51.4907 59.1989 51.5877 59.4212 51.4954C67.062 48.2498 75.209 46.6057 83.6302 46.6057C103.363 46.6057 122.078 55.4696 133.697 70.3186C133.784 70.4298 133.914 70.4866 134.047 70.4866Z" fill="#7D97F4"/>
<path d="M29.7422 104.199C29.7422 133.502 54.3864 157.255 84.789 157.255C115.192 157.255 141.196 132.463 141.196 103.161C141.196 73.8576 115.189 51.1406 84.789 51.1406C54.3887 51.1406 29.7422 74.8961 29.7422 104.199Z" fill="white"/>
<path d="M28.6523 104.547C28.6523 75.2439 53.2965 51.4907 83.6991 51.4907C100.161 51.4907 115.331 58.1547 125.786 68.9159L83.3799 102.922L74.663 156.888C48.5597 152.734 28.6523 130.883 28.6523 104.547Z" fill="white"/>
<path d="M126.039 101.795C126.176 104.048 128.179 105.767 130.515 105.637C132.852 105.507 134.635 103.574 134.5 101.322C134.363 99.0703 132.36 97.3504 130.023 97.4806C127.687 97.6107 125.901 99.541 126.039 101.795Z" fill="#BDD0FB"/>
<path d="M34.4801 106.931C34.6149 109.183 36.6203 110.903 38.9567 110.773C41.2932 110.643 43.0763 108.71 42.9415 106.458C42.8044 104.206 40.8013 102.486 38.4648 102.619C36.1284 102.746 34.3429 104.679 34.4801 106.931Z" fill="#BDD0FB"/>
<path opacity="0.78" d="M91.9659 143.586C89.6625 143.991 88.1372 146.12 88.5581 148.339C88.9791 150.558 91.1855 152.029 93.4888 151.622C95.7922 151.218 97.3176 149.089 96.8966 146.87C96.4757 144.653 94.2692 143.182 91.9659 143.586Z" fill="white"/>
<path d="M75.4893 56.6263C73.1859 57.0308 71.6606 59.1599 72.0816 61.3788C72.5025 63.5978 74.7089 65.0692 77.0123 64.6623C79.3157 64.2578 80.841 62.1287 80.42 59.9098C79.9991 57.6908 77.7903 56.2218 75.4893 56.6263Z" fill="#BDD0FB"/>
<path opacity="0.78" d="M61.8383 145.921C61.4079 146.969 61.5143 147.949 62.0795 148.112C62.6423 148.275 63.4488 147.556 63.8792 146.51C64.3096 145.462 64.2031 144.483 63.6379 144.32C63.0751 144.157 62.2687 144.876 61.8383 145.921Z" fill="white"/>
<path d="M98.6703 63.4394C98.2399 64.4874 98.3463 65.4667 98.9115 65.6299C99.4744 65.7932 100.281 65.074 100.711 64.0284C101.142 62.9805 101.035 62.0011 100.47 61.8379C99.9071 61.6746 99.1007 62.3914 98.6703 63.4394Z" fill="#BDD0FB"/>
<path d="M42.6041 130.242C41.6723 130.921 41.2348 131.813 41.6298 132.234C42.0247 132.655 43.0984 132.444 44.0325 131.766C44.9642 131.087 45.4017 130.195 45.0068 129.774C44.6119 129.353 43.5359 129.563 42.6041 130.242Z" fill="#BDD0FB"/>
<path d="M118.518 78.1842C117.586 78.8631 117.149 79.755 117.544 80.176C117.939 80.5971 119.012 80.3866 119.944 79.7076C120.876 79.0287 121.313 78.1369 120.918 77.7158C120.526 77.2947 119.45 77.5053 118.518 78.1842Z" fill="#BDD0FB"/>
<path opacity="0.78" d="M40.1919 83.54C39.1372 83.055 38.1132 83.0929 37.9075 83.6251C37.7017 84.155 38.3899 84.9783 39.4446 85.4632C40.4993 85.9482 41.5233 85.9103 41.7291 85.3781C41.9348 84.8482 41.2466 84.0249 40.1919 83.54Z" fill="white"/>
<path d="M123.106 124.487C122.051 124.002 121.027 124.039 120.822 124.572C120.616 125.102 121.304 125.925 122.359 126.41C123.413 126.895 124.437 126.857 124.643 126.325C124.851 125.795 124.161 124.971 123.106 124.487Z" fill="#BDD0FB"/>
<path d="M57.711 66.0935C57.0702 65.152 56.1762 64.6718 55.7151 65.0219C55.254 65.372 55.3982 66.42 56.0391 67.3639C56.68 68.3054 57.5739 68.7856 58.035 68.4355C58.4962 68.0854 58.3519 67.0351 57.711 66.0935Z" fill="#BDD0FB"/>
<path opacity="0.78" d="M106.512 142.586C105.871 141.644 104.977 141.164 104.516 141.514C104.055 141.864 104.199 142.912 104.84 143.854C105.481 144.795 106.375 145.275 106.836 144.925C107.299 144.575 107.153 143.527 106.512 142.586Z" fill="white"/>
<path d="M83.0568 103.608L53.9785 92.0633C53.4157 91.8386 52.8056 92.2786 52.8647 92.8629L53.2194 96.3451C53.288 97.0216 52.4863 97.4569 51.9258 97.0453L30.3773 81.217C29.7175 80.732 30.1621 79.7172 30.9827 79.826L57.5542 83.3744C58.1903 83.4596 58.4694 84.1929 58.0437 84.6589L55.1822 87.7886C54.8275 88.1766 54.9529 88.7798 55.4329 89.0022L83.7213 102.186C84.1163 102.37 84.2842 102.825 84.0997 103.208C83.92 103.591 83.4588 103.766 83.0568 103.608Z" fill="#A78BEF"/>
<path d="M83.3957 101.661L83.4643 69.5758C83.4525 68.8661 82.6603 68.4237 82.0147 68.7691L78.186 70.8272C77.441 71.227 76.5589 70.5764 76.7647 69.7792L84.6846 39.1043C84.9282 38.1651 86.3045 38.1509 86.5694 39.083L95.142 69.2162C95.3477 69.9377 94.6383 70.5882 93.9004 70.3588L88.9437 68.8046C88.3312 68.613 87.6974 69.0364 87.669 69.6562L85.342 101.687C85.3184 102.198 84.8785 102.595 84.3488 102.586C83.8238 102.574 83.4028 102.165 83.3957 101.661Z" fill="#A78BEF"/>
<path d="M83.9795 107.374C86.4793 107.374 88.5058 105.421 88.5058 103.011C88.5058 100.602 86.4793 98.6492 83.9795 98.6492C81.4796 98.6492 79.4531 100.602 79.4531 103.011C79.4531 105.421 81.4796 107.374 83.9795 107.374Z" fill="#A78BEF"/>
<path d="M64.9855 37.4768C65.0801 37.4768 65.1747 37.4555 65.2646 37.4106C87.1821 26.3963 106.009 37.2781 106.196 37.3893C106.494 37.5644 106.877 37.4674 107.052 37.1693C107.229 36.8736 107.13 36.488 106.834 36.313C106.635 36.1947 101.894 33.4127 94.3027 31.9957C87.3027 30.6875 76.4835 30.3729 64.7041 36.2917C64.3967 36.4478 64.2714 36.8216 64.4251 37.1315C64.5362 37.3491 64.7561 37.4768 64.9855 37.4768Z" fill="#A78BEF"/>
<path d="M65.4035 32.0572C65.4981 32.0572 65.5927 32.0359 65.6826 31.9909C87.6001 20.9766 106.427 31.8584 106.614 31.9696C106.911 32.1447 107.295 32.0477 107.47 31.7496C107.647 31.4539 107.548 31.0683 107.252 30.8933C107.053 30.775 102.312 27.993 94.7206 26.576C87.7207 25.2678 76.9014 24.9532 65.1221 30.872C64.8147 31.0281 64.6893 31.4019 64.843 31.7118C64.9542 31.9318 65.1741 32.0572 65.4035 32.0572Z" fill="#A78BEF"/>
<path d="M130.652 236.167H100.566V243.309H130.652V236.167Z" fill="#CC1FAB"/>
<path d="M129.087 236.167H102.128C99.9873 236.167 98.2539 234.433 98.2539 232.293V176.279C98.2539 174.139 99.9873 172.405 102.128 172.405H129.087C131.227 172.405 132.961 174.139 132.961 176.279V232.293C132.958 234.431 131.225 236.167 129.087 236.167Z" fill="#E527BB"/>
<path d="M308.072 323.473H66.9348C63.9148 323.473 61.4648 321.024 61.4648 318.001V253.304H313.887V317.653C313.89 320.868 311.284 323.473 308.072 323.473Z" fill="#8166E2"/>
<path d="M309.033 310.452H67.0322C63.8325 310.452 61.2383 307.857 61.2383 304.657V240.283H314.46V305.021C314.46 308.021 312.031 310.452 309.033 310.452Z" fill="#A78BEF"/>
<path d="M97.6035 310.453H97.4592C97.1305 310.453 96.8633 310.185 96.8633 309.854V240.88C96.8633 240.551 97.1305 240.281 97.4592 240.281H97.6035C97.9322 240.281 98.1994 240.549 98.1994 240.88V309.854C98.1994 310.185 97.9322 310.453 97.6035 310.453Z" fill="#BDD0FB"/>
<path d="M134.188 310.453H134.044C133.715 310.453 133.445 310.185 133.445 309.854V240.88C133.445 240.551 133.713 240.281 134.044 240.281H134.188C134.517 240.281 134.786 240.549 134.786 240.88V309.854C134.784 310.185 134.517 310.453 134.188 310.453Z" fill="#BDD0FB"/>
<path opacity="0.3" d="M169.75 310.453H169.606C169.277 310.453 169.008 310.185 169.008 309.854V240.88C169.008 240.551 169.275 240.281 169.606 240.281H169.75C170.079 240.281 170.349 240.549 170.349 240.88V309.854C170.349 310.185 170.081 310.453 169.75 310.453Z" fill="white"/>
<path opacity="0.3" d="M277.278 310.453H277.133C276.805 310.453 276.535 310.185 276.535 309.854V240.88C276.535 240.551 276.802 240.281 277.133 240.281H277.278C277.606 240.281 277.876 240.549 277.876 240.88V309.854C277.876 310.185 277.609 310.453 277.278 310.453Z" fill="white"/>
<path opacity="0.3" d="M206.34 310.453H206.196C205.867 310.453 205.598 310.185 205.598 309.854V240.88C205.598 240.551 205.865 240.281 206.196 240.281H206.34C206.669 240.281 206.936 240.549 206.936 240.88V309.854C206.936 310.185 206.669 310.453 206.34 310.453Z" fill="white"/>
<path opacity="0.3" d="M241.711 310.453H241.567C241.238 310.453 240.969 310.185 240.969 309.854V240.88C240.969 240.551 241.236 240.281 241.567 240.281H241.711C242.04 240.281 242.31 240.549 242.31 240.88V309.854C242.31 310.185 242.042 310.453 241.711 310.453Z" fill="white"/>
<path d="M133.443 244.584H98.2539V308.345H133.443V244.584Z" fill="#E527BB"/>
<path d="M112.235 295.502C117.206 295.502 121.236 291.471 121.236 286.498C121.236 281.526 117.206 277.495 112.235 277.495C107.264 277.495 103.234 281.526 103.234 286.498C103.234 291.471 107.264 295.502 112.235 295.502Z" fill="url(#paint0_linear_1267_11156)"/>
<path d="M119.829 281.793L119.976 282.022C120.033 282.112 120.007 282.233 119.917 282.29L105.163 291.66C105.073 291.717 104.952 291.691 104.895 291.601L104.749 291.371C104.692 291.281 104.718 291.161 104.808 291.104L119.565 281.734C119.652 281.675 119.773 281.703 119.829 281.793Z" fill="url(#paint1_linear_1267_11156)"/>
<path d="M117.729 301.009C114.969 299.862 113.65 296.663 114.797 293.903L119.29 283.092C120.437 280.331 123.634 279.011 126.394 280.158C129.154 281.306 130.473 284.504 129.326 287.265L124.833 298.076C123.684 300.836 120.489 302.156 117.729 301.009Z" fill="url(#paint2_linear_1267_11156)"/>
<path d="M127.235 292.294L130.236 285.072C131.383 282.311 130.063 279.113 127.303 277.966C124.543 276.818 121.346 278.138 120.199 280.899L117.137 288.268C117.834 288.772 118.579 289.212 119.35 289.588C121.814 290.783 124.489 291.847 127.235 292.294Z" fill="url(#paint3_linear_1267_11156)"/>
<path d="M119.518 273.059L118.328 273.771C115.706 275.342 112.276 274.479 110.709 271.857L102.363 257.914C100.644 255.043 101.587 251.288 104.458 249.569C107.32 247.856 111.063 248.795 112.778 251.657L121.31 265.915C122.781 268.373 121.975 271.588 119.518 273.059Z" fill="url(#paint4_linear_1267_11156)"/>
<path d="M117.269 259.166L112.781 251.665C111.064 248.798 107.316 247.856 104.449 249.574C101.583 251.291 100.642 255.041 102.357 257.908L106.935 265.56C107.85 265.269 108.742 264.891 109.593 264.451C112.308 263.032 115.044 261.335 117.269 259.166Z" fill="url(#paint5_linear_1267_11156)"/>
<path d="M77.7205 259.31C77.7205 260.763 77.354 261.875 76.6209 262.648C75.8878 263.422 74.8307 263.807 73.4472 263.807C72.0945 263.807 70.9429 263.542 69.9922 263.01V260.15C71.1533 260.907 72.2199 261.288 73.1918 261.288C73.7452 261.288 74.1614 261.136 74.4405 260.831C74.7195 260.526 74.8614 260.112 74.8614 259.587C74.8614 259.069 74.6959 258.596 74.3624 258.168C74.029 257.739 73.4804 257.262 72.7141 256.739C72.0473 256.278 71.5435 255.838 71.2006 255.416C70.8577 254.995 70.5905 254.522 70.4037 253.997C70.2169 253.472 70.1223 252.864 70.1223 252.168C70.1223 250.837 70.4935 249.779 71.2337 249.001C71.9739 248.22 72.9672 247.832 74.2158 247.832C75.4053 247.832 76.5499 248.166 77.6472 248.833L76.6895 251.151C76.3489 250.953 75.9942 250.775 75.6205 250.621C75.2493 250.465 74.8496 250.387 74.4263 250.387C73.9581 250.387 73.5986 250.541 73.3479 250.851C73.0972 251.158 72.9719 251.579 72.9719 252.109C72.9719 252.634 73.1233 253.091 73.4236 253.481C73.7239 253.872 74.2513 254.314 75.001 254.811C76.0131 255.492 76.7202 256.185 77.1199 256.895C77.5195 257.595 77.7205 258.404 77.7205 259.31Z" fill="#BDD0FB"/>
<path d="M89.1858 248.052V258.108C89.1858 259.958 88.7672 261.371 87.9324 262.345C87.0953 263.32 85.8892 263.807 84.3095 263.807C82.7652 263.807 81.5875 263.322 80.7811 262.355C79.9747 261.387 79.5703 259.958 79.5703 258.066V248.052H82.4389V258.279C82.4389 260.256 83.094 261.245 84.4041 261.245C85.0142 261.245 85.4848 260.995 85.8183 260.491C86.1517 259.987 86.3172 259.272 86.3172 258.343V248.052H89.1858Z" fill="#BDD0FB"/>
<path d="M189.366 263.808H185.753L184.232 255.665C183.998 254.553 183.832 253.238 183.733 251.722L183.648 252.509L183.213 255.71L181.735 263.81H178.121L175.305 248.268H178.143L179.535 257.037C179.67 257.915 179.85 259.294 180.077 261.172C180.254 259.273 180.42 257.915 180.576 257.101L182.234 248.268H185.23L186.888 257.101C187.108 258.412 187.28 259.777 187.408 261.194C187.656 259.095 187.836 257.711 187.95 257.037L189.3 248.268H192.161L189.366 263.808Z" fill="#BDD0FB"/>
<path d="M200.727 263.807H193.723V248.265H200.725V250.763H196.613V254.463H200.427V256.971H196.613V261.276H200.725V263.807H200.727Z" fill="#BDD0FB"/>
<path d="M146.965 263.594H144.084V250.593H141.109V248.052H149.94V250.593H146.965V263.594Z" fill="#BDD0FB"/>
<path d="M161.78 248.052V258.108C161.78 259.958 161.361 261.371 160.526 262.345C159.691 263.32 158.483 263.807 156.903 263.807C155.359 263.807 154.181 263.322 153.375 262.355C152.568 261.387 152.164 259.958 152.164 258.066V248.052H155.03V258.279C155.03 260.256 155.685 261.245 156.995 261.245C157.606 261.245 158.076 260.995 158.41 260.491C158.743 259.987 158.909 259.272 158.909 258.343V248.052H161.78Z" fill="#BDD0FB"/>
<path d="M219.105 263.807H216.225V250.806H213.25V248.265H222.08V250.806H219.105V263.807Z" fill="#BDD0FB"/>
<path d="M233.336 263.807H230.447V256.992H226.632V263.807H223.742V248.265H226.632V254.442H230.447V248.265H233.336V263.807Z" fill="#BDD0FB"/>
<path d="M253.619 263.807H250.75V248.265H257.712V250.763H253.621V255.078H257.435V257.576H253.621V263.807H253.619Z" fill="#BDD0FB"/>
<path d="M262.546 257.758V263.807H259.656V248.265H263.44C265.041 248.265 266.223 248.644 266.985 249.403C267.746 250.162 268.127 251.322 268.127 252.88C268.127 254.844 267.465 256.216 266.141 256.994L269.128 263.81H266.034L263.58 257.761L262.546 257.758ZM262.546 255.272H263.291C263.972 255.272 264.459 255.078 264.757 254.693C265.055 254.307 265.204 253.73 265.204 252.966C265.204 252.173 265.046 251.605 264.731 251.269C264.417 250.934 263.93 250.763 263.27 250.763H262.546V255.272Z" fill="#BDD0FB"/>
<path d="M294.542 259.31C294.542 260.763 294.176 261.875 293.443 262.648C292.71 263.422 291.653 263.807 290.269 263.807C288.916 263.807 287.765 263.542 286.816 263.01V260.15C287.978 260.907 289.044 261.288 290.016 261.288C290.569 261.288 290.986 261.136 291.265 260.831C291.544 260.526 291.686 260.112 291.686 259.587C291.686 259.069 291.52 258.596 291.187 258.168C290.853 257.739 290.305 257.262 289.538 256.739C288.871 256.278 288.368 255.838 288.025 255.416C287.682 254.995 287.415 254.522 287.228 253.997C287.039 253.472 286.946 252.864 286.946 252.168C286.946 250.837 287.315 249.779 288.058 249.001C288.798 248.22 289.791 247.832 291.04 247.832C292.23 247.832 293.374 248.166 294.471 248.833L293.514 251.151C293.173 250.953 292.818 250.775 292.445 250.621C292.073 250.465 291.674 250.387 291.248 250.387C290.78 250.387 290.42 250.541 290.17 250.851C289.919 251.158 289.794 251.579 289.794 252.109C289.794 252.634 289.945 253.091 290.245 253.481C290.546 253.872 291.073 254.314 291.823 254.811C292.835 255.492 293.542 256.185 293.942 256.895C294.341 257.595 294.542 258.404 294.542 259.31Z" fill="#BDD0FB"/>
<path d="M303.808 263.594L302.914 259.672H298.866L297.972 263.594H295.082L298.93 247.988H302.851L306.708 263.594H303.808ZM302.373 257.11L301.543 253.495C301.493 253.275 301.382 252.724 301.207 251.842C301.034 250.959 300.928 250.37 300.893 250.072C300.8 250.683 300.684 251.355 300.543 252.088C300.401 252.821 300.032 254.496 299.438 257.11H302.373Z" fill="#BDD0FB"/>
<path d="M302.181 42.861L460.823 44.744C469.592 44.8481 476.471 53.0071 476.464 63.255L476.322 316.807C476.317 323.899 470.992 329.782 464.566 329.813L294.486 330.622C288.484 330.65 283.562 325.238 283.562 318.595V64.4875C283.565 52.4489 291.899 42.738 302.181 42.861Z" fill="#E527BB"/>
<path d="M452.605 67.5889H306.386C300.254 67.5889 295.328 72.6442 295.328 78.6197V291.502C295.328 297.477 300.254 302.109 306.386 302.109H452.605C458.737 302.109 463.753 297.477 463.753 291.502V78.6197C463.753 72.6442 458.737 67.5889 452.605 67.5889Z" fill="#A78BEF"/>
<path opacity="0.87" d="M447.952 198.303H311.462C308.109 198.303 305.363 195.559 305.363 192.205V112.606C305.363 109.252 308.106 106.508 311.462 106.508H447.952C451.306 106.508 454.051 109.252 454.051 112.606V192.205C454.049 195.559 451.306 198.303 447.952 198.303Z" fill="white"/>
<path d="M443.839 90.2939H406.505C404.864 90.2939 403.535 91.5312 403.535 93.0546C403.535 94.5781 404.864 95.8153 406.505 95.8153H443.839C445.481 95.8153 446.81 94.5781 446.81 93.0546C446.81 91.5312 445.481 90.2939 443.839 90.2939Z" fill="white"/>
<path d="M443.839 81.6523H406.505C404.864 81.6523 403.535 82.8896 403.535 84.413C403.535 85.9365 404.864 87.1737 406.505 87.1737H443.839C445.481 87.1737 446.81 85.9365 446.81 84.413C446.81 82.8896 445.481 81.6523 443.839 81.6523Z" fill="white"/>
<path d="M369.047 116.588L442.09 115.713C442.84 115.703 443.448 116.316 443.434 117.063L443.412 118.239C443.398 118.965 442.805 119.547 442.079 119.542L369.057 119.24C368.316 119.237 367.72 118.629 367.735 117.887C367.749 117.174 368.331 116.595 369.047 116.588Z" fill="#E527BB"/>
<path d="M367.623 124.013L367.614 124.515C367.599 125.248 368.183 125.854 368.917 125.866L441.922 127.176C442.655 127.19 443.261 126.606 443.272 125.873L443.282 125.371C443.296 124.638 442.712 124.032 441.979 124.021L368.973 122.71C368.243 122.696 367.637 123.28 367.623 124.013Z" fill="#E527BB"/>
<path d="M389.665 130.959L389.66 131.179C389.646 131.912 390.23 132.518 390.963 132.53L441.81 133.443C442.543 133.457 443.149 132.873 443.161 132.139L443.179 131.106C443.194 130.363 442.595 129.755 441.855 129.752L390.994 129.653C390.268 129.653 389.677 130.233 389.665 130.959Z" fill="#E527BB"/>
<path d="M443.758 192.801L317.366 193.288C317.049 193.291 316.791 193.033 316.789 192.716C316.787 192.399 317.044 192.141 317.361 192.138L443.754 191.651C444.07 191.649 444.328 191.907 444.331 192.224C444.333 192.541 444.075 192.801 443.758 192.801Z" fill="#7D97F4"/>
<path d="M327.329 190.594H320.19C319.946 190.594 319.75 190.398 319.75 190.154V183.464C319.75 183.22 319.946 183.024 320.19 183.024H327.329C327.573 183.024 327.769 183.22 327.769 183.464V190.154C327.769 190.398 327.573 190.594 327.329 190.594Z" fill="#E527BB"/>
<path d="M337.837 190.594H330.698C330.454 190.594 330.258 190.398 330.258 190.154V183.464C330.258 183.22 330.454 183.024 330.698 183.024H337.837C338.081 183.024 338.277 183.22 338.277 183.464V190.154C338.277 190.398 338.081 190.594 337.837 190.594Z" fill="#E527BB"/>
<path d="M347.952 190.594H341.607C341.143 190.594 340.77 190.218 340.77 189.756V163.955C340.77 163.491 341.143 163.117 341.607 163.117H347.952C348.415 163.117 348.789 163.493 348.789 163.955V189.756C348.789 190.22 348.413 190.594 347.952 190.594Z" fill="#E527BB"/>
<path d="M358.857 190.594H351.717C351.474 190.594 351.277 190.398 351.277 190.154V183.464C351.277 183.22 351.474 183.024 351.717 183.024H358.857C359.1 183.024 359.297 183.22 359.297 183.464V190.154C359.297 190.398 359.1 190.594 358.857 190.594Z" fill="#E527BB"/>
<path d="M368.72 190.594H362.879C362.279 190.594 361.789 190.106 361.789 189.503V145.183C361.789 144.582 362.276 144.093 362.879 144.093H368.72C369.321 144.093 369.811 144.58 369.811 145.183V189.506C369.808 190.106 369.321 190.594 368.72 190.594Z" fill="#E527BB"/>
<path d="M379.88 190.594H372.741C372.497 190.594 372.301 190.398 372.301 190.154V183.464C372.301 183.22 372.497 183.024 372.741 183.024H379.88C380.124 183.024 380.32 183.22 380.32 183.464V190.154C380.318 190.398 380.121 190.594 379.88 190.594Z" fill="#E527BB"/>
<path d="M389.856 190.594H383.781C383.244 190.594 382.809 190.158 382.809 189.621V154.577C382.809 154.04 383.244 153.605 383.781 153.605H389.856C390.393 153.605 390.828 154.04 390.828 154.577V189.621C390.825 190.158 390.39 190.594 389.856 190.594Z" fill="#E527BB"/>
<path d="M400.896 190.594H393.756C393.513 190.594 393.316 190.398 393.316 190.154V183.464C393.316 183.22 393.513 183.024 393.756 183.024H400.896C401.139 183.024 401.336 183.22 401.336 183.464V190.154C401.336 190.398 401.137 190.594 400.896 190.594Z" fill="#E527BB"/>
<path d="M410.756 190.594H404.914C404.314 190.594 403.824 190.106 403.824 189.503V145.183C403.824 144.582 404.311 144.093 404.914 144.093H410.756C411.356 144.093 411.846 144.58 411.846 145.183V189.506C411.846 190.106 411.356 190.594 410.756 190.594Z" fill="#E527BB"/>
<path d="M421.915 190.594H414.776C414.532 190.594 414.336 190.398 414.336 190.154V183.464C414.336 183.22 414.532 183.024 414.776 183.024H421.915C422.159 183.024 422.355 183.22 422.355 183.464V190.154C422.355 190.398 422.159 190.594 421.915 190.594Z" fill="#E527BB"/>
<path d="M432.094 190.594H425.615C425.189 190.594 424.844 190.249 424.844 189.823V168.113C424.844 167.688 425.189 167.342 425.615 167.342H432.094C432.52 167.342 432.865 167.688 432.865 168.113V189.823C432.865 190.249 432.52 190.594 432.094 190.594Z" fill="#E527BB"/>
<path d="M442.935 190.594H435.795C435.552 190.594 435.355 190.398 435.355 190.154V183.464C435.355 183.22 435.552 183.024 435.795 183.024H442.935C443.178 183.024 443.375 183.22 443.375 183.464V190.154C443.375 190.398 443.178 190.594 442.935 190.594Z" fill="#E527BB"/>
<path d="M329.249 138.832C336.128 138.832 341.704 133.253 341.704 126.372C341.704 119.491 336.128 113.912 329.249 113.912C322.37 113.912 316.793 119.491 316.793 126.372C316.793 133.253 322.37 138.832 329.249 138.832Z" fill="#E527BB"/>
<path opacity="0.87" d="M450.879 230.975H308.538C306.793 230.975 305.367 229.548 305.367 227.803V209.32C305.367 207.574 306.793 206.148 308.538 206.148H450.879C452.624 206.148 454.051 207.574 454.051 209.32V227.803C454.051 229.548 452.624 230.975 450.879 230.975Z" fill="white"/>
<path opacity="0.87" d="M450.374 262.445H308.031C306.285 262.445 304.859 261.018 304.859 259.272V240.79C304.859 239.044 306.285 237.617 308.031 237.617H450.374C452.119 237.617 453.545 239.044 453.545 240.79V259.272C453.545 261.018 452.117 262.445 450.374 262.445Z" fill="white"/>
<path opacity="0.87" d="M449.362 293.915H307.019C305.274 293.915 303.848 292.488 303.848 290.742V272.26C303.848 270.514 305.274 269.087 307.019 269.087H449.362C451.107 269.087 452.533 270.514 452.533 272.26V290.742C452.533 292.488 451.107 293.915 449.362 293.915Z" fill="white"/>
<path d="M316.984 227.299C314.891 225.595 314.572 222.489 316.274 220.396L320.98 214.609C322.683 212.516 325.788 212.196 327.881 213.9C329.974 215.603 330.293 218.709 328.591 220.803L323.884 226.589C322.182 228.682 319.077 229.002 316.984 227.299Z" fill="url(#paint6_linear_1267_11156)"/>
<path d="M327.45 222.203L331.905 216.727C333.608 214.633 333.289 211.527 331.196 209.824C329.103 208.121 325.998 208.44 324.295 210.533L319.75 216.121C320.223 216.736 320.755 217.309 321.325 217.834C323.148 219.502 325.189 221.113 327.45 222.203Z" fill="url(#paint7_linear_1267_11156)"/>
<path d="M315.414 290.241C313.321 288.538 313.001 285.432 314.704 283.338L319.599 277.32C321.302 275.226 324.407 274.907 326.5 276.61C328.593 278.313 328.912 281.419 327.209 283.513L322.314 289.531C320.614 291.625 317.506 291.944 315.414 290.241Z" fill="url(#paint8_linear_1267_11156)"/>
<path d="M325.884 285.145L330.339 279.669C332.042 277.575 331.722 274.469 329.63 272.766C327.537 271.063 324.432 271.382 322.729 273.476L318.184 279.063C318.657 279.678 319.189 280.251 319.759 280.776C321.58 282.444 323.623 284.052 325.884 285.145Z" fill="url(#paint9_linear_1267_11156)"/>
<path d="M322.518 258.546C326.968 258.546 330.575 254.938 330.575 250.486C330.575 246.035 326.968 242.427 322.518 242.427C318.068 242.427 314.461 246.035 314.461 250.486C314.461 254.938 318.068 258.546 322.518 258.546Z" fill="url(#paint10_linear_1267_11156)"/>
<path d="M327.576 244.288L327.689 244.378C327.786 244.454 327.803 244.596 327.727 244.693L318.107 256.909C318.031 257.006 317.889 257.023 317.793 256.947L317.679 256.857C317.582 256.781 317.565 256.639 317.641 256.542L327.261 244.326C327.337 244.229 327.479 244.213 327.576 244.288Z" fill="url(#paint11_linear_1267_11156)"/>
<path d="M314.889 82.8539L317.486 90.9514L320.075 82.8539H323.767V94.4904H320.955V91.7723L321.227 86.2084L318.415 94.488H316.561L313.74 86.1989L314.012 91.7699V94.488H311.207V82.8516H314.889V82.8539Z" fill="white"/>
<path d="M335.399 88.9123C335.399 90.0478 335.188 91.0508 334.767 91.9261C334.346 92.8014 333.748 93.4732 332.975 93.944C332.199 94.4147 331.317 94.6513 330.326 94.6513C329.335 94.6513 328.455 94.4242 327.689 93.9676C326.923 93.5111 326.325 92.8605 325.897 92.0136C325.469 91.1668 325.242 90.1945 325.223 89.0968V88.4416C325.223 87.3013 325.431 86.2959 325.849 85.423C326.268 84.5525 326.866 83.8783 327.647 83.4052C328.427 82.932 329.316 82.6931 330.312 82.6931C331.298 82.6931 332.175 82.9273 332.949 83.3957C333.722 83.8641 334.323 84.5312 334.751 85.397C335.179 86.2628 335.396 87.2564 335.401 88.373L335.399 88.9123ZM332.544 88.425C332.544 87.2682 332.35 86.3906 331.965 85.7921C331.579 85.1936 331.026 84.8931 330.307 84.8931C328.9 84.8931 328.157 85.9482 328.077 88.0583L328.07 88.9123C328.07 90.0525 328.259 90.9302 328.637 91.5429C329.016 92.1556 329.576 92.4631 330.324 92.4631C331.031 92.4631 331.577 92.1627 331.962 91.5594C332.346 90.9562 332.54 90.0928 332.547 88.962L332.544 88.425Z" fill="white"/>
<path d="M346.562 94.4905H343.774L339.652 87.2493V94.4905H336.848V82.854H339.652L343.767 90.0952V82.854H346.562V94.4905Z" fill="white"/>
<path d="M348.336 94.4905V82.854H352.084C353.113 82.854 354.038 83.0858 354.856 83.5542C355.676 84.0203 356.317 84.6779 356.776 85.5295C357.237 86.3788 357.469 87.3321 357.476 88.3872V88.9218C357.476 89.9887 357.251 90.942 356.802 91.7866C356.353 92.6311 355.719 93.2911 354.901 93.769C354.083 94.2468 353.172 94.4881 352.165 94.4928L348.336 94.4905ZM351.138 85.0209V92.3354H352.113C352.917 92.3354 353.534 92.0492 353.967 91.4767C354.397 90.9042 354.615 90.0526 354.615 88.9242V88.4203C354.615 87.2966 354.399 86.4497 353.967 85.8796C353.536 85.3095 352.907 85.0256 352.082 85.0256L351.138 85.0209Z" fill="white"/>
<path d="M365.355 92.3165H361.512L360.84 94.4905H357.844L362.11 82.854H364.747L369.046 94.4905H366.033L365.355 92.3165ZM362.183 90.1519H364.683L363.43 86.1162L362.183 90.1519Z" fill="white"/>
<path d="M372.949 87.9046L375.092 82.854H378.121L374.373 90.3104V94.4905H371.528V90.3104L367.789 82.854H370.802L372.949 87.9046Z" fill="white"/>
<path d="M423.199 215.407L419.529 224.02H417.126L420.803 215.948H416.121V214.193H423.199V215.407Z" fill="#E527BB"/>
<path d="M425.818 221.813C426.178 221.813 426.478 221.919 426.717 222.132C426.956 222.345 427.074 222.619 427.074 222.953C427.074 223.287 426.956 223.559 426.717 223.774C426.478 223.987 426.18 224.093 425.818 224.093C425.454 224.093 425.154 223.984 424.917 223.769C424.681 223.554 424.562 223.282 424.562 222.953C424.562 222.624 424.681 222.352 424.917 222.137C425.154 221.922 425.454 221.813 425.818 221.813Z" fill="#E527BB"/>
<path d="M435.371 220.003C435.371 221.33 435.073 222.354 434.477 223.074C433.881 223.793 433.041 224.152 431.956 224.152C430.863 224.152 430.016 223.79 429.418 223.067C428.82 222.343 428.52 221.321 428.52 220.003V218.208C428.52 216.88 428.818 215.856 429.413 215.137C430.009 214.418 430.851 214.056 431.942 214.056C433.032 214.056 433.874 214.418 434.472 215.142C435.07 215.866 435.371 216.89 435.371 218.212V220.003ZM433.098 217.919C433.098 217.212 433.006 216.684 432.821 216.336C432.637 215.989 432.344 215.814 431.944 215.814C431.551 215.814 431.267 215.974 431.09 216.299C430.913 216.623 430.816 217.112 430.804 217.77V220.28C430.804 221.013 430.896 221.55 431.081 221.891C431.265 222.231 431.558 222.399 431.958 222.399C432.346 222.399 432.63 222.234 432.814 221.903C432.999 221.571 433.093 221.053 433.098 220.346V217.919Z" fill="#E527BB"/>
<path d="M443.374 220.003C443.374 221.33 443.076 222.354 442.48 223.074C441.885 223.793 441.045 224.152 439.96 224.152C438.867 224.152 438.02 223.79 437.422 223.067C436.824 222.343 436.523 221.321 436.523 220.003V218.208C436.523 216.88 436.821 215.856 437.417 215.137C438.013 214.418 438.855 214.056 439.945 214.056C441.036 214.056 441.877 214.418 442.476 215.142C443.074 215.866 443.374 216.89 443.374 218.212V220.003ZM441.102 217.919C441.102 217.212 441.01 216.684 440.825 216.336C440.641 215.989 440.347 215.814 439.948 215.814C439.555 215.814 439.271 215.974 439.094 216.299C438.917 216.623 438.82 217.112 438.808 217.77V220.28C438.808 221.013 438.9 221.55 439.085 221.891C439.269 222.231 439.562 222.399 439.962 222.399C440.35 222.399 440.634 222.234 440.818 221.903C441.002 221.571 441.097 221.053 441.102 220.346V217.919Z" fill="#E527BB"/>
<path d="M422.995 247.995C422.995 248.473 422.877 248.894 422.641 249.256C422.404 249.62 422.08 249.914 421.666 250.134C422.135 250.363 422.506 250.678 422.78 251.075C423.054 251.473 423.192 251.946 423.192 252.49C423.192 253.368 422.889 254.061 422.284 254.569C421.678 255.078 420.846 255.331 419.784 255.331C418.717 255.331 417.878 255.076 417.261 254.565C416.643 254.054 416.336 253.363 416.336 252.49C416.336 251.965 416.471 251.499 416.74 251.092C417.01 250.685 417.393 250.368 417.887 250.134C417.469 249.914 417.14 249.62 416.901 249.256C416.662 248.892 416.544 248.471 416.544 247.995C416.544 247.141 416.835 246.465 417.414 245.97C417.994 245.476 418.776 245.228 419.763 245.228C420.756 245.228 421.543 245.476 422.125 245.97C422.707 246.467 422.995 247.141 422.995 247.995ZM420.912 252.31C420.912 251.906 420.808 251.593 420.597 251.376C420.387 251.158 420.113 251.049 419.772 251.049C419.429 251.049 419.152 251.158 418.942 251.376C418.732 251.593 418.625 251.906 418.625 252.31C418.625 252.703 418.732 253.01 418.944 253.238C419.157 253.465 419.439 253.578 419.784 253.578C420.122 253.578 420.394 253.467 420.6 253.24C420.808 253.015 420.912 252.705 420.912 252.31ZM419.765 246.983C419.46 246.983 419.226 247.082 419.067 247.283C418.909 247.484 418.829 247.761 418.829 248.116C418.829 248.466 418.909 248.75 419.072 248.965C419.235 249.18 419.472 249.289 419.786 249.289C420.096 249.289 420.33 249.18 420.484 248.965C420.638 248.75 420.716 248.466 420.716 248.116C420.716 247.766 420.635 247.489 420.477 247.286C420.316 247.085 420.08 246.983 419.765 246.983Z" fill="#E527BB"/>
<path d="M425.818 252.991C426.178 252.991 426.478 253.098 426.717 253.311C426.956 253.524 427.074 253.798 427.074 254.132C427.074 254.465 426.956 254.737 426.717 254.953C426.478 255.165 426.18 255.272 425.818 255.272C425.454 255.272 425.154 255.163 424.917 254.948C424.681 254.733 424.562 254.46 424.562 254.132C424.562 253.803 424.681 253.531 424.917 253.316C425.154 253.098 425.454 252.991 425.818 252.991Z" fill="#E527BB"/>
<path d="M430.625 249.332H431.699C432.548 249.332 432.973 248.916 432.973 248.083C432.973 247.759 432.872 247.494 432.671 247.29C432.467 247.087 432.183 246.983 431.814 246.983C431.512 246.983 431.252 247.07 431.029 247.245C430.807 247.42 430.696 247.64 430.696 247.901H428.423C428.423 247.383 428.567 246.921 428.856 246.517C429.145 246.112 429.544 245.795 430.053 245.568C430.563 245.341 431.124 245.228 431.736 245.228C432.829 245.228 433.69 245.478 434.314 245.977C434.938 246.477 435.253 247.163 435.253 248.036C435.253 248.459 435.123 248.859 434.865 249.233C434.607 249.609 434.229 249.914 433.735 250.148C434.257 250.337 434.666 250.624 434.962 251.009C435.26 251.395 435.407 251.87 435.407 252.438C435.407 253.316 435.069 254.018 434.395 254.543C433.721 255.069 432.834 255.333 431.736 255.333C431.093 255.333 430.497 255.21 429.946 254.964C429.395 254.718 428.979 254.38 428.695 253.945C428.411 253.512 428.27 253.018 428.27 252.464H430.556C430.556 252.767 430.677 253.027 430.921 253.247C431.164 253.467 431.462 253.578 431.819 253.578C432.219 253.578 432.538 253.467 432.777 253.245C433.016 253.022 433.134 252.738 433.134 252.391C433.134 251.896 433.011 251.544 432.763 251.338C432.514 251.132 432.174 251.028 431.736 251.028H430.63L430.625 249.332Z" fill="#E527BB"/>
<path d="M443.374 251.182C443.374 252.509 443.076 253.533 442.48 254.252C441.885 254.972 441.045 255.331 439.96 255.331C438.867 255.331 438.02 254.969 437.422 254.245C436.824 253.521 436.523 252.5 436.523 251.182V249.386C436.523 248.059 436.821 247.035 437.417 246.316C438.013 245.597 438.855 245.237 439.945 245.237C441.036 245.237 441.877 245.599 442.476 246.323C443.074 247.047 443.374 248.071 443.374 249.393V251.182ZM441.102 249.095C441.102 248.388 441.01 247.861 440.825 247.513C440.641 247.165 440.347 246.99 439.948 246.99C439.555 246.99 439.271 247.153 439.094 247.477C438.917 247.801 438.82 248.291 438.808 248.949V251.459C438.808 252.192 438.9 252.729 439.085 253.07C439.269 253.41 439.562 253.578 439.962 253.578C440.35 253.578 440.634 253.413 440.818 253.081C441.002 252.75 441.097 252.232 441.102 251.525V249.095Z" fill="#E527BB"/>
<path d="M420.852 282.997C420.363 283.437 419.814 283.659 419.206 283.659C418.315 283.659 417.61 283.359 417.087 282.756C416.565 282.152 416.305 281.348 416.305 280.34C416.305 279.711 416.451 279.124 416.742 278.585C417.035 278.046 417.445 277.618 417.974 277.303C418.502 276.988 419.086 276.83 419.724 276.83C420.372 276.83 420.959 276.993 421.481 277.32C422.004 277.646 422.413 278.107 422.706 278.703C423 279.3 423.149 279.988 423.158 280.766V281.637C423.158 282.72 422.945 283.662 422.52 284.459C422.094 285.256 421.488 285.866 420.701 286.295C419.913 286.723 418.996 286.936 417.948 286.936H417.806V285.114L418.239 285.107C419.807 285.027 420.677 284.324 420.852 282.997ZM419.819 282.018C420.313 282.018 420.668 281.805 420.885 281.377V280.433C420.885 279.803 420.779 279.337 420.569 279.035C420.358 278.734 420.072 278.583 419.712 278.583C419.393 278.583 419.126 278.753 418.908 279.096C418.693 279.439 418.584 279.853 418.584 280.338C418.584 280.851 418.696 281.261 418.915 281.563C419.135 281.866 419.438 282.018 419.819 282.018Z" fill="#E527BB"/>
<path d="M425.818 284.589C426.178 284.589 426.478 284.696 426.717 284.908C426.956 285.121 427.074 285.396 427.074 285.729C427.074 286.063 426.956 286.335 426.717 286.55C426.478 286.763 426.18 286.87 425.818 286.87C425.454 286.87 425.154 286.761 424.917 286.545C424.681 286.33 424.562 286.058 424.562 285.729C424.562 285.401 424.681 285.128 424.917 284.913C425.154 284.698 425.454 284.589 425.818 284.589Z" fill="#E527BB"/>
<path d="M434.557 282.957H435.555V284.712H434.557V286.798H432.284V284.712H428.486L428.352 283.321L432.287 276.991V276.972H434.559V282.957H434.557ZM430.515 282.957H432.284V279.933L432.142 280.163L430.515 282.957Z" fill="#E527BB"/>
<path d="M436.688 281.996L437.289 276.969H443.031V278.739H439.138L438.916 280.691C439.079 280.596 439.29 280.511 439.555 280.44C439.817 280.367 440.075 280.331 440.328 280.331C441.305 280.331 442.054 280.62 442.579 281.199C443.104 281.776 443.364 282.588 443.364 283.633C443.364 284.263 443.225 284.833 442.944 285.344C442.662 285.855 442.267 286.247 441.759 286.522C441.25 286.796 440.65 286.933 439.957 286.933C439.34 286.933 438.762 286.806 438.223 286.553C437.684 286.299 437.261 285.949 436.956 285.507C436.651 285.065 436.499 284.563 436.504 284.007H438.784C438.805 284.367 438.921 284.651 439.127 284.864C439.332 285.076 439.607 285.181 439.943 285.181C440.706 285.181 441.089 284.615 441.089 283.482C441.089 282.436 440.621 281.914 439.685 281.914C439.155 281.914 438.758 282.084 438.498 282.425L436.688 281.996Z" fill="#E527BB"/>
<path d="M489.972 324.779C489.972 324.779 490.722 329.022 491.089 333.226C491.233 334.868 489.965 336.294 488.319 336.363C482.724 336.595 470.76 337.049 466.466 336.857C465.82 336.829 465.399 336.167 465.638 335.568C465.839 335.064 466.224 334.657 466.716 334.433L486.482 325.346L489.972 324.779Z" fill="#A78BEF"/>
<path d="M490.586 322.285L489.983 327.362C489.983 327.362 486.521 328.973 484.156 327.159L485.589 321.5L490.586 322.285Z" fill="url(#paint12_linear_1267_11156)"/>
<path d="M488.901 231.76C489.162 233.085 490.299 297.929 483.368 326.986C483.254 327.461 483.495 327.949 483.947 328.133C485.009 328.568 487.092 329.195 489.59 329.28C490.363 329.306 491.056 328.803 491.273 328.062C493.255 321.32 502.745 287.541 503.982 255.274C505.366 219.218 503.982 254.047 503.982 254.047L503.171 231.76H488.901Z" fill="#231F20"/>
<path d="M512.005 326.993C512.005 326.993 513.197 329.136 514.353 334.83C514.561 335.859 513.842 336.843 512.799 336.945C510.953 337.127 508.11 337.361 505.83 337.345C504.78 337.338 503.96 336.422 504.087 335.379C504.34 333.3 505.125 329.891 507.554 327.232L512.005 326.993Z" fill="#A78BEF"/>
<path d="M513.757 320.464L512.35 328.143C512.35 328.143 510.96 329.179 508.207 328.426L508.879 320.166L513.757 320.464Z" fill="url(#paint13_linear_1267_11156)"/>
<path d="M516.326 233.75C521.992 267.961 515.096 318.304 512.771 328.159C512.629 328.762 512.142 329.224 511.53 329.325C510.492 329.498 508.782 329.638 507.098 329.148C506.516 328.98 506.109 328.455 506.086 327.852C505.774 319.884 506.334 270.98 501.056 251.653C500.789 250.673 500.19 249.819 499.363 249.23L489.113 241.942L488.328 230.161L516.326 233.75Z" fill="#231F20"/>
<path d="M481.448 163.995C498.43 163.713 517.169 168.456 517.169 168.456C522.232 198.003 523.147 271.607 523.147 271.607C510.001 275.056 486.52 268.815 486.52 268.815C485.539 263.268 488.294 245.256 486.52 227.211C484.345 205.09 477.695 182.868 477.695 182.868C469.396 181.839 462.562 179.442 456.934 176.277C461.228 171.297 463.253 164.962 464.13 161.218C470.134 163.084 476.21 164.08 481.448 163.995Z" fill="#A78BEF"/>
<path d="M431.285 138.971C432.952 136.956 435.064 137.909 435.064 137.909C437.564 148.469 450.668 157.03 464.131 161.218C463.251 164.962 461.227 171.297 456.934 176.277C434.591 163.709 431.285 138.971 431.285 138.971Z" fill="url(#paint14_linear_1267_11156)"/>
<path d="M431.69 139.485C431.515 140.041 433.537 140.885 434.726 138.614C434.769 137.526 435.429 132.863 434.778 131.979C431.316 127.257 424.605 121.34 424.605 121.34C423.47 122.459 424.406 123.559 424.406 123.559L427.662 126.952C426.981 128.182 426.151 129.223 425.761 130.711C425.465 131.839 425.648 133.043 426.215 134.07C426.787 135.099 427.565 136.438 428.303 137.486C429.701 139.468 431.69 139.485 431.69 139.485Z" fill="url(#paint15_linear_1267_11156)"/>
<path d="M429.086 129.152L432.053 131.669L432.985 134.174L430.339 137.11C430.339 137.11 429.45 132.139 428.788 131.063C428.128 129.987 428.471 129.466 429.086 129.152Z" fill="url(#paint16_linear_1267_11156)"/>
<path d="M510.656 184.904L517.169 168.456C517.169 168.456 533.033 179.239 535.641 192.907C532.645 193.127 527.189 193.908 521.852 196.605C520.679 190.149 510.656 184.904 510.656 184.904Z" fill="#A78BEF"/>
<path d="M496.791 200.383C496.791 200.383 514.601 210.451 520.61 201.854C521.859 200.068 522.157 198.294 521.849 196.602C527.187 193.906 532.643 193.125 535.639 192.905C536.426 197.026 536.01 201.409 533.589 205.838C523.063 225.099 494.434 204.773 494.434 204.773L496.791 200.383Z" fill="url(#paint17_linear_1267_11156)"/>
<path d="M498.934 213.119L489.214 179.163C489.103 178.778 488.775 178.496 488.377 178.451C486.616 178.245 481.514 177.668 475.621 177.171C468.524 176.571 460.283 176.086 455.357 176.497C454.657 176.556 454.234 177.297 454.546 177.926C457.346 183.594 468.867 206.649 474.635 214.203C474.827 214.454 475.122 214.6 475.437 214.595L497.988 214.385C498.646 214.38 499.116 213.751 498.934 213.119Z" fill="#E527BB"/>
<path d="M474.613 174.226L467.566 173.05C467.19 172.989 466.883 173.346 467.003 173.708L467.701 175.823C467.762 176.007 467.923 176.14 468.115 176.166L474.897 177.072C475.247 177.119 475.538 176.8 475.458 176.455L475.025 174.609C474.975 174.411 474.814 174.259 474.613 174.226Z" fill="#BDD0FB"/>
<path d="M479.888 180.195L479.306 177.169C479.247 176.866 478.996 176.637 478.691 176.606L464.457 175.161C463.977 175.111 463.594 175.551 463.708 176.019L464.613 179.788C464.687 180.091 464.949 180.308 465.257 180.322L479.167 181.023C479.621 181.049 479.973 180.639 479.888 180.195Z" fill="#BDD0FB"/>
<path d="M496.585 204.915C496.585 204.915 497.94 199.347 497.394 197.369C496.848 195.394 495.791 192.853 492.262 193.416C488.734 193.981 484.574 195.467 484.574 195.467C484.574 195.467 484.785 198.041 487.466 197.21L485.804 198.497C485.804 198.497 486.04 200.558 488.306 199.458L486.759 201.163C486.759 201.163 487.731 202.855 489.399 201.771C491.063 200.688 491.863 205.587 496.585 204.915Z" fill="url(#paint18_linear_1267_11156)"/>
<path d="M498.649 150.203L504.053 165.835C504.142 166.093 504.036 166.382 503.797 166.514C502.324 167.328 497.017 169.684 490.623 165.627C489.956 165.204 489.502 164.515 489.402 163.732L487.652 150.203H498.649Z" fill="url(#paint19_linear_1267_11156)"/>
<path d="M486.894 135.726C486.894 135.726 480.96 146.899 481.719 151.412C482.481 155.926 489.833 155.602 496.256 151.935L500.745 139.87L486.894 135.726Z" fill="url(#paint20_linear_1267_11156)"/>
<path d="M495.973 146.011C495.713 145.896 495.616 145.576 495.772 145.337C496.247 144.611 497.139 143.128 497.423 141.831C497.423 141.831 498.489 141.148 494.708 140.242C490.926 139.336 485.286 137.93 484.101 134.711C482.945 131.572 485.981 123.675 490.827 129.968C491.011 130.207 491.373 130.211 491.555 129.973C492.35 128.939 494.438 126.793 497.337 128.094C500.05 129.313 500.355 131.3 500.32 132.303C500.308 132.598 500.573 132.828 500.861 132.771C502.233 132.509 505.525 132.284 507.059 135.662C508.325 138.444 507.502 140.019 506.754 140.788C506.511 141.037 506.617 141.448 506.951 141.55C507.852 141.827 509.015 142.591 508.899 144.703C508.738 147.622 505.475 147.367 504.546 147.234C504.394 147.213 504.24 147.265 504.136 147.379C503.339 148.261 499.75 152.006 495.864 152.458C495.528 152.496 495.266 152.164 495.377 151.845L497.058 146.955C497.136 146.728 497.028 146.48 496.808 146.383L495.973 146.011Z" fill="#231F20"/>
<path d="M495.296 146.707C495.296 146.707 499.52 143.807 499.829 146.25C500.139 148.694 496.024 149.787 493.988 148.876L495.296 146.707Z" fill="url(#paint21_linear_1267_11156)"/>
<path d="M512.417 184.914H504.086V188.741H512.417V184.914Z" fill="#E527BB"/>
<path d="M510.162 182.662H506.336V190.996H510.162V182.662Z" fill="#E527BB"/>
<g clip-path="url(#clip1_1267_11156)">
<path d="M178.392 116.958C183.602 122.227 180.916 129.694 181.543 136.196C181.752 138.369 182.531 140.42 183.782 142.212C184.392 143.087 186.148 144.592 185.835 145.809C185.489 147.148 183.019 147.401 181.946 147.565C178.416 148.11 174.753 148.209 171.188 148.38C167.35 148.566 163.469 148.604 159.647 148.143C157.572 147.892 154.745 147.491 153.241 145.871C151.945 144.475 152.599 142.754 153.209 141.216C153.977 139.28 154.764 137.341 155.235 135.304C156.469 129.975 156.442 123.839 159.037 118.916C160.576 115.998 163.136 114.711 166.375 114.07C170.94 113.165 175.455 113.989 178.392 116.958Z" fill="#231F20"/>
<path d="M194.273 184.321C194.273 184.321 193.236 187.441 191.141 187.798C191.141 187.798 188.298 190.215 185.555 179.513L178.245 160.061C178.245 160.061 174.756 146.166 184.711 149.651C184.711 149.651 189.698 151.964 190.733 157.694C190.733 157.691 195.227 178.742 194.273 184.321Z" fill="#F6B5A0"/>
<path d="M180.233 147.475C180.233 147.475 187.818 148.416 189.986 154.895L194.714 172.42C194.714 172.42 184.228 180.312 180.521 175.842L177.166 157.898C177.166 157.901 175.72 149.662 180.233 147.475Z" fill="#A78BEF"/>
<path d="M165.496 320.945H162.148L160.277 326.511C160.277 326.511 160.294 328.516 164.485 328.516H168.048L165.496 320.945Z" fill="#F6B5A0"/>
<path d="M169.416 328.18L167.901 325.197L166.057 322.731L166.504 325.388C166.504 325.388 166.662 326.372 165.717 326.511H162.642C160.332 326.399 161.539 322.031 161.539 322.031L160.183 325.199L159.02 328.704V330.261H169.418V328.18H169.416Z" fill="#A78BEF"/>
<path d="M162.148 320.945L152.152 222.757H171.071L165.495 320.945H162.148Z" fill="#F6B5A0"/>
<path d="M178.577 146.196C178.577 146.196 184.038 147.178 185.947 154.786L189.85 170.345C186.604 172.701 183.281 175.038 179.462 175.548C177.322 171.073 175.284 165.831 174.091 160.298C174.091 160.301 170.785 150.186 178.577 146.196Z" fill="#A78BEF"/>
<path d="M175.735 182.278C182.89 164.98 179.826 146.638 179.826 146.638C174.624 144.857 172.355 143.935 172.355 143.935L164.182 143.875C164.182 143.875 155.36 146.351 149.207 149.272L157.691 182.148L175.735 182.278Z" fill="#F6B5A0"/>
<path d="M149.543 150.57L157.692 182.148L175.733 182.276C180.873 169.851 180.739 156.886 180.257 150.567H149.543V150.57Z" fill="#E527BB"/>
<path d="M164.215 222.757H183.071C183.071 222.757 187.295 251.891 176.09 323.923L171.751 324.114C171.754 324.114 169.648 253.069 164.215 222.757Z" fill="#F6B5A0"/>
<path d="M149.762 251.319C149.762 251.319 159.509 257.531 188.255 251.319C189.652 235.55 187.713 211.582 187.713 211.582C186.735 200.831 182.982 192.443 179.626 186.473C179.626 186.473 172.229 188.829 156.878 186.732C153.507 190.705 147.509 208.238 147.675 222.749C147.675 222.746 148.182 234.031 149.762 251.319Z" fill="#231F20"/>
<path d="M176.058 323.923L186.506 327.684C186.506 327.684 187.579 328.262 187.628 329.099L171.145 328.39L171.757 323.92H176.058V323.923Z" fill="#F6B5A0"/>
<path d="M181.538 330.04C179.604 329.994 177.556 329.162 175.619 329.189C175.126 329.197 174.63 329.263 174.14 329.263C174.14 329.263 170.875 329.315 171.062 328.39L171.648 324.427L179.947 327.264C182.425 327.932 183.463 326.552 183.463 326.552L187.622 328.095C187.622 328.095 188.567 328.625 188.733 329.478C188.736 329.478 187.249 330.765 181.538 330.04Z" fill="#A78BEF"/>
<path d="M157.551 123.28C157.153 126.462 158.06 129.844 159.463 132.74C160.07 133.992 161.805 136.024 162.592 137.172C163.083 137.886 164.006 138.666 164.763 139.097C166.043 139.831 167.451 137.491 168.737 137.205C170.426 136.831 172.635 136.948 173.806 135.721C177.406 131.949 179.806 128.27 179.898 122.069C179.964 117.706 177.924 115.237 174.538 114.332C171.292 113.465 167.236 114.343 163.867 114.815C160.405 115.306 157.946 120.119 157.551 123.28Z" fill="#231F20"/>
<path d="M172.749 131.742H163.543V145.405H172.749V131.742Z" fill="#F6B5A0"/>
<path d="M166.052 139.187C164.818 136.926 164.451 134.455 164.301 131.739L172.749 131.745L172.741 143.621C170.32 143.177 167.297 141.478 166.052 139.187Z" fill="#F1927C"/>
<path d="M159.461 128.546C159.442 130.24 160.387 132.157 161.912 132.855C163.98 133.804 164.767 131.903 164.761 130.051C164.756 128.554 164.094 125.982 162.4 125.456C160.801 124.96 159.478 127.158 159.461 128.546Z" fill="#F6B5A0"/>
<path d="M163.709 133.136C164.684 135.574 166.013 137.575 168.314 138.98C170.564 140.354 172.887 141.055 175.05 139.255C176.771 137.826 177.882 135.743 178.503 133.646C179.933 128.819 178.814 122.145 175.742 118.267C172.367 114.008 165.871 114.976 163.374 119.748C161.334 123.629 162.132 129.2 163.709 133.136Z" fill="#F6B5A0"/>
<path d="M161.952 131.385C162.091 131.385 162.216 131.292 162.257 131.153C162.774 129.282 162.366 127.515 161.284 126.948C161.129 126.866 160.939 126.926 160.857 127.081C160.775 127.237 160.835 127.428 160.99 127.51C161.783 127.924 162.072 129.451 161.647 130.984C161.6 131.153 161.698 131.328 161.867 131.374L161.952 131.385Z" fill="#F1927C"/>
<path d="M160.406 129.023L160.531 128.996C160.95 128.813 161.539 128.699 161.835 128.881C161.982 128.974 162.179 128.928 162.271 128.778C162.364 128.63 162.318 128.434 162.168 128.341C161.642 128.017 160.849 128.164 160.28 128.412C160.12 128.48 160.046 128.669 160.117 128.83L160.406 129.023Z" fill="#F1927C"/>
<path d="M175.292 127.417C175.325 127.954 175.608 128.371 175.932 128.352C176.251 128.333 176.488 127.883 176.455 127.346C176.422 126.809 176.136 126.389 175.815 126.41C175.494 126.43 175.259 126.88 175.292 127.417Z" fill="#F6B5A0"/>
<path d="M168.327 127.417C168.36 127.954 168.646 128.371 168.967 128.352C169.289 128.333 169.523 127.88 169.49 127.346C169.46 126.809 169.172 126.389 168.85 126.41C168.529 126.43 168.295 126.88 168.327 127.417Z" fill="#F6B5A0"/>
<path d="M167.337 129.727C167.358 130.109 168.077 130.376 168.938 130.324C169.799 130.272 170.48 129.92 170.455 129.539C170.433 129.157 169.714 128.89 168.854 128.944C167.993 128.996 167.312 129.348 167.337 129.727Z" fill="#F6B5A0"/>
<path d="M175.028 129.727C175.05 130.108 175.769 130.376 176.629 130.324C177.49 130.272 178.171 129.92 178.149 129.538C178.127 129.157 177.408 128.892 176.548 128.944C175.684 128.993 175.003 129.348 175.028 129.727Z" fill="#F6B5A0"/>
<path d="M167.388 125.958L167.639 125.835C168.029 125.325 169.309 125.156 169.99 125.672C170.128 125.778 170.327 125.748 170.431 125.609C170.537 125.47 170.507 125.273 170.368 125.167C169.458 124.477 167.764 124.627 167.135 125.451C167.029 125.59 167.056 125.786 167.195 125.893L167.388 125.958Z" fill="#F6B5A0"/>
<path d="M174.478 125.958L174.729 125.835C175.116 125.325 176.398 125.156 177.079 125.672C177.218 125.778 177.417 125.748 177.521 125.609C177.627 125.47 177.597 125.273 177.458 125.167C176.548 124.477 174.854 124.627 174.225 125.451C174.119 125.59 174.146 125.786 174.285 125.893L174.478 125.958Z" fill="#F6B5A0"/>
<path d="M164.646 128.884C163.72 128.707 163.493 128.712 163.267 128.148L163.011 127.229C162.592 126.173 162.224 125.947 161.2 125.911C160.467 125.887 159.762 127 159.552 127.741C159.503 126.961 159.52 125.841 159.509 125.009C159.501 124.218 159.544 123.37 159.642 122.56C159.866 120.67 160.015 119.634 160.911 117.864C161.876 115.957 163.387 114.479 165.528 113.937C168.113 113.285 172.337 112.75 174.535 114.34C175.66 115.156 174.726 115.363 174.562 118.916C174.56 118.911 164.422 116.473 164.646 128.884Z" fill="#231F20"/>
<path d="M178.76 125.342C180.212 122.192 180.601 116.446 174.776 114.158C173.346 113.596 169.827 113.165 168.623 114.419C165.954 117.201 171.744 118.494 173.299 118.693C175.775 119.015 177.268 120.738 178.76 125.342Z" fill="#231F20"/>
<path d="M162.257 144.445L152.759 147.183C156.975 151.405 156.412 156.627 155.502 159.804C154.015 164.989 150.038 165.139 150.768 167.814C151.111 169.074 154.892 185.649 156.03 186.566C159.405 189.287 179.505 191.084 180.529 185.851C181.341 181.709 181.698 177.217 182.853 172.709C184.694 165.52 185.982 164.65 185.315 161.446C182.804 152.665 179.824 146.632 179.824 146.632L175.393 145.075C175.393 145.075 175.322 148.549 170.757 151.391C170.757 151.394 163.992 150.011 162.257 144.445Z" fill="#A78BEF"/>
<path d="M144.867 156.624L142.064 183.198C142.064 183.198 141.514 186.287 143.633 186.467C143.633 186.467 148.568 189.773 150.409 178.881L156.075 158.885C156.075 158.885 158.395 144.748 148.767 149.051C148.764 149.051 145.423 150.829 144.867 156.624Z" fill="#F6B5A0"/>
<path d="M142 168.997C143.073 161.353 144.419 154.833 144.419 154.833C145.737 148.127 152.761 147.183 152.761 147.183C157.517 148.773 157.517 156.164 157.517 156.164C157.517 156.164 156.743 164.029 154.703 173.08C150.307 172.723 145.772 171.378 142 168.997Z" fill="#A78BEF"/>
<path d="M155.13 172.529C155.28 172.529 155.413 172.423 155.44 172.27C158.777 153.889 158.777 153.889 155.895 149.321C155.802 149.174 155.606 149.13 155.459 149.223C155.312 149.316 155.269 149.512 155.361 149.659C158.112 154.02 158.112 154.02 154.822 172.158C154.789 172.33 154.904 172.494 155.075 172.524L155.13 172.529Z" fill="#21263D"/>
<path d="M167.927 161.449H158.574V163.475H167.927V161.449Z" fill="#E527BB"/>
<path d="M170.493 189.268C170.667 189.268 170.809 189.126 170.809 188.952C170.809 188.777 170.667 188.635 170.493 188.635C166.495 188.635 162.36 188.635 158.405 187.389C158.239 187.337 158.062 187.43 158.01 187.596C157.959 187.763 158.051 187.94 158.217 187.992C162.262 189.268 166.448 189.268 170.493 189.268Z" fill="#21263D"/>
<path d="M182.454 174.735C182.614 174.735 182.753 174.613 182.767 174.449C183.023 171.648 183.271 170.385 184.314 167.942C186.561 162.69 185.755 160.647 184.42 157.268C183.775 155.634 182.971 153.603 182.312 150.687C182.274 150.518 182.105 150.412 181.936 150.45C181.767 150.488 181.661 150.657 181.699 150.826C182.369 153.788 183.184 155.847 183.837 157.5C185.158 160.838 185.885 162.679 183.739 167.694C182.661 170.216 182.405 171.517 182.143 174.392C182.127 174.566 182.255 174.719 182.429 174.735H182.454Z" fill="#21263D"/>
<path d="M172.711 131.412C173.781 131.401 174.323 131.235 174.533 130.856C174.775 130.411 174.467 129.918 174.108 129.342C173.83 128.898 173.517 128.396 173.443 127.894C173.419 127.722 173.258 127.602 173.084 127.627C172.912 127.652 172.792 127.812 172.817 127.987C172.909 128.62 173.261 129.181 173.571 129.678C173.759 129.978 174.042 130.433 173.977 130.55C173.966 130.572 173.824 130.769 172.708 130.78C172.533 130.78 172.392 130.924 172.395 131.099C172.395 131.273 172.536 131.412 172.711 131.412Z" fill="#F6B5A0"/>
<path d="M173.357 134.218C173.858 134.218 174.337 134.025 174.719 133.632C174.841 133.507 174.838 133.308 174.713 133.185C174.588 133.062 174.389 133.065 174.266 133.19C173.629 133.842 172.763 133.602 172.186 133.073C172.058 132.956 171.859 132.964 171.739 133.092C171.622 133.22 171.63 133.422 171.758 133.539C172.251 133.989 172.817 134.218 173.357 134.218Z" fill="#F6B5A0"/>
<path d="M178.152 118.385C178.152 118.385 169.911 120.395 163.537 118.385L162.625 111.561C162.625 111.561 168.323 107.776 178.882 111.008C178.885 111.01 179.04 115.068 178.152 118.385Z" fill="#E527BB"/>
<path d="M171.531 112.148H169.984V116.833H171.531V112.148Z" fill="#A78BEF"/>
<path d="M173.1 113.716H168.418V115.265H173.1V113.716Z" fill="#A78BEF"/>
<path d="M194.272 184.321C187.988 177.773 186.027 180.787 186.027 180.787C186.027 180.787 180.602 197.88 172.578 204.619L174.166 206.714C174.169 206.714 192.692 193.089 194.272 184.321Z" fill="#F6B5A0"/>
<path d="M142.067 183.198C147.563 178.431 149.546 179.961 149.546 179.961C149.546 179.961 153.95 196.55 161.47 203.845L160.331 206.095C160.334 206.097 142.001 193.643 142.067 183.198Z" fill="#F6B5A0"/>
<path d="M174.401 203.853C174.867 203.989 175.336 204.322 175.472 204.805C175.782 205.89 175.047 207.24 174.557 208.154C173.933 209.318 173.298 211.023 171.814 211.282C171.588 211.323 171.321 211.235 171.087 211.233C170.597 211.224 170.452 211.56 170.052 211.23C169.826 211.039 169.082 210.927 168.941 210.698C168.802 210.474 167.968 210.305 167.821 210.112C166.925 208.917 166.448 208.113 166.808 207.491C167.029 207.12 168.162 205.683 168.08 204.867C168.08 204.867 168.156 204.049 170.095 203.809L174.401 203.853Z" fill="#F6B5A0"/>
<path d="M166.277 210.914L164.597 210.008C164.597 210.008 167.301 212.375 168.813 211.871C168.813 211.871 169.151 211.841 168.933 211.279C168.933 211.279 166.234 209.798 165.199 208.841C165.199 208.841 167.587 210.87 169.622 211.653C169.622 211.653 170.63 211.538 170.041 210.671C170.78 210.744 170.458 210.071 170.458 210.071C170.458 210.071 170.06 209.479 168.968 208.421C168.968 208.421 167.296 206.779 165.558 204.625C165.558 204.625 167.944 204.355 167.748 203.07L164.248 203.133L160.934 203.482L159.746 205.009L161.44 208.135C161.44 208.135 163.458 210.431 164.867 211.2C164.864 211.2 169.047 213.128 166.277 210.914Z" fill="#F6B5A0"/>
<path d="M256.969 161.171C256.969 161.171 260.823 176.808 264.987 183.991C264.987 183.991 271.077 188.584 276.001 185.655C276.001 185.655 274.898 169.966 268.947 158.583C268.947 158.58 261.408 152.539 256.969 161.171Z" fill="#F6B5A0"/>
<path d="M203.062 180.244C203.643 176.756 205.819 171.861 206.72 169.974C213.862 155.045 218.587 146.076 222.101 143.905C222.624 143.215 234.594 139.272 232.118 150C231.467 153.666 217.615 177.607 211.928 181.649C211.925 181.651 207.668 183.233 203.062 180.244Z" fill="#F6B5A0"/>
<path d="M235.266 149.272L224.745 176.756C218.186 176.756 209.634 170.62 206.246 167.154C212.979 154.074 219.05 145.811 219.05 145.811C219.05 145.811 222.61 139.484 230.102 142.091C230.102 142.091 236.149 143.654 235.266 149.272Z" fill="#E527BB"/>
<path d="M255.003 320.173L256.258 323.637L262.574 328.761C262.574 328.761 263.375 329.906 263.119 331H252.462L247.164 328.267L248.834 320.173H255.003Z" fill="#A78BEF"/>
<path d="M254.659 225.073C248.089 225.073 242.312 220.731 240.504 214.361C240.458 214.197 240.553 214.025 240.714 213.979C240.88 213.932 241.049 214.028 241.095 214.191C242.873 220.456 248.645 224.672 255.154 224.448C255.318 224.432 255.468 224.574 255.473 224.745C255.481 224.915 255.348 225.056 255.176 225.065C255.002 225.067 254.83 225.073 254.659 225.073Z" fill="#21263D"/>
<path d="M260.066 224.099C260.91 220.807 260.161 212.13 259.984 211.241L258.252 196.672H221.72C221.72 196.672 219.296 211.47 218.789 224.096H260.066V224.099Z" fill="#C2DBEC"/>
<path d="M215.715 256.83C215.715 256.83 215.511 269.953 233.182 257.029C233.182 257.029 239.018 230.59 245.487 211.857L220.991 209.885L220.999 209.304C220.999 209.304 217.755 235.149 215.715 256.83Z" fill="#231F20"/>
<path d="M219.323 314.093L218.699 328.053L224.821 328.327L225.445 314.367L219.323 314.093Z" fill="#F6B5A0"/>
<path d="M226.475 329.863L225.042 323.579C223.771 324.138 221.066 323.568 221.066 323.568C221.502 322.519 221.071 322.595 221.071 322.595L218.933 321.561L213.263 324.937L206.985 326.83C206.985 326.83 205.007 327.389 204.719 329.931L226.475 329.863Z" fill="#A78BEF"/>
<path d="M258.521 259.814C241.727 271.881 242.514 264.054 242.514 264.054C238.908 239.712 238.074 210.384 238.074 210.384C238.074 210.384 257.921 205.606 260.345 222.256C260.343 222.258 258.521 239.821 258.521 259.814Z" fill="#231F20"/>
<path d="M246.728 322.707C243.958 298.269 241.436 254.299 241.436 254.299C241.436 254.299 240.804 244.847 248.011 246.538C248.011 246.538 258.001 244.19 258.459 256.47C258.459 256.47 259.341 290.524 256.321 323.285C256.323 323.285 252.069 325.898 246.728 322.707Z" fill="#231F20"/>
<path d="M215.715 256.83L216.017 321.853L226.476 325.273L233.184 257.027C233.182 257.027 221.671 244.834 215.715 256.83Z" fill="#231F20"/>
<path d="M244.235 297.56C244.066 297.56 243.93 297.426 243.927 297.26C243.867 294.656 243.753 293.458 243.606 291.942L243.527 291.116C242.388 278.825 240.825 261.995 240.25 248.046C240.038 242.875 239.725 239.248 239.327 234.661C239.221 233.423 239.109 232.117 238.989 230.696C238.837 228.891 238.714 227.08 238.592 225.272C238.475 223.584 238.36 221.896 238.224 220.216C238.161 219.455 238.115 218.503 238.063 217.497C237.922 214.721 237.747 211.265 237.181 210.046C237.11 209.894 237.175 209.711 237.331 209.637C237.486 209.566 237.668 209.632 237.742 209.787C238.36 211.115 238.532 214.491 238.682 217.467C238.731 218.47 238.782 219.417 238.842 220.167C238.978 221.849 239.093 223.537 239.21 225.231C239.333 227.036 239.458 228.847 239.608 230.647C239.725 232.065 239.839 233.371 239.945 234.61C240.34 239.207 240.656 242.837 240.869 248.022C241.446 261.952 243.004 278.775 244.142 291.058L244.221 291.882C244.366 293.412 244.483 294.62 244.543 297.244C244.548 297.415 244.412 297.554 244.243 297.56H244.235Z" fill="#172B47"/>
<path d="M250.449 121.802C250.594 121.371 250.719 120.992 250.825 120.711C252.552 115.99 253.088 108.602 247.549 106.849C240.906 104.749 241.644 115.461 241.42 118.456C241.159 121.916 240.696 123.258 242.265 126.421C242.853 127.613 243.496 128.69 244.904 128.502C246.456 128.292 249.749 123.861 250.449 121.802Z" fill="#231F20"/>
<path d="M246.981 125.314L235.599 124.818L234.98 138.991L246.365 139.49L246.981 125.314Z" fill="#F6B5A0"/>
<path d="M243.165 133.01C244.413 130.659 245.2 128.265 245.143 125.235L235.602 124.818L235.062 137.139C238.078 136.806 241.836 135.511 243.165 133.01Z" fill="#F1927C"/>
<path d="M252.905 140.619L246.455 137.398H235.338L230.364 140.783C230.364 140.783 229.558 147.824 236.555 149.984C236.555 149.984 251.535 152.575 252.905 140.619Z" fill="#F6B5A0"/>
<path d="M219.618 176.707L219.594 150.898C219.719 144.737 224.567 141.936 224.567 141.936L233.977 138.497L238.504 146.283L248.491 138.497L260.282 143.357C260.282 143.357 264.585 146.281 263.545 151.173L260.108 175.704C261.407 181.63 260.873 188.576 261.232 194.619C261.502 199.19 261.774 203.758 262.044 208.328C262.137 209.88 263.469 219.109 263.708 220.641C227.585 228.04 215.977 216.998 215.977 216.998C216.584 206.005 217.662 198.941 217.908 195.042C218.333 188.423 219.201 183.326 219.618 176.707Z" fill="#E527BB"/>
<path d="M236.142 108.632C238.55 108.049 237.779 109.971 237.087 112.265L233.726 113.754C230.891 114.981 232.476 116.729 232.106 119.181C231.953 120.19 231.569 121.172 231.365 122.151C230.725 121.12 229.674 116.208 229.644 115.033C229.644 115.033 228.805 109.941 232.277 108.889C232.28 108.892 234.655 108.433 236.142 108.632Z" fill="#231F20"/>
<path d="M246.982 125.314C246.214 127.853 244.278 130.82 242.091 132.437C239.947 134.019 237.673 134.927 235.339 133.31C233.484 132.023 232.179 130.024 231.37 127.97C229.505 123.242 230.044 116.429 232.795 112.257C235.815 107.672 242.434 108.076 245.367 112.652C247.756 116.38 248.222 121.218 246.982 125.314Z" fill="#F6B5A0"/>
<path d="M242.262 123.072C242.27 123.46 241.573 123.79 240.702 123.814C239.83 123.839 239.114 123.544 239.106 123.16C239.095 122.772 239.795 122.442 240.666 122.418C241.535 122.393 242.251 122.685 242.262 123.072Z" fill="#F6B5A0"/>
<path d="M234.519 123.072C234.529 123.46 233.832 123.79 232.961 123.814C232.089 123.836 231.375 123.544 231.367 123.16C231.356 122.772 232.054 122.44 232.925 122.418C233.794 122.393 234.508 122.685 234.519 123.072Z" fill="#F6B5A0"/>
<path d="M236.36 125.082C235.801 125.082 235.229 124.949 234.949 124.608C234.813 124.444 234.63 124.09 234.938 123.577C236.934 120.258 236.286 119.762 235.812 119.399L235.507 119.135C235.393 119.006 235.404 118.813 235.532 118.698C235.66 118.584 235.856 118.597 235.967 118.723L236.185 118.908C237.008 119.538 237.572 120.392 235.466 123.896C235.338 124.112 235.395 124.182 235.423 124.212C235.649 124.485 236.588 124.553 237.158 124.341C237.318 124.281 237.495 124.362 237.555 124.523C237.615 124.684 237.533 124.861 237.376 124.921C237.103 125.02 236.735 125.082 236.36 125.082Z" fill="#F6B5A0"/>
<path d="M232.17 119.053C232.044 119.053 231.919 118.993 231.84 118.881C231.715 118.698 231.761 118.45 231.941 118.325C232.652 117.831 234.003 117.518 235.471 118.251C235.67 118.349 235.751 118.589 235.65 118.788C235.552 118.987 235.313 119.069 235.114 118.971C233.591 118.213 232.513 118.906 232.396 118.985L232.17 119.053Z" fill="#F6B5A0"/>
<path d="M241.844 119.053L241.597 118.968C240.938 118.45 239.682 118.327 238.985 118.941C238.819 119.088 238.565 119.069 238.421 118.905C238.274 118.739 238.29 118.485 238.456 118.338C239.483 117.433 241.169 117.605 242.095 118.338C242.269 118.475 242.299 118.725 242.16 118.9L241.844 119.053Z" fill="#F6B5A0"/>
<path d="M250.254 109.661C250.05 110.953 249.287 111.169 248.816 112.281C248.255 113.609 249.227 116.11 249.421 117.662C249.505 118.33 249.418 119.276 249.652 119.909C249.38 119.175 248.279 117.899 247.22 119.023C246.779 119.492 246.615 121.663 246.422 122.252C246.166 123.037 245.599 122.808 245.289 122.813C245.044 120.569 245.191 114.136 242.789 114.098C242.121 114.087 241.225 114.539 240.572 114.684C238.954 115.041 237.268 115.535 235.631 115.257C229.554 114.228 228.623 111.968 228.402 109.502C228.402 109.502 228.724 109.86 229.554 109.707C229.554 109.707 227.672 107.01 230.336 104.157C230.336 104.157 231.845 106.162 233.73 106.162C233.73 106.162 232.444 104.697 234.108 102C234.108 102 234.893 103.849 239.103 104.621C239.103 104.621 247.182 104.853 247.71 107.626C247.713 107.626 249.249 108.068 250.254 109.661Z" fill="#231F20"/>
<path d="M233.475 119.675C233.161 119.694 232.935 120.089 232.968 120.558C233.001 121.027 233.287 121.395 233.6 121.376C233.916 121.36 234.142 120.962 234.106 120.493C234.071 120.024 233.788 119.658 233.475 119.675Z" fill="#F6B5A0"/>
<path d="M240.913 120.493C240.88 120.021 240.597 119.655 240.281 119.675C239.965 119.691 239.742 120.089 239.777 120.558C239.81 121.027 240.093 121.395 240.409 121.376C240.722 121.36 240.946 120.962 240.913 120.493Z" fill="#F6B5A0"/>
<path d="M237.035 127.946L236.937 127.943C236.457 127.927 235.877 127.752 235.662 127.409C235.569 127.264 235.613 127.073 235.757 126.983C235.902 126.89 236.092 126.934 236.185 127.079C236.234 127.158 236.544 127.31 236.964 127.327C237.337 127.343 237.639 127.242 237.778 127.06C237.879 126.92 238.075 126.893 238.211 126.997C238.347 127.1 238.375 127.294 238.274 127.428C238.023 127.76 237.574 127.946 237.035 127.946Z" fill="#F6B5A0"/>
<path d="M246.73 124.076C246.466 123.792 246.251 122.824 246.049 122.494C245.305 121.278 245.077 123.686 244.842 124.322C244.497 125.262 243.75 126.397 242.721 126.689C241.174 127.125 240.392 126.154 239.006 125.775C238.257 125.571 237.527 125.821 236.77 125.745C235.716 125.639 234.847 125.407 233.85 125.947C233.501 126.135 232.957 126.443 232.477 126.449C231.576 126.552 230.884 124.736 230.355 123.443C230.494 125.05 230.827 126.596 231.366 127.968C232.175 130.021 233.477 132.02 235.334 133.307C237.668 134.925 239.943 134.014 242.086 132.435C244.273 130.818 246.21 127.85 246.978 125.312C247.079 124.979 247.163 124.638 247.242 124.297C247.068 124.305 246.893 124.248 246.73 124.076ZM237.265 128.521C236.949 128.579 235.296 128.521 235.179 127.488C235.127 127.027 235.236 126.724 235.59 126.457C235.972 126.168 236.446 126.28 236.876 126.359C237.382 126.451 238.436 126.192 238.733 126.757C239.235 127.703 238.161 128.36 237.265 128.521Z" fill="#231F20"/>
<path d="M260.112 176.012L259.837 175.84C258.284 172.701 257.271 170.015 256.454 167.855C256.037 166.748 255.675 165.79 255.323 164.994C253.436 160.704 251.775 154.233 253.311 150.115C253.371 149.954 253.548 149.875 253.706 149.935C253.864 149.992 253.945 150.172 253.885 150.33C252.417 154.276 254.043 160.562 255.885 164.746C256.241 165.559 256.606 166.521 257.026 167.637C257.837 169.783 258.848 172.455 260.384 175.567C260.46 175.72 260.398 175.905 260.245 175.982L260.112 176.012Z" fill="#21263D"/>
<path d="M245.835 217.112C242.428 217.112 238.991 216.777 235.998 216.267C235.829 216.239 235.717 216.079 235.747 215.912C235.774 215.746 235.935 215.634 236.101 215.659C242.856 216.807 252.743 217.101 258.38 214.148C258.533 214.069 258.718 214.126 258.797 214.279C258.876 214.431 258.816 214.617 258.666 214.696C255.305 216.455 250.599 217.112 245.835 217.112Z" fill="#21263D"/>
<path d="M248.054 199.628L247.787 199.476C246.978 198.088 246.15 196.596 245.273 195.017C244.271 193.212 243.236 191.343 242.201 189.595C241.86 189.02 241.468 188.374 241.043 187.675C238.445 183.391 234.885 177.525 234.509 173.767C234.493 173.598 234.618 173.448 234.787 173.429C234.956 173.418 235.108 173.535 235.125 173.704C235.487 177.326 239.148 183.361 241.572 187.354C241.997 188.055 242.391 188.704 242.732 189.279C243.772 191.035 244.81 192.906 245.815 194.714C246.689 196.29 247.515 197.777 248.324 199.159C248.408 199.307 248.359 199.495 248.212 199.582L248.054 199.628Z" fill="#21263D"/>
<path d="M242.514 200.861L242.231 200.679C241.977 200.109 241.435 199.258 240.863 198.361C239.433 196.108 238.84 195.066 239.172 194.534C239.262 194.39 239.453 194.346 239.597 194.436C239.738 194.523 239.782 194.709 239.7 194.853C239.605 195.23 240.719 196.981 241.386 198.031C241.969 198.95 242.522 199.817 242.794 200.43C242.862 200.586 242.792 200.769 242.639 200.837L242.514 200.861Z" fill="#21263D"/>
<path d="M250.441 120.711C250.618 122.159 249.988 123.885 248.752 124.627C247.077 125.633 246.222 124.084 246.053 122.497C245.914 121.218 246.241 118.955 247.635 118.346C248.956 117.771 250.296 119.522 250.441 120.711Z" fill="#F6B5A0"/>
<path d="M247.975 123.754C247.849 123.754 247.73 123.678 247.686 123.553C247.002 121.72 247.258 119.912 248.291 119.249C248.435 119.156 248.626 119.2 248.718 119.342C248.811 119.486 248.77 119.677 248.623 119.77C247.86 120.261 247.702 121.826 248.263 123.334C248.323 123.495 248.242 123.673 248.084 123.733L247.975 123.754Z" fill="#F1927C"/>
<path d="M247.712 121.292L247.464 121.166C247.363 121.03 247.388 120.836 247.527 120.733C248.019 120.362 248.828 120.441 249.422 120.637C249.583 120.692 249.673 120.866 249.618 121.027C249.564 121.191 249.389 121.275 249.226 121.224C248.785 121.076 248.18 121.014 247.897 121.226L247.712 121.292Z" fill="#F1927C"/>
<path d="M225.877 167.953C225.847 168.212 225.561 168.785 225.3 168.755L223.87 168.193C223.608 168.163 223.42 167.928 223.453 167.669C223.483 167.41 223.723 167.225 223.984 167.255L225.493 167.151C225.754 167.184 225.91 167.697 225.877 167.953Z" fill="#21263D"/>
<path d="M227.785 168.177C227.755 168.436 227.894 169.06 228.158 169.09L229.684 168.872C229.945 168.902 230.185 168.719 230.215 168.458C230.245 168.201 230.057 167.967 229.795 167.937L228.349 167.487C228.088 167.457 227.815 167.918 227.785 168.177Z" fill="#21263D"/>
<path d="M230.186 168.651L229.887 168.632L229.925 168.327C231.826 168.55 232.559 166.289 232.567 166.265C233.79 161.334 230.173 153.074 230.137 152.992C229.688 151.964 228.914 152.048 228.879 152.054L228.841 152.059L228.803 152.046C228.775 152.035 228.037 151.776 227.356 152.67C227.299 152.741 221.83 159.949 221.852 165.032C221.857 165.119 222.04 167.41 223.933 167.631L223.9 167.937C221.748 167.686 221.547 165.068 221.547 165.04C221.525 159.842 226.885 152.776 227.111 152.479C227.855 151.5 228.688 151.683 228.876 151.74C229.075 151.727 229.925 151.743 230.415 152.866C230.568 153.207 234.108 161.307 232.861 166.347C232.853 166.382 232.117 168.651 230.186 168.651Z" fill="#21263D"/>
<path d="M228.496 152.002H228.491L228.344 151.841C228.401 150.72 229.074 140.804 234.902 137.51L235.112 137.57L235.052 137.78C229.365 140.993 228.706 150.756 228.649 151.857L228.496 152.002Z" fill="#21263D"/>
<path d="M246.449 156.483L246.397 156.474L246.305 156.275C248.132 151.301 249.094 147.715 249.38 146.016C249.815 143.452 250.009 138.939 246.403 137.54L246.316 137.341L246.514 137.254C250.325 138.732 250.134 143.409 249.682 146.068C249.393 147.78 248.429 151.388 246.593 156.382L246.449 156.483Z" fill="#21263D"/>
<path d="M243.963 158.752C242.849 158.201 242.394 156.851 242.944 155.735C243.495 154.623 244.843 154.165 245.957 154.716L246.992 155.225L244.998 159.262L243.963 158.752Z" fill="#92B1C3"/>
<path d="M247.927 158.198C247.377 159.313 246.028 159.772 244.915 159.218C243.801 158.667 243.343 157.317 243.893 156.202C244.443 155.089 245.792 154.631 246.905 155.182C248.019 155.735 248.477 157.085 247.927 158.198Z" fill="#A6CADE"/>
<path d="M246.92 157.702C246.648 158.258 245.972 158.487 245.417 158.212C244.858 157.936 244.629 157.263 244.907 156.706C245.182 156.147 245.858 155.921 246.413 156.194C246.966 156.469 247.195 157.143 246.92 157.702Z" fill="#6E9EB6"/>
<path d="M246.06 159.603H246.041C244.644 159.436 244.007 158.828 243.721 158.343C243.361 157.74 243.32 156.949 243.606 156.229C243.821 155.692 244.312 155.245 244.949 154.999C245.641 154.735 246.379 154.751 246.975 155.046L247.046 155.25L246.839 155.321C246.327 155.067 245.663 155.056 245.058 155.285C244.5 155.498 244.075 155.883 243.892 156.344C243.639 156.974 243.674 157.664 243.985 158.184C244.344 158.793 245.069 159.177 246.077 159.294L246.213 159.466L246.06 159.603Z" fill="#21263D"/>
<path d="M244.797 159.253L244.751 159.248C243.664 158.918 242.986 158.381 242.73 157.652C242.414 156.772 242.678 155.7 243.378 154.988C244.13 154.219 245.031 154.178 246.39 154.849L246.461 155.056L246.257 155.124C245.02 154.514 244.252 154.538 243.596 155.201C242.978 155.831 242.746 156.774 243.021 157.546C243.103 157.781 243.353 158.495 244.841 158.951L244.944 159.144L244.797 159.253Z" fill="#21263D"/>
<path d="M247.628 158.501L247.508 158.441L247.532 158.225C247.797 158.015 247.965 157.514 247.96 156.976C247.952 156.485 247.799 156.082 247.549 155.896L247.516 155.681L247.731 155.648C248.061 155.894 248.257 156.376 248.265 156.971C248.276 157.609 248.063 158.195 247.723 158.465L247.628 158.501Z" fill="#21263D"/>
<path d="M203.062 180.244C204.923 191.371 211.133 197.466 220.524 206.746L223.057 203.635C219.941 199.798 213.802 182.36 214.477 178.106C214.475 178.103 206.29 172.562 203.062 180.244Z" fill="#F6B5A0"/>
<path d="M276.001 185.652C271.493 194.9 266.65 199.318 254.598 206.905L252.953 204.096C255.173 201.941 264.771 191.521 265.13 182.273C265.13 182.273 274.568 176.222 276.001 185.652Z" fill="#F6B5A0"/>
<path d="M248.149 213.207L250.102 212.026C250.102 212.026 247.011 215.012 245.178 214.497C245.178 214.497 244.775 214.481 245.001 213.796C245.001 213.796 248.138 211.871 249.318 210.665C249.318 210.665 246.583 213.232 244.203 214.284C244.203 214.284 242.991 214.205 243.644 213.136C242.77 213.267 243.113 212.443 243.113 212.443C243.113 212.443 243.552 211.713 244.796 210.384C244.796 210.384 246.698 208.328 248.642 205.647C248.642 205.647 245.777 205.467 245.935 203.921L250.118 203.79L254.098 204.011L255.604 205.767L253.765 209.602C253.765 209.602 251.494 212.46 249.857 213.466C249.857 213.466 244.973 216.019 248.149 213.207Z" fill="#F6B5A0"/>
<path d="M260.115 175.703C265.361 175.199 271.102 172.556 275.397 169.09C271.47 157.647 268.332 144.748 259.701 143.117C259.701 143.117 250.451 147.737 254.733 160.175C254.733 160.172 257.718 167.937 260.115 175.703Z" fill="#E527BB"/>
<path d="M253.934 210.518C253.994 212.285 254.492 214.003 254.345 215.8C251.682 216.111 249.701 216.799 246.986 216.447C244.518 216.125 242.484 216.016 240.25 215.184C238.259 214.442 239.986 206.408 241.713 205.582C244.094 204.445 245.183 207.136 246.735 208.377C248.805 210.03 251.3 210.75 253.934 210.518Z" fill="#E527BB"/>
<path d="M227.404 213.046L225.448 211.863C225.448 211.863 228.54 214.849 230.373 214.336C230.373 214.336 230.778 214.32 230.552 213.635C230.552 213.635 227.412 211.707 226.235 210.502C226.235 210.502 228.97 213.065 231.35 214.121C231.35 214.121 232.56 214.042 231.909 212.973C232.786 213.103 232.443 212.283 232.443 212.283C232.443 212.283 232.001 211.554 230.759 210.224C230.759 210.224 228.858 208.165 226.911 205.487C226.911 205.487 229.776 205.307 229.618 203.76L225.435 203.629L221.455 203.85L219.949 205.607L221.788 209.441C221.788 209.441 224.062 212.302 225.699 213.305C225.699 213.305 230.58 215.858 227.404 213.046Z" fill="#F6B5A0"/>
<path d="M218.626 210.357C218.566 212.124 218.067 213.842 218.215 215.64C220.878 215.948 222.858 216.641 225.574 216.289C228.041 215.967 230.073 215.858 232.309 215.026C234.3 214.284 232.574 206.25 230.847 205.427C228.466 204.289 227.377 206.978 225.824 208.219C223.754 209.869 221.26 210.592 218.626 210.357Z" fill="#E527BB"/>
<path d="M252.839 210.941C249.388 210.941 246.362 208.424 245.025 207.115L245.02 206.678L245.455 206.673C247.081 208.263 251.317 211.737 255.574 209.697C255.729 209.624 255.911 209.689 255.985 209.842C256.056 209.994 255.993 210.18 255.841 210.254C254.822 210.739 253.817 210.941 252.839 210.941Z" fill="#21263D"/>
<path d="M220.017 210.693C219.709 210.693 219.41 210.665 219.129 210.611C218.96 210.578 218.854 210.417 218.884 210.251C218.917 210.084 219.077 209.975 219.243 210.005C221.845 210.51 226.123 208.23 227.428 205.65C227.504 205.497 227.692 205.437 227.842 205.514C227.994 205.59 228.054 205.776 227.975 205.928C226.69 208.484 222.86 210.693 220.017 210.693Z" fill="#21263D"/>
</g>
</g>
<defs>
<linearGradient id="paint0_linear_1267_11156" x1="114.544" y1="304.685" x2="123.063" y2="371.746" gradientUnits="userSpaceOnUse">
<stop stop-color="#FF928E"/>
<stop offset="1" stop-color="#FEB3B1"/>
</linearGradient>
<linearGradient id="paint1_linear_1267_11156" x1="111.864" y1="283.424" x2="100.506" y2="208.557" gradientUnits="userSpaceOnUse">
<stop stop-color="#FE7062"/>
<stop offset="1" stop-color="#FF928E"/>
</linearGradient>
<linearGradient id="paint2_linear_1267_11156" x1="130.532" y1="280.213" x2="105.195" y2="314.631" gradientUnits="userSpaceOnUse">
<stop stop-color="#4042E2"/>
<stop offset="1" stop-color="#4F52FF"/>
</linearGradient>
<linearGradient id="paint3_linear_1267_11156" x1="123.459" y1="286.705" x2="77.1156" y2="341.531" gradientUnits="userSpaceOnUse">
<stop stop-color="#FE7062"/>
<stop offset="1" stop-color="#FF928E"/>
</linearGradient>
<linearGradient id="paint4_linear_1267_11156" x1="111.031" y1="259.013" x2="99.5152" y2="216.749" gradientUnits="userSpaceOnUse">
<stop stop-color="#FE7062"/>
<stop offset="0.7635" stop-color="#FF8A84"/>
<stop offset="1" stop-color="#FF928E"/>
</linearGradient>
<linearGradient id="paint5_linear_1267_11156" x1="137.509" y1="182.155" x2="125.678" y2="213.379" gradientUnits="userSpaceOnUse">
<stop stop-color="#FF928E"/>
<stop offset="1" stop-color="#FEB3B1"/>
</linearGradient>
<linearGradient id="paint6_linear_1267_11156" x1="319.592" y1="225.21" x2="294.513" y2="265.891" gradientUnits="userSpaceOnUse">
<stop stop-color="#FE7062"/>
<stop offset="0.7635" stop-color="#FF8A84"/>
<stop offset="1" stop-color="#FF928E"/>
</linearGradient>
<linearGradient id="paint7_linear_1267_11156" x1="342.218" y1="205.511" x2="288.023" y2="241.032" gradientUnits="userSpaceOnUse">
<stop stop-color="#FF928E"/>
<stop offset="1" stop-color="#FEB3B1"/>
</linearGradient>
<linearGradient id="paint8_linear_1267_11156" x1="333.059" y1="235.807" x2="325.961" y2="263.72" gradientUnits="userSpaceOnUse">
<stop stop-color="#4042E2"/>
<stop offset="1" stop-color="#4F52FF"/>
</linearGradient>
<linearGradient id="paint9_linear_1267_11156" x1="340.651" y1="268.452" x2="286.456" y2="303.972" gradientUnits="userSpaceOnUse">
<stop stop-color="#FE7062"/>
<stop offset="1" stop-color="#FF928E"/>
</linearGradient>
<linearGradient id="paint10_linear_1267_11156" x1="318.675" y1="243.698" x2="332.571" y2="268.224" gradientUnits="userSpaceOnUse">
<stop stop-color="#FF928E"/>
<stop offset="1" stop-color="#FEB3B1"/>
</linearGradient>
<linearGradient id="paint11_linear_1267_11156" x1="324.213" y1="232.839" x2="318.534" y2="298.839" gradientUnits="userSpaceOnUse">
<stop stop-color="#FE7062"/>
<stop offset="0.7635" stop-color="#FF8A84"/>
<stop offset="1" stop-color="#FF928E"/>
</linearGradient>
<linearGradient id="paint12_linear_1267_11156" x1="490.586" y1="324.762" x2="484.157" y2="324.762" gradientUnits="userSpaceOnUse">
<stop stop-color="#FF928E"/>
<stop offset="1" stop-color="#FEB3B1"/>
</linearGradient>
<linearGradient id="paint13_linear_1267_11156" x1="513.756" y1="324.432" x2="508.205" y2="324.432" gradientUnits="userSpaceOnUse">
<stop stop-color="#FF928E"/>
<stop offset="1" stop-color="#FEB3B1"/>
</linearGradient>
<linearGradient id="paint14_linear_1267_11156" x1="466.864" y1="90.1457" x2="456.69" y2="122.08" gradientUnits="userSpaceOnUse">
<stop stop-color="#FF928E"/>
<stop offset="1" stop-color="#FEB3B1"/>
</linearGradient>
<linearGradient id="paint15_linear_1267_11156" x1="444.493" y1="83.0178" x2="434.319" y2="114.952" gradientUnits="userSpaceOnUse">
<stop stop-color="#FF928E"/>
<stop offset="1" stop-color="#FEB3B1"/>
</linearGradient>
<linearGradient id="paint16_linear_1267_11156" x1="446.022" y1="97.1435" x2="416.919" y2="163.374" gradientUnits="userSpaceOnUse">
<stop stop-color="#FF928E"/>
<stop offset="1" stop-color="#FEB3B1"/>
</linearGradient>
<linearGradient id="paint17_linear_1267_11156" x1="483.914" y1="212.828" x2="530.031" y2="202.662" gradientUnits="userSpaceOnUse">
<stop stop-color="#FF928E"/>
<stop offset="1" stop-color="#FEB3B1"/>
</linearGradient>
<linearGradient id="paint18_linear_1267_11156" x1="512.993" y1="167.809" x2="508.734" y2="173.959" gradientUnits="userSpaceOnUse">
<stop stop-color="#FF928E"/>
<stop offset="1" stop-color="#FEB3B1"/>
</linearGradient>
<linearGradient id="paint19_linear_1267_11156" x1="504.083" y1="159.068" x2="487.65" y2="159.068" gradientUnits="userSpaceOnUse">
<stop stop-color="#FF928E"/>
<stop offset="1" stop-color="#FEB3B1"/>
</linearGradient>
<linearGradient id="paint20_linear_1267_11156" x1="443.064" y1="371.071" x2="450.605" y2="335.629" gradientUnits="userSpaceOnUse">
<stop stop-color="#FF928E"/>
<stop offset="1" stop-color="#FEB3B1"/>
</linearGradient>
<linearGradient id="paint21_linear_1267_11156" x1="449.165" y1="372.368" x2="456.706" y2="336.926" gradientUnits="userSpaceOnUse">
<stop stop-color="#FF928E"/>
<stop offset="1" stop-color="#FEB3B1"/>
</linearGradient>
<clipPath id="clip0_1267_11156">
<rect width="556.76" height="338.36" fill="white"/>
</clipPath>
<clipPath id="clip1_1267_11156">
<rect width="134" height="229" fill="white" transform="translate(142 102)"/>
</clipPath>
</defs>
</svg>
