<svg width="543" height="329" viewBox="0 0 543 329" fill="none" xmlns="http://www.w3.org/2000/svg">
<g clip-path="url(#clip0_1514_6479)">
<path opacity="0.2" d="M78.788 327.839C41.4882 290.535 -9.49424 252.012 10.4949 193.818C23.6478 155.541 55.8804 144.88 82.6859 121.276C95.9087 109.631 87.5932 92.6757 87.3433 75.8481C86.7836 32.7513 139.135 -0.687543 187.269 0.010739C239.401 0.768031 261.969 48.9102 305.705 51.4968C322.876 51.7426 338.257 42.4781 353.449 35.1314C398.465 13.3371 469.906 27.2339 473.514 79.9296C474.444 108.392 439.183 154.174 474.514 169.143C502.668 181.072 531.113 185.469 536.19 228.133C542.837 283.976 507.716 314.621 461.971 329L78.788 327.839Z" fill="#999999"/>
<g clip-path="url(#clip1_1514_6479)">
<path d="M313.403 166.754C312.402 169.964 311.211 173.131 309.874 176.22C309.175 177.799 308.45 179.378 307.691 180.923C306.914 182.467 306.112 183.995 305.258 185.496C305.051 185.876 304.826 186.247 304.61 186.618C304.386 186.989 304.179 187.368 303.955 187.731C303.497 188.464 303.057 189.198 302.583 189.914C302.35 190.276 302.117 190.639 301.875 190.992L301.15 192.054L300.969 192.321L300.943 192.364C300.693 192.537 300.27 192.779 299.778 193.003C299.2 193.279 298.519 193.555 297.794 193.814C296.344 194.332 294.731 194.798 293.074 195.229C291.409 195.652 289.691 196.032 287.948 196.385C286.205 196.731 284.437 197.058 282.659 197.36C279.095 197.956 275.471 198.465 271.839 198.922C270.018 199.155 268.197 199.371 266.377 199.561L263.641 199.845L262.278 199.984L260.949 200.113L261.536 212.478L263.011 212.452L264.452 212.417C265.41 212.392 266.368 212.348 267.326 212.314C269.241 212.236 271.148 212.141 273.064 212.021C276.886 211.779 280.718 211.46 284.575 211.02C288.432 210.58 292.306 210.019 296.284 209.199C298.277 208.785 300.296 208.302 302.402 207.637C303.454 207.301 304.533 206.93 305.672 206.455C306.811 205.972 308.002 205.411 309.339 204.539C310.012 204.091 310.72 203.573 311.488 202.84C311.677 202.667 311.876 202.46 312.066 202.253C312.264 202.029 312.454 201.813 312.652 201.554L312.868 201.269L312.98 201.114L313.205 200.812L314.111 199.595C314.413 199.19 314.697 198.767 314.991 198.361C315.586 197.542 316.147 196.696 316.708 195.859C316.993 195.436 317.26 195.013 317.536 194.582C317.812 194.159 318.089 193.736 318.347 193.296L319.141 192.002C319.4 191.571 319.65 191.13 319.909 190.69C320.427 189.819 320.901 188.93 321.393 188.05C322.351 186.273 323.257 184.469 324.111 182.64C325.708 179.188 327.131 175.659 328.374 172.052C323.361 170.309 318.46 168.299 313.403 166.754ZM301.047 192.278C301.03 192.295 301.004 192.313 300.986 192.321C300.995 192.313 301.004 192.304 301.004 192.304C301.03 192.269 301.073 192.235 301.09 192.218C301.185 192.14 301.142 192.2 301.047 192.278Z" fill="#A78BEF"/>
<path d="M305.412 196.981C305.55 197.015 305.696 196.981 305.817 196.886C306.007 196.722 306.033 196.429 305.869 196.239C303.85 193.849 301.865 192.166 301.779 192.097C301.589 191.933 301.296 191.959 301.132 192.149C300.968 192.339 300.994 192.632 301.184 192.796C301.201 192.813 303.194 194.504 305.161 196.825C305.23 196.903 305.317 196.955 305.412 196.981Z" fill="black"/>
<path d="M304.799 193.676C305.032 193.728 305.265 193.598 305.343 193.365C305.42 193.124 305.282 192.865 305.041 192.787C305.024 192.778 303.306 192.244 301.831 191.89C301.581 191.829 301.339 191.985 301.279 192.235C301.218 192.485 301.374 192.727 301.624 192.787C303.065 193.124 304.747 193.659 304.765 193.667C304.773 193.667 304.782 193.667 304.799 193.676Z" fill="black"/>
<path d="M268.809 213.531C268.852 213.539 268.895 213.548 268.938 213.539C269.189 213.522 269.387 213.306 269.37 213.056L268.533 198.517C268.516 198.266 268.3 198.068 268.05 198.085C267.799 198.103 267.601 198.318 267.618 198.568L268.455 213.108C268.464 213.324 268.619 213.488 268.809 213.531Z" fill="#00743B"/>
<path d="M261.683 209.924C261.726 209.933 261.778 209.941 261.821 209.933L268.491 209.432C268.741 209.415 268.931 209.19 268.914 208.94C268.897 208.69 268.672 208.5 268.422 208.517L261.752 209.018C261.502 209.035 261.312 209.26 261.329 209.51C261.346 209.717 261.493 209.872 261.683 209.924Z" fill="#00743B"/>
<path d="M263.874 205.325C263.624 205.86 263.857 206.49 264.392 206.731C264.927 206.981 265.557 206.749 265.798 206.214C266.048 205.679 265.815 205.049 265.281 204.807C264.754 204.565 264.124 204.79 263.874 205.325Z" fill="#00743B"/>
<path d="M302.323 293.933H356.468C357.736 293.933 358.763 292.906 358.763 291.638C358.763 290.369 357.736 289.343 356.468 289.343H302.323C301.054 289.343 300.027 290.369 300.027 291.638C300.027 292.906 301.054 293.933 302.323 293.933Z" fill="#E527BB"/>
<path d="M297.344 328.957C298.475 328.957 299.459 328.12 299.614 326.964L309.209 255.311H349.367L358.815 326.964C358.979 328.223 360.136 329.104 361.387 328.94C362.647 328.776 363.527 327.619 363.363 326.368L353.655 252.722C353.509 251.583 352.534 250.729 351.377 250.729H307.198C306.051 250.729 305.076 251.583 304.929 252.722L295.067 326.368C294.903 327.628 295.783 328.776 297.034 328.948C297.137 328.948 297.241 328.957 297.344 328.957Z" fill="#E527BB"/>
<path d="M319.996 253.016H348.687C357.773 253.016 367.506 248.037 368.904 239.063C370.767 227.052 371.233 215.42 370.707 204.747C370.12 192.675 364.356 181.441 354.865 173.959C354.865 173.959 349.135 198.94 356.34 233.411C353.596 246.51 319.996 253.016 319.996 253.016Z" fill="#E527BB"/>
<path d="M267.731 225.991C270.906 222.858 321.539 210.062 338.193 214.713C340.099 218.389 316.983 233.497 311.021 242.1C289.13 245.681 276.911 253.042 276.911 253.042C276.911 253.042 269.146 270.981 264.538 277.564C259.922 284.148 251.138 302.424 251.138 302.424L238.781 296.556C238.773 296.547 259.076 234.516 267.731 225.991Z" fill="#030B16"/>
<path d="M249.43 301.612L241.492 312.942L232.949 309.163L239.878 297.074L249.43 301.612Z" fill="#FF8C62"/>
<path d="M205.916 313.322L238.213 327.619C238.644 327.291 239.05 326.731 239.43 326.014C240.845 323.374 241.897 318.628 242.691 315.686C242.778 315.341 242.872 315.021 242.959 314.737C243.105 314.253 243.235 313.848 243.356 313.572C244.348 311.328 242.191 310.836 242.191 310.836C237.505 312.597 235.935 306.151 233.07 306.772C233.07 306.772 231.845 307.031 228.255 308.196C224.675 309.37 219.635 308.964 215.235 308.869C209.557 308.748 207.314 310.155 206.433 311.415C205.752 312.407 205.916 313.322 205.916 313.322Z" fill="#A78BEF"/>
<path d="M205.915 313.322L238.213 327.619C238.644 327.291 239.05 326.731 239.429 326.014L206.442 311.406C205.751 312.407 205.915 313.322 205.915 313.322Z" fill="#1D2738"/>
<path d="M234.91 326.152L235.868 326.575C235.393 325.057 235.238 322.986 236.42 320.639C237.99 317.515 240.855 316.212 242.684 315.677C242.771 315.332 242.866 315.013 242.952 314.728C241.036 315.185 237.559 316.514 235.678 320.259C234.548 322.502 234.548 324.547 234.91 326.152Z" fill="#1D2738"/>
<path d="M227.945 310.345C228.186 310.448 228.471 310.388 228.644 310.172C228.842 309.913 228.799 309.551 228.54 309.352L226.737 307.954C226.487 307.756 226.116 307.799 225.917 308.058C225.719 308.317 225.762 308.679 226.021 308.878L227.824 310.276C227.867 310.301 227.902 310.327 227.945 310.345Z" fill="#1D2738"/>
<path d="M230.707 309.551C230.948 309.654 231.233 309.594 231.405 309.378C231.604 309.119 231.561 308.757 231.302 308.559L229.499 307.161C229.248 306.962 228.877 307.005 228.679 307.264C228.48 307.523 228.523 307.886 228.782 308.084L230.586 309.482C230.62 309.508 230.663 309.534 230.707 309.551Z" fill="#1D2738"/>
<path d="M225.398 310.629C225.64 310.733 225.924 310.672 226.097 310.457C226.295 310.198 226.252 309.835 225.993 309.637L224.19 308.239C223.931 308.041 223.569 308.084 223.37 308.343C223.172 308.602 223.215 308.964 223.474 309.162L225.277 310.56C225.312 310.586 225.355 310.612 225.398 310.629Z" fill="#1D2738"/>
<path d="M222.871 310.862C223.112 310.966 223.397 310.906 223.57 310.69C223.768 310.431 223.725 310.069 223.466 309.87L221.663 308.472C221.404 308.274 221.041 308.317 220.843 308.576C220.644 308.835 220.688 309.197 220.946 309.396L222.75 310.793C222.793 310.819 222.827 310.845 222.871 310.862Z" fill="#1D2738"/>
<path d="M220.207 310.931C220.448 311.035 220.733 310.974 220.905 310.759C221.104 310.5 221.061 310.137 220.802 309.939L218.999 308.541C218.74 308.343 218.377 308.386 218.179 308.645C217.98 308.904 218.023 309.266 218.282 309.464L220.086 310.862C220.12 310.888 220.163 310.914 220.207 310.931Z" fill="#1D2738"/>
<path d="M217.469 310.75C217.71 310.854 217.995 310.793 218.168 310.578C218.366 310.327 218.323 309.956 218.064 309.758L216.269 308.36C216.019 308.162 215.648 308.205 215.45 308.464C215.251 308.714 215.303 309.085 215.553 309.283L217.348 310.681C217.382 310.707 217.426 310.733 217.469 310.75Z" fill="#1D2738"/>
<path d="M309.608 222.634C308.788 231.642 335.719 245.362 341.422 239.4C356.479 223.661 358.542 199.975 358.084 188.395C358.024 186.946 358.067 185.384 358.171 183.744C358.317 181.337 358.602 178.766 358.904 176.177C360.052 166.461 361.553 156.495 357.567 153.803C353.986 151.378 350.465 151.697 347.497 150.731C345.659 150.136 343.726 149.894 341.802 150.023L330.585 150.8C330.585 150.8 322.456 151.508 320.498 152.733C318.539 153.958 317.124 159.895 313.344 165.141C309.565 170.387 308.409 175.858 311.127 182.157C313.491 187.636 313.163 185.6 312.844 194.263C312.464 204.876 310.109 217.172 309.608 222.634Z" fill="#A78BEF"/>
<path d="M311.118 196.808C311.101 196.808 311.084 196.808 311.066 196.8C310.903 196.774 310.79 196.61 310.816 196.446L312.533 186.393C309.772 182.416 309.323 177.722 309.306 177.523C309.289 177.359 309.418 177.204 309.582 177.195C309.755 177.178 309.902 177.307 309.91 177.471C309.919 177.523 310.368 182.286 313.103 186.143C313.146 186.212 313.172 186.29 313.155 186.367L311.42 196.541C311.394 196.696 311.265 196.808 311.118 196.808Z" fill="black"/>
<path d="M338.264 167.911L337.064 174.909C337.064 174.909 326.486 173.649 319.453 173.442L321.11 166.979C321.11 166.979 331.292 166.893 338.264 167.911Z" fill="#8165E5"/>
<path d="M331.897 170.827C331.026 171.518 330.137 172.001 329.24 172.208C327.773 172.553 326.634 172.277 325.84 171.397C322.354 167.522 327.505 152.603 327.721 151.974C327.79 151.766 328.014 151.663 328.221 151.732C328.429 151.801 328.532 152.025 328.463 152.232C328.446 152.267 327.126 156.081 326.228 160.3C325.063 165.779 325.132 169.438 326.418 170.87C327.013 171.526 327.868 171.716 329.05 171.44C335.866 169.852 342.856 149.868 342.925 149.67C342.994 149.463 343.218 149.359 343.425 149.428C343.632 149.497 343.736 149.721 343.667 149.928C343.434 150.662 338.093 165.926 331.897 170.827Z" fill="white"/>
<path d="M339.352 239.779C339.214 239.891 339.007 239.891 338.86 239.779C338.687 239.641 338.661 239.399 338.799 239.227C348.878 226.672 352.666 210.157 354.064 198.517C355.582 185.884 354.711 176.117 354.702 176.022C354.685 175.806 354.84 175.616 355.056 175.59C355.272 175.573 355.461 175.728 355.487 175.944C355.496 176.039 356.385 185.893 354.849 198.603C353.951 206.075 352.407 213.056 350.25 219.364C347.558 227.259 343.916 234.101 339.412 239.719C339.395 239.736 339.378 239.762 339.352 239.779Z" fill="black"/>
<path d="M334.216 219.847L334.208 219.856C334.035 219.985 333.785 219.951 333.655 219.778C328.728 213.186 322.68 209.76 318.469 208.06C313.913 206.214 310.496 205.92 310.461 205.92C310.246 205.903 310.082 205.713 310.099 205.497C310.116 205.282 310.306 205.118 310.522 205.135C310.668 205.144 314.094 205.437 318.762 207.335C323.068 209.078 329.246 212.573 334.285 219.312C334.415 219.476 334.38 219.718 334.216 219.847Z" fill="#00743B"/>
<path d="M332.554 207.068C332.442 207.154 332.278 207.18 332.14 207.111C332.053 207.068 323.623 203.107 316.461 203.53C316.246 203.539 316.056 203.375 316.047 203.159C316.039 202.943 316.203 202.753 316.418 202.745C323.787 202.313 332.131 206.239 332.485 206.403C332.683 206.498 332.761 206.731 332.675 206.93C332.64 206.981 332.597 207.033 332.554 207.068Z" fill="#00743B"/>
<path d="M333.64 143.966C333.64 143.966 341.078 141.395 342.096 133.361C343.062 125.708 340.922 122.127 338.196 118.477C336.142 115.724 330.447 112.437 323.51 114.948C316.503 117.476 311.654 121.98 311.731 128.037C311.878 139.367 322.845 151.594 333.64 143.966Z" fill="black"/>
<path d="M327.537 116.492C327.537 116.492 326.131 109.9 332.542 106.44C338.953 102.98 345.735 108.312 346.21 113.438C346.693 118.563 340.86 125.621 335.657 122.791C330.454 119.97 327.537 116.492 327.537 116.492Z" fill="black"/>
<path d="M317.651 138.314C317.651 138.314 314.873 136.718 314.605 139.419C314.338 142.119 316.866 146.468 319.558 144.639L317.651 138.314Z" fill="#FF6A44"/>
<path d="M326.832 148.349L329.438 156.081C329.438 156.081 335.038 159.42 342.976 149.859C340.845 146.969 337.868 143.293 337.756 140.583C337.756 140.583 337.117 141.11 336.177 142.249C335.996 142.473 335.745 142.663 335.504 142.879C333.381 144.837 330.085 147.452 326.832 148.349Z" fill="#FF8C62"/>
<path d="M326.832 148.349L327.781 151.369C330.275 149.782 334.624 146.537 336.168 142.258C335.961 142.456 335.737 142.672 335.495 142.887C333.381 144.838 330.085 147.452 326.832 148.349Z" fill="#37202C"/>
<path d="M315.692 139.013C315.933 139.669 316.158 140.29 316.382 140.868C318.039 145.234 319.204 147.53 320.653 148.237C327.979 151.827 337.436 140.963 337.738 140.618C337.738 140.609 337.747 140.609 337.747 140.609C337.678 140.074 337.6 139.548 337.514 139.03C336.789 134.656 335.46 130.824 333.734 127.356C332.552 123.464 328.997 120.729 324.933 120.72C320.722 120.712 317.97 123.55 316.192 124.897C313.5 126.924 313.008 131.523 315.01 137.106C315.243 137.771 315.476 138.409 315.692 139.013Z" fill="#FF8C62"/>
<path d="M324.923 136.726C325.113 137.244 326.321 137.279 327.633 136.804C328.944 136.329 329.859 135.527 329.669 135.009C329.479 134.492 328.271 134.457 326.96 134.932C325.648 135.406 324.734 136.209 324.923 136.726Z" fill="#FF6A44"/>
<g opacity="0.8">
<path d="M315.691 139.013C315.933 139.669 316.157 140.29 316.382 140.868C317.572 140.385 318.366 139.652 318.194 139.16C318.013 138.668 316.925 138.616 315.691 139.013Z" fill="#FF6A44"/>
</g>
<path d="M334.398 138.573C334.459 138.642 336.176 140.463 337.746 140.618C337.746 140.609 337.755 140.609 337.755 140.609C337.686 140.074 337.608 139.548 337.522 139.03C337.47 139.039 336.029 139.289 334.398 138.573Z" fill="#37202C"/>
<path d="M333.926 133.18C333.926 133.18 335.384 128.348 338.542 130.592C341.148 132.438 340.233 140.04 336.048 139.056L333.926 133.18Z" fill="#FF8C62"/>
<path d="M336.014 137.762C336.005 137.762 335.997 137.771 335.98 137.771C335.816 137.814 335.643 137.71 335.609 137.546C334.789 134.181 337.11 132.076 337.213 131.981C337.343 131.869 337.541 131.877 337.654 132.007C337.766 132.136 337.757 132.334 337.628 132.447C337.541 132.524 335.488 134.405 336.213 137.4C336.256 137.555 336.169 137.71 336.014 137.762Z" fill="#37202C"/>
<path d="M338.102 135.009C338.033 135.035 337.964 135.035 337.895 135.009C337.567 134.897 336.618 134.664 336.16 134.975C336.022 135.07 335.824 135.035 335.729 134.889C335.634 134.751 335.668 134.552 335.815 134.457C336.609 133.914 337.955 134.362 338.102 134.414C338.266 134.474 338.352 134.647 338.292 134.811C338.257 134.914 338.188 134.984 338.102 135.009Z" fill="#37202C"/>
<path d="M332.948 123.352C332.948 123.352 330.342 128.296 328.392 128.012C326.442 127.727 327.926 123.559 327.926 123.559C327.926 123.559 323.301 128.754 320.729 128.547C318.158 128.339 321.152 124.224 321.152 124.224C321.152 124.224 318.175 129.711 315.587 130.384C313.007 131.058 314.361 127.002 314.361 127.002C314.361 127.002 313.671 132.248 312.023 132.412C310.375 132.576 310.108 125.501 314.327 121.54C318.555 117.571 331.42 113.369 332.948 123.352Z" fill="black"/>
<path d="M330.039 125.923C330.039 125.923 331.687 134.483 333.741 133.784C335.794 133.085 336.709 129.194 332.947 123.352L330.039 125.923Z" fill="black"/>
<path d="M355.22 213.712C355.22 213.712 373.184 248.511 325.813 251.281C304.431 252.532 294.223 249.21 294.223 249.21C294.223 249.21 293.706 268.116 292.713 276.097C291.721 284.07 288.753 298.299 288.753 298.299H275.939C275.939 298.299 270.805 240.012 281.142 233.636C291.479 227.259 309.401 222.479 334.916 220.028C341.612 218.967 353.623 215.921 355.22 213.712Z" fill="#1D2738"/>
<path d="M288.029 298.299L285.337 314.711H276.285L276.794 298.299H288.029Z" fill="#FF8C62"/>
<path d="M253.961 329H288.174C288.432 328.534 288.57 327.878 288.622 327.102C288.838 324.211 287.915 319.586 287.457 316.678C287.406 316.342 287.354 316.023 287.319 315.729C287.259 315.246 287.216 314.84 287.216 314.538C287.216 312.165 285.11 312.571 285.11 312.571C281.65 315.962 277.724 310.871 275.438 312.545C275.438 312.545 274.454 313.253 271.736 315.695C269.018 318.137 264.402 319.75 260.467 321.398C255.393 323.521 253.952 325.644 253.667 327.102C253.46 328.258 253.961 329 253.961 329Z" fill="#A78BEF"/>
<path d="M253.96 329H288.173C288.431 328.534 288.57 327.878 288.621 327.102H253.675C253.459 328.258 253.96 329 253.96 329Z" fill="#1D2738"/>
<path d="M284.687 329H285.705C284.687 327.844 283.738 326.066 283.867 323.521C284.031 320.139 286.059 317.861 287.465 316.678C287.413 316.342 287.362 316.023 287.327 315.729C285.808 316.894 283.246 319.431 283.047 323.478C282.926 325.911 283.729 327.723 284.687 329Z" fill="#1D2738"/>
<path d="M272.331 317.714C272.581 317.714 272.814 317.541 272.874 317.282C272.952 316.98 272.762 316.678 272.46 316.601L270.32 316.074C270.018 315.997 269.716 316.186 269.639 316.488C269.561 316.79 269.751 317.092 270.053 317.17L272.193 317.697C272.236 317.714 272.288 317.714 272.331 317.714Z" fill="#1D2738"/>
<path d="M274.456 315.936C274.706 315.936 274.939 315.764 274.999 315.505C275.077 315.203 274.887 314.901 274.585 314.823L272.445 314.297C272.143 314.219 271.841 314.409 271.764 314.711C271.686 315.013 271.876 315.315 272.178 315.393L274.318 315.919C274.361 315.928 274.413 315.936 274.456 315.936Z" fill="#1D2738"/>
<path d="M270.19 318.956C270.44 318.956 270.673 318.784 270.734 318.525C270.811 318.223 270.621 317.921 270.319 317.843L268.18 317.317C267.878 317.239 267.576 317.429 267.498 317.731C267.42 318.033 267.61 318.335 267.912 318.413L270.052 318.939C270.104 318.948 270.147 318.956 270.19 318.956Z" fill="#1D2738"/>
<path d="M268.053 320.156C268.304 320.156 268.537 319.983 268.597 319.724C268.675 319.422 268.485 319.12 268.183 319.043L266.043 318.516C265.741 318.439 265.439 318.628 265.361 318.93C265.284 319.232 265.473 319.534 265.775 319.612L267.915 320.138C267.967 320.147 268.01 320.156 268.053 320.156Z" fill="#1D2738"/>
<path d="M265.721 321.252C265.972 321.252 266.204 321.079 266.265 320.82C266.343 320.518 266.153 320.216 265.851 320.138L263.711 319.612C263.409 319.534 263.107 319.724 263.029 320.026C262.951 320.328 263.141 320.63 263.443 320.708L265.583 321.234C265.635 321.252 265.678 321.252 265.721 321.252Z" fill="#1D2738"/>
<path d="M263.194 322.201C263.444 322.201 263.677 322.028 263.738 321.769C263.815 321.467 263.625 321.165 263.323 321.087L261.183 320.561C260.881 320.483 260.579 320.673 260.502 320.975C260.424 321.277 260.614 321.579 260.916 321.657L263.056 322.183C263.108 322.192 263.151 322.201 263.194 322.201Z" fill="#1D2738"/>
<path d="M291.141 200.346C291.141 200.346 281.106 196.644 276.783 198.146L276.395 205.549C276.395 205.549 282.53 205.791 283.979 206.731C285.437 207.663 285.196 210.649 291.115 211.477L291.141 200.346Z" fill="#FF8C62"/>
<path d="M341.635 158.833L341.669 159.239L341.704 159.808C341.721 160.197 341.738 160.602 341.747 161.016C341.773 161.836 341.773 162.673 341.764 163.51C341.738 165.193 341.626 166.884 341.454 168.575C341.126 171.949 340.522 175.288 339.624 178.515C339.4 179.318 339.158 180.12 338.9 180.906C338.641 181.699 338.365 182.485 338.071 183.253C337.778 184.029 337.467 184.788 337.131 185.539C336.803 186.29 336.449 187.032 336.078 187.765C335.716 188.499 335.319 189.215 334.922 189.923C334.516 190.63 334.093 191.329 333.645 192.011C333.196 192.692 332.739 193.365 332.255 194.013C332.014 194.34 331.764 194.66 331.522 194.979L331.427 195.1L331.393 195.152L331.436 195.1C331.496 195.031 331.539 194.988 331.591 194.953C331.669 194.884 331.712 194.85 331.738 194.841C331.764 194.832 331.686 194.91 331.522 195.005C331.367 195.1 331.142 195.221 330.884 195.341C330.357 195.583 329.693 195.833 328.977 196.066C327.527 196.532 325.879 196.929 324.179 197.274C320.762 197.965 317.121 198.456 313.462 198.862C309.786 199.259 306.067 199.569 302.322 199.811C300.45 199.94 298.578 200.044 296.705 200.139L293.892 200.26L292.494 200.32L291.131 200.372L290.984 212.745L292.494 212.806L293.97 212.858C294.954 212.884 295.929 212.909 296.912 212.927C298.871 212.961 300.83 212.978 302.788 212.97C306.715 212.953 310.641 212.858 314.61 212.625C318.588 212.4 322.574 212.047 326.707 211.408C328.778 211.08 330.884 210.675 333.118 210.062C334.24 209.751 335.388 209.389 336.63 208.88C337.251 208.63 337.899 208.336 338.589 207.974C339.271 207.611 340.004 207.171 340.789 206.585C341.186 206.283 341.6 205.946 342.023 205.532C342.239 205.316 342.446 205.109 342.67 204.859L342.834 204.678L342.912 204.591L343.041 204.436C343.395 204.013 343.758 203.59 344.094 203.159C344.784 202.296 345.449 201.416 346.087 200.519C346.726 199.621 347.338 198.698 347.925 197.775C348.503 196.843 349.073 195.894 349.599 194.936C351.705 191.087 353.396 187.041 354.647 182.907C355.907 178.774 356.761 174.555 357.27 170.31C357.512 168.187 357.667 166.047 357.727 163.898C357.762 162.82 357.762 161.741 357.745 160.645C357.727 160.093 357.71 159.541 357.684 158.98C357.667 158.695 357.65 158.411 357.632 158.117L357.598 157.66L357.581 157.418L357.546 157.09L341.635 158.833Z" fill="#A78BEF"/>
<path d="M335.431 199.811C335.569 199.854 335.724 199.837 335.854 199.742C336.052 199.587 336.095 199.302 335.949 199.103C334.067 196.601 331.255 193.978 331.134 193.874C330.944 193.702 330.659 193.711 330.487 193.9C330.314 194.09 330.323 194.375 330.512 194.548C330.538 194.573 333.386 197.222 335.215 199.656C335.275 199.725 335.345 199.785 335.431 199.811Z" fill="black"/>
<path d="M300.501 200.13C300.562 200.147 300.631 200.156 300.7 200.147C318.13 198.215 330.106 194.927 330.745 194.453C330.797 194.418 330.84 194.366 330.874 194.306C331.392 193.4 343.481 172.113 343.395 162.863C343.395 162.613 343.188 162.406 342.929 162.406C342.679 162.406 342.471 162.613 342.471 162.871C342.549 171.526 331.125 191.976 330.132 193.736C328.864 194.263 317.224 197.395 300.588 199.233C300.337 199.259 300.156 199.492 300.182 199.742C300.208 199.932 300.337 200.078 300.501 200.13Z" fill="black"/>
<path d="M342.082 167.16C342.194 167.194 342.315 167.194 342.427 167.134C342.652 167.022 342.755 166.746 342.643 166.521L341.409 163.976C341.297 163.752 341.021 163.648 340.796 163.76C340.572 163.872 340.469 164.148 340.581 164.373L341.815 166.918C341.866 167.039 341.97 167.117 342.082 167.16Z" fill="#8165E5"/>
<path d="M291.26 210.209C291.312 210.226 291.364 210.235 291.415 210.235L298.103 210.131C298.353 210.131 298.56 209.915 298.551 209.665C298.551 209.415 298.336 209.208 298.085 209.216L291.398 209.32C291.148 209.32 290.941 209.536 290.949 209.786C290.949 209.976 291.079 210.148 291.26 210.209Z" fill="#00743B"/>
<path d="M293.736 205.748C293.46 206.265 293.65 206.904 294.167 207.18C294.685 207.456 295.324 207.266 295.6 206.749C295.876 206.231 295.686 205.592 295.168 205.316C294.659 205.04 294.012 205.239 293.736 205.748Z" fill="#00743B"/>
<path d="M240.628 209.104H310.556C310.711 209.104 310.84 208.975 310.84 208.819C310.84 206.645 309.08 204.893 306.914 204.893H240.628C240.473 204.893 240.344 205.023 240.344 205.178V208.828C240.344 208.975 240.473 209.104 240.628 209.104Z" fill="#C10C9F"/>
<path d="M217.281 170.465L226.004 207.378C226.237 208.362 227.118 209.052 228.127 209.052H281.893C283.299 209.052 284.334 207.741 284.015 206.369L275.292 169.455C275.059 168.472 274.178 167.781 273.169 167.781H219.403C217.997 167.781 216.962 169.093 217.281 170.465Z" fill="#E527BB"/>
<path d="M228.393 200.363L228.203 198.223H229.912L229.497 196.265H231.75L232.164 198.223H233.562L233.147 196.265H235.399L235.814 198.223H237.79L237.979 200.363H236.271L236.642 202.167H238.618L238.808 204.307H237.099L237.513 206.265H235.261L234.847 204.307H233.449L233.864 206.265H231.611L231.197 204.307H229.221L229.031 202.167H230.74L230.369 200.363H228.393ZM233.001 202.158H234.399L234.028 200.355H232.63L233.001 202.158Z" fill="#8165E5"/>
<path d="M271.039 167.781L280.332 209.052H281.894C283.3 209.052 284.336 207.741 284.017 206.369L275.293 169.455C275.06 168.472 274.18 167.781 273.17 167.781H271.039Z" fill="#C10C9F"/>
<path d="M243.847 189.862C244.115 192.123 246.168 193.952 248.42 193.952C250.681 193.952 252.286 192.123 252.018 189.862C251.751 187.602 249.697 185.772 247.445 185.772C245.193 185.772 243.571 187.61 243.847 189.862Z" fill="white"/>
<path d="M165.145 212.021V214.86C165.145 216.499 166.525 217.819 168.225 217.819H382.64C384.339 217.819 385.72 216.499 385.72 214.86V212.021C385.72 210.39 384.339 209.061 382.64 209.061H168.225C166.516 209.07 165.145 210.39 165.145 212.021Z" fill="#A84E0E"/>
<path d="M177.288 225.128H367.43C371.485 225.128 374.764 221.84 374.764 217.793H169.953C169.953 221.84 173.241 225.128 177.288 225.128Z" fill="#862B00"/>
<path d="M173.887 266.373H367.938V261.342H173.887V266.373Z" fill="#862B00"/>
<path d="M377.239 328.724L352.25 225.128H361.025L386.014 328.724H377.239Z" fill="#A84E0E"/>
<path d="M165.775 328.724L190.764 225.128H181.989L157 328.724H165.775Z" fill="#A84E0E"/>
<path d="M385.72 213.444H165.145V214.747H385.72V213.444Z" fill="#862B00"/>
<path d="M192.642 208.819C192.107 208.819 191.624 208.44 191.521 207.896L178.319 140.117C178.233 139.686 178.405 139.246 178.759 138.978L209.235 116.319C209.529 116.104 209.909 116.035 210.262 116.147L237.21 124.655C237.814 124.845 238.142 125.483 237.952 126.087C237.762 126.691 237.123 127.019 236.519 126.829L210.124 118.494L180.7 140.385L193.764 207.464C193.885 208.086 193.479 208.681 192.858 208.802C192.789 208.819 192.72 208.819 192.642 208.819Z" fill="#A78BEF"/>
<path d="M181.539 209.07C181.539 209.07 183.903 201.019 191.928 201.019C199.953 201.019 202.628 209.07 202.628 209.07H181.539Z" fill="#006BFF"/>
<path d="M227.633 152.336L227.719 151.335L227.849 149.816L229.367 131.644L229.074 130.54C228.168 127.097 230.083 123.533 233.466 122.403C234.173 122.161 234.898 122.049 235.614 122.049C238.289 122.049 240.8 123.645 241.87 126.243L242.302 127.295L254.667 141.101L255.693 142.249L256.151 142.767C257.687 147.348 229.169 156.909 227.633 152.336Z" fill="#E527BB"/>
<path d="M255.693 142.266C251.689 145.191 244.596 147.676 242.655 148.332C240.679 148.997 233.293 151.352 228.323 151.352C228.116 151.352 227.917 151.344 227.719 151.344L227.848 149.825C228.582 149.851 229.488 149.808 230.583 149.687C233.759 149.324 237.875 148.332 242.172 146.891C246.469 145.45 250.352 143.759 253.104 142.137C253.708 141.783 254.226 141.446 254.675 141.127L255.693 142.266Z" fill="#8165E5"/>
<path d="M180.279 145.743C182.909 145.743 185.042 143.611 185.042 140.98C185.042 138.35 182.909 136.217 180.279 136.217C177.648 136.217 175.516 138.35 175.516 140.98C175.516 143.611 177.648 145.743 180.279 145.743Z" fill="#A78BEF"/>
<path d="M180.28 143.612C178.831 143.612 177.648 142.43 177.648 140.98C177.648 139.531 178.831 138.349 180.28 138.349C181.73 138.349 182.912 139.531 182.912 140.98C182.912 142.43 181.73 143.612 180.28 143.612Z" fill="#E527BB"/>
<path d="M209.841 121.997C212.472 121.997 214.604 119.865 214.604 117.234C214.604 114.604 212.472 112.471 209.841 112.471C207.211 112.471 205.078 114.604 205.078 117.234C205.078 119.865 207.211 121.997 209.841 121.997Z" fill="#A78BEF"/>
<path d="M209.843 119.866C208.393 119.866 207.211 118.684 207.211 117.234C207.211 115.785 208.393 114.603 209.843 114.603C211.292 114.603 212.474 115.785 212.474 117.234C212.474 118.684 211.292 119.866 209.843 119.866Z" fill="#E527BB"/>
<path d="M369.973 194.09C369.809 194.09 369.68 193.961 369.68 193.797V174.702C369.68 174.538 369.809 174.408 369.973 174.408C370.137 174.408 370.266 174.538 370.266 174.702V193.797C370.266 193.961 370.137 194.09 369.973 194.09Z" fill="#0046CE"/>
<path d="M378.129 193.365L377.818 194.513L377.758 194.737L377.481 195.764L377.421 195.989L377.154 196.99L376.8 198.284L375.074 204.678L374.729 205.972L374.651 206.257L374.591 206.472L374.315 207.508L374.254 207.732L373.892 209.07H366.057L365.695 207.732L365.634 207.508L365.358 206.472L365.298 206.257L365.229 205.972L364.875 204.678L363.149 198.284L362.795 196.99L362.528 195.989L362.467 195.764L362.191 194.737L362.131 194.513L361.82 193.365H378.129Z" fill="#FF402C"/>
<path d="M377.151 196.99L376.797 198.284H363.147L362.793 196.99H377.151Z" fill="#D61326"/>
<path d="M375.074 204.677L374.729 205.972H365.229L364.875 204.677H375.074Z" fill="#D61326"/>
<path d="M371.017 178.869C370.663 178.955 370.318 178.809 370.128 178.541C370.059 178.446 370.016 178.343 369.99 178.231C369.973 178.17 369.973 178.11 369.973 178.049C369.973 177.851 370.042 177.661 370.171 177.514C371.284 176.16 376.945 169.619 379.594 172.354C382.795 175.659 374.106 178.118 371.017 178.869Z" fill="#39B039"/>
<path d="M376.023 175.055L370.138 178.541C370.069 178.446 370.026 178.343 370 178.231L375.85 174.77C375.937 174.719 376.04 174.753 376.083 174.831C376.126 174.909 376.1 175.012 376.023 175.055Z" fill="black"/>
<path d="M370.086 181.602C370.086 181.662 370.078 181.723 370.069 181.783C370.043 181.895 369.991 182.007 369.931 182.094C369.741 182.361 369.396 182.508 369.042 182.421C365.953 181.671 357.264 179.212 360.474 175.898C363.123 173.163 368.775 179.703 369.896 181.058C370.017 181.213 370.086 181.403 370.086 181.602Z" fill="#39B039"/>
<path d="M369.956 181.466C369.93 181.578 369.878 181.691 369.818 181.777L363.933 178.291C363.855 178.248 363.829 178.136 363.872 178.058C363.915 177.98 364.028 177.946 364.105 177.998L369.956 181.466Z" fill="black"/>
<path d="M370.619 174.65C370.593 174.848 370.507 175.029 370.36 175.167C370.317 175.211 370.265 175.245 370.213 175.28C370.11 175.34 370.006 175.375 369.894 175.392C369.566 175.435 369.23 175.288 369.048 174.978C367.461 172.225 363.25 164.235 367.858 164.278C371.663 164.304 370.826 172.915 370.619 174.65Z" fill="#39B039"/>
<path d="M370.214 175.28C370.11 175.34 370.007 175.375 369.895 175.392L368.359 168.722C368.341 168.636 368.393 168.541 368.488 168.515C368.583 168.498 368.669 168.549 368.695 168.644L370.214 175.28Z" fill="black"/>
<path d="M371.017 185.815C370.663 185.901 370.318 185.755 370.128 185.487C370.059 185.392 370.016 185.289 369.99 185.177C369.973 185.116 369.973 185.056 369.973 184.995C369.973 184.797 370.042 184.607 370.171 184.46C371.284 183.106 376.945 176.565 379.594 179.301C382.795 182.605 374.106 185.064 371.017 185.815Z" fill="#39B039"/>
<path d="M376.023 182.001L370.138 185.487C370.069 185.392 370.026 185.289 370 185.177L375.85 181.717C375.937 181.665 376.04 181.699 376.083 181.777C376.126 181.855 376.1 181.958 376.023 182.001Z" fill="black"/>
<path d="M369.973 188.231C369.973 188.292 369.964 188.352 369.956 188.413C369.93 188.525 369.878 188.637 369.818 188.723C369.628 188.991 369.283 189.137 368.929 189.051C365.84 188.3 357.151 185.841 360.361 182.528C363.01 179.793 368.661 186.333 369.783 187.688C369.904 187.843 369.973 188.033 369.973 188.231Z" fill="#39B039"/>
<path d="M369.956 188.413C369.93 188.525 369.878 188.637 369.818 188.723L363.933 185.237C363.855 185.185 363.829 185.082 363.872 185.004C363.915 184.927 364.028 184.901 364.105 184.944L369.956 188.413Z" fill="black"/>
<path d="M371.017 192.356C370.663 192.442 370.318 192.295 370.128 192.028C370.059 191.933 370.016 191.829 369.99 191.717C369.973 191.657 369.973 191.596 369.973 191.536C369.973 191.338 370.042 191.148 370.171 191.001C371.284 189.646 376.945 183.106 379.594 185.841C382.795 189.146 374.106 191.605 371.017 192.356Z" fill="#39B039"/>
<path d="M376.023 188.55L370.138 192.036C370.069 191.941 370.026 191.838 370 191.726L375.85 188.266C375.937 188.214 376.04 188.248 376.083 188.326C376.126 188.395 376.1 188.499 376.023 188.55Z" fill="black"/>
<path d="M217.116 189.12L216.961 190.872L216.702 193.814L216.659 194.384L216.443 196.886L216.202 199.613L216.184 199.742L215.917 202.866L215.675 205.644L215.373 209.104H205.778L205.709 208.31L205.416 204.954L205.235 202.926L204.95 199.613L204.941 199.561L204.769 197.542L204.492 194.384L204.475 194.151L204.294 192.14L204.035 189.12H217.116Z" fill="#8165E5"/>
<path d="M216.659 194.384L216.443 196.886L216.201 199.613H204.95L204.941 199.561L204.768 197.542L204.492 194.384H216.659Z" fill="white"/>
<path d="M217.79 186.566H203.363V189.12H217.79V186.566Z" fill="#8165E5"/>
<path d="M216.702 186.566H204.449V185.669C204.449 184.961 205.019 184.392 205.726 184.392H215.425C216.132 184.392 216.702 184.961 216.702 185.669V186.566Z" fill="#8165E5"/>
<g clip-path="url(#clip2_1514_6479)">
<path d="M271.71 138.996L265.308 139.022C264.583 139.022 263.996 139.617 263.996 140.342L264.056 157.496C264.056 158.626 264.98 159.541 266.11 159.541L288.553 159.463C289.235 159.463 289.796 158.902 289.787 158.221L289.736 142.24C289.736 141.645 289.252 141.17 288.657 141.17L275.567 141.213L271.71 138.996Z" fill="#FF8400"/>
<path d="M289.789 158.212L289.754 147.124L264.023 147.21L264.058 158.307C264.058 158.988 264.619 159.549 265.3 159.541L288.555 159.463C289.245 159.454 289.797 158.902 289.789 158.212Z" fill="#FDAC0D"/>
<path d="M265.445 146.788V147.202L288.242 147.124V146.71C288.234 145.165 286.974 143.914 285.429 143.914L268.241 143.975C266.696 143.983 265.445 145.243 265.445 146.788Z" fill="white"/>
<path d="M286.31 145.588L286.318 147.133H285.317L285.309 145.588C285.309 145.312 285.533 145.088 285.809 145.088C286.077 145.088 286.301 145.312 286.31 145.588Z" fill="#FFDECA"/>
<path d="M284.048 145.597L284.056 147.141H283.056L283.047 145.597C283.047 145.321 283.271 145.096 283.547 145.096C283.823 145.096 284.048 145.321 284.048 145.597Z" fill="#FFDECA"/>
<path d="M281.798 145.606L281.806 147.15H280.806L280.797 145.606C280.797 145.33 281.021 145.105 281.297 145.105C281.565 145.105 281.798 145.33 281.798 145.606Z" fill="#FFDECA"/>
<path d="M279.536 145.606L279.545 147.15H278.544L278.535 145.606C278.535 145.33 278.76 145.105 279.036 145.105C279.312 145.114 279.536 145.338 279.536 145.606Z" fill="#FFDECA"/>
<path d="M277.286 145.614L277.295 147.159H276.294L276.285 145.614C276.285 145.338 276.51 145.114 276.786 145.114C277.062 145.114 277.286 145.338 277.286 145.614Z" fill="#FFDECA"/>
<path d="M275.024 145.623L275.033 147.167H274.032L274.023 145.623C274.023 145.347 274.248 145.122 274.524 145.122C274.8 145.122 275.024 145.347 275.024 145.623Z" fill="#FFDECA"/>
<path d="M272.77 145.631L272.779 147.176H271.778L271.77 145.64C271.77 145.364 271.994 145.14 272.27 145.14C272.546 145.131 272.77 145.355 272.77 145.631Z" fill="#FFDECA"/>
<path d="M270.512 145.64L270.52 147.185H269.52V145.64C269.52 145.364 269.744 145.14 270.02 145.14C270.287 145.14 270.512 145.364 270.512 145.64Z" fill="#FFDECA"/>
<path d="M268.259 145.649L268.267 147.193H267.266L267.258 145.649C267.258 145.373 267.482 145.148 267.758 145.148C268.034 145.148 268.259 145.373 268.259 145.649Z" fill="#FFDECA"/>
</g>
</g>
<g clip-path="url(#clip3_1514_6479)">
<path d="M304.416 127.968V51.38C304.416 50.2065 303.466 49.2573 302.293 49.2573H263.533C262.359 49.2573 261.41 50.2065 261.41 51.38V127.968C261.41 130.341 263.334 132.257 265.699 132.257H300.127C302.491 132.265 304.416 130.341 304.416 127.968Z" fill="white"/>
<path d="M297.978 107.424H269.331C268.813 107.424 268.391 107.001 268.391 106.483C268.391 105.965 268.813 105.542 269.331 105.542H297.978C298.496 105.542 298.919 105.965 298.919 106.483C298.919 107.001 298.496 107.424 297.978 107.424Z" fill="#FFDECA"/>
<path d="M297.978 113.42H269.331C268.813 113.42 268.391 112.998 268.391 112.48C268.391 111.962 268.813 111.539 269.331 111.539H297.978C298.496 111.539 298.919 111.962 298.919 112.48C298.919 112.998 298.496 113.42 297.978 113.42Z" fill="#FFDECA"/>
<path d="M297.978 119.409H269.331C268.813 119.409 268.391 118.986 268.391 118.468C268.391 117.951 268.813 117.528 269.331 117.528H297.978C298.496 117.528 298.919 117.951 298.919 118.468C298.919 118.986 298.496 119.409 297.978 119.409Z" fill="#FFDECA"/>
<path d="M297.978 125.406H269.331C268.813 125.406 268.391 124.983 268.391 124.465C268.391 123.947 268.813 123.525 269.331 123.525H297.978C298.496 123.525 298.919 123.947 298.919 124.465C298.919 124.983 298.496 125.406 297.978 125.406Z" fill="#FFDECA"/>
<path d="M304.416 51.38V57.2648H261.41V51.38C261.41 50.2065 262.359 49.2573 263.533 49.2573H302.293C303.466 49.2573 304.416 50.2065 304.416 51.38Z" fill="#E527BB"/>
<path d="M293.999 52.8727C293.999 53.6407 293.369 54.2706 292.601 54.2706C291.833 54.2706 291.203 53.6407 291.203 52.8727C291.203 52.1047 291.833 51.4749 292.601 51.4749C293.378 51.4749 293.999 52.1047 293.999 52.8727Z" fill="white"/>
<path d="M298.53 52.8727C298.53 53.6407 297.9 54.2706 297.132 54.2706C296.364 54.2706 295.734 53.6407 295.734 52.8727C295.734 52.1047 296.364 51.4749 297.132 51.4749C297.909 51.4749 298.53 52.1047 298.53 52.8727Z" fill="white"/>
<path d="M302.87 52.8727C302.87 53.6407 302.24 54.2706 301.472 54.2706C300.704 54.2706 300.074 53.6407 300.074 52.8727C300.074 52.1047 300.704 51.4749 301.472 51.4749C302.249 51.4749 302.87 52.1047 302.87 52.8727Z" fill="white"/>
<path d="M274.766 90.0366H269.926V101.729H274.766V90.0366Z" fill="#A78BEF"/>
<path d="M281.903 81.7444H277.062V101.737H281.903V81.7444Z" fill="#A78BEF"/>
<path d="M289.798 75.6182H284.957V101.729H289.798V75.6182Z" fill="#E527BB"/>
<path d="M297.536 68.4304H292.695V101.729H297.536V68.4304Z" fill="#E527BB"/>
<path d="M288.617 63.3049L291.974 64.5389L291.585 60.6128L288.617 63.3049Z" fill="#E527BB"/>
<path d="M268.597 84.3677C268.451 84.3677 268.313 84.2814 268.261 84.1348C268.192 83.9449 268.287 83.7378 268.476 83.6688C268.623 83.617 283.18 78.0343 290.281 63.0462C290.368 62.865 290.583 62.7873 290.764 62.8736C290.946 62.9599 291.023 63.1756 290.937 63.3568C283.698 78.6124 268.873 84.2901 268.718 84.3418C268.684 84.3591 268.64 84.3677 268.597 84.3677Z" fill="#E527BB"/>
</g>
<path d="M360.436 70.5479C367.229 63.7546 367.229 52.7405 360.436 45.9472C353.643 39.1539 342.629 39.1539 335.835 45.9472C329.042 52.7405 329.042 63.7546 335.835 70.5479C342.629 77.3412 353.643 77.3412 360.436 70.5479Z" fill="#FFCDB2"/>
<path d="M357.368 70.7206C365.511 65.6221 367.979 54.8876 362.881 46.7445C357.782 38.6014 347.048 36.1333 338.905 41.2318C330.761 46.3304 328.293 57.0649 333.392 65.208C338.49 73.3511 349.225 75.8192 357.368 70.7206Z" fill="#E527BB"/>
<path d="M350.386 69.9436C358.097 68.7017 363.342 61.4436 362.1 53.7321C360.858 46.0207 353.6 40.7761 345.889 42.018C338.177 43.2598 332.933 50.518 334.174 58.2294C335.416 65.9409 342.674 71.1855 350.386 69.9436Z" fill="white"/>
<path d="M362.277 55.9767C362.277 56.3563 362.26 56.7274 362.234 57.0984C361.664 49.8158 355.555 44.0691 348.135 44.0691C340.714 44.0691 334.605 49.8158 334.035 57.0984C334.009 56.7274 333.992 56.3563 333.992 55.9767C333.992 48.1763 340.334 41.8342 348.135 41.8342C355.935 41.8342 362.277 48.1763 362.277 55.9767Z" fill="#FFDECA"/>
<path d="M348.135 57.4523C348.023 57.4523 347.919 57.4005 347.85 57.3056L340.912 47.9607C340.792 47.8054 340.826 47.5811 340.982 47.4689C341.137 47.3481 341.361 47.3826 341.473 47.5379L348.247 56.6498L355.944 53.276C356.125 53.1983 356.332 53.276 356.41 53.4572C356.487 53.6384 356.41 53.8455 356.228 53.9232L348.273 57.4091C348.23 57.4437 348.186 57.4523 348.135 57.4523Z" fill="#862B00"/>
<g clip-path="url(#clip4_1514_6479)">
<path d="M246.982 45.1069H186.34V88.9666C186.34 90.3386 187.453 91.4603 188.834 91.4603H244.497C245.869 91.4603 246.991 90.3472 246.991 88.9666V45.1069H246.982Z" fill="white"/>
<path d="M246.981 44.0283V49.2487H186.391V44.0283C186.391 42.6304 187.53 41.4915 188.927 41.4915H244.436C245.842 41.4915 246.981 42.6304 246.981 44.0283Z" fill="#E527BB"/>
<path d="M236.534 44.9946C236.534 45.7453 235.93 46.3493 235.179 46.3493C234.428 46.3493 233.824 45.7453 233.824 44.9946C233.824 44.2439 234.428 43.6399 235.179 43.6399C235.93 43.6399 236.534 44.2439 236.534 44.9946Z" fill="white"/>
<path d="M240.924 44.9946C240.924 45.7453 240.32 46.3493 239.57 46.3493C238.819 46.3493 238.215 45.7453 238.215 44.9946C238.215 44.2439 238.819 43.6399 239.57 43.6399C240.312 43.6399 240.924 44.2439 240.924 44.9946Z" fill="white"/>
<path d="M245.127 44.9946C245.127 45.7453 244.523 46.3493 243.773 46.3493C243.022 46.3493 242.418 45.7453 242.418 44.9946C242.418 44.2439 243.022 43.6399 243.773 43.6399C244.523 43.6399 245.127 44.2439 245.127 44.9946Z" fill="white"/>
<path d="M228.257 54.9004H224.961V58.1966H228.257V54.9004Z" fill="#E527BB"/>
<path d="M228.257 60.7766H224.961V64.0728H228.257V60.7766Z" fill="#8165E5"/>
<path d="M242.4 61.4927H231.467C230.907 61.4927 230.449 61.9069 230.449 62.4246C230.449 62.9337 230.907 63.3565 231.467 63.3565H242.4C242.961 63.3565 243.418 62.9423 243.418 62.4246C243.418 61.9069 242.961 61.4927 242.4 61.4927Z" fill="#FFDECA"/>
<path d="M242.4 55.6252H231.467C230.907 55.6252 230.449 56.0394 230.449 56.5571C230.449 57.0662 230.907 57.489 231.467 57.489H242.4C242.961 57.489 243.418 57.0749 243.418 56.5571C243.418 56.0394 242.961 55.6252 242.4 55.6252Z" fill="#FFDECA"/>
<path d="M225.012 80.6314C225.012 81.1405 225.426 81.5633 225.944 81.5633H242.399C242.908 81.5633 243.33 81.1491 243.33 80.6314C243.33 80.1223 242.916 79.6995 242.399 79.6995H225.944C225.426 79.6995 225.012 80.1136 225.012 80.6314Z" fill="#FFDECA"/>
<path d="M224.996 76.9036C224.996 77.4127 225.41 77.8355 225.928 77.8355H242.383C242.892 77.8355 243.315 77.4213 243.315 76.9036C243.315 76.3945 242.901 75.9717 242.383 75.9717H225.928C225.41 75.9717 224.996 76.3859 224.996 76.9036Z" fill="#FFDECA"/>
<path d="M224.977 73.176C224.977 73.6851 225.391 74.1079 225.908 74.1079H242.363C242.872 74.1079 243.295 73.6938 243.295 73.176C243.295 72.6669 242.881 72.2441 242.363 72.2441H225.908C225.391 72.2441 224.977 72.6583 224.977 73.176Z" fill="#FFDECA"/>
<path d="M224.961 69.4485C224.961 69.9576 225.375 70.3804 225.893 70.3804H242.348C242.857 70.3804 243.28 69.9662 243.28 69.4485C243.28 68.9394 242.866 68.5166 242.348 68.5166H225.893C225.375 68.5166 224.961 68.9308 224.961 69.4485Z" fill="#FFDECA"/>
<path d="M218.024 69.2932C218.024 76.0667 212.528 81.5632 205.754 81.5632C198.981 81.5632 193.484 76.0754 193.484 69.2932C193.484 67.6106 193.821 66.0143 194.434 64.5561L205.754 69.2932L205.176 57.0405C205.366 57.0232 205.565 57.0232 205.754 57.0232C212.528 57.0232 218.024 62.5111 218.024 69.2932Z" fill="#E527BB"/>
<path d="M204.062 55.0989C200.395 55.2715 197.151 57.049 195.019 59.7411C194.329 60.6126 193.76 61.5704 193.328 62.6058L204.649 67.343L204.062 55.0989Z" fill="#A78BEF"/>
</g>
</g>
<defs>
<clipPath id="clip0_1514_6479">
<rect width="542.64" height="328.79" fill="white"/>
</clipPath>
<clipPath id="clip1_1514_6479">
<rect width="229.014" height="223.656" fill="white" transform="translate(157 105.344)"/>
</clipPath>
<clipPath id="clip2_1514_6479">
<rect width="25.7912" height="20.5449" fill="white" transform="translate(263.996 138.996)"/>
</clipPath>
<clipPath id="clip3_1514_6479">
<rect width="87.288" height="83.0081" fill="white" transform="translate(261.41 49.2573)"/>
</clipPath>
<clipPath id="clip4_1514_6479">
<rect width="60.6425" height="49.9602" fill="white" transform="translate(186.34 41.4915)"/>
</clipPath>
</defs>
</svg>
