<svg width="55" height="56" viewBox="0 0 55 56" fill="none" xmlns="http://www.w3.org/2000/svg">
<path d="M50.3967 27.7149C50.7679 27.1962 51.1227 26.6831 51.4503 26.1646C54.6765 21.0605 55.3369 16.3222 53.3172 12.8175C52.493 11.3873 51.2537 10.2519 49.6761 9.41113C49.7034 9.22559 49.7251 9.03993 49.7251 8.84347C49.7251 6.88912 48.1312 5.29517 46.1768 5.29517C44.5938 5.29517 43.2509 6.33783 42.7924 7.76807C41.5805 7.71895 40.7234 7.74624 39.5552 7.84447C36.8748 2.99156 33.2338 0 29.216 0C25.0236 0 21.2351 3.25896 18.5275 8.48864C11.8677 7.8007 6.43606 9.40557 4.14325 13.3796C3.52647 14.4496 3.1771 15.6341 3.06785 16.9007C1.33746 17.1354 0 18.6202 0 20.4162C0 22.3706 1.5885 23.9645 3.5483 23.9645C3.88119 23.9645 4.20339 23.9154 4.50911 23.8281C5.09314 25.1219 5.83554 26.432 6.74178 27.7421C3.85948 32.5024 3.08433 37.1698 5.0986 40.6579C7.04749 44.0369 11.2617 45.7019 16.5732 45.7019C16.9772 45.7019 17.3811 45.691 17.796 45.6747C20.5255 51.7832 24.6305 55.6809 29.216 55.6809C32.8845 55.6809 36.2472 53.1752 38.8401 49.0428C39.2495 49.2065 39.6972 49.2994 40.1665 49.2994C41.9954 49.2994 43.5075 47.9073 43.6985 46.1223C47.7817 45.6146 50.8005 43.9333 52.3672 41.2201C54.3869 37.7155 53.7265 32.9772 50.5003 27.873C50.4678 27.8185 50.4295 27.7694 50.3967 27.7149ZM42.6232 8.85428C42.6286 10.8085 44.2227 12.3971 46.177 12.3971C47.5472 12.3971 48.7427 11.6111 49.3322 10.4646C50.6479 11.1961 51.6796 12.1678 52.3729 13.3633C54.1798 16.4967 53.5247 20.8365 50.5278 25.5803C50.2821 25.9679 50.0201 26.3555 49.7472 26.743C48.0876 24.3739 45.9642 22.0647 43.4859 19.9194C42.8253 15.7542 41.6572 11.9985 40.1123 8.89782C40.8 8.84882 41.3786 8.81062 42.6232 8.85428ZM43.7204 21.5899C45.8276 23.5278 47.6346 25.5749 49.0647 27.6765C47.6017 29.5926 45.833 31.4542 43.8133 33.2119C44.2118 29.4563 44.2173 25.6404 43.7204 21.5899ZM42.6123 34.2273C38.4525 37.6009 33.3212 40.5542 27.9878 42.4594C23.8446 40.8216 19.734 38.5235 16.0273 35.7012C15.1812 30.3515 15.203 24.4558 16.2129 18.926C19.8649 16.0327 23.9482 13.6581 28.0369 11.9441C33.0591 13.8711 38.1797 16.8353 42.4758 20.4927C43.1364 24.9526 43.191 29.6418 42.6123 34.2273ZM42.2083 18.8496C38.458 15.8307 34.0472 13.2159 29.4999 11.3599C32.748 10.1208 35.9687 9.31825 38.993 8.99627C40.4123 11.7584 41.515 15.1156 42.2083 18.8496ZM29.2161 1.09167C32.7535 1.09167 35.9852 3.69554 38.4308 7.95896C35.0955 8.3629 31.5526 9.32371 27.9989 10.7758C25.1166 9.71128 22.2888 8.99071 19.6358 8.62496C22.1195 3.96851 25.4987 1.09167 29.2161 1.09167ZM19.128 9.61851C21.4753 9.92422 23.9701 10.5193 26.5412 11.4036C23.0421 12.9702 19.6521 14.9519 16.535 17.3047C17.1683 14.4552 18.0527 11.8566 19.128 9.61851ZM5.45343 23.4078C6.44141 22.7745 7.09661 21.6718 7.09661 20.4163C7.09661 18.664 5.82463 17.2065 4.15417 16.9226C4.26342 15.8472 4.56357 14.8373 5.09303 13.9257C7.14015 10.3774 11.9932 8.93079 18.0308 9.4931C16.8244 12.0697 15.8636 15.0558 15.2249 18.3311C11.9441 20.9896 9.26925 23.8883 7.3531 26.7761C6.58886 25.6459 5.9556 24.5159 5.45343 23.4078ZM14.7882 34.7295C12.0424 32.4914 9.74959 30.0949 7.99727 27.6929C9.68411 25.0836 12.0424 22.4414 14.9355 19.974C14.1768 24.7942 14.1331 29.8984 14.7882 34.7295ZM6.04303 40.1121C4.26888 37.0387 4.91305 32.9227 7.40232 28.6593C9.37293 31.2959 11.9496 33.9108 15.0338 36.3073C15.5525 39.348 16.344 42.1593 17.3539 44.643C12.0805 44.8231 7.9045 43.3328 6.04303 40.1121ZM16.3057 37.2624C19.4392 39.5442 22.8564 41.4767 26.4101 42.9888C23.6261 43.8677 20.9458 44.3972 18.4673 44.5828C17.5613 42.3993 16.8244 39.9319 16.3057 37.2624ZM29.2161 54.5891C25.122 54.5891 21.4426 51.1117 18.9097 45.5983C21.7374 45.358 24.7999 44.692 27.9443 43.6166C30.8921 44.7521 33.8291 45.549 36.6294 45.964C36.6895 46.9958 37.1917 47.9129 37.9559 48.5242C35.5758 52.3127 32.5297 54.5891 29.2161 54.5891ZM40.1667 42.2028C38.5127 42.2028 37.1261 43.3382 36.7331 44.8722C34.4021 44.5229 31.9783 43.906 29.5272 43.038C34.1673 41.253 38.5836 38.731 42.3884 35.7941C42.0172 38.1032 41.4823 40.2705 40.8218 42.2629C40.6089 42.2247 40.3905 42.2028 40.1667 42.2028ZM51.423 40.6743C50.0419 43.0599 47.3343 44.5556 43.644 45.0305C43.4256 43.9824 42.7432 43.0981 41.8206 42.6122C42.6231 40.2266 43.2345 37.6009 43.6221 34.8059C45.964 32.868 48.0166 30.7936 49.6924 28.6483C52.5857 33.3157 53.2081 37.579 51.423 40.6743Z" fill="#DAA7EE"/>
<path d="M37.4757 30.7172C37.4757 34.9042 34.0693 38.3105 29.8824 38.3105H28.5504C24.3633 38.3105 20.957 34.9097 20.957 30.7227C20.957 28.8776 22.4582 27.3818 24.298 27.3818H26.9564C27.1311 27.3818 27.295 27.4637 27.3987 27.6057L29.2165 30.1004L31.0343 27.6057C31.1381 27.4638 31.3018 27.3818 31.4765 27.3818H34.135C35.98 27.3818 37.4757 28.8776 37.4757 30.7172Z" fill="#DAA7EE"/>
<path d="M29.2165 17.3701C26.6672 17.3701 24.5928 19.4445 24.5928 21.9938C24.5928 24.5431 26.6671 26.623 29.2165 26.623C31.7658 26.623 33.8402 24.5431 33.8402 21.9938C33.8402 19.4444 31.7658 17.3701 29.2165 17.3701ZM29.2165 25.5312C27.2677 25.5312 25.6846 23.9426 25.6846 21.9938C25.6846 20.0449 27.2677 18.4619 29.2165 18.4619C31.1653 18.4619 32.7484 20.045 32.7484 21.9938C32.7484 23.9426 31.1653 25.5312 29.2165 25.5312Z" fill="#DAA7EE"/>
</svg>
