<svg width="28" height="36" viewBox="0 0 28 36" fill="none" xmlns="http://www.w3.org/2000/svg">
<path d="M24.288 31.856C24.2997 31.8469 24.3142 31.842 24.3291 31.842C24.3439 31.842 24.3584 31.8469 24.3701 31.856L26.9103 34.3289C26.9103 34.3289 27 34.3289 27 34.2766V1H1.00029V34.2169C0.99913 34.2286 1.00147 34.2404 1.00701 34.2508C1.01255 34.2612 1.02105 34.2698 1.03143 34.2754C1.04182 34.281 1.05362 34.2834 1.06536 34.2823C1.0771 34.2811 1.08825 34.2766 1.09741 34.2692L4.36979 31.8111C4.38039 31.8027 4.39357 31.798 4.40715 31.798C4.42073 31.798 4.4339 31.8027 4.4445 31.8111L7.82895 34.2991C7.84005 34.3096 7.85475 34.3154 7.87004 34.3154C7.88533 34.3154 7.90003 34.3096 7.91113 34.2991L10.8996 31.8111C10.8996 31.8111 10.9519 31.8111 10.9818 31.8111L14.3588 34.2916C14.3699 34.3021 14.3846 34.3079 14.3999 34.3079C14.4151 34.3079 14.4298 34.3021 14.4409 34.2916L17.5788 31.856C17.5912 31.8449 17.6071 31.8389 17.6237 31.8389C17.6402 31.8389 17.6562 31.8449 17.6685 31.856L21.038 34.3289C21.0503 34.34 21.0663 34.3461 21.0828 34.3461C21.0994 34.3461 21.1153 34.34 21.1277 34.3289L24.1161 31.8634" stroke="#DAA7EE" stroke-width="1.6" stroke-linecap="round"/>
<path d="M4.07812 16.9958H14.0148" stroke="#DAA7EE" stroke-width="1.6" stroke-linecap="round"/>
<path d="M4.07812 13.0061H16.0096" stroke="#DAA7EE" stroke-width="1.6" stroke-linecap="round"/>
<path d="M4.07812 4.95984H17.0257" stroke="#DAA7EE" stroke-width="1.6" stroke-linecap="round"/>
<path d="M4.07812 8.77759H14.859" stroke="#DAA7EE" stroke-width="1.6" stroke-linecap="round"/>
<path d="M20.7314 16.8762H23.9216" stroke="#DAA7EE" stroke-width="1.6" stroke-linecap="round"/>
<path d="M4.07812 21.2544H16.0096" stroke="#DAA7EE" stroke-width="1.6" stroke-linecap="round"/>
<path d="M21.3662 21.1423H23.9214" stroke="#DAA7EE" stroke-width="1.6" stroke-linecap="round"/>
<path d="M20.7314 25.5503H23.9216" stroke="#DAA7EE" stroke-width="1.6" stroke-linecap="round"/>
<path d="M20.7314 12.8866H23.9216" stroke="#DAA7EE" stroke-width="1.6" stroke-linecap="round"/>
<path d="M21.3662 8.77759H23.9214" stroke="#DAA7EE" stroke-width="1.6" stroke-linecap="round"/>
<path d="M20.7314 4.95984H23.9216" stroke="#DAA7EE" stroke-width="1.6" stroke-linecap="round"/>
</svg>
