<svg width="20" height="21" viewBox="0 0 20 21" fill="none" xmlns="http://www.w3.org/2000/svg">
<path d="M18.6987 1.28899C17.8745 0.468797 16.7607 0.00578823 15.598 0H4.41753C1.60985 0 9.65201e-06 1.61077 9.65201e-06 4.41752V18.3676C-0.00103349 18.6702 0.0824955 18.9672 0.24118 19.225C0.399865 19.4827 0.627395 19.691 0.898121 19.8264C1.16885 19.9617 1.472 20.0188 1.77341 19.9911C2.07482 19.9634 2.3625 19.852 2.60402 19.6696L4.19433 18.4792C4.24026 18.4446 4.29717 18.428 4.35447 18.4322C4.41178 18.4365 4.46558 18.4615 4.50588 18.5024L6.05154 20.0565C6.20268 20.2094 6.38271 20.3307 6.58117 20.4134C6.77962 20.4961 6.99254 20.5385 7.20754 20.5382C7.42175 20.5388 7.63395 20.497 7.83189 20.4151C8.02983 20.3332 8.20958 20.2129 8.36074 20.0611L9.92315 18.4987C9.9622 18.4599 10.014 18.4367 10.0689 18.4333C10.1238 18.4298 10.1781 18.4465 10.2217 18.4801L11.8111 19.6696C12.0529 19.8509 12.3404 19.9614 12.6414 19.9885C12.9424 20.0156 13.2451 19.9584 13.5154 19.8233C13.7857 19.6881 14.0131 19.4803 14.172 19.2232C14.3309 18.9661 14.4151 18.6698 14.4151 18.3676V9.76504H16.9028C17.3152 9.78895 17.7279 9.72535 18.1139 9.57841C18.4999 9.43147 18.8505 9.20452 19.1425 8.91246C19.4346 8.6204 19.6615 8.26986 19.8085 7.88385C19.9554 7.49784 20.019 7.08511 19.9951 6.67278V4.41752C19.9946 3.24408 19.5283 2.11884 18.6987 1.28899ZM13.2628 1.49545C13.2187 1.59298 13.1811 1.69333 13.1503 1.79584C13.1279 1.86652 13.1019 1.93441 13.0861 2.00788C13.0483 2.17617 13.0278 2.34786 13.0247 2.52031C13.0247 2.53333 13.0201 2.54542 13.0201 2.55751V18.3676C13.0209 18.411 13.0093 18.4537 12.9865 18.4906C12.9638 18.5275 12.9309 18.5572 12.8917 18.5759C12.853 18.5958 12.8095 18.6043 12.7662 18.6003C12.7229 18.5964 12.6816 18.5802 12.6471 18.5536L11.0661 17.3687C10.7543 17.1313 10.3669 17.0149 9.97579 17.0413C9.58469 17.0676 9.21641 17.2348 8.9392 17.512L7.3768 19.0744C7.35479 19.0963 7.32867 19.1136 7.29995 19.1255C7.27123 19.1373 7.24045 19.1433 7.2094 19.1432H7.20754C7.17648 19.1433 7.14571 19.1373 7.11698 19.1255C7.08826 19.1136 7.06215 19.0963 7.04014 19.0744L5.49447 17.5231C5.21593 17.2449 4.84666 17.076 4.45401 17.0474C4.06136 17.0187 3.67148 17.1321 3.35546 17.3669L1.76423 18.5564C1.73098 18.5838 1.69035 18.6007 1.64746 18.605C1.60458 18.6093 1.56139 18.6008 1.52336 18.5805C1.48363 18.5613 1.45036 18.5309 1.42757 18.4931C1.40479 18.4553 1.39348 18.4117 1.39502 18.3676V4.41752C1.39502 2.3557 2.35571 1.39501 4.41753 1.39501H13.3C13.2842 1.42663 13.2777 1.4629 13.2628 1.49545ZM18.6001 6.67278C18.624 6.90155 18.5966 7.13278 18.5198 7.3496C18.443 7.56642 18.3187 7.76334 18.156 7.92599C17.9934 8.08865 17.7965 8.21292 17.5797 8.28974C17.3628 8.36656 17.1316 8.394 16.9028 8.37003H14.4151V2.56588C14.4165 2.25564 14.5405 1.95853 14.76 1.73924C14.9794 1.51995 15.2766 1.39623 15.5869 1.39501C16.3864 1.39747 17.1524 1.71715 17.7165 2.28384C18.2805 2.85054 18.5967 3.61793 18.5954 4.41752L18.6001 6.67278ZM6.51003 10.935C6.51003 10.75 6.58352 10.5726 6.71433 10.4418C6.84514 10.311 7.02255 10.2375 7.20754 10.2375H9.99755C10.1825 10.2375 10.3599 10.311 10.4908 10.4418C10.6216 10.5726 10.6951 10.75 10.6951 10.935C10.6951 11.12 10.6216 11.2974 10.4908 11.4282C10.3599 11.559 10.1825 11.6325 9.99755 11.6325H7.20754C7.02255 11.6325 6.84514 11.559 6.71433 11.4282C6.58352 11.2974 6.51003 11.12 6.51003 10.935ZM6.51003 7.21497C6.51003 7.02998 6.58352 6.85257 6.71433 6.72176C6.84514 6.59095 7.02255 6.51747 7.20754 6.51747H9.99755C10.1825 6.51747 10.3599 6.59095 10.4908 6.72176C10.6216 6.85257 10.6951 7.02998 10.6951 7.21497C10.6951 7.39996 10.6216 7.57737 10.4908 7.70818C10.3599 7.83898 10.1825 7.91247 9.99755 7.91247H7.20754C7.02255 7.91247 6.84514 7.83898 6.71433 7.70818C6.58352 7.57737 6.51003 7.39996 6.51003 7.21497ZM4.3887 6.28496C4.57263 6.28496 4.75244 6.33951 4.90538 6.4417C5.05832 6.54389 5.17752 6.68913 5.24791 6.85907C5.3183 7.02901 5.33671 7.216 5.30083 7.3964C5.26495 7.5768 5.17637 7.74252 5.04631 7.87258C4.91625 8.00264 4.75053 8.09122 4.57013 8.1271C4.38973 8.16299 4.20274 8.14457 4.0328 8.07418C3.86286 8.00379 3.71762 7.88459 3.61543 7.73165C3.51324 7.57871 3.45869 7.3989 3.45869 7.21497C3.45869 6.96831 3.55668 6.73177 3.73108 6.55736C3.90549 6.38295 4.14204 6.28496 4.3887 6.28496ZM5.3187 10.935C5.3187 11.1189 5.26416 11.2987 5.16197 11.4517C5.05978 11.6046 4.91453 11.7238 4.74459 11.7942C4.57466 11.8646 4.38766 11.883 4.20726 11.8471C4.02686 11.8112 3.86115 11.7227 3.73108 11.5926C3.60102 11.4625 3.51245 11.2968 3.47656 11.1164C3.44068 10.936 3.4591 10.749 3.52949 10.5791C3.59987 10.4091 3.71908 10.2639 3.87201 10.1617C4.02495 10.0595 4.20476 10.005 4.3887 10.005C4.63535 10.005 4.8719 10.103 5.04631 10.2774C5.22072 10.4518 5.3187 10.6883 5.3187 10.935Z" fill="url(#paint0_linear_438_5377)"/>
<defs>
<linearGradient id="paint0_linear_438_5377" x1="10" y1="0" x2="10" y2="20.5382" gradientUnits="userSpaceOnUse">
<stop stop-color="#E527BB"/>
<stop offset="1" stop-color="#A78BEF"/>
</linearGradient>
</defs>
</svg>
