<svg width="543" height="329" viewBox="0 0 543 329" fill="none" xmlns="http://www.w3.org/2000/svg">
<g clip-path="url(#clip0_2023_7133)">
<path opacity="0.2" d="M128.578 325.793L413.421 309.284C488.741 304.922 547.021 241.664 543.879 166.964C541.237 104.191 518.542 37.3242 442.21 8.74895C388.524 -11.3489 318.807 5.10021 274.587 38.5239C263.96 46.5551 254.193 55.7662 242.775 62.6373C216.167 78.6501 192.802 67.5948 165.083 63.3413C106.483 54.3285 47.9939 72.8399 17.7134 126.352C-28.778 208.567 26.059 331.732 128.578 325.793Z" fill="#999999"/>
<path d="M342.877 275.719C342.877 275.719 336.798 314.266 338.012 319.044L400.082 318.545C406.255 312.725 404.172 273.669 400.951 268.529C397.723 263.389 342.877 275.719 342.877 275.719Z" fill="black"/>
<path d="M400.943 268.529C397.714 263.389 342.868 275.719 342.868 275.719C342.868 275.719 342.36 278.921 341.68 283.571C343.608 284.664 345.701 285.543 348.043 286.111C353.863 287.833 360.691 287.256 364.617 292.396C370.377 298.854 370.833 308.54 369.275 318.95C383.559 317.951 400.073 318.554 400.073 318.554C406.255 312.725 404.171 273.669 400.943 268.529Z" fill="black"/>
<path d="M423.984 317.873H118V319.337H423.984V317.873Z" fill="#0B203D"/>
<path d="M120.086 305.888V52.6751C120.086 47.9224 123.461 43.8412 128.136 42.9458L230.269 23.4957C233.162 22.9446 247.773 30.3751 250.046 32.2521C252.319 34.1291 253.636 36.9274 253.636 39.8806L242.03 291.811C242.03 296.615 238.577 300.722 233.851 301.566L141.723 324.718C134.103 325.984 120.086 319.811 120.086 305.888Z" fill="#A78BEF"/>
<path d="M141.734 324.71C139.444 324.71 137.214 323.909 135.432 322.411C133.227 320.551 131.953 317.813 131.953 314.929V59.1499C131.953 54.4402 135.311 50.3935 139.943 49.5325L242.084 30.5645C244.943 30.0307 247.887 30.8056 250.126 32.6567C252.356 34.5165 253.656 37.2717 253.656 40.1733V291.415C253.656 296.176 250.229 300.249 245.537 301.049L143.396 324.572C142.845 324.667 142.285 324.71 141.734 324.71Z" fill="#8367E8"/>
<path d="M141.732 319.044C140.768 319.044 139.829 318.709 139.089 318.08C138.159 317.296 137.625 316.151 137.625 314.937V59.1499C137.625 57.1696 139.037 55.4734 140.983 55.1118L243.124 36.1438C244.321 35.9199 245.561 36.2471 246.499 37.022C247.438 37.8055 247.98 38.9593 247.98 40.1819V291.423C247.98 293.429 246.542 295.134 244.57 295.47L142.429 318.984C142.197 319.018 141.964 319.044 141.732 319.044Z" fill="#D7F9FF"/>
<path d="M209.553 152.767C222.279 134.066 234.867 114.96 247.98 96.242V57.6345C233.05 76.9296 218.938 96.7242 204.189 116.2C182.897 144.381 160.588 171.632 137.625 198.314V255.063C140.337 251.705 143.032 248.321 145.693 244.903C168.604 215.655 188.588 183.479 209.553 152.767Z" fill="#EEFEFF"/>
<path opacity="0.7" d="M166.953 218.97L271.04 200.218V260.169L166.953 281.385V218.97Z" fill="white"/>
<path d="M253.844 257.336C253.827 259.558 252.011 262.502 249.789 262.924L194.082 273.067C192.162 273.033 187.444 270.759 187.461 268.538L187.84 212.762C187.857 210.541 189.674 208.405 191.895 207.984L250.237 197.049C251.597 196.79 256.04 196.722 256.763 197.617C257.22 198.185 254.241 199.451 254.232 200.312L253.844 257.336Z" fill="#C2E3EC"/>
<path d="M257.948 257.371C257.93 259.592 256.114 261.727 253.892 262.149L195.551 273.084C193.329 273.497 191.538 272.042 191.547 269.821L191.934 212.805C191.952 210.584 193.76 208.448 195.99 208.027L254.331 197.092C256.553 196.679 258.344 198.142 258.335 200.355L257.948 257.371Z" fill="#DAA7EE"/>
<path d="M205.997 234.434C205.988 235.174 205.385 235.889 204.645 236.026L199.272 237.034C198.532 237.172 197.938 236.689 197.938 235.949L197.972 231.48C197.981 230.74 198.583 230.025 199.324 229.887L204.696 228.88C205.437 228.742 206.031 229.233 206.031 229.974L205.997 234.434Z" fill="white"/>
<path d="M205.918 247.478C205.91 248.218 205.307 248.933 204.567 249.071L199.194 250.078C198.453 250.216 197.859 249.734 197.859 248.993L197.894 244.525C197.902 243.784 198.505 243.07 199.246 242.932L204.618 241.924C205.359 241.787 205.953 242.269 205.953 243.009L205.918 247.478Z" fill="white"/>
<path d="M205.816 260.531C205.808 261.271 205.205 261.986 204.464 262.124L199.1 263.131C198.36 263.269 197.757 262.778 197.766 262.046L197.8 257.578C197.809 256.837 198.411 256.122 199.152 255.985L204.525 254.977C205.265 254.84 205.859 255.322 205.859 256.062L205.816 260.531Z" fill="white"/>
<path d="M220.856 231.653C220.847 232.393 220.245 233.108 219.504 233.245L214.131 234.253C213.391 234.391 212.797 233.9 212.797 233.168L212.831 228.699C212.84 227.959 213.443 227.244 214.183 227.106L219.556 226.099C220.296 225.961 220.89 226.452 220.89 227.184L220.856 231.653Z" fill="white"/>
<path d="M220.762 244.697C220.754 245.437 220.151 246.152 219.41 246.29L214.038 247.297C213.297 247.435 212.703 246.953 212.703 246.212L212.738 241.744C212.746 241.003 213.349 240.289 214.089 240.151L219.462 239.143C220.202 239.006 220.797 239.488 220.797 240.228L220.762 244.697Z" fill="white"/>
<path d="M220.684 257.741C220.675 258.482 220.073 259.196 219.332 259.334L213.96 260.341C213.219 260.479 212.625 259.988 212.625 259.248L212.659 254.779C212.668 254.039 213.271 253.324 214.011 253.186L219.384 252.179C220.124 252.041 220.718 252.523 220.718 253.264L220.684 257.741Z" fill="white"/>
<path d="M235.707 228.863C235.699 229.603 235.096 230.318 234.356 230.456L228.983 231.463C228.243 231.601 227.648 231.119 227.648 230.378L227.674 225.91C227.683 225.169 228.286 224.454 229.026 224.317L234.399 223.309C235.139 223.172 235.733 223.662 235.733 224.394L235.707 228.863Z" fill="white"/>
<path d="M235.622 241.916C235.613 242.656 235.01 243.371 234.27 243.508L228.897 244.516C228.157 244.654 227.562 244.171 227.562 243.431L227.597 238.962C227.606 238.222 228.208 237.507 228.949 237.369L234.321 236.362C235.062 236.224 235.656 236.706 235.656 237.447L235.622 241.916Z" fill="#E527BB"/>
<path d="M235.528 254.96C235.519 255.701 234.916 256.415 234.176 256.553L228.803 257.56C228.063 257.698 227.469 257.207 227.469 256.467L227.503 251.998C227.512 251.258 228.114 250.543 228.855 250.405L234.228 249.398C234.968 249.26 235.562 249.742 235.562 250.483L235.528 254.96Z" fill="white"/>
<path d="M250.567 226.082C250.558 226.822 249.956 227.537 249.215 227.675L243.842 228.682C243.102 228.82 242.508 228.329 242.508 227.597L242.542 223.129C242.551 222.388 243.154 221.674 243.894 221.536L249.267 220.529C250.007 220.391 250.601 220.882 250.601 221.613L250.567 226.082Z" fill="white"/>
<path d="M250.481 239.135C250.472 239.875 249.87 240.59 249.129 240.727L243.756 241.735C243.016 241.873 242.422 241.382 242.422 240.641L242.448 236.173C242.456 235.432 243.059 234.718 243.799 234.58L249.172 233.572C249.913 233.435 250.507 233.926 250.507 234.666L250.481 239.135Z" fill="white"/>
<path d="M250.386 252.179C250.378 252.919 249.775 253.634 249.035 253.772L243.671 254.779C242.93 254.917 242.327 254.426 242.336 253.686L242.37 249.217C242.379 248.477 242.982 247.762 243.722 247.624L249.086 246.617C249.827 246.479 250.421 246.97 250.421 247.702L250.386 252.179Z" fill="white"/>
<path d="M258.329 200.346C258.346 198.125 256.555 196.661 254.325 197.083L195.984 208.018C193.762 208.431 191.945 210.575 191.928 212.797L191.859 223.249L258.26 210.808L258.329 200.346Z" fill="#E527BB"/>
<path opacity="0.7" d="M126.797 141.264V198.693L208.73 181.197V125.112L126.797 141.264Z" fill="white"/>
<path d="M205.193 155.333C204.392 173.112 188.989 189.661 170.787 192.304C152.586 194.948 138.474 182.678 139.275 164.907C140.075 147.136 155.479 130.587 173.68 127.944C191.891 125.292 205.994 137.562 205.193 155.333Z" fill="#CC19AA"/>
<path d="M205.825 153.654C205.825 170.771 191.954 187.336 174.846 190.66C157.738 193.983 143.867 182.808 143.867 165.699C143.867 148.591 157.738 132.025 174.846 128.693C191.954 125.37 205.825 136.546 205.825 153.654Z" fill="#E527BB"/>
<path d="M200.177 154.756C200.177 168.747 188.838 182.291 174.846 185.012C160.855 187.732 149.516 178.597 149.516 164.606C149.516 150.614 160.855 137.071 174.846 134.359C188.838 131.638 200.177 140.773 200.177 154.756Z" fill="#A78BEF"/>
<path d="M197.577 155.264C197.577 156.263 196.768 157.236 195.769 157.425C194.77 157.614 193.961 156.969 193.961 155.97C193.961 154.971 194.77 154.007 195.769 153.809C196.768 153.611 197.577 154.265 197.577 155.264Z" fill="white"/>
<path d="M155.741 163.392C155.741 164.391 154.932 165.355 153.933 165.553C152.934 165.751 152.125 165.097 152.125 164.098C152.125 163.099 152.934 162.126 153.933 161.937C154.932 161.739 155.741 162.393 155.741 163.392Z" fill="white"/>
<path d="M174.847 182.411C173.848 182.609 173.039 181.955 173.039 180.956C173.039 179.958 173.848 178.993 174.847 178.795C175.846 178.606 176.655 179.251 176.655 180.259C176.655 181.249 175.846 182.213 174.847 182.411Z" fill="white"/>
<path d="M174.847 140.575C173.848 140.773 173.039 140.119 173.039 139.12C173.039 138.121 173.848 137.148 174.847 136.959C175.846 136.761 176.655 137.415 176.655 138.414C176.655 139.413 175.846 140.377 174.847 140.575Z" fill="white"/>
<path d="M185.821 158.57L174.852 160.705C174.292 160.817 173.836 160.447 173.836 159.888V144.725C173.836 144.166 174.292 143.623 174.852 143.511C175.412 143.399 175.868 143.769 175.868 144.329V158.475L185.821 156.538C186.381 156.426 186.837 156.796 186.837 157.356C186.837 157.916 186.381 158.458 185.821 158.57Z" fill="white"/>
<path opacity="0.7" d="M258.094 41.3616L202.766 52.1327V93.151L258.094 81.4328V41.3616Z" fill="white"/>
<path d="M249.234 33.1045C249.234 42.5067 236.405 65.6247 229.595 74.5877H225.703C225.703 74.5877 202.172 55.2496 202.172 42.2484C202.172 25.3469 212.711 16.6679 225.703 14.1452C238.696 11.6224 249.234 20.1119 249.234 33.1045Z" fill="#CC19AA"/>
<path d="M253.133 33.1045C253.133 46.0971 229.602 74.5877 229.602 74.5877C229.602 74.5877 206.07 55.2496 206.07 42.2484C206.07 29.2558 216.609 16.6679 229.602 14.1452C242.603 11.6224 253.133 20.1119 253.133 33.1045Z" fill="#E527BB"/>
<path d="M241.694 35.3258C241.694 42.0072 236.279 48.4734 229.597 49.7735C222.916 51.0736 217.5 46.7083 217.5 40.0269C217.5 33.3455 222.916 26.8794 229.597 25.5793C236.279 24.2878 241.694 28.6444 241.694 35.3258Z" fill="#A78BEF"/>
<path d="M318.596 150.322C318.596 150.322 321.532 164.692 314.626 173.845C307.721 182.997 299.455 207.691 319.215 214.605C338.976 221.51 355.559 187.147 355.559 187.147C355.559 187.147 347.258 144.76 318.596 150.322Z" fill="#0B203D"/>
<path d="M355.553 187.147C355.553 187.147 347.262 144.76 318.599 150.322C318.599 150.322 319.934 156.874 318.677 163.952C321.105 172.295 321.415 181.008 319.004 189.722C317.101 196.282 315.405 203.265 314.983 210.257C314.948 211.075 314.957 211.858 314.991 212.616C316.231 213.382 317.635 214.054 319.219 214.605C338.97 221.51 355.553 187.147 355.553 187.147Z" fill="#071726"/>
<path d="M317.944 205.891C317.944 205.891 302.162 229.13 297.254 229.543C292.346 229.965 274.67 227.037 249.21 208.259C249.21 208.259 249.985 198.874 248.306 196.842C246.627 194.801 243.923 191.745 241.891 192.347C239.851 192.95 235.537 195.223 235.417 196.67C235.296 198.108 237.698 198.71 239.799 197.746C241.9 196.79 244.001 197.445 244.233 198.108C244.474 198.771 241.177 201.948 239.076 202.37C236.975 202.791 236.019 203.454 233.557 200.45C231.094 197.453 221.503 186.475 220.426 187.19C219.35 187.913 221.623 192.287 226.548 199.967C231.464 207.648 236.923 213.046 243.88 213.821C243.88 213.821 264.63 234.451 277.046 242.312C289.462 250.173 301.275 252.747 312.847 243.81C324.419 234.873 332.882 224.945 332.882 224.945L317.944 205.891Z" fill="#F2B99E"/>
<path d="M317.945 205.891C317.945 205.891 314.786 210.541 310.851 215.724C311.385 223.223 310.222 230.921 304.884 236.259C297.058 244.077 282.059 240.263 271.641 238.515C273.543 239.953 275.369 241.244 277.039 242.303C289.455 250.164 301.268 252.739 312.84 243.801C324.412 234.864 332.875 224.937 332.875 224.937L317.945 205.891Z" fill="#EF9A7F"/>
<path d="M230.07 196.369C228.512 194.612 226.729 192.64 225.111 190.979C225.05 191.392 224.99 191.805 224.938 192.219C224.723 193.674 224.551 195.12 224.422 196.567C225.068 197.617 225.765 198.736 226.549 199.95C227.969 202.172 229.442 204.195 230.983 205.986C230.483 203.093 230.182 200.174 230.096 197.212C230.079 196.928 230.07 196.653 230.07 196.369Z" fill="#EF9A7F"/>
<path d="M244.078 206.64C244.93 207.467 244.939 208.827 244.112 209.68C243.286 210.532 241.925 210.549 241.073 209.714L215.725 180.759C214.873 179.932 214.864 178.563 215.691 177.719C216.517 176.867 217.878 176.858 218.73 177.685L244.078 206.64Z" fill="white"/>
<path d="M218.344 179.57L241.419 205.917C242.056 206.537 242.994 206.632 243.735 206.218L218.74 177.685C218.524 177.478 218.275 177.323 218.008 177.22C217.586 177.977 217.698 178.942 218.344 179.57Z" fill="#C2E3EC"/>
<path d="M228.109 189.558C227.18 191.469 226.387 197.109 228.109 202.284C229.832 207.458 233.344 208.483 233.344 208.483C233.344 208.483 236.237 208.715 234.36 206.055C232.483 203.394 230.959 197.608 230.985 195.421C231.046 191.271 229.59 186.527 228.109 189.558Z" fill="#F2B99E"/>
<path d="M326.432 184.185C326.432 184.185 321.602 197.135 310.383 208.474C310.383 208.474 320.758 228.716 330.763 235.949C330.763 235.949 337.057 232.798 339.373 219.805C341.689 206.813 335.473 180.845 326.432 184.185Z" fill="#A78BEF"/>
<path d="M327.345 215.517C323.454 211.014 319.683 206.141 316.962 200.777C316.686 201.147 316.402 201.526 316.109 201.905C320.544 212.228 328.775 220.675 336.498 228.975C336.877 228.191 337.256 227.33 337.609 226.383C337.256 226.065 336.911 225.746 336.593 225.427C333.398 222.233 330.299 218.944 327.345 215.517Z" fill="white"/>
<path d="M339.83 212.177C339.391 211.892 338.978 211.6 338.599 211.298C335.448 208.801 332.563 205.951 329.825 203.024C327.346 200.364 324.022 196.782 322.111 192.968C321.861 193.398 321.603 193.837 321.336 194.285C322.894 197.617 325.408 200.751 327.311 203.257C329.834 206.58 332.684 209.619 335.775 212.418C336.903 213.442 338.289 214.794 339.796 215.974C339.856 214.751 339.865 213.485 339.83 212.177Z" fill="white"/>
<path d="M319.969 159.862C319.969 159.862 327.571 176.789 329.121 188.189C329.121 188.189 338.102 188.189 341.554 180.586L334.27 150.33L319.969 159.862Z" fill="#F2B99E"/>
<path d="M336.276 158.648L334.27 150.322L319.969 159.853C319.969 159.853 321.14 162.471 322.655 166.328C324.05 165.785 325.419 165.2 326.702 164.64C330.275 163.116 333.452 161.119 336.276 158.648Z" fill="#EF9A7F"/>
<path d="M300.652 119.963C297.259 122.692 291.982 154.162 306.713 162.445C314.084 166.595 336.28 165.769 337.365 140.111C338.321 117.191 309.288 114.582 300.652 119.963Z" fill="#F2B99E"/>
<path d="M303.16 138.035C306.897 140.756 311.314 142.108 315.722 143.356C320.82 144.717 325.908 146.077 331.117 146.749C332.856 146.947 334.613 147.11 336.369 147.265C336.895 145.121 337.239 142.754 337.351 140.102C338.315 117.182 309.273 114.564 300.646 119.954C299.441 120.918 297.994 125.525 297.297 131.414C298.829 133.971 300.672 136.27 303.16 138.035Z" fill="#EF9A7F"/>
<path d="M339.342 167.619C339.342 167.619 334.744 179.381 325.109 180.758C325.109 180.758 329.569 205.624 334.27 224.627C338.963 243.62 341.899 263.139 340.521 270.733C339.144 278.336 344.318 281.444 344.318 281.444C344.318 281.444 371.431 286.283 402.522 272.292C402.522 272.292 407.706 264 397.864 238.618C388.014 213.227 359.214 170.194 339.342 167.619Z" fill="#A78BEF"/>
<path d="M352.14 173.569C351.735 173.268 351.33 172.984 350.926 172.699C347.249 176.479 343.349 180.035 339.13 183.238C335.316 186.14 331.278 188.697 327.016 190.875C327.188 191.788 327.377 192.744 327.575 193.734C331.898 191.504 335.97 188.757 339.75 185.709C344.262 182.084 348.343 177.952 352.14 173.569Z" fill="white"/>
<path d="M347.835 194.509C352.614 190.565 357.091 186.217 361.103 181.473C360.776 181.146 360.449 180.81 360.122 180.492C355.713 185.227 350.909 189.567 345.691 193.51C341.903 196.377 337.916 198.952 333.896 201.474C332.552 202.318 331.089 203.102 329.625 203.902C329.849 204.979 330.073 206.064 330.305 207.157C332.027 206.046 333.68 204.867 335.273 203.834C339.647 201.001 343.823 197.824 347.835 194.509Z" fill="white"/>
<path d="M351.918 208.224C358.177 203.153 364.876 198.151 370.636 192.356C370.378 192.02 370.111 191.693 369.844 191.366C364.316 196.498 358.005 200.897 352.021 205.349C347.415 208.775 342.834 212.228 337.892 215.156C336.144 216.189 334.405 217.058 332.648 217.79C332.864 218.729 333.079 219.667 333.303 220.588C334.086 220.244 334.861 219.874 335.593 219.512C341.517 216.559 346.803 212.366 351.918 208.224Z" fill="white"/>
<path d="M376.552 207.019C377.473 206.141 378.429 205.263 379.402 204.384C379.049 203.868 378.696 203.343 378.342 202.826C377.585 203.454 376.827 204.083 376.095 204.72C370.404 209.662 364.644 214.553 358.427 218.823C352.659 222.793 346.459 226.211 340.011 228.923C338.581 229.526 337.135 230.06 335.68 230.568C335.99 231.919 336.282 233.262 336.567 234.597C345.108 231.575 353.244 226.486 359.986 221.484C365.875 217.11 371.248 212.065 376.552 207.019Z" fill="white"/>
<path d="M366.109 237.094C373.307 233.297 380.014 228.699 386.076 223.266C387.075 222.371 388.125 221.415 389.184 220.408C388.952 219.977 388.71 219.547 388.469 219.116C386.937 220.451 385.404 221.699 384.001 222.853C377.81 227.95 370.81 231.919 363.595 235.346C355.545 239.169 347.176 242.501 338.617 245.153C338.798 246.203 338.97 247.237 339.134 248.253C340.046 247.943 340.951 247.633 341.846 247.34C350.155 244.585 358.36 241.184 366.109 237.094Z" fill="white"/>
<path d="M396.942 236.328C388.487 242.622 379.179 247.745 369.364 251.705C360.031 255.468 350.37 257.904 340.555 259.661C340.667 260.935 340.744 262.149 340.796 263.286C361.391 260.134 381.452 251.146 397.622 238.032C397.407 237.473 397.174 236.905 396.942 236.328Z" fill="white"/>
<path d="M375.22 269.218C365.68 271.758 355.951 273.446 346.187 274.858C344.31 275.125 342.433 275.383 340.539 275.632C340.875 277.182 341.503 278.379 342.149 279.283C343.845 279.068 345.533 278.844 347.212 278.603C357.38 277.165 367.523 275.159 377.321 272.042C386.103 269.252 395.523 265.808 403.685 260.737C403.625 260.1 403.547 259.428 403.453 258.731C394.653 263.656 384.554 266.738 375.22 269.218Z" fill="white"/>
<path d="M324.508 179.174C323.647 179.596 323.148 182.67 325.472 182.67C327.797 182.67 338.629 175.635 341.694 168.093C342.253 166.724 339.541 165.355 338.344 167.18C337.268 168.816 334.883 172.217 332.782 174.129C330.673 176.049 326.781 178.055 324.508 179.174Z" fill="white"/>
<path d="M374.688 341.456C377.124 340.062 380.129 337.151 382.153 328.266C383.659 321.679 383.909 315.282 380.095 309.41C380.095 309.41 384.098 278.018 382.729 263.389C379.389 227.83 367.765 202.111 367.765 202.111L348.203 223.266C348.203 223.266 370.779 277.208 372.415 308.807C372.415 308.807 366.121 310.279 364.011 321.714C362.918 327.637 364.709 330.763 366.577 330.108C368.514 329.428 368.411 321.378 371.795 320.121C374.412 319.148 372.544 324.193 372.087 328.274C371.218 335.998 367.266 348 370.271 348C372.699 347.983 374.688 341.456 374.688 341.456Z" fill="#F2B99E"/>
<path d="M378.501 320.827C377.408 327.809 377.081 335.197 374.902 341.964C374.876 342.033 374.988 342.076 375.023 342.016C376.573 338.994 377.296 335.584 378.062 332.295C378.889 328.739 379.603 324.452 379.07 320.818C379.026 320.543 378.544 320.551 378.501 320.827Z" fill="#EF9A7F"/>
<path d="M373.051 241.313C377.192 247.297 379.035 254.667 380.421 261.805C381.42 267.083 382.195 272.404 382.866 277.768C383.09 272.386 383.107 267.289 382.737 263.38C379.397 227.821 367.773 202.103 367.773 202.103L348.211 223.257C348.211 223.257 349.124 225.427 350.587 229.155C359.507 230.042 367.472 233.219 373.051 241.313Z" fill="#EF9A7F"/>
<path d="M341.716 196.231C341.311 203.799 344.376 217.343 346.796 228.441C346.796 228.441 364.791 226.4 374.822 213.382C374.822 213.382 364.05 185.081 353.512 180.449C343.748 176.161 342.129 188.542 341.716 196.231Z" fill="#A78BEF"/>
<path d="M361.026 187.19C360.397 186.381 359.768 185.606 359.123 184.9C357.444 185.959 355.739 186.975 353.982 187.93C350.065 190.057 346.13 191.986 341.946 193.2C341.877 193.957 341.816 194.707 341.773 195.413C346.139 194.732 350.487 192.623 354.258 190.884C356.566 189.816 358.847 188.576 361.026 187.19Z" fill="white"/>
<path d="M367.066 197.91C367.212 197.781 367.367 197.651 367.513 197.514C367.048 196.653 366.575 195.792 366.084 194.931C365.998 195.017 365.903 195.103 365.817 195.18C362.657 198.151 358.929 200.579 355.158 202.706C351.55 204.738 347.202 206.873 342.742 208.328C342.837 208.931 342.94 209.542 343.044 210.153C347.495 209.06 351.869 207.217 355.631 205.444C359.807 203.498 363.587 200.906 367.066 197.91Z" fill="white"/>
<path d="M361.662 213.847C356.556 217.239 350.865 219.099 345.242 221.217C345.371 221.811 345.492 222.397 345.621 222.982C351.717 221.458 357.684 219.969 363.272 216.602C366.724 214.527 369.927 212.013 373.001 209.413C373.053 209.37 373.104 209.327 373.156 209.284C372.751 208.337 372.278 207.26 371.753 206.089C368.507 208.827 365.209 211.496 361.662 213.847Z" fill="white"/>
<path d="M310.387 107.745C310.387 107.745 298.729 104.422 294.51 113.574C291.1 120.979 298.583 142.349 328.821 142.926C328.821 142.926 328.821 142.926 331.197 147.084C330.336 150.881 320.142 176.272 339.489 190.78C358.827 205.288 385.251 202.008 390.262 177.306C395.273 152.612 366.774 148.927 358.655 145.845C350.536 142.762 353.541 124.457 351.638 114.435C349.218 101.649 325.429 92.5483 310.387 107.745Z" fill="black"/>
<path d="M297.179 109.949C296.137 110.862 295.216 112.033 294.51 113.574C291.1 120.979 298.583 142.349 328.821 142.926C328.821 142.926 328.821 142.934 330.707 146.232C330.707 146.232 332.566 144.183 332.894 142.409C316.423 143.546 294.157 127.255 297.179 109.949Z" fill="black"/>
<path d="M358.657 145.845C350.538 142.762 353.543 124.457 351.64 114.435C349.814 104.835 335.969 97.3184 322.805 100.59C328.754 100.254 334.609 101.666 339.939 106.109C349.892 114.573 349.677 127.281 346.715 138.922C345.019 146.12 342.909 154.162 351.373 157.761C360.474 161.575 370.849 159.664 380.165 162.419C386.7 164.356 389.782 168.05 390.824 172.536C391.47 152.113 366.225 148.72 358.657 145.845Z" fill="black"/>
<path d="M327.215 134.032C320.904 134.454 314.911 134.213 309.254 131.027C302.608 127.273 300.352 120.075 301.798 112.868C301.833 112.688 301.566 112.61 301.514 112.791C299.723 119.446 301.161 126.291 306.826 130.631C312.432 134.919 320.465 136.761 327.327 134.902C327.801 134.764 327.723 133.997 327.215 134.032Z" fill="black"/>
<path d="M330.337 132.421C328.227 131.853 326.083 131.664 324.008 130.941C321.262 129.985 318.851 128.16 316.828 126.128C313.005 122.279 311.093 116.768 310.844 111.439C310.826 111.163 310.448 111.172 310.422 111.439C309.94 117.337 311.963 122.701 315.82 127.126C319.118 130.906 325.171 134.393 330.328 133.291C330.785 133.205 330.759 132.533 330.337 132.421Z" fill="black"/>
<path d="M376.44 181.852C371.765 186.269 366.935 191.039 360.193 191.633C354.183 192.158 348.656 188.051 344.626 184.065C336.731 176.238 330.566 163.53 333.192 152.259C334.518 146.551 338.151 141.557 339.529 135.788C340.76 130.596 340.02 124.957 338.065 120.04C334.725 111.663 326.226 108.391 317.78 108.202C317.436 108.193 317.461 108.684 317.78 108.718C323.385 109.398 328.913 110.724 333.123 114.719C337.747 119.102 339.081 126.386 338.634 132.456C338.134 139.206 333.984 144.794 331.857 151.019C330.282 155.608 330.824 160.723 331.961 165.329C334.397 175.171 341.027 184.797 349.586 190.264C359.909 196.851 370.06 190.617 377.009 182.42C377.353 182.033 376.828 181.49 376.44 181.852Z" fill="black"/>
<path d="M346.812 146.542C346.037 153.293 343.127 160.447 344.591 167.267C345.598 171.976 350.196 174.568 354.475 175.765C355.069 175.937 355.457 175.059 354.897 174.757C352.469 173.44 350.144 172.269 348.207 170.237C345.331 167.224 346.063 162.566 346.614 158.872C347.604 152.277 348.999 145.905 348.947 139.198C348.87 128.651 345.538 117.294 336.549 111.009C336.325 110.854 336.041 111.224 336.256 111.387C346.7 119.55 348.224 134.238 346.812 146.542Z" fill="black"/>
<path d="M353.247 156.409C358.249 156.082 362.95 158.26 366.808 161.343C371.569 165.157 372.482 170.177 372.654 175.92C372.671 176.634 373.687 176.772 373.894 176.092C375.719 170.073 372.602 163.969 368.134 160.026C364.801 157.081 357.457 153.292 353.1 155.875C352.859 156.005 352.945 156.427 353.247 156.409Z" fill="black"/>
<path d="M338.162 148.806C338.162 152.405 335.243 155.333 331.636 155.333C328.028 155.333 325.109 152.414 325.109 148.806C325.109 145.199 328.028 142.28 331.636 142.28C335.243 142.28 338.162 145.199 338.162 148.806Z" fill="#F2B99E"/>
<path d="M336.186 149.478C336.186 151.665 334.567 153.439 332.569 153.439C330.572 153.439 328.953 151.665 328.953 149.478C328.953 147.291 330.572 145.518 332.569 145.518C334.575 145.518 336.186 147.291 336.186 149.478Z" fill="#EF9A7F"/>
<path d="M334.698 145.302C333.045 145.156 331.564 145.182 330.229 146.249C328.559 147.584 328.232 150.064 328.593 152.027C328.731 152.784 329.876 152.466 329.747 151.708C329.738 151.674 329.738 151.639 329.73 151.605C330.109 150.976 330.315 150.227 330.849 149.693C331.719 148.824 333.2 150.219 332.296 151.174C332.055 151.433 332.382 151.906 332.692 151.682C334.267 150.554 333.303 148.428 331.529 148.307C330.78 148.256 330.221 148.609 329.825 149.134C330.014 148.316 330.367 147.549 330.892 146.912C331.779 145.853 333.424 145.655 334.698 145.526C334.844 145.518 334.844 145.319 334.698 145.302Z" fill="#0B203D"/>
<path d="M218.764 143.623H251.233C253.144 143.623 254.686 145.173 254.686 147.076V168.971C254.686 170.874 253.136 172.424 251.233 172.424H235.149V182.463L227.452 172.424H218.773C216.862 172.424 215.32 170.874 215.32 168.971V147.076C215.312 145.164 216.853 143.623 218.764 143.623Z" fill="#E527BB"/>
<path d="M234.992 169.652C241.682 169.652 247.132 164.21 247.132 157.511C247.132 150.821 241.69 145.38 234.992 145.38C228.302 145.38 222.852 150.821 222.852 157.511C222.86 164.21 228.302 169.652 234.992 169.652ZM234.992 146.069C241.303 146.069 246.434 151.2 246.434 157.511C246.434 163.823 241.303 168.954 234.992 168.954C228.681 168.954 223.549 163.823 223.549 157.511C223.549 151.209 228.681 146.069 234.992 146.069Z" fill="white"/>
<path d="M232.643 163.96C232.307 163.96 231.98 163.831 231.722 163.581L227.752 159.681C227.236 159.173 227.227 158.347 227.735 157.83C228.243 157.313 229.07 157.305 229.586 157.813L232.651 160.826L241.804 152.139C242.329 151.639 243.156 151.665 243.655 152.19C244.154 152.716 244.129 153.542 243.603 154.042L233.53 163.599C233.289 163.84 232.97 163.96 232.643 163.96Z" fill="white"/>
</g>
<defs>
<clipPath id="clip0_2023_7133">
<rect width="542.64" height="328.79" fill="white"/>
</clipPath>
</defs>
</svg>
