<svg width="543" height="329" viewBox="0 0 543 329" fill="none" xmlns="http://www.w3.org/2000/svg">
<g clip-path="url(#clip0_2178_2185)">
<path opacity="0.2" d="M78.788 327.839C41.4882 290.535 -9.49424 252.012 10.4949 193.818C23.6478 155.541 55.8804 144.88 82.6859 121.276C95.9087 109.631 87.5932 92.6757 87.3433 75.8481C86.7836 32.7513 139.135 -0.687543 187.269 0.010739C239.401 0.768031 261.969 48.9102 305.705 51.4968C322.876 51.7426 338.257 42.4781 353.449 35.1314C398.465 13.3371 469.906 27.2339 473.514 79.9296C474.444 108.392 439.183 154.174 474.514 169.143C502.668 181.072 531.113 185.469 536.19 228.133C542.837 283.976 507.716 314.621 461.971 329L78.788 327.839Z" fill="#999999"/>
<path d="M341.472 286.14C340.138 299.467 333.731 303.628 336.978 307.185C337.702 307.978 350.235 294.703 351.528 284.388C351.528 284.388 350.08 279.888 346.431 279.52C342.776 279.158 341.472 286.14 341.472 286.14Z" fill="#A78BEF"/>
<path d="M383.798 272.538C390.803 283.951 388.228 291.14 392.964 292.008C394.015 292.203 395.952 274.049 390.734 265.056C390.734 265.056 386.855 262.355 383.729 264.274C380.608 266.194 383.798 272.538 383.798 272.538Z" fill="#A78BEF"/>
<path d="M385.663 264.24C361.843 247.529 353.389 247.793 353.389 247.793C353.389 247.793 350.005 232.369 346.143 218.491C346.148 214.422 345.666 210.359 344.677 206.388C344.361 205.118 342.982 205.02 342.183 205.641C341.649 204.124 341.12 202.75 340.609 201.561L310.243 207.124C310.237 206.457 310.226 205.79 310.232 205.124C310.243 203.112 307.117 203.124 307.105 205.135C307.094 207.98 307.186 210.819 307.381 213.658C305.129 221.071 301.801 236.305 300.98 251.563C300.629 258.131 303.79 264.389 309.318 267.952C318.426 273.82 332.598 281.181 339.994 287.658C339.994 287.658 345.47 286.278 345.637 279.808C345.637 279.808 326.633 260.815 317.271 256.689C317.271 256.689 324.156 238.271 326.006 235.788L337.557 251.477C339.511 255.511 342.856 258.7 346.993 260.43C361.136 266.332 381.387 273.366 381.387 273.366C388.025 270.061 385.663 264.24 385.663 264.24Z" fill="black"/>
<path d="M333.388 145.002L333.486 145.835C333.767 148.312 335.44 150.41 337.796 151.237L333.262 158.38L319.906 156.731L320.418 145.956L333.388 145.002Z" fill="#D69472"/>
<path d="M362.984 218.945C363.886 217.847 364.294 216.307 364.013 214.922C363.898 214.359 363.639 213.836 363.157 213.497C362.657 213.14 362.036 212.985 361.461 212.813C360.145 212.411 358.806 212.112 357.444 211.893C357.559 211.756 357.674 211.618 357.778 211.468C358.042 211.089 357.49 210.623 357.226 211.003C355.968 212.796 353.927 213.784 352.514 215.428C351.393 216.732 350.347 219.094 351.761 220.582C352.474 221.335 353.6 221.18 354.485 221.594C355.439 222.042 356.243 222.772 357.238 223.145C358.956 223.795 361.007 223.485 362.45 222.347C363.203 221.749 364.07 220.72 363.685 219.686C363.57 219.335 363.3 219.083 362.984 218.945Z" fill="#F7B692"/>
<path d="M282.341 103.66C281.376 103.08 280.284 104.58 279.876 105.275C279.497 105.924 279.405 106.729 278.962 107.344C278.744 107.643 278.456 107.878 278.146 108.079V108.074C277.738 104.649 277.56 100.528 278.319 97.04C278.405 96.6435 277.824 96.4308 277.571 96.7642C276.606 98.0342 275.589 101.149 275.778 104.81C275.778 104.81 275.135 98.0744 275.635 94.908C275.692 94.5287 275.158 94.3218 274.905 94.6264C274.146 95.5516 273.796 97.9997 273.796 98.8559L273.526 96.7814C273.48 96.4481 273.014 96.3331 272.784 96.5975C271.951 97.5572 271.216 100.316 272.503 105.235C272.503 105.235 270.75 102.723 269.733 100.666C269.549 100.298 268.928 100.419 268.946 100.821C269.009 102.58 271.21 106.298 271.21 106.298C269.227 110.527 269.785 115.148 273.756 117.854L279.405 115.062C279.405 115.062 279.238 114.418 279.02 113.355C279.657 112.516 280.031 111.527 280.318 110.51C280.68 109.24 281.014 107.982 281.588 106.786C281.887 106.171 282.284 105.614 282.588 105.011C282.812 104.562 282.824 103.953 282.341 103.66Z" fill="#F7B692"/>
<path d="M348.012 216.353C347.558 215.554 346.656 215.428 345.88 215.767C340.53 218.111 334.686 219.14 328.899 219.605C323.75 220.019 317.911 220.508 313.193 217.973C311.038 216.813 309.096 215.043 308.234 212.698C307.946 211.905 307.188 211.359 306.32 211.589C305.561 211.79 304.924 212.704 305.211 213.502C307.194 218.922 312.538 221.933 318.032 222.697C321.043 223.117 324.077 223.048 327.106 222.852C330.387 222.645 333.669 222.295 336.898 221.686C340.519 221.008 344.041 219.95 347.415 218.473C348.202 218.146 348.397 217.031 348.012 216.353Z" fill="#5254CF"/>
<path d="M363.665 211.893C363.7 211.888 363.624 211.864 363.531 211.882C363.537 211.882 363.537 211.882 363.543 211.882C363.578 211.882 363.624 211.882 363.665 211.893Z" fill="#64BC92"/>
<path d="M365.279 211.922C364.952 211.945 364.618 211.951 364.291 211.939C364.107 211.933 363.923 211.922 363.745 211.905C363.722 211.905 363.699 211.899 363.67 211.893C363.653 211.899 363.624 211.899 363.549 211.887C363.544 211.887 363.532 211.887 363.532 211.887C363.538 211.887 363.538 211.887 363.544 211.887C362.877 211.79 362.216 211.617 361.584 211.388C361.515 211.365 361.446 211.336 361.383 211.313C361.245 211.25 361.101 211.186 360.963 211.117C360.665 210.974 360.377 210.813 360.096 210.64C359.94 210.543 359.785 210.445 359.636 210.342C359.573 210.301 359.515 210.255 359.458 210.215C359.446 210.209 359.429 210.192 359.4 210.175C359.481 210.232 359.343 210.129 359.308 210.1C359.239 210.043 359.17 209.985 359.101 209.922C358.964 209.801 358.831 209.675 358.699 209.549C358.113 208.98 357.073 208.905 356.487 209.531C355.924 210.14 355.843 211.135 356.469 211.744C358.797 214.002 362.061 215.261 365.308 215.054C366.124 215.002 366.905 214.364 366.865 213.485C366.814 212.669 366.153 211.865 365.279 211.922Z" fill="#5254CF"/>
<path d="M278.566 113.401C276.928 113.389 275.233 114.073 274.118 115.286C273.043 116.458 272.423 118.033 272.48 119.63C272.509 120.446 273.187 121.228 274.049 121.188C274.871 121.147 275.635 120.492 275.606 119.619C275.601 119.435 275.612 119.251 275.629 119.067C275.675 118.814 275.739 118.561 275.825 118.314C275.934 118.079 276.066 117.854 276.216 117.636C276.376 117.452 276.549 117.28 276.739 117.119C276.882 117.021 277.02 116.924 277.175 116.843C277.256 116.803 277.348 116.768 277.428 116.722C277.457 116.711 277.491 116.699 277.52 116.688C277.721 116.625 277.957 116.607 278.152 116.533C278.175 116.533 278.204 116.527 278.227 116.527C278.342 116.521 278.457 116.521 278.572 116.521C279.388 116.527 280.169 115.786 280.129 114.952C280.095 114.102 279.439 113.407 278.566 113.401Z" fill="#5254CF"/>
<path d="M372.885 178.281C370.574 168.586 361.69 162.828 353.541 158.236C349.168 155.771 344.64 153.587 340.094 151.461C339.014 150.955 337.922 150.455 336.824 149.984C335.273 152.708 331.215 153.794 328.342 152.926C326.664 152.415 325.17 151.312 323.94 150.088C322.98 149.139 322.153 148.007 321.647 146.743C315.837 146.536 310.257 143.554 305.901 139.864C302.907 137.324 292.04 126.135 289.483 123.164C288.276 121.762 287.104 120.331 285.88 118.941C284.598 117.492 283.133 116.176 281.277 115.527C279.524 114.912 277.444 114.998 275.898 116.096C274.542 117.056 273.725 118.567 273.415 120.188C272.749 123.722 273.806 127.486 275.254 130.698C278.426 137.709 292.649 151.047 298.448 155.834C301.729 158.541 305.039 161.271 307.861 164.472C309.861 166.741 311.792 169.667 312.039 172.764C311.372 182.959 307.947 192.981 306.436 203.089C305.861 206.94 305.7 210.847 307.792 214.307C309.642 217.37 312.895 219.226 316.308 220.042C320.124 220.956 324.222 220.875 328.124 220.812C332.141 220.749 336.226 220.387 340.071 219.169C342.088 218.531 344.398 217.611 346.042 216.117C349.628 210.571 341.261 186.855 350.766 179.551C353.007 180.717 354.892 182.418 355.748 184.976C357.288 189.579 355.989 194.504 355.673 199.187C355.363 203.802 356.087 209.411 360.386 212.089C362.219 213.232 364.604 213.623 366.644 212.824C368.73 212.008 370.126 210.204 370.982 208.192C372.896 203.67 373.252 198.452 373.517 193.602C373.781 188.516 374.074 183.275 372.885 178.281Z" fill="#A78BEF"/>
<path d="M335.159 149.593C333.728 151.07 331.533 151.904 329.556 151.536C327.567 151.168 325.964 150.03 324.987 148.254C324.016 146.49 321.298 148.036 322.269 149.8C323.625 152.266 326.142 154.133 328.941 154.587C332.004 155.081 335.182 154.059 337.348 151.817C338.745 150.375 336.555 148.145 335.159 149.593Z" fill="#5254CF"/>
<path d="M348.883 176.988C348.814 176.988 348.751 176.954 348.722 176.885C346.791 172.988 346.044 168.466 346.619 164.156C346.63 164.058 346.722 163.989 346.825 164.001C346.923 164.012 346.992 164.104 346.981 164.207C346.417 168.448 347.153 172.896 349.049 176.729C349.095 176.821 349.055 176.931 348.969 176.971C348.94 176.982 348.911 176.988 348.883 176.988Z" fill="#5254CF"/>
<path d="M345.928 176.643C345.882 176.643 345.836 176.626 345.801 176.591C343.842 174.724 342.227 172.431 341.141 169.948C341.1 169.856 341.141 169.747 341.233 169.707C341.324 169.667 341.434 169.707 341.474 169.799C342.543 172.236 344.123 174.494 346.048 176.327C346.123 176.396 346.123 176.511 346.054 176.586C346.025 176.62 345.979 176.643 345.928 176.643Z" fill="#5254CF"/>
<path d="M359.321 185.706C359.246 185.706 359.172 185.66 359.149 185.579C359.12 185.482 359.172 185.378 359.264 185.349C363.315 184.056 367.682 183.7 371.889 184.321C371.987 184.332 372.056 184.43 372.044 184.528C372.027 184.625 371.935 184.694 371.837 184.683C367.682 184.074 363.378 184.418 359.378 185.7C359.361 185.7 359.344 185.706 359.321 185.706Z" fill="#5254CF"/>
<path d="M368.465 188.539C368.459 188.539 368.454 188.539 368.442 188.539C365.942 188.234 363.397 188.177 360.891 188.349C360.793 188.366 360.701 188.28 360.696 188.183C360.69 188.085 360.765 187.993 360.862 187.987C363.397 187.803 365.96 187.866 368.488 188.177C368.586 188.188 368.661 188.28 368.643 188.378C368.632 188.47 368.551 188.539 368.465 188.539Z" fill="#5254CF"/>
<path d="M327.244 185.625C327.181 185.625 327.112 185.591 327.083 185.528C322.049 175.81 318.79 165.38 317.4 154.524C317.388 154.426 317.457 154.335 317.555 154.323C317.653 154.312 317.744 154.38 317.762 154.478C319.147 165.288 322.394 175.678 327.405 185.361C327.451 185.453 327.416 185.562 327.324 185.608C327.301 185.619 327.273 185.625 327.244 185.625Z" fill="#5254CF"/>
<path d="M318.026 177.155C317.946 177.155 317.871 177.103 317.854 177.022C316.797 173.149 316.233 169.144 316.188 165.127C316.188 165.029 316.268 164.943 316.366 164.943C316.463 164.943 316.544 165.023 316.55 165.121C316.601 169.109 317.153 173.08 318.205 176.925C318.233 177.022 318.176 177.12 318.078 177.149C318.055 177.149 318.038 177.155 318.026 177.155Z" fill="#5254CF"/>
<path d="M286.701 138.06C286.689 138.06 286.672 138.06 286.661 138.054C286.563 138.031 286.506 137.934 286.528 137.836C287.247 134.859 289.609 132.371 292.545 131.492C292.643 131.463 292.741 131.52 292.769 131.612C292.798 131.71 292.746 131.808 292.649 131.836C289.839 132.675 287.574 135.066 286.885 137.916C286.856 138.003 286.787 138.06 286.701 138.06Z" fill="#5254CF"/>
<path d="M289.906 139.979C289.9 139.979 289.894 139.979 289.889 139.979C289.791 139.968 289.716 139.876 289.728 139.778C289.923 137.945 291.118 136.233 292.773 135.417C292.865 135.371 292.975 135.411 293.015 135.503C293.061 135.595 293.021 135.704 292.934 135.744C291.389 136.508 290.274 138.106 290.09 139.819C290.078 139.91 289.998 139.979 289.906 139.979Z" fill="#5254CF"/>
<path d="M327.147 216.847C324.067 216.847 320.981 216.387 318.027 215.451C317.929 215.422 317.878 215.318 317.906 215.221C317.935 215.123 318.044 215.071 318.136 215.1C325.521 217.439 333.727 216.784 340.652 213.307C340.744 213.261 340.853 213.301 340.893 213.388C340.939 213.479 340.905 213.589 340.813 213.629C336.577 215.767 331.865 216.847 327.147 216.847Z" fill="#5254CF"/>
<path d="M331.942 212.451C331.845 212.451 331.747 212.451 331.649 212.445C331.546 212.439 331.471 212.359 331.477 212.255C331.483 212.158 331.58 212.083 331.667 212.083C333.62 212.163 335.586 211.491 337.091 210.267C337.166 210.204 337.281 210.215 337.35 210.296C337.413 210.376 337.402 210.485 337.321 210.554C335.816 211.761 333.873 212.451 331.942 212.451Z" fill="#5254CF"/>
<path d="M320.097 115.889C315.689 110.683 302.995 113.211 310.328 127.67C317.66 142.129 326.177 121.642 326.177 121.642L320.097 115.889Z" fill="black"/>
<path d="M331.571 117.671C329.916 117.194 328.18 116.642 326.416 116.251C323.422 116.878 320.456 117.653 317.497 118.441C310.917 133.445 307.676 147.484 318.192 149.996C323.813 151.34 330.214 149.657 336.248 136.52C339.231 130.032 336.105 122.389 331.571 117.671Z" fill="#F7B692"/>
<path d="M316.68 118.642C319.519 127.429 326.041 130.802 331.362 129.704C331.362 129.704 327.96 141.853 331.696 144.709C338.178 143.232 347.993 132.486 346.269 123.676C344.511 114.659 322.484 106.7 316.68 118.642Z" fill="black"/>
<path d="M336.735 141.186C336.194 139.663 334.505 138.951 332.988 139.244C331.815 139.473 330.902 140.175 330.201 141.071C330.12 141.06 330.034 141.088 329.959 141.175C329.706 141.479 329.551 141.835 329.471 142.203C329.321 142.491 329.178 142.784 329.063 143.077C328.948 143.37 329.275 143.536 329.511 143.433C329.655 143.967 329.948 144.467 330.39 144.835C331.603 145.841 333.373 145.795 334.741 145.151C336.194 144.479 337.309 142.818 336.735 141.186Z" fill="#F7B692"/>
<path d="M334.903 140.853C334.323 140.474 333.541 140.468 332.955 140.83C332.564 141.071 332.265 141.565 332.472 142.002C332.541 142.152 332.662 142.261 332.765 142.358C332.823 142.41 332.88 142.462 332.926 142.519C333.03 142.652 333.064 142.847 333.018 143.042C332.972 143.238 332.846 143.393 332.691 143.456C332.61 143.491 332.524 143.508 332.438 143.525C332.352 143.542 332.265 143.565 332.185 143.594C331.972 143.669 331.731 143.853 331.72 144.123C331.702 144.439 331.972 144.657 332.237 144.755C332.455 144.841 332.691 144.881 332.921 144.881C333.196 144.881 333.472 144.824 333.731 144.703C334.196 144.485 334.564 144.082 334.731 143.594C334.765 143.502 334.714 143.393 334.616 143.364C334.518 143.335 334.415 143.381 334.386 143.479C334.254 143.87 333.949 144.203 333.576 144.376C333.202 144.548 332.754 144.565 332.369 144.416C332.225 144.358 332.076 144.255 332.087 144.14C332.093 144.048 332.208 143.968 332.311 143.927C332.38 143.904 332.449 143.887 332.524 143.87C332.628 143.847 332.737 143.824 332.846 143.778C333.104 143.669 333.306 143.422 333.386 143.117C333.461 142.818 333.403 142.502 333.225 142.284C333.168 142.209 333.093 142.146 333.024 142.077C332.938 141.996 332.852 141.922 332.811 141.836C332.794 141.801 332.8 141.767 332.794 141.732C333.185 141.778 333.553 141.95 333.823 142.238C333.857 142.278 333.909 142.295 333.955 142.295C334.001 142.295 334.041 142.278 334.081 142.244C334.156 142.175 334.162 142.06 334.093 141.985C333.783 141.652 333.357 141.439 332.909 141.376C332.978 141.278 333.064 141.186 333.168 141.123C333.627 140.836 334.271 140.841 334.725 141.14C334.806 141.198 334.92 141.175 334.978 141.088C335.012 141.019 334.989 140.91 334.903 140.853Z" fill="#D69472"/>
<path d="M326.042 130.095C324.508 128.388 321.985 127.722 319.836 128.624C319.479 128.773 319.267 129.164 319.399 129.549C319.525 129.9 319.962 130.135 320.324 129.986C321.14 129.641 321.922 129.578 322.795 129.768C323.18 129.848 323.542 129.986 323.95 130.21C323.996 130.233 324.036 130.262 324.082 130.285C324.186 130.342 324.088 130.285 324.146 130.325C324.232 130.382 324.312 130.44 324.393 130.503C324.485 130.572 324.571 130.647 324.657 130.727C324.703 130.767 324.749 130.813 324.795 130.859C324.807 130.871 324.921 130.992 324.853 130.911C325.111 131.198 325.508 131.336 325.858 131.095C326.146 130.9 326.306 130.388 326.042 130.095Z" fill="#F7B692"/>
<path d="M320.689 134.526C319.758 134.526 319.896 135.962 320.815 135.962C321.746 135.962 321.608 134.526 320.689 134.526Z" fill="#F7B692"/>
<path d="M314.212 133.083C313.281 133.083 313.419 134.52 314.339 134.52C315.27 134.526 315.138 133.083 314.212 133.083Z" fill="#F7B692"/>
<path d="M315.312 139.181C315.266 139.181 315.22 139.163 315.186 139.129C314.898 138.847 314.594 138.56 314.387 138.192C314.146 137.761 314.082 137.29 314.22 136.905C314.358 136.514 314.686 136.244 314.973 135.997L315.059 135.922C316.272 134.888 317.203 133.486 317.68 131.963C317.709 131.865 317.806 131.813 317.91 131.842C318.007 131.871 318.059 131.974 318.03 132.072C317.536 133.658 316.565 135.123 315.301 136.198L315.215 136.273C314.95 136.497 314.68 136.727 314.571 137.026C314.467 137.313 314.519 137.669 314.709 138.008C314.893 138.33 315.169 138.6 315.444 138.865C315.513 138.934 315.519 139.048 315.45 139.123C315.41 139.163 315.358 139.181 315.312 139.181Z" fill="#F7B692"/>
<path d="M313.57 140.238C313.57 140.238 317.248 140.123 319.8 141.088C318.156 145.278 314.208 146.467 313.57 140.238Z" fill="#F7B692"/>
<path d="M319.618 141.02C317.342 140.221 314.302 140.221 313.688 140.232C313.722 140.273 313.762 140.313 313.808 140.341C315.526 141.422 317.693 141.652 319.618 141.02Z" fill="#F7B692"/>
<path d="M316.528 142.364C315.838 142.652 315.12 143.088 314.672 143.703C316.005 145.45 318.154 144.41 319.442 141.887C318.447 141.824 317.448 141.979 316.528 142.364Z" fill="#F7B692"/>
<path d="M331.295 125.072C331.272 125.072 331.249 125.067 331.232 125.061C328.543 124.021 326.313 121.797 325.261 119.113C325.227 119.021 325.273 118.912 325.365 118.877C325.457 118.843 325.566 118.889 325.601 118.981C326.612 121.573 328.767 123.716 331.364 124.722C331.456 124.756 331.502 124.865 331.468 124.957C331.439 125.026 331.37 125.072 331.295 125.072Z" fill="black"/>
<path d="M335.552 123.107C335.535 123.107 335.517 123.107 335.5 123.101C333.431 122.48 331.581 121.072 330.426 119.245C330.374 119.159 330.397 119.05 330.483 118.992C330.569 118.94 330.679 118.963 330.736 119.05C331.845 120.802 333.621 122.153 335.609 122.751C335.707 122.779 335.759 122.883 335.73 122.975C335.701 123.055 335.632 123.107 335.552 123.107Z" fill="black"/>
<path d="M338.494 121.659C338.442 121.659 338.396 121.636 338.356 121.601C337.534 120.682 336.511 119.918 335.402 119.395C335.31 119.354 335.27 119.245 335.316 119.153C335.362 119.061 335.471 119.027 335.557 119.067C336.712 119.613 337.776 120.406 338.632 121.36C338.701 121.435 338.695 121.55 338.62 121.619C338.58 121.642 338.54 121.659 338.494 121.659Z" fill="black"/>
<path d="M342.239 121.113C342.176 121.113 342.107 121.078 342.078 121.015C341.859 120.596 341.515 120.234 341.095 120.009C341.009 119.964 340.974 119.849 341.02 119.762C341.066 119.676 341.181 119.642 341.268 119.688C341.745 119.952 342.147 120.36 342.4 120.848C342.446 120.94 342.411 121.05 342.319 121.096C342.296 121.107 342.267 121.113 342.239 121.113Z" fill="black"/>
<path d="M246.82 154.191L254.119 150.209C254.119 150.209 262.187 130.446 266.526 121.165L271.623 123.958C269.255 135.238 266.417 144.56 264.629 149.95C263.555 153.18 261.67 156.076 259.141 158.357L250.653 166.041L246.82 154.191Z" fill="#FCD6A9"/>
<path d="M275.962 106.93C275.974 106.528 275.416 106.407 275.25 106.775C274.33 108.838 272.75 111.344 272.75 111.344C273.911 106.424 273.25 103.666 272.497 102.706C272.29 102.442 271.865 102.557 271.83 102.89L271.589 104.965C271.589 104.109 271.273 101.66 270.589 100.735C270.365 100.431 269.877 100.643 269.928 101.017C270.377 104.183 269.796 110.918 269.796 110.918C269.969 107.258 269.049 104.143 268.176 102.873C267.946 102.54 267.423 102.752 267.497 103.149C268.181 106.631 268.02 110.757 267.653 114.182C267.486 113.947 267.308 113.728 267.101 113.55C266.773 113.269 266.308 113.096 265.9 113.32C265.555 113.516 265.4 113.918 265.434 114.303C265.48 114.786 265.814 115.182 266.061 115.579C266.325 116.01 266.561 116.452 266.756 116.912C266.9 117.245 267.02 117.59 267.13 117.941C266.808 119.906 266.509 121.17 266.509 121.17L271.606 123.963C275.192 121.251 275.698 116.636 273.905 112.407C273.916 112.407 275.905 108.689 275.962 106.93Z" fill="#FCD6A9"/>
<path d="M184.295 236.041C183.421 234.943 183.025 233.403 183.295 232.018C183.404 231.455 183.657 230.932 184.122 230.593C184.605 230.237 185.208 230.082 185.766 229.909C187.042 229.507 188.34 229.208 189.656 228.99C189.547 228.852 189.432 228.714 189.329 228.565C189.07 228.185 189.605 227.72 189.863 228.099C191.087 229.892 193.064 230.881 194.432 232.524C195.518 233.829 196.529 236.19 195.162 237.679C194.472 238.432 193.374 238.277 192.518 238.69C191.593 239.139 190.811 239.868 189.846 240.242C188.179 240.891 186.191 240.581 184.795 239.443C184.065 238.845 183.22 237.817 183.593 236.782C183.726 236.432 183.99 236.179 184.295 236.041Z" fill="#FCD6A9"/>
<path d="M200.491 194.021L194.429 199.711C194.429 199.711 192.228 219.548 190.36 229.622L185.722 230.266C182.97 215.37 183.705 204.865 184.493 199.521C184.855 197.073 185.814 194.751 187.245 192.734L193.797 183.516L200.491 194.021Z" fill="#FCD6A9"/>
<path d="M219.017 160.932L219.138 161.765C219.494 164.23 213.081 168.834 213.081 168.834L212.609 170.431L222.534 173.839L235.033 168.857L231.803 158.564L219.017 160.932Z" fill="#D8AE82"/>
<path d="M213.838 134.031C215.315 133.146 216.855 132.175 218.464 131.354C221.521 131.198 224.584 131.198 227.647 131.204C237.824 144.048 244.519 156.8 234.986 161.903C229.894 164.627 223.268 164.627 214.096 153.455C209.562 147.933 210.648 139.749 213.838 134.031Z" fill="#FCD6A9"/>
<path d="M232.773 129.957C231.612 128.497 229.532 127.986 227.773 127.676C229.618 125.888 230.589 123.05 230.503 120.601C230.468 119.699 230.313 118.74 229.675 118.05C229.026 117.343 227.992 117.148 227.141 117.607C226.314 118.05 225.929 118.929 225.549 119.734C225.147 120.578 224.687 121.4 224.187 122.193C223.94 122.584 223.67 122.969 223.4 123.348C223.297 122.406 223.038 121.481 222.636 120.659C222.073 119.504 221.015 118.366 219.642 118.326C218.343 118.286 217.412 119.217 216.998 120.372C216.567 121.573 216.567 122.785 215.872 123.906C215.148 125.072 214.113 125.998 213.022 126.802C210.711 128.503 208.005 129.698 206.051 131.853C205.361 132.612 204.781 133.491 204.367 134.422C204.166 133.853 203.861 133.302 203.321 132.991C202.689 132.624 201.907 132.658 201.298 133.066C200.235 133.773 199.902 135.187 199.959 136.393C200.023 137.646 200.339 138.876 200.953 139.979C201.212 140.445 201.534 140.882 201.879 141.295C201.103 141.703 200.431 142.324 200.011 143.094C199.649 143.761 199.442 144.473 199.54 145.238C199.626 145.904 200.04 146.554 200.609 146.91C201.287 147.341 202.114 147.318 202.821 146.967C203.212 146.772 203.574 146.496 203.913 146.203C203.654 147.364 203.516 148.559 203.545 149.737C203.614 152.651 204.631 155.461 206.309 157.823C207.999 160.208 210.413 162.058 213.125 163.127C215.429 164.041 219.4 165.046 220.86 162.271C221.699 160.673 220.992 158.524 220.481 156.915C220.406 156.679 220.32 156.444 220.239 156.208C220.613 155.714 220.826 155.093 220.826 154.461C220.826 153.11 220.101 151.789 219.4 150.674C219.015 150.059 218.59 149.467 218.119 148.91C217.791 148.53 217.412 148.117 216.975 147.841C218.464 145.755 219.458 143.083 219.515 140.456C219.601 140.669 219.693 140.876 219.78 141.088C219.981 141.606 220.136 142.272 220.63 142.594C221.124 142.916 221.711 142.772 222.142 142.422C222.912 141.807 223.377 140.652 223.618 139.726C223.871 138.767 223.952 137.727 223.791 136.744C223.705 136.209 223.509 135.669 223.279 135.175C223.164 134.934 223.026 134.612 222.843 134.336C223.055 134.33 223.302 134.296 223.423 134.325C223.929 134.457 224.452 134.526 224.969 134.618C226.078 134.813 227.176 134.98 228.29 135.112C229.762 135.284 231.532 135.52 232.738 134.439C234.066 133.284 233.79 131.239 232.773 129.957Z" fill="black"/>
<path d="M214.814 158.087C214.952 156.478 216.406 155.363 217.946 155.26C219.136 155.179 220.205 155.628 221.107 156.323C221.182 156.294 221.273 156.3 221.365 156.363C221.693 156.593 221.929 156.898 222.095 157.237C222.314 157.478 222.526 157.725 222.716 157.978C222.906 158.231 222.63 158.478 222.371 158.438C222.365 158.995 222.21 159.553 221.877 160.012C220.963 161.288 219.233 161.696 217.751 161.426C216.176 161.139 214.671 159.811 214.814 158.087Z" fill="#FCD6A9"/>
<path d="M254.101 266.349L254.538 270.969C255.078 276.658 252.296 282.158 247.389 285.089L207.811 310.116L205.156 303.817C205.156 303.817 230.695 275.917 239.004 277.52L236.798 267.855L254.101 266.349Z" fill="#FCD6A9"/>
<path d="M219.174 268.785L216.352 273.624C214.3 277.135 210.898 279.652 206.939 280.583L161.132 293.967L155.414 293.14L156.69 287.565C156.69 287.565 188.182 268.05 200.192 269.917L204.295 261.832L219.174 268.785Z" fill="#FCD6A9"/>
<path d="M256.344 265.194C254.994 248.873 251.023 234.874 248.379 227.001C248.442 225.352 248.471 223.703 248.471 222.053C247.943 221.663 247.425 221.255 246.902 220.858C246.316 220.416 245.724 219.99 245.092 219.617C245.098 219.772 245.098 219.933 245.104 220.088L212.394 215.065C211.882 216.358 211.365 217.847 210.836 219.49C209.963 218.853 208.48 218.996 208.187 220.37C207.256 224.657 206.865 229.024 206.992 233.386C204.21 244.609 201.751 256.752 200.688 262.148C206.474 265.998 212.934 268.648 219.703 270.343C222.887 266.222 225.479 261.608 227.869 256.959C230.03 261.596 232.352 266.153 234.829 270.636C242.167 271.308 250.086 270.176 256.402 266.355C256.39 265.97 256.373 265.585 256.344 265.194Z" fill="#363636"/>
<path d="M226.396 253.971C226.367 253.971 226.338 253.965 226.309 253.948L214.328 247.259C214.241 247.213 214.207 247.098 214.259 247.011C214.31 246.925 214.414 246.891 214.506 246.943L226.488 253.632C226.574 253.678 226.608 253.793 226.557 253.879C226.522 253.936 226.465 253.971 226.396 253.971Z" fill="white"/>
<path d="M215.192 254.976C215.094 254.976 215.014 254.896 215.008 254.798C215.008 254.7 215.088 254.614 215.186 254.614C218.065 254.574 220.979 254.384 223.846 254.051C223.938 254.04 224.036 254.109 224.047 254.212C224.059 254.31 223.99 254.402 223.886 254.413C221.013 254.746 218.088 254.936 215.192 254.976Z" fill="white"/>
<path d="M221.946 256.827C221.871 256.827 221.797 256.781 221.774 256.7C221.745 256.603 221.797 256.499 221.888 256.47L224.308 255.689C224.406 255.66 224.509 255.712 224.538 255.804C224.566 255.901 224.515 256.005 224.423 256.034L222.003 256.815C221.98 256.827 221.963 256.827 221.946 256.827Z" fill="white"/>
<path d="M252.881 257.551C252.87 257.551 252.858 257.551 252.841 257.545C248.123 256.551 243.56 254.907 239.29 252.666C239.204 252.62 239.17 252.511 239.216 252.419C239.262 252.333 239.371 252.298 239.463 252.344C243.704 254.574 248.232 256.206 252.922 257.194C253.019 257.217 253.083 257.309 253.06 257.407C253.042 257.493 252.968 257.551 252.881 257.551Z" fill="white"/>
<path d="M249.055 252.632C249.032 252.632 249.009 252.626 248.986 252.62C248.475 252.408 247.911 252.316 247.36 252.35C247.245 252.35 247.176 252.281 247.164 252.178C247.159 252.074 247.233 251.988 247.337 251.982C247.946 251.948 248.561 252.051 249.124 252.281C249.216 252.321 249.262 252.425 249.222 252.517C249.193 252.586 249.124 252.632 249.055 252.632Z" fill="white"/>
<path d="M156.689 287.566C152.586 287.445 148 290.255 148 290.255C149.965 300.059 163.637 312.621 163.637 312.621C167.389 309.426 161.792 296.427 161.792 296.427C161.792 296.427 166.114 297.939 165.148 293.531C164.183 289.123 161.637 292.577 161.637 292.577C161.637 292.577 158.034 291.382 156.689 287.566Z" fill="#E527BB"/>
<path d="M205.158 303.817C201.055 303.697 196.469 306.507 196.469 306.507C198.434 316.311 212.105 328.873 212.105 328.873C215.858 325.678 210.261 312.679 210.261 312.679C210.261 312.679 214.582 314.19 213.617 309.782C212.651 305.375 210.106 308.828 210.106 308.828C210.106 308.828 206.497 307.633 205.158 303.817Z" fill="#E527BB"/>
<path d="M220.746 145.387C221.625 143.18 223.895 141.519 226.384 141.468C226.803 141.462 227.16 141.732 227.171 142.14C227.177 142.519 226.832 142.916 226.412 142.922C225.464 142.939 224.66 143.209 223.861 143.738C223.505 143.973 223.194 144.249 222.878 144.623C222.844 144.663 222.809 144.709 222.775 144.749C222.694 144.847 222.769 144.755 222.729 144.812C222.666 144.898 222.608 144.99 222.551 145.082C222.487 145.186 222.424 145.289 222.373 145.398C222.344 145.456 222.315 145.519 222.286 145.577C222.281 145.594 222.212 145.749 222.252 145.651C222.102 146.025 221.758 146.312 221.321 146.232C220.947 146.174 220.597 145.766 220.746 145.387Z" fill="#FCD6A9"/>
<path d="M229.796 139.64C230.066 139.261 230.399 138.962 230.801 138.704C230.939 138.612 231.094 138.537 231.25 138.474C231.468 138.387 231.686 138.307 231.922 138.261C232.123 138.221 232.319 138.232 232.497 138.33C232.658 138.416 232.807 138.594 232.841 138.778C232.876 138.962 232.853 139.163 232.738 139.324C232.623 139.485 232.451 139.634 232.244 139.675C232.123 139.698 232.014 139.732 231.899 139.772C231.755 139.836 231.617 139.91 231.491 139.991C231.365 140.088 231.25 140.192 231.14 140.307C231.129 140.318 231.117 140.336 231.112 140.347C230.991 140.514 230.824 140.646 230.618 140.698C230.434 140.744 230.198 140.726 230.043 140.629C229.876 140.525 229.733 140.376 229.698 140.18C229.658 140.008 229.681 139.801 229.796 139.64Z" fill="#FCD6A9"/>
<path d="M227.782 147.272C228.713 146.887 229.127 148.272 228.201 148.651C227.276 149.036 226.862 147.651 227.782 147.272Z" fill="#FCD6A9"/>
<path d="M233.716 143.266C234.647 142.881 235.06 144.266 234.135 144.646C233.204 145.036 232.79 143.651 233.716 143.266Z" fill="#FCD6A9"/>
<path d="M234.938 149.358C234.984 149.341 235.025 149.306 235.048 149.26C235.232 148.881 235.421 148.49 235.49 148.065C235.571 147.565 235.45 147.105 235.163 146.806C234.875 146.502 234.444 146.387 234.065 146.278L233.95 146.249C232.347 145.795 230.876 144.881 229.818 143.669C229.749 143.594 229.634 143.583 229.542 143.652C229.456 143.72 229.445 143.835 229.514 143.91C230.617 145.169 232.146 146.123 233.818 146.6L233.933 146.634C234.283 146.732 234.64 146.829 234.864 147.065C235.076 147.289 235.163 147.64 235.099 148.03C235.042 148.404 234.864 148.766 234.691 149.122C234.645 149.214 234.686 149.323 234.783 149.364C234.835 149.381 234.892 149.375 234.938 149.358Z" fill="#FCD6A9"/>
<path d="M237.082 149.611C237.082 149.611 233.363 151.025 231.18 152.967C234.421 156.168 238.817 155.633 237.082 149.611Z" fill="#FCD6A9"/>
<path d="M231.344 152.835C233.315 151.157 236.349 149.904 236.97 149.663C236.953 149.714 236.924 149.766 236.889 149.812C235.579 151.513 233.505 152.622 231.344 152.835Z" fill="#FCD6A9"/>
<path d="M234.935 152.8C235.734 152.777 236.619 152.892 237.303 153.271C236.636 155.438 234.091 155.357 231.844 153.559C232.815 153.093 233.872 152.823 234.935 152.8Z" fill="#FCD6A9"/>
<path d="M220.374 159.495C220.27 159.202 219.994 159.053 219.747 158.92C219.489 158.782 219.334 158.685 219.305 158.524C219.282 158.38 219.368 158.236 219.477 158.064C219.592 157.88 219.719 157.668 219.707 157.42C219.696 157.064 219.403 156.806 219.115 156.708C218.834 156.61 218.541 156.633 218.282 156.65C217.897 156.673 217.46 156.708 217.064 156.869C216.598 157.064 216.271 157.42 216.184 157.834C216.161 157.932 216.225 158.03 216.328 158.047C216.432 158.064 216.523 158.007 216.541 157.903C216.61 157.558 216.931 157.311 217.202 157.196C217.443 157.099 217.707 157.058 217.972 157.03C217.65 157.432 217.46 157.943 217.483 158.461C217.489 158.558 217.569 158.633 217.667 158.633H217.673C217.776 158.627 217.851 158.547 217.845 158.443C217.822 157.92 218.046 157.397 218.431 157.047C218.449 157.03 218.449 157.007 218.46 156.989C218.644 156.984 218.834 156.978 218.995 157.035C219.155 157.093 219.334 157.237 219.339 157.42C219.345 157.558 219.253 157.702 219.161 157.857C219.035 158.064 218.891 158.294 218.943 158.57C219.006 158.915 219.305 159.076 219.569 159.219C219.77 159.328 219.966 159.438 220.023 159.598C220.063 159.713 220.029 159.869 219.937 159.983C219.845 160.093 219.707 160.179 219.523 160.236C219.092 160.369 218.598 160.288 218.236 160.024C218.156 159.966 218.041 159.983 217.983 160.064C217.926 160.144 217.943 160.259 218.023 160.317C218.334 160.541 218.719 160.662 219.104 160.662C219.282 160.662 219.46 160.633 219.632 160.581C219.885 160.501 220.086 160.38 220.219 160.208C220.402 160.018 220.46 159.736 220.374 159.495Z" fill="#D8AE82"/>
<path d="M218.288 129.658C218.219 129.658 218.15 129.618 218.122 129.543C218.087 129.451 218.127 129.342 218.225 129.308C220.104 128.555 221.673 126.98 222.42 125.101C222.46 125.009 222.564 124.963 222.656 124.998C222.748 125.032 222.794 125.141 222.759 125.233C221.978 127.204 220.328 128.854 218.357 129.647C218.334 129.653 218.311 129.658 218.288 129.658Z" fill="black"/>
<path d="M220.525 132.095C220.514 132.095 220.502 132.095 220.485 132.089C218.692 131.698 216.801 131.698 215.014 132.078C214.911 132.101 214.819 132.037 214.802 131.94C214.779 131.842 214.842 131.744 214.94 131.727C216.778 131.336 218.727 131.342 220.566 131.739C220.663 131.762 220.726 131.859 220.703 131.957C220.68 132.037 220.606 132.095 220.525 132.095Z" fill="black"/>
<path d="M215.164 134.411C215.141 134.411 215.113 134.405 215.09 134.393C214.578 134.175 214.009 134.066 213.458 134.077C213.371 134.077 213.274 134.003 213.274 133.899C213.268 133.802 213.348 133.715 213.452 133.715C214.061 133.704 214.676 133.819 215.239 134.06C215.331 134.1 215.371 134.21 215.331 134.302C215.297 134.37 215.233 134.411 215.164 134.411Z" fill="black"/>
<path d="M209.017 144.036C208.943 144.036 208.874 143.99 208.845 143.916C208.276 142.318 208.184 140.531 208.569 138.882C208.592 138.784 208.684 138.721 208.787 138.744C208.885 138.767 208.948 138.864 208.925 138.962C208.552 140.542 208.649 142.261 209.19 143.795C209.224 143.887 209.172 143.996 209.08 144.025C209.058 144.031 209.035 144.036 209.017 144.036Z" fill="black"/>
<path d="M204.964 144.939C204.866 144.939 204.785 144.864 204.78 144.766C204.716 143.554 205.136 142.336 205.929 141.422C205.998 141.347 206.113 141.336 206.188 141.405C206.262 141.474 206.274 141.583 206.205 141.663C205.475 142.514 205.084 143.634 205.142 144.755C205.147 144.853 205.067 144.939 204.969 144.945C204.969 144.939 204.969 144.939 204.964 144.939Z" fill="black"/>
<path d="M254.107 167.54C253.446 165.92 252.75 164.305 252.043 162.69C251.135 160.61 250.205 158.541 249.159 156.524C248.515 155.289 247.71 154.122 246.992 152.921C245.693 153.536 244.446 154.26 243.159 154.909C238.964 156.444 234.752 157.932 230.591 159.553C228.517 160.363 226.511 161.288 224.54 162.311C223.385 163.472 222.132 164.518 220.684 165.328C218.966 166.288 217.144 166.753 215.173 166.707C213.88 166.678 212.604 166.449 211.334 166.23C210.495 166.897 209.736 167.655 208.949 168.385C207.989 169.27 206.989 170.115 205.984 170.948C203.886 172.695 201.743 174.385 199.685 176.183C197.025 178.522 194.485 180.993 192.008 183.522C192.358 184.321 192.766 185.097 193.151 185.867C193.944 187.447 194.801 188.999 195.726 190.504C196.87 192.372 198.094 194.245 199.479 195.975C199.777 195.843 200.059 195.653 200.3 195.51C200.559 195.349 200.955 195.107 201.203 194.935C202.737 193.889 204.323 192.929 205.926 191.998C205.932 191.993 205.944 191.987 205.949 191.987C206.874 191.452 208.012 192.211 207.892 193.274C207.759 194.51 207.633 195.745 207.518 196.987C206.788 204.813 206.403 212.675 206.369 220.536C206.352 224.042 206.438 227.547 206.541 231.053C207.466 231.11 208.397 231.208 209.317 231.3C211.38 231.507 213.449 231.593 215.518 231.662C227.074 232.036 238.792 230.702 249.923 227.438C249.802 226.961 249.676 226.479 249.567 226.007C249.21 224.433 248.848 222.864 248.486 221.295C247.751 218.106 247.061 214.905 246.417 211.698C245.124 205.279 244.015 198.825 243.084 192.343C242.671 189.453 242.309 186.556 241.975 183.66C243.544 180.471 245.412 177.419 247.555 174.603C249.463 172.08 251.67 169.649 254.107 167.54Z" fill="#E527BB"/>
<path d="M214.93 182.441C214.896 182.441 214.855 182.43 214.827 182.407C214.746 182.349 214.723 182.234 214.786 182.154C218.464 176.976 221.458 171.333 223.671 165.379C223.705 165.288 223.809 165.236 223.906 165.27C223.998 165.305 224.05 165.408 224.016 165.506C221.792 171.488 218.786 177.16 215.085 182.367C215.045 182.418 214.987 182.441 214.93 182.441Z" fill="#A54444"/>
<path d="M206.942 188.539C206.844 188.539 206.758 188.458 206.758 188.355V176.408C206.758 176.31 206.838 176.224 206.942 176.224C207.045 176.224 207.126 176.304 207.126 176.408V188.355C207.12 188.458 207.039 188.539 206.942 188.539Z" fill="#A54444"/>
<path d="M204.841 188.901C204.806 188.901 204.772 188.889 204.743 188.872C202.479 187.372 200.674 185.165 199.663 182.648C199.623 182.556 199.669 182.447 199.761 182.413C199.853 182.373 199.962 182.419 199.996 182.511C200.985 184.959 202.738 187.108 204.939 188.568C205.025 188.625 205.048 188.734 204.99 188.82C204.962 188.872 204.904 188.901 204.841 188.901Z" fill="#A54444"/>
<path d="M202.384 189.671C202.355 189.671 202.327 189.665 202.304 189.648C201.286 189.131 200.373 188.378 199.672 187.476C199.608 187.395 199.626 187.28 199.7 187.217C199.781 187.154 199.89 187.171 199.953 187.246C200.626 188.108 201.493 188.82 202.464 189.32C202.556 189.366 202.591 189.475 202.545 189.562C202.516 189.636 202.453 189.671 202.384 189.671Z" fill="#A54444"/>
<path d="M215.056 215.864C215.021 215.864 214.993 215.853 214.964 215.841C214.878 215.79 214.849 215.68 214.901 215.594C224.13 200.153 230.773 183.413 234.652 165.845C234.675 165.747 234.773 165.69 234.87 165.707C234.968 165.73 235.031 165.828 235.008 165.926C231.124 183.533 224.463 200.302 215.217 215.778C215.177 215.835 215.119 215.864 215.056 215.864Z" fill="#A54444"/>
<path d="M230.655 198.199C230.626 198.199 230.603 198.193 230.574 198.182C230.482 198.136 230.442 198.032 230.488 197.94C232.568 193.584 234.286 189.01 235.591 184.355C235.62 184.257 235.717 184.2 235.815 184.229C235.913 184.257 235.97 184.355 235.941 184.453C234.625 189.131 232.901 193.716 230.815 198.095C230.787 198.159 230.723 198.199 230.655 198.199Z" fill="#A54444"/>
<path d="M222.867 225.524C222.775 225.524 222.7 225.455 222.689 225.364C222.677 225.266 222.746 225.174 222.844 225.157C229.016 224.346 234.952 221.594 239.561 217.41C239.636 217.341 239.751 217.347 239.82 217.422C239.889 217.496 239.883 217.611 239.808 217.68C235.148 221.91 229.137 224.697 222.896 225.519C222.884 225.524 222.878 225.524 222.867 225.524Z" fill="#A54444"/>
<path d="M305.401 54.7042C305.401 73.8694 289.862 89.4085 270.696 89.4085C251.531 89.4085 235.992 73.8694 235.992 54.7042C235.992 35.539 251.531 20 270.696 20C289.862 20 305.401 35.539 305.401 54.7042Z" fill="#E527BB"/>
<path d="M299.351 54.704C299.351 39.2397 286.812 26.7004 271.347 26.7004C255.877 26.7004 243.344 39.2397 243.344 54.704C243.344 70.1684 255.883 82.7077 271.347 82.7077C286.817 82.7077 299.351 70.1684 299.351 54.704Z" fill="white"/>
<path d="M270.695 32.8724H271.35V27.821H270.695V32.8724Z" fill="#A78BEF"/>
<path d="M270.695 81.2997H271.35V76.2542H270.695V81.2997Z" fill="#A78BEF"/>
<path d="M250.663 54.7041H245.055V54.095H250.663V54.7041Z" fill="#A78BEF"/>
<path d="M261.318 36.4873L257.922 32.0221L258.41 31.6543L261.807 36.1195L261.318 36.4873Z" fill="#A78BEF"/>
<path d="M280.703 36.0273L284.295 31.7173L284.766 32.1081L281.174 36.4181L280.703 36.0273Z" fill="#A78BEF"/>
<path d="M288.172 43.8374L292.838 40.7227L293.177 41.2284L288.511 44.3431L288.172 43.8374Z" fill="#A78BEF"/>
<path d="M257.875 76.3002L261.392 71.927L261.869 72.312L258.352 76.6853L257.875 76.3002Z" fill="#A78BEF"/>
<path d="M249.289 65.4677L253.955 62.353L254.294 62.8587L249.628 65.9734L249.289 65.4677Z" fill="#A78BEF"/>
<path d="M289.258 63.8413L294.114 66.6457L293.809 67.1744L288.953 64.37L289.258 63.8413Z" fill="#A78BEF"/>
<path d="M281.71 71.99L285.388 76.2253L284.928 76.6276L281.25 72.3923L281.71 71.99Z" fill="#A78BEF"/>
<path d="M254.965 44.0843L249.977 41.5213L250.258 40.9753L255.246 43.5384L254.965 44.0843Z" fill="#A78BEF"/>
<path d="M297.968 54.3997H292.359V53.7905H297.968V54.3997Z" fill="#A78BEF"/>
<path d="M271.344 54.7041L278.964 39.0386L281.648 37.4985V40.3029L271.976 55.5891L271.344 54.7041Z" fill="#A78BEF"/>
<path d="M271.85 51.4055L271.195 64.4505C271.195 64.4505 272.724 65.7148 273.115 65.7148C273.505 65.7148 274.046 64.1747 274.046 64.1747L272.483 52.1124L271.85 51.4055Z" fill="#A78BEF"/>
<path d="M273.795 55.1008C273.795 56.1755 272.921 57.049 271.847 57.049C270.772 57.049 269.898 56.1812 269.898 55.1008C269.898 54.0262 270.772 53.1584 271.847 53.1584C272.921 53.1584 273.795 54.0262 273.795 55.1008Z" fill="#A78BEF"/>
<path d="M248.8 30.4817C247.116 31.7517 244.685 33.901 242.593 37.1939C240.944 39.7914 240.053 42.2395 239.553 44.0497C239.496 44.2623 239.617 44.4807 239.829 44.5381C240.042 44.5956 240.26 44.4749 240.318 44.2623C240.8 42.5095 241.668 40.1362 243.266 37.6191C245.289 34.4297 247.645 32.3437 249.277 31.1196C249.455 30.9874 249.489 30.7403 249.357 30.5622C249.225 30.384 248.972 30.3496 248.8 30.4817Z" fill="#A78BEF"/>
</g>
<defs>
<clipPath id="clip0_2178_2185">
<rect width="542.64" height="328.79" fill="white"/>
</clipPath>
</defs>
</svg>
