<svg width="543" height="329" viewBox="0 0 543 329" fill="none" xmlns="http://www.w3.org/2000/svg">
<g clip-path="url(#clip0_2178_2185)">
<path opacity="0.2" d="M78.788 327.839C41.4882 290.535 -9.49424 252.012 10.4949 193.818C23.6478 155.541 55.8804 144.88 82.6859 121.276C95.9087 109.631 87.5932 92.6757 87.3433 75.8481C86.7836 32.7513 139.135 -0.687543 187.269 0.010739C239.401 0.768031 261.969 48.9102 305.705 51.4968C322.876 51.7426 338.257 42.4781 353.449 35.1314C398.465 13.3371 469.906 27.2339 473.514 79.9296C474.444 108.392 439.183 154.174 474.514 169.143C502.668 181.072 531.113 185.469 536.19 228.133C542.837 283.976 507.716 314.621 461.971 329L78.788 327.839Z" fill="#999999"/>
<path d="M400.606 300.775C400.606 300.775 441.656 270.172 463.692 287.286C485.725 304.407 429.146 325.565 415.033 325.823L400.606 300.775Z" fill="#1F8F1F"/>
<path d="M409.104 315.514C408.919 315.189 453.072 297.605 464.857 292.916" stroke="#1DCEB4" stroke-width="1.0229" stroke-miterlimit="10" stroke-linecap="round"/>
<path d="M405.917 310.013L451.081 284.218" stroke="#1DCEB4" stroke-width="1.0229" stroke-miterlimit="10" stroke-linecap="round"/>
<path d="M412.107 320.753L462.669 303.869" stroke="#1DCEB4" stroke-width="1.0229" stroke-miterlimit="10" stroke-linecap="round"/>
<path d="M447.922 286.02L443.352 301.494" stroke="#1DCEB4" stroke-width="1.0229" stroke-miterlimit="10" stroke-linecap="round"/>
<path d="M381.264 280.499C381.264 280.499 433.682 222.812 455.594 244.705C477.506 266.597 412.535 307.411 396.725 309.875L381.264 280.499Z" fill="#39B039"/>
<path d="M455.8 248.773L389.549 296.277" stroke="#1DCEB4" stroke-width="1.0229" stroke-miterlimit="10" stroke-linecap="round"/>
<path d="M437.691 242.542L385.871 289.287" stroke="#1DCEB4" stroke-width="1.0229" stroke-miterlimit="10" stroke-linecap="round"/>
<path d="M392.91 302.663C392.788 302.433 443.779 270.302 456.321 262.414" stroke="#1DCEB4" stroke-width="1.0229" stroke-miterlimit="10" stroke-linecap="round"/>
<path d="M420.812 249.508L417.6 260.656" stroke="#1DCEB4" stroke-width="1.0229" stroke-miterlimit="10" stroke-linecap="round"/>
<path d="M433.683 264.647L450.658 265.981" stroke="#1DCEB4" stroke-width="1.0229" stroke-miterlimit="10" stroke-linecap="round"/>
<path d="M426.148 252.962L417.004 276.603" stroke="#1DCEB4" stroke-width="1.0229" stroke-miterlimit="10" stroke-linecap="round"/>
<path d="M414.453 288.842L430.435 290.071" stroke="#1DCEB4" stroke-width="1.0229" stroke-miterlimit="10" stroke-linecap="round"/>
<path d="M427.85 63H254.352V326.028H427.85V63Z" fill="white" stroke="#91B6E0" stroke-width="1.5901" stroke-miterlimit="10" stroke-linecap="round" stroke-linejoin="round"/>
<path d="M376.49 83.5396H275.938V88.8322H376.49V83.5396Z" fill="#E527BB"/>
<path d="M275.938 98.1702H412.291" stroke="#91B6E0" stroke-width="0.9872" stroke-miterlimit="10" stroke-linecap="round" stroke-linejoin="round"/>
<path d="M275.938 108.444H332.598" stroke="#91B6E0" stroke-width="0.9872" stroke-miterlimit="10" stroke-linecap="round" stroke-linejoin="round"/>
<path d="M412.293 298.652H322.43V303.945H412.293V298.652Z" fill="#A78BEF"/>
<path d="M275.938 135.531H376.49" stroke="#91B6E0" stroke-width="0.9872" stroke-miterlimit="10" stroke-linecap="round" stroke-linejoin="round"/>
<path d="M275.938 145.804H332.598" stroke="#91B6E0" stroke-width="0.9872" stroke-miterlimit="10" stroke-linecap="round" stroke-linejoin="round"/>
<path d="M275.938 168.526H376.49" stroke="#91B6E0" stroke-width="0.9872" stroke-miterlimit="10" stroke-linecap="round" stroke-linejoin="round"/>
<path d="M275.938 178.8H356.255" stroke="#91B6E0" stroke-width="0.9872" stroke-miterlimit="10" stroke-linecap="round" stroke-linejoin="round"/>
<path d="M275.938 201.529H376.49" stroke="#91B6E0" stroke-width="0.9872" stroke-miterlimit="10" stroke-linecap="round" stroke-linejoin="round"/>
<path d="M275.938 211.802H307.693" stroke="#91B6E0" stroke-width="0.9872" stroke-miterlimit="10" stroke-linecap="round" stroke-linejoin="round"/>
<path d="M275.938 234.524H376.49" stroke="#91B6E0" stroke-width="0.9872" stroke-miterlimit="10" stroke-linecap="round" stroke-linejoin="round"/>
<path d="M275.938 244.798H332.598" stroke="#91B6E0" stroke-width="0.9872" stroke-miterlimit="10" stroke-linecap="round" stroke-linejoin="round"/>
<path d="M275.938 267.52H376.49" stroke="#91B6E0" stroke-width="0.9872" stroke-miterlimit="10" stroke-linecap="round" stroke-linejoin="round"/>
<path d="M275.938 277.793H332.598" stroke="#91B6E0" stroke-width="0.9872" stroke-miterlimit="10" stroke-linecap="round" stroke-linejoin="round"/>
<path d="M412.288 133.036H398.125V147.2H412.288V133.036Z" stroke="#91B6E0" stroke-width="0.9872" stroke-miterlimit="10" stroke-linecap="round" stroke-linejoin="round"/>
<path d="M395.586 135.531C395.586 135.531 404.197 139.368 409.489 145.804" stroke="#E527BB" stroke-width="2.5442" stroke-miterlimit="10" stroke-linecap="round" stroke-linejoin="round"/>
<path d="M400.852 145.804L408.972 131.277" stroke="#E527BB" stroke-width="2.5442" stroke-miterlimit="10" stroke-linecap="round" stroke-linejoin="round"/>
<path d="M412.288 166.039H398.125V180.202H412.288V166.039Z" stroke="#91B6E0" stroke-width="0.9872" stroke-miterlimit="10" stroke-linecap="round" stroke-linejoin="round"/>
<path d="M412.288 199.035H398.125V213.198H412.288V199.035Z" stroke="#91B6E0" stroke-width="0.9872" stroke-miterlimit="10" stroke-linecap="round" stroke-linejoin="round"/>
<path d="M401.352 196.979C401.352 196.979 407.832 203.83 410.252 211.795" stroke="#E527BB" stroke-width="2.5442" stroke-miterlimit="10" stroke-linecap="round" stroke-linejoin="round"/>
<path d="M402.281 208.484L415.346 198.181" stroke="#E527BB" stroke-width="2.5442" stroke-miterlimit="10" stroke-linecap="round" stroke-linejoin="round"/>
<path d="M412.288 232.038H398.125V246.201H412.288V232.038Z" stroke="#91B6E0" stroke-width="0.9872" stroke-miterlimit="10" stroke-linecap="round" stroke-linejoin="round"/>
<path d="M395.586 234.524C395.586 234.524 404.197 238.362 409.489 244.798" stroke="#E527BB" stroke-width="2.5442" stroke-miterlimit="10" stroke-linecap="round" stroke-linejoin="round"/>
<path d="M400.852 244.798L408.972 230.271" stroke="#E527BB" stroke-width="2.5442" stroke-miterlimit="10" stroke-linecap="round" stroke-linejoin="round"/>
<path d="M412.288 265.033H398.125V279.196H412.288V265.033Z" stroke="#91B6E0" stroke-width="0.9872" stroke-miterlimit="10" stroke-linecap="round" stroke-linejoin="round"/>
<path d="M396.266 170.241L404.201 177.716C404.201 177.716 406.999 168.533 412.292 163.397" stroke="#E527BB" stroke-width="2.5442" stroke-miterlimit="10" stroke-linecap="round" stroke-linejoin="round"/>
<path d="M110.643 276.813C97.7272 258.842 84.0762 185.458 99.1153 164.985C114.154 144.512 129.914 147.162 138.539 160.108C147.165 173.054 125.838 227.198 157.78 274.074L110.643 276.813Z" fill="#39B039"/>
<path d="M119.465 166.277C119.465 166.277 110.736 206.057 129.293 270.467" stroke="#1DCEB4" stroke-width="1.0229" stroke-miterlimit="10" stroke-linecap="round"/>
<path d="M64.019 293.805C64.019 293.805 20.2305 264.402 35.0691 241.079C49.9078 217.756 81.0995 269.576 81.0995 269.576L64.019 293.805Z" fill="#39B039"/>
<path d="M38.2734 239.446L71.7291 282.863" stroke="#1DCEB4" stroke-width="1.0229" stroke-miterlimit="10" stroke-linecap="round"/>
<path d="M33.1562 253.787L68.7052 287.153" stroke="#1DCEB4" stroke-width="1.0229" stroke-miterlimit="10" stroke-linecap="round"/>
<path d="M51.1328 237.857L76.3341 276.338" stroke="#1DCEB4" stroke-width="1.0229" stroke-miterlimit="10" stroke-linecap="round"/>
<path d="M56.3828 262.947L58.5132 249.11" stroke="#1DCEB4" stroke-width="1.0229" stroke-miterlimit="10" stroke-linecap="round"/>
<path d="M38.6484 258.931L50.8074 255.71" stroke="#1DCEB4" stroke-width="1.0229" stroke-miterlimit="10" stroke-linecap="round"/>
<path d="M79.7202 269.902C79.2599 269.962 52.5889 228.088 61.2293 204.119C69.8698 180.15 94.1877 192.881 99.5545 212.188C104.921 231.496 104.766 263.214 104.766 263.214L79.7202 269.902Z" fill="#1F8F1F"/>
<path d="M72.8516 193.594C75.895 205.47 92.4039 266.525 92.4039 266.525" stroke="#1DCEB4" stroke-width="1.0229" stroke-miterlimit="10" stroke-linecap="round"/>
<path d="M88.6562 197.854L98.618 264.862" stroke="#1DCEB4" stroke-width="1.0229" stroke-miterlimit="10" stroke-linecap="round"/>
<path d="M85.562 268.344L61.5781 207.401" stroke="#1DCEB4" stroke-width="1.0229" stroke-miterlimit="10" stroke-linecap="round"/>
<path d="M78.604 215.284L63.4609 212.166" stroke="#1DCEB4" stroke-width="1.0229" stroke-miterlimit="10" stroke-linecap="round"/>
<path d="M92.867 226.188L84.375 236.766" stroke="#1DCEB4" stroke-width="1.0229" stroke-miterlimit="10" stroke-linecap="round"/>
<path d="M100.987 218.156L91.3516 215.922" stroke="#1DCEB4" stroke-width="1.0229" stroke-miterlimit="10" stroke-linecap="round"/>
<path d="M45.2579 326.021C41.5242 300.968 61.559 251.048 94.2426 250.736C126.926 250.424 134.787 269.517 170.084 273.666C205.381 277.815 221.54 300.552 217.977 316.853C216.27 324.67 211.757 326.013 211.757 326.013H45.2579V326.021Z" fill="#DECEE4"/>
<path d="M274.734 151.898L273.687 150.585C273.687 150.585 270.525 149.998 269.865 146.591C269.865 146.591 268.462 145.017 267.957 144.431C267.445 143.844 267.964 143.08 268.625 143.577C269.286 144.075 270.369 144.928 270.369 144.928C270.369 144.928 269.768 143.406 268.9 142.538C268.031 141.669 266.843 141.194 267.14 140.474C267.437 139.762 268.914 140.653 268.914 140.653C268.395 140.081 267.549 139.725 267.957 139.034C268.372 138.351 270.028 139.487 270.028 139.487C269.538 139.042 269.434 138.723 269.642 138.463C270.169 137.795 273.056 139.413 274.222 142.1C274.222 142.1 277.087 145.032 276.909 147.148L278.082 148.528L274.734 151.898Z" fill="#FFADB7"/>
<path d="M273.172 145.091C273.172 145.091 273.669 143.777 274.419 143.295C274.419 143.295 273.402 141.988 273.588 140.971C273.766 139.955 274.642 140.021 274.879 140.585C275.117 141.142 275.488 142.011 275.963 142.508C276.438 143.005 277.819 145.284 276.906 147.155C276 149.018 273.172 145.091 273.172 145.091Z" fill="#FFADB7"/>
<path d="M268.914 140.652C269.842 141.335 271.186 142.686 271.52 143.503L268.914 140.652Z" fill="#FFADB7"/>
<path d="M270.031 139.494C270.981 140.177 272.117 141.424 272.637 142.389L270.031 139.494Z" fill="#FFADB7"/>
<path d="M273.555 152.225C273.555 152.225 286.107 168.83 301.154 180.863C316.2 192.903 316.2 175.466 316.2 175.466C316.2 175.466 287.874 158.483 277.912 147.689L273.555 152.225Z" fill="#A78BEF"/>
<path opacity="0.5" d="M301.165 180.863C316.212 192.903 316.212 175.467 316.212 175.467C316.212 175.467 311.045 172.371 304.357 167.984C297.573 169.81 295.628 173.834 295.086 175.66C297.053 177.449 299.08 179.2 301.165 180.863Z" fill="url(#paint0_linear_2178_2185)"/>
<path d="M225.612 116.416H200.5V122.125H225.612V116.416Z" fill="#E527BB"/>
<path d="M232.767 96.8044H193.336V116.416H232.767V96.8044Z" fill="#E527BB"/>
<path d="M196.141 96.8044V116.416" stroke="white" stroke-width="0.7951" stroke-miterlimit="10"/>
<path d="M199.531 96.8044V116.416" stroke="white" stroke-width="0.7951" stroke-miterlimit="10"/>
<path d="M202.906 96.8044V116.416" stroke="white" stroke-width="0.7951" stroke-miterlimit="10"/>
<path d="M206.289 96.8044V116.416" stroke="white" stroke-width="0.7951" stroke-miterlimit="10"/>
<path d="M209.672 96.8044V116.416" stroke="white" stroke-width="0.7951" stroke-miterlimit="10"/>
<path d="M213.055 96.8044V116.416" stroke="white" stroke-width="0.7951" stroke-miterlimit="10"/>
<path d="M216.438 96.8044V116.416" stroke="white" stroke-width="0.7951" stroke-miterlimit="10"/>
<path d="M219.82 96.8044V116.416" stroke="white" stroke-width="0.7951" stroke-miterlimit="10"/>
<path d="M223.211 96.8044V116.416" stroke="white" stroke-width="0.7951" stroke-miterlimit="10"/>
<path d="M226.586 96.8044V116.416" stroke="white" stroke-width="0.7951" stroke-miterlimit="10"/>
<path d="M229.969 96.8044V116.416" stroke="white" stroke-width="0.7951" stroke-miterlimit="10"/>
<path d="M171.305 119.983L159.586 126.75L163.943 134.296L175.662 127.53L171.305 119.983Z" fill="#E527BB"/>
<path d="M160.828 126.044L165.185 133.593" stroke="white" stroke-width="0.7951" stroke-miterlimit="10"/>
<path d="M162.367 125.153L166.725 132.702" stroke="white" stroke-width="0.7951" stroke-miterlimit="10"/>
<path d="M163.906 124.262L168.264 131.812" stroke="white" stroke-width="0.7951" stroke-miterlimit="10"/>
<path d="M165.461 123.372L169.818 130.921" stroke="white" stroke-width="0.7951" stroke-miterlimit="10"/>
<path d="M166.992 122.481L171.357 130.03" stroke="white" stroke-width="0.7951" stroke-miterlimit="10"/>
<path d="M168.539 121.59L172.896 129.139" stroke="white" stroke-width="0.7951" stroke-miterlimit="10"/>
<path d="M170.078 120.699L174.435 128.248" stroke="white" stroke-width="0.7951" stroke-miterlimit="10"/>
<path d="M274.693 267.461C308.734 233.42 308.734 178.228 274.693 144.187C240.651 110.145 185.46 110.145 151.418 144.187C117.377 178.228 117.377 233.42 151.418 267.461C185.46 301.502 240.651 301.502 274.693 267.461Z" fill="#E527BB"/>
<path d="M269.126 261.892C300.092 230.926 300.092 180.721 269.126 149.756C238.161 118.79 187.956 118.79 156.99 149.756C126.024 180.721 126.024 230.926 156.99 261.892C187.956 292.857 238.161 292.857 269.126 261.892Z" fill="white"/>
<path d="M213.056 212.055C216.496 212.055 219.284 209.266 219.284 205.827C219.284 202.387 216.496 199.599 213.056 199.599C209.616 199.599 206.828 202.387 206.828 205.827C206.828 209.266 209.616 212.055 213.056 212.055Z" fill="#A78BEF"/>
<path d="M213.061 148.491C214.553 148.491 215.756 149.701 215.756 151.186V205.819H210.359V151.186C210.359 149.701 211.569 148.491 213.061 148.491Z" fill="#A78BEF"/>
<path d="M172.898 205.827C172.898 204.335 174.108 203.132 175.593 203.132H213.05V208.529H175.593C174.101 208.521 172.898 207.312 172.898 205.827Z" fill="#A78BEF"/>
<path d="M213.055 134.558V141.647" stroke="#01004C" stroke-width="3.1803" stroke-miterlimit="10" stroke-linecap="round" stroke-linejoin="round"/>
<path d="M177.422 144.112L180.963 150.243" stroke="#01004C" stroke-width="3.1803" stroke-miterlimit="10" stroke-linecap="round" stroke-linejoin="round"/>
<path d="M151.336 170.196L157.475 173.737" stroke="#01004C" stroke-width="3.1803" stroke-miterlimit="10" stroke-linecap="round" stroke-linejoin="round"/>
<path d="M141.789 205.827H148.871" stroke="#01004C" stroke-width="3.1803" stroke-miterlimit="10" stroke-linecap="round" stroke-linejoin="round"/>
<path d="M151.336 241.457L157.475 237.917" stroke="#01004C" stroke-width="3.1803" stroke-miterlimit="10" stroke-linecap="round" stroke-linejoin="round"/>
<path d="M177.422 267.542L180.963 261.403" stroke="#01004C" stroke-width="3.1803" stroke-miterlimit="10" stroke-linecap="round" stroke-linejoin="round"/>
<path d="M213.055 277.088V270.006" stroke="#01004C" stroke-width="3.1803" stroke-miterlimit="10" stroke-linecap="round" stroke-linejoin="round"/>
<path d="M248.689 267.542L245.148 261.403" stroke="#01004C" stroke-width="3.1803" stroke-miterlimit="10" stroke-linecap="round" stroke-linejoin="round"/>
<path d="M274.779 241.457L268.641 237.917" stroke="#01004C" stroke-width="3.1803" stroke-miterlimit="10" stroke-linecap="round" stroke-linejoin="round"/>
<path d="M284.324 205.827H277.242" stroke="#01004C" stroke-width="3.1803" stroke-miterlimit="10" stroke-linecap="round" stroke-linejoin="round"/>
<path d="M274.779 170.196L268.641 173.737" stroke="#01004C" stroke-width="3.1803" stroke-miterlimit="10" stroke-linecap="round" stroke-linejoin="round"/>
<path d="M248.689 144.112L245.148 150.243" stroke="#01004C" stroke-width="3.1803" stroke-miterlimit="10" stroke-linecap="round" stroke-linejoin="round"/>
<path d="M141.395 321.27L140.438 326.021H155.514L146.688 321.27H141.395Z" fill="#A78BEF"/>
<path d="M113.067 293.219C120.334 287.77 128.759 271.87 141.007 273.837C153.255 275.811 146.693 321.263 146.693 321.263L141.43 321.515L136.732 295.779C136.732 295.779 126.458 305.585 119.369 305.266C102.571 304.509 113.067 293.219 113.067 293.219Z" fill="black"/>
<path d="M101.933 284.734C101.933 284.734 97.6281 299.832 105.719 304.294C113.81 308.755 138.715 313.112 138.403 313.112C138.091 313.112 122.213 311.138 113.602 312.489V318.093C113.602 318.093 139.754 324.217 148.469 319.444C157.183 314.671 154.8 301.495 127.61 290.494L101.933 284.734Z" fill="black"/>
<path d="M113.609 312.496L109.252 311.561L108.398 326.021L113.609 318.1V312.496Z" fill="#A78BEF"/>
<path d="M130.635 237.709C129.016 237.085 123.345 234.695 123.746 228.95C123.746 228.95 121.155 224.065 124.05 220.146C127.606 215.328 131.132 216.887 131.132 216.887C131.132 216.887 140.396 212.901 142.014 216.731C143.64 220.562 139.594 224.34 139.594 224.34L130.635 237.709Z" fill="black"/>
<path d="M129.271 239.951C129.271 239.951 131.379 240.916 134.089 240.567L134.467 236.633C134.467 236.633 139.225 236.9 139.856 231.993C140.487 227.087 139.277 223.026 139.277 223.026C139.277 223.026 137.117 222.351 135.61 225.171C134.103 228 134.267 228.675 133.227 228.579C132.181 228.475 132.76 226.463 130.57 226.485C128.38 226.508 126.287 231.073 130.013 232.253L129.271 239.951Z" fill="#FFADB7"/>
<path opacity="0.75" d="M134.467 236.633C133.175 236.625 132.047 235.838 132.047 235.838C132.433 237.887 134.303 238.31 134.303 238.31L134.467 236.633Z" fill="url(#paint1_linear_2178_2185)"/>
<path d="M129.639 230.754C129.253 230.442 129.104 230.011 129.186 229.454C129.327 228.512 130.091 227.673 130.596 227.666C131.131 227.666 131.16 227.732 131.398 228.267" stroke="#EF8998" stroke-width="0.53" stroke-miterlimit="10" stroke-linecap="round"/>
<path d="M129.688 228.282C129.688 228.282 129.791 229.091 130.697 229.403" stroke="#EF8998" stroke-width="0.53" stroke-miterlimit="10" stroke-linecap="round"/>
<path opacity="0.51" d="M138.74 232.127C138.658 230.612 137.367 229.454 135.853 229.536C134.338 229.618 133.18 230.909 133.262 232.424C133.344 233.938 134.635 235.096 136.149 235.014C137.664 234.933 138.822 233.641 138.74 232.127Z" fill="url(#paint2_radial_2178_2185)"/>
<path d="M137.203 227.116C137.203 227.116 138.198 226.455 139.17 227.213" stroke="#EF8998" stroke-width="0.53" stroke-miterlimit="10" stroke-linecap="round"/>
<path d="M169.024 279.938L173.033 281.497C173.033 281.497 173.612 280.688 175.75 280.718C177.888 280.748 178.192 280.376 178.622 281.052C179.053 281.727 177.954 282.358 177.175 282.633C176.396 282.908 176.433 283.687 176.945 283.984C177.457 284.281 180.508 285.498 181.51 285.587C182.512 285.677 182.817 286.768 182 287.035C182 287.035 182.809 287.183 182.779 287.814C182.75 288.438 181.963 288.631 181.488 288.571C181.488 288.571 181.903 288.831 181.733 289.299C181.562 289.767 180.515 290.041 178.504 289.574C176.5 289.106 175.431 288.557 175.431 288.557C175.431 288.557 176.893 289.707 177.45 290.197C178.006 290.687 177.836 291.533 176.834 291.036C175.831 290.539 172.023 287.644 170.828 286.204L167.258 284.949L169.024 279.938Z" fill="#FFADB7"/>
<path d="M181.647 287.013C180.326 286.916 178.759 286.671 176.703 285.87" stroke="#EF8998" stroke-width="0.53" stroke-miterlimit="10" stroke-linecap="round" stroke-linejoin="round"/>
<path d="M181.078 288.542C179.459 288.401 177.737 287.881 176.305 287.354" stroke="#EF8998" stroke-width="0.53" stroke-miterlimit="10" stroke-linecap="round" stroke-linejoin="round"/>
<path d="M101.93 284.734C101.93 284.734 114.534 289.715 127.613 290.494L137.263 261.544C137.263 261.544 145.221 277.422 169.027 285.981L171.506 280.688C171.506 280.688 156.259 268.411 143.803 246.394C136.224 233.01 103.229 236.536 101.93 284.734Z" fill="#A78BEF"/>
<path d="M292.667 316.861L291.999 321.24L282.891 326.021H299.667L299.199 316.861H292.667Z" fill="#A78BEF"/>
<path d="M340.148 313.238L341.685 317.113L336.719 325.605L350.251 317.588L345.931 309.787L340.148 313.238Z" fill="#A78BEF"/>
<path d="M301.115 228.393C294.732 248.472 288.207 273.376 291.948 317.113H299.675C299.675 317.113 299.089 292.832 303.142 278.513C307.187 264.194 315.902 245.206 315.902 245.206C315.902 245.206 321.506 291.422 339.715 314.04L346.44 310.262C346.44 310.262 335.358 270.882 331.156 227.769L301.115 228.393Z" fill="black"/>
<path d="M314.374 171.072C318.88 168.882 317.685 166.039 319.14 163.731C320.595 161.415 322.376 155.142 319.6 152.099C316.824 149.063 312.199 150.778 312.199 150.778C312.199 150.778 308.963 147.088 302.95 148.373C296.937 149.657 297.628 157.51 301.807 159.099C305.986 160.687 308.963 162.937 308.963 162.937L314.374 171.072Z" fill="black"/>
<path d="M309.3 177.174L308.707 171.065C308.707 171.065 300.905 172.601 301.328 164.77C301.328 164.77 300.378 164.421 299.688 163.931C299.688 163.931 301.766 160.131 302.427 156.924C302.427 156.924 304.379 159.633 306.888 158.705C309.397 157.777 310.585 158.245 310.948 159.529C311.312 160.821 311.839 161.244 312.403 160.583C312.967 159.923 312.255 157.629 314.905 157.726C317.555 157.822 316.798 164.584 313.39 163.953L315.165 176.81C315.172 176.818 311.846 178.228 309.3 177.174Z" fill="#FFADB7"/>
<path opacity="0.51" d="M306.246 169.342C307.931 169.342 309.297 167.977 309.297 166.292C309.297 164.607 307.931 163.241 306.246 163.241C304.561 163.241 303.195 164.607 303.195 166.292C303.195 167.977 304.561 169.342 306.246 169.342Z" fill="url(#paint3_radial_2178_2185)"/>
<path d="M313.766 159.002C313.914 158.728 314.174 158.601 314.745 158.601H314.879C315.414 158.624 315.644 159.492 315.629 160.286C315.621 160.628 315.577 160.977 315.488 161.303" stroke="#EF8998" stroke-width="0.53" stroke-miterlimit="10" stroke-linecap="round"/>
<path d="M314.695 160.279C314.695 160.279 315.037 159.73 315.519 159.351" stroke="#EF8998" stroke-width="0.53" stroke-miterlimit="10" stroke-linecap="round"/>
<path d="M302.828 161.303C302.828 161.303 303.927 160.309 305.166 161.303" stroke="#EF8998" stroke-width="0.53" stroke-miterlimit="10" stroke-linecap="round"/>
<path opacity="0.75" d="M308.933 173.366C310.648 173.024 311.836 170.211 311.836 170.211C311.836 170.211 310.537 170.805 308.703 171.065L308.933 173.366Z" fill="url(#paint4_linear_2178_2185)"/>
<path d="M265.959 213.94C265.959 213.94 263.317 215.714 260.466 216.88C257.26 218.186 256.747 216.56 256.747 216.56C256.747 216.56 255.819 216.546 255.211 215.395C255.211 215.395 254.476 215.425 253.696 215.306C253.4 215.261 253.169 215.031 253.125 214.734C253.073 214.393 253.288 214.066 253.622 213.977C254.29 213.807 255.404 213.517 256.309 213.287C257.712 212.938 257.089 212.107 256.339 211.995C255.589 211.877 254.78 211.246 255.04 210.719C255.292 210.191 256.621 210.355 257.705 210.652C258.789 210.949 260.489 211.119 262.99 209.909L265.959 213.94Z" fill="#FFADB7"/>
<path d="M257.172 216.553C257.862 216.508 258.538 216.323 258.538 216.323" stroke="#EF8998" stroke-width="0.53" stroke-miterlimit="10" stroke-linecap="round" stroke-linejoin="round"/>
<path d="M255.68 215.373C256.86 215.276 257.743 214.95 257.743 214.95" stroke="#EF8998" stroke-width="0.53" stroke-miterlimit="10" stroke-linecap="round" stroke-linejoin="round"/>
<path d="M262.352 210.028L264.838 215.633C264.838 215.633 286.009 209.561 299.704 192.911L301.107 228.4C301.107 228.4 315.738 231.978 331.148 227.777C331.148 227.777 336.909 178.903 318.7 174.39C300.491 169.877 291.472 186.69 282.587 195.093C277.754 199.651 262.352 210.028 262.352 210.028Z" fill="#A78BEF"/>
<path d="M399.24 268.633L404.637 316.646H396.635C396.635 316.646 389.375 277.006 389.375 271.053L399.24 268.633Z" fill="#FFADB7"/>
<path d="M404.635 316.646L405.912 326.021H388.742L397.004 321.693L396.633 316.646H404.635Z" fill="#E527BB"/>
<path d="M376.162 270.682L372.065 316.653L364.062 315.911C364.062 315.911 365.369 275.529 366.482 269.569L376.162 270.682Z" fill="#FFADB7"/>
<path d="M372.065 316.645V326.021L352.758 323.668L363.551 320.342L364.063 315.903L372.065 316.645Z" fill="#E527BB"/>
<path d="M400.263 185.525C402.468 181.761 403.848 177.604 399.892 173.93C395.935 170.256 397.145 164.109 393.189 161.882C389.232 159.648 388.304 153.554 380.258 154.482C372.211 155.409 372.397 159.277 373.095 163.137C373.792 166.997 369.932 173.047 375.515 175.281C381.097 177.515 382.537 177.144 382.915 181.093C383.279 185.05 394.584 195.204 400.263 185.525Z" fill="black"/>
<path d="M398.446 218.513C398.446 218.513 405.936 281.468 407.799 299.335C407.799 299.335 383.697 307.018 359.602 300.203L368.494 219.544L398.446 218.513Z" fill="black"/>
<path d="M389.752 177.255L382.01 180.202L375.433 177.53C371.224 178.295 368.492 179.326 368.492 179.326V219.552C382.923 222.581 398.452 218.52 398.452 218.52L399.075 179.608C399.083 179.601 394.963 178.087 389.752 177.255Z" fill="#E527BB"/>
<path d="M374.304 218.518H390.227V193.495H374.304V218.518Z" fill="white"/>
<path d="M369.749 213.666C369.749 213.666 370.93 213.792 372.696 213.873C374.463 213.962 375.228 214.43 375.68 214.631C376.133 214.838 376.987 214.23 376.155 213.651C375.547 213.235 374.203 212.827 374.203 212.827C374.203 212.827 375.881 212.73 377.469 212.047C379.058 211.364 378.642 210.488 378.271 210.407C378.271 210.407 379.206 209.872 379.013 209.227C378.828 208.581 378.108 208.729 378.108 208.729C378.108 208.729 378.776 208.128 378.464 207.534C378.145 206.948 375.651 207.4 374.3 207.564V206.168C374.3 206.168 373.379 205.99 371.553 207.193C369.727 208.395 370.484 208.573 369.289 209.457L369.749 213.666Z" fill="#FFADB7"/>
<path d="M377.587 208.959C376.459 209.345 374.336 209.687 374.336 209.687" stroke="#EF8998" stroke-width="0.53" stroke-miterlimit="10" stroke-linecap="round"/>
<path d="M377.784 210.607C376.767 210.956 374.978 211.357 374.406 211.416" stroke="#EF8998" stroke-width="0.53" stroke-miterlimit="10" stroke-linecap="round"/>
<path d="M394.441 213.955C394.441 213.955 393.253 214.022 391.486 214.029C389.72 214.037 388.933 214.467 388.465 214.653C388.005 214.838 387.174 214.192 388.035 213.651C388.658 213.257 390.024 212.916 390.024 212.916C390.024 212.916 388.354 212.745 386.802 211.988C385.251 211.231 385.696 210.377 386.075 210.31C386.075 210.31 385.169 209.731 385.385 209.1C385.6 208.462 386.313 208.64 386.313 208.64C386.313 208.64 385.667 208.009 386.016 207.43C386.357 206.859 388.881 207.608 390.224 207.838V206.272C390.224 206.272 391.167 206.124 392.934 207.408C394.701 208.692 393.943 208.833 395.094 209.768L394.441 213.955Z" fill="#FFADB7"/>
<path d="M386.766 208.878C387.857 209.316 390.039 209.776 390.039 209.776" stroke="#EF8998" stroke-width="0.53" stroke-miterlimit="10" stroke-linecap="round"/>
<path d="M386.5 210.518C387.487 210.919 389.306 211.416 389.892 211.498" stroke="#EF8998" stroke-width="0.53" stroke-miterlimit="10" stroke-linecap="round"/>
<path d="M399.082 179.601C407.062 182.927 410.321 192.235 411.716 200.141C413.112 208.054 410.996 211.409 403.061 213.725C399.78 214.683 394.094 214.334 394.094 214.334L394.985 209.42L398.614 208.633L399.082 179.601Z" fill="#E527BB"/>
<path d="M368.488 179.326C357.739 182.652 354.109 203.31 355.408 209.687C356.707 216.063 370.366 214.4 370.366 214.4L369.831 209.212H368.488V179.601" fill="#E527BB"/>
<path d="M375.438 177.53C377.501 177.152 379.921 176.84 382.556 176.751C384.998 176.662 387.478 176.899 389.757 177.263C389.319 178.547 387.686 181.732 382.267 181.561C378.622 181.442 376.566 179.401 375.438 177.53Z" fill="#FFADB7"/>
<path d="M385.085 168.905L385.33 179.341C385.33 179.341 383.028 180.18 380.794 179.445L380.579 174.175C380.579 174.175 375.531 174.234 375.568 168.652C375.568 168.652 374.559 168.771 374.039 168.192C374.039 168.192 375.835 165.037 375.732 162.209C375.732 162.209 379.673 159.938 381.173 162.35C382.746 164.881 381.804 166.329 383.021 166.329C384.29 166.329 383.437 162.424 385.916 162.907C388.395 163.389 388.328 168.17 385.085 168.905Z" fill="#FFADB7"/>
<path d="M385.258 163.708C385.332 163.664 385.421 163.642 385.518 163.642C385.592 163.642 385.681 163.649 385.77 163.671C386.572 163.827 386.869 164.725 386.876 165.445C386.876 165.69 386.854 165.943 386.794 166.195" stroke="#EF8998" stroke-width="0.53" stroke-miterlimit="10" stroke-linecap="round"/>
<path d="M385.57 165.341C385.57 165.341 385.8 164.525 386.498 164.154" stroke="#EF8998" stroke-width="0.53" stroke-miterlimit="10" stroke-linecap="round"/>
<path opacity="0.51" d="M381.974 169.758C381.893 168.244 380.601 167.086 379.087 167.168C377.573 167.249 376.415 168.541 376.496 170.055C376.578 171.57 377.87 172.727 379.384 172.646C380.898 172.557 382.056 171.265 381.974 169.758Z" fill="url(#paint5_radial_2178_2185)"/>
<path d="M376.953 164.547C376.953 164.547 377.888 163.998 378.839 164.406" stroke="#EF8998" stroke-width="0.53" stroke-miterlimit="10" stroke-linecap="round"/>
<path opacity="0.75" d="M380.667 176.387C382.983 175.845 383.228 173.923 383.228 173.923C383.228 173.923 382.449 174.182 380.578 174.175L380.667 176.387Z" fill="url(#paint6_linear_2178_2185)"/>
</g>
<defs>
<linearGradient id="paint0_linear_2178_2185" x1="311.218" y1="185.211" x2="301.728" y2="168.774" gradientUnits="userSpaceOnUse">
<stop offset="0.259"/>
<stop offset="0.8793" stop-opacity="0"/>
</linearGradient>
<linearGradient id="paint1_linear_2178_2185" x1="132.804" y1="237.391" x2="134.154" y2="236.258" gradientUnits="userSpaceOnUse">
<stop offset="0.2087" stop-opacity="0"/>
<stop offset="1"/>
</linearGradient>
<radialGradient id="paint2_radial_2178_2185" cx="0" cy="0" r="1" gradientUnits="userSpaceOnUse" gradientTransform="translate(136.006 232.278) rotate(-3.1185) scale(2.74053 2.74054)">
<stop/>
<stop offset="1" stop-opacity="0"/>
</radialGradient>
<radialGradient id="paint3_radial_2178_2185" cx="0" cy="0" r="1" gradientUnits="userSpaceOnUse" gradientTransform="translate(306.247 166.289) rotate(-3.11849) scale(3.05148)">
<stop/>
<stop offset="1" stop-opacity="0"/>
</radialGradient>
<linearGradient id="paint4_linear_2178_2185" x1="309.184" y1="170.584" x2="310.723" y2="172.124" gradientUnits="userSpaceOnUse">
<stop/>
<stop offset="0.7913" stop-opacity="0"/>
</linearGradient>
<radialGradient id="paint5_radial_2178_2185" cx="0" cy="0" r="1" gradientUnits="userSpaceOnUse" gradientTransform="translate(379.235 169.905) rotate(-3.11848) scale(2.74054 2.74053)">
<stop/>
<stop offset="1" stop-opacity="0"/>
</radialGradient>
<linearGradient id="paint6_linear_2178_2185" x1="380.903" y1="173.904" x2="382.3" y2="175.568" gradientUnits="userSpaceOnUse">
<stop/>
<stop offset="0.7913" stop-opacity="0"/>
</linearGradient>
<clipPath id="clip0_2178_2185">
<rect width="542.64" height="328.79" fill="white"/>
</clipPath>
</defs>
</svg>
