<svg width="543" height="329" viewBox="0 0 543 329" fill="none" xmlns="http://www.w3.org/2000/svg">
<g clip-path="url(#clip0_2023_7133)">
<path opacity="0.2" d="M128.578 325.793L413.421 309.284C488.741 304.922 547.021 241.664 543.879 166.964C541.237 104.191 518.542 37.3242 442.21 8.74895C388.524 -11.3489 318.807 5.10021 274.587 38.5239C263.96 46.5551 254.193 55.7662 242.775 62.6373C216.167 78.6501 192.802 67.5948 165.083 63.3413C106.483 54.3285 47.9939 72.8399 17.7134 126.352C-28.778 208.567 26.059 331.732 128.578 325.793Z" fill="#999999"/>
<path d="M148.445 238.91C147.888 238.278 134.833 223.39 138.236 214.439C139.488 211.135 142.845 209.088 148.213 208.358C146.207 205.157 133.627 184.328 137.917 171.521C139.239 167.579 142.062 164.796 146.317 163.243C151.065 161.509 155.17 162.889 158.515 167.342L158.051 167.689C154.874 163.463 150.996 162.147 146.514 163.788C142.439 165.278 139.732 167.944 138.468 171.707C133.998 185.047 148.793 208.201 148.944 208.433L149.193 208.821L148.735 208.879C143.332 209.529 139.981 211.471 138.775 214.648C135.5 223.268 148.741 238.376 148.88 238.527L148.445 238.91Z" fill="#788918"/>
<path d="M151.4 239.885C151.4 239.885 127.306 212.666 151.44 209.756C151.44 209.756 127.457 172.618 149.156 164.682C159.411 160.931 164.849 172.653 167.736 186.062C167.736 186.062 181.453 176.537 183.209 197.901C183.209 197.901 197.714 190.793 200.648 207.426C203.581 224.058 202.949 238.308 202.949 238.308L182.636 246.54L151.4 239.885Z" fill="#39B039"/>
<path d="M182.394 236.811C160.521 215.088 155.57 181.035 155.523 180.693L156.097 180.612C156.144 180.954 161.077 214.81 182.806 236.399L182.394 236.811Z" fill="#47393D"/>
<path d="M168.244 217.384C168.227 217.228 166.395 201.326 174.239 192.595L174.668 192.983C167.004 201.517 168.801 217.158 168.818 217.315L168.244 217.384Z" fill="#47393D"/>
<path d="M188.603 307.95L150.283 307.654C131.743 298.576 139.558 285.996 148.376 286.291C148.376 286.291 127.123 281.793 124.288 266.488C123.488 262.157 127.273 259.855 133.123 258.783C133.123 258.783 106.594 235.988 119.563 226.283C130.584 218.034 142.706 238.133 142.706 238.133C142.706 238.133 150.735 225.68 160.341 241.582C160.341 241.582 166.927 224.608 179.867 236.933C183.015 239.93 183.809 243.542 185.38 246.081L188.603 307.95Z" fill="#39B039"/>
<path d="M192.044 293.178C155.787 274.905 136.465 244.643 136.273 244.342L136.766 244.034C136.958 244.336 156.199 274.465 192.31 292.662L192.044 293.178Z" fill="#47393D"/>
<path d="M151.394 262.87C151.354 262.765 147.521 252.371 151.585 241.356L152.13 241.559C148.142 252.365 151.898 262.563 151.939 262.667L151.394 262.87Z" fill="#47393D"/>
<path d="M164.486 279.154C148.688 279.154 138.438 271.531 138.328 271.444L138.676 270.98C138.798 271.073 151.082 280.198 169.477 278.314L169.535 278.888C167.796 279.073 166.109 279.154 164.486 279.154Z" fill="#47393D"/>
<path d="M145.901 307.915C133.825 302.002 134.01 295.399 134.654 292.836C135.512 289.404 138.579 286.766 142.179 286.14C136.932 284.766 122.427 279.868 120.103 267.299C119.604 264.603 120.242 261.902 121.819 260.07C123.158 258.51 125.094 257.652 127.459 257.559C124.422 254.887 111.111 242.62 111.395 233.014C111.476 230.196 112.74 227.86 115.14 226.057C118.619 223.454 122.549 223.332 126.822 225.692L126.544 226.202C122.491 223.958 118.769 224.068 115.488 226.526C113.233 228.213 112.05 230.405 111.975 233.037C111.673 243.373 128.254 257.49 128.422 257.635L129.06 258.174L128.225 258.145C125.691 258.058 123.622 258.864 122.259 260.452C120.798 262.151 120.207 264.679 120.677 267.2C123.442 282.123 143.97 285.978 144.179 286.019L144.121 286.593C139.993 286.465 136.173 289.201 135.222 292.981C134.619 295.41 134.468 301.671 146.162 307.399L145.901 307.915Z" fill="#98A51C"/>
<path d="M172.405 241.147C172.075 240.678 171.738 240.214 171.391 239.756L172.086 239.228C172.44 239.692 172.782 240.167 173.118 240.649L172.405 241.147Z" fill="white"/>
<path d="M169.244 237.112C168.525 236.283 167.742 235.437 166.931 234.608L167.551 233.999C168.374 234.84 169.163 235.698 169.899 236.538L169.244 237.112ZM164.484 232.225C163.69 231.489 162.832 230.724 161.934 229.953L162.502 229.292C163.406 230.069 164.276 230.845 165.076 231.588L164.484 232.225ZM159.307 227.767C158.42 227.054 157.522 226.347 156.617 225.645L157.151 224.961C158.061 225.663 158.965 226.376 159.852 227.095L159.307 227.767ZM153.887 223.558C153.162 223.013 152.438 222.463 151.707 221.918L151.139 221.494L151.661 220.799L152.229 221.222C152.953 221.767 153.684 222.318 154.409 222.863L153.887 223.558ZM148.403 219.425C147.487 218.729 146.576 218.033 145.678 217.326L146.217 216.642C147.116 217.344 148.026 218.045 148.936 218.735L148.403 219.425ZM142.982 215.164C142.043 214.393 141.185 213.662 140.35 212.932L140.924 212.277C141.747 213.001 142.599 213.726 143.533 214.491L142.982 215.164ZM137.805 210.601C136.953 209.79 136.135 208.961 135.37 208.149L136.002 207.552C136.756 208.352 137.567 209.169 138.408 209.969L137.805 210.601ZM133.074 205.563C132.738 205.158 132.402 204.746 132.077 204.334C131.695 203.847 131.312 203.343 130.947 202.827L131.654 202.317C132.014 202.815 132.385 203.314 132.761 203.789C133.08 204.201 133.411 204.601 133.741 205.001L133.074 205.563ZM129.028 199.94C128.431 198.96 127.863 197.946 127.335 196.914L128.112 196.52C128.628 197.528 129.19 198.531 129.776 199.488L129.028 199.94ZM125.863 193.772C125.416 192.716 124.999 191.632 124.622 190.537L125.445 190.253C125.816 191.325 126.228 192.398 126.668 193.43L125.863 193.772ZM123.607 187.226C123.306 186.119 123.039 184.983 122.813 183.852L123.665 183.678C123.886 184.792 124.152 185.905 124.442 186.995L123.607 187.226ZM122.245 180.438C122.094 179.301 121.978 178.142 121.903 176.994L122.773 176.936C122.848 178.067 122.964 179.209 123.115 180.328L122.245 180.438ZM121.781 173.533V173.371C121.781 172.275 121.816 171.168 121.88 170.072L122.749 170.124C122.686 171.197 122.651 172.292 122.651 173.371V173.527L121.781 173.533ZM123.068 166.733L122.204 166.623C122.349 165.481 122.535 164.327 122.749 163.202L123.602 163.37C123.387 164.478 123.207 165.608 123.068 166.733ZM124.361 160.049L123.52 159.828C123.816 158.709 124.147 157.596 124.512 156.506L125.335 156.785C124.976 157.851 124.651 158.953 124.361 160.049ZM126.535 153.602L125.735 153.266C126.181 152.199 126.663 151.138 127.179 150.118L127.955 150.506C127.451 151.515 126.97 152.553 126.535 153.602ZM129.59 147.526L128.842 147.08C129.434 146.089 130.071 145.109 130.732 144.175L131.445 144.674C130.796 145.59 130.176 146.547 129.59 147.526ZM133.509 141.967L132.837 141.416C133.469 140.645 134.164 139.839 135.092 138.801L135.741 139.381C134.825 140.413 134.135 141.207 133.509 141.967ZM138.037 136.824L137.388 136.245C138.304 135.219 138.994 134.419 139.62 133.659L140.292 134.21C139.66 134.981 138.965 135.787 138.037 136.824ZM147.742 134.569H147.51L147.521 133.7H147.742C148.785 133.7 149.846 133.63 150.884 133.491L151 134.355C149.927 134.5 148.832 134.569 147.742 134.569ZM144.031 134.279C142.872 134.094 141.724 133.821 140.628 133.474L140.895 132.645C141.95 132.981 143.052 133.242 144.171 133.421L144.031 134.279ZM154.42 133.636L154.183 132.801C155.267 132.488 156.333 132.094 157.342 131.63L157.707 132.418C156.652 132.9 155.551 133.311 154.42 133.636ZM137.388 132.134C136.402 131.63 135.463 131.039 134.588 130.395L134.419 130.268L134.947 129.578L135.104 129.7C135.938 130.32 136.843 130.882 137.782 131.369L137.388 132.134ZM142.391 131.445L141.678 130.952L141.753 130.836C142.379 129.926 142.936 128.986 143.417 128.053L144.188 128.453C143.689 129.415 143.115 130.384 142.472 131.323L142.391 131.445ZM160.757 130.708L160.27 129.989C161.209 129.357 162.09 128.65 162.89 127.891L163.493 128.517C162.658 129.311 161.736 130.047 160.757 130.708ZM131.828 127.902C131.016 127.01 130.309 126.059 129.735 125.073L130.483 124.633C131.028 125.566 131.695 126.465 132.472 127.317L131.828 127.902ZM165.8 125.873L165.099 125.357C165.754 124.465 166.339 123.502 166.85 122.488L167.627 122.876C167.099 123.937 166.484 124.946 165.8 125.873ZM145.55 125.23L144.721 124.957C145.081 123.856 145.33 122.754 145.452 121.693L146.316 121.792C146.188 122.917 145.927 124.07 145.55 125.23ZM128.332 121.827C128.095 120.975 127.944 120.105 127.897 119.241C127.886 119.061 127.88 118.876 127.88 118.696C127.88 118.563 127.886 118.43 127.886 118.296L128.755 118.331C128.75 118.453 128.75 118.574 128.75 118.696C128.75 118.864 128.755 119.027 128.761 119.189C128.808 119.983 128.941 120.789 129.167 121.583L128.332 121.827ZM168.948 119.641L168.119 119.375C168.456 118.314 168.722 117.212 168.902 116.099L169.76 116.238C169.569 117.398 169.296 118.54 168.948 119.641ZM145.429 118.377C145.388 118.076 145.336 117.774 145.272 117.473C145.11 116.714 144.843 115.96 144.489 115.235L145.272 114.853C145.66 115.641 145.945 116.464 146.124 117.287C146.194 117.612 146.252 117.937 146.292 118.261L145.429 118.377ZM129.451 115.131L128.645 114.812C129.097 113.676 129.724 112.65 130.5 111.763L131.156 112.337C130.437 113.148 129.869 114.087 129.451 115.131ZM170.067 112.76L169.198 112.748C169.198 112.621 169.203 112.493 169.203 112.366C169.203 111.368 169.14 110.365 169.012 109.38L169.876 109.27C170.009 110.29 170.073 111.328 170.073 112.366C170.067 112.493 170.067 112.626 170.067 112.76ZM142.599 112.545C141.811 111.728 140.93 111.067 139.973 110.592L140.362 109.815C141.405 110.336 142.368 111.055 143.226 111.942L142.599 112.545ZM133.724 110.383L133.359 109.594C133.927 109.328 134.53 109.136 135.138 109.02C135.718 108.91 136.309 108.864 136.895 108.887L136.86 109.757C136.344 109.734 135.817 109.774 135.301 109.873C134.761 109.977 134.228 110.145 133.724 110.383ZM168.328 106.081C168.015 104.991 167.621 103.936 167.157 102.927L167.945 102.562C168.432 103.606 168.844 104.713 169.169 105.844L168.328 106.081Z" fill="white"/>
<path d="M165.438 99.9593C165.114 99.4955 164.766 99.0376 164.406 98.6085L165.073 98.052C165.45 98.4984 165.815 98.9796 166.151 99.4666L165.438 99.9593Z" fill="white"/>
<path d="M350.324 113.114L355.141 111.409C355.698 111.212 355.988 110.603 355.791 110.047L350.063 93.8664C349.866 93.3098 349.257 93.02 348.701 93.2171L343.883 94.9215C343.326 95.1186 343.037 95.7273 343.234 96.2839L348.961 112.464C349.153 113.021 349.767 113.311 350.324 113.114Z" fill="#A78BEF"/>
<path d="M348.812 118.766C349.055 117.56 348.887 116.314 348.342 115.218C347.298 113.131 345.664 109.705 345.466 108.4C345.327 107.484 347.855 101.93 348.655 102.255C349.49 102.597 346.91 106.812 347.287 107.108C347.501 107.276 349.959 102.974 350.701 103.583C351.351 104.122 348.197 107.699 348.556 107.931C348.771 108.07 349.38 107.003 350.122 106.592C350.562 106.348 352.574 105.71 352.632 106.255C352.702 106.893 351.142 107.05 350.62 107.426C349.925 107.931 349.548 108.737 349.658 108.824C349.867 108.986 350.771 108.105 351.583 107.873C352.099 107.728 353.797 107.844 353.855 108.186C353.954 108.754 352.359 108.545 351.861 108.829C351.252 109.183 350.452 109.658 350.788 109.884C354.864 112.545 353.641 116.638 353.641 116.638L353.623 116.743L359.148 137.729L362.458 128.929L371.589 151.538C371.589 151.538 360.476 159.921 351.861 153.382C344.533 147.822 347.478 125.421 348.812 118.766Z" fill="#FFBB8D"/>
<path d="M417.3 125.149L416.876 125.05C420.72 109.049 411.694 103.878 405.977 102.22C399.166 100.249 396.406 95.8547 396.383 95.8084L396.754 95.5823C396.783 95.6229 399.461 99.8781 406.099 101.803C416.082 104.696 420.169 113.206 417.3 125.149Z" fill="black"/>
<path d="M373.456 93.9302C373.352 93.7215 370.911 88.7879 372.952 85.1008C374.129 82.9732 376.552 81.7268 380.152 81.3848L380.193 81.8196C376.743 82.1442 374.436 83.3211 373.334 85.3154C371.404 88.8053 373.821 93.6925 373.844 93.7389L373.456 93.9302Z" fill="black"/>
<path d="M373.649 93.8314C373.649 93.8314 371.203 89.5761 374.756 84.2484C376.994 80.8917 385.244 79.7091 389.534 82.5208C392.537 84.4861 394.299 87.9123 396.143 93.669C400.16 106.214 416.271 102.156 416.665 123.073L385.481 118.534L373.649 93.8314Z" fill="black"/>
<path d="M379.589 298.86L378.563 288.355H367.461L369.873 298.552C369.873 298.552 371.16 301.973 374.893 301.845C378.482 301.729 379.589 298.86 379.589 298.86Z" fill="#FFBB8D"/>
<path d="M426.448 298.86L425.422 288.355H414.32L417.115 298.935C417.115 298.935 418.147 301.387 421.747 301.845C425.312 302.303 426.448 298.86 426.448 298.86Z" fill="#FFBB8D"/>
<path d="M387.337 292.854C387.337 292.854 373.673 297.196 358.078 291.474C358.078 291.474 347.539 220.207 367.435 165.916L391.227 168.171C391.227 168.165 378.514 234.034 387.337 292.854Z" fill="black"/>
<path d="M401.101 292.836C401.101 292.836 378.068 221.976 380.364 168.362L411.357 170.293C407.803 221.408 432.87 293.051 432.87 293.051C432.87 293.051 420.041 296.21 401.101 292.836Z" fill="black"/>
<path d="M359.766 134.413C359.766 134.413 365.377 111.681 384.091 111.189C420.214 110.244 425.449 139.103 425.449 139.103C425.449 139.103 418.916 149.671 407.008 153.254L366.925 143.138C361.94 138.79 359.766 134.413 359.766 134.413Z" fill="#E527BB"/>
<path d="M391.351 111.785C389.803 107.524 389.136 102.747 389.328 97.4834L380.724 103.118L379.617 113.449C379.617 113.449 381.554 115.449 384.661 115.293C386.522 115.2 388.806 114.33 391.351 111.785Z" fill="#FFBB8D"/>
<path d="M379.992 109.658C385.934 107.71 387.158 102.927 387.158 102.927L380.497 104.974L379.992 109.658Z" fill="#47393D"/>
<path d="M347.234 120.499L356.017 120.598L359.768 134.413C359.768 134.413 363.333 115.711 379.797 111.716L373.78 147.144C373.78 147.144 368.156 157.996 357.002 155.927C345.854 153.851 343.39 137.474 347.234 120.499Z" fill="#E527BB"/>
<path d="M386.048 87.2109C382.257 85.1064 375.764 84.9151 374.262 90.1269C372.876 94.9387 372.778 108.371 379.016 108.093C391.938 107.519 390.112 89.4602 386.048 87.2109Z" fill="#FFBB8D"/>
<path d="M333.269 38.1946H184.492V290.488H333.269V38.1946Z" fill="white"/>
<path d="M333.222 27.1391V38.4265H184.445V27.1391C184.445 23.3071 187.553 20.1997 191.385 20.1997H326.277C330.115 20.1997 333.222 23.3071 333.222 27.1391Z" fill="black"/>
<path d="M184.445 290.72H333.222V301.811C333.222 305.643 330.115 308.75 326.283 308.75H191.385C187.553 308.75 184.445 305.643 184.445 301.811V290.72Z" fill="black"/>
<path d="M333.226 38.4263H332.461V290.807H333.226V38.4263Z" fill="#47393D"/>
<path d="M278.16 29.4118H240.675C240.303 29.4118 240.008 29.1103 240.008 28.7451C240.008 28.3798 240.309 28.0784 240.675 28.0784H278.16C278.531 28.0784 278.827 28.3798 278.827 28.7451C278.827 29.1161 278.525 29.4118 278.16 29.4118Z" fill="#F2E9E8"/>
<path d="M315.674 189.685H201.809C199.594 189.685 197.797 187.887 197.797 185.673V86.5037C197.797 84.2891 199.594 82.4919 201.809 82.4919H315.674C317.888 82.4919 319.686 84.2891 319.686 86.5037V185.673C319.686 187.887 317.888 189.685 315.674 189.685Z" fill="#DAA7EE"/>
<path d="M293.417 170.6L292.883 170.374C300.101 153.167 290.953 145.741 284.854 142.842C277.561 139.375 275.335 134.1 275.242 133.879L275.776 133.659C275.799 133.711 278.025 138.958 285.098 142.32C295.794 147.399 298.826 157.706 293.417 170.6Z" fill="black"/>
<path d="M179.255 106.858C193.596 106.858 205.222 95.2325 205.222 80.8918C205.222 66.551 193.596 54.9255 179.255 54.9255C164.915 54.9255 153.289 66.551 153.289 80.8918C153.289 95.2325 164.915 106.858 179.255 106.858Z" fill="#E527BB"/>
<path d="M292.276 166.507L261.602 156.257L234.697 170.397C229.468 149.967 243.375 149.039 243.973 134.181C244.28 126.482 246.019 118.343 250.68 115.531C253.335 113.931 256.709 114.644 256.709 114.644C260.559 111.241 266.913 113.125 269.44 115.531C272.368 118.325 274.443 122.963 275.342 129.734C277.307 144.477 296.021 143.184 292.276 166.507Z" fill="black"/>
<path d="M264.732 140.784H253.445L251.758 154.599C253.016 156.211 256.013 159.301 260.234 158.877C263.097 158.588 265.115 156.582 266.413 154.657C266.576 154.663 264.732 140.784 264.732 140.784Z" fill="#FFBB8D"/>
<path d="M265.77 148.796C257.445 152.245 253.805 147.225 253.805 147.225L265.104 143.625C265.301 145.12 265.544 147.01 265.77 148.796Z" fill="#47393D"/>
<path d="M269.915 124.494C271.961 131.392 270.094 149.277 259.276 149.306C247.676 149.341 247.125 129.897 249.056 123.653C251.543 115.618 267.7 117.021 269.915 124.494Z" fill="#FFBB8D"/>
<path d="M177.672 62.5143L177.359 61.7085C179.47 60.8853 181.678 60.4911 183.922 60.5316L183.905 61.3955C181.8 61.3549 179.655 61.7433 177.672 62.5143Z" fill="white"/>
<path d="M165.326 83.1993C164.259 75.0019 168.079 66.8566 174.828 62.926L175.262 63.6797C168.81 67.4363 165.158 75.2338 166.184 83.0891L165.326 83.1993Z" fill="white"/>
<path d="M167.396 89.8603C166.683 88.4863 166.133 87.008 165.75 85.4775L166.591 85.2688C166.95 86.7297 167.483 88.1443 168.162 89.4603L167.396 89.8603Z" fill="white"/>
<path d="M171.75 71.0942L171.031 70.613C175.258 64.3577 183.345 62.0272 189.844 65.1867L189.467 65.9636C183.356 62.9896 175.739 65.1925 171.75 71.0942Z" fill="white"/>
<path d="M169.998 88.2775C167.488 83.4425 167.436 77.593 169.859 72.6421L170.636 73.0189C168.335 77.7263 168.381 83.2802 170.764 87.8775L169.998 88.2775Z" fill="white"/>
<path d="M191.973 71.8596C189.544 68.9146 185.764 67.3957 182.1 67.8827L181.984 67.0246C185.938 66.4913 190.019 68.1377 192.64 71.3089L191.973 71.8596Z" fill="white"/>
<path d="M172.599 86.6948C170.785 83.1816 170.593 78.9785 172.072 75.1639C173.457 71.5812 176.101 68.9086 179.521 67.6448L179.823 68.4564C176.646 69.6333 174.176 72.1261 172.883 75.477C171.515 79.0075 171.701 83.0541 173.376 86.3006L172.599 86.6948Z" fill="white"/>
<path d="M175.201 85.1124C173.642 82.1036 173.665 78.3469 175.254 75.3091L176.019 75.7091C174.558 78.5034 174.541 81.9528 175.967 84.7181L175.201 85.1124Z" fill="white"/>
<path d="M190.801 75.6047C189.561 73.2104 187.346 71.593 184.726 71.1697C182.169 70.7581 179.624 71.564 177.751 73.3901L177.148 72.7698C179.224 70.7523 182.036 69.8596 184.865 70.3175C187.758 70.7871 190.204 72.5727 191.572 75.2105L190.801 75.6047Z" fill="white"/>
<path d="M188.192 77.1931C187.926 76.6829 187.59 76.2133 187.195 75.8075L187.816 75.2046C188.268 75.6742 188.65 76.2075 188.958 76.7931L188.192 77.1931Z" fill="white"/>
<path d="M177.795 83.5237C176.468 80.9555 176.96 77.593 178.989 75.3379C180.746 73.39 183.227 72.7928 185.633 73.7378L185.314 74.5436C183.227 73.7262 181.158 74.2248 179.627 75.9176C177.83 77.9061 177.395 80.8743 178.56 83.1237L177.795 83.5237Z" fill="white"/>
<path d="M180.395 81.9411C179.497 80.2135 180.094 77.999 181.711 77.0076C182.494 76.5322 183.404 76.3989 184.274 76.6424C185.172 76.8917 185.914 77.5062 186.361 78.3758L185.596 78.77C185.259 78.1207 184.709 77.6569 184.042 77.4714C183.41 77.2975 182.743 77.3902 182.164 77.7439C180.923 78.5033 180.471 80.2019 181.161 81.5411L180.395 81.9411Z" fill="white"/>
<path d="M192.425 80.1786C192.054 78.5612 191.486 76.9959 190.727 75.5234L191.498 75.1292C192.292 76.6596 192.883 78.2945 193.272 79.9873L192.425 80.1786Z" fill="white"/>
<path d="M186.982 99.965L186.414 99.3157C191.075 95.217 193.522 88.7066 192.797 82.3122L193.655 82.2136C194.409 88.8863 191.852 95.6866 186.982 99.965Z" fill="white"/>
<path d="M175.272 101.258C174.483 101.258 173.689 101.194 172.906 101.055L173.057 100.203C178.715 101.182 184.594 98.3126 187.678 93.0544L188.426 93.495C185.579 98.33 180.501 101.258 175.272 101.258Z" fill="white"/>
<path d="M189.565 91.1531L188.759 90.8342C190.521 86.405 190.289 81.2744 188.133 77.1119L188.898 76.7119C191.171 81.1005 191.42 86.4978 189.565 91.1531Z" fill="white"/>
<path d="M175.378 98.0636C174.341 98.0636 173.303 97.9245 172.277 97.6346C169.036 96.7302 166.358 94.4983 164.734 91.3619L165.5 90.9677C167.013 93.8895 169.5 95.965 172.509 96.8056C175.39 97.6114 178.422 97.1766 181.042 95.5824C186.585 92.2025 188.596 84.6312 185.524 78.6948L186.289 78.3005C189.564 84.6312 187.414 92.7127 181.489 96.3244C179.599 97.4723 177.5 98.0636 175.378 98.0636Z" fill="white"/>
<path d="M183.964 83.982C183.871 82.6834 183.517 81.4022 182.938 80.2775L183.703 79.8833C184.34 81.1123 184.729 82.5095 184.827 83.924L183.964 83.982Z" fill="white"/>
<path d="M180.062 93.5358L179.609 92.7996C181.87 91.4198 183.465 88.9269 183.876 86.1384L184.734 86.266C184.288 89.3038 182.543 92.0227 180.062 93.5358Z" fill="white"/>
<path d="M175.499 94.8519C172.188 94.8519 168.959 92.9272 167.336 89.7792L168.101 89.385C169.887 92.8402 173.788 94.678 177.377 93.7504L177.591 94.5852C176.902 94.7649 176.2 94.8519 175.499 94.8519Z" fill="white"/>
<path d="M171.271 89.9765C170.732 89.4663 170.285 88.8692 169.938 88.1967L170.709 87.8025C171.01 88.388 171.404 88.9098 171.868 89.3562L171.271 89.9765Z" fill="white"/>
<path d="M175.506 91.6805C174.845 91.6805 174.172 91.5704 173.5 91.3385L173.778 90.5211C175.854 91.2341 177.889 90.6718 179.35 88.9732C181.06 86.9905 181.46 84.0686 180.318 81.8657L181.083 81.4714C182.382 83.9817 181.935 87.2977 179.999 89.5413C178.799 90.9385 177.199 91.6805 175.506 91.6805Z" fill="white"/>
<path d="M175.49 88.4632C175.2 88.4632 174.91 88.4226 174.626 88.3415C173.728 88.0922 172.985 87.4777 172.539 86.6081L173.304 86.2081C173.641 86.8574 174.191 87.3211 174.858 87.5067C175.49 87.6806 176.157 87.5878 176.736 87.2342C177.977 86.4747 178.429 84.7761 177.739 83.4369L178.505 83.0427C179.403 84.7761 178.806 86.9849 177.189 87.9763C176.661 88.3009 176.075 88.4632 175.49 88.4632Z" fill="white"/>
<path d="M249.701 255.676H178.48C175.756 255.676 173.547 253.467 173.547 250.742V209.169C173.547 206.445 175.756 204.236 178.48 204.236H249.701C252.425 204.236 254.634 206.445 254.634 209.169V250.742C254.634 253.467 252.425 255.676 249.701 255.676Z" fill="#A78BEF"/>
<path d="M220.657 216.903H218.906V212.439C218.906 209.963 216.894 207.946 214.413 207.946C211.932 207.946 209.92 209.963 209.92 212.439V216.903H208.169C206.523 216.903 205.195 218.23 205.195 219.877V229.396C205.195 231.037 206.523 232.37 208.169 232.37H220.657C222.303 232.37 223.631 231.037 223.631 229.396V219.877C223.631 218.23 222.303 216.903 220.657 216.903ZM215.306 225.094V228.126H213.52V225.094C212.813 224.758 212.332 224.039 212.332 223.21C212.332 222.062 213.265 221.129 214.413 221.129C215.567 221.129 216.494 222.062 216.494 223.21C216.494 224.045 216.007 224.764 215.306 225.094ZM211.636 216.903V212.618C211.636 211.088 212.883 209.842 214.413 209.842C215.944 209.842 217.19 211.088 217.19 212.618V216.903H211.636Z" fill="white"/>
<path d="M245.306 249.206H183.512C182.515 249.206 181.703 248.394 181.703 247.397V238.927C181.703 237.93 182.515 237.118 183.512 237.118H245.306C246.303 237.118 247.114 237.93 247.114 238.927V247.397C247.114 248.394 246.309 249.206 245.306 249.206Z" fill="white"/>
<path d="M195.226 243.078C195.226 244.203 194.316 245.113 193.191 245.113C192.066 245.113 191.156 244.203 191.156 243.078C191.156 241.953 192.066 241.043 193.191 241.043C194.316 241.043 195.226 241.953 195.226 243.078Z" fill="#47393D"/>
<path d="M203.249 243.078C203.249 244.203 202.339 245.113 201.215 245.113C200.09 245.113 199.18 244.203 199.18 243.078C199.18 241.953 200.09 241.043 201.215 241.043C202.339 241.043 203.249 241.953 203.249 243.078Z" fill="#47393D"/>
<path d="M211.265 243.078C211.265 244.203 210.355 245.113 209.23 245.113C208.105 245.113 207.195 244.203 207.195 243.078C207.195 241.953 208.105 241.043 209.23 241.043C210.355 241.043 211.265 241.953 211.265 243.078Z" fill="#47393D"/>
<path d="M219.288 243.078C219.288 244.203 218.378 245.113 217.254 245.113C216.129 245.113 215.219 244.203 215.219 243.078C215.219 241.953 216.129 241.043 217.254 241.043C218.378 241.043 219.288 241.953 219.288 243.078Z" fill="#47393D"/>
<path d="M225.269 245.113C226.393 245.113 227.304 244.202 227.304 243.078C227.304 241.954 226.393 241.043 225.269 241.043C224.145 241.043 223.234 241.954 223.234 243.078C223.234 244.202 224.145 245.113 225.269 245.113Z" fill="#47393D"/>
<path d="M233.293 245.113C234.417 245.113 235.328 244.202 235.328 243.078C235.328 241.954 234.417 241.043 233.293 241.043C232.169 241.043 231.258 241.954 231.258 243.078C231.258 244.202 232.169 245.113 233.293 245.113Z" fill="#47393D"/>
<path d="M428.111 307.532H401.611C401.582 307.219 401.519 306.251 401.716 305.237C401.727 305.214 427.734 305.387 427.734 305.387L428.111 307.532Z" fill="#47393D"/>
<path d="M427.733 305.382L401.727 305.213C401.976 302.523 405.356 301.254 408.509 300.454C408.724 300.402 408.927 300.355 409.136 300.297C409.588 300.193 410.028 300.094 410.452 300.002C410.672 299.955 410.881 299.909 411.083 299.862C412.173 299.619 413.078 299.41 413.599 299.167C414.069 298.941 414.637 298.616 415.13 298.32C415.298 298.222 415.455 298.118 415.6 298.025C416.069 297.729 416.405 297.509 416.405 297.509C418.11 298.065 420.672 299.665 426.301 297.12L426.47 298.1L426.562 298.651L427.733 305.382Z" fill="#A78BEF"/>
<path d="M409.14 300.297C408.746 301.208 408.705 302.187 408.705 302.199L408.172 302.176C408.178 302.124 408.207 301.324 408.514 300.454C408.728 300.396 408.937 300.35 409.14 300.297Z" fill="white"/>
<path d="M411.093 299.863C410.658 300.802 410.612 301.845 410.612 301.857L410.078 301.839C410.078 301.781 410.113 300.912 410.455 300.002C410.681 299.95 410.89 299.903 411.093 299.863Z" fill="white"/>
<path d="M426.573 298.651C424.254 299.805 422.271 300.205 420.625 300.205C417.587 300.205 415.732 298.831 415.141 298.315C415.309 298.216 415.465 298.112 415.61 298.019C416.602 298.866 420.225 301.277 426.48 298.095L426.573 298.651Z" fill="white"/>
<path d="M427.733 304.924H401.727V305.503H427.733V304.924Z" fill="white"/>
<path d="M381.338 307.532H354.838C354.809 307.219 354.745 306.251 354.942 305.237C354.954 305.214 380.961 305.387 380.961 305.387L381.338 307.532Z" fill="#47393D"/>
<path d="M380.968 305.382L354.961 305.213C355.21 302.523 358.59 301.254 361.744 300.454C361.958 300.402 362.161 300.355 362.37 300.297C362.822 300.193 363.263 300.094 363.686 300.002C363.906 299.955 364.115 299.909 364.318 299.862C365.408 299.619 366.312 299.41 366.834 299.167C367.303 298.941 367.872 298.616 368.364 298.32C368.532 298.222 368.689 298.118 368.834 298.025C369.304 297.729 369.64 297.509 369.64 297.509C371.344 298.065 373.907 299.665 379.536 297.12L379.704 298.1L379.797 298.651L380.968 305.382Z" fill="#A78BEF"/>
<path d="M362.367 300.297C361.972 301.208 361.932 302.187 361.932 302.199L361.398 302.176C361.404 302.124 361.433 301.324 361.74 300.454C361.955 300.396 362.158 300.35 362.367 300.297Z" fill="white"/>
<path d="M364.311 299.863C363.877 300.802 363.83 301.845 363.83 301.857L363.297 301.839C363.297 301.781 363.332 300.912 363.674 300.002C363.894 299.95 364.109 299.903 364.311 299.863Z" fill="white"/>
<path d="M379.8 298.651C377.481 299.805 375.498 300.205 373.851 300.205C370.814 300.205 368.959 298.831 368.367 298.315C368.535 298.216 368.692 298.112 368.837 298.019C369.828 298.866 373.451 301.277 379.707 298.095L379.8 298.651Z" fill="white"/>
<path d="M380.747 304.924H354.961V305.503H380.747V304.924Z" fill="white"/>
<path d="M406.949 153.26L407.511 153.15C405.9 144.767 402.561 138.332 402.526 138.268L402.016 138.535C402.056 138.604 405.355 144.97 406.949 153.26Z" fill="#47393D"/>
<path d="M387.935 94.4402C379.593 94.3126 378.213 88.8863 378.213 88.8863C374.758 87.1124 373.651 93.8315 373.651 93.8315C373.651 93.8315 371.697 89.182 374.329 85.9993C375.459 84.6369 377.749 83.3905 381.176 82.9963C386.393 82.3933 389.727 83.7615 391.46 87.8022C394.167 94.1213 390.648 97.2751 390.648 97.2751L387.935 94.4402Z" fill="black"/>
<path d="M270.548 130.772C260.2 131.955 256.263 123.74 256.263 123.74C249.307 120.708 247.828 130.03 247.828 130.03C247.828 130.03 246.263 125.572 248.391 121.195C252.049 113.676 267.145 116.244 269.87 120.488C274.137 127.137 272.026 131.955 272.026 131.955L270.548 130.772Z" fill="black"/>
<path d="M386.113 94.8171C383.289 94.8171 381.133 94.1272 379.683 92.7648C377.764 90.9561 377.84 88.6371 377.846 88.5386L378.28 88.556C378.28 88.5792 378.217 90.7821 379.991 92.4518C381.678 94.0344 384.414 94.649 388.136 94.2721L388.182 94.7069C387.452 94.7823 386.768 94.8171 386.113 94.8171Z" fill="black"/>
<path d="M386.94 99.2925C386.94 99.2925 390.714 99.9418 391.056 97.0953C391.369 94.5271 388.285 93.7909 386.836 95.0257L386.94 99.2925Z" fill="#FFBB8D"/>
<path d="M265.658 131.827C263.629 131.827 261.855 131.346 260.359 130.378C256.649 127.989 256.006 123.548 255.977 123.357L256.55 123.276C256.556 123.322 257.188 127.647 260.678 129.891C263.148 131.473 266.441 131.665 270.464 130.459L270.632 131.015C268.835 131.56 267.177 131.827 265.658 131.827Z" fill="black"/>
<path d="M409.456 140.604C411.503 161.782 414.332 174.264 414.332 174.264C396.47 176.235 374.243 174.53 360.648 167.777L369.118 130.082L379.496 112.812C379.496 112.812 384.412 117.815 390.939 111.131L406.824 120.256L409.456 140.604Z" fill="#A78BEF"/>
<path d="M380.798 109.861C382.299 110.14 385.743 110.308 389.61 107.328C390.05 106.992 390.694 107.212 390.81 107.751L391.749 111.977C391.749 111.977 385.163 118.87 379.609 113.45L379.905 110.528C379.957 110.087 380.363 109.78 380.798 109.861Z" fill="#A78BEF"/>
<path d="M244.247 130.853C244.189 130.43 242.844 120.493 247.667 116.128C249.824 114.18 252.879 113.67 256.74 114.621L256.601 115.183C252.937 114.284 250.061 114.748 248.055 116.563C243.458 120.725 244.809 130.673 244.821 130.778L244.247 130.853Z" fill="black"/>
<path d="M400.827 292.929C400.665 292.425 384.345 241.802 380.664 194.305L381.244 194.259C384.925 241.686 401.221 292.239 401.384 292.749L400.827 292.929Z" fill="white"/>
<path d="M383.25 293.48C383.25 293.48 383.174 292.871 383.047 291.752L383.621 291.688C383.748 292.802 383.824 293.41 383.824 293.41L383.25 293.48Z" fill="white"/>
<path d="M382.683 288.373C382.579 287.37 382.474 286.233 382.358 284.981L382.938 284.929C383.054 286.175 383.164 287.312 383.263 288.315L382.683 288.373ZM382.069 281.59C381.982 280.511 381.889 279.381 381.802 278.198L382.382 278.158C382.469 279.34 382.555 280.471 382.648 281.543L382.069 281.59ZM381.564 274.801C381.495 273.7 381.425 272.569 381.361 271.404L381.941 271.369C382.005 272.528 382.074 273.665 382.144 274.76L381.564 274.801ZM381.182 268.007C381.129 266.893 381.083 265.757 381.037 264.609L381.616 264.586C381.657 265.734 381.709 266.87 381.761 267.983L381.182 268.007ZM380.926 261.206C380.897 260.087 380.868 258.951 380.851 257.803L381.431 257.792C381.448 258.934 381.477 260.07 381.506 261.189L380.926 261.206ZM380.81 254.4C380.805 253.826 380.805 253.247 380.805 252.667C380.805 252.11 380.805 251.554 380.81 250.997L381.39 251.003C381.384 251.56 381.384 252.116 381.384 252.673C381.384 253.252 381.384 253.826 381.39 254.4H380.81ZM381.437 247.606L380.857 247.594C380.88 246.464 380.909 245.327 380.944 244.191L381.524 244.209C381.483 245.345 381.454 246.475 381.437 247.606ZM381.657 240.817L381.077 240.788C381.135 239.652 381.199 238.516 381.274 237.391L381.854 237.431C381.779 238.55 381.715 239.687 381.657 240.817ZM382.109 234.04L381.529 233.994C381.628 232.852 381.732 231.721 381.854 230.602L382.428 230.666C382.312 231.779 382.208 232.904 382.109 234.04ZM382.834 227.292L382.26 227.217C382.411 226.075 382.579 224.938 382.753 223.843L383.327 223.935C383.147 225.025 382.984 226.156 382.834 227.292Z" fill="white"/>
<path d="M383.912 220.602L383.344 220.491C383.454 219.918 383.576 219.344 383.697 218.781L384.266 218.903C384.144 219.465 384.028 220.033 383.912 220.602Z" fill="white"/>
<path d="M428.552 293.544C428.552 293.544 428.344 292.97 427.961 291.903L428.506 291.712C428.883 292.773 429.091 293.341 429.091 293.341L428.552 293.544Z" fill="white"/>
<path d="M426.879 288.766C426.56 287.833 426.201 286.778 425.812 285.613L426.363 285.427C426.751 286.592 427.105 287.648 427.424 288.575L426.879 288.766ZM424.774 282.447C424.45 281.444 424.108 280.384 423.76 279.276L424.311 279.102C424.659 280.21 425.001 281.271 425.325 282.268L424.774 282.447ZM422.774 276.094C422.456 275.067 422.137 274.001 421.806 272.911L422.363 272.743C422.687 273.833 423.012 274.899 423.325 275.925L422.774 276.094ZM420.867 269.716C420.566 268.673 420.258 267.6 419.951 266.516L420.508 266.36C420.815 267.444 421.116 268.511 421.424 269.554L420.867 269.716ZM419.058 263.305C418.768 262.25 418.484 261.177 418.194 260.087L418.757 259.936C419.041 261.02 419.331 262.093 419.621 263.148L419.058 263.305ZM417.36 256.87C417.087 255.803 416.821 254.725 416.554 253.64L417.116 253.501C417.383 254.585 417.65 255.664 417.922 256.725L417.36 256.87ZM415.783 250.4C415.534 249.321 415.284 248.243 415.041 247.153L415.609 247.026C415.852 248.11 416.096 249.194 416.351 250.266L415.783 250.4ZM414.333 243.901C414.102 242.817 413.881 241.727 413.667 240.637L414.235 240.521C414.449 241.611 414.675 242.695 414.902 243.773L414.333 243.901ZM413.041 237.367C412.838 236.272 412.646 235.182 412.461 234.086L413.035 233.988C413.22 235.077 413.412 236.173 413.615 237.263L413.041 237.367Z" fill="white"/>
<path d="M411.919 230.822C411.832 230.248 411.745 229.674 411.664 229.1L412.238 229.019C412.319 229.587 412.406 230.161 412.493 230.735L411.919 230.822Z" fill="white"/>
<path d="M394.034 170.008C382.555 170.008 372.862 168.321 363.812 164.849L364.021 164.31C377.065 169.313 391.466 170.582 410.701 168.414L410.765 168.988C404.759 169.666 399.211 170.008 394.034 170.008Z" fill="#47393D"/>
<path d="M393.815 164.217C382.336 164.217 372.643 162.53 363.594 159.057L363.802 158.518C376.852 163.521 391.247 164.791 410.488 162.622L410.552 163.196C404.534 163.875 398.992 164.217 393.815 164.217Z" fill="#47393D"/>
<path d="M393.609 158.431C393.336 158.431 393.07 158.431 392.803 158.425C386.385 158.379 380.577 157.805 375.046 156.663C371.243 155.88 367.527 154.814 364.008 153.498L364.211 152.953C367.701 154.257 371.388 155.312 375.162 156.089C380.652 157.219 386.426 157.793 392.809 157.834C398.096 157.88 403.806 157.538 410.259 156.814L410.323 157.388C404.172 158.095 398.693 158.431 393.609 158.431Z" fill="#47393D"/>
<path d="M393.412 152.634C393.105 152.634 392.804 152.634 392.502 152.628C386.369 152.582 380.797 152.054 375.476 151.005C371.823 150.292 368.235 149.306 364.797 148.083L364.994 147.538C368.403 148.749 371.968 149.723 375.591 150.437C380.879 151.48 386.415 152.008 392.508 152.054C397.859 152.095 403.593 151.764 410.028 151.034L410.091 151.608C403.993 152.297 398.526 152.634 393.412 152.634Z" fill="#47393D"/>
<path d="M393.102 146.842C392.801 146.842 392.505 146.842 392.209 146.836C386.354 146.79 381.026 146.297 375.913 145.341C372.371 144.674 368.898 143.77 365.594 142.645L365.779 142.094C369.061 143.207 372.504 144.112 376.017 144.773C381.096 145.729 386.389 146.21 392.209 146.263C397.583 146.303 403.34 145.967 409.798 145.242L409.862 145.816C403.74 146.506 398.244 146.842 393.102 146.842Z" fill="#47393D"/>
<path d="M393.022 141.051C392.68 141.051 392.344 141.051 392.002 141.045H391.915C386.402 141.004 381.352 140.558 376.465 139.682L376.355 139.665C373.022 139.08 369.705 138.256 366.505 137.224L366.453 137.207L366.557 136.633L366.685 136.668C369.862 137.688 373.149 138.506 376.454 139.085L376.564 139.103C381.416 139.972 386.437 140.413 391.915 140.453H392.002C397.254 140.506 403.011 140.169 409.574 139.433L409.637 140.007C403.475 140.709 398.025 141.051 393.022 141.051Z" fill="#47393D"/>
<path d="M392.886 135.248C392.573 135.248 392.26 135.248 391.947 135.242H391.622C386.486 135.201 381.749 134.807 377.141 134.042L377.233 133.468C381.813 134.227 386.521 134.616 391.622 134.656H391.947C397.252 134.703 402.939 134.366 409.351 133.642L409.414 134.216C403.356 134.917 397.936 135.248 392.886 135.248Z" fill="#47393D"/>
<path d="M390.922 129.433C386.267 129.433 381.965 129.143 377.797 128.546L377.878 127.972C382.145 128.581 386.551 128.87 391.345 128.853C391.519 128.853 391.699 128.853 391.884 128.847C397.148 128.807 402.795 128.401 409.137 127.601L409.207 128.175C402.836 128.975 397.172 129.386 391.89 129.421C391.571 129.439 391.247 129.433 390.922 129.433Z" fill="#47393D"/>
<path d="M388.819 123.682C385.161 123.682 381.763 123.496 378.453 123.125L378.517 122.551C382.488 122.998 386.593 123.172 391.068 123.085C391.346 123.079 391.584 123.073 391.822 123.062C397.051 122.917 402.64 122.407 408.901 121.496L408.982 122.07C402.698 122.98 397.086 123.496 391.839 123.641C391.607 123.653 391.364 123.659 391.132 123.665C390.355 123.67 389.584 123.682 388.819 123.682Z" fill="#47393D"/>
<path d="M388.173 117.838C385.042 117.838 382.062 117.699 379.141 117.415L379.199 116.841C382.897 117.195 386.683 117.322 390.77 117.229C391.106 117.224 391.443 117.212 391.773 117.201L391.79 117.78C391.454 117.792 391.112 117.803 390.776 117.809C389.895 117.827 389.025 117.838 388.173 117.838Z" fill="#47393D"/>
<path d="M418.955 181.655C408.838 182.026 392.403 178.832 392.403 178.832L391.719 111.461L409.58 121.577L418.955 181.655Z" fill="#E527BB"/>
<path d="M379.8 111.716L372.351 174.698C367.04 173.249 362.924 171.806 360.234 170.768L368.13 128.853L379.8 111.716Z" fill="#E527BB"/>
<path d="M356.232 120.537L355.812 120.65L360.734 138.868L361.154 138.754L356.232 120.537Z" fill="#47393D"/>
<path d="M407.7 171.44C406.726 174.061 405.317 176.594 403.363 178.954C402.911 179.504 401.642 181.041 400.981 181.301C400.366 181.539 396.87 182.409 397.125 183.133C397.386 183.893 399.671 182.797 399.775 183.429C399.839 183.817 395.409 186.044 396.047 186.768C396.465 187.244 398.969 185.528 399.091 185.858C399.207 186.16 395.688 187.632 396.273 188.368C396.888 189.139 399.972 186.247 400.239 186.618C400.366 186.803 396.401 189.221 396.894 189.806C397.554 190.595 400.401 187.736 400.731 188.073C400.894 188.235 399.711 189.064 399.068 189.65C398.714 189.974 398.917 190.31 399.23 190.235C402.511 189.412 405.845 184.531 406.332 184.229C409.74 182.159 412.604 179.945 414.993 177.626L407.7 171.44Z" fill="#FFBB8D"/>
<path d="M403.086 178.397C403.086 178.397 409.857 169.434 407.196 152.976L425.342 138.679C425.342 138.679 432.78 171.179 409.689 183.319L403.086 178.397Z" fill="#E527BB"/>
<path d="M409.55 183.493L402.75 178.42L402.924 178.241C403.017 178.148 411.817 168.791 404.843 141.828L405.266 141.718C411.776 166.89 404.599 176.913 403.399 178.362L409.811 183.145L409.55 183.493Z" fill="#47393D"/>
<path d="M216.203 189.731C216.203 189.731 218.916 158.466 251.758 154.605H266.727C266.727 154.605 302.166 158.634 302.166 189.731H216.203Z" fill="#A78BEF"/>
<path d="M251.758 154.599L252.361 149.828C257.149 152.356 261.665 152.402 265.88 149.828L266.727 154.599C266.727 154.599 264.993 159.341 258.975 159.44C253.642 159.527 251.758 154.599 251.758 154.599Z" fill="#A78BEF"/>
<path d="M367.359 132.164L362.906 155.648L363.333 155.729L367.786 132.245L367.359 132.164Z" fill="#47393D"/>
<path d="M406.662 151.497C405.891 148.083 403.422 144.854 403.398 144.825L403.74 144.558C403.845 144.691 406.297 147.891 407.086 151.405L406.662 151.497Z" fill="#47393D"/>
<path d="M260.918 187.331C251.885 187.331 243.885 186.108 236.25 183.638L236.43 183.087C249.729 187.389 264.17 187.882 283.266 184.687L283.365 185.261C275.109 186.635 267.724 187.331 260.918 187.331Z" fill="#47393D"/>
<path d="M260.395 181.562C255.891 181.562 251.653 181.255 247.548 180.635C243.71 180.055 239.942 179.191 236.359 178.067L236.533 177.516C240.093 178.635 243.826 179.487 247.635 180.061C253.183 180.896 258.975 181.157 265.352 180.861C270.633 180.617 276.32 179.974 282.726 178.907L282.825 179.481C276.396 180.554 270.691 181.197 265.387 181.441C263.682 181.522 262.018 181.562 260.395 181.562Z" fill="#47393D"/>
<path d="M259.85 175.788C255.6 175.788 251.589 175.516 247.693 174.959C244.006 174.437 240.365 173.649 236.875 172.611L237.037 172.055C240.504 173.081 244.116 173.863 247.774 174.385C253.113 175.145 258.667 175.377 264.754 175.092C270.099 174.849 275.804 174.211 282.198 173.139L282.297 173.713C275.885 174.791 270.152 175.429 264.783 175.672C263.102 175.748 261.461 175.788 259.85 175.788Z" fill="#47393D"/>
<path d="M259.343 170.02C255.331 170.02 251.528 169.776 247.83 169.284C244.253 168.808 240.739 168.089 237.383 167.144L237.539 166.588C240.873 167.527 244.363 168.24 247.911 168.71C253.03 169.388 258.346 169.591 264.161 169.33C269.529 169.081 275.257 168.443 281.669 167.371L281.767 167.944C275.326 169.023 269.575 169.666 264.184 169.91C262.526 169.979 260.92 170.02 259.343 170.02Z" fill="#47393D"/>
<path d="M258.804 164.246C255.094 164.246 251.552 164.031 248.079 163.602L247.969 163.591C244.606 163.185 241.256 162.541 238.003 161.683L237.945 161.672L238.021 161.092L238.148 161.121C241.372 161.973 244.699 162.611 248.033 163.017L248.143 163.028C253.042 163.637 258.074 163.805 263.546 163.556L263.627 163.55C268.891 163.318 274.613 162.675 281.124 161.591L281.217 162.165C274.683 163.254 268.938 163.898 263.656 164.13L263.569 164.136C261.952 164.205 260.364 164.246 258.804 164.246Z" fill="#47393D"/>
<path d="M259.442 158.512C251.099 158.512 243.708 157.277 238.009 155.886L237.945 155.874L238.021 155.295L238.142 155.324C248.305 157.811 263.923 159.788 280.602 155.069L280.759 155.625C273.321 157.73 266.08 158.512 259.442 158.512Z" fill="#47393D"/>
<path d="M251.758 154.599L249.033 189.632L216.203 189.725C216.203 189.731 218.197 156.472 251.758 154.599Z" fill="#E527BB"/>
<path d="M266.727 154.599L269.451 189.632L302.282 189.725C302.282 189.731 303.482 157.863 266.727 154.599Z" fill="#E527BB"/>
<path d="M233.449 189.691L232.898 189.638C232.922 189.401 233.438 183.824 234.939 180.258L235.449 180.473C233.977 183.963 233.455 189.633 233.449 189.691Z" fill="#47393D"/>
<path d="M286.456 189.696C286.45 189.638 285.957 183.963 284.508 180.473L285.018 180.258C286.502 183.835 286.989 189.412 287.006 189.65L286.456 189.696Z" fill="#47393D"/>
<path d="M228.939 120.661H227.773V107.727C227.773 103.762 231.171 100.539 235.345 100.539H248.968V101.646H235.345C231.814 101.646 228.939 104.377 228.939 107.733V120.661Z" fill="white"/>
<path d="M248.968 160.199H235.345C231.171 160.199 227.773 156.97 227.773 153.01V140.071H228.939V153.01C228.939 156.367 231.814 159.098 235.345 159.098H248.968V160.199Z" fill="white"/>
<path d="M290.595 120.662H289.43V107.728C289.43 104.371 286.555 101.64 283.024 101.64H269.406V100.533H283.024C287.198 100.533 290.595 103.762 290.595 107.722V120.662Z" fill="white"/>
<path d="M283.024 160.199H269.406V159.092H283.024C286.555 159.092 289.43 156.361 289.43 153.005V140.065H290.595V153.005C290.595 156.97 287.198 160.199 283.024 160.199Z" fill="white"/>
<path d="M315.675 189.974H209.938V189.395H315.681C317.733 189.395 319.403 187.725 319.403 185.673V128.853H319.982V185.673C319.977 188.044 318.046 189.974 315.675 189.974Z" fill="#47393D"/>
<path d="M305.247 193.453H244.578V194.033H305.247V193.453Z" fill="#47393D"/>
<path d="M385.901 81.4658C385.901 81.4658 384.817 77.1004 388.318 77.7555C388.318 77.7555 390.84 75.8482 392.742 77.9584C394.887 80.3295 391.855 83.4774 389.75 83.9586L385.901 81.4658Z" fill="black"/>
<path d="M385.714 81.57C385.697 81.541 384.195 78.8395 386.022 77.4365C387.169 76.5553 388.236 77.2336 388.642 77.7148L388.311 77.9931C388.271 77.9467 387.39 76.9321 386.294 77.7785C384.769 78.9496 386.091 81.3265 386.103 81.3497L385.714 81.57Z" fill="black"/>
<path d="M390.479 84.283L390.352 83.8656C390.369 83.8598 392.317 83.2511 393.071 81.7786C393.43 81.0771 393.465 80.277 393.169 79.4074L393.581 79.2683C393.917 80.2539 393.876 81.1698 393.459 81.9815C392.624 83.6163 390.566 84.254 390.479 84.283Z" fill="black"/>
<path d="M255.157 114.789C255.157 114.789 251.024 111.009 255.105 109.275C255.105 109.275 256.398 105.559 259.83 106.435C263.685 107.415 262.717 112.771 260.868 114.713L255.157 114.789Z" fill="black"/>
<path d="M255.062 114.98C255.028 114.963 251.648 113.218 252.552 110.551C253.259 108.47 255.37 109.061 255.393 109.067L255.271 109.484C255.202 109.467 253.538 109.009 252.964 110.69C252.175 113.003 255.225 114.575 255.254 114.592L255.062 114.98Z" fill="black"/>
<path d="M261.803 114.516L261.467 114.238C261.484 114.221 263.096 112.226 262.858 110.157C262.742 109.165 262.221 108.302 261.305 107.594L261.571 107.247C262.586 108.029 263.166 108.992 263.293 110.105C263.548 112.366 261.873 114.429 261.803 114.516Z" fill="black"/>
<path d="M458 307.654H85V308.42H458V307.654Z" fill="#47393D"/>
</g>
<defs>
<clipPath id="clip0_2023_7133">
<rect width="542.64" height="328.79" fill="white"/>
</clipPath>
</defs>
</svg>
