<svg width="11" height="20" viewBox="0 0 11 20" fill="none" xmlns="http://www.w3.org/2000/svg">
<path d="M9.27637 0C9.88326 0 10.3769 0.493703 10.377 1.10059V12.5176C10.3768 13.1243 9.88315 13.6182 9.27637 13.6182H6.25684V17.6201H7.25293C7.9089 17.6202 8.44238 18.1546 8.44238 18.8105V19.7227C8.44215 19.8758 8.31817 19.9998 8.16504 20H2.21191C2.05884 19.9998 1.93481 19.8757 1.93457 19.7227V18.8105C1.93457 18.1546 2.46813 17.6203 3.12402 17.6201H4.12012V13.6182H1.10059C0.493827 13.6181 0.000201212 13.1243 0 12.5176V1.10059C2.77067e-05 0.49372 0.49372 2.77627e-05 1.10059 0H9.27637ZM3.12402 18.1758C2.77444 18.1759 2.49023 18.4609 2.49023 18.8105V19.4443H7.88672V18.8105C7.88672 18.4609 7.6025 18.1759 7.25293 18.1758H3.12402ZM4.67578 13.6182V17.6201H5.70117V13.6182H4.67578ZM1.10059 0.555664C0.80007 0.555692 0.555692 0.80007 0.555664 1.10059V12.5176C0.555844 12.818 0.800164 13.0625 1.10059 13.0625H9.27637C9.57679 13.0625 9.82111 12.818 9.82129 12.5176V1.10059C9.82126 0.800066 9.57689 0.555685 9.27637 0.555664H1.10059ZM3.0752 11.9688C3.22849 11.9688 3.35332 12.0928 3.35352 12.2461C3.35352 12.3995 3.22861 12.5244 3.0752 12.5244H1.7959C1.64249 12.5244 1.51758 12.3995 1.51758 12.2461C1.51777 12.0928 1.6426 11.9688 1.7959 11.9688H3.0752ZM5.82812 11.9688C5.98142 11.9688 6.10625 12.0928 6.10645 12.2461C6.10645 12.3995 5.98154 12.5244 5.82812 12.5244H4.54883C4.39542 12.5244 4.27051 12.3995 4.27051 12.2461C4.2707 12.0928 4.39553 11.9688 4.54883 11.9688H5.82812ZM8.58105 11.9688C8.73435 11.9688 8.85918 12.0928 8.85938 12.2461C8.85938 12.3995 8.73447 12.5244 8.58105 12.5244H7.30176C7.14834 12.5244 7.02344 12.3995 7.02344 12.2461C7.02363 12.0928 7.14846 11.9688 7.30176 11.9688H8.58105ZM2.95605 10.2725C3.30613 10.2725 3.59082 10.5571 3.59082 10.9072C3.59081 11.2573 3.30613 11.542 2.95605 11.542H1.91504C1.56497 11.542 1.27931 11.2573 1.2793 10.9072C1.2793 10.5571 1.56496 10.2725 1.91504 10.2725H2.95605ZM5.70898 10.2725C6.05906 10.2725 6.34375 10.5571 6.34375 10.9072C6.34374 11.2573 6.05906 11.542 5.70898 11.542H4.66797C4.3179 11.542 4.03224 11.2573 4.03223 10.9072C4.03223 10.5571 4.31789 10.2725 4.66797 10.2725H5.70898ZM8.46191 10.2725C8.81199 10.2725 9.09766 10.5571 9.09766 10.9072C9.09764 11.2573 8.81199 11.542 8.46191 11.542H7.4209C7.07083 11.542 6.78615 11.2573 6.78613 10.9072C6.78613 10.5571 7.07082 10.2725 7.4209 10.2725H8.46191ZM1.91504 10.8281C1.87202 10.8281 1.83496 10.8642 1.83496 10.9072C1.83497 10.9502 1.87203 10.9863 1.91504 10.9863H2.95605C2.99906 10.9863 3.03612 10.9502 3.03613 10.9072C3.03613 10.8642 2.99907 10.8281 2.95605 10.8281H1.91504ZM4.66797 10.8281C4.62495 10.8281 4.58789 10.8642 4.58789 10.9072C4.5879 10.9502 4.62496 10.9863 4.66797 10.9863H5.70898C5.75199 10.9863 5.78905 10.9502 5.78906 10.9072C5.78906 10.8642 5.752 10.8281 5.70898 10.8281H4.66797ZM7.4209 10.8281C7.37788 10.8281 7.34082 10.8642 7.34082 10.9072C7.34083 10.9502 7.37789 10.9863 7.4209 10.9863H8.46191C8.50492 10.9863 8.54198 10.9502 8.54199 10.9072C8.54199 10.8642 8.50493 10.8281 8.46191 10.8281H7.4209ZM8.44727 1.26172C8.80552 1.26172 9.09766 1.55385 9.09766 1.91211V9.08398C9.09766 9.44228 8.80552 9.73438 8.44727 9.73438H1.92969C1.57139 9.73438 1.2793 9.44228 1.2793 9.08398V1.91211C1.2793 1.55385 1.57139 1.26172 1.92969 1.26172H8.44727ZM1.92969 1.81738C1.87862 1.81738 1.83496 1.86104 1.83496 1.91211V9.08398C1.83496 9.13506 1.87862 9.17871 1.92969 9.17871H8.44727C8.49834 9.17871 8.54199 9.13506 8.54199 9.08398V1.91211C8.54199 1.86104 8.49834 1.81738 8.44727 1.81738H1.92969Z" fill="url(#paint0_linear_2044_4955)"/>
<defs>
<linearGradient id="paint0_linear_2044_4955" x1="5.18854" y1="0" x2="5.18854" y2="20" gradientUnits="userSpaceOnUse">
<stop stop-color="#E527BB"/>
<stop offset="1" stop-color="#A78BEF"/>
</linearGradient>
</defs>
</svg>
