<svg width="543" height="329" viewBox="0 0 543 329" fill="none" xmlns="http://www.w3.org/2000/svg">
<g clip-path="url(#clip0_2023_5303)">
<path opacity="0.2" d="M78.788 327.839C41.4882 290.535 -9.49424 252.012 10.4949 193.818C23.6478 155.541 55.8804 144.88 82.6859 121.276C95.9087 109.631 87.5932 92.6757 87.3433 75.8481C86.7836 32.7513 139.135 -0.687543 187.269 0.010739C239.401 0.768031 261.969 48.9102 305.705 51.4968C322.876 51.7426 338.257 42.4781 353.449 35.1314C398.465 13.3371 469.906 27.2339 473.514 79.9296C474.444 108.392 439.183 154.174 474.514 169.143C502.668 181.072 531.113 185.469 536.19 228.133C542.837 283.976 507.716 314.621 461.971 329L78.788 327.839Z" fill="#999999"/>
<g clip-path="url(#clip1_2023_5303)">
<path d="M286.785 328.727H185.138C173.868 328.727 164.727 319.585 164.727 308.297V69.6008C164.727 58.3201 173.868 49.1707 185.138 49.1707H286.785C298.056 49.1707 307.196 58.3201 307.196 69.6008V308.297C307.196 319.585 298.056 328.727 286.785 328.727Z" fill="#E5EDFD"/>
<path d="M286.785 56.1674C294.184 56.1674 300.206 62.1953 300.206 69.601V308.297C300.206 315.703 294.184 321.731 286.785 321.731H185.138C177.739 321.731 171.717 315.703 171.717 308.297V69.601C171.717 62.1953 177.739 56.1674 185.138 56.1674H286.785ZM286.785 49.178H185.138C173.868 49.178 164.727 58.3274 164.727 69.6081V308.305C164.727 319.585 173.868 328.735 185.138 328.735H286.785C298.056 328.735 307.196 319.592 307.196 308.305V69.601C307.196 58.3202 298.056 49.178 286.785 49.178Z" fill="#060000"/>
<path d="M267.764 49.8811H204.164V57.2868C204.164 60.5662 206.824 63.2285 210.1 63.2285H261.827C265.104 63.2285 267.764 60.5662 267.764 57.2868V49.8811Z" fill="#060000"/>
<path d="M224.125 55.4282H248.515" stroke="white" stroke-width="0.764" stroke-miterlimit="10" stroke-linecap="round" stroke-linejoin="round"/>
<path d="M261.357 298.014H188.717C185.576 298.014 183.031 295.466 183.031 292.323V231.6C183.031 228.457 185.576 225.909 188.717 225.909H261.357C264.497 225.909 267.042 228.457 267.042 231.6V292.323C267.042 295.466 264.497 298.014 261.357 298.014Z" fill="#A78BEF"/>
<path d="M213.738 257.233H197.047C195.8 257.233 194.789 256.221 194.789 254.972V238.266C194.789 237.018 195.8 236.006 197.047 236.006H213.738C214.985 236.006 215.996 237.018 215.996 238.266V254.972C215.996 256.221 214.985 257.233 213.738 257.233Z" fill="white"/>
<path d="M223.234 242.701H242.405" stroke="black" stroke-width="1.3" stroke-miterlimit="10" stroke-linecap="round" stroke-linejoin="round"/>
<path d="M223.234 249.533H254.156" stroke="black" stroke-width="1.3" stroke-miterlimit="10" stroke-linecap="round" stroke-linejoin="round"/>
<path d="M194.781 266.073H215.995" stroke="white" stroke-width="1.3" stroke-miterlimit="10" stroke-linecap="round" stroke-linejoin="round"/>
<path d="M194.781 273.127H254.158" stroke="white" stroke-width="1.3" stroke-miterlimit="10" stroke-linecap="round" stroke-linejoin="round"/>
<path d="M194.781 280.899H254.158" stroke="white" stroke-width="1.3" stroke-miterlimit="10" stroke-linecap="round" stroke-linejoin="round"/>
<path d="M135.021 135.355C144.417 135.355 152.034 127.731 152.034 118.326C152.034 108.921 144.417 101.297 135.021 101.297C125.625 101.297 118.008 108.921 118.008 118.326C118.008 127.731 125.625 135.355 135.021 135.355Z" fill="#E527BB"/>
<path d="M128.164 119.137L133.498 123.098L142.646 113.597" stroke="white" stroke-width="2.1361" stroke-miterlimit="10" stroke-linecap="round" stroke-linejoin="round"/>
<path d="M201.478 210.61H144.51C142.46 210.61 140.789 208.945 140.789 206.893V167.166C140.789 165.114 142.452 163.449 144.51 163.449H201.478C203.528 163.449 205.192 165.114 205.192 167.166V206.893C205.192 208.945 203.528 210.61 201.478 210.61Z" fill="#E527BB"/>
<path d="M182.917 183.19C182.917 177.564 178.364 173.007 172.744 173.007C167.123 173.007 162.57 177.564 162.57 183.19C162.57 185.07 163.087 186.821 163.976 188.335H163.968L163.997 188.371C164.384 189.031 164.843 189.641 165.374 190.194L172.751 199.968L180.121 190.201C180.651 189.641 181.118 189.024 181.505 188.364L181.526 188.335H181.519C182.401 186.821 182.917 185.063 182.917 183.19ZM172.744 187.618C170.27 187.618 168.263 185.608 168.263 183.133C168.263 180.657 170.27 178.655 172.744 178.655C175.217 178.655 177.225 180.664 177.225 183.133C177.225 185.616 175.217 187.618 172.744 187.618Z" fill="white"/>
<path d="M285.06 156.495H186.818C183.678 156.495 181.133 153.948 181.133 150.805V90.0812C181.133 86.9381 183.678 84.3906 186.818 84.3906H285.06C288.2 84.3906 290.745 86.9381 290.745 90.0812V150.805C290.738 153.948 288.193 156.495 285.06 156.495Z" fill="white"/>
<path d="M206.76 120.199H192.127C191.03 120.199 190.148 119.309 190.148 118.219V103.565C190.148 102.467 191.037 101.584 192.127 101.584H206.767C207.864 101.584 208.746 102.474 208.746 103.565V118.219C208.746 119.316 207.857 120.199 206.76 120.199Z" fill="#A78BEF"/>
<path d="M230.455 120.199H215.815C214.718 120.199 213.836 119.309 213.836 118.219V103.565C213.836 102.467 214.725 101.584 215.815 101.584H230.455C231.551 101.584 232.433 102.474 232.433 103.565V118.219C232.44 119.316 231.551 120.199 230.455 120.199Z" fill="#A78BEF"/>
<path d="M254.151 120.199H239.518C238.421 120.199 237.539 119.309 237.539 118.219V103.565C237.539 102.467 238.428 101.584 239.518 101.584H254.158C255.255 101.584 256.136 102.474 256.136 103.565V118.219C256.136 119.316 255.247 120.199 254.151 120.199Z" fill="#A78BEF"/>
<path d="M277.845 120.199H263.205C262.108 120.199 261.227 119.309 261.227 118.219V103.565C261.227 102.467 262.116 101.584 263.205 101.584H277.845C278.942 101.584 279.824 102.474 279.824 103.565V118.219C279.831 119.316 278.942 120.199 277.845 120.199Z" fill="#E527BB"/>
<path d="M206.76 145.315H192.127C191.03 145.315 190.148 144.425 190.148 143.335V128.681C190.148 127.583 191.037 126.701 192.127 126.701H206.767C207.864 126.701 208.746 127.591 208.746 128.681V143.335C208.746 144.425 207.857 145.315 206.76 145.315Z" fill="#A78BEF"/>
<path d="M230.455 145.315H215.815C214.718 145.315 213.836 144.425 213.836 143.335V128.681C213.836 127.583 214.725 126.701 215.815 126.701H230.455C231.551 126.701 232.433 127.591 232.433 128.681V143.335C232.44 144.425 231.551 145.315 230.455 145.315Z" fill="#A78BEF"/>
<path d="M254.151 145.315H239.518C238.421 145.315 237.539 144.425 237.539 143.335V128.681C237.539 127.583 238.428 126.701 239.518 126.701H254.158C255.255 126.701 256.136 127.591 256.136 128.681V143.335C256.136 144.425 255.247 145.315 254.151 145.315Z" fill="#A78BEF"/>
<path d="M277.845 145.315H263.205C262.108 145.315 261.227 144.425 261.227 143.335V128.681C261.227 127.583 262.116 126.701 263.205 126.701H277.845C278.942 126.701 279.824 127.591 279.824 128.681V143.335C279.831 144.425 278.942 145.315 277.845 145.315Z" fill="#A78BEF"/>
<path d="M287.026 210.61H222.753C220.702 210.61 219.039 208.945 219.039 206.893V167.166C219.039 165.114 220.702 163.449 222.753 163.449H287.026C289.077 163.449 290.74 165.114 290.74 167.166V206.893C290.74 208.945 289.077 210.61 287.026 210.61Z" fill="white"/>
<path d="M280.988 179.516H230.049C228.952 179.516 228.07 178.626 228.07 177.536V170.776C228.07 169.678 228.959 168.795 230.049 168.795H280.988C282.084 168.795 282.966 169.685 282.966 170.776V177.536C282.973 178.626 282.084 179.516 280.988 179.516Z" fill="#E527BB"/>
<path d="M228.789 186.542H253.81" stroke="black" stroke-width="1.3" stroke-miterlimit="10" stroke-linecap="round" stroke-linejoin="round"/>
<path d="M228.789 192.641H282.258" stroke="black" stroke-width="1.3" stroke-miterlimit="10" stroke-linecap="round" stroke-linejoin="round"/>
<path d="M228.789 199.365H282.258" stroke="black" stroke-width="1.3" stroke-miterlimit="10" stroke-linecap="round" stroke-linejoin="round"/>
<path d="M321.487 282.664H284.235C281.733 282.664 279.711 280.634 279.711 278.136V245.794C279.711 243.29 281.74 241.266 284.235 241.266H321.487C323.989 241.266 326.011 243.297 326.011 245.794V278.136C326.011 280.634 323.989 282.664 321.487 282.664Z" fill="#E527BB"/>
<path d="M312.034 260.16L310.514 259.895C310.335 259.235 310.069 258.596 309.725 258L310.614 256.737C310.937 256.271 310.887 255.64 310.485 255.238L309.575 254.326C309.166 253.932 308.535 253.889 308.076 254.219L306.814 255.109C306.219 254.764 305.581 254.499 304.922 254.319L304.664 252.762C304.57 252.209 304.097 251.8 303.531 251.793H302.219C301.652 251.793 301.165 252.202 301.065 252.762L300.799 254.276C300.14 254.456 299.502 254.721 298.907 255.065L297.645 254.219C297.179 253.896 296.548 253.946 296.146 254.348L295.236 255.259C294.834 255.661 294.777 256.293 295.107 256.759L295.996 258.022C295.652 258.618 295.386 259.256 295.207 259.916L293.694 260.182C293.135 260.282 292.727 260.763 292.727 261.337V262.629C292.727 263.196 293.135 263.684 293.694 263.784L295.207 264.05C295.386 264.71 295.652 265.349 295.996 265.944L295.107 267.207C294.784 267.674 294.834 268.305 295.236 268.707L296.146 269.618C296.548 270.02 297.179 270.078 297.645 269.748L298.907 268.858C299.502 269.202 300.14 269.468 300.799 269.64L301.065 271.154C301.165 271.714 301.652 272.123 302.219 272.123H303.531C304.097 272.123 304.585 271.714 304.685 271.154L304.95 269.64C305.61 269.461 306.248 269.195 306.843 268.858L308.076 269.726C308.542 270.056 309.173 269.999 309.575 269.597L310.485 268.686C310.887 268.284 310.944 267.652 310.614 267.186L309.725 265.908C310.069 265.313 310.335 264.674 310.514 264.014L312.034 263.748C312.593 263.648 313.002 263.16 313.002 262.593V261.301C313.002 260.742 312.593 260.254 312.034 260.16ZM302.864 265.995C300.634 265.995 298.821 264.186 298.821 261.947C298.821 259.716 300.627 257.9 302.864 257.9C305.094 257.9 306.908 259.708 306.908 261.947C306.908 261.954 306.908 261.962 306.908 261.969C306.886 264.201 305.087 265.995 302.864 265.995Z" fill="white"/>
<path d="M124.641 328.728H418.542" stroke="black" stroke-width="0.75" stroke-miterlimit="10"/>
<path d="M364.855 62.8983H393.755C400.896 62.8983 406.689 57.1001 406.689 49.9527C406.689 42.7982 400.903 37 393.755 37H364.855C357.715 37 351.922 42.7982 351.922 49.9456C351.922 57.1001 357.715 62.8983 364.855 62.8983Z" fill="#E527BB"/>
<path d="M375.029 60.0423L365.652 69.2563L363.945 59.3606L375.029 60.0423Z" fill="#E527BB"/>
<path d="M361.062 46.989H394.794" stroke="white" stroke-width="1.0186" stroke-miterlimit="10" stroke-linecap="round" stroke-linejoin="round"/>
<path d="M361.062 50.6775H378.857" stroke="white" stroke-width="1.0186" stroke-miterlimit="10" stroke-linecap="round" stroke-linejoin="round"/>
<path d="M337.854 319.793L329.352 324.479C328.448 324.974 327.903 326.115 328.183 327.192C328.405 328.046 329.129 328.692 331.022 328.735C335.223 328.821 353.828 325.713 353.828 325.713V328.39L362.517 328.433C362.517 328.433 363.062 315.775 360.431 314.167L337.854 319.793Z" fill="#A78BEF"/>
<path d="M349.244 310.486L337.852 319.793C337.852 319.793 339.314 323.998 345.81 321.2C352.298 318.394 360.435 314.167 360.435 314.167L359.252 309.295L349.244 310.486Z" fill="#ECC696"/>
<path d="M359.25 309.295L360.433 275.503L349.148 274.591V314.16L359.25 309.295Z" fill="#ECC696"/>
<path d="M339.148 174.069L343.866 305.635H365.768L366.887 163.442L339.148 174.069Z" fill="#231F20"/>
<path d="M341.594 171.766L352.613 235.869C353.947 243.777 362.055 248.607 369.633 246.009C375.211 244.1 378.803 238.668 378.387 232.776L376.279 203.663C375.218 193.782 377.663 181.001 366.88 163.449L341.594 171.766Z" fill="#231F20"/>
<path d="M399.517 316.563L394.792 325.053C394.29 325.95 394.433 327.206 395.236 327.973C395.874 328.576 396.835 328.741 398.455 327.772C402.062 325.612 416.185 313.105 416.185 313.105L417.605 315.372L424.997 310.794C424.997 310.794 418.752 299.779 415.669 299.807L399.517 316.563Z" fill="#A78BEF"/>
<path d="M404.24 302.621L399.516 316.556C399.516 316.556 402.986 319.348 407.008 313.521C411.022 307.694 415.675 299.793 415.675 299.793L412.091 296.291L404.24 302.621Z" fill="#ECC696"/>
<path d="M412.082 296.299L395.184 267.035L385.125 272.252L406.103 305.792L412.082 296.299Z" fill="#ECC696"/>
<path d="M354.258 240.34L394.958 301.099L413.929 288.929L374.59 222.823L354.258 240.34Z" fill="#231F20"/>
<path d="M323.893 67.656C323.893 67.656 314.852 66.4791 313.669 75.0473C312.788 81.4268 315.727 84.5627 313.426 89.6936C311.124 94.8244 315.44 99.4099 315.44 99.4099C315.44 99.4099 326.158 104.39 337.794 94.2073L323.893 67.656Z" fill="#231F20"/>
<path d="M327.414 96.3171L332.318 109.076L342.584 106.335L333.099 87.9929L327.414 96.3171Z" fill="#ECC696"/>
<path d="M329.759 102.41L331.86 93.0664L328.031 97.9318L329.759 102.41Z" fill="black"/>
<path d="M322.755 69.5721C322.755 69.5721 316.661 70.8566 316.654 78.5995C316.654 78.5995 316.36 81.5561 316.747 89.6219C317.019 95.3341 319.715 99.288 325.071 98.7427C327.666 98.4772 330.39 96.8913 332.828 94.8389L336.24 91.3585C344.127 81.7211 335.896 67.204 323.644 69.3927C323.35 69.4501 323.056 69.5075 322.755 69.5721Z" fill="#ECC696"/>
<path d="M317.141 85.1226L314.983 88.9187C314.732 89.3205 314.861 89.9377 315.392 89.9736L318.195 90.3395L317.141 85.1226Z" fill="#ECC696"/>
<path d="M331.541 82.8692C331.756 81.1182 332.946 68.9261 323.826 70.4977C322.414 70.7417 321.69 68.8544 322.909 68.0937C326.171 66.0557 331.347 64.6492 338.832 67.534C341.872 68.7037 346.059 72.7151 346.059 76.6547C346.066 85.1152 343.248 89.3993 338.294 93.7552C338.036 93.9776 337.642 93.9059 337.484 93.6045L334.294 87.4331C334.279 87.4116 334.272 87.3901 334.265 87.3685C333.914 86.2491 332.136 83.8881 331.641 83.2423C331.562 83.1347 331.526 83.0055 331.541 82.8692Z" fill="#231F20"/>
<path d="M325.431 67.5126C313.96 72.8085 330.751 85.4096 330.751 85.4096L335.475 76.1023C335.475 76.0951 327.345 66.6228 325.431 67.5126Z" fill="#231F20"/>
<path d="M332.397 88.0432C333.114 93.1525 332.519 98.8 332.519 98.8C332.519 98.8 347.001 103.457 353.576 86.9668C353.576 86.9668 349.374 85.345 348.084 81.7283C346.793 78.1115 348.069 65.5319 331.164 65.9051C331.164 65.9051 331.594 82.288 332.397 88.0432Z" fill="#231F20"/>
<path d="M337.961 85.302C338.226 87.4405 336.713 89.3924 334.569 89.6579C332.426 89.9234 330.483 88.4093 330.218 86.2636C329.952 84.1252 331.465 82.1733 333.609 81.9078C335.738 81.6423 337.688 83.1636 337.961 85.302Z" fill="#ECC696"/>
<path d="M332.398 87.4404C332.398 87.4404 332.549 84.4695 335.001 84.4121" stroke="black" stroke-width="0.5111" stroke-miterlimit="10" stroke-linecap="round" stroke-linejoin="round"/>
<path d="M357.594 116.137L381.597 135.591C385.031 138.526 385.297 143.758 382.171 147.023C379.31 150.008 374.629 150.274 371.453 147.626L345.406 126.973L357.594 116.137Z" fill="#ECC696"/>
<path d="M372 123.277C372 123.277 370.975 131.02 357.489 139.911L339.157 126.27C334.038 122.459 333.293 115.075 337.544 110.317C341.064 106.378 346.914 105.545 351.395 108.351L372 123.277Z" fill="#A78BEF"/>
<path d="M371.556 147.898L395.366 178.511L401.202 171.658L383.407 137.658C380.511 133.747 374.804 133.388 371.434 136.897C368.474 139.983 368.531 144.877 371.556 147.898Z" fill="#ECC696"/>
<path d="M393.974 177.213L393.73 178.748C393.4 180.808 393.558 182.917 394.196 184.898L395.315 188.393C395.58 189.225 396.526 189.613 397.3 189.218C397.953 188.881 398.34 188.178 398.268 187.446L397.903 183.563L405.646 194.535C406.011 195.081 406.771 195.181 407.273 194.751L407.603 194.464C407.997 194.119 408.09 193.552 407.832 193.1L402.885 185.537L409.768 193.438C410.169 193.961 410.929 194.012 411.395 193.552L411.625 193.323C412.019 192.935 412.062 192.318 411.725 191.88L406.04 184.554L411.582 189.168C412.105 189.627 412.915 189.491 413.259 188.881L413.331 188.759C413.561 188.343 413.496 187.819 413.166 187.474L407.753 182.272L411.152 184.302C411.775 184.812 412.715 184.489 412.901 183.707C412.987 183.334 412.872 182.939 412.6 182.673L398.792 169.735L395.967 172.964C394.913 174.163 394.225 175.634 393.974 177.213Z" fill="#ECC696"/>
<path d="M339.254 105.947C339.254 105.947 329.819 105.036 329.697 122.086C329.575 139.187 334.967 147.245 339.147 174.062C339.147 174.062 355.141 172.096 366.885 163.434C366.885 163.442 367.616 100.623 339.254 105.947Z" fill="#A78BEF"/>
<path d="M337.352 128.803L315.04 150.181C311.692 153.223 306.48 152.821 303.641 149.305C301.039 146.09 301.376 141.404 304.401 138.591L328.16 115.334L337.352 128.803Z" fill="#ECC696"/>
<path d="M331.264 142.351C331.264 142.351 323.485 142.079 315.484 126.205L331.171 109.593C335.551 104.95 342.965 105.079 347.187 109.866C350.686 113.827 350.822 119.74 347.51 123.859L331.264 142.351Z" fill="#A78BEF"/>
<path d="M333.422 139.897L344.147 127.684" stroke="black" stroke-width="0.5111" stroke-miterlimit="10" stroke-linecap="round" stroke-linejoin="round"/>
<path d="M314.649 138.821L282.86 114.745L278.688 121.297L303.809 149.535C306.87 153.144 312.441 153.123 315.481 149.499C318.148 146.305 317.782 141.555 314.649 138.821Z" fill="#ECC696"/>
<path d="M287.072 121.39C285.874 125.423 281.989 125.258 274.346 123.12C270.295 121.986 268.833 119.115 270.03 115.082C271.227 111.049 275.464 108.753 279.494 109.951C283.516 111.15 288.269 117.364 287.072 121.39Z" fill="#ECC696"/>
<path d="M280.89 110.526L271.176 104.871C270.537 104.44 269.641 104.591 269.197 105.215C268.817 105.754 268.903 106.471 269.405 106.909L276.947 113.288L280.89 110.526Z" fill="#ECC696"/>
</g>
</g>
<defs>
<clipPath id="clip0_2023_5303">
<rect width="542.64" height="328.79" fill="white"/>
</clipPath>
<clipPath id="clip1_2023_5303">
<rect width="307" height="292" fill="white" transform="translate(118 37)"/>
</clipPath>
</defs>
</svg>
