<svg width="20" height="21" viewBox="0 0 20 21" fill="none" xmlns="http://www.w3.org/2000/svg">
<path d="M6.9502 20.6929H0.84375V19.0191H6.9502V20.6929ZM9.94141 0.903881C11.0622 -0.21666 12.884 -0.216645 14.0049 0.903881L18.3223 5.21833L18.5195 5.43708C19.4386 6.56489 19.3729 8.23206 18.3223 9.28279L15.3213 12.2828L19.7686 16.7301L18.585 17.9136L14.1377 13.4664L11.126 16.4791C10.0753 17.5298 8.40811 17.5955 7.28027 16.6763L7.0625 16.4791L2.74512 12.1646H2.74414C1.62358 11.0438 1.6235 9.22196 2.74414 8.10115L9.94141 0.903881ZM3.92871 9.28572C3.46224 9.75236 3.46168 10.5132 3.92773 10.9801H3.92871L8.24609 15.2945V15.2955C8.71294 15.7619 9.47463 15.762 9.94141 15.2955L11.4971 13.7388L5.48535 7.7281L3.92871 9.28572ZM12.8213 2.08845C12.3545 1.62165 11.5929 1.62183 11.126 2.08845L6.66992 6.54353L12.6807 12.5552L17.1387 8.09822C17.5761 7.66061 17.6033 6.96371 17.2207 6.49372L17.1387 6.4029L12.8213 2.08845Z" fill="url(#paint0_linear_558_673)"/>
<defs>
<linearGradient id="paint0_linear_558_673" x1="10.3062" y1="0.0630605" x2="10.3062" y2="20.6934" gradientUnits="userSpaceOnUse">
<stop stop-color="#E527BB"/>
<stop offset="1" stop-color="#A78BEF"/>
</linearGradient>
</defs>
</svg>
