<svg width="22" height="32" viewBox="0 0 22 32" fill="none" xmlns="http://www.w3.org/2000/svg">
<path d="M10.4986 29.2781C10.5414 29.3356 10.5968 29.3826 10.6607 29.4153C10.7245 29.4479 10.795 29.4655 10.8667 29.4665H10.8728C10.9434 29.4665 11.0131 29.4504 11.0766 29.4195C11.1401 29.3885 11.1957 29.3436 11.2392 29.2879C11.6246 28.7964 20.6733 17.1663 20.6733 9.80053C20.6733 7.20126 19.6408 4.70846 17.8028 2.87051C15.9649 1.03255 13.4721 0 10.8728 0C8.27353 0 5.78073 1.03255 3.94277 2.87051C2.10482 4.70846 1.07227 7.20126 1.07227 9.80053C1.07227 12.6214 2.66395 16.7636 5.80367 22.1114C8.12321 26.0623 10.4752 29.2464 10.4986 29.2781ZM10.8728 0.931432C13.2243 0.934038 15.4787 1.86933 17.1414 3.5321C18.8041 5.19487 19.7394 7.44932 19.7419 9.80079C19.7419 16.0198 12.6162 25.9063 10.8824 28.2192C9.1696 25.8169 2.0037 15.4394 2.0037 9.80079C2.00623 7.44932 2.94146 5.19487 4.60418 3.5321C6.2669 1.86933 8.52132 0.934038 10.8728 0.931432Z" fill="#DAA7EE"/>
<path d="M16.5079 9.80061C16.508 8.68633 16.1776 7.59706 15.5586 6.67054C14.9395 5.74403 14.0597 5.02188 13.0302 4.59543C12.0008 4.16898 10.868 4.05737 9.77513 4.27473C8.68225 4.49208 7.67837 5.02863 6.89044 5.81652C6.10251 6.60442 5.56591 7.60827 5.34851 8.70113C5.1311 9.794 5.24266 10.9268 5.66906 11.9563C6.09547 12.9857 6.81757 13.8656 7.74405 14.4847C8.67054 15.1037 9.75979 15.4342 10.8741 15.4342C12.3677 15.4326 13.7997 14.8385 14.8559 13.7824C15.9121 12.7262 16.5062 11.2942 16.5079 9.80061ZM10.8741 14.5027C9.94401 14.5027 9.03484 14.2269 8.26153 13.7102C7.48822 13.1935 6.8855 12.4591 6.52959 11.5998C6.17369 10.7405 6.08058 9.79503 6.26204 8.88285C6.44351 7.97066 6.89139 7.13278 7.54906 6.47515C8.20673 5.81751 9.04465 5.36967 9.95684 5.18826C10.869 5.00685 11.8145 5.10001 12.6738 5.45596C13.533 5.81192 14.2674 6.41468 14.7841 7.18802C15.3008 7.96136 15.5765 8.87055 15.5765 9.80061C15.575 11.0473 15.0791 12.2425 14.1975 13.124C13.316 14.0055 12.1207 14.5013 10.8741 14.5027Z" fill="#DAA7EE"/>
<path d="M15.6222 26.2913C15.5012 26.2794 15.3802 26.3153 15.2852 26.3913C15.1903 26.4674 15.1288 26.5776 15.114 26.6983C15.0992 26.8191 15.1322 26.9409 15.206 27.0376C15.2798 27.1344 15.3885 27.1984 15.5089 27.2161C19.5186 27.7082 20.8159 28.6364 20.8159 29.0087C20.8159 29.7078 17.3068 31.0685 10.8735 31.0685C4.44027 31.0685 0.931165 29.7067 0.931165 29.0087C0.931165 28.6095 2.2035 27.7928 5.6184 27.2989C5.73823 27.2785 5.84535 27.2121 5.91692 27.1138C5.98848 27.0156 6.01882 26.8932 6.00146 26.7729C5.98409 26.6526 5.92041 26.5438 5.82399 26.4698C5.72757 26.3958 5.60604 26.3624 5.48533 26.3767C2.98377 26.7389 0 27.4891 0 29.0087C0 31.2034 6.50273 31.9999 10.8738 31.9999C15.2449 31.9999 21.7476 31.2034 21.7476 29.0087C21.7473 27.2986 17.9098 26.5723 15.6222 26.2913Z" fill="#DAA7EE"/>
</svg>
