<svg width="20" height="17" viewBox="0 0 20 17" fill="none" xmlns="http://www.w3.org/2000/svg">
<g clip-path="url(#clip0_379_4121)">
<path d="M20 2.4C19.9061 1.9 19.7183 1.5 19.4366 1.1C19.3427 1 19.3427 0.9 19.2488 0.9C18.6854 0.3 18.0282 0 17.277 0H2.8169C1.97183 0 1.31455 0.3 0.84507 0.9C0.751174 0.9 0.657277 1 0.657277 1.1C0.375587 1.5 0.187793 1.9 0.0938967 2.4C0 2.6 0 2.8 0 3V13.8C0 14.2 0.0938967 14.6 0.187793 15C0.28169 15.3 0.56338 15.7 0.751174 15.9C0.84507 15.9 0.938967 16 1.03286 16.1C1.50235 16.5 2.15962 16.8 2.8169 16.8H17.277C17.9343 16.8 18.5915 16.5 19.061 16.1C19.1549 16 19.1549 16 19.2488 15.9C19.5305 15.6 19.7183 15.3 19.8122 15C20 14.6 20 14.2 20 13.8V3C20 2.8 20 2.6 20 2.4ZM1.78404 1.9C2.06573 1.6 2.34742 1.5 2.723 1.5H17.1831C17.5587 1.5 17.9343 1.7 18.1221 1.9C18.1221 1.9 18.216 2 18.216 2.1L10.6103 9.1C10.4225 9.3 10.1408 9.4 9.85916 9.4C9.57747 9.4 9.29577 9.3 9.10798 9.1L1.50235 2.1C1.69014 2 1.78404 2 1.78404 1.9ZM1.40845 13.8V3.7L6.85446 8.8L1.40845 13.8ZM17.277 15.2H2.8169C2.53521 15.2 2.34742 15.1 2.15962 15L7.98122 9.6L8.4507 10.2C8.92019 10.6 9.48357 10.8 10.0469 10.8C10.6103 10.8 11.1737 10.6 11.6432 10.2L12.2066 9.7L18.0282 15.1C17.7465 15.2 17.4648 15.2 17.277 15.2ZM18.5915 13.8L13.1455 8.8L18.5915 3.7V13.8Z" fill="url(#paint0_linear_379_4121)"/>
</g>
<defs>
<linearGradient id="paint0_linear_379_4121" x1="10" y1="0" x2="10" y2="16.8" gradientUnits="userSpaceOnUse">
<stop stop-color="#E527BB"/>
<stop offset="1" stop-color="#A78BEF"/>
</linearGradient>
<clipPath id="clip0_379_4121">
<rect width="20" height="16.7" fill="white"/>
</clipPath>
</defs>
</svg>
