<svg width="38" height="38" viewBox="0 0 38 38" fill="none" xmlns="http://www.w3.org/2000/svg">
<g clip-path="url(#clip0_611_546)">
<path d="M37.6759 22.2929C37.5023 22.1193 37.2667 22.0217 37.0211 22.0217C36.7755 22.0217 36.54 22.1193 36.3663 22.2929L28.1261 30.5331C28.0913 30.568 28.05 30.5956 28.0045 30.6144C27.959 30.6333 27.9102 30.643 27.861 30.643C27.8117 30.643 27.763 30.6333 27.7175 30.6144C27.672 30.5956 27.6307 30.568 27.5958 30.5331L24.9249 27.8621C24.7507 27.6907 24.5159 27.5951 24.2715 27.5961C24.0272 27.5971 23.7931 27.6946 23.6204 27.8673C23.4476 28.0401 23.3501 28.2742 23.3491 28.5185C23.3482 28.7628 23.4438 28.9977 23.6152 29.1718L27.5958 33.1525C27.6307 33.1873 27.672 33.2149 27.7175 33.2338C27.763 33.2526 27.8117 33.2623 27.861 33.2623C27.9102 33.2623 27.959 33.2526 28.0045 33.2338C28.05 33.2149 28.0913 33.1873 28.1261 33.1525L37.6759 23.6026C37.7619 23.5166 37.8301 23.4145 37.8767 23.3021C37.9232 23.1898 37.9472 23.0694 37.9472 22.9478C37.9472 22.8261 37.9232 22.7057 37.8767 22.5934C37.8301 22.481 37.7619 22.3789 37.6759 22.2929Z" fill="#DAA7EE"/>
<path d="M36.1065 28.3448C35.8609 28.3448 35.6254 28.4424 35.4517 28.6161C35.2781 28.7898 35.1805 29.0253 35.1805 29.2709C35.1805 30.6311 34.7772 31.9607 34.0215 33.0916C33.2659 34.2225 32.1918 35.104 30.9352 35.6245C29.6786 36.145 28.2958 36.2812 26.9618 36.0158C25.6278 35.7505 24.4024 35.0955 23.4407 34.1337C22.4789 33.172 21.8239 31.9466 21.5586 30.6126C21.2932 29.2786 21.4294 27.8958 21.9499 26.6392C22.4704 25.3826 23.3519 24.3085 24.4828 23.5529C25.6137 22.7972 26.9433 22.3939 28.3035 22.3939C29.3738 22.3905 30.4299 22.6397 31.3859 23.1212C31.6054 23.2315 31.8597 23.25 32.0928 23.1727C32.3259 23.0955 32.5188 22.9288 32.6291 22.7093C32.7393 22.4898 32.7578 22.2356 32.6806 22.0024C32.6033 21.7693 32.4366 21.5764 32.2172 21.4662C31.0034 20.8544 29.6625 20.5376 28.3034 20.5415C26.5769 20.5415 24.8892 21.0535 23.4537 22.0127C22.0182 22.9718 20.8994 24.3351 20.2387 25.9301C19.578 27.5252 19.4051 29.2803 19.7419 30.9736C20.0787 32.6669 20.9101 34.2223 22.1309 35.4431C23.3516 36.6639 24.907 37.4953 26.6003 37.8321C28.2936 38.169 30.0487 37.9961 31.6437 37.3355C33.2388 36.6748 34.6021 35.556 35.5613 34.1205C36.5205 32.6851 37.0325 30.9974 37.0326 29.2709C37.0326 29.0253 36.935 28.7898 36.7613 28.6161C36.5877 28.4424 36.3521 28.3448 36.1065 28.3448Z" fill="#DAA7EE"/>
<path d="M30.2234 14.9816H28.6648C28.4076 14.9816 28.1609 15.0838 27.979 15.2657C27.7971 15.4476 27.6949 15.6943 27.6949 15.9515C27.6949 16.2088 27.7971 16.4555 27.979 16.6374C28.1609 16.8193 28.4076 16.9215 28.6648 16.9215H31.1981C31.4655 16.9114 31.719 16.7993 31.9063 16.6082C32.0937 16.4171 32.2007 16.1615 32.2055 15.8939C32.1574 11.662 30.4425 7.61989 27.433 4.6444C24.4235 1.6689 20.3621 7.76436e-05 16.13 0C7.26528 0 0.0532227 7.21198 0.0532227 16.0767C0.0532227 24.9415 7.26528 32.1534 16.13 32.1534C16.338 32.1533 16.5404 32.0864 16.7074 31.9626C16.8744 31.8387 16.9973 31.6645 17.0578 31.4656C17.0868 31.3826 17.101 31.2953 17.0998 31.2074V28.4865C17.0975 28.2307 16.9944 27.9861 16.8127 27.8061C16.631 27.626 16.3856 27.5249 16.1298 27.5249C15.874 27.5249 15.6285 27.626 15.4469 27.8061C15.2652 27.9861 15.162 28.2307 15.1598 28.4865V30.1796C8.09468 29.6984 2.43869 24.0033 2.01898 16.9219H3.59494C3.85219 16.9219 4.09891 16.8197 4.28081 16.6378C4.46271 16.4559 4.56491 16.2092 4.56491 15.9519C4.56491 15.6947 4.46271 15.4479 4.28081 15.266C4.09891 15.0841 3.85219 14.9819 3.59494 14.9819H2.03531C2.57154 8.01614 8.17802 2.44922 15.16 1.97422V3.41651C15.1622 3.6723 15.2654 3.91686 15.4471 4.09694C15.6288 4.27703 15.8742 4.37807 16.13 4.37807C16.3858 4.37807 16.6313 4.27703 16.8129 4.09694C16.9946 3.91686 17.0978 3.6723 17.1 3.41651V1.97422C24.0545 2.45241 29.6848 8.02987 30.2234 14.9816Z" fill="#DAA7EE"/>
<path d="M16.1296 9.49536C15.8723 9.49536 15.6256 9.59756 15.4437 9.77948C15.2617 9.9614 15.1595 10.2081 15.1595 10.4654V15.5163L8.6003 19.297C8.48902 19.3601 8.39132 19.4446 8.31283 19.5457C8.23435 19.6467 8.17662 19.7623 8.14299 19.8858C8.10936 20.0092 8.10049 20.1381 8.11688 20.265C8.13327 20.3919 8.1746 20.5143 8.23849 20.6251C8.30238 20.736 8.38757 20.8331 8.48916 20.9109C8.59074 20.9887 8.70671 21.0456 8.83039 21.0784C8.95406 21.1112 9.083 21.1192 9.20978 21.1019C9.33656 21.0846 9.45867 21.0425 9.56908 20.9778L16.6139 16.9176C16.6317 16.9074 16.6473 16.8974 16.6619 16.8879C16.7964 16.7998 16.9069 16.6796 16.9833 16.5381C17.0598 16.3966 17.0998 16.2383 17.0998 16.0775V10.4654C17.0998 10.338 17.0747 10.2118 17.0259 10.0941C16.9771 9.97645 16.9057 9.86951 16.8156 9.77943C16.7255 9.68935 16.6185 9.6179 16.5008 9.56916C16.3831 9.52042 16.257 9.49534 16.1296 9.49536Z" fill="#DAA7EE"/>
</g>
<defs>
<clipPath id="clip0_611_546">
<rect width="38" height="38" fill="white"/>
</clipPath>
</defs>
</svg>
