<svg width="49" height="46" viewBox="0 0 49 46" fill="none" xmlns="http://www.w3.org/2000/svg">
<path d="M5.85996 29.8348L7.57793 29.5312C7.94403 29.4664 8.18843 29.1171 8.12368 28.7509C8.05905 28.3847 7.70944 28.1409 7.34346 28.2051L5.62548 28.5088C5.25939 28.5735 5.01499 28.9228 5.07973 29.289C5.13739 29.6156 5.42144 29.8452 5.74191 29.8452C5.78085 29.8452 5.82031 29.8418 5.85996 29.8348Z" fill="#DAA7EE"/>
<path d="M7.71284 30.2989L5.99487 30.6025C5.62877 30.6673 5.38437 31.0166 5.44912 31.3828C5.50677 31.7093 5.79082 31.939 6.1113 31.939C6.15025 31.939 6.18969 31.9356 6.22935 31.9286L7.94732 31.6249C8.31341 31.5602 8.55781 31.2109 8.49307 30.8447C8.42843 30.4785 8.07914 30.2346 7.71284 30.2989Z" fill="#DAA7EE"/>
<path d="M45.2042 0H9.10556C7.38143 0 5.97867 1.40271 5.97867 3.1269V23.3083C5.97867 23.6802 6.28012 23.9816 6.65198 23.9816C7.02383 23.9816 7.32528 23.6802 7.32528 23.3083V8.51134H46.9845V31.3622C46.9845 32.3438 46.1859 33.1424 45.2042 33.1424H28.6626C28.9194 31.2529 28.8524 29.0647 28.4573 26.8301C27.9613 24.0242 27.0058 21.4622 25.7667 19.6159C24.4211 17.6108 22.8656 16.6504 21.3873 16.9119C20.4551 17.0767 19.6609 17.7086 19.0565 18.7405C17.9445 20.1563 14.6406 23.8753 9.69381 25.2472L4.22611 26.2138C3.90544 26.2705 3.6227 26.4609 3.45023 26.7365C3.29308 26.9877 3.15914 27.2508 3.0459 27.522C2.91465 27.5287 2.78329 27.5409 2.65381 27.5638C0.904181 27.8731 -0.263387 29.5729 0.0512137 31.353C0.332429 32.9441 1.70413 34.0689 3.24194 34.0689C3.42453 34.0689 3.60954 34.053 3.79527 34.0202C3.88632 34.0041 3.97665 33.9839 4.06582 33.96C4.3041 34.2393 4.56984 34.4956 4.86198 34.7232C4.94356 34.7868 5.03289 34.8378 5.12681 34.8769L6.23216 37.8347C6.33292 38.1042 6.58885 38.2724 6.86278 38.2724C6.92565 38.2724 6.98948 38.2627 7.05255 38.2441L9.23412 44.919C9.37757 45.3578 9.70501 45.7095 10.1325 45.8838C10.3231 45.9614 10.524 46 10.7246 46C10.9739 46 11.2225 45.9403 11.4495 45.822L13.9674 44.5083C14.4176 44.2735 14.7272 43.8329 14.7957 43.3299C14.8642 42.8267 14.6836 42.3194 14.3126 41.9728L13.0063 40.7524L11.7918 36.7562C12.0811 36.6362 12.2522 36.3293 12.1959 36.0157L11.8129 33.8802L12.2497 33.803C12.2944 33.7951 12.3368 33.7813 12.3781 33.7651C16.4213 33.2892 20.3849 36.008 21.9749 37.2661C22.245 37.5334 22.5197 37.7614 22.7971 37.9505C22.8029 37.9543 22.8085 37.9583 22.8144 37.9619C23.4481 38.39 24.096 38.6132 24.7355 38.6132C24.8963 38.6132 25.0567 38.5993 25.2161 38.5711C26.6946 38.3097 27.8264 36.8744 28.4031 34.5296C28.4063 34.5163 28.409 34.5024 28.4123 34.4891H45.2042C46.9283 34.4891 48.3311 33.0864 48.3311 31.3622V3.1269C48.3311 1.40271 46.9284 0 45.2042 0ZM21.1709 24.8525C21.3158 24.8935 21.5598 25.0689 21.8338 25.4721C22.2308 26.0564 22.5522 26.9213 22.7155 27.8451C23.0401 29.6813 22.638 30.8722 22.3271 31.1572L19.8491 30.1519C19.7038 29.5897 19.5767 29.0108 19.472 28.4185C19.332 27.6265 19.2399 26.8627 19.1874 26.1317L21.1709 24.8525ZM1.37719 31.1186C1.20638 30.152 1.76958 29.2287 2.65608 28.9486C2.47303 30.2233 2.68769 31.5633 3.2561 32.7199C2.35396 32.7269 1.54399 32.0621 1.37719 31.1186ZM4.54677 27.5246L9.61762 26.6282C8.90749 28.642 9.33539 31.0625 10.6927 32.7107L5.62207 33.607C3.91453 32.2151 3.41997 29.4177 4.54677 27.5246ZM13.3932 42.9567C13.466 43.0247 13.4672 43.1059 13.4614 43.1482C13.4557 43.1905 13.4328 43.2684 13.3446 43.3144L10.8267 44.628C10.7475 44.6692 10.6762 44.6512 10.6408 44.6367C10.6054 44.6223 10.5418 44.5854 10.5142 44.5007L8.33797 37.8421L10.5077 37.1618L11.7705 41.3169C11.8049 41.4301 11.8685 41.5323 11.955 41.6131L13.3932 42.9567ZM10.7658 35.6696L7.27025 36.7656L6.54029 34.8123L10.4869 34.1146L10.7658 35.6696ZM12.3002 32.4208C10.5334 30.975 10.0694 27.998 11.3744 26.1177C14.2174 25.0669 16.4516 23.3743 18.0084 21.8941C17.6751 23.881 17.7195 26.24 18.1461 28.6528C18.5122 30.724 19.1293 32.6613 19.9254 34.277C19.8585 34.2399 19.7909 34.2029 19.7226 34.166C17.1285 32.7672 14.5907 32.175 12.3002 32.4208ZM24.9816 37.245C24.5489 37.3214 24.0722 37.1832 23.582 36.8567C23.486 36.7691 23.2351 36.545 22.8532 36.2398C22.5509 35.9299 22.2492 35.5554 21.9548 35.1167C21.3355 34.1939 20.7928 33.067 20.3512 31.8087L22.0779 32.5093C22.0825 32.5112 22.0872 32.5124 22.0918 32.5142C22.0981 32.5166 22.1046 32.5187 22.111 32.5209C22.1435 32.5322 22.1762 32.5414 22.2092 32.5475C22.2123 32.5481 22.2156 32.5483 22.2188 32.5489C22.2561 32.5552 22.2935 32.5589 22.3308 32.5589C22.3678 32.5589 22.4044 32.5551 22.4406 32.5491C22.4432 32.5487 22.4456 32.5489 22.4482 32.5484C22.8759 32.4728 23.647 32.1328 24.0067 30.7056C24.2272 29.8302 24.2395 28.7311 24.0415 27.6107C23.8435 26.4903 23.455 25.462 22.9477 24.7153C22.1239 23.5028 21.2867 23.4437 20.8572 23.5176C20.8332 23.5217 20.8094 23.527 20.7857 23.5337C20.7796 23.5354 20.7737 23.5378 20.7676 23.5397C20.7528 23.5444 20.7379 23.549 20.7234 23.5547C20.7067 23.5612 20.6907 23.5687 20.6747 23.5765C20.671 23.5783 20.6671 23.5797 20.6633 23.5817C20.6415 23.5928 20.6203 23.6051 20.6001 23.6184L19.1356 24.5628C19.1544 22.3564 19.5707 20.5731 20.2039 19.4653C20.4345 19.1634 20.5652 18.9699 20.5918 18.93C20.6086 18.9046 20.6228 18.8784 20.6359 18.8518C20.9375 18.5121 21.2703 18.3001 21.6218 18.2379C21.7004 18.224 21.7804 18.2172 21.8617 18.2172C22.7201 18.2172 23.721 18.9841 24.6486 20.3663C25.7855 22.0604 26.6672 24.4392 27.1313 27.0645C28.1214 32.6651 26.7931 36.9248 24.9816 37.245ZM7.32527 7.16473V3.1269C7.32527 2.14525 8.12392 1.34662 9.10555 1.34662H45.2042C46.1859 1.34662 46.9845 2.14526 46.9845 3.1269V7.16473H7.32527Z" fill="#DAA7EE"/>
<path d="M10.8634 3.59814H10.5876C10.2158 3.59814 9.91431 3.8996 9.91431 4.27145C9.91431 4.64331 10.2158 4.94476 10.5876 4.94476H10.8634C11.2352 4.94476 11.5367 4.64331 11.5367 4.27145C11.5367 3.8996 11.2352 3.59814 10.8634 3.59814Z" fill="#DAA7EE"/>
<path d="M16.792 3.59814H16.5163C16.1445 3.59814 15.843 3.8996 15.843 4.27145C15.843 4.64331 16.1445 4.94476 16.5163 4.94476H16.792C17.1638 4.94476 17.4653 4.64331 17.4653 4.27145C17.4653 3.8996 17.1638 3.59814 16.792 3.59814Z" fill="#DAA7EE"/>
<path d="M13.8236 3.59814H13.5478C13.176 3.59814 12.8745 3.8996 12.8745 4.27145C12.8745 4.64331 13.176 4.94476 13.5478 4.94476H13.8236C14.1954 4.94476 14.4969 4.64331 14.4969 4.27145C14.4969 3.8996 14.1954 3.59814 13.8236 3.59814Z" fill="#DAA7EE"/>
<path d="M33.0389 16.2832H29.9558C29.5839 16.2832 29.2825 16.5847 29.2825 16.9565V20.6141C29.2825 20.9859 29.5839 21.2874 29.9558 21.2874H33.0389C33.4107 21.2874 33.7122 20.9859 33.7122 20.6141V16.9565C33.7122 16.5846 33.4107 16.2832 33.0389 16.2832ZM32.3656 19.9408H30.6291V17.6298H32.3656V19.9408Z" fill="#DAA7EE"/>
<path d="M38.5315 21.2878C38.9034 21.2878 39.2049 20.9863 39.2049 20.6144V14.4892C39.2049 14.1174 38.9034 13.8159 38.5315 13.8159H35.4485C35.0766 13.8159 34.7751 14.1174 34.7751 14.4892V20.6144C34.7751 20.9863 35.0766 21.2878 35.4485 21.2878H38.5315ZM36.1218 15.1625H37.8582V19.9411H36.1218V15.1625Z" fill="#DAA7EE"/>
<path d="M43.9539 21.2875C44.3258 21.2875 44.6272 20.9861 44.6272 20.6142V11.9262C44.6272 11.5544 44.3258 11.2529 43.9539 11.2529H40.8708C40.499 11.2529 40.1975 11.5544 40.1975 11.9262V20.6142C40.1975 20.9861 40.499 21.2875 40.8708 21.2875H43.9539ZM41.5441 12.5996H43.2806V19.9409H41.5441V12.5996Z" fill="#DAA7EE"/>
<path d="M32.9402 24.1792C32.9402 24.551 33.2416 24.8525 33.6135 24.8525H43.9553C44.3271 24.8525 44.6286 24.551 44.6286 24.1792C44.6286 23.8073 44.3271 23.5059 43.9553 23.5059H33.6135C33.2416 23.5059 32.9402 23.8073 32.9402 24.1792Z" fill="#DAA7EE"/>
<path d="M33.6135 27.9413H34.632C35.0038 27.9413 35.3053 27.6399 35.3053 27.268C35.3053 26.8962 35.0038 26.5947 34.632 26.5947H33.6135C33.2416 26.5947 32.9402 26.8962 32.9402 27.268C32.9402 27.6399 33.2416 27.9413 33.6135 27.9413Z" fill="#DAA7EE"/>
<path d="M43.9561 26.5947H37.1299C36.758 26.5947 36.4565 26.8962 36.4565 27.268C36.4565 27.6399 36.758 27.9413 37.1299 27.9413H43.9561C44.328 27.9413 44.6294 27.6399 44.6294 27.268C44.6294 26.8962 44.328 26.5947 43.9561 26.5947Z" fill="#DAA7EE"/>
<path d="M33.6135 31.0297H43.9553C44.3271 31.0297 44.6286 30.7283 44.6286 30.3564C44.6286 29.9846 44.3271 29.6831 43.9553 29.6831H33.6135C33.2416 29.6831 32.9402 29.9846 32.9402 30.3564C32.9402 30.7283 33.2416 31.0297 33.6135 31.0297Z" fill="#DAA7EE"/>
<path d="M10.1186 12.9941H11.8072C12.179 12.9941 12.4805 12.6926 12.4805 12.3208C12.4805 11.9489 12.179 11.6475 11.8072 11.6475H10.1186C9.74677 11.6475 9.44531 11.9489 9.44531 12.3208C9.44531 12.6926 9.74677 12.9941 10.1186 12.9941Z" fill="#DAA7EE"/>
<path d="M10.1186 16.017H11.8072C12.179 16.017 12.4805 15.7156 12.4805 15.3437C12.4805 14.9719 12.179 14.6704 11.8072 14.6704H10.1186C9.74677 14.6704 9.44531 14.9719 9.44531 15.3437C9.44531 15.7156 9.74677 16.017 10.1186 16.017Z" fill="#DAA7EE"/>
<path d="M14.3659 12.9941H16.0546C16.4264 12.9941 16.7279 12.6926 16.7279 12.3208C16.7279 11.9489 16.4264 11.6475 16.0546 11.6475H14.3659C13.9941 11.6475 13.6926 11.9489 13.6926 12.3208C13.6926 12.6926 13.9941 12.9941 14.3659 12.9941Z" fill="#DAA7EE"/>
<path d="M14.3659 16.017H16.0546C16.4264 16.017 16.7279 15.7156 16.7279 15.3437C16.7279 14.9719 16.4264 14.6704 16.0546 14.6704H14.3659C13.9941 14.6704 13.6926 14.9719 13.6926 15.3437C13.6926 15.7156 13.9941 16.017 14.3659 16.017Z" fill="#DAA7EE"/>
<path d="M10.1186 19.0395H11.8072C12.179 19.0395 12.4805 18.738 12.4805 18.3662C12.4805 17.9943 12.179 17.6929 11.8072 17.6929H10.1186C9.74677 17.6929 9.44531 17.9943 9.44531 18.3662C9.44531 18.738 9.74677 19.0395 10.1186 19.0395Z" fill="#DAA7EE"/>
</svg>
