<svg width="543" height="329" viewBox="0 0 543 329" fill="none" xmlns="http://www.w3.org/2000/svg">
<g clip-path="url(#clip0_585_5273)">
<path opacity="0.2" d="M127.49 328.58L412.14 311.93C487.41 307.53 545.65 243.73 542.51 168.39C539.87 105.08 517.19 37.64 440.91 8.81999C387.26 -11.45 317.59 5.13999 273.4 38.85C262.78 46.95 253.02 56.24 241.61 63.17C215.02 79.32 191.67 68.17 163.97 63.88C105.41 54.79 46.9602 73.46 16.7002 127.43C-29.7598 210.35 25.0402 334.57 127.49 328.58Z" fill="#999999"/>
<g clip-path="url(#clip1_585_5273)">
<path d="M58.3701 122.45H171.94C177.46 122.45 181.94 117.97 181.94 112.45V32.3701C181.94 26.8501 177.46 22.3701 171.94 22.3701H58.3701C52.8501 22.3701 48.3701 26.8501 48.3701 32.3701V112.45C48.3701 117.98 52.8501 122.45 58.3701 122.45Z" fill="white"/>
<path d="M181.94 37.6201H48.3701V32.3701C48.3701 26.8501 52.8501 22.3701 58.3701 22.3701H171.94C177.46 22.3701 181.94 26.8501 181.94 32.3701V37.6201Z" fill="#A78BEF"/>
<path d="M174.56 122.82H55.75C51.48 122.82 48 119.34 48 115.07V29.75C48 25.48 51.48 22 55.75 22H174.57C178.84 22 182.32 25.48 182.32 29.75V115.08C182.31 119.35 178.84 122.82 174.56 122.82ZM55.75 22.74C51.88 22.74 48.74 25.88 48.74 29.75V115.08C48.74 118.95 51.88 122.09 55.75 122.09H174.57C178.44 122.09 181.58 118.95 181.58 115.08V29.75C181.58 25.89 178.44 22.74 174.57 22.74H55.75Z" fill="#A4ACE3"/>
<path d="M174.56 30C174.56 31.16 173.62 32.1 172.46 32.1C171.3 32.1 170.36 31.16 170.36 30C170.36 28.84 171.3 27.9 172.46 27.9C173.62 27.89 174.56 28.84 174.56 30Z" fill="#D5D9F2"/>
<path d="M167.18 30C167.18 31.16 166.24 32.1 165.08 32.1C163.92 32.1 162.98 31.16 162.98 30C162.98 28.84 163.92 27.9 165.08 27.9C166.24 27.89 167.18 28.84 167.18 30Z" fill="#D5D9F2"/>
<path d="M159.8 30C159.8 31.16 158.86 32.1 157.7 32.1C156.54 32.1 155.6 31.16 155.6 30C155.6 28.84 156.54 27.9 157.7 27.9C158.86 27.89 159.8 28.84 159.8 30Z" fill="#D5D9F2"/>
<path d="M105.94 95.52H107.25C109.05 95.52 110.51 96.98 110.51 98.78V108.77H102.68V98.78C102.68 96.98 104.14 95.52 105.94 95.52Z" fill="#E527BB"/>
<path d="M90.76 87.5701H92.07C93.87 87.5701 95.33 89.0301 95.33 90.8301V108.77H87.5V90.8301C87.5 89.0301 88.96 87.5701 90.76 87.5701Z" fill="#E527BB"/>
<path d="M75.5798 80.3401H76.8898C78.6898 80.3401 80.1498 81.8001 80.1498 83.6001V108.77H72.3198V83.6001C72.3198 81.8001 73.7798 80.3401 75.5798 80.3401Z" fill="#E527BB"/>
<path d="M60.4099 60.1001H61.7199C63.5199 60.1001 64.9799 61.5601 64.9799 63.3601V108.76H57.1499V63.3601C57.1499 61.5601 58.6099 60.1001 60.4099 60.1001Z" fill="#E527BB"/>
<path d="M114.29 85.3299C114.46 85.3299 114.62 85.2199 114.67 85.0499C114.74 84.8399 114.62 84.6099 114.41 84.5499C101.58 80.4299 78.67 66.9799 71.82 48.4199C71.74 48.2099 71.51 48.1099 71.31 48.1799C71.1 48.2599 71 48.4899 71.07 48.6899C78.01 67.5199 101.19 81.1399 114.16 85.3099C114.21 85.3299 114.25 85.3299 114.29 85.3299Z" fill="#E527BB"/>
<path d="M69.4199 52.23L70.1699 52.52L71.5899 48.83L75.1699 50.52L75.5099 49.8L71.1599 47.74L69.4199 52.23Z" fill="#E527BB"/>
<path d="M162.23 73.9401C160.2 75.8801 157.44 77.0701 154.41 77.0701C150.1 77.0701 146.35 74.6701 144.43 71.1301L140 73.5201C142.77 78.6301 148.18 82.0901 154.4 82.0901C158.78 82.0901 162.75 80.3701 165.68 77.5701L162.23 73.9401ZM154.41 54.3801C157.22 54.3801 159.8 55.4001 161.77 57.1001L165.03 53.2901C162.17 50.8401 158.46 49.3601 154.41 49.3601C151.34 49.3601 148.47 50.2001 146.01 51.6801L148.59 55.9901C150.29 54.9601 152.27 54.3801 154.41 54.3801Z" fill="#E527BB"/>
<path d="M170.77 65.72C170.77 70.38 168.82 74.6 165.69 77.57L162.23 73.94C164.4 71.87 165.75 68.96 165.75 65.72C165.75 62.27 164.21 59.18 161.77 57.09L165.03 53.28C168.54 56.27 170.77 60.74 170.77 65.72Z" fill="#A78BEF"/>
<path d="M143.06 65.7202C143.06 67.6802 143.55 69.5202 144.43 71.1302L140 73.5202C138.75 71.2002 138.03 68.5502 138.03 65.7202C138.03 59.7502 141.22 54.5302 146.01 51.6702L148.59 55.9802C145.27 57.9602 143.06 61.5802 143.06 65.7202Z" fill="#E527BB"/>
<path d="M174.07 88.25H134.73C134.53 88.25 134.36 88.09 134.36 87.88C134.36 87.68 134.52 87.51 134.73 87.51H174.07C174.27 87.51 174.44 87.67 174.44 87.88C174.44 88.09 174.28 88.25 174.07 88.25Z" fill="#A4ACE3"/>
<path d="M174.07 91.94H134.73C134.53 91.94 134.36 91.78 134.36 91.57C134.36 91.37 134.52 91.2 134.73 91.2H174.07C174.27 91.2 174.44 91.36 174.44 91.57C174.44 91.77 174.28 91.94 174.07 91.94Z" fill="#A4ACE3"/>
<path d="M174.07 96.6702H134.73C134.53 96.6702 134.36 96.5102 134.36 96.3002C134.36 96.1002 134.52 95.9302 134.73 95.9302H174.07C174.27 95.9302 174.44 96.0902 174.44 96.3002C174.44 96.5002 174.28 96.6702 174.07 96.6702Z" fill="#A4ACE3"/>
<path d="M174.07 100.35H134.73C134.53 100.35 134.36 100.19 134.36 99.9801C134.36 99.7701 134.52 99.6101 134.73 99.6101H174.07C174.27 99.6101 174.44 99.7701 174.44 99.9801C174.44 100.19 174.28 100.35 174.07 100.35Z" fill="#A4ACE3"/>
<path d="M174.07 105.08H134.73C134.53 105.08 134.36 104.92 134.36 104.71C134.36 104.5 134.52 104.34 134.73 104.34H174.07C174.27 104.34 174.44 104.5 174.44 104.71C174.44 104.92 174.28 105.08 174.07 105.08Z" fill="#A4ACE3"/>
<path d="M174.07 108.77H134.73C134.53 108.77 134.36 108.61 134.36 108.4C134.36 108.2 134.52 108.03 134.73 108.03H174.07C174.27 108.03 174.44 108.19 174.44 108.4C174.44 108.6 174.28 108.77 174.07 108.77Z" fill="#A4ACE3"/>
</g>
<g clip-path="url(#clip2_585_5273)">
<path d="M500.86 244.08H213.37C207.85 244.08 203.37 239.6 203.37 234.08V32.3701C203.37 26.8501 207.85 22.3701 213.37 22.3701H500.87C506.39 22.3701 510.87 26.8501 510.87 32.3701V234.08C510.86 239.6 506.39 244.08 500.86 244.08Z" fill="white"/>
<path d="M510.86 37.6201H203.37V32.3701C203.37 26.8501 207.85 22.3701 213.37 22.3701H500.87C506.39 22.3701 510.87 26.8501 510.87 32.3701V37.6201H510.86Z" fill="#A78BEF"/>
<path d="M503.49 244.45H210.75C206.48 244.45 203 240.97 203 236.7V29.75C203 25.48 206.48 22 210.75 22H503.49C507.76 22 511.24 25.48 511.24 29.75V236.7C511.23 240.98 507.76 244.45 503.49 244.45ZM210.75 22.74C206.88 22.74 203.74 25.88 203.74 29.75V236.7C203.74 240.57 206.88 243.71 210.75 243.71H503.49C507.36 243.71 510.5 240.57 510.5 236.7V29.75C510.5 25.89 507.36 22.74 503.49 22.74H210.75Z" fill="#A4ACE3"/>
<path d="M503.49 30C503.49 31.16 502.55 32.1 501.39 32.1C500.23 32.1 499.29 31.16 499.29 30C499.29 28.84 500.23 27.9 501.39 27.9C502.55 27.89 503.49 28.84 503.49 30Z" fill="#D5D9F2"/>
<path d="M496.11 30C496.11 31.16 495.17 32.1 494.01 32.1C492.85 32.1 491.91 31.16 491.91 30C491.91 28.84 492.85 27.9 494.01 27.9C495.17 27.89 496.11 28.84 496.11 30Z" fill="#D5D9F2"/>
<path d="M488.73 30C488.73 31.16 487.79 32.1 486.63 32.1C485.47 32.1 484.53 31.16 484.53 30C484.53 28.84 485.47 27.9 486.63 27.9C487.79 27.89 488.73 28.84 488.73 30Z" fill="#D5D9F2"/>
<path d="M360 108.42C357.42 107.24 355.38 105.64 353.88 103.62C352.38 101.59 351.58 99.33 351.48 96.83H360.34C360.49 98.58 361.33 100.05 362.85 101.22C364.38 102.4 366.29 102.98 368.59 102.98C370.99 102.98 372.85 102.52 374.18 101.59C375.5 100.66 376.17 99.48 376.17 98.03C376.17 96.48 375.43 95.33 373.96 94.58C372.48 93.83 370.14 93 366.94 92.1C363.84 91.25 361.31 90.42 359.36 89.62C357.41 88.82 355.72 87.59 354.29 85.94C352.86 84.29 352.15 82.11 352.15 79.41C352.15 77.21 352.8 75.2 354.1 73.37C355.4 71.54 357.26 70.11 359.69 69.06C362.12 68.01 364.91 67.48 368.06 67.48C372.76 67.48 376.55 68.67 379.43 71.04C382.31 73.42 383.85 76.66 384.05 80.76H375.49C375.34 78.91 374.59 77.43 373.24 76.33C371.89 75.23 370.06 74.68 367.76 74.68C365.51 74.68 363.78 75.11 362.58 75.96C361.38 76.81 360.78 77.94 360.78 79.34C360.78 80.44 361.18 81.37 361.98 82.12C362.78 82.87 363.75 83.46 364.91 83.88C366.06 84.31 367.76 84.84 370.01 85.49C373.01 86.29 375.48 87.1 377.4 87.93C379.32 88.76 380.99 89.97 382.39 91.57C383.79 93.17 384.52 95.3 384.57 97.95C384.57 100.3 383.92 102.4 382.62 104.25C381.32 106.1 379.48 107.55 377.1 108.6C374.72 109.65 371.93 110.18 368.73 110.18C365.49 110.19 362.57 109.6 360 108.42Z" fill="#E527BB"/>
<path d="M364.94 115.1C364.53 115.1 364.2 114.77 364.2 114.36V63.3101C364.2 62.9001 364.53 62.5701 364.94 62.5701C365.35 62.5701 365.68 62.9001 365.68 63.3101V114.35C365.68 114.77 365.35 115.1 364.94 115.1Z" fill="#E527BB"/>
<path d="M371.11 115.1C370.7 115.1 370.37 114.77 370.37 114.36V63.3101C370.37 62.9001 370.7 62.5701 371.11 62.5701C371.52 62.5701 371.85 62.9001 371.85 63.3101V114.35C371.85 114.77 371.52 115.1 371.11 115.1Z" fill="#E527BB"/>
<path d="M227.97 52.26H216.91V63.32H227.97V52.26Z" fill="#E527BB"/>
<path d="M319.12 59.26H237.35C236.54 59.26 235.87 58.6 235.87 57.78C235.87 56.97 236.53 56.3 237.35 56.3H319.12C319.93 56.3 320.6 56.96 320.6 57.78C320.59 58.6 319.93 59.26 319.12 59.26Z" fill="#E527BB"/>
<path d="M227.97 71.8101H216.91V82.8701H227.97V71.8101Z" fill="#A78BEF"/>
<path d="M319.12 78.8101H237.35C236.54 78.8101 235.87 78.1501 235.87 77.3301C235.87 76.5201 236.53 75.8501 237.35 75.8501H319.12C319.93 75.8501 320.6 76.5101 320.6 77.3301C320.59 78.1501 319.93 78.8101 319.12 78.8101Z" fill="#A78BEF"/>
<path d="M499.28 52.3601H419.63V60.9501H499.28V52.3601Z" fill="#E527BB"/>
<path d="M499.28 70.2302H419.63V78.8202H499.28V70.2302Z" fill="#E527BB"/>
<path d="M499.28 88.0901H419.63V96.6801H499.28V88.0901Z" fill="#E527BB"/>
<path d="M227.97 142.12L271.04 174.02L317.92 136.75L357.55 156L416.77 119.82L453.99 144.06L489.44 110.19V226.87H227.97V142.12Z" fill="#E527BB"/>
<path d="M271.05 174.95L227.52 142.03L228.41 140.85L271.03 173.08L317.83 135.88L357.08 155.89L416.78 118.95L453.9 143.12L488.93 109.65L489.95 110.72L454.08 144.99L416.76 120.69L357.15 157.58L318.01 137.62L271.05 174.95Z" fill="#A78BEF"/>
<path d="M496.11 227.99H218.13C217.72 227.99 217.39 227.66 217.39 227.25C217.39 226.84 217.72 226.51 218.13 226.51H496.11C496.52 226.51 496.85 226.84 496.85 227.25C496.85 227.66 496.52 227.99 496.11 227.99Z" fill="#A78BEF"/>
<path d="M357.12 227.99C356.71 227.99 356.38 227.66 356.38 227.25V152.45C356.38 152.04 356.71 151.71 357.12 151.71C357.53 151.71 357.86 152.04 357.86 152.45V227.25C357.85 227.66 357.52 227.99 357.12 227.99Z" fill="white"/>
<path d="M416.61 227.99C416.2 227.99 415.87 227.66 415.87 227.25V115.02C415.87 114.61 416.2 114.28 416.61 114.28C417.02 114.28 417.35 114.61 417.35 115.02V227.24C417.35 227.66 417.02 227.99 416.61 227.99Z" fill="#A4ACE3"/>
<path d="M489.44 227.99C489.03 227.99 488.7 227.66 488.7 227.25V105.7C488.7 105.29 489.03 104.96 489.44 104.96C489.85 104.96 490.18 105.29 490.18 105.7V227.24C490.18 227.66 489.85 227.99 489.44 227.99Z" fill="#A78BEF"/>
<path d="M317.92 227.99C317.51 227.99 317.18 227.66 317.18 227.25V131.84C317.18 131.43 317.51 131.1 317.92 131.1C318.33 131.1 318.66 131.43 318.66 131.84V227.25C318.66 227.66 318.33 227.99 317.92 227.99Z" fill="white"/>
<path d="M271.04 227.99C270.63 227.99 270.3 227.66 270.3 227.25V169.45C270.3 169.04 270.63 168.71 271.04 168.71C271.45 168.71 271.78 169.04 271.78 169.45V227.25C271.78 227.66 271.45 227.99 271.04 227.99Z" fill="white"/>
<path d="M227.97 227.99C227.56 227.99 227.23 227.66 227.23 227.25V137.83C227.23 137.42 227.56 137.09 227.97 137.09C228.38 137.09 228.71 137.42 228.71 137.83V227.25C228.71 227.66 228.38 227.99 227.97 227.99Z" fill="#A78BEF"/>
<path d="M271.04 176.28C272.288 176.28 273.3 175.268 273.3 174.02C273.3 172.772 272.288 171.76 271.04 171.76C269.792 171.76 268.78 172.772 268.78 174.02C268.78 175.268 269.792 176.28 271.04 176.28Z" fill="#A78BEF"/>
<path d="M227.97 144.38C229.218 144.38 230.23 143.368 230.23 142.12C230.23 140.872 229.218 139.86 227.97 139.86C226.722 139.86 225.71 140.872 225.71 142.12C225.71 143.368 226.722 144.38 227.97 144.38Z" fill="#A78BEF"/>
<path d="M317.92 139.01C319.168 139.01 320.18 137.998 320.18 136.75C320.18 135.502 319.168 134.49 317.92 134.49C316.672 134.49 315.66 135.502 315.66 136.75C315.66 137.998 316.672 139.01 317.92 139.01Z" fill="#A78BEF"/>
<path d="M357.55 158.26C358.798 158.26 359.81 157.248 359.81 156C359.81 154.752 358.798 153.74 357.55 153.74C356.302 153.74 355.29 154.752 355.29 156C355.29 157.248 356.302 158.26 357.55 158.26Z" fill="#A78BEF"/>
<path d="M416.77 122.08C418.018 122.08 419.03 121.068 419.03 119.82C419.03 118.572 418.018 117.56 416.77 117.56C415.522 117.56 414.51 118.572 414.51 119.82C414.51 121.068 415.522 122.08 416.77 122.08Z" fill="#A78BEF"/>
<path d="M491.7 110.19C491.7 111.44 490.69 112.45 489.44 112.45C488.19 112.45 487.18 111.44 487.18 110.19C487.18 108.94 488.19 107.93 489.44 107.93C490.69 107.93 491.7 108.94 491.7 110.19Z" fill="#A78BEF"/>
</g>
<g clip-path="url(#clip3_585_5273)">
<path d="M378.12 328.75H328.17C320.36 313.57 324.86 275.22 341.9 320.67C342.85 286.82 354.02 287.05 356.01 318.07C361.79 269.54 398.95 222.42 369.6 320.67C382.38 301.02 386.88 316.7 378.12 328.75Z" fill="#00D000"/>
<path d="M194.01 328.75H236.37C247.83 300.83 230.93 298.97 222.57 324.93C224.32 294.04 211.49 294.81 208.58 325.9C195.56 268.58 165.45 249.02 194.01 328.75Z" fill="#00D000"/>
<path d="M34.7098 328.75H51.0698C48.6898 284 32.7598 277.57 42.8898 325.66C35.8298 307.34 25.3398 312.26 34.7098 328.75Z" fill="#00D000"/>
<path d="M507.7 328.75H491.34C493.72 284 509.65 277.57 499.52 325.66C506.58 307.34 517.06 312.26 507.7 328.75Z" fill="#00D000"/>
<path d="M429.86 308.04L427.06 321.96H419L419.27 308.61L429.86 308.04Z" fill="#E48A68"/>
<path d="M399.11 326.89H431.81C431.9 325.9 431.2 323.23 430.49 322.26C430.45 320.81 430.15 317.32 427.99 317.32C425.84 317.32 424.91 320.44 422.78 320.44C420.65 320.44 420.36 316.87 418.02 316.87C415.68 316.87 414.26 319.47 414.26 319.47L403.82 322.45C401.62 323.08 399.87 324.74 399.11 326.89Z" fill="#A78BEF"/>
<path d="M431.87 328.75H399.05C398.79 328.75 398.58 328.54 398.58 328.28V327.38C398.58 327.12 398.79 326.91 399.05 326.91H431.87C432.13 326.91 432.34 327.12 432.34 327.38V328.28C432.34 328.53 432.13 328.75 431.87 328.75Z" fill="#2C2F37"/>
<path d="M462.56 282.16L473.67 290.77L467.89 296.37L455.35 289.94L462.56 282.16Z" fill="#E48A68"/>
<path d="M457.04 313.77L480.52 291C479.9 290.23 477.53 288.8 476.35 288.6C475.31 287.58 472.67 285.29 471.12 286.79C469.57 288.29 471.08 291.18 469.55 292.65C468.03 294.13 465.33 291.77 463.65 293.4C461.97 295.03 462.77 297.89 462.77 297.89L457.35 307.3C456.19 309.28 456.09 311.69 457.04 313.77Z" fill="#A78BEF"/>
<path d="M481.85 292.29L458.29 315.14C458.1 315.32 457.8 315.32 457.62 315.13L456.99 314.48C456.81 314.29 456.81 313.99 457 313.81L480.56 290.96C480.75 290.78 481.05 290.78 481.23 290.97L481.86 291.62C482.04 291.81 482.03 292.11 481.85 292.29Z" fill="#2C2F37"/>
<path d="M416.64 183.7C413.12 193.07 403.33 235.44 403.33 245.39C403.33 255.34 449.38 289.14 455.96 293.89L465.75 280.73C455.96 269.41 431.94 243.21 426.59 238.79L449.38 184.75L416.64 183.7Z" fill="#2C2F37"/>
<path d="M461.7 183.37C464.22 194.45 455.03 229.48 435.99 251.51C436.53 262.68 435.39 294.35 433.13 309.49H416.49C415.42 298.32 411.29 258.7 412.67 249.83C414.05 240.96 428.96 194.21 433.51 184.75L461.7 183.37Z" fill="#2C2F37"/>
<path d="M412.43 258.57C412.28 258.57 412.16 258.45 412.15 258.3C412.05 254.32 412.13 251.45 412.39 249.78C413.79 240.74 428.81 193.85 433.26 184.63C433.33 184.49 433.49 184.43 433.63 184.5C433.77 184.57 433.83 184.73 433.76 184.87C429.32 194.07 414.34 240.85 412.94 249.87C412.69 251.51 412.61 254.34 412.71 258.29C412.71 258.44 412.59 258.57 412.43 258.57Z" fill="#5B5D63"/>
<path d="M435.62 279H435.61C435.46 278.99 435.34 278.86 435.35 278.71C435.84 267.66 435.98 256.99 435.72 251.52C435.72 251.45 435.74 251.38 435.79 251.33C436.29 250.75 436.78 250.16 437.27 249.57C437.37 249.45 437.54 249.43 437.66 249.53C437.78 249.63 437.8 249.8 437.7 249.92C437.23 250.49 436.76 251.06 436.28 251.61C436.54 257.21 436.4 267.58 435.91 278.74C435.89 278.89 435.77 279 435.62 279Z" fill="#5B5D63"/>
<path d="M412.55 250.83C412.42 250.83 412.31 250.74 412.28 250.61C412.25 250.46 412.34 250.31 412.49 250.28C415.07 249.69 417.82 249.6 420.43 250.02C420.58 250.04 420.68 250.19 420.66 250.34C420.64 250.49 420.49 250.6 420.34 250.57C417.79 250.17 415.12 250.25 412.61 250.82C412.59 250.82 412.57 250.83 412.55 250.83Z" fill="#5B5D63"/>
<path d="M457.26 203.86C457.22 203.86 457.18 203.85 457.14 203.83C454.09 202.35 451.64 199.68 450.41 196.52C449.18 193.36 449.18 189.74 450.42 186.58C450.48 186.44 450.64 186.37 450.78 186.42C450.92 186.48 450.99 186.64 450.94 186.78C449.75 189.81 449.75 193.28 450.93 196.31C452.11 199.34 454.47 201.9 457.39 203.32C457.53 203.39 457.58 203.55 457.52 203.69C457.46 203.8 457.37 203.86 457.26 203.86Z" fill="#5B5D63"/>
<path d="M431.73 307.91C431.72 307.91 431.72 307.91 431.71 307.91C431.56 307.9 431.44 307.77 431.45 307.61C432.75 290.51 433.49 272.27 434.21 254.64L434.26 253.45C433.93 253.05 433.46 252.58 432.93 252.42C432.82 252.39 432.74 252.29 432.74 252.17C432.73 252.06 432.8 251.95 432.9 251.9C433.21 251.76 433.53 251.57 433.84 251.39C434.07 251.25 434.31 251.11 434.56 250.99C434.45 250.79 434.35 250.58 434.25 250.38C434.11 250.09 433.97 249.81 433.81 249.55C433.75 249.45 433.76 249.32 433.83 249.23C444.5 236.4 452.37 221.08 456.6 204.94C456.64 204.79 456.79 204.7 456.94 204.74C457.09 204.78 457.18 204.93 457.14 205.08C452.91 221.24 445.04 236.57 434.38 249.44C434.51 249.67 434.62 249.91 434.74 250.15C434.88 250.44 435.02 250.72 435.17 250.98C435.21 251.05 435.22 251.13 435.2 251.2C435.18 251.28 435.12 251.34 435.05 251.37C434.74 251.51 434.42 251.7 434.11 251.88C433.95 251.97 433.79 252.07 433.63 252.16C434.09 252.44 434.47 252.86 434.75 253.2C434.79 253.25 434.81 253.32 434.81 253.38L434.76 254.67C434.04 272.31 433.3 290.55 432 307.66C432 307.8 431.88 307.91 431.73 307.91Z" fill="#5B5D63"/>
<path d="M428.22 209.05C428.17 209.05 428.11 209.03 428.06 209C425.4 207.19 423.15 204.39 421.88 201.32C421.85 201.26 421.85 201.19 421.88 201.12L427.43 185.73C427.48 185.59 427.64 185.51 427.78 185.56C427.92 185.61 428 185.77 427.95 185.91L422.43 201.2C423.67 204.13 425.83 206.8 428.37 208.54C428.5 208.63 428.53 208.8 428.44 208.92C428.4 209.01 428.31 209.05 428.22 209.05Z" fill="#5B5D63"/>
<path d="M440.11 191.22C432.46 191.22 424.82 190.21 417.4 188.19C417.25 188.15 417.17 188 417.21 187.85C417.25 187.7 417.4 187.61 417.55 187.66C431.86 191.56 447.02 191.68 461.39 188C461.54 187.96 461.69 188.05 461.73 188.2C461.77 188.35 461.68 188.5 461.53 188.54C454.51 190.33 447.31 191.22 440.11 191.22Z" fill="#5B5D63"/>
<path d="M427.12 90.8001C425.31 89.0601 424.09 86.7101 423.73 84.2301C423.5 82.6901 423.61 81.1101 424.01 79.6101C424.45 77.9801 425.85 76.7501 427.52 76.5201C434.34 75.5901 441.44 77.2201 447.27 80.9101C448.22 81.5101 448.82 82.5601 448.8 83.6801C448.78 84.8501 448.67 86.0101 448.43 87.1701C449.34 87.1101 450.27 87.6601 450.65 88.4901C451.02 89.2901 450.9 90.2301 450.67 91.0801C450.09 93.2501 448.89 95.2001 447.71 97.1201C441.42 93.3401 434.45 91.3901 427.12 90.8001Z" fill="#2C2F37"/>
<path d="M432.65 108.24C434.52 108.25 436.34 107.8 437.94 106.94C439.54 106.09 440.92 104.87 441.96 103.34L443.63 100.87V86.0503C443.63 82.9603 441.09 80.4703 438 80.5403L432.93 80.6603C429.93 80.7203 428.66 83.3903 427.54 86.1703C426.18 89.5203 427.27 91.6503 427.16 95.2503C427.15 95.6603 427.12 96.0903 427.07 96.5403C427.05 96.7203 427.03 96.9003 427 97.0803C426.99 97.1703 426.97 97.2603 426.96 97.3503C426.94 97.5103 426.9 97.6803 426.87 97.8603C426.84 98.0203 426.81 98.1703 426.79 98.3303C426.78 98.3903 426.77 98.4503 426.76 98.5203C426.71 98.8903 426.66 99.2403 426.64 99.5803C426.61 99.9103 426.59 100.23 426.58 100.53C426.42 106.45 430.16 108.22 432.65 108.24Z" fill="#E48A68"/>
<path d="M432.96 114.3C432.96 114.3 434.73 117.52 439.43 117.52C443.93 117.52 446.19 114.3 446.19 114.3L443.63 100.86L433.96 107.03L433.77 108.18L433.41 110.59L432.96 114.3Z" fill="#E48A68"/>
<path d="M433.42 110.59C435.25 110.21 436.96 109.36 438.41 108.15C439.83 106.96 440.96 105.43 441.67 103.73C440.68 105.08 439.4 106.16 437.95 106.94C436.67 107.63 435.26 108.06 433.78 108.19L433.42 110.59Z" fill="#2C2F37"/>
<path d="M441.33 97.8502C441.33 99.8902 442.98 101.54 445.02 101.54C447.06 101.54 448.71 99.8902 448.71 97.8502C448.71 95.8102 447.06 94.1602 445.02 94.1602C442.98 94.1702 441.33 95.8202 441.33 97.8502Z" fill="#E48A68"/>
<path d="M442.9 100.1C442.89 100.1 442.89 100.1 442.88 100.1C442.73 100.09 442.61 99.9601 442.62 99.8101C442.69 98.7301 443.24 97.6801 444.09 97.0101C444.94 96.3401 446.09 96.0501 447.16 96.2301C447.31 96.2601 447.41 96.4001 447.39 96.5501C447.36 96.7001 447.23 96.8001 447.07 96.7801C446.16 96.6201 445.17 96.8701 444.44 97.4501C443.71 98.0301 443.24 98.9301 443.18 99.8501C443.17 99.9901 443.05 100.1 442.9 100.1Z" fill="#BF603B"/>
<path d="M446.61 99.58C446.49 99.58 446.38 99.5 446.34 99.38C446.05 98.4 445.21 97.66 444.22 97.49C444.07 97.47 443.97 97.32 443.99 97.17C444.01 97.02 444.15 96.92 444.31 96.94C445.51 97.14 446.52 98.03 446.87 99.21C446.91 99.36 446.83 99.51 446.68 99.55C446.66 99.58 446.63 99.58 446.61 99.58Z" fill="#BF603B"/>
<path d="M445.76 84.6401V94.2401C445.52 94.2001 445.27 94.1701 445.01 94.1701C443.48 94.1701 442.17 95.0901 441.61 96.4101C441.29 96.2501 441.01 95.9601 440.86 95.6301C440.56 95.0001 440.59 94.2901 440.63 93.5901C440.74 91.5701 440.85 89.5401 440.96 87.5101C436.29 85.8701 431.07 86.0601 426.59 88.1601L427.79 83.3301L431.35 79.8501L441.67 80.2301L445.76 84.6401Z" fill="#2C2F37"/>
<path d="M415.32 119.38C411.64 121.64 408.59 144.86 408.59 144.86C408.59 144.86 402.23 134.48 399.52 133.76C396.81 133.05 394.03 136.67 393.39 139.02C392.75 141.37 407.8 162.06 411.32 163.77C414.84 165.48 418.73 163.77 418.73 163.77L424.45 128L415.32 119.38Z" fill="#A78BEF"/>
<path d="M462.34 131.37C461.26 136.01 464.68 178.86 461.71 183.37C458.74 187.87 417.6 187.15 415.53 184C413.46 180.85 417.2 135.22 419.78 128.24C415.45 127.3 413.44 120.64 415.32 119.39C417.2 118.14 430.39 114.62 432.96 114.31C432.96 114.31 434.72 117.53 439.43 117.53C443.94 117.53 446.2 114.31 446.2 114.31C448.41 114.55 462.68 117.38 463.86 119.26C465.05 121.14 467.36 130.05 462.34 131.37Z" fill="#A78BEF"/>
<path d="M415.41 164.81C415.4 164.81 415.4 164.81 415.39 164.81C415.24 164.8 415.12 164.67 415.13 164.52C416.01 150.34 417.93 132.4 419.51 128.14C419.56 128 419.72 127.92 419.87 127.98C420.01 128.03 420.09 128.19 420.03 128.34C418.52 132.43 416.56 150.37 415.68 164.57C415.67 164.7 415.55 164.81 415.41 164.81Z" fill="#7D66D3"/>
<path d="M459.12 182.1C459.1 182.1 459.08 182.1 459.06 182.09C458.91 182.06 458.81 181.91 458.85 181.76C460.76 172.6 459.93 163.06 459.12 153.83C458.57 147.53 458 141.01 458.3 134.62C458.31 134.47 458.44 134.35 458.59 134.36C458.74 134.37 458.86 134.5 458.85 134.65C458.55 141 459.12 147.5 459.67 153.79C460.48 163.06 461.31 172.64 459.39 181.88C459.37 182.01 459.25 182.1 459.12 182.1Z" fill="#7D66D3"/>
<path d="M418.72 132.91C418.61 132.91 418.5 132.84 418.46 132.73C417.87 131.22 417.41 129.65 417.08 128.06C417.05 127.91 417.15 127.76 417.3 127.73C417.45 127.7 417.6 127.8 417.63 127.95C417.95 129.51 418.4 131.05 418.98 132.53C419.04 132.67 418.96 132.83 418.82 132.89C418.79 132.91 418.76 132.91 418.72 132.91Z" fill="#7D66D3"/>
<path d="M437.74 117.37L445.75 111.99L449.81 114.93L442.81 121.59L437.74 117.37Z" fill="#7D66D3"/>
<path d="M437.74 117.37L433.07 113.37L429.31 115.07L434.71 121.39L437.74 117.37Z" fill="#7D66D3"/>
<path d="M433.59 186.83C433.44 186.83 433.32 186.72 433.31 186.57C431.74 156.55 434.51 137.78 436.35 125.36C436.79 122.35 437.18 119.75 437.46 117.35C437.48 117.2 437.61 117.09 437.77 117.11C437.92 117.13 438.03 117.26 438.01 117.42C437.73 119.83 437.35 122.43 436.9 125.45C435.07 137.85 432.3 156.59 433.86 186.55C433.87 186.7 433.75 186.83 433.6 186.84C433.6 186.83 433.6 186.83 433.59 186.83Z" fill="#7D66D3"/>
<path d="M439.13 123.28C438.18 123.28 438.18 124.76 439.13 124.76C440.08 124.76 440.08 123.28 439.13 123.28Z" fill="#7D66D3"/>
<path d="M438.14 129.45C437.19 129.45 437.19 130.93 438.14 130.93C439.09 130.92 439.09 129.45 438.14 129.45Z" fill="#7D66D3"/>
<path d="M437.15 135.5C436.2 135.5 436.2 136.98 437.15 136.98C438.1 136.98 438.1 135.5 437.15 135.5Z" fill="#7D66D3"/>
<path d="M436.27 144.31C435.32 144.31 435.32 145.79 436.27 145.79C437.22 145.78 437.22 144.31 436.27 144.31Z" fill="#7D66D3"/>
<path d="M435.94 152.23C434.99 152.23 434.99 153.71 435.94 153.71C436.89 153.71 436.89 152.23 435.94 152.23Z" fill="#7D66D3"/>
<path d="M435.5 160.27C434.55 160.27 434.55 161.75 435.5 161.75C436.45 161.74 436.45 160.27 435.5 160.27Z" fill="#7D66D3"/>
<path d="M435.5 169.51C434.55 169.51 434.55 170.99 435.5 170.99C436.45 170.99 436.45 169.51 435.5 169.51Z" fill="#C8C3CA"/>
<path d="M435.28 179.75C434.33 179.75 434.33 181.23 435.28 181.23C436.23 181.22 436.23 179.75 435.28 179.75Z" fill="#C8C3CA"/>
<path d="M458.26 197.68C456.1 199.44 452.92 199.12 451.16 196.96L391.21 123.62L399.03 117.25L458.98 190.59C460.75 192.74 460.42 195.92 458.26 197.68Z" fill="#2C2F37"/>
<path d="M391.234 123.638L399.056 117.264L394.04 111.109L386.219 117.483L391.234 123.638Z" fill="#E527BB"/>
<g opacity="0.3">
<path d="M342.71 60.9902L396.75 103.47C397.98 101.39 398.99 99.1702 399.78 96.8302C402.47 88.8302 402.05 80.5202 399.2 73.2102L353.28 53.9402C352.68 54.2002 352.07 54.4702 351.48 54.7702C348.21 56.4002 345.25 58.5002 342.71 60.9902Z" fill="white"/>
<path d="M335.29 71.6302L375.32 119.44C377.73 118.84 380.09 117.97 382.36 116.83C386.65 114.69 390.38 111.75 393.39 108.2L339.41 64.7002C337.78 66.8202 336.39 69.1502 335.29 71.6302Z" fill="white"/>
<path d="M332.54 81.4201L358.29 119.37C362.36 120.42 366.52 120.73 370.61 120.28L333.5 76.6001C333.06 78.2101 332.74 79.8101 332.54 81.4201Z" fill="white"/>
</g>
<path d="M384.2 120.53C374.92 125.15 364.41 125.87 354.59 122.58C334.31 115.78 323.35 93.7501 330.16 73.4701C333.46 63.6501 340.38 55.7001 349.65 51.0801C358.93 46.4701 369.44 45.7401 379.27 49.0301C399.55 55.8301 410.51 77.8601 403.7 98.1401C401.45 104.85 397.51 110.69 392.27 115.18C389.84 117.27 387.14 119.07 384.2 120.53ZM377.95 52.9501C369.17 50.0101 359.77 50.6501 351.48 54.7801C343.19 58.9001 337 66.0001 334.06 74.7801C327.98 92.9001 337.78 112.59 355.9 118.67C364.68 121.62 374.08 120.97 382.37 116.84C390.66 112.72 396.85 105.61 399.79 96.8301C405.86 78.7101 396.07 59.0301 377.95 52.9501Z" fill="#A78BEF"/>
<path d="M450.42 170.25C446.14 170.66 441.43 172.33 440.28 172.96C439.13 173.59 435.11 179.13 434.56 180.01C434.01 180.9 434.83 182.42 436.58 181.02C436.58 181.02 435.16 182.9 434.56 183.73C433.96 184.56 435.28 185.27 436.11 184.69C436.95 184.11 438.96 182.68 438.96 182.68C438.96 182.68 437.87 184.46 437.03 185.5C436.19 186.54 437.54 187.7 438.74 186.7C439.94 185.71 441.57 183.73 441.57 183.73C441.57 183.73 440.29 185.87 439.43 187.53C438.62 189.11 440.53 189.15 441.47 188.16C442.41 187.17 445.75 184.08 445.91 183.09C447.06 183.3 453.31 181.31 455.04 179.74L450.42 170.25Z" fill="#E48A68"/>
<path d="M440.94 185.03C440.89 185.03 440.84 185.02 440.8 184.99C440.67 184.91 440.62 184.74 440.7 184.61C441.59 183.1 442.65 181.68 443.84 180.4C443.94 180.29 444.12 180.28 444.23 180.39C444.34 180.49 444.35 180.67 444.24 180.78C443.07 182.04 442.04 183.42 441.17 184.9C441.12 184.98 441.03 185.03 440.94 185.03Z" fill="#BF603B"/>
<path d="M438.07 183.98C438.02 183.98 437.96 183.96 437.91 183.93C437.78 183.84 437.75 183.67 437.84 183.55C439.15 181.65 440.66 179.89 442.35 178.31C442.46 178.2 442.64 178.21 442.74 178.32C442.84 178.43 442.84 178.61 442.73 178.71C441.08 180.26 439.59 181.99 438.3 183.86C438.25 183.94 438.16 183.98 438.07 183.98Z" fill="#BF603B"/>
<path d="M436.12 181.7C436.06 181.7 436.01 181.68 435.96 181.65C435.84 181.56 435.81 181.39 435.9 181.26C437.18 179.49 438.68 177.86 440.34 176.42C440.45 176.32 440.63 176.33 440.73 176.45C440.83 176.57 440.82 176.74 440.7 176.84C439.07 178.25 437.61 179.84 436.35 181.58C436.29 181.66 436.2 181.7 436.12 181.7Z" fill="#BF603B"/>
<path d="M463.86 119.25C468.29 122.59 489.84 151.61 487.39 157.16C484.94 162.71 455.06 180.85 455.06 180.85L447.81 168.47C451.01 166.44 464.03 156.52 466.8 155.24C462.5 150.34 454 136.48 454.32 132.63C454.63 128.78 463.86 119.25 463.86 119.25Z" fill="#A78BEF"/>
<path d="M455.06 181.13C454.97 181.13 454.88 181.08 454.82 181C454.74 180.87 454.78 180.7 454.91 180.62C454.94 180.6 458.25 178.59 462.68 175.75C462.81 175.67 462.98 175.7 463.06 175.83C463.14 175.96 463.11 176.13 462.98 176.21C458.54 179.05 455.23 181.06 455.2 181.08C455.16 181.11 455.11 181.13 455.06 181.13Z" fill="#7D66D3"/>
<path d="M462.47 149.69C462.38 149.69 462.29 149.65 462.24 149.57C458.12 143.41 453.8 135.47 454.04 132.61C454.05 132.46 454.18 132.35 454.34 132.36C454.49 132.37 454.61 132.51 454.59 132.66C454.37 135.26 458.51 142.98 462.7 149.26C462.78 149.39 462.75 149.56 462.62 149.64C462.58 149.68 462.52 149.69 462.47 149.69Z" fill="#7D66D3"/>
<path d="M447.8 168.75C447.71 168.75 447.62 168.7 447.57 168.62C447.49 168.49 447.53 168.32 447.66 168.24C448.9 167.46 451.7 165.42 454.66 163.27C457.32 161.34 460.33 159.15 462.69 157.52C462.81 157.43 462.99 157.46 463.07 157.59C463.16 157.72 463.13 157.89 463 157.98C460.65 159.61 457.64 161.79 454.99 163.72C451.89 165.97 449.22 167.91 447.96 168.71C447.91 168.74 447.86 168.75 447.8 168.75Z" fill="#7D66D3"/>
<path d="M470.93 155.82C470.92 155.82 470.92 155.82 470.91 155.82L466.78 155.52C466.63 155.51 466.51 155.38 466.52 155.22C466.53 155.07 466.65 154.96 466.82 154.96L470.95 155.26C471.1 155.27 471.22 155.4 471.21 155.56C471.19 155.71 471.07 155.82 470.93 155.82Z" fill="#7D66D3"/>
<path d="M399.74 135.27C400.14 135.92 400.32 136.71 400.22 137.46C400.12 138.22 399.76 138.94 399.21 139.47C397.66 139.73 395.99 139.1 394.86 138C393.73 136.91 393.07 135.39 392.82 133.83C392.57 132.28 392.27 130.54 392.99 129.13C393.53 128.07 396.27 125.92 397.41 125.33C398.55 124.74 399.33 125.59 398.68 126.47C398.03 127.35 397.21 128.22 397.21 128.22C397.21 128.22 398.97 126.99 399.85 126.5C400.73 126.01 402.1 126.88 400.96 127.99C399.82 129.11 398.87 130.12 398.87 130.12C398.87 130.12 400.52 129.11 401.39 128.72C402.26 128.33 403.6 129.29 402.59 130.31C401.58 131.33 400.08 132.62 400.08 132.62C400.08 132.62 401.25 132.21 402.26 131.85C403.27 131.49 404.31 132.57 403.11 133.35C401.91 134.15 399.74 135.27 399.74 135.27Z" fill="#E48A68"/>
<path d="M395.15 130.3C395.08 130.3 395 130.27 394.95 130.21C394.84 130.1 394.85 129.92 394.96 129.82C395.86 128.96 396.81 128.14 397.78 127.38C397.9 127.29 398.07 127.31 398.17 127.43C398.27 127.55 398.24 127.72 398.12 127.82C397.16 128.57 396.23 129.38 395.34 130.23C395.29 130.27 395.22 130.3 395.15 130.3Z" fill="#BF603B"/>
<path d="M396.91 132.01C396.84 132.01 396.77 131.99 396.72 131.94C396.61 131.84 396.6 131.66 396.71 131.55C397.58 130.62 398.66 129.78 399.68 129.26C399.81 129.19 399.979 129.24 400.049 129.38C400.119 129.52 400.07 129.68 399.93 129.75C398.97 130.25 397.939 131.04 397.109 131.93C397.059 131.98 396.98 132.01 396.91 132.01Z" fill="#BF603B"/>
<path d="M398.33 134C398.24 134 398.16 133.96 398.11 133.88C398.02 133.76 398.05 133.58 398.17 133.49C398.96 132.93 399.81 132.45 400.71 132.07C400.85 132.01 401.01 132.08 401.07 132.22C401.13 132.36 401.06 132.52 400.92 132.58C400.06 132.94 399.24 133.4 398.49 133.94C398.44 133.98 398.39 134 398.33 134Z" fill="#BF603B"/>
<path d="M137.95 306.48L142.71 321.96H150.77L148.55 307.04L137.95 306.48Z" fill="#E48A68"/>
<path d="M170.66 326.89H137.96C137.87 325.9 138.57 323.23 139.28 322.26C139.32 320.81 139.62 317.32 141.78 317.32C143.93 317.32 144.86 320.44 146.99 320.44C149.11 320.44 149.41 316.87 151.75 316.87C154.09 316.87 155.51 319.47 155.51 319.47L165.95 322.45C168.15 323.08 169.9 324.74 170.66 326.89Z" fill="#A78BEF"/>
<path d="M137.9 328.75H170.72C170.98 328.75 171.19 328.54 171.19 328.28V327.38C171.19 327.12 170.98 326.91 170.72 326.91H137.9C137.64 326.91 137.43 327.12 137.43 327.38V328.28C137.43 328.53 137.64 328.75 137.9 328.75Z" fill="#2C2F37"/>
<path d="M79.5098 306.48L78.5098 321.96H86.5698L90.1098 307.04L79.5098 306.48Z" fill="#E48A68"/>
<path d="M106.46 326.89H73.7598C73.6698 325.9 74.3698 323.23 75.0798 322.26C75.1198 320.81 75.4198 317.32 77.5798 317.32C79.7398 317.32 80.6598 320.44 82.7898 320.44C84.9098 320.44 85.2098 316.87 87.5498 316.87C89.8898 316.87 91.3098 319.47 91.3098 319.47L101.75 322.45C103.95 323.08 105.7 324.74 106.46 326.89Z" fill="#A78BEF"/>
<path d="M73.7 328.75H106.52C106.78 328.75 106.99 328.54 106.99 328.28V327.38C106.99 327.12 106.78 326.91 106.52 326.91H73.7C73.44 326.91 73.23 327.12 73.23 327.38V328.28C73.23 328.53 73.44 328.75 73.7 328.75Z" fill="#2C2F37"/>
<path d="M135.76 183.99C135.76 209.4 108.15 289.18 91.5798 310.03H76.0298C77.5198 296.47 85.8998 259.64 95.5998 248.96C92.5898 231.18 95.3698 201.14 105.91 184.77L135.76 183.99Z" fill="#2C2F37"/>
<path d="M89.5796 183.36C86.0596 197.27 95.7296 228.91 112.49 247.75C109.66 260.81 131.05 303.64 136.03 310.03H151.85C149.09 293.2 126.74 200.39 117.7 184.77L89.5796 183.36Z" fill="#2C2F37"/>
<path d="M114.59 263.47C114.47 263.47 114.36 263.39 114.32 263.27C112.25 256.27 111.53 251.08 112.18 247.83C105.53 240.32 99.4498 230.09 95.0698 219.01C95.0098 218.87 95.0798 218.71 95.2298 218.65C95.3698 218.6 95.5298 218.66 95.5898 218.81C99.9698 229.88 106.04 240.1 112.69 247.57C112.75 247.64 112.77 247.73 112.75 247.81C112.07 250.96 112.77 256.11 114.85 263.11C114.89 263.26 114.81 263.41 114.66 263.45C114.65 263.46 114.62 263.47 114.59 263.47Z" fill="#5B5D63"/>
<path d="M129.37 218.68C129.25 218.68 129.14 218.6 129.1 218.48C124 200.74 120.08 189.44 117.45 184.91C117.37 184.78 117.42 184.61 117.55 184.53C117.68 184.45 117.85 184.5 117.93 184.63C120.58 189.2 124.51 200.54 129.63 218.33C129.67 218.48 129.59 218.63 129.44 218.67C129.42 218.68 129.4 218.68 129.37 218.68Z" fill="#5B5D63"/>
<path d="M93.33 203.96C93.24 203.96 93.15 203.91 93.09 203.83C93.01 203.7 93.05 203.53 93.18 203.45C99.19 199.71 103.03 192.73 102.96 185.65C102.96 185.5 103.08 185.37 103.23 185.37C103.38 185.37 103.51 185.49 103.51 185.64C103.58 192.91 99.64 200.08 93.47 203.92C93.43 203.95 93.38 203.96 93.33 203.96Z" fill="#5B5D63"/>
<path d="M125.48 247.18C125.33 247.18 125.21 247.06 125.2 246.91C125.2 246.76 125.32 246.63 125.47 246.63C129.28 246.53 133.02 245.78 136.57 244.4C136.71 244.34 136.87 244.42 136.93 244.56C136.99 244.7 136.91 244.86 136.77 244.92C133.16 246.32 129.37 247.08 125.48 247.18Z" fill="#5B5D63"/>
<path d="M78.7699 308.51C78.7599 308.51 78.7499 308.51 78.7399 308.51C78.5899 308.49 78.4799 308.36 78.4899 308.21C80.5899 287.88 87.1999 267.84 97.6199 250.26C97.6999 250.13 97.8699 250.08 97.9999 250.16C98.1299 250.24 98.1799 250.41 98.0999 250.54C87.7299 268.05 81.1399 288.01 79.0499 308.26C79.0299 308.41 78.9099 308.51 78.7699 308.51Z" fill="#5B5D63"/>
<path d="M137.59 308.02C137.49 308.02 137.39 307.96 137.34 307.87C127.6 288.64 117.54 268.75 114.9 246.84C105.54 234.85 98.4697 220.75 94.4397 206.04C94.3997 205.89 94.4897 205.74 94.6297 205.7C94.7797 205.66 94.9297 205.75 94.9697 205.89C98.9897 220.55 106.05 234.61 115.38 246.55C115.41 246.59 115.43 246.64 115.44 246.69C118.05 268.53 128.1 288.4 137.83 307.61C137.9 307.75 137.84 307.91 137.71 307.98C137.67 308.02 137.63 308.02 137.59 308.02Z" fill="#5B5D63"/>
<path d="M182.54 138.22L188.47 143.3C190.67 141.82 195.88 137.42 195.88 137.42L188.53 129.85C186.47 131.19 183.53 135.78 182.54 138.22Z" fill="#E48A68"/>
<path d="M188.54 129.86C190.04 128.83 198.34 124.46 199.09 125.53C199.84 126.6 192.1 131.64 190.89 132.31L188.54 129.86Z" fill="#E48A68"/>
<path d="M192.9 130.67C193.82 130.07 195.39 131.39 194.91 132.57C196.32 132.5 196.72 133.74 196.29 134.7C197.52 134.67 197.71 136.13 197.03 136.9C196.35 137.66 193.18 139.47 192.51 139.81C191.84 140.14 190.87 139.13 191.49 138.42C190.72 138.64 189.47 137.72 190.15 137.03C188.93 137.33 188.39 136.08 189.06 135.32C189.73 134.55 191.93 131.3 192.9 130.67Z" fill="#E48A68"/>
<path d="M192.22 140.15C191.85 140.15 191.49 139.93 191.27 139.65C191.04 139.36 190.97 139.03 191.03 138.72C190.55 138.65 190.05 138.36 189.81 137.95C189.69 137.75 189.65 137.54 189.68 137.34C189.25 137.31 188.89 137.1 188.67 136.74C188.37 136.24 188.44 135.59 188.85 135.13C189.06 134.9 189.43 134.4 189.85 133.83C190.83 132.52 192.04 130.9 192.75 130.44C192.88 130.36 193.05 130.39 193.13 130.52C193.21 130.65 193.18 130.82 193.05 130.9C192.43 131.31 191.19 132.96 190.29 134.16C189.86 134.74 189.48 135.24 189.26 135.49C188.97 135.81 188.99 136.2 189.14 136.45C189.32 136.74 189.66 136.85 190.07 136.75C190.19 136.72 190.31 136.77 190.38 136.88C190.44 136.99 190.42 137.12 190.34 137.21C190.2 137.35 190.19 137.49 190.29 137.66C190.5 138 191.06 138.25 191.41 138.15C191.53 138.12 191.65 138.16 191.72 138.27C191.79 138.37 191.78 138.51 191.7 138.6C191.44 138.89 191.62 139.19 191.71 139.31C191.87 139.52 192.16 139.68 192.39 139.56C193.1 139.2 196.2 137.42 196.82 136.72C196.92 136.61 197.1 136.6 197.21 136.7C197.32 136.8 197.33 136.98 197.23 137.09C196.52 137.89 193.3 139.72 192.63 140.06C192.5 140.12 192.36 140.15 192.22 140.15Z" fill="#782E10"/>
<path d="M191.49 138.69C191.41 138.69 191.33 138.65 191.27 138.58C191.18 138.46 191.2 138.29 191.32 138.19L196.12 134.48C196.24 134.39 196.41 134.41 196.51 134.53C196.6 134.65 196.58 134.82 196.46 134.92L191.66 138.63C191.6 138.67 191.54 138.69 191.49 138.69Z" fill="#782E10"/>
<path d="M190.14 137.3C190.07 137.3 189.99 137.27 189.94 137.21C189.84 137.1 189.84 136.92 189.95 136.82L194.71 132.37C194.82 132.27 195 132.27 195.1 132.38C195.2 132.49 195.2 132.67 195.09 132.77L190.33 137.22C190.28 137.27 190.21 137.3 190.14 137.3Z" fill="#782E10"/>
<path d="M182.54 138.22C182.72 137.17 184.95 131.54 186.12 131.17C187.29 130.8 193.35 130.78 193.63 131.74C193.91 132.69 190.33 133.89 189.39 133.66C189.48 135.31 187.64 138.81 185.77 139.09L182.54 138.22Z" fill="#E48A68"/>
<path d="M185.76 139.36C185.63 139.36 185.51 139.26 185.49 139.12C185.47 138.97 185.57 138.83 185.72 138.81C187.39 138.56 189.19 135.23 189.11 133.67C189.11 133.58 189.14 133.5 189.21 133.44C189.28 133.38 189.37 133.36 189.45 133.38C190.07 133.53 192.49 132.84 193.21 132.09C193.26 132.04 193.38 131.9 193.35 131.81C193.15 131.34 189.44 131.04 186.96 131.3C186.81 131.32 186.67 131.21 186.66 131.05C186.64 130.9 186.75 130.76 186.91 130.75C187.72 130.67 193.52 130.39 193.89 131.65C193.94 131.84 193.94 132.13 193.61 132.47C192.87 133.24 190.75 133.95 189.67 133.95C189.66 133.95 189.66 133.95 189.65 133.95C189.53 135.81 187.69 139.06 185.79 139.35C185.79 139.36 185.78 139.36 185.76 139.36Z" fill="#782E10"/>
<path d="M135.97 119.38C141.37 123.71 151.4 141.43 153.38 146.3C158.71 143.04 182.54 135.91 182.54 135.91L189.7 144.04C183.64 150.45 160.61 163.46 151.3 163.46C141.99 163.46 128.63 141.42 128.63 141.42V125.79L135.97 119.38Z" fill="#A78BEF"/>
<path d="M132.04 133.34C132 133.34 131.96 133.33 131.92 133.31C131.78 133.24 131.72 133.08 131.79 132.94C132.45 131.53 133.3 130.22 134.31 129.04C134.41 128.92 134.58 128.91 134.7 129.01C134.82 129.11 134.83 129.28 134.73 129.4C133.75 130.54 132.93 131.81 132.29 133.17C132.25 133.28 132.15 133.34 132.04 133.34Z" fill="#7D66D3"/>
<path d="M154.52 152.25C154.38 152.25 154.26 152.15 154.25 152.01C154.01 150.07 153.63 148.13 153.14 146.24C153.11 146.12 153.16 146 153.26 145.93C153.37 145.87 153.5 145.88 153.59 145.96C154.52 146.82 155.35 147.7 155.99 148.5C156.08 148.62 156.06 148.79 155.94 148.89C155.82 148.99 155.65 148.96 155.55 148.84C155.09 148.26 154.53 147.64 153.9 147.02C154.29 148.64 154.59 150.29 154.79 151.94C154.81 152.09 154.7 152.23 154.55 152.25C154.55 152.25 154.53 152.25 154.52 152.25Z" fill="#7D66D3"/>
<path d="M186.8 145.64C186.71 145.64 186.62 145.6 186.57 145.52C184.67 142.72 182.5 140.08 180.13 137.66C180.02 137.55 180.02 137.38 180.13 137.27C180.24 137.16 180.42 137.16 180.52 137.27C182.91 139.71 185.1 142.38 187.02 145.2C187.11 145.33 187.07 145.5 186.95 145.58C186.91 145.63 186.86 145.64 186.8 145.64Z" fill="#7D66D3"/>
<path d="M131.51 128.23C135.84 127.29 137.85 120.63 135.97 119.38C134.09 118.12 120.93 114.61 118.36 114.3H105.12C102.91 114.54 88.62 117.37 87.43 119.25C86.24 121.13 83.93 130.05 88.95 131.37C93.18 161.09 81.89 174.19 89.59 183.36C93.06 187.49 133.06 186.61 135.77 183.99C144.58 175.45 133.56 150.26 131.51 128.23Z" fill="#A78BEF"/>
<path d="M138.51 166.16C138.37 166.16 138.26 166.06 138.24 165.92C137.57 161.34 136.47 156.3 135.29 150.98C133.64 143.48 131.93 135.73 131.24 128.26C131.23 128.11 131.34 127.97 131.49 127.96C131.64 127.95 131.78 128.06 131.79 128.21C132.48 135.65 134.18 143.39 135.83 150.87C137 156.21 138.11 161.25 138.78 165.85C138.8 166 138.7 166.14 138.55 166.16C138.53 166.16 138.52 166.16 138.51 166.16Z" fill="#7D66D3"/>
<path d="M91.9798 182.64C91.8798 182.64 91.7898 182.59 91.7398 182.5C90.3098 179.85 89.6398 176.55 89.7698 172.71C89.8598 169.97 90.3198 167.22 90.7698 164.56C90.8698 163.97 90.9698 163.39 91.0598 162.8C92.7298 152.52 93.2398 142.04 92.5698 131.65C92.5598 131.5 92.6798 131.37 92.8298 131.36C92.9798 131.35 93.1098 131.47 93.1198 131.62C93.7898 142.05 93.2798 152.58 91.5998 162.89C91.4998 163.48 91.4098 164.06 91.3098 164.65C90.8598 167.29 90.3998 170.02 90.3198 172.72C90.1998 176.47 90.8398 179.67 92.2298 182.23C92.2998 182.36 92.2498 182.53 92.1198 182.61C92.0698 182.63 92.0298 182.64 91.9798 182.64Z" fill="#7D66D3"/>
<path d="M104.55 168.28C104.47 168.28 104.38 168.24 104.33 168.17C104.24 168.05 104.26 167.87 104.39 167.78C115.49 159.46 123.41 146.89 126.13 133.28C126.16 133.13 126.31 133.03 126.46 133.06C126.61 133.09 126.71 133.24 126.68 133.39C123.94 147.12 115.94 159.82 104.73 168.22C104.66 168.27 104.61 168.28 104.55 168.28Z" fill="#7D66D3"/>
<path d="M114.82 175.39C114.74 175.39 114.66 175.35 114.6 175.28C114.51 175.16 114.53 174.99 114.65 174.89C119.93 170.73 124.06 165.24 126.6 159.02C126.66 158.88 126.82 158.81 126.96 158.87C127.1 158.93 127.17 159.09 127.11 159.23C124.54 165.54 120.35 171.11 114.99 175.33C114.94 175.37 114.88 175.39 114.82 175.39Z" fill="#7D66D3"/>
<path d="M72.7999 177.12L64.8299 177.72C64.6599 183.34 66.4199 194.72 66.7999 195.78C67.1799 196.84 68.1899 196.48 68.1499 195.52C68.1099 194.56 67.8599 189.28 67.8599 189.28C67.8599 189.28 69.4299 196.16 69.7299 197.1C70.0299 198.04 71.1599 198.38 71.1399 196.9C71.1299 195.42 70.1399 189.25 70.1399 189.25C70.1399 189.25 72.0399 197.04 72.3399 197.7C72.6399 198.36 73.7099 198.6 73.6899 197.28C73.6699 195.96 72.4799 188.73 72.4799 188.73C72.4799 188.73 74.5399 195.24 74.8299 195.94C75.1099 196.64 76.1499 196.74 76.0299 195.23C75.8999 193.72 73.5699 179.56 72.7999 177.12Z" fill="#E48A68"/>
<path d="M72.7997 177.12C74.2797 178.14 77.7797 181.56 78.3097 182.66C78.8397 183.76 79.7897 188.47 78.8897 188.74C77.9897 189.01 76.7497 186.96 76.6397 185.24C75.1697 185.09 73.0297 184.42 71.7997 183.03C70.5797 181.64 72.7997 177.12 72.7997 177.12Z" fill="#E48A68"/>
<path d="M68.8299 189.61C67.9499 189.61 67.1099 189.5 66.3599 189.28C66.2099 189.24 66.1299 189.08 66.1699 188.94C66.2099 188.79 66.3699 188.71 66.5099 188.75C68.5899 189.37 71.4299 189.05 73.7399 187.93C73.8799 187.86 74.0399 187.92 74.1099 188.06C74.1799 188.2 74.1199 188.36 73.9799 188.43C72.3899 189.2 70.5399 189.61 68.8299 189.61Z" fill="#782E10"/>
<path d="M74.3198 185.05C74.1798 185.05 74.0598 184.94 74.0398 184.8C73.8598 182.76 73.5398 180.72 73.1098 178.72C73.0798 178.57 73.1698 178.42 73.3198 178.39C73.4698 178.36 73.6198 178.45 73.6498 178.6C74.0898 180.62 74.4098 182.69 74.5898 184.75C74.5998 184.9 74.4898 185.04 74.3398 185.05C74.3398 185.05 74.3298 185.05 74.3198 185.05Z" fill="#782E10"/>
<path d="M72.5498 146.28C76.6398 145.4 104.28 132.79 102.65 126.46C101.02 120.13 92.7098 117.77 88.4598 118.48C84.2098 119.19 58.7498 132.25 56.4898 139.54C54.2398 146.83 62.4698 174.95 63.5598 177.3C64.4098 179.11 73.2398 178.22 73.7198 176.9C74.6898 174.25 74.6598 151.62 72.5498 146.28Z" fill="#9680E5"/>
<path d="M89.6995 138.71C89.5995 138.71 89.5095 138.66 89.4595 138.57C89.3895 138.44 89.4295 138.27 89.5695 138.19C93.6495 135.9 96.8395 133.78 99.0395 131.88C99.1595 131.78 99.3295 131.79 99.4295 131.91C99.5295 132.03 99.5195 132.2 99.3995 132.3C97.1595 134.22 93.9495 136.36 89.8395 138.67C89.7895 138.7 89.7395 138.71 89.6995 138.71Z" fill="#7D66D3"/>
<path d="M72.6098 146.58C72.5698 146.58 72.5298 146.57 72.4898 146.55C71.3398 146.02 70.1398 145.66 68.9398 145.49C68.7898 145.47 68.6798 145.33 68.7098 145.18C68.7298 145.03 68.8698 144.93 69.0198 144.95C70.0098 145.09 70.9998 145.36 71.9598 145.73C71.1698 144.52 69.9798 143.59 68.6098 143.11C68.4698 143.06 68.3898 142.9 68.4398 142.76C68.4898 142.62 68.6498 142.54 68.7898 142.59C70.5498 143.21 72.0298 144.52 72.8498 146.19C72.8998 146.3 72.8798 146.42 72.7998 146.51C72.7498 146.55 72.6798 146.58 72.6098 146.58Z" fill="#7D66D3"/>
<path d="M66.8496 175.56C65.8796 175.56 64.9096 175.49 63.9596 175.36C63.8096 175.34 63.6996 175.2 63.7196 175.05C63.7396 174.9 63.8796 174.79 64.0296 174.81C66.9696 175.22 70.0196 174.98 72.8596 174.11C73.0096 174.06 73.1596 174.15 73.2096 174.29C73.2496 174.44 73.1696 174.59 73.0296 174.64C71.0396 175.25 68.9396 175.56 66.8496 175.56Z" fill="#7D66D3"/>
<path d="M118.659 108.24C116.789 108.25 114.969 107.8 113.369 106.94C111.769 106.09 110.389 104.87 109.349 103.34L107.679 100.87V86.05C107.679 82.96 110.219 80.47 113.309 80.54L118.379 80.66C121.379 80.72 122.649 83.39 123.769 86.17C125.129 89.52 124.039 91.65 124.149 95.25C124.159 95.66 124.189 96.09 124.239 96.54C124.259 96.72 124.279 96.9 124.309 97.08C124.319 97.17 124.339 97.26 124.349 97.35C124.369 97.51 124.409 97.68 124.439 97.86C124.469 98.02 124.499 98.17 124.519 98.33C124.529 98.39 124.539 98.45 124.549 98.52C124.599 98.89 124.649 99.24 124.669 99.58C124.699 99.91 124.719 100.23 124.729 100.53C124.889 106.45 121.149 108.22 118.659 108.24Z" fill="#E48A68"/>
<path d="M118.349 114.3C118.349 114.3 116.579 117.52 111.879 117.52C107.379 117.52 105.119 114.3 105.119 114.3L107.679 100.86L117.349 107.03L117.539 108.18L117.899 110.59L118.349 114.3Z" fill="#E48A68"/>
<path d="M117.889 110.59C116.059 110.21 114.349 109.36 112.899 108.15C111.479 106.96 110.349 105.43 109.639 103.73C110.629 105.08 111.909 106.16 113.359 106.94C114.639 107.63 116.049 108.06 117.529 108.19L117.889 110.59Z" fill="#2C2F37"/>
<path d="M109.989 97.8499C109.989 99.8899 108.339 101.54 106.299 101.54C104.259 101.54 102.609 99.8899 102.609 97.8499C102.609 95.8099 104.259 94.1599 106.299 94.1599C108.329 94.1699 109.989 95.8199 109.989 97.8499Z" fill="#E48A68"/>
<path d="M108.41 100.1C108.27 100.1 108.14 99.9898 108.13 99.8398C108.07 98.9098 107.6 98.0098 106.87 97.4398C106.14 96.8598 105.16 96.6098 104.24 96.7698C104.09 96.7898 103.95 96.6998 103.92 96.5398C103.89 96.3898 104 96.2498 104.15 96.2198C105.22 96.0398 106.37 96.3298 107.22 96.9998C108.07 97.6698 108.62 98.7198 108.69 99.7998C108.7 99.9498 108.58 100.08 108.43 100.09C108.42 100.1 108.41 100.1 108.41 100.1Z" fill="#782E10"/>
<path d="M104.7 99.5798C104.67 99.5798 104.65 99.5798 104.62 99.5698C104.47 99.5298 104.39 99.3698 104.43 99.2298C104.79 98.0498 105.79 97.1498 106.99 96.9598C107.14 96.9398 107.28 97.0398 107.31 97.1898C107.33 97.3398 107.23 97.4798 107.08 97.5098C106.09 97.6698 105.25 98.4098 104.96 99.3998C104.93 99.4998 104.82 99.5798 104.7 99.5798Z" fill="#782E10"/>
<path d="M132.53 83.1101C132.26 84.8201 131.36 86.4201 130.04 87.5401C128.71 88.6501 126.99 89.2701 125.25 89.2301C122.42 89.1801 119.76 87.4801 116.94 87.7001C115.91 87.7701 114.93 88.1001 113.91 88.2301C112.89 88.3601 111.79 88.4101 111.01 87.7401C110.11 88.3601 110.01 89.6701 110.24 90.7401C110.48 91.8101 110.96 92.8501 110.89 93.9401C110.83 94.8501 110.34 95.7301 109.63 96.2901C109.04 95.0401 107.76 94.1701 106.29 94.1701C105.64 94.1701 105.04 94.3301 104.51 94.6201C103.29 92.5801 102.18 90.4401 102 88.1001C101.93 87.1001 102.05 86.0301 102.69 85.2501C103.42 84.3601 104.81 83.8801 105.84 84.4201C104.78 82.8601 105.1 80.5201 106.54 79.3101C107.79 78.2601 109.57 78.1101 111.2 78.3201C112.59 78.5001 113.94 78.9001 115.32 79.0701C116.71 79.2401 118.19 79.1401 119.38 78.4101C120.35 77.8101 121.02 76.8501 121.87 76.0901C122.8 75.2601 123.95 74.6701 125.18 74.4001C125.76 74.2701 126.43 74.2401 126.9 74.6101C127.41 75.0101 127.51 75.7701 127.28 76.3801C127.06 76.9901 126.58 77.4601 126.08 77.8701C125.59 78.2801 125.13 78.7001 124.73 79.2001C125.79 78.2801 127.14 77.6701 128.54 77.5001C129.09 77.4301 129.73 77.4701 130.06 77.9101C130.36 78.3101 130.27 78.8701 130.1 79.3401C129.68 80.5901 128.88 81.8701 127.81 82.6501C128.87 82.0401 130.1 81.7201 131.33 81.7301C131.71 81.7301 132.13 81.7801 132.38 82.0801C132.6 82.3601 132.59 82.7501 132.53 83.1101Z" fill="#2C2F37"/>
<path d="M145.4 62.4H150.26V63.15C149.707 63.7367 149.253 64.34 148.9 64.96C148.553 65.5733 148.3 66.2133 148.14 66.88C147.98 67.5467 147.9 68.2533 147.9 69H147.08C147.08 68.26 147.17 67.5367 147.35 66.83C147.537 66.1167 147.817 65.4333 148.19 64.78C148.563 64.1267 149.027 63.5167 149.58 62.95L149.71 63.15H145.4V62.4ZM153.475 69.1C152.889 69.1 152.415 68.9667 152.055 68.7C151.702 68.4333 151.429 68.0633 151.235 67.59L152.015 67.18C152.122 67.5267 152.285 67.81 152.505 68.03C152.732 68.2433 153.062 68.35 153.495 68.35C153.802 68.35 154.062 68.2933 154.275 68.18C154.495 68.0667 154.665 67.9067 154.785 67.7C154.905 67.4867 154.965 67.2333 154.965 66.94C154.965 66.6267 154.909 66.3667 154.795 66.16C154.689 65.9467 154.532 65.7867 154.325 65.68C154.119 65.5733 153.865 65.52 153.565 65.52C153.352 65.52 153.152 65.5433 152.965 65.59C152.785 65.63 152.622 65.6967 152.475 65.79C152.329 65.8833 152.202 66.0067 152.095 66.16L151.395 66.03L151.785 62.4H155.495V63.15H152.465L152.205 65.23L152.185 65.32H152.205C152.365 65.1533 152.569 65.02 152.815 64.92C153.069 64.82 153.369 64.77 153.715 64.77C154.135 64.77 154.499 64.86 154.805 65.04C155.119 65.2133 155.362 65.46 155.535 65.78C155.709 66.1 155.795 66.4733 155.795 66.9C155.795 67.24 155.739 67.5467 155.625 67.82C155.512 68.0933 155.352 68.3267 155.145 68.52C154.939 68.7067 154.692 68.85 154.405 68.95C154.125 69.05 153.815 69.1 153.475 69.1ZM158.226 69L162.426 62.4H163.186L158.986 69H158.226ZM158.416 62.3C158.742 62.3 159.022 62.3767 159.256 62.53C159.496 62.6767 159.679 62.8867 159.806 63.16C159.939 63.4333 160.006 63.7533 160.006 64.12C160.006 64.4867 159.939 64.8067 159.806 65.08C159.679 65.3533 159.496 65.5667 159.256 65.72C159.022 65.8667 158.742 65.94 158.416 65.94C158.096 65.94 157.816 65.8667 157.576 65.72C157.336 65.5667 157.149 65.3533 157.016 65.08C156.889 64.8067 156.826 64.4867 156.826 64.12C156.826 63.7533 156.889 63.4333 157.016 63.16C157.149 62.8867 157.336 62.6767 157.576 62.53C157.816 62.3767 158.096 62.3 158.416 62.3ZM158.416 62.93C158.229 62.93 158.069 62.9767 157.936 63.07C157.802 63.1633 157.702 63.3 157.636 63.48C157.569 63.6533 157.536 63.8667 157.536 64.12C157.536 64.3667 157.569 64.58 157.636 64.76C157.702 64.94 157.802 65.0767 157.936 65.17C158.069 65.2633 158.229 65.31 158.416 65.31C158.609 65.31 158.769 65.2633 158.896 65.17C159.029 65.0767 159.129 64.94 159.196 64.76C159.262 64.58 159.296 64.3667 159.296 64.12C159.296 63.8667 159.262 63.6533 159.196 63.48C159.129 63.3 159.029 63.1633 158.896 63.07C158.769 62.9767 158.609 62.93 158.416 62.93ZM162.996 65.46C163.322 65.46 163.602 65.5367 163.836 65.69C164.076 65.8367 164.259 66.0467 164.386 66.32C164.519 66.5933 164.586 66.9133 164.586 67.28C164.586 67.6467 164.519 67.9667 164.386 68.24C164.259 68.5133 164.076 68.7267 163.836 68.88C163.602 69.0267 163.322 69.1 162.996 69.1C162.676 69.1 162.396 69.0267 162.156 68.88C161.916 68.7267 161.729 68.5133 161.596 68.24C161.469 67.9667 161.406 67.6467 161.406 67.28C161.406 66.9133 161.469 66.5933 161.596 66.32C161.729 66.0467 161.916 65.8367 162.156 65.69C162.396 65.5367 162.676 65.46 162.996 65.46ZM162.996 66.09C162.809 66.09 162.649 66.1367 162.516 66.23C162.382 66.3233 162.282 66.46 162.216 66.64C162.149 66.8133 162.116 67.0267 162.116 67.28C162.116 67.5267 162.149 67.74 162.216 67.92C162.282 68.1 162.382 68.2367 162.516 68.33C162.649 68.4233 162.809 68.47 162.996 68.47C163.189 68.47 163.349 68.4233 163.476 68.33C163.609 68.2367 163.709 68.1 163.776 67.92C163.842 67.74 163.876 67.5267 163.876 67.28C163.876 67.0267 163.842 66.8133 163.776 66.64C163.709 66.46 163.609 66.3233 163.476 66.23C163.349 66.1367 163.189 66.09 162.996 66.09Z" fill="black"/>
</g>
</g>
<defs>
<clipPath id="clip0_585_5273">
<rect width="542.64" height="328.79" fill="white"/>
</clipPath>
<clipPath id="clip1_585_5273">
<rect width="134.31" height="100.82" fill="white" transform="translate(48 22)"/>
</clipPath>
<clipPath id="clip2_585_5273">
<rect width="308.23" height="222.45" fill="white" transform="translate(203 22)"/>
</clipPath>
<clipPath id="clip3_585_5273">
<rect width="480.41" height="281.75" fill="white" transform="translate(31 47)"/>
</clipPath>
</defs>
</svg>
