<svg width="543" height="329" viewBox="0 0 543 329" fill="none" xmlns="http://www.w3.org/2000/svg">
<g clip-path="url(#clip0_585_5273)">
<path opacity="0.2" d="M127.492 328.58L412.142 311.93C487.412 307.53 545.652 243.73 542.512 168.39C539.872 105.08 517.192 37.64 440.912 8.81999C387.262 -11.45 317.592 5.13999 273.402 38.85C262.782 46.95 253.022 56.24 241.612 63.17C215.022 79.32 191.672 68.17 163.972 63.88C105.412 54.79 46.9621 73.46 16.7021 127.43C-29.7579 210.35 25.0421 334.57 127.492 328.58Z" fill="#999999"/>
<g clip-path="url(#clip1_585_5273)">
<path d="M284.644 125.042H368.356C372.425 125.042 375.728 121.74 375.728 117.671V58.6437C375.728 54.5749 372.425 51.2727 368.356 51.2727H284.644C280.575 51.2727 277.273 54.5749 277.273 58.6437V117.671C277.273 121.747 280.575 125.042 284.644 125.042Z" fill="white"/>
<path d="M375.728 62.5135H277.273V58.6437C277.273 54.5749 280.575 51.2727 284.644 51.2727H368.356C372.425 51.2727 375.728 54.5749 375.728 58.6437V62.5135Z" fill="#E527BB"/>
<path d="M370.287 125.314H282.713C279.565 125.314 277 122.749 277 119.602V56.7125C277 53.5651 279.565 51 282.713 51H370.295C373.442 51 376.007 53.5651 376.007 56.7125V119.609C376 122.757 373.442 125.314 370.287 125.314ZM282.713 51.5455C279.86 51.5455 277.545 53.86 277.545 56.7125V119.609C277.545 122.462 279.86 124.776 282.713 124.776H370.295C373.147 124.776 375.462 122.462 375.462 119.609V56.7125C375.462 53.8673 373.147 51.5455 370.295 51.5455H282.713Z" fill="#A4ACE3"/>
<path d="M370.287 56.8968C370.287 57.7519 369.594 58.4448 368.739 58.4448C367.884 58.4448 367.191 57.7519 367.191 56.8968C367.191 56.0418 367.884 55.3489 368.739 55.3489C369.594 55.3416 370.287 56.0418 370.287 56.8968Z" fill="#D5D9F2"/>
<path d="M364.848 56.8968C364.848 57.7519 364.155 58.4448 363.3 58.4448C362.445 58.4448 361.752 57.7519 361.752 56.8968C361.752 56.0418 362.445 55.3489 363.3 55.3489C364.155 55.3416 364.848 56.0418 364.848 56.8968Z" fill="#D5D9F2"/>
<path d="M359.408 56.8968C359.408 57.7519 358.715 58.4448 357.86 58.4448C357.005 58.4448 356.312 57.7519 356.312 56.8968C356.312 56.0418 357.005 55.3489 357.86 55.3489C358.715 55.3416 359.408 56.0418 359.408 56.8968Z" fill="#D5D9F2"/>
<path d="M319.708 105.192H320.673C322 105.192 323.076 106.268 323.076 107.595V114.958H317.305V107.595C317.305 106.268 318.381 105.192 319.708 105.192Z" fill="#E527BB"/>
<path d="M308.519 99.3315H309.484C310.811 99.3315 311.887 100.408 311.887 101.734V114.958H306.116V101.734C306.116 100.408 307.192 99.3315 308.519 99.3315Z" fill="#E527BB"/>
<path d="M297.329 94.0024H298.295C299.622 94.0024 300.698 95.0786 300.698 96.4054V114.958H294.926V96.4054C294.926 95.0786 296.002 94.0024 297.329 94.0024Z" fill="#E527BB"/>
<path d="M286.148 79.0835H287.113C288.44 79.0835 289.516 80.1597 289.516 81.4864V114.951H283.745V81.4864C283.745 80.1597 284.821 79.0835 286.148 79.0835Z" fill="#E527BB"/>
<path d="M325.863 97.6804C325.988 97.6804 326.106 97.5993 326.143 97.474C326.194 97.3192 326.106 97.1497 325.951 97.1055C316.494 94.0686 299.607 84.1546 294.558 70.474C294.499 70.3192 294.329 70.2455 294.182 70.2971C294.027 70.3561 293.954 70.5256 294.005 70.673C299.121 84.5526 316.207 94.5919 325.767 97.6657C325.804 97.6804 325.833 97.6804 325.863 97.6804Z" fill="#E527BB"/>
<path d="M292.789 73.2825L293.342 73.4962L294.389 70.7763L297.027 72.022L297.278 71.4913L294.072 69.9729L292.789 73.2825Z" fill="#E527BB"/>
<path d="M361.199 89.2849C359.703 90.7149 357.669 91.5921 355.435 91.5921C352.258 91.5921 349.494 89.823 348.079 87.2137L344.813 88.9753C346.855 92.7419 350.843 95.2923 355.428 95.2923C358.656 95.2923 361.583 94.0245 363.742 91.9606L361.199 89.2849ZM355.435 74.8672C357.506 74.8672 359.408 75.6191 360.86 76.8722L363.263 74.0638C361.155 72.2579 358.42 71.167 355.435 71.167C353.172 71.167 351.057 71.7862 349.243 72.8771L351.145 76.054C352.398 75.2948 353.858 74.8672 355.435 74.8672Z" fill="#E527BB"/>
<path d="M367.494 83.2259C367.494 86.6608 366.057 89.7714 363.75 91.9606L361.199 89.2849C362.799 87.7591 363.794 85.6141 363.794 83.2259C363.794 80.6829 362.659 78.4053 360.86 76.8648L363.263 74.0564C365.851 76.2603 367.494 79.5552 367.494 83.2259Z" fill="#A78BEF"/>
<path d="M347.069 83.2259C347.069 84.6706 347.43 86.0269 348.079 87.2136L344.813 88.9753C343.892 87.2652 343.361 85.3119 343.361 83.2259C343.361 78.8254 345.713 74.9777 349.243 72.8696L351.145 76.0465C348.698 77.506 347.069 80.1743 347.069 83.2259Z" fill="#E527BB"/>
<path d="M369.927 99.8328H340.929C340.782 99.8328 340.656 99.7149 340.656 99.5601C340.656 99.4127 340.774 99.2874 340.929 99.2874H369.927C370.074 99.2874 370.199 99.4053 370.199 99.5601C370.199 99.7149 370.081 99.8328 369.927 99.8328Z" fill="#A4ACE3"/>
<path d="M369.927 102.553H340.929C340.782 102.553 340.656 102.435 340.656 102.28C340.656 102.133 340.774 102.007 340.929 102.007H369.927C370.074 102.007 370.199 102.125 370.199 102.28C370.199 102.427 370.081 102.553 369.927 102.553Z" fill="#A4ACE3"/>
<path d="M369.927 106.039H340.929C340.782 106.039 340.656 105.921 340.656 105.766C340.656 105.619 340.774 105.494 340.929 105.494H369.927C370.074 105.494 370.199 105.612 370.199 105.766C370.199 105.914 370.081 106.039 369.927 106.039Z" fill="#A4ACE3"/>
<path d="M369.927 108.752H340.929C340.782 108.752 340.656 108.634 340.656 108.479C340.656 108.324 340.774 108.206 340.929 108.206H369.927C370.074 108.206 370.199 108.324 370.199 108.479C370.199 108.634 370.081 108.752 369.927 108.752Z" fill="#A4ACE3"/>
<path d="M369.927 112.238H340.929C340.782 112.238 340.656 112.12 340.656 111.966C340.656 111.811 340.774 111.693 340.929 111.693H369.927C370.074 111.693 370.199 111.811 370.199 111.966C370.199 112.12 370.081 112.238 369.927 112.238Z" fill="#A4ACE3"/>
<path d="M369.927 114.958H340.929C340.782 114.958 340.656 114.84 340.656 114.686C340.656 114.538 340.774 114.413 340.929 114.413H369.927C370.074 114.413 370.199 114.531 370.199 114.686C370.199 114.833 370.081 114.958 369.927 114.958Z" fill="#A4ACE3"/>
</g>
<path d="M348.806 79.51H351.722V79.96C351.39 80.312 351.118 80.674 350.906 81.046C350.698 81.414 350.546 81.798 350.45 82.198C350.354 82.598 350.306 83.022 350.306 83.47H349.814C349.814 83.026 349.868 82.592 349.976 82.168C350.088 81.74 350.256 81.33 350.48 80.938C350.704 80.546 350.982 80.18 351.314 79.84L351.392 79.96H348.806V79.51ZM353.652 83.53C353.3 83.53 353.016 83.45 352.8 83.29C352.588 83.13 352.424 82.908 352.308 82.624L352.776 82.378C352.84 82.586 352.938 82.756 353.07 82.888C353.206 83.016 353.404 83.08 353.664 83.08C353.848 83.08 354.004 83.046 354.132 82.978C354.264 82.91 354.366 82.814 354.438 82.69C354.51 82.562 354.546 82.41 354.546 82.234C354.546 82.046 354.512 81.89 354.444 81.766C354.38 81.638 354.286 81.542 354.162 81.478C354.038 81.414 353.886 81.382 353.706 81.382C353.578 81.382 353.458 81.396 353.346 81.424C353.238 81.448 353.14 81.488 353.052 81.544C352.964 81.6 352.888 81.674 352.824 81.766L352.404 81.688L352.638 79.51H354.864V79.96H353.046L352.89 81.208L352.878 81.262H352.89C352.986 81.162 353.108 81.082 353.256 81.022C353.408 80.962 353.588 80.932 353.796 80.932C354.048 80.932 354.266 80.986 354.45 81.094C354.638 81.198 354.784 81.346 354.888 81.538C354.992 81.73 355.044 81.954 355.044 82.21C355.044 82.414 355.01 82.598 354.942 82.762C354.874 82.926 354.778 83.066 354.654 83.182C354.53 83.294 354.382 83.38 354.21 83.44C354.042 83.5 353.856 83.53 353.652 83.53ZM356.502 83.47L359.022 79.51H359.478L356.958 83.47H356.502ZM356.616 79.45C356.812 79.45 356.98 79.496 357.12 79.588C357.264 79.676 357.374 79.802 357.45 79.966C357.53 80.13 357.57 80.322 357.57 80.542C357.57 80.762 357.53 80.954 357.45 81.118C357.374 81.282 357.264 81.41 357.12 81.502C356.98 81.59 356.812 81.634 356.616 81.634C356.424 81.634 356.256 81.59 356.112 81.502C355.968 81.41 355.856 81.282 355.776 81.118C355.7 80.954 355.662 80.762 355.662 80.542C355.662 80.322 355.7 80.13 355.776 79.966C355.856 79.802 355.968 79.676 356.112 79.588C356.256 79.496 356.424 79.45 356.616 79.45ZM356.616 79.828C356.504 79.828 356.408 79.856 356.328 79.912C356.248 79.968 356.188 80.05 356.148 80.158C356.108 80.262 356.088 80.39 356.088 80.542C356.088 80.69 356.108 80.818 356.148 80.926C356.188 81.034 356.248 81.116 356.328 81.172C356.408 81.228 356.504 81.256 356.616 81.256C356.732 81.256 356.828 81.228 356.904 81.172C356.984 81.116 357.044 81.034 357.084 80.926C357.124 80.818 357.144 80.69 357.144 80.542C357.144 80.39 357.124 80.262 357.084 80.158C357.044 80.05 356.984 79.968 356.904 79.912C356.828 79.856 356.732 79.828 356.616 79.828ZM359.364 81.346C359.56 81.346 359.728 81.392 359.868 81.484C360.012 81.572 360.122 81.698 360.198 81.862C360.278 82.026 360.318 82.218 360.318 82.438C360.318 82.658 360.278 82.85 360.198 83.014C360.122 83.178 360.012 83.306 359.868 83.398C359.728 83.486 359.56 83.53 359.364 83.53C359.172 83.53 359.004 83.486 358.86 83.398C358.716 83.306 358.604 83.178 358.524 83.014C358.448 82.85 358.41 82.658 358.41 82.438C358.41 82.218 358.448 82.026 358.524 81.862C358.604 81.698 358.716 81.572 358.86 81.484C359.004 81.392 359.172 81.346 359.364 81.346ZM359.364 81.724C359.252 81.724 359.156 81.752 359.076 81.808C358.996 81.864 358.936 81.946 358.896 82.054C358.856 82.158 358.836 82.286 358.836 82.438C358.836 82.586 358.856 82.714 358.896 82.822C358.936 82.93 358.996 83.012 359.076 83.068C359.156 83.124 359.252 83.152 359.364 83.152C359.48 83.152 359.576 83.124 359.652 83.068C359.732 83.012 359.792 82.93 359.832 82.822C359.872 82.714 359.892 82.586 359.892 82.438C359.892 82.286 359.872 82.158 359.832 82.054C359.792 81.946 359.732 81.864 359.652 81.808C359.576 81.752 359.48 81.724 359.364 81.724Z" fill="black"/>
<path d="M137.309 163.985L120.63 93.2783C120.164 91.304 121.663 89.4124 123.694 89.4124H238.255C240.834 89.4124 243.075 91.1848 243.666 93.6916L260.187 163.723C260.651 165.688 259.159 167.57 257.138 167.57H141.843C139.682 167.57 137.804 166.086 137.309 163.985Z" fill="white"/>
<path d="M242.165 127.951C242.165 127.951 227.056 105.714 213.205 105.575C203.127 105.474 207.18 122.671 197.362 120.864C187.543 119.058 178.478 96.9585 172.667 96.6807C166.855 96.403 172.254 119.196 163.507 117.668C154.761 116.139 148.076 103.074 139.334 102.38L145.227 127.159L242.165 127.951Z" fill="#E527BB"/>
<path d="M234.391 96.678L245.274 141.609L145.646 139.945" stroke="#898989" stroke-width="3.6816" stroke-miterlimit="10"/>
<g opacity="0.51">
<path d="M242.949 134.789L143.253 133.141" stroke="#898989" stroke-width="0.9204" stroke-miterlimit="10"/>
<path d="M241.937 130.028L142.242 128.382" stroke="#898989" stroke-width="0.9204" stroke-miterlimit="10"/>
<path d="M240.925 125.27L141.229 123.623" stroke="#898989" stroke-width="0.9204" stroke-miterlimit="10"/>
<path d="M239.913 120.511L140.218 118.864" stroke="#898989" stroke-width="0.9204" stroke-miterlimit="10"/>
<path d="M238.901 115.752L139.206 114.104" stroke="#898989" stroke-width="0.9204" stroke-miterlimit="10"/>
<path d="M237.889 110.992L138.193 109.345" stroke="#898989" stroke-width="0.9204" stroke-miterlimit="10"/>
<path d="M236.877 106.233L137.182 104.586" stroke="#898989" stroke-width="0.9204" stroke-miterlimit="10"/>
<path d="M235.865 101.474L136.17 99.8274" stroke="#898989" stroke-width="0.9204" stroke-miterlimit="10"/>
<path d="M234.853 96.7146L135.158 95.0669" stroke="#898989" stroke-width="0.9204" stroke-miterlimit="10"/>
</g>
<g opacity="0.51">
<path d="M229.203 96.8652L240.036 141.601" stroke="#898989" stroke-width="0.9204" stroke-miterlimit="10"/>
<path d="M222.497 96.7649L233.331 141.502" stroke="#898989" stroke-width="0.9204" stroke-miterlimit="10"/>
<path d="M215.79 96.666L226.624 141.403" stroke="#898989" stroke-width="0.9204" stroke-miterlimit="10"/>
<path d="M209.085 96.5671L219.918 141.303" stroke="#898989" stroke-width="0.9204" stroke-miterlimit="10"/>
<path d="M202.378 96.4668L213.211 141.204" stroke="#898989" stroke-width="0.9204" stroke-miterlimit="10"/>
<path d="M195.672 96.3679L206.505 141.104" stroke="#898989" stroke-width="0.9204" stroke-miterlimit="10"/>
<path d="M188.965 96.2688L199.799 141.004" stroke="#898989" stroke-width="0.9204" stroke-miterlimit="10"/>
<path d="M182.259 96.1687L193.093 140.906" stroke="#898989" stroke-width="0.9204" stroke-miterlimit="10"/>
<path d="M175.553 96.0698L186.386 140.805" stroke="#898989" stroke-width="0.9204" stroke-miterlimit="10"/>
<path d="M168.847 95.9707L179.68 140.706" stroke="#898989" stroke-width="0.9204" stroke-miterlimit="10"/>
<path d="M162.14 95.8706L172.973 140.608" stroke="#898989" stroke-width="0.9204" stroke-miterlimit="10"/>
<path d="M155.434 95.7715L166.267 140.507" stroke="#898989" stroke-width="0.9204" stroke-miterlimit="10"/>
<path d="M148.727 95.6729L159.561 140.408" stroke="#898989" stroke-width="0.9204" stroke-miterlimit="10"/>
<path d="M142.02 95.5723L152.854 140.309" stroke="#898989" stroke-width="0.9204" stroke-miterlimit="10"/>
<path d="M135.315 95.4734L146.148 140.209" stroke="#898989" stroke-width="0.9204" stroke-miterlimit="10"/>
</g>
<path d="M237.859 109.975C237.859 109.975 232.828 122.901 215.958 114.939C199.088 106.977 193.801 97.9261 183.742 108.254C173.684 118.583 160.663 111.653 153.051 104.704C145.44 97.7554 141.819 112.673 141.819 112.673L145.352 127.522L242.17 127.964L237.859 109.975Z" fill="#A78BEF"/>
<path d="M244.879 146.616L210.251 145.919C209.536 145.904 209.134 146.457 209.341 147.163L209.374 147.273C209.588 148.003 210.373 148.62 211.114 148.639L245.805 149.506C246.547 149.525 246.953 148.936 246.703 148.201L246.608 147.921C246.364 147.211 245.597 146.631 244.879 146.616Z" fill="#A3A4A1"/>
<path d="M246.4 153.319L149.432 151.499C148.718 151.484 148.315 152.037 148.522 152.743L148.555 152.853C148.771 153.583 149.555 154.2 150.295 154.219L247.326 156.211C248.068 156.23 248.474 155.64 248.224 154.906L248.129 154.625C247.885 153.913 247.117 153.334 246.4 153.319Z" fill="#A3A4A1"/>
<path d="M247.922 160.021L186.654 159.197C185.939 159.182 185.536 159.735 185.743 160.441L185.776 160.551C185.992 161.281 186.776 161.898 187.516 161.917L248.848 162.913C249.59 162.932 249.996 162.342 249.746 161.608L249.651 161.327C249.407 160.616 248.639 160.036 247.922 160.021Z" fill="#A3A4A1"/>
<path d="M147.481 62.1379H269.072V59.6365H147.481V62.1379Z" fill="url(#paint0_linear_585_5273)"/>
<path d="M205.293 188.992H211.259V72.4541H205.293V188.992Z" fill="url(#paint1_linear_585_5273)"/>
<path d="M202.182 76.6466H214.373V53.9658H202.182V76.6466Z" fill="url(#paint2_linear_585_5273)"/>
<path d="M210.706 53.9656L208.115 22L205.848 53.9656H210.706Z" fill="url(#paint3_linear_585_5273)"/>
<path d="M117.302 131.629C122.302 127.544 133.219 124.709 145.892 124.709C158.563 124.709 169.481 127.544 174.482 131.629H177.341V135.962C177.374 136.187 177.395 136.412 177.395 136.64C177.395 136.868 177.375 137.093 177.341 137.317V137.33H177.338C176.394 143.597 162.679 148.57 145.892 148.57C129.105 148.57 115.389 143.597 114.445 137.33H114.388V131.629H117.302Z" fill="url(#paint4_linear_585_5273)"/>
<path d="M145.892 146.124C163.291 146.124 177.395 140.783 177.395 134.194C177.395 127.605 163.291 122.264 145.892 122.264C128.493 122.264 114.388 127.605 114.388 134.194C114.388 140.783 128.493 146.124 145.892 146.124Z" fill="url(#paint5_linear_585_5273)"/>
<path d="M145.892 144.435C163.291 144.435 177.395 139.094 177.395 132.506C177.395 125.917 163.291 120.576 145.892 120.576C128.493 120.576 114.388 125.917 114.388 132.506C114.388 139.094 128.493 144.435 145.892 144.435Z" fill="url(#paint6_linear_585_5273)"/>
<path d="M114.776 134.369L147.466 61.955L177 132.67L177.787 132.343L147.496 59.8181L114 134.019L114.776 134.369Z" fill="url(#paint7_linear_585_5273)"/>
<path d="M147.908 62.1379H147.056V146.124H147.908V62.1379Z" fill="url(#paint8_linear_585_5273)"/>
<path d="M143.115 64.0174H151.988V58.7395H143.115V64.0174Z" fill="url(#paint9_linear_585_5273)"/>
<path d="M235.796 131.629C240.796 127.544 251.713 124.709 264.385 124.709C277.058 124.709 287.975 127.544 292.975 131.629H295.835V135.962C295.867 136.187 295.889 136.412 295.889 136.64C295.889 136.868 295.869 137.093 295.835 137.317V137.33H295.832C294.888 143.597 281.172 148.57 264.385 148.57C247.599 148.57 233.883 143.597 232.939 137.33H232.882V131.629H235.796Z" fill="url(#paint10_linear_585_5273)"/>
<path d="M264.385 146.124C281.784 146.124 295.889 140.783 295.889 134.194C295.889 127.605 281.784 122.264 264.385 122.264C246.986 122.264 232.882 127.605 232.882 134.194C232.882 140.783 246.986 146.124 264.385 146.124Z" fill="url(#paint11_linear_585_5273)"/>
<path d="M264.385 144.435C281.784 144.435 295.889 139.094 295.889 132.506C295.889 125.917 281.784 120.576 264.385 120.576C246.986 120.576 232.882 125.917 232.882 132.506C232.882 139.094 246.986 144.435 264.385 144.435Z" fill="url(#paint12_linear_585_5273)"/>
<path d="M233.27 134.369L265.961 61.955L295.494 132.67L296.281 132.343L265.99 59.8181L232.494 134.019L233.27 134.369Z" fill="url(#paint13_linear_585_5273)"/>
<path d="M266.401 62.1379H265.549V146.124H266.401V62.1379Z" fill="url(#paint14_linear_585_5273)"/>
<path d="M261.609 64.0174H270.482V58.7395H261.609V64.0174Z" fill="url(#paint15_linear_585_5273)"/>
<path d="M372.075 230.332L360.383 221.261L359.865 225.797L372.075 234.674V230.332Z" fill="url(#paint16_linear_585_5273)"/>
<path d="M409.463 224.637L372.075 230.332L359.865 220.859L400.202 217.692L409.463 224.637Z" fill="#C719A1"/>
<path d="M407.421 165.364L415.484 170.832C417.123 171.943 418.043 173.846 417.895 175.82L413.916 224.121L391.401 208.703L407.421 165.364Z" fill="url(#paint17_linear_585_5273)"/>
<path d="M402.968 165.881L411.031 171.348C412.669 172.459 413.589 174.362 413.441 176.336L409.463 224.637L386.947 209.219L402.968 165.881Z" fill="#E527BB"/>
<path d="M409.741 221.261V224.637L372.075 230.332V234.674L412.986 227.968L413.916 224.121L409.741 221.261Z" fill="url(#paint18_linear_585_5273)"/>
<path d="M412.986 227.968L428.158 274.448L426.917 275.817L409.463 228.545L412.986 227.968Z" fill="url(#paint19_linear_585_5273)"/>
<path opacity="0.2" d="M338.353 253.539H190.421C187.12 253.539 185.376 256.138 187.58 257.772L219.038 285.075C221.36 286.798 224.675 287.782 228.155 287.782H374.119C378.136 287.782 380.382 284.699 377.894 282.602L346.549 256.181C344.569 254.511 341.549 253.539 338.353 253.539Z" fill="url(#paint20_linear_585_5273)"/>
<path d="M357.55 274.543C357.55 274.543 358.18 275.927 353.394 275.99C348.607 276.053 348.544 274.229 348.04 275.267C347.536 276.305 347.536 278.381 346.339 279.011C345.142 279.64 335.694 279.703 334.686 280.646C333.678 281.589 334.183 284.484 334.183 284.484C334.183 284.484 357.046 284.106 357.865 283.289C358.683 282.472 357.55 274.543 357.55 274.543Z" fill="#DAA7EE"/>
<path d="M337.725 257.681C337.725 257.681 338.354 259.065 333.569 259.128C328.782 259.191 328.719 257.367 328.215 258.405C327.711 259.443 327.711 261.519 326.513 262.149C325.317 262.777 315.869 262.841 314.861 263.784C313.853 264.727 314.358 267.622 314.358 267.622C314.358 267.622 337.22 267.244 338.04 266.427C338.858 265.608 337.725 257.681 337.725 257.681Z" fill="#DAA7EE"/>
<path d="M333.874 265.017C333.874 265.017 335.841 276.294 352.191 276.989C368.541 277.686 365.586 271.413 365.586 271.413C365.586 271.413 367.491 232.687 368.02 228.511C368.541 224.344 372.191 226.775 387.501 225.383C402.81 223.992 404.027 212.531 401.762 206.276C399.505 200.021 399.848 187.855 404.029 177.645C408.2 167.435 408.124 163.216 408.124 163.216L403.5 153.974C403.5 153.974 376.725 155.77 371.319 159.197C370.914 159.453 370.622 159.726 370.481 160C369.202 162.448 369.307 176.289 369.052 187.194C368.902 193.845 368.62 199.404 367.808 200.62C365.675 203.818 345.408 209.227 341.66 214.036C337.922 218.855 333.874 265.017 333.874 265.017Z" fill="#A78BEF"/>
<path d="M340.846 213.265C340.846 213.265 334.838 218.187 332.548 230.763C330.26 243.339 326.283 256.058 326.283 256.058C326.283 256.058 329.688 261.674 337.555 262.653C343.114 263.344 355.876 230.88 355.014 216.181C354.657 210.071 340.846 213.265 340.846 213.265Z" fill="#A78BEF"/>
<path d="M334.954 135.822L348.169 137.426C352.049 137.715 354.816 141.308 354.1 145.128L346.446 185.95L318.627 183.621L334.954 135.822Z" fill="url(#paint21_linear_585_5273)"/>
<path d="M337.735 138.697L344.641 139.21C348.52 139.499 351.288 143.093 350.571 146.912L342.918 187.735L315.099 185.405L337.735 138.697Z" fill="url(#paint22_linear_585_5273)"/>
<path d="M292.8 262.607L295.566 270.596C295.566 270.596 287.395 274.511 285.779 273.404C284.163 272.297 285.779 270.936 285.779 270.936L285.061 263.967L292.8 262.607Z" fill="#FFB782"/>
<path d="M304.416 240.893L307.139 246.288C307.139 246.288 304.712 253.082 301.671 253.425C298.629 253.768 297.349 246.628 297.139 246.288C296.928 245.948 304.416 240.893 304.416 240.893Z" fill="#FFB782"/>
<path d="M305.835 246.024C305.835 246.024 303.95 250.88 301.47 251.078C298.989 251.276 296.907 250.285 297.204 252.863C297.501 255.44 296.013 257.115 294.525 258.706C293.036 260.296 290.755 261.287 294.525 261.585C298.294 261.882 300.081 261.684 302.958 258.116C305.835 254.548 312.284 250.386 310.598 247.907C308.91 245.43 307.422 244.24 305.835 246.024Z" fill="#2A3645"/>
<path d="M284.357 181.271C284.357 181.271 256.037 197.329 256.553 202.468C257.067 207.608 283.477 266.024 283.477 266.024C283.477 266.024 283.82 267.737 288.622 266.024C293.424 264.311 294.796 263.455 294.796 263.455L285.061 237.32L296.51 248.38C296.51 248.38 299.588 248.894 301.735 246.667C303.884 244.44 305.085 242.042 305.085 242.042L290.795 220.108C290.795 220.108 293.081 214.29 296.681 212.577C300.283 210.864 329.354 194.875 329.053 184.453C328.75 174.031 293.252 177.286 291.022 176.945C288.793 176.599 284.357 181.271 284.357 181.271Z" fill="url(#paint23_linear_585_5273)"/>
<path d="M317.06 112.589C317.06 112.589 305.306 110.758 299.507 113.502C293.708 116.246 289.763 140.689 290.222 152.121C290.679 163.554 296.862 179.556 296.862 179.556C296.862 179.556 301.82 182.754 310.822 179.556C319.825 176.358 326.081 123.617 326.081 123.617L317.06 112.589Z" fill="#A78BEF"/>
<path d="M316.006 107.327L317.059 112.588C317.059 112.588 314.671 117.007 307.438 117.147C300.205 117.288 300.627 113.611 300.627 113.611L301.68 110.485L316.006 107.327Z" fill="url(#paint24_linear_585_5273)"/>
<path d="M317.06 112.589C317.06 112.589 334.209 116.12 337.15 122.562C340.091 129.003 335.453 160.756 333.756 163.581C332.059 166.406 329.684 166.406 329.684 166.406L331.946 183.243C331.946 183.243 324.141 185.615 317.92 184.485C311.699 183.355 308.842 183.37 308.842 183.37L310.907 157.93L303.5 153.323C303.5 153.323 304.312 151.516 305.584 148.238C306.856 144.961 306.757 144.057 306.757 144.057L312.038 147.196C312.038 147.196 312.717 128.664 315.206 122.11C317.694 115.555 317.06 112.589 317.06 112.589Z" fill="black"/>
<path d="M299.084 115.843C299.084 115.843 295.729 125.282 295.755 138.349C295.782 151.415 296.935 181.544 296.935 181.544C296.935 181.544 294.089 181.544 290.55 181.544C287.011 181.544 284.857 179.699 284.857 179.699L285.78 159.87C285.78 159.87 283.626 161.1 280.395 160.023C277.164 158.947 264.083 148.689 264.083 148.689C264.083 148.689 267.622 146.803 268.546 144.036C269.47 141.269 269.007 140.346 269.007 140.346C269.007 140.346 282.241 149.57 283.934 147.571C285.627 145.572 284.242 120.705 289.013 117.152C293.784 113.599 299.785 112.588 299.785 112.588L299.084 115.843Z" fill="black"/>
<path d="M295.763 92.8935C295.763 92.8935 294.366 97.021 294.746 98.2188C295.125 99.4181 295.61 100.033 295.326 101.197C295.043 102.361 293.754 103.031 295.846 108.151C297.937 113.272 296.833 116.015 303.578 115.41C310.322 114.806 315.994 107.956 316.942 106.753C317.89 105.55 318.613 96.0088 313.387 93.0073C308.16 90.0073 295.763 92.8935 295.763 92.8935Z" fill="#FFB782"/>
<path d="M292.763 84.915C292.763 84.915 290.721 91.2878 296.205 94.1348C301.689 96.9804 305.098 93.834 305.098 93.834C305.098 93.834 302.777 97.3788 304.839 98.7663C306.9 100.154 305.928 105.837 307.895 105.638C308.743 105.551 308.205 99.7108 310.686 99.5848C313.168 99.4588 314.028 102.574 312.635 104.718C311.242 106.861 310.854 110.935 312.864 110.87C314.875 110.805 320.394 108.109 322.482 102.506C324.57 96.9031 319.945 92.3109 319.945 92.3109C319.945 92.3109 322.301 84.8459 313.64 83.9651C304.982 83.083 297.382 86.3514 292.763 84.915Z" fill="url(#paint25_linear_585_5273)"/>
<path d="M308.396 104.638C308.396 104.638 307.575 109.13 308.324 111.055C308.917 112.577 310.094 113.459 307.708 114.287C305.322 115.115 301.065 117.035 299.12 115.492C297.175 113.948 296.452 109.806 296.452 109.806C296.452 109.806 295.848 108.998 296.168 108.986C296.488 108.974 300.791 109.336 302.395 109.97C304.033 110.618 305.015 110.689 305.416 108.459C305.816 106.23 306.516 103.105 306.516 103.105L308.396 104.638Z" fill="url(#paint26_linear_585_5273)"/>
<path d="M306.756 145.06C306.756 145.06 304.184 140.712 302.533 139.737C300.882 138.763 299.615 137.789 299.615 137.789C299.615 137.789 298.106 138.614 300.131 140.113C302.158 141.611 297.902 140.263 296.502 139.737C295.102 139.213 289.847 140.325 287.635 140.857C285.422 141.386 284.889 142.286 289.474 142.061C294.059 141.836 294.202 141.987 294.202 141.987C294.202 141.987 292.905 149.259 297.343 150.459C301.782 151.658 304.176 152.33 304.176 152.33C304.176 152.33 306.851 146.935 306.756 145.06Z" fill="#FFB782"/>
<path d="M338.353 185.289H190.421C187.12 185.289 185.376 187.888 187.58 189.522L219.038 216.825C221.36 218.549 224.675 219.532 228.155 219.532H374.119C378.136 219.532 380.382 216.45 377.894 214.352L346.549 187.931C344.569 186.262 341.549 185.289 338.353 185.289Z" fill="url(#paint27_linear_585_5273)"/>
<path d="M338.353 183.282H190.421C187.12 183.282 185.376 185.881 187.58 187.515L219.038 214.818C221.36 216.542 224.675 217.526 228.155 217.526H374.119C378.136 217.526 380.382 214.443 377.894 212.345L346.549 185.925C344.569 184.257 341.549 183.282 338.353 183.282Z" fill="url(#paint28_linear_585_5273)"/>
<path d="M295.764 267.138C295.764 267.138 291.364 271.73 289.213 271.241C287.061 270.752 283.344 267.856 283.051 268.815C282.758 269.775 282.563 271.534 278.161 273.683C273.761 275.832 273.564 277.199 275.912 278.568C278.259 279.935 279.432 280.132 283.639 278.568C287.844 277.004 297.037 273.683 297.135 272.023C297.232 270.363 295.764 267.138 295.764 267.138Z" fill="#2A3645"/>
<path d="M224.781 163.664H258.787C259.218 163.664 259.57 163.314 259.57 162.882V114.512C259.57 114.081 259.22 113.73 258.787 113.73H224.781C224.349 113.73 223.998 114.08 223.998 114.512V162.883C223.998 163.314 224.348 163.664 224.781 163.664Z" fill="#DAA7EE"/>
<path d="M257.334 161.398V115.997C257.334 115.98 257.319 115.965 257.302 115.965H226.267C226.248 115.965 226.235 115.98 226.235 115.997V161.398C226.235 161.417 226.25 161.431 226.267 161.431H257.302C257.319 161.431 257.334 161.417 257.334 161.398Z" fill="white"/>
<path d="M249.394 132.527C247.931 135.345 244.985 137.269 241.59 137.269C236.736 137.269 232.802 133.339 232.802 128.492C232.802 123.644 236.736 119.714 241.59 119.714C244.269 119.714 246.668 120.912 248.279 122.801L241.59 128.492L249.394 132.527Z" fill="#E527BB"/>
<path d="M252.299 128.492C252.299 129.947 251.945 131.32 251.317 132.527L243.513 128.492L250.202 122.801C251.509 124.333 252.299 126.321 252.299 128.492Z" fill="#A78BEF"/>
<path d="M255.439 141.269H234.434C234.181 141.269 233.975 141.063 233.975 140.811V140.781C233.975 140.529 234.181 140.323 234.434 140.323H255.439C255.691 140.323 255.898 140.529 255.898 140.781V140.811C255.899 141.061 255.691 141.269 255.439 141.269Z" fill="#E9EBEC"/>
<path d="M255.424 143.677H229.677C229.416 143.677 229.203 143.464 229.203 143.204C229.203 142.943 229.416 142.731 229.677 142.731H255.424C255.685 142.731 255.898 142.943 255.898 143.204C255.899 143.464 255.685 143.677 255.424 143.677Z" fill="#E9EBEC"/>
<path d="M255.424 146.086H229.677C229.416 146.086 229.203 145.873 229.203 145.613C229.203 145.353 229.416 145.14 229.677 145.14H255.424C255.685 145.14 255.898 145.353 255.898 145.613C255.899 145.872 255.685 146.086 255.424 146.086Z" fill="#E9EBEC"/>
<path d="M251.607 148.494H229.671C229.413 148.494 229.202 148.283 229.202 148.025V148.014C229.202 147.757 229.413 147.545 229.671 147.545H251.607C251.865 147.545 252.076 147.757 252.076 148.014V148.025C252.076 148.284 251.865 148.494 251.607 148.494Z" fill="#E9EBEC"/>
<path d="M255.439 152.522H234.434C234.181 152.522 233.975 152.317 233.975 152.064V152.035C233.975 151.783 234.181 151.577 234.434 151.577H255.439C255.691 151.577 255.898 151.783 255.898 152.035V152.064C255.899 152.317 255.691 152.522 255.439 152.522Z" fill="#E9EBEC"/>
<path d="M255.424 154.932H229.677C229.416 154.932 229.203 154.719 229.203 154.459C229.203 154.199 229.416 153.986 229.677 153.986H255.424C255.685 153.986 255.898 154.199 255.898 154.459C255.899 154.719 255.685 154.932 255.424 154.932Z" fill="#E9EBEC"/>
<path d="M255.424 157.341H229.677C229.416 157.341 229.203 157.128 229.203 156.868C229.203 156.608 229.416 156.395 229.677 156.395H255.424C255.685 156.395 255.898 156.608 255.898 156.868C255.899 157.127 255.685 157.341 255.424 157.341Z" fill="#E9EBEC"/>
<path d="M251.607 159.749H229.671C229.413 159.749 229.202 159.537 229.202 159.28V159.269C229.202 159.012 229.413 158.8 229.671 158.8H251.607C251.865 158.8 252.076 159.012 252.076 159.269V159.28C252.076 159.539 251.865 159.749 251.607 159.749Z" fill="#E9EBEC"/>
<path d="M342.965 183.732C342.965 183.732 345.91 185.433 346.026 187.468C346.141 189.511 346.141 189.511 346.141 189.511C346.141 189.511 368.27 189.667 369.002 189.191C369.257 178.285 369.203 162.45 370.481 160C370.622 159.726 370.913 159.454 371.319 159.197C371.133 157.612 370.869 156.502 370.481 156.123C370.481 156.123 368.602 156.757 368.259 162.879C367.924 168.993 368.259 179.309 366.786 179.987C365.314 180.665 342.965 183.732 342.965 183.732Z" fill="#DAA7EE"/>
<path d="M264.916 148.175C262.771 149.204 259.571 145.992 259.571 145.992L258.991 136.273C258.991 136.273 257.379 135.693 254.673 134.663C251.967 133.633 252.74 131.122 252.74 131.122C252.74 131.122 253.063 131.316 256.219 132.217C259.377 133.118 261.955 132.346 264.079 135.693C266.205 139.04 269.041 142.055 269.041 142.055C269.041 142.055 269.359 146.047 264.916 148.175Z" fill="#FFB782"/>
<path d="M272.881 172.959L270.182 202.015L269.254 202.463L227.664 187.476L230.355 158.925C230.457 157.845 231.531 157.136 232.565 157.467L270.702 169.665C272.112 170.118 273.018 171.486 272.881 172.959Z" fill="url(#paint29_linear_585_5273)"/>
<path d="M271.954 173.406L269.254 202.463L226.736 187.924L229.427 159.374C229.529 158.294 230.603 157.585 231.637 157.916L269.774 170.114C271.185 170.565 272.091 171.935 271.954 173.406Z" fill="url(#paint30_linear_585_5273)"/>
<path d="M269.727 173.201C269.768 172.768 269.506 172.374 269.092 172.241L231.592 160.246L229.127 186.381L267.291 199.432L269.727 173.201Z" fill="#E527BB"/>
<path d="M226.736 188.78L210.169 202.67C209.201 203.48 209.49 205.036 210.686 205.445L249.579 218.786C250.144 218.98 250.769 218.863 251.226 218.48L269.254 203.363V202.461L226.736 188.78Z" fill="url(#paint31_linear_585_5273)"/>
<path d="M226.736 187.878L210.169 201.769C209.201 202.579 209.49 204.135 210.686 204.544L249.579 217.885C250.144 218.078 250.769 217.962 251.226 217.578L269.254 202.461L226.736 187.878Z" fill="url(#paint32_linear_585_5273)"/>
<path d="M259.212 201.24L258.175 202.11C258.098 202.175 258.121 202.3 258.217 202.334L261.347 203.407C261.392 203.423 261.443 203.414 261.48 203.383L262.659 202.395C262.778 202.295 262.743 202.102 262.595 202.051L259.875 201.118C259.647 201.04 259.396 201.087 259.212 201.24Z" fill="url(#paint33_linear_585_5273)"/>
<path d="M255.142 199.861L254.106 200.731C254.029 200.796 254.052 200.92 254.148 200.954L257.277 202.028C257.324 202.042 257.374 202.034 257.41 202.003L258.589 201.015C258.709 200.915 258.673 200.723 258.525 200.671L255.806 199.739C255.576 199.66 255.325 199.706 255.142 199.861Z" fill="url(#paint34_linear_585_5273)"/>
<path d="M251.072 198.481L250.036 199.351C249.959 199.416 249.982 199.541 250.078 199.575L253.208 200.648C253.252 200.663 253.304 200.655 253.341 200.624L254.519 199.636C254.639 199.536 254.603 199.343 254.456 199.292L251.736 198.359C251.507 198.281 251.256 198.327 251.072 198.481Z" fill="url(#paint35_linear_585_5273)"/>
<path d="M247.003 197.102L245.966 197.972C245.889 198.037 245.912 198.162 246.008 198.196L249.138 199.269C249.184 199.284 249.234 199.276 249.271 199.244L250.45 198.257C250.569 198.156 250.534 197.964 250.386 197.912L247.666 196.98C247.437 196.901 247.186 196.948 247.003 197.102Z" fill="url(#paint36_linear_585_5273)"/>
<path d="M242.932 195.721L241.896 196.591C241.819 196.656 241.842 196.781 241.938 196.815L245.067 197.888C245.112 197.904 245.164 197.895 245.2 197.864L246.379 196.876C246.499 196.776 246.463 196.583 246.315 196.532L243.596 195.599C243.368 195.521 243.117 195.568 242.932 195.721Z" fill="url(#paint37_linear_585_5273)"/>
<path d="M238.863 194.342L237.826 195.212C237.749 195.277 237.772 195.402 237.868 195.436L240.998 196.509C241.042 196.525 241.094 196.516 241.131 196.484L242.309 195.497C242.429 195.396 242.393 195.204 242.246 195.152L239.526 194.22C239.297 194.141 239.046 194.188 238.863 194.342Z" fill="url(#paint38_linear_585_5273)"/>
<path d="M234.793 192.962L233.757 193.832C233.679 193.897 233.703 194.022 233.799 194.056L236.928 195.129C236.973 195.145 237.025 195.136 237.061 195.105L238.24 194.117C238.359 194.017 238.324 193.824 238.176 193.773L235.457 192.84C235.227 192.762 234.976 192.808 234.793 192.962Z" fill="url(#paint39_linear_585_5273)"/>
<path d="M230.724 191.582L229.687 192.452C229.61 192.517 229.633 192.641 229.73 192.675L232.859 193.748C232.904 193.763 232.955 193.755 232.992 193.724L234.171 192.736C234.29 192.636 234.255 192.443 234.107 192.392L231.387 191.46C231.158 191.382 230.907 191.428 230.724 191.582Z" fill="url(#paint40_linear_585_5273)"/>
<path d="M226.653 190.202L225.616 191.072C225.539 191.137 225.562 191.262 225.658 191.296L228.788 192.369C228.832 192.384 228.884 192.376 228.921 192.345L230.099 191.357C230.219 191.257 230.184 191.064 230.036 191.013L227.316 190.08C227.088 190.002 226.837 190.049 226.653 190.202Z" fill="url(#paint41_linear_585_5273)"/>
<path d="M257.443 202.834L256.406 203.704C256.329 203.769 256.352 203.894 256.448 203.927L259.578 205.001C259.623 205.017 259.674 205.007 259.711 204.976L260.889 203.988C261.009 203.888 260.974 203.696 260.826 203.644L258.106 202.712C257.877 202.633 257.626 202.679 257.443 202.834Z" fill="url(#paint42_linear_585_5273)"/>
<path d="M253.372 201.455L252.335 202.325C252.258 202.39 252.281 202.514 252.377 202.548L255.507 203.621C255.553 203.636 255.603 203.628 255.64 203.597L256.819 202.609C256.938 202.509 256.903 202.316 256.755 202.265L254.035 201.333C253.807 201.254 253.556 201.3 253.372 201.455Z" fill="url(#paint43_linear_585_5273)"/>
<path d="M249.302 200.074L248.266 200.944C248.188 201.009 248.211 201.133 248.308 201.167L251.437 202.24C251.483 202.255 251.533 202.247 251.57 202.216L252.749 201.228C252.868 201.128 252.833 200.935 252.685 200.884L249.965 199.952C249.736 199.873 249.485 199.921 249.302 200.074Z" fill="url(#paint44_linear_585_5273)"/>
<path d="M245.233 198.694L244.196 199.564C244.119 199.629 244.142 199.754 244.238 199.788L247.368 200.861C247.413 200.877 247.464 200.868 247.501 200.837L248.68 199.849C248.799 199.749 248.764 199.556 248.616 199.505L245.896 198.572C245.667 198.494 245.416 198.541 245.233 198.694Z" fill="url(#paint45_linear_585_5273)"/>
<path d="M241.163 197.315L240.127 198.185C240.05 198.25 240.073 198.375 240.169 198.408L243.298 199.482C243.343 199.498 243.395 199.488 243.431 199.457L244.61 198.469C244.73 198.369 244.694 198.177 244.546 198.125L241.827 197.193C241.597 197.114 241.346 197.16 241.163 197.315Z" fill="url(#paint46_linear_585_5273)"/>
<path d="M237.092 195.935L236.056 196.805C235.978 196.87 236.001 196.995 236.098 197.029L239.227 198.102C239.272 198.118 239.323 198.109 239.36 198.078L240.539 197.09C240.658 196.99 240.623 196.797 240.475 196.746L237.755 195.813C237.527 195.735 237.276 195.781 237.092 195.935Z" fill="url(#paint47_linear_585_5273)"/>
<path d="M233.023 194.555L231.986 195.425C231.909 195.49 231.932 195.614 232.028 195.648L235.158 196.721C235.204 196.736 235.254 196.728 235.291 196.697L236.47 195.709C236.589 195.609 236.554 195.416 236.406 195.365L233.686 194.433C233.457 194.354 233.206 194.402 233.023 194.555Z" fill="url(#paint48_linear_585_5273)"/>
<path d="M228.953 193.175L227.917 194.045C227.84 194.11 227.863 194.235 227.959 194.269L231.088 195.342C231.135 195.357 231.185 195.349 231.221 195.317L232.4 194.33C232.52 194.229 232.484 194.037 232.336 193.985L229.617 193.053C229.387 192.974 229.136 193.021 228.953 193.175Z" fill="url(#paint49_linear_585_5273)"/>
<path d="M224.884 191.796L223.847 192.666C223.77 192.731 223.793 192.855 223.889 192.889L227.019 193.962C227.063 193.979 227.115 193.969 227.152 193.938L228.33 192.95C228.45 192.85 228.414 192.657 228.267 192.606L225.547 191.674C225.318 191.595 225.067 191.641 224.884 191.796Z" fill="url(#paint50_linear_585_5273)"/>
<path d="M255.673 204.428L254.636 205.298C254.559 205.363 254.582 205.487 254.678 205.521L257.808 206.594C257.854 206.609 257.904 206.601 257.941 206.57L259.119 205.582C259.239 205.482 259.204 205.29 259.056 205.238L256.336 204.306C256.107 204.227 255.856 204.273 255.673 204.428Z" fill="url(#paint51_linear_585_5273)"/>
<path d="M251.603 203.047L250.567 203.917C250.49 203.982 250.513 204.106 250.609 204.14L253.738 205.214C253.785 205.228 253.835 205.22 253.871 205.189L255.05 204.201C255.17 204.101 255.134 203.909 254.986 203.857L252.267 202.925C252.037 202.846 251.786 202.894 251.603 203.047Z" fill="url(#paint52_linear_585_5273)"/>
<path d="M247.532 201.667L246.496 202.537C246.418 202.602 246.441 202.727 246.538 202.761L249.667 203.834C249.712 203.85 249.763 203.841 249.8 203.81L250.979 202.822C251.098 202.721 251.063 202.529 250.915 202.478L248.195 201.545C247.967 201.467 247.716 201.513 247.532 201.667Z" fill="url(#paint53_linear_585_5273)"/>
<path d="M243.463 200.288L242.426 201.158C242.349 201.223 242.372 201.347 242.468 201.381L245.598 202.455C245.643 202.471 245.694 202.461 245.731 202.43L246.909 201.442C247.029 201.342 246.994 201.15 246.846 201.098L244.126 200.166C243.897 200.087 243.646 200.133 243.463 200.288Z" fill="url(#paint54_linear_585_5273)"/>
<path d="M239.393 198.907L238.357 199.777C238.28 199.842 238.303 199.967 238.399 200.001L241.528 201.074C241.575 201.089 241.625 201.081 241.661 201.049L242.84 200.062C242.96 199.961 242.924 199.769 242.776 199.717L240.057 198.785C239.827 198.707 239.576 198.754 239.393 198.907Z" fill="url(#paint55_linear_585_5273)"/>
<path d="M235.323 197.528L234.287 198.397C234.21 198.463 234.233 198.587 234.329 198.621L237.459 199.694C237.505 199.709 237.555 199.701 237.592 199.67L238.77 198.682C238.89 198.582 238.854 198.389 238.707 198.338L235.987 197.406C235.758 197.327 235.507 197.374 235.323 197.528Z" fill="url(#paint56_linear_585_5273)"/>
<path d="M231.253 196.148L230.216 197.018C230.139 197.083 230.162 197.208 230.258 197.242L233.388 198.315C233.434 198.33 233.484 198.322 233.521 198.291L234.7 197.303C234.819 197.203 234.784 197.01 234.636 196.959L231.916 196.026C231.688 195.948 231.437 195.994 231.253 196.148Z" fill="url(#paint57_linear_585_5273)"/>
<path d="M227.183 194.769L226.146 195.639C226.069 195.704 226.092 195.828 226.189 195.862L229.318 196.935C229.364 196.95 229.414 196.942 229.451 196.911L230.63 195.923C230.749 195.823 230.714 195.631 230.566 195.579L227.846 194.647C227.617 194.568 227.366 194.614 227.183 194.769Z" fill="url(#paint58_linear_585_5273)"/>
<path d="M223.113 193.388L222.077 194.258C222 194.323 222.023 194.448 222.119 194.482L225.249 195.555C225.293 195.571 225.345 195.562 225.382 195.53L226.56 194.543C226.68 194.442 226.644 194.25 226.497 194.198L223.777 193.266C223.548 193.188 223.297 193.235 223.113 193.388Z" fill="url(#paint59_linear_585_5273)"/>
<path d="M253.902 206.02L252.866 206.89C252.788 206.955 252.811 207.079 252.908 207.113L256.037 208.186C256.082 208.201 256.134 208.193 256.17 208.162L257.349 207.174C257.468 207.074 257.433 206.882 257.285 206.83L254.565 205.898C254.336 205.819 254.085 205.865 253.902 206.02Z" fill="url(#paint60_linear_585_5273)"/>
<path d="M249.833 204.64L248.796 205.51C248.719 205.575 248.742 205.7 248.838 205.734L251.968 206.807C252.013 206.822 252.064 206.814 252.101 206.783L253.28 205.795C253.399 205.695 253.364 205.502 253.216 205.451L250.496 204.518C250.267 204.44 250.016 204.486 249.833 204.64Z" fill="url(#paint61_linear_585_5273)"/>
<path d="M245.763 203.261L244.727 204.131C244.649 204.196 244.672 204.321 244.769 204.354L247.898 205.428C247.943 205.444 247.994 205.434 248.031 205.403L249.21 204.415C249.329 204.315 249.294 204.123 249.146 204.071L246.426 203.139C246.197 203.06 245.946 203.106 245.763 203.261Z" fill="url(#paint62_linear_585_5273)"/>
<path d="M241.692 201.88L240.656 202.75C240.578 202.815 240.601 202.94 240.698 202.974L243.827 204.047C243.872 204.062 243.924 204.054 243.96 204.022L245.139 203.035C245.258 202.934 245.223 202.742 245.075 202.69L242.355 201.758C242.128 201.68 241.877 201.727 241.692 201.88Z" fill="url(#paint63_linear_585_5273)"/>
<path d="M237.623 200.501L236.586 201.371C236.509 201.436 236.532 201.56 236.628 201.594L239.758 202.667C239.804 202.684 239.854 202.674 239.891 202.643L241.07 201.655C241.189 201.555 241.154 201.363 241.006 201.311L238.286 200.379C238.057 200.3 237.806 200.346 237.623 200.501Z" fill="url(#paint64_linear_585_5273)"/>
<path d="M233.553 199.121L232.517 199.991C232.439 200.056 232.462 200.181 232.559 200.215L235.688 201.288C235.734 201.303 235.784 201.295 235.821 201.263L237 200.276C237.119 200.175 237.084 199.983 236.936 199.931L234.216 198.999C233.987 198.921 233.736 198.967 233.553 199.121Z" fill="url(#paint65_linear_585_5273)"/>
<path d="M229.484 197.74L228.447 198.61C228.37 198.675 228.393 198.8 228.489 198.834L231.619 199.907C231.665 199.923 231.715 199.914 231.752 199.883L232.93 198.895C233.05 198.795 233.015 198.602 232.867 198.551L230.147 197.618C229.918 197.54 229.667 197.587 229.484 197.74Z" fill="url(#paint66_linear_585_5273)"/>
<path d="M225.413 196.361L224.376 197.231C224.299 197.296 224.322 197.421 224.418 197.455L227.548 198.528C227.594 198.544 227.644 198.535 227.681 198.503L228.86 197.516C228.979 197.415 228.944 197.223 228.796 197.171L226.076 196.239C225.848 196.16 225.597 196.208 225.413 196.361Z" fill="url(#paint67_linear_585_5273)"/>
<path d="M221.343 194.981L220.307 195.851C220.229 195.916 220.252 196.041 220.349 196.075L223.478 197.148C223.524 197.163 223.574 197.155 223.611 197.124L224.79 196.136C224.909 196.036 224.874 195.843 224.726 195.792L222.006 194.859C221.777 194.781 221.526 194.827 221.343 194.981Z" fill="url(#paint68_linear_585_5273)"/>
<path d="M252.132 207.613L251.096 208.483C251.018 208.548 251.041 208.673 251.138 208.707L254.267 209.78C254.312 209.795 254.363 209.787 254.4 209.756L255.579 208.768C255.698 208.667 255.663 208.475 255.515 208.424L252.795 207.491C252.567 207.413 252.317 207.459 252.132 207.613Z" fill="url(#paint69_linear_585_5273)"/>
<path d="M248.063 206.232L247.026 207.102C246.949 207.167 246.972 207.292 247.068 207.326L250.198 208.399C250.244 208.414 250.294 208.406 250.331 208.375L251.51 207.387C251.629 207.287 251.594 207.094 251.446 207.043L248.726 206.11C248.497 206.032 248.246 206.079 248.063 206.232Z" fill="url(#paint70_linear_585_5273)"/>
<path d="M243.993 204.853L242.957 205.723C242.879 205.788 242.902 205.913 242.999 205.946L246.128 207.02C246.173 207.035 246.224 207.026 246.261 206.995L247.44 206.007C247.559 205.907 247.524 205.715 247.376 205.663L244.656 204.731C244.427 204.652 244.176 204.7 243.993 204.853Z" fill="url(#paint71_linear_585_5273)"/>
<path d="M239.923 203.474L238.887 204.344C238.809 204.409 238.832 204.533 238.929 204.567L242.058 205.64C242.103 205.655 242.155 205.647 242.191 205.616L243.37 204.628C243.489 204.528 243.454 204.335 243.306 204.284L240.586 203.352C240.357 203.273 240.106 203.319 239.923 203.474Z" fill="url(#paint72_linear_585_5273)"/>
<path d="M235.853 202.094L234.816 202.964C234.739 203.029 234.762 203.154 234.858 203.188L237.988 204.261C238.033 204.277 238.084 204.268 238.121 204.237L239.3 203.249C239.419 203.148 239.384 202.956 239.236 202.905L236.516 201.972C236.288 201.894 236.037 201.94 235.853 202.094Z" fill="url(#paint73_linear_585_5273)"/>
<path d="M231.783 200.713L230.747 201.583C230.669 201.648 230.692 201.773 230.789 201.807L233.918 202.88C233.964 202.896 234.014 202.887 234.051 202.856L235.23 201.868C235.349 201.768 235.314 201.575 235.166 201.524L232.446 200.591C232.217 200.513 231.966 200.56 231.783 200.713Z" fill="url(#paint74_linear_585_5273)"/>
<path d="M227.714 199.334L226.677 200.204C226.6 200.269 226.623 200.394 226.719 200.427L229.849 201.501C229.895 201.516 229.945 201.507 229.982 201.476L231.16 200.488C231.28 200.388 231.245 200.196 231.097 200.144L228.377 199.212C228.148 199.133 227.897 199.179 227.714 199.334Z" fill="url(#paint75_linear_585_5273)"/>
<path d="M223.644 197.955L222.608 198.825C222.531 198.89 222.554 199.014 222.65 199.048L225.779 200.121C225.826 200.136 225.876 200.128 225.912 200.097L227.091 199.109C227.211 199.009 227.175 198.816 227.027 198.765L224.308 197.833C224.078 197.754 223.827 197.8 223.644 197.955Z" fill="url(#paint76_linear_585_5273)"/>
<path d="M219.573 196.574L218.537 197.443C218.459 197.509 218.482 197.633 218.579 197.667L221.708 198.74C221.754 198.755 221.804 198.747 221.841 198.716L223.02 197.728C223.139 197.628 223.104 197.435 222.956 197.384L220.236 196.452C220.008 196.374 219.757 196.42 219.573 196.574Z" fill="url(#paint77_linear_585_5273)"/>
<path d="M225.817 299.609C225.817 299.609 225.956 304.562 223.72 305.307C221.484 306.051 215.006 303.457 215.164 302.459C215.323 301.46 215.896 297.118 215.896 297.118L225.817 299.609Z" fill="#FFB782"/>
<path d="M215.323 301.459C215.323 301.459 217.871 304.643 222.224 303.957C226.578 303.272 225.249 300.587 225.817 299.608C226.386 298.629 227.737 300.047 230.733 300.139C233.731 300.231 234.008 301.186 236.558 302.039C239.11 302.892 240.518 304.083 236.2 305.35C231.882 306.617 223.631 310.233 220.979 309.598C218.327 308.966 214.267 305.869 214.267 305.869C214.267 305.869 213.051 301.078 215.323 301.459Z" fill="#A78BEF"/>
<path d="M230.652 261.683L226.279 299.041C226.279 299.041 223.747 302.777 219.697 300.998C215.646 299.217 215.166 298.483 215.166 298.483L215.922 258.893L230.652 261.683Z" fill="#19222B"/>
<path d="M232.927 268.65L219.537 264.833L193.507 273.164L199.163 280.186L232.927 268.65Z" fill="url(#paint78_linear_585_5273)"/>
<path d="M250.141 309.737C250.141 309.737 251.809 312.78 251.736 313.469C251.664 314.157 244.556 317.707 242.669 317.635C240.783 317.564 239.695 316.549 239.332 316.042C238.97 315.535 238.97 309.738 238.97 309.738H250.141V309.737Z" fill="#FFB782"/>
<path d="M198.764 155.726C198.764 155.726 199.297 159.723 198.152 161.426C197.008 163.13 197.218 165.391 197.202 166.577C197.185 167.761 198.162 168.058 196.335 172.764C194.508 177.469 194.623 179.98 193.101 179.817C191.579 179.655 188.798 178.684 188.631 179.339C188.464 179.993 188.478 180.764 188.478 180.764C188.478 180.764 176.359 179.851 176.006 178.66C175.653 177.469 176.34 171.966 176.275 168.984C176.21 166.001 179.325 152.205 185.654 152.403C191.98 152.597 198.764 155.726 198.764 155.726Z" fill="#FFB782"/>
<path d="M202.218 154.109C201.316 156.414 197.765 156.202 196.961 158.875C196.156 161.547 195.717 165.638 195.188 165.753C194.657 165.868 195.06 161.31 193.312 161.527C191.562 161.745 192.537 173.572 190.202 175.218C187.868 176.865 177.131 175.974 175.636 174.435C174.141 172.896 166.655 165.457 168.694 158.52C170.732 151.584 174.364 149.903 174.364 149.903C174.364 149.903 174.985 144.108 181.077 143.64C187.168 143.171 195.562 148.512 199.554 148.743C203.546 148.976 202.652 153.001 202.218 154.109Z" fill="url(#paint79_linear_585_5273)"/>
<path d="M167.949 254.865C167.949 254.865 165.219 265.787 169.784 267.75C174.349 269.714 182.747 268.802 186.763 270.261C190.78 271.721 198.813 274.274 205.752 272.085C212.69 269.897 232.745 264.765 232.745 264.765L237.52 311.296C237.52 311.296 240.786 314.761 245.635 312.937C250.483 311.113 250.856 309.654 250.856 309.654C250.856 309.654 250.057 240.531 242.51 239.802C234.964 239.073 231.842 240.418 231.842 240.418C231.842 240.418 232.772 232.329 221.27 235.245C209.768 238.161 185.526 243.599 185.526 243.599L167.949 254.865Z" fill="url(#paint80_linear_585_5273)"/>
<path d="M188.292 179.878C188.292 179.878 188.471 181.201 190.578 181.732C192.684 182.265 204.79 184.206 206.655 186.992C208.519 189.778 217.697 219.022 219.671 219.233C221.644 219.444 240.458 210.065 240.458 210.065C240.458 210.065 243.41 210.471 244.679 212.601C245.949 214.732 245.667 217.362 245.667 217.362C245.667 217.362 223.538 232.823 216.572 231.059C209.605 229.294 205.14 222.831 205.14 222.831L204.863 242.566C204.847 243.749 204.476 244.9 203.785 245.861C201.285 249.329 194.282 257.127 182.148 256.605C166.577 255.936 162.597 245.539 162.597 245.539L161.912 220.905C161.912 220.905 157.551 221.226 157.239 216.373C156.928 211.519 158.411 183.731 162.232 182.237C166.053 180.744 171.862 181.658 174.119 179.972C176.375 178.286 176.375 178.286 176.375 178.286L188.292 179.878Z" fill="#A78BEF"/>
<path d="M238.463 316.257C238.463 316.257 244.121 317.634 246.876 315.605C249.632 313.577 250.213 311.693 251.518 312.2C252.823 312.707 259.714 310.678 261.092 310.678C262.47 310.678 267.838 314.301 266.894 315.75C265.951 317.199 246.802 326.039 244.119 325.604C241.436 325.169 237.447 323.503 237.228 322.706C237.012 321.909 237.102 316.005 238.463 316.257Z" fill="#A78BEF"/>
<path d="M199.52 282.985L232.171 271.527L232.745 268.65L198.981 280.186L199.52 282.985Z" fill="url(#paint81_linear_585_5273)"/>
<path d="M202.431 280.046L191.063 231.17C190.403 228.329 188.044 226.201 185.149 225.831L150.113 221.358C147.698 221.05 143.15 225.094 143.699 227.461L156.75 270.68C157.259 272.87 159.08 274.512 161.311 274.797L199.183 281.539L202.431 280.046Z" fill="url(#paint82_linear_585_5273)"/>
<path d="M199.52 282.985L188.153 234.109C187.492 231.269 185.133 229.14 182.238 228.77L147.202 224.297C144.788 223.989 142.807 226.179 143.358 228.548L153.84 273.619C154.348 275.809 156.169 277.451 158.4 277.736L199.52 282.985Z" fill="#E527BB"/>
<path d="M242.421 210.677C242.421 210.677 242.049 208.85 243.798 207.605C245.548 206.36 246.433 205.628 246.433 205.628C246.433 205.628 247.75 206.315 246.741 207.356C245.732 208.397 244.765 209.888 245.854 209.52C246.943 209.153 247.965 206.314 250.347 206.047C252.729 205.78 258.322 206.256 257.779 208.295C257.237 210.334 252.94 208.972 251.964 211.296C250.987 213.62 250.539 214.783 249.458 215.07C248.377 215.357 245.756 216.53 245.756 216.53C245.756 216.53 245.062 211.678 242.421 210.677Z" fill="#FFB782"/>
<path d="M201.112 282.182L197.935 329H196.862L198.988 281.911L201.112 282.182Z" fill="url(#paint83_linear_585_5273)"/>
<path d="M158.635 276.089L155.456 322.906H154.385L156.509 275.818L158.635 276.089Z" fill="url(#paint84_linear_585_5273)"/>
<path opacity="0.2" d="M205.14 222.831C205.14 222.831 199.39 212.097 198.314 204.757C197.238 197.417 197.903 196.173 197.903 196.173C197.903 196.173 195.492 202.733 197.895 211.406C200.298 220.08 200.792 232.128 200.981 235.75C201.169 239.372 201.153 248.974 201.153 248.974C201.153 248.974 204.664 246.575 204.778 243.475C204.894 240.376 205.14 222.831 205.14 222.831Z" fill="#08131E"/>
<path opacity="0.2" d="M161.912 220.905L161.885 196.693L159.993 214.326L161.912 220.905Z" fill="#08131E"/>
<path opacity="0.3" d="M231.843 240.418L204.239 248.973L230.701 236.525C230.699 236.525 232.475 238.941 231.843 240.418Z" fill="#08131E"/>
<path d="M379.638 117.891C379.638 117.891 379.471 122.253 384.386 124.623C389.301 126.993 390.477 128.42 390.477 128.42C390.477 128.42 391.828 138.296 387.632 140.068C383.436 141.841 378.961 136.775 378.961 136.775C378.961 136.775 377.355 145.513 374.127 149.57C370.898 153.628 369.056 156.921 371.193 162.397C373.33 167.871 375.23 188.717 375.23 188.717C375.23 188.717 385.949 176.344 391.356 168.238C396.761 160.131 400.031 156.596 404.032 159.038C408.034 161.479 407.443 169.005 407.443 169.005C407.443 169.005 409.808 158.979 405.723 153.788C401.637 148.597 400.826 141.407 405.967 136.189C411.927 130.14 408.905 118.771 402.4 114.815C392.608 108.861 383.066 111.569 379.638 117.891Z" fill="#DAA7EE"/>
<path d="M380.721 121.446C380.721 121.446 378.095 126.485 378.119 127.719C378.144 128.954 378.521 132.833 378.674 134.785C378.827 136.736 378.441 139.353 379.63 139.914C380.82 140.475 385.457 141.763 388.672 139.901C391.885 138.039 391.249 129.715 390.811 128.411C390.37 127.107 383.383 124.272 380.721 121.446Z" fill="#FFB782"/>
<path opacity="0.6" d="M289.005 219.532C289.005 219.532 281.266 222.858 281.012 222.478C280.759 222.097 273.782 219.532 273.782 219.532C273.782 219.532 280.125 225.519 281.394 228.434C282.662 231.348 285.063 237.319 285.063 237.319L289.005 239.838L283.804 223.633L289.005 219.532Z" fill="#08131E"/>
<path opacity="0.3" d="M329.056 126.115C328.445 126.202 326.738 129.152 326.08 133.801C325.422 138.45 324.385 151.131 324.731 152.682C325.077 154.235 327.435 157.833 327.435 157.833C327.435 157.833 324.038 154.304 320.802 152.329C317.564 150.353 312.037 147.194 312.037 147.194L322.745 151.562C322.745 151.562 323.951 135.441 325.075 131.123C326.198 126.806 329.056 126.115 329.056 126.115Z" fill="#08131E"/>
<path opacity="0.3" d="M329.684 166.405L310.906 157.93C310.906 157.93 327.345 166.622 328.052 168.776C328.759 170.931 329.683 183.283 329.683 183.283L331.945 183.243L329.684 166.405Z" fill="#08131E"/>
<path opacity="0.3" d="M285.981 130.488L285.779 159.868L282.766 160.458L284.374 146.234L285.981 130.488Z" fill="#08131E"/>
<path d="M344.354 186.746L302.136 187.41L316.53 205.119H362.228L344.354 186.746Z" fill="white"/>
<path d="M398.574 160.411C402.203 159.27 405.338 164.589 402.882 174.298C400.426 184.007 393.935 203.46 391.303 204.511C388.672 205.563 354.117 202.102 354.117 202.102C354.117 202.102 356.917 200.146 357.618 197.86C358.32 195.574 357.618 194.09 357.618 194.09C357.618 194.09 382.531 197.792 384.11 195.456C385.689 193.12 390.999 162.794 398.574 160.411Z" fill="#DAA7EE"/>
<path d="M358.599 196.426C358.599 196.426 354.04 192.066 349.772 191.83C345.506 191.594 344.546 191.83 344.546 191.83C344.546 191.83 344.759 193.151 348.066 193.331C351.372 193.511 352.119 193.467 347.639 194.075C343.159 194.684 338.999 194.013 341.346 196.426C343.692 198.84 346.892 199.052 350.731 199.692C354.572 200.331 357.045 200.669 357.045 200.669C357.045 200.669 359.319 199.128 358.599 196.426Z" fill="#FFB782"/>
<path d="M374.119 219.532L375.463 284.909H374.119L371.221 219.532H374.119Z" fill="url(#paint85_linear_585_5273)"/>
<path opacity="0.4" d="M274.407 201.723C274.407 201.723 285.272 213.44 304.168 212.082C323.064 210.725 293.294 196.755 293.294 196.755L274.407 201.723Z" fill="url(#paint86_linear_585_5273)"/>
<path d="M298.188 200.276C298.182 200.22 298.171 200.165 298.16 200.109H298.188V198.747H297.539C295.816 196.446 290.942 194.763 285.386 194.763C279.829 194.763 275.334 196.446 274.127 198.747H273.804V199.993V200.109H273.81C273.813 200.165 273.813 200.22 273.82 200.276C274.162 203.321 279.893 205.788 286.623 205.788C293.351 205.788 298.53 203.321 298.188 200.276Z" fill="url(#paint87_linear_585_5273)"/>
<path d="M298.189 198.747C298.53 201.792 293.351 204.26 286.623 204.26C279.893 204.26 274.162 201.792 273.82 198.747C273.478 195.702 278.658 193.235 285.386 193.235C292.115 193.234 297.848 195.702 298.189 198.747Z" fill="url(#paint88_linear_585_5273)"/>
<path d="M294.803 198.747C295.049 200.946 291.31 202.728 286.451 202.728C281.591 202.728 277.453 200.946 277.206 198.747C276.959 196.548 280.699 194.766 285.558 194.766C290.417 194.766 294.557 196.548 294.803 198.747Z" fill="url(#paint89_linear_585_5273)"/>
<path opacity="0.53" d="M298.189 198.747C298.102 197.979 297.672 197.246 296.968 196.582C297.584 197.208 297.963 197.889 298.043 198.602C298.385 201.647 293.206 204.115 286.478 204.115C281.448 204.115 276.977 202.735 274.896 200.768C276.908 202.812 281.471 204.26 286.623 204.26C293.351 204.26 298.53 201.792 298.189 198.747Z" fill="white"/>
<path d="M297.029 197.662C297.023 197.612 297.012 197.561 297.003 197.51H297.029V196.278H296.441C294.883 194.197 290.473 192.674 285.445 192.674C280.418 192.674 276.35 194.197 275.258 196.278H274.966V197.404V197.51H274.972C274.974 197.56 274.974 197.61 274.98 197.662C275.289 200.417 280.475 202.65 286.563 202.65C292.651 202.65 297.338 200.417 297.029 197.662Z" fill="url(#paint90_linear_585_5273)"/>
<path d="M297.029 196.278C297.338 199.033 292.652 201.266 286.563 201.266C280.474 201.266 275.288 199.033 274.98 196.278C274.671 193.524 279.356 191.291 285.445 191.291C291.533 191.291 296.721 193.524 297.029 196.278Z" fill="url(#paint91_linear_585_5273)"/>
<path opacity="0.53" d="M286.563 201.11C280.475 201.11 275.288 198.877 274.98 196.122C274.973 196.063 274.972 196.003 274.97 195.944C274.966 196.055 274.968 196.166 274.98 196.278C275.289 199.033 280.475 201.266 286.563 201.266C292.519 201.266 297.129 199.129 297.038 196.457C296.948 199.055 292.403 201.11 286.563 201.11Z" fill="white"/>
<path d="M327.997 185.364C327.963 185.364 327.93 185.369 327.898 185.372V185.364H296.833V190.459H327.898V190.45C327.93 190.454 327.963 190.459 327.997 190.459C328.847 190.459 329.536 189.318 329.536 187.911C329.538 186.503 328.847 185.364 327.997 185.364Z" fill="url(#paint92_linear_585_5273)"/>
<path d="M298.434 195.663C298.43 195.629 298.423 195.597 298.418 195.563H298.434V193.368H298.046C297.018 191.995 294.11 190.99 290.794 190.99C287.479 190.99 284.796 191.994 284.075 193.368H283.883V195.494V195.563H283.887C283.888 195.597 283.888 195.629 283.892 195.663C284.096 197.48 287.517 198.953 291.532 198.953C295.547 198.953 298.638 197.48 298.434 195.663Z" fill="url(#paint93_linear_585_5273)"/>
<path d="M298.434 193.368C298.638 195.185 295.547 196.658 291.532 196.658C287.517 196.658 284.096 195.185 283.892 193.368C283.689 191.551 286.779 190.078 290.794 190.078C294.809 190.078 298.231 191.551 298.434 193.368Z" fill="url(#paint94_linear_585_5273)"/>
<path opacity="0.53" d="M291.532 196.555C287.517 196.555 284.096 195.082 283.892 193.265C283.888 193.225 283.887 193.186 283.886 193.147C283.883 193.22 283.884 193.293 283.892 193.368C284.096 195.185 287.517 196.658 291.532 196.658C295.461 196.658 298.501 195.248 298.441 193.485C298.381 195.2 295.383 196.555 291.532 196.555Z" fill="white"/>
<path d="M291.471 196.004C288.131 196.004 285.287 194.78 285.117 193.268C285.114 193.239 285.113 193.212 285.113 193.186H285.11V181.494H285.117C285.288 183.003 288.131 184.229 291.471 184.229C294.603 184.229 297.057 183.151 297.209 181.771V193.186H297.195C297.202 193.212 297.208 193.241 297.209 193.268C297.379 194.78 294.808 196.004 291.471 196.004Z" fill="url(#paint95_linear_585_5273)"/>
<path d="M291.471 187.91C294.603 187.91 297.057 186.831 297.209 185.452V184.158C297.057 185.537 294.603 186.616 291.471 186.616C288.131 186.616 285.287 185.389 285.117 183.88H285.11V185.174H285.117C285.287 186.685 288.13 187.91 291.471 187.91Z" fill="url(#paint96_linear_585_5273)"/>
<path d="M291.471 193.764C294.603 193.764 297.057 192.685 297.209 191.305V190.011C297.057 191.391 294.603 192.469 291.471 192.469C288.131 192.469 285.287 191.245 285.117 189.734H285.11V191.028H285.117C285.287 192.539 288.13 193.764 291.471 193.764Z" fill="url(#paint97_linear_585_5273)"/>
<path d="M297.209 181.494V181.771C297.057 183.151 294.603 184.229 291.471 184.229C288.131 184.229 285.287 183.003 285.117 181.494H285.269C285.869 180.351 288.102 179.515 290.858 179.515C293.616 179.515 296.034 180.351 296.888 181.494H297.209Z" fill="url(#paint98_linear_585_5273)"/>
<path d="M297.209 181.771C297.057 183.151 294.604 184.229 291.471 184.229C288.132 184.229 285.287 183.003 285.117 181.493C284.947 179.981 287.517 178.755 290.858 178.755C294.197 178.755 297.043 179.981 297.209 181.493C297.22 181.587 297.22 181.678 297.209 181.771Z" fill="url(#paint99_linear_585_5273)"/>
<path opacity="0.53" d="M291.47 184.143C288.13 184.143 285.285 182.918 285.116 181.407C285.112 181.374 285.112 181.342 285.11 181.309C285.107 181.37 285.109 181.431 285.116 181.494C285.285 183.004 288.13 184.229 291.47 184.229C294.736 184.229 297.265 183.057 297.216 181.591C297.165 183.015 294.672 184.143 291.47 184.143Z" fill="white"/>
<path d="M298.434 182.183C298.43 182.149 298.423 182.117 298.418 182.083H298.434V179.888H298.046C297.018 178.515 294.11 177.51 290.794 177.51C287.479 177.51 284.796 178.514 284.075 179.888H283.883V182.014V182.083H283.887C283.888 182.117 283.888 182.149 283.892 182.183C284.096 184 287.517 185.473 291.532 185.473C295.547 185.473 298.638 184 298.434 182.183Z" fill="url(#paint100_linear_585_5273)"/>
<path d="M298.434 179.889C298.638 181.706 295.547 183.179 291.532 183.179C287.517 183.179 284.096 181.706 283.892 179.889C283.689 178.072 286.779 176.599 290.794 176.599C294.809 176.599 298.231 178.072 298.434 179.889Z" fill="url(#paint101_linear_585_5273)"/>
<path opacity="0.53" d="M291.532 183.075C287.517 183.075 284.096 181.602 283.892 179.785C283.888 179.745 283.887 179.706 283.886 179.667C283.883 179.74 283.884 179.813 283.892 179.888C284.096 181.705 287.517 183.178 291.532 183.178C295.461 183.178 298.501 181.768 298.441 180.006C298.381 181.72 295.383 183.075 291.532 183.075Z" fill="white"/>
<path d="M304.156 185.364C304.122 185.364 304.089 185.369 304.057 185.372V185.364H302.639C303.49 185.364 304.179 186.504 304.179 187.911C304.179 189.318 303.49 190.459 302.639 190.459H304.057V190.45C304.089 190.454 304.122 190.459 304.156 190.459C305.006 190.459 305.695 189.318 305.695 187.911C305.695 186.503 305.006 185.364 304.156 185.364Z" fill="url(#paint102_linear_585_5273)"/>
<path d="M302.542 190.457H302.641C302.607 190.457 302.574 190.452 302.542 190.449V190.457Z" fill="url(#paint103_linear_585_5273)"/>
<path d="M302.542 185.372C302.574 185.368 302.607 185.364 302.641 185.364H302.542V185.372Z" fill="url(#paint104_linear_585_5273)"/>
<path d="M314.472 185.364C314.438 185.364 314.406 185.369 314.373 185.372V185.364H312.956C313.806 185.364 314.495 186.504 314.495 187.911C314.495 189.318 313.806 190.459 312.956 190.459H314.373V190.45C314.406 190.454 314.438 190.459 314.472 190.459C315.323 190.459 316.012 189.318 316.012 187.911C316.012 186.503 315.323 185.364 314.472 185.364Z" fill="url(#paint105_linear_585_5273)"/>
<path d="M312.858 190.457H312.957C312.923 190.457 312.89 190.452 312.858 190.449V190.457Z" fill="url(#paint106_linear_585_5273)"/>
<path d="M312.858 185.372C312.89 185.368 312.923 185.364 312.957 185.364H312.858V185.372Z" fill="url(#paint107_linear_585_5273)"/>
<path opacity="0.1" d="M403.723 168.994C403.723 168.994 395.333 203.339 391.303 204.51C387.273 205.682 367.182 203.316 367.182 203.316C367.182 203.316 388.741 207.62 392.116 206.772C395.491 205.924 402.017 182.279 403.224 176.72C404.433 171.16 403.723 168.994 403.723 168.994Z" fill="#08131E"/>
<path opacity="0.1" d="M394.045 165.88C394.045 165.88 385.802 189.64 385.006 192.92C384.21 196.201 386.131 199.425 386.131 199.425C386.131 199.425 383.522 195.639 381.368 195.933C379.214 196.227 358.183 194.172 358.183 194.172C358.183 194.172 381.753 195.281 382.982 194.284C384.211 193.284 391.125 169.711 394.045 165.88Z" fill="#08131E"/>
<path opacity="0.1" d="M369.83 163.217L369.002 189.191L354.119 189.536C354.119 189.536 367.757 187.536 367.757 185.95C367.757 184.365 366.856 180.977 366.856 180.977L368.167 182.484L369.83 163.217Z" fill="#08131E"/>
</g>
<defs>
<linearGradient id="paint0_linear_585_5273" x1="269.072" y1="60.887" x2="147.481" y2="60.887" gradientUnits="userSpaceOnUse">
<stop stop-color="#D18A43"/>
<stop offset="0.2459" stop-color="#FFDF7B"/>
<stop offset="1" stop-color="#8C5231"/>
</linearGradient>
<linearGradient id="paint1_linear_585_5273" x1="211.26" y1="130.723" x2="205.294" y2="130.723" gradientUnits="userSpaceOnUse">
<stop stop-color="#D18A43"/>
<stop offset="0.2459" stop-color="#FFDF7B"/>
<stop offset="1" stop-color="#8C5231"/>
</linearGradient>
<linearGradient id="paint2_linear_585_5273" x1="214.372" y1="65.3058" x2="202.182" y2="65.3058" gradientUnits="userSpaceOnUse">
<stop stop-color="#D18A43"/>
<stop offset="0.2459" stop-color="#FFDF7B"/>
<stop offset="1" stop-color="#8C5231"/>
</linearGradient>
<linearGradient id="paint3_linear_585_5273" x1="210.706" y1="37.9828" x2="205.848" y2="37.9828" gradientUnits="userSpaceOnUse">
<stop stop-color="#D18A43"/>
<stop offset="0.2459" stop-color="#FFDF7B"/>
<stop offset="1" stop-color="#8C5231"/>
</linearGradient>
<linearGradient id="paint4_linear_585_5273" x1="145.891" y1="124.403" x2="145.891" y2="150.774" gradientUnits="userSpaceOnUse">
<stop stop-color="#D18A43"/>
<stop offset="0.2459" stop-color="#FFDF7B"/>
<stop offset="1" stop-color="#8C5231"/>
</linearGradient>
<linearGradient id="paint5_linear_585_5273" x1="145.891" y1="121.958" x2="145.891" y2="148.329" gradientUnits="userSpaceOnUse">
<stop stop-color="#D18A43"/>
<stop offset="0.2459" stop-color="#FFDF7B"/>
<stop offset="1" stop-color="#8C5231"/>
</linearGradient>
<linearGradient id="paint6_linear_585_5273" x1="145.891" y1="120.27" x2="145.891" y2="146.641" gradientUnits="userSpaceOnUse">
<stop stop-color="#EA9D55"/>
<stop offset="0.2838" stop-color="#EAC686"/>
<stop offset="1" stop-color="#FDF0DE"/>
</linearGradient>
<linearGradient id="paint7_linear_585_5273" x1="177.787" y1="97.0937" x2="114" y2="97.0937" gradientUnits="userSpaceOnUse">
<stop stop-color="#EA9D55"/>
<stop offset="0.2838" stop-color="#EAC686"/>
<stop offset="1" stop-color="#FDF0DE"/>
</linearGradient>
<linearGradient id="paint8_linear_585_5273" x1="147.907" y1="104.131" x2="147.055" y2="104.131" gradientUnits="userSpaceOnUse">
<stop stop-color="#EA9D55"/>
<stop offset="0.2838" stop-color="#EAC686"/>
<stop offset="1" stop-color="#FDF0DE"/>
</linearGradient>
<linearGradient id="paint9_linear_585_5273" x1="147.552" y1="58.6713" x2="147.552" y2="64.5051" gradientUnits="userSpaceOnUse">
<stop stop-color="#D18A43"/>
<stop offset="0.2459" stop-color="#FFDF7B"/>
<stop offset="1" stop-color="#8C5231"/>
</linearGradient>
<linearGradient id="paint10_linear_585_5273" x1="264.385" y1="124.403" x2="264.385" y2="150.774" gradientUnits="userSpaceOnUse">
<stop stop-color="#D18A43"/>
<stop offset="0.2459" stop-color="#FFDF7B"/>
<stop offset="1" stop-color="#8C5231"/>
</linearGradient>
<linearGradient id="paint11_linear_585_5273" x1="264.385" y1="121.958" x2="264.385" y2="148.329" gradientUnits="userSpaceOnUse">
<stop stop-color="#D18A43"/>
<stop offset="0.2459" stop-color="#FFDF7B"/>
<stop offset="1" stop-color="#8C5231"/>
</linearGradient>
<linearGradient id="paint12_linear_585_5273" x1="264.385" y1="120.27" x2="264.385" y2="146.641" gradientUnits="userSpaceOnUse">
<stop stop-color="#EA9D55"/>
<stop offset="0.2838" stop-color="#EAC686"/>
<stop offset="1" stop-color="#FDF0DE"/>
</linearGradient>
<linearGradient id="paint13_linear_585_5273" x1="296.281" y1="97.0937" x2="232.494" y2="97.0937" gradientUnits="userSpaceOnUse">
<stop stop-color="#EA9D55"/>
<stop offset="0.2838" stop-color="#EAC686"/>
<stop offset="1" stop-color="#FDF0DE"/>
</linearGradient>
<linearGradient id="paint14_linear_585_5273" x1="266.401" y1="104.131" x2="265.549" y2="104.131" gradientUnits="userSpaceOnUse">
<stop stop-color="#EA9D55"/>
<stop offset="0.2838" stop-color="#EAC686"/>
<stop offset="1" stop-color="#FDF0DE"/>
</linearGradient>
<linearGradient id="paint15_linear_585_5273" x1="266.046" y1="58.6713" x2="266.046" y2="64.5051" gradientUnits="userSpaceOnUse">
<stop stop-color="#D18A43"/>
<stop offset="0.2459" stop-color="#FFDF7B"/>
<stop offset="1" stop-color="#8C5231"/>
</linearGradient>
<linearGradient id="paint16_linear_585_5273" x1="365.97" y1="220.665" x2="365.97" y2="233.527" gradientUnits="userSpaceOnUse">
<stop stop-color="#2A3645"/>
<stop offset="1" stop-color="#656E74"/>
</linearGradient>
<linearGradient id="paint17_linear_585_5273" x1="426.632" y1="173.658" x2="400.617" y2="208.095" gradientUnits="userSpaceOnUse">
<stop stop-color="#2A3645"/>
<stop offset="1" stop-color="#656E74"/>
</linearGradient>
<linearGradient id="paint18_linear_585_5273" x1="404.756" y1="213.001" x2="385.196" y2="238.894" gradientUnits="userSpaceOnUse">
<stop stop-color="#2A3645"/>
<stop offset="1" stop-color="#656E74"/>
</linearGradient>
<linearGradient id="paint19_linear_585_5273" x1="428.158" y1="251.893" x2="409.463" y2="251.893" gradientUnits="userSpaceOnUse">
<stop stop-color="#2A3645"/>
<stop offset="1" stop-color="#656E74"/>
</linearGradient>
<linearGradient id="paint20_linear_585_5273" x1="378.937" y1="270.66" x2="186.597" y2="270.66" gradientUnits="userSpaceOnUse">
<stop stop-color="#0D1102"/>
<stop offset="1" stop-color="#2A3645"/>
</linearGradient>
<linearGradient id="paint21_linear_585_5273" x1="333.53" y1="181.665" x2="348.21" y2="139.032" gradientUnits="userSpaceOnUse">
<stop stop-color="#2A3645"/>
<stop offset="1" stop-color="#656E74"/>
</linearGradient>
<linearGradient id="paint22_linear_585_5273" x1="330.076" y1="183.476" x2="344.756" y2="140.842" gradientUnits="userSpaceOnUse">
<stop stop-color="#C9CED3"/>
<stop offset="1" stop-color="#ECECEA"/>
</linearGradient>
<linearGradient id="paint23_linear_585_5273" x1="276.329" y1="231.534" x2="308.956" y2="181.258" gradientUnits="userSpaceOnUse">
<stop stop-color="#2A3645"/>
<stop offset="1" stop-color="#19222B"/>
</linearGradient>
<linearGradient id="paint24_linear_585_5273" x1="317.059" y1="112.24" x2="300.624" y2="112.24" gradientUnits="userSpaceOnUse">
<stop stop-color="#C67D46"/>
<stop offset="1" stop-color="#D69F5F"/>
</linearGradient>
<linearGradient id="paint25_linear_585_5273" x1="323.024" y1="97.3404" x2="292.391" y2="97.3404" gradientUnits="userSpaceOnUse">
<stop stop-color="#2A3645"/>
<stop offset="1" stop-color="#19222B"/>
</linearGradient>
<linearGradient id="paint26_linear_585_5273" x1="309.142" y1="109.592" x2="296.074" y2="109.592" gradientUnits="userSpaceOnUse">
<stop stop-color="#2A3645"/>
<stop offset="1" stop-color="#19222B"/>
</linearGradient>
<linearGradient id="paint27_linear_585_5273" x1="378.937" y1="202.41" x2="186.597" y2="202.41" gradientUnits="userSpaceOnUse">
<stop stop-color="#D18A43"/>
<stop offset="1" stop-color="#8C5231"/>
</linearGradient>
<linearGradient id="paint28_linear_585_5273" x1="378.937" y1="200.405" x2="186.597" y2="200.405" gradientUnits="userSpaceOnUse">
<stop stop-color="#EA9D55"/>
<stop offset="0.2838" stop-color="#EAC686"/>
<stop offset="1" stop-color="#FDF0DE"/>
</linearGradient>
<linearGradient id="paint29_linear_585_5273" x1="235.716" y1="156.932" x2="261.015" y2="196.411" gradientUnits="userSpaceOnUse">
<stop stop-color="#C9CED3"/>
<stop offset="1" stop-color="#677476"/>
</linearGradient>
<linearGradient id="paint30_linear_585_5273" x1="271.968" y1="180.148" x2="226.736" y2="180.148" gradientUnits="userSpaceOnUse">
<stop stop-color="#2A3645"/>
<stop offset="1" stop-color="#19222B"/>
</linearGradient>
<linearGradient id="paint31_linear_585_5273" x1="227.582" y1="187.769" x2="246.187" y2="212.478" gradientUnits="userSpaceOnUse">
<stop stop-color="#C9CED3"/>
<stop offset="1" stop-color="#677476"/>
</linearGradient>
<linearGradient id="paint32_linear_585_5273" x1="269.255" y1="202.928" x2="209.589" y2="202.928" gradientUnits="userSpaceOnUse">
<stop stop-color="#C9CED3"/>
<stop offset="1" stop-color="#677476"/>
</linearGradient>
<linearGradient id="paint33_linear_585_5273" x1="229.795" y1="181.971" x2="261.605" y2="203.029" gradientUnits="userSpaceOnUse">
<stop stop-color="#2A3645"/>
<stop offset="1" stop-color="#19222B"/>
</linearGradient>
<linearGradient id="paint34_linear_585_5273" x1="229.193" y1="182.881" x2="261.002" y2="203.94" gradientUnits="userSpaceOnUse">
<stop stop-color="#2A3645"/>
<stop offset="1" stop-color="#19222B"/>
</linearGradient>
<linearGradient id="paint35_linear_585_5273" x1="228.59" y1="183.792" x2="260.4" y2="204.85" gradientUnits="userSpaceOnUse">
<stop stop-color="#2A3645"/>
<stop offset="1" stop-color="#19222B"/>
</linearGradient>
<linearGradient id="paint36_linear_585_5273" x1="227.987" y1="184.702" x2="259.797" y2="205.761" gradientUnits="userSpaceOnUse">
<stop stop-color="#2A3645"/>
<stop offset="1" stop-color="#19222B"/>
</linearGradient>
<linearGradient id="paint37_linear_585_5273" x1="227.384" y1="185.613" x2="259.194" y2="206.671" gradientUnits="userSpaceOnUse">
<stop stop-color="#2A3645"/>
<stop offset="1" stop-color="#19222B"/>
</linearGradient>
<linearGradient id="paint38_linear_585_5273" x1="226.781" y1="186.524" x2="258.591" y2="207.582" gradientUnits="userSpaceOnUse">
<stop stop-color="#2A3645"/>
<stop offset="1" stop-color="#19222B"/>
</linearGradient>
<linearGradient id="paint39_linear_585_5273" x1="226.179" y1="187.434" x2="257.989" y2="208.492" gradientUnits="userSpaceOnUse">
<stop stop-color="#2A3645"/>
<stop offset="1" stop-color="#19222B"/>
</linearGradient>
<linearGradient id="paint40_linear_585_5273" x1="225.576" y1="188.344" x2="257.386" y2="209.403" gradientUnits="userSpaceOnUse">
<stop stop-color="#2A3645"/>
<stop offset="1" stop-color="#19222B"/>
</linearGradient>
<linearGradient id="paint41_linear_585_5273" x1="224.973" y1="189.255" x2="256.783" y2="210.313" gradientUnits="userSpaceOnUse">
<stop stop-color="#2A3645"/>
<stop offset="1" stop-color="#19222B"/>
</linearGradient>
<linearGradient id="paint42_linear_585_5273" x1="228.523" y1="183.893" x2="260.333" y2="204.951" gradientUnits="userSpaceOnUse">
<stop stop-color="#2A3645"/>
<stop offset="1" stop-color="#19222B"/>
</linearGradient>
<linearGradient id="paint43_linear_585_5273" x1="227.92" y1="184.803" x2="259.73" y2="205.861" gradientUnits="userSpaceOnUse">
<stop stop-color="#2A3645"/>
<stop offset="1" stop-color="#19222B"/>
</linearGradient>
<linearGradient id="paint44_linear_585_5273" x1="227.317" y1="185.714" x2="259.127" y2="206.772" gradientUnits="userSpaceOnUse">
<stop stop-color="#2A3645"/>
<stop offset="1" stop-color="#19222B"/>
</linearGradient>
<linearGradient id="paint45_linear_585_5273" x1="226.715" y1="186.624" x2="258.525" y2="207.682" gradientUnits="userSpaceOnUse">
<stop stop-color="#2A3645"/>
<stop offset="1" stop-color="#19222B"/>
</linearGradient>
<linearGradient id="paint46_linear_585_5273" x1="226.112" y1="187.535" x2="257.922" y2="208.593" gradientUnits="userSpaceOnUse">
<stop stop-color="#2A3645"/>
<stop offset="1" stop-color="#19222B"/>
</linearGradient>
<linearGradient id="paint47_linear_585_5273" x1="225.509" y1="188.445" x2="257.319" y2="209.503" gradientUnits="userSpaceOnUse">
<stop stop-color="#2A3645"/>
<stop offset="1" stop-color="#19222B"/>
</linearGradient>
<linearGradient id="paint48_linear_585_5273" x1="224.906" y1="189.356" x2="256.716" y2="210.414" gradientUnits="userSpaceOnUse">
<stop stop-color="#2A3645"/>
<stop offset="1" stop-color="#19222B"/>
</linearGradient>
<linearGradient id="paint49_linear_585_5273" x1="224.304" y1="190.266" x2="256.114" y2="211.324" gradientUnits="userSpaceOnUse">
<stop stop-color="#2A3645"/>
<stop offset="1" stop-color="#19222B"/>
</linearGradient>
<linearGradient id="paint50_linear_585_5273" x1="223.701" y1="191.177" x2="255.511" y2="212.235" gradientUnits="userSpaceOnUse">
<stop stop-color="#2A3645"/>
<stop offset="1" stop-color="#19222B"/>
</linearGradient>
<linearGradient id="paint51_linear_585_5273" x1="227.251" y1="185.815" x2="259.061" y2="206.873" gradientUnits="userSpaceOnUse">
<stop stop-color="#2A3645"/>
<stop offset="1" stop-color="#19222B"/>
</linearGradient>
<linearGradient id="paint52_linear_585_5273" x1="226.648" y1="186.725" x2="258.458" y2="207.783" gradientUnits="userSpaceOnUse">
<stop stop-color="#2A3645"/>
<stop offset="1" stop-color="#19222B"/>
</linearGradient>
<linearGradient id="paint53_linear_585_5273" x1="226.045" y1="187.635" x2="257.855" y2="208.694" gradientUnits="userSpaceOnUse">
<stop stop-color="#2A3645"/>
<stop offset="1" stop-color="#19222B"/>
</linearGradient>
<linearGradient id="paint54_linear_585_5273" x1="225.443" y1="188.546" x2="257.253" y2="209.604" gradientUnits="userSpaceOnUse">
<stop stop-color="#2A3645"/>
<stop offset="1" stop-color="#19222B"/>
</linearGradient>
<linearGradient id="paint55_linear_585_5273" x1="224.84" y1="189.457" x2="256.65" y2="210.515" gradientUnits="userSpaceOnUse">
<stop stop-color="#2A3645"/>
<stop offset="1" stop-color="#19222B"/>
</linearGradient>
<linearGradient id="paint56_linear_585_5273" x1="224.237" y1="190.367" x2="256.047" y2="211.425" gradientUnits="userSpaceOnUse">
<stop stop-color="#2A3645"/>
<stop offset="1" stop-color="#19222B"/>
</linearGradient>
<linearGradient id="paint57_linear_585_5273" x1="223.634" y1="191.278" x2="255.444" y2="212.336" gradientUnits="userSpaceOnUse">
<stop stop-color="#2A3645"/>
<stop offset="1" stop-color="#19222B"/>
</linearGradient>
<linearGradient id="paint58_linear_585_5273" x1="223.031" y1="192.188" x2="254.841" y2="213.246" gradientUnits="userSpaceOnUse">
<stop stop-color="#2A3645"/>
<stop offset="1" stop-color="#19222B"/>
</linearGradient>
<linearGradient id="paint59_linear_585_5273" x1="222.429" y1="193.099" x2="254.239" y2="214.157" gradientUnits="userSpaceOnUse">
<stop stop-color="#2A3645"/>
<stop offset="1" stop-color="#19222B"/>
</linearGradient>
<linearGradient id="paint60_linear_585_5273" x1="225.979" y1="187.736" x2="257.788" y2="208.795" gradientUnits="userSpaceOnUse">
<stop stop-color="#2A3645"/>
<stop offset="1" stop-color="#19222B"/>
</linearGradient>
<linearGradient id="paint61_linear_585_5273" x1="225.376" y1="188.647" x2="257.186" y2="209.705" gradientUnits="userSpaceOnUse">
<stop stop-color="#2A3645"/>
<stop offset="1" stop-color="#19222B"/>
</linearGradient>
<linearGradient id="paint62_linear_585_5273" x1="224.773" y1="189.557" x2="256.583" y2="210.616" gradientUnits="userSpaceOnUse">
<stop stop-color="#2A3645"/>
<stop offset="1" stop-color="#19222B"/>
</linearGradient>
<linearGradient id="paint63_linear_585_5273" x1="224.17" y1="190.468" x2="255.98" y2="211.526" gradientUnits="userSpaceOnUse">
<stop stop-color="#2A3645"/>
<stop offset="1" stop-color="#19222B"/>
</linearGradient>
<linearGradient id="paint64_linear_585_5273" x1="223.568" y1="191.378" x2="255.378" y2="212.437" gradientUnits="userSpaceOnUse">
<stop stop-color="#2A3645"/>
<stop offset="1" stop-color="#19222B"/>
</linearGradient>
<linearGradient id="paint65_linear_585_5273" x1="222.965" y1="192.289" x2="254.774" y2="213.347" gradientUnits="userSpaceOnUse">
<stop stop-color="#2A3645"/>
<stop offset="1" stop-color="#19222B"/>
</linearGradient>
<linearGradient id="paint66_linear_585_5273" x1="222.362" y1="193.199" x2="254.172" y2="214.258" gradientUnits="userSpaceOnUse">
<stop stop-color="#2A3645"/>
<stop offset="1" stop-color="#19222B"/>
</linearGradient>
<linearGradient id="paint67_linear_585_5273" x1="221.759" y1="194.11" x2="253.569" y2="215.168" gradientUnits="userSpaceOnUse">
<stop stop-color="#2A3645"/>
<stop offset="1" stop-color="#19222B"/>
</linearGradient>
<linearGradient id="paint68_linear_585_5273" x1="221.156" y1="195.02" x2="252.966" y2="216.078" gradientUnits="userSpaceOnUse">
<stop stop-color="#2A3645"/>
<stop offset="1" stop-color="#19222B"/>
</linearGradient>
<linearGradient id="paint69_linear_585_5273" x1="224.707" y1="189.658" x2="256.516" y2="210.716" gradientUnits="userSpaceOnUse">
<stop stop-color="#2A3645"/>
<stop offset="1" stop-color="#19222B"/>
</linearGradient>
<linearGradient id="paint70_linear_585_5273" x1="224.104" y1="190.568" x2="255.914" y2="211.627" gradientUnits="userSpaceOnUse">
<stop stop-color="#2A3645"/>
<stop offset="1" stop-color="#19222B"/>
</linearGradient>
<linearGradient id="paint71_linear_585_5273" x1="223.501" y1="191.479" x2="255.311" y2="212.537" gradientUnits="userSpaceOnUse">
<stop stop-color="#2A3645"/>
<stop offset="1" stop-color="#19222B"/>
</linearGradient>
<linearGradient id="paint72_linear_585_5273" x1="222.898" y1="192.39" x2="254.708" y2="213.448" gradientUnits="userSpaceOnUse">
<stop stop-color="#2A3645"/>
<stop offset="1" stop-color="#19222B"/>
</linearGradient>
<linearGradient id="paint73_linear_585_5273" x1="222.296" y1="193.3" x2="254.106" y2="214.358" gradientUnits="userSpaceOnUse">
<stop stop-color="#2A3645"/>
<stop offset="1" stop-color="#19222B"/>
</linearGradient>
<linearGradient id="paint74_linear_585_5273" x1="221.693" y1="194.21" x2="253.502" y2="215.269" gradientUnits="userSpaceOnUse">
<stop stop-color="#2A3645"/>
<stop offset="1" stop-color="#19222B"/>
</linearGradient>
<linearGradient id="paint75_linear_585_5273" x1="221.09" y1="195.121" x2="252.9" y2="216.179" gradientUnits="userSpaceOnUse">
<stop stop-color="#2A3645"/>
<stop offset="1" stop-color="#19222B"/>
</linearGradient>
<linearGradient id="paint76_linear_585_5273" x1="220.488" y1="196.032" x2="252.297" y2="217.09" gradientUnits="userSpaceOnUse">
<stop stop-color="#2A3645"/>
<stop offset="1" stop-color="#19222B"/>
</linearGradient>
<linearGradient id="paint77_linear_585_5273" x1="219.884" y1="196.942" x2="251.694" y2="218" gradientUnits="userSpaceOnUse">
<stop stop-color="#2A3645"/>
<stop offset="1" stop-color="#19222B"/>
</linearGradient>
<linearGradient id="paint78_linear_585_5273" x1="212.083" y1="278.534" x2="214.003" y2="265.591" gradientUnits="userSpaceOnUse">
<stop stop-color="#C9CED3"/>
<stop offset="1" stop-color="#ECECEA"/>
</linearGradient>
<linearGradient id="paint79_linear_585_5273" x1="201.584" y1="161.87" x2="168.578" y2="158.328" gradientUnits="userSpaceOnUse">
<stop stop-color="#2A3645"/>
<stop offset="1" stop-color="#19222B"/>
</linearGradient>
<linearGradient id="paint80_linear_585_5273" x1="250.856" y1="274.039" x2="167.139" y2="274.039" gradientUnits="userSpaceOnUse">
<stop stop-color="#2A3645"/>
<stop offset="1" stop-color="#19222B"/>
</linearGradient>
<linearGradient id="paint81_linear_585_5273" x1="214.808" y1="281.513" x2="216.82" y2="267.944" gradientUnits="userSpaceOnUse">
<stop stop-color="#2A3645"/>
<stop offset="1" stop-color="#656E74"/>
</linearGradient>
<linearGradient id="paint82_linear_585_5273" x1="202.43" y1="251.441" x2="143.654" y2="251.441" gradientUnits="userSpaceOnUse">
<stop stop-color="#2A3645"/>
<stop offset="1" stop-color="#656E74"/>
</linearGradient>
<linearGradient id="paint83_linear_585_5273" x1="201.112" y1="305.456" x2="196.862" y2="305.456" gradientUnits="userSpaceOnUse">
<stop stop-color="#2A3645"/>
<stop offset="1" stop-color="#656E74"/>
</linearGradient>
<linearGradient id="paint84_linear_585_5273" x1="158.635" y1="299.363" x2="154.385" y2="299.363" gradientUnits="userSpaceOnUse">
<stop stop-color="#2A3645"/>
<stop offset="1" stop-color="#656E74"/>
</linearGradient>
<linearGradient id="paint85_linear_585_5273" x1="373.342" y1="216.621" x2="373.342" y2="279.321" gradientUnits="userSpaceOnUse">
<stop stop-color="#EA9D55"/>
<stop offset="0.2838" stop-color="#EAC686"/>
<stop offset="1" stop-color="#F7CE91"/>
</linearGradient>
<linearGradient id="paint86_linear_585_5273" x1="274.408" y1="204.474" x2="310.448" y2="204.474" gradientUnits="userSpaceOnUse">
<stop stop-color="#0D1102"/>
<stop offset="1" stop-color="#2A3645"/>
</linearGradient>
<linearGradient id="paint87_linear_585_5273" x1="273.804" y1="200.276" x2="298.204" y2="200.276" gradientUnits="userSpaceOnUse">
<stop stop-color="#D18A43"/>
<stop offset="1" stop-color="#8C5231"/>
</linearGradient>
<linearGradient id="paint88_linear_585_5273" x1="273.805" y1="198.747" x2="298.205" y2="198.747" gradientUnits="userSpaceOnUse">
<stop stop-color="#D18A43"/>
<stop offset="0.1432" stop-color="#FFDD7D"/>
<stop offset="0.2784" stop-color="white"/>
<stop offset="0.4243" stop-color="#ECC374"/>
<stop offset="0.5541" stop-color="#DDAD6D"/>
<stop offset="1" stop-color="#D69F5F"/>
</linearGradient>
<linearGradient id="paint89_linear_585_5273" x1="277.206" y1="198.747" x2="294.585" y2="196.798" gradientUnits="userSpaceOnUse">
<stop stop-color="#D18A43"/>
<stop offset="1" stop-color="#8C5231"/>
</linearGradient>
<linearGradient id="paint90_linear_585_5273" x1="274.966" y1="197.661" x2="297.043" y2="197.661" gradientUnits="userSpaceOnUse">
<stop stop-color="#D18A43"/>
<stop offset="1" stop-color="#8C5231"/>
</linearGradient>
<linearGradient id="paint91_linear_585_5273" x1="294.391" y1="191.095" x2="272.874" y2="204.422" gradientUnits="userSpaceOnUse">
<stop stop-color="#D18A43"/>
<stop offset="0.1432" stop-color="#FFDD7D"/>
<stop offset="0.2784" stop-color="white"/>
<stop offset="0.4243" stop-color="#ECC374"/>
<stop offset="0.5541" stop-color="#DDAD6D"/>
<stop offset="1" stop-color="#D69F5F"/>
</linearGradient>
<linearGradient id="paint92_linear_585_5273" x1="313.185" y1="185.305" x2="313.185" y2="190.604" gradientUnits="userSpaceOnUse">
<stop stop-color="#D18A43"/>
<stop offset="0.2459" stop-color="#FFDF7B"/>
<stop offset="1" stop-color="#8C5231"/>
</linearGradient>
<linearGradient id="paint93_linear_585_5273" x1="313.587" y1="219.409" x2="316.911" y2="223.069" gradientUnits="userSpaceOnUse">
<stop stop-color="#D18A43"/>
<stop offset="0.2459" stop-color="#FFDF7B"/>
<stop offset="1" stop-color="#8C5231"/>
</linearGradient>
<linearGradient id="paint94_linear_585_5273" x1="296.694" y1="189.949" x2="282.503" y2="198.739" gradientUnits="userSpaceOnUse">
<stop stop-color="#D18A43"/>
<stop offset="0.1432" stop-color="#FFDD7D"/>
<stop offset="0.2784" stop-color="white"/>
<stop offset="0.4243" stop-color="#ECC374"/>
<stop offset="0.5541" stop-color="#DDAD6D"/>
<stop offset="1" stop-color="#D69F5F"/>
</linearGradient>
<linearGradient id="paint95_linear_585_5273" x1="285.109" y1="188.748" x2="297.217" y2="188.748" gradientUnits="userSpaceOnUse">
<stop stop-color="#D18A43"/>
<stop offset="0.2459" stop-color="#FFDF7B"/>
<stop offset="1" stop-color="#8C5231"/>
</linearGradient>
<linearGradient id="paint96_linear_585_5273" x1="285.109" y1="185.896" x2="297.209" y2="185.896" gradientUnits="userSpaceOnUse">
<stop stop-color="#D18A43"/>
<stop offset="0.1432" stop-color="#FFDD7D"/>
<stop offset="0.2784" stop-color="white"/>
<stop offset="0.4243" stop-color="#ECC374"/>
<stop offset="0.5541" stop-color="#DDAD6D"/>
<stop offset="1" stop-color="#D69F5F"/>
</linearGradient>
<linearGradient id="paint97_linear_585_5273" x1="285.109" y1="191.749" x2="297.209" y2="191.749" gradientUnits="userSpaceOnUse">
<stop stop-color="#D18A43"/>
<stop offset="0.1432" stop-color="#FFDD7D"/>
<stop offset="0.2784" stop-color="white"/>
<stop offset="0.4243" stop-color="#ECC374"/>
<stop offset="0.5541" stop-color="#DDAD6D"/>
<stop offset="1" stop-color="#D69F5F"/>
</linearGradient>
<linearGradient id="paint98_linear_585_5273" x1="285.117" y1="181.872" x2="297.209" y2="181.872" gradientUnits="userSpaceOnUse">
<stop stop-color="#D18A43"/>
<stop offset="0.2459" stop-color="#FFDF7B"/>
<stop offset="1" stop-color="#8C5231"/>
</linearGradient>
<linearGradient id="paint99_linear_585_5273" x1="295.763" y1="178.65" x2="283.961" y2="185.959" gradientUnits="userSpaceOnUse">
<stop stop-color="#D18A43"/>
<stop offset="0.1432" stop-color="#FFDD7D"/>
<stop offset="0.2784" stop-color="white"/>
<stop offset="0.4243" stop-color="#ECC374"/>
<stop offset="0.5541" stop-color="#DDAD6D"/>
<stop offset="1" stop-color="#D69F5F"/>
</linearGradient>
<linearGradient id="paint100_linear_585_5273" x1="283.883" y1="181.492" x2="298.444" y2="181.492" gradientUnits="userSpaceOnUse">
<stop stop-color="#D18A43"/>
<stop offset="0.2459" stop-color="#FFDF7B"/>
<stop offset="1" stop-color="#8C5231"/>
</linearGradient>
<linearGradient id="paint101_linear_585_5273" x1="296.694" y1="176.47" x2="282.503" y2="185.26" gradientUnits="userSpaceOnUse">
<stop stop-color="#D18A43"/>
<stop offset="0.3486" stop-color="#FFDD7D"/>
<stop offset="0.6135" stop-color="white"/>
<stop offset="1" stop-color="#D69F5F"/>
</linearGradient>
<linearGradient id="paint102_linear_585_5273" x1="304.168" y1="185.305" x2="304.168" y2="190.604" gradientUnits="userSpaceOnUse">
<stop stop-color="#D18A43"/>
<stop offset="0.1432" stop-color="#FFDD7D"/>
<stop offset="0.2784" stop-color="white"/>
<stop offset="0.4243" stop-color="#ECC374"/>
<stop offset="0.5541" stop-color="#DDAD6D"/>
<stop offset="1" stop-color="#D69F5F"/>
</linearGradient>
<linearGradient id="paint103_linear_585_5273" x1="302.59" y1="190.449" x2="302.59" y2="190.458" gradientUnits="userSpaceOnUse">
<stop stop-color="#D18A43"/>
<stop offset="0.1432" stop-color="#FFDD7D"/>
<stop offset="0.2784" stop-color="white"/>
<stop offset="0.4243" stop-color="#ECC374"/>
<stop offset="0.5541" stop-color="#DDAD6D"/>
<stop offset="1" stop-color="#D69F5F"/>
</linearGradient>
<linearGradient id="paint104_linear_585_5273" x1="302.59" y1="185.363" x2="302.59" y2="185.371" gradientUnits="userSpaceOnUse">
<stop stop-color="#D18A43"/>
<stop offset="0.1432" stop-color="#FFDD7D"/>
<stop offset="0.2784" stop-color="white"/>
<stop offset="0.4243" stop-color="#ECC374"/>
<stop offset="0.5541" stop-color="#DDAD6D"/>
<stop offset="1" stop-color="#D69F5F"/>
</linearGradient>
<linearGradient id="paint105_linear_585_5273" x1="314.484" y1="185.305" x2="314.484" y2="190.604" gradientUnits="userSpaceOnUse">
<stop stop-color="#D18A43"/>
<stop offset="0.1432" stop-color="#FFDD7D"/>
<stop offset="0.2784" stop-color="white"/>
<stop offset="0.4243" stop-color="#ECC374"/>
<stop offset="0.5541" stop-color="#DDAD6D"/>
<stop offset="1" stop-color="#D69F5F"/>
</linearGradient>
<linearGradient id="paint106_linear_585_5273" x1="312.907" y1="190.449" x2="312.907" y2="190.458" gradientUnits="userSpaceOnUse">
<stop stop-color="#D18A43"/>
<stop offset="0.1432" stop-color="#FFDD7D"/>
<stop offset="0.2784" stop-color="white"/>
<stop offset="0.4243" stop-color="#ECC374"/>
<stop offset="0.5541" stop-color="#DDAD6D"/>
<stop offset="1" stop-color="#D69F5F"/>
</linearGradient>
<linearGradient id="paint107_linear_585_5273" x1="312.907" y1="185.363" x2="312.907" y2="185.371" gradientUnits="userSpaceOnUse">
<stop stop-color="#D18A43"/>
<stop offset="0.1432" stop-color="#FFDD7D"/>
<stop offset="0.2784" stop-color="white"/>
<stop offset="0.4243" stop-color="#ECC374"/>
<stop offset="0.5541" stop-color="#DDAD6D"/>
<stop offset="1" stop-color="#D69F5F"/>
</linearGradient>
<clipPath id="clip0_585_5273">
<rect width="542.64" height="328.79" fill="white"/>
</clipPath>
<clipPath id="clip1_585_5273">
<rect width="99" height="74.3145" fill="white" transform="translate(277 51)"/>
</clipPath>
</defs>
</svg>
