<svg width="543" height="329" viewBox="0 0 543 329" fill="none" xmlns="http://www.w3.org/2000/svg">
<g clip-path="url(#clip0_1696_6904)">
<path opacity="0.2" d="M127.492 328.58L412.142 311.93C487.412 307.53 545.652 243.73 542.512 168.39C539.872 105.08 517.192 37.64 440.912 8.81999C387.262 -11.45 317.592 5.13999 273.402 38.85C262.782 46.95 253.022 56.24 241.612 63.17C215.022 79.32 191.672 68.17 163.972 63.88C105.412 54.79 46.9621 73.46 16.7021 127.43C-29.7579 210.35 25.0421 334.57 127.492 328.58Z" fill="#999999"/>
<g clip-path="url(#clip1_1696_6904)">
<path d="M68.1681 146.196L67.514 141.86C67.514 141.86 70.5509 141.384 70.392 139.253L67.1963 139.216C67.1963 139.216 65.4769 137.637 67.4486 132.852C67.9064 128.348 64.9349 130.61 64.5238 129.18C63.9257 127.077 60.16 131.292 60.0385 135.749C59.889 141.514 62.9539 146.187 62.9539 146.187L68.1681 146.196Z" fill="#F37A50"/>
<path d="M114.384 319.084C115.412 316.234 117.617 315.917 117.617 315.917C121.897 321.934 132.409 318.243 132.064 326.392C116.075 326.289 109.432 326.392 109.432 326.392C109.45 324.523 109.768 320.084 110.142 318.346L110.973 318.505L114.384 319.084Z" fill="#A78BEF"/>
<path d="M90.4623 319.243C91.4901 316.393 93.6954 316.076 93.6954 316.076C97.9751 322.093 108.487 318.402 108.142 326.551C92.1536 326.448 85.5098 326.551 85.5098 326.551C85.5285 324.682 85.8462 320.243 86.2199 318.505L87.0516 318.664L90.4623 319.243Z" fill="#A78BEF"/>
<path d="M125.017 223.987C125.017 223.987 127.615 262.579 126.559 271.157C125.503 279.736 121.775 290.734 122.195 319.113C116.981 320.439 109.431 319.113 109.431 319.113C109.431 319.113 108.31 287.024 113.823 272.69C111.58 258.767 104.395 226.875 104.395 226.875L125.017 223.987Z" fill="#231F20"/>
<path d="M117.272 225.043C117.272 225.043 112.029 268.373 109.469 276.587C106.899 284.8 101.9 291.752 97.256 319.711C91.9017 319.982 85.5195 318.589 85.5195 318.589C85.5195 318.589 87.6407 284.24 95.9758 276.175C96.2562 262.056 94.6302 225.314 94.6302 225.314L117.272 225.043Z" fill="#231F20"/>
<path d="M97.0417 172.995C97.0417 172.995 96.6586 173.294 75.0639 169.575C75.0545 169.575 75.0545 169.575 75.0452 169.585L67.4015 176.098C67.3922 176.107 67.3922 176.116 67.4015 176.126C73.0922 182.424 97.6398 186.274 97.6398 186.274L97.0417 172.995Z" fill="#8165EA"/>
<path d="M106.227 168.267L113.814 167.043L121.336 168.613L113.581 177.733L106.227 168.267Z" fill="#95A6DB"/>
<path d="M109.012 172.696C112.011 175.042 115.188 176.042 118.487 173.668L118.945 161.988L109.049 161.866L109.012 172.696Z" fill="#F37A50"/>
<path d="M123.571 172.566L121.244 171.818L121.337 168.604L115.394 174.061L113.638 174.462L111.9 173.986L106.218 168.258L106.162 171.472L104.191 172.005L95.846 173.154V210.242L92.7344 227.398C102.499 229.94 117.048 230.071 127.458 227.921L125.739 212.288L129.046 174.668L123.571 172.566Z" fill="#A78BEF"/>
<path d="M114.001 178.602C114.001 178.602 112.955 201.281 111.254 212.896C111.805 213.559 114.291 216.568 114.291 216.568C114.291 216.568 117.309 213.709 118.131 213.185C119.991 192.721 116.636 178.705 116.636 178.705L114.001 178.602Z" fill="#E527BB"/>
<path d="M112.096 174.659L115.291 173.836L117.637 174.771L116.637 178.714L113.806 178.705L112.096 174.659Z" fill="#C4204A"/>
<path d="M115.291 173.836C115.291 173.836 112.712 177.247 110.367 178.602L104.34 172.21L106.19 168.267L115.291 173.836Z" fill="#8165EA"/>
<path d="M115.291 173.836C115.291 173.836 117.328 176.798 119.982 178.761L124.673 172.883L121.327 168.613L115.291 173.836Z" fill="#8165EA"/>
<path d="M62.168 145.532C65.5973 144.738 67.4008 144.411 69.9892 144.654C74.3717 163.464 78.0814 170.753 75.764 175.808C73.8297 180.022 69.0641 179.219 67.0364 175.733C64.3452 171.117 63.1678 154.475 62.168 145.532Z" fill="#8165EA"/>
<path d="M129.054 174.677C134.175 174.864 140.165 198.851 140.165 198.851L150.154 188.198L154.135 197.59C154.135 197.59 141.118 214.185 135.483 212.494C130.222 210.915 127.531 192.002 127.531 192.002L129.054 174.677Z" fill="#A78BEF"/>
<path d="M105.956 161.455C101.087 162.034 98.5363 155.811 98.5363 155.811C95.5555 155.316 96.0601 152.344 96.0601 152.344C94.6491 151.915 92.7615 150.391 93.3689 147.691C93.8828 145.402 96.1255 145.514 96.4151 142.832C96.6488 140.683 95.1069 135.412 101.966 135.011C101.966 135.011 102.134 131.011 106.255 130.058C111.31 128.89 112.553 131.927 114.767 132.469C117.244 133.076 122.561 130.806 123.252 136.534C123.252 136.534 126.784 136.618 128.41 139.188C129.924 141.58 129.036 144.645 128.018 145.766C128.018 145.766 130.849 146.728 131.503 149.41C131.942 151.204 131.241 153.531 129.447 154.662C128.307 155.381 127.223 155.447 127.223 155.447C126.065 155.634 125.99 158.736 124.971 159.334C123.336 160.296 121.561 160.969 119.748 161.511L105.956 161.455Z" fill="#231F20"/>
<path d="M124.681 149.56C125.241 157.96 120.635 165.109 114.383 165.529C108.132 165.95 102.609 159.474 102.049 151.074C101.488 142.673 106.487 137.244 112.729 136.833C118.981 136.412 124.12 141.159 124.681 149.56Z" fill="#F37A50"/>
<path d="M108.824 153.886C108.161 153.933 107.581 153.428 107.544 152.765C107.497 152.101 108.002 151.522 108.665 151.485C109.329 151.438 109.908 151.943 109.946 152.606C109.983 153.269 109.488 153.839 108.824 153.886Z" fill="#F37A50"/>
<path d="M118.402 153.241C117.739 153.288 117.16 152.784 117.122 152.12C117.075 151.457 117.58 150.877 118.243 150.84C118.907 150.793 119.486 151.298 119.524 151.961C119.57 152.625 119.066 153.195 118.402 153.241Z" fill="#F37A50"/>
<path d="M120.374 150.812C120.177 150.821 119.981 150.737 119.86 150.559C119.533 150.083 119.15 149.803 118.729 149.737C118.01 149.625 117.327 150.148 117.327 150.158C117.075 150.354 116.711 150.317 116.514 150.064C116.318 149.812 116.356 149.457 116.599 149.251C116.645 149.214 117.664 148.41 118.888 148.588C119.645 148.7 120.29 149.139 120.813 149.896C120.99 150.158 120.925 150.522 120.663 150.7C120.57 150.774 120.467 150.812 120.374 150.812Z" fill="#F37A50"/>
<path d="M106.386 151.812C106.256 151.821 106.134 151.784 106.013 151.709C105.751 151.522 105.686 151.167 105.872 150.905C106.564 149.906 107.377 149.336 108.265 149.205C109.414 149.037 110.264 149.7 110.292 149.728C110.545 149.924 110.582 150.289 110.386 150.541C110.19 150.793 109.825 150.831 109.573 150.634C109.554 150.625 109.059 150.251 108.414 150.354C107.853 150.438 107.321 150.849 106.816 151.569C106.723 151.709 106.564 151.802 106.386 151.812Z" fill="#F37A50"/>
<path d="M114.795 153.858C116.421 154.877 116.944 155.307 117.57 155.634C117.252 157.054 115.112 157.886 114.486 157.764C115.953 156.914 116.103 155.886 116.103 155.886L114.795 153.858Z" fill="#F37A50"/>
<path d="M104.068 152.457C105.236 154.195 105.133 156.316 103.843 157.175C102.554 158.044 100.564 157.325 99.3956 155.587C98.2275 153.849 98.3303 151.728 99.6198 150.868C100.909 150.008 102.9 150.719 104.068 152.457Z" fill="#F37A50"/>
<path d="M102.919 155.764C102.872 155.764 102.816 155.764 102.769 155.746C102.564 155.68 102.461 155.456 102.526 155.251C102.76 154.578 102.732 154.054 102.442 153.69C101.994 153.129 101.031 153.008 100.33 153.083C100.115 153.101 99.9285 152.952 99.9098 152.737C99.8911 152.522 100.041 152.335 100.256 152.316C101.19 152.223 102.405 152.41 103.049 153.213C103.367 153.615 103.657 154.335 103.255 155.503C103.199 155.652 103.068 155.755 102.919 155.764Z" fill="#DE623C"/>
<path d="M110.077 159.717C109.881 159.446 110.105 159.072 110.442 159.119C111.283 159.24 112.665 159.409 113.992 159.437C115.319 159.465 116.712 159.362 117.553 159.278C117.88 159.25 118.095 159.624 117.889 159.885C117.263 160.698 115.973 161.913 113.936 161.866C111.899 161.838 110.666 160.558 110.077 159.717Z" fill="#F37A50"/>
<path d="M98.0781 145.093L111.45 133.88L126.588 141.225L124.952 152.073C124.476 147.083 121.448 148.756 119.832 147.326C118.196 145.878 117.458 143.579 113.73 145.7C113.73 145.7 110.628 143.654 109.114 146.654C107.946 148.971 106.292 148.569 104.647 148.719C102.713 148.896 103.208 150.774 102.021 150.737L98.0781 145.093Z" fill="#231F20"/>
<path d="M62.168 145.532L61.4766 149.803L72.2412 148.616L69.9051 144.495C69.8958 144.495 65.5881 144.43 62.168 145.532Z" fill="white"/>
<path d="M451.678 146.897C451.678 146.897 451.772 152.223 452.323 156.559C452.323 156.559 456.818 150.662 456.818 150.653C456.407 148.915 455.93 145.617 456.061 143.72C456.098 143.224 446.913 142.851 451.678 146.897Z" fill="#F37A50"/>
<path d="M488.68 316.431C484.457 322.066 474.085 318.608 474.43 326.224C490.204 326.13 496.754 326.224 496.754 326.224C496.735 324.476 496.418 320.318 496.053 318.692L488.68 316.431Z" fill="#A78BEF"/>
<path d="M512.276 316.58C508.052 322.215 497.68 318.758 498.026 326.373C513.799 326.28 520.35 326.373 520.35 326.373C520.331 324.626 520.013 320.468 519.649 318.842L512.276 316.58Z" fill="#A78BEF"/>
<path d="M481.384 230.444C481.384 230.444 478.823 266.541 479.861 274.568C480.898 282.595 484.579 292.883 484.168 319.43C489.308 320.673 496.755 319.43 496.755 319.43C496.755 319.43 497.858 289.416 492.429 276.007C494.634 262.981 501.726 233.154 501.726 233.154L481.384 230.444Z" fill="#231F20"/>
<path d="M491.111 231.435C491.111 231.435 496.279 271.961 498.811 279.652C501.343 287.342 503.894 292.453 508.473 318.608C513.753 318.86 522.434 318.944 522.434 318.944C522.434 318.944 520.34 286.819 512.117 279.278C511.837 266.074 513.444 231.706 513.444 231.706L491.111 231.435Z" fill="#231F20"/>
<path d="M512.163 165.127C509.359 172.126 502.632 176.023 497.128 173.818C491.624 171.612 489.437 164.155 492.241 157.157C495.044 150.158 501.772 146.261 507.276 148.466C512.78 150.662 514.966 158.128 512.163 165.127Z" fill="#F37A50"/>
<path d="M494.643 159.455C494.316 159.923 493.68 160.035 493.213 159.717C492.746 159.39 492.634 158.755 492.952 158.287C493.279 157.82 493.914 157.708 494.381 158.026C494.848 158.343 494.97 158.988 494.643 159.455Z" fill="#F37A50"/>
<path d="M502.36 162.604C502.005 163.109 501.313 163.231 500.809 162.885C500.304 162.53 500.183 161.838 500.528 161.334C500.883 160.829 501.575 160.708 502.08 161.053C502.584 161.408 502.706 162.1 502.36 162.604Z" fill="#F37A50"/>
<path d="M496.203 161.1C494.81 162.193 493.072 163.52 493.072 163.52C493.072 163.52 493.054 165.202 495.016 165.931C494.306 165.286 493.68 164.426 494.418 163.445C495.156 162.455 496.203 161.1 496.203 161.1Z" fill="#F37A50"/>
<path d="M504.389 161.932C504.155 161.932 503.949 161.773 503.893 161.539C503.884 161.483 503.538 160.147 502.389 160.138C502.109 160.138 501.875 159.904 501.875 159.624C501.875 159.343 502.109 159.11 502.389 159.11C503.959 159.119 504.706 160.549 504.893 161.296C504.959 161.577 504.79 161.848 504.51 161.913C504.463 161.932 504.426 161.932 504.389 161.932Z" fill="#F37A50"/>
<path d="M495.716 157.278C495.566 157.278 495.426 157.203 495.352 157.073C495.342 157.063 495.071 156.615 494.604 156.531C494.277 156.475 493.913 156.605 493.52 156.923C493.333 157.073 493.062 157.045 492.922 156.858C492.773 156.671 492.801 156.4 492.987 156.26C493.595 155.774 494.193 155.587 494.772 155.69C495.623 155.849 496.071 156.605 496.09 156.633C496.211 156.839 496.137 157.101 495.94 157.222C495.866 157.26 495.791 157.278 495.716 157.278Z" fill="#F37A50"/>
<path d="M510.21 165.856C508.182 159.343 510.742 155.876 510.742 155.876C509.004 155.531 508.322 156.129 508.322 156.129C507.369 154.176 508.107 152.784 508.107 152.784C504.51 151.382 502.725 153.709 499.473 154.494C495.034 155.568 489.54 153.793 489.026 148.373C488.951 147.588 489.811 147.083 490.474 147.523C491.082 147.934 491.885 148.261 492.895 148.233C492.895 148.233 491.96 147.186 491.913 145.729C491.885 144.925 492.829 144.495 493.446 145.009C494.371 145.775 496.081 146.504 499.137 145.934C501.174 145.551 505.827 142.299 508.724 142.935C511.097 143.458 512.976 145.476 513.789 148.364C513.789 148.364 519.619 148.971 520.199 155.381C520.769 161.679 513.471 166.52 513.471 166.52L510.21 165.856Z" fill="#231F20"/>
<path d="M509.415 164.772C507.873 165.651 507.2 167.379 507.919 168.641C508.639 169.902 510.47 170.22 512.012 169.342C513.554 168.463 514.227 166.735 513.507 165.473C512.788 164.212 510.956 163.894 509.415 164.772Z" fill="#F37A50"/>
<path d="M509.668 168.566C509.622 168.529 509.575 168.491 509.547 168.435C509.117 167.65 509.183 166.847 509.725 166.286C510.276 165.716 511.173 165.548 511.855 165.884C512.042 165.978 512.126 166.211 512.023 166.408C511.93 166.595 511.696 166.679 511.5 166.576C511.126 166.389 510.594 166.492 510.276 166.819C509.977 167.127 509.958 167.566 510.22 168.052C510.323 168.239 510.257 168.473 510.061 168.576C509.939 168.66 509.781 168.641 509.668 168.566Z" fill="#DE623C"/>
<path d="M493.391 168.174C493.241 167.931 493.456 167.622 493.737 167.678C494.456 167.828 495.652 168.052 496.801 168.155C497.951 168.258 499.166 168.248 499.894 168.22C500.184 168.211 500.343 168.547 500.147 168.772C499.558 169.435 498.371 170.416 496.605 170.267C494.848 170.108 493.858 168.93 493.391 168.174Z" fill="#F37A50"/>
<path d="M485.092 177.004C485.092 177.004 484.307 176.658 464.385 171.846C464.376 171.846 464.376 171.846 464.367 171.846L456.835 177.443C456.826 177.453 456.826 177.462 456.835 177.471C461.76 183.704 484.251 188.61 484.251 188.61L485.092 177.004Z" fill="#A78BEF"/>
<path d="M494.23 176.761L501.388 176.088L508.312 178.023L500.51 186.049L494.23 176.761Z" fill="#95A6DB"/>
<path d="M496.717 180.443C499.632 182.835 500.511 184.498 506.426 181.293L507.351 171.762L497.259 170.968L496.717 180.443Z" fill="#F37A50"/>
<path d="M510.153 181.854L508.032 181.013L508.312 178.013L502.426 182.741L500.762 183.003L499.174 182.452L494.221 176.752L493.969 179.751L492.1 180.125L485.353 181.218L484.55 218.68L481.887 231.425C490.839 234.406 500.856 235.144 510.705 233.789L510.378 220.997L517.367 184.386L510.153 181.854Z" fill="#95A6DB"/>
<path d="M499.483 186.797L495.25 215.4L497.595 218.652L500.642 216.306L501.679 187.03L499.483 186.797Z" fill="#E527BB"/>
<path d="M499.23 183.414L500.772 183.012L502.342 183.695L501.679 187.087L499.464 186.89L499.23 183.414Z" fill="#E527BB"/>
<path d="M494.138 177.079L492.998 211.616L488.428 233.864C488.428 233.864 481.196 233.136 476.748 228.903L482.439 212.157L484.906 176.939L494.138 177.079Z" fill="#A78BEF"/>
<path d="M494.137 177.079L492.997 211.158L487.736 185.031L494.137 177.079Z" fill="#8165EA"/>
<path d="M508.856 179.209L499.465 235.219C499.465 235.219 511.93 236.752 517.051 233.379L514.266 214.961L517.668 183.704L508.856 179.209Z" fill="#A78BEF"/>
<path d="M508.856 179.209L503.371 212.036L513.201 187.264L508.856 179.209Z" fill="#8165EA"/>
<path d="M449.611 149.831C452.742 148.784 454.386 148.317 456.816 148.317C462.563 165.445 466.665 171.902 464.955 176.817C463.534 180.919 459.021 180.592 456.816 177.518C453.91 173.462 451.331 158.072 449.611 149.831Z" fill="#A78BEF"/>
<path d="M517.676 183.704C522.442 184.199 534.197 213.587 534.197 213.587L533.421 243.246L525.703 242.003L523.955 216.68L515.816 200.785L517.676 183.704Z" fill="#A78BEF"/>
<path d="M500.772 183.012C500.772 183.012 498.108 185.704 495.66 186.386L492.801 178.807L494.23 176.752L500.772 183.012Z" fill="white"/>
<path d="M500.773 183.013C500.773 183.013 502.287 185.62 505.203 187.246L509.361 180.293L508.314 178.023L500.773 183.013Z" fill="white"/>
<path d="M505.468 252.241L517.773 300.33L539.373 294.803L527.068 246.714L505.468 252.241Z" fill="white"/>
<path d="M508.388 254.16L525.442 249.796L536.477 292.911L519.424 297.275L508.388 254.16ZM507.164 253.431L507.416 254.413L518.452 297.527L518.704 298.508L519.685 298.256L536.739 293.892L537.72 293.64L537.468 292.659L526.432 249.544L526.18 248.563L525.199 248.815L508.145 253.179L507.164 253.431Z" fill="#95A6DB"/>
<path d="M529.636 272.868L534.533 292.005C534.589 292.229 534.458 292.463 534.234 292.519C534.01 292.575 533.776 292.444 533.72 292.22L528.823 273.083C528.767 272.858 528.898 272.625 529.122 272.569C529.347 272.503 529.571 272.643 529.636 272.868Z" fill="#95A6DB"/>
<path d="M524.328 252.151L526.888 262.15C526.944 262.374 526.813 262.607 526.589 262.663C526.365 262.72 526.131 262.589 526.075 262.364L523.515 252.366C523.459 252.142 523.59 251.908 523.814 251.852C524.048 251.787 524.272 251.927 524.328 252.151Z" fill="#95A6DB"/>
<path d="M520.824 283.371L526.917 281.81L527.309 283.333L524.048 284.165C523.581 284.286 523.3 284.37 523.207 284.417C523.114 284.464 523.058 284.548 523.039 284.66C523.02 284.772 523.048 285.006 523.142 285.361L523.179 285.51L522.469 285.688C522.123 284.996 521.656 284.52 521.067 284.268L520.824 283.371Z" fill="#E527BB"/>
<path d="M525.338 280.642L525.88 280.502C526.17 280.427 526.413 280.399 526.609 280.427C526.805 280.446 526.992 280.53 527.169 280.661C527.338 280.792 527.478 280.96 527.571 281.165L527.132 281.277C527.011 281.147 526.87 281.091 526.721 281.109L526.786 281.362L525.59 281.67L525.338 280.642Z" fill="#E527BB"/>
<path d="M521.479 277.372L523.506 276.848C523.964 276.727 524.31 276.671 524.534 276.661C524.758 276.661 524.983 276.708 525.207 276.82C525.431 276.932 525.609 277.091 525.749 277.287C525.889 277.493 525.992 277.727 526.057 278.007C526.151 278.371 526.188 278.68 526.16 278.941C526.141 279.203 526.057 279.427 525.917 279.614C525.777 279.801 525.618 279.951 525.431 280.063C525.254 280.175 524.945 280.287 524.515 280.39L522.394 280.932C521.834 281.072 521.404 281.137 521.105 281.109C520.806 281.081 520.525 280.95 520.292 280.707C520.049 280.465 519.881 280.137 519.769 279.726C519.684 279.39 519.666 279.082 519.713 278.783C519.759 278.493 519.853 278.259 519.993 278.082C520.124 277.904 520.292 277.773 520.497 277.671C520.703 277.568 521.021 277.493 521.479 277.372ZM521.357 279.026C521.03 279.11 520.834 279.175 520.759 279.231C520.684 279.287 520.666 279.371 520.694 279.483C520.722 279.595 520.787 279.661 520.881 279.67C520.974 279.689 521.18 279.652 521.497 279.567L524.469 278.811C524.824 278.717 525.029 278.652 525.095 278.596C525.16 278.54 525.179 278.465 525.151 278.343C525.123 278.231 525.057 278.166 524.964 278.156C524.871 278.147 524.674 278.175 524.375 278.25L521.357 279.026Z" fill="#E527BB"/>
<path d="M520.422 273.241L522.45 272.718C522.908 272.597 523.253 272.541 523.478 272.531C523.702 272.531 523.926 272.578 524.15 272.69C524.375 272.802 524.552 272.961 524.692 273.157C524.832 273.363 524.935 273.597 525.001 273.877C525.094 274.241 525.131 274.55 525.103 274.811C525.085 275.073 525.001 275.297 524.86 275.484C524.72 275.671 524.561 275.82 524.375 275.933C524.197 276.045 523.889 276.157 523.459 276.26L521.338 276.802C520.777 276.942 520.347 277.007 520.048 276.979C519.749 276.951 519.469 276.82 519.235 276.577C518.992 276.334 518.824 276.007 518.712 275.596C518.628 275.26 518.609 274.951 518.656 274.652C518.703 274.363 518.796 274.129 518.936 273.952C519.067 273.774 519.235 273.643 519.441 273.54C519.637 273.475 519.964 273.363 520.422 273.241ZM520.301 274.895C519.973 274.979 519.777 275.045 519.702 275.101C519.628 275.157 519.609 275.241 519.637 275.353C519.665 275.465 519.73 275.531 519.824 275.54C519.917 275.559 520.123 275.521 520.441 275.437L523.412 274.68C523.767 274.587 523.973 274.522 524.038 274.466C524.104 274.409 524.122 274.335 524.094 274.213C524.066 274.101 524.001 274.036 523.907 274.026C523.814 274.017 523.618 274.045 523.319 274.12L520.301 274.895Z" fill="#E527BB"/>
<path d="M519.365 269.121L521.393 268.597C521.851 268.476 522.197 268.42 522.421 268.41C522.645 268.41 522.869 268.457 523.094 268.569C523.318 268.681 523.495 268.84 523.636 269.036C523.776 269.242 523.879 269.476 523.944 269.756C524.037 270.12 524.075 270.429 524.047 270.69C524.028 270.952 523.944 271.176 523.804 271.363C523.664 271.55 523.505 271.7 523.318 271.812C523.14 271.924 522.832 272.036 522.402 272.139L520.281 272.681C519.72 272.821 519.291 272.886 518.992 272.858C518.693 272.83 518.412 272.699 518.179 272.456C517.936 272.214 517.767 271.886 517.655 271.475C517.571 271.139 517.553 270.831 517.599 270.532C517.646 270.242 517.739 270.008 517.88 269.831C518.01 269.653 518.179 269.522 518.384 269.42C518.58 269.345 518.907 269.233 519.365 269.121ZM519.244 270.765C518.917 270.849 518.721 270.915 518.646 270.971C518.571 271.027 518.552 271.111 518.58 271.223C518.608 271.335 518.674 271.401 518.767 271.41C518.861 271.429 519.066 271.391 519.384 271.307L522.355 270.55C522.711 270.457 522.916 270.391 522.982 270.335C523.047 270.279 523.066 270.205 523.038 270.083C523.01 269.971 522.944 269.905 522.851 269.896C522.757 269.887 522.561 269.915 522.262 269.99L519.244 270.765Z" fill="#E527BB"/>
<path d="M521.842 266.962L522.384 266.822C522.673 266.747 522.916 266.719 523.113 266.747C523.309 266.766 523.496 266.85 523.673 266.981C523.842 267.111 523.982 267.28 524.075 267.485L523.636 267.597C523.514 267.466 523.374 267.41 523.225 267.429L523.29 267.681L522.094 267.99L521.842 266.962Z" fill="#E527BB"/>
<path d="M517.983 263.692L520.01 263.168C520.468 263.047 520.814 262.991 521.038 262.981C521.262 262.981 521.487 263.028 521.711 263.14C521.935 263.252 522.113 263.411 522.253 263.608C522.393 263.813 522.496 264.047 522.561 264.327C522.655 264.691 522.692 265 522.664 265.261C522.645 265.523 522.561 265.747 522.421 265.934C522.281 266.121 522.122 266.271 521.935 266.383C521.758 266.495 521.449 266.607 521.019 266.71L518.898 267.252C518.338 267.392 517.908 267.457 517.609 267.429C517.31 267.401 517.029 267.27 516.796 267.028C516.553 266.785 516.385 266.458 516.273 266.046C516.188 265.71 516.17 265.402 516.216 265.103C516.263 264.813 516.357 264.579 516.497 264.402C516.628 264.224 516.796 264.093 517.001 263.991C517.188 263.925 517.515 263.813 517.983 263.692ZM517.861 265.346C517.534 265.43 517.338 265.495 517.263 265.551C517.188 265.607 517.17 265.691 517.198 265.803C517.226 265.916 517.291 265.981 517.384 265.99C517.478 266.009 517.684 265.972 518.001 265.888L520.973 265.131C521.328 265.037 521.533 264.972 521.599 264.916C521.664 264.86 521.683 264.785 521.655 264.663C521.627 264.551 521.561 264.486 521.468 264.477C521.375 264.467 521.178 264.495 520.879 264.57L517.861 265.346Z" fill="#E527BB"/>
<path d="M516.928 259.561L518.956 259.038C519.413 258.916 519.759 258.86 519.983 258.851C520.208 258.851 520.432 258.898 520.656 259.01C520.88 259.122 521.058 259.281 521.198 259.477C521.338 259.683 521.441 259.916 521.507 260.197C521.6 260.561 521.637 260.869 521.609 261.131C521.591 261.393 521.507 261.617 521.366 261.804C521.226 261.991 521.067 262.14 520.88 262.252C520.703 262.365 520.395 262.477 519.965 262.579L517.844 263.121C517.283 263.262 516.853 263.327 516.554 263.299C516.255 263.271 515.975 263.14 515.741 262.897C515.498 262.654 515.33 262.327 515.218 261.916C515.134 261.58 515.115 261.271 515.162 260.972C515.208 260.683 515.302 260.449 515.442 260.271C515.573 260.094 515.741 259.963 515.947 259.86C516.134 259.795 516.461 259.683 516.928 259.561ZM516.806 261.215C516.479 261.299 516.283 261.365 516.208 261.421C516.134 261.477 516.115 261.561 516.143 261.673C516.171 261.785 516.236 261.851 516.33 261.86C516.423 261.879 516.629 261.841 516.946 261.757L519.918 261C520.273 260.907 520.479 260.841 520.544 260.785C520.609 260.729 520.628 260.655 520.6 260.533C520.572 260.421 520.507 260.356 520.413 260.346C520.32 260.337 520.124 260.365 519.825 260.44L516.806 261.215Z" fill="#E527BB"/>
<path d="M515.871 255.431L517.899 254.908C518.357 254.786 518.702 254.73 518.927 254.721C519.151 254.721 519.375 254.768 519.6 254.88C519.824 254.992 520.001 255.151 520.142 255.347C520.282 255.553 520.384 255.786 520.45 256.067C520.543 256.431 520.581 256.739 520.553 257.001C520.534 257.263 520.45 257.487 520.31 257.674C520.17 257.861 520.011 258.01 519.824 258.122C519.646 258.234 519.338 258.347 518.908 258.449L516.787 258.991C516.226 259.131 515.796 259.197 515.497 259.169C515.198 259.141 514.918 259.01 514.684 258.767C514.441 258.524 514.273 258.197 514.161 257.786C514.077 257.449 514.058 257.141 514.105 256.842C514.152 256.552 514.245 256.319 514.385 256.141C514.516 255.964 514.684 255.833 514.89 255.73C515.077 255.665 515.404 255.553 515.871 255.431ZM515.75 257.085C515.423 257.169 515.226 257.235 515.152 257.291C515.077 257.347 515.058 257.431 515.086 257.543C515.114 257.655 515.18 257.72 515.273 257.73C515.367 257.749 515.572 257.711 515.89 257.627L518.861 256.87C519.216 256.777 519.422 256.711 519.487 256.655C519.553 256.599 519.571 256.524 519.543 256.403C519.515 256.291 519.45 256.225 519.357 256.216C519.263 256.207 519.067 256.235 518.768 256.309L515.75 257.085Z" fill="#E527BB"/>
<path d="M523.486 288.388L523.954 290.22L523.655 290.295C523.328 290.379 523.122 290.454 523.038 290.519C522.945 290.584 522.926 290.687 522.954 290.827C522.982 290.939 523.047 291.014 523.15 291.042C523.253 291.08 523.384 291.07 523.561 291.024C523.851 290.949 524.038 290.837 524.122 290.697C524.206 290.556 524.346 290.173 524.542 289.538C524.701 289.005 524.841 288.631 524.944 288.417C525.047 288.211 525.225 288.015 525.467 287.828C525.71 287.641 526.037 287.501 526.449 287.389C527.103 287.22 527.654 287.248 528.103 287.463C528.551 287.678 528.906 288.099 529.149 288.697L529.841 288.519L530.056 289.36L529.345 289.538C529.42 290.042 529.345 290.519 529.112 290.968C528.878 291.416 528.355 291.743 527.533 291.958L527.177 292.051L526.71 290.22L527.159 290.108C527.654 289.986 527.953 289.884 528.065 289.818C528.177 289.753 528.215 289.641 528.177 289.5C528.149 289.379 528.084 289.295 527.981 289.258C527.878 289.22 527.747 289.22 527.589 289.258C527.177 289.36 526.888 289.463 526.729 289.566C526.57 289.669 526.421 289.912 526.299 290.304C526.094 290.949 525.935 291.397 525.813 291.64C525.701 291.883 525.514 292.117 525.253 292.341C524.991 292.565 524.673 292.724 524.29 292.818C523.739 292.958 523.272 292.911 522.888 292.687C522.496 292.453 522.188 292.042 521.954 291.444L521.365 291.594L521.15 290.753L521.739 290.603C521.664 290.024 521.748 289.547 521.982 289.192C522.216 288.837 522.608 288.585 523.15 288.445C523.216 288.445 523.328 288.417 523.486 288.388Z" fill="#E527BB"/>
<path d="M416.496 314.422L416.066 318.804L419.739 319.926L422.692 316.777L423.177 314.964L416.496 314.422Z" fill="#F37A50"/>
<path d="M405.032 318.141L404.527 314.151L412.33 313.628L412.236 318.122L405.032 318.141Z" fill="#F37A50"/>
<path d="M411.367 151.027C407.097 147.149 399.518 147.401 398.369 153.475C397.21 159.549 397.603 163.595 390.043 162.661C384.016 161.913 377.83 167.323 377.83 175.817C377.839 186.694 385.371 182.461 383.624 187.834C381.876 193.207 380.755 198.655 388.529 198.833C396.304 199.01 402.34 192.497 401.425 183.657C400.509 174.818 406.171 178.06 407.816 173.687C410.161 167.454 411.367 151.027 411.367 151.027Z" fill="#231F20"/>
<path d="M428.224 225.838C428.224 225.838 433.859 261.514 432.336 276.802C430.813 292.089 423.178 314.964 423.178 314.964L416.497 314.422C416.497 314.422 416.918 312.076 416.703 303.087C416.488 294.098 415.142 281.427 420.328 275.428C419.684 263.738 412.32 225.847 412.32 225.847H428.224V225.838Z" fill="#231F20"/>
<path d="M400.519 224.642C397.603 235.135 397.435 264.215 399.855 281.007C402.275 297.798 404.527 314.16 404.527 314.16L412.33 314.272C412.33 314.272 412.33 280.708 412.33 273.512C412.33 266.317 414.273 244.134 414.273 244.134L416.703 225.847L400.519 224.642Z" fill="#231F20"/>
<path d="M425.066 163.119C425.066 170.127 420.833 175.818 415.619 175.818C410.405 175.818 406.172 170.136 406.172 163.119C406.172 156.11 410.405 150.42 415.619 150.42C420.833 150.429 425.066 156.11 425.066 163.119Z" fill="#F37A50"/>
<path d="M411.938 173.22V186.713C411.938 186.713 416.432 189.114 420.329 186.713C419.731 183.713 419.376 174.163 419.376 174.163L411.938 173.22Z" fill="#F37A50"/>
<path d="M403.892 180.499H426.272C426.272 180.499 430.29 189.526 429.748 197.244C429.206 204.972 428.225 225.987 428.225 225.987C428.225 225.987 409.144 227.847 400.388 225.137C399.687 209.289 400.332 197.085 400.659 191.936C400.977 186.788 403.892 180.499 403.892 180.499Z" fill="#E527BB"/>
<path d="M411.993 180.191L406.312 180.032C406.312 180.032 398.547 163.829 395.837 159.007C393.987 151.27 394.127 138.524 394.127 138.524L391.099 136.926C391.099 136.926 386.025 152.129 387.296 159.156C387.632 161.007 397.201 185.816 397.201 185.816C397.201 185.816 394.865 215.25 393.66 222.221C402.013 224.09 407.442 222.698 407.442 222.698L411.993 180.191Z" fill="#A78BEF"/>
<path d="M419.375 180.499L423.954 222.707C423.954 222.707 427.439 223.829 434.933 221.605C435.232 212.69 432.046 184.667 432.046 184.667C432.046 184.667 438.727 173.631 442.773 157.372C442.474 151.242 439.811 137.188 439.811 137.188L432.046 136.777L434.812 156.624C434.812 156.624 425.29 177.406 424.309 180.406C421.01 180.144 419.375 180.499 419.375 180.499Z" fill="#A78BEF"/>
<path d="M405.545 163.119C410.759 162.455 415.609 159.549 418.347 155.793C420.113 160.184 425.065 163.119 425.065 163.119C425.065 163.119 428.775 154.727 422.029 150.195C415.59 145.878 400.238 148.831 405.545 163.119Z" fill="#231F20"/>
<path d="M411.646 165.828C411.095 165.828 410.646 165.38 410.646 164.828C410.646 164.277 411.095 163.829 411.646 163.829C412.198 163.829 412.646 164.277 412.646 164.828C412.646 165.38 412.198 165.828 411.646 165.828Z" fill="#F37A50"/>
<path d="M419.646 165.828C419.095 165.828 418.646 165.38 418.646 164.828C418.646 164.277 419.095 163.829 419.646 163.829C420.198 163.829 420.646 164.277 420.646 164.828C420.646 165.38 420.198 165.828 419.646 165.828Z" fill="#F37A50"/>
<path d="M421.412 163.922C421.244 163.922 421.085 163.838 421.001 163.688C420.749 163.268 420.45 163.016 420.104 162.941C419.506 162.81 418.917 163.203 418.917 163.212C418.703 163.361 418.394 163.305 418.245 163.09C418.095 162.875 418.142 162.576 418.366 162.418C418.404 162.39 419.291 161.782 420.3 161.997C420.917 162.128 421.431 162.53 421.824 163.193C421.964 163.417 421.88 163.716 421.655 163.857C421.581 163.903 421.497 163.922 421.412 163.922Z" fill="#F37A50"/>
<path d="M409.741 163.969C409.639 163.969 409.527 163.931 409.442 163.866C409.237 163.698 409.199 163.399 409.368 163.184C410.003 162.39 410.704 161.96 411.451 161.904C412.414 161.829 413.087 162.427 413.115 162.455C413.311 162.633 413.32 162.941 413.143 163.137C412.965 163.333 412.657 163.343 412.461 163.175C412.442 163.165 412.049 162.829 411.507 162.875C411.04 162.913 410.573 163.231 410.115 163.791C410.022 163.913 409.882 163.969 409.741 163.969Z" fill="#F37A50"/>
<path d="M416.609 166.146C417.908 167.08 418.31 167.464 418.815 167.781C418.469 168.94 416.647 169.519 416.133 169.379C417.394 168.753 417.581 167.912 417.581 167.912L416.609 166.146Z" fill="#F37A50"/>
<path d="M407.583 164.1C408.667 165.473 408.723 167.23 407.705 168.034C406.686 168.837 404.985 168.379 403.901 167.006C402.817 165.632 402.761 163.875 403.78 163.072C404.798 162.268 406.499 162.726 407.583 164.1Z" fill="#F37A50"/>
<path d="M406.638 167.062C406.6 167.062 406.554 167.052 406.516 167.034C406.348 166.968 406.273 166.772 406.348 166.613C406.582 166.071 406.582 165.632 406.367 165.314C406.03 164.819 405.227 164.67 404.647 164.688C404.47 164.698 404.32 164.557 404.311 164.38C404.302 164.202 404.442 164.053 404.619 164.044C405.395 164.016 406.404 164.24 406.89 164.95C407.133 165.305 407.339 165.922 406.937 166.866C406.881 166.987 406.759 167.062 406.638 167.062Z" fill="#DE623C"/>
<path d="M413.115 171.089C412.984 170.865 413.171 170.594 413.424 170.65C414.068 170.781 415.124 170.986 416.152 171.08C417.171 171.173 418.255 171.164 418.909 171.145C419.17 171.136 419.31 171.444 419.133 171.631C418.61 172.22 417.544 173.098 415.984 172.958C414.414 172.818 413.526 171.771 413.115 171.089Z" fill="#F37A50"/>
<path d="M419.834 319.44C420.749 317.048 422.693 316.777 422.693 316.777C426.477 321.832 435.784 318.73 435.476 325.56C421.329 325.476 415.451 325.56 415.451 325.56C415.47 323.99 415.75 320.262 416.077 318.804L416.815 318.935L419.834 319.44Z" fill="#A78BEF"/>
<path d="M433.467 327.392H417.46C416.348 327.392 415.451 326.495 415.451 325.383H435.485C435.485 326.485 434.579 327.392 433.467 327.392Z" fill="white"/>
<path d="M413.947 325.579C413.947 325.579 412.835 321.43 412.732 320.897C412.62 320.29 412.293 318.86 412.228 318.122C412.209 317.945 410.303 316.777 408.845 316.777C406.873 316.777 405.07 317.926 405.032 318.141C404.799 319.524 404.789 321.15 404.416 322.505C404.135 323.505 403.369 325.85 403.369 325.85L413.947 325.579Z" fill="#A78BEF"/>
<path d="M413.947 325.261C413.685 326.083 410.489 325.13 408.153 325.14C406.191 325.14 403.659 325.897 403.369 325.607C402.883 326.476 403.285 328.27 403.285 328.27C403.285 328.27 405.331 328.373 407.78 328.27C410.228 328.167 413.059 328.317 414.124 328.008C414.797 326.868 413.947 325.261 413.947 325.261Z" fill="white"/>
<path d="M52.6835 318.16L56.4586 303.293L47.0956 302.003C46.7778 309.03 46.2452 315.954 46.2919 317.823L52.6835 318.16Z" fill="#FF977D"/>
<path d="M30.3406 301.919H20.5664C20.8841 304.264 22.1736 316.945 22.1736 316.945C22.9959 318.823 30.2845 318.393 30.2845 317.337C29.7332 315.057 30.2939 302.218 30.3406 301.919Z" fill="#FF977D"/>
<path d="M46.3296 307.731L55.9729 309.152L62.6541 269.177C61.2805 254.011 47.9181 221.735 47.9181 221.735L32.8644 227.006L32.5 241.237L50.628 271.933C48.2639 277.867 46.6473 297.06 46.3296 307.731Z" fill="#231F20"/>
<path d="M38.8722 222.801C38.732 221.866 38.6853 221.567 37.9097 221.1L23.454 216.998L20.0153 220.399C16.7541 232.229 18.7725 248.694 21.3422 261.757C17.5764 273.064 19.0528 296.369 20.5666 307.32H30.8454C31.4434 299.994 31.2565 286.417 31.3033 279.857C32.6301 274.587 33.9197 268.962 35.069 263.047C36.5361 255.487 38.3769 248.17 38.8815 241.312C39.3394 234.808 39.4702 227.837 38.8722 222.801Z" fill="#231F20"/>
<path d="M45.7403 180.546C51.2909 179.368 63.3077 175.098 58.9345 166.725C54.5614 158.353 51.8796 161.287 55.1033 152.307C58.3365 143.318 52.7579 135.132 46.2262 136.113C39.6945 137.094 37.3958 141.944 29.883 139.599C22.3702 137.253 14.9881 143.57 17.0159 150.205C19.0529 156.839 19.8752 160.016 16.6888 163.09C13.5024 166.174 0.794112 168.211 4.74676 177.182C8.69007 186.152 11.0916 185.965 8.74613 189.965C6.39136 193.964 9.80204 199.346 16.9691 199.664C24.1269 199.982 30.9015 198.188 34.5832 190.647C38.2649 183.115 45.7403 180.546 45.7403 180.546Z" fill="#231F20"/>
<path d="M26.2292 155.624C25.463 162.866 29.4436 169.22 35.1343 169.818C40.8157 170.426 46.0485 165.043 46.8147 157.801C47.581 150.56 43.6003 144.205 37.9096 143.607C32.2282 143.009 26.9954 148.392 26.2292 155.624Z" fill="#FF977D"/>
<path d="M27.8379 164.286L36.8084 169.846C36.8084 169.846 37.6027 173.808 38.0045 175.098C38.8268 177.752 35.6778 178.91 33.024 177.256C30.3702 175.602 28.6508 173.388 28.6508 173.388L27.8379 164.286Z" fill="#FF977D"/>
<path d="M49.1239 154.68C46.4981 154.503 44.5732 152.718 42.9006 149.971C39.5833 156.97 26.3891 158.988 25.5762 157.512C26.1555 152.419 27.389 144.56 37.0697 142.094C44.6666 140.169 49.1239 154.68 49.1239 154.68Z" fill="#231F20"/>
<path d="M43.8637 158.437C44.1067 158.932 44.7047 159.128 45.2 158.885C45.6952 158.642 45.8915 158.044 45.6485 157.549C45.4056 157.054 44.8075 156.858 44.3123 157.101C43.817 157.353 43.6208 157.951 43.8637 158.437Z" fill="#FF977D"/>
<path d="M36.0234 157.568C36.285 158.101 36.9391 158.315 37.4624 158.054C37.995 157.792 38.21 157.147 37.9483 156.615C37.6867 156.082 37.0326 155.867 36.5093 156.129C35.9767 156.39 35.7617 157.035 36.0234 157.568Z" fill="#FF977D"/>
<path d="M46.424 157.138C46.4614 157.129 46.4987 157.11 46.5361 157.082C46.7043 156.961 46.7323 156.718 46.6109 156.559C45.6391 155.288 44.1813 155.55 44.1159 155.568C43.9104 155.606 43.7795 155.802 43.8169 156.007C43.8543 156.213 44.0505 156.344 44.2561 156.306C44.3028 156.297 45.3307 156.12 46.0128 157.017C46.1063 157.138 46.2745 157.185 46.424 157.138Z" fill="#FF977D"/>
<path d="M42.0317 159.82C42.2933 160.558 42.4895 161.277 42.8353 161.791C42.9474 161.969 42.9007 162.203 42.7325 162.324C42.041 162.829 40.6674 162.885 39.8544 162.866C39.733 162.866 39.7143 162.698 39.8264 162.66C40.7982 162.371 41.2935 162.053 41.5271 161.866C41.6486 161.773 41.7046 161.633 41.7046 161.474C41.6859 161.128 41.6672 160.427 41.6859 159.867C41.6953 159.67 41.9663 159.633 42.0317 159.82Z" fill="#FF977D"/>
<path d="M28.6311 158.773C29.6963 160.11 29.6776 161.904 28.5844 162.782C27.4911 163.651 25.7343 163.277 24.6691 161.941C23.6038 160.605 23.6225 158.811 24.7158 157.932C25.8091 157.054 27.5658 157.437 28.6311 158.773Z" fill="#FF977D"/>
<path d="M27.5375 161.651C27.5842 161.623 27.6309 161.586 27.6683 161.539C28.1916 160.848 28.2383 160.072 27.7991 159.465C27.3506 158.839 26.519 158.558 25.8275 158.783C25.6313 158.848 25.5285 159.063 25.5939 159.259C25.6593 159.455 25.8742 159.558 26.0704 159.493C26.4536 159.362 26.9488 159.54 27.2011 159.895C27.4441 160.231 27.3973 160.652 27.0796 161.081C26.9582 161.25 26.9862 161.483 27.1544 161.605C27.2665 161.707 27.416 161.717 27.5375 161.651Z" fill="#DE623C"/>
<path d="M48.3767 187.376L45.8724 176.929C44.4801 176.163 37.855 174.575 37.855 174.575L37.07 177.126L29.688 173.397L21.0165 174.715C19.5775 180.966 20.7268 182.872 21.1567 190.338C21.3996 193.852 21.2875 202.439 22.0537 208.532C18.8766 215.718 16.9237 222.474 16.877 224.557C16.877 224.557 40.0042 229.734 40.7704 229.734L42.4991 225.183L45.8163 228.809C46.4424 228.482 50.1428 224.1 50.1428 224.1C48.6477 218.502 47.816 209.569 47.816 209.569L48.3767 187.376Z" fill="#A78BEF"/>
<path d="M28.5467 172.229L23.6035 174.332C24.0427 179.303 36.3679 182.2 36.3679 182.2L37.0687 177.126L28.5467 172.229Z" fill="#A78BEF"/>
<path d="M37.0703 177.126L39.2756 180.116C39.2756 180.116 41.7985 177.098 40.7707 175.285C39.7428 173.472 37.4721 172.995 37.4721 172.995L37.0703 177.126Z" fill="#0E6A41"/>
<path d="M39.2273 166.725C38.9843 166.725 38.7507 166.707 38.5078 166.66C36.751 166.324 35.7699 164.847 35.7232 164.791C35.5924 164.595 35.6484 164.343 35.8446 164.212C36.0409 164.081 36.2932 164.137 36.424 164.333C36.4333 164.343 37.265 165.576 38.676 165.847C39.5917 166.024 40.5635 165.754 41.5727 165.043C41.7596 164.913 42.0212 164.959 42.1521 165.146C42.2829 165.333 42.2362 165.595 42.0493 165.725C41.1055 166.389 40.1524 166.725 39.2273 166.725Z" fill="#FF977D"/>
<path d="M50.4049 317.916C51.386 315.347 53.4791 315.057 53.4791 315.057C57.5439 320.486 67.5424 317.15 67.206 324.495C52.0121 324.401 45.6953 324.495 45.6953 324.495C45.714 322.813 46.013 318.804 46.3681 317.244L47.1624 317.384L50.4049 317.916Z" fill="#A78BEF"/>
<path d="M65.0572 326.457H47.8636C46.6675 326.457 45.7051 325.485 45.7051 324.299H67.2251C67.2157 325.495 66.2532 326.457 65.0572 326.457Z" fill="white"/>
<path d="M32.024 324.57C32.024 324.57 30.7999 320.019 30.6972 319.43C30.5757 318.767 30.2206 317.197 30.1458 316.384C30.1271 316.188 28.034 314.908 26.4361 314.908C24.2683 314.908 22.2966 316.169 22.2592 316.403C22.0069 317.926 21.9976 319.711 21.5771 321.187C21.2687 322.29 20.4277 324.85 20.4277 324.85L32.024 324.57Z" fill="#A78BEF"/>
<path d="M32.024 324.215C31.7437 325.121 28.2302 324.074 25.6699 324.074C23.5207 324.074 20.7454 324.906 20.4277 324.579C19.8951 325.532 20.3343 327.494 20.3343 327.494C20.3343 327.494 22.5769 327.607 25.2587 327.494C27.9405 327.382 31.0522 327.551 32.2202 327.205C32.9584 325.981 32.024 324.215 32.024 324.215Z" fill="white"/>
<path d="M352.339 163.193L347.377 163.212L346.256 174.911L352.04 177.966L358.207 174.948L357.217 163.212L352.339 163.193Z" fill="#FF977D"/>
<path d="M358.741 164.997C362.647 166.996 366.076 160.969 366.076 160.969C368.73 161.483 369.234 158.839 369.234 158.839C370.561 158.913 372.617 158.231 372.944 155.774C373.224 153.699 371.309 153.083 371.907 150.746C372.383 148.868 375.318 144.934 369.692 142.458C369.692 142.458 370.795 139.057 367.637 136.973C363.768 134.413 361.768 136.571 359.741 136.338C357.479 136.076 353.723 132.516 351.359 137.094C351.359 137.094 348.369 136.067 346.21 137.711C344.192 139.244 343.986 142.094 344.491 143.355C344.491 143.355 341.818 143.28 340.435 145.327C339.51 146.7 339.37 148.868 340.519 150.373C341.248 151.326 342.136 151.718 342.136 151.718C343.052 152.242 342.145 154.858 342.809 155.68C343.883 156.998 345.163 158.119 346.509 159.128L358.741 164.997Z" fill="#231F20"/>
<path d="M365.955 158.026C362.909 165.641 353.873 169.678 347.883 167.286C341.903 164.894 341.23 156.97 344.276 149.354C347.323 141.739 354.649 137.496 360.638 139.898C366.628 142.29 369.002 150.401 365.955 158.026Z" fill="#FF977D"/>
<path d="M347.285 152.223C346.93 152.727 346.23 152.858 345.725 152.503C345.22 152.148 345.09 151.447 345.445 150.943C345.8 150.438 346.501 150.307 347.005 150.662C347.51 151.017 347.641 151.709 347.285 152.223Z" fill="#FF977D"/>
<path d="M355.284 155.279C354.901 155.83 354.144 155.961 353.593 155.578C353.041 155.194 352.91 154.438 353.294 153.886C353.677 153.335 354.434 153.204 354.985 153.587C355.527 153.97 355.667 154.727 355.284 155.279Z" fill="#FF977D"/>
<path d="M349.35 153.643C347.836 154.839 345.939 156.278 345.939 156.278C345.939 156.278 345.921 158.11 348.051 158.895C347.276 158.194 346.603 157.26 347.407 156.185C348.21 155.11 349.35 153.643 349.35 153.643Z" fill="#FF977D"/>
<path d="M357.488 154.55C357.535 154.55 357.572 154.54 357.619 154.531C357.918 154.456 358.105 154.157 358.03 153.858C357.834 153.036 357.011 151.485 355.311 151.475C355.002 151.475 354.75 151.728 354.75 152.036C354.75 152.344 355.002 152.597 355.311 152.597C356.572 152.606 356.946 154.101 356.946 154.12C357.002 154.381 357.236 154.55 357.488 154.55Z" fill="#FF977D"/>
<path d="M348.415 150.111C348.499 150.111 348.574 150.092 348.649 150.046C348.873 149.915 348.948 149.625 348.817 149.41C348.799 149.373 348.303 148.551 347.378 148.382C346.743 148.27 346.089 148.476 345.435 148.999C345.229 149.158 345.201 149.457 345.36 149.653C345.519 149.859 345.818 149.887 346.014 149.728C346.453 149.382 346.855 149.233 347.201 149.298C347.705 149.392 347.995 149.878 348.004 149.878C348.107 150.027 348.257 150.111 348.415 150.111Z" fill="#FF977D"/>
<path d="M364.469 156.802C362.787 157.745 362.048 159.633 362.824 161.007C363.6 162.38 365.59 162.735 367.272 161.792C368.954 160.848 369.692 158.96 368.916 157.587C368.141 156.204 366.151 155.858 364.469 156.802Z" fill="#FF977D"/>
<path d="M364.72 160.932C364.664 160.894 364.627 160.848 364.59 160.792C364.122 159.932 364.207 159.063 364.795 158.455C365.403 157.839 366.374 157.661 367.113 158.035C367.318 158.138 367.402 158.39 367.3 158.605C367.197 158.811 366.944 158.895 366.73 158.792C366.328 158.586 365.739 158.698 365.403 159.054C365.076 159.39 365.048 159.866 365.337 160.399C365.449 160.605 365.375 160.857 365.169 160.969C365.02 161.035 364.851 161.016 364.72 160.932Z" fill="#DE623C"/>
<path d="M344.696 160.427C344.574 160.138 344.845 159.848 345.135 159.951C345.883 160.212 347.125 160.633 348.34 160.904C349.555 161.175 350.854 161.343 351.648 161.427C351.956 161.455 352.078 161.848 351.844 162.053C351.115 162.679 349.704 163.558 347.845 163.137C345.976 162.717 345.079 161.306 344.696 160.427Z" fill="#FF977D"/>
<path d="M343.855 144.243L351.181 139.122L362.03 136.758L370.795 152.391L364.179 158.671C365.796 153.858 363.011 154.279 362.105 152.288C361.189 150.27 361.451 147.84 357.124 148.261C357.124 148.261 355.097 145.084 352.462 147.242C350.425 148.906 349.06 147.85 347.472 147.308C345.603 146.672 345.042 148.7 343.958 148.177L343.855 144.243Z" fill="#231F20"/>
<path d="M343.303 318.701C338.921 324.747 328.165 321.038 328.52 329.214C344.882 329.111 351.676 329.214 351.676 329.214C351.657 327.336 351.33 322.878 350.956 321.131L343.303 318.701Z" fill="#A78BEF"/>
<path d="M369.104 318.701C364.721 324.747 353.966 321.038 354.321 329.214C370.683 329.111 377.476 329.214 377.476 329.214C377.458 327.336 377.131 322.878 376.757 321.131L369.104 318.701Z" fill="#A78BEF"/>
<path d="M335.847 223.875C335.847 223.875 331.1 264.729 332.184 273.494C333.259 282.259 339.174 292.079 338.744 321.075C344.08 322.43 351.807 321.075 351.807 321.075C351.807 321.075 352.957 288.286 347.313 273.643C349.602 259.421 356.966 226.837 356.966 226.837L335.847 223.875Z" fill="#231F20"/>
<path d="M345.816 225.09C345.816 225.09 351.18 269.354 353.806 277.754C356.432 286.155 360.01 292.519 364.767 321.075C370.252 321.355 376.886 321.813 376.886 321.813C376.886 321.813 376.148 285.576 367.607 277.343C367.318 262.916 368.99 225.38 368.99 225.38L345.816 225.09Z" fill="#231F20"/>
<path d="M369.299 174.687C369.299 174.687 361.908 172.603 358.123 173.939C348.022 177.509 346.256 173.939 346.256 173.939C342.874 173.192 334.875 173.192 334.875 173.192C333.866 186.704 332.184 229.912 332.184 229.912C332.184 229.912 342.453 232.603 352.171 232.678C361.889 232.612 371.776 230.024 371.776 230.024C371.776 230.024 369.299 185.059 369.299 174.687Z" fill="#A78BEF"/>
<path d="M334.875 173.192L298.18 160.128L292.461 168.772L333.931 189.282L334.875 173.192Z" fill="#8165EA"/>
<path d="M191.756 191.983C197.905 189.843 210.968 183.246 204.782 174.35C198.596 165.454 195.961 169.183 198.344 158.484C200.727 147.784 193.195 139.272 185.898 141.318C178.609 143.374 176.684 149.233 167.788 147.644C158.892 146.056 151.398 154.307 154.669 161.567C157.939 168.828 159.341 172.322 156.155 176.294C152.977 180.256 138.793 184.414 144.586 194.057C150.37 203.701 153.08 203.149 150.978 208.036C148.875 212.924 153.538 218.568 161.733 217.895C169.937 217.222 177.385 214.204 180.487 205.093C183.618 195.982 191.756 191.983 191.756 191.983Z" fill="#231F20"/>
<path d="M207.828 175.079C208.548 177.135 215.042 178.275 215.528 177.686C218.976 168.846 215.341 151.494 215.341 151.494L212.108 150.027C212.117 150.036 210.987 163.464 207.828 175.079Z" fill="#F37A50"/>
<path d="M191.671 192.319C197.727 190.385 214.864 179.546 215.63 177.378L208.463 173.537C208.463 173.537 188.934 182.209 185.766 183.807C180.262 186.563 181.795 195.496 191.671 192.319Z" fill="#FF977D"/>
<path d="M196.803 211.101C196.803 205.915 201.297 198.141 199.139 192.908C197.569 188.694 194.943 181.629 191.738 180.443C190.224 179.882 188.664 179.499 186.776 178.976C186.776 178.976 187.365 182.424 185.141 182.601C180.871 182.947 178.628 177.471 178.628 177.471C176.329 177.247 165.836 180.676 165.35 182.358C165.378 189.152 171.311 198.3 173.124 205.644C173.834 213.578 172.143 217.811 172.134 218.717C172.134 218.717 187.131 223.726 197.204 218.184C197.204 218.184 196.803 214.606 196.803 211.101Z" fill="#A78BEF"/>
<path d="M184.766 172.986L178.15 171.995L178.487 177.462C178.487 177.462 180.3 183.498 184.056 183.582C187.822 183.666 186.785 178.976 186.785 178.976L184.766 172.986Z" fill="#FF977D"/>
<path d="M185.264 174.586C190.865 173.245 194.021 166.376 192.313 159.244C190.605 152.113 184.68 147.419 179.079 148.76C173.478 150.101 170.322 156.97 172.03 164.102C173.738 171.234 179.663 175.928 185.264 174.586Z" fill="#FF977D"/>
<path d="M189.692 161.118C189.935 161.614 190.542 161.819 191.038 161.567C191.533 161.324 191.738 160.717 191.486 160.221C191.243 159.726 190.636 159.521 190.141 159.773C189.645 160.025 189.44 160.623 189.692 161.118Z" fill="#FF977D"/>
<path d="M181.824 163.062C182.095 163.595 182.74 163.819 183.282 163.548C183.814 163.277 184.039 162.632 183.768 162.09C183.497 161.558 182.852 161.333 182.31 161.604C181.768 161.875 181.553 162.52 181.824 163.062Z" fill="#FF977D"/>
<path d="M180.618 162.165C180.693 162.128 180.759 162.072 180.796 161.987C181.338 160.819 182.805 160.586 182.824 160.586C183.029 160.558 183.169 160.362 183.141 160.156C183.113 159.95 182.917 159.81 182.711 159.838C182.637 159.848 180.824 160.119 180.104 161.67C180.02 161.857 180.095 162.081 180.291 162.174C180.403 162.221 180.525 162.212 180.618 162.165Z" fill="#FF977D"/>
<path d="M191.878 159.67C191.915 159.651 191.953 159.623 191.981 159.595C192.13 159.446 192.13 159.212 191.981 159.063C190.831 157.923 189.411 158.399 189.355 158.418C189.159 158.483 189.056 158.698 189.121 158.895C189.187 159.091 189.402 159.194 189.598 159.128C189.645 159.109 190.644 158.792 191.448 159.595C191.56 159.717 191.738 159.736 191.878 159.67Z" fill="#FF977D"/>
<path d="M189.047 163.296C189.599 163.866 190.075 164.445 190.608 164.772C190.785 164.884 190.841 165.118 190.739 165.305C190.318 166.052 189.075 166.678 188.318 166.996C188.206 167.043 188.113 166.903 188.206 166.819C188.972 166.146 189.299 165.651 189.44 165.38C189.505 165.249 189.505 165.09 189.44 164.95C189.281 164.641 188.972 164.006 188.758 163.483C188.683 163.305 188.907 163.156 189.047 163.296Z" fill="#FF977D"/>
<path d="M174.722 164.146C176.086 165.202 176.488 166.968 175.619 168.08C174.75 169.192 172.947 169.239 171.582 168.183C170.218 167.127 169.816 165.361 170.685 164.249C171.554 163.137 173.358 163.09 174.722 164.146Z" fill="#FF977D"/>
<path d="M173.947 167.762C173.994 167.734 174.041 167.697 174.078 167.65C174.601 166.959 174.648 166.174 174.209 165.557C173.761 164.931 172.92 164.641 172.219 164.875C172.022 164.94 171.91 165.155 171.976 165.351C172.041 165.548 172.256 165.66 172.452 165.594C172.835 165.464 173.34 165.65 173.592 166.006C173.835 166.351 173.798 166.772 173.471 167.202C173.349 167.37 173.377 167.603 173.546 167.734C173.667 167.818 173.826 167.818 173.947 167.762Z" fill="#DE623C"/>
<path d="M182.853 168.986C182.694 168.771 182.862 168.472 183.133 168.51C183.806 168.594 184.908 168.697 185.964 168.697C187.02 168.697 188.123 168.585 188.796 168.51C189.057 168.482 189.225 168.771 189.076 168.986C188.59 169.64 187.59 170.631 185.964 170.631C184.338 170.631 183.338 169.64 182.853 168.986Z" fill="#FF977D"/>
<path d="M171.891 163.473C178.582 162.576 187.935 155.764 188.701 152.27C187.412 148.065 180.516 145.962 176.629 147.906C172.732 149.849 169.06 158.185 171.891 163.473Z" fill="#231F20"/>
<path d="M190.961 312.048C190.522 307.628 192.802 273.998 192.802 273.998C199.25 244.433 196.717 223.268 196.717 223.268L185.635 224.043L181.271 240.751L183.346 268.653C183.346 268.653 182.57 270.802 182.159 272.522C179.935 281.838 182.15 292.967 183.523 300.387C184.159 303.825 185.149 311.048 185.168 312.693L182.383 316.291C182.383 316.291 192.456 327.438 194.008 327.513C197.016 327.653 196.129 324.663 196.129 324.663C191.98 320.411 191.083 313.31 190.961 312.048Z" fill="#FF977D"/>
<path d="M182.197 320.243L182.748 327.41L184.037 327.466L184.691 320.813C188.121 321.692 190.578 327.906 190.578 327.906C192.943 328.756 198.942 329.335 201.081 328.233C201.595 326.14 196.12 324.673 196.12 324.673C195.624 325.261 192.7 325.71 191.662 325.084C187.841 321.832 185.972 317.094 185.159 312.693C185.159 312.693 179.113 313.114 182.197 320.243Z" fill="#A78BEF"/>
<path d="M187.215 225.426L171.601 223.277C165.629 236.789 163.686 260.318 162.06 268.7C155.556 279.614 153.482 312.702 153.482 312.702L150.697 316.3C150.697 316.3 160.77 327.448 162.322 327.522C165.33 327.663 164.443 324.672 164.443 324.672C160.303 320.421 159.49 314.767 159.229 313.525C158.827 311.656 171.862 274.951 171.862 274.951L173.254 271.466C189.177 245.162 191.794 225.277 191.794 225.277L187.215 225.426Z" fill="#FF977D"/>
<path d="M150.53 320.243L151.081 327.41L152.37 327.466L153.024 320.813C156.454 321.691 158.911 327.905 158.911 327.905C161.275 328.756 167.275 329.335 169.414 328.232C169.928 326.139 164.453 324.672 164.453 324.672C163.957 325.261 161.033 325.71 159.995 325.083C156.173 321.832 154.305 317.094 153.492 312.693C153.482 312.693 147.446 313.113 150.53 320.243Z" fill="#A78BEF"/>
<path d="M158.182 267.158C159.742 261.944 159.097 225.174 172.862 215.017L196.512 216.942C201.988 225.8 199.979 248.852 198.138 267.831C187 271.802 178.15 273.4 158.182 267.158Z" fill="#231F20"/>
<path d="M333.042 136.912L203.721 117.011L194.782 175.096L324.104 194.997L333.042 136.912Z" fill="white"/>
<path d="M325.416 141.991L318.361 187.862L202.398 170.014L209.453 124.143L325.416 141.991ZM328.453 139.757L325.818 139.356L209.855 121.508L207.22 121.106L206.818 123.741L199.763 169.613L199.361 172.248L201.996 172.65L317.96 190.497L320.595 190.899L320.996 188.264L328.051 142.393L328.453 139.757Z" fill="#95A6DB"/>
<path d="M258.091 174.145L206.632 166.23C206.024 166.137 205.613 165.576 205.707 164.969C205.8 164.361 206.361 163.95 206.968 164.044L258.427 171.967C259.035 172.061 259.446 172.622 259.352 173.229C259.268 173.827 258.698 174.238 258.091 174.145Z" fill="#95A6DB"/>
<path d="M313.812 182.723L286.919 178.583C286.311 178.49 285.9 177.929 285.994 177.322C286.087 176.714 286.648 176.303 287.255 176.397L314.148 180.536C314.756 180.63 315.167 181.19 315.073 181.798C314.98 182.396 314.41 182.816 313.812 182.723Z" fill="#95A6DB"/>
<path d="M226.994 184.676C225.499 184.47 223.873 183.648 222.677 184.526L220.705 181.059C224.013 177.546 230.171 177.368 230.788 177.434C232.385 177.611 233.142 177.593 233.226 177.826C233.311 178.06 233.413 179.536 231.077 179.349C228.152 179.125 229.592 181.788 235.824 180.77C237.385 180.517 239.973 181.77 238.777 182.629C237.45 183.582 233.796 185.61 226.994 184.676Z" fill="#FF977D"/>
<path d="M197.158 192.282C195.747 194.291 198.961 200.972 199.812 201.038C210.156 198.393 223.649 183.713 223.649 183.713L222.874 179.798C222.883 179.798 209.857 187.563 197.158 192.282Z" fill="#FF977D"/>
<path d="M169.339 192.553C175.562 196.076 197.606 201.944 199.979 200.925L197.671 192.067C197.671 192.067 175.59 182.564 171.843 181.162C165.377 178.733 159.172 186.825 169.339 192.553Z" fill="#FF977D"/>
<path d="M302.149 196.543C303.785 196.702 307.251 195.711 308.289 196.945L310.214 193.506C306.111 190.479 302.047 188.021 299.982 187.918C298.234 187.825 297.449 187.488 297.3 187.713C297.16 187.937 296.664 189.469 299.178 189.871C302.336 190.376 300.131 192.824 293.796 190.17C292.207 189.507 289.151 190.17 290.198 191.394C291.366 192.731 294.721 195.796 302.149 196.543Z" fill="#FF977D"/>
<path d="M338.555 195.151C340.769 196.627 339.938 206.541 339.097 206.953C327.566 208.354 306.541 198.403 306.541 198.403L308.559 191.833C308.55 191.833 323.809 195.375 338.555 195.151Z" fill="#A78BEF"/>
<path d="M367.802 186.105C362.887 192.132 348.497 206.252 339.096 206.953L337.938 195.141C337.938 195.141 351.216 178.48 359.822 173.902C365.429 168.874 375.847 176.284 367.802 186.105Z" fill="#A78BEF"/>
<path d="M138.721 83.9977L48.9609 100.668L56.4481 140.982L146.208 124.312L138.721 83.9977Z" fill="white"/>
<path d="M134.867 89.1022L140.782 120.938L60.2992 135.889L54.3843 104.053L134.867 89.1022ZM136.353 86.9343L134.521 87.2707L54.0385 102.222L52.207 102.558L52.5434 104.39L58.4584 136.226L58.7948 138.057L60.6263 137.721L141.109 122.77L142.94 122.433L142.604 120.602L136.689 88.7565L136.353 86.9343Z" fill="#95A6DB"/>
<path d="M97.9297 125.779L62.2063 132.413C61.7858 132.488 61.384 132.217 61.3093 131.796C61.2345 131.376 61.5055 130.974 61.926 130.899L97.6493 124.265C98.0698 124.19 98.4716 124.461 98.5464 124.882C98.6305 125.302 98.3502 125.704 97.9297 125.779Z" fill="#95A6DB"/>
<path d="M136.605 118.602L117.935 122.069C117.514 122.144 117.113 121.873 117.038 121.452C116.963 121.032 117.234 120.63 117.654 120.555L136.324 117.088C136.745 117.014 137.147 117.285 137.222 117.705C137.296 118.126 137.016 118.527 136.605 118.602Z" fill="#95A6DB"/>
<path d="M66.4863 139.533C67.2619 139.244 67.7385 139.103 67.8506 137.926C67.9627 136.749 67.8693 135.244 68.8598 135.73C69.8409 136.225 70.5324 138.543 70.3736 139.496C69.2336 140.187 66.4863 139.533 66.4863 139.533Z" fill="#F37A50"/>
<path d="M105.482 181.689L32.9941 170.204L27.8348 202.765L100.322 214.251L105.482 181.689Z" fill="white"/>
<path d="M101.19 184.517L97.1154 210.233L32.1163 199.935L36.1904 174.22L101.19 184.517ZM102.9 183.274L101.423 183.041L36.424 172.743L34.9476 172.51L34.714 173.986L30.6399 199.702L30.4062 201.178L31.8827 201.412L96.8818 211.709L98.3582 211.943L98.5918 210.466L102.666 184.751L102.9 183.274Z" fill="#95A6DB"/>
<path d="M63.3448 202.383L34.4988 197.814C34.1624 197.758 33.9288 197.44 33.9849 197.104C34.0409 196.767 34.3587 196.534 34.695 196.59L63.541 201.159C63.8774 201.215 64.111 201.533 64.0549 201.869C63.9989 202.206 63.6811 202.439 63.3448 202.383Z" fill="#95A6DB"/>
<path d="M94.5751 207.336L79.5027 204.944C79.1663 204.888 78.9327 204.57 78.9888 204.233C79.0449 203.897 79.3626 203.663 79.699 203.719L94.7714 206.112C95.1077 206.168 95.3414 206.485 95.2853 206.822C95.2292 207.158 94.9115 207.392 94.5751 207.336Z" fill="#95A6DB"/>
<path d="M76.138 179.303C76.0726 179.209 76.0259 179.107 75.9885 179.004C75.9699 179.013 75.9605 179.032 75.9418 179.041C75.0261 179.742 73.8767 179.77 73.3721 179.107C73.288 178.994 73.232 178.873 73.1946 178.751C72.4938 178.976 71.8116 178.854 71.4472 178.387C71.307 178.2 71.2323 177.976 71.2229 177.742C70.5408 178.013 69.7933 177.882 69.3914 177.35C68.8962 176.686 69.1205 175.677 69.9054 175.079C70.6903 174.481 71.7275 174.537 72.2321 175.191C72.3629 175.36 72.4377 175.546 72.4751 175.752C73.3347 175.238 74.3252 175.266 74.7738 175.864C74.8579 175.976 74.9139 176.098 74.9513 176.219C75.6521 175.995 76.3343 176.116 76.6987 176.584C76.8295 176.761 76.9043 176.957 76.923 177.182C77.521 176.911 78.1845 177.013 78.5395 177.481C78.96 178.041 78.7638 178.892 78.1004 179.396C77.4369 179.91 76.5585 179.863 76.138 179.303Z" fill="#F37A50"/>
<path d="M46.4426 209.943C45.0503 209.728 43.5459 208.934 42.4152 209.747L40.6211 206.485C43.7514 203.252 49.5076 203.168 50.0776 203.234C51.5633 203.421 52.2735 203.411 52.3482 203.635C52.423 203.86 52.4977 205.233 50.3205 205.028C47.592 204.775 48.9002 207.28 54.731 206.42C56.1887 206.205 58.5902 207.411 57.4596 208.195C56.2168 209.064 52.7781 210.905 46.4426 209.943Z" fill="#FF977D"/>
<path d="M18.1751 201.505C16.0072 202.243 14.7458 209.046 15.3438 209.569C24.5947 213.288 42.8535 209.662 42.8535 209.662L44.4327 206.289C44.4327 206.28 30.3414 204.953 18.1751 201.505Z" fill="#FF977D"/>
<path d="M14.9704 181.134C13.55 187.273 13.8864 207.812 15.3535 209.56L22.7729 204.532C22.7729 204.532 24.9781 183.909 25.2211 180.396C25.6509 174.322 17.2691 171.108 14.9704 181.134Z" fill="#FF977D"/>
<path d="M471.954 115.955L401.811 99.9553L394.624 131.46L464.768 147.46L471.954 115.955Z" fill="white"/>
<path d="M467.563 118.424L461.891 143.308L398.985 128.956L404.657 104.072L467.563 118.424ZM469.311 117.322L467.881 116.995L404.984 102.651L403.555 102.324L403.228 103.754L397.556 128.638L397.229 130.068L398.658 130.395L461.564 144.738L462.994 145.065L463.321 143.635L468.993 118.752L469.311 117.322Z" fill="#95A6DB"/>
<path d="M429.373 133.413L401.462 127.049C401.134 126.974 400.929 126.647 401.004 126.32C401.078 125.993 401.405 125.788 401.733 125.863L429.644 132.226C429.971 132.301 430.177 132.628 430.102 132.955C430.027 133.291 429.7 133.487 429.373 133.413Z" fill="#95A6DB"/>
<path d="M459.593 140.309L445.006 136.982C444.679 136.908 444.474 136.581 444.549 136.253C444.623 135.926 444.95 135.721 445.277 135.796L459.864 139.122C460.191 139.197 460.397 139.524 460.322 139.851C460.247 140.178 459.92 140.384 459.593 140.309Z" fill="#95A6DB"/>
<path d="M526.805 240.966L526.899 245.068C526.899 245.068 523.974 244.984 523.871 246.984L526.618 247.068C526.618 247.068 528.291 249.226 525.89 253.441C524.936 257.571 527.964 255.824 528.17 257.197C528.478 259.225 532.468 255.749 533.103 251.628C533.926 246.292 532.832 245.648 532.832 245.648L531.627 241.592L526.805 240.966Z" fill="#F37A50"/>
<path d="M391.183 133.058C391.099 134.422 391.463 135.964 390.996 137.263L394.024 138.861C397.715 136.553 398.219 131.544 398.275 130.983C398.406 129.535 398.556 128.862 398.359 128.75C398.163 128.638 396.883 128.283 396.631 130.385C396.313 133.02 394.211 131.273 396.21 125.928C396.715 124.592 396.061 122.078 395.08 122.985C393.996 123.984 391.557 126.872 391.183 133.058Z" fill="#F37A50"/>
<path d="M82.5603 121.164L79.6287 105.99L80.6007 105.802L83.5324 120.976L82.5603 121.164ZM83.3702 110.303C83.2148 109.796 82.9038 109.438 82.4371 109.229C81.9744 109.019 81.417 108.977 80.765 109.103C80.3066 109.192 79.9268 109.337 79.6256 109.539C79.3243 109.74 79.1096 109.976 78.9816 110.247C78.8535 110.518 78.8169 110.806 78.8717 111.111C78.9206 111.364 79.0203 111.572 79.1707 111.735C79.3252 111.898 79.5158 112.025 79.7425 112.117C79.9684 112.204 80.2123 112.268 80.4741 112.307C80.7359 112.347 80.997 112.372 81.2574 112.384L82.4504 112.448C82.9294 112.466 83.3979 112.525 83.8558 112.626C84.3177 112.725 84.7433 112.88 85.1326 113.092C85.5259 113.303 85.8591 113.585 86.1323 113.938C86.4054 114.291 86.5928 114.73 86.6943 115.256C86.8317 115.967 86.771 116.629 86.512 117.24C86.2523 117.848 85.808 118.37 85.1793 118.807C84.5537 119.24 83.7548 119.55 82.7827 119.738C81.8383 119.92 80.9901 119.932 80.2382 119.774C79.4901 119.616 78.8663 119.293 78.3667 118.808C77.8711 118.322 77.5295 117.678 77.3422 116.878L79.5057 116.46C79.619 116.877 79.8173 117.204 80.1007 117.44C80.3841 117.676 80.7229 117.828 81.1171 117.895C81.5153 117.962 81.9436 117.951 82.4019 117.862C82.8801 117.77 83.2852 117.618 83.6173 117.406C83.9526 117.19 84.1982 116.933 84.354 116.637C84.5091 116.336 84.5551 116.012 84.4918 115.663C84.4268 115.348 84.2835 115.105 84.0621 114.934C83.8398 114.76 83.5514 114.636 83.1967 114.561C82.8452 114.481 82.4414 114.428 81.9853 114.401L80.5356 114.312C79.4862 114.249 78.6207 114.012 77.939 113.603C77.2606 113.189 76.8374 112.547 76.6694 111.678C76.5312 110.962 76.6038 110.299 76.8873 109.686C77.1746 109.073 77.6256 108.554 78.2401 108.128C78.8538 107.698 79.5855 107.4 80.4351 107.236C81.2965 107.07 82.0803 107.074 82.7863 107.249C83.4956 107.42 84.0871 107.734 84.5609 108.192C85.0338 108.645 85.3423 109.213 85.4862 109.894L83.3702 110.303ZM89.1947 118.308L88.8878 116.72L92.3039 111.774C92.6283 111.289 92.8944 110.863 93.102 110.495C93.3096 110.127 93.452 109.782 93.5291 109.459C93.6062 109.137 93.6123 108.808 93.5474 108.472C93.4733 108.089 93.323 107.778 93.0965 107.538C92.8692 107.295 92.5889 107.128 92.2556 107.037C91.9223 106.946 91.5621 106.937 91.1748 107.012C90.7757 107.089 90.442 107.24 90.1738 107.464C89.9048 107.684 89.7163 107.96 89.6083 108.292C89.5043 108.624 89.4924 108.997 89.5726 109.412L87.4802 109.816C87.3314 109.046 87.3778 108.342 87.6196 107.705C87.8613 107.068 88.2603 106.534 88.8164 106.103C89.3765 105.671 90.0576 105.377 90.8598 105.222C91.6738 105.065 92.4184 105.079 93.0936 105.264C93.7688 105.449 94.3275 105.774 94.7697 106.238C95.2157 106.701 95.5044 107.272 95.6358 107.952C95.7236 108.406 95.7229 108.869 95.6338 109.342C95.5446 109.814 95.3323 110.359 94.9967 110.977C94.6651 111.595 94.1794 112.359 93.5397 113.269L91.8584 115.802L91.8745 115.885L97.1616 114.863L97.5166 116.701L89.1947 118.308ZM103.814 115.656C103.024 115.809 102.288 115.797 101.606 115.621C100.924 115.442 100.348 115.127 99.8801 114.676C99.4157 114.225 99.1068 113.665 98.9533 112.998L101.087 112.586C101.223 113.076 101.517 113.442 101.969 113.682C102.421 113.919 102.921 113.984 103.47 113.878C103.901 113.795 104.265 113.622 104.563 113.359C104.861 113.097 105.072 112.771 105.198 112.382C105.324 111.993 105.341 111.573 105.25 111.124C105.165 110.665 104.99 110.276 104.724 109.959C104.457 109.641 104.133 109.415 103.75 109.28C103.367 109.141 102.952 109.115 102.505 109.201C102.141 109.267 101.796 109.403 101.471 109.61C101.146 109.816 100.903 110.051 100.741 110.316L98.6923 110.374L98.1172 103.992L105.159 102.632L105.514 104.469L100.292 105.478L100.564 108.764L100.635 108.75C100.809 108.442 101.085 108.161 101.462 107.908C101.839 107.651 102.272 107.475 102.762 107.38C103.497 107.238 104.187 107.285 104.831 107.522C105.474 107.754 106.02 108.14 106.469 108.681C106.918 109.221 107.217 109.881 107.368 110.659C107.523 111.461 107.475 112.213 107.225 112.913C106.978 113.608 106.562 114.199 105.975 114.685C105.392 115.167 104.671 115.49 103.814 115.656ZM114.656 113.629C113.68 113.818 112.794 113.732 111.999 113.374C111.208 113.01 110.534 112.396 109.977 111.532C109.424 110.664 109.02 109.567 108.764 108.244C108.512 106.919 108.482 105.757 108.674 104.756C108.87 103.751 109.268 102.936 109.868 102.312C110.473 101.687 111.262 101.281 112.234 101.093C113.206 100.905 114.089 100.988 114.883 101.343C115.677 101.698 116.35 102.306 116.901 103.167C117.457 104.027 117.862 105.117 118.117 106.437C118.374 107.764 118.405 108.935 118.212 109.948C118.021 110.956 117.624 111.775 117.02 112.404C116.42 113.032 115.632 113.44 114.656 113.629ZM114.297 111.774C115.056 111.627 115.582 111.138 115.877 110.307C116.174 109.47 116.182 108.323 115.901 106.865C115.714 105.901 115.457 105.11 115.129 104.493C114.8 103.876 114.421 103.437 113.989 103.176C113.556 102.911 113.089 102.827 112.588 102.924C111.833 103.07 111.309 103.561 111.015 104.396C110.721 105.228 110.711 106.367 110.987 107.814C111.17 108.783 111.424 109.578 111.749 110.2C112.078 110.821 112.459 111.264 112.891 111.529C113.323 111.79 113.791 111.872 114.297 111.774Z" fill="#E527BB"/>
<path d="M49.0435 195.971L51.4029 180.698L52.3813 180.849L50.0219 196.122L49.0435 195.971ZM53.47 186.02C53.4948 185.49 53.3228 185.048 52.954 184.694C52.5892 184.34 52.0787 184.113 51.4224 184.011C50.961 183.94 50.5545 183.949 50.2029 184.037C49.8512 184.125 49.5695 184.275 49.3576 184.487C49.1457 184.698 49.0142 184.957 48.9629 185.263C48.9235 185.517 48.9471 185.747 49.0336 185.952C49.124 186.157 49.2605 186.341 49.4431 186.503C49.6263 186.662 49.8344 186.804 50.0675 186.93C50.3006 187.055 50.5378 187.167 50.7792 187.266L51.8805 187.729C52.3252 187.908 52.7463 188.121 53.1436 188.37C53.5449 188.619 53.8931 188.909 54.1882 189.24C54.4872 189.571 54.7058 189.949 54.8438 190.374C54.9819 190.798 55.01 191.275 54.9283 191.804C54.8177 192.52 54.5374 193.122 54.0873 193.61C53.6378 194.095 53.0434 194.437 52.304 194.636C51.5692 194.832 50.7126 194.854 49.7341 194.703C48.7835 194.556 47.9809 194.282 47.3263 193.879C46.6758 193.477 46.1972 192.964 45.8907 192.338C45.5881 191.713 45.4836 190.992 45.5772 190.176L47.7548 190.513C47.7209 190.943 47.7975 191.317 47.9845 191.635C48.1716 191.953 48.4393 192.211 48.7877 192.407C49.1401 192.604 49.547 192.738 50.0084 192.809C50.4896 192.884 50.9223 192.877 51.3064 192.79C51.695 192.699 52.0127 192.541 52.2595 192.314C52.5069 192.083 52.6596 191.793 52.7176 191.444C52.7628 191.125 52.7099 190.848 52.5589 190.613C52.4085 190.374 52.179 190.16 51.8704 189.969C51.5663 189.776 51.2042 189.589 50.7838 189.411L49.449 188.838C48.4827 188.424 47.7477 187.909 47.2441 187.294C46.7451 186.675 46.5632 185.928 46.6984 185.053C46.8096 184.333 47.1019 183.733 47.5752 183.252C48.0526 182.772 48.6523 182.435 49.3746 182.241C50.0975 182.043 50.8865 182.011 51.7416 182.143C52.6087 182.277 53.345 182.545 53.9506 182.948C54.5608 183.348 55.0117 183.843 55.3033 184.434C55.5954 185.021 55.6943 185.659 55.6 186.349L53.47 186.02ZM56.2524 195.521L56.4994 193.922L61.3837 190.419C61.8527 190.072 62.247 189.76 62.5666 189.484C62.8862 189.207 63.1367 188.93 63.318 188.653C63.4993 188.375 63.6161 188.068 63.6683 187.73C63.7279 187.344 63.6914 187 63.5588 186.699C63.4268 186.393 63.2193 186.141 62.9364 185.943C62.6535 185.744 62.3172 185.615 61.9274 185.555C61.5256 185.493 61.1607 185.522 60.8326 185.642C60.5052 185.759 60.2346 185.955 60.0208 186.232C59.811 186.509 59.6739 186.856 59.6094 187.274L57.5033 186.948C57.6231 186.173 57.9043 185.526 58.3467 185.008C58.7892 184.49 59.345 184.122 60.014 183.903C60.687 183.685 61.4272 183.639 62.2346 183.764C63.054 183.89 63.7502 184.155 64.3234 184.557C64.8966 184.959 65.313 185.453 65.5727 186.039C65.8364 186.625 65.9155 187.26 65.8098 187.944C65.7391 188.402 65.5822 188.838 65.339 189.252C65.0958 189.667 64.7119 190.108 64.1875 190.577C63.667 191.046 62.9521 191.602 62.0426 192.243L59.6057 194.06L59.5928 194.143L64.9146 194.965L64.6289 196.815L56.2524 195.521ZM66.6872 197.133L66.9342 195.534L71.8185 192.031C72.2875 191.684 72.6818 191.372 73.0014 191.096C73.321 190.819 73.5715 190.542 73.7528 190.265C73.9341 189.987 74.0509 189.68 74.1031 189.342C74.1627 188.956 74.1262 188.612 73.9936 188.311C73.8616 188.005 73.6542 187.753 73.3712 187.555C73.0883 187.356 72.752 187.227 72.3622 187.167C71.9605 187.105 71.5956 187.134 71.2675 187.254C70.94 187.371 70.6694 187.567 70.4556 187.844C70.2459 188.121 70.1087 188.468 70.0442 188.886L67.9381 188.56C68.058 187.785 68.3391 187.138 68.7816 186.62C69.224 186.102 69.7798 185.733 70.4488 185.515C71.1218 185.297 71.862 185.251 72.6694 185.376C73.4888 185.502 74.185 185.766 74.7582 186.169C75.3314 186.571 75.7478 187.065 76.0076 187.651C76.2713 188.237 76.3503 188.872 76.2446 189.556C76.1739 190.014 76.017 190.45 75.7738 190.864C75.5306 191.279 75.1468 191.72 74.6223 192.189C74.1019 192.658 73.3869 193.214 72.4774 193.855L70.0405 195.672L70.0276 195.755L75.3494 196.577L75.0637 198.427L66.6872 197.133ZM81.3441 199.568C80.5486 199.445 79.8597 199.186 79.2774 198.791C78.6956 198.391 78.2604 197.9 77.9716 197.318C77.6867 196.737 77.5846 196.106 77.6652 195.426L79.813 195.758C79.7754 196.265 79.9289 196.708 80.2735 197.087C80.6187 197.463 81.0678 197.693 81.6206 197.778C82.0542 197.845 82.4553 197.805 82.8241 197.659C83.1929 197.512 83.5021 197.277 83.7517 196.953C84.0013 196.629 84.1591 196.24 84.2252 195.786C84.3004 195.325 84.2663 194.9 84.1227 194.512C83.9791 194.123 83.75 193.801 83.4353 193.544C83.1212 193.284 82.7394 193.119 82.29 193.05C81.9247 192.989 81.5543 193.001 81.1788 193.086C80.8033 193.17 80.4946 193.31 80.2527 193.505L78.3048 192.868L79.9164 186.666L87.0042 187.761L86.7185 189.611L81.4623 188.799L80.6098 191.984L80.6814 191.995C80.9493 191.763 81.3036 191.592 81.7443 191.481C82.1856 191.366 82.6528 191.346 83.146 191.423C83.8859 191.537 84.5191 191.814 85.0457 192.254C85.573 192.689 85.9566 193.237 86.1967 193.898C86.4368 194.558 86.4964 195.28 86.3753 196.063C86.2506 196.871 85.9524 197.562 85.4809 198.136C85.0139 198.708 84.4223 199.123 83.7061 199.383C82.9946 199.64 82.2072 199.701 81.3441 199.568Z" fill="#E527BB"/>
<path d="M229.111 164.044L233.621 134.847L235.492 135.135L230.982 164.333L229.111 164.044ZM237.573 145.021C237.621 144.008 237.292 143.163 236.587 142.486C235.889 141.81 234.913 141.375 233.659 141.181C232.777 141.045 232 141.061 231.328 141.23C230.655 141.399 230.117 141.685 229.712 142.09C229.307 142.494 229.055 142.989 228.957 143.573C228.882 144.06 228.927 144.499 229.092 144.89C229.265 145.283 229.526 145.634 229.875 145.945C230.225 146.248 230.623 146.52 231.069 146.76C231.514 147 231.968 147.214 232.429 147.402L234.534 148.288C235.385 148.63 236.19 149.038 236.949 149.513C237.716 149.99 238.382 150.544 238.946 151.177C239.518 151.81 239.935 152.532 240.199 153.344C240.463 154.155 240.517 155.066 240.361 156.078C240.149 157.446 239.614 158.597 238.753 159.531C237.894 160.457 236.758 161.111 235.344 161.492C233.939 161.866 232.302 161.909 230.431 161.62C228.614 161.34 227.08 160.815 225.829 160.045C224.585 159.277 223.67 158.295 223.084 157.099C222.506 155.904 222.306 154.526 222.485 152.966L226.648 153.609C226.583 154.432 226.729 155.147 227.087 155.755C227.444 156.363 227.956 156.855 228.622 157.23C229.296 157.607 230.074 157.863 230.956 158C231.876 158.142 232.703 158.129 233.437 157.962C234.18 157.789 234.787 157.486 235.259 157.053C235.732 156.612 236.024 156.058 236.135 155.39C236.221 154.78 236.12 154.251 235.831 153.802C235.544 153.345 235.105 152.934 234.515 152.571C233.934 152.201 233.242 151.845 232.438 151.502L229.886 150.408C228.039 149.616 226.634 148.632 225.671 147.456C224.718 146.273 224.37 144.846 224.628 143.173C224.841 141.797 225.4 140.649 226.304 139.73C227.217 138.812 228.363 138.168 229.744 137.797C231.126 137.419 232.634 137.356 234.269 137.609C235.927 137.865 237.334 138.378 238.492 139.149C239.658 139.913 240.52 140.86 241.078 141.989C241.636 143.11 241.825 144.331 241.645 145.65L237.573 145.021ZM251.225 164.797C249.583 164.544 248.167 164.037 246.976 163.277C245.793 162.518 244.911 161.58 244.328 160.462C243.746 159.345 243.533 158.125 243.691 156.802L247.979 157.465C247.92 158.102 248.044 158.685 248.351 159.215C248.66 159.738 249.109 160.177 249.701 160.533C250.292 160.889 250.979 161.128 251.762 161.249C252.598 161.378 253.362 161.348 254.053 161.159C254.745 160.962 255.314 160.63 255.76 160.161C256.206 159.693 256.478 159.116 256.576 158.431C256.693 157.725 256.607 157.073 256.318 156.476C256.029 155.878 255.554 155.373 254.894 154.96C254.241 154.547 253.421 154.265 252.432 154.112L250.368 153.793L250.872 150.532L252.936 150.85C253.75 150.976 254.482 150.945 255.134 150.758C255.793 150.572 256.337 150.251 256.766 149.795C257.195 149.332 257.459 148.762 257.556 148.084C257.665 147.424 257.606 146.827 257.377 146.293C257.157 145.753 256.794 145.304 256.289 144.946C255.791 144.589 255.178 144.354 254.448 144.241C253.733 144.131 253.051 144.158 252.403 144.322C251.755 144.487 251.208 144.78 250.761 145.201C250.316 145.615 250.031 146.147 249.907 146.798L245.836 146.169C246.068 144.866 246.622 143.776 247.497 142.899C248.381 142.015 249.474 141.39 250.776 141.023C252.079 140.648 253.488 140.578 255.001 140.812C256.559 141.052 257.868 141.554 258.925 142.317C259.992 143.073 260.765 143.991 261.244 145.069C261.724 146.147 261.872 147.28 261.689 148.466C261.493 149.782 260.935 150.825 260.015 151.594C259.102 152.363 257.993 152.788 256.688 152.866L256.66 153.049C258.267 153.531 259.432 154.333 260.154 155.457C260.884 156.574 261.133 157.862 260.9 159.32C260.698 160.628 260.144 161.742 259.239 162.661C258.343 163.573 257.2 164.222 255.809 164.606C254.426 164.992 252.898 165.056 251.225 164.797ZM272.377 168.193C270.499 167.903 268.96 167.179 267.761 166.021C266.571 164.856 265.754 163.317 265.31 161.403C264.875 159.483 264.854 157.249 265.248 154.702C265.649 152.156 266.345 150.045 267.335 148.369C268.335 146.686 269.576 145.476 271.06 144.74C272.552 144.005 274.233 143.782 276.103 144.071C277.974 144.36 279.509 145.08 280.709 146.231C281.909 147.382 282.728 148.909 283.166 150.814C283.611 152.72 283.637 154.943 283.245 157.482C282.85 160.037 282.152 162.164 281.15 163.862C280.157 165.553 278.914 166.77 277.421 167.513C275.936 168.257 274.255 168.483 272.377 168.193ZM272.928 164.623C274.388 164.849 275.651 164.308 276.717 163.002C277.792 161.689 278.546 159.629 278.979 156.824C279.266 154.968 279.313 153.38 279.12 152.058C278.927 150.736 278.527 149.701 277.918 148.953C277.311 148.197 276.524 147.745 275.559 147.596C274.106 147.371 272.847 147.916 271.78 149.23C270.714 150.537 269.962 152.581 269.524 155.363C269.229 157.225 269.173 158.82 269.357 160.148C269.549 161.478 269.949 162.521 270.556 163.276C271.164 164.024 271.955 164.473 272.928 164.623ZM293.799 171.502C291.921 171.212 290.382 170.488 289.183 169.33C287.993 168.165 287.176 166.626 286.732 164.712C286.297 162.792 286.276 160.559 286.669 158.011C287.07 155.466 287.766 153.354 288.757 151.678C289.757 149.995 290.998 148.786 292.482 148.05C293.973 147.315 295.654 147.092 297.525 147.381C299.395 147.669 300.931 148.389 302.131 149.54C303.331 150.691 304.15 152.219 304.587 154.123C305.032 156.029 305.059 158.252 304.667 160.792C304.272 163.346 303.574 165.473 302.572 167.171C301.579 168.862 300.336 170.08 298.843 170.822C297.358 171.566 295.677 171.793 293.799 171.502ZM294.35 167.933C295.81 168.158 297.073 167.618 298.139 166.311C299.214 164.998 299.968 162.938 300.401 160.133C300.688 158.277 300.735 156.689 300.542 155.367C300.349 154.045 299.948 153.01 299.34 152.262C298.733 151.506 297.946 151.054 296.98 150.905C295.528 150.68 294.269 151.225 293.201 152.54C292.135 153.846 291.384 155.89 290.946 158.672C290.651 160.534 290.595 162.129 290.779 163.457C290.971 164.787 291.37 165.83 291.978 166.585C292.586 167.333 293.377 167.782 294.35 167.933Z" fill="#E527BB"/>
<path d="M414.8 127.373L418.538 112.377L419.499 112.617L415.76 127.612L414.8 127.373ZM420.113 117.866C420.186 117.34 420.055 116.885 419.72 116.498C419.389 116.113 418.901 115.84 418.257 115.679C417.804 115.566 417.398 115.538 417.04 115.594C416.682 115.649 416.387 115.773 416.157 115.965C415.927 116.156 415.772 116.402 415.693 116.701C415.631 116.951 415.634 117.182 415.701 117.394C415.773 117.607 415.892 117.802 416.059 117.981C416.227 118.155 416.421 118.316 416.642 118.462C416.863 118.608 417.089 118.742 417.32 118.861L418.375 119.423C418.801 119.641 419.201 119.893 419.574 120.176C419.951 120.461 420.272 120.782 420.535 121.138C420.803 121.495 420.986 121.891 421.085 122.326C421.184 122.762 421.169 123.239 421.039 123.758C420.864 124.461 420.53 125.035 420.037 125.481C419.546 125.922 418.923 126.209 418.168 126.34C417.419 126.468 416.563 126.413 415.603 126.173C414.669 125.94 413.895 125.594 413.28 125.134C412.669 124.674 412.239 124.119 411.99 123.468C411.746 122.818 411.707 122.091 411.875 121.287L414.013 121.82C413.94 122.245 413.982 122.625 414.139 122.959C414.297 123.292 414.54 123.573 414.869 123.8C415.202 124.028 415.595 124.199 416.048 124.312C416.521 124.43 416.952 124.463 417.343 124.411C417.738 124.356 418.069 124.227 418.335 124.023C418.602 123.816 418.781 123.541 418.87 123.199C418.944 122.885 418.917 122.605 418.788 122.357C418.66 122.105 418.451 121.871 418.161 121.653C417.876 121.433 417.532 121.214 417.13 120.998L415.852 120.306C414.928 119.806 414.243 119.227 413.797 118.568C413.356 117.906 413.243 117.146 413.457 116.287C413.634 115.58 413.979 115.009 414.494 114.573C415.013 114.139 415.641 113.857 416.378 113.73C417.116 113.599 417.905 113.638 418.744 113.847C419.596 114.059 420.305 114.394 420.871 114.85C421.442 115.304 421.846 115.838 422.083 116.453C422.32 117.064 422.361 117.708 422.204 118.387L420.113 117.866ZM422.02 127.58L422.411 126.01L427.594 122.966C428.092 122.663 428.513 122.389 428.857 122.142C429.2 121.896 429.475 121.643 429.681 121.383C429.886 121.124 430.031 120.828 430.113 120.496C430.208 120.117 430.203 119.771 430.098 119.459C429.995 119.143 429.811 118.873 429.547 118.65C429.283 118.426 428.96 118.267 428.578 118.172C428.183 118.073 427.817 118.069 427.479 118.159C427.143 118.245 426.855 118.416 426.617 118.672C426.383 118.929 426.215 119.263 426.113 119.673L424.045 119.157C424.235 118.396 424.574 117.777 425.062 117.301C425.549 116.826 426.136 116.509 426.822 116.353C427.512 116.197 428.254 116.218 429.046 116.416C429.851 116.616 430.52 116.943 431.054 117.396C431.589 117.848 431.958 118.378 432.164 118.985C432.373 119.593 432.394 120.233 432.227 120.904C432.115 121.354 431.919 121.773 431.639 122.164C431.359 122.555 430.936 122.96 430.372 123.379C429.811 123.799 429.048 124.287 428.084 124.843L425.492 126.43L425.471 126.512L430.696 127.815L430.244 129.631L422.02 127.58ZM436.488 131.362C435.617 131.145 434.881 130.805 434.278 130.344C433.679 129.884 433.252 129.352 432.996 128.749C432.745 128.143 432.702 127.516 432.867 126.869C432.989 126.364 433.214 125.929 433.541 125.563C433.869 125.196 434.257 124.92 434.706 124.733C435.16 124.544 435.631 124.468 436.119 124.507L436.14 124.425C435.557 124.134 435.135 123.695 434.875 123.108C434.62 122.517 434.575 121.899 434.741 121.251C434.891 120.633 435.2 120.126 435.668 119.728C436.136 119.33 436.708 119.068 437.382 118.942C438.058 118.812 438.784 118.844 439.561 119.037C440.33 119.229 440.98 119.541 441.512 119.972C442.048 120.4 442.429 120.899 442.656 121.47C442.887 122.042 442.925 122.637 442.772 123.254C442.61 123.902 442.274 124.426 441.764 124.825C441.258 125.222 440.686 125.413 440.047 125.399L440.026 125.481C440.475 125.676 440.852 125.963 441.156 126.341C441.464 126.717 441.677 127.143 441.795 127.62C441.916 128.099 441.914 128.59 441.788 129.093C441.627 129.742 441.291 130.274 440.781 130.69C440.271 131.102 439.644 131.371 438.9 131.496C438.159 131.623 437.355 131.578 436.488 131.362ZM436.906 129.687C437.355 129.799 437.764 129.82 438.134 129.75C438.505 129.677 438.817 129.522 439.071 129.287C439.325 129.052 439.499 128.751 439.595 128.385C439.686 128.001 439.671 127.638 439.549 127.297C439.431 126.952 439.226 126.654 438.932 126.403C438.641 126.152 438.284 125.973 437.858 125.867C437.428 125.76 437.025 125.749 436.647 125.833C436.269 125.917 435.946 126.083 435.677 126.331C435.412 126.577 435.234 126.891 435.143 127.275C435.047 127.641 435.056 127.987 435.17 128.314C435.284 128.637 435.488 128.918 435.781 129.157C436.078 129.397 436.453 129.574 436.906 129.687ZM438.268 124.221C438.635 124.313 438.978 124.32 439.296 124.241C439.618 124.164 439.894 124.013 440.125 123.788C440.355 123.564 440.515 123.278 440.606 122.931C440.688 122.587 440.681 122.266 440.585 121.968C440.49 121.666 440.317 121.41 440.067 121.198C439.818 120.983 439.508 120.829 439.137 120.736C438.759 120.642 438.407 120.631 438.082 120.703C437.762 120.773 437.489 120.918 437.263 121.14C437.043 121.359 436.892 121.64 436.81 121.985C436.72 122.332 436.721 122.658 436.815 122.963C436.914 123.266 437.087 123.529 437.334 123.752C437.586 123.972 437.897 124.129 438.268 124.221ZM447.29 134.123C446.325 133.883 445.558 133.432 444.988 132.772C444.424 132.109 444.071 131.268 443.931 130.25C443.796 129.229 443.891 128.064 444.217 126.756C444.547 125.449 445.01 124.382 445.606 123.556C446.207 122.727 446.912 122.156 447.72 121.843C448.531 121.531 449.418 121.495 450.378 121.735C451.339 121.974 452.105 122.422 452.675 123.079C453.246 123.735 453.599 124.57 453.737 125.583C453.878 126.597 453.786 127.756 453.461 129.061C453.134 130.373 452.669 131.447 452.066 132.284C451.468 133.118 450.763 133.693 449.95 134.009C449.141 134.326 448.254 134.364 447.29 134.123ZM447.747 132.29C448.496 132.477 449.18 132.255 449.798 131.625C450.42 130.992 450.911 129.956 451.27 128.515C451.508 127.562 451.608 126.736 451.57 126.038C451.532 125.341 451.373 124.782 451.092 124.364C450.811 123.941 450.423 123.668 449.927 123.545C449.181 123.359 448.499 123.583 447.881 124.216C447.263 124.846 446.774 125.876 446.414 127.304C446.172 128.26 446.067 129.088 446.099 129.789C446.136 130.491 446.294 131.053 446.575 131.475C446.856 131.894 447.247 132.165 447.747 132.29Z" fill="#E527BB"/>
</g>
<path d="M382.972 99.4775C396.434 95.7059 404.286 81.7499 400.509 68.3058C396.733 54.8617 382.758 47.0205 369.295 50.7921C355.833 54.5636 347.981 68.5197 351.758 81.9638C355.535 95.4079 369.51 103.249 382.972 99.4775Z" fill="#007CFF"/>
<path d="M382.972 99.4775C396.434 95.7059 404.286 81.7499 400.509 68.3058C396.733 54.8617 382.758 47.0205 369.295 50.7921C355.833 54.5636 347.981 68.5197 351.758 81.9638C355.535 95.4079 369.51 103.249 382.972 99.4775Z" fill="#B21093"/>
<path d="M392.706 91.6331C402.593 81.7595 402.593 65.7512 392.706 55.8776C382.819 46.004 366.789 46.004 356.902 55.8776C347.015 65.7512 347.015 81.7595 356.902 91.6331C366.789 101.507 382.819 101.507 392.706 91.6331Z" fill="#E527BB"/>
<path d="M389.678 88.6086C397.893 80.4054 397.893 67.1054 389.678 58.9022C381.464 50.6989 368.146 50.6989 359.932 58.9021C351.718 67.1054 351.718 80.4054 359.932 88.6086C368.146 96.8118 381.464 96.8118 389.678 88.6086Z" fill="white"/>
<path d="M364.714 88.658L367.508 84.5247C367.59 84.5801 367.672 84.6333 367.754 84.6864L365.062 88.8863C364.945 88.8109 364.829 88.7356 364.714 88.658ZM359.137 82.6297C359.068 82.5079 358.999 82.386 358.935 82.2618L363.34 79.9126C363.387 79.999 363.434 80.0855 363.482 80.1697L359.137 82.6297ZM372.803 91.6367L373.351 86.6789L373.662 86.7099L373.207 91.6766C373.072 91.6655 372.936 91.65 372.803 91.6367ZM356.798 74.3431C356.794 74.2057 356.791 74.0683 356.789 73.9287L361.782 73.8799L361.789 74.1813L356.798 74.3431ZM381.347 90.5175L379.53 85.8722L379.812 85.7591L381.802 90.3335L381.685 90.3823C381.603 90.4177 381.476 90.4687 381.347 90.5175ZM358.587 65.9257C358.647 65.7994 358.709 65.6753 358.771 65.5534L363.218 67.8206C363.174 67.9093 363.129 67.9979 363.087 68.0866L358.587 65.9257ZM384.665 82.2552C384.727 82.1843 384.787 82.1134 384.847 82.0402L388.704 85.2095C388.613 85.3203 388.52 85.4289 388.427 85.5375L384.665 82.2552ZM367.053 63.3016L364.09 59.288L364.414 59.053L367.306 63.1177L367.053 63.3016ZM387.488 76.7189L387.555 76.422L392.439 77.4636C392.41 77.5966 392.382 77.7296 392.348 77.8625L387.488 76.7189ZM372.81 60.8992L372.04 55.9724C372.173 55.9525 372.306 55.9325 372.439 55.9148L373.121 60.8549L372.81 60.8992ZM387.419 70.4979C387.395 70.4048 387.37 70.3117 387.344 70.2186L392.146 68.849C392.184 68.9842 392.222 69.1216 392.257 69.2568L387.419 70.4979ZM379.015 61.4444L380.628 56.7237C380.764 56.7703 380.897 56.8168 381.032 56.8678L379.286 61.5397C379.195 61.5065 379.106 61.4754 379.015 61.4444ZM384.463 65.0215L384.261 64.802L387.885 61.3713C387.981 61.471 388.074 61.5729 388.167 61.6749L384.463 65.0215Z" fill="black"/>
<path d="M369.52 65.9456L374.539 74.5691L382.662 66.6791" stroke="black" stroke-miterlimit="10" stroke-linecap="round" stroke-linejoin="round"/>
<path d="M376.008 74.9614C375.436 75.613 374.444 75.6772 373.791 75.1077C373.139 74.5359 373.074 73.5452 373.645 72.8936C374.217 72.242 375.209 72.1777 375.862 72.7473C376.514 73.3191 376.578 74.3098 376.008 74.9614Z" fill="black"/>
<path opacity="0.3" d="M360.774 60.2321C369.11 52.1516 382.425 52.3488 390.517 60.6731C392.505 62.7188 393.985 65.0658 394.975 67.5613C394.036 64.4364 392.368 61.4799 389.935 58.9777C381.844 50.6534 368.528 50.4561 360.193 58.5367C353.906 64.6314 352.254 73.6937 355.293 81.351C353.111 74.0816 354.944 65.8836 360.774 60.2321Z" fill="black"/>
</g>
<defs>
<clipPath id="clip0_1696_6904">
<rect width="542.64" height="328.79" fill="white"/>
</clipPath>
<clipPath id="clip1_1696_6904">
<rect width="535.383" height="245.214" fill="white" transform="translate(4 84)"/>
</clipPath>
</defs>
</svg>
