<svg width="20" height="20" viewBox="0 0 20 20" fill="none" xmlns="http://www.w3.org/2000/svg">
<path d="M9.99902 15.6104C12.3264 15.6104 14.5617 16.5958 16.1592 18.2832L16.5811 18.7354L15.6738 19.5957L15.251 19.1426C13.876 17.6728 12.0158 16.8604 10.001 16.8604C7.98609 16.8604 6.12591 17.6726 4.75098 19.1426L4.3291 19.5957L3.4209 18.7354L3.84082 18.2832C5.43582 16.5807 7.67152 15.6104 9.99902 15.6104ZM9.99902 6.42285C12.0613 6.42309 13.749 8.1105 13.749 10.1729C13.749 12.2352 12.0613 13.9226 9.99902 13.9229C7.93653 13.9229 6.24903 12.2353 6.24902 10.1729C6.24902 8.11035 7.93652 6.42285 9.99902 6.42285ZM9.99902 7.67285C8.62402 7.67285 7.49902 8.79785 7.49902 10.1729C7.49903 11.5478 8.62403 12.6729 9.99902 12.6729C11.3738 12.6726 12.499 11.5477 12.499 10.1729C12.499 8.798 11.3738 7.67309 9.99902 7.67285ZM4.84375 8.5957C3.37388 8.59571 1.999 9.19025 0.999023 10.2676L0.09375 9.4082C1.31124 8.09571 3.04626 7.34571 4.84375 7.3457V8.5957ZM15.1562 7.3457C16.9512 7.34572 18.6857 8.09575 19.9082 9.4082L19.001 10.2676C17.9835 9.19025 16.6261 8.59572 15.1562 8.5957V7.3457ZM4.84082 0C6.48082 0 7.82617 1.34535 7.82617 2.98535C7.82617 4.62535 6.48375 5.9707 4.84375 5.9707C3.20376 5.97069 1.8584 4.62534 1.8584 2.98535C1.8584 1.3455 3.20102 0.000245152 4.84082 0ZM15.1533 0C16.7933 0 18.1387 1.34535 18.1387 2.98535C18.1387 4.62535 16.7962 5.9707 15.1562 5.9707C13.5163 5.97069 12.1709 4.62534 12.1709 2.98535C12.1709 1.3455 13.5135 0.00024553 15.1533 0ZM4.84375 1.25C3.89126 1.25001 3.1084 2.03286 3.1084 2.98535C3.1084 3.93784 3.89126 4.72069 4.84375 4.7207C5.79625 4.7207 6.5791 3.93785 6.5791 2.98535C6.5791 2.03285 5.79625 1.25 4.84375 1.25ZM15.1562 1.25C14.2038 1.25001 13.4209 2.03286 13.4209 2.98535C13.4209 3.93784 14.2038 4.72069 15.1562 4.7207C16.1087 4.7207 16.8916 3.93785 16.8916 2.98535C16.8916 2.03285 16.1087 1.25 15.1562 1.25Z" fill="url(#paint0_linear_558_657)"/>
<defs>
<linearGradient id="paint0_linear_558_657" x1="10.001" y1="0" x2="10.001" y2="19.5957" gradientUnits="userSpaceOnUse">
<stop stop-color="#E527BB"/>
<stop offset="1" stop-color="#A78BEF"/>
</linearGradient>
</defs>
</svg>
