<svg width="20" height="20" viewBox="0 0 20 20" fill="none" xmlns="http://www.w3.org/2000/svg">
<g clip-path="url(#clip0_439_5697)">
<path d="M9.99805 6.56249C7.93555 6.56249 6.24805 8.24999 6.24805 10.3125C6.24805 12.375 7.93555 14.0625 9.99805 14.0625C12.0605 14.0625 13.748 12.375 13.748 10.3125C13.748 8.24999 12.0605 6.56249 9.99805 6.56249ZM9.99805 12.8125C8.62305 12.8125 7.49805 11.6875 7.49805 10.3125C7.49805 8.93749 8.62305 7.81249 9.99805 7.81249C11.373 7.81249 12.498 8.93749 12.498 10.3125C12.498 11.6875 11.373 12.8125 9.99805 12.8125Z" fill="url(#paint0_linear_439_5697)"/>
<path d="M9.99938 15.75C7.67188 15.75 5.43688 16.72 3.84188 18.4225L3.42188 18.875L4.32938 19.735L4.75188 19.2825C6.12688 17.8125 7.98688 17 10.0019 17C12.0169 17 13.8769 17.8125 15.2519 19.2825L15.6744 19.735L16.5819 18.875L16.1594 18.4225C14.5619 16.735 12.3269 15.75 9.99938 15.75Z" fill="url(#paint1_linear_439_5697)"/>
<path d="M15.1562 7.48499V8.73499C16.6263 8.73499 17.9837 9.32999 19.0012 10.4075L19.9088 9.54749C18.6863 8.23499 16.9513 7.48499 15.1562 7.48499Z" fill="url(#paint2_linear_439_5697)"/>
<path d="M18.1394 3.12499C18.1394 1.48499 16.7944 0.139992 15.1544 0.139992C13.5144 0.139992 12.1719 1.48499 12.1719 3.12499C12.1719 4.76499 13.5169 6.10999 15.1569 6.10999C16.7969 6.10999 18.1394 4.76499 18.1394 3.12499ZM13.4219 3.12499C13.4219 2.17249 14.2044 1.38999 15.1569 1.38999C16.1094 1.38999 16.8919 2.17249 16.8919 3.12499C16.8919 4.07749 16.1094 4.85999 15.1569 4.85999C14.2044 4.85999 13.4219 4.07749 13.4219 3.12499Z" fill="url(#paint3_linear_439_5697)"/>
<path d="M4.84375 7.48499C3.04625 7.48499 1.31125 8.23499 0.09375 9.54749L0.99875 10.4075C1.99875 9.32999 3.37375 8.73499 4.84375 8.73499V7.48499Z" fill="url(#paint4_linear_439_5697)"/>
<path d="M7.82688 3.12499C7.82688 1.48499 6.48187 0.139992 4.84187 0.139992C3.20187 0.139992 1.85938 1.48499 1.85938 3.12499C1.85938 4.76499 3.20438 6.10999 4.84438 6.10999C6.48438 6.10999 7.82688 4.76499 7.82688 3.12499ZM4.84438 4.85999C3.89188 4.85999 3.10938 4.07749 3.10938 3.12499C3.10938 2.17249 3.89188 1.38999 4.84438 1.38999C5.79688 1.38999 6.57938 2.17249 6.57938 3.12499C6.57938 4.07749 5.79688 4.85999 4.84438 4.85999Z" fill="url(#paint5_linear_439_5697)"/>
</g>
<defs>
<linearGradient id="paint0_linear_439_5697" x1="9.99805" y1="6.56249" x2="9.99805" y2="14.0625" gradientUnits="userSpaceOnUse">
<stop stop-color="#E527BB"/>
<stop offset="1" stop-color="#A78BEF"/>
</linearGradient>
<linearGradient id="paint1_linear_439_5697" x1="10.0019" y1="15.75" x2="10.0019" y2="19.735" gradientUnits="userSpaceOnUse">
<stop stop-color="#E527BB"/>
<stop offset="1" stop-color="#A78BEF"/>
</linearGradient>
<linearGradient id="paint2_linear_439_5697" x1="17.5325" y1="7.48499" x2="17.5325" y2="10.4075" gradientUnits="userSpaceOnUse">
<stop stop-color="#E527BB"/>
<stop offset="1" stop-color="#A78BEF"/>
</linearGradient>
<linearGradient id="paint3_linear_439_5697" x1="15.1556" y1="0.139992" x2="15.1556" y2="6.10999" gradientUnits="userSpaceOnUse">
<stop stop-color="#E527BB"/>
<stop offset="1" stop-color="#A78BEF"/>
</linearGradient>
<linearGradient id="paint4_linear_439_5697" x1="2.46875" y1="7.48499" x2="2.46875" y2="10.4075" gradientUnits="userSpaceOnUse">
<stop stop-color="#E527BB"/>
<stop offset="1" stop-color="#A78BEF"/>
</linearGradient>
<linearGradient id="paint5_linear_439_5697" x1="4.84313" y1="0.139992" x2="4.84313" y2="6.10999" gradientUnits="userSpaceOnUse">
<stop stop-color="#E527BB"/>
<stop offset="1" stop-color="#A78BEF"/>
</linearGradient>
<clipPath id="clip0_439_5697">
<rect width="20" height="20" fill="white"/>
</clipPath>
</defs>
</svg>
