<svg width="543" height="329" viewBox="0 0 543 329" fill="none" xmlns="http://www.w3.org/2000/svg">
<g clip-path="url(#clip0_1689_6655)">
<path opacity="0.2" d="M128.492 325.584L413.142 308.934C488.412 304.534 546.652 240.734 543.512 165.394C540.872 102.084 518.192 34.6439 441.912 5.8239C388.262 -14.4461 318.592 2.1439 274.402 35.8539C263.782 43.9539 254.022 53.2439 242.612 60.1739C216.022 76.3239 192.672 65.1739 164.972 60.8839C106.412 51.7939 47.9621 70.4639 17.7021 124.434C-28.7579 207.354 26.0421 331.574 128.492 325.584Z" fill="#999999"/>
<path d="M443.815 306.633H415.262V306.845H443.815V306.633Z" fill="#ECECEC"/>
<path d="M341.513 308.973H334.021V309.184H341.513V308.973Z" fill="#ECECEC"/>
<path d="M414.395 298.648H397.854V298.86H414.395V298.648Z" fill="#ECECEC"/>
<path d="M138.459 300.094H101.225V300.306H138.459V300.094Z" fill="#ECECEC"/>
<path d="M151.587 300.094H146.125V300.306H151.587V300.094Z" fill="#ECECEC"/>
<path d="M250.078 303.723H169.326V303.935H250.078V303.723Z" fill="#ECECEC"/>
<path d="M487 292.781H56V292.993H487V292.781Z" fill="#ECECEC"/>
<path d="M325.074 292.57H130.553L128.947 287.071H326.67L325.074 292.57Z" fill="#E1E1E1"/>
<path d="M225.954 212.479H120.035V248.978H225.954V212.479Z" fill="#ECECEC"/>
<path d="M225.954 248.979H120.035V285.478H225.954V248.979Z" fill="#ECECEC"/>
<path d="M225.961 218.094V214.401L120.042 214.401V218.094L225.961 218.094Z" fill="#E1E1E1"/>
<path d="M225.965 254.31V250.617L120.046 250.617V254.31L225.965 254.31Z" fill="#E1E1E1"/>
<path d="M118.189 210.84V287.071H120.035H121.88H224.099H225.944H227.789V210.84H118.189ZM224.108 283.378H121.889V250.903H224.108V283.378ZM224.108 247.219H121.889V214.745H224.108V247.219Z" fill="#F5F5F5"/>
<path d="M335.581 212.479H229.662V248.978H335.581V212.479Z" fill="#ECECEC"/>
<path d="M335.581 248.979H229.662V285.478H335.581V248.979Z" fill="#ECECEC"/>
<path d="M335.584 218.091V214.398L229.665 214.398V218.091L335.584 218.091Z" fill="#E1E1E1"/>
<path d="M335.586 254.307V250.614L229.667 250.614V254.307L335.586 254.307Z" fill="#E1E1E1"/>
<path d="M227.809 210.84V287.071H229.654H231.499H333.718H335.563H337.408V210.84H227.809ZM333.737 283.378H231.517V250.903H333.737V283.378ZM333.737 247.219H231.517V214.745H333.737V247.219Z" fill="#F5F5F5"/>
<path d="M285.799 234.15C285.799 235.9 284.378 237.328 282.616 237.328C280.864 237.328 279.434 235.909 279.434 234.15C279.434 232.4 280.854 230.973 282.616 230.973C284.378 230.973 285.799 232.4 285.799 234.15Z" fill="#E1E1E1"/>
<path d="M285.799 233.257C285.799 235.007 284.378 236.434 282.616 236.434C280.864 236.434 279.434 235.016 279.434 233.257C279.434 231.507 280.854 230.079 282.616 230.079C284.378 230.079 285.799 231.498 285.799 233.257Z" fill="#FAFAFA"/>
<path d="M285.799 267.675C285.799 269.425 284.378 270.852 282.616 270.852C280.864 270.852 279.434 269.434 279.434 267.675C279.434 265.925 280.854 264.497 282.616 264.497C284.378 264.497 285.799 265.925 285.799 267.675Z" fill="#E1E1E1"/>
<path d="M285.799 266.781C285.799 268.531 284.378 269.959 282.616 269.959C280.864 269.959 279.434 268.541 279.434 266.781C279.434 265.032 280.854 263.604 282.616 263.604C284.378 263.604 285.799 265.032 285.799 266.781Z" fill="#FAFAFA"/>
<path d="M176.182 234.15C176.182 235.9 174.761 237.328 172.999 237.328C171.246 237.328 169.816 235.909 169.816 234.15C169.816 232.4 171.237 230.973 172.999 230.973C174.752 230.973 176.182 232.4 176.182 234.15Z" fill="#E1E1E1"/>
<path d="M176.182 233.257C176.182 235.007 174.761 236.434 172.999 236.434C171.246 236.434 169.816 235.016 169.816 233.257C169.816 231.507 171.237 230.079 172.999 230.079C174.752 230.079 176.182 231.498 176.182 233.257Z" fill="#FAFAFA"/>
<path d="M176.182 267.675C176.182 269.425 174.761 270.852 172.999 270.852C171.246 270.852 169.816 269.434 169.816 267.675C169.816 265.925 171.237 264.497 172.999 264.497C174.752 264.497 176.182 265.925 176.182 267.675Z" fill="#E1E1E1"/>
<path d="M176.182 266.781C176.182 268.531 174.761 269.959 172.999 269.959C171.246 269.959 169.816 268.541 169.816 266.781C169.816 265.032 171.237 263.604 172.999 263.604C174.752 263.604 176.182 265.032 176.182 266.781Z" fill="#FAFAFA"/>
<path d="M380.706 109.616H384.498V98.5828H380.706V109.616Z" fill="#1A2E35"/>
<path d="M370.224 92.3157C370.703 88.9908 373.259 86.9922 376.322 86.937C376.7 86.9278 379.255 86.9462 379.726 86.937C380.123 86.9278 380.529 86.9462 380.935 87.0107C382.18 87.1857 383.222 87.2962 384.219 87.3514C385.224 87.287 386.304 87.1764 387.586 87.0107C388.047 86.9462 391.701 86.9462 392.014 86.937C395.179 86.9094 397.338 88.9171 396.987 92.3157C396.978 92.3893 396.978 92.417 396.969 92.4907C396.581 96.2299 393.223 100.264 389.45 100.761C386.599 101.139 384.708 101.259 382.512 101.12C380.289 101.259 378.425 101.139 375.667 100.761C372.013 100.264 369.652 96.2299 370.187 92.4814C370.205 92.417 370.214 92.3893 370.224 92.3157Z" fill="#E527BB"/>
<path d="M396.184 103.589C395.686 103.607 393.352 103.552 392.623 103.589C392.042 103.616 391.424 103.718 390.769 103.893C387.346 104.804 384.588 105.339 381.977 105.504C379.412 105.339 376.783 104.804 373.581 103.893C372.779 103.662 371.995 103.561 371.257 103.579C370.731 103.589 368.517 103.579 367.926 103.579C365.168 103.598 362.99 105.293 362.511 108.442C360.767 119.918 359.033 131.385 357.289 142.86H389.505C392.54 142.86 395.354 141.949 397.706 140.392C398.712 129.745 399.717 119.089 400.723 108.442C401.027 105.182 399.127 103.478 396.184 103.589Z" fill="#E527BB"/>
<path d="M375.676 100.77C379.726 101.323 381.829 101.323 386.008 100.77C389.781 100.273 393.14 96.2391 393.527 92.4998C393.536 92.4261 393.536 92.3985 393.545 92.3248C393.933 88.5855 391.267 86.5225 387.586 87.0198C383.499 87.5632 381.442 87.5632 377.484 87.0198C373.923 86.5317 370.749 88.5855 370.214 92.3248C370.205 92.3985 370.196 92.4261 370.186 92.4998C369.66 96.2299 372.022 100.264 375.676 100.77Z" fill="#E527BB"/>
<path opacity="0.2" d="M390.769 103.893C382.402 106.121 377.964 106.121 370.141 103.893C366.386 102.824 363.12 104.491 362.521 108.442C360.777 119.918 359.042 131.385 357.299 142.86H389.515C391.12 142.86 392.66 142.602 394.1 142.133C395.161 130.906 396.222 119.679 397.273 108.452C397.651 104.491 394.782 102.824 390.769 103.893Z" fill="white"/>
<path d="M339.077 125.849L333.135 126.42L324.039 124.274L320.736 129.708L322.858 130.795L325.82 129.883L329.925 130.694L333.606 130.114L340.608 130.289L339.077 125.849Z" fill="#FFC3BD"/>
<path d="M336.668 125.619L338.079 130.685C338.079 130.685 348.32 132.075 352.342 130.316C356.365 128.557 353.329 98.8917 349.455 99.2232C345.589 99.5456 347.711 115.958 347.711 121.115C347.72 125.057 336.668 125.619 336.668 125.619Z" fill="#007CFF"/>
<path d="M336.668 125.619L338.079 130.685C338.079 130.685 348.32 132.075 352.342 130.316C356.365 128.557 353.329 98.8917 349.455 99.2232C345.589 99.5456 347.711 115.958 347.711 121.115C347.72 125.057 336.668 125.619 336.668 125.619Z" fill="#8165E5"/>
<path d="M348.7 99.2601C344.825 104.795 353.737 113.49 353.921 142.861H382.705C383.545 134.931 386.515 103.838 382.373 97.9707C377.603 91.2382 352.39 93.9828 348.7 99.2601Z" fill="#A78BEF"/>
<path d="M358.007 94.0104C358.007 94.0104 351.124 96.6076 357.352 102.686L360.673 101.323L365.452 102.686C365.452 102.686 377.583 89.3132 358.007 94.0104Z" fill="#007CFF"/>
<path d="M358.007 94.0104C358.007 94.0104 351.124 96.6076 357.352 102.686L360.673 101.323L365.452 102.686C365.452 102.686 377.583 89.3132 358.007 94.0104Z" fill="#8165E5"/>
<path d="M358.958 100.236C357.269 98.8547 355.295 96.7364 356.965 95.3457C360.102 94.5813 363.783 94.1024 367.408 94.0103C368.377 94.6457 367.833 96.3128 362.639 100.292C361.55 101.12 360.028 101.102 358.958 100.236Z" fill="#FFC3BD"/>
<path d="M357.195 91.4684L362.97 85.2056C363.524 90.0132 366.08 93.9459 366.596 94.1025L365.96 96.3037C358.957 104.16 357.343 96.6168 357.343 96.6168C359.05 95.1985 357.195 91.4684 357.195 91.4684Z" fill="#FFC3BD"/>
<path opacity="0.2" d="M360.655 87.7197L363.349 87.4526C363.349 87.4526 363.229 95.5114 357.712 96.2022C358.736 94.572 357.195 91.4774 357.195 91.4774L360.655 87.7197Z" fill="#1A2E35"/>
<path d="M362.188 78.3255C363.433 84.0173 364.466 87.2776 362.483 91.0353C360.582 94.7654 356.016 96.239 352.279 94.3417C350.905 93.6418 349.779 92.5458 349.05 91.1919C346.43 86.5593 344.816 78.0307 349.604 74.0704C352.787 71.2798 357.639 71.5929 360.435 74.7704C361.311 75.7835 361.92 77.0084 362.188 78.3255Z" fill="#FFC3BD"/>
<path d="M359.078 69.7969C340.7 66.2787 346.079 81.2174 346.079 81.2174C346.079 81.2174 346.217 78.657 348.616 78.657C351.005 78.657 353.118 76.7782 353.118 76.7782C351.707 78.482 349.889 78.9978 349.889 78.9978C354.077 79.0623 356.661 76.594 358.072 74.6046C358.072 74.6046 358.229 75.4243 358.229 75.8756C358.229 77.9755 359.936 79.1175 360.794 81.9726C361.652 84.8277 365.065 81.9726 365.065 81.9726C369.835 69.7233 359.078 69.7969 359.078 69.7969Z" fill="#1A2E35"/>
<path d="M365.628 82.3596C365.6 83.6582 365.083 84.9108 364.179 85.841C362.98 87.0567 361.615 86.1449 361.301 84.5424C361.024 83.0872 361.31 80.7202 362.823 80.1123C364.345 79.5045 365.646 80.7478 365.628 82.3596Z" fill="#FFC3BD"/>
<path d="M359.381 70.626C359.381 70.626 355.497 65.892 352.804 67.1446C350.11 68.4156 357.73 68.7195 359.381 70.626Z" fill="#1A2E35"/>
<path d="M359.086 126.835L353.154 127.406L344.058 124.357L339.842 128.88L341.964 129.957H345.838L349.935 131.679L353.625 131.108L360.627 131.274L359.086 126.835Z" fill="#FFC3BD"/>
<path d="M380.906 97.4916C378.996 96.193 376.948 97.4548 374.882 109.336C372.428 123.436 370.795 124.072 356.68 126.605L358.211 131.67C358.211 131.67 370.26 133.153 376.09 129.368C381.93 125.582 386.063 101.001 380.906 97.4916Z" fill="#007CFF"/>
<path d="M380.906 97.4916C378.996 96.193 376.948 97.4548 374.882 109.336C372.428 123.436 370.795 124.072 356.68 126.605L358.211 131.67C358.211 131.67 370.26 133.153 376.09 129.368C381.93 125.582 386.063 101.001 380.906 97.4916Z" fill="#8165E5"/>
<path d="M363.729 133.088H284.961C285.468 134.488 286.179 135.787 287.064 136.947H363.729C364.799 136.947 365.666 136.082 365.666 135.013C365.657 133.954 364.799 133.088 363.729 133.088Z" fill="#1A2E35"/>
<path opacity="0.6" d="M363.729 133.088H284.961C285.468 134.488 286.179 135.787 287.064 136.947H363.729C364.799 136.947 365.666 136.082 365.666 135.013C365.657 133.954 364.799 133.088 363.729 133.088Z" fill="white"/>
<path d="M298.919 142.86H361.92V136.948H287.055C289.776 140.539 294.075 142.86 298.919 142.86Z" fill="#1A2E35"/>
<path opacity="0.4" d="M298.919 142.86H361.92V136.948H287.055C289.776 140.539 294.075 142.86 298.919 142.86Z" fill="white"/>
<path d="M351.587 130.583H305.68C304.989 130.583 304.426 131.145 304.426 131.836C304.426 132.527 304.989 133.088 305.68 133.088H351.587C352.279 133.088 352.842 132.527 352.842 131.836C352.842 131.145 352.279 130.583 351.587 130.583Z" fill="#1A2E35"/>
<path d="M351.587 130.583H305.68C304.989 130.583 304.426 131.145 304.426 131.836C304.426 132.527 304.989 133.088 305.68 133.088H351.587C352.279 133.088 352.842 132.527 352.842 131.836C352.842 131.145 352.279 130.583 351.587 130.583Z" fill="#C10C9F"/>
<path d="M306.372 132.324H322.064C322.47 132.324 322.756 131.919 322.627 131.532L314.02 106.996C313.78 106.324 313.143 105.864 312.424 105.864H296.731C296.325 105.864 296.039 106.269 296.168 106.656L304.776 131.191C305.015 131.873 305.652 132.324 306.372 132.324Z" fill="#1A2E35"/>
<path d="M306.372 132.324H322.064C322.47 132.324 322.756 131.919 322.627 131.532L314.02 106.996C313.78 106.324 313.143 105.864 312.424 105.864H296.731C296.325 105.864 296.039 106.269 296.168 106.656L304.776 131.191C305.015 131.873 305.652 132.324 306.372 132.324Z" fill="#C10C9F"/>
<path d="M305.616 132.324H321.308C321.714 132.324 322 131.919 321.871 131.532L313.264 106.996C313.024 106.324 312.387 105.864 311.668 105.864H295.975C295.569 105.864 295.283 106.269 295.412 106.656L304.02 131.191C304.25 131.873 304.896 132.324 305.616 132.324Z" fill="#1A2E35"/>
<path d="M305.616 132.324H321.308C321.714 132.324 322 131.919 321.871 131.532L313.264 106.996C313.024 106.324 312.387 105.864 311.668 105.864H295.975C295.569 105.864 295.283 106.269 295.412 106.656L304.02 131.191C304.25 131.873 304.896 132.324 305.616 132.324Z" fill="#E527BB"/>
<path d="M307.369 119.098C307.572 120.038 308.218 120.802 308.827 120.802C309.426 120.802 309.759 120.038 309.556 119.098C309.353 118.159 308.707 117.395 308.098 117.395C307.489 117.395 307.166 118.159 307.369 119.098Z" fill="#CC8E05"/>
<path d="M324.077 133.088C323.385 133.088 322.822 132.527 322.822 131.836C322.822 131.145 323.385 130.583 324.077 130.583H351.588C352.279 130.583 352.842 131.145 352.842 131.836C352.842 132.527 352.279 133.088 351.588 133.088H324.077Z" fill="#C10C9F"/>
<path d="M389.514 28.978H298.928C288.715 28.978 280.412 37.2671 280.412 47.4626V128.023C280.412 138.209 288.715 146.507 298.928 146.507H389.514C399.717 146.507 408.029 138.218 408.029 128.023V47.4626C408.02 37.2671 399.717 28.978 389.514 28.978ZM404.385 128.014C404.385 136.211 397.724 142.86 389.514 142.86H298.928C290.717 142.86 284.056 136.211 284.056 128.014V47.4626C284.056 39.2657 290.717 32.616 298.928 32.616H389.514C397.724 32.616 404.385 39.2657 404.385 47.4626V128.014Z" fill="#007CFF"/>
<path d="M389.514 28.978H298.928C288.715 28.978 280.412 37.2671 280.412 47.4626V128.023C280.412 138.209 288.715 146.507 298.928 146.507H389.514C399.717 146.507 408.029 138.218 408.029 128.023V47.4626C408.02 37.2671 399.717 28.978 389.514 28.978ZM404.385 128.014C404.385 136.211 397.724 142.86 389.514 142.86H298.928C290.717 142.86 284.056 136.211 284.056 128.014V47.4626C284.056 39.2657 290.717 32.616 298.928 32.616H389.514C397.724 32.616 404.385 39.2657 404.385 47.4626V128.014Z" fill="#E527BB"/>
<path opacity="0.6" d="M350.354 49.6086H361.397C362.698 49.6086 363.75 48.5586 363.75 47.26V45.5654C363.75 44.2667 362.698 43.2168 361.397 43.2168H350.354C349.054 43.2168 348.002 44.2667 348.002 45.5654V47.26C348.002 48.5586 349.054 49.6086 350.354 49.6086Z" fill="white"/>
<path opacity="0.6" d="M383.825 59.6227H394.868C396.169 59.6227 397.221 58.5728 397.221 57.2742V55.5795C397.221 54.2809 396.169 53.231 394.868 53.231H383.825C382.524 53.231 381.473 54.2809 381.473 55.5795V57.2742C381.473 58.5728 382.524 59.6227 383.825 59.6227Z" fill="white"/>
<path opacity="0.6" d="M344.005 57.5109H355.048C356.349 57.5109 357.4 56.461 357.4 55.1624V53.4677C357.4 52.1691 356.349 51.1191 355.048 51.1191H344.005C342.704 51.1191 341.652 52.1691 341.652 53.4677V55.1624C341.662 56.461 342.713 57.5109 344.005 57.5109Z" fill="white"/>
<path opacity="0.6" d="M377.476 67.5248H388.519C389.819 67.5248 390.871 66.4749 390.871 65.1763V63.4816C390.871 62.183 389.819 61.1331 388.519 61.1331H377.476C376.175 61.1331 375.123 62.183 375.123 63.4816V65.1763C375.132 66.4749 376.184 67.5248 377.476 67.5248Z" fill="white"/>
<path opacity="0.6" d="M332.573 49.6086H343.616C344.917 49.6086 345.969 48.5586 345.969 47.26V45.5654C345.969 44.2667 344.917 43.2168 343.616 43.2168H332.573C331.272 43.2168 330.221 44.2667 330.221 45.5654V47.26C330.23 48.5586 331.282 49.6086 332.573 49.6086Z" fill="white"/>
<path opacity="0.6" d="M366.044 59.6227H377.087C378.388 59.6227 379.439 58.5728 379.439 57.2742V55.5795C379.439 54.2809 378.388 53.231 377.087 53.231H366.044C364.743 53.231 363.691 54.2809 363.691 55.5795V57.2742C363.701 58.5728 364.752 59.6227 366.044 59.6227Z" fill="white"/>
<path d="M250.005 65.3853H198.406V123.565H250.005V65.3853Z" fill="#1A2E35"/>
<path d="M254.138 123.565H194.273V128.262H254.138V123.565Z" fill="#1A2E35"/>
<g opacity="0.4">
<path d="M254.138 123.565H194.273V128.262H254.138V123.565Z" fill="white"/>
</g>
<path opacity="0.6" d="M250.005 65.3853H198.406V123.565H250.005V65.3853Z" fill="white"/>
<path opacity="0.5" d="M246.361 69.0232H202.051V119.927H246.361V69.0232Z" fill="white"/>
<g opacity="0.2">
<path d="M202.051 69.0232V119.927H202.364L214.542 69.0232H202.051Z" fill="white"/>
<path d="M240.05 69.0232H237.771L225.594 119.927H227.872L240.05 69.0232Z" fill="white"/>
<path d="M234.7 69.0232H225.142L212.955 119.927H222.522L234.7 69.0232Z" fill="white"/>
</g>
<path d="M168.588 112.301C166.836 112.43 164.631 111.03 163.551 109.207C163.21 108.636 163.044 108.35 162.693 107.779C160.202 103.718 154.741 100.807 150.977 101.084C150.599 101.111 150.414 101.12 150.036 101.148C149.584 101.185 147.84 101.305 147.388 101.341C147.01 101.369 146.825 101.378 146.447 101.406C142.674 101.682 141.825 105.044 144.067 109.124C144.381 109.695 144.537 109.98 144.833 110.551C145.792 112.384 145.082 113.996 143.329 114.125C140.312 114.346 139.039 117.127 140.201 120.415C144.03 133.963 145.082 145.402 143.615 157.781C146.263 160.221 149.796 161.732 153.689 161.732H184.29C185.471 146.222 183.248 133.3 177.076 117.754C175.535 114.484 171.605 112.08 168.588 112.301Z" fill="#007CFF"/>
<path d="M168.588 112.301C166.836 112.43 164.631 111.03 163.551 109.207C163.21 108.636 163.044 108.35 162.693 107.779C160.202 103.718 154.741 100.807 150.977 101.084C150.599 101.111 150.414 101.12 150.036 101.148C149.584 101.185 147.84 101.305 147.388 101.341C147.01 101.369 146.825 101.378 146.447 101.406C142.674 101.682 141.825 105.044 144.067 109.124C144.381 109.695 144.537 109.98 144.833 110.551C145.792 112.384 145.082 113.996 143.329 114.125C140.312 114.346 139.039 117.127 140.201 120.415C144.03 133.963 145.082 145.402 143.615 157.781C146.263 160.221 149.796 161.732 153.689 161.732H184.29C185.471 146.222 183.248 133.3 177.076 117.754C175.535 114.484 171.605 112.08 168.588 112.301Z" fill="#C620A7"/>
<path d="M168.588 112.301C166.835 112.43 164.63 111.03 163.551 109.207C163.21 108.636 163.044 108.35 162.693 107.779C160.202 103.718 154.741 100.807 150.977 101.084C150.598 101.111 150.414 101.12 150.036 101.148C146.272 101.424 145.45 104.786 147.738 108.857C148.061 109.428 148.218 109.713 148.523 110.284C149.51 112.117 148.809 113.729 147.056 113.849C144.039 114.07 142.794 116.851 144.002 120.139C148.292 134.7 149.344 146.821 147.489 160.369C149.381 161.234 151.475 161.732 153.689 161.732H184.29C185.471 146.222 183.248 133.3 177.076 117.754C175.535 114.484 171.605 112.08 168.588 112.301Z" fill="#E527BB"/>
<path d="M189.289 127.655C189.289 127.655 187.952 145.292 192.389 145.108C196.817 144.923 205.545 144.988 205.545 144.988L212.75 141.774C213.138 141.599 213.59 141.681 213.885 141.976L217.151 145.209C217.806 145.854 217.326 146.977 216.403 146.95L214.411 146.894C214.411 146.894 210.933 149.068 205.628 148.571C206.652 148.257 187.398 151.831 185.415 149.105C182.702 145.375 181.521 129.791 181.521 129.791L189.289 127.655Z" fill="#CD5B51"/>
<path opacity="0.1" d="M189.289 127.655C189.289 127.655 187.952 145.292 192.389 145.108C196.817 144.923 205.545 144.988 205.545 144.988L212.75 141.774C213.138 141.599 213.59 141.681 213.885 141.976L217.151 145.209C217.806 145.854 217.326 146.977 216.403 146.95L214.411 146.894C214.411 146.894 210.933 149.068 205.628 148.571C206.652 148.257 187.398 151.831 185.415 149.105C182.702 145.375 181.521 129.791 181.521 129.791L189.289 127.655Z" fill="black"/>
<path d="M185.12 116.676C188.128 116.584 191.513 120.471 190.019 130.814L181.762 132.407C181.753 132.407 179.077 116.86 185.12 116.676Z" fill="#1A2E35"/>
<path d="M185.12 116.676C188.128 116.584 191.513 120.471 190.019 130.814L181.762 132.407C181.753 132.407 179.077 116.86 185.12 116.676Z" fill="#8165E5"/>
<path d="M154.63 116.842C150.119 122.654 150.857 153.203 151.143 161.492C151.973 161.63 152.812 161.723 153.689 161.723H179.936C182.177 132.352 191.698 123.657 188.211 118.122C184.881 112.854 159.87 110.109 154.63 116.842Z" fill="#A78BEF"/>
<path d="M176.42 120.471C176.42 120.471 182.961 116.409 180.304 114.208C177.168 113.443 173.487 112.964 169.861 112.872C168.791 113.581 169.566 115.543 176.42 120.471Z" fill="#CD5B51"/>
<path d="M180.082 110.34L174.307 104.077C173.754 108.885 171.198 112.817 170.682 112.974L171.318 115.175C178.32 123.031 179.935 115.488 179.935 115.488C178.219 114.061 180.082 110.34 180.082 110.34Z" fill="#CD5B51"/>
<path opacity="0.2" d="M176.624 106.582L173.93 106.315C173.93 106.315 174.05 114.374 179.567 115.064C178.542 113.434 180.083 110.34 180.083 110.34L176.624 106.582Z" fill="#1A2E35"/>
<path d="M175.093 97.1878C173.847 102.88 172.814 106.14 174.797 109.898C176.698 113.628 181.264 115.101 185.001 113.204C186.375 112.504 187.501 111.408 188.23 110.054C190.85 105.422 192.464 96.8931 187.676 92.9327C184.493 90.1421 179.641 90.4552 176.845 93.6327C175.96 94.6458 175.36 95.8707 175.093 97.1878Z" fill="#CD5B51"/>
<path d="M175.203 100.365C175.203 100.365 180.739 100.42 179.152 97.243C179.152 97.243 186.837 98.7166 185.527 95.8246C185.527 95.8246 190.73 99.9047 189.383 96.0549C189.383 96.0549 192.926 99.0665 193.036 97.1324C193.147 95.1983 191.2 93.9642 191.2 93.9642C191.2 93.9642 195.527 90.4551 189.254 90.4644C189.254 90.4644 190.739 85.2054 183.589 89.4052C183.589 89.4052 184.54 83.9529 179.207 89.4052C179.207 89.4052 171.974 89.4605 173.69 91.8459C173.69 91.8459 169.142 93.3195 171.984 94.9128C171.984 94.9128 168.515 98.0442 171.052 99.3152C171.052 99.3152 167.777 103.81 172.556 103.257C172.556 103.257 170.849 107.411 172.952 106.564C175.056 105.707 175.203 100.365 175.203 100.365Z" fill="#1A2E35"/>
<path d="M171.641 101.231C171.668 102.53 172.185 103.782 173.089 104.712C174.288 105.928 175.654 105.016 175.967 103.414C176.244 101.959 175.958 99.5915 174.445 98.9837C172.932 98.3758 171.631 99.6192 171.641 101.231Z" fill="#CD5B51"/>
<path opacity="0.3" d="M180.95 152.485C181.209 150.735 181.485 149.077 181.79 147.502L179.041 146.95L163.791 137.97L158.329 125.361L156.05 120.48L153.91 121.613C153.91 121.613 153.882 146.867 164.584 151.453C169.086 153.378 174.788 152.78 180.95 152.485Z" fill="black"/>
<path d="M163.459 126.724C163.459 126.724 166.586 142.308 176.337 144.067C186.089 145.817 187.574 145.789 187.574 145.789L195.48 143.21C195.951 143.054 196.477 143.21 196.781 143.606L198.774 146.167C199.355 146.913 198.866 148.009 197.916 148.073L194.539 148.294C194.539 148.294 192.085 150.588 187.888 150.081C187.888 150.081 172.075 151.813 166.558 148.644C161.041 145.476 156.678 132.536 156.678 132.536L163.459 126.724Z" fill="#CD5B51"/>
<path d="M156.466 136.837C156.466 136.837 150.931 119.144 156.152 116.326C161.374 113.508 164.815 125.932 166.107 130.62L156.466 136.837Z" fill="#8165E5"/>
<path d="M208.471 148.34L189.383 149.252V151.96H208.471H220.768V148.34H208.471Z" fill="#007CFF"/>
<path d="M208.471 151.96H189.383V149.252L208.471 148.34V151.96Z" fill="#E527BB"/>
<path d="M220.759 148.34H208.471V151.96H220.759V148.34Z" fill="#C10C9F"/>
<path d="M250.438 142.639H210.104L214.172 109.538H254.506L250.438 142.639Z" fill="#007CFF"/>
<path d="M250.438 142.639H210.104L214.172 109.538H254.506L250.438 142.639Z" fill="#C10C9F"/>
<path d="M216.496 109.538L212.428 142.639H250.437L254.506 109.538H216.496Z" fill="#007CFF"/>
<path d="M216.496 109.538L212.428 142.639H250.437L254.506 109.538H216.496Z" fill="#E527BB"/>
<path d="M237.31 151.858H228.73L227.863 138.2H234.81L237.31 151.858Z" fill="#007CFF"/>
<path d="M237.31 151.858H228.73L227.863 138.2H234.81L237.31 151.858Z" fill="#C10C9F"/>
<path d="M238.832 151.858H230.262L229.395 138.2H236.341L238.832 151.858Z" fill="#007CFF"/>
<path d="M238.832 151.858H230.262L229.395 138.2H236.341L238.832 151.858Z" fill="#E527BB"/>
<path d="M232.891 149.482H231.507H219.652V151.96H231.507H232.891H244.746V149.482H232.891Z" fill="#007CFF"/>
<path d="M232.891 149.482H231.507H219.652V151.96H231.507H232.891H244.746V149.482H232.891Z" fill="#E527BB"/>
<path d="M244.746 149.482H231.508V151.96H244.746V149.482Z" fill="#007CFF"/>
<path d="M244.746 149.482H231.508V151.96H244.746V149.482Z" fill="#E527BB"/>
<path d="M181.598 155.819V161.732H244.276C249.129 161.732 253.419 159.402 256.131 155.819H181.598Z" fill="#1A2E35"/>
<path opacity="0.3" d="M181.598 155.819V161.732H244.276C249.129 161.732 253.419 159.402 256.131 155.819H181.598Z" fill="white"/>
<path d="M258.234 151.96H177.861V155.819H256.131C257.017 154.649 257.727 153.36 258.234 151.96Z" fill="#1A2E35"/>
<path opacity="0.5" d="M258.234 151.96H177.861V155.819H256.131C257.017 154.649 257.727 153.36 258.234 151.96Z" fill="white"/>
<path d="M244.275 47.8494H153.69C143.486 47.8494 135.174 56.1384 135.174 66.3339V146.894C135.174 157.081 143.477 165.379 153.69 165.379H244.275C254.479 165.379 262.791 157.09 262.791 146.894V66.3247C262.791 56.1384 254.479 47.8494 244.275 47.8494ZM259.147 146.885C259.147 155.082 252.486 161.732 244.275 161.732H153.69C145.479 161.732 138.818 155.082 138.818 146.885V66.3247C138.818 58.1278 145.479 51.4781 153.69 51.4781H244.275C252.486 51.4781 259.147 58.1278 259.147 66.3247V146.885Z" fill="#007CFF"/>
<path d="M244.275 47.8494H153.69C143.486 47.8494 135.174 56.1384 135.174 66.3339V146.894C135.174 157.081 143.477 165.379 153.69 165.379H244.275C254.479 165.379 262.791 157.09 262.791 146.894V66.3247C262.791 56.1384 254.479 47.8494 244.275 47.8494ZM259.147 146.885C259.147 155.082 252.486 161.732 244.275 161.732H153.69C145.479 161.732 138.818 155.082 138.818 146.885V66.3247C138.818 58.1278 145.479 51.4781 153.69 51.4781H244.275C252.486 51.4781 259.147 58.1278 259.147 66.3247V146.885Z" fill="#E527BB"/>
<path d="M288.573 91.427C297.828 82.187 297.828 67.2061 288.573 57.9661C279.317 48.7262 264.311 48.7262 255.055 57.9661C245.8 67.2061 245.8 82.187 255.055 91.427C264.311 100.667 279.317 100.667 288.573 91.427Z" fill="#007CFF"/>
<path opacity="0.3" d="M288.573 91.427C297.828 82.187 297.828 67.2061 288.573 57.9661C279.317 48.7262 264.311 48.7262 255.055 57.9661C245.8 67.2061 245.8 82.187 255.055 91.427C264.311 100.667 279.317 100.667 288.573 91.427Z" fill="black"/>
<path d="M294.888 78.5066C297.895 65.7894 290.007 53.0458 277.269 50.0429C264.53 47.04 251.765 54.915 248.757 67.6322C245.749 80.3494 253.637 93.093 266.376 96.0959C279.114 99.0988 291.88 91.2238 294.888 78.5066Z" fill="#A78BEF"/>
<path opacity="0.9" d="M291.359 77.6749C293.907 66.9032 287.225 56.109 276.435 53.5655C265.645 51.022 254.833 57.6923 252.285 68.4641C249.737 79.2358 256.419 90.0299 267.209 92.5735C277.999 95.117 288.811 88.4467 291.359 77.6749Z" fill="white"/>
<path d="M309.362 315.447C308.264 315.447 307.351 314.618 307.24 313.522L306.566 306.431V247.56H312.157V306.431L311.484 313.522C311.382 314.609 310.46 315.447 309.362 315.447Z" fill="#1A2E35"/>
<path opacity="0.3" d="M309.362 315.447C308.264 315.447 307.351 314.618 307.24 313.522L306.566 306.431V247.56H312.157V306.431L311.484 313.522C311.382 314.609 310.46 315.447 309.362 315.447Z" fill="white"/>
<path opacity="0.1" d="M312.157 254.2H306.566V261.053H312.157V254.2Z" fill="black"/>
<path d="M314.141 307.416V305.206C314.141 304.34 313.44 303.64 312.573 303.64H306.152C305.285 303.64 304.584 304.34 304.584 305.206V307.416L288.799 311.745C286.88 312.27 285.561 314.011 285.561 315.991H333.164C333.164 314.011 331.836 312.27 329.926 311.745L314.141 307.416Z" fill="#1A2E35"/>
<path opacity="0.2" d="M314.141 307.416V305.206C314.141 304.34 313.44 303.64 312.573 303.64H306.152C305.285 303.64 304.584 304.34 304.584 305.206V307.416L288.799 311.745C286.88 312.27 285.561 314.011 285.561 315.991H333.164C333.164 314.011 331.836 312.27 329.926 311.745L314.141 307.416Z" fill="white"/>
<path opacity="0.1" d="M314.142 307.361V305.206C314.142 305.132 314.133 305.059 314.124 304.985H304.612C304.603 305.059 304.594 305.132 304.594 305.206V307.361H314.142Z" fill="black"/>
<path d="M334.696 190.062C324.179 190.43 315.092 199.346 313.985 209.817L310.064 247.1C309.704 250.498 312.177 253.261 315.581 253.261H320.969H341.911H347.298C350.703 253.261 353.756 250.507 354.116 247.1L358.092 209.357C359.236 198.461 351.127 189.675 340.084 190.071H334.696V190.062Z" fill="#1A2E35"/>
<path d="M334.696 190.062C324.179 190.43 315.092 199.346 313.985 209.817L310.064 247.1C309.704 250.498 312.177 253.261 315.581 253.261H320.969H341.911H347.298C350.703 253.261 353.756 250.507 354.116 247.1L358.092 209.357C359.236 198.461 351.127 189.675 340.084 190.071H334.696V190.062Z" fill="#C10C9F"/>
<path d="M352.712 209.348C353.856 198.452 345.747 189.666 334.704 190.062C324.187 190.43 315.1 199.345 313.993 209.817L310.072 247.1C309.712 250.498 312.185 253.261 315.589 253.261H341.919C345.323 253.261 348.376 250.507 348.736 247.1L352.712 209.348Z" fill="#E527BB"/>
<path d="M265.199 247.256C271.528 245.506 278.023 244.548 284.536 244.373C291.252 244.189 316.392 244.346 322.361 244.346C329.631 244.346 336.891 245.313 343.949 247.256C348.377 248.481 347.012 255.407 343.008 255.481C342.657 255.49 266.657 255.462 266.38 255.481C262.192 255.683 260.67 248.509 265.199 247.256Z" fill="#E527BB"/>
<path d="M341.892 255.333C329.124 251.806 315.609 251.806 302.84 255.333C298.016 256.669 295.949 248.582 300.783 247.256C314.88 243.36 329.853 243.36 343.95 247.256C348.775 248.582 346.727 256.669 341.892 255.333Z" fill="#C10C9F"/>
<path d="M255.622 274.748L250.244 290.415L245.732 289.134L249.386 272.602L255.622 274.748Z" fill="#CC7A63"/>
<path d="M245.807 287.928L251.361 289.604C251.6 289.669 251.766 289.89 251.757 290.138L251.554 295.646C251.536 296.134 251.13 296.521 250.641 296.502C250.576 296.502 250.512 296.493 250.456 296.475C248.159 295.83 246.13 295.167 243.251 294.421C239.856 293.537 240.613 294.163 236.6 293.178C234.183 292.579 234.459 289.733 235.511 289.871C240.336 290.497 242.043 289.217 244.285 288.02C244.774 287.808 245.309 287.771 245.807 287.928Z" fill="#A78BEF"/>
<path opacity="0.1" d="M252.688 283.295L247.328 281.923L249.385 272.602L255.622 274.748L252.688 283.295Z" fill="black"/>
<path d="M256.592 278.939L255.088 281.831L246.48 278.939V275.605L256.592 278.939Z" fill="#007CFF"/>
<path d="M256.592 278.939L255.088 281.831L246.48 278.939V275.605L256.592 278.939Z" fill="#A78BEF"/>
<path d="M290.236 293.96L292.026 307.831L286.979 307.96L283.326 294.578L290.236 293.96Z" fill="#CC7A63"/>
<path d="M286.916 307.186L292.682 307.204C292.931 307.204 293.143 307.379 293.199 307.619L294.38 313.007C294.49 313.486 294.186 313.955 293.715 314.066C293.651 314.084 293.596 314.084 293.531 314.084C291.142 314.038 289.02 313.9 286.04 313.9C282.534 313.891 283.42 314.315 279.296 314.361C276.805 314.388 276.362 311.561 277.414 311.432C282.239 310.842 283.604 309.387 285.468 307.665C285.874 307.333 286.39 307.168 286.916 307.186Z" fill="#A78BEF"/>
<path opacity="0.1" d="M285.448 302.342L283.326 294.578L290.236 293.96L291.279 301.973L285.448 302.342Z" fill="black"/>
<path d="M307.645 210.702H299.48C299.48 210.702 297.331 216.255 296.897 222.048C296.463 227.842 307.636 223.55 307.636 223.55L308.614 215.611L307.645 210.702Z" fill="#007CFF"/>
<path d="M307.645 210.702H299.48C299.48 210.702 297.331 216.255 296.897 222.048C296.463 227.842 307.636 223.55 307.636 223.55L308.614 215.611L307.645 210.702Z" fill="#A78BEF"/>
<path opacity="0.1" d="M302.903 210.702C305.172 222.583 300.809 221.984 300.809 221.984L303.281 223.697L307.765 222.601L308.623 215.611L307.645 210.702H302.903Z" fill="black"/>
<path d="M323.928 209.956C323.928 209.956 332.241 223.835 330.811 235.431C329.381 247.026 318.633 253.151 277.358 233.404C277.358 233.404 268.889 242.154 254.838 279.648L247.67 277.502C247.67 277.502 255.77 234.16 263.012 221.837C270.319 209.385 302.433 223.982 304.868 221.551C307.036 219.387 305.154 210.821 305.154 210.821L323.928 209.956Z" fill="black"/>
<path opacity="0.2" d="M272.634 237.291L270.374 235.55C270.374 235.55 262.412 239.851 266.379 252.092C269.258 246.096 271.62 241.878 273.409 238.976L272.634 237.291Z" fill="black"/>
<path d="M307.12 244.806C299.619 243.01 289.905 239.409 277.349 233.404C277.349 233.404 267.662 233.533 267.016 240.726C266.37 247.919 283.354 297.644 283.354 297.644L291.205 296.963C291.205 296.963 286.583 247.376 285.504 244.797H307.12V244.806Z" fill="#007CFF"/>
<path d="M307.12 244.806C299.619 243.01 289.905 239.409 277.349 233.404C277.349 233.404 267.662 233.533 267.016 240.726C266.37 247.919 283.354 297.644 283.354 297.644L291.205 296.963C291.205 296.963 286.583 247.376 285.504 244.797H307.12V244.806Z" fill="black"/>
<path opacity="0.1" d="M277.349 233.404C277.349 233.404 275.872 233.423 274.027 233.883C275.799 235.449 282.063 240.643 291.537 244.806H307.119C299.619 243.01 289.905 239.409 277.349 233.404Z" fill="black"/>
<path d="M292.146 295.683L292.358 298.897L283.225 299.615L281.924 296.548L292.146 295.683Z" fill="#007CFF"/>
<path d="M292.146 295.683L292.358 298.897L283.225 299.615L281.924 296.548L292.146 295.683Z" fill="#A78BEF"/>
<path d="M288.06 196.094L278.834 201.261L272.662 200.967C272.109 200.939 271.583 201.215 271.278 201.676L269.516 204.43C269.267 204.807 269.203 205.286 269.341 205.719L269.387 205.857C269.627 206.64 270.439 207.1 271.232 206.907L273.926 206.253L279.277 205.231L292.368 199.53L288.06 196.094Z" fill="#CC7A63"/>
<path d="M286.242 196.38C286.242 196.38 289.526 197.347 290.274 201.261C290.274 201.261 296.999 198.931 298.171 195.183C299.342 191.434 302.47 172.904 297.405 172.876C292.35 172.848 295.099 195.045 286.242 196.38Z" fill="#1A2E35"/>
<path d="M286.242 196.38C286.242 196.38 289.526 197.347 290.274 201.261C290.274 201.261 296.999 198.931 298.171 195.183C299.342 191.434 302.47 172.904 297.405 172.876C292.35 172.848 295.099 195.045 286.242 196.38Z" fill="#8165E5"/>
<path d="M284.535 196.675C284.535 196.675 286.952 198.839 288.465 202.551L292.017 200.801C292.017 200.801 290.587 196.767 287.69 195.137L284.535 196.675Z" fill="#1A2E35"/>
<path d="M284.535 196.675C284.535 196.675 286.952 198.839 288.465 202.551L292.017 200.801C292.017 200.801 290.587 196.767 287.69 195.137L284.535 196.675Z" fill="#8165E5"/>
<path d="M298.807 211.586C298.807 211.586 311.557 212.737 325.072 210.812C325.072 210.812 322.101 200.902 324.242 188.883C326.382 176.855 337.711 169.726 309.582 170.214C305.514 170.288 293.447 169.745 294.831 178.319C296.307 187.483 298.807 211.586 298.807 211.586Z" fill="#1A2E35"/>
<path d="M298.807 211.586C298.807 211.586 311.557 212.737 325.072 210.812C325.072 210.812 322.101 200.902 324.242 188.883C326.382 176.855 337.711 169.726 309.582 170.214C305.514 170.288 293.447 169.745 294.831 178.319C296.307 187.483 298.807 211.586 298.807 211.586Z" fill="#A78BEF"/>
<path d="M315.569 197.522L302.441 201.39L296.823 200.405C296.233 200.303 295.633 200.543 295.273 201.022L293.382 203.573C293.105 203.951 293.004 204.42 293.114 204.881L293.133 204.964C293.327 205.783 294.12 206.308 294.95 206.17L297.644 205.71L303.05 205.056L319.638 201.243L315.569 197.522Z" fill="#CC7A63"/>
<path d="M313.633 197.31C313.633 197.31 316.899 198.535 317.369 202.486C317.369 202.486 324.298 200.967 325.718 197.31C327.148 193.654 331.66 173.18 326.613 172.802C321.576 172.425 322.554 196.573 313.633 197.31Z" fill="#1A2E35"/>
<path d="M313.633 197.31C313.633 197.31 316.899 198.535 317.369 202.486C317.369 202.486 324.298 200.967 325.718 197.31C327.148 193.654 331.66 173.18 326.613 172.802C321.576 172.425 322.554 196.573 313.633 197.31Z" fill="#8165E5"/>
<path d="M311.678 197.642C311.678 197.642 314.51 200.267 315.571 203.518L319.197 202.486C319.197 202.486 317.711 198.139 314.934 196.325L311.678 197.642Z" fill="#1A2E35"/>
<path d="M311.678 197.642C311.678 197.642 314.51 200.267 315.571 203.518L319.197 202.486C319.197 202.486 317.711 198.139 314.934 196.325L311.678 197.642Z" fill="#8165E5"/>
<path d="M314.988 145.144C314.988 145.144 311.058 137.307 317.082 138.329C323.107 139.361 319.536 154.953 325.09 157.09C325.081 157.09 318.669 158.683 314.988 145.144Z" fill="#1A2E35"/>
<path opacity="0.6" d="M313.854 141.847C314.176 143.523 314.988 145.144 314.988 145.144C315.994 148.847 317.212 151.407 318.439 153.185C319.343 150.33 319.703 145.679 317.027 143.008C315.994 141.985 314.924 142.262 313.854 141.847Z" fill="black"/>
<path d="M312.885 143.477C312.885 143.477 314.859 141.258 316.547 144.104C318.236 146.95 315.449 147.631 315.449 147.631L312.885 143.477Z" fill="#8165E5"/>
<path d="M314.287 158.361C314.287 158.361 315.173 161.575 317.47 159.374C319.776 157.164 315.616 159.475 314.287 158.361Z" fill="#1A2E35"/>
<path d="M309.573 169.938C309.573 169.938 303.936 167.995 301.537 172.775L303.76 173.65L302.543 175.151L307.137 178.476L314.988 175.796L314.554 174.69L318.337 173.659C318.337 173.659 319.324 168.151 309.573 169.938Z" fill="#1A2E35"/>
<path d="M309.573 169.938C309.573 169.938 303.936 167.995 301.537 172.775L303.76 173.65L302.543 175.151L307.137 178.476L314.988 175.796L314.554 174.69L318.337 173.659C318.337 173.659 319.324 168.151 309.573 169.938Z" fill="#8165E5"/>
<path d="M309.74 170.371C309.74 170.371 300.357 168.317 306.944 177.647C306.944 177.647 325.719 170.177 309.74 170.371Z" fill="#CC7A63"/>
<path d="M313.466 159.623L307.082 165.885C307.654 168.612 306.852 170.021 305.984 170.748V172.775C306.713 173.005 307.765 173.152 309.306 173.069C313.937 172.821 315.441 172.332 315.441 172.332C312.664 170.113 313.06 163.343 313.466 159.623Z" fill="#CC7A63"/>
<path opacity="0.1" d="M307.147 168.777C307.322 168.031 307.341 167.083 307.092 165.876L312.784 160.295L313.347 160.94C313.338 160.94 312.194 168.059 307.147 168.777Z" fill="black"/>
<path d="M314.001 151.334C314.471 157.468 314.803 160.056 312.155 163.601C308.179 168.934 300.522 168.17 298.225 162.303C296.158 157.016 295.743 147.88 301.371 144.629C305.384 142.289 310.532 143.634 312.875 147.64C313.53 148.764 313.918 150.026 314.001 151.334Z" fill="#CC7A63"/>
<path d="M314.287 158.361C314.287 158.361 310.92 156.537 310.717 151.472C310.505 146.406 302.801 145.384 298.05 148.349C298.05 148.349 296.694 143.883 301.657 143.487C301.657 143.487 308.918 138.182 314.859 144.113C320.109 149.344 314.287 158.361 314.287 158.361Z" fill="#1A2E35"/>
<path d="M316.104 155.948C315.92 157.127 315.283 158.177 314.315 158.886C313.032 159.807 311.851 158.794 311.75 157.302C311.658 155.966 312.22 153.866 313.733 153.535C314.84 153.323 315.901 154.05 316.114 155.156C316.169 155.414 316.16 155.681 316.104 155.948Z" fill="#CC7A63"/>
<path d="M298.466 147.557C298.466 147.557 296.953 150.928 295.689 147.557C294.416 144.187 297.202 148.322 298.466 147.557Z" fill="#1A2E35"/>
<path d="M302.342 205.535H258.299C257.589 205.535 257.008 206.115 257.008 206.824C257.008 207.533 257.589 208.113 258.299 208.113H302.342C303.053 208.113 303.634 207.533 303.634 206.824C303.643 206.115 303.062 205.535 302.342 205.535Z" fill="#007CFF"/>
<path d="M302.342 205.535H258.299C257.589 205.535 257.008 206.115 257.008 206.824C257.008 207.533 257.589 208.113 258.299 208.113H302.342C303.053 208.113 303.634 207.533 303.634 206.824C303.643 206.115 303.062 205.535 302.342 205.535Z" fill="#E527BB"/>
<path d="M277.286 208.123C276.575 208.123 275.994 207.542 275.994 206.833C275.994 206.124 276.575 205.544 277.286 205.544H302.352C303.062 205.544 303.643 206.124 303.643 206.833C303.643 207.542 303.062 208.123 302.352 208.123H277.286Z" fill="#E527BB"/>
<path d="M259.008 207.331H275.199C275.623 207.331 275.919 206.916 275.78 206.52L266.896 181.192C266.647 180.492 265.992 180.032 265.254 180.032H249.063C248.639 180.032 248.343 180.446 248.482 180.842L257.366 206.17C257.606 206.861 258.27 207.331 259.008 207.331Z" fill="#E527BB"/>
<path d="M258.225 207.331H274.416C274.84 207.331 275.135 206.916 274.997 206.52L266.113 181.192C265.864 180.492 265.209 180.032 264.471 180.032H248.28C247.855 180.032 247.56 180.446 247.699 180.842L256.583 206.17C256.823 206.861 257.487 207.331 258.225 207.331Z" fill="#007CFF"/>
<path d="M258.225 207.331H274.416C274.84 207.331 275.135 206.916 274.997 206.52L266.113 181.192C265.864 180.492 265.209 180.032 264.471 180.032H248.28C247.855 180.032 247.56 180.446 247.699 180.842L256.583 206.17C256.823 206.861 257.487 207.331 258.225 207.331Z" fill="#E527BB"/>
<path d="M260.033 193.672C260.236 194.639 260.91 195.431 261.537 195.431C262.155 195.431 262.496 194.648 262.293 193.672C262.091 192.705 261.417 191.913 260.79 191.913C260.172 191.922 259.83 192.705 260.033 193.672Z" fill="white"/>
<path d="M226.848 192.972C226.848 192.972 221.313 187.851 224.219 185.641C227.125 183.43 220.769 180.004 223.057 178.337C225.344 176.67 221.931 172.378 223.924 171.66C225.916 170.942 223.435 168.437 224.883 167.221C226.774 165.637 226.387 173.742 228.278 173.88C230.16 174.018 226.415 178.485 228.758 179.056C231.101 179.627 227.909 184.683 230.105 184.775C232.301 184.867 230.317 190.366 226.848 192.972Z" fill="#39B039"/>
<g opacity="0.2">
<path d="M225.013 169.302C225.566 172.655 226.028 176.035 226.397 179.415C226.849 183.559 227.808 188.809 226.507 192.88C226.369 193.313 227.052 193.506 227.199 193.073C228.546 188.883 227.587 183.679 227.116 179.415C226.738 175.97 226.277 172.535 225.705 169.109C225.622 168.658 224.93 168.851 225.013 169.302Z" fill="black"/>
</g>
<path d="M225.004 192.088C225.004 192.088 219.302 189.343 221.083 186.847C222.863 184.351 216.922 183.173 218.352 181.266C219.782 179.369 215.972 176.753 217.402 175.685C218.832 174.616 215.778 172.047 217.079 171.89C219.155 171.632 219.902 176.753 221.443 176.403C222.983 176.044 221.083 180.557 223.103 180.437C225.124 180.317 223.814 185.162 225.603 184.701C227.384 184.232 227.144 189.141 225.004 192.088Z" fill="#39B039"/>
<g opacity="0.2">
<path d="M218.259 174.313C220.99 179.912 223.758 185.982 224.662 192.18C224.726 192.631 225.418 192.438 225.354 191.987C224.449 185.733 221.636 179.599 218.877 173.944C218.674 173.539 218.056 173.898 218.259 174.313Z" fill="black"/>
</g>
<path d="M229.801 192.088C229.801 192.088 235.502 189.343 233.722 186.847C231.941 184.352 237.882 183.173 236.452 181.266C235.022 179.369 238.832 176.753 237.403 175.685C235.973 174.617 238.593 173.649 237.725 171.89C236.803 170.012 234.902 176.753 233.362 176.403C231.821 176.044 233.722 180.557 231.701 180.437C229.681 180.318 230.991 185.162 229.201 184.702C227.42 184.232 227.66 189.141 229.801 192.088Z" fill="#39B039"/>
<g opacity="0.2">
<path d="M236.489 174.313C233.759 179.912 230.991 185.982 230.087 192.18C230.022 192.631 229.33 192.438 229.395 191.987C230.299 185.733 233.113 179.599 235.871 173.944C236.074 173.539 236.692 173.898 236.489 174.313Z" fill="black"/>
</g>
<path d="M232.809 208.27H222.67L220.77 191.213H234.709L232.809 208.27Z" fill="#007CFF"/>
<path d="M232.809 208.27H222.67L220.77 191.213H234.709L232.809 208.27Z" fill="#FF402C"/>
<path d="M258.639 315.447C257.541 315.447 256.628 314.618 256.517 313.522L255.844 306.431V209.246H261.434V306.431L260.761 313.522C260.65 314.609 259.737 315.447 258.639 315.447Z" fill="#1A2E35"/>
<path opacity="0.3" d="M258.639 315.447C257.541 315.447 256.628 314.618 256.517 313.522L255.844 306.431V209.246H261.434V306.431L260.761 313.522C260.65 314.609 259.737 315.447 258.639 315.447Z" fill="white"/>
<path opacity="0.1" d="M261.434 210.195H255.844V217.047H261.434V210.195Z" fill="black"/>
<path d="M263.419 307.416V305.206C263.419 304.34 262.718 303.64 261.85 303.64H255.429C254.562 303.64 253.861 304.34 253.861 305.206V307.416L238.076 311.745C236.157 312.27 234.838 314.01 234.838 315.991H282.442C282.442 314.01 281.113 312.27 279.204 311.745L263.419 307.416Z" fill="#DAA7EE"/>
<path opacity="0.1" d="M263.42 307.361V305.206C263.42 305.132 263.41 305.058 263.401 304.985H253.89C253.88 305.058 253.871 305.132 253.871 305.206V307.361H263.42Z" fill="black"/>
<path d="M319.234 211.383H198.047V214.643H319.234V211.383Z" fill="#1A2E35"/>
<path opacity="0.3" d="M319.234 211.383H198.047V214.643H319.234V211.383Z" fill="white"/>
<path opacity="0.2" d="M319.234 211.383H258.807V214.643H319.234V211.383Z" fill="black"/>
<path d="M326.54 208.123H190.73V211.383H326.54V208.123Z" fill="#DAA7EE"/>
<path opacity="0.3" d="M326.55 208.123H251.5V211.383H326.55V208.123Z" fill="black"/>
<g clip-path="url(#clip1_1689_6655)">
<path d="M268.363 78.4954L271.5 81.6318L274.636 78.4954C272.906 76.7652 270.093 76.7652 268.363 78.4954Z" fill="#E527BB"/>
<path d="M264.182 74.3135L266.273 76.4044C269.158 73.5189 273.842 73.5189 276.727 76.4044L278.818 74.3135C274.777 70.2728 268.222 70.2728 264.182 74.3135Z" fill="#E527BB"/>
<path d="M260 70.1318L262.091 72.2227C267.287 67.0268 275.713 67.0268 280.909 72.2227L283 70.1318C276.649 63.7806 266.351 63.7806 260 70.1318Z" fill="#E527BB"/>
</g>
<line x1="258.354" y1="60.6464" x2="282.354" y2="84.6464" stroke="#E527BB"/>
</g>
<defs>
<clipPath id="clip0_1689_6655">
<rect width="542.64" height="328.79" fill="white"/>
</clipPath>
<clipPath id="clip1_1689_6655">
<rect width="23" height="23" fill="white" transform="translate(260 62)"/>
</clipPath>
</defs>
</svg>
