<svg width="38" height="41" viewBox="0 0 38 41" fill="none" xmlns="http://www.w3.org/2000/svg">
<path d="M25.8691 24.3288C25.8691 24.5955 25.653 24.8117 25.3862 24.8117H12.7395C12.4728 24.8117 12.2565 24.5956 12.2565 24.3288C12.2565 24.062 12.4727 23.8458 12.7395 23.8458H25.3862C25.6529 23.8458 25.8691 24.062 25.8691 24.3288ZM7.13006 24.5702C7.20511 24.7002 7.33634 24.788 7.48524 24.8076C7.5063 24.8103 7.52727 24.8117 7.54824 24.8117C7.67545 24.8117 7.79856 24.7614 7.88968 24.6702L10.4932 22.0667C10.6818 21.8781 10.6818 21.5724 10.4932 21.3838C10.3047 21.1951 9.99885 21.1951 9.81033 21.3838L7.65182 23.5423L6.92764 22.2879C6.7944 22.0569 6.49892 21.9775 6.26805 22.1111C6.03702 22.2445 5.95787 22.5398 6.09127 22.7707L7.13006 24.5703V24.5702ZM12.2566 21.7253C12.2566 21.992 12.4728 22.2082 12.7395 22.2082H25.6346C25.9013 22.2082 26.1175 21.9921 26.1175 21.7253C26.1175 21.4585 25.9013 21.2423 25.6346 21.2423H12.7395C12.4728 21.2423 12.2566 21.4585 12.2566 21.7253ZM23.6391 29.3493H12.7395C12.4728 29.3493 12.2565 29.5654 12.2565 29.8322C12.2565 30.099 12.4727 30.3152 12.7395 30.3152H23.6391C23.9058 30.3152 24.1221 30.099 24.1221 29.8322C24.1221 29.5654 23.9059 29.3493 23.6391 29.3493ZM9.81017 26.885L7.65166 29.0454L6.92764 27.7913C6.7944 27.5603 6.49892 27.4809 6.26805 27.6146C6.03702 27.7479 5.95787 28.0432 6.09127 28.2741L7.13006 30.0737C7.20511 30.2038 7.33642 30.2915 7.48532 30.3111C7.50638 30.3138 7.52735 30.3152 7.54824 30.3152C7.67553 30.3152 7.79872 30.2649 7.88985 30.1736L10.4934 27.5676C10.6819 27.3789 10.6818 27.0733 10.4931 26.8847C10.3045 26.6961 9.99861 26.6964 9.81017 26.8851V26.885ZM23.6391 26.7433H12.7395C12.4728 26.7433 12.2565 26.9595 12.2565 27.2263C12.2565 27.4931 12.4727 27.7092 12.7395 27.7092H23.6391C23.9058 27.7092 24.1221 27.4931 24.1221 27.2263C24.1221 26.9595 23.9059 26.7433 23.6391 26.7433ZM20.2086 34.8412H12.7395C12.4728 34.8412 12.2566 35.0573 12.2566 35.3241C12.2566 35.5909 12.4728 35.8071 12.7395 35.8071H20.2086C20.4753 35.8071 20.6916 35.5909 20.6916 35.3241C20.6916 35.0573 20.4754 34.8412 20.2086 34.8412ZM21.8305 32.2467H12.7395C12.4728 32.2467 12.2566 32.4628 12.2566 32.7296C12.2566 32.9964 12.4728 33.2126 12.7395 33.2126H21.8305C22.0972 33.2126 22.3134 32.9964 22.3134 32.7296C22.3134 32.4628 22.0973 32.2467 21.8305 32.2467ZM9.81041 32.3882L7.65166 34.547L6.92764 33.2944C6.79424 33.0634 6.4986 32.9845 6.26789 33.1179C6.03694 33.2514 5.95803 33.5468 6.09143 33.7776L7.13022 35.5748C7.20535 35.7048 7.33658 35.7925 7.4854 35.812C7.50646 35.8147 7.52743 35.8162 7.54832 35.8162C7.67553 35.8162 7.79864 35.7659 7.88976 35.6747L10.4933 33.071C10.682 32.8824 10.6819 32.5768 10.4933 32.3882C10.3048 32.1995 9.99893 32.1995 9.81041 32.3882ZM37.147 36.9004V40.267C37.147 40.5338 36.9308 40.75 36.664 40.75H3.65987C2.11249 40.75 0.853516 39.491 0.853516 37.9436V6.78232C0.853516 5.23486 2.11249 3.97597 3.65987 3.97597H7.91355C8.13614 2.93091 9.06517 2.14453 10.1746 2.14453H12.2718C13.168 0.953537 14.5698 0.25 16.0718 0.25H16.0734C17.5749 0.250482 18.9753 0.953938 19.8702 2.14453H21.9672C23.0778 2.14453 24.0078 2.93091 24.2306 3.97597H28.4843C30.0317 3.97597 31.2907 5.23486 31.2907 6.78232V25.0465C32.7446 25.7341 33.7531 27.2141 33.7531 28.9255C33.7531 30.1718 33.2186 31.2953 32.3674 32.0801C35.2621 32.8112 37.063 34.5876 37.1468 36.8828C37.147 36.8886 37.1472 36.8946 37.1472 36.9004L37.147 36.9004ZM29.4614 25.6021C27.6288 25.6021 26.138 27.093 26.138 28.9254C26.138 30.7579 27.6289 32.2512 29.4614 32.2512C31.2939 32.2512 32.7871 30.7593 32.7871 28.9254C32.7871 27.0916 31.2952 25.6021 29.4614 25.6021ZM21.7784 36.8827C21.8622 34.5876 23.663 32.8113 26.5572 32.0801C25.7064 31.2954 25.1721 30.1718 25.1721 28.9254C25.1721 27.2135 26.1807 25.7331 27.6345 25.0458V7.63203H4.5095V37.0963H21.778V36.9004C21.778 36.8945 21.7782 36.8886 21.7783 36.8827H21.7784ZM28.4841 4.94188H24.2815V6.66612H28.1173C28.384 6.66612 28.6003 6.88229 28.6003 7.14908V24.7232C28.8785 24.6663 29.1665 24.6363 29.4613 24.6363C29.7561 24.6363 30.0457 24.6664 30.3246 24.7235V6.78232C30.3246 5.76748 29.499 4.94188 28.4841 4.94188ZM8.82835 4.45892V6.66612H23.3156V4.45892C23.3156 3.71537 22.7106 3.11043 21.9671 3.11043H19.6209C19.4597 3.11043 19.3092 3.02999 19.2196 2.89604C18.5053 1.82864 17.3585 1.21623 16.073 1.21583H16.0716C14.7854 1.21583 13.6376 1.82824 12.922 2.89628C12.8324 3.03007 12.6819 3.11043 12.5208 3.11043H10.1746C9.43232 3.11043 8.82835 3.71537 8.82835 4.45892ZM3.65987 39.7842H21.778V38.0621H4.02654C3.75983 38.0621 3.54359 37.8459 3.54359 37.5791V7.14908C3.54359 6.88237 3.75975 6.66612 4.02654 6.66612H7.86244V4.94188H3.65979C2.64494 4.94188 1.81934 5.76748 1.81934 6.78232V37.9436C1.81934 38.9586 2.64502 39.7842 3.65987 39.7842ZM36.181 36.9095C36.0863 34.4698 33.5899 33.2107 31.2329 32.8328C30.6924 33.0788 30.0928 33.2171 29.4613 33.2171C28.8298 33.2171 28.2311 33.0788 27.691 32.8329C25.3343 33.211 22.8387 34.47 22.7439 36.9094V39.7841H36.1811V36.9094L36.181 36.9095ZM12.842 18.5473L11.9675 17.6726C11.8134 17.5187 11.7286 17.3138 11.7286 17.0954C11.7286 16.8771 11.8134 16.6721 11.9675 16.518L12.0403 16.4448C11.9484 16.2598 11.8699 16.0705 11.805 15.8778H11.7006C11.2509 15.8778 10.8851 15.511 10.8851 15.06V13.8232C10.8851 13.3735 11.251 13.0077 11.7006 13.0077H11.8045C11.8693 12.8147 11.9479 12.625 12.0397 12.4398L11.9674 12.3675C11.6492 12.0492 11.6492 11.5313 11.9674 11.213L12.8416 10.3365C12.996 10.182 13.201 10.0972 13.4192 10.0972C13.6375 10.0972 13.8425 10.182 13.9966 10.3362L14.07 10.4096C14.2529 10.3186 14.4423 10.2404 14.6368 10.1753V10.0716C14.6368 9.62194 15.0027 9.25615 15.4522 9.25615H16.6892C17.14 9.25615 17.507 9.62202 17.507 10.0716V10.1753C17.7015 10.2404 17.8908 10.3186 18.0737 10.4096L18.1473 10.3361C18.4655 10.0179 18.9833 10.0177 19.3017 10.3361L20.1769 11.2134C20.4945 11.5313 20.4945 12.0492 20.1765 12.3674L20.103 12.4403C20.1941 12.6237 20.2727 12.8132 20.3382 13.0078H20.4408C20.8917 13.0078 21.2586 13.3736 21.2586 13.8232V15.0601C21.2586 15.511 20.8918 15.8779 20.4408 15.8779H20.3378C20.2722 16.0721 20.1936 16.2613 20.1025 16.4444L20.1764 16.5183C20.3314 16.6732 20.4161 16.8793 20.4152 17.0988C20.4142 17.3171 20.3283 17.5212 20.1734 17.6734L19.3022 18.5469C18.9835 18.8656 18.4656 18.8658 18.1473 18.5473L18.0737 18.4739C17.8908 18.5649 17.7015 18.643 17.507 18.7081V18.8119C17.507 19.2615 17.1401 19.6273 16.6892 19.6273H15.4522C15.0026 19.6273 14.6368 19.2614 14.6368 18.8119V18.709C14.4418 18.6433 14.2525 18.5648 14.07 18.4739L13.9964 18.5474C13.8425 18.7014 13.6376 18.7862 13.4192 18.7862C13.2009 18.7862 12.9959 18.7014 12.8418 18.5473H12.842ZM12.9796 16.8697L12.7558 17.0951L13.4194 17.7588L13.644 17.5342C13.8017 17.3764 14.0471 17.3473 14.2374 17.4638C14.543 17.6507 14.8788 17.7902 15.2357 17.8784C15.4514 17.9316 15.6028 18.1251 15.6028 18.3472V18.6614H16.5412V18.3449C16.5412 18.1219 16.694 17.9279 16.9108 17.8755C17.2646 17.79 17.5996 17.6515 17.9066 17.4638C18.0968 17.3473 18.3422 17.3764 18.5 17.5342L18.7246 17.7586L19.3869 17.0945L19.1634 16.8709C19.006 16.7135 18.9766 16.4688 19.0922 16.2786C19.2803 15.9691 19.42 15.6329 19.5076 15.2791C19.5609 15.0636 19.7543 14.9122 19.9764 14.9122H20.2929V13.9737H19.9764C19.7541 13.9737 19.5605 13.8219 19.5074 13.6062C19.4202 13.2517 19.2805 12.9149 19.0922 12.6051C18.9762 12.4143 19.0061 12.1688 19.1645 12.0116L19.3877 11.7898L18.7245 11.125L18.4999 11.3494C18.342 11.5071 18.0967 11.5362 17.9064 11.4199C17.5996 11.2321 17.2646 11.0935 16.9107 11.0081C16.694 10.9557 16.5411 10.7617 16.5411 10.5387V10.2221H15.6027V10.5387C15.6027 10.7617 15.45 10.9556 15.2331 11.0081C14.8792 11.0935 14.5442 11.2321 14.2373 11.4199C14.0468 11.5363 13.8016 11.5072 13.6438 11.3494L13.4194 11.125L12.7558 11.7902L12.9783 12.0128C13.1351 12.1695 13.1649 12.4129 13.0506 12.6031C12.8592 12.9214 12.7201 13.258 12.6371 13.6036C12.585 13.8207 12.3909 13.9737 12.1676 13.9737H11.8509V14.9122H12.1676C12.3906 14.9122 12.5845 15.0649 12.637 15.2817C12.7203 15.6266 12.8595 15.9628 13.0506 16.2807C13.1646 16.4702 13.1352 16.7129 12.9794 16.8699L12.9796 16.8697ZM13.9193 14.4429C13.9193 13.2559 14.885 12.2903 16.0719 12.2903C17.2588 12.2903 18.2245 13.256 18.2245 14.4429C18.2245 15.6298 17.2588 16.5933 16.0719 16.5933C14.885 16.5933 13.9193 15.6286 13.9193 14.4429ZM14.8852 14.4429C14.8852 15.096 15.4176 15.6274 16.072 15.6274C16.7264 15.6274 17.2587 15.096 17.2587 14.4429C17.2587 13.7897 16.7264 13.2561 16.072 13.2561C15.4176 13.2561 14.8852 13.7885 14.8852 14.4429Z" fill="#DAA7EE"/>
</svg>
