<svg width="56" height="56" viewBox="0 0 56 56" fill="none" xmlns="http://www.w3.org/2000/svg">
<path d="M28.0022 45.8739C27.3799 45.8739 26.7586 45.8421 26.1418 45.7776C24.9736 45.6562 24.0822 44.755 23.9739 43.5857L23.741 41.0811C23.7005 40.6457 23.4369 40.2881 23.0344 40.124C22.6319 39.9589 22.1933 40.0289 21.8597 40.3111L19.938 41.932C19.0411 42.6889 17.7735 42.7064 16.8558 41.9736C15.8496 41.1707 14.9275 40.2553 14.1149 39.2556C13.3744 38.3445 13.3821 37.0768 14.1313 36.1734L15.7369 34.2386C16.0158 33.9028 16.0825 33.4631 15.9141 33.0617C15.7468 32.6614 15.3858 32.4 14.9505 32.3628L12.4436 32.1506C11.2733 32.0511 10.3644 31.1662 10.2354 29.9992C10.0932 28.7195 10.0877 27.4212 10.2211 26.1415C10.3425 24.9734 11.2438 24.082 12.4119 23.9737L14.9166 23.7407C15.3519 23.7003 15.7096 23.4367 15.8736 23.0342C16.0388 22.6317 15.9688 22.1931 15.6866 21.8595L14.0657 19.9378C13.3088 19.0409 13.2913 17.7732 14.0241 16.8556C14.828 15.8482 15.7424 14.9273 16.7421 14.1146C17.6532 13.3742 18.9208 13.3818 19.8243 14.131L21.7591 15.7367C22.0949 16.0156 22.5357 16.0823 22.936 15.9139C23.3363 15.7454 23.5977 15.3856 23.6349 14.9503L23.8471 12.4434C23.9466 11.2731 24.8314 10.3642 25.9985 10.2351C27.2793 10.0929 28.5765 10.0875 29.8561 10.2209C31.0243 10.3423 31.9157 11.2436 32.024 12.4117L32.2569 14.9164C32.2974 15.3517 32.561 15.7093 32.9635 15.8734C33.366 16.0386 33.8046 15.9686 34.1393 15.6864L36.061 14.0654C36.9579 13.3086 38.2255 13.2911 39.1432 14.0239C40.1505 14.8278 41.0725 15.7421 41.8841 16.7418C42.6246 17.6529 42.6169 18.9206 41.8677 19.824L40.2621 21.7589C39.9832 22.0946 39.9164 22.5354 40.0849 22.9357C40.2533 23.3361 40.6132 23.5975 41.0485 23.6346L43.5554 23.8468C44.7257 23.9464 45.6346 24.8312 45.7636 25.9982C45.9058 27.2779 45.9113 28.5762 45.7779 29.8559C45.6564 31.024 44.7552 31.9154 43.5871 32.0237L41.0824 32.2567C40.6471 32.2971 40.2894 32.5607 40.1254 32.9632C39.9602 33.3657 40.0302 33.8043 40.3124 34.139L41.9333 36.0607C42.6902 36.9576 42.7077 38.2253 41.9749 39.1429C41.171 40.1492 40.2566 41.0712 39.2569 41.8839C38.3458 42.6243 37.0782 42.6167 36.1747 41.8675L34.2399 40.2618C33.9041 39.9829 33.4644 39.9162 33.063 40.0846C32.6627 40.2531 32.4013 40.6129 32.3641 41.0482L32.1508 43.5551C32.0513 44.7254 31.1664 45.6343 29.9994 45.7645C29.3366 45.8367 28.6694 45.8739 28.0022 45.8739ZM22.6002 38.945C22.8868 38.945 23.1744 38.9996 23.4489 39.1123C24.2233 39.4295 24.7527 40.1459 24.8304 40.9804L25.0633 43.4851C25.1235 44.1282 25.6135 44.6226 26.2555 44.6893C27.4575 44.814 28.6771 44.8096 29.8791 44.6762C30.5211 44.6051 31.0068 44.1053 31.0614 43.4621L31.2747 40.9553C31.3458 40.1196 31.8686 39.3989 32.6408 39.0762C33.413 38.7525 34.2935 38.8848 34.9388 39.4207L36.8736 41.0264C37.3702 41.4387 38.0669 41.442 38.5679 41.0351C39.5063 40.2728 40.366 39.4065 41.1207 38.4615C41.5232 37.9573 41.5144 37.2606 41.0977 36.7673L39.4768 34.8456C38.9354 34.2046 38.7964 33.3253 39.1136 32.5509C39.4308 31.7765 40.1472 31.2471 40.9818 31.1695L43.4865 30.9365C44.1296 30.8764 44.624 30.3864 44.6907 29.7454C44.8154 28.5434 44.811 27.3239 44.6764 26.1218C44.6054 25.4798 44.1055 24.9942 43.4624 24.9395L40.9555 24.7273C40.1199 24.6562 39.3991 24.1334 39.0764 23.3612C38.7527 22.589 38.885 21.7086 39.421 21.0632L41.0266 19.1284C41.4389 18.6318 41.4422 17.9351 41.0354 17.4342C40.273 16.4946 39.4068 15.636 38.4618 14.8814C37.9575 14.4789 37.2608 14.4876 36.7675 14.9043L34.8458 16.5253C34.2049 17.0667 33.3255 17.2056 32.5511 16.8884C31.7768 16.5712 31.2474 15.8548 31.1697 15.0203L30.9368 12.5156C30.8766 11.8725 30.3866 11.3781 29.7446 11.3114C28.5425 11.1867 27.3241 11.1911 26.121 11.3256C25.479 11.3967 24.9933 11.8965 24.9386 12.5396L24.7265 15.0465C24.6554 15.8821 24.1325 16.6029 23.3604 16.9256C22.5882 17.2482 21.7077 17.117 21.0624 16.5811L19.1275 14.9754C18.631 14.5631 17.9343 14.5598 17.4333 14.9667C16.4949 15.729 15.6352 16.5953 14.8805 17.5403C14.478 18.0445 14.4879 18.7412 14.9035 19.2345L16.5244 21.1562C17.0658 21.7971 17.2047 22.6765 16.8875 23.4509C16.5704 24.2253 15.854 24.7546 15.0194 24.8323L12.5147 25.0653C11.8716 25.1254 11.3772 25.6154 11.3105 26.2575C11.1858 27.4595 11.1902 28.679 11.3247 29.8811C11.3958 30.5231 11.8957 31.0087 12.5388 31.0634L15.0457 31.2756C15.8813 31.3467 16.6021 31.8706 16.9247 32.6417C17.2485 33.4139 17.1161 34.2943 16.5802 34.9396L14.9746 36.8745C14.5622 37.3711 14.5589 38.0678 14.9658 38.5687C15.7282 39.5082 16.5944 40.3668 17.5394 41.1215C18.0436 41.524 18.7404 41.5153 19.2336 41.0986L21.1554 39.4776C21.5677 39.1265 22.0807 38.945 22.6002 38.945Z" fill="#DAA7EE"/>
<path d="M28.0001 37.2248C22.9141 37.2248 18.7754 33.0871 18.7754 28.0001C18.7754 22.9141 22.913 18.7754 28.0001 18.7754C33.0871 18.7754 37.2248 22.913 37.2248 28.0001C37.2248 33.086 33.086 37.2248 28.0001 37.2248ZM28.0001 19.8691C23.5168 19.8691 19.8691 23.5168 19.8691 28.0001C19.8691 32.4834 23.5168 36.131 28.0001 36.131C32.4834 36.131 36.131 32.4834 36.131 28.0001C36.131 23.5168 32.4834 19.8691 28.0001 19.8691Z" fill="#DAA7EE"/>
<path d="M28.547 36.6779H27.4532V33.0784C25.3915 33.1462 23.4151 33.5946 21.7034 34.3865L21.244 33.3945C23.0968 32.537 25.2329 32.0524 27.4532 31.9846V28.547H19.3223V27.4532H27.4532V24.0166C25.234 23.9488 23.0968 23.4643 21.244 22.6068L21.7034 21.6137C23.414 22.4055 25.3915 22.8551 27.4532 22.9218V19.3223H28.547V22.9218C30.6087 22.854 32.5851 22.4055 34.2968 21.6137L34.7562 22.6068C32.9034 23.4643 30.7673 23.9488 28.547 24.0166V27.4532H36.6779V28.547H28.547V31.9835C30.7673 32.0513 32.9034 32.5359 34.7562 33.3934L34.2968 34.3854C32.5862 33.5935 30.6087 33.144 28.547 33.0773V36.6779Z" fill="#DAA7EE"/>
<path d="M28 36.8899C25.1355 36.8899 22.8911 32.9393 22.8911 27.8949C22.8911 22.8505 25.1355 18.8999 28 18.8999C30.8646 18.8999 33.1089 22.8516 33.1089 27.8949C33.1089 32.9382 30.8646 36.8899 28 36.8899ZM28 19.9937C25.8235 19.9937 23.9849 23.6118 23.9849 27.8949C23.9849 32.178 25.8235 35.7962 28 35.7962C30.1766 35.7962 32.0152 32.178 32.0152 27.8949C32.0152 23.6118 30.1766 19.9937 28 19.9937Z" fill="#DAA7EE"/>
<path d="M28 52.1992C23.0169 52.1992 18.2295 50.6953 14.1564 47.8494C13.9092 47.6766 13.848 47.3353 14.0219 47.0881C14.1947 46.8409 14.5359 46.7797 14.7831 46.9525C18.6714 49.6694 23.2422 51.1055 28 51.1055C32.7578 51.1055 37.3286 49.6694 41.2169 46.9525C41.4641 46.7797 41.8053 46.8398 41.9781 47.0881C42.1509 47.3353 42.0908 47.6766 41.8436 47.8494C37.7705 50.6953 32.9831 52.1992 28 52.1992ZM49.9516 37.368C49.8838 37.368 49.8148 37.3548 49.7481 37.3286C49.4681 37.2159 49.3325 36.8977 49.4452 36.6177C50.5477 33.8767 51.1066 30.9783 51.1066 28.0011C51.1066 25.0589 50.5608 22.1922 49.4856 19.4819C49.3741 19.2008 49.5119 18.8836 49.7919 18.772C50.073 18.6605 50.3902 18.7983 50.5017 19.0783C51.6283 21.9177 52.2003 24.92 52.2003 28.0011C52.2003 31.1183 51.6152 34.1556 50.4602 37.0256C50.3727 37.2378 50.1681 37.368 49.9516 37.368ZM6.04844 37.368C5.83187 37.368 5.62625 37.2389 5.54094 37.0256C4.38594 34.1534 3.80078 31.1172 3.80078 28C3.80078 24.92 4.37281 21.9177 5.49937 19.0772C5.61094 18.7961 5.92813 18.6594 6.20922 18.7709C6.49031 18.8825 6.62703 19.2008 6.51547 19.4808C5.44031 22.1922 4.89453 25.0578 4.89453 28C4.89453 30.9772 5.45344 33.8767 6.55594 36.6166C6.66859 36.8966 6.53297 37.2148 6.25297 37.3275C6.18625 37.3548 6.11734 37.368 6.04844 37.368ZM13.8152 9.61953C13.6489 9.61953 13.4848 9.54406 13.3777 9.40078C13.1961 9.15906 13.2453 8.81672 13.487 8.63516C17.7002 5.47203 22.7194 3.80078 28.0011 3.80078C33.2828 3.80078 38.302 5.47203 42.5152 8.63516C42.7569 8.81672 42.805 9.15906 42.6245 9.40078C42.443 9.6425 42.1006 9.69062 41.8589 9.51016C37.8372 6.49031 33.0444 4.89453 28.0011 4.89453C22.9578 4.89453 18.1661 6.49031 14.1433 9.51016C14.0448 9.58344 13.9289 9.61953 13.8152 9.61953Z" fill="#DAA7EE"/>
<path d="M48.4794 7.73281C46.6791 7.73281 45.2146 6.26828 45.2146 4.46797C45.2146 2.66766 46.6791 1.20312 48.4794 1.20312C50.2798 1.20312 51.7443 2.66766 51.7443 4.46797C51.7443 6.26828 50.2798 7.73281 48.4794 7.73281ZM48.4794 2.29687C47.2818 2.29687 46.3083 3.27141 46.3083 4.46797C46.3083 5.66453 47.2829 6.63906 48.4794 6.63906C49.676 6.63906 50.6505 5.66453 50.6505 4.46797C50.6505 3.27141 49.676 2.29687 48.4794 2.29687Z" fill="#DAA7EE"/>
<path d="M48.4794 17.3066C46.9678 17.3066 44.6196 16.8144 43.0369 15.7327C42.3894 15.2908 42.07 14.5635 42.1838 13.7869C42.6377 10.6883 45.3414 8.31705 48.4707 8.27002H48.4871C51.6174 8.31705 54.32 10.6894 54.7739 13.7869C54.8877 14.5624 54.5694 15.2908 53.9208 15.7327C52.3382 16.8144 49.991 17.3066 48.4794 17.3066ZM48.4794 9.36377C45.8839 9.40643 43.6428 11.3752 43.2666 13.9466C43.2141 14.3042 43.3552 14.6269 43.6538 14.8303C45.1402 15.8453 47.3539 16.2139 48.4794 16.2139C49.6049 16.2139 51.8197 15.8453 53.305 14.8303C53.6036 14.6269 53.7447 14.3042 53.6922 13.9466C53.316 11.3763 51.0749 9.40752 48.4794 9.36377Z" fill="#DAA7EE"/>
<path d="M7.5207 7.73281C5.72039 7.73281 4.25586 6.26828 4.25586 4.46797C4.25586 2.66766 5.72039 1.20312 7.5207 1.20312C9.32102 1.20312 10.7855 2.66766 10.7855 4.46797C10.7855 6.26828 9.32102 7.73281 7.5207 7.73281ZM7.5207 2.29687C6.32305 2.29687 5.34961 3.27141 5.34961 4.46797C5.34961 5.66453 6.32414 6.63906 7.5207 6.63906C8.71727 6.63906 9.6918 5.66453 9.6918 4.46797C9.6918 3.27141 8.71836 2.29687 7.5207 2.29687Z" fill="#DAA7EE"/>
<path d="M7.52067 17.3066C6.0091 17.3066 3.66082 16.8144 2.07817 15.7327C1.43067 15.2908 1.11129 14.5635 1.22504 13.7869C1.67895 10.6883 4.3827 8.31705 7.51192 8.27002H7.52832C10.6586 8.31705 13.3613 10.6894 13.8152 13.7869C13.9289 14.5624 13.6107 15.2908 12.9621 15.7327C11.3805 16.8144 9.03223 17.3066 7.52067 17.3066ZM7.52067 9.36377C4.9252 9.40643 2.6841 11.3752 2.30785 13.9466C2.25535 14.3042 2.39645 14.6269 2.69504 14.8303C4.18145 15.8453 6.3952 16.2139 7.52067 16.2139C8.64614 16.2139 10.861 15.8453 12.3463 14.8303C12.6449 14.6269 12.786 14.3042 12.7335 13.9466C12.3572 11.3763 10.1172 9.40752 7.52067 9.36377Z" fill="#DAA7EE"/>
<path d="M48.4794 45.223C46.6791 45.223 45.2146 43.7585 45.2146 41.9582C45.2146 40.1579 46.6791 38.6934 48.4794 38.6934C50.2798 38.6934 51.7443 40.1579 51.7443 41.9582C51.7443 43.7585 50.2798 45.223 48.4794 45.223ZM48.4794 39.786C47.2818 39.786 46.3083 40.7605 46.3083 41.9571C46.3083 43.1537 47.2829 44.1282 48.4794 44.1282C49.676 44.1282 50.6505 43.1537 50.6505 41.9571C50.6505 40.7605 49.676 39.786 48.4794 39.786Z" fill="#DAA7EE"/>
<path d="M48.4794 54.7968C46.9678 54.7968 44.6196 54.3046 43.0369 53.2229C42.3894 52.781 42.07 52.0526 42.1838 51.2771C42.6377 48.1785 45.3414 45.8073 48.4707 45.7603H48.4871C51.6174 45.8073 54.32 48.1796 54.7739 51.2771C54.8877 52.0526 54.5694 52.781 53.9208 53.2229C52.3382 54.3046 49.991 54.7968 48.4794 54.7968ZM48.4794 46.854C45.8839 46.8967 43.6428 48.8654 43.2666 51.4357C43.2141 51.7934 43.3552 52.116 43.6538 52.3195C45.1402 53.3345 47.3539 53.7031 48.4794 53.7031C49.6049 53.7031 51.8197 53.3345 53.305 52.3195C53.6036 52.1149 53.7447 51.7934 53.6922 51.4357C53.316 48.8654 51.0749 46.8967 48.4794 46.854Z" fill="#DAA7EE"/>
<path d="M7.5207 45.223C5.72039 45.223 4.25586 43.7585 4.25586 41.9582C4.25586 40.1579 5.72039 38.6934 7.5207 38.6934C9.32102 38.6934 10.7855 40.1579 10.7855 41.9582C10.7855 43.7585 9.32102 45.223 7.5207 45.223ZM7.5207 39.786C6.32305 39.786 5.34961 40.7605 5.34961 41.9571C5.34961 43.1537 6.32414 44.1282 7.5207 44.1282C8.71727 44.1282 9.6918 43.1537 9.6918 41.9571C9.6918 40.7605 8.71836 39.786 7.5207 39.786Z" fill="#DAA7EE"/>
<path d="M7.52067 54.7968C6.0091 54.7968 3.66082 54.3046 2.07817 53.2229C1.43067 52.781 1.11129 52.0526 1.22504 51.2771C1.67895 48.1785 4.3827 45.8073 7.51192 45.7603H7.52832C10.6586 45.8073 13.3613 48.1796 13.8152 51.2771C13.9289 52.0526 13.6107 52.781 12.9621 53.2229C11.3805 54.3046 9.03223 54.7968 7.52067 54.7968ZM7.52067 46.854C4.9252 46.8967 2.6841 48.8654 2.30785 51.4357C2.25535 51.7934 2.39645 52.116 2.69504 52.3195C4.18145 53.3345 6.3952 53.7031 7.52067 53.7031C8.64614 53.7031 10.861 53.3345 12.3463 52.3195C12.6449 52.1149 12.786 51.7934 12.7335 51.4357C12.3572 48.8654 10.1172 46.8967 7.52067 46.854Z" fill="#DAA7EE"/>
</svg>
