<svg width="20" height="20" viewBox="0 0 20 20" fill="none" xmlns="http://www.w3.org/2000/svg">
<path d="M14.0624 13.75C14.1853 13.7483 14.3071 13.773 14.4198 13.8223C14.5326 13.8716 14.6344 13.9445 14.7167 14.0361C14.7989 14.1277 14.8604 14.2361 14.8973 14.3535C14.9343 14.471 14.9455 14.5955 14.9305 14.7178L14.4559 19.0996C14.4243 19.3449 14.306 19.5711 14.1219 19.7363C13.9379 19.9015 13.7002 19.9949 13.453 20H5.92077C5.67351 19.9949 5.43587 19.9015 5.25183 19.7363C5.06782 19.5711 4.94951 19.3449 4.91784 19.0996L4.44323 14.7178C4.42822 14.5955 4.44046 14.471 4.47741 14.3535C4.51437 14.2361 4.57586 14.1277 4.65808 14.0361C4.74033 13.9446 4.8412 13.8716 4.95397 13.8223C5.06682 13.7729 5.18921 13.7482 5.31237 13.75H14.0624ZM5.31237 14.375C5.2771 14.3732 5.24148 14.379 5.20886 14.3926C5.17615 14.4062 5.14659 14.4277 5.12292 14.4541C5.09935 14.4804 5.08215 14.512 5.07214 14.5459C5.06218 14.5798 5.05977 14.6155 5.0653 14.6504L5.53894 19.0322C5.55298 19.1247 5.59922 19.21 5.66882 19.2725C5.73837 19.3348 5.82747 19.371 5.92077 19.375H13.453C13.5464 19.371 13.6363 19.3349 13.7059 19.2725C13.7755 19.21 13.8208 19.1247 13.8348 19.0322L14.3094 14.6504C14.315 14.6156 14.3125 14.5797 14.3026 14.5459C14.2926 14.5119 14.2745 14.4805 14.2508 14.4541C14.2273 14.4279 14.1984 14.4072 14.1659 14.3936C14.1333 14.38 14.0977 14.3733 14.0624 14.375H5.31237ZM9.68737 15.9375C9.93568 15.9378 10.1738 16.0365 10.3495 16.2119C10.5252 16.3877 10.6246 16.6264 10.6249 16.875C10.6249 17.0603 10.5696 17.2414 10.4667 17.3955C10.3637 17.5497 10.2171 17.6703 10.0458 17.7412C9.87468 17.812 9.68638 17.831 9.50476 17.7949C9.32293 17.7588 9.15539 17.6692 9.02429 17.5381C8.89318 17.407 8.80363 17.2395 8.76745 17.0576C8.73139 16.876 8.75035 16.6877 8.82116 16.5166C8.89212 16.3453 9.01269 16.1987 9.16687 16.0957C9.32099 15.9928 9.50205 15.9375 9.68737 15.9375ZM9.62585 16.5684C9.56541 16.5805 9.51027 16.6107 9.46667 16.6543C9.42297 16.698 9.39279 16.7538 9.38073 16.8145C9.36881 16.8748 9.37487 16.9373 9.39831 16.9941C9.42195 17.0512 9.4622 17.1004 9.51355 17.1348C9.56493 17.1691 9.62557 17.1875 9.68737 17.1875C9.77018 17.1874 9.84952 17.1543 9.90808 17.0957C9.96662 17.0371 9.99979 16.9578 9.99987 16.875C9.99987 16.8132 9.98148 16.7526 9.94714 16.7012C9.9128 16.6498 9.86357 16.6096 9.80651 16.5859C9.74952 16.5624 9.68633 16.5563 9.62585 16.5684ZM9.68737 1.55863e-06C11.6053 -0.00107409 13.4758 0.596269 15.038 1.70899C16.6001 2.82186 17.7766 4.39487 18.4022 6.20801C19.0278 8.02121 19.0717 9.98476 18.5282 11.8242C17.9846 13.6636 16.8806 15.2878 15.37 16.4697L15.4667 15.5732C16.7504 14.4066 17.6515 12.8785 18.0507 11.1904C18.4497 9.50243 18.3283 7.73313 17.703 6.11524C17.0776 4.49722 15.9775 3.10588 14.5467 2.125C13.1161 1.14419 11.4219 0.619181 9.68737 0.619142C7.95288 0.619155 6.25861 1.14428 4.828 2.125C3.39736 3.10586 2.2971 4.49729 1.67175 6.11524C1.04645 7.73315 0.925025 9.50243 1.32409 11.1904C1.72326 12.8785 2.62429 14.4067 3.90808 15.5732L4.00476 16.4697C2.49404 15.2878 1.39015 13.6637 0.846553 11.8242C0.302979 9.98475 0.34693 8.02123 0.972529 6.20801C1.59817 4.39493 2.77367 2.82184 4.33581 1.70899C5.89807 0.596053 7.76923 -0.00111347 9.68737 1.55863e-06ZM7.4071 11.1064C7.56362 11.3359 7.75203 11.5424 7.96667 11.7188H7.6737C7.23901 11.7132 6.81339 11.8467 6.45983 12.0996C6.10638 12.3526 5.84293 12.7119 5.70788 13.125H5.31237C5.22669 13.1256 5.14089 13.1335 5.05651 13.1484C5.18163 12.603 5.4768 12.1111 5.89929 11.7441C6.32171 11.3774 6.84969 11.1539 7.4071 11.1064ZM11.9676 11.1064C12.525 11.1539 13.053 11.3774 13.4755 11.7441C13.8979 12.1111 14.1931 12.6031 14.3182 13.1484C14.2341 13.1335 14.1488 13.1256 14.0633 13.125H13.6669C13.5318 12.7118 13.2684 12.3526 12.9149 12.0996C12.5614 11.8467 12.1357 11.7132 11.701 11.7188H11.4081C11.6228 11.5424 11.8111 11.336 11.9676 11.1064ZM9.68737 7.03125C10.8955 7.03134 11.8749 8.08029 11.8749 9.375C11.8749 10.6692 10.8955 11.7187 9.68737 11.7188C8.47917 11.7188 7.49987 10.6692 7.49987 9.375C7.49987 8.08024 8.47917 7.03125 9.68737 7.03125ZM9.68737 7.65625C8.82581 7.65625 8.12487 8.42728 8.12487 9.375C8.12487 10.3227 8.82581 11.0938 9.68737 11.0938C10.5489 11.0937 11.2499 10.3227 11.2499 9.375C11.2499 8.42733 10.5489 7.65634 9.68737 7.65625ZM3.12097 8.91211C3.2037 8.91222 3.28316 8.9454 3.34167 9.00391C3.40013 9.06249 3.43347 9.14184 3.43347 9.22461C3.43345 9.30739 3.40015 9.38674 3.34167 9.44531C3.28316 9.50382 3.2037 9.537 3.12097 9.53711H2.02526C1.94243 9.53711 1.86316 9.50386 1.80456 9.44531C1.74597 9.38672 1.71278 9.30747 1.71276 9.22461C1.71276 9.14173 1.74596 9.06251 1.80456 9.00391C1.86316 8.94533 1.9424 8.91211 2.02526 8.91211H3.12097ZM17.3495 8.91211C17.4323 8.91215 17.5116 8.94533 17.5702 9.00391C17.6287 9.0625 17.662 9.14178 17.662 9.22461C17.662 9.30745 17.6288 9.38673 17.5702 9.44531C17.5116 9.50389 17.4323 9.53708 17.3495 9.53711H16.0995C16.0166 9.53711 15.9374 9.50386 15.8788 9.44531C15.8202 9.38672 15.787 9.30747 15.787 9.22461C15.787 9.14173 15.8202 9.06251 15.8788 9.00391C15.9374 8.94533 16.0166 8.91211 16.0995 8.91211H17.3495ZM14.2684 7.20703C14.3462 7.17869 14.4316 7.18202 14.5067 7.2168C14.5819 7.25164 14.6402 7.3148 14.6688 7.39258C14.6973 7.47038 14.6939 7.55666 14.6591 7.63184C14.6242 7.70677 14.5608 7.76443 14.4833 7.79297L12.3905 8.56055C12.3365 8.3588 12.2619 8.16305 12.1678 7.97656L14.2684 7.20703ZM9.68737 4.0625C9.7702 4.06254 9.8495 4.09573 9.90808 4.1543C9.96664 4.2129 9.99987 4.29215 9.99987 4.375V6.42578C9.79239 6.39986 9.58236 6.39987 9.37487 6.42578V4.375C9.37487 4.29212 9.40806 4.2129 9.46667 4.1543C9.52527 4.09574 9.60453 4.0625 9.68737 4.0625ZM4.2694 3.49414C4.35221 3.49419 4.43155 3.52738 4.49011 3.58594L5.26452 4.36035C5.323 4.41893 5.35631 4.49829 5.35632 4.58106C5.35628 4.66382 5.32301 4.74321 5.26452 4.80176C5.20598 4.8603 5.12661 4.89349 5.04382 4.89356C4.96099 4.89359 4.88173 4.86028 4.82311 4.80176L4.0487 4.02735C3.9901 3.96875 3.9569 3.88951 3.9569 3.80664C3.95693 3.7238 3.99012 3.64452 4.0487 3.58594C4.10729 3.52742 4.18659 3.49414 4.2694 3.49414ZM15.1044 3.49414C15.1452 3.49415 15.1857 3.50201 15.2235 3.51758C15.2614 3.53329 15.2961 3.55692 15.3251 3.58594C15.3541 3.61495 15.3777 3.64959 15.3934 3.6875C15.409 3.72526 15.4169 3.7658 15.4169 3.80664C15.4169 3.84768 15.4091 3.88885 15.3934 3.92676C15.3777 3.96454 15.354 3.99841 15.3251 4.02735L14.5507 4.80176C14.5216 4.83077 14.487 4.85442 14.4491 4.87012C14.4113 4.88572 14.3708 4.89353 14.33 4.89356C14.2889 4.89356 14.2477 4.88582 14.2098 4.87012C14.172 4.85442 14.1382 4.83071 14.1092 4.80176C14.0803 4.7728 14.0566 4.73899 14.0409 4.70117C14.0252 4.66326 14.0175 4.62209 14.0175 4.58106C14.0175 4.54019 14.0253 4.49969 14.0409 4.46192C14.0566 4.42401 14.0802 4.38937 14.1092 4.36035L14.8837 3.58594C14.9126 3.55701 14.9465 3.53328 14.9842 3.51758C15.0222 3.50187 15.0633 3.49414 15.1044 3.49414ZM16.1766 0.633791C16.2569 0.614508 16.3415 0.628039 16.412 0.6709C17.5682 1.37027 18.4847 2.4048 19.0399 3.63672C19.0548 3.67496 19.0623 3.71581 19.0614 3.75684C19.0605 3.79785 19.0515 3.83843 19.035 3.87598C19.0186 3.91335 18.9952 3.94731 18.9657 3.97559C18.9361 4.00397 18.9004 4.02614 18.8622 4.04102C18.785 4.06984 18.6994 4.0673 18.6239 4.03418C18.5486 4.00099 18.4888 3.93954 18.4579 3.86328C17.9469 2.76222 17.1215 1.8371 16.0858 1.2041C16.0154 1.16078 15.9655 1.0911 15.9462 1.01074C15.9269 0.930245 15.94 0.844985 15.9833 0.774416C16.0265 0.703901 16.0962 0.653179 16.1766 0.633791ZM3.19714 0.633791C3.27754 0.653174 3.34724 0.703929 3.3905 0.774416C3.43374 0.844985 3.44685 0.930245 3.42761 1.01074C3.4083 1.09109 3.35834 1.16078 3.28796 1.2041C2.25048 1.83498 1.42454 2.76072 0.915889 3.86328C0.891666 3.92074 0.85129 3.9699 0.799678 4.00488C0.748037 4.03983 0.68721 4.05938 0.624873 4.06055C0.586274 4.0617 0.547654 4.05483 0.511592 4.04102C0.43442 4.01099 0.372116 3.95176 0.33874 3.87598C0.305381 3.80012 0.303808 3.71395 0.333857 3.63672C0.889085 2.40478 1.80558 1.37028 2.96179 0.6709C3.03227 0.628017 3.11691 0.61454 3.19714 0.633791ZM9.68737 1.25C9.7702 1.25004 9.8495 1.28323 9.90808 1.3418C9.96664 1.4004 9.99987 1.47965 9.99987 1.5625V2.8125C9.99987 2.89535 9.96664 2.97461 9.90808 3.0332C9.8495 3.09178 9.7702 3.12496 9.68737 3.125C9.60453 3.125 9.52527 3.09177 9.46667 3.0332C9.40807 2.9746 9.37488 2.89538 9.37487 2.8125V1.5625C9.37487 1.47962 9.40806 1.4004 9.46667 1.3418C9.52527 1.28324 9.60453 1.25 9.68737 1.25ZM1.32116 0.477541C1.40182 0.496584 1.47193 0.546692 1.5155 0.617189C1.55901 0.687664 1.57262 0.772905 1.55358 0.853517C1.53446 0.933952 1.48426 1.00339 1.41394 1.04688C1.07971 1.25689 0.796646 1.53899 0.584834 1.87207C0.543368 1.94347 0.474913 1.99638 0.395381 2.01856C0.316092 2.04055 0.231282 2.03063 0.159053 1.99121C0.086908 1.9505 0.0338708 1.88252 0.0115916 1.80274C-0.0106526 1.72296 -0.000705615 1.6376 0.039912 1.56543C0.302747 1.13954 0.66101 0.78023 1.08581 0.515627C1.15619 0.4722 1.24066 0.458605 1.32116 0.477541ZM18.0526 0.477541C18.133 0.458478 18.2175 0.472406 18.288 0.515627C18.7128 0.78023 19.071 1.13954 19.3339 1.56543C19.3745 1.6376 19.3844 1.72297 19.3622 1.80274C19.3399 1.88251 19.2869 1.95051 19.2147 1.99121C19.1426 2.03072 19.0577 2.04052 18.9784 2.01856C18.899 1.99653 18.8314 1.94421 18.7899 1.87305C18.5783 1.53925 18.2946 1.25688 17.9598 1.04688C17.8897 1.00327 17.8392 0.933903 17.8202 0.853517C17.8013 0.772966 17.8158 0.687576 17.8592 0.617189C17.9028 0.54696 17.9722 0.496623 18.0526 0.477541Z" fill="url(#paint0_linear_1848_4031)"/>
<defs>
<linearGradient id="paint0_linear_1848_4031" x1="9.99964" y1="4" x2="9.68713" y2="17.8125" gradientUnits="userSpaceOnUse">
<stop stop-color="#E527BB"/>
<stop offset="1" stop-color="#A78BEF"/>
</linearGradient>
</defs>
</svg>
