<svg width="21" height="22" viewBox="0 0 21 22" fill="none" xmlns="http://www.w3.org/2000/svg">
<path d="M15.0625 14.75C15.1854 14.7483 15.3073 14.773 15.4199 14.8223C15.5328 14.8716 15.6345 14.9445 15.7168 15.0361C15.799 15.1277 15.8605 15.2361 15.8975 15.3535C15.9344 15.471 15.9457 15.5955 15.9307 15.7178L15.4561 20.0996C15.4244 20.3449 15.3061 20.5711 15.1221 20.7363C14.938 20.9015 14.7003 20.9949 14.4531 21H6.9209C6.67364 20.9949 6.436 20.9015 6.25195 20.7363C6.06795 20.5711 5.94964 20.3449 5.91797 20.0996L5.44336 15.7178C5.42835 15.5955 5.44059 15.471 5.47754 15.3535C5.5145 15.2361 5.57599 15.1277 5.6582 15.0361C5.74046 14.9446 5.84133 14.8716 5.9541 14.8223C6.06695 14.7729 6.18933 14.7482 6.3125 14.75H15.0625ZM6.3125 15.375C6.27723 15.3732 6.2416 15.379 6.20898 15.3926C6.17627 15.4062 6.14672 15.4277 6.12305 15.4541C6.09948 15.4804 6.08228 15.512 6.07227 15.5459C6.06231 15.5798 6.0599 15.6155 6.06543 15.6504L6.53906 20.0322C6.55311 20.1247 6.59935 20.21 6.66895 20.2725C6.7385 20.3348 6.82759 20.371 6.9209 20.375H14.4531C14.5466 20.371 14.6365 20.3349 14.7061 20.2725C14.7756 20.21 14.8209 20.1247 14.835 20.0322L15.3096 15.6504C15.3151 15.6156 15.3126 15.5797 15.3027 15.5459C15.2927 15.5119 15.2746 15.4805 15.251 15.4541C15.2274 15.4279 15.1985 15.4072 15.166 15.3936C15.1334 15.38 15.0978 15.3733 15.0625 15.375H6.3125ZM10.6875 16.9375C10.9358 16.9378 11.1739 17.0365 11.3496 17.2119C11.5254 17.3877 11.6247 17.6264 11.625 17.875C11.625 18.0603 11.5697 18.2414 11.4668 18.3955C11.3638 18.5497 11.2172 18.6703 11.0459 18.7412C10.8748 18.812 10.6865 18.831 10.5049 18.7949C10.3231 18.7588 10.1555 18.6692 10.0244 18.5381C9.8933 18.407 9.80375 18.2395 9.76758 18.0576C9.73151 17.876 9.75047 17.6877 9.82129 17.5166C9.89225 17.3453 10.0128 17.1987 10.167 17.0957C10.3211 16.9928 10.5022 16.9375 10.6875 16.9375ZM10.626 17.5684C10.5655 17.5805 10.5104 17.6107 10.4668 17.6543C10.4231 17.698 10.3929 17.7538 10.3809 17.8145C10.3689 17.8748 10.375 17.9373 10.3984 17.9941C10.4221 18.0512 10.4623 18.1004 10.5137 18.1348C10.5651 18.1691 10.6257 18.1875 10.6875 18.1875C10.7703 18.1874 10.8496 18.1543 10.9082 18.0957C10.9667 18.0371 10.9999 17.9578 11 17.875C11 17.8132 10.9816 17.7526 10.9473 17.7012C10.9129 17.6498 10.8637 17.6096 10.8066 17.5859C10.7496 17.5624 10.6865 17.5563 10.626 17.5684ZM10.6875 1C12.6054 0.998924 14.476 1.59627 16.0381 2.70898C17.6003 3.82186 18.7767 5.39487 19.4023 7.20801C20.0279 9.0212 20.0719 10.9848 19.5283 12.8242C18.9848 14.6636 17.8807 16.2878 16.3701 17.4697L16.4668 16.5732C17.7506 15.4066 18.6516 13.8785 19.0508 12.1904C19.4498 10.5024 19.3284 8.73313 18.7031 7.11523C18.0778 5.49722 16.9776 4.10588 15.5469 3.125C14.1162 2.14419 12.4221 1.61918 10.6875 1.61914C8.953 1.61915 7.25874 2.14428 5.82812 3.125C4.39748 4.10586 3.29723 5.49729 2.67188 7.11523C2.04658 8.73314 1.92515 10.5024 2.32422 12.1904C2.72339 13.8785 3.62441 15.4066 4.9082 16.5732L5.00488 17.4697C3.49417 16.2878 2.39028 14.6637 1.84668 12.8242C1.30311 10.9847 1.34706 9.02123 1.97266 7.20801C2.5983 5.39493 3.7738 3.82184 5.33594 2.70898C6.8982 1.59605 8.76936 0.998885 10.6875 1ZM8.40723 12.1064C8.56375 12.3359 8.75215 12.5424 8.9668 12.7188H8.67383C8.23913 12.7132 7.81352 12.8467 7.45996 13.0996C7.1065 13.3526 6.84306 13.7119 6.70801 14.125H6.3125C6.22681 14.1256 6.14101 14.1335 6.05664 14.1484C6.18176 13.603 6.47693 13.1111 6.89941 12.7441C7.32184 12.3774 7.84982 12.1539 8.40723 12.1064ZM12.9678 12.1064C13.5252 12.1539 14.0532 12.3774 14.4756 12.7441C14.8981 13.1111 15.1932 13.6031 15.3184 14.1484C15.2342 14.1335 15.1489 14.1256 15.0635 14.125H14.667C14.5319 13.7118 14.2686 13.3526 13.915 13.0996C13.5615 12.8467 13.1359 12.7132 12.7012 12.7188H12.4082C12.6229 12.5424 12.8112 12.336 12.9678 12.1064ZM10.6875 8.03125C11.8956 8.03134 12.875 9.08029 12.875 10.375C12.875 11.6692 11.8956 12.7187 10.6875 12.7188C9.4793 12.7188 8.5 11.6692 8.5 10.375C8.5 9.08024 9.4793 8.03125 10.6875 8.03125ZM10.6875 8.65625C9.82594 8.65625 9.125 9.42728 9.125 10.375C9.125 11.3227 9.82594 12.0938 10.6875 12.0938C11.549 12.0937 12.25 11.3227 12.25 10.375C12.25 9.42733 11.549 8.65634 10.6875 8.65625ZM4.12109 9.91211C4.20382 9.91222 4.28329 9.9454 4.3418 10.0039C4.40025 10.0625 4.43359 10.1418 4.43359 10.2246C4.43358 10.3074 4.40028 10.3867 4.3418 10.4453C4.28329 10.5038 4.20382 10.537 4.12109 10.5371H3.02539C2.94256 10.5371 2.86328 10.5039 2.80469 10.4453C2.7461 10.3867 2.71291 10.3075 2.71289 10.2246C2.71289 10.1417 2.74608 10.0625 2.80469 10.0039C2.86329 9.94533 2.94253 9.91211 3.02539 9.91211H4.12109ZM18.3496 9.91211C18.4324 9.91215 18.5117 9.94533 18.5703 10.0039C18.6289 10.0625 18.6621 10.1418 18.6621 10.2246C18.6621 10.3074 18.6289 10.3867 18.5703 10.4453C18.5117 10.5039 18.4324 10.5371 18.3496 10.5371H17.0996C17.0168 10.5371 16.9375 10.5039 16.8789 10.4453C16.8203 10.3867 16.7871 10.3075 16.7871 10.2246C16.7871 10.1417 16.8203 10.0625 16.8789 10.0039C16.9375 9.94533 17.0167 9.91211 17.0996 9.91211H18.3496ZM15.2686 8.20703C15.3463 8.17868 15.4318 8.18202 15.5068 8.2168C15.582 8.25164 15.6404 8.3148 15.6689 8.39258C15.6974 8.47038 15.694 8.55666 15.6592 8.63184C15.6243 8.70677 15.561 8.76443 15.4834 8.79297L13.3906 9.56055C13.3366 9.3588 13.262 9.16305 13.168 8.97656L15.2686 8.20703ZM10.6875 5.0625C10.7703 5.06254 10.8496 5.09572 10.9082 5.1543C10.9668 5.2129 11 5.29215 11 5.375V7.42578C10.7925 7.39986 10.5825 7.39987 10.375 7.42578V5.375C10.375 5.29212 10.4082 5.2129 10.4668 5.1543C10.5254 5.09574 10.6047 5.0625 10.6875 5.0625ZM5.26953 4.49414C5.35234 4.49419 5.43168 4.52738 5.49023 4.58594L6.26465 5.36035C6.32313 5.41893 6.35644 5.49828 6.35645 5.58105C6.35641 5.66382 6.32313 5.7432 6.26465 5.80176C6.20611 5.8603 6.12673 5.89349 6.04395 5.89355C5.96112 5.89359 5.88186 5.86027 5.82324 5.80176L5.04883 5.02734C4.99023 4.96875 4.95703 4.88951 4.95703 4.80664C4.95706 4.7238 4.99025 4.64452 5.04883 4.58594C5.10741 4.52742 5.18672 4.49414 5.26953 4.49414ZM16.1045 4.49414C16.1453 4.49415 16.1859 4.50201 16.2236 4.51758C16.2615 4.53329 16.2962 4.55691 16.3252 4.58594C16.3542 4.61495 16.3778 4.64959 16.3936 4.6875C16.4091 4.72526 16.417 4.76579 16.417 4.80664C16.417 4.84768 16.4093 4.88885 16.3936 4.92676C16.3779 4.96454 16.3541 4.99841 16.3252 5.02734L15.5508 5.80176C15.5218 5.83077 15.4871 5.85441 15.4492 5.87012C15.4114 5.88572 15.3709 5.89353 15.3301 5.89355C15.289 5.89355 15.2479 5.88582 15.21 5.87012C15.1721 5.85442 15.1383 5.83071 15.1094 5.80176C15.0804 5.7728 15.0567 5.73899 15.041 5.70117C15.0253 5.66326 15.0176 5.62209 15.0176 5.58105C15.0176 5.54019 15.0254 5.49969 15.041 5.46191C15.0567 5.424 15.0804 5.38937 15.1094 5.36035L15.8838 4.58594C15.9127 4.55701 15.9466 4.53327 15.9844 4.51758C16.0223 4.50187 16.0635 4.49414 16.1045 4.49414ZM17.1768 1.63379C17.257 1.61451 17.3416 1.62804 17.4121 1.6709C18.5683 2.37027 19.4848 3.4048 20.04 4.63672C20.0549 4.67496 20.0624 4.71581 20.0615 4.75684C20.0606 4.79785 20.0517 4.83843 20.0352 4.87598C20.0187 4.91335 19.9953 4.94731 19.9658 4.97559C19.9362 5.00397 19.9005 5.02614 19.8623 5.04102C19.7851 5.06984 19.6995 5.0673 19.624 5.03418C19.5487 5.00099 19.489 4.93954 19.458 4.86328C18.9471 3.76222 18.1217 2.8371 17.0859 2.2041C17.0156 2.16078 16.9656 2.0911 16.9463 2.01074C16.927 1.93024 16.9402 1.84498 16.9834 1.77441C17.0266 1.7039 17.0963 1.65318 17.1768 1.63379ZM4.19727 1.63379C4.27767 1.65317 4.34737 1.70393 4.39062 1.77441C4.43387 1.84498 4.44698 1.93024 4.42773 2.01074C4.40843 2.09109 4.35847 2.16078 4.28809 2.2041C3.25061 2.83498 2.42467 3.76072 1.91602 4.86328C1.89179 4.92074 1.85142 4.9699 1.7998 5.00488C1.74816 5.03983 1.68734 5.05938 1.625 5.06055C1.5864 5.0617 1.54778 5.05482 1.51172 5.04102C1.43455 5.01098 1.37224 4.95176 1.33887 4.87598C1.30551 4.80012 1.30394 4.71395 1.33398 4.63672C1.88921 3.40478 2.8057 2.37028 3.96191 1.6709C4.0324 1.62802 4.11703 1.61454 4.19727 1.63379ZM10.6875 2.25C10.7703 2.25004 10.8496 2.28322 10.9082 2.3418C10.9668 2.4004 11 2.47965 11 2.5625V3.8125C11 3.89535 10.9668 3.97461 10.9082 4.0332C10.8496 4.09178 10.7703 4.12496 10.6875 4.125C10.6047 4.125 10.5254 4.09177 10.4668 4.0332C10.4082 3.9746 10.375 3.89538 10.375 3.8125V2.5625C10.375 2.47962 10.4082 2.4004 10.4668 2.3418C10.5254 2.28324 10.6047 2.25 10.6875 2.25ZM2.32129 1.47754C2.40194 1.49658 2.47206 1.54669 2.51562 1.61719C2.55914 1.68766 2.57274 1.7729 2.55371 1.85352C2.53459 1.93395 2.48439 2.00339 2.41406 2.04688C2.07984 2.25689 1.79677 2.53899 1.58496 2.87207C1.5435 2.94347 1.47504 2.99638 1.39551 3.01855C1.31622 3.04055 1.23141 3.03062 1.15918 2.99121C1.08704 2.9505 1.034 2.88252 1.01172 2.80273C0.989474 2.72296 0.999421 2.6376 1.04004 2.56543C1.30287 2.13953 1.66114 1.78023 2.08594 1.51562C2.15632 1.4722 2.24078 1.4586 2.32129 1.47754ZM19.0527 1.47754C19.1331 1.45848 19.2177 1.4724 19.2881 1.51562C19.7129 1.78023 20.0712 2.13953 20.334 2.56543C20.3746 2.63759 20.3845 2.72296 20.3623 2.80273C20.34 2.8825 20.287 2.95051 20.2148 2.99121C20.1427 3.03072 20.0578 3.04052 19.9785 3.01855C19.8991 2.99653 19.8315 2.94421 19.79 2.87305C19.5784 2.53925 19.2948 2.25687 18.96 2.04688C18.8898 2.00327 18.8393 1.9339 18.8203 1.85352C18.8014 1.77296 18.8159 1.68757 18.8594 1.61719C18.9029 1.54696 18.9723 1.49662 19.0527 1.47754Z" fill="url(#paint0_linear_1892_3132)"/>
<path d="M15.0625 14.75V15L15.066 15L15.0625 14.75ZM15.4199 14.8223L15.5202 14.5932L15.5201 14.5932L15.4199 14.8223ZM15.7168 15.0361L15.9029 14.8692L15.9028 14.8691L15.7168 15.0361ZM15.8975 15.3535L16.1359 15.2785L16.1359 15.2785L15.8975 15.3535ZM15.9307 15.7178L15.6825 15.6873L15.6821 15.6909L15.9307 15.7178ZM15.4561 20.0996L15.704 20.1316L15.7046 20.1265L15.4561 20.0996ZM15.1221 20.7363L15.289 20.9224L15.2891 20.9224L15.1221 20.7363ZM14.4531 21V21.2501L14.4583 21.2499L14.4531 21ZM6.9209 21L6.91575 21.25H6.9209V21ZM6.25195 20.7363L6.08494 20.9224L6.08496 20.9224L6.25195 20.7363ZM5.91797 20.0996L5.66937 20.1265L5.67003 20.1316L5.91797 20.0996ZM5.44336 15.7178L5.69193 15.6909L5.6915 15.6873L5.44336 15.7178ZM5.47754 15.3535L5.23908 15.2784L5.23905 15.2785L5.47754 15.3535ZM5.6582 15.0361L5.47221 14.8691L5.47216 14.8691L5.6582 15.0361ZM5.9541 14.8223L5.85389 14.5932L5.85389 14.5932L5.9541 14.8223ZM6.3125 14.75L6.3089 15H6.3125V14.75ZM6.3125 15.375L6.30005 15.625H6.3125V15.375ZM6.20898 15.3926L6.1132 15.1617L6.11286 15.1618L6.20898 15.3926ZM6.12305 15.4541L5.93704 15.2871L5.93682 15.2873L6.12305 15.4541ZM6.07227 15.5459L5.83251 15.4751L5.83241 15.4754L6.07227 15.5459ZM6.06543 15.6504L6.31429 15.6235L6.31235 15.6113L6.06543 15.6504ZM6.53906 20.0322L6.29028 20.0591L6.2919 20.0698L6.53906 20.0322ZM6.66895 20.2725L6.50195 20.4585L6.50213 20.4587L6.66895 20.2725ZM6.9209 20.375L6.91016 20.625H6.9209V20.375ZM14.4531 20.375V20.6252L14.4639 20.6248L14.4531 20.375ZM14.7061 20.2725L14.8731 20.4585L14.8731 20.4585L14.7061 20.2725ZM14.835 20.0322L15.0824 20.0698L15.0835 20.0591L14.835 20.0322ZM15.3096 15.6504L15.0624 15.6112L15.061 15.6235L15.3096 15.6504ZM15.3027 15.5459L15.5426 15.4756L15.5425 15.4751L15.3027 15.5459ZM15.251 15.4541L15.437 15.2871L15.437 15.2871L15.251 15.4541ZM15.166 15.3936L15.2627 15.163L15.2622 15.1628L15.166 15.3936ZM15.0625 15.375V15.6253L15.0745 15.6247L15.0625 15.375ZM10.6875 16.9375L10.6878 16.6875H10.6875V16.9375ZM11.3496 17.2119L11.5264 17.0351L11.5263 17.035L11.3496 17.2119ZM11.625 17.875H11.875V17.8747L11.625 17.875ZM11.4668 18.3955L11.6747 18.5344L11.6747 18.5343L11.4668 18.3955ZM11.0459 18.7412L11.1415 18.9722L11.1416 18.9722L11.0459 18.7412ZM10.5049 18.7949L10.4561 19.0401L10.4562 19.0401L10.5049 18.7949ZM10.0244 18.5381L9.84764 18.7149L9.84766 18.7149L10.0244 18.5381ZM9.76758 18.0576L9.52236 18.1063L9.52238 18.1064L9.76758 18.0576ZM9.82129 17.5166L9.59032 17.4209L9.59029 17.421L9.82129 17.5166ZM10.167 17.0957L10.0282 16.8878L10.0281 16.8878L10.167 17.0957ZM10.626 17.5684L10.5772 17.3232L10.5769 17.3232L10.626 17.5684ZM10.4668 17.6543L10.2901 17.4775L10.29 17.4775L10.4668 17.6543ZM10.3809 17.8145L10.1357 17.7657L10.1356 17.766L10.3809 17.8145ZM10.3984 17.9941L10.1673 18.0894L10.1675 18.0898L10.3984 17.9941ZM10.5137 18.1348L10.3747 18.3426L10.3748 18.3426L10.5137 18.1348ZM10.6875 18.1875V18.4375H10.6879L10.6875 18.1875ZM10.9082 18.0957L11.085 18.2725L11.085 18.2724L10.9082 18.0957ZM11 17.875L11.25 17.8752V17.875L11 17.875ZM10.9473 17.7012L11.1551 17.5623L11.1551 17.5622L10.9473 17.7012ZM10.8066 17.5859L10.9023 17.355L10.902 17.3548L10.8066 17.5859ZM10.6875 1L10.6874 1.25L10.6876 1.25L10.6875 1ZM16.0381 2.70898L16.1831 2.50537L16.1831 2.50536L16.0381 2.70898ZM19.4023 7.20801L19.6387 7.12647L19.6387 7.12646L19.4023 7.20801ZM19.5283 12.8242L19.7681 12.8951V12.8951L19.5283 12.8242ZM16.3701 17.4697L16.1216 17.4429L16.0581 18.0313L16.5242 17.6666L16.3701 17.4697ZM16.4668 16.5732L16.2987 16.3882L16.2284 16.4521L16.2182 16.5464L16.4668 16.5732ZM19.0508 12.1904L19.2941 12.248L19.2941 12.2479L19.0508 12.1904ZM18.7031 7.11523L18.9363 7.02511V7.02511L18.7031 7.11523ZM15.5469 3.125L15.6882 2.91881L15.6882 2.9188L15.5469 3.125ZM10.6875 1.61914L10.6875 1.36914H10.6875L10.6875 1.61914ZM5.82812 3.125L5.68677 2.9188L5.68676 2.91881L5.82812 3.125ZM2.67188 7.11523L2.43869 7.0251L2.43868 7.02511L2.67188 7.11523ZM2.32422 12.1904L2.08093 12.2479L2.08093 12.248L2.32422 12.1904ZM4.9082 16.5732L5.15676 16.5464L5.14658 16.4521L5.07633 16.3882L4.9082 16.5732ZM5.00488 17.4697L4.85084 17.6666L5.31689 18.0312L5.25344 17.4429L5.00488 17.4697ZM1.84668 12.8242L1.60693 12.8951L1.60693 12.8951L1.84668 12.8242ZM1.97266 7.20801L1.73633 7.12646L1.73633 7.12647L1.97266 7.20801ZM5.33594 2.70898L5.19088 2.50537L5.19088 2.50537L5.33594 2.70898ZM8.40723 12.1064L8.61376 11.9656L8.53149 11.845L8.38601 11.8573L8.40723 12.1064ZM8.9668 12.7188V12.9688H9.66497L9.12549 12.5256L8.9668 12.7188ZM8.67383 12.7188L8.67063 12.9688H8.67383V12.7188ZM7.45996 13.0996L7.31449 12.8963L7.31447 12.8963L7.45996 13.0996ZM6.70801 14.125V14.375H6.8893L6.94563 14.2027L6.70801 14.125ZM6.3125 14.125V13.875L6.31068 13.875L6.3125 14.125ZM6.05664 14.1484L5.81297 14.0925L5.72856 14.4605L6.10028 14.3946L6.05664 14.1484ZM6.89941 12.7441L6.73551 12.5554L6.73548 12.5554L6.89941 12.7441ZM12.9678 12.1064L12.989 11.8573L12.8435 11.845L12.7612 11.9656L12.9678 12.1064ZM14.4756 12.7441L14.6395 12.5554L14.6395 12.5554L14.4756 12.7441ZM15.3184 14.1484L15.2748 14.3946L15.6464 14.4604L15.562 14.0925L15.3184 14.1484ZM15.0635 14.125L15.0653 13.875H15.0635V14.125ZM14.667 14.125L14.4294 14.2027L14.4857 14.375H14.667V14.125ZM13.915 13.0996L14.0605 12.8963L14.0605 12.8963L13.915 13.0996ZM12.7012 12.7188V12.9688L12.7044 12.9687L12.7012 12.7188ZM12.4082 12.7188L12.2495 12.5256L11.71 12.9688H12.4082V12.7188ZM10.6875 8.03125L10.6875 7.78125H10.6875V8.03125ZM12.875 10.375H13.125H12.875ZM10.6875 12.7188V12.9688H10.6875L10.6875 12.7188ZM8.5 10.375H8.25H8.5ZM10.6875 8.65625L10.6875 8.40625H10.6875V8.65625ZM9.125 10.375H8.875H9.125ZM10.6875 12.0938V12.3438H10.6875L10.6875 12.0938ZM12.25 10.375H12.5H12.25ZM4.12109 9.91211L4.12143 9.66211H4.12109V9.91211ZM4.3418 10.0039L4.51876 9.82732L4.51857 9.82713L4.3418 10.0039ZM4.43359 10.2246L4.68359 10.2247V10.2246H4.43359ZM4.3418 10.4453L4.51857 10.6221L4.51872 10.6219L4.3418 10.4453ZM4.12109 10.5371V10.7871H4.12143L4.12109 10.5371ZM2.80469 10.4453L2.62791 10.6221L2.62799 10.6222L2.80469 10.4453ZM2.71289 10.2246H2.46289V10.2247L2.71289 10.2246ZM2.80469 10.0039L2.62794 9.8271L2.62791 9.82713L2.80469 10.0039ZM18.3496 9.91211L18.3497 9.66211H18.3496V9.91211ZM18.5703 10.0039L18.7472 9.82721L18.7471 9.82713L18.5703 10.0039ZM18.6621 10.2246L18.9121 10.2247V10.2246H18.6621ZM18.5703 10.4453L18.7471 10.6221L18.7471 10.6221L18.5703 10.4453ZM18.3496 10.5371V10.7871H18.3497L18.3496 10.5371ZM16.8789 10.4453L16.7021 10.6221L16.7022 10.6222L16.8789 10.4453ZM16.7871 10.2246H16.5371V10.2247L16.7871 10.2246ZM16.8789 10.0039L16.7022 9.8271L16.7021 9.82713L16.8789 10.0039ZM15.2686 8.20703L15.1829 7.97216L15.1826 7.97229L15.2686 8.20703ZM15.5068 8.2168L15.612 7.98997L15.6119 7.98995L15.5068 8.2168ZM15.6689 8.39258L15.9037 8.30663L15.9036 8.30635L15.6689 8.39258ZM15.6592 8.63184L15.8859 8.73723L15.886 8.73696L15.6592 8.63184ZM15.4834 8.79297L15.5695 9.02768L15.5697 9.02759L15.4834 8.79297ZM13.3906 9.56055L13.1491 9.62519L13.2199 9.88946L13.4767 9.79526L13.3906 9.56055ZM13.168 8.97656L13.082 8.74182L12.8183 8.8384L12.9447 9.08911L13.168 8.97656ZM10.6875 5.0625L10.6876 4.8125H10.6875V5.0625ZM10.9082 5.1543L11.085 4.97757L11.085 4.97752L10.9082 5.1543ZM11 5.375H11.25V5.375L11 5.375ZM11 7.42578L10.969 7.67385L11.25 7.70896V7.42578H11ZM10.375 7.42578H10.125V7.70894L10.406 7.67385L10.375 7.42578ZM10.375 5.375L10.125 5.375V5.375H10.375ZM10.4668 5.1543L10.2901 4.97746L10.29 4.97752L10.4668 5.1543ZM5.26953 4.49414L5.26967 4.24414H5.26953L5.26953 4.49414ZM5.49023 4.58594L5.66701 4.40916L5.66701 4.40916L5.49023 4.58594ZM6.26465 5.36035L6.44157 5.18372L6.44143 5.18357L6.26465 5.36035ZM6.35645 5.58105L6.60645 5.58116V5.58104L6.35645 5.58105ZM6.26465 5.80176L6.44143 5.97853L6.44153 5.97843L6.26465 5.80176ZM6.04395 5.89355L6.04405 6.14355H6.04414L6.04395 5.89355ZM5.82324 5.80176L5.64647 5.97853L5.64661 5.97868L5.82324 5.80176ZM5.04883 5.02734L5.22561 4.85057L5.2256 4.85057L5.04883 5.02734ZM4.95703 4.80664L4.70703 4.80657V4.80664L4.95703 4.80664ZM5.04883 4.58594L4.87216 4.40906L4.87205 4.40916L5.04883 4.58594ZM16.1045 4.49414L16.1045 4.24414H16.1045V4.49414ZM16.2236 4.51758L16.3193 4.28662L16.319 4.28646L16.2236 4.51758ZM16.3252 4.58594L16.1484 4.76267L16.1485 4.76276L16.3252 4.58594ZM16.3936 4.6875L16.6247 4.59217L16.6245 4.5918L16.3936 4.6875ZM16.417 4.80664H16.667V4.80659L16.417 4.80664ZM16.3936 4.92676L16.6244 5.02266L16.6245 5.02246L16.3936 4.92676ZM16.3252 5.02734L16.502 5.20412L16.502 5.20412L16.3252 5.02734ZM15.5508 5.80176L15.7276 5.97854L15.7276 5.97853L15.5508 5.80176ZM15.4492 5.87012L15.5447 6.10119L15.5449 6.10109L15.4492 5.87012ZM15.3301 5.89355L15.3301 6.14355H15.3302L15.3301 5.89355ZM15.21 5.87012L15.1141 6.10101L15.1143 6.10109L15.21 5.87012ZM15.1094 5.80176L14.9326 5.97853L14.9326 5.97853L15.1094 5.80176ZM15.041 5.70117L14.81 5.79684L14.8101 5.79703L15.041 5.70117ZM15.0176 5.58105L14.7676 5.58091V5.58105L15.0176 5.58105ZM15.041 5.46191L14.81 5.36624L14.8099 5.36648L15.041 5.46191ZM15.1094 5.36035L15.2862 5.53713L15.2862 5.53713L15.1094 5.36035ZM15.8838 4.58594L16.0606 4.76271L16.0606 4.76271L15.8838 4.58594ZM15.9844 4.51758L15.8887 4.28662L15.8885 4.28671L15.9844 4.51758ZM17.1768 1.63379L17.1183 1.39071L17.1182 1.39075L17.1768 1.63379ZM17.4121 1.6709L17.2822 1.88452L17.2827 1.88481L17.4121 1.6709ZM20.04 4.63672L20.2733 4.54594L20.268 4.53399L20.04 4.63672ZM20.0615 4.75684L20.3115 4.76228V4.76225L20.0615 4.75684ZM20.0352 4.87598L20.2639 4.97678L20.264 4.97663L20.0352 4.87598ZM19.9658 4.97559L20.1387 5.15616L20.1389 5.15595L19.9658 4.97559ZM19.8623 5.04102L19.9498 5.27524L19.9529 5.27401L19.8623 5.04102ZM19.624 5.03418L19.5232 5.26294L19.5236 5.2631L19.624 5.03418ZM19.458 4.86328L19.6899 4.76912L19.6848 4.75805L19.458 4.86328ZM17.0859 2.2041L16.9549 2.417L16.9556 2.41742L17.0859 2.2041ZM16.9463 2.01074L16.7031 2.06886L16.7032 2.06913L16.9463 2.01074ZM16.9834 1.77441L16.7703 1.6437L16.7702 1.64379L16.9834 1.77441ZM4.19727 1.63379L4.25586 1.39075L4.25559 1.39069L4.19727 1.63379ZM4.39062 1.77441L4.60378 1.64379L4.6037 1.64366L4.39062 1.77441ZM4.42773 2.01074L4.67082 2.06915L4.67088 2.06886L4.42773 2.01074ZM4.28809 2.2041L4.41798 2.41771L4.41913 2.41701L4.28809 2.2041ZM1.91602 4.86328L1.68888 4.7585L1.68565 4.76617L1.91602 4.86328ZM1.7998 5.00488L1.93991 5.21194L1.94007 5.21182L1.7998 5.00488ZM1.625 5.06055L1.62031 4.81058L1.61754 4.81066L1.625 5.06055ZM1.51172 5.04102L1.42105 5.274L1.42232 5.27448L1.51172 5.04102ZM1.33887 4.87598L1.11002 4.97661L1.11008 4.97674L1.33887 4.87598ZM1.33398 4.63672L1.10575 4.53385L1.101 4.54607L1.33398 4.63672ZM3.96191 1.6709L4.09131 1.88481L4.09185 1.88448L3.96191 1.6709ZM10.6875 2.25L10.6876 2H10.6875V2.25ZM10.9082 2.3418L11.085 2.16507L11.085 2.16502L10.9082 2.3418ZM11 2.5625H11.25V2.5625L11 2.5625ZM11 3.8125L11.25 3.81251V3.8125H11ZM10.9082 4.0332L11.085 4.20998L11.085 4.20992L10.9082 4.0332ZM10.6875 4.125L10.6875 4.375H10.6876L10.6875 4.125ZM10.4668 4.0332L10.29 4.20998L10.2901 4.21003L10.4668 4.0332ZM10.375 3.8125H10.125V3.81251L10.375 3.8125ZM10.375 2.5625L10.125 2.5625V2.5625H10.375ZM10.4668 2.3418L10.2901 2.16496L10.29 2.16502L10.4668 2.3418ZM2.32129 1.47754L2.37874 1.23423L2.37853 1.23418L2.32129 1.47754ZM2.51562 1.61719L2.72835 1.48585L2.72829 1.48576L2.51562 1.61719ZM2.55371 1.85352L2.79693 1.91133L2.79702 1.91096L2.55371 1.85352ZM2.41406 2.04688L2.28259 1.83423L2.28105 1.8352L2.41406 2.04688ZM1.58496 2.87207L1.37383 2.73781L1.36877 2.74652L1.58496 2.87207ZM1.39551 3.01855L1.46234 3.25946L1.46266 3.25937L1.39551 3.01855ZM1.15918 2.99121L1.03631 3.20896L1.03943 3.21067L1.15918 2.99121ZM1.01172 2.80273L0.770905 2.86988L0.770931 2.86998L1.01172 2.80273ZM1.04004 2.56543L0.827118 2.43403L0.822176 2.44281L1.04004 2.56543ZM2.08594 1.51562L1.95466 1.30286L1.95376 1.30342L2.08594 1.51562ZM19.0527 1.47754L18.9951 1.23428L18.995 1.2343L19.0527 1.47754ZM19.2881 1.51562L19.4203 1.30342L19.4188 1.30255L19.2881 1.51562ZM20.334 2.56543L20.552 2.44272L20.5467 2.43414L20.334 2.56543ZM20.3623 2.80273L20.6031 2.86999L20.6031 2.86988L20.3623 2.80273ZM20.2148 2.99121L20.3349 3.21052L20.3377 3.20894L20.2148 2.99121ZM19.9785 3.01855L19.9117 3.25945L19.9118 3.25948L19.9785 3.01855ZM19.79 2.87305L20.0061 2.74701L20.0012 2.73919L19.79 2.87305ZM18.96 2.04688L19.0928 1.83508L19.0919 1.83455L18.96 2.04688ZM18.8203 1.85352L18.5769 1.91068L18.577 1.91094L18.8203 1.85352ZM18.8594 1.61719L18.6469 1.48552L18.6467 1.48577L18.8594 1.61719ZM15.0625 14.75L15.066 15C15.1531 14.9988 15.2396 15.0163 15.3198 15.0513L15.4199 14.8223L15.5201 14.5932C15.3749 14.5298 15.2178 14.4978 15.059 14.5L15.0625 14.75ZM15.4199 14.8223L15.3197 15.0513C15.4006 15.0867 15.4729 15.1386 15.5307 15.2031L15.7168 15.0361L15.9028 14.8691C15.7962 14.7503 15.6649 14.6566 15.5202 14.5932L15.4199 14.8223ZM15.7168 15.0361L15.5307 15.2031C15.5889 15.2679 15.6327 15.3449 15.659 15.4285L15.8975 15.3535L16.1359 15.2785C16.0884 15.1273 16.0091 14.9875 15.9029 14.8692L15.7168 15.0361ZM15.8975 15.3535L15.659 15.4285C15.6852 15.5118 15.6932 15.6003 15.6825 15.6873L15.9307 15.7178L16.1788 15.7482C16.1981 15.5907 16.1837 15.4303 16.1359 15.2785L15.8975 15.3535ZM15.9307 15.7178L15.6821 15.6909L15.2075 20.0727L15.4561 20.0996L15.7046 20.1265L16.1792 15.7447L15.9307 15.7178ZM15.4561 20.0996L15.2081 20.0676C15.1841 20.2539 15.0943 20.4253 14.9551 20.5503L15.1221 20.7363L15.2891 20.9224C15.518 20.7169 15.6647 20.4359 15.704 20.1316L15.4561 20.0996ZM15.1221 20.7363L14.9551 20.5503C14.8158 20.6752 14.6356 20.7462 14.448 20.7501L14.4531 21L14.4583 21.2499C14.7651 21.2436 15.0603 21.1277 15.289 20.9224L15.1221 20.7363ZM14.4531 21V20.75H6.9209V21V21.25H14.4531V21ZM6.9209 21L6.92605 20.7501C6.73834 20.7462 6.55821 20.6753 6.41895 20.5503L6.25195 20.7363L6.08496 20.9224C6.31379 21.1278 6.60894 21.2436 6.91575 21.2499L6.9209 21ZM6.25195 20.7363L6.41897 20.5503C6.27979 20.4254 6.18996 20.2538 6.16591 20.0676L5.91797 20.0996L5.67003 20.1316C5.70931 20.4359 5.85611 20.7169 6.08494 20.9224L6.25195 20.7363ZM5.91797 20.0996L6.16651 20.0727L5.69191 15.6909L5.44336 15.7178L5.19481 15.7447L5.66942 20.1265L5.91797 20.0996ZM5.44336 15.7178L5.6915 15.6873C5.68098 15.6016 5.68943 15.5131 5.71603 15.4285L5.47754 15.3535L5.23905 15.2785C5.19174 15.429 5.17572 15.5894 5.19522 15.7482L5.44336 15.7178ZM5.47754 15.3535L5.716 15.4286C5.74237 15.3448 5.78612 15.2679 5.84424 15.2031L5.6582 15.0361L5.47216 14.8691C5.36585 14.9876 5.28664 15.1274 5.23908 15.2784L5.47754 15.3535ZM5.6582 15.0361L5.8442 15.2032C5.90265 15.1381 5.97429 15.0863 6.05432 15.0513L5.9541 14.8223L5.85389 14.5932C5.70837 14.6569 5.57826 14.751 5.47221 14.8691L5.6582 15.0361ZM5.9541 14.8223L6.05432 15.0513C6.13442 15.0163 6.22141 14.9987 6.30891 15L6.3125 14.75L6.31609 14.5C6.15726 14.4977 5.99948 14.5295 5.85389 14.5932L5.9541 14.8223ZM6.3125 14.75V15H15.0625V14.75V14.5H6.3125V14.75ZM6.3125 15.375L6.32494 15.1253C6.25444 15.1218 6.18168 15.1332 6.1132 15.1617L6.20898 15.3926L6.30477 15.6235C6.30304 15.6242 6.30182 15.6245 6.30118 15.6246C6.30055 15.6247 6.3002 15.6247 6.30006 15.6247L6.3125 15.375ZM6.20898 15.3926L6.11286 15.1618C6.04377 15.1906 5.98403 15.2347 5.93704 15.2871L6.12305 15.4541L6.30906 15.6211C6.30902 15.6212 6.30893 15.6213 6.30859 15.6215C6.30825 15.6218 6.30717 15.6225 6.30511 15.6234L6.20898 15.3926ZM6.12305 15.4541L5.93682 15.2873C5.88733 15.3426 5.85251 15.4074 5.83251 15.4751L6.07227 15.5459L6.31202 15.6167C6.312 15.6168 6.31189 15.6172 6.31154 15.6178C6.31118 15.6184 6.31049 15.6195 6.30927 15.6209L6.12305 15.4541ZM6.07227 15.5459L5.83241 15.4754C5.81215 15.5444 5.8071 15.6175 5.81851 15.6895L6.06543 15.6504L6.31235 15.6113C6.3127 15.6135 6.31247 15.6152 6.31212 15.6164L6.07227 15.5459ZM6.06543 15.6504L5.81688 15.6773L6.29051 20.0591L6.53906 20.0322L6.78761 20.0054L6.31398 15.6235L6.06543 15.6504ZM6.53906 20.0322L6.2919 20.0698C6.31469 20.2198 6.38947 20.3575 6.50195 20.4585L6.66895 20.2725L6.83594 20.0864C6.80923 20.0624 6.79152 20.0295 6.78623 19.9947L6.53906 20.0322ZM6.66895 20.2725L6.50213 20.4587C6.61487 20.5597 6.75916 20.6183 6.91017 20.6248L6.9209 20.375L6.93163 20.1252C6.89602 20.1237 6.86213 20.1099 6.83576 20.0863L6.66895 20.2725ZM6.9209 20.375V20.625H14.4531V20.375V20.125H6.9209V20.375ZM14.4531 20.375L14.4639 20.6248C14.6141 20.6183 14.7595 20.5604 14.8731 20.4585L14.7061 20.2725L14.5391 20.0864C14.5134 20.1095 14.479 20.1237 14.4424 20.1252L14.4531 20.375ZM14.7061 20.2725L14.8731 20.4585C14.9867 20.3565 15.0596 20.2182 15.0821 20.0698L14.835 20.0322L14.5878 19.9947C14.5823 20.0311 14.5645 20.0635 14.539 20.0865L14.7061 20.2725ZM14.835 20.0322L15.0835 20.0591L15.5581 15.6773L15.3096 15.6504L15.061 15.6235L14.5864 20.0053L14.835 20.0322ZM15.3096 15.6504L15.5565 15.6895C15.5679 15.6175 15.5628 15.5443 15.5426 15.4756L15.3027 15.5459L15.0628 15.6162C15.0625 15.6152 15.0623 15.6137 15.0627 15.6113L15.3096 15.6504ZM15.3027 15.5459L15.5425 15.4751C15.5214 15.4035 15.4841 15.3396 15.437 15.2871L15.251 15.4541L15.0649 15.6211C15.0649 15.621 15.0647 15.6209 15.0644 15.6204C15.0642 15.6199 15.0636 15.6187 15.063 15.6167L15.3027 15.5459ZM15.251 15.4541L15.437 15.2871C15.3891 15.2337 15.3297 15.1911 15.2627 15.163L15.166 15.3936L15.0693 15.6241C15.0673 15.6232 15.0658 15.6221 15.0649 15.6211L15.251 15.4541ZM15.166 15.3936L15.2622 15.1628C15.1973 15.1357 15.1248 15.1217 15.0505 15.1253L15.0625 15.375L15.0745 15.6247C15.0725 15.6248 15.0712 15.6246 15.0707 15.6245C15.0701 15.6244 15.0699 15.6243 15.0698 15.6243L15.166 15.3936ZM15.0625 15.375V15.125H6.3125V15.375V15.625H15.0625V15.375ZM10.6875 16.9375L10.6872 17.1875C10.8694 17.1877 11.0441 17.2601 11.1729 17.3888L11.3496 17.2119L11.5263 17.035C11.3038 16.8128 11.0022 16.6879 10.6878 16.6875L10.6875 16.9375ZM11.3496 17.2119L11.1728 17.3887C11.3019 17.5178 11.3748 17.6931 11.375 17.8753L11.625 17.875L11.875 17.8747C11.8747 17.5598 11.7488 17.2576 11.5264 17.0351L11.3496 17.2119ZM11.625 17.875H11.375C11.375 18.0106 11.3346 18.1434 11.2589 18.2567L11.4668 18.3955L11.6747 18.5343C11.8049 18.3394 11.875 18.1101 11.875 17.875H11.625ZM11.4668 18.3955L11.2589 18.2566C11.1833 18.3698 11.0757 18.4583 10.9502 18.5102L11.0459 18.7412L11.1416 18.9722C11.3587 18.8822 11.5443 18.7295 11.6747 18.5344L11.4668 18.3955ZM11.0459 18.7412L10.9503 18.5102C10.8245 18.5623 10.6864 18.5761 10.5535 18.5497L10.5049 18.7949L10.4562 19.0401C10.6866 19.0858 10.9251 19.0618 11.1415 18.9722L11.0459 18.7412ZM10.5049 18.7949L10.5537 18.5497C10.4204 18.5232 10.2973 18.4574 10.2012 18.3613L10.0244 18.5381L9.84766 18.7149C10.0137 18.8809 10.2258 18.9943 10.4561 19.0401L10.5049 18.7949ZM10.0244 18.5381L10.2012 18.3613C10.105 18.2651 10.0393 18.1422 10.0128 18.0088L9.76758 18.0576L9.52238 18.1064C9.5682 18.3368 9.68157 18.5488 9.84764 18.7149L10.0244 18.5381ZM9.76758 18.0576L10.0128 18.0089C9.98642 17.8761 10.0002 17.7381 10.0523 17.6122L9.82129 17.5166L9.59029 17.421C9.50074 17.6374 9.4766 17.8758 9.52236 18.1063L9.76758 18.0576ZM9.82129 17.5166L10.0523 17.6123C10.1042 17.4868 10.1927 17.3792 10.3059 17.3036L10.167 17.0957L10.0281 16.8878C9.83299 17.0182 9.68028 17.2038 9.59032 17.4209L9.82129 17.5166ZM10.167 17.0957L10.3058 17.3036C10.4191 17.2279 10.552 17.1875 10.6875 17.1875V16.9375V16.6875C10.4524 16.6875 10.2231 16.7576 10.0282 16.8878L10.167 17.0957ZM10.626 17.5684L10.5769 17.3232C10.4662 17.3454 10.3672 17.4004 10.2901 17.4775L10.4668 17.6543L10.6435 17.8311C10.6536 17.821 10.6648 17.8155 10.6751 17.8135L10.626 17.5684ZM10.4668 17.6543L10.29 17.4775C10.2119 17.5556 10.1575 17.6558 10.1357 17.7657L10.3809 17.8145L10.6261 17.8632C10.6283 17.8519 10.6342 17.8404 10.6436 17.8311L10.4668 17.6543ZM10.3809 17.8145L10.1356 17.766C10.1142 17.8743 10.125 17.9869 10.1673 18.0894L10.3984 17.9941L10.6296 17.8988C10.625 17.8877 10.6237 17.8752 10.6261 17.8629L10.3809 17.8145ZM10.3984 17.9941L10.1675 18.0898C10.2099 18.1923 10.282 18.2806 10.3747 18.3426L10.5137 18.1348L10.6526 17.9269C10.6426 17.9202 10.6342 17.9102 10.6294 17.8985L10.3984 17.9941ZM10.5137 18.1348L10.3748 18.3426C10.4673 18.4044 10.5762 18.4375 10.6875 18.4375V18.1875V17.9375C10.6751 17.9375 10.6629 17.9338 10.6526 17.9269L10.5137 18.1348ZM10.6875 18.1875L10.6879 18.4375C10.8372 18.4373 10.9799 18.3776 11.085 18.2725L10.9082 18.0957L10.7314 17.9189C10.7194 17.931 10.7034 17.9375 10.6871 17.9375L10.6875 18.1875ZM10.9082 18.0957L11.085 18.2724C11.1899 18.1674 11.2499 18.0249 11.25 17.8752L11 17.875L10.75 17.8748C10.75 17.8908 10.7435 17.9068 10.7314 17.919L10.9082 18.0957ZM11 17.875L11.25 17.875C11.25 17.7637 11.2169 17.6548 11.1551 17.5623L10.9473 17.7012L10.7394 17.8401C10.7463 17.8504 10.75 17.8626 10.75 17.875L11 17.875ZM10.9473 17.7012L11.1551 17.5622C11.0931 17.4696 11.0048 17.3974 10.9023 17.355L10.8066 17.5859L10.711 17.8169C10.7226 17.8217 10.7327 17.8301 10.7395 17.8402L10.9473 17.7012ZM10.8066 17.5859L10.902 17.3548C10.7992 17.3124 10.6858 17.3016 10.5772 17.3232L10.626 17.5684L10.6747 17.8136C10.6871 17.8111 10.7001 17.8124 10.7113 17.817L10.8066 17.5859ZM10.6875 1L10.6876 1.25C12.5535 1.24895 14.3733 1.83009 15.893 2.91261L16.0381 2.70898L16.1831 2.50536C14.5786 1.36244 12.6573 0.748895 10.6874 0.75L10.6875 1ZM16.0381 2.70898L15.893 2.9126C17.4128 3.99529 18.5574 5.52563 19.166 7.28955L19.4023 7.20801L19.6387 7.12646C18.996 5.2641 17.7877 3.64843 16.1831 2.50537L16.0381 2.70898ZM19.4023 7.20801L19.166 7.28955C19.7746 9.05353 19.8174 10.9638 19.2886 12.7534L19.5283 12.8242L19.7681 12.8951C20.3264 11.0057 20.2813 8.98888 19.6387 7.12647L19.4023 7.20801ZM19.5283 12.8242L19.2886 12.7534C18.7597 14.5429 17.6857 16.123 16.2161 17.2728L16.3701 17.4697L16.5242 17.6666C18.0758 16.4526 19.2098 14.7844 19.7681 12.8951L19.5283 12.8242ZM16.3701 17.4697L16.6187 17.4965L16.7154 16.6L16.4668 16.5732L16.2182 16.5464L16.1216 17.4429L16.3701 17.4697ZM16.4668 16.5732L16.6349 16.7583C17.956 15.5577 18.8833 13.9852 19.2941 12.248L19.0508 12.1904L18.8075 12.1329C18.42 13.7719 17.5451 15.2555 16.2987 16.3882L16.4668 16.5732ZM19.0508 12.1904L19.2941 12.2479C19.7047 10.5108 19.5798 8.69004 18.9363 7.02511L18.7031 7.11523L18.4699 7.20536C19.0771 8.77622 19.1949 10.4941 18.8075 12.1329L19.0508 12.1904ZM18.7031 7.11523L18.9363 7.02511C18.2928 5.36006 17.1606 3.92824 15.6882 2.91881L15.5469 3.125L15.4055 3.33119C16.7946 4.28351 17.8627 5.63437 18.4699 7.20536L18.7031 7.11523ZM15.5469 3.125L15.6882 2.9188C14.216 1.90946 12.4725 1.36918 10.6875 1.36914L10.6875 1.61914L10.6875 1.86914C12.3716 1.86918 14.0165 2.37892 15.4055 3.3312L15.5469 3.125ZM10.6875 1.61914L10.6875 1.36914C8.90253 1.36915 7.15899 1.90956 5.68677 2.9188L5.82812 3.125L5.96948 3.3312C7.35848 2.37901 9.00348 1.86915 10.6875 1.86914L10.6875 1.61914ZM5.82812 3.125L5.68676 2.91881C4.21446 3.92823 3.08222 5.36013 2.43869 7.0251L2.67188 7.11523L2.90506 7.20536C3.51224 5.63445 4.58051 4.28349 5.96949 3.33119L5.82812 3.125ZM2.67188 7.11523L2.43868 7.02511C1.79521 8.69005 1.67024 10.5108 2.08093 12.2479L2.32422 12.1904L2.56751 12.1329C2.18006 10.4941 2.29795 8.77623 2.90507 7.20536L2.67188 7.11523ZM2.32422 12.1904L2.08093 12.248C2.49171 13.9852 3.41895 15.5577 4.74007 16.7583L4.9082 16.5732L5.07633 16.3882C3.82988 15.2556 2.95506 13.7719 2.56751 12.1329L2.32422 12.1904ZM4.9082 16.5732L4.65964 16.6L4.75632 17.4965L5.00488 17.4697L5.25344 17.4429L5.15676 16.5464L4.9082 16.5732ZM5.00488 17.4697L5.15893 17.2728C3.68923 16.123 2.61529 14.543 2.08643 12.7534L1.84668 12.8242L1.60693 12.8951C2.16527 14.7844 3.2991 16.4526 4.85084 17.6666L5.00488 17.4697ZM1.84668 12.8242L2.08643 12.7534C1.5576 10.9638 1.60037 9.05355 2.20899 7.28955L1.97266 7.20801L1.73633 7.12647C1.09375 8.9889 1.04861 11.0057 1.60693 12.8951L1.84668 12.8242ZM1.97266 7.20801L2.20898 7.28956C2.81767 5.52562 3.96128 3.99522 5.48099 2.9126L5.33594 2.70898L5.19088 2.50537C3.58631 3.64845 2.37893 5.26423 1.73633 7.12646L1.97266 7.20801ZM5.33594 2.70898L5.48099 2.9126C7.00082 1.8299 8.82121 1.24892 10.6874 1.25L10.6875 1L10.6876 0.75C8.71751 0.748855 6.79558 1.36221 5.19088 2.50537L5.33594 2.70898ZM8.40723 12.1064L8.20069 12.2473C8.37048 12.4962 8.57495 12.7204 8.80811 12.9119L8.9668 12.7188L9.12549 12.5256C8.92935 12.3645 8.75702 12.1756 8.61376 11.9656L8.40723 12.1064ZM8.9668 12.7188V12.4688H8.67383V12.7188V12.9688H8.9668V12.7188ZM8.67383 12.7188L8.67703 12.4688C8.18912 12.4625 7.71141 12.6123 7.31449 12.8963L7.45996 13.0996L7.60543 13.3029C7.91563 13.081 8.28915 12.9638 8.67063 12.9687L8.67383 12.7188ZM7.45996 13.0996L7.31447 12.8963C6.91768 13.1803 6.62197 13.5836 6.47038 14.0473L6.70801 14.125L6.94563 14.2027C7.06414 13.8401 7.29532 13.5249 7.60545 13.3029L7.45996 13.0996ZM6.70801 14.125V13.875H6.3125V14.125V14.375H6.70801V14.125ZM6.3125 14.125L6.31068 13.875C6.21098 13.8757 6.11119 13.8849 6.013 13.9023L6.05664 14.1484L6.10028 14.3946C6.17084 14.3821 6.24265 14.3755 6.31432 14.375L6.3125 14.125ZM6.05664 14.1484L6.30031 14.2043C6.41359 13.7105 6.68086 13.2651 7.06334 12.9329L6.89941 12.7441L6.73548 12.5554C6.273 12.9571 5.94992 13.4955 5.81297 14.0925L6.05664 14.1484ZM6.89941 12.7441L7.06332 12.9329C7.44581 12.6008 7.92385 12.3985 8.42845 12.3555L8.40723 12.1064L8.38601 11.8573C7.77578 11.9093 7.19786 12.1539 6.73551 12.5554L6.89941 12.7441ZM12.9678 12.1064L12.9466 12.3555C13.4511 12.3985 13.9292 12.6009 14.3117 12.9329L14.4756 12.7441L14.6395 12.5554C14.1771 12.154 13.5992 11.9093 12.989 11.8573L12.9678 12.1064ZM14.4756 12.7441L14.3117 12.9329C14.6941 13.2651 14.9614 13.7105 15.0747 14.2043L15.3184 14.1484L15.562 14.0925C15.4251 13.4956 15.102 12.957 14.6395 12.5554L14.4756 12.7441ZM15.3184 14.1484L15.3619 13.9023C15.2642 13.885 15.165 13.8758 15.0653 13.875L15.0635 14.125L15.0616 14.375C15.1329 14.3755 15.2042 14.3821 15.2748 14.3946L15.3184 14.1484ZM15.0635 14.125V13.875H14.667V14.125V14.375H15.0635V14.125ZM14.667 14.125L14.9046 14.0473C14.753 13.5836 14.4574 13.1803 14.0605 12.8963L13.915 13.0996L13.7696 13.3029C14.0797 13.5248 14.3108 13.8401 14.4294 14.2027L14.667 14.125ZM13.915 13.0996L14.0605 12.8963C13.6636 12.6123 13.1859 12.4625 12.698 12.4688L12.7012 12.7188L12.7044 12.9687C13.0858 12.9638 13.4594 13.081 13.7696 13.3029L13.915 13.0996ZM12.7012 12.7188V12.4688H12.4082V12.7188V12.9688H12.7012V12.7188ZM12.4082 12.7188L12.5669 12.9119C12.8001 12.7204 13.0045 12.4963 13.1743 12.2473L12.9678 12.1064L12.7612 11.9656C12.6179 12.1757 12.4457 12.3644 12.2495 12.5256L12.4082 12.7188ZM10.6875 8.03125L10.6875 8.28125C11.7416 8.28133 12.625 9.20187 12.625 10.375H12.875H13.125C13.125 8.95871 12.0496 7.78135 10.6875 7.78125L10.6875 8.03125ZM12.875 10.375H12.625C12.625 11.5476 11.7416 12.4687 10.6875 12.4688L10.6875 12.7188L10.6875 12.9688C12.0497 12.9687 13.125 11.7907 13.125 10.375H12.875ZM10.6875 12.7188V12.4688C9.63335 12.4688 8.75 11.5477 8.75 10.375H8.5H8.25C8.25 11.7908 9.32524 12.9688 10.6875 12.9688V12.7188ZM8.5 10.375H8.75C8.75 9.2018 9.63332 8.28125 10.6875 8.28125V8.03125V7.78125C9.32528 7.78125 8.25 8.95867 8.25 10.375H8.5ZM10.6875 8.65625V8.40625C9.66598 8.40625 8.875 9.31216 8.875 10.375H9.125H9.375C9.375 9.54239 9.9859 8.90625 10.6875 8.90625V8.65625ZM9.125 10.375H8.875C8.875 11.4378 9.66598 12.3438 10.6875 12.3438V12.0938V11.8438C9.9859 11.8438 9.375 11.2076 9.375 10.375H9.125ZM10.6875 12.0938L10.6875 12.3438C11.7089 12.3436 12.5 11.4378 12.5 10.375H12.25H12C12 11.2075 11.3891 11.8437 10.6875 11.8438L10.6875 12.0938ZM12.25 10.375H12.5C12.5 9.31219 11.7089 8.40636 10.6875 8.40625L10.6875 8.65625L10.6875 8.90625C11.3891 8.90632 12 9.54247 12 10.375H12.25ZM4.12109 9.91211L4.12076 10.1621C4.13688 10.1621 4.15302 10.1687 4.16502 10.1807L4.3418 10.0039L4.51857 9.82713C4.41356 9.72212 4.27076 9.66231 4.12143 9.66211L4.12109 9.91211ZM4.3418 10.0039L4.16483 10.1805C4.17727 10.193 4.18359 10.2091 4.18359 10.2246H4.43359H4.68359C4.68359 10.0746 4.62323 9.93201 4.51876 9.82732L4.3418 10.0039ZM4.43359 10.2246L4.18359 10.2246C4.18359 10.2402 4.17724 10.2563 4.16488 10.2687L4.3418 10.4453L4.51872 10.6219C4.62331 10.5172 4.68357 10.3746 4.68359 10.2247L4.43359 10.2246ZM4.3418 10.4453L4.16502 10.2685C4.15302 10.2805 4.13688 10.2871 4.12076 10.2871L4.12109 10.5371L4.12143 10.7871C4.27076 10.7869 4.41356 10.7271 4.51857 10.6221L4.3418 10.4453ZM4.12109 10.5371V10.2871H3.02539V10.5371V10.7871H4.12109V10.5371ZM3.02539 10.5371V10.2871C3.00972 10.2871 2.99374 10.2808 2.98139 10.2685L2.80469 10.4453L2.62799 10.6222C2.73283 10.7269 2.8754 10.7871 3.02539 10.7871V10.5371ZM2.80469 10.4453L2.98146 10.2685C2.96923 10.2563 2.96289 10.2404 2.96289 10.2246L2.71289 10.2246L2.46289 10.2247C2.46292 10.3745 2.52296 10.5171 2.62791 10.6221L2.80469 10.4453ZM2.71289 10.2246H2.96289C2.96289 10.2088 2.96919 10.193 2.98146 10.1807L2.80469 10.0039L2.62791 9.82713C2.52297 9.93207 2.46289 10.0746 2.46289 10.2246H2.71289ZM2.80469 10.0039L2.98143 10.1807C2.99374 10.1684 3.00964 10.1621 3.02539 10.1621V9.91211V9.66211C2.87542 9.66211 2.73284 9.72224 2.62794 9.8271L2.80469 10.0039ZM3.02539 9.91211V10.1621H4.12109V9.91211V9.66211H3.02539V9.91211ZM18.3496 9.91211L18.3495 10.1621C18.3654 10.1621 18.3814 10.1685 18.3935 10.1807L18.5703 10.0039L18.7471 9.82713C18.6421 9.72217 18.4995 9.66217 18.3497 9.66211L18.3496 9.91211ZM18.5703 10.0039L18.3935 10.1806C18.4058 10.193 18.4121 10.2089 18.4121 10.2246H18.6621H18.9121C18.9121 10.0746 18.8519 9.93205 18.7472 9.82721L18.5703 10.0039ZM18.6621 10.2246L18.4121 10.2246C18.4121 10.2404 18.4058 10.2563 18.3935 10.2686L18.5703 10.4453L18.7471 10.6221C18.852 10.5171 18.9121 10.3745 18.9121 10.2247L18.6621 10.2246ZM18.5703 10.4453L18.3935 10.2685C18.3814 10.2807 18.3654 10.2871 18.3495 10.2871L18.3496 10.5371L18.3497 10.7871C18.4995 10.787 18.6421 10.7271 18.7471 10.6221L18.5703 10.4453ZM18.3496 10.5371V10.2871H17.0996V10.5371V10.7871H18.3496V10.5371ZM17.0996 10.5371V10.2871C17.0839 10.2871 17.068 10.2808 17.0556 10.2685L16.8789 10.4453L16.7022 10.6222C16.807 10.7269 16.9496 10.7871 17.0996 10.7871V10.5371ZM16.8789 10.4453L17.0557 10.2685C17.0434 10.2563 17.0371 10.2404 17.0371 10.2246L16.7871 10.2246L16.5371 10.2247C16.5371 10.3745 16.5972 10.5171 16.7021 10.6221L16.8789 10.4453ZM16.7871 10.2246H17.0371C17.0371 10.2088 17.0434 10.193 17.0557 10.1807L16.8789 10.0039L16.7021 9.82713C16.5972 9.93207 16.5371 10.0746 16.5371 10.2246H16.7871ZM16.8789 10.0039L17.0557 10.1807C17.068 10.1684 17.0839 10.1621 17.0996 10.1621V9.91211V9.66211C16.9496 9.66211 16.8071 9.72224 16.7022 9.8271L16.8789 10.0039ZM17.0996 9.91211V10.1621H18.3496V9.91211V9.66211H17.0996V9.91211ZM15.2686 8.20703L15.3542 8.4419C15.3703 8.43602 15.3872 8.4369 15.4018 8.44365L15.5068 8.2168L15.6119 7.98995C15.4763 7.92714 15.3222 7.92135 15.1829 7.97216L15.2686 8.20703ZM15.5068 8.2168L15.4017 8.44362C15.417 8.45072 15.4286 8.46344 15.4343 8.4788L15.6689 8.39258L15.9036 8.30635C15.8521 8.16615 15.747 8.05256 15.612 7.98997L15.5068 8.2168ZM15.6689 8.39258L15.4342 8.47853C15.44 8.49447 15.4392 8.51201 15.4324 8.52671L15.6592 8.63184L15.886 8.73696C15.9489 8.60131 15.9548 8.44629 15.9037 8.30663L15.6689 8.39258ZM15.6592 8.63184L15.4325 8.52644C15.426 8.5404 15.4137 8.55224 15.3971 8.55835L15.4834 8.79297L15.5697 9.02759C15.7082 8.97662 15.8227 8.87315 15.8859 8.73723L15.6592 8.63184ZM15.4834 8.79297L15.3973 8.55826L13.3045 9.32584L13.3906 9.56055L13.4767 9.79526L15.5695 9.02768L15.4834 8.79297ZM13.3906 9.56055L13.6321 9.49591C13.5737 9.27761 13.4929 9.06581 13.3912 8.86401L13.168 8.97656L12.9447 9.08911C13.031 9.2603 13.0996 9.43999 13.1491 9.62519L13.3906 9.56055ZM13.168 8.97656L13.254 9.21131L15.3546 8.44177L15.2686 8.20703L15.1826 7.97229L13.082 8.74182L13.168 8.97656ZM10.6875 5.0625L10.6874 5.3125C10.7033 5.31251 10.7192 5.31889 10.7314 5.33107L10.9082 5.1543L11.085 4.97752C10.98 4.87256 10.8374 4.81257 10.6876 4.8125L10.6875 5.0625ZM10.9082 5.1543L10.7314 5.33102C10.7437 5.34335 10.75 5.35929 10.75 5.375L11 5.375L11.25 5.375C11.25 5.22502 11.1898 5.08244 11.085 4.97757L10.9082 5.1543ZM11 5.375H10.75V7.42578H11H11.25V5.375H11ZM11 7.42578L11.031 7.17771C10.8029 7.14922 10.5721 7.14923 10.344 7.17771L10.375 7.42578L10.406 7.67385C10.5929 7.65051 10.7821 7.6505 10.969 7.67385L11 7.42578ZM10.375 7.42578H10.625V5.375H10.375H10.125V7.42578H10.375ZM10.375 5.375L10.625 5.375C10.625 5.3592 10.6313 5.34334 10.6436 5.33107L10.4668 5.1543L10.29 4.97752C10.1851 5.08246 10.125 5.22504 10.125 5.375L10.375 5.375ZM10.4668 5.1543L10.6435 5.33113C10.6558 5.31881 10.6718 5.3125 10.6875 5.3125V5.0625V4.8125C10.5375 4.8125 10.3949 4.87266 10.2901 4.97746L10.4668 5.1543ZM5.26953 4.49414L5.2694 4.74414C5.28532 4.74415 5.3013 4.75056 5.31346 4.76271L5.49023 4.58594L5.66701 4.40916C5.56205 4.3042 5.41936 4.24422 5.26967 4.24414L5.26953 4.49414ZM5.49023 4.58594L5.31346 4.76271L6.08787 5.53713L6.26465 5.36035L6.44143 5.18357L5.66701 4.40916L5.49023 4.58594ZM6.26465 5.36035L6.08772 5.53698C6.10011 5.54939 6.10644 5.5655 6.10645 5.58107L6.35645 5.58105L6.60645 5.58104C6.60643 5.43107 6.54615 5.28848 6.44157 5.18372L6.26465 5.36035ZM6.35645 5.58105L6.10645 5.58095C6.10644 5.59668 6.10004 5.6128 6.08777 5.62509L6.26465 5.80176L6.44153 5.97843C6.54623 5.87361 6.60638 5.73096 6.60645 5.58116L6.35645 5.58105ZM6.26465 5.80176L6.08787 5.62498C6.07576 5.63709 6.05973 5.64354 6.04375 5.64355L6.04395 5.89355L6.04414 6.14355C6.19373 6.14344 6.33645 6.08351 6.44143 5.97853L6.26465 5.80176ZM6.04395 5.89355L6.04384 5.64355C6.02839 5.64356 6.01238 5.63732 5.99987 5.62483L5.82324 5.80176L5.64661 5.97868C5.75134 6.08323 5.89385 6.14362 6.04405 6.14355L6.04395 5.89355ZM5.82324 5.80176L6.00002 5.62498L5.22561 4.85057L5.04883 5.02734L4.87205 5.20412L5.64647 5.97853L5.82324 5.80176ZM5.04883 5.02734L5.2256 4.85057C5.21334 4.8383 5.20703 4.82243 5.20703 4.80664L4.95703 4.80664L4.70703 4.80664C4.70703 4.95659 4.76712 5.09919 4.87205 5.20412L5.04883 5.02734ZM4.95703 4.80664L5.20703 4.80671C5.20704 4.79085 5.2134 4.77492 5.22561 4.76271L5.04883 4.58594L4.87205 4.40916C4.7671 4.51411 4.70707 4.65675 4.70703 4.80657L4.95703 4.80664ZM5.04883 4.58594L5.2255 4.76282C5.23787 4.75046 5.25391 4.74414 5.26953 4.74414L5.26953 4.49414L5.26953 4.24414C5.11954 4.24414 4.97695 4.30438 4.87216 4.40906L5.04883 4.58594ZM16.1045 4.49414L16.1045 4.74414C16.1133 4.74414 16.1214 4.74586 16.1283 4.74869L16.2236 4.51758L16.319 4.28646C16.2503 4.25815 16.1773 4.24415 16.1045 4.24414L16.1045 4.49414ZM16.2236 4.51758L16.1279 4.74854C16.134 4.75106 16.1414 4.75572 16.1484 4.76267L16.3252 4.58594L16.502 4.4092C16.4509 4.35811 16.3891 4.31551 16.3193 4.28662L16.2236 4.51758ZM16.3252 4.58594L16.1485 4.76276C16.1554 4.76971 16.1601 4.7771 16.1626 4.7832L16.3936 4.6875L16.6245 4.5918C16.5956 4.52208 16.553 4.46019 16.5019 4.40912L16.3252 4.58594ZM16.3936 4.6875L16.1624 4.78283C16.1653 4.78968 16.167 4.79779 16.167 4.80669L16.417 4.80664L16.667 4.80659C16.667 4.7338 16.653 4.66083 16.6247 4.59217L16.3936 4.6875ZM16.417 4.80664H16.167C16.167 4.81674 16.165 4.8252 16.1626 4.83106L16.3936 4.92676L16.6245 5.02246C16.6535 4.95249 16.667 4.87861 16.667 4.80664H16.417ZM16.3936 4.92676L16.1627 4.83085C16.1609 4.83505 16.1569 4.84208 16.1484 4.85057L16.3252 5.02734L16.502 5.20412C16.5513 5.15474 16.5948 5.09404 16.6244 5.02266L16.3936 4.92676ZM16.3252 5.02734L16.1484 4.85057L15.374 5.62498L15.5508 5.80176L15.7276 5.97853L16.502 5.20412L16.3252 5.02734ZM15.5508 5.80176L15.374 5.62498C15.367 5.63201 15.3596 5.63665 15.3535 5.63915L15.4492 5.87012L15.5449 6.10109C15.6147 6.07217 15.6766 6.02954 15.7276 5.97854L15.5508 5.80176ZM15.4492 5.87012L15.3538 5.63905C15.3471 5.64181 15.3391 5.64355 15.3299 5.64355L15.3301 5.89355L15.3302 6.14355C15.4028 6.14352 15.4758 6.12963 15.5447 6.10119L15.4492 5.87012ZM15.3301 5.89355L15.3301 5.64355C15.32 5.64355 15.3115 5.64159 15.3056 5.63915L15.21 5.87012L15.1143 6.10109C15.1842 6.13005 15.2581 6.14355 15.3301 6.14355L15.3301 5.89355ZM15.21 5.87012L15.3058 5.63923C15.3017 5.6375 15.2947 5.63351 15.2862 5.62498L15.1094 5.80176L14.9326 5.97853C14.982 6.02791 15.0426 6.07134 15.1141 6.10101L15.21 5.87012ZM15.1094 5.80176L15.2862 5.62499C15.2776 5.61644 15.2736 5.60947 15.2719 5.60531L15.041 5.70117L14.8101 5.79703C14.8398 5.8685 14.8832 5.92917 14.9326 5.97853L15.1094 5.80176ZM15.041 5.70117L15.272 5.6055C15.2695 5.59961 15.2676 5.59113 15.2676 5.58106L15.0176 5.58105L14.7676 5.58105C14.7676 5.65305 14.7811 5.72692 14.81 5.79684L15.041 5.70117ZM15.0176 5.58105L15.2676 5.5812C15.2676 5.57206 15.2693 5.56402 15.2721 5.55735L15.041 5.46191L14.8099 5.36648C14.7815 5.43535 14.7676 5.50831 14.7676 5.58091L15.0176 5.58105ZM15.041 5.46191L15.272 5.55759C15.2745 5.55157 15.2791 5.54415 15.2862 5.53713L15.1094 5.36035L14.9326 5.18357C14.8816 5.23458 14.839 5.29644 14.81 5.36624L15.041 5.46191ZM15.1094 5.36035L15.2862 5.53713L16.0606 4.76271L15.8838 4.58594L15.707 4.40916L14.9326 5.18357L15.1094 5.36035ZM15.8838 4.58594L16.0606 4.76271C16.069 4.75423 16.0761 4.75019 16.0803 4.74845L15.9844 4.51758L15.8885 4.28671C15.8171 4.31635 15.7564 4.35978 15.707 4.40916L15.8838 4.58594ZM15.9844 4.51758L16.0801 4.74854C16.0859 4.74611 16.0944 4.74414 16.1045 4.74414V4.49414V4.24414C16.0325 4.24414 15.9586 4.25763 15.8887 4.28662L15.9844 4.51758ZM17.1768 1.63379L17.2352 1.87687C17.2506 1.87316 17.2676 1.87562 17.2822 1.88452L17.4121 1.6709L17.542 1.45728C17.4156 1.38046 17.2634 1.35585 17.1183 1.39071L17.1768 1.63379ZM17.4121 1.6709L17.2827 1.88481C18.3955 2.55794 19.2777 3.55369 19.8121 4.73944L20.04 4.63672L20.268 4.53399C19.6919 3.25591 18.7411 2.18259 17.5415 1.45699L17.4121 1.6709ZM20.04 4.63672L19.8071 4.72737C19.8105 4.7361 19.8117 4.74437 19.8116 4.75143L20.0615 4.75684L20.3115 4.76225C20.3131 4.68725 20.2994 4.61382 20.273 4.54606L20.04 4.63672ZM20.0615 4.75684L19.8116 4.75139C19.8114 4.75973 19.8096 4.76795 19.8063 4.77532L20.0352 4.87598L20.264 4.97663C20.2938 4.90891 20.3099 4.83596 20.3115 4.76228L20.0615 4.75684ZM20.0352 4.87598L19.8064 4.77517C19.8026 4.78375 19.7977 4.7904 19.7927 4.79523L19.9658 4.97559L20.1389 5.15595C20.1928 5.10422 20.2348 5.04295 20.2639 4.97678L20.0352 4.87598ZM19.9658 4.97559L19.7929 4.79502C19.7883 4.79942 19.7811 4.80437 19.7717 4.80802L19.8623 5.04102L19.9529 5.27401C20.02 5.24791 20.084 5.20851 20.1387 5.15616L19.9658 4.97559ZM19.8623 5.04102L19.7749 4.80681C19.7589 4.81277 19.7407 4.81235 19.7245 4.80526L19.624 5.03418L19.5236 5.2631C19.6583 5.32224 19.8113 5.32691 19.9498 5.27522L19.8623 5.04102ZM19.624 5.03418L19.7249 4.80542C19.7089 4.79838 19.6961 4.78517 19.6896 4.76924L19.458 4.86328L19.2264 4.95733C19.2818 5.09391 19.3886 5.20361 19.5232 5.26294L19.624 5.03418ZM19.458 4.86328L19.6848 4.75805C19.1531 3.61222 18.2941 2.6495 17.2163 1.99079L17.0859 2.2041L16.9556 2.41742C17.9492 3.02471 18.7411 3.91223 19.2312 4.96852L19.458 4.86328ZM17.0859 2.2041L17.217 1.9912C17.2038 1.98306 17.1935 1.9694 17.1894 1.95236L16.9463 2.01074L16.7032 2.06913C16.7377 2.2128 16.8273 2.33849 16.9549 2.417L17.0859 2.2041ZM16.9463 2.01074L17.1894 1.95262C17.1854 1.93558 17.1884 1.91833 17.1966 1.90504L16.9834 1.77441L16.7702 1.64379C16.6919 1.77164 16.6687 1.9249 16.7031 2.06886L16.9463 2.01074ZM16.9834 1.77441L17.1965 1.90513C17.2052 1.89093 17.2194 1.88068 17.2353 1.87683L17.1768 1.63379L17.1182 1.39075C16.9733 1.42568 16.8481 1.51686 16.7703 1.6437L16.9834 1.77441ZM4.19727 1.63379L4.13867 1.87683C4.15459 1.88066 4.16881 1.89094 4.17755 1.90517L4.39062 1.77441L4.6037 1.64366C4.52593 1.51692 4.40075 1.42568 4.25586 1.39075L4.19727 1.63379ZM4.39062 1.77441L4.17747 1.90504C4.18561 1.91833 4.18866 1.93558 4.18458 1.95262L4.42773 2.01074L4.67088 2.06886C4.7053 1.9249 4.68214 1.77164 4.60378 1.64379L4.39062 1.77441ZM4.42773 2.01074L4.18465 1.95233C4.18055 1.96941 4.17024 1.98308 4.15705 1.9912L4.28809 2.2041L4.41913 2.41701C4.5467 2.33849 4.63631 2.21277 4.67082 2.06915L4.42773 2.01074ZM4.28809 2.2041L4.15819 1.99049C3.07826 2.64719 2.2185 3.61083 1.68901 4.75855L1.91602 4.86328L2.14302 4.96801C2.63084 3.91061 3.42296 3.02277 4.41798 2.41771L4.28809 2.2041ZM1.91602 4.86328L1.68565 4.76617C1.68025 4.77898 1.67121 4.79003 1.65954 4.79794L1.7998 5.00488L1.94007 5.21182C2.03162 5.14977 2.10334 5.0625 2.14638 4.9604L1.91602 4.86328ZM1.7998 5.00488L1.6597 4.79783C1.64747 4.8061 1.63356 4.81034 1.62031 4.81059L1.625 5.06055L1.62969 5.3105C1.74111 5.30841 1.84885 5.27355 1.93991 5.21194L1.7998 5.00488ZM1.625 5.06055L1.61754 4.81066C1.6134 4.81078 1.60764 4.81005 1.60112 4.80755L1.51172 5.04102L1.42232 5.27448C1.48792 5.2996 1.5594 5.31262 1.63246 5.31044L1.625 5.06055ZM1.51172 5.04102L1.60238 4.80803C1.58634 4.80179 1.57407 4.78976 1.56766 4.77521L1.33887 4.87598L1.11008 4.97674C1.17042 5.11376 1.28275 5.22018 1.42105 5.274L1.51172 5.04102ZM1.33887 4.87598L1.56772 4.77534C1.56131 4.76076 1.56073 4.74341 1.56697 4.72737L1.33398 4.63672L1.101 4.54607C1.04714 4.68448 1.04971 4.83948 1.11002 4.97661L1.33887 4.87598ZM1.33398 4.63672L1.56191 4.73944C2.09632 3.55367 2.97847 2.55795 4.09131 1.88481L3.96191 1.6709L3.83252 1.45699C2.63294 2.1826 1.6821 3.25589 1.10606 4.534L1.33398 4.63672ZM3.96191 1.6709L4.09185 1.88448C4.10633 1.87567 4.12334 1.87315 4.13894 1.87689L4.19727 1.63379L4.25559 1.39069C4.11073 1.35593 3.95847 1.38036 3.83198 1.45732L3.96191 1.6709ZM10.6875 2.25L10.6874 2.5C10.7033 2.50001 10.7192 2.50639 10.7314 2.51857L10.9082 2.3418L11.085 2.16502C10.98 2.06006 10.8374 2.00007 10.6876 2L10.6875 2.25ZM10.9082 2.3418L10.7314 2.51852C10.7437 2.53085 10.75 2.54679 10.75 2.5625L11 2.5625L11.25 2.5625C11.25 2.41252 11.1898 2.26994 11.085 2.16507L10.9082 2.3418ZM11 2.5625H10.75V3.8125H11H11.25V2.5625H11ZM11 3.8125L10.75 3.81249C10.75 3.82822 10.7437 3.84416 10.7314 3.85648L10.9082 4.0332L11.085 4.20992C11.1898 4.10505 11.25 3.96248 11.25 3.81251L11 3.8125ZM10.9082 4.0332L10.7314 3.85643C10.7192 3.8686 10.7033 3.87499 10.6874 3.875L10.6875 4.125L10.6876 4.375C10.8374 4.37493 10.98 4.31495 11.085 4.20998L10.9082 4.0332ZM10.6875 4.125L10.6875 3.875C10.6718 3.875 10.6558 3.86869 10.6435 3.85637L10.4668 4.0332L10.2901 4.21003C10.3949 4.31484 10.5375 4.37499 10.6875 4.375L10.6875 4.125ZM10.4668 4.0332L10.6436 3.85643C10.6313 3.84416 10.625 3.8283 10.625 3.81249L10.375 3.8125L10.125 3.81251C10.125 3.96245 10.1851 4.10504 10.29 4.20998L10.4668 4.0332ZM10.375 3.8125H10.625V2.5625H10.375H10.125V3.8125H10.375ZM10.375 2.5625L10.625 2.5625C10.625 2.5467 10.6313 2.53084 10.6436 2.51857L10.4668 2.3418L10.29 2.16502C10.1851 2.26996 10.125 2.41254 10.125 2.5625L10.375 2.5625ZM10.4668 2.3418L10.6435 2.51863C10.6558 2.50631 10.6718 2.5 10.6875 2.5V2.25V2C10.5375 2 10.3949 2.06016 10.2901 2.16496L10.4668 2.3418ZM2.32129 1.47754L2.26384 1.72085C2.28073 1.72484 2.29466 1.73518 2.30296 1.74861L2.51562 1.61719L2.72829 1.48576C2.64946 1.3582 2.52316 1.26833 2.37874 1.23423L2.32129 1.47754ZM2.51562 1.61719L2.3029 1.74852C2.31137 1.76223 2.31431 1.77951 2.3104 1.79607L2.55371 1.85352L2.79702 1.91096C2.83118 1.76629 2.80691 1.61309 2.72835 1.48585L2.51562 1.61719ZM2.55371 1.85352L2.31049 1.7957C2.3067 1.81164 2.29677 1.82547 2.28259 1.83424L2.41406 2.04688L2.54554 2.25951C2.67201 2.18131 2.76248 2.05627 2.79693 1.91133L2.55371 1.85352ZM2.41406 2.04688L2.28105 1.8352C1.91527 2.06504 1.60563 2.37367 1.374 2.73792L1.58496 2.87207L1.79592 3.00622C1.98792 2.7043 2.24441 2.44874 2.54707 2.25855L2.41406 2.04688ZM1.58496 2.87207L1.36877 2.74652C1.36008 2.76148 1.34514 2.77306 1.32836 2.77774L1.39551 3.01855L1.46266 3.25937C1.60494 3.21969 1.72691 3.12546 1.80115 2.99762L1.58496 2.87207ZM1.39551 3.01855L1.32868 2.77765C1.31238 2.78217 1.29446 2.78023 1.27893 2.77176L1.15918 2.99121L1.03943 3.21067C1.16836 3.28102 1.32006 3.29893 1.46234 3.25946L1.39551 3.01855ZM1.15918 2.99121L1.28203 2.77348C1.26795 2.76554 1.25708 2.75187 1.25251 2.73549L1.01172 2.80273L0.770931 2.86998C0.810915 3.01316 0.906116 3.13547 1.03633 3.20894L1.15918 2.99121ZM1.01172 2.80273L1.25253 2.73559C1.24785 2.71881 1.25018 2.70177 1.2579 2.68805L1.04004 2.56543L0.822176 2.44281C0.748665 2.57342 0.731096 2.72711 0.770905 2.86988L1.01172 2.80273ZM1.04004 2.56543L1.25279 2.69672C1.49531 2.30374 1.82596 1.97209 2.21811 1.72783L2.08594 1.51562L1.95376 1.30342C1.49631 1.58836 1.11044 1.97532 0.827291 2.43414L1.04004 2.56543ZM2.08594 1.51562L2.21721 1.72839C2.23107 1.71984 2.24771 1.71706 2.26405 1.7209L2.32129 1.47754L2.37853 1.23418C2.23386 1.20015 2.08157 1.22456 1.95466 1.30286L2.08594 1.51562ZM19.0527 1.47754L19.1104 1.7208C19.1256 1.71718 19.1425 1.71961 19.1573 1.7287L19.2881 1.51562L19.4188 1.30255C19.2928 1.2252 19.1406 1.19977 18.9951 1.23428L19.0527 1.47754ZM19.2881 1.51562L19.1559 1.72783C19.5481 1.9721 19.8787 2.30375 20.1212 2.69672L20.334 2.56543L20.5467 2.43414C20.2636 1.97532 19.8777 1.58836 19.4203 1.30342L19.2881 1.51562ZM20.334 2.56543L20.1161 2.68804C20.1238 2.70177 20.1262 2.71882 20.1215 2.73559L20.3623 2.80273L20.6031 2.86988C20.6429 2.72711 20.6253 2.57341 20.5519 2.44282L20.334 2.56543ZM20.3623 2.80273L20.1215 2.73547C20.1169 2.75187 20.106 2.76555 20.092 2.77348L20.2148 2.99121L20.3377 3.20894C20.4679 3.13547 20.5631 3.01314 20.6031 2.86999L20.3623 2.80273ZM20.2148 2.99121L20.0948 2.77192C20.0798 2.78015 20.0619 2.78224 20.0453 2.77763L19.9785 3.01855L19.9118 3.25948C20.0537 3.29881 20.2056 3.28128 20.3349 3.2105L20.2148 2.99121ZM19.9785 3.01855L20.0454 2.77766C20.0291 2.77315 20.0149 2.7623 20.006 2.7471L19.79 2.87305L19.5741 2.999C19.6482 3.12612 19.7692 3.21991 19.9117 3.25945L19.9785 3.01855ZM19.79 2.87305L20.0012 2.73919C19.7696 2.37392 19.4592 2.06491 19.0928 1.83509L18.96 2.04688L18.8271 2.25866C19.1303 2.44884 19.3872 2.70458 19.5789 3.0069L19.79 2.87305ZM18.96 2.04688L19.0919 1.83455C19.0769 1.82519 19.0671 1.81099 19.0636 1.79609L18.8203 1.85352L18.577 1.91094C18.6114 2.05682 18.7027 2.18134 18.828 2.2592L18.96 2.04688ZM18.8203 1.85352L19.0637 1.79635C19.0602 1.78148 19.0627 1.76376 19.072 1.74861L18.8594 1.61719L18.6467 1.48577C18.5691 1.61139 18.5426 1.76445 18.5769 1.91068L18.8203 1.85352ZM18.8594 1.61719L19.0719 1.74885C19.0808 1.73441 19.0949 1.72449 19.1105 1.72078L19.0527 1.47754L18.995 1.2343C18.8498 1.26876 18.7249 1.35951 18.6469 1.48552L18.8594 1.61719Z" fill="url(#paint1_linear_1892_3132)"/>
<defs>
<linearGradient id="paint0_linear_1892_3132" x1="10.6869" y1="1" x2="10.6869" y2="21" gradientUnits="userSpaceOnUse">
<stop stop-color="#E527BB"/>
<stop offset="1" stop-color="#A78BEF"/>
</linearGradient>
<linearGradient id="paint1_linear_1892_3132" x1="10.6869" y1="1" x2="10.6869" y2="21" gradientUnits="userSpaceOnUse">
<stop stop-color="#E527BB"/>
<stop offset="1" stop-color="#A78BEF"/>
</linearGradient>
</defs>
</svg>
