<svg width="543" height="329" viewBox="0 0 543 329" fill="none" xmlns="http://www.w3.org/2000/svg">
<g clip-path="url(#clip0_958_10083)">
<path opacity="0.2" d="M127.492 328.58L412.142 311.93C487.412 307.53 545.652 243.73 542.512 168.39C539.872 105.08 517.192 37.64 440.912 8.81999C387.262 -11.45 317.592 5.13999 273.402 38.85C262.782 46.95 253.022 56.24 241.612 63.17C215.022 79.32 191.672 68.17 163.972 63.88C105.412 54.79 46.9621 73.46 16.7021 127.43C-29.7579 210.35 25.0421 334.57 127.492 328.58Z" fill="#999999"/>
<g clip-path="url(#clip1_958_10083)">
<path d="M362.289 317.155H173.274C167.121 317.155 162.102 312.127 161.981 305.847L157.262 61.079C157.141 54.72 162.081 49.4576 168.313 49.3223L362.039 44.9999C368.371 44.8575 373.583 50.0629 373.583 56.5287V305.612C373.583 311.992 368.528 317.155 362.289 317.155Z" fill="#E527BB"/>
<path d="M353.894 305.156H180.17C176.415 305.156 173.367 302.115 173.367 298.37V86.0734C173.367 82.3277 176.415 79.2871 180.17 79.2871H353.894C357.649 79.2871 360.698 82.3277 360.698 86.0734V298.37C360.69 302.115 357.649 305.156 353.894 305.156Z" fill="#A78BEF"/>
<path d="M353.388 89.1426H249.843V97.2889H353.388V89.1426Z" fill="#BDD0FB"/>
<path d="M353.388 100.714H249.843V105.428H353.388V100.714Z" fill="#BDD0FB"/>
<path d="M353.388 108.86H249.843V113.574H353.388V108.86Z" fill="#BDD0FB"/>
<path d="M353.388 117H249.843V121.714H353.388V117Z" fill="#BDD0FB"/>
<path d="M245.981 191.15H186.688V199.296H245.981V191.15Z" fill="#BDD0FB"/>
<path d="M245.981 202.721H186.688V207.435H245.981V202.721Z" fill="#BDD0FB"/>
<path d="M245.981 210.861H186.688V215.575H245.981V210.861Z" fill="#BDD0FB"/>
<path d="M245.981 219.007H186.688V223.721H245.981V219.007Z" fill="#BDD0FB"/>
<path d="M247.18 150.311H241.405V174.864H247.18V150.311Z" fill="url(#paint0_linear_958_10083)"/>
<path d="M256.831 158.75H251.056V174.864H256.831V158.75Z" fill="url(#paint1_linear_958_10083)"/>
<path d="M266.489 137.893H260.714V174.857H266.489V137.893Z" fill="url(#paint2_linear_958_10083)"/>
<path d="M276.141 165.985H270.366V174.864H276.141V165.985Z" fill="url(#paint3_linear_958_10083)"/>
<path d="M285.799 142.834H280.024V174.857H285.799V142.834Z" fill="url(#paint4_linear_958_10083)"/>
<path d="M295.451 148.382H289.676V174.864H295.451V148.382Z" fill="url(#paint5_linear_958_10083)"/>
<path d="M305.109 154.406H299.334V174.857H305.109V154.406Z" fill="url(#paint6_linear_958_10083)"/>
<path d="M314.768 130.423H308.993V174.864H314.768V130.423Z" fill="url(#paint7_linear_958_10083)"/>
<path d="M324.419 135.122H318.644V174.864H324.419V135.122Z" fill="url(#paint8_linear_958_10083)"/>
<path d="M334.078 142.236H328.302V174.864H334.078V142.236Z" fill="url(#paint9_linear_958_10083)"/>
<path d="M343.729 166.803H337.954V174.857H343.729V166.803Z" fill="url(#paint10_linear_958_10083)"/>
<path d="M353.387 151.152H347.612V174.857H353.387V151.152Z" fill="url(#paint11_linear_958_10083)"/>
<path d="M353.395 290.152H186.688V294.866H353.395V290.152Z" fill="#BDD0FB"/>
<path d="M227.249 174.864H193.398C189.693 174.864 186.688 171.866 186.688 168.171V95.8433C186.688 92.1476 189.693 89.1497 193.398 89.1497H227.249C230.954 89.1497 233.959 92.1476 233.959 95.8433V168.171C233.966 171.866 230.961 174.864 227.249 174.864Z" fill="#BDD0FB"/>
<path opacity="0.57" d="M233.845 282.868H199.251C192.548 282.868 187.116 277.449 187.116 270.762V244.4C187.116 237.714 192.548 232.295 199.251 232.295H233.845C240.548 232.295 245.98 237.714 245.98 244.4V270.762C245.98 277.449 240.541 282.868 233.845 282.868Z" fill="white"/>
<path d="M304.809 236.752C304.153 236.752 303.517 236.489 303.053 236.012C302.511 235.449 302.268 234.659 302.404 233.883L309.778 193.151C309.892 192.51 310.263 191.947 310.799 191.577C311.334 191.207 311.998 191.072 312.633 191.185C331.136 194.653 345.471 209.451 348.312 228.001C348.412 228.642 348.248 229.297 347.862 229.817C347.477 230.336 346.891 230.685 346.249 230.778L305.166 236.717C305.045 236.745 304.924 236.752 304.809 236.752Z" fill="#BDD0FB"/>
<path d="M293.987 282.006C273.978 282.006 257.695 265.763 257.695 245.803C257.695 225.843 273.978 209.6 293.987 209.6C296.222 209.6 298.492 209.814 300.733 210.234C302.054 210.483 302.925 211.743 302.682 213.061L297.342 242.556L327.096 238.255C328.424 238.062 329.659 238.974 329.859 240.298C330.137 242.107 330.273 243.959 330.273 245.803C330.287 265.77 314.004 282.006 293.987 282.006Z" fill="#BDD0FB"/>
<path d="M326.796 60.2886L334.006 54.3142C334.699 53.7374 335.577 53.4241 336.483 53.4241H371.412C373.554 53.4241 375.289 55.1545 375.289 57.2907V69.2397C375.289 71.3759 373.554 73.1063 371.412 73.1063H336.483C335.577 73.1063 334.706 72.793 334.006 72.2162L326.796 66.2417C324.933 64.6894 324.933 61.8339 326.796 60.2886Z" fill="white"/>
<path d="M360.812 56.8137H367.044C368.678 56.8137 370.006 58.1382 370.006 59.7689V65.9855C370.006 67.6162 368.678 68.9407 367.044 68.9407H360.812C359.177 68.9407 357.849 67.6162 357.849 65.9855V59.7689C357.849 58.1382 359.177 56.8137 360.812 56.8137Z" fill="#A78BEF"/>
<path d="M360.54 61.3282L363.803 67.2457L367.315 58.5083L363.481 63.1155L360.54 61.3282Z" fill="#E527BB"/>
</g>
<path d="M409.034 317.353C409.034 317.353 409.675 320.948 409.982 324.516C410.103 325.906 409.025 327.12 407.632 327.175C402.876 327.37 392.705 327.759 389.054 327.592C388.506 327.564 388.144 327.008 388.348 326.499C388.515 326.072 388.85 325.73 389.268 325.535L406.062 317.835L409.034 317.353Z" fill="#A78BEF"/>
<path d="M409.554 315.241L409.043 319.54C409.043 319.54 406.099 320.902 404.093 319.364L405.309 314.564L409.554 315.241Z" fill="url(#paint12_linear_958_10083)"/>
<path d="M409.164 234.34C409.387 235.461 410.353 290.417 404.464 315.046C404.371 315.444 404.575 315.861 404.956 316.019C405.857 316.39 407.631 316.918 409.749 316.992C410.409 317.01 410.994 316.584 411.18 315.954C412.861 310.237 420.933 281.615 421.983 254.262C423.162 223.703 421.983 253.224 421.983 253.224L421.295 234.331L409.164 234.34Z" fill="black"/>
<path d="M428.355 319.225C428.355 319.225 429.368 321.041 430.352 325.869C430.529 326.74 429.916 327.574 429.033 327.657C427.463 327.815 425.048 328.009 423.107 328C422.215 327.991 421.518 327.222 421.63 326.332C421.844 324.572 422.512 321.681 424.574 319.429L428.355 319.225Z" fill="#A78BEF"/>
<path d="M429.247 313.693L428.049 320.198C428.049 320.198 426.869 321.078 424.528 320.439L425.095 313.434L429.247 313.693Z" fill="url(#paint13_linear_958_10083)"/>
<path d="M432.479 236.027C437.291 265.019 431.439 307.689 429.46 316.038C429.34 316.547 428.922 316.936 428.411 317.029C427.528 317.177 426.079 317.298 424.639 316.881C424.147 316.742 423.803 316.297 423.776 315.778C423.506 309.023 423.989 267.577 419.503 251.195C419.28 250.361 418.769 249.638 418.063 249.138L409.35 242.957L408.681 232.969L432.479 236.027Z" fill="black"/>
<path d="M401.789 181.08C416.223 180.839 432.145 184.86 432.145 184.86C436.445 209.906 432.897 238.788 432.897 238.788C421.722 241.707 409.117 237 409.117 237C407.26 226.529 398.593 197.073 398.593 197.073C391.543 196.202 385.728 194.173 380.944 191.485C384.595 187.269 386.313 181.895 387.066 178.726C392.175 180.311 397.339 181.154 401.789 181.08Z" fill="#A78BEF"/>
<path d="M359.153 159.88C360.574 158.175 362.367 158.981 362.367 158.981C364.494 167.932 375.631 175.187 387.066 178.736C386.323 181.914 384.595 187.279 380.944 191.495C361.967 180.839 359.153 159.88 359.153 159.88Z" fill="url(#paint14_linear_958_10083)"/>
<path d="M359.497 160.315C359.348 160.788 361.066 161.501 362.079 159.574C362.116 158.647 362.673 154.7 362.125 153.949C359.181 149.946 353.477 144.934 353.477 144.934C352.511 145.879 353.31 146.815 353.31 146.815L356.078 149.687C355.502 150.734 354.796 151.614 354.462 152.874C354.211 153.829 354.369 154.848 354.852 155.719C355.335 156.59 356.004 157.73 356.626 158.619C357.806 160.296 359.497 160.315 359.497 160.315Z" fill="url(#paint15_linear_958_10083)"/>
<path d="M357.286 151.559L359.803 153.69L360.593 155.812L358.345 158.304C358.345 158.304 357.593 154.088 357.026 153.18C356.469 152.263 356.766 151.818 357.286 151.559Z" fill="url(#paint16_linear_958_10083)"/>
<path d="M426.608 198.806L432.145 184.86C432.145 184.86 445.623 193.997 447.843 205.579C445.298 205.764 440.662 206.431 436.12 208.711C435.126 203.253 426.608 198.806 426.608 198.806Z" fill="#A78BEF"/>
<path d="M414.83 211.926C414.83 211.926 429.971 220.46 435.071 213.177C436.13 211.667 436.381 210.156 436.12 208.729C440.653 206.441 445.289 205.783 447.843 205.597C448.512 209.091 448.159 212.806 446.097 216.559C437.151 232.885 412.824 215.66 412.824 215.66L414.83 211.926Z" fill="url(#paint17_linear_958_10083)"/>
<path d="M416.651 222.721L408.393 193.941C408.3 193.617 408.022 193.376 407.678 193.339C406.182 193.163 401.845 192.672 396.838 192.255C391.413 191.801 385.19 191.421 380.954 191.597C379.719 191.652 378.948 192.94 379.505 194.043C382.598 200.251 391.432 217.662 396.002 223.638C396.16 223.851 396.42 223.972 396.68 223.972L415.843 223.796C416.4 223.786 416.8 223.258 416.651 222.721Z" fill="#E527BB"/>
<path d="M395.974 189.753L389.983 188.761C389.667 188.706 389.407 189.011 389.5 189.317L390.094 191.105C390.15 191.263 390.28 191.374 390.447 191.393L396.206 192.162C396.503 192.199 396.754 191.93 396.68 191.643L396.308 190.077C396.29 189.91 396.15 189.78 395.974 189.753Z" fill="#DAA7EE"/>
<path d="M400.461 194.812L399.968 192.245C399.922 191.986 399.708 191.791 399.448 191.763L387.354 190.54C386.945 190.503 386.62 190.874 386.713 191.272L387.484 194.469C387.549 194.729 387.772 194.914 388.032 194.923L399.857 195.516C400.228 195.535 400.535 195.192 400.461 194.812Z" fill="#DAA7EE"/>
<path d="M414.654 215.762C414.654 215.762 415.806 211.046 415.341 209.369C414.877 207.691 413.976 205.542 410.975 206.024C407.975 206.505 404.445 207.766 404.445 207.766C404.445 207.766 404.622 209.943 406.907 209.239L405.495 210.332C405.495 210.332 405.699 212.074 407.622 211.148L406.312 212.593C406.312 212.593 407.139 214.029 408.551 213.112C409.954 212.185 410.632 216.337 414.654 215.762Z" fill="url(#paint18_linear_958_10083)"/>
<path d="M416.409 169.396L420.998 182.646C421.072 182.868 420.979 183.109 420.784 183.22C419.53 183.915 415.025 185.907 409.591 182.47C409.025 182.108 408.644 181.525 408.551 180.867L407.065 169.405H416.409V169.396Z" fill="url(#paint19_linear_958_10083)"/>
<path d="M406.415 157.127C406.415 157.127 401.371 166.597 402.021 170.424C402.671 174.251 408.913 173.973 414.375 170.869L418.193 160.648L406.415 157.127Z" fill="url(#paint20_linear_958_10083)"/>
<path d="M414.134 165.847C413.911 165.745 413.827 165.476 413.966 165.272C414.366 164.661 415.128 163.401 415.369 162.298C415.369 162.298 416.279 161.714 413.065 160.954C409.851 160.185 405.058 158.999 404.055 156.266C403.071 153.606 405.653 146.916 409.768 152.244C409.926 152.448 410.232 152.448 410.39 152.244C411.068 151.364 412.842 149.548 415.304 150.651C417.608 151.679 417.868 153.366 417.84 154.218C417.831 154.468 418.054 154.663 418.304 154.616C419.465 154.394 422.271 154.209 423.571 157.063C424.649 159.416 423.952 160.75 423.311 161.408C423.107 161.621 423.2 161.964 423.478 162.057C424.24 162.289 425.234 162.937 425.132 164.726C424.992 167.2 422.224 166.986 421.435 166.866C421.305 166.847 421.175 166.894 421.091 166.986C420.413 167.737 417.366 170.906 414.059 171.295C413.771 171.332 413.548 171.045 413.641 170.776L415.072 166.634C415.137 166.44 415.044 166.227 414.858 166.152L414.134 165.847Z" fill="black"/>
<path d="M413.558 166.43C413.558 166.43 417.153 163.975 417.413 166.041C417.673 168.107 414.18 169.043 412.443 168.265L413.558 166.43Z" fill="url(#paint21_linear_958_10083)"/>
<path d="M413.129 139.156C416.421 134.596 415.385 128.238 410.815 124.954C406.244 121.669 399.87 122.703 396.578 127.262C393.285 131.821 394.322 138.18 398.892 141.464C403.463 144.748 409.837 143.715 413.129 139.156Z" fill="#A78BEF"/>
<path d="M408.403 142.399C413.484 140.439 416.011 134.741 414.047 129.672C412.082 124.603 406.37 122.083 401.289 124.042C396.207 126.002 393.68 131.7 395.645 136.769C397.609 141.838 403.321 144.358 408.403 142.399Z" fill="#A78BEF"/>
<path opacity="0.78" d="M396.922 129.043C396.875 129.043 396.819 129.024 396.773 128.996C396.615 128.904 396.559 128.709 396.652 128.552C398.426 125.447 401.752 123.631 405.337 123.817C405.904 123.844 406.48 123.928 407.028 124.058C407.204 124.095 407.316 124.28 407.269 124.456C407.232 124.632 407.046 124.743 406.87 124.697C406.359 124.576 405.83 124.502 405.3 124.475C401.975 124.308 398.882 125.994 397.228 128.885C397.163 128.987 397.042 129.052 396.922 129.043Z" fill="white"/>
<path opacity="0.78" d="M410.893 139.407C414.189 136.189 414.247 130.916 411.021 127.628C407.795 124.34 402.509 124.283 399.212 127.5C395.916 130.718 395.859 135.992 399.085 139.28C402.31 142.568 407.597 142.625 410.893 139.407Z" fill="white"/>
<path d="M403.926 139.578L403.972 138.67C403.024 138.587 402.105 138.318 401.455 137.993C401.222 137.882 401.12 137.604 401.195 137.363L401.464 136.529C401.566 136.224 401.91 136.085 402.198 136.224C402.839 136.529 403.647 136.789 404.52 136.835C405.43 136.882 406.127 136.613 406.155 135.974C406.183 135.408 405.681 135.038 404.427 134.639C402.644 134.055 401.39 133.203 401.473 131.619C401.548 130.182 402.653 129.145 404.492 128.95L404.539 128.042C404.557 127.755 404.799 127.523 405.096 127.542L405.625 127.569C405.913 127.588 406.146 127.829 406.127 128.125L406.09 128.941C406.963 129.024 407.595 129.2 408.087 129.404C408.338 129.506 408.468 129.793 408.384 130.053L408.133 130.822C408.04 131.118 407.706 131.266 407.418 131.137C406.963 130.933 406.313 130.72 405.458 130.673C404.381 130.618 404.046 131.053 404.028 131.452C404 131.943 404.631 132.313 406.015 132.823C407.994 133.527 408.784 134.398 408.709 135.89C408.635 137.261 407.557 138.438 405.57 138.642L405.514 139.652C405.495 139.939 405.254 140.171 404.957 140.152L404.427 140.125C404.13 140.115 403.907 139.865 403.926 139.578Z" fill="#E527BB"/>
<path d="M430.457 97.5313C430.551 88.3619 423.175 80.8527 413.983 80.7591C404.791 80.6656 397.263 88.0231 397.169 97.1926C397.076 106.362 404.451 113.871 413.643 113.965C422.836 114.058 430.363 106.701 430.457 97.5313Z" fill="#A78BEF"/>
<path d="M429.692 100.122C431.226 91.3865 425.371 83.0642 416.614 81.5335C407.857 80.0028 399.514 85.8434 397.979 94.5788C396.445 103.314 402.3 111.637 411.057 113.167C419.814 114.698 428.157 108.857 429.692 100.122Z" fill="#A78BEF"/>
<path opacity="0.78" d="M400.906 90.3205C400.86 90.3205 400.813 90.3019 400.767 90.2834C400.618 90.2 400.563 90.0147 400.656 89.8664C403.516 84.8721 408.858 81.9534 414.607 82.2499C415.527 82.2962 416.437 82.4259 417.329 82.639C417.496 82.6761 417.598 82.8429 417.561 83.0097C417.524 83.1765 417.357 83.2784 417.19 83.2413C416.335 83.0375 415.462 82.917 414.58 82.8707C409.062 82.5927 403.934 85.391 401.194 90.1815C401.129 90.2649 401.018 90.3205 400.906 90.3205Z" fill="white"/>
<path opacity="0.78" d="M420.557 109.708C427.198 106.186 429.72 97.9616 426.19 91.3372C422.659 84.7129 414.414 82.1975 407.773 85.719C401.132 89.2405 398.611 97.4653 402.141 104.09C405.671 110.714 413.917 113.229 420.557 109.708Z" fill="white"/>
<path d="M412.304 107.74L412.378 106.267C410.836 106.128 409.331 105.683 408.273 105.155C407.892 104.97 407.715 104.525 407.855 104.127L408.3 102.774C408.468 102.274 409.025 102.042 409.499 102.274C410.548 102.774 411.858 103.2 413.288 103.274C414.775 103.348 415.908 102.904 415.964 101.875C416.01 100.949 415.183 100.346 413.149 99.6883C410.242 98.734 408.198 97.3441 408.328 94.7589C408.449 92.4239 410.251 90.7282 413.251 90.4039L413.326 88.9306C413.353 88.4581 413.753 88.0874 414.236 88.1152L415.109 88.1616C415.583 88.1894 415.954 88.5878 415.927 89.0696L415.861 90.3947C417.283 90.5244 418.314 90.8209 419.122 91.1544C419.54 91.3212 419.744 91.7938 419.605 92.2108L419.196 93.4617C419.038 93.9435 418.5 94.1844 418.035 93.9805C417.292 93.6562 416.233 93.3041 414.84 93.23C413.075 93.1374 412.536 93.8416 412.499 94.4994C412.462 95.3056 413.484 95.9079 415.741 96.7325C418.964 97.8815 420.255 99.3084 420.125 101.745C420.014 103.978 418.249 105.906 414.998 106.239L414.914 107.889C414.886 108.361 414.487 108.732 414.004 108.704L413.131 108.658C412.648 108.611 412.285 108.213 412.304 107.74Z" fill="#E527BB"/>
<path d="M451.004 136.844C455.772 128.694 453.014 118.231 444.843 113.475C436.673 108.719 426.184 111.471 421.416 119.621C416.649 127.772 419.407 138.234 427.577 142.99C435.748 147.746 446.237 144.995 451.004 136.844Z" fill="#A78BEF"/>
<path d="M451.141 135.441C455.122 127.226 451.674 117.347 443.439 113.375C435.204 109.404 425.301 112.843 421.319 121.058C417.337 129.272 420.785 139.151 429.02 143.123C437.255 147.095 447.159 143.656 451.141 135.441Z" fill="#A78BEF"/>
<path opacity="0.78" d="M422.921 121C422.875 121 422.828 120.982 422.782 120.963C422.633 120.88 422.578 120.694 422.67 120.546C425.606 115.413 431.105 112.411 437.022 112.716C437.969 112.763 438.907 112.902 439.818 113.115C439.985 113.152 440.087 113.319 440.05 113.485C440.013 113.652 439.846 113.754 439.678 113.717C438.805 113.513 437.895 113.384 436.994 113.337C431.309 113.05 426.033 115.932 423.209 120.861C423.153 120.954 423.042 121.009 422.921 121Z" fill="white"/>
<path opacity="0.78" d="M449.958 132.714C452.22 125.329 448.053 117.513 440.65 115.256C433.247 112.999 425.412 117.155 423.149 124.54C420.886 131.925 425.053 139.741 432.456 141.998C439.859 144.256 447.695 140.099 449.958 132.714Z" fill="white"/>
<path d="M434.662 138.939L434.737 137.419C433.148 137.271 431.597 136.817 430.51 136.279C430.12 136.085 429.944 135.631 430.074 135.214L430.529 133.815C430.696 133.305 431.281 133.064 431.764 133.296C432.851 133.815 434.198 134.25 435.665 134.324C437.198 134.399 438.359 133.944 438.415 132.888C438.461 131.934 437.616 131.322 435.517 130.637C432.526 129.654 430.417 128.227 430.557 125.559C430.677 123.159 432.535 121.408 435.619 121.074L435.693 119.555C435.721 119.063 436.139 118.693 436.622 118.711L437.514 118.758C438.006 118.785 438.378 119.202 438.359 119.684L438.285 121.046C439.753 121.176 440.811 121.482 441.638 121.825C442.065 122.001 442.279 122.483 442.14 122.918L441.713 124.206C441.545 124.706 440.997 124.957 440.514 124.743C439.753 124.41 438.656 124.049 437.226 123.974C435.415 123.882 434.857 124.604 434.82 125.281C434.774 126.106 435.833 126.736 438.155 127.579C441.471 128.756 442.799 130.229 442.669 132.731C442.549 135.029 440.737 137.011 437.393 137.364L437.31 139.059C437.282 139.55 436.864 139.921 436.381 139.902L435.489 139.856C435.015 139.838 434.634 139.421 434.662 138.939Z" fill="#E527BB"/>
<path d="M464.355 95.4823C465.55 88.0292 460.463 81.0205 452.991 79.8279C445.519 78.6353 438.493 83.7104 437.298 91.1635C436.102 98.6165 441.19 105.625 448.661 106.818C456.133 108.01 463.159 102.935 464.355 95.4823Z" fill="#A78BEF"/>
<path d="M463.763 96.1167C465.315 88.9856 460.779 81.9495 453.63 80.4009C446.481 78.8524 439.428 83.3779 437.875 90.509C436.323 97.64 440.86 104.676 448.008 106.225C455.157 107.773 462.211 103.248 463.763 96.1167Z" fill="#A78BEF"/>
<path opacity="0.78" d="M440.189 87.5964C440.142 87.5964 440.087 87.5779 440.04 87.5501C439.882 87.4574 439.827 87.2536 439.91 87.0868C442.279 82.9542 446.71 80.5358 451.475 80.7767C452.237 80.8138 452.989 80.925 453.732 81.0917C453.918 81.1381 454.029 81.3141 453.983 81.4995C453.936 81.6848 453.76 81.796 453.574 81.7496C452.878 81.5828 452.162 81.4809 451.438 81.4439C446.933 81.2122 442.734 83.5009 440.495 87.4111C440.43 87.5408 440.31 87.6057 440.189 87.5964Z" fill="white"/>
<path opacity="0.78" d="M454.045 104.383C460.022 102.767 463.554 96.6245 461.934 90.6628C460.314 84.701 454.156 81.1779 448.179 82.7938C442.203 84.4096 438.671 90.5524 440.291 96.5142C441.911 102.476 448.069 105.999 454.045 104.383Z" fill="white"/>
<path d="M449.58 101.848L449.645 100.634C448.382 100.522 447.137 100.152 446.264 99.7164C445.948 99.5588 445.809 99.1975 445.92 98.8639L446.292 97.752C446.431 97.3443 446.886 97.1497 447.276 97.335C448.14 97.752 449.218 98.0948 450.397 98.1597C451.623 98.2245 452.552 97.8539 452.599 97.0107C452.636 96.2416 451.958 95.7506 450.277 95.2131C447.889 94.4255 446.199 93.2858 446.31 91.1547C446.412 89.2274 447.899 87.8375 450.36 87.5688L450.425 86.3549C450.444 85.9658 450.778 85.66 451.168 85.6878L451.884 85.7248C452.274 85.7434 452.58 86.077 452.552 86.4661L452.497 87.5595C453.667 87.6707 454.512 87.9116 455.181 88.1803C455.525 88.3193 455.692 88.6992 455.581 89.0513L455.246 90.0798C455.116 90.4782 454.67 90.6728 454.289 90.5061C453.676 90.2373 452.803 89.9501 451.661 89.8852C450.212 89.8111 449.766 90.3856 449.738 90.923C449.701 91.5809 450.555 92.0812 452.404 92.7577C455.06 93.7028 456.119 94.8796 456.017 96.881C455.924 98.7249 454.466 100.309 451.791 100.587L451.716 101.949C451.698 102.339 451.363 102.644 450.973 102.617L450.258 102.58C449.859 102.57 449.561 102.246 449.58 101.848Z" fill="#E527BB"/>
<path d="M463.15 274.923C461.315 273.128 458.948 270.958 456.148 271.734C453.511 272.464 452.505 275.337 452.032 277.736C451.427 280.827 450.954 283.943 450.461 287.053C449.967 290.195 449.501 293.338 449.047 296.481C448.791 298.256 448.541 300.031 448.291 301.806C448.166 302.694 448.041 303.581 447.923 304.469C447.804 305.343 447.653 306.211 447.607 307.092C447.594 307.375 448.035 307.414 448.094 307.145C448.436 305.665 448.574 304.12 448.791 302.621C449.008 301.109 449.231 299.597 449.448 298.085C449.889 295.08 450.342 292.082 450.796 289.078C451.25 286.073 451.716 283.075 452.196 280.077C452.604 277.533 452.795 274.377 455.05 272.694C456.286 271.773 457.864 271.76 459.264 272.299C460.75 272.865 461.933 273.93 463.09 274.982C463.13 275.015 463.182 274.962 463.15 274.923Z" fill="#1A2E35"/>
<path d="M460.645 273.088C460.645 273.088 456.897 271.74 455.05 274.475C453.202 277.21 455.411 284.16 472.459 288.078C472.459 288.078 472.012 280.636 468.357 272.667C464.701 264.699 458.192 267.717 460.645 273.088Z" fill="#3CAA18"/>
<path d="M471.48 286.941C471.243 286.461 470.914 286.007 470.625 285.56C470.342 285.12 470.053 284.686 469.764 284.245C469.547 283.916 469.323 283.594 469.1 283.272C469.113 283.193 469.119 283.108 469.133 283.029C469.152 282.884 469.172 282.733 469.192 282.588C469.231 282.266 469.277 281.951 469.33 281.628C469.376 281.313 469.428 280.991 469.488 280.675C469.547 280.353 469.58 279.972 469.711 279.669C469.731 279.617 469.645 279.597 469.639 279.656C469.619 279.847 469.54 280.037 469.488 280.222C469.448 280.366 469.409 280.511 469.376 280.655C469.29 280.978 469.211 281.306 469.139 281.628C469.073 281.931 469.014 282.233 468.962 282.536C468.935 282.68 468.916 282.825 468.896 282.976C468.593 282.542 468.284 282.115 467.962 281.694C467.055 280.504 466.102 279.354 465.109 278.236C465.115 278.223 465.122 278.216 465.122 278.203C465.208 276.415 465.168 274.64 465.563 272.878C465.576 272.832 465.503 272.805 465.49 272.851C465.115 274.502 464.747 276.237 464.852 277.947C464.497 277.552 464.136 277.158 463.774 276.763C462.946 275.869 462.098 274.995 461.236 274.133C461.204 274.101 461.144 274.147 461.177 274.186C462.617 275.731 463.978 277.342 465.306 278.986C464.274 278.953 463.222 279.025 462.19 279.104C461.033 279.189 459.882 279.341 458.738 279.498C458.692 279.505 458.705 279.584 458.751 279.571C459.895 279.4 461.046 279.308 462.196 279.262C463.307 279.216 464.412 279.268 465.523 279.262C466.24 280.149 466.95 281.05 467.653 281.951C467.601 281.951 467.548 281.951 467.495 281.951C467.232 281.944 466.969 281.944 466.713 281.944C466.194 281.951 465.674 281.99 465.161 282.036C464.103 282.128 463.051 282.273 462.012 282.51C461.966 282.523 461.979 282.588 462.025 282.582C463.071 282.463 464.123 282.365 465.175 282.325C465.674 282.306 466.181 282.306 466.68 282.306C466.943 282.306 467.2 282.306 467.463 282.306C467.62 282.306 467.758 282.325 467.89 282.266C468.35 282.865 468.81 283.456 469.264 284.055C469.626 284.528 469.981 285.008 470.336 285.494C470.691 285.987 471.019 286.533 471.414 286.993C471.447 287.02 471.499 286.98 471.48 286.941Z" fill="#1A2E35"/>
<path d="M462.275 276.961C461.677 276.862 461.059 276.875 460.454 276.875C459.843 276.875 459.238 276.895 458.626 276.915C458.574 276.915 458.574 276.993 458.633 276.993C459.251 276.947 459.869 276.941 460.487 276.947C461.085 276.954 461.683 277.013 462.275 277C462.288 276.993 462.295 276.967 462.275 276.961Z" fill="#1A2E35"/>
<path d="M467.627 278.335C467.699 277.749 467.771 277.164 467.896 276.592C467.909 276.54 467.831 276.52 467.824 276.579C467.739 277.151 467.627 277.723 467.541 278.295C467.502 278.584 467.462 278.867 467.423 279.156C467.39 279.419 467.331 279.702 467.351 279.972C467.357 280.024 467.436 280.024 467.449 279.978C467.522 279.722 467.515 279.433 467.535 279.17C467.561 278.893 467.594 278.611 467.627 278.335Z" fill="#1A2E35"/>
<path d="M466.503 271.885C466.351 272.45 466.207 273.022 466.102 273.601C466.049 273.89 466.003 274.186 465.964 274.482C465.924 274.765 465.872 275.06 465.904 275.343C465.904 275.363 465.944 275.37 465.95 275.343C466.036 275.08 466.049 274.798 466.088 274.521C466.128 274.239 466.167 273.956 466.22 273.673C466.325 273.082 466.43 272.49 466.582 271.905C466.588 271.865 466.516 271.839 466.503 271.885Z" fill="#1A2E35"/>
<path d="M444.3 306.461C444.208 305.389 444.103 304.318 443.991 303.246C443.768 301.122 443.505 299.005 443.222 296.888C442.939 294.778 442.67 292.661 442.328 290.564C442.17 289.597 442.012 288.611 441.677 287.69C441.388 286.895 440.914 286.178 440.086 285.896C438.081 285.205 436.726 287.283 435.918 288.756C435.891 288.802 435.957 288.834 435.983 288.795C436.47 288.098 437.811 286.139 439.33 286.231C440.356 286.29 441.171 287.02 441.664 289.571C442.887 295.935 443.991 308.841 444.123 309.682C444.189 310.129 444.504 310.11 444.511 309.63C444.517 308.571 444.392 307.513 444.3 306.461Z" fill="#1A2E35"/>
<path d="M436.457 287.96C436.457 287.96 438.212 281.767 434.333 284.863C427.884 290.018 427.654 301.228 427.654 301.228C427.654 301.228 439.12 294.567 440.546 290.176C442.676 283.627 436.457 287.96 436.457 287.96Z" fill="#3CAA18"/>
<path d="M438.627 290.997C437.726 291.182 436.812 291.3 435.905 291.431C435.477 291.491 435.043 291.556 434.616 291.615C434.327 291.655 434.031 291.681 433.742 291.721C434.596 290.544 435.458 289.374 436.279 288.17C436.312 288.124 436.24 288.078 436.201 288.111C435.517 288.802 434.892 289.551 434.287 290.32C434.116 289.84 433.946 289.36 433.781 288.88C433.584 288.328 433.374 287.776 433.235 287.204C433.222 287.158 433.15 287.178 433.163 287.224C433.321 287.789 433.433 288.368 433.584 288.94C433.729 289.492 433.899 290.031 434.09 290.564C433.669 291.109 433.268 291.668 432.874 292.233C432.677 291.675 432.433 291.136 432.256 290.564C432.243 290.518 432.164 290.537 432.184 290.583C432.387 291.214 432.499 291.865 432.69 292.496C432.427 292.878 432.164 293.266 431.914 293.654C431.454 294.37 431.013 295.1 430.586 295.83C430.52 295.869 430.474 295.922 430.487 296.001C429.764 297.256 429.074 298.525 428.397 299.807C428.37 299.853 428.443 299.886 428.462 299.847C429.146 298.578 429.902 297.349 430.691 296.132H430.698C430.783 296.086 430.967 296.08 431.072 296.06C431.204 296.034 431.335 296.001 431.467 295.974C431.763 295.909 432.059 295.836 432.354 295.757C432.933 295.613 433.512 295.475 434.103 295.376C434.149 295.37 434.13 295.291 434.084 295.304C433.387 295.435 432.69 295.514 431.993 295.593C431.664 295.633 431.329 295.672 431 295.725C430.987 295.725 430.967 295.731 430.954 295.731C431.368 295.107 431.782 294.482 432.21 293.871C432.624 293.266 433.051 292.667 433.485 292.076C433.88 292.023 434.274 291.918 434.669 291.839C435.116 291.754 435.556 291.668 435.997 291.583C436.884 291.405 437.765 291.208 438.659 291.063C438.699 291.063 438.679 290.991 438.627 290.997Z" fill="#1A2E35"/>
<path d="M431.737 291.609C431.684 291.444 431.631 291.28 431.579 291.116C431.467 290.774 431.388 290.432 431.316 290.077C431.309 290.031 431.23 290.051 431.243 290.097C431.316 290.445 431.401 290.794 431.48 291.142C431.559 291.484 431.644 291.846 431.776 292.174C431.809 292.253 431.934 292.22 431.907 292.135C431.861 291.957 431.796 291.786 431.737 291.609Z" fill="#1A2E35"/>
<path d="M439.803 289.564C439.277 289.643 438.752 289.682 438.226 289.728C437.693 289.774 437.174 289.847 436.648 289.926C436.621 289.932 436.621 289.972 436.648 289.972C437.174 289.932 437.7 289.893 438.226 289.827C438.752 289.761 439.271 289.682 439.803 289.643C439.856 289.636 439.849 289.558 439.803 289.564Z" fill="#1A2E35"/>
<path d="M452.742 298.624C452.538 294.068 452.249 289.518 451.789 284.975C451.559 282.713 451.302 280.452 450.987 278.203C450.678 276.001 450.296 273.792 449.678 271.648C449.212 270.005 448.594 268.361 447.496 267.026C446.417 265.712 444.82 264.89 443.091 265.1C441.098 265.35 439.488 266.606 438.1 267.967C436.542 269.499 435.116 271.168 433.669 272.812C433.301 273.226 432.939 273.647 432.584 274.061C432.552 274.101 432.611 274.153 432.637 274.114C434.051 272.49 435.517 270.919 437.049 269.413C438.469 268.019 439.928 266.501 441.894 265.922C442.801 265.652 443.787 265.58 444.708 265.856C445.451 266.08 446.095 266.52 446.628 267.073C447.732 268.223 448.357 269.781 448.797 271.287C450.02 275.475 450.461 279.867 450.914 284.199C451.375 288.598 451.69 293.003 451.907 297.414C452.131 301.852 452.302 306.296 452.729 310.721C452.782 311.267 452.854 311.813 452.92 312.358C452.966 312.726 453.538 312.726 453.505 312.345C453.156 307.782 452.946 303.206 452.742 298.624Z" fill="#1A2E35"/>
<path d="M437.851 268.473C437.851 268.473 440.454 263.654 437.377 262.109C434.3 260.564 424.011 272.056 421 288.854C421 288.854 437.627 281.497 443.268 274.166C448.922 266.842 442.519 265.225 437.851 268.473Z" fill="#3CAA18"/>
<path d="M440.297 272.391C438.429 272.398 436.562 272.247 434.695 272.267C435.043 271.865 435.392 271.464 435.747 271.063C436.233 270.511 436.792 269.979 437.206 269.367C437.233 269.328 437.174 269.275 437.141 269.301C436.621 269.709 436.181 270.242 435.727 270.721C435.26 271.221 434.794 271.721 434.327 272.22C433.61 272.996 432.913 273.779 432.216 274.568C432.216 274.489 432.216 274.416 432.216 274.344C432.216 274.015 432.216 273.687 432.216 273.364C432.223 272.733 432.229 272.096 432.236 271.464C432.249 270.182 432.243 268.887 432.335 267.605C432.341 267.553 432.262 267.559 432.256 267.605C432.164 268.894 432.032 270.176 431.973 271.464C431.94 272.096 431.927 272.733 431.92 273.364C431.914 273.693 431.914 274.022 431.914 274.344C431.914 274.522 431.907 274.712 431.92 274.896C431.809 275.021 431.697 275.14 431.592 275.265C430.099 276.967 428.686 278.729 427.305 280.524C427.305 280.426 427.292 280.327 427.279 280.228C427.259 280.031 427.233 279.834 427.213 279.637C427.167 279.209 427.108 278.782 427.042 278.355C426.983 277.954 426.917 277.552 426.851 277.151C426.773 276.704 426.667 276.244 426.635 275.79C426.628 275.738 426.549 275.744 426.562 275.804C426.661 276.251 426.674 276.718 426.72 277.171C426.759 277.579 426.799 277.993 426.832 278.407C426.871 278.821 426.904 279.229 426.95 279.643C426.97 279.84 426.99 280.038 427.009 280.235C427.022 280.334 427.029 280.432 427.049 280.531C427.068 280.662 427.088 280.675 427.128 280.767C426.891 281.076 426.654 281.385 426.418 281.694C425.477 282.944 424.55 284.206 423.623 285.462C423.597 285.501 423.65 285.554 423.676 285.514C424.55 284.37 425.458 283.246 426.372 282.135C427.055 282.161 427.752 282.115 428.436 282.102C429.159 282.089 429.876 282.089 430.599 282.082C430.652 282.082 430.645 282.003 430.599 282.003C429.876 282.017 429.159 282.03 428.436 282.03C427.778 282.03 427.108 281.997 426.45 282.036C427.253 281.057 428.068 280.09 428.883 279.117C429.179 278.762 429.481 278.414 429.777 278.059C430.047 278.118 430.336 278.085 430.612 278.085C430.941 278.085 431.27 278.085 431.598 278.085C432.21 278.085 432.828 278.072 433.439 278.059C434.708 278.039 435.977 278 437.246 277.993C437.298 277.993 437.292 277.914 437.246 277.914C435.977 277.901 434.702 277.842 433.433 277.809C432.821 277.796 432.203 277.776 431.585 277.763C431.256 277.756 430.928 277.756 430.599 277.75C430.415 277.75 430.218 277.737 430.034 277.743C430.731 276.915 431.427 276.086 432.131 275.258C432.151 275.245 432.164 275.232 432.17 275.212C432.854 274.41 433.531 273.608 434.222 272.806C434.314 272.694 434.412 272.589 434.504 272.477C436.444 272.536 438.377 272.411 440.31 272.451C440.349 272.47 440.349 272.391 440.297 272.391Z" fill="#1A2E35"/>
<path d="M439.343 275.692C439.192 275.692 439.041 275.692 438.889 275.698C438.843 275.698 438.843 275.764 438.889 275.771C439.041 275.771 439.192 275.771 439.343 275.777C439.396 275.771 439.389 275.692 439.343 275.692Z" fill="#1A2E35"/>
<path d="M438.337 275.698C437.739 275.692 437.141 275.679 436.542 275.659C436.24 275.652 435.944 275.639 435.642 275.633C435.372 275.626 435.07 275.58 434.807 275.639C434.78 275.646 434.78 275.685 434.807 275.692C435.063 275.771 435.372 275.744 435.642 275.751C435.937 275.758 436.24 275.758 436.536 275.764C437.134 275.771 437.732 275.771 438.331 275.771C438.39 275.777 438.383 275.698 438.337 275.698Z" fill="#1A2E35"/>
<path d="M433.11 281.313C431.894 281.142 430.665 280.971 429.435 280.984C429.416 280.984 429.422 281.011 429.435 281.011C430.658 281.129 431.881 281.195 433.091 281.392C433.137 281.392 433.157 281.32 433.11 281.313Z" fill="#1A2E35"/>
<path d="M428.114 275.961C428.101 275.856 428.087 275.745 428.074 275.639C428.041 275.396 428.002 275.159 427.969 274.916C427.897 274.462 427.818 274.002 427.732 273.549C427.726 273.509 427.654 273.516 427.66 273.562C427.719 274.029 427.765 274.502 427.811 274.975C427.831 275.205 427.851 275.436 427.87 275.672C427.89 275.883 427.87 276.139 427.963 276.33C427.995 276.402 428.107 276.369 428.127 276.303C428.153 276.192 428.127 276.08 428.114 275.961Z" fill="#1A2E35"/>
<path d="M452.578 262.286C451.979 261.182 451.223 259.716 449.738 259.808C448.508 259.886 447.956 261.136 447.699 262.168C446.891 265.37 446.832 268.742 446.674 272.023C446.338 278.953 446.043 285.889 445.997 292.832C445.983 294.758 445.99 296.678 446.01 298.604C446.029 300.563 446.023 302.536 446.148 304.495C446.161 304.679 446.437 304.673 446.437 304.488C446.45 302.812 446.391 301.129 446.384 299.452C446.378 297.815 446.391 296.178 446.417 294.541C446.47 291.228 446.562 287.907 446.68 284.594C446.805 281.3 446.95 278.006 447.088 274.712C447.16 273.069 447.226 271.418 447.298 269.775C447.371 268.177 447.436 266.586 447.621 264.995C447.726 264.107 447.857 263.22 448.041 262.345C448.173 261.721 448.363 261.05 448.811 260.57C449.396 259.939 450.283 259.985 450.98 260.412C451.703 260.86 452.137 261.596 452.519 262.332C452.538 262.372 452.604 262.332 452.578 262.286Z" fill="#1A2E35"/>
<path d="M452.177 261.76C452.177 261.76 450.954 257.447 453.656 259.604C458.153 263.194 458.311 271.004 458.311 271.004C458.311 271.004 450.323 266.362 449.33 263.305C447.844 258.736 452.177 261.76 452.177 261.76Z" fill="#3CAA18"/>
<path d="M456.628 267.796C456.555 267.677 456.476 267.559 456.404 267.441C456.424 267.322 456.404 267.191 456.404 267.073C456.404 266.888 456.404 266.704 456.404 266.514C456.411 266.152 456.424 265.784 456.444 265.422C456.444 265.37 456.371 265.376 456.365 265.422C456.345 265.777 456.332 266.139 456.319 266.494C456.312 266.672 456.305 266.849 456.299 267.033C456.299 267.105 456.286 267.184 456.286 267.263C455.97 266.777 455.648 266.297 455.319 265.823C455.221 265.685 455.122 265.554 455.023 265.416C454.951 264.956 454.991 264.469 454.997 264.009C455.004 263.509 455.01 263.009 455.03 262.503C455.03 262.451 454.958 262.457 454.951 262.503C454.938 263.023 454.912 263.542 454.885 264.068C454.866 264.436 454.833 264.811 454.852 265.186C454.083 264.134 453.261 263.128 452.433 262.122C452.407 262.089 452.348 262.135 452.374 262.168C452.887 262.819 453.38 263.483 453.86 264.16C452.92 263.943 451.966 263.812 451.006 263.674C450.96 263.667 450.941 263.739 450.987 263.746C451.999 263.897 452.992 264.153 453.991 264.37C453.998 264.37 454.004 264.364 454.011 264.364C454.392 264.903 454.774 265.442 455.148 265.988C455.3 266.211 455.451 266.435 455.602 266.658C455.589 266.658 455.576 266.652 455.556 266.652C455.451 266.639 455.352 266.619 455.247 266.612C455.023 266.586 454.806 266.566 454.583 266.553C454.123 266.514 453.662 266.494 453.202 266.468C453.156 266.468 453.156 266.547 453.202 266.547C453.656 266.56 454.11 266.593 454.557 266.639C454.793 266.665 455.03 266.698 455.273 266.724C455.378 266.737 455.484 266.75 455.582 266.764C455.615 266.77 455.641 266.77 455.674 266.777C455.931 267.151 456.187 267.533 456.444 267.908C456.897 268.572 457.298 269.288 457.778 269.933C457.804 269.972 457.857 269.939 457.837 269.893C457.509 269.17 457.048 268.48 456.628 267.796Z" fill="#1A2E35"/>
<path d="M454.636 262.924C454.636 262.753 454.642 262.589 454.636 262.418C454.636 262.069 454.629 261.708 454.675 261.359C454.682 261.307 454.596 261.294 454.596 261.353C454.596 261.701 454.557 262.05 454.544 262.398C454.537 262.576 454.537 262.746 454.537 262.924C454.537 263.003 454.537 263.088 454.537 263.167C454.537 263.246 454.524 263.338 454.557 263.417C454.57 263.45 454.616 263.45 454.622 263.417C454.649 263.345 454.636 263.259 454.636 263.187C454.642 263.102 454.636 263.016 454.636 262.924Z" fill="#1A2E35"/>
<path d="M453.649 264.712C453.354 264.66 453.051 264.647 452.749 264.62C452.42 264.594 452.091 264.561 451.763 264.522C451.71 264.515 451.697 264.594 451.756 264.601C452.387 264.64 453.012 264.752 453.643 264.778C453.676 264.771 453.682 264.719 453.649 264.712Z" fill="#1A2E35"/>
<path d="M456.161 264.739C456.187 264.771 456.167 264.863 456.167 264.903V265.041C456.167 265.14 456.167 265.245 456.167 265.343C456.167 265.442 456.167 265.547 456.167 265.646C456.167 265.725 456.148 265.837 456.181 265.909C456.187 265.922 456.207 265.922 456.213 265.909C456.233 265.869 456.227 265.83 456.227 265.784C456.227 265.738 456.227 265.692 456.227 265.646C456.227 265.547 456.227 265.442 456.227 265.343C456.227 265.245 456.227 265.14 456.227 265.041V264.903C456.227 264.863 456.213 264.771 456.233 264.739C456.279 264.666 456.108 264.666 456.161 264.739Z" fill="#1A2E35"/>
<path d="M452.762 285.297C451.079 284.035 449.573 282.22 447.312 282.135C445.444 282.063 444.136 283.463 443.393 285.028C442.999 285.85 442.729 286.731 442.479 287.605C442.144 288.788 441.822 289.972 441.526 291.162C440.941 293.502 440.435 295.869 440.027 298.249C439.797 299.577 439.586 300.905 439.422 302.247C439.251 303.594 439.034 304.975 439.028 306.336C439.028 306.573 439.396 306.619 439.442 306.382C439.672 305.264 439.764 304.114 439.928 302.983C440.093 301.846 440.264 300.715 440.461 299.584C440.842 297.322 441.289 295.067 441.802 292.825C442.282 290.715 442.755 288.565 443.439 286.507C443.926 285.034 444.715 283.312 446.306 282.779C448.732 281.971 450.934 284.022 452.709 285.357C452.749 285.383 452.801 285.324 452.762 285.297Z" fill="#1A2E35"/>
<path d="M451.026 284.088C451.026 284.088 449.475 279.663 451.717 278.795C455.076 277.493 463.86 287.395 462.137 302.556C462.137 302.556 455.346 298.815 450.336 294.607C445.326 290.399 444.037 284.903 446.246 283.483C448.462 282.069 451.026 284.088 451.026 284.088Z" fill="#3CAA18"/>
<path d="M461.125 299.308C460.927 298.775 460.585 298.276 460.309 297.776C460.02 297.257 459.731 296.737 459.435 296.231C458.85 295.232 458.271 294.232 457.673 293.246C457.574 293.088 457.476 292.93 457.377 292.766C457.39 292.707 457.403 292.648 457.417 292.589C457.449 292.444 457.482 292.299 457.515 292.148C457.587 291.819 457.647 291.484 457.706 291.155C457.824 290.504 457.942 289.847 458.113 289.209C458.127 289.163 458.048 289.15 458.035 289.196C457.896 289.847 457.693 290.485 457.502 291.116C457.41 291.431 457.305 291.74 457.226 292.056C457.2 292.161 457.167 292.273 457.14 292.378C456.417 291.195 455.687 290.018 454.892 288.881C454.958 288.729 454.951 288.565 454.971 288.394C454.997 288.17 455.023 287.954 455.05 287.73C455.109 287.23 455.168 286.731 455.24 286.238C455.385 285.258 455.53 284.291 455.773 283.332C455.786 283.286 455.707 283.272 455.694 283.318C455.451 284.272 455.188 285.225 455.01 286.198C454.918 286.671 454.839 287.151 454.774 287.625C454.741 287.861 454.714 288.105 454.695 288.348C454.688 288.42 454.675 288.493 454.668 288.565C454.425 288.223 454.182 287.875 453.925 287.539C453.15 286.52 452.348 285.521 451.539 284.528C451.506 284.489 451.447 284.535 451.473 284.574C452.9 286.316 454.103 288.243 455.293 290.149C455.516 290.504 455.733 290.866 455.95 291.221C455.878 291.215 455.806 291.201 455.733 291.195C455.451 291.162 455.161 291.142 454.879 291.116C454.307 291.063 453.735 291.011 453.163 290.965C452.019 290.873 450.875 290.8 449.731 290.682C449.685 290.675 449.665 290.754 449.718 290.761C450.875 290.892 452.025 291.076 453.176 291.241C453.741 291.32 454.307 291.399 454.879 291.471C455.273 291.524 455.76 291.635 456.187 291.602C456.634 292.332 457.088 293.062 457.535 293.792C457.436 293.779 457.331 293.785 457.232 293.779C457.042 293.779 456.851 293.779 456.66 293.779C456.305 293.779 455.95 293.779 455.595 293.779C454.859 293.779 454.123 293.792 453.386 293.792C453.334 293.792 453.347 293.871 453.393 293.871C454.142 293.877 454.885 293.917 455.628 293.956C455.983 293.976 456.338 293.996 456.687 294.022C456.864 294.035 457.042 294.048 457.219 294.061C457.377 294.068 457.541 294.101 457.686 294.042C458.067 294.666 458.455 295.284 458.83 295.902C459.179 296.474 459.534 297.046 459.902 297.612C460.27 298.184 460.605 298.834 461.052 299.341C461.079 299.387 461.144 299.36 461.125 299.308Z" fill="#1A2E35"/>
<path d="M457.89 287.053C457.837 287.539 457.706 288.019 457.587 288.493C457.462 288.986 457.318 289.472 457.16 289.952C457.14 290.018 457.232 290.051 457.252 289.979C457.403 289.499 457.535 289.019 457.653 288.532C457.771 288.046 457.844 287.546 457.969 287.059C457.975 287.02 457.896 287.007 457.89 287.053Z" fill="#1A2E35"/>
<path d="M452.906 290.018C452.801 289.913 452.683 289.9 452.538 289.88C452.328 289.847 452.111 289.821 451.9 289.794C451.506 289.742 451.105 289.696 450.704 289.65C449.875 289.551 449.047 289.472 448.219 289.367C448.173 289.361 448.153 289.439 448.205 289.446C448.988 289.538 449.764 289.656 450.539 289.762C450.921 289.814 451.302 289.867 451.683 289.913C451.868 289.932 452.052 289.952 452.236 289.972C452.44 289.992 452.676 289.992 452.867 290.077C452.906 290.09 452.933 290.044 452.906 290.018Z" fill="#1A2E35"/>
<path d="M457.877 296.685C457.489 296.652 457.094 296.639 456.7 296.625C456.503 296.619 456.305 296.612 456.108 296.606C456.016 296.606 455.917 296.599 455.825 296.599C455.707 296.592 455.569 296.606 455.457 296.579C455.405 296.566 455.398 296.665 455.457 296.658C455.569 296.639 455.694 296.665 455.806 296.671C455.911 296.678 456.009 296.685 456.115 296.691C456.312 296.704 456.509 296.717 456.706 296.724C457.094 296.75 457.489 296.77 457.883 296.77C457.923 296.77 457.929 296.691 457.877 296.685Z" fill="#1A2E35"/>
<path d="M460.27 294.988C460.316 294.765 460.355 294.541 460.395 294.324C460.474 293.89 460.553 293.45 460.638 293.016C460.645 292.97 460.572 292.957 460.559 293.003C460.461 293.43 460.369 293.857 460.27 294.278C460.224 294.489 460.171 294.706 460.132 294.916C460.112 295.015 460.092 295.113 460.073 295.212C460.053 295.317 460.02 295.422 460.04 295.527C460.046 295.56 460.099 295.593 460.125 295.554C460.23 295.396 460.237 295.172 460.27 294.988Z" fill="#1A2E35"/>
<path d="M456.22 308.058L455.839 314.324L454.728 332.825H437.778L436.661 314.324L436.286 308.058H456.22Z" fill="#E31E23"/>
<path d="M456.22 308.058L455.839 314.324H436.661L436.286 308.058H456.22Z" fill="#1A2E35"/>
<path d="M457.969 303.621H434.537V309.893H457.969V303.621Z" fill="#E31E23"/>
<path d="M96.9689 190.879C96.3336 213.467 94.2777 291.384 95.2628 318.992C95.3699 321.919 98.0254 324.262 101.331 324.361C117.714 324.831 177.763 326.035 204.554 325.045C210.137 324.838 214.57 320.844 214.691 315.916C215.248 292.21 216.476 225.523 213.556 194.974C213.206 191.314 209.951 188.401 205.818 188.031C187.979 186.457 127.665 182.605 104.522 183.929C100.345 184.164 97.0689 187.184 96.9689 190.879Z" fill="#E527BB"/>
<path d="M101.673 200.842V219.983C101.673 223.657 104.657 226.626 108.334 226.626H200.022C203.698 226.626 206.682 223.65 206.682 219.983V200.842C206.682 197.167 203.698 194.198 200.022 194.198H108.334C104.657 194.191 101.673 197.167 101.673 200.842Z" fill="#7D97F4"/>
<path d="M202.006 200.728C201.192 199.895 200.086 199.41 198.922 199.396L113.131 198.036C110.839 198 108.905 199.731 108.69 202.009L106.906 220.994C106.763 222.546 109.326 223.856 112.595 223.899L196.938 224.917C200.2 224.96 202.898 223.714 202.927 222.162L203.248 203.854C203.262 202.686 202.82 201.568 202.006 200.728Z" fill="white"/>
<path d="M124.595 246.038C124.595 249.414 121.854 252.155 118.463 252.155H111.003C107.62 252.155 104.871 249.421 104.871 246.038C104.871 242.663 107.613 239.921 111.003 239.921H118.463C121.847 239.921 124.595 242.656 124.595 246.038Z" fill="white"/>
<path d="M152.314 246.038C152.314 249.414 149.573 252.155 146.182 252.155H138.722C135.339 252.155 132.59 249.421 132.59 246.038C132.59 242.663 135.332 239.921 138.722 239.921H146.182C149.566 239.921 152.314 242.656 152.314 246.038Z" fill="white"/>
<path d="M178.963 246.038C178.963 249.414 176.221 252.155 172.831 252.155H165.371C161.987 252.155 159.239 249.421 159.239 246.038C159.239 242.663 161.98 239.921 165.371 239.921H172.831C176.221 239.921 178.963 242.656 178.963 246.038Z" fill="white"/>
<path d="M205.982 246.935C205.982 250.368 203.191 253.152 199.75 253.152H192.54C189.1 253.152 186.308 250.368 186.308 246.935C186.308 243.503 189.1 240.719 192.54 240.719H199.75C203.198 240.719 205.982 243.503 205.982 246.935Z" fill="#DAA7EE"/>
<path d="M124.595 265.179C124.595 268.554 121.854 271.296 118.463 271.296H111.003C107.62 271.296 104.871 268.562 104.871 265.179C104.871 261.804 107.613 259.062 111.003 259.062H118.463C121.847 259.062 124.595 261.804 124.595 265.179Z" fill="white"/>
<path d="M152.314 265.179C152.314 268.554 149.573 271.296 146.182 271.296H138.722C135.339 271.296 132.59 268.562 132.59 265.179C132.59 261.804 135.332 259.062 138.722 259.062H146.182C149.566 259.062 152.314 261.804 152.314 265.179Z" fill="white"/>
<path d="M178.963 265.179C178.963 268.554 176.221 271.296 172.831 271.296H165.371C161.987 271.296 159.239 268.562 159.239 265.179C159.239 261.804 161.98 259.062 165.371 259.062H172.831C176.221 259.062 178.963 261.804 178.963 265.179Z" fill="white"/>
<path d="M206.682 265.179C206.682 268.554 203.94 271.296 200.55 271.296H193.09C189.706 271.296 186.958 268.562 186.958 265.179C186.958 261.804 189.699 259.062 193.09 259.062H200.55C203.94 259.062 206.682 261.804 206.682 265.179Z" fill="#DAA7EE"/>
<path d="M124.595 282.134C124.595 285.51 121.854 288.251 118.463 288.251H111.003C107.62 288.251 104.871 285.517 104.871 282.134C104.871 278.759 107.613 276.017 111.003 276.017H118.463C121.847 276.017 124.595 278.752 124.595 282.134Z" fill="white"/>
<path d="M152.314 282.134C152.314 285.51 149.573 288.251 146.182 288.251H138.722C135.339 288.251 132.59 285.517 132.59 282.134C132.59 278.759 135.332 276.017 138.722 276.017H146.182C149.566 276.017 152.314 278.752 152.314 282.134Z" fill="white"/>
<path d="M178.963 282.134C178.963 285.51 176.221 288.251 172.831 288.251H165.371C161.987 288.251 159.239 285.517 159.239 282.134C159.239 278.759 161.98 276.017 165.371 276.017H172.831C176.221 276.017 178.963 278.752 178.963 282.134Z" fill="white"/>
<path d="M124.595 300.741C124.595 304.116 121.854 306.858 118.463 306.858H111.003C107.62 306.858 104.871 304.124 104.871 300.741C104.871 297.366 107.613 294.624 111.003 294.624H118.463C121.847 294.624 124.595 297.366 124.595 300.741Z" fill="white"/>
<path d="M152.314 300.741C152.314 304.116 149.573 306.858 146.182 306.858H138.722C135.339 306.858 132.59 304.124 132.59 300.741C132.59 297.366 135.332 294.624 138.722 294.624H146.182C149.566 294.624 152.314 297.366 152.314 300.741Z" fill="white"/>
<path d="M178.963 300.741C178.963 304.116 176.221 306.858 172.831 306.858H165.371C161.987 306.858 159.239 304.124 159.239 300.741C159.239 297.366 161.98 294.624 165.371 294.624H172.831C176.221 294.624 178.963 297.366 178.963 300.741Z" fill="white"/>
<path d="M204.019 300.243C204.019 304.515 200.542 307.983 196.259 307.983H195.788C191.505 307.983 188.029 304.515 188.029 300.243V285.417C188.029 281.144 191.505 277.677 195.788 277.677H196.259C200.542 277.677 204.019 281.144 204.019 285.417V300.243Z" fill="#DAA7EE"/>
<path d="M123.047 184.094C142.955 184.094 159.094 167.955 159.094 148.047C159.094 128.139 142.955 112 123.047 112C103.139 112 87 128.139 87 148.047C87 167.955 103.139 184.094 123.047 184.094Z" fill="#A78BEF"/>
<path d="M123.047 118.513C139.358 118.513 152.581 131.736 152.581 148.047C152.581 164.358 139.358 177.581 123.047 177.581C106.736 177.581 93.513 164.358 93.5129 148.047C93.5129 131.736 106.736 118.513 123.047 118.513Z" fill="white" stroke="#E527BB"/>
<path d="M123.047 120.612V129.254" stroke="#E527BB" stroke-width="1.0153" stroke-miterlimit="10" stroke-linecap="round"/>
<path d="M150.488 148.047H141.84" stroke="#E527BB" stroke-width="1.0153" stroke-miterlimit="10" stroke-linecap="round"/>
<path d="M123.047 175.488V166.84" stroke="#E527BB" stroke-width="1.0153" stroke-miterlimit="10" stroke-linecap="round"/>
<path d="M95.6116 148.047H104.254" stroke="#E527BB" stroke-width="1.0153" stroke-miterlimit="10" stroke-linecap="round"/>
<path d="M142.449 128.645L136.338 134.761" stroke="#E527BB" stroke-width="1.0153" stroke-miterlimit="10" stroke-linecap="round"/>
<path d="M142.449 167.449L136.338 161.339" stroke="#E527BB" stroke-width="1.0153" stroke-miterlimit="10" stroke-linecap="round"/>
<path d="M103.645 167.449L109.762 161.333" stroke="#E527BB" stroke-width="1.0153" stroke-miterlimit="10" stroke-linecap="round"/>
<path d="M103.645 128.645L109.762 134.761" stroke="#E527BB" stroke-width="1.0153" stroke-miterlimit="10" stroke-linecap="round"/>
<path d="M123.047 133.398V148.047H133.533" stroke="#E527BB" stroke-width="1.0153" stroke-miterlimit="10" stroke-linecap="round"/>
</g>
<defs>
<linearGradient id="paint0_linear_958_10083" x1="241.402" y1="162.586" x2="247.181" y2="162.586" gradientUnits="userSpaceOnUse">
<stop stop-color="#DAE3FE"/>
<stop offset="1" stop-color="#E9EFFD"/>
</linearGradient>
<linearGradient id="paint1_linear_958_10083" x1="251.057" y1="166.805" x2="256.836" y2="166.805" gradientUnits="userSpaceOnUse">
<stop stop-color="#DAE3FE"/>
<stop offset="1" stop-color="#E9EFFD"/>
</linearGradient>
<linearGradient id="paint2_linear_958_10083" x1="260.713" y1="156.378" x2="266.491" y2="156.378" gradientUnits="userSpaceOnUse">
<stop stop-color="#DAE3FE"/>
<stop offset="1" stop-color="#E9EFFD"/>
</linearGradient>
<linearGradient id="paint3_linear_958_10083" x1="270.368" y1="170.422" x2="276.147" y2="170.422" gradientUnits="userSpaceOnUse">
<stop stop-color="#DAE3FE"/>
<stop offset="1" stop-color="#E9EFFD"/>
</linearGradient>
<linearGradient id="paint4_linear_958_10083" x1="280.023" y1="158.85" x2="285.802" y2="158.85" gradientUnits="userSpaceOnUse">
<stop stop-color="#DAE3FE"/>
<stop offset="1" stop-color="#E9EFFD"/>
</linearGradient>
<linearGradient id="paint5_linear_958_10083" x1="289.679" y1="161.622" x2="295.457" y2="161.622" gradientUnits="userSpaceOnUse">
<stop stop-color="#DAE3FE"/>
<stop offset="1" stop-color="#E9EFFD"/>
</linearGradient>
<linearGradient id="paint6_linear_958_10083" x1="299.334" y1="164.636" x2="305.113" y2="164.636" gradientUnits="userSpaceOnUse">
<stop stop-color="#DAE3FE"/>
<stop offset="1" stop-color="#E9EFFD"/>
</linearGradient>
<linearGradient id="paint7_linear_958_10083" x1="308.99" y1="152.642" x2="314.768" y2="152.642" gradientUnits="userSpaceOnUse">
<stop stop-color="#DAE3FE"/>
<stop offset="1" stop-color="#E9EFFD"/>
</linearGradient>
<linearGradient id="paint8_linear_958_10083" x1="318.645" y1="154.992" x2="324.423" y2="154.992" gradientUnits="userSpaceOnUse">
<stop stop-color="#DAE3FE"/>
<stop offset="1" stop-color="#E9EFFD"/>
</linearGradient>
<linearGradient id="paint9_linear_958_10083" x1="328.3" y1="158.548" x2="334.079" y2="158.548" gradientUnits="userSpaceOnUse">
<stop stop-color="#DAE3FE"/>
<stop offset="1" stop-color="#E9EFFD"/>
</linearGradient>
<linearGradient id="paint10_linear_958_10083" x1="337.956" y1="170.834" x2="343.734" y2="170.834" gradientUnits="userSpaceOnUse">
<stop stop-color="#DAE3FE"/>
<stop offset="1" stop-color="#E9EFFD"/>
</linearGradient>
<linearGradient id="paint11_linear_958_10083" x1="347.611" y1="163.008" x2="353.389" y2="163.008" gradientUnits="userSpaceOnUse">
<stop stop-color="#DAE3FE"/>
<stop offset="1" stop-color="#E9EFFD"/>
</linearGradient>
<linearGradient id="paint12_linear_958_10083" x1="409.553" y1="317.337" x2="404.089" y2="317.337" gradientUnits="userSpaceOnUse">
<stop stop-color="#FEBBBA"/>
<stop offset="1" stop-color="#FF928E"/>
</linearGradient>
<linearGradient id="paint13_linear_958_10083" x1="429.246" y1="317.058" x2="424.528" y2="317.058" gradientUnits="userSpaceOnUse">
<stop stop-color="#FEBBBA"/>
<stop offset="1" stop-color="#FF928E"/>
</linearGradient>
<linearGradient id="paint14_linear_958_10083" x1="387.068" y1="175.139" x2="359.153" y2="175.139" gradientUnits="userSpaceOnUse">
<stop stop-color="#FEBBBA"/>
<stop offset="1" stop-color="#FF928E"/>
</linearGradient>
<linearGradient id="paint15_linear_958_10083" x1="365.372" y1="170.471" x2="384.026" y2="213.019" gradientUnits="userSpaceOnUse">
<stop stop-color="#FEBBBA"/>
<stop offset="1" stop-color="#FF928E"/>
</linearGradient>
<linearGradient id="paint16_linear_958_10083" x1="359.288" y1="156.313" x2="351.499" y2="144.308" gradientUnits="userSpaceOnUse">
<stop stop-color="#FEBBBA"/>
<stop offset="1" stop-color="#FF928E"/>
</linearGradient>
<linearGradient id="paint17_linear_958_10083" x1="448.152" y1="214.582" x2="412.825" y2="214.582" gradientUnits="userSpaceOnUse">
<stop stop-color="#FEBBBA"/>
<stop offset="1" stop-color="#FF928E"/>
</linearGradient>
<linearGradient id="paint18_linear_958_10083" x1="415.448" y1="210.887" x2="404.443" y2="210.887" gradientUnits="userSpaceOnUse">
<stop stop-color="#FEBBBA"/>
<stop offset="1" stop-color="#FF928E"/>
</linearGradient>
<linearGradient id="paint19_linear_958_10083" x1="421.026" y1="176.909" x2="407.059" y2="176.909" gradientUnits="userSpaceOnUse">
<stop stop-color="#FEBBBA"/>
<stop offset="1" stop-color="#FF928E"/>
</linearGradient>
<linearGradient id="paint20_linear_958_10083" x1="403.737" y1="168.045" x2="419.073" y2="158.668" gradientUnits="userSpaceOnUse">
<stop stop-color="#FEBBBA"/>
<stop offset="1" stop-color="#FF928E"/>
</linearGradient>
<linearGradient id="paint21_linear_958_10083" x1="407.771" y1="171.53" x2="421.569" y2="163.093" gradientUnits="userSpaceOnUse">
<stop stop-color="#FEBBBA"/>
<stop offset="1" stop-color="#FF928E"/>
</linearGradient>
<clipPath id="clip0_958_10083">
<rect width="542.64" height="328.79" fill="white"/>
</clipPath>
<clipPath id="clip1_958_10083">
<rect width="298" height="283" fill="white" transform="translate(142 45)"/>
</clipPath>
</defs>
</svg>
