<svg width="60" height="60" viewBox="0 0 60 60" fill="none" xmlns="http://www.w3.org/2000/svg">
<path d="M56.0097 17.6332C55.7999 17.5055 55.5386 17.4949 55.3206 17.6074L51.5589 19.5434C51.4101 18.8566 50.8804 18.3117 50.162 18.157L47.9026 17.6695C47.7479 17.6355 47.6437 17.543 47.5933 17.393C47.3671 16.718 47.0987 16.05 46.7952 15.4078C46.7272 15.2648 46.739 15.1254 46.8269 14.9941L48.1206 13.0793C48.614 12.3492 48.5261 11.4023 47.9073 10.7754L42.7862 5.58164C42.1687 4.95469 41.2218 4.85391 40.4858 5.33672L38.5522 6.60352C38.4198 6.69023 38.2804 6.69844 38.1374 6.6293C37.4976 6.31641 36.8343 6.03867 36.164 5.80195C36.0151 5.74922 35.9226 5.64375 35.8921 5.48906L35.4362 3.225C35.264 2.36016 34.5269 1.75781 33.6468 1.75781H26.353C25.4729 1.75781 24.7358 2.36016 24.5624 3.22383L24.1065 5.48789C24.0749 5.64258 23.9835 5.74805 23.8347 5.80078C23.3296 5.97891 22.8257 6.18164 22.3358 6.4043C22.1917 6.46992 22.0522 6.45703 21.9222 6.3668L20.0249 5.04609C19.3019 4.54336 18.3538 4.61719 17.7175 5.22656L12.4522 10.2738C11.8171 10.8832 11.7022 11.8277 12.1745 12.5707L13.4144 14.5219C13.4987 14.6555 13.5058 14.7949 13.4343 14.9367C13.1132 15.5707 12.8261 16.2305 12.58 16.8973C12.5249 17.0461 12.4183 17.1363 12.2624 17.1645L9.99131 17.5875C9.12529 17.7492 8.5124 18.477 8.50068 19.357L8.49717 19.5691L4.6792 17.6039C4.46123 17.4914 4.1999 17.5008 3.99014 17.6297C3.78037 17.7574 3.65381 17.9859 3.65381 18.232L3.72178 40.0816C3.72295 40.3441 3.86943 40.5844 4.10264 40.7051L8.60498 43.0219C8.70811 43.0746 8.81826 43.1004 8.92607 43.1004C9.18154 43.1004 9.42764 42.9609 9.55186 42.7184L10.2503 41.3602L12.103 43.091L11.1292 44.475C10.139 45.8812 10.4788 47.8312 11.8862 48.8215C12.4312 49.2047 13.0569 49.3887 13.6769 49.3887C14.0554 49.3887 14.4315 49.3195 14.7866 49.1859C14.8581 50.0227 15.2847 50.823 16.0229 51.3422C16.521 51.6926 17.1046 51.8754 17.7046 51.8754C17.8745 51.8754 18.0468 51.8602 18.2179 51.8309C18.4991 51.7816 18.7675 51.6937 19.0171 51.5719C19.0159 51.7348 19.0288 51.8988 19.0581 52.0617C19.1835 52.7848 19.5819 53.4141 20.1784 53.8336C20.6437 54.1605 21.1874 54.3316 21.7464 54.3316C21.9046 54.3316 22.0651 54.3176 22.2245 54.2906C22.5538 54.2332 22.8632 54.116 23.1433 53.9531C23.1081 54.218 23.1116 54.4887 23.1585 54.7594C23.2792 55.4543 23.6624 56.0602 24.2366 56.4644C24.6843 56.7797 25.2069 56.9437 25.7448 56.9437C25.8972 56.9437 26.0519 56.9309 26.2054 56.9039C26.9003 56.7832 27.5062 56.4 27.9104 55.8258L28.5784 54.8766L32.7151 57.7008C33.2483 58.0652 33.8343 58.2445 34.4062 58.2445C35.1058 58.2445 35.7831 57.975 36.314 57.4441C36.7651 56.993 37.1015 56.2488 37.2245 55.4836C37.6581 55.7824 38.169 55.943 38.7011 55.943C38.7585 55.943 38.8159 55.9406 38.8733 55.9371C39.5659 55.8926 40.1999 55.5855 40.6593 55.0711C41.0483 54.6691 41.2312 54.0176 41.203 53.1352C41.1972 52.9395 41.1784 52.7332 41.1515 52.5234C41.4081 52.6043 41.673 52.6465 41.939 52.6465C42.6597 52.6465 43.3769 52.3512 43.8937 51.7746C44.6097 51.041 45.0222 49.4473 44.6542 47.8605C44.7327 47.8676 44.8124 47.8711 44.8921 47.8711C44.9495 47.8711 45.0069 47.8687 45.0644 47.8652C45.7569 47.8207 46.3897 47.5137 46.8491 47.0004C47.8815 45.9504 47.6554 44.5019 46.9886 43.1648L49.8397 41.5359L50.4491 42.7195C50.5733 42.9621 50.8194 43.1016 51.0749 43.1016C51.1827 43.1016 51.2929 43.077 51.396 43.023L55.8983 40.7062C56.1315 40.5855 56.2792 40.3453 56.2792 40.0828L56.3472 18.2332C56.346 17.9895 56.2183 17.7609 56.0097 17.6332ZM9.90693 19.3793C9.90928 19.1742 10.0476 19.0102 10.2503 18.9727L12.5214 18.5496C13.1694 18.4289 13.6722 18.0047 13.9007 17.3848C14.128 16.7684 14.3929 16.159 14.6894 15.573C14.9835 14.993 14.9507 14.318 14.6015 13.7695L13.3616 11.8184C13.2515 11.6449 13.2772 11.4328 13.4249 11.2898L18.6901 6.24258C18.839 6.10078 19.0511 6.0832 19.221 6.20156L21.1183 7.52227C21.6526 7.89375 22.3241 7.95469 22.9171 7.68633C23.3694 7.48125 23.8358 7.29258 24.3022 7.12852C24.9245 6.90937 25.3558 6.4125 25.4858 5.7668L25.9417 3.50273C25.9827 3.30117 26.148 3.16523 26.353 3.16523H33.6468C33.8519 3.16523 34.0183 3.30117 34.0581 3.50273L34.514 5.7668C34.644 6.41367 35.0753 6.90937 35.6976 7.12852C36.3151 7.34648 36.9292 7.60312 37.5198 7.89258C38.1046 8.17851 38.7784 8.13633 39.3222 7.78008L41.2558 6.51328C41.428 6.40078 41.6401 6.42305 41.7843 6.56953L46.9054 11.7633C47.0495 11.9098 47.0694 12.123 46.9546 12.293L45.6608 14.2078C45.2917 14.7551 45.2413 15.4113 45.5226 16.0078C45.8015 16.6008 46.0499 17.2184 46.2597 17.8418C46.4694 18.4676 46.9605 18.9059 47.605 19.0453L49.8644 19.5328C50.0647 19.5762 50.1983 19.7437 50.196 19.9488L50.1913 20.2477L41.8733 24.5285C41.7069 24.6141 41.5827 24.7617 41.5253 24.9387C41.4679 25.1168 41.4843 25.309 41.5698 25.4754L42.1358 26.5758C41.5792 26.3156 41.005 26.0801 40.4226 25.8773C40.6276 25.0406 40.7331 24.1805 40.7331 23.3109C40.7331 17.3918 35.9179 12.5766 29.9987 12.5766C24.0796 12.5766 19.2644 17.3918 19.2644 23.3109C19.2644 24.2437 19.3851 25.1625 19.6194 26.0543C18.9831 26.216 18.3866 26.4035 17.8417 26.6145L18.4288 25.4742C18.5144 25.3078 18.5296 25.1156 18.4733 24.9375C18.4159 24.7594 18.2917 24.6117 18.1253 24.5273L9.89404 20.291L9.90693 19.3793ZM32.0085 26.7738C30.2835 25.7602 27.3784 25.2551 24.0878 25.4133C23.0097 25.4648 21.9702 25.5832 20.9964 25.7578C20.7808 24.9645 20.6706 24.1441 20.6706 23.3109C20.6706 18.1676 24.8554 13.9828 29.9987 13.9828C35.1421 13.9828 39.3269 18.1676 39.3269 23.3109C39.3269 24.0445 39.2413 24.7699 39.0737 25.4766C37.0722 24.9867 35.0788 24.9855 33.5038 25.875C33.4979 25.8785 33.4933 25.8809 33.4874 25.8844L32.0085 26.7738ZM8.6249 41.4527L5.12803 39.6527L5.06475 19.3875L16.8573 25.4566L8.6249 41.4527ZM12.6972 47.6742C11.9249 47.1305 11.7386 46.0594 12.2812 45.2871L14.4269 42.2367C14.7597 41.7633 15.2917 41.5102 15.8308 41.5102C16.1718 41.5102 16.5151 41.6109 16.814 41.8219C17.5862 42.3656 17.7726 43.4367 17.23 44.209L15.0843 47.2594C14.5405 48.0316 13.4694 48.218 12.6972 47.6742ZM17.9776 50.448C17.5722 50.5184 17.1655 50.4281 16.8327 50.1937C16.4999 49.9594 16.2772 49.6078 16.2069 49.2023C16.1366 48.7969 16.2269 48.3902 16.4612 48.0574L18.4476 45.2344C18.6819 44.9016 19.0335 44.6789 19.439 44.6086C19.5292 44.5934 19.6194 44.5852 19.7085 44.5852C20.0214 44.5852 20.3249 44.6801 20.5839 44.8629C21.2753 45.3492 21.4417 46.3078 20.9554 46.9992L18.969 49.8223C18.7347 50.1562 18.3831 50.3777 17.9776 50.448ZM21.9843 52.9078C21.6315 52.9687 21.2776 52.8902 20.9882 52.6875C20.3858 52.2645 20.2417 51.4301 20.6647 50.8277L22.4741 48.2555C22.678 47.966 22.9839 47.7727 23.3366 47.7105C23.4151 47.6965 23.4937 47.6906 23.571 47.6906C23.8429 47.6906 24.1077 47.7738 24.3327 47.932C24.6222 48.1359 24.8155 48.4418 24.8776 48.7945C24.9386 49.1473 24.8601 49.5012 24.6573 49.7906L22.8479 52.3629C22.644 52.6523 22.337 52.8457 21.9843 52.9078ZM26.7608 55.0184C26.3706 55.5727 25.6019 55.7074 25.0476 55.3172C24.4933 54.927 24.3585 54.1582 24.7487 53.6039L26.4655 51.1629C26.7046 50.823 27.0866 50.6414 27.4733 50.6414C27.7183 50.6414 27.9644 50.7141 28.1788 50.8652C28.7331 51.2555 28.8679 52.0242 28.4776 52.5785L26.7608 55.0184ZM45.8366 46.023C45.8261 46.0336 45.8155 46.0441 45.8062 46.0559C45.594 46.2973 45.2976 46.4426 44.9729 46.4625C44.6472 46.4836 44.3354 46.3781 44.094 46.1648L40.1835 42.7266C39.8917 42.4699 39.4476 42.4992 39.1909 42.7898C38.9343 43.0816 38.9624 43.5258 39.2542 43.7824L42.505 46.6418C43.8737 48.2168 43.3862 50.291 42.88 50.7984C42.8694 50.809 42.8589 50.8195 42.8495 50.8312C42.4077 51.334 41.639 51.3832 41.1374 50.9414L40.405 50.298C40.2913 50.1258 40.1671 49.9758 40.0312 49.8562C39.9397 49.7766 39.8343 49.7238 39.7229 49.698L37.2269 47.5031C36.9351 47.2465 36.4909 47.2758 36.2343 47.5664C35.9776 47.8582 36.0058 48.3023 36.2976 48.559L39.3105 51.2098C39.5354 51.6352 39.7687 52.3957 39.7944 53.182C39.8144 53.7867 39.6901 54.0516 39.6444 54.0961C39.6339 54.1066 39.6233 54.1172 39.614 54.1289C39.1722 54.6316 38.4046 54.6809 37.9019 54.2391L36.587 53.0824L33.9925 50.8008C33.7007 50.5441 33.2565 50.5723 32.9999 50.8641C32.7433 51.1559 32.7714 51.6 33.0632 51.8566L35.6577 54.1395C35.7784 54.2461 35.8558 54.4898 35.8651 54.7934C35.8862 55.466 35.6026 56.1645 35.3155 56.4516C34.8362 56.9309 34.1261 56.9648 33.505 56.5418L29.3847 53.7293L29.6237 53.3883C30.4604 52.1988 30.1733 50.5512 28.9839 49.7156C28.4097 49.3113 27.7101 49.1555 27.0151 49.2773C26.7456 49.3242 26.489 49.4121 26.2534 49.534C26.3132 49.2152 26.3155 48.8859 26.2581 48.5566C26.1327 47.8336 25.7343 47.2043 25.1378 46.7848C24.5413 46.3652 23.8147 46.2023 23.0917 46.3289C22.9276 46.357 22.7694 46.4016 22.6171 46.4578C22.7343 45.423 22.2983 44.3566 21.389 43.7168C20.7491 43.2668 19.9687 43.0922 19.194 43.2281C19.1085 43.2434 19.0241 43.2621 18.9421 43.2844C18.9444 43.0887 18.9304 42.8906 18.8952 42.6937C18.7522 41.8711 18.2987 41.1551 17.6202 40.6769C16.2128 39.6867 14.264 40.0266 13.2737 41.434L12.9187 41.9391L10.9183 40.0699L16.7448 28.7496C19.7308 26.6707 27.0433 26.1809 30.5788 27.6387L23.1397 32.1105C21.437 33.1348 20.8698 35.3391 21.8542 37.0547C22.1261 37.7977 22.7085 38.3707 23.503 38.673C24.5659 39.0785 25.8632 38.9637 26.8897 38.3754L34.923 33.7652C36.5132 35.0566 37.9323 36.2988 39.3081 37.5012C40.7929 38.7996 42.3269 40.1414 44.0788 41.5512C44.9108 42.3926 46.923 44.9367 45.8366 46.023ZM46.2585 41.9625C45.8694 41.4129 45.4429 40.9184 45.0526 40.5258C45.0339 40.507 45.0151 40.4894 44.994 40.473C43.2515 39.0727 41.7187 37.732 40.2362 36.4348C39.0562 35.4023 37.8421 34.3418 36.5132 33.2414C37.7308 33.0797 38.9437 33.3457 40.1905 34.0477C40.2995 34.1086 40.4179 34.1379 40.5351 34.1379C40.7812 34.1379 41.019 34.009 41.1479 33.7793C41.339 33.4406 41.2183 33.0117 40.8808 32.8219C38.8452 31.6758 36.7815 31.4824 34.746 32.2477C34.7448 32.2477 34.7437 32.2488 34.7425 32.2488C34.739 32.25 34.7355 32.2523 34.7319 32.2535C34.705 32.2641 34.6792 32.2769 34.6534 32.291C34.6499 32.2934 34.6464 32.2945 34.6429 32.2957L26.1913 37.1484C25.5421 37.5211 24.6632 37.6031 24.0058 37.3523C23.5745 37.1883 23.2909 36.9105 23.1644 36.5285C23.1479 36.4793 23.1269 36.4324 23.0999 36.3891C22.7929 35.8781 22.7038 35.2758 22.8491 34.691C22.9944 34.1074 23.3565 33.6164 23.8675 33.3094L34.2046 27.0949C36.6093 25.7449 40.5456 27.1312 43.2655 28.7684L49.1929 40.2867L46.2585 41.9625ZM54.873 39.6527L51.3761 41.4527L43.1437 25.4566L54.9362 19.3875L54.873 39.6527Z" fill="#DAA7EE"/>
</svg>
