<svg width="533" height="331" viewBox="0 0 533 331" fill="none" xmlns="http://www.w3.org/2000/svg">
<path opacity="0.2" fill-rule="evenodd" clip-rule="evenodd" d="M0 7.5756C0 7.5756 496.166 -10.2363 522.25 8.76437C545.499 25.7019 520.61 239.759 514.929 286.131C514.801 287.134 513.992 287.91 512.938 288.028C382.355 302.136 78.1811 295.779 13.6451 294.227C12.5792 294.197 11.7008 293.49 11.49 292.498C2.02627 247.216 0 7.5756 0 7.5756Z" fill="#999999"/>
<g clip-path="url(#clip0_1347_6708)">
<path d="M370.271 33.8151C368.527 32.0138 366.122 31 363.615 31L173.584 31.1089C171.078 31.1089 168.672 32.1311 166.928 33.9324C165.185 35.7337 164.238 38.1634 164.322 40.6685L171.857 283.31C172.016 288.32 176.115 292.199 181.128 292.199H356.499C361.52 292.199 365.627 288.312 365.77 283.293L372.903 40.4925C372.97 37.9874 372.023 35.608 370.271 33.8151Z" fill="#E527BB"/>
<path d="M361.863 44.9832C360.262 43.3411 358.066 42.4111 355.778 42.4111L182.091 42.5117C179.795 42.5117 177.598 43.4417 176.006 45.0922C174.413 46.7427 173.55 48.9629 173.617 51.2502L180.499 272.996C180.641 277.571 184.396 281.115 188.973 281.115H349.256C353.841 281.115 357.597 277.571 357.731 272.988L364.252 51.091C364.327 48.7953 363.464 46.6254 361.863 44.9832Z" fill="url(#paint0_linear_1347_6708)"/>
<path d="M287.081 70.0848C288.931 59.8812 282.156 50.11 271.948 48.26C261.739 46.4101 251.964 53.1821 250.113 63.3857C248.262 73.5892 255.037 83.3605 265.246 85.2104C275.454 87.0603 285.23 80.2883 287.081 70.0848Z" fill="#E527BB"/>
<path d="M286.222 69.8482C287.943 60.364 281.645 51.2816 272.156 49.5621C262.668 47.8427 253.581 54.1372 251.861 63.6213C250.141 73.1055 256.438 82.1879 265.927 83.9074C275.415 85.6268 284.502 79.3323 286.222 69.8482Z" fill="#E527BB"/>
<path d="M268.655 109.894L246.91 131.524L268.551 153.259L290.296 131.629L268.655 109.894Z" fill="#E527BB"/>
<path d="M268.642 111.665L248.68 131.523L268.547 151.476L288.509 131.618L268.642 111.665Z" fill="#E527BB"/>
<path d="M345.911 184.405C345.911 191.024 340.547 196.386 333.925 196.386H318.393C311.771 196.386 306.406 191.024 306.406 184.405C306.406 177.786 311.771 172.424 318.393 172.424H333.925C340.547 172.424 345.911 177.795 345.911 184.405Z" fill="#A78BEF"/>
<path d="M344.275 184.405C344.275 190.588 339.338 195.498 333.252 195.498H318.835C312.75 195.498 307.812 190.597 307.812 184.405C307.812 178.222 312.75 173.312 318.835 173.312H333.252C339.338 173.313 344.275 178.222 344.275 184.405Z" fill="#A78BEF"/>
<path d="M288.661 184.405C288.661 191.024 283.297 196.386 276.675 196.386H261.143C254.521 196.386 249.156 191.024 249.156 184.405C249.156 177.786 254.521 172.424 261.143 172.424H276.675C283.297 172.424 288.661 177.795 288.661 184.405Z" fill="#A78BEF"/>
<path d="M287.017 184.405C287.017 190.588 282.08 195.498 275.995 195.498H261.577C255.492 195.498 250.555 190.597 250.555 184.405C250.555 178.222 255.492 173.312 261.577 173.312H275.995C282.088 173.313 287.017 178.222 287.017 184.405Z" fill="#A78BEF"/>
<path d="M230.071 184.405C230.071 191.024 224.707 196.386 218.085 196.386H202.553C195.931 196.386 190.566 191.024 190.566 184.405C190.566 177.786 195.931 172.424 202.553 172.424H218.085C224.707 172.424 230.071 177.795 230.071 184.405Z" fill="#A78BEF"/>
<path d="M228.435 184.405C228.435 190.588 223.498 195.498 217.412 195.498H202.995C196.91 195.498 191.973 190.597 191.973 184.405C191.973 178.222 196.91 173.312 202.995 173.312H217.412C223.498 173.313 228.435 178.222 228.435 184.405Z" fill="#A78BEF"/>
<path d="M268.904 105.667C268.536 105.667 268.242 105.365 268.242 105.005V88.1397C268.242 87.771 268.544 87.4778 268.904 87.4778C269.273 87.4778 269.567 87.7794 269.567 88.1397V104.997C269.575 105.365 269.273 105.667 268.904 105.667Z" fill="#E527BB"/>
<path d="M271.327 102.341L268.603 107.058L265.879 102.341H271.327Z" fill="#E527BB"/>
<path d="M268.904 168.21C268.536 168.21 268.242 167.908 268.242 167.548V155.123C268.242 154.755 268.544 154.461 268.904 154.461C269.273 154.461 269.567 154.763 269.567 155.123V167.548C269.575 167.917 269.273 168.21 268.904 168.21Z" fill="#E527BB"/>
<path d="M271.327 164.884L268.603 169.609L265.879 164.884H271.327Z" fill="#E527BB"/>
<path d="M208.1 163.778C207.731 163.778 207.438 163.476 207.438 163.116V131.396C207.438 131.028 207.739 130.734 208.1 130.734H244.713C245.082 130.734 245.375 131.036 245.375 131.396C245.375 131.765 245.073 132.058 244.713 132.058H208.762V163.108C208.77 163.476 208.469 163.778 208.1 163.778Z" fill="#E527BB"/>
<path d="M210.523 162.672L207.798 167.389L205.074 162.672H210.523Z" fill="#E527BB"/>
<path d="M330.154 163.778C329.785 163.778 329.492 163.476 329.492 163.116V132.066H293.541C293.172 132.066 292.879 131.765 292.879 131.405C292.879 131.036 293.181 130.743 293.541 130.743H330.154C330.523 130.743 330.817 131.044 330.817 131.405V163.124C330.825 163.476 330.523 163.778 330.154 163.778Z" fill="#E527BB"/>
<path d="M327.504 162.672L330.228 167.389L332.961 162.672H327.504Z" fill="#E527BB"/>
<path d="M329.71 211.467H207.666C207.297 211.467 207.004 211.165 207.004 210.805V199.05C207.004 198.682 207.306 198.388 207.666 198.388C208.035 198.388 208.328 198.69 208.328 199.05V210.143H329.048V199.05C329.048 198.682 329.35 198.388 329.71 198.388C330.079 198.388 330.372 198.69 330.372 199.05V210.805C330.381 211.165 330.079 211.467 329.71 211.467Z" fill="url(#paint1_linear_1347_6708)"/>
<path d="M235.846 56.4949C235.846 58.0448 234.589 59.3016 233.038 59.3016H187.179C185.628 59.3016 184.371 58.0448 184.371 56.4949V56.3441C184.371 54.7941 185.628 53.5374 187.179 53.5374H233.038C234.589 53.5374 235.846 54.7941 235.846 56.3441V56.4949Z" fill="#A78BEF"/>
<path d="M235.846 69.3638C235.846 70.9137 234.589 72.1705 233.038 72.1705H187.179C185.628 72.1705 184.371 70.9137 184.371 69.3638V69.213C184.371 67.663 185.628 66.4062 187.179 66.4062H233.038C234.589 66.4062 235.846 67.663 235.846 69.213V69.3638Z" fill="#A78BEF"/>
<path d="M260.476 267.4C260.182 267.4 259.906 267.249 259.755 266.989L258.02 264.032C256.402 263.948 254.809 263.638 253.275 263.093L250.551 265.171C250.266 265.389 249.872 265.397 249.579 265.205L245.865 262.733C245.564 262.532 245.43 262.172 245.522 261.82L246.385 258.502C245.295 257.296 244.39 255.947 243.686 254.489L240.291 254.036C239.939 253.986 239.654 253.718 239.579 253.375L238.699 249.001C238.632 248.649 238.791 248.289 239.101 248.113L242.06 246.379C242.144 244.762 242.454 243.17 242.999 241.637L240.92 238.914C240.702 238.629 240.694 238.235 240.886 237.942L243.359 234.23C243.56 233.929 243.921 233.795 244.273 233.887L247.592 234.75C248.799 233.661 250.149 232.756 251.607 232.052L252.06 228.659C252.11 228.307 252.378 228.022 252.722 227.947L257.098 227.067C257.45 227 257.802 227.159 257.986 227.461L259.721 230.418C261.339 230.502 262.932 230.812 264.465 231.357L267.19 229.279C267.475 229.061 267.869 229.053 268.162 229.245L271.875 231.717C272.177 231.918 272.311 232.278 272.219 232.63L271.356 235.948C272.445 237.154 273.351 238.503 274.055 239.961L277.449 240.413C277.801 240.464 278.086 240.732 278.162 241.075L279.042 245.449C279.109 245.801 278.95 246.161 278.64 246.337L275.681 248.071C275.597 249.688 275.287 251.28 274.742 252.813L276.821 255.536C277.039 255.821 277.047 256.215 276.854 256.508L274.382 260.22C274.18 260.521 273.82 260.655 273.468 260.563L270.149 259.7C268.942 260.789 267.592 261.694 266.134 262.398L265.681 265.791C265.631 266.143 265.362 266.428 265.019 266.503L260.643 267.383C260.585 267.391 260.526 267.4 260.476 267.4ZM253.083 261.895L253.359 261.996C254.96 262.591 256.637 262.926 258.338 262.976L258.631 262.984L260.576 266.302L264.633 265.489L265.144 261.677L265.413 261.552C266.963 260.848 268.38 259.893 269.629 258.72L269.847 258.519L273.577 259.491L275.865 256.047L273.527 252.989L273.627 252.713C274.222 251.112 274.558 249.437 274.608 247.728L274.616 247.434L277.936 245.491L277.123 241.436L273.309 240.925L273.183 240.656C272.47 239.106 271.523 237.691 270.35 236.442L270.149 236.224L271.121 232.496L267.676 230.209L264.616 232.546L264.34 232.446C262.739 231.851 261.062 231.516 259.352 231.466L259.059 231.457L257.114 228.139L253.057 228.952L252.546 232.764L252.278 232.89C250.727 233.594 249.311 234.549 248.062 235.722L247.844 235.923L244.114 234.951L241.825 238.394L244.164 241.452L244.063 241.729C243.468 243.329 243.133 245.005 243.083 246.714L243.074 247.007L239.755 248.951L240.568 253.006L244.382 253.517L244.508 253.785C245.212 255.335 246.167 256.751 247.341 257.999L247.542 258.217L246.57 261.945L250.015 264.233L253.083 261.895ZM258.916 258.569C256.712 258.569 254.558 257.924 252.68 256.676C250.166 255.008 248.456 252.453 247.86 249.495C247.701 248.708 247.626 247.895 247.634 247.099C247.634 246.806 247.886 246.571 248.179 246.571C248.472 246.571 248.707 246.814 248.707 247.116C248.699 247.837 248.766 248.565 248.908 249.286C249.445 251.967 250.995 254.271 253.275 255.787C255.555 257.304 258.279 257.84 260.962 257.296C263.644 256.759 265.949 255.209 267.466 252.931C268.983 250.652 269.52 247.929 268.975 245.248C267.86 239.718 262.454 236.124 256.922 237.23C255.103 237.598 253.418 238.445 252.052 239.685C251.834 239.886 251.498 239.869 251.297 239.651C251.096 239.433 251.113 239.098 251.331 238.897C252.839 237.523 254.7 236.585 256.704 236.182C262.814 234.951 268.782 238.922 270.014 245.03C271.247 251.138 267.273 257.103 261.163 258.334C260.417 258.494 259.662 258.569 258.916 258.569Z" fill="#E527BB"/>
<path d="M258.865 251.716C257.189 251.716 255.571 250.769 254.8 249.16C253.727 246.923 254.683 244.234 256.921 243.17C259.159 242.097 261.849 243.053 262.914 245.29C263.434 246.37 263.501 247.594 263.098 248.725C262.696 249.856 261.883 250.769 260.793 251.28C260.173 251.573 259.511 251.716 258.865 251.716ZM255.764 248.699C256.577 250.409 258.631 251.129 260.341 250.316C262.05 249.504 262.771 247.451 261.958 245.742C261.145 244.033 259.092 243.312 257.382 244.125C255.672 244.938 254.942 246.99 255.764 248.699Z" fill="#E527BB"/>
<path d="M287.918 272.779C287.851 272.779 287.784 272.77 287.726 272.753L285.672 272.133C285.395 272.05 285.203 271.798 285.186 271.505L285.127 270.005C284.524 269.628 283.979 269.184 283.493 268.673L282.009 268.916C281.724 268.958 281.439 268.824 281.296 268.564L280.282 266.671C280.148 266.411 280.182 266.101 280.383 265.892L281.397 264.786C281.238 264.099 281.171 263.395 281.187 262.691L279.972 261.811C279.737 261.644 279.637 261.342 279.721 261.066L280.341 259.013C280.425 258.737 280.676 258.544 280.961 258.527L282.462 258.469C282.839 257.865 283.283 257.321 283.794 256.835L283.551 255.352C283.501 255.067 283.643 254.782 283.903 254.64L285.798 253.626C286.058 253.492 286.368 253.525 286.577 253.726L287.684 254.74C288.371 254.581 289.075 254.506 289.779 254.531L290.659 253.316C290.827 253.081 291.129 252.981 291.405 253.065L293.459 253.685C293.736 253.768 293.928 254.02 293.945 254.313L294.004 255.813C294.607 256.19 295.152 256.634 295.638 257.145L297.122 256.902C297.407 256.852 297.692 256.994 297.834 257.254L298.849 259.147C298.983 259.407 298.949 259.717 298.748 259.935L297.734 261.032C297.893 261.719 297.96 262.423 297.943 263.127L299.159 264.007C299.394 264.174 299.494 264.476 299.41 264.752L298.79 266.805C298.706 267.081 298.455 267.274 298.17 267.291L296.669 267.349C296.292 267.953 295.848 268.497 295.337 268.983L295.58 270.466C295.63 270.751 295.487 271.036 295.228 271.178L293.333 272.192C293.073 272.326 292.763 272.293 292.554 272.092L291.447 271.078C290.76 271.237 290.056 271.304 289.352 271.287L288.472 272.502C288.337 272.678 288.136 272.779 287.918 272.779ZM286.234 271.187L287.759 271.647L288.815 270.181L289.109 270.198C289.897 270.248 290.684 270.165 291.447 269.963L291.732 269.888L293.057 271.111L294.465 270.357L294.171 268.573L294.389 268.38C294.984 267.861 295.479 267.241 295.881 266.562L296.024 266.311L297.834 266.235L298.295 264.71L296.829 263.655L296.845 263.361C296.896 262.574 296.812 261.786 296.611 261.024L296.535 260.739L297.759 259.415L297.005 258.008L295.219 258.301L295.026 258.083C294.507 257.488 293.886 256.994 293.207 256.592L292.956 256.441L292.881 254.631L291.355 254.171L290.299 255.637L290.005 255.62C289.218 255.57 288.43 255.653 287.667 255.855L287.382 255.93L286.058 254.707L284.649 255.461L284.943 257.245L284.725 257.438C284.13 257.957 283.635 258.577 283.233 259.256L283.09 259.507L281.28 259.583L280.819 261.108L282.286 262.163L282.269 262.457C282.218 263.244 282.302 264.032 282.503 264.794L282.579 265.079L281.355 266.403L282.11 267.81L283.895 267.517L284.088 267.735C284.607 268.33 285.228 268.824 285.907 269.226L286.158 269.377L286.234 271.187ZM289.612 268.631C289.058 268.631 288.505 268.548 287.96 268.388C286.502 267.953 285.295 266.964 284.574 265.624C284.381 265.263 284.23 264.886 284.113 264.501C284.029 264.216 284.197 263.923 284.482 263.839C284.767 263.755 285.06 263.923 285.144 264.208C285.236 264.526 285.362 264.828 285.521 265.121C286.108 266.21 287.089 267.014 288.279 267.366C289.469 267.726 290.726 267.601 291.816 267.006C294.071 265.791 294.926 262.968 293.71 260.714C292.495 258.46 289.67 257.606 287.415 258.82C286.669 259.223 286.057 259.809 285.622 260.53C285.471 260.781 285.144 260.865 284.892 260.714C284.641 260.563 284.557 260.236 284.708 259.985C285.236 259.097 285.999 258.376 286.912 257.882C289.687 256.391 293.157 257.438 294.649 260.211C296.141 262.984 295.093 266.453 292.319 267.944C291.472 268.405 290.542 268.631 289.612 268.631Z" fill="#A78BEF"/>
<path d="M463.756 195.263L394.042 189.08C391.217 188.829 389.046 186.475 389.029 183.634L388.77 136.649C388.753 133.449 391.46 130.91 394.654 131.137L468.886 136.298C471.954 136.507 474.251 139.205 473.982 142.263L469.724 190.262C469.448 193.295 466.782 195.532 463.756 195.263Z" fill="#A78BEF"/>
<path d="M392.86 141.199L392.399 181.766C392.382 183.526 393.706 185.017 395.466 185.184L462.314 191.82C464.2 192.004 465.868 190.622 466.036 188.737L469.883 145.363C470.051 143.444 468.601 141.769 466.681 141.668L396.447 137.839C394.511 137.739 392.885 139.263 392.86 141.199Z" fill="white"/>
<path d="M424.544 176.639L462.372 178.859C462.758 178.884 463.051 179.219 463.018 179.605L462.968 180.208C462.934 180.585 462.607 180.861 462.23 180.836L424.46 178.013C424.074 177.988 423.789 177.644 423.823 177.267C423.857 176.898 424.175 176.614 424.544 176.639Z" fill="#91B3FA"/>
<path d="M423.54 180.426L423.514 180.685C423.481 181.062 423.758 181.397 424.143 181.431L461.871 184.774C462.248 184.807 462.584 184.531 462.617 184.146L462.642 183.886C462.676 183.509 462.399 183.174 462.014 183.14L424.286 179.797C423.908 179.772 423.573 180.049 423.54 180.426Z" fill="#91B3FA"/>
<path d="M434.695 184.824L434.686 184.942C434.653 185.319 434.929 185.654 435.315 185.687L461.593 188.016C461.97 188.05 462.306 187.773 462.339 187.388L462.389 186.852C462.423 186.466 462.138 186.131 461.752 186.106L435.432 184.196C435.055 184.171 434.728 184.447 434.695 184.824Z" fill="#91B3FA"/>
<path d="M457.912 178.473L375.642 176.798C372.306 176.731 369.573 174.133 369.321 170.816L365.256 115.729C364.98 111.975 367.955 108.783 371.71 108.792L459.203 108.909C462.824 108.917 465.733 111.883 465.657 115.503L464.501 172.148C464.434 175.717 461.483 178.549 457.912 178.473Z" fill="#E527BB"/>
<path d="M370.412 120.731L373.12 168.353C373.237 170.422 374.914 172.056 376.992 172.123L455.936 174.552C458.157 174.619 460.009 172.86 460.06 170.64L461.099 119.449C461.141 117.187 459.305 115.344 457.042 115.369L374.344 116.5C372.081 116.542 370.287 118.46 370.412 120.731Z" fill="white"/>
<path d="M410.426 159.773L454.977 159.346C455.43 159.337 455.807 159.714 455.798 160.175L455.782 160.896C455.773 161.34 455.413 161.692 454.969 161.692L410.426 161.399C409.973 161.399 409.613 161.021 409.621 160.569C409.63 160.125 409.99 159.773 410.426 159.773Z" fill="#7D97F4"/>
<path d="M409.548 164.298L409.539 164.599C409.531 165.043 409.883 165.412 410.335 165.429L454.861 166.333C455.306 166.342 455.675 165.99 455.691 165.538L455.7 165.236C455.708 164.792 455.356 164.423 454.903 164.406L410.377 163.502C409.925 163.493 409.556 163.845 409.548 164.298Z" fill="#7D97F4"/>
<path d="M422.985 168.562V168.696C422.976 169.14 423.328 169.509 423.781 169.526L454.795 170.154C455.239 170.162 455.608 169.81 455.625 169.358L455.641 168.73C455.65 168.277 455.289 167.909 454.837 167.9L423.814 167.766C423.353 167.766 422.993 168.118 422.985 168.562Z" fill="#7D97F4"/>
<path d="M445.365 167.666H354.092C350.396 167.666 347.303 164.85 346.951 161.172L341.201 100.171C340.807 96.015 344.034 92.4124 348.208 92.3286L445.231 90.4854C449.246 90.41 452.541 93.644 452.541 97.6488V160.494C452.541 164.457 449.33 167.666 445.365 167.666Z" fill="#A78BEF"/>
<path d="M347.033 105.608L351.115 158.357C351.291 160.645 353.194 162.421 355.49 162.446L443.092 163.359C445.556 163.384 447.577 161.39 447.577 158.927V102.148C447.577 99.6429 445.498 97.6321 442.992 97.7159L351.316 100.841C348.785 100.925 346.84 103.095 347.033 105.608Z" fill="white"/>
<path d="M393.806 105.131L443.202 103.656C443.705 103.639 444.124 104.05 444.124 104.552V105.348C444.124 105.843 443.73 106.237 443.235 106.245L393.839 106.924C393.337 106.932 392.926 106.53 392.926 106.027C392.934 105.541 393.32 105.139 393.806 105.131Z" fill="#E527BB"/>
<path d="M392.934 110.166V110.501C392.934 110.995 393.336 111.397 393.83 111.397H443.226C443.721 111.397 444.123 110.995 444.123 110.501V110.166C444.123 109.671 443.721 109.269 443.226 109.269H393.83C393.336 109.269 392.934 109.671 392.934 110.166Z" fill="#E527BB"/>
<path d="M380.865 154.571C380.639 154.571 380.463 154.395 380.463 154.168V152.962C380.463 152.736 380.639 152.56 380.865 152.56C381.091 152.56 381.267 152.736 381.267 152.962V154.168C381.267 154.386 381.091 154.571 380.865 154.571ZM380.857 150.541C380.63 150.541 380.454 150.365 380.454 150.138V148.932C380.454 148.706 380.63 148.53 380.857 148.53C381.083 148.53 381.259 148.706 381.259 148.932V150.138C381.259 150.356 381.083 150.541 380.857 150.541ZM380.848 146.511C380.622 146.511 380.446 146.335 380.446 146.109V144.902C380.446 144.676 380.622 144.5 380.848 144.5C381.075 144.5 381.251 144.676 381.251 144.902V146.109C381.251 146.326 381.066 146.511 380.848 146.511ZM380.84 142.481C380.614 142.481 380.438 142.305 380.438 142.079V140.872C380.438 140.646 380.614 140.47 380.84 140.47C381.066 140.47 381.242 140.646 381.242 140.872V142.079C381.242 142.296 381.058 142.481 380.84 142.481Z" fill="#A78BEF"/>
<path d="M401.109 153.423C400.883 153.423 400.707 153.238 400.707 153.021V151.814C400.707 151.588 400.891 151.412 401.109 151.412C401.327 151.412 401.512 151.596 401.512 151.814V153.021C401.512 153.238 401.336 153.423 401.109 153.423ZM401.109 149.393C400.883 149.393 400.707 149.208 400.707 148.991V147.784C400.707 147.558 400.891 147.382 401.109 147.382C401.327 147.382 401.512 147.566 401.512 147.784V148.991C401.512 149.208 401.336 149.393 401.109 149.393ZM401.109 145.363C400.883 145.363 400.707 145.179 400.707 144.961V143.754C400.707 143.528 400.891 143.352 401.109 143.352C401.327 143.352 401.512 143.536 401.512 143.754V144.961C401.512 145.179 401.336 145.363 401.109 145.363ZM401.109 141.333C400.883 141.333 400.707 141.149 400.707 140.931V139.724C400.707 139.498 400.891 139.322 401.109 139.322C401.327 139.322 401.512 139.506 401.512 139.724V140.931C401.512 141.157 401.336 141.333 401.109 141.333ZM401.109 137.303C400.883 137.303 400.707 137.119 400.707 136.901V135.694C400.707 135.468 400.891 135.292 401.109 135.292C401.327 135.292 401.512 135.477 401.512 135.694V136.901C401.512 137.127 401.336 137.303 401.109 137.303Z" fill="#A78BEF"/>
<path d="M416.549 156.749C416.331 156.749 416.155 156.573 416.146 156.355L416.121 155.634C416.113 155.408 416.289 155.224 416.515 155.216C416.742 155.199 416.926 155.383 416.934 155.609L416.959 156.33C416.968 156.556 416.792 156.74 416.566 156.749C416.557 156.749 416.557 156.749 416.549 156.749ZM416.44 153.205C416.222 153.205 416.046 153.029 416.037 152.811L416.004 151.605C415.996 151.378 416.172 151.194 416.398 151.186C416.624 151.177 416.809 151.353 416.817 151.579L416.851 152.786C416.859 153.012 416.683 153.196 416.457 153.205C416.448 153.205 416.44 153.205 416.44 153.205ZM416.314 149.183C416.096 149.183 415.92 149.007 415.912 148.789L415.878 147.583C415.87 147.357 416.046 147.172 416.272 147.164C416.49 147.164 416.683 147.332 416.691 147.558L416.725 148.764C416.733 148.991 416.557 149.175 416.331 149.183C416.322 149.183 416.322 149.183 416.314 149.183ZM416.188 145.153C415.97 145.153 415.794 144.977 415.786 144.76L415.752 143.553C415.744 143.327 415.92 143.143 416.146 143.134C416.356 143.126 416.557 143.302 416.566 143.528L416.599 144.734C416.607 144.961 416.431 145.145 416.205 145.153C416.197 145.153 416.197 145.153 416.188 145.153ZM416.063 141.132C415.845 141.132 415.669 140.956 415.66 140.738L415.627 139.532C415.618 139.305 415.794 139.121 416.021 139.113C416.247 139.113 416.431 139.28 416.44 139.506L416.473 140.713C416.482 140.939 416.306 141.123 416.079 141.132C416.071 141.132 416.071 141.132 416.063 141.132ZM415.937 137.102C415.719 137.102 415.543 136.926 415.535 136.708L415.501 135.502C415.493 135.275 415.669 135.091 415.895 135.083C416.113 135.066 416.306 135.25 416.314 135.476L416.348 136.683C416.356 136.909 416.18 137.093 415.954 137.102C415.945 137.102 415.945 137.102 415.937 137.102ZM415.811 133.072C415.593 133.072 415.417 132.896 415.409 132.678L415.375 131.472C415.367 131.245 415.543 131.061 415.769 131.053C416.004 131.044 416.18 131.22 416.188 131.447L416.222 132.653C416.23 132.879 416.054 133.064 415.828 133.072C415.82 133.072 415.82 133.072 415.811 133.072Z" fill="#A78BEF"/>
<path d="M431.227 154.495C431 154.495 430.824 154.311 430.824 154.093V152.886C430.824 152.66 431.009 152.484 431.227 152.484C431.453 152.484 431.629 152.668 431.629 152.886V154.093C431.629 154.311 431.445 154.495 431.227 154.495ZM431.227 150.465C431 150.465 430.824 150.281 430.824 150.063V148.856C430.824 148.63 431.009 148.454 431.227 148.454C431.453 148.454 431.629 148.639 431.629 148.856V150.063C431.629 150.281 431.445 150.465 431.227 150.465ZM431.227 146.435C431 146.435 430.824 146.251 430.824 146.033V144.826C430.824 144.6 431.009 144.424 431.227 144.424C431.453 144.424 431.629 144.609 431.629 144.826V146.033C431.629 146.259 431.445 146.435 431.227 146.435ZM431.227 142.405C431 142.405 430.824 142.221 430.824 142.003V140.797C430.824 140.57 431.009 140.394 431.227 140.394C431.453 140.394 431.629 140.579 431.629 140.797V142.003C431.629 142.229 431.445 142.405 431.227 142.405ZM431.227 138.375C431 138.375 430.824 138.191 430.824 137.973V136.767C430.824 136.54 431.009 136.364 431.227 136.364C431.453 136.364 431.629 136.549 431.629 136.767V137.973C431.629 138.199 431.445 138.375 431.227 138.375ZM431.227 134.354C431 134.354 430.824 134.169 430.824 133.952V132.745C430.824 132.519 431.009 132.343 431.227 132.343C431.453 132.343 431.629 132.527 431.629 132.745V133.952C431.629 134.169 431.445 134.354 431.227 134.354ZM431.227 130.324C431 130.324 430.824 130.139 430.824 129.922V128.715C430.824 128.489 431.009 128.313 431.227 128.313C431.453 128.313 431.629 128.497 431.629 128.715V129.922C431.629 130.139 431.445 130.324 431.227 130.324ZM431.227 126.294C431 126.294 430.824 126.11 430.824 125.892V124.685C430.824 124.459 431.009 124.283 431.227 124.283C431.453 124.283 431.629 124.467 431.629 124.685V125.892C431.629 126.11 431.445 126.294 431.227 126.294ZM431.227 122.264C431 122.264 430.824 122.08 430.824 121.862V120.655C430.824 120.429 431.009 120.253 431.227 120.253C431.453 120.253 431.629 120.437 431.629 120.655V121.862C431.629 122.088 431.445 122.264 431.227 122.264Z" fill="#A78BEF"/>
<path d="M359.198 159.245C358.888 159.245 358.62 159.011 358.595 158.693L354.471 109.923C354.445 109.588 354.688 109.295 355.024 109.269C355.359 109.253 355.652 109.487 355.678 109.822L359.81 158.592C359.835 158.927 359.592 159.22 359.257 159.245C359.232 159.245 359.215 159.245 359.198 159.245Z" fill="#E527BB"/>
<path d="M353.229 112.445L355.098 110.233L357.311 112.101L357.169 110.367L354.947 108.499L353.078 110.71L353.229 112.445Z" fill="#E527BB"/>
<path d="M441.081 156.95H356.061C355.725 156.95 355.457 156.682 355.457 156.347C355.457 156.012 355.725 155.743 356.061 155.743H441.081C441.416 155.743 441.684 156.012 441.684 156.347C441.684 156.682 441.416 156.95 441.081 156.95Z" fill="#E527BB"/>
<path d="M438.668 158.391L440.722 156.347L438.668 154.294H440.411L442.465 156.347L440.411 158.391H438.668Z" fill="#E527BB"/>
<path d="M362.733 142.933C362.431 142.933 362.171 142.715 362.138 142.405C362.096 142.078 362.322 141.768 362.657 141.727C363.102 141.668 407.619 135.577 431.986 117.614C432.254 117.413 432.632 117.472 432.833 117.74C433.034 118.008 432.975 118.385 432.707 118.586C408.089 136.733 363.269 142.866 362.825 142.925C362.792 142.933 362.758 142.933 362.733 142.933Z" fill="#E527BB"/>
<path d="M432.534 121.326C432.517 121.326 432.5 121.326 432.483 121.326C432.148 121.3 431.905 121.007 431.93 120.672L432.114 118.301L428.77 118.1C428.435 118.083 428.183 117.798 428.2 117.463C428.217 117.128 428.502 116.868 428.837 116.894L432.802 117.128C432.961 117.137 433.112 117.212 433.221 117.338C433.33 117.463 433.38 117.622 433.372 117.782L433.137 120.773C433.104 121.083 432.844 121.326 432.534 121.326Z" fill="#E527BB"/>
<path d="M75.5792 290.415H159.912C162.603 290.415 164.782 288.236 164.782 285.547V159.296C164.782 156.615 162.611 154.436 159.929 154.428L74.9254 154.202C72.2179 154.193 70.0302 156.388 70.047 159.095L70.7175 285.572C70.7175 288.253 72.8969 290.415 75.5792 290.415Z" fill="#E527BB"/>
<path d="M79.7134 160.427L155.119 160.887C157.843 160.904 160.039 163.124 160.031 165.847L159.503 279.163C159.495 281.844 157.34 284.03 154.65 284.081L81.3814 285.413C78.6488 285.463 76.3857 283.276 76.3521 280.545L74.7428 165.428C74.7009 162.672 76.9389 160.41 79.7134 160.427Z" fill="url(#paint2_linear_1347_6708)"/>
<path d="M82.7695 166.777V167.297C82.7695 168.109 83.4317 168.771 84.2448 168.771H142.341C143.154 168.771 143.817 168.109 143.817 167.297V166.777C143.817 165.965 143.154 165.303 142.341 165.303H84.2532C83.4317 165.303 82.7695 165.965 82.7695 166.777Z" fill="#A78BEF"/>
<path d="M89.2604 173.312C89.3023 174.083 89.931 174.695 90.7105 174.711L141.523 175.633C142.353 175.65 143.032 174.98 143.032 174.159V174.041C143.032 173.237 142.386 172.575 141.573 172.567L90.7608 171.754C89.8975 171.746 89.2101 172.458 89.2604 173.312Z" fill="#A78BEF"/>
<path d="M84.0715 281.735C81.6826 281.735 79.7128 279.808 79.6709 277.42L78.028 184.74C77.9861 182.319 79.9224 180.317 82.3364 180.266L150.944 178.934C152.109 178.909 153.233 179.345 154.079 180.166C154.926 180.978 155.404 182.076 155.429 183.249L157.197 276.44C157.223 277.621 156.778 278.735 155.957 279.582C155.135 280.428 154.029 280.905 152.855 280.914L84.1302 281.735C84.1051 281.735 84.0883 281.735 84.0715 281.735ZM151.028 180.702C151.011 180.702 150.995 180.702 150.978 180.702L82.37 182.034C80.9282 182.059 79.7715 183.257 79.7966 184.698L81.4479 277.378C81.4731 278.802 82.6466 279.95 84.0715 279.95C84.0799 279.95 84.0967 279.95 84.1051 279.95L152.83 279.129C153.534 279.121 154.188 278.836 154.683 278.333C155.169 277.831 155.437 277.16 155.42 276.457L153.652 183.266C153.635 182.562 153.35 181.908 152.847 181.422C152.353 180.962 151.707 180.702 151.028 180.702Z" fill="#A78BEF"/>
<path d="M154.647 190.027H79.8026C79.3164 190.027 78.9141 189.633 78.9141 189.139C78.9141 188.653 79.308 188.251 79.8026 188.251H154.647C155.133 188.251 155.535 188.645 155.535 189.139C155.535 189.633 155.141 190.027 154.647 190.027Z" fill="#A78BEF"/>
<path d="M96.0598 238.889C96.0598 238.369 95.6407 237.95 95.121 237.95H87.6693C87.1496 237.95 86.7305 238.369 86.7305 238.889V270.86C86.7305 271.379 87.1496 271.798 87.6693 271.798H95.1126C95.6323 271.798 96.0514 271.379 96.0514 270.86V238.889H96.0598Z" fill="#A78BEF"/>
<path d="M118.909 233.904H111.482C110.963 233.904 110.535 234.406 110.535 234.984V270.684C110.535 271.27 110.963 271.807 111.482 271.807H118.909C119.429 271.807 119.982 271.27 119.982 270.684V234.984C119.982 234.406 119.429 233.904 118.909 233.904Z" fill="#A78BEF"/>
<path d="M107.712 228.34C107.712 227.821 107.292 227.402 106.773 227.402H99.3294C98.8097 227.402 98.3906 227.821 98.3906 228.34V270.86C98.3906 271.379 98.8097 271.798 99.3294 271.798H106.773C107.292 271.798 107.712 271.379 107.712 270.86V228.34Z" fill="#A78BEF"/>
<path d="M148.087 213.26C148.087 212.74 147.667 212.321 147.148 212.321H139.704C139.185 212.321 138.766 212.74 138.766 213.26V270.86C138.766 271.379 139.185 271.798 139.704 271.798H147.148C147.667 271.798 148.087 271.379 148.087 270.86V213.26Z" fill="#E527BB"/>
<path d="M134.215 221.479C134.215 220.959 133.796 220.54 133.277 220.54H125.833C125.314 220.54 124.895 220.959 124.895 221.479V270.86C124.895 271.379 125.314 271.798 125.833 271.798H133.277C133.796 271.798 134.215 271.379 134.215 270.86V221.479Z" fill="#E527BB"/>
<g opacity="0.6">
<path d="M91.0745 226.531L90.8984 226.212L103.304 219.434L114.846 224.503L124.754 214.784L124.771 214.776L136.405 207.914L136.59 208.233L124.98 215.086L114.922 224.939L103.329 219.845L91.0745 226.531Z" fill="#E527BB"/>
<path d="M92.314 226.372C92.314 227.109 91.7188 227.704 90.9812 227.704C90.2436 227.704 89.6484 227.109 89.6484 226.372C89.6484 225.634 90.2436 225.04 90.9812 225.04C91.7188 225.04 92.314 225.634 92.314 226.372Z" fill="#E527BB"/>
<path d="M103.313 220.968C104.049 220.968 104.646 220.371 104.646 219.636C104.646 218.9 104.049 218.303 103.313 218.303C102.577 218.303 101.98 218.9 101.98 219.636C101.98 220.371 102.577 220.968 103.313 220.968Z" fill="#E527BB"/>
<path d="M114.887 225.802C115.624 225.802 116.22 225.206 116.22 224.47C116.22 223.734 115.624 223.138 114.887 223.138C114.151 223.138 113.555 223.734 113.555 224.47C113.555 225.206 114.151 225.802 114.887 225.802Z" fill="#E527BB"/>
<path d="M124.544 216.268C125.28 216.268 125.876 215.671 125.876 214.935C125.876 214.2 125.28 213.603 124.544 213.603C123.808 213.603 123.211 214.2 123.211 214.935C123.211 215.671 123.808 216.268 124.544 216.268Z" fill="#E527BB"/>
<path d="M137.83 208.074C137.83 208.811 137.234 209.406 136.497 209.406C135.759 209.406 135.164 208.811 135.164 208.074C135.164 207.336 135.759 206.741 136.497 206.741C137.234 206.741 137.83 207.336 137.83 208.074Z" fill="#E527BB"/>
</g>
<path d="M121.481 250.987L122.06 285.555C122.102 288.245 124.298 290.398 126.98 290.398H194.867C197.583 290.398 199.787 288.195 199.787 285.48V253.123C199.787 250.467 197.675 248.289 195.026 248.205L126.561 245.985C123.753 245.893 121.431 248.172 121.481 250.987Z" fill="#A78BEF"/>
<path d="M127.096 254.355L128.571 286.142C128.63 287.365 129.644 288.32 130.868 288.295L192.686 287.206C193.918 287.181 194.908 286.176 194.908 284.944V257.38C194.908 256.173 193.96 255.185 192.762 255.126L129.477 251.992C128.135 251.925 127.037 253.023 127.096 254.355Z" fill="url(#paint3_linear_1347_6708)"/>
<path d="M132.027 257.329V259.616C132.027 260.421 132.69 261.074 133.494 261.057L186.813 260.186C187.601 260.169 188.238 259.533 188.238 258.745C188.238 257.966 187.618 257.321 186.83 257.304L133.511 255.88C132.698 255.863 132.027 256.516 132.027 257.329Z" fill="#A78BEF"/>
<path d="M132.824 265.984V268.087C132.824 268.908 133.503 269.561 134.316 269.528L185.095 267.76C185.875 267.735 186.487 267.098 186.487 266.319V265.666C186.487 264.861 185.833 264.216 185.028 264.224L134.249 264.543C133.47 264.543 132.824 265.188 132.824 265.984Z" fill="#A78BEF"/>
<path d="M370.201 62.4352L372.431 62.3682C372.674 62.3598 372.884 62.5525 372.884 62.7955C372.892 63.0384 372.699 63.2479 372.456 63.2479H372.448L370.243 63.3149H370.227C369.984 63.3233 369.774 63.1306 369.766 62.8876C369.766 62.6447 369.958 62.4436 370.201 62.4352Z" fill="#A78BEF"/>
<path d="M374.651 62.3346L376.872 62.3262C377.115 62.3262 377.317 62.5189 377.317 62.7618C377.317 63.0048 377.124 63.2059 376.881 63.2059L374.668 63.2143H374.659C374.416 63.2143 374.215 63.0216 374.215 62.7702C374.207 62.5356 374.408 62.3346 374.651 62.3346Z" fill="#A78BEF"/>
<path d="M379.096 62.343L381.318 62.3765C381.561 62.3765 381.753 62.5776 381.753 62.8206C381.753 63.0635 381.552 63.2562 381.309 63.2562L379.096 63.2227C378.853 63.2227 378.66 63.0217 378.66 62.7787C378.652 62.5357 378.853 62.343 379.096 62.343Z" fill="#A78BEF"/>
<path d="M383.539 62.4351L385.76 62.5105C386.003 62.5189 386.187 62.7199 386.179 62.9629C386.171 63.2059 385.969 63.3902 385.726 63.3818L383.513 63.3064C383.27 63.298 383.086 63.097 383.086 62.854C383.094 62.6194 383.295 62.4267 383.539 62.4351Z" fill="#A78BEF"/>
<path d="M387.981 62.6109L390.202 62.7282C390.445 62.745 390.63 62.946 390.613 63.189C390.596 63.432 390.395 63.6163 390.152 63.5996L387.939 63.4823C387.696 63.4739 387.512 63.2644 387.528 63.0215C387.537 62.7785 387.738 62.5942 387.981 62.6109Z" fill="#A78BEF"/>
<path d="M392.415 62.8624L394.628 63.0216C394.871 63.0383 395.047 63.2478 395.03 63.4824C395.013 63.7253 394.804 63.9013 394.569 63.8845L392.364 63.7253C392.121 63.7086 391.945 63.4991 391.962 63.2645C391.97 63.03 392.18 62.8456 392.415 62.8624Z" fill="#A78BEF"/>
<path d="M396.849 63.206L399.062 63.4071C399.297 63.4322 399.473 63.6417 399.456 63.8763C399.431 64.1109 399.222 64.2868 398.987 64.27L396.782 64.069H396.774C396.539 64.0438 396.363 63.8344 396.38 63.5998C396.405 63.3568 396.615 63.1809 396.849 63.206Z" fill="#A78BEF"/>
<path d="M401.275 63.6331L403.488 63.8845C403.722 63.9096 403.89 64.1274 403.865 64.362C403.84 64.5966 403.622 64.7642 403.387 64.739H403.379L401.183 64.4877H401.174C400.94 64.4626 400.764 64.2447 400.797 64.0101C400.822 63.7755 401.04 63.608 401.275 63.6331Z" fill="#A78BEF"/>
<path d="M405.69 64.161L407.895 64.4626C408.129 64.4961 408.297 64.714 408.264 64.9486C408.23 65.1831 408.012 65.3507 407.777 65.3172H407.769L405.573 65.0156H405.564C405.33 64.9821 405.162 64.7642 405.196 64.5296C405.238 64.2951 405.456 64.1275 405.69 64.161Z" fill="#A78BEF"/>
<path d="M410.091 64.7894L412.287 65.1497C412.522 65.1832 412.681 65.4094 412.639 65.6356C412.597 65.8702 412.379 66.0294 412.153 65.9875H412.145L409.957 65.6356H409.949C409.714 65.6021 409.555 65.3759 409.597 65.1497C409.638 64.9067 409.856 64.7475 410.091 64.7894Z" fill="#A78BEF"/>
<path d="M414.485 65.5268L416.672 65.9457C416.899 65.9876 417.058 66.2138 417.008 66.44C416.966 66.6662 416.739 66.8254 416.513 66.7751H416.505L414.334 66.3646H414.325C414.091 66.3227 413.94 66.0965 413.99 65.8703C414.024 65.6357 414.25 65.4849 414.485 65.5268Z" fill="#A78BEF"/>
<path d="M418.842 66.398L421.013 66.8839C421.239 66.9342 421.381 67.1604 421.331 67.3866C421.281 67.6129 421.055 67.7553 420.828 67.705H420.82L418.657 67.2275H418.649C418.423 67.1772 418.28 66.951 418.33 66.7248C418.389 66.4902 418.615 66.3477 418.842 66.398Z" fill="#A78BEF"/>
<path d="M423.185 67.4034L425.339 67.9647C425.566 68.0233 425.7 68.2496 425.641 68.4758C425.583 68.702 425.356 68.836 425.13 68.7774H425.122L422.984 68.2244H422.976C422.749 68.1658 422.615 67.9312 422.674 67.7133C422.724 67.4871 422.959 67.3447 423.185 67.4034Z" fill="#A78BEF"/>
<path d="M427.487 68.5764L429.616 69.2299C429.834 69.2969 429.96 69.5315 429.893 69.7494C429.826 69.9672 429.591 70.0929 429.373 70.0258H429.365L427.252 69.3807H427.244C427.026 69.3137 426.9 69.0791 426.967 68.8529C427.026 68.6351 427.261 68.5094 427.487 68.5764Z" fill="#A78BEF"/>
<path d="M431.735 69.9169L433.839 70.6626C434.057 70.738 434.166 70.9809 434.09 71.1988C434.015 71.4166 433.772 71.5255 433.554 71.4501H433.545L431.467 70.7128H431.458C431.24 70.6374 431.123 70.3945 431.207 70.1766C431.274 69.9588 431.517 69.8415 431.735 69.9169Z" fill="#A78BEF"/>
<path d="M435.911 71.4751L437.964 72.3381C438.174 72.4303 438.275 72.6732 438.182 72.8827C438.09 73.0921 437.847 73.1927 437.638 73.1005L437.629 73.0921L435.592 72.2376L435.584 72.2292C435.374 72.137 435.274 71.8941 435.358 71.6846C435.441 71.4751 435.701 71.383 435.911 71.4751Z" fill="#A78BEF"/>
<path d="M439.999 73.2681L441.994 74.2652C442.195 74.3657 442.279 74.617 442.178 74.8181C442.078 75.0192 441.826 75.103 441.625 75.0024L441.608 74.9941L439.638 74.0054L439.622 73.997C439.42 73.8965 439.337 73.6452 439.437 73.4441C439.546 73.2514 439.789 73.1676 439.999 73.2681Z" fill="#A78BEF"/>
<path d="M443.957 75.3459L445.868 76.5021C446.061 76.6194 446.128 76.8707 446.01 77.0718C445.893 77.2645 445.642 77.3315 445.44 77.2142L445.424 77.2058L443.538 76.0664L443.521 76.058C443.328 75.9407 443.261 75.6894 443.378 75.4883C443.504 75.2956 443.764 75.2286 443.957 75.3459Z" fill="#A78BEF"/>
<path d="M447.737 77.7254L449.581 78.9821C449.766 79.1078 449.816 79.3675 449.69 79.5519C449.564 79.7362 449.305 79.7865 449.12 79.6608L449.112 79.6524L447.284 78.4124L447.276 78.404C447.092 78.2784 447.041 78.0186 447.167 77.8343C447.293 77.6416 447.544 77.5997 447.737 77.7254Z" fill="#A78BEF"/>
<path d="M451.39 80.2722L453.175 81.6127C453.36 81.7468 453.393 82.0065 453.259 82.1824C453.125 82.3668 452.865 82.4003 452.689 82.2662L452.681 82.2578L450.912 80.9341L450.904 80.9257C450.719 80.7917 450.686 80.5319 450.82 80.356C450.954 80.1717 451.205 80.1382 451.39 80.2722Z" fill="#A78BEF"/>
<path d="M454.92 83.0036L456.621 84.4446C456.789 84.5871 456.814 84.8468 456.671 85.0143C456.529 85.1819 456.269 85.207 456.101 85.0646L456.093 85.0562L454.408 83.6319L454.4 83.6236C454.224 83.4811 454.207 83.2214 454.35 83.0455C454.492 82.8779 454.743 82.8528 454.92 83.0036Z" fill="#A78BEF"/>
<path d="M458.271 85.9444L459.872 87.5111C460.032 87.6703 460.032 87.9217 459.881 88.0809C459.722 88.24 459.47 88.24 459.311 88.0892L459.302 88.0809L457.727 86.5393L457.718 86.5309C457.559 86.3717 457.559 86.1204 457.71 85.9612C457.852 85.7936 458.112 85.7852 458.271 85.9444Z" fill="#A78BEF"/>
<path d="M461.4 89.1449L462.85 90.854C462.993 91.0216 462.976 91.2813 462.8 91.4237C462.632 91.5662 462.372 91.5494 462.23 91.3735L462.213 91.3567L460.788 89.6811L460.771 89.6643C460.629 89.4968 460.646 89.237 460.822 89.0946C461.006 88.9522 461.258 88.9689 461.4 89.1449Z" fill="#A78BEF"/>
<path d="M464.208 92.6386L465.449 94.5154C465.575 94.6997 465.524 94.951 465.332 95.0683C465.147 95.194 464.896 95.1437 464.778 94.951L464.761 94.9259L463.554 93.0994L463.538 93.0743C463.412 92.89 463.462 92.6386 463.655 92.5214C463.831 92.4041 464.083 92.4543 464.208 92.6386Z" fill="#A78BEF"/>
<path d="M466.547 96.4675L467.477 98.5201C467.57 98.7212 467.477 98.9558 467.276 99.048C467.075 99.1401 466.84 99.048 466.748 98.8469L466.731 98.8134L465.826 96.8277L465.809 96.7942C465.717 96.5931 465.809 96.3585 466.01 96.2664C466.212 96.1826 466.455 96.2664 466.547 96.4675Z" fill="#A78BEF"/>
<path d="M468.212 100.657C468.422 101.377 468.589 102.114 468.715 102.86C468.748 103.078 468.606 103.279 468.388 103.321C468.17 103.354 467.969 103.212 467.927 102.994C467.801 102.282 467.642 101.57 467.441 100.874C467.382 100.665 467.499 100.439 467.717 100.38C467.927 100.322 468.145 100.447 468.212 100.657Z" fill="#A78BEF"/>
<path d="M468.967 105.105C469.008 105.859 469 106.614 468.941 107.368C468.925 107.585 468.74 107.753 468.522 107.736C468.304 107.719 468.137 107.535 468.153 107.317C468.204 106.597 468.212 105.868 468.17 105.147C468.162 104.929 468.33 104.745 468.547 104.728C468.765 104.712 468.95 104.888 468.967 105.105Z" fill="#A78BEF"/>
<path d="M468.643 109.621C468.5 110.358 468.316 111.096 468.09 111.816C468.023 112.026 467.805 112.143 467.595 112.076C467.386 112.009 467.268 111.791 467.335 111.582C467.553 110.886 467.729 110.191 467.872 109.479C467.914 109.261 468.123 109.127 468.333 109.169C468.542 109.194 468.685 109.403 468.643 109.621Z" fill="#A78BEF"/>
<path d="M467.299 113.928L466.309 115.947C466.217 116.139 465.983 116.223 465.781 116.123C465.589 116.031 465.505 115.796 465.605 115.595L465.622 115.561L466.578 113.601L466.594 113.567C466.687 113.375 466.921 113.291 467.122 113.391C467.307 113.492 467.391 113.727 467.299 113.928Z" fill="#A78BEF"/>
<path d="M465.138 117.874L463.831 119.7C463.705 119.876 463.462 119.918 463.286 119.792C463.11 119.667 463.068 119.424 463.194 119.248L463.21 119.223L464.485 117.438L464.501 117.413C464.627 117.237 464.87 117.195 465.046 117.321C465.222 117.455 465.264 117.698 465.138 117.874Z" fill="#A78BEF"/>
<path d="M462.423 121.435L460.906 123.085C460.763 123.244 460.512 123.253 460.353 123.11C460.193 122.968 460.185 122.716 460.327 122.557L460.344 122.541L461.828 120.924L461.845 120.907C461.987 120.748 462.239 120.739 462.398 120.882C462.557 121.024 462.566 121.275 462.423 121.435Z" fill="#A78BEF"/>
<path d="M459.303 124.652L457.643 126.143C457.484 126.286 457.24 126.269 457.098 126.118C456.956 125.959 456.972 125.716 457.123 125.573L457.132 125.565L458.766 124.09L458.774 124.082C458.934 123.94 459.177 123.948 459.319 124.107C459.479 124.258 459.462 124.509 459.303 124.652Z" fill="#A78BEF"/>
<path d="M455.926 127.567L454.183 128.941C454.015 129.075 453.772 129.042 453.638 128.874C453.504 128.707 453.537 128.464 453.697 128.33L455.432 126.956C455.599 126.822 455.843 126.855 455.977 127.014C456.128 127.19 456.094 127.433 455.926 127.567Z" fill="#A78BEF"/>
<path d="M452.464 130.341L450.771 131.765L450.763 131.773C450.603 131.907 450.36 131.891 450.226 131.723C450.092 131.564 450.109 131.321 450.276 131.187L451.986 129.754C452.146 129.62 452.389 129.637 452.531 129.804C452.657 129.955 452.632 130.198 452.464 130.341Z" fill="#A78BEF"/>
<path d="M449.105 133.214L447.47 134.706L447.462 134.714C447.302 134.856 447.068 134.848 446.925 134.689C446.783 134.53 446.791 134.295 446.95 134.153L448.593 132.653C448.752 132.51 448.987 132.519 449.13 132.678C449.272 132.82 449.264 133.063 449.105 133.214Z" fill="#A78BEF"/>
<path d="M445.876 136.239L444.342 137.822L444.334 137.831C444.191 137.982 443.948 137.99 443.797 137.839C443.646 137.697 443.638 137.454 443.789 137.303L445.339 135.694C445.482 135.543 445.725 135.535 445.876 135.686C446.027 135.828 446.035 136.071 445.884 136.222L445.876 136.239Z" fill="#A78BEF"/>
<path d="M442.892 139.473L441.543 141.207L441.526 141.232C441.4 141.4 441.157 141.425 440.998 141.299C440.83 141.174 440.805 140.931 440.931 140.771L442.314 138.995C442.44 138.828 442.683 138.803 442.842 138.928C443.01 139.054 443.035 139.297 442.909 139.456L442.892 139.473Z" fill="#A78BEF"/>
<path d="M440.343 143.034C439.974 143.662 439.63 144.299 439.337 144.961C439.253 145.153 439.027 145.237 438.842 145.153C438.65 145.069 438.566 144.843 438.65 144.659C438.96 143.964 439.312 143.302 439.689 142.648C439.798 142.472 440.024 142.414 440.209 142.514C440.385 142.623 440.443 142.849 440.343 143.034Z" fill="#A78BEF"/>
<path d="M438.607 146.988C438.414 147.683 438.288 148.387 438.221 149.099C438.205 149.309 438.02 149.46 437.811 149.434C437.601 149.418 437.45 149.233 437.475 149.024C437.542 148.261 437.685 147.516 437.878 146.779C437.928 146.577 438.138 146.46 438.339 146.519C438.54 146.586 438.657 146.787 438.607 146.988Z" fill="#A78BEF"/>
<path d="M438.215 151.253C438.274 151.973 438.391 152.685 438.559 153.389C438.609 153.59 438.484 153.791 438.283 153.833C438.081 153.883 437.88 153.758 437.838 153.557C437.671 152.819 437.545 152.074 437.478 151.32C437.461 151.11 437.612 150.934 437.822 150.917C438.023 150.892 438.199 151.051 438.215 151.253Z" fill="#A78BEF"/>
<path d="M439.171 155.483L439.968 157.528L439.976 157.553C440.051 157.746 439.959 157.955 439.766 158.03C439.574 158.106 439.364 158.014 439.289 157.821L438.476 155.735C438.4 155.542 438.492 155.324 438.685 155.257C438.878 155.182 439.087 155.274 439.163 155.467L439.171 155.483Z" fill="#A78BEF"/>
<path d="M440.878 159.53L441.85 161.516V161.524C441.942 161.709 441.867 161.926 441.683 162.019C441.498 162.111 441.28 162.035 441.188 161.851L440.207 159.857C440.115 159.673 440.191 159.455 440.375 159.363C440.559 159.262 440.777 159.338 440.878 159.53Z" fill="#A78BEF"/>
<path d="M442.851 163.502L443.706 165.579C443.781 165.764 443.698 165.981 443.505 166.057C443.32 166.132 443.102 166.049 443.027 165.856L443.019 165.831L442.189 163.812L442.172 163.778C442.097 163.594 442.18 163.376 442.373 163.3C442.558 163.225 442.776 163.309 442.851 163.502Z" fill="#A78BEF"/>
<path d="M444.4 167.716L444.945 169.886C444.996 170.078 444.878 170.279 444.677 170.33C444.484 170.38 444.283 170.263 444.233 170.062L444.224 170.045L443.688 167.917L443.68 167.892C443.629 167.699 443.747 167.498 443.948 167.448C444.149 167.397 444.35 167.515 444.4 167.716Z" fill="#A78BEF"/>
<path d="M445.364 172.081L445.666 174.301C445.691 174.502 445.557 174.687 445.356 174.712C445.154 174.737 444.97 174.603 444.945 174.402V174.385L444.651 172.207V172.19C444.626 171.989 444.76 171.804 444.962 171.779C445.154 171.746 445.339 171.88 445.364 172.081Z" fill="#A78BEF"/>
<path d="M445.842 176.53L445.901 178.767C445.909 178.968 445.75 179.135 445.549 179.135C445.348 179.144 445.18 178.984 445.18 178.783V178.767L445.121 176.571V176.555C445.113 176.354 445.272 176.186 445.473 176.186C445.675 176.169 445.834 176.328 445.842 176.53Z" fill="#A78BEF"/>
<path d="M445.851 180.995L445.675 183.224C445.658 183.425 445.482 183.567 445.289 183.551C445.088 183.534 444.946 183.358 444.962 183.165V183.148L445.13 180.953V180.937C445.147 180.735 445.323 180.593 445.516 180.601C445.717 180.627 445.859 180.803 445.851 180.995Z" fill="#A78BEF"/>
<path d="M445.371 185.444L444.952 187.639C444.918 187.832 444.725 187.958 444.533 187.924C444.34 187.891 444.214 187.698 444.248 187.505V187.488L444.658 185.327V185.31C444.692 185.117 444.885 184.983 445.077 185.025C445.279 185.059 445.413 185.251 445.371 185.444Z" fill="#A78BEF"/>
<path d="M444.427 189.809L443.773 191.946C443.714 192.13 443.513 192.239 443.329 192.18C443.144 192.121 443.035 191.92 443.094 191.736L443.102 191.719L443.748 189.616L443.756 189.6C443.815 189.407 444.016 189.306 444.2 189.365C444.377 189.424 444.485 189.625 444.427 189.809Z" fill="#A78BEF"/>
<path d="M443 194.048L442.111 196.101C442.036 196.277 441.826 196.361 441.642 196.285C441.466 196.21 441.382 196.001 441.457 195.816L441.466 195.799L442.338 193.78L442.346 193.764C442.421 193.579 442.631 193.504 442.815 193.579C442.991 193.663 443.075 193.872 443 194.048Z" fill="#A78BEF"/>
<path d="M441.113 198.104L440.007 200.047C439.915 200.215 439.697 200.274 439.529 200.181C439.362 200.089 439.303 199.871 439.395 199.704L439.403 199.687L440.485 197.777L440.493 197.76C440.585 197.593 440.803 197.534 440.971 197.626C441.147 197.718 441.206 197.936 441.113 198.104Z" fill="#A78BEF"/>
<path d="M438.808 201.941L437.508 203.759C437.399 203.918 437.173 203.952 437.022 203.843C436.863 203.734 436.83 203.508 436.938 203.357L436.947 203.34L438.221 201.547L438.229 201.53C438.338 201.371 438.565 201.338 438.724 201.446C438.883 201.555 438.925 201.782 438.808 201.941Z" fill="#A78BEF"/>
<path d="M436.125 205.51L434.659 207.194C434.533 207.336 434.315 207.353 434.164 207.227C434.013 207.102 434.005 206.884 434.131 206.733L434.139 206.725L435.581 205.066L435.589 205.057C435.715 204.915 435.941 204.898 436.084 205.024C436.234 205.141 436.251 205.359 436.125 205.51Z" fill="#A78BEF"/>
<path d="M433.118 208.811L431.509 210.353C431.367 210.487 431.149 210.478 431.014 210.344C430.88 210.202 430.889 209.984 431.023 209.85L431.031 209.842L432.624 208.317L432.632 208.308C432.775 208.174 432.993 208.183 433.127 208.317C433.261 208.451 433.252 208.677 433.118 208.811Z" fill="#A78BEF"/>
<path d="M429.826 211.827L428.091 213.235C427.94 213.352 427.722 213.335 427.604 213.184C427.487 213.034 427.504 212.816 427.655 212.698L427.663 212.69L429.373 211.299L429.381 211.291C429.532 211.174 429.75 211.19 429.868 211.341C430.002 211.484 429.976 211.701 429.826 211.827Z" fill="#A78BEF"/>
<path d="M426.312 214.567L424.484 215.84C424.325 215.949 424.115 215.907 424.006 215.757C423.898 215.597 423.939 215.388 424.09 215.279L424.099 215.271L425.909 214.014L425.918 214.005C426.077 213.897 426.286 213.938 426.395 214.089C426.504 214.24 426.462 214.458 426.312 214.567Z" fill="#A78BEF"/>
<path d="M422.606 217.047L420.695 218.194C420.536 218.295 420.326 218.236 420.225 218.077C420.125 217.918 420.184 217.708 420.343 217.608L420.351 217.6L422.246 216.46L422.254 216.452C422.413 216.351 422.623 216.41 422.723 216.569C422.816 216.737 422.765 216.946 422.606 217.047Z" fill="#A78BEF"/>
<path d="M418.742 219.284L416.772 220.314C416.605 220.398 416.404 220.339 416.311 220.172C416.227 220.004 416.286 219.803 416.454 219.711L416.462 219.703L418.415 218.681L418.424 218.672C418.591 218.588 418.792 218.647 418.885 218.815C418.977 218.991 418.91 219.2 418.742 219.284Z" fill="#A78BEF"/>
<path d="M414.768 221.294L412.739 222.216C412.572 222.291 412.37 222.216 412.295 222.048C412.219 221.881 412.295 221.68 412.463 221.604H412.471L414.483 220.683H414.491C414.659 220.607 414.86 220.683 414.944 220.85C415.019 221.01 414.944 221.211 414.768 221.294Z" fill="#A78BEF"/>
<path d="M410.697 223.087L408.627 223.917C408.451 223.984 408.258 223.9 408.191 223.733C408.124 223.557 408.208 223.364 408.376 223.297H408.384L410.438 222.476H410.446C410.622 222.409 410.815 222.493 410.882 222.66C410.957 222.828 410.873 223.02 410.697 223.087Z" fill="#A78BEF"/>
<path d="M406.545 224.696L404.441 225.433C404.265 225.492 404.072 225.4 404.014 225.232C403.955 225.056 404.047 224.864 404.215 224.805H404.223L406.311 224.068H406.319C406.495 224.009 406.688 224.101 406.746 224.269C406.813 224.445 406.721 224.637 406.545 224.696Z" fill="#A78BEF"/>
<path d="M362.425 56.6792L363.607 63.8593L358.234 61.5637L362.425 56.6792Z" fill="#A78BEF"/>
<path d="M329.457 57.8522L351.636 71.6763C352.064 71.9444 352.575 72.0198 353.061 71.9025C353.547 71.7768 353.958 71.4668 354.21 71.0311L367.261 48.2508C367.411 47.991 367.386 47.6643 367.202 47.4297C367.017 47.1951 366.707 47.0946 366.414 47.1784L329.457 57.8522Z" fill="#A78BEF"/>
<path d="M362.424 56.6792L329.457 57.8521L360.328 60.3656L360.739 62.3429L362.424 56.6792Z" fill="#836BDD"/>
<path d="M359.07 62.5357L363.605 63.8594L360.328 60.3657L359.07 62.5357Z" fill="#836BDD"/>
<path d="M420.024 251.372H416.57V288.672H420.024V251.372Z" fill="#7D97F4"/>
<path d="M433.402 289.393H403.176V287.675C403.176 287.382 403.41 287.147 403.704 287.147H432.84C433.15 287.147 433.41 287.399 433.41 287.717V289.393H433.402Z" fill="#7D97F4"/>
<path d="M439.12 249.998C439.12 252.168 437.343 253.936 435.18 253.936H402.682C400.511 253.936 398.734 252.16 398.734 249.998V246.437C398.734 244.267 400.511 242.491 402.682 242.491H435.18C437.351 242.491 439.12 244.267 439.12 246.437V249.998Z" fill="#E527BB"/>
<path d="M399.071 282.062C399.071 282.062 389.213 289.158 390.932 293.933C390.932 293.933 401.711 289.284 403.019 285.622C404.318 281.961 402.801 280.344 402.801 280.344L399.071 282.062Z" fill="#A78BEF"/>
<path d="M400.555 276.113L402.164 280.771C402.407 281.475 402.164 282.271 401.535 282.673C401.217 282.874 400.789 283.059 400.203 283.193C399.373 283.377 398.518 283 398.115 282.246L396.188 278.618L400.555 276.113Z" fill="url(#paint4_linear_1347_6708)"/>
<path d="M416.239 234.205C416.239 234.205 395.996 237.707 387.32 245.725C378.637 253.743 395.292 279.314 395.292 279.314C395.292 279.314 398.016 279.297 401.327 276.465C401.327 276.465 391.453 257.237 399.961 251.624C409.525 245.315 420.547 243.899 420.547 243.899L416.44 234.825L416.239 234.205Z" fill="black"/>
<path d="M392.644 291.294C394.815 290.289 400.951 285.999 401.982 285.807C403.013 285.614 404.806 286.829 404.806 286.829C404.806 286.829 405.242 287.616 404.773 288.982C403.331 290.725 400.138 294.042 395.837 295.282C392.677 296.196 390.465 295.341 389.09 294.352C389.853 293.205 391.202 291.965 392.644 291.294Z" fill="#A78BEF"/>
<path d="M395.846 295.291C400.146 294.051 403.34 290.733 404.782 288.99C404.463 289.912 403.742 291.102 402.183 292.501C398.327 295.961 390.968 297.21 389.4 296.975C388.143 296.782 388.26 295.626 389.09 294.361C390.473 295.35 392.686 296.196 395.846 295.291Z" fill="#836BDD"/>
<path d="M406.651 283.804C406.626 284.399 405.402 286.452 404.689 287.6C404.354 288.144 403.759 288.479 403.114 288.479C402.703 288.479 402.234 288.446 401.814 288.32C401.177 288.136 400.817 287.457 401.001 286.82L402.393 282.062L406.651 283.804Z" fill="url(#paint5_linear_1347_6708)"/>
<path d="M435.718 228.139C435.718 228.139 440.211 240.154 435.718 243.807C431.226 247.46 420.505 251.573 418.107 258.846C415.71 266.118 411.645 280.26 406.205 285.27C406.205 285.27 402.383 284.902 400.949 283.377C400.949 283.377 404.051 262.264 406.087 256.852C407.856 252.16 410.463 245.39 415.459 241.603C416.892 240.522 416.641 238.805 415.978 237.138L414.771 234.105L435.718 228.139Z" fill="black"/>
<path d="M388.836 218.722C396.371 219.175 394.024 207.144 393.89 206.666L405.332 214.743C405.332 214.743 404.728 221.177 395.214 224.554C392.809 225.408 390.613 225.442 388.668 225.031C389.489 222.61 389.322 220.44 388.836 218.722Z" fill="#A78BEF"/>
<path d="M374.269 215.103C377.077 213.151 380.262 215.103 380.262 215.103C384.017 217.558 386.792 218.605 388.846 218.722C389.332 220.44 389.499 222.61 388.67 225.023C384.462 224.118 381.453 221.077 380.145 219.518C379.676 218.957 378.837 218.856 378.267 219.309C377.681 219.77 377.111 220.406 377.22 221.068C377.421 222.384 375.904 222.794 375.786 222.325C375.669 221.847 376.306 219.032 376.306 219.032C376.306 219.032 373.263 222.09 372.073 223.272C370.883 224.445 369.391 223.272 369.391 223.272C369.391 223.272 371.461 217.055 374.269 215.103Z" fill="url(#paint6_linear_1347_6708)"/>
<path d="M423.982 188.075C423.982 188.075 413.018 183.685 392.616 200.525C392.616 200.525 390.914 204.052 392.767 207.185C394.628 210.327 412.339 225.617 414.778 234.096C414.778 234.096 425.331 237.523 436.245 229.396C436.245 229.404 435.281 205.803 423.982 188.075Z" fill="#A78BEF"/>
<path d="M402.308 184.162L407.706 190.705C408.242 191.359 408.359 192.255 407.991 193.018C407.245 194.543 405.468 196.771 401.52 196.461C400.346 196.369 399.307 195.665 398.795 194.601L395.023 186.801L402.308 184.162Z" fill="url(#paint7_linear_1347_6708)"/>
<path d="M432.465 216.092C433.739 210.914 420.848 199.36 420.848 199.36L423.983 188.083C423.983 188.083 451.82 206.607 444.728 221.504C443.714 223.64 442.365 225.132 440.797 226.137C438.551 220.096 434.98 217.332 432.465 216.092Z" fill="#A78BEF"/>
<path d="M432.482 215.329C432.616 215.329 432.742 215.237 432.776 215.095C434.075 209.8 421.594 198.539 421.066 198.062C420.94 197.953 420.747 197.961 420.638 198.087C420.529 198.212 420.538 198.405 420.664 198.514C420.789 198.631 433.404 210.001 432.189 214.944C432.147 215.103 432.248 215.271 432.415 215.312C432.432 215.329 432.457 215.329 432.482 215.329Z" fill="url(#paint8_linear_1347_6708)"/>
<path d="M412.945 215.639C412.945 215.639 428.234 221.571 431.964 217.105C432.215 216.804 432.383 216.46 432.475 216.083C434.981 217.332 438.552 220.096 440.799 226.129C432.76 231.265 419.022 223.272 415.3 220.917C414.688 220.532 413.959 220.398 413.246 220.54C411.813 220.834 409.34 221.278 407.999 221.068C406.046 220.767 403.238 227.654 400.078 225.534C400.07 225.534 402.786 213.561 412.945 215.639Z" fill="url(#paint9_linear_1347_6708)"/>
<path d="M390.564 174.552C390.514 174.762 391.83 189.055 391.83 189.055L399.977 188.125L400.74 174.393C400.74 174.402 391.469 171.033 390.564 174.552Z" fill="url(#paint10_linear_1347_6708)"/>
<path d="M398.618 177.25L398.786 184.514C398.786 184.606 398.778 184.698 398.752 184.791C398.61 185.344 397.981 187.203 396.112 186.449C394.419 185.762 392.86 185.159 391.711 185.377C391.2 185.478 390.84 185.947 390.89 186.466C391.007 187.765 391.334 190.689 392.005 193.186C392.139 193.688 392.642 194.007 393.162 193.914C394.721 193.638 397.981 192.968 400.488 191.82C400.823 191.661 401.058 191.342 401.083 190.965C401.208 189.147 401.594 183.634 401.946 182.11C402.273 180.685 404.142 180.015 404.947 179.789C405.207 179.713 405.433 179.537 405.559 179.294C406.011 178.44 406.732 176.421 404.218 175.29C403.69 175.055 403.472 174.435 403.723 173.916C404.226 172.885 404.57 171.26 402.65 170.137C400.697 168.989 399.046 169.919 398.124 170.715C397.747 171.034 397.21 171.034 396.825 170.724C396.607 170.548 396.305 170.464 395.911 170.656C395.383 170.908 394.746 170.631 394.553 170.078C394.176 169.014 393.287 167.825 391.242 167.95C387.613 168.168 386.774 172.072 387.462 174.485C388.149 176.898 392.072 176.437 394.117 175.482C395.676 174.753 397.462 175.893 398.233 176.479C398.467 176.655 398.61 176.94 398.618 177.25Z" fill="#231F20"/>
<path d="M401.97 184.749C401.97 184.749 400.956 180.484 402.574 179.646C404.191 178.809 406.362 179.571 405.541 182.487C404.527 186.114 401.97 184.749 401.97 184.749Z" fill="url(#paint11_linear_1347_6708)"/>
<path d="M405.114 227.335C405.089 227.335 405.064 227.335 405.039 227.335L372.969 227.302C372.172 227.302 371.535 226.657 371.535 225.869C371.535 225.073 372.181 224.42 372.969 224.436L405.039 224.47C405.835 224.47 406.472 225.115 406.472 225.903C406.472 226.673 405.868 227.302 405.114 227.335Z" fill="#836BDD"/>
<path d="M344.134 198.238H370.84C372.809 198.238 374.603 199.377 375.441 201.153L387.788 227.327H354.595C353.329 227.327 352.181 226.548 351.72 225.375L342.147 201.162C341.594 199.754 342.625 198.238 344.134 198.238Z" fill="#836BDD"/>
<path d="M348.468 296.095C348.292 296.095 348.107 296.062 347.94 295.986C347.252 295.701 346.942 294.931 347.235 294.277L375.5 230.695C375.793 230.033 376.59 229.731 377.269 230.016C377.956 230.301 378.266 231.072 377.973 231.734L349.708 295.316C349.482 295.802 348.987 296.095 348.468 296.095Z" fill="#DAA7EE"/>
<path d="M380.302 296.095C379.782 296.095 379.279 295.802 379.061 295.307L350.797 231.725C350.503 231.063 350.822 230.293 351.501 230.008C352.188 229.723 352.976 230.024 353.269 230.686L381.534 294.269C381.827 294.93 381.509 295.701 380.83 295.978C380.662 296.062 380.486 296.095 380.302 296.095Z" fill="#DAA7EE"/>
<path d="M436.343 296.186C436.167 296.186 435.982 296.153 435.815 296.077C435.127 295.792 434.817 295.022 435.11 294.368L463.375 230.786C463.668 230.124 464.465 229.822 465.144 230.107C465.831 230.392 466.141 231.163 465.848 231.825L437.583 295.407C437.357 295.893 436.862 296.186 436.343 296.186Z" fill="#DAA7EE"/>
<path d="M467.794 296.095C467.274 296.095 466.771 295.802 466.554 295.307L438.289 231.725C437.996 231.063 438.314 230.293 438.993 230.008C439.68 229.723 440.468 230.024 440.762 230.686L469.026 294.269C469.32 294.93 469.001 295.701 468.322 295.978C468.155 296.062 467.979 296.095 467.794 296.095Z" fill="#DAA7EE"/>
<path d="M471.116 228.726C471.191 228.307 471.091 227.88 470.848 227.553C470.604 227.226 470.244 227.033 469.867 227.033H341.285C340.782 227.033 340.321 227.318 340.053 227.787C339.784 228.257 339.751 228.852 339.96 229.354L341.352 232.731C341.67 233.501 342.366 233.996 343.12 233.996H468.987C469.691 233.996 470.303 233.434 470.437 232.655L471.116 228.726Z" fill="#DAA7EE"/>
<path d="M117.65 247.032L61.3809 278.224C59.0171 279.531 58.2795 282.573 59.7631 284.826L60.0062 285.195C61.3222 287.189 64.0129 287.725 65.9911 286.393L119.712 250.392L117.65 247.032Z" fill="#DAA7EE"/>
<path opacity="0.42" d="M172.493 224.939C175.032 240.916 163.893 255.963 147.606 258.544C131.328 261.124 116.072 250.266 113.533 234.289C110.993 218.312 122.133 203.264 138.419 200.684C154.706 198.095 169.953 208.962 172.493 224.939Z" fill="url(#paint12_linear_1347_6708)"/>
<path d="M137.912 197.416C119.798 200.29 107.401 217.03 110.225 234.808C113.05 252.587 130.024 264.668 148.138 261.795C166.252 258.921 178.649 242.181 175.824 224.403C172.999 206.632 156.025 194.543 137.912 197.416ZM147.383 257.078C131.927 259.533 117.451 249.219 115.045 234.054C112.639 218.89 123.209 204.605 138.666 202.15C154.123 199.695 168.599 210.009 171.004 225.173C173.41 240.338 162.832 254.623 147.383 257.078Z" fill="#DAA7EE"/>
<path d="M113.308 238.411C113.215 238.411 113.123 238.352 113.098 238.252C112.88 237.506 112.687 236.735 112.528 235.973C112.503 235.856 112.578 235.738 112.696 235.713C112.813 235.688 112.931 235.763 112.956 235.881C113.115 236.635 113.299 237.389 113.517 238.126C113.551 238.243 113.484 238.369 113.366 238.403C113.35 238.403 113.333 238.411 113.308 238.411ZM112.109 229.371C111.983 229.371 111.883 229.27 111.891 229.145C111.933 227.017 112.21 224.889 112.696 222.811C115.604 210.595 125.621 201.413 138.228 199.41C144.104 198.48 150.072 199.201 155.495 201.505C155.604 201.555 155.663 201.681 155.612 201.798C155.562 201.907 155.436 201.966 155.319 201.915C149.971 199.645 144.087 198.924 138.295 199.846C125.873 201.815 115.99 210.872 113.123 222.911C112.637 224.956 112.369 227.05 112.327 229.153C112.327 229.27 112.226 229.371 112.109 229.371Z" fill="#BDD0FB"/>
<path d="M63.7771 285.882C63.7603 285.882 63.7519 285.882 63.7352 285.882C61.2708 285.446 60.5164 284.156 60.3069 283.151C60.0051 281.684 60.7176 280.16 62.0755 279.364L68.798 275.434C68.907 275.376 69.0411 275.409 69.0998 275.518C69.1584 275.627 69.1249 275.761 69.0243 275.82L62.3018 279.749C61.1032 280.444 60.4745 281.777 60.7428 283.067C61.0026 284.332 62.0336 285.136 63.8106 285.455C63.928 285.48 64.0118 285.589 63.9866 285.714C63.9699 285.807 63.8777 285.882 63.7771 285.882Z" fill="#BDD0FB"/>
<path d="M70.9951 274.63C70.9197 274.63 70.8442 274.588 70.8023 274.521C70.7436 274.412 70.7772 274.278 70.8777 274.22L71.7495 273.708C71.8585 273.65 71.9926 273.683 72.0512 273.792C72.1099 273.901 72.0764 274.035 71.9758 274.094L71.1041 274.605C71.0705 274.622 71.0286 274.63 70.9951 274.63Z" fill="#BDD0FB"/>
</g>
<defs>
<linearGradient id="paint0_linear_1347_6708" x1="173.615" y1="161.762" x2="364.263" y2="161.762" gradientUnits="userSpaceOnUse">
<stop stop-color="#DAE3FE"/>
<stop offset="1" stop-color="#E9EFFD"/>
</linearGradient>
<linearGradient id="paint1_linear_1347_6708" x1="206.996" y1="204.923" x2="330.379" y2="204.923" gradientUnits="userSpaceOnUse">
<stop stop-color="#09005D"/>
<stop offset="1" stop-color="#1A0F91"/>
</linearGradient>
<linearGradient id="paint2_linear_1347_6708" x1="74.7387" y1="222.925" x2="160.026" y2="222.925" gradientUnits="userSpaceOnUse">
<stop stop-color="#DAE3FE"/>
<stop offset="1" stop-color="#E9EFFD"/>
</linearGradient>
<linearGradient id="paint3_linear_1347_6708" x1="127.096" y1="270.142" x2="194.903" y2="270.142" gradientUnits="userSpaceOnUse">
<stop stop-color="#DAE3FE"/>
<stop offset="1" stop-color="#E9EFFD"/>
</linearGradient>
<linearGradient id="paint4_linear_1347_6708" x1="402.259" y1="279.674" x2="396.191" y2="279.674" gradientUnits="userSpaceOnUse">
<stop stop-color="#FF928E"/>
<stop offset="1" stop-color="#FEB3B1"/>
</linearGradient>
<linearGradient id="paint5_linear_1347_6708" x1="406.65" y1="285.272" x2="400.955" y2="285.272" gradientUnits="userSpaceOnUse">
<stop stop-color="#FF928E"/>
<stop offset="1" stop-color="#FEB3B1"/>
</linearGradient>
<linearGradient id="paint6_linear_1347_6708" x1="389.246" y1="219.628" x2="369.379" y2="219.628" gradientUnits="userSpaceOnUse">
<stop stop-color="#FF928E"/>
<stop offset="1" stop-color="#FEB3B1"/>
</linearGradient>
<linearGradient id="paint7_linear_1347_6708" x1="408.202" y1="190.322" x2="395.021" y2="190.322" gradientUnits="userSpaceOnUse">
<stop stop-color="#FF928E"/>
<stop offset="1" stop-color="#FEB3B1"/>
</linearGradient>
<linearGradient id="paint8_linear_1347_6708" x1="436.853" y1="207.246" x2="397.868" y2="205.011" gradientUnits="userSpaceOnUse">
<stop stop-color="#09005D"/>
<stop offset="1" stop-color="#1A0F91"/>
</linearGradient>
<linearGradient id="paint9_linear_1347_6708" x1="445.769" y1="202.195" x2="411.512" y2="231.488" gradientUnits="userSpaceOnUse">
<stop stop-color="#FF928E"/>
<stop offset="1" stop-color="#FEB3B1"/>
</linearGradient>
<linearGradient id="paint10_linear_1347_6708" x1="420.082" y1="171.52" x2="394.601" y2="181.189" gradientUnits="userSpaceOnUse">
<stop stop-color="#FF928E"/>
<stop offset="1" stop-color="#FEB3B1"/>
</linearGradient>
<linearGradient id="paint11_linear_1347_6708" x1="412.722" y1="198.192" x2="403.319" y2="181.763" gradientUnits="userSpaceOnUse">
<stop stop-color="#FF928E"/>
<stop offset="1" stop-color="#FEB3B1"/>
</linearGradient>
<linearGradient id="paint12_linear_1347_6708" x1="113.181" y1="229.612" x2="172.853" y2="229.612" gradientUnits="userSpaceOnUse">
<stop stop-color="#DAE3FE"/>
<stop offset="1" stop-color="#E9EFFD"/>
</linearGradient>
<clipPath id="clip0_1347_6708">
<rect width="415" height="266" fill="white" transform="translate(59 31)"/>
</clipPath>
</defs>
</svg>
