<svg width="37" height="37" viewBox="0 0 37 37" fill="none" xmlns="http://www.w3.org/2000/svg">
<path d="M36.8134 12.2933C36.74 12.2255 36.6502 12.178 36.5528 12.1553C36.4555 12.1327 36.3539 12.1358 36.2581 12.1643L27.0358 14.8887C26.9396 14.917 26.8525 14.9699 26.783 15.0421C26.7134 15.1143 26.6639 15.2034 26.6392 15.3005C26.6145 15.3977 26.6154 15.4996 26.642 15.5962C26.6686 15.6929 26.7198 15.781 26.7907 15.8518L28.3343 17.3954L20.2343 25.4956L15.3409 20.6016C15.0706 20.3329 14.75 20.1202 14.3974 19.9755C14.0448 19.8309 13.6672 19.7572 13.2861 19.7586C12.905 19.7601 12.5279 19.8367 12.1764 19.9841C11.825 20.1314 11.506 20.3467 11.2378 20.6174L0.154349 32.5599C0.102709 32.6156 0.0625358 32.6808 0.0361216 32.752C0.00970752 32.8232 -0.00242985 32.8989 0.000402515 32.9747C0.00612274 33.1279 0.0724707 33.2726 0.184851 33.3769C0.297231 33.4812 0.446437 33.5365 0.599646 33.5308C0.752855 33.5251 0.897516 33.4588 1.00181 33.3464L12.0703 21.4197C12.3959 21.0949 12.8369 20.9125 13.2968 20.9125C13.7566 20.9124 14.1977 21.0947 14.5234 21.4194L19.8256 26.7219C19.9361 26.8263 20.0823 26.8845 20.2344 26.8845C20.3864 26.8845 20.5326 26.8263 20.6431 26.7219L29.5606 17.8041C29.6143 17.7505 29.6568 17.6867 29.6859 17.6166C29.715 17.5465 29.7299 17.4713 29.7299 17.3954C29.7299 17.3195 29.715 17.2443 29.6859 17.1742C29.6568 17.104 29.6143 17.0403 29.5606 16.9866L28.2959 15.722L35.6602 13.5464L34.0255 21.4516L32.8311 20.2572C32.7775 20.2035 32.7137 20.1609 32.6436 20.1319C32.5735 20.1028 32.4983 20.0878 32.4224 20.0878C32.3465 20.0878 32.2713 20.1028 32.2011 20.1319C32.131 20.1609 32.0673 20.2035 32.0136 20.2572L21.4609 30.8097C21.1353 31.1345 20.6942 31.3169 20.2344 31.3169C19.7745 31.317 19.3334 31.1347 19.0078 30.81L13.7056 25.5075C13.6497 25.4516 13.583 25.4078 13.5095 25.3787C13.4361 25.3496 13.3574 25.3359 13.2784 25.3384C13.1995 25.3409 13.1218 25.3596 13.0504 25.3933C12.9789 25.427 12.9151 25.475 12.8629 25.5343L3.61291 36.04C3.56275 36.097 3.52431 36.1633 3.49977 36.2351C3.47524 36.3069 3.4651 36.3829 3.46992 36.4586C3.47966 36.6116 3.54978 36.7545 3.66486 36.8558C3.77993 36.9571 3.93053 37.0085 4.08352 36.9988C4.23652 36.989 4.37938 36.9189 4.48068 36.8038L13.3236 26.7606L18.1903 31.6278C18.7331 32.1687 19.4681 32.4725 20.2344 32.4724C21.0007 32.4724 21.7357 32.1685 22.2784 31.6275L32.4224 21.4835L33.9659 23.027C34.0397 23.1008 34.1321 23.1532 34.2332 23.1788C34.3343 23.2043 34.4405 23.202 34.5404 23.1721C34.6404 23.1422 34.7304 23.0859 34.8009 23.009C34.8714 22.9321 34.9198 22.8376 34.941 22.7354L36.9881 12.8359C37.0082 12.738 37.0027 12.6367 36.9721 12.5416C36.9415 12.4465 36.8868 12.361 36.8134 12.2933Z" fill="#DAA7EE"/>
<path d="M9.82813 32.3751C9.6748 32.3751 9.52775 32.436 9.41933 32.5445C9.31091 32.6529 9.25 32.7999 9.25 32.9532V36.422C9.25 36.5753 9.31091 36.7224 9.41933 36.8308C9.52775 36.9392 9.6748 37.0001 9.82813 37.0001C9.98145 37.0001 10.1285 36.9392 10.2369 36.8308C10.3453 36.7224 10.4063 36.5753 10.4063 36.422V32.9532C10.4063 32.7999 10.3453 32.6529 10.2369 32.5445C10.1285 32.436 9.98145 32.3751 9.82813 32.3751Z" fill="#DAA7EE"/>
<path d="M2.89063 28.3281C3.04395 28.3281 3.191 28.2672 3.29942 28.1588C3.40784 28.0504 3.46875 27.9033 3.46875 27.75V19.6563H9.25002V20.2344C9.25002 20.3877 9.31093 20.5348 9.41934 20.6432C9.52776 20.7516 9.67481 20.8125 9.82814 20.8125C9.98147 20.8125 10.1285 20.7516 10.2369 20.6432C10.3454 20.5348 10.4063 20.3877 10.4063 20.2344V19.0781C10.4063 18.9248 10.3454 18.7777 10.2369 18.6693C10.1285 18.5609 9.98147 18.5 9.82814 18.5H2.89063C2.7373 18.5 2.59025 18.5609 2.48183 18.6693C2.37341 18.7777 2.3125 18.9248 2.3125 19.0781V27.75C2.3125 27.9033 2.37341 28.0504 2.48183 28.1588C2.59025 28.2672 2.7373 28.3281 2.89063 28.3281Z" fill="#DAA7EE"/>
<path d="M27.1719 27.75C27.0185 27.75 26.8715 27.8109 26.7631 27.9193C26.6547 28.0277 26.5938 28.1748 26.5938 28.3281V36.4219C26.5938 36.5752 26.6547 36.7223 26.7631 36.8307C26.8715 36.9391 27.0185 37 27.1719 37C27.3252 37 27.4723 36.9391 27.5807 36.8307C27.6891 36.7223 27.75 36.5752 27.75 36.4219V28.3281C27.75 28.1748 27.6891 28.0277 27.5807 27.9193C27.4723 27.8109 27.3252 27.75 27.1719 27.75Z" fill="#DAA7EE"/>
<path d="M27.1719 13.875C27.3252 13.875 27.4723 13.8141 27.5807 13.7057C27.6891 13.5973 27.75 13.4502 27.75 13.2969V1.15625H33.5313V10.9844C33.5313 11.1377 33.5922 11.2848 33.7006 11.3932C33.809 11.5016 33.9561 11.5625 34.1094 11.5625C34.2627 11.5625 34.4098 11.5016 34.5182 11.3932C34.6266 11.2848 34.6875 11.1377 34.6875 10.9844V0.578126C34.6875 0.424798 34.6266 0.277749 34.5182 0.169329C34.4098 0.0609096 34.2627 0 34.1094 0L27.1719 0C27.0185 0 26.8715 0.0609096 26.7631 0.169329C26.6547 0.277749 26.5938 0.424798 26.5938 0.578126V13.2969C26.5938 13.4502 26.6547 13.5973 26.7631 13.7057C26.8715 13.8141 27.0185 13.875 27.1719 13.875Z" fill="#DAA7EE"/>
<path d="M34.1094 24.2812C33.956 24.2812 33.809 24.3422 33.7006 24.4506C33.5922 24.559 33.5312 24.706 33.5312 24.8594V36.4219C33.5312 36.5752 33.5922 36.7223 33.7006 36.8307C33.809 36.9391 33.956 37 34.1094 37C34.2627 37 34.4098 36.9391 34.5182 36.8307C34.6266 36.7223 34.6875 36.5752 34.6875 36.4219V24.8594C34.6875 24.706 34.6266 24.559 34.5182 24.4506C34.4098 24.3422 34.2627 24.2812 34.1094 24.2812Z" fill="#DAA7EE"/>
<path d="M21.9688 32.9532C21.8154 32.9532 21.6684 33.0142 21.56 33.1226C21.4515 33.231 21.3906 33.378 21.3906 33.5314V36.422C21.3906 36.5753 21.4515 36.7224 21.56 36.8308C21.6684 36.9392 21.8154 37.0001 21.9688 37.0001C22.1221 37.0001 22.2691 36.9392 22.3775 36.8308C22.486 36.7224 22.5469 36.5753 22.5469 36.422V33.5314C22.5469 33.378 22.486 33.231 22.3775 33.1226C22.2691 33.0142 22.1221 32.9532 21.9688 32.9532Z" fill="#DAA7EE"/>
<path d="M15.0313 19.0781C15.1846 19.0781 15.3316 19.0172 15.44 18.9088C15.5485 18.8004 15.6094 18.6533 15.6094 18.5V12.7188H21.3906V21.9688C21.3906 22.1221 21.4516 22.2692 21.56 22.3776C21.6684 22.486 21.8154 22.5469 21.9688 22.5469C22.1221 22.5469 22.2691 22.486 22.3776 22.3776C22.486 22.2692 22.5469 22.1221 22.5469 21.9688V12.1406C22.5469 11.9873 22.486 11.8402 22.3776 11.7318C22.2691 11.6234 22.1221 11.5625 21.9688 11.5625H15.0313C14.8779 11.5625 14.7309 11.6234 14.6225 11.7318C14.514 11.8402 14.4531 11.9873 14.4531 12.1406V18.5C14.4531 18.6533 14.514 18.8004 14.6225 18.9088C14.7309 19.0172 14.8779 19.0781 15.0313 19.0781Z" fill="#DAA7EE"/>
<path d="M15.0313 29.4845C14.8779 29.4845 14.7309 29.5454 14.6225 29.6538C14.514 29.7622 14.4531 29.9093 14.4531 30.0626V36.422C14.4531 36.5753 14.514 36.7224 14.6225 36.8308C14.7309 36.9392 14.8779 37.0001 15.0313 37.0001C15.1846 37.0001 15.3316 36.9392 15.44 36.8308C15.5485 36.7224 15.6094 36.5753 15.6094 36.422V30.0626C15.6094 29.9093 15.5485 29.7622 15.44 29.6538C15.3316 29.5454 15.1846 29.4845 15.0313 29.4845Z" fill="#DAA7EE"/>
</svg>
