<svg width="21" height="21" viewBox="0 0 21 21" fill="none" xmlns="http://www.w3.org/2000/svg">
<path d="M18.251 7.85645C18.5746 7.85646 18.8368 8.11874 18.8369 8.44238V18.877H19.4619L19.5801 18.8887C19.8471 18.9434 20.0479 19.1797 20.0479 19.4629C20.0477 19.746 19.847 19.9824 19.5801 20.0371L19.4619 20.0488H0.625977C0.302529 20.0486 0.0401673 19.7864 0.0400391 19.4629C0.0400391 19.1393 0.30245 18.8772 0.625977 18.877H1.25195V15.4766C1.25201 15.153 1.51437 14.8908 1.83789 14.8906H4.18262C4.50631 14.8906 4.7685 15.1529 4.76855 15.4766V18.877H5.94141V13.9131C5.94164 13.5897 6.20391 13.3273 6.52734 13.3271H8.87207C9.19565 13.3272 9.45777 13.5896 9.45801 13.9131V18.877H10.6309V11.5684C10.6311 11.2449 10.8934 10.9826 11.2168 10.9824H13.5615C13.8851 10.9824 14.1472 11.2448 14.1475 11.5684V18.877H15.3203V8.44238C15.3204 8.11881 15.5827 7.85658 15.9062 7.85645H18.251ZM2.42383 18.876H3.59668V16.0625H2.42383V18.876ZM7.11328 18.876H8.28613V14.499H7.11328V18.876ZM11.8027 18.876H12.9756V12.1543H11.8027V18.876ZM16.4922 18.876H17.665V9.02832H16.4922V18.876ZM13.5615 5.51172C13.5991 5.51173 13.6368 5.51524 13.6738 5.52246C13.7397 5.53524 13.8005 5.56095 13.8564 5.59375C13.8661 5.59941 13.8764 5.60409 13.8857 5.61035C14.0433 5.71531 14.1474 5.89409 14.1475 6.09766V8.05176C14.1474 8.37535 13.8851 8.6376 13.5615 8.6377C13.2379 8.63768 12.9757 8.3754 12.9756 8.05176V7.51172L12.3301 8.1582C10.0216 10.4667 6.88967 11.7636 3.625 11.7637H1.44727C1.12353 11.7637 0.861328 11.5015 0.861328 11.1777C0.861493 10.8541 1.12363 10.5918 1.44727 10.5918H3.625C6.57871 10.5917 9.41237 9.41866 11.501 7.33008L12.1475 6.68359H11.6074C11.2837 6.68358 11.0215 6.42138 11.0215 6.09766C11.0216 5.77402 11.2838 5.51173 11.6074 5.51172H13.5615ZM4.53516 0C7.03924 0.00040368 9.06934 2.03097 9.06934 4.53516C9.0691 7.03914 7.0391 9.06893 4.53516 9.06934C2.03087 9.06934 0.000234633 7.03939 0 4.53516C0 2.03072 2.03072 0 4.53516 0ZM4.53516 1.25391C2.72311 1.25391 1.25391 2.72311 1.25391 4.53516C1.25414 6.347 2.72326 7.81543 4.53516 7.81543C6.34671 7.81503 7.8152 6.34675 7.81543 4.53516C7.81543 2.72336 6.34686 1.25431 4.53516 1.25391ZM4.53516 2.38574C4.85852 2.38618 5.12109 2.64822 5.12109 2.97168V4.53516C5.12086 4.85842 4.85837 5.12065 4.53516 5.12109H2.97168C2.64809 5.12109 2.38598 4.85869 2.38574 4.53516C2.38574 4.21142 2.64794 3.94824 2.97168 3.94824H3.94824V2.97168C3.94824 2.64794 4.21142 2.38574 4.53516 2.38574Z" fill="url(#paint0_linear_1392_2417)"/>
<defs>
<linearGradient id="paint0_linear_1392_2417" x1="10.0239" y1="0" x2="10" y2="23.5" gradientUnits="userSpaceOnUse">
<stop stop-color="#E527BB"/>
<stop offset="1" stop-color="#A78BEF"/>
</linearGradient>
</defs>
</svg>
