<svg width="543" height="329" viewBox="0 0 543 329" fill="none" xmlns="http://www.w3.org/2000/svg">
<g clip-path="url(#clip0_1347_6576)">
<path opacity="0.2" d="M127.492 328.58L412.142 311.93C487.412 307.53 545.652 243.73 542.512 168.39C539.872 105.08 517.192 37.64 440.912 8.81999C387.262 -11.45 317.592 5.13999 273.402 38.85C262.782 46.95 253.022 56.24 241.612 63.17C215.022 79.32 191.672 68.17 163.972 63.88C105.412 54.79 46.9621 73.46 16.7021 127.43C-29.7579 210.35 25.0421 334.57 127.492 328.58Z" fill="#999999"/>
<g clip-path="url(#clip1_1347_6576)">
<path d="M227.247 146.594C224.348 151.006 222.4 155.844 221.366 160.847L213.406 161.595V177.003L221.366 177.75C222.4 182.745 224.348 187.591 227.247 192.004L222.16 198.143L233.055 209.036L239.195 203.959C243.609 206.858 248.447 208.805 253.443 209.839L254.191 217.797H269.601L270.349 209.839C275.345 208.805 280.192 206.858 284.606 203.959L290.746 209.036L301.642 198.143L296.563 192.004C299.463 187.591 301.411 182.754 302.445 177.76L310.404 177.012V161.604L302.445 160.857C301.411 155.862 299.463 151.016 296.563 146.612L301.642 140.473L290.746 129.58L284.606 134.657C280.192 131.759 275.354 129.811 270.359 128.777L269.611 120.819H254.2L253.452 128.777C248.457 129.811 243.609 131.759 239.205 134.657L233.064 129.571L222.169 140.464L227.247 146.594ZM276.665 154.542C284.809 162.684 284.809 175.895 276.665 184.046C268.512 192.198 255.308 192.189 247.155 184.046C239.011 175.904 239.011 162.694 247.155 154.542C255.308 146.4 268.512 146.4 276.665 154.542Z" fill="#E527BB"/>
<path d="M180.333 81.9634C179.52 83.2004 178.966 84.5667 178.68 85.9699L176.445 86.1822V90.521L178.68 90.7334C178.975 92.1366 179.52 93.5028 180.333 94.7399L178.901 96.4662L181.967 99.5311L183.694 98.1002C184.931 98.9126 186.297 99.4665 187.701 99.7526L187.913 101.987H192.253L192.465 99.7526C193.869 99.4572 195.236 98.9126 196.473 98.1002L198.199 99.5311L201.265 96.4662L199.834 94.7399C200.646 93.5028 201.2 92.1366 201.487 90.7334L203.721 90.521V86.1822L201.487 85.9699C201.191 84.5667 200.646 83.2004 199.834 81.9634L201.265 80.237L198.199 77.1722L196.473 78.6031C195.236 77.7907 193.869 77.2368 192.465 76.9506L192.253 74.7166H187.913L187.701 76.9506C186.297 77.246 184.931 77.7907 183.694 78.6031L181.967 77.1722L178.901 80.237L180.333 81.9634ZM194.229 84.1974C196.519 86.4868 196.519 90.2072 194.229 92.4966C191.939 94.786 188.218 94.786 185.928 92.4966C183.638 90.2072 183.638 86.4868 185.928 84.1974C188.218 81.908 191.939 81.908 194.229 84.1974Z" fill="#A78BEF"/>
<path d="M144.287 209.636L118.193 214.769C116.438 215.111 114.73 213.975 114.388 212.212L107.436 176.883C107.094 175.129 108.23 173.421 109.993 173.079L136.087 167.947C137.842 167.605 139.55 168.741 139.891 170.504L146.844 205.833C147.195 207.587 146.05 209.295 144.287 209.636Z" fill="#A78BEF"/>
<path d="M134.493 180.566L116.257 184.157C115.648 184.277 115.057 183.88 114.937 183.271L114.826 182.717C114.706 182.108 115.103 181.517 115.713 181.397L133.949 177.806C134.558 177.686 135.149 178.083 135.269 178.692L135.38 179.246C135.5 179.855 135.103 180.446 134.493 180.566Z" fill="#F0F0F0"/>
<path d="M135.884 187.647L117.648 191.238C117.038 191.358 116.448 190.961 116.328 190.352L116.217 189.798C116.097 189.189 116.494 188.598 117.103 188.478L135.339 184.887C135.949 184.767 136.54 185.164 136.66 185.773L136.77 186.327C136.891 186.936 136.493 187.527 135.884 187.647Z" fill="#F0F0F0"/>
<path d="M137.275 194.737L119.039 198.328C118.429 198.448 117.838 198.051 117.718 197.442L117.607 196.888C117.487 196.278 117.884 195.688 118.494 195.568L136.73 191.976C137.339 191.856 137.93 192.253 138.05 192.863L138.161 193.417C138.281 194.017 137.884 194.617 137.275 194.737Z" fill="#F0F0F0"/>
<path d="M128.996 203.719L120.437 205.399C119.828 205.519 119.237 205.122 119.117 204.513L119.006 203.959C118.886 203.35 119.283 202.759 119.892 202.639L128.452 200.959C129.061 200.839 129.652 201.236 129.772 201.845L129.883 202.399C130.003 203.008 129.606 203.599 128.996 203.719Z" fill="#F0F0F0"/>
<path d="M464.627 171.916L445.486 164.651C443.815 164.014 442.965 162.14 443.602 160.469L453.584 134.15C454.221 132.479 456.095 131.63 457.767 132.266L476.908 139.532C478.579 140.169 479.428 142.043 478.791 143.714L468.81 170.033C468.173 171.713 466.298 172.553 464.627 171.916Z" fill="#E527BB"/>
<path d="M470.928 147.794L456.773 142.421C456.302 142.246 456.062 141.71 456.237 141.24L456.403 140.806C456.579 140.335 457.114 140.095 457.585 140.27L471.749 145.643C472.22 145.818 472.46 146.354 472.285 146.825L472.119 147.259C471.934 147.739 471.408 147.979 470.928 147.794Z" fill="#F0F0F0"/>
<path d="M468.835 153.296L454.671 147.923C454.2 147.748 453.96 147.212 454.136 146.742L454.302 146.308C454.486 145.837 455.013 145.597 455.484 145.772L469.639 151.145C470.11 151.32 470.35 151.856 470.174 152.327L470.008 152.761C469.842 153.241 469.306 153.481 468.835 153.296Z" fill="#F0F0F0"/>
<path d="M466.748 158.798L452.593 153.425C452.122 153.25 451.882 152.715 452.057 152.244L452.224 151.81C452.399 151.339 452.935 151.099 453.406 151.274L467.56 156.647C468.031 156.823 468.271 157.358 468.096 157.829L467.93 158.263C467.754 158.743 467.219 158.983 466.748 158.798Z" fill="#F0F0F0"/>
<path d="M457.155 161.448L450.507 158.927C450.036 158.752 449.796 158.217 449.971 157.746L450.138 157.312C450.322 156.841 450.849 156.601 451.32 156.776L457.968 159.297C458.439 159.472 458.679 160.007 458.503 160.478L458.337 160.912C458.152 161.392 457.626 161.632 457.155 161.448Z" fill="#F0F0F0"/>
<path d="M295.777 79.914H290.043C289.24 79.914 288.594 79.2677 288.594 78.4646V71.1439C288.594 70.3408 289.24 69.6946 290.043 69.6946H295.777C296.581 69.6946 297.227 70.3408 297.227 71.1439V78.4646C297.227 79.2677 296.581 79.914 295.777 79.914Z" fill="#E527BB"/>
<path d="M308.77 79.9141H303.036C302.232 79.9141 301.586 79.2679 301.586 78.4648V63.1957C301.586 62.3925 302.232 61.7463 303.036 61.7463H308.77C309.573 61.7463 310.219 62.3925 310.219 63.1957V78.4648C310.229 79.2679 309.573 79.9141 308.77 79.9141Z" fill="#E527BB"/>
<path d="M322.754 80.1448H317.02C316.217 80.1448 315.57 79.4986 315.57 78.6954V55.3395C315.57 54.5363 316.217 53.8901 317.02 53.8901H322.754C323.557 53.8901 324.204 54.5363 324.204 55.3395V78.6862C324.213 79.4894 323.557 80.1448 322.754 80.1448Z" fill="#E527BB"/>
<path d="M399.161 224.047C398.423 225.173 397.924 226.41 397.656 227.684L395.625 227.878V231.82L397.656 232.014C397.924 233.288 398.423 234.525 399.161 235.651L397.86 237.22L400.648 240.008L402.218 238.707C403.344 239.445 404.582 239.944 405.856 240.211L406.05 242.242H409.992L410.186 240.211C411.46 239.944 412.698 239.445 413.824 238.707L415.394 240.008L418.182 237.22L416.881 235.651C417.619 234.525 418.118 233.288 418.386 232.014L420.417 231.82V227.878L418.386 227.684C418.118 226.41 417.619 225.173 416.881 224.047L418.182 222.478L415.394 219.69L413.824 220.991C412.698 220.253 411.46 219.754 410.186 219.487L409.992 217.456H406.05L405.856 219.487C404.582 219.754 403.344 220.253 402.218 220.991L400.648 219.69L397.86 222.478L399.161 224.047ZM411.784 226.078C413.861 228.155 413.861 231.534 411.784 233.62C409.697 235.706 406.327 235.697 404.24 233.62C402.153 231.534 402.162 228.164 404.24 226.078C406.327 224.001 409.706 224.001 411.784 226.078Z" fill="#E527BB"/>
<path d="M396.25 178.581C394.865 180.695 393.923 183.022 393.424 185.422L389.602 185.782V193.177L393.424 193.537C393.923 195.937 394.855 198.254 396.25 200.377L393.812 203.322L399.038 208.547L401.984 206.11C404.098 207.495 406.425 208.436 408.816 208.935L409.177 212.757H416.573L416.933 208.944C419.333 208.446 421.651 207.513 423.775 206.119L426.72 208.556L431.946 203.331L429.509 200.386C430.894 198.272 431.836 195.946 432.334 193.555L436.148 193.195V185.8L432.325 185.44C431.826 183.04 430.894 180.723 429.5 178.609L431.937 175.664L426.711 170.439L423.766 172.876C421.651 171.491 419.324 170.55 416.933 170.051L416.573 166.229H409.177L408.816 170.051C406.416 170.55 404.098 171.482 401.984 172.876L399.038 170.439L393.812 175.664L396.25 178.581ZM419.952 182.394C423.858 186.299 423.858 192.641 419.952 196.546C416.046 200.451 409.703 200.451 405.797 196.546C401.891 192.641 401.891 186.299 405.797 182.394C409.712 178.489 416.046 178.489 419.952 182.394Z" fill="#E527BB"/>
<path d="M132.689 75.4735C131.48 77.3198 130.658 79.3508 130.224 81.4464L126.891 81.7602V88.2224L130.224 88.5362C130.658 90.6318 131.47 92.6628 132.689 94.5091L130.556 97.0847L135.127 101.654L137.703 99.5218C139.55 100.731 141.581 101.553 143.677 101.987L143.991 105.319H150.455L150.768 101.987C152.864 101.553 154.896 100.731 156.743 99.5218L159.319 101.654L163.889 97.0847L161.756 94.5091C162.966 92.6628 163.788 90.6318 164.222 88.5362L167.555 88.2224V81.7602L164.222 81.4464C163.788 79.3508 162.966 77.3198 161.756 75.4735L163.889 72.8979L159.319 68.3283L156.743 70.4608C154.896 69.2514 152.864 68.4298 150.768 67.9959L150.455 64.6633H143.991L143.677 67.9959C141.581 68.4298 139.55 69.2422 137.703 70.4608L135.127 68.3283L130.556 72.8979L132.689 75.4735ZM153.4 78.8061C156.816 82.2218 156.816 87.7608 153.4 91.1672C149.984 94.5829 144.444 94.5829 141.036 91.1672C137.62 87.7515 137.62 82.2218 141.036 78.8061C144.444 75.3904 149.984 75.3904 153.4 78.8061Z" fill="#A78BEF"/>
<path d="M368.979 293.875H359.469V294.152H368.979V293.875Z" fill="#ECECEC"/>
<path d="M111.257 282.594H64V282.871H111.257V282.594Z" fill="#ECECEC"/>
<path d="M127.925 282.594H121V282.871H127.925V282.594Z" fill="#ECECEC"/>
<path d="M252.937 287.209H150.445V287.486H252.937V287.209Z" fill="#ECECEC"/>
<path d="M153.849 152.151H87.6906C85.6038 152.151 83.9141 150.462 83.9141 148.375V112.197C83.9141 110.111 85.6038 108.421 87.6906 108.421H153.849C155.935 108.421 157.625 110.111 157.625 112.197V148.375C157.625 150.462 155.935 152.151 153.849 152.151Z" fill="#007CFF"/>
<path d="M153.849 152.151H87.6906C85.6038 152.151 83.9141 150.462 83.9141 148.375V112.197C83.9141 110.111 85.6038 108.421 87.6906 108.421H153.849C155.935 108.421 157.625 110.111 157.625 112.197V148.375C157.625 150.462 155.935 152.151 153.849 152.151Z" fill="#F0F0F0"/>
<path d="M94.9922 132.709C95.3154 132.423 103.939 123.902 103.939 123.902L112.453 128.094L120.772 118.308L129.285 130.568L137.586 125.149" stroke="#1A2E35" stroke-width="0.5" stroke-miterlimit="10"/>
<path d="M97.6607 136.541H93.6719V145.375H97.6607V136.541Z" fill="#E527BB"/>
<path d="M105.872 130.706H101.883V145.385H105.872V130.706Z" fill="#007CFF"/>
<path d="M114.247 132.183H110.258V145.385H114.247V132.183Z" fill="#E527BB"/>
<path d="M122.762 123.903H118.773V145.385H122.762V123.903Z" fill="#007CFF"/>
<path d="M131.372 135.294H127.383V145.385H131.372V135.294Z" fill="#E527BB"/>
<path d="M97.8078 131.713C97.8078 132.894 96.8475 133.854 95.6656 133.854C94.4837 133.854 93.5234 132.894 93.5234 131.713C93.5234 130.531 94.4837 129.571 95.6656 129.571C96.8475 129.571 97.8078 130.522 97.8078 131.713Z" fill="#E527BB"/>
<path d="M106.019 123.902C106.019 125.084 105.058 126.044 103.877 126.044C102.695 126.044 101.734 125.084 101.734 123.902C101.734 122.721 102.695 121.761 103.877 121.761C105.058 121.761 106.019 122.721 106.019 123.902Z" fill="#E527BB"/>
<path d="M114.597 127.42C114.597 128.601 113.637 129.562 112.455 129.562C111.273 129.562 110.312 128.601 110.312 127.42C110.312 126.238 111.273 125.278 112.455 125.278C113.637 125.278 114.597 126.238 114.597 127.42Z" fill="#E527BB"/>
<path d="M122.917 118.308C122.917 119.49 121.957 120.45 120.775 120.45C119.593 120.45 118.633 119.49 118.633 118.308C118.633 117.127 119.593 116.167 120.775 116.167C121.957 116.167 122.917 117.127 122.917 118.308Z" fill="#E527BB"/>
<path d="M131.417 130.568C131.417 131.749 130.457 132.709 129.275 132.709C128.093 132.709 127.133 131.749 127.133 130.568C127.133 129.386 128.093 128.426 129.275 128.426C130.457 128.426 131.417 129.386 131.417 130.568Z" fill="#E527BB"/>
<path d="M139.903 130.235H135.914V145.384H139.903V130.235Z" fill="#007CFF"/>
<path d="M105.872 130.706H101.883V145.385H105.872V130.706Z" fill="#E527BB"/>
<path d="M122.762 123.903H118.773V145.385H122.762V123.903Z" fill="#E527BB"/>
<path d="M139.903 130.235H135.914V145.384H139.903V130.235Z" fill="#E527BB"/>
<path d="M148.723 135.294H144.734V145.385H148.723V135.294Z" fill="#E527BB"/>
<path d="M137.578 125.149L146.738 130.235" stroke="#1A2E35" stroke-width="0.5" stroke-miterlimit="10"/>
<path d="M140.198 125.149C140.198 126.33 139.238 127.291 138.056 127.291C136.874 127.291 135.914 126.33 135.914 125.149C135.914 123.967 136.874 123.007 138.056 123.007C139.238 123.007 140.198 123.967 140.198 125.149Z" fill="#E527BB"/>
<path d="M146.736 132.377C147.919 132.377 148.878 131.418 148.878 130.235C148.878 129.053 147.919 128.094 146.736 128.094C145.553 128.094 144.594 129.053 144.594 130.235C144.594 131.418 145.553 132.377 146.736 132.377Z" fill="#E527BB"/>
<path d="M390.519 147.618L397.814 181.942C398.146 183.502 396.53 184.766 395.099 184.056L369.633 171.528C368.525 170.984 368.211 169.534 369.005 168.583L387.177 146.788C388.192 145.569 390.187 146.058 390.519 147.618Z" fill="#007CFF"/>
<path d="M390.519 147.618L397.814 181.942C398.146 183.502 396.53 184.766 395.099 184.056L369.633 171.528C368.525 170.984 368.211 169.534 369.005 168.583L387.177 146.788C388.192 145.569 390.187 146.058 390.519 147.618Z" fill="#A78BEF"/>
<path d="M392.108 176.163L389.283 156.545C401.415 154.801 411.886 147.194 417.269 136.208C426.263 117.884 418.664 95.6723 400.344 86.6807C382.016 77.6891 359.8 85.2867 350.807 103.602C346.919 111.532 345.987 120.598 348.194 129.137L328.997 134.094C325.608 120.976 327.03 107.046 333.004 94.8691C346.808 66.7405 380.926 55.081 409.07 68.8822C437.205 82.6834 448.866 116.794 435.062 144.932C426.789 161.807 410.732 173.476 392.108 176.163Z" fill="#A78BEF"/>
<path d="M392.692 138.855C404.908 135.429 412.033 122.751 408.606 110.538C405.179 98.3248 392.498 91.2016 380.282 94.6278C368.067 98.0541 360.942 110.732 364.369 122.945C367.796 135.158 380.477 142.282 392.692 138.855Z" fill="#007CFF"/>
<path d="M392.692 138.855C404.908 135.429 412.033 122.751 408.606 110.538C405.179 98.3248 392.498 91.2016 380.282 94.6278C368.067 98.0541 360.942 110.732 364.369 122.945C367.796 135.158 380.477 142.282 392.692 138.855Z" fill="#A78BEF"/>
<path d="M399.61 133.447C409.538 125.548 411.182 111.098 403.281 101.172C395.381 91.2462 380.928 89.603 371 97.5019C361.072 105.401 359.428 119.851 367.329 129.777C375.229 139.703 389.682 141.346 399.61 133.447Z" fill="#A78BEF"/>
<path d="M401.663 125.29C407.076 116.248 404.134 104.53 395.09 99.1172C386.046 93.7046 374.325 96.6469 368.912 105.689C363.498 114.731 366.441 126.449 375.485 131.861C384.529 137.274 396.249 134.332 401.663 125.29Z" fill="white"/>
<path d="M376.13 129.026L378.67 125.269C378.743 125.315 378.817 125.37 378.891 125.416L376.444 129.229C376.343 129.174 376.241 129.1 376.13 129.026ZM371.07 123.552C371.006 123.441 370.95 123.33 370.886 123.219L374.884 121.087C374.93 121.17 374.967 121.244 375.013 121.318L371.07 123.552ZM383.471 131.74L383.97 127.235L384.247 127.263L383.831 131.777C383.72 131.758 383.6 131.749 383.471 131.74ZM368.947 116.028C368.947 115.899 368.938 115.779 368.938 115.649L373.471 115.603L373.48 115.88L368.947 116.028ZM391.227 130.715L389.574 126.496L389.833 126.395L391.643 130.549L391.532 130.595C391.458 130.632 391.347 130.678 391.227 130.715ZM370.572 108.375C370.627 108.264 370.683 108.144 370.738 108.033L374.773 110.092C374.736 110.175 374.69 110.249 374.653 110.332L370.572 108.375ZM394.237 123.21C394.293 123.145 394.348 123.081 394.404 123.016L397.903 125.896C397.82 125.998 397.737 126.1 397.654 126.192L394.237 123.21ZM378.254 105.993L375.567 102.347L375.863 102.134L378.485 105.827L378.254 105.993ZM396.804 118.179L396.869 117.911L401.301 118.862C401.273 118.982 401.246 119.102 401.218 119.222L396.804 118.179ZM383.48 103.814L382.779 99.3371C382.899 99.3187 383.019 99.3002 383.139 99.2817L383.757 103.768L383.48 103.814ZM396.74 112.529C396.721 112.446 396.693 112.363 396.675 112.271L401.024 111.034C401.061 111.154 401.089 111.283 401.125 111.403L396.74 112.529ZM389.113 104.304L390.572 100.011C390.692 100.057 390.812 100.094 390.941 100.14L389.353 104.387C389.279 104.359 389.196 104.331 389.113 104.304ZM394.053 107.553L393.868 107.35L397.155 104.23C397.238 104.322 397.331 104.415 397.414 104.507L394.053 107.553Z" fill="black"/>
<path d="M380.492 108.394L385.054 116.231L392.422 109.058" stroke="black" stroke-miterlimit="10" stroke-linecap="round" stroke-linejoin="round"/>
<path d="M386.387 116.582C385.869 117.173 384.965 117.228 384.374 116.711C383.783 116.194 383.727 115.29 384.244 114.699C384.761 114.108 385.666 114.053 386.257 114.57C386.839 115.096 386.904 115.991 386.387 116.582Z" fill="black"/>
<path opacity="0.3" d="M372.557 103.205C380.119 95.8661 392.206 96.0415 399.547 103.602C401.347 105.458 402.695 107.59 403.591 109.861C402.742 107.018 401.227 104.332 399.02 102.061C391.68 94.4999 379.593 94.3152 372.031 101.664C366.325 107.203 364.829 115.437 367.58 122.389C365.604 115.788 367.266 108.338 372.557 103.205Z" fill="black"/>
<path d="M193.784 251.815C177.201 233.435 168.078 209.664 168.078 184.896C168.078 139.513 198.706 99.7526 242.556 88.2131L235.187 97.4632L248.096 109.261C213.802 118.29 189.851 149.391 189.851 184.896C189.851 204.273 196.988 222.865 209.961 237.239L193.784 251.815Z" fill="#A78BEF"/>
<path d="M195.939 253.062C196.742 252.859 223.399 253.062 223.399 253.062L209.965 237.239L193.797 251.815L195.939 253.062Z" fill="#A78BEF"/>
<path d="M392.695 288.483V253.394C392.695 251.797 394.542 250.902 395.798 251.889L418.106 269.439C419.085 270.205 419.085 271.682 418.106 272.448L395.798 289.997C394.542 290.976 392.695 290.08 392.695 288.483Z" fill="#007CFF"/>
<path d="M396.317 260.502H272.32V281.366H396.317V260.502Z" fill="#007CFF"/>
<path d="M417.904 269.429L395.596 251.88C394.34 250.892 392.493 251.788 392.493 253.385V260.502H267.047V281.366H392.503V288.483C392.503 290.08 394.349 290.976 395.605 289.988L417.913 272.439C418.883 271.673 418.883 270.196 417.904 269.429Z" fill="#E527BB"/>
<path d="M267.018 84.9822V106.363C309.391 106.363 343.859 140.824 343.859 183.188C343.859 225.552 309.391 260.013 267.018 260.013H129.734V281.394H267.009C321.173 281.394 365.235 237.34 365.235 183.188C365.244 129.045 321.182 84.9822 267.018 84.9822Z" fill="#E527BB"/>
<path d="M271.174 78.2061L271.1 113.295C271.1 114.892 269.253 115.788 267.997 114.791L245.726 97.2047C244.756 96.4385 244.756 94.9615 245.735 94.1952L268.08 76.6921C269.336 75.7044 271.174 76.5998 271.174 78.2061Z" fill="#E527BB"/>
<path opacity="0.3" d="M271.157 260.632C271.582 260.632 262.441 266.42 256.273 266.364L255.691 281.975H251.601L243.789 261.112L271.157 260.632Z" fill="black"/>
<path d="M263.618 152.622C266.48 157.145 267.533 159.887 267.985 164.327C268.511 169.525 268.484 174.131 267.385 175.525C265.944 177.344 249.527 179.753 240.275 179.809C239.943 179.809 239.527 176.892 239.527 176.892C239.527 176.892 238.345 179.818 237.911 179.818C235.381 179.818 233.766 179.8 233.766 179.8C233.766 179.8 235.658 175.405 237.496 159.767C238.392 152.133 245.88 148.754 250.349 147.978C257.782 146.677 263.618 152.622 263.618 152.622Z" fill="#1A2E35"/>
<path d="M242.32 168.279C239.707 164.208 236.789 153.056 246.697 149.114C259.07 144.193 265.081 151.948 266.53 159.85C267.98 167.743 263.779 173.965 255.441 173.744C247.094 173.522 244.121 171.094 242.32 168.279Z" fill="#1A2E35"/>
<path d="M263.013 183.28C263.013 183.28 260.224 185.422 256.642 188.505C255.894 189.151 255.072 189.705 254.204 190.167C251.859 191.413 249.717 192.124 249.135 190.998C249.006 190.748 248.904 190.481 248.83 190.194C248.341 188.302 248.544 185.634 250.077 184.415C251.803 183.04 252.634 181.858 252.33 180.003C252.164 178.95 251.785 177.861 251.342 176.799L252.699 175.211L259.818 168.029C259.624 172.82 259.264 180.677 263.013 183.28Z" fill="#FDB470"/>
<path opacity="0.2" d="M252.385 180.409C254.342 179.246 256.485 177.233 256.235 174.935C256.125 173.965 255.912 173.051 255.681 172.46L251.711 177.722C252.025 178.572 252.145 179.126 252.385 180.409Z" fill="black"/>
<path d="M261.819 160.33C261.145 167.642 261.016 170.734 257.249 174.575C251.579 180.335 242.844 178.396 241.339 171.159C239.982 164.641 241.312 153.785 248.486 150.711C255.559 147.674 262.484 153.019 261.819 160.33Z" fill="#FDB470"/>
<path d="M255.706 153.831C253.379 156.268 254.533 165.5 261.061 166.7C268.586 164.927 262.649 146.547 255.706 153.831Z" fill="#1A2E35"/>
<path d="M248.542 149.132C245.651 150.111 242.586 155.105 242.078 157.025C246.187 157.699 257.249 153.85 257.249 153.85C257.249 153.85 264.636 155.89 260.896 152.142C257.147 148.412 248.542 149.132 248.542 149.132Z" fill="#1A2E35"/>
<path d="M264.032 166.285C263.164 167.78 261.77 168.722 260.477 169.045C258.538 169.534 257.541 166.423 258.206 164.485C258.797 162.74 260.699 161.586 262.582 161.964C264.438 162.343 265.02 164.568 264.032 166.285Z" fill="#FDB470"/>
<path d="M238.536 158.364C238.12 161.586 237.705 164.826 236.625 167.882C235.544 170.937 233.291 177.243 230.586 179.043" stroke="#1A2E35" stroke-width="0.5" stroke-miterlimit="10"/>
<path d="M261.257 170.226C262.012 170.226 262.624 169.615 262.624 168.86C262.624 168.106 262.012 167.494 261.257 167.494C260.502 167.494 259.891 168.106 259.891 168.86C259.891 169.615 260.502 170.226 261.257 170.226Z" fill="#886EE5"/>
<path opacity="0.1" d="M262.504 164.198C261.857 164.014 261.137 164.143 260.592 164.54C260.048 164.937 259.706 165.583 259.688 166.257" stroke="black" stroke-width="0.5" stroke-miterlimit="10" stroke-linecap="round" stroke-linejoin="round"/>
<path d="M205.513 230.343C205.873 229.337 208.477 225.958 209.862 224.702C211.247 223.447 216.141 220.696 216.141 220.696L220.277 224.61C220.277 224.61 219.889 226.853 218.227 227.675C217.267 228.146 216.27 228.533 216.27 228.533C216.27 228.533 216.279 229.41 216.057 230.334C215.808 231.358 215.282 232.558 214.451 232.309C213.62 232.06 213.998 229.281 214.054 228.884C213.989 229.29 213.528 232.115 212.383 231.921C211.275 231.737 211.829 228.81 211.829 228.81C211.829 228.81 211.432 230.14 211.219 230.814C211.007 231.488 210.176 231.912 209.733 230.989C209.215 229.918 209.539 228.376 209.539 228.376C209.539 228.376 208.726 229.124 207.36 230.851C206.372 232.088 205.199 231.192 205.513 230.343Z" fill="#FDB470"/>
<path opacity="0.1" d="M213.961 229.401C214.063 228.875 214.173 228.349 214.376 227.85C214.58 227.352 214.884 226.89 215.318 226.576" stroke="black" stroke-width="0.5" stroke-miterlimit="10" stroke-linecap="round" stroke-linejoin="round"/>
<path opacity="0.1" d="M211.672 229.207C211.773 228.681 211.884 228.155 212.087 227.657C212.291 227.158 212.595 226.696 213.029 226.383" stroke="black" stroke-width="0.5" stroke-miterlimit="10" stroke-linecap="round" stroke-linejoin="round"/>
<path opacity="0.1" d="M209.539 228.469C209.641 227.943 209.751 227.416 209.955 226.918C210.158 226.419 210.462 225.958 210.896 225.644" stroke="black" stroke-width="0.5" stroke-miterlimit="10" stroke-linecap="round" stroke-linejoin="round"/>
<path d="M237.844 194.118C237.844 194.579 236.542 211.159 236.542 211.159C235.618 212.886 216.625 219.477 214.188 221.896L218.62 226.456C218.62 226.456 241.223 221.896 244.87 219.246C247.982 216.985 247.724 213.015 247.724 207.596C247.724 202.177 249.616 194.598 249.616 194.598L237.844 194.118Z" fill="#FDB470"/>
<path d="M246.442 184.323C237.486 185.856 236.248 199.122 236.248 199.122L234.891 209.655L229.812 213.366L234.568 223.511C234.568 223.511 244.715 219.653 249.175 217.012C253.635 214.372 253.755 194.136 253.755 194.136L246.442 184.323Z" fill="#886EE5"/>
<path opacity="0.2" d="M244.83 218.609C244.996 218.683 241.072 220.871 241.072 220.871C241.026 220.899 239.659 215.083 239.613 215.111C237.452 205.362 238.911 197.589 238.911 197.589C240.555 200.986 244.414 215.757 244.83 218.609Z" fill="black"/>
<path d="M246.812 230.61C254.282 229.863 263.996 229.272 276.637 228.986C276.637 228.986 286.064 251.188 274.882 257.816C271.503 259.819 265.926 260.613 259.795 260.742C252.676 260.89 246.812 255.194 246.812 248.067V230.61Z" fill="#1A2E35"/>
<path d="M271.229 248.889V259.321C261.931 261.998 242.633 260.982 231.165 260.041C226.003 259.616 222.023 255.305 222.023 250.126V241.568C222.023 238.734 223.778 236.195 226.437 235.198C231.996 233.103 242.116 229.992 252.706 230.158C262.965 230.315 271.229 238.623 271.229 248.889Z" fill="#1A2E35"/>
<path d="M278.316 228.976C276.875 227.066 273.524 222.514 273.099 217.714C273.099 217.705 273.099 217.686 273.099 217.677C273.071 217.372 273.053 217.058 273.053 216.754C272.979 214.714 272.988 212.295 273.127 209.396C273.145 208.944 273.173 208.464 273.2 207.984C273.284 206.461 273.404 204.827 273.542 203.045C273.81 199.851 274.207 196.204 274.724 192.059C274.844 191.099 275.749 189.613 275.878 188.597C276.488 184.083 272.369 180.815 267.919 181C266.737 181.046 265.472 181.129 264.198 181.249C259.212 181.72 255.112 182.145 250.781 183.179C249.341 183.511 247.854 183.917 246.432 184.332C241.326 185.8 238.972 192.336 238.907 197.598C238.843 202.5 242.287 212.507 244.641 221.296C244.992 226.336 242.231 229.078 243.062 230.841C243.893 232.595 268.26 227.823 278.307 233.814C278.316 233.795 279.858 231.017 278.316 228.976Z" fill="#007CFF"/>
<path d="M278.316 228.976C276.875 227.066 273.524 222.514 273.099 217.714C273.099 217.705 273.099 217.686 273.099 217.677C273.071 217.372 273.053 217.058 273.053 216.754C272.979 214.714 272.988 212.295 273.127 209.396C273.145 208.944 273.173 208.464 273.2 207.984C273.284 206.461 273.404 204.827 273.542 203.045C273.81 199.851 274.207 196.204 274.724 192.059C274.844 191.099 275.749 189.613 275.878 188.597C276.488 184.083 272.369 180.815 267.919 181C266.737 181.046 265.472 181.129 264.198 181.249C259.212 181.72 255.112 182.145 250.781 183.179C249.341 183.511 247.854 183.917 246.432 184.332C241.326 185.8 238.972 192.336 238.907 197.598C238.843 202.5 242.287 212.507 244.641 221.296C244.992 226.336 242.231 229.078 243.062 230.841C243.893 232.595 268.26 227.823 278.307 233.814C278.316 233.795 279.858 231.017 278.316 228.976Z" fill="#A78BEF"/>
<path opacity="0.2" d="M274.436 222.607C274.436 222.607 265.84 224.499 261.833 224.675C257.835 224.859 249.174 227.583 249.174 227.583L246.09 229.494L245 226.955L250.189 222.265L272.95 217.649C273.227 219.56 274.27 222.228 274.436 222.607Z" fill="black"/>
<path opacity="0.2" d="M264.582 194.293L263.492 208.99L258.617 213.772L262.034 216.422L266.669 213.624L269.07 205.353L264.582 194.293Z" fill="black"/>
<path d="M227.81 328.493L239.222 323.462L242.833 319.437L243.95 320.951L245.316 320.36C245.954 315.292 243.488 312.928 242.196 311.848C242.103 311.765 241.974 311.673 241.817 311.553C241.762 311.516 241.715 311.47 241.66 311.442C241.642 311.433 241.623 311.414 241.595 311.405C241.54 311.368 241.485 311.322 241.42 311.276C241.411 311.267 241.401 311.267 241.383 311.257V311.248C241.355 311.23 241.318 311.211 241.281 311.184L235.012 313.953C235.012 313.953 234.91 314.285 234.716 314.812C234.089 316.575 232.547 320.591 230.829 322.742C230.755 322.834 230.681 322.926 230.617 323.009C230.414 323.259 230.192 323.471 229.98 323.646C225.187 327.477 227.81 328.493 227.81 328.493Z" fill="#A78BEF"/>
<path d="M230.602 322.963C232.384 323.665 234.904 321.892 236.825 319.594C237.905 318.292 238.939 316.206 239.854 314.525C240.444 313.436 240.989 312.513 241.46 312.079C241.728 311.839 241.977 311.738 242.19 311.839C242.19 311.839 242.18 311.83 242.18 311.821C242.088 311.738 241.959 311.645 241.802 311.525C241.765 311.497 241.709 311.451 241.645 311.414C241.626 311.405 241.608 311.387 241.58 311.378C241.525 311.341 241.469 311.294 241.405 311.248C241.396 311.239 241.386 311.239 241.368 311.23V311.221C241.34 311.202 241.303 311.184 241.266 311.156C240.611 310.667 239.881 310.159 239.881 310.159L233.99 311.636L234.452 313.889C233.796 316.215 232.411 320.646 230.823 322.705C230.74 322.788 230.666 322.88 230.602 322.963Z" fill="#FDB470"/>
<path d="M220.995 279.076C224.633 288.114 230.283 299.626 234.457 314.064C234.54 314.322 234.614 314.59 234.688 314.849C234.771 315.126 234.854 315.402 234.937 315.679L239.24 314.627L239.425 313.879C239.425 313.879 240.911 312.725 240.662 312.467C240.496 312.301 240.607 311.978 240.579 311.71V311.701C239.415 301.629 234.946 264.675 230.514 256.994C230.514 256.994 235.537 257.927 239.342 257.28C242.084 256.819 245.417 237.829 245.417 237.829C245.417 237.829 238.418 235.817 231.244 235.817H231.142C231.142 235.817 217.033 239.99 213.442 243.147C210.071 246.119 209.563 250.984 211.438 256.773C213.146 262.081 216.489 267.878 220.995 279.076Z" fill="#FDB470"/>
<path opacity="0.1" d="M216.971 247.726C217.802 244.439 223.85 241.227 230.102 239.51C231.117 238.199 228.523 236.639 228.523 236.639L240.822 235.531L242.964 237.072L246.629 237.839L243.361 252.526L229.926 254.88L238.421 294.299L239.427 302.091C239.427 302.091 225.032 271.202 222.022 264.638C219.012 258.065 215.522 253.412 216.971 247.726Z" fill="black"/>
<path d="M245.418 237.839C245.418 237.839 226.231 241.901 222.482 244.864C219.287 247.384 219.204 250.68 220.238 253.782C223.101 262.367 233.359 276.694 245.104 317.803L251.835 315.689C251.189 315.689 249.499 294.225 249.001 276.99C248.761 268.857 244.596 261.85 242.962 259.016C242.962 259.016 249.822 259.939 253.627 259.302C258.511 258.48 261.604 242.159 245.418 237.839Z" fill="#FDB470"/>
<path opacity="0.2" d="M243.356 259.782C243.356 259.782 240.808 255.563 237.641 253.782C237.641 253.782 241.546 254.04 243.984 259.136L242.959 259.016L243.356 259.782Z" fill="black"/>
<path d="M254.115 324.542L252.711 324.847L251.548 322.908C251.409 322.668 251.086 322.622 250.883 322.816L246.894 326.508L236.008 328.899C236.008 328.899 233.589 326.342 239 324.708C239.258 324.634 239.48 324.431 239.729 324.228C242.407 322.169 245.62 316.52 245.62 316.52L252.065 315.107C252.065 315.107 252.36 315.384 252.794 315.92C253.81 317.166 255.684 319.88 254.115 324.542Z" fill="#A78BEF"/>
<path d="M252.793 315.901C252.793 315.91 252.793 315.92 252.793 315.92C251.732 315.153 248.777 320.175 246.247 322.216C243.985 324.034 241.261 325.216 239.719 324.21C242.396 322.151 245.748 315.015 245.748 315.015L250.937 313.879C250.947 313.889 252.359 315.366 252.793 315.901Z" fill="#FDB470"/>
<path d="M233.033 240.618L251.953 233.426C252.377 233.269 252.276 232.595 251.823 232.586L221.464 232.226C221.39 232.226 221.316 232.245 221.251 232.291L209.58 239.851C209.229 240.073 209.377 240.655 209.783 240.655H232.904C232.941 240.645 232.987 240.636 233.033 240.618Z" fill="#1A2E35"/>
<path d="M233.033 240.618L251.953 233.426C252.377 233.269 252.276 232.595 251.823 232.586L221.464 232.226C221.39 232.226 221.316 232.245 221.251 232.291L209.58 239.851C209.229 240.073 209.377 240.655 209.783 240.655H232.904C232.941 240.645 232.987 240.636 233.033 240.618Z" fill="#E527BB"/>
<path opacity="0.7" d="M233.096 238.476L245.293 233.98L231 233.676L233.096 238.476Z" fill="white"/>
<path d="M251.953 233.426L233.033 240.618C232.987 240.636 232.95 240.645 232.904 240.645H232.609L232.258 239.602L251.833 232.586C252.267 232.586 252.368 233.26 251.953 233.426Z" fill="#E527BB"/>
<path d="M208.335 240.646H232.97C233.394 240.646 233.736 240.359 233.736 240.027C233.736 239.962 233.727 239.898 233.699 239.842L222.739 214.723C222.462 214.003 221.64 213.514 220.698 213.514H196.054C195.639 213.514 195.297 213.782 195.297 214.123C195.297 214.197 195.315 214.262 195.343 214.326L206.303 239.445C206.58 240.147 207.402 240.636 208.335 240.646Z" fill="#1A2E35"/>
<path d="M196.055 213.504H220.7C221.632 213.504 222.463 213.994 222.74 214.714L233.7 239.833C233.728 239.898 233.737 239.953 233.737 240.018C233.737 240.359 233.396 240.636 232.971 240.636H208.336C207.403 240.627 206.582 240.138 206.295 239.427L195.335 214.308C195.308 214.243 195.289 214.169 195.289 214.104C195.298 213.772 195.631 213.504 196.055 213.504Z" fill="#E527BB"/>
<path d="M211.317 227.629C211.852 228.838 212.932 229.66 213.736 229.494C214.539 229.327 214.751 228.229 214.234 227.02C213.717 225.81 212.628 224.998 211.824 225.173C211.012 225.339 210.772 226.392 211.317 227.629Z" fill="white"/>
<path opacity="0.3" d="M220.555 213.504H220.702C221.635 213.504 222.466 213.994 222.743 214.714L233.703 239.833C233.731 239.898 233.74 239.953 233.74 240.018C233.74 240.359 233.398 240.636 232.974 240.636H232.189L220.555 213.504Z" fill="black"/>
<path d="M265.064 192.899C265.064 193.361 266.542 209.784 266.542 209.784C265.618 211.51 246.625 218.101 244.188 220.52L248.62 225.081C248.62 225.081 271.223 220.52 274.87 217.871C277.982 215.609 277.724 211.639 277.724 206.22C277.724 200.801 276.542 192.908 276.542 192.908H265.064V192.899Z" fill="#FDB470"/>
<path d="M266.978 182.763C262.315 184.711 265.87 209.692 265.87 209.692L261.281 211.639L264.107 222.274C264.107 222.274 269.767 221.203 275.418 220.049C281.392 218.831 282.269 205.039 279.277 193.869C276.286 182.698 272.435 180.483 266.978 182.763Z" fill="#886EE5"/>
<path d="M236.261 232.484C236.363 231.423 238.053 227.509 239.087 225.948C240.121 224.388 244.193 220.52 244.193 220.52L249.161 223.299C249.161 223.299 249.336 225.57 247.923 226.779C247.111 227.472 246.243 228.09 246.243 228.09C246.243 228.09 246.474 228.939 246.474 229.89C246.483 230.943 246.261 232.235 245.403 232.198C244.535 232.161 244.221 229.373 244.175 228.967C244.212 229.373 244.452 232.226 243.297 232.327C242.18 232.42 241.995 229.447 241.995 229.447C241.995 229.447 241.94 230.832 241.903 231.543C241.866 232.254 241.155 232.863 240.5 232.078C239.742 231.164 239.669 229.586 239.669 229.586C239.669 229.586 239.068 230.509 238.164 232.512C237.536 233.971 236.178 233.389 236.261 232.484Z" fill="#FDB470"/>
<path opacity="0.1" d="M244.224 229.503C244.197 228.967 244.169 228.432 244.243 227.896C244.317 227.37 244.492 226.835 244.843 226.428" stroke="black" stroke-width="0.5" stroke-miterlimit="10" stroke-linecap="round" stroke-linejoin="round"/>
<path opacity="0.1" d="M241.959 229.881C241.931 229.346 241.903 228.81 241.977 228.275C242.051 227.739 242.226 227.213 242.577 226.807" stroke="black" stroke-width="0.5" stroke-miterlimit="10" stroke-linecap="round" stroke-linejoin="round"/>
<path opacity="0.1" d="M239.709 229.678C239.681 229.142 239.653 228.607 239.727 228.072C239.801 227.545 239.976 227.01 240.327 226.604" stroke="black" stroke-width="0.5" stroke-miterlimit="10" stroke-linecap="round" stroke-linejoin="round"/>
<path d="M107.136 300.18C127.641 300.18 144.264 283.561 144.264 263.06C144.264 242.559 127.641 225.939 107.136 225.939C86.6306 225.939 70.0078 242.559 70.0078 263.06C70.0078 283.561 86.6306 300.18 107.136 300.18Z" fill="#E527BB"/>
<path d="M114.173 286.785C114.173 289.213 110.803 291.151 106.703 291.087C102.603 291.022 99.3162 289.037 99.3439 286.619C99.3716 284.191 102.714 282.252 106.805 282.326C110.895 282.4 114.201 284.366 114.173 286.785Z" fill="#1A2E35"/>
<path d="M117.378 278.79C117.785 278.412 118.025 277.885 118.052 277.332C118.052 274.959 113.048 272.965 106.815 272.9C100.583 272.845 95.5043 274.701 95.4766 277.073C95.5043 277.627 95.7351 278.144 96.1229 278.532C96.0029 278.753 95.9382 279.002 95.929 279.261C95.9475 279.815 96.1875 280.341 96.5938 280.72C96.4645 280.96 96.3907 281.218 96.3814 281.495C96.3999 282.058 96.6492 282.584 97.0647 282.954C96.917 283.194 96.8339 283.461 96.8339 283.738C96.8708 284.292 97.1294 284.8 97.5633 285.151C97.4064 285.391 97.3233 285.658 97.314 285.945C97.314 287.92 101.469 289.582 106.658 289.628C111.848 289.674 116.058 288.169 116.086 286.157C116.086 285.871 116.003 285.594 115.855 285.354C116.28 285.012 116.547 284.504 116.584 283.96C116.584 283.683 116.51 283.415 116.372 283.175C116.797 282.824 117.055 282.307 117.101 281.763C117.101 281.495 117.028 281.227 116.908 280.987C117.332 280.627 117.591 280.119 117.637 279.566C117.609 279.279 117.517 279.021 117.378 278.79Z" fill="#A78BEF"/>
<path d="M126.728 257.816C126.858 246.784 118.021 237.737 106.987 237.608C95.9531 237.479 86.9042 246.313 86.775 257.345C86.7011 263.327 89.3234 269.032 93.9125 272.882C94.7527 273.574 95.1959 274.645 95.0943 275.735C95.0943 275.79 95.0943 275.845 95.0943 275.892C95.0943 278.301 100.191 280.323 106.516 280.387C112.841 280.461 118.003 278.559 118.03 276.141C118.03 276.085 118.03 276.039 118.03 275.984C117.929 274.876 118.4 273.787 119.277 273.094C123.921 269.383 126.654 263.77 126.728 257.816Z" fill="#007CFF"/>
<path d="M126.728 257.816C126.858 246.784 118.021 237.737 106.987 237.608C95.9531 237.479 86.9042 246.313 86.775 257.345C86.7011 263.327 89.3234 269.032 93.9125 272.882C94.7527 273.574 95.1959 274.645 95.0943 275.735C95.0943 275.79 95.0943 275.845 95.0943 275.892C95.0943 278.301 100.191 280.323 106.516 280.387C112.841 280.461 118.003 278.559 118.03 276.141C118.03 276.085 118.03 276.039 118.03 275.984C117.929 274.876 118.4 273.787 119.277 273.094C123.921 269.383 126.654 263.77 126.728 257.816Z" fill="#F8B200"/>
<path opacity="0.2" d="M117.341 246.221C117.341 250.108 112.789 253.265 107.147 253.265C101.505 253.265 96.9531 250.108 96.9531 246.221C96.9531 242.335 101.505 239.168 107.147 239.168C112.789 239.168 117.341 242.325 117.341 246.221Z" fill="white"/>
<path d="M91.533 265.174C89.7971 262.192 89.1046 258.619 89.6032 255.203C90.1111 251.788 91.8008 248.566 94.3308 246.212" stroke="white" stroke-miterlimit="10" stroke-linecap="round" stroke-linejoin="round"/>
<path d="M97.5312 285.188C100.421 286.36 103.524 287.025 106.635 287.025C109.747 287.099 112.859 286.508 115.777 285.409C112.924 286.692 109.756 287.256 106.626 287.256C103.496 287.182 100.357 286.545 97.5312 285.188Z" fill="#1A2E35"/>
<path d="M97.3906 283.046C100.281 284.218 103.383 284.883 106.495 284.883C109.607 284.957 112.718 284.366 115.636 283.267C112.783 284.551 109.616 285.114 106.486 285.114C103.365 285.04 100.216 284.403 97.3906 283.046Z" fill="#1A2E35"/>
<path d="M97.2578 280.904C100.148 282.077 103.25 282.741 106.362 282.741C109.474 282.815 112.585 282.224 115.503 281.126C112.65 282.409 109.483 282.972 106.353 282.972C103.232 282.889 100.083 282.261 97.2578 280.904Z" fill="#1A2E35"/>
<path d="M102.433 276.169C103.966 270.953 104.234 265.266 103.2 259.893C103.034 259.025 102.637 257.982 101.861 257.964C101.159 257.945 100.707 258.804 100.559 259.579C100.023 262.321 101.455 265.109 103.274 267.011C104.262 268.036 105.453 268.931 106.792 268.996C108.131 269.06 109.405 268.266 110.374 267.214C112.23 265.192 113.154 262.035 112.479 259.21C112.193 258.019 111.353 256.736 110.282 256.967C109.645 257.105 109.174 257.779 109.008 258.499C108.841 259.219 108.925 259.976 109.017 260.715C109.691 266.023 110.993 271.23 112.858 276.15" stroke="#1A2E35" stroke-miterlimit="10"/>
</g>
</g>
<defs>
<clipPath id="clip0_1347_6576">
<rect width="542.64" height="328.79" fill="white"/>
</clipPath>
<clipPath id="clip1_1347_6576">
<rect width="415" height="275" fill="white" transform="translate(64 53.8901)"/>
</clipPath>
</defs>
</svg>
