<svg width="543" height="329" viewBox="0 0 543 329" fill="none" xmlns="http://www.w3.org/2000/svg">
<g clip-path="url(#clip0_1470_5619)">
<path opacity="0.2" d="M78.788 327.839C41.4882 290.535 -9.49424 252.012 10.4949 193.818C23.6478 155.541 55.8804 144.88 82.6859 121.276C95.9087 109.631 87.5932 92.6757 87.3433 75.8481C86.7836 32.7513 139.135 -0.687543 187.269 0.010739C239.401 0.768031 261.969 48.9102 305.705 51.4968C322.876 51.7426 338.257 42.4781 353.449 35.1314C398.465 13.3371 469.906 27.2339 473.514 79.9296C474.444 108.392 439.183 154.174 474.514 169.143C502.668 181.072 531.113 185.469 536.19 228.133C542.837 283.976 507.716 314.621 461.971 329L78.788 327.839Z" fill="#999999"/>
<g clip-path="url(#clip1_1470_5619)">
<path d="M378.19 210.092H137.512C134.485 210.092 132.027 207.635 132.027 204.607V46.4847C132.027 43.4573 134.485 41 137.512 41H378.19C381.218 41 383.675 43.4573 383.675 46.4847V204.607C383.675 207.635 381.218 210.092 378.19 210.092Z" fill="white"/>
<path d="M383.675 51.6647H132.027V46.4847C132.027 43.4573 134.485 41 137.512 41H378.19C381.218 41 383.675 43.4573 383.675 46.4847V51.6647Z" fill="#E527BB"/>
<path d="M383.675 49.7776H132.027V52.6969H383.675V49.7776Z" fill="#004CAD"/>
<path d="M142.782 46.1505C142.782 47.3694 141.799 48.3523 140.581 48.3523C139.362 48.3523 138.379 47.3694 138.379 46.1505C138.379 44.9317 139.362 43.9488 140.581 43.9488C141.799 43.939 142.782 44.9317 142.782 46.1505Z" fill="white"/>
<path d="M153.318 46.1505C153.318 47.3694 152.335 48.3523 151.116 48.3523C149.897 48.3523 148.914 47.3694 148.914 46.1505C148.914 44.9317 149.897 43.9488 151.116 43.9488C152.335 43.939 153.318 44.9317 153.318 46.1505Z" fill="white"/>
<path d="M163.857 46.1505C163.857 47.3694 162.874 48.3523 161.655 48.3523C160.436 48.3523 159.453 47.3694 159.453 46.1505C159.453 44.9317 160.436 43.9488 161.655 43.9488C162.874 43.939 163.857 44.9317 163.857 46.1505Z" fill="white"/>
<path d="M216.762 129.148H205.184V182.983H216.762V129.148Z" fill="#E527BB"/>
<path d="M260.137 115.997H248.559V182.983H260.137V115.997Z" fill="#E527BB"/>
<path d="M238.454 112.763H226.875V182.983H238.454V112.763Z" fill="#E527BB"/>
<path d="M280.544 96.4368H268.965V182.983H280.544V96.4368Z" fill="#E527BB"/>
<path d="M280.199 77.5155C279.629 77.5843 279.059 77.6629 278.489 77.7317C278.223 77.7612 277.958 77.8005 277.693 77.83C277.437 77.8595 277.132 77.8595 276.936 78.0462C276.484 78.4591 276.975 79.0095 277.299 79.3339C277.358 79.4223 277.417 79.4911 277.486 79.5796C274.252 82.9903 270.793 86.175 267.116 89.0943C263.155 92.2396 258.958 95.0803 254.584 97.6064C250.22 100.123 245.679 102.324 241 104.182C236.312 106.04 231.495 107.563 226.591 108.713C221.696 109.863 216.712 110.66 211.699 111.063C211.08 111.112 210.451 111.151 209.832 111.19C209.389 111.22 209.389 111.908 209.832 111.878C214.894 111.564 219.926 110.876 224.88 109.804C229.854 108.733 234.739 107.288 239.496 105.489C244.214 103.71 248.814 101.587 253.238 99.1496C257.69 96.6923 261.966 93.9008 266.006 90.8144C270.036 87.7379 273.84 84.3664 277.358 80.7198C277.565 80.5036 277.771 80.2873 277.968 80.0711C278.204 80.2873 278.469 80.4741 278.754 80.6313C278.774 80.6412 278.803 80.6412 278.823 80.651C278.882 80.6805 278.931 80.7198 278.99 80.7296C279.246 80.7788 279.482 80.6412 279.599 80.4151C279.698 80.2283 279.757 80.0121 279.826 79.8155C279.894 79.6189 279.973 79.4125 280.042 79.2159C280.189 78.8228 280.327 78.4394 280.474 78.0462C280.474 78.0364 280.484 78.0266 280.484 78.0266C280.632 77.83 280.464 77.4762 280.199 77.5155Z" fill="#E527BB"/>
<path d="M303.337 85.9785H291.758V182.983H303.337V85.9785Z" fill="#E527BB"/>
<path d="M199.386 182.983V166.932V164.976V131.763V129.807V96.594V94.638V69.6423H197.912V94.6282H195.268C194.776 94.6282 194.324 94.9624 194.246 95.444C194.147 96.0534 194.619 96.5842 195.209 96.5842H197.902V129.797H195.258C194.767 129.797 194.314 130.131 194.236 130.613C194.137 131.222 194.609 131.753 195.199 131.753H197.892V164.966H195.248C194.757 164.966 194.305 165.3 194.226 165.782C194.128 166.391 194.599 166.922 195.189 166.922H197.882V182.973H190.53C190.127 182.973 189.793 183.298 189.793 183.71C189.793 184.113 190.117 184.448 190.53 184.448H197.882V193.137C197.882 193.54 198.207 193.874 198.62 193.874C199.023 193.874 199.357 193.549 199.357 193.137V184.448H350.746C351.149 184.448 351.483 184.123 351.483 183.71C351.483 183.307 351.159 182.973 350.746 182.973H199.386V182.983Z" fill="#E527BB"/>
<path d="M237.05 189.893H227.23C226.749 189.893 226.355 189.5 226.355 189.018C226.355 188.536 226.749 188.143 227.23 188.143H237.05C237.531 188.143 237.924 188.536 237.924 189.018C237.924 189.5 237.531 189.893 237.05 189.893Z" fill="#E8D7CD"/>
<path d="M232.725 192.822H227.23C226.749 192.822 226.355 192.429 226.355 191.947C226.355 191.466 226.749 191.073 227.23 191.073H232.725C233.206 191.073 233.6 191.466 233.6 191.947C233.6 192.429 233.206 192.822 232.725 192.822Z" fill="#E8D7CD"/>
<path d="M279.866 189.893H270.047C269.565 189.893 269.172 189.5 269.172 189.018C269.172 188.536 269.565 188.143 270.047 188.143H279.866C280.348 188.143 280.741 188.536 280.741 189.018C280.751 189.5 280.358 189.893 279.866 189.893Z" fill="#E8D7CD"/>
<path d="M275.541 192.822H270.047C269.565 192.822 269.172 192.429 269.172 191.947C269.172 191.466 269.565 191.073 270.047 191.073H275.541C276.023 191.073 276.416 191.466 276.416 191.947C276.426 192.429 276.033 192.822 275.541 192.822Z" fill="#E8D7CD"/>
<path d="M258.272 189.893H248.453C247.971 189.893 247.578 189.5 247.578 189.018C247.578 188.536 247.971 188.143 248.453 188.143H258.272C258.754 188.143 259.147 188.536 259.147 189.018C259.157 189.5 258.764 189.893 258.272 189.893Z" fill="#E8D7CD"/>
<path d="M258.272 192.822H248.453C247.971 192.822 247.578 192.429 247.578 191.947C247.578 191.466 247.971 191.073 248.453 191.073H258.272C258.754 191.073 259.147 191.466 259.147 191.947C259.157 192.429 258.764 192.822 258.272 192.822Z" fill="#E8D7CD"/>
<path d="M215.722 189.893H205.902C205.421 189.893 205.027 189.5 205.027 189.018C205.027 188.536 205.421 188.143 205.902 188.143H215.722C216.203 188.143 216.596 188.536 216.596 189.018C216.606 189.5 216.213 189.893 215.722 189.893Z" fill="#E8D7CD"/>
<path d="M215.722 192.822H205.902C205.421 192.822 205.027 192.429 205.027 191.947C205.027 191.466 205.421 191.073 205.902 191.073H215.722C216.203 191.073 216.596 191.466 216.596 191.947C216.606 192.429 216.213 192.822 215.722 192.822Z" fill="#E8D7CD"/>
<path d="M359.23 76.6506L357.186 84.6221C356.291 84.3371 355.338 84.1896 354.355 84.1896C352.055 84.1896 349.951 84.9956 348.3 86.3521C346.688 83.7768 344.978 81.0443 343.906 79.3733C346.835 77.2404 350.443 75.9724 354.355 75.9724C356.045 75.9724 357.677 76.2083 359.23 76.6506Z" fill="#E527BB"/>
<path d="M372.104 93.7337C372.104 103.543 364.152 111.495 354.343 111.495C351.826 111.495 349.418 110.974 347.246 110.021L350.106 102.285C351.384 102.924 352.829 103.278 354.343 103.278C359.611 103.278 363.887 99.0021 363.887 93.7337C363.887 92.3772 363.602 91.0798 363.091 89.9199L370.59 86.5583C371.564 88.7503 372.104 91.1781 372.104 93.7337Z" fill="#E527BB"/>
<path d="M370.6 86.5585L363.101 89.9201C362 87.4038 359.837 85.4478 357.184 84.6221L359.228 76.6506C364.32 78.1054 368.477 81.7717 370.6 86.5585Z" fill="#E527BB"/>
<path d="M350.117 102.285L347.257 110.021C340.976 107.278 336.582 101.017 336.582 93.7338C336.582 87.8264 339.462 82.5973 343.905 79.3733C344.976 81.0443 346.686 83.7768 348.298 86.352C346.166 88.1016 344.799 90.7555 344.799 93.7338C344.799 97.4885 346.972 100.732 350.117 102.285Z" fill="#A78BEF"/>
<path d="M361.145 116.026H347.551V125.541H361.145V116.026Z" fill="#E527BB"/>
<path d="M361.145 131.34H347.551V140.855H361.145V131.34Z" fill="#A78BEF"/>
</g>
<g clip-path="url(#clip2_1470_5619)">
<path d="M331.876 322.784H338.127L307.165 234.36H300.914L331.876 322.784Z" fill="#625950"/>
<path d="M331.876 322.784H338.127L307.165 234.36H300.914L331.876 322.784Z" fill="#4A3333"/>
<path d="M309.947 260.162L300.914 234.36H307.165L316.198 260.162H309.947Z" fill="#4A3333"/>
<path d="M263.689 322.784H257.438L288.39 234.36H294.641L263.689 322.784Z" fill="#4A3333"/>
<path d="M120.546 211.222C121.047 210.406 121.136 209.256 120.753 208.333C120.526 207.782 120.153 207.32 119.868 206.799C118.462 204.185 119.819 200.558 122.079 199.073C123.102 198.405 124.252 198.041 125.284 197.393C126.316 196.744 127.259 195.682 127.377 194.316C127.564 192.163 125.746 190.512 124.871 188.566C124.153 186.974 124.085 185.106 124.153 183.327C124.232 181.351 129.225 166.961 130.926 161.624C131.25 160.612 132.272 160.002 133.314 160.189L153.454 163.904C155.194 167.414 156.256 165.998 156.973 169.93C156.973 169.93 161.524 180.182 161.996 182.423C162.36 184.162 162.605 186.01 162.163 187.701C161.632 189.765 160.109 191.692 160.659 193.785C161.003 195.112 162.114 195.997 163.234 196.469C164.355 196.94 165.554 197.098 166.675 197.589C169.152 198.68 171.098 202.022 170.144 204.833C169.958 205.394 169.663 205.905 169.535 206.485C169.309 207.458 169.584 208.578 170.213 209.296C170.842 210.013 171.815 210.298 172.641 210.013C171.117 212.893 168.955 215.557 166.114 216.343C164.109 216.894 161.957 216.442 160.03 215.469C158.113 214.495 156.393 213.041 154.762 211.517C154.29 211.085 153.828 210.633 153.327 210.239C153.13 210.259 152.943 210.289 152.737 210.279C151.115 210.279 149.562 209.699 148.009 209.05C146.898 209.345 145.807 209.876 144.805 210.485C142.701 211.763 140.667 213.385 138.298 213.788C136.882 214.033 135.447 213.817 134.071 213.286C133.304 214.132 132.489 214.908 131.594 215.567C129.864 216.845 127.81 217.651 125.746 217.444C122.807 217.149 120.241 214.879 118.246 212.294C119.131 212.48 120.035 212.038 120.546 211.222Z" fill="#231F20"/>
<path d="M226.22 322.784H232.471L201.509 234.36H195.258L226.22 322.784Z" fill="#4A3333"/>
<path d="M204.291 260.162L195.258 234.36H201.509L210.542 260.162H204.291Z" fill="#4A3333"/>
<path d="M381.071 322.341H385.347L372.53 263.867H368.254L381.071 322.341Z" fill="#4A3333"/>
<path opacity="0.34" d="M374.997 275.112L372.53 263.867H368.254L370.721 275.112H374.997Z" fill="#4A3333"/>
<path d="M329.909 322.341H325.633L338.45 263.867H342.726L329.909 322.341Z" fill="#4A3333"/>
<path opacity="0.34" d="M340.26 275.112L342.727 263.867H338.452L335.984 275.112H340.26Z" fill="#4A3333"/>
<path d="M379.986 254.53V217.68H390.13V256.004C390.13 259.661 387.634 262.727 384.252 263.612V263.877H382.257H379.977H326.329C325.936 263.877 325.621 263.563 325.621 263.17C325.621 258.403 329.484 254.54 334.251 254.54H379.986V254.53Z" fill="#4A3333"/>
<path opacity="0.34" d="M390.132 217.68H379.988V235.599H390.132V217.68Z" fill="#4A3333"/>
<path d="M378.697 229.161H389.381C391.652 229.161 393.5 227.313 393.5 225.042V213.925C393.5 211.655 391.652 209.807 389.381 209.807H382.766C381.037 209.807 379.493 210.888 378.894 212.51L374.824 223.627C373.851 226.32 375.837 229.161 378.697 229.161Z" fill="#4A3333"/>
<path opacity="0.34" d="M374.837 223.627L378.906 212.51C379.191 211.724 379.702 211.075 380.341 210.603C381.452 210.731 382.464 211.232 383.319 212.068C385.855 214.545 386.651 218.673 386.229 222.084C385.835 225.258 384.174 228.011 381.324 229.17H378.709C375.839 229.161 373.854 226.32 374.837 223.627Z" fill="#4A3333"/>
<path d="M346.373 202.445L343.297 186.846C343.297 186.846 338.54 200.833 334.107 213.699L330.312 214.938C332.858 217.424 334.411 220.678 334.46 224.256C334.913 224.226 336.859 223.804 338.608 223.41C340.525 222.978 342.186 221.808 343.238 220.147L346.531 214.938C348.634 211.625 347.484 206.209 346.373 202.445Z" fill="#E93F23"/>
<path d="M346.373 202.445L343.297 186.846C343.297 186.846 338.127 202.15 334.107 213.699L330.312 214.938C332.858 217.424 334.411 220.678 334.46 224.256C334.913 224.226 336.859 223.804 338.608 223.41C340.525 222.978 342.186 221.808 343.238 220.147L346.531 214.938C348.634 211.625 347.484 206.209 346.373 202.445Z" fill="#4FB664"/>
<path d="M346.373 202.445L343.297 186.846C343.297 186.846 338.127 202.15 334.107 213.699L330.312 214.938C332.858 217.424 334.411 220.678 334.46 224.256C334.913 224.226 336.859 223.804 338.608 223.41C340.525 222.978 342.186 221.808 343.238 220.147L346.531 214.938C348.634 211.625 347.484 206.209 346.373 202.445Z" fill="#8367E8"/>
<path d="M329.723 215.065L333.163 212.549C343.66 215.006 339.719 223.351 339.719 223.351C336.918 225.779 333.192 224.747 333.192 224.747C334.274 219.538 329.723 215.065 329.723 215.065Z" fill="#8367E8"/>
<path d="M319.364 218.496C319.364 218.496 308.739 220.481 308.621 224.433H321.32C321.32 224.433 322.48 223.744 322.657 222.349C322.657 222.349 328.132 223.666 333.057 224.226C333.528 224.285 334 224.285 334.452 224.256C334.393 220.678 332.84 217.424 330.304 214.938L319.364 218.496Z" fill="#ED9F8A"/>
<path d="M352.281 173.134L355.555 180.85C353.618 185.598 348.025 186.6 346.354 186.797C346.05 186.836 345.873 186.846 345.873 186.846C345.784 186.63 345.696 186.423 345.598 186.207C343.72 181.813 341.499 177.842 341.499 177.842L340.594 178.147L337.056 179.336C334.274 179.828 333.419 177.154 333.232 176.368C333.183 176.142 333.124 175.935 333.055 175.709L331.355 172.466L330.411 171.955C328.868 170.893 329.202 170.126 329.202 170.126L330.303 168.102C331.05 166.716 331.316 165.123 331.04 163.57C329.851 156.857 333.498 154.154 333.498 154.154C348.822 142.339 355.908 156.749 355.908 156.749C361.01 167.856 352.281 173.134 352.281 173.134Z" fill="#FFAB87"/>
<path opacity="0.18" d="M345.609 186.207C343.731 181.813 341.51 177.842 341.51 177.842L340.605 178.147L341.706 177.724C343.997 176.84 346.513 178.353 346.798 180.801C347.004 182.56 346.827 184.565 345.609 186.207Z" fill="#985235"/>
<g opacity="0.45">
<path opacity="0.53" d="M343.623 171.994C343.643 171.994 343.662 171.984 343.692 171.974C345.569 171.267 346.798 170.274 347.348 169.016C347.948 167.65 347.496 166.49 347.476 166.441C347.417 166.293 347.25 166.214 347.103 166.283C346.955 166.342 346.886 166.509 346.945 166.657C346.945 166.667 347.329 167.65 346.818 168.8C346.326 169.9 345.206 170.785 343.495 171.434C343.348 171.493 343.269 171.66 343.328 171.807C343.368 171.935 343.495 172.014 343.623 171.994Z" fill="#985235"/>
<path opacity="0.53" d="M342.65 170.962C342.66 170.962 342.669 170.962 342.669 170.962C342.827 170.933 342.925 170.775 342.895 170.618C342.591 169.193 344.272 168.662 344.34 168.642C344.498 168.593 344.576 168.436 344.537 168.279C344.488 168.121 344.321 168.043 344.173 168.082C343.397 168.318 342.001 169.183 342.325 170.736C342.355 170.883 342.502 170.982 342.65 170.962Z" fill="#985235"/>
</g>
<path d="M330.236 156.562C332.437 150.33 339.455 146.3 345.982 147.313C352.509 148.325 357.915 154.134 358.681 160.69C358.898 162.489 358.642 164.514 357.787 166.057L357.905 165.949C356.627 169.36 355.28 173.468 351.663 173.901C351.378 173.93 350.091 173.439 349.845 173.291C349.383 173.006 349.393 172.358 349.422 171.817C349.491 170.539 349.373 169.212 348.764 168.082C348.154 166.951 346.975 166.077 345.697 166.096C344.458 166.116 343.387 166.912 342.296 167.492C341.195 168.072 339.74 168.396 338.807 167.581C337.775 166.676 338.07 165.035 337.981 163.659C337.853 161.791 336.172 159.786 334.403 160.386C333.696 160.621 333.145 161.231 332.418 161.378C331.366 161.604 330.304 160.739 329.98 159.717C329.636 158.695 329.872 157.574 330.236 156.562Z" fill="#231F20"/>
<path d="M380.293 235.206C379.871 239.255 378.927 243.059 377.738 246.598C375.497 253.213 370.012 257.842 363.653 258.501C358.758 259.012 353.941 258.353 349.027 256.781C345.469 255.64 341.851 254.019 338.106 252.013C337.153 251.502 336.209 250.972 335.295 250.382C330.735 247.433 325.908 247.826 325.908 247.826C321.348 249.566 318.596 254.677 319.401 259.926L319.834 262.767C315.332 271.662 309.464 280.312 303.016 288.431V288.441L303.183 291.999C303.282 294.151 302.25 296.206 300.48 297.13C299.782 297.503 299.035 297.788 298.308 298.024C295.841 298.81 293.492 299.98 291.555 301.69C288.194 304.649 284.586 305.337 280.753 303.902C279.76 303.528 278.876 302.801 278.355 301.789C277.313 299.754 278.325 297.965 279.259 296.874C279.79 296.255 280.448 295.783 281.136 295.4C287.712 291.822 295.536 283.624 295.792 283.359C295.802 283.349 295.802 283.349 295.802 283.349L317.367 236.07C318.251 234.114 320.06 232.876 322.036 232.876C331.079 232.876 354.443 235.422 354.443 235.422L355.111 233.613L380.293 235.206Z" fill="#231F20"/>
<path d="M381.435 235.982C383.057 220.068 365.6 178.226 355.26 179.022L343.573 184.457L342.128 189.519C339.975 197.029 341.115 205.138 345.381 211.684C350.188 219.066 353.382 226.86 354.444 235.166C360.813 240.897 369.777 240.818 380.177 237.515C380.855 237.299 381.356 236.69 381.435 235.982Z" fill="#A78BEF"/>
<path opacity="0.34" d="M347.513 212.058C348.191 210.446 348.751 208.794 349.125 207.084C349.498 205.344 349.361 203.467 349.892 201.767C350.088 201.128 350.413 200.587 350.56 199.929C350.688 199.378 351.081 198.749 351.317 198.189C351.897 196.793 352.3 195.338 352.831 193.923C353.263 192.793 353.754 191.544 354.678 190.719C355.17 190.286 355.848 189.883 356.536 190.001C357.087 190.089 357.588 190.502 358.02 190.827C360.055 192.39 361.411 194.395 362.267 196.803C363.092 199.132 363.515 201.59 363.869 204.027C364.783 210.357 364.331 216.756 364.537 223.125C364.714 228.64 364.694 234.174 365.215 239.668C361.126 239.295 357.49 237.899 354.452 235.166C353.489 227.657 350.786 220.57 346.727 213.827C346.992 213.247 347.257 212.657 347.513 212.058Z" fill="#4FB664"/>
<path d="M278.002 300.855C278.071 301.16 278.189 301.474 278.356 301.789C278.877 302.801 279.751 303.528 280.744 303.902C284.234 305.209 287.536 304.757 290.623 302.447C293.149 300.55 295.881 298.909 298.85 297.837C299.4 297.641 299.95 297.405 300.481 297.13C302.241 296.215 303.273 294.151 303.174 292.009L303.007 288.45C303.145 288.273 303.283 288.097 303.42 287.929L302.319 287.271L295.793 283.369C295.537 283.644 287.713 291.832 281.137 295.409C280.439 295.793 279.791 296.265 279.26 296.884C278.454 297.788 277.609 299.213 278.002 300.855Z" fill="#A78BEF"/>
<path d="M278.002 300.855C278.523 301.572 279.24 302.093 280.046 302.398C283.536 303.705 286.828 303.253 289.925 300.943C292.451 299.056 295.183 297.405 298.152 296.333C298.702 296.137 299.253 295.901 299.774 295.626C301.533 294.712 302.565 292.647 302.477 290.505L302.319 287.271L295.793 283.369C295.537 283.644 287.713 291.832 281.137 295.409C280.439 295.793 279.791 296.265 279.26 296.884C278.454 297.788 277.609 299.213 278.002 300.855Z" fill="#A78BEF"/>
<path opacity="0.48" d="M287.784 291.075C289.445 291.645 290.87 292.755 291.824 294.23C292.04 294.554 291.509 294.859 291.303 294.535C290.438 293.198 289.121 292.176 287.617 291.655C287.263 291.527 287.42 290.947 287.784 291.075Z" fill="#4FB664"/>
<path opacity="0.48" d="M285.846 292.343C287.448 292.756 288.853 293.778 289.748 295.174C289.954 295.498 289.433 295.803 289.227 295.478C288.411 294.22 287.133 293.306 285.679 292.932C285.315 292.824 285.472 292.244 285.846 292.343Z" fill="#4FB664"/>
<path d="M302.016 220.275C302.36 218.83 304.11 216.373 304.916 215.282C305.181 214.928 305.554 214.672 305.977 214.544L311.187 212.962C311.462 212.874 311.757 212.864 312.042 212.923C313.939 213.355 319.699 213.994 321.841 214.22C322.392 214.279 322.933 214.387 323.463 214.544C331.16 216.815 338.708 218.181 346.051 218.378C348.39 218.437 350.336 220.206 350.621 222.526C350.985 225.484 348.557 228.04 345.589 227.834C341.913 227.578 338.305 226.733 334.895 225.327L326.559 221.897C326.206 221.749 325.852 221.631 325.488 221.543L323.178 220.963C320.937 221.7 318.617 221.336 316.239 220.265L311.305 222.103C309.388 222.929 308.248 222.595 308.444 221.966C307.805 222.732 307.245 223.342 307.245 223.342C306.547 223.951 306.026 223.597 305.761 223.312C305.633 223.175 305.613 222.978 305.702 222.821L308.503 217.66L307.471 218.535L305.731 222.251C305.171 223.41 304.552 223.627 304.08 223.548C303.598 223.469 303.323 222.939 303.48 222.477L304.542 219.272C303.775 220.324 303.195 220.786 302.783 220.963C302.37 221.14 301.908 220.737 302.016 220.275ZM308.926 221.405C309.054 221.307 309.191 221.209 309.378 221.11L314.892 218.073L313.054 218.427C312.976 218.447 312.887 218.466 312.808 218.486L310.322 219.282C310.135 219.813 309.545 220.639 308.926 221.405Z" fill="#FFAB87"/>
<path opacity="0.53" d="M304.276 219.42C304.669 218.663 305.101 217.916 305.563 217.198C305.966 216.559 306.389 215.97 307.097 215.645C307.883 215.291 308.758 215.085 309.583 214.82C310.498 214.525 311.421 214.23 312.336 213.935C312.512 213.876 312.63 214.141 312.454 214.2C310.822 214.721 309.171 215.213 307.559 215.783C306.772 216.068 306.31 216.569 305.868 217.257C305.386 217.994 304.954 218.751 304.541 219.528C304.453 219.685 304.187 219.587 304.276 219.42Z" fill="#985235"/>
<path opacity="0.53" d="M308.276 217.759C308.443 217.395 308.738 217.159 309.082 216.972C309.544 216.727 310.055 216.53 310.537 216.324C311.471 215.911 312.404 215.488 313.387 215.213C313.564 215.164 313.613 215.449 313.436 215.498C312.542 215.744 311.697 216.127 310.851 216.501C310.429 216.687 310.006 216.864 309.593 217.051C309.18 217.238 308.748 217.434 308.542 217.867C308.463 218.034 308.197 217.926 308.276 217.759Z" fill="#985235"/>
<path d="M357.708 183.69C361.433 184.89 363.733 188.615 363.143 192.488C360.273 211.222 356.312 226.988 346.876 227.755L343.387 218.26L347.397 190.148C348.095 185.263 353.01 182.187 357.708 183.69Z" fill="#8367E8"/>
<path d="M342.121 218.161L343.989 215.203C354.486 217.66 352.117 226.447 352.117 226.447C349.316 228.875 345.591 227.843 345.591 227.843C346.672 222.644 342.121 218.161 342.121 218.161Z" fill="#8367E8"/>
<path d="M353.597 176.24L344.141 182.796L341.055 193.677C346.048 187.878 351.13 183.592 356.339 181.499C357.371 180.683 357.352 179.11 356.31 178.304L353.597 176.24Z" fill="white"/>
<path d="M334.689 302.192C334.552 302.988 334.404 303.804 334.247 304.619C334.247 304.619 336.399 309.839 335.869 315.923C335.731 317.604 334.453 318.901 332.94 318.99L325.705 319.412C324.939 319.462 324.182 319.648 323.464 319.973C322.796 320.277 321.901 320.69 320.958 321.132C317.793 322.568 314.264 322.735 311.001 321.575C310.234 321.309 309.477 320.995 308.819 320.67C307.256 319.894 306.794 317.663 307.934 316.238C309.084 314.812 311.345 313.004 315.778 311.284C315.778 311.284 325.312 307.873 325.666 301.926C325.676 301.759 325.686 301.582 325.676 301.395L319.798 262.747L319.365 259.906C318.559 254.658 321.321 249.537 325.872 247.807C325.872 247.807 330.699 247.404 335.259 250.362C336.173 250.952 337.127 251.483 338.07 251.994C341.815 253.999 345.432 255.621 348.991 256.761C342.956 258.196 334.355 260.388 333.067 261.548C333.097 261.558 339.063 276.773 334.689 302.192Z" fill="#231F20"/>
<path opacity="0.41" d="M319.383 259.926C319.442 259.759 319.501 259.592 319.569 259.425C322.204 253.173 330.097 253.733 335.552 254.736C338.088 255.198 340.594 255.788 343.14 256.23C344.536 256.476 345.961 256.663 347.376 256.584C347.642 256.574 347.917 256.545 348.192 256.496C344.889 255.375 341.538 253.851 338.078 251.994C337.124 251.483 336.181 250.952 335.267 250.362C330.706 247.413 325.88 247.806 325.88 247.806C321.339 249.556 318.587 254.667 319.383 259.926Z" fill="#004CAD"/>
<path d="M307.411 319.245C307.657 319.865 308.099 320.376 308.699 320.68C309.367 321.005 310.114 321.309 310.881 321.575C314.144 322.745 317.673 322.568 320.838 321.133C321.782 320.7 322.676 320.277 323.344 319.973C324.052 319.639 324.809 319.452 325.576 319.403L332.81 318.98C334.333 318.891 335.601 317.594 335.739 315.913C336.27 309.829 334.117 304.61 334.117 304.61C334.284 303.794 334.422 302.978 334.559 302.182L333.586 302.152L325.546 301.926C325.182 307.873 315.658 311.284 315.658 311.284C311.225 312.994 308.964 314.812 307.814 316.238C307.136 317.122 307.028 318.292 307.411 319.245Z" fill="#A78BEF"/>
<path d="M307.53 319.245C307.688 319.383 307.855 319.491 308.042 319.579C308.7 319.904 309.457 320.209 310.224 320.474C313.487 321.634 317.006 321.467 320.181 320.032C321.124 319.599 322.029 319.176 322.687 318.872C323.395 318.547 324.152 318.351 324.918 318.312L332.153 317.889C333.676 317.8 334.944 316.503 335.082 314.812C335.622 308.738 333.46 303.519 333.46 303.519L333.716 302.162L325.675 301.936C325.312 307.883 315.787 311.293 315.787 311.293C311.354 313.004 309.093 314.822 307.943 316.247C307.245 317.122 307.147 318.292 307.53 319.245Z" fill="#A78BEF"/>
<path opacity="0.48" d="M319.482 309.455C321.586 309.495 323.62 310.428 325.016 312.001C325.272 312.286 324.849 312.719 324.594 312.424C323.296 310.969 321.438 310.094 319.482 310.055C319.089 310.055 319.089 309.455 319.482 309.455Z" fill="#4FB664"/>
<path opacity="0.48" d="M317.507 310.556C319.463 310.989 321.271 311.981 322.677 313.397C322.952 313.672 322.53 314.095 322.254 313.819C320.908 312.473 319.207 311.539 317.35 311.126C316.966 311.057 317.123 310.478 317.507 310.556Z" fill="#4FB664"/>
<path d="M140.198 328.416H135.922L148.739 269.942H153.005L140.198 328.416Z" fill="#4A3333"/>
<path opacity="0.34" d="M146.273 281.187L148.741 269.942H153.006L150.549 281.187H146.273Z" fill="#4A3333"/>
<path d="M191.36 328.416H195.636L182.819 269.942H178.543L191.36 328.416Z" fill="#4A3333"/>
<path opacity="0.34" d="M181.01 281.187L178.543 269.942H182.819L185.286 281.187H181.01Z" fill="#4A3333"/>
<path d="M141.279 260.594V223.745H131.125V262.069C131.125 265.725 133.622 268.792 137.003 269.677V269.942H138.998H141.279H194.926C195.32 269.942 195.634 269.627 195.634 269.234C195.634 264.467 191.771 260.604 187.004 260.604H141.279V260.594Z" fill="#4A3333"/>
<path opacity="0.34" d="M141.269 223.745H131.125V238.597H141.269V223.745Z" fill="#4A3333"/>
<path d="M142.555 235.225H131.88C129.61 235.225 127.762 233.377 127.762 231.107V219.99C127.762 217.719 129.61 215.871 131.88 215.871H138.495C140.225 215.871 141.768 216.953 142.368 218.574L146.437 229.691C147.41 232.384 145.425 235.225 142.555 235.225Z" fill="#4A3333"/>
<path opacity="0.34" d="M139.114 232.335C135.92 230.409 133.099 226.87 133.177 222.968C133.207 221.572 133.521 220.118 134.082 218.84C134.534 217.808 135.379 216.392 136.716 216.609C137.286 216.707 137.699 216.314 137.817 215.871H138.505C140.235 215.871 141.778 216.953 142.378 218.574L146.447 229.691C147.056 231.372 146.516 233.102 145.326 234.173C143.115 234.144 140.992 233.466 139.114 232.335Z" fill="#4A3333"/>
<path d="M198.755 227.696C198.402 227.529 197.92 227.126 197.301 226.202L198.126 228.974C198.244 229.377 197.999 229.819 197.586 229.878C197.173 229.937 196.662 229.731 196.21 228.728L194.824 225.504L193.949 224.727L196.21 229.219C196.278 229.357 196.259 229.524 196.151 229.642C195.915 229.878 195.463 230.163 194.883 229.632C194.883 229.632 194.421 229.101 193.9 228.423C194.047 228.974 193.064 229.229 191.452 228.463L187.285 226.752C185.221 227.598 183.225 227.853 181.328 227.155L179.343 227.588C179.028 227.657 178.714 227.745 178.419 227.863L171.204 230.576C168.255 231.687 165.139 232.306 161.994 232.434C159.448 232.532 157.433 230.281 157.827 227.755C158.131 225.769 159.842 224.315 161.847 224.324C168.137 224.364 174.625 223.401 181.269 221.661C181.731 221.543 182.193 221.464 182.665 221.425C184.503 221.287 189.447 220.904 191.079 220.58C191.325 220.53 191.57 220.55 191.806 220.629L196.219 222.123C196.573 222.241 196.888 222.477 197.104 222.781C197.772 223.735 199.198 225.887 199.453 227.136C199.532 227.539 199.129 227.873 198.755 227.696ZM192.376 226.074L190.273 225.327C190.204 225.307 190.135 225.278 190.066 225.268L188.504 224.914L193.133 227.657C193.281 227.745 193.408 227.833 193.507 227.922C193.005 227.244 192.524 226.526 192.376 226.074Z" fill="#FFAB87"/>
<path opacity="0.61" d="M198.755 227.696C198.402 227.529 197.92 227.126 197.301 226.202L198.126 228.974C198.244 229.377 197.999 229.819 197.586 229.878C197.173 229.937 196.662 229.731 196.21 228.728L194.824 225.504L193.949 224.727L196.21 229.219C196.278 229.357 196.259 229.524 196.151 229.642C195.915 229.878 195.463 230.163 194.883 229.632C194.883 229.632 194.421 229.101 193.9 228.423C194.047 228.974 193.064 229.229 191.452 228.463L187.285 226.752C185.221 227.598 183.225 227.853 181.328 227.155L179.343 227.588C179.028 227.657 178.714 227.745 178.419 227.863L171.204 230.576C168.255 231.687 165.139 232.306 161.994 232.434C159.448 232.532 157.433 230.281 157.827 227.755C158.131 225.769 159.842 224.315 161.847 224.324C168.137 224.364 174.625 223.401 181.269 221.661C181.731 221.543 182.193 221.464 182.665 221.425C184.503 221.287 189.447 220.904 191.079 220.58C191.325 220.53 191.57 220.55 191.806 220.629L196.219 222.123C196.573 222.241 196.888 222.477 197.104 222.781C197.772 223.735 199.198 225.887 199.453 227.136C199.532 227.539 199.129 227.873 198.755 227.696ZM192.376 226.074L190.273 225.327C190.204 225.307 190.135 225.278 190.066 225.268L188.504 224.914L193.133 227.657C193.281 227.745 193.408 227.833 193.507 227.922C193.005 227.244 192.524 226.526 192.376 226.074Z" fill="#FFAB87"/>
<path d="M197.546 226.349C197.222 225.691 196.878 225.042 196.504 224.413C196.17 223.863 195.826 223.342 195.236 223.047C194.568 222.722 193.831 222.516 193.133 222.27C192.356 221.995 191.58 221.71 190.803 221.435C190.656 221.386 190.548 221.602 190.695 221.661C192.071 222.152 193.477 222.614 194.843 223.145C195.512 223.41 195.885 223.853 196.249 224.452C196.632 225.091 196.996 225.76 197.32 226.438C197.379 226.575 197.615 226.487 197.546 226.349Z" fill="#FFAB87"/>
<path d="M194.166 224.816C194.028 224.501 193.783 224.285 193.498 224.118C193.104 223.892 192.682 223.715 192.269 223.519C191.483 223.145 190.696 222.752 189.861 222.486C189.713 222.437 189.664 222.683 189.812 222.732C190.569 222.968 191.276 223.322 191.994 223.666C192.348 223.833 192.701 224 193.055 224.177C193.399 224.344 193.763 224.531 193.93 224.904C193.999 225.042 194.235 224.963 194.166 224.816Z" fill="#FFAB87"/>
<path d="M135.918 191.613L136.596 181.715L138.562 182.226L145.796 184.084C145.796 184.084 145.521 188.094 145.374 191.583C145.305 193.077 144.981 195.918 144.99 196.871C145.895 199.407 136.842 194.355 135.918 191.613Z" fill="#FFAB87"/>
<path opacity="0.61" d="M145.806 184.958C145.806 184.958 145.462 189.136 145.314 192.753C140.016 192.733 137.736 190.04 138.719 184.929L145.806 184.958Z" fill="#FFAB87"/>
<path d="M130.109 174.707C129.971 178.648 133.942 178.629 133.942 178.629C134.414 180.152 135.132 181.43 135.82 182.423C135.889 182.531 135.967 182.639 136.046 182.747C136.124 182.855 136.203 182.963 136.282 183.062C137.088 184.103 137.756 184.683 137.756 184.683C140.233 186.875 142.405 188.094 144.234 188.733C147.87 190.011 151.812 188.605 153.797 185.529C155.144 183.425 155.655 181.086 155.576 178.678C155.567 178.55 155.567 178.432 155.557 178.294C155.547 178.167 155.537 178.039 155.527 177.901C155.508 177.665 155.478 177.42 155.449 177.184C155.38 176.722 155.321 176.27 155.262 175.808C155.056 174.304 154.859 172.81 154.761 171.306C154.633 169.143 153.306 166.961 151.999 165.153C151.163 163.993 150.161 162.951 148.961 162.145C145.777 160.012 141.069 159.619 137.53 161.064C132.576 163.079 132.075 167.934 133.421 172.299C130.256 170.765 130.109 174.707 130.109 174.707Z" fill="#FFAB87"/>
<path d="M226.119 323.354C221.205 326.568 211.041 317.859 206.628 313.702C207.021 311.578 208.692 308.738 209.459 307.617C204.122 291.389 200.691 267.544 202.519 259.258L214.639 260.054L215.622 300.068C215.14 305.425 216.487 310.792 219.445 315.294L221.362 318.213C222.65 320.169 224.262 321.889 226.119 323.354Z" fill="#FFAB87"/>
<path opacity="0.61" d="M210.667 287.33C206.942 283.379 204.445 278.375 202.45 273.343C201.89 267.337 201.85 262.265 202.519 259.248L214.638 260.044L215.405 291.153C213.645 290.121 212.063 288.814 210.667 287.33Z" fill="#FFAB87"/>
<path d="M229.059 328.76H222.906C220.626 328.76 218.424 327.915 216.723 326.391L212.585 322.656L211.504 322.115V328.77H208.447L206.491 317.063L206.481 316.975C206.334 316.247 206.491 314.468 206.619 313.702C206.816 312.728 207.169 311.775 207.622 310.851C212.035 315.019 221.196 326.578 226.12 323.364C226.474 323.639 226.838 323.914 227.211 324.17C228.528 325.084 229.433 325.919 230.052 326.617C230.789 327.433 230.18 328.76 229.059 328.76Z" fill="#A78BEF"/>
<path d="M143.919 243.649L166.251 239.648C166.251 239.648 162.949 231.588 162.811 228.119L162.438 222.26C167.352 211.91 162.339 208.136 150.092 199.014C149.886 198.857 149.689 198.69 149.512 198.503L145.128 194.719C140.312 194.286 137.481 192.153 136.027 188.851C136.027 188.851 126.974 199.761 131.879 211.537C137.285 224.462 143.919 243.649 143.919 243.649Z" fill="#A78BEF"/>
<path d="M153.944 223.981C154.455 226.556 157.482 240.484 157.6 241.182L143.908 243.639C143.908 243.639 137.274 224.462 131.877 211.527C131.14 209.768 130.717 208.028 130.541 206.337C130.226 203.447 132.212 200.735 135.091 200.302C135.111 200.302 135.121 200.302 135.141 200.292C135.386 200.253 135.632 200.233 135.878 200.204C141.628 199.712 146.926 203.398 148.803 208.863C150.631 214.191 153.698 222.723 153.944 223.981Z" fill="#8367E8"/>
<path d="M197.656 247.472C197.764 248.18 197.892 248.986 198.03 249.831C198.6 253.478 199.367 258.137 199.946 261.361C202.473 261.558 204.969 262.177 207.309 263.209C207.151 263.219 208.095 270.728 211.27 276.488C216.922 286.77 229.867 310.458 229.867 310.458V310.832L230.034 310.999C231.115 312.08 233.729 314.616 236.855 317.083C241.042 320.376 246.134 323.521 249.653 322.794C247.844 321.899 246.252 320.612 245.004 319.009L236.383 307.961C236.383 307.961 221.974 265.529 218.504 254.569C218.357 254.087 218.17 253.616 217.904 253.183C216.135 250.352 207.25 248.573 197.656 247.472Z" fill="#FFAB87"/>
<path d="M255.148 328.445L248.307 328.75C246.527 328.829 244.768 328.318 243.313 327.295L239.49 324.612C238.291 323.777 236.905 323.216 235.45 323.01C235.263 322.98 235.076 322.951 234.9 322.921V328.76H231.843C231.843 328.76 230.329 319.589 230.299 319.55C228.383 316.365 230.329 311.303 229.867 310.841C229.916 310.89 229.965 310.94 230.034 311.008C232.56 313.535 243.51 324.071 249.663 322.803C250.302 323.128 250.97 323.393 251.658 323.609C253.703 324.258 255.069 324.956 255.983 325.615C257.192 326.47 256.632 328.377 255.148 328.445Z" fill="#A78BEF"/>
<path d="M199.945 261.361C198.491 261.243 197.016 261.273 195.561 261.449L152.018 260.378C148.46 260.771 140.577 261.862 143.909 243.639L166.241 239.638L167.981 244.042C167.981 244.042 184.13 244.543 197.655 247.472C198.235 251.217 199.218 257.39 199.945 261.361Z" fill="#231F20"/>
<path d="M192.907 227.774C192.475 227.922 191.865 227.814 191.157 226.811L188.956 223.577L187.855 222.909L191.275 227.342C191.384 227.48 191.393 227.666 191.295 227.814C191.089 228.119 190.656 228.531 189.909 228.069C189.909 228.069 189.3 227.588 188.572 226.959C188.848 227.529 187.835 228.01 185.909 227.519L180.994 226.536C178.92 227.902 176.787 228.59 174.576 228.236L172.492 229.121C172.158 229.259 171.843 229.426 171.538 229.613L164.225 234.095C161.237 235.933 157.964 237.27 154.553 238.066C154.141 238.164 153.728 238.193 153.335 238.174C144.341 238.881 138.247 224.649 132.713 207.467C131.573 203.919 133.175 200.066 136.497 198.375C140.684 196.252 145.776 198.405 147.172 202.887L155.192 228.718C161.247 227.342 167.302 225.13 173.367 222.221C173.838 221.995 174.33 221.808 174.841 221.671C176.826 221.13 182.144 219.665 183.864 218.968C184.12 218.859 184.405 218.83 184.67 218.869L189.811 219.567C190.224 219.626 190.617 219.813 190.922 220.108C191.846 221.012 193.86 223.066 194.411 224.364C194.588 224.786 194.214 225.239 193.772 225.121C193.349 225.012 192.74 224.678 191.865 223.803L193.349 226.664C193.526 227.086 193.349 227.627 192.907 227.774ZM186.42 224.708L183.962 224.334C183.884 224.324 183.805 224.315 183.727 224.315L181.947 224.265L187.589 226.29C187.776 226.359 187.924 226.428 188.061 226.497C187.354 225.858 186.675 225.17 186.42 224.708Z" fill="#FFAB87"/>
<path d="M192.129 223.912C191.637 223.253 191.126 222.624 190.586 222.015C190.104 221.474 189.622 220.983 188.905 220.786C188.109 220.57 187.253 220.501 186.438 220.383C185.533 220.245 184.619 220.108 183.715 219.96C183.538 219.931 183.469 220.196 183.646 220.226C185.258 220.471 186.88 220.678 188.492 220.973C189.278 221.12 189.78 221.523 190.301 222.103C190.861 222.722 191.392 223.371 191.893 224.039C191.991 224.197 192.227 224.059 192.129 223.912Z" fill="#FFAB87"/>
<path d="M188.11 222.958C187.893 222.644 187.579 222.457 187.225 222.339C186.753 222.172 186.252 222.073 185.761 221.946C184.817 221.7 183.883 221.444 182.91 221.326C182.733 221.307 182.733 221.582 182.91 221.602C183.785 221.7 184.64 221.936 185.495 222.152C185.918 222.26 186.34 222.368 186.763 222.486C187.176 222.594 187.618 222.722 187.874 223.096C187.972 223.243 188.218 223.106 188.11 222.958Z" fill="#FFAB87"/>
<path d="M139.721 208.667C142.415 206.475 145.727 206.642 148.705 207.91L147.152 202.907C145.756 198.425 140.665 196.272 136.478 198.395C133.155 200.086 131.553 203.939 132.693 207.487C133.647 210.465 134.63 213.345 135.632 216.088C136.045 213.218 137.431 210.534 139.721 208.667Z" fill="#8367E8"/>
<path d="M170.978 322.784H164.727L195.689 234.36H201.94L170.978 322.784Z" fill="#4A3333"/>
<path d="M177.208 239.727H330.456C333.394 239.727 335.773 237.348 335.773 234.409V231.981C335.773 229.042 333.394 226.664 330.456 226.664H177.208C174.269 226.664 171.891 229.042 171.891 231.981V234.409C171.881 237.338 174.269 239.727 177.208 239.727Z" fill="#4A3333"/>
<path opacity="0.34" d="M175.154 233.19H332.5C334.309 233.19 335.763 231.726 335.763 229.927C335.763 228.119 334.299 226.664 332.5 226.664H175.154C173.345 226.664 171.891 228.128 171.891 229.927C171.881 231.726 173.345 233.19 175.154 233.19Z" fill="#4A3333"/>
<path d="M262.59 226.783H289.492V221.082H262.59V226.783Z" fill="#064589"/>
<path d="M265.051 226.783H289.496V221.082H265.051V226.783Z" fill="#A78BEF"/>
<path d="M252.473 196.174L259.039 220.825H296.164L289.588 196.174H252.473Z" fill="#FF9C00"/>
<path d="M248.002 195.2L255.266 222.408C255.394 222.87 255.767 223.184 256.2 223.184H257.546L249.703 193.795H248.946C248.287 193.805 247.815 194.503 248.002 195.2Z" fill="#E93F23"/>
<path d="M248.002 195.2L255.266 222.408C255.394 222.87 255.767 223.184 256.2 223.184H257.546L249.703 193.795H248.946C248.287 193.805 247.815 194.503 248.002 195.2Z" fill="#064589"/>
<path d="M291.094 193.805L298.938 223.194H257.547L249.703 193.805H291.094ZM259.041 220.825H296.166L289.59 196.183H252.475L259.041 220.825Z" fill="#A78BEF"/>
<path d="M252.473 196.174L259.039 220.825H296.164L289.588 196.174H252.473Z" fill="#FF9C00"/>
<path d="M252.473 196.174L259.039 220.825H296.164L289.588 196.174H252.473Z" fill="white"/>
<path d="M252.465 196.183L252.72 197.107H288.676L294.996 220.825H296.175L289.59 196.183H252.465Z" fill="#064589"/>
<path d="M269.289 216.166H271.088L267.156 200.833H265.348L269.289 216.166Z" fill="#E527BB"/>
<path d="M265.447 216.166H267.255L264.336 204.44H262.527L265.447 216.166Z" fill="#E527BB"/>
<path d="M261.614 216.166H263.423L261.477 208.008H259.668L261.614 216.166Z" fill="#E527BB"/>
<path d="M260.572 216.471H272.987C273.085 216.471 273.173 216.432 273.223 216.353C273.282 216.274 273.301 216.176 273.272 216.088L269.183 200.754C269.143 200.587 268.976 200.499 268.809 200.538C268.652 200.577 268.554 200.744 268.593 200.911L272.584 215.862H260.563C260.395 215.862 260.258 215.999 260.258 216.166C260.268 216.333 260.405 216.471 260.572 216.471Z" fill="#E527BB"/>
<path d="M273.371 205.108H287.732C288.194 205.108 288.459 204.686 288.322 204.174C288.184 203.663 287.702 203.241 287.24 203.241H272.88C272.418 203.241 272.153 203.663 272.29 204.174C272.418 204.686 272.909 205.108 273.371 205.108Z" fill="#E527BB"/>
<path d="M274.52 209.433H288.88C289.342 209.433 289.608 209.011 289.47 208.499C289.333 207.988 288.851 207.566 288.389 207.566H274.028C273.566 207.566 273.301 207.988 273.439 208.499C273.576 209.011 274.058 209.433 274.52 209.433Z" fill="#E527BB"/>
<path d="M279.356 213.758H290.03C290.492 213.758 290.758 213.335 290.62 212.824C290.483 212.313 290.001 211.89 289.539 211.89H278.864C278.402 211.89 278.137 212.313 278.275 212.824C278.402 213.335 278.894 213.758 279.356 213.758Z" fill="#E527BB"/>
<path d="M299.637 223.774V226.782H320.976C320.976 225.956 320.642 225.199 320.101 224.649C319.561 224.098 318.823 223.764 317.998 223.764H299.637V223.774Z" fill="#A78BEF"/>
<path opacity="0.52" d="M299.637 223.774V226.782H310.901C310.901 225.956 310.567 225.199 310.026 224.649C309.486 224.098 308.748 223.764 307.923 223.764H299.637V223.774Z" fill="#E93F23"/>
<path d="M129.018 165.497C129.077 163.806 129.195 162.086 129.746 160.484C130.296 158.882 131.328 157.388 132.832 156.591C133.245 156.375 133.697 156.208 134.12 156.002C134.641 155.756 135.122 155.441 135.633 155.166C139.182 153.24 143.575 153.269 147.389 154.616C149.552 155.382 151.606 156.572 153.12 158.302C154.692 160.1 155.616 162.391 156.088 164.73C156.56 167.069 156.599 169.478 156.579 171.866C156.57 172.741 156.56 173.625 156.786 174.471C157.002 175.316 157.494 176.132 158.26 176.545C157.572 176.908 156.776 177.056 156.009 176.967C155.852 176.948 155.685 176.908 155.587 176.79C155.508 176.702 155.479 176.574 155.459 176.456C154.908 173.508 154.535 170.529 154.319 167.531C151.793 166.48 149.817 164.386 148.048 162.283C148.49 163.157 148.274 164.307 147.546 164.966C146.701 165.733 145.453 165.742 144.313 165.831C143.035 165.939 141.718 166.224 140.705 167.001C139.663 167.807 139.015 169.114 139.024 170.431C139.034 171.748 139.693 173.046 140.745 173.842C139.713 174.176 138.572 174.186 137.53 173.881C138.327 174.815 137.973 176.466 136.862 176.987C136.518 177.154 136.095 177.233 135.859 177.538C135.624 177.842 135.643 178.294 135.85 178.629C136.056 178.953 136.4 179.169 136.764 179.307C135.466 179.444 134.149 178.992 133.078 178.245C132.006 177.498 131.151 176.476 130.434 175.395C130.07 174.844 129.736 174.264 129.5 173.645C129.117 172.603 129.048 171.473 129.009 170.362C128.969 168.731 128.959 167.119 129.018 165.497Z" fill="#231F20"/>
<path d="M389.119 157.108C389.127 156.696 389.097 156.269 389.014 155.835C388.393 152.554 385.471 150.104 382.123 150.104H369.036C365.163 150.104 362.031 153.243 362.031 157.108C362.031 160.974 365.17 164.113 369.036 164.113H379.703V168.78C381.351 167.274 382.992 165.753 384.655 164.263C386.797 162.345 389.052 160.053 389.119 157.108Z" fill="#A78BEF"/>
<g opacity="0.43">
<path d="M383.959 155.977H367.988C367.83 155.977 367.703 155.85 367.703 155.693C367.703 155.535 367.83 155.408 367.988 155.408H383.959C384.116 155.408 384.244 155.535 384.244 155.693C384.236 155.85 384.116 155.977 383.959 155.977Z" fill="#231F20"/>
<path d="M383.959 158.794H367.988C367.83 158.794 367.703 158.667 367.703 158.509C367.703 158.352 367.83 158.225 367.988 158.225H383.959C384.116 158.225 384.244 158.352 384.244 158.509C384.236 158.667 384.116 158.794 383.959 158.794Z" fill="#231F20"/>
</g>
</g>
<g opacity="0.73">
<path d="M421.201 247.681C421.024 251.987 421.408 256.321 421.211 260.656C420.975 266.032 420.503 271.311 419.815 276.648C419.137 281.916 418.439 287.185 417.692 292.444C417.319 295.097 416.975 297.751 416.631 300.405C416.532 301.192 415.284 305.575 415.844 306.303C416.405 307.03 415.284 307.905 414.734 307.178C414.144 306.411 414.468 305.379 414.586 304.494C414.93 301.968 415.314 299.442 415.648 296.906C416.414 291.156 417.309 285.426 418.017 279.675C418.705 274.112 419.52 268.588 419.727 262.985C419.835 260.076 420.071 257.147 420.081 254.237C420.091 251.987 419.707 249.765 419.806 247.514C419.825 246.61 421.241 246.777 421.201 247.681Z" fill="#E8D7CD"/>
<path d="M421.201 247.681C421.024 251.987 421.408 256.321 421.211 260.656C420.975 266.032 420.503 271.311 419.815 276.648C419.137 281.916 418.439 287.185 417.692 292.444C417.319 295.097 416.975 297.751 416.631 300.405C416.532 301.192 415.284 305.575 415.844 306.303C416.405 307.03 415.284 307.905 414.734 307.178C414.144 306.411 414.468 305.379 414.586 304.494C414.93 301.968 415.314 299.442 415.648 296.906C416.414 291.156 417.309 285.426 418.017 279.675C418.705 274.112 419.52 268.588 419.727 262.985C419.835 260.076 420.071 257.147 420.081 254.237C420.091 251.987 419.707 249.765 419.806 247.514C419.825 246.61 421.241 246.777 421.201 247.681Z" fill="#319E5D"/>
<path d="M443.568 215.57C441.376 218.145 439.057 220.376 437.396 223.384C435.322 227.148 433.778 231.267 432.206 235.267C429.247 242.777 426.692 250.434 424.352 258.15C422.573 264.028 420.627 269.935 419.477 275.98C418.632 280.433 418.14 284.934 417.59 289.436C417.324 291.599 416.941 293.702 416.489 295.825C416.243 296.985 416.145 299.275 415.241 300.042C414.543 300.632 415.417 301.742 416.115 301.152C417.383 300.081 417.432 298.145 417.757 296.621C418.71 292.051 419.212 287.48 419.831 282.86C420.833 275.351 422.838 268.205 424.991 260.971C427.144 253.746 429.463 246.561 432.107 239.504C433.759 235.1 435.489 230.707 437.464 226.45C439.322 222.44 441.917 219.717 444.708 216.435C445.288 215.727 444.158 214.881 443.568 215.57Z" fill="#E8D7CD"/>
<g opacity="0.49">
<path d="M443.568 215.57C441.376 218.145 439.057 220.376 437.396 223.384C435.322 227.148 433.778 231.267 432.206 235.267C429.247 242.777 426.692 250.434 424.352 258.15C422.573 264.028 420.627 269.935 419.477 275.98C418.632 280.433 418.14 284.934 417.59 289.436C417.324 291.599 416.941 293.702 416.489 295.825C416.243 296.985 416.145 299.275 415.241 300.042C414.543 300.632 415.417 301.742 416.115 301.152C417.383 300.081 417.432 298.145 417.757 296.621C418.71 292.051 419.212 287.48 419.831 282.86C420.833 275.351 422.838 268.205 424.991 260.971C427.144 253.746 429.463 246.561 432.107 239.504C433.759 235.1 435.489 230.707 437.464 226.45C439.322 222.44 441.917 219.717 444.708 216.435C445.288 215.727 444.158 214.881 443.568 215.57Z" fill="#319E5D"/>
</g>
<path d="M466.931 232.387C465.978 224.593 462.754 218.626 456.208 214.567C453.947 213.161 449.357 210.606 446.713 210.114C444.363 209.672 445.022 212.208 446.722 212.257L446.015 212.178C445.887 211.726 442.083 211.638 441.385 211.775C438.987 212.257 438.456 213.682 438.309 215.972C438.191 217.791 438.761 219.835 439.429 221.516C439.97 222.873 441.827 225.684 443.38 226.018C443.695 223.964 441.533 220.445 443.577 218.676C446.339 220.484 446.3 223.118 446.388 226.175C446.418 227.089 446.172 227.365 446.821 227.866C447.155 228.121 448.383 228.416 448.826 228.564C450.625 229.163 450.625 227.768 450.772 226.254C450.939 224.455 450.546 222.715 450.585 220.926C452.109 222.548 453.278 223.305 453.563 225.684C453.76 227.315 453.672 229.281 453.269 230.893C454.743 231.719 456.119 232.633 457.574 233.508C458.488 231.66 458.065 229.242 458.95 227.551C461.319 229.478 460.464 231.886 460.768 234.402C460.906 235.493 462.105 236.575 462.901 237.508C464.012 238.796 464.474 240.093 465.28 241.558C466.862 238.619 467.305 235.483 466.931 232.387Z" fill="#39B039"/>
<path d="M406.421 271.173C408.17 276.54 408.701 282.526 409.605 288.099C410.382 292.856 411.601 297.967 411.227 302.813C411.158 303.727 409.753 303.56 409.822 302.646C410.185 297.948 408.957 292.925 408.21 288.305C407.325 282.88 406.834 276.962 405.133 271.733C404.838 270.878 406.136 270.298 406.421 271.173Z" fill="#E8D7CD"/>
<path d="M406.421 271.173C408.17 276.54 408.701 282.526 409.605 288.099C410.382 292.856 411.601 297.967 411.227 302.813C411.158 303.727 409.753 303.56 409.822 302.646C410.185 297.948 408.957 292.925 408.21 288.305C407.325 282.88 406.834 276.962 405.133 271.733C404.838 270.878 406.136 270.298 406.421 271.173Z" fill="#319E5D"/>
<path d="M398.114 267.812C400.876 266.268 404.09 267.035 405.732 269.65C405.741 269.473 405.81 269.512 405.899 269.443L405.958 268.971C407.403 267.841 411.501 268.156 413.349 268.765C416.121 269.679 418.598 272.972 418.834 275.803C418.952 277.228 418.559 279.007 417.536 279.98C417.025 278.349 416.947 276.668 415.541 275.449C414.774 274.781 411.01 273.807 411.511 275.862C411.659 276.452 413.064 277.552 413.398 278.299C413.772 279.164 413.919 279.961 413.949 280.884C413.968 281.563 414.096 282.752 413.644 283.332C413.143 283.961 411.826 284.049 411.138 284.492C410.902 283.155 411.354 281.71 411.049 280.314C410.735 278.879 410.125 277.061 408.946 276.117C408.631 277.071 407.953 277.828 407.648 278.82C407.275 280.059 407.167 281.474 407.059 282.772C407 283.548 407.353 284.767 407.196 285.426C407 286.271 405.594 287.215 405.024 287.883C404.12 286.625 404.355 284.728 403.549 283.361C399.47 285.327 403.894 292.326 399.598 294.645C400.994 291.726 397.976 289.78 397.003 287.372C395.804 284.423 398.055 282.28 399.726 280.128C398.576 279.528 397.111 280.167 396.207 280.973C395.313 281.769 395.45 282.487 394.939 283.43C394.163 280.344 392.934 275.685 397.337 275.233C398.271 275.134 399.264 275.655 399.667 274.859C400.099 274.014 399.48 273.257 398.851 272.913C396.905 271.832 394.566 273.011 393.484 274.692C393.543 272.304 396.109 268.922 398.114 267.812Z" fill="#E8D7CD"/>
<path d="M398.114 267.812C400.876 266.268 404.09 267.035 405.732 269.65C405.741 269.473 405.81 269.512 405.899 269.443L405.958 268.971C407.403 267.841 411.501 268.156 413.349 268.765C416.121 269.679 418.598 272.972 418.834 275.803C418.952 277.228 418.559 279.007 417.536 279.98C417.025 278.349 416.947 276.668 415.541 275.449C414.774 274.781 411.01 273.807 411.511 275.862C411.659 276.452 413.064 277.552 413.398 278.299C413.772 279.164 413.919 279.961 413.949 280.884C413.968 281.563 414.096 282.752 413.644 283.332C413.143 283.961 411.826 284.049 411.138 284.492C410.902 283.155 411.354 281.71 411.049 280.314C410.735 278.879 410.125 277.061 408.946 276.117C408.631 277.071 407.953 277.828 407.648 278.82C407.275 280.059 407.167 281.474 407.059 282.772C407 283.548 407.353 284.767 407.196 285.426C407 286.271 405.594 287.215 405.024 287.883C404.12 286.625 404.355 284.728 403.549 283.361C399.47 285.327 403.894 292.326 399.598 294.645C400.994 291.726 397.976 289.78 397.003 287.372C395.804 284.423 398.055 282.28 399.726 280.128C398.576 279.528 397.111 280.167 396.207 280.973C395.313 281.769 395.45 282.487 394.939 283.43C394.163 280.344 392.934 275.685 397.337 275.233C398.271 275.134 399.264 275.655 399.667 274.859C400.099 274.014 399.48 273.257 398.851 272.913C396.905 271.832 394.566 273.011 393.484 274.692C393.543 272.304 396.109 268.922 398.114 267.812Z" fill="#39B039"/>
<path d="M437.626 265.767C437.548 267.045 437.735 268.677 438.334 269.836C438.953 271.045 439.514 272.785 440.575 273.689C440.9 272.461 440.585 271.026 440.782 269.728C440.89 269.001 440.939 268.421 441.735 268.283C442.305 268.185 442.973 268.509 443.18 269.06C443.524 269.954 442.905 271.429 442.62 272.245C442.04 273.906 442.403 274.81 443.986 275.587C445.254 276.206 446.276 276.589 447.691 276.796C447.003 275.803 446.758 274.289 446.876 273.1C446.944 272.372 447.495 270.19 448.566 270.583C449.451 270.908 448.94 272.942 449.097 273.689C449.608 276.058 452.154 277.326 454.385 277.474C454.69 276.314 454.808 274.898 454.483 273.739C454.316 273.11 452.685 270.986 453.923 270.652C454.719 270.436 455.643 272.549 456.371 274.584C457.167 276.835 458.779 278.702 460.902 279.793L464.234 281.514C464.234 281.514 464.843 277.503 464.932 276.815C465.266 274.368 465.64 272.756 463.281 271.488C462.484 271.055 459.762 270.21 459.968 268.962C460.184 267.625 462.258 268.657 462.858 269.099C463.644 269.679 464.588 272.038 465.433 270.633C466.878 268.224 464.323 265.58 462.573 264.263C460.853 262.966 458.73 262.406 456.734 261.659C456.439 261.55 456.135 261.432 455.879 261.236C454.945 260.489 455.476 258.936 456.489 258.572C457.128 258.346 457.865 258.513 458.425 258.887C459.447 259.575 460.784 262.789 462.317 262.376C463.29 262.111 462.711 260.184 462.534 259.535C461.787 256.832 458.818 255.132 456.498 253.884C454.405 252.763 452.341 252.055 449.972 252.694C448.153 253.186 445.627 255.388 446.089 257.52C444.89 257.609 443.74 257.973 442.6 258.503C439.917 259.762 437.813 262.789 437.626 265.767ZM462.553 259.555C461.806 256.852 458.838 255.152 456.518 253.903L462.553 259.555ZM446.925 257.53L447.053 257.52C447.2 257.54 447.338 257.55 447.485 257.57C447.298 257.55 447.112 257.53 446.925 257.53Z" fill="#39B039"/>
<path d="M451.279 261.56C447.004 256.548 441.067 258.317 436.477 261.718C432.044 265.001 429.183 268.755 426.962 273.808C424.947 278.378 423.463 283.244 422.745 288.188C422.401 290.557 422.205 292.945 422.185 295.334C422.165 296.641 422.234 297.958 422.077 299.265C421.949 300.327 421.625 301.251 421.88 302.342C422.037 303.04 420.946 303.197 420.789 302.509C420.563 301.546 420.75 300.72 420.887 299.747C421.104 298.233 421.084 296.739 421.094 295.206C421.123 292.011 421.448 288.817 422.047 285.681C423.148 279.921 425.202 274.122 428.141 269.05C432.466 261.551 444.507 251.908 452.154 260.872C452.606 261.423 451.741 262.101 451.279 261.56Z" fill="#E8D7CD"/>
<path d="M451.279 261.56C447.004 256.548 441.067 258.317 436.477 261.718C432.044 265.001 429.183 268.755 426.962 273.808C424.947 278.378 423.463 283.244 422.745 288.188C422.401 290.557 422.205 292.945 422.185 295.334C422.165 296.641 422.234 297.958 422.077 299.265C421.949 300.327 421.625 301.251 421.88 302.342C422.037 303.04 420.946 303.197 420.789 302.509C420.563 301.546 420.75 300.72 420.887 299.747C421.104 298.233 421.084 296.739 421.094 295.206C421.123 292.011 421.448 288.817 422.047 285.681C423.148 279.921 425.202 274.122 428.141 269.05C432.466 261.551 444.507 251.908 452.154 260.872C452.606 261.423 451.741 262.101 451.279 261.56Z" fill="#319E5D"/>
<path d="M446.867 258.081C446.651 257.982 446.445 257.884 446.228 257.786C446.111 257.737 446.189 257.55 446.307 257.599C446.946 257.874 447.565 258.179 448.175 258.503C449.138 256.085 452.529 255.397 454.79 254.916C454.917 254.886 454.947 255.083 454.819 255.112C452.647 255.574 449.275 256.262 448.352 258.592C449.207 259.064 450.032 259.584 450.819 260.155C451.625 258.592 453.119 257.54 454.868 257.334C454.996 257.314 455.026 257.52 454.898 257.53C453.207 257.727 451.743 258.749 450.976 260.273C452.421 261.364 453.728 262.622 454.858 264.067C455.301 263.29 459.93 265.394 460.392 265.659C460.5 265.718 460.382 265.885 460.274 265.816C459.498 265.374 458.692 264.991 457.847 264.696C457.709 264.647 455.016 263.87 455.026 264.234V264.244V264.253V264.263C455.104 264.361 455.183 264.46 455.261 264.558C456.736 266.573 457.955 268.804 459.095 271.075C459.144 271.085 459.173 271.114 459.164 271.173C459.164 271.183 459.164 271.193 459.164 271.203C459.183 271.232 459.193 271.271 459.213 271.301C460.717 272.412 461.818 273.915 462.437 275.685C462.476 275.803 462.299 275.891 462.25 275.763C461.7 274.161 460.727 272.785 459.419 271.724C460.186 273.277 460.933 274.83 461.719 276.333C461.778 276.451 461.591 276.53 461.533 276.412C460.707 274.82 459.921 273.188 459.105 271.566C458.82 273.581 458.957 275.557 459.518 277.523C459.557 277.651 459.35 277.67 459.321 277.552C458.721 275.468 458.603 273.385 458.947 271.252C457.896 269.178 456.795 267.123 455.497 265.236C455.33 264.991 455.153 264.745 454.976 264.509C454.613 266.416 454.583 268.323 454.898 270.249C454.917 270.377 454.721 270.406 454.701 270.279C454.406 268.45 454.406 266.642 454.711 264.833C452.676 266.917 451.625 269.62 451.723 272.539C451.723 272.667 451.526 272.697 451.526 272.569C451.418 269.482 452.549 266.662 454.75 264.499C454.76 264.489 454.76 264.489 454.77 264.489C454.78 264.42 454.79 264.361 454.809 264.293C453.64 262.779 452.273 261.462 450.75 260.341C449.079 263.447 447.85 266.701 447.034 270.131C447.005 270.259 446.808 270.23 446.838 270.112C447.654 266.652 448.902 263.359 450.583 260.223C449.846 259.693 449.069 259.201 448.263 258.759C448.243 258.818 448.184 258.828 448.145 258.808C448.145 258.818 448.145 258.828 448.145 258.837C446.907 261.531 446.12 264.342 445.796 267.291C445.786 267.418 445.58 267.399 445.599 267.271C445.924 264.293 446.71 261.482 447.968 258.769C447.998 258.71 448.047 258.7 448.096 258.72C448.096 258.71 448.086 258.7 448.096 258.69C448.096 258.68 448.106 258.67 448.106 258.661C447.762 258.474 447.408 258.297 447.054 258.13C447.054 258.159 447.034 258.189 447.005 258.208C443.614 259.987 441.088 262.858 439.751 266.455C439.702 266.573 439.525 266.504 439.564 266.376C440.901 262.779 443.457 259.889 446.867 258.081Z" fill="#E8D7CD"/>
<path opacity="0.49" d="M394.89 279.125C396.896 277.965 399.166 277.631 401.417 278.162C401.574 278.201 401.545 278.457 401.388 278.417C399.166 277.897 396.964 278.231 394.989 279.361C394.851 279.44 394.753 279.204 394.89 279.125Z" fill="#E8D7CD"/>
<path d="M399.494 271.124C400.3 270.78 401.145 270.613 402.03 270.662C402.433 270.682 402.836 270.751 403.229 270.859C403.652 270.977 404.104 271.301 404.566 271.37C404.586 271.36 404.605 271.35 404.615 271.34C404.684 271.301 404.733 271.331 404.762 271.38C404.802 271.38 404.841 271.38 404.88 271.37C404.91 271.36 404.93 271.38 404.949 271.389C404.998 271.281 405.047 271.173 405.106 271.055C404.428 270.298 401.892 267.792 400.732 268.804C400.605 268.913 400.447 268.716 400.575 268.608C401.244 268.028 402.109 268.5 402.767 268.863C403.701 269.374 404.507 270.033 405.224 270.819C405.352 270.534 405.49 270.259 405.618 269.974C405.686 269.827 405.922 269.915 405.853 270.072C405.716 270.387 405.559 270.701 405.411 271.016C405.441 270.967 405.49 270.928 405.568 270.957C406.728 271.36 408.163 270.898 409.382 271.183C410.336 271.399 411.181 271.842 411.957 272.422C412.085 272.52 411.938 272.726 411.8 272.628C410.768 271.861 409.618 271.38 408.33 271.291C407.328 271.222 406.424 271.537 405.46 271.193C405.392 271.163 405.372 271.104 405.392 271.045C405.264 271.321 405.136 271.596 405.008 271.871C406.886 272.392 408.478 273.463 409.677 274.997C409.775 275.125 409.579 275.282 409.48 275.154C408.301 273.64 406.738 272.608 404.9 272.097C404.723 272.471 404.536 272.854 404.35 273.228C404.359 273.247 404.369 273.257 404.369 273.277C404.35 273.463 404.35 273.64 404.34 273.827C404.389 273.798 404.458 273.788 404.497 273.857C405.175 274.771 405.677 275.773 406.011 276.864C406.06 277.022 405.824 277.12 405.775 276.963C405.46 275.911 404.979 274.948 404.33 274.063C404.251 275.469 404.31 276.864 404.507 278.26C404.527 278.427 404.281 278.467 404.251 278.299C404.045 276.796 403.996 275.302 404.094 273.788C403.534 274.928 402.983 276.068 402.453 277.238C402.492 277.248 402.531 277.267 402.551 277.307C403.475 279.076 404.281 280.904 404.959 282.782C405.018 282.939 404.782 283.037 404.723 282.88C404.045 281.022 403.249 279.223 402.344 277.474C400.949 280.57 399.779 283.755 399.514 287.008C399.504 287.175 399.248 287.146 399.258 286.979C399.641 282.251 401.882 277.729 404.015 273.385C402.875 273.827 401.814 274.427 400.87 275.203C400.742 275.311 400.585 275.105 400.713 275.007C401.715 274.191 402.826 273.552 404.045 273.1C404.084 273.08 404.124 273.09 404.153 273.11C404.389 272.618 404.635 272.127 404.861 271.645C404.782 271.655 404.713 271.645 404.644 271.645C403.691 272.195 402.728 272.736 401.774 273.287C401.627 273.365 401.529 273.129 401.676 273.051C402.541 272.559 403.406 272.068 404.271 271.576C403.799 271.439 403.337 271.144 402.875 271.045C401.774 270.81 400.673 270.947 399.641 271.38C399.445 271.419 399.337 271.183 399.494 271.124Z" fill="#E8D7CD"/>
<path d="M448.765 212.65C447.998 212.414 447.222 212.237 446.435 212.188C446.268 212.178 446.298 211.923 446.465 211.933C448.204 212.051 449.925 212.67 451.566 213.554C451.654 213.476 451.802 213.545 451.763 213.663C453.964 214.881 456.019 216.552 457.788 218.105C457.857 217.987 458.053 218.076 458.014 218.223C458.004 218.243 458.004 218.263 457.994 218.292C458.171 218.449 458.348 218.607 458.525 218.764C460.265 220.327 461.769 222.116 462.781 224.141C462.811 224.16 462.84 224.2 462.83 224.249C463.597 225.821 464.079 227.532 464.157 229.379C464.157 229.429 464.138 229.458 464.118 229.478C465.366 231.552 465.868 233.862 465.563 236.27C465.543 236.437 465.288 236.407 465.307 236.24C465.592 234.019 465.17 231.866 464.079 229.93C464.354 232.004 464.639 234.078 464.914 236.162C464.934 236.329 464.678 236.368 464.659 236.201C464.373 234.107 464.098 232.004 463.813 229.91C463.794 229.802 463.912 229.753 463.99 229.782C463.941 229.694 463.892 229.606 463.843 229.517C463.794 229.438 463.833 229.36 463.902 229.321C463.823 227.699 463.43 226.185 462.811 224.789C462.673 226.893 462.712 228.996 462.948 231.1C462.968 231.267 462.712 231.306 462.693 231.139C462.437 228.859 462.398 226.598 462.575 224.308C462.329 223.816 462.054 223.335 461.749 222.873C461.592 224.072 461.435 225.271 461.277 226.47C461.258 226.637 461.002 226.608 461.022 226.441C461.189 225.143 461.366 223.846 461.533 222.548C460.796 221.467 459.921 220.464 458.967 219.54C458.673 221.329 458.496 223.128 458.437 224.937C458.427 225.104 458.181 225.074 458.181 224.907C458.24 223.079 458.417 221.261 458.722 219.462C458.732 219.413 458.761 219.383 458.8 219.373C458.515 219.098 458.22 218.843 457.916 218.577C456.825 222.096 456.363 225.654 456.53 229.34C456.54 229.507 456.284 229.547 456.274 229.379C456.107 225.625 456.589 221.978 457.699 218.39C457.346 218.086 456.982 217.781 456.599 217.466C456.274 218.695 456.078 219.934 456.009 221.202C455.999 221.369 455.743 221.339 455.753 221.172C455.822 219.855 456.038 218.567 456.382 217.29C454.937 216.1 453.345 214.881 451.654 213.938C450.2 216.975 449.443 220.17 449.384 223.541C449.384 223.708 449.128 223.679 449.128 223.511C449.187 220.091 449.954 216.896 451.428 213.82C451.094 213.633 450.75 213.466 450.406 213.309C449.964 214.724 449.443 216.11 448.843 217.466C448.775 217.614 448.539 217.525 448.607 217.368C449.207 216.012 449.728 214.616 450.17 213.191C449.826 213.034 449.472 212.906 449.109 212.778C449.109 212.837 449.079 212.886 449.01 212.896C446.465 213.063 445.354 215.452 445 217.683C444.971 217.85 444.715 217.82 444.745 217.653C445.108 215.363 446.258 212.955 448.765 212.65Z" fill="#E8D7CD"/>
<path opacity="0.49" d="M452.934 214.96C452.974 214.803 453.229 214.832 453.19 214.99C452.856 216.415 452.885 217.84 453.298 219.246C453.347 219.403 453.111 219.511 453.062 219.344C452.64 217.899 452.59 216.435 452.934 214.96Z" fill="#E8D7CD"/>
<path opacity="0.49" d="M447.496 212.375C447.654 212.326 447.752 212.562 447.595 212.611C445.304 213.378 443.712 215.403 443.525 217.82C443.516 217.988 443.26 217.958 443.27 217.791C443.466 215.294 445.118 213.171 447.496 212.375Z" fill="#E8D7CD"/>
<path d="M408.388 241.41C409.882 241.076 411.159 241.184 412.673 241.312C411.671 238.924 406.923 239.72 405.272 240.771C406.677 239.503 408.044 238.294 409.272 236.879C410.638 235.297 411.346 234.147 413.538 233.783C415.229 233.498 416.86 233.773 418.443 234.481C420.36 235.346 421.038 237.282 421.382 239.258L421.401 238.068C421.844 238.147 422.748 237.184 423.328 236.928C424.134 236.574 424.91 236.397 425.775 236.329C427.535 236.191 429.707 236.309 431.378 236.958C435.467 238.55 436.863 243.366 435.9 247.288C435.329 249.588 433.973 251.672 432.4 253.461C432.253 251.967 432.754 250.522 432.361 249.018C432.105 248.045 429.599 244.074 428.459 246.236C428.125 246.866 429.137 247.524 429.452 248.192C429.766 248.881 429.894 249.736 430.041 250.473C430.356 251.996 430.464 253.864 430.169 255.427C429.727 257.737 427.613 258.435 425.775 259.516C425.884 257.835 426.591 256.193 426.11 254.473C425.687 252.95 424.262 250.945 422.581 252.38C424.321 253.697 424.301 256.99 423.8 258.955C423.161 261.462 420.772 261.973 418.59 262.799C419.219 260.97 420.517 257.029 418.001 256.115C415.671 255.27 414.275 260.145 414.472 261.934C412.408 262.455 411.513 263.86 409.97 265.138C408.161 263.408 405.665 258.769 406.294 256.164C406.982 253.284 409.882 251.23 411.533 248.92C408.958 245.863 405.773 251.318 404.633 253.107C404.869 250.188 404.574 247.347 404.928 244.389C405.193 242.167 406.245 241.882 408.388 241.41Z" fill="#E8D7CD"/>
<path d="M408.052 241.391C409.546 241.057 410.823 241.165 412.337 241.293C411.335 238.904 406.587 239.7 404.936 240.752C406.341 239.484 407.708 238.275 408.936 236.86C410.303 235.277 411.01 234.127 413.202 233.764C414.893 233.479 416.524 233.754 418.107 234.461C420.024 235.326 420.702 237.263 421.046 239.238L421.066 238.049C421.508 238.128 422.412 237.164 422.992 236.909C423.798 236.555 424.575 236.378 425.439 236.309C427.199 236.172 429.371 236.29 431.042 236.938C435.131 238.531 436.527 243.347 435.564 247.269C434.994 249.569 433.637 251.653 432.064 253.442C431.917 251.948 432.418 250.503 432.025 248.999C431.77 248.026 429.263 244.055 428.123 246.217C427.789 246.846 428.801 247.505 429.116 248.173C429.43 248.861 429.558 249.716 429.705 250.454C430.02 251.977 430.128 253.845 429.833 255.407C429.391 257.717 427.278 258.415 425.439 259.496C425.548 257.816 426.255 256.174 425.774 254.454C425.351 252.931 423.926 250.925 422.245 252.36C423.985 253.678 423.965 256.97 423.464 258.936C422.825 261.443 420.436 261.954 418.254 262.779C418.883 260.951 420.181 257.01 417.665 256.096C415.335 255.25 413.939 260.126 414.136 261.914C412.072 262.435 411.177 263.841 409.634 265.119C407.826 263.389 405.329 258.749 405.958 256.145C406.646 253.265 409.546 251.21 411.197 248.901C408.622 245.844 405.437 251.299 404.297 253.088C404.533 250.169 404.238 247.328 404.592 244.369C404.857 242.148 405.909 241.863 408.052 241.391Z" fill="#39B039"/>
<path d="M408.983 255.319C410.566 253.215 412.414 251.387 414.527 249.814C415.352 248.615 416.168 247.416 416.955 246.197C415.628 246.679 414.311 247.161 412.984 247.642C412.826 247.701 412.728 247.465 412.885 247.406C414.094 246.964 415.293 246.531 416.502 246.089C414.556 245.794 412.61 245.499 410.664 245.195C410.497 245.165 410.526 244.919 410.693 244.939C412.836 245.264 414.989 245.598 417.132 245.922C417.525 245.313 417.898 244.703 418.272 244.084C416.797 243.74 415.333 243.396 413.858 243.062C413.701 243.022 413.731 242.767 413.888 242.806L418.409 243.858C418.97 242.934 419.52 242.01 420.041 241.066C417.839 239.346 415.293 238.442 412.502 238.373C412.335 238.373 412.364 238.118 412.531 238.118C415.352 238.186 417.947 239.12 420.169 240.84C420.198 240.791 420.218 240.742 420.247 240.703C420.218 240.634 420.257 240.555 420.336 240.536C420.68 239.907 421.024 239.278 421.348 238.629C421.427 238.481 421.663 238.58 421.584 238.727C421.26 239.366 420.916 240.005 420.572 240.644C420.591 240.654 420.601 240.663 420.621 240.673C424.1 239.857 429.172 240.467 431.148 243.691C431.236 243.828 431.03 243.986 430.951 243.848C429.104 240.831 424.287 240.172 420.926 240.86C422.665 241.981 424.277 243.278 425.732 244.752C425.85 244.87 425.644 245.028 425.535 244.91C424.041 243.386 422.38 242.069 420.582 240.929C420.523 240.948 420.454 240.958 420.385 240.968C419.854 241.941 419.304 242.904 418.734 243.858C419.382 245.902 419.854 247.986 420.149 250.119C420.169 250.286 419.923 250.326 419.894 250.158C419.608 248.114 419.156 246.119 418.547 244.153C418.164 244.792 417.78 245.44 417.377 246.07C417.377 246.109 417.348 246.148 417.318 246.168C416.876 246.856 416.434 247.534 415.972 248.212C415.657 248.674 415.323 249.136 414.989 249.598C415.018 249.608 415.038 249.618 415.048 249.638C415.077 249.638 415.107 249.638 415.136 249.667C416.974 251.22 418.626 252.95 420.1 254.867C420.198 254.994 420.002 255.162 419.894 255.024C418.458 253.147 416.837 251.446 415.038 249.923C414.743 251.829 414.546 253.746 414.458 255.682C414.448 255.85 414.193 255.82 414.202 255.653C414.291 253.726 414.487 251.81 414.782 249.903C414.763 249.913 414.753 249.923 414.733 249.942C412.433 253.117 410.084 256.38 410.811 260.548C410.841 260.715 410.585 260.745 410.556 260.587C409.917 256.911 411.647 253.874 413.691 250.964C413.809 250.807 413.917 250.64 414.025 250.473C412.197 251.918 410.566 253.579 409.16 255.447C409.091 255.614 408.885 255.456 408.983 255.319Z" fill="#E8D7CD"/>
<path d="M418.952 243.858C421.488 244.86 423.513 246.649 424.85 249.028C424.929 249.175 424.693 249.274 424.614 249.126C423.317 246.807 421.321 245.077 418.854 244.094C418.707 244.035 418.805 243.799 418.952 243.858Z" fill="#E8D7CD"/>
<path d="M423.69 327.603H409.035C407.433 327.603 405.998 325.794 405.438 323.062L402.135 306.804C401.221 302.283 403.069 297.496 405.733 297.496H426.993C429.657 297.496 431.505 302.283 430.591 306.804L427.288 323.062C426.728 325.794 425.293 327.603 423.69 327.603Z" fill="#C20005"/>
<path d="M403.334 312.721C412.013 312.299 420.702 312.367 429.391 312.702L430.591 306.814C431.505 302.292 429.657 297.506 426.993 297.506H405.733C403.069 297.506 401.221 302.292 402.135 306.814L403.334 312.721Z" fill="white"/>
<path d="M402.774 305.792H430.04C431.957 305.792 433.756 304.278 434.306 302.155L435.889 296.061C436.193 294.891 435.515 293.81 434.473 293.81H398.135C397.063 293.81 396.385 294.95 396.739 296.139L398.577 302.332C399.167 304.366 400.916 305.792 402.774 305.792Z" fill="#D90207"/>
</g>
<path d="M161.308 146.979H87.2151C81.0227 146.979 76 141.956 76 135.763C76 129.571 81.0227 124.548 87.2151 124.548H161.308C167.5 124.548 172.523 129.571 172.523 135.763C172.523 141.956 167.5 146.979 161.308 146.979Z" fill="#A78BEF"/>
<g opacity="0.43">
<path d="M157.262 131.704H91.2686C91.0228 131.704 90.8164 131.498 90.8164 131.252C90.8164 131.006 91.0228 130.8 91.2686 130.8H157.252C157.498 130.8 157.704 131.006 157.704 131.252C157.704 131.508 157.508 131.704 157.262 131.704Z" fill="#231F20"/>
<path d="M157.262 136.216H91.2686C91.0228 136.216 90.8164 136.009 90.8164 135.764C90.8164 135.518 91.0228 135.312 91.2686 135.312H157.252C157.498 135.312 157.704 135.518 157.704 135.764C157.704 136.009 157.508 136.216 157.262 136.216Z" fill="#231F20"/>
<path d="M136.483 140.717H91.2686C91.0228 140.717 90.8164 140.511 90.8164 140.265C90.8164 140.019 91.0228 139.813 91.2686 139.813H136.473C136.719 139.813 136.925 140.019 136.925 140.265C136.935 140.521 136.729 140.717 136.483 140.717Z" fill="#231F20"/>
</g>
</g>
<defs>
<clipPath id="clip0_1470_5619">
<rect width="542.64" height="328.79" fill="white"/>
</clipPath>
<clipPath id="clip1_1470_5619">
<rect width="251.647" height="169.092" fill="white" transform="translate(132.027 41)"/>
</clipPath>
<clipPath id="clip2_1470_5619">
<rect width="275.238" height="181.605" fill="white" transform="translate(118.266 147.156)"/>
</clipPath>
</defs>
</svg>
