<svg width="543" height="329" viewBox="0 0 543 329" fill="none" xmlns="http://www.w3.org/2000/svg">
<g clip-path="url(#clip0_1347_6172)">
<path opacity="0.2" d="M128.492 325.584L413.142 308.934C488.412 304.534 546.652 240.734 543.512 165.394C540.872 102.084 518.192 34.6439 441.912 5.8239C388.262 -14.4461 318.592 2.1439 274.402 35.8539C263.782 43.9539 254.022 53.2439 242.612 60.1739C216.022 76.3239 192.672 65.1739 164.972 60.8839C106.412 51.7939 47.9621 70.4639 17.7021 124.434C-28.7579 207.354 26.0421 331.574 128.492 325.584Z" fill="#999999"/>
<g clip-path="url(#clip1_1347_6172)">
<path d="M390.856 157.167C388.59 178.053 379.171 186.837 363.43 165.511" stroke="#FFB692" stroke-width="9" stroke-miterlimit="10"/>
<path d="M366.357 169.059C371.318 167.237 367.412 160.626 367.412 160.626L368.131 155.315C368.131 155.315 363.365 154.882 363.769 159.655C363.769 159.655 359.332 154.546 356.392 154.448C355.016 154.404 350.991 157.937 349.951 160.611C349.726 161.179 350.018 161.806 350.594 162.015C351.971 162.508 354.612 163.763 356.048 166.445C358.046 170.187 362.721 174.026 366.357 169.059Z" fill="#FFB692"/>
<path d="M363.769 159.655C363.769 159.655 360.642 162.03 362.407 166.251C362.407 166.251 361.495 162.269 363.964 159.886L363.769 159.655Z" fill="#D88D87"/>
<path d="M358.211 165.182C358.211 165.182 359.408 162.232 361.937 160.282C361.929 160.275 358.495 160.514 358.211 165.182Z" fill="#D88D87"/>
<path d="M358.698 164.077L358.772 163.83C358.772 163.83 354.703 160.275 350.221 160.036C350.176 160.118 350.139 160.193 350.102 160.275C351.777 160.536 355.728 161.418 358.698 164.077Z" fill="#D88D87"/>
<path d="M360.605 161.029L360.964 160.813C360.964 160.813 358.136 156.204 354.097 155.614C353.296 156.234 352.436 157.04 351.688 157.914C352.982 158.153 356.767 159.117 359.386 162.449L359.618 162.224C359.618 162.224 356.79 157.578 352.166 157.526L353.767 155.89C353.767 155.89 358.069 156.674 360.605 161.029Z" fill="#D88D87"/>
<path d="M399.398 165.511L401.642 152.447C402.091 148.749 399.45 145.388 395.739 144.94C392.028 144.491 388.654 147.128 388.205 150.818L385.961 163.883L399.398 165.511Z" fill="#E527BB"/>
<path d="M360.655 66.0225V298.389C360.655 310.991 350.42 321.209 337.799 321.209H198.129C185.508 321.209 175.273 310.991 175.273 298.389V66.0225C175.273 53.4212 185.508 43.2026 198.129 43.2026H337.799C350.42 43.2026 360.655 53.4212 360.655 66.0225Z" fill="#E527BB"/>
<path d="M339.043 318.714H196.896C186.34 318.714 177.781 310.169 177.781 299.629V64.7901C177.781 54.2504 186.34 45.7051 196.896 45.7051H339.043C349.599 45.7051 358.158 54.2504 358.158 64.7901V299.629C358.15 310.169 349.591 318.714 339.043 318.714Z" fill="#E527BB"/>
<path d="M349.556 303.596V60.816C349.556 56.379 345.957 52.7861 341.514 52.7861H195.05C190.606 52.7861 187.008 56.379 187.008 60.816V303.596C187.008 308.025 190.606 311.625 195.05 311.625H341.521C345.958 311.625 349.556 308.033 349.556 303.596Z" fill="white"/>
<path d="M265.81 253.848H215.879C211.353 253.848 207.68 250.18 207.68 245.661V181.026C207.68 176.506 211.353 172.839 215.879 172.839H265.81C270.336 172.839 274.01 176.506 274.01 181.026V245.661C274.01 250.18 270.336 253.848 265.81 253.848Z" fill="#E527BB"/>
<path d="M267.228 182.445H214.469V183.722H267.228V182.445Z" fill="white"/>
<path d="M267.228 188.383H214.469V189.661H267.228V188.383Z" fill="white"/>
<path d="M267.228 194.314H214.469V195.592H267.228V194.314Z" fill="white"/>
<path d="M267.228 200.245H214.469V201.522H267.228V200.245Z" fill="white"/>
<path d="M267.228 206.184H214.469V207.461H267.228V206.184Z" fill="white"/>
<path d="M267.228 212.115H214.469V213.392H267.228V212.115Z" fill="white"/>
<path d="M267.228 218.045H214.469V219.323H267.228V218.045Z" fill="white"/>
<path d="M267.228 223.984H214.469V225.261H267.228V223.984Z" fill="white"/>
<path d="M267.228 229.915H214.469V231.192H267.228V229.915Z" fill="white"/>
<path d="M267.228 235.846H214.469V237.123H267.228V235.846Z" fill="white"/>
<path d="M240.848 241.784H214.469V243.061H240.848V241.784Z" fill="white"/>
<path d="M222.819 188.914H198.123C195.362 188.914 193.125 186.68 193.125 183.924V156.757C193.125 154 195.362 151.767 198.123 151.767H222.826C225.587 151.767 227.824 154 227.824 156.757V183.924C227.816 186.68 225.579 188.914 222.819 188.914Z" fill="#A78BEF"/>
<path d="M221.255 172.899C222.672 166.947 218.988 160.975 213.026 159.561C207.065 158.146 201.083 161.825 199.667 167.777C198.25 173.729 201.934 179.701 207.896 181.115C213.857 182.53 219.838 178.851 221.255 172.899Z" stroke="white" stroke-miterlimit="9.9999"/>
<path d="M210.47 170.344L209.811 181.407C203.983 181.063 199.367 176.178 199.367 170.344C199.367 164.264 204.38 159.259 210.462 159.259C216.544 159.259 221.557 164.264 221.557 170.344H210.47Z" stroke="white" stroke-miterlimit="10"/>
<path d="M210.469 170.344L212.713 159.49C215.212 160.006 217.464 161.365 219.072 163.345C220.681 165.324 221.564 167.797 221.564 170.344H210.469Z" stroke="white" stroke-miterlimit="10"/>
<path d="M299.521 239.334H283.227V253.228H299.521V239.334Z" fill="#A78BEF"/>
<path d="M320.794 220.929H304.5V253.235H320.794V220.929Z" fill="#A78BEF"/>
<path d="M342.084 202.434H325.789V253.228H342.084V202.434Z" fill="#A78BEF"/>
<path d="M342.554 262.677H193.367V300.563H342.554V262.677Z" fill="#E527BB"/>
<path d="M342.554 160.275H283.227V169.149H342.554V160.275Z" fill="#A78BEF"/>
<path d="M342.554 145.373H312.891V154.247H342.554V145.373Z" fill="#A78BEF"/>
<path d="M342.554 175.072H283.227V183.946H342.554V175.072Z" fill="#A78BEF"/>
<path d="M267.971 142.96C288.118 142.96 304.451 126.653 304.451 106.538C304.451 86.4225 288.118 70.1157 267.971 70.1157C247.825 70.1157 231.492 86.4225 231.492 106.538C231.492 126.653 247.825 142.96 267.971 142.96Z" fill="#E527BB"/>
<path d="M267.967 106.516H304.446C304.446 126.497 287.98 142.938 267.967 142.938C254.254 142.938 241.655 135.222 235.445 123.016L267.967 106.516Z" fill="#A78BEF"/>
<path d="M267.965 106.516L262.766 70.467C264.486 70.2205 266.23 70.0935 267.965 70.0935C287.978 70.0935 304.444 86.5343 304.444 106.516H267.965Z" fill="#E527BB"/>
<path d="M267.961 106.516H304.44C304.44 113.388 302.495 120.118 298.822 125.937C295.148 131.756 289.911 136.409 283.702 139.375L267.961 106.516Z" fill="#A78BEF"/>
<path d="M295.093 112.937C298.631 97.9774 289.353 82.9871 274.37 79.4547C259.387 75.9224 244.373 85.1858 240.836 100.145C237.298 115.104 246.576 130.095 261.558 133.627C276.541 137.159 291.555 127.896 295.093 112.937Z" fill="white"/>
<path d="M295.07 88.3046H306.711L316.497 78.5417H332.313" stroke="#E527BB" stroke-miterlimit="10"/>
<path d="M332.323 72.2075H315.25V74.8667H332.323V72.2075Z" fill="#E527BB"/>
<path d="M295.07 126.348H306.711L316.497 116.585H332.313" stroke="#A78BEF" stroke-miterlimit="10"/>
<path d="M332.323 110.243H315.25V112.902H332.323V110.243Z" fill="#A78BEF"/>
<path d="M240.852 88.3046H229.211L219.433 78.5417H203.609" stroke="#E527BB" stroke-miterlimit="10"/>
<path d="M220.682 72.2075H203.609V74.8667H220.682V72.2075Z" fill="#E527BB"/>
<path d="M240.852 126.348H229.211L219.433 116.585H203.609" stroke="#A78BEF" stroke-miterlimit="10"/>
<path d="M220.682 110.243H203.609V112.902H220.682V110.243Z" fill="#A78BEF"/>
<path d="M205.298 281.62H197.555V295.887H205.298V281.62Z" fill="white"/>
<path d="M217.392 290.374H209.648V295.894H217.392V290.374Z" fill="white"/>
<path d="M229.493 286.221H221.75V295.887H229.493V286.221Z" fill="white"/>
<path d="M241.587 274.105H233.844V295.887H241.587V274.105Z" fill="white"/>
<path d="M253.689 279.917H245.945V295.894H253.689V279.917Z" fill="white"/>
<path d="M265.79 272.776H258.047V295.887H265.79V272.776Z" fill="white"/>
<path d="M277.892 266.8H270.148V295.887H277.892V266.8Z" fill="white"/>
<path d="M289.985 288.544H282.242V295.887H289.985V288.544Z" fill="white"/>
<path d="M302.087 272.776H294.344V295.887H302.087V272.776Z" fill="white"/>
<path d="M314.181 277.922H306.438V295.887H314.181V277.922Z" fill="white"/>
<path d="M326.282 286.221H318.539V295.887H326.282V286.221Z" fill="white"/>
<path d="M338.376 266.8H330.633V295.887H338.376V266.8Z" fill="white"/>
<path d="M400.859 207.281V321.209" stroke="#231F20" stroke-width="18" stroke-miterlimit="10"/>
<path d="M393.861 303.528L393.929 310.901C393.929 310.901 384.712 311.028 382.43 321.351L407.769 321.328L407.365 303.409L393.861 303.528Z" fill="#A78BEF"/>
<path d="M400.579 311.297C400.549 312.895 401.529 314.21 402.771 314.232C404.013 314.255 405.045 312.977 405.075 311.379C405.105 309.78 404.125 308.466 402.883 308.443C401.641 308.421 400.609 309.698 400.579 311.297Z" fill="#19283B"/>
<path d="M404.221 188.047H413.79C420.845 188.047 426.628 193.814 426.628 200.858C426.628 207.902 420.852 213.668 413.79 213.668H404.221C397.166 213.668 391.383 207.902 391.383 200.858C391.383 193.814 397.158 188.047 404.221 188.047Z" fill="#284159"/>
<path d="M416.523 207.281V321.209" stroke="#231F20" stroke-width="18" stroke-miterlimit="10"/>
<path d="M409.525 303.528L409.593 310.901C409.593 310.901 400.376 311.028 398.094 321.351L423.433 321.328L423.029 303.409L409.525 303.528Z" fill="#9079E2"/>
<path d="M416.243 311.297C416.213 312.895 417.193 314.21 418.435 314.232C419.677 314.255 420.709 312.977 420.739 311.379C420.769 309.78 419.789 308.466 418.547 308.443C417.305 308.421 416.28 309.698 416.243 311.297Z" fill="#19283B"/>
<path d="M431.786 160.88H418.529C410.307 160.88 403.648 154.224 403.648 146.023V125.436C403.648 120.252 407.86 116.047 413.053 116.047C423.399 116.047 431.793 124.42 431.793 134.758L431.786 160.88Z" fill="#231F20"/>
<path d="M406.693 131.853H408.227C418.2 131.853 426.28 123.785 426.28 113.828C426.28 103.871 418.2 95.804 408.227 95.804H406.693C396.721 95.804 388.641 103.871 388.641 113.828C388.641 123.785 396.721 131.853 406.693 131.853Z" fill="#231F20"/>
<path d="M388.836 195.972C392.375 197.698 398.906 200.312 407.487 200.574C416.278 200.843 423.093 198.505 426.744 196.951C425.412 191.132 424.073 185.306 422.742 179.487L425.861 155.218C426.026 149.003 423.071 143.894 416.854 143.73L404.734 143.416C396.714 143.207 392.547 146.015 392.337 154.015L393.721 179.577L388.836 195.972Z" fill="#E527BB"/>
<path d="M417.708 145.418C417.917 148.57 413.803 151.416 408.521 151.76C403.239 152.111 398.787 149.832 398.578 146.68C398.368 143.528 402.483 140.682 407.765 140.331C413.047 139.987 417.498 142.266 417.708 145.418Z" fill="#FFB692"/>
<path d="M412.502 103.991H403.076C402.851 103.991 402.664 103.804 402.664 103.58C402.664 103.356 402.851 103.169 403.076 103.169H412.502C412.727 103.169 412.914 103.348 412.914 103.58C412.914 103.812 412.727 103.991 412.502 103.991Z" fill="#D88D87"/>
<path d="M422.493 125.608H393.091C391.684 125.608 390.555 124.473 390.555 123.076C390.555 121.672 391.692 120.544 393.091 120.544H422.493C423.899 120.544 425.029 121.679 425.029 123.076C425.029 124.473 423.892 125.608 422.493 125.608Z" fill="#D88D87"/>
<path d="M391.883 123.068C391.883 122.404 392.421 121.858 393.095 121.858H422.497C423.163 121.858 423.709 122.396 423.709 123.068C423.709 123.733 423.17 124.279 422.497 124.279H393.095C392.429 124.279 391.883 123.741 391.883 123.068Z" fill="#AA635F"/>
<path d="M407.792 119.528C403.446 119.528 399.922 123.046 399.922 127.386V148.652H415.655V127.386C415.655 123.046 412.139 119.528 407.792 119.528Z" fill="#FFB692"/>
<path d="M399.922 122.598V136.006C399.922 140.346 403.446 143.864 407.792 143.864C412.139 143.864 415.663 140.346 415.663 136.006V122.598" fill="#D88D87"/>
<path d="M407.794 140.622C404.54 140.622 394.949 136.775 394.949 128.955L393.617 114.247C393.617 106.755 399.7 100.674 407.211 100.674H408.385C415.889 100.674 421.979 106.747 421.979 114.247L420.647 128.955C420.64 136.775 412.418 140.622 407.794 140.622Z" fill="#FFB692"/>
<path d="M404.236 130.239C405.627 129.903 407.565 129.343 409.368 128.484C410.558 127.916 411.74 129.388 411.201 130.77C410.625 132.241 409.518 133.668 407.408 134.026C405.672 134.318 404.528 133.944 403.757 133.354C402.68 132.518 402.994 130.531 404.236 130.239Z" fill="#FFB692"/>
<path d="M407.411 134.019C409.528 133.66 410.628 132.241 411.204 130.762C411.287 130.553 411.324 130.344 411.331 130.142C410.546 129.858 409.528 129.806 408.204 130.202C406.154 130.822 405.249 132.376 404.875 133.907V133.914C405.541 134.131 406.371 134.198 407.411 134.019Z" fill="#FFB692"/>
<path d="M406.256 132.368C406.495 132.712 407.295 132.585 408.044 132.092C408.792 131.599 409.211 130.919 408.971 130.583C408.732 130.239 407.931 130.366 407.183 130.859C406.428 131.345 406.016 132.025 406.256 132.368Z" fill="#FFB692"/>
<path d="M404.232 130.239C405.624 129.903 407.562 129.343 409.365 128.484C410.09 128.14 410.824 128.559 411.153 129.253C410.135 130.314 408.534 131.233 406.619 131.733C405.392 132.054 404.188 132.174 403.11 132.099C403.035 131.285 403.447 130.426 404.232 130.239Z" fill="#FFB692"/>
<path d="M401.109 119.924H397.974C397.264 119.924 396.688 120.499 396.688 121.216C396.688 121.933 397.264 122.508 397.974 122.508H401.109C401.82 122.508 402.396 121.933 402.396 121.216C402.403 120.499 401.82 119.924 401.109 119.924Z" fill="#FFB692"/>
<path d="M415.187 119.924H412.052C411.341 119.924 410.758 120.499 410.758 121.216C410.758 121.933 411.334 122.508 412.052 122.508H415.187C415.898 122.508 416.481 121.933 416.481 121.216C416.474 120.499 415.898 119.924 415.187 119.924Z" fill="#FFB692"/>
<path d="M416.004 117.765L413.131 116.861C412.503 116.667 411.829 117.01 411.627 117.638C411.425 118.265 411.777 118.938 412.405 119.139L415.278 120.043C415.907 120.237 416.58 119.894 416.782 119.266C416.984 118.631 416.632 117.959 416.004 117.765Z" fill="#FFB692"/>
<path d="M400.763 116.861L397.89 117.765C397.261 117.959 396.91 118.632 397.112 119.266C397.314 119.894 397.98 120.245 398.616 120.043L401.488 119.139C402.117 118.945 402.468 118.273 402.266 117.638C402.064 117.011 401.391 116.66 400.763 116.861Z" fill="#442D1E"/>
<path d="M410.66 136.835C410.72 137.582 409.321 138.307 407.533 138.456C405.745 138.605 404.241 138.112 404.182 137.365C404.122 136.618 405.521 135.894 407.309 135.744C409.097 135.595 410.601 136.088 410.66 136.835Z" fill="#FFB692"/>
<path d="M399.535 120.409C398.599 120.409 397.844 121.164 397.844 122.097C397.844 123.031 398.599 123.785 399.535 123.785C400.47 123.785 401.225 123.031 401.225 122.097C401.225 121.171 400.47 120.409 399.535 120.409Z" fill="#FFB692"/>
<path d="M412.339 120.409C411.404 120.409 410.648 121.164 410.648 122.097C410.648 123.031 411.404 123.785 412.339 123.785C413.274 123.785 414.03 123.031 414.03 122.097C414.03 121.171 413.274 120.409 412.339 120.409Z" fill="#FFB692"/>
<path d="M413.673 122.008L415.267 120.409H412.297L413.673 122.008Z" fill="#FFB692"/>
<path d="M397.939 122.008L399.533 120.409H396.562L397.939 122.008Z" fill="#FFB692"/>
<path d="M405.935 130.359C404.925 130.359 404.109 129.545 404.109 128.536V121.589C404.109 120.581 404.925 119.767 405.935 119.767C406.945 119.767 407.76 120.581 407.76 121.589V128.536C407.76 129.545 406.945 130.359 405.935 130.359Z" fill="#FFB692"/>
<path d="M406.838 129.134C406.561 129.134 406.344 128.91 406.344 128.641V121.492C406.344 121.216 406.568 120.999 406.838 120.999C407.114 120.999 407.331 121.223 407.331 121.492V128.641C407.331 128.91 407.107 129.134 406.838 129.134Z" fill="#FFB692"/>
<path d="M402.18 96.3717C403.624 96.0056 405.135 95.804 406.691 95.804H408.225C418.197 95.804 426.277 103.871 426.277 113.828C426.277 114.127 426.27 114.426 426.255 114.725H424.392C413.349 114.725 404.162 106.822 402.18 96.3717Z" fill="#231F20"/>
<path d="M388.445 121.866H392.395C400.677 121.866 407.395 115.158 407.395 106.889V102.818C407.395 97.5893 403.153 93.354 397.916 93.354C392.679 93.354 388.438 97.5893 388.438 102.818L388.445 121.866Z" fill="#231F20"/>
<path d="M407.396 101.78V103.475C407.396 111.744 400.677 118.452 392.395 118.452H388.445V116.756H392.395C400.677 116.756 407.396 110.049 407.396 101.78Z" fill="#231F20"/>
<path d="M407.396 96.9319V98.6275C407.396 106.896 400.677 113.604 392.395 113.604H388.445V111.909H392.395C400.677 111.909 407.396 105.201 407.396 96.9319Z" fill="#231F20"/>
<path d="M381.956 110.273H355.016V147.36H381.956V110.273Z" fill="#8367E8"/>
<path d="M361.53 95.7668L366.91 101.13V132.854H339.977V95.7668H361.53Z" fill="#A78BEF"/>
<path d="M366.909 101.13H361.5L361.53 95.7668L366.909 101.13Z" fill="#8367E8"/>
<path d="M363.745 105.149H343.148V105.858H363.745V105.149Z" fill="white"/>
<path d="M363.745 107.711H343.148V108.42H363.745V107.711Z" fill="white"/>
<path d="M363.745 110.273H343.148V110.983H363.745V110.273Z" fill="white"/>
<path d="M363.745 112.835H343.148V113.545H363.745V112.835Z" fill="white"/>
<path d="M363.745 115.397H343.148V116.107H363.745V115.397Z" fill="white"/>
<path d="M363.745 117.959H343.148V118.669H363.745V117.959Z" fill="white"/>
<path d="M353.622 120.521H343.148V121.231H353.622V120.521Z" fill="white"/>
<path d="M451.045 58.859C450.858 58.859 450.678 58.8814 450.491 58.8889C448.209 48.6779 439.09 41.0364 428.167 41.0364C417.244 41.0364 408.124 48.6704 405.842 58.8889C405.655 58.8814 405.476 58.859 405.289 58.859C397.583 58.859 391.336 65.0962 391.336 72.79C391.336 80.4837 397.583 86.7209 405.289 86.7209H451.045C458.751 86.7209 464.998 80.4837 464.998 72.79C464.998 65.0962 458.751 58.859 451.045 58.859Z" fill="#E527BB"/>
<path d="M419.82 68.0616L428.177 78.6611L436.526 68.0616H431.656V56.4238H425.147V68.0616H419.82Z" fill="white"/>
<path d="M411.425 163.823H333.469V212.264H411.425V163.823Z" fill="#A78BEF"/>
<path d="M338.773 168.985V209.664" stroke="white" stroke-miterlimit="10"/>
<path d="M336.016 206.677H407.613" stroke="white" stroke-miterlimit="10"/>
<path d="M343.359 202.434C357.327 172.391 367.135 192.141 373.45 198.452C379.764 204.757 385.038 179.86 393.874 176.873C402.709 173.885 408.193 190.482 408.193 190.482" stroke="white" stroke-miterlimit="10"/>
<path d="M427.654 163.352C443.014 186.351 425.021 211.382 397.602 203.457" stroke="#FFB692" stroke-width="10" stroke-miterlimit="10"/>
<path d="M422.452 170.344L415.083 158.071C413.182 154.531 414.522 150.116 418.075 148.219C421.621 146.321 426.043 147.659 427.943 151.207L435.312 163.479L422.452 170.344Z" fill="#E527BB"/>
<path d="M402.373 203.995C405.702 199.789 398.797 196.137 398.797 196.137L396.59 191.155C396.59 191.155 392.236 193.313 395.124 197.227C395.124 197.227 390.343 196.398 387.829 193.784C384.762 190.594 382.577 200.79 384.59 204.809C385.682 206.99 389.213 206.116 391.884 207.677C395.603 209.859 401.872 210.217 402.373 203.995Z" fill="#FFB692"/>
<path d="M392.761 202.307L392.694 202.695C392.694 202.695 387.464 202.411 383.836 199.961C383.843 199.722 383.858 199.483 383.881 199.244C385.235 200.372 387.996 202 392.761 202.307Z" fill="#D88D87"/>
<path d="M392.034 205.153C392.034 205.153 387.313 204.951 384.119 203.479C384.059 203.248 384.014 203.001 383.977 202.747C385.323 203.405 388.159 204.525 392.124 204.742L392.034 205.153Z" fill="#D88D87"/>
<path d="M393.441 199.692C393.441 199.692 388.099 199.565 384.508 195.905C384.613 195.584 384.725 195.285 384.844 195.009C386.206 196.48 388.922 198.684 393.478 199.423L393.441 199.692Z" fill="#D88D87"/>
<path d="M105.975 88.7901C121.978 88.7901 134.951 75.8376 134.951 59.86C134.951 43.8824 121.978 30.9299 105.975 30.9299C89.9727 30.9299 77 43.8824 77 59.86C77 75.8376 89.9727 88.7901 105.975 88.7901Z" fill="#E527BB"/>
<path d="M105.977 59.8601L120.161 34.635C124.65 37.1523 128.383 40.8124 130.987 45.2494C133.59 49.6864 134.959 54.7284 134.959 59.8676H105.977V59.8601Z" fill="#A78BEF"/>
<path d="M105.977 59.8601H134.952C134.952 65.8807 133.067 71.7593 129.565 76.6594C126.064 81.5595 121.111 85.2495 115.411 87.2141L105.977 59.8601Z" fill="#E527BB"/>
<path d="M138.247 312.104C138.247 312.104 137.424 316.772 137.012 321.396C136.855 323.203 138.247 324.772 140.065 324.847C146.229 325.101 159.419 325.601 164.147 325.392C164.858 325.362 165.322 324.63 165.06 323.973C164.843 323.42 164.416 322.972 163.87 322.725L142.084 312.731L138.247 312.104Z" fill="#A78BEF"/>
<path d="M137.578 309.362L138.244 314.95C138.244 314.95 142.059 316.72 144.663 314.725L143.084 308.503L137.578 309.362Z" fill="url(#paint0_linear_1347_6172)"/>
<path d="M139.435 209.777C139.151 211.233 137.894 282.569 145.532 314.531C145.66 315.054 145.39 315.592 144.897 315.794C143.722 316.272 141.433 316.966 138.679 317.056C137.827 317.086 137.064 316.533 136.824 315.711C134.64 308.294 124.181 271.14 122.819 235.637C121.293 195.973 122.819 234.285 122.819 234.285L123.717 209.769L139.435 209.777Z" fill="#231F20"/>
<path d="M113.973 314.539C113.973 314.539 112.656 316.899 111.384 323.159C111.152 324.287 111.945 325.37 113.097 325.489C115.132 325.691 118.267 325.945 120.781 325.93C121.94 325.922 122.838 324.914 122.703 323.771C122.427 321.485 121.559 317.736 118.88 314.807L113.973 314.539Z" fill="#A78BEF"/>
<path d="M112.039 307.353L113.588 315.801C113.588 315.801 115.121 316.936 118.151 316.115L117.411 307.024L112.039 307.353Z" fill="url(#paint1_linear_1347_6172)"/>
<path d="M109.21 211.965C102.963 249.597 110.564 304.985 113.13 315.823C113.287 316.488 113.826 316.996 114.499 317.108C115.644 317.295 117.529 317.452 119.384 316.914C120.028 316.727 120.477 316.152 120.499 315.487C120.843 306.725 120.222 252.921 126.043 231.663C126.335 230.587 127 229.646 127.906 228.996L139.203 220.981L140.07 208.021L109.21 211.965Z" fill="#231F20"/>
<path d="M147.646 135.229C128.927 134.923 108.279 140.137 108.279 140.137C102.697 172.637 101.688 253.608 101.688 253.608C116.179 257.403 142.057 250.538 142.057 250.538C143.142 244.436 140.104 224.619 142.057 204.772C144.451 180.435 151.783 155.995 151.783 155.995C160.925 154.859 168.459 152.23 174.668 148.742C169.933 143.266 167.703 136.297 166.738 132.174C160.117 134.228 153.421 135.326 147.646 135.229Z" fill="#A78BEF"/>
<path d="M202.937 107.703C201.096 105.485 198.77 106.538 198.77 106.538C196.017 118.153 181.57 127.573 166.734 132.174C167.707 136.29 169.936 143.259 174.665 148.742C199.293 134.915 202.937 107.703 202.937 107.703Z" fill="url(#paint2_linear_1347_6172)"/>
<path d="M202.483 108.271C202.678 108.884 200.449 109.81 199.139 107.315C199.094 106.12 198.361 100.988 199.079 100.017C202.895 94.8256 210.294 88.312 210.294 88.312C211.543 89.5445 210.511 90.7546 210.511 90.7546L206.92 94.4894C207.668 95.8414 208.588 96.9843 209.015 98.6276C209.336 99.8676 209.142 101.197 208.513 102.325C207.885 103.461 207.025 104.932 206.209 106.082C204.676 108.249 202.483 108.271 202.483 108.271Z" fill="url(#paint3_linear_1347_6172)"/>
<path d="M205.357 96.9021L202.087 99.6733L201.062 102.43L203.98 105.657C203.98 105.657 204.96 100.189 205.686 99.0085C206.412 97.8209 206.038 97.2457 205.357 96.9021Z" fill="url(#paint4_linear_1347_6172)"/>
<path d="M115.453 158.236L108.271 140.144C108.271 140.144 90.7869 152.006 87.9141 167.042C91.2208 167.289 97.2284 168.14 103.109 171.106C104.411 164.002 115.453 158.236 115.453 158.236Z" fill="#A78BEF"/>
<path d="M130.731 175.259C130.731 175.259 111.1 186.337 104.479 176.88C103.103 174.916 102.774 172.966 103.118 171.106C97.2373 168.141 91.2222 167.282 87.9229 167.042C87.0551 171.577 87.5115 176.395 90.1823 181.272C101.786 202.464 133.335 180.099 133.335 180.099L130.731 175.259Z" fill="url(#paint5_linear_1347_6172)"/>
<path d="M128.377 189.272L139.091 151.916C139.21 151.49 139.577 151.184 140.011 151.132C141.949 150.908 147.575 150.273 154.068 149.72C161.894 149.063 170.976 148.525 176.4 148.981C177.171 149.048 177.635 149.862 177.298 150.557C174.208 156.794 161.512 182.153 155.153 190.46C154.944 190.736 154.615 190.893 154.27 190.893L129.417 190.661C128.699 190.661 128.183 189.967 128.377 189.272Z" fill="#E527BB"/>
<path d="M155.185 146.486L162.951 145.194C163.362 145.126 163.707 145.522 163.572 145.918L162.801 148.241C162.734 148.443 162.554 148.592 162.345 148.622L154.871 149.616C154.482 149.668 154.168 149.317 154.258 148.936L154.736 146.904C154.789 146.687 154.968 146.523 155.185 146.486Z" fill="#BDD0FB"/>
<path d="M149.367 153.052L150.01 149.728C150.077 149.391 150.347 149.145 150.691 149.108L166.379 147.517C166.91 147.464 167.329 147.95 167.21 148.458L166.215 152.603C166.132 152.932 165.848 153.179 165.504 153.194L150.175 153.963C149.658 153.993 149.269 153.545 149.367 153.052Z" fill="#BDD0FB"/>
<path d="M130.97 180.249C130.97 180.249 129.481 174.124 130.079 171.95C130.678 169.776 131.845 166.983 135.735 167.603C139.626 168.223 144.212 169.858 144.212 169.858C144.212 169.858 143.98 172.689 141.025 171.778L142.858 173.19C142.858 173.19 142.596 175.453 140.097 174.243L141.803 176.118C141.803 176.118 140.733 177.978 138.892 176.783C137.06 175.595 136.177 180.988 130.97 180.249Z" fill="url(#paint6_linear_1347_6172)"/>
<path d="M128.693 120.058L122.738 137.253C122.64 137.537 122.753 137.851 123.022 138C124.645 138.897 130.496 141.489 137.543 137.022C138.277 136.559 138.778 135.797 138.89 134.938L140.82 120.058H128.693Z" fill="url(#paint7_linear_1347_6172)"/>
<path d="M141.645 104.133C141.645 104.133 148.184 116.42 147.346 121.388C146.508 126.355 138.405 125.997 131.328 121.963L126.383 108.689L141.645 104.133Z" fill="url(#paint8_linear_1347_6172)"/>
<path d="M131.637 115.449C131.921 115.322 132.033 114.971 131.861 114.71C131.337 113.911 130.357 112.282 130.043 110.856C130.043 110.856 128.868 110.101 133.036 109.108C137.203 108.114 143.42 106.568 144.729 103.02C146.001 99.5688 142.657 90.8816 137.315 97.7985C137.113 98.06 136.716 98.0674 136.514 97.806C135.639 96.6706 133.335 94.3102 130.14 95.7369C127.148 97.074 126.811 99.2626 126.856 100.368C126.871 100.689 126.579 100.943 126.257 100.884C124.746 100.592 121.118 100.346 119.427 104.066C118.035 107.128 118.941 108.861 119.764 109.705C120.033 109.982 119.913 110.43 119.547 110.542C118.552 110.848 117.272 111.685 117.399 114.008C117.579 117.22 121.178 116.936 122.202 116.794C122.367 116.772 122.539 116.824 122.651 116.951C123.527 117.922 127.484 122.045 131.771 122.538C132.145 122.583 132.43 122.217 132.31 121.866L130.454 116.488C130.372 116.241 130.484 115.965 130.731 115.86L131.637 115.449Z" fill="#231F20"/>
<path d="M132.383 116.211C132.383 116.211 127.73 113.022 127.386 115.711C127.042 118.4 131.575 119.602 133.827 118.601L132.383 116.211Z" fill="url(#paint9_linear_1347_6172)"/>
<path d="M122.695 158.243H113.516V162.456H122.695V158.243Z" fill="#E527BB"/>
<path d="M120.22 155.763H116V164.928H120.22V155.763Z" fill="#E527BB"/>
</g>
</g>
<defs>
<linearGradient id="paint0_linear_1347_6172" x1="137.578" y1="312.085" x2="144.663" y2="312.085" gradientUnits="userSpaceOnUse">
<stop stop-color="#FF928E"/>
<stop offset="1" stop-color="#FEB3B1"/>
</linearGradient>
<linearGradient id="paint1_linear_1347_6172" x1="112.035" y1="311.721" x2="118.153" y2="311.721" gradientUnits="userSpaceOnUse">
<stop stop-color="#FF928E"/>
<stop offset="1" stop-color="#FEB3B1"/>
</linearGradient>
<linearGradient id="paint2_linear_1347_6172" x1="163.723" y1="53.9925" x2="174.899" y2="89.1341" gradientUnits="userSpaceOnUse">
<stop stop-color="#FF928E"/>
<stop offset="1" stop-color="#FEB3B1"/>
</linearGradient>
<linearGradient id="paint3_linear_1347_6172" x1="188.375" y1="46.1516" x2="199.55" y2="81.2932" gradientUnits="userSpaceOnUse">
<stop stop-color="#FF928E"/>
<stop offset="1" stop-color="#FEB3B1"/>
</linearGradient>
<linearGradient id="paint4_linear_1347_6172" x1="186.69" y1="61.6905" x2="218.664" y2="134.593" gradientUnits="userSpaceOnUse">
<stop stop-color="#FF928E"/>
<stop offset="1" stop-color="#FEB3B1"/>
</linearGradient>
<linearGradient id="paint5_linear_1347_6172" x1="144.929" y1="188.951" x2="94.111" y2="177.727" gradientUnits="userSpaceOnUse">
<stop stop-color="#FF928E"/>
<stop offset="1" stop-color="#FEB3B1"/>
</linearGradient>
<linearGradient id="paint6_linear_1347_6172" x1="112.889" y1="139.427" x2="117.57" y2="146.2" gradientUnits="userSpaceOnUse">
<stop stop-color="#FF928E"/>
<stop offset="1" stop-color="#FEB3B1"/>
</linearGradient>
<linearGradient id="paint7_linear_1347_6172" x1="122.702" y1="129.811" x2="140.814" y2="129.811" gradientUnits="userSpaceOnUse">
<stop stop-color="#FF928E"/>
<stop offset="1" stop-color="#FEB3B1"/>
</linearGradient>
<linearGradient id="paint8_linear_1347_6172" x1="189.952" y1="363.028" x2="181.67" y2="324.033" gradientUnits="userSpaceOnUse">
<stop stop-color="#FF928E"/>
<stop offset="1" stop-color="#FEB3B1"/>
</linearGradient>
<linearGradient id="paint9_linear_1347_6172" x1="183.228" y1="364.455" x2="174.947" y2="325.46" gradientUnits="userSpaceOnUse">
<stop stop-color="#FF928E"/>
<stop offset="1" stop-color="#FEB3B1"/>
</linearGradient>
<clipPath id="clip0_1347_6172">
<rect width="542.64" height="328.79" fill="white"/>
</clipPath>
<clipPath id="clip1_1347_6172">
<rect width="388" height="295" fill="white" transform="translate(77 30.9299)"/>
</clipPath>
</defs>
</svg>
