<svg width="543" height="329" viewBox="0 0 543 329" fill="none" xmlns="http://www.w3.org/2000/svg">
<g clip-path="url(#clip0_1915_4768)">
<path opacity="0.2" d="M78.788 327.839C41.4882 290.535 -9.49424 252.012 10.4949 193.818C23.6478 155.541 55.8804 144.88 82.6859 121.276C95.9087 109.631 87.5932 92.6757 87.3433 75.8481C86.7836 32.7513 139.135 -0.687543 187.269 0.010739C239.401 0.768031 261.969 48.9102 305.705 51.4968C322.876 51.7426 338.257 42.4781 353.449 35.1314C398.465 13.3371 469.906 27.2339 473.514 79.9296C474.444 108.392 439.183 154.174 474.514 169.143C502.668 181.072 531.113 185.469 536.19 228.133C542.837 283.976 507.716 314.621 461.971 329L78.788 327.839Z" fill="#999999"/>
<path d="M165.555 68.3433H140.914V142.544H165.555V68.3433Z" fill="#BABABA"/>
<path d="M165.869 328.351C165.843 328.351 165.817 328.351 165.783 328.343C165.445 328.299 165.212 327.988 165.255 327.651L193.339 119.26L225.02 325.731C225.072 326.068 224.838 326.379 224.51 326.431C224.173 326.483 223.861 326.249 223.809 325.921L193.416 127.875L166.475 327.824C166.431 328.126 166.172 328.351 165.869 328.351Z" fill="#111111"/>
<path d="M236.905 238.721H153.416C149.61 238.721 146.531 235.642 146.531 231.836V74.4323C146.531 70.6267 149.61 67.5476 153.416 67.5476H236.905C240.711 67.5476 243.79 70.6267 243.79 74.4323V231.836C243.79 235.633 240.711 238.721 236.905 238.721Z" fill="#EDEAE8"/>
<path d="M226.295 123.983C212.5 123.983 180.144 123.983 165.284 123.983C165.284 110.205 165.284 96.4182 165.284 82.6402C165.284 81.0574 162.828 81.0574 162.828 82.6402C162.828 96.842 162.828 111.052 162.828 125.254C162.828 125.315 162.837 125.375 162.845 125.436V125.444C162.88 125.687 162.975 125.885 163.114 126.041C163.131 126.067 163.157 126.084 163.174 126.102C163.191 126.119 163.217 126.145 163.235 126.162C163.39 126.301 163.589 126.396 163.831 126.43H163.84C163.901 126.439 163.961 126.448 164.022 126.448C178.223 126.448 212.102 126.448 226.304 126.448C227.886 126.448 227.886 123.983 226.295 123.983Z" fill="#E527BB"/>
<path d="M169.542 112.341C171.834 113.733 174.135 115.135 176.427 116.527C177.396 117.115 180.008 119.485 181.322 119.027C186.235 117.297 192.359 116.181 196.847 113.552C201.44 110.862 205.557 106.191 209.614 102.749C210.288 102.178 210.963 101.607 211.629 101.037C212.122 100.621 210.21 100.993 210.98 101.322C211.646 101.599 212.312 101.884 212.987 102.161C215.772 103.329 218.557 104.496 221.342 105.664C221.696 105.811 222.189 105.638 222.44 105.37C225.856 101.789 229.273 98.1998 232.689 94.619C233.692 93.5639 232.101 91.9638 231.089 93.019C227.811 96.4613 224.533 99.9036 221.246 103.346C220.459 104.168 222.501 103.718 221.29 103.208C219.992 102.663 218.704 102.118 217.406 101.582C215.365 100.725 213.324 99.869 211.283 99.0128C210.902 98.8571 210.47 99.0647 210.184 99.3068C206.967 102.04 203.741 104.764 200.523 107.497C198.958 108.829 197.384 110.161 195.818 111.485C195.118 112.081 196.458 111.312 195.446 111.666C194.538 111.986 193.639 112.298 192.731 112.618C190.032 113.569 187.325 114.521 184.626 115.472C183.606 115.835 182.585 116.19 181.565 116.544C180.293 116.994 181.271 116.821 181.271 116.821C177.742 114.676 174.204 112.531 170.675 110.386C169.439 109.625 168.306 111.588 169.542 112.341Z" fill="#A78BEF"/>
<path d="M183.705 117.747C183.705 119.156 182.563 120.298 181.153 120.298C179.743 120.298 178.602 119.156 178.602 117.747C178.602 116.337 179.743 115.195 181.153 115.195C182.563 115.204 183.705 116.345 183.705 117.747Z" fill="#A78BEF"/>
<path d="M198.83 112.315C198.83 113.725 197.688 114.866 196.278 114.866C194.868 114.866 193.727 113.725 193.727 112.315C193.727 110.905 194.868 109.763 196.278 109.763C197.688 109.772 198.83 110.914 198.83 112.315Z" fill="#A78BEF"/>
<path d="M213.314 100.103C213.314 101.513 212.172 102.654 210.762 102.654C209.353 102.654 208.211 101.513 208.211 100.103C208.211 98.6929 209.353 97.5513 210.762 97.5513C212.172 97.5513 213.314 98.6929 213.314 100.103Z" fill="#A78BEF"/>
<path d="M224.283 104.098C224.283 105.508 223.141 106.65 221.731 106.65C220.321 106.65 219.18 105.508 219.18 104.098C219.18 102.689 220.321 101.547 221.731 101.547C223.141 101.547 224.283 102.689 224.283 104.098Z" fill="#A78BEF"/>
<path d="M172.298 111.312C172.298 112.722 171.157 113.863 169.747 113.863C168.337 113.863 167.195 112.722 167.195 111.312C167.195 109.902 168.337 108.76 169.747 108.76C171.157 108.76 172.298 109.902 172.298 111.312Z" fill="#A78BEF"/>
<path d="M234.673 93.5639C234.673 94.9737 233.532 96.1154 232.122 96.1154C230.712 96.1154 229.57 94.9737 229.57 93.5639C229.57 92.1541 230.712 91.0125 232.122 91.0125C233.532 91.0125 234.673 92.1541 234.673 93.5639Z" fill="#A78BEF"/>
<path d="M231.853 77.8313C226.888 80.7546 221.915 83.678 216.942 86.6014C215.005 87.7431 213.067 88.8761 211.13 90.0178C211.951 89.5334 209.772 89.888 209.089 89.888C207.203 89.888 205.318 89.888 203.432 89.888C200.708 89.888 197.983 89.888 195.259 89.888C193.944 89.888 192.491 92.2838 191.747 93.0968C187.968 97.1965 184.197 101.287 180.417 105.387C177.182 102.031 173.948 98.6755 170.704 95.3196C169.692 94.2645 168.092 95.8732 169.104 96.9197C172.616 100.561 176.118 104.194 179.63 107.835C180.045 108.267 180.815 108.285 181.23 107.835C185.105 103.631 188.98 99.4279 192.854 95.2245C193.659 94.3596 194.454 93.486 195.259 92.6211C195.458 92.4049 195.579 92.2579 195.648 92.1454C195.674 92.1454 195.691 92.1541 195.726 92.1541C199.16 92.1541 202.602 92.1541 206.036 92.1541C207.566 92.1541 210.827 92.8287 212.228 91.9984C213.949 90.9865 215.662 89.9745 217.383 88.9712C222.581 85.9095 227.788 82.8564 232.986 79.7946C234.249 79.0421 233.116 77.0961 231.853 77.8313Z" fill="#E527BB"/>
<path d="M172.298 96.1152C172.298 97.525 171.157 98.6667 169.747 98.6667C168.337 98.6667 167.195 97.525 167.195 96.1152C167.195 94.7054 168.337 93.5637 169.747 93.5637C171.157 93.5637 172.298 94.7054 172.298 96.1152Z" fill="#E527BB"/>
<path d="M182.837 106.641C182.837 108.051 181.696 109.193 180.286 109.193C178.876 109.193 177.734 108.051 177.734 106.641C177.734 105.232 178.876 104.09 180.286 104.09C181.696 104.098 182.837 105.24 182.837 106.641Z" fill="#E527BB"/>
<path d="M197.158 91.021C197.158 92.4308 196.016 93.5724 194.606 93.5724C193.196 93.5724 192.055 92.4308 192.055 91.021C192.055 89.6112 193.196 88.4695 194.606 88.4695C196.016 88.4695 197.158 89.6112 197.158 91.021Z" fill="#E527BB"/>
<path d="M214.665 91.2546C214.665 92.6644 213.524 93.8061 212.114 93.8061C210.704 93.8061 209.562 92.6644 209.562 91.2546C209.562 89.8448 210.704 88.7031 212.114 88.7031C213.524 88.7118 214.665 89.8535 214.665 91.2546Z" fill="#E527BB"/>
<path d="M235.564 78.9038C235.564 80.3136 234.422 81.4552 233.012 81.4552C231.603 81.4552 230.461 80.3136 230.461 78.9038C230.461 77.494 231.603 76.3523 233.012 76.3523C234.422 76.3523 235.564 77.494 235.564 78.9038Z" fill="#E527BB"/>
<path d="M183.979 180.625H173.375V197.154H183.979V180.625Z" fill="#E527BB"/>
<path d="M225.941 200.449C212.224 200.449 180.049 200.449 165.268 200.449C165.268 186.749 165.268 173.04 165.268 159.34C165.268 157.766 162.82 157.766 162.82 159.34C162.82 173.464 162.82 187.588 162.82 201.712C162.82 201.772 162.829 201.833 162.838 201.893V201.902C162.872 202.144 162.967 202.343 163.097 202.49C163.114 202.516 163.14 202.533 163.158 202.551C163.175 202.568 163.201 202.594 163.218 202.611C163.374 202.75 163.564 202.836 163.806 202.871H163.815C163.875 202.879 163.927 202.888 163.997 202.888C178.12 202.888 211.809 202.888 225.932 202.888C227.515 202.897 227.515 200.449 225.941 200.449Z" fill="#E527BB"/>
<path d="M200.416 174.874H189.812V197.154H200.416V174.874Z" fill="#E527BB"/>
<path d="M216.846 169.113H206.242V197.145H216.846V169.113Z" fill="#E527BB"/>
<path d="M215.679 157.333C215.558 157.256 215.411 157.212 215.255 157.204C212.124 156.469 208.993 155.733 205.871 154.998C204.582 154.695 204.037 156.676 205.326 156.979C207.384 157.463 209.434 157.947 211.493 158.432C197.559 163.232 183.625 168.032 169.692 172.833C168.446 173.265 168.983 175.246 170.237 174.813C184.309 169.97 198.381 165.118 212.453 160.274C211.043 162.168 209.642 164.062 208.232 165.957C207.445 167.02 209.227 168.041 210.005 166.994C212.038 164.253 214.07 161.511 216.103 158.778C216.449 158.293 216.163 157.584 215.679 157.333Z" fill="#E527BB"/>
<path d="M162.828 134.396H227.125" stroke="#5F5F75" stroke-width="4" stroke-miterlimit="10"/>
<path d="M162.828 140.848H227.125" stroke="#5F5F75" stroke-width="4" stroke-miterlimit="10"/>
<path d="M162.828 147.309H196.914" stroke="#5F5F75" stroke-width="4" stroke-miterlimit="10"/>
<path d="M162.828 210.655H227.125" stroke="#5F5F75" stroke-width="4" stroke-miterlimit="10"/>
<path d="M162.828 217.107H227.125" stroke="#5F5F75" stroke-width="4" stroke-miterlimit="10"/>
<path d="M162.828 223.568H196.914" stroke="#5F5F75" stroke-width="4" stroke-miterlimit="10"/>
<path d="M243.624 74.5274H146.219V59.9624H231.542C238.305 59.9624 243.789 65.4459 243.789 72.2095V74.3631C243.789 74.4582 243.72 74.5274 243.624 74.5274Z" fill="#E0E0E0"/>
<path d="M146.216 74.5274C149.144 74.5274 151.518 71.2669 151.518 67.2449C151.518 63.2229 149.144 59.9624 146.216 59.9624C143.288 59.9624 140.914 63.2229 140.914 67.2449C140.914 71.2669 143.288 74.5274 146.216 74.5274Z" fill="#CCCCCC"/>
<path d="M109.766 305.319V313.241L123.353 312.878L123.846 305.699L109.766 305.319Z" fill="#E8A185"/>
<path d="M124.656 312.264L126.758 314.253L139.048 325.514C139.861 326.258 139.316 327.616 138.218 327.59L110.532 327.019C109.789 327.002 109.209 326.388 109.244 325.644L109.365 312.67L124.656 312.264Z" fill="#A78BEF"/>
<path d="M139.048 325.514L138.624 325.125C138.416 325.315 138.14 325.436 137.811 325.436L110.125 324.865C109.788 324.857 109.477 324.718 109.252 324.502L109.243 325.653C109.217 326.388 109.797 327.01 110.532 327.028L138.217 327.599C139.316 327.616 139.861 326.258 139.048 325.514Z" fill="#111111"/>
<path d="M135.029 325.575C135.021 325.575 135.021 325.575 135.029 325.575L109.255 325.177C109.091 325.177 108.961 325.039 108.961 324.874C108.961 324.71 109.073 324.58 109.264 324.58L135.029 324.978C135.194 324.978 135.323 325.117 135.323 325.281C135.315 325.445 135.185 325.575 135.029 325.575Z" fill="white"/>
<path d="M115.168 321.224C115.003 321.224 114.83 321.207 114.666 321.173C113.991 321.043 113.403 320.654 113.023 320.083C112.642 319.512 112.504 318.82 112.633 318.145C112.763 317.471 113.152 316.883 113.723 316.502C114.294 316.122 114.986 315.974 115.661 316.113C116.335 316.243 116.923 316.632 117.304 317.203C117.684 317.773 117.823 318.465 117.693 319.14C117.563 319.815 117.174 320.403 116.603 320.783C116.171 321.077 115.669 321.224 115.168 321.224ZM115.159 316.658C114.77 316.658 114.389 316.77 114.052 316.995C113.611 317.289 113.308 317.739 113.204 318.266C112.988 319.339 113.697 320.394 114.77 320.602C115.289 320.706 115.825 320.602 116.266 320.299C116.707 320.005 117.01 319.555 117.114 319.028C117.217 318.509 117.114 317.972 116.811 317.531C116.517 317.09 116.067 316.787 115.539 316.684C115.418 316.666 115.289 316.658 115.159 316.658Z" fill="white"/>
<path d="M124.42 317.064C124.351 317.064 124.273 317.038 124.221 316.986C124.1 316.874 124.092 316.692 124.204 316.571L126.539 314.054C126.652 313.933 126.834 313.925 126.955 314.037C127.076 314.149 127.084 314.331 126.972 314.452L124.637 316.969C124.576 317.03 124.498 317.064 124.42 317.064Z" fill="white"/>
<path d="M126.311 318.872C126.242 318.872 126.164 318.846 126.112 318.794C125.991 318.681 125.982 318.5 126.095 318.379L128.43 315.862C128.542 315.741 128.724 315.732 128.845 315.845C128.966 315.957 128.975 316.139 128.863 316.26L126.527 318.777C126.467 318.837 126.389 318.872 126.311 318.872Z" fill="white"/>
<path d="M128.077 320.645C128.007 320.645 127.93 320.619 127.878 320.567C127.757 320.455 127.748 320.273 127.86 320.152L130.196 317.635C130.308 317.514 130.49 317.505 130.611 317.618C130.732 317.73 130.741 317.912 130.628 318.033L128.293 320.55C128.232 320.619 128.155 320.645 128.077 320.645Z" fill="white"/>
<path d="M124.515 313.907C124.455 313.907 124.394 313.89 124.342 313.864C123.754 313.57 122.431 310.352 122.344 309.859C122.197 309.055 122.742 308.285 123.538 308.138C123.927 308.069 124.316 308.156 124.645 308.38C124.965 308.605 125.19 308.943 125.259 309.332C125.302 309.574 125.562 313.423 124.671 313.864C124.619 313.899 124.567 313.907 124.515 313.907ZM122.924 309.756C123.019 310.301 124.048 312.575 124.498 313.207C124.766 312.558 124.809 310.188 124.68 309.444C124.636 309.211 124.507 309.003 124.308 308.873C124.109 308.735 123.875 308.683 123.642 308.726C123.157 308.813 122.837 309.271 122.924 309.756Z" fill="white"/>
<path d="M124.899 313.916C124.631 313.916 124.432 313.864 124.362 313.752C124.311 313.665 124.259 313.509 124.311 313.293C124.535 312.402 126.689 310.681 127.199 310.387C127.909 309.981 128.817 310.223 129.223 310.923C129.422 311.269 129.474 311.667 129.37 312.048C129.266 312.428 129.024 312.748 128.678 312.947C128.453 313.086 126.023 313.916 124.899 313.916ZM127.935 310.785C127.779 310.785 127.632 310.82 127.493 310.906C126.853 311.278 125.15 312.783 124.907 313.354C125.599 313.319 127.891 312.731 128.384 312.446C128.592 312.324 128.739 312.134 128.799 311.901C128.86 311.667 128.825 311.434 128.713 311.226C128.54 310.941 128.246 310.785 127.935 310.785Z" fill="white"/>
<path d="M89.7734 305.319V313.241L103.361 312.878L103.863 305.699L89.7734 305.319Z" fill="#E8A185"/>
<path d="M104.188 312.861L106.289 314.85L118.58 326.111C119.393 326.855 118.848 328.213 117.749 328.187L90.0636 327.616C89.3198 327.599 88.7403 326.985 88.7749 326.241L88.896 313.267L104.188 312.861Z" fill="#A78BEF"/>
<path d="M118.579 326.103L118.155 325.713C117.948 325.904 117.671 326.025 117.342 326.025L89.6565 325.454C89.3192 325.445 89.0078 325.307 88.7829 325.091L88.7743 326.241C88.7483 326.976 89.3278 327.599 90.063 327.616L117.749 328.187C118.847 328.204 119.392 326.855 118.579 326.103Z" fill="#111111"/>
<path d="M114.56 326.172L88.7863 325.774C88.6219 325.774 88.4922 325.636 88.4922 325.471C88.4922 325.307 88.6046 325.168 88.7949 325.177L114.56 325.575C114.725 325.575 114.855 325.713 114.855 325.878C114.846 326.042 114.716 326.172 114.56 326.172Z" fill="white"/>
<path d="M94.6988 321.821C94.5345 321.821 94.3615 321.804 94.1972 321.769C93.5225 321.639 92.9344 321.25 92.5538 320.679C92.1733 320.109 92.0349 319.417 92.1646 318.742C92.4414 317.35 93.7993 316.433 95.1918 316.709C96.5843 316.986 97.5011 318.344 97.2243 319.737C97.0946 320.411 96.7054 320.999 96.1346 321.38C95.7021 321.674 95.2005 321.821 94.6988 321.821ZM94.6902 317.246C93.7561 317.246 92.9258 317.903 92.7355 318.854C92.6317 319.373 92.7355 319.91 93.0382 320.351C93.3323 320.792 93.782 321.095 94.3096 321.198C94.8286 321.302 95.3648 321.198 95.8059 320.896C96.247 320.602 96.5497 320.152 96.6535 319.624C96.8697 318.552 96.1605 317.497 95.088 317.289C94.9496 317.263 94.8199 317.246 94.6902 317.246Z" fill="white"/>
<path d="M103.952 317.652C103.882 317.652 103.805 317.626 103.753 317.574C103.632 317.462 103.623 317.28 103.735 317.159L106.071 314.642C106.183 314.521 106.365 314.513 106.486 314.625C106.607 314.738 106.616 314.919 106.503 315.04L104.168 317.557C104.107 317.626 104.03 317.652 103.952 317.652Z" fill="white"/>
<path d="M105.85 319.46C105.781 319.46 105.703 319.434 105.651 319.382C105.53 319.27 105.521 319.088 105.634 318.967L107.969 316.45C108.082 316.329 108.263 316.32 108.384 316.433C108.505 316.545 108.514 316.727 108.402 316.848L106.066 319.365C106.006 319.434 105.928 319.46 105.85 319.46Z" fill="white"/>
<path d="M107.608 321.242C107.539 321.242 107.461 321.216 107.409 321.164C107.288 321.052 107.279 320.87 107.392 320.749L109.727 318.232C109.839 318.111 110.021 318.102 110.142 318.215C110.263 318.327 110.272 318.509 110.159 318.63L107.824 321.147C107.772 321.207 107.694 321.242 107.608 321.242Z" fill="white"/>
<path d="M104.054 314.504C103.993 314.504 103.932 314.487 103.881 314.461C103.292 314.167 101.969 310.949 101.883 310.456C101.813 310.067 101.9 309.678 102.125 309.349C102.35 309.029 102.687 308.804 103.076 308.735C103.881 308.588 104.65 309.133 104.797 309.929C104.841 310.171 105.1 314.02 104.209 314.461C104.157 314.495 104.105 314.504 104.054 314.504ZM103.336 309.306C103.284 309.306 103.232 309.315 103.18 309.323C102.946 309.367 102.739 309.496 102.609 309.695C102.471 309.894 102.419 310.128 102.462 310.361C102.557 310.906 103.586 313.181 104.036 313.812C104.304 313.163 104.348 310.785 104.218 310.05C104.14 309.609 103.759 309.306 103.336 309.306Z" fill="white"/>
<path d="M104.43 314.513C104.162 314.513 103.963 314.461 103.894 314.348C103.842 314.262 103.79 314.106 103.842 313.89C104.067 312.999 106.22 311.278 106.731 310.984C107.068 310.785 107.474 310.733 107.855 310.837C108.236 310.941 108.556 311.183 108.754 311.529C108.953 311.866 109.005 312.273 108.902 312.653C108.798 313.034 108.556 313.354 108.21 313.553C107.993 313.674 105.554 314.513 104.43 314.513ZM107.466 311.373C107.31 311.373 107.154 311.416 107.025 311.494C106.385 311.866 104.681 313.371 104.439 313.942C105.131 313.907 107.423 313.319 107.916 313.034C108.123 312.913 108.27 312.722 108.331 312.489C108.391 312.255 108.357 312.022 108.244 311.814C108.123 311.607 107.933 311.46 107.699 311.399C107.621 311.39 107.544 311.373 107.466 311.373Z" fill="white"/>
<path d="M141.001 251.997L127.422 201.011H108.93L108.628 197.491H87.8872L85.0763 205.759C83.3811 210.759 83.2859 216.156 84.8255 221.207L85.1801 222.374L87.8959 252.845L87.204 307.204C87.1953 308.19 87.991 308.995 88.977 308.977L104.39 308.761C105.22 308.752 105.912 308.112 105.99 307.282L111.067 253.762C111.127 253.148 111.153 252.525 111.145 251.911L110.911 227.875L118.159 256.305L108.645 306.227C108.446 307.247 109.233 308.199 110.28 308.199H124.585C125.614 308.199 126.523 307.533 126.834 306.556L140.56 263.57C141.866 259.851 142.013 255.82 141.001 251.997Z" fill="#2B2B39"/>
<path d="M111.015 228.766C111.006 228.766 110.989 228.766 110.98 228.766C110.816 228.749 110.703 228.602 110.721 228.437L112.148 215.836C112.225 215.144 112.243 214.443 112.208 213.751L111.75 205.249C111.741 205.085 111.862 204.947 112.027 204.938C112.182 204.929 112.329 205.05 112.338 205.215L112.796 213.717C112.831 214.443 112.814 215.178 112.736 215.896L111.309 228.498C111.283 228.654 111.162 228.766 111.015 228.766Z" fill="#322380"/>
<path d="M96.8206 201.669C96.8206 201.669 93.4389 220.896 94.693 229.96C95.9384 239.024 99.277 264.928 96.0249 308.943" stroke="#322380" stroke-miterlimit="10"/>
<path d="M111.766 223.49L123.182 254.756L111.766 308.208" stroke="#322380" stroke-miterlimit="10"/>
<path d="M134.655 155.612L132.406 149.619C130.261 143.902 124.786 140.113 118.68 140.113H93.8831C86.9898 140.113 81.022 144.922 79.5516 151.66L75.1406 171.899L91.6257 183.592L87.4136 198.858C87.4136 198.858 127.943 204.929 130.754 201.245L127.563 174.052L134.655 155.612Z" fill="#E8A185"/>
<path d="M160.738 149.091H160.712C160.66 148.823 160.608 148.563 160.548 148.295C159.7 144.109 157.477 139.508 156.612 135.321C156.552 135.01 156.482 134.69 156.517 134.379C156.578 133.912 156.872 133.488 157.287 133.272C157.702 133.055 158.221 133.055 158.636 133.28C159.12 133.54 159.415 134.05 159.613 134.56C159.873 135.235 160.115 135.91 160.383 136.584C160.643 137.242 161.62 137.086 161.663 136.377C161.81 133.791 161.957 131.213 162.096 128.627C162.122 128.117 162.174 127.563 162.52 127.191C162.995 126.681 163.973 126.828 164.284 127.442C164.414 127.693 164.44 127.987 164.457 128.264C164.604 130.028 164.82 131.784 164.889 133.548C164.941 134.924 165.183 135.789 165.132 136.783C165.149 136.455 165.132 135.97 165.14 135.642C165.235 133.661 165.356 131.68 165.365 129.691C165.365 129.38 165.486 129.034 165.65 128.774C165.754 128.601 165.919 128.463 166.109 128.394C166.299 128.324 166.515 128.316 166.706 128.402C166.922 128.497 167.078 128.714 167.155 128.938C167.294 129.328 167.38 129.734 167.398 130.141C167.449 131.308 167.493 132.485 167.553 133.652C167.614 134.846 167.571 136.074 167.709 137.259C167.674 136.93 167.735 136.567 167.769 136.247C167.83 135.564 167.917 134.872 168.003 134.188C168.089 133.505 168.107 132.675 168.652 132.173C168.885 131.957 169.231 131.836 169.508 131.983C169.638 132.052 169.733 132.165 169.802 132.294C170.027 132.709 169.984 133.22 169.966 133.678C169.949 134.128 169.932 134.569 169.906 135.019C169.871 135.927 169.828 136.826 169.776 137.735C169.75 138.254 169.733 138.772 169.707 139.283" fill="#E8A185"/>
<path d="M169.863 148.295L168.366 153.329L160.738 149.082H160.712C160.66 148.814 160.608 148.555 160.548 148.287C159.7 144.1 157.477 139.499 156.612 135.313C156.552 135.002 156.482 134.682 156.517 134.37C156.578 133.903 156.872 133.479 157.287 133.263C157.702 133.047 158.221 133.047 158.636 133.272C159.12 133.531 159.415 134.042 159.613 134.552C159.873 135.226 160.115 135.901 160.383 136.576C160.643 137.233 161.62 137.077 161.663 136.368C161.81 133.782 161.957 131.205 162.096 128.619C162.122 128.108 162.174 127.555 162.52 127.183C162.995 126.673 163.973 126.82 164.284 127.434C164.414 127.684 164.44 127.979 164.457 128.255C164.604 130.02 164.82 131.775 164.889 133.54C164.941 134.915 165.183 135.78 165.132 136.775C165.149 136.446 165.132 135.962 165.14 135.633C165.235 133.652 165.356 131.672 165.365 129.682C165.365 129.371 165.486 129.025 165.65 128.766C165.754 128.593 165.919 128.454 166.109 128.385C166.299 128.316 166.515 128.307 166.706 128.394C166.922 128.489 167.078 128.705 167.155 128.93C167.294 129.319 167.38 129.726 167.398 130.132C167.449 131.3 167.493 132.476 167.553 133.644C167.614 134.837 167.571 136.065 167.709 137.25C167.674 136.922 167.735 136.558 167.769 136.238C167.83 135.555 167.917 134.863 168.003 134.18C168.089 133.497 168.107 132.666 168.652 132.165C168.885 131.948 169.231 131.827 169.508 131.974C169.638 132.044 169.733 132.156 169.802 132.286C170.027 132.701 169.984 133.211 169.966 133.67C169.949 134.119 169.932 134.56 169.906 135.01C169.871 135.918 169.828 136.818 169.776 137.726C169.75 138.245 169.733 138.764 169.707 139.274" fill="#E8A185"/>
<path opacity="0.2" d="M169.863 148.295L168.366 153.329L160.738 149.082H160.712C160.66 148.814 160.608 148.555 160.548 148.287C159.7 144.1 157.477 139.499 156.612 135.313C156.552 135.002 156.482 134.682 156.517 134.37C156.578 133.903 156.872 133.479 157.287 133.263C157.702 133.047 158.221 133.047 158.636 133.272C159.12 133.531 159.415 134.042 159.613 134.552C159.873 135.226 160.115 135.901 160.383 136.576C160.643 137.233 161.62 137.077 161.663 136.368C161.81 133.782 161.957 131.205 162.096 128.619C162.122 128.108 162.174 127.555 162.52 127.183C162.995 126.673 163.973 126.82 164.284 127.434C164.414 127.684 164.44 127.979 164.457 128.255C164.604 130.02 164.82 131.775 164.889 133.54C164.941 134.915 165.183 135.78 165.132 136.775C165.149 136.446 165.132 135.962 165.14 135.633C165.235 133.652 165.356 131.672 165.365 129.682C165.365 129.371 165.486 129.025 165.65 128.766C165.754 128.593 165.919 128.454 166.109 128.385C166.299 128.316 166.515 128.307 166.706 128.394C166.922 128.489 167.078 128.705 167.155 128.93C167.294 129.319 167.38 129.726 167.398 130.132C167.449 131.3 167.493 132.476 167.553 133.644C167.614 134.837 167.571 136.065 167.709 137.25C167.674 136.922 167.735 136.558 167.769 136.238C167.83 135.555 167.917 134.863 168.003 134.18C168.089 133.497 168.107 132.666 168.652 132.165C168.885 131.948 169.231 131.827 169.508 131.974C169.638 132.044 169.733 132.156 169.802 132.286C170.027 132.701 169.984 133.211 169.966 133.67C169.949 134.119 169.932 134.56 169.906 135.01C169.871 135.918 169.828 136.818 169.776 137.726C169.75 138.245 169.733 138.764 169.707 139.274" fill="#E06A4B"/>
<path d="M134.655 155.612L143.261 165.403L160.68 148.321L168.369 153.338L154.522 179.484C152.221 188.34 140.848 190.84 135.044 183.756L126.266 173.04L134.655 155.612Z" fill="#E8A185"/>
<path opacity="0.2" d="M134.655 155.612L143.261 165.403L160.68 148.321L168.369 153.338L154.522 179.484C152.221 188.34 140.848 190.84 135.044 183.756L126.266 173.04L134.655 155.612Z" fill="#E06A4B"/>
<path d="M163.143 142.059C163.109 142.068 163.074 142.076 163.031 142.076C162.953 142.068 162.884 142.033 162.832 141.981C162.78 141.921 162.754 141.851 162.763 141.774C163.005 138.383 160.54 137.146 160.436 137.103C160.367 137.068 160.315 137.008 160.289 136.939C160.263 136.87 160.272 136.792 160.298 136.723C160.332 136.653 160.393 136.601 160.462 136.575C160.531 136.55 160.609 136.558 160.678 136.584C160.704 136.601 163.593 138.063 163.325 141.817C163.316 141.895 163.282 141.972 163.221 142.016C163.204 142.033 163.178 142.05 163.143 142.059Z" fill="#AF4E4A"/>
<path d="M140.613 170.22C140.562 170.22 140.51 170.212 140.466 170.177C140.328 170.091 140.276 169.918 140.363 169.771L143.243 164.841C143.321 164.702 143.502 164.65 143.649 164.737C143.788 164.823 143.84 164.996 143.753 165.143L140.873 170.073C140.812 170.168 140.717 170.22 140.613 170.22Z" fill="#AF4E4A"/>
<path d="M134.811 155.612C135.693 153.355 126.076 137.302 123.879 141.073C120.601 146.712 109.478 153.502 83.7212 144.204C82.839 145.225 81.9741 146.323 81.1352 147.525C75.3922 155.751 73.8008 164.581 73.4375 170.904C80.2443 171.18 87.0598 171.457 93.8666 171.734L87.5095 199.039C87.5095 199.039 126.499 206.927 130.919 201.236L127.728 172.763L134.811 155.612Z" fill="#A78BEF"/>
<path d="M89.4932 136.117C91.2576 134.811 93.4631 133.843 94.3885 131.862C95.3918 129.726 93.9993 125.496 93.9993 125.496C92.9787 123.109 93.4544 120.246 94.8815 118.067L95.0113 115.048C94.994 114.728 94.994 114.417 95.0199 114.114C92.8749 113.206 90.7473 111.571 89.744 110.187C87.9017 107.662 88.4553 104.116 90.9894 102.274C93.515 100.431 97.0611 100.985 98.9033 103.519C99.5261 104.375 100.106 105.673 100.512 107.082C101.308 106.832 102.164 106.693 103.046 106.711L107.068 106.788L111.764 105.024C115.83 103.51 120.292 105.932 121.235 110.162L122.264 114.754L121.763 114.823C122.135 115.896 122.394 117.046 122.515 118.257L122.896 122.115L120.552 122.348C120.292 123.204 119.35 126.655 120.223 128.515C121.149 130.504 123.354 131.464 125.119 132.77C126.883 134.076 128.353 136.541 127.125 138.357C124.894 136.974 121.624 137.683 120.154 139.854C119.142 138.435 118.13 137.017 117.118 135.598C117.75 137.164 117.957 138.894 117.715 140.563C115.449 141.073 113.07 141.073 110.813 140.563C110.536 140.502 110.242 140.425 110.009 140.269C109.265 140.667 108.512 141.047 107.76 141.428C107.336 140.087 106.722 138.816 105.952 137.64C105.701 137.51 105.451 137.389 105.2 137.259C105.191 138.859 105.174 140.459 105.165 142.059C105.165 142.535 105.139 143.063 104.819 143.417C104.56 143.703 104.162 143.815 103.79 143.901C101.524 144.412 99.1455 144.412 96.8881 143.901C96.6459 142.232 96.8535 140.502 97.4849 138.937C96.4729 140.355 95.461 141.774 94.4491 143.192C92.9874 141.013 89.718 140.312 87.4779 141.696C86.2584 139.888 87.7374 137.415 89.4932 136.117Z" fill="#231F20"/>
<path d="M100.568 118.421L101.882 118.378L103.439 121.224C104.001 122.253 105.558 121.941 105.679 120.765L106.267 114.823C106.371 113.742 107.738 113.336 108.421 114.183L109.744 115.826L114.371 115.662L115.383 111.805L116.17 115.584L120.045 115.065L121.939 125.764C122.683 129.976 120.339 133.99 116.586 135.347L116.023 140.234C115.582 144.048 112.01 146.799 108.084 146.349L107.919 146.332C103.993 145.882 100.438 148.33 100.879 144.515L102.842 126.716L100.862 126.785C98.5869 126.863 96.6668 125.072 96.5889 122.798V122.703C96.5025 120.419 98.2928 118.499 100.568 118.421Z" fill="#E8A185"/>
<path d="M100.273 124.043C100.334 124.043 100.386 124.026 100.446 123.991L101.796 123.109C101.873 123.057 101.917 122.979 101.934 122.893C101.943 122.806 101.917 122.711 101.856 122.651L100.412 121.042C100.299 120.912 100.1 120.904 99.9793 121.016C99.8495 121.128 99.8409 121.327 99.9533 121.449L101.156 122.789L100.109 123.472C99.962 123.568 99.9274 123.758 100.022 123.896C100.074 123.991 100.178 124.043 100.273 124.043Z" fill="#AF4E4A"/>
<path d="M116.563 135.451C116.563 135.451 109.021 136.031 107.524 133.159C107.524 133.159 107.36 137.96 116.07 139.715L116.563 135.451Z" fill="#AF4E4A"/>
<path d="M99.9359 131.014C99.1055 130.962 98.3444 130.591 97.7995 129.968C97.246 129.345 96.9779 128.549 97.0298 127.719C97.1336 126.007 98.6212 124.709 100.325 124.813C102.038 124.917 103.344 126.396 103.24 128.1C103.136 129.743 101.769 131.014 100.143 131.014C100.057 131.023 99.9964 131.014 99.9359 131.014ZM98.0504 127.788C98.0158 128.342 98.1974 128.878 98.5693 129.293C98.9412 129.708 99.4429 129.959 99.9964 129.994C101.147 130.063 102.124 129.189 102.202 128.048C102.271 126.906 101.398 125.92 100.256 125.851C100.213 125.851 100.169 125.851 100.126 125.851C99.0364 125.842 98.1195 126.69 98.0504 127.788Z" fill="white"/>
<g opacity="0.3">
<mask id="mask0_1915_4768" style="mask-type:luminance" maskUnits="userSpaceOnUse" x="73" y="148" width="62" height="56">
<path d="M134.653 155.612C134.653 155.612 133.105 146.686 131.747 148.321C127.57 153.337 105.688 159.565 79.9394 150.267L73.2969 170.903L93.7259 171.734L87.3689 199.039C87.3689 199.039 126.359 206.927 130.778 201.236L127.587 172.763L134.653 155.612Z" fill="white"/>
</mask>
<g mask="url(#mask0_1915_4768)">
<path d="M90.3782 150.829C83.3638 156.33 77.69 163.457 73.8931 171.552C71.5319 176.577 68.695 184.197 68.7988 190.926C68.4096 190.502 68.0203 190.079 67.6484 189.655C67.856 183.912 69.8712 177.814 71.7654 173.282C75.4153 164.564 81.1583 156.849 88.3975 150.838H90.3782V150.829Z" fill="#CCC0B2"/>
<path d="M123.899 198.261C121.667 201.565 119.323 204.782 116.884 207.939H116.876C116.313 207.999 115.751 208.06 115.18 208.103C118.64 203.684 121.909 199.108 124.962 194.386C126.718 191.67 129.832 187.709 128.682 184.215C127.229 179.812 121.174 181.663 118.078 182.736C106.462 186.766 97.6141 195.778 89.6743 204.955C89.2592 204.808 88.844 204.652 88.4375 204.488C92.0182 200.345 95.7287 196.297 99.8197 192.639C104.421 188.513 109.524 184.889 115.232 182.485C119.064 180.876 126.061 178.1 129.166 182.459C132.643 187.32 126.459 194.481 123.899 198.261Z" fill="#CCC0B2"/>
<path d="M140.37 150.829C138 153.052 135.57 155.206 133.088 157.307C127.068 162.376 120.754 167.089 114.172 171.397C110.981 173.481 107.72 175.782 104.217 177.304C101.493 178.48 98.2406 179.042 95.6977 177.14C90.318 173.126 93.2155 165.022 95.6026 160.161C97.3065 156.702 99.5552 153.562 102.228 150.829H104.009C100.567 154.107 97.7908 158.06 95.914 162.479C94.5907 165.584 93.2501 169.364 94.2101 172.746C95.5853 177.581 100.316 177.762 104.226 175.937C110.185 173.161 115.772 168.975 121.074 165.135C127.172 160.715 132.992 155.941 138.528 150.838H140.37V150.829Z" fill="#CCC0B2"/>
</g>
</g>
<path d="M126.574 175.713C126.678 175.713 126.773 175.652 126.816 175.557L128.408 171.933C129.61 169.2 129.688 166.155 128.624 163.362L126.721 158.345C126.669 158.207 126.514 158.138 126.384 158.19C126.245 158.241 126.176 158.397 126.228 158.527L128.131 163.543C129.143 166.207 129.065 169.105 127.923 171.708L126.332 175.332C126.271 175.462 126.332 175.626 126.47 175.678C126.505 175.704 126.54 175.713 126.574 175.713Z" fill="#253F3D"/>
<path d="M135.235 168.456C135.261 166.847 133.972 166.571 132.675 166.631C133.557 166.415 134.301 165.948 134.162 164.858C133.505 161.788 129.821 163.301 127.511 163.941C126.439 164.322 125.462 164.651 124.545 164.962C124.969 163.933 125.401 162.886 125.436 161.77C125.444 161.416 125.401 161.009 125.116 160.784C124.899 160.611 124.597 160.585 124.329 160.663C124.06 160.733 123.827 160.888 123.602 161.044C121.492 162.506 116.233 167.859 116.233 167.859C115.705 168.508 115.221 169.217 114.797 169.944L92.7076 176.932L93.7108 171.734L75.2797 171.189L73.0742 182.321C72.1315 190.658 80.3394 197.05 88.1927 194.083L119.485 181.741C120.298 181.784 121.051 181.715 121.621 181.447L130.815 177.46C132.545 176.811 133.289 174.562 131.905 174.294C133.332 174.147 134.846 173.481 134.491 171.76C134.405 170.783 133.695 170.515 132.874 170.497C134.18 170.324 135.417 169.909 135.235 168.456ZM130.763 170.688C130.928 170.662 131.127 170.636 131.343 170.618C131.135 170.644 130.936 170.67 130.763 170.688Z" fill="#E8A185"/>
<path d="M92.7995 176.776C92.7822 176.776 92.7649 176.776 92.7476 176.768C92.5919 176.733 92.4795 176.586 92.5141 176.422L93.4741 171.431L95.8699 171.449H95.8786C96.337 171.449 96.7089 171.094 96.7348 170.636L97.3662 157.126C97.3749 156.961 97.5133 156.832 97.6776 156.849C97.8419 156.858 97.963 156.996 97.9544 157.16L97.323 170.67C97.2884 171.449 96.6483 172.063 95.8699 172.045L93.9585 172.028L93.0849 176.534C93.059 176.673 92.9379 176.776 92.7995 176.776Z" fill="#253F3D"/>
<path opacity="0.5" d="M124.547 164.962L119.539 167.115C119.539 167.115 124.296 163.362 125.239 163.05L124.547 164.962Z" fill="#AF4E4A"/>
<path d="M129.605 167.877C129.484 167.877 129.372 167.799 129.329 167.678C129.277 167.522 129.354 167.358 129.51 167.306C129.822 167.202 132.589 166.251 133.143 166.225C133.298 166.199 133.445 166.337 133.454 166.501C133.463 166.666 133.342 166.804 133.177 166.813C132.823 166.83 130.859 167.47 129.7 167.859C129.666 167.868 129.64 167.877 129.605 167.877Z" fill="#AF4E4A"/>
<path d="M89.4404 178.376C89.3193 178.376 89.2068 178.299 89.1636 178.178C89.1117 178.022 89.1982 177.858 89.3452 177.806L95.5552 175.721C95.7109 175.669 95.8753 175.756 95.9272 175.903C95.979 176.059 95.8926 176.223 95.7455 176.275L89.5355 178.359C89.5009 178.376 89.4663 178.376 89.4404 178.376Z" fill="#AF4E4A"/>
<path d="M130.339 171.648C130.218 171.648 130.097 171.57 130.062 171.44C130.01 171.284 130.097 171.12 130.252 171.068L133.063 170.16C133.219 170.108 133.383 170.194 133.435 170.35C133.487 170.506 133.4 170.67 133.245 170.722L130.434 171.63C130.399 171.639 130.365 171.648 130.339 171.648Z" fill="#AF4E4A"/>
<path d="M130.382 175.038C130.253 175.038 130.14 174.951 130.097 174.83C130.054 174.674 130.14 174.51 130.296 174.467L131.818 174.008C131.974 173.965 132.138 174.052 132.181 174.207C132.225 174.363 132.138 174.527 131.983 174.571L130.46 175.029C130.443 175.038 130.417 175.038 130.382 175.038Z" fill="#AF4E4A"/>
<path d="M396.648 253.589L411.456 328.377" stroke="#2B2B39" stroke-width="9.0611" stroke-miterlimit="10"/>
<path d="M373.13 253.589L358.539 327.261" stroke="#2B2B39" stroke-width="9.0611" stroke-miterlimit="10"/>
<path d="M402.966 159.418H392.941C382.571 159.418 374.164 167.825 374.164 178.195V247.128H355.422V257.783H411.087C416.977 257.783 421.743 253.009 421.743 247.128V178.195C421.743 167.825 413.336 159.418 402.966 159.418Z" fill="#F8B200"/>
<path d="M374.435 300.38L377.436 315.966L368.64 316.545L362.992 300.38H374.435Z" fill="#C1725C"/>
<path d="M364.97 313.38L362.911 315.317L350.907 326.319C350.111 327.045 350.638 328.368 351.72 328.351L376.932 327.798C377.658 327.78 378.22 327.175 378.194 326.457L378.073 313.786L364.97 313.38Z" fill="#A78BEF"/>
<path d="M350.909 326.318L351.324 325.938C351.531 326.12 351.791 326.249 352.119 326.241L377.331 325.687C377.669 325.678 377.963 325.54 378.188 325.333L378.196 326.457C378.222 327.175 377.66 327.78 376.934 327.798L351.722 328.351C350.649 328.377 350.122 327.054 350.909 326.318Z" fill="#111111"/>
<path d="M354.835 326.405C354.67 326.405 354.532 326.267 354.523 326.102C354.523 325.929 354.653 325.791 354.826 325.791L378.161 325.402C378.343 325.402 378.473 325.532 378.473 325.705C378.473 325.878 378.343 326.016 378.17 326.016L354.835 326.405Z" fill="white"/>
<path d="M374.249 322.158C373.747 322.158 373.263 322.011 372.839 321.726C372.277 321.345 371.896 320.775 371.766 320.109C371.637 319.443 371.775 318.768 372.147 318.206C372.527 317.644 373.098 317.263 373.764 317.133C374.43 317.004 375.105 317.133 375.667 317.514C376.229 317.894 376.61 318.465 376.74 319.131C376.869 319.797 376.731 320.472 376.359 321.034C375.978 321.596 375.408 321.977 374.742 322.106C374.577 322.141 374.413 322.158 374.249 322.158ZM374.257 317.687C374.136 317.687 374.006 317.695 373.885 317.721C372.847 317.929 372.164 318.941 372.372 319.979C372.579 321.017 373.591 321.7 374.629 321.492C375.667 321.285 376.35 320.273 376.143 319.235C375.961 318.327 375.157 317.687 374.257 317.687Z" fill="white"/>
<path d="M365.208 318.085C365.121 318.085 365.043 318.05 364.983 317.99L362.699 315.533C362.587 315.412 362.587 315.213 362.717 315.101C362.838 314.988 363.037 314.988 363.149 315.118L365.433 317.574C365.545 317.696 365.545 317.894 365.415 318.007C365.355 318.059 365.277 318.085 365.208 318.085Z" fill="white"/>
<path d="M363.356 319.849C363.278 319.849 363.192 319.815 363.131 319.754L360.848 317.298C360.735 317.177 360.735 316.978 360.865 316.865C360.986 316.753 361.185 316.753 361.298 316.883L363.581 319.339C363.693 319.46 363.693 319.659 363.564 319.771C363.503 319.823 363.434 319.849 363.356 319.849Z" fill="white"/>
<path d="M361.614 321.587C361.527 321.587 361.45 321.553 361.389 321.492L359.106 319.036C358.993 318.915 358.993 318.716 359.123 318.604C359.244 318.491 359.443 318.491 359.555 318.621L361.839 321.077C361.951 321.198 361.951 321.397 361.822 321.51C361.761 321.561 361.692 321.587 361.614 321.587Z" fill="white"/>
<path d="M365.107 315.006C365.055 315.006 364.995 314.997 364.951 314.971C364.061 314.521 364.32 310.768 364.372 310.517C364.51 309.721 365.28 309.193 366.076 309.332C366.871 309.47 367.399 310.24 367.261 311.036C367.174 311.52 365.877 314.677 365.297 314.962C365.228 314.988 365.168 315.006 365.107 315.006ZM365.808 309.92C365.401 309.92 365.047 310.214 364.969 310.621C364.848 311.321 364.891 313.57 365.133 314.245C365.583 313.587 366.551 311.434 366.647 310.915C366.733 310.456 366.422 310.006 365.955 309.929C365.903 309.929 365.86 309.92 365.808 309.92Z" fill="white"/>
<path d="M364.733 315.014C363.618 315.014 361.256 314.193 361.04 314.071C360.703 313.873 360.461 313.561 360.357 313.181C360.253 312.8 360.305 312.411 360.504 312.065C360.91 311.364 361.81 311.122 362.511 311.529C363.004 311.814 365.114 313.501 365.339 314.374C365.391 314.59 365.339 314.746 365.287 314.833C365.209 314.962 365.01 315.014 364.733 315.014ZM361.775 311.952C361.481 311.952 361.196 312.108 361.04 312.376C360.928 312.575 360.893 312.8 360.954 313.025C361.014 313.241 361.153 313.431 361.352 313.544C361.827 313.821 364.059 314.391 364.733 314.426C364.5 313.907 362.822 312.428 362.199 312.065C362.061 311.987 361.914 311.952 361.775 311.952Z" fill="white"/>
<path d="M367.077 221.042C367.077 221.042 338.457 230.876 340.04 243.66C341.623 256.443 364.543 303.658 364.543 303.658L375.76 301.669L375.138 271.648C371.912 260.067 370.536 253.597 366.264 248.494L389.781 244.888C389.772 244.896 384.349 221.354 367.077 221.042Z" fill="#2B2B39"/>
<path d="M372.382 298.858C372.425 298.858 372.46 298.849 372.503 298.832C372.728 298.754 372.84 298.503 372.762 298.278C372.71 298.131 372.217 273.897 369.519 263.033C367.305 254.099 361.683 248.183 359.581 246.228C362.228 245.978 366.595 245.061 366.812 245.017C367.045 244.966 367.192 244.741 367.149 244.507C367.097 244.274 366.872 244.127 366.639 244.17C366.578 244.179 360.714 245.415 358.517 245.424C358.336 245.424 358.171 245.545 358.111 245.718C358.05 245.891 358.102 246.081 358.249 246.202C358.327 246.263 366.025 252.516 368.689 263.25C371.396 274.156 371.906 298.434 371.958 298.581C372.018 298.763 372.2 298.875 372.382 298.858Z" fill="#5F5F75"/>
<path d="M362.692 301.202C362.709 301.202 362.735 301.202 362.752 301.193L374.688 298.694C374.921 298.642 375.068 298.417 375.025 298.183C374.973 297.95 374.748 297.794 374.515 297.846L362.579 300.346C362.346 300.397 362.199 300.622 362.242 300.856C362.285 301.072 362.484 301.21 362.692 301.202Z" fill="#5F5F75"/>
<path d="M315.692 281.845L308.193 291.056L300.625 285.72L307.587 274.208L315.692 281.845Z" fill="#C1725C"/>
<path d="M299.895 281.387L297.084 281.655L280.85 282.961C279.778 283.048 279.38 284.423 280.245 285.063L300.484 300.112C301.063 300.545 301.885 300.415 302.308 299.827L309.997 289.751L299.895 281.387Z" fill="#A78BEF"/>
<path d="M280.847 282.961L281.409 282.918C281.461 283.186 281.59 283.445 281.85 283.644L302.08 298.694C302.348 298.893 302.668 298.97 302.971 298.936L302.288 299.827C301.864 300.415 301.042 300.545 300.463 300.112L280.224 285.063C279.376 284.423 279.774 283.047 280.847 282.961Z" fill="#111111"/>
<path d="M283.891 285.443C283.761 285.339 283.735 285.149 283.831 285.019C283.934 284.881 284.125 284.855 284.263 284.959L302.91 298.988C303.057 299.1 303.075 299.282 302.971 299.42C302.867 299.559 302.677 299.584 302.539 299.481L283.891 285.443Z" fill="white"/>
<path d="M301.823 294.006C301.433 293.703 301.131 293.288 300.975 292.804C300.759 292.163 300.811 291.472 301.122 290.866C301.425 290.261 301.952 289.811 302.592 289.595C303.233 289.379 303.924 289.43 304.53 289.742C305.135 290.044 305.585 290.572 305.801 291.212C306.017 291.852 305.966 292.544 305.654 293.15C305.352 293.755 304.824 294.205 304.184 294.421C303.544 294.637 302.852 294.585 302.247 294.274C302.091 294.205 301.952 294.11 301.823 294.006ZM304.573 290.494C304.478 290.416 304.374 290.347 304.253 290.295C303.302 289.82 302.143 290.2 301.667 291.143C301.191 292.094 301.572 293.253 302.515 293.729C303.466 294.205 304.625 293.824 305.101 292.881C305.525 292.042 305.282 291.039 304.573 290.494Z" fill="white"/>
<path d="M297.182 285.244C297.122 285.192 297.07 285.115 297.061 285.028L296.767 281.69C296.75 281.517 296.88 281.37 297.044 281.361C297.208 281.344 297.364 281.473 297.373 281.638L297.667 284.976C297.684 285.149 297.554 285.296 297.39 285.305C297.321 285.314 297.243 285.288 297.182 285.244Z" fill="white"/>
<path d="M294.643 285.504C294.583 285.452 294.531 285.374 294.522 285.287L294.228 281.949C294.211 281.776 294.341 281.629 294.505 281.62C294.678 281.603 294.825 281.733 294.834 281.897L295.128 285.236C295.145 285.408 295.015 285.556 294.851 285.564C294.773 285.573 294.704 285.547 294.643 285.504Z" fill="white"/>
<path d="M292.206 285.807C292.137 285.755 292.093 285.677 292.085 285.59L291.791 282.252C291.773 282.079 291.903 281.932 292.067 281.923C292.232 281.906 292.387 282.036 292.396 282.2L292.69 285.538C292.707 285.711 292.578 285.858 292.413 285.867C292.344 285.876 292.266 285.85 292.206 285.807Z" fill="white"/>
<path d="M298.997 282.753C298.954 282.719 298.92 282.675 298.894 282.624C298.461 281.724 300.978 278.922 301.168 278.757C301.765 278.221 302.699 278.264 303.235 278.87C303.772 279.467 303.728 280.401 303.123 280.937C302.76 281.266 299.793 282.961 299.162 282.831C299.101 282.814 299.049 282.788 298.997 282.753ZM302.673 279.173C302.353 278.922 301.895 278.93 301.583 279.216C301.056 279.692 299.707 281.491 299.49 282.182C300.243 281.94 302.336 280.833 302.725 280.487C303.071 280.176 303.106 279.631 302.786 279.285C302.751 279.233 302.717 279.199 302.673 279.173Z" fill="white"/>
<path d="M298.702 282.529C297.82 281.845 296.462 279.744 296.367 279.519C296.22 279.155 296.22 278.758 296.376 278.394C296.531 278.031 296.808 277.754 297.171 277.607C297.924 277.304 298.78 277.668 299.083 278.42C299.299 278.948 299.922 281.577 299.567 282.407C299.481 282.615 299.342 282.701 299.247 282.736C299.109 282.779 298.919 282.701 298.702 282.529ZM298.244 278.29C298.01 278.109 297.69 278.057 297.396 278.169C297.189 278.256 297.024 278.42 296.929 278.628C296.843 278.835 296.834 279.069 296.921 279.276C297.128 279.787 298.538 281.603 299.048 282.053C299.178 281.499 298.771 279.302 298.503 278.636C298.451 278.498 298.365 278.386 298.244 278.29Z" fill="white"/>
<path d="M302.625 280.444L312.45 286.723C312.45 286.723 320.165 279.579 329.688 271.146C339.21 262.705 348.093 252.758 351.804 245.234C351.804 245.234 379.896 257.36 395.127 254.332C401.466 253.07 404.321 248.728 405.497 244.092C405.67 243.4 405.808 242.699 405.912 242.007C406.803 236.161 405.601 225.522 405.601 225.522C405.601 225.522 369.768 223.931 351.311 224.571C350.022 224.614 348.82 224.692 347.721 224.813C345.983 225.003 344.495 225.289 343.327 225.695C340.984 226.517 338.069 228.991 334.877 232.45C334.765 232.571 334.652 232.701 334.531 232.822C320.918 247.846 302.625 280.444 302.625 280.444Z" fill="#2B2B39"/>
<path opacity="0.1" d="M334.875 232.442C344.934 234.224 349.501 228.195 351.3 224.563C350.011 224.606 348.809 224.684 347.71 224.805C345.972 224.995 344.484 225.281 343.316 225.687C340.973 226.509 338.058 228.974 334.875 232.442Z" fill="white"/>
<path d="M340.393 261.131C340.48 261.122 340.558 261.096 340.627 261.044C347.555 255.682 351.274 247.854 352.148 245.856C355.772 247.958 366.868 251.227 367.361 251.366C367.595 251.435 367.828 251.305 367.898 251.072C367.967 250.838 367.837 250.605 367.603 250.535C367.482 250.501 355.114 246.86 352.191 244.862C352.078 244.784 351.949 244.767 351.819 244.81C351.689 244.853 351.594 244.94 351.542 245.069C351.508 245.164 347.858 254.35 340.091 260.369C339.901 260.516 339.866 260.785 340.013 260.975C340.117 261.087 340.255 261.148 340.393 261.131Z" fill="#5F5F75"/>
<path d="M314.568 284.587C314.698 284.578 314.819 284.509 314.897 284.397C315.026 284.198 314.975 283.93 314.776 283.8L304.777 277.227C304.578 277.097 304.31 277.149 304.181 277.348C304.051 277.547 304.103 277.815 304.302 277.945L314.3 284.518C314.386 284.57 314.482 284.596 314.568 284.587Z" fill="#5F5F75"/>
<path d="M312.146 282.944C312.241 283.039 312.362 283.082 312.483 283.065C312.587 283.056 312.682 283.013 312.76 282.944C312.924 282.779 329.271 266.588 337.159 259.617C344.277 253.321 348.584 243.538 349.458 241.437C352.381 242.587 370.596 249.524 387.531 250.449C395.194 250.873 400.003 248.633 402.693 246.687C403.938 245.787 404.846 244.862 405.495 244.101C405.668 243.409 405.806 242.708 405.91 242.008C405.789 242.224 405.529 242.648 405.106 243.201C404.492 243.988 403.532 245.017 402.139 246.021C399.57 247.872 394.96 249.999 387.574 249.593C369.342 248.589 349.579 240.563 349.388 240.485C349.276 240.442 349.164 240.442 349.051 240.485C348.939 240.529 348.861 240.615 348.818 240.727C348.774 240.84 344.407 252.066 336.588 258.977C328.683 265.965 312.319 282.174 312.154 282.338C311.981 282.494 311.981 282.771 312.146 282.944Z" fill="#5F5F75"/>
<path d="M359.903 180.928L351.522 190.459L334.553 173.819L327.062 178.697L340.555 204.159C342.795 212.783 353.875 215.213 359.522 208.328L368.076 197.889L359.903 180.928Z" fill="#9B6446"/>
<path d="M354.092 195.164C354.143 195.164 354.187 195.156 354.239 195.121C354.377 195.043 354.42 194.861 354.342 194.732L351.531 189.932C351.454 189.793 351.272 189.75 351.142 189.828C351.004 189.906 350.961 190.087 351.038 190.217L353.849 195.017C353.901 195.112 353.996 195.164 354.092 195.164Z" fill="#7C4E37"/>
<path d="M331.825 171.397L331.834 171.379C331.626 171.224 331.419 171.059 331.211 170.904C327.916 168.369 324.837 164.451 321.559 161.9C321.317 161.71 321.066 161.519 320.772 161.416C320.339 161.269 319.838 161.346 319.475 161.615C319.111 161.883 318.886 162.341 318.904 162.799C318.921 163.336 319.241 163.811 319.604 164.201C320.08 164.72 320.573 165.221 321.049 165.74C321.516 166.25 320.962 167.038 320.322 166.769C318.004 165.792 315.678 164.815 313.36 163.829C312.901 163.638 312.4 163.44 311.924 163.587C311.275 163.785 310.981 164.694 311.388 165.239C311.552 165.455 311.794 165.602 312.036 165.749C313.515 166.631 314.96 167.574 316.473 168.387C317.65 169.018 318.307 169.606 319.198 169.987C318.904 169.857 318.489 169.632 318.195 169.511C316.421 168.741 314.64 167.998 312.893 167.167C312.625 167.038 312.261 166.994 311.967 167.02C311.768 167.038 311.578 167.124 311.431 167.254C311.284 167.392 311.189 167.582 311.18 167.773C311.171 168.006 311.293 168.231 311.457 168.395C311.734 168.681 312.054 168.932 312.408 169.122C313.412 169.667 314.415 170.212 315.418 170.765C316.439 171.327 317.529 171.82 318.506 172.452C318.238 172.279 317.892 172.184 317.598 172.063C316.966 171.829 316.335 171.604 315.704 171.388C315.064 171.172 314.337 170.834 313.662 171.094C313.377 171.206 313.118 171.457 313.126 171.76C313.126 171.898 313.187 172.037 313.273 172.149C313.541 172.53 314.008 172.703 314.415 172.884C314.813 173.057 315.211 173.23 315.608 173.412C316.413 173.767 317.226 174.121 318.039 174.458C318.497 174.657 318.964 174.865 319.423 175.064L317.529 174.778C316.802 174.657 315.47 174.813 315.461 175.548C315.453 175.972 315.764 176.335 316.179 176.404L327.241 179.042" fill="#9B6446"/>
<path d="M331.834 171.371C331.626 171.215 331.419 171.051 331.211 170.895C327.916 168.361 324.837 164.443 321.559 161.891C321.317 161.701 321.066 161.511 320.772 161.407C320.339 161.26 319.838 161.338 319.475 161.606C319.111 161.874 318.886 162.333 318.904 162.791C318.921 163.327 319.241 163.803 319.604 164.192C320.08 164.711 320.573 165.213 321.049 165.732C321.516 166.242 320.962 167.029 320.322 166.761C318.004 165.784 315.678 164.806 313.36 163.82C312.901 163.63 312.4 163.431 311.924 163.578C311.275 163.777 310.981 164.685 311.388 165.23C311.552 165.446 311.794 165.593 312.036 165.74C313.515 166.622 314.96 167.565 316.473 168.378C317.65 169.01 318.307 169.598 319.198 169.978C318.904 169.849 318.489 169.624 318.195 169.503C316.421 168.733 314.64 167.989 312.893 167.159C312.625 167.029 312.261 166.986 311.967 167.012C311.768 167.029 311.578 167.115 311.431 167.245C311.284 167.384 311.189 167.574 311.18 167.764C311.171 167.998 311.293 168.223 311.457 168.387C311.734 168.672 312.054 168.923 312.408 169.113C313.412 169.658 314.415 170.203 315.418 170.757C316.439 171.319 317.529 171.812 318.506 172.443C318.238 172.27 317.892 172.175 317.598 172.054C316.966 171.821 316.335 171.596 315.704 171.379C315.064 171.163 314.337 170.826 313.662 171.085C313.377 171.198 313.118 171.449 313.126 171.751C313.126 171.89 313.187 172.028 313.273 172.141C313.541 172.521 314.008 172.694 314.415 172.876C314.813 173.049 315.211 173.222 315.608 173.403C316.413 173.758 317.226 174.113 318.039 174.45C318.497 174.649 318.964 174.856 319.423 175.055L317.529 174.77C316.802 174.649 315.47 174.804 315.461 175.54C315.453 175.963 315.764 176.327 316.179 176.396L327.241 179.034L332.284 179.881L331.834 171.371Z" fill="#9B6446"/>
<path d="M324.566 170.541C324.496 170.575 324.419 170.575 324.341 170.549C320.942 169.174 320.898 166.026 320.898 165.991C320.898 165.922 320.924 165.844 320.985 165.792C321.037 165.74 321.106 165.714 321.184 165.714C321.262 165.714 321.331 165.74 321.383 165.801C321.435 165.853 321.461 165.922 321.461 166C321.461 166.112 321.487 168.793 324.548 170.039C324.618 170.065 324.669 170.117 324.704 170.186C324.73 170.255 324.73 170.333 324.704 170.402C324.687 170.437 324.669 170.471 324.643 170.497C324.626 170.506 324.592 170.523 324.566 170.541Z" fill="#7C4E37"/>
<path d="M353.703 184.37L367.403 171.509C369.669 168.716 373.094 166.899 376.943 166.787L398.003 166.164C398.219 166.164 398.427 166.181 398.635 166.199L398.661 166.164L402.605 166.242C408.408 166.354 413.762 169.771 415.95 175.142C416.244 175.86 416.478 176.595 416.659 177.365L420.309 193.858C420.569 195.017 419.704 196.124 418.519 196.159L407.906 196.496L410.294 227.071H365.881L366.97 198.105L353.616 187.328C352.812 186.498 352.855 185.166 353.703 184.37Z" fill="#A78BEF"/>
<path d="M370.095 133.029C370.493 131.17 372.05 129.699 374.048 129.518C374.255 129.501 374.454 129.501 374.662 129.509C376.824 127.641 378.329 125.626 382.117 126.11C383.579 126.3 384.937 127.053 385.767 128.264C385.88 128.437 385.983 128.618 386.079 128.8C386.156 128.947 388.085 129.163 388.345 129.241C390.152 129.743 392.462 130.487 393.361 132.277C393.759 133.064 393.889 133.963 393.915 134.854C395.273 135.935 395.835 137.847 395.281 139.577L393.863 144.048C393.569 143.97 393.257 143.927 392.937 143.927H390.922H390.55C389.945 144.325 389.106 144.714 388.725 144.161C388.621 144.005 388.094 142.154 388.077 141.972C388.051 141.462 388.042 140.961 388.016 140.45C387.964 139.456 388.051 138.4 387.808 137.423C387.22 137.985 386.416 138.331 385.542 138.331H381.892C380.803 138.331 379.817 137.881 379.107 137.155C378.969 137.146 378.822 137.12 378.692 137.094C378.217 138.331 377.023 139.222 375.622 139.222H373.909C373.875 139.222 373.849 139.222 373.814 139.213C373.78 139.317 373.754 139.421 373.736 139.499C373.641 140.009 372.958 139.672 372.257 138.842C370.925 138.219 370 136.87 370 135.304V133.021H370.095V133.029Z" fill="#2B2B39"/>
<path d="M375.616 139.222C377.13 139.222 378.41 138.201 378.799 136.809C379.517 137.734 380.633 138.34 381.895 138.34H385.545C386.955 138.34 388.157 137.458 388.633 136.212V143.936H390.925H392.94C393.26 143.936 393.572 143.979 393.866 144.057C395.526 144.472 396.772 145.986 396.772 147.776V148.148C396.772 150.258 395.051 151.979 392.94 151.979H391.92L392.94 164.78C393.243 168.525 390.449 171.794 386.704 172.097L386.047 172.149C382.302 172.452 379.033 169.658 378.73 165.913L378.341 161.095C374.959 161.044 372.234 158.285 372.234 154.885V139.897C372.234 139.551 372.269 139.213 372.321 138.885C372.805 139.101 373.341 139.222 373.912 139.222H375.616Z" fill="#9B6446"/>
<mask id="mask1_1915_4768" style="mask-type:luminance" maskUnits="userSpaceOnUse" x="353" y="166" width="68" height="62">
<path d="M353.703 184.37L367.403 171.509C369.669 168.716 373.094 166.899 376.943 166.787L398.003 166.164C398.219 166.164 398.427 166.181 398.635 166.199L398.661 166.164L402.605 166.242C408.408 166.354 413.762 169.771 415.95 175.142C416.244 175.86 416.478 176.595 416.659 177.365L420.309 193.858C420.569 195.017 419.704 196.124 418.519 196.159L407.906 196.496L410.294 227.071H365.881L366.97 198.105L353.616 187.328C352.812 186.498 352.855 185.166 353.703 184.37Z" fill="white"/>
</mask>
<g mask="url(#mask1_1915_4768)">
<path d="M395.57 202.949L398.182 198.045L401.019 202.828L398.399 207.913L395.57 202.949Z" fill="white"/>
<path d="M390.133 202.949L392.745 198.045L395.573 202.828L392.961 207.913L390.133 202.949Z" fill="white"/>
<path d="M384.695 202.949L387.307 198.045L390.136 202.828L387.524 207.913L384.695 202.949Z" fill="white"/>
<path d="M379.242 202.949L381.863 198.045L384.691 202.828L382.079 207.913L379.242 202.949Z" fill="white"/>
<path d="M373.805 202.949L376.425 198.045L379.254 202.828L376.642 207.913L373.805 202.949Z" fill="white"/>
<path d="M368.367 202.949L370.988 198.045L373.816 202.828L371.204 207.913L368.367 202.949Z" fill="white"/>
<path d="M362.93 202.949L365.55 198.045L368.379 202.828L365.767 207.913L362.93 202.949Z" fill="white"/>
</g>
<path d="M380.889 226.543L405.141 218.396C405.141 218.396 420.346 212.653 418.651 200.821L417.717 196.098L399.77 196.626L400.747 201.694L375.977 215.723" fill="#9B6446"/>
<path d="M400.658 201.539C400.675 201.539 400.693 201.539 400.71 201.53C400.866 201.504 400.969 201.348 400.935 201.193L400.001 196.332L397.665 196.349H397.657C397.207 196.349 396.844 196.003 396.826 195.554L396.212 182.39C396.204 182.234 396.074 182.104 395.91 182.113C395.754 182.122 395.633 182.251 395.633 182.416L396.247 195.58C396.282 196.341 396.896 196.937 397.665 196.92L399.525 196.903L400.373 201.288C400.407 201.444 400.528 201.539 400.658 201.539Z" fill="#750021"/>
<path d="M406.869 203.986C406.99 203.986 407.102 203.909 407.137 203.788C407.189 203.641 407.102 203.476 406.955 203.424L400.91 201.4C400.763 201.349 400.598 201.435 400.546 201.582C400.495 201.729 400.581 201.893 400.728 201.945L406.774 203.969C406.808 203.978 406.843 203.986 406.869 203.986Z" fill="#7C4E37"/>
<path d="M375.973 215.723C375.204 215.619 374.425 215.576 373.664 215.585C373.664 215.585 366.849 216.363 364.608 217.064C364.366 217.142 364.124 217.219 363.925 217.375C363.726 217.522 363.571 217.756 363.571 218.007C363.579 218.335 363.839 218.595 364.098 218.785C364.92 219.382 365.915 219.659 366.901 219.935C366.165 220.428 365.37 220.947 364.496 221.501C362.74 222.807 359.575 224.606 361.417 226.803C362.126 227.512 362.879 227.235 363.527 226.725C362.758 227.616 362.239 228.705 363.406 229.596C364.349 230.548 365.344 229.89 366.191 229.043C365.742 229.648 365.543 230.306 366.191 230.92C367.238 232.148 368.57 231.43 369.469 230.487C368.881 231.637 370.931 232.364 372.367 231.482L380.41 227.097C380.921 226.837 381.388 226.336 381.82 225.722" fill="#9B6446"/>
<path d="M367.156 228.022C367.286 227.875 367.416 227.745 367.528 227.642C367.424 227.763 367.295 227.884 367.156 228.022Z" fill="#9B6446"/>
<path d="M366.896 219.944L371.264 217.548C371.264 217.548 365.884 218.863 365.141 219.373L366.896 219.944Z" fill="#7C4E37"/>
<path d="M366.157 225.229C366.226 225.142 366.235 225.012 366.174 224.917C366.097 224.796 365.924 224.762 365.803 224.839C365.552 225.004 363.312 226.465 362.983 226.846C362.879 226.941 362.897 227.131 363.009 227.227C363.121 227.322 363.294 227.313 363.389 227.201C363.606 226.958 365.163 225.895 366.097 225.289C366.123 225.272 366.14 225.246 366.157 225.229Z" fill="#7C4E37"/>
<path d="M368.462 227.875C368.531 227.789 368.54 227.659 368.471 227.555C368.384 227.434 368.22 227.4 368.099 227.486L365.867 229C365.746 229.086 365.712 229.25 365.798 229.372C365.885 229.493 366.049 229.527 366.17 229.441L368.401 227.927C368.427 227.918 368.445 227.893 368.462 227.875Z" fill="#7C4E37"/>
<path d="M370.894 229.813C370.963 229.717 370.972 229.588 370.903 229.493C370.816 229.371 370.652 229.346 370.531 229.432L369.346 230.271C369.225 230.357 369.199 230.522 369.285 230.643C369.372 230.764 369.536 230.79 369.657 230.703L370.842 229.864C370.859 229.856 370.877 229.839 370.894 229.813Z" fill="#7C4E37"/>
<path d="M385.142 224.736C385.142 224.736 383.473 217.799 379.503 213.682C378.543 213.613 377.272 213.993 376.562 214.694C376.562 214.694 380.801 219.243 382.487 226.275C383.611 226.128 384.494 225.609 385.142 224.736Z" fill="#2B2B39"/>
<path d="M377.275 219.382C376.289 217.462 377.05 215.109 378.971 214.123C380.891 213.137 383.243 213.898 384.229 215.818C385.215 217.738 384.454 220.091 382.534 221.077C380.614 222.063 378.261 221.302 377.275 219.382Z" fill="#2B2B39"/>
<path d="M379.476 215.1C380.851 214.391 382.555 214.936 383.264 216.32C383.973 217.704 383.428 219.399 382.045 220.108C380.669 220.817 378.965 220.273 378.256 218.889C377.547 217.505 378.092 215.81 379.476 215.1Z" fill="white"/>
<path d="M392.855 166.458C392.855 166.458 392.103 171.751 386.429 172.097C380.755 172.452 378.922 166.726 378.922 166.726" stroke="#750021" stroke-width="0.8844" stroke-miterlimit="10" stroke-linecap="round"/>
<path d="M334.557 173.827L331.832 171.371C331.832 171.371 331.443 176.534 331.538 176.534C331.642 176.534 333.649 175.669 333.649 175.669L334.557 173.827Z" fill="#9B6446"/>
<path d="M283.356 183.315H314.752C315.877 183.315 316.863 184.068 317.157 185.149L324.388 211.364H325.278H345.422C345.803 211.364 346.036 211.788 345.82 212.108L344.159 214.599H325.278H289.411L280.952 186.55C280.468 184.941 281.67 183.315 283.356 183.315Z" fill="#E527BB"/>
<path d="M286.726 214.668H322.594L314.472 185.218C314.169 184.137 313.192 183.384 312.068 183.384H280.672C278.985 183.384 277.774 185.01 278.267 186.628L286.726 214.668Z" fill="#E527BB"/>
<path d="M298.288 204.168C296.065 204.168 294.258 202.36 294.258 200.138C294.258 197.915 296.065 196.107 298.288 196.107C300.511 196.107 302.319 197.915 302.319 200.138C302.319 202.36 300.511 204.168 298.288 204.168ZM298.288 196.721C296.403 196.721 294.872 198.252 294.872 200.138C294.872 202.023 296.403 203.554 298.288 203.554C300.174 203.554 301.705 202.023 301.705 200.138C301.705 198.252 300.174 196.721 298.288 196.721Z" fill="#A78BEF"/>
<path d="M451.478 214.115H245.172V221.388H451.478V214.115Z" fill="#2B2B39"/>
<path d="M260.516 221.362H443.054C443.054 224.727 440.606 227.451 437.588 227.451H265.982C262.963 227.451 260.516 224.727 260.516 221.362Z" fill="#5F5F75"/>
<path d="M440.785 257.533H261.508V261.71H440.785V257.533Z" fill="#5F5F75"/>
<path d="M448.507 328.801L427.758 227.451H435.049L455.798 328.801H448.507Z" fill="#2B2B39"/>
<path d="M251.752 328.801L272.501 227.451H265.21L244.461 328.801H251.752Z" fill="#2B2B39"/>
<path d="M451.478 217.756H245.172V218.837H451.478V217.756Z" fill="#5F5F75"/>
<path d="M467.102 260.897C467.085 260.871 467.059 260.854 467.033 260.837C466.947 260.767 466.825 260.733 466.722 260.681C466.54 260.586 466.41 260.439 466.272 260.3C465.035 259.072 462.812 259.038 461.074 259.055C460.01 259.063 458.868 259.211 457.917 259.686C457.744 259.773 457.649 259.954 457.692 260.127L457.865 260.845C457.952 261.191 457.519 261.459 457.173 261.286L456.438 260.906C456.282 260.828 456.092 260.828 455.936 260.923C454.189 261.996 452.952 263.656 452.018 265.325C448.048 272.487 449.597 279.839 449.865 280.02C450.107 280.184 459.664 272.565 461.636 271.458C461.774 271.38 461.844 271.233 461.8 271.094L461.454 269.935C461.368 269.659 461.705 269.425 461.999 269.555L463.297 270.152C463.444 270.221 463.634 270.195 463.746 270.082C466.159 267.773 468.624 264.331 467.215 261.148C467.197 261.035 467.154 260.958 467.102 260.897Z" fill="#39B039"/>
<path d="M448.501 285.409C448.484 285.409 448.475 285.409 448.458 285.409C448.293 285.383 448.181 285.236 448.207 285.071C448.224 284.933 448.743 281.551 451.9 273.482C455.091 265.334 465.799 260.551 466.257 260.344C466.404 260.283 466.586 260.344 466.647 260.499C466.716 260.646 466.647 260.828 466.491 260.889C466.379 260.94 455.541 265.775 452.445 273.698C449.323 281.69 448.786 285.123 448.786 285.158C448.778 285.305 448.648 285.409 448.501 285.409Z" fill="#2B2B39"/>
<path d="M434.885 250.38C434.902 250.363 434.911 250.345 434.928 250.337C434.989 250.285 435.066 250.259 435.136 250.224C435.257 250.155 435.343 250.051 435.438 249.947C436.269 249.065 437.808 248.987 439.019 248.961C439.763 248.944 440.559 249.013 441.225 249.325C441.346 249.385 441.415 249.506 441.389 249.627L441.285 250.129C441.233 250.371 441.545 250.553 441.778 250.414L442.28 250.129C442.383 250.069 442.522 250.069 442.626 250.129C443.863 250.83 444.762 251.954 445.445 253.096C448.369 257.974 447.469 263.111 447.288 263.25C447.123 263.371 440.308 258.302 438.915 257.585C438.82 257.533 438.768 257.429 438.794 257.334L439.01 256.521C439.062 256.33 438.82 256.175 438.621 256.27L437.739 256.711C437.635 256.763 437.505 256.746 437.419 256.676C435.689 255.128 433.899 252.802 434.807 250.553C434.824 250.475 434.85 250.423 434.885 250.38Z" fill="#39B039"/>
<path d="M448.558 267.332C448.419 267.332 448.298 267.237 448.272 267.107C448.264 267.081 447.624 264.426 445.263 258.96C442.936 253.571 435.333 250.475 435.264 250.449C435.109 250.388 435.039 250.215 435.1 250.068C435.16 249.913 435.333 249.844 435.48 249.904C435.8 250.034 443.386 253.113 445.807 258.735C448.186 264.262 448.817 266.874 448.843 266.986C448.878 267.142 448.783 267.306 448.627 267.341C448.61 267.332 448.584 267.332 448.558 267.332Z" fill="#2B2B39"/>
<path d="M434.744 272.392C434.761 272.375 434.77 272.357 434.787 272.349C434.848 272.297 434.926 272.271 434.995 272.236C435.116 272.167 435.203 272.063 435.298 271.959C436.128 271.077 437.668 270.999 438.878 270.973C439.614 270.956 440.418 271.025 441.084 271.337C441.205 271.397 441.274 271.518 441.248 271.639L441.144 272.141C441.093 272.383 441.404 272.565 441.637 272.426L442.139 272.141C442.243 272.08 442.381 272.08 442.485 272.141C443.722 272.842 444.621 273.966 445.305 275.108C448.228 279.986 447.329 285.123 447.147 285.262C446.983 285.383 440.167 280.314 438.775 279.597C438.679 279.545 438.628 279.441 438.654 279.346L438.87 278.533C438.922 278.342 438.679 278.187 438.481 278.282L437.598 278.723C437.495 278.775 437.365 278.758 437.278 278.688C435.548 277.14 433.758 274.814 434.666 272.565C434.675 272.487 434.701 272.435 434.744 272.392Z" fill="#39B039"/>
<path d="M448.417 289.344C448.279 289.344 448.158 289.249 448.132 289.119C448.123 289.093 447.483 286.438 445.122 280.972C442.795 275.575 435.193 272.487 435.124 272.461C434.968 272.4 434.899 272.227 434.959 272.08C435.02 271.925 435.193 271.856 435.34 271.916C435.66 272.046 443.245 275.125 445.667 280.747C448.045 286.274 448.677 288.885 448.703 288.998C448.737 289.154 448.642 289.318 448.486 289.353C448.46 289.344 448.435 289.344 448.417 289.344Z" fill="#2B2B39"/>
<path d="M435.093 228.993C435.119 228.976 435.145 228.95 435.18 228.941C435.283 228.889 435.413 228.872 435.534 228.837C435.742 228.777 435.906 228.638 436.071 228.526C437.601 227.479 439.937 227.851 441.753 228.206C442.869 228.422 444.036 228.785 444.936 229.46C445.1 229.59 445.169 229.789 445.091 229.962L444.771 230.68C444.616 231.026 445.014 231.389 445.411 231.268L446.25 231C446.423 230.948 446.631 230.982 446.769 231.112C448.395 232.565 449.373 234.537 450.03 236.466C452.824 244.717 449.805 252.121 449.494 252.259C449.208 252.389 440.646 242.589 438.795 241.058C438.665 240.946 438.622 240.782 438.691 240.643L439.271 239.493C439.409 239.216 439.106 238.905 438.778 238.991L437.307 239.363C437.134 239.406 436.944 239.337 436.849 239.199C434.764 236.319 432.836 232.254 434.92 229.183C434.972 229.131 435.024 229.054 435.093 228.993Z" fill="#39B039"/>
<path d="M450.481 258.268C450.317 258.268 450.187 258.138 450.187 257.974C450.187 257.93 450.083 253.744 448.327 244.767C446.589 235.875 436.149 228.749 436.046 228.679C435.907 228.584 435.873 228.403 435.968 228.273C436.063 228.134 436.245 228.1 436.374 228.195C436.478 228.264 447.116 235.529 448.907 244.663C450.68 253.701 450.775 257.93 450.784 257.974C450.784 258.129 450.654 258.259 450.481 258.268C450.49 258.268 450.49 258.268 450.481 258.268Z" fill="#2B2B39"/>
<path d="M448.505 289.629C448.341 289.629 448.211 289.5 448.211 289.335V273.594C448.211 262.938 450.788 252.3 455.675 242.821L459.377 235.642C459.455 235.495 459.628 235.443 459.775 235.512C459.922 235.59 459.974 235.763 459.904 235.91L456.203 243.089C451.359 252.482 448.808 263.025 448.808 273.585V289.327C448.799 289.491 448.669 289.629 448.505 289.629Z" fill="#2B2B39"/>
<path d="M468.697 233.678C468.68 233.661 468.662 233.644 468.645 233.626C468.576 233.566 468.489 233.531 468.412 233.488C468.273 233.402 468.187 233.272 468.083 233.159C467.183 232.113 465.428 231.931 464.044 231.836C463.196 231.776 462.279 231.81 461.501 232.13C461.354 232.191 461.276 232.32 461.293 232.468L461.388 233.047C461.432 233.324 461.077 233.514 460.809 233.35L460.255 232.995C460.143 232.917 459.987 232.909 459.858 232.978C458.405 233.713 457.315 234.95 456.476 236.221C452.869 241.644 453.63 247.56 453.829 247.724C454.011 247.871 462.072 242.44 463.706 241.696C463.819 241.644 463.888 241.532 463.862 241.419L463.663 240.477C463.611 240.252 463.897 240.087 464.113 240.208L465.099 240.762C465.211 240.822 465.367 240.814 465.462 240.736C467.521 239.058 469.692 236.498 468.783 233.877C468.757 233.799 468.732 233.73 468.697 233.678Z" fill="#39B039"/>
<path d="M452.166 252.283C452.14 252.283 452.114 252.283 452.088 252.274C451.933 252.231 451.837 252.066 451.889 251.911C451.924 251.79 452.789 248.84 455.799 242.656C458.86 236.377 467.674 233.272 468.054 233.142C468.21 233.09 468.374 233.168 468.435 233.324C468.487 233.48 468.409 233.644 468.253 233.704C468.167 233.739 459.293 236.87 456.335 242.924C453.342 249.056 452.469 252.058 452.46 252.084C452.417 252.205 452.296 252.283 452.166 252.283Z" fill="#2B2B39"/>
<path d="M468.085 248.916C468.076 248.899 468.067 248.873 468.05 248.856C468.007 248.787 467.938 248.743 467.877 248.683C467.773 248.579 467.721 248.449 467.661 248.328C467.099 247.23 465.611 246.702 464.435 246.322C463.717 246.088 462.913 245.932 462.169 246.036C462.03 246.053 461.927 246.157 461.918 246.278L461.875 246.806C461.857 247.057 461.503 247.143 461.313 246.944L460.906 246.521C460.82 246.434 460.69 246.391 460.569 246.417C459.15 246.745 457.948 247.593 456.945 248.51C452.663 252.454 452.067 257.756 452.205 257.937C452.335 258.102 460.482 255.1 462.056 254.789C462.169 254.772 462.247 254.685 462.247 254.581L462.273 253.725C462.281 253.518 462.558 253.44 462.722 253.587L463.466 254.279C463.553 254.357 463.682 254.383 463.786 254.331C465.931 253.31 468.362 251.546 468.119 249.081C468.119 249.037 468.111 248.977 468.085 248.916Z" fill="#39B039"/>
<path d="M449.632 262.004C449.58 262.004 449.528 261.996 449.485 261.961C449.346 261.883 449.294 261.702 449.372 261.555C449.433 261.46 450.799 259.081 454.735 254.341C458.731 249.532 467.06 248.694 467.414 248.659C467.57 248.65 467.726 248.763 467.734 248.927C467.751 249.091 467.63 249.238 467.466 249.247C467.38 249.256 459.025 250.095 455.193 254.713C451.301 259.401 449.9 261.823 449.891 261.84C449.831 261.953 449.727 262.004 449.632 262.004Z" fill="#2B2B39"/>
<path d="M458.503 320.186H438.627L434.484 289.534H461.469L458.503 320.186Z" fill="#D1203D"/>
<path d="M461.739 290.901H434.711C433.907 290.901 433.258 290.252 433.258 289.448V287.718C433.258 286.914 433.907 286.265 434.711 286.265H461.739C462.544 286.265 463.192 286.914 463.192 287.718V289.448C463.192 290.252 462.544 290.901 461.739 290.901Z" fill="#1A060A"/>
<path d="M439.989 329.19C439.21 329.19 438.57 328.533 438.57 327.728V319.65H443.319V325.748C443.327 327.642 441.831 329.19 439.989 329.19ZM439.167 320.238V327.728C439.167 328.204 439.539 328.593 439.989 328.593C441.502 328.593 442.731 327.313 442.731 325.739V320.238H439.167Z" fill="#2B2B39"/>
<path d="M457.072 329.19C455.238 329.19 453.742 327.642 453.742 325.739V319.642H458.491V327.72C458.491 328.533 457.85 329.19 457.072 329.19ZM454.33 320.238V325.739C454.33 327.313 455.558 328.593 457.072 328.593C457.53 328.593 457.894 328.204 457.894 327.728V320.238H454.33Z" fill="#2B2B39"/>
<path d="M436.624 75.4786L432.749 77.1133C432.057 75.8245 431.253 74.6223 430.345 73.5239L433.329 70.5659C434.15 69.7529 434.15 68.4382 433.346 67.6166C432.533 66.7949 431.218 66.7949 430.397 67.5993L427.413 70.5573C426.167 69.5194 424.818 68.6199 423.391 67.8761L424.965 63.984C425.398 62.9202 424.887 61.7006 423.815 61.2682C422.751 60.8357 421.531 61.346 421.099 62.4185L419.525 66.3106C418.15 65.8954 416.731 65.61 415.287 65.463L415.304 61.2682C415.304 60.1179 414.379 59.1751 413.228 59.1751C412.078 59.1665 411.135 60.1006 411.135 61.2509L411.118 65.4457C409.535 65.5841 407.944 65.9041 406.378 66.3971L404.744 62.5223C404.294 61.4585 403.074 60.9655 402.011 61.4152C400.947 61.865 400.454 63.0845 400.903 64.1483L402.538 68.0144C401.249 68.7064 400.047 69.5107 398.949 70.4189L395.991 67.435C395.178 66.6133 393.863 66.6133 393.041 67.4263C392.22 68.2393 392.22 69.554 393.033 70.3756L395.991 73.3596C394.953 74.605 394.053 75.9543 393.31 77.3814L389.417 75.7986C388.354 75.3661 387.134 75.8764 386.702 76.9489C386.269 78.0128 386.78 79.2323 387.852 79.6647L391.744 81.2475C391.329 82.6227 391.044 84.0411 390.905 85.4855L386.71 85.4682C385.56 85.4596 384.617 86.3937 384.617 87.544C384.609 88.6943 385.543 89.6371 386.693 89.6371L390.888 89.6544C391.026 91.2372 391.346 92.8286 391.839 94.3941L387.973 96.0287C386.909 96.4785 386.416 97.698 386.866 98.7618C387.316 99.8257 388.535 100.319 389.599 99.8689L393.465 98.2342C394.157 99.5316 394.962 100.725 395.87 101.824L392.886 104.782C392.064 105.595 392.064 106.909 392.868 107.731C393.681 108.553 394.996 108.553 395.818 107.74L398.802 104.782C400.047 105.819 401.396 106.719 402.824 107.463L401.241 111.355C400.808 112.419 401.319 113.638 402.391 114.071C403.455 114.503 404.674 113.993 405.107 112.92L406.69 109.028C408.065 109.443 409.483 109.729 410.928 109.867L410.91 114.062C410.902 115.212 411.836 116.155 412.986 116.155C414.136 116.164 415.071 115.23 415.079 114.079L415.097 109.885C416.679 109.746 418.271 109.426 419.836 108.933L421.471 112.799C421.921 113.863 423.14 114.356 424.204 113.906C425.268 113.457 425.761 112.237 425.311 111.173L423.676 107.307C424.974 106.615 426.167 105.802 427.266 104.903L430.224 107.887C431.037 108.708 432.351 108.708 433.173 107.895C433.995 107.082 433.995 105.768 433.182 104.946L430.224 101.962C431.262 100.717 432.161 99.3673 432.905 97.9402L436.797 99.523C437.861 99.9554 439.08 99.4451 439.513 98.3726C439.945 97.3088 439.435 96.0893 438.362 95.6568L434.47 94.0741C434.886 92.6988 435.171 91.2804 435.309 89.836L439.504 89.8533C440.654 89.862 441.597 88.9279 441.597 87.7775C441.606 86.6272 440.672 85.6845 439.521 85.6845L435.327 85.6672C435.188 84.0844 434.868 82.493 434.375 80.9275L438.25 79.2928C439.314 78.8431 439.807 77.6235 439.357 76.5597C438.907 75.5305 437.679 75.0375 436.624 75.4786ZM417.025 96.9628C411.905 99.1251 405.989 96.7293 403.827 91.6004C401.665 86.4715 404.06 80.5642 409.189 78.402C414.318 76.2397 420.225 78.6355 422.388 83.7644C424.55 88.8846 422.146 94.8006 417.025 96.9628Z" fill="#E527BB"/>
<path d="M457.532 130.218L454.773 130.201C454.643 128.722 454.288 127.235 453.674 125.799C453.112 124.467 452.368 123.265 451.495 122.201L453.458 120.255C453.994 119.718 454.003 118.854 453.467 118.317C452.93 117.781 452.065 117.772 451.529 118.309L449.566 120.255C447.309 118.369 444.524 117.193 441.6 116.899L441.609 114.14C441.617 113.379 441.003 112.765 440.242 112.765C439.481 112.765 438.867 113.37 438.867 114.131L438.858 116.89C437.379 117.02 435.9 117.375 434.456 117.989C433.124 118.551 431.922 119.295 430.858 120.168L428.912 118.205C428.376 117.669 427.511 117.66 426.975 118.196C426.438 118.732 426.43 119.597 426.966 120.134L428.912 122.097C427.026 124.363 425.85 127.139 425.556 130.063L422.797 130.054C422.045 130.045 421.422 130.66 421.422 131.421C421.422 132.173 422.027 132.796 422.788 132.796L425.556 132.805C425.686 134.284 426.04 135.771 426.646 137.207C427.208 138.539 427.952 139.741 428.825 140.805L426.862 142.751C426.326 143.287 426.317 144.152 426.853 144.688C427.39 145.225 428.255 145.233 428.791 144.697L430.754 142.751C433.02 144.636 435.797 145.813 438.72 146.107L438.711 148.866C438.711 149.627 439.317 150.241 440.078 150.241C440.83 150.241 441.453 149.636 441.453 148.874L441.47 146.115C442.949 145.986 444.437 145.631 445.873 145.017C447.205 144.455 448.407 143.711 449.471 142.837L451.408 144.809C451.944 145.346 452.809 145.354 453.346 144.818C453.882 144.282 453.89 143.417 453.354 142.881L451.408 140.917C453.294 138.66 454.47 135.875 454.764 132.952L457.523 132.96C458.284 132.96 458.898 132.355 458.898 131.594C458.898 130.833 458.293 130.218 457.532 130.218ZM434.058 134.085C432.631 130.711 434.214 126.828 437.578 125.401C440.951 123.974 444.835 125.557 446.262 128.921C447.68 132.294 446.106 136.178 442.733 137.596C439.369 139.032 435.485 137.458 434.058 134.085Z" fill="#A78BEF"/>
<path d="M291.226 148.312L289.574 148.304C289.496 147.421 289.28 146.531 288.917 145.674C288.58 144.879 288.138 144.161 287.62 143.529L288.796 142.37C289.116 142.05 289.116 141.531 288.804 141.211C288.484 140.891 287.965 140.891 287.645 141.203L286.469 142.37C285.12 141.246 283.459 140.537 281.712 140.364L281.721 138.712C281.721 138.262 281.358 137.89 280.908 137.89C280.458 137.89 280.086 138.253 280.086 138.703L280.078 140.355C279.195 140.433 278.304 140.649 277.448 141.012C276.653 141.35 275.935 141.791 275.303 142.31L274.144 141.134C273.824 140.814 273.305 140.814 272.985 141.125C272.665 141.445 272.665 141.964 272.977 142.284L274.144 143.46C273.02 144.809 272.311 146.47 272.138 148.217L270.486 148.208C270.036 148.208 269.664 148.572 269.664 149.021C269.664 149.471 270.027 149.843 270.477 149.843L272.129 149.852C272.207 150.734 272.423 151.625 272.786 152.481C273.124 153.277 273.565 153.995 274.092 154.626L272.916 155.794C272.596 156.114 272.596 156.633 272.907 156.953C273.227 157.273 273.746 157.273 274.066 156.961L275.243 155.794C276.592 156.918 278.253 157.627 280 157.8L279.991 159.452C279.991 159.902 280.354 160.274 280.804 160.274C281.254 160.274 281.626 159.911 281.626 159.461L281.634 157.809C282.517 157.731 283.407 157.515 284.264 157.152C285.059 156.814 285.777 156.373 286.409 155.854L287.568 157.03C287.888 157.351 288.407 157.351 288.727 157.039C289.047 156.719 289.047 156.2 288.735 155.88L287.568 154.704C288.692 153.355 289.401 151.694 289.574 149.947L291.226 149.956C291.676 149.956 292.048 149.592 292.048 149.143C292.039 148.684 291.676 148.321 291.226 148.312ZM277.197 150.63C276.35 148.615 277.293 146.297 279.299 145.441C281.314 144.593 283.632 145.536 284.489 147.542C285.336 149.558 284.393 151.876 282.378 152.732C280.372 153.588 278.045 152.645 277.197 150.63Z" fill="#E527BB"/>
<path d="M336.46 140.952C337.602 142.051 338.527 141.653 338.527 140.07V134.976C338.527 133.393 339.816 132.104 341.399 132.104H357.106C358.688 132.104 359.977 130.815 359.977 129.233V109.106C359.977 107.524 358.688 106.235 357.106 106.235H302.426C300.843 106.235 299.555 107.524 299.555 109.106V129.233C299.555 130.815 300.843 132.104 302.426 132.104H324.386C325.969 132.104 328.192 133.004 329.325 134.093L336.46 140.952Z" fill="#E527BB"/>
<path d="M305.804 114.391H353.737C354.307 114.391 354.774 113.924 354.774 113.353C354.774 112.782 354.307 112.315 353.737 112.315H305.804C305.233 112.315 304.766 112.782 304.766 113.353C304.766 113.924 305.233 114.391 305.804 114.391Z" fill="white"/>
<path d="M305.804 119.555H353.737C354.307 119.555 354.774 119.087 354.774 118.517C354.774 117.946 354.307 117.479 353.737 117.479H305.804C305.233 117.479 304.766 117.946 304.766 118.517C304.766 119.096 305.233 119.555 305.804 119.555Z" fill="white"/>
<path d="M305.804 124.726H339.656C340.227 124.726 340.694 124.259 340.694 123.689C340.694 123.118 340.227 122.651 339.656 122.651H305.804C305.233 122.651 304.766 123.118 304.766 123.689C304.766 124.259 305.233 124.726 305.804 124.726Z" fill="white"/>
</g>
<defs>
<clipPath id="clip0_1915_4768">
<rect width="542.64" height="328.79" fill="white"/>
</clipPath>
</defs>
</svg>
