<svg width="39" height="41" viewBox="0 0 39 41" fill="none" xmlns="http://www.w3.org/2000/svg">
<path d="M11.9129 6.92798C10.7885 7.73891 9.77112 8.68874 8.88647 9.75188" stroke="#DAA7EE" stroke-width="1.16401" stroke-miterlimit="10" stroke-linecap="round" stroke-linejoin="round"/>
<path d="M6.34348 26.6268C5.52712 24.6751 5.07626 22.5318 5.07626 20.2837" stroke="#DAA7EE" stroke-width="1.16401" stroke-miterlimit="10" stroke-linecap="round" stroke-linejoin="round"/>
<path d="M15.1954 35.4788C17.1471 36.2944 19.2897 36.7453 21.5378 36.7453C28.0058 36.7453 33.6031 33.015 36.2943 27.5884" stroke="#DAA7EE" stroke-width="1.16401" stroke-miterlimit="10" stroke-linecap="round" stroke-linejoin="round"/>
<path d="M17.7097 4.27002C18.9381 3.97747 20.2201 3.82227 21.5378 3.82227C30.6295 3.82227 38 11.192 38 20.2838C38 21.9436 37.7548 23.5461 37.297 25.0562" stroke="#DAA7EE" stroke-width="1.16401" stroke-miterlimit="10" stroke-linecap="round" stroke-linejoin="round"/>
<path d="M2.9787 35.8707C4.0915 38.0645 6.36831 39.5676 8.99588 39.5676C12.7192 39.5676 15.7371 36.5497 15.7371 32.8264C15.7371 29.1031 12.7192 26.0845 8.99588 26.0845C5.27258 26.0845 2.25391 29.1031 2.25391 32.8264C2.25391 32.9661 2.25779 33.1043 2.2671 33.2416" stroke="#DAA7EE" stroke-width="1.16401" stroke-miterlimit="10" stroke-linecap="round" stroke-linejoin="round"/>
<path d="M10.131 30.3095C10.131 30.3095 9.3422 29.5772 8.36342 29.9292C7.26094 30.3256 7.34739 31.5403 7.96882 32.0277C8.32563 32.3076 8.86255 32.5377 9.58618 32.7935C11.2057 33.366 10.607 35.6499 8.95963 35.6609C8.3167 35.6651 8.01616 35.6243 7.45145 35.2549" stroke="#DAA7EE" stroke-width="1.16401" stroke-miterlimit="10" stroke-linecap="round" stroke-linejoin="round"/>
<path d="M8.95955 35.6606V36.4943" stroke="#DAA7EE" stroke-width="1.16401" stroke-miterlimit="10" stroke-linecap="round" stroke-linejoin="round"/>
<path d="M8.95955 29.158V29.8333" stroke="#DAA7EE" stroke-width="1.16401" stroke-miterlimit="10" stroke-linecap="round" stroke-linejoin="round"/>
<path d="M18.356 6.92814H17.1434V17.1482C17.1434 17.5811 16.7924 17.9321 16.3594 17.9321H13.0768C12.6439 17.9321 12.2929 17.5811 12.2929 17.1482V6.92814H11.0987C10.8206 6.92814 10.5602 6.76743 10.4563 6.5094C10.3652 6.28281 10.4029 6.03495 10.5414 5.85034L13.8416 1.44998C13.9816 1.26334 14.1726 1.11707 14.3957 1.0487C14.8454 0.910726 15.3129 1.07454 15.5803 1.43112L18.883 5.83466C18.9606 5.93795 19.0139 6.05924 19.0263 6.18782C19.0651 6.58972 18.75 6.92814 18.356 6.92814Z" stroke="#DAA7EE" stroke-width="1.16401" stroke-miterlimit="10" stroke-linecap="round" stroke-linejoin="round"/>
<path d="M2.88636 17.1277V19.4999C2.88636 19.933 3.23712 20.2837 3.67013 20.2837H6.95265C7.38566 20.2837 7.73642 19.933 7.73642 19.4999V11.6312H8.94932C9.34354 11.6312 9.6586 11.2929 9.6198 10.8909C9.60738 10.7629 9.55384 10.641 9.47623 10.5378L6.17354 6.13474C5.90659 5.77777 5.43866 5.61403 4.98935 5.75216C4.76586 5.82045 4.57496 5.96634 4.43528 6.15336L1.13491 10.5533C0.996002 10.738 0.958753 10.9863 1.04955 11.2129C1.15353 11.4706 1.41427 11.6312 1.69208 11.6312H2.88636V14.4039" stroke="#DAA7EE" stroke-width="1.16401" stroke-miterlimit="10" stroke-linecap="round" stroke-linejoin="round"/>
<path d="M21.5381 3.82202V20.2838L33.178 31.9237" stroke="#DAA7EE" stroke-width="1.16401" stroke-miterlimit="10" stroke-linecap="round" stroke-linejoin="round"/>
<path d="M37.9999 20.2837H21.5381" stroke="#DAA7EE" stroke-width="1.16401" stroke-miterlimit="10" stroke-linecap="round" stroke-linejoin="round"/>
<path d="M29.8537 9.6106L26.6072 17.3462" stroke="#DAA7EE" stroke-width="1.16401" stroke-miterlimit="10" stroke-linecap="round" stroke-linejoin="round"/>
<path d="M25.3586 12.1191C26.0513 12.1191 26.6129 11.5576 26.6129 10.8649C26.6129 10.1721 26.0513 9.6106 25.3586 9.6106C24.6659 9.6106 24.1043 10.1721 24.1043 10.8649C24.1043 11.5576 24.6659 12.1191 25.3586 12.1191Z" stroke="#DAA7EE" stroke-width="1.16401" stroke-miterlimit="10" stroke-linecap="round" stroke-linejoin="round"/>
<path d="M31.1079 17.3462C31.8006 17.3462 32.3621 16.7846 32.3621 16.0919C32.3621 15.3992 31.8006 14.8376 31.1079 14.8376C30.4152 14.8376 29.8536 15.3992 29.8536 16.0919C29.8536 16.7846 30.4152 17.3462 31.1079 17.3462Z" stroke="#DAA7EE" stroke-width="1.16401" stroke-miterlimit="10" stroke-linecap="round" stroke-linejoin="round"/>
</svg>
