<svg width="533" height="331" viewBox="0 0 533 331" fill="none" xmlns="http://www.w3.org/2000/svg">
<path opacity="0.2" fill-rule="evenodd" clip-rule="evenodd" d="M0 7.5756C0 7.5756 496.166 -10.2363 522.25 8.76437C545.499 25.7019 520.61 239.759 514.929 286.131C514.801 287.134 513.992 287.91 512.938 288.028C382.355 302.136 78.1811 295.779 13.6451 294.227C12.5792 294.197 11.7008 293.49 11.49 292.498C2.02627 247.216 0 7.5756 0 7.5756Z" fill="#999999"/>
<path d="M221.799 146.005H123.061C119.912 146.005 117.359 143.453 117.359 140.304V44.9691C117.359 41.8274 119.903 39.2768 123.045 39.2679L222.571 39C225.738 38.9912 228.304 41.5661 228.288 44.7322L227.498 140.335C227.482 143.473 224.934 146.005 221.799 146.005Z" fill="#E527BB"/>
<path d="M216.957 46.2975L128.67 46.8421C125.479 46.8598 122.906 49.4614 122.922 52.6518L123.537 132.834C123.553 135.978 126.075 138.533 129.217 138.591L214.998 140.156C218.202 140.213 220.843 137.658 220.887 134.452L222.776 52.1603C222.822 48.9233 220.199 46.2775 216.957 46.2975Z" fill="#BDD0FB"/>
<path d="M213.37 53.7346V54.3434C213.37 55.2999 212.595 56.0748 211.639 56.0748H143.614C142.658 56.0748 141.883 55.2999 141.883 54.3434V53.7346C141.883 52.7781 142.658 52.0032 143.614 52.0032H211.639C212.595 52.0032 213.37 52.7781 213.37 53.7346Z" fill="#A78BEF"/>
<path d="M205.778 61.3885C205.73 62.294 204.988 63.0092 204.082 63.0247L144.591 64.1096C143.623 64.1273 142.828 63.3479 142.828 62.3782V62.2365C142.828 61.2911 143.585 60.5206 144.531 60.5051L204.022 59.5619C205.025 59.5508 205.831 60.3877 205.778 61.3885Z" fill="#A78BEF"/>
<path d="M211.853 135.668C211.833 135.668 211.814 135.668 211.794 135.668L131.328 134.703C129.993 134.687 128.744 134.149 127.817 133.191C126.887 132.232 126.389 130.968 126.415 129.633L128.485 73.0102C128.51 71.6972 129.052 70.4574 130.008 69.5341C130.967 68.6131 132.223 68.1149 133.555 68.1459L213.881 69.709C216.62 69.7622 218.808 72.0338 218.759 74.7704C218.759 74.7748 218.759 74.7792 218.759 74.7859L216.828 130.795C216.777 133.487 214.552 135.668 211.853 135.668ZM133.456 69.8729C132.612 69.8729 131.817 70.1939 131.206 70.7806C130.582 71.3828 130.228 72.191 130.212 73.0567L128.142 129.679C128.127 130.534 128.45 131.359 129.056 131.984C129.663 132.61 130.476 132.96 131.348 132.969L211.814 133.934C213.596 133.972 215.066 132.526 215.097 130.746L217.028 74.7305C217.056 72.9482 215.631 71.4692 213.846 71.4338L133.52 69.8706C133.498 69.8751 133.478 69.8729 133.456 69.8729Z" fill="#A78BEF"/>
<path d="M216.85 80.7971H129.217C128.739 80.7971 128.352 80.4096 128.352 79.9314C128.352 79.4531 128.739 79.0657 129.217 79.0657H216.85C217.328 79.0657 217.715 79.4531 217.715 79.9314C217.715 80.4096 217.326 80.7971 216.85 80.7971Z" fill="#A78BEF"/>
<path d="M267.436 251.322L260.305 315.277H343.037L332.262 251.322H267.436Z" fill="#D120AF"/>
<path d="M360.858 328.362H239.771C236.481 328.362 234.01 326.02 234.648 323.504L236.202 317.36C236.669 315.512 238.702 314.157 241.117 314.081L357.849 310.439C360.371 310.362 362.605 311.699 363.154 313.621L365.955 323.407C366.683 325.949 364.201 328.362 360.858 328.362Z" fill="#E527BB"/>
<path d="M144.195 87.851V251.944C144.195 265.443 154.951 276.482 168.446 276.83C228.38 278.375 382.749 282.124 439.801 281.282C449.607 281.138 457.551 273.292 457.834 263.488C458.935 225.366 460.722 133.7 454.108 91.1411C452.716 82.1786 445.15 75.4766 436.086 75.1866C385.869 73.5792 218.909 68.478 161.881 69.7599C152.049 69.9791 144.195 78.0139 144.195 87.851Z" fill="#E527BB"/>
<path d="M154.492 87.054V242.952C154.492 250.835 160.82 257.255 168.7 257.373L431.595 261.303C439.408 261.42 445.811 255.134 445.84 247.321L446.371 92.8149C446.391 87.2289 441.941 82.6502 436.355 82.5151L165.886 75.9327C159.638 75.7822 154.492 80.8037 154.492 87.054Z" fill="#E0B8F0"/>
<path d="M448.23 267.684C448.228 267.684 448.223 267.684 448.221 267.684L154.478 261.737C154.239 261.732 154.05 261.535 154.055 261.296C154.059 261.057 154.267 260.858 154.495 260.873L448.239 266.82C448.478 266.825 448.668 267.024 448.662 267.261C448.657 267.495 448.465 267.684 448.23 267.684Z" fill="#91B3FA"/>
<path d="M304.955 315.782C304.721 315.782 304.526 315.594 304.524 315.357C304.519 315.118 304.712 314.923 304.949 314.918L309.95 314.845C309.952 314.845 309.955 314.845 309.957 314.845C310.191 314.845 310.386 315.033 310.389 315.273C310.393 315.512 310.2 315.706 309.963 315.711L304.962 315.784C304.96 315.782 304.957 315.782 304.955 315.782Z" fill="#91B3FA"/>
<path d="M239.128 325.012C239.106 325.012 239.082 325.01 239.059 325.006C238.823 324.968 238.663 324.747 238.701 324.51L239.414 320.04C239.799 317.62 241.858 315.837 244.309 315.802L297.365 315.027C297.601 315.025 297.798 315.215 297.803 315.452C297.807 315.691 297.615 315.886 297.378 315.89L244.322 316.665C242.294 316.694 240.589 318.171 240.268 320.175L239.555 324.645C239.52 324.86 239.336 325.012 239.128 325.012Z" fill="#91B3FA"/>
<path d="M186.643 328.397C186.054 328.397 185.578 327.919 185.578 327.332V199.947C185.578 199.358 186.056 198.882 186.643 198.882C187.232 198.882 187.708 199.36 187.708 199.947V327.33C187.71 327.921 187.232 328.397 186.643 328.397Z" fill="#7D97F4"/>
<path d="M145.026 328.397C144.437 328.397 143.961 327.919 143.961 327.332V199.947C143.961 199.358 144.437 198.882 145.026 198.882C145.615 198.882 146.091 199.36 146.091 199.947V327.33C146.091 327.921 145.615 328.397 145.026 328.397Z" fill="#7D97F4"/>
<path d="M74.066 329.206C73.9266 329.206 73.7849 329.179 73.6498 329.119C73.1073 328.889 72.8549 328.262 73.0852 327.722L127.582 199.53C127.812 198.988 128.439 198.738 128.979 198.966C129.522 199.196 129.774 199.823 129.544 200.363L75.0469 328.557C74.8764 328.962 74.4801 329.206 74.066 329.206Z" fill="#7D97F4"/>
<path d="M107.73 329.206C107.591 329.206 107.449 329.179 107.314 329.119C106.771 328.889 106.519 328.262 106.749 327.722L161.246 199.53C161.476 198.988 162.103 198.738 162.643 198.966C163.186 199.196 163.438 199.823 163.208 200.363L108.711 328.555C108.54 328.962 108.144 329.206 107.73 329.206Z" fill="#7D97F4"/>
<path d="M189.279 201.12H124.653C124.365 201.12 124.133 200.887 124.133 200.6V198.636C124.133 198.348 124.365 198.115 124.653 198.115H189.279C189.567 198.115 189.8 198.348 189.8 198.636V200.6C189.8 200.887 189.567 201.12 189.279 201.12Z" fill="#7D97F4"/>
<path d="M153.999 220.615H120.237C119.648 220.615 119.172 220.137 119.172 219.55C119.172 218.963 119.648 218.485 120.237 218.485H153.999C154.588 218.485 155.064 218.963 155.064 219.55C155.064 220.137 154.588 220.615 153.999 220.615Z" fill="#7D97F4"/>
<path d="M143.637 242.727H109.875V244.859H143.637V242.727Z" fill="#7D97F4"/>
<path d="M133.606 266.973H99.8438V269.105H133.606V266.973Z" fill="#7D97F4"/>
<path d="M123.093 293.349H89.3306C88.7416 293.349 88.2656 292.871 88.2656 292.284C88.2656 291.695 88.7416 291.219 89.3306 291.219H123.093C123.682 291.219 124.158 291.697 124.158 292.284C124.158 292.871 123.682 293.349 123.093 293.349Z" fill="#7D97F4"/>
<path d="M112.921 317.593H79.1587C78.5698 317.593 78.0938 317.115 78.0938 316.528C78.0938 315.941 78.5698 315.463 79.1587 315.463H112.921C113.51 315.463 113.986 315.941 113.986 316.528C113.986 317.115 113.51 317.593 112.921 317.593Z" fill="#7D97F4"/>
<path d="M213.051 202.641C212.583 202.641 212.152 202.335 212.014 201.864C211.851 201.306 211.691 200.743 211.538 200.181C211.381 199.605 211.72 199.01 212.296 198.853C212.871 198.695 213.467 199.034 213.624 199.61C213.775 200.159 213.93 200.708 214.089 201.253C214.257 201.826 213.93 202.426 213.356 202.594C213.254 202.628 213.15 202.641 213.051 202.641Z" fill="#E527BB"/>
<path d="M211.273 195.523C210.771 195.523 210.321 195.173 210.215 194.662C209.978 193.524 209.761 192.37 209.569 191.228C209.469 190.639 209.865 190.081 210.454 189.981C211.045 189.884 211.601 190.278 211.701 190.867C211.889 191.98 212.102 193.11 212.332 194.221C212.454 194.805 212.077 195.379 211.493 195.501C211.42 195.514 211.344 195.523 211.273 195.523ZM209.87 186.571C209.323 186.571 208.856 186.16 208.796 185.604C208.674 184.453 208.57 183.281 208.493 182.123C208.453 181.528 208.902 181.012 209.498 180.97C210.096 180.932 210.609 181.379 210.651 181.975C210.729 183.106 210.828 184.251 210.948 185.374C211.01 185.967 210.58 186.501 209.987 186.563C209.945 186.569 209.907 186.571 209.87 186.571ZM209.356 177.525C208.763 177.525 208.28 177.047 208.276 176.451C208.273 176.214 208.273 175.977 208.273 175.74C208.273 174.817 208.287 173.88 208.316 172.957C208.333 172.359 208.836 171.903 209.429 171.908C210.027 171.925 210.496 172.424 210.479 173.021C210.452 173.925 210.439 174.839 210.439 175.74C210.439 175.973 210.439 176.203 210.441 176.435C210.445 177.033 209.965 177.52 209.367 177.525C209.363 177.525 209.358 177.525 209.356 177.525ZM209.73 168.471C209.697 168.471 209.666 168.469 209.633 168.467C209.04 168.414 208.599 167.889 208.652 167.294C208.756 166.138 208.882 164.971 209.028 163.822C209.104 163.231 209.644 162.81 210.237 162.885C210.828 162.961 211.249 163.501 211.174 164.094C211.03 165.217 210.908 166.357 210.806 167.486C210.755 168.049 210.284 168.471 209.73 168.471ZM210.977 159.5C210.91 159.5 210.842 159.493 210.775 159.48C210.189 159.369 209.803 158.803 209.914 158.216C210.129 157.078 210.37 155.929 210.627 154.797C210.76 154.215 211.34 153.85 211.922 153.985C212.504 154.118 212.868 154.698 212.735 155.28C212.482 156.385 212.248 157.51 212.037 158.619C211.94 159.139 211.486 159.5 210.977 159.5ZM213.098 150.695C212.996 150.695 212.894 150.681 212.792 150.65C212.219 150.482 211.891 149.882 212.059 149.309C212.387 148.197 212.739 147.075 213.107 145.977C213.297 145.41 213.91 145.106 214.475 145.295C215.042 145.485 215.345 146.098 215.157 146.663C214.796 147.737 214.453 148.831 214.134 149.918C213.997 150.389 213.565 150.695 213.098 150.695ZM216.08 142.14C215.945 142.14 215.808 142.115 215.675 142.06C215.122 141.836 214.856 141.205 215.079 140.652C215.516 139.574 215.981 138.491 216.457 137.43C216.702 136.886 217.342 136.642 217.887 136.888C218.432 137.134 218.673 137.774 218.429 138.318C217.964 139.352 217.51 140.41 217.085 141.462C216.913 141.885 216.508 142.14 216.08 142.14ZM219.904 133.91C219.733 133.91 219.563 133.87 219.401 133.786C218.872 133.507 218.671 132.854 218.947 132.327C219.488 131.3 220.057 130.268 220.637 129.26C220.933 128.742 221.595 128.565 222.114 128.864C222.632 129.163 222.809 129.823 222.51 130.341C221.943 131.324 221.39 132.331 220.86 133.334C220.668 133.7 220.291 133.91 219.904 133.91ZM224.52 126.101C224.317 126.101 224.108 126.043 223.927 125.922C223.429 125.592 223.291 124.921 223.619 124.423C224.257 123.455 224.923 122.485 225.601 121.54C225.948 121.055 226.624 120.942 227.108 121.29C227.593 121.637 227.706 122.313 227.359 122.798C226.699 123.721 226.048 124.669 225.424 125.614C225.215 125.931 224.872 126.101 224.52 126.101ZM229.883 118.79C229.644 118.79 229.402 118.71 229.201 118.549C228.738 118.172 228.667 117.491 229.044 117.028C229.774 116.129 230.531 115.23 231.297 114.355C231.692 113.906 232.373 113.862 232.823 114.254C233.272 114.648 233.317 115.33 232.925 115.779C232.176 116.631 231.437 117.51 230.724 118.389C230.509 118.653 230.197 118.79 229.883 118.79ZM235.936 112.042C235.661 112.042 235.387 111.938 235.176 111.73C234.751 111.309 234.749 110.625 235.17 110.2C235.987 109.374 236.83 108.555 237.674 107.762C238.11 107.355 238.794 107.377 239.202 107.811C239.609 108.247 239.587 108.931 239.153 109.338C238.329 110.111 237.506 110.913 236.709 111.718C236.492 111.935 236.213 112.042 235.936 112.042ZM242.616 105.922C242.306 105.922 241.998 105.789 241.783 105.532C241.402 105.072 241.464 104.392 241.925 104.009C242.817 103.267 243.736 102.535 244.653 101.831C245.126 101.467 245.804 101.556 246.169 102.03C246.532 102.504 246.444 103.181 245.97 103.546C245.073 104.235 244.177 104.95 243.304 105.676C243.103 105.84 242.859 105.922 242.616 105.922ZM249.86 100.487C249.512 100.487 249.174 100.321 248.963 100.011C248.629 99.5168 248.76 98.8437 249.253 98.5094C250.214 97.8607 251.197 97.2208 252.18 96.6075C252.687 96.2909 253.354 96.4459 253.67 96.9529C253.987 97.46 253.832 98.1264 253.325 98.443C252.366 99.0408 251.403 99.6652 250.467 100.301C250.279 100.425 250.068 100.487 249.86 100.487ZM347.611 97.1677C347.427 97.1677 347.239 97.1212 347.068 97.0194C346.09 96.4503 345.087 95.8902 344.088 95.3588C343.561 95.0776 343.362 94.4223 343.643 93.8953C343.924 93.3684 344.58 93.1691 345.104 93.4503C346.127 93.995 347.155 94.5684 348.158 95.1507C348.674 95.4518 348.848 96.1138 348.547 96.6297C348.346 96.9751 347.983 97.1677 347.611 97.1677ZM257.598 95.7861C257.215 95.7861 256.843 95.5802 256.646 95.2193C256.363 94.6946 256.558 94.0392 257.082 93.7536C258.103 93.2001 259.146 92.6621 260.18 92.1484C260.716 91.885 261.364 92.1041 261.628 92.6377C261.891 93.1735 261.672 93.8223 261.139 94.0857C260.129 94.5861 259.11 95.1131 258.114 95.6533C257.948 95.7441 257.771 95.7861 257.598 95.7861ZM339.565 93.0008C339.414 93.0008 339.262 92.9698 339.115 92.9034C338.088 92.434 337.036 91.978 335.985 91.5462C335.433 91.3182 335.17 90.6872 335.396 90.1359C335.624 89.5846 336.255 89.3211 336.806 89.5469C337.882 89.9897 338.96 90.4569 340.012 90.9373C340.555 91.1853 340.794 91.8274 340.546 92.3698C340.366 92.7662 339.975 93.0008 339.565 93.0008ZM265.755 91.8717C265.332 91.8717 264.931 91.6237 264.758 91.2097C264.526 90.6606 264.785 90.0251 265.336 89.7949C266.399 89.3476 267.488 88.9137 268.573 88.5041C269.131 88.2938 269.756 88.5749 269.966 89.1351C270.176 89.693 269.895 90.3174 269.335 90.5277C268.277 90.9263 267.212 91.3514 266.173 91.7875C266.038 91.8451 265.894 91.8717 265.755 91.8717ZM331.145 89.6532C331.03 89.6532 330.91 89.6355 330.795 89.5956C329.723 89.2303 328.63 88.8783 327.545 88.555C326.974 88.3845 326.648 87.7801 326.819 87.2089C326.989 86.6376 327.593 86.3122 328.165 86.4827C329.274 86.8148 330.394 87.1734 331.492 87.5498C332.057 87.7425 332.36 88.358 332.166 88.9225C332.015 89.3698 331.594 89.6532 331.145 89.6532ZM274.255 88.7831C273.792 88.7831 273.365 88.4842 273.223 88.0192C273.046 87.448 273.367 86.8435 273.938 86.6686C275.049 86.3255 276.179 86 277.295 85.7033C277.872 85.5483 278.464 85.8915 278.618 86.4694C278.773 87.0472 278.43 87.6384 277.852 87.7934C276.763 88.0856 275.661 88.4022 274.573 88.7366C274.467 88.7676 274.359 88.7831 274.255 88.7831ZM322.437 87.1535C322.355 87.1535 322.273 87.1447 322.189 87.1247C321.086 86.8679 319.964 86.6266 318.852 86.4096C318.266 86.2945 317.883 85.7277 317.998 85.1409C318.113 84.5542 318.68 84.1712 319.266 84.2863C320.407 84.5077 321.556 84.7535 322.685 85.0192C323.265 85.1542 323.628 85.7365 323.491 86.3188C323.371 86.817 322.926 87.1535 322.437 87.1535ZM283.031 86.5447C282.526 86.5447 282.077 86.1904 281.973 85.679C281.853 85.0944 282.232 84.5232 282.816 84.4037C283.952 84.1734 285.108 83.9608 286.253 83.7749C286.844 83.6774 287.397 84.0782 287.495 84.6671C287.592 85.2561 287.191 85.8118 286.602 85.9092C285.484 86.093 284.355 86.2989 283.246 86.5225C283.175 86.538 283.102 86.5447 283.031 86.5447ZM313.521 85.5262C313.474 85.5262 313.426 85.524 313.377 85.5173C312.257 85.369 311.116 85.2384 309.985 85.1321C309.389 85.0767 308.953 84.5476 309.011 83.9542C309.066 83.3608 309.591 82.9224 310.189 82.98C311.347 83.0885 312.514 83.2213 313.66 83.3741C314.252 83.4516 314.668 83.9963 314.59 84.5874C314.519 85.1299 314.055 85.5262 313.521 85.5262ZM291.987 85.1874C291.438 85.1874 290.969 84.7712 290.913 84.2155C290.853 83.6221 291.285 83.0907 291.881 83.0309C293.03 82.9158 294.201 82.8184 295.361 82.7453C295.961 82.7077 296.47 83.1594 296.508 83.7549C296.546 84.3505 296.094 84.8642 295.498 84.9018C294.365 84.9749 293.22 85.0679 292.098 85.1808C292.06 85.1852 292.022 85.1874 291.987 85.1874ZM304.488 84.7756C304.474 84.7756 304.463 84.7756 304.45 84.7756C303.392 84.738 302.322 84.7203 301.271 84.7203H301.038C301.036 84.7203 301.036 84.7203 301.036 84.7203C300.44 84.7203 299.955 84.2376 299.955 83.642C299.953 83.0442 300.436 82.5593 301.034 82.5571H301.273C302.349 82.5571 303.443 82.5771 304.525 82.6147C305.121 82.6346 305.588 83.135 305.568 83.7328C305.548 84.3151 305.068 84.7756 304.488 84.7756Z" fill="#E527BB"/>
<path d="M353.828 101.135C353.616 101.135 353.401 101.073 353.213 100.943C352.746 100.617 352.274 100.296 351.8 99.9795C351.304 99.6474 351.172 98.9765 351.501 98.4806C351.834 97.9846 352.504 97.8518 353 98.1817C353.485 98.5049 353.966 98.8348 354.446 99.1669C354.936 99.5079 355.057 100.181 354.716 100.672C354.508 100.974 354.172 101.135 353.828 101.135Z" fill="#E527BB"/>
<path d="M391.869 160.069C391.358 160.069 390.904 159.704 390.806 159.183C390.704 158.623 390.596 158.063 390.483 157.505C390.363 156.921 390.742 156.349 391.327 156.23C391.911 156.113 392.482 156.489 392.602 157.073C392.717 157.645 392.828 158.216 392.934 158.792C393.042 159.378 392.653 159.943 392.066 160.049C392 160.065 391.933 160.069 391.869 160.069Z" fill="#E527BB"/>
<path d="M302.091 268.737C301.498 268.737 301.015 268.257 301.011 267.663C301.006 267.066 301.487 266.579 302.084 266.574C303.196 266.567 304.325 266.539 305.439 266.49C306.041 266.468 306.539 266.926 306.566 267.524C306.592 268.122 306.129 268.624 305.532 268.651C304.391 268.7 303.236 268.731 302.098 268.737C302.098 268.737 302.093 268.737 302.091 268.737ZM296.571 268.611C296.551 268.611 296.534 268.611 296.514 268.609C295.989 268.582 295.464 268.549 294.937 268.514C294.317 268.472 293.698 268.421 293.082 268.368C292.486 268.314 292.048 267.79 292.101 267.194C292.154 266.599 292.677 266.158 293.275 266.213C293.877 266.266 294.481 266.315 295.088 266.357C295.602 266.393 296.115 266.424 296.629 266.45C297.225 266.481 297.683 266.99 297.652 267.586C297.621 268.164 297.143 268.611 296.571 268.611ZM310.992 268.246C310.445 268.246 309.975 267.832 309.918 267.276C309.856 266.683 310.287 266.151 310.881 266.089C311.992 265.974 313.115 265.835 314.213 265.68C314.806 265.593 315.351 266.007 315.435 266.598C315.519 267.19 315.107 267.737 314.516 267.821C313.392 267.98 312.242 268.122 311.104 268.239C311.067 268.244 311.027 268.246 310.992 268.246ZM287.693 267.721C287.64 267.721 287.587 267.717 287.531 267.71C286.398 267.542 285.258 267.349 284.139 267.141C283.553 267.03 283.165 266.466 283.276 265.879C283.387 265.292 283.951 264.907 284.538 265.015C285.629 265.219 286.743 265.407 287.85 265.571C288.441 265.66 288.849 266.209 288.76 266.8C288.683 267.336 288.22 267.721 287.693 267.721ZM319.803 266.893C319.301 266.893 318.849 266.541 318.745 266.027C318.626 265.443 319.004 264.872 319.589 264.752C320.682 264.528 321.785 264.283 322.866 264.019C323.446 263.877 324.03 264.234 324.172 264.814C324.314 265.394 323.957 265.979 323.377 266.12C322.27 266.388 321.141 266.641 320.023 266.871C319.947 266.886 319.874 266.893 319.803 266.893ZM278.945 265.979C278.859 265.979 278.77 265.967 278.682 265.945C277.573 265.669 276.454 265.367 275.361 265.049C274.787 264.883 274.457 264.283 274.623 263.709C274.789 263.136 275.389 262.806 275.963 262.972C277.03 263.282 278.122 263.576 279.207 263.846C279.787 263.99 280.139 264.577 279.992 265.157C279.871 265.651 279.43 265.979 278.945 265.979ZM328.443 264.686C327.98 264.686 327.553 264.387 327.411 263.924C327.236 263.353 327.555 262.748 328.126 262.573C329.189 262.246 330.26 261.894 331.308 261.528C331.872 261.331 332.488 261.628 332.685 262.193C332.882 262.757 332.585 263.373 332.021 263.57C330.947 263.944 329.851 264.305 328.764 264.639C328.655 264.67 328.547 264.686 328.443 264.686ZM270.406 263.397C270.284 263.397 270.162 263.377 270.043 263.335C268.969 262.952 267.886 262.542 266.825 262.119C266.272 261.898 266.002 261.269 266.223 260.716C266.445 260.162 267.071 259.89 267.627 260.114C268.663 260.528 269.719 260.926 270.769 261.3C271.331 261.502 271.623 262.119 271.424 262.682C271.267 263.122 270.851 263.397 270.406 263.397ZM336.81 261.655C336.387 261.655 335.986 261.404 335.811 260.99C335.581 260.439 335.84 259.806 336.391 259.576C337.416 259.146 338.448 258.692 339.458 258.225C340 257.975 340.642 258.212 340.892 258.752C341.143 259.294 340.908 259.936 340.365 260.187C339.331 260.665 338.275 261.13 337.226 261.568C337.091 261.628 336.949 261.655 336.81 261.655ZM262.16 259.994C262.005 259.994 261.848 259.961 261.7 259.89C260.664 259.403 259.628 258.889 258.616 258.367C258.084 258.092 257.878 257.439 258.153 256.91C258.428 256.378 259.081 256.173 259.61 256.447C260.597 256.958 261.611 257.459 262.621 257.935C263.161 258.19 263.391 258.834 263.139 259.374C262.955 259.766 262.566 259.994 262.16 259.994ZM344.849 257.824C344.464 257.824 344.092 257.618 343.895 257.255C343.611 256.728 343.808 256.073 344.335 255.792C345.316 255.265 346.299 254.711 347.26 254.149C347.774 253.848 348.438 254.02 348.739 254.534C349.04 255.05 348.867 255.712 348.354 256.013C347.371 256.589 346.363 257.156 345.36 257.694C345.199 257.782 345.022 257.824 344.849 257.824ZM254.287 255.805C254.099 255.805 253.909 255.756 253.734 255.652C252.755 255.068 251.772 254.457 250.813 253.837C250.313 253.511 250.169 252.843 250.495 252.342C250.82 251.84 251.489 251.698 251.989 252.023C252.926 252.63 253.884 253.226 254.841 253.797C255.354 254.102 255.52 254.767 255.215 255.278C255.013 255.617 254.655 255.805 254.287 255.805ZM352.485 253.232C352.138 253.232 351.794 253.064 351.586 252.752C351.254 252.256 351.387 251.585 351.883 251.253C352.806 250.635 353.732 249.991 354.637 249.335C355.12 248.986 355.797 249.094 356.147 249.577C356.497 250.062 356.389 250.737 355.906 251.087C354.98 251.758 354.031 252.417 353.087 253.048C352.901 253.172 352.691 253.232 352.485 253.232ZM359.643 247.923C359.331 247.923 359.019 247.788 358.806 247.527C358.428 247.064 358.496 246.384 358.959 246.006C359.818 245.301 360.679 244.571 361.516 243.831C361.964 243.437 362.648 243.479 363.042 243.927C363.436 244.374 363.394 245.058 362.947 245.452C362.09 246.209 361.209 246.958 360.327 247.679C360.128 247.843 359.885 247.923 359.643 247.923ZM366.263 241.947C365.987 241.947 365.708 241.841 365.497 241.628C365.077 241.205 365.079 240.521 365.502 240.101C366.292 239.315 367.08 238.502 367.84 237.687C368.247 237.251 368.931 237.227 369.367 237.636C369.804 238.044 369.828 238.728 369.418 239.164C368.639 239.997 367.835 240.829 367.025 241.633C366.815 241.843 366.538 241.947 366.263 241.947ZM372.277 235.36C372.033 235.36 371.79 235.278 371.588 235.112C371.128 234.732 371.063 234.05 371.444 233.589C372.157 232.728 372.863 231.844 373.541 230.961C373.904 230.487 374.581 230.399 375.058 230.762C375.531 231.125 375.62 231.805 375.257 232.278C374.564 233.182 373.842 234.087 373.111 234.968C372.894 235.225 372.587 235.36 372.277 235.36ZM377.628 228.22C377.42 228.22 377.21 228.16 377.024 228.034C376.53 227.7 376.399 227.027 376.734 226.533C377.36 225.607 377.976 224.658 378.567 223.712C378.883 223.205 379.55 223.052 380.057 223.367C380.564 223.683 380.719 224.35 380.402 224.857C379.8 225.824 379.169 226.794 378.527 227.744C378.317 228.054 377.976 228.22 377.628 228.22ZM382.264 220.59C382.089 220.59 381.914 220.548 381.751 220.46C381.226 220.174 381.031 219.519 381.317 218.994C381.848 218.013 382.371 217.01 382.867 216.007C383.132 215.471 383.779 215.252 384.315 215.518C384.85 215.784 385.067 216.432 384.804 216.966C384.295 217.991 383.761 219.021 383.216 220.024C383.019 220.387 382.647 220.59 382.264 220.59ZM386.139 212.542C385.999 212.542 385.855 212.516 385.718 212.456C385.169 212.223 384.91 211.59 385.143 211.039C385.577 210.009 385.999 208.958 386.396 207.913C386.608 207.355 387.23 207.074 387.791 207.284C388.349 207.496 388.63 208.119 388.417 208.679C388.012 209.748 387.58 210.826 387.135 211.88C386.96 212.294 386.56 212.542 386.139 212.542ZM389.205 204.16C389.099 204.16 388.991 204.144 388.884 204.111C388.315 203.934 387.996 203.327 388.174 202.758C388.506 201.693 388.82 200.608 389.112 199.535C389.267 198.959 389.863 198.618 390.439 198.773C391.014 198.93 391.355 199.524 391.2 200.099C390.901 201.2 390.578 202.309 390.239 203.4C390.093 203.863 389.666 204.16 389.205 204.16ZM391.439 195.529C391.366 195.529 391.293 195.523 391.218 195.507C390.633 195.386 390.257 194.814 390.379 194.23C390.605 193.138 390.813 192.027 391.001 190.931C391.101 190.342 391.659 189.946 392.247 190.045C392.836 190.145 393.233 190.703 393.133 191.292C392.943 192.414 392.73 193.552 392.498 194.67C392.391 195.177 391.942 195.529 391.439 195.529ZM392.825 186.722C392.785 186.722 392.748 186.72 392.708 186.715C392.115 186.651 391.685 186.117 391.749 185.524C391.869 184.421 391.971 183.297 392.05 182.179C392.092 181.583 392.606 181.136 393.206 181.178C393.802 181.22 394.249 181.738 394.207 182.334C394.125 183.476 394.021 184.627 393.897 185.757C393.839 186.312 393.37 186.722 392.825 186.722ZM393.363 177.821C393.359 177.821 393.355 177.821 393.35 177.821C392.752 177.815 392.276 177.323 392.283 176.725C392.287 176.334 392.29 175.944 392.29 175.554C392.29 174.824 392.281 174.095 392.263 173.367C392.25 172.769 392.721 172.275 393.319 172.26C393.93 172.251 394.411 172.718 394.426 173.316C394.444 174.06 394.453 174.806 394.453 175.554C394.453 175.953 394.45 176.353 394.446 176.754C394.437 177.348 393.955 177.821 393.363 177.821ZM393.047 168.91C392.491 168.91 392.017 168.485 391.971 167.92C391.878 166.809 391.763 165.686 391.628 164.579C391.557 163.986 391.977 163.448 392.571 163.375C393.164 163.302 393.702 163.724 393.775 164.318C393.912 165.451 394.032 166.601 394.127 167.739C394.178 168.334 393.735 168.857 393.14 168.905C393.109 168.908 393.078 168.91 393.047 168.91Z" fill="#E527BB"/>
<path d="M246.827 250.848C246.603 250.848 246.38 250.779 246.187 250.637C245.718 250.292 245.25 249.94 244.79 249.586C244.316 249.223 244.228 248.545 244.591 248.071C244.954 247.598 245.633 247.507 246.105 247.872C246.557 248.217 247.013 248.561 247.471 248.899C247.952 249.254 248.053 249.931 247.699 250.412C247.484 250.695 247.157 250.848 246.827 250.848Z" fill="#E527BB"/>
<path d="M251.675 225.922C251.971 226.287 252.47 226.422 252.912 226.261L265.526 221.622C270.499 225.452 276.118 228.517 282.227 230.616L285.304 243.69C285.413 244.148 285.798 244.487 286.267 244.535L302.306 246.161C302.775 246.207 303.222 245.952 303.42 245.525L309.057 233.332C315.462 232.5 321.581 230.624 327.221 227.87L338.647 234.944C339.048 235.192 339.562 235.159 339.927 234.86L352.419 224.666C352.784 224.368 352.919 223.872 352.758 223.429L348.119 210.815C351.949 205.843 355.014 200.223 357.113 194.115L370.187 191.037C370.645 190.929 370.984 190.543 371.032 190.074L372.658 174.035C372.704 173.566 372.449 173.119 372.022 172.922L359.829 167.285C358.997 160.879 357.122 154.76 354.367 149.121L361.441 137.692C361.689 137.291 361.656 136.777 361.357 136.412L351.163 123.922C350.867 123.557 350.369 123.422 349.928 123.584L337.315 128.226C332.342 124.396 326.723 121.332 320.614 119.233L317.536 106.159C317.428 105.701 317.043 105.362 316.573 105.313L300.535 103.688C300.065 103.642 299.618 103.896 299.421 104.323L293.784 116.516C287.379 117.349 281.259 119.224 275.62 121.978L264.193 114.904C263.792 114.657 263.279 114.69 262.913 114.989L250.424 125.182C250.059 125.479 249.923 125.977 250.085 126.42L254.724 139.033C250.893 144.006 247.829 149.625 245.73 155.734L232.656 158.811C232.198 158.92 231.859 159.305 231.81 159.775L230.185 175.813C230.139 176.283 230.393 176.73 230.821 176.927L243.013 182.564C243.846 188.969 245.721 195.089 248.475 200.728L241.402 212.155C241.154 212.556 241.187 213.069 241.486 213.435L251.675 225.922Z" fill="#E527BB"/>
<path d="M301.392 190.105C298.155 190.105 295.016 189.073 292.37 187.107C289.115 184.689 286.996 181.147 286.407 177.137C285.816 173.125 286.824 169.125 289.241 165.87C291.659 162.615 295.202 160.499 299.211 159.908C303.223 159.316 307.224 160.322 310.479 162.742C313.733 165.159 315.852 168.702 316.441 172.711C317.661 180.992 311.918 188.721 303.637 189.941C302.887 190.052 302.136 190.105 301.392 190.105ZM301.452 161.471C300.792 161.471 300.128 161.519 299.461 161.617C295.908 162.142 292.771 164.017 290.627 166.902C288.484 169.787 287.592 173.331 288.117 176.885C288.641 180.439 290.517 183.576 293.402 185.719C296.284 187.862 299.831 188.755 303.385 188.23C310.722 187.147 315.812 180.299 314.73 172.962C314.205 169.408 312.33 166.271 309.445 164.128C307.102 162.385 304.319 161.471 301.452 161.471Z" fill="white"/>
<path d="M301.695 214.021C300.373 214.021 299.043 213.955 297.701 213.82C294.909 213.537 292.15 212.959 289.505 212.102C289.321 212.042 289.206 211.874 289.206 211.69C289.206 211.646 289.212 211.601 289.228 211.557C289.301 211.329 289.544 211.205 289.773 211.278C292.361 212.117 295.058 212.682 297.79 212.959C318.898 215.095 337.802 199.668 339.939 178.563C340.072 177.25 340.138 175.944 340.138 174.651C340.134 155.172 325.335 138.418 305.546 136.414C284.439 134.278 265.533 149.705 263.396 170.81C263.266 172.111 263.199 173.413 263.199 174.713C263.202 180.343 264.433 185.912 266.83 191.011C266.859 191.07 266.873 191.132 266.873 191.194C266.873 191.356 266.78 191.511 266.625 191.586C266.408 191.688 266.151 191.595 266.049 191.378C263.598 186.162 262.338 180.47 262.336 174.713C262.336 173.385 262.402 172.052 262.537 170.723C264.723 149.145 284.058 133.372 305.634 135.555C325.868 137.605 341.001 154.733 341.006 174.651C341.006 175.973 340.939 177.308 340.804 178.652C338.75 198.886 321.615 214.021 301.695 214.021Z" fill="white"/>
<path d="M386.703 134.596L390.948 132.641C392.777 133.833 394.809 134.738 396.983 135.298L398.409 139.744C398.46 139.901 398.602 140.008 398.766 140.01L404.369 140.132C404.533 140.136 404.682 140.034 404.737 139.881L406.353 135.502C408.55 135.037 410.62 134.218 412.497 133.109L416.653 135.245C416.799 135.32 416.976 135.294 417.094 135.181L421.141 131.304C421.258 131.191 421.294 131.014 421.225 130.866L419.27 126.621C420.461 124.793 421.367 122.76 421.927 120.586L426.373 119.16C426.528 119.109 426.636 118.967 426.638 118.804L426.76 113.2C426.765 113.036 426.663 112.888 426.51 112.832L422.131 111.216C421.666 109.02 420.846 106.949 419.737 105.072L421.874 100.916C421.949 100.77 421.923 100.593 421.81 100.476L417.933 96.4283C417.82 96.3087 417.643 96.2777 417.494 96.3441L413.25 98.2991C411.421 97.108 409.389 96.2024 407.215 95.6423L405.789 91.1964C405.738 91.0415 405.596 90.933 405.432 90.9308L399.828 90.809C399.665 90.8045 399.516 90.9064 399.461 91.0592L397.845 95.4386C395.648 95.9035 393.578 96.7227 391.701 97.832L387.545 95.6954C387.399 95.6201 387.222 95.6467 387.104 95.7596L383.057 99.6364C382.94 99.7493 382.904 99.9265 382.973 100.075L384.928 104.319C383.737 106.148 382.831 108.18 382.271 110.355L377.825 111.781C377.67 111.831 377.562 111.973 377.559 112.137L377.438 117.741C377.433 117.905 377.535 118.053 377.688 118.108L382.067 119.725C382.532 121.921 383.351 123.991 384.461 125.869L382.324 130.024C382.249 130.171 382.275 130.348 382.388 130.465L386.265 134.512C386.378 134.632 386.555 134.665 386.703 134.596Z" fill="#A78BEF"/>
<path d="M402.09 120.88C401.084 120.88 400.099 120.599 399.227 120.052C398.002 119.284 397.15 118.086 396.827 116.68C396.504 115.272 396.747 113.822 397.515 112.597C398.281 111.373 399.481 110.521 400.887 110.197C403.797 109.529 406.701 111.353 407.37 114.258C407.693 115.666 407.45 117.116 406.682 118.341C405.915 119.565 404.715 120.418 403.31 120.741C402.904 120.836 402.495 120.88 402.09 120.88ZM402.101 110.926C401.764 110.926 401.423 110.964 401.084 111.041C399.902 111.313 398.895 112.028 398.25 113.058C397.606 114.088 397.4 115.305 397.673 116.488C397.945 117.67 398.66 118.677 399.69 119.322C400.719 119.966 401.937 120.172 403.119 119.899C404.301 119.627 405.309 118.912 405.953 117.885C406.597 116.855 406.803 115.637 406.531 114.455C406.046 112.352 404.171 110.926 402.101 110.926Z" fill="white"/>
<g opacity="0.64">
<path d="M376.966 133.024C376.614 133.024 376.268 132.852 376.06 132.535C375.735 132.039 375.42 131.526 375.121 131.01C374.822 130.492 375.002 129.832 375.52 129.533C376.038 129.234 376.698 129.413 376.997 129.931C377.273 130.412 377.568 130.89 377.869 131.351C378.197 131.851 378.057 132.52 377.557 132.847C377.375 132.967 377.169 133.024 376.966 133.024Z" fill="#A78BEF"/>
<path d="M373.692 126.34C373.243 126.34 372.824 126.059 372.669 125.61C372.315 124.573 372.009 123.506 371.764 122.435L371.688 122.096C371.56 121.514 371.93 120.936 372.512 120.809C373.094 120.681 373.672 121.051 373.798 121.633L373.869 121.952C374.099 122.95 374.383 123.945 374.713 124.908C374.908 125.472 374.606 126.088 374.042 126.28C373.927 126.322 373.809 126.34 373.692 126.34ZM372.058 117.265C371.474 117.265 370.993 116.798 370.978 116.211C370.971 115.954 370.969 115.699 370.969 115.445C370.969 114.486 371.013 113.514 371.104 112.56C371.159 111.967 371.686 111.528 372.282 111.583C372.877 111.639 373.313 112.166 373.258 112.761C373.174 113.649 373.132 114.553 373.132 115.445C373.132 115.682 373.134 115.919 373.141 116.158C373.156 116.756 372.685 117.249 372.087 117.265C372.076 117.263 372.067 117.265 372.058 117.265ZM373.258 108.121C373.158 108.121 373.054 108.107 372.953 108.076C372.379 107.908 372.051 107.308 372.22 106.735C372.561 105.57 372.977 104.414 373.451 103.296C373.685 102.747 374.321 102.493 374.87 102.725C375.419 102.96 375.676 103.593 375.441 104.144C374.998 105.183 374.613 106.261 374.294 107.344C374.157 107.815 373.725 108.121 373.258 108.121ZM377.175 99.7737C376.967 99.7737 376.758 99.7139 376.573 99.5899C376.077 99.2556 375.946 98.5848 376.278 98.0888C376.956 97.0814 377.699 96.105 378.488 95.184C378.877 94.7301 379.559 94.6792 380.013 95.0666C380.467 95.4563 380.518 96.1382 380.131 96.5921C379.395 97.4489 378.702 98.3589 378.071 99.2955C377.866 99.6054 377.522 99.7737 377.175 99.7737ZM383.432 93.0009C383.113 93.0009 382.798 92.8614 382.584 92.5913C382.212 92.1241 382.291 91.4444 382.759 91.0725C383.708 90.3197 384.714 89.6134 385.745 88.9757C386.255 88.6613 386.919 88.8208 387.233 89.3278C387.548 89.837 387.388 90.5012 386.881 90.8156C385.92 91.409 384.986 92.0644 384.103 92.7662C383.905 92.9256 383.669 93.0009 383.432 93.0009ZM391.449 88.4554C391.013 88.4554 390.601 88.1898 390.437 87.7558C390.227 87.1979 390.508 86.5735 391.066 86.3632C392.197 85.9358 393.371 85.5705 394.551 85.276C395.129 85.1321 395.717 85.4842 395.861 86.0643C396.005 86.6443 395.653 87.2311 395.073 87.375C393.975 87.6495 392.883 87.9905 391.83 88.389C391.703 88.4311 391.575 88.4554 391.449 88.4554ZM403.996 86.558C403.974 86.558 403.949 86.558 403.927 86.5558C403.332 86.5181 402.725 86.4982 402.127 86.4982C401.596 86.5071 401.06 86.5137 400.531 86.5425C399.94 86.5735 399.424 86.1196 399.391 85.524C399.357 84.9284 399.813 84.417 400.409 84.3838C400.978 84.3528 401.556 84.3284 402.127 84.3373C402.771 84.3373 403.422 84.3572 404.062 84.3971C404.658 84.4347 405.112 84.9484 405.074 85.544C405.039 86.1196 404.563 86.558 403.996 86.558Z" fill="#A78BEF"/>
<path d="M411.325 87.9528C411.214 87.9528 411.103 87.9351 410.992 87.8996C410.468 87.7292 409.93 87.572 409.394 87.4325C408.816 87.2819 408.471 86.6908 408.621 86.1129C408.772 85.535 409.363 85.1896 409.941 85.3402C410.516 85.4907 411.094 85.659 411.659 85.8428C412.228 86.0266 412.538 86.6354 412.354 87.2044C412.206 87.6627 411.781 87.9528 411.325 87.9528Z" fill="#A78BEF"/>
</g>
<g opacity="0.64">
<path d="M429.312 103.806C428.905 103.806 428.515 103.575 428.332 103.181C428.099 102.681 427.847 102.18 427.583 101.693C427.3 101.169 427.495 100.513 428.022 100.23C428.546 99.9465 429.204 100.141 429.485 100.668C429.768 101.193 430.039 101.731 430.291 102.269C430.543 102.809 430.309 103.454 429.768 103.706C429.622 103.775 429.467 103.806 429.312 103.806Z" fill="#A78BEF"/>
<path d="M402.074 146.603C400.918 146.603 399.749 146.537 398.6 146.408C398.007 146.342 397.579 145.806 397.648 145.213C397.714 144.619 398.252 144.194 398.843 144.261C399.913 144.382 401 144.442 402.074 144.442H402.178C402.18 144.442 402.182 144.442 402.184 144.442C402.778 144.442 403.263 144.923 403.265 145.516C403.269 146.114 402.787 146.601 402.191 146.603H402.074ZM407.788 146.054C407.281 146.054 406.827 145.695 406.728 145.177C406.615 144.591 406.998 144.024 407.585 143.911C407.917 143.847 408.251 143.776 408.583 143.701C409.338 143.528 410.093 143.322 410.826 143.092C411.397 142.912 412.002 143.229 412.181 143.798C412.36 144.367 412.044 144.974 411.475 145.153C410.686 145.401 409.876 145.62 409.068 145.806C408.709 145.888 408.353 145.963 407.994 146.034C407.923 146.047 407.855 146.054 407.788 146.054ZM416.337 143.019C415.951 143.019 415.58 142.813 415.382 142.45C415.099 141.923 415.298 141.267 415.823 140.986C416.802 140.461 417.758 139.872 418.67 139.237C419.16 138.896 419.833 139.016 420.176 139.505C420.517 139.994 420.397 140.669 419.908 141.01C418.929 141.695 417.898 142.328 416.848 142.892C416.687 142.977 416.509 143.019 416.337 143.019ZM423.581 137.563C423.309 137.563 423.036 137.461 422.826 137.255C422.399 136.839 422.39 136.155 422.808 135.728C423.583 134.935 424.321 134.087 425.003 133.206C425.368 132.734 426.045 132.648 426.519 133.011C426.991 133.376 427.077 134.056 426.712 134.528C425.981 135.473 425.189 136.383 424.356 137.235C424.144 137.455 423.862 137.563 423.581 137.563ZM428.871 130.195C428.704 130.195 428.536 130.157 428.381 130.077C427.85 129.807 427.637 129.154 427.91 128.623C428.414 127.633 428.868 126.604 429.256 125.563C429.464 125.003 430.086 124.719 430.646 124.928C431.206 125.136 431.49 125.758 431.282 126.318C430.865 127.436 430.378 128.543 429.836 129.606C429.643 129.978 429.262 130.195 428.871 130.195ZM431.731 121.584C431.671 121.584 431.609 121.58 431.55 121.569C430.961 121.469 430.564 120.911 430.666 120.322C430.852 119.226 430.976 118.108 431.034 116.999C431.065 116.403 431.572 115.938 432.169 115.976C432.765 116.007 433.223 116.516 433.192 117.112C433.13 118.303 432.998 119.505 432.796 120.685C432.705 121.212 432.249 121.584 431.731 121.584ZM431.875 112.511C431.344 112.511 430.879 112.117 430.806 111.577C430.688 110.715 430.529 109.843 430.332 108.989C430.279 108.756 430.221 108.524 430.164 108.293C430.015 107.715 430.365 107.127 430.945 106.978C431.523 106.83 432.112 107.18 432.26 107.76C432.322 108.005 432.384 108.256 432.44 108.504C432.65 109.42 432.82 110.357 432.949 111.282C433.029 111.873 432.614 112.418 432.023 112.5C431.972 112.509 431.921 112.511 431.875 112.511Z" fill="#A78BEF"/>
<path d="M393.2 145.25C393.094 145.25 392.985 145.235 392.879 145.202C392.314 145.027 391.745 144.83 391.185 144.622C390.625 144.411 390.344 143.789 390.554 143.229C390.764 142.671 391.389 142.388 391.947 142.598C392.467 142.793 392.998 142.974 393.523 143.138C394.092 143.315 394.411 143.922 394.234 144.491C394.088 144.954 393.66 145.25 393.2 145.25Z" fill="#A78BEF"/>
</g>
<path d="M402.113 129.427C402.008 129.427 401.907 129.424 401.803 129.424C400.884 129.404 399.967 129.294 399.075 129.099C399.002 129.083 398.929 129.066 398.856 129.048C398.656 129.002 398.524 128.822 398.524 128.627C398.524 128.594 398.528 128.561 398.535 128.528C398.59 128.295 398.825 128.151 399.055 128.207C399.956 128.421 400.888 128.541 401.82 128.561C401.915 128.563 402.013 128.563 402.108 128.563C408.989 128.563 414.695 123.205 415.164 116.377C415.178 116.171 415.189 115.963 415.193 115.755C415.195 115.66 415.195 115.564 415.195 115.469C415.198 108.38 409.51 102.537 402.387 102.384C395.169 102.229 389.171 107.972 389.016 115.19C389.014 115.285 389.014 115.381 389.014 115.476C389.014 117.75 389.603 119.984 390.726 121.952C390.765 122.021 390.783 122.094 390.783 122.167C390.783 122.317 390.706 122.463 390.566 122.543C390.358 122.66 390.095 122.59 389.975 122.381C388.777 120.283 388.148 117.902 388.148 115.478C388.148 115.376 388.151 115.277 388.151 115.175C388.317 107.481 394.709 101.357 402.405 101.523C409.997 101.687 416.061 107.917 416.059 115.474C416.059 115.575 416.057 115.675 416.057 115.777C415.977 119.503 414.449 122.977 411.757 125.554C409.14 128.056 405.726 129.427 402.113 129.427Z" fill="white"/>
<g opacity="0.64">
<path d="M161.173 237.878C160.987 237.878 160.815 237.756 160.759 237.568C160.658 237.218 160.56 236.868 160.467 236.514C160.407 236.284 160.545 236.047 160.777 235.987C161.007 235.927 161.244 236.065 161.304 236.297C161.395 236.642 161.49 236.986 161.59 237.327C161.656 237.557 161.525 237.796 161.297 237.862C161.255 237.871 161.213 237.878 161.173 237.878Z" fill="url(#paint0_linear_2341_9810)"/>
<path d="M160.413 234.774C160.211 234.774 160.03 234.632 159.99 234.426C159.853 233.731 159.733 233.02 159.636 232.314C159.602 232.077 159.769 231.86 160.005 231.827C160.238 231.796 160.459 231.96 160.493 232.196C160.588 232.885 160.705 233.578 160.84 234.258C160.887 234.492 160.734 234.72 160.501 234.767C160.468 234.771 160.439 234.774 160.413 234.774ZM159.833 230.585C159.609 230.585 159.421 230.412 159.401 230.186C159.346 229.478 159.31 228.758 159.297 228.047C159.293 227.808 159.483 227.611 159.72 227.607C159.961 227.609 160.156 227.79 160.16 228.03C160.174 228.725 160.209 229.427 160.262 230.117C160.28 230.354 160.103 230.565 159.866 230.582C159.857 230.585 159.844 230.585 159.833 230.585ZM159.749 226.358C159.742 226.358 159.738 226.358 159.731 226.358C159.492 226.349 159.306 226.148 159.315 225.909C159.33 225.526 159.35 225.142 159.377 224.757C159.399 224.427 159.428 224.1 159.459 223.772C159.481 223.535 159.689 223.36 159.93 223.382C160.167 223.404 160.342 223.617 160.32 223.854C160.289 224.173 160.262 224.494 160.24 224.815C160.214 225.191 160.194 225.565 160.18 225.94C160.174 226.174 159.981 226.358 159.749 226.358ZM160.154 222.149C160.132 222.149 160.11 222.147 160.087 222.145C159.85 222.107 159.689 221.888 159.726 221.651C159.835 220.947 159.966 220.241 160.116 219.548C160.167 219.313 160.395 219.167 160.63 219.215C160.862 219.266 161.011 219.497 160.962 219.729C160.816 220.407 160.69 221.097 160.581 221.784C160.548 221.996 160.364 222.149 160.154 222.149ZM161.044 218.015C161.006 218.015 160.966 218.011 160.929 218C160.698 217.936 160.563 217.699 160.628 217.469C160.818 216.784 161.031 216.096 161.261 215.425C161.338 215.199 161.584 215.08 161.81 215.155C162.036 215.232 162.158 215.478 162.08 215.704C161.854 216.362 161.646 217.032 161.462 217.699C161.407 217.891 161.232 218.015 161.044 218.015ZM162.412 214.017C162.357 214.017 162.301 214.006 162.248 213.984C162.027 213.893 161.923 213.64 162.011 213.419C162.282 212.759 162.574 212.102 162.882 211.46C162.986 211.245 163.245 211.154 163.459 211.258C163.674 211.362 163.765 211.621 163.661 211.836C163.36 212.463 163.074 213.105 162.811 213.749C162.744 213.915 162.583 214.017 162.412 214.017ZM164.245 210.2C164.175 210.2 164.101 210.182 164.035 210.144C163.827 210.029 163.752 209.766 163.867 209.556C164.212 208.936 164.58 208.316 164.963 207.713C165.091 207.512 165.357 207.452 165.561 207.581C165.762 207.709 165.822 207.975 165.693 208.178C165.321 208.765 164.961 209.37 164.624 209.976C164.544 210.12 164.398 210.2 164.245 210.2ZM166.515 206.626C166.426 206.626 166.34 206.6 166.262 206.544C166.068 206.405 166.025 206.135 166.165 205.942C166.581 205.364 167.02 204.793 167.467 204.242C167.617 204.056 167.89 204.029 168.076 204.18C168.262 204.33 168.288 204.603 168.138 204.789C167.699 205.327 167.272 205.885 166.867 206.449C166.78 206.564 166.65 206.626 166.515 206.626ZM169.185 203.347C169.081 203.347 168.977 203.31 168.893 203.234C168.718 203.073 168.704 202.8 168.866 202.623C169.347 202.099 169.847 201.583 170.358 201.087C170.529 200.921 170.803 200.925 170.969 201.096C171.136 201.266 171.131 201.541 170.961 201.707C170.462 202.189 169.973 202.694 169.504 203.206C169.42 203.299 169.302 203.347 169.185 203.347ZM172.218 200.4C172.096 200.4 171.977 200.349 171.891 200.25C171.733 200.068 171.755 199.796 171.935 199.639C172.473 199.174 173.031 198.72 173.593 198.288C173.784 198.142 174.054 198.18 174.2 198.368C174.346 198.558 174.308 198.828 174.12 198.975C173.571 199.397 173.024 199.84 172.499 200.294C172.42 200.365 172.318 200.4 172.218 200.4ZM175.572 197.825C175.433 197.825 175.298 197.759 175.214 197.635C175.079 197.438 175.132 197.168 175.329 197.035C175.918 196.634 176.525 196.249 177.133 195.886C177.339 195.764 177.605 195.831 177.727 196.036C177.849 196.242 177.782 196.508 177.576 196.63C176.983 196.984 176.389 197.36 175.814 197.752C175.741 197.801 175.657 197.825 175.572 197.825ZM213.683 196.333C213.61 196.333 213.537 196.315 213.468 196.276C212.868 195.932 212.246 195.602 211.624 195.295C211.409 195.188 211.323 194.929 211.427 194.715C211.533 194.5 211.792 194.414 212.007 194.518C212.647 194.834 213.282 195.173 213.898 195.523C214.106 195.64 214.177 195.906 214.059 196.112C213.978 196.256 213.834 196.333 213.683 196.333ZM179.201 195.662C179.044 195.662 178.894 195.578 178.818 195.43C178.708 195.217 178.792 194.956 179.002 194.848C179.631 194.52 180.28 194.208 180.928 193.918C181.145 193.82 181.402 193.918 181.5 194.135C181.597 194.352 181.5 194.608 181.283 194.706C180.649 194.989 180.018 195.295 179.403 195.614C179.336 195.647 179.27 195.662 179.201 195.662ZM209.893 194.46C209.837 194.46 209.78 194.449 209.724 194.425C209.087 194.155 208.431 193.9 207.776 193.667C207.55 193.588 207.433 193.34 207.513 193.116C207.592 192.89 207.84 192.773 208.064 192.853C208.735 193.092 209.406 193.351 210.059 193.628C210.278 193.721 210.382 193.975 210.289 194.194C210.22 194.36 210.061 194.46 209.893 194.46ZM183.056 193.938C182.881 193.938 182.717 193.831 182.651 193.659C182.567 193.435 182.68 193.185 182.903 193.101C183.567 192.848 184.247 192.614 184.922 192.403C185.148 192.332 185.392 192.459 185.465 192.687C185.536 192.915 185.41 193.156 185.182 193.229C184.522 193.435 183.858 193.665 183.209 193.911C183.16 193.929 183.107 193.938 183.056 193.938ZM205.907 193.045C205.867 193.045 205.828 193.039 205.786 193.028C205.121 192.835 204.442 192.66 203.762 192.505C203.529 192.452 203.383 192.222 203.436 191.987C203.49 191.754 203.722 191.606 203.955 191.661C204.65 191.819 205.347 192 206.027 192.197C206.257 192.264 206.388 192.505 206.321 192.733C206.268 192.921 206.096 193.045 205.907 193.045ZM187.088 192.676C186.893 192.676 186.718 192.545 186.669 192.348C186.612 192.115 186.753 191.881 186.984 191.823C187.675 191.65 188.379 191.498 189.076 191.367C189.311 191.323 189.537 191.478 189.581 191.712C189.625 191.947 189.47 192.173 189.235 192.217C188.556 192.346 187.869 192.494 187.194 192.662C187.159 192.671 187.123 192.676 187.088 192.676ZM201.783 192.107C201.758 192.107 201.736 192.104 201.712 192.1C201.028 191.987 200.33 191.892 199.639 191.816C199.402 191.792 199.23 191.577 199.256 191.34C199.281 191.104 199.491 190.929 199.732 190.957C200.439 191.033 201.152 191.13 201.853 191.247C202.088 191.287 202.247 191.509 202.21 191.746C202.174 191.958 201.991 192.107 201.783 192.107ZM191.244 191.898C191.029 191.898 190.843 191.739 190.816 191.52C190.785 191.283 190.954 191.066 191.19 191.037C191.895 190.949 192.612 190.878 193.32 190.831C193.555 190.809 193.765 190.995 193.781 191.234C193.796 191.473 193.617 191.679 193.378 191.695C192.687 191.741 191.988 191.81 191.299 191.896C191.279 191.898 191.261 191.898 191.244 191.898ZM197.578 191.657C197.571 191.657 197.563 191.657 197.556 191.657C196.969 191.628 196.371 191.613 195.785 191.613L195.466 191.615C195.216 191.608 195.032 191.425 195.03 191.185C195.027 190.946 195.22 190.752 195.459 190.749L195.785 190.747C196.387 190.747 196.998 190.763 197.6 190.791C197.839 190.802 198.023 191.006 198.01 191.245C197.999 191.478 197.806 191.657 197.578 191.657Z" fill="#A78BEF"/>
<path d="M216.406 198.054C216.322 198.054 216.235 198.029 216.16 197.976C215.868 197.772 215.573 197.575 215.274 197.381C215.075 197.25 215.018 196.982 215.148 196.783C215.279 196.583 215.547 196.526 215.746 196.657C216.052 196.856 216.353 197.059 216.652 197.268C216.849 197.403 216.895 197.673 216.76 197.87C216.676 197.989 216.543 198.054 216.406 198.054Z" fill="#A78BEF"/>
</g>
<g opacity="0.64">
<path d="M231.397 221.571C231.191 221.571 231.007 221.423 230.972 221.213C230.912 220.86 230.846 220.511 230.775 220.163C230.726 219.928 230.879 219.7 231.113 219.654C231.348 219.605 231.576 219.758 231.623 219.993C231.696 220.349 231.762 220.708 231.824 221.069C231.864 221.303 231.707 221.527 231.472 221.569C231.446 221.569 231.421 221.571 231.397 221.571Z" fill="#A78BEF"/>
<path d="M195.233 263.804C195.231 263.804 195.229 263.804 195.227 263.804C194.585 263.793 193.936 263.764 193.298 263.72L193.015 263.7C192.776 263.683 192.599 263.474 192.616 263.235C192.634 262.998 192.844 262.817 193.081 262.837L193.358 262.857C193.982 262.899 194.616 262.928 195.242 262.939C195.481 262.943 195.672 263.14 195.667 263.379C195.663 263.614 195.47 263.804 195.233 263.804ZM197.421 263.776C197.191 263.776 197 263.594 196.989 263.362C196.978 263.122 197.164 262.921 197.403 262.91C198.118 262.879 198.844 262.826 199.56 262.75C199.799 262.726 200.009 262.899 200.036 263.136C200.06 263.373 199.887 263.585 199.65 263.612C198.92 263.687 198.176 263.742 197.443 263.773C197.434 263.776 197.427 263.776 197.421 263.776ZM190.872 263.468C190.852 263.468 190.832 263.466 190.812 263.463C190.081 263.364 189.346 263.24 188.627 263.096C188.392 263.049 188.241 262.821 188.288 262.587C188.334 262.352 188.562 262.201 188.797 262.248C189.499 262.387 190.216 262.509 190.929 262.607C191.166 262.64 191.332 262.857 191.299 263.094C191.268 263.311 191.084 263.468 190.872 263.468ZM201.771 263.322C201.563 263.322 201.379 263.171 201.346 262.961C201.306 262.726 201.466 262.502 201.703 262.463C202.411 262.345 203.124 262.204 203.824 262.042C204.059 261.989 204.289 262.135 204.342 262.367C204.395 262.6 204.251 262.832 204.016 262.885C203.301 263.049 202.571 263.195 201.844 263.315C201.818 263.319 201.796 263.322 201.771 263.322ZM186.579 262.613C186.543 262.613 186.505 262.609 186.468 262.598C185.755 262.409 185.04 262.197 184.345 261.969C184.119 261.894 183.995 261.65 184.07 261.422C184.145 261.194 184.389 261.072 184.617 261.147C185.297 261.371 185.994 261.579 186.689 261.763C186.919 261.825 187.059 262.06 186.997 262.292C186.946 262.485 186.771 262.613 186.579 262.613ZM206.033 262.343C205.847 262.343 205.675 262.221 205.619 262.033C205.553 261.803 205.681 261.564 205.912 261.495C206.598 261.291 207.289 261.066 207.962 260.822C208.186 260.74 208.433 260.857 208.515 261.081C208.597 261.305 208.48 261.553 208.256 261.635C207.566 261.885 206.859 262.117 206.155 262.325C206.115 262.336 206.076 262.343 206.033 262.343ZM182.425 261.24C182.372 261.24 182.319 261.229 182.266 261.209C181.584 260.937 180.902 260.64 180.235 260.326C180.018 260.224 179.927 259.967 180.029 259.75C180.131 259.533 180.388 259.443 180.605 259.544C181.256 259.852 181.922 260.142 182.589 260.408C182.81 260.497 182.919 260.749 182.83 260.97C182.757 261.139 182.595 261.24 182.425 261.24ZM210.141 260.853C209.972 260.853 209.815 260.756 209.744 260.592C209.649 260.373 209.751 260.118 209.97 260.023C210.628 259.737 211.285 259.429 211.925 259.104C212.138 258.995 212.399 259.082 212.505 259.294C212.614 259.507 212.527 259.768 212.315 259.874C211.659 260.206 210.986 260.523 210.313 260.815C210.256 260.842 210.198 260.853 210.141 260.853ZM178.466 259.374C178.395 259.374 178.325 259.356 178.258 259.321C177.614 258.967 176.97 258.588 176.35 258.196C176.148 258.068 176.088 257.802 176.215 257.601C176.343 257.399 176.609 257.339 176.81 257.465C177.417 257.849 178.043 258.218 178.672 258.564C178.882 258.679 178.958 258.942 178.843 259.15C178.767 259.292 178.619 259.374 178.466 259.374ZM214.037 258.876C213.889 258.876 213.745 258.801 213.663 258.661C213.544 258.455 213.612 258.189 213.818 258.07C214.438 257.707 215.054 257.319 215.649 256.921C215.846 256.788 216.116 256.841 216.249 257.04C216.382 257.24 216.329 257.508 216.132 257.64C215.523 258.048 214.892 258.444 214.256 258.816C214.188 258.858 214.113 258.876 214.037 258.876ZM217.671 256.443C217.54 256.443 217.412 256.383 217.325 256.272C217.181 256.082 217.217 255.812 217.407 255.665C217.978 255.231 218.543 254.773 219.088 254.304C219.269 254.149 219.541 254.169 219.699 254.348C219.854 254.53 219.834 254.802 219.652 254.959C219.094 255.44 218.516 255.909 217.932 256.352C217.854 256.414 217.761 256.443 217.671 256.443ZM220.985 253.589C220.872 253.589 220.759 253.544 220.675 253.458C220.509 253.288 220.513 253.013 220.684 252.847C221.198 252.347 221.705 251.824 222.189 251.293C222.351 251.116 222.623 251.104 222.801 251.264C222.978 251.423 222.989 251.698 222.829 251.875C222.333 252.42 221.815 252.953 221.288 253.467C221.202 253.547 221.093 253.589 220.985 253.589ZM223.932 250.356C223.837 250.356 223.741 250.325 223.662 250.261C223.476 250.11 223.447 249.838 223.598 249.652C224.047 249.094 224.488 248.514 224.904 247.927C225.043 247.732 225.311 247.688 225.506 247.825C225.701 247.965 225.745 248.233 225.608 248.428C225.181 249.028 224.731 249.621 224.271 250.192C224.184 250.301 224.058 250.356 223.932 250.356ZM226.469 246.789C226.392 246.789 226.312 246.769 226.241 246.723C226.04 246.597 225.975 246.329 226.104 246.127C226.485 245.516 226.85 244.887 227.193 244.256C227.306 244.046 227.57 243.969 227.78 244.081C227.99 244.194 228.068 244.458 227.955 244.668C227.605 245.315 227.229 245.959 226.839 246.583C226.755 246.716 226.615 246.789 226.469 246.789ZM228.557 242.939C228.495 242.939 228.433 242.926 228.376 242.899C228.159 242.8 228.066 242.541 228.165 242.326C228.469 241.675 228.754 241.006 229.018 240.335C229.106 240.114 229.356 240.003 229.578 240.092C229.799 240.18 229.91 240.431 229.821 240.652C229.551 241.338 229.259 242.022 228.947 242.691C228.876 242.846 228.719 242.939 228.557 242.939ZM230.158 238.865C230.114 238.865 230.069 238.859 230.025 238.843C229.797 238.77 229.673 238.526 229.746 238.298C229.967 237.616 230.169 236.919 230.348 236.224C230.408 235.994 230.645 235.852 230.875 235.914C231.105 235.974 231.245 236.208 231.185 236.441C231.001 237.154 230.793 237.869 230.567 238.566C230.51 238.748 230.339 238.865 230.158 238.865ZM231.249 234.63C231.223 234.63 231.194 234.627 231.167 234.621C230.933 234.574 230.78 234.348 230.824 234.114C230.962 233.412 231.077 232.692 231.172 231.979C231.203 231.743 231.424 231.576 231.657 231.607C231.894 231.638 232.06 231.855 232.029 232.092C231.934 232.823 231.812 233.558 231.672 234.278C231.635 234.486 231.453 234.63 231.249 234.63ZM231.823 230.295C231.812 230.295 231.801 230.295 231.79 230.292C231.55 230.275 231.373 230.067 231.391 229.83L231.398 229.741C231.446 229.055 231.473 228.359 231.482 227.671C231.484 227.434 231.679 227.244 231.914 227.244C231.916 227.244 231.918 227.244 231.918 227.244C232.157 227.246 232.348 227.443 232.345 227.682C232.336 228.386 232.308 229.099 232.259 229.801L232.252 229.896C232.237 230.122 232.046 230.295 231.823 230.295ZM231.874 225.92C231.643 225.92 231.453 225.74 231.442 225.508C231.407 224.793 231.351 224.066 231.272 223.353C231.245 223.117 231.418 222.902 231.655 222.877C231.885 222.851 232.106 223.024 232.131 223.26C232.21 223.991 232.27 224.735 232.305 225.468C232.317 225.707 232.133 225.909 231.894 225.922C231.887 225.92 231.88 225.92 231.874 225.92Z" fill="#A78BEF"/>
<path d="M174.752 257.027C174.663 257.027 174.577 257.001 174.5 256.945C174.203 256.733 173.911 256.516 173.623 256.294C173.432 256.148 173.397 255.878 173.543 255.688C173.689 255.499 173.959 255.462 174.15 255.608C174.433 255.825 174.717 256.037 175.007 256.243C175.201 256.383 175.244 256.653 175.104 256.846C175.018 256.963 174.887 257.027 174.752 257.027Z" fill="url(#paint1_linear_2341_9810)"/>
</g>
<path d="M176.324 247.002C176.441 247.146 176.636 247.199 176.809 247.135L181.757 245.315C183.708 246.818 185.913 248.02 188.308 248.844L189.515 253.974C189.557 254.153 189.71 254.286 189.894 254.306L196.186 254.944C196.37 254.962 196.545 254.862 196.622 254.696L198.834 249.913C201.347 249.588 203.747 248.851 205.961 247.77L210.445 250.547C210.602 250.644 210.803 250.631 210.947 250.513L215.847 246.515C215.991 246.398 216.044 246.203 215.98 246.03L214.16 241.082C215.663 239.131 216.865 236.926 217.689 234.53L222.819 233.324C222.998 233.281 223.131 233.129 223.151 232.945L223.789 226.653C223.806 226.469 223.707 226.294 223.539 226.216L218.756 224.005C218.431 221.492 217.693 219.092 216.613 216.877L219.389 212.394C219.487 212.237 219.474 212.035 219.356 211.891L215.358 206.992C215.24 206.848 215.045 206.795 214.873 206.859L209.924 208.679C207.974 207.175 205.769 205.973 203.373 205.15L202.166 200.02C202.124 199.84 201.971 199.707 201.788 199.688L195.495 199.05C195.312 199.032 195.137 199.132 195.059 199.3L192.847 204.082C190.334 204.408 187.932 205.145 185.72 206.226L181.237 203.451C181.08 203.354 180.878 203.367 180.734 203.485L175.834 207.483C175.691 207.601 175.637 207.795 175.702 207.968L177.522 212.917C176.018 214.867 174.816 217.072 173.992 219.468L168.862 220.675C168.683 220.717 168.55 220.869 168.53 221.053L167.893 227.346C167.875 227.529 167.975 227.704 168.141 227.782L172.923 229.994C173.248 232.507 173.986 234.907 175.066 237.121L172.292 241.604C172.195 241.761 172.208 241.963 172.325 242.107L176.324 247.002Z" fill="#A78BEF"/>
<path d="M195.826 233.044C194.535 233.044 193.286 232.633 192.23 231.849C190.933 230.886 190.089 229.475 189.855 227.877C189.62 226.278 190.021 224.684 190.984 223.387C191.947 222.089 193.357 221.246 194.956 221.011C196.554 220.776 198.148 221.177 199.446 222.14C200.743 223.103 201.587 224.514 201.822 226.112C202.056 227.711 201.655 229.305 200.692 230.602C199.729 231.9 198.317 232.743 196.72 232.978C196.421 233.022 196.123 233.044 195.826 233.044ZM195.85 221.808C195.596 221.808 195.341 221.826 195.084 221.866C193.714 222.067 192.505 222.791 191.679 223.903C190.853 225.014 190.51 226.38 190.711 227.751C190.913 229.121 191.637 230.33 192.748 231.156C193.86 231.982 195.226 232.325 196.596 232.123C197.967 231.922 199.176 231.198 200.002 230.086C200.827 228.975 201.171 227.609 200.969 226.238C200.768 224.868 200.044 223.659 198.932 222.833C198.029 222.162 196.955 221.808 195.85 221.808Z" fill="white"/>
<path d="M195.949 242.596C195.422 242.596 194.89 242.57 194.355 242.516C194.016 242.481 193.677 242.437 193.341 242.381C192.69 242.273 192.045 242.124 191.417 241.934C191.401 241.93 191.388 241.925 191.372 241.921C191.275 241.892 191.18 241.861 191.082 241.83C190.898 241.77 190.783 241.602 190.783 241.418C190.783 241.374 190.79 241.33 190.805 241.285C190.879 241.057 191.122 240.933 191.35 241.006C192.349 241.33 193.387 241.547 194.441 241.655C194.525 241.664 194.607 241.671 194.691 241.679C194.693 241.679 194.693 241.679 194.698 241.679C197.204 241.892 199.673 241.471 201.92 240.477C201.922 240.477 201.924 240.475 201.924 240.475C201.936 240.471 201.949 240.464 201.96 240.46C203.062 239.968 204.112 239.337 205.086 238.571C205.117 238.547 205.148 238.522 205.179 238.498C205.192 238.487 205.208 238.476 205.221 238.465C205.252 238.44 205.281 238.416 205.312 238.392C208.381 235.887 210.291 232.338 210.69 228.397C210.741 227.888 210.767 227.379 210.767 226.874C210.767 223.471 209.607 220.199 207.426 217.529C204.922 214.46 201.373 212.549 197.432 212.151C189.295 211.327 182.007 217.274 181.183 225.411C181.132 225.913 181.108 226.414 181.108 226.916C181.108 229.086 181.584 231.234 182.507 233.2C182.536 233.259 182.549 233.321 182.547 233.383C182.547 233.545 182.456 233.702 182.299 233.775C182.082 233.877 181.825 233.784 181.723 233.567C180.745 231.486 180.242 229.214 180.242 226.916C180.242 226.385 180.269 225.853 180.322 225.324C180.745 221.153 182.766 217.398 186.014 214.745C189.262 212.095 193.349 210.869 197.518 211.292C201.69 211.714 205.445 213.736 208.097 216.984C210.404 219.811 211.633 223.274 211.633 226.874C211.633 227.41 211.607 227.948 211.551 228.488C210.734 236.556 203.897 242.596 195.949 242.596Z" fill="white"/>
<path d="M201.901 136.908L199.456 139.319C195.987 138.985 193.31 137.906 191.258 136.536C192.493 133.461 193.749 131.638 194.736 130.569C197.966 135.112 201.901 136.908 201.901 136.908Z" fill="url(#paint2_linear_2341_9810)"/>
<path d="M184.883 127.886L190.653 118.865C191.031 123.953 192.749 127.779 194.733 130.569C193.746 131.638 192.49 133.461 191.255 136.536C186.129 133.117 184.883 127.886 184.883 127.886Z" fill="#A78BEF"/>
<path d="M178.746 199.183C181.622 199.316 184.407 199.232 186.267 199.136C184.573 197.932 180.674 195.31 177.411 194.268L175.17 194.135C175.17 194.135 174.411 195.288 174.141 197.932C174.513 198.392 175.597 199.037 178.746 199.183Z" fill="#A78BEF"/>
<path d="M186.289 199.152C186.282 199.147 186.273 199.141 186.267 199.136C184.407 199.232 181.624 199.316 178.746 199.183C175.597 199.039 174.512 198.392 174.14 197.93C174.127 198.051 174.116 198.173 174.105 198.299C174.059 198.88 174.488 199.389 175.068 199.431C177.424 199.608 183.265 200.013 186.081 199.865C186.455 199.847 186.592 199.369 186.289 199.152Z" fill="#A78BEF"/>
<path d="M158.177 198.412C157.966 197.062 157.627 195.109 157.366 194.611C156.957 193.827 155.555 194.611 155.555 194.611C155.555 194.611 154.572 195.069 154.118 195.835C153.83 196.322 153.031 197.71 152.491 198.651C152.429 198.76 152.402 198.875 152.407 198.986L158.019 199.183C158.157 198.961 158.221 198.694 158.177 198.412Z" fill="#A78BEF"/>
<path d="M152.406 198.986C152.415 199.307 152.67 199.597 153.028 199.608L157.027 199.718C157.45 199.73 157.815 199.51 158.019 199.183L152.406 198.986Z" fill="#A78BEF"/>
<path d="M158.598 190.123C158.55 190.284 157.826 193.8 157.507 195.344C157.418 195.771 157.035 196.07 156.599 196.048C156.362 196.037 156.085 196.014 155.795 195.977C155.282 195.91 154.89 195.481 154.87 194.963C154.819 193.612 154.792 191.015 155.291 190.01C155.977 188.624 158.598 190.123 158.598 190.123Z" fill="url(#paint3_linear_2341_9810)"/>
<path d="M174.734 191.128C175.047 191.119 174.61 192.733 175.082 194.323C175.188 194.681 175.456 194.963 175.83 194.967C176.072 194.969 176.359 194.965 176.652 194.943C177.09 194.907 177.442 194.569 177.482 194.13L177.865 190.01L174.734 191.128Z" fill="url(#paint4_linear_2341_9810)"/>
<path d="M183.435 147.338C183.295 148.014 178.396 176.597 178.099 191.387C178.094 191.635 177.911 191.843 177.665 191.876C177.043 191.963 175.832 192.076 174.656 191.856C174.494 191.826 174.375 191.695 174.364 191.531C174.193 188.775 172.816 165.472 174.501 154.501C174.501 154.501 160.568 183.826 158.456 191.912C158.405 192.109 158.223 192.242 158.02 192.231C157.422 192.2 156.182 192.091 155.197 191.728C154.845 191.597 154.643 191.228 154.732 190.862C155.912 186.022 164.181 152.683 169.796 145.337L183.435 147.338Z" fill="black"/>
<path d="M174.504 154.685C174.457 154.685 174.411 154.667 174.375 154.632C174.302 154.561 174.302 154.446 174.373 154.373L176.24 152.464C176.31 152.391 176.426 152.391 176.499 152.462C176.572 152.533 176.572 152.648 176.501 152.721L174.634 154.629C174.599 154.667 174.55 154.685 174.504 154.685Z" fill="url(#paint5_linear_2341_9810)"/>
<path d="M191.397 111.553C187.819 110.616 181.217 109.146 175.961 109.46C174.754 109.533 173.787 110.488 173.718 111.694C172.923 125.692 171.838 138.112 169.797 145.339C174.389 147.157 178.941 148 183.433 147.338C186.799 140.132 189.739 131.811 192.254 122.362C192.254 122.362 193.729 114.825 192.296 112.314C192.073 111.922 191.778 111.652 191.397 111.553Z" fill="#A78BEF"/>
<path d="M182.789 101.749C182.789 101.749 181.885 107.14 181.615 109.633C181.571 110.038 181.783 110.421 182.147 110.607C183.134 111.116 185.242 111.936 187.54 111.183C187.919 111.059 188.167 110.694 188.158 110.295L188.001 103.097L182.789 101.749Z" fill="url(#paint6_linear_2341_9810)"/>
<path d="M188.681 95.7751C188.681 95.7751 190.426 99.7804 190.541 101.884C190.658 103.987 191.112 105.351 188.681 105.774C186.25 106.197 184.202 104.986 183.093 102.891C183.093 102.891 181.355 99.663 181.744 98.3435C182.136 97.0194 188.681 95.7751 188.681 95.7751Z" fill="url(#paint7_linear_2341_9810)"/>
<path d="M183.928 101.385H184.235C184.235 101.385 182.969 98.7884 184.083 98.3323C185.196 97.8762 189.602 96.9773 190.554 95.4141C191.471 93.9064 190.654 91.9602 189.43 91.4133C189.352 91.3779 189.261 91.4156 189.221 91.4908L189.12 91.6835C189.051 91.8141 188.856 91.7942 188.814 91.6525C188.774 91.5174 188.593 91.4886 188.517 91.6082C188.225 92.0753 187.439 92.837 185.325 93.2267C182.325 93.7802 180.343 94.9935 180.294 97.068C180.292 97.1987 180.15 97.2717 180.038 97.2031C179.816 97.068 179.462 97.0038 178.988 97.4024C178.164 98.0954 178.501 99.891 180.308 101.37C180.394 101.441 180.392 101.574 180.301 101.636C179.973 101.848 179.486 102.355 180.75 103.031C182.043 103.721 182.81 103.646 183.097 103.573C183.175 103.553 183.228 103.482 183.224 103.402L183.111 101.565C183.104 101.47 183.179 101.39 183.274 101.39H183.928V101.385Z" fill="black"/>
<path d="M184.004 101.768C184.004 101.768 183.337 99.209 182.191 99.9264C181.044 100.644 182.786 102.794 183.707 102.889L184.004 101.768Z" fill="url(#paint8_linear_2341_9810)"/>
<path d="M146.776 143.399L144.42 143.995C140.379 145.016 137.66 148.053 138.349 150.779L139.168 154.018C139.857 156.744 143.691 158.123 147.732 157.102L150.088 156.507C150.243 156.467 150.4 156.425 150.553 156.378L219.607 135.717L217.822 128.658L147.243 143.291C147.088 143.324 146.933 143.36 146.776 143.399ZM147.79 146.632C150.832 145.864 153.668 146.705 154.126 148.512C154.584 150.318 152.488 152.408 149.446 153.177C146.404 153.945 143.567 153.104 143.109 151.295C142.651 149.49 144.747 147.402 147.79 146.632Z" fill="#7D97F4"/>
<path d="M240.788 119.069L227.122 122.523C226.148 122.769 225.347 123.453 224.946 124.374L222.903 129.095C222.318 130.443 222.717 132.013 223.87 132.92L227.913 136.102C228.701 136.722 229.733 136.941 230.707 136.695L244.372 133.241C246.434 132.721 248.185 134.871 247.211 136.762C244.881 141.283 240.611 144.861 235.175 146.234C225.349 148.718 216.652 142.764 214.261 133.312C211.87 123.86 216.694 114.488 226.522 112.004C231.96 110.629 237.418 111.747 241.614 114.619C243.367 115.823 242.849 118.549 240.788 119.069Z" fill="#7D97F4"/>
<path d="M241.108 120.358L227.443 123.812C226.471 124.058 225.667 124.742 225.266 125.663L223.223 130.383C222.638 131.731 223.037 133.301 224.19 134.209L228.233 137.391C229.021 138.011 230.053 138.232 231.027 137.984L244.693 134.53C246.754 134.01 248.505 136.16 247.531 138.05C245.202 142.571 240.931 146.149 235.495 147.522C225.669 150.006 216.973 144.053 214.581 134.601C212.19 125.149 217.015 115.777 226.843 113.293C232.281 111.918 237.738 113.036 241.934 115.908C243.687 117.112 243.169 119.835 241.108 120.358Z" fill="#BDD0FB"/>
<path d="M147.041 144.427L144.685 145.022C140.645 146.043 137.926 149.081 138.614 151.806L139.434 155.045C140.122 157.771 143.957 159.15 147.998 158.13L150.353 157.534C150.508 157.494 150.666 157.452 150.818 157.406L219.873 136.744L218.088 129.686L147.511 144.318C147.353 144.351 147.196 144.387 147.041 144.427ZM148.055 147.659C151.097 146.891 153.933 147.732 154.392 149.539C154.85 151.346 152.753 153.436 149.709 154.204C146.667 154.972 143.831 154.131 143.372 152.322C142.916 150.518 145.011 148.428 148.055 147.659Z" fill="#BDD0FB"/>
<path d="M164.455 130.195C162.686 135.161 163.683 140.484 163.683 140.484L161.349 141.106C161.349 141.106 158.336 137.521 159.024 129.566C161.176 129.238 163.193 129.743 164.455 130.195Z" fill="url(#paint9_linear_2341_9810)"/>
<path d="M159.023 129.566C159.101 128.672 159.223 127.724 159.404 126.719C160.981 117.947 172.228 111.198 174.874 109.719C175.12 109.582 175.419 109.768 175.41 110.049L175.033 121.974C168.77 122.815 165.805 126.4 164.452 130.193C163.193 129.743 161.176 129.238 159.023 129.566Z" fill="#A78BEF"/>
<path d="M206.82 141.283C207.256 141.163 207.613 140.851 207.797 140.437C208.155 139.636 208.558 138.349 207.697 137.957C206.415 137.375 204.082 139.766 204.082 139.766L202.941 141.613L201.898 142.12C202.855 142.381 204.697 141.945 206.82 141.283Z" fill="url(#paint10_linear_2341_9810)"/>
<path d="M163.531 139.317H166.416C166.416 139.317 164.075 140.721 163.998 142.195C163.92 143.67 164.928 146.727 165.397 147.56C165.913 148.47 158.866 146.205 161.354 139.317H163.531Z" fill="url(#paint11_linear_2341_9810)"/>
<path d="M418.953 284.222C418.953 284.222 429.326 306.83 434.768 316.196C434.768 316.196 435.849 322.087 434.768 323.94L433.847 324.35L438.147 324.222C438.147 324.222 438.528 316.295 438.231 315.853C437.932 315.41 437.336 315.439 437.336 315.439C437.336 315.439 435.492 300.835 430.154 297.717L424.98 279.896L418.953 284.222Z" fill="url(#paint12_linear_2341_9810)"/>
<path d="M432.008 325.459C432.001 325.563 435.364 325.515 437.193 325.482C437.868 325.468 438.442 324.994 438.586 324.335L439.965 317.086C440.096 316.397 439.66 315.729 438.975 315.571L438.205 315.394C438.205 315.394 437.107 316.902 437.452 318.321C437.798 319.74 438.105 323.416 437.233 323.843C436.358 324.273 433.846 324.346 433.846 324.346C433.846 324.346 432.065 324.525 432.008 325.459Z" fill="#A78BEF"/>
<path d="M409.122 325.59C408.781 325.785 408.923 326.303 409.315 326.298C412.372 326.267 419.225 326.17 419.834 325.918C420.62 325.59 419.548 322.767 418.419 321.811L412.186 323.845L409.122 325.59Z" fill="#A78BEF"/>
<path d="M407.188 282.781C407.188 282.781 413.892 315.208 415.787 321.534L411.301 324.348C411.301 324.348 413.548 323.965 415.216 323.845C416.883 323.724 418.415 321.811 418.415 321.811L417.877 320.954C417.877 320.954 416.197 288.702 416.606 285.04L407.188 282.781Z" fill="url(#paint13_linear_2341_9810)"/>
<path d="M404.446 231.366C407.015 232.079 415.72 234.369 421.154 234.276L417.817 253.104L418.083 256.175L407.205 256.126C407.205 256.126 404.143 249.015 401.728 245.468C401.03 244.445 401.548 243.223 401.945 242.047L401.402 241.684C400.849 241.316 400.609 240.623 400.815 239.992L403.463 231.887C403.601 231.481 404.032 231.251 404.446 231.366Z" fill="#A78BEF"/>
<path d="M406.336 254.519L406.55 256.379C406.55 256.379 403.477 265.585 408.087 287.088C408.087 287.088 418.075 289.917 426.282 283.147C426.282 283.147 423.966 262.85 423.335 261.905C420.185 257.196 418.088 256.173 418.088 256.173L417.993 254.14C417.99 254.142 409.212 255.73 406.336 254.519Z" fill="black"/>
<path d="M410.594 232.885C410.557 232.834 412.866 225.913 412.866 225.913L416.174 226.212L417.467 234.063C417.464 234.065 412.281 235.11 410.594 232.885Z" fill="url(#paint14_linear_2341_9810)"/>
<path d="M415.374 214.998C415.153 215.135 408.307 217.965 409.777 225.074C409.863 225.495 410.145 225.851 410.536 226.026C411.542 226.476 413.705 227.242 416.293 226.978C419.88 226.613 422.231 220.354 422.131 218.532C422.03 216.709 417.559 213.636 415.374 214.998Z" fill="url(#paint15_linear_2341_9810)"/>
<path d="M403.882 235.309C404.238 234.382 403.581 233.385 402.589 233.339C400.065 233.222 395.679 232.427 391.964 228.711C389.555 226.303 388.917 217.539 388.917 217.539C388.917 217.539 388.41 213.477 387.394 213.477C386.378 213.477 387.394 216.016 387.394 216.016C387.394 216.016 384.854 217.539 382.315 215.509C379.775 213.479 382.822 218.556 385.361 219.572C385.361 219.572 384.385 239.58 401.09 239.892C401.701 239.904 402.259 239.529 402.478 238.96L403.882 235.309Z" fill="url(#paint16_linear_2341_9810)"/>
<path d="M413.054 229.352C413.054 228.014 413.335 226.741 413.838 225.59C414.407 224.292 414.29 222.776 413.38 221.689C411.892 219.909 411.352 217.652 412.173 215.675C413.453 212.591 417.558 211.362 421.341 212.932C424.023 214.046 425.82 216.264 426.183 218.562C426.392 219.882 427.1 221.06 428.161 221.87C429.666 223.019 430.815 224.616 431.409 226.46C431.812 227.706 432.62 228.778 433.756 229.427C436.324 230.893 438.465 233.153 439.76 236.058C443.013 243.34 439.727 251.886 432.42 255.15C425.114 258.413 416.557 255.154 413.307 247.874C411.5 243.829 411.712 239.395 413.512 235.69C413.964 234.76 414.057 233.691 413.685 232.728C413.28 231.679 413.054 230.543 413.054 229.352Z" fill="black"/>
<path d="M269.523 281.803C267.079 272.628 261.872 265.156 255.5 260.599C249.805 256.525 245.848 250.426 244.602 243.542C244.471 242.818 244.307 242.092 244.115 241.363C241.177 230.329 232.033 223.184 223.695 225.405C215.354 227.625 210.975 238.37 213.915 249.405C214.515 251.661 215.376 253.753 216.437 255.638C219.82 261.649 220.923 268.712 219.26 275.409C217.774 281.394 217.781 288.215 219.614 295.094C222.346 305.352 228.535 313.484 235.943 317.791C238.744 319.42 241.239 321.546 243.269 324.067C246.643 328.259 251.576 330.393 256.259 329.146C261.309 327.803 264.657 322.896 265.157 317.007C265.441 313.672 266.377 310.44 267.796 307.409C271.146 300.251 271.994 291.078 269.523 281.803Z" fill="#39B039"/>
<path d="M229.813 236.368C232.844 243.371 235.65 250.465 238.377 257.587C239.061 259.368 239.715 261.159 240.374 262.948L241.364 265.631L242.332 268.323C242.969 270.121 243.634 271.91 244.251 273.715L246.104 279.128C247.293 282.752 248.516 286.368 249.636 290.015C250.2 291.837 250.798 293.648 251.325 295.481L252.93 300.974C254.996 308.32 256.878 315.722 258.381 323.203L258.06 323.272L256.723 317.717L256.391 316.329L256.026 314.947L255.288 312.188L254.555 309.427C254.314 308.506 254.037 307.594 253.778 306.678C253.251 304.849 252.738 303.013 252.197 301.189C249.992 293.898 247.687 286.636 245.236 279.423C243.983 275.825 242.759 272.218 241.481 268.629L240.529 265.934L239.555 263.249C238.906 261.458 238.258 259.666 237.591 257.882C236.289 254.302 234.961 250.731 233.602 247.168C232.262 243.601 230.889 240.045 229.508 236.494L229.813 236.368Z" fill="white"/>
<path d="M241.279 293.068C236.539 288.062 230.627 285.095 224.988 284.391C219.947 283.762 215.31 281.238 212.127 277.279C211.792 276.863 211.436 276.456 211.059 276.057C205.358 270.035 197.055 268.64 192.514 272.937C187.973 277.235 188.917 285.602 194.618 291.624C195.785 292.855 197.058 293.894 198.386 294.728C202.628 297.392 205.781 301.517 207.048 306.361C208.179 310.692 210.552 315.04 214.106 318.793C219.406 324.392 226.173 327.439 232.383 327.625C234.732 327.696 237.059 328.189 239.229 329.095C242.833 330.6 246.715 330.257 249.263 327.844C252.013 325.24 252.44 320.956 250.715 317.026C249.739 314.803 249.212 312.416 249.064 309.992C248.716 304.273 246.073 298.129 241.279 293.068Z" fill="#29A429"/>
<path d="M200.17 277.839C204.531 281.258 208.78 284.811 212.991 288.411C214.045 289.31 215.083 290.227 216.124 291.139L217.687 292.51L219.237 293.891C220.267 294.817 221.309 295.729 222.33 296.666L225.39 299.477C227.405 301.377 229.437 303.261 231.419 305.198C232.411 306.166 233.42 307.114 234.392 308.101L237.321 311.05C241.187 315.02 244.956 319.089 248.511 323.343L248.33 323.498L245.549 320.418L244.856 319.647L244.143 318.892L242.715 317.387L241.291 315.879C240.817 315.377 240.324 314.889 239.843 314.396C238.871 313.41 237.908 312.419 236.93 311.442C232.993 307.554 229.005 303.72 224.94 299.967C222.892 298.105 220.862 296.227 218.801 294.381L217.26 292.99L215.708 291.613C214.674 290.694 213.638 289.778 212.595 288.87C210.522 287.037 208.437 285.219 206.336 283.417C204.243 281.603 202.136 279.81 200.023 278.025L200.17 277.839Z" fill="white"/>
<defs>
<linearGradient id="paint0_linear_2341_9810" x1="160.453" y1="236.924" x2="161.606" y2="236.924" gradientUnits="userSpaceOnUse">
<stop stop-color="#FE7062"/>
<stop offset="1" stop-color="#FF928E"/>
</linearGradient>
<linearGradient id="paint1_linear_2341_9810" x1="173.452" y1="256.272" x2="175.185" y2="256.272" gradientUnits="userSpaceOnUse">
<stop stop-color="#FE7062"/>
<stop offset="1" stop-color="#FF928E"/>
</linearGradient>
<linearGradient id="paint2_linear_2341_9810" x1="198.665" y1="131.196" x2="186.222" y2="164.169" gradientUnits="userSpaceOnUse">
<stop stop-color="#FF928E"/>
<stop offset="1" stop-color="#FEB3B1"/>
</linearGradient>
<linearGradient id="paint3_linear_2341_9810" x1="154.846" y1="192.735" x2="158.599" y2="192.735" gradientUnits="userSpaceOnUse">
<stop stop-color="#FF928E"/>
<stop offset="1" stop-color="#FEB3B1"/>
</linearGradient>
<linearGradient id="paint4_linear_2341_9810" x1="174.735" y1="192.489" x2="177.863" y2="192.489" gradientUnits="userSpaceOnUse">
<stop stop-color="#FF928E"/>
<stop offset="1" stop-color="#FEB3B1"/>
</linearGradient>
<linearGradient id="paint5_linear_2341_9810" x1="182.513" y1="144.399" x2="169.711" y2="160.951" gradientUnits="userSpaceOnUse">
<stop stop-color="#09005D"/>
<stop offset="1" stop-color="#1A0F91"/>
</linearGradient>
<linearGradient id="paint6_linear_2341_9810" x1="185.31" y1="99.8031" x2="184.536" y2="118.401" gradientUnits="userSpaceOnUse">
<stop stop-color="#FF928E"/>
<stop offset="1" stop-color="#FEB3B1"/>
</linearGradient>
<linearGradient id="paint7_linear_2341_9810" x1="17.7122" y1="-367.279" x2="23.1367" y2="-352.223" gradientUnits="userSpaceOnUse">
<stop stop-color="#FF928E"/>
<stop offset="1" stop-color="#FEB3B1"/>
</linearGradient>
<linearGradient id="paint8_linear_2341_9810" x1="14.5048" y1="-366.121" x2="19.9293" y2="-351.066" gradientUnits="userSpaceOnUse">
<stop stop-color="#FF928E"/>
<stop offset="1" stop-color="#FEB3B1"/>
</linearGradient>
<linearGradient id="paint9_linear_2341_9810" x1="455.252" y1="547.945" x2="446.617" y2="535.768" gradientUnits="userSpaceOnUse">
<stop stop-color="#FF928E"/>
<stop offset="1" stop-color="#FEB3B1"/>
</linearGradient>
<linearGradient id="paint10_linear_2341_9810" x1="207.414" y1="134.499" x2="194.971" y2="167.472" gradientUnits="userSpaceOnUse">
<stop stop-color="#FF928E"/>
<stop offset="1" stop-color="#FEB3B1"/>
</linearGradient>
<linearGradient id="paint11_linear_2341_9810" x1="452.897" y1="549.619" x2="444.262" y2="537.442" gradientUnits="userSpaceOnUse">
<stop stop-color="#FF928E"/>
<stop offset="1" stop-color="#FEB3B1"/>
</linearGradient>
<linearGradient id="paint12_linear_2341_9810" x1="481.205" y1="221.187" x2="463.934" y2="248.422" gradientUnits="userSpaceOnUse">
<stop stop-color="#FF928E"/>
<stop offset="1" stop-color="#FEB3B1"/>
</linearGradient>
<linearGradient id="paint13_linear_2341_9810" x1="450.769" y1="215.733" x2="434.161" y2="253.598" gradientUnits="userSpaceOnUse">
<stop stop-color="#FF928E"/>
<stop offset="1" stop-color="#FEB3B1"/>
</linearGradient>
<linearGradient id="paint14_linear_2341_9810" x1="410.593" y1="230.111" x2="417.465" y2="230.111" gradientUnits="userSpaceOnUse">
<stop stop-color="#FF928E"/>
<stop offset="1" stop-color="#FEB3B1"/>
</linearGradient>
<linearGradient id="paint15_linear_2341_9810" x1="425.509" y1="196.149" x2="421.672" y2="205.89" gradientUnits="userSpaceOnUse">
<stop stop-color="#FF928E"/>
<stop offset="1" stop-color="#FEB3B1"/>
</linearGradient>
<linearGradient id="paint16_linear_2341_9810" x1="396.21" y1="192.713" x2="395.029" y2="203.488" gradientUnits="userSpaceOnUse">
<stop stop-color="#FF928E"/>
<stop offset="1" stop-color="#FEB3B1"/>
</linearGradient>
</defs>
</svg>
