<svg width="543" height="329" viewBox="0 0 543 329" fill="none" xmlns="http://www.w3.org/2000/svg">
<g clip-path="url(#clip0_2341_11270)">
<path opacity="0.2" d="M127.492 328.58L412.142 311.93C487.412 307.53 545.652 243.73 542.512 168.39C539.872 105.08 517.192 37.64 440.912 8.81999C387.262 -11.45 317.592 5.13999 273.402 38.85C262.782 46.95 253.022 56.24 241.612 63.17C215.022 79.32 191.672 68.17 163.972 63.88C105.412 54.79 46.9621 73.46 16.7021 127.43C-29.7579 210.35 25.0421 334.57 127.492 328.58Z" fill="#999999"/>
<path d="M435.715 307.511H406.062V307.732H435.715V307.511Z" fill="#ECECEC"/>
<path d="M329.474 309.934H321.695V310.155H329.474V309.934Z" fill="#ECECEC"/>
<path d="M405.174 299.194H387.992V299.415H405.174V299.194Z" fill="#ECECEC"/>
<path d="M118.622 300.703H79.9609V300.925H118.622V300.703Z" fill="#ECECEC"/>
<path d="M132.266 300.703H126.594V300.925H132.266V300.703Z" fill="#ECECEC"/>
<path d="M234.538 304.482H150.688V304.703H234.538V304.482Z" fill="#ECECEC"/>
<path d="M246.387 253.177H73.5508C70.7336 253.177 68.4453 250.889 68.4453 248.072V5.10547C68.4453 2.28833 70.7336 0 73.5508 0H246.396C249.214 0 251.502 2.28833 251.502 5.10547V248.072C251.502 250.889 249.204 253.177 246.387 253.177ZM73.5508 0.221141C70.8586 0.221141 68.6665 2.41332 68.6665 5.10547V248.072C68.6665 250.764 70.8586 252.956 73.5508 252.956H246.396C249.089 252.956 251.281 250.764 251.281 248.072V5.10547C251.281 2.41332 249.089 0.221141 246.396 0.221141H73.5508Z" fill="#ECECEC"/>
<path d="M439.998 253.177H267.152C264.335 253.177 262.047 250.889 262.047 248.072V5.10547C262.047 2.28833 264.335 0 267.152 0H439.998C442.815 0 445.103 2.28833 445.103 5.10547V248.072C445.103 250.889 442.815 253.177 439.998 253.177ZM267.152 0.221141C264.46 0.221141 262.268 2.41332 262.268 5.10547V248.072C262.268 250.764 264.46 252.956 267.152 252.956H439.998C442.69 252.956 444.882 250.764 444.882 248.072V5.10547C444.882 2.41332 442.69 0.221141 439.998 0.221141H267.152Z" fill="#ECECEC"/>
<path d="M480.56 293.098H33V293.319H480.56V293.098Z" fill="#ECECEC"/>
<path d="M430.572 22.7292H276.148V192.729H430.572V22.7292Z" fill="#E9E9E9"/>
<path d="M427.893 25.4792H279.133V189.72H427.893V25.4792Z" fill="#F8F8F8"/>
<path d="M336.899 118.627H317.891V190.162H336.899V118.627Z" fill="#F0F0F0"/>
<path d="M319.263 113.128H302.148V190.152H319.263V113.128Z" fill="#F0F0F0"/>
<path d="M305.153 150.376H288.039V190.162H305.153V150.376Z" fill="#ECECEC"/>
<path d="M353.032 140.405H334.023V190.152H353.032V140.405Z" fill="#F0F0F0"/>
<path d="M306.898 120.685H305.148V122.454H306.898V120.685Z" fill="white"/>
<path d="M316.25 120.685H314.5V122.454H316.25V120.685Z" fill="white"/>
<path d="M306.898 126.416H305.148V128.185H306.898V126.416Z" fill="white"/>
<path d="M311.57 126.416H309.82V128.185H311.57V126.416Z" fill="white"/>
<path d="M316.25 132.136H314.5V133.906H316.25V132.136Z" fill="white"/>
<path d="M306.898 137.857H305.148V139.627H306.898V137.857Z" fill="white"/>
<path d="M311.57 137.857H309.82V139.627H311.57V137.857Z" fill="white"/>
<path d="M311.57 143.578H309.82V145.347H311.57V143.578Z" fill="white"/>
<path d="M316.25 143.578H314.5V145.347H316.25V143.578Z" fill="white"/>
<path d="M311.57 149.299H309.82V151.068H311.57V149.299Z" fill="white"/>
<path d="M316.25 149.299H314.5V151.068H316.25V149.299Z" fill="white"/>
<path d="M316.25 155.02H314.5V156.789H316.25V155.02Z" fill="white"/>
<path d="M311.57 160.75H309.82V162.519H311.57V160.75Z" fill="white"/>
<path d="M347.328 145.346H349.078V143.577H347.328V145.346Z" fill="white"/>
<path d="M337.984 145.346H339.734V143.577H337.984V145.346Z" fill="white"/>
<path d="M347.328 151.071H349.078V149.302H347.328V151.071Z" fill="white"/>
<path d="M342.656 151.071H344.406V149.302H342.656V151.071Z" fill="white"/>
<path d="M337.984 156.795H339.734V155.026H337.984V156.795Z" fill="white"/>
<path d="M347.328 162.51H349.078V160.74H347.328V162.51Z" fill="white"/>
<path d="M342.656 162.51H344.406V160.74H342.656V162.51Z" fill="white"/>
<path d="M342.656 168.234H344.406V166.465H342.656V168.234Z" fill="white"/>
<path d="M337.984 168.234H339.734V166.465H337.984V168.234Z" fill="white"/>
<path d="M342.656 173.958H344.406V172.189H342.656V173.958Z" fill="white"/>
<path d="M337.984 173.958H339.734V172.189H337.984V173.958Z" fill="white"/>
<path d="M337.984 179.682H339.734V177.913H337.984V179.682Z" fill="white"/>
<path d="M342.656 185.406H344.406V183.637H342.656V185.406Z" fill="white"/>
<path d="M375.357 191.398H394V102.875H375.357V191.398Z" fill="#F0F0F0"/>
<path d="M392.666 191.393H409.453V96.0617H392.666V191.393Z" fill="#F5F5F5"/>
<path d="M406.509 191.394H423.297V142.156H406.509V191.394Z" fill="#ECECEC"/>
<path d="M359.529 191.399H378.172V129.835H359.529V191.399Z" fill="#F5F5F5"/>
<path d="M404.779 107.612H406.5V105.429H404.779V107.612Z" fill="white"/>
<path d="M395.607 107.612H397.328V105.429H395.607V107.612Z" fill="white"/>
<path d="M404.779 114.69H406.5V112.507H404.779V114.69Z" fill="white"/>
<path d="M400.193 114.69H401.914V112.507H400.193V114.69Z" fill="white"/>
<path d="M395.607 121.777H397.328V119.595H395.607V121.777Z" fill="white"/>
<path d="M404.779 128.855H406.5V126.673H404.779V128.855Z" fill="white"/>
<path d="M400.193 128.855H401.914V126.673H400.193V128.855Z" fill="white"/>
<path d="M400.193 135.943H401.914V133.76H400.193V135.943Z" fill="white"/>
<path d="M395.607 135.943H397.328V133.76H395.607V135.943Z" fill="white"/>
<path d="M400.193 143.021H401.914V140.838H400.193V143.021Z" fill="white"/>
<path d="M395.607 143.021H397.328V140.838H395.607V143.021Z" fill="white"/>
<path d="M395.607 150.109H397.328V147.926H395.607V150.109Z" fill="white"/>
<path d="M400.193 157.187H401.914V155.004H400.193V157.187Z" fill="white"/>
<path d="M365.127 133.752H363.406V135.934H365.127V133.752Z" fill="white"/>
<path d="M374.291 133.752H372.57V135.934H374.291V133.752Z" fill="white"/>
<path d="M365.127 140.838H363.406V143.02H365.127V140.838Z" fill="white"/>
<path d="M369.713 140.838H367.992V143.02H369.713V140.838Z" fill="white"/>
<path d="M374.291 147.914H372.57V150.097H374.291V147.914Z" fill="white"/>
<path d="M365.127 155H363.406V157.183H365.127V155Z" fill="white"/>
<path d="M369.713 155H367.992V157.183H369.713V155Z" fill="white"/>
<path d="M369.713 162.086H367.992V164.269H369.713V162.086Z" fill="white"/>
<path d="M374.291 162.086H372.57V164.269H374.291V162.086Z" fill="white"/>
<path d="M369.713 169.163H367.992V171.346H369.713V169.163Z" fill="white"/>
<path d="M374.291 169.163H372.57V171.346H374.291V169.163Z" fill="white"/>
<path d="M374.291 176.249H372.57V178.432H374.291V176.249Z" fill="white"/>
<path d="M369.713 183.326H367.992V185.508H369.713V183.326Z" fill="white"/>
<path d="M326.479 60.9C326.479 60.9 279.338 67.5919 284.222 53.2755C289.106 38.959 299.048 53.2755 299.048 53.2755C299.048 53.2755 304.163 44.2856 309.74 46.9105C315.316 49.5449 315.893 55.41 315.893 55.41C315.893 55.41 317.547 50.6025 322.018 55.7465C326.479 60.9 326.047 54.6119 326.479 60.9Z" fill="#F0F0F0"/>
<path d="M366.123 77.2355C366.123 77.2355 328.087 82.639 332.02 71.082C335.952 59.525 343.98 71.082 343.98 71.082C343.98 71.082 348.105 63.8228 352.605 65.9477C357.105 68.0726 357.566 72.8127 357.566 72.8127C357.566 72.8127 358.903 68.9379 362.508 73.0915C366.123 77.2355 365.768 72.1685 366.123 77.2355Z" fill="#F0F0F0"/>
<path d="M414.916 59.3618C414.916 59.3618 368.091 66.0153 372.947 51.7853C377.793 37.565 387.667 51.7853 387.667 51.7853C387.667 51.7853 392.744 42.8532 398.292 45.4684C403.83 48.0836 404.397 53.9198 404.397 53.9198C404.397 53.9198 406.041 49.1413 410.483 54.2563C414.916 59.3618 414.483 53.1218 414.916 59.3618Z" fill="#F0F0F0"/>
<path d="M329.092 23.1138H326.477V192.729H329.092V23.1138Z" fill="#E9E9E9"/>
<path d="M378.248 23.1138H375.633V192.729H378.248V23.1138Z" fill="#E9E9E9"/>
<path d="M129.785 124.214H91.5469V293.29H129.785V124.214Z" fill="#E7E7E7"/>
<path d="M226.415 124.214H118.508V293.29H226.415V124.214Z" fill="#F5F5F5"/>
<path d="M221.28 129.502H175.648V288.002H221.28V129.502Z" fill="#ECECEC"/>
<path d="M170.327 129.502H124.695V288.002H170.327V129.502Z" fill="#ECECEC"/>
<path d="M175.643 188.845H215.766V180.586H175.643V188.845Z" fill="#F5F5F5"/>
<path d="M124.69 188.845H164.812V180.586H124.69V188.845Z" fill="#F5F5F5"/>
<path d="M175.643 238.17H215.766V229.911H175.643V238.17Z" fill="#F5F5F5"/>
<path d="M124.69 238.17H164.812V229.911H124.69V238.17Z" fill="#F5F5F5"/>
<path d="M201.424 288.011H205.789V242.783H201.424V288.011Z" fill="#FAFAFA"/>
<path d="M197.057 288.009H201.422V246.684H197.057V288.009Z" fill="#E1E1E1"/>
<path d="M205.791 288.009H210.156V246.684H205.791V288.009Z" fill="#E1E1E1"/>
<path d="M180.504 288.009H183.898V246.684H180.504V288.009Z" fill="#E1E1E1"/>
<path d="M175.635 288.01H180.5V243.503H175.635V288.01Z" fill="#F0F0F0"/>
<path d="M190.476 288.009H197.062V246.684H190.476V288.009Z" fill="#F5F5F5"/>
<path d="M183.89 288.004H190.477V244.093H183.89V288.004Z" fill="#E7E7E7"/>
<path d="M150.471 288.011H154.836V242.783H150.471V288.011Z" fill="#E1E1E1"/>
<path d="M146.104 288.009H150.469V246.684H146.104V288.009Z" fill="#E1E1E1"/>
<path d="M154.846 288.009H159.211V246.684H154.846V288.009Z" fill="#FAFAFA"/>
<path d="M129.551 288.009H132.945V246.684H129.551V288.009Z" fill="#E1E1E1"/>
<path d="M124.69 288.01H129.555V243.503H124.69V288.01Z" fill="#F0F0F0"/>
<path d="M139.531 288.009H146.117V246.684H139.531V288.009Z" fill="#F5F5F5"/>
<path d="M132.945 288.004H139.531V244.093H132.945V288.004Z" fill="#E7E7E7"/>
<path d="M180.014 192.431H175.648V230.159H180.014V192.431Z" fill="#FAFAFA"/>
<path d="M184.365 195.7H180V230.169H184.365V195.7Z" fill="#E1E1E1"/>
<path d="M200.917 195.7H197.523V230.169H200.917V195.7Z" fill="#E1E1E1"/>
<path d="M209.664 195.7H205.789V230.169H209.664V195.7Z" fill="#E1E1E1"/>
<path d="M205.787 193.037H200.922V230.169H205.787V193.037Z" fill="#F0F0F0"/>
<path d="M190.953 195.7H184.367V230.169H190.953V195.7Z" fill="#F5F5F5"/>
<path d="M197.539 193.536H190.953V230.169H197.539V193.536Z" fill="#E7E7E7"/>
<path d="M128.818 192.431H124.453V230.159H128.818V192.431Z" fill="#E1E1E1"/>
<path d="M133.185 195.7H128.82V230.169H133.185V195.7Z" fill="#E7E7E7"/>
<path d="M149.746 195.7H146.352V230.169H149.746V195.7Z" fill="#E1E1E1"/>
<path d="M154.599 193.037H149.734V230.169H154.599V193.037Z" fill="#F0F0F0"/>
<path d="M159.451 193.037H154.586V230.169H159.451V193.037Z" fill="#F5F5F5"/>
<path d="M139.766 195.7H133.18V230.169H139.766V195.7Z" fill="#F5F5F5"/>
<path d="M146.352 193.536H139.766V230.169H146.352V193.536Z" fill="#E7E7E7"/>
<path d="M180.014 149.453H175.648V180.585H180.014V149.453Z" fill="#FAFAFA"/>
<path d="M184.365 146.116H180V180.586H184.365V146.116Z" fill="#E1E1E1"/>
<path d="M210.154 146.116H205.789V180.586H210.154V146.116Z" fill="#E1E1E1"/>
<path d="M200.917 146.116H197.523V180.586H200.917V146.116Z" fill="#E1E1E1"/>
<path d="M205.787 143.453H200.922V180.586H205.787V143.453Z" fill="#F0F0F0"/>
<path d="M190.953 146.116H184.367V180.586H190.953V146.116Z" fill="#F5F5F5"/>
<path d="M197.539 143.953H190.953V180.586H197.539V143.953Z" fill="#E7E7E7"/>
<path d="M150.471 180.58H154.836V149.447H150.471V180.58Z" fill="#FAFAFA"/>
<path d="M146.104 180.58H150.469V146.111H146.104V180.58Z" fill="#E1E1E1"/>
<path d="M154.846 180.58H159.211V146.111H154.846V180.58Z" fill="#E1E1E1"/>
<path d="M129.551 180.58H132.945V146.111H129.551V180.58Z" fill="#E1E1E1"/>
<path d="M124.69 180.58H129.555V152.312H124.69V180.58Z" fill="#E1E1E1"/>
<path d="M139.531 180.58H146.117V146.111H139.531V180.58Z" fill="#F5F5F5"/>
<path d="M132.945 180.582H139.531V143.95H132.945V180.582Z" fill="#E7E7E7"/>
<path d="M349.965 311.722L329.812 267.032H282.69L289.92 308.847C290.276 310.905 288.901 312.856 286.844 313.212C286.642 313.251 286.44 313.27 286.238 313.27H265.547C264.441 313.27 263.547 314.164 263.547 315.27V317.5C263.547 318.606 264.441 319.5 265.547 319.5H348.513C349.715 319.5 350.686 318.529 350.686 317.327V315.02C350.686 313.866 350.436 312.751 349.965 311.722ZM328.149 306.193H305.525C304.054 306.193 302.795 305.136 302.545 303.684L299.131 283.964C298.843 282.32 299.949 280.753 301.602 280.464C301.775 280.435 301.948 280.416 302.122 280.416H319.236C320.428 280.416 321.505 281.108 321.995 282.195L330.918 301.915C331.601 303.444 330.918 305.242 329.389 305.934C328.995 306.107 328.572 306.193 328.149 306.193Z" fill="#1A2E35"/>
<path d="M349.965 311.722L329.812 267.032H282.69L289.92 308.847C290.276 310.905 288.901 312.856 286.844 313.212C286.642 313.251 286.44 313.27 286.238 313.27H265.547C264.441 313.27 263.547 314.164 263.547 315.27V317.5C263.547 318.606 264.441 319.5 265.547 319.5H348.513C349.715 319.5 350.686 318.529 350.686 317.327V315.02C350.686 313.866 350.436 312.751 349.965 311.722ZM328.149 306.193H305.525C304.054 306.193 302.795 305.136 302.545 303.684L299.131 283.964C298.843 282.32 299.949 280.753 301.602 280.464C301.775 280.435 301.948 280.416 302.122 280.416H319.236C320.428 280.416 321.505 281.108 321.995 282.195L330.918 301.915C331.601 303.444 330.918 305.242 329.389 305.934C328.995 306.107 328.572 306.193 328.149 306.193Z" fill="#E527BB"/>
<path opacity="0.2" d="M328.149 306.193H305.526C304.054 306.193 302.795 305.136 302.545 303.684L299.132 283.964C298.843 282.32 299.949 280.753 301.603 280.464C301.776 280.435 301.949 280.416 302.122 280.416H319.236C320.429 280.416 321.505 281.108 321.996 282.195L330.918 301.915C331.601 303.444 330.918 305.241 329.39 305.934C328.995 306.107 328.572 306.193 328.149 306.193Z" fill="white"/>
<path d="M304.78 280.368H302.116C300.443 280.368 299.088 281.714 299.078 283.387C299.078 283.56 299.088 283.733 299.126 283.906L302.539 303.626C302.789 305.078 304.049 306.145 305.52 306.136H308.193C306.722 306.136 305.462 305.078 305.212 303.626L301.799 283.906C301.511 282.262 302.616 280.695 304.27 280.406C304.434 280.387 304.607 280.368 304.78 280.368Z" fill="#1A2E35"/>
<path d="M352.638 311.722L332.466 267.071H329.812L349.965 311.722C350.436 312.77 350.686 313.895 350.686 315.049V317.356C350.686 318.558 349.715 319.529 348.513 319.529H351.186C352.388 319.529 353.359 318.558 353.359 317.356V315.049C353.359 313.895 353.109 312.76 352.638 311.722Z" fill="#1A2E35"/>
<path opacity="0.2" d="M329.794 267.032H282.672L284.518 277.695H334.621L329.794 267.032Z" fill="black"/>
<path d="M397.398 271.715H196.352C192.698 271.782 189.679 268.878 189.612 265.225C189.602 264.936 189.621 264.638 189.65 264.35L202.352 119.07C202.765 114.945 206.207 111.782 210.351 111.705H411.397C415.05 111.637 418.07 114.541 418.137 118.195C418.146 118.483 418.127 118.781 418.098 119.07L405.388 264.359C404.974 268.484 401.542 271.647 397.398 271.715Z" fill="#E527BB"/>
<path d="M191.012 248.658L189.637 264.359C189.223 267.994 191.839 271.272 195.463 271.686C195.752 271.715 196.04 271.734 196.338 271.724H397.394C401.538 271.647 404.97 268.484 405.384 264.359L406.768 248.658H191.012Z" fill="#007CFF"/>
<path d="M191.012 248.658L189.637 264.359C189.223 267.994 191.839 271.272 195.463 271.686C195.752 271.715 196.04 271.734 196.338 271.724H397.394C401.538 271.647 404.97 268.484 405.384 264.359L406.768 248.658H191.012Z" fill="#E527BB"/>
<path d="M399.674 244.216H198.888C196.907 244.255 195.273 242.678 195.234 240.697C195.234 240.543 195.234 240.39 195.254 240.236L205.753 120.166C205.984 117.935 207.839 116.224 210.089 116.176H410.876C412.856 116.137 414.491 117.714 414.529 119.695C414.529 119.849 414.529 120.002 414.51 120.156L404.011 240.226C403.78 242.466 401.914 244.178 399.674 244.216Z" fill="#007CFF"/>
<path opacity="0.8" d="M399.674 244.216H198.888C196.907 244.255 195.273 242.678 195.234 240.697C195.234 240.543 195.234 240.39 195.254 240.236L205.753 120.166C205.984 117.935 207.839 116.224 210.089 116.176H410.876C412.856 116.137 414.491 117.714 414.529 119.695C414.529 119.849 414.529 120.002 414.51 120.156L404.011 240.226C403.78 242.466 401.914 244.178 399.674 244.216Z" fill="#007CFF"/>
<path opacity="0.8" d="M399.674 244.216H198.888C196.907 244.255 195.273 242.678 195.234 240.697C195.234 240.543 195.234 240.39 195.254 240.236L205.753 120.166C205.984 117.935 207.839 116.224 210.089 116.176H410.876C412.856 116.137 414.491 117.714 414.529 119.695C414.529 119.849 414.529 120.002 414.51 120.156L404.011 240.226C403.78 242.466 401.914 244.178 399.674 244.216Z" fill="white"/>
<g opacity="0.5">
<path d="M255.146 244.216H236.82L264.03 116.176H282.366L255.146 244.216Z" fill="white"/>
<path d="M266.755 244.216H262.062L289.282 116.176H293.974L266.755 244.216Z" fill="white"/>
<path d="M335.053 244.216H331.977L359.186 116.176H362.263L335.053 244.216Z" fill="white"/>
<path d="M346.661 244.216H341.969L369.188 116.176H373.88L346.661 244.216Z" fill="white"/>
</g>
<path d="M415.841 111.743H411.399C415.053 111.676 418.072 114.58 418.139 118.233C418.149 118.522 418.13 118.82 418.101 119.108L405.381 264.359C404.967 268.484 401.535 271.647 397.391 271.724H401.833C405.977 271.647 409.409 268.484 409.823 264.359L422.533 119.079C422.937 115.445 420.312 112.176 416.688 111.772C416.409 111.743 416.12 111.734 415.841 111.743Z" fill="#1A2E35"/>
<path opacity="0.6" d="M415.841 111.743H411.399C415.053 111.676 418.072 114.58 418.139 118.233C418.149 118.522 418.13 118.82 418.101 119.108L405.381 264.359C404.967 268.484 401.535 271.647 397.391 271.724H401.833C405.977 271.647 409.409 268.484 409.823 264.359L422.533 119.079C422.937 115.445 420.312 112.176 416.688 111.772C416.409 111.743 416.12 111.734 415.841 111.743Z" fill="white"/>
<path d="M309.274 199.382C308.543 207.699 301.216 214.449 292.89 214.449C284.573 214.449 278.42 207.709 279.141 199.382C279.872 191.066 287.198 184.316 295.524 184.316L296.197 176.615C283.621 176.615 272.545 186.806 271.439 199.382C270.343 211.959 279.641 222.15 292.207 222.15C304.784 222.15 315.86 211.959 316.965 199.382H309.274Z" fill="#E527BB"/>
<path d="M319.668 196.046C320.764 183.47 311.466 173.278 298.9 173.278L298.227 180.98C306.543 180.98 312.697 187.72 311.976 196.046H319.668Z" fill="#007CFF"/>
<path d="M319.668 196.046C320.764 183.47 311.466 173.278 298.9 173.278L298.227 180.98C306.543 180.98 312.697 187.72 311.976 196.046H319.668Z" fill="#A78BEF"/>
<path d="M300.799 199.383C300.472 203.171 297.126 206.238 293.348 206.238C289.56 206.238 286.762 203.171 287.089 199.383C287.415 195.594 290.761 192.527 294.54 192.527L294.848 189.018C289.127 189.018 284.079 193.652 283.579 199.383C283.079 205.103 287.31 209.747 293.031 209.747C298.751 209.747 303.799 205.113 304.299 199.383H300.799Z" fill="#007CFF"/>
<path d="M300.799 199.383C300.472 203.171 297.126 206.238 293.348 206.238C289.56 206.238 286.762 203.171 287.089 199.383C287.415 195.594 290.761 192.527 294.54 192.527L294.848 189.018C289.127 189.018 284.079 193.652 283.579 199.383C283.079 205.103 287.31 209.747 293.031 209.747C298.751 209.747 303.799 205.113 304.299 199.383H300.799Z" fill="#E527BB"/>
<path d="M305.54 197.863C306.04 192.142 301.81 187.499 296.089 187.499L295.781 191.008C299.569 191.008 302.367 194.075 302.041 197.863H305.54Z" fill="#A78BEF"/>
<path d="M349.9 211.238H331.786C331.103 211.238 330.603 210.689 330.661 210.007C330.718 209.324 331.324 208.776 332.007 208.776H350.121C350.804 208.776 351.304 209.334 351.246 210.007C351.179 210.68 350.573 211.238 349.9 211.238Z" fill="#A78BEF"/>
<path d="M344.921 216.093H331.364C330.681 216.093 330.181 215.535 330.239 214.862C330.297 214.18 330.902 213.632 331.585 213.632H345.142C345.825 213.632 346.325 214.189 346.267 214.862C346.2 215.535 345.603 216.093 344.921 216.093Z" fill="#A78BEF"/>
<path d="M239.504 213.276H257.619C258.301 213.276 258.907 212.718 258.965 212.045C259.023 211.362 258.523 210.814 257.84 210.814H239.726C239.043 210.814 238.437 211.362 238.38 212.045C238.322 212.728 238.822 213.276 239.504 213.276Z" fill="#E527BB"/>
<path d="M243.631 218.141H257.188C257.87 218.141 258.476 217.583 258.534 216.91C258.592 216.228 258.092 215.68 257.409 215.68H243.852C243.169 215.68 242.564 216.237 242.506 216.91C242.439 217.583 242.948 218.141 243.631 218.141Z" fill="#E527BB"/>
<path d="M327.264 210.708H321.091L307.101 195.382H302.602L302.717 194.084H307.755L321.745 209.41H327.379L327.264 210.708Z" fill="#A78BEF"/>
<path d="M261.168 213.401H267.341L281.331 198.075H285.83L285.725 196.777H280.677L266.687 212.103H261.062L261.168 213.401Z" fill="#E527BB"/>
<path opacity="0.1" d="M253.67 134.781H220.922L221.47 128.541H254.218L253.67 134.781Z" fill="black"/>
<path opacity="0.1" d="M252.574 147.27H219.836L220.374 141.021H253.122L252.574 147.27Z" fill="black"/>
<path opacity="0.1" d="M251.49 159.75H218.742L219.29 153.51H252.038L251.49 159.75Z" fill="black"/>
<path opacity="0.2" d="M253.123 141.021H220.375L220.923 134.781H253.671L253.123 141.021Z" fill="white"/>
<path opacity="0.2" d="M252.037 153.51H219.289L219.837 147.27H252.576L252.037 153.51Z" fill="white"/>
<path d="M239.471 159.048C235.086 159.048 234.356 151.664 233.577 143.857C232.865 136.655 232.115 129.204 228.279 129.204C225.135 129.204 221.539 139.78 220.424 143.857L219.789 143.732C219.799 143.693 220.837 139.934 222.366 136.232C224.471 131.127 226.481 128.541 228.346 128.541C232.731 128.541 233.461 135.925 234.24 143.732C234.961 150.933 235.702 158.385 239.538 158.385C242.605 158.385 246.095 148.328 247.307 144.049C247.355 143.876 247.537 143.761 247.71 143.79C247.884 143.828 247.989 143.992 247.941 144.174C247.653 145.165 246.73 148.28 245.461 151.356C243.345 156.462 241.336 159.048 239.471 159.048Z" fill="#E527BB"/>
<path d="M224.352 155.635C221.025 155.635 219.881 145.126 219.766 143.934L220.429 143.809C220.737 146.914 222.054 154.972 224.419 154.972C226.823 154.972 228.14 150.164 229.419 145.52C230.832 140.386 232.159 135.531 235.111 135.531C237.592 135.531 237.986 139.55 238.409 143.809C238.784 147.616 239.178 151.549 241.111 151.549C243.043 151.549 244.12 147.616 245.168 143.809C246.331 139.55 247.437 135.531 249.918 135.531C251.004 135.531 251.86 136.915 252.543 139.761C252.908 141.28 253.11 142.828 253.187 143.482C253.206 143.665 253.071 143.838 252.889 143.867C252.706 143.895 252.552 143.78 252.533 143.607C252.196 140.607 251.225 136.194 249.87 136.194C247.937 136.194 246.86 140.126 245.812 143.934C244.649 148.193 243.543 152.212 241.062 152.212C238.582 152.212 238.188 148.193 237.765 143.934C237.39 140.126 236.995 136.194 235.063 136.194C232.659 136.194 231.342 141.001 230.063 145.645C228.63 150.789 227.304 155.635 224.352 155.635Z" fill="#007CFF"/>
<g opacity="0.5">
<path d="M224.352 155.635C221.025 155.635 219.881 145.126 219.766 143.934L220.429 143.809C220.737 146.914 222.054 154.972 224.419 154.972C226.823 154.972 228.14 150.164 229.419 145.52C230.832 140.386 232.159 135.531 235.111 135.531C237.592 135.531 237.986 139.55 238.409 143.809C238.784 147.616 239.178 151.549 241.111 151.549C243.043 151.549 244.12 147.616 245.168 143.809C246.331 139.55 247.437 135.531 249.918 135.531C251.004 135.531 251.86 136.915 252.543 139.761C252.908 141.28 253.11 142.828 253.187 143.482C253.206 143.665 253.071 143.838 252.889 143.867C252.706 143.895 252.552 143.78 252.533 143.607C252.196 140.607 251.225 136.194 249.87 136.194C247.937 136.194 246.86 140.126 245.812 143.934C244.649 148.193 243.543 152.212 241.062 152.212C238.582 152.212 238.188 148.193 237.765 143.934C237.39 140.126 236.995 136.194 235.063 136.194C232.659 136.194 231.342 141.001 230.063 145.645C228.63 150.789 227.304 155.635 224.352 155.635Z" fill="#A78BEF"/>
</g>
<path d="M251.701 160.385H218.328L221.088 128.896C221.107 128.694 221.28 128.531 221.482 128.531C221.684 128.531 221.828 128.694 221.809 128.896L219.117 159.664H251.768C251.97 159.664 252.115 159.827 252.095 160.029C252.076 160.221 251.903 160.385 251.701 160.385Z" fill="#A78BEF"/>
<path d="M326.905 129.896H326.039H316.511H315.646H306.118H305.262H295.734H294.878H285.35H284.484H274.091L273.177 140.29L273.1 141.146L272.264 150.674L272.187 151.53L271.273 161.923H281.667H282.532H292.061H292.926H302.454H303.32H312.848H313.704H323.232H324.088H334.481L335.395 151.53L335.472 150.674L336.308 141.146L336.385 140.29L337.298 129.896H326.905ZM316.444 130.762H325.972L325.136 140.29H315.607L316.444 130.762ZM324.232 150.683H314.704L315.54 141.155H325.068L324.232 150.683ZM284.359 141.146H293.887L293.051 150.674H283.523L284.359 141.146ZM294.753 141.146H304.281L303.445 150.674H293.916L294.753 141.146ZM305.137 141.146H314.665L313.829 150.674H304.3L305.137 141.146ZM306.05 130.762H315.579L314.742 140.29H305.214L306.05 130.762ZM295.657 130.762H305.185L304.348 140.29H294.82L295.657 130.762ZM285.273 130.762H294.801L293.964 140.29H284.436L285.273 130.762ZM274.879 130.762H284.407L283.571 140.29H274.042L274.879 130.762ZM273.966 141.146H283.494L282.657 150.674H273.129L273.966 141.146ZM281.754 161.067H272.225L273.062 151.539H282.59L281.754 161.067ZM292.147 161.067H282.619L283.455 151.539H292.984L292.147 161.067ZM302.541 161.067H293.013L293.849 151.539H303.377L302.541 161.067ZM312.925 161.067H303.397L304.233 151.539H313.761L312.925 161.067ZM323.318 161.067H313.79L314.627 151.539H324.155L323.318 161.067ZM333.712 161.067H324.184L325.02 151.539H334.549L333.712 161.067ZM334.616 150.683H325.088L325.924 141.155H335.452L334.616 150.683ZM326.001 140.29L326.837 130.762H336.366L335.529 140.29H326.001Z" fill="#A78BEF"/>
<path d="M284.447 161.5H277.688L278.755 149.261H285.514L284.447 161.5Z" fill="#007CFF"/>
<path d="M294.836 161.5H288.086L289.442 145.915H296.201L294.836 161.5Z" fill="#E527BB"/>
<path d="M305.736 161.5H298.977L300.342 145.915H307.101L305.736 161.5Z" fill="#007CFF"/>
<path d="M315.619 161.5H308.859L310.975 137.329H317.734L315.619 161.5Z" fill="#E527BB"/>
<path d="M326.009 161.5H319.25L321.519 135.521H328.278L326.009 161.5Z" fill="#007CFF"/>
<path d="M284.447 161.5H277.688L278.755 149.261H285.514L284.447 161.5Z" fill="#E527BB"/>
<path d="M305.736 161.5H298.977L300.342 145.915H307.101L305.736 161.5Z" fill="#E527BB"/>
<path d="M326.009 161.5H319.25L321.519 135.521H328.278L326.009 161.5Z" fill="#E527BB"/>
<path d="M127.38 245.13L152.927 248.101L153.177 245.928L126.332 242.803L126.226 243.668C126.15 244.399 126.659 245.043 127.38 245.13Z" fill="#1A2E35"/>
<path opacity="0.2" d="M127.38 245.13L152.927 248.101L153.177 245.928L126.332 242.803L126.226 243.668C126.15 244.399 126.659 245.043 127.38 245.13Z" fill="white"/>
<path d="M148.075 247.543L168.92 249.966L169.17 247.793L147.027 245.216L146.922 246.082C146.845 246.803 147.364 247.457 148.075 247.543Z" fill="#1A2E35"/>
<path opacity="0.5" d="M148.075 247.543L168.92 249.966L169.17 247.793L147.027 245.216L146.922 246.082C146.845 246.803 147.364 247.457 148.075 247.543Z" fill="white"/>
<path d="M164.113 248.688L166.281 248.941L166.371 248.167L164.203 247.915L164.113 248.688Z" fill="#1A2E35"/>
<path d="M160.73 248.296L162.898 248.549L162.989 247.775L160.821 247.523L160.73 248.296Z" fill="#1A2E35"/>
<path d="M167.703 247.63L169.145 247.793L172.924 228.371L171.482 228.198L167.703 247.63Z" fill="#1A2E35"/>
<path opacity="0.3" d="M167.703 247.63L169.145 247.793L172.924 228.371L171.482 228.198L167.703 247.63Z" fill="white"/>
<path d="M168.227 247.687L142.883 244.736L146.652 225.314L172.006 228.265L168.227 247.687Z" fill="#007CFF"/>
<path opacity="0.5" d="M168.227 247.687L142.883 244.736L146.652 225.314L172.006 228.265L168.227 247.687Z" fill="white"/>
<path d="M116.48 205.151C115.788 206.536 115.019 208.045 114.326 209.507C113.634 210.988 112.942 212.468 112.307 213.949C111.663 215.43 111.067 216.91 110.557 218.372C110.048 219.814 109.615 221.275 109.413 222.525C109.308 223.131 109.269 223.698 109.288 223.977C109.288 224.044 109.288 224.093 109.288 224.102C109.288 224.102 109.279 224.121 109.279 224.102L109.269 224.093L109.221 224.025C109.096 223.843 109.856 224.737 110.404 225.121C110.961 225.506 111.606 225.9 112.269 226.285C114.961 227.804 118.076 229.16 121.076 230.534L120.067 234.727C118.249 234.592 116.528 234.342 114.769 233.986C113.019 233.64 111.269 233.198 109.49 232.582C108.596 232.275 107.702 231.929 106.779 231.477C105.856 231.006 104.904 230.506 103.856 229.592C103.337 229.121 102.769 228.544 102.25 227.612C102.183 227.496 102.116 227.362 102.068 227.256L101.933 226.948C101.846 226.737 101.779 226.544 101.712 226.352C101.587 225.958 101.5 225.592 101.433 225.237C101.183 223.833 101.222 222.679 101.308 221.593C101.51 219.449 101.971 217.612 102.481 215.805C103.01 214.016 103.616 212.314 104.269 210.641C104.933 208.978 105.635 207.344 106.404 205.747C107.173 204.142 107.923 202.603 108.846 200.979L116.48 205.151Z" fill="#FFB570"/>
<path d="M119.118 230.708L125.57 229.044L126.099 234.842C126.099 234.842 121.753 236.64 119.07 233.832L119.118 230.708Z" fill="#FFB570"/>
<path d="M128.166 229.9L129.532 234.573L126.099 234.842L125.57 229.044L128.166 229.9Z" fill="#FFB570"/>
<path d="M102.781 211.978L111.992 216.535C111.992 216.535 114.357 217.285 118.703 210.334C123.742 202.238 120.982 197.7 114.906 197.479C108.685 197.248 106.473 204.94 102.781 211.978Z" fill="#007CFF"/>
<path d="M102.781 211.978L111.992 216.535C111.992 216.535 114.357 217.285 118.703 210.334C123.742 202.238 120.982 197.7 114.906 197.479C108.685 197.248 106.473 204.94 102.781 211.978Z" fill="#A78BEF"/>
<path opacity="0.2" d="M106.203 213.68L111.462 216.285L114.135 213.132L111.164 205.199L110.337 204.296L108.28 203.998L106.203 213.68Z" fill="black"/>
<path d="M102.742 211.305L112.924 216.516L111.578 218.131L102.203 213.343L102.742 211.305Z" fill="#A78BEF"/>
<path d="M117.073 198.219C116.765 199.594 116.553 200.248 117.784 200.844C120.38 202.18 123.245 202.661 126.053 202.219C128.985 201.719 129.505 200.671 129.389 199.834C129.274 199.152 128.659 198.738 128.043 198.43C126.793 197.969 125.928 196.632 125.88 195.084C125.803 194.392 125.736 193.017 125.918 192.815L120.678 189.354L116.727 184.95C117.678 188.489 117.861 194.7 117.073 198.219Z" fill="#FFB570"/>
<path d="M133.536 201.286C133.536 201.286 131.603 195.94 128.459 194.71C125.315 193.479 115.892 194.162 115.892 194.162C115.45 196.094 114.854 197.979 114.133 199.825L133.536 201.286Z" fill="#A78BEF"/>
<path d="M114.309 179.028C114.443 174.624 118.126 171.163 122.529 171.297C128.587 171.519 132.135 179.307 132.683 184.614C133.288 190.508 127.481 195.45 121.924 192.767C118.222 190.979 117.193 187.768 114.972 182.451C114.501 181.374 114.27 180.201 114.309 179.028Z" fill="#FFB570"/>
<path opacity="0.2" d="M115.277 196.488C114.94 197.613 114.565 198.729 114.133 199.825L132.064 201.171C131.68 200.277 131.132 199.161 130.411 198.161C126.074 196.412 118.498 196.402 115.277 196.488Z" fill="black"/>
<path d="M174.438 297.982L179.899 295.617L184.11 308.789L178.639 311.155L174.438 297.982Z" fill="#FFB570"/>
<path opacity="0.2" d="M174.438 297.982L179.899 295.617L182.004 302.194L176.476 304.367L174.438 297.982Z" fill="black"/>
<path d="M184.713 306.472C186.347 307.847 189.684 308.838 192.241 308.982C194.212 309.088 194.385 311.347 191.914 311.761C189.443 312.174 185.145 311.982 183.338 312.059C180.405 312.174 179.405 312.655 177.088 312.616C176.511 312.588 176.059 312.097 176.079 311.52L176.569 306.251C176.588 306.021 176.79 305.838 177.021 305.857L183.703 306.069C184.078 306.088 184.434 306.232 184.713 306.472Z" fill="#A78BEF"/>
<path d="M124.484 243.63C124.484 243.63 119.888 249.072 123.59 257.696C127.772 267.465 149.954 263.167 162.059 266.292C163.79 283.541 173.856 301.242 173.856 301.242L182.269 297.944C182.269 297.944 178.625 284.204 175.885 259.869C174.539 247.889 144.146 246.582 144.146 246.582L124.484 243.63Z" fill="black"/>
<path d="M172.18 299.675L182.91 295.925L183.554 299.848L173.785 303.396L172.18 299.675Z" fill="black"/>
<path d="M148.532 303.626L154.435 303.347L153.474 317.279L147.57 317.568L148.532 303.626Z" fill="#FFB570"/>
<path d="M155.08 315.818C156.715 317.183 159.474 319.077 162.012 319.443C163.637 319.673 164.858 322.144 161.82 322.144C158.772 322.144 155.503 321.856 153.695 321.798C150.763 321.702 149.782 321.962 147.455 321.962C146.879 321.933 146.427 321.443 146.446 320.866L146.936 315.597C146.955 315.366 147.157 315.193 147.398 315.203L154.08 315.414C154.445 315.424 154.801 315.568 155.08 315.818Z" fill="#A78BEF"/>
<path opacity="0.2" d="M148.008 311.318H153.882L154.44 303.357L148.537 303.636L148.008 311.318Z" fill="black"/>
<path d="M109.721 244.572C109.721 244.572 104.885 254.437 109.587 260.715C113.846 266.407 135.604 266.792 146.661 266.792C145.565 280.281 146.777 307.982 146.777 307.982L155.632 307.857C155.632 307.857 161.882 281.214 163.16 262.581C163.881 252.225 127.018 245.36 127.018 245.36L109.721 244.572Z" fill="black"/>
<path d="M145.57 306.155L157.743 305.799L157.214 309.434L146.032 309.588L145.57 306.155Z" fill="black"/>
<path d="M109.551 245.985L140.558 246.61L141.606 205.805C141.222 201.18 137.357 197.633 132.722 197.633H114.589C111.079 197.633 108.253 200.488 108.281 203.998L109.551 245.985Z" fill="#007CFF"/>
<path d="M109.551 245.985L140.558 246.61L141.606 205.805C141.222 201.18 137.357 197.633 132.722 197.633H114.589C111.079 197.633 108.253 200.488 108.281 203.998L109.551 245.985Z" fill="#A78BEF"/>
<path d="M141.148 204.853L141.734 207.151C141.936 207.94 142.157 208.728 142.388 209.507C142.859 211.074 143.321 212.632 143.85 214.17C144.359 215.708 144.917 217.218 145.532 218.679C146.128 220.141 146.792 221.564 147.523 222.881C147.878 223.544 148.263 224.179 148.657 224.785C148.657 224.785 148.888 225.092 149.474 225.054C150.061 225.016 150.763 224.929 151.484 224.766C154.388 224.141 157.589 222.9 160.647 221.727L162.945 225.371C161.531 226.592 160.108 227.64 158.57 228.631C157.032 229.611 155.416 230.525 153.59 231.275C152.676 231.65 151.705 231.996 150.599 232.227C149.494 232.448 148.244 232.64 146.59 232.342C145.773 232.179 144.821 231.832 143.936 231.179C143.504 230.871 143.081 230.438 142.763 230.063L142.292 229.477C141.677 228.698 141.1 227.9 140.581 227.092C138.485 223.852 136.975 220.497 135.677 217.103C135.052 215.401 134.466 213.689 133.975 211.959C133.725 211.093 133.485 210.228 133.264 209.353C133.033 208.468 132.85 207.632 132.648 206.642L141.148 204.853Z" fill="#FFB570"/>
<path d="M161.87 225.727L167.87 222.833L164.533 218.054C164.533 218.054 160.053 219.487 159.812 223.352L161.87 225.727Z" fill="#FFB570"/>
<path d="M169.31 220.516L167.339 216.054L164.531 218.064L167.868 222.843L169.31 220.516Z" fill="#FFB570"/>
<path d="M135.502 218.699L144.751 215.41C144.751 215.41 146.068 214.151 143.674 206.324C140.886 197.21 135.646 196.296 131.492 200.729C127.223 205.267 132.608 211.286 135.502 218.699Z" fill="#007CFF"/>
<path d="M135.502 218.699L144.751 215.41C144.751 215.41 146.068 214.151 143.674 206.324C140.886 197.21 135.646 196.296 131.492 200.729C127.223 205.267 132.608 211.286 135.502 218.699Z" fill="#A78BEF"/>
<path d="M134.508 217.901L145.305 214.103L145.536 216.199L135.614 219.699L134.508 217.901Z" fill="#A78BEF"/>
<path d="M117.868 189.854C118.762 189.72 120.377 189.614 122.137 190.181C122.665 190.354 123.233 190.133 123.492 189.643C124.29 188.124 125.877 185.066 126.482 183.691C126.482 183.691 129.28 182.326 127.886 178.528C126.482 174.74 126.482 173.548 126.482 173.548C126.482 173.548 130.838 169.74 126.704 167.509C122.569 165.269 124.463 169.375 119.916 170.269C115.368 171.163 110.214 175.644 112.079 181.086C113.454 185.105 115.964 188.056 116.714 189.316C116.954 189.72 117.406 189.922 117.868 189.854Z" fill="#1A2E35"/>
<path d="M124.547 179.634C126.066 179.412 127.711 180.941 128.249 182.306C128.845 183.854 128.066 185.633 126.461 185.21C125.22 184.854 124.153 184.066 123.47 182.979C122.615 181.624 123.028 179.855 124.547 179.634Z" fill="#FFB570"/>
<path d="M122.342 303.213V269.503H116.977V303.319L103.304 306.924C100.949 307.549 99.3047 309.674 99.3047 312.116V313.222C99.3047 314.337 100.208 315.231 101.314 315.231C102.43 315.231 103.324 314.328 103.324 313.222C103.324 311.934 104.189 310.799 105.439 310.472L116.967 307.434V313.222C116.967 314.337 117.871 315.231 118.977 315.231H120.313C121.428 315.231 122.323 314.328 122.323 313.222V307.347L133.803 310.53C135.043 310.876 135.899 312.011 135.889 313.299C135.879 314.414 136.764 315.328 137.879 315.337C138.995 315.347 139.908 314.462 139.918 313.347L139.927 312.241C139.956 309.809 138.341 307.655 135.995 307.001L122.342 303.213Z" fill="#1A2E35"/>
<path d="M98 318.923C98 317.126 99.4615 315.664 101.259 315.664C103.057 315.664 104.519 317.126 104.519 318.923C104.519 320.721 103.057 322.183 101.259 322.183C99.4615 322.193 98 320.731 98 318.923Z" fill="#E527BB"/>
<path d="M134.734 318.923C134.734 317.126 136.196 315.664 137.994 315.664C139.792 315.664 141.253 317.126 141.253 318.923C141.253 320.721 139.792 322.183 137.994 322.183C136.186 322.193 134.734 320.731 134.734 318.923Z" fill="#E527BB"/>
<path d="M116.367 318.923C116.367 317.126 117.829 315.664 119.627 315.664C121.425 315.664 122.886 317.126 122.886 318.923C122.886 320.721 121.425 322.183 119.627 322.183C117.829 322.183 116.367 320.731 116.367 318.923Z" fill="#E527BB"/>
<path opacity="0.6" d="M122.342 269.494H116.977V277.109H122.342V269.494Z" fill="black"/>
<path opacity="0.6" d="M112.977 308.482L116.361 307.588V303.473L112.977 304.367V308.482Z" fill="black"/>
<path opacity="0.6" d="M126.275 304.299L122.891 303.367V307.482L126.275 308.424V304.299Z" fill="black"/>
<path d="M124.031 267.234H156.606C158.673 267.234 160.346 268.907 160.346 270.974H124.031V267.234Z" fill="#007CFF"/>
<path d="M124.031 267.234H156.606C158.673 267.234 160.346 268.907 160.346 270.974H124.031V267.234Z" fill="#E527BB"/>
<path d="M100.906 219.381C89.4543 219.381 81.3009 227.919 81.9066 239.284L83.2143 264.138C83.4162 267.974 86.5891 270.974 90.4254 270.974H136.442L126.933 239.284C123.52 227.919 112.357 219.381 100.906 219.381Z" fill="#007CFF"/>
<path d="M100.906 219.381C89.4543 219.381 81.3009 227.919 81.9066 239.284L83.2143 264.138C83.4162 267.974 86.5891 270.974 90.4254 270.974H136.442L126.933 239.284C123.52 227.919 112.357 219.381 100.906 219.381Z" fill="#E527BB"/>
<path opacity="0.3" d="M98.5973 219.506C88.3767 220.573 81.3483 228.698 81.906 239.284L83.2136 264.138C83.4155 267.974 86.5884 270.974 90.4247 270.974H131.797L122.288 239.284C119.115 228.688 109.202 220.564 98.5973 219.506Z" fill="black"/>
<path d="M141.62 269.907C140.918 269.205 140.918 268.071 141.62 267.378L151.369 257.629C151.802 257.196 151.667 256.716 151.591 256.523C151.514 256.331 151.264 255.898 150.658 255.898H129.765C128.775 255.898 127.977 255.1 127.977 254.11C127.977 253.12 128.775 252.322 129.765 252.322H150.466C152.206 252.322 153.879 253.196 154.696 254.725C155.667 256.542 155.331 258.725 153.908 260.158L144.158 269.907C143.447 270.599 142.312 270.599 141.62 269.907Z" fill="#1A2E35"/>
<path opacity="0.2" d="M154.681 254.725C153.854 253.196 152.181 252.322 150.45 252.322H129.749C128.759 252.322 127.961 253.12 127.961 254.11C127.961 255.1 128.759 255.898 129.749 255.898H150.642C150.835 255.898 150.979 255.946 151.104 256.014H155.142C155.046 255.571 154.902 255.139 154.681 254.725Z" fill="white"/>
<path d="M197.472 244.015H223.191V241.832H196.164V242.707C196.164 243.428 196.751 244.015 197.472 244.015Z" fill="#1A2E35"/>
<path opacity="0.2" d="M197.472 244.015H223.191V241.832H196.164V242.707C196.164 243.428 196.751 244.015 197.472 244.015Z" fill="white"/>
<path d="M218.308 244.015H239.297V241.832H217V242.707C217 243.428 217.587 244.015 218.308 244.015Z" fill="#1A2E35"/>
<path opacity="0.5" d="M218.308 244.015H239.297V241.832H217V242.707C217 243.428 217.587 244.015 218.308 244.015Z" fill="white"/>
<path d="M234.356 243.309H236.539V242.53H234.356V243.309Z" fill="#1A2E35"/>
<path d="M230.958 243.309H233.141V242.53H230.958V243.309Z" fill="#1A2E35"/>
<path d="M237.82 241.832H239.272L240.772 222.093H239.32L237.82 241.832Z" fill="#1A2E35"/>
<path opacity="0.3" d="M237.82 241.832H239.272L240.772 222.093H239.32L237.82 241.832Z" fill="white"/>
<path d="M238.355 241.832H212.828L214.338 222.093H239.855L238.355 241.832Z" fill="#007CFF"/>
<path d="M238.355 241.832H212.828L214.338 222.093H239.855L238.355 241.832Z" fill="#A78BEF"/>
<path d="M195.14 200.93C194.351 203.738 194.159 206.747 198.187 207.834C198.187 207.834 201.947 213.132 197.437 216.68C194.582 212.92 190.976 209.786 186.852 207.488C189.467 205.142 188.957 198.45 188.351 194.787L195.14 200.93Z" fill="#E67B62"/>
<path d="M182.602 186.672C182.996 182.124 187.005 178.749 191.553 179.143C197.957 179.624 201.514 187.96 201.947 193.546C202.428 199.767 195.957 203.738 190.121 200.681C186.207 198.652 185.457 196.21 183.208 190.537C182.688 189.316 182.486 187.989 182.602 186.672Z" fill="#E67B62"/>
<path opacity="0.21" d="M179.484 194.027C171.08 183.422 181.397 180.374 181.397 180.374C184.627 175.893 189.964 174.98 194.848 176.855C199.732 178.73 198.281 181.999 196.502 182.326C199.828 186.729 197.925 188.921 196.829 189.239C198.54 200.315 187.877 204.642 179.484 194.027Z" fill="#1A2E35"/>
<path d="M186.85 240.88C185.196 240.669 183.571 240.332 181.975 239.871C181.735 239.803 181.513 239.698 181.283 239.601L181.206 238.428C181.023 234.919 180.946 231.333 180.869 227.746L180.687 216.978L174.495 216.958C174.475 220.612 174.572 224.247 174.725 227.881C174.889 231.525 175.1 235.159 175.514 238.861L175.725 240.255L175.831 240.957C175.85 241.178 175.879 241.39 175.927 241.601C175.995 241.803 176.081 242.005 176.168 242.207C176.341 242.534 176.543 242.832 176.793 243.101C177.139 243.467 177.533 243.774 177.966 244.015C178.273 244.197 178.6 244.351 178.937 244.476C179.475 244.688 180.033 244.851 180.6 244.986C182.523 245.37 184.475 245.582 186.436 245.611C190.138 245.697 193.84 245.515 197.513 245.072L197.445 242.044C193.897 241.697 190.311 241.399 186.85 240.88Z" fill="#E67B62"/>
<path d="M185.986 214.997C185.986 218.747 183.727 225.766 183.727 225.766L174.429 220.045C174.016 215.237 175.006 209.065 179.621 207.565C182.746 206.546 185.948 210.997 185.986 214.997Z" fill="#A78BEF"/>
<path opacity="0.6" d="M179.306 212.295L177.171 214.41L176.758 221.468L183.729 225.756C183.729 225.756 185.988 218.737 185.988 214.987C185.978 214.035 185.786 213.055 185.459 212.132L182.248 211.161L179.306 212.295Z" fill="black"/>
<path d="M205.995 243.717C206.255 243.111 205.976 242.409 205.361 242.149L202.726 241.034C202.159 240.803 201.534 240.755 200.938 240.909L195.188 242.457L194.477 244.399C195.371 246.63 199.169 246.207 199.169 246.207L201.909 247.043C202.611 247.264 203.38 247.024 203.841 246.447L205.832 243.986C205.899 243.909 205.957 243.813 205.995 243.717Z" fill="#E67B62"/>
<path d="M201.805 207.469C200.613 207.267 199.363 207.074 198.142 206.93C194.392 206.555 190.623 206.44 186.864 206.594C185.018 206.632 183.191 206.767 181.605 206.93C181.566 206.93 181.518 206.94 181.48 206.95C178.595 207.334 176.576 209.978 176.951 212.863C179.211 228.958 180.191 235.804 179.537 245.005L204.44 245.755C207.343 230.756 208.526 221.814 208.911 216.555C209.238 212.132 206.161 208.209 201.805 207.469Z" fill="#A78BEF"/>
<path d="M230.719 299.8L236.593 299.242L240.555 313.722L234.68 314.28L230.719 299.8Z" fill="#E67B62"/>
<path d="M187.983 244.976C178.513 257.475 179.272 268.186 189.041 268.186C197.752 268.186 208.617 268.696 220.404 267.946C223 286.916 232.875 309.02 232.875 309.02L239.394 308.415C239.394 308.415 233.442 280.686 232.99 261.292C232.702 249.572 199.617 250.572 199.617 250.572C199.617 250.572 193.791 245.005 187.983 244.976Z" fill="#1A2E35"/>
<path d="M187.983 244.976C178.513 257.475 179.272 268.186 189.041 268.186C197.752 268.186 208.617 268.696 220.404 267.946C223 286.916 232.875 309.02 232.875 309.02L239.394 308.415C239.394 308.415 233.442 280.686 232.99 261.292C232.702 249.572 199.617 250.572 199.617 250.572C199.617 250.572 193.791 245.005 187.983 244.976Z" fill="black"/>
<path opacity="0.2" d="M233.74 272.619C233.356 268.705 233.087 264.85 233 261.283C232.712 249.562 199.627 250.562 199.627 250.562C199.627 250.562 198.742 249.726 197.329 248.697C196.05 248.86 195.32 248.966 195.32 248.966C195.32 248.966 190.329 248.88 185.349 248.851C178.792 259.61 180.311 268.186 189.051 268.186C194.223 268.186 200.175 268.359 206.617 268.35C215.376 265.965 224.433 263.004 228.539 261.677C229.846 265.446 231.673 269.138 233.74 272.619Z" fill="black"/>
<path d="M179.622 243.313L204.842 244.063C205.092 244.072 205.255 244.216 205.255 244.361L204.967 246.62C204.948 246.755 204.755 246.851 204.534 246.851L178.911 246.101C178.622 246.091 178.42 245.909 178.516 245.736L179.228 243.524C179.295 243.38 179.449 243.303 179.622 243.313Z" fill="#1A2E35"/>
<path d="M221.236 235.775C218.515 236.13 215.755 236.467 213.083 236.698C211.794 236.813 210.506 236.861 209.217 236.832C208.862 236.832 208.516 236.784 208.169 236.726C207.939 235.726 207.775 234.717 207.689 233.698C207.592 232.429 207.564 231.159 207.592 229.89C207.641 228.583 207.737 227.285 207.871 225.987C207.939 225.333 208.016 224.66 208.112 224.035C208.208 223.41 208.314 222.718 208.4 222.179L202.362 220.9C202.179 221.718 202.054 222.41 201.949 223.15C201.843 223.891 201.756 224.592 201.679 225.362C201.535 226.852 201.468 228.342 201.477 229.833C201.458 232.948 201.958 236.044 202.968 238.986L203.064 239.274L203.15 239.467L203.256 239.717C203.333 239.87 203.42 240.024 203.525 240.168C203.862 240.64 204.285 241.034 204.795 241.322C205.381 241.649 206.025 241.87 206.698 241.957C207.583 242.082 208.477 242.101 209.362 242.015C210.862 241.88 212.352 241.64 213.823 241.293C216.621 240.64 219.371 239.774 222.044 238.717L221.236 235.775Z" fill="#E67B62"/>
<path d="M198.524 214.228C196.544 216.987 200.495 224.506 200.495 224.506L208.283 224.016C208.283 224.016 210.312 214.343 206.735 210.161C204.793 207.911 200.592 211.353 198.524 214.228Z" fill="#A78BEF"/>
<path d="M227.633 230.871C228.335 230.948 228.845 231.583 228.768 232.294L228.46 235.678C228.412 236.198 228.056 236.64 227.556 236.794L224.48 237.717C224.48 237.717 218.797 241.294 216.961 239.755L219.076 236.813L222.951 232.39C223.384 231.881 223.98 231.544 224.634 231.41L227.23 230.89C227.355 230.861 227.499 230.852 227.633 230.871Z" fill="#E67B62"/>
<path d="M241.055 313.366C242.449 314.78 244.833 316.808 247.16 317.376C248.65 317.741 249.554 320.145 246.727 319.866C243.901 319.587 240.891 319.01 239.218 318.789C236.497 318.433 235.565 318.577 233.401 318.366C232.863 318.289 232.488 317.789 232.565 317.26L233.507 312.414C233.545 312.203 233.757 312.059 233.968 312.097L240.151 312.914C240.497 312.943 240.814 313.107 241.055 313.366Z" fill="#A78BEF"/>
<path d="M196.422 182.336C196.422 182.336 199.489 185.807 197.451 189.556C197.451 189.556 195.576 191.902 196.422 196.825C197.268 201.748 201.027 205.709 192.566 205.661C184.596 205.613 174.606 207.228 175.721 199.45C175.721 199.45 172.087 196.037 176.183 192.402C176.183 192.402 173.096 188.114 176.904 184.73C176.904 184.73 174.933 177.74 181.759 178.095C181.759 178.095 183.278 171.144 190.547 175.038C190.547 175.038 193.624 170.134 198.287 175.057C198.287 175.057 205.873 175.672 200.518 180.095C200.527 180.095 200.787 183.682 196.422 182.336Z" fill="black"/>
<path d="M194.092 189.566C193.958 188.393 194.794 187.325 195.967 187.191C197.592 187.027 198.852 188.96 199.198 190.345C199.592 191.883 198.736 193.296 197.14 192.787C195.938 192.392 194.938 191.537 194.362 190.412C194.227 190.152 194.131 189.864 194.092 189.566Z" fill="#E67B62"/>
<path d="M248.891 286.781L253.871 282.06L260.544 292.185L256.554 295.646L248.891 286.781Z" fill="#E67B62"/>
<path d="M181.894 245.178C180.683 245.168 179.616 245.986 179.318 247.159C175.952 260.283 179.75 268.215 189.048 268.215C197.759 268.215 221.527 260.437 228.988 258.023C235.247 276.09 253.294 292.262 253.294 292.262L258.034 287.916C258.034 287.916 247.525 267.657 240.256 249.678C236.083 239.342 195.769 245.313 195.769 245.313C195.769 245.313 187.74 245.178 181.894 245.178Z" fill="#1A2E35"/>
<path d="M181.894 245.178C180.683 245.168 179.616 245.986 179.318 247.159C175.952 260.283 179.75 268.215 189.048 268.215C197.759 268.215 221.527 260.437 228.988 258.023C235.247 276.09 253.294 292.262 253.294 292.262L258.034 287.916C258.034 287.916 247.525 267.657 240.256 249.678C236.083 239.342 195.769 245.313 195.769 245.313C195.769 245.313 187.74 245.178 181.894 245.178Z" fill="black"/>
<path d="M260.623 289.944C262.613 289.791 265.488 288.271 267.286 286.704C268.67 285.483 270.257 286.887 268.882 288.771C267.507 290.665 264.507 293.338 263.353 294.569C261.469 296.559 261.113 297.53 259.546 299.021C259.142 299.376 258.527 299.348 258.161 298.953L255.046 295.117C254.902 294.944 254.931 294.694 255.094 294.55L259.69 290.329C259.95 290.108 260.277 289.964 260.623 289.944Z" fill="#A78BEF"/>
<path d="M188.928 303.213V269.503H183.563V303.319L169.89 306.924C167.535 307.549 165.891 309.674 165.891 312.116V313.222C165.891 314.337 166.794 315.231 167.9 315.231C169.015 315.231 169.91 314.328 169.91 313.222C169.91 311.934 170.775 310.799 172.025 310.472L183.553 307.434V313.222C183.553 314.337 184.457 315.231 185.563 315.231H186.899C188.014 315.231 188.908 314.328 188.908 313.222V307.347L200.389 310.53C201.629 310.876 202.485 312.011 202.475 313.299C202.465 314.414 203.35 315.328 204.465 315.337C205.581 315.347 206.494 314.462 206.504 313.347L206.513 312.241C206.542 309.809 204.927 307.655 202.581 307.001L188.928 303.213Z" fill="#1A2E35"/>
<path d="M164.578 318.923C164.578 317.126 166.04 315.664 167.838 315.664C169.636 315.664 171.097 317.126 171.097 318.923C171.097 320.721 169.636 322.183 167.838 322.183C166.04 322.193 164.578 320.731 164.578 318.923Z" fill="#E527BB"/>
<path d="M201.312 318.923C201.312 317.126 202.774 315.664 204.572 315.664C206.37 315.664 207.831 317.126 207.831 318.923C207.831 320.721 206.37 322.183 204.572 322.183C202.774 322.193 201.312 320.731 201.312 318.923Z" fill="#E527BB"/>
<path d="M182.945 318.923C182.945 317.126 184.407 315.664 186.205 315.664C188.003 315.664 189.464 317.126 189.464 318.923C189.464 320.721 188.003 322.183 186.205 322.183C184.407 322.193 182.945 320.731 182.945 318.923Z" fill="#E527BB"/>
<path opacity="0.6" d="M188.928 269.494H183.562V277.109H188.928V269.494Z" fill="black"/>
<path opacity="0.6" d="M179.555 308.482L182.939 307.588V303.473L179.555 304.367V308.482Z" fill="black"/>
<path opacity="0.6" d="M192.861 304.299L189.477 303.367V307.482L192.861 308.424V304.299Z" fill="black"/>
<path d="M190.617 267.234H223.192C225.259 267.234 226.932 268.907 226.932 270.974H190.617V267.234Z" fill="#007CFF"/>
<path d="M190.617 267.234H223.192C225.259 267.234 226.932 268.907 226.932 270.974H190.617V267.234Z" fill="#E527BB"/>
<path d="M167.491 219.381C156.04 219.381 147.887 227.919 148.493 239.284L149.8 264.138C150.002 267.974 153.175 270.974 157.011 270.974H203.028L193.519 239.284C190.106 227.919 178.943 219.381 167.491 219.381Z" fill="#007CFF"/>
<path d="M167.491 219.381C156.04 219.381 147.887 227.919 148.493 239.284L149.8 264.138C150.002 267.974 153.175 270.974 157.011 270.974H203.028L193.519 239.284C190.106 227.919 178.943 219.381 167.491 219.381Z" fill="#E527BB"/>
<path opacity="0.3" d="M165.175 219.506C154.955 220.573 147.926 228.698 148.484 239.284L149.792 264.138C149.994 267.974 153.167 270.974 157.003 270.974H198.375L188.866 239.284C185.703 228.688 175.79 220.564 165.175 219.506Z" fill="black"/>
<path d="M208.206 269.907C207.504 269.205 207.504 268.071 208.206 267.378L217.955 257.629C218.388 257.196 218.253 256.716 218.176 256.523C218.1 256.331 217.85 255.898 217.244 255.898H196.351C195.361 255.898 194.562 255.1 194.562 254.11C194.562 253.12 195.361 252.322 196.351 252.322H217.052C218.792 252.322 220.465 253.196 221.282 254.725C222.253 256.542 221.917 258.725 220.494 260.158L210.744 269.907C210.033 270.599 208.898 270.599 208.206 269.907Z" fill="#1A2E35"/>
<path opacity="0.2" d="M221.274 254.725C220.447 253.196 218.774 252.322 217.044 252.322H196.343C195.353 252.322 194.555 253.12 194.555 254.11C194.555 255.1 195.353 255.898 196.343 255.898H217.236C217.428 255.898 217.573 255.946 217.698 256.014H221.736C221.64 255.571 221.495 255.139 221.274 254.725Z" fill="white"/>
<path d="M457.376 134.377C457.376 134.377 455.213 130.146 447.838 131.656C440.464 133.156 437.55 137.925 438.118 143.665C438.685 149.414 440.492 152.693 439.31 155.424C438.723 156.789 435.281 155.799 435.281 155.799C435.281 155.799 436.887 157.77 442.665 158.568C448.79 159.414 457.174 161.068 460.712 156.27C464.26 151.482 457.376 134.377 457.376 134.377Z" fill="#1A2E35"/>
<path d="M414.594 322.318L419.093 323.116L420.93 316.982L422.613 311.357L417.43 309.549L415.93 316.309L414.594 322.318Z" fill="#E4897B"/>
<path opacity="0.2" d="M415.906 316.443L420.916 317.107L422.608 311.424L417.435 309.578L415.906 316.443Z" fill="black"/>
<path d="M444.602 324.385H449.169L449.919 317.962L450.592 312.097L445.178 311.193L444.871 318.174L444.602 324.385Z" fill="#E4897B"/>
<path opacity="0.2" d="M444.875 318.231L449.923 318.01L450.596 312.116L445.183 311.203L444.875 318.231Z" fill="black"/>
<path d="M415.484 312.886L422.869 314.183C430.32 295.608 435.627 272.628 439.377 259.764C441.396 252.822 443.079 246.649 444.29 241.169L444.06 261.389V314.414H451.338C469.587 227.477 456.655 200.2 456.655 200.2L434.82 196.565C433.993 199.825 433.358 205.151 432.993 208.834L432.012 216.074L423.474 260.158L415.484 312.886Z" fill="#1A2E35"/>
<g opacity="0.2">
<path d="M415.484 312.886L422.869 314.183C430.32 295.608 435.627 272.628 439.377 259.764C441.396 252.822 443.079 246.649 444.29 241.169L444.06 261.389V314.414H451.338C469.587 227.477 456.655 200.2 456.655 200.2L434.82 196.565C433.993 199.825 433.358 205.151 432.993 208.834L432.012 216.074L423.474 260.158L415.484 312.886Z" fill="black"/>
</g>
<path d="M392.317 157.068L382.856 152.828C382.856 152.828 381.933 151.087 381.077 150.828C380.221 150.568 374.837 150.626 374.404 151.222C373.972 151.818 374.596 155.953 375.664 156.347C376.741 156.741 381.375 156.029 381.788 155.789L392.576 161.856L392.317 157.068Z" fill="#EEC1BB"/>
<path opacity="0.2" d="M439.367 259.764C441.386 252.822 442.954 246.649 444.165 241.169C444.165 241.169 444.04 230.525 442.752 221.776C442.761 221.776 439.559 246.784 439.367 259.764Z" fill="black"/>
<path d="M462.777 233.698L480.603 237.38C481.026 237.467 481.286 237.909 481.161 238.323L477.594 249.803C477.479 250.158 477.123 250.38 476.748 250.312L459.028 246.909C458.605 246.822 458.335 246.389 458.46 245.976L461.922 234.217C462.028 233.852 462.403 233.621 462.777 233.698Z" fill="#007CFF"/>
<path opacity="0.6" d="M462.777 233.698L480.603 237.38C481.026 237.467 481.286 237.909 481.161 238.323L477.594 249.803C477.479 250.158 477.123 250.38 476.748 250.312L459.028 246.909C458.605 246.822 458.335 246.389 458.46 245.976L461.922 234.217C462.028 233.852 462.403 233.621 462.777 233.698Z" fill="white"/>
<path d="M463.113 234.14L480.939 237.822C481.362 237.909 481.622 238.351 481.497 238.765L477.93 250.245C477.814 250.601 477.459 250.822 477.084 250.754L459.364 247.351C458.941 247.264 458.671 246.832 458.796 246.418L462.258 234.659C462.363 234.284 462.738 234.063 463.113 234.14Z" fill="#007CFF"/>
<path d="M463.113 234.14L480.939 237.822C481.362 237.909 481.622 238.351 481.497 238.765L477.93 250.245C477.814 250.601 477.459 250.822 477.084 250.754L459.364 247.351C458.941 247.264 458.671 246.832 458.796 246.418L462.258 234.659C462.363 234.284 462.738 234.063 463.113 234.14Z" fill="#E527BB"/>
<path d="M469.748 244.111C470.7 244.322 471.661 243.726 471.873 242.765C472.094 241.803 471.488 240.851 470.527 240.63C469.565 240.409 468.614 241.015 468.392 241.976C468.383 241.995 468.383 242.024 468.383 242.043C469.162 242.361 469.623 243.178 469.46 244.014C469.556 244.063 469.652 244.091 469.748 244.111Z" fill="#FBAD18"/>
<path d="M471.885 221.708L469.328 231.756C469.328 231.756 467.77 232.967 467.664 233.852C467.558 234.746 468.53 240.034 469.193 240.361C469.856 240.688 473.818 239.361 474.029 238.236C474.241 237.111 472.731 232.66 472.424 232.294L476.558 220.622L471.885 221.708Z" fill="#EEC1BB"/>
<path d="M434.297 195.21C433.402 179.518 433.806 170.894 434.21 166.586C434.652 161.991 435.364 161.827 435.364 161.827C435.364 161.827 440.344 161.337 444.671 161.375C448.027 161.491 451.373 161.837 454.67 162.423C457.805 162.942 460.882 163.692 463.91 164.654C463.401 166.096 462.949 167.471 462.516 168.759C461.949 170.461 461.439 172.038 460.987 173.509C460.132 176.259 459.459 178.643 458.93 180.778C457.266 187.374 456.911 191.604 456.565 197.133C456.565 197.133 462.045 211.459 463.112 221.968C463.112 221.968 448.44 225.054 442.662 224.391C436.21 223.65 429.797 220.727 429.797 220.727L434.297 195.21Z" fill="#1A2E35"/>
<path d="M434.297 195.21C433.402 179.518 433.806 170.894 434.21 166.586C434.652 161.991 435.364 161.827 435.364 161.827C435.364 161.827 440.344 161.337 444.671 161.375C448.027 161.491 451.373 161.837 454.67 162.423C457.805 162.942 460.882 163.692 463.91 164.654C463.401 166.096 462.949 167.471 462.516 168.759C461.949 170.461 461.439 172.038 460.987 173.509C460.132 176.259 459.459 178.643 458.93 180.778C457.266 187.374 456.911 191.604 456.565 197.133C456.565 197.133 462.045 211.459 463.112 221.968C463.112 221.968 448.44 225.054 442.662 224.391C436.21 223.65 429.797 220.727 429.797 220.727L434.297 195.21Z" fill="#A78BEF"/>
<path d="M444.932 162.327C445.125 162.221 445.365 162.125 445.615 162.039C446.125 161.635 446.75 160.654 446.721 158.279C446.711 157.51 446.634 156.587 446.461 155.501L453.067 154.27C453.067 154.27 450.817 158.712 452.692 162.02C453.336 162.308 453.72 162.712 453.653 163.25C453.163 167.067 444.952 170.759 444.952 170.759C444.952 170.759 440.942 164.519 444.932 162.327Z" fill="#EEC1BB"/>
<path opacity="0.2" d="M446.445 155.501C446.618 156.597 446.695 157.51 446.705 158.279C451.166 158.279 453.051 154.26 453.051 154.26L446.445 155.501Z" fill="black"/>
<path d="M450.097 137.021C444.357 136.703 442.338 139.684 441.588 145.578C440.656 152.943 442.011 158.289 449.28 157.106C459.154 155.491 459.635 137.55 450.097 137.021Z" fill="#EEC1BB"/>
<path d="M455.85 147.049C455.85 147.049 453.427 142.184 454.033 138.559C454.033 138.559 442.909 133.29 441.716 144.809C441.716 144.809 441.168 134.492 451.052 134.8C460.927 135.107 460.1 149.558 454.773 153.577C454.764 153.577 457.35 150.087 455.85 147.049Z" fill="#1A2E35"/>
<path d="M454.844 148.212C454.93 147.289 455.969 145.78 457.68 146.059C459.449 146.347 460.094 150.049 455.623 150.683C454.978 150.78 454.652 150.135 454.844 148.212Z" fill="#EEC1BB"/>
<path d="M452.021 137.001C452.021 137.001 450.954 141.107 456.656 146.107C462.357 151.106 459.213 158.702 456.204 159.519C456.204 159.519 461.463 158.837 463.915 155.712C467.463 151.193 463.021 148.549 462.453 144.376C461.886 140.203 463.771 137.386 460.761 134.377C457.752 131.377 451.118 132.463 452.021 137.001Z" fill="#1A2E35"/>
<path d="M451.936 136.357C451.936 136.357 449.08 143.549 459.512 147.559" stroke="#1A2E35" stroke-width="0.5" stroke-miterlimit="10" stroke-linecap="round" stroke-linejoin="round"/>
<path d="M457.885 163.048C457.885 163.048 449.366 176.845 449.414 188.249C449.453 199.652 461.116 208.997 461.116 208.997L458.673 195.7L463.933 164.673L457.885 163.048Z" fill="#E527BB"/>
<path d="M438.296 161.375C438.296 161.375 440.142 181.499 438.873 188.239C437.604 194.989 431.258 208.122 431.258 208.122L433.517 193.941C433.517 193.941 431.892 173.894 434.979 161.827L438.296 161.375Z" fill="#E527BB"/>
<path d="M434.969 161.827C434.969 161.827 414.758 164.452 411.826 164.452C408.893 164.452 386.337 154.01 386.337 154.01L383.414 157.27C383.414 157.27 402.682 171.692 410.009 172.865C417.335 174.038 434.959 173.846 434.959 173.846V161.827H434.969Z" fill="#E527BB"/>
<path d="M463.916 164.663C467.906 165.577 480.117 197.027 480.117 201.69C480.117 206.353 475.233 229.66 475.233 229.66L469.147 228.237C469.147 228.237 472.339 203.796 471.214 201.69C470.089 199.594 459.82 177.413 459.82 177.413C459.82 177.413 460.118 173.086 461.099 169.144C462.08 165.202 463.916 164.663 463.916 164.663Z" fill="#E527BB"/>
<path d="M420.518 320.126C420.499 319.597 413.98 320.106 413.98 320.106C413.98 320.106 410.028 324.25 406.134 325.231C402.25 326.212 404.461 328.519 408.826 328.452C413.182 328.385 416.518 328.337 419.614 328.289C422.71 328.241 420.729 325.635 420.518 320.126Z" fill="#E527BB"/>
<path d="M411.046 321.779C411.921 321.616 412.979 321.106 413.258 320.962C413.277 320.952 413.296 320.943 413.306 320.923C413.315 320.904 413.335 320.885 413.344 320.866C413.354 320.856 413.354 320.837 413.354 320.818C413.354 320.789 413.354 320.77 413.344 320.741C413.315 320.673 412.748 319.164 411.854 318.808C411.575 318.693 411.287 318.712 411.008 318.847C410.71 318.991 410.575 319.183 410.585 319.404C410.614 319.75 411.085 320.087 411.614 320.356C411.066 320.308 410.498 320.337 410.152 320.539C409.969 320.645 409.854 320.798 409.806 320.981C409.71 321.366 409.844 321.577 409.979 321.673C410.21 321.866 410.604 321.866 411.046 321.779ZM412.662 320.866C411.71 321.289 410.517 321.664 410.2 321.414C410.171 321.395 410.094 321.327 410.152 321.068C410.171 320.972 410.239 320.895 410.335 320.837C410.806 320.568 411.931 320.712 412.662 320.866ZM411.354 319.097C411.479 319.077 411.604 319.087 411.729 319.135C412.21 319.327 412.633 320.029 412.873 320.52C411.902 320.164 410.96 319.674 410.941 319.375C410.931 319.279 411.085 319.193 411.171 319.154C411.229 319.125 411.296 319.106 411.354 319.097Z" fill="#E527BB"/>
<path d="M450.587 320.856C450.577 320.327 444.049 320.741 444.049 320.741C444.049 320.741 440.03 324.827 436.126 325.74C432.222 326.654 434.405 329 438.761 329C443.116 329 446.452 329 449.548 329C452.654 329.009 450.721 326.365 450.587 320.856Z" fill="#E527BB"/>
<path d="M440.626 322.414C441.539 322.414 442.991 321.75 443.328 321.587C443.347 321.577 443.366 321.558 443.385 321.539C443.395 321.529 443.405 321.52 443.405 321.5C443.424 321.462 443.424 321.414 443.414 321.366C443.395 321.298 442.847 319.779 441.953 319.404C441.674 319.289 441.386 319.299 441.107 319.424C440.809 319.568 440.664 319.75 440.674 319.972C440.693 320.318 441.155 320.664 441.693 320.943C441.145 320.885 440.578 320.904 440.232 321.106C440.049 321.212 439.934 321.356 439.886 321.548C439.79 321.933 439.915 322.145 440.04 322.241C440.184 322.366 440.386 322.414 440.626 322.414ZM442.732 321.481C441.77 321.885 440.578 322.25 440.27 321.991C440.241 321.971 440.165 321.904 440.232 321.645C440.261 321.548 440.318 321.472 440.414 321.414C440.876 321.145 442.001 321.318 442.732 321.481ZM441.568 319.683C441.655 319.683 441.741 319.702 441.828 319.741C442.309 319.943 442.722 320.654 442.953 321.145C441.982 320.779 441.049 320.27 441.039 319.972C441.03 319.885 441.184 319.799 441.27 319.75C441.366 319.702 441.462 319.683 441.568 319.683Z" fill="#E527BB"/>
</g>
<defs>
<clipPath id="clip0_2341_11270">
<rect width="542.64" height="328.79" fill="white"/>
</clipPath>
</defs>
</svg>
