<svg width="19" height="22" viewBox="0 0 19 22" fill="none" xmlns="http://www.w3.org/2000/svg">
<path d="M8.05273 0C8.7909 0 9.40279 0.533969 9.52734 1.23633H14.7666C15.5063 1.23645 16.1055 1.83646 16.1055 2.57617V4.38965C16.1054 4.56029 15.9675 4.69902 15.7969 4.69922C15.6261 4.69922 15.4874 4.56042 15.4873 4.38965V2.57617C15.4873 2.17817 15.1646 1.85559 14.7666 1.85547H11.6172V2.47266H14.3545C14.6391 2.47275 14.8701 2.70368 14.8701 2.98828V10.3486C15.0797 10.395 15.2867 10.4566 15.4883 10.5361V5.83398C15.4883 5.66313 15.627 5.52441 15.7979 5.52441C15.9687 5.52441 16.1074 5.66313 16.1074 5.83398V10.8438C16.3835 11.0113 16.6443 11.2146 16.8828 11.4531C18.4851 13.0558 18.4852 15.6532 16.8828 17.2559C16.6445 17.4942 16.3832 17.6958 16.1074 17.8633V19.7793C16.1073 20.519 15.5073 21.1191 14.7676 21.1191H1.33984C0.600125 21.1191 9.90063e-05 20.519 0 19.7793V2.57617C0 1.83639 0.600064 1.23633 1.33984 1.23633H6.57812C6.70263 0.533975 7.31471 0.000139062 8.05273 0ZM1.33984 1.85547C0.94177 1.85547 0.619141 2.1781 0.619141 2.57617V19.7793C0.61924 20.1773 0.941831 20.5 1.33984 20.5H14.7676C15.1656 20.5 15.4882 20.1773 15.4883 19.7793V18.1709C15.2868 18.2504 15.0805 18.313 14.8711 18.3594V19.3672C14.8711 19.6518 14.6401 19.8828 14.3555 19.8828H1.75195C1.4673 19.8828 1.23633 19.6518 1.23633 19.3672V8.60059C1.23646 8.42984 1.37513 8.29102 1.5459 8.29102C1.71667 8.29102 1.85534 8.42984 1.85547 8.60059V19.2637H14.252V18.4473C13.3006 18.5101 12.332 18.2446 11.5312 17.6475H6.7002C6.52934 17.6475 6.39062 17.5087 6.39062 17.3379C6.39066 17.1671 6.52936 17.0283 6.7002 17.0283H10.8682C10.4417 16.5329 10.1531 15.9601 10.002 15.3594H6.7002C6.52934 15.3594 6.39062 15.2207 6.39062 15.0498C6.39066 14.879 6.52936 14.7402 6.7002 14.7402H9.89453C9.84193 14.1799 9.90496 13.6109 10.082 13.0713H6.7002C6.52934 13.0713 6.39062 12.9326 6.39062 12.7617C6.39062 12.5909 6.52934 12.4521 6.7002 12.4521H10.3438C10.532 12.0924 10.7768 11.7544 11.0791 11.4521C11.9493 10.5821 13.1126 10.1849 14.251 10.2598V3.0918H11.5898C11.4979 3.44666 11.1767 3.7088 10.793 3.70898H5.31348C4.92961 3.70898 4.60777 3.44679 4.51562 3.0918H1.85547V7.15723C1.85527 7.32791 1.71663 7.4668 1.5459 7.4668C1.37517 7.4668 1.23653 7.32791 1.23633 7.15723V2.98828C1.23633 2.70363 1.4673 2.47266 1.75195 2.47266H4.48828V1.85547H1.33984ZM5.0957 16.4639C5.21653 16.3432 5.41244 16.3431 5.5332 16.4639C5.65378 16.5846 5.6538 16.7806 5.5332 16.9014L4.4043 18.0303C4.28354 18.151 4.08761 18.1509 3.9668 18.0303L3.23926 17.3027C3.11846 17.1819 3.11849 16.986 3.23926 16.8652C3.36007 16.7444 3.55595 16.7444 3.67676 16.8652L4.18555 17.374L5.0957 16.4639ZM16.4453 11.8896C15.0842 10.5288 12.8777 10.5288 11.5166 11.8896C10.1555 13.2507 10.1557 15.4572 11.5166 16.8184C12.8777 18.1794 15.0842 18.1794 16.4453 16.8184C17.8062 15.4573 17.8063 13.2507 16.4453 11.8896ZM13.9805 11.4053C15.6092 11.4053 16.9296 12.7258 16.9297 14.3545C16.9295 15.9831 15.6091 17.3037 13.9805 17.3037C12.7034 17.3037 11.6164 16.4917 11.2061 15.3574C11.1482 15.1969 11.2321 15.02 11.3926 14.9619C11.5532 14.9039 11.73 14.9868 11.7881 15.1475C12.1127 16.0446 12.9724 16.6855 13.9805 16.6855C15.2674 16.6855 16.3103 15.6414 16.3105 14.3545C16.3104 13.0675 15.2675 12.0244 13.9805 12.0244C12.8592 12.0244 11.9224 12.8165 11.7002 13.8721C11.6649 14.039 11.501 14.1463 11.334 14.1113C11.1669 14.0762 11.0598 13.9122 11.0947 13.7451C11.3757 12.409 12.5604 11.4053 13.9805 11.4053ZM5.0957 14.1758C5.21653 14.0551 5.41244 14.055 5.5332 14.1758C5.65378 14.2966 5.6538 14.4925 5.5332 14.6133L4.4043 15.7422C4.34632 15.8001 4.26752 15.833 4.18555 15.833C4.10359 15.833 4.0248 15.8001 3.9668 15.7422L3.23926 15.0146C3.11846 14.8939 3.11849 14.698 3.23926 14.5771C3.36007 14.4563 3.55595 14.4563 3.67676 14.5771L4.18555 15.0859L5.0957 14.1758ZM13.9814 12.499C14.1522 12.499 14.2909 12.6378 14.291 12.8086V14.0449H15.1396C15.3104 14.0449 15.4491 14.1837 15.4492 14.3545C15.449 14.5252 15.3104 14.6631 15.1396 14.6631H13.9814C13.8107 14.6631 13.672 14.5252 13.6719 14.3545V12.8086C13.672 12.6378 13.8107 12.499 13.9814 12.499ZM5.0957 11.8877C5.21653 11.767 5.41244 11.7669 5.5332 11.8877C5.65378 12.0085 5.6538 12.2044 5.5332 12.3252L4.4043 13.4541C4.34632 13.5121 4.26752 13.5449 4.18555 13.5449C4.10359 13.5449 4.02479 13.512 3.9668 13.4541L3.23926 12.7266C3.11847 12.6058 3.11852 12.4099 3.23926 12.2891C3.36007 12.1683 3.55595 12.1682 3.67676 12.2891L4.18555 12.7979L5.0957 11.8877ZM6.32227 4.40332C6.5485 4.40336 6.75256 4.5309 6.85352 4.72754L6.88965 4.81641L6.98926 5.12109C7.10371 5.16012 7.21486 5.20701 7.32227 5.25977L7.61035 5.11426L7.69824 5.07812C7.87867 5.01998 8.07678 5.05122 8.23047 5.16211L8.30371 5.22461L8.65527 5.57617C8.81518 5.73608 8.86926 5.9703 8.80176 6.18066L8.76562 6.26953L8.61914 6.55469C8.67226 6.66259 8.7185 6.7745 8.75781 6.88965L9.06348 6.98926C9.30935 7.06919 9.47559 7.29889 9.47559 7.55762V8.05566C9.47545 8.31413 9.30938 8.54312 9.06348 8.62305L8.75781 8.72266C8.71861 8.83753 8.67119 8.94886 8.61816 9.05664L8.76562 9.34375C8.88282 9.57414 8.83803 9.85435 8.65527 10.0371L8.30371 10.3887C8.12095 10.5712 7.84062 10.6162 7.61035 10.499L7.32324 10.3516C7.21557 10.4045 7.10414 10.452 6.98926 10.4912L6.88965 10.7969C6.80964 11.0425 6.58084 11.2089 6.32227 11.209H5.82422C5.5658 11.2088 5.33578 11.0427 5.25586 10.7969L5.15625 10.4912C5.04126 10.4519 4.92917 10.4057 4.82129 10.3525L4.53613 10.499C4.30577 10.6161 4.02548 10.5714 3.84277 10.3887L3.49121 10.0371C3.3086 9.8544 3.26382 9.57406 3.38086 9.34375L3.52637 9.05566C3.47362 8.94827 3.42677 8.83722 3.3877 8.72266L3.08301 8.62305C2.83727 8.54303 2.67005 8.31403 2.66992 8.05566V7.55762C2.66992 7.29916 2.83723 7.06934 3.08301 6.98926L3.3877 6.88965C3.42684 6.77496 3.47345 6.66328 3.52637 6.55566L3.38086 6.26953C3.26352 6.0392 3.30862 5.75902 3.49121 5.57617L3.84277 5.22461L3.91602 5.16211C4.09513 5.03288 4.33459 5.0117 4.53613 5.11426L4.82227 5.25977C4.92977 5.2069 5.04156 5.16026 5.15625 5.12109L5.25586 4.81641L5.29297 4.72754C5.39387 4.53112 5.59805 4.40348 5.82422 4.40332H6.32227ZM5.74316 5.32031C5.68612 5.49539 5.54979 5.64238 5.36621 5.7041C5.26957 5.7366 5.17516 5.77536 5.08496 5.82031C4.91275 5.90603 4.71384 5.89945 4.55078 5.81641L4.26855 5.67285L3.93945 6.00195L4.08301 6.28418C4.16616 6.44746 4.17268 6.64621 4.08691 6.81836C4.04195 6.90859 4.00321 7.00288 3.9707 7.09961C3.90889 7.28316 3.76215 7.41965 3.58691 7.47656L3.28906 7.57227V8.04004L3.58691 8.13672L3.65137 8.16211C3.77672 8.21937 3.8819 8.3187 3.94336 8.44727L3.9707 8.51367L4.02441 8.65625C4.0439 8.70318 4.06437 8.74969 4.08691 8.79492C4.1727 8.96706 4.16592 9.16506 4.08301 9.32812L3.93945 9.61035L4.26855 9.93945L4.55078 9.79688L4.61426 9.76953C4.74252 9.72178 4.88631 9.71749 5.01953 9.76465L5.08496 9.79297L5.22266 9.85547C5.26952 9.87493 5.31777 9.89289 5.36621 9.90918C5.52695 9.96324 5.65107 10.0822 5.71777 10.2285L5.74316 10.293L5.83984 10.5908H6.30664L6.40332 10.292C6.46036 10.1171 6.59687 9.97094 6.78027 9.90918L6.92285 9.85547C6.96967 9.83603 7.01639 9.81545 7.06152 9.79297C7.21216 9.71786 7.38267 9.71386 7.53223 9.76953L7.59473 9.79688L7.87695 9.93945L8.20605 9.61035L8.06348 9.32812C7.9805 9.16499 7.97402 8.9669 8.05957 8.79492L8.12207 8.65625C8.14144 8.60958 8.15956 8.5619 8.17578 8.51367C8.23745 8.33003 8.38438 8.19376 8.55957 8.13672L8.85742 8.03906V7.57324L8.55957 7.47656H8.55859C8.38372 7.41946 8.23749 7.28299 8.17578 7.09961C8.14327 7.00286 8.10456 6.90866 8.05957 6.81836C7.9737 6.64617 7.98053 6.4473 8.06348 6.28418L8.20605 6.00195L7.87695 5.67285L7.59473 5.81641C7.43161 5.89918 7.23339 5.90592 7.06152 5.82031C7.01637 5.79781 6.96969 5.77725 6.92285 5.75781L6.78027 5.7041C6.59664 5.64234 6.46026 5.49558 6.40332 5.32031L6.30664 5.02246H5.83984L5.74316 5.32031ZM4.76562 7.51074C4.92874 6.78873 5.64704 6.33512 6.36914 6.49805C7.0913 6.66103 7.54474 7.37938 7.38184 8.10156C7.21883 8.8235 6.50128 9.27687 5.7793 9.11426C5.05707 8.9513 4.60267 8.23297 4.76562 7.51074ZM12.8799 8.4248C13.0505 8.42505 13.1885 8.56368 13.1885 8.73438C13.1885 8.90508 13.0505 9.0437 12.8799 9.04395H10.5166C10.3458 9.04394 10.207 8.90522 10.207 8.73438C10.207 8.56353 10.3458 8.42481 10.5166 8.4248H12.8799ZM6.23242 7.10254C5.84365 7.01499 5.45787 7.25871 5.37012 7.64746C5.2824 8.03629 5.52626 8.42194 5.91504 8.50977C6.30391 8.59747 6.69058 8.35371 6.77832 7.96484C6.86582 7.5761 6.62115 7.19028 6.23242 7.10254ZM12.8799 6.56836C13.0504 6.56861 13.1883 6.70735 13.1885 6.87793C13.1885 7.04863 13.0505 7.18725 12.8799 7.1875H10.5166C10.3458 7.18743 10.207 7.04874 10.207 6.87793C10.2072 6.70724 10.3459 6.56843 10.5166 6.56836H12.8799ZM8.05273 0.619141C7.56652 0.619297 7.17285 1.01372 7.17285 1.5C7.17261 1.69614 7.0126 1.85547 6.81641 1.85547H5.10742V2.77148C5.10754 2.77494 5.1084 2.77875 5.1084 2.78223C5.10839 2.7855 5.10753 2.78874 5.10742 2.79199V2.88477C5.10766 2.99848 5.1997 3.09082 5.31348 3.09082H10.793C10.9066 3.0906 10.9988 2.99835 10.999 2.88477V2.79199C10.9989 2.78874 10.9981 2.7855 10.998 2.78223C10.998 2.77877 10.9989 2.77492 10.999 2.77148V1.85547H9.28906C9.09297 1.85543 8.93383 1.69611 8.93359 1.5C8.93359 1.01365 8.53911 0.619141 8.05273 0.619141Z" fill="url(#paint0_linear_2372_6204)"/>
<defs>
<linearGradient id="paint0_linear_2372_6204" x1="12.1847" y1="13.828" x2="12.1847" y2="20.913" gradientUnits="userSpaceOnUse">
<stop stop-color="#E527BB"/>
<stop offset="1" stop-color="#A78BEF"/>
</linearGradient>
</defs>
</svg>
