<svg width="543" height="329" viewBox="0 0 543 329" fill="none" xmlns="http://www.w3.org/2000/svg">
<g clip-path="url(#clip0_2341_10882)">
<path opacity="0.2" d="M128.578 325.793L413.421 309.284C488.741 304.922 547.021 241.664 543.879 166.964C541.237 104.191 518.542 37.3242 442.21 8.74895C388.524 -11.3489 318.807 5.10021 274.587 38.5239C263.96 46.5551 254.193 55.7662 242.775 62.6373C216.167 78.6501 192.802 67.5948 165.083 63.3413C106.483 54.3285 47.9939 72.8399 17.7134 126.352C-28.778 208.567 26.059 331.732 128.578 325.793Z" fill="#999999"/>
<g clip-path="url(#clip1_2341_10882)">
<path d="M424.03 53.52V247.72C424.03 251.76 420.75 255.04 416.72 255.04H134.5C130.46 255.04 127.18 251.76 127.18 247.72V53.52C127.18 49.48 130.46 46.2 134.5 46.2H416.72C420.76 46.2 424.03 49.48 424.03 53.52Z" fill="white"/>
<path d="M416.719 255.36H134.499C130.289 255.36 126.859 251.93 126.859 247.72V53.5199C126.859 49.3099 130.289 45.8799 134.499 45.8799H416.719C420.929 45.8799 424.349 49.3099 424.349 53.5199V247.72C424.349 251.94 420.929 255.36 416.719 255.36ZM134.499 46.5199C130.639 46.5199 127.499 49.6599 127.499 53.5199V247.72C127.499 251.58 130.639 254.72 134.499 254.72H416.719C420.579 254.72 423.709 251.58 423.709 247.72V53.5199C423.709 49.6599 420.569 46.5199 416.719 46.5199H134.499Z" fill="#9192FF"/>
<path d="M424.03 53.52V65.04H127.18V53.52C127.18 49.48 130.46 46.2 134.5 46.2H416.72C420.76 46.2 424.03 49.48 424.03 53.52Z" fill="white"/>
<path d="M424.349 65.3599H126.859V53.5199C126.859 49.3099 130.289 45.8799 134.499 45.8799H416.719C420.929 45.8799 424.349 49.3099 424.349 53.5199V65.3599ZM127.499 64.7299H423.709V53.5299C423.709 49.6699 420.569 46.5299 416.719 46.5299H134.499C130.639 46.5299 127.499 49.6699 127.499 53.5299V64.7299Z" fill="#E527BB"/>
<path d="M143.668 59.03C145.551 59.03 147.078 57.5033 147.078 55.62C147.078 53.7367 145.551 52.21 143.668 52.21C141.785 52.21 140.258 53.7367 140.258 55.62C140.258 57.5033 141.785 59.03 143.668 59.03Z" fill="#E527BB"/>
<path d="M156.652 52.22C154.772 52.22 153.242 53.75 153.242 55.63C153.242 57.51 154.772 59.04 156.652 59.04C158.532 59.04 160.062 57.51 160.062 55.63C160.062 53.75 158.532 52.22 156.652 52.22Z" fill="#A78BEF"/>
<path d="M169.637 59.03C167.757 59.03 166.227 57.5 166.227 55.62C166.227 53.74 167.757 52.21 169.637 52.21C171.517 52.21 173.047 53.74 173.047 55.62C173.037 57.5 171.517 59.03 169.637 59.03ZM169.637 52.86C168.107 52.86 166.867 54.1 166.867 55.63C166.867 57.16 168.107 58.4 169.637 58.4C171.167 58.4 172.407 57.16 172.407 55.63C172.407 54.1 171.157 52.86 169.637 52.86Z" fill="#E527BB"/>
<path d="M253.452 59.4198H190.142C188.052 59.4198 186.352 57.7198 186.352 55.6298C186.352 53.5398 188.052 51.8398 190.142 51.8398H253.452C255.542 51.8398 257.242 53.5398 257.242 55.6298C257.242 57.7198 255.542 59.4198 253.452 59.4198ZM190.142 52.4698C188.402 52.4698 186.992 53.8798 186.992 55.6198C186.992 57.3598 188.402 58.7698 190.142 58.7698H253.452C255.192 58.7698 256.602 57.3598 256.602 55.6198C256.602 53.8798 255.192 52.4698 253.452 52.4698H190.142Z" fill="#E527BB"/>
<path d="M333.959 155.42C333.959 186 309.169 210.79 278.589 210.79C248.009 210.79 223.219 186 223.219 155.42C223.219 126.73 245.039 103.14 272.989 100.33L274.839 118.5C256.109 120.38 241.489 136.2 241.489 155.42C241.489 175.92 258.099 192.53 278.589 192.53C299.079 192.53 315.679 175.92 315.679 155.42C315.679 151.84 315.179 148.39 314.229 145.12L331.789 140.05C333.209 144.92 333.959 150.08 333.959 155.42Z" fill="#A78BEF"/>
<path d="M278.585 200.13C303.278 200.13 323.295 180.113 323.295 155.42C323.295 130.727 303.278 110.71 278.585 110.71C253.892 110.71 233.875 130.727 233.875 155.42C233.875 180.113 253.892 200.13 278.585 200.13Z" fill="white"/>
<path d="M278.585 200.13C303.278 200.13 323.295 180.113 323.295 155.42C323.295 130.727 303.278 110.71 278.585 110.71C253.892 110.71 233.875 130.727 233.875 155.42C233.875 180.113 253.892 200.13 278.585 200.13Z" fill="#E527BB"/>
<path d="M278.592 187.09C296.083 187.09 310.262 172.911 310.262 155.42C310.262 137.929 296.083 123.75 278.592 123.75C261.101 123.75 246.922 137.929 246.922 155.42C246.922 172.911 261.101 187.09 278.592 187.09Z" fill="white"/>
<path d="M282.2 170.99V175.81H276.08V171.21C271.74 170.95 267.54 169.78 264.93 168.17L268.23 160.71C271.09 162.4 274.91 163.49 278.25 163.49C281.16 163.49 282.2 162.88 282.2 161.84C282.2 158.02 265.41 161.1 265.41 149.78C265.41 144.88 268.97 140.76 276.08 139.76V135.03H282.2V139.67C285.41 139.97 288.53 140.8 291 142.19L287.92 149.61C284.92 148.09 282.11 147.35 279.46 147.35C276.46 147.35 275.51 148.22 275.51 149.26C275.51 152.91 292.3 149.87 292.3 161.06C292.31 165.74 288.93 169.82 282.2 170.99Z" fill="#E527BB"/>
<path d="M475.702 8.32007H355.242V81.9701H475.702V8.32007Z" fill="#E527BB"/>
<path d="M476.022 82.29H354.922V8H476.022V82.29ZM355.562 81.65H475.382V8.64H355.562V81.65Z" fill="#007CFF"/>
<path d="M377.344 58.53H370.414V71.26H377.344V58.53Z" fill="#A78BEF"/>
<path d="M391.203 52.71H384.273V71.26H391.203V52.71Z" fill="#A78BEF"/>
<path d="M405.071 57.47H398.141V71.26H405.071V57.47Z" fill="#A78BEF"/>
<path d="M418.938 47.76H412.008V71.26H418.938V47.76Z" fill="#A78BEF"/>
<path d="M432.805 41.55H425.875V71.26H432.805V41.55Z" fill="#A78BEF"/>
<path d="M446.672 32.6899H439.742V71.2599H446.672V32.6899Z" fill="#A78BEF"/>
<path d="M460.532 19.03H453.602V71.26H460.532V19.03Z" fill="#A78BEF"/>
<path d="M375.924 25.23H370.414V31.47H375.924V25.23Z" fill="#E527BB"/>
<path d="M421.747 28.1199H384.438V29.7199H421.747V28.1199Z" fill="#E527BB"/>
<path d="M367.308 119.32L359.678 98.25C351.058 101.37 344.898 109.63 344.898 119.32C344.898 131.7 354.928 141.73 367.308 141.73C379.688 141.73 389.718 131.7 389.718 119.32C389.718 115.6 388.808 112.09 387.198 109L367.308 119.32Z" fill="#E527BB"/>
<path d="M390.176 101.01C386.446 93.8299 378.936 88.9199 370.286 88.9199C367.606 88.9199 365.036 89.3899 362.656 90.2499L370.286 111.32L390.176 101.01Z" fill="#A78BEF"/>
<path d="M399.033 191.13H346.023V241.59H399.033V191.13Z" fill="#A78BEF"/>
<path d="M384.02 204.54H354.32V206.67H384.02V204.54Z" fill="white"/>
<path d="M384.02 210.93H354.32V213.06H384.02V210.93Z" fill="white"/>
<path d="M196.678 94.6899H150.578V172.61H196.678V94.6899Z" fill="#E527BB"/>
<path d="M187.839 105.97H157.609V133.65H187.839V105.97Z" fill="#E527BB"/>
<path d="M172.737 126.51H67.2969V195.98H172.737V126.51Z" fill="#E527BB"/>
<path d="M173.05 196.28H67V126.2H173.05V196.28ZM67.61 195.67H172.44V126.81H67.61V195.67Z" fill="#007CFF"/>
<path d="M78.4141 179.2L85.2341 166.43L99.2841 179.63L108.644 152.38L126.104 171.54L137.604 166.86L158.464 139.61" stroke="white" stroke-miterlimit="10"/>
<path d="M99.4228 180.2L85.3128 166.95L78.7028 179.35L78.1328 179.05L85.1428 165.91L99.1428 179.06L108.523 151.77L126.193 171.16L137.403 166.59L158.213 139.41L158.713 139.8L137.803 167.12L126.023 171.92L125.873 171.76L108.773 152.99L99.4228 180.2Z" fill="#9192FF" stroke="white" stroke-miterlimit="10"/>
<path d="M85.2834 168.14C86.2555 168.14 87.0434 167.352 87.0434 166.38C87.0434 165.408 86.2555 164.62 85.2834 164.62C84.3114 164.62 83.5234 165.408 83.5234 166.38C83.5234 167.352 84.3114 168.14 85.2834 168.14Z" fill="#007CFF"/>
<path d="M99.1741 181.07C100.146 181.07 100.934 180.282 100.934 179.31C100.934 178.338 100.146 177.55 99.1741 177.55C98.202 177.55 97.4141 178.338 97.4141 179.31C97.4141 180.282 98.202 181.07 99.1741 181.07Z" fill="#007CFF"/>
<path d="M108.752 154.25C109.724 154.25 110.512 153.462 110.512 152.49C110.512 151.518 109.724 150.73 108.752 150.73C107.78 150.73 106.992 151.518 106.992 152.49C106.992 153.462 107.78 154.25 108.752 154.25Z" fill="#007CFF"/>
<path d="M97.6719 137.9H142.382" stroke="white" stroke-miterlimit="10"/>
<path d="M142.382 137.58H97.6719V138.22H142.382V137.58Z" fill="#9192FF" stroke="white" stroke-miterlimit="10"/>
<path d="M317.986 294.43C316.096 282.04 318.696 269.02 325.196 258.31C331.696 247.6 342.046 239.28 353.896 235.23C347.186 239.93 343.086 247.53 340.226 255.21C337.366 262.89 335.486 270.95 331.966 278.35C328.436 285.75 322.876 292.66 315.156 295.43L317.986 294.43Z" fill="#39B039"/>
<path d="M316.13 294.53C315.86 280.22 313.08 265.95 307.95 252.58C306.13 247.83 303.95 243.1 300.4 239.46C296.85 235.82 291.69 233.42 286.68 234.31C292.91 238.98 296.14 246.65 297.96 254.22C299.78 261.79 300.48 269.65 303.04 277C305.6 284.35 310.5 291.44 317.83 294.07L316.13 294.53Z" fill="#39B039"/>
<path d="M315.156 295.47C311.596 285.87 307.716 276.03 300.556 268.72C293.386 261.41 282.036 257.23 272.656 261.31C280.256 263.03 287.226 267.43 292.046 273.56C295.576 278.05 297.956 283.38 301.596 287.79C305.236 292.2 310.776 295.75 316.396 294.7L315.156 295.47Z" fill="#21CC76"/>
<path d="M314.014 294.82C312.554 284.29 311.094 273.59 312.634 263.06C314.174 252.53 319.144 242.03 328.064 236.24C323.134 241.08 321.484 248.41 321.484 255.32C321.484 262.23 322.884 269.08 322.994 275.99C323.114 282.9 321.744 290.24 317.064 295.33L314.014 294.82Z" fill="#21CC76"/>
<path d="M318.945 293.28C322.365 284.58 326.005 275.54 332.955 269.29C337.425 265.28 343.115 262.65 349.065 261.84C344.895 265.17 342.285 270.05 340.115 274.92C337.945 279.8 336.075 284.88 332.945 289.19C329.815 293.5 325.095 297.06 319.765 297.29L318.945 293.28Z" fill="#21CC76"/>
<path d="M336.298 319.77H297.928L292.008 290.25H342.208L336.298 319.77Z" fill="#F4063F"/>
<path d="M336.555 320.09H297.665L291.625 289.94H342.605L336.555 320.09ZM298.185 319.45H336.025L341.815 290.57H292.395L298.185 319.45Z" fill="#9192FF"/>
<path d="M404.979 302.02V319.77H381.969L392.509 311.17L393.059 300.35L404.979 302.02Z" fill="#E527BB"/>
<path d="M392.738 310.934L392.297 311.398L396.688 315.574L397.129 315.111L392.738 310.934Z" fill="#1B1B43"/>
<path d="M402.755 306.73H394.875V307.37H402.755V306.73Z" fill="#1B1B43"/>
<path d="M431.875 302.85L432.715 319.77H409.695L419.395 311.45V301.19L431.875 302.85Z" fill="#E527BB"/>
<path d="M419.603 311.18L419.18 311.66L422.755 314.818L423.178 314.338L419.603 311.18Z" fill="#1B1B43"/>
<path d="M429.786 307.05H422.016V307.69H429.786V307.05Z" fill="#1B1B43"/>
<path d="M407.297 200C407.697 235.37 410.627 270.17 416.227 304.37H435.617C431.587 278.21 429.757 246.44 432.017 204.32L418.007 192.85L407.297 200Z" fill="black"/>
<path d="M391.965 204.68L383.185 243.71C381.075 253.09 380.925 262.8 382.755 272.24L388.915 304.12H408.305L402.435 262.27L416.475 198.47L391.965 204.68Z" fill="black"/>
<path d="M408.606 242.08C408.556 241.28 407.456 223.33 407.336 221.05L402.266 219.21L402.486 218.61L407.966 220.6V220.82C407.966 221.21 408.806 234.87 409.246 242.04L408.606 242.08Z" fill="#606060"/>
<path d="M450.598 116.56L451.638 114.09C451.638 114.09 447.888 106.19 449.088 105.15C450.288 104.11 452.198 107.07 452.198 107.07C452.198 107.07 451.638 97.49 453.478 97.41C455.028 97.34 454.918 100.12 455.078 104.28C455.078 104.28 456.038 103 457.798 104.32C458.588 103 460.268 103.88 460.748 104.68C461.308 104.04 463.618 104.2 463.298 106.92C462.898 110.36 461.298 116.74 461.298 116.74L456.188 120.97L450.598 116.56Z" fill="#FFBC96"/>
<path d="M409.57 149.61L417.34 149.55C430.97 148.33 441.61 137.26 441.61 137.26L450.6 116.56L461.3 116.72L455.02 141.05C454.12 144.54 452.18 147.68 449.45 150.05L427.13 169.41L409.57 149.61Z" fill="#E527BB"/>
<path d="M388.266 167.23L391.966 204.68L432.026 204.33L430.636 159.19L409.566 149.61L394.976 155.79L388.266 167.23Z" fill="#E527BB"/>
<path d="M363.467 170.87C362.817 170.29 361.987 169.94 361.117 169.86C356.687 169.49 342.847 168.42 342.977 169.5C343.137 170.78 353.677 175.57 353.677 175.57C355.927 178.11 358.187 180.64 360.437 183.18L366.627 173.69L363.467 170.87Z" fill="#FFBC96"/>
<path d="M393.655 153.22C390.805 153.72 388.345 155.53 387.035 158.11L375.235 181.31L366.635 173.68L360.445 183.17C361.195 184.02 361.955 184.87 362.705 185.71C366.045 189.47 369.945 194.53 375.175 195.63C377.835 196.19 380.315 195.08 382.215 193.25C383.615 191.91 384.865 190.25 385.865 188.59L390.575 180.83L405.585 151.13L393.655 153.22Z" fill="#E527BB"/>
<path d="M388.574 167.219L387.938 167.281L390.178 190.322L390.815 190.261L388.574 167.219Z" fill="#D1D1FF"/>
<path d="M430.875 166.06L427.125 169.41L431.115 176.04L430.875 166.06Z" fill="#1B1B43"/>
<path d="M456.456 109.03C454.946 109.03 454.836 107.06 454.836 104.27H455.316C455.316 107.55 455.586 108.55 456.466 108.55C456.636 108.55 456.796 108.48 456.926 108.34C457.356 107.88 457.516 106.81 457.566 105.85C457.536 105.16 457.546 104.55 457.556 104.3L458.036 104.29C458.036 104.35 458.086 104.99 458.046 105.79C458.116 107.09 458.336 108.38 458.766 108.51C459.006 108.58 459.216 108.55 459.406 108.42C459.926 108.05 460.216 106.99 460.366 106.05C460.376 105.65 460.426 105.18 460.506 104.63L460.986 104.67C460.986 104.72 460.966 105.27 460.866 105.96C460.836 106.96 460.946 107.92 461.346 108.09C461.646 108.22 461.886 108.21 462.096 108.09C462.646 107.75 462.846 106.63 462.876 106.22L463.356 106.26C463.346 106.33 463.216 107.97 462.346 108.5C462.006 108.71 461.606 108.72 461.156 108.54C461.046 108.49 460.696 108.29 460.496 107.54C460.306 108.08 460.046 108.55 459.686 108.81C459.376 109.04 459.016 109.09 458.626 108.97C458.206 108.84 457.946 108.31 457.786 107.63C457.666 108.05 457.506 108.41 457.266 108.66C457.036 108.91 456.766 109.03 456.456 109.03Z" fill="#D28572"/>
<path d="M406.184 158.7C402.784 158.97 399.804 156.44 399.524 153.04L399.454 152.18L398.484 140.13L405.984 139.53L410.804 139.14L411.834 152.04C412.114 155.45 409.584 158.43 406.184 158.7Z" fill="#FFBC96"/>
<path d="M408.394 143.6C406.054 147.72 402.714 150.68 399.454 152.18L398.484 140.13L405.984 139.53L408.394 143.6Z" fill="#1B1B43"/>
<path d="M410.84 130.98L409.35 143.54C409.35 143.54 404.56 148.12 397.53 147.9C394.97 147.82 393.46 145.4 392.58 142.31C392.22 141.02 391.96 139.62 391.78 138.22C391.19 133.6 391.46 129.05 391.46 129.05L402.32 125.44L410.84 130.98Z" fill="#FFBC96"/>
<path d="M409.188 136.15C408.058 132.12 406.028 130.09 403.278 129.66C394.548 134.4 388.878 131.58 384.758 126.31C394.868 128.28 399.288 113.91 408.978 123.49C416.168 125.67 416.028 132.54 411.958 138.13L409.188 136.15Z" fill="black"/>
<path d="M413.681 137.703C414.051 135.806 413.02 134.008 411.378 133.688C409.736 133.367 408.104 134.645 407.733 136.542C407.363 138.439 408.394 140.237 410.036 140.557C411.678 140.878 413.31 139.6 413.681 137.703Z" fill="#FFBC96"/>
<path d="M411.838 135.8C411.338 135.88 411.018 136.26 410.768 136.69C410.528 137.13 410.378 137.61 410.278 138.14L410.088 138.15C410.008 137.87 410.008 137.57 410.058 137.28C410.108 136.99 410.208 136.71 410.348 136.45C410.498 136.19 410.688 135.95 410.958 135.78C411.218 135.61 411.548 135.52 411.848 135.6L411.838 135.8Z" fill="#1B1B43"/>
<path d="M228.5 215.07H184.07V218.06H228.5V215.07Z" fill="#007CFF"/>
<path d="M228.497 215.08H190.977L205.187 180.43H242.707L228.497 215.08Z" fill="white"/>
<path d="M228.72 215.4H190.5L204.97 180.11H243.18L228.72 215.4ZM191.46 214.76H228.29L242.24 180.75H205.41L191.46 214.76Z" fill="#007CFF"/>
<path d="M225.263 212.16H195.773L206.943 184.93H236.433L225.263 212.16Z" fill="#EBEBFF"/>
<path d="M213.57 219.02H212.93V319.92H213.57V219.02Z" fill="#1B1B43"/>
<path d="M249.076 218.07H177.406V223.77H249.076V218.07Z" fill="#F8B200"/>
<path d="M119.57 261.41H118.93V319.93H119.57V261.41Z" fill="#1B1B43"/>
<path d="M136.779 264.12H101.719C102.459 260.56 105.599 258.01 109.239 258.01H129.259C132.899 258.01 136.029 260.56 136.779 264.12Z" fill="#A78BEF"/>
<path d="M128.348 319.76H110.148V319.73C110.148 317.53 111.928 315.75 114.128 315.75H124.368C126.568 315.75 128.348 317.53 128.348 319.73V319.76Z" fill="#A78BEF"/>
<path d="M140.628 177.31H128.898V194.5H140.628V177.31Z" fill="#FFBC96"/>
<path d="M140.627 180.26V192.54C136.927 190.22 133.737 186.77 130.977 182.79L140.627 180.26Z" fill="#1B1B43"/>
<path d="M147.219 175.62C146.849 181.56 144.569 188.28 138.329 186.62C133.429 185.32 128.039 181.19 128.039 175.24C128.039 169.29 132.159 164.47 137.239 164.47C140.419 164.47 144.409 166.01 146.289 168.99C147.429 170.78 147.379 173.03 147.219 175.62Z" fill="#FFBC96"/>
<path d="M136.838 173.9C138.498 169.5 142.298 169.06 142.298 169.06C142.298 169.06 151.098 177.77 150.558 168.77C150.128 161.62 143.138 162.3 143.138 162.3C139.728 157.86 134.248 159.6 132.258 162.17C130.258 164.75 130.968 163.26 126.268 164.94C121.568 166.61 124.078 173.76 123.238 174.28C116.988 174.28 118.148 180.46 118.148 180.46L132.938 185.28L136.498 175.56L136.838 173.9Z" fill="black"/>
<path d="M137.823 178.545C139.043 177.841 139.29 175.987 138.376 174.404C137.462 172.821 135.733 172.108 134.513 172.812C133.293 173.516 133.046 175.371 133.96 176.954C134.874 178.537 136.603 179.249 137.823 178.545Z" fill="#FFBC96"/>
<path d="M136.488 176.31C136.278 175.91 136.108 175.52 135.828 175.25C135.688 175.11 135.528 175 135.348 174.9C135.168 174.8 134.968 174.72 134.758 174.62L134.788 174.45C135.018 174.44 135.258 174.46 135.498 174.54C135.728 174.62 135.958 174.75 136.138 174.94C136.318 175.12 136.448 175.34 136.528 175.57C136.608 175.8 136.658 176.03 136.658 176.26L136.488 176.31Z" fill="#1B1B43"/>
<path d="M130.966 165.669C133.708 165.539 135.816 163.028 135.676 160.06C135.535 157.092 133.199 154.791 130.457 154.921C127.715 155.051 125.606 157.562 125.747 160.53C125.887 163.498 128.224 165.799 130.966 165.669Z" fill="black"/>
<path d="M150.898 236.79L113.328 232L120.408 194.66C120.908 192.05 122.648 189.83 125.068 188.73C127.088 187.81 129.388 187.75 131.458 188.56L144.268 194.25C146.738 195.34 148.428 197.66 148.738 200.34L149.458 212.54L150.278 226.37L150.898 236.79Z" fill="#A78BEF"/>
<path d="M185.289 209.97L195.239 207.05C195.959 206.84 196.729 206.95 197.349 207.37C200.069 209.18 207.319 214.29 205.489 216.38C204.579 217.42 196.259 214.98 196.259 214.98L184.219 218.34L185.289 209.97Z" fill="#FFBC96"/>
<path d="M150.282 226.37C147.152 222.38 145.292 217.12 144.672 210.61L149.452 212.55L150.282 226.37Z" fill="#1B1B43"/>
<path d="M143.128 193.79L144.628 194.44C147.708 195.77 150.468 197.74 152.728 200.23L165.058 213.81L185.278 209.98L187.938 220.84L162.528 228.78C160.518 229.14 158.468 228.45 157.088 226.94L138.758 207L143.128 193.79Z" fill="#A78BEF"/>
<path d="M164.831 214.02C164.771 213.95 158.751 207.4 153.541 201.56C148.391 195.78 140.541 192.98 140.461 192.95L140.671 192.35C140.751 192.38 148.751 195.24 154.021 201.14C159.231 206.98 165.241 213.53 165.301 213.59L164.831 214.02Z" fill="#1B1B43"/>
<path d="M140.272 209.101L139.812 209.547L156.867 227.15L157.326 226.704L140.272 209.101Z" fill="#1B1B43"/>
<path d="M149.537 293.27L141.438 309.06L161.908 319.58L156.457 307.12L160.908 297.24L149.537 293.27Z" fill="#A78BEF"/>
<path d="M156.368 306.807L150.555 308.518L150.735 309.132L156.549 307.421L156.368 306.807Z" fill="#1B1B43"/>
<path d="M162.284 303.65L143.734 296.73L156.434 257.2C158.614 251.35 165.344 248.45 171.454 250.73C177.564 253.01 180.754 259.6 178.574 265.46L162.284 303.65Z" fill="black"/>
<path d="M180.273 300.98L182.083 319.77H205.103L194.563 311.17L192.093 300.34L180.273 300.98Z" fill="#A78BEF"/>
<path d="M194.409 310.874L188.953 313.881L189.262 314.442L194.718 311.434L194.409 310.874Z" fill="#1B1B43"/>
<path d="M196.885 303.21L176.765 306.4L162.985 265.9L160.475 258.51L126.265 258.78C117.805 258.97 111.075 251.72 111.905 243.29L113.325 232L147.175 236.26L169.425 238.71C178.685 240.31 181.525 245.91 183.455 253.12L196.885 303.21Z" fill="black"/>
<path d="M162.987 265.9L160.477 258.51L165.107 258.35C165.537 261.13 164.437 264.24 162.987 265.9Z" fill="#1B1B43"/>
<path d="M468.328 319.45H80.6484V320.09H468.328V319.45Z" fill="#1B1B43"/>
<path d="M192 115C192 125.495 183.495 134 173 134C162.505 134 154 125.495 154 115C154 104.505 162.505 96 173 96C183.495 96 192 104.505 192 115Z" fill="#A78BEF"/>
<path d="M188.693 115C188.693 106.53 181.828 99.6692 173.362 99.6692C164.892 99.6692 158.031 106.534 158.031 115C158.031 123.466 164.897 130.331 173.362 130.331C181.828 130.331 188.693 123.47 188.693 115Z" fill="white"/>
<path d="M173 103.047H173.358V100.284H173V103.047Z" fill="#E527BB"/>
<path d="M173 129.561H173.358V126.799H173V129.561Z" fill="#E527BB"/>
<path d="M162.025 115H158.953V114.664H162.025V115Z" fill="#E527BB"/>
<path d="M167.857 105.027L166 102.582L166.265 102.379L168.122 104.824L167.857 105.027Z" fill="#E527BB"/>
<path d="M178.484 104.775L180.452 102.415L180.708 102.627L178.741 104.987L178.484 104.775Z" fill="#E527BB"/>
<path d="M182.562 109.05L185.118 107.343L185.303 107.622L182.748 109.328L182.562 109.05Z" fill="#E527BB"/>
<path d="M165.977 126.825L167.9 124.429L168.16 124.637L166.237 127.033L165.977 126.825Z" fill="#E527BB"/>
<path d="M161.273 120.893L163.829 119.186L164.014 119.465L161.459 121.171L161.273 120.893Z" fill="#E527BB"/>
<path d="M183.168 120.004L185.829 121.538L185.661 121.83L183 120.296L183.168 120.004Z" fill="#E527BB"/>
<path d="M179.025 124.465L181.041 126.785L180.789 127.006L178.773 124.686L179.025 124.465Z" fill="#E527BB"/>
<path d="M164.38 109.187L161.648 107.785L161.803 107.489L164.535 108.891L164.38 109.187Z" fill="#E527BB"/>
<path d="M187.932 114.832H184.859V114.496H187.932V114.832Z" fill="#E527BB"/>
<path d="M173.359 115L177.532 106.424L179 105.58V107.114L173.709 115.482L173.359 115Z" fill="#E527BB"/>
<path d="M173.632 113.192L173.273 120.331C173.273 120.331 174.113 121.021 174.326 121.021C174.538 121.021 174.834 120.177 174.834 120.177L173.981 113.572L173.632 113.192Z" fill="#E527BB"/>
<path d="M174.693 115.217C174.693 115.804 174.216 116.282 173.628 116.282C173.04 116.282 172.562 115.804 172.562 115.217C172.562 114.629 173.04 114.151 173.628 114.151C174.216 114.151 174.693 114.629 174.693 115.217Z" fill="#E527BB"/>
<path d="M161.007 101.738C160.083 102.432 158.752 103.613 157.612 105.412C156.71 106.835 156.219 108.175 155.945 109.165C155.914 109.28 155.98 109.399 156.095 109.43C156.21 109.461 156.33 109.395 156.365 109.28C156.63 108.321 157.103 107.021 157.979 105.642C159.084 103.895 160.375 102.755 161.268 102.083C161.365 102.012 161.382 101.875 161.312 101.778C161.241 101.685 161.104 101.667 161.007 101.738Z" fill="#E527BB"/>
</g>
</g>
<defs>
<clipPath id="clip0_2341_10882">
<rect width="542.64" height="328.79" fill="white"/>
</clipPath>
<clipPath id="clip1_2341_10882">
<rect width="409.02" height="312.09" fill="white" transform="translate(67 8)"/>
</clipPath>
</defs>
</svg>
