<svg width="55" height="55" viewBox="0 0 55 55" fill="none" xmlns="http://www.w3.org/2000/svg">
<path d="M32.8201 17.8773L31.7233 16.7418C30.6391 15.6576 28.8613 15.7258 27.8632 16.8899C26.2066 18.8221 23.045 17.5125 23.2398 14.9748C23.3572 13.4459 22.1484 12.1406 20.615 12.1406H18.3272C16.7939 12.1406 15.585 13.4459 15.7024 14.9748C15.8972 17.5124 12.7356 18.822 11.079 16.8899C10.0809 15.7257 8.30315 15.6576 7.21892 16.7418L5.60121 18.3597C4.51698 19.4439 4.58509 21.2217 5.74924 22.2197C7.68151 23.8763 6.37189 27.038 3.83414 26.8431C2.30527 26.7256 1 27.9346 1 29.4679V31.7558C1 33.2891 2.30527 34.498 3.83414 34.3806C6.37178 34.1856 7.6814 37.3474 5.74924 39.004C4.58509 40.0021 4.51698 41.7798 5.60121 42.8641L7.21892 44.4818C8.30315 45.566 10.0809 45.4979 11.079 44.3337C12.7356 42.4015 15.8972 43.7111 15.7024 46.2488C15.585 47.7777 16.7939 49.083 18.3272 49.083H20.615C22.1484 49.083 23.3572 47.7777 23.2398 46.2488V44.1052" stroke="#DAA7EE" stroke-width="1.67199" stroke-miterlimit="10" stroke-linecap="round" stroke-linejoin="round"/>
<path d="M50.3652 22.8118C51.1349 22.042 51.0865 20.7799 50.26 20.0714C48.8882 18.8953 49.8181 16.6507 51.6196 16.7891C52.7051 16.8725 53.6317 16.0142 53.6317 14.9256V13.3013C53.6317 12.2127 52.7049 11.3544 51.6196 11.4378C49.818 11.5761 48.8882 9.33154 50.26 8.15546C51.0865 7.44687 51.1349 6.18474 50.3652 5.41507L49.2166 4.26652C48.4468 3.49673 47.1847 3.54511 46.4762 4.37163C45.3001 5.74344 43.0555 4.8137 43.1939 3.01208C43.2772 1.92662 42.4189 1 41.3304 1H39.7061C38.6175 1 37.7592 1.92673 37.8426 3.01208C37.9809 4.8137 35.7363 5.74344 34.5602 4.37163C33.8517 3.54522 32.5895 3.49684 31.8198 4.26652L30.6713 5.41507C29.9015 6.18485 29.9499 7.44698 30.7764 8.15546C32.1482 9.33154 31.2184 11.5761 29.4169 11.4378C28.3314 11.3544 27.4048 12.2127 27.4048 13.3013M35.9938 14.1134C35.9938 11.6147 38.0195 9.58903 40.5182 9.58903C43.017 9.58903 45.0426 11.6147 45.0426 14.1134" stroke="#DAA7EE" stroke-width="1.67199" stroke-miterlimit="10" stroke-linecap="round" stroke-linejoin="round"/>
<path d="M37.7915 32.8726L32.9301 34.5714C31.8854 35.0911 31.0804 36.1949 30.9204 37.0564" stroke="#DAA7EE" stroke-width="1.67199" stroke-miterlimit="10" stroke-linecap="round" stroke-linejoin="round"/>
<path d="M43.8272 32.8726L49.0555 34.7637C50.2281 35.1688 51.0635 36.2116 51.2028 37.4443L52.3193 46.9182C52.4627 49.4188 50.2684 51.4175 47.792 51.0419L39.8882 49.9795" stroke="#DAA7EE" stroke-width="1.67199" stroke-miterlimit="10" stroke-linecap="round" stroke-linejoin="round"/>
<path d="M29.4607 47.9297L27.2305 39.6167H36.8823L40.253 52.1796H32.0422" stroke="#DAA7EE" stroke-width="1.67199" stroke-miterlimit="10" stroke-linecap="round" stroke-linejoin="round"/>
<path d="M30.7862 53.626L30.0782 53.8918C29.2043 54.2198 28.2298 53.7773 27.9019 52.9034L27.017 50.5459C26.6889 49.672 27.1314 48.6975 28.0053 48.3696L28.7134 48.1039C29.5873 47.7758 30.5617 48.2183 30.8896 49.0922L31.7746 51.4498C32.1027 52.3235 31.6602 53.298 30.7862 53.626Z" stroke="#DAA7EE" stroke-width="1.67199" stroke-miterlimit="10" stroke-linecap="round" stroke-linejoin="round"/>
<path d="M38.4658 44.5888L46.9542 45.8024L46.3746 40.374" stroke="#DAA7EE" stroke-width="1.67199" stroke-miterlimit="10" stroke-linecap="round" stroke-linejoin="round"/>
<path d="M41.044 40.374L38.7261 44.626" stroke="#DAA7EE" stroke-width="1.67199" stroke-miterlimit="10" stroke-linecap="round" stroke-linejoin="round"/>
<path d="M43.304 19.3706C45.1182 20.2777 46.5138 22.0919 46.3112 24.4117C39.3996 26.1923 34.1943 24.2752 34.1943 24.2752" stroke="#DAA7EE" stroke-width="1.67199" stroke-miterlimit="10" stroke-linecap="round" stroke-linejoin="round"/>
<path d="M35.856 23.9538C35.856 21.4277 37.6479 19.32 40.0299 18.8325" stroke="#DAA7EE" stroke-width="1.67199" stroke-miterlimit="10" stroke-linecap="round" stroke-linejoin="round"/>
<path d="M39.4962 22.2948C39.4962 22.2948 39.062 18.65 41.885 17.3896" stroke="#DAA7EE" stroke-width="1.67199" stroke-miterlimit="10" stroke-linecap="round" stroke-linejoin="round"/>
<path d="M44.4879 25.1694V27.6165C44.4879 29.6202 42.8637 31.2445 40.8599 31.2445C38.8562 31.2445 37.2319 29.6202 37.2319 27.6165V25.1694" stroke="#DAA7EE" stroke-width="1.67199" stroke-miterlimit="10" stroke-linecap="round" stroke-linejoin="round"/>
<path d="M19.4509 37.2396C23.1916 37.2396 26.224 34.2072 26.224 30.4665C26.224 26.7258 23.1916 23.6934 19.4509 23.6934C15.7102 23.6934 12.6777 26.7258 12.6777 30.4665C12.6777 34.2072 15.7102 37.2396 19.4509 37.2396Z" stroke="#DAA7EE" stroke-width="1.67199" stroke-miterlimit="10" stroke-linecap="round" stroke-linejoin="round"/>
</svg>
