<svg width="543" height="329" viewBox="0 0 543 329" fill="none" xmlns="http://www.w3.org/2000/svg">
<g clip-path="url(#clip0_1600_4536)">
<path opacity="0.2" d="M127.492 328.58L412.142 311.93C487.412 307.53 545.652 243.73 542.512 168.39C539.872 105.08 517.192 37.64 440.912 8.81999C387.262 -11.45 317.592 5.13999 273.402 38.85C262.782 46.95 253.022 56.24 241.612 63.17C215.022 79.32 191.672 68.17 163.972 63.88C105.412 54.79 46.9621 73.46 16.7021 127.43C-29.7579 210.35 25.0421 334.57 127.492 328.58Z" fill="#999999"/>
<g clip-path="url(#clip1_1600_4536)">
<g opacity="0.3">
<path d="M362.447 85.3051C362.422 84.808 362.772 84.3599 363.277 84.2784C364.377 84.0991 365.501 83.9687 366.625 83.8791C367.171 83.8384 367.644 84.2458 367.684 84.7917C367.684 84.7999 367.684 84.808 367.684 84.808C367.717 85.3458 367.31 85.8103 366.772 85.851C365.713 85.9325 364.638 86.0547 363.595 86.2259C363.057 86.3155 362.552 85.9488 362.463 85.411C362.455 85.3784 362.447 85.3377 362.447 85.3051ZM371.04 84.8895C371.04 84.8488 371.04 84.808 371.04 84.7754C371.073 84.2295 371.545 83.8139 372.083 83.8465C373.199 83.9117 374.331 84.0339 375.431 84.1969C375.969 84.2784 376.343 84.7754 376.262 85.3214C376.181 85.8592 375.684 86.234 375.138 86.1525C374.087 85.9977 373.02 85.8836 371.953 85.8184C371.464 85.7858 371.065 85.3784 371.04 84.8895ZM379.512 86.3725C379.504 86.2666 379.52 86.1525 379.553 86.0384C379.708 85.5169 380.253 85.2155 380.783 85.3703C381.858 85.6881 382.925 86.0547 383.968 86.4622C384.473 86.6577 384.726 87.2363 384.53 87.7415C384.335 88.2467 383.756 88.4993 383.251 88.3037C382.266 87.9207 381.247 87.5704 380.221 87.2689C379.805 87.1385 379.537 86.7718 379.512 86.3725ZM387.446 89.7134C387.438 89.5341 387.479 89.3467 387.569 89.1756C387.837 88.703 388.44 88.5319 388.913 88.8008C389.89 89.3467 390.851 89.9415 391.78 90.5771C392.228 90.8868 392.35 91.4979 392.041 91.9461C391.731 92.3942 391.12 92.5164 390.672 92.2068C389.792 91.612 388.88 91.0416 387.951 90.5201C387.642 90.349 387.463 90.0393 387.446 89.7134ZM394.427 94.741C394.411 94.4884 394.493 94.2276 394.68 94.0239C395.046 93.6165 395.674 93.5839 396.073 93.9506C396.904 94.7002 397.71 95.4906 398.476 96.3136C398.851 96.7129 398.826 97.3403 398.427 97.707C398.028 98.0818 397.401 98.0574 397.034 97.6581C396.309 96.8759 395.543 96.1262 394.753 95.4091C394.55 95.2299 394.444 94.9854 394.427 94.741ZM400.13 101.186C400.113 100.86 400.26 100.526 400.545 100.323C400.993 100.013 401.604 100.119 401.922 100.559C402.565 101.472 403.176 102.425 403.738 103.395C404.015 103.867 403.852 104.47 403.38 104.747C402.907 105.024 402.304 104.861 402.028 104.389C401.49 103.468 400.912 102.563 400.301 101.692C400.195 101.537 400.138 101.366 400.13 101.186ZM404.512 137.194C404.504 137.056 404.528 136.917 404.577 136.779C404.96 135.793 405.31 134.766 405.604 133.748C405.758 133.226 406.304 132.925 406.825 133.079C407.347 133.234 407.648 133.78 407.493 134.302C407.176 135.377 406.817 136.453 406.41 137.496C406.215 138.001 405.644 138.254 405.131 138.058C404.765 137.919 404.536 137.569 404.512 137.194ZM404.26 108.732C404.235 108.324 404.471 107.925 404.87 107.762C405.375 107.558 405.954 107.795 406.158 108.3C406.581 109.335 406.964 110.402 407.298 111.47C407.461 111.991 407.168 112.545 406.646 112.708C406.125 112.871 405.571 112.578 405.408 112.056C405.09 111.046 404.724 110.027 404.325 109.05C404.284 108.944 404.26 108.838 404.26 108.732ZM406.703 128.875C406.703 128.81 406.703 128.744 406.711 128.679C406.866 127.628 406.972 126.552 407.037 125.493C407.07 124.947 407.534 124.532 408.08 124.564C408.626 124.597 409.041 125.061 409.009 125.607C408.943 126.724 408.829 127.856 408.666 128.956C408.585 129.494 408.088 129.869 407.55 129.796C407.07 129.73 406.728 129.331 406.703 128.875ZM406.597 117.011C406.573 116.514 406.923 116.065 407.42 115.984C407.958 115.894 408.463 116.261 408.552 116.799C408.732 117.899 408.87 119.023 408.952 120.14C408.952 120.148 408.952 120.156 408.952 120.164C408.984 120.702 408.577 121.166 408.039 121.207C407.493 121.248 407.021 120.84 406.98 120.294C406.899 119.235 406.768 118.168 406.597 117.117C406.597 117.076 406.597 117.043 406.597 117.011Z" fill="#BDD0FB"/>
<path d="M401.423 143.412C401.415 143.216 401.455 143.02 401.57 142.841C401.838 142.409 402.099 141.961 402.352 141.513C402.62 141.04 403.223 140.869 403.696 141.13C404.168 141.399 404.339 142.002 404.07 142.474C403.81 142.947 403.533 143.412 403.248 143.868C402.962 144.332 402.351 144.479 401.887 144.194C401.61 144.023 401.447 143.721 401.423 143.412Z" fill="#BDD0FB"/>
</g>
<g opacity="0.3">
<path d="M376.892 160.865C376.868 160.393 377.185 159.953 377.666 159.847C378.163 159.741 378.668 159.619 379.165 159.488C379.694 159.35 380.232 159.668 380.37 160.197C380.509 160.727 380.191 161.265 379.662 161.403C379.14 161.542 378.611 161.664 378.089 161.778C377.56 161.892 377.03 161.558 376.916 161.02C376.9 160.971 376.892 160.922 376.892 160.865Z" fill="#BDD0FB"/>
<path d="M330.245 125.485C330.22 125.029 330.204 124.572 330.188 124.116C330.179 123.57 330.611 123.122 331.149 123.106C331.695 123.089 332.151 123.529 332.159 124.067C332.183 125.127 332.249 126.178 332.363 127.213C332.42 127.758 332.029 128.239 331.483 128.296C330.937 128.353 330.456 127.962 330.399 127.416C330.334 126.789 330.285 126.137 330.245 125.485ZM330.432 118.909C330.432 118.852 330.432 118.795 330.44 118.738C330.562 117.646 330.733 116.538 330.953 115.463C331.059 114.925 331.581 114.582 332.118 114.688C332.656 114.794 332.998 115.316 332.892 115.854C332.688 116.88 332.525 117.923 332.403 118.966C332.338 119.512 331.849 119.895 331.312 119.838C330.823 119.781 330.456 119.382 330.432 118.909ZM331.304 132.542C331.279 132.077 331.581 131.645 332.053 131.531C332.583 131.401 333.12 131.727 333.25 132.256C333.503 133.267 333.796 134.285 334.138 135.279C334.309 135.793 334.041 136.355 333.519 136.534C333.006 136.714 332.444 136.437 332.265 135.915C331.915 134.872 331.597 133.805 331.336 132.737C331.32 132.664 331.312 132.607 331.304 132.542ZM332.306 110.647C332.297 110.525 332.314 110.394 332.363 110.264C332.721 109.221 333.136 108.186 333.584 107.184C333.804 106.687 334.391 106.458 334.888 106.687C335.385 106.907 335.613 107.493 335.385 107.99C334.961 108.944 334.57 109.93 334.228 110.916C334.049 111.429 333.487 111.706 332.974 111.527C332.583 111.388 332.33 111.038 332.306 110.647ZM334.236 140.486C334.212 140.103 334.415 139.729 334.782 139.549C335.271 139.305 335.865 139.5 336.11 139.989C336.574 140.918 337.087 141.847 337.633 142.743C337.918 143.208 337.771 143.819 337.307 144.104C336.843 144.389 336.232 144.243 335.947 143.778C335.368 142.841 334.831 141.863 334.342 140.877C334.277 140.747 334.244 140.617 334.236 140.486ZM338.83 147.592C338.814 147.29 338.936 146.981 339.189 146.769C339.612 146.427 340.232 146.484 340.582 146.907C341.242 147.714 341.95 148.513 342.675 149.262C343.058 149.653 343.042 150.281 342.651 150.656C342.26 151.039 341.633 151.022 341.258 150.631C340.492 149.841 339.751 149.01 339.059 148.154C338.92 147.991 338.847 147.795 338.83 147.592ZM344.875 153.532C344.858 153.304 344.932 153.059 345.087 152.864C345.42 152.432 346.048 152.359 346.471 152.701C347.294 153.353 348.149 153.972 349.021 154.542C349.477 154.844 349.599 155.455 349.298 155.911C348.997 156.368 348.386 156.49 347.929 156.188C347.009 155.585 346.105 154.933 345.241 154.249C345.013 154.07 344.883 153.801 344.875 153.532ZM352.059 158.005C352.051 157.842 352.084 157.68 352.157 157.525C352.393 157.036 352.98 156.824 353.477 157.06C354.422 157.508 355.391 157.932 356.369 158.299C356.882 158.494 357.134 159.065 356.947 159.57C356.751 160.083 356.181 160.336 355.676 160.14C354.65 159.749 353.623 159.309 352.63 158.837C352.279 158.682 352.076 158.356 352.059 158.005ZM360.059 160.792C360.051 160.703 360.059 160.613 360.083 160.515C360.205 159.986 360.735 159.651 361.264 159.774C362.283 160.002 363.325 160.197 364.36 160.344C364.897 160.417 365.272 160.923 365.199 161.46C365.125 161.998 364.62 162.381 364.083 162.3C362.991 162.145 361.9 161.941 360.824 161.697C360.385 161.599 360.083 161.224 360.059 160.792ZM368.465 161.754C368.465 161.737 368.465 161.713 368.465 161.689C368.465 161.143 368.913 160.703 369.459 160.703C370.233 160.703 371.007 160.686 371.773 160.646C372.049 160.629 372.326 160.613 372.603 160.589C373.149 160.548 373.622 160.955 373.662 161.493C373.719 162.039 373.296 162.512 372.758 162.552C372.465 162.577 372.18 162.593 371.887 162.609C371.08 162.658 370.257 162.675 369.451 162.675C368.921 162.683 368.498 162.275 368.465 161.754Z" fill="#BDD0FB"/>
<path d="M335.97 102.979C335.962 102.783 336.002 102.58 336.116 102.4C336.401 101.944 336.695 101.488 336.996 101.04C337.306 100.592 337.917 100.469 338.365 100.779C338.813 101.089 338.935 101.7 338.625 102.148C338.34 102.572 338.055 103.003 337.786 103.435C337.501 103.9 336.89 104.038 336.426 103.753C336.149 103.59 335.986 103.289 335.97 102.979Z" fill="#BDD0FB"/>
</g>
<path d="M347.478 103.672C347.331 103.802 347.29 104.014 347.363 104.193L349.595 109.351C348.113 111.519 346.964 113.939 346.231 116.538L340.847 118.127C340.659 118.184 340.529 118.355 340.513 118.551L340.211 125.281C340.203 125.477 340.317 125.656 340.505 125.729L345.726 127.799C346.223 130.456 347.152 132.965 348.431 135.255L345.751 140.193C345.653 140.364 345.685 140.576 345.816 140.723L350.361 145.701C350.491 145.848 350.703 145.889 350.883 145.815L356.039 143.583C358.206 145.066 360.625 146.215 363.224 146.948L364.812 152.334C364.869 152.522 365.04 152.652 365.236 152.668L371.964 152.97C372.16 152.978 372.339 152.864 372.412 152.676L374.481 147.453C377.137 146.956 379.646 146.027 381.935 144.748L386.871 147.429C387.042 147.527 387.254 147.494 387.401 147.364L392.378 142.817C392.524 142.686 392.565 142.474 392.492 142.295L390.26 137.137C391.742 134.97 392.891 132.55 393.624 129.95L399.009 128.361C399.196 128.304 399.326 128.133 399.343 127.938L399.644 121.207C399.652 121.012 399.538 120.832 399.351 120.759L394.129 118.689C393.632 116.033 392.704 113.523 391.425 111.233L394.105 106.295C394.202 106.124 394.17 105.912 394.04 105.766L389.494 100.787C389.364 100.64 389.152 100.6 388.973 100.673L383.816 102.906C381.65 101.423 379.23 100.274 376.632 99.5404L375.043 94.1543C374.986 93.9669 374.815 93.8365 374.62 93.8202L367.891 93.5187C367.696 93.5106 367.516 93.6246 367.443 93.8121L365.374 99.0352C362.719 99.5323 360.21 100.461 357.921 101.74L352.984 99.0597C352.813 98.9619 352.601 98.9945 352.455 99.1248L347.478 103.672Z" fill="#E527BB"/>
<path d="M363.167 123.611C362.98 120.311 365.236 117.28 368.568 116.595C372.225 115.845 375.818 118.208 376.567 121.867C376.934 123.643 376.583 125.452 375.59 126.96C374.596 128.467 373.073 129.502 371.297 129.869C367.639 130.619 364.047 128.255 363.297 124.597C363.224 124.271 363.183 123.937 363.167 123.611ZM375.117 122.959C375.101 122.706 375.068 122.446 375.019 122.193C374.441 119.39 371.696 117.573 368.886 118.151C366.083 118.73 364.267 121.476 364.845 124.287C365.424 127.09 368.169 128.907 370.979 128.329C372.339 128.052 373.504 127.261 374.27 126.096C374.889 125.151 375.182 124.059 375.117 122.959Z" fill="url(#paint0_linear_1600_4536)"/>
<path d="M353.408 124.304C353.376 123.733 353.376 123.163 353.4 122.592C353.408 122.413 353.417 122.234 353.433 122.046C353.498 121.158 353.636 120.27 353.848 119.415C353.848 119.406 353.856 119.39 353.856 119.382C353.865 119.349 353.873 119.317 353.881 119.284C353.897 119.219 353.913 119.154 353.93 119.089C353.97 118.917 354.125 118.803 354.288 118.795C354.329 118.795 354.37 118.795 354.41 118.812C354.622 118.869 354.744 119.08 354.695 119.292C354.41 120.376 354.239 121.501 354.19 122.633C353.938 128.247 356.65 133.324 360.943 136.339C363.33 138.017 366.206 139.052 369.325 139.191C369.871 139.215 370.417 139.215 370.955 139.183C374.588 138.979 378.017 137.537 380.738 135.051C383.866 132.191 385.691 128.28 385.878 124.051C386.269 115.308 379.475 107.876 370.735 107.485C370.197 107.461 369.659 107.461 369.122 107.493C366.8 107.624 364.536 108.259 362.491 109.368C362.442 109.392 362.385 109.408 362.328 109.416C362.182 109.425 362.035 109.351 361.962 109.213C361.856 109.017 361.929 108.781 362.124 108.675C364.275 107.518 366.645 106.841 369.081 106.711C369.643 106.679 370.205 106.679 370.775 106.703C379.948 107.11 387.084 114.917 386.668 124.092C386.473 128.541 384.55 132.639 381.267 135.646C378.408 138.262 374.816 139.769 370.995 139.989C370.425 140.022 369.855 140.022 369.285 139.997C364.837 139.802 360.74 137.879 357.734 134.595C355.127 131.719 353.62 128.117 353.408 124.304Z" fill="url(#paint1_linear_1600_4536)"/>
<g opacity="0.3">
<path d="M334.556 53.1105C334.54 52.8498 334.702 52.5972 334.963 52.4994C335.452 52.3283 335.949 52.1653 336.446 52.0186C336.772 51.9208 337.105 52.1082 337.203 52.4342C337.301 52.7601 337.114 53.0942 336.788 53.192C336.315 53.3305 335.835 53.4853 335.37 53.6483C335.053 53.7624 334.702 53.5994 334.588 53.2816C334.572 53.2246 334.564 53.1675 334.556 53.1105Z" fill="#A78BEF"/>
<path d="M339.102 51.9534C339.086 51.6438 339.306 51.3668 339.616 51.3179C340.495 51.1793 341.391 51.0816 342.287 51.0327C342.475 51.0245 342.662 51.0164 342.85 51.0082C343.184 51.0001 343.46 51.2771 343.485 51.5949C343.493 51.929 343.232 52.2142 342.898 52.2223C342.719 52.2305 342.54 52.2386 342.361 52.2468C341.514 52.2957 340.658 52.3853 339.819 52.5238C339.485 52.5809 339.176 52.3527 339.119 52.0186C339.111 51.9942 339.102 51.9697 339.102 51.9534ZM345.432 51.7253C345.432 51.6927 345.432 51.6683 345.432 51.6357C345.464 51.3016 345.758 51.049 346.092 51.0816C347.167 51.1712 348.25 51.3342 349.301 51.5623C349.627 51.6357 349.839 51.9616 349.774 52.2875C349.7 52.6135 349.383 52.8253 349.049 52.7601C348.047 52.5483 347.012 52.3935 345.986 52.3038C345.684 52.2712 345.448 52.0268 345.432 51.7253ZM351.631 53.0453C351.623 52.972 351.639 52.8905 351.663 52.809C351.777 52.4912 352.12 52.3201 352.437 52.4342C353.456 52.7846 354.466 53.2083 355.435 53.6891C355.736 53.8357 355.859 54.2024 355.712 54.5039C355.565 54.8054 355.199 54.9276 354.897 54.781C353.977 54.3246 353.016 53.9254 352.038 53.5831C351.802 53.5017 351.647 53.2898 351.631 53.0453ZM357.309 55.8484C357.3 55.7262 357.333 55.5958 357.406 55.4817C357.594 55.1965 357.968 55.1232 358.253 55.3106C359.158 55.9054 360.029 56.5573 360.852 57.2581C361.105 57.4781 361.137 57.8611 360.917 58.1218C360.697 58.3826 360.314 58.407 360.054 58.187C359.272 57.5188 358.441 56.8914 357.577 56.3292C357.414 56.2151 357.325 56.0358 357.309 55.8484ZM362.131 59.9552C362.123 59.7759 362.188 59.5967 362.326 59.4745C362.571 59.2463 362.962 59.2626 363.19 59.507C363.923 60.3056 364.607 61.153 365.235 62.0249C365.43 62.302 365.365 62.6768 365.096 62.8723C364.819 63.0679 364.444 63.0027 364.249 62.7338C363.654 61.8945 362.994 61.0878 362.294 60.33C362.196 60.2241 362.139 60.0937 362.131 59.9552ZM365.813 65.105C365.797 64.8769 365.919 64.6487 366.131 64.5346C366.424 64.3717 366.799 64.4857 366.961 64.7791C367.475 65.7243 367.939 66.7184 368.33 67.7207C368.452 68.0385 368.297 68.3888 367.988 68.5111C367.678 68.6333 367.32 68.4785 367.198 68.1688C366.823 67.2073 366.383 66.2702 365.894 65.3658C365.845 65.2843 365.821 65.1946 365.813 65.105ZM368.126 71.0045C368.11 70.7193 368.297 70.4504 368.583 70.3771C368.908 70.2956 369.242 70.4911 369.324 70.8171C369.593 71.8601 369.796 72.9357 369.927 74.0113C369.967 74.3453 369.731 74.655 369.397 74.6957C369.063 74.7365 368.762 74.5002 368.713 74.1661C368.582 73.1394 368.387 72.1208 368.134 71.1186C368.134 71.0778 368.126 71.0371 368.126 71.0045ZM368.737 80.4567C368.737 80.4241 368.737 80.3833 368.737 80.3507C368.843 79.4707 368.9 78.5662 368.916 77.6617C368.916 77.5232 368.916 77.3929 368.916 77.2543C368.916 76.9202 369.185 76.6432 369.527 76.6432C369.861 76.6432 370.146 76.9121 370.138 77.2543C370.138 77.3929 370.138 77.5395 370.138 77.6862C370.13 78.6314 370.065 79.5766 369.951 80.5056C369.91 80.8396 369.609 81.0759 369.275 81.0352C368.973 80.9945 368.754 80.75 368.737 80.4567Z" fill="#A78BEF"/>
</g>
<g opacity="0.3">
<path d="M317.509 79.1772C317.493 78.8432 317.745 78.558 318.079 78.5335C318.413 78.5091 318.706 78.7617 318.731 79.1039C318.804 80.1143 318.934 81.1329 319.122 82.127C319.179 82.4529 318.967 82.7789 318.641 82.844C318.307 82.9092 317.989 82.6892 317.924 82.3633C317.721 81.3203 317.582 80.2528 317.509 79.1935C317.509 79.1854 317.509 79.1772 317.509 79.1772ZM317.484 76.0564C317.484 76.0319 317.484 76.0157 317.484 75.9912C317.541 74.9319 317.655 73.8645 317.835 72.8133C317.892 72.4792 318.209 72.2592 318.543 72.3163C318.877 72.3733 319.097 72.6911 319.04 73.017C318.869 74.0193 318.755 75.0378 318.706 76.0482C318.69 76.3823 318.405 76.6431 318.063 76.6268C317.745 76.6186 317.501 76.366 317.484 76.0564ZM318.69 85.2967C318.674 85.0278 318.845 84.7671 319.114 84.6856C319.431 84.5797 319.782 84.7589 319.879 85.0767C320.189 86.0464 320.564 86.9997 320.995 87.9124C321.134 88.222 321.003 88.5805 320.702 88.7191C320.401 88.8576 320.034 88.7272 319.896 88.4257C319.448 87.4642 319.057 86.4619 318.731 85.4515C318.706 85.4026 318.69 85.3456 318.69 85.2967ZM318.543 69.9125C318.543 69.8473 318.543 69.774 318.568 69.7006C318.877 68.6821 319.252 67.6717 319.676 66.702C319.814 66.3924 320.173 66.2538 320.482 66.3924C320.792 66.5309 320.93 66.8894 320.792 67.1991C320.384 68.128 320.026 69.0895 319.733 70.0591C319.635 70.3851 319.293 70.5644 318.975 70.4666C318.731 70.3851 318.56 70.1651 318.543 69.9125ZM321.313 90.9436C321.305 90.7317 321.403 90.5117 321.598 90.3895C321.883 90.2102 322.258 90.2999 322.437 90.585C322.975 91.4488 323.561 92.2799 324.197 93.0703C324.408 93.3311 324.368 93.714 324.107 93.9259C323.846 94.1378 323.463 94.097 323.252 93.8363C322.584 93.0051 321.965 92.1332 321.403 91.2288C321.346 91.1473 321.321 91.0414 321.313 90.9436ZM325.215 95.8C325.207 95.6371 325.264 95.466 325.386 95.3356C325.622 95.0911 326.005 95.0911 326.249 95.3274C326.974 96.0363 327.748 96.7045 328.555 97.3238C328.823 97.5275 328.872 97.9105 328.669 98.1794C328.465 98.4483 328.082 98.4972 327.813 98.2935C326.974 97.6497 326.16 96.949 325.394 96.2075C325.288 96.0934 325.223 95.9467 325.215 95.8ZM330.168 99.5809C330.159 99.4668 330.184 99.3446 330.249 99.2387C330.42 98.9453 330.795 98.8476 331.088 99.0187C331.96 99.532 332.88 99.9965 333.801 100.404C334.11 100.534 334.249 100.901 334.118 101.202C333.988 101.512 333.621 101.651 333.312 101.52C332.343 101.097 331.381 100.608 330.461 100.07C330.29 99.972 330.176 99.7846 330.168 99.5809Z" fill="#A78BEF"/>
<path d="M321.079 64.1842C321.071 64.0701 321.104 63.9479 321.161 63.8338C321.43 63.3857 321.715 62.9457 322 62.5219C322.187 62.2449 322.57 62.1716 322.847 62.359C323.124 62.5464 323.197 62.9294 323.01 63.2064C322.733 63.6138 322.464 64.0294 322.212 64.4613C322.041 64.7546 321.666 64.8442 321.373 64.6731C321.193 64.5672 321.088 64.3798 321.079 64.1842Z" fill="#A78BEF"/>
</g>
<path d="M328.973 64.2495C328.875 64.3391 328.842 64.4776 328.899 64.5999L330.39 68.0548C329.396 69.5052 328.631 71.1186 328.142 72.8624L324.541 73.9298C324.411 73.9706 324.33 74.0846 324.321 74.215L324.118 78.7211C324.11 78.8515 324.191 78.9737 324.313 79.0226L327.808 80.4078C328.142 82.1842 328.761 83.8627 329.616 85.3947L327.824 88.6948C327.759 88.8088 327.775 88.9555 327.865 89.0533L330.911 92.386C331.001 92.4838 331.14 92.5164 331.262 92.4593L334.716 90.9682C336.166 91.9623 337.778 92.7282 339.522 93.2171L340.589 96.8188C340.63 96.9491 340.735 97.0306 340.874 97.0388L345.379 97.2425C345.509 97.2506 345.631 97.1691 345.68 97.0469L347.065 93.5512C348.841 93.2171 350.519 92.5979 352.05 91.7423L355.349 93.5349C355.463 93.6001 355.61 93.5838 355.708 93.4942L359.039 90.4467C359.137 90.357 359.17 90.2185 359.113 90.0963L357.622 86.6414C358.616 85.1909 359.381 83.5776 359.87 81.8338L363.471 80.7663C363.601 80.7256 363.682 80.6115 363.691 80.4811L363.894 75.9751C363.902 75.8447 363.821 75.7225 363.699 75.6736L360.204 74.2883C359.87 72.512 359.251 70.8334 358.396 69.3015L360.188 66.0014C360.253 65.8873 360.237 65.7406 360.147 65.6429L357.101 62.3101C357.011 62.2124 356.872 62.1798 356.75 62.2368L353.296 63.728C351.846 62.7339 350.234 61.9679 348.49 61.479L347.423 57.8774C347.382 57.7552 347.277 57.6655 347.138 57.6574L342.633 57.4537C342.503 57.4455 342.381 57.527 342.332 57.6492L340.947 61.1449C339.171 61.479 337.493 62.0983 335.962 62.9539L332.663 61.1612C332.549 61.096 332.402 61.1123 332.304 61.202L328.973 64.2495Z" fill="#A78BEF"/>
<path d="M339.391 77.5967C339.333 76.6107 339.594 75.6411 340.148 74.8099C340.824 73.7832 341.867 73.0743 343.072 72.8299C345.565 72.3165 348.009 73.9299 348.522 76.4233C349.027 78.9167 347.422 81.3613 344.93 81.8746C343.724 82.1191 342.494 81.8828 341.46 81.2065C340.433 80.5301 339.724 79.4871 339.48 78.2812C339.431 78.0449 339.407 77.8167 339.391 77.5967ZM347.39 77.1567C347.382 76.9937 347.357 76.8307 347.325 76.6596C346.95 74.8262 345.15 73.6447 343.317 74.0195C342.429 74.1988 341.663 74.7203 341.166 75.4781C340.669 76.2359 340.49 77.1404 340.678 78.0286C340.857 78.9167 341.378 79.6827 342.136 80.1798C342.893 80.6768 343.797 80.8561 344.685 80.6687C346.347 80.3264 347.479 78.8108 347.39 77.1567Z" fill="url(#paint2_linear_1600_4536)"/>
<path d="M332.598 78.0611C332.573 77.6781 332.573 77.287 332.589 76.8959C332.622 76.1136 332.736 75.3314 332.932 74.5817C332.94 74.5491 332.948 74.5166 332.956 74.484C333.021 74.2232 333.257 74.0439 333.51 74.0276C333.575 74.0276 333.64 74.0276 333.697 74.0439C334.023 74.1336 334.219 74.4595 334.129 74.7855C333.942 75.4862 333.836 76.2196 333.803 76.9448C333.803 76.9855 333.803 77.0263 333.795 77.067C333.738 78.7945 334.105 80.4731 334.862 81.9887C335.269 82.8035 335.791 83.5776 336.418 84.2784C336.426 84.2865 336.426 84.2865 336.434 84.2947C336.451 84.311 336.467 84.3273 336.483 84.3436C338.332 86.3725 340.866 87.554 343.603 87.6763C343.961 87.6926 344.311 87.6926 344.662 87.6681C347.016 87.5377 349.232 86.6007 350.991 84.9954C353.019 83.1457 354.201 80.6116 354.323 77.8737C354.445 75.1358 353.492 72.5039 351.643 70.4831C349.794 68.4541 347.26 67.2726 344.523 67.1504C344.173 67.1341 343.823 67.1341 343.481 67.1585C341.982 67.24 340.515 67.6556 339.188 68.3726C339.106 68.4134 339.017 68.4378 338.935 68.446C338.707 68.4623 338.479 68.34 338.365 68.1282C338.202 67.8348 338.316 67.46 338.609 67.297C340.092 66.4985 341.729 66.034 343.407 65.9363C343.798 65.9118 344.181 65.9118 344.572 65.9281C347.635 66.0666 350.47 67.3867 352.539 69.6519C354.608 71.9172 355.675 74.8506 355.537 77.9226C355.398 80.9864 354.078 83.8221 351.814 85.8918C349.843 87.6926 347.358 88.7356 344.727 88.8822C344.336 88.9067 343.945 88.9067 343.546 88.8904C337.624 88.6296 332.923 83.8791 332.598 78.0611Z" fill="url(#paint3_linear_1600_4536)"/>
<path d="M320.701 111.967C319.903 111.95 319.259 111.307 319.251 110.508C319.105 102.335 316.555 61.7641 280.835 53.2898C241.067 43.8539 222.877 84.3027 222.877 84.3027C222.877 84.3027 173.676 65.4228 164.235 115.992C133.386 123.399 125.37 163.701 145.434 183.396C148.619 186.525 152.895 188.293 157.359 188.334L350.556 190.077C356.226 190.126 361.252 186.419 362.865 180.976C368.909 160.596 376.819 113.287 320.701 111.967Z" fill="#A78BEF"/>
<path d="M316.285 112.839C315.487 112.822 314.852 112.179 314.835 111.38C314.681 103.541 312.155 65.9281 278.513 58.0404C240.911 49.2238 223.707 86.9999 223.707 86.9999C223.707 86.9999 177.186 69.3667 168.258 116.587C139.372 123.44 131.658 160.417 149.946 178.996C153.155 182.255 157.521 184.105 162.083 184.146L343.957 185.767C349.643 185.816 354.677 182.092 356.274 176.633C361.951 157.28 368.68 114.093 316.285 112.839Z" fill="#DAA7EE"/>
<path d="M366.137 291.036C366.137 293.228 364.337 295.029 362.146 295.029H146.206C144.006 295.029 142.214 293.237 142.214 291.036L140.414 166.903C140.414 164.711 142.996 160.425 147.737 160.743L358.782 155.284C361.535 155.21 364.199 156.27 366.154 158.217C368.109 160.165 369.176 162.821 369.111 165.575L366.137 291.036Z" fill="#E527BB"/>
<path d="M362.195 287.207C362.195 289.284 360.493 290.987 358.416 290.987H151.412C149.334 290.987 147.632 289.284 147.632 287.207L145.938 174.514C146.141 167.734 152.08 165.298 155.68 165.436L357.943 160.01C359.882 159.961 361.747 160.702 363.124 162.071C364.492 163.44 365.25 165.314 365.201 167.245L362.195 287.207Z" fill="#734BD9"/>
<path d="M149.871 233.452C149.691 233.452 149.537 233.305 149.537 233.126L149.406 223.983C149.406 223.796 149.553 223.649 149.732 223.641C149.919 223.633 150.066 223.788 150.074 223.967L150.205 233.109C150.205 233.297 150.058 233.452 149.871 233.452Z" fill="#91B3FA"/>
<path d="M149.542 211.06C149.363 211.06 149.209 210.913 149.209 210.734L148.695 175.728C148.703 173.381 149.428 171.507 150.846 170.155C153.42 167.686 157.444 167.816 157.615 167.816L222.204 166.08H222.212C222.391 166.08 222.538 166.227 222.546 166.406C222.554 166.594 222.408 166.748 222.22 166.748L157.607 168.484C157.428 168.476 153.672 168.362 151.302 170.635C150.023 171.858 149.371 173.577 149.363 175.728L149.876 210.726C149.876 210.905 149.73 211.052 149.542 211.06Z" fill="#91B3FA"/>
<path opacity="0.24" d="M156.754 280.957C156.974 271.643 156.892 189.165 156.355 182.043C155.817 174.921 166.912 173.585 183.937 172.778C200.962 171.98 344.631 168.802 348.329 168.5C356.646 167.824 359.856 171.328 357.534 207.246C356.223 227.487 355.873 260.92 355.4 276.288C355.262 280.859 351.523 284.493 346.945 284.501C312.373 284.599 179.872 284.974 171.05 285.243C160.892 285.544 156.664 284.648 156.754 280.957Z" fill="#91B3FA"/>
<path d="M379.707 301.36H133.749C133.342 301.36 133 301.026 133 300.611V291.199C133 290.792 133.334 290.45 133.749 290.45H379.715C380.123 290.45 380.465 290.784 380.465 291.199V300.611C380.457 301.026 380.123 301.36 379.707 301.36Z" fill="#E527BB"/>
<path d="M170.764 192.603H346.43C348.092 192.603 349.436 191.259 349.436 189.597V181.546C349.436 179.884 348.092 178.539 346.43 178.539H170.764C169.102 178.539 167.758 179.884 167.758 181.546V189.597C167.758 191.259 169.102 192.603 170.764 192.603Z" fill="#7D97F4"/>
<path d="M170.4 278.569H345.594C347.72 278.569 349.439 276.85 349.439 274.723V268.343C349.439 266.216 347.72 264.497 345.594 264.497H170.4C168.273 264.497 166.555 266.216 166.555 268.343V274.723C166.555 276.842 168.282 278.569 170.4 278.569Z" fill="#7D97F4"/>
<path d="M170.44 261.401H241.342C243.484 261.401 245.22 259.665 245.22 257.522V248.111C245.22 245.968 243.484 244.232 241.342 244.232H170.44C168.298 244.232 166.563 245.968 166.563 248.111V257.514C166.554 259.657 168.298 261.401 170.44 261.401Z" fill="#7D97F4"/>
<path d="M171.982 240.573H240.513C243.112 240.573 245.222 238.463 245.222 235.864V201.648C245.222 199.049 243.112 196.938 240.513 196.938H171.982C169.383 196.938 167.273 199.049 167.273 201.648V235.864C167.282 238.463 169.383 240.573 171.982 240.573Z" fill="#7D97F4"/>
<path d="M253.755 261.401H344.77C347.368 261.401 349.478 259.29 349.478 256.691V201.436C349.478 198.837 347.368 196.727 344.77 196.727H253.755C251.157 196.727 249.047 198.837 249.047 201.436V256.691C249.055 259.29 251.157 261.401 253.755 261.401Z" fill="#7D97F4"/>
<path d="M230.397 117.035L219.881 111.363L225.005 101.007L218.366 102.995L213.242 113.344L223.759 119.023L230.397 117.035Z" fill="white"/>
<path d="M225.859 191.943L235.61 198.869L229.248 208.509L236.083 207.36L242.436 197.712L232.694 190.786L225.859 191.943Z" fill="white"/>
<path d="M235.159 195.855C233.937 195.96 232.699 196.026 231.445 196.026C208.571 196.017 190.023 177.464 190.023 154.575C190.023 140.339 197.199 127.774 208.131 120.319C208.775 119.879 208.987 119.015 208.596 118.33C208.172 117.581 207.756 116.831 207.349 116.081C206.771 114.998 205.37 114.655 204.36 115.356C192.01 123.945 183.93 138.229 183.93 154.412C183.93 180.666 205.207 201.95 231.453 201.95C232.96 201.95 234.451 201.876 235.925 201.738C235.404 199.807 235.208 197.835 235.159 195.855Z" fill="white"/>
<path d="M231.866 106.874C227.516 106.833 223.297 107.387 219.289 108.446C219.395 109.163 219.395 109.905 219.721 110.549C220.144 111.852 220.535 113.164 220.902 114.484C224.274 113.596 227.802 113.124 231.451 113.124C254.284 113.124 272.93 131.808 272.881 154.648C272.848 170.994 263.358 185.115 249.6 191.829C248.761 192.237 248.337 193.198 248.598 194.103C248.794 194.787 248.989 195.463 249.185 196.148C249.519 197.289 250.789 197.867 251.865 197.354C267.896 189.719 278.982 173.357 278.982 154.412C278.974 128.263 258.007 107.102 231.866 106.874Z" fill="white"/>
<path d="M245.789 161.99C245.789 186.142 266.105 205.722 291.162 205.722C316.219 205.722 337.651 185.286 337.651 161.134C337.651 136.982 316.219 118.257 291.162 118.257C266.105 118.257 245.789 137.838 245.789 161.99Z" fill="#17114E"/>
<path d="M334.092 151.356C334.116 151.356 334.149 151.356 334.174 151.348C334.345 151.307 334.442 151.136 334.393 150.981C333.905 149.213 333.286 147.461 332.536 145.774C332.471 145.62 332.284 145.554 332.129 145.611C331.966 145.677 331.893 145.856 331.966 146.011C332.699 147.673 333.31 149.4 333.791 151.136C333.823 151.275 333.954 151.356 334.092 151.356Z" fill="#91B3FA"/>
<path d="M327.157 137.691C327.222 137.691 327.288 137.675 327.345 137.634C327.483 137.536 327.507 137.341 327.41 137.21C319.003 126.463 305.465 120.05 291.193 120.05C285.1 120.05 279.202 121.239 273.671 123.586C273.516 123.651 273.443 123.831 273.508 123.985C273.581 124.14 273.761 124.206 273.924 124.14C279.373 121.826 285.189 120.653 291.193 120.653C305.269 120.653 318.628 126.976 326.913 137.569C326.962 137.65 327.059 137.691 327.157 137.691Z" fill="#91B3FA"/>
<path d="M251.961 161.99C251.961 182.899 269.548 199.847 291.232 199.847C312.917 199.847 331.473 182.157 331.473 161.256C331.473 140.348 312.917 124.14 291.232 124.14C269.548 124.14 251.961 141.089 251.961 161.99Z" fill="#E527BB"/>
<path opacity="0.78" d="M256.115 163.693C256.212 165.298 257.638 166.528 259.308 166.431C260.978 166.341 262.249 164.956 262.151 163.35C262.053 161.745 260.627 160.515 258.958 160.613C257.288 160.71 256.017 162.087 256.115 163.693Z" fill="white"/>
<path opacity="0.78" d="M297.134 189.849C295.489 190.134 294.405 191.658 294.707 193.239C295.008 194.82 296.58 195.871 298.226 195.586C299.871 195.3 300.954 193.777 300.653 192.196C300.352 190.607 298.78 189.556 297.134 189.849Z" fill="white"/>
<path opacity="0.78" d="M285.376 127.807C283.731 128.092 282.647 129.616 282.949 131.197C283.25 132.778 284.822 133.829 286.468 133.544C288.113 133.258 289.197 131.735 288.895 130.154C288.594 128.565 287.014 127.514 285.376 127.807Z" fill="white"/>
<path opacity="0.78" d="M275.634 191.512C275.324 192.261 275.406 192.962 275.805 193.076C276.204 193.19 276.782 192.677 277.092 191.935C277.402 191.186 277.32 190.485 276.921 190.371C276.522 190.257 275.943 190.762 275.634 191.512Z" fill="white"/>
<path opacity="0.78" d="M261.916 180.324C261.248 180.813 260.938 181.448 261.223 181.742C261.508 182.043 262.274 181.888 262.934 181.407C263.602 180.919 263.911 180.283 263.626 179.99C263.349 179.688 262.575 179.843 261.916 180.324Z" fill="white"/>
<path opacity="0.78" d="M260.194 147.005C259.445 146.662 258.712 146.687 258.565 147.062C258.418 147.437 258.907 148.031 259.665 148.374C260.414 148.716 261.147 148.691 261.294 148.317C261.441 147.942 260.952 147.355 260.194 147.005Z" fill="white"/>
<path opacity="0.78" d="M319.35 176.217C318.601 175.875 317.868 175.899 317.721 176.274C317.575 176.657 318.063 177.244 318.821 177.586C319.57 177.928 320.304 177.904 320.45 177.529C320.597 177.154 320.108 176.567 319.35 176.217Z" fill="white"/>
<path opacity="0.78" d="M272.696 134.562C272.239 133.894 271.604 133.552 271.27 133.796C270.944 134.049 271.042 134.79 271.498 135.467C271.954 136.135 272.59 136.477 272.924 136.233C273.249 135.98 273.152 135.23 272.696 134.562Z" fill="white"/>
<path opacity="0.78" d="M307.508 189.132C307.052 188.464 306.416 188.122 306.082 188.366C305.757 188.619 305.854 189.36 306.311 190.037C306.767 190.705 307.402 191.047 307.736 190.803C308.07 190.55 307.964 189.8 307.508 189.132Z" fill="white"/>
<path d="M289.742 123.708L290.858 161.737L331.474 161.248C331.938 141.545 313.577 124.14 289.742 123.708Z" fill="#A78BEF"/>
<path d="M292.029 159.83L318.967 159.073C319.488 159.056 319.822 158.502 319.578 158.062L318.112 155.43C317.827 154.917 318.315 154.298 318.902 154.436L341.344 159.627C342.028 159.79 342.028 160.743 341.336 160.931L319.097 167.164C318.568 167.311 318.095 166.83 318.275 166.317L319.472 162.862C319.619 162.438 319.317 161.998 318.861 161.99L291.988 161.183C291.613 161.175 291.328 160.873 291.336 160.499C291.352 160.132 291.654 159.839 292.029 159.83Z" fill="#DAA7EE"/>
<path d="M338.873 160.808C339.077 160.702 339.199 160.507 339.199 160.27C339.199 159.993 339.012 159.773 338.743 159.724L333.92 158.763C333.749 158.73 333.586 158.836 333.546 158.999C333.505 159.162 333.611 159.325 333.782 159.358L338.604 160.319C333.538 161.664 321.726 164.923 321.49 165.021C321.335 165.078 321.245 165.265 321.311 165.42C321.368 165.575 321.547 165.648 321.702 165.591C322.044 165.477 331.094 162.976 338.751 160.857C338.792 160.841 338.832 160.825 338.873 160.808Z" fill="#BDD0FB"/>
<path d="M289.926 159.667L289.975 136.779C289.967 136.273 289.405 135.956 288.94 136.2L286.211 137.667C285.682 137.952 285.055 137.487 285.201 136.917L290.855 115.03C291.026 114.362 292.011 114.346 292.199 115.014L298.316 136.51C298.463 137.023 297.958 137.487 297.428 137.324L293.893 136.216C293.453 136.078 293.005 136.379 292.981 136.827L291.319 159.684C291.303 160.05 290.985 160.336 290.61 160.327C290.236 160.319 289.934 160.034 289.926 159.667Z" fill="#DAA7EE"/>
<path d="M296.423 134.424C296.463 134.424 296.496 134.416 296.537 134.399C296.7 134.342 296.773 134.171 296.716 134.016C296.602 133.682 294.15 124.931 292.081 117.524C292.008 117.263 291.78 117.092 291.486 117.1C291.201 117.108 290.973 117.288 290.916 117.556L289.865 122.258C289.833 122.421 289.939 122.584 290.101 122.617C290.273 122.649 290.435 122.551 290.476 122.388L291.527 117.687C292.847 122.584 296.04 134.008 296.129 134.236C296.186 134.35 296.301 134.424 296.423 134.424Z" fill="#BDD0FB"/>
<path d="M291.437 164.011C293.218 164.011 294.663 162.617 294.663 160.898C294.663 159.179 293.218 157.785 291.437 157.785C289.655 157.785 288.211 159.179 288.211 160.898C288.211 162.617 289.655 164.011 291.437 164.011Z" fill="#DAA7EE"/>
<path opacity="0.78" d="M301.915 132.663C301.606 133.413 301.687 134.114 302.086 134.228C302.485 134.342 303.064 133.829 303.373 133.087C303.683 132.338 303.601 131.637 303.202 131.523C302.803 131.409 302.225 131.922 301.915 132.663Z" fill="white"/>
<path opacity="0.78" d="M316.08 143.183C315.412 143.672 315.102 144.308 315.387 144.601C315.664 144.902 316.438 144.748 317.098 144.267C317.766 143.786 318.075 143.142 317.79 142.849C317.505 142.548 316.74 142.702 316.08 143.183Z" fill="white"/>
<path d="M196.062 313.991C196.103 313.974 218.406 274.903 221.42 271.228C221.925 270.608 222.715 270.291 223.506 270.388L229.729 271.13L237.044 286.954L224.858 279.857C226.063 288.201 210.415 300.595 205.047 305.117C204.501 305.573 204.46 306.396 204.949 306.91L207.092 309.15C203.573 312.719 199.516 315.009 194.93 316.068L196.062 313.991Z" fill="url(#paint4_linear_1600_4536)"/>
<path d="M205.854 307.952C205.854 307.952 207.223 308.392 207.687 309.615C207.907 310.201 207.671 310.861 207.166 311.22C204.917 312.833 197.488 318.048 194.059 319.067C193.782 319.148 193.513 318.896 193.57 318.611C193.749 317.812 194.311 316.223 196.152 313.893L195.99 314.227C195.778 314.65 196.242 315.082 196.649 314.854C198.93 313.559 203.606 310.723 205.854 307.952Z" fill="#A78BEF"/>
<path d="M204.747 323.581C204.787 323.557 208.127 315.49 208.168 315.465C211.239 296.781 218.725 280.777 220.933 276.565C221.307 275.856 222.008 275.391 222.806 275.318L229.054 274.788L239.416 288.804L226.048 284.322C228.916 292.242 216.094 307.553 211.752 313.07C211.312 313.632 211.435 314.447 212.021 314.846L214.571 316.606C211.85 320.811 208.331 323.874 204.062 325.838L204.747 323.581Z" fill="url(#paint5_linear_1600_4536)"/>
<path d="M213.115 315.685C213.115 315.685 214.541 315.84 215.241 316.94C215.575 317.47 215.478 318.162 215.054 318.619C213.172 320.656 206.957 327.264 203.805 328.959C203.544 329.098 203.234 328.902 203.234 328.609C203.243 327.794 203.479 326.123 204.807 323.467L204.709 323.826C204.587 324.282 205.124 324.616 205.483 324.306C207.478 322.571 211.478 318.855 213.115 315.685Z" fill="#A78BEF"/>
<path d="M258.291 271.839C258.291 271.839 263.944 280.248 264.409 284.078C264.873 287.916 262.845 289.236 256.931 289.724C239.327 291.183 230.652 285.903 230.652 285.903C229.446 278.227 228.591 276.271 218.539 272.099C218.539 272.099 231.255 273.11 233.821 272.116C236.37 271.13 258.291 271.839 258.291 271.839Z" fill="#A78BEF"/>
<path d="M235.758 224.741C235.758 224.741 239.692 220.08 243.879 225.8C244.637 226.835 247.545 225.979 248.612 228.147C249.166 229.263 250.355 229.899 251.577 229.671C254.632 229.108 259.617 229.059 262.085 233.842C263.967 237.493 262.517 239.636 260.635 240.85C259.251 241.746 258.762 243.564 259.593 244.981C260.391 246.342 260.546 248.184 258.477 250.4C253.842 255.371 244.669 247.247 244.669 247.247L237.387 230.029L235.758 224.741Z" fill="#231F20"/>
<path d="M243.007 270.73C243.007 270.73 236.425 264.464 233.191 260.309C231.44 258.068 230.894 255.11 231.701 252.38C233.183 247.393 235.806 242.235 236.051 241.429C236.417 240.198 243.797 240.247 243.797 240.247C243.797 240.247 258.313 249.675 264.024 265.638L257.621 267.634C257.621 267.634 253.833 261.27 250.086 257.228C250.086 257.228 256.57 265.792 256.798 269.296L243.007 270.73Z" fill="#A78BEF"/>
<path d="M230.469 273.199L235.413 267.821L241.124 269.361C241.124 269.361 247.779 270.396 251.591 269.361C255.403 268.327 255.403 268.327 255.403 268.327L264.014 265.646L265.366 269.467C265.708 270.437 265.366 271.513 264.527 272.116C263.786 272.645 262.906 273.224 262.352 273.468C261.22 273.965 236.228 273.623 236.228 273.623L230.469 273.199Z" fill="url(#paint6_linear_1600_4536)"/>
<path d="M238.716 231.382L243.677 240.606C243.351 242.618 238.276 242.675 237.494 241.478C237.413 241.355 237.372 241.217 237.34 241.07L234.374 234.91C234.244 234.307 235.898 232.286 236.435 231.993L238.407 230.942C239.172 230.534 236.004 230.502 238.716 231.382Z" fill="url(#paint7_linear_1600_4536)"/>
<path d="M228.681 229.214C228.681 229.214 228.118 232.327 230.57 236.295C233.022 240.255 235.458 240.076 236.696 238.666C237.934 237.257 239.417 234.902 238.741 230.95C238.073 226.998 229.528 225.246 228.681 229.214Z" fill="url(#paint8_linear_1600_4536)"/>
<path d="M235.782 231.373C235.782 231.373 231.815 226.167 228.777 230.705L228.826 232.278C228.826 232.278 224.867 232.091 225.299 228.44C225.73 224.79 228.956 222.296 233.436 223.543C237.917 224.79 240.531 226.207 241.036 229.32C241.542 232.433 239 231.919 239 231.919C239 231.919 238.031 229.776 236.858 229.63C235.685 229.483 236.108 231.178 236.108 231.178L235.782 231.373Z" fill="#231F20"/>
<path d="M236.697 231.235C236.697 231.235 234.644 228.57 236.51 228.016C238.383 227.462 238.31 230.632 238.188 231.805L236.697 231.235Z" fill="url(#paint9_linear_1600_4536)"/>
<path d="M246.834 275.334C246.818 275.334 246.801 275.334 246.785 275.334L224.042 275.31C223.48 275.31 223.023 274.854 223.023 274.291C223.023 273.729 223.48 273.265 224.042 273.273L246.785 273.297C247.347 273.297 247.803 273.754 247.803 274.316C247.803 274.862 247.372 275.31 246.834 275.334Z" fill="#E527BB"/>
<path d="M203.594 254.678H222.533C223.934 254.678 225.205 255.485 225.8 256.748L234.557 275.318H211.015C210.111 275.318 209.304 274.764 208.978 273.933L202.185 256.748C201.794 255.754 202.527 254.678 203.594 254.678Z" fill="#E527BB"/>
<path d="M216.938 264.203C217.346 265.483 217.044 266.721 216.262 266.974C215.48 267.227 214.511 266.395 214.095 265.124C213.688 263.845 213.99 262.606 214.772 262.354C215.562 262.093 216.531 262.924 216.938 264.203Z" fill="white"/>
</g>
</g>
<defs>
<linearGradient id="paint0_linear_1600_4536" x1="363.156" y1="123.237" x2="376.707" y2="123.237" gradientUnits="userSpaceOnUse">
<stop stop-color="#DAE3FE"/>
<stop offset="1" stop-color="#E9EFFD"/>
</linearGradient>
<linearGradient id="paint1_linear_1600_4536" x1="353.379" y1="123.335" x2="386.692" y2="123.335" gradientUnits="userSpaceOnUse">
<stop stop-color="#DAE3FE"/>
<stop offset="1" stop-color="#E9EFFD"/>
</linearGradient>
<linearGradient id="paint2_linear_1600_4536" x1="339.384" y1="77.345" x2="348.613" y2="77.345" gradientUnits="userSpaceOnUse">
<stop stop-color="#DAE3FE"/>
<stop offset="1" stop-color="#E9EFFD"/>
</linearGradient>
<linearGradient id="paint3_linear_1600_4536" x1="332.58" y1="77.4094" x2="355.562" y2="77.4094" gradientUnits="userSpaceOnUse">
<stop stop-color="#DAE3FE"/>
<stop offset="1" stop-color="#E9EFFD"/>
</linearGradient>
<linearGradient id="paint4_linear_1600_4536" x1="190.716" y1="281.266" x2="225.883" y2="301.332" gradientUnits="userSpaceOnUse">
<stop stop-color="#FEBBBA"/>
<stop offset="1" stop-color="#FF928E"/>
</linearGradient>
<linearGradient id="paint5_linear_1600_4536" x1="194.119" y1="286.272" x2="73.793" y2="210.969" gradientUnits="userSpaceOnUse">
<stop stop-color="#FEBBBA"/>
<stop offset="1" stop-color="#FF928E"/>
</linearGradient>
<linearGradient id="paint6_linear_1600_4536" x1="252.299" y1="269.693" x2="287.325" y2="269.693" gradientUnits="userSpaceOnUse">
<stop stop-color="#FEBBBA"/>
<stop offset="1" stop-color="#FF928E"/>
</linearGradient>
<linearGradient id="paint7_linear_1600_4536" x1="238.047" y1="252.947" x2="238.857" y2="240.327" gradientUnits="userSpaceOnUse">
<stop stop-color="#FEBBBA"/>
<stop offset="1" stop-color="#FF928E"/>
</linearGradient>
<linearGradient id="paint8_linear_1600_4536" x1="239.239" y1="242.269" x2="223.99" y2="213.096" gradientUnits="userSpaceOnUse">
<stop stop-color="#FEBBBA"/>
<stop offset="1" stop-color="#FF928E"/>
</linearGradient>
<linearGradient id="paint9_linear_1600_4536" x1="242.728" y1="240.445" x2="227.48" y2="211.272" gradientUnits="userSpaceOnUse">
<stop stop-color="#FEBBBA"/>
<stop offset="1" stop-color="#FF928E"/>
</linearGradient>
<clipPath id="clip0_1600_4536">
<rect width="542.64" height="328.79" fill="white"/>
</clipPath>
<clipPath id="clip1_1600_4536">
<rect width="276" height="278" fill="white" transform="translate(133 51)"/>
</clipPath>
</defs>
</svg>
