<svg width="543" height="329" viewBox="0 0 543 329" fill="none" xmlns="http://www.w3.org/2000/svg">
<g clip-path="url(#clip0_1600_4536)">
<path opacity="0.2" d="M127.492 328.58L412.142 311.93C487.412 307.53 545.652 243.73 542.512 168.39C539.872 105.08 517.192 37.64 440.912 8.81999C387.262 -11.45 317.592 5.13999 273.402 38.85C262.782 46.95 253.022 56.24 241.612 63.17C215.022 79.32 191.672 68.17 163.972 63.88C105.412 54.79 46.9621 73.46 16.7021 127.43C-29.7579 210.35 25.0421 334.57 127.492 328.58Z" fill="#999999"/>
<g clip-path="url(#clip1_1600_4536)">
<path d="M478.136 236.273H205.047V249.266H478.136V236.273Z" fill="#E527BB"/>
<path d="M205.094 243.628H478.183V75.4699C478.183 70.244 473.946 66 468.713 66H214.564C209.338 66 205.094 70.2371 205.094 75.4699V243.628Z" fill="white"/>
<path d="M477.725 72.8535C476.551 68.8911 472.891 66 468.551 66H214.628C210.288 66 206.627 68.8911 205.453 72.8535H477.725Z" fill="#A78BEF"/>
<path d="M494.889 258.871H443.651C440.221 258.871 437.445 256.356 437.445 253.261V197.194C437.445 194.093 440.228 191.584 443.651 191.584H494.889C498.319 191.584 501.094 194.099 501.094 197.194V253.261C501.094 256.356 498.312 258.871 494.889 258.871Z" fill="#A78BEF"/>
<path d="M468.567 193.793C468.567 192.46 467.481 191.375 466.149 191.375H443.336C439.861 191.375 437.039 194.191 437.039 197.672V202.473C437.039 203.805 438.117 204.89 439.456 204.89H457.469C463.602 204.89 468.567 199.925 468.567 193.793Z" fill="#F5F5F5"/>
<path d="M465.509 253.366H458.319C457.563 253.366 456.945 252.748 456.945 251.992V244.809C456.945 244.054 457.563 243.436 458.319 243.436H465.509C466.264 243.436 466.882 244.054 466.882 244.809V251.992C466.882 252.748 466.264 253.366 465.509 253.366Z" fill="#FAF9FC"/>
<path d="M451.4 222.374H444.217C443.462 222.374 442.844 221.756 442.844 221V213.817C442.844 213.062 443.462 212.444 444.217 212.444H451.4C452.156 212.444 452.774 213.062 452.774 213.817V221C452.774 221.756 452.163 222.374 451.4 222.374Z" fill="#FAF9FC"/>
<path d="M465.509 222.374H458.319C457.563 222.374 456.945 221.756 456.945 221V213.817C456.945 213.062 457.563 212.444 458.319 212.444H465.509C466.264 212.444 466.882 213.062 466.882 213.817V221C466.882 221.756 466.264 222.374 465.509 222.374Z" fill="#FAF9FC"/>
<path d="M479.619 222.374H472.436C471.681 222.374 471.062 221.756 471.062 221V213.817C471.062 213.062 471.681 212.444 472.436 212.444H479.619C480.374 212.444 480.993 213.062 480.993 213.817V221C480.993 221.756 480.374 222.374 479.619 222.374Z" fill="#FAF9FC"/>
<path d="M493.721 222.374H486.538C485.782 222.374 485.164 221.756 485.164 221V213.817C485.164 213.062 485.782 212.444 486.538 212.444H493.721C494.476 212.444 495.094 213.062 495.094 213.817V221C495.094 221.756 494.476 222.374 493.721 222.374Z" fill="#FAF9FC"/>
<path d="M451.4 237.866H444.217C443.462 237.866 442.844 237.248 442.844 236.493V229.31C442.844 228.554 443.462 227.936 444.217 227.936H451.4C452.156 227.936 452.774 228.554 452.774 229.31V236.493C452.774 237.255 452.163 237.866 451.4 237.866Z" fill="#FAF9FC"/>
<path d="M465.509 237.866H458.319C457.563 237.866 456.945 237.248 456.945 236.493V229.31C456.945 228.554 457.563 227.936 458.319 227.936H465.509C466.264 227.936 466.882 228.554 466.882 229.31V236.493C466.882 237.255 466.264 237.866 465.509 237.866Z" fill="#FAF9FC"/>
<path d="M479.619 237.866H472.436C471.681 237.866 471.062 237.248 471.062 236.493V229.31C471.062 228.554 471.681 227.936 472.436 227.936H479.619C480.374 227.936 480.993 228.554 480.993 229.31V236.493C480.993 237.255 480.374 237.866 479.619 237.866Z" fill="#FAF9FC"/>
<path d="M493.721 237.866H486.538C485.782 237.866 485.164 237.248 485.164 236.493V229.31C485.164 228.554 485.782 227.936 486.538 227.936H493.721C494.476 227.936 495.094 228.554 495.094 229.31V236.493C495.094 237.255 494.476 237.866 493.721 237.866Z" fill="#FAF9FC"/>
<path d="M451.4 253.366H444.217C443.462 253.366 442.844 252.748 442.844 251.992V244.809C442.844 244.054 443.462 243.436 444.217 243.436H451.4C452.156 243.436 452.774 244.054 452.774 244.809V251.992C452.774 252.748 452.163 253.366 451.4 253.366Z" fill="#FAF9FC"/>
<path d="M479.619 253.366H472.436C471.681 253.366 471.062 252.748 471.062 251.992V244.809C471.062 244.054 471.681 243.436 472.436 243.436H479.619C480.374 243.436 480.993 244.054 480.993 244.809V251.992C480.993 252.748 480.374 253.366 479.619 253.366Z" fill="#FAF9FC"/>
<path d="M493.721 253.366H486.538C485.782 253.366 485.164 252.748 485.164 251.992V244.809C485.164 244.054 485.782 243.436 486.538 243.436H493.721C494.476 243.436 495.094 244.054 495.094 244.809V251.992C495.094 252.748 494.476 253.366 493.721 253.366Z" fill="#FAF9FC"/>
<path d="M475.607 234.872L472.64 231.816L470.367 234.392L474.707 237.66L475.888 238.553L476.561 237.523L482.598 228.273L475.607 234.872Z" fill="#E527BB"/>
<path d="M444.429 247.309L442.156 249.884L446.496 253.16L447.678 254.053L448.351 253.016L454.387 243.765L447.396 250.365L444.429 247.309Z" fill="#E527BB"/>
<path d="M458.531 216.317L456.258 218.892L460.598 222.168L461.779 223.061L462.452 222.024L468.488 212.773L461.498 219.373L458.531 216.317Z" fill="#E527BB"/>
<path d="M323.376 115.032C323.514 115.032 323.63 115.08 323.727 115.183C323.823 115.286 323.871 115.403 323.871 115.547C323.871 115.684 323.823 115.808 323.727 115.904C323.63 116 323.514 116.055 323.376 116.055C323.239 116.055 323.115 116.007 323.019 115.904C322.923 115.801 322.875 115.684 322.875 115.54C322.875 115.403 322.923 115.286 323.019 115.19C323.122 115.08 323.239 115.032 323.376 115.032ZM322.985 116.316H323.768V119.434H322.985V116.316Z" fill="white"/>
<path d="M326.781 115.107H327.564V119.434H326.781V119.104C326.63 119.248 326.472 119.351 326.321 119.42C326.169 119.482 325.998 119.516 325.819 119.516C325.414 119.516 325.071 119.358 324.775 119.049C324.48 118.733 324.336 118.349 324.336 117.882C324.336 117.401 324.48 117.003 324.762 116.694C325.043 116.385 325.393 116.234 325.799 116.234C325.984 116.234 326.163 116.268 326.327 116.337C326.492 116.405 326.643 116.515 326.781 116.653V115.107ZM325.963 116.955C325.723 116.955 325.517 117.037 325.359 117.209C325.201 117.38 325.119 117.6 325.119 117.868C325.119 118.136 325.201 118.362 325.366 118.534C325.531 118.706 325.73 118.795 325.97 118.795C326.218 118.795 326.424 118.713 326.582 118.541C326.746 118.369 326.822 118.143 326.822 117.868C326.822 117.593 326.739 117.374 326.582 117.209C326.417 117.044 326.211 116.955 325.963 116.955Z" fill="white"/>
<path d="M331.488 118.102H328.974C329.008 118.321 329.105 118.5 329.263 118.63C329.421 118.761 329.62 118.829 329.867 118.829C330.162 118.829 330.409 118.726 330.622 118.52L331.282 118.829C331.117 119.063 330.918 119.235 330.691 119.345C330.464 119.454 330.19 119.509 329.874 119.509C329.386 119.509 328.988 119.351 328.679 119.049C328.37 118.74 328.219 118.356 328.219 117.889C328.219 117.415 328.37 117.017 328.679 116.701C328.988 116.385 329.372 116.227 329.833 116.227C330.327 116.227 330.725 116.385 331.034 116.701C331.343 117.017 331.494 117.429 331.494 117.95L331.488 118.102ZM330.705 117.484C330.65 117.312 330.554 117.168 330.396 117.058C330.238 116.948 330.066 116.893 329.867 116.893C329.647 116.893 329.455 116.955 329.29 117.078C329.187 117.154 329.091 117.291 329.002 117.484H330.705Z" fill="white"/>
<path d="M334.429 116.316H335.212V119.434H334.429V119.104C334.278 119.248 334.12 119.351 333.969 119.42C333.818 119.482 333.646 119.516 333.468 119.516C333.063 119.516 332.719 119.358 332.424 119.049C332.129 118.733 331.984 118.349 331.984 117.882C331.984 117.401 332.129 117.003 332.41 116.694C332.692 116.385 333.042 116.234 333.447 116.234C333.633 116.234 333.811 116.268 333.976 116.337C334.141 116.405 334.292 116.515 334.429 116.653V116.316ZM333.605 116.955C333.365 116.955 333.159 117.037 333.001 117.209C332.843 117.38 332.76 117.6 332.76 117.868C332.76 118.136 332.843 118.362 333.008 118.534C333.172 118.706 333.372 118.795 333.612 118.795C333.859 118.795 334.065 118.713 334.223 118.541C334.388 118.369 334.463 118.143 334.463 117.868C334.463 117.593 334.381 117.374 334.223 117.209C334.058 117.044 333.852 116.955 333.605 116.955Z" fill="white"/>
<path d="M173.865 191.595C178.274 192.309 189.199 199.156 196.039 221.337C196.87 224.029 187.098 228.541 182.696 224.105C170.871 212.169 165.913 190.297 173.865 191.595Z" fill="#A78BEF"/>
<path d="M176.566 324.325H178.186L167.123 272.621C167.034 272.168 166.622 271.873 166.189 271.969C165.764 272.058 165.482 272.505 165.571 272.958L176.566 324.325Z" fill="white"/>
<path d="M188.909 271.997L194.176 275.114C199.979 278.548 204.175 284.172 205.988 290.95L215.856 324.325H217.511L207.513 290.49C205.576 283.279 201.119 277.298 194.945 273.645L189.678 270.527C189.294 270.3 188.813 270.445 188.6 270.85C188.387 271.262 188.525 271.77 188.909 271.997Z" fill="#E527BB"/>
<path d="M157.547 324.325L160.507 297.598C161.153 290.586 164.332 280.423 169.455 275.945L174.111 271.88C174.448 271.584 174.496 271.056 174.221 270.699C173.939 270.341 173.445 270.287 173.108 270.582L168.452 274.647C163 279.413 159.621 289.975 158.934 297.433L155.961 324.318H157.547V324.325Z" fill="#E527BB"/>
<path d="M113.564 324.325L129.654 287.791C132.236 281.295 137.05 276.261 143.196 273.597L148.779 271.179C149.184 271.008 149.376 270.513 149.211 270.087C149.047 269.662 148.587 269.449 148.181 269.627L142.598 272.045C136.054 274.874 130.938 280.237 128.191 287.139L111.812 324.325H113.564Z" fill="#E527BB"/>
<path d="M156.752 209.347C156.169 206.105 151.835 199.334 144.309 198.888C136.782 198.442 117.163 196.814 115.446 201.23C113.729 205.645 119.14 204.615 119.14 218.734C119.14 232.998 116.565 273.521 145.682 273.521C170.034 273.521 206.341 272.724 206.341 269.936C206.341 266.379 176.839 267.224 168.639 261.6C157.315 253.826 158.812 220.794 156.752 209.347Z" fill="#E527BB"/>
<path d="M199.007 267.993C186.289 268.824 165.839 269.023 150.264 268.947C121.153 268.81 123.536 231.548 123.468 218.432C123.399 205.446 118.001 206.373 119.698 202.322C121.387 198.27 141.007 199.856 148.54 200.303C148.918 200.323 149.289 200.371 149.646 200.426C148.101 199.595 146.329 199.012 144.317 198.895C136.79 198.448 117.17 196.821 115.454 201.237C113.737 205.652 119.148 204.622 119.148 218.741C119.148 233.004 116.573 273.528 145.69 273.528C170.041 273.528 206.348 272.731 206.348 269.943C206.342 268.817 203.354 268.323 199.007 267.993Z" fill="#BF25A2"/>
<path d="M194.107 309.272C194.107 309.272 190.557 314.965 191.505 323.988C191.505 323.988 192.844 325.685 198.358 325.245C203.866 324.806 215.801 326.831 222.627 322.897L222.242 319.765C222.242 319.765 222.503 317.636 211.632 316.537C203.907 315.762 207.272 309.842 207.272 309.842L194.107 309.272Z" fill="#A78BEF"/>
<path d="M198.027 322.203C203.336 321.956 214.364 324.188 222.248 319.758L222.632 322.89C215.806 326.832 203.871 324.799 198.364 325.238C192.856 325.678 191.51 323.982 191.51 323.982C191.393 322.869 191.345 321.805 191.352 320.802C191.936 321.249 193.776 322.402 198.027 322.203Z" fill="white"/>
<path d="M220.768 260.988C222.025 265.033 210.296 310.501 210.406 314.299C210.406 314.299 200.462 315.947 191.898 312.348C191.898 312.348 200.016 272.148 203.092 268.013C205.908 264.23 217.987 252.013 220.768 260.988Z" fill="#231F20"/>
<path d="M198.08 302.583C200.573 298.065 202.811 293.464 204.769 288.691C206.664 284.062 209.548 269.71 210.036 267.533C210.523 265.377 205.565 264.704 203.1 268.02C200.023 272.155 191.906 312.355 191.906 312.355C192.476 312.596 193.053 312.809 193.637 313.001C194.584 309.347 196.274 305.859 198.08 302.583Z" fill="#231F20"/>
<path d="M158.629 257.108C166.307 262.664 167.488 265.562 199.414 268.103C226.423 270.252 225.701 258.393 209.776 249.568C199.318 243.779 189.971 242.653 175.639 237.942C161.294 233.231 143.356 246.066 158.629 257.108Z" fill="#231F20"/>
<path d="M204.516 267.066C200.513 266.146 196.99 264.154 193.144 262.829C189.491 261.572 185.274 260.686 182.61 257.747C176.051 250.509 181.229 241.891 183.434 240.703C183.605 240.606 183.798 240.552 183.983 240.476C181.367 239.727 178.627 238.924 175.633 237.942C161.294 233.231 143.357 246.066 158.629 257.108C166.307 262.664 167.488 265.562 199.407 268.103C203.932 268.46 207.654 268.419 210.683 268.075C210.511 267.986 206.363 267.492 204.516 267.066Z" fill="#231F20"/>
<path d="M198.637 312.499C199.749 303.091 205.188 266.372 205.243 266.001L205.325 265.431L204.803 265.424C195.505 265.315 172.088 258.598 171.848 258.53L171.648 259.464C172.596 259.738 194.585 266.049 204.288 266.379C203.595 271.069 198.795 303.565 197.765 312.348L198.637 312.499Z" fill="white"/>
<path d="M148.04 244.823C145.739 245.228 141.028 245.365 137.876 248.167C135.665 250.131 134.504 267.883 147.497 269.133C161.458 270.472 169.074 266.908 169.905 264.003C170.736 261.085 169.768 241.019 148.04 244.823Z" fill="#231F20"/>
<path d="M178.092 312.589C178.092 312.589 178.545 316.62 179.156 319.566C179.774 322.505 182.652 322.718 182.967 324.778C183.338 327.161 182.555 327.958 182.555 327.958C182.555 327.958 178.305 329.716 171.115 328.411C166.933 327.656 168.938 325.479 165.868 323.659C162.792 321.839 167.427 316.929 165.497 312.987C165.504 312.98 175.592 308.434 178.092 312.589Z" fill="#A78BEF"/>
<path d="M165.433 321.743C168.585 323.46 166.524 324.861 170.816 325.575C178.192 326.804 182.546 325.149 182.546 325.149C182.546 325.149 182.786 325.101 182.944 324.689C182.951 324.717 182.965 324.737 182.971 324.771C183.342 327.154 182.559 327.951 182.559 327.951C182.559 327.951 178.309 329.709 171.119 328.404C166.936 327.649 168.942 325.472 165.872 323.652C164.931 323.096 164.718 322.251 164.808 321.235C164.966 321.42 165.165 321.599 165.433 321.743Z" fill="white"/>
<path d="M145.695 257.397C145.695 257.397 152.583 254.286 155.371 252.075C158.159 249.863 169.841 248.751 170.156 262.451C170.472 276.151 177.93 301.697 179.489 313.509C179.489 313.509 176.948 313.179 171.372 314.409C165.796 315.638 165.219 316.949 165.219 316.949C165.219 316.949 151.436 286.273 151.436 273.72C151.436 261.174 145.695 257.397 145.695 257.397Z" fill="#231F20"/>
<path d="M167.979 291.472C168.158 287.187 168.254 283.197 167.183 279.015C166.263 275.43 165.59 271.997 166.022 268.274C166.297 265.933 167.876 263.969 170.218 263.673C170.198 263.268 170.163 262.836 170.156 262.444C169.841 248.744 158.159 249.857 155.371 252.068C152.583 254.279 145.695 257.39 145.695 257.39C145.695 257.39 151.436 261.174 151.436 273.72C151.436 286.274 165.219 316.949 165.219 316.949C165.219 316.949 165.658 315.947 169.497 314.869C167.945 307.212 167.657 299.253 167.979 291.472Z" fill="#231F20"/>
<path d="M165.845 315.411L166.683 315.136C166.628 314.965 161.018 298.119 158.374 291.417C155.744 284.756 151.85 266.626 151.809 266.441L151.712 265.988L151.266 266.104C145.827 267.546 139.454 263.927 139.393 263.886L138.953 264.648C139.221 264.8 145.381 268.295 151.039 267.059C151.658 269.895 155.125 285.594 157.55 291.733C160.187 298.422 165.79 315.239 165.845 315.411Z" fill="white"/>
<path d="M162.544 188.051C160.882 187.832 153.94 186.568 149.833 187.639C145.589 188.752 139.237 188.697 135.57 191.966C131.903 195.235 133.729 221.879 134.423 229.516C135.069 236.589 137.383 249.115 137.383 249.115C137.383 249.115 165.765 247.288 179.335 239.02C179.335 239.02 179.445 234.378 177.24 230.759C175.036 227.14 175.915 223.583 178.566 215.163C181.216 206.744 179.664 194.239 175.695 192.083C169.734 188.841 168.848 188.876 162.544 188.051Z" fill="#A78BEF"/>
<path d="M177.383 219.05C175.583 219.737 173.818 220.527 171.971 221.09C169.266 221.907 166.361 222.044 163.552 222.147C158.305 222.34 153.388 221.742 148.197 221.241C143.534 220.795 138.528 220.994 133.824 221.406C133.7 219.387 133.59 217.182 133.508 214.923C135.074 214.827 136.632 214.628 138.253 214.497C141.838 214.209 145.477 214.477 149.076 214.511C156.575 214.573 164.266 214.971 171.745 214.436C174.402 214.243 176.922 213.529 179.257 212.41C179.072 213.357 178.845 214.284 178.564 215.163C178.117 216.592 177.726 217.876 177.383 219.05Z" fill="#886EE5"/>
<path d="M152.141 178.053C152.141 178.053 153.253 185.284 152.869 189.274C152.525 192.913 152.608 205.364 162.441 203.42C173.573 201.223 164.337 182.345 164.337 182.345L152.141 178.053Z" fill="url(#paint0_linear_1600_4536)"/>
<path d="M161.727 203.647C161.727 203.647 162.722 198.661 164.789 197.405C166.582 196.313 166.616 187.516 166.616 187.516C170.915 187.729 171.183 208.742 161.727 203.647Z" fill="#886EE5"/>
<path d="M143.392 207.307C143.371 211.867 143.996 220.403 142.066 225.361C140.137 230.319 131.518 240.442 130.673 234.989C129.829 229.536 129.588 210.281 130.31 202.569C131.031 194.85 143.426 198.812 143.392 207.307Z" fill="url(#paint1_linear_1600_4536)"/>
<path d="M160.731 203.654C160.731 203.654 159.069 198.668 155.642 197.411C152.655 196.32 152.929 185.284 152.929 185.284C145.767 185.49 145.005 208.742 160.731 203.654Z" fill="#886EE5"/>
<path d="M131.621 236.493C135.645 239.487 145.293 240.05 160.813 237.399C176.402 234.735 178.119 237.612 184.746 233.011C184.746 233.011 185.165 231.171 183.441 230.134C183.441 230.134 184.203 228.06 182.116 227.394C180.028 226.735 182.802 225.32 177.734 223.995C172.673 222.676 172.632 227.861 166.479 227.957C160.326 228.053 142.945 225.869 139.614 226.151C136.277 226.432 128.077 233.856 131.621 236.493Z" fill="url(#paint2_linear_1600_4536)"/>
<path d="M139.128 190.311C134.506 191.258 129.905 195.626 128.497 209.669C127.797 216.66 126.753 237.839 133.524 239.714C139.808 241.451 145.054 241.959 147.609 238.986C150.678 235.415 150.328 227.909 149.394 226C148.687 224.564 142.596 226.007 142.946 224.448C144.127 219.229 144.196 213.625 144.196 213.625C144.196 213.625 147.087 188.683 139.128 190.311Z" fill="#A78BEF"/>
<path d="M194.751 219.51C195.308 221.55 195.919 223.905 192.602 227.682C189.285 231.459 189.78 233.135 189.814 233.918C189.848 234.701 187.864 234.405 187.891 232.112C187.912 230.209 187.912 230.209 187.912 230.209C187.912 230.209 186.586 231.404 185.783 231.796C184.979 232.187 184.004 234.247 182.404 234.028C180.797 233.808 181.711 232.222 181.711 232.222C181.711 232.222 179.904 235.113 178.414 234.371C176.924 233.629 179.383 230.862 180.516 229.53C181.642 228.197 180.639 228.362 180.639 228.362C180.639 228.362 179.204 228.864 178.298 229.2C177.391 229.536 178.05 234.488 175.805 233.465C174.891 233.046 175.784 228.403 175.784 228.403C175.784 228.403 174.747 228.136 175.482 226.687C176.217 225.238 178.936 225.196 180.021 224.654C181.106 224.111 182.734 224.571 183.153 223.892C183.572 223.212 181.443 221.928 181.443 221.083C181.429 218.37 193.426 214.635 194.751 219.51Z" fill="url(#paint3_linear_1600_4536)"/>
<path d="M170.984 166.9C171.217 169.009 171.306 171.769 171.073 173.719C170.846 175.67 171.78 181.919 170.867 184.096C169.947 186.273 168.573 189.308 162.441 187.935C156.308 186.561 153.733 183.54 152.188 178.952C150.643 174.365 150.348 169.476 150.918 168.212C151.488 166.948 153.314 161.503 160.01 161.503C166.225 161.51 170.592 163.357 170.984 166.9Z" fill="url(#paint4_linear_1600_4536)"/>
<path d="M160.843 156.771C171.816 153.056 172.469 161.015 171.981 163.419C171.494 165.815 171.734 168.995 171.734 168.995C171.391 167.065 170.134 164.538 170.134 164.538C170.134 164.538 166.281 167.058 162.601 165.362C158.412 163.432 156.18 165.046 156.104 168.239C155.898 177.084 153.11 174.791 152.89 174.235C152.671 173.678 149.45 171.996 149.677 175.313C149.855 177.929 153.247 179.564 152.705 181.431C147.335 183.986 148.646 175.752 146.463 171.687C144.279 167.615 146.724 168.411 147.555 161.558C148.392 154.697 155.459 158.591 160.843 156.771Z" fill="#231F20"/>
<path d="M152.554 173.699C152.101 173.136 149.574 171.989 149.265 173.891C148.976 175.649 149.333 178.197 151.737 179.577C154.133 180.951 153.543 174.928 152.554 173.699Z" fill="url(#paint5_linear_1600_4536)"/>
<path d="M311.571 116.062H247.898C246.518 116.062 245.398 114.943 245.398 113.563V84.2257C245.398 82.8454 246.518 81.7261 247.898 81.7261H311.571C312.951 81.7261 314.071 82.8454 314.071 84.2257V113.563C314.071 114.943 312.951 116.062 311.571 116.062Z" fill="#E527BB"/>
<path d="M233.435 100.267H221.953C220.572 100.267 219.453 99.1481 219.453 97.7678V86.2858C219.453 84.9055 220.572 83.7861 221.953 83.7861H233.435C234.815 83.7861 235.934 84.9055 235.934 86.2858V97.7678C235.934 99.1481 234.815 100.267 233.435 100.267Z" fill="#E527BB"/>
<path d="M255.696 98.2072C252.29 98.2072 249.516 95.4329 249.516 92.0267C249.516 88.6206 252.29 85.8462 255.696 85.8462C259.102 85.8462 261.877 88.6206 261.877 92.0267C261.877 95.4329 259.102 98.2072 255.696 98.2072ZM255.696 87.769C253.348 87.769 251.438 89.6781 251.438 92.0198C251.438 94.3616 253.348 96.2707 255.696 96.2707C258.045 96.2707 259.954 94.3616 259.954 92.0198C259.954 89.6781 258.045 87.769 255.696 87.769Z" fill="white"/>
<path d="M256.984 92.9469H255.418C255.15 92.9469 254.938 92.734 254.938 92.4662V89.3347C254.938 89.0669 255.15 88.854 255.418 88.854C255.686 88.854 255.899 89.0669 255.899 89.3347V91.9855H256.984C257.252 91.9855 257.465 92.1983 257.465 92.4662C257.465 92.734 257.252 92.9469 256.984 92.9469Z" fill="white"/>
<path d="M269.747 88.5452C270.414 88.5452 270.936 88.7855 271.313 89.2594C271.76 89.8225 271.986 90.7564 271.986 92.0612C271.986 93.366 271.76 94.2999 271.313 94.8699C270.942 95.3369 270.42 95.5772 269.754 95.5772C269.081 95.5772 268.546 95.3163 268.134 94.8081C267.722 94.293 267.516 93.3728 267.516 92.0543C267.516 90.7564 267.742 89.8293 268.189 89.2594C268.559 88.7855 269.081 88.5452 269.747 88.5452ZM269.747 89.6439C269.59 89.6439 269.445 89.692 269.322 89.795C269.198 89.898 269.102 90.0766 269.033 90.3444C268.944 90.6877 268.896 91.2577 268.896 92.0681C268.896 92.8784 268.937 93.4278 269.02 93.7299C269.102 94.0321 269.205 94.2312 269.329 94.3342C269.452 94.4373 269.596 94.4853 269.754 94.4853C269.912 94.4853 270.057 94.4373 270.18 94.3342C270.304 94.2312 270.4 94.0527 270.469 93.7849C270.558 93.4484 270.606 92.8715 270.606 92.0681C270.606 91.2577 270.565 90.7083 270.482 90.4062C270.4 90.104 270.297 89.9049 270.173 89.8019C270.05 89.692 269.905 89.6439 269.747 89.6439Z" fill="white"/>
<path d="M273.998 91.7453C273.655 91.6011 273.408 91.4019 273.257 91.1547C273.099 90.9006 273.023 90.6259 273.023 90.3237C273.023 89.8087 273.202 89.3898 273.559 89.0533C273.916 88.7168 274.424 88.552 275.09 88.552C275.743 88.552 276.251 88.7168 276.615 89.0533C276.979 89.3898 277.157 89.8087 277.157 90.3237C277.157 90.6396 277.075 90.9281 276.91 91.1753C276.745 91.4225 276.512 91.6148 276.21 91.7453C276.594 91.8963 276.883 92.123 277.082 92.4183C277.281 92.7135 277.377 93.05 277.377 93.4346C277.377 94.0733 277.178 94.5883 276.773 94.9866C276.368 95.3849 275.825 95.5841 275.152 95.5841C274.527 95.5841 274.005 95.4192 273.586 95.0896C273.092 94.705 272.852 94.1694 272.852 93.4964C272.852 93.1256 272.941 92.7822 273.126 92.4732C273.312 92.1504 273.6 91.9101 273.998 91.7453ZM274.149 93.3659C274.149 93.7299 274.246 94.0115 274.431 94.2175C274.616 94.4235 274.85 94.5196 275.125 94.5196C275.399 94.5196 275.619 94.4235 275.798 94.2243C275.976 94.0321 276.065 93.7436 276.065 93.3797C276.065 93.0569 275.976 92.796 275.791 92.6037C275.612 92.4114 275.379 92.3084 275.104 92.3084C274.781 92.3084 274.541 92.4183 274.383 92.6449C274.225 92.8646 274.149 93.105 274.149 93.3659ZM274.266 90.413C274.266 90.674 274.342 90.88 274.493 91.0311C274.644 91.1753 274.836 91.2508 275.083 91.2508C275.331 91.2508 275.537 91.1753 275.688 91.0311C275.839 90.88 275.914 90.674 275.914 90.413C275.914 90.1658 275.839 89.9667 275.688 89.8224C275.537 89.6714 275.344 89.6027 275.097 89.6027C274.843 89.6027 274.644 89.6782 274.493 89.8293C274.342 89.9667 274.266 90.1658 274.266 90.413Z" fill="white"/>
<path d="M278.75 91.7934V90.4749H280.069V91.7934H278.75ZM278.75 95.4605V94.142H280.069V95.4605H278.75Z" fill="white"/>
<path d="M281.367 93.6338L282.645 93.4758C282.686 93.7986 282.796 94.0527 282.974 94.2243C283.153 94.396 283.366 94.4853 283.62 94.4853C283.894 94.4853 284.121 94.3823 284.306 94.1763C284.492 93.9702 284.588 93.6887 284.588 93.3385C284.588 93.0088 284.499 92.741 284.32 92.5487C284.142 92.3565 283.922 92.2603 283.668 92.2603C283.496 92.2603 283.297 92.2946 283.063 92.3565L283.208 91.2783C283.565 91.2852 283.839 91.2096 284.025 91.0448C284.21 90.88 284.306 90.6602 284.306 90.3924C284.306 90.1589 284.238 89.9735 284.1 89.8362C283.963 89.6988 283.778 89.6302 283.551 89.6302C283.324 89.6302 283.132 89.7057 282.974 89.8636C282.816 90.0216 282.72 90.2482 282.686 90.5504L281.47 90.3444C281.553 89.9254 281.683 89.5958 281.855 89.3486C282.026 89.1014 282.267 88.9022 282.569 88.7649C282.878 88.6207 283.214 88.552 283.592 88.552C284.238 88.552 284.76 88.758 285.151 89.1701C285.474 89.5065 285.632 89.8911 285.632 90.3169C285.632 90.9212 285.302 91.4019 284.643 91.7659C285.034 91.8483 285.35 92.0406 285.591 92.3358C285.824 92.6311 285.948 92.9882 285.948 93.4003C285.948 94.0046 285.728 94.5196 285.288 94.9454C284.849 95.3712 284.299 95.5841 283.64 95.5841C283.015 95.5841 282.5 95.4055 282.088 95.0484C281.669 94.6776 281.436 94.2106 281.367 93.6338Z" fill="white"/>
<path d="M288.99 88.5452C289.656 88.5452 290.178 88.7855 290.555 89.2594C291.002 89.8225 291.228 90.7564 291.228 92.0612C291.228 93.366 291.002 94.2999 290.555 94.8699C290.185 95.3369 289.663 95.5772 288.997 95.5772C288.324 95.5772 287.788 95.3163 287.376 94.8081C286.964 94.293 286.758 93.3728 286.758 92.0543C286.758 90.7564 286.984 89.8293 287.431 89.2594C287.802 88.7855 288.324 88.5452 288.99 88.5452ZM288.99 89.6439C288.832 89.6439 288.688 89.692 288.564 89.795C288.44 89.898 288.344 90.0766 288.275 90.3444C288.186 90.6877 288.138 91.2577 288.138 92.0681C288.138 92.8784 288.179 93.4278 288.262 93.7299C288.344 94.0321 288.447 94.2312 288.571 94.3342C288.694 94.4373 288.839 94.4853 288.997 94.4853C289.154 94.4853 289.299 94.4373 289.422 94.3342C289.546 94.2312 289.642 94.0527 289.711 93.7849C289.8 93.4484 289.848 92.8715 289.848 92.0681C289.848 91.2577 289.807 90.7083 289.724 90.4062C289.642 90.104 289.539 89.9049 289.415 89.8019C289.292 89.692 289.148 89.6439 288.99 89.6439Z" fill="white"/>
<path d="M300.915 95.4606H299.405L298.8 93.8948H296.046L295.476 95.4606H294L296.678 88.5796H298.148L300.915 95.4606ZM298.361 92.7343L297.413 90.1797L296.486 92.7343H298.361Z" fill="white"/>
<path d="M301.641 95.4606V88.5728H303.721L304.971 93.2699L306.207 88.5728H308.295V95.4606H307.004V90.0423L305.637 95.4606H304.298L302.939 90.0423V95.4606H301.641Z" fill="white"/>
<path d="M277.548 104.044H250.374C249.9 104.044 249.516 103.66 249.516 103.186C249.516 102.712 249.9 102.328 250.374 102.328H277.548C278.022 102.328 278.406 102.712 278.406 103.186C278.406 103.66 278.022 104.044 277.548 104.044Z" fill="white"/>
<path d="M269.994 112.628H250.374C249.9 112.628 249.516 112.244 249.516 111.77C249.516 111.296 249.9 110.912 250.374 110.912H269.994C270.468 110.912 270.852 111.296 270.852 111.77C270.852 112.244 270.468 112.628 269.994 112.628Z" fill="white"/>
<path d="M292.608 108.254H250.374C249.9 108.254 249.516 107.87 249.516 107.396C249.516 106.922 249.9 106.537 250.374 106.537H292.608C293.081 106.537 293.466 106.922 293.466 107.396C293.466 107.87 293.081 108.254 292.608 108.254Z" fill="white"/>
<path d="M311.571 155.892H247.898C246.518 155.892 245.398 154.773 245.398 153.392V124.056C245.398 122.675 246.518 121.556 247.898 121.556H311.571C312.951 121.556 314.071 122.675 314.071 124.056V153.392C314.071 154.773 312.951 155.892 311.571 155.892Z" fill="#E527BB"/>
<path d="M255.696 138.037C252.29 138.037 249.516 135.263 249.516 131.857C249.516 128.451 252.29 125.676 255.696 125.676C259.102 125.676 261.877 128.451 261.877 131.857C261.877 135.263 259.102 138.037 255.696 138.037ZM255.696 127.599C253.348 127.599 251.438 129.508 251.438 131.85C251.438 134.192 253.348 136.101 255.696 136.101C258.045 136.101 259.954 134.192 259.954 131.85C259.954 129.508 258.045 127.599 255.696 127.599Z" fill="white"/>
<path d="M256.984 132.777H255.418C255.15 132.777 254.938 132.564 254.938 132.296V129.165C254.938 128.897 255.15 128.684 255.418 128.684C255.686 128.684 255.899 128.897 255.899 129.165V131.816H256.984C257.252 131.816 257.465 132.028 257.465 132.296C257.465 132.564 257.252 132.777 256.984 132.777Z" fill="white"/>
<path d="M292.581 143.875H250.382C249.908 143.875 249.523 143.49 249.523 143.016C249.523 142.542 249.908 142.158 250.382 142.158H292.581C293.055 142.158 293.439 142.542 293.439 143.016C293.439 143.49 293.055 143.875 292.581 143.875Z" fill="white"/>
<path d="M277.548 152.459H250.374C249.9 152.459 249.516 152.074 249.516 151.6C249.516 151.126 249.9 150.742 250.374 150.742H277.548C278.022 150.742 278.406 151.126 278.406 151.6C278.406 152.074 278.022 152.459 277.548 152.459Z" fill="white"/>
<path d="M292.608 148.084H250.374C249.9 148.084 249.516 147.7 249.516 147.226C249.516 146.752 249.9 146.367 250.374 146.367H292.608C293.081 146.367 293.466 146.752 293.466 147.226C293.466 147.7 293.081 148.084 292.608 148.084Z" fill="white"/>
<path d="M270.897 135.125H269.578V130.154C269.097 130.607 268.527 130.936 267.875 131.156V129.961C268.218 129.851 268.596 129.632 268.994 129.323C269.4 129.007 269.674 128.643 269.825 128.224H270.897V135.125Z" fill="white"/>
<path d="M275.709 135.125H274.391V130.154C273.91 130.607 273.34 130.936 272.688 131.156V129.961C273.031 129.851 273.409 129.632 273.807 129.323C274.212 129.007 274.487 128.643 274.638 128.224H275.709V135.125Z" fill="white"/>
<path d="M278.219 131.458V130.14H279.537V131.458H278.219ZM278.219 135.126V133.807H279.537V135.126H278.219Z" fill="white"/>
<path d="M283.472 135.125V133.738H280.656V132.585L283.643 128.217H284.749V132.585H285.601V133.745H284.749V135.132H283.472V135.125ZM283.472 132.578V130.229L281.892 132.578H283.472Z" fill="white"/>
<path d="M286.25 133.354L287.562 133.216C287.596 133.512 287.713 133.752 287.898 133.924C288.084 134.095 288.296 134.185 288.537 134.185C288.811 134.185 289.045 134.075 289.237 133.848C289.43 133.622 289.526 133.285 289.526 132.839C289.526 132.413 289.43 132.097 289.244 131.891C289.052 131.678 288.811 131.575 288.502 131.575C288.125 131.575 287.781 131.74 287.486 132.076L286.415 131.918L287.088 128.334H290.576V129.57H288.09L287.884 130.737C288.18 130.593 288.482 130.518 288.784 130.518C289.368 130.518 289.862 130.73 290.274 131.156C290.686 131.582 290.885 132.131 290.885 132.811C290.885 133.374 290.721 133.882 290.391 134.329C289.945 134.933 289.32 135.242 288.53 135.242C287.898 135.242 287.376 135.071 286.978 134.727C286.566 134.391 286.326 133.931 286.25 133.354Z" fill="white"/>
<path d="M300.392 135.126H298.881L298.277 133.56H295.523L294.953 135.126H293.477L296.155 128.245H297.624L300.392 135.126ZM297.83 132.399L296.883 129.845L295.956 132.399H297.83Z" fill="white"/>
<path d="M301.109 135.126V128.245H303.19L304.44 132.942L305.676 128.245H307.764V135.126H306.473V129.707L305.106 135.126H303.767L302.407 129.707V135.126H301.109Z" fill="white"/>
<path d="M311.571 196.409H247.898C246.518 196.409 245.398 195.289 245.398 193.909V164.572C245.398 163.192 246.518 162.073 247.898 162.073H311.571C312.951 162.073 314.071 163.192 314.071 164.572V193.909C314.071 195.289 312.951 196.409 311.571 196.409Z" fill="#E527BB"/>
<path d="M255.696 178.554C252.29 178.554 249.516 175.78 249.516 172.373C249.516 168.967 252.29 166.193 255.696 166.193C259.102 166.193 261.877 168.967 261.877 172.373C261.877 175.78 259.102 178.554 255.696 178.554ZM255.696 168.116C253.348 168.116 251.438 170.025 251.438 172.367C251.438 174.715 253.348 176.617 255.696 176.617C258.045 176.617 259.954 174.708 259.954 172.367C259.954 170.025 258.045 168.116 255.696 168.116Z" fill="white"/>
<path d="M256.984 173.294H255.418C255.15 173.294 254.938 173.081 254.938 172.813V169.681C254.938 169.414 255.15 169.201 255.418 169.201C255.686 169.201 255.899 169.414 255.899 169.681V172.332H256.984C257.252 172.332 257.465 172.545 257.465 172.813C257.465 173.081 257.252 173.294 256.984 173.294Z" fill="white"/>
<path d="M269.747 168.727C270.414 168.727 270.936 168.967 271.313 169.441C271.76 170.004 271.986 170.938 271.986 172.243C271.986 173.548 271.76 174.482 271.313 175.052C270.942 175.519 270.42 175.759 269.754 175.759C269.081 175.759 268.546 175.498 268.134 174.99C267.722 174.475 267.516 173.555 267.516 172.236C267.516 170.938 267.742 170.004 268.189 169.441C268.559 168.967 269.081 168.727 269.747 168.727ZM269.747 169.826C269.59 169.826 269.445 169.874 269.322 169.977C269.198 170.08 269.102 170.258 269.033 170.526C268.944 170.87 268.896 171.44 268.896 172.25C268.896 173.06 268.937 173.61 269.02 173.912C269.102 174.214 269.205 174.413 269.329 174.516C269.452 174.619 269.596 174.667 269.754 174.667C269.912 174.667 270.057 174.619 270.18 174.516C270.304 174.413 270.4 174.235 270.469 173.967C270.558 173.63 270.606 173.053 270.606 172.25C270.606 171.446 270.565 170.89 270.482 170.588C270.4 170.286 270.297 170.087 270.173 169.984C270.05 169.874 269.905 169.826 269.747 169.826Z" fill="white"/>
<path d="M275.456 175.642V174.255H272.641V173.101L275.628 168.734H276.733V173.101H277.585V174.262H276.733V175.649H275.456V175.642ZM275.456 173.095V170.739L273.877 173.095H275.456Z" fill="white"/>
<path d="M278.75 171.975V170.657H280.069V171.975H278.75ZM278.75 175.642V174.324H280.069V175.642H278.75Z" fill="white"/>
<path d="M283.646 168.727C284.312 168.727 284.834 168.967 285.212 169.441C285.658 170.004 285.885 170.938 285.885 172.243C285.885 173.548 285.658 174.482 285.212 175.052C284.841 175.519 284.319 175.759 283.653 175.759C282.98 175.759 282.444 175.498 282.032 174.99C281.62 174.475 281.414 173.555 281.414 172.236C281.414 170.938 281.641 170.004 282.087 169.441C282.458 168.967 282.98 168.727 283.646 168.727ZM283.646 169.826C283.488 169.826 283.344 169.874 283.22 169.977C283.097 170.08 283 170.258 282.932 170.526C282.842 170.87 282.794 171.44 282.794 172.25C282.794 173.06 282.836 173.61 282.918 173.912C283 174.214 283.103 174.413 283.227 174.516C283.351 174.619 283.495 174.667 283.653 174.667C283.811 174.667 283.955 174.619 284.079 174.516C284.202 174.413 284.298 174.235 284.367 173.967C284.456 173.63 284.504 173.053 284.504 172.25C284.504 171.446 284.463 170.89 284.381 170.588C284.298 170.286 284.195 170.087 284.072 169.984C283.941 169.874 283.804 169.826 283.646 169.826Z" fill="white"/>
<path d="M288.99 168.727C289.656 168.727 290.178 168.967 290.555 169.441C291.002 170.004 291.228 170.938 291.228 172.243C291.228 173.548 291.002 174.482 290.555 175.052C290.185 175.519 289.663 175.759 288.997 175.759C288.324 175.759 287.788 175.498 287.376 174.99C286.964 174.475 286.758 173.555 286.758 172.236C286.758 170.938 286.984 170.004 287.431 169.441C287.802 168.967 288.324 168.727 288.99 168.727ZM288.99 169.826C288.832 169.826 288.688 169.874 288.564 169.977C288.44 170.08 288.344 170.258 288.275 170.526C288.186 170.87 288.138 171.44 288.138 172.25C288.138 173.06 288.179 173.61 288.262 173.912C288.344 174.214 288.447 174.413 288.571 174.516C288.694 174.619 288.839 174.667 288.997 174.667C289.154 174.667 289.299 174.619 289.422 174.516C289.546 174.413 289.642 174.235 289.711 173.967C289.8 173.63 289.848 173.053 289.848 172.25C289.848 171.446 289.807 170.89 289.724 170.588C289.642 170.286 289.539 170.087 289.415 169.984C289.292 169.874 289.148 169.826 288.99 169.826Z" fill="white"/>
<path d="M295.07 175.642V168.761H297.302C298.147 168.761 298.696 168.796 298.957 168.864C299.349 168.967 299.678 169.194 299.946 169.537C300.214 169.881 300.344 170.327 300.344 170.877C300.344 171.302 300.269 171.653 300.118 171.941C299.967 172.229 299.768 172.456 299.534 172.621C299.301 172.786 299.06 172.896 298.813 172.95C298.483 173.019 298.003 173.047 297.371 173.047H296.464V175.642H295.07ZM296.464 169.922V171.872H297.227C297.776 171.872 298.14 171.838 298.325 171.762C298.511 171.694 298.655 171.577 298.758 171.426C298.861 171.275 298.916 171.096 298.916 170.89C298.916 170.643 298.84 170.43 298.696 170.272C298.552 170.107 298.36 170.011 298.14 169.97C297.975 169.936 297.639 169.922 297.137 169.922H296.464Z" fill="white"/>
<path d="M301.469 175.642V168.761H303.55L304.799 173.459L306.035 168.761H308.123V175.642H306.832V170.224L305.465 175.642H304.126L302.767 170.224V175.642H301.469Z" fill="white"/>
<path d="M274.114 184.391H250.374C249.9 184.391 249.516 184.007 249.516 183.533C249.516 183.059 249.9 182.674 250.374 182.674H274.114C274.588 182.674 274.972 183.059 274.972 183.533C274.972 184.007 274.588 184.391 274.114 184.391Z" fill="white"/>
<path d="M282.355 192.975H250.374C249.9 192.975 249.516 192.591 249.516 192.117C249.516 191.643 249.9 191.258 250.374 191.258H282.355C282.829 191.258 283.213 191.643 283.213 192.117C283.213 192.591 282.829 192.975 282.355 192.975Z" fill="white"/>
<path d="M292.608 188.601H250.374C249.9 188.601 249.516 188.216 249.516 187.742C249.516 187.269 249.9 186.884 250.374 186.884H292.608C293.081 186.884 293.466 187.269 293.466 187.742C293.466 188.216 293.081 188.601 292.608 188.601Z" fill="white"/>
<path d="M41.0757 326.969C41.3573 328.095 42.3668 328.885 43.5273 328.885H320.922C332.494 328.885 341.902 319.47 341.902 307.905V256.277C341.902 244.706 332.487 235.985 320.922 235.985H107.633C96.0617 235.985 86.6536 245.393 86.6536 256.964V291.019C86.6536 296.924 83.4122 302.315 78.2 305.083L42.3393 324.132C41.3161 324.675 40.7942 325.849 41.0757 326.969ZM70.2546 323.837L97.1604 309.54C104.028 305.886 108.299 298.792 108.299 291.012V256.957C108.299 248.174 115.448 238.278 124.231 238.278L304.338 241.025C313.121 241.025 320.27 247.487 320.27 256.27V307.898C320.27 316.682 313.121 323.83 304.338 323.83H70.2546V323.837Z" fill="#1D1273"/>
<path d="M61.4242 326.969C61.7058 328.095 62.7152 328.885 63.8758 328.885H324.68C336.251 328.885 345.659 319.47 345.659 307.905V256.277C345.659 244.706 336.244 235.985 324.68 235.985H127.981C116.41 235.985 107.002 245.393 107.002 256.964V291.019C107.002 296.924 103.761 302.315 98.5485 305.083L62.6946 324.132C61.6714 324.675 61.1495 325.849 61.4242 326.969ZM74.0118 323.837L100.918 309.54C107.785 305.886 112.056 298.792 112.056 291.012V256.957C112.056 248.174 119.205 241.025 127.988 241.025H324.687C333.47 241.025 340.619 247.487 340.619 256.27V307.898C340.619 316.682 333.47 323.83 324.687 323.83H74.0118V323.837Z" fill="url(#paint6_linear_1600_4536)"/>
<path d="M308.037 219.16H277.444C276.125 219.16 275.047 220.238 275.047 221.557V233.567C275.047 234.886 276.125 235.964 277.444 235.964H308.037C309.356 235.964 310.434 234.886 310.434 233.567V221.557C310.434 220.238 309.356 219.16 308.037 219.16Z" fill="#886EE5"/>
<path d="M310.625 224.935H307.961V230.196H310.625C311.079 230.196 311.45 229.825 311.45 229.372V225.766C311.45 225.306 311.079 224.935 310.625 224.935Z" fill="#7750D9"/>
<path d="M308.126 224.935H307.453V230.196H308.126C308.586 230.196 308.95 229.825 308.95 229.372V225.766C308.95 225.306 308.579 224.935 308.126 224.935Z" fill="#E527BB"/>
<path d="M304.334 219.16L273.74 219.153C272.422 219.153 271.344 220.231 271.344 221.55V233.561C271.344 234.879 272.422 235.957 273.74 235.957H304.334C305.652 235.957 306.731 234.879 306.731 233.561V221.55C306.731 220.238 305.652 219.16 304.334 219.16Z" fill="#E527BB"/>
<path d="M304.334 220.808H273.741C273.329 220.808 272.992 221.145 272.992 221.557V233.567C272.992 233.979 273.329 234.316 273.741 234.316H304.334C304.746 234.316 305.083 233.979 305.083 233.567V221.557C305.083 221.145 304.746 220.808 304.334 220.808Z" fill="#A78BEF"/>
<path d="M301.175 223.411H298.572C298.016 223.411 297.562 223.864 297.562 224.42V230.972C297.562 231.528 298.016 231.981 298.572 231.981H301.175C301.731 231.981 302.184 231.528 302.184 230.972V224.42C302.184 223.864 301.731 223.411 301.175 223.411Z" fill="#0D0848"/>
<path d="M294.917 223.411H292.314C291.758 223.411 291.305 223.864 291.305 224.42V230.972C291.305 231.528 291.758 231.981 292.314 231.981H294.917C295.473 231.981 295.926 231.528 295.926 230.972V224.42C295.926 223.864 295.473 223.411 294.917 223.411Z" fill="#0D0848"/>
<path d="M285.714 223.411H283.111C282.555 223.411 282.102 223.864 282.102 224.42V230.972C282.102 231.528 282.555 231.981 283.111 231.981H285.714C286.27 231.981 286.723 231.528 286.723 230.972V224.42C286.73 223.864 286.277 223.411 285.714 223.411Z" fill="#0D0848"/>
<path d="M279.464 223.404H276.861C276.305 223.404 275.852 223.857 275.852 224.413V230.965C275.852 231.521 276.305 231.974 276.861 231.974H279.464C280.02 231.974 280.473 231.521 280.473 230.965V224.413C280.473 223.857 280.02 223.404 279.464 223.404Z" fill="#0D0848"/>
<path d="M289.017 225.91C288.742 225.91 288.516 226.137 288.516 226.411C288.516 226.693 288.742 226.913 289.017 226.913C289.298 226.913 289.518 226.686 289.518 226.411C289.525 226.137 289.298 225.91 289.017 225.91Z" fill="white"/>
<path d="M289.017 229.625C289.293 229.625 289.518 229.401 289.518 229.124C289.518 228.847 289.293 228.623 289.017 228.623C288.74 228.623 288.516 228.847 288.516 229.124C288.516 229.401 288.74 229.625 289.017 229.625Z" fill="white"/>
<path d="M280.468 226.948H280.062V228.438H280.468V226.948Z" fill="white"/>
<path d="M276.249 226.948H275.844V228.438H276.249V226.948Z" fill="white"/>
<path d="M278.666 224.743H278.007C277.973 224.743 277.938 224.757 277.911 224.777L277.149 225.388C277.114 225.416 277.094 225.457 277.094 225.505V226.109C277.094 226.233 277.238 226.309 277.334 226.226L277.657 225.972C277.753 225.89 277.897 225.965 277.897 226.089V230.518C277.897 230.601 277.966 230.669 278.048 230.669H278.659C278.742 230.669 278.811 230.601 278.811 230.518V224.894C278.817 224.812 278.756 224.743 278.666 224.743Z" fill="white"/>
<path d="M286.679 226.948H286.273V228.438H286.679V226.948Z" fill="white"/>
<path d="M282.507 226.948H282.102V228.438H282.507V226.948Z" fill="white"/>
<path d="M284.96 224.75H284.184C284.17 224.75 284.156 224.757 284.142 224.764L283.325 225.423C283.312 225.437 283.305 225.45 283.305 225.471V226.302C283.305 226.357 283.366 226.384 283.408 226.35L284.012 225.862C284.053 225.828 284.115 225.862 284.115 225.911V230.615C284.115 230.649 284.142 230.676 284.177 230.676H284.967C285.001 230.676 285.028 230.649 285.028 230.615V224.819C285.022 224.777 284.994 224.75 284.96 224.75Z" fill="white"/>
<path d="M293.918 226.858C293.809 226.858 293.699 226.879 293.582 226.913C293.465 226.948 293.369 227.009 293.3 227.085C293.287 227.085 293.28 227.085 293.28 227.078C293.28 227.078 293.273 227.071 293.266 227.071V225.691C293.266 225.663 293.287 225.643 293.314 225.643H294.715C294.818 225.643 294.901 225.56 294.901 225.457V224.99C294.901 224.887 294.818 224.805 294.715 224.805H292.71C292.559 224.805 292.435 224.929 292.435 225.08V227.689C292.435 227.847 292.566 227.971 292.717 227.971H293.17C293.191 227.971 293.204 227.957 293.211 227.943C293.252 227.847 293.314 227.772 293.39 227.73H293.397C293.74 227.531 294.015 227.696 294.015 228.087V229.433C294.001 229.626 293.96 229.756 293.884 229.825C293.809 229.894 293.719 229.928 293.616 229.928C293.472 229.928 293.362 229.88 293.294 229.784C293.225 229.688 293.191 229.53 293.191 229.31V229.193L292.346 229.33C292.318 229.337 292.305 229.358 292.305 229.385C292.312 229.818 292.415 230.155 292.614 230.402C292.82 230.656 293.149 230.786 293.596 230.786C294.049 230.786 294.385 230.656 294.605 230.388C294.825 230.127 294.935 229.715 294.935 229.152V227.923C294.935 227.614 294.859 227.36 294.701 227.16C294.543 226.961 294.282 226.858 293.918 226.858Z" fill="white"/>
<path d="M295.905 226.954H295.5V228.445H295.905V226.954Z" fill="white"/>
<path d="M291.679 226.954H291.273V228.445H291.679V226.954Z" fill="white"/>
<path d="M299.95 224.709C299.724 224.709 299.525 224.743 299.36 224.812C299.195 224.88 299.058 224.977 298.948 225.1C298.838 225.224 298.755 225.368 298.707 225.533C298.652 225.698 298.625 225.876 298.625 226.068V227.099C298.625 227.524 298.707 227.82 298.879 227.984C299.051 228.149 299.271 228.238 299.552 228.238C299.696 228.238 299.827 228.204 299.93 228.135L299.964 228.17L299.078 230.484C299.037 230.587 299.113 230.69 299.222 230.69H299.868C299.93 230.69 299.985 230.649 300.012 230.594L301.07 227.847C301.186 227.531 301.241 227.147 301.241 226.7V225.945C301.241 225.567 301.132 225.272 300.919 225.052C300.692 224.819 300.376 224.709 299.95 224.709ZM300.314 227.057C300.314 227.174 300.28 227.27 300.218 227.359C300.156 227.449 300.06 227.49 299.93 227.49C299.82 227.49 299.724 227.456 299.655 227.394C299.58 227.332 299.545 227.243 299.545 227.133V225.917C299.545 225.807 299.58 225.718 299.662 225.656C299.737 225.595 299.827 225.567 299.937 225.567C300.047 225.567 300.143 225.595 300.211 225.656C300.28 225.718 300.314 225.801 300.314 225.917V227.057Z" fill="white"/>
<path d="M301.784 226.954L301.781 228.444L302.186 228.445L302.189 226.955L301.784 226.954Z" fill="white"/>
<path d="M297.96 226.954H297.555V228.445H297.96V226.954Z" fill="white"/>
<path d="M196.441 235.71C196.441 235.847 196.331 235.957 196.194 235.957H153.26C152.985 235.957 152.766 235.737 152.766 235.463V234.261H196.441V235.71Z" fill="#E527BB"/>
<path d="M158.367 233.76V234.268H156.836V233.595H158.203C158.292 233.595 158.367 233.671 158.367 233.76Z" fill="#1D1273"/>
<path d="M160.149 233.76V234.268H158.617V233.595H159.984C160.073 233.595 160.149 233.671 160.149 233.76Z" fill="#1D1273"/>
<path d="M161.922 233.76V234.268H160.391V233.595H161.757C161.846 233.595 161.922 233.671 161.922 233.76Z" fill="#1D1273"/>
<path d="M169.336 233.76V234.268H167.805V233.595H169.171C169.261 233.595 169.336 233.671 169.336 233.76Z" fill="#1D1273"/>
<path d="M171.11 233.76V234.268H169.578V233.595H170.945C171.034 233.595 171.11 233.671 171.11 233.76Z" fill="#1D1273"/>
<path d="M191.985 233.76V234.268H190.453V233.595H191.82C191.909 233.595 191.985 233.671 191.985 233.76Z" fill="#1D1273"/>
<path d="M193.758 233.76V234.268H192.227V233.595H193.593C193.682 233.595 193.758 233.671 193.758 233.76Z" fill="#1D1273"/>
<path d="M167.502 233.76V234.268H162.234V233.595H167.337C167.426 233.595 167.502 233.671 167.502 233.76Z" fill="#1D1273"/>
<path d="M199.533 233.76V234.268H194.266V233.595H199.368C199.457 233.595 199.533 233.671 199.533 233.76Z" fill="#1D1273"/>
<path d="M190.037 233.76V234.268H171.742V233.595H189.872C189.961 233.595 190.037 233.671 190.037 233.76Z" fill="#1D1273"/>
<path d="M203.993 233.595H207.708C207.921 233.595 208.086 233.767 208.086 233.973V234.268H203.828V233.76C203.828 233.671 203.904 233.595 203.993 233.595Z" fill="url(#paint7_linear_1600_4536)"/>
<path d="M209.125 233.595H212.84C213.053 233.595 213.218 233.767 213.218 233.973V234.268H208.953V233.76C208.96 233.671 209.036 233.595 209.125 233.595Z" fill="url(#paint8_linear_1600_4536)"/>
<path d="M214.259 233.595H217.974C218.187 233.595 218.352 233.767 218.352 233.973V234.268H214.094V233.76C214.087 233.671 214.163 233.595 214.259 233.595Z" fill="url(#paint9_linear_1600_4536)"/>
<path d="M219.391 233.595H223.107C223.319 233.595 223.484 233.767 223.484 233.973V234.268H219.227V233.76C219.227 233.671 219.302 233.595 219.391 233.595Z" fill="url(#paint10_linear_1600_4536)"/>
<path d="M225.43 233.595H227.374C227.58 233.595 227.752 233.767 227.752 233.973V234.268H225.266V233.76C225.266 233.671 225.341 233.595 225.43 233.595Z" fill="url(#paint11_linear_1600_4536)"/>
<path d="M228.461 233.595H230.404C230.617 233.595 230.782 233.767 230.782 233.973V234.268H228.289V233.76C228.289 233.671 228.365 233.595 228.461 233.595Z" fill="url(#paint12_linear_1600_4536)"/>
<path d="M231.304 233.595H233.248C233.461 233.595 233.626 233.767 233.626 233.973V234.268H231.133V233.76C231.14 233.671 231.215 233.595 231.304 233.595Z" fill="url(#paint13_linear_1600_4536)"/>
<path d="M198.832 202.116C199.168 200.756 199.711 199.794 201.105 199.794L192.438 235.758C192.438 235.758 190.763 235.216 191.175 233.382C191.525 231.851 197.025 209.464 198.832 202.116Z" fill="#1D1273"/>
<path d="M201.102 199.794H246.824C247.463 199.794 247.93 200.399 247.772 201.017L239.353 234.261H191.289L199.749 200.838C199.914 200.227 200.471 199.794 201.102 199.794Z" fill="#E527BB"/>
<path d="M239.357 235.71C239.357 235.847 239.247 235.957 239.11 235.957H191.932C191.657 235.957 191.438 235.737 191.438 235.463V234.261H239.364V235.71H239.357Z" fill="#E527BB"/>
<path d="M433.563 145.892C434.071 118.402 412.199 95.6237 384.709 95.0125C357.22 94.4014 334.517 116.198 334.009 143.688C333.501 171.177 355.373 193.956 382.862 194.567C410.352 195.178 433.048 173.381 433.563 145.892Z" fill="url(#paint14_radial_1600_4536)"/>
<path d="M418.702 136.567C418.629 132.853 417.893 129.259 416.6 125.889L422.739 120.996L415.875 110.673L408.99 114.445C406.382 111.946 403.346 109.881 399.95 108.378L400.821 100.57L388.653 98.1284L386.446 105.666C382.743 105.739 379.139 106.474 375.764 107.768L370.872 101.629L360.544 108.493L364.326 115.389C361.817 117.997 359.757 121.023 358.254 124.429L350.451 123.552L348 135.722L355.542 137.923C355.615 141.627 356.34 145.242 357.649 148.606L351.5 153.499L358.374 163.827L365.259 160.056C367.867 162.554 370.908 164.62 374.299 166.117L373.428 173.926L385.591 176.367L387.803 168.829C391.516 168.756 395.11 168.021 398.474 166.717L403.377 172.862L413.694 165.987L409.923 159.101C412.432 156.493 414.498 153.447 415.994 150.061L423.797 150.933L426.239 138.768L418.702 136.567ZM405.02 140.839C403.033 150.719 393.415 157.124 383.526 155.137C373.647 153.16 367.241 143.531 369.229 133.651C371.216 123.761 380.834 117.361 390.713 119.348C400.602 121.33 407.002 130.959 405.02 140.839Z" fill="#E527BB"/>
<path d="M451.991 125.348C452.44 100.853 433.159 80.5539 408.922 80.0111C384.689 79.4683 364.676 98.8851 364.226 123.386C363.777 147.881 383.058 168.18 407.295 168.723C431.533 169.261 451.542 149.844 451.991 125.348Z" fill="url(#paint15_radial_1600_4536)"/>
<path d="M446.856 122.228C446.856 142.615 430.329 159.136 409.947 159.136C389.56 159.136 373.039 142.609 373.039 122.228C373.039 101.846 389.566 85.3193 409.947 85.3193C430.329 85.3193 446.856 101.841 446.856 122.228Z" fill="#A78BEF"/>
<path d="M409.577 121.569C409.068 121.849 408.43 121.667 408.15 121.159C408.15 121.159 397.196 100.435 397.705 100.149C398.213 99.8689 409.987 120.137 409.987 120.137C410.267 120.645 410.085 121.283 409.577 121.569Z" fill="#E527BB"/>
<path d="M410.176 94.2855C409.294 94.2855 408.578 93.5695 408.578 92.6874V88.4429C408.578 87.5608 409.294 86.8447 410.176 86.8447C411.058 86.8447 411.774 87.5608 411.774 88.4429V92.6874C411.774 93.5695 411.058 94.2855 410.176 94.2855Z" fill="white"/>
<path d="M443.733 124.054H439.489C438.607 124.054 437.891 123.338 437.891 122.456C437.891 121.574 438.607 120.858 439.489 120.858H443.733C444.615 120.858 445.331 121.574 445.331 122.456C445.331 123.338 444.615 124.054 443.733 124.054Z" fill="white"/>
<path d="M409.723 157.616C408.841 157.616 408.125 156.9 408.125 156.017V151.773C408.125 150.891 408.841 150.175 409.723 150.175C410.605 150.175 411.321 150.891 411.321 151.773V156.017C411.321 156.9 410.605 157.616 409.723 157.616Z" fill="white"/>
<path d="M380.413 123.603H376.168C375.286 123.603 374.57 122.887 374.57 122.004C374.57 121.122 375.286 120.406 376.168 120.406H380.413C381.295 120.406 382.011 121.122 382.011 122.004C382.011 122.881 381.295 123.603 380.413 123.603Z" fill="white"/>
<g opacity="0.5">
<path d="M395.366 97.3263C395.091 97.3263 394.821 97.1862 394.676 96.9267L392.553 93.2478C392.33 92.8639 392.465 92.3761 392.844 92.153C393.228 91.9351 393.716 92.0596 393.934 92.4436L396.056 96.1225C396.279 96.5064 396.144 96.9942 395.765 97.2173C395.641 97.2952 395.501 97.3263 395.366 97.3263Z" fill="#DEE3FC"/>
<path d="M435.65 108.451C435.375 108.451 435.105 108.306 434.96 108.052C434.736 107.668 434.871 107.18 435.25 106.957L438.924 104.835C439.308 104.611 439.796 104.741 440.014 105.125C440.237 105.509 440.102 105.997 439.723 106.215L436.049 108.337C435.92 108.415 435.785 108.451 435.65 108.451Z" fill="#DEE3FC"/>
<path d="M426.639 152.401C426.364 152.401 426.094 152.256 425.949 152.001L423.827 148.328C423.604 147.944 423.739 147.456 424.117 147.233C424.496 147.01 424.989 147.139 425.207 147.523L427.329 151.197C427.552 151.581 427.417 152.069 427.039 152.292C426.914 152.364 426.779 152.401 426.639 152.401Z" fill="#DEE3FC"/>
<path d="M380.564 139.724C380.289 139.724 380.019 139.579 379.874 139.325C379.651 138.941 379.785 138.453 380.164 138.23L383.843 136.108C384.222 135.89 384.715 136.014 384.933 136.398C385.156 136.782 385.021 137.27 384.642 137.493L380.963 139.615C380.839 139.688 380.704 139.724 380.564 139.724Z" fill="#DEE3FC"/>
</g>
<g opacity="0.5">
<path d="M384.473 108.057C384.338 108.057 384.198 108.02 384.073 107.948L380.4 105.825C380.016 105.602 379.886 105.115 380.109 104.731C380.327 104.347 380.82 104.217 381.199 104.435L384.873 106.557C385.257 106.78 385.386 107.268 385.163 107.652C385.018 107.917 384.748 108.057 384.473 108.057Z" fill="#DEE3FC"/>
<path d="M424.916 97.5544C424.782 97.5544 424.641 97.518 424.517 97.4454C424.133 97.2223 424.003 96.7345 424.226 96.3505L426.349 92.6768C426.567 92.2929 427.054 92.1631 427.438 92.3863C427.822 92.6094 427.952 93.0971 427.729 93.4811L425.607 97.1548C425.461 97.4091 425.191 97.5544 424.916 97.5544Z" fill="#DEE3FC"/>
<path d="M439.095 140.114C438.96 140.114 438.82 140.077 438.696 140.005L435.017 137.882C434.633 137.659 434.503 137.172 434.726 136.788C434.944 136.404 435.437 136.279 435.816 136.497L439.49 138.619C439.874 138.842 440.003 139.33 439.78 139.714C439.64 139.974 439.37 140.114 439.095 140.114Z" fill="#DEE3FC"/>
<path d="M392.862 152.172C392.727 152.172 392.587 152.136 392.462 152.064C392.078 151.84 391.949 151.353 392.172 150.969L394.294 147.29C394.512 146.906 395.005 146.781 395.384 146.999C395.768 147.217 395.897 147.71 395.674 148.094L393.552 151.768C393.407 152.032 393.137 152.172 392.862 152.172Z" fill="#DEE3FC"/>
</g>
<path d="M413.306 122.228C413.306 124.085 411.801 125.585 409.948 125.585C408.091 125.585 406.586 124.08 406.586 122.228C406.586 120.37 408.091 118.87 409.948 118.87C411.801 118.865 413.306 120.37 413.306 122.228Z" fill="white"/>
<path d="M410.472 122.762C410.881 122.352 411.546 122.352 411.961 122.762L421.353 132.154C421.762 132.564 421.762 133.228 421.353 133.638C420.943 134.048 420.278 134.048 419.863 133.638L410.472 124.246C410.062 123.836 410.062 123.172 410.472 122.762Z" fill="white"/>
<path d="M225.882 87.3777L222.414 91.3057L229.034 96.2982L230.84 97.6579L231.87 96.0784L241.072 81.9731L230.414 92.0336L225.882 87.3777Z" fill="#A78BEF"/>
<path d="M233.435 139.843H221.953C220.572 139.843 219.453 138.724 219.453 137.344V125.862C219.453 124.481 220.572 123.362 221.953 123.362H233.435C234.815 123.362 235.934 124.481 235.934 125.862V137.344C235.934 138.724 234.815 139.843 233.435 139.843Z" fill="#E527BB"/>
<path d="M225.882 126.954L222.414 130.882L229.034 135.874L230.84 137.241L231.87 135.661L241.072 121.556L230.414 131.616L225.882 126.954Z" fill="#A78BEF"/>
<path d="M233.435 180.36H221.953C220.572 180.36 219.453 179.241 219.453 177.86V166.378C219.453 164.998 220.572 163.879 221.953 163.879H233.435C234.815 163.879 235.934 164.998 235.934 166.378V177.86C235.934 179.241 234.815 180.36 233.435 180.36Z" fill="#E527BB"/>
<path d="M328.839 189.294C324.938 178.485 310.895 175.532 302.874 183.327L295.375 180.525L299.104 188.882C296.24 195.44 298.973 204.512 305.319 208.262C306.781 209.189 308.258 209.848 309.7 210.212C322.322 213.494 333.124 201.731 328.839 189.294Z" fill="#A78BEF"/>
<path d="M306.445 190.111V199.011C306.445 199.581 306.905 200.041 307.475 200.041H320.159C320.509 200.041 320.812 199.877 321.024 199.629C321.031 199.623 321.038 199.629 321.038 199.623C321.045 199.616 321.045 199.602 321.045 199.595C321.203 199.396 321.306 199.162 321.306 198.895V190.118C321.306 190.098 321.285 190.084 321.279 190.063C321.279 190.05 321.292 190.043 321.285 190.036C321.279 190.022 321.265 190.029 321.258 190.015C321.217 189.933 321.148 189.871 321.052 189.871H306.693C306.596 189.871 306.528 189.933 306.487 190.015C306.48 190.029 306.459 190.022 306.459 190.036C306.452 190.05 306.466 190.057 306.466 190.063C306.459 190.077 306.445 190.091 306.445 190.111ZM306.947 199.011V190.654L311.864 194.843L307.036 199.224C307.002 199.156 306.947 199.094 306.947 199.011ZM320.393 190.366L313.972 195.983L307.372 190.366H320.393ZM315.998 194.877L320.812 190.668V198.895C320.812 198.95 320.763 198.991 320.75 199.039L315.998 194.877ZM307.475 199.54C307.462 199.54 307.455 199.526 307.441 199.526L312.248 195.173L313.814 196.505C313.862 196.546 313.917 196.567 313.979 196.567C314.04 196.567 314.095 196.546 314.143 196.505L315.62 195.214L320.441 199.43C320.351 199.478 320.269 199.547 320.166 199.547H307.475V199.54Z" fill="white"/>
<path d="M225.882 168.775L222.414 172.696L229.034 177.689L230.84 179.055L231.87 177.476L241.072 163.371L230.414 173.431L225.882 168.775Z" fill="#A78BEF"/>
<path d="M282.63 287.321C282.63 287.321 281.905 277.243 277.991 279.2C274.076 281.157 270.883 294 270.458 294.382C270.032 294.764 270.158 306.5 270.158 306.5L274.711 304.204C274.711 304.204 275.925 276.15 282.63 287.321Z" fill="#207F20"/>
<path d="M278.238 266.454C278.238 266.454 269.465 274.299 267.07 287.746C264.675 301.193 272.242 305.154 272.242 305.154C272.242 305.154 273.319 276.874 278.238 266.454Z" fill="#39B039"/>
<path d="M261.959 306.969C261.959 306.969 260.489 278.34 253.086 265.926C253.086 265.926 266.09 273.675 270.401 294.017C270.643 295.163 270.786 296.435 270.973 297.662C271.162 298.938 271.279 300.067 271.249 301.194C271.195 303.184 270.919 304.898 270.84 306.154C270.135 317.026 261.959 306.969 261.959 306.969Z" fill="#207F20"/>
<path d="M262.217 294.811C261.715 290.73 260.162 286.839 257.667 283.566C255.868 281.204 253.782 279.406 252.153 280.689C248.534 283.537 247.812 301.227 247.812 301.227C247.812 301.227 251.9 288.979 253.686 289.787C255.475 290.594 257.135 307.221 257.135 307.221L263.817 307.772L262.217 294.811Z" fill="#39B039"/>
<path d="M271.33 305.968C271.603 299.718 270.822 293.717 268.999 288.139C267.542 283.673 265.42 279.463 262.696 275.628C258.053 269.096 253.201 265.87 253.151 265.836L253.031 266.016C253.078 266.049 257.907 269.259 262.523 275.761C266.784 281.759 271.733 291.87 271.114 305.958L271.33 305.968Z" fill="#21111D"/>
<path d="M272.349 305.158C272.352 305.088 272.628 297.994 273.503 289.724C274.308 282.095 275.801 271.871 278.336 266.501L278.139 266.408C275.592 271.804 274.092 282.051 273.287 289.7C272.412 297.98 272.136 305.078 272.133 305.148L272.349 305.158Z" fill="#21111D"/>
<path d="M274.818 304.207C274.821 304.161 275.024 299.549 275.702 294.877C276.594 288.733 277.884 285.278 279.431 284.882C280.345 284.65 281.386 285.487 282.534 287.374L282.72 287.261C281.519 285.281 280.395 284.41 279.378 284.67C277.715 285.095 276.408 288.517 275.49 294.844C274.811 299.526 274.605 304.147 274.602 304.194L274.818 304.207Z" fill="#21111D"/>
<path d="M263.707 307.789L263.924 307.763L262.324 294.797C261.812 290.661 260.232 286.753 257.754 283.5C256.184 281.44 254.791 280.32 253.61 280.171C253.051 280.101 252.539 280.247 252.087 280.603C250.563 281.802 249.363 285.64 248.518 292.013C247.893 296.741 247.706 301.18 247.703 301.224L247.919 301.233C247.926 301.057 248.681 283.56 252.22 280.775C252.625 280.456 253.084 280.324 253.583 280.387C254.704 280.53 256.048 281.623 257.581 283.633C260.036 286.856 261.602 290.727 262.108 294.827L263.707 307.789Z" fill="#21111D"/>
<path d="M256.794 291.804L256.602 291.903L258.006 294.623L258.198 294.524L256.794 291.804Z" fill="#21111D"/>
<path d="M256.76 293.636L256.57 293.74L257.974 296.287L258.164 296.182L256.76 293.636Z" fill="#21111D"/>
<path d="M272.302 275.615L271.102 278.249L271.298 278.338L272.499 275.704L272.302 275.615Z" fill="#21111D"/>
<path d="M272.163 277.638L271.141 279.481L271.33 279.585L272.352 277.743L272.163 277.638Z" fill="#21111D"/>
<path d="M279.06 280.164L277.016 281.205L277.114 281.398L279.159 280.356L279.06 280.164Z" fill="#21111D"/>
<path d="M278.145 281.372L276.938 282.106L277.05 282.29L278.257 281.557L278.145 281.372Z" fill="#21111D"/>
<path d="M277.03 303.476C277.03 303.476 276.647 324.406 271.036 323.914H266.623H265.915H261.501C255.89 324.406 255.508 303.476 255.508 303.476C260.819 302.676 271.718 302.676 277.03 303.476Z" fill="#E31E23"/>
<path d="M257.766 306.146L257.609 306.295L263.741 312.763L263.898 312.615L257.766 306.146Z" fill="#21111D"/>
<path d="M259.562 310.303L259.398 310.444L262.775 314.323L262.938 314.181L259.562 310.303Z" fill="#21111D"/>
<path d="M348 229.13V191.697C348 189.101 350.101 187 352.697 187H412.552C415.148 187 417.249 189.101 417.249 191.697L417.242 229.13C417.242 231.726 415.141 233.828 412.545 233.828H352.697C350.101 233.828 348 231.726 348 229.13Z" fill="#F5F5F5"/>
<path d="M358.233 224.535H406.813C408.009 224.535 408.866 224.843 408.866 225.273C408.866 225.833 407.414 226.354 405.852 226.354H357.272C356.076 226.354 355.219 226.046 355.219 225.616C355.219 225.055 356.67 224.535 358.233 224.535Z" fill="#E3DEDE"/>
<path d="M359.139 215.442H407.719C408.915 215.442 409.772 215.751 409.772 216.18C409.772 216.741 408.321 217.261 406.758 217.261H358.178C356.982 217.261 356.125 216.95 356.125 216.523C356.125 215.963 357.577 215.442 359.139 215.442Z" fill="#E3DEDE"/>
<path d="M391.172 213.624C392.428 213.624 393.429 214.642 393.405 215.897C393.382 217.152 392.349 218.17 391.093 218.17C389.837 218.17 388.837 217.152 388.86 215.897C388.878 214.642 389.916 213.624 391.172 213.624Z" fill="#A78BEF"/>
<path d="M400.305 223.626C401.559 223.626 402.54 224.644 402.498 225.899C402.457 227.154 401.402 228.172 400.148 228.172C398.894 228.172 397.913 227.154 397.954 225.899C397.996 224.644 399.051 223.626 400.305 223.626Z" fill="#E527BB"/>
<path d="M391.903 195.206C390.206 196.875 389.272 199.086 389.266 201.442C389.266 203.578 390.055 205.617 391.497 207.183C393.125 208.948 395.35 209.916 397.76 209.916C400.198 209.916 402.554 208.879 404.222 207.066C405.72 205.439 406.544 203.337 406.544 201.153C406.544 196.477 402.732 192.672 398.049 192.672C395.741 192.679 393.558 193.579 391.903 195.206ZM392.878 196.168C394.176 194.89 395.913 194.19 397.754 194.19C401.75 194.19 404.998 197.445 404.998 201.442C404.998 203.214 404.346 204.896 403.165 206.18C401.84 207.615 400.02 208.412 398.042 208.412C396.03 208.412 394.093 207.554 392.713 206.063C391.477 204.717 390.797 202.973 390.797 201.16C390.804 199.251 391.539 197.479 392.878 196.168Z" fill="#C9C9C9"/>
<path d="M397.744 210.788C400.422 210.788 403.018 209.641 404.851 207.65C406.493 205.857 407.399 203.55 407.399 201.147C407.399 196.003 403.203 191.814 398.053 191.814H397.394L396.769 195.055H397.737C401.26 195.055 404.123 197.926 404.123 201.456C404.123 203.008 403.553 204.484 402.523 205.603C401.37 206.86 399.777 207.547 398.046 207.547C396.274 207.547 394.564 206.791 393.349 205.473C392.257 204.285 391.659 202.747 391.659 201.147V200.185L388.391 200.789V201.456C388.391 203.804 389.263 206.05 390.842 207.773C392.641 209.717 395.086 210.788 397.744 210.788Z" fill="#E527BB"/>
<path d="M364.54 195.206C362.899 196.875 362.04 199.093 362.123 201.442C362.198 203.578 363.057 205.617 364.554 207.183C366.243 208.948 368.502 209.916 370.913 209.916C373.351 209.916 375.665 208.879 377.272 207.066C378.707 205.439 379.456 203.337 379.38 201.153C379.215 196.477 375.273 192.672 370.59 192.672C368.289 192.679 366.14 193.579 364.54 195.206ZM365.549 196.168C366.806 194.89 368.509 194.19 370.356 194.19C374.353 194.19 377.711 197.445 377.855 201.442C377.917 203.214 377.327 204.896 376.194 206.18C374.916 207.615 373.124 208.412 371.146 208.412C369.141 208.412 367.163 207.554 365.735 206.063C364.451 204.717 363.709 202.973 363.647 201.16C363.585 199.258 364.258 197.479 365.549 196.168Z" fill="#C9C9C9"/>
<path d="M370.896 210.788C373.582 210.788 376.143 209.641 377.915 207.643C379.501 205.844 380.332 203.529 380.243 201.119C380.064 195.989 375.738 191.814 370.601 191.814H369.914L369.406 195.055H370.347C373.884 195.055 376.864 197.94 376.988 201.483C377.043 203.028 376.528 204.498 375.539 205.617C374.433 206.86 372.874 207.554 371.151 207.554H370.464L369.956 210.795H370.896V210.788Z" fill="#A78BEF"/>
<circle cx="220" cy="218" r="4" fill="white"/>
</g>
</g>
<defs>
<linearGradient id="paint0_linear_1600_4536" x1="167.937" y1="190.841" x2="152.142" y2="190.841" gradientUnits="userSpaceOnUse">
<stop stop-color="#F4A999"/>
<stop offset="1" stop-color="#E8856F"/>
</linearGradient>
<linearGradient id="paint1_linear_1600_4536" x1="143.472" y1="217.494" x2="129.88" y2="217.494" gradientUnits="userSpaceOnUse">
<stop stop-color="#F4A999"/>
<stop offset="1" stop-color="#E8856F"/>
</linearGradient>
<linearGradient id="paint2_linear_1600_4536" x1="184.797" y1="231.436" x2="130.749" y2="231.436" gradientUnits="userSpaceOnUse">
<stop stop-color="#F4A999"/>
<stop offset="1" stop-color="#E8856F"/>
</linearGradient>
<linearGradient id="paint3_linear_1600_4536" x1="194.486" y1="227.244" x2="175.667" y2="224.434" gradientUnits="userSpaceOnUse">
<stop stop-color="#F4A999"/>
<stop offset="1" stop-color="#E8856F"/>
</linearGradient>
<linearGradient id="paint4_linear_1600_4536" x1="163.607" y1="171.511" x2="155.882" y2="184.593" gradientUnits="userSpaceOnUse">
<stop stop-color="#F4A999"/>
<stop offset="0.3439" stop-color="#F3A696"/>
<stop offset="0.6189" stop-color="#F09E8C"/>
<stop offset="0.8694" stop-color="#EB8F7B"/>
<stop offset="1" stop-color="#E8856F"/>
</linearGradient>
<linearGradient id="paint5_linear_1600_4536" x1="153.871" y1="174.705" x2="149.54" y2="177.426" gradientUnits="userSpaceOnUse">
<stop stop-color="#F4A999"/>
<stop offset="0.3439" stop-color="#F3A696"/>
<stop offset="0.6189" stop-color="#F09E8C"/>
<stop offset="0.8694" stop-color="#EB8F7B"/>
<stop offset="1" stop-color="#E8856F"/>
</linearGradient>
<linearGradient id="paint6_linear_1600_4536" x1="203.506" y1="328.886" x2="203.506" y2="235.981" gradientUnits="userSpaceOnUse">
<stop stop-color="#5752D0"/>
<stop offset="1" stop-color="#7F7CF9"/>
</linearGradient>
<linearGradient id="paint7_linear_1600_4536" x1="208.088" y1="233.929" x2="203.827" y2="233.929" gradientUnits="userSpaceOnUse">
<stop stop-color="#AACEFF"/>
<stop offset="1" stop-color="#DBE9FF"/>
</linearGradient>
<linearGradient id="paint8_linear_1600_4536" x1="213.222" y1="233.929" x2="208.961" y2="233.929" gradientUnits="userSpaceOnUse">
<stop stop-color="#AACEFF"/>
<stop offset="1" stop-color="#DBE9FF"/>
</linearGradient>
<linearGradient id="paint9_linear_1600_4536" x1="218.351" y1="233.929" x2="214.091" y2="233.929" gradientUnits="userSpaceOnUse">
<stop stop-color="#AACEFF"/>
<stop offset="1" stop-color="#DBE9FF"/>
</linearGradient>
<linearGradient id="paint10_linear_1600_4536" x1="223.485" y1="233.929" x2="219.225" y2="233.929" gradientUnits="userSpaceOnUse">
<stop stop-color="#AACEFF"/>
<stop offset="1" stop-color="#DBE9FF"/>
</linearGradient>
<linearGradient id="paint11_linear_1600_4536" x1="227.753" y1="233.929" x2="225.264" y2="233.929" gradientUnits="userSpaceOnUse">
<stop stop-color="#AACEFF"/>
<stop offset="1" stop-color="#DBE9FF"/>
</linearGradient>
<linearGradient id="paint12_linear_1600_4536" x1="230.781" y1="233.929" x2="228.291" y2="233.929" gradientUnits="userSpaceOnUse">
<stop stop-color="#AACEFF"/>
<stop offset="1" stop-color="#DBE9FF"/>
</linearGradient>
<linearGradient id="paint13_linear_1600_4536" x1="233.63" y1="233.929" x2="231.14" y2="233.929" gradientUnits="userSpaceOnUse">
<stop stop-color="#AACEFF"/>
<stop offset="1" stop-color="#DBE9FF"/>
</linearGradient>
<radialGradient id="paint14_radial_1600_4536" cx="0" cy="0" r="1" gradientUnits="userSpaceOnUse" gradientTransform="translate(383.539 144.594) rotate(-178.73) scale(49.898 46.5811)">
<stop stop-color="#B0BFEE"/>
<stop offset="1" stop-color="white"/>
</radialGradient>
<radialGradient id="paint15_radial_1600_4536" cx="0" cy="0" r="1" gradientUnits="userSpaceOnUse" gradientTransform="translate(407.928 124.216) rotate(-178.716) scale(43.9876 41.509)">
<stop stop-color="#1D1273"/>
<stop offset="1" stop-color="white"/>
</radialGradient>
<clipPath id="clip0_1600_4536">
<rect width="542.64" height="328.79" fill="white"/>
</clipPath>
<clipPath id="clip1_1600_4536">
<rect width="460.153" height="262.885" fill="white" transform="translate(41 66)"/>
</clipPath>
</defs>
</svg>
