<svg width="54" height="54" viewBox="0 0 54 54" fill="none" xmlns="http://www.w3.org/2000/svg">
<g clip-path="url(#clip0_1165_7902)">
<path d="M0.84375 0.84375V39.6562H9.77569L3.82641 45.6055C2.99109 46.4408 2.53125 47.5512 2.53125 48.7333C2.53125 51.1717 4.51575 53.1562 6.95419 53.1562C8.13544 53.1562 9.24666 52.6964 10.082 51.8611L19.7556 42.1875L18.4899 40.9219L20.1175 39.2943C22.1012 40.5861 24.462 41.3438 27 41.3438C29.2891 41.3438 31.4322 40.7236 33.2876 39.6562H53.1562V0.84375H0.84375ZM8.88891 50.668C8.37253 51.1844 7.68487 51.4688 6.95419 51.4688C5.44556 51.4688 4.21875 50.2419 4.21875 48.7333C4.21875 48.0026 4.50309 47.315 5.01947 46.7986L13.5 38.3181L17.3694 42.1875L8.88891 50.668ZM17.2969 39.7288L15.9587 38.3906L17.4175 36.9318C17.8301 37.4102 18.2773 37.8574 18.7557 38.27L17.2969 39.7288ZM27 39.6562C20.952 39.6562 16.0312 34.7355 16.0312 28.6875C16.0312 22.6395 20.952 17.7188 27 17.7188C33.048 17.7188 37.9688 22.6395 37.9688 28.6875C37.9688 34.7355 33.048 39.6562 27 39.6562ZM11.8125 21.0938H13.5C14.5201 21.0938 15.4946 21.3587 16.3679 21.8472C15.5309 23.1432 14.9175 24.5953 14.5994 26.1562H5.96616C6.37706 23.2976 8.84166 21.0938 11.8125 21.0938ZM9.28125 16.0312C9.28125 14.1699 10.7949 12.6562 12.6562 12.6562C14.5176 12.6562 16.0312 14.1699 16.0312 16.0312C16.0312 17.8926 14.5176 19.4062 12.6562 19.4062C10.7949 19.4062 9.28125 17.8926 9.28125 16.0312ZM40.5 21.0938H42.1875C45.1583 21.0938 47.6229 23.2976 48.0338 26.1562H39.4014C39.0833 24.5945 38.4691 23.1424 37.6321 21.8464C38.5054 21.3578 39.4799 21.0938 40.5 21.0938ZM37.9688 16.0312C37.9688 14.1699 39.4824 12.6562 41.3438 12.6562C43.2051 12.6562 44.7188 14.1699 44.7188 16.0312C44.7188 17.8926 43.2051 19.4062 41.3438 19.4062C39.4824 19.4062 37.9688 17.8926 37.9688 16.0312ZM51.4688 37.9688H35.5759C38.0776 35.6552 39.6562 32.3561 39.6562 28.6875C39.6562 28.4023 39.6318 28.1239 39.6132 27.8438H49.7812V27C49.7812 23.6849 47.6432 20.8668 44.6757 19.8332C45.7338 18.9051 46.4062 17.5466 46.4062 16.0312C46.4062 13.2393 44.1357 10.9688 41.3438 10.9688C38.5518 10.9688 36.2812 13.2393 36.2812 16.0312C36.2812 17.5432 36.9512 18.8983 38.005 19.8273C37.5224 19.9952 37.0575 20.2137 36.6154 20.4795C34.2917 17.7618 30.8467 16.0312 27 16.0312C23.1525 16.0312 19.7075 17.7618 17.3846 20.4795C16.9417 20.2146 16.4776 19.9952 15.995 19.8273C17.0488 18.8992 17.7188 17.5432 17.7188 16.0312C17.7188 13.2393 15.4482 10.9688 12.6562 10.9688C9.86428 10.9688 7.59375 13.2393 7.59375 16.0312C7.59375 17.5466 8.26622 18.9051 9.32428 19.8332C6.35681 20.8668 4.21875 23.6849 4.21875 27V27.8438H14.3868C14.3682 28.1239 14.3438 28.4023 14.3438 28.6875C14.3438 31.2255 15.1014 33.5863 16.3932 35.57L14.7656 37.1976L13.5 35.9319L11.4632 37.9688H2.53125V9.28125H51.4688V37.9688ZM51.4688 7.59375H2.53125V2.53125H51.4688V7.59375Z" fill="#DAA7EE"/>
<path d="M4.21875 4.21875H5.90625V5.90625H4.21875V4.21875Z" fill="#DAA7EE"/>
<path d="M7.59375 4.21875H9.28125V5.90625H7.59375V4.21875Z" fill="#DAA7EE"/>
<path d="M10.9688 4.21875H12.6562V5.90625H10.9688V4.21875Z" fill="#DAA7EE"/>
<path d="M27 19.4062C21.8827 19.4062 17.7188 23.5702 17.7188 28.6875C17.7188 33.8048 21.8827 37.9688 27 37.9688C32.1173 37.9688 36.2812 33.8048 36.2812 28.6875C36.2812 23.5702 32.1173 19.4062 27 19.4062ZM27 36.2812C22.8125 36.2812 19.4062 32.875 19.4062 28.6875C19.4062 24.5 22.8125 21.0938 27 21.0938C31.1875 21.0938 34.5938 24.5 34.5938 28.6875C34.5938 32.875 31.1875 36.2812 27 36.2812Z" fill="#DAA7EE"/>
<path d="M22.7812 27.8438H31.2188V29.5312H22.7812V27.8438Z" fill="#DAA7EE"/>
<path d="M22.7812 24.4688H31.2188V26.1562H22.7812V24.4688Z" fill="#DAA7EE"/>
<path d="M22.7812 31.2188H31.2188V32.9062H22.7812V31.2188Z" fill="#DAA7EE"/>
<path d="M41.3438 29.5312H49.7812V31.2188H41.3438V29.5312Z" fill="#DAA7EE"/>
<path d="M41.3438 32.9062H49.7812V34.5938H41.3438V32.9062Z" fill="#DAA7EE"/>
<path d="M4.21875 29.5312H12.6562V31.2188H4.21875V29.5312Z" fill="#DAA7EE"/>
<path d="M4.21875 32.9062H12.6562V34.5938H4.21875V32.9062Z" fill="#DAA7EE"/>
<path d="M22.7812 10.9688H24.4688V12.6562H22.7812V10.9688Z" fill="#DAA7EE"/>
<path d="M26.1562 10.9688H27.8438V12.6562H26.1562V10.9688Z" fill="#DAA7EE"/>
<path d="M29.5312 10.9688H31.2188V12.6562H29.5312V10.9688Z" fill="#DAA7EE"/>
</g>
<defs>
<clipPath id="clip0_1165_7902">
<rect width="54" height="54" fill="white"/>
</clipPath>
</defs>
</svg>
