<svg width="543" height="329" viewBox="0 0 543 329" fill="none" xmlns="http://www.w3.org/2000/svg">
<g clip-path="url(#clip0_1761_5336)">
<path opacity="0.2" d="M127.492 328.58L412.142 311.93C487.412 307.53 545.652 243.73 542.512 168.39C539.872 105.08 517.192 37.64 440.912 8.81999C387.262 -11.45 317.592 5.13999 273.402 38.85C262.782 46.95 253.022 56.24 241.612 63.17C215.022 79.32 191.672 68.17 163.972 63.88C105.412 54.79 46.9621 73.46 16.7021 127.43C-29.7579 210.35 25.0421 334.57 127.492 328.58Z" fill="#999999"/>
<path d="M233.677 184.849H179.169L169.848 145.68H224.355L233.677 184.849Z" fill="#E527BB"/>
<path d="M231.085 182.666H180.657L172.371 147.862H222.799L231.085 182.666Z" fill="#A78BEF"/>
<path d="M201.135 162.196H180.333L177.613 150.787H198.415L201.135 162.196Z" fill="white"/>
<path d="M204.28 175.416H183.478L180.766 164.007H201.56L204.28 175.416Z" fill="white"/>
<path d="M207.114 155.737H201.991L200.812 150.787H205.936L207.114 155.737Z" fill="white"/>
<path d="M213.61 155.737H208.487L207.309 150.787H212.44L213.61 155.737Z" fill="white"/>
<path d="M220.118 155.737H214.994L213.816 150.787H218.94L220.118 155.737Z" fill="white"/>
<path d="M269.377 184.849H179.172V187.323H269.377V184.849Z" fill="#E527BB"/>
<path d="M216.451 184.849H179.172V187.347H216.451V184.849Z" fill="#E527BB"/>
<path d="M378.241 117.825H330.968C327.007 117.825 323.797 114.615 323.797 110.654V41.1712C323.797 37.2101 327.007 34 330.968 34H378.241C382.202 34 385.412 37.2101 385.412 41.1712V110.654C385.405 114.615 382.202 117.825 378.241 117.825Z" fill="#D1D1FF"/>
<path d="M346.15 54.3118H334.899C333.974 54.3118 333.215 53.5606 333.215 52.6277V46.7373C333.215 45.8043 333.966 45.0532 334.899 45.0532H346.15C347.075 45.0532 347.834 45.8043 347.834 46.7373V52.6277C347.834 53.5606 347.075 54.3118 346.15 54.3118Z" fill="#E527BB"/>
<path d="M375.995 45.0613H349.469V46.097H375.995V45.0613Z" fill="white"/>
<path d="M375.995 47.7732H349.469V48.8089H375.995V47.7732Z" fill="white"/>
<path d="M375.995 50.4929H349.469V51.5287H375.995V50.4929Z" fill="white"/>
<path d="M375.995 53.2129H349.469V54.2487H375.995V53.2129Z" fill="white"/>
<path d="M375.99 55.9248H333.762V56.9606H375.99V55.9248Z" fill="white"/>
<path d="M353.836 58.6445H333.762V59.6803H353.836V58.6445Z" fill="white"/>
<path d="M346.569 77.8574H334.48C333.784 77.8574 333.215 77.2882 333.215 76.5924V69.8639C333.215 69.1682 333.784 68.5989 334.48 68.5989H346.569C347.265 68.5989 347.834 69.1682 347.834 69.8639V76.5924C347.834 77.2961 347.265 77.8574 346.569 77.8574Z" fill="#E527BB"/>
<path d="M375.995 68.6069H349.469V69.6427H375.995V68.6069Z" fill="white"/>
<path d="M375.995 71.3188H349.469V72.3546H375.995V71.3188Z" fill="white"/>
<path d="M375.995 74.0386H349.469V75.0743H375.995V74.0386Z" fill="white"/>
<path d="M375.995 76.7585H349.469V77.7943H375.995V76.7585Z" fill="white"/>
<path d="M375.99 79.4705H333.762V80.5062H375.99V79.4705Z" fill="white"/>
<path d="M353.836 82.1902H333.762V83.2259H353.836V82.1902Z" fill="white"/>
<path d="M346.49 101.403H334.559C333.816 101.403 333.215 100.802 333.215 100.059V93.4886C333.215 92.7454 333.816 92.1445 334.559 92.1445H346.49C347.233 92.1445 347.834 92.7454 347.834 93.4886V100.059C347.834 100.802 347.233 101.403 346.49 101.403Z" fill="#E527BB"/>
<path d="M375.995 92.1445H349.469V93.1803H375.995V92.1445Z" fill="white"/>
<path d="M375.995 94.8645H349.469V95.9003H375.995V94.8645Z" fill="white"/>
<path d="M375.995 97.5842H349.469V98.62H375.995V97.5842Z" fill="white"/>
<path d="M375.995 100.304H349.469V101.34H375.995V100.304Z" fill="white"/>
<path d="M375.99 103.016H333.762V104.052H375.99V103.016Z" fill="white"/>
<path d="M353.836 105.736H333.762V106.772H353.836V105.736Z" fill="white"/>
<path d="M430.128 260.079H379.913C377.217 260.079 375.035 257.897 375.035 255.201V247.674C375.035 244.978 377.217 242.796 379.913 242.796H430.128C432.824 242.796 435.006 244.978 435.006 247.674V255.201C435.006 257.897 432.824 260.079 430.128 260.079Z" fill="white"/>
<path d="M403.886 253.881H382.049C380.704 253.881 379.605 252.79 379.605 251.437C379.605 250.093 380.697 248.994 382.049 248.994H403.879C405.223 248.994 406.322 250.085 406.322 251.437C406.322 252.79 405.231 253.881 403.886 253.881Z" fill="#E527BB"/>
<path d="M412.146 253.881C413.496 253.881 414.589 252.787 414.589 251.437C414.589 250.088 413.496 248.994 412.146 248.994C410.797 248.994 409.703 250.088 409.703 251.437C409.703 252.787 410.797 253.881 412.146 253.881Z" fill="#E527BB"/>
<path d="M420.068 253.881C421.417 253.881 422.511 252.787 422.511 251.437C422.511 250.088 421.417 248.994 420.068 248.994C418.719 248.994 417.625 250.088 417.625 251.437C417.625 252.787 418.719 253.881 420.068 253.881Z" fill="#E527BB"/>
<path d="M427.99 253.881C429.339 253.881 430.433 252.787 430.433 251.437C430.433 250.088 429.339 248.994 427.99 248.994C426.641 248.994 425.547 250.088 425.547 251.437C425.547 252.787 426.641 253.881 427.99 253.881Z" fill="#E527BB"/>
<path d="M430.128 277.363H379.913C377.217 277.363 375.035 275.181 375.035 272.485V264.958C375.035 262.262 377.217 260.079 379.913 260.079H430.128C432.824 260.079 435.006 262.262 435.006 264.958V272.485C435.006 275.181 432.824 277.363 430.128 277.363Z" fill="white"/>
<path d="M403.886 271.156H382.049C380.704 271.156 379.605 270.065 379.605 268.713C379.605 267.369 380.697 266.27 382.049 266.27H403.879C405.223 266.27 406.322 267.361 406.322 268.713C406.322 270.065 405.231 271.156 403.886 271.156Z" fill="#A78BEF"/>
<path d="M412.146 271.165C413.496 271.165 414.589 270.071 414.589 268.721C414.589 267.372 413.496 266.278 412.146 266.278C410.797 266.278 409.703 267.372 409.703 268.721C409.703 270.071 410.797 271.165 412.146 271.165Z" fill="#A78BEF"/>
<path d="M420.068 271.165C421.417 271.165 422.511 270.071 422.511 268.721C422.511 267.372 421.417 266.278 420.068 266.278C418.719 266.278 417.625 267.372 417.625 268.721C417.625 270.071 418.719 271.165 420.068 271.165Z" fill="#A78BEF"/>
<path d="M427.99 271.165C429.339 271.165 430.433 270.071 430.433 268.721C430.433 267.372 429.339 266.278 427.99 266.278C426.641 266.278 425.547 267.372 425.547 268.721C425.547 270.071 426.641 271.165 427.99 271.165Z" fill="#A78BEF"/>
<path d="M430.128 294.647H379.913C377.217 294.647 375.035 292.465 375.035 289.768V282.241C375.035 279.545 377.217 277.363 379.913 277.363H430.128C432.824 277.363 435.006 279.545 435.006 282.241V289.768C435.006 292.465 432.824 294.647 430.128 294.647Z" fill="white"/>
<path d="M403.886 288.44H382.049C380.704 288.44 379.605 287.349 379.605 285.997C379.605 284.653 380.697 283.554 382.049 283.554H403.879C405.223 283.554 406.322 284.645 406.322 285.997C406.322 287.349 405.231 288.44 403.886 288.44Z" fill="#E527BB"/>
<path d="M412.146 288.448C413.496 288.448 414.589 287.354 414.589 286.005C414.589 284.656 413.496 283.562 412.146 283.562C410.797 283.562 409.703 284.656 409.703 286.005C409.703 287.354 410.797 288.448 412.146 288.448Z" fill="#E527BB"/>
<path d="M420.068 288.448C421.417 288.448 422.511 287.354 422.511 286.005C422.511 284.656 421.417 283.562 420.068 283.562C418.719 283.562 417.625 284.656 417.625 286.005C417.625 287.354 418.719 288.448 420.068 288.448Z" fill="#E527BB"/>
<path d="M427.99 288.448C429.339 288.448 430.433 287.354 430.433 286.005C430.433 284.656 429.339 283.562 427.99 283.562C426.641 283.562 425.547 284.656 425.547 286.005C425.547 287.354 426.641 288.448 427.99 288.448Z" fill="#E527BB"/>
<path d="M381.547 260.079H428.496" stroke="#7C87EB" stroke-miterlimit="10" stroke-linecap="round" stroke-linejoin="round"/>
<path d="M381.547 277.363H428.496" stroke="#7C87EB" stroke-miterlimit="10" stroke-linecap="round" stroke-linejoin="round"/>
<path d="M160.891 313.472H153.664V190.518H160.891V313.472ZM191.449 190.518H184.223L224.238 313.48H231.456L191.449 190.518ZM245.83 190.518H238.612V313.48H245.83V190.518ZM276.389 190.518H269.171L309.185 313.48H316.412L276.389 190.518Z" fill="#494687"/>
<path d="M160.891 202.211V190.518H153.664V202.757L160.891 202.211Z" fill="#241F96"/>
<path d="M191.449 190.518H184.223L187.377 200.195L194.422 199.658L191.449 190.518Z" fill="#241F96"/>
<path d="M245.832 190.518H238.613V196.297L245.832 195.744V190.518Z" fill="#241F96"/>
<path d="M276.391 190.518H269.172L270.263 193.886L277.316 193.348L276.391 190.518Z" fill="#292759"/>
<path d="M290.59 187.323H144.09V192.194H290.59V187.323Z" fill="#494687"/>
<path d="M207.84 187.323H144.09V192.194H207.84V187.323Z" fill="#241F96"/>
<path d="M160.891 192.194H153.664V193.854H160.891V192.194Z" fill="#292759"/>
<path d="M191.996 192.194H184.77L185.315 193.854H192.534L191.996 192.194Z" fill="#292759"/>
<path d="M339.391 313.353H339.083C337.968 313.353 337.059 312.452 337.059 311.329V301.114C337.059 299.999 337.96 299.09 339.083 299.09H339.391C340.047 299.09 340.585 299.628 340.585 300.284V312.152C340.585 312.816 340.047 313.353 339.391 313.353Z" fill="#292759"/>
<path d="M342.87 313.353H343.178C344.293 313.353 345.202 312.452 345.202 311.329V301.114C345.202 299.999 344.301 299.09 343.178 299.09H342.87C342.213 299.09 341.676 299.628 341.676 300.284V312.152C341.676 312.816 342.213 313.353 342.87 313.353Z" fill="#292759"/>
<path d="M342.77 298.821H339.449V310.499H342.77V298.821Z" fill="#292759"/>
<path d="M345.939 231.378H337.582V289.499H345.939V231.378Z" fill="#292759"/>
<path d="M343.803 230.009L342.547 231.716L356.548 242.024L357.805 240.318L343.803 230.009Z" fill="#292759"/>
<path d="M356.572 238.06L354.031 241.511L368.033 251.819L370.573 248.368L356.572 238.06Z" fill="#494687"/>
<path d="M360.171 226.398H354.629L368.695 135.718H374.237L360.171 226.398Z" fill="#292759"/>
<path d="M389.888 144.81H349.707C346.331 144.81 344.014 142.066 344.544 138.682L346.197 128.048C346.718 124.664 349.889 121.921 353.265 121.921H393.438C396.814 121.921 399.131 124.664 398.601 128.048L396.949 138.682C396.427 142.066 393.264 144.81 389.888 144.81Z" fill="#494687"/>
<path d="M388.641 143.047C389.937 141.932 390.878 140.39 391.139 138.682L392.792 128.048C393.052 126.34 392.602 124.798 391.645 123.684" stroke="#292759" stroke-miterlimit="10"/>
<path d="M378.767 216.514H338.594C335.218 216.514 332.901 213.771 333.431 210.387L342.073 154.638C342.595 151.254 345.765 148.51 349.141 148.51H389.314C392.69 148.51 395.007 151.254 394.477 154.638L385.835 210.387C385.306 213.771 382.143 216.514 378.767 216.514Z" fill="#494687"/>
<path d="M377.527 214.751C378.824 213.636 379.765 212.094 380.026 210.387L388.668 154.638C388.929 152.93 388.478 151.388 387.521 150.273" stroke="#292759" stroke-miterlimit="10"/>
<path d="M381.756 225.259C381.408 223.148 379.447 221.677 377.313 221.677H333.218H289.123C286.98 221.677 285.028 223.148 284.68 225.259C283.059 235.158 317.919 234.399 333.218 234.399C348.509 234.399 383.377 235.158 381.756 225.259Z" fill="#292759"/>
<path d="M349.26 289.491H333.012V286.542C333.012 285.088 334.19 283.909 335.645 283.909H346.627C348.082 283.909 349.26 285.088 349.26 286.542V289.491Z" fill="#494687"/>
<path d="M349.258 289.491H341.13H333.002L287.492 303.699L289.761 306.641L341.13 301.762L392.499 306.641L394.768 303.699L349.258 289.491Z" fill="#494687"/>
<path d="M289.765 306.641L297.925 305.866C297.783 304.055 297.126 302.395 296.091 301.019L287.488 303.7L289.765 306.641Z" fill="#292759"/>
<path d="M384.344 305.866L392.503 306.641L394.772 303.7L386.17 301.019C385.142 302.387 384.486 304.055 384.344 305.866Z" fill="#292759"/>
<path d="M393.639 313.353C397.368 313.353 400.391 310.33 400.391 306.601C400.391 302.872 397.368 299.849 393.639 299.849C389.91 299.849 386.887 302.872 386.887 306.601C386.887 310.33 389.91 313.353 393.639 313.353Z" fill="#494687"/>
<path d="M393.64 309.503C395.243 309.503 396.542 308.204 396.542 306.601C396.542 304.999 395.243 303.699 393.64 303.699C392.037 303.699 390.738 304.999 390.738 306.601C390.738 308.204 392.037 309.503 393.64 309.503Z" fill="#292759"/>
<path d="M288.623 313.353C292.352 313.353 295.375 310.33 295.375 306.601C295.375 302.872 292.352 299.849 288.623 299.849C284.894 299.849 281.871 302.872 281.871 306.601C281.871 310.33 284.894 313.353 288.623 313.353Z" fill="#494687"/>
<path d="M288.624 309.503C290.227 309.503 291.526 308.204 291.526 306.601C291.526 304.999 290.227 303.699 288.624 303.699C287.022 303.699 285.723 304.999 285.723 306.601C285.723 308.204 287.022 309.503 288.624 309.503Z" fill="#292759"/>
<path d="M333.004 289.491H349.252C349.252 289.491 347.908 291.919 341.124 291.919C334.34 291.919 333.004 289.491 333.004 289.491Z" fill="#292759"/>
<path d="M378.316 224.468H338.317C335.573 224.468 333.352 226.69 333.352 229.434C333.352 232.177 335.573 234.399 338.317 234.399H344.207C357.063 234.328 374.473 233.735 380.04 229.275C382.032 227.686 380.87 224.468 378.316 224.468Z" fill="#494687"/>
<path d="M250.948 183.085H247.232L244.481 184.374C243.097 185.022 241.587 185.354 240.061 185.354H226.802C226.304 185.354 226.059 184.746 226.415 184.398L228.32 182.54C231.095 179.836 234.716 178.152 238.575 177.764L245.778 177.037L250.941 176.531L250.948 183.085Z" fill="#F77474"/>
<path d="M233.68 184.927V184.532C233.68 183.844 234.209 183.267 234.897 183.212L237.475 182.998C239.001 182.674 239.578 182.31 240.756 181.994" stroke="#292759" stroke-width="0.75" stroke-miterlimit="10" stroke-linecap="round" stroke-linejoin="round"/>
<path d="M230.25 184.762L232.464 182.785C233.262 182.073 234.211 181.528 235.231 181.196L239.003 179.978" stroke="#292759" stroke-width="0.75" stroke-miterlimit="10" stroke-linecap="round" stroke-linejoin="round"/>
<path d="M228.105 184.762L230.762 182.39C231.276 181.931 231.853 181.544 232.478 181.251L236.423 179.377" stroke="#292759" stroke-width="0.75" stroke-miterlimit="10" stroke-linecap="round" stroke-linejoin="round"/>
<path d="M244.479 184.366L247.23 183.077H250.946V176.523L245.783 177.029L241.996 177.408C245.807 177.029 247.009 183.188 244.479 184.366Z" fill="#F75959"/>
<path d="M329.79 127.803L336.613 127.044L341.926 128.578L337.617 193.838H314.309L320.61 130.151L329.79 127.803Z" fill="#E527BB"/>
<path d="M323.072 130.223C323.016 129.463 322.265 128.95 321.538 129.171L309.299 132.855C305.875 133.883 302.926 136.089 300.957 139.078L279.412 171.922L248.671 176.207C248.347 182.398 249.312 186.383 249.588 187.371H286.243C290.307 187.371 294.071 185.205 296.11 181.686L308.136 160.955L310.658 176.112C309.022 178.674 309.899 181.615 309.899 181.615L303.598 193.838H319.972L326.313 173.432L323.072 130.223Z" fill="#A78BEF"/>
<path d="M319.611 132.104L323.027 173.424L318.133 189.679" stroke="#B6D1D6" stroke-miterlimit="10" stroke-linecap="round" stroke-linejoin="round"/>
<path d="M304.797 140.873L309.398 168.545" stroke="#292759" stroke-miterlimit="10" stroke-linecap="round" stroke-linejoin="round"/>
<path d="M301.969 145.371C301.969 145.371 302.68 147.641 304.807 149.404" stroke="#292759" stroke-miterlimit="10" stroke-linecap="round" stroke-linejoin="round"/>
<path d="M284.203 280.763L287.437 296.552H269.047L266.438 280.763H284.203Z" fill="#FFDAC2"/>
<path d="M310.161 280.763L306.382 297.137H290.363L292.079 280.763H310.161Z" fill="#FFDAC2"/>
<path d="M294.514 285.459L293.961 288.637" stroke="white" stroke-miterlimit="10" stroke-linecap="round" stroke-linejoin="round"/>
<path d="M298.397 285.459L297.52 290.005" stroke="white" stroke-miterlimit="10" stroke-linecap="round" stroke-linejoin="round"/>
<path d="M302.272 285.459L300.453 294.109" stroke="white" stroke-miterlimit="10" stroke-linecap="round" stroke-linejoin="round"/>
<path d="M306.151 285.459L304.293 293.532" stroke="white" stroke-miterlimit="10" stroke-linecap="round" stroke-linejoin="round"/>
<path d="M327.292 191.948H272.768C259.873 191.948 250.108 203.595 252.354 216.293L264.055 282.494H286.352C286.352 282.494 286.225 270.816 282.699 264.016C283.205 250.915 282.193 246.251 280.303 241.72C281.56 233.276 281.062 225.346 278.92 221.566H319.362L327.292 191.948Z" fill="#231F20"/>
<path d="M327.29 191.948H282.595C279.78 191.948 278.199 195.111 279.82 197.42C285.971 206.18 287.244 221.558 295.633 221.558H319.352L327.29 191.948Z" fill="#231F20"/>
<path d="M335.51 131.511C333.399 133.543 329.366 134.223 326.678 132.871C325.864 132.46 325.334 131.645 325.184 130.744L323.863 122.332L334.83 116.663L336.624 127.898C336.846 129.21 336.466 130.594 335.51 131.511Z" fill="#F77474"/>
<path d="M335.434 119.541L340.969 112.18C342.859 109.658 341.918 106.036 339.04 104.756L337.158 103.917C335.189 97.015 327.583 96.9913 321.748 99.1893L321.052 98.3828C318.846 95.829 314.79 96.1611 313.035 99.047C311.28 101.925 312.837 105.688 316.111 106.479L317.795 106.89L335.434 119.541Z" fill="#231F20"/>
<path d="M334.403 120.956L323.871 122.522L324.646 127.337C324.946 129.234 327.042 130.27 328.726 129.353C333.541 126.736 334.403 120.956 334.403 120.956Z" fill="#292759"/>
<path d="M337.771 129.416L335.422 174.428L329.801 192.067H361.949L366.005 169.004L356.406 131.472L341.068 127.076C339.455 126.617 337.85 127.763 337.771 129.416Z" fill="#A78BEF"/>
<path d="M363.529 176.112L338.94 159.816C337.762 159.034 336.18 159.832 336.109 161.248L335.421 174.436L329.23 193.83L361.537 194.352L363.592 182.651L363.529 176.112Z" fill="#231F20"/>
<path d="M329.839 175.044H300.766C300.237 175.044 299.707 174.61 299.588 174.08L294.505 151.76C294.386 151.23 294.718 150.795 295.24 150.795H324.312C324.842 150.795 325.372 151.23 325.49 151.76L330.574 174.08C330.701 174.61 330.369 175.044 329.839 175.044Z" fill="#E527BB"/>
<path d="M330.582 174.08L329.166 167.858C329.103 167.597 328.89 167.399 328.629 167.367L318.074 166.023C317.552 165.96 317.18 166.513 317.441 166.972L319.671 170.87C320.003 171.447 320.493 171.922 321.094 172.222L326.549 174.981C326.636 175.029 326.739 175.053 326.834 175.053H329.854C330.368 175.045 330.7 174.61 330.582 174.08Z" fill="#E527BB"/>
<path d="M323.961 152.06L328.91 173.772" stroke="#7C87EB" stroke-width="0.5" stroke-miterlimit="10"/>
<path d="M298.103 154.359C298.427 154.005 298.33 153.388 297.886 152.981C297.442 152.574 296.818 152.531 296.494 152.885C296.169 153.239 296.266 153.856 296.711 154.263C297.155 154.67 297.778 154.713 298.103 154.359Z" fill="#292759"/>
<path d="M302.645 154.069H299.87C299.624 154.069 299.387 153.871 299.324 153.626C299.269 153.381 299.419 153.183 299.664 153.183H302.439C302.684 153.183 302.921 153.381 302.985 153.626C303.04 153.871 302.89 154.069 302.645 154.069Z" fill="#292759"/>
<path d="M339.549 168.166L335.73 165.865L333.99 162.552C333.002 160.67 331.373 159.192 329.397 158.393L326.764 157.326L327.254 159.484C327.365 159.959 326.977 160.394 326.495 160.346L323.411 160.046C323.19 160.022 322.984 159.951 322.795 159.832C321.949 159.279 319.419 157.611 318.454 156.994C317.173 156.172 315.639 157.729 317.308 158.947C316.161 159.287 316.019 160.402 317.244 161.485C315.671 162.347 316.248 163.461 317.252 164.181C316.209 164.995 317.086 166.102 318.003 166.885C318.525 167.336 319.521 168.229 320.288 168.917C320.968 169.526 321.775 169.976 322.644 170.222L330.187 172.364L336.236 175.582L339.549 168.166Z" fill="#F77474"/>
<path d="M326.605 171.336L330.179 172.348L336.228 175.566L339.548 168.166L338.244 167.383C337.161 166.735 335.745 166.869 334.876 167.786C333.12 169.613 329.246 171.747 326.605 171.336Z" fill="#F75959"/>
<path d="M317.867 164.386L320.721 166.64C320.998 166.853 321.33 166.988 321.678 167.027L324.983 167.351" stroke="#292759" stroke-width="0.75" stroke-miterlimit="10" stroke-linecap="round" stroke-linejoin="round"/>
<path d="M317.867 161.927L320.721 164.181C320.998 164.394 321.33 164.529 321.678 164.568L324.983 164.892" stroke="#292759" stroke-width="0.75" stroke-miterlimit="10" stroke-linecap="round" stroke-linejoin="round"/>
<path d="M318.129 159.389L320.983 161.643C321.26 161.856 321.592 161.991 321.94 162.03L325.245 162.354" stroke="#292759" stroke-width="0.75" stroke-miterlimit="10" stroke-linecap="round" stroke-linejoin="round"/>
<path d="M341.763 132.46L340.355 159.39" stroke="#B6D1D6" stroke-miterlimit="10" stroke-linecap="round" stroke-linejoin="round"/>
<path d="M270.848 209.96L276.643 218.523" stroke="#292759" stroke-miterlimit="10" stroke-linecap="round" stroke-linejoin="round"/>
<path d="M276.645 206.813L278.028 216.767" stroke="#292759" stroke-miterlimit="10" stroke-linecap="round" stroke-linejoin="round"/>
<path d="M264.672 276.604H284.201" stroke="#292759" stroke-miterlimit="10" stroke-linecap="round" stroke-linejoin="round"/>
<path d="M272.738 219.535C272.738 219.535 276.771 230.121 274.438 242.717C278.028 251.161 276.644 263.376 276.644 263.376C276.644 263.376 279.419 267.828 279.791 275.22" stroke="#292759" stroke-miterlimit="10" stroke-linecap="round" stroke-linejoin="round"/>
<path d="M279.289 211.406H293.774" stroke="#292759" stroke-miterlimit="10" stroke-linecap="round" stroke-linejoin="round"/>
<path d="M246.359 313.353H289.782L289.482 308.459C289.482 302.79 288.422 296.829 287.845 293.99C287.655 293.049 286.714 292.464 285.781 292.701C283.338 293.318 281.33 293.974 279.156 294.654C278.412 294.884 277.669 294.291 277.74 293.524C277.891 291.729 276.475 290.179 274.673 290.179H270.364C269.304 290.179 268.347 290.804 267.913 291.776L267.897 291.816C267.533 292.638 266.869 293.286 266.031 293.611C261.832 295.271 248.723 301.003 247.039 308.325L246.359 313.353Z" fill="#A78BEF"/>
<path d="M288.021 308.309H248.125" stroke="white" stroke-width="0.5614" stroke-miterlimit="10" stroke-linecap="round" stroke-linejoin="round"/>
<path d="M256.734 299.09C262.783 299.09 265.487 301.778 266.815 308.309" stroke="white" stroke-width="0.5614" stroke-miterlimit="10" stroke-linecap="round" stroke-linejoin="round"/>
<path d="M276.571 296.007L265.328 303.7" stroke="white" stroke-width="0.5614" stroke-miterlimit="10" stroke-linecap="round" stroke-linejoin="round"/>
<path d="M288.02 299.09C288.02 299.09 279.789 301.272 279.789 308.309" stroke="white" stroke-width="0.5614" stroke-miterlimit="10" stroke-linecap="round" stroke-linejoin="round"/>
<path d="M261.774 308.309L261.26 311.156C261.055 312.302 261.933 313.354 263.095 313.354H289.787L289.487 308.459C289.487 302.775 288.427 296.805 287.842 293.975C287.652 293.042 286.719 292.465 285.802 292.694C283.351 293.311 281.343 293.967 279.161 294.647C278.418 294.876 277.674 294.291 277.738 293.516C277.896 291.713 276.473 290.172 274.67 290.172H270.361C269.301 290.172 268.337 290.796 267.91 291.769L267.894 291.808C267.53 292.631 266.866 293.279 266.028 293.603C265.902 293.651 265.767 293.706 265.633 293.761C264.945 294.038 264.81 294.908 265.324 295.437C267.285 297.446 268.005 303.13 261.774 308.309Z" fill="#292759"/>
<path d="M270.816 285.459L271.148 288.772" stroke="white" stroke-miterlimit="10" stroke-linecap="round" stroke-linejoin="round"/>
<path d="M274.359 285.459L274.778 288.471" stroke="white" stroke-miterlimit="10" stroke-linecap="round" stroke-linejoin="round"/>
<path d="M277.906 285.459L279.227 292.939" stroke="white" stroke-miterlimit="10" stroke-linecap="round" stroke-linejoin="round"/>
<path d="M281.449 285.459L282.817 291.824" stroke="white" stroke-miterlimit="10" stroke-linecap="round" stroke-linejoin="round"/>
<path d="M265.766 313.354H309.188L308.888 308.459C308.888 303.613 308.39 299.454 308.01 296.995C307.813 295.706 306.595 294.86 305.314 295.082C302.294 295.603 299.479 295.714 297.004 295.129L297.139 293.516C297.289 291.721 295.874 290.172 294.071 290.172H289.762C288.702 290.172 287.746 290.796 287.311 291.769L287.295 291.808C286.931 292.631 286.267 293.279 285.429 293.603C281.231 295.263 268.122 300.996 266.438 308.317L265.766 313.354Z" fill="#A78BEF"/>
<path d="M307.424 308.309H267.527" stroke="white" stroke-width="0.5614" stroke-miterlimit="10" stroke-linecap="round" stroke-linejoin="round"/>
<path d="M276.141 299.09C282.189 299.09 284.893 301.778 286.221 308.309" stroke="white" stroke-width="0.5614" stroke-miterlimit="10" stroke-linecap="round" stroke-linejoin="round"/>
<path d="M295.981 296.007L284.73 303.7" stroke="white" stroke-width="0.5614" stroke-miterlimit="10" stroke-linecap="round" stroke-linejoin="round"/>
<path d="M307.426 299.09C307.426 299.09 299.195 301.272 299.195 308.309" stroke="white" stroke-width="0.5614" stroke-miterlimit="10" stroke-linecap="round" stroke-linejoin="round"/>
<path d="M361.931 192.067L363.283 202.48C364.714 213.526 356.12 223.314 344.98 223.314H325.142C325.142 223.314 323.964 234.565 320.106 241.459C319.434 252.378 316.074 261.281 316.074 261.281C316.074 261.281 315.907 274.05 311.709 282.613H289.199L296.71 212.838C297.983 201.025 307.946 191.87 319.821 191.87L361.931 192.067Z" fill="#231F20"/>
<path d="M291.637 276.604H311.166" stroke="#292759" stroke-miterlimit="10" stroke-linecap="round" stroke-linejoin="round"/>
<path d="M320.574 209.082L323.966 220.546" stroke="#292759" stroke-miterlimit="10" stroke-linecap="round" stroke-linejoin="round"/>
<path d="M325.773 208.197C325.773 208.197 326.691 213.581 325.773 219.535" stroke="#292759" stroke-miterlimit="10" stroke-linecap="round" stroke-linejoin="round"/>
<path d="M341.929 203.279C342.023 207.185 339.256 215.747 336.109 219.527" stroke="#292759" stroke-miterlimit="10" stroke-linecap="round" stroke-linejoin="round"/>
<path d="M307.098 275.892C309.359 270.903 310.482 265.78 310.331 260.49C313.083 254.434 314.459 247.856 314.474 240.764C316.941 235.221 318.364 229.481 318.119 223.425L319.661 216.087C320.199 213.518 322.318 211.581 324.927 211.28L340.084 209.501C344.946 208.932 349.2 205.943 351.39 201.563L355.715 192.913" stroke="#292759" stroke-miterlimit="10" stroke-linecap="round" stroke-linejoin="round"/>
<path d="M352.279 192.913C352.279 192.913 349.504 197.871 350.389 203.287" stroke="#292759" stroke-miterlimit="10" stroke-linecap="round" stroke-linejoin="round"/>
<path d="M357.312 131.741L348.497 129.21L363.527 176.112L339.483 165.62C335.388 169.7 333.032 174.823 331.695 180.563L372.327 199.349C378.383 202.148 385.57 199.99 389.089 194.321C391.445 190.526 391.714 185.797 389.816 181.757L372.287 144.486C369.362 138.271 363.907 133.63 357.312 131.741Z" fill="#A78BEF"/>
<path d="M355.059 149.68L363.526 176.112" stroke="#292759" stroke-miterlimit="10" stroke-linecap="round" stroke-linejoin="round"/>
<path d="M339.484 165.62L372.771 179.978" stroke="#292759" stroke-miterlimit="10" stroke-linecap="round" stroke-linejoin="round"/>
<path d="M317.797 106.882C317.797 106.882 317.923 114.378 318.176 117.406C317.228 122.316 319.457 126.917 325.609 126.411C331.444 125.937 335.436 119.549 335.436 119.549L335.168 115.2C335.104 114.156 334.646 113.192 333.902 112.464C332.875 111.46 331.475 109.713 331.088 107.396C324.217 107.823 317.797 106.882 317.797 106.882Z" fill="#F77474"/>
<path d="M328.392 121.027C329.549 121.027 330.487 120.089 330.487 118.932C330.487 117.774 329.549 116.836 328.392 116.836C327.235 116.836 326.297 117.774 326.297 118.932C326.297 120.089 327.235 121.027 328.392 121.027Z" fill="#F77474"/>
<path d="M333.178 115.485C333.091 115.825 333.416 116.117 333.74 115.999L335.187 115.493L335.171 115.192C335.108 114.235 334.712 113.35 334.072 112.646C333.74 113.405 333.4 114.662 333.178 115.485Z" fill="#F77474"/>
<path d="M332.18 117.256L334.757 114.006C335.682 112.844 337.438 112.82 338.394 113.959C339.193 114.915 339.106 116.331 338.197 117.177L335.002 120.165L332.18 117.256Z" fill="#F77474"/>
<path d="M333.84 117.358L335.666 115.303C335.801 115.145 335.967 115.01 336.149 114.923C336.496 114.757 337.113 114.591 337.951 114.86" stroke="#292759" stroke-width="0.5" stroke-miterlimit="10" stroke-linecap="round" stroke-linejoin="round"/>
<path d="M335.199 115.817L337.152 116.165" stroke="#292759" stroke-width="0.5" stroke-miterlimit="10" stroke-linecap="round" stroke-linejoin="round"/>
<path d="M319.775 115.54C320.207 115.54 320.558 115.189 320.558 114.757C320.558 114.325 320.207 113.974 319.775 113.974C319.343 113.974 318.992 114.325 318.992 114.757C318.992 115.189 319.343 115.54 319.775 115.54Z" fill="#F77474"/>
<path d="M325.834 115.54C326.266 115.54 326.616 115.189 326.616 114.757C326.616 114.325 326.266 113.974 325.834 113.974C325.401 113.974 325.051 114.325 325.051 114.757C325.051 115.189 325.401 115.54 325.834 115.54Z" fill="#F77474"/>
<path d="M323.032 115.24L322.297 116.797C321.988 117.461 322.558 118.189 323.277 118.046L324.321 117.841" fill="#F77474"/>
<path d="M321.672 119.549C321.672 119.549 324.7 120.719 327.965 118.687L321.672 119.549Z" fill="#F77474"/>
<path d="M324.328 110.535C324.328 110.535 326.803 109.531 329.135 110.535H324.328Z" fill="#F77474"/>
<path d="M318.398 110.535C318.398 110.535 320.256 109.531 322.059 110.535H318.398Z" fill="#F77474"/>
<path d="M328.735 238.305C328.458 238.305 328.173 238.265 327.889 238.186C326.22 237.72 325.248 235.988 325.714 234.32L332.641 209.509C334.34 203.136 340.168 198.669 346.793 198.669H386.468C388.2 198.669 389.607 200.077 389.607 201.808C389.607 203.54 388.2 204.947 386.468 204.947H346.785C342.99 204.947 339.662 207.509 338.681 211.169L331.747 236.012C331.368 237.403 330.103 238.305 328.735 238.305Z" fill="white"/>
<path d="M405.021 245.31C413.802 245.31 420.921 238.191 420.921 229.41C420.921 220.628 413.802 213.51 405.021 213.51C396.24 213.51 389.121 220.628 389.121 229.41C389.121 238.191 396.24 245.31 405.021 245.31Z" fill="#E527BB"/>
<path d="M409.754 238.803H400.29C398.97 238.803 397.902 237.735 397.902 236.415V228.809C397.902 227.489 398.97 226.421 400.29 226.421H409.754C411.075 226.421 412.142 227.489 412.142 228.809V236.415C412.15 237.727 411.075 238.803 409.754 238.803Z" fill="white"/>
<path d="M400.328 224.95V223.875C400.328 221.282 402.431 219.179 405.025 219.179C407.618 219.179 409.721 221.282 409.721 223.875V233.632" stroke="white" stroke-width="2.1193" stroke-miterlimit="10"/>
<path d="M406.449 234.209L405.919 233.087C405.824 232.889 405.872 232.66 406.03 232.509C406.338 232.233 406.536 231.837 406.536 231.387C406.536 230.549 405.856 229.876 405.026 229.876C404.196 229.876 403.516 230.556 403.516 231.387C403.516 231.829 403.713 232.233 404.022 232.509C404.18 232.652 404.227 232.889 404.132 233.087L403.603 234.209C403.484 234.462 403.666 234.755 403.95 234.755H406.109C406.386 234.747 406.568 234.462 406.449 234.209Z" fill="#213C69"/>
<path d="M405.733 158.765C406.96 158.765 407.955 157.77 407.955 156.543C407.955 155.316 406.96 154.322 405.733 154.322C404.506 154.322 403.512 155.316 403.512 156.543C403.512 157.77 404.506 158.765 405.733 158.765Z" fill="white"/>
<path d="M405.733 173.123C406.96 173.123 407.955 172.128 407.955 170.901C407.955 169.674 406.96 168.68 405.733 168.68C404.506 168.68 403.512 169.674 403.512 170.901C403.512 172.128 404.506 173.123 405.733 173.123Z" fill="white"/>
<path d="M405.733 187.474C406.96 187.474 407.955 186.479 407.955 185.252C407.955 184.025 406.96 183.03 405.733 183.03C404.506 183.03 403.512 184.025 403.512 185.252C403.512 186.479 404.506 187.474 405.733 187.474Z" fill="white"/>
<path d="M405.733 201.832C406.96 201.832 407.955 200.837 407.955 199.61C407.955 198.383 406.96 197.388 405.733 197.388C404.506 197.388 403.512 198.383 403.512 199.61C403.512 200.837 404.506 201.832 405.733 201.832Z" fill="white"/>
<path d="M150.375 183.671H113.46C109.894 183.671 107 180.777 107 177.211V151.95C107 148.487 109.807 145.68 113.27 145.68H150.367C153.933 145.68 156.827 148.573 156.827 152.139V177.219C156.835 180.777 153.941 183.671 150.375 183.671Z" fill="#A78BEF"/>
<path d="M143.268 162.236C142.58 159.461 140.074 157.397 137.085 157.397C136.294 157.397 135.535 157.547 134.832 157.816C133.59 155.95 131.471 154.709 129.06 154.709C125.233 154.709 122.134 157.808 122.134 161.635V162.22H120.703C117.279 162.22 114.496 164.995 114.496 168.427C114.496 171.85 117.271 174.633 120.703 174.633H143.141C146.565 174.633 149.348 171.858 149.348 168.427C149.34 165.051 146.636 162.307 143.268 162.236Z" fill="#E527BB"/>
<path d="M197.815 88.3573C198.676 88.3573 199.373 87.66 199.373 86.7998C199.373 85.9395 198.676 85.2422 197.815 85.2422C196.955 85.2422 196.258 85.9395 196.258 86.7998C196.258 87.66 196.955 88.3573 197.815 88.3573Z" fill="#6875E3"/>
<path d="M207.472 88.3573C208.332 88.3573 209.029 87.66 209.029 86.7998C209.029 85.9395 208.332 85.2422 207.472 85.2422C206.611 85.2422 205.914 85.9395 205.914 86.7998C205.914 87.66 206.611 88.3573 207.472 88.3573Z" fill="#6875E3"/>
<path d="M197.816 86.7998H207.47" stroke="#6875E3" stroke-width="0.7715" stroke-miterlimit="10"/>
<path d="M161.155 167.715C162.015 167.715 162.713 167.018 162.713 166.158C162.713 165.297 162.015 164.6 161.155 164.6C160.295 164.6 159.598 165.297 159.598 166.158C159.598 167.018 160.295 167.715 161.155 167.715Z" fill="#6875E3"/>
<path d="M170.815 167.715C171.676 167.715 172.373 167.018 172.373 166.158C172.373 165.297 171.676 164.6 170.815 164.6C169.955 164.6 169.258 165.297 169.258 166.158C169.258 167.018 169.955 167.715 170.815 167.715Z" fill="#6875E3"/>
<path d="M161.152 166.157H170.814" stroke="#6875E3" stroke-width="0.7715" stroke-miterlimit="10"/>
<path d="M310.042 88.3573C310.902 88.3573 311.6 87.66 311.6 86.7998C311.6 85.9395 310.902 85.2422 310.042 85.2422C309.182 85.2422 308.484 85.9395 308.484 86.7998C308.484 87.66 309.182 88.3573 310.042 88.3573Z" fill="#6875E3"/>
<path d="M319.702 88.3573C320.562 88.3573 321.26 87.66 321.26 86.7998C321.26 85.9395 320.562 85.2422 319.702 85.2422C318.842 85.2422 318.145 85.9395 318.145 86.7998C318.145 87.66 318.842 88.3573 319.702 88.3573Z" fill="#6875E3"/>
<path d="M310.039 86.7998H319.701" stroke="#6875E3" stroke-width="0.7715" stroke-miterlimit="10"/>
<path d="M237.983 167.715C238.844 167.715 239.541 167.018 239.541 166.158C239.541 165.297 238.844 164.6 237.983 164.6C237.123 164.6 236.426 165.297 236.426 166.158C236.426 167.018 237.123 167.715 237.983 167.715Z" fill="white"/>
<path d="M290.757 167.715C291.617 167.715 292.314 167.018 292.314 166.158C292.314 165.297 291.617 164.6 290.757 164.6C289.897 164.6 289.199 165.297 289.199 166.158C289.199 167.018 289.897 167.715 290.757 167.715Z" fill="white"/>
<path d="M237.98 166.157H290.757" stroke="white" stroke-width="0.7715" stroke-miterlimit="10"/>
<path d="M150.789 121.913V129.329C150.789 130.863 152.03 132.104 153.556 132.104H261.599C263.133 132.104 264.374 130.863 264.374 129.329V121.913" stroke="#6875E3" stroke-width="0.7715" stroke-miterlimit="10"/>
<path d="M201.73 132.104V141.553" stroke="#6875E3" stroke-width="0.7715" stroke-miterlimit="10"/>
<path d="M201.729 133.662C202.59 133.662 203.287 132.964 203.287 132.104C203.287 131.244 202.59 130.547 201.729 130.547C200.869 130.547 200.172 131.244 200.172 132.104C200.172 132.964 200.869 133.662 201.729 133.662Z" fill="#6875E3"/>
<path d="M201.729 143.11C202.59 143.11 203.287 142.413 203.287 141.552C203.287 140.692 202.59 139.995 201.729 139.995C200.869 139.995 200.172 140.692 200.172 141.552C200.172 142.413 200.869 143.11 201.729 143.11Z" fill="#6875E3"/>
<path d="M150.788 123.47C151.648 123.47 152.346 122.773 152.346 121.913C152.346 121.052 151.648 120.355 150.788 120.355C149.928 120.355 149.23 121.052 149.23 121.913C149.23 122.773 149.928 123.47 150.788 123.47Z" fill="#6875E3"/>
<path d="M264.374 123.47C265.234 123.47 265.932 122.773 265.932 121.913C265.932 121.052 265.234 120.355 264.374 120.355C263.514 120.355 262.816 121.052 262.816 121.913C262.816 122.773 263.514 123.47 264.374 123.47Z" fill="#6875E3"/>
<path d="M131.922 141.553V136.627C131.922 134.128 133.946 132.104 136.444 132.104H157.847" stroke="#6875E3" stroke-width="0.7715" stroke-miterlimit="10"/>
<path d="M131.925 143.11C132.785 143.11 133.482 142.413 133.482 141.552C133.482 140.692 132.785 139.995 131.925 139.995C131.065 139.995 130.367 140.692 130.367 141.552C130.367 142.413 131.065 143.11 131.925 143.11Z" fill="#6875E3"/>
<path d="M300.251 115.809H216.735C213.272 115.809 210.465 113.002 210.465 109.539V64.0687C210.465 60.6056 213.272 57.7988 216.735 57.7988H300.243C303.707 57.7988 306.513 60.6056 306.513 64.0687V109.539C306.521 113.002 303.714 115.809 300.251 115.809Z" fill="#D1D1FF"/>
<path d="M228.106 66.5908H223.102V101.996H228.106V66.5908Z" fill="#E527BB"/>
<path d="M233.11 80.364H228.105V101.996H233.11V80.364Z" fill="#A78BEF"/>
<path d="M238.114 94.5798H233.109V101.996H238.114V94.5798Z" fill="#A78BEF"/>
<path d="M243.118 75.9126H238.113V101.996H243.118V75.9126Z" fill="#E527BB"/>
<path d="M253.423 74.7979H248.418V102.004H253.423V74.7979Z" fill="#A78BEF"/>
<path d="M258.427 72.8369H253.422V101.996H258.427V72.8369Z" fill="#E527BB"/>
<path d="M263.423 81.4551H258.418V101.996H263.423V81.4551Z" fill="#A78BEF"/>
<path d="M268.431 90.0969H263.426V101.996H268.431V90.0969Z" fill="#A78BEF"/>
<path d="M278.731 85.2422H273.727V101.996H278.731V85.2422Z" fill="#A78BEF"/>
<path d="M283.735 83.3684H278.73V101.996H283.735V83.3684Z" fill="#A78BEF"/>
<path d="M288.743 72.8369H283.738V101.996H288.743V72.8369Z" fill="#E527BB"/>
<path d="M293.747 98.2881H288.742V101.996H293.747V98.2881Z" fill="#A78BEF"/>
<path d="M255.92 106.021H218.316V107.238H255.92V106.021Z" fill="white"/>
<path d="M234.066 109.215H218.316V110.432H234.066V109.215Z" fill="white"/>
<path d="M294.481 106.021H260.926V107.238H294.481V106.021Z" fill="white"/>
<path d="M296.3 109.215H260.926V110.432H296.3V109.215Z" fill="white"/>
<path d="M298.607 101.996H218.316V64.7407" stroke="#213C69" stroke-width="0.6226" stroke-miterlimit="10"/>
<path d="M188.299 115.809H113.282C109.819 115.809 107.012 113.002 107.012 109.539V64.0687C107.012 60.6056 109.819 57.7988 113.282 57.7988H188.299C191.762 57.7988 194.569 60.6056 194.569 64.0687V109.539C194.569 113.002 191.762 115.809 188.299 115.809Z" fill="#D1D1FF"/>
<path d="M135.007 65.8474C123.432 65.8474 114.055 75.2325 114.055 86.7997C114.055 98.367 123.44 107.752 135.007 107.752C146.574 107.752 155.959 98.367 155.959 86.7997C155.959 75.2325 146.574 65.8474 135.007 65.8474ZM135.007 93.2435C131.449 93.2435 128.563 90.3576 128.563 86.7997C128.563 83.2418 131.449 80.3559 135.007 80.3559C138.565 80.3559 141.451 83.2418 141.451 86.7997C141.443 90.3576 138.565 93.2435 135.007 93.2435Z" fill="#E527BB"/>
<path d="M155.962 86.8C155.962 81.9928 154.342 77.573 151.622 74.0388L139.991 82.7281C140.9 83.835 141.446 85.2582 141.446 86.8C141.446 88.6501 140.663 90.3105 139.414 91.4806C142.371 94.3112 146.253 98.0351 149.906 101.522C153.654 97.7426 155.962 92.5401 155.962 86.8Z" fill="#A78BEF"/>
<path d="M139.965 82.6962L151.659 74.086C147.832 69.0812 141.8 65.8474 135.008 65.8474V80.3638C137 80.3638 138.779 81.2651 139.965 82.6962Z" fill="#E527BB"/>
<path d="M139.443 91.4646C138.914 91.9627 138.305 92.3818 137.633 92.6822L144.417 105.53C146.488 104.487 148.362 103.111 149.975 101.466L139.443 91.4646Z" fill="#A78BEF"/>
<path d="M137.64 92.6744C136.833 93.0381 135.948 93.2436 135.007 93.2436C131.449 93.2436 128.563 90.3577 128.563 86.7998C128.563 85.5189 128.943 84.333 129.583 83.3288L117.692 74.9954C115.399 78.3556 114.055 82.4196 114.055 86.7998C114.055 98.375 123.44 107.752 135.007 107.752C138.391 107.752 141.593 106.946 144.424 105.515L137.64 92.6744Z" fill="#E527BB"/>
<path d="M162.841 71.4769C161.521 71.4769 160.445 70.4016 160.445 69.0812C160.445 67.7608 161.521 66.6855 162.841 66.6855C164.161 66.6855 165.237 67.7608 165.237 69.0812C165.229 70.4016 164.161 71.4769 162.841 71.4769Z" fill="#E527BB"/>
<path d="M187.535 67.4841H167.547V68.6148H187.535V67.4841Z" fill="white"/>
<path d="M174.56 69.54H167.547V70.6707H174.56V69.54Z" fill="white"/>
<path d="M162.841 80.3324C161.521 80.3324 160.445 79.265 160.445 77.9367C160.445 76.6163 161.521 75.541 162.841 75.541C164.161 75.541 165.237 76.6163 165.237 77.9367C165.229 79.265 164.161 80.3324 162.841 80.3324Z" fill="#E527BB"/>
<path d="M187.535 76.3474H167.547V77.478H187.535V76.3474Z" fill="white"/>
<path d="M174.56 78.4031H167.547V79.5337H174.56V78.4031Z" fill="white"/>
<path d="M162.841 89.1954C161.521 89.1954 160.445 88.128 160.445 86.7997C160.445 85.4793 161.521 84.4041 162.841 84.4041C164.161 84.4041 165.237 85.4714 165.237 86.7997C165.229 88.1201 164.161 89.1954 162.841 89.1954Z" fill="#E527BB"/>
<path d="M187.535 85.2026H167.547V86.3333H187.535V85.2026Z" fill="white"/>
<path d="M174.56 87.2664H167.547V88.397H174.56V87.2664Z" fill="white"/>
<path d="M162.841 98.0589C161.521 98.0589 160.445 96.9916 160.445 95.6633C160.445 94.3429 161.521 93.2676 162.841 93.2676C164.161 93.2676 165.237 94.335 165.237 95.6633C165.229 96.9836 164.161 98.0589 162.841 98.0589Z" fill="#A78BEF"/>
<path d="M187.535 94.0659H167.547V95.1966H187.535V94.0659Z" fill="white"/>
<path d="M174.56 96.1216H167.547V97.2522H174.56V96.1216Z" fill="white"/>
<path d="M162.841 106.914C161.521 106.914 160.445 105.847 160.445 104.518C160.445 103.198 161.521 102.123 162.841 102.123C164.161 102.123 165.237 103.19 165.237 104.518C165.229 105.847 164.161 106.914 162.841 106.914Z" fill="#A78BEF"/>
<path d="M187.535 102.929H167.547V104.06H187.535V102.929Z" fill="white"/>
<path d="M174.56 104.985H167.547V106.116H174.56V104.985Z" fill="white"/>
<path d="M231.982 248.465L228.55 250.497C227.016 251.406 226.487 253.367 227.364 254.924L229.309 258.387C230.44 260.396 229.191 262.918 226.906 263.234L222.968 263.788C221.205 264.041 219.964 265.654 220.169 267.417L220.636 271.37C220.905 273.655 218.794 275.505 216.564 274.928L212.706 273.94C210.982 273.497 209.219 274.517 208.736 276.225L207.661 280.051C207.037 282.273 204.38 283.174 202.538 281.783L199.359 279.395C197.936 278.328 195.92 278.589 194.813 279.988L192.346 283.119C190.923 284.93 188.124 284.74 186.954 282.755L184.922 279.324C184.013 277.79 182.052 277.26 180.494 278.138L177.031 280.083C175.023 281.214 172.501 279.964 172.185 277.679L171.631 273.742C171.378 271.979 169.765 270.737 168.002 270.943L164.049 271.409C161.764 271.678 159.914 269.567 160.491 267.338L161.479 263.479C161.922 261.756 160.902 259.992 159.194 259.51L155.367 258.435C153.146 257.81 152.244 255.154 153.636 253.311L156.024 250.133C157.091 248.71 156.83 246.694 155.431 245.587L152.3 243.12C150.489 241.697 150.679 238.898 152.663 237.728L156.095 235.696C157.629 234.786 158.158 232.826 157.281 231.268L155.336 227.805C154.205 225.797 155.454 223.275 157.739 222.958L161.669 222.405C163.432 222.152 164.673 220.539 164.468 218.776L164.001 214.822C163.733 212.537 165.844 210.687 168.073 211.265L171.932 212.253C173.655 212.696 175.418 211.676 175.901 209.968L176.976 206.141C177.601 203.919 180.257 203.018 182.099 204.41L185.278 206.797C186.701 207.865 188.717 207.604 189.824 206.204L192.291 203.073C193.714 201.263 196.513 201.453 197.683 203.437L199.715 206.868C200.624 208.402 202.585 208.932 204.143 208.054L207.606 206.109C209.614 204.979 212.136 206.228 212.453 208.513L213.006 212.45C213.259 214.214 214.864 215.455 216.635 215.249L220.588 214.783C222.873 214.514 224.723 216.625 224.146 218.855L223.158 222.713C222.715 224.437 223.735 226.2 225.451 226.682L229.278 227.758C231.499 228.382 232.401 231.039 231.009 232.881L228.621 236.059C227.554 237.483 227.815 239.499 229.214 240.606L232.345 243.072C234.148 244.496 233.958 247.295 231.982 248.465Z" fill="#A78BEF"/>
<path d="M177.404 258.429L147.551 299.571L152.53 303.184L182.383 262.041L177.404 258.429Z" fill="#FFEDED"/>
<path d="M151.278 303.945L147.221 301.003C146.613 300.561 146.478 299.707 146.921 299.106L168.672 269.132C169.115 268.515 169.976 268.381 170.593 268.824L174.633 271.749C175.25 272.192 175.385 273.054 174.942 273.671L153.191 303.644C152.74 304.253 151.886 304.387 151.278 303.945Z" fill="#292759"/>
<path d="M177.411 258.427L175.078 261.645C176.343 263.242 177.83 264.705 179.537 265.978L182.392 262.04L177.411 258.427Z" fill="#292759"/>
<path d="M192.322 266.918C205.475 266.918 216.137 256.256 216.137 243.104C216.137 229.952 205.475 219.29 192.322 219.29C179.17 219.29 168.508 229.952 168.508 243.104C168.508 256.256 179.17 266.918 192.322 266.918Z" fill="#FFEDED"/>
<path d="M192.319 261.692C202.585 261.692 210.907 253.37 210.907 243.104C210.907 232.838 202.585 224.516 192.319 224.516C182.053 224.516 173.73 232.838 173.73 243.104C173.73 253.37 182.053 261.692 192.319 261.692Z" fill="#9AB6F0"/>
<path d="M177.275 233.972C183.299 225.662 194.922 223.812 203.232 229.845C207.984 233.292 210.616 238.574 210.877 244.013C211.17 237.965 208.498 231.885 203.232 228.066C194.922 222.041 183.299 223.883 177.275 232.193C174.697 235.751 173.559 239.91 173.756 243.982C173.922 240.495 175.069 237.008 177.275 233.972Z" fill="#292759"/>
<path d="M206.498 247.445C207.86 247.445 208.965 246.34 208.965 244.978C208.965 243.616 207.86 242.511 206.498 242.511C205.136 242.511 204.031 243.616 204.031 244.978C204.031 246.34 205.136 247.445 206.498 247.445Z" fill="white"/>
<path d="M410.099 91.2668H370.662C366.764 91.2668 363.601 94.4295 363.601 98.3274V108.361C363.601 110.156 362.597 111.808 361.008 112.638L348.033 119.406C347.693 119.588 347.82 120.102 348.207 120.102H362.731C363.214 120.102 363.601 120.489 363.601 120.972V126.759C363.601 130.776 366.859 134.025 370.867 134.025H410.099C414.116 134.025 417.366 130.768 417.366 126.759V98.5329C417.366 94.5164 414.116 91.2668 410.099 91.2668Z" fill="#E527BB"/>
<path d="M388.058 103.364L387.742 102.961C387.236 102.328 386.477 101.957 385.662 101.957H378.594C376.783 101.957 375.312 103.427 375.312 105.238V123.676C375.312 124.775 376.198 125.66 377.297 125.66H402.116C403.215 125.66 404.1 124.775 404.1 123.676V107.744C404.1 105.934 402.63 104.463 400.819 104.463H390.327C389.441 104.463 388.611 104.06 388.058 103.364Z" fill="#213C69"/>
<path d="M402.114 125.66H377.295C376.196 125.66 375.532 124.767 375.809 123.66L379.485 108.93C379.825 107.562 381.201 106.455 382.561 106.455H406.439C407.799 106.455 408.621 107.562 408.281 108.93L404.604 123.66C404.328 124.767 403.213 125.66 402.114 125.66Z" fill="#A78BEF"/>
</g>
<defs>
<clipPath id="clip0_1761_5336">
<rect width="542.64" height="328.79" fill="white"/>
</clipPath>
</defs>
</svg>
