<svg width="543" height="329" viewBox="0 0 543 329" fill="none" xmlns="http://www.w3.org/2000/svg">
<g clip-path="url(#clip0_1224_5470)">
<path opacity="0.2" d="M78.788 327.839C41.4882 290.535 -9.49424 252.012 10.4949 193.818C23.6478 155.541 55.8804 144.88 82.6859 121.276C95.9087 109.631 87.5932 92.6757 87.3433 75.8481C86.7836 32.7513 139.135 -0.687543 187.269 0.010739C239.401 0.768031 261.969 48.9102 305.705 51.4968C322.876 51.7426 338.257 42.4781 353.449 35.1314C398.465 13.3371 469.906 27.2339 473.514 79.9296C474.444 108.392 439.183 154.174 474.514 169.143C502.668 181.072 531.113 185.469 536.19 228.133C542.837 283.976 507.716 314.621 461.971 329L78.788 327.839Z" fill="#999999"/>
<g clip-path="url(#clip1_1224_5470)">
<path d="M288.097 68.6193C288.141 66.9279 289.981 65.5454 292.247 65.5454H377.832C380.128 65.5454 382.38 67.0014 382.38 68.7222V221.65C382.38 222.474 381.747 223.268 380.967 223.842C380.187 224.43 379.024 224.754 377.92 224.739L288.435 224.562C287.317 224.562 286.227 224.224 285.447 223.636C284.667 223.048 284.226 222.224 284.255 221.386L288.097 68.6193Z" fill="#7152DD"/>
<g opacity="0.51">
<path d="M351.117 83.5768L375.505 83.5474L375.696 74.2229H351.294L351.117 83.5768Z" fill="white"/>
<path d="M323.785 83.5621L348.143 83.5474L348.32 74.2229H323.932L323.785 83.5621Z" fill="white"/>
<path d="M296.5 83.5621L320.829 83.5327L320.961 74.2229H296.618L296.5 83.5621Z" fill="white"/>
<path d="M350.82 100.299L375.149 100.314L375.34 91.0481H350.982L350.82 100.299Z" fill="white"/>
<path d="M323.535 100.284L347.849 100.299L348.011 91.0482L323.682 91.0334L323.535 100.284Z" fill="white"/>
<path d="M296.277 100.27L320.577 100.284L320.709 91.0335L296.395 91.0188L296.277 100.27Z" fill="white"/>
<path d="M350.512 116.904L374.811 116.918L375.002 107.697L350.674 107.682L350.512 116.904Z" fill="white"/>
<path d="M323.285 116.889L347.555 116.904L347.717 107.682L323.418 107.667L323.285 116.889Z" fill="white"/>
<path d="M296.07 116.86L320.325 116.889L320.458 107.668L296.188 107.653L296.07 116.86Z" fill="white"/>
<path d="M350.207 133.465L374.462 133.494L374.653 124.287L350.384 124.272L350.207 133.465Z" fill="white"/>
<path d="M323.023 133.435L347.249 133.464L347.426 124.272L323.171 124.243L323.023 133.435Z" fill="white"/>
<path d="M295.867 133.406L320.078 133.42L320.211 124.243L295.985 124.228L295.867 133.406Z" fill="white"/>
<path d="M349.91 149.951L374.121 149.996L374.312 140.833L350.072 140.803L349.91 149.951Z" fill="white"/>
<path d="M322.77 149.922L346.951 149.951L347.128 140.789L322.917 140.759L322.77 149.922Z" fill="white"/>
<path d="M295.66 149.878L319.827 149.907L319.959 140.759L295.778 140.73L295.66 149.878Z" fill="white"/>
<path d="M349.602 166.394L373.783 166.439L373.974 157.305L349.778 157.276L349.602 166.394Z" fill="white"/>
<path d="M322.52 166.351L346.657 166.395L346.819 157.261L322.652 157.232L322.52 166.351Z" fill="white"/>
<path d="M295.453 166.306L319.576 166.35L319.708 157.217L295.571 157.188L295.453 166.306Z" fill="white"/>
<path d="M349.305 182.779L373.427 182.823L373.619 173.734L349.467 173.689L349.305 182.779Z" fill="white"/>
<path d="M322.27 182.72L346.363 182.779L346.525 173.675L322.402 173.631L322.27 182.72Z" fill="white"/>
<path d="M295.246 182.676L319.325 182.72L319.457 173.631L295.364 173.586L295.246 182.676Z" fill="white"/>
<path d="M349.012 199.104L373.09 199.163L373.282 190.088L349.174 190.044L349.012 199.104Z" fill="white"/>
<path d="M322.008 199.045L346.072 199.104L346.233 190.029L322.155 189.985L322.008 199.045Z" fill="white"/>
<path d="M295.043 198.986L319.077 199.03L319.21 189.985L295.161 189.927L295.043 198.986Z" fill="white"/>
<path d="M348.719 215.37L372.753 215.444L372.944 206.399L348.881 206.34L348.719 215.37Z" fill="white"/>
<path d="M321.754 215.311L345.774 215.37L345.935 206.34L321.901 206.281L321.754 215.311Z" fill="white"/>
<path d="M294.836 215.238L318.826 215.297L318.973 206.266L294.954 206.208L294.836 215.238Z" fill="white"/>
</g>
<path d="M317.691 116.757C317.721 115.433 318.839 114.359 320.194 114.359H403.129C404.512 114.359 405.984 115.462 405.984 116.801V304.659C405.984 305.659 405.395 306.63 404.66 307.336C403.924 308.042 402.849 308.439 401.819 308.439L317.971 308.218C316.926 308.218 315.911 307.807 315.175 307.086C314.439 306.365 314.027 305.38 314.056 304.365L317.691 116.757Z" fill="#A78BEF"/>
<g opacity="0.52">
<path d="M365.32 127.67L392.46 127.581L392.445 124.287L365.35 124.375L365.32 127.67Z" fill="white"/>
<path d="M365.246 139.803L392.489 139.685V136.362L365.276 136.479L365.246 139.803Z" fill="white"/>
<path d="M365.172 152.04L392.532 151.893L392.518 148.54L365.201 148.687L365.172 152.04Z" fill="white"/>
<path d="M365.098 164.379L392.561 164.203V160.82L365.112 160.997L365.098 164.379Z" fill="white"/>
<path d="M365.027 176.822L392.609 176.601L392.594 173.204L365.042 173.41L365.027 176.822Z" fill="white"/>
<path d="M364.863 202.016L392.68 201.736L392.665 198.28L364.893 198.545L364.863 202.016Z" fill="white"/>
<path d="M364.629 240.608L392.799 240.226V236.681L364.658 237.049L364.629 240.608Z" fill="white"/>
<path d="M364.953 189.367L392.652 189.117L392.638 185.69L364.968 185.926L364.953 189.367Z" fill="white"/>
<path d="M364.789 214.767L392.724 214.458L392.709 210.973L364.804 211.267L364.789 214.767Z" fill="white"/>
<path d="M364.715 227.636L392.767 227.283L392.752 223.768L364.73 224.106L364.715 227.636Z" fill="white"/>
<path d="M364.555 253.683L392.843 253.286L392.828 249.697L364.569 250.094L364.555 253.683Z" fill="white"/>
<path d="M364.465 266.89L392.885 266.434L392.87 262.831L364.494 263.258L364.465 266.89Z" fill="white"/>
<path d="M364.395 280.201L392.918 279.715V276.068L364.409 276.538L364.395 280.201Z" fill="white"/>
<path d="M364.305 293.628L392.96 293.099V289.437L364.334 289.937L364.305 293.628Z" fill="white"/>
<path d="M329.746 127.787L357.048 127.699L357.077 124.39L329.805 124.478L329.746 127.787Z" fill="white"/>
<path d="M329.527 139.965L356.947 139.847L356.976 136.509L329.586 136.626L329.527 139.965Z" fill="white"/>
<path d="M329.305 152.246L356.842 152.084L356.871 148.731L329.364 148.878L329.305 152.246Z" fill="white"/>
<path d="M329.086 164.615L356.726 164.438L356.756 161.041L329.145 161.217L329.086 164.615Z" fill="white"/>
<path d="M328.848 177.101L356.62 176.881L356.65 173.469L328.921 173.674L328.848 177.101Z" fill="white"/>
<path d="M328.395 202.369L356.388 202.089L356.417 198.618L328.453 198.883L328.395 202.369Z" fill="white"/>
<path d="M327.688 241.093L356.049 240.726L356.078 237.152L327.761 237.52L327.688 241.093Z" fill="white"/>
<path d="M328.629 189.676L356.505 189.441L356.534 185.985L328.688 186.235L328.629 189.676Z" fill="white"/>
<path d="M328.156 215.164L356.267 214.855L356.312 211.355L328.23 211.664L328.156 215.164Z" fill="white"/>
<path d="M327.922 228.077L356.166 227.739L356.195 224.209L327.995 224.533L327.922 228.077Z" fill="white"/>
<path d="M327.449 254.227L355.928 253.815L355.958 250.227L327.508 250.624L327.449 254.227Z" fill="white"/>
<path d="M327.215 267.464L355.812 267.023L355.841 263.39L327.274 263.831L327.215 267.464Z" fill="white"/>
<path d="M326.965 280.818L355.694 280.348L355.724 276.686L327.038 277.156L326.965 280.818Z" fill="white"/>
<path d="M326.715 294.29L355.577 293.775L355.606 290.099L326.788 290.599L326.715 294.29Z" fill="white"/>
</g>
<path d="M195.401 120.919C195.401 112.756 202.024 106.153 210.178 106.153H335.884C342.816 106.153 348.541 111.58 348.894 118.507L358.167 300.615C358.446 306.027 354.178 310.601 348.747 310.704L204.674 313.322C199.581 313.41 195.387 309.307 195.387 304.218L195.401 120.919Z" fill="#E527BB"/>
<path d="M200.186 268.596C199.995 268.596 199.848 268.449 199.848 268.258V264.317C199.848 264.125 199.995 263.978 200.186 263.978C200.378 263.978 200.525 264.125 200.525 264.317V268.258C200.525 268.449 200.378 268.596 200.186 268.596Z" fill="white"/>
<path d="M205.703 108.947C205.688 106.344 207.984 104.314 210.575 104.667C227.736 106.991 286.769 114.183 335.574 110.447C337.796 110.271 339.724 111.962 339.857 114.183L349.585 297.114C349.718 299.629 347.805 301.762 345.288 301.909C324.756 303.13 240.231 307.821 210.074 304.659C208.235 304.468 206.851 302.924 206.836 301.085L205.703 108.947Z" fill="#A78BEF"/>
<path d="M207.719 113.536C207.704 111.021 209.912 109.079 212.399 109.418C228.913 111.653 285.724 118.581 332.689 114.977C334.837 114.815 336.692 116.433 336.81 118.581L346.17 294.614C346.303 297.026 344.448 299.085 342.034 299.232C322.283 300.394 240.937 304.909 211.913 301.88C210.147 301.688 208.808 300.203 208.793 298.438L207.719 113.536Z" fill="#BDD0FB"/>
<g opacity="0.6">
<path d="M306.343 129.229C307.153 129.229 307.8 128.567 307.771 127.758L307.756 127.42C307.727 126.611 307.05 125.934 306.24 125.919L240.23 124.846C239.421 124.831 238.994 125.434 239.289 126.199L239.921 127.846C240.216 128.596 241.114 129.214 241.938 129.214L306.343 129.229Z" fill="white"/>
</g>
<g opacity="0.6">
<path d="M240.23 133.979C239.421 133.964 238.994 134.567 239.289 135.332L239.921 136.979C240.216 137.729 241.114 138.347 241.938 138.347H306.343C307.153 138.347 307.8 137.685 307.771 136.876L307.756 136.538C307.727 135.729 307.05 135.053 306.24 135.038L240.23 133.979Z" fill="white"/>
</g>
<g opacity="0.6">
<path d="M326.832 154.658C327.641 154.658 328.274 153.996 328.23 153.187L328.215 152.849C328.171 152.04 327.479 151.363 326.67 151.363L220.465 150.275C219.656 150.26 219.332 150.819 219.759 151.51L220.922 153.393C221.348 154.084 222.364 154.643 223.173 154.643L326.832 154.658Z" fill="white"/>
</g>
<g opacity="0.6">
<path d="M220.45 159.702C219.64 159.688 219.316 160.247 219.743 160.938L220.906 162.835C221.333 163.526 222.348 164.085 223.158 164.085H326.831C327.64 164.085 328.273 163.423 328.229 162.615L328.214 162.276C328.17 161.467 327.478 160.791 326.669 160.791L220.45 159.702Z" fill="white"/>
</g>
<g opacity="0.6">
<path d="M221.067 169.909C220.257 169.895 219.934 170.454 220.36 171.145L221.523 173.027C221.95 173.719 222.966 174.278 223.775 174.278H327.448C328.257 174.278 328.89 173.616 328.846 172.807L328.831 172.469C328.787 171.66 328.096 170.983 327.286 170.983L221.067 169.909Z" fill="white"/>
</g>
<g opacity="0.6">
<path d="M332.217 263.081C333.027 263.081 333.659 262.419 333.615 261.61L333.601 261.272C333.556 260.463 332.865 259.787 332.04 259.787L221.847 258.698C221.038 258.684 220.729 259.242 221.17 259.934L222.392 261.846C222.834 262.537 223.849 263.096 224.659 263.096H332.217V263.081Z" fill="white"/>
</g>
<g opacity="0.6">
<path d="M221.847 268.126C221.038 268.111 220.729 268.67 221.17 269.361L222.392 271.273C222.834 271.964 223.849 272.523 224.659 272.523H332.217C333.027 272.523 333.659 271.861 333.615 271.053L333.601 270.714C333.556 269.905 332.865 269.229 332.04 269.229L221.847 268.126Z" fill="white"/>
</g>
<g opacity="0.6">
<path d="M222.48 278.333C221.671 278.318 221.362 278.877 221.803 279.568L223.025 281.48C223.466 282.171 224.482 282.73 225.291 282.73H332.85C333.659 282.73 334.292 282.069 334.248 281.26L334.233 280.921C334.189 280.112 333.497 279.436 332.673 279.436L222.48 278.333Z" fill="white"/>
</g>
<g opacity="0.6">
<path d="M327.537 190.191C328.346 190.191 328.979 189.529 328.95 188.72L328.935 188.382C328.906 187.573 328.214 186.897 327.39 186.897L238.685 185.823C237.875 185.808 237.508 186.397 237.89 187.117L238.803 188.897C239.171 189.618 240.142 190.206 240.951 190.206L327.537 190.191Z" fill="white"/>
</g>
<g opacity="0.6">
<path d="M238.701 195.545C237.891 195.53 237.523 196.118 237.906 196.839L238.818 198.619C239.186 199.339 240.158 199.928 240.967 199.928H327.553C328.362 199.928 328.995 199.266 328.965 198.457L328.951 198.119C328.921 197.31 328.23 196.633 327.405 196.633L238.701 195.545Z" fill="white"/>
</g>
<g opacity="0.6">
<path d="M239.216 205.737C238.407 205.722 238.039 206.31 238.421 207.031L239.334 208.811C239.702 209.531 240.673 210.12 241.483 210.12H328.068C328.878 210.12 329.511 209.458 329.481 208.649L329.466 208.311C329.437 207.502 328.745 206.825 327.921 206.825L239.216 205.737Z" fill="white"/>
</g>
<path opacity="0.6" d="M226.72 191.324C228.427 191.324 229.81 189.941 229.81 188.235C229.81 186.529 228.427 185.146 226.72 185.146C225.013 185.146 223.629 186.529 223.629 188.235C223.629 189.941 225.013 191.324 226.72 191.324Z" fill="white"/>
<g opacity="0.6">
<path d="M327.228 227.666C328.038 227.666 328.671 227.004 328.641 226.195L328.627 225.856C328.597 225.048 327.905 224.371 327.081 224.371L238.376 223.297C237.567 223.283 237.199 223.871 237.582 224.592L238.494 226.371C238.862 227.092 239.833 227.68 240.643 227.68L327.228 227.666Z" fill="white"/>
</g>
<g opacity="0.6">
<path d="M238.392 233.034C237.582 233.019 237.215 233.607 237.597 234.328L238.51 236.108C238.878 236.828 239.849 237.417 240.659 237.417H327.244C328.053 237.417 328.686 236.755 328.657 235.946L328.642 235.608C328.613 234.799 327.921 234.122 327.097 234.122L238.392 233.034Z" fill="white"/>
</g>
<g opacity="0.6">
<path d="M238.908 243.226C238.098 243.211 237.73 243.8 238.113 244.52L239.025 246.3C239.393 247.021 240.365 247.609 241.174 247.609H327.76C328.569 247.609 329.202 246.947 329.173 246.138L329.158 245.8C329.128 244.991 328.437 244.314 327.612 244.314L238.908 243.226Z" fill="white"/>
</g>
<path opacity="0.6" d="M228.592 227.896C229.799 226.69 229.799 224.734 228.592 223.528C227.385 222.322 225.428 222.322 224.221 223.528C223.014 224.734 223.014 226.69 224.221 227.896C225.428 229.102 227.385 229.102 228.592 227.896Z" fill="white"/>
<path d="M280.823 81.3117C276.275 78.1496 272.33 78.2231 269.549 79.032C267.017 79.7821 265.369 82.2236 265.604 84.8562L266.797 97.9311L281.058 99.196C281.088 99.196 289.727 87.5035 280.823 81.3117ZM274.553 91.8569C272.595 91.8569 270.991 90.2685 270.991 88.2977C270.991 86.3416 272.581 84.7385 274.553 84.7385C276.51 84.7385 278.115 86.3269 278.115 88.2977C278.115 90.2685 276.525 91.8569 274.553 91.8569Z" fill="#E527BB"/>
<path d="M268.24 92.4451C268.063 92.4451 267.916 92.3128 267.901 92.1363L267.71 90.0478C267.695 89.8566 267.828 89.6948 268.019 89.6801C268.211 89.6654 268.372 89.7978 268.387 89.989L268.579 92.0775C268.593 92.2687 268.461 92.4304 268.269 92.4451C268.269 92.4451 268.255 92.4451 268.24 92.4451ZM267.872 88.3565C267.695 88.3565 267.548 88.2241 267.534 88.0476L267.386 86.4739C267.151 83.9736 268.74 81.6352 271.139 80.9292C272.847 80.4292 274.598 80.3556 276.35 80.7086C276.541 80.7527 276.659 80.9292 276.614 81.1204C276.57 81.3116 276.394 81.4293 276.202 81.3851C274.554 81.0469 272.92 81.1204 271.316 81.591C269.226 82.2088 267.857 84.2384 268.049 86.4151L268.196 87.9888C268.211 88.18 268.078 88.3418 267.887 88.3565C267.887 88.3565 267.887 88.3565 267.872 88.3565Z" fill="#BDD0FB"/>
<path d="M247.355 106.388V99.8137C247.355 97.5487 249.239 95.725 251.506 95.7985L296.852 97.3575C298.868 97.4311 300.487 99.0195 300.62 101.02L301.002 107.329L247.355 106.388Z" fill="#E527BB"/>
<path d="M264.266 98.2842H262.323C262.132 98.2842 261.984 98.1371 261.984 97.9459C261.984 97.7547 262.132 97.6077 262.323 97.6077H264.266C264.457 97.6077 264.604 97.7547 264.604 97.9459C264.604 98.1224 264.457 98.2842 264.266 98.2842Z" fill="#BDD0FB"/>
<path d="M249.815 104.329C249.624 104.329 249.477 104.182 249.477 103.991V101.329C249.477 99.2696 251.154 97.6077 253.2 97.6077H260.368C260.559 97.6077 260.706 97.7547 260.706 97.9459C260.706 98.1371 260.559 98.2842 260.368 98.2842H253.2C251.522 98.2842 250.154 99.652 250.154 101.329V103.991C250.154 104.167 250.006 104.329 249.815 104.329Z" fill="#BDD0FB"/>
<path d="M228.883 108.05C228.987 105.77 230.87 103.99 233.152 103.99H312.452C315.307 103.99 317.735 106.035 318.221 108.844L318.295 109.226C318.825 112.3 316.455 115.109 313.335 115.109H231.974C230.105 115.109 228.619 113.55 228.707 111.682L228.883 108.05Z" fill="#E527BB"/>
<g opacity="0.6">
<path d="M311.983 289.349C311.173 289.304 310.584 289.937 310.687 290.731L310.864 292.202C310.967 293.011 311.703 293.673 312.513 293.673H330.527C331.337 293.673 331.999 293.011 331.984 292.202V291.864C331.97 291.055 331.307 290.349 330.498 290.319L311.983 289.349Z" fill="white"/>
</g>
<path d="M322.226 294.334C318.016 294.334 313.998 292.819 310.805 290.025C307.331 286.966 305.241 282.745 304.947 278.127C304.329 268.596 311.585 260.331 321.137 259.713C330.674 259.095 338.945 266.346 339.563 275.891C339.858 280.509 338.342 284.966 335.28 288.451C332.219 291.922 327.995 294.011 323.374 294.305C322.991 294.32 322.608 294.334 322.226 294.334ZM322.255 260.331C321.887 260.331 321.534 260.345 321.166 260.36C311.982 260.948 305.006 268.89 305.594 278.068C306.183 287.245 314.131 294.217 323.315 293.628C332.499 293.04 339.475 285.098 338.886 275.921C338.327 267.126 330.968 260.331 322.255 260.331Z" fill="#E527BB"/>
<path d="M322.241 292.202C318.605 292.202 315.147 290.907 312.394 288.481C309.392 285.848 307.596 282.201 307.346 278.215C307.081 274.229 308.391 270.391 311.026 267.39C313.66 264.39 317.31 262.596 321.299 262.346C325.287 262.081 329.129 263.39 332.131 266.037C335.133 268.67 336.929 272.317 337.179 276.303C337.444 280.289 336.134 284.127 333.5 287.128C330.865 290.128 327.215 291.922 323.227 292.172C322.903 292.202 322.579 292.202 322.241 292.202ZM322.285 262.993C321.976 262.993 321.652 263.007 321.343 263.022C317.531 263.272 314.057 264.978 311.526 267.846C309.009 270.714 307.758 274.391 308.008 278.185C308.259 281.995 309.966 285.466 312.836 287.995C315.706 290.51 319.385 291.76 323.183 291.51C326.994 291.26 330.468 289.554 332.999 286.686C335.516 283.818 336.767 280.142 336.517 276.347C336.267 272.538 334.559 269.067 331.69 266.537C329.07 264.228 325.758 262.993 322.285 262.993Z" fill="#E527BB"/>
<path d="M312.394 284.407L312.305 282.215C312.291 281.848 312.57 281.539 312.938 281.524L330.6 280.759C330.968 280.745 331.277 281.024 331.291 281.392L331.38 283.583C331.394 283.951 331.115 284.26 330.747 284.274L313.085 285.039C312.717 285.069 312.408 284.774 312.394 284.407Z" fill="#E527BB"/>
<path d="M312.042 273.744L311.954 271.553C311.939 271.185 312.219 270.876 312.587 270.861L330.248 270.097C330.616 270.082 330.925 270.361 330.94 270.729L331.028 272.92C331.043 273.288 330.763 273.597 330.395 273.612L312.734 274.376C312.366 274.406 312.057 274.112 312.042 273.744Z" fill="#E527BB"/>
<path d="M309.509 279.553L309.391 276.95C309.376 276.582 309.656 276.273 310.024 276.259L333.514 275.244C333.882 275.229 334.191 275.509 334.206 275.876L334.323 278.465C334.338 278.833 334.058 279.141 333.69 279.156L310.201 280.171C309.847 280.215 309.538 279.921 309.509 279.553Z" fill="#E527BB"/>
<path d="M342.375 203.413C342.375 203.413 342.375 225.916 352.251 224.092C358.285 222.974 361.862 198.722 361.862 198.722C361.862 198.722 355.621 184.823 354.929 189.382C349.852 222.445 346.069 197.133 342.375 203.413Z" fill="url(#paint0_linear_1224_5470)"/>
<path d="M367.277 314.454C367.277 314.454 367.895 317.925 368.189 321.352C368.307 322.691 367.277 323.852 365.923 323.911C361.346 324.102 351.558 324.47 348.055 324.308C347.525 324.279 347.187 323.749 347.378 323.249C347.54 322.838 347.864 322.499 348.261 322.323L364.422 314.896L367.277 314.454Z" fill="#A78BEF"/>
<path d="M366.587 234.505C366.793 235.637 367.735 290.908 362.068 315.675C361.98 316.072 362.171 316.499 362.539 316.646C363.408 317.014 365.115 317.558 367.161 317.617C367.793 317.646 368.353 317.205 368.544 316.572C370.163 310.822 377.919 282.039 378.935 254.536C380.068 223.798 378.935 253.492 378.935 253.492L378.273 234.49L366.587 234.505Z" fill="#231F20"/>
<path d="M385.041 316.263C385.041 316.263 386.012 318.014 386.954 322.661C387.131 323.499 386.542 324.308 385.689 324.382C384.173 324.529 381.847 324.72 379.993 324.705C379.139 324.705 378.462 323.955 378.565 323.102C378.771 321.411 379.419 318.617 381.406 316.455L385.041 316.263Z" fill="#A78BEF"/>
<path d="M389.015 236.196C393.651 265.361 388.014 308.263 386.101 316.661C385.983 317.175 385.586 317.572 385.086 317.661C384.232 317.808 382.834 317.925 381.465 317.514C380.994 317.367 380.655 316.925 380.641 316.411C380.391 309.616 380.847 267.935 376.534 251.462C376.314 250.624 375.828 249.903 375.151 249.403L366.776 243.197L366.129 233.152L389.015 236.196Z" fill="#231F20"/>
<path d="M359.478 183.117C373.371 182.881 388.693 186.764 388.693 186.764C392.828 210.899 389.414 238.74 389.414 238.74C378.67 241.564 366.542 237.02 366.542 237.02C364.761 226.93 356.416 198.545 356.416 198.545C349.631 197.692 355.195 183.19 359.478 183.117Z" fill="#7152DD"/>
<path d="M383.363 200.192L388.691 186.75C388.691 186.75 401.658 195.559 403.792 206.722C401.334 206.899 396.874 207.546 392.518 209.737C391.561 204.472 383.363 200.192 383.363 200.192Z" fill="#7152DD"/>
<path d="M373.547 171.851L377.963 184.617C378.036 184.823 377.948 185.058 377.757 185.176C376.55 185.838 372.208 187.764 366.983 184.455C366.439 184.117 366.071 183.543 365.982 182.911L364.555 171.866H373.547V171.851Z" fill="url(#paint1_linear_1224_5470)"/>
<path d="M363.937 160.026C363.937 160.026 359.08 169.159 359.713 172.836C360.331 176.528 366.351 176.263 371.605 173.263L375.27 163.409L363.937 160.026Z" fill="url(#paint2_linear_1224_5470)"/>
<path d="M371.356 168.424C371.136 168.336 371.062 168.071 371.194 167.88C371.577 167.292 372.313 166.071 372.548 165.012C372.548 165.012 373.417 164.453 370.326 163.718C367.235 162.982 362.629 161.835 361.657 159.202C360.715 156.643 364.557 152.525 367.162 155.334C367.324 155.511 367.603 155.54 367.765 155.334C368.413 154.496 370.12 152.731 372.49 153.805C374.712 154.805 374.962 156.423 374.933 157.246C374.918 157.482 375.139 157.673 375.374 157.629C376.493 157.408 379.186 157.232 380.437 159.997C381.467 162.276 380.805 163.556 380.187 164.188C379.996 164.394 380.069 164.732 380.349 164.806C381.085 165.027 382.041 165.659 381.938 167.38C381.806 169.762 379.142 169.557 378.377 169.454C378.259 169.439 378.127 169.483 378.038 169.571C377.391 170.292 374.447 173.351 371.268 173.719C370.988 173.748 370.782 173.483 370.871 173.219L372.239 169.218C372.298 169.027 372.21 168.836 372.033 168.748L371.356 168.424Z" fill="black"/>
<path d="M370.809 168.998C370.809 168.998 374.267 166.63 374.518 168.63C374.768 170.63 371.412 171.513 369.734 170.777L370.809 168.998Z" fill="url(#paint3_linear_1224_5470)"/>
<path d="M362.008 155.923C362.008 155.923 367.512 146.422 377.344 152.099C387.175 157.776 381.862 164.747 381.862 164.747L362.008 155.923Z" fill="#E527BB"/>
<path d="M382.174 156.423C382.174 156.423 370.326 146.966 364.719 157.129C362.423 156.129 361.996 155.923 361.996 155.923C361.996 155.923 366.971 146.819 373.756 149.893C380.555 152.937 382.189 154.408 382.174 156.423Z" fill="#B71398"/>
<path opacity="0.6" d="M368.619 159.144C368.649 159.158 368.693 159.158 368.722 159.144L368.796 159.1C370.562 158.158 373.52 156.585 375.478 157.393C376.42 157.791 377.347 158.379 378.23 158.938C378.863 159.335 379.51 159.747 380.158 160.1C381.041 160.57 382.027 161.056 383.146 161.615C383.205 161.644 383.278 161.615 383.308 161.556C383.337 161.497 383.308 161.423 383.249 161.394C382.13 160.835 381.159 160.335 380.276 159.879C379.628 159.541 378.995 159.129 378.362 158.732C377.465 158.158 376.523 157.57 375.566 157.158C373.506 156.305 370.488 157.923 368.678 158.879L368.604 158.923C368.546 158.952 368.516 159.026 368.56 159.085C368.575 159.114 368.59 159.144 368.619 159.144Z" fill="white"/>
<path d="M381.834 166.277L358.462 157.291C358.315 157.232 358.227 157.085 358.227 156.938C358.227 156.776 358.33 156.643 358.491 156.599C359.698 156.217 361.685 155.673 362.495 156.026C365.056 157.173 381.878 164.747 381.878 164.747C381.878 164.747 382.29 164.938 381.834 166.277Z" fill="#B71398"/>
<path d="M379.42 184.867C377.242 189.97 373.959 195.471 370.133 201.163L372.65 238.682C378.625 240.77 384.409 242.05 389.722 241.226C390.62 227.827 391.165 215.385 390.576 205.913C390.149 199.442 390.017 192.927 390.826 187.985C389.663 186.764 386.381 185.646 379.42 184.867Z" fill="#E527BB"/>
<path d="M365.099 182.852C366.35 189.559 367.955 196.03 370.133 201.163L372.65 238.682C370.089 238.843 367.572 238.564 365.085 238.152C362.538 228.063 360.316 215.179 358.211 201.295C358.432 194.78 358.27 188.367 357.52 182.808C360.169 182.337 362.671 182.381 365.099 182.852Z" fill="#E527BB"/>
<path opacity="0.7" d="M390.606 225.518H373.812V224.077H390.738L390.606 225.518Z" fill="white"/>
<path opacity="0.7" d="M390.297 232.181H373.812V229.901H390.458L390.297 232.181Z" fill="white"/>
<path opacity="0.7" d="M369.751 225.518H362.319L362.039 224.077H369.751V225.518Z" fill="white"/>
<path opacity="0.7" d="M369.749 232.181H363.685L363.199 229.901H369.749V232.181Z" fill="white"/>
<path d="M372.03 212.841C372.03 212.841 386.6 221.062 391.501 214.047C392.517 212.591 392.767 211.135 392.517 209.752C396.888 207.546 401.348 206.914 403.791 206.737C404.438 210.105 404.1 213.679 402.113 217.297C393.503 233.034 370.102 216.429 370.102 216.429L372.03 212.841Z" fill="url(#paint4_linear_1224_5470)"/>
<path d="M372.237 219.959L364.495 192.941C364.407 192.633 364.142 192.412 363.833 192.368C362.435 192.206 358.358 191.75 353.678 191.353C348.026 190.882 341.462 190.485 337.532 190.824C336.973 190.868 336.634 191.456 336.884 191.956C339.122 196.471 348.291 214.811 352.883 220.827C353.03 221.033 353.265 221.136 353.516 221.136L371.486 220.974C372.016 220.959 372.384 220.459 372.237 219.959Z" fill="#DAA7EE"/>
<path d="M352.573 189.029L347.054 188.117C346.76 188.073 346.524 188.353 346.613 188.632L347.157 190.279C347.201 190.426 347.334 190.529 347.481 190.544L352.779 191.25C353.059 191.28 353.28 191.044 353.221 190.765L352.882 189.323C352.853 189.176 352.735 189.059 352.573 189.029Z" fill="#B71398"/>
<path d="M356.708 193.691L356.252 191.324C356.207 191.088 356.016 190.912 355.766 190.882L344.639 189.75C344.271 189.706 343.962 190.059 344.05 190.426L344.757 193.368C344.816 193.603 345.022 193.78 345.257 193.78L356.134 194.324C356.487 194.368 356.767 194.044 356.708 193.691Z" fill="#B71398"/>
<path d="M371.485 217.944C372.265 218.018 372.956 217.473 373.118 216.709C373.486 214.973 374.045 211.796 373.663 210.399C373.118 208.428 372.073 205.913 368.556 206.472C365.053 207.031 360.902 208.517 360.902 208.517C360.902 208.517 361.108 211.076 363.772 210.252L362.124 211.532C362.124 211.532 362.359 213.576 364.611 212.488L363.066 214.179C363.066 214.179 364.037 215.856 365.686 214.782C367.187 213.826 367.982 217.606 371.485 217.944Z" fill="url(#paint5_linear_1224_5470)"/>
<path d="M345.805 209.34C345.805 209.34 341.728 205.369 341.139 203.413C340.55 201.457 340.109 198.766 343.376 197.383C346.644 196.001 350.941 195.045 350.941 195.045C350.941 195.045 352.119 197.324 349.425 198.045L351.501 198.251C351.501 198.251 352.384 200.104 349.896 200.383L352.104 201.001C352.104 201.001 352.178 202.943 350.205 202.898C348.219 202.869 350.132 207.414 345.805 209.34Z" fill="url(#paint6_linear_1224_5470)"/>
<path d="M228.326 85.577L167.173 54.8384L136.191 87.2683L138.296 87.3419L167.644 56.1326L227.428 86.5182L228.326 85.577Z" fill="#E527BB"/>
<path d="M147.289 87.533L147.156 94.5484L148.393 94.5631L148.525 87.533H147.289Z" fill="#E527BB"/>
<path d="M136 93.9014L159.122 94.0043L159.063 94.6073L136 94.5044V93.9014Z" fill="#E527BB"/>
<path d="M136 87.1064L158.827 87.1947L159.063 87.8124L136 87.7095V87.1064Z" fill="#E527BB"/>
<path d="M136.074 94.5043H136.737V87.1064H136.074V94.5043Z" fill="#E527BB"/>
<path d="M158.461 196.515H176.579V194.353H158.461V196.515Z" fill="#E527BB"/>
<path d="M158.473 222.459H176.532V220.944H158.473V222.459Z" fill="#E527BB"/>
<path d="M158.473 209.046H176.532V207.531H158.473V209.046Z" fill="#E527BB"/>
<path d="M158.473 235.652H176.532V234.137H158.473V235.652Z" fill="#E527BB"/>
<path d="M158.473 248.83H176.532V247.315H158.473V248.83Z" fill="#E527BB"/>
<path d="M158.473 261.611H176.532V260.096H158.473V261.611Z" fill="#E527BB"/>
<path d="M158.473 274.803H176.532V273.288H158.473V274.803Z" fill="#E527BB"/>
<path d="M176.532 207.105L175.723 208.296L157.914 196.251L158.724 195.059L176.532 207.105Z" fill="#E527BB"/>
<path d="M176.329 233.607L175.52 234.799L157.711 222.753L158.52 221.562L176.329 233.607Z" fill="#E527BB"/>
<path d="M176.532 260.125L175.723 261.316L157.914 249.271L158.724 248.08L176.532 260.125Z" fill="#E527BB"/>
<path d="M175.312 260.14L176.24 261.243L159.697 274.979L158.77 273.862L175.312 260.14Z" fill="#E527BB"/>
<path d="M175.032 233.225L175.959 234.343L159.416 248.08L158.504 246.962L175.032 233.225Z" fill="#E527BB"/>
<path d="M175.032 206.854L175.959 207.972L159.416 221.694L158.504 220.591L175.032 206.854Z" fill="#E527BB"/>
<path d="M176.532 285.745L175.723 286.937L157.914 274.891L158.724 273.7L176.532 285.745Z" fill="#E527BB"/>
<path d="M174.973 285.466H176.533V194.353H174.973V285.466Z" fill="#E527BB"/>
<path d="M157.488 285.554H159.048V194.427H157.488V285.554Z" fill="#E527BB"/>
<path d="M158.633 86.739H176.692V85.2241H158.633V86.739Z" fill="#E527BB"/>
<path d="M158.633 100.108H176.692V98.593H158.633V100.108Z" fill="#E527BB"/>
<path d="M158.633 113.301H176.692V111.786H158.633V113.301Z" fill="#E527BB"/>
<path d="M158.633 126.081H176.692V124.566H158.633V126.081Z" fill="#E527BB"/>
<path d="M158.633 139.274H176.692V137.759H158.633V139.274Z" fill="#E527BB"/>
<path d="M176.475 98.0784L175.665 99.2697L157.871 87.2243L158.681 86.033L176.475 98.0784Z" fill="#E527BB"/>
<path d="M176.692 124.596L175.883 125.787L158.074 113.742L158.884 112.551L176.692 124.596Z" fill="#E527BB"/>
<path d="M175.473 124.611L176.4 125.714L159.857 139.45L158.93 138.333L175.473 124.611Z" fill="#E527BB"/>
<path d="M175.191 97.696L176.119 98.8138L159.576 112.551L158.648 111.433L175.191 97.696Z" fill="#E527BB"/>
<path d="M176.692 150.202L175.883 151.408L158.074 139.362L158.884 138.171L176.692 150.202Z" fill="#E527BB"/>
<path d="M175.133 149.966H176.693V85.1211H175.133V149.966Z" fill="#E527BB"/>
<path d="M157.648 150.025H159.209V85.1799H157.648V150.025Z" fill="#E527BB"/>
<path d="M249.828 86.165L249.695 96.7103H251.461L251.594 86.1797L249.828 86.165Z" fill="#E527BB"/>
<path d="M241.014 96.6221L240.043 96.1515L250.051 85.8416L251.023 86.3269L241.014 96.6221Z" fill="#E527BB"/>
<path d="M219.303 96.3575L218.332 95.8868L228.325 85.5769L229.312 86.0623L219.303 96.3575Z" fill="#E527BB"/>
<path d="M197.595 96.3426L196.609 95.8572L206.618 85.562L207.589 86.0327L197.595 96.3426Z" fill="#E527BB"/>
<path d="M197.582 95.6221L196.67 96.1516L185.543 86.4594L186.455 85.9299L197.582 95.6221Z" fill="url(#paint7_linear_1224_5470)"/>
<path d="M219.63 95.6073L218.703 96.1367L207.223 86.1357L208.503 85.915L219.63 95.6073Z" fill="#E527BB"/>
<path d="M241.233 95.7543L240.306 96.2838L228.605 86.165L230.107 86.0474L241.233 95.7543Z" fill="#E527BB"/>
<path d="M176.608 96.1955L175.637 95.7249L185.63 85.4297L186.602 85.9003L176.608 96.1955Z" fill="url(#paint8_linear_1224_5470)"/>
<path d="M176.843 95.2986L176.828 96.1957L251.463 96.6958L251.477 95.7839L176.843 95.2986Z" fill="#E527BB"/>
<path d="M176.444 85.1062L176.43 86.0181L251.52 86.5181L251.535 85.6063L176.444 85.1062Z" fill="#E527BB"/>
<path d="M156.664 150.819H178.358V149.084H156.664V150.819Z" fill="#E527BB"/>
<path d="M157.781 165.836H178.357V164.115H157.781V165.836Z" fill="#E527BB"/>
<path d="M157.781 180.411H178.357V178.675H157.781V180.411Z" fill="#E527BB"/>
<path d="M157.781 195.427H178.357V193.706H157.781V195.427Z" fill="#E527BB"/>
<path d="M178.357 178.704L177.43 180.058L157.148 166.336L158.061 164.982L178.357 178.704Z" fill="#E527BB"/>
<path d="M176.96 178.719L178.005 179.984L159.976 194.971L158.121 194.368L176.96 178.719Z" fill="#E527BB"/>
<path d="M174.855 149.554L175.915 150.819L158.857 164.983L157.797 163.718L174.855 149.554Z" fill="#E527BB"/>
<path d="M176.578 195.383H178.359V149.084H176.578V195.383Z" fill="#E527BB"/>
<path d="M156.664 195.427H158.43V149.128H156.664V195.427Z" fill="#E527BB"/>
<path d="M152.691 160.864H182.686C182.76 160.864 182.819 160.806 182.819 160.732V159.864C182.819 159.791 182.76 159.732 182.686 159.732H152.691C152.617 159.732 152.559 159.791 152.559 159.864V160.732C152.559 160.806 152.617 160.864 152.691 160.864Z" fill="#B71398"/>
<path d="M153.043 173.851H182.126V172.733H153.043V173.851Z" fill="#B71398"/>
<path d="M181.008 173.645H182.126V159.732H181.008V173.645Z" fill="#B71398"/>
<path d="M178.578 173.645H179.137V159.732H178.578V173.645Z" fill="#B71398"/>
<path d="M175.785 173.645H176.344V159.732H175.785V173.645Z" fill="#B71398"/>
<path d="M172.988 173.645H173.548V159.732H172.988V173.645Z" fill="#B71398"/>
<path d="M170.176 173.645H170.75V159.732H170.176V173.645Z" fill="#B71398"/>
<path d="M167.188 173.645H167.761V159.732H167.188V173.645Z" fill="#B71398"/>
<path d="M164.391 173.645H164.965V159.732H164.391V173.645Z" fill="#B71398"/>
<path d="M161.242 173.645H161.816V159.732H161.242V173.645Z" fill="#B71398"/>
<path d="M158.445 173.645H159.019V159.732H158.445V173.645Z" fill="#B71398"/>
<path d="M155.68 173.645H156.239V159.732H155.68V173.645Z" fill="#B71398"/>
<path d="M153.043 173.645H154.176V159.732H153.043V173.645Z" fill="#B71398"/>
<path d="M175.499 85.5623L175.912 84.9446L161.974 75.5171L161.547 76.1348L175.499 85.5623Z" fill="#E527BB"/>
<path d="M172.837 75.0022L173.264 74.3845L163.564 67.825L163.152 68.4427L172.837 75.0022Z" fill="#E527BB"/>
<path d="M170.275 67.5308L170.687 66.9278L165.006 63.0745L164.594 63.6922L170.275 67.5308Z" fill="#E527BB"/>
<path d="M172.809 74.1346L172.338 73.5757L158.871 84.8857L159.357 85.4446L172.809 74.1346Z" fill="#E527BB"/>
<path d="M170.572 67.369L170.057 66.8542L160.711 76.1935L161.226 76.7082L170.572 67.369Z" fill="#E527BB"/>
<path d="M168.73 60.5596L168.244 60.0742L164.668 63.6481L165.154 64.1335L168.73 60.5596Z" fill="#E527BB"/>
<path d="M176.693 85.224L167.171 54.8384L157.648 85.5623H159.591L167.171 59.1771L175.133 85.121L176.693 85.224Z" fill="#E527BB"/>
<path d="M166.923 58.4122C168.142 58.4122 169.13 57.4245 169.13 56.2061C169.13 54.9877 168.142 54 166.923 54C165.703 54 164.715 54.9877 164.715 56.2061C164.715 57.4245 165.703 58.4122 166.923 58.4122Z" fill="#E527BB"/>
<path d="M167.215 102.99H200.463V85.1797C200.463 82.2529 198.093 79.885 195.164 79.885H169.099C168.054 79.885 167.215 80.7233 167.215 81.7676V102.99Z" fill="#E527BB"/>
<path d="M181.314 102.74L181.094 83.8414C181.079 82.5471 179.99 81.5029 178.695 81.5617L171.409 81.8411C170.379 81.8853 169.555 82.7236 169.555 83.7531V102.74H181.314Z" fill="#B71398"/>
<path d="M171.16 95.2984H179.152V85.2091C179.152 84.5325 178.622 83.9589 177.945 83.9148L173.603 83.6501C172.279 83.5765 171.16 84.9296 171.16 86.6504V95.2984Z" fill="#E527BB"/>
<path d="M200.479 95.7838H190.221C189.382 95.7838 188.69 95.1072 188.675 94.2689L188.352 80.0027C193.503 80.6645 201.068 84.9003 200.479 95.7838Z" fill="#B71398"/>
<path d="M154.102 178.91H180.932V173.851H154.102V178.91Z" fill="#B71398"/>
<path d="M215.373 97.2104H214.578V125.081H215.373V97.2104Z" fill="#E527BB"/>
<path d="M220.01 125.081H219.215L219.303 96.9309H220.098L220.01 125.081Z" fill="#E527BB"/>
<path d="M214.887 129.567L213.916 124.257C213.71 123.154 214.563 122.125 215.696 122.125H218.11C219.332 122.125 220.303 123.169 220.215 124.39L219.788 129.846C219.729 130.567 219.361 131.229 218.787 131.655C217.904 132.317 216.668 133.714 216.388 136.317C216.197 138.185 216.977 139.906 218.655 140.803C219.567 141.289 220.804 141.656 221.834 141.406C222.408 141.259 224.468 140.48 224.615 139.891C226.691 135.17 229.046 139.641 225.852 142.362C224.822 143.289 223.158 143.995 221.834 144.215C214.931 145.333 208.234 137.979 214.136 132.038C214.784 131.405 215.064 130.479 214.887 129.567Z" fill="#E527BB"/>
<path d="M217.243 125.728C218.812 125.728 220.083 124.457 220.083 122.89C220.083 121.322 218.812 120.051 217.243 120.051C215.674 120.051 214.402 121.322 214.402 122.89C214.402 124.457 215.674 125.728 217.243 125.728Z" fill="#A78BEF"/>
<path d="M217.243 124.596C218.178 124.596 218.936 123.838 218.936 122.904C218.936 121.97 218.178 121.213 217.243 121.213C216.309 121.213 215.551 121.97 215.551 122.904C215.551 123.838 216.309 124.596 217.243 124.596Z" fill="#E527BB"/>
<path d="M217.389 99.7401C219.08 99.7401 220.451 98.3705 220.451 96.681C220.451 94.9915 219.08 93.6218 217.389 93.6218C215.699 93.6218 214.328 94.9915 214.328 96.681C214.328 98.3705 215.699 99.7401 217.389 99.7401Z" fill="#A78BEF"/>
<path d="M217.388 98.5046C218.395 98.5046 219.213 97.6881 219.213 96.6809C219.213 95.6737 218.395 94.8572 217.388 94.8572C216.38 94.8572 215.562 95.6737 215.562 96.6809C215.562 97.6881 216.38 98.5046 217.388 98.5046Z" fill="#E527BB"/>
<path d="M268.756 310.645C268.756 260.449 211.577 253.301 209.914 253.051C208.251 253.301 150.719 260.449 150.719 310.645C154.133 313.704 151.808 315.205 151.808 315.205H208.634H210.488H267.314C267.299 315.19 265.342 313.704 268.756 310.645Z" fill="#A78BEF"/>
<path d="M148.141 314.616C148.141 314.616 146.507 329 205.718 329C269.785 329 270.874 314.616 270.874 314.616C270.874 314.616 192.383 307.086 148.141 314.616Z" fill="#7152DD"/>
<path d="M148.141 311.395C148.141 311.395 146.507 325.779 205.718 325.779C269.785 325.779 270.874 311.395 270.874 311.395C270.874 311.395 192.383 303.865 148.141 311.395Z" fill="#A78BEF"/>
<path d="M271.139 310.969C271.021 309.719 269.741 308.777 268.372 308.777C266.989 308.777 265.752 309.807 265.752 311.057V311.072C265.752 311.248 265.782 311.41 265.649 311.513C265.502 311.631 265.355 311.675 265.178 311.645C260.042 310.91 229.988 306.395 227.986 301.335C227.442 288.069 231.754 258.463 229.914 256.595C228.281 254.948 223.159 253.918 219.862 253.713C219.538 253.698 219.229 253.786 218.994 253.992C218.758 254.183 218.611 254.463 218.611 254.757C218.346 261.331 217.551 294.085 217.389 300.262C217.375 300.821 216.874 301.232 216.271 301.232H215.535C215.226 301.232 214.946 301.144 214.725 300.953C214.519 300.747 214.402 300.497 214.416 300.218L216.168 251.506C216.227 250.006 215.123 248.683 213.533 248.33C210.899 247.741 208.147 247.741 205.512 248.33H205.483C203.878 248.683 202.775 250.006 202.833 251.506L204.57 300.232C204.585 300.512 204.467 300.747 204.246 300.953C204.04 301.159 203.746 301.232 203.437 301.232H202.701C202.083 301.232 201.582 300.821 201.582 300.262C201.435 294.085 200.64 261.316 200.361 254.742C200.346 254.448 200.214 254.183 199.963 253.992C199.728 253.801 199.404 253.698 199.095 253.727C195.798 253.948 190.662 254.963 189.028 256.61C187.188 258.478 191.486 288.084 190.941 301.35C188.94 306.409 158.856 310.925 153.72 311.66C153.528 311.689 153.381 311.631 153.249 311.528C153.102 311.41 153.072 311.248 153.072 311.086V311.072C153.072 309.807 151.909 308.792 150.526 308.792C149.157 308.792 147.994 309.748 147.877 310.983L147.317 316.558C147.288 316.837 147.391 317.116 147.612 317.322C147.833 317.528 148.127 317.631 148.436 317.616L209.545 314.028L270.624 317.616C270.933 317.631 271.242 317.528 271.448 317.322C271.669 317.116 271.772 316.837 271.743 316.558L271.139 310.969Z" fill="#A78BEF"/>
<path d="M181.079 268.199C176.09 267.155 171.056 272.479 168.274 275.656C165.007 279.377 159.885 284.481 162.711 289.687C164.654 293.261 169.525 294.305 173.293 292.923C177.547 291.349 177.37 287.01 179.048 283.642C180.976 279.76 186.054 274.538 183.478 269.994C182.875 268.95 182.036 268.405 181.079 268.199Z" fill="#7152DD"/>
<g opacity="0.7">
<path d="M174.561 300.806C157.532 300.806 152.793 295.938 152.572 295.673C152.425 295.511 152.454 295.276 152.616 295.144C152.793 295.011 153.043 295.026 153.19 295.188C153.264 295.276 160.387 302.468 188.204 299.173C188.425 299.144 188.631 299.291 188.66 299.497C188.69 299.703 188.528 299.894 188.307 299.909C183.023 300.541 178.461 300.806 174.561 300.806Z" fill="white"/>
<path d="M244.427 300.806C240.527 300.806 235.979 300.556 230.681 299.923C230.46 299.894 230.298 299.703 230.328 299.512C230.357 299.306 230.563 299.159 230.784 299.188C258.719 302.497 265.724 295.276 265.798 295.202C265.945 295.041 266.195 295.026 266.372 295.158C266.548 295.291 266.563 295.526 266.416 295.688C266.195 295.923 261.456 300.806 244.427 300.806Z" fill="white"/>
</g>
<path opacity="0.2" d="M211.577 304.997C211.577 305.571 210.503 306.042 209.414 306.042C208.324 306.042 207.25 305.571 207.25 304.997V250.727C207.25 250.153 208.324 249.683 209.414 249.683C210.503 249.683 211.577 250.153 211.577 250.727V304.997Z" fill="white"/>
<path opacity="0.2" d="M224.924 257.698L224.305 257.522C223.658 257.33 222.951 257.419 222.392 257.757C221.833 258.081 221.48 258.625 221.45 259.198L218.816 304.468C218.757 305.35 219.522 306.13 220.552 306.233H220.597C221.126 306.292 221.656 306.145 222.068 305.85C222.48 305.556 222.731 305.13 222.775 304.674L226.41 259.595C226.469 258.742 225.851 257.963 224.924 257.698Z" fill="white"/>
<path opacity="0.2" d="M194.076 257.698L194.695 257.522C195.342 257.33 196.049 257.419 196.608 257.757C197.167 258.095 197.52 258.625 197.55 259.198L200.184 304.468C200.243 305.35 199.478 306.13 198.448 306.233H198.403C197.874 306.292 197.344 306.145 196.932 305.85C196.52 305.556 196.269 305.13 196.225 304.674L192.59 259.595C192.531 258.742 193.134 257.963 194.076 257.698Z" fill="white"/>
<path d="M259.984 315.881C259.837 315.528 259.381 315.263 258.821 315.219C247.724 314.396 208.133 312.013 158.754 315.234C158.18 315.278 157.709 315.543 157.577 315.896C157.445 316.263 157.665 316.646 158.136 316.852C163.773 319.337 178.859 324.279 209.531 324.147C240.13 324.014 254.274 319.22 259.469 316.808C259.911 316.616 260.131 316.234 259.984 315.881Z" fill="#A78BEF"/>
</g>
<path d="M442.126 280.758C440.771 279.433 439.024 277.831 436.955 278.403C435.008 278.942 434.266 281.064 433.916 282.836C433.469 285.118 433.12 287.419 432.756 289.716C432.392 292.036 432.047 294.357 431.712 296.678C431.523 297.989 431.338 299.299 431.154 300.61C431.061 301.266 430.969 301.921 430.882 302.577C430.794 303.222 430.683 303.863 430.649 304.514C430.639 304.723 430.964 304.752 431.008 304.553C431.26 303.46 431.362 302.319 431.523 301.212C431.683 300.096 431.848 298.979 432.008 297.862C432.333 295.644 432.668 293.43 433.003 291.211C433.338 288.992 433.683 286.778 434.037 284.564C434.338 282.686 434.479 280.355 436.145 279.112C437.057 278.433 438.222 278.423 439.257 278.821C440.354 279.239 441.228 280.025 442.082 280.802C442.111 280.826 442.15 280.787 442.126 280.758Z" fill="#1A2E35"/>
<path d="M440.277 279.404C440.277 279.404 437.51 278.408 436.145 280.428C434.781 282.448 436.412 287.579 449.001 290.473C449.001 290.473 448.671 284.977 445.972 279.093C443.272 273.209 438.466 275.437 440.277 279.404Z" fill="#3CAA18"/>
<path d="M448.278 289.633C448.103 289.279 447.86 288.944 447.647 288.614C447.438 288.288 447.224 287.968 447.011 287.643C446.85 287.4 446.685 287.162 446.52 286.924C446.53 286.866 446.535 286.803 446.545 286.745C446.559 286.638 446.574 286.526 446.588 286.419C446.617 286.181 446.651 285.948 446.69 285.71C446.724 285.477 446.763 285.239 446.807 285.006C446.85 284.769 446.875 284.487 446.972 284.264C446.986 284.225 446.923 284.21 446.918 284.254C446.904 284.395 446.846 284.535 446.807 284.671C446.778 284.778 446.749 284.885 446.724 284.992C446.661 285.23 446.603 285.472 446.549 285.71C446.501 285.934 446.457 286.157 446.418 286.38C446.399 286.487 446.384 286.594 446.37 286.706C446.146 286.385 445.918 286.07 445.68 285.759C445.01 284.88 444.306 284.031 443.573 283.205C443.578 283.195 443.583 283.191 443.583 283.181C443.646 281.86 443.617 280.55 443.908 279.248C443.918 279.214 443.865 279.195 443.855 279.229C443.578 280.448 443.306 281.729 443.384 282.992C443.122 282.7 442.855 282.409 442.588 282.118C441.976 281.457 441.35 280.812 440.714 280.176C440.689 280.151 440.646 280.185 440.67 280.215C441.733 281.355 442.738 282.545 443.719 283.759C442.957 283.734 442.18 283.788 441.418 283.846C440.563 283.909 439.714 284.021 438.869 284.137C438.835 284.142 438.845 284.2 438.879 284.191C439.723 284.065 440.573 283.997 441.423 283.963C442.243 283.929 443.059 283.967 443.879 283.963C444.408 284.618 444.933 285.283 445.452 285.948C445.413 285.948 445.375 285.948 445.336 285.948C445.141 285.943 444.947 285.943 444.758 285.943C444.374 285.948 443.991 285.977 443.612 286.011C442.831 286.079 442.054 286.186 441.287 286.361C441.253 286.371 441.262 286.419 441.296 286.414C442.068 286.327 442.845 286.254 443.622 286.225C443.991 286.21 444.365 286.21 444.734 286.21C444.928 286.21 445.117 286.21 445.311 286.21C445.428 286.21 445.53 286.225 445.627 286.181C445.967 286.623 446.307 287.06 446.642 287.502C446.909 287.851 447.171 288.206 447.433 288.565C447.695 288.929 447.938 289.332 448.229 289.672C448.254 289.692 448.292 289.662 448.278 289.633Z" fill="#1A2E35"/>
<path d="M441.481 282.263C441.039 282.19 440.583 282.2 440.136 282.2C439.685 282.2 439.238 282.215 438.786 282.229C438.748 282.229 438.748 282.288 438.791 282.288C439.248 282.254 439.704 282.249 440.16 282.254C440.602 282.258 441.044 282.302 441.481 282.292C441.491 282.288 441.495 282.268 441.481 282.263Z" fill="#1A2E35"/>
<path d="M445.433 283.278C445.487 282.846 445.54 282.414 445.632 281.992C445.642 281.953 445.584 281.938 445.579 281.982C445.516 282.404 445.433 282.827 445.37 283.249C445.341 283.463 445.312 283.671 445.283 283.885C445.259 284.079 445.215 284.288 445.229 284.487C445.234 284.526 445.293 284.526 445.302 284.492C445.356 284.303 445.351 284.089 445.365 283.895C445.385 283.691 445.409 283.482 445.433 283.278Z" fill="#1A2E35"/>
<path d="M444.602 278.515C444.49 278.933 444.383 279.355 444.306 279.782C444.267 279.996 444.233 280.215 444.204 280.433C444.175 280.642 444.136 280.86 444.16 281.069C444.16 281.084 444.189 281.088 444.194 281.069C444.257 280.875 444.267 280.666 444.296 280.462C444.325 280.253 444.354 280.045 444.393 279.836C444.471 279.399 444.548 278.962 444.66 278.53C444.665 278.501 444.611 278.481 444.602 278.515Z" fill="#1A2E35"/>
<path d="M428.206 304.048C428.138 303.256 428.061 302.465 427.978 301.673C427.813 300.105 427.619 298.542 427.41 296.979C427.201 295.42 427.002 293.857 426.75 292.308C426.633 291.594 426.517 290.866 426.269 290.187C426.056 289.599 425.706 289.07 425.094 288.861C423.614 288.351 422.613 289.886 422.016 290.973C421.997 291.007 422.045 291.031 422.065 291.002C422.424 290.488 423.414 289.041 424.536 289.109C425.293 289.152 425.895 289.691 426.26 291.575C427.163 296.275 427.978 305.805 428.075 306.427C428.124 306.757 428.357 306.742 428.362 306.388C428.367 305.606 428.274 304.824 428.206 304.048Z" fill="#1A2E35"/>
<path d="M422.415 290.386C422.415 290.386 423.711 285.812 420.847 288.099C416.084 291.905 415.914 300.183 415.914 300.183C415.914 300.183 424.381 295.265 425.435 292.022C427.008 287.186 422.415 290.386 422.415 290.386Z" fill="#3CAA18"/>
<path d="M424.016 292.629C423.351 292.765 422.676 292.852 422.006 292.949C421.69 292.993 421.37 293.041 421.054 293.085C420.84 293.114 420.622 293.134 420.408 293.163C421.04 292.294 421.676 291.43 422.282 290.541C422.307 290.507 422.253 290.473 422.224 290.497C421.719 291.007 421.258 291.561 420.811 292.129C420.685 291.774 420.559 291.42 420.437 291.065C420.292 290.658 420.136 290.25 420.035 289.827C420.025 289.793 419.971 289.808 419.981 289.842C420.098 290.26 420.18 290.687 420.292 291.109C420.399 291.517 420.525 291.915 420.666 292.308C420.355 292.711 420.059 293.124 419.768 293.542C419.622 293.129 419.442 292.731 419.311 292.308C419.301 292.274 419.243 292.289 419.258 292.323C419.408 292.789 419.491 293.27 419.632 293.736C419.437 294.017 419.243 294.304 419.059 294.59C418.719 295.119 418.394 295.658 418.078 296.197C418.029 296.226 417.995 296.265 418.005 296.323C417.471 297.251 416.961 298.188 416.461 299.135C416.442 299.169 416.495 299.193 416.51 299.164C417.015 298.227 417.573 297.319 418.156 296.421H418.16C418.224 296.387 418.36 296.382 418.437 296.367C418.534 296.348 418.631 296.323 418.729 296.304C418.947 296.255 419.165 296.202 419.384 296.144C419.811 296.037 420.238 295.935 420.675 295.862C420.709 295.857 420.695 295.799 420.661 295.809C420.146 295.906 419.632 295.964 419.117 296.022C418.874 296.052 418.627 296.081 418.384 296.12C418.374 296.12 418.36 296.124 418.35 296.124C418.656 295.663 418.962 295.202 419.277 294.75C419.583 294.304 419.899 293.862 420.219 293.425C420.51 293.386 420.802 293.309 421.093 293.25C421.423 293.187 421.748 293.124 422.074 293.061C422.729 292.93 423.38 292.784 424.04 292.677C424.069 292.677 424.054 292.624 424.016 292.629Z" fill="#1A2E35"/>
<path d="M418.928 293.08C418.889 292.959 418.85 292.838 418.811 292.716C418.729 292.464 418.67 292.211 418.617 291.949C418.612 291.915 418.554 291.93 418.564 291.964C418.617 292.221 418.68 292.478 418.738 292.736C418.797 292.988 418.86 293.255 418.957 293.498C418.981 293.556 419.073 293.532 419.054 293.469C419.02 293.338 418.971 293.211 418.928 293.08Z" fill="#1A2E35"/>
<path d="M424.888 291.57C424.5 291.629 424.111 291.658 423.723 291.692C423.329 291.726 422.946 291.779 422.558 291.837C422.538 291.842 422.538 291.871 422.558 291.871C422.946 291.842 423.334 291.813 423.723 291.765C424.111 291.716 424.495 291.658 424.888 291.629C424.927 291.624 424.922 291.566 424.888 291.57Z" fill="#1A2E35"/>
<path d="M434.44 298.26C434.289 294.896 434.075 291.536 433.736 288.181C433.566 286.511 433.376 284.841 433.143 283.181C432.915 281.554 432.633 279.923 432.177 278.34C431.832 277.127 431.376 275.913 430.565 274.927C429.769 273.956 428.589 273.349 427.312 273.505C425.841 273.689 424.652 274.616 423.627 275.621C422.477 276.753 421.423 277.986 420.355 279.2C420.083 279.505 419.816 279.816 419.554 280.122C419.53 280.151 419.573 280.19 419.593 280.161C420.637 278.962 421.719 277.801 422.851 276.69C423.899 275.66 424.977 274.539 426.429 274.112C427.099 273.912 427.827 273.859 428.507 274.063C429.055 274.228 429.531 274.553 429.924 274.961C430.74 275.811 431.201 276.961 431.527 278.073C432.43 281.166 432.755 284.409 433.09 287.608C433.43 290.857 433.663 294.109 433.823 297.367C433.988 300.644 434.114 303.926 434.43 307.194C434.469 307.597 434.522 308 434.571 308.403C434.605 308.674 435.027 308.674 435.003 308.393C434.745 305.023 434.59 301.644 434.44 298.26Z" fill="#1A2E35"/>
<path d="M423.443 275.995C423.443 275.995 425.366 272.437 423.094 271.296C420.822 270.155 413.224 278.641 411 291.046C411 291.046 423.278 285.613 427.444 280.2C431.619 274.791 426.89 273.597 423.443 275.995Z" fill="#3CAA18"/>
<path d="M425.247 278.889C423.868 278.894 422.49 278.782 421.111 278.797C421.368 278.501 421.625 278.204 421.888 277.908C422.247 277.5 422.66 277.107 422.965 276.656C422.985 276.627 422.941 276.588 422.917 276.607C422.533 276.908 422.208 277.301 421.873 277.656C421.528 278.025 421.184 278.394 420.839 278.763C420.31 279.336 419.795 279.913 419.28 280.496C419.28 280.438 419.28 280.384 419.28 280.331C419.28 280.088 419.28 279.845 419.28 279.607C419.285 279.141 419.29 278.67 419.295 278.204C419.305 277.258 419.3 276.301 419.368 275.354C419.373 275.316 419.314 275.321 419.31 275.354C419.242 276.306 419.145 277.253 419.101 278.204C419.077 278.67 419.067 279.141 419.062 279.607C419.057 279.85 419.057 280.093 419.057 280.331C419.057 280.462 419.052 280.603 419.062 280.739C418.979 280.831 418.897 280.918 418.819 281.011C417.717 282.268 416.673 283.569 415.654 284.895C415.654 284.822 415.644 284.749 415.634 284.676C415.62 284.53 415.6 284.385 415.586 284.239C415.552 283.924 415.508 283.608 415.46 283.292C415.416 282.996 415.367 282.7 415.319 282.404C415.261 282.074 415.183 281.734 415.159 281.399C415.154 281.36 415.095 281.365 415.105 281.409C415.178 281.739 415.188 282.084 415.222 282.419C415.251 282.72 415.28 283.025 415.304 283.331C415.333 283.637 415.358 283.938 415.392 284.244C415.406 284.39 415.421 284.535 415.435 284.681C415.445 284.754 415.45 284.827 415.464 284.899C415.479 284.997 415.494 285.006 415.523 285.074C415.348 285.302 415.173 285.531 414.998 285.759C414.304 286.681 413.62 287.613 412.935 288.541C412.916 288.57 412.954 288.609 412.974 288.58C413.62 287.735 414.29 286.905 414.964 286.084C415.469 286.104 415.984 286.07 416.489 286.06C417.023 286.05 417.552 286.05 418.086 286.045C418.125 286.045 418.12 285.987 418.086 285.987C417.552 285.997 417.023 286.006 416.489 286.006C416.003 286.006 415.508 285.982 415.023 286.011C415.615 285.288 416.217 284.574 416.819 283.856C417.037 283.593 417.261 283.336 417.479 283.074C417.678 283.118 417.892 283.093 418.096 283.093C418.339 283.093 418.581 283.093 418.824 283.093C419.276 283.093 419.732 283.084 420.184 283.074C421.121 283.059 422.058 283.03 422.995 283.025C423.033 283.025 423.029 282.967 422.995 282.967C422.058 282.957 421.116 282.914 420.179 282.889C419.727 282.88 419.271 282.865 418.814 282.856C418.572 282.851 418.329 282.851 418.086 282.846C417.95 282.846 417.805 282.836 417.669 282.841C418.183 282.229 418.698 281.617 419.217 281.006C419.232 280.996 419.242 280.986 419.247 280.972C419.751 280.379 420.251 279.787 420.761 279.195C420.829 279.112 420.902 279.035 420.97 278.952C422.402 278.996 423.83 278.904 425.257 278.933C425.286 278.947 425.286 278.889 425.247 278.889Z" fill="#1A2E35"/>
<path d="M424.548 281.326C424.436 281.326 424.325 281.326 424.213 281.331C424.179 281.331 424.179 281.38 424.213 281.384C424.325 281.384 424.436 281.384 424.548 281.389C424.587 281.384 424.582 281.326 424.548 281.326Z" fill="#1A2E35"/>
<path d="M423.801 281.331C423.36 281.326 422.918 281.317 422.476 281.302C422.253 281.297 422.034 281.287 421.811 281.283C421.612 281.278 421.388 281.244 421.194 281.287C421.175 281.292 421.175 281.321 421.194 281.326C421.384 281.385 421.612 281.365 421.811 281.37C422.029 281.375 422.253 281.375 422.471 281.38C422.913 281.385 423.355 281.385 423.797 281.385C423.84 281.389 423.835 281.331 423.801 281.331Z" fill="#1A2E35"/>
<path d="M419.942 285.477C419.044 285.351 418.136 285.225 417.228 285.234C417.213 285.234 417.218 285.254 417.228 285.254C418.131 285.341 419.034 285.39 419.927 285.535C419.961 285.535 419.976 285.482 419.942 285.477Z" fill="#1A2E35"/>
<path d="M416.253 281.525C416.244 281.447 416.234 281.365 416.224 281.287C416.2 281.108 416.171 280.933 416.146 280.753C416.093 280.418 416.035 280.078 415.972 279.743C415.967 279.714 415.913 279.719 415.918 279.753C415.962 280.098 415.996 280.447 416.03 280.797C416.045 280.967 416.059 281.137 416.074 281.311C416.088 281.467 416.074 281.656 416.142 281.797C416.166 281.85 416.248 281.826 416.263 281.778C416.282 281.695 416.263 281.612 416.253 281.525Z" fill="#1A2E35"/>
<path d="M434.318 271.427C433.876 270.611 433.318 269.529 432.221 269.597C431.313 269.655 430.905 270.577 430.716 271.34C430.118 273.704 430.075 276.195 429.958 278.617C429.711 283.734 429.492 288.856 429.458 293.983C429.448 295.406 429.453 296.824 429.468 298.246C429.482 299.693 429.478 301.149 429.57 302.596C429.58 302.732 429.783 302.727 429.783 302.591C429.793 301.353 429.749 300.11 429.745 298.872C429.74 297.663 429.749 296.455 429.769 295.246C429.808 292.799 429.876 290.347 429.963 287.9C430.055 285.468 430.162 283.035 430.264 280.603C430.318 279.389 430.366 278.171 430.419 276.957C430.473 275.777 430.521 274.602 430.657 273.427C430.735 272.772 430.832 272.116 430.968 271.471C431.065 271.009 431.206 270.514 431.536 270.16C431.968 269.694 432.624 269.728 433.138 270.043C433.672 270.373 433.993 270.917 434.274 271.461C434.289 271.49 434.337 271.461 434.318 271.427Z" fill="#1A2E35"/>
<path d="M434.023 271.038C434.023 271.038 433.12 267.853 435.115 269.446C438.436 272.097 438.553 277.865 438.553 277.865C438.553 277.865 432.654 274.437 431.921 272.179C430.823 268.805 434.023 271.038 434.023 271.038Z" fill="#3CAA18"/>
<path d="M437.31 275.495C437.257 275.408 437.198 275.32 437.145 275.233C437.159 275.146 437.145 275.048 437.145 274.961C437.145 274.825 437.145 274.689 437.145 274.548C437.15 274.281 437.159 274.009 437.174 273.742C437.174 273.704 437.121 273.708 437.116 273.742C437.101 274.005 437.091 274.272 437.082 274.534C437.077 274.665 437.072 274.796 437.067 274.932C437.067 274.985 437.057 275.044 437.057 275.102C436.824 274.743 436.587 274.388 436.344 274.039C436.271 273.937 436.198 273.84 436.125 273.738C436.072 273.398 436.101 273.038 436.106 272.699C436.111 272.33 436.116 271.961 436.13 271.587C436.13 271.548 436.077 271.553 436.072 271.587C436.062 271.97 436.043 272.354 436.023 272.742C436.009 273.014 435.985 273.291 435.999 273.568C435.431 272.791 434.824 272.048 434.212 271.305C434.193 271.281 434.149 271.315 434.169 271.339C434.547 271.82 434.912 272.31 435.266 272.81C434.572 272.65 433.868 272.553 433.159 272.451C433.125 272.446 433.11 272.5 433.144 272.504C433.892 272.616 434.625 272.805 435.363 272.966C435.368 272.966 435.373 272.961 435.378 272.961C435.659 273.359 435.941 273.757 436.218 274.16C436.329 274.325 436.441 274.49 436.553 274.655C436.543 274.655 436.533 274.65 436.519 274.65C436.441 274.641 436.368 274.626 436.29 274.621C436.125 274.602 435.965 274.587 435.8 274.578C435.46 274.548 435.12 274.534 434.78 274.514C434.746 274.514 434.746 274.573 434.78 274.573C435.115 274.582 435.45 274.607 435.781 274.641C435.955 274.66 436.13 274.684 436.31 274.704C436.387 274.713 436.465 274.723 436.538 274.733C436.562 274.738 436.582 274.738 436.606 274.743C436.795 275.019 436.985 275.301 437.174 275.578C437.509 276.068 437.805 276.597 438.16 277.073C438.179 277.102 438.218 277.078 438.203 277.044C437.961 276.51 437.621 276 437.31 275.495Z" fill="#1A2E35"/>
<path d="M435.84 271.898C435.84 271.772 435.845 271.65 435.84 271.524C435.84 271.267 435.836 271 435.869 270.742C435.874 270.704 435.811 270.694 435.811 270.738C435.811 270.995 435.782 271.252 435.772 271.509C435.768 271.641 435.768 271.767 435.768 271.898C435.768 271.956 435.768 272.019 435.768 272.077C435.768 272.136 435.758 272.204 435.782 272.262C435.792 272.286 435.826 272.286 435.831 272.262C435.85 272.209 435.84 272.145 435.84 272.092C435.845 272.029 435.84 271.966 435.84 271.898Z" fill="#1A2E35"/>
<path d="M435.111 273.218C434.892 273.179 434.669 273.17 434.445 273.15C434.203 273.131 433.96 273.107 433.717 273.077C433.678 273.073 433.669 273.131 433.712 273.136C434.178 273.165 434.64 273.247 435.106 273.267C435.13 273.262 435.135 273.223 435.111 273.218Z" fill="#1A2E35"/>
<path d="M436.965 273.238C436.984 273.262 436.969 273.33 436.969 273.359V273.461C436.969 273.534 436.969 273.612 436.969 273.684C436.969 273.757 436.969 273.835 436.969 273.908C436.969 273.966 436.955 274.049 436.979 274.102C436.984 274.112 436.999 274.112 437.003 274.102C437.018 274.073 437.013 274.044 437.013 274.01C437.013 273.976 437.013 273.942 437.013 273.908C437.013 273.835 437.013 273.757 437.013 273.684C437.013 273.612 437.013 273.534 437.013 273.461V273.359C437.013 273.33 437.003 273.262 437.018 273.238C437.052 273.184 436.926 273.184 436.965 273.238Z" fill="#1A2E35"/>
<path d="M434.455 288.419C433.212 287.487 432.1 286.147 430.43 286.084C429.051 286.031 428.085 287.065 427.536 288.22C427.245 288.827 427.046 289.478 426.861 290.123C426.614 290.997 426.376 291.871 426.157 292.75C425.725 294.478 425.351 296.226 425.05 297.984C424.881 298.964 424.725 299.945 424.604 300.936C424.478 301.931 424.317 302.95 424.312 303.955C424.312 304.13 424.584 304.164 424.618 303.989C424.788 303.164 424.856 302.314 424.978 301.479C425.099 300.639 425.225 299.804 425.371 298.969C425.652 297.299 425.983 295.634 426.361 293.978C426.716 292.42 427.065 290.832 427.57 289.313C427.929 288.225 428.512 286.953 429.687 286.56C431.479 285.963 433.105 287.477 434.416 288.463C434.445 288.482 434.484 288.439 434.455 288.419Z" fill="#1A2E35"/>
<path d="M433.168 287.526C433.168 287.526 432.023 284.259 433.678 283.618C436.159 282.657 442.645 289.968 441.373 301.164C441.373 301.164 436.358 298.401 432.659 295.294C428.959 292.187 428.007 288.128 429.639 287.079C431.275 286.036 433.168 287.526 433.168 287.526Z" fill="#3CAA18"/>
<path d="M440.626 298.766C440.481 298.372 440.228 298.003 440.024 297.634C439.811 297.251 439.597 296.867 439.379 296.493C438.947 295.755 438.519 295.017 438.077 294.289C438.005 294.173 437.932 294.056 437.859 293.935C437.869 293.891 437.878 293.847 437.888 293.804C437.912 293.697 437.937 293.59 437.961 293.478C438.014 293.236 438.058 292.988 438.102 292.745C438.189 292.265 438.277 291.779 438.403 291.308C438.412 291.274 438.354 291.265 438.344 291.299C438.243 291.779 438.092 292.25 437.951 292.716C437.883 292.949 437.806 293.177 437.747 293.41C437.728 293.488 437.704 293.571 437.684 293.648C437.15 292.774 436.611 291.905 436.024 291.066C436.072 290.954 436.067 290.832 436.082 290.706C436.101 290.541 436.121 290.381 436.14 290.216C436.184 289.847 436.228 289.478 436.281 289.114C436.388 288.39 436.495 287.677 436.674 286.968C436.684 286.934 436.626 286.924 436.616 286.958C436.436 287.662 436.242 288.366 436.111 289.085C436.043 289.434 435.985 289.789 435.936 290.138C435.912 290.313 435.893 290.493 435.878 290.672C435.873 290.726 435.864 290.779 435.859 290.832C435.679 290.58 435.499 290.323 435.31 290.075C434.737 289.323 434.145 288.585 433.548 287.851C433.523 287.822 433.48 287.856 433.499 287.885C434.553 289.172 435.441 290.595 436.32 292.003C436.485 292.265 436.645 292.532 436.805 292.794C436.752 292.789 436.699 292.779 436.645 292.774C436.436 292.75 436.223 292.736 436.014 292.716C435.592 292.677 435.169 292.639 434.747 292.605C433.902 292.537 433.057 292.483 432.213 292.396C432.179 292.391 432.164 292.449 432.203 292.454C433.057 292.551 433.907 292.687 434.757 292.808C435.174 292.867 435.592 292.925 436.014 292.978C436.305 293.017 436.665 293.1 436.98 293.075C437.31 293.614 437.645 294.153 437.976 294.692C437.903 294.683 437.825 294.687 437.752 294.682C437.611 294.682 437.471 294.682 437.33 294.682C437.068 294.682 436.805 294.682 436.543 294.682C436 294.682 435.456 294.692 434.912 294.692C434.873 294.692 434.883 294.75 434.917 294.75C435.47 294.755 436.019 294.784 436.568 294.814C436.83 294.828 437.092 294.843 437.349 294.862C437.48 294.872 437.611 294.882 437.742 294.891C437.859 294.896 437.98 294.92 438.087 294.877C438.369 295.338 438.655 295.794 438.932 296.251C439.189 296.673 439.451 297.095 439.723 297.513C439.995 297.935 440.243 298.416 440.573 298.79C440.592 298.824 440.641 298.804 440.626 298.766Z" fill="#1A2E35"/>
<path d="M438.236 289.716C438.197 290.075 438.1 290.429 438.013 290.779C437.921 291.143 437.814 291.502 437.697 291.857C437.683 291.905 437.751 291.93 437.765 291.876C437.877 291.522 437.974 291.167 438.061 290.808C438.149 290.449 438.202 290.08 438.295 289.721C438.299 289.691 438.241 289.682 438.236 289.716Z" fill="#1A2E35"/>
<path d="M434.561 291.905C434.483 291.828 434.396 291.818 434.289 291.803C434.134 291.779 433.973 291.76 433.818 291.74C433.527 291.701 433.231 291.667 432.935 291.633C432.323 291.561 431.711 291.502 431.099 291.425C431.065 291.42 431.051 291.478 431.09 291.483C431.667 291.551 432.24 291.638 432.813 291.716C433.095 291.755 433.376 291.794 433.658 291.828C433.794 291.842 433.93 291.857 434.066 291.871C434.216 291.886 434.391 291.886 434.532 291.949C434.561 291.959 434.58 291.925 434.561 291.905Z" fill="#1A2E35"/>
<path d="M438.228 296.828C437.941 296.804 437.65 296.794 437.359 296.784C437.213 296.78 437.067 296.775 436.922 296.77C436.854 296.77 436.781 296.765 436.713 296.765C436.626 296.76 436.524 296.77 436.441 296.75C436.402 296.741 436.397 296.814 436.441 296.809C436.524 296.794 436.616 296.814 436.698 296.818C436.776 296.823 436.849 296.828 436.927 296.833C437.072 296.843 437.218 296.852 437.364 296.857C437.65 296.877 437.941 296.891 438.233 296.891C438.262 296.891 438.267 296.833 438.228 296.828Z" fill="#1A2E35"/>
<path d="M439.995 295.576C440.029 295.411 440.058 295.246 440.087 295.085C440.145 294.765 440.203 294.44 440.267 294.119C440.271 294.085 440.218 294.076 440.208 294.11C440.136 294.425 440.068 294.741 439.995 295.051C439.961 295.207 439.922 295.367 439.893 295.522C439.878 295.595 439.864 295.668 439.849 295.741C439.835 295.819 439.81 295.896 439.825 295.974C439.83 295.998 439.869 296.022 439.888 295.993C439.966 295.877 439.97 295.712 439.995 295.576Z" fill="#1A2E35"/>
<path d="M437.009 305.228L436.728 309.854L435.907 323.516H423.391L422.566 309.854L422.289 305.228H437.009Z" fill="#E31E23"/>
<path d="M437.009 305.228L436.728 309.854H422.566L422.289 305.228H437.009Z" fill="#1A2E35"/>
<path d="M438.299 301.95H420.996V306.582H438.299V301.95Z" fill="#E31E23"/>
</g>
<defs>
<linearGradient id="paint0_linear_1224_5470" x1="361.856" y1="206.33" x2="342.377" y2="206.33" gradientUnits="userSpaceOnUse">
<stop stop-color="#FEBBBA"/>
<stop offset="1" stop-color="#FF928E"/>
</linearGradient>
<linearGradient id="paint1_linear_1224_5470" x1="377.992" y1="179.089" x2="364.553" y2="179.089" gradientUnits="userSpaceOnUse">
<stop stop-color="#FEBBBA"/>
<stop offset="1" stop-color="#FF928E"/>
</linearGradient>
<linearGradient id="paint2_linear_1224_5470" x1="361.358" y1="170.547" x2="376.128" y2="161.532" gradientUnits="userSpaceOnUse">
<stop stop-color="#FEBBBA"/>
<stop offset="1" stop-color="#FF928E"/>
</linearGradient>
<linearGradient id="paint3_linear_1224_5470" x1="365.237" y1="173.905" x2="378.526" y2="165.794" gradientUnits="userSpaceOnUse">
<stop stop-color="#FEBBBA"/>
<stop offset="1" stop-color="#FF928E"/>
</linearGradient>
<linearGradient id="paint4_linear_1224_5470" x1="404.089" y1="215.401" x2="370.1" y2="215.401" gradientUnits="userSpaceOnUse">
<stop stop-color="#FEBBBA"/>
<stop offset="1" stop-color="#FF928E"/>
</linearGradient>
<linearGradient id="paint5_linear_1224_5470" x1="373.789" y1="212.177" x2="360.908" y2="212.177" gradientUnits="userSpaceOnUse">
<stop stop-color="#FEBBBA"/>
<stop offset="1" stop-color="#FF928E"/>
</linearGradient>
<linearGradient id="paint6_linear_1224_5470" x1="341.969" y1="204.992" x2="352.878" y2="198.147" gradientUnits="userSpaceOnUse">
<stop stop-color="#FEBBBA"/>
<stop offset="1" stop-color="#FF928E"/>
</linearGradient>
<linearGradient id="paint7_linear_1224_5470" x1="240.987" y1="416.684" x2="180.431" y2="17.1091" gradientUnits="userSpaceOnUse">
<stop stop-color="#FF928E"/>
<stop offset="1" stop-color="#FE7062"/>
</linearGradient>
<linearGradient id="paint8_linear_1224_5470" x1="230.807" y1="418.226" x2="170.251" y2="18.6519" gradientUnits="userSpaceOnUse">
<stop stop-color="#FF928E"/>
<stop offset="1" stop-color="#FE7062"/>
</linearGradient>
<clipPath id="clip0_1224_5470">
<rect width="542.64" height="328.79" fill="white"/>
</clipPath>
<clipPath id="clip1_1224_5470">
<rect width="270" height="275" fill="white" transform="translate(136 54)"/>
</clipPath>
</defs>
</svg>
