<svg width="533" height="331" viewBox="0 0 533 331" fill="none" xmlns="http://www.w3.org/2000/svg">
<path opacity="0.2" fill-rule="evenodd" clip-rule="evenodd" d="M0 7.5756C0 7.5756 496.166 -10.2363 522.25 8.76437C545.499 25.7019 520.61 239.759 514.929 286.131C514.801 287.134 513.992 287.91 512.938 288.028C382.355 302.136 78.1811 295.779 13.6451 294.227C12.5792 294.197 11.7008 293.49 11.49 292.498C2.02627 247.216 0 7.5756 0 7.5756Z" fill="#999999"/>
<g clip-path="url(#clip0_2439_5920)">
<path d="M326.619 210.544L311.41 212.604C311.41 212.604 293.826 264.428 278.328 321.326H406.136C406.136 321.326 395.253 250.622 386.85 209.273L367.719 207.531L326.619 210.544Z" fill="#A78BEF"/>
<path d="M336.844 143.143C348.688 140.245 361.032 127.614 380.107 144.606C399.181 161.598 391.105 192.05 391.105 192.05L402.805 201.831L373.261 216.34L360.581 162.426L336.844 143.143Z" fill="black"/>
<path d="M338.399 147.023C339.793 142.796 320.181 135.556 304.318 141.294C278.975 150.46 269.727 160.665 269.727 160.665L281.292 182.23L309.374 167.125C309.374 167.125 324.718 170.09 326.045 166.72C327.372 163.351 313.412 158.575 314.037 156.737C314.566 155.196 316.047 153.242 319.709 151.268C328.093 146.743 337.582 149.535 338.399 147.023Z" fill="#E59C95"/>
<path d="M304.894 172.111L290.146 144.654C290.146 144.654 242.807 173.873 226.838 195.554C210.869 217.235 299.962 248.649 299.962 248.649L311.402 212.604L280.445 197.913L304.894 172.111Z" fill="#A78BEF"/>
<path d="M286.786 164.573L286.834 165.103C286.882 165.632 286.498 166.104 285.969 166.152L277.038 166.99C276.509 167.038 276.038 166.653 275.99 166.123L275.942 165.594C275.893 165.064 276.278 164.592 276.807 164.544L285.738 163.707C286.267 163.659 286.738 164.044 286.786 164.573Z" fill="#876BE8"/>
<path d="M277.162 210.168L276.778 210.544C276.403 210.919 275.788 210.91 275.422 210.534L270.433 205.47C270.058 205.095 270.067 204.479 270.442 204.113L270.827 203.737C271.202 203.362 271.817 203.371 272.182 203.747L277.172 208.811C277.547 209.186 277.537 209.793 277.162 210.168Z" fill="#876BE8"/>
<path d="M257.909 187.39L257.381 187.313C256.852 187.236 256.496 186.745 256.573 186.215L257.64 179.178C257.717 178.648 258.207 178.292 258.736 178.369L259.265 178.446C259.794 178.523 260.149 179.014 260.072 179.544L259.005 186.581C258.928 187.111 258.438 187.467 257.909 187.39Z" fill="#876BE8"/>
<path d="M235.776 214.308L235.535 213.836C235.295 213.365 235.478 212.787 235.949 212.537L243.928 208.426C244.399 208.185 244.976 208.368 245.226 208.84L245.467 209.311C245.707 209.783 245.524 210.361 245.053 210.611L237.074 214.722C236.593 214.963 236.016 214.78 235.776 214.308Z" fill="#876BE8"/>
<path d="M282.982 234.323L282.511 234.073C282.04 233.823 281.858 233.245 282.098 232.773L286.242 224.802C286.482 224.33 287.068 224.147 287.539 224.388L288.01 224.638C288.482 224.879 288.664 225.466 288.424 225.938L284.28 233.909C284.04 234.381 283.453 234.564 282.982 234.323Z" fill="#876BE8"/>
<path d="M319.919 186.812C322.111 186.88 324.957 198.182 315.131 197.903C303.643 197.566 310.661 182.788 313.141 182.076C315.622 181.363 310.324 192.772 315.574 192.926C320.438 193.07 318.304 186.774 319.919 186.812Z" fill="#E527BB"/>
<path d="M359.306 207.887L358.643 177.888L334.512 190.74L334.377 208.801L326.609 210.544C333.051 221.269 347.462 223.839 357.191 215.993L367.699 207.531L359.306 207.887Z" fill="#E59C95"/>
<path d="M354.282 192.05C354.282 192.05 346.504 209.918 334.391 207.656L334.525 202.582L354.282 192.05Z" fill="#E8908B"/>
<path d="M309.909 175.356C309.505 190.249 321.243 202.649 336.116 203.044C350.989 203.448 363.372 191.693 363.766 176.8C364.17 161.906 352.431 149.506 337.558 149.112C322.685 148.707 310.312 160.462 309.909 175.356Z" fill="#E59C95"/>
<path d="M382.455 208.512C382.455 208.512 401.645 253.751 362.372 253.751C323.099 253.751 360.391 186.379 360.391 186.379C360.391 186.379 365.006 177.907 362.929 172.015C362.929 172.015 336.818 161.406 330.963 152.058C330.963 152.058 320.272 163.457 313.033 163.428C313.033 163.428 312.446 143.143 334.366 143.143C350.912 143.143 359.891 150.363 362.352 159.355L382.455 208.512Z" fill="black"/>
<path d="M359.609 174.759C359.609 174.759 366.925 167.028 373.184 170.436C379.442 173.854 378.125 189.219 365.963 186.812C359.445 185.522 358.695 182.182 358.695 182.182L359.609 174.759Z" fill="#E59C95"/>
<path d="M363.369 178.716C363.205 178.716 363.051 178.619 362.994 178.456C362.917 178.254 363.023 178.023 363.234 177.946L370.925 175.144C371.127 175.067 371.358 175.173 371.435 175.385C371.512 175.587 371.406 175.818 371.195 175.895L363.494 178.696C363.465 178.706 363.417 178.716 363.369 178.716Z" fill="#7E322C"/>
<path d="M371.747 186.812C373.939 186.88 376.785 198.182 366.96 197.903C355.471 197.566 362.489 182.788 364.969 182.076C367.45 181.363 362.153 192.772 367.402 192.926C372.276 193.07 370.142 186.774 371.747 186.812Z" fill="#E527BB"/>
<path d="M342.484 147.408C341.09 143.181 360.703 135.932 376.566 141.68C401.908 150.845 411.157 161.05 411.157 161.05L399.601 182.615L371.519 167.51C371.519 167.51 356.175 170.475 354.848 167.105C353.521 163.736 367.481 158.961 366.856 157.122C366.327 155.581 364.846 153.627 361.184 151.654C352.791 147.129 343.311 149.921 342.484 147.408Z" fill="#E59C95"/>
<path d="M375.992 172.497L390.74 145.04C390.74 145.04 455.461 170.552 471.43 192.223C487.399 213.894 391.98 248.649 391.98 248.649L385.77 210.14L412.842 196.941L375.992 172.497Z" fill="#A78BEF"/>
<path d="M428.693 200.657L428.164 200.715C427.635 200.772 427.164 200.387 427.107 199.858L426.193 190.924C426.136 190.394 426.52 189.922 427.049 189.865L427.578 189.807C428.106 189.749 428.577 190.134 428.635 190.664L429.548 199.598C429.606 200.127 429.222 200.599 428.693 200.657Z" fill="#876BE8"/>
<path d="M411.58 211.17L411.59 211.699C411.599 212.229 411.186 212.672 410.657 212.691L401.688 212.922C401.159 212.932 400.717 212.518 400.697 211.988L400.688 211.459C400.678 210.929 401.091 210.486 401.62 210.467L410.59 210.236C411.119 210.217 411.561 210.631 411.58 211.17Z" fill="#876BE8"/>
<path d="M408.641 166.393L408.487 166.903C408.334 167.414 407.805 167.702 407.295 167.558L398.691 165.007C398.181 164.853 397.893 164.323 398.037 163.813L398.191 163.303C398.345 162.792 398.874 162.504 399.383 162.648L407.988 165.19C408.497 165.353 408.795 165.883 408.641 166.393Z" fill="#876BE8"/>
<path d="M462.855 192.993L462.961 193.513C463.067 194.033 462.74 194.543 462.211 194.649L453.424 196.478C452.905 196.584 452.395 196.257 452.29 195.727L452.184 195.208C452.078 194.688 452.405 194.177 452.934 194.072L461.721 192.242C462.24 192.136 462.75 192.473 462.855 192.993Z" fill="#876BE8"/>
<path d="M400.97 238.617L400.585 238.993C400.21 239.368 399.595 239.359 399.23 238.983L392.933 232.591C392.558 232.215 392.567 231.599 392.942 231.233L393.327 230.858C393.702 230.482 394.317 230.492 394.682 230.867L400.98 237.26C401.355 237.635 401.355 238.242 400.97 238.617Z" fill="#876BE8"/>
<path d="M429.193 219.969L429.279 219.44C429.366 218.91 429.856 218.554 430.375 218.641L439.239 220.027C439.768 220.114 440.124 220.605 440.037 221.125L439.951 221.654C439.864 222.184 439.374 222.54 438.855 222.453L429.991 221.067C429.462 220.99 429.106 220.499 429.193 219.969Z" fill="#876BE8"/>
<path d="M360.506 259.634L360.39 259.114C360.275 258.594 360.602 258.084 361.121 257.968L369.879 256.023C370.398 255.908 370.908 256.235 371.023 256.755L371.139 257.275C371.254 257.795 370.927 258.305 370.408 258.421L361.65 260.365C361.14 260.481 360.621 260.154 360.506 259.634Z" fill="#876BE8"/>
<path d="M381.896 315.347L381.781 314.827C381.666 314.307 381.992 313.797 382.512 313.682L391.27 311.737C391.789 311.621 392.299 311.949 392.414 312.469L392.529 312.988C392.645 313.508 392.318 314.018 391.799 314.134L383.04 316.079C382.521 316.194 382.012 315.867 381.896 315.347Z" fill="#876BE8"/>
<path d="M339.083 262.647L338.555 262.705C338.026 262.763 337.555 262.377 337.497 261.848L336.584 252.914C336.526 252.384 336.911 251.913 337.439 251.855L337.968 251.797C338.497 251.739 338.968 252.124 339.026 252.654L339.939 261.588C339.997 262.118 339.612 262.599 339.083 262.647Z" fill="#876BE8"/>
<path d="M318.831 229.644L318.331 229.827C317.831 230.01 317.283 229.75 317.1 229.25L314.043 220.807C313.86 220.306 314.12 219.757 314.62 219.574L315.12 219.391C315.62 219.208 316.168 219.468 316.35 219.969L319.407 228.412C319.581 228.913 319.331 229.471 318.831 229.644Z" fill="#876BE8"/>
<path d="M307.481 288.41L306.942 288.4C306.414 288.391 305.991 287.948 306 287.418L306.173 278.436C306.183 277.906 306.625 277.483 307.154 277.492L307.692 277.502C308.221 277.512 308.644 277.954 308.634 278.484L308.461 287.466C308.452 287.996 308.019 288.419 307.481 288.41Z" fill="#876BE8"/>
<path d="M307.541 318.139L307.108 318.457C306.685 318.774 306.079 318.678 305.762 318.254L300.446 311.024C300.128 310.601 300.225 309.994 300.648 309.676L301.08 309.359C301.503 309.041 302.109 309.137 302.426 309.561L307.743 316.791C308.06 317.224 307.973 317.831 307.541 318.139Z" fill="#FDA90C"/>
<path d="M317.752 306.471L317.426 306.047C317.099 305.633 317.166 305.026 317.579 304.699L324.617 299.125C325.03 298.798 325.636 298.865 325.963 299.279L326.29 299.703C326.617 300.116 326.549 300.723 326.136 301.05L319.098 306.625C318.685 306.952 318.079 306.885 317.752 306.471Z" fill="#876BE8"/>
<path d="M310.111 255.398L309.726 255.773C309.351 256.148 308.736 256.139 308.37 255.763L302.073 249.371C301.698 248.995 301.708 248.379 302.083 248.013L302.467 247.638C302.842 247.262 303.458 247.272 303.823 247.648L310.12 254.04C310.486 254.416 310.486 255.022 310.111 255.398Z" fill="#876BE8"/>
<path d="M383.05 297.392L382.53 297.498C382.011 297.604 381.502 297.267 381.396 296.747L379.637 287.938C379.531 287.418 379.867 286.908 380.387 286.802L380.906 286.696C381.425 286.59 381.934 286.927 382.04 287.447L383.799 296.256C383.905 296.776 383.569 297.286 383.05 297.392Z" fill="#876BE8"/>
<path d="M329.791 283.558L329.819 283.028C329.848 282.498 330.31 282.094 330.838 282.133L339.789 282.701C340.318 282.73 340.722 283.192 340.683 283.721L340.654 284.251C340.625 284.78 340.164 285.185 339.635 285.146L330.685 284.578C330.165 284.54 329.762 284.087 329.791 283.558Z" fill="#876BE8"/>
<path d="M288.88 295.9L288.726 295.765C288.38 295.457 288.245 294.966 288.399 294.533L290.235 289.344C290.447 288.756 291.091 288.448 291.677 288.65L291.86 288.718C292.446 288.93 292.754 289.575 292.552 290.162L290.697 295.428C290.428 296.179 289.485 296.429 288.88 295.9Z" fill="#876BE8"/>
<path d="M361.107 314.798L360.636 314.548C360.165 314.307 359.983 313.72 360.223 313.248L364.367 305.277C364.607 304.805 365.193 304.622 365.664 304.863L366.136 305.113C366.607 305.354 366.789 305.941 366.549 306.413L362.405 314.384C362.155 314.866 361.578 315.049 361.107 314.798Z" fill="#FDA90C"/>
<path d="M427.784 62.8991C422.861 45.1077 380.214 23.8795 362.409 28.6931C348.353 32.4959 334.317 54.1478 339.739 72.1413C342.229 80.4112 351.382 89.432 362.909 96.2289L359.678 103.575L352.891 98.241L343.267 126.921L358.582 109.255L366.216 115.262L373.301 101.437C383.963 105.924 395.452 108.176 405.114 106.338C417.141 104.066 432.552 80.132 427.784 62.8991Z" fill="#E527BB"/>
<path d="M367.858 55.4379C362.34 63.6596 362.907 76.0115 370.435 82.8662C374.05 86.1587 378.914 87.3718 383.577 85.7736C388.384 84.1274 392.22 80.3246 394.989 76.1752C397.94 71.7466 399.94 66.336 399.229 60.9544C398.642 56.5258 396.066 52.1838 392.114 49.9792C390.009 48.8143 387.499 48.2655 385.115 48.7373C382.914 49.1801 381.116 50.6338 380.058 52.5882C377.866 56.6509 378.376 61.8401 379.087 66.2205C379.53 68.9739 380.27 71.6792 381.472 74.1919C382.51 76.3773 383.962 78.5146 386.077 79.7854C388.009 80.9503 390.316 81.0659 392.335 80.0454C394.373 79.0056 395.873 77.0224 396.825 74.9814C399.065 70.1485 398.988 64.1506 397.075 59.2311C396.219 57.0264 394.864 54.841 392.768 53.6183C390.836 52.4919 388.538 52.6556 386.827 54.1189C385.029 55.6593 384.221 58.1239 383.712 60.3575C383.067 63.1686 382.866 66.0857 383.106 68.9547C383.337 71.66 383.894 74.4326 384.99 76.9261C385.913 79.0345 387.5 80.9311 389.884 81.3065C392.249 81.682 394.479 80.469 396.267 79.0249C398.306 77.3786 399.959 75.2221 401.363 73.0174C402.805 70.7454 403.997 68.0882 403.795 65.3348C403.632 63.1494 402.584 61.1662 400.911 59.7509C397.383 56.7761 392.48 56.6413 388.48 58.7208C383.952 61.0795 380.799 65.6236 378.924 70.264C377.895 72.8056 377.261 75.5013 377.011 78.2354C376.886 79.6121 376.857 81.0081 376.943 82.3944C377.02 83.4727 377.241 84.6569 378.251 85.2441C380.337 86.4572 382.721 84.1081 384.048 82.7603C385.836 80.9503 387.365 78.8516 388.538 76.5988C389.701 74.3652 390.537 71.968 390.999 69.4938C391.249 68.1171 391.422 66.6922 391.153 65.3059C390.903 64.0351 390.23 62.8991 389.432 61.8978C386.663 58.4224 382.51 56.0444 378.251 54.8891C369.675 52.5689 359.042 55.0143 353.947 62.7835C351.466 66.5671 351.12 71.8814 354.485 75.2895C358.571 79.4292 364.734 76.618 369.175 74.6733C379.366 70.2159 388.769 63.9581 396.825 56.2947C397.7 55.4668 398.652 54.4848 398.873 53.2525C399.075 52.1261 398.527 51.1633 397.585 50.5665C396.508 49.8829 395.171 49.4882 393.97 49.0742C392.576 48.5928 391.162 48.1789 389.72 47.8419C384.202 46.5422 378.462 46.2919 372.857 47.091C367.685 47.8323 362.311 49.3919 358.225 52.7807C354.533 55.8422 352.226 60.7425 353.207 65.5755C354.197 70.4373 358.735 73.3929 363.407 73.9898C366.397 74.3749 369.425 73.8839 372.309 73.0848C375.126 72.305 377.886 71.2652 380.558 70.0714C383.241 68.8873 385.856 67.5298 388.336 65.9606C390.307 64.7186 392.22 63.236 393.518 61.2721C394.845 59.2696 395.219 56.8435 394.489 54.5425C393.7 52.0587 391.999 49.9696 390.355 48.0056C387.221 44.2509 383.471 40.4096 378.635 38.9944C373.877 37.5984 368.983 39.2736 365.493 42.6624C361.638 46.3978 359.965 51.7121 359.379 56.9205C358.783 62.1578 359.09 67.5587 360.369 72.6805C361.609 77.6578 363.84 82.4041 367.147 86.3416C370.233 90.0193 374.338 92.8305 378.857 94.4382C383.308 96.0171 388.24 96.3733 392.797 95.0448C397.671 93.6199 401.949 90.337 403.959 85.6003C406.054 80.6423 405.67 75.0391 404.045 70.0137C403.151 67.2699 401.92 64.6416 400.555 62.1C399.286 59.7413 397.921 57.4115 396.277 55.2935C393.201 51.3078 388.942 48.1307 383.76 47.8419C381.337 47.7071 378.857 48.2848 376.866 49.7096C375.011 51.0382 373.675 52.9252 372.771 54.995C371.81 57.1997 371.252 59.5488 370.877 61.9075C370.435 64.6801 370.146 67.4913 370.069 70.3025C369.925 75.8671 370.637 81.682 373.098 86.7267C374.136 88.8448 375.646 90.8472 377.886 91.7618C380.27 92.7342 382.866 92.2047 385.115 91.1361C387.519 90 389.586 88.2575 391.566 86.5053C393.595 84.705 395.518 82.7795 397.325 80.7578C400.949 76.7047 404.122 72.2472 406.747 67.4913C407.939 65.3252 409.794 62.5717 409.035 59.982C408.429 57.9506 406.41 56.8531 404.487 56.3717C402.286 55.823 399.901 55.9096 397.671 56.1696C395.344 56.4391 393.066 56.9783 390.874 57.787C386.365 59.4332 382.269 62.0711 378.683 65.2481C374.992 68.5118 371.819 72.3627 369.214 76.541C367.935 78.5916 366.157 81.1333 366.81 83.6845C367.339 85.7544 369.387 87.0348 371.406 87.3236C374.011 87.6895 376.492 86.3705 378.587 84.9553C380.847 83.4342 383.019 81.759 385.115 80.0261C389.403 76.4832 393.374 72.536 396.95 68.2711C398.7 66.182 400.411 64.0351 401.92 61.7727C403.305 59.6932 404.526 57.1034 403.622 54.5811C402.853 52.463 400.892 50.913 398.738 50.3739C396.085 49.7096 393.287 50.4991 390.951 51.7891C386.634 54.1863 383.519 58.3165 381.491 62.7354C379.828 66.3649 377.895 71.4193 379.981 75.2798C381.039 77.2342 383.173 78.1392 385.336 77.8407C388.009 77.4749 390.393 75.7805 392.566 74.2786C397.085 71.1497 401.257 67.3758 404.689 63.0724C406.218 61.1469 407.545 58.9134 407.189 56.3621C406.862 53.9938 405.276 51.9624 403.314 50.6724C401.036 49.1609 398.219 48.7084 395.537 48.5447C392.816 48.381 389.98 48.3137 387.317 48.9491C384.933 49.5171 382.75 50.7783 381.385 52.8674C380.164 54.7447 379.799 57.1419 380.875 59.1733C383.49 64.1121 390.076 63.2071 394.258 61.1854C398.171 59.2888 402.42 55.0528 400.776 50.2969C399.161 45.618 393.028 43.2112 388.442 43.8369C386 44.1643 383.798 45.3966 382.318 47.3894C380.962 49.209 380.366 51.6543 381.164 53.8301C381.895 55.8326 383.606 57.5559 385.731 58.018C388.221 58.5668 390.384 57.1323 392.239 55.6497C394.162 54.1093 396.315 52.3956 397.008 49.9118C397.642 47.5916 396.844 45.1655 394.575 44.1354C390.23 42.1522 384.798 43.8851 381.174 46.5711C377.03 49.6519 374.492 54.196 373.232 59.154C372.559 61.7919 372.233 64.5165 372.098 67.241C371.973 69.7537 371.954 72.2954 372.204 74.7985C372.617 78.9671 373.809 83.5786 377.222 86.3128C381.25 89.5379 386.49 88.71 390.787 86.5342C395.518 84.137 399.584 80.3438 403.363 76.6662C407.314 72.8152 410.938 68.637 414.217 64.1988C414.649 63.6115 413.669 63.0435 413.236 63.6308C410.169 67.7898 406.775 71.7081 403.103 75.3376C399.575 78.8323 395.787 82.3848 391.47 84.8783C387.557 87.1311 382.568 88.5944 378.501 85.8603C375.203 83.6364 373.925 79.4388 373.434 75.6842C373.155 73.5277 373.117 71.3519 373.155 69.1857C373.204 66.6826 373.386 64.1699 373.828 61.6957C374.684 57.0168 376.511 52.4342 379.962 49.0646C383.067 46.0416 387.403 44.0006 391.807 44.5494C392.893 44.6841 394.066 44.9633 394.931 45.6661C395.844 46.4171 396.162 47.5723 396.066 48.718C395.854 51.1633 393.825 52.8866 392.057 54.3307C390.326 55.746 388.23 57.4981 385.836 56.8724C383.837 56.3525 382.27 54.4752 381.971 52.4438C381.664 50.2873 382.798 48.15 384.394 46.7733C386.24 45.1751 388.74 44.6553 391.134 44.9248C395.248 45.3966 400.949 48.6121 399.873 53.5509C398.902 57.9891 393.777 60.7522 389.691 61.532C387.375 61.9749 384.808 61.686 382.991 60.0398C381.318 58.5186 380.933 56.2658 381.914 54.2345C384.202 49.4978 390.153 49.4497 394.671 49.623C397.2 49.7192 399.844 50.0177 402.103 51.2596C404.045 52.3186 405.718 54.2152 406.064 56.4584C406.439 58.8941 404.92 61.041 403.439 62.8124C401.815 64.7668 400.065 66.6056 398.2 68.3289C396.373 70.0137 394.431 71.5926 392.393 73.027C390.384 74.4423 388.211 76.0404 385.779 76.618C383.664 77.1187 381.577 76.3292 380.731 74.2593C380.029 72.5264 380.183 70.4854 380.568 68.7044C381.481 64.4972 383.635 60.2323 386.442 56.9783C389.336 53.6376 394.258 50.0755 398.911 51.6158C400.94 52.2897 402.728 54.0708 402.786 56.3043C402.853 58.8363 401.084 61.0699 399.661 63.005C396.71 67.0292 393.402 70.7935 389.826 74.2786C386.25 77.7541 382.404 80.9696 378.289 83.7904C376.357 85.119 374.05 86.5438 371.598 86.2357C369.521 85.9758 367.541 84.4354 367.801 82.1538C367.954 80.8348 368.675 79.6314 369.329 78.505C369.868 77.5808 370.444 76.6662 371.04 75.7708C372.281 73.9127 373.636 72.1413 375.107 70.4565C378.001 67.1447 381.327 64.1891 385.077 61.8786C388.711 59.645 392.739 58.0276 396.969 57.4211C399.055 57.1227 401.315 56.9783 403.411 57.3345C405.141 57.6329 407.285 58.3839 407.9 60.2227C408.352 61.5512 407.785 62.9665 407.208 64.1603C406.67 65.277 406.074 66.3842 405.468 67.4624C404.295 69.5516 403.016 71.5733 401.632 73.5373C398.786 77.5808 395.518 81.3162 391.903 84.6761C390.114 86.332 388.269 87.9879 386.192 89.2684C384.221 90.4814 381.818 91.5115 379.453 91.0687C377.116 90.6354 375.511 88.8544 374.415 86.8519C373.223 84.6761 372.483 82.2404 371.963 79.8239C370.887 74.7503 371.002 69.4842 371.646 64.3721C372.175 60.1553 372.954 55.3801 375.886 52.0972C379.039 48.5832 384.048 48.2848 388.211 50.0658C392.643 51.972 395.7 56.0252 398.084 60.0686C402.843 68.1267 407.506 79.2944 401.372 87.9398C395.931 95.6224 384.942 96.1904 377.02 92.5128C368.531 88.5752 363.243 80.469 361.225 71.5155C360.177 66.8752 359.946 62.0422 360.446 57.3152C360.946 52.5015 362.407 47.5242 365.82 43.9525C368.906 40.7081 373.357 38.8789 377.809 39.986C382.241 41.0835 385.75 44.4723 388.663 47.8227C391.557 51.1441 395.441 55.6401 392.835 60.2227C391.758 62.1193 389.98 63.5537 388.182 64.7379C386.057 66.1339 383.789 67.3373 381.491 68.4252C379.068 69.5708 376.578 70.5624 374.04 71.4C371.415 72.2568 368.704 72.95 365.935 73.0174C361.455 73.1233 356.341 71.2171 354.658 66.7019C353.082 62.4755 354.812 57.6714 357.898 54.6099C361.292 51.2404 366.032 49.5845 370.637 48.6506C375.732 47.6205 381.029 47.5146 386.163 48.3329C388.74 48.7469 391.287 49.3823 393.749 50.2391C394.835 50.6146 396.114 50.9612 397.056 51.6351C398.306 52.5208 397.536 53.8783 396.729 54.7832C395.066 56.6317 393.047 58.2491 391.143 59.828C389.201 61.4357 387.201 62.9568 385.144 64.4106C381.077 67.2603 376.79 69.8019 372.329 71.9873C370.069 73.0944 367.762 74.1342 365.416 75.0391C363.032 75.9634 360.321 76.8202 357.783 76.0596C353.485 74.7792 352.284 69.4938 353.697 65.7006C355.216 61.609 359.081 58.5764 362.994 56.9205C366.666 55.3705 370.771 54.8795 374.713 55.3801C378.674 55.8711 382.568 57.3922 385.702 59.8857C387.413 61.2432 389.288 62.9953 389.903 65.1519C390.566 67.4721 389.759 70.2544 389.028 72.4783C388.307 74.6733 387.269 76.7528 385.961 78.6494C384.702 80.4882 383.116 82.4426 381.26 83.7134C380.424 84.2814 378.943 84.9746 378.299 83.7808C377.78 82.8084 377.953 81.2873 377.972 80.2283C378.02 77.7059 378.434 75.2028 379.183 72.796C380.587 68.2711 383.202 63.7752 387.076 60.9351C390.509 58.4224 394.96 57.527 398.786 59.7124C400.43 60.6463 401.795 62.1193 402.343 63.9677C403.084 66.4804 402.257 69.0798 401.036 71.2941C399.873 73.4025 398.402 75.4146 396.69 77.109C395.133 78.6494 393.066 80.2475 390.768 80.2764C388.403 80.3053 386.846 78.4857 385.961 76.4832C384.933 74.1534 384.404 71.5155 384.192 68.9836C383.971 66.336 384.125 63.6596 384.683 61.0603C385.125 58.9615 385.779 56.6606 387.375 55.1394C389.057 53.5413 391.355 53.8205 393.037 55.2453C394.835 56.7665 395.844 58.9711 396.498 61.195C397.834 65.7873 397.681 71.3422 395.229 75.5494C394.2 77.3112 392.653 78.996 390.614 79.5159C388.422 80.0742 386.355 78.9767 384.875 77.4171C381.491 73.8454 380.327 68.3578 379.837 63.6308C379.443 59.8568 379.212 55.1009 381.808 51.9817C384.865 48.3137 390.403 49.6422 393.547 52.4534C396.777 55.3416 398.373 59.6643 398.181 63.9485C397.959 68.9258 395.633 73.6817 392.595 77.5519C389.826 81.0755 386.057 84.2429 381.577 85.1767C377.068 86.1202 372.79 84.1177 369.848 80.7385C363.955 73.9801 363.888 63.3612 368.791 56.054C369.243 55.409 368.262 54.841 367.858 55.4379Z" fill="white"/>
<path d="M310.403 132.938C310.365 132.938 310.336 132.938 310.298 132.928C309.99 132.87 309.788 132.582 309.846 132.274L313.201 113.943C313.239 113.741 313.374 113.577 313.566 113.51C313.759 113.442 313.961 113.481 314.124 113.606L324.584 122.232L328.651 108.792C328.708 108.6 328.862 108.456 329.064 108.407C329.256 108.359 329.468 108.417 329.602 108.571L335.775 115.021C335.986 115.243 335.986 115.609 335.755 115.82C335.534 116.042 335.169 116.032 334.957 115.801L329.458 110.044L325.42 123.368C325.363 123.551 325.228 123.696 325.045 123.744C324.872 123.802 324.67 123.763 324.526 123.638L314.153 115.089L310.971 132.476C310.903 132.745 310.673 132.938 310.403 132.938Z" fill="#2F2942"/>
<path d="M394.44 138.031C394.151 138.031 393.911 137.819 393.882 137.53L392.43 124.668L379.663 128.808C379.49 128.866 379.298 128.837 379.154 128.731C379.009 128.625 378.923 128.452 378.923 128.269V117.351L365.877 119.999C365.569 120.057 365.271 119.864 365.213 119.556C365.156 119.248 365.348 118.949 365.656 118.892L379.375 116.109C379.538 116.08 379.711 116.119 379.846 116.225C379.98 116.331 380.057 116.494 380.057 116.668V127.508L392.748 123.397C392.911 123.349 393.084 123.368 393.228 123.455C393.373 123.551 393.469 123.696 393.488 123.869L395.017 137.415C395.055 137.723 394.824 138.002 394.517 138.04C394.488 138.031 394.469 138.031 394.44 138.031Z" fill="#2F2942"/>
<path d="M131.629 135.691C128.091 135.172 94.9612 162.542 94.7977 166.123C94.6343 169.705 118.256 200.156 123.13 201.696C128.004 203.246 161.72 175.385 161.124 170.302C160.538 165.218 135.167 136.211 131.629 135.691Z" fill="#A78BEF"/>
<path d="M94.8011 166.123C94.7434 167.365 95.2241 169.021 99.56 174.942L139.371 142.045C134.391 136.654 132.863 135.874 131.632 135.691C128.094 135.172 94.9645 162.552 94.8011 166.123Z" fill="#E527BB"/>
<path d="M114.576 152.568C113.817 153.194 112.692 153.088 112.067 152.327L107.837 147.186C107.212 146.426 107.318 145.3 108.077 144.674C108.837 144.048 109.961 144.154 110.586 144.914L114.816 150.055C115.441 150.816 115.336 151.942 114.576 152.568Z" fill="#E527BB"/>
<path d="M107.779 158.181C107.02 158.807 105.895 158.701 105.27 157.94L101.04 152.799C100.415 152.039 100.521 150.912 101.28 150.287C102.04 149.661 103.165 149.767 103.789 150.527L108.02 155.668C108.645 156.429 108.539 157.555 107.779 158.181Z" fill="#E527BB"/>
<path d="M100.982 163.803C100.223 164.429 99.0981 164.323 98.4731 163.563L94.243 158.422C93.6181 157.661 93.7239 156.535 94.4834 155.909C95.2429 155.283 96.3677 155.389 96.9926 156.15L101.223 161.291C101.848 162.051 101.742 163.177 100.982 163.803Z" fill="#E527BB"/>
<path d="M121.373 146.946C120.614 147.572 119.489 147.466 118.864 146.705L114.634 141.564C114.009 140.804 114.114 139.677 114.874 139.051C115.633 138.426 116.758 138.532 117.383 139.292L121.613 144.433C122.248 145.194 122.133 146.32 121.373 146.946Z" fill="#E527BB"/>
<path d="M128.178 141.333C127.418 141.959 126.293 141.853 125.668 141.092L121.438 135.951C120.813 135.191 120.919 134.064 121.679 133.439C122.438 132.813 123.563 132.919 124.188 133.679L128.418 138.82C129.043 139.581 128.937 140.707 128.178 141.333Z" fill="#E527BB"/>
<path d="M121.043 183.809C121.937 184.887 121.783 186.495 120.697 187.39C119.62 188.286 118.015 188.132 117.12 187.044C116.226 185.965 116.38 184.358 117.467 183.462C118.543 182.567 120.149 182.721 121.043 183.809Z" fill="#E527BB"/>
<path d="M127.84 178.187C128.734 179.265 128.58 180.873 127.494 181.768C126.417 182.663 124.811 182.509 123.917 181.421C123.023 180.343 123.177 178.735 124.263 177.84C125.35 176.954 126.946 177.108 127.84 178.187Z" fill="#E527BB"/>
<path d="M134.465 172.709C135.359 173.787 135.205 175.395 134.119 176.29C133.042 177.185 131.436 177.031 130.542 175.943C129.648 174.865 129.802 173.257 130.888 172.362C131.975 171.476 133.571 171.63 134.465 172.709Z" fill="#E527BB"/>
<path d="M141.262 167.096C142.156 168.174 142.002 169.782 140.916 170.677C139.839 171.573 138.233 171.418 137.339 170.331C136.445 169.252 136.599 167.645 137.685 166.749C138.772 165.854 140.368 166.008 141.262 167.096Z" fill="#E527BB"/>
<path d="M147.887 161.618C148.781 162.696 148.627 164.304 147.541 165.199C146.464 166.095 144.858 165.941 143.964 164.853C143.07 163.774 143.224 162.167 144.31 161.271C145.397 160.376 147.002 160.54 147.887 161.618Z" fill="#E527BB"/>
<path d="M114.074 175.077C114.968 176.155 114.815 177.763 113.728 178.658C112.651 179.553 111.046 179.399 110.152 178.312C109.258 177.233 109.411 175.626 110.498 174.73C111.575 173.844 113.18 173.998 114.074 175.077Z" fill="#E527BB"/>
<path d="M120.871 169.464C121.765 170.542 121.611 172.15 120.525 173.045C119.448 173.941 117.843 173.787 116.949 172.699C116.055 171.621 116.208 170.013 117.295 169.117C118.381 168.222 119.977 168.376 120.871 169.464Z" fill="#E527BB"/>
<path d="M127.496 163.986C128.39 165.064 128.236 166.672 127.15 167.567C126.073 168.463 124.468 168.309 123.574 167.221C122.68 166.142 122.833 164.535 123.92 163.639C125.006 162.744 126.602 162.898 127.496 163.986Z" fill="#E527BB"/>
<path d="M134.293 158.364C135.187 159.442 135.033 161.05 133.947 161.945C132.861 162.84 131.265 162.686 130.37 161.598C129.476 160.52 129.63 158.912 130.717 158.017C131.803 157.122 133.399 157.285 134.293 158.364Z" fill="#E527BB"/>
<path d="M140.918 152.895C141.812 153.974 141.658 155.581 140.572 156.477C139.486 157.372 137.89 157.218 136.995 156.13C136.101 155.052 136.255 153.444 137.342 152.549C138.428 151.653 140.034 151.807 140.918 152.895Z" fill="#E527BB"/>
<path d="M127.988 192.233C128.882 193.311 128.729 194.919 127.642 195.814C126.556 196.709 124.96 196.555 124.066 195.468C123.172 194.389 123.326 192.782 124.412 191.886C125.498 190.991 127.094 191.145 127.988 192.233Z" fill="#E527BB"/>
<path d="M134.785 186.61C135.679 187.689 135.525 189.296 134.439 190.192C133.362 191.087 131.757 190.933 130.863 189.845C129.969 188.767 130.122 187.159 131.209 186.264C132.295 185.378 133.891 185.532 134.785 186.61Z" fill="#E527BB"/>
<path d="M141.41 181.132C142.304 182.211 142.15 183.818 141.064 184.714C139.987 185.609 138.382 185.455 137.488 184.367C136.594 183.289 136.747 181.681 137.834 180.786C138.92 179.9 140.516 180.054 141.41 181.132Z" fill="#E527BB"/>
<path d="M148.207 175.52C149.101 176.598 148.947 178.206 147.861 179.101C146.784 179.996 145.179 179.842 144.285 178.754C143.39 177.676 143.544 176.068 144.631 175.173C145.717 174.278 147.323 174.432 148.207 175.52Z" fill="#E527BB"/>
<path d="M154.84 170.042C155.734 171.12 155.58 172.728 154.494 173.623C153.417 174.518 151.811 174.364 150.917 173.276C150.023 172.198 150.177 170.59 151.263 169.695C152.35 168.8 153.946 168.963 154.84 170.042Z" fill="#E527BB"/>
<path d="M275.154 118.632L224.575 107.503C222.787 107.108 221.653 105.336 222.047 103.536L228.161 75.665C228.556 73.8743 230.325 72.7383 232.122 73.133L282.701 84.2622C284.49 84.6569 285.624 86.4284 285.23 88.2287L279.115 116.1C278.712 117.891 276.943 119.027 275.154 118.632Z" fill="#E527BB"/>
<path d="M277.858 118.68C277.714 118.68 277.57 118.622 277.464 118.516L253.756 95.2951L222.52 106.424C222.222 106.53 221.905 106.376 221.799 106.078C221.693 105.779 221.847 105.462 222.145 105.356L253.717 94.1109C253.919 94.0339 254.15 94.0916 254.304 94.236L278.252 117.707C278.473 117.929 278.483 118.285 278.262 118.507C278.146 118.622 278.002 118.68 277.858 118.68Z" fill="#A78BEF"/>
<path d="M251.964 103.478L284.911 85.9663C284.469 85.1287 283.69 84.474 282.7 84.2622L232.121 73.133C231.121 72.9116 230.15 73.1812 229.391 73.7588L251.964 103.478Z" fill="#E527BB"/>
<path d="M251.964 104.046C251.791 104.046 251.627 103.969 251.512 103.825L228.938 74.0958C228.746 73.8455 228.794 73.4893 229.044 73.3064C229.294 73.1138 229.65 73.1619 229.842 73.4123L252.127 102.766L284.651 85.4849C284.92 85.3405 285.266 85.4464 285.42 85.716C285.564 85.9952 285.459 86.3321 285.189 86.4862L252.242 103.998C252.146 104.027 252.05 104.046 251.964 104.046Z" fill="#A78BEF"/>
<path d="M283.475 94.65C288.328 94.65 292.262 90.7104 292.262 85.8507C292.262 80.9909 288.328 77.0513 283.475 77.0513C278.622 77.0513 274.688 80.9909 274.688 85.8507C274.688 90.7104 278.622 94.65 283.475 94.65Z" fill="#A78BEF"/>
<path d="M278.936 82.0669C278.898 82.0669 278.84 82.0669 278.763 82.0861C278.753 82.0861 278.648 82.1247 278.638 82.1247L277.282 82.6157C277.1 82.683 276.955 82.7986 276.869 82.943C276.782 83.0778 276.734 83.2414 276.734 83.4051C276.734 83.6458 276.821 83.848 276.984 84.002C277.138 84.156 277.35 84.233 277.58 84.233C277.725 84.233 277.869 84.2042 278.013 84.1368L278.09 84.0983V88.7964C278.09 89.0275 278.176 89.2296 278.34 89.3933C278.503 89.557 278.705 89.6436 278.926 89.6436C279.157 89.6436 279.359 89.557 279.532 89.3933C279.695 89.2296 279.782 89.0275 279.782 88.7964V82.9045C279.782 82.6734 279.705 82.4616 279.561 82.3076C279.436 82.2017 279.244 82.0669 278.936 82.0669Z" fill="white"/>
<path d="M284.129 82.5676C283.744 82.2307 283.283 82.0574 282.744 82.0574C282.206 82.0574 281.744 82.2307 281.36 82.558C280.994 82.8757 280.716 83.3282 280.533 83.9058C280.36 84.4546 280.273 85.1092 280.273 85.8602C280.273 86.6111 280.36 87.2658 280.533 87.8049C280.716 88.3825 280.994 88.835 281.36 89.1527C281.744 89.4897 282.206 89.6533 282.744 89.6533C283.283 89.6533 283.754 89.48 284.129 89.1431C284.494 88.8158 284.773 88.3633 284.955 87.7953C285.128 87.2465 285.215 86.6015 285.215 85.8602C285.215 85.1189 285.128 84.4738 284.955 83.9251C284.763 83.3474 284.494 82.8853 284.129 82.5676ZM283.398 87.0347C283.321 87.3524 283.215 87.5931 283.081 87.7664C282.985 87.8915 282.879 87.9397 282.735 87.9397C282.59 87.9397 282.485 87.8819 282.389 87.7664C282.254 87.6027 282.148 87.3524 282.071 87.0443C281.994 86.6978 281.946 86.2934 281.946 85.8505C281.946 85.4077 281.985 85.0033 282.071 84.6568C282.148 84.339 282.254 84.0984 282.389 83.9251C282.485 83.7999 282.59 83.7518 282.735 83.7518C282.879 83.7518 282.985 83.8095 283.081 83.9251C283.215 84.0984 283.321 84.3487 283.398 84.6664C283.475 85.0033 283.513 85.4077 283.513 85.8505C283.523 86.303 283.475 86.6977 283.398 87.0347Z" fill="white"/>
<path d="M289.963 83.9154C289.781 83.3378 289.502 82.8853 289.136 82.5676C288.752 82.2307 288.29 82.0574 287.752 82.0574C287.214 82.0574 286.752 82.2307 286.368 82.558C286.002 82.8757 285.723 83.3282 285.541 83.9058C285.368 84.4546 285.281 85.1092 285.281 85.8602C285.281 86.6111 285.368 87.2658 285.541 87.8049C285.723 88.3825 286.002 88.835 286.368 89.1527C286.752 89.4897 287.214 89.6533 287.752 89.6533C288.29 89.6533 288.762 89.48 289.136 89.1431C289.502 88.8158 289.781 88.3633 289.963 87.7953C290.136 87.2465 290.223 86.6015 290.223 85.8602C290.223 85.1092 290.136 84.4642 289.963 83.9154ZM288.415 87.0347C288.338 87.3524 288.233 87.5931 288.098 87.7664C288.002 87.8915 287.896 87.9397 287.752 87.9397C287.617 87.9397 287.502 87.8819 287.406 87.7664C287.271 87.6027 287.166 87.3524 287.089 87.0443C287.012 86.6978 286.964 86.2934 286.964 85.8505C286.964 85.4077 287.002 85.0033 287.089 84.6568C287.166 84.339 287.271 84.0984 287.406 83.9251C287.502 83.7999 287.608 83.7518 287.752 83.7518C287.896 83.7518 288.002 83.8095 288.098 83.9251C288.233 84.0984 288.338 84.3487 288.415 84.6664C288.492 85.0033 288.531 85.4077 288.531 85.8505C288.531 86.303 288.492 86.6977 288.415 87.0347Z" fill="white"/>
<path d="M234.283 153.377L185.232 170.013C183.492 170.6 181.608 169.666 181.021 167.933L171.879 140.909C171.292 139.167 172.225 137.28 173.955 136.693L223.005 120.056C224.746 119.469 226.63 120.403 227.216 122.136L236.359 149.16C236.946 150.902 236.013 152.789 234.283 153.377Z" fill="#A78BEF"/>
<path d="M182.477 170.369C182.352 170.369 182.227 170.331 182.121 170.244C181.881 170.042 181.842 169.686 182.044 169.445L203.272 143.48C203.406 143.316 203.628 143.239 203.839 143.287L236.459 150.989C236.767 151.057 236.95 151.365 236.882 151.673C236.815 151.981 236.507 152.164 236.2 152.096L203.926 144.481L182.919 170.177C182.804 170.302 182.64 170.369 182.477 170.369Z" fill="#E527BB"/>
<path d="M206.98 152.337L226.151 120.297C225.343 119.806 224.343 119.652 223.372 119.979L174.322 136.625C173.36 136.952 172.659 137.684 172.312 138.57L206.98 152.337Z" fill="#A78BEF"/>
<path d="M206.611 152.972C206.544 152.972 206.467 152.963 206.4 152.934L171.732 139.157C171.444 139.042 171.299 138.714 171.415 138.426C171.53 138.137 171.857 137.992 172.145 138.108L206.371 151.702L225.301 120.076C225.464 119.806 225.811 119.72 226.08 119.883C226.349 120.047 226.435 120.394 226.272 120.663L207.102 152.703C206.986 152.867 206.804 152.972 206.611 152.972Z" fill="#E527BB"/>
<path d="M183.672 137.261C185.017 138.06 184.989 140.024 183.623 140.794L171.318 147.687C169.952 148.457 168.27 147.446 168.289 145.877L168.482 131.764C168.501 130.194 170.212 129.241 171.558 130.04L183.672 137.261Z" fill="#E527BB"/>
<path d="M174.407 141.323C174.397 141.092 174.464 140.881 174.618 140.707C174.772 140.534 175.051 140.332 175.455 140.091C175.859 139.86 176.205 139.773 176.493 139.85C176.772 139.927 177.031 140.149 177.243 140.534L177.368 140.755C177.493 140.977 177.579 141.15 177.627 141.266C177.676 141.381 177.704 141.535 177.714 141.728C177.724 142.084 177.445 142.421 176.878 142.748C176.31 143.076 175.887 143.191 175.599 143.124C175.31 143.047 175.022 142.748 174.724 142.219C174.522 141.853 174.416 141.554 174.407 141.323ZM175.339 138.608C175.186 138.753 174.964 138.917 174.666 139.09C174.368 139.263 174.118 139.379 173.916 139.427C173.715 139.485 173.542 139.465 173.397 139.388C173.263 139.311 173.157 139.225 173.09 139.138C173.022 139.051 172.936 138.917 172.82 138.714L170.273 134.276C170.157 134.084 170.081 133.93 170.042 133.824C170.004 133.718 169.984 133.583 169.984 133.419C169.984 133.256 170.061 133.092 170.215 132.938C170.359 132.784 170.59 132.62 170.888 132.447C171.186 132.274 171.436 132.168 171.648 132.11C171.849 132.062 172.032 132.081 172.167 132.168C172.311 132.254 172.417 132.341 172.484 132.428C172.551 132.514 172.647 132.659 172.753 132.861L175.301 137.299C175.416 137.492 175.493 137.646 175.532 137.742C175.57 137.848 175.589 137.973 175.58 138.137C175.57 138.31 175.493 138.464 175.339 138.608Z" fill="white"/>
<path d="M124.262 316.859H220.709L214.422 263.167C213.932 258.97 210.384 255.812 206.164 255.812H126.464C121.494 255.812 117.629 260.154 118.206 265.102L124.262 316.859Z" fill="#876BE8"/>
<path d="M204.367 316.859H242.986C244.121 316.859 245.073 317.715 245.207 318.842C245.351 320.17 244.323 321.326 242.986 321.326H204.867L204.367 316.859Z" fill="#876BE8"/>
<path d="M126.259 321.326H218.236L217.736 316.859H121.289C121.568 319.4 123.712 321.326 126.259 321.326Z" fill="#A78BEF"/>
<path d="M121.286 316.859H217.733L211.445 263.167C210.955 258.97 207.408 255.812 203.187 255.812H123.487C118.517 255.812 114.652 260.154 115.229 265.102L121.286 316.859Z" fill="#A78BEF"/>
<path d="M209.154 314.211C209.183 314.211 209.221 314.211 209.25 314.202C209.644 314.154 209.913 313.788 209.865 313.403L209.067 307.328C209.019 306.933 208.654 306.663 208.269 306.712C207.875 306.76 207.606 307.126 207.654 307.511L208.452 313.586C208.49 313.942 208.798 314.211 209.154 314.211Z" fill="#E527BB"/>
<path d="M207.037 314.211C207.065 314.211 207.104 314.211 207.133 314.202C207.527 314.154 207.796 313.788 207.748 313.403L206.95 307.328C206.902 306.933 206.508 306.663 206.152 306.712C205.758 306.76 205.489 307.126 205.537 307.511L206.335 313.586C206.383 313.942 206.681 314.211 207.037 314.211Z" fill="#E527BB"/>
<path d="M204.919 314.211C204.948 314.211 204.987 314.211 205.016 314.202C205.41 314.154 205.679 313.788 205.631 313.403L204.833 307.328C204.785 306.933 204.41 306.663 204.035 306.712C203.641 306.76 203.372 307.126 203.42 307.511L204.218 313.586C204.266 313.942 204.573 314.211 204.919 314.211Z" fill="#E527BB"/>
<path d="M202.818 314.211C202.847 314.211 202.885 314.211 202.914 314.202C203.308 314.154 203.577 313.788 203.529 313.403L202.731 307.328C202.683 306.933 202.299 306.663 201.933 306.712C201.539 306.76 201.27 307.126 201.318 307.511L202.116 313.586C202.154 313.942 202.462 314.211 202.818 314.211Z" fill="#E527BB"/>
<path d="M200.701 314.211C200.729 314.211 200.768 314.211 200.797 314.202C201.191 314.154 201.46 313.788 201.412 313.403L200.614 307.328C200.566 306.933 200.181 306.663 199.816 306.712C199.422 306.76 199.153 307.126 199.201 307.511L199.999 313.586C200.037 313.942 200.345 314.211 200.701 314.211Z" fill="#E527BB"/>
<path d="M163.768 293.763H168.864C170.056 293.763 171.2 293.253 171.988 292.357C172.786 291.462 173.161 290.268 173.017 289.084L172.257 282.605C172.007 280.496 170.219 278.898 168.104 278.898H163.009C161.817 278.898 160.673 279.408 159.884 280.304C159.086 281.199 158.721 282.393 158.855 283.577L159.615 290.056C159.855 292.174 161.644 293.763 163.768 293.763Z" fill="#E527BB"/>
<path d="M227.208 240.543C217.219 244.317 200.414 237.982 196.828 230.858C193.184 223.599 197.549 213.336 203.25 210.669C210.47 207.29 230.208 213.143 233.63 220.354C236.937 227.334 232.15 238.675 227.208 240.543Z" fill="#A78BEF"/>
<path d="M204.469 237.587L207.228 250.209L216.794 241.438L204.469 237.587Z" fill="#A78BEF"/>
<path d="M210.046 218.178C212.795 223.57 215.689 228.894 218.718 234.131C219.083 234.766 220.064 234.189 219.698 233.563C216.67 228.316 213.776 223.002 211.026 217.61C210.69 216.965 209.709 217.533 210.046 218.178Z" fill="white"/>
<path d="M207.13 230.588C212.553 227.912 217.908 225.091 223.176 222.135C223.811 221.779 223.243 220.797 222.609 221.153C217.331 224.109 211.986 226.93 206.563 229.606C205.909 229.933 206.477 230.915 207.13 230.588Z" fill="white"/>
<path d="M252.859 283.5C242.476 281.006 232.112 266.325 233.141 258.411C234.189 250.353 243.553 244.307 249.764 245.308C257.637 246.569 270.693 262.503 269.482 270.397C268.319 278.041 258.003 284.732 252.859 283.5Z" fill="#E527BB"/>
<path d="M235.702 268.279L230.914 280.275L243.749 278.397L235.702 268.279Z" fill="#E527BB"/>
<path d="M245.997 268.943C245.353 268.154 244.901 267.336 244.622 266.479C244.353 265.622 244.257 264.756 244.343 263.889C244.43 263.023 244.689 262.195 245.122 261.405C245.555 260.616 246.17 259.894 246.949 259.258C247.727 258.623 248.545 258.161 249.41 257.891C250.275 257.612 251.14 257.525 252.006 257.612C252.871 257.699 253.698 257.959 254.486 258.392C255.274 258.825 255.995 259.441 256.64 260.221C257.274 261.001 257.736 261.819 258.005 262.686C258.284 263.552 258.37 264.419 258.293 265.285C258.207 266.151 257.947 266.979 257.505 267.778C257.063 268.568 256.457 269.29 255.678 269.925C255.034 270.455 254.39 270.83 253.755 271.061C253.121 271.292 252.534 271.37 252.006 271.292C251.477 271.215 251.044 270.975 250.708 270.57C250.419 270.214 250.285 269.829 250.314 269.434C250.342 269.03 250.525 268.693 250.871 268.404L251.265 268.077C250.929 268.125 250.592 268.106 250.227 268.019C249.871 267.933 249.535 267.798 249.208 267.605C248.891 267.413 248.622 267.182 248.391 266.912C247.939 266.354 247.66 265.766 247.554 265.141C247.449 264.515 247.516 263.899 247.756 263.302C247.997 262.705 248.391 262.175 248.958 261.723C249.516 261.261 250.112 260.982 250.746 260.866C251.381 260.76 251.996 260.818 252.592 261.039C253.188 261.27 253.727 261.656 254.178 262.224C254.64 262.782 254.919 263.379 255.024 264.014C255.13 264.65 255.063 265.266 254.832 265.863C254.601 266.46 254.207 266.989 253.65 267.451L251.842 268.934C251.621 269.117 251.487 269.29 251.448 269.463C251.41 269.637 251.448 269.791 251.563 269.935C251.746 270.156 252.015 270.272 252.371 270.282C252.727 270.291 253.131 270.185 253.582 269.983C254.034 269.781 254.505 269.483 254.986 269.088C255.64 268.549 256.159 267.942 256.524 267.268C256.89 266.594 257.111 265.892 257.188 265.16C257.265 264.428 257.178 263.697 256.947 262.965C256.717 262.233 256.332 261.54 255.794 260.876C255.246 260.211 254.64 259.692 253.967 259.326C253.294 258.96 252.592 258.738 251.861 258.661C251.131 258.584 250.4 258.671 249.67 258.902C248.939 259.133 248.247 259.528 247.593 260.067C246.93 260.616 246.41 261.222 246.035 261.887C245.66 262.551 245.439 263.254 245.372 263.985C245.295 264.717 245.382 265.449 245.612 266.18C245.843 266.912 246.237 267.605 246.785 268.27C247.035 268.578 247.343 268.876 247.699 269.165C248.054 269.454 248.381 269.665 248.679 269.81C248.91 269.925 249.045 270.06 249.083 270.224C249.122 270.388 249.045 270.542 248.862 270.696C248.718 270.821 248.487 270.83 248.179 270.724C247.872 270.619 247.526 270.416 247.141 270.118C246.785 269.82 246.401 269.425 245.997 268.943ZM249.275 266.248C249.602 266.642 249.977 266.931 250.4 267.095C250.823 267.259 251.265 267.307 251.717 267.23C252.169 267.153 252.602 266.951 253.006 266.614C253.4 266.286 253.688 265.911 253.852 265.478C254.015 265.054 254.063 264.611 253.986 264.159C253.909 263.706 253.707 263.283 253.38 262.878C253.044 262.474 252.669 262.185 252.236 262.021C251.813 261.858 251.371 261.819 250.919 261.896C250.467 261.973 250.044 262.185 249.65 262.512C249.246 262.849 248.958 263.225 248.795 263.648C248.631 264.072 248.583 264.515 248.66 264.958C248.737 265.42 248.948 265.843 249.275 266.248Z" fill="white"/>
<path d="M184.919 227.045C180.324 236.701 163.826 243.787 156.308 241.14C148.655 238.434 144.704 228.008 146.973 222.126C149.838 214.684 168.124 205.21 175.584 208.031C182.804 210.775 187.198 222.27 184.919 227.045Z" fill="#A78BEF"/>
<path d="M166.477 240.687L177.206 247.879L178.042 234.92L166.477 240.687Z" fill="#A78BEF"/>
<path d="M159.637 227.479C160.06 228.403 159.646 229.5 158.724 229.914C157.801 230.338 156.705 229.924 156.291 229C155.868 228.075 156.282 226.978 157.205 226.564C158.127 226.14 159.223 226.545 159.637 227.479Z" fill="white"/>
<path d="M167.613 223.849C168.036 224.773 167.623 225.871 166.7 226.285C165.777 226.708 164.681 226.294 164.268 225.37C163.845 224.446 164.258 223.348 165.181 222.934C166.104 222.511 167.19 222.925 167.613 223.849Z" fill="white"/>
<path d="M175.59 220.229C176.013 221.153 175.6 222.251 174.677 222.665C173.754 223.089 172.658 222.675 172.244 221.75C171.821 220.826 172.235 219.729 173.158 219.315C174.081 218.891 175.167 219.305 175.59 220.229Z" fill="white"/>
<path d="M381.064 311.515L384.862 315.819L383.276 320.777L374.248 321.672L371.768 318.37L370.537 321.085L362.779 321.162L358.039 313.633L361.808 303.785L369.893 302.427L373.739 295.659L382.43 300.348L381.834 305.104L385.621 306.962L383.66 312.074L381.064 311.515Z" fill="white"/>
<path d="M371.771 318.765C371.637 318.765 371.502 318.697 371.425 318.563C371.32 318.37 371.387 318.129 371.569 318.023L378.136 314.24V304.978C378.136 304.757 378.309 304.584 378.53 304.584C378.751 304.584 378.924 304.757 378.924 304.978V314.471C378.924 314.615 378.847 314.741 378.722 314.818L371.964 318.717C371.906 318.746 371.839 318.765 371.771 318.765Z" fill="#DAE5EB"/>
<path d="M358.041 314.028C357.848 314.028 357.685 313.893 357.647 313.691C357.608 313.47 357.762 313.268 357.973 313.239L367.607 311.689C367.828 311.65 368.03 311.804 368.058 312.016C368.097 312.238 367.943 312.44 367.732 312.469L358.098 314.019C358.089 314.028 358.06 314.028 358.041 314.028Z" fill="#DAE5EB"/>
<path d="M362.86 314.866C362.687 314.866 362.533 314.75 362.475 314.577C362.417 314.365 362.542 314.144 362.744 314.086L367.071 312.863C367.282 312.805 367.503 312.931 367.561 313.142C367.619 313.354 367.494 313.576 367.282 313.633L362.956 314.856C362.937 314.856 362.898 314.866 362.86 314.866Z" fill="#DAE5EB"/>
<path d="M362.781 321.557C362.676 321.557 362.57 321.518 362.493 321.431C362.349 321.268 362.358 321.017 362.512 320.873L370.29 313.701L369.492 302.466C369.473 302.244 369.636 302.061 369.857 302.042C370.098 302.023 370.261 302.196 370.28 302.408L371.098 313.835C371.107 313.961 371.059 314.076 370.973 314.153L363.051 321.46C362.974 321.518 362.878 321.557 362.781 321.557Z" fill="#DAE5EB"/>
<path d="M362.857 309.888C362.742 309.888 362.626 309.84 362.549 309.744C362.405 309.58 362.434 309.33 362.598 309.186L366.866 305.624L362.184 304.064C361.973 303.997 361.867 303.775 361.934 303.563C362.002 303.361 362.223 303.236 362.434 303.313L367.789 305.104C367.924 305.152 368.029 305.267 368.049 305.402C368.078 305.547 368.02 305.691 367.914 305.778L363.097 309.792C363.04 309.86 362.953 309.888 362.857 309.888Z" fill="#DAE5EB"/>
<path d="M364.662 309.888C364.527 309.888 364.402 309.821 364.325 309.705C364.21 309.523 364.268 309.272 364.45 309.157L367.469 307.279C367.652 307.164 367.902 307.222 368.017 307.405C368.132 307.587 368.075 307.838 367.892 307.953L364.873 309.831C364.796 309.879 364.729 309.888 364.662 309.888Z" fill="#DAE5EB"/>
<path d="M377.828 301.956C377.655 301.956 377.492 301.84 377.444 301.657C377.386 301.445 377.511 301.224 377.723 301.176L382.328 299.972C382.539 299.915 382.76 300.04 382.808 300.252C382.866 300.463 382.741 300.685 382.53 300.733L377.924 301.936C377.896 301.956 377.867 301.956 377.828 301.956Z" fill="#DAE5EB"/>
<path d="M381.075 311.91C380.892 311.91 380.719 311.775 380.69 311.592L379.748 306.673C379.729 306.557 379.758 306.442 379.834 306.346C379.911 306.249 380.017 306.201 380.142 306.201H382.44C382.661 306.201 382.834 306.374 382.834 306.596C382.834 306.817 382.661 306.991 382.44 306.991H380.613L381.459 311.438C381.498 311.65 381.363 311.862 381.142 311.901C381.123 311.91 381.094 311.91 381.075 311.91Z" fill="#DAE5EB"/>
<path d="M428.451 300.637L431.038 295.525L436.219 295.159L440.392 303.226L438.248 306.76L441.219 306.904L444.161 314.086L438.931 321.278L428.394 321.422L424.144 314.404L416.453 313.316L417.588 303.496L422.212 302.293L422.539 298.085L428.009 298.018L428.451 300.637Z" fill="white"/>
<path d="M438.244 307.154C438.158 307.154 438.071 307.125 437.994 307.068L432.053 302.36L423.467 305.787C423.266 305.864 423.035 305.768 422.948 305.566C422.871 305.364 422.968 305.133 423.169 305.046L431.976 301.532C432.11 301.484 432.255 301.503 432.37 301.59L438.484 306.442C438.658 306.577 438.686 306.827 438.552 307C438.475 307.106 438.359 307.154 438.244 307.154Z" fill="#DAE5EB"/>
<path d="M438.932 321.672C438.797 321.672 438.663 321.605 438.595 321.48L433.596 313.094C433.481 312.902 433.548 312.661 433.731 312.546C433.913 312.44 434.163 312.498 434.279 312.68L439.278 321.066C439.393 321.258 439.326 321.499 439.143 321.615C439.066 321.653 438.999 321.672 438.932 321.672Z" fill="#DAE5EB"/>
<path d="M437.919 316.888C437.804 316.888 437.679 316.83 437.602 316.734L434.862 313.162C434.728 312.989 434.766 312.738 434.939 312.604C435.112 312.469 435.362 312.507 435.497 312.681L438.237 316.252C438.371 316.426 438.333 316.676 438.16 316.811C438.092 316.859 438.006 316.888 437.919 316.888Z" fill="#DAE5EB"/>
<path d="M424.153 314.798C424.009 314.798 423.865 314.721 423.797 314.577C423.701 314.384 423.788 314.144 423.98 314.048L434.286 309.061C434.392 309.012 434.517 309.003 434.632 309.061L444.342 313.73C444.544 313.826 444.621 314.057 444.525 314.259C444.429 314.461 444.198 314.538 443.996 314.442L434.459 309.85L424.326 314.75C424.268 314.789 424.211 314.798 424.153 314.798Z" fill="#DAE5EB"/>
<path d="M428.128 321.374C427.917 321.374 427.744 321.21 427.734 320.998L427.407 315.347C427.398 315.203 427.465 315.068 427.59 314.991C427.715 314.914 427.869 314.904 427.994 314.981L433.502 317.976C433.695 318.081 433.762 318.322 433.666 318.515C433.56 318.707 433.32 318.775 433.127 318.678L428.253 316.021L428.532 320.96C428.542 321.181 428.378 321.364 428.157 321.384C428.147 321.374 428.138 321.374 428.128 321.374Z" fill="#DAE5EB"/>
<path d="M432.644 317.051C432.567 317.051 432.481 317.022 432.414 316.974L429.558 314.856C429.385 314.721 429.347 314.481 429.472 314.298C429.597 314.125 429.847 314.086 430.029 314.211L432.885 316.329C433.058 316.464 433.096 316.705 432.971 316.888C432.885 316.993 432.769 317.051 432.644 317.051Z" fill="#DAE5EB"/>
<path d="M420.406 307.732C420.281 307.732 420.165 307.674 420.088 307.568L417.271 303.737C417.146 303.563 417.175 303.313 417.358 303.178C417.531 303.044 417.781 303.082 417.916 303.265L420.733 307.097C420.857 307.27 420.829 307.52 420.646 307.655C420.579 307.703 420.492 307.732 420.406 307.732Z" fill="#DAE5EB"/>
<path d="M424.232 303.727C424.193 303.727 424.145 303.717 424.107 303.708C423.991 303.669 423.905 303.583 423.857 303.477L423.011 301.339C422.934 301.137 423.03 300.906 423.232 300.819C423.434 300.742 423.665 300.839 423.751 301.041L424.424 302.735L428.241 300.3C428.423 300.184 428.673 300.232 428.789 300.425C428.904 300.608 428.856 300.858 428.664 300.974L424.443 303.669C424.386 303.708 424.309 303.727 424.232 303.727Z" fill="#DAE5EB"/>
<path d="M391.593 307.713L391.045 303.236L394.266 300.723L400.525 304.151L400.669 307.405L402.678 306.192L407.735 309.59L407.476 316.58L400.669 321.307L394.814 318.592L389.315 321.258L385.758 314.356L388.248 311.535L386.613 308.647L390.161 306.201L391.593 307.713Z" fill="white"/>
<path d="M390.342 313.489C390.265 313.489 390.188 313.47 390.121 313.422C389.938 313.297 389.89 313.046 390.015 312.873L394.226 306.712C394.303 306.596 394.447 306.529 394.582 306.538L400.696 307.02C400.917 307.039 401.081 307.231 401.061 307.443C401.042 307.665 400.879 307.828 400.638 307.809L394.745 307.347L390.669 313.316C390.592 313.422 390.467 313.489 390.342 313.489Z" fill="#DAE5EB"/>
<path d="M407.475 316.984C407.417 316.984 407.359 316.974 407.301 316.945L400.36 313.662C400.158 313.566 400.081 313.335 400.168 313.133C400.264 312.931 400.495 312.854 400.697 312.94L407.638 316.223C407.84 316.32 407.917 316.551 407.83 316.753C407.763 316.897 407.619 316.984 407.475 316.984Z" fill="#DAE5EB"/>
<path d="M404.719 314.298C404.681 314.298 404.633 314.288 404.594 314.279L401.239 313.152C401.027 313.085 400.922 312.854 400.989 312.652C401.056 312.44 401.287 312.334 401.489 312.401L404.844 313.528C405.056 313.595 405.161 313.826 405.094 314.028C405.046 314.192 404.892 314.298 404.719 314.298Z" fill="#DAE5EB"/>
<path d="M394.812 318.987C394.745 318.987 394.678 318.967 394.611 318.929C394.418 318.823 394.361 318.573 394.466 318.39L399.004 310.611C399.062 310.505 399.168 310.437 399.293 310.418L407.676 309.205C407.897 309.186 408.089 309.321 408.128 309.542C408.157 309.764 408.012 309.956 407.791 309.995L399.6 311.179L395.159 318.794C395.082 318.91 394.957 318.987 394.812 318.987Z" fill="#DAE5EB"/>
<path d="M400.292 321.528C400.176 321.528 400.051 321.47 399.974 321.374L397.292 317.831C397.205 317.716 397.186 317.562 397.244 317.436C397.302 317.302 397.427 317.215 397.571 317.205L402.474 316.743C402.705 316.724 402.887 316.888 402.907 317.099C402.926 317.321 402.772 317.513 402.551 317.533L398.35 317.927L400.609 320.902C400.743 321.076 400.705 321.326 400.532 321.461C400.465 321.499 400.378 321.528 400.292 321.528Z" fill="#DAE5EB"/>
<path d="M401.354 316.724C401.345 316.724 401.345 316.724 401.335 316.724L398.547 316.599C398.326 316.589 398.163 316.406 398.172 316.185C398.182 315.963 398.355 315.809 398.586 315.809L401.374 315.934C401.595 315.944 401.758 316.127 401.749 316.348C401.739 316.551 401.566 316.724 401.354 316.724Z" fill="#DAE5EB"/>
<path d="M389.277 316.012C389.229 316.012 389.191 316.002 389.142 315.992L385.624 314.731C385.422 314.654 385.306 314.433 385.383 314.221C385.46 314.019 385.681 313.903 385.893 313.98L389.412 315.242C389.614 315.319 389.729 315.54 389.652 315.752C389.594 315.915 389.44 316.012 389.277 316.012Z" fill="#DAE5EB"/>
<path d="M390.027 311.718C389.95 311.718 389.873 311.699 389.806 311.65L388.316 310.63C388.133 310.505 388.085 310.264 388.21 310.081C388.335 309.898 388.585 309.85 388.758 309.975L389.854 310.726L391.239 307.559C391.325 307.357 391.566 307.26 391.758 307.357C391.96 307.443 392.046 307.674 391.96 307.877L390.383 311.487C390.335 311.593 390.239 311.679 390.133 311.708C390.095 311.718 390.056 311.718 390.027 311.718Z" fill="#DAE5EB"/>
<path d="M314.691 314.933C325.199 314.933 345.792 316.368 350.792 310.023L289.647 309.744C282.975 314.163 262.055 314.933 247.961 314.933H314.691Z" fill="white"/>
<path d="M353.166 314.933H314.383V319.786H353.166V314.933Z" fill="#FFF1F7"/>
<path d="M314.393 314.933H247.961V319.786H314.393V314.933Z" fill="white"/>
<path d="M353.166 319.785H314.383V322.212H353.166V319.785Z" fill="#E527BB"/>
<path d="M314.393 319.785H247.961V322.212H314.393V319.785Z" fill="#E527BB"/>
<path d="M346.62 317.408H314.692C314.375 317.408 314.125 317.157 314.125 316.839C314.125 316.522 314.375 316.271 314.692 316.271H346.62C346.937 316.271 347.187 316.522 347.187 316.839C347.178 317.157 346.928 317.408 346.62 317.408Z" fill="black"/>
<path d="M295.484 317.822H248.606C248.289 317.822 248.039 317.571 248.039 317.254C248.039 316.936 248.289 316.686 248.606 316.686H295.484C295.801 316.686 296.051 316.936 296.051 317.254C296.051 317.571 295.801 317.822 295.484 317.822Z" fill="black"/>
<path d="M256.033 324.156C253.36 324.156 251.188 321.432 251.188 318.072C251.188 314.721 253.36 311.987 256.033 311.987C257.648 311.987 259.148 312.989 260.052 314.654C260.196 314.933 260.1 315.27 259.821 315.424C259.552 315.569 259.206 315.472 259.052 315.193C258.35 313.894 257.225 313.114 256.033 313.114C253.985 313.114 252.312 315.338 252.312 318.062C252.312 320.796 253.976 323.011 256.033 323.011C256.908 323.011 257.763 322.587 258.446 321.826C258.648 321.595 259.004 321.566 259.244 321.778C259.475 321.98 259.504 322.346 259.292 322.577C258.398 323.608 257.244 324.156 256.033 324.156Z" fill="black"/>
<path d="M263.838 324.156C261.165 324.156 258.992 321.432 258.992 318.072C258.992 314.721 261.165 311.987 263.838 311.987C265.453 311.987 266.953 312.989 267.856 314.654C268 314.933 267.904 315.27 267.626 315.424C267.356 315.569 267.01 315.472 266.856 315.193C266.155 313.894 265.03 313.114 263.838 313.114C261.79 313.114 260.117 315.338 260.117 318.062C260.117 320.796 261.78 323.011 263.838 323.011C264.712 323.011 265.568 322.587 266.251 321.826C266.453 321.595 266.808 321.566 267.049 321.778C267.279 321.98 267.308 322.346 267.097 322.577C266.203 323.608 265.039 324.156 263.838 324.156Z" fill="black"/>
<path d="M271.634 324.156C268.962 324.156 266.789 321.432 266.789 318.072C266.789 314.721 268.962 311.987 271.634 311.987C273.25 311.987 274.749 312.989 275.653 314.654C275.797 314.933 275.701 315.27 275.422 315.424C275.153 315.569 274.807 315.472 274.653 315.193C273.951 313.894 272.827 313.114 271.634 313.114C269.587 313.114 267.914 315.338 267.914 318.062C267.914 320.796 269.577 323.011 271.634 323.011C272.509 323.011 273.365 322.587 274.048 321.826C274.249 321.595 274.605 321.566 274.846 321.778C275.076 321.98 275.105 322.346 274.894 322.577C274 323.608 272.846 324.156 271.634 324.156Z" fill="black"/>
<path d="M279.439 324.156C276.767 324.156 274.594 321.432 274.594 318.072C274.594 314.721 276.767 311.987 279.439 311.987C281.054 311.987 282.554 312.989 283.458 314.654C283.602 314.933 283.506 315.27 283.227 315.424C282.958 315.569 282.612 315.472 282.458 315.193C281.756 313.894 280.631 313.114 279.439 313.114C277.391 313.114 275.719 315.338 275.719 318.062C275.719 320.796 277.382 323.011 279.439 323.011C280.324 323.011 281.179 322.587 281.852 321.826C282.054 321.595 282.42 321.566 282.65 321.778C282.881 321.98 282.91 322.346 282.698 322.577C281.804 323.608 280.651 324.156 279.439 324.156Z" fill="black"/>
<path d="M287.236 324.156C284.563 324.156 282.391 321.432 282.391 318.072C282.391 314.721 284.563 311.987 287.236 311.987C288.851 311.987 290.351 312.989 291.255 314.654C291.399 314.933 291.303 315.27 291.024 315.424C290.755 315.569 290.409 315.472 290.255 315.193C289.553 313.894 288.428 313.114 287.236 313.114C285.188 313.114 283.515 315.338 283.515 318.062C283.515 320.796 285.179 323.011 287.236 323.011C288.121 323.011 288.976 322.587 289.649 321.826C289.851 321.595 290.216 321.566 290.447 321.778C290.678 321.98 290.707 322.346 290.495 322.577C289.611 323.608 288.447 324.156 287.236 324.156Z" fill="black"/>
<path d="M295.049 324.156C292.376 324.156 290.203 321.432 290.203 318.072C290.203 314.721 292.376 311.987 295.049 311.987C296.664 311.987 298.163 312.989 299.067 314.654C299.211 314.933 299.115 315.27 298.836 315.424C298.567 315.569 298.221 315.472 298.067 315.193C297.366 313.894 296.241 313.114 295.049 313.114C293.001 313.114 291.328 315.338 291.328 318.062C291.328 320.796 292.991 323.011 295.049 323.011C295.933 323.011 296.789 322.587 297.462 321.826C297.664 321.595 298.029 321.566 298.26 321.778C298.49 321.98 298.519 322.346 298.308 322.577C297.414 323.608 296.26 324.156 295.049 324.156Z" fill="black"/>
<path d="M302.845 324.156C300.173 324.156 298 321.432 298 318.072C298 314.721 300.173 311.987 302.845 311.987C304.461 311.987 305.96 312.989 306.864 314.654C307.008 314.933 306.912 315.27 306.633 315.424C306.364 315.569 306.018 315.472 305.864 315.193C305.162 313.894 304.038 313.114 302.845 313.114C300.798 313.114 299.125 315.338 299.125 318.062C299.125 320.796 300.798 323.011 302.845 323.011C303.72 323.011 304.576 322.587 305.249 321.826C305.451 321.595 305.816 321.566 306.047 321.778C306.278 321.98 306.306 322.346 306.095 322.577C305.22 323.608 304.057 324.156 302.845 324.156Z" fill="black"/>
<path d="M486.318 321.326H45.3263C42.9324 321.326 41 323.27 41 325.658C41 328.055 42.942 329.99 45.3263 329.99H486.318C488.712 329.99 490.644 328.046 490.644 325.658C490.644 323.27 488.712 321.326 486.318 321.326Z" fill="black"/>
</g>
<defs>
<clipPath id="clip0_2439_5920">
<rect width="449.644" height="302" fill="white" transform="translate(41 28)"/>
</clipPath>
</defs>
</svg>
