<svg width="531" height="329" viewBox="0 0 531 329" fill="none" xmlns="http://www.w3.org/2000/svg">
<path opacity="0.2" d="M72.788 327.839C35.4882 290.535 -15.4942 252.012 4.49494 193.818C17.6478 155.541 49.8804 144.88 76.6859 121.276C89.9087 109.631 81.5932 92.6757 81.3433 75.8481C80.7836 32.7513 133.135 -0.687543 181.269 0.010739C233.401 0.768031 255.969 48.9102 299.705 51.4968C316.876 51.7426 332.257 42.4781 347.449 35.1314C392.465 13.3371 463.906 27.2339 467.514 79.9296C468.444 108.392 433.183 154.174 468.514 169.143C496.668 181.072 525.113 185.469 530.19 228.133C536.837 283.976 501.716 314.621 455.971 329L72.788 327.839Z" fill="#999999"/>
<g clip-path="url(#clip0_2443_7908)">
<path d="M157.62 102C157.62 103.99 156.01 105.61 154.01 105.61H105.61C103.62 105.61 102 104 102 102V53.61C102 51.62 103.61 50 105.61 50H154.01C156 50 157.62 51.61 157.62 53.61V102Z" fill="#E527BB"/>
<path d="M153.993 98.3801C153.993 100.37 152.383 101.99 150.383 101.99H109.243C107.253 101.99 105.633 100.38 105.633 98.3801V57.2301C105.633 55.2401 107.243 53.6201 109.243 53.6201H150.383C152.373 53.6201 153.993 55.2301 153.993 57.2301V98.3801Z" fill="white"/>
<path d="M145.902 81.0499L129.692 79.8399L128.472 61.6799L127.212 80.4699C127.112 80.6699 127.062 80.8999 127.072 81.1399C127.102 81.5199 127.292 81.8399 127.562 82.0599C127.822 82.3099 128.172 82.4499 128.552 82.4299C128.722 82.4199 128.892 82.3699 129.032 82.2999L145.902 81.0499Z" fill="#E527BB"/>
<path d="M129.551 96.97C128.311 96.97 127.071 96.85 125.871 96.62C125.671 96.58 125.551 96.39 125.581 96.2C125.621 96 125.811 95.88 126.001 95.92C127.381 96.19 128.821 96.3 130.221 96.25C130.421 96.23 130.591 96.4 130.591 96.6C130.601 96.8 130.441 96.97 130.241 96.97C130.021 96.96 129.791 96.97 129.551 96.97ZM139.761 93.96C139.641 93.96 139.531 93.9 139.461 93.8C139.351 93.63 139.401 93.41 139.571 93.3C140.761 92.53 141.861 91.63 142.841 90.61C142.981 90.47 143.211 90.46 143.351 90.6C143.491 90.74 143.501 90.97 143.361 91.11C142.341 92.17 141.201 93.11 139.961 93.91C139.891 93.94 139.821 93.96 139.761 93.96ZM117.011 92.17C116.921 92.17 116.841 92.14 116.771 92.08C115.671 91.1 114.691 89.99 113.851 88.79C113.741 88.63 113.781 88.4 113.941 88.29C114.101 88.18 114.331 88.21 114.441 88.38C115.251 89.54 116.201 90.6 117.251 91.55C117.401 91.68 117.411 91.91 117.281 92.06C117.211 92.13 117.111 92.17 117.011 92.17ZM147.861 82.46C147.831 82.46 147.811 82.46 147.781 82.45C147.591 82.4 147.471 82.21 147.511 82.02C147.831 80.65 147.991 79.24 147.991 77.81C147.991 76.91 147.931 76.01 147.801 75.12C147.771 74.92 147.911 74.74 148.111 74.71C148.301 74.68 148.491 74.82 148.521 75.01C148.651 75.93 148.721 76.87 148.721 77.8C148.721 79.28 148.551 80.75 148.221 82.17C148.171 82.34 148.021 82.46 147.861 82.46ZM110.801 79.54C110.611 79.54 110.451 79.4 110.441 79.21C110.411 78.75 110.391 78.27 110.391 77.81C110.391 76.81 110.471 75.8 110.621 74.82C110.651 74.62 110.841 74.49 111.031 74.52C111.231 74.55 111.361 74.74 111.331 74.93C111.181 75.88 111.111 76.85 111.111 77.81C111.111 78.26 111.131 78.71 111.161 79.16C111.171 79.36 111.021 79.53 110.831 79.55C110.821 79.54 110.811 79.54 110.801 79.54ZM144.131 66.3C144.031 66.3 143.921 66.25 143.851 66.17C142.961 65.07 141.941 64.08 140.821 63.21C140.661 63.09 140.631 62.86 140.761 62.7C140.881 62.54 141.111 62.51 141.271 62.64C142.431 63.54 143.491 64.57 144.421 65.71C144.551 65.86 144.521 66.09 144.371 66.22C144.291 66.27 144.211 66.3 144.131 66.3ZM115.101 66.14C115.021 66.14 114.941 66.11 114.871 66.06C114.721 65.93 114.701 65.7 114.821 65.55C115.761 64.42 116.831 63.4 118.001 62.51C118.161 62.39 118.391 62.42 118.511 62.58C118.631 62.74 118.601 62.97 118.441 63.09C117.311 63.94 116.281 64.93 115.381 66.01C115.311 66.1 115.201 66.14 115.101 66.14ZM131.811 59.5C131.801 59.5 131.781 59.5 131.771 59.5C130.381 59.33 128.931 59.33 127.541 59.48C127.351 59.5 127.161 59.36 127.141 59.16C127.121 58.96 127.261 58.78 127.461 58.76C128.901 58.6 130.411 58.61 131.861 58.78C132.061 58.8 132.201 58.98 132.171 59.18C132.151 59.37 131.991 59.5 131.811 59.5Z" fill="#A78BEF"/>
<path d="M45.2428 316.07C45.2428 316.07 43.5628 313.47 45.2428 310.6C46.9228 307.74 66.9128 295.11 60.9728 290.16C55.0328 285.21 44.4928 299.01 44.4928 299.01C44.4928 299.01 35.4428 273.1 24.2628 278.05C13.0828 283 26.3428 300.05 26.3428 300.05C26.3428 300.05 21.4928 300.7 21.5928 305.91C21.6928 311.12 32.6728 307.99 34.8528 316.07H45.2428Z" fill="#13A024"/>
<path d="M32.8293 316.07C32.8293 316.07 34.5093 313.47 32.8293 310.6C31.1493 307.74 11.1593 295.11 17.0993 290.16C23.0393 285.21 33.5793 299.01 33.5793 299.01C33.5793 299.01 42.6293 273.1 53.8093 278.05C64.9893 283 51.7293 300.05 51.7293 300.05C51.7293 300.05 56.5793 300.7 56.4793 305.91C56.3793 311.12 45.3993 307.99 43.2193 316.07H32.8293Z" fill="#10C42A"/>
<path d="M26.336 313.26H53.286C53.286 313.26 53.416 326.54 39.806 326.54C26.206 326.54 26.336 313.26 26.336 313.26Z" fill="#FF402C"/>
<path d="M33.5682 319.12C32.7082 317.32 31.9382 315.32 31.4482 313.26H26.3282C26.3282 313.26 26.2082 326.2 39.2982 326.52C36.9582 324.64 35.0382 322.26 33.5682 319.12Z" fill="#C43A30"/>
<path d="M491.819 268.81H488.969V323.7H491.819V268.81Z" fill="#303D60"/>
<path d="M493.692 268.81H487.102V281.42H493.692V268.81Z" fill="#40598F"/>
<path d="M469.832 260.67C469.832 260.67 469.852 260.67 469.892 260.68C469.922 260.68 469.962 260.68 470.012 260.68C470.142 260.69 470.352 260.72 470.622 260.77C471.172 260.85 471.982 260.97 473.012 261.1C474.042 261.24 475.282 261.36 476.672 261.46C478.062 261.55 479.612 261.6 481.232 261.54C482.852 261.48 484.542 261.33 486.222 260.97C487.062 260.82 487.892 260.59 488.722 260.34C489.142 260.22 489.542 260.07 489.952 259.93C490.352 259.76 490.762 259.62 491.152 259.42C492.752 258.72 494.272 257.79 495.762 256.66C495.832 256.61 495.262 257.07 495.512 256.86L495.532 256.84L495.572 256.8L495.662 256.72L495.842 256.57L496.022 256.42L496.112 256.35H496.102C496.092 256.35 496.082 256.35 496.072 256.35C496.072 256.35 496.072 256.35 496.072 256.36C496.072 256.37 496.112 256.31 496.132 256.29C496.332 256.07 496.562 255.77 496.792 255.44C497.262 254.76 497.752 253.89 498.232 252.99C499.162 251.16 499.992 249.08 500.682 246.99C501.022 245.94 501.352 244.87 501.632 243.81C501.902 242.74 502.162 241.68 502.392 240.63C502.832 238.52 503.162 236.46 503.372 234.49C503.592 232.52 503.702 230.65 503.702 228.93C503.702 227.21 503.652 225.62 503.512 224.22C503.462 223.52 503.362 222.87 503.302 222.26C503.202 221.66 503.122 221.1 503.042 220.6C502.852 219.61 502.712 218.8 502.562 218.28C502.442 217.74 502.372 217.45 502.372 217.45L502.302 217.14C501.912 215.39 503.022 213.66 504.762 213.28C506.072 212.99 507.362 213.54 508.092 214.56C508.092 214.56 508.302 214.85 508.692 215.4C509.092 215.95 509.612 216.79 510.252 217.9C510.542 218.46 510.872 219.08 511.202 219.77C511.502 220.47 511.872 221.22 512.172 222.05C512.832 223.7 513.392 225.6 513.882 227.72C514.122 228.78 514.312 229.88 514.502 231.04C514.652 232.19 514.792 233.39 514.882 234.62C515.042 237.08 515.052 239.69 514.832 242.37C514.632 245.05 514.192 247.81 513.532 250.59C513.202 251.98 512.792 253.38 512.342 254.79C511.862 256.19 511.332 257.59 510.672 259.01C510.022 260.43 509.292 261.84 508.312 263.28C507.822 264.01 507.292 264.73 506.652 265.48C506.562 265.58 506.512 265.65 506.402 265.77L506.062 266.12C505.832 266.35 505.602 266.59 505.372 266.81L505.202 266.98L505.102 267.06L504.922 267.22L504.742 267.38L504.652 267.46L504.602 267.5L504.282 267.76C501.742 269.73 498.852 271.24 495.932 272.25C495.212 272.52 494.462 272.69 493.732 272.9C492.992 273.06 492.272 273.24 491.542 273.36C490.092 273.59 488.672 273.72 487.302 273.75C484.562 273.8 482.052 273.46 479.832 272.94C477.612 272.41 475.682 271.73 474.042 270.98C472.402 270.25 471.052 269.47 469.982 268.79C468.912 268.1 468.112 267.48 467.572 267.04C467.302 266.82 467.092 266.64 466.942 266.51C466.862 266.44 466.792 266.38 466.752 266.35C466.722 266.32 466.702 266.31 466.702 266.31C465.402 265 465.402 262.89 466.702 261.58C467.522 260.76 468.672 260.45 469.732 260.67H469.832Z" fill="#303D60"/>
<path d="M474.648 325.05C474.648 321.71 481.698 318.99 490.388 318.99C499.078 318.99 506.128 321.7 506.128 325.05H474.648Z" fill="#303D60"/>
<path d="M497.429 263.87C513.309 255.85 509.679 222.55 504.369 213.41C502.869 213.96 501.969 215.53 502.319 217.14L502.389 217.45C502.389 217.45 502.449 217.74 502.579 218.28C502.729 218.8 502.869 219.61 503.059 220.6C503.139 221.1 503.219 221.66 503.319 222.26C503.379 222.87 503.479 223.52 503.529 224.22C503.669 225.61 503.719 227.21 503.719 228.93C503.719 230.65 503.609 232.53 503.389 234.49C503.189 236.46 502.849 238.52 502.409 240.63C502.179 241.68 501.919 242.74 501.649 243.81C501.359 244.87 501.029 245.94 500.699 246.99C500.009 249.09 499.179 251.17 498.249 252.99C497.779 253.89 497.289 254.76 496.809 255.44C496.569 255.77 496.339 256.07 496.149 256.29C496.139 256.31 496.109 256.34 496.099 256.35C496.109 256.35 496.109 256.34 496.119 256.35H496.129L496.039 256.42L495.859 256.57L495.699 256.71C495.719 256.69 495.749 256.68 495.769 256.66C495.839 256.61 495.269 257.07 495.519 256.86L495.539 256.84L495.579 256.8L495.669 256.72L495.689 256.7C494.219 257.8 492.719 258.72 491.149 259.4C490.759 259.59 490.349 259.73 489.949 259.91C489.539 260.04 489.139 260.2 488.719 260.32C487.899 260.57 487.069 260.8 486.219 260.95C484.549 261.31 482.849 261.46 481.229 261.52C479.609 261.58 478.069 261.53 476.669 261.44C475.279 261.34 474.039 261.21 473.009 261.08C471.979 260.95 471.169 260.83 470.619 260.75C470.349 260.7 470.149 260.68 470.009 260.66C469.959 260.66 469.909 260.66 469.889 260.66C469.849 260.65 469.829 260.65 469.829 260.65L469.769 260.64C468.709 260.42 467.559 260.73 466.739 261.55C466.429 261.86 466.199 262.21 466.039 262.59C471.829 265.74 484.199 270.55 497.429 263.87Z" fill="#40598F"/>
<path d="M81.0453 268.81H78.1953V323.7H81.0453V268.81Z" fill="#303D60"/>
<path d="M82.9181 268.81H76.3281V281.42H82.9181V268.81Z" fill="#40598F"/>
<path d="M100.178 260.67C100.178 260.67 100.158 260.67 100.118 260.68C100.088 260.68 100.048 260.68 99.9979 260.68C99.8679 260.69 99.6579 260.72 99.3879 260.77C98.8479 260.85 98.0279 260.97 96.9979 261.1C95.9679 261.24 94.7279 261.36 93.3379 261.46C91.9479 261.55 90.3979 261.6 88.7779 261.54C87.1579 261.48 85.4679 261.33 83.7879 260.97C82.9479 260.82 82.1179 260.59 81.2879 260.34C80.8679 260.22 80.4679 260.07 80.0579 259.93C79.6579 259.76 79.2479 259.62 78.8579 259.42C77.2579 258.72 75.7379 257.79 74.2479 256.66C74.1779 256.61 74.7479 257.07 74.4979 256.86L74.4779 256.84L74.4379 256.8L74.3479 256.72L74.1679 256.57L73.9879 256.42L73.8979 256.35H73.9079C73.9179 256.35 73.9279 256.35 73.9379 256.35C73.9379 256.35 73.9379 256.35 73.9379 256.36C73.9479 256.37 73.8979 256.31 73.8779 256.29C73.6779 256.07 73.4479 255.77 73.2179 255.44C72.7479 254.76 72.2579 253.89 71.7779 252.99C70.8479 251.16 70.0179 249.08 69.3279 246.99C68.9879 245.94 68.6579 244.87 68.3779 243.81C68.1079 242.74 67.8479 241.68 67.6179 240.63C67.1779 238.52 66.8479 236.46 66.6379 234.49C66.4179 232.52 66.3079 230.65 66.3079 228.93C66.3079 227.21 66.3579 225.62 66.4979 224.22C66.5479 223.52 66.6479 222.87 66.7079 222.26C66.7979 221.66 66.8879 221.1 66.9679 220.6C67.1579 219.61 67.2979 218.8 67.4479 218.28C67.5679 217.74 67.6279 217.45 67.6279 217.45L67.6979 217.14C68.0879 215.39 66.9779 213.66 65.2379 213.28C63.9279 212.99 62.6379 213.54 61.9079 214.56C61.9079 214.56 61.6979 214.85 61.3079 215.4C60.9079 215.95 60.3879 216.79 59.7479 217.9C59.4579 218.46 59.1179 219.08 58.7979 219.77C58.4979 220.47 58.1279 221.22 57.8279 222.05C57.1679 223.7 56.6079 225.6 56.1179 227.72C55.8779 228.78 55.6879 229.88 55.4979 231.04C55.3479 232.19 55.2079 233.39 55.1179 234.62C54.9579 237.08 54.9479 239.69 55.1679 242.37C55.3679 245.05 55.8079 247.81 56.4679 250.59C56.7979 251.98 57.2079 253.38 57.6579 254.79C58.1379 256.19 58.6679 257.59 59.3279 259.01C59.9779 260.43 60.7079 261.84 61.6879 263.28C62.1779 264.01 62.7079 264.73 63.3479 265.48C63.4379 265.58 63.4779 265.65 63.5979 265.77L63.9379 266.12C64.1679 266.35 64.3979 266.59 64.6279 266.81L64.7979 266.98L64.8879 267.06L65.0679 267.22L65.2479 267.38L65.3379 267.46L65.3879 267.5L65.7079 267.76C68.2479 269.73 71.1379 271.24 74.0579 272.25C74.7879 272.52 75.5279 272.69 76.2579 272.9C76.9979 273.06 77.7179 273.24 78.4479 273.36C79.8979 273.59 81.3179 273.72 82.6879 273.75C85.4279 273.8 87.9379 273.46 90.1579 272.94C92.3779 272.41 94.3079 271.73 95.9479 270.98C97.5879 270.25 98.9279 269.47 100.008 268.79C101.078 268.1 101.878 267.48 102.418 267.04C102.688 266.82 102.898 266.64 103.048 266.51C103.128 266.44 103.198 266.38 103.238 266.35C103.268 266.32 103.288 266.31 103.288 266.31C104.588 265 104.588 262.89 103.288 261.58C102.468 260.76 101.318 260.45 100.258 260.67H100.178Z" fill="#303D60"/>
<path d="M95.355 325.05C95.355 321.71 88.305 318.99 79.615 318.99C70.925 318.99 63.875 321.7 63.875 325.05H95.355Z" fill="#303D60"/>
<path d="M72.5893 263.87C56.7093 255.85 60.3393 222.55 65.6593 213.41C67.1593 213.96 68.0593 215.53 67.7093 217.14L67.6393 217.45C67.6393 217.45 67.5793 217.74 67.4593 218.28C67.3093 218.8 67.1693 219.61 66.9793 220.6C66.8993 221.1 66.8193 221.66 66.7193 222.26C66.6593 222.87 66.5593 223.52 66.5093 224.22C66.3693 225.61 66.3193 227.21 66.3193 228.93C66.3193 230.65 66.4293 232.53 66.6493 234.49C66.8493 236.46 67.1893 238.52 67.6293 240.63C67.8593 241.68 68.1193 242.74 68.3893 243.81C68.6793 244.87 69.0093 245.94 69.3393 246.99C70.0293 249.09 70.8593 251.17 71.7893 252.99C72.2693 253.89 72.7493 254.76 73.2293 255.44C73.4693 255.77 73.6993 256.07 73.8893 256.29C73.8993 256.31 73.9293 256.34 73.9393 256.35C73.9293 256.35 73.9293 256.34 73.9193 256.35H73.9093L73.9993 256.42L74.1793 256.57L74.3393 256.71C74.3193 256.69 74.2893 256.68 74.2693 256.66C74.1993 256.61 74.7693 257.07 74.5193 256.86L74.4993 256.84L74.4593 256.8L74.3693 256.72L74.3493 256.7C75.8193 257.8 77.3193 258.72 78.8893 259.4C79.2793 259.59 79.6893 259.73 80.0893 259.91C80.4993 260.04 80.8993 260.2 81.3193 260.32C82.1393 260.57 82.9693 260.8 83.8193 260.95C85.4893 261.31 87.1893 261.46 88.8093 261.52C90.4293 261.58 91.9693 261.53 93.3693 261.44C94.7593 261.34 95.9993 261.21 97.0293 261.08C98.0593 260.95 98.8693 260.83 99.4193 260.75C99.6893 260.7 99.8893 260.68 100.029 260.66C100.079 260.66 100.119 260.66 100.149 260.66C100.189 260.65 100.209 260.65 100.209 260.65L100.269 260.64C101.329 260.42 102.479 260.73 103.299 261.55C103.609 261.86 103.839 262.21 103.999 262.59C98.1893 265.74 85.8093 270.55 72.5893 263.87Z" fill="#40598F"/>
<path d="M226.562 137.26C228.242 132.84 233.412 137.72 237.562 146.4C241.442 154.53 245.492 166.11 245.492 166.11L263.662 144.61C263.662 144.61 262.412 139.23 263.732 136.6C265.052 133.97 267.592 131.19 267.872 132.36C268.152 133.53 265.392 137.17 265.932 137.61C266.472 138.04 272.142 130.44 273.052 130.02C273.962 129.6 276.752 135.9 273.182 141.59C270.322 146.15 266.172 147.27 266.172 147.27C266.172 147.27 252.602 183.53 242.982 180.4C236.192 178.2 221.732 150 226.562 137.26Z" fill="#EAA294"/>
<path d="M268.889 137.29C272.059 134.81 273.329 131.64 273.339 131.61C273.369 131.53 273.459 131.5 273.539 131.53C273.619 131.56 273.659 131.65 273.619 131.73C273.609 131.76 272.309 135.01 269.069 137.54C269.049 137.56 269.019 137.57 268.989 137.57C268.939 137.57 268.889 137.55 268.859 137.51C268.809 137.44 268.819 137.34 268.889 137.29Z" fill="#EF7E82"/>
<path d="M269.742 139.13C273.052 137.61 273.912 133.77 273.912 133.73C273.932 133.65 274.012 133.6 274.092 133.61C274.172 133.63 274.222 133.71 274.212 133.79C274.202 133.83 273.322 137.82 269.872 139.4C269.852 139.41 269.832 139.41 269.822 139.41C269.762 139.42 269.702 139.38 269.672 139.32C269.632 139.25 269.672 139.16 269.742 139.13Z" fill="#EF7E82"/>
<path d="M273.933 137.28C273.933 137.2 273.993 137.14 274.073 137.14C274.153 137.14 274.223 137.2 274.233 137.28C274.243 137.5 273.353 139.59 271.043 141.23C271.023 141.25 270.993 141.25 270.963 141.26C270.913 141.26 270.863 141.24 270.833 141.2C270.783 141.13 270.803 141.04 270.863 140.99C273.073 139.42 273.883 137.51 273.933 137.28Z" fill="#EF7E82"/>
<path d="M231.369 137.13C232.489 137.53 240.199 146.99 245.669 165.33L247.259 162.59L252.179 175.08C252.179 175.08 248.349 181.53 243.749 181.03C239.149 180.54 231.359 167.95 231.359 167.95V137.13H231.369Z" fill="#E527BB"/>
<path d="M245.898 164.93L247.248 162.6L252.168 175.09C252.168 175.09 251.238 176.66 249.738 178.19C248.328 175.42 247.558 172.18 246.748 169.28C246.388 167.86 246.098 166.4 245.898 164.93Z" fill="#D318AF"/>
<path d="M255.724 173.82C255.704 174.65 252.834 176.55 251.974 176.66C251.124 176.77 244.524 164.81 245.574 163.33C246.624 161.85 249.244 159.64 250.044 160.37C250.864 161.1 255.724 173.82 255.724 173.82Z" fill="#E527BB"/>
<path d="M233.805 140.36L232.235 134.79L224.335 130.42L222.695 133.61L233.805 140.36Z" fill="#7BAAD6"/>
<path d="M276.048 317.78C276.048 317.78 274.128 316.56 273.548 315.58C272.958 314.6 269.398 304.95 264.958 300.3L260.318 287.29L253.258 289.81L259.358 304.08C259.358 304.08 257.188 305.95 257.628 307.9C257.628 307.9 264.298 310.3 266.118 314.39C267.928 318.48 269.928 320.26 269.928 320.26L276.048 317.78Z" fill="#EAA294"/>
<path d="M257.56 304.72C257.56 304.72 255.62 307.93 256.84 310.36C256.84 310.36 263.45 311.76 264.9 315.16C266.35 318.56 268.21 322.11 268.69 322.12C269.17 322.13 281.88 317.5 281.88 317.5C281.88 317.5 278.12 316.44 275.05 315.82C275.05 315.82 270.92 319.55 270.04 318.91C269.16 318.27 266.28 311.65 264.52 309.42C261.81 305.99 257.56 304.72 257.56 304.72Z" fill="#E527BB"/>
<path d="M263.876 324.11C263.876 324.11 259.226 314.72 256.836 310.36C256.836 310.36 260.106 308.38 261.656 311.21L265.146 323.66L263.876 324.11Z" fill="#E527BB"/>
<path d="M195.131 320.61C195.131 320.61 194.431 318.45 194.591 317.32C194.761 316.19 198.161 306.48 197.691 300.07L202.391 287.08L195.351 284.53L190.971 299.42C190.971 299.42 188.101 299.48 187.211 301.27C187.211 301.27 190.831 307.37 189.631 311.68C188.431 315.99 188.841 318.63 188.841 318.63L195.131 320.61Z" fill="#EAA294"/>
<path d="M189.179 298.77C189.179 298.77 185.639 300.01 185.039 302.66C185.039 302.66 189.249 307.95 188.199 311.5C187.159 315.04 186.329 318.97 186.689 319.28C187.049 319.59 199.809 324.11 199.809 324.11C199.809 324.11 197.579 320.9 195.609 318.46C195.609 318.46 190.049 318.71 189.779 317.65C189.509 316.6 191.499 309.65 191.559 306.82C191.649 302.46 189.179 298.77 189.179 298.77Z" fill="#E527BB"/>
<path d="M181.719 317.75C181.719 317.75 184.109 307.54 185.039 302.66C185.039 302.66 188.819 303.22 188.209 306.38L182.979 318.2L181.719 317.75Z" fill="#E527BB"/>
<path d="M211.016 196.65C211.016 196.65 211.116 239.51 208.046 244.82C204.976 250.13 193.796 270.25 190.156 295.69C190.156 295.69 194.246 299.45 200.586 298.13C200.586 298.13 224.866 242.59 229.726 223.03C234.586 203.46 211.016 196.65 211.016 196.65Z" fill="#35262A"/>
<path d="M211.017 196.65C211.017 196.65 211.037 206.45 210.727 217.26C212.657 221.54 214.237 225.98 215.677 230.28C217.657 235.79 219.767 241.64 221.407 247.56C225.137 237.8 228.287 228.83 229.727 223.02C234.587 203.46 211.017 196.65 211.017 196.65Z" fill="#231F20"/>
<path d="M211.016 185.28C211.016 185.28 219.576 188.37 235.326 186.41C235.326 186.41 245.776 230.43 250.526 248.8C255.276 267.18 266.456 298.12 266.456 298.12C266.456 298.12 263.386 300.65 256.956 300.68C256.956 300.68 241.686 280.47 238.226 262.6C234.416 242.97 220.526 222.51 217.076 215.98C213.626 209.47 207.556 202.32 211.016 185.28Z" fill="#231F20"/>
<path d="M237.018 193.52C235.978 189.15 235.328 186.42 235.328 186.42C219.578 188.38 211.018 185.29 211.018 185.29C210.308 188.77 210.018 191.82 210.008 194.56C218.838 195.02 227.998 194.55 237.018 193.52Z" fill="#D318AF"/>
<path d="M222.196 133.26C215.976 138.93 208.506 163.04 209.346 185.92C209.346 185.92 222.196 191.66 236.006 186.43C236.006 186.43 237.686 163.53 235.196 148.44C232.716 133.36 225.936 129.85 222.196 133.26Z" fill="#E527BB"/>
<path d="M225.876 165.64C226.786 154.31 228.016 142.82 223.386 132.46C222.966 132.66 222.566 132.92 222.196 133.26C215.976 138.93 208.506 163.04 209.346 185.92C209.346 185.92 216.926 189.3 226.696 188.51C223.736 181.56 225.236 173.98 225.876 165.64Z" fill="#E527BB"/>
<path d="M223.036 171.12C223.576 171.75 222.726 175.08 222.166 175.74C221.716 176.27 213.206 173.48 209.836 171.44C210.046 169.33 210.306 167.25 210.626 165.21C213.616 166.35 223.036 171.12 223.036 171.12Z" fill="#D318AF"/>
<path d="M213.751 217.12L206.591 201.03C206.521 200.87 206.371 200.75 206.201 200.72C206.021 200.69 205.851 200.74 205.721 200.86L199.321 207.03C199.161 207.19 199.111 207.44 199.201 207.64L206.431 223.67C206.501 223.83 206.651 223.94 206.821 223.98C206.851 223.99 206.891 223.99 206.921 223.99C207.061 223.99 207.191 223.94 207.301 223.84L213.641 217.73C213.801 217.57 213.841 217.33 213.751 217.12Z" fill="#A78BEF"/>
<path d="M213.75 217.12L206.59 201.03C206.52 200.87 206.37 200.75 206.2 200.72C206.02 200.69 205.85 200.74 205.72 200.86L205.32 201.25L212.39 217.12C212.48 217.33 212.43 217.57 212.27 217.73L206.34 223.45L206.44 223.67C206.51 223.83 206.66 223.94 206.83 223.98C206.86 223.99 206.9 223.99 206.93 223.99C207.07 223.99 207.2 223.94 207.31 223.84L213.65 217.73C213.8 217.57 213.84 217.33 213.75 217.12Z" fill="#412249"/>
<path d="M221.904 134.97C218.024 134.12 211.874 153.38 209.844 166.37C207.824 179.37 205.434 203.43 205.434 203.43C205.434 203.43 199.484 209.83 199.734 211.08C199.984 212.33 201.484 212.63 201.484 212.63C201.484 212.63 200.784 214.53 202.384 215.08C202.384 215.08 201.794 217.65 203.844 217.55C203.844 217.55 209.934 209.88 210.394 210.13C210.844 210.38 213.044 215.51 213.044 215.51C213.044 215.51 215.704 209.76 211.224 204C211.224 204 218.284 180.14 222.374 164.55C226.474 148.98 227.914 136.28 221.904 134.97Z" fill="#EAA294"/>
<path d="M201.491 212.82C201.451 212.82 201.411 212.81 201.381 212.78C201.301 212.72 201.291 212.6 201.351 212.53L203.331 210.12C203.391 210.04 203.511 210.03 203.581 210.09C203.661 210.15 203.671 210.27 203.611 210.34L201.631 212.75C201.591 212.8 201.541 212.82 201.491 212.82Z" fill="#EF7E82"/>
<path d="M202.389 215.27C202.349 215.27 202.299 215.25 202.269 215.22C202.199 215.15 202.189 215.04 202.259 214.97L204.859 212.24C204.929 212.17 205.039 212.17 205.109 212.23C205.179 212.3 205.189 212.41 205.119 212.48L202.519 215.21C202.479 215.25 202.429 215.27 202.389 215.27Z" fill="#EF7E82"/>
<path d="M231.561 137.7L232.231 125.17L236.571 125.91L237.901 120.31L241.141 119.79L236.351 107.56L224.041 105.79L225.251 125.1L223.281 132.87L231.561 137.7Z" fill="#EAA294"/>
<path d="M232.231 125.17L232.001 129.4L227.211 124.36L232.231 125.17Z" fill="#EF7E82"/>
<path d="M241.142 119.79L237.902 120.31L237.102 119.49L241.142 119.79Z" fill="#EF7E82"/>
<path d="M239.485 105.79C238.815 107.12 232.885 112.06 226.775 112.02C226.775 112.02 223.995 115.34 224.745 119.28C225.495 123.22 229.105 126.32 224.375 129.77C219.645 133.23 208.295 131.09 206.535 124.36C204.775 117.63 208.765 111.23 213.185 107.15C213.755 106.62 213.365 101.52 218.635 98.9501C228.535 94.1101 241.845 101.11 239.485 105.79Z" fill="#231F20"/>
<path d="M229.666 108.29C233.196 107.55 234.626 104.59 235.716 101.47C235.836 101.11 236.406 101.27 236.286 101.63C235.476 103.95 234.546 106.23 232.526 107.74C229.946 109.68 226.256 108.69 223.826 110.99C220.976 113.7 222.516 118.19 223.586 121.32C224.516 124.08 225.396 126.41 223.436 128.9C223.196 129.2 222.786 128.78 223.016 128.48C225.316 125.57 223.066 121.94 222.186 118.85C221.406 116.11 221.346 113.33 223.086 110.95C224.566 108.92 227.406 108.77 229.666 108.29Z" fill="#606060"/>
<path d="M217.565 118.87C216.825 116.21 216.455 113.58 217.695 111.01C218.835 108.64 221.355 107.21 223.545 105.97C226.585 104.25 229.085 102.32 231.045 99.39C231.255 99.07 231.765 99.37 231.555 99.69C229.915 102.14 227.885 104.1 225.355 105.62C222.475 107.35 219.175 108.75 217.855 112.1C215.695 117.56 222.575 124.37 216.645 128.57C216.335 128.79 216.045 128.28 216.345 128.06C219.635 125.73 218.495 122.18 217.565 118.87Z" fill="#606060"/>
<path d="M210.498 118.13C210.658 115.59 211.738 113.23 212.988 111.06C215.688 106.36 219.678 102.53 223.178 98.44C223.428 98.15 223.838 98.57 223.598 98.86C219.998 103.05 216.028 106.97 213.248 111.79C211.768 114.36 210.848 117.2 211.118 120.18C211.318 122.41 212.908 124.97 211.848 127.14C211.678 127.48 211.178 127.18 211.338 126.84C212.068 125.35 211.158 123.41 210.818 121.9C210.528 120.66 210.428 119.42 210.498 118.13Z" fill="#606060"/>
<path d="M220.438 117.58C220.438 119.76 222.198 121.52 224.378 121.52C226.548 121.52 228.318 119.76 228.318 117.58C228.318 115.41 226.558 113.64 224.378 113.64C222.208 113.65 220.438 115.41 220.438 117.58Z" fill="#EAA294"/>
<path d="M222.891 115.95C223.841 115.82 224.961 115.85 225.631 116.65C225.951 117.03 226.171 117.45 226.291 117.87C225.651 117.68 224.921 117.82 224.791 118.62C224.661 119.38 225.111 120.06 225.821 120.28C225.761 120.36 225.691 120.45 225.621 120.53C225.461 120.7 225.721 120.95 225.871 120.78C226.921 119.65 227.111 118.11 226.201 116.8C225.401 115.65 224.231 115.4 222.891 115.58C222.661 115.62 222.661 115.98 222.891 115.95ZM226.381 118.29C226.461 118.86 226.341 119.44 226.031 119.98C225.471 119.84 225.001 119.33 225.141 118.72C225.281 118.07 225.861 118.05 226.381 118.29Z" fill="#EF7E82"/>
<path d="M231.606 141.47L232.236 134.79L223.286 130.42L221.656 133.61L231.606 141.47Z" fill="#F7E4DE"/>
<path d="M221.658 173.86L208.438 169.45C208.438 169.45 215.177 132.67 222.717 134.54C230.247 136.41 223.188 168.49 221.658 173.86Z" fill="#E527BB"/>
<path d="M222.52 170.4C223.06 171.03 222.21 174.36 221.65 175.02C221.09 175.68 208.18 171.24 207.96 169.44C207.74 167.64 208.2 164.24 209.28 164.24C210.37 164.24 222.52 170.4 222.52 170.4Z" fill="#D318AF"/>
<path d="M329.306 186.33L333.476 172.84L328.596 171.92L329.376 165.49L326.156 163.68L335.976 152.63L349.666 155.55L342.986 172.23L342.536 184.48L329.306 186.33Z" fill="#EAA294"/>
<path d="M333.473 172.84L332.062 177.39L339.082 173.93L333.473 172.84Z" fill="#EF7E82"/>
<path d="M326.156 163.68L329.376 165.49L330.546 164.94L326.156 163.68Z" fill="#83503D"/>
<path d="M336.775 143.8C338.955 144.1 340.795 145.48 342.545 146.69C344.745 144.16 347.475 143 350.595 144.83C353.805 146.61 354.125 149.51 352.865 152.69C356.205 152.98 359.255 153.85 359.685 157.57C360.095 160.71 358.835 165.13 355.755 166.5C354.365 167.18 352.745 166.95 351.295 166.67C351.825 169.04 351.835 172.02 348.565 171.75C345.995 171.58 344.225 169.27 344.295 166.82C344.305 165.88 344.515 164.99 344.795 164.11C342.515 162.77 342.445 160.29 343.625 158.36C341.215 158.23 337.975 157.3 338.735 154.84C335.565 154.45 329.795 154.02 329.805 149.68C329.825 146.21 333.415 143.29 336.775 143.8Z" fill="#231F20"/>
<path d="M334.497 145.74C334.617 145.36 335.227 145.5 335.107 145.88C334.607 147.45 334.647 148.83 335.937 149.98C337.637 151.5 340.287 151.97 342.477 151.78C342.677 151.76 342.837 151.97 342.787 152.16C342.067 155.12 345.057 156.95 347.677 156.7C348.077 156.66 348.097 157.28 347.697 157.32C344.767 157.6 341.637 155.52 342.107 152.41C339.737 152.54 337.407 151.87 335.507 150.43C333.977 149.28 333.967 147.41 334.497 145.74Z" fill="#606060"/>
<path d="M350.097 153.22C348.307 153.28 346.527 152.2 345.847 150.49C345.157 148.75 345.717 147.05 346.647 145.52C346.857 145.18 347.407 145.47 347.197 145.82C346.477 147.01 345.947 148.28 346.237 149.7C346.587 151.44 348.377 152.66 350.087 152.6C350.477 152.58 350.497 153.2 350.097 153.22Z" fill="#606060"/>
<path d="M352.007 155.58C353.937 156.54 355.657 157.94 355.347 160.28C355.057 162.45 353.107 163.74 351.097 163.59C351.777 165.47 350.997 168.16 349.237 169.09C348.887 169.28 348.557 168.75 348.907 168.56C350.537 167.7 351.237 164.94 350.317 163.37C350.177 163.14 350.387 162.85 350.657 162.9C352.907 163.38 354.767 161.74 354.787 159.46C354.807 157.79 352.987 156.75 351.707 156.11C351.347 155.95 351.647 155.4 352.007 155.58Z" fill="#606060"/>
<path d="M345.796 162.5C348.026 162.48 348.436 160.6 347.906 158.79C347.796 158.41 348.386 158.22 348.506 158.61C349.126 160.7 348.516 162.82 346.296 163.1C347.126 164.9 346.826 166.86 346.046 168.67C345.886 169.04 345.346 168.74 345.506 168.37C346.256 166.62 346.546 164.7 345.556 162.98C345.436 162.78 345.556 162.5 345.796 162.5Z" fill="#606060"/>
<path d="M348.883 169.41C348.033 171.71 345.483 172.88 343.193 172.04C340.903 171.19 339.723 168.65 340.573 166.35C341.423 164.05 343.973 162.88 346.263 163.72C348.553 164.56 349.733 167.11 348.883 169.41Z" fill="#EAA294"/>
<path d="M347.078 166.35C345.738 165.64 344.408 165.45 343.118 166.35C341.638 167.37 341.248 169.08 341.918 170.68C342.018 170.92 342.388 170.75 342.288 170.51C342.238 170.4 342.198 170.28 342.168 170.17C343.008 170.21 343.748 169.67 343.908 168.81C344.078 167.92 343.358 167.49 342.608 167.43C342.898 167.03 343.298 166.68 343.788 166.39C344.818 165.8 345.998 166.21 346.958 166.71C347.168 166.85 347.308 166.47 347.078 166.35ZM343.488 168.78C343.388 169.48 342.698 169.83 342.058 169.76C341.938 169.07 342.038 168.41 342.338 167.83C342.978 167.79 343.588 168.04 343.488 168.78Z" fill="#83503D"/>
<path d="M338.092 264.79H335.242V319.68H338.092V264.79Z" fill="#303D60"/>
<path d="M339.965 264.79H333.375V277.4H339.965V264.79Z" fill="#40598F"/>
<path d="M352.402 321.03C352.402 317.69 345.352 314.97 336.662 314.97C327.972 314.97 320.922 317.68 320.922 321.03H352.402Z" fill="#303D60"/>
<path d="M300.602 237.68C300.602 256.66 316.742 272.04 336.662 272.04C356.582 272.04 372.722 256.66 372.722 237.68C372.722 218.7 356.582 195.06 336.662 195.06C316.742 195.06 300.602 218.7 300.602 237.68Z" fill="#303D60"/>
<path d="M306.203 237.04C306.203 253.07 319.843 259.34 336.663 259.34C353.493 259.34 367.123 253.08 367.123 237.04C367.123 221.01 353.483 201.03 336.663 201.03C319.833 201.03 306.203 221.01 306.203 237.04Z" fill="#40598F"/>
<path d="M313.711 250.83C313.711 254.81 316.941 258.04 320.921 258.04H352.401C356.381 258.04 359.611 254.81 359.611 250.83V243.91C359.611 239.93 356.381 236.7 352.401 236.7H320.921C316.941 236.7 313.711 239.93 313.711 243.91V250.83Z" fill="#231F20"/>
<path d="M362.137 247.37H311.567C311.567 247.37 305.887 181.72 335.257 181.72C364.627 181.72 362.137 247.37 362.137 247.37Z" fill="#A78BEF"/>
<path d="M331.652 302.66H322.062V320.25H331.652V302.66Z" fill="#A96F49"/>
<path d="M350.027 302.66H340.438V320.25H350.027V302.66Z" fill="#A96F49"/>
<path d="M362.358 243.69C368.048 252.06 351.588 311.2 351.588 311.2C351.588 311.2 344.118 314.55 337.898 313.19C337.898 313.19 340.248 260.06 341.218 250.06C342.188 240.06 356.498 235.06 362.358 243.69Z" fill="#231F20"/>
<path d="M311.08 243.25C305.25 251.52 320.71 310.93 320.71 310.93C320.71 310.93 328.12 314.41 334.37 313.15C334.37 313.15 332.92 259.98 332.12 249.97C331.3 239.97 317.09 234.72 311.08 243.25Z" fill="#231F20"/>
<path d="M335.501 323.44C335.291 325.22 333.771 326.64 326.871 326.5C320.371 326.37 317.781 323.99 317.781 323.35C317.781 321.19 322.741 315.31 322.741 315.31C322.741 315.31 319.021 310.07 325.821 310.11C329.641 310.13 332.701 312.24 330.451 315.95C330.451 315.95 335.691 321.82 335.501 323.44Z" fill="#A78BEF"/>
<path d="M329.049 320.77C327.679 320.36 325.389 319.53 324.109 320.5C323.739 320.78 323.379 320.15 323.749 319.88C325.199 318.78 327.689 319.62 329.239 320.08C329.679 320.21 329.489 320.9 329.049 320.77Z" fill="#CDE2FD"/>
<path d="M328.182 317.59C327.052 316.59 325.242 317.2 324.112 317.88C323.712 318.12 323.352 317.5 323.752 317.26C325.202 316.39 327.292 315.84 328.692 317.08C329.032 317.39 328.522 317.9 328.182 317.59Z" fill="#CDE2FD"/>
<path d="M335.958 323.34C336.168 325.12 337.688 326.54 344.588 326.4C351.088 326.27 353.678 323.89 353.678 323.25C353.678 321.09 348.718 315.21 348.718 315.21C348.718 315.21 352.438 309.97 345.638 310.01C341.818 310.03 338.758 312.14 341.008 315.85C341.008 315.85 335.768 321.72 335.958 323.34Z" fill="#A78BEF"/>
<path d="M342.409 320.67C343.779 320.26 346.069 319.43 347.349 320.4C347.719 320.68 348.079 320.05 347.709 319.78C346.259 318.68 343.769 319.52 342.219 319.98C341.779 320.11 341.969 320.8 342.409 320.67Z" fill="#CDE2FD"/>
<path d="M343.275 317.49C344.405 316.49 346.205 317.1 347.345 317.78C347.745 318.02 348.105 317.4 347.705 317.16C346.255 316.29 344.165 315.74 342.765 316.98C342.415 317.29 342.935 317.8 343.275 317.49Z" fill="#CDE2FD"/>
<path d="M321.419 188.63C314.559 193.87 293.159 231.45 298.449 236.7C303.739 241.95 322.059 240.32 322.059 240.32L321.419 188.63Z" fill="#876BE8"/>
<path d="M311.133 225.84C308.123 221.41 318.763 197.29 321.463 191.34L321.973 232.21C318.283 231.01 313.203 228.9 311.133 225.84Z" fill="#876BE8"/>
<path d="M349.085 188.63C355.945 193.87 377.345 231.45 372.055 236.7C366.765 241.95 348.445 240.32 348.445 240.32L349.085 188.63Z" fill="#876BE8"/>
<path d="M359.387 225.84C362.397 221.41 351.757 197.29 349.057 191.34L348.547 232.21C352.237 231.01 357.307 228.9 359.387 225.84Z" fill="#A78BEF"/>
<path d="M343.188 184.94C343.188 184.94 343.637 178.21 343.147 177.99C342.667 177.77 331.947 176.63 331.337 177.16C330.727 177.69 328.938 184.17 328.938 184.17C328.938 184.17 339.628 186.32 343.188 184.94Z" fill="#876BE8"/>
<path d="M446.62 220.68L434.49 220.01C434.49 220.01 428.11 216.14 426.99 216.64C425.87 217.15 416.65 225.36 417.35 225.8C418.05 226.24 425.68 220.81 425.68 220.81C425.68 220.81 429.73 226.78 434.29 223.83L447.08 226.27L446.62 220.68Z" fill="#EF7E82"/>
<path d="M487.461 187.05C482.931 184.45 464.851 219.67 464.851 219.67H440.711V226.63C440.711 226.63 460.501 236.2 475.401 230.33C475.391 230.32 503.331 196.18 487.461 187.05Z" fill="#876BE8"/>
<path d="M426.519 219.8C426.519 219.8 422.339 226.54 421.139 226.73C419.949 226.93 421.859 224 422.569 222.94C423.299 221.88 426.339 218.81 426.519 219.8Z" fill="#EF7E82"/>
<path d="M427.438 220.47C427.438 220.47 424.258 226.56 423.568 226.24C422.878 225.92 424.928 220.79 426.048 220.04C427.178 219.28 427.438 220.47 427.438 220.47Z" fill="#EF7E82"/>
<path d="M382.648 320.92C382.648 320.92 392.878 307.48 394.528 305.06C396.178 302.65 401.698 293.08 401.698 293.08L409.198 296.27L401.868 307.39C401.868 307.39 402.898 311.87 402.988 314.54C402.988 314.54 387.728 321.44 382.648 320.92Z" fill="#EAA294"/>
<path d="M394.531 299.79C394.531 299.79 400.961 305.28 407.391 304.32C407.391 304.32 434.071 272.82 437.611 254.5L427.971 247.68L394.531 299.79Z" fill="#35262A"/>
<path d="M427.957 247.68L421.688 257.45C423.317 262.99 426.187 268.3 429.747 272.93C433.517 266.4 436.558 259.88 437.598 254.5L427.957 247.68Z" fill="#231F20"/>
<path d="M384.798 318.09C384.798 318.09 394.168 317.71 402.708 311.86C402.708 311.86 404.189 312.9 403.759 315.83C403.759 315.83 384.029 324.1 378.169 324.1C376.599 324.11 384.798 318.09 384.798 318.09Z" fill="#A78BEF"/>
<path d="M457.969 295.15L469.559 305.85L467.489 321.67C467.489 321.67 472.949 322.63 474.559 318.78C476.169 314.92 477.129 304.43 477.129 304.43L465.299 291L457.969 295.15Z" fill="#EAA294"/>
<path d="M472.956 236.5L496.416 239.55C496.416 239.55 501.236 261.89 492.236 264.79C483.236 267.68 441.766 257.72 441.766 257.72L469.736 292.76C469.736 292.76 467.806 299.08 460.086 300.58C460.086 300.58 424.406 266.17 424.406 252.14C424.406 238.11 454.626 237.05 472.296 240.64L472.956 236.5Z" fill="#231F20"/>
<path d="M467.979 317.99C467.979 317.99 471.669 320.3 473.399 317.99C475.169 315.62 475.209 308.09 476.159 302.93C476.159 302.93 479.349 303.6 480.149 306.39C480.149 306.39 478.129 322.13 475.639 322.64C471.599 323.46 463.629 322.44 460.989 321.82C459.459 321.46 467.979 317.99 467.979 317.99Z" fill="#A78BEF"/>
<path d="M476.576 249.51C482.576 252.25 490.246 253.5 497.666 253.45C497.956 246.71 496.416 239.54 496.416 239.54L472.956 236.49L472.316 240.62C470.006 240.15 467.476 239.77 464.836 239.47C467.296 243.96 472.156 247.41 476.576 249.51Z" fill="#196DBA"/>
<path d="M469.688 240.15C469.688 240.15 479.707 255.18 499.897 248.43C499.897 248.43 505.138 189.23 492.658 186.57C473.418 185.01 471.487 213.68 469.688 240.15Z" fill="#A78BEF"/>
<path d="M490.011 233.54C495.011 224.46 498.011 209.45 497.091 199.44C496.831 196.81 493.961 195.75 492.381 193.51C491.461 192.06 491.061 192.59 490.411 194.04C489.091 196.8 488.431 199.83 487.511 202.73C486.061 206.68 484.221 210.63 481.721 214.05C478.821 218.29 475.091 221.53 470.941 224.25C470.431 229.46 470.071 234.84 469.711 240.14C469.711 240.14 471.171 242.32 474.091 244.65C480.601 243.15 486.401 240.17 490.011 233.54Z" fill="#A78BEF"/>
<path d="M429.724 223.97C429.724 223.97 425.004 230.34 423.804 230.44C422.604 230.54 424.734 227.78 425.544 226.78C426.344 225.77 429.624 222.96 429.724 223.97Z" fill="#EF7E82"/>
<path d="M430.597 224.7C430.597 224.7 426.927 230.51 426.267 230.14C425.607 229.77 428.057 224.82 429.247 224.16C430.427 223.5 430.597 224.7 430.597 224.7Z" fill="#EF7E82"/>
<path d="M449.636 224.65L437.486 224.3C437.486 224.3 431.006 220.6 429.896 221.13C428.796 221.67 419.806 229.8 420.516 230.22C421.226 230.64 428.686 225.33 428.686 225.33C428.686 225.33 432.896 231.19 437.376 228.13L450.226 230.23L449.636 224.65Z" fill="#EAA294"/>
<path d="M492.203 190.36C487.673 187.76 469.593 222.98 469.593 222.98H445.453V229.94C445.453 229.94 465.243 239.51 480.143 233.64C480.143 233.64 508.073 199.5 492.203 190.36Z" fill="#876BE8"/>
<path d="M472.631 223.8C481.061 218.27 485.661 206.55 489.221 197.47C490.111 195.1 490.911 192.68 491.661 190.25C486.381 190.32 469.601 222.99 469.601 222.99H445.461V224.36C454.251 226.26 464.851 228.95 472.631 223.8Z" fill="#A78BEF"/>
<path d="M481.608 192.24L481.828 179.25L477.278 179.7L476.318 173.82L473.008 173.05L478.838 160.76L491.678 159.82L490.068 176.27L492.828 187.21L481.608 192.24Z" fill="#EAA294"/>
<path d="M481.828 179.25L481.758 183.64L487.068 178.78L481.828 179.25Z" fill="#EF7E82"/>
<path d="M473.008 173.05L476.318 173.82L477.208 173.03L473.008 173.05Z" fill="#EF7E82"/>
<path d="M493.71 156.61C493.71 156.61 492.4 145.02 499.23 144.17C506.06 143.32 509.19 150.43 507.02 156.2C504.85 161.97 496.89 160.31 496.89 160.31L493.71 156.61Z" fill="#231F20"/>
<path d="M489.824 176.02C489.824 176.02 487.414 168.55 487.054 163.87C487.054 163.87 477.204 163.73 475.154 159.78C473.104 155.83 485.054 147.96 494.514 153.35C503.944 158.72 500.104 176.72 489.824 176.02Z" fill="#231F20"/>
<path d="M478.465 158.42C480.345 156.42 482.185 154.96 484.825 154.17C487.635 153.32 490.705 153.48 493.555 153.97C493.935 154.04 493.895 154.64 493.515 154.57C490.895 154.12 488.335 154.06 485.715 154.57C482.845 155.13 480.795 156.81 478.855 158.88C478.595 159.16 478.195 158.7 478.465 158.42Z" fill="#606060"/>
<path d="M483.173 160.56C486.593 160.22 490.413 158.18 493.053 156.02C493.353 155.77 493.753 156.23 493.453 156.47C490.703 158.72 486.873 160.79 483.303 161.15C482.913 161.19 482.783 160.6 483.173 160.56Z" fill="#606060"/>
<path d="M495.422 157.53C495.482 157.15 496.082 157.18 496.022 157.57C495.502 161.03 492.842 164.65 490.032 166.67C489.722 166.89 489.312 166.44 489.632 166.21C492.282 164.32 494.942 160.78 495.422 157.53Z" fill="#606060"/>
<path d="M497.208 160.01C497.228 159.62 497.828 159.66 497.818 160.05C497.618 165.31 496.388 170.39 492.028 173.73C491.718 173.97 491.318 173.51 491.628 173.27C495.868 170.03 497.028 165.12 497.208 160.01Z" fill="#606060"/>
<path d="M499.366 157.97C504.186 157.43 506.066 152.84 505.496 148.44C505.446 148.06 506.036 147.93 506.086 148.32C506.686 153.03 504.636 157.99 499.476 158.56C499.106 158.6 498.986 158.01 499.366 157.97Z" fill="#606060"/>
<path d="M498.088 155.4C497.828 155.69 497.328 155.35 497.588 155.06C499.948 152.39 502.668 149.99 503.888 146.52C504.018 146.15 504.588 146.35 504.458 146.72C503.228 150.24 500.488 152.68 498.088 155.4Z" fill="#606060"/>
<path d="M502.373 145.56C498.673 146.35 496.163 149.54 495.813 153.24C495.773 153.63 495.173 153.59 495.213 153.2C495.593 149.23 498.293 145.81 502.263 144.96C502.633 144.89 502.753 145.48 502.373 145.56Z" fill="#606060"/>
<path d="M494.555 172.26C494.395 174.51 492.455 176.2 490.205 176.05C487.955 175.89 486.265 173.94 486.425 171.7C486.585 169.45 488.535 167.76 490.775 167.92C493.015 168.06 494.715 170.01 494.555 172.26Z" fill="#EAA294"/>
<path d="M492.171 170.02C490.811 169.74 489.581 169.91 488.671 171.04C487.631 172.32 487.721 173.93 488.721 175.17C488.871 175.36 489.151 175.11 489.001 174.93C488.931 174.84 488.871 174.75 488.811 174.66C489.571 174.48 490.071 173.81 489.991 173.01C489.911 172.18 489.171 171.98 488.491 172.13C488.641 171.7 488.911 171.29 489.261 170.91C490.011 170.12 491.171 170.18 492.141 170.38C492.381 170.44 492.411 170.07 492.171 170.02ZM489.631 173.1C489.721 173.74 489.201 174.23 488.621 174.33C488.331 173.75 488.261 173.15 488.381 172.56C488.921 172.35 489.531 172.41 489.631 173.1Z" fill="#EF7E82"/>
<path d="M480.352 195.6L481.192 188.38L492.342 183.64L493.392 187.12L480.352 195.6Z" fill="#F7E4DE"/>
<path d="M97.2825 193.4L97.0625 180.41L101.603 180.85L102.573 174.97L105.882 174.21L100.052 161.91L87.2125 160.98L88.8225 177.43L86.0625 188.37L97.2825 193.4Z" fill="#EAA294"/>
<path d="M97.0603 180.41L97.1303 184.79L91.8203 179.93L97.0603 180.41Z" fill="#83503D"/>
<path d="M105.88 174.21L102.57 174.97L101.68 174.18L105.88 174.21Z" fill="#83503D"/>
<path d="M134 222.53L146.04 220.88C146.04 220.88 152.09 216.5 153.24 216.92C154.4 217.33 163.34 223.67 162.68 224.16C162.02 224.66 154.89 220.96 154.89 220.96C154.89 220.96 151.34 227.24 146.55 224.68L134 228.15V222.53Z" fill="#EAA294"/>
<path d="M153.781 218.83C153.781 218.83 157.901 224.73 159.101 224.71C160.311 224.69 158.641 222.13 157.741 221.21C156.851 220.29 153.781 217.82 153.781 218.83Z" fill="#EAA294"/>
<path d="M153.406 219.07C153.406 219.07 155.506 224.96 156.246 224.79C156.986 224.61 155.806 219.89 154.856 218.93C153.906 217.97 153.406 219.07 153.406 219.07Z" fill="#EAA294"/>
<path d="M91.433 188.2C95.963 185.59 114.043 220.82 114.043 220.82H138.183V227.78C138.183 227.78 118.393 237.35 103.493 231.48C103.493 231.47 75.563 197.33 91.433 188.2Z" fill="#A78BEF"/>
<path d="M97.8391 304.2C97.8391 304.2 122.819 273.24 134.369 256.77C134.369 256.77 103.069 266.83 94.4191 263.7C85.7691 260.57 81.1991 255.39 84.5791 242.51L102.539 239.47L104.879 242.15C104.879 242.15 142.409 245.67 148.649 247.08C161.419 263.72 106.599 304.9 106.599 304.9L108.179 317.03L110.469 319.89H101.849L97.8391 304.2Z" fill="#EF7E82"/>
<path d="M108.17 317.04C108.17 317.04 104.48 319.35 102.75 317.04C100.98 314.67 100.94 307.14 99.99 301.98C99.99 301.98 96.8 302.65 96 305.44C96 305.44 98.02 321.18 100.51 321.69C104.55 322.51 112.52 321.49 115.16 320.87C116.68 320.52 108.17 317.04 108.17 317.04Z" fill="#876BE8"/>
<path d="M100.586 306.3C100.586 306.3 125.566 275.34 137.116 258.87C137.116 258.87 100.316 268.94 91.6556 265.81C83.0056 262.68 79.0856 253.58 82.4656 240.7L105.926 237.65L107.606 244.25C107.606 244.25 146.176 239.51 152.316 247.51C165.086 264.15 109.326 307 109.326 307L110.906 319.13L113.196 321.99H104.576L100.586 306.3Z" fill="#EAA294"/>
<path d="M110.92 319.14C110.92 319.14 107.23 321.45 105.5 319.14C103.73 316.77 103.69 309.24 102.74 304.08C102.74 304.08 99.55 304.75 98.75 307.54C98.75 307.54 100.77 323.28 103.26 323.79C107.3 324.61 115.27 323.59 117.91 322.97C119.44 322.62 110.92 319.14 110.92 319.14Z" fill="#A78BEF"/>
<path d="M106.439 236.7L81.1789 239.64C81.1789 239.64 75.9089 265.2 86.5589 268.58C97.1989 271.97 131.229 262.57 131.229 262.57C131.229 262.57 143.389 248.14 146.159 242.5L108.749 241.79L106.439 236.7Z" fill="#231F20"/>
<path d="M114.251 241.9L108.751 241.8L106.441 236.71L81.1811 239.65C81.1811 239.65 79.6211 247.27 79.9211 254.73C87.2011 254.75 105.121 253.57 114.251 241.9Z" fill="#876BE8"/>
<path d="M109.199 241.3C109.199 241.3 99.1792 256.33 78.9892 249.58C78.9892 249.58 73.7492 190.38 86.2392 187.71C105.479 186.17 107.409 214.84 109.199 241.3Z" fill="#A78BEF"/>
<path d="M85.2656 188.55C85.2656 188.55 86.8456 182.3 87.3856 182.36C87.9156 182.43 97.3156 184.32 97.5056 184.79C97.6956 185.26 97.5056 193.81 97.5056 193.81C97.5056 193.81 88.6056 190.95 85.2656 188.55Z" fill="#876BE8"/>
<path d="M88.2831 183.57C88.1031 185.02 87.3831 186.34 87.2131 187.8C87.1731 188.14 87.7031 188.13 87.7431 187.8C87.9131 186.34 88.6331 185.03 88.8131 183.57C88.8531 183.23 88.3231 183.23 88.2831 183.57Z" fill="#93CEE0"/>
<path d="M90.3217 183.88C90.1917 185.58 89.2417 187.08 88.8817 188.73C88.8117 189.06 89.3117 189.2 89.3917 188.87C89.7617 187.17 90.7117 185.64 90.8517 183.88C90.8717 183.54 90.3417 183.55 90.3217 183.88Z" fill="#93CEE0"/>
<path d="M92.1056 184.32C92.0356 186.14 91.1556 187.78 90.7956 189.55C90.7256 189.88 91.2356 190.02 91.3056 189.69C91.6756 187.87 92.5656 186.2 92.6356 184.32C92.6356 183.98 92.1156 183.99 92.1056 184.32Z" fill="#93CEE0"/>
<path d="M93.7956 184.63C93.2256 186.24 92.9756 187.93 92.7756 189.62C92.7356 189.96 93.2656 189.95 93.3056 189.62C93.4956 187.97 93.7456 186.34 94.3056 184.77C94.4156 184.45 93.9056 184.31 93.7956 184.63Z" fill="#93CEE0"/>
<path d="M95.4139 185.52C95.2139 187.22 94.8739 188.91 94.8439 190.63C94.8339 190.97 95.3639 190.97 95.3739 190.63C95.4039 188.91 95.7439 187.23 95.9439 185.52C95.9739 185.18 95.4539 185.19 95.4139 185.52Z" fill="#93CEE0"/>
<path d="M88.8858 234.7C83.8858 225.62 80.8858 210.61 81.8058 200.6C82.0658 197.97 84.9358 196.91 86.5158 194.67C87.4358 193.22 87.8358 193.75 88.4858 195.2C89.8058 197.96 90.4558 200.99 91.3858 203.89C92.8358 207.84 94.6758 211.79 97.1758 215.21C100.076 219.45 103.806 222.69 107.956 225.41C108.466 230.62 108.836 236 109.196 241.3C109.196 241.3 107.736 243.48 104.816 245.81C98.2958 244.31 92.4958 241.33 88.8858 234.7Z" fill="#876BE8"/>
<path d="M149.141 223.46C149.141 223.46 153.811 229.74 155.011 229.84C156.211 229.94 153.661 227.22 152.851 226.22C152.051 225.21 149.241 222.45 149.141 223.46Z" fill="#EAA294"/>
<path d="M148.734 223.66C148.734 223.66 152.444 229.73 153.204 229.63C153.954 229.53 151.044 224.71 150.194 223.66C149.334 222.61 148.734 223.66 148.734 223.66Z" fill="#EAA294"/>
<path d="M129.269 225.67L141.399 225.03C141.399 225.03 147.789 221.17 148.909 221.68C150.029 222.19 158.059 228.94 157.359 229.38C156.659 229.82 150.209 225.85 150.209 225.85C150.209 225.85 146.149 231.81 141.589 228.86L128.789 231.27L129.269 225.67Z" fill="#EAA294"/>
<path d="M86.6871 191.52C91.2171 188.92 109.297 224.14 109.297 224.14H133.437V231.1C133.437 231.1 113.647 240.67 98.7471 234.8C98.7471 234.79 70.8071 200.65 86.6871 191.52Z" fill="#A78BEF"/>
<path d="M106.264 224.96C97.8344 219.43 93.2344 207.71 89.6744 198.63C88.7844 196.26 87.9844 193.84 87.2344 191.4C92.5144 191.47 109.294 224.14 109.294 224.14H133.434V225.5C124.644 227.42 114.044 230.1 106.264 224.96Z" fill="#A78BEF"/>
<path d="M90.3159 165.23L101.966 164C106.286 159.47 102.616 152.07 94.1559 153.68C94.1559 153.68 85.0659 148.36 77.5659 155.9C70.8759 162.63 71.3059 183.55 74.3259 186.35C77.3459 189.15 91.0659 190.69 91.8159 186.74C92.5759 182.79 90.3159 165.23 90.3159 165.23Z" fill="#231F20"/>
<path d="M92.3782 155.54C93.6482 158.27 93.1382 161.01 92.8482 163.88C92.8082 164.22 93.3382 164.21 93.3782 163.88C93.6882 160.88 94.1482 158.1 92.8382 155.27C92.6882 154.97 92.2382 155.24 92.3782 155.54Z" fill="#606060"/>
<path d="M94.4372 154.81C96.4072 156.68 97.6972 160.51 96.0772 163.02C95.8972 163.31 96.3472 163.57 96.5272 163.29C98.2772 160.56 96.9572 156.49 94.8072 154.44C94.5672 154.2 94.1972 154.58 94.4372 154.81Z" fill="#606060"/>
<path d="M100.846 156.93C100.036 155.39 98.6056 154.61 97.0556 153.94C96.7456 153.81 96.4756 154.26 96.7856 154.39C98.1056 154.96 99.3556 155.59 100.186 156.81C101.276 158.41 100.636 160.71 100.146 162.4C100.046 162.73 100.556 162.86 100.656 162.54C101.156 160.86 101.736 158.62 100.846 156.93Z" fill="#606060"/>
<path d="M89.9706 154.1C88.2006 158.37 88.0406 163.47 87.8106 168.03C87.5206 173.77 87.6006 179.59 87.9406 185.33C87.9606 185.67 88.4906 185.67 88.4706 185.33C88.1706 180.25 88.1806 175.17 88.2706 170.09C88.3606 164.96 88.5006 159.04 90.4806 154.25C90.6106 153.92 90.1006 153.79 89.9706 154.1Z" fill="#606060"/>
<path d="M87.7774 153.93C82.2674 164.13 82.9574 176.13 83.7574 187.3C83.7774 187.64 84.3074 187.64 84.2874 187.3C83.4974 176.22 82.7674 164.32 88.2374 154.2C88.3874 153.9 87.9374 153.63 87.7774 153.93Z" fill="#606060"/>
<path d="M86.1717 153.97C86.3817 153.71 86.0117 153.33 85.8017 153.6C82.5317 157.69 80.1717 162.23 78.7717 167.28C77.0317 173.53 77.5417 179.97 78.0817 186.35C78.1117 186.69 78.6417 186.69 78.6117 186.35C78.1117 180.55 77.7017 174.85 78.8717 169.1C80.0117 163.52 82.6417 158.39 86.1717 153.97Z" fill="#606060"/>
<path d="M81.4178 155.12C81.6478 154.87 81.2678 154.49 81.0478 154.75C74.1678 162.48 73.1978 173.41 74.7478 183.24C74.7978 183.57 75.3078 183.43 75.2578 183.1C73.7378 173.47 74.6778 162.69 81.4178 155.12Z" fill="#606060"/>
<path d="M84.3386 173.42C84.4986 175.67 86.4386 177.36 88.6886 177.2C90.9386 177.04 92.6286 175.1 92.4686 172.85C92.3086 170.6 90.3586 168.91 88.1186 169.07C85.8786 169.22 84.1786 171.17 84.3386 173.42Z" fill="#EAA294"/>
<path d="M86.745 171.55C87.715 171.35 88.875 171.29 89.625 172.08C89.985 172.46 90.245 172.87 90.395 173.3C89.715 173.15 88.975 173.35 88.895 174.18C88.815 174.98 89.325 175.64 90.085 175.82C90.025 175.91 89.965 176 89.895 176.09C89.745 176.28 90.025 176.52 90.175 176.33C91.175 175.08 91.265 173.48 90.225 172.2C89.315 171.07 88.085 170.9 86.725 171.18C86.485 171.23 86.505 171.6 86.745 171.55ZM90.515 173.71C90.635 174.3 90.555 174.91 90.275 175.49C89.695 175.39 89.175 174.9 89.265 174.26C89.365 173.57 89.965 173.51 90.515 173.71Z" fill="#83503D"/>
<path d="M180.857 239.47H174.297V325.04H180.857V239.47Z" fill="#40598F"/>
<path d="M420.935 239.47H414.375V325.04H420.935V239.47Z" fill="#40598F"/>
<path d="M474.449 235.39H120.789V241.16H474.449V235.39Z" fill="#303D60"/>
<path d="M456.221 233.63C456.221 234.79 455.281 235.73 454.121 235.73H411.131C409.971 235.73 409.031 234.79 409.031 233.63C409.031 232.47 409.971 231.53 411.131 231.53H454.121C455.281 231.52 456.221 232.46 456.221 233.63Z" fill="white"/>
<path d="M392.641 192.37C393.701 191.9 394.941 192.37 395.421 193.44L412.921 232.71C413.391 233.77 412.921 235.02 411.851 235.49C410.791 235.96 409.551 235.49 409.071 234.43L391.571 195.16C391.101 194.09 391.581 192.84 392.641 192.37Z" fill="white"/>
<path d="M412.391 233.63C412.391 234.42 411.751 235.06 410.961 235.06C410.171 235.06 409.531 234.42 409.531 233.63C409.531 232.84 410.171 232.2 410.961 232.2C411.751 232.2 412.391 232.84 412.391 233.63Z" fill="#92ADCA"/>
<path d="M131.797 233.63C131.797 234.79 132.737 235.73 133.897 235.73H176.887C178.047 235.73 178.987 234.79 178.987 233.63C178.987 232.47 178.047 231.53 176.887 231.53H133.897C132.737 231.52 131.797 232.46 131.797 233.63Z" fill="#E527BB"/>
<path d="M195.376 192.37C194.316 191.9 193.076 192.37 192.596 193.44L175.096 232.71C174.626 233.77 175.096 235.02 176.166 235.49C177.226 235.96 178.466 235.49 178.946 234.43L196.446 195.16C196.916 194.09 196.436 192.84 195.376 192.37Z" fill="#E527BB"/>
<path d="M175.117 233.48C175.117 234.27 175.757 234.91 176.547 234.91C177.337 234.91 177.977 234.27 177.977 233.48C177.977 232.69 177.337 232.05 176.547 232.05C175.757 232.05 175.117 232.69 175.117 233.48Z" fill="white"/>
<path d="M350.086 231.87C350.086 233.97 348.386 235.67 346.286 235.67H300.886C298.786 235.67 297.086 233.97 297.086 231.87V202.01C297.086 199.91 298.786 198.21 300.886 198.21H346.286C348.386 198.21 350.086 199.91 350.086 202.01V231.87Z" fill="#E527BB"/>
<path d="M326.159 216.22C326.159 217.64 325.009 218.78 323.599 218.78C322.189 218.78 321.039 217.63 321.039 216.22C321.039 214.8 322.189 213.66 323.599 213.66C325.009 213.66 326.159 214.8 326.159 216.22Z" fill="white"/>
</g>
<defs>
<clipPath id="clip0_2443_7908">
<rect width="499.02" height="291.54" fill="white" transform="translate(16 35)"/>
</clipPath>
</defs>
</svg>
