<svg width="543" height="329" viewBox="0 0 543 329" fill="none" xmlns="http://www.w3.org/2000/svg">
<g clip-path="url(#clip0_2439_6670)">
<path opacity="0.2" d="M128.578 325.793L413.421 309.284C488.741 304.922 547.021 241.664 543.879 166.964C541.237 104.191 518.542 37.3242 442.21 8.74895C388.524 -11.3489 318.807 5.10021 274.587 38.5239C263.96 46.5551 254.193 55.7662 242.775 62.6373C216.167 78.6501 192.802 67.5948 165.083 63.3413C106.483 54.3285 47.9939 72.8399 17.7134 126.352C-28.778 208.567 26.059 331.732 128.578 325.793Z" fill="#999999"/>
<g clip-path="url(#clip1_2439_6670)">
<path d="M416.158 224.039H281.32C278.907 224.039 276.945 222.079 276.945 219.666V23.3728C276.945 20.9602 278.907 19 281.32 19H416.158C418.572 19 420.533 20.9602 420.533 23.3728V219.666C420.533 222.079 418.572 224.039 416.158 224.039ZM281.32 19.1885C279.01 19.1885 277.134 21.0639 277.134 23.3728V219.666C277.134 221.975 279.01 223.851 281.32 223.851H416.158C418.468 223.851 420.344 221.975 420.344 219.666V23.3728C420.344 21.0639 418.468 19.1885 416.158 19.1885H281.32Z" fill="#E1E1E1"/>
<path d="M260.674 224.039H125.836C123.422 224.039 121.461 222.079 121.461 219.666V23.3728C121.461 20.9602 123.422 19 125.836 19H260.674C263.087 19 265.049 20.9602 265.049 23.3728V219.666C265.049 222.079 263.087 224.039 260.674 224.039ZM125.836 19.1885C123.526 19.1885 121.65 21.0639 121.65 23.3728V219.666C121.65 221.975 123.526 223.851 125.836 223.851H260.674C262.984 223.851 264.86 221.975 264.86 219.666V23.3728C264.86 21.0639 262.984 19.1885 260.674 19.1885H125.836Z" fill="#E1E1E1"/>
<path d="M458 240.682H85V240.87H458V240.682Z" fill="#E1E1E1"/>
<path d="M135.531 251.322H123.547V251.51H135.531V251.322Z" fill="#E1E1E1"/>
<path d="M252.019 249.295H212.086V249.484H252.019V249.295Z" fill="#E1E1E1"/>
<path d="M163.316 258.248H136.273V258.437H163.316V258.248Z" fill="#E1E1E1"/>
<path d="M399.47 249.201H367.25V249.39H399.47V249.201Z" fill="#E1E1E1"/>
<path d="M410.841 249.201H406.117V249.39H410.841V249.201Z" fill="#E1E1E1"/>
<path d="M361.105 253.847H320.898V254.036H361.105V253.847Z" fill="#E1E1E1"/>
<path d="M187.406 179.973C187.406 179.963 187.425 179.935 187.416 179.935C187.406 179.935 187.406 179.954 187.406 179.973Z" fill="#007CFF"/>
<path d="M369.09 108.463L381.848 122.561L334.098 178.087L286.443 123.324L214.97 211.505C214.97 211.505 187.691 181.075 187.408 179.982C187.144 181.395 104.922 325.791 107.138 329.23H132.455L190.124 216.425L214.508 244.584L287.358 154.179L333.863 209.724L393.663 135.397L406.562 147.205L415.274 96.4375L369.09 108.463Z" fill="#007CFF"/>
<path d="M369.09 108.463L381.848 122.561L334.098 178.087L286.443 123.324L214.97 211.505C214.97 211.505 187.691 181.075 187.408 179.982C187.144 181.395 104.922 325.791 107.138 329.23H132.455L190.124 216.425L214.508 244.584L287.358 154.179L333.863 209.724L393.663 135.397L406.562 147.205L415.274 96.4375L369.09 108.463Z" fill="#E527BB"/>
<path d="M418.304 249.936H367.132C364.19 249.936 361.805 247.552 361.805 244.612V182.488C361.805 179.548 364.19 177.164 367.132 177.164H418.304C421.246 177.164 423.632 179.548 423.632 182.488V244.612C423.632 247.552 421.246 249.936 418.304 249.936Z" fill="#A78BEF"/>
<path opacity="0.8" d="M416.99 199.574H368.128C367.091 199.574 366.242 198.736 366.242 197.689V184.081C366.242 183.044 367.081 182.196 368.128 182.196H416.99C418.027 182.196 418.876 183.035 418.876 184.081V197.689C418.876 198.736 418.037 199.574 416.99 199.574Z" fill="white"/>
<path opacity="0.8" d="M382.621 182.196C382.621 182.196 369.467 191.291 374.276 191.639C379.085 191.988 392.767 192.685 390.296 195.192C387.826 197.699 384.158 199.574 384.158 199.574H389.363C389.363 199.574 403.252 192.911 395.841 190.885C388.429 188.859 374.946 192.129 376.417 189.971C377.887 187.813 389.231 182.196 389.231 182.196H382.621Z" fill="white"/>
<path opacity="0.5" d="M416.16 244.65H368.958C367.459 244.65 366.242 243.434 366.242 241.935V206.218C366.242 204.72 367.459 203.504 368.958 203.504H416.16C417.66 203.504 418.876 204.72 418.876 206.218V241.935C418.876 243.434 417.66 244.65 416.16 244.65Z" fill="#1A2E35"/>
<path d="M375.609 203.504C375.609 217.32 375.609 231.135 375.609 244.96C375.609 245.413 376.317 245.413 376.317 244.96C376.317 231.145 376.317 217.329 376.317 203.504C376.317 203.052 375.609 203.052 375.609 203.504Z" fill="white"/>
<path d="M386.359 203.504C386.359 217.32 386.359 231.135 386.359 244.96C386.359 245.413 387.067 245.413 387.067 244.96C387.067 231.145 387.067 217.329 387.067 203.504C387.067 203.052 386.359 203.052 386.359 203.504Z" fill="white"/>
<path d="M397.109 203.862C397.109 217.678 397.109 231.494 397.109 245.319C397.109 245.771 397.817 245.771 397.817 245.319C397.817 231.503 397.817 217.687 397.817 203.862C397.817 203.41 397.109 203.41 397.109 203.862Z" fill="white"/>
<path d="M407.859 204.098C407.859 217.913 407.859 231.729 407.859 245.554C407.859 246.007 408.567 246.007 408.567 245.554C408.567 231.739 408.567 217.923 408.567 204.098C408.567 203.645 407.859 203.645 407.859 204.098Z" fill="white"/>
<path d="M366.011 214.992C383.729 214.992 401.446 214.992 419.164 214.992C419.616 214.992 419.616 214.285 419.164 214.285C401.446 214.285 383.729 214.285 366.011 214.285C365.559 214.285 365.559 214.992 366.011 214.992Z" fill="white"/>
<path d="M366.011 225.556C383.729 225.556 401.446 225.556 419.164 225.556C419.616 225.556 419.616 224.85 419.164 224.85C401.446 224.85 383.729 224.85 366.011 224.85C365.559 224.85 365.559 225.556 366.011 225.556Z" fill="white"/>
<path d="M366.011 236.111C380.08 236.111 394.148 236.111 408.216 236.111C408.669 236.111 408.669 235.405 408.216 235.405C394.148 235.405 380.08 235.405 366.011 235.405C365.559 235.405 365.559 236.111 366.011 236.111Z" fill="white"/>
<path d="M383.642 187.596V194.353H382.973V188.218H381.445V187.596H383.642Z" fill="#1A2E35"/>
<path d="M389.466 192.412C389.466 193.543 388.683 194.41 387.118 194.41C386.185 194.41 385.289 194.071 384.789 193.543L385.11 192.996C385.525 193.449 386.279 193.778 387.118 193.778C388.193 193.778 388.778 193.26 388.778 192.421C388.778 191.611 388.231 191.083 387.033 191.083H386.571V190.574L388.363 188.228H385.053V187.606H389.211V188.096L387.382 190.499C388.768 190.574 389.466 191.338 389.466 192.412Z" fill="#1A2E35"/>
<path d="M395.899 192.582H394.608V194.353H393.938V192.582H390.289V192.082L393.721 187.606H394.457L391.147 191.969H393.957V190.405H394.608V191.969H395.899V192.582Z" fill="#1A2E35"/>
<path d="M396.711 193.873C396.711 193.571 396.937 193.354 397.201 193.354C397.465 193.354 397.701 193.581 397.701 193.873C397.701 194.174 397.475 194.401 397.201 194.401C396.928 194.401 396.711 194.174 396.711 193.873Z" fill="#1A2E35"/>
<path d="M403.05 192.365C403.05 193.515 402.286 194.41 400.702 194.41C399.769 194.41 398.883 194.071 398.383 193.543L398.703 192.996C399.118 193.449 399.863 193.779 400.693 193.779C401.796 193.779 402.371 193.223 402.371 192.403C402.371 191.536 401.853 190.998 400.212 190.998H398.835L399.165 187.615H402.701V188.237H399.741L399.514 190.386H400.344C402.315 190.367 403.05 191.168 403.05 192.365Z" fill="#1A2E35"/>
<path d="M403.898 190.98C403.898 188.831 404.983 187.54 406.482 187.54C407.981 187.54 409.066 188.821 409.066 190.98C409.066 193.128 407.972 194.41 406.482 194.41C404.983 194.41 403.898 193.128 403.898 190.98ZM408.377 190.98C408.377 189.18 407.604 188.181 406.473 188.181C405.341 188.181 404.568 189.17 404.568 190.98C404.568 192.78 405.341 193.779 406.473 193.779C407.604 193.779 408.377 192.78 408.377 190.98Z" fill="#1A2E35"/>
<path d="M410.016 190.98C410.016 188.831 411.1 187.54 412.599 187.54C414.098 187.54 415.183 188.821 415.183 190.98C415.183 193.128 414.089 194.41 412.599 194.41C411.1 194.41 410.016 193.128 410.016 190.98ZM414.504 190.98C414.504 189.18 413.731 188.181 412.599 188.181C411.468 188.181 410.695 189.17 410.695 190.98C410.695 192.78 411.468 193.779 412.599 193.779C413.721 193.779 414.504 192.78 414.504 190.98Z" fill="#1A2E35"/>
<path d="M345.139 295.087H188.708C185.191 295.087 182.344 292.241 182.344 288.726V54.1706C182.344 50.6554 185.191 47.8093 188.708 47.8093H345.148C348.665 47.8093 351.513 50.6554 351.513 54.1706V288.735C351.503 292.241 348.656 295.087 345.139 295.087Z" fill="#E527BB"/>
<path d="M195.583 54.5571H188.125V288.801L344.536 290.13L348.855 284.758L345.074 63.7927L195.583 54.5571Z" fill="#ECECEC"/>
<path d="M348.855 284.758H194.207V54.5571H188.125V290.13H344.536L348.855 284.758Z" fill="#E1E1E1"/>
<path opacity="0.2" d="M188.125 290.13L194.207 284.758H348.855L344.536 290.13H188.125Z" fill="black"/>
<path d="M362.185 277.21H209.366C194.477 240.183 191.846 145.989 194.204 54.5664H345.938C344.693 145.933 347.683 227.978 362.185 277.21Z" fill="white" stroke="#1A2E35" stroke-miterlimit="10"/>
<path opacity="0.2" d="M344.503 256.241H220.82V267.437H344.503V256.241Z" fill="black"/>
<path opacity="0.2" d="M236.678 72.6418H203.742V108.123H236.678V72.6418Z" fill="black"/>
<path d="M231.796 251.293C231.796 251.293 222.074 206.096 220.82 184.797H235.869C237.642 206.265 241.734 228.384 247.156 250.879L231.796 251.293Z" fill="#E527BB"/>
<path d="M252.842 251.294C252.842 251.294 246.043 218.743 244.789 195.522H259.847C261.62 218.931 262.789 226.32 268.211 250.832L252.842 251.294Z" fill="#E527BB"/>
<path d="M315.826 251.294C315.826 251.294 309.028 218.743 307.773 195.522H322.832C324.605 218.931 325.774 226.32 331.196 250.832L315.826 251.294Z" fill="#E527BB"/>
<path d="M274.557 251.294C274.557 251.294 271.059 236.535 268.211 212.457H283.269C285.042 235.866 289.936 250.832 289.936 250.832L274.557 251.294Z" fill="#E527BB"/>
<path d="M296.397 251.293C296.397 251.293 294.285 247.486 291.438 223.408H306.496C308.269 246.817 311.767 250.832 311.767 250.832L296.397 251.293Z" fill="#E527BB"/>
<path d="M212.266 181.292C212.275 183.403 212.492 185.533 212.633 187.634C212.954 192.346 213.331 197.058 213.755 201.761C214.84 213.663 216.122 225.604 218.413 237.337C219.375 242.275 220.441 247.354 222.543 251.953C222.647 252.17 222.921 252.302 223.156 252.302C226.9 252.274 230.634 252.255 234.377 252.227C243.316 252.17 252.255 252.104 261.194 252.047C272.009 251.972 282.815 251.897 293.63 251.831C303.012 251.765 312.394 251.699 321.786 251.642C324.878 251.623 327.971 251.605 331.064 251.576C332.516 251.567 334.015 251.671 335.458 251.548C335.524 251.539 335.581 251.548 335.647 251.548C336.552 251.539 336.561 250.125 335.647 250.134C331.903 250.163 328.169 250.182 324.426 250.21C315.487 250.266 306.548 250.332 297.609 250.389C286.794 250.464 275.988 250.54 265.173 250.606C255.791 250.672 246.409 250.738 237.017 250.794C233.924 250.813 230.832 250.832 227.739 250.86C226.777 250.869 225.815 250.869 224.854 250.879C224.401 250.879 223.788 250.775 223.345 250.888C223.288 250.907 223.213 250.888 223.156 250.888C223.364 251.001 223.562 251.124 223.769 251.237C221.949 247.269 220.997 242.878 220.12 238.628C218.932 232.898 218.055 227.093 217.301 221.297C215.905 210.572 214.906 199.782 214.142 188.991C213.963 186.437 213.689 183.855 213.68 181.292C213.68 180.387 212.266 180.378 212.266 181.292Z" fill="#1A2E35"/>
<path opacity="0.2" d="M263.043 72.9622H240.695V77.1464H263.043V72.9622Z" fill="black"/>
<path opacity="0.2" d="M248.682 79.8889H240.695V87.8711H248.682V79.8889Z" fill="black"/>
<path d="M271.544 120.243H303.329C303.329 137.668 288.978 152.011 271.544 152.011C254.109 152.011 239.758 137.668 239.758 120.243C239.758 107.539 247.377 96.0134 259.069 91.0281L271.544 120.243Z" fill="#E527BB"/>
<path d="M273.102 115.682L261.023 86.2974C264.861 84.7236 268.963 83.9131 273.102 83.9131C281.164 83.9131 288.924 86.9759 294.818 92.4796L273.102 115.682Z" fill="#007CFF"/>
<path d="M273.102 115.682L261.023 86.2974C264.861 84.7236 268.963 83.9131 273.102 83.9131C281.164 83.9131 288.924 86.9759 294.818 92.4796L273.102 115.682Z" fill="#E527BB"/>
<path d="M276.195 117.434L298.891 95.2031C301.654 98.0209 303.861 101.319 305.416 104.948C306.963 108.566 307.83 112.449 307.962 116.388L276.195 117.434Z" fill="#007CFF"/>
<path d="M276.195 117.434L298.891 95.2031C301.654 98.0209 303.861 101.319 305.416 104.948C306.963 108.566 307.83 112.449 307.962 116.388L276.195 117.434Z" fill="#A78BEF"/>
<path d="M306.027 147.931C314.73 147.931 323.424 147.931 332.127 147.931C332.58 147.931 332.58 147.224 332.127 147.224C323.424 147.224 314.73 147.224 306.027 147.224C305.574 147.224 305.574 147.931 306.027 147.931Z" fill="#1A2E35"/>
<path d="M306.222 150.485C314.925 150.485 323.618 150.485 332.322 150.485C332.774 150.485 332.774 149.778 332.322 149.778C323.618 149.778 314.925 149.778 306.222 149.778C305.759 149.778 305.759 150.485 306.222 150.485Z" fill="#1A2E35"/>
<path d="M306.222 153.038C310.512 153.038 314.802 153.038 319.083 153.038C319.536 153.038 319.536 152.332 319.083 152.332C314.793 152.332 310.502 152.332 306.222 152.332C305.759 152.332 305.759 153.038 306.222 153.038Z" fill="#1A2E35"/>
<path d="M302.066 84.2334C310.769 84.2334 319.463 84.2334 328.166 84.2334C328.619 84.2334 328.619 83.5266 328.166 83.5266C319.463 83.5266 310.769 83.5266 302.066 83.5266C301.613 83.5266 301.613 84.2334 302.066 84.2334Z" fill="#1A2E35"/>
<path d="M302.066 86.7969C310.769 86.7969 319.463 86.7969 328.166 86.7969C328.619 86.7969 328.619 86.0901 328.166 86.0901C319.463 86.0901 310.769 86.0901 302.066 86.0901C301.613 86.0901 301.613 86.7969 302.066 86.7969Z" fill="#1A2E35"/>
<path d="M302.066 89.3506C306.356 89.3506 310.647 89.3506 314.927 89.3506C315.38 89.3506 315.38 88.6438 314.927 88.6438C310.637 88.6438 306.347 88.6438 302.066 88.6438C301.613 88.6438 301.613 89.3506 302.066 89.3506Z" fill="#1A2E35"/>
<path d="M208.714 133.078C217.418 133.078 226.111 133.078 234.814 133.078C235.267 133.078 235.267 132.372 234.814 132.372C226.111 132.372 217.418 132.372 208.714 132.372C208.262 132.372 208.262 133.078 208.714 133.078Z" fill="#1A2E35"/>
<path d="M208.714 135.632C217.418 135.632 226.111 135.632 234.814 135.632C235.267 135.632 235.267 134.925 234.814 134.925C226.111 134.925 217.418 134.925 208.714 134.925C208.262 134.925 208.262 135.632 208.714 135.632Z" fill="#1A2E35"/>
<path d="M208.714 138.196C213.005 138.196 217.295 138.196 221.576 138.196C222.028 138.196 222.028 137.489 221.576 137.489C217.286 137.489 212.995 137.489 208.714 137.489C208.262 137.489 208.262 138.196 208.714 138.196Z" fill="#1A2E35"/>
<path d="M292.984 135.849C296.096 137.762 299.198 139.675 302.31 141.588L292.984 135.849Z" fill="white"/>
<path d="M292.807 136.15C295.918 138.063 299.021 139.977 302.132 141.89C302.519 142.125 302.877 141.522 302.491 141.277C299.379 139.364 296.277 137.451 293.165 135.538C292.779 135.302 292.42 135.915 292.807 136.15Z" fill="#1A2E35"/>
<path d="M303.49 141.588C303.49 142.238 302.962 142.766 302.311 142.766C301.661 142.766 301.133 142.238 301.133 141.588C301.133 140.938 301.661 140.41 302.311 140.41C302.972 140.41 303.49 140.938 303.49 141.588Z" fill="#1A2E35"/>
<path d="M290.798 90.6228C292.439 88.9925 294.08 87.3715 295.72 85.7412C295.956 85.5056 296.192 85.27 296.427 85.0438C296.748 84.7234 296.248 84.2239 295.928 84.5443C294.287 86.1747 292.646 87.7956 291.006 89.426C290.77 89.6616 290.534 89.8972 290.299 90.1233C289.978 90.4532 290.478 90.9527 290.798 90.6228Z" fill="#1A2E35"/>
<path d="M296.979 83.3287C297.62 83.4983 298.007 84.1203 297.846 84.7329C297.686 85.336 297.035 85.6941 296.404 85.5245C295.763 85.3548 295.376 84.7329 295.536 84.1203C295.697 83.5172 296.347 83.1685 296.979 83.3287Z" fill="#1A2E35"/>
<path d="M240.698 119.432C235.521 119.432 230.354 119.432 225.177 119.432C224.442 119.432 223.716 119.432 222.98 119.432C222.527 119.432 222.527 120.139 222.98 120.139C228.157 120.139 233.324 120.139 238.501 120.139C239.236 120.139 239.962 120.139 240.698 120.139C241.15 120.139 241.15 119.432 240.698 119.432Z" fill="#1A2E35"/>
<path d="M221.362 120.233C221.041 119.659 221.221 118.942 221.767 118.641C222.314 118.33 223.022 118.556 223.342 119.131C223.663 119.706 223.484 120.422 222.937 120.723C222.39 121.025 221.692 120.808 221.362 120.233Z" fill="#1A2E35"/>
<path opacity="0.2" d="M331.669 163.216H211.438V175.298H331.669V163.216Z" fill="black"/>
<path opacity="0.2" d="M318.586 129.497H309.562V143.765H318.586V129.497Z" fill="black"/>
<path opacity="0.2" d="M330 136.452H320.977V143.907H330V136.452Z" fill="black"/>
<path opacity="0.2" d="M216.905 144.604H207.07V154.433H216.905V144.604Z" fill="black"/>
<path opacity="0.2" d="M238.137 144.604H220.203V154.433H238.137V144.604Z" fill="black"/>
<path opacity="0.2" d="M328.891 112.589C329.771 108.882 327.477 105.165 323.768 104.286C320.059 103.407 316.339 105.699 315.46 109.407C314.58 113.114 316.874 116.831 320.583 117.71C324.292 118.589 328.012 116.296 328.891 112.589Z" fill="black"/>
<path opacity="0.2" d="M239.758 47.8V65.6963L295.465 66.0073L295.381 62.7277L268.63 46.9236L239.758 47.8Z" fill="black"/>
<path d="M298.102 62.7277H243.055V51.1927C243.055 47.2346 246.27 44.021 250.23 44.021H290.927C294.887 44.021 298.102 47.2346 298.102 51.1927V62.7277Z" fill="#A78BEF"/>
<path d="M260.409 45.4911L258.315 38.244C258.165 37.7068 258.532 37.1697 259.051 37.1697H283.68C284.208 37.1697 284.576 37.7351 284.406 38.2723L281.936 45.8587C281.822 46.1979 281.53 46.4147 281.2 46.4147L261.125 46.0754C260.795 46.066 260.503 45.8304 260.409 45.4911Z" fill="#A78BEF"/>
<path d="M261.32 43.7947C268.448 43.7947 275.576 43.7947 282.705 43.7947C283.62 43.7947 283.62 42.3811 282.705 42.3811C275.576 42.3811 268.448 42.3811 261.32 42.3811C260.414 42.3811 260.414 43.7947 261.32 43.7947Z" fill="black"/>
<path d="M363.399 110.724H329.652C326.342 110.724 323.664 108.048 323.664 104.74V71.0114C323.664 67.7035 326.342 65.0271 329.652 65.0271H363.399C366.708 65.0271 369.386 67.7035 369.386 71.0114V104.74C369.386 108.038 366.708 110.724 363.399 110.724Z" fill="#007CFF"/>
<path d="M363.399 110.724H329.652C326.342 110.724 323.664 108.048 323.664 104.74V71.0114C323.664 67.7035 326.342 65.0271 329.652 65.0271H363.399C366.708 65.0271 369.386 67.7035 369.386 71.0114V104.74C369.386 108.038 366.708 110.724 363.399 110.724Z" fill="#A78BEF"/>
<g opacity="0.3">
<path d="M330.492 71.8408C330.492 82.4523 330.492 93.0637 330.492 103.666C330.492 103.854 330.652 104.024 330.851 104.024C340.006 104.024 349.171 104.024 358.327 104.024C359.619 104.024 360.92 104.024 362.212 104.024C362.665 104.024 362.665 103.317 362.212 103.317C353.056 103.317 343.891 103.317 334.735 103.317C333.444 103.317 332.142 103.317 330.851 103.317C330.964 103.43 331.086 103.553 331.209 103.675C331.209 93.0637 331.209 82.4523 331.209 71.8502C331.199 71.379 330.492 71.379 330.492 71.8408Z" fill="black"/>
</g>
<g opacity="0.3">
<path d="M338.664 71.6994C338.664 82.3391 338.664 92.9789 338.664 103.609C338.664 104.062 339.371 104.062 339.371 103.609C339.371 92.9694 339.371 82.3297 339.371 71.6994C339.371 71.2376 338.664 71.2376 338.664 71.6994Z" fill="black"/>
</g>
<g opacity="0.3">
<path d="M346.727 71.6994C346.727 82.3391 346.727 92.9789 346.727 103.609C346.727 104.062 347.434 104.062 347.434 103.609C347.434 92.9694 347.434 82.3297 347.434 71.6994C347.434 71.2376 346.727 71.2376 346.727 71.6994Z" fill="black"/>
</g>
<g opacity="0.3">
<path d="M354.789 71.6994C354.789 82.3391 354.789 92.9789 354.789 103.609C354.789 104.062 355.496 104.062 355.496 103.609C355.496 92.9694 355.496 82.3297 355.496 71.6994C355.496 71.2376 354.789 71.2376 354.789 71.6994Z" fill="black"/>
</g>
<g opacity="0.3">
<path d="M331.019 95.9568C341.335 95.9568 351.641 95.9568 361.956 95.9568C362.409 95.9568 362.409 95.25 361.956 95.25C351.641 95.25 341.335 95.25 331.019 95.25C330.567 95.25 330.567 95.9568 331.019 95.9568Z" fill="black"/>
</g>
<g opacity="0.3">
<path d="M331.019 88.0029C341.335 88.0029 351.641 88.0029 361.956 88.0029C362.409 88.0029 362.409 87.2961 361.956 87.2961C351.641 87.2961 341.335 87.2961 331.019 87.2961C330.567 87.2961 330.567 88.0029 331.019 88.0029Z" fill="black"/>
</g>
<g opacity="0.3">
<path d="M331.019 79.6438C341.335 79.6438 351.641 79.6438 361.956 79.6438C362.409 79.6438 362.409 78.937 361.956 78.937C351.641 78.937 341.335 78.937 331.019 78.937C330.567 78.937 330.567 79.6438 331.019 79.6438Z" fill="black"/>
</g>
<path d="M331.591 87.2772C332.704 84.8458 334.118 82.1505 336.607 80.916C338.786 79.8416 340.888 80.0207 342.133 82.2919C343.264 84.3652 343.887 86.8154 344.669 89.0395C345.546 91.4898 347.036 97.0971 350.845 95.6458C352.175 95.1369 352.948 93.7327 353.57 92.5358C354.136 91.4426 354.664 90.3117 355.117 89.1714C356.126 86.6741 357.898 84.1955 360.85 84.1296C361.302 84.1201 361.302 83.4133 360.85 83.4228C354.872 83.5453 354.777 90.585 351.77 94.0814C350.94 95.0426 349.771 95.4384 348.592 94.7882C347.394 94.1285 346.8 92.7903 346.329 91.5746C345.395 89.1526 344.594 86.6835 343.708 84.2427C343.161 82.7348 342.548 81.0102 341.152 80.0772C339.86 79.2196 338.229 79.4741 336.871 80.0301C333.901 81.2364 332.251 84.1296 330.978 86.9191C330.799 87.3243 331.402 87.6824 331.591 87.2772Z" fill="#1A2E35"/>
<path d="M355.136 89.6239C356.053 89.6239 356.796 88.8813 356.796 87.9653C356.796 87.0492 356.053 86.3066 355.136 86.3066C354.22 86.3066 353.477 87.0492 353.477 87.9653C353.477 88.8813 354.22 89.6239 355.136 89.6239Z" fill="#E527BB"/>
<path d="M350.663 95.5988C350.663 96.513 349.918 97.2575 349.003 97.2575C348.089 97.2575 347.344 96.513 347.344 95.5988C347.344 94.6847 348.089 93.9402 349.003 93.9402C349.918 93.9496 350.663 94.6847 350.663 95.5988Z" fill="#E527BB"/>
<path d="M339.41 81.3024C340.326 81.3024 341.069 80.5598 341.069 79.6437C341.069 78.7277 340.326 77.9851 339.41 77.9851C338.493 77.9851 337.75 78.7277 337.75 79.6437C337.75 80.5598 338.493 81.3024 339.41 81.3024Z" fill="#E527BB"/>
<path d="M167.797 128.281H127.261C123.951 128.281 121.273 125.605 121.273 122.297V81.7924C121.273 78.4845 123.951 75.8081 127.261 75.8081H167.788C171.097 75.8081 173.775 78.4845 173.775 81.7924V122.297C173.785 125.605 171.097 128.281 167.797 128.281Z" fill="white"/>
<path d="M148.413 84.3462C138.579 84.3462 130.602 92.3189 130.602 102.148C130.602 111.978 138.579 119.95 148.413 119.95C158.248 119.95 166.225 111.978 166.225 102.148C166.225 92.3189 158.248 84.3462 148.413 84.3462ZM148.413 112.835C142.718 112.835 138.098 108.217 138.098 102.525C138.098 96.8331 142.718 92.2153 148.413 92.2153C154.109 92.2153 158.729 96.8331 158.729 102.525C158.729 108.217 154.109 112.835 148.413 112.835Z" fill="#E527BB"/>
<path d="M150.738 84.4971L149.211 92.2436C154.359 92.6395 158.452 96.8049 158.716 101.988C160.705 101.47 163.543 100.678 166.089 99.9431C165.099 91.9232 158.753 85.5526 150.738 84.4971Z" fill="#E527BB"/>
<path d="M148.417 84.3462C141.798 84.3462 136.018 87.9556 132.953 93.3179L139.422 97.4927C141.185 94.3451 144.551 92.2153 148.426 92.2153C148.69 92.2153 148.954 92.2247 149.218 92.253L150.746 84.5064C149.982 84.4027 149.209 84.3462 148.417 84.3462Z" fill="#A78BEF"/>
<path d="M130.602 102.148C130.602 102.459 130.611 102.78 130.63 103.091C133.157 103.091 136.401 103.119 138.126 103.138C138.117 102.93 138.107 102.732 138.107 102.525C138.107 100.697 138.588 98.9817 139.418 97.4927L132.949 93.3179C131.45 95.9189 130.602 98.9346 130.602 102.148Z" fill="#A78BEF"/>
<path d="M386.313 76.3927C395.601 83.3194 408.406 81.8681 414.912 73.1602L417.232 70.0597L383.607 44.9729L381.288 48.0734C374.772 56.7907 377.026 69.466 386.313 76.3927Z" fill="#007CFF"/>
<path d="M386.313 76.3927C395.601 83.3194 408.406 81.8681 414.912 73.1602L417.232 70.0597L383.607 44.9729L381.288 48.0734C374.772 56.7907 377.026 69.466 386.313 76.3927Z" fill="#DD910A"/>
<path d="M421.226 60.0629C422.631 48.568 414.447 38.1108 402.946 36.7061C391.445 35.3014 380.982 43.4811 379.576 54.976C378.171 66.4709 386.355 76.9281 397.856 78.3328C409.357 79.7375 419.82 71.5578 421.226 60.0629Z" fill="#FFA900"/>
<path d="M417.111 59.2454C418.062 50.0196 411.35 41.77 402.119 40.8194C392.889 39.8687 384.634 46.5769 383.683 55.8027C382.732 65.0284 389.444 73.278 398.675 74.2287C407.905 75.1794 416.16 68.4711 417.111 59.2454Z" fill="#DD910A"/>
<path d="M407.292 59.4103C407.283 60.5129 406.944 61.5402 406.265 62.5203L406.651 62.9161C406.849 63.114 406.944 63.3684 406.944 63.6606C406.944 63.9621 406.84 64.2072 406.642 64.4051C406.444 64.603 406.199 64.6878 405.916 64.6784C405.633 64.6595 405.388 64.5464 405.18 64.3391L404.841 63.9904C403.992 64.6218 403.115 65.0271 402.21 65.1873C401.305 65.3475 400.485 65.2815 399.758 64.9988C399.419 64.8574 399.164 64.7066 399.014 64.5464C398.806 64.3297 398.702 64.0752 398.712 63.7737C398.712 63.4721 398.834 63.2082 399.051 62.9915C399.23 62.8124 399.438 62.7182 399.683 62.6899C399.928 62.6616 400.164 62.6993 400.39 62.8124C400.843 63.048 401.343 63.1234 401.889 63.048C402.427 62.9632 402.946 62.7747 403.426 62.4637L400.183 58.9957C399.023 59.5611 397.976 59.8721 397.043 59.9192C396.109 59.9663 395.28 59.6176 394.572 58.892C393.846 58.1475 393.497 57.2805 393.516 56.2815C393.535 55.2826 393.931 54.2931 394.714 53.313L394.393 52.9831C394.195 52.7852 394.101 52.5308 394.092 52.2386C394.082 51.9465 394.176 51.7109 394.365 51.5224C394.563 51.3245 394.818 51.2302 395.11 51.2397C395.412 51.2491 395.657 51.3528 395.855 51.5601L396.166 51.8805C397.109 51.1266 398.014 50.7213 398.891 50.6554C399.768 50.5894 400.503 50.8627 401.097 51.4753C401.324 51.7109 401.437 51.9747 401.437 52.2763C401.437 52.5779 401.333 52.8229 401.116 53.0302C400.928 53.2187 400.701 53.313 400.456 53.3224C400.202 53.3318 399.975 53.247 399.768 53.0774C399.523 52.8889 399.193 52.8135 398.797 52.8606C398.401 52.9077 397.976 53.0774 397.533 53.3601L400.409 56.4417C402.936 55.1978 404.869 55.2732 406.208 56.6491C406.934 57.3936 407.292 58.3171 407.292 59.4103ZM396.986 57.7234C397.401 57.7234 397.929 57.5915 398.589 57.3276L396.119 54.7548C395.742 55.2637 395.553 55.7349 395.534 56.1684C395.515 56.6114 395.666 56.9883 395.977 57.3088C396.232 57.5821 396.571 57.7234 396.986 57.7234ZM405.284 59.4669C405.275 58.9391 405.105 58.5056 404.775 58.1663C404.511 57.893 404.152 57.7328 403.709 57.7046C403.266 57.6763 402.691 57.7988 401.984 58.0909L404.813 61.0313C405.143 60.5224 405.293 59.9946 405.284 59.4669Z" fill="white"/>
<path d="M383.382 58.9674C382.59 49.5716 389.567 41.3067 398.977 40.5151C408.378 39.7235 416.648 46.6973 417.44 56.1025C415.686 47.6491 407.879 41.8345 399.27 42.5601C389.869 43.3517 382.882 51.6166 383.674 61.0124C383.542 60.3339 383.438 59.6554 383.382 58.9674Z" fill="#007CFF"/>
<path d="M383.382 58.9674C382.59 49.5716 389.567 41.3067 398.977 40.5151C408.378 39.7235 416.648 46.6973 417.44 56.1025C415.686 47.6491 407.879 41.8345 399.27 42.5601C389.869 43.3517 382.882 51.6166 383.674 61.0124C383.542 60.3339 383.438 59.6554 383.382 58.9674Z" fill="#FFA900"/>
<path d="M134.371 63.2836C140.868 68.137 149.835 67.1192 154.389 61.0218L156.011 58.8543L132.476 41.2878L130.854 43.4554C126.299 49.5622 127.874 58.4396 134.371 63.2836Z" fill="#007CFF"/>
<path d="M134.371 63.2836C140.868 68.137 149.835 67.1192 154.389 61.0218L156.011 58.8543L132.476 41.2878L130.854 43.4554C126.299 49.5622 127.874 58.4396 134.371 63.2836Z" fill="#DD910A"/>
<path d="M158.821 51.8525C159.805 43.8035 154.074 36.4811 146.021 35.4975C137.968 34.5138 130.641 40.2415 129.657 48.2905C128.673 56.3395 134.404 63.6619 142.457 64.6455C150.51 65.6291 157.837 59.9015 158.821 51.8525Z" fill="#FFA900"/>
<path d="M155.933 51.2767C156.599 44.8208 151.902 39.0479 145.442 38.3827C138.983 37.7174 133.207 42.4117 132.541 48.8676C131.876 55.3236 136.572 61.0964 143.032 61.7617C149.491 62.4269 155.267 57.7327 155.933 51.2767Z" fill="#DD910A"/>
<path d="M149.058 51.3999C149.058 52.1727 148.813 52.8889 148.332 53.5769L148.605 53.8596C148.747 54.001 148.813 54.1706 148.813 54.3874C148.813 54.5947 148.747 54.7643 148.605 54.9057C148.464 55.047 148.294 55.1036 148.096 55.0942C147.898 55.0847 147.728 55.0093 147.587 54.8586L147.351 54.6135C146.757 55.0565 146.144 55.3392 145.513 55.4523C144.881 55.5654 144.306 55.5182 143.796 55.3203C143.561 55.2261 143.382 55.113 143.278 55.0093C143.136 54.8586 143.061 54.6795 143.07 54.4722C143.07 54.2648 143.155 54.0764 143.306 53.9256C143.429 53.8031 143.58 53.7277 143.749 53.7088C143.919 53.69 144.079 53.7182 144.24 53.7936C144.56 53.9633 144.909 54.0104 145.286 53.9538C145.663 53.8973 146.022 53.7654 146.361 53.5486L144.089 51.1266C143.278 51.5224 142.542 51.7392 141.892 51.7675C141.232 51.7957 140.656 51.5601 140.166 51.0418C139.657 50.5235 139.412 49.9109 139.431 49.2135C139.44 48.5162 139.723 47.8188 140.27 47.1308L140.044 46.8952C139.902 46.7539 139.836 46.5842 139.836 46.3769C139.827 46.1696 139.893 46.0094 140.034 45.8774C140.176 45.7361 140.345 45.6795 140.562 45.6795C140.77 45.689 140.939 45.7643 141.081 45.8963L141.298 46.1225C141.958 45.5947 142.589 45.312 143.202 45.2649C143.815 45.2178 144.334 45.4062 144.749 45.8397C144.909 45.9999 144.984 46.1884 144.984 46.3958C144.984 46.6031 144.909 46.7821 144.758 46.9235C144.626 47.0554 144.466 47.1214 144.296 47.1214C144.117 47.1308 143.957 47.0649 143.815 46.9518C143.646 46.8198 143.419 46.7633 143.136 46.801C142.853 46.8293 142.561 46.9518 142.25 47.1497L144.258 49.3078C146.031 48.4408 147.38 48.4879 148.322 49.4492C148.803 49.9863 149.058 50.6272 149.058 51.3999ZM141.845 50.2125C142.137 50.2125 142.505 50.1183 142.967 49.9392L141.232 48.1392C140.968 48.4973 140.836 48.8272 140.826 49.1287C140.817 49.4397 140.921 49.7036 141.137 49.9204C141.317 50.1183 141.552 50.2125 141.845 50.2125ZM147.653 51.4376C147.644 51.0701 147.53 50.7685 147.295 50.5235C147.106 50.335 146.861 50.2219 146.55 50.2031C146.239 50.1842 145.833 50.269 145.343 50.4764L147.323 52.5308C147.549 52.1727 147.662 51.8052 147.653 51.4376Z" fill="white"/>
<path d="M132.324 51.089C131.768 44.511 136.652 38.7247 143.243 38.1686C149.825 37.6126 155.615 42.4943 156.171 49.0817C154.936 43.1634 149.486 39.0922 143.451 39.6011C136.86 40.1477 131.976 45.9341 132.532 52.5121C132.428 52.0408 132.362 51.5696 132.324 51.089Z" fill="#007CFF"/>
<path d="M132.324 51.089C131.768 44.511 136.652 38.7247 143.243 38.1686C149.825 37.6126 155.615 42.4943 156.171 49.0817C154.936 43.1634 149.486 39.0922 143.451 39.6011C136.86 40.1477 131.976 45.9341 132.532 52.5121C132.428 52.0408 132.362 51.5696 132.324 51.089Z" fill="#FFA900"/>
<path d="M413.614 172.48C420.111 177.333 429.078 176.316 433.632 170.218L435.254 168.051L411.709 150.494L410.088 152.661C405.533 158.759 407.108 167.636 413.614 172.48Z" fill="#007CFF"/>
<path d="M413.614 172.48C420.111 177.333 429.078 176.316 433.632 170.218L435.254 168.051L411.709 150.494L410.088 152.661C405.533 158.759 407.108 167.636 413.614 172.48Z" fill="#DD910A"/>
<path d="M438.055 161.054C439.039 153.005 433.309 145.682 425.255 144.699C417.202 143.715 409.876 149.443 408.891 157.492C407.907 165.541 413.638 172.863 421.691 173.847C429.745 174.83 437.071 169.103 438.055 161.054Z" fill="#FFA900"/>
<path d="M435.159 160.481C435.825 154.025 431.128 148.252 424.669 147.587C418.209 146.921 412.433 151.616 411.768 158.071C411.102 164.527 415.799 170.3 422.258 170.966C428.718 171.631 434.494 166.937 435.159 160.481Z" fill="#DD910A"/>
<path d="M428.292 160.596C428.292 161.369 428.047 162.085 427.566 162.773L427.84 163.056C427.981 163.197 428.047 163.367 428.047 163.584C428.047 163.791 427.981 163.961 427.84 164.102C427.698 164.243 427.529 164.3 427.331 164.29C427.132 164.281 426.963 164.206 426.821 164.055L426.586 163.81C425.992 164.253 425.379 164.535 424.747 164.649C424.115 164.762 423.54 164.715 423.031 164.517C422.795 164.422 422.616 164.309 422.512 164.206C422.371 164.055 422.295 163.876 422.305 163.668C422.305 163.461 422.39 163.273 422.54 163.122C422.663 162.999 422.814 162.924 422.984 162.905C423.153 162.886 423.314 162.915 423.474 162.99C423.795 163.16 424.143 163.207 424.521 163.15C424.898 163.094 425.256 162.962 425.596 162.745L423.323 160.323C422.512 160.719 421.777 160.935 421.126 160.964C420.466 160.992 419.891 160.756 419.401 160.238C418.891 159.72 418.646 159.107 418.665 158.41C418.675 157.712 418.957 157.015 419.504 156.327L419.278 156.092C419.137 155.95 419.071 155.781 419.071 155.573C419.061 155.366 419.127 155.206 419.269 155.074C419.41 154.932 419.58 154.876 419.797 154.876C420.004 154.885 420.174 154.961 420.315 155.093L420.532 155.319C421.192 154.791 421.824 154.508 422.437 154.461C423.05 154.414 423.568 154.603 423.983 155.036C424.143 155.196 424.219 155.385 424.219 155.592C424.219 155.799 424.143 155.978 423.993 156.12C423.861 156.252 423.7 156.318 423.531 156.318C423.351 156.327 423.191 156.261 423.05 156.148C422.88 156.016 422.654 155.96 422.371 155.997C422.088 156.026 421.796 156.148 421.484 156.346L423.493 158.504C425.266 157.637 426.614 157.684 427.557 158.645C428.047 159.173 428.302 159.823 428.292 160.596ZM421.079 159.409C421.371 159.409 421.739 159.315 422.201 159.135L420.466 157.335C420.202 157.694 420.07 158.023 420.061 158.325C420.051 158.636 420.155 158.9 420.372 159.117C420.551 159.315 420.787 159.409 421.079 159.409ZM426.897 160.634C426.887 160.266 426.774 159.965 426.538 159.72C426.35 159.531 426.105 159.418 425.794 159.399C425.482 159.381 425.077 159.465 424.587 159.673L426.567 161.727C426.793 161.369 426.897 161.001 426.897 160.634Z" fill="white"/>
<path d="M411.559 160.276C411.002 153.698 415.887 147.911 422.478 147.355C429.059 146.799 434.849 151.681 435.405 158.268C434.17 152.35 428.72 148.279 422.685 148.788C416.104 149.344 411.219 155.13 411.766 161.708C411.672 161.237 411.606 160.756 411.559 160.276Z" fill="#007CFF"/>
<path d="M411.559 160.276C411.002 153.698 415.887 147.911 422.478 147.355C429.059 146.799 434.849 151.681 435.405 158.268C434.17 152.35 428.72 148.279 422.685 148.788C416.104 149.344 411.219 155.13 411.766 161.708C411.672 161.237 411.606 160.756 411.559 160.276Z" fill="#FFA900"/>
<path d="M386.791 297.104C388.658 297.368 390.573 296.812 392.185 295.832C393.788 294.852 395.117 293.466 396.277 291.977C399.361 288.038 401.407 283.307 402.17 278.359C402.331 277.304 402.434 276.201 402.17 275.165C401.906 274.128 401.209 273.139 400.2 272.79C398.691 272.262 397.088 273.233 395.862 274.26C390.28 278.915 386.546 285.72 385.603 292.929C385.368 294.691 385.622 296.491 386.791 297.104Z" fill="#35CB60"/>
<path d="M375.893 288.066C377.439 284.853 377.552 281.055 376.534 277.634C375.516 274.222 373.413 271.188 370.811 268.747C367.954 266.071 364.295 264.016 360.382 263.997C358.713 263.988 356.912 264.44 355.884 265.75C354.79 267.154 354.885 269.143 355.366 270.848C356.148 273.647 357.808 276.135 359.797 278.256C361.777 280.376 364.088 282.167 366.398 283.939C368.991 285.936 371.801 288 375.063 288.245" fill="#35CB60"/>
<path d="M375.668 298.904C375.206 295.294 372.405 292.307 369.124 290.733C365.842 289.159 362.127 288.764 358.497 288.585C357.686 288.547 356.856 288.519 356.083 288.754C355.31 288.999 354.584 289.555 354.376 290.337C354.103 291.365 354.754 292.392 355.433 293.202C359.412 297.98 365.644 300.798 371.868 300.638C372.584 300.619 373.32 300.563 373.989 300.28C374.649 300.006 375.243 299.479 375.451 298.791" fill="#35CB60"/>
<path d="M399.084 275.25C390.984 287.529 384.186 300.629 378.792 314.322C378.623 314.746 379.311 314.925 379.471 314.51C384.836 300.883 391.625 287.84 399.697 275.608C399.951 275.221 399.339 274.863 399.084 275.25Z" fill="#1A2E35"/>
<path d="M380.254 312.079C380.678 298.781 377.68 285.475 368.647 275.316C365.865 272.187 362.659 269.492 359.218 267.126C358.84 266.872 358.491 267.484 358.859 267.739C364.668 271.725 369.722 276.767 373.258 282.883C376.482 288.462 378.349 294.729 379.123 301.109C379.566 304.747 379.669 308.422 379.556 312.088C379.528 312.541 380.235 312.541 380.254 312.079Z" fill="#1A2E35"/>
<path d="M379.871 302.645C374.656 296.604 367.377 292.392 359.504 290.978C359.061 290.903 358.872 291.581 359.315 291.657C367.075 293.042 374.223 297.179 379.371 303.135C379.673 303.493 380.163 302.994 379.871 302.645Z" fill="#1A2E35"/>
<path d="M368.051 316.781V308.969H378.932H389.813V316.781C389.813 316.781 390.228 330.588 382.553 331.841H378.923H375.292C367.636 330.588 368.051 316.781 368.051 316.781Z" fill="#007CFF"/>
<path d="M368.051 316.781V308.969H378.932H389.813V316.781C389.813 316.781 390.228 330.588 382.553 331.841H378.923H375.292C367.636 330.588 368.051 316.781 368.051 316.781Z" fill="#EF3D1B"/>
<path d="M188.123 264.101H122.609V333H188.123V264.101Z" fill="#E527BB"/>
<path d="M176.633 195.456C176.945 195.56 188.467 215.02 189.193 215.02C189.919 215.02 200.819 210.666 200.819 210.666L202.997 215.85C202.997 215.85 188.995 224.284 183.441 223.643C177.887 223.012 168.656 200.705 168.656 200.705L176.633 195.456Z" fill="#FFBDB6"/>
<path d="M200.602 210.629L206.91 206.322L208.475 215.859C208.475 215.859 202.28 218.328 200.63 215.143L200.602 210.629Z" fill="#FFBDB6"/>
<path d="M213.167 206.718L214.082 214.662L208.471 215.868L206.906 206.312L213.167 206.718Z" fill="#FFBDB6"/>
<path d="M234.013 324.895L241.339 321.079L236.389 303.484L229.062 307.31L234.013 324.895Z" fill="#FFBDB6"/>
<path d="M241.586 319.929L232.675 322.52C232.364 322.596 232.176 322.907 232.251 323.218C232.251 323.218 232.251 323.218 232.251 323.227L233.863 330.399C234.09 331.162 234.891 331.605 235.664 331.398C238.757 330.446 240.19 329.834 244.047 328.656C246.451 327.939 251.27 326.79 254.4 325.301C257.531 323.812 255.994 320.758 254.532 321.116C251.072 321.936 245.791 321.079 243.047 319.976C242.576 319.806 242.067 319.787 241.586 319.929Z" fill="#A78BEF"/>
<path d="M258.752 291.317L262.637 284.805L250.86 273.808L246.984 280.32L258.752 291.317Z" fill="#FFBDB6"/>
<path d="M263.382 283.967C263.439 283.967 263.439 283.967 263.439 283.967C263.448 283.948 263.448 283.929 263.439 283.91C264.004 283.543 264.523 283.1 264.985 282.61C265.362 282.27 265.607 281.809 265.655 281.3C265.636 280.932 265.409 280.612 265.07 280.48C264.872 280.367 264.627 280.367 264.429 280.48C263.882 280.97 263.524 281.648 263.429 282.374C263.344 281.724 263.033 281.13 262.552 280.687C262.288 280.527 261.949 280.574 261.741 280.791C261.534 280.96 261.421 281.215 261.43 281.479C261.506 282.534 263.241 283.797 263.325 283.863L263.392 283.75L263.335 283.873C263.382 283.882 263.335 283.995 263.335 283.995C263.344 283.995 263.363 283.976 263.382 283.967ZM263.259 283.316V283.496C262.713 283.024 261.836 282.167 261.836 281.545C261.826 281.403 261.873 281.262 261.968 281.158L262.034 281.102C262.222 280.932 262.364 280.97 262.449 281.026C262.977 281.677 263.259 282.487 263.259 283.316ZM263.646 283.486C263.825 282.449 264.193 281.102 264.674 280.857C264.778 280.8 264.891 280.8 264.994 280.857C265.202 280.951 265.343 281.149 265.372 281.375C265.39 281.875 264.74 282.647 263.646 283.486Z" fill="#A78BEF"/>
<path d="M262.279 283.788L256.593 290.102C256.386 290.309 256.386 290.648 256.593 290.856L261.336 295.681C261.883 296.18 262.731 296.142 263.231 295.596C265.183 293.362 266.003 292.194 268.502 289.404C270.039 287.699 273.245 284.457 274.961 281.827C276.687 279.198 274.009 277.521 273.066 278.491C270.756 280.8 266.211 282.666 263.59 283.128C263.09 283.194 262.628 283.429 262.279 283.788Z" fill="#A78BEF"/>
<path d="M178.562 194.627L171.462 199.819L166.162 203.702L165.399 202.75L163.447 200.338L159.656 195.72L164.05 178.446C168.265 178.634 175.205 189.519 177.506 193.015C178.175 194.005 178.562 194.627 178.562 194.627Z" fill="#A78BEF"/>
<path opacity="0.2" d="M171.46 199.819L166.161 203.702L163.445 200.338C164.077 194.975 164.747 189.5 164.747 189.5C167.67 192.44 169.951 195.955 171.46 199.819Z" fill="black"/>
<path d="M242.256 315.028C242.256 315.028 226.519 258.05 223.907 254.771C219.682 249.418 178.929 243.764 178.929 243.764L168.265 225.34L129.766 230.73C129.766 230.73 132.613 257.787 137.347 264.76C142.09 271.734 204.115 270.566 208.235 271.923C212.356 273.28 227.961 317.752 227.961 317.752L242.256 315.028Z" fill="#1A2E35"/>
<path opacity="0.2" d="M242.252 315.019L227.891 317.742C227.891 317.742 212.304 273.27 208.165 271.923C204.035 270.566 141.991 271.734 137.276 264.76C132.562 257.787 129.695 230.73 129.695 230.73L168.195 225.34L171.344 230.787L173.107 233.831L178.925 243.764C178.925 243.764 219.678 249.446 223.94 254.771C226.514 258.041 242.252 315.019 242.252 315.019Z" fill="black"/>
<path opacity="0.2" d="M171.346 230.787L173.138 233.821L143.766 242.802L171.346 230.787Z" fill="black"/>
<path d="M150.016 241.21C150.016 241.21 194.71 224.096 206.874 228.836C219.037 233.586 257.518 276.484 257.518 276.484L248.815 287.491C248.815 287.491 209.844 250.483 205.29 248.372C200.735 246.261 154.966 269.209 154.966 269.209L150.016 241.21Z" fill="#1A2E35"/>
<path opacity="0.2" d="M150.016 241.21C150.016 241.21 194.71 224.096 206.874 228.836C219.037 233.586 257.518 276.484 257.518 276.484L248.815 287.491C248.815 287.491 209.844 250.483 205.29 248.372C200.735 246.261 154.966 269.209 154.966 269.209L150.016 241.21Z" fill="black"/>
<path opacity="0.2" d="M159.352 267.079C159.352 267.079 199.152 247.043 206.403 244.348C213.654 241.653 229.146 250.247 231.853 271.517L228.656 268.031C228.656 268.031 225.478 255.27 221 251.397C217.897 248.721 203.791 250.295 203.791 250.295C207.139 248.645 174.646 264.911 159.352 267.079Z" fill="black"/>
<path d="M171.938 232.379C159.105 238.317 145.348 243.095 129.705 240.541C129.705 240.541 129.196 225.924 128.592 217.829C128.215 212.655 127.838 206.595 127.64 200.592C127.338 191.498 130.11 182.111 131.176 176.683C139.276 174.535 145.716 175.279 153.41 175.986C158.247 177.729 160.784 176.975 165.734 179.105C165.743 179.096 169.11 205.408 171.938 232.379Z" fill="#A78BEF"/>
<path d="M170.279 215.633L177.53 213.23L176.408 222.833C176.408 222.833 169.77 223.502 169.062 219.987L170.279 215.633Z" fill="#FFBDB6"/>
<path d="M183.44 215.322L182.139 223.21L176.406 222.833L177.528 213.22L183.44 215.322Z" fill="#FFBDB6"/>
<path opacity="0.2" d="M128.593 217.527C128.216 212.353 127.839 206.294 127.641 200.29C131.063 193.986 136.429 186.512 136.429 186.512C136.429 186.512 150.384 201.742 128.593 217.527Z" fill="black"/>
<path d="M124.523 195.739C126.494 204.823 130.803 219.911 139.271 224.906C140.053 225.311 140.902 225.594 141.769 225.735C144.692 226.027 147.644 225.943 150.548 225.481C158.176 224.454 165.729 222.87 173.131 220.741L172.179 215.473L157.205 216.292C153.254 216.509 146.352 216.782 143.844 216.358L144.146 216.519C144.014 216.396 143.74 216.151 143.618 216.01C141.505 213.522 140.28 210.393 139.054 207.161C137.479 202.703 136.14 198.17 135.065 193.571L124.523 195.739Z" fill="#FFBDB6"/>
<path d="M139.286 200.96L123.916 204.56L123.492 202.722C120.814 190.405 124.539 178.012 131.186 176.674C131.186 176.674 133.148 179.086 135.222 183.139C136.844 186.268 138.4 195.249 139.013 199.131C139.182 200.262 139.286 200.96 139.286 200.96Z" fill="#A78BEF"/>
<path d="M144.124 157.6C144.124 158.617 144.124 159.777 144.124 161.03C143.907 166.637 142.558 173.008 138.938 175.458C141.729 179.548 146.471 181.998 150.686 182.159C154.317 182.225 154.439 178.04 153.675 176.061C151.922 175.477 152.035 175.534 152.035 175.534C151.092 173.281 151.855 170.595 152.987 168.079L144.124 157.6Z" fill="#FFBDB6"/>
<path opacity="0.2" d="M144.12 157.6C144.054 158.74 144.054 159.89 144.12 161.03C144.337 165.572 145.704 173.215 152.069 175.534C151.116 173.281 151.889 170.595 153.021 168.079L144.12 157.6Z" fill="black"/>
<path d="M143.73 153.001C143.909 145.612 151.603 140.683 158.449 144.18C165.389 147.723 165.455 158.721 163.305 165.186C160.919 172.367 151.547 174.949 146.455 168.795C143.06 164.696 143.541 160.389 143.73 153.001Z" fill="#FFBDB6"/>
<path d="M149.754 140.665C143.445 139.534 142.022 143.369 140.9 147.516C139.466 148.27 139.202 149.693 140.475 152.011C140.504 152.294 140.56 152.586 140.645 152.897C141.069 154.442 142.729 158.033 144.19 161.068C144.105 160.672 144.039 160.248 143.992 159.795C143.851 158.278 143.719 156.186 143.672 153.679C144.237 153.839 144.605 154.094 144.926 154.386C147.274 156.488 147.924 158.08 149.386 157.044C150.272 156.412 150.046 153.641 150.018 151.323C150.018 150.72 150.055 149.363 150.348 148.091C150.744 146.394 152.78 145.433 152.78 145.433C152.78 145.433 152.912 145.339 153.054 145.179C154.996 147.243 160.013 151.323 164.529 150.343C171.29 148.901 157.391 135.462 149.754 140.665Z" fill="#1A2E35"/>
<path d="M140.502 157.599C140.804 159.635 142.02 161.341 143.397 162.321C145.471 163.801 146.707 161.463 146.867 159.051C147.008 156.883 146.801 154.169 144.359 153.651C141.954 153.151 140.163 155.262 140.502 157.599Z" fill="#FFBDB6"/>
<path opacity="0.2" d="M142.562 155.781C142.94 155.375 143.581 155.309 144.09 155.526C144.599 155.743 144.976 156.186 145.231 156.676C145.533 157.26 145.684 157.929 145.655 158.589" stroke="black" stroke-width="0.5" stroke-miterlimit="10" stroke-linecap="round" stroke-linejoin="round"/>
<path d="M147.867 226.866L168.234 234.038L192.42 223.21L147.867 225.34V226.866Z" fill="#E527BB"/>
<path d="M170.895 234.038H212.638C213.713 234.038 214.637 233.275 214.844 232.219L220.955 200.319C221.219 198.934 220.162 197.652 218.748 197.652H176.42C175.327 197.652 174.393 198.434 174.205 199.518L168.679 231.418C168.453 232.785 169.509 234.038 170.895 234.038Z" fill="#E527BB"/>
<path d="M147.867 225.34C148.376 225.311 168.395 232.04 168.395 232.04L169.111 224.322L147.867 225.34Z" fill="#A78BEF"/>
<path d="M138.453 175.533C138.453 175.533 141.659 172.226 141.65 172.254C141.631 172.282 150.004 177.757 150.456 177.296C150.919 176.834 151.645 174.318 151.645 174.318C151.645 174.318 154.492 176.25 154.954 177.324C155.416 178.398 154.388 184.043 151.645 184.533C144.497 185.815 138.453 175.533 138.453 175.533Z" fill="#A78BEF"/>
<g opacity="0.3">
<path d="M138.538 176.118C139.867 177.154 141.187 178.191 142.517 179.228C143.394 179.916 144.233 180.707 145.214 181.244C145.94 181.64 146.854 181.895 147.514 181.244C148.429 180.34 149.014 179.162 149.73 178.116C149.985 177.739 149.372 177.381 149.117 177.758C148.467 178.709 147.901 179.699 147.147 180.585C146.515 181.329 145.581 180.688 144.94 180.246C144.073 179.642 143.262 178.926 142.423 178.276C141.291 177.39 140.16 176.504 139.028 175.618C138.679 175.345 138.179 175.844 138.538 176.118Z" fill="black"/>
</g>
<g opacity="0.3">
<path d="M150.114 178.219C150.699 178.841 151.293 179.463 151.877 180.085C152.32 180.556 152.962 181.499 153.716 181.131C154.348 180.83 154.31 179.925 154.338 179.341C154.376 178.493 154.366 177.644 154.3 176.796C154.263 176.344 153.556 176.344 153.593 176.796C153.65 177.541 153.669 178.276 153.64 179.02C153.631 179.35 153.622 179.689 153.584 180.019C153.565 180.142 153.537 180.443 153.395 180.491C153.226 180.547 152.99 180.227 152.896 180.132C152.65 179.869 152.396 179.605 152.151 179.35C151.641 178.804 151.123 178.266 150.614 177.72C150.302 177.39 149.803 177.889 150.114 178.219Z" fill="black"/>
</g>
</g>
</g>
<defs>
<clipPath id="clip0_2439_6670">
<rect width="542.64" height="328.79" fill="white"/>
</clipPath>
<clipPath id="clip1_2439_6670">
<rect width="373" height="314" fill="white" transform="translate(85 19)"/>
</clipPath>
</defs>
</svg>
