<svg width="543" height="329" viewBox="0 0 543 329" fill="none" xmlns="http://www.w3.org/2000/svg">
<g clip-path="url(#clip0_2447_8690)">
<path opacity="0.2" d="M78.788 327.839C41.4882 290.535 -9.49424 252.012 10.4949 193.818C23.6478 155.541 55.8804 144.88 82.6859 121.276C95.9087 109.631 87.5932 92.6757 87.3433 75.8481C86.7836 32.7513 139.135 -0.687543 187.269 0.010739C239.401 0.768031 261.969 48.9102 305.705 51.4968C322.876 51.7426 338.257 42.4781 353.449 35.1314C398.465 13.3371 469.906 27.2339 473.514 79.9296C474.444 108.392 439.183 154.174 474.514 169.143C502.668 181.072 531.113 185.469 536.19 228.133C542.837 283.976 507.716 314.621 461.971 329L78.788 327.839Z" fill="#999999"/>
<path d="M366.946 142.485H196.215C195.094 142.485 194.188 141.578 194.188 140.457V52.7941C194.188 51.6733 195.094 50.7664 196.215 50.7664H366.946C368.067 50.7664 368.974 51.6733 368.974 52.7941V140.457C368.974 141.578 368.067 142.485 366.946 142.485Z" fill="white"/>
<path d="M368.974 61.8682H194.188V52.4273C194.188 51.5102 194.931 50.7664 195.848 50.7664H367.318C368.235 50.7664 368.979 51.5102 368.979 52.4273V61.8682H368.974Z" fill="#E527BB"/>
<path d="M205.967 56.7019C205.967 57.6241 205.218 58.373 204.296 58.373C203.374 58.373 202.625 57.6241 202.625 56.7019C202.625 55.7797 203.374 55.0308 204.296 55.0308C205.218 55.0308 205.967 55.7746 205.967 56.7019Z" fill="white"/>
<path d="M212.467 56.7019C212.467 57.6241 211.718 58.3731 210.796 58.3731C209.874 58.3731 209.125 57.6241 209.125 56.7019C209.125 55.7797 209.874 55.0308 210.796 55.0308C211.718 55.0257 212.467 55.7746 212.467 56.7019Z" fill="white"/>
<path d="M218.975 56.7019C218.975 57.6241 218.226 58.373 217.304 58.373C216.382 58.373 215.633 57.6241 215.633 56.7019C215.633 55.7797 216.382 55.0308 217.304 55.0308C218.226 55.0308 218.975 55.7746 218.975 56.7019Z" fill="white"/>
<path d="M348.293 118.075H305.735C303.682 118.075 302.016 116.409 302.016 114.356V82.0799C302.016 80.0266 303.682 78.3606 305.735 78.3606H348.293C350.346 78.3606 352.012 80.0266 352.012 82.0799V114.356C352.017 116.409 350.351 118.075 348.293 118.075Z" fill="#A78BEF"/>
<path d="M176.748 100.105H151.37C150.274 100.105 149.383 99.2138 149.383 98.1184V72.7407C149.383 71.6453 150.274 70.7537 151.37 70.7537H176.748C177.843 70.7537 178.735 71.6453 178.735 72.7407V98.1184C178.735 99.2138 177.843 100.105 176.748 100.105Z" fill="#E527BB"/>
<path d="M167.475 83.0987C167.2 82.8236 167.2 82.3753 167.475 82.1001C167.75 81.825 168.198 81.825 168.474 82.1001L171.301 84.9278C171.576 85.2029 171.576 85.6513 171.301 85.9264L168.474 88.7541C168.198 89.0292 167.75 89.0292 167.475 88.7541C167.2 88.479 167.2 88.0306 167.475 87.7555L169.803 85.4271L167.475 83.0987ZM157.407 85.4271L159.736 87.7555C160.011 88.0306 160.011 88.479 159.736 88.7541C159.461 89.0292 159.012 89.0292 158.737 88.7541L155.909 85.9264C155.634 85.6513 155.634 85.2029 155.909 84.9278L158.737 82.1001C159.012 81.825 159.461 81.825 159.736 82.1001C160.011 82.3753 160.011 82.8236 159.736 83.0987L157.407 85.4271ZM163.858 82.3549C163.995 81.9881 164.403 81.8046 164.77 81.9422C165.136 82.0798 165.32 82.4874 165.182 82.8542L163.063 88.5095C162.925 88.8764 162.518 89.0598 162.151 88.9222C161.784 88.7847 161.6 88.3771 161.738 88.0102L163.858 82.3549Z" fill="white"/>
<path d="M349.933 70.8098H304.598C303.228 70.8098 302.117 69.6991 302.117 68.3285V28.4812C302.117 27.1107 303.228 26 304.598 26H349.933C351.303 26 352.414 27.1107 352.414 28.4812V68.3285C352.414 69.6991 351.303 70.8098 349.933 70.8098Z" fill="#A78BEF"/>
<path d="M317.719 48.4023H335.368" stroke="white" stroke-width="1.2548" stroke-miterlimit="10"/>
<path d="M309.594 53.854H335.369" stroke="white" stroke-width="1.2548" stroke-miterlimit="10"/>
<path d="M309.594 41.3713H346.226" stroke="white" stroke-width="1.2548" stroke-miterlimit="10"/>
<path d="M309.102 60.1206H320.122" stroke="white" stroke-width="1.2548" stroke-miterlimit="10"/>
<path d="M323.422 60.1206H346.222" stroke="white" stroke-width="1.2548" stroke-miterlimit="10"/>
<path d="M309.102 48.4023H314.033" stroke="white" stroke-width="1.2548" stroke-miterlimit="10"/>
<path d="M323.188 35.553H335.364" stroke="white" stroke-width="1.2548" stroke-miterlimit="10"/>
<path d="M315.598 33.1431L313.586 37.9578" stroke="white" stroke-width="1.2548" stroke-miterlimit="10"/>
<path d="M311.576 33.8564L309.742 35.5531L311.576 37.3465" stroke="white" stroke-width="1.2548" stroke-miterlimit="10"/>
<path d="M317.969 33.8564L319.803 35.5531L317.969 37.3465" stroke="white" stroke-width="1.2548" stroke-miterlimit="10"/>
<path d="M263.586 131.48H210.838C209.467 131.48 208.352 130.369 208.352 128.994V69.0317C208.352 67.6612 209.462 66.5454 210.838 66.5454H263.58C264.951 66.5454 266.067 67.6561 266.067 69.0317V128.999C266.067 130.369 264.956 131.48 263.586 131.48Z" fill="url(#paint0_linear_2447_8690)"/>
<path opacity="0.45" d="M266.078 70.9729H209.086V101.232H266.078V70.9729Z" fill="url(#paint1_linear_2447_8690)"/>
<path d="M219.929 80.1436H215.312V101.236H219.929V80.1436Z" fill="#E527BB"/>
<path d="M227.788 89.4519H223.172V101.231H227.788V89.4519Z" fill="#A78BEF"/>
<path d="M235.647 76.4192H231.031V101.231H235.647V76.4192Z" fill="#E527BB"/>
<path d="M243.514 84.9534H238.898V101.237H243.514V84.9534Z" fill="#A78BEF"/>
<path d="M251.374 74.4019H246.758V101.232H251.374V74.4019Z" fill="#E527BB"/>
<path d="M259.249 80.1436H254.633V101.236H259.249V80.1436Z" fill="#A78BEF"/>
<path d="M221.595 109.348H215.312V114.881H221.595V109.348Z" fill="#E527BB"/>
<path d="M258.652 109.348H226.977V111.625H258.652V109.348Z" fill="url(#paint2_linear_2447_8690)"/>
<path d="M249.078 112.603H226.977V114.881H249.078V112.603Z" fill="url(#paint3_linear_2447_8690)"/>
<path d="M221.595 119.049H215.312V124.582H221.595V119.049Z" fill="#A78BEF"/>
<path d="M258.652 119.049H226.977V121.326H258.652V119.049Z" fill="url(#paint4_linear_2447_8690)"/>
<path d="M249.078 122.309H226.977V124.587H249.078V122.309Z" fill="url(#paint5_linear_2447_8690)"/>
<path d="M256.87 170.364H173.93C172.569 170.364 171.469 169.264 171.469 167.903V118.473C171.469 117.112 172.569 116.012 173.93 116.012H256.87C258.23 116.012 259.331 117.112 259.331 118.473V167.903C259.331 169.264 258.23 170.364 256.87 170.364Z" fill="#E527BB"/>
<path d="M194.21 133.717L193.267 133.554C193.155 133.141 192.992 132.749 192.778 132.377L193.328 131.592C193.532 131.302 193.497 130.914 193.247 130.665L192.681 130.099C192.427 129.855 192.039 129.829 191.754 130.033L190.969 130.583C190.603 130.369 190.205 130.206 189.793 130.094L189.629 129.131C189.568 128.79 189.278 128.535 188.931 128.53H188.116C187.765 128.53 187.459 128.785 187.403 129.131L187.24 130.074C186.827 130.186 186.435 130.349 186.063 130.563L185.284 130.038C184.993 129.834 184.606 129.87 184.356 130.12L183.791 130.685C183.541 130.935 183.505 131.327 183.709 131.612L184.259 132.397C184.045 132.764 183.882 133.161 183.77 133.574L182.828 133.737C182.481 133.798 182.227 134.099 182.227 134.45V135.25C182.227 135.602 182.481 135.907 182.828 135.964L183.77 136.127C183.882 136.539 184.045 136.932 184.259 137.303L183.709 138.088C183.505 138.378 183.541 138.766 183.791 139.015L184.356 139.581C184.606 139.831 184.998 139.866 185.284 139.662L186.068 139.112C186.435 139.326 186.832 139.489 187.245 139.601L187.408 140.544C187.469 140.89 187.77 141.145 188.121 141.145H188.931C189.283 141.145 189.589 140.89 189.645 140.544L189.808 139.601C190.22 139.489 190.613 139.326 190.985 139.112L191.749 139.652C192.039 139.856 192.427 139.82 192.676 139.571L193.242 139.005C193.491 138.756 193.527 138.363 193.323 138.078L192.773 137.288C192.987 136.921 193.15 136.524 193.262 136.111L194.205 135.948C194.551 135.887 194.806 135.586 194.806 135.235V134.435C194.806 134.078 194.556 133.778 194.21 133.717ZM188.514 136.988C187.321 136.988 186.353 136.02 186.353 134.827C186.353 133.635 187.321 132.667 188.514 132.667C189.706 132.667 190.674 133.635 190.674 134.827C190.674 134.832 190.674 134.838 190.674 134.838C190.664 136.03 189.701 136.988 188.514 136.988Z" fill="white"/>
<path d="M202.688 132.886H225.151" stroke="white" stroke-width="1.323" stroke-miterlimit="10"/>
<path d="M183.977 147.448H243.235" stroke="white" stroke-width="1.323" stroke-miterlimit="10"/>
<path d="M183.977 155.589H243.235" stroke="white" stroke-width="1.323" stroke-miterlimit="10"/>
<path d="M202.688 139.428H214.548" stroke="white" stroke-width="1.323" stroke-miterlimit="10"/>
<path d="M221.352 139.428H242.822" stroke="white" stroke-width="1.323" stroke-miterlimit="10"/>
<path d="M389.092 83.2598C378.138 83.2598 369.258 92.1402 369.258 103.094C369.258 109.921 372.712 115.949 377.965 119.515L377.206 128.65L384.65 122.419C386.081 122.745 387.564 122.924 389.092 122.924C400.046 122.924 408.927 114.043 408.927 103.089C408.927 92.1351 400.046 83.2598 389.092 83.2598Z" fill="#E527BB"/>
<path d="M376.897 129.252L377.697 119.643C372.251 115.883 369 109.708 369 103.094C369 92.0129 378.013 83 389.094 83C400.176 83 409.189 92.0129 409.189 103.094C409.189 114.176 400.176 123.189 389.094 123.189C387.632 123.189 386.165 123.026 384.718 122.705L376.897 129.252ZM389.094 83.5197C378.303 83.5197 369.52 92.2982 369.52 103.094C369.52 109.585 372.729 115.643 378.11 119.296L378.237 119.383L377.514 128.049L384.58 122.139L384.708 122.17C386.155 122.501 387.632 122.669 389.094 122.669C399.885 122.669 408.669 113.89 408.669 103.094C408.669 92.2982 399.89 83.5197 389.094 83.5197Z" fill="white"/>
<path d="M392.478 107.262H386.578V113.381H392.478V107.262Z" fill="white"/>
<path d="M392.732 113.646H386.312V107.002H392.732V113.646ZM386.837 113.121H392.212V107.522H386.837V113.121Z" fill="#5254CF"/>
<path d="M394.311 103.038C394.311 100.323 392.043 98.1318 389.302 98.2592C386.806 98.3764 384.773 100.475 384.743 102.977C384.732 103.869 384.967 104.699 385.379 105.418C386.123 106.707 386.582 108.138 386.582 109.626V110.716H392.482V109.585C392.482 108.118 392.935 106.701 393.674 105.433C394.076 104.73 394.311 103.909 394.311 103.038Z" fill="white"/>
<path d="M392.728 110.976H386.308V109.626C386.308 108.261 385.916 106.885 385.142 105.545C384.693 104.766 384.459 103.874 384.469 102.972C384.5 100.348 386.66 98.1166 389.279 97.9944C390.685 97.9332 391.994 98.4223 393.003 99.3853C394.012 100.348 394.562 101.642 394.562 103.033C394.562 103.92 394.328 104.796 393.879 105.56C393.115 106.88 392.723 108.23 392.723 109.58V110.976H392.728ZM386.833 110.451H392.208V109.58C392.208 108.138 392.621 106.696 393.436 105.295C393.834 104.613 394.047 103.828 394.047 103.033C394.047 101.785 393.548 100.623 392.646 99.7623C391.745 98.9013 390.568 98.458 389.309 98.514C386.96 98.621 385.029 100.623 384.999 102.977C384.989 103.787 385.198 104.587 385.6 105.285C386.42 106.707 386.838 108.164 386.838 109.626L386.833 110.451Z" fill="#5254CF"/>
<path d="M388.437 102.473C388.065 103.003 387.444 103.206 387.046 102.926C386.649 102.646 386.629 101.994 387 101.464C387.372 100.934 387.994 100.73 388.391 101.011C388.789 101.291 388.809 101.948 388.437 102.473Z" fill="white"/>
<path d="M387.461 103.313C387.257 103.313 387.063 103.257 386.9 103.14C386.64 102.957 386.487 102.661 386.477 102.3C386.467 101.968 386.579 101.617 386.788 101.316C386.997 101.016 387.287 100.791 387.603 100.69C387.939 100.578 388.281 100.618 388.536 100.802C388.79 100.98 388.948 101.286 388.958 101.642C388.969 101.974 388.857 102.325 388.648 102.626C388.439 102.926 388.148 103.15 387.832 103.252C387.705 103.293 387.583 103.313 387.461 103.313ZM387.98 101.148C387.914 101.148 387.843 101.158 387.766 101.184C387.562 101.25 387.359 101.408 387.216 101.617C387.073 101.826 386.992 102.065 386.997 102.284C387.002 102.478 387.073 102.631 387.196 102.717C387.318 102.804 387.486 102.819 387.669 102.758C387.878 102.692 388.072 102.539 388.22 102.325C388.362 102.116 388.444 101.877 388.439 101.658C388.434 101.464 388.362 101.311 388.24 101.225C388.169 101.179 388.082 101.148 387.98 101.148Z" fill="#5254CF"/>
<path d="M380.347 94.6364L380.023 95.0435L382.992 97.4005L383.315 96.9934L380.347 94.6364Z" fill="white"/>
<path d="M389.348 89.6784L388.828 89.6951L388.991 94.7823L389.51 94.7657L389.348 89.6784Z" fill="white"/>
<path d="M398.11 93.6069L395.031 96.6018L395.394 96.9743L398.472 93.9794L398.11 93.6069Z" fill="white"/>
<path d="M115.132 123.496C115.132 113.867 107.327 106.056 97.6926 106.056C88.0581 106.056 80.2578 113.867 80.2578 123.496C80.2578 133.126 88.0632 140.936 97.6977 140.936C99.2822 140.936 100.811 140.722 102.268 140.325L108.321 145.389L107.689 137.782C112.188 134.629 115.132 129.406 115.132 123.496Z" fill="#E527BB"/>
<path d="M108.633 145.99L102.204 140.61C100.731 140.997 99.2129 141.196 97.6946 141.196C87.9379 141.196 80 133.253 80 123.496C80 113.74 87.9379 105.797 97.6997 105.797C107.456 105.797 115.399 113.735 115.399 123.496C115.399 129.213 112.623 134.588 107.966 137.91L108.633 145.99ZM102.331 140.034L108.012 144.788L107.416 137.655L107.538 137.569C112.134 134.349 114.875 129.091 114.875 123.491C114.875 114.02 107.171 106.316 97.6997 106.316C88.2283 106.316 80.5197 114.025 80.5197 123.496C80.5197 132.968 88.2232 140.671 97.6946 140.671C99.2129 140.671 100.726 140.468 102.199 140.07L102.331 140.034Z" fill="white"/>
<path d="M97.4706 128.938L92.5234 123.991L92.8954 123.624L97.2974 128.026L102.402 116.399L102.881 116.608L97.4706 128.938Z" fill="white"/>
<path d="M160.009 315.941C156.86 315.987 152.341 316.064 149.422 316.104C149.452 314.693 149.503 313.282 149.57 311.993C149.712 308.778 149.891 306.297 149.891 306.297L158.919 306.236C158.919 306.236 158.878 307.132 158.919 308.477C158.975 310.475 159.209 313.445 160.009 315.941Z" fill="#FFBC96"/>
<path d="M163.506 320.359C161.774 319.824 160.689 318.056 160.011 315.941C156.857 315.992 152.343 316.059 149.419 316.104C149.342 319.431 149.368 322.779 149.689 324.659C149.826 325.474 150.524 326.07 151.355 326.07H166.869C168.132 326.07 169.223 325.01 169.095 323.757C168.937 322.249 167.159 321.49 163.506 320.359Z" fill="#A78BEF"/>
<path d="M158.919 308.482L149.57 311.998C149.713 308.783 149.891 306.302 149.891 306.302L158.919 306.24C158.919 306.24 158.879 307.137 158.919 308.482Z" fill="#D28572"/>
<path d="M154.238 325.937C153.906 324.368 153.249 323.273 152.281 322.687C151.013 321.923 149.622 322.305 149.611 322.31L149.469 321.81C149.535 321.79 151.084 321.357 152.546 322.238C153.647 322.901 154.385 324.108 154.747 325.83L154.238 325.937Z" fill="#656590"/>
<path d="M113.646 304.549C113.646 304.549 112.643 306.877 111.924 309.736C111.578 311.101 111.303 312.594 111.231 314.005C108.266 312.935 104.017 311.402 101.266 310.408C102.544 307.27 103.91 304.192 104.644 302.577L104.664 302.537C104.98 301.828 105.173 301.411 105.173 301.411L113.646 304.549Z" fill="#FFBC96"/>
<path d="M112.937 319.375C111.505 318.259 111.118 316.221 111.23 314.01C108.265 312.94 104.016 311.407 101.269 310.413C100.021 313.496 98.8595 316.639 98.4927 318.509C98.3348 319.319 98.778 320.124 99.5474 320.42L114.058 325.912C115.24 326.36 116.636 325.759 116.957 324.536C117.344 323.069 115.953 321.729 112.937 319.375Z" fill="#A78BEF"/>
<path d="M113.64 304.549C113.64 304.549 112.636 306.877 111.918 309.736L104.352 303.367L104.637 302.572L104.657 302.532C104.973 301.823 105.167 301.406 105.167 301.406L113.64 304.549Z" fill="#D28572"/>
<path d="M101.87 321.22L101.407 320.98C103.348 317.256 99.9239 315.411 99.7812 315.335L100.021 314.871C100.061 314.892 104.051 317.042 101.87 321.22Z" fill="#656590"/>
<path d="M163.352 308.064L146.752 309.369L143.273 250.089L138.132 230.601L131.407 205.117L131.055 203.787L129.435 197.642L129.195 196.725L132.369 196.44L149.534 194.901L150.574 199.594V199.599L160.85 246.08C161.186 247.593 161.38 249.137 161.436 250.686L163.352 308.064Z" fill="#231F20"/>
<path d="M139.456 217.411L138.137 230.602L135.997 251.949C135.752 254.405 135.202 256.83 134.367 259.154L116.682 308.065L101.82 302.328L115.638 252.265C119.199 231.656 118.608 215.837 119.53 205.805C119.586 205.178 119.653 204.577 119.719 204.001C120.091 200.929 120.661 198.494 121.64 196.726L129.44 197.643L134.937 198.29L136.129 203.344L136.369 204.368L139.456 217.411Z" fill="#231F20"/>
<path opacity="0.6" d="M150.567 199.594L150.745 201.591C150.745 201.591 127.451 207.848 119.523 205.804C119.579 205.178 119.646 204.577 119.712 204.001C120.084 200.929 120.655 198.493 121.633 196.725L129.433 197.642L129.194 196.725L132.368 196.44L149.532 194.901L150.567 199.594Z" fill="#1B1B43"/>
<path d="M143.028 250.375L135.238 219.612L128.859 217.574L129.017 217.074L135.676 219.204L135.712 219.347L143.533 250.242L143.028 250.375Z" fill="#1B1B43"/>
<path d="M154.972 251.725L154.789 251.236C158.88 249.702 161.107 248.276 161.127 248.26L161.412 248.699C161.316 248.76 159.12 250.171 154.972 251.725Z" fill="#1B1B43"/>
<path d="M135.033 256.957C134.993 256.952 131.054 256.555 127.172 255.516L127.304 255.011C131.151 256.035 135.049 256.433 135.084 256.438L135.033 256.957Z" fill="#1B1B43"/>
<path d="M103.187 297.821L103.008 298.309L118.132 303.872L118.311 303.384L103.187 297.821Z" fill="#1B1B43"/>
<path d="M163.066 303.618L146.508 304.785L146.544 305.303L163.102 304.136L163.066 303.618Z" fill="#1B1B43"/>
<path d="M128.021 159.003L120.965 161.841C118.916 162.666 117.281 164.276 116.42 166.309L110.5 180.478C109.313 183.316 110.102 186.597 112.451 188.589C114.392 190.229 117.062 190.703 119.446 189.827L124.455 187.988L128.021 159.003Z" fill="#A78BEF"/>
<path d="M176.809 146.128C175.49 146.78 173.972 149.552 174.547 150.55C175.021 151.365 176.122 150.26 176.483 149.883C177.151 149.185 178.873 147.325 177.92 146.265C177.62 145.929 177.222 145.924 176.809 146.128Z" fill="#FFBC96"/>
<path d="M173.612 147.132C172.516 148.115 171.798 151.192 172.623 152.002C173.301 152.665 174.06 151.299 174.31 150.836C174.763 149.985 175.92 147.728 174.722 146.963C174.34 146.719 173.958 146.821 173.612 147.132Z" fill="#FFBC96"/>
<path d="M171.491 148.68C170.386 149.628 169.606 152.542 170.406 153.281C171.063 153.887 171.848 152.588 172.103 152.15C172.572 151.34 173.769 149.19 172.597 148.497C172.22 148.278 171.838 148.38 171.491 148.68Z" fill="#FFBC96"/>
<path d="M169.484 149.399C168.378 150.346 167.598 153.261 168.398 154C169.056 154.606 169.84 153.307 170.095 152.868C170.564 152.058 171.761 149.908 170.589 149.215C170.212 148.996 169.83 149.103 169.484 149.399Z" fill="#FFBC96"/>
<path d="M128.022 159.084L120.675 171.709C120.675 171.709 122.585 192.568 121.195 195.131C119.804 197.693 116.675 199.706 118.586 201.168C120.497 202.63 135.623 205.193 151.963 201.352C156.482 200.073 153.354 197.693 152.309 196.593C151.265 195.497 149.874 167.863 149.874 167.863L140.479 159.298L133.534 157.433L128.022 159.084Z" fill="#A78BEF"/>
<path opacity="0.2" d="M140.337 159.308C139.033 161.591 123.687 163.935 128.018 159.003L132.45 158.07L140.337 159.308Z" fill="#1B1B43"/>
<path d="M160.22 174.17L154.167 165.188C152.761 162.905 150.473 161.311 147.844 160.781L140.492 159.303L144.838 175.602C144.838 175.602 151.619 185.119 157.744 187.335C163.241 189.322 170.537 186.057 174.557 164.561L165.437 163.318L160.22 174.17Z" fill="#A78BEF"/>
<path d="M179.556 151.788C178.633 151.671 175.469 156.44 175.469 156.44L170.359 158.182C168.484 158.819 166.951 160.185 166.09 161.968L165.438 163.328L174.557 164.571C174.705 163.771 174.853 162.946 174.996 162.095C178.124 159.262 181.599 152.048 179.556 151.788Z" fill="#FFBC96"/>
<path d="M141.741 139.158L143.591 141.716C143.906 142.149 143.708 142.74 143.183 142.943L141.211 143.708L139.82 140.615L141.741 139.158Z" fill="#D28572"/>
<path d="M129.781 153.21C130.245 148.507 130.056 143.789 130.056 143.789L138.483 144.401C138.412 145.338 138.402 146.311 138.438 147.284C138.494 148.823 138.667 150.382 138.906 151.89C139.039 152.721 139.186 153.531 139.349 154.315L129.781 153.21Z" fill="#FFBC96"/>
<path d="M138.914 151.89C135.347 150.408 133.977 147.223 133.977 147.223L138.445 147.285C138.501 148.823 138.669 150.382 138.914 151.89Z" fill="#D28572"/>
<path d="M129.784 153.21L128.016 159.003C132.081 159.981 136.244 160.022 140.488 159.308L139.352 154.315L129.784 153.21Z" fill="#FFF5E8"/>
<path d="M141.528 134.843L142.399 146.505C142.476 147.004 142.17 147.463 141.742 147.865C141.003 148.553 139.989 148.869 138.981 148.828L133.009 148.579L128.75 143.8L132.052 133.63L138.048 133.543L141.528 134.843Z" fill="#FFBC96"/>
<path d="M131.74 141.772C131.74 141.772 133.304 146.663 129.982 149.139C126.395 147.967 119.746 137.079 128.025 133.625C128.025 133.625 130.308 127.822 136.498 129.977C141.965 131.877 143.407 135.194 143.407 135.194C143.407 135.194 139.56 138.063 135.061 135.388C135.061 135.383 135.52 141.186 131.74 141.772Z" fill="#231F20"/>
<path d="M133.937 139.774C134.91 140.982 134.814 142.673 133.723 143.555C132.633 144.436 130.957 144.176 129.984 142.969C129.011 141.761 129.107 140.07 130.198 139.189C131.288 138.307 132.964 138.567 133.937 139.774Z" fill="#FFBC96"/>
<path d="M132.741 142.582C132.721 142.495 132.201 140.508 130.8 140.814L130.719 140.432C132.135 140.126 132.91 141.644 133.124 142.49L132.741 142.582Z" fill="#1B1B43"/>
<path d="M120.485 202.248C118.9 201.871 118.009 201.285 117.749 200.455C117.326 199.1 118.727 197.551 119.96 196.18C120.154 195.966 120.337 195.762 120.51 195.564C120.852 195.171 121.086 194.703 121.188 194.214C122.329 188.793 120.434 171.913 120.419 171.74L120.938 171.679C121.02 172.377 122.864 188.813 121.703 194.315C121.58 194.891 121.305 195.441 120.908 195.9C120.734 196.099 120.546 196.308 120.352 196.527C119.267 197.729 117.917 199.227 118.253 200.297C118.452 200.929 119.242 201.413 120.612 201.739L120.485 202.248Z" fill="#1B1B43"/>
<path d="M150.763 201.851L150.737 201.331C152.52 201.25 153.611 200.827 153.886 200.103C154.166 199.37 153.651 198.284 152.474 197.113C152.174 196.812 151.96 196.425 151.868 195.997C150.931 191.783 149.932 177.849 149.922 177.711L150.442 177.676C150.452 177.813 151.445 191.707 152.378 195.885C152.449 196.216 152.612 196.517 152.841 196.746C154.191 198.086 154.737 199.344 154.37 200.292C154.008 201.234 152.795 201.759 150.763 201.851Z" fill="#1B1B43"/>
<path d="M159.284 176.499L158.82 176.269L165.296 163.038L174.599 164.306L174.528 164.821L165.597 163.603L159.284 176.499Z" fill="#1B1B43"/>
<path d="M370.519 143.968C367.431 142.098 366.738 136.753 369.607 135.143C372.475 133.533 374.299 134.97 374.299 134.97C374.299 134.97 383.918 131.46 387.556 140.401C390.292 147.137 388.122 150.657 390.511 154.045C393.237 157.907 397.593 161.387 391.902 168.169L378.604 164.908L375.13 148.523L370.519 143.968Z" fill="#231F20"/>
<path d="M416.535 294.135L406.758 298.435C406.758 298.435 408.164 302.068 409.366 306.286L419.424 303.077L416.535 294.135Z" fill="#FFBC96"/>
<path d="M419.426 303.082L409.368 306.292C410.744 311.127 411.855 316.746 410.285 318.575C408.242 320.96 406.459 322.926 406.031 324.582C405.781 325.555 406.78 326.376 407.677 325.922L420.669 319.37C422.824 318.285 423.751 315.707 422.783 313.496L419.426 303.082Z" fill="#A78BEF"/>
<path d="M420.518 306.445L410.258 309.655L410.413 310.151L420.673 306.941L420.518 306.445Z" fill="#656590"/>
<path d="M408.38 321.184L408.273 320.674C410.765 320.145 412.212 319.233 412.579 317.959C413.185 315.86 410.688 313.409 410.663 313.384L411.025 313.012C411.137 313.119 413.766 315.712 413.078 318.107C412.655 319.574 411.076 320.613 408.38 321.184Z" fill="#656590"/>
<path d="M378.778 303.632L367.478 304.677C367.478 304.677 367.773 308.686 367.422 312.711L378.289 312.553L378.778 303.632Z" fill="#FFBC96"/>
<path d="M367.425 312.711C367.12 316.273 366.31 319.849 364.348 320.669C360.175 322.407 356.874 323.624 357.22 326.06H373.259C375.669 326.06 377.661 324.175 377.788 321.765L378.288 312.553L367.425 312.711Z" fill="#A78BEF"/>
<path d="M367.485 315.155L367.477 315.675L377.905 315.848L377.913 315.328L367.485 315.155Z" fill="#656590"/>
<path d="M364.084 322.641C363.391 322.641 362.581 322.539 361.664 322.335L361.776 321.826C364.064 322.335 365.618 322.177 366.265 321.372C367.131 320.297 366.249 318.366 366.239 318.346L366.713 318.127C366.754 318.219 367.737 320.379 366.672 321.704C366.168 322.325 365.297 322.641 364.084 322.641Z" fill="#656590"/>
<path d="M378.63 306.307C378.493 306.353 378.371 306.383 378.253 306.409C375.996 306.929 368.522 306.409 368.522 306.409C368.181 306.338 367.86 306.241 367.554 306.134C360.564 303.591 361.043 291.369 362.087 280.685C363.05 270.887 358.959 220.886 361.787 203.894L379.476 200.027L379.578 203.003L379.792 209.081L380.169 219.841C380.169 219.841 380.836 230.25 381.748 243.293C383.114 262.847 385.035 288.332 386.079 293.549C387.74 301.849 381.453 305.482 378.63 306.307Z" fill="#231F20"/>
<path d="M418.65 295.475C418.257 295.928 417.824 296.331 417.361 296.677C414.981 298.506 411.777 299.179 408.959 299.943C408.465 300.081 407.945 300.178 407.42 300.239C404.797 300.56 401.933 299.964 400.71 297.737C394.434 286.294 387.357 263.586 381.747 243.293C377.646 228.477 374.339 214.945 372.688 208.046C371.965 204.994 371.562 203.242 371.562 203.242L379.577 203.002L393.206 202.59C393.578 204.424 394 206.36 394.474 208.367C399.126 228.222 408.287 255.516 411.879 265.955C414.034 272.206 417.289 277.785 418.726 284.337C419.485 287.807 421.258 292.464 418.65 295.475Z" fill="#231F20"/>
<path opacity="0.6" d="M394.473 208.367C388.909 209.279 384.003 209.401 379.794 209.08C377.145 208.882 374.771 208.505 372.692 208.041C365.554 206.467 361.789 203.889 361.789 203.889L379.479 200.022L379.58 202.997L393.209 202.584C393.576 204.429 393.999 206.36 394.473 208.367Z" fill="#1B1B43"/>
<path d="M381.488 243.364L376.036 224.044L370.422 222.001L370.6 221.512L376.464 223.642L376.5 223.769L381.992 243.222L381.488 243.364Z" fill="#1B1B43"/>
<path d="M414.979 297.849L414.526 297.589C417.16 293.019 411.882 278.937 405.202 261.105C398.716 243.792 390.646 222.246 387.727 203.018L388.241 202.941C391.15 222.113 399.216 243.629 405.691 260.921C412.422 278.881 417.736 293.065 414.979 297.849Z" fill="#1B1B43"/>
<path d="M365.579 187.473C364.948 191.88 364.005 197.638 364.005 197.638H353.703L356.21 183.856L356.831 180.432C356.831 180.432 365.697 182.516 366.089 182.516C366.242 182.516 365.967 184.737 365.579 187.473Z" fill="#FFBC96"/>
<path d="M365.583 187.473L365.114 188.513L356.219 183.856L356.84 180.432C356.84 180.432 365.705 182.516 366.098 182.516C366.246 182.516 365.97 184.737 365.583 187.473Z" fill="#D28572"/>
<path d="M363.351 184.34C363.351 184.34 365.047 194.249 361.787 203.894C361.787 203.894 377.953 208.846 393.207 202.59L389.686 180.294L390.858 168.953L367.523 169.213L359.57 171.822L363.351 184.34Z" fill="#A78BEF"/>
<path d="M397.453 167.684C396.424 164.74 394.049 162.467 391.064 161.565L386.682 160.241C384.919 162.809 381.771 166.085 377.17 166.085C371.764 166.085 368.376 162.982 366.506 160.45L363.48 161.188C360.229 161.978 357.702 164.536 356.953 167.796L353.57 182.47L363.347 184.34L363.607 173.126L389.031 171.954L389.683 180.299C389.683 180.299 397.025 177.084 401.896 180.386L397.453 167.684Z" fill="#A78BEF"/>
<path d="M408.593 166.737C407.187 169.488 405.291 181.426 404.42 190.724C404.135 193.781 403.264 196.191 402.056 197.948C400.283 200.547 397.771 201.724 395.331 201.464C394.393 201.372 393.471 201.061 392.6 200.547C388.402 198.06 388.937 187.432 389.411 182.648C389.558 181.207 389.691 180.295 389.691 180.295C392.167 178.929 396.08 178.73 396.08 178.73C396.131 178.195 396.197 177.65 396.258 177.095C396.788 172.29 397.598 166.844 398.296 163.216C399.081 159.176 400.645 160.679 400.645 160.679C401.429 159.237 402.601 160.48 402.601 160.48C403.646 158.198 404.95 160.348 404.95 160.348C406.575 157.999 407.467 161.52 407.467 161.52C407.467 161.52 412.521 157.357 413.382 158.565C413.805 159.176 410.59 162.829 408.593 166.737Z" fill="#FFBC96"/>
<path d="M368.567 195.009H346.664V197.638H368.567V195.009Z" fill="#E527BB"/>
<path d="M356.036 197.663H333.445C332.36 197.663 331.372 197.031 330.918 196.043L322.119 176.942C321.829 176.305 322.292 175.582 322.991 175.582H344.18C345.209 175.582 346.147 176.183 346.575 177.115L356.036 197.663Z" fill="#E527BB"/>
<path d="M363.482 197.637C363.207 198.667 362.835 199.609 362.336 200.45C361.128 202.493 359.187 203.899 356.196 204.271C355.172 204.409 354.031 204.414 352.747 204.286C342.394 203.257 339.404 197.597 339.404 197.597C339.404 197.597 338.252 195.192 340.698 195.747C340.698 195.747 341.156 194.219 343.046 195.813C343.046 195.813 342.822 193.918 344.677 195.65C344.677 195.65 344.417 193.724 346.435 195.391C348.457 197.046 350.021 197.541 352.467 197.637C354.907 197.734 363.482 197.637 363.482 197.637Z" fill="#FFBC96"/>
<path d="M362.941 173.118L362.422 173.148L363.073 184.358L363.592 184.328L362.941 173.118Z" fill="#5254CF"/>
<path d="M376.041 170.13C374.808 170.13 373.723 169.982 372.806 169.773C369.693 169.07 367.905 167.608 367.828 167.547L368.159 167.144C368.231 167.2 375.277 172.856 385.416 166.772L385.686 167.221C381.972 169.452 378.67 170.13 376.041 170.13Z" fill="#5254CF"/>
<path d="M389.542 175.161L389.023 175.2L389.414 180.326L389.932 180.287L389.542 175.161Z" fill="#5254CF"/>
<path d="M381.554 182.862C379.877 182.862 378.481 181.619 378.293 179.948L377.875 176.234L385.044 175.76L384.83 179.754C384.738 181.471 383.321 182.837 381.604 182.862C381.589 182.862 381.574 182.862 381.554 182.862ZM378.456 176.718L378.812 179.892C378.97 181.313 380.178 182.363 381.599 182.342C383.046 182.322 384.239 181.171 384.315 179.729L384.498 176.32L378.456 176.718Z" fill="#5254CF"/>
<path d="M395.781 178.743L393.906 191.846L394.421 191.919L396.295 178.816L395.781 178.743Z" fill="#D28572"/>
<path d="M405.152 160.317L404.766 160.387L405.157 162.538L405.543 162.468L405.152 160.317Z" fill="#D28572"/>
<path d="M402.808 160.384L402.422 160.454L402.813 162.605L403.199 162.534L402.808 160.384Z" fill="#D28572"/>
<path d="M400.847 160.516L400.461 160.586L400.852 162.737L401.238 162.667L400.847 160.516Z" fill="#D28572"/>
<path d="M407.125 160.073L406.758 160.211L407.975 163.471L408.342 163.334L407.125 160.073Z" fill="#D28572"/>
<path d="M396.07 178.73L389.375 182.633C389.523 181.191 389.655 180.279 389.655 180.279C392.131 178.914 396.07 178.73 396.07 178.73Z" fill="#D28572"/>
<path opacity="0.4" d="M402.05 197.948C400.277 200.547 397.765 201.724 395.325 201.464C395.299 201.291 395.289 201.112 395.289 200.939C395.289 198.707 397.098 196.899 399.329 196.899C400.379 196.899 401.337 197.296 402.05 197.948Z" fill="#FE5B52"/>
<path opacity="0.4" d="M362.334 200.45C361.127 202.493 359.186 203.899 356.195 204.271C356.185 204.144 356.18 204.021 356.18 203.894C356.18 201.662 357.988 199.854 360.22 199.854C360.994 199.854 361.718 200.073 362.334 200.45Z" fill="#FE5B52"/>
<path d="M347.251 198.371C346.222 198.167 344.933 196.573 344.5 195.737L344.846 195.559C345.29 196.42 346.507 197.826 347.328 197.989L347.251 198.371Z" fill="#D28572"/>
<path d="M344.804 198.641C343.928 197.744 343.123 196.624 342.797 195.854L343.159 195.701C343.464 196.43 344.239 197.5 345.084 198.366L344.804 198.641Z" fill="#D28572"/>
<path d="M342.39 198.58C341.514 197.683 340.709 196.562 340.383 195.793L340.745 195.64C341.05 196.369 341.825 197.439 342.67 198.305L342.39 198.58Z" fill="#D28572"/>
<path d="M386.679 160.241C384.911 162.813 381.762 166.084 377.166 166.084C371.766 166.084 368.373 162.982 366.508 160.449L372.082 159.089C372.219 158.085 372.331 157.112 372.428 156.19C372.499 155.467 372.566 154.774 372.622 154.116C372.713 153.036 372.78 152.063 372.831 151.228C372.897 150.086 372.927 149.22 372.948 148.741C372.958 148.466 372.958 148.318 372.958 148.318L380.779 145.19C380.779 145.19 380.519 155.36 382.863 159.094L386.679 160.241Z" fill="#FFBC96"/>
<path d="M379.162 152.094C379.162 152.094 377.068 154.539 372.422 156.19C372.493 155.467 372.559 154.774 372.615 154.117C372.707 153.036 372.773 152.063 372.824 151.228L379.162 152.094Z" fill="#D28572"/>
<path d="M370.862 138.837C370.862 138.837 366.863 149.699 369.731 151.702C372.284 153.48 375.641 153.699 378.943 152.833L381.113 145.445L379.809 138.231L370.862 138.837Z" fill="#FFBC96"/>
<path d="M379.992 145.532C379.992 145.532 377.17 146.617 375.993 142.663C375.035 139.449 370.867 138.837 370.867 138.837L372.564 137.273L380.604 137.054L383.559 140.661L382.56 145.354L379.992 145.532Z" fill="#231F20"/>
<path d="M383.639 147.789C382.727 149.368 380.974 150.066 379.731 149.348C378.488 148.63 378.213 146.765 379.125 145.185C380.037 143.606 381.789 142.908 383.032 143.626C384.275 144.345 384.551 146.21 383.639 147.789Z" fill="#FFBC96"/>
<path d="M380.463 147.901L380.07 147.896C380.07 147.87 380.121 145.44 382.536 145.16L382.582 145.547C380.514 145.786 380.463 147.814 380.463 147.901Z" fill="#1B1B43"/>
<path d="M461 325.795H112.641V326.315H461V325.795Z" fill="#1B1B43"/>
</g>
<defs>
<linearGradient id="paint0_linear_2447_8690" x1="237.211" y1="87.0052" x2="237.211" y2="179.763" gradientUnits="userSpaceOnUse">
<stop stop-color="#FFFFFE"/>
<stop offset="1" stop-color="#C8E7FF"/>
</linearGradient>
<linearGradient id="paint1_linear_2447_8690" x1="237.579" y1="72.9902" x2="237.579" y2="107.237" gradientUnits="userSpaceOnUse">
<stop stop-color="#C8E7FF" stop-opacity="0"/>
<stop offset="1" stop-color="#92B7D4"/>
</linearGradient>
<linearGradient id="paint2_linear_2447_8690" x1="267.433" y1="102.829" x2="230.508" y2="114.31" gradientUnits="userSpaceOnUse">
<stop stop-color="#C8E7FF"/>
<stop offset="1" stop-color="#92B7D4"/>
</linearGradient>
<linearGradient id="paint3_linear_2447_8690" x1="267.935" y1="104.443" x2="231.01" y2="115.924" gradientUnits="userSpaceOnUse">
<stop stop-color="#C8E7FF"/>
<stop offset="1" stop-color="#92B7D4"/>
</linearGradient>
<linearGradient id="paint4_linear_2447_8690" x1="267.433" y1="112.533" x2="230.508" y2="124.014" gradientUnits="userSpaceOnUse">
<stop stop-color="#C8E7FF"/>
<stop offset="1" stop-color="#92B7D4"/>
</linearGradient>
<linearGradient id="paint5_linear_2447_8690" x1="267.935" y1="114.146" x2="231.01" y2="125.627" gradientUnits="userSpaceOnUse">
<stop stop-color="#C8E7FF"/>
<stop offset="1" stop-color="#92B7D4"/>
</linearGradient>
<clipPath id="clip0_2447_8690">
<rect width="542.64" height="328.79" fill="white"/>
</clipPath>
</defs>
</svg>
