<svg width="543" height="329" viewBox="0 0 543 329" fill="none" xmlns="http://www.w3.org/2000/svg">
<g clip-path="url(#clip0_2439_6841)">
<path opacity="0.2" d="M127.492 328.58L412.142 311.93C487.412 307.53 545.652 243.73 542.512 168.39C539.872 105.08 517.192 37.64 440.912 8.81999C387.262 -11.45 317.592 5.13999 273.402 38.85C262.782 46.95 253.022 56.24 241.612 63.17C215.022 79.32 191.672 68.17 163.972 63.88C105.412 54.79 46.9621 73.46 16.7021 127.43C-29.7579 210.35 25.0421 334.57 127.492 328.58Z" fill="#999999"/>
<g clip-path="url(#clip1_2439_6841)">
<path d="M142.928 215.98H354.678C355.328 215.98 355.848 215.46 355.848 214.81C355.848 214.16 355.328 213.64 354.678 213.64H142.928C142.278 213.64 141.758 214.16 141.758 214.81C141.758 215.46 142.278 215.98 142.928 215.98Z" fill="#886FE2"/>
<path d="M262.93 289.55C331.889 289.55 387.79 233.648 387.79 164.69C387.79 95.7318 331.889 39.8301 262.93 39.8301C193.972 39.8301 138.07 95.7318 138.07 164.69C138.07 233.648 193.972 289.55 262.93 289.55Z" stroke="#A78BEF" stroke-width="8.7306" stroke-miterlimit="10" stroke-dasharray="13.1 13.1"/>
<path d="M295.758 318H227.678C217.678 318 209.578 309.9 209.578 299.9V246.79C209.578 236.79 217.678 228.69 227.678 228.69H295.758C305.758 228.69 313.858 236.79 313.858 246.79V299.9C313.858 309.9 305.758 318 295.758 318Z" fill="#E527BB"/>
<path d="M293.287 282.62H230.427C228.367 282.62 226.688 280.94 226.688 278.88C226.688 276.82 228.367 275.14 230.427 275.14H293.287C295.347 275.14 297.027 276.82 297.027 278.88C297.027 280.93 295.347 282.62 293.287 282.62Z" fill="white"/>
<path d="M293.287 294.66H230.427C228.367 294.66 226.688 292.98 226.688 290.92C226.688 288.86 228.367 287.18 230.427 287.18H293.287C295.347 287.18 297.027 288.86 297.027 290.92C297.027 292.98 295.347 294.66 293.287 294.66Z" fill="white"/>
<path d="M242.171 291.25C242.171 291.98 241.581 292.57 240.851 292.57C240.121 292.57 239.531 291.98 239.531 291.25C239.531 290.52 240.121 289.93 240.851 289.93C241.581 289.94 242.171 290.53 242.171 291.25Z" fill="#A78BEF"/>
<path d="M246.679 291.25C246.679 291.98 246.089 292.57 245.359 292.57C244.629 292.57 244.039 291.98 244.039 291.25C244.039 290.52 244.629 289.93 245.359 289.93C246.099 289.94 246.679 290.53 246.679 291.25Z" fill="#A78BEF"/>
<path d="M251.202 291.25C251.202 291.98 250.613 292.57 249.883 292.57C249.153 292.57 248.562 291.98 248.562 291.25C248.562 290.52 249.153 289.93 249.883 289.93C250.613 289.94 251.202 290.53 251.202 291.25Z" fill="#A78BEF"/>
<path d="M255.71 291.25C255.71 291.98 255.12 292.57 254.39 292.57C253.66 292.57 253.07 291.98 253.07 291.25C253.07 290.52 253.66 289.93 254.39 289.93C255.12 289.94 255.71 290.53 255.71 291.25Z" fill="#A78BEF"/>
<path d="M260.234 291.25C260.234 291.98 259.644 292.57 258.914 292.57C258.184 292.57 257.594 291.98 257.594 291.25C257.594 290.52 258.184 289.93 258.914 289.93C259.644 289.94 260.234 290.53 260.234 291.25Z" fill="#A78BEF"/>
<path d="M264.742 291.25C264.742 291.98 264.152 292.57 263.422 292.57C262.692 292.57 262.102 291.98 262.102 291.25C262.102 290.52 262.692 289.93 263.422 289.93C264.152 289.94 264.742 290.53 264.742 291.25Z" fill="#A78BEF"/>
<path d="M269.265 291.25C269.265 291.98 268.675 292.57 267.945 292.57C267.215 292.57 266.625 291.98 266.625 291.25C266.625 290.52 267.215 289.93 267.945 289.93C268.675 289.94 269.265 290.53 269.265 291.25Z" fill="#A78BEF"/>
<path d="M273.773 291.25C273.773 291.98 273.183 292.57 272.453 292.57C271.723 292.57 271.133 291.98 271.133 291.25C271.133 290.52 271.723 289.93 272.453 289.93C273.183 289.94 273.773 290.53 273.773 291.25Z" fill="#A78BEF"/>
<path d="M278.288 291.25C278.288 291.98 277.698 292.57 276.968 292.57C276.238 292.57 275.648 291.98 275.648 291.25C275.648 290.52 276.238 289.93 276.968 289.93C277.698 289.94 278.288 290.53 278.288 291.25Z" fill="#A78BEF"/>
<path d="M261.88 264.67C269.86 264.67 276.33 258.201 276.33 250.22C276.33 242.24 269.86 235.77 261.88 235.77C253.899 235.77 247.43 242.24 247.43 250.22C247.43 258.201 253.899 264.67 261.88 264.67Z" fill="white"/>
<path d="M261.902 249.64C263.312 249.64 264.612 248.95 265.452 247.9C266.062 247.14 266.432 246.16 266.432 245.08C266.432 242.58 264.402 240.52 261.912 240.52C259.382 240.52 257.352 242.58 257.352 245.08C257.352 246.17 257.712 247.14 258.332 247.9C259.152 248.95 260.462 249.64 261.902 249.64Z" fill="#A78BEF"/>
<path d="M269.912 257.76C269.912 260.64 253.852 260.64 253.852 257.76L253.862 254.41C254.492 249.83 268.612 249.64 269.922 254.41L269.912 257.76Z" fill="#A78BEF"/>
<path d="M233.551 290.23V290.03C233.551 289.22 232.891 288.56 232.081 288.56C231.271 288.56 230.611 289.22 230.611 290.03V290.23H230.391V292.88C230.391 293.34 233.791 293.34 233.791 292.88V290.23H233.551ZM231.131 290.03C231.131 289.52 231.441 289.06 232.081 289.06C232.711 289.06 233.041 289.49 233.041 290.03V290.23H231.141V290.03H231.131ZM232.331 291.57V292.34C232.331 292.48 232.211 292.58 232.071 292.58C231.931 292.58 231.831 292.48 231.831 292.34V291.57C231.691 291.49 231.591 291.35 231.591 291.18C231.591 290.92 231.811 290.71 232.061 290.71C232.321 290.71 232.531 290.93 232.531 291.18C232.551 291.35 232.451 291.49 232.331 291.57Z" fill="#A78BEF"/>
<path d="M232.083 278.61C232.383 278.61 232.653 278.46 232.833 278.24C232.963 278.08 233.043 277.87 233.043 277.64C233.043 277.11 232.613 276.68 232.093 276.68C231.563 276.68 231.133 277.12 231.133 277.64C231.133 277.87 231.213 278.08 231.343 278.24C231.503 278.46 231.783 278.61 232.083 278.61Z" fill="#A78BEF"/>
<path d="M233.769 280.32C233.769 280.93 230.359 280.93 230.359 280.32L230.379 279.61C230.509 278.64 233.489 278.6 233.769 279.61V280.32Z" fill="#A78BEF"/>
<path d="M254.099 279.97H240.319C239.719 279.97 239.219 279.48 239.219 278.87C239.219 278.27 239.709 277.77 240.319 277.77H254.099C254.699 277.77 255.199 278.26 255.199 278.87C255.199 279.48 254.699 279.97 254.099 279.97Z" fill="#A78BEF"/>
<path d="M272.271 279.97H258.491C257.891 279.97 257.391 279.48 257.391 278.87C257.391 278.27 257.881 277.77 258.491 277.77H272.271C272.871 277.77 273.371 278.26 273.371 278.87C273.371 279.48 272.871 279.97 272.271 279.97Z" fill="#A78BEF"/>
<path d="M268.379 306.33H252.089C251.369 306.33 250.789 305.75 250.789 305.03V301.22C250.789 300.5 251.369 299.92 252.089 299.92H268.379C269.099 299.92 269.679 300.5 269.679 301.22V305.03C269.669 305.75 269.089 306.33 268.379 306.33Z" fill="#A78BEF"/>
<path d="M133.93 159.28C126.77 166.95 115.34 173.24 103.12 175.91C103.12 176.73 103.1 181.25 103 202.1C102.88 229.92 129.35 243.51 133.46 245.6C137.44 243.77 164.25 230.19 164.37 202.38C164.46 181.53 164.48 177 164.49 176.19C152.29 173.4 141.02 167.01 133.93 159.28Z" fill="white"/>
<path d="M133.864 164.31C126.854 170.74 117.134 175.8 106.454 178.55L106.344 202.12C106.294 212.9 110.584 222.66 119.074 231.12C124.654 236.68 130.524 240.12 133.504 241.67C133.634 241.6 133.774 241.53 133.914 241.46V164.36C133.904 164.34 133.884 164.32 133.864 164.31Z" fill="#A78BEF"/>
<path d="M133.922 164.36V241.46C137.022 239.85 142.652 236.52 148.042 231.25C156.612 222.87 160.982 213.15 161.032 202.37L161.142 178.8C150.512 175.95 140.872 170.83 133.922 164.36Z" fill="#A78BEF"/>
<path d="M121.508 198.33V216.59C121.508 218.62 146.328 218.62 146.328 216.59V198.33H121.508ZM135.168 208.03V213.2C135.168 213.89 134.608 214.46 133.918 214.46C133.218 214.46 132.658 213.89 132.658 213.2V208.01C131.598 207.53 130.848 206.46 130.848 205.22C130.848 203.53 132.228 202.16 133.918 202.16C135.608 202.16 136.978 203.53 136.978 205.22C136.978 206.47 136.248 207.55 135.168 208.03Z" fill="white"/>
<path d="M144.157 197.03H141.648V195.8C141.648 191.54 138.177 188.07 133.927 188.07C129.667 188.07 126.198 191.54 126.198 195.8V197.03H123.688V195.8C123.688 190.15 128.277 185.56 133.927 185.56C139.567 185.56 144.167 190.15 144.167 195.8V197.03H144.157Z" fill="white"/>
<path d="M317.668 9H272.828V64.97H317.668V9Z" fill="#A78BEF"/>
<path d="M323.481 14.78H278.641V70.75H323.481V14.78Z" fill="#E527BB"/>
<path d="M330.871 20.45H286.031V76.4199H330.871V20.45Z" fill="#886FE2"/>
<path d="M336.238 26.23H291.398V82.2H336.238V26.23Z" fill="#A78BEF"/>
<path d="M329.27 35.4199H306.07V39.0599H329.27V35.4199Z" fill="#E527BB"/>
<path d="M329.261 43.98H299.211V47.62H329.261V43.98Z" fill="#E527BB"/>
<path d="M329.261 52.53H299.211V56.17H329.261V52.53Z" fill="#E527BB"/>
<path d="M329.261 61.0801H299.211V64.7201H329.261V61.0801Z" fill="#E527BB"/>
<path d="M329.261 69.6299H299.211V73.2699H329.261V69.6299Z" fill="#E527BB"/>
<path d="M189.892 73.4667C191.846 64.9398 186.517 56.4438 177.99 54.4904C169.463 52.5369 160.967 57.8657 159.014 66.3925C157.06 74.9194 162.389 83.4154 170.916 85.3689C179.443 87.3223 187.939 81.9935 189.892 73.4667Z" fill="white"/>
<path d="M199.445 84.9801C201.495 81.5701 202.785 77.8901 203.325 74.1801L204.505 74.3501L206.835 74.6901H206.865C207.495 70.4401 207.275 66.1401 206.255 62.0401L202.785 62.9001C201.855 59.1801 200.215 55.6401 197.885 52.5301L200.755 50.3901C198.295 47.0501 195.145 44.1401 191.375 41.8701L189.525 44.9401C186.105 42.8801 182.435 41.6001 178.725 41.0601L179.245 37.5201C174.995 36.8901 170.695 37.1201 166.595 38.1301L167.455 41.6001C163.735 42.5301 160.205 44.1701 157.085 46.5001L154.945 43.6301C151.605 46.0901 148.695 49.2401 146.425 53.0101L149.495 54.8601C147.435 58.2801 146.155 61.9501 145.615 65.6601L143.115 65.2901L142.095 65.1501L142.085 65.1401C141.455 69.3901 141.685 73.6901 142.695 77.7901L146.165 76.9301C147.095 80.6501 148.745 84.1901 151.075 87.3101L148.205 89.4501C150.665 92.7901 153.805 95.7001 157.575 97.9701L159.425 94.9001C162.845 96.9601 166.525 98.2401 170.235 98.7901L169.825 101.54L169.715 102.33C173.965 102.96 178.255 102.73 182.355 101.71L181.495 98.2401C185.215 97.3101 188.755 95.6601 191.885 93.3301L194.005 96.2101C197.335 93.7501 200.245 90.6001 202.515 86.8401L199.445 84.9801ZM166.285 83.4901C158.785 78.9701 156.375 69.2401 160.895 61.7401C165.405 54.2501 175.135 51.8501 182.635 56.3701C190.125 60.8801 192.525 70.6101 188.015 78.1001C183.495 85.5901 173.775 88.0001 166.285 83.4901Z" fill="#A78BEF"/>
<path d="M140.173 82.8802C139.013 81.1302 137.553 79.6902 135.913 78.5902L136.263 78.0702L136.953 77.0402L136.963 77.0302C135.083 75.7702 132.993 74.9002 130.803 74.4602L130.433 76.3002C128.453 75.9002 126.403 75.8802 124.393 76.2902L124.023 74.4402C121.883 74.8502 119.783 75.7002 117.853 76.9702L118.893 78.5402C117.143 79.7002 115.703 81.1602 114.603 82.8002L113.033 81.7502C111.773 83.6302 110.913 85.7302 110.463 87.9102L112.303 88.2802C111.903 90.2602 111.883 92.3102 112.293 94.3202L110.453 94.7002C110.863 96.8402 111.713 98.9402 112.983 100.87L114.553 99.8302C115.713 101.58 117.173 103.02 118.813 104.12L118.073 105.23L117.773 105.68H117.763C119.643 106.94 121.743 107.8 123.923 108.25L124.303 106.41C126.283 106.81 128.343 106.82 130.353 106.42L130.723 108.27C132.863 107.86 134.963 107.02 136.893 105.74L135.853 104.17C137.603 103.01 139.043 101.55 140.143 99.9102L141.363 100.72L141.713 100.95C142.973 99.0702 143.833 96.9802 144.273 94.8002L142.433 94.4202C142.833 92.4402 142.843 90.3802 142.443 88.3702L144.293 88.0002C143.873 85.8602 143.033 83.7702 141.753 81.8402L140.173 82.8802ZM131.963 98.3102C128.123 100.85 122.953 99.8002 120.403 95.9602C117.863 92.1202 118.913 86.9502 122.763 84.4102C126.603 81.8702 131.773 82.9202 134.313 86.7602C136.853 90.6002 135.803 95.7702 131.963 98.3102Z" fill="#E527BB"/>
<path d="M395.637 115.07H364.247C361.477 115.07 359.227 112.82 359.227 110.05V95.31C359.227 92.54 361.477 90.29 364.247 90.29H395.637C398.407 90.29 400.657 92.54 400.657 95.31V110.05C400.657 112.82 398.407 115.07 395.637 115.07Z" fill="#A78BEF"/>
<path d="M400.659 94.97H359.219V99.25H400.659V94.97Z" fill="#E527BB"/>
<path d="M368.712 110.31H362.622C362.232 110.31 361.922 110.62 361.922 111.01C361.922 111.4 362.232 111.71 362.622 111.71H368.712C369.102 111.71 369.412 111.4 369.412 111.01C369.422 110.63 369.102 110.31 368.712 110.31Z" fill="#D1F5FF"/>
<path d="M378.079 110.31H371.989C371.599 110.31 371.289 110.62 371.289 111.01C371.289 111.4 371.599 111.71 371.989 111.71H378.079C378.469 111.71 378.779 111.4 378.779 111.01C378.789 110.63 378.469 110.31 378.079 110.31Z" fill="#D1F5FF"/>
<path d="M387.446 110.31H381.356C380.966 110.31 380.656 110.62 380.656 111.01C380.656 111.4 380.966 111.71 381.356 111.71H387.446C387.836 111.71 388.146 111.4 388.146 111.01C388.146 110.63 387.836 110.31 387.446 110.31Z" fill="#D1F5FF"/>
<path d="M396.821 110.31H390.731C390.341 110.31 390.031 110.62 390.031 111.01C390.031 111.4 390.341 111.71 390.731 111.71H396.821C397.211 111.71 397.521 111.4 397.521 111.01C397.521 110.63 397.211 110.31 396.821 110.31Z" fill="#D1F5FF"/>
<path d="M362.34 91.54C361.91 91.54 361.57 91.89 361.57 92.31V92.58C361.57 93.01 361.92 93.35 362.34 93.35C362.77 93.35 363.11 93 363.11 92.58V92.31C363.12 91.89 362.77 91.54 362.34 91.54Z" fill="#D1F5FF"/>
<path d="M364.008 92.45C364.008 92.95 364.418 93.36 364.918 93.36H368.138C368.638 93.36 369.048 92.95 369.048 92.45C369.048 91.95 368.638 91.54 368.138 91.54H364.918C364.418 91.54 364.008 91.95 364.008 92.45Z" fill="#D1F5FF"/>
<path d="M363.587 101.54H367.737C368.407 101.54 368.957 102.09 368.957 102.76V106.33C368.957 107 368.407 107.55 367.737 107.55H363.587C362.917 107.55 362.367 107 362.367 106.33V102.76C362.377 102.09 362.917 101.54 363.587 101.54Z" fill="#E527BB"/>
<path d="M383.94 178.19V175.36C383.94 174.07 382.9 173.03 381.61 173.03H356.83C355.54 173.03 354.5 174.07 354.5 175.36V225.4H418.59V178.19H383.94Z" fill="#CC15AA"/>
<path d="M421.268 179.91H358.418L354.508 225.4H418.288L421.268 179.91Z" fill="white"/>
<path d="M418.598 225.4H354.508L361.308 180.48C361.508 179.17 362.638 178.19 363.968 178.19H422.618C424.258 178.19 425.518 179.65 425.278 181.28L418.598 225.4Z" fill="#E527BB"/>
<path d="M430.94 193.472C438.43 190.369 441.987 181.781 438.884 174.291C435.782 166.8 427.194 163.243 419.703 166.346C412.213 169.449 408.656 178.036 411.759 185.527C414.861 193.018 423.449 196.575 430.94 193.472Z" fill="#A78BEF"/>
<path d="M425.314 195.13C416.924 195.13 410.094 188.3 410.094 179.91C410.094 171.52 416.924 164.69 425.314 164.69C433.704 164.69 440.534 171.52 440.534 179.91C440.544 188.3 433.714 195.13 425.314 195.13ZM425.314 165.76C417.514 165.76 411.164 172.11 411.164 179.91C411.164 187.71 417.504 194.06 425.314 194.06C433.124 194.06 439.464 187.71 439.464 179.91C439.464 172.11 433.114 165.76 425.314 165.76Z" fill="white"/>
<path d="M418.242 177.25V187.65C418.242 188.81 432.382 188.81 432.382 187.65V177.25H418.242ZM426.032 182.78V185.73C426.032 186.12 425.712 186.45 425.322 186.45C424.922 186.45 424.602 186.12 424.602 185.73V182.78C423.992 182.51 423.572 181.9 423.572 181.19C423.572 180.23 424.352 179.45 425.322 179.45C426.292 179.45 427.062 180.23 427.062 181.19C427.062 181.89 426.642 182.5 426.032 182.78Z" fill="white"/>
<path d="M431.144 176.51H429.714V175.81C429.714 173.38 427.744 171.41 425.314 171.41C422.884 171.41 420.914 173.38 420.914 175.81V176.51H419.484V175.81C419.484 172.59 422.104 169.98 425.314 169.98C428.524 169.98 431.144 172.6 431.144 175.81V176.51Z" fill="white"/>
<path d="M223.552 213.63H218.612L218.102 202.88H224.062L223.552 213.63Z" fill="#0E0E0E"/>
<path d="M309.515 213.63H304.565L304.055 202.88H310.025L309.515 213.63Z" fill="#0E0E0E"/>
<path d="M305.203 184.21C304.653 185.9 304.063 187.64 303.413 189.42H221.313C221.313 189.42 210.713 146.29 221.313 138.41C221.583 138.21 221.913 138.01 222.293 137.82C236.563 130.49 293.783 128.77 305.393 138.2C305.483 138.27 305.563 138.34 305.643 138.42C309.913 142.33 313.633 158.02 305.203 184.21Z" fill="#E527BB"/>
<path d="M252.26 189.42H221.32L224.34 159.19C229.73 161.53 244.09 173.89 252.26 189.42Z" fill="#A78BEF"/>
<path d="M305.204 184.21C304.654 185.9 304.064 187.64 303.414 189.42H273.594C278.724 179.91 291.154 165.5 303.234 158.87L305.204 184.21Z" fill="#A78BEF"/>
<path d="M315.483 158.77H304.103C302.193 158.77 300.573 160.19 300.323 162.08L296.693 189.53H230.163L226.533 162.08C226.283 160.18 224.663 158.77 222.753 158.77H211.373C209.003 158.77 207.203 160.92 207.613 163.25L213.933 208.96H220.183H312.713H312.913L319.233 163.25C319.663 160.91 317.863 158.77 315.483 158.77Z" fill="#E527BB"/>
<path d="M296.037 174.54C301.397 176.33 300.347 187.67 296.037 189.42H231.057C226.207 188.17 225.797 173.16 232.797 174.29C275.617 182.34 277.697 169.5 296.037 174.54Z" fill="#A78BEF"/>
<path d="M246.502 163.04C246.482 165.97 246.642 168.72 246.952 171.14H277.422L279.222 141.39C277.412 130.52 272.462 127.89 264.612 127.89C257.592 127.89 252.922 133.62 250.082 141.28C247.632 147.9 246.542 155.97 246.502 163.04Z" fill="#A78BEF"/>
<path d="M246.508 163.62L257.538 162.96C251.418 160.96 250.928 151.56 257.148 145.71L250.088 141.28C247.638 147.9 246.548 156.54 246.508 163.62Z" fill="#886FE2"/>
<path d="M244.406 177.29H286.266V163.04H248.556L244.406 177.29Z" fill="#0E0E0E"/>
<path d="M291.612 172.77L280.372 213.63H271.602C274.382 196.24 273.752 184.94 276.372 170.5C278.652 158.65 294.342 161.79 291.612 172.77Z" fill="#0E0E0E"/>
<path d="M277.219 213.63C277.219 213.6 277.219 213.58 277.219 213.55C277.219 210.52 279.679 208.07 282.699 208.07C285.719 208.07 288.179 210.53 288.179 213.55C288.179 213.58 288.179 213.6 288.179 213.63H277.219Z" fill="#A78BEF"/>
<path d="M283.762 208.17L281.772 207.56C280.452 204.97 274.842 205.29 275.622 208.44C273.422 208.77 272.262 207.67 272.262 207.67L271.602 213.63H283.492L283.762 208.17Z" fill="#A78BEF"/>
<path d="M242.238 172.77L253.478 213.63H262.248C259.468 196.24 260.098 184.94 257.478 170.5C255.198 158.65 239.518 161.79 242.238 172.77Z" fill="#0E0E0E"/>
<path d="M256.64 213.63C256.64 213.6 256.64 213.58 256.64 213.55C256.64 210.52 254.18 208.07 251.16 208.07C248.13 208.07 245.68 210.53 245.68 213.55C245.68 213.58 245.68 213.6 245.68 213.63H256.64Z" fill="#A78BEF"/>
<path d="M250.102 208.17L252.092 207.56C253.412 204.97 259.022 205.29 258.242 208.44C260.442 208.77 261.602 207.67 261.602 207.67L262.262 213.63H250.372L250.102 208.17Z" fill="#A78BEF"/>
<path d="M259.924 128.85C264.034 131.35 264.624 138.76 262.514 141.71L250.784 150.45L262.734 156.6L260.794 162.95C260.794 162.95 248.324 161.94 242.224 155.67C236.354 149.67 250.644 132.01 259.924 128.85Z" fill="#A78BEF"/>
<path d="M268.262 140.09C264.742 135.67 267.172 128.85 271.662 129.05C286.262 134.19 290.772 148.46 286.142 154.87C282.182 160.36 264.742 162.47 264.742 162.47V156.46L276.852 153.84C276.862 153.84 270.612 144.17 268.262 140.09Z" fill="#A78BEF"/>
<path d="M255.473 160.95C255.243 158.94 256.423 156.42 259.453 155.87C264.743 154.91 266.663 157.81 267.163 159.89C267.293 160.43 266.803 161 266.343 160.95C265.893 160.9 265.573 160.64 265.493 160.23C265.403 159.73 265.133 159.12 264.573 158.8C265.123 159.87 264.893 160.95 263.403 160.95H255.473Z" fill="#F7A594"/>
<path d="M267.412 160.94L271.572 140.06H272.452C272.172 141.5 268.072 162.39 267.942 163.04C266.852 163.04 256.822 163.04 255.462 163.04L254.102 160.94H267.412Z" fill="#E527BB"/>
<path d="M272.463 140.07H303.443L298.863 163.04H267.953L272.463 140.07Z" fill="#CC15AA"/>
<path d="M263.438 130.34C263.438 132.72 270.558 134.29 272.888 131.79C273.238 131.42 273.478 130.95 273.578 130.38L274.918 124.36L266.418 121.15L266.168 121.94L263.438 130.34Z" fill="#F7A594"/>
<path d="M273.567 130.39L274.907 124.37L266.857 122.2C264.777 128.4 272.217 133.35 273.567 130.39Z" fill="#F4856D"/>
<path d="M265.78 118.85C265.33 124.76 270.01 129.97 273.93 130.24C277.85 130.5 283.25 126.12 283.7 120.21C284.15 114.3 280.5 109.2 275.55 108.82C270.6 108.45 266.23 112.94 265.78 118.85Z" fill="#F7A594"/>
<path d="M272.336 109.27C277.756 105.84 280.746 109.07 283.446 112.49C285.336 114.89 286.686 116.62 289.036 116.98C284.496 122.7 275.426 118.93 272.566 113.19C272.286 116.45 268.436 119.16 265.776 118.84C264.916 115.22 267.426 107.88 272.336 109.27Z" fill="#0E0E0E"/>
<path d="M266.805 121.29C268.109 121.29 269.165 120.233 269.165 118.93C269.165 117.626 268.109 116.57 266.805 116.57C265.502 116.57 264.445 117.626 264.445 118.93C264.445 120.233 265.502 121.29 266.805 121.29Z" fill="#F7A594"/>
</g>
</g>
<defs>
<clipPath id="clip0_2439_6841">
<rect width="542.64" height="328.79" fill="white"/>
</clipPath>
<clipPath id="clip1_2439_6841">
<rect width="337.54" height="309" fill="white" transform="translate(103 9)"/>
</clipPath>
</defs>
</svg>
