<svg width="33" height="43" viewBox="0 0 33 43" fill="none" xmlns="http://www.w3.org/2000/svg">
<path d="M32.827 8.59352L25.1326 0.89913C25.0283 0.794888 24.8785 0.729736 24.7286 0.729736H4.74015C3.65864 0.729736 2.77909 1.60928 2.77909 2.6908V3.51171H1.95818C0.876669 3.51171 -0.00287628 4.39125 -0.00287628 5.47277V40.3093C-0.00287628 41.3908 0.876669 42.2703 1.95818 42.2703H28.2533C29.3349 42.2703 30.2144 41.3908 30.2144 40.3093V39.4884H31.0353C32.1168 39.4884 32.9964 38.6088 32.9964 37.5273V8.99095C32.9964 8.8411 32.9377 8.69777 32.827 8.59352ZM25.302 2.67777L31.0483 8.42413H26.1229C25.6733 8.42413 25.302 8.05928 25.302 7.60322V2.67777ZM29.0742 40.3093C29.0742 40.7588 28.7094 41.1302 28.2533 41.1302H1.9647C1.51515 41.1302 1.14379 40.7653 1.14379 40.3093V5.47277C1.14379 5.02322 1.50864 4.65186 1.9647 4.65186H2.78561V37.5273C2.78561 38.6088 3.66515 39.4884 4.74667 39.4884H29.0742V40.3093ZM31.0353 38.3482H4.74015C4.29061 38.3482 3.91924 37.9834 3.91924 37.5273V2.6908C3.91924 2.24125 4.28409 1.86989 4.74015 1.86989H24.1618V7.60322C24.1618 8.68474 25.0414 9.56428 26.1229 9.56428H31.8562V37.5273C31.8562 37.9834 31.4849 38.3482 31.0353 38.3482Z" fill="#DAA7EE"/>
<path d="M29.2827 35.7422H28.2599V25.318C28.2599 25.0052 28.0058 24.7446 27.6865 24.7446H23.7644C23.4517 24.7446 23.1911 24.9987 23.1911 25.318V31.0969H20.4091V21.7998C20.4091 21.487 20.155 21.2264 19.8358 21.2264H15.9136C15.6009 21.2264 15.3403 21.4805 15.3403 21.7998V28.6407H12.5583V26.647C12.5583 26.3343 12.3042 26.0737 11.985 26.0737H8.06288C7.75015 26.0737 7.48955 26.3278 7.48955 26.647V35.7422H6.46667C6.15394 35.7422 5.89333 35.9963 5.89333 36.3155C5.89333 36.6348 6.14743 36.8889 6.46667 36.8889H29.2567C29.5694 36.8889 29.83 36.6348 29.83 36.3155C29.83 35.9963 29.5955 35.7422 29.2827 35.7422ZM8.65576 27.2139H11.4377V29.2075V35.7357H8.65576V27.2139ZM12.5779 29.7808H15.3598V35.7422H12.5779V29.7808ZM16.5 29.2075V22.3666H19.282V31.6637V35.7357H16.5V29.2075ZM20.4221 32.237H23.2041V35.7357H20.4221V32.237ZM24.3442 35.7422V31.6702V25.8913H27.1262V35.7422H24.3442Z" fill="#DAA7EE"/>
<path d="M10.3953 22.4448C10.5061 22.5555 10.6559 22.6142 10.7992 22.6142C10.9426 22.6142 11.0924 22.5555 11.2032 22.4448L17.36 16.288L21.673 20.601C21.8946 20.8225 22.2594 20.8225 22.4809 20.601L27.7061 15.3758V17.7148C27.7061 18.0275 27.9602 18.2881 28.2794 18.2881C28.5986 18.2881 28.8527 18.034 28.8527 17.7148V14.0011C28.8527 13.9946 28.8462 13.9881 28.8462 13.9816C28.8462 13.9164 28.8332 13.8448 28.8071 13.7861C28.7811 13.7275 28.7485 13.6819 28.7029 13.6363C28.6964 13.6233 28.6899 13.6102 28.6833 13.6037C28.6703 13.5907 28.6573 13.5907 28.6442 13.5777C28.5986 13.5386 28.553 13.506 28.5009 13.4799C28.4292 13.4539 28.3576 13.4343 28.2794 13.4343H24.5658C24.253 13.4343 23.9924 13.6884 23.9924 14.0077C23.9924 14.3269 24.2465 14.581 24.5658 14.581H26.9047L22.0835 19.4022L17.7705 15.0892C17.5555 14.8742 17.1776 14.8742 16.9626 15.0892L10.3953 21.6369C10.1738 21.8649 10.1738 22.2233 10.3953 22.4448Z" fill="#DAA7EE"/>
<path d="M11.0077 14.5679C14.1024 14.5679 16.6238 12.0466 16.6238 8.95188C16.6238 5.85718 14.1024 3.33582 11.0077 3.33582C7.91303 3.33582 5.39167 5.85718 5.39167 8.95188C5.39167 12.0466 7.91303 14.5679 11.0077 14.5679ZM11.0077 13.4278C9.97834 13.4278 9.03364 13.076 8.27788 12.4896L11.2423 9.52521H15.438C15.1579 11.7208 13.2815 13.4278 11.0077 13.4278ZM15.438 8.38506H11.5745V4.52157C13.5877 4.78218 15.1839 6.37188 15.438 8.38506ZM10.4344 4.52157V8.71733L7.47 11.6817C6.88364 10.926 6.53182 9.98127 6.53182 8.95188C6.53182 6.6846 8.23879 4.80172 10.4344 4.52157Z" fill="#DAA7EE"/>
</svg>
