<svg width="22" height="21" viewBox="0 0 22 21" fill="none" xmlns="http://www.w3.org/2000/svg">
<g clip-path="url(#clip0_379_4144)">
<path d="M1.6 16.2L0 15L5 7L8 10.5L12 4L14.7 8.1C14.3 8.1 14 8.2 13.6 8.2C13.3 8.3 12.9 8.4 12.6 8.5L12 7.7L8.2 13.9L5.2 10.4L1.6 16.2ZM20.6 21L17.5 17.9C17.2 18.1 16.8 18.3 16.4 18.4C16 18.5 15.6 18.6 15.1 18.6C13.8 18.6 12.8 18.2 11.9 17.3C11 16.4 10.6 15.4 10.6 14.1C10.6 12.8 11 11.8 11.9 10.9C12.8 10 13.8 9.6 15.1 9.6C16.4 9.6 17.4 10 18.3 10.9C19.2 11.8 19.6 12.8 19.6 14.1C19.6 14.5 19.5 15 19.4 15.4C19.3 15.8 19.1 16.2 18.9 16.5L22 19.6L20.6 21ZM15.1 16.6C15.8 16.6 16.4 16.4 16.9 15.9C17.4 15.4 17.6 14.8 17.6 14.1C17.6 13.4 17.4 12.8 16.9 12.3C16.4 11.8 15.8 11.6 15.1 11.6C14.4 11.6 13.8 11.8 13.3 12.3C12.8 12.8 12.6 13.4 12.6 14.1C12.6 14.8 12.8 15.4 13.3 15.9C13.8 16.3 14.4 16.6 15.1 16.6ZM17.3 8.6C17 8.5 16.7 8.4 16.3 8.3C16 8.2 15.6 8.2 15.2 8.2L20.4 0L22 1.2L17.3 8.6Z" fill="url(#paint0_linear_379_4144)"/>
</g>
<defs>
<linearGradient id="paint0_linear_379_4144" x1="11" y1="0" x2="11" y2="21" gradientUnits="userSpaceOnUse">
<stop stop-color="#E527BB"/>
<stop offset="1" stop-color="#A78BEF"/>
</linearGradient>
<clipPath id="clip0_379_4144">
<rect width="22" height="21" fill="white"/>
</clipPath>
</defs>
</svg>
