<svg width="40" height="40" viewBox="0 0 40 40" fill="none" xmlns="http://www.w3.org/2000/svg">
<path d="M36.4804 23.6574C35.5641 24.0614 34.7774 24.4395 34.0168 24.805C31.5879 25.9725 29.7875 26.8377 26.6212 27.0724C26.7362 26.7327 26.7758 26.3934 26.734 26.0805C26.6281 25.2885 25.9615 24.4551 24.4112 24.4945C22.6668 24.5391 21.0571 24.1091 19.3525 23.6539C17.5567 23.1744 15.7002 22.678 13.592 22.7329C10.9018 22.805 8.83896 23.3571 7.0998 24.4708C6.31609 24.9741 5.81119 25.5633 5.2766 26.1871C4.96962 26.5453 4.65305 26.9132 4.27107 27.2744C3.5999 26.8473 2.69762 26.925 2.11367 27.5089L0.50824 29.1143C0.180471 29.4406 0 29.8763 0 30.3411C0 30.8058 0.180471 31.2414 0.50824 31.5677L8.43223 39.4917C8.75849 39.8195 9.19419 39.9999 9.65886 39.9999C10.1235 39.9999 10.5592 39.8195 10.8845 39.4926L12.4918 37.8876C13.057 37.3198 13.1456 36.4537 12.761 35.7896C13.4969 35.0911 14.5006 34.5064 16.6745 34.6746C17.3639 34.7284 18.0251 34.7975 18.6646 34.8643C21.5166 35.1625 23.9797 35.42 26.94 34.1492C28.7223 33.3838 31.7779 31.8821 34.5243 30.1691C37.7928 28.1303 39.616 26.4239 39.9431 25.0976C40.0778 24.5512 39.9719 24.0443 39.6373 23.6317C38.9069 22.7293 37.4858 23.2142 36.4804 23.6574ZM11.8167 37.2138L10.2095 38.8188C10.0635 38.9655 9.86798 39.0462 9.65886 39.0462C9.44974 39.0462 9.25419 38.9654 9.10752 38.8181L1.18203 30.8926C1.18203 30.8926 1.18148 30.8921 1.18124 30.8918C1.03457 30.7458 0.953862 30.5503 0.953862 30.3411C0.953862 30.132 1.03465 29.9365 1.18203 29.7897L2.78826 28.1835C2.93992 28.0318 3.13936 27.9561 3.33903 27.9561C3.53871 27.9561 3.73871 28.032 3.89092 28.1835L3.92124 28.2138C3.92124 28.2138 3.9214 28.2141 3.92148 28.2141C3.93664 28.2319 3.95322 28.2479 3.97029 28.2629L11.7882 36.0808C11.7928 36.0855 11.7961 36.091 11.8009 36.0955C11.8037 36.0982 11.8071 36.0999 11.81 36.1026L11.8157 36.1083C12.1193 36.4134 12.1193 36.9098 11.8167 37.2138H11.8167ZM39.017 24.8693C38.8676 25.4754 38.0195 26.8648 34.0195 29.3599C31.3187 31.0445 28.315 32.5207 26.5636 33.2729C23.8317 34.4456 21.4832 34.2001 18.7638 33.9159C18.1181 33.8483 17.4505 33.7786 16.7483 33.7238C14.3205 33.536 13.0523 34.2187 12.1313 35.075L4.97685 27.9206C5.36922 27.5443 5.68945 27.1714 6.00087 26.8079C6.50974 26.2141 6.94925 25.7012 7.61463 25.2739C9.20086 24.2582 11.1083 23.7538 13.6171 23.6866C15.5862 23.6356 17.3759 24.1134 19.1064 24.5755C20.8013 25.0282 22.5545 25.4964 24.4352 25.4481C24.9013 25.4364 25.6967 25.5197 25.7885 26.2069C25.8294 26.5125 25.7201 26.908 25.4554 27.2884C25.45 27.2956 25.4446 27.3027 25.4396 27.3103C25.095 27.7938 24.4987 28.2496 23.6386 28.4609C22.1258 28.8343 19.401 28.4454 17.3719 27.8945C17.1173 27.825 16.8556 27.9756 16.7867 28.2298C16.7176 28.484 16.8678 28.7459 17.122 28.815C18.5614 29.2058 20.5079 29.5619 22.1536 29.5619C22.7838 29.5619 23.3702 29.5096 23.8667 29.387C24.8262 29.1513 25.5666 28.6514 26.0571 28.0612C29.8019 27.888 31.7478 26.9539 34.4299 25.6648C35.1837 25.3025 35.9631 24.9279 36.8651 24.5303C38.3768 23.8639 38.7888 24.0996 38.8962 24.2323C39.0435 24.414 39.0808 24.6104 39.0169 24.8693H39.017ZM14.9344 10.0004C16.0796 11.5579 17.9236 12.5711 20.0006 12.5711C21.9774 12.5711 23.7431 11.6529 24.8961 10.2215C24.9251 10.1931 24.9499 10.1611 24.9708 10.1265C25.7942 9.0634 26.2861 7.73121 26.2861 6.28554C26.2861 2.81968 23.4664 0 20.0006 0C16.5347 0 13.715 2.81968 13.715 6.28554C13.715 7.63169 14.1418 8.87936 14.8652 9.90322C14.884 9.9383 14.9074 9.97091 14.9344 10.0004ZM20.0006 11.6173C18.3077 11.6173 16.7979 10.8234 15.8205 9.58942C16.1926 8.69317 17.2502 8.03208 18.7181 7.78732C19.0803 7.94541 19.4796 8.03367 19.8993 8.03367C20.319 8.03367 20.7192 7.94534 21.0817 7.78717C22.6522 8.04763 23.7348 8.77174 24.0412 9.75822C23.0627 10.8953 21.6148 11.6174 20.0006 11.6174V11.6173ZM19.8993 7.07972C19.576 7.07972 19.2706 7.0025 18.9996 6.86624C18.9975 6.86513 18.9953 6.86394 18.9932 6.86291C18.3383 6.53053 17.8881 5.85023 17.8881 5.06621C17.8881 3.956 18.7903 3.05269 19.8993 3.05269C21.0083 3.05269 21.9128 3.95592 21.9128 5.06621C21.9128 6.1765 21.0096 7.07964 19.8993 7.07964V7.07972ZM20.0006 0.953862C22.9405 0.953862 25.3322 3.3457 25.3322 6.28562C25.3322 7.21377 25.0934 8.087 24.6746 8.84785C24.19 8.02549 23.2969 7.39678 22.1083 7.04496C22.5795 6.5195 22.8667 5.82595 22.8667 5.06637C22.8667 3.43014 21.5356 2.09907 19.8994 2.09907C18.2631 2.09907 16.9344 3.43014 16.9344 5.06637C16.9344 5.82666 17.2219 6.52085 17.6935 7.04647C16.597 7.37392 15.7437 7.94145 15.2377 8.67722C14.8747 7.9574 14.669 7.14536 14.669 6.2857C14.669 3.34578 17.0608 0.953942 20.0007 0.953942L20.0006 0.953862ZM6.27538 12.5486C9.73505 12.5486 12.5497 9.73402 12.5497 6.27435C12.5497 2.81468 9.73505 0 6.27538 0C2.81572 0 0.00111108 2.8146 0.00111108 6.27435C0.00111108 9.7341 2.81572 12.5486 6.27538 12.5486ZM6.27538 0.953862C9.20911 0.953862 11.5959 3.34062 11.5959 6.27435C11.5959 9.20808 9.20911 11.5948 6.27538 11.5948C3.34165 11.5948 0.954973 9.208 0.954973 6.27435C0.954973 3.3407 3.34173 0.953862 6.27538 0.953862ZM4.10227 7.55217C4.10227 7.28877 4.31575 7.07528 4.57916 7.07528C4.84256 7.07528 5.05605 7.28877 5.05605 7.55217C5.05605 8.09795 5.60302 8.54206 6.27538 8.54206C6.94774 8.54206 7.49471 8.09803 7.49471 7.55217C7.49471 6.90282 7.14702 6.76481 6.22697 6.56156C5.46866 6.39403 4.32266 6.14086 4.32266 4.80764C4.32266 3.98791 4.95153 3.29761 5.79841 3.10587V2.62096C5.79841 2.35755 6.0119 2.14407 6.2753 2.14407C6.53871 2.14407 6.75219 2.35755 6.75219 2.62096V3.10587C7.59907 3.29761 8.22795 3.98791 8.22795 4.80764C8.22795 5.07105 8.01446 5.28454 7.75105 5.28454C7.48765 5.28454 7.27416 5.07105 7.27416 4.80764C7.27416 4.36607 6.82608 4.00671 6.2753 4.00671C5.72452 4.00671 5.27644 4.36599 5.27644 4.80764C5.27644 5.30414 5.52278 5.42921 6.43268 5.63016C7.23543 5.80754 8.44842 6.07547 8.44842 7.55217C8.44842 8.47746 7.72193 9.25379 6.75219 9.44871V9.92782C6.75219 10.1912 6.53871 10.4047 6.2753 10.4047C6.0119 10.4047 5.79841 10.1912 5.79841 9.92782V9.44871C4.82868 9.25379 4.10227 8.47746 4.10227 7.55217ZM33.7145 12.5712C37.1803 12.5712 40 9.75148 40 6.28562C40 2.81976 37.1803 0 33.7145 0C30.2486 0 27.4289 2.81968 27.4289 6.28554C27.4289 9.7514 30.2486 12.5712 33.7145 12.5712ZM33.7145 0.953942C36.6544 0.953942 39.0461 3.34578 39.0461 6.2857C39.0461 9.22562 36.6544 11.6174 33.7145 11.6174C30.7745 11.6174 28.3828 9.22562 28.3828 6.2857C28.3828 3.34578 30.7745 0.953942 33.7145 0.953942ZM33.2376 6.2857V3.72561C33.2376 3.46221 33.4511 3.24872 33.7145 3.24872C33.9779 3.24872 34.1914 3.46221 34.1914 3.72561V6.01023L35.7974 6.93663C36.0256 7.06822 36.1038 7.35988 35.9723 7.58804C35.8839 7.74113 35.7235 7.82677 35.5587 7.82677C35.4778 7.82677 35.3959 7.80621 35.3208 7.76288L33.4761 6.69878C33.3284 6.61363 33.2375 6.45609 33.2375 6.28562L33.2376 6.2857ZM33.2376 2.10804V2.09907C33.2376 1.83566 33.4511 1.62218 33.7145 1.62218C33.9779 1.62218 34.1914 1.83566 34.1914 2.09907V2.10804C34.1914 2.37144 33.9779 2.58493 33.7145 2.58493C33.4511 2.58493 33.2376 2.37144 33.2376 2.10804ZM35.352 2.51739C35.4352 2.26756 35.7063 2.12923 35.9564 2.2124C36.2062 2.29573 36.3424 2.56247 36.2592 2.8123L36.2569 2.81905C36.1903 3.01888 36.0042 3.14531 35.8046 3.14531C35.7546 3.14531 35.7037 3.13737 35.6537 3.12071C35.4039 3.03738 35.2688 2.7673 35.352 2.51739H35.352ZM36.8814 4.34575C36.7986 4.09576 36.9341 3.82585 37.184 3.74299C37.434 3.66014 37.7073 3.7945 37.7902 4.04449C37.8731 4.29448 37.7409 4.56329 37.4909 4.64614L37.4842 4.64836C37.4344 4.66487 37.3838 4.67273 37.334 4.67273C37.134 4.67273 36.9478 4.54598 36.8814 4.34575ZM37.892 5.80873H37.901C38.1644 5.80873 38.3779 6.02221 38.3779 6.28562C38.3779 6.54903 38.1644 6.76251 37.901 6.76251H37.892C37.6286 6.76251 37.4152 6.54903 37.4152 6.28562C37.4152 6.02221 37.6286 5.80873 37.892 5.80873ZM36.8814 8.22557C36.9643 7.97549 37.2342 7.84002 37.4842 7.92295C37.7342 8.00581 37.8731 8.27675 37.7902 8.52683C37.7238 8.72722 37.5393 8.85483 37.3399 8.85483C37.2906 8.85483 37.2405 8.84698 37.1909 8.83055L37.1841 8.82833C36.9341 8.74547 36.7986 8.47564 36.8815 8.22557H36.8814ZM36.231 9.69211C36.3488 9.92774 36.2544 10.2164 36.0188 10.3342C35.9498 10.3688 35.8765 10.3852 35.8043 10.3852C35.6304 10.3852 35.4634 10.2898 35.3801 10.1232L35.3778 10.1187C35.2601 9.88306 35.3555 9.59664 35.5912 9.47886C35.8268 9.36101 36.1133 9.45656 36.231 9.69219V9.69211ZM33.2376 10.4723V10.4633C33.2376 10.1999 33.4511 9.98639 33.7145 9.98639C33.9779 9.98639 34.1914 10.1999 34.1914 10.4633V10.4723C34.1914 10.7357 33.9779 10.9492 33.7145 10.9492C33.4511 10.9492 33.2376 10.7357 33.2376 10.4723ZM31.1957 9.69664L31.1979 9.69211C31.3157 9.45656 31.6021 9.36085 31.8378 9.47878C32.0734 9.59656 32.1689 9.88306 32.0511 10.1186C31.9673 10.2863 31.7974 10.3842 31.6214 10.3842C31.5502 10.3842 31.478 10.3681 31.4101 10.3342C31.1745 10.2164 31.0779 9.93218 31.1956 9.69656L31.1957 9.69664ZM30.0959 8.85285C29.8957 8.85285 29.7077 8.72722 29.6412 8.52762C29.558 8.27779 29.6897 8.00875 29.9395 7.92549L29.9462 7.92327C30.196 7.84002 30.4662 7.9751 30.5495 8.22493C30.6328 8.47476 30.4978 8.74492 30.2479 8.82825C30.1977 8.84499 30.1464 8.85301 30.0959 8.85301V8.85285ZM29.5369 6.76267C29.2735 6.76267 29.0566 6.54918 29.0566 6.28578C29.0566 6.02237 29.2667 5.80889 29.5301 5.80889H29.5369C29.8003 5.80889 30.0138 6.02237 30.0138 6.28578C30.0138 6.54918 29.8003 6.76267 29.5369 6.76267ZM29.6412 4.04386C29.7245 3.79402 29.9912 3.65799 30.2411 3.74109L30.2478 3.74331C30.4976 3.82664 30.6327 4.09671 30.5495 4.34663C30.4829 4.54646 30.2967 4.67289 30.0971 4.67289C30.0471 4.67289 29.9962 4.66495 29.9462 4.64828C29.6964 4.56495 29.5579 4.29377 29.6412 4.04386H29.6412ZM31.1721 2.81913C31.0888 2.56929 31.2227 2.29581 31.4726 2.21248C31.7225 2.12915 31.9915 2.26089 32.0747 2.51072L32.077 2.51747C32.1602 2.7673 32.0252 3.03746 31.7753 3.12079C31.7253 3.13745 31.6744 3.14539 31.6244 3.14539C31.4248 3.14539 31.2387 3.01896 31.1721 2.81913ZM19.6834 21.5901V16.1441L19.3755 16.6719C19.2428 16.8995 18.9507 16.9763 18.7232 16.8436C18.4957 16.7109 18.4189 16.4188 18.5515 16.1913L19.7438 14.1475C19.7591 14.1202 19.777 14.0944 19.7971 14.0708C19.8173 14.0471 19.7973 14.0706 19.7974 14.0704C19.8121 14.0532 19.8279 14.0371 19.8448 14.0222C19.9283 13.9485 20.038 13.9036 20.1582 13.9031H20.1591H20.1614C20.1614 13.9031 20.1621 13.9031 20.1623 13.9031C20.2801 13.9036 20.3878 13.9468 20.4707 14.018C20.4905 14.035 20.509 14.0537 20.5259 14.0738C20.545 14.0967 20.562 14.1213 20.5766 14.1475L21.7689 16.1914C21.9016 16.4189 21.8248 16.7109 21.5973 16.8437C21.3696 16.9763 21.0777 16.8995 20.945 16.672L20.637 16.1442V21.5902C20.637 21.8536 20.4236 22.0671 20.1602 22.0671C19.8967 22.0671 19.6833 21.8536 19.6833 21.5902L19.6834 21.5901ZM26.2623 20.868L28.9857 16.1504L28.4526 16.4545C28.224 16.5849 27.9326 16.5053 27.8021 16.2765C27.6716 16.0476 27.7513 15.7564 27.9801 15.6259L30.0354 14.4536C30.0601 14.439 30.0859 14.4267 30.1126 14.4168C30.1377 14.4075 30.1635 14.4002 30.1896 14.3952C30.2982 14.3743 30.4145 14.391 30.5177 14.4506C30.6222 14.5109 30.6953 14.6048 30.7311 14.7109C30.7382 14.7319 30.7439 14.7536 30.748 14.7756C30.7539 14.8068 30.7567 14.8386 30.7563 14.8705L30.7676 17.2348C30.7688 17.4982 30.5563 17.7128 30.2929 17.714H30.2906C30.0282 17.714 29.815 17.5021 29.8137 17.2394L29.8108 16.6293L27.0885 21.345C27.0001 21.498 26.8398 21.5835 26.675 21.5835C26.594 21.5835 26.512 21.563 26.437 21.5196C26.2088 21.3878 26.1307 21.0962 26.2624 20.8681L26.2623 20.868ZM11.868 16.4545L11.3349 16.1504L14.0583 20.868C14.19 21.0961 14.1118 21.3877 13.8837 21.5195C13.8087 21.5628 13.7267 21.5834 13.6457 21.5834C13.4809 21.5834 13.3206 21.4979 13.2323 21.3449L10.5099 16.6292L10.507 17.2394C10.5057 17.502 10.2924 17.714 10.0301 17.714H10.0278C9.76441 17.7127 9.55188 17.4982 9.55315 17.2348L9.56442 14.8704C9.56402 14.8401 9.56648 14.8099 9.5718 14.7803C9.5718 14.7801 9.5718 14.78 9.5718 14.7799C9.57624 14.7548 9.58275 14.7301 9.59108 14.7062C9.62743 14.6021 9.69989 14.51 9.80282 14.4506C9.90631 14.3908 10.0228 14.3744 10.1315 14.3952C10.1555 14.3999 10.1793 14.4063 10.2026 14.4148C10.2313 14.4251 10.2591 14.4381 10.2854 14.4538L12.3405 15.6259C12.5693 15.7565 12.649 16.0476 12.5185 16.2765C12.3881 16.5053 12.0968 16.585 11.868 16.4545Z" fill="#DAA7EE"/>
</svg>
