<svg width="533" height="331" viewBox="0 0 533 331" fill="none" xmlns="http://www.w3.org/2000/svg">
<path opacity="0.2" fill-rule="evenodd" clip-rule="evenodd" d="M0 7.5756C0 7.5756 496.166 -10.2363 522.25 8.76437C545.499 25.7019 520.61 239.759 514.929 286.131C514.801 287.134 513.992 287.91 512.938 288.028C382.355 302.136 78.1811 295.779 13.6451 294.227C12.5792 294.197 11.7008 293.49 11.49 292.498C2.02627 247.216 0 7.5756 0 7.5756Z" fill="#999999"/>
<g clip-path="url(#clip0_1825_4598)">
<path d="M216.749 165.825C221.816 173.822 231.373 194.297 243.459 197.217C255.545 200.144 263.151 197.217 268.607 185.325C274.064 173.433 277.379 167.579 277.965 168.166C278.552 168.753 285.175 189.616 286.546 193.123C287.91 196.63 340.935 208.727 349.318 204.237C357.701 199.755 361.991 196.439 366.281 172.45C370.572 148.468 373.3 138.909 369.985 130.524C366.67 122.138 364.719 119.211 355.757 113.753C346.795 108.295 332.369 99.9862 320.748 99.6051C313.333 99.3611 285.967 107.319 274.658 120.576C263.349 133.84 247.17 169.713 246.004 170.498C238.208 162.113 236.844 160.162 236.844 160.162C236.844 160.162 215.186 163.096 216.749 165.825Z" fill="#E527BB"/>
<path d="M300.894 109.927C302.975 113.959 306.48 117.725 313.499 116.558C320.517 115.385 326.934 106.519 324.152 101.137C321.409 95.8165 315.183 85.0987 315.183 85.0987C320.639 83.536 320.769 73.2679 311.548 71.972C307.517 60.0117 297.899 43.1117 276.981 53.1206C256.054 63.1294 257.373 66.3616 258.668 73.5119C259.971 80.6622 264.376 84.062 269.185 92.775C273.993 101.473 282.307 117.466 300.894 109.927Z" fill="#FF7E7D"/>
<path d="M240.904 164.949C237.55 161.206 235.363 158.118 235.363 158.118C235.363 158.118 213.141 158.218 214.704 160.947C215.755 162.608 219.055 169.69 220.48 172.16C223.856 173.852 234.738 175.049 240.904 164.949Z" fill="#FF7E7D"/>
<path d="M320.648 156.266C320.648 157.989 319.253 159.384 317.531 159.384H191.988C190.266 159.384 188.871 157.989 188.871 156.266V137.933C188.871 136.21 190.266 134.815 191.988 134.815H317.531C319.253 134.815 320.648 136.21 320.648 137.933V156.266Z" fill="#F1E0D9"/>
<path d="M296.414 139.496V154.703C296.414 154.703 309.872 154.703 312.219 154.703C314.566 154.703 315.969 154.04 315.969 151.441C315.969 148.445 315.969 144.329 315.969 142.674C315.969 140.075 314.376 139.496 312.913 139.496C311.45 139.496 296.414 139.496 296.414 139.496Z" fill="#DAA7EE"/>
<path d="M254.362 139.496V154.703C254.362 154.703 199.882 154.703 197.535 154.703C195.187 154.703 193.785 154.04 193.785 151.441C193.785 148.445 193.785 144.329 193.785 142.674C193.785 140.075 195.378 139.496 196.841 139.496C198.297 139.496 254.362 139.496 254.362 139.496Z" fill="#E527BB"/>
<path d="M296.543 139.496H253.852V154.703H296.543V139.496Z" fill="#A78BEF"/>
<path d="M296.672 174.012C295.499 171.482 295.209 168.455 293.746 167.289C292.283 166.115 291.407 165.048 289.555 166.024C287.703 166.999 285.363 165.825 284.19 163.874C282.041 164.85 281.073 163.973 281.073 163.973C278.932 165.147 276.394 165.635 274.153 161.732C271.913 157.829 274.931 150.419 278.147 157.25C278.345 153.217 280.684 150.747 282.239 151.532C283.794 152.318 283.702 154.033 283.702 154.033C284.258 151.014 287.954 149.84 288.48 154.521C290.042 152.379 290.82 152.958 292.672 155.786C294.523 158.614 293.807 158.972 297.32 158.675C298.943 157.638 305.863 156.236 307.913 157.898C309.963 159.552 312.363 163.295 314.802 165.726C311.586 172.793 301.481 176.741 296.672 174.012Z" fill="#FF7E7D"/>
<path d="M209.118 155.542C207.7 152.592 204.05 151.296 203.463 155.069C202.877 158.843 206.877 167.091 212.54 164.972C218.24 166.191 219.916 167.434 221.684 167.075C223.452 166.725 232.567 168.387 234.098 161.907C229.976 162.021 228.68 161.435 228.68 161.435C226.44 158.484 223.612 155.306 222.431 155.542C221.25 155.778 221.486 157.425 221.486 157.425C220.191 153.301 218.895 151.883 217.478 151.883C216.068 151.883 215.123 154.238 215.123 154.238C213.949 150.473 210.299 147.881 209.118 155.542Z" fill="#FF7E7D"/>
<path d="M221.816 167.297C220.925 167.297 220.163 167.114 219.401 166.931C219.195 166.877 218.989 166.832 218.776 166.786C218.212 166.664 217.602 166.595 216.954 166.527C215.339 166.351 213.51 166.153 212.031 164.956C209.181 162.647 208.861 157.501 208.739 155.565C208.724 155.351 208.884 155.176 209.097 155.161C209.311 155.146 209.486 155.306 209.501 155.519C209.616 157.364 209.92 162.265 212.512 164.362C213.815 165.414 215.453 165.597 217.038 165.764C217.709 165.841 218.334 165.909 218.936 166.039C219.149 166.085 219.363 166.138 219.576 166.191C221.329 166.611 222.982 167.007 226.213 165.033C226.389 164.926 226.625 164.979 226.739 165.162C226.846 165.345 226.793 165.574 226.61 165.688C224.567 166.931 223.074 167.297 221.816 167.297Z" fill="black"/>
<path d="M220.552 165.353C220.506 165.353 220.468 165.345 220.423 165.33C213.892 162.951 214.478 157.013 214.73 154.482L214.76 154.216C214.783 154.01 214.966 153.85 215.179 153.873C215.385 153.895 215.545 154.078 215.522 154.284L215.492 154.559C215.24 157.12 214.715 162.448 220.689 164.621C220.887 164.689 220.986 164.911 220.918 165.109C220.857 165.254 220.712 165.353 220.552 165.353Z" fill="black"/>
<path d="M229.619 161.724C229.269 161.724 228.888 161.663 228.415 161.404C227.6 160.962 226.876 160.207 226.426 159.338C226.327 159.148 226.403 158.919 226.594 158.827C226.784 158.728 227.013 158.805 227.105 158.995C227.478 159.727 228.103 160.375 228.781 160.741C229.276 161.008 229.589 160.985 230.054 160.939C230.252 160.924 230.465 160.901 230.709 160.901C230.922 160.901 231.09 161.069 231.09 161.282C231.09 161.495 230.922 161.663 230.709 161.663C230.488 161.663 230.298 161.678 230.122 161.694C229.955 161.709 229.795 161.724 229.619 161.724Z" fill="black"/>
<path d="M228.627 166.077C228.178 166.077 227.751 166.023 227.355 165.917C224.992 165.383 223.369 163.416 222.424 161.861C221.891 161 221.716 160.07 221.54 159.178C221.449 158.69 221.357 158.233 221.22 157.775C221.159 157.577 221.266 157.364 221.472 157.295C221.67 157.234 221.883 157.341 221.952 157.547C222.104 158.042 222.203 158.545 222.295 159.033C222.462 159.895 222.615 160.71 223.08 161.457C223.948 162.89 225.427 164.689 227.545 165.17C228.422 165.406 229.451 165.337 230.624 164.971C230.83 164.91 231.036 165.017 231.104 165.223C231.165 165.421 231.058 165.635 230.853 165.703C230.045 165.955 229.306 166.077 228.627 166.077Z" fill="black"/>
<path d="M299.638 164.278C298.639 164.278 297.93 164.026 297.428 163.699C296.399 163.02 295.903 161.755 296.102 160.314C296.513 157.349 300.285 157.166 303.936 156.998L304.652 156.968C304.881 156.952 305.041 157.12 305.048 157.333C305.056 157.547 304.896 157.722 304.69 157.73L303.974 157.76C300.483 157.92 297.184 158.08 296.864 160.421C296.787 160.97 296.734 162.326 297.854 163.066C298.807 163.691 301.261 164.217 307.014 160.726C307.19 160.619 307.426 160.672 307.54 160.855C307.647 161.038 307.594 161.267 307.411 161.381C303.768 163.577 301.299 164.278 299.638 164.278Z" fill="black"/>
<path d="M292.924 165.787C292.642 165.787 292.375 165.757 292.116 165.688C290.63 165.299 289.487 163.866 288.511 161.175C287.841 159.308 287.422 155.146 288.984 153.476C289.129 153.324 289.372 153.316 289.525 153.461C289.677 153.606 289.685 153.85 289.54 154.002C288.321 155.306 288.549 159.033 289.228 160.924C290.096 163.325 291.095 164.644 292.306 164.956C293.549 165.276 295.096 164.606 297.046 162.906C297.207 162.769 297.443 162.784 297.588 162.944C297.725 163.104 297.709 163.34 297.549 163.485C295.766 165.025 294.25 165.787 292.924 165.787Z" fill="black"/>
<path d="M287.469 166.481C286.768 166.481 286.135 166.267 285.564 165.848C282.584 163.645 282.546 155.984 283.453 153.415C283.521 153.217 283.743 153.118 283.941 153.186C284.139 153.255 284.245 153.476 284.177 153.674C283.369 155.954 283.407 163.31 286.021 165.246C287.179 166.1 288.757 165.802 290.7 164.362C290.868 164.24 291.112 164.27 291.234 164.438C291.363 164.606 291.325 164.85 291.157 164.972C289.786 165.97 288.551 166.481 287.469 166.481Z" fill="black"/>
<path d="M282.124 164.499C281.575 164.499 281.057 164.362 280.569 164.08C278.298 162.761 277.566 158.644 277.566 156.853C277.566 156.64 277.734 156.472 277.947 156.472C278.161 156.472 278.328 156.64 278.328 156.853C278.328 158.431 278.991 162.281 280.95 163.424C281.804 163.92 282.825 163.828 283.998 163.157C284.181 163.051 284.41 163.119 284.516 163.302C284.623 163.485 284.555 163.714 284.372 163.82C283.579 164.27 282.832 164.499 282.124 164.499Z" fill="black"/>
<path d="M335.731 179.524C335.655 179.524 335.579 179.501 335.51 179.455C335.22 179.257 334.42 178.83 333.407 178.296C330.816 176.924 326.479 174.637 322.867 171.992C320.84 170.513 319.362 169.271 318.173 168.272C316.504 166.87 315.49 166.023 314.698 166.008C314.484 166.008 314.317 165.833 314.324 165.619C314.332 165.406 314.5 165.269 314.713 165.246C315.78 165.261 316.809 166.122 318.668 167.693C319.849 168.684 321.32 169.919 323.324 171.382C326.891 173.989 331.197 176.269 333.772 177.625C334.885 178.212 335.624 178.601 335.952 178.83C336.127 178.952 336.165 179.188 336.051 179.363C335.967 179.463 335.845 179.524 335.731 179.524Z" fill="black"/>
<path d="M333.609 178.197C333.586 178.197 333.555 178.197 333.533 178.19C333.327 178.151 333.19 177.946 333.235 177.74C334.417 171.733 340.147 153.545 342.594 145.785C343.196 143.879 343.622 142.53 343.767 142.026C343.828 141.828 344.041 141.706 344.24 141.767C344.445 141.828 344.56 142.042 344.499 142.24C344.346 142.743 343.92 144.1 343.318 146.013C340.879 153.766 335.156 171.924 333.982 177.892C333.952 178.075 333.792 178.197 333.609 178.197Z" fill="black"/>
<path d="M258.416 60.7967C256.321 65.8965 256.671 73.466 257.784 74.1368C261.487 76.378 266.067 75.4708 274.511 72.4827C282.955 69.4945 291.665 60.1335 291.665 60.1335C292.183 67.4134 294.919 69.8832 296.474 72.3531C298.036 74.8229 300.376 72.6122 302.456 74.3045C304.537 75.9968 307.059 80.8221 308.103 81.2109C309.139 81.5997 310.648 78.4666 309.863 74.1749C312.332 72.4827 315.442 73.5117 316.486 74.1673C317.781 65.8431 314.413 54.1572 307.913 48.8287C301.412 43.5003 288.937 38.5607 278.154 42.3264C267.363 46.0921 261.404 53.5168 258.416 60.7967Z" fill="#231F20"/>
<path d="M300.893 110.307C300.771 110.307 300.649 110.247 300.581 110.14C300.466 109.964 300.505 109.728 300.68 109.606L301.198 109.256C305.306 106.488 312.187 101.854 310.716 88.445C310.693 88.2315 310.846 88.0486 311.052 88.0257C311.257 88.0028 311.448 88.1553 311.471 88.3611C312.987 102.227 305.595 107.213 301.617 109.888L301.099 110.239C301.046 110.285 300.969 110.307 300.893 110.307Z" fill="black"/>
<path d="M312.119 121.978C307.119 121.978 302.143 120.095 299.461 115.308C299.354 115.125 299.423 114.889 299.606 114.79C299.788 114.691 300.025 114.752 300.124 114.935C303.865 121.605 312.393 122.291 318.741 120.103C324.685 118.052 331.155 112.625 329.829 104.064C329.799 103.858 329.936 103.66 330.149 103.63C330.355 103.599 330.553 103.744 330.584 103.95C331.978 112.968 325.211 118.677 318.993 120.819C316.851 121.559 314.481 121.978 312.119 121.978Z" fill="black"/>
<path d="M251.9 176.475C251.809 176.475 251.725 176.444 251.649 176.383C251.428 176.185 246.147 171.527 245.095 170.079C244.973 169.911 245.011 169.667 245.179 169.545C245.346 169.423 245.59 169.462 245.712 169.629C246.718 171.009 252.098 175.758 252.152 175.804C252.312 175.941 252.327 176.185 252.182 176.345C252.106 176.429 251.999 176.475 251.9 176.475Z" fill="black"/>
<path d="M307.783 191.461C307.699 191.461 307.608 191.431 307.539 191.37C305.299 189.517 297.518 177.869 296.306 174.127C296.245 173.928 296.352 173.715 296.55 173.646C296.748 173.585 296.969 173.692 297.03 173.89C298.181 177.442 305.893 189.014 308.019 190.775C308.179 190.912 308.202 191.148 308.072 191.309C308.004 191.408 307.89 191.461 307.783 191.461Z" fill="black"/>
<path d="M356.498 329.504V199.572C356.498 190.097 348.817 182.413 339.344 182.413H171.697C162.225 182.413 154.543 190.097 154.543 199.572V329.512L356.498 329.504Z" fill="#F1E0D9"/>
<path d="M315.439 290.635C315.439 301.208 306.873 309.776 296.303 309.776C285.734 309.776 277.168 301.208 277.168 290.635C277.168 280.062 285.734 271.494 296.303 271.494C306.873 271.494 315.439 280.062 315.439 290.635Z" fill="#E527BB"/>
<path d="M307.376 290.635C307.376 296.756 302.415 301.711 296.303 301.711C290.184 301.711 285.223 296.749 285.223 290.635C285.223 284.521 290.184 279.559 296.303 279.559C302.423 279.559 307.376 284.514 307.376 290.635Z" fill="#A78BEF"/>
<path d="M262.071 303.998C262.071 307.878 258.931 311.019 255.052 311.019H190.276C186.398 311.019 183.258 307.878 183.258 303.998V277.958C183.258 274.078 186.398 270.938 190.276 270.938H255.052C258.931 270.938 262.071 274.078 262.071 277.958V303.998Z" fill="#E527BB"/>
<path d="M197.477 279.384C197.477 281.305 195.915 282.867 193.994 282.867C192.074 282.867 190.512 281.312 190.512 279.384C190.512 277.463 192.066 275.9 193.994 275.9C195.915 275.9 197.477 277.455 197.477 279.384Z" fill="white"/>
<path d="M234.447 280.519C234.447 281.815 233.403 282.86 232.108 282.86H205.054C203.759 282.86 202.715 281.815 202.715 280.519V278.24C202.715 276.944 203.759 275.9 205.054 275.9H232.108C233.403 275.9 234.447 276.944 234.447 278.24V280.519Z" fill="white"/>
<path d="M197.477 291.321C197.477 293.242 195.915 294.805 193.994 294.805C192.074 294.805 190.512 293.25 190.512 291.321C190.512 289.4 192.066 287.837 193.994 287.837C195.915 287.837 197.477 289.4 197.477 291.321Z" fill="white"/>
<path d="M241.07 292.465C241.07 293.761 240.026 294.805 238.73 294.805H205.054C203.759 294.805 202.715 293.761 202.715 292.465V290.185C202.715 288.89 203.759 287.845 205.054 287.845H238.73C240.026 287.845 241.07 288.89 241.07 290.185V292.465Z" fill="white"/>
<path d="M197.477 303.266C197.477 305.187 195.915 306.75 193.994 306.75C192.074 306.75 190.512 305.187 190.512 303.266C190.512 301.345 192.066 299.783 193.994 299.783C195.915 299.783 197.477 301.338 197.477 303.266Z" fill="white"/>
<path d="M252.508 304.402C252.508 305.698 251.464 306.742 250.169 306.742H205.047C203.751 306.742 202.707 305.69 202.707 304.402V302.123C202.707 300.827 203.751 299.783 205.047 299.783H250.169C251.464 299.783 252.508 300.827 252.508 302.123V304.402Z" fill="white"/>
<path d="M272.86 239.661H228.469L224.171 247.101C220.978 252.635 223.592 257.155 229.978 257.155H271.343C277.729 257.155 280.343 252.627 277.15 247.101L272.86 239.661Z" fill="#E527BB"/>
<path d="M227.922 240.614H273.417L267.115 229.698H234.224L227.922 240.614Z" fill="#A78BEF"/>
<path d="M233.422 231.077H267.905L259.972 217.326H241.363L233.422 231.077Z" fill="#DAA7EE"/>
<path d="M261.346 219.704L256.476 211.265C253.283 205.731 248.055 205.731 244.87 211.265L240 219.704H261.346Z" fill="#E527BB"/>
<path d="M374.651 184.936C372.898 178.304 373.805 170.506 388.62 163.615C403.434 156.724 432.027 159.712 437.484 182.466C442.94 205.221 436.965 216.784 448.008 231.085C459.058 245.386 479.458 262.027 461.786 281.656C431.372 303.106 382.119 278.408 377.699 266.448C373.279 254.487 380.298 235.377 390.433 219.392C400.577 203.399 376.533 195.204 374.651 184.936Z" fill="#231F20"/>
<path d="M400.576 235.827C400.378 233.288 399.799 226.664 399.799 226.664C385.373 230.17 375.817 218.667 376.213 206.776C376.609 194.884 376.602 194.099 374.658 184.936C372.707 175.773 390.06 164.659 407.016 166.214C423.979 167.777 421.701 176.421 419.171 192.993C418.782 197.476 421.312 204.367 421.312 204.367C421.899 214.185 421.64 235.636 421.64 235.636C421.64 235.636 410.133 242.268 400.576 235.827Z" fill="#FF7E7D"/>
<path d="M392.453 242.329C396.286 241.872 400.836 241.155 400.836 241.155C400.836 241.155 400.249 235.628 400.12 234.721C399.99 233.814 400.577 233.685 401.872 234.073C403.175 234.462 411.878 236.215 420.131 232.777C422.273 232.061 422.28 232.19 422.6 234.79C422.921 237.389 423.439 239.729 423.439 239.729C423.439 239.729 425.908 241.025 432.599 241.612C424.429 251.362 400.127 258.711 392.453 242.329Z" fill="#E527BB"/>
<path d="M421.634 200.273C424.362 197.415 430.733 195.593 432.943 201.569C435.153 207.553 426.054 215.87 419.812 209.497C421.253 205.19 421.634 200.273 421.634 200.273Z" fill="#FF7E7D"/>
<path d="M374.976 186.232C377.445 181.033 391.483 173.364 398.494 172.45C401.481 190.257 405.97 200.792 415.716 198.581C417.926 208.071 418.643 207.942 420.068 207.423C421.501 206.905 422.278 201.767 422.667 199.168C427.087 195.921 429.426 190.912 428.908 183.503C428.39 176.093 422.148 160.23 401.489 164.003C380.821 167.777 371.989 175.186 374.976 186.232Z" fill="#231F20"/>
<path d="M399.797 227.045C399.637 227.045 399.492 226.946 399.439 226.786C399.37 226.588 399.477 226.367 399.683 226.306C401.161 225.81 414.269 221.206 418.064 211.609C418.14 211.41 418.368 211.319 418.559 211.395C418.757 211.471 418.849 211.692 418.772 211.891C414.848 221.808 401.435 226.527 399.919 227.03C399.873 227.037 399.835 227.045 399.797 227.045Z" fill="black"/>
<path d="M318.44 268.979C317.983 267.286 317.206 264.626 317.206 264.626C315.453 265.602 313.761 265.213 312.915 264.496C309.73 265.404 307.39 264.954 305.18 261.958C301.797 263.97 296.47 261.241 295.952 258.84C295.434 256.439 300.372 257.994 303.298 259.229C302.323 254.289 303.428 253.115 304.274 253.314C305.119 253.512 306.743 253.573 308.884 258.383C308.297 252.795 310.507 253.314 311.871 254.808C313.236 256.302 314.859 260.136 314.859 260.136L316.55 259.679C315.636 256.881 315.316 254.221 316.55 253.702C317.785 253.184 319.477 253.375 321.679 258.97C325.772 258.124 330.131 256.172 331.754 258.253C333.377 260.334 335.069 265.404 335.069 265.404C335.069 265.404 332.607 275.222 318.44 268.979Z" fill="#FF7E7D"/>
<path d="M393.429 242.138C388.88 243.045 382.12 241.49 376.793 243.571C371.467 245.652 367.047 251.758 360.805 266.707C354.572 281.656 348.848 292.19 348.848 292.19C345.343 284.263 336.762 267.103 335.855 265.281C334.948 263.46 334.293 266.715 329.484 268.27C324.676 269.832 318.953 269.177 317.916 268.399C316.88 267.622 317.916 271.776 320.774 279.323C323.632 286.862 330.262 307.535 334.811 315.204C339.361 322.873 353.009 330.412 362.886 316.896C372.762 303.373 378.615 286.992 378.615 286.992L386.929 328.979H445.669L446.187 294.271C446.187 294.271 460.484 322.217 456.841 328.979C465.551 328.979 480.755 329.238 480.755 329.238C480.755 329.238 482.599 322.438 479.604 314.205C476.098 304.562 471.663 292.602 468.927 286.077C463.86 273.987 457.489 257.605 453.724 252.925C449.952 248.244 447.597 244.555 432.409 241.353C431.175 241.094 430.915 242.131 426.427 244.41C421.946 246.689 405.691 250.752 396.6 244.799C395.06 243.777 394.214 242.07 393.429 242.138Z" fill="#A78BEF"/>
<path d="M409.547 244.052C409.547 244.928 408.991 245.645 408.313 245.645C407.634 245.645 407.078 244.928 407.078 244.052C407.078 243.175 407.627 242.458 408.313 242.458C408.991 242.458 409.547 243.175 409.547 244.052Z" fill="#151748"/>
<path d="M403.356 244.067C402.419 244.067 401.489 243.175 400.499 241.338C400.399 241.155 400.468 240.919 400.651 240.82C400.834 240.721 401.07 240.789 401.169 240.972C402.274 243.03 403.044 243.297 403.387 243.297C403.981 243.267 404.469 242.42 404.774 241.719C405.734 239.47 407.212 235.872 407.228 235.842C407.304 235.644 407.532 235.552 407.723 235.636C407.921 235.712 408.012 235.941 407.929 236.132C407.913 236.17 406.435 239.775 405.475 242.024C404.911 243.343 404.217 244.029 403.417 244.067C403.402 244.067 403.379 244.067 403.356 244.067Z" fill="black"/>
<path d="M414.529 244.806C414.377 244.806 414.217 244.799 414.064 244.791C411.024 244.555 410.048 241.132 409.195 238.113C409.02 237.488 408.844 236.886 408.661 236.337C408.593 236.139 408.699 235.918 408.905 235.857C409.103 235.788 409.317 235.895 409.385 236.101C409.568 236.657 409.743 237.275 409.926 237.907C410.711 240.69 411.611 243.838 414.125 244.029C417.517 244.288 421.167 241.246 422.775 239.409C422.912 239.249 423.156 239.234 423.316 239.371C423.476 239.508 423.491 239.752 423.354 239.912C421.716 241.78 418.081 244.806 414.529 244.806Z" fill="black"/>
<path d="M379.038 289.057C378.863 289.057 378.703 288.935 378.665 288.76C378.169 286.496 377.666 284.324 377.209 282.326C376.279 278.294 375.54 275.115 375.342 273.217C375.319 273.011 375.472 272.821 375.685 272.798C375.891 272.775 376.081 272.927 376.104 273.141C376.295 274.993 377.064 278.317 377.956 282.159C378.421 284.156 378.924 286.336 379.412 288.6C379.457 288.806 379.328 289.012 379.122 289.057C379.091 289.05 379.061 289.057 379.038 289.057Z" fill="black"/>
<path d="M447.266 297.244C447.114 297.244 446.962 297.153 446.908 296.993C445.232 292.434 441.62 285.726 439.234 281.282C438.739 280.36 438.305 279.552 437.962 278.904C437.863 278.721 437.939 278.484 438.122 278.385C438.312 278.286 438.541 278.355 438.64 278.545C438.983 279.193 439.417 280.001 439.913 280.916C442.313 285.375 445.933 292.114 447.632 296.718C447.709 296.917 447.602 297.138 447.404 297.206C447.35 297.237 447.312 297.244 447.266 297.244Z" fill="black"/>
<path d="M306.871 264.352C306.779 264.352 306.688 264.321 306.612 264.252C304.958 262.736 303.182 259.435 302.794 257.956C302.74 257.75 302.862 257.544 303.068 257.491C303.274 257.43 303.48 257.56 303.533 257.765C303.891 259.122 305.591 262.278 307.122 263.688C307.275 263.833 307.29 264.07 307.145 264.23C307.077 264.313 306.978 264.352 306.871 264.352Z" fill="black"/>
<path d="M313.374 265.137C313.313 265.137 313.253 265.121 313.199 265.091C309.968 263.414 308.833 259.656 308.284 257.849L308.2 257.582C308.139 257.384 308.253 257.171 308.452 257.11C308.65 257.049 308.863 257.163 308.924 257.361L309.008 257.628C309.526 259.336 310.601 262.88 313.542 264.412C313.725 264.512 313.801 264.74 313.702 264.923C313.649 265.06 313.512 265.137 313.374 265.137Z" fill="black"/>
<path d="M321.733 264.519C320.971 264.519 320.262 264.367 319.614 264.054C318.067 263.315 316.954 261.767 316.2 259.343C316.139 259.145 316.253 258.932 316.452 258.863C316.657 258.802 316.871 258.916 316.932 259.115C317.617 261.333 318.608 262.72 319.949 263.368C321.123 263.932 322.556 263.887 324.225 263.231C324.423 263.155 324.644 263.254 324.72 263.444C324.796 263.635 324.697 263.864 324.507 263.94C323.508 264.329 322.586 264.519 321.733 264.519Z" fill="black"/>
<path d="M322.531 261.173C322.394 261.173 322.257 261.097 322.189 260.959C322.158 260.898 321.457 259.496 320.939 258.063C320.863 257.864 320.969 257.643 321.167 257.575C321.366 257.499 321.587 257.605 321.655 257.803C322.166 259.198 322.867 260.609 322.874 260.624C322.966 260.815 322.89 261.043 322.707 261.135C322.653 261.158 322.592 261.173 322.531 261.173Z" fill="black"/>
<path d="M316.427 265.266C316.252 265.266 316.092 265.144 316.054 264.961C316.015 264.756 316.145 264.557 316.351 264.512C317.075 264.367 318.347 263.399 318.782 263.033C318.942 262.896 319.186 262.918 319.315 263.078C319.445 263.239 319.429 263.482 319.269 263.612C319.094 263.757 317.54 265.045 316.496 265.251C316.473 265.266 316.45 265.266 316.427 265.266Z" fill="black"/>
<path d="M194.068 227.838C208.424 227.838 220.062 216.196 220.062 201.836C220.062 187.476 208.424 175.834 194.068 175.834C179.712 175.834 168.074 187.476 168.074 201.836C168.074 216.196 179.712 227.838 194.068 227.838Z" fill="#E527BB"/>
<path d="M216.159 188.145C211.571 180.759 203.394 175.834 194.066 175.834V201.836C194.066 201.836 208.805 193.862 216.159 188.145Z" fill="#A78BEF"/>
<path d="M194.066 201.836L219.748 205.876C219.954 204.557 220.061 203.208 220.061 201.836C220.061 196.401 218.392 191.362 215.541 187.185C208.073 192.323 194.066 201.836 194.066 201.836Z" fill="#A78BEF"/>
<path d="M96.7368 166.793C94.4963 161.282 85.5344 150.915 71.84 156.868C58.1457 162.822 57.5284 174.18 52.796 188.732C48.0712 203.284 40.3514 218.5 37.989 225.993C35.6266 233.486 36.8688 245.614 48.6961 243.411C48.2007 253.115 62.7867 254.823 69.0509 251.126C79.6893 244.844 77.4336 233.479 77.4336 233.479C82.5395 235.575 96.9425 230.589 92.0653 215.763C85.0162 194.335 82.6614 171.085 93.6885 171.085C100.966 165.627 96.7368 166.793 96.7368 166.793Z" fill="#231F20"/>
<path d="M100.332 167.487C98.427 165.414 95.5692 163.82 93.1916 167.373C91.1188 170.468 90.2195 174.264 94.2661 175.079C96.9181 175.621 101.285 171.192 100.332 167.487Z" fill="#E527BB"/>
<path d="M103.336 231.489C103.854 229.149 105.561 217.044 105.561 217.044L112.062 207.423C104.944 199.953 115.567 188.054 121.29 197.803C123.889 197.155 123.371 176.871 127.394 173.883C131.426 170.894 143.512 171.802 143.512 171.802C146.759 175.705 147.803 181.292 147.018 187.528C146.24 193.771 145.067 195.585 148.054 198.581C151.041 201.569 153.64 203.78 148.961 207.164C146.103 209.116 145.974 209.893 145.455 213.537C144.937 217.173 144.549 221.335 138.437 222.898C132.325 224.461 127.387 224.064 125.962 223.805C125.055 223.676 123.622 230.567 122.974 234.203C122.327 237.847 103.336 231.489 103.336 231.489Z" fill="#FF7E7D"/>
<path d="M175.352 246.552C179.124 242.39 181.593 237.709 186.92 236.932C192.247 236.154 195.889 235.895 198.617 235.11C201.346 234.332 201.864 233.288 203.426 235.11C204.203 229.781 206.802 227.571 207.717 231.207C209.667 227.433 212.396 227.83 211.748 231.077C214.735 228.219 217.075 228.867 216.168 231.855C215.261 234.843 213.051 240.431 209.02 242.123C204.988 243.815 196.026 241.734 192.254 245.896C188.482 250.058 184.458 255.775 184.458 255.775L175.352 246.552Z" fill="#FF7E7D"/>
<path d="M194.915 241.376C194.724 241.376 194.556 241.231 194.534 241.033C194.511 240.827 194.663 240.636 194.869 240.614C197.795 240.301 202.147 238.898 202.878 237.763C203.671 236.528 203.64 235.59 202.779 234.965C202.611 234.843 202.573 234.599 202.695 234.431C202.817 234.264 203.053 234.226 203.229 234.348C203.93 234.858 204.898 236.032 203.518 238.174C202.489 239.783 197.391 241.109 194.953 241.368C194.937 241.376 194.922 241.376 194.915 241.376Z" fill="black"/>
<path d="M203.166 238.616C202.953 238.616 202.785 238.449 202.785 238.235C202.785 238.022 202.953 237.854 203.166 237.854C204.721 237.854 206.382 237.572 208.005 235.529C208.737 234.607 209.331 233.776 209.857 233.044C210.581 232.03 211.16 231.23 211.747 230.673C211.899 230.529 212.143 230.536 212.288 230.689C212.433 230.841 212.425 231.085 212.273 231.23C211.739 231.733 211.183 232.503 210.482 233.486C209.956 234.226 209.354 235.064 208.607 236.002C206.763 238.304 204.82 238.616 203.166 238.616Z" fill="black"/>
<path d="M205.049 238.098C204.973 238.098 204.896 238.075 204.836 238.029C204.66 237.907 204.615 237.671 204.736 237.496C204.98 237.145 205.308 236.215 205.666 235.232C206.314 233.418 207.122 231.161 208.15 230.048C208.295 229.896 208.532 229.88 208.692 230.025C208.844 230.17 208.859 230.406 208.714 230.567C207.792 231.565 207.015 233.745 206.382 235.491C205.979 236.612 205.659 237.503 205.369 237.93C205.285 238.037 205.171 238.098 205.049 238.098Z" fill="black"/>
<path d="M165.673 247.726C167.723 245.386 169.864 241.879 172.493 244.12C175.122 246.361 182.728 251.431 184.481 252.795C186.233 254.16 188.382 254.937 186.233 257.963C184.092 260.982 163.912 287.312 155.042 295.986C146.171 304.661 138.375 306.323 125.9 292.183C123.462 297.45 115.376 300.568 114.012 306.125C112.648 311.682 112.976 328.971 112.976 328.971L65.1484 328.712C65.1484 328.712 74.2856 292.617 78.3855 281.991C82.4855 271.364 84.2916 261.409 93.2458 246.354C97.0105 240.027 100.249 237.869 102.2 229.774C102.49 228.021 102.619 226.42 105.058 227.106C107.497 227.784 121.915 231.832 123.378 232.617C124.841 233.395 122.89 236.909 120.84 244.608C127.173 249.677 134.779 260.304 138.581 265.281C142.384 270.252 145.989 273.369 149.303 269.672C152.611 265.96 165.673 247.726 165.673 247.726Z" fill="#A78BEF"/>
<path d="M126.388 292.952C126.289 292.952 126.19 292.914 126.114 292.838C121.937 288.562 107.786 273.041 105.713 270.381C105.584 270.213 105.614 269.977 105.782 269.847C105.949 269.718 106.186 269.748 106.315 269.916C108.38 272.569 122.494 288.043 126.662 292.312C126.807 292.465 126.807 292.701 126.655 292.853C126.578 292.922 126.487 292.952 126.388 292.952Z" fill="black"/>
<path d="M121.711 245.767C121.62 245.767 121.536 245.736 121.46 245.675C118.427 243.038 114.189 241.971 112.94 241.971C112.726 241.971 112.559 241.803 112.559 241.589C112.559 241.376 112.726 241.208 112.94 241.208C114.479 241.208 118.838 242.382 121.962 245.104C122.123 245.241 122.138 245.485 122.001 245.637C121.924 245.721 121.818 245.767 121.711 245.767Z" fill="black"/>
<path d="M105.72 217.303C107.541 217.173 109.324 215.092 112.06 207.424C109.461 203.391 110.239 198.451 113.752 195.722C117.257 192.993 119.734 195.852 121.548 199.099C123.369 202.347 124.535 202.735 126.097 201.828C127.66 200.921 132.156 194.32 126.959 180.408C126.113 177.938 127.911 175.567 132.072 175.956C136.233 176.345 140.782 176.345 144.288 172.968C145.324 171.405 143.053 167.159 134.96 163.538C128.749 160.764 108.905 157.676 97.6342 169.454C89.8535 177.587 88.5961 185.119 88.84 190.287C89.221 198.497 95.5842 211.433 105.72 217.303Z" fill="#231F20"/>
<path d="M116.154 209.596C113.838 209.596 111.94 208.415 110.812 206.158C110.721 205.968 110.797 205.739 110.98 205.647C111.163 205.556 111.399 205.632 111.49 205.815C112.923 208.681 115.804 209.558 119.195 208.171C119.385 208.094 119.614 208.186 119.69 208.376C119.766 208.575 119.675 208.796 119.485 208.872C118.311 209.36 117.191 209.596 116.154 209.596Z" fill="black"/>
<path d="M126.778 224.415C126.763 224.415 126.748 224.415 126.732 224.415C124.019 224.102 120.27 222.067 118.936 221.023C118.769 220.893 118.738 220.657 118.875 220.489C119.005 220.321 119.241 220.299 119.409 220.428C120.643 221.404 124.286 223.371 126.824 223.66C127.03 223.683 127.182 223.874 127.159 224.08C127.136 224.27 126.969 224.415 126.778 224.415Z" fill="black"/>
<path d="M339.783 241.17C339.783 246.338 335.592 250.531 330.425 250.531H292.733C287.566 250.531 283.375 246.338 283.375 241.17V202.949C283.375 197.78 287.566 193.588 292.733 193.588H330.425C335.592 193.588 339.783 197.78 339.783 202.949V241.17Z" fill="#E527BB"/>
<path d="M302.512 237.389C302.512 239.912 300.47 241.955 297.948 241.955C295.433 241.955 293.383 239.912 293.383 237.389V217.882C293.383 215.359 295.425 213.316 297.948 213.316C300.47 213.316 302.512 215.359 302.512 217.882V237.389Z" fill="white"/>
<path d="M315.13 237.384C315.13 239.907 313.087 241.95 310.565 241.95C308.05 241.95 306 239.907 306 237.384V210.566C306 208.043 308.042 206 310.565 206C313.087 206 315.13 208.043 315.13 210.566V237.384Z" fill="white"/>
<path d="M328.008 237.389C328.008 239.912 325.966 241.955 323.444 241.955C320.921 241.955 318.879 239.912 318.879 237.389V203.94C318.879 201.424 320.921 199.374 323.444 199.374C325.959 199.374 328.008 201.417 328.008 203.94V237.389Z" fill="white"/>
<path d="M494.651 330H43.3246C42.9054 330 42.5625 329.657 42.5625 329.238C42.5625 328.818 42.9054 328.475 43.3246 328.475H494.651C495.07 328.475 495.413 328.818 495.413 329.238C495.413 329.657 495.07 330 494.651 330Z" fill="#151748"/>
</g>
<defs>
<clipPath id="clip0_1825_4598">
<rect width="458.414" height="289" fill="white" transform="translate(37 41)"/>
</clipPath>
</defs>
</svg>
