<svg width="557" height="339" viewBox="0 0 557 339" fill="none" xmlns="http://www.w3.org/2000/svg">
<g clip-path="url(#clip0_1325_10462)">
<path opacity="0.2" d="M85.5617 333.34C48.2417 295.41 -2.76825 256.24 17.2317 197.07C30.3917 158.15 62.6417 147.31 89.4617 123.31C102.692 111.47 94.3717 94.2299 94.1217 77.1199C93.5618 33.2999 145.942 -0.700057 194.102 0.00994261C246.262 0.779943 268.842 49.7299 312.602 52.3599C329.782 52.6099 345.172 43.1899 360.372 35.7199C405.412 13.5599 476.892 27.6899 480.502 81.2699C481.432 110.21 446.152 156.76 481.502 171.98C509.672 184.11 538.132 188.58 543.212 231.96C549.862 288.74 514.722 319.9 468.952 334.52L85.5617 333.34Z" fill="#999999"/>
<path d="M70 158.914C70 205.086 108.832 242.517 156.734 242.517C204.636 242.517 245.616 203.454 245.616 157.282C245.616 111.11 204.639 75.3113 156.734 75.3113C108.829 75.3113 70 112.742 70 158.914Z" fill="#E527BB"/>
<path d="M238.81 138.587C238.861 138.587 238.913 138.58 238.965 138.568C239.284 138.487 239.474 138.171 239.39 137.861C238.458 134.483 237.265 131.13 235.846 127.901C235.717 127.607 235.362 127.475 235.062 127.594C234.759 127.72 234.613 128.059 234.742 128.352C236.139 131.53 237.313 134.831 238.232 138.158C238.3 138.416 238.545 138.587 238.81 138.587Z" fill="white"/>
<path d="M225.551 112.459C225.677 112.459 225.802 112.42 225.912 112.342C226.177 112.152 226.228 111.787 226.028 111.533C209.959 90.9923 184.074 78.7314 156.786 78.7314C145.132 78.7314 133.859 81.0094 123.283 85.4975C122.98 85.6266 122.844 85.9686 122.976 86.259C123.109 86.5494 123.463 86.6817 123.767 86.5558C134.188 82.129 145.3 79.8865 156.786 79.8865C183.7 79.8865 209.227 91.9764 225.073 112.229C225.193 112.381 225.37 112.459 225.551 112.459Z" fill="#7D97F4"/>
<path d="M83.2891 158.44C83.2891 198.407 116.902 230.805 158.369 230.805C199.836 230.805 235.304 196.991 235.304 157.024C235.304 117.057 199.833 86.072 158.369 86.072C116.905 86.072 83.2891 118.473 83.2891 158.44Z" fill="white"/>
<path d="M81.8008 158.915C81.8008 118.947 115.414 86.5496 156.881 86.5496C179.334 86.5496 200.025 95.6387 214.285 110.316L156.446 156.698L144.556 230.305C108.953 224.639 81.8008 194.836 81.8008 158.915Z" fill="white"/>
<path d="M214.631 155.162C214.818 158.233 217.55 160.579 220.737 160.402C223.924 160.224 226.356 157.588 226.172 154.516C225.985 151.445 223.253 149.099 220.066 149.277C216.879 149.454 214.444 152.087 214.631 155.162Z" fill="#BDD0FB"/>
<path d="M89.7484 162.167C89.9322 165.238 92.6675 167.584 95.8543 167.407C99.0411 167.229 101.473 164.593 101.289 161.521C101.102 158.45 98.3702 156.104 95.1834 156.285C91.9966 156.459 89.5613 159.095 89.7484 162.167Z" fill="#BDD0FB"/>
<path opacity="0.78" d="M168.157 212.162C165.016 212.714 162.935 215.618 163.509 218.644C164.083 221.671 167.093 223.678 170.235 223.123C173.376 222.571 175.457 219.667 174.882 216.641C174.308 213.617 171.299 211.61 168.157 212.162Z" fill="white"/>
<path d="M145.685 93.554C142.543 94.1058 140.463 97.0097 141.037 100.036C141.611 103.063 144.62 105.07 147.762 104.515C150.903 103.963 152.984 101.059 152.41 98.0325C151.836 95.006 148.823 93.0023 145.685 93.554Z" fill="#BDD0FB"/>
<path opacity="0.78" d="M127.063 215.346C126.476 216.776 126.621 218.112 127.392 218.334C128.16 218.557 129.26 217.576 129.847 216.15C130.434 214.721 130.289 213.385 129.518 213.162C128.75 212.939 127.65 213.92 127.063 215.346Z" fill="white"/>
<path d="M177.302 102.847C176.715 104.276 176.86 105.612 177.631 105.834C178.398 106.057 179.498 105.076 180.085 103.65C180.672 102.221 180.527 100.885 179.756 100.662C178.989 100.44 177.889 101.417 177.302 102.847Z" fill="#BDD0FB"/>
<path d="M100.832 193.961C99.5611 194.887 98.9643 196.104 99.503 196.678C100.042 197.252 101.506 196.965 102.78 196.039C104.051 195.113 104.648 193.897 104.109 193.322C103.57 192.748 102.103 193.035 100.832 193.961Z" fill="#BDD0FB"/>
<path d="M204.371 122.958C203.1 123.884 202.503 125.1 203.042 125.674C203.581 126.249 205.045 125.961 206.316 125.035C207.587 124.109 208.184 122.893 207.645 122.319C207.109 121.744 205.642 122.032 204.371 122.958Z" fill="#BDD0FB"/>
<path opacity="0.78" d="M97.5404 130.262C96.1019 129.601 94.7052 129.653 94.4246 130.379C94.144 131.101 95.0826 132.224 96.5212 132.886C97.9598 133.547 99.3564 133.495 99.637 132.769C99.9176 132.047 98.979 130.924 97.5404 130.262Z" fill="white"/>
<path d="M210.63 186.111C209.192 185.449 207.795 185.501 207.514 186.227C207.234 186.95 208.172 188.073 209.611 188.734C211.05 189.395 212.446 189.344 212.727 188.618C213.011 187.895 212.069 186.772 210.63 186.111Z" fill="#BDD0FB"/>
<path d="M121.434 106.467C120.56 105.183 119.341 104.528 118.712 105.005C118.083 105.483 118.28 106.912 119.154 108.199C120.028 109.484 121.247 110.139 121.876 109.661C122.505 109.184 122.308 107.751 121.434 106.467Z" fill="#BDD0FB"/>
<path opacity="0.78" d="M187.997 210.797C187.122 209.513 185.903 208.858 185.274 209.336C184.645 209.813 184.842 211.242 185.716 212.527C186.59 213.811 187.809 214.466 188.438 213.988C189.071 213.511 188.871 212.081 187.997 210.797Z" fill="white"/>
<path d="M156.005 157.633L116.344 141.888C115.576 141.581 114.744 142.181 114.825 142.978L115.309 147.728C115.402 148.651 114.309 149.244 113.544 148.683L84.1534 127.094C83.2535 126.433 83.8599 125.048 84.9791 125.197L121.221 130.037C122.089 130.153 122.469 131.153 121.889 131.789L117.986 136.057C117.502 136.587 117.673 137.409 118.328 137.713L156.911 155.694C157.45 155.946 157.679 156.565 157.427 157.088C157.182 157.611 156.553 157.849 156.005 157.633Z" fill="#A78BEF"/>
<path d="M156.468 154.978L156.562 111.216C156.546 110.248 155.465 109.645 154.585 110.116L149.363 112.923C148.347 113.468 147.144 112.581 147.424 111.494L158.226 69.655C158.559 68.3741 160.436 68.3547 160.797 69.626L172.49 110.726C172.77 111.71 171.803 112.597 170.796 112.284L164.036 110.164C163.2 109.903 162.336 110.481 162.297 111.326L159.123 155.013C159.091 155.71 158.491 156.252 157.768 156.239C157.052 156.223 156.478 155.665 156.468 154.978Z" fill="#A78BEF"/>
<path d="M157.263 162.77C160.673 162.77 163.437 160.106 163.437 156.82C163.437 153.534 160.673 150.871 157.263 150.871C153.854 150.871 151.09 153.534 151.09 156.82C151.09 160.106 153.854 162.77 157.263 162.77Z" fill="#A78BEF"/>
<path d="M131.358 67.4354C131.487 67.4354 131.616 67.4064 131.739 67.3451C161.633 52.3223 187.311 67.1644 187.566 67.316C187.972 67.5548 188.495 67.4225 188.733 67.016C188.975 66.6126 188.84 66.0867 188.437 65.848C188.166 65.6866 181.698 61.8922 171.345 59.9595C161.797 58.1752 147.04 57.7461 130.974 65.8189C130.555 66.0319 130.384 66.5417 130.594 66.9643C130.745 67.2612 131.045 67.4354 131.358 67.4354Z" fill="#A78BEF"/>
<path d="M131.928 60.0433C132.057 60.0433 132.186 60.0143 132.309 59.953C162.203 44.9302 187.881 59.7723 188.136 59.9239C188.542 60.1627 189.065 60.0304 189.304 59.6239C189.546 59.2206 189.41 58.6946 189.007 58.4559C188.736 58.2945 182.269 54.5001 171.915 52.5674C162.367 50.7831 147.611 50.354 131.544 58.4268C131.125 58.6398 130.954 59.1496 131.164 59.5722C131.315 59.8723 131.615 60.0433 131.928 60.0433Z" fill="#A78BEF"/>
<g clip-path="url(#clip1_1325_10462)">
<path d="M141.059 328.337H169.413L241.421 253.659L294.107 304.285L372.442 223.076L409.251 258.446L461.578 204.201L463.097 202.628V202.626L463.023 202.554L448.384 188.486L448.381 188.484L408.702 229.619L371.893 194.249L293.558 275.457L240.873 224.832L141.059 328.337Z" fill="#E527BB"/>
<path d="M443.246 193.812L461.577 204.201V204.204L463.097 202.628L463.022 202.554L448.383 188.486L443.246 193.812Z" fill="#CE1F09"/>
<path d="M434.723 174.885L475.734 215.842L485.999 164.673L434.723 174.885Z" fill="#E527BB"/>
<path d="M314.331 170.823C325.387 166.828 334.338 160.17 341.218 159.399C348.101 158.628 342.815 141.899 334.753 138.915C328.756 136.695 333.622 127.09 331.719 121.129C331.886 120.135 331.14 113.782 325.208 110.73C318.757 107.41 313.613 108.78 309.273 112.864C306.286 115.1 304.028 119.357 305.568 127.894C308.219 142.593 301.824 142.192 296.77 156.557C293.814 164.952 303.276 174.819 314.331 170.823Z" fill="#24262A"/>
<path d="M344.676 213.577C338.105 217.352 322.222 219.297 311.86 215.188C308.059 213.68 307.393 212.754 307.68 205.943C307.689 205.689 307.7 205.436 307.716 205.184C307.741 204.674 307.775 204.165 307.811 203.662C307.813 203.635 307.815 203.608 307.818 203.581C307.836 203.36 307.851 203.14 307.87 202.923C307.872 202.887 307.876 202.851 307.879 202.815C307.958 201.864 308.048 200.931 308.147 200.036C308.177 199.788 308.204 199.545 308.231 199.304C308.468 197.307 308.847 195.515 309.195 194.129C309.258 193.879 309.321 193.642 309.382 193.417C309.748 192.058 310.049 191.24 310.049 191.24C311.72 191.508 313.44 191.666 315.17 191.736C315.416 191.745 315.658 191.754 315.904 191.761C324.866 191.997 333.984 189.971 338.209 188.876C338.464 188.81 338.701 188.747 338.918 188.689C340.016 188.393 340.634 188.202 340.634 188.202C340.634 188.202 341.023 188.878 341.567 189.994C341.666 190.201 341.772 190.422 341.881 190.656C342.741 192.498 343.841 195.173 344.464 197.963C344.473 197.997 344.48 198.033 344.487 198.064C344.541 198.305 344.593 198.547 344.645 198.79C344.654 198.84 344.665 198.887 344.676 198.936C345.105 200.96 345.496 203.083 345.762 205.114V205.116C345.799 205.378 345.828 205.637 345.859 205.891C346.377 210.352 346.453 212.556 344.676 213.577Z" fill="#24262A"/>
<path d="M344.676 198.943C344.661 198.936 344.645 198.927 344.629 198.918C343.292 198.193 342.116 197.093 341.104 195.635C340.969 195.436 340.833 195.231 340.702 195.019H340.7C339.682 193.372 338.848 191.321 338.207 188.878C338.462 188.813 338.699 188.75 338.916 188.691C339.546 191.098 340.364 193.104 341.364 194.695C341.495 194.907 341.633 195.112 341.773 195.31C342.565 196.437 343.464 197.325 344.464 197.967C344.473 198.001 344.48 198.037 344.487 198.069C344.539 198.31 344.593 198.551 344.645 198.794C344.656 198.846 344.665 198.894 344.676 198.943Z" fill="#484B54"/>
<path d="M318.288 194.744C317.24 197.109 316.041 199.013 314.704 200.449C314.528 200.638 314.35 200.818 314.167 200.989C313.13 201.979 312.017 202.698 310.827 203.146C309.718 203.563 308.689 203.687 307.812 203.665C307.815 203.638 307.817 203.611 307.819 203.584C307.837 203.363 307.853 203.142 307.871 202.925C308.664 202.943 309.592 202.831 310.583 202.452C311.611 202.064 312.577 201.451 313.485 200.624C313.67 200.455 313.855 200.277 314.034 200.09C315.359 198.713 316.549 196.847 317.595 194.501C317.823 194.584 318.055 194.666 318.288 194.744Z" fill="#484B54"/>
<path d="M341.883 190.663C341.377 190.886 340.831 191.118 340.251 191.353C340.027 191.443 339.795 191.535 339.56 191.628C336.177 192.946 331.749 194.301 326.966 194.792C326.784 194.81 326.598 194.828 326.415 194.844C322.078 195.24 317.663 195.058 314.025 194.717C313.766 194.693 313.508 194.67 313.255 194.641C311.72 194.483 310.342 194.303 309.195 194.134C309.259 193.884 309.322 193.645 309.383 193.424C310.559 193.597 311.975 193.782 313.556 193.94C313.806 193.962 314.057 193.987 314.314 194.012C318.024 194.348 322.518 194.515 326.892 194.064C331.557 193.584 335.884 192.268 339.203 190.983H339.205C339.44 190.893 339.668 190.801 339.892 190.71C340.49 190.469 341.052 190.23 341.572 190.003C341.669 190.206 341.773 190.429 341.883 190.663Z" fill="#484B54"/>
<path d="M377.267 323.698C375.307 322.136 360.334 315.425 360.334 315.425C360.334 315.425 358.69 318.021 359.503 319.946C360.278 321.78 363.714 331.656 364.112 332.684L365.467 332.202L364.624 327.437C364.624 327.437 369.468 331.266 372.388 332.129C375.305 332.993 383.026 329.905 384.814 328.988C386.6 328.07 379.227 325.26 377.267 323.698Z" fill="#A78BEF"/>
<path d="M358.551 310.487L360.305 314.893C360.305 314.893 360.192 316.552 361.577 318.454C362.961 320.356 366.535 322.882 369.69 324.579C372.411 326.042 377.363 326.709 378.415 325.7C379.467 324.692 374.296 321.672 372.429 319.802C370.562 317.931 369.356 315.925 368.319 314.156C367.258 312.349 365.664 307.53 365.664 307.53L358.551 310.487Z" fill="#FF9562"/>
<path d="M367.754 312.421L357.041 257.182L356.872 256.305L356.486 254.317C354.444 235.451 354.237 226.184 344.768 199.712L328.535 214.034C331.15 234.744 337.66 243.089 344.159 259.273C344.159 259.273 341.298 271.635 349.17 289.512C352.647 298.833 356.465 309.151 358.511 314.688C361.535 313.714 364.644 313.072 367.754 312.421Z" fill="#24262A"/>
<path d="M357.039 257.182C356.317 257.373 355.54 257.524 354.727 257.592C353.878 257.664 352.993 257.651 352.094 257.506C351.852 257.468 351.69 257.243 351.728 257.002C351.767 256.763 351.992 256.6 352.232 256.639C353.867 256.9 355.479 256.688 356.87 256.305L357.039 257.182Z" fill="#484B54"/>
<path d="M360.59 314.073C358.302 307.586 354.213 295.928 351.494 287.846C347.576 276.214 346.912 257.157 346.906 256.963C346.903 256.9 346.885 256.839 346.852 256.785C335.286 238.059 332.167 218.751 332.138 218.56C332.106 218.361 331.917 218.224 331.718 218.255C331.517 218.285 331.379 218.474 331.411 218.672C331.44 218.866 334.574 238.262 346.174 257.087C346.231 258.588 346.992 276.778 350.796 288.08C353.511 296.146 357.591 307.773 359.881 314.271C360.118 314.203 360.353 314.136 360.59 314.073Z" fill="#484B54"/>
<path d="M330.513 213.818C330.547 214.016 330.736 214.149 330.935 214.118C330.937 214.118 330.937 214.118 330.937 214.118C331.136 214.084 331.272 213.892 331.235 213.694C331.001 212.339 330.77 210.949 330.549 209.56C330.511 209.315 330.47 209.071 330.434 208.826C329.718 204.282 329.095 199.804 328.673 196.638C328.639 196.381 328.605 196.133 328.573 195.894C328.481 195.2 328.402 194.582 328.334 194.059C328.088 194.075 327.842 194.089 327.598 194.1C327.665 194.623 327.747 195.245 327.839 195.946C327.871 196.185 327.905 196.432 327.939 196.689C328.359 199.827 328.973 204.266 329.684 208.783C329.723 209.033 329.763 209.283 329.802 209.531C330.032 210.974 330.271 212.416 330.513 213.818Z" fill="#484B54"/>
<path d="M328.439 209.322C328.563 209.351 329.118 209.479 329.8 209.533C330.04 209.554 330.292 209.563 330.548 209.558C330.782 209.552 331.017 209.533 331.245 209.495C331.683 209.423 332.092 209.281 332.404 209.029C332.79 208.715 332.986 208.26 332.966 207.712C332.919 206.272 332.194 200.442 331.661 196.322C331.629 196.07 331.598 195.822 331.566 195.581C331.48 194.923 331.401 194.323 331.336 193.814C331.092 193.839 330.848 193.861 330.604 193.884C330.672 194.395 330.751 195.001 330.837 195.669C330.868 195.907 330.9 196.155 330.934 196.408C331.462 200.516 332.187 206.338 332.234 207.735C332.246 208.057 332.153 208.287 331.943 208.458C331.607 208.731 331.029 208.821 330.435 208.821C330.182 208.821 329.927 208.806 329.685 208.783C329.245 208.738 328.852 208.664 328.615 208.607C328.418 208.56 328.22 208.679 328.172 208.878C328.12 209.076 328.242 209.274 328.439 209.322Z" fill="#484B54"/>
<path d="M284.975 325.377C283.629 323.268 271.641 312.073 271.641 312.073C271.641 312.073 269.243 313.998 269.385 316.083C269.52 318.068 269.568 328.523 269.611 329.626L271.049 329.607L271.799 324.827C271.799 324.827 275.139 330.015 277.62 331.776C280.102 333.536 288.405 333.11 290.394 332.821C292.386 332.533 286.323 327.489 284.975 325.377Z" fill="#A78BEF"/>
<path d="M275.731 306.545L271.642 312.074C271.642 312.074 271.145 313.095 271.836 315.341C272.529 317.588 275.087 321.136 277.524 323.761C279.624 326.026 284.093 328.258 285.414 327.642C286.735 327.029 282.824 322.502 281.665 320.128C280.507 317.755 280.139 317.286 280.563 315.47C281.04 313.43 283.049 310.55 283.049 310.55L275.731 306.545Z" fill="#FF9562"/>
<path d="M327.236 210.656C328.546 231.124 316.801 261.392 310.639 266.983C301.753 275.049 299.48 262.007 301.239 254.734C303 247.461 307.816 208.636 307.816 208.636L327.236 210.656Z" fill="#24262A"/>
<path d="M283.163 312.998L313.182 263.431L302.433 254.024C302.433 254.024 291.52 259.81 286.891 273.456C284.102 281.68 277.793 297.663 273.93 307.307C277.014 309.196 280.133 311.028 283.163 312.998Z" fill="#24262A"/>
<path d="M308.922 218.56C308.741 218.535 308.574 218.659 308.549 218.839C308.5 219.184 303.685 252.945 302.78 256.654C301.793 257.261 295.324 261.385 292.81 266.922C290.631 271.723 279.592 298.179 275.807 307.262C275.737 307.426 275.814 307.62 275.979 307.69C275.981 307.69 275.983 307.692 275.986 307.692C276.153 307.764 276.347 307.683 276.417 307.514C280.201 298.434 291.239 271.986 293.413 267.193C295.992 261.509 303.164 257.191 303.236 257.146C303.308 257.103 303.363 257.033 303.385 256.95C304.212 253.923 309.001 220.356 309.204 218.929C309.227 218.753 309.103 218.587 308.922 218.56Z" fill="#484B54"/>
<path d="M322.242 215.779L327.083 244.615C327.273 245.749 326.505 246.826 325.367 247.015L278.338 254.879C277.198 255.07 276.123 254.302 275.933 253.166L271.092 224.329C270.9 223.191 271.668 222.118 272.808 221.929L319.837 214.066C320.973 213.879 322.052 214.643 322.242 215.779Z" fill="#BC0D9B"/>
<path d="M324.868 231.417L322.241 215.778C322.052 214.64 320.972 213.876 319.837 214.066L272.807 221.929C271.667 222.12 270.902 223.193 271.091 224.329L273.715 239.968L324.868 231.417Z" fill="#E527BB"/>
<path d="M303.32 211.753L304.148 216.689L301.642 217.111L300.836 212.315L298.399 212.722L298.28 212.743L296.801 212.991L296.618 213.022L290.196 214.095L291 218.893L288.491 219.312L287.662 214.377C287.443 213.072 288.328 211.832 289.633 211.614L295.656 210.604L296.107 210.527L296.947 210.388L297.124 210.356L300.556 209.784C301.861 209.567 303.101 210.448 303.32 211.753Z" fill="#A78BEF"/>
<path d="M286.191 235.537L286.958 240.105C286.999 240.351 286.832 240.585 286.586 240.626L284.237 241.018C283.991 241.059 283.757 240.892 283.716 240.646L282.948 236.078C282.905 235.828 283.072 235.595 283.321 235.553L285.669 235.161C285.915 235.122 286.15 235.289 286.191 235.537Z" fill="#5920CD"/>
<path d="M286.191 235.537L286.575 237.82L283.332 238.363L282.948 236.08C282.905 235.83 283.072 235.598 283.321 235.555L285.669 235.163C285.915 235.122 286.15 235.289 286.191 235.537Z" fill="#A78BEF"/>
<path d="M314.869 230.743L315.637 235.312C315.677 235.557 315.51 235.792 315.264 235.832L312.913 236.224C312.667 236.265 312.432 236.098 312.392 235.852L311.624 231.284C311.581 231.034 311.748 230.802 311.996 230.759L314.347 230.367C314.593 230.326 314.828 230.493 314.869 230.743Z" fill="#5920CD"/>
<path d="M314.867 230.743L315.251 233.026L312.004 233.569L311.62 231.286C311.577 231.036 311.744 230.804 311.993 230.761L314.343 230.369C314.592 230.326 314.826 230.493 314.867 230.743Z" fill="#A78BEF"/>
<path d="M344.991 196.221C338.271 196.176 333.459 194.283 329.794 191.287C322.92 198.418 306.707 199.712 306.707 199.712C308.408 194.235 308.369 184.598 308.369 184.598C308.098 182.586 307.958 180.003 307.407 177.884C305.732 173.055 304.487 169.965 302.744 164.975C302.631 164.65 302.516 164.33 302.401 164.006C302.326 163.796 302.247 163.587 302.171 163.375C301.597 161.813 300.983 160.258 300.337 158.759C297.526 152.219 297.072 144.849 303.835 142.598C304.327 142.435 304.81 142.278 305.282 142.129C308.482 141.119 311.14 140.596 311.88 140.416C312.016 140.385 312.332 140.416 312.332 140.416L326.292 141.401L327.644 141.514C329.627 141.737 331.731 141.678 333.059 141.971C334.229 142.228 336.013 141.964 336.783 142.305C340.145 143.794 338.844 147.098 339.716 151.764C339.729 151.845 339.745 151.924 339.759 152.007C339.763 152.032 339.77 152.061 339.777 152.086C339.928 152.879 340.111 153.664 340.316 154.441C340.547 155.309 340.802 156.165 341.071 157.001C342.708 162.126 344.681 164.479 344.345 167.704C344.038 170.625 341.055 174.607 340.26 175.457C340.077 175.653 339.969 175.757 339.969 175.757C339.971 175.77 339.971 175.786 339.973 175.802C339.985 175.917 339.998 176.041 340.016 176.169C340.075 176.661 340.163 177.247 340.271 177.909C341.443 189.743 344.991 196.221 344.991 196.221Z" fill="#A78BEF"/>
<path d="M310.266 198.497C310.419 198.497 310.546 198.373 310.55 198.22C310.553 198.085 310.799 184.639 309.817 178.793C308.832 172.938 303.216 160.396 303.16 160.272C303.094 160.13 302.927 160.064 302.785 160.13C302.643 160.193 302.577 160.362 302.643 160.504C302.699 160.63 308.283 173.104 309.257 178.887C310.232 184.682 309.986 198.073 309.984 198.209C309.981 198.366 310.106 198.495 310.261 198.497C310.264 198.497 310.266 198.497 310.266 198.497Z" fill="#5920CD"/>
<path d="M367.281 143.788L366.879 144.588L366.454 145.415C366.172 145.969 365.885 146.524 365.596 147.076C365.016 148.18 364.433 149.285 363.83 150.371C363.237 151.462 362.629 152.544 362.008 153.607C361.389 154.673 360.764 155.726 360.12 156.751C359.8 157.265 359.475 157.77 359.145 158.268C358.82 158.768 358.49 159.26 358.156 159.737C357.49 160.695 356.806 161.613 356.119 162.435C355.778 162.848 355.439 163.235 355.105 163.585C354.776 163.932 354.45 164.24 354.166 164.477C353.886 164.711 353.633 164.874 353.549 164.905C353.509 164.923 353.516 164.907 353.61 164.865C353.631 164.858 353.667 164.84 353.698 164.833C353.737 164.817 353.777 164.808 353.816 164.797C353.895 164.779 353.969 164.761 354.042 164.752C354.184 164.732 354.299 164.732 354.367 164.736C354.437 164.741 354.453 164.743 354.435 164.732C354.394 164.714 354.202 164.633 353.949 164.477C353.694 164.324 353.382 164.101 353.05 163.835C352.718 163.569 352.366 163.255 352.005 162.917C351.285 162.235 350.548 161.437 349.828 160.583C349.108 159.724 348.39 158.816 347.69 157.871C346.292 155.978 344.939 153.966 343.643 151.897C342.991 150.864 342.356 149.814 341.731 148.762C341.417 148.234 341.11 147.705 340.807 147.177L340.355 146.389L339.938 145.643L339.854 145.494C338.253 142.636 334.633 141.613 331.77 143.211C328.979 144.768 327.941 148.248 329.37 151.07L329.86 152.032L330.334 152.942C330.655 153.544 330.98 154.137 331.31 154.73C331.969 155.913 332.658 157.078 333.362 158.241C334.785 160.558 336.291 162.845 337.978 165.09C338.82 166.215 339.701 167.332 340.663 168.432C341.624 169.534 342.65 170.627 343.822 171.702C344.409 172.241 345.032 172.775 345.723 173.296C346.414 173.816 347.164 174.333 348.033 174.817C348.902 175.299 349.889 175.764 351.088 176.111C351.689 176.282 352.339 176.422 353.05 176.496C353.759 176.571 354.523 176.582 355.308 176.492C355.701 176.444 356.097 176.381 356.489 176.287C356.686 176.241 356.882 176.185 357.077 176.129C357.262 176.07 357.454 176.009 357.623 175.944C358.328 175.683 358.915 175.383 359.434 175.079C359.956 174.772 360.403 174.459 360.811 174.148C361.22 173.834 361.588 173.523 361.929 173.212C362.611 172.593 363.194 171.98 363.729 171.371C364.264 170.763 364.752 170.161 365.206 169.559C366.113 168.353 366.913 167.154 367.662 165.958C368.037 165.358 368.399 164.761 368.749 164.161C369.096 163.562 369.433 162.96 369.762 162.359C370.42 161.155 371.047 159.954 371.643 158.744C372.24 157.533 372.813 156.321 373.366 155.101C373.915 153.88 374.448 152.658 374.958 151.426C375.213 150.808 375.464 150.191 375.713 149.569L376.076 148.629L376.444 147.653C377.415 145.086 376.117 142.219 373.545 141.25C371.144 140.346 368.484 141.415 367.351 143.646L367.281 143.788Z" fill="#A78BEF"/>
<path d="M374.269 152.244C374.384 152.244 374.452 152.241 374.459 152.241C374.615 152.235 374.737 152.102 374.73 151.944C374.723 151.788 374.585 151.669 374.432 151.673C374.414 151.673 372.707 151.748 370.877 151.139C368.466 150.337 366.987 148.786 366.479 146.53C366.445 146.377 366.291 146.28 366.14 146.316C365.986 146.35 365.889 146.501 365.926 146.654C367.118 151.985 373.122 152.244 374.269 152.244Z" fill="#5920CD"/>
<path d="M351.275 168.459C351.401 168.459 351.516 168.374 351.55 168.245C351.95 166.672 353.923 164.784 353.944 164.763C354.057 164.655 354.061 164.475 353.953 164.362C353.844 164.249 353.664 164.245 353.551 164.353C353.465 164.434 351.437 166.377 350.997 168.106C350.959 168.257 351.051 168.412 351.202 168.45C351.227 168.457 351.252 168.459 351.275 168.459Z" fill="#1473C9"/>
<path d="M350.074 166.571C350.123 166.571 350.175 166.557 350.22 166.53C350.234 166.521 351.593 165.71 353.063 165.5C353.219 165.478 353.327 165.333 353.305 165.18C353.282 165.025 353.138 164.916 352.984 164.939C351.397 165.167 349.988 166.01 349.929 166.046C349.796 166.127 349.753 166.3 349.834 166.435C349.884 166.523 349.976 166.571 350.074 166.571Z" fill="#5920CD"/>
<path d="M368.442 137.969C368.442 137.969 365.953 134.813 365.373 136.531C364.793 138.25 367.11 139.88 368.16 141.762C369.21 143.644 367.821 146.445 370.905 148.131C373.99 149.817 377.382 146.736 377.382 146.736L368.442 137.969Z" fill="#FF9562"/>
<path d="M394.861 112.833L396.832 111.501C397.223 111.237 397.324 110.707 397.06 110.318L392.553 103.667C392.289 103.277 391.758 103.175 391.37 103.439L389.398 104.771L394.861 112.833Z" fill="#BC0D9B"/>
<path d="M374.23 148.167L366.234 136.364L372.286 132.28L376.637 138.703L380.914 145.086C381.86 146.497 381.971 148.304 381.208 149.821L380.074 152.073C379.464 153.283 377.775 153.393 377.014 152.271L374.23 148.167Z" fill="#24262A"/>
<path d="M360.16 133.107L360.167 133.103L357.705 129.47L357.699 129.474C356.895 130.015 356.685 131.106 357.227 131.906L357.721 132.636C358.265 133.439 359.356 133.648 360.16 133.107Z" fill="#846AE2"/>
<path d="M363.157 128.679C364.909 131.264 368.044 132.544 371.108 131.924L372.603 131.622L399.551 126.182L400.066 126.078L401.47 125.794C403.466 124.446 400.23 117.311 395.665 110.146C390.094 101.404 382.543 92.6168 380.106 94.2621L379.235 95.5873L378.948 96.0245L363.101 120.106C361.382 122.713 361.407 126.096 363.157 128.679Z" fill="#E527BB"/>
<path d="M370.004 128.133L372.605 131.624L401.475 125.796C403.471 124.449 400.235 117.313 395.669 110.149C395.999 111.294 398.25 119.761 393.156 122.17C387.687 124.755 370.004 128.133 370.004 128.133Z" fill="#E527BB"/>
<path d="M399.552 126.184L400.067 126.08C396.56 115.769 391.062 108.008 386.961 103.225C383.626 99.3353 380.674 96.7638 379.236 95.5896L378.949 96.0268C380.385 97.1988 383.292 99.7432 386.577 103.577C390.633 108.312 396.072 115.988 399.552 126.184Z" fill="white"/>
<path d="M363.097 133.073L363.106 133.067L358.833 126.761L358.824 126.768C357.431 127.707 357.065 129.598 358.007 130.989L358.865 132.255C359.809 133.648 361.701 134.013 363.097 133.073Z" fill="#A78BEF"/>
<path d="M357.332 126.594L362.907 134.825C364.111 136.601 366.525 137.065 368.302 135.866L374.934 131.39L365.003 116.734L358.371 121.21C356.596 122.407 356.129 124.818 357.332 126.594Z" fill="#24262A"/>
<path d="M376.016 134.602C376.016 134.602 376.877 135.294 375.678 137.184C375.221 137.903 374.725 138.492 374.151 138.259C372.954 137.773 374.124 136.186 374.054 135.357C373.982 134.525 375.206 134.016 376.016 134.602Z" fill="#FF9562"/>
<path d="M380.423 141.78C380.423 141.78 381.283 142.472 380.084 144.362C379.628 145.081 379.131 145.67 378.557 145.437C377.361 144.951 378.53 143.364 378.46 142.535C378.388 141.705 379.614 141.196 380.423 141.78Z" fill="#FF9562"/>
<path d="M375.44 136.159C375.44 136.159 377.543 135.595 377.766 137.66C377.99 139.724 376.535 142.05 375.054 142.294C373.573 142.537 374.907 138.692 374.907 138.692L375.44 136.159Z" fill="#FF9562"/>
<path d="M377.256 139.688C377.256 139.688 379.178 139.72 378.866 141.527C378.553 143.335 376.751 144.955 375.434 144.804C374.118 144.651 376.188 141.71 376.188 141.71L377.256 139.688Z" fill="#FF9562"/>
<path d="M329.192 159.456C329.192 159.895 328.835 160.251 328.395 160.251C327.954 160.251 327.598 159.895 327.598 159.456C327.598 159.016 327.954 158.66 328.395 158.66C328.835 158.66 329.192 159.016 329.192 159.456Z" fill="#5920CD"/>
<path d="M330.375 166.501C330.375 166.94 330.019 167.296 329.578 167.296C329.138 167.296 328.781 166.94 328.781 166.501C328.781 166.061 329.138 165.705 329.578 165.705C330.019 165.705 330.375 166.061 330.375 166.501Z" fill="#5920CD"/>
<path d="M331.09 173.663C331.09 174.103 330.734 174.459 330.293 174.459C329.853 174.459 329.496 174.103 329.496 173.663C329.496 173.224 329.853 172.868 330.293 172.868C330.734 172.868 331.09 173.224 331.09 173.663Z" fill="#5920CD"/>
<path d="M330.602 181.826C331.042 181.826 331.399 181.47 331.399 181.031C331.399 180.591 331.042 180.235 330.602 180.235C330.162 180.235 329.805 180.591 329.805 181.031C329.805 181.47 330.162 181.826 330.602 181.826Z" fill="#5920CD"/>
<path d="M331.364 188.693C331.364 189.133 331.007 189.489 330.567 189.489C330.126 189.489 329.77 189.133 329.77 188.693C329.77 188.254 330.126 187.898 330.567 187.898C331.007 187.898 331.364 188.254 331.364 188.693Z" fill="#5920CD"/>
<path d="M324.66 141.39C324.66 141.39 327.745 141.113 329.906 141.685L329.671 149.769L327.828 150.164L329.38 151.689L327.519 157.114C327.519 157.114 324.974 148.086 324.66 141.39Z" fill="#846AE2"/>
<path d="M311.577 140.418L306.449 141.771L313.074 150.56L318.042 150.166L316.301 153.957L327.522 157.114C327.522 157.114 314.727 145.023 313.689 140.569L311.577 140.418Z" fill="#846AE2"/>
<path d="M311.574 140.418C311.574 140.418 313.532 146.878 327.516 157.112C327.516 157.112 327.83 149.494 325.574 141.62C325.574 141.622 315.038 140.27 311.574 140.418Z" fill="#E527BB"/>
<path d="M340.943 156.898C340.828 156.898 340.722 156.828 340.679 156.715C340.589 156.474 338.441 150.747 338.441 146.875C338.441 146.72 338.568 146.594 338.724 146.594C338.879 146.594 339.006 146.72 339.006 146.875C339.006 150.644 341.185 156.456 341.208 156.515C341.262 156.661 341.189 156.823 341.043 156.88C341.011 156.891 340.977 156.898 340.943 156.898Z" fill="#5920CD"/>
<path d="M343.25 171.265C343.343 171.265 343.433 171.22 343.487 171.137C343.564 171.022 345.341 168.272 344.957 165.408C344.711 163.582 343.58 161.301 342.485 159.095C341.875 157.864 341.299 156.704 340.925 155.712C340.87 155.566 340.706 155.491 340.559 155.548C340.412 155.602 340.337 155.766 340.394 155.913C340.778 156.931 341.36 158.103 341.977 159.347C343.052 161.513 344.163 163.751 344.395 165.484C344.752 168.137 343.031 170.801 343.013 170.828C342.927 170.959 342.964 171.134 343.095 171.22C343.142 171.252 343.196 171.265 343.25 171.265Z" fill="#5920CD"/>
<path d="M329.081 162.879C325.392 162.879 317.861 157.603 317.543 157.38C317.405 157.283 317.373 157.096 317.47 156.959C317.567 156.823 317.755 156.79 317.893 156.887C317.969 156.941 325.584 162.275 329.081 162.275C332.428 162.275 333.171 158.626 333.177 158.588C333.209 158.424 333.367 158.315 333.532 158.349C333.697 158.381 333.803 158.539 333.771 158.703C333.765 158.744 332.925 162.879 329.081 162.879Z" fill="#5920CD"/>
<path d="M319.372 177.722C319.433 177.826 319.541 177.887 319.656 177.887C319.713 177.887 319.767 177.873 319.819 177.844C319.873 177.812 325.204 174.815 331.712 176.084C335.018 176.728 337.829 176.663 340.013 176.176C339.997 176.048 339.981 175.924 339.97 175.809C339.968 175.793 339.968 175.777 339.966 175.764C339.966 175.764 340.074 175.66 340.255 175.464C338.121 176.005 335.264 176.108 331.839 175.444C325.082 174.127 319.717 177.15 319.494 177.278C319.336 177.366 319.281 177.564 319.372 177.722Z" fill="#5920CD"/>
<path d="M308.132 155.683C308.142 155.669 308.112 155.692 308.094 155.703C308.076 155.714 308.051 155.732 308.029 155.748L307.882 155.854L307.572 156.086C307.362 156.246 307.15 156.413 306.938 156.582C306.513 156.925 306.089 157.281 305.667 157.641C304.829 158.372 303.996 159.127 303.19 159.906C302.386 160.688 301.591 161.486 300.828 162.309C300.064 163.131 299.324 163.97 298.603 164.824C297.888 165.68 297.208 166.559 296.549 167.447C296.386 167.67 296.219 167.891 296.061 168.117L295.584 168.793C295.429 169.018 295.28 169.248 295.128 169.476C294.975 169.703 294.828 169.933 294.683 170.165C294.385 170.625 294.112 171.092 293.83 171.556C293.566 172.025 293.288 172.493 293.042 172.967L292.852 173.323L292.805 173.411C292.793 173.431 292.796 173.426 292.796 173.426C292.793 173.424 292.791 173.424 292.787 173.422C292.782 173.424 292.775 173.442 292.769 173.451C292.762 173.467 292.753 173.465 292.746 173.494C292.737 173.517 292.73 173.539 292.719 173.562C292.714 173.573 292.71 173.582 292.703 173.598L292.689 173.645C292.61 173.888 292.534 174.267 292.477 174.693C292.364 175.549 292.33 176.591 292.344 177.654C292.358 178.725 292.437 179.841 292.534 180.967C292.638 182.097 292.764 183.241 292.92 184.393C293.078 185.543 293.259 186.701 293.455 187.859C293.649 189.02 293.866 190.181 294.099 191.341C294.331 192.502 294.568 193.665 294.835 194.823C295.099 195.982 295.363 197.142 295.657 198.296C295.801 198.873 295.946 199.45 296.099 200.023L296.33 200.879L296.56 201.711L296.578 201.774C297.24 204.163 295.837 206.637 293.444 207.298C291.059 207.956 288.589 206.568 287.916 204.192L287.654 203.268L287.406 202.364L286.913 200.564C286.593 199.362 286.267 198.163 285.96 196.96C285.656 195.754 285.342 194.548 285.05 193.336C284.904 192.73 284.759 192.121 284.619 191.513C284.475 190.904 284.335 190.293 284.197 189.68C283.924 188.454 283.662 187.219 283.422 185.971C283.176 184.724 282.948 183.462 282.749 182.18C282.551 180.895 282.386 179.588 282.259 178.231C282.14 176.87 282.056 175.473 282.128 173.904C282.167 173.118 282.241 172.288 282.427 171.344L282.46 171.168L282.503 170.983L282.594 170.612C282.621 170.492 282.666 170.35 282.704 170.219C282.745 170.084 282.783 169.958 282.831 169.816L282.989 169.386L283.111 169.07L283.296 168.594C283.537 167.954 283.804 167.335 284.068 166.708C284.344 166.093 284.615 165.471 284.908 164.869C286.069 162.442 287.349 160.105 288.745 157.855C289.436 156.729 290.154 155.62 290.897 154.529C291.637 153.438 292.394 152.359 293.179 151.299C293.963 150.238 294.762 149.188 295.596 148.149C296.011 147.628 296.431 147.107 296.867 146.589L297.531 145.803L297.881 145.401L298.066 145.194L298.165 145.084C298.201 145.043 298.229 145.014 298.294 144.948C301.266 142.237 305.877 142.442 308.593 145.408C311.31 148.369 311.104 152.972 308.132 155.683Z" fill="#A78BEF"/>
<path d="M287.246 200.848C287.321 200.848 287.395 200.818 287.449 200.762C290.256 197.873 295.341 198.269 295.391 198.274C295.549 198.287 295.685 198.172 295.698 198.015C295.712 197.859 295.596 197.722 295.438 197.708C295.219 197.69 290.037 197.282 287.041 200.367C286.932 200.48 286.934 200.66 287.047 200.769C287.104 200.82 287.176 200.848 287.246 200.848Z" fill="#5920CD"/>
<path d="M301.843 161.957C301.778 161.957 301.712 161.935 301.658 161.89C301.539 161.788 301.525 161.61 301.627 161.491C301.665 161.446 305.459 157.04 309.81 153.731C309.934 153.637 310.113 153.661 310.207 153.785C310.302 153.909 310.277 154.087 310.153 154.182C305.849 157.454 302.094 161.815 302.056 161.86C302.004 161.923 301.922 161.957 301.843 161.957Z" fill="#5920CD"/>
<path d="M307.69 156.26C307.545 156.26 307.421 156.149 307.407 156.003C307.394 155.847 307.509 155.71 307.665 155.696L310.724 155.419C310.88 155.403 311.018 155.521 311.032 155.676C311.045 155.832 310.93 155.969 310.774 155.983L307.714 156.26C307.708 156.26 307.699 156.26 307.69 156.26Z" fill="#5920CD"/>
<path d="M292.459 173.798C292.421 173.798 292.382 173.792 292.344 173.774C289.998 172.741 287.85 172.46 287.83 172.457C287.674 172.437 287.566 172.295 287.584 172.142C287.604 171.986 287.744 171.878 287.9 171.896C287.99 171.908 290.149 172.191 292.57 173.258C292.712 173.321 292.778 173.487 292.714 173.629C292.671 173.735 292.568 173.798 292.459 173.798Z" fill="#5920CD"/>
<path d="M292.343 173.656C292.246 173.656 292.151 173.607 292.097 173.514C291.634 172.719 289.863 171.024 289.845 171.006C289.732 170.898 289.728 170.72 289.836 170.607C289.945 170.494 290.123 170.49 290.236 170.598C290.311 170.67 292.085 172.367 292.587 173.23C292.666 173.366 292.618 173.539 292.483 173.618C292.44 173.645 292.39 173.656 292.343 173.656Z" fill="#5920CD"/>
<path d="M296.31 201.213C296.31 201.213 300.246 203.825 301.19 206.042C302.134 208.258 300.282 209.326 300.282 209.326C300.282 209.326 301.68 213.617 300.811 214.776C299.941 215.934 298.72 215.154 298.72 215.154C298.72 215.154 298.53 216.186 297.841 216.425C297.152 216.666 296.028 215.733 296.028 215.733C296.028 215.733 295.558 217.496 294.768 217.602C293.978 217.708 293.092 216.554 293.092 216.554C293.092 216.554 291.844 218.309 290.884 217.46C288.678 215.501 287.867 203.904 287.867 203.904C287.867 203.904 292.115 201.476 296.31 201.213Z" fill="#FF9562"/>
<path d="M300.214 209.295C300.112 209.295 300.013 209.241 299.963 209.144C299.089 207.485 298.15 205.495 298.141 205.475C298.073 205.333 298.134 205.166 298.276 205.098C298.419 205.033 298.586 205.091 298.654 205.233C298.663 205.254 299.597 207.232 300.465 208.88C300.537 209.017 300.485 209.189 300.345 209.261C300.302 209.286 300.257 209.295 300.214 209.295Z" fill="#FF6A44"/>
<path d="M325.711 142.494C322.681 151.052 313.57 142.454 313.082 140.569C313.951 135.767 313.159 132.273 313.159 132.273L324.84 134.766C324.856 135.095 324.874 135.424 324.89 135.755C324.964 137.283 325.05 138.845 325.305 140.475C325.427 141.248 325.497 141.685 325.711 142.494Z" fill="#FF9562"/>
<path d="M325.306 140.472C319.279 139.954 314.668 134.441 314.668 134.441L324.89 135.753C324.967 137.283 325.051 138.845 325.306 140.472Z" fill="#24262A"/>
<path d="M326.172 126.182C326.172 126.182 326.657 123.328 328.974 123.639C331.291 123.95 332.411 131.343 328.136 131.703L326.172 126.182Z" fill="#FF9562"/>
<path d="M313.129 133.182C314.723 135.965 322.931 138.255 325.869 136.317C327.653 135.14 329.078 133.103 329.423 129.021C329.426 128.999 329.426 128.978 329.428 128.956C329.448 128.715 329.464 128.478 329.475 128.244C329.5 127.82 329.514 127.41 329.514 127.018C329.514 126.925 329.514 126.833 329.514 126.745C329.512 126.502 329.503 126.267 329.491 126.042C329.478 125.765 329.455 125.501 329.426 125.258C328.94 121.289 328.477 116.82 324.485 114.904C320.493 112.988 314.762 113.18 312.068 117.214C312.068 117.214 310.142 120.667 311.122 126.357C312.104 132.048 311.975 131.171 313.129 133.182Z" fill="#FF9562"/>
<path d="M314.996 116.047C314.996 116.047 314.124 122.504 312.527 124.025C310.931 125.546 308.926 122.785 308.926 122.785C308.926 122.785 311.037 112.767 314.996 116.047Z" fill="#24262A"/>
<path d="M322.714 115.001C322.714 115.001 320.059 120.644 315.43 120.185C310.803 119.725 313.174 115.555 313.174 115.555C313.174 115.555 320.856 110.834 322.714 115.001Z" fill="#24262A"/>
<path d="M321.457 114.776C321.457 114.776 324.745 120.989 328.891 119.145C333.037 117.302 325.86 111.819 323.006 112.558C320.154 113.299 321.457 114.776 321.457 114.776Z" fill="#24262A"/>
<path d="M312.461 125.438C312.461 125.438 310.826 123.315 308.622 124.649C306.418 125.983 308.55 133.946 313.03 132.429L312.461 125.438Z" fill="#FF9562"/>
<path d="M312.07 121.165C312.07 121.165 314.766 121.73 314.19 126.188C313.66 130.288 314.852 132.402 317.634 133.195C317.634 133.195 314.003 134.061 313.129 129.492C312.598 126.716 312.84 125.037 310.347 123.806C307.854 122.58 312.07 121.165 312.07 121.165Z" fill="#24262A"/>
<path d="M311.997 129.353C312.042 129.465 311.988 129.596 311.875 129.641C311.859 129.648 311.843 129.652 311.827 129.655C311.728 129.673 311.624 129.616 311.586 129.519C311.581 129.506 311.274 128.767 310.628 128.145C310.231 128.607 309.922 129.028 309.917 129.033C309.881 129.082 309.829 129.111 309.775 129.12C309.718 129.129 309.657 129.118 309.608 129.082C309.511 129.01 309.488 128.87 309.56 128.773C309.574 128.755 309.883 128.334 310.292 127.858C309.897 127.563 309.407 127.338 308.817 127.304C308.696 127.297 308.603 127.191 308.61 127.07C308.616 126.946 308.72 126.853 308.842 126.862C311.017 126.988 311.958 129.256 311.997 129.353Z" fill="#24262A"/>
<path d="M448.306 317.891C448.306 317.891 455.182 319.412 454.162 314.623C453.141 309.834 453.215 308.069 456.009 305.892C458.804 303.715 461.615 302.64 459.475 299.194C457.334 295.748 461.394 293.068 463.494 291.214C465.592 289.359 463.223 287.959 462.668 284.452C462.112 280.946 465.892 281.473 466.188 277.056C466.484 272.638 461.99 267.477 465.854 261.399C465.854 261.399 460.663 264.085 458.958 268.807C457.253 273.526 458.628 277.173 455.562 278.967C452.495 280.761 450.576 283.864 451.617 287.049C452.658 290.233 451.179 291.921 448.663 294.245C446.15 296.568 446.818 297.49 447.132 300.33C447.444 303.17 446.816 302.498 443.939 306.379C441.062 310.26 440.99 316.62 448.306 317.891Z" fill="#00B91F"/>
<path d="M447.326 317.679C447.339 317.657 447.353 317.632 447.36 317.605L461.118 275.924C461.177 275.746 461.08 275.552 460.902 275.494C460.899 275.494 460.897 275.492 460.895 275.492C460.716 275.437 460.527 275.534 460.468 275.712L446.709 317.393C446.698 317.427 446.694 317.46 446.691 317.494L447.326 317.679Z" fill="white"/>
<path d="M435.899 317.805C435.899 317.805 429.059 319.317 430.075 314.555C431.091 309.793 431.017 308.035 428.237 305.872C425.457 303.708 422.66 302.638 424.789 299.21C426.918 295.782 422.879 293.118 420.792 291.272C418.706 289.426 421.061 288.036 421.614 284.547C422.167 281.058 418.408 281.583 418.112 277.191C417.816 272.798 422.289 267.662 418.444 261.615C418.444 261.615 423.608 264.288 425.304 268.983C427 273.677 425.631 277.303 428.682 279.088C431.733 280.873 433.643 283.959 432.606 287.127C431.57 290.296 433.042 291.975 435.544 294.285C438.044 296.595 437.38 297.513 437.068 300.339C436.757 303.163 437.382 302.496 440.246 306.354C443.104 310.215 443.177 316.539 435.899 317.805Z" fill="#00B91F"/>
<path d="M437.502 317.409C437.502 317.375 437.496 317.341 437.484 317.307L423.798 275.848C423.739 275.672 423.55 275.575 423.373 275.629C423.371 275.629 423.369 275.631 423.367 275.631C423.188 275.69 423.091 275.881 423.15 276.059L436.836 317.519C436.845 317.546 436.856 317.569 436.87 317.593L437.502 317.409Z" fill="white"/>
<path d="M443.495 316.937C443.495 316.937 451.367 316.286 448.678 311.497C445.99 306.708 445.482 304.792 447.752 301.533C450.021 298.277 452.677 296.192 449.238 293.21C445.798 290.229 449.256 286.014 450.888 283.33C452.519 280.648 449.515 279.934 447.754 276.364C445.993 272.791 450.215 272.104 449.064 267.274C447.912 262.445 441.379 258.406 443.497 250.615C443.497 250.615 438.832 255.212 438.575 260.833C438.32 266.454 441.007 269.902 438.32 272.841C435.633 275.78 434.607 279.74 436.784 282.805C438.961 285.87 437.936 288.171 436.016 291.491C434.097 294.813 435.12 295.579 436.4 298.516C437.681 301.454 436.784 300.943 434.994 306.052C433.198 311.166 435.235 317.999 443.495 316.937Z" fill="#39B039"/>
<path d="M442.376 317.034C442.382 317.005 442.389 316.976 442.389 316.944L443.256 267.741C443.261 267.531 443.092 267.355 442.879 267.351C442.877 267.351 442.875 267.351 442.873 267.351C442.665 267.351 442.493 267.518 442.489 267.727L441.622 316.931C441.619 316.971 441.626 317.01 441.637 317.046L442.376 317.034Z" fill="white"/>
<path d="M420.584 315.274L421.153 316.782L421.512 317.738L422.546 320.476L422.907 321.431L423.969 324.242L424.328 325.195L428.88 337.257C437.303 338.499 445.597 338.542 453.746 337.257L458.298 325.195L458.657 324.242L459.719 321.431L460.08 320.476L461.114 317.738L461.473 316.782L462.042 315.274C462.433 314.24 461.667 313.135 460.561 313.135H422.065C420.959 313.138 420.193 314.24 420.584 315.274Z" fill="#E31E23"/>
<path d="M421.152 316.782L421.511 317.74H461.111L461.473 316.782H421.152Z" fill="white"/>
<path d="M422.547 320.476L422.908 321.431H459.719L460.081 320.476H422.547Z" fill="white"/>
<path d="M423.969 324.244L424.328 325.197H458.296L458.657 324.244H423.969Z" fill="white"/>
<path d="M141.004 329.006C141.004 329.033 141.004 329.058 141.004 329.083C141.004 330.036 141.514 330.956 142.454 331.81C142.684 332.019 142.939 332.225 143.219 332.425C144.003 332.989 144.976 333.52 146.114 334.014C146.36 334.12 146.615 334.226 146.879 334.329C147.762 334.677 148.731 335.001 149.774 335.301C150.025 335.373 150.28 335.445 150.54 335.513C151.454 335.758 152.423 335.984 153.437 336.189C153.69 336.241 153.943 336.29 154.202 336.338C155.133 336.513 156.099 336.673 157.1 336.813C157.352 336.849 157.608 336.883 157.865 336.917C158.804 337.038 159.771 337.147 160.76 337.237C161.013 337.259 161.268 337.282 161.525 337.302C162.471 337.379 163.438 337.442 164.422 337.487C164.675 337.498 164.931 337.509 165.188 337.519C166.139 337.555 167.105 337.575 168.085 337.582C168.254 337.582 168.426 337.584 168.598 337.584C168.681 337.584 168.767 337.584 168.851 337.584C169.828 337.582 170.795 337.564 171.748 337.53C172.003 337.521 172.258 337.512 172.513 337.5C173.238 337.469 173.954 337.428 174.658 337.379C174.911 337.361 175.16 337.343 175.408 337.322C175.665 337.302 175.918 337.282 176.174 337.259C177.163 337.174 178.129 337.07 179.071 336.951C179.328 336.919 179.583 336.885 179.836 336.849C180.435 336.768 181.022 336.678 181.597 336.583C181.981 336.52 182.358 336.455 182.731 336.385C182.988 336.338 183.244 336.288 183.496 336.238C184.51 336.038 185.477 335.817 186.394 335.578C186.574 335.531 186.753 335.483 186.931 335.434C187.008 335.414 187.082 335.391 187.159 335.371C187.572 335.256 187.977 335.134 188.367 335.012C188.959 334.825 189.521 334.629 190.056 334.426C190.318 334.325 190.573 334.224 190.822 334.122C191.799 333.714 192.66 333.277 193.389 332.817C193.502 332.747 193.61 332.675 193.717 332.603C193.85 332.513 193.976 332.423 194.098 332.333C194.231 332.234 194.358 332.132 194.48 332.031C195.584 331.111 196.187 330.117 196.187 329.081C196.187 329.008 196.185 328.934 196.176 328.862L196.173 322.984L194.478 322.982L193.712 322.98L190.817 322.975L190.052 322.973L187.791 322.971H187.155L186.389 322.968L183.492 322.964H182.726L179.829 322.959H179.064L176.167 322.955H175.401L172.506 322.95L171.741 322.948L168.844 322.944L168.078 322.941L165.181 322.937H164.416L161.519 322.932H160.753L157.858 322.928H157.093L154.196 322.923L153.43 322.921L150.533 322.917L149.768 322.914H149.578L146.87 322.91H146.105L143.21 322.905H142.445L141.004 322.903V329.006Z" fill="#D698EF"/>
<path d="M193.703 322.984V332.608C193.836 332.517 193.963 332.427 194.085 332.337C194.218 332.238 194.344 332.137 194.466 332.035V322.986L193.703 322.984Z" fill="#EA880B"/>
<path d="M190.043 322.977V334.428C190.305 334.327 190.56 334.226 190.808 334.124V322.98L190.043 322.977Z" fill="#EA880B"/>
<path d="M186.383 322.973V335.583C186.563 335.535 186.742 335.488 186.92 335.438C186.997 335.418 187.072 335.395 187.148 335.375V322.975L186.383 322.973Z" fill="#EA880B"/>
<path d="M182.719 322.968V336.389C182.976 336.342 183.231 336.292 183.484 336.243V322.971L182.719 322.968Z" fill="#EA880B"/>
<path d="M179.059 322.962V336.953C179.316 336.921 179.571 336.887 179.824 336.851V322.962H179.059Z" fill="#EA880B"/>
<path d="M175.398 322.957V337.327C175.656 337.307 175.909 337.286 176.164 337.264V322.959L175.398 322.957Z" fill="#EA880B"/>
<path d="M171.738 322.95V337.532C171.993 337.523 172.249 337.514 172.504 337.503V322.952L171.738 322.95Z" fill="#EA880B"/>
<path d="M168.078 322.946V337.586C168.247 337.586 168.419 337.588 168.591 337.588C168.674 337.588 168.76 337.588 168.844 337.588V322.948L168.078 322.946Z" fill="#EA880B"/>
<path d="M164.418 322.941V337.491C164.671 337.503 164.926 337.514 165.183 337.523V322.941H164.418Z" fill="#EA880B"/>
<path d="M160.758 322.935V337.239C161.011 337.262 161.266 337.284 161.523 337.304V322.935H160.758Z" fill="#EA880B"/>
<path d="M157.094 322.93V336.817C157.347 336.853 157.602 336.887 157.859 336.921V322.93H157.094Z" fill="#EA880B"/>
<path d="M153.434 322.923V336.191C153.686 336.243 153.939 336.292 154.199 336.34V322.926L153.434 322.923Z" fill="#EA880B"/>
<path d="M149.773 322.919V335.303C150.024 335.375 150.279 335.447 150.539 335.515V322.921L149.773 322.919Z" fill="#EA880B"/>
<path d="M146.113 322.914V334.016C146.359 334.122 146.615 334.228 146.879 334.332V322.917L146.113 322.914Z" fill="#EA880B"/>
<path d="M142.453 322.907V331.81C142.683 332.019 142.939 332.224 143.219 332.425V322.907H142.453Z" fill="#EA880B"/>
<path d="M141.008 322.98C141.008 327.296 153.353 330.796 168.586 330.796C170.668 330.796 172.693 330.73 174.644 330.606C177.096 330.451 179.425 330.203 181.581 329.876C183.507 329.585 185.296 329.229 186.912 328.821C187.407 328.698 187.886 328.567 188.346 328.432C190.374 327.841 192.074 327.16 193.366 326.414C193.619 326.268 193.856 326.119 194.075 325.968C195.421 325.046 196.164 324.037 196.164 322.98C196.164 322.883 196.157 322.786 196.141 322.689C195.606 318.506 183.473 315.162 168.586 315.162C164.923 315.162 161.425 315.364 158.228 315.732C157.609 315.804 157.004 315.881 156.408 315.964C153.811 316.327 151.445 316.802 149.388 317.368C148.934 317.492 148.496 317.62 148.073 317.753C146.572 318.227 145.271 318.752 144.21 319.32C143.115 319.903 142.275 320.532 141.73 321.195C141.333 321.677 141.094 322.177 141.028 322.689C141.015 322.786 141.008 322.883 141.008 322.98Z" fill="#DAA7EE"/>
<g opacity="0.3">
<path d="M141.734 321.195L174.646 330.609C177.098 330.453 179.426 330.205 181.583 329.879L144.214 319.32C143.121 319.906 142.279 320.535 141.734 321.195Z" fill="#F7F8F9"/>
</g>
<g opacity="0.3">
<path d="M156.41 315.964L193.366 326.415C193.619 326.268 193.856 326.119 194.075 325.968L158.228 315.734C157.611 315.804 157.004 315.881 156.41 315.964Z" fill="#F7F8F9"/>
</g>
<g opacity="0.3">
<path d="M148.074 317.756L186.909 328.824C187.403 328.7 187.882 328.569 188.343 328.434L149.386 317.368C148.935 317.492 148.499 317.623 148.074 317.756Z" fill="#F7F8F9"/>
</g>
<path d="M146.543 322.98C146.543 323.077 146.552 323.171 146.566 323.266C147.098 326.579 156.77 329.227 168.586 329.227C180.403 329.227 190.074 326.579 190.607 323.266C190.618 323.171 190.63 323.074 190.63 322.98C190.63 319.534 180.742 316.732 168.589 316.732C156.436 316.732 146.543 319.536 146.543 322.98Z" fill="#EA880B"/>
<path d="M146.566 323.268C147.099 326.581 156.771 329.229 168.587 329.229C168.851 329.229 169.113 329.227 169.375 329.225C172.01 329.198 174.53 329.04 176.854 328.774C179.18 328.506 181.307 328.13 183.159 327.665C183.628 327.548 184.082 327.424 184.518 327.296C186.492 326.71 188.072 326.016 189.129 325.247C189.384 325.062 189.608 324.873 189.8 324.681C190.256 324.228 190.529 323.755 190.608 323.268C190.075 319.955 180.404 317.307 168.587 317.307C167.092 317.307 165.631 317.35 164.218 317.431C163.498 317.472 162.788 317.523 162.093 317.584C159.255 317.832 156.658 318.24 154.436 318.77C153.957 318.885 153.492 319.004 153.045 319.13C151.313 319.619 149.865 320.187 148.779 320.816C147.723 321.429 147.009 322.096 146.706 322.799C146.639 322.953 146.591 323.11 146.566 323.268Z" fill="#FFB700"/>
<g opacity="0.2">
<path d="M146.707 322.797L169.376 329.223C172.011 329.196 174.531 329.038 176.855 328.772L148.778 320.814C147.721 321.427 147.007 322.094 146.707 322.797Z" fill="#F7F8F9"/>
</g>
<g opacity="0.2">
<path d="M162.09 317.582L189.126 325.245C189.381 325.06 189.605 324.871 189.797 324.679L164.215 317.429C163.494 317.47 162.785 317.521 162.09 317.582Z" fill="#F7F8F9"/>
</g>
<g opacity="0.2">
<path d="M153.043 319.128L183.159 327.665C183.629 327.548 184.083 327.424 184.518 327.296L154.432 318.768C153.953 318.883 153.488 319.002 153.043 319.128Z" fill="#F7F8F9"/>
</g>
<path d="M165.522 326.525V327.564H170.174V326.572C173.473 326.516 176.673 326.264 178.653 325.919L176.147 324.31C173.97 324.675 171.066 324.909 168.526 324.909C166.315 324.909 165.522 324.778 165.522 324.553C165.522 323.73 178.29 324.393 178.29 321.952C178.29 320.895 175.584 320.007 170.174 319.793V318.774H165.522V319.775C163.081 319.84 160.706 320.018 158.825 320.318L161.167 321.918C163.443 321.592 165.588 321.432 167.6 321.432C169.876 321.432 170.603 321.619 170.603 321.844C170.603 322.631 157.836 321.975 157.836 324.388C157.836 325.394 160.408 326.273 165.522 326.525Z" fill="#EA880B"/>
<path d="M165.659 326.18V327.219H170.311V326.227C173.61 326.171 176.81 325.919 178.79 325.574L176.283 323.965C174.107 324.33 171.203 324.564 168.662 324.564C166.452 324.564 165.659 324.433 165.659 324.208C165.659 323.385 178.426 324.048 178.426 321.607C178.426 320.55 175.721 319.662 170.311 319.446V318.427H165.659V319.428C163.218 319.493 160.843 319.671 158.962 319.971L161.303 321.571C163.579 321.244 165.725 321.084 167.737 321.084C170.013 321.084 170.74 321.271 170.74 321.497C170.74 322.283 157.973 321.628 157.973 324.041C157.973 325.049 160.545 325.928 165.659 326.18Z" fill="#FFDB00"/>
<path d="M139.387 319.998C139.387 320.025 139.387 320.05 139.387 320.075C139.387 321.028 139.897 321.948 140.836 322.802C141.067 323.011 141.322 323.216 141.602 323.417C142.385 323.98 143.359 324.512 144.497 325.006C144.743 325.112 144.998 325.218 145.262 325.319C146.145 325.666 147.114 325.991 148.159 326.293C148.41 326.365 148.665 326.437 148.925 326.505C149.839 326.75 150.806 326.976 151.822 327.181C152.075 327.233 152.328 327.282 152.587 327.33C153.518 327.505 154.484 327.665 155.482 327.805C155.735 327.841 155.99 327.875 156.248 327.909C157.187 328.03 158.154 328.139 159.143 328.229C159.396 328.251 159.651 328.274 159.908 328.294C160.854 328.371 161.821 328.434 162.805 328.479C163.058 328.49 163.313 328.501 163.571 328.51C164.521 328.547 165.488 328.567 166.466 328.574C166.635 328.574 166.807 328.576 166.978 328.576C167.062 328.576 167.148 328.576 167.231 328.576C168.209 328.574 169.175 328.556 170.128 328.522C170.383 328.513 170.639 328.504 170.894 328.492C171.619 328.461 172.334 328.42 173.039 328.371C173.292 328.353 173.54 328.335 173.789 328.314C174.044 328.294 174.299 328.274 174.554 328.251C175.543 328.166 176.51 328.062 177.449 327.943C177.706 327.911 177.962 327.877 178.214 327.841C178.813 327.758 179.4 327.67 179.976 327.575C180.36 327.512 180.737 327.447 181.109 327.377C181.367 327.33 181.622 327.28 181.875 327.23C182.889 327.03 183.855 326.809 184.772 326.57C184.953 326.523 185.131 326.475 185.309 326.426C185.386 326.405 185.461 326.383 185.537 326.363C185.951 326.248 186.355 326.126 186.745 326.004C187.337 325.817 187.899 325.621 188.435 325.418C188.696 325.317 188.952 325.215 189.198 325.114C190.175 324.706 191.036 324.269 191.767 323.809C191.88 323.739 191.989 323.667 192.095 323.595C192.228 323.505 192.355 323.415 192.476 323.325C192.61 323.225 192.736 323.124 192.858 323.025C193.962 322.105 194.565 321.111 194.565 320.072C194.565 320 194.561 319.926 194.554 319.854L194.552 313.976L192.856 313.974L192.09 313.972L189.193 313.967L188.43 313.965L186.17 313.963H185.533L184.767 313.96L181.87 313.956H181.105L178.21 313.951H177.444L174.55 313.947H173.784L170.887 313.942L170.121 313.94L167.224 313.936L166.459 313.933L163.564 313.929H162.799L159.901 313.924H159.136L156.241 313.92H155.476L152.581 313.915L151.815 313.913L148.918 313.909L148.153 313.906H147.963L145.255 313.902H144.49L141.595 313.897H140.83L139.389 313.895L139.387 319.998Z" fill="#DAA7EE"/>
<path d="M192.086 313.976V323.6C192.219 323.51 192.346 323.419 192.468 323.329C192.601 323.23 192.727 323.129 192.849 323.03V313.981L192.086 313.976Z" fill="#EA880B"/>
<path d="M188.426 313.972V325.423C188.688 325.321 188.943 325.22 189.189 325.119V313.974L188.426 313.972Z" fill="#EA880B"/>
<path d="M184.766 313.965V326.574C184.946 326.527 185.125 326.48 185.303 326.43C185.38 326.41 185.454 326.387 185.531 326.367V313.967L184.766 313.965Z" fill="#EA880B"/>
<path d="M181.102 313.96V327.381C181.359 327.334 181.614 327.284 181.867 327.235V313.96H181.102Z" fill="#EA880B"/>
<path d="M177.441 313.956V327.947C177.699 327.916 177.954 327.882 178.207 327.846V313.956H177.441Z" fill="#EA880B"/>
<path d="M173.781 313.949V328.319C174.036 328.299 174.292 328.278 174.547 328.256V313.951L173.781 313.949Z" fill="#EA880B"/>
<path d="M170.121 313.945V328.526C170.376 328.517 170.631 328.508 170.887 328.497V313.947L170.121 313.945Z" fill="#EA880B"/>
<path d="M166.461 313.938V328.578C166.63 328.578 166.802 328.58 166.974 328.58C167.057 328.58 167.143 328.58 167.226 328.58V313.94L166.461 313.938Z" fill="#EA880B"/>
<path d="M162.801 313.933V328.483C163.054 328.495 163.309 328.506 163.566 328.515V313.933H162.801Z" fill="#EA880B"/>
<path d="M159.141 313.929V328.233C159.394 328.256 159.649 328.278 159.906 328.299V313.929H159.141Z" fill="#EA880B"/>
<path d="M155.48 313.922V327.81C155.733 327.846 155.989 327.879 156.246 327.913V313.922H155.48Z" fill="#EA880B"/>
<path d="M151.82 313.918V327.185C152.073 327.237 152.326 327.287 152.586 327.334V313.92L151.82 313.918Z" fill="#EA880B"/>
<path d="M148.156 313.911V326.295C148.407 326.367 148.662 326.439 148.922 326.507V313.913L148.156 313.911Z" fill="#EA880B"/>
<path d="M144.496 313.906V325.008C144.742 325.114 144.997 325.22 145.262 325.321V313.906H144.496Z" fill="#EA880B"/>
<path d="M140.836 313.902V322.804C141.066 323.014 141.321 323.219 141.601 323.419V313.902H140.836Z" fill="#EA880B"/>
<path d="M139.395 313.974C139.395 318.29 151.739 321.79 166.972 321.79C169.054 321.79 171.08 321.725 173.031 321.601C175.483 321.445 177.811 321.197 179.968 320.87C181.894 320.58 183.682 320.224 185.299 319.816C185.794 319.692 186.272 319.561 186.733 319.426C188.761 318.835 190.461 318.155 191.753 317.409C192.006 317.262 192.243 317.113 192.462 316.962C193.808 316.041 194.55 315.031 194.55 313.974C194.55 313.877 194.544 313.78 194.528 313.683C193.993 309.5 181.86 306.156 166.972 306.156C163.308 306.156 159.812 306.359 156.615 306.726C155.996 306.798 155.391 306.875 154.795 306.958C152.198 307.321 149.831 307.796 147.774 308.362C147.32 308.486 146.882 308.615 146.46 308.748C144.958 309.221 143.658 309.746 142.596 310.314C141.501 310.898 140.661 311.526 140.117 312.189C139.72 312.671 139.48 313.172 139.415 313.683C139.399 313.78 139.395 313.877 139.395 313.974Z" fill="#DAA7EE"/>
<g opacity="0.3">
<path d="M140.117 312.187L173.029 321.601C175.481 321.445 177.809 321.197 179.966 320.87L142.597 310.314C141.504 310.898 140.664 311.526 140.117 312.187Z" fill="#F7F8F9"/>
</g>
<g opacity="0.3">
<path d="M154.793 306.958L191.749 317.409C192.002 317.262 192.239 317.113 192.458 316.962L156.613 306.726C155.994 306.798 155.387 306.875 154.793 306.958Z" fill="#F7F8F9"/>
</g>
<g opacity="0.3">
<path d="M146.461 308.748L185.295 319.816C185.79 319.692 186.269 319.561 186.729 319.426L147.773 308.36C147.321 308.486 146.883 308.615 146.461 308.748Z" fill="#F7F8F9"/>
</g>
<path d="M144.93 313.974C144.93 314.071 144.939 314.165 144.952 314.26C145.485 317.573 155.157 320.221 166.973 320.221C178.79 320.221 188.461 317.573 188.994 314.26C189.005 314.165 189.016 314.069 189.016 313.974C189.016 310.528 179.128 307.727 166.975 307.727C154.822 307.727 144.93 310.528 144.93 313.974Z" fill="#EA880B"/>
<path d="M144.953 314.26C145.486 317.573 155.157 320.221 166.974 320.221C167.238 320.221 167.5 320.219 167.762 320.217C170.397 320.19 172.917 320.032 175.241 319.766C177.567 319.498 179.694 319.121 181.545 318.657C182.015 318.54 182.469 318.416 182.905 318.288C184.878 317.702 186.459 317.007 187.516 316.239C187.771 316.054 187.994 315.865 188.186 315.673C188.642 315.22 188.916 314.747 188.995 314.26C188.462 310.947 178.79 308.299 166.974 308.299C165.479 308.299 164.018 308.342 162.605 308.423C161.884 308.464 161.175 308.515 160.48 308.576C157.641 308.824 155.044 309.232 152.823 309.762C152.342 309.877 151.879 309.996 151.432 310.122C149.7 310.611 148.252 311.179 147.166 311.808C146.109 312.421 145.396 313.088 145.093 313.791C145.023 313.945 144.978 314.102 144.953 314.26Z" fill="#FFB700"/>
<g opacity="0.2">
<path d="M145.09 313.791L167.759 320.217C170.394 320.19 172.914 320.032 175.237 319.766L147.163 311.808C146.104 312.419 145.39 313.088 145.09 313.791Z" fill="#F7F8F9"/>
</g>
<g opacity="0.2">
<path d="M160.477 308.576L187.513 316.239C187.768 316.054 187.991 315.865 188.183 315.673L162.601 308.423C161.881 308.464 161.172 308.515 160.477 308.576Z" fill="#F7F8F9"/>
</g>
<g opacity="0.2">
<path d="M151.43 310.12L181.546 318.657C182.015 318.54 182.469 318.416 182.905 318.288L152.821 309.76C152.34 309.874 151.875 309.994 151.43 310.12Z" fill="#F7F8F9"/>
</g>
<path d="M163.905 317.519V318.558H168.557V317.566C171.856 317.51 175.056 317.258 177.036 316.913L174.53 315.304C172.353 315.669 169.449 315.903 166.909 315.903C164.698 315.903 163.905 315.772 163.905 315.547C163.905 314.725 176.672 315.387 176.672 312.946C176.672 311.889 173.967 311.001 168.557 310.787V309.769H163.905V310.769C161.464 310.835 159.089 311.013 157.208 311.312L159.549 312.913C161.826 312.586 163.971 312.426 165.983 312.426C168.259 312.426 168.986 312.613 168.986 312.838C168.986 313.625 156.219 312.969 156.219 315.383C156.219 316.388 158.791 317.267 163.905 317.519Z" fill="#EA880B"/>
<path d="M164.042 317.172V318.211H168.694V317.219C171.993 317.163 175.192 316.911 177.173 316.566L174.666 314.957C172.489 315.322 169.586 315.556 167.045 315.556C164.835 315.556 164.042 315.425 164.042 315.2C164.042 314.377 176.809 315.04 176.809 312.599C176.809 311.542 174.104 310.654 168.694 310.44V309.421H164.042V310.422C161.601 310.487 159.225 310.665 157.345 310.965L159.686 312.565C161.962 312.239 164.107 312.079 166.119 312.079C168.396 312.079 169.123 312.266 169.123 312.491C169.123 313.278 156.355 312.622 156.355 315.035C156.355 316.041 158.927 316.92 164.042 317.172Z" fill="#FFDB00"/>
<path d="M145.109 310.886C145.109 310.913 145.109 310.938 145.109 310.963C145.109 311.916 145.62 312.836 146.559 313.69C146.789 313.9 147.045 314.105 147.325 314.305C148.108 314.869 149.081 315.401 150.222 315.894C150.468 316 150.723 316.106 150.987 316.207C151.87 316.554 152.839 316.879 153.884 317.179C154.135 317.251 154.39 317.323 154.65 317.391C155.564 317.636 156.531 317.862 157.547 318.067C157.8 318.119 158.053 318.168 158.312 318.215C159.243 318.391 160.209 318.551 161.207 318.691C161.46 318.727 161.715 318.761 161.973 318.795C162.912 318.916 163.879 319.025 164.868 319.115C165.12 319.137 165.376 319.16 165.633 319.18C166.579 319.257 167.546 319.32 168.53 319.365C168.783 319.376 169.038 319.387 169.296 319.396C170.246 319.432 171.213 319.453 172.193 319.459C172.362 319.459 172.534 319.462 172.705 319.462C172.789 319.462 172.875 319.462 172.958 319.462C173.936 319.459 174.903 319.441 175.855 319.408C176.113 319.399 176.366 319.39 176.621 319.378C177.346 319.347 178.062 319.306 178.766 319.257C179.019 319.239 179.267 319.221 179.516 319.2C179.771 319.18 180.026 319.16 180.281 319.137C181.27 319.052 182.237 318.948 183.176 318.828C183.434 318.797 183.689 318.763 183.942 318.727C184.54 318.644 185.127 318.556 185.703 318.461C186.087 318.398 186.464 318.333 186.836 318.263C187.094 318.215 187.349 318.166 187.602 318.116C188.616 317.916 189.582 317.695 190.499 317.456C190.68 317.409 190.858 317.361 191.036 317.312C191.113 317.291 191.188 317.269 191.265 317.249C191.678 317.134 192.082 317.012 192.473 316.89C193.064 316.703 193.627 316.507 194.162 316.304C194.424 316.203 194.679 316.101 194.927 316C195.905 315.592 196.765 315.155 197.497 314.695C197.61 314.625 197.718 314.553 197.824 314.481C197.958 314.391 198.084 314.301 198.206 314.211C198.339 314.111 198.466 314.01 198.588 313.911C199.692 312.991 200.295 311.997 200.295 310.958C200.295 310.886 200.29 310.812 200.283 310.74L200.281 304.862L198.585 304.86L197.82 304.858L194.923 304.853L194.157 304.851L191.897 304.849H191.26L190.495 304.846L187.597 304.842H186.832L183.937 304.837H183.172L180.277 304.833H179.511L176.614 304.828L175.849 304.826L172.952 304.822L172.188 304.819L169.291 304.815H168.526L165.629 304.81H164.863L161.968 304.806H161.203L158.308 304.801L157.542 304.799L154.645 304.794L153.88 304.792H153.692L150.985 304.788H150.219L147.322 304.783H146.557L145.121 304.788L145.109 310.886Z" fill="#CB94E1"/>
<path d="M197.809 304.865V314.488C197.942 314.398 198.068 314.308 198.19 314.217C198.323 314.118 198.45 314.017 198.572 313.918V304.869L197.809 304.865Z" fill="#EA880B"/>
<path d="M194.148 304.86V316.311C194.41 316.21 194.666 316.108 194.914 316.007V304.862L194.148 304.86Z" fill="#EA880B"/>
<path d="M190.488 304.853V317.463C190.669 317.415 190.847 317.368 191.026 317.318C191.102 317.298 191.177 317.276 191.254 317.255V304.855L190.488 304.853Z" fill="#EA880B"/>
<path d="M186.828 304.849V318.27C187.086 318.222 187.341 318.173 187.594 318.123V304.851L186.828 304.849Z" fill="#EA880B"/>
<path d="M183.164 304.844V318.835C183.421 318.804 183.677 318.77 183.93 318.734V304.844H183.164Z" fill="#EA880B"/>
<path d="M179.504 304.837V319.207C179.759 319.187 180.014 319.167 180.269 319.144V304.84L179.504 304.837Z" fill="#EA880B"/>
<path d="M175.844 304.833V319.414C176.101 319.405 176.354 319.396 176.609 319.385V304.835L175.844 304.833Z" fill="#EA880B"/>
<path d="M172.184 304.826V319.466C172.353 319.466 172.525 319.469 172.696 319.469C172.78 319.469 172.866 319.469 172.949 319.469V304.828L172.184 304.826Z" fill="#EA880B"/>
<path d="M168.523 304.822V319.372C168.776 319.383 169.032 319.394 169.289 319.403V304.822H168.523Z" fill="#EA880B"/>
<path d="M164.863 304.817V319.122C165.116 319.144 165.371 319.167 165.629 319.187V304.817H164.863Z" fill="#EA880B"/>
<path d="M161.203 304.81V318.698C161.456 318.734 161.711 318.768 161.969 318.801V304.81H161.203Z" fill="#EA880B"/>
<path d="M157.543 304.806V318.074C157.796 318.125 158.049 318.175 158.308 318.222V304.808L157.543 304.806Z" fill="#EA880B"/>
<path d="M153.879 304.799V317.183C154.13 317.255 154.385 317.328 154.644 317.395V304.801L153.879 304.799Z" fill="#EA880B"/>
<path d="M150.219 304.794V315.896C150.465 316.002 150.72 316.108 150.984 316.21V304.794H150.219Z" fill="#EA880B"/>
<path d="M146.559 304.79V313.692C146.789 313.902 147.044 314.107 147.324 314.308V304.79H146.559Z" fill="#EA880B"/>
<path d="M145.117 304.862C145.117 309.178 157.462 312.678 172.695 312.678C174.777 312.678 176.803 312.613 178.754 312.489C181.206 312.333 183.534 312.085 185.69 311.759C187.617 311.466 189.403 311.112 191.022 310.704C191.516 310.58 191.995 310.449 192.456 310.314C194.483 309.723 196.184 309.043 197.475 308.297C197.728 308.15 197.965 308.002 198.184 307.851C199.53 306.929 200.273 305.919 200.273 304.862C200.273 304.765 200.266 304.668 200.251 304.571C199.715 300.388 187.583 297.044 172.695 297.044C169.033 297.044 165.535 297.247 162.337 297.614C161.719 297.686 161.113 297.763 160.517 297.846C157.921 298.209 155.554 298.685 153.497 299.25C153.043 299.374 152.605 299.503 152.183 299.636C150.681 300.109 149.38 300.634 148.319 301.202C147.224 301.786 146.384 302.415 145.84 303.077C145.442 303.559 145.203 304.06 145.138 304.571C145.122 304.668 145.117 304.765 145.117 304.862Z" fill="#DAA7EE"/>
<g opacity="0.3">
<path d="M145.84 303.077L178.751 312.491C181.204 312.336 183.532 312.088 185.688 311.761L148.319 301.202C147.226 301.786 146.386 302.415 145.84 303.077Z" fill="#F7F8F9"/>
</g>
<g opacity="0.3">
<path d="M160.516 297.846L197.471 308.297C197.724 308.15 197.961 308.001 198.18 307.85L162.333 297.614C161.717 297.686 161.112 297.763 160.516 297.846Z" fill="#F7F8F9"/>
</g>
<g opacity="0.3">
<path d="M152.184 299.636L191.018 310.704C191.513 310.58 191.991 310.449 192.452 310.314L153.496 299.25C153.044 299.374 152.606 299.503 152.184 299.636Z" fill="#F7F8F9"/>
</g>
<path d="M150.652 304.862C150.652 304.959 150.661 305.054 150.675 305.148C151.208 308.461 160.879 311.109 172.696 311.109C184.512 311.109 194.184 308.461 194.717 305.148C194.728 305.054 194.739 304.957 194.739 304.862C194.739 301.416 184.851 298.615 172.698 298.615C160.54 298.615 150.652 301.416 150.652 304.862Z" fill="#EA880B"/>
<path d="M150.676 305.148C151.209 308.461 160.88 311.109 172.697 311.109C172.961 311.109 173.223 311.107 173.485 311.105C176.12 311.078 178.64 310.92 180.963 310.654C183.289 310.386 185.416 310.01 187.268 309.545C187.738 309.428 188.192 309.304 188.627 309.176C190.601 308.59 192.182 307.896 193.238 307.127C193.494 306.942 193.717 306.753 193.909 306.561C194.365 306.108 194.638 305.635 194.717 305.148C194.184 301.835 184.513 299.187 172.697 299.187C171.202 299.187 169.741 299.23 168.327 299.311C167.607 299.352 166.898 299.404 166.202 299.464C163.364 299.712 160.767 300.12 158.545 300.65C158.066 300.765 157.601 300.884 157.154 301.011C155.422 301.5 153.975 302.068 152.889 302.696C151.832 303.309 151.116 303.976 150.816 304.68C150.746 304.835 150.701 304.991 150.676 305.148Z" fill="#FFB700"/>
<g opacity="0.2">
<path d="M150.812 304.68L173.481 311.105C176.117 311.078 178.637 310.92 180.96 310.654L152.885 302.696C151.829 303.309 151.113 303.976 150.812 304.68Z" fill="#F7F8F9"/>
</g>
<g opacity="0.2">
<path d="M166.199 299.465L193.235 307.127C193.49 306.942 193.714 306.753 193.906 306.562L168.324 299.311C167.606 299.352 166.895 299.404 166.199 299.465Z" fill="#F7F8F9"/>
</g>
<g opacity="0.2">
<path d="M157.152 301.01L187.268 309.548C187.738 309.43 188.192 309.306 188.628 309.178L158.543 300.65C158.062 300.763 157.599 300.884 157.152 301.01Z" fill="#F7F8F9"/>
</g>
<path d="M169.628 308.407V309.446H174.28V308.454C177.579 308.398 180.778 308.146 182.759 307.801L180.252 306.192C178.075 306.557 175.172 306.791 172.631 306.791C170.421 306.791 169.628 306.66 169.628 306.435C169.628 305.612 182.395 306.277 182.395 303.837C182.395 302.78 179.69 301.892 174.28 301.675V300.656H169.628V301.657C167.187 301.723 164.811 301.901 162.93 302.2L165.272 303.8C167.548 303.474 169.693 303.314 171.705 303.314C173.981 303.314 174.709 303.501 174.709 303.726C174.709 304.513 161.941 303.857 161.941 306.271C161.941 307.276 164.516 308.155 169.628 308.407Z" fill="#EA880B"/>
<path d="M169.765 308.062V309.101H174.416V308.11C177.715 308.053 180.915 307.801 182.895 307.456L180.389 305.847C178.212 306.212 175.308 306.446 172.768 306.446C170.557 306.446 169.765 306.316 169.765 306.09C169.765 305.268 182.532 305.93 182.532 303.49C182.532 302.433 179.827 301.545 174.416 301.33V300.312H169.765V301.312C167.324 301.378 164.948 301.556 163.067 301.856L165.409 303.456C167.685 303.129 169.83 302.969 171.842 302.969C174.118 302.969 174.845 303.156 174.845 303.381C174.845 304.168 162.078 303.512 162.078 305.926C162.078 306.929 164.652 307.81 169.765 308.062Z" fill="#FFDB00"/>
<path d="M143.121 301.245C143.121 301.272 143.121 301.297 143.121 301.321C143.121 302.275 143.631 303.194 144.571 304.048C144.801 304.258 145.056 304.463 145.336 304.664C146.12 305.227 147.093 305.759 148.233 306.253C148.48 306.358 148.735 306.464 148.999 306.566C149.882 306.913 150.851 307.237 151.896 307.539C152.147 307.612 152.402 307.684 152.661 307.751C153.576 307.997 154.542 308.222 155.559 308.427C155.812 308.479 156.064 308.529 156.324 308.576C157.254 308.752 158.221 308.912 159.219 309.052C159.472 309.088 159.727 309.122 159.984 309.155C160.924 309.277 161.89 309.385 162.879 309.475C163.132 309.498 163.387 309.52 163.645 309.541C164.591 309.617 165.557 309.68 166.54 309.726C166.793 309.737 167.048 309.748 167.305 309.757C168.256 309.793 169.222 309.813 170.202 309.82C170.372 309.82 170.543 309.822 170.715 309.822C170.798 309.822 170.884 309.822 170.968 309.822C171.946 309.82 172.912 309.802 173.865 309.768C174.122 309.759 174.375 309.75 174.63 309.739C175.355 309.708 176.071 309.667 176.776 309.617C177.028 309.599 177.277 309.581 177.525 309.561C177.78 309.541 178.036 309.52 178.291 309.498C179.28 309.412 180.246 309.309 181.186 309.189C181.443 309.158 181.698 309.124 181.951 309.088C182.549 309.004 183.137 308.916 183.712 308.822C184.096 308.759 184.473 308.693 184.846 308.623C185.103 308.576 185.359 308.527 185.611 308.477C186.625 308.276 187.592 308.056 188.509 307.817C188.689 307.769 188.868 307.722 189.046 307.672C189.123 307.652 189.197 307.63 189.274 307.609C189.687 307.494 190.091 307.373 190.482 307.249C191.074 307.062 191.636 306.866 192.171 306.663C192.433 306.561 192.688 306.46 192.937 306.358C193.914 305.951 194.775 305.513 195.506 305.054C195.619 304.984 195.728 304.912 195.834 304.839C195.967 304.749 196.093 304.659 196.215 304.569C196.349 304.47 196.475 304.368 196.597 304.269C197.701 303.35 198.304 302.356 198.304 301.317C198.304 301.245 198.3 301.17 198.293 301.098L198.291 295.221L196.595 295.218L195.829 295.216L192.934 295.212L192.169 295.209L189.909 295.207H189.272L188.506 295.205L185.609 295.2H184.844L181.949 295.196H181.183L178.288 295.191H177.523L174.628 295.187L173.863 295.184L170.966 295.18L170.202 295.178L167.305 295.173H166.54L163.645 295.169H162.879L159.984 295.164H159.219L156.324 295.16L155.559 295.157L152.661 295.153L151.896 295.151H151.709L149.001 295.146H148.236L145.339 295.142H144.573L143.132 295.139L143.121 301.245Z" fill="#DAA7EE"/>
<path d="M195.82 295.223V304.846C195.954 304.756 196.08 304.666 196.202 304.576C196.335 304.477 196.462 304.375 196.584 304.276V295.227L195.82 295.223Z" fill="#EA880B"/>
<path d="M192.16 295.216V306.667C192.422 306.566 192.677 306.464 192.926 306.363V295.218L192.16 295.216Z" fill="#EA880B"/>
<path d="M188.5 295.212V307.821C188.681 307.774 188.859 307.727 189.037 307.677C189.114 307.657 189.189 307.634 189.265 307.614V295.212H188.5Z" fill="#EA880B"/>
<path d="M184.84 295.207V308.628C185.097 308.581 185.352 308.531 185.605 308.482V295.209L184.84 295.207Z" fill="#EA880B"/>
<path d="M181.18 295.2V309.192C181.437 309.16 181.692 309.126 181.945 309.09V295.2H181.18Z" fill="#EA880B"/>
<path d="M177.516 295.196V309.566C177.771 309.545 178.026 309.525 178.281 309.502V295.198L177.516 295.196Z" fill="#EA880B"/>
<path d="M173.855 295.189V309.771C174.113 309.762 174.366 309.753 174.621 309.741V295.191L173.855 295.189Z" fill="#EA880B"/>
<path d="M170.195 295.185V309.825C170.365 309.825 170.536 309.827 170.708 309.827C170.791 309.827 170.877 309.827 170.961 309.827V295.187L170.195 295.185Z" fill="#EA880B"/>
<path d="M166.535 295.18V309.73C166.788 309.741 167.043 309.753 167.301 309.762V295.18H166.535Z" fill="#EA880B"/>
<path d="M162.875 295.173V309.478C163.128 309.5 163.383 309.523 163.64 309.543V295.173H162.875Z" fill="#EA880B"/>
<path d="M159.215 295.169V309.056C159.468 309.092 159.723 309.126 159.98 309.16V295.169H159.215Z" fill="#EA880B"/>
<path d="M155.555 295.162V308.43C155.808 308.482 156.06 308.531 156.32 308.579V295.164L155.555 295.162Z" fill="#EA880B"/>
<path d="M151.891 295.157V307.542C152.141 307.614 152.396 307.686 152.656 307.754V295.16L151.891 295.157Z" fill="#EA880B"/>
<path d="M148.23 295.153V306.255C148.477 306.361 148.732 306.467 148.996 306.568V295.153H148.23Z" fill="#EA880B"/>
<path d="M144.57 295.146V304.048C144.801 304.258 145.056 304.463 145.336 304.664V295.146H144.57Z" fill="#EA880B"/>
<path d="M143.129 295.218C143.129 299.534 155.474 303.034 170.707 303.034C172.789 303.034 174.814 302.969 176.765 302.845C179.218 302.689 181.546 302.442 183.702 302.115C185.628 301.822 187.414 301.468 189.033 301.06C189.528 300.936 190.007 300.805 190.467 300.67C192.495 300.08 194.195 299.399 195.487 298.653C195.74 298.507 195.977 298.358 196.196 298.207C197.542 297.285 198.285 296.275 198.285 295.218C198.285 295.121 198.278 295.025 198.262 294.928C197.727 290.745 185.594 287.4 170.707 287.4C167.044 287.4 163.546 287.603 160.349 287.97C159.73 288.042 159.125 288.119 158.529 288.202C155.932 288.565 153.566 289.041 151.509 289.607C151.055 289.731 150.617 289.859 150.194 289.992C148.693 290.465 147.392 290.99 146.331 291.558C145.236 292.142 144.396 292.771 143.851 293.433C143.454 293.916 143.215 294.416 143.149 294.93C143.133 295.025 143.129 295.121 143.129 295.218Z" fill="#DAA7EE"/>
<g opacity="0.3">
<path d="M143.852 293.433L176.763 302.847C179.215 302.692 181.543 302.444 183.7 302.117L146.333 291.558C145.238 292.144 144.398 292.773 143.852 293.433Z" fill="#F7F8F9"/>
</g>
<g opacity="0.3">
<path d="M158.527 288.203L195.483 298.653C195.736 298.507 195.973 298.358 196.192 298.207L160.345 287.97C159.729 288.043 159.123 288.119 158.527 288.203Z" fill="#F7F8F9"/>
</g>
<g opacity="0.3">
<path d="M150.195 289.994L189.03 301.062C189.524 300.938 190.003 300.807 190.464 300.672L151.507 289.606C151.056 289.73 150.618 289.861 150.195 289.994Z" fill="#F7F8F9"/>
</g>
<path d="M148.664 295.218C148.664 295.315 148.673 295.41 148.687 295.505C149.22 298.817 158.891 301.466 170.707 301.466C182.524 301.466 192.195 298.817 192.728 295.505C192.74 295.41 192.751 295.313 192.751 295.218C192.751 291.772 182.863 288.971 170.71 288.971C158.552 288.971 148.664 291.775 148.664 295.218Z" fill="#EA880B"/>
<path d="M148.688 295.507C149.22 298.82 158.892 301.468 170.708 301.468C170.973 301.468 171.234 301.466 171.496 301.463C174.132 301.436 176.652 301.279 178.975 301.013C181.301 300.744 183.428 300.368 185.28 299.904C185.749 299.787 186.203 299.663 186.639 299.534C188.613 298.948 190.193 298.254 191.25 297.486C191.505 297.301 191.729 297.111 191.921 296.92C192.377 296.467 192.65 295.994 192.729 295.507C192.196 292.194 182.525 289.546 170.708 289.546C169.213 289.546 167.752 289.588 166.339 289.67C165.619 289.71 164.91 289.762 164.214 289.823C161.376 290.071 158.779 290.479 156.557 291.008C156.078 291.123 155.613 291.243 155.166 291.369C153.434 291.858 151.987 292.426 150.9 293.055C149.844 293.668 149.128 294.335 148.828 295.038C148.758 295.191 148.712 295.349 148.688 295.507Z" fill="#FFB700"/>
<g opacity="0.2">
<path d="M148.824 295.038L171.493 301.463C174.128 301.436 176.648 301.279 178.972 301.013L150.897 293.052C149.84 293.666 149.125 294.333 148.824 295.038Z" fill="#F7F8F9"/>
</g>
<g opacity="0.2">
<path d="M164.211 289.821L191.247 297.483C191.502 297.299 191.726 297.109 191.918 296.918L166.336 289.667C165.618 289.708 164.906 289.76 164.211 289.821Z" fill="#F7F8F9"/>
</g>
<g opacity="0.2">
<path d="M155.164 291.367L185.28 299.904C185.75 299.787 186.204 299.663 186.639 299.534L156.555 291.006C156.074 291.121 155.611 291.24 155.164 291.367Z" fill="#F7F8F9"/>
</g>
<path d="M167.64 298.764V299.802H172.291V298.811C175.59 298.754 178.79 298.502 180.77 298.157L178.264 296.548C176.087 296.913 173.183 297.148 170.643 297.148C168.432 297.148 167.64 297.017 167.64 296.792C167.64 295.969 180.407 296.631 180.407 294.193C180.407 293.136 177.702 292.248 172.291 292.032V291.013H167.64V292.014C165.199 292.079 162.823 292.257 160.942 292.557L163.284 294.157C165.56 293.83 167.705 293.67 169.717 293.67C171.993 293.67 172.72 293.857 172.72 294.083C172.72 294.869 159.953 294.213 159.953 296.627C159.953 297.632 162.527 298.511 167.64 298.764Z" fill="#EA880B"/>
<path d="M167.776 298.419V299.458H172.428V298.466C175.727 298.41 178.927 298.157 180.907 297.812L178.401 296.203C176.224 296.568 173.32 296.803 170.78 296.803C168.569 296.803 167.776 296.672 167.776 296.447C167.776 295.624 180.544 296.287 180.544 293.846C180.544 292.789 177.838 291.901 172.428 291.684V290.666H167.776V291.666C165.335 291.732 162.96 291.91 161.079 292.21L163.421 293.81C165.697 293.483 167.842 293.323 169.854 293.323C172.13 293.323 172.857 293.51 172.857 293.735C172.857 294.522 160.09 293.866 160.09 296.28C160.09 297.287 162.664 298.166 167.776 298.419Z" fill="#FFDB00"/>
<path d="M136.832 291.601C136.832 291.628 136.832 291.653 136.832 291.678C136.832 292.631 137.342 293.551 138.282 294.405C138.512 294.614 138.767 294.82 139.047 295.02C139.831 295.584 140.804 296.115 141.944 296.609C142.19 296.715 142.446 296.821 142.71 296.922C143.593 297.269 144.561 297.594 145.607 297.894C145.858 297.966 146.113 298.038 146.372 298.105C147.287 298.351 148.253 298.576 149.27 298.782C149.522 298.833 149.775 298.883 150.035 298.93C150.965 299.106 151.932 299.266 152.93 299.406C153.183 299.442 153.438 299.476 153.695 299.51C154.635 299.631 155.601 299.739 156.59 299.83C156.843 299.852 157.098 299.875 157.356 299.895C158.302 299.972 159.268 300.035 160.253 300.08C160.506 300.091 160.761 300.102 161.018 300.111C161.969 300.147 162.935 300.168 163.915 300.174C164.085 300.174 164.256 300.177 164.428 300.177C164.512 300.177 164.597 300.177 164.681 300.177C165.659 300.174 166.625 300.156 167.578 300.123C167.835 300.114 168.088 300.105 168.344 300.093C169.068 300.062 169.784 300.021 170.489 299.972C170.742 299.954 170.99 299.935 171.238 299.915C171.494 299.895 171.749 299.875 172.004 299.852C172.993 299.766 173.959 299.663 174.899 299.543C175.156 299.512 175.411 299.478 175.664 299.442C176.263 299.359 176.85 299.271 177.426 299.176C177.809 299.113 178.187 299.048 178.559 298.978C178.817 298.93 179.072 298.881 179.325 298.831C180.338 298.631 181.305 298.41 182.222 298.171C182.402 298.123 182.581 298.076 182.759 298.027C182.836 298.006 182.91 297.984 182.987 297.963C183.4 297.849 183.805 297.727 184.195 297.603C184.787 297.416 185.349 297.22 185.884 297.017C186.146 296.915 186.401 296.814 186.65 296.713C187.628 296.305 188.488 295.868 189.22 295.408C189.332 295.338 189.441 295.266 189.547 295.194C189.68 295.103 189.807 295.013 189.929 294.923C190.062 294.824 190.188 294.723 190.31 294.623C191.414 293.704 192.017 292.71 192.017 291.673C192.017 291.601 192.013 291.527 192.006 291.455L192.004 285.577L190.308 285.575L189.542 285.572L186.645 285.568L185.88 285.566L183.619 285.563H182.983L182.217 285.561L179.32 285.557H178.555L175.66 285.552H174.894L171.999 285.548H171.234L168.339 285.543L167.574 285.541L164.676 285.536L163.911 285.534L161.014 285.53H160.248L157.351 285.525H156.586L153.691 285.521H152.925L150.031 285.516L149.265 285.514L146.368 285.509L145.602 285.507H145.413L142.705 285.503H141.94L139.043 285.498H138.277L136.837 285.496L136.832 291.601Z" fill="#DAA7EE"/>
<path d="M189.531 285.579V295.203C189.664 295.113 189.791 295.022 189.913 294.932C190.046 294.833 190.173 294.732 190.294 294.633V285.584L189.531 285.579Z" fill="#EA880B"/>
<path d="M185.871 285.575V297.026C186.133 296.924 186.388 296.823 186.637 296.722V285.577L185.871 285.575Z" fill="#EA880B"/>
<path d="M182.211 285.568V298.177C182.392 298.13 182.57 298.083 182.748 298.033C182.825 298.013 182.9 297.99 182.976 297.97V285.568H182.211Z" fill="#EA880B"/>
<path d="M178.551 285.563V298.984C178.808 298.937 179.063 298.888 179.316 298.838V285.563H178.551Z" fill="#EA880B"/>
<path d="M174.891 285.559V299.55C175.148 299.519 175.403 299.485 175.656 299.449V285.559H174.891Z" fill="#EA880B"/>
<path d="M171.23 285.552V299.922C171.486 299.902 171.741 299.881 171.996 299.859V285.554L171.23 285.552Z" fill="#EA880B"/>
<path d="M167.566 285.548V300.129C167.824 300.12 168.077 300.111 168.332 300.1V285.55L167.566 285.548Z" fill="#EA880B"/>
<path d="M163.906 285.541V300.181C164.076 300.181 164.247 300.184 164.419 300.184C164.502 300.184 164.588 300.184 164.672 300.184V285.543L163.906 285.541Z" fill="#EA880B"/>
<path d="M160.246 285.536V300.086C160.499 300.098 160.754 300.109 161.012 300.118V285.536H160.246Z" fill="#EA880B"/>
<path d="M156.586 285.532V299.836C156.839 299.859 157.094 299.881 157.351 299.902V285.532H156.586Z" fill="#EA880B"/>
<path d="M152.926 285.525V299.413C153.179 299.449 153.434 299.482 153.691 299.516V285.525H152.926Z" fill="#EA880B"/>
<path d="M149.266 285.521V298.788C149.519 298.84 149.771 298.89 150.031 298.937V285.523L149.266 285.521Z" fill="#EA880B"/>
<path d="M145.602 285.514V297.898C145.852 297.97 146.107 298.042 146.367 298.11V285.516L145.602 285.514Z" fill="#EA880B"/>
<path d="M141.941 285.509V296.611C142.188 296.717 142.443 296.823 142.707 296.924V285.509H141.941Z" fill="#EA880B"/>
<path d="M138.281 285.505V294.407C138.512 294.617 138.767 294.822 139.047 295.022V285.505H138.281Z" fill="#EA880B"/>
<path d="M136.84 285.577C136.84 289.893 149.185 293.393 164.418 293.393C166.5 293.393 168.525 293.328 170.476 293.204C172.929 293.048 175.257 292.8 177.413 292.473C179.339 292.18 181.128 291.827 182.744 291.419C183.239 291.295 183.718 291.164 184.178 291.029C186.206 290.438 187.906 289.758 189.198 289.012C189.451 288.865 189.688 288.716 189.907 288.565C191.253 287.644 191.996 286.634 191.996 285.577C191.996 285.48 191.989 285.383 191.973 285.286C191.438 281.103 179.305 277.759 164.418 277.759C160.755 277.759 157.257 277.962 154.06 278.329C153.441 278.401 152.836 278.478 152.24 278.561C149.643 278.924 147.277 279.399 145.22 279.965C144.766 280.089 144.328 280.218 143.905 280.351C142.404 280.824 141.103 281.349 140.042 281.917C138.947 282.501 138.107 283.129 137.562 283.792C137.165 284.274 136.926 284.775 136.86 285.288C136.847 285.383 136.84 285.48 136.84 285.577Z" fill="#DAA7EE"/>
<g opacity="0.3">
<path d="M137.562 283.79L170.474 293.204C172.926 293.048 175.254 292.8 177.411 292.473L140.044 281.917C138.949 282.501 138.109 283.129 137.562 283.79Z" fill="#F7F8F9"/>
</g>
<g opacity="0.3">
<path d="M152.238 278.561L189.194 289.012C189.447 288.865 189.684 288.716 189.903 288.565L154.058 278.329C153.44 278.401 152.834 278.478 152.238 278.561Z" fill="#F7F8F9"/>
</g>
<g opacity="0.3">
<path d="M143.906 280.351L182.741 291.419C183.235 291.295 183.714 291.164 184.175 291.029L145.218 279.963C144.767 280.089 144.329 280.218 143.906 280.351Z" fill="#F7F8F9"/>
</g>
<path d="M142.375 285.577C142.375 285.674 142.384 285.769 142.398 285.863C142.93 289.176 152.602 291.824 164.418 291.824C176.235 291.824 185.906 289.176 186.439 285.863C186.45 285.769 186.462 285.672 186.462 285.577C186.462 282.131 176.574 279.33 164.421 279.33C152.263 279.33 142.375 282.131 142.375 285.577Z" fill="#EA880B"/>
<path d="M142.398 285.863C142.931 289.176 152.603 291.824 164.419 291.824C164.683 291.824 164.945 291.822 165.207 291.82C167.843 291.793 170.363 291.635 172.686 291.369C175.012 291.101 177.139 290.724 178.991 290.26C179.46 290.143 179.914 290.019 180.35 289.891C182.324 289.305 183.904 288.611 184.961 287.842C185.216 287.657 185.44 287.468 185.632 287.276C186.088 286.823 186.361 286.35 186.44 285.863C185.907 282.55 176.236 279.902 164.419 279.902C162.924 279.902 161.463 279.945 160.05 280.026C159.33 280.067 158.62 280.118 157.925 280.179C155.087 280.427 152.49 280.835 150.268 281.365C149.789 281.48 149.324 281.599 148.877 281.725C147.145 282.214 145.697 282.782 144.611 283.411C143.555 284.024 142.839 284.691 142.538 285.394C142.468 285.548 142.423 285.705 142.398 285.863Z" fill="#FFB700"/>
<g opacity="0.2">
<path d="M142.535 285.394L165.204 291.82C167.839 291.793 170.359 291.635 172.683 291.369L144.608 283.411C143.551 284.024 142.838 284.691 142.535 285.394Z" fill="#F7F8F9"/>
</g>
<g opacity="0.2">
<path d="M157.922 280.179L184.958 287.842C185.213 287.657 185.437 287.468 185.629 287.276L160.047 280.026C159.329 280.067 158.617 280.119 157.922 280.179Z" fill="#F7F8F9"/>
</g>
<g opacity="0.2">
<path d="M148.875 281.725L178.991 290.263C179.461 290.145 179.915 290.021 180.35 289.893L150.266 281.363C149.785 281.477 149.322 281.597 148.875 281.725Z" fill="#F7F8F9"/>
</g>
<path d="M161.351 289.122V290.161H166.002V289.169C169.301 289.113 172.501 288.861 174.481 288.516L171.975 286.907C169.798 287.272 166.894 287.506 164.354 287.506C162.143 287.506 161.351 287.376 161.351 287.15C161.351 286.328 174.118 286.99 174.118 284.552C174.118 283.495 171.413 282.607 166.002 282.39V281.372H161.351V282.372C158.91 282.438 156.534 282.616 154.653 282.915L156.995 284.516C159.271 284.189 161.416 284.029 163.428 284.029C165.704 284.029 166.431 284.216 166.431 284.441C166.431 285.228 153.664 284.572 153.664 286.986C153.664 287.991 156.238 288.87 161.351 289.122Z" fill="#EA880B"/>
<path d="M161.487 288.775V289.814H166.139V288.822C169.438 288.766 172.638 288.514 174.618 288.169L172.112 286.56C169.935 286.925 167.031 287.159 164.491 287.159C162.28 287.159 161.487 287.028 161.487 286.803C161.487 285.98 174.254 286.643 174.254 284.202C174.254 283.145 171.549 282.257 166.139 282.041V281.022H161.487V282.023C159.046 282.088 156.671 282.266 154.79 282.566L157.131 284.166C159.408 283.839 161.553 283.679 163.565 283.679C165.841 283.679 166.568 283.866 166.568 284.092C166.568 284.878 153.801 284.223 153.801 286.636C153.801 287.644 156.375 288.523 161.487 288.775Z" fill="#FFDB00"/>
<path d="M192.52 302.218C188.01 315.887 195.458 330.618 209.155 335.118C211.027 335.734 212.917 336.126 214.8 336.308C217.167 336.541 219.52 336.441 221.8 336.042C223.837 335.686 225.815 335.091 227.696 334.278C228.272 334.03 228.836 333.759 229.392 333.471C231.833 332.202 234.073 330.55 236.015 328.565C236.394 328.177 236.762 327.778 237.117 327.366C239.289 324.848 241.012 321.869 242.119 318.517C242.22 318.211 242.315 317.902 242.401 317.591C246.289 304.191 238.871 290.015 225.483 285.618C222.189 284.536 218.833 284.144 215.573 284.362C214.943 284.405 214.317 284.47 213.696 284.558C210.982 284.939 208.358 285.746 205.917 286.929C205.38 287.191 204.851 287.468 204.332 287.765C202.487 288.82 200.769 290.1 199.222 291.581C197.628 293.109 196.214 294.851 195.035 296.782C194.173 298.193 193.437 299.706 192.843 301.31C192.725 301.608 192.619 301.912 192.52 302.218Z" fill="#DAA7EE"/>
<g opacity="0.2">
<path d="M195.035 296.778L214.8 336.308C217.167 336.541 219.52 336.441 221.8 336.043L199.222 291.576C197.627 293.104 196.214 294.847 195.035 296.778Z" fill="#F7F8F9"/>
</g>
<g opacity="0.2">
<path d="M213.695 284.554L236.014 328.562C236.394 328.175 236.762 327.776 237.116 327.363L215.572 284.36C214.942 284.403 214.316 284.466 213.695 284.554Z" fill="#F7F8F9"/>
</g>
<g opacity="0.2">
<path d="M204.332 287.759L227.694 334.276C228.27 334.028 228.834 333.757 229.39 333.469L205.917 286.925C205.38 287.184 204.851 287.463 204.332 287.759Z" fill="#F7F8F9"/>
</g>
<path d="M197.498 303.855C197.398 304.159 197.306 304.466 197.218 304.77C194.237 315.416 200.169 326.66 210.793 330.151C221.42 333.642 232.884 328.114 236.822 317.783C236.933 317.485 237.041 317.186 237.141 316.881C240.738 305.973 234.774 294.177 223.845 290.585C212.914 286.992 201.095 292.944 197.498 303.855Z" fill="#EA880B"/>
<path d="M197.218 304.767C194.237 315.414 200.169 326.658 210.793 330.149C211.031 330.228 211.268 330.3 211.507 330.368C213.905 331.064 216.335 331.307 218.703 331.147C221.074 330.987 223.38 330.424 225.53 329.502C226.076 329.268 226.611 329.013 227.137 328.734C229.526 327.46 231.672 325.729 233.424 323.606C233.846 323.099 234.246 322.567 234.616 322.015C235.499 320.717 236.237 319.3 236.82 317.781C239.801 307.134 233.871 295.888 223.244 292.397C221.901 291.955 220.542 291.66 219.184 291.498C218.493 291.414 217.803 291.367 217.114 291.356C214.302 291.304 211.543 291.827 208.989 292.845C208.438 293.066 207.896 293.31 207.361 293.578C205.295 294.612 203.398 295.987 201.763 297.657C200.171 299.284 198.832 301.189 197.828 303.327C197.608 303.794 197.405 304.276 197.218 304.767Z" fill="#FFB700"/>
<g opacity="0.2">
<path d="M197.832 303.325L211.507 330.37C213.905 331.066 216.335 331.31 218.703 331.15L201.768 297.655C200.176 299.282 198.837 301.186 197.832 303.325Z" fill="#F7F8F9"/>
</g>
<g opacity="0.2">
<path d="M217.113 291.355L233.423 323.606C233.846 323.099 234.245 322.567 234.616 322.015L219.184 291.495C218.493 291.414 217.802 291.369 217.113 291.355Z" fill="#F7F8F9"/>
</g>
<g opacity="0.2">
<path d="M207.363 293.575L225.53 329.502C226.076 329.268 226.611 329.013 227.137 328.734L208.989 292.843C208.438 293.064 207.896 293.307 207.363 293.575Z" fill="#F7F8F9"/>
</g>
<path d="M210.858 320.686L209.774 323.972L213.958 325.346L214.993 322.207C218.019 323.005 221.16 323.151 223.3 322.64L222.724 316.805C220.385 317.316 217.531 317.199 215.246 316.449C213.258 315.795 212.683 315.146 212.918 314.436C213.778 311.831 224.565 317.706 227.114 309.976C228.218 306.629 226.712 303.019 222.072 300.738L223.135 297.511L218.951 296.136L217.906 299.304C215.641 298.791 213.319 298.651 211.317 299.043L211.752 304.799C214.141 304.436 216.237 304.565 218.046 305.16C220.094 305.831 220.55 306.638 220.315 307.35C219.495 309.838 208.697 303.992 206.177 311.632C205.127 314.83 206.523 318.376 210.858 320.686Z" fill="#EA880B"/>
<path d="M211.34 319.631L210.256 322.917L214.44 324.292L215.475 321.152C218.5 321.95 221.641 322.094 223.782 321.585L223.206 315.75C220.867 316.262 218.013 316.144 215.728 315.394C213.74 314.74 213.165 314.091 213.399 313.381C214.26 310.776 225.047 316.652 227.596 308.921C228.7 305.574 227.194 301.962 222.554 299.683L223.617 296.456L219.433 295.081L218.392 298.252C216.127 297.738 213.806 297.598 211.803 297.991L212.239 303.747C214.628 303.384 216.723 303.512 218.532 304.107C220.58 304.779 221.036 305.586 220.801 306.298C219.982 308.786 209.184 302.94 206.664 310.58C205.609 313.778 207.007 317.321 211.34 319.631Z" fill="#FFDB00"/>
</g>
</g>
<defs>
<clipPath id="clip0_1325_10462">
<rect width="556.76" height="338.36" fill="white"/>
</clipPath>
<clipPath id="clip1_1325_10462">
<rect width="349.167" height="244.144" fill="white" transform="translate(136.832 94.0637)"/>
</clipPath>
</defs>
</svg>
