<svg width="543" height="329" viewBox="0 0 543 329" fill="none" xmlns="http://www.w3.org/2000/svg">
<g clip-path="url(#clip0_1632_4626)">
<path opacity="0.2" d="M127.492 328.58L412.142 311.93C487.412 307.53 545.652 243.73 542.512 168.39C539.872 105.08 517.192 37.64 440.912 8.81999C387.262 -11.45 317.592 5.13999 273.402 38.85C262.782 46.95 253.022 56.24 241.612 63.17C215.022 79.32 191.672 68.17 163.972 63.88C105.412 54.79 46.9621 73.46 16.7021 127.43C-29.7579 210.35 25.0421 334.57 127.492 328.58Z" fill="#999999"/>
<g clip-path="url(#clip1_1632_4626)">
<path d="M427.032 109.15C426.502 108.62 425.792 107.84 425.322 108.25C417.662 115.02 399.132 135.23 402.602 170.22C406.952 214.11 396.902 230.24 384.672 240.14C387.322 240.31 392.342 240.38 397.972 238.5C441.582 223.95 438.392 120.49 427.032 109.15Z" fill="#39B039"/>
<path d="M420.953 122.93C419.883 127.83 418.903 132.75 418.123 137.68C417.313 142.61 416.653 147.56 416.163 152.51C415.693 157.46 415.313 162.42 415.153 167.38C414.973 172.34 415.023 177.29 415.083 182.26C415.113 187.23 415.183 192.24 414.703 197.28C414.233 202.32 413.133 207.4 411.093 212.18C410.583 213.37 410.053 214.56 409.453 215.71C408.873 216.87 408.243 218 407.593 219.13C406.273 221.38 404.803 223.55 403.173 225.61C399.903 229.73 395.983 233.4 391.703 236.51C391.253 236.84 390.623 236.76 390.293 236.35C389.973 235.94 390.063 235.35 390.493 235.02C391.513 234.24 392.523 233.44 393.493 232.61C393.983 232.2 394.463 231.77 394.943 231.35C395.403 230.91 395.893 230.49 396.343 230.04C398.173 228.27 399.873 226.39 401.433 224.4C404.553 220.44 407.093 216.03 409.053 211.47C410.003 209.18 410.783 206.83 411.363 204.44C411.943 202.05 412.343 199.62 412.593 197.17C413.093 192.27 413.073 187.31 413.073 182.34C413.083 177.37 413.133 172.37 413.393 167.37C413.513 164.87 413.683 162.37 413.903 159.88C414.003 158.63 414.133 157.39 414.253 156.14C414.393 154.89 414.533 153.65 414.693 152.4C415.323 147.42 416.103 142.46 417.053 137.53C418.023 132.6 419.133 127.69 420.443 122.82C420.483 122.68 420.623 122.59 420.773 122.62C420.903 122.66 420.983 122.79 420.953 122.93Z" fill="url(#paint0_linear_1632_4626)"/>
<path d="M375.457 242.41C374.137 244.11 371.417 243.41 371.067 241.28C367.277 217.86 353.907 124.52 370.347 62.49C371.517 58.06 377.147 56.71 380.167 60.15C399.287 81.91 446.547 151.07 375.457 242.41Z" fill="#39B039"/>
<path d="M379.639 91.1799C380.549 94.1699 381.259 97.2099 381.899 100.27C382.539 103.33 383.099 106.4 383.579 109.49C384.549 115.66 385.229 121.87 385.719 128.1C386.199 134.33 386.459 140.58 386.539 146.83C386.619 153.08 386.469 159.33 386.199 165.58L385.959 170.26L385.629 174.94L385.459 177.28L385.249 179.62L384.829 184.29C384.159 190.51 383.439 196.72 382.479 202.9C380.619 215.27 378.179 227.56 375.219 239.71C375.049 240.39 374.369 240.81 373.679 240.64C372.999 240.47 372.579 239.79 372.749 239.1C372.749 239.1 372.749 239.08 372.759 239.08C375.899 227.04 378.519 214.86 380.569 202.58C381.629 196.45 382.449 190.27 383.209 184.1L383.709 179.46L383.959 177.14L384.159 174.81L384.559 170.16L384.879 165.5C385.249 159.29 385.499 153.06 385.519 146.83C385.539 140.6 385.379 134.37 384.999 128.15C384.619 121.93 384.039 115.72 383.169 109.55C382.739 106.46 382.229 103.39 381.639 100.33C381.039 97.2699 380.389 94.2199 379.529 91.2299C379.519 91.1999 379.539 91.1599 379.569 91.1499C379.589 91.1199 379.629 91.1399 379.639 91.1799Z" fill="#BDD0FB"/>
<path d="M128.778 310.06C128.778 312.91 131.118 315.25 133.968 315.25H414.828C417.688 315.25 420.018 312.92 420.018 310.06L422.358 148.66C422.358 145.81 418.998 140.23 412.838 140.65L138.348 133.55C134.768 133.46 131.298 134.84 128.758 137.37C126.218 139.9 124.828 143.36 124.918 146.94L128.778 310.06Z" fill="#E527BB"/>
<path d="M133.913 305.08C133.913 307.78 136.123 309.99 138.823 309.99H408.063C410.763 309.99 412.973 307.78 412.973 305.08L415.183 158.56C414.923 149.74 407.193 146.57 402.503 146.76L139.443 139.7C136.923 139.63 134.493 140.6 132.703 142.38C130.923 144.16 129.943 146.59 130.003 149.11L133.913 305.08Z" fill="#DAA7EE"/>
<g opacity="0.63">
<path d="M410.072 235.47H410.062C409.662 235.46 409.342 235.14 409.352 234.74L409.522 222.86C409.532 222.47 409.852 222.15 410.242 222.15H410.252C410.652 222.16 410.972 222.48 410.962 222.88L410.792 234.76C410.782 235.15 410.462 235.47 410.072 235.47Z" fill="white"/>
<path d="M410.504 206.35H410.494C410.094 206.34 409.774 206.02 409.784 205.62L410.454 160.11C410.444 157.41 409.624 155.25 408.014 153.71C405.014 150.84 400.254 150.98 400.054 150.99L315.974 148.74C315.574 148.73 315.264 148.4 315.274 148C315.284 147.6 315.594 147.26 316.014 147.3L400.044 149.55C400.564 149.52 405.634 149.43 409.014 152.67C410.914 154.49 411.884 157 411.894 160.12L411.224 205.65C411.214 206.04 410.894 206.35 410.504 206.35Z" fill="white"/>
</g>
<path d="M106.64 328.64H436.47C436.82 328.64 437.11 328.35 437.11 328V315.11C437.11 314.76 436.82 314.47 436.47 314.47H106.64C106.29 314.47 106 314.76 106 315.11V328C106 328.35 106.29 328.64 106.64 328.64Z" fill="url(#paint1_linear_1632_4626)"/>
<g opacity="0.64">
<path d="M129.2 107.86C128.86 107.82 128.57 107.55 128.51 107.19C128.44 106.76 128.38 106.33 128.32 105.9C128.26 105.46 128.57 105.06 129.01 105.01C129.44 104.95 129.85 105.26 129.9 105.7C129.95 106.11 130.01 106.53 130.08 106.94C130.15 107.38 129.85 107.78 129.42 107.85C129.35 107.87 129.28 107.87 129.2 107.86Z" fill="#91B3FA"/>
<path d="M128.669 102.38C128.289 102.33 127.989 102.01 127.969 101.62C127.939 100.74 127.939 99.85 127.959 98.97C127.969 98.53 128.339 98.18 128.779 98.19C129.219 98.2 129.569 98.57 129.559 99.01C129.539 99.86 129.539 100.72 129.569 101.57C129.579 102.01 129.239 102.38 128.799 102.4C128.759 102.38 128.709 102.38 128.669 102.38ZM128.969 95.54C128.539 95.48 128.229 95.09 128.279 94.65L128.319 94.36C128.419 93.59 128.539 92.8 128.679 92.02C128.759 91.59 129.169 91.29 129.609 91.38C130.039 91.46 130.329 91.87 130.249 92.31C130.119 93.06 129.999 93.82 129.899 94.57L129.869 94.85C129.809 95.29 129.409 95.6 128.969 95.54ZM130.299 88.84C130.259 88.84 130.219 88.83 130.189 88.82C129.769 88.7 129.519 88.26 129.639 87.84C129.879 86.99 130.139 86.14 130.429 85.31C130.569 84.89 131.029 84.67 131.439 84.81C131.859 84.95 132.079 85.41 131.939 85.82C131.659 86.62 131.409 87.44 131.179 88.26C131.059 88.65 130.689 88.89 130.299 88.84ZM132.639 82.42C132.559 82.41 132.489 82.39 132.409 82.35C132.009 82.17 131.829 81.69 132.009 81.29C132.369 80.49 132.769 79.69 133.179 78.91C133.389 78.52 133.869 78.37 134.259 78.58C134.649 78.79 134.799 79.27 134.589 79.66C134.189 80.41 133.809 81.19 133.459 81.96C133.319 82.28 132.979 82.46 132.639 82.42ZM135.939 76.43C135.819 76.42 135.709 76.37 135.599 76.31C135.229 76.07 135.129 75.57 135.369 75.2C135.849 74.46 136.369 73.73 136.889 73.02C137.149 72.67 137.649 72.59 138.009 72.86C138.359 73.12 138.439 73.62 138.169 73.98C137.659 74.66 137.169 75.37 136.699 76.08C136.529 76.34 136.229 76.47 135.939 76.43ZM140.119 71.02C139.959 71 139.809 70.93 139.689 70.82C139.359 70.52 139.339 70.02 139.629 69.69C140.219 69.04 140.839 68.39 141.469 67.78C141.779 67.47 142.289 67.48 142.599 67.79C142.909 68.1 142.899 68.61 142.589 68.92C141.979 69.51 141.389 70.14 140.819 70.77C140.629 70.97 140.369 71.05 140.119 71.02ZM145.089 66.32C144.889 66.29 144.709 66.2 144.569 66.03C144.289 65.69 144.339 65.18 144.689 64.91C145.369 64.35 146.079 63.81 146.799 63.3C147.159 63.04 147.659 63.13 147.909 63.48C148.169 63.84 148.089 64.34 147.729 64.59C147.039 65.08 146.359 65.61 145.689 66.14C145.519 66.29 145.299 66.35 145.089 66.32ZM150.719 62.43C150.479 62.4 150.259 62.26 150.129 62.04C149.909 61.66 150.039 61.17 150.419 60.95C151.179 60.51 151.959 60.08 152.749 59.68C153.139 59.48 153.619 59.64 153.819 60.03C154.019 60.42 153.859 60.9 153.469 61.1C152.709 61.48 151.959 61.9 151.219 62.32C151.059 62.42 150.879 62.45 150.719 62.43ZM156.869 59.45C156.589 59.41 156.339 59.23 156.229 58.95C156.069 58.54 156.269 58.08 156.679 57.92C157.499 57.6 158.339 57.3 159.169 57.02C159.589 56.88 160.039 57.11 160.179 57.53C160.319 57.95 160.089 58.4 159.669 58.54C158.859 58.8 158.049 59.1 157.259 59.41C157.129 59.45 156.989 59.47 156.869 59.45ZM198.499 64.36C198.379 64.34 198.249 64.3 198.139 64.22C197.439 63.73 196.719 63.26 195.999 62.82C195.619 62.59 195.509 62.1 195.739 61.72C195.969 61.34 196.459 61.23 196.839 61.46C197.589 61.92 198.339 62.41 199.059 62.91C199.419 63.16 199.509 63.66 199.259 64.02C199.089 64.27 198.789 64.39 198.499 64.36ZM163.399 57.45C163.079 57.41 162.799 57.17 162.719 56.83C162.619 56.4 162.889 55.97 163.319 55.88C164.179 55.69 165.049 55.52 165.919 55.38C166.349 55.31 166.769 55.6 166.839 56.04C166.909 56.48 166.619 56.89 166.179 56.96C165.339 57.1 164.499 57.26 163.669 57.44C163.579 57.45 163.489 57.46 163.399 57.45ZM192.609 60.89C192.529 60.88 192.439 60.85 192.359 60.82C191.599 60.45 190.809 60.09 190.029 59.77C189.619 59.6 189.429 59.13 189.599 58.73C189.769 58.32 190.229 58.13 190.639 58.3C191.449 58.64 192.269 59.01 193.059 59.39C193.459 59.58 193.619 60.06 193.429 60.46C193.279 60.76 192.939 60.93 192.609 60.89ZM170.159 56.47C169.789 56.42 169.489 56.12 169.469 55.73C169.439 55.29 169.769 54.91 170.209 54.88C171.089 54.82 171.979 54.79 172.859 54.78C173.299 54.78 173.659 55.13 173.659 55.57C173.659 56.01 173.309 56.37 172.869 56.37C172.019 56.38 171.159 56.41 170.309 56.46C170.259 56.48 170.209 56.48 170.159 56.47ZM186.249 58.38C186.199 58.37 186.159 58.36 186.109 58.35C185.299 58.1 184.469 57.87 183.639 57.67C183.209 57.56 182.949 57.13 183.059 56.7C183.169 56.27 183.599 56.01 184.029 56.12C184.889 56.33 185.749 56.57 186.589 56.83C187.009 56.96 187.249 57.41 187.119 57.83C186.999 58.2 186.629 58.43 186.249 58.38ZM176.989 56.56C176.569 56.51 176.259 56.13 176.299 55.7C176.339 55.26 176.729 54.94 177.169 54.98C178.039 55.06 178.929 55.16 179.799 55.29C180.239 55.35 180.539 55.76 180.469 56.2C180.409 56.64 179.989 56.94 179.559 56.87C178.709 56.74 177.859 56.64 177.019 56.57C177.009 56.56 176.999 56.56 176.989 56.56Z" fill="#91B3FA"/>
<path d="M202.841 67.81C202.681 67.79 202.531 67.72 202.411 67.61C202.101 67.33 201.791 67.06 201.471 66.78C201.131 66.49 201.091 65.99 201.381 65.65C201.671 65.31 202.171 65.27 202.511 65.56C202.841 65.84 203.171 66.13 203.491 66.42C203.821 66.72 203.841 67.22 203.551 67.55C203.351 67.75 203.091 67.84 202.841 67.81Z" fill="#91B3FA"/>
</g>
<g opacity="0.64">
<path d="M217.498 98.8001C217.118 98.7501 216.818 98.4401 216.798 98.0401C216.778 97.6201 216.758 97.2001 216.728 96.7901C216.698 96.3501 217.028 95.9701 217.468 95.9401C217.908 95.9101 218.288 96.2401 218.318 96.6801C218.348 97.1101 218.378 97.5401 218.398 97.9801C218.418 98.4201 218.078 98.7901 217.638 98.8101C217.588 98.8101 217.538 98.8101 217.498 98.8001Z" fill="#91B3FA"/>
<path d="M166.704 144.81H166.694C165.934 144.7 165.154 144.57 164.404 144.42L164.124 144.36C163.694 144.27 163.414 143.85 163.504 143.42C163.594 142.99 164.024 142.71 164.444 142.8L164.714 142.85C165.444 143 166.194 143.12 166.924 143.23C167.364 143.29 167.664 143.7 167.594 144.14C167.534 144.56 167.134 144.86 166.704 144.81ZM170.854 145.22C170.444 145.17 170.134 144.81 170.154 144.39C170.174 143.95 170.554 143.61 170.994 143.63C171.834 143.67 172.674 143.69 173.514 143.69C173.954 143.69 174.314 144.04 174.314 144.48C174.314 144.92 173.964 145.28 173.524 145.28C172.654 145.29 171.784 145.27 170.914 145.22C170.894 145.22 170.874 145.22 170.854 145.22ZM160.134 143.34C160.094 143.33 160.044 143.33 160.004 143.31C159.174 143.06 158.334 142.78 157.524 142.48C157.114 142.33 156.894 141.87 157.054 141.46C157.204 141.05 157.664 140.83 158.074 140.99C158.854 141.28 159.664 141.55 160.464 141.79C160.884 141.92 161.124 142.36 160.994 142.79C160.884 143.16 160.514 143.39 160.134 143.34ZM177.574 145.05C177.214 145 176.924 144.72 176.884 144.34C176.844 143.9 177.164 143.51 177.594 143.47C178.424 143.39 179.264 143.28 180.094 143.14C180.524 143.07 180.934 143.37 181.004 143.8C181.074 144.24 180.774 144.64 180.344 144.71C179.484 144.85 178.614 144.96 177.754 145.05C177.694 145.06 177.634 145.06 177.574 145.05ZM153.864 140.9C153.784 140.89 153.704 140.87 153.624 140.83C152.844 140.46 152.064 140.05 151.304 139.63C150.914 139.42 150.774 138.93 150.994 138.55C151.204 138.16 151.694 138.02 152.074 138.24C152.804 138.64 153.554 139.03 154.314 139.39C154.714 139.58 154.884 140.06 154.694 140.45C154.534 140.78 154.194 140.95 153.864 140.9ZM184.194 143.87C183.884 143.83 183.604 143.6 183.524 143.28C183.414 142.85 183.674 142.42 184.094 142.31C184.904 142.1 185.714 141.87 186.514 141.61C186.934 141.48 187.384 141.71 187.514 142.13C187.644 142.55 187.414 143 186.994 143.13C186.174 143.4 185.324 143.64 184.494 143.86C184.394 143.87 184.294 143.88 184.194 143.87ZM148.034 137.54C147.914 137.52 147.794 137.48 147.684 137.41C146.964 136.92 146.254 136.4 145.574 135.87C145.224 135.6 145.164 135.1 145.434 134.75C145.704 134.4 146.204 134.34 146.554 134.61C147.214 135.12 147.904 135.62 148.594 136.09C148.954 136.34 149.054 136.84 148.804 137.2C148.614 137.46 148.324 137.58 148.034 137.54ZM190.564 141.69C190.294 141.66 190.044 141.48 189.934 141.21C189.764 140.8 189.944 140.34 190.354 140.16C191.124 139.83 191.894 139.47 192.634 139.1C193.024 138.9 193.504 139.06 193.704 139.46C193.904 139.85 193.744 140.33 193.344 140.53C192.574 140.92 191.774 141.28 190.974 141.63C190.844 141.69 190.694 141.71 190.564 141.69ZM196.524 138.58C196.294 138.55 196.074 138.42 195.944 138.21C195.714 137.84 195.824 137.34 196.204 137.11C196.914 136.67 197.624 136.2 198.304 135.72C198.664 135.47 199.164 135.55 199.414 135.91C199.664 136.27 199.584 136.77 199.224 137.02C198.514 137.52 197.784 138 197.044 138.46C196.884 138.57 196.704 138.6 196.524 138.58ZM201.954 134.61C201.764 134.59 201.584 134.49 201.444 134.34C201.154 134 201.194 133.5 201.534 133.21C202.174 132.67 202.794 132.1 203.404 131.52C203.724 131.22 204.224 131.23 204.534 131.54C204.834 131.86 204.824 132.36 204.514 132.67C203.884 133.27 203.234 133.86 202.574 134.42C202.394 134.58 202.174 134.64 201.954 134.61ZM206.734 129.87C206.584 129.85 206.434 129.79 206.314 129.68C205.984 129.39 205.944 128.89 206.234 128.55C206.784 127.92 207.314 127.26 207.824 126.6C208.094 126.25 208.594 126.19 208.944 126.45C209.294 126.72 209.364 127.22 209.094 127.57C208.564 128.26 208.014 128.94 207.444 129.6C207.254 129.81 206.984 129.9 206.734 129.87ZM210.734 124.46C210.624 124.45 210.514 124.41 210.414 124.34C210.044 124.11 209.924 123.61 210.164 123.24C210.604 122.53 211.044 121.8 211.444 121.07C211.654 120.68 212.144 120.54 212.524 120.76C212.914 120.97 213.054 121.46 212.834 121.84C212.414 122.6 211.974 123.36 211.504 124.09C211.344 124.37 211.034 124.5 210.734 124.46ZM213.874 118.5C213.804 118.49 213.724 118.47 213.654 118.44C213.254 118.27 213.064 117.8 213.234 117.39C213.564 116.62 213.884 115.84 214.164 115.05C214.314 114.64 214.774 114.42 215.184 114.57C215.594 114.72 215.814 115.18 215.664 115.59C215.364 116.4 215.044 117.22 214.694 118.02C214.554 118.36 214.214 118.55 213.874 118.5ZM216.064 112.15C216.034 112.15 215.994 112.14 215.964 112.13C215.534 112.02 215.284 111.58 215.394 111.16C215.604 110.35 215.794 109.53 215.964 108.71C216.054 108.28 216.474 107.99 216.904 108.09C217.334 108.18 217.614 108.6 217.524 109.03C217.354 109.88 217.154 110.73 216.934 111.57C216.834 111.95 216.454 112.2 216.064 112.15ZM217.284 105.53C216.854 105.48 216.544 105.09 216.594 104.65C216.684 103.82 216.754 102.97 216.794 102.14C216.814 101.7 217.194 101.36 217.634 101.38C218.074 101.4 218.414 101.78 218.394 102.22C218.354 103.09 218.284 103.96 218.194 104.82C218.144 105.26 217.754 105.58 217.314 105.53C217.294 105.53 217.284 105.53 217.284 105.53Z" fill="#91B3FA"/>
<path d="M142.766 133.32C142.606 133.3 142.446 133.23 142.326 133.11C142.006 132.81 141.696 132.51 141.386 132.21C141.076 131.9 141.066 131.39 141.376 131.08C141.686 130.77 142.196 130.76 142.506 131.07C142.806 131.36 143.106 131.65 143.406 131.94C143.726 132.24 143.746 132.75 143.446 133.07C143.266 133.27 143.006 133.35 142.766 133.32Z" fill="#91B3FA"/>
</g>
<path d="M146.316 121.09C146.436 121.28 146.666 121.38 146.886 121.33L153.216 119.88C155.366 122.02 157.866 123.83 160.666 125.21L161.346 131.66C161.366 131.89 161.536 132.07 161.756 132.12L169.346 133.88C169.566 133.93 169.796 133.84 169.916 133.64L173.356 128.14C176.476 128.13 179.526 127.61 182.396 126.63L187.436 130.72C187.616 130.86 187.856 130.88 188.056 130.76L194.666 126.64C194.856 126.52 194.956 126.29 194.906 126.07L193.456 119.74C195.596 117.59 197.406 115.09 198.786 112.29L205.236 111.61C205.466 111.59 205.646 111.42 205.696 111.2L207.456 103.61C207.506 103.39 207.416 103.16 207.216 103.04L201.716 99.6001C201.706 96.4801 201.186 93.4301 200.206 90.5601L204.296 85.5201C204.436 85.3401 204.456 85.1001 204.336 84.9001L200.216 78.2901C200.096 78.1001 199.866 78.0001 199.646 78.0501L193.316 79.5001C191.166 77.3601 188.666 75.5501 185.866 74.1701L185.186 67.7201C185.166 67.4901 184.996 67.3101 184.776 67.2601L177.186 65.5001C176.966 65.4501 176.736 65.5401 176.616 65.7401L173.176 71.2401C170.056 71.2501 167.006 71.7701 164.136 72.7501L159.096 68.6601C158.916 68.5201 158.666 68.5001 158.476 68.6201L151.866 72.7401C151.676 72.8601 151.576 73.0901 151.626 73.3101L153.076 79.6401C150.936 81.7901 149.126 84.2901 147.746 87.0901L141.296 87.7701C141.066 87.7901 140.886 87.9601 140.836 88.1801L139.076 95.7701C139.026 95.9901 139.116 96.2201 139.316 96.3401L144.816 99.7801C144.826 102.9 145.346 105.95 146.326 108.82L142.236 113.86C142.096 114.04 142.076 114.28 142.196 114.48L146.316 121.09Z" fill="#A78BEF"/>
<path d="M172.292 107.18C170.692 106.98 169.212 106.27 168.032 105.13C166.582 103.73 165.752 101.85 165.712 99.8301C165.672 97.8101 166.422 95.9001 167.822 94.4501C169.222 93.0001 171.102 92.1701 173.122 92.1301C177.292 92.0501 180.742 95.3701 180.822 99.5301C180.902 103.69 177.582 107.15 173.422 107.23C173.032 107.25 172.662 107.23 172.292 107.18ZM174.052 93.4701C173.752 93.4301 173.442 93.4101 173.132 93.4201C171.452 93.4501 169.892 94.1401 168.732 95.3501C167.572 96.5601 166.952 98.1501 166.982 99.8201C167.012 101.5 167.702 103.06 168.912 104.22C170.122 105.38 171.712 106 173.382 105.97C176.842 105.9 179.602 103.03 179.532 99.5701C179.472 96.4201 177.092 93.8501 174.052 93.4701Z" fill="white"/>
<path d="M170.994 118.55C170.354 118.47 169.724 118.36 169.084 118.21C168.134 117.99 167.204 117.7 166.314 117.34C166.304 117.34 166.304 117.33 166.294 117.33C166.254 117.31 166.214 117.3 166.174 117.28C166.164 117.28 166.164 117.28 166.154 117.27C166.144 117.27 166.144 117.27 166.144 117.26C166.124 117.25 166.104 117.24 166.084 117.24H166.074C166.064 117.24 166.064 117.23 166.054 117.23H166.044C165.984 117.21 165.934 117.18 165.874 117.16C165.854 117.15 165.834 117.14 165.814 117.13C165.694 117.08 165.574 117.02 165.444 116.97C165.374 116.94 165.304 116.91 165.234 116.87C165.104 116.81 165.034 116.67 165.054 116.54C165.054 116.51 165.064 116.48 165.084 116.44C165.154 116.28 165.344 116.21 165.504 116.29C166.684 116.85 167.934 117.28 169.224 117.58C174.034 118.69 178.984 117.87 183.164 115.26C187.354 112.65 190.264 108.56 191.384 103.76C191.524 103.14 191.634 102.52 191.714 101.91C192.894 92.6302 186.854 83.7602 177.554 81.6002C172.744 80.4902 167.794 81.3102 163.614 83.9202C159.424 86.5302 156.514 90.6202 155.394 95.4202C155.254 96.0302 155.144 96.6502 155.064 97.2702C154.724 99.9502 154.974 102.68 155.804 105.25C155.814 105.3 155.824 105.34 155.814 105.39C155.794 105.51 155.714 105.61 155.594 105.65C155.424 105.7 155.244 105.61 155.194 105.44C154.334 102.78 154.074 99.9502 154.424 97.1802C154.504 96.5402 154.614 95.9002 154.764 95.2702C155.914 90.3002 158.934 86.0702 163.264 83.3702C167.594 80.6702 172.724 79.8102 177.694 80.9602C187.324 83.1902 193.564 92.3702 192.344 101.97C192.264 102.61 192.154 103.25 192.004 103.89C189.784 113.53 180.594 119.77 170.994 118.55Z" fill="white"/>
<g opacity="0.64">
<path d="M265.963 87.03C266.143 87.18 266.213 87.43 266.123 87.65C265.943 88.07 265.763 88.48 265.573 88.9C265.443 89.17 265.123 89.28 264.863 89.16C264.593 89.03 264.483 88.71 264.603 88.45C264.793 88.05 264.973 87.65 265.143 87.25C265.253 86.98 265.573 86.85 265.843 86.96C265.873 86.97 265.923 86.99 265.963 87.03Z" fill="#91B3FA"/>
<path d="M264.185 90.6C264.385 90.76 264.445 91.05 264.315 91.28C263.865 92.06 263.385 92.82 262.875 93.56C262.705 93.8 262.375 93.86 262.125 93.7C261.875 93.53 261.825 93.2 261.985 92.95C262.475 92.24 262.945 91.49 263.375 90.74C263.525 90.48 263.855 90.4 264.105 90.54C264.145 90.57 264.165 90.59 264.185 90.6ZM261.175 94.97C261.405 95.16 261.435 95.5 261.255 95.73C260.795 96.3 260.305 96.85 259.805 97.39C259.695 97.51 259.575 97.63 259.465 97.75C259.255 97.96 258.925 97.97 258.705 97.76C258.495 97.55 258.485 97.21 258.695 97C258.805 96.88 258.915 96.77 259.025 96.65C259.505 96.14 259.975 95.6 260.425 95.05C260.605 94.81 260.945 94.78 261.175 94.97ZM257.485 98.78C257.505 98.8 257.525 98.82 257.545 98.84C257.745 99.06 257.715 99.4 257.495 99.6C256.815 100.2 256.115 100.77 255.395 101.3C255.155 101.48 254.825 101.43 254.645 101.19C254.465 100.95 254.515 100.62 254.755 100.44C255.445 99.93 256.125 99.37 256.785 98.8C256.995 98.62 257.285 98.62 257.485 98.78ZM253.235 101.95C253.275 101.99 253.315 102.03 253.355 102.08C253.515 102.33 253.435 102.66 253.185 102.82C252.425 103.29 251.635 103.74 250.835 104.15C250.575 104.29 250.245 104.18 250.115 103.92C249.975 103.66 250.085 103.33 250.345 103.2C251.115 102.8 251.875 102.37 252.615 101.91C252.815 101.79 253.065 101.81 253.235 101.95ZM248.515 104.38C248.585 104.43 248.635 104.51 248.675 104.59C248.785 104.86 248.655 105.18 248.385 105.29C247.555 105.63 246.705 105.94 245.855 106.22C245.575 106.31 245.275 106.16 245.185 105.87C245.095 105.59 245.245 105.29 245.535 105.2C246.365 104.94 247.185 104.63 247.985 104.3C248.165 104.22 248.375 104.26 248.515 104.38ZM243.465 106C243.555 106.07 243.625 106.17 243.645 106.29C243.715 106.58 243.535 106.87 243.245 106.93C242.375 107.13 241.485 107.3 240.595 107.43C240.305 107.47 240.025 107.27 239.985 106.98C239.945 106.69 240.145 106.41 240.435 106.37C241.295 106.24 242.155 106.08 243.005 105.88C243.175 105.85 243.345 105.89 243.465 106ZM238.215 106.77C238.325 106.86 238.405 107 238.415 107.15C238.435 107.45 238.205 107.7 237.915 107.72C237.015 107.78 236.115 107.8 235.215 107.78C234.915 107.77 234.685 107.53 234.685 107.23C234.685 106.93 234.935 106.7 235.235 106.7C236.095 106.72 236.975 106.69 237.845 106.64C237.985 106.64 238.115 106.69 238.215 106.77ZM232.915 106.68C233.045 106.79 233.125 106.96 233.115 107.15C233.085 107.44 232.825 107.66 232.525 107.63C231.635 107.54 230.735 107.42 229.855 107.25C229.565 107.2 229.375 106.92 229.425 106.63C229.475 106.34 229.755 106.15 230.045 106.2C230.895 106.36 231.765 106.48 232.625 106.56C232.735 106.57 232.835 106.61 232.915 106.68ZM206.375 87.23C206.435 87.28 206.495 87.35 206.525 87.43C206.865 88.23 207.245 89.02 207.655 89.79C207.795 90.05 207.695 90.38 207.435 90.52C207.175 90.66 206.845 90.56 206.705 90.3C206.285 89.51 205.895 88.69 205.545 87.87C205.425 87.6 205.555 87.28 205.825 87.17C206.015 87.08 206.235 87.11 206.375 87.23ZM227.705 105.73C227.865 105.86 227.945 106.07 227.885 106.29C227.805 106.58 227.515 106.75 227.225 106.67C226.355 106.44 225.495 106.17 224.655 105.86C224.375 105.76 224.235 105.45 224.335 105.17C224.435 104.89 224.745 104.75 225.025 104.85C225.835 105.14 226.675 105.4 227.515 105.63C227.575 105.64 227.645 105.68 227.705 105.73ZM208.865 91.92C208.905 91.95 208.945 92 208.975 92.05C209.445 92.78 209.945 93.5 210.475 94.19C210.655 94.43 210.605 94.76 210.375 94.94C210.135 95.12 209.805 95.07 209.625 94.84C209.075 94.13 208.555 93.38 208.075 92.63C207.915 92.38 207.985 92.05 208.235 91.89C208.435 91.76 208.685 91.78 208.865 91.92ZM222.715 103.93C222.895 104.08 222.965 104.34 222.865 104.57C222.745 104.84 222.425 104.96 222.155 104.84C221.345 104.47 220.535 104.06 219.745 103.62C219.485 103.47 219.395 103.15 219.535 102.89C219.675 102.63 220.005 102.54 220.265 102.68C221.025 103.1 221.805 103.5 222.595 103.86C222.635 103.88 222.675 103.91 222.715 103.93ZM212.085 96.14C212.105 96.16 212.125 96.18 212.145 96.2C212.725 96.84 213.335 97.47 213.975 98.07C214.195 98.27 214.205 98.61 213.995 98.83C213.795 99.05 213.455 99.05 213.235 98.85C212.585 98.23 211.945 97.59 211.345 96.92C211.145 96.7 211.165 96.36 211.385 96.16C211.585 95.98 211.885 95.97 212.085 96.14ZM218.085 101.35C218.295 101.52 218.345 101.83 218.195 102.07C218.025 102.32 217.695 102.38 217.455 102.22C216.715 101.72 215.985 101.18 215.285 100.62C215.055 100.43 215.025 100.1 215.205 99.87C215.395 99.64 215.725 99.6 215.955 99.79C216.635 100.33 217.345 100.85 218.055 101.33C218.055 101.33 218.075 101.34 218.085 101.35Z" fill="#91B3FA"/>
<path d="M205.027 83.4399C205.107 83.5099 205.177 83.5999 205.207 83.7099C205.327 84.1299 205.457 84.5499 205.597 84.9699C205.687 85.2499 205.537 85.5599 205.257 85.6499C204.977 85.7399 204.677 85.5899 204.577 85.3099C204.437 84.8799 204.297 84.4399 204.177 84.0099C204.097 83.7299 204.257 83.4299 204.547 83.3499C204.717 83.2899 204.897 83.3299 205.027 83.4399Z" fill="#91B3FA"/>
</g>
<g opacity="0.64">
<path d="M208.105 58.28C208.305 58.44 208.365 58.73 208.225 58.96C208.005 59.34 207.795 59.73 207.585 60.11C207.445 60.37 207.125 60.47 206.865 60.34C206.605 60.2 206.505 59.88 206.635 59.62C206.845 59.22 207.065 58.82 207.295 58.43C207.445 58.17 207.775 58.09 208.025 58.23C208.065 58.25 208.085 58.26 208.105 58.28Z" fill="#91B3FA"/>
<path d="M256.517 49.35C256.927 49.69 257.307 50.01 257.697 50.36C257.917 50.56 257.937 50.9 257.737 51.12C257.537 51.34 257.197 51.36 256.977 51.16C256.597 50.82 256.217 50.48 255.837 50.18C255.557 49.95 255.277 49.74 254.997 49.52C254.767 49.35 254.717 49 254.897 48.77C255.077 48.53 255.417 48.49 255.647 48.67C255.947 48.89 256.237 49.12 256.517 49.35ZM253.527 47.19C253.737 47.36 253.787 47.66 253.637 47.89C253.477 48.14 253.147 48.21 252.897 48.05C252.177 47.59 251.437 47.16 250.677 46.76C250.417 46.62 250.317 46.3 250.457 46.03C250.597 45.77 250.917 45.67 251.177 45.81C251.957 46.22 252.727 46.67 253.467 47.15C253.497 47.16 253.507 47.18 253.527 47.19ZM259.557 52.16C259.577 52.17 259.587 52.19 259.607 52.21C260.217 52.85 260.807 53.52 261.357 54.2C261.547 54.43 261.507 54.77 261.277 54.95C261.047 55.14 260.707 55.1 260.527 54.87C259.987 54.21 259.417 53.56 258.827 52.94C258.627 52.73 258.627 52.39 258.847 52.18C259.047 52 259.357 51.99 259.557 52.16ZM248.917 44.75C249.097 44.9 249.167 45.15 249.067 45.38C248.947 45.65 248.637 45.78 248.357 45.66C247.577 45.32 246.767 45.01 245.957 44.74C245.677 44.65 245.527 44.34 245.617 44.06C245.707 43.78 246.017 43.63 246.297 43.72C247.137 44 247.967 44.32 248.777 44.67C248.837 44.69 248.877 44.71 248.917 44.75ZM262.847 56.22C262.887 56.25 262.917 56.29 262.947 56.33C263.447 57.06 263.917 57.82 264.357 58.58C264.507 58.84 264.417 59.17 264.157 59.31C263.897 59.46 263.567 59.37 263.427 59.11C263.007 58.37 262.547 57.64 262.067 56.93C261.897 56.69 261.967 56.35 262.207 56.18C262.407 56.05 262.667 56.07 262.847 56.22ZM243.977 43.08C244.137 43.21 244.207 43.42 244.157 43.63C244.087 43.92 243.797 44.09 243.507 44.02C242.677 43.81 241.837 43.64 240.997 43.5C240.707 43.45 240.507 43.18 240.557 42.88C240.607 42.59 240.877 42.39 241.177 42.44C242.047 42.58 242.927 42.76 243.777 42.98C243.847 43 243.917 43.03 243.977 43.08ZM265.437 60.75C265.497 60.8 265.547 60.86 265.587 60.94C265.957 61.74 266.307 62.56 266.617 63.39C266.717 63.67 266.577 63.98 266.297 64.08C266.017 64.18 265.707 64.04 265.607 63.76C265.307 62.96 264.977 62.16 264.617 61.39C264.487 61.12 264.607 60.8 264.877 60.68C265.067 60.59 265.287 60.62 265.437 60.75ZM238.827 42.23C238.957 42.34 239.037 42.51 239.027 42.69C239.007 42.99 238.747 43.2 238.447 43.18C237.597 43.11 236.737 43.07 235.877 43.07C235.577 43.07 235.337 42.83 235.337 42.53C235.337 42.23 235.577 41.99 235.877 41.99C236.757 41.99 237.657 42.03 238.527 42.1C238.647 42.12 238.747 42.17 238.827 42.23ZM233.607 42.22C233.717 42.31 233.787 42.44 233.807 42.59C233.827 42.89 233.607 43.14 233.317 43.17C232.467 43.24 231.607 43.34 230.767 43.47C230.477 43.52 230.197 43.32 230.157 43.02C230.107 42.73 230.307 42.45 230.597 42.41C231.467 42.27 232.357 42.17 233.237 42.1C233.367 42.09 233.507 42.14 233.607 42.22ZM228.457 43.04C228.547 43.11 228.607 43.21 228.637 43.33C228.707 43.62 228.527 43.91 228.247 43.98C227.417 44.18 226.587 44.42 225.777 44.69C225.497 44.78 225.197 44.63 225.097 44.35C225.007 44.07 225.157 43.77 225.437 43.67C226.277 43.39 227.137 43.15 227.987 42.94C228.157 42.89 228.327 42.94 228.457 43.04ZM223.497 44.68C223.567 44.73 223.617 44.8 223.647 44.89C223.767 45.16 223.637 45.48 223.367 45.59C222.577 45.92 221.797 46.29 221.047 46.69C220.787 46.83 220.457 46.73 220.327 46.46C220.187 46.2 220.287 45.87 220.557 45.74C221.337 45.33 222.147 44.95 222.957 44.61C223.137 44.52 223.347 44.56 223.497 44.68ZM218.867 47.1C218.907 47.14 218.947 47.18 218.987 47.23C219.147 47.48 219.067 47.81 218.817 47.97C218.097 48.42 217.387 48.91 216.707 49.43C216.467 49.61 216.127 49.56 215.957 49.32C215.777 49.08 215.827 48.75 216.067 48.57C216.777 48.04 217.507 47.53 218.257 47.06C218.447 46.93 218.697 46.96 218.867 47.1ZM214.697 50.23C214.717 50.25 214.737 50.27 214.757 50.29C214.957 50.51 214.937 50.85 214.707 51.05C214.067 51.62 213.447 52.21 212.857 52.83C212.647 53.04 212.307 53.05 212.097 52.84C211.887 52.63 211.877 52.3 212.077 52.08C212.687 51.45 213.327 50.83 213.987 50.24C214.207 50.07 214.497 50.07 214.697 50.23ZM211.077 53.99C211.307 54.18 211.337 54.51 211.157 54.74L211.097 54.82C210.577 55.46 210.077 56.12 209.607 56.8C209.437 57.04 209.107 57.1 208.857 56.94C208.607 56.77 208.557 56.44 208.717 56.19C209.197 55.49 209.717 54.8 210.257 54.15L210.317 54.07C210.517 53.84 210.847 53.8 211.077 53.99Z" fill="#91B3FA"/>
<path d="M267.263 65.6699C267.343 65.7399 267.413 65.8299 267.443 65.9399C267.563 66.3799 267.683 66.8199 267.783 67.2599C267.853 67.5499 267.673 67.8399 267.383 67.9099C267.093 67.9799 266.803 67.7999 266.733 67.5099C266.633 67.0799 266.523 66.6599 266.403 66.2299C266.323 65.9399 266.493 65.6499 266.773 65.5699C266.953 65.5199 267.133 65.5699 267.263 65.6699Z" fill="#91B3FA"/>
</g>
<path d="M260.509 72.2199C260.509 72.0499 260.399 71.9099 260.249 71.8499L255.779 70.3099C255.269 68.1599 254.419 66.0799 253.219 64.1499L255.279 59.8999C255.349 59.7499 255.319 59.5699 255.209 59.4599L251.199 55.4499C251.079 55.3299 250.899 55.2999 250.759 55.3799L246.519 57.4499C244.589 56.2499 242.499 55.4099 240.349 54.9099L238.799 50.4399C238.749 50.2799 238.599 50.1799 238.429 50.1799L232.759 50.1899C232.589 50.1899 232.449 50.2999 232.389 50.4499L230.849 54.9199C228.699 55.4299 226.619 56.2799 224.689 57.4799L220.439 55.4199C220.289 55.3499 220.109 55.3799 219.999 55.4899L215.989 59.4999C215.869 59.6199 215.839 59.7999 215.919 59.9399L217.989 64.1799C216.789 66.1099 215.949 68.1999 215.449 70.3499L210.979 71.8999C210.819 71.9499 210.719 72.0999 210.719 72.2699L210.729 77.9399C210.729 78.1099 210.839 78.2499 210.989 78.3099L215.459 79.8499C215.969 81.9999 216.819 84.0799 218.019 86.0099L215.959 90.2599C215.889 90.4099 215.919 90.5899 216.029 90.6999L220.039 94.7099C220.159 94.8299 220.339 94.8599 220.479 94.7799L224.719 92.7099C226.649 93.9099 228.739 94.7499 230.889 95.2599L232.439 99.7299C232.489 99.8899 232.639 99.9899 232.809 99.9899L238.479 99.9799C238.649 99.9799 238.789 99.8699 238.849 99.7199L240.389 95.2499C242.539 94.7399 244.619 93.8899 246.549 92.6899L250.799 94.7599C250.949 94.8299 251.129 94.7999 251.239 94.6799L255.249 90.6699C255.369 90.5499 255.399 90.3699 255.319 90.2299L253.249 85.9899C254.449 84.0599 255.289 81.9699 255.789 79.8199L260.259 78.2699C260.419 78.2199 260.519 78.0699 260.519 77.8999L260.509 72.2199Z" fill="#A78BEF"/>
<path d="M239.127 70.7599C241.237 72.4799 241.827 75.5299 240.397 77.9299C239.637 79.2099 238.417 80.1099 236.977 80.4799C235.537 80.8499 234.037 80.6299 232.757 79.8699C231.477 79.1099 230.577 77.8899 230.207 76.4499C229.837 75.0099 230.057 73.5099 230.817 72.2299C232.387 69.5899 235.817 68.7199 238.457 70.2899C238.697 70.4299 238.927 70.5899 239.127 70.7599ZM232.767 78.5599C232.937 78.6999 233.117 78.8199 233.307 78.9399C234.337 79.5499 235.547 79.7299 236.717 79.4399C237.877 79.1399 238.857 78.4099 239.477 77.3799C240.747 75.2499 240.047 72.4799 237.917 71.2099C235.787 69.9399 233.017 70.6399 231.747 72.7699C230.587 74.7199 231.067 77.1799 232.767 78.5599Z" fill="white"/>
<path d="M244.451 64.0499C244.831 64.3599 245.191 64.6799 245.531 65.0299C245.671 65.1699 245.801 65.3099 245.941 65.4499C246.411 65.9599 246.841 66.4899 247.221 67.0599C247.231 67.0799 247.251 67.0999 247.261 67.1199C247.291 67.1699 247.321 67.2199 247.361 67.2599C247.391 67.2999 247.411 67.3399 247.441 67.3799C247.571 67.5799 247.551 67.8299 247.411 68.0099C247.381 68.0499 247.331 68.0899 247.281 68.1199C247.031 68.2799 246.701 68.2099 246.541 67.9599C246.041 67.1799 245.441 66.4499 244.781 65.7899C243.301 64.3199 241.531 63.2299 239.611 62.5999C238.301 62.1699 236.911 61.9499 235.491 61.9499C231.981 61.9499 228.681 63.3199 226.201 65.8099C225.881 66.1299 225.581 66.4699 225.291 66.8099C223.391 69.1499 222.351 72.0499 222.361 75.0999C222.361 78.6099 223.731 81.9099 226.221 84.3899C228.711 86.8699 232.011 88.2299 235.521 88.2299C239.031 88.2299 242.331 86.8599 244.811 84.3699C245.131 84.0499 245.421 83.7199 245.701 83.3799C246.911 81.8899 247.791 80.1499 248.251 78.2799C248.271 78.1999 248.311 78.1299 248.351 78.0699C248.481 77.9099 248.691 77.8399 248.901 77.8899C249.191 77.9599 249.361 78.2499 249.291 78.5399C248.791 80.5599 247.841 82.4399 246.531 84.0599C246.231 84.4299 245.901 84.7899 245.561 85.1299C242.881 87.8199 239.311 89.2999 235.511 89.2999C231.711 89.2999 228.141 87.8299 225.451 85.1499C222.761 82.4699 221.281 78.8999 221.281 75.0999C221.281 71.7899 222.401 68.6599 224.451 66.1299C224.761 65.7499 225.081 65.3899 225.431 65.0399C228.111 62.3499 231.681 60.8699 235.481 60.8699C238.791 60.8699 241.921 61.9899 244.451 64.0499Z" fill="white"/>
<path d="M368.587 75.6899C367.007 74.0699 364.837 73.1499 362.577 73.1499L191.007 73.2499C188.737 73.2499 186.577 74.1699 184.997 75.7999C183.417 77.4299 182.567 79.6199 182.637 81.8899L189.437 301.05C189.577 305.57 193.287 309.07 197.807 309.07H356.137C360.667 309.07 364.377 305.57 364.507 301.04L370.947 81.7299C371.017 79.4599 370.157 77.3199 368.587 75.6899Z" fill="#E527BB"/>
<path d="M360.983 85.78C359.543 84.3 357.563 83.46 355.483 83.46L198.683 83.55C196.613 83.55 194.633 84.39 193.193 85.88C191.753 87.37 190.973 89.37 191.043 91.44L197.263 291.73C197.393 295.86 200.783 299.05 204.913 299.05H349.623C353.763 299.05 357.153 295.86 357.273 291.72L363.153 91.29C363.213 89.22 362.433 87.26 360.983 85.78Z" fill="#91B3FA"/>
<path d="M276.39 161.67C285.756 161.67 293.35 154.077 293.35 144.71C293.35 135.343 285.756 127.75 276.39 127.75C267.023 127.75 259.43 135.343 259.43 144.71C259.43 154.077 267.023 161.67 276.39 161.67Z" fill="white"/>
<path d="M276.799 160.47C285.503 160.47 292.559 153.414 292.559 144.71C292.559 136.006 285.503 128.95 276.799 128.95C268.095 128.95 261.039 136.006 261.039 144.71C261.039 153.414 268.095 160.47 276.799 160.47Z" fill="#E527BB"/>
<path d="M347.387 201.68C347.387 207.66 342.547 212.5 336.567 212.5H322.547C316.567 212.5 311.727 207.66 311.727 201.68C311.727 195.7 316.567 190.86 322.547 190.86H336.567C342.547 190.86 347.387 195.7 347.387 201.68Z" fill="#7D5EEF"/>
<path d="M345.92 201.68C345.92 207.27 341.46 211.7 335.97 211.7H322.95C317.45 211.7 313 207.27 313 201.68C313 196.09 317.46 191.66 322.95 191.66H335.97C341.46 191.66 345.92 196.09 345.92 201.68Z" fill="#A78BEF"/>
<path d="M295.699 201.68C295.699 207.66 290.859 212.5 284.879 212.5H270.859C264.879 212.5 260.039 207.66 260.039 201.68C260.039 195.7 264.879 190.86 270.859 190.86H284.879C290.859 190.86 295.699 195.7 295.699 201.68Z" fill="#7D5EEF"/>
<path d="M294.232 201.68C294.232 207.27 289.773 211.7 284.283 211.7H271.262C265.762 211.7 261.312 207.27 261.312 201.68C261.312 196.09 265.772 191.66 271.262 191.66H284.283C289.773 191.66 294.232 196.09 294.232 201.68Z" fill="#A78BEF"/>
<path d="M242.808 201.68C242.808 207.66 237.968 212.5 231.988 212.5H217.968C211.988 212.5 207.148 207.66 207.148 201.68C207.148 195.7 211.988 190.86 217.968 190.86H231.988C237.968 190.86 242.808 195.7 242.808 201.68Z" fill="#7D5EEF"/>
<path d="M241.326 201.68C241.326 207.27 236.866 211.7 231.376 211.7H218.356C212.856 211.7 208.406 207.27 208.406 201.68C208.406 196.09 212.866 191.66 218.356 191.66H231.376C236.876 191.66 241.326 196.09 241.326 201.68Z" fill="#A78BEF"/>
<path d="M347.387 250.16C347.387 256.14 342.547 260.98 336.567 260.98H322.547C316.567 260.98 311.727 256.14 311.727 250.16C311.727 244.18 316.567 239.34 322.547 239.34H336.567C342.547 239.34 347.387 244.19 347.387 250.16Z" fill="#7D5EEF"/>
<path d="M345.92 250.16C345.92 255.75 341.46 260.18 335.97 260.18H322.95C317.45 260.18 313 255.75 313 250.16C313 244.57 317.46 240.14 322.95 240.14H335.97C341.46 240.15 345.92 244.58 345.92 250.16Z" fill="#A78BEF"/>
<path d="M295.699 250.16C295.699 256.14 290.859 260.98 284.879 260.98H270.859C264.879 260.98 260.039 256.14 260.039 250.16C260.039 244.18 264.879 239.34 270.859 239.34H284.879C290.859 239.34 295.699 244.19 295.699 250.16Z" fill="#7D5EEF"/>
<path d="M294.232 250.16C294.232 255.75 289.773 260.18 284.283 260.18H271.262C265.762 260.18 261.312 255.75 261.312 250.16C261.312 244.57 265.772 240.14 271.262 240.14H284.283C289.773 240.15 294.232 244.58 294.232 250.16Z" fill="#A78BEF"/>
<path d="M242.808 250.16C242.808 256.14 237.968 260.98 231.988 260.98H217.968C211.988 260.98 207.148 256.14 207.148 250.16C207.148 244.18 211.988 239.34 217.968 239.34H231.988C237.968 239.34 242.808 244.19 242.808 250.16Z" fill="#7D5EEF"/>
<path d="M241.326 250.16C241.326 255.75 236.866 260.18 231.376 260.18H218.356C212.856 260.18 208.406 255.75 208.406 250.16C208.406 244.57 212.866 240.14 218.356 240.14H231.376C236.876 240.15 241.326 244.58 241.326 250.16Z" fill="#A78BEF"/>
<path d="M277.282 234.16L275.672 234.18V217.47L277.282 217.46V234.16Z" fill="white"/>
<path d="M224.936 234.78L223.266 234.8V230.5C223.266 228.18 225.236 226.28 227.666 226.26L263.876 225.93C265.346 225.92 266.536 224.75 266.536 223.33V217.53L268.156 217.52V223.32C268.156 225.6 266.236 227.48 263.866 227.5L227.656 227.85C226.156 227.86 224.926 229.05 224.926 230.48L224.936 234.78Z" fill="white"/>
<path d="M327.956 233.56L326.396 233.58V229.42C326.396 228.03 325.246 226.91 323.836 226.92L288.996 227.26C286.666 227.28 284.766 225.45 284.766 223.18V217.41L286.376 217.4V223.17C286.376 224.58 287.556 225.71 289.006 225.7L323.846 225.38C326.126 225.36 327.976 227.16 327.976 229.4V233.56H327.956Z" fill="white"/>
<path d="M277.354 181.39L275.734 181.41V164.7L277.354 164.69V181.39Z" fill="white"/>
<path d="M224.998 182.01L223.328 182.03V177.73C223.328 175.41 225.298 173.51 227.728 173.49L263.938 173.16C265.408 173.15 266.598 171.98 266.598 170.56V164.76L268.228 164.75V170.55C268.228 172.83 266.308 174.71 263.938 174.73L227.728 175.08C226.228 175.09 224.998 176.28 224.998 177.71V182.01Z" fill="white"/>
<path d="M328.018 180.79L326.458 180.81V176.65C326.458 175.26 325.308 174.14 323.898 174.15L289.058 174.49C286.728 174.51 284.828 172.68 284.828 170.41V164.64L286.438 164.63V170.4C286.438 171.81 287.618 172.94 289.068 172.93L323.908 172.61C326.188 172.59 328.038 174.39 328.038 176.63V180.79H328.018Z" fill="white"/>
<path d="M370.457 98.2999L370.947 81.6799C371.017 79.4199 370.157 77.2999 368.577 75.6699C366.997 74.0499 364.827 73.1399 362.567 73.1399L191.007 73.2499C188.737 73.2499 186.577 74.1699 184.997 75.7999C183.417 77.4299 182.567 79.5799 182.637 81.8399L183.147 98.2999H370.457Z" fill="#E527BB"/>
<path opacity="0.6" d="M196.723 89.3498C199.081 89.3498 200.993 87.4381 200.993 85.0798C200.993 82.7216 199.081 80.8098 196.723 80.8098C194.365 80.8098 192.453 82.7216 192.453 85.0798C192.453 87.4381 194.365 89.3498 196.723 89.3498Z" fill="white"/>
<path opacity="0.6" d="M210.489 89.5898C212.847 89.5898 214.759 87.6781 214.759 85.3198C214.759 82.9615 212.847 81.0498 210.489 81.0498C208.13 81.0498 206.219 82.9615 206.219 85.3198C206.219 87.6781 208.13 89.5898 210.489 89.5898Z" fill="white"/>
<path opacity="0.6" d="M223.778 89.3498C226.136 89.3498 228.048 87.4381 228.048 85.0798C228.048 82.7216 226.136 80.8098 223.778 80.8098C221.42 80.8098 219.508 82.7216 219.508 85.0798C219.508 87.4381 221.42 89.3498 223.778 89.3498Z" fill="white"/>
<path opacity="0.67" d="M348.434 276.61H205.694C205.164 276.61 204.734 276.18 204.734 275.65V270.62C204.734 270.09 205.164 269.66 205.694 269.66H348.424C348.954 269.66 349.384 270.09 349.384 270.62V275.65C349.394 276.18 348.964 276.61 348.434 276.61Z" fill="white"/>
<path d="M309.617 117.93H200.107C198.247 117.93 196.727 116.42 196.727 114.55V114.35C196.727 112.49 198.237 110.97 200.107 110.97H309.617C311.477 110.97 312.997 112.48 312.997 114.35V114.55C312.987 116.42 311.477 117.93 309.617 117.93Z" fill="#BDD0FB"/>
<path d="M354.563 117.93H331.333C329.473 117.93 327.953 116.42 327.953 114.55V114.35C327.953 112.49 329.463 110.97 331.333 110.97H354.563C356.423 110.97 357.943 112.48 357.943 114.35V114.55C357.933 116.42 356.423 117.93 354.563 117.93Z" fill="#BDD0FB"/>
<path opacity="0.67" d="M347.846 287.83H205.116C204.586 287.83 204.156 287.4 204.156 286.87V281.84C204.156 281.31 204.586 280.88 205.116 280.88H347.846C348.376 280.88 348.806 281.31 348.806 281.84V286.87C348.806 287.4 348.376 287.83 347.846 287.83Z" fill="white"/>
<path d="M165.849 306.37C165.849 306.37 165.259 309.7 164.969 313C164.859 314.29 165.849 315.41 167.139 315.46C171.529 315.64 180.929 316 184.299 315.85C184.809 315.83 185.139 315.31 184.949 314.84C184.789 314.44 184.489 314.13 184.099 313.95L168.579 306.82L165.849 306.37Z" fill="#A78BEF"/>
<path d="M165.367 304.41L165.837 308.4C165.837 308.4 168.557 309.67 170.417 308.24L169.287 303.8L165.367 304.41Z" fill="url(#paint2_linear_1632_4626)"/>
<path d="M165.723 229.47C165.523 230.51 164.623 281.42 170.063 304.23C170.153 304.6 169.963 304.99 169.613 305.13C168.783 305.47 167.143 305.96 165.183 306.03C164.573 306.05 164.033 305.66 163.863 305.07C162.303 299.78 154.853 273.26 153.883 247.93C152.793 219.62 153.883 246.97 153.883 246.97L154.523 229.47H165.723Z" fill="black"/>
<path d="M147.992 308.1C147.992 308.1 147.052 309.78 146.152 314.25C145.992 315.06 146.552 315.83 147.372 315.91C148.822 316.05 151.052 316.24 152.842 316.22C153.662 316.21 154.312 315.5 154.212 314.68C154.012 313.05 153.392 310.37 151.492 308.28L147.992 308.1Z" fill="#A78BEF"/>
<path d="M147.172 302.98L148.282 309.01C148.282 309.01 149.372 309.82 151.532 309.23L151.002 302.74L147.172 302.98Z" fill="url(#paint3_linear_1632_4626)"/>
<path d="M144.189 231.03C139.739 257.89 145.159 297.41 146.979 305.15C147.089 305.62 147.469 305.99 147.949 306.07C148.769 306.21 150.109 306.32 151.429 305.93C151.889 305.8 152.209 305.39 152.219 304.91C152.469 298.66 152.019 260.26 156.169 245.09C156.379 244.32 156.849 243.65 157.499 243.19L165.549 237.47L166.169 228.22L144.189 231.03Z" fill="black"/>
<path d="M172.536 180.14C159.196 179.92 144.486 183.64 144.486 183.64C140.506 206.84 143.786 233.59 143.786 233.59C154.106 236.3 165.756 231.93 165.756 231.93C167.476 222.23 175.476 194.95 175.476 194.95C181.996 194.14 187.356 192.26 191.776 189.78C188.406 185.87 186.816 180.9 186.126 177.96C181.426 179.43 176.656 180.21 172.536 180.14Z" fill="#A78BEF"/>
<path d="M211.933 160.5C210.623 158.92 208.963 159.67 208.963 159.67C207.003 167.96 196.713 174.68 186.133 177.97C186.823 180.91 188.413 185.88 191.783 189.79C209.333 179.92 211.933 160.5 211.933 160.5Z" fill="url(#paint4_linear_1632_4626)"/>
<path d="M211.622 160.9C211.762 161.34 210.172 162 209.232 160.22C209.202 159.37 208.682 155.71 209.192 155.01C211.912 151.3 217.182 146.66 217.182 146.66C218.072 147.54 217.342 148.4 217.342 148.4L214.782 151.06C215.312 152.03 215.972 152.84 216.272 154.01C216.502 154.9 216.362 155.84 215.912 156.65C215.462 157.46 214.852 158.51 214.272 159.33C213.182 160.89 211.622 160.9 211.622 160.9Z" fill="url(#paint5_linear_1632_4626)"/>
<path d="M213.662 152.79L211.332 154.77L210.602 156.74L212.682 159.04C212.682 159.04 213.382 155.14 213.902 154.29C214.422 153.44 214.152 153.04 213.662 152.79Z" fill="url(#paint6_linear_1632_4626)"/>
<path d="M149.607 196.56L144.487 183.65C144.487 183.65 132.027 192.11 129.977 202.85C132.327 203.02 136.617 203.64 140.807 205.75C141.737 200.67 149.607 196.56 149.607 196.56Z" fill="#A78BEF"/>
<path d="M160.49 208.71C160.49 208.71 146.5 216.61 141.78 209.87C140.8 208.47 140.57 207.08 140.81 205.75C136.62 203.63 132.33 203.02 129.98 202.85C129.36 206.09 129.69 209.53 131.59 213C139.86 228.12 162.34 212.16 162.34 212.16L160.49 208.71Z" fill="url(#paint7_linear_1632_4626)"/>
<path d="M158.811 218.71L166.441 192.05C166.531 191.75 166.781 191.53 167.101 191.49C168.481 191.33 172.491 190.88 177.121 190.48C182.691 190.01 189.171 189.63 193.031 189.95C193.581 190 193.911 190.58 193.671 191.07C191.471 195.52 182.421 213.62 177.891 219.55C177.741 219.75 177.511 219.86 177.261 219.86L159.551 219.7C159.041 219.7 158.671 219.2 158.811 218.71Z" fill="#BDD0FB"/>
<path d="M177.914 188.18L183.444 187.26C183.734 187.21 183.984 187.49 183.884 187.78L183.334 189.44C183.284 189.58 183.164 189.69 183.014 189.71L177.684 190.42C177.404 190.46 177.184 190.21 177.244 189.94L177.584 188.49C177.634 188.32 177.754 188.2 177.914 188.18Z" fill="#7D5EEF"/>
<path d="M173.769 192.86L174.229 190.49C174.279 190.25 174.469 190.07 174.709 190.05L185.889 188.92C186.269 188.88 186.569 189.23 186.479 189.59L185.769 192.55C185.709 192.79 185.509 192.96 185.259 192.97L174.339 193.52C173.979 193.53 173.699 193.21 173.769 192.86Z" fill="#7D5EEF"/>
<path d="M160.662 212.27C160.662 212.27 159.602 207.9 160.032 206.35C160.462 204.8 161.292 202.8 164.062 203.25C166.832 203.69 170.102 204.86 170.102 204.86C170.102 204.86 169.932 206.88 167.832 206.23L169.142 207.24C169.142 207.24 168.952 208.86 167.182 207.99L168.392 209.33C168.392 209.33 167.632 210.66 166.322 209.81C164.992 208.95 164.372 212.79 160.662 212.27Z" fill="url(#paint8_linear_1632_4626)"/>
<path d="M159.031 169.31L154.791 181.58C154.721 181.78 154.801 182.01 154.991 182.11C156.151 182.75 160.311 184.6 165.341 181.41C165.861 181.08 166.221 180.54 166.301 179.92L167.671 169.3L159.031 169.31Z" fill="url(#paint9_linear_1632_4626)"/>
<path d="M168.271 157.95C168.271 157.95 172.931 166.72 172.331 170.26C171.731 173.8 165.961 173.55 160.911 170.67L157.391 161.2L168.271 157.95Z" fill="url(#paint10_linear_1632_4626)"/>
<path d="M161.141 166.02C161.341 165.93 161.421 165.68 161.301 165.49C160.931 164.92 160.231 163.76 160.001 162.74C160.001 162.74 159.161 162.2 162.131 161.49C165.101 160.78 169.531 159.68 170.461 157.15C171.371 154.69 168.981 148.49 165.181 153.43C165.041 153.62 164.751 153.62 164.611 153.43C163.991 152.62 162.351 150.93 160.071 151.95C157.941 152.91 157.701 154.47 157.731 155.25C157.741 155.48 157.531 155.66 157.301 155.62C156.221 155.41 153.641 155.24 152.431 157.89C151.441 160.07 152.081 161.31 152.671 161.91C152.861 162.11 152.781 162.43 152.521 162.51C151.811 162.73 150.901 163.33 150.991 164.99C151.121 167.28 153.681 167.08 154.411 166.98C154.531 166.96 154.651 167 154.731 167.09C155.361 167.78 158.181 170.72 161.231 171.08C161.491 171.11 161.701 170.85 161.611 170.6L160.291 166.76C160.231 166.58 160.311 166.39 160.491 166.31L161.141 166.02Z" fill="black"/>
<path d="M161.674 166.57C161.674 166.57 158.354 164.29 158.114 166.21C157.874 168.13 161.104 168.99 162.704 168.27L161.674 166.57Z" fill="url(#paint11_linear_1632_4626)"/>
</g>
</g>
<defs>
<linearGradient id="paint0_linear_1632_4626" x1="390.098" y1="179.678" x2="420.963" y2="179.678" gradientUnits="userSpaceOnUse">
<stop stop-color="#DAE3FE"/>
<stop offset="1" stop-color="#E9EFFD"/>
</linearGradient>
<linearGradient id="paint1_linear_1632_4626" x1="285.182" y1="142.785" x2="270.67" y2="333.257" gradientUnits="userSpaceOnUse">
<stop stop-color="#09005D"/>
<stop offset="1" stop-color="#1A0F91"/>
</linearGradient>
<linearGradient id="paint2_linear_1632_4626" x1="165.365" y1="306.352" x2="170.414" y2="306.352" gradientUnits="userSpaceOnUse">
<stop stop-color="#FEBBBA"/>
<stop offset="1" stop-color="#FF928E"/>
</linearGradient>
<linearGradient id="paint3_linear_1632_4626" x1="147.174" y1="306.094" x2="151.533" y2="306.094" gradientUnits="userSpaceOnUse">
<stop stop-color="#FEBBBA"/>
<stop offset="1" stop-color="#FF928E"/>
</linearGradient>
<linearGradient id="paint4_linear_1632_4626" x1="206.594" y1="140.164" x2="181.351" y2="238.13" gradientUnits="userSpaceOnUse">
<stop stop-color="#FEBBBA"/>
<stop offset="1" stop-color="#FF928E"/>
</linearGradient>
<linearGradient id="paint5_linear_1632_4626" x1="198.534" y1="157.03" x2="223.377" y2="152.222" gradientUnits="userSpaceOnUse">
<stop stop-color="#FEBBBA"/>
<stop offset="1" stop-color="#FF928E"/>
</linearGradient>
<linearGradient id="paint6_linear_1632_4626" x1="213.189" y1="152.126" x2="217.73" y2="134.762" gradientUnits="userSpaceOnUse">
<stop stop-color="#FEBBBA"/>
<stop offset="1" stop-color="#FF928E"/>
</linearGradient>
<linearGradient id="paint7_linear_1632_4626" x1="129.702" y1="211.171" x2="162.344" y2="211.171" gradientUnits="userSpaceOnUse">
<stop stop-color="#FEBBBA"/>
<stop offset="1" stop-color="#FF928E"/>
</linearGradient>
<linearGradient id="paint8_linear_1632_4626" x1="159.923" y1="207.748" x2="170.092" y2="207.748" gradientUnits="userSpaceOnUse">
<stop stop-color="#FEBBBA"/>
<stop offset="1" stop-color="#FF928E"/>
</linearGradient>
<linearGradient id="paint9_linear_1632_4626" x1="154.767" y1="176.274" x2="167.673" y2="176.274" gradientUnits="userSpaceOnUse">
<stop stop-color="#FEBBBA"/>
<stop offset="1" stop-color="#FF928E"/>
</linearGradient>
<linearGradient id="paint10_linear_1632_4626" x1="170.743" y1="168.064" x2="156.553" y2="159.409" gradientUnits="userSpaceOnUse">
<stop stop-color="#FEBBBA"/>
<stop offset="1" stop-color="#FF928E"/>
</linearGradient>
<linearGradient id="paint11_linear_1632_4626" x1="167.019" y1="171.292" x2="154.252" y2="163.504" gradientUnits="userSpaceOnUse">
<stop stop-color="#FEBBBA"/>
<stop offset="1" stop-color="#FF928E"/>
</linearGradient>
<clipPath id="clip0_1632_4626">
<rect width="542.64" height="328.79" fill="white"/>
</clipPath>
<clipPath id="clip1_1632_4626">
<rect width="331.12" height="286.64" fill="white" transform="translate(106 42)"/>
</clipPath>
</defs>
</svg>
