<svg width="37" height="34" viewBox="0 0 37 34" fill="none" xmlns="http://www.w3.org/2000/svg">
<path d="M34.7444 0.103516H27.7722C27.4728 0.103516 27.2302 0.346184 27.2302 0.645509C27.2302 0.944834 27.4728 1.1875 27.7722 1.1875H34.7444C35.3905 1.1875 35.9161 1.71309 35.9161 2.35915V22.953H1.08399V2.35915C1.08399 1.71309 1.60958 1.1875 2.25563 1.1875H25.2428C25.5421 1.1875 25.7848 0.944834 25.7848 0.645509C25.7848 0.346184 25.5421 0.103516 25.2428 0.103516H2.25563C1.01187 0.103516 0 1.11538 0 2.35915V24.672C0 25.9158 1.01187 26.9276 2.25563 26.9276H7.44439C7.74371 26.9276 7.98638 26.685 7.98638 26.3856C7.98638 26.0863 7.74371 25.8436 7.44439 25.8436H2.25563C1.60958 25.8436 1.08399 25.3181 1.08399 24.672V24.037H35.9161V24.672C35.9161 25.3181 35.3905 25.8436 34.7444 25.8436H9.94984C9.65052 25.8436 9.40785 26.0863 9.40785 26.3856C9.40785 26.685 9.65052 26.9276 9.94984 26.9276H13.3611L12.8259 30.0202H11.8369C10.9403 30.0202 10.2109 30.7496 10.2109 31.6462C10.2109 32.5428 10.9403 33.2722 11.8369 33.2722H25.1632C26.0598 33.2722 26.7891 32.5428 26.7891 31.6462C26.7891 30.7496 26.0598 30.0202 25.1632 30.0202H24.1741L23.639 26.9276H34.7444C35.9881 26.9276 37 25.9158 37 24.672V2.35915C37.0001 1.11538 35.9882 0.103516 34.7444 0.103516ZM23.074 30.0202H21.5985C21.2992 30.0202 21.0565 30.2629 21.0565 30.5622C21.0565 30.8616 21.2992 31.1042 21.5985 31.1042H25.1632C25.462 31.1042 25.7052 31.3473 25.7052 31.6462C25.7052 31.9451 25.462 32.1882 25.1632 32.1882H11.8369C11.538 32.1882 11.2949 31.9451 11.2949 31.6462C11.2949 31.3473 11.538 31.1042 11.8369 31.1042H19.0683C19.3677 31.1042 19.6103 30.8616 19.6103 30.5622C19.6103 30.2629 19.3677 30.0202 19.0683 30.0202H13.926L14.4612 26.9276H22.539L23.074 30.0202Z" fill="#DAA7EE"/>
<path d="M29.3199 13.8171C29.116 13.8171 28.9293 13.9316 28.8368 14.1134L26.279 19.1405L24.1206 14.8982C24.0281 14.7164 23.8414 14.6019 23.6375 14.6019C23.4336 14.6019 23.2469 14.7164 23.1544 14.8982L21.9844 17.1979H20.1162C19.8169 17.1979 19.5742 17.4405 19.5742 17.7399C19.5742 18.0392 19.8169 18.2819 20.1162 18.2819H22.3167C22.5206 18.2819 22.7073 18.1674 22.7998 17.9856L23.6375 16.3392L25.7959 20.5816C25.8884 20.7633 26.0751 20.8778 26.279 20.8778C26.483 20.8778 26.6696 20.7633 26.7621 20.5816L29.3199 15.5544L30.5569 17.9857C30.6494 18.1675 30.836 18.2819 31.04 18.2819H33.2405C33.5398 18.2819 33.7825 18.0393 33.7825 17.7399C33.7825 17.4406 33.5398 17.1979 33.2405 17.1979H31.3723L29.803 14.1134C29.7105 13.9316 29.5238 13.8171 29.3199 13.8171Z" fill="#DAA7EE"/>
<path d="M20.1162 12.2118H22.9287C23.228 12.2118 23.4707 11.9691 23.4707 11.6698V5.96411C23.4707 5.66479 23.228 5.42212 22.9287 5.42212H20.1162C19.8169 5.42212 19.5742 5.66479 19.5742 5.96411V11.6698C19.5742 11.9691 19.8169 12.2118 20.1162 12.2118ZM20.6582 6.50611H22.3867V11.1278H20.6582V6.50611Z" fill="#DAA7EE"/>
<path d="M28.1045 6.97241H25.292C24.9927 6.97241 24.75 7.21508 24.75 7.51441V11.6696C24.75 11.9689 24.9927 12.2116 25.292 12.2116H28.1045C28.4038 12.2116 28.6465 11.9689 28.6465 11.6696V7.51441C28.6465 7.21508 28.4038 6.97241 28.1045 6.97241ZM27.5625 11.1276H25.834V8.0564H27.5625V11.1276Z" fill="#DAA7EE"/>
<path d="M33.2393 12.2116C33.5386 12.2116 33.7813 11.9689 33.7813 11.6696V4.53345C33.7813 4.23412 33.5386 3.99146 33.2393 3.99146H30.4268C30.1274 3.99146 29.8848 4.23412 29.8848 4.53345V11.6696C29.8848 11.9689 30.1274 12.2116 30.4268 12.2116H33.2393ZM30.9688 5.07544H32.6973V11.1276H30.9688V5.07544Z" fill="#DAA7EE"/>
<path d="M16.0362 10.1226H3.75098C3.45165 10.1226 3.20898 10.3652 3.20898 10.6646C3.20898 10.9639 3.45165 11.2065 3.75098 11.2065H16.0362C16.3355 11.2065 16.5782 10.9639 16.5782 10.6646C16.5782 10.3652 16.3355 10.1226 16.0362 10.1226Z" fill="#DAA7EE"/>
<path d="M3.75098 14.0857H5.94945C6.24877 14.0857 6.49144 13.843 6.49144 13.5437C6.49144 13.2444 6.24877 13.0017 5.94945 13.0017H3.75098C3.45165 13.0017 3.20898 13.2444 3.20898 13.5437C3.20898 13.843 3.45165 14.0857 3.75098 14.0857Z" fill="#DAA7EE"/>
<path d="M16.034 13.0017H8.43067C8.13134 13.0017 7.88867 13.2444 7.88867 13.5437C7.88867 13.843 8.13134 14.0857 8.43067 14.0857H16.034C16.3333 14.0857 16.576 13.843 16.576 13.5437C16.576 13.2444 16.3333 13.0017 16.034 13.0017Z" fill="#DAA7EE"/>
<path d="M16.0362 3.99146H3.75098C3.45165 3.99146 3.20898 4.23412 3.20898 4.53345C3.20898 4.83277 3.45165 5.07544 3.75098 5.07544H16.0362C16.3355 5.07544 16.5782 4.83277 16.5782 4.53345C16.5782 4.23412 16.3355 3.99146 16.0362 3.99146Z" fill="#DAA7EE"/>
<path d="M3.75098 7.95459H11.3694C11.6687 7.95459 11.9114 7.71192 11.9114 7.4126C11.9114 7.11327 11.6687 6.87061 11.3694 6.87061H3.75098C3.45165 6.87061 3.20898 7.11327 3.20898 7.4126C3.20898 7.71192 3.45165 7.95459 3.75098 7.95459Z" fill="#DAA7EE"/>
<path d="M16.034 6.87061H13.8506C13.5513 6.87061 13.3086 7.11327 13.3086 7.4126C13.3086 7.71192 13.5513 7.95459 13.8506 7.95459H16.034C16.3333 7.95459 16.5759 7.71192 16.5759 7.4126C16.5759 7.11327 16.3333 6.87061 16.034 6.87061Z" fill="#DAA7EE"/>
<path d="M16.5782 16.3879C16.5782 16.0886 16.3355 15.8459 16.0362 15.8459H3.75098C3.45165 15.8459 3.20898 16.0886 3.20898 16.3879C3.20898 16.6873 3.45165 16.9299 3.75098 16.9299H16.0362C16.3355 16.9299 16.5782 16.6873 16.5782 16.3879Z" fill="#DAA7EE"/>
<path d="M3.75098 18.71C3.45165 18.71 3.20898 18.9526 3.20898 19.252C3.20898 19.5513 3.45165 19.7939 3.75098 19.7939H9.53224C9.83156 19.7939 10.0742 19.5513 10.0742 19.252C10.0742 18.9526 9.83156 18.71 9.53224 18.71H3.75098Z" fill="#DAA7EE"/>
</svg>
