<svg width="543" height="329" viewBox="0 0 543 329" fill="none" xmlns="http://www.w3.org/2000/svg">
<g clip-path="url(#clip0_1470_5063)">
<path opacity="0.2" d="M127.492 328.58L412.142 311.93C487.412 307.53 545.652 243.73 542.512 168.39C539.872 105.08 517.192 37.64 440.912 8.81999C387.262 -11.45 317.592 5.13999 273.402 38.85C262.782 46.95 253.022 56.24 241.612 63.17C215.022 79.32 191.672 68.17 163.972 63.88C105.412 54.79 46.9621 73.46 16.7021 127.43C-29.7579 210.35 25.0421 334.57 127.492 328.58Z" fill="#999999"/>
<g clip-path="url(#clip1_1470_5063)">
<path d="M471 301.267H71V301.467H471V301.267Z" fill="#EBEBEB"/>
<path d="M430.921 314.164H388.465V314.364H430.921V314.164Z" fill="#EBEBEB"/>
<path d="M335.983 311.655H289.047V311.855H335.983V311.655Z" fill="#EBEBEB"/>
<path d="M390.512 310.493H375.16V310.693H390.512V310.493Z" fill="#EBEBEB"/>
<path d="M185.927 308.072H151.375V308.272H185.927V308.072Z" fill="#EBEBEB"/>
<path d="M146.918 308.072H134.566V308.272H146.918V308.072Z" fill="#EBEBEB"/>
<path d="M219.528 311.455H176.176V311.655H219.528V311.455Z" fill="#EBEBEB"/>
<path d="M260.606 265.518H106.134C103.614 265.518 101.566 263.466 101.566 260.941V43.3769C101.566 40.852 103.614 38.8 106.134 38.8H260.614C263.134 38.8 265.182 40.852 265.182 43.3769V260.941C265.174 263.466 263.126 265.518 260.606 265.518ZM106.134 265.317C103.726 265.317 101.766 265.317 101.766 265.317C101.766 265.317 103.718 265.317 106.134 265.317Z" fill="#EBEBEB"/>
<path d="M433.65 265.518H279.17C276.65 265.518 274.602 263.466 274.602 260.941V43.3769C274.602 40.852 276.65 38.8 279.17 38.8H433.65C436.17 38.8 438.218 40.852 438.218 43.3769V260.941C438.218 263.466 436.17 265.518 433.65 265.518ZM279.17 265.317C276.762 265.317 274.802 265.317 274.802 265.317C274.81 265.317 276.762 265.317 279.17 265.317Z" fill="#EBEBEB"/>
<path d="M292.775 194.268H284.367V294.486H292.775V194.268Z" fill="#F0F0F0"/>
<path d="M289.553 294.486H122.801V301.163H289.553V294.486Z" fill="#F0F0F0"/>
<path d="M284.37 194.268H119.57V294.486H284.37V194.268Z" fill="#F5F5F5"/>
<path d="M295.032 187.952H286.344V194.268H295.032V187.952Z" fill="#E0E0E0"/>
<path d="M286.353 187.952H117.312V194.268H286.353V187.952Z" fill="#EBEBEB"/>
<path d="M271.536 236.614H132.4C128.96 236.614 126.176 233.825 126.176 230.378V208.271C126.176 204.825 128.96 202.035 132.4 202.035H271.536C274.976 202.035 277.76 204.825 277.76 208.271V230.378C277.76 233.825 274.976 236.614 271.536 236.614Z" fill="white"/>
<path d="M271.536 281.509H132.4C128.96 281.509 126.176 278.719 126.176 275.273V253.166C126.176 249.719 128.96 246.93 132.4 246.93H271.536C274.976 246.93 277.76 249.719 277.76 253.166V275.273C277.76 278.719 274.976 281.509 271.536 281.509Z" fill="white"/>
<path d="M166.143 205.739H237.799C238.575 205.739 239.215 205.097 239.215 204.32V202.412C239.215 201.635 238.583 200.993 237.799 200.993H166.143C165.367 200.993 164.727 201.635 164.727 202.412V204.32C164.727 205.097 165.367 205.739 166.143 205.739Z" fill="#F5F5F5"/>
<path d="M166.143 250.625H237.799C238.575 250.625 239.215 249.984 239.215 249.207V247.299C239.215 246.521 238.583 245.88 237.799 245.88H166.143C165.367 245.88 164.727 246.521 164.727 247.299V249.207C164.727 249.992 165.367 250.625 166.143 250.625Z" fill="#F5F5F5"/>
<path d="M352.665 61.5801H141.305V174.013H352.665V61.5801Z" fill="#E0E0E0"/>
<path d="M349.657 61.5801H135.977V174.013H349.657V61.5801Z" fill="#E527BB"/>
<path d="M342.001 70.4373H143.633V165.148H342.001V70.4373Z" fill="white"/>
<path d="M381.258 206.54H159.434C157.97 206.54 156.77 205.338 156.77 203.871C156.77 202.404 157.97 201.202 159.434 201.202H381.258C382.722 201.202 383.922 202.404 383.922 203.871C383.922 205.338 382.722 206.54 381.258 206.54Z" fill="#E527BB"/>
<path opacity="0.3" d="M381.256 206.54H329.328C327.864 206.54 326.664 205.338 326.664 203.871C326.664 202.404 327.864 201.202 329.328 201.202H381.256C382.72 201.202 383.92 202.404 383.92 203.871C383.92 205.338 382.72 206.54 381.256 206.54Z" fill="#263238"/>
<path d="M375.635 213.233H205.035V231.837H375.635V213.233Z" fill="#263238"/>
<path opacity="0.1" d="M375.635 213.233H205.035V231.837H375.635V213.233Z" fill="white"/>
<path d="M373.137 324.688H378.249L378.041 206.54H370.969L373.137 324.688Z" fill="#263238"/>
<path opacity="0.1" d="M373.137 324.688H378.249L378.041 206.54H370.969L373.137 324.688Z" fill="white"/>
<path d="M326.104 324.688H320.992L332.544 206.54H339.616L326.104 324.688Z" fill="#263238"/>
<path opacity="0.2" d="M326.104 324.688H320.992L332.544 206.54H339.616L326.104 324.688Z" fill="white"/>
<path d="M203.25 324.688H208.354L208.146 206.54H201.074L203.25 324.688Z" fill="#263238"/>
<path opacity="0.1" d="M203.25 324.688H208.354L208.146 206.54H201.074L203.25 324.688Z" fill="white"/>
<path d="M156.21 324.688H151.098L162.65 206.54H169.722L156.21 324.688Z" fill="#263238"/>
<path opacity="0.2" d="M156.21 324.688H151.098L162.65 206.54H169.722L156.21 324.688Z" fill="white"/>
<path d="M299.886 201.202H288.11L283.398 178.133H295.174L299.886 201.202Z" fill="#263238"/>
<path d="M315.513 196.448H264.417C262.721 196.448 261.425 195.062 261.521 193.362L263.473 160.956C263.577 159.257 265.041 157.87 266.737 157.87H317.833C319.529 157.87 320.825 159.257 320.729 160.956L318.777 193.362C318.681 195.062 317.209 196.448 315.513 196.448Z" fill="#263238"/>
<path d="M314.712 196.448H263.616C261.92 196.448 260.624 195.062 260.72 193.362L262.672 160.956C262.776 159.257 264.24 157.87 265.936 157.87H317.032C318.728 157.87 320.024 159.257 319.928 160.956L317.976 193.362C317.88 195.062 316.408 196.448 314.712 196.448Z" fill="#E527BB"/>
<path d="M263.615 194.845C263.239 194.845 262.903 194.701 262.663 194.444C262.423 194.188 262.295 193.835 262.319 193.459L264.271 161.052C264.319 160.194 265.087 159.473 265.943 159.473H317.039C317.415 159.473 317.751 159.617 317.991 159.874C318.231 160.13 318.359 160.483 318.335 160.86L316.383 193.266C316.327 194.124 315.567 194.845 314.711 194.845H263.615Z" fill="white"/>
<path opacity="0.2" d="M286.055 157.87L289.375 169.26L299.231 157.87H286.055Z" fill="black"/>
<path d="M382.167 145.935H254.063C249.815 145.935 246.551 142.456 246.807 138.2L251.703 56.9471C251.959 52.6909 255.647 49.2122 259.895 49.2122H387.999C392.247 49.2122 395.511 52.6909 395.255 56.9471L390.367 138.2C390.095 142.456 386.415 145.935 382.167 145.935Z" fill="#E527BB"/>
<path d="M271.207 128.75L283.023 169.26L318.079 128.75H271.207Z" fill="#E527BB"/>
<g opacity="0.5">
<path d="M264.767 56.2817C264.671 57.5963 263.647 58.6623 262.471 58.6623C261.295 58.6623 260.423 57.5963 260.519 56.2817C260.615 54.9672 261.639 53.9011 262.815 53.9011C263.991 53.9011 264.863 54.9592 264.767 56.2817Z" fill="white"/>
<path d="M272.63 56.2818C272.534 57.5963 271.51 58.6624 270.334 58.6624C269.158 58.6624 268.286 57.5963 268.382 56.2818C268.478 54.9672 269.502 53.9012 270.678 53.9012C271.846 53.8932 272.726 54.9592 272.63 56.2818Z" fill="white"/>
<path d="M280.486 56.2818C280.39 57.5963 279.366 58.6624 278.19 58.6624C277.014 58.6624 276.142 57.5963 276.238 56.2818C276.334 54.9672 277.358 53.9012 278.534 53.9012C279.71 53.8932 280.582 54.9592 280.486 56.2818Z" fill="white"/>
</g>
<path opacity="0.3" d="M381.208 145.181H253.104C251 145.181 249.056 144.356 247.648 142.849C246.232 141.342 245.52 139.346 245.648 137.23L250.543 55.9771C250.807 51.6087 254.568 48.0498 258.928 48.0498H387.032C389.136 48.0498 391.079 48.8754 392.487 50.3823C393.903 51.8892 394.615 53.8851 394.487 56.0012L389.6 137.254C389.335 141.622 385.568 145.181 381.208 145.181ZM258.928 48.4506C254.776 48.4506 251.192 51.8331 250.936 56.0012L246.04 137.254C245.92 139.258 246.592 141.15 247.928 142.576C249.264 143.995 251.096 144.781 253.096 144.781H381.2C385.352 144.781 388.936 141.39 389.184 137.23L394.072 55.9771C394.191 53.9732 393.52 52.0816 392.184 50.6548C390.848 49.2361 389.015 48.4506 387.015 48.4506H258.928Z" fill="#263238"/>
<path opacity="0.07" d="M297.565 67.2978L264.566 67L264.314 94.9989L297.312 95.2966L297.565 67.2978Z" fill="black"/>
<path opacity="0.07" d="M337.565 67.6586L304.566 67.3608L304.314 95.3597L337.312 95.6575L337.565 67.6586Z" fill="black"/>
<path opacity="0.07" d="M375.565 68.0016L342.566 67.7039L342.314 95.7027L375.312 96.0005L375.565 68.0016Z" fill="black"/>
<path opacity="0.07" d="M297.249 102.296L264.25 101.999L263.997 129.997L296.996 130.295L297.249 102.296Z" fill="black"/>
<path opacity="0.07" d="M337.249 102.657L304.25 102.36L303.997 130.358L336.996 130.656L337.249 102.657Z" fill="black"/>
<path opacity="0.07" d="M375.249 103L342.25 102.702L341.997 130.701L374.996 130.999L375.249 103Z" fill="black"/>
<path d="M227.84 153.91H166.552C164.96 153.91 163.664 152.612 163.664 151.017V81.21C163.664 79.6149 164.96 78.3164 166.552 78.3164H227.84C229.432 78.3164 230.728 79.6149 230.728 81.21V151.017C230.728 152.62 229.432 153.91 227.84 153.91Z" fill="url(#paint0_linear_1470_5063)"/>
<path opacity="0.45" d="M230.72 83.4705H164.504V118.698H230.72V83.4705Z" fill="url(#paint1_linear_1470_5063)"/>
<path d="M177.114 94.147H171.754V118.698H177.114V94.147Z" fill="#E527BB"/>
<path d="M186.251 104.984H180.891V118.698H186.251V104.984Z" fill="#A78BEF"/>
<path d="M195.387 89.8108H190.027V118.699H195.387V89.8108Z" fill="#E527BB"/>
<path d="M204.52 99.75H199.16V118.707H204.52V99.75Z" fill="#A78BEF"/>
<path d="M213.657 87.4622H208.297V118.698H213.657V87.4622Z" fill="#E527BB"/>
<path d="M222.794 94.147H217.434V118.698H222.794V94.147Z" fill="#A78BEF"/>
<path d="M179.05 128.149H171.754V134.593H179.05V128.149Z" fill="#E527BB"/>
<path d="M222.105 128.149H185.297V130.794H222.105V128.149Z" fill="url(#paint2_linear_1470_5063)"/>
<path d="M210.977 131.94H185.297V134.585H210.977V131.94Z" fill="url(#paint3_linear_1470_5063)"/>
<path d="M179.05 139.442H171.754V145.887H179.05V139.442Z" fill="#A78BEF"/>
<path d="M222.105 139.442H185.297V142.087H222.105V139.442Z" fill="url(#paint4_linear_1470_5063)"/>
<path d="M210.977 143.234H185.297V145.879H210.977V143.234Z" fill="url(#paint5_linear_1470_5063)"/>
<path d="M188.511 139.891L193.319 143.578L199.871 148.604C199.631 148.861 199.343 150.111 199.231 151.001C199.007 152.844 198.775 154.247 202.855 155.337C203.727 155.57 204.471 156.259 204.599 157.157C204.759 158.247 204.095 159.593 200.319 160.211C195.943 160.932 192.423 159.722 189.655 158.383C188.055 157.614 188.015 156.62 188.727 154.993C190.735 150.384 189.759 144.484 188.511 139.891Z" fill="#B55B52"/>
<path d="M183.008 156.467C184.608 153.325 185.272 150.921 185.272 150.921C185.272 150.921 197.44 150.255 201.456 151.458C205.472 152.66 207.968 157.87 207.968 157.87L183.008 156.467Z" fill="#8367E8"/>
<path d="M188.09 165.525C187.786 166.422 187.458 167.521 187.146 168.539L186.25 171.657C185.682 173.749 185.146 175.833 184.714 177.917C184.266 180.001 183.914 182.069 183.682 184.089C183.45 186.1 183.354 188.08 183.506 189.836C183.562 190.725 183.706 191.511 183.874 192.2C183.922 192.361 183.962 192.537 184.018 192.689C184.074 192.833 184.13 192.97 184.178 193.122L184.186 193.146C184.186 193.154 184.202 193.178 184.17 193.122C184.13 193.042 184.082 192.97 184.034 192.898C183.922 192.737 183.866 192.665 183.778 192.561C183.618 192.385 183.498 192.288 183.418 192.232C183.258 192.12 183.234 192.144 183.266 192.176C183.362 192.256 183.658 192.441 184.018 192.601C184.378 192.761 184.802 192.93 185.258 193.082C186.162 193.379 187.17 193.667 188.194 193.932C192.33 194.974 196.826 195.783 201.218 196.721L201.074 202.276C198.69 202.596 196.37 202.781 194.002 202.861C191.634 202.941 189.258 202.925 186.81 202.741C185.578 202.652 184.33 202.524 183.018 202.276C182.362 202.155 181.682 202.011 180.962 201.819C180.242 201.618 179.466 201.378 178.554 200.929C178.09 200.689 177.578 200.408 176.978 199.927C176.682 199.687 176.354 199.39 176.01 198.997C175.834 198.781 175.682 198.597 175.498 198.316C175.41 198.18 175.33 198.044 175.25 197.907L175.146 197.715L174.594 196.585C174.426 196.208 174.298 195.839 174.146 195.463C173.618 193.98 173.258 192.521 173.058 191.134C172.298 185.563 172.89 180.594 173.722 175.76C174.17 173.356 174.698 170.991 175.33 168.667C175.642 167.505 175.978 166.342 176.346 165.196C176.714 164.026 177.082 162.944 177.546 161.685L188.09 165.525Z" fill="#B55B52"/>
<path d="M180.688 155.473C188.256 153.478 192.736 159.673 190.176 169.933C187.616 180.193 186.76 180.546 186.76 180.546L171.16 177.941C173.088 167.849 172.936 157.517 180.688 155.473Z" fill="#8367E8"/>
<path d="M205.111 194.549L203.935 194.445C200.591 194.445 200.023 195.366 197.959 197.274L197.191 201.49C202.591 204.264 205.487 201.226 205.487 201.226H210.487L208.727 197.178C208.095 195.695 206.703 194.693 205.111 194.549Z" fill="#B55B52"/>
<path d="M186.447 131.916C187.807 139.218 188.231 143.57 192.407 146.825C198.687 151.722 207.327 147.065 208.167 139.466C208.927 132.621 206.575 121.832 199.031 119.917C191.599 118.025 185.087 124.614 186.447 131.916Z" fill="#B55B52"/>
<path d="M200.89 134.465C206.09 134.048 204.57 128.557 202.962 127.403C205.402 126.481 207.082 122.61 204.73 119.933C206.106 116.334 202.178 111.997 195.274 112.647C190.234 113.12 189.658 115.781 189.658 115.781C189.658 115.781 183.61 115.147 181.106 120.141C178.962 124.421 181.562 126.706 181.562 126.706C181.562 126.706 177.05 128.02 178.29 133.944C179.626 140.308 184.506 138.833 184.506 138.833C184.506 138.833 183.41 144.66 190.01 144.749C195.714 144.821 195.786 140.54 195.786 140.54C195.786 140.54 203.194 139.819 200.89 134.465Z" fill="#263238"/>
<path d="M197.015 134.89C197.639 136.589 198.911 137.879 200.175 138.529C202.079 139.506 203.535 137.479 203.199 135.403C202.895 133.535 201.271 131.138 199.271 131.026C197.295 130.906 196.303 132.95 197.015 134.89Z" fill="#B55B52"/>
<path d="M274.575 315.51L281.687 312.617L276.663 295.496L269.551 298.389L274.575 315.51Z" fill="#B55B52"/>
<path opacity="0.2" d="M271.991 306.685L279.175 304.048L276.663 295.496L269.551 298.389L271.991 306.685Z" fill="black"/>
<path d="M281.072 309.715L272.944 312.552C272.648 312.657 272.496 312.937 272.576 313.234L274.424 319.814C274.616 320.496 275.464 320.913 276.136 320.664C278.952 319.63 280.08 319.061 283.56 317.562C285.696 316.64 290.8 314.404 293.576 312.769C296.288 311.166 294.656 308.433 293.336 308.881C290.208 309.939 285.08 310.629 282.48 309.731C282 309.571 281.504 309.571 281.072 309.715Z" fill="#A78BEF"/>
<path d="M217.455 216.744C217.455 216.744 271.207 221.593 272.583 237.095C275.383 268.62 279.671 299.014 279.671 299.014L268.735 303.022C268.735 303.022 255.351 268.387 255.527 243.684C240.023 239.299 199.263 245.736 192.591 233.752C186.703 223.172 191.871 215.581 191.871 215.581L217.455 216.744Z" fill="#263238"/>
<path d="M267.941 305.507L281.557 300.898L280.965 294.678L265.613 299.64L267.941 305.507Z" fill="#A78BEF"/>
<path d="M284.071 310.084C283.407 310.316 282.615 310.437 282.055 310.501C281.983 310.509 281.919 310.477 281.879 310.412C281.847 310.348 281.847 310.276 281.887 310.22C282.063 309.98 283.623 307.864 284.631 307.904C284.863 307.912 285.055 308.032 285.191 308.248C285.407 308.601 285.447 308.938 285.295 309.242C285.111 309.619 284.631 309.891 284.071 310.084ZM282.431 310.092C283.815 309.899 284.751 309.523 284.975 309.074C285.063 308.89 285.039 308.673 284.887 308.433C284.815 308.32 284.727 308.264 284.615 308.264C284.079 308.232 283.087 309.266 282.431 310.092Z" fill="#A78BEF"/>
<path d="M282.095 310.493C282.071 310.501 282.039 310.509 282.007 310.501C281.943 310.493 281.895 310.453 281.871 310.396C281.831 310.308 280.943 308.28 281.431 307.319C281.559 307.062 281.775 306.894 282.063 306.83C282.407 306.749 282.695 306.862 282.855 307.126C283.295 307.856 282.743 309.747 282.175 310.429C282.151 310.461 282.127 310.485 282.095 310.493ZM282.063 307.206C281.927 307.254 281.823 307.343 281.751 307.479C281.463 308.048 281.815 309.266 282.079 309.948C282.519 309.194 282.839 307.799 282.551 307.311C282.495 307.222 282.399 307.118 282.143 307.174C282.111 307.19 282.087 307.198 282.063 307.206Z" fill="#A78BEF"/>
<path d="M236.52 320.6L244.12 320.24L245.36 302.253L237.76 302.614L236.52 320.6Z" fill="#B55B52"/>
<path d="M244.293 318.933L235.685 318.661C235.373 318.653 235.125 318.861 235.101 319.166L234.469 325.971C234.405 326.676 235.045 327.365 235.765 327.381C238.765 327.422 240.197 327.293 243.981 327.414C246.309 327.486 250.885 327.83 254.077 327.43C257.197 327.037 256.781 323.879 255.389 323.758C252.101 323.486 247.693 321.21 245.581 319.438C245.213 319.134 244.749 318.949 244.293 318.933Z" fill="#A78BEF"/>
<path d="M246.966 320.36C246.262 320.336 245.478 320.167 244.934 320.023C244.862 320.007 244.814 319.951 244.806 319.879C244.798 319.807 244.822 319.743 244.886 319.702C245.134 319.542 247.35 318.123 248.278 318.524C248.494 318.612 248.63 318.797 248.678 319.045C248.758 319.454 248.67 319.783 248.422 320.007C248.102 320.296 247.558 320.376 246.966 320.36ZM245.43 319.775C246.79 320.087 247.798 320.079 248.174 319.734C248.326 319.59 248.374 319.382 248.318 319.101C248.294 318.973 248.23 318.885 248.126 318.845C247.63 318.628 246.334 319.238 245.43 319.775Z" fill="#A78BEF"/>
<path d="M244.976 320.023C244.944 320.023 244.92 320.015 244.896 319.999C244.84 319.967 244.808 319.911 244.808 319.855C244.8 319.759 244.704 317.546 245.496 316.825C245.712 316.633 245.968 316.552 246.264 316.601C246.616 316.657 246.84 316.857 246.896 317.162C247.048 318.003 245.856 319.566 245.08 319.999C245.032 320.023 245.008 320.031 244.976 320.023ZM246.12 316.953C245.976 316.945 245.84 316.993 245.728 317.098C245.248 317.53 245.152 318.789 245.144 319.518C245.824 318.973 246.624 317.779 246.528 317.226C246.512 317.122 246.456 316.993 246.2 316.953C246.168 316.953 246.144 316.953 246.12 316.953Z" fill="#A78BEF"/>
<path opacity="0.2" d="M237.758 302.621L245.366 302.261L244.646 312.545L237.07 312.529L237.758 302.621Z" fill="black"/>
<path d="M199.607 215.926C199.607 215.926 257.527 224.791 256.607 238.153C254.951 262.208 246.903 309.194 246.903 309.194L235.495 309.355C235.495 309.355 232.799 261.149 237.071 243.58C222.831 243.58 182.639 243.083 177.151 235.74C171.095 227.637 177.327 214.9 177.327 214.9L199.607 215.926Z" fill="#263238"/>
<path d="M234.144 310.26L247.952 310.044L248.632 302.726L233.48 303.327L234.144 310.26Z" fill="#A78BEF"/>
<path d="M209.797 154.656C205.133 153.75 184.101 154.006 184.101 154.006C179.757 153.894 176.021 157.116 175.533 161.445C174.797 167.945 178.917 182.469 179.053 189.884C179.229 198.981 177.493 202.668 177.325 214.908L217.453 216.736C217.453 192.104 216.389 171.713 215.413 161.934C215.069 158.543 214.461 155.569 209.797 154.656Z" fill="#407BFF"/>
<path d="M209.797 154.656C205.133 153.75 184.101 154.006 184.101 154.006C179.757 153.894 176.021 157.116 175.533 161.445C174.797 167.945 178.917 182.469 179.053 189.884C179.229 198.981 177.493 202.668 177.325 214.908L217.453 216.736C217.453 192.104 216.389 171.713 215.413 161.934C215.069 158.543 214.461 155.569 209.797 154.656Z" fill="#A78BEF"/>
<path d="M215.293 162.423C216.549 166.751 217.813 171.192 219.117 175.544C220.421 179.904 221.749 184.257 223.261 188.385C223.629 189.435 224.029 190.413 224.413 191.423L225.029 192.841L225.109 193.018L225.149 193.106L225.165 193.154L225.173 193.17L225.141 193.114C224.957 192.785 224.757 192.569 224.637 192.441C224.357 192.176 224.253 192.152 224.237 192.16C224.229 192.192 224.501 192.376 224.837 192.537C225.173 192.705 225.597 192.865 226.045 193.026C226.949 193.338 227.965 193.619 228.997 193.899C233.181 194.965 237.741 195.783 242.197 196.737L242.053 202.292C239.637 202.62 237.285 202.805 234.877 202.877C232.477 202.957 230.061 202.933 227.573 202.74C226.325 202.652 225.053 202.5 223.709 202.244C223.037 202.115 222.341 201.963 221.589 201.739C220.837 201.514 220.029 201.242 219.029 200.68C218.517 200.376 217.941 200.015 217.269 199.326C216.941 198.989 216.573 198.532 216.245 197.955L215.973 197.45L215.069 195.735C214.541 194.613 213.965 193.483 213.493 192.368C212.501 190.124 211.637 187.896 210.781 185.659C209.973 183.423 209.165 181.179 208.437 178.934C206.957 174.43 205.621 169.957 204.461 165.324L215.293 162.423Z" fill="#B55B52"/>
<path d="M203.893 157.958C209.381 152.371 216.397 155.417 219.413 165.541C222.429 175.664 221.877 176.41 221.877 176.41L207.133 182.141C203.661 172.482 198.277 163.673 203.893 157.958Z" fill="#8367E8"/>
<path d="M246.092 194.549L244.916 194.444C241.572 194.444 241.004 195.366 238.94 197.274L238.172 201.49C243.572 204.263 246.468 201.225 246.468 201.225H251.468L249.708 197.178C249.068 195.695 247.684 194.693 246.092 194.549Z" fill="#B55B52"/>
<path d="M179.079 246.513H230.343C231.463 246.513 232.383 245.591 232.383 244.469V241.167C232.383 240.045 231.463 239.123 230.343 239.123H179.079C177.959 239.123 177.039 240.045 177.039 241.167V244.469C177.039 245.591 177.959 246.513 179.079 246.513Z" fill="#E527BB"/>
<path d="M179.311 328.8H177.039L179.655 246.513H182.799L179.311 328.8Z" fill="#407BFF"/>
<path opacity="0.2" d="M179.311 328.8H177.039L179.655 246.513H182.799L179.311 328.8Z" fill="white"/>
<path d="M200.207 328.8H202.479L199.871 246.513H196.727L200.207 328.8Z" fill="#407BFF"/>
<path opacity="0.2" d="M200.207 328.8H202.479L199.871 246.513H196.727L200.207 328.8Z" fill="white"/>
<path d="M209.213 328.8H206.941L209.557 246.513H212.701L209.213 328.8Z" fill="#407BFF"/>
<path opacity="0.2" d="M209.213 328.8H206.941L209.557 246.513H212.701L209.213 328.8Z" fill="white"/>
<path d="M230.113 328.8H232.385L229.769 246.513H226.633L230.113 328.8Z" fill="#407BFF"/>
<path opacity="0.2" d="M230.113 328.8H232.385L229.769 246.513H226.633L230.113 328.8Z" fill="white"/>
<g opacity="0.3">
<path d="M179.655 246.513H182.799L182.655 250.008H179.543L179.655 246.513Z" fill="#407BFF"/>
<path d="M199.975 250.008H196.871L196.727 246.513H199.863L199.975 250.008Z" fill="#407BFF"/>
<path d="M212.693 246.513L212.549 250.008H209.445L209.557 246.513H212.693Z" fill="#407BFF"/>
<path d="M229.889 250.008H226.777L226.633 246.513H229.777L229.889 250.008Z" fill="#407BFF"/>
</g>
<path d="M438.673 102.656C450.889 99.2295 458.013 86.5513 454.586 74.3382C451.159 62.1251 438.479 55.0019 426.263 58.4281C414.047 61.8543 406.923 74.5325 410.35 86.7456C413.776 98.9587 426.457 106.082 438.673 102.656Z" fill="#007CFF"/>
<path d="M438.673 102.656C450.889 99.2295 458.013 86.5513 454.586 74.3382C451.159 62.1251 438.479 55.0019 426.263 58.4281C414.047 61.8543 406.923 74.5325 410.35 86.7456C413.776 98.9587 426.457 106.082 438.673 102.656Z" fill="#A78BEF"/>
<path d="M445.587 97.2474C455.515 89.3485 457.159 74.8985 449.258 64.9725C441.357 55.0465 426.904 53.4032 416.976 61.3022C407.048 69.2011 405.405 83.6511 413.305 93.5771C421.206 103.503 435.659 105.146 445.587 97.2474Z" fill="#A78BEF"/>
<path d="M447.643 89.0899C453.057 80.0479 450.114 68.3301 441.07 62.9175C432.026 57.5049 420.306 60.4472 414.892 69.4892C409.479 78.5313 412.421 90.2491 421.465 95.6617C430.509 101.074 442.23 98.132 447.643 89.0899Z" fill="white"/>
<path d="M422.107 92.8262L424.646 89.069C424.72 89.1151 424.794 89.1705 424.868 89.2167L422.421 93.0293C422.319 92.9739 422.218 92.9001 422.107 92.8262ZM417.047 87.3519C416.982 87.2411 416.927 87.1303 416.862 87.0196L420.86 84.8871C420.907 84.9701 420.944 85.044 420.99 85.1179L417.047 87.3519ZM429.448 95.5403L429.946 91.0353L430.223 91.063L429.808 95.5773C429.697 95.5588 429.577 95.5496 429.448 95.5403ZM414.923 79.8281C414.923 79.6989 414.914 79.5789 414.914 79.4497L419.448 79.4035L419.457 79.6804L414.923 79.8281ZM437.204 94.5156L435.551 90.2968L435.809 90.1952L437.619 94.3494L437.508 94.3956C437.435 94.4325 437.324 94.4787 437.204 94.5156ZM416.548 72.1752C416.604 72.0644 416.659 71.9444 416.715 71.8336L420.75 73.8922C420.713 73.9753 420.667 74.0492 420.63 74.1323L416.548 72.1752ZM440.214 87.0103C440.269 86.9457 440.325 86.8811 440.38 86.8165L443.88 89.6967C443.796 89.7983 443.713 89.8998 443.63 89.9921L440.214 87.0103ZM424.231 69.7934L421.544 66.1469L421.839 65.9346L424.462 69.6272L424.231 69.7934ZM442.781 81.9791L442.845 81.7114L447.277 82.6622C447.25 82.7823 447.222 82.9023 447.194 83.0223L442.781 81.9791ZM429.457 67.6147L428.755 63.1374C428.875 63.119 428.995 63.1005 429.115 63.082L429.734 67.5686L429.457 67.6147ZM442.716 76.3294C442.698 76.2463 442.67 76.1632 442.652 76.0709L447.001 74.8339C447.037 74.9539 447.065 75.0831 447.102 75.2031L442.716 76.3294ZM435.089 68.104L436.548 63.8113C436.668 63.8575 436.788 63.8944 436.917 63.9406L435.329 68.1871C435.255 68.1594 435.172 68.1317 435.089 68.104ZM440.029 71.3535L439.845 71.1504L443.132 68.0302C443.215 68.1225 443.307 68.2148 443.39 68.3071L440.029 71.3535Z" fill="black"/>
<path d="M426.465 72.1938L431.026 80.0315L438.395 72.8585" stroke="black" stroke-miterlimit="10" stroke-linecap="round" stroke-linejoin="round"/>
<path d="M432.355 80.3823C431.838 80.9731 430.933 81.0285 430.342 80.5115C429.751 79.9946 429.696 79.0899 430.213 78.499C430.73 77.9082 431.635 77.8528 432.226 78.3698C432.808 78.896 432.872 79.7915 432.355 80.3823Z" fill="black"/>
<path opacity="0.3" d="M418.534 67.0055C426.096 59.6664 438.183 59.8418 445.523 67.4025C447.324 69.2581 448.672 71.3906 449.568 73.6615C448.718 70.8182 447.204 68.1318 444.997 65.8608C437.656 58.3002 425.57 58.1155 418.007 65.4639C412.301 71.0028 410.805 79.2374 413.557 86.1888C411.581 79.5882 413.243 72.1383 418.534 67.0055Z" fill="black"/>
<path d="M297.037 190.714H294.424L300.135 168.441H302.762L297.037 190.714Z" fill="#E527BB"/>
<path d="M302.619 190.714H299.992L304.232 173.681H306.859L302.619 190.714Z" fill="#E527BB"/>
<path d="M308.185 190.714H305.558L308.385 178.864H311.012L308.185 190.714Z" fill="#E527BB"/>
<path d="M309.699 191.157H291.667C291.525 191.157 291.396 191.1 291.325 190.985C291.239 190.871 291.21 190.728 291.253 190.6L297.193 168.328C297.25 168.085 297.492 167.956 297.735 168.013C297.964 168.071 298.106 168.313 298.049 168.556L292.253 190.272H309.714C309.956 190.272 310.156 190.471 310.156 190.714C310.142 190.957 309.942 191.157 309.699 191.157Z" fill="#E527BB"/>
<path d="M291.107 174.652H270.248C269.577 174.652 269.192 174.038 269.392 173.296C269.592 172.553 270.291 171.939 270.962 171.939H291.821C292.492 171.939 292.878 172.553 292.678 173.296C292.492 174.038 291.778 174.652 291.107 174.652Z" fill="#E527BB"/>
<path d="M289.439 180.934H268.58C267.909 180.934 267.524 180.32 267.724 179.578C267.924 178.836 268.623 178.222 269.294 178.222H290.153C290.824 178.222 291.21 178.836 291.01 179.578C290.81 180.32 290.11 180.934 289.439 180.934Z" fill="#E527BB"/>
<path d="M282.416 187.216H266.911C266.24 187.216 265.854 186.602 266.054 185.86C266.254 185.117 266.954 184.503 267.625 184.503H283.13C283.801 184.503 284.186 185.117 283.986 185.86C283.801 186.602 283.087 187.216 282.416 187.216Z" fill="#E527BB"/>
</g>
</g>
<defs>
<linearGradient id="paint0_linear_1470_5063" x1="197.195" y1="102.137" x2="197.195" y2="210.122" gradientUnits="userSpaceOnUse">
<stop stop-color="#FFFFFE"/>
<stop offset="1" stop-color="#C8E7FF"/>
</linearGradient>
<linearGradient id="paint1_linear_1470_5063" x1="197.615" y1="85.8215" x2="197.615" y2="125.69" gradientUnits="userSpaceOnUse">
<stop stop-color="#C8E7FF" stop-opacity="0"/>
<stop offset="1" stop-color="#92B7D4"/>
</linearGradient>
<linearGradient id="paint2_linear_1470_5063" x1="232.308" y1="120.559" x2="189.389" y2="133.877" gradientUnits="userSpaceOnUse">
<stop stop-color="#C8E7FF"/>
<stop offset="1" stop-color="#92B7D4"/>
</linearGradient>
<linearGradient id="paint3_linear_1470_5063" x1="232.89" y1="122.437" x2="189.972" y2="135.756" gradientUnits="userSpaceOnUse">
<stop stop-color="#C8E7FF"/>
<stop offset="1" stop-color="#92B7D4"/>
</linearGradient>
<linearGradient id="paint4_linear_1470_5063" x1="232.307" y1="131.855" x2="189.389" y2="145.173" gradientUnits="userSpaceOnUse">
<stop stop-color="#C8E7FF"/>
<stop offset="1" stop-color="#92B7D4"/>
</linearGradient>
<linearGradient id="paint5_linear_1470_5063" x1="232.89" y1="133.733" x2="189.972" y2="147.052" gradientUnits="userSpaceOnUse">
<stop stop-color="#C8E7FF"/>
<stop offset="1" stop-color="#92B7D4"/>
</linearGradient>
<clipPath id="clip0_1470_5063">
<rect width="542.64" height="328.79" fill="white"/>
</clipPath>
<clipPath id="clip1_1470_5063">
<rect width="400" height="290" fill="white" transform="translate(71 38.8)"/>
</clipPath>
</defs>
</svg>
