<svg width="21" height="21" viewBox="0 0 21 21" fill="none" xmlns="http://www.w3.org/2000/svg">
<path d="M14.4375 19.3594C14.8905 19.3594 15.2578 19.7266 15.2578 20.1797C15.2578 20.6327 14.8905 21 14.4375 21H6.5625C6.10945 21 5.74219 20.6327 5.74219 20.1797C5.74219 19.7266 6.10945 19.3594 6.5625 19.3594H14.4375ZM5.94727 1.14844C6.40031 1.14844 6.76758 1.5157 6.76758 1.96875C6.76758 2.4218 6.40031 2.78906 5.94727 2.78906H4.92188C3.10971 2.78906 1.64062 4.25815 1.64062 6.07031V12.7979C1.64069 14.6095 3.10928 16.0781 4.9209 16.0781H16.0781C17.8903 16.0781 19.3594 14.609 19.3594 12.7969V11.3203C19.3594 10.8673 19.7266 10.5 20.1797 10.5C20.6327 10.5 21 10.8673 21 11.3203V12.7969C21 15.5151 18.7964 17.7188 16.0781 17.7188H4.9209C2.20318 17.7187 6.23617e-05 15.5156 0 12.7979V6.07031C0 3.35206 2.20362 1.14844 4.92188 1.14844H5.94727ZM13.9521 0C15.3341 2.5324e-05 16.5256 0.772913 17.1582 1.89062L18.502 0.892578C18.5211 0.878337 18.5412 0.865056 18.5615 0.852539C19.6272 0.196735 21 0.963406 21 2.21484V7.21875L20.9961 7.33496C20.9144 8.51666 19.5948 9.21599 18.5625 8.58105C18.545 8.57028 18.5274 8.55893 18.5107 8.54688L17.1631 7.56934C16.5283 8.68689 15.3276 9.43357 13.9521 9.43359H11.8535C9.81482 9.43359 8.16207 7.78091 8.16211 5.74219V3.69141C8.16216 1.65271 9.81485 0 11.8535 0H13.9521ZM11.8535 1.64062C10.7209 1.64062 9.80276 2.55878 9.80273 3.69141V5.74219C9.8027 6.87478 10.7209 7.79297 11.8535 7.79297H13.9521C14.9623 7.79294 15.795 7.07753 15.9688 6.12793L15.9941 6.02637C16.0679 5.79492 16.241 5.60547 16.4697 5.51367C16.7313 5.40882 17.0287 5.44594 17.2568 5.61133L19.3594 7.13574V2.2998L17.2646 3.85742C17.0371 4.02654 16.7384 4.06678 16.4746 3.96289C16.2108 3.85896 16.0198 3.6256 15.9688 3.34668C15.792 2.38021 14.9454 1.64066 13.9521 1.64062H11.8535Z" fill="url(#paint0_linear_1949_12701)"/>
<defs>
<linearGradient id="paint0_linear_1949_12701" x1="10.5" y1="0" x2="10.5" y2="21" gradientUnits="userSpaceOnUse">
<stop stop-color="#E527BB"/>
<stop offset="1" stop-color="#A78BEF"/>
</linearGradient>
</defs>
</svg>
