<svg width="37" height="37" viewBox="0 0 37 37" fill="none" xmlns="http://www.w3.org/2000/svg">
<path fill-rule="evenodd" clip-rule="evenodd" d="M0 26.4286V34.7976C0 35.3817 0.231686 35.942 0.644852 36.3551C1.05802 36.7683 1.61831 37 2.20238 37H10.5714C11.0577 37 11.4524 36.6053 11.4524 36.119C11.4524 35.6328 11.0577 35.2381 10.5714 35.2381H2.20238C2.08521 35.2381 1.97333 35.1914 1.89052 35.1095C1.80859 35.0267 1.7619 34.9148 1.7619 34.7976V26.4286C1.7619 25.9423 1.36724 25.5476 0.880952 25.5476C0.394667 25.5476 0 25.9423 0 26.4286ZM26.4286 37H34.7976C35.3817 37 35.942 36.7683 36.3551 36.3551C36.7683 35.942 37 35.3817 37 34.7976V26.4286C37 25.9423 36.6053 25.5476 36.119 25.5476C35.6328 25.5476 35.2381 25.9423 35.2381 26.4286V34.7976C35.2381 34.9148 35.1914 35.0267 35.1095 35.1095C35.0267 35.1914 34.9148 35.2381 34.7976 35.2381H26.4286C25.9423 35.2381 25.5476 35.6328 25.5476 36.119C25.5476 36.6053 25.9423 37 26.4286 37ZM37 10.5714V2.20238C37 1.61831 36.7683 1.05802 36.3551 0.644852C35.942 0.231686 35.3817 0 34.7976 0H26.4286C25.9423 0 25.5476 0.394667 25.5476 0.880952C25.5476 1.36724 25.9423 1.7619 26.4286 1.7619H34.7976C34.9148 1.7619 35.0267 1.80859 35.1095 1.89052C35.1914 1.97333 35.2381 2.08521 35.2381 2.20238V10.5714C35.2381 11.0577 35.6328 11.4524 36.119 11.4524C36.6053 11.4524 37 11.0577 37 10.5714ZM10.5714 0H2.20238C1.61831 0 1.05802 0.231686 0.644852 0.644852C0.231686 1.05802 0 1.61831 0 2.20238V10.5714C0 11.0577 0.394667 11.4524 0.880952 11.4524C1.36724 11.4524 1.7619 11.0577 1.7619 10.5714V2.20238C1.7619 2.08521 1.80859 1.97333 1.89052 1.89052C1.97333 1.80859 2.08521 1.7619 2.20238 1.7619H10.5714C11.0577 1.7619 11.4524 1.36724 11.4524 0.880952C11.4524 0.394667 11.0577 0 10.5714 0Z" fill="#DAA7EE"/>
<path fill-rule="evenodd" clip-rule="evenodd" d="M27.7825 13.2128H25.1123C24.9652 13.2128 24.8278 13.1388 24.7458 13.0163L23.1812 10.6694C22.7734 10.0572 22.0853 9.68896 21.3489 9.68896H15.7161C14.9796 9.68896 14.2915 10.0572 13.8837 10.6694L12.3191 13.0163C12.2372 13.1388 12.0997 13.2128 11.9526 13.2128H9.28246C8.69839 13.2128 8.1381 13.4445 7.72493 13.8576C7.31176 14.2708 7.08008 14.8311 7.08008 15.4152V25.1056C7.08008 26.3222 8.06586 27.308 9.28246 27.308H27.7825C28.9991 27.308 29.9848 26.3222 29.9848 25.1056V15.4152C29.9848 14.8311 29.7532 14.2708 29.34 13.8576C28.9268 13.4445 28.3665 13.2128 27.7825 13.2128ZM25.1123 14.9747H27.7825C27.8996 14.9747 28.0115 15.0214 28.0943 15.1033C28.1762 15.1861 28.2229 15.298 28.2229 15.4152V25.1056C28.2229 25.3488 28.0256 25.5461 27.7825 25.5461H9.28246C9.03932 25.5461 8.84198 25.3488 8.84198 25.1056V15.4152C8.84198 15.298 8.88867 15.1861 8.9706 15.1033C9.05341 15.0214 9.16529 14.9747 9.28246 14.9747H11.9526C12.6882 14.9747 13.3762 14.6065 13.785 13.9942L15.3496 11.6473C15.4315 11.5249 15.5689 11.4509 15.7161 11.4509H21.3489C21.496 11.4509 21.6334 11.5249 21.7153 11.6473L23.2799 13.9942C23.6887 14.6065 24.3767 14.9747 25.1123 14.9747Z" fill="#DAA7EE"/>
<path fill-rule="evenodd" clip-rule="evenodd" d="M18.5205 14.9521C16.0902 14.9521 14.1172 16.9264 14.1172 19.3567C14.1172 21.787 16.0902 23.76 18.5205 23.76C20.9508 23.76 22.9251 21.787 22.9251 19.3567C22.9251 16.9264 20.9508 14.9521 18.5205 14.9521ZM18.5205 16.7137C19.9784 16.7137 21.1622 17.8988 21.1622 19.3567C21.1622 20.8147 19.9784 21.9984 18.5205 21.9984C17.0626 21.9984 15.8788 20.8147 15.8788 19.3567C15.8788 17.8988 17.0626 16.7137 18.5205 16.7137Z" fill="#DAA7EE"/>
</svg>
