<svg width="42" height="46" viewBox="0 0 42 46" fill="none" xmlns="http://www.w3.org/2000/svg">
<path d="M5.75 16.5312H4.3125C3.91557 16.5312 3.59375 16.8531 3.59375 17.25C3.59375 17.6469 3.91557 17.9688 4.3125 17.9688H5.75C6.93903 17.9688 7.90625 17.0015 7.90625 15.8125C7.90625 14.6235 6.93903 13.6562 5.75 13.6562C5.35378 13.6562 5.03125 13.3337 5.03125 12.9375C5.03125 12.5413 5.35378 12.2188 5.75 12.2188H7.1875C7.58443 12.2188 7.90625 11.8969 7.90625 11.5C7.90625 11.1031 7.58443 10.7812 7.1875 10.7812H5.75C4.56097 10.7812 3.59375 11.7485 3.59375 12.9375C3.59375 14.1265 4.56097 15.0938 5.75 15.0938C6.14622 15.0938 6.46875 15.4163 6.46875 15.8125C6.46875 16.2087 6.14622 16.5312 5.75 16.5312Z" fill="#DAA7EE"/>
<path d="M31.542 35.2953C32.9537 33.2229 33.7812 30.7224 33.7812 28.0312C33.7812 26.5204 33.5251 25.0453 33.0204 23.65C32.8156 23.0757 32.5479 22.5101 32.2498 21.954L35.9375 18.2664V20.125C35.9375 20.5219 36.259 20.8438 36.6562 20.8438C37.0535 20.8438 37.375 20.5219 37.375 20.125V16.5312C37.375 16.1343 37.0535 15.8125 36.6562 15.8125H33.0625C32.6652 15.8125 32.3438 16.1343 32.3438 16.5312C32.3438 16.9282 32.6652 17.25 33.0625 17.25H34.9211L24.4375 27.7336L21.3519 24.6481C21.0712 24.3673 20.6163 24.3673 20.3356 24.6481L16.0231 28.9606C15.7423 29.2413 15.7423 29.6962 16.0231 29.9769C16.1635 30.1173 16.3474 30.1875 16.5312 30.1875C16.7151 30.1875 16.899 30.1173 17.0394 29.9769L20.8438 26.1726L23.9293 29.2582C24.2101 29.5389 24.6649 29.5389 24.9457 29.2582L28.4219 25.782C28.5334 26.1633 28.6193 26.5544 28.6714 26.9577C28.724 27.3143 28.75 27.6656 28.75 28.0312C28.75 32.3908 25.2033 35.9375 20.8438 35.9375C16.4842 35.9375 12.9375 32.3908 12.9375 28.0312C12.9375 23.6717 16.4842 20.125 20.8438 20.125C23.2436 20.125 25.4819 21.1908 26.984 23.0491C27.2332 23.358 27.6852 23.4057 27.9948 23.1565C28.3036 22.907 28.3513 22.4543 28.1014 22.1458C26.3256 19.9478 23.6801 18.6875 20.8438 18.6875C15.6914 18.6875 11.5 22.8789 11.5 28.0312C11.5 33.1836 15.6914 37.375 20.8438 37.375C25.9957 37.375 30.1875 33.1836 30.1875 28.0312C30.1875 27.594 30.1566 27.1739 30.0956 26.7605C30.0016 26.0336 29.8168 25.3269 29.5536 24.6502L31.1881 23.0158C31.3686 23.3852 31.533 23.7583 31.6678 24.1357C32.1163 25.377 32.3438 26.6875 32.3438 28.0312C32.3438 34.3723 27.1848 39.5312 20.8438 39.5312C14.5027 39.5312 9.34375 34.3723 9.34375 28.0312C9.34375 21.6902 14.5027 16.5312 20.8438 16.5312C24.1925 16.5312 27.363 17.9856 29.5417 20.5216C29.8022 20.8237 30.2556 20.856 30.5553 20.5981C30.8564 20.3394 30.8908 19.8857 30.6325 19.5845C28.1801 16.7306 24.6123 15.0938 20.8438 15.0938V13.6562C20.8438 12.8894 20.5444 12.1679 20.0008 11.6242C19.4571 11.0806 18.7356 10.7812 17.9688 10.7812C16.3835 10.7812 15.0938 12.071 15.0938 13.6562V15.0938C15.0938 15.5216 15.2 15.9386 15.3809 16.3203C14.7791 16.6022 14.1962 16.9181 13.649 17.2858C13.6497 17.2733 13.6562 17.2627 13.6562 17.25C13.6562 16.8531 13.3344 16.5312 12.9375 16.5312H10.7812V15.0938H12.9375C13.3344 15.0938 13.6562 14.7719 13.6562 14.375C13.6562 13.9781 13.3344 13.6562 12.9375 13.6562H10.7812V12.2188H12.9375C13.3344 12.2188 13.6562 11.8969 13.6562 11.5C13.6562 11.1031 13.3344 10.7812 12.9375 10.7812H10.0625C9.66557 10.7812 9.34375 11.1031 9.34375 11.5V17.25C9.34375 17.6469 9.66557 17.9688 10.0625 17.9688H12.7299C9.79192 20.3424 7.90625 23.9688 7.90625 28.0312C7.90625 35.1651 13.7099 40.9688 20.8438 40.9688C23.5349 40.9688 26.0356 40.1411 28.1081 38.7293L33.2148 44.8573C33.8199 45.5834 34.705 46 35.6427 46C37.3904 46 38.8125 44.5779 38.8125 42.8302C38.8125 41.8921 38.3956 41.0074 37.6698 40.4023L31.542 35.2953ZM16.5312 15.0938V13.6562C16.5312 12.8634 17.1759 12.2188 17.9688 12.2188C18.3516 12.2188 18.7124 12.3686 18.9844 12.6406C19.2564 12.9126 19.4062 13.2734 19.4062 13.6562V15.0938C19.4062 15.123 19.4002 15.1508 19.3984 15.1797C18.4698 15.2835 17.5737 15.4909 16.7147 15.7813C16.5999 15.5719 16.5312 15.3367 16.5312 15.0938ZM35.6427 44.5625C35.1324 44.5625 34.6502 44.3347 34.3196 43.9371L29.2462 37.849C29.7539 37.414 30.2269 36.941 30.6619 36.4334L36.7496 41.5068C37.1469 41.8377 37.375 42.3203 37.375 42.8302C37.375 43.7855 36.598 44.5625 35.6427 44.5625Z" fill="#DAA7EE"/>
<path d="M38.0938 0H3.59375C1.61227 0 0 1.61227 0 3.59375V35.2188C0 37.2002 1.61227 38.8125 3.59375 38.8125H10.5872C10.9841 38.8125 11.3059 38.4907 11.3059 38.0938C11.3059 37.6968 10.9841 37.375 10.5872 37.375H3.59375C2.40472 37.375 1.4375 36.4078 1.4375 35.2188V8.625H40.25V35.2188C40.25 36.4078 39.2828 37.375 38.0938 37.375H37.1378C36.7405 37.375 36.419 37.6968 36.419 38.0938C36.419 38.4907 36.7405 38.8125 37.1378 38.8125H38.0938C40.0752 38.8125 41.6875 37.2002 41.6875 35.2188V3.59375C41.6875 1.61227 40.0752 0 38.0938 0ZM1.4375 7.1875V3.59375C1.4375 2.40472 2.40472 1.4375 3.59375 1.4375H15.5272C16.7822 1.4375 17.9631 2.10606 18.6089 3.18243L21.0119 7.1875H1.4375ZM22.6882 7.1875L19.8414 2.44263C19.6183 2.07075 19.3488 1.73436 19.044 1.4375H38.0938C39.2828 1.4375 40.25 2.40472 40.25 3.59375V7.1875H22.6882Z" fill="#DAA7EE"/>
<path d="M3.59375 4.3125C3.9907 4.3125 4.3125 3.9907 4.3125 3.59375C4.3125 3.1968 3.9907 2.875 3.59375 2.875C3.1968 2.875 2.875 3.1968 2.875 3.59375C2.875 3.9907 3.1968 4.3125 3.59375 4.3125Z" fill="#DAA7EE"/>
<path d="M6.46875 4.3125C6.8657 4.3125 7.1875 3.9907 7.1875 3.59375C7.1875 3.1968 6.8657 2.875 6.46875 2.875C6.0718 2.875 5.75 3.1968 5.75 3.59375C5.75 3.9907 6.0718 4.3125 6.46875 4.3125Z" fill="#DAA7EE"/>
<path d="M9.34375 4.3125C9.7407 4.3125 10.0625 3.9907 10.0625 3.59375C10.0625 3.1968 9.7407 2.875 9.34375 2.875C8.9468 2.875 8.625 3.1968 8.625 3.59375C8.625 3.9907 8.9468 4.3125 9.34375 4.3125Z" fill="#DAA7EE"/>
</svg>
