<svg width="543" height="329" viewBox="0 0 543 329" fill="none" xmlns="http://www.w3.org/2000/svg">
<g clip-path="url(#clip0_1325_12121)">
<path opacity="0.2" d="M78.788 327.839C41.4882 290.535 -9.49424 252.012 10.4949 193.818C23.6478 155.541 55.8804 144.88 82.6859 121.276C95.9087 109.631 87.5932 92.6757 87.3433 75.8481C86.7836 32.7513 139.135 -0.687543 187.269 0.010739C239.401 0.768031 261.969 48.9102 305.705 51.4968C322.876 51.7426 338.257 42.4781 353.449 35.1314C398.465 13.3371 469.906 27.2339 473.514 79.9296C474.444 108.392 439.183 154.174 474.514 169.143C502.668 181.072 531.113 185.469 536.19 228.133C542.837 283.976 507.716 314.621 461.971 329L78.788 327.839Z" fill="#999999"/>
<g clip-path="url(#clip1_1325_12121)">
<path d="M316.24 125.97C316.463 123.98 316.58 121.957 316.58 119.909C316.58 118.827 316.546 117.754 316.482 116.689L306.472 113.448C305.856 109.225 304.646 105.196 302.928 101.446L309.566 93.2722C308.032 90.5684 306.271 88.0102 304.308 85.6245L294.295 88.8935C291.377 85.9111 288.043 83.3386 284.384 81.2696L284.954 70.7439C282.16 69.4711 279.238 68.4295 276.215 67.6443L270.033 76.1817C267.623 75.7764 265.149 75.5611 262.624 75.5611C260.903 75.5611 259.206 75.6624 257.535 75.854L251.811 67C248.746 67.6237 245.773 68.5086 242.919 69.6294L242.932 80.1709C239.162 82.0453 235.698 84.4388 232.632 87.2614L222.809 83.4684C220.723 85.7512 218.827 88.2112 217.154 90.828L223.352 99.3432C221.433 103.005 220.011 106.966 219.174 111.14L209.008 113.847C208.785 115.837 208.668 117.86 208.668 119.909C208.668 120.99 208.703 122.063 208.766 123.128L218.777 126.369C219.394 130.593 220.604 134.621 222.32 138.372L215.682 146.545C217.217 149.249 218.978 151.807 220.941 154.193L230.953 150.924C233.87 153.906 237.205 156.48 240.864 158.548L240.295 169.073C243.088 170.346 246.01 171.388 249.034 172.173L255.216 163.635C257.625 164.041 260.099 164.256 262.624 164.256C264.345 164.256 266.043 164.155 267.713 163.963L273.437 172.816C276.503 172.192 279.475 171.307 282.329 170.186L282.317 159.645C286.086 157.77 289.551 155.377 292.617 152.554L302.438 156.347C304.524 154.064 306.419 151.604 308.093 148.988L301.895 140.472C303.814 136.811 305.238 132.85 306.073 128.675L316.24 125.97ZM262.624 141.085C250.937 141.085 241.461 131.604 241.461 119.909C241.461 108.213 250.935 98.7306 262.624 98.7306C274.313 98.7306 283.788 108.211 283.788 119.909C283.788 131.604 274.312 141.085 262.624 141.085Z" fill="#A78BEF"/>
<path d="M291.489 144.061C291.31 144.061 291.131 144.001 290.984 143.877C290.649 143.597 290.603 143.099 290.881 142.763C296.2 136.363 299.13 128.246 299.13 119.909C299.13 115.916 298.478 111.995 297.19 108.256C297.048 107.843 297.268 107.391 297.681 107.249C298.094 107.106 298.544 107.327 298.687 107.74C300.031 111.645 300.713 115.74 300.713 119.909C300.713 128.615 297.654 137.093 292.099 143.776C291.94 143.963 291.715 144.061 291.489 144.061Z" fill="white"/>
<path d="M288.424 94.078C288.229 94.078 288.035 94.0068 287.881 93.8627C284.308 90.4956 280.168 87.9421 275.577 86.2752C275.165 86.1264 274.953 85.6721 275.102 85.2605C275.251 84.8489 275.705 84.6367 276.116 84.7871C280.911 86.5285 285.235 89.1927 288.967 92.7087C289.285 93.0079 289.3 93.5097 289 93.8279C288.845 93.9941 288.634 94.078 288.424 94.078Z" fill="white"/>
<path d="M254.415 85.2509C254.061 85.2509 253.74 85.0118 253.649 84.6525C253.542 84.2282 253.8 83.7976 254.222 83.6916C257.201 82.9396 260.284 82.5581 263.385 82.5581C263.821 82.5581 264.176 82.9127 264.176 83.3496C264.176 83.7865 263.821 84.1412 263.385 84.1412C260.414 84.1412 257.462 84.5068 254.61 85.2271C254.545 85.243 254.48 85.2509 254.415 85.2509Z" fill="white"/>
<path d="M146.15 260.061C146.303 258.682 146.386 257.282 146.386 255.862C146.386 255.113 146.36 254.369 146.318 253.632L139.384 251.387C138.957 248.462 138.118 245.671 136.929 243.074L141.526 237.413C140.463 235.541 139.243 233.769 137.884 232.117L130.95 234.38C128.929 232.314 126.619 230.532 124.086 229.101L124.48 221.811C122.545 220.929 120.522 220.209 118.427 219.664L114.145 225.577C112.476 225.295 110.763 225.148 109.013 225.148C107.82 225.148 106.645 225.218 105.488 225.351L101.524 219.219C99.3995 219.652 97.3413 220.264 95.3654 221.04L95.3749 228.341C92.7647 229.639 90.3648 231.297 88.2402 233.252L81.4378 230.625C79.9918 232.207 78.6804 233.91 77.5192 235.723L81.8127 241.62C80.4838 244.156 79.4983 246.899 78.9177 249.79L71.8763 251.664C71.7229 253.043 71.6406 254.444 71.6406 255.862C71.6406 256.611 71.6659 257.355 71.7087 258.093L78.6424 260.338C79.0696 263.263 79.908 266.054 81.0976 268.65L76.5004 274.311C77.5635 276.184 78.7832 277.955 80.1421 279.608L87.0759 277.344C89.0977 279.41 91.4073 281.193 93.9401 282.624L93.5462 289.914C95.4809 290.795 97.5043 291.516 99.5988 292.06L103.881 286.148C105.55 286.429 107.263 286.577 109.013 286.577C110.206 286.577 111.381 286.505 112.538 286.374L116.502 292.505C118.627 292.073 120.685 291.46 122.661 290.685L122.651 283.384C125.262 282.085 127.661 280.428 129.786 278.473L136.588 281.099C138.034 279.518 139.346 277.814 140.507 276.002L136.213 270.105C137.542 267.569 138.528 264.825 139.108 261.935L146.15 260.061ZM109.013 270.529C100.918 270.529 94.3546 263.963 94.3546 255.861C94.3546 247.759 100.917 241.192 109.013 241.192C117.108 241.192 123.672 247.759 123.672 255.861C123.672 263.963 117.108 270.529 109.013 270.529Z" fill="#A78BEF"/>
<path d="M129.004 272.834C128.826 272.834 128.647 272.774 128.5 272.65C128.164 272.37 128.119 271.872 128.397 271.536C132.045 267.146 134.054 261.58 134.054 255.861C134.054 253.122 133.606 250.432 132.724 247.868C132.581 247.455 132.801 247.003 133.214 246.861C133.627 246.719 134.078 246.939 134.22 247.352C135.16 250.083 135.636 252.945 135.636 255.859C135.636 261.947 133.497 267.873 129.614 272.546C129.457 272.736 129.232 272.834 129.004 272.834Z" fill="white"/>
<path d="M126.883 238.213C126.689 238.213 126.494 238.142 126.341 237.997C123.889 235.688 121.051 233.937 117.901 232.794C117.49 232.645 117.278 232.191 117.426 231.779C117.575 231.368 118.029 231.156 118.44 231.304C121.793 232.522 124.816 234.385 127.424 236.843C127.742 237.143 127.758 237.644 127.458 237.963C127.304 238.13 127.094 238.213 126.883 238.213Z" fill="white"/>
<path d="M103.329 232.099C102.975 232.099 102.654 231.86 102.563 231.501C102.456 231.077 102.714 230.646 103.136 230.54C105.22 230.014 107.374 229.747 109.543 229.747C109.98 229.747 110.334 230.101 110.334 230.538C110.334 230.975 109.98 231.33 109.543 231.33C107.506 231.33 105.481 231.58 103.524 232.074C103.457 232.093 103.392 232.099 103.329 232.099Z" fill="white"/>
<path d="M348.553 166.301C348.553 165.893 348.54 165.486 348.519 165.082L353.715 160.908C353.308 158.825 352.671 156.825 351.827 154.937L345.12 154.429C343.595 152.021 341.621 149.926 339.314 148.263L339.292 141.574C337.424 140.594 335.432 139.817 333.344 139.279L328.759 144.216C327.968 144.131 327.166 144.087 326.353 144.087C324.333 144.087 322.376 144.359 320.515 144.864L315.259 140.697C313.275 141.56 311.41 142.644 309.698 143.923L310.693 150.555C308.733 152.507 307.137 154.823 306.01 157.394L299.471 158.91C298.918 160.93 298.586 163.042 298.504 165.219L304.264 168.551C304.557 171.47 305.416 174.221 306.727 176.696L303.843 182.74C305.08 184.432 306.502 185.982 308.081 187.354L314.257 184.934C316.686 186.515 319.441 187.635 322.401 188.166L325.312 194.165C325.658 194.177 326.006 194.187 326.358 194.187C328.103 194.187 329.81 194.025 331.466 193.718L333.429 187.365C336.289 186.405 338.887 184.875 341.094 182.914L347.585 184.373C348.917 182.809 350.078 181.097 351.043 179.262L347.281 173.732C348.103 171.407 348.553 168.907 348.553 166.301ZM326.109 176.089C320.946 176.089 316.758 171.901 316.758 166.732C316.758 161.565 320.944 157.375 326.109 157.375C331.273 157.375 335.46 161.563 335.46 166.732C335.459 171.899 331.273 176.089 326.109 176.089Z" fill="#E527BB"/>
<g opacity="0.8">
<path d="M434.993 112.395H426.957C423.853 112.395 421.328 109.869 421.328 106.763V98.7211C421.328 95.6152 423.853 93.0886 426.957 93.0886H434.993C438.097 93.0886 440.622 95.6152 440.622 98.7211V106.763C440.62 109.869 438.095 112.395 434.993 112.395ZM426.957 95.3049C425.074 95.3049 423.543 96.8373 423.543 98.7211V106.763C423.543 108.647 425.074 110.179 426.957 110.179H434.993C436.876 110.179 438.407 108.647 438.407 106.763V98.7211C438.407 96.8373 436.876 95.3049 434.993 95.3049H426.957Z" fill="#A78BEF"/>
</g>
<g opacity="0.8">
<path d="M397.177 112.395H389.14C386.037 112.395 383.512 109.869 383.512 106.763V98.7211C383.512 95.6152 386.037 93.0886 389.14 93.0886H397.177C400.281 93.0886 402.805 95.6152 402.805 98.7211V106.763C402.805 109.869 400.281 112.395 397.177 112.395ZM389.14 95.3049C387.258 95.3049 385.726 96.8373 385.726 98.7211V106.763C385.726 108.647 387.258 110.179 389.14 110.179H397.177C399.059 110.179 400.591 108.647 400.591 106.763V98.7211C400.591 96.8373 399.059 95.3049 397.177 95.3049H389.14Z" fill="#A78BEF"/>
</g>
<path d="M393.659 107.713C393.643 107.713 393.629 107.713 393.613 107.711C393.334 107.697 393.075 107.562 392.906 107.341L387.13 99.8008C386.81 99.3845 386.889 98.7876 387.305 98.4695C387.722 98.1513 388.316 98.2288 388.636 98.6452L393.73 105.294L407.029 91.0355C407.387 90.6524 407.988 90.6318 408.371 90.9896C408.754 91.3473 408.774 91.9489 408.417 92.332L394.353 107.411C394.173 107.604 393.921 107.713 393.659 107.713Z" fill="#E527BB"/>
<path d="M125.267 116.238H56.4922V229.041H125.267V116.238Z" fill="#E527BB"/>
<path d="M123.006 118.536H60.0938V224.741H123.006V118.536Z" fill="white"/>
<path d="M78.9141 161.125C81.2823 156.028 85.2894 154.396 91.8704 154.396C99.7059 154.396 103.775 157.235 104.928 161.372C90.8959 161.564 78.9141 161.125 78.9141 161.125Z" fill="#9BD6E8"/>
<path d="M89.1345 129.603C85.8171 130.536 85.9627 132.401 84.8569 134.131C83.7511 135.863 81.3481 137.017 81.0602 138.171C80.7722 139.325 81.8005 141.729 80.5792 143.077C79.3595 144.424 78.9451 145.097 79.426 146.442C79.9069 147.789 80.9637 149.904 81.0602 150.192C81.1567 150.481 82.5013 152.501 84.1355 152.789C85.7697 153.077 88.845 153.558 90.3827 154.231C91.9204 154.904 96.8656 153.37 99.6103 153.465C102.355 153.561 104.223 151.538 104.032 150.191C103.841 148.844 106.055 146.151 106.051 143.843C106.044 141.364 103.167 139.515 102.398 137.88C101.629 136.244 102.494 133.358 99.6103 131.65C97.7879 130.571 96.535 130.666 95.0922 130.186C93.6526 129.706 91.2496 129.008 89.1345 129.603Z" fill="#3A384D"/>
<path d="M93.17 158.464C92.4201 159.572 91.8696 159.618 91.0549 158.464C90.4079 157.546 89.1328 155.461 89.1328 154.403V143.845C89.1328 142.787 89.9982 141.921 91.0549 141.921H93.17C94.2268 141.921 95.0921 142.787 95.0921 143.845V154.403C95.0921 155.463 93.8423 157.471 93.17 158.464Z" fill="#F09959"/>
<path d="M93.17 141.921H91.0549C89.9982 141.921 89.1328 142.787 89.1328 143.845V153.265C91.5073 154.022 93.6747 152.518 95.0921 150.824V143.845C95.0921 142.787 94.2268 141.921 93.17 141.921Z" fill="#E38540"/>
<path d="M92.1138 150.743C95.6436 150.743 98.505 146.842 98.505 142.029C98.505 137.216 95.6436 133.314 92.1138 133.314C88.5841 133.314 85.7227 137.216 85.7227 142.029C85.7227 146.842 88.5841 150.743 92.1138 150.743Z" fill="#F09959"/>
<path d="M95.0941 135.093C91.0569 141.923 85.0977 141.248 85.0977 141.248C85.0977 141.248 85.2416 132.207 89.9749 131.726C94.7081 131.245 97.4956 133.146 98.4574 136.284C99.4192 139.421 98.4574 141.489 98.4574 141.489C98.4574 141.489 96.9197 140.287 96.1509 138.362C95.382 136.439 95.0941 135.093 95.0941 135.093Z" fill="#3A384D"/>
<path d="M85.9379 144.898C86.7768 144.499 86.9723 143.155 86.3744 141.895C85.7766 140.635 84.6119 139.937 83.7729 140.336C82.934 140.735 82.7385 142.079 83.3364 143.339C83.9342 144.599 85.0989 145.296 85.9379 144.898Z" fill="#F09959"/>
<path d="M97.5611 141.894C96.9631 143.154 97.1593 144.498 97.9978 144.897C98.8362 145.296 100.002 144.598 100.6 143.34C101.198 142.079 101.002 140.735 100.163 140.337C99.3234 139.938 98.1591 140.634 97.5611 141.894Z" fill="#F09959"/>
<path d="M94.517 146.756C94.517 146.756 93.4412 148.152 92.114 148.152C90.7867 148.152 89.7109 146.756 89.7109 146.756H94.517Z" fill="white"/>
<path d="M99.7202 174.951H83.5793C82.5479 174.951 81.7031 174.106 81.7031 173.074C81.7031 172.04 82.5479 171.196 83.5793 171.196H99.7202C100.752 171.196 101.596 172.042 101.596 173.074C101.596 174.106 100.753 174.951 99.7202 174.951Z" fill="#A78BEF"/>
<path d="M102.677 180.721H80.6262C79.5948 180.721 78.75 179.876 78.75 178.844C78.75 177.81 79.5948 176.966 80.6262 176.966H102.677C103.709 176.966 104.554 177.812 104.554 178.844C104.555 179.876 103.71 180.721 102.677 180.721Z" fill="#A78BEF"/>
<path d="M118.47 201.474H64.8306C64.231 201.474 63.7422 200.983 63.7422 200.385C63.7422 199.786 64.2326 199.295 64.8306 199.295H118.472C119.072 199.295 119.56 199.786 119.56 200.385C119.56 200.983 119.07 201.474 118.47 201.474Z" fill="#A78BEF"/>
<path d="M118.47 206.539H64.8306C64.231 206.539 63.7422 206.049 63.7422 205.45C63.7422 204.85 64.2326 204.361 64.8306 204.361H118.472C119.072 204.361 119.56 204.852 119.56 205.45C119.56 206.049 119.07 206.539 118.47 206.539Z" fill="#A78BEF"/>
<path d="M118.47 211.605H64.8306C64.231 211.605 63.7422 211.114 63.7422 210.516C63.7422 209.916 64.2326 209.427 64.8306 209.427H118.472C119.072 209.427 119.56 209.918 119.56 210.516C119.56 211.114 119.07 211.605 118.47 211.605Z" fill="#A78BEF"/>
<path d="M110.967 162.379H72.331C71.2584 162.379 70.3867 161.506 70.3867 160.433V124.8C70.3867 123.727 71.2584 122.855 72.331 122.855H110.967C112.04 122.855 112.912 123.727 112.912 124.8V160.433C112.912 161.505 112.04 162.379 110.967 162.379ZM72.331 124.436C72.1348 124.436 71.9687 124.602 71.9687 124.799V160.432C71.9687 160.628 72.1348 160.794 72.331 160.794H110.967C111.164 160.794 111.33 160.628 111.33 160.432V124.8C111.33 124.604 111.164 124.438 110.967 124.438H72.331V124.436Z" fill="#E527BB"/>
<path d="M77.9086 185.621L79.0271 187.889L81.5282 188.252L79.7184 190.019L80.1471 192.51L77.9086 191.334L75.6717 192.51L76.0988 190.019L74.2891 188.252L76.7902 187.889L77.9086 185.621Z" fill="#E527BB"/>
<path d="M87.0727 185.621L88.1911 187.889L90.6922 188.252L88.8824 190.019L89.3096 192.51L87.0727 191.334L84.8358 192.51L85.2629 190.019L83.4531 188.252L85.9542 187.889L87.0727 185.621Z" fill="#E527BB"/>
<path d="M96.2328 185.621L97.3513 187.889L99.8524 188.252L98.0426 190.019L98.4697 192.51L96.2328 191.334L93.9959 192.51L94.4231 190.019L92.6133 188.252L95.1144 187.889L96.2328 185.621Z" fill="#E527BB"/>
<path d="M105.395 185.621L106.513 187.889L109.014 188.252L107.204 190.019L107.631 192.51L105.395 191.334L103.156 192.51L103.585 190.019L101.773 188.252L104.276 187.889L105.395 185.621Z" fill="#E527BB"/>
<path d="M278.595 116.238H209.82V229.041H278.595V116.238Z" fill="#E527BB"/>
<path d="M276.334 118.536H213.422V224.741H276.334V118.536Z" fill="white"/>
<path d="M235.23 141.452C235.23 146.505 238.271 154.657 245.442 154.395C252.613 154.134 254.2 146.363 254.477 144.17C254.755 141.978 235.23 141.452 235.23 141.452Z" fill="#7A4E34"/>
<path d="M232.242 161.125C234.61 156.027 238.618 154.395 245.199 154.395C253.034 154.395 257.103 157.235 258.256 161.372C244.224 161.563 232.242 161.125 232.242 161.125Z" fill="#D54A41"/>
<path d="M246.498 158.464C245.748 159.572 245.198 159.618 244.383 158.464C243.736 157.546 242.461 155.461 242.461 154.403V143.844C242.461 142.787 243.326 141.921 244.383 141.921H246.498C247.555 141.921 248.42 142.787 248.42 143.844V154.403C248.42 155.462 247.172 157.471 246.498 158.464Z" fill="#F09959"/>
<path d="M246.498 141.921H244.383C243.326 141.921 242.461 142.787 242.461 143.844V153.265C244.835 154.022 247.003 152.518 248.42 150.824V143.844C248.42 142.787 247.556 141.921 246.498 141.921Z" fill="#E38540"/>
<path d="M245.442 150.743C248.972 150.743 251.833 146.842 251.833 142.029C251.833 137.216 248.972 133.314 245.442 133.314C241.912 133.314 239.051 137.216 239.051 142.029C239.051 146.842 241.912 150.743 245.442 150.743Z" fill="#F09959"/>
<path d="M248.956 135.404C248.197 138.084 246.533 138.052 244.212 138.932C241.891 139.812 240.782 140.697 240.023 142.412C239.055 144.598 240.463 150.973 240.463 150.973C240.463 150.973 234.585 146.572 235.266 139.652C235.946 132.731 240.023 130.051 243.861 130.051C247.698 130.051 249.157 132.391 249.157 132.391C249.157 132.391 251.201 132.399 253.134 134.691C255.733 137.772 254.933 145.252 253.134 147.932C251.335 150.612 250.136 151.452 250.176 151.332C250.215 151.212 251.854 145.057 250.975 141.251C250.095 137.447 248.956 135.404 248.956 135.404Z" fill="#7A4E34"/>
<path d="M247.845 146.756C247.845 146.756 246.769 148.152 245.442 148.152C244.115 148.152 243.039 146.756 243.039 146.756H247.845Z" fill="white"/>
<path d="M253.048 174.951H236.907C235.874 174.951 235.031 174.106 235.031 173.074C235.031 172.04 235.876 171.196 236.907 171.196H253.048C254.081 171.196 254.925 172.042 254.925 173.074C254.926 174.106 254.081 174.951 253.048 174.951Z" fill="#A78BEF"/>
<path d="M256.005 180.721H233.954C232.921 180.721 232.078 179.876 232.078 178.844C232.078 177.81 232.923 176.966 233.954 176.966H256.005C257.038 176.966 257.882 177.812 257.882 178.844C257.882 179.876 257.037 180.721 256.005 180.721Z" fill="#A78BEF"/>
<path d="M271.8 201.474H218.159C217.559 201.474 217.07 200.983 217.07 200.385C217.07 199.786 217.561 199.295 218.159 199.295H271.8C272.4 199.295 272.889 199.786 272.889 200.385C272.889 200.983 272.398 201.474 271.8 201.474Z" fill="#A78BEF"/>
<path d="M271.8 206.539H218.159C217.559 206.539 217.07 206.049 217.07 205.45C217.07 204.85 217.561 204.361 218.159 204.361H271.8C272.4 204.361 272.889 204.852 272.889 205.45C272.889 206.049 272.398 206.539 271.8 206.539Z" fill="#A78BEF"/>
<path d="M271.8 211.605H218.159C217.559 211.605 217.07 211.114 217.07 210.516C217.07 209.916 217.561 209.427 218.159 209.427H271.8C272.4 209.427 272.889 209.918 272.889 210.516C272.889 211.114 272.398 211.605 271.8 211.605Z" fill="#A78BEF"/>
<path d="M264.296 162.379H225.659C224.586 162.379 223.715 161.506 223.715 160.433V124.8C223.715 123.727 224.586 122.855 225.659 122.855H264.296C265.368 122.855 266.24 123.727 266.24 124.8V160.433C266.24 161.505 265.368 162.379 264.296 162.379ZM225.659 124.436C225.463 124.436 225.297 124.602 225.297 124.799V160.432C225.297 160.628 225.463 160.794 225.659 160.794H264.296C264.492 160.794 264.658 160.628 264.658 160.432V124.8C264.658 124.604 264.492 124.438 264.296 124.438H225.659V124.436Z" fill="#E527BB"/>
<path d="M231.237 185.621L232.355 187.889L234.856 188.252L233.047 190.019L233.474 192.51L231.237 191.334L229 192.51L229.427 190.019L227.617 188.252L230.118 187.889L231.237 185.621Z" fill="#E527BB"/>
<path d="M240.397 185.621L241.515 187.889L244.016 188.252L242.207 190.019L242.634 192.51L240.397 191.334L238.16 192.51L238.587 190.019L236.777 188.252L239.278 187.889L240.397 185.621Z" fill="#E527BB"/>
<path d="M249.563 185.621L250.681 187.889L253.182 188.252L251.372 190.019L251.799 192.51L249.563 191.334L247.324 192.51L247.753 190.019L245.941 188.252L248.444 187.889L249.563 185.621Z" fill="#E527BB"/>
<path d="M258.721 185.621L259.84 187.889L262.341 188.252L260.531 190.019L260.958 192.51L258.721 191.334L256.484 192.51L256.911 190.019L255.102 188.252L257.603 187.889L258.721 185.621Z" fill="#E527BB"/>
<path opacity="0.2" d="M217.549 227.912H109.012L116.689 116.657H221.463L217.549 227.912Z" fill="#99BBEB"/>
<path d="M214.35 95.604H120.414V249.676H214.35V95.604Z" fill="#E527BB"/>
<path d="M211.261 98.7432H125.332V243.804H211.261V98.7432Z" fill="white"/>
<path d="M160.288 129.212C160.228 129.032 158.724 120.391 158.543 117.03C158.363 113.67 163.939 113.19 163.939 113.19C163.939 113.19 168.497 110.73 171.796 111.99C175.094 113.25 177.339 115.37 178.837 118.01C180.337 120.651 177.517 128.88 177.517 128.88L160.288 129.212Z" fill="#2E2D3D"/>
<path d="M149.95 156.974C149.929 156.831 150.334 153.431 150.35 153.293C151.11 146.133 159.931 144.118 168.733 144.118C179.074 144.118 186.09 146.011 187.209 153.453C187.242 153.672 187.838 157.08 187.808 157.309C168.641 157.574 149.95 156.974 149.95 156.974Z" fill="#D5E1E8"/>
<path d="M170.508 149.678C169.483 151.191 168.731 151.254 167.619 149.678C166.735 148.424 163.781 145.565 163.781 144.12L164.993 129.709C164.993 128.264 166.175 127.081 167.619 127.081H170.508C171.952 127.081 173.134 128.264 173.134 129.709L173.697 144.12C173.695 145.565 171.425 148.321 170.508 149.678Z" fill="#F09959"/>
<path d="M170.508 127.083H167.619C166.175 127.083 164.993 128.265 164.993 129.711L163.941 142.494C167.184 143.527 171.563 141.427 173.5 139.114L173.133 129.711C173.133 128.265 171.951 127.083 170.508 127.083Z" fill="#E38540"/>
<path d="M159.152 145.171L163.783 153.735C163.783 153.735 166.262 151.694 166.501 152.095C166.741 152.495 166.061 157.544 166.061 157.544C166.061 157.544 171.577 157.618 171.818 157.379C172.058 157.138 170.698 151.895 171.258 151.895C171.818 151.895 173.501 153.415 173.501 153.415L178.671 145.171L177.535 144.894L169.065 149.454L160.005 144.993L159.152 145.171Z" fill="#BDCCD4"/>
<path d="M164.445 149.117L167.883 151.425L166.818 157.553L171.455 157.295L170.297 151.721L173.146 149.117L171.808 147.854H165.784L164.445 149.117Z" fill="#D54A41"/>
<path d="M164.022 140.973L159.77 145.022C159.77 145.022 164.103 152.733 164.343 152.733C164.583 152.733 168.02 148.481 168.02 148.481L170.22 148.443L173.697 152.093L177.738 144.941L173.618 140.572C173.618 140.572 170.1 147.373 169.461 147.533C168.822 147.693 168.817 147.773 168.3 147.373C167.782 146.972 164.022 140.973 164.022 140.973Z" fill="#D5E1E8"/>
<path d="M169.065 139.131C173.886 139.131 177.795 133.802 177.795 127.228C177.795 120.655 173.886 115.325 169.065 115.325C164.244 115.325 160.336 120.655 160.336 127.228C160.336 133.802 164.244 139.131 169.065 139.131Z" fill="#F09959"/>
<path d="M161.228 127.045C162.044 128.766 161.777 130.602 160.631 131.147C159.486 131.691 157.895 130.738 157.078 129.017C156.262 127.297 156.529 125.46 157.675 124.916C158.82 124.371 160.411 125.324 161.228 127.045Z" fill="#F09959"/>
<path d="M176.504 127.045C175.688 128.766 175.955 130.602 177.1 131.147C178.246 131.691 179.837 130.738 180.654 129.017C181.47 127.297 181.202 125.46 180.057 124.916C178.912 124.371 177.32 125.324 176.504 127.045Z" fill="#F09959"/>
<path d="M172.937 132.112C172.937 132.112 171.203 134.922 169.064 134.922C166.925 134.922 165.191 132.112 165.191 132.112H172.937Z" fill="white"/>
<path d="M163.94 119.131C167.537 116.611 169.157 117.03 171.854 121.172C174.553 125.311 177.791 125.386 177.791 125.386L178.21 121.093C178.21 121.093 174.191 113.312 168.795 114.331C163.399 115.351 160.329 120.212 160.329 120.212C160.329 120.212 160.067 129.323 160.82 129.633C161.573 129.943 161.66 126.693 162.199 126.033C162.739 125.373 161.66 122.253 162.38 120.812C163.101 119.372 163.94 119.131 163.94 119.131Z" fill="#2E2D3D"/>
<path d="M175.516 123.812C176.772 125.188 176.296 130.653 176.955 130.592C177.615 130.532 177.855 125.372 177.675 124.832C177.495 124.292 175.516 123.812 175.516 123.812Z" fill="#2E2D3D"/>
<path d="M188.483 175.796H148.383C146.974 175.796 145.82 174.642 145.82 173.232C145.82 171.821 146.974 170.667 148.383 170.667H188.483C189.892 170.667 191.046 171.821 191.046 173.232C191.046 174.641 189.892 175.796 188.483 175.796Z" fill="#A78BEF"/>
<path d="M183.491 183.677H153.371C151.962 183.677 150.809 182.523 150.809 181.112C150.809 179.702 151.962 178.548 153.371 178.548H183.491C184.9 178.548 186.053 179.702 186.053 181.112C186.055 182.523 184.902 183.677 183.491 183.677Z" fill="#A78BEF"/>
<path d="M205.065 212.023H131.8C130.982 212.023 130.312 211.353 130.312 210.535C130.312 209.716 130.982 209.047 131.8 209.047H205.065C205.883 209.047 206.552 209.716 206.552 210.535C206.552 211.353 205.883 212.023 205.065 212.023Z" fill="#A78BEF"/>
<path d="M205.065 218.941H131.8C130.982 218.941 130.312 218.271 130.312 217.453C130.312 216.634 130.982 215.965 131.8 215.965H205.065C205.883 215.965 206.552 216.634 206.552 217.453C206.552 218.271 205.883 218.941 205.065 218.941Z" fill="#A78BEF"/>
<path d="M205.065 225.859H131.8C130.982 225.859 130.312 225.189 130.312 224.371C130.312 223.552 130.982 222.883 131.8 222.883H205.065C205.883 222.883 206.552 223.552 206.552 224.371C206.552 225.189 205.883 225.859 205.065 225.859Z" fill="#A78BEF"/>
<path d="M194.818 158.334H142.046C140.741 158.334 139.68 157.272 139.68 155.966V107.298C139.68 105.992 140.741 104.93 142.046 104.93H194.818C196.123 104.93 197.184 105.992 197.184 107.298V155.967C197.183 157.272 196.123 158.334 194.818 158.334ZM142.046 106.513C141.614 106.513 141.262 106.864 141.262 107.298V155.967C141.262 156.399 141.613 156.752 142.046 156.752H194.818C195.25 156.752 195.602 156.401 195.602 155.967V107.298C195.602 106.866 195.251 106.513 194.818 106.513H142.046Z" fill="#E527BB"/>
<path d="M143.309 190.37L144.835 193.468L148.252 193.963L145.78 196.376L146.363 199.78L143.309 198.173L140.252 199.78L140.836 196.376L138.363 193.963L141.78 193.468L143.309 190.37Z" fill="#E527BB"/>
<path d="M155.823 190.37L157.351 193.468L160.766 193.963L158.294 196.376L158.877 199.78L155.823 198.173L152.766 199.78L153.35 196.376L150.879 193.963L154.294 193.468L155.823 190.37Z" fill="#E527BB"/>
<path d="M168.334 190.37L169.862 193.468L173.278 193.963L170.807 196.376L171.389 199.78L168.334 198.173L165.278 199.78L165.862 196.376L163.391 193.963L166.806 193.468L168.334 190.37Z" fill="#E527BB"/>
<path d="M180.85 190.37L182.378 193.468L185.794 193.963L183.323 196.376L183.906 199.78L180.85 198.173L177.795 199.78L178.379 196.376L175.906 193.963L179.322 193.468L180.85 190.37Z" fill="#E527BB"/>
<path d="M193.561 190.37L195.089 193.468L198.505 193.963L196.033 196.376L196.617 199.78L193.561 198.173L190.506 199.78L191.088 196.376L188.617 193.963L192.033 193.468L193.561 190.37Z" fill="#E527BB"/>
<path d="M365.216 244.724H244.675C243.95 244.724 243.363 244.136 243.363 243.411V241.444C243.363 240.719 243.95 240.131 244.675 240.131H365.215C365.939 240.131 366.526 240.719 366.526 241.444V243.411C366.528 244.136 365.941 244.724 365.216 244.724Z" fill="#2E5B9A"/>
<path d="M396.256 178.579C397.888 184.342 393.9 190.28 389.505 191.527C385.111 192.774 381.975 188.86 380.343 183.097C378.71 177.335 380.947 171.653 385.342 170.406C389.736 169.159 394.623 172.819 396.256 178.579Z" fill="#F09959"/>
<path d="M371.617 290.233C371.617 290.233 382.879 307.737 384.399 308.498C385.919 309.26 389.722 309.45 388.297 312.304C386.871 315.158 386.3 326.384 384.97 326.953C383.639 327.525 372.232 328.856 373.942 326.953C375.654 325.051 376.706 326.002 377.57 322.578C378.433 319.154 379.647 312.684 378.03 311.353C376.413 310.021 366.527 298.034 366.527 298.034L371.617 290.233Z" fill="#F09959"/>
<path d="M314.935 297.75C314.935 297.75 301.244 320.327 298.71 322.358C296.174 324.387 287.809 327.432 294.654 327.94C301.499 328.446 304.794 325.657 309.104 324.387C313.413 323.118 318.738 322.358 316.71 319.06C314.682 315.763 315.523 308.563 319.896 303.996C324.267 299.429 314.935 297.75 314.935 297.75Z" fill="#F09959"/>
<path d="M384.795 245.393C384.795 245.393 350.906 244.507 337.47 255.541C329.611 267.464 310.599 302.644 309.121 306.521C310.135 307.536 315.84 309.368 318.374 309.113C325.852 300.189 335.738 292.475 339.669 285.475C344.513 276.849 346.006 272.536 353.866 271.775C361.725 271.013 379.471 268.477 384.795 268.477C390.118 268.477 384.795 245.393 384.795 245.393Z" fill="#231F20"/>
<path d="M414.347 328H412.57L399.832 274.816H403.741L414.347 328Z" fill="#2E5B9A"/>
<path d="M361.137 328H362.913L377.531 272.935H373.622L361.137 328Z" fill="#2E5B9A"/>
<path d="M404.105 243.071L384.402 246.475C384.402 246.475 358.219 246.715 346.251 248.946C335.362 250.975 333.758 263.356 346.251 280.402C353.348 290.086 359.348 297.811 371.619 306.521C374.741 304.227 375.935 303.36 376.797 297.843C375.91 296.624 373.61 288.998 372.896 287.506C366.11 273.309 357.05 268.145 356.925 266.749C358.446 264.276 397.214 279.641 404.923 270.602C412.282 261.973 404.105 243.071 404.105 243.071Z" fill="#231F20"/>
<path d="M404.921 198.436C399.732 197.707 394.447 198.694 389.505 202.274C385.186 206.68 380.297 213.946 380.598 225.93C380.978 241.151 378.244 242.128 381.096 246.313C392.991 251.229 413.335 272.346 408.544 249.706C405.074 233.312 416.151 221.092 407.216 202.908C406.487 201.429 405.579 199.993 404.921 198.436Z" fill="#E527BB"/>
<path d="M380.594 231.657C380.363 239.592 379.243 241.93 380.099 244.417C384.947 244.912 393.818 246.855 396.034 249.959C398.57 253.51 401.104 254.018 399.921 251.396C398.737 248.775 395.612 245.055 400.429 232.286C405.246 219.517 407.527 210.891 402.795 202.013L380.594 231.657Z" fill="#D54A41"/>
<path d="M404.922 198.436C401.726 190.865 400.942 182.361 400.942 182.361L392.576 184.834C392.576 184.834 397.33 195.488 392.766 199.294C391.796 200.103 390.671 201.084 389.504 202.274C394.448 198.694 399.733 197.706 404.922 198.436Z" fill="#F09959"/>
<path d="M401.194 184.377C400.699 183.935 400.079 183.384 399.427 182.809L392.604 184.826C392.599 184.839 392.595 184.851 392.59 184.863C392.754 185.239 394.493 189.298 394.721 193.202C396.754 191.967 398.981 189.955 401.526 186.439C401.389 185.659 401.28 184.962 401.194 184.377Z" fill="#E38540"/>
<path d="M399.04 200.815C390.424 203.831 391.38 212.914 383.449 226.31C379.346 233.242 375.533 233.139 375.533 233.139C375.533 233.139 365.908 233.217 354.267 231.792C346.977 230.901 346.514 233.071 351.584 234.885C361.81 238.544 372.42 242.481 380.975 241.529C389.53 240.578 404.164 218.733 404.918 213.047C405.966 205.184 403.379 199.297 399.04 200.815Z" fill="#F09959"/>
<path d="M394.603 277.032C394.067 277.032 393.519 277.026 392.956 277.012C385.934 276.837 381.155 275.865 377.314 275.085C372.829 274.173 370.359 273.671 367.483 275.045C366.379 275.573 365.058 275.106 364.53 274.001C364.001 272.896 364.47 271.574 365.574 271.045C369.787 269.03 373.315 269.747 378.195 270.741C381.865 271.488 386.434 272.416 393.065 272.581C400.488 272.766 405.014 271.664 407.308 269.118C409.352 266.85 409.95 263.04 409.19 257.127C408.931 255.104 408.67 253.419 408.441 251.934C407.794 247.744 407.365 244.977 407.895 240.698C408.387 236.725 409.701 231.431 412.747 221.168C413.095 219.995 414.327 219.327 415.501 219.674C416.673 220.022 417.342 221.255 416.994 222.43C411.32 241.554 411.608 243.418 412.818 251.257C413.052 252.769 413.316 254.482 413.584 256.562C414.52 263.855 413.572 268.788 410.598 272.088C407.536 275.484 402.565 277.032 394.603 277.032Z" fill="#2E5B9A"/>
<path d="M315.866 316.779C306.782 321.224 301.894 323.772 298.981 323.529C298.293 323.472 297.724 323.401 297.246 323.327C294.006 325.242 288.836 327.506 294.653 327.938C301.498 328.445 304.794 325.655 309.103 324.386C313.412 323.116 318.737 322.356 316.709 319.059C316.321 318.427 316.038 317.652 315.866 316.779Z" fill="#A78BEF"/>
<path d="M385.391 308.869C385.17 316.065 384.181 323.197 379.782 324.544C378.616 324.902 377.553 324.953 376.613 324.828C375.922 325.684 375.077 325.694 373.944 326.952C372.232 328.855 383.64 327.524 384.972 326.952C386.304 326.381 386.874 315.157 388.299 312.303C389.47 309.958 387.114 309.41 385.391 308.869Z" fill="#A78BEF"/>
<path d="M350.401 240.76H321.542C320.68 240.76 319.897 240.26 319.533 239.478L307.871 214.363C307.355 213.253 307.838 211.934 308.947 211.418C310.057 210.902 311.373 211.385 311.889 212.495L322.955 236.327H350.399C351.622 236.327 352.614 237.32 352.614 238.544C352.614 239.767 351.623 240.76 350.401 240.76Z" fill="#E527BB"/>
<path d="M356.438 232.044C350.607 231.96 344.825 228.482 341.951 228.988C339.078 229.497 329.697 236.008 330.88 236.261C332.063 236.514 339.5 232.658 339.753 232.599C340.006 232.541 341.612 235.27 345.584 236.274C349.557 237.276 345.613 233.294 357.924 237.016C365.93 239.435 356.438 232.044 356.438 232.044Z" fill="#F09959"/>
<path d="M404.062 191.527L404.92 198.436C404.92 198.436 397.374 198.885 393.62 200.998C389.866 203.112 384.324 209.221 384.324 209.221L388.852 201.421L389.504 196.431L404.062 191.527Z" fill="#A78BEF"/>
<path d="M400.851 199.984C395.246 198.933 392.654 203.959 389.021 212.161C385.387 220.364 379.184 230.326 377.95 231.61C376.716 232.894 357.161 231.61 357.161 231.61C357.161 231.61 356.57 237.276 357.161 237.952C357.753 238.627 361.134 238.544 361.134 238.544C361.134 238.544 362.486 239.623 363.753 240.48C365.021 241.335 375.753 242.941 380.739 242.688C385.725 242.435 390.288 242.012 390.963 241.251C391.639 240.489 405.245 219.519 406.09 211.991C406.935 204.465 403.711 200.52 400.851 199.984Z" fill="#A78BEF"/>
<path d="M384.324 165.481C373.725 165.989 375.388 181.945 375.388 181.945C375.388 181.945 378.14 182.795 383.908 181.844C383.465 180.131 383.655 175.755 383.655 175.755C383.655 175.755 384.326 179.308 385.177 181.464C386.397 182.023 387.776 181.527 390.121 180.96C391.325 186.031 394.727 188.173 397.058 188.906C399.631 189.716 402.357 190.682 405.399 189.159C408.441 187.636 406.769 172.078 405.153 168.948C402.727 164.251 398.698 160.048 391.726 162.268C388.229 163.382 384.324 165.481 384.324 165.481Z" fill="#231F20"/>
<path d="M402.758 184.432L407.091 190.766C407.091 190.766 402.288 202.773 416.257 208.214C427.196 212.474 425.907 219.982 420.965 227.532C416.021 235.081 423.923 241.675 423.923 241.675C423.923 241.675 425.128 233.312 435.756 231.733C450.249 229.58 454.352 210.11 443.527 200.375C434.57 192.319 431.844 198.989 425.78 191.76C419.717 184.53 408.271 189.414 408.271 189.414L404.076 183.292L402.758 184.432Z" fill="#231F20"/>
<path d="M448.512 219.987C448.449 219.987 448.386 219.971 448.327 219.94C448.14 219.837 448.072 219.602 448.174 219.416C451.819 212.751 448.844 204.677 447.349 202.491C447.191 202.26 447.041 202.024 446.881 201.776C445.412 199.48 443.583 196.625 433.825 194.866C431.474 194.443 429.573 193.045 427.557 191.565C423.397 188.508 418.679 185.043 408.433 189.764C408.238 189.852 408.011 189.768 407.922 189.575C407.833 189.382 407.917 189.153 408.11 189.064C418.77 184.155 423.682 187.761 428.013 190.945C429.954 192.369 431.786 193.716 433.961 194.109C444.051 195.926 445.979 198.941 447.53 201.361C447.686 201.605 447.834 201.834 447.985 202.058C449.552 204.348 452.668 212.808 448.851 219.789C448.781 219.916 448.648 219.987 448.512 219.987Z" fill="#231F20"/>
<path d="M400.441 190.922C399.748 190.922 398.998 190.862 398.19 190.74C394.482 190.185 389.507 188.076 389.117 176.233C389.111 176.021 389.277 175.842 389.489 175.836C389.706 175.831 389.88 175.996 389.886 176.208C390.048 181.089 391.014 184.701 392.762 186.943C394.089 188.646 395.85 189.61 398.304 189.977C401.735 190.492 404.01 189.857 405.064 188.092C405.173 187.91 405.41 187.85 405.592 187.959C405.774 188.068 405.834 188.306 405.725 188.488C404.761 190.107 402.988 190.922 400.441 190.922Z" fill="#231F20"/>
<path d="M256.285 328H259.133L270.211 243.258H263.945L256.285 328Z" fill="#2E5B9A"/>
<path d="M352.918 328H350.071L338.992 243.258H345.257L352.918 328Z" fill="#2E5B9A"/>
<path d="M464.598 256.47C469.525 260.972 467.383 265.473 463.741 273.833C460.099 282.193 459.457 313.062 459.457 313.062L462.456 312.633C462.456 312.633 462.028 280.907 466.098 272.332C470.169 263.757 471.882 259.47 475.524 262.258C479.165 265.045 464.598 256.47 464.598 256.47Z" fill="#74B570"/>
<path d="M461.895 250.641C462.493 247.974 466.048 245.086 470.798 242.637C470.091 246.573 467.826 253.006 470.17 254.325C473.333 256.104 470.479 247.122 471.698 242.185C476.161 240.005 481.527 238.222 486.471 237.336C486.465 237.355 486.458 237.372 486.45 237.39C483.666 244.464 480.024 247.25 481.524 248.322C482.652 249.128 486.327 240.956 491.179 236.767C494.821 236.573 497.902 237.067 499.725 238.512C502.542 240.744 504.433 242.724 501.599 249.52C499.981 250.678 497.883 251.507 495.447 251.751C489.021 252.394 486.022 252.609 490.519 254.752C492.723 255.802 496.415 254.692 499.408 254.018C498.437 255.808 497.243 257.836 495.792 260.144C494.871 261.609 493.859 262.88 492.781 263.978C490.711 264.376 488.904 264.38 487.948 263.97C484.949 262.685 477.237 258.612 475.31 260.326C473.423 262.004 489.592 263.068 488.472 267.333C480.635 271.851 471.667 269.701 470.082 265.552C467.956 259.983 460.093 258.672 461.895 250.641Z" fill="#39B039"/>
<path d="M478.095 281.121C469.525 274.691 460.742 280.692 456.245 287.552C451.746 294.411 454.96 309.846 454.96 309.846C454.96 309.846 456.673 309.846 456.673 309.203C456.673 308.56 451.961 290.982 463.099 283.049C470.068 278.088 475.096 280.477 475.738 282.836C476.38 285.194 472.954 289.481 472.954 289.481L478.095 281.121Z" fill="#74B570"/>
<path d="M458.389 267.903C466.958 267.903 469.742 281.194 467.385 288.911C465.028 296.629 461.815 310.992 461.815 310.992L459.673 308.848C459.673 308.848 467.814 288.698 465.886 279.695C463.957 270.692 459.245 269.191 458.387 269.191C457.533 269.188 458.389 267.903 458.389 267.903Z" fill="#9CD499"/>
<path d="M465.576 288.97C466.178 288.171 466.923 287.51 467.832 287.073C467.713 287.711 467.564 288.327 467.387 288.91C466.313 292.426 465.062 297.321 464.017 301.609C463.923 301.06 463.777 300.214 463.551 298.908C463.497 298.6 463.456 298.266 463.426 297.911C464.264 295.055 465.057 291.945 465.576 288.97Z" fill="#74B570"/>
<path d="M467.919 289.035C484.199 282.175 475.622 272.763 489.975 278.978C490.986 279.416 492.218 280.52 493.452 282.042C492.174 282.405 490.625 282.666 488.904 282.408C484.62 281.765 486.12 285.194 493.188 286.052C494.52 286.214 495.602 286.437 496.501 286.752C499.869 293.225 501.386 301.742 494.259 304.702C492.854 305.286 491.119 305.619 489.187 305.744C486.988 303.995 489.723 293.873 486.333 295.27C483.078 296.611 487.354 303.947 486.768 305.796C483.555 305.738 479.998 305.212 476.598 304.37C475.253 303.615 474.225 302.603 473.909 301.273C472.838 296.771 479.907 293.985 480.121 290.126C480.319 286.578 477.53 297.93 470.143 299.6C463.464 296.478 460.308 292.24 467.919 289.035Z" fill="#39B039"/>
<path d="M456.317 276.906C458.03 273.261 453.533 272.403 453.746 275.191C453.936 277.661 453.957 283.664 451.426 285.297C447.061 284.824 441.122 283.064 436.633 280.382C436.576 280.019 436.631 279.646 436.821 279.264C438.749 275.405 451.174 272.19 447.317 270.904C444.247 269.88 438.865 275.926 434.529 278.972C431.925 276.994 430.18 274.637 430.18 272.006C430.18 268.444 434.503 264.414 440.096 262.487C442.612 262.741 444.951 264.118 448.602 266.188C453.996 269.247 452.748 264.301 447.648 261.366C452.05 261.594 456.44 263.477 459.679 267.974C459.679 267.974 459.372 269.896 461.406 272.87C466.953 280.984 460.552 285.718 452.9 285.411C453.335 283.271 455.134 279.424 456.317 276.906Z" fill="#39B039"/>
<path d="M477.581 280.759C481.77 283.998 486.425 287.786 492.137 290.358C497.85 292.931 496.707 301.315 496.707 301.315C496.707 301.315 497.565 294.074 492.803 291.596C488.043 289.119 484.9 286.165 481.282 285.593C477.664 285.022 475.664 284.45 475.664 284.45C475.664 284.45 476.806 282.163 476.14 281.306C475.474 280.45 477.581 280.759 477.581 280.759Z" fill="#74B570"/>
<path d="M498.23 242.718C482.901 246.815 471.666 256.628 469.571 259.011C467.477 261.393 467.477 262.06 467.477 262.06L469.095 265.109L469.856 264.727C469.856 264.727 468.619 262.155 471.855 258.819C477.438 253.068 484.233 248.529 488.898 246.528C493.565 244.529 498.23 242.718 498.23 242.718Z" fill="#74B570"/>
<path d="M455.919 327.628H461.775C465.94 327.628 469.316 324.25 469.316 320.082V306.616H448.379V320.082C448.377 324.25 451.753 327.628 455.919 327.628Z" fill="#E31E23"/>
<path d="M469.312 309.024H448.375V310.499H469.312V309.024Z" fill="white"/>
<path d="M469.312 311.714H448.375V312.581H469.312V311.714Z" fill="white"/>
<path d="M73.9696 309.296H78.9655C80.0207 309.296 80.8765 308.44 80.8765 307.384V303.267C80.8765 302.211 80.0207 301.354 78.9655 301.354H73.9696C72.9144 301.354 72.0586 302.211 72.0586 303.267V307.384C72.0602 308.442 72.916 309.296 73.9696 309.296Z" fill="#A78BEF"/>
<path d="M57.9384 309.296H62.9342C63.9894 309.296 64.8452 308.44 64.8452 307.384V303.267C64.8452 302.211 63.9894 301.354 62.9342 301.354H57.9384C56.8832 301.354 56.0273 302.211 56.0273 303.267V307.384C56.0289 308.442 56.8848 309.296 57.9384 309.296Z" fill="#A78BEF"/>
<path d="M41.911 309.296H46.9069C47.9621 309.296 48.8179 308.44 48.8179 307.384V303.267C48.8179 302.211 47.9621 301.354 46.9069 301.354H41.911C40.8558 301.354 40 302.211 40 303.267V307.384C40 308.442 40.8558 309.296 41.911 309.296Z" fill="#A78BEF"/>
<path d="M498.103 161.327V156.328C498.103 155.272 497.247 154.416 496.194 154.416H492.079C491.024 154.416 490.168 155.272 490.168 156.328V161.327C490.168 162.383 491.024 163.24 492.079 163.24H496.194C497.247 163.238 498.103 162.382 498.103 161.327Z" fill="#E527BB"/>
<path d="M498.103 177.368V172.367C498.103 171.311 497.247 170.455 496.194 170.455H492.079C491.024 170.455 490.168 171.311 490.168 172.367V177.367C490.168 178.423 491.024 179.279 492.079 179.279H496.194C497.247 179.279 498.103 178.423 498.103 177.368Z" fill="#E527BB"/>
<path d="M498.103 193.409V188.41C498.103 187.354 497.247 186.499 496.194 186.499H492.079C491.024 186.499 490.168 187.356 490.168 188.41V193.409C490.168 194.465 491.024 195.32 492.079 195.32H496.194C497.247 195.32 498.103 194.465 498.103 193.409Z" fill="#E527BB"/>
<path d="M110.907 162.379H72.3911C71.2837 162.379 70.3867 161.481 70.3867 160.373V124.86C70.3867 123.752 71.2837 122.855 72.3911 122.855H110.907C112.015 122.855 112.912 123.752 112.912 124.86V160.373C112.912 161.479 112.015 162.379 110.907 162.379Z" fill="#A78BEF"/>
<path d="M264.259 162.379H225.743C224.635 162.379 223.738 161.481 223.738 160.373V124.86C223.738 123.752 224.635 122.855 225.743 122.855H264.259C265.366 122.855 266.263 123.752 266.263 124.86V160.373C266.263 161.479 265.366 162.379 264.259 162.379Z" fill="#A78BEF"/>
<path d="M195.181 158.334H141.508C140.401 158.334 139.504 157.436 139.504 156.328V106.681C139.504 105.572 140.401 104.675 141.508 104.675H195.183C196.29 104.675 197.187 105.572 197.187 106.681V156.328C197.186 157.436 196.289 158.334 195.181 158.334Z" fill="#E527BB"/>
</g>
</g>
<defs>
<clipPath id="clip0_1325_12121">
<rect width="542.64" height="328.79" fill="white"/>
</clipPath>
<clipPath id="clip1_1325_12121">
<rect width="463" height="261" fill="white" transform="translate(40 67)"/>
</clipPath>
</defs>
</svg>
