<svg width="543" height="329" viewBox="0 0 543 329" fill="none" xmlns="http://www.w3.org/2000/svg">
<g clip-path="url(#clip0_1569_3359)">
<path opacity="0.2" d="M78.788 349.839C41.4882 312.535 -9.49424 274.012 10.4949 215.818C23.6478 177.541 55.8804 166.88 82.6859 143.276C95.9087 131.631 87.5932 114.676 87.3433 97.8481C86.7836 54.7513 139.135 21.3125 187.269 22.0107C239.401 22.768 261.969 70.9102 305.705 73.4968C322.876 73.7426 338.257 64.4781 353.449 57.1314C398.465 35.3371 469.906 49.2339 473.514 101.93C474.444 130.392 439.183 176.174 474.514 191.143C502.668 203.072 531.113 207.469 536.19 250.133C542.837 305.976 507.716 336.621 461.971 351L78.788 349.839Z" fill="#999999"/>
<g clip-path="url(#clip1_1569_3359)">
<path d="M289.352 82.3579H342.313V106.819V108.85V121.018L327.158 108.85H289.352V82.3579Z" fill="#E527BB"/>
<path d="M342.647 121.72L327.032 109.184H289.008V82.0237H342.647V121.72ZM289.686 108.507H327.275L327.367 108.582L341.977 120.316V82.6922H289.686V108.507Z" fill="#1B2746"/>
<path d="M335.257 89.0353H297.585C297.401 89.0353 297.25 88.8848 297.25 88.701C297.25 88.5171 297.401 88.3667 297.585 88.3667H335.257C335.441 88.3667 335.592 88.5171 335.592 88.701C335.592 88.8848 335.441 89.0353 335.257 89.0353Z" fill="#0E2549"/>
<path d="M335.258 94.9103H310.522C310.338 94.9103 310.188 94.7598 310.188 94.576C310.188 94.3921 310.338 94.2417 310.522 94.2417H335.258C335.442 94.2417 335.593 94.3921 335.593 94.576C335.593 94.7598 335.442 94.9103 335.258 94.9103Z" fill="#0E2549"/>
<path d="M253.528 59.3342H205.906V81.798V83.6533V94.835L219.529 83.6533H253.528V59.3342Z" fill="#A78BEF"/>
<path d="M205.562 95.5454V59H253.863V83.996H219.654L205.562 95.5454ZM206.24 59.6686V94.1164L219.412 83.3191H253.193V59.6686H206.24Z" fill="#1B2746"/>
<path d="M246.119 65.4935H212.889C212.705 65.4935 212.555 65.3431 212.555 65.1592C212.555 64.9754 212.705 64.825 212.889 64.825H246.119C246.303 64.825 246.453 64.9754 246.453 65.1592C246.453 65.3431 246.303 65.4935 246.119 65.4935Z" fill="#0E2549"/>
<path d="M246.119 70.8922H212.889C212.705 70.8922 212.555 70.7418 212.555 70.5579C212.555 70.3741 212.705 70.2236 212.889 70.2236H246.119C246.303 70.2236 246.453 70.3741 246.453 70.5579C246.453 70.7418 246.303 70.8922 246.119 70.8922Z" fill="#0E2549"/>
<path d="M228.211 76.2823H212.889C212.705 76.2823 212.555 76.1319 212.555 75.9481C212.555 75.7642 212.705 75.6138 212.889 75.6138H228.211C228.395 75.6138 228.546 75.7642 228.546 75.9481C228.546 76.1319 228.395 76.2823 228.211 76.2823Z" fill="#0E2549"/>
<path d="M172.368 222.28L360.664 221.921C361.702 221.921 362.555 220.709 362.555 219.23V218.921C362.555 217.442 361.702 216.23 360.664 216.23L172.368 216.589C171.33 216.589 170.477 217.801 170.477 219.28V219.589C170.477 221.068 171.33 222.28 172.368 222.28Z" fill="#EBF4FE"/>
<path d="M172.367 222.615C171.136 222.615 170.141 221.261 170.141 219.589V219.28C170.141 217.609 171.136 216.255 172.367 216.255L360.663 215.896C361.893 215.896 362.889 217.249 362.889 218.921V219.23C362.889 220.901 361.893 222.255 360.663 222.255L172.367 222.615ZM360.663 216.556L172.367 216.915C171.521 216.915 170.818 217.993 170.818 219.272V219.581C170.818 220.86 171.53 221.929 172.367 221.938L360.663 221.578C361.508 221.578 362.211 220.5 362.211 219.222V218.912C362.211 217.634 361.5 216.556 360.663 216.556Z" fill="#0E2549"/>
<path d="M369.018 328.666H374.716L348.441 221.954H342.742L369.018 328.666Z" fill="#EBF4FE"/>
<path d="M375.121 328.983H368.77L368.711 328.741L342.344 221.637H348.695L348.754 221.879L375.121 328.983ZM369.272 328.348H374.318L348.201 222.272H343.155L369.272 328.348Z" fill="#0E2549"/>
<path d="M173.066 328.666H167.367L183.082 222.28H188.781L173.066 328.666Z" fill="#EBF4FE"/>
<path d="M173.361 329H166.984L182.8 221.938H189.176L173.361 329ZM167.754 328.332H172.775L188.39 222.615H183.369L167.754 328.332Z" fill="#0E2549"/>
<path d="M239.076 210.906H259.912L255.477 189.855H234.633L239.076 210.906Z" fill="#F9E5EF"/>
<path d="M260.327 211.249H238.797L234.211 189.521H255.742L260.327 211.249ZM239.341 210.572H259.499L255.198 190.189H235.039L239.341 210.572Z" fill="#1B2746"/>
<path d="M248.773 174.654L248.807 175.489L251.903 175.372L251.87 174.537L248.773 174.654Z" fill="white"/>
<path d="M196.902 194.853H296.473C299.837 194.853 302.565 192.128 302.565 188.769L286.699 119.873C286.222 116.171 283.971 113.789 280.607 113.789H181.045C177.681 113.789 174.953 116.513 174.953 119.873L190.819 188.769C191.605 192.153 193.538 194.853 196.902 194.853Z" fill="#E527BB"/>
<path d="M296.48 195.187H196.901C193.771 195.187 191.428 192.872 190.483 188.844L174.617 119.915V119.873C174.617 116.338 177.496 113.455 181.044 113.455H280.614C284.07 113.455 286.531 115.887 287.033 119.815L302.898 188.735V188.777C302.898 192.312 300.02 195.187 296.48 195.187ZM175.287 119.84L191.136 188.693C191.646 190.866 193.069 194.51 196.893 194.51H296.463C299.626 194.51 302.195 191.953 302.212 188.802L286.355 119.932V119.915C285.895 116.288 283.736 114.123 280.598 114.123H181.044C177.881 114.132 175.312 116.689 175.287 119.84Z" fill="#0E2549"/>
<path d="M196.6 184.456H295.827L279.97 119.288H180.742L196.6 184.456Z" fill="#F9E5EF"/>
<path d="M296.251 184.791H196.337L180.312 118.954H280.235L280.293 119.213L296.251 184.791ZM196.864 184.114H295.397L279.699 119.622H181.166L196.864 184.114Z" fill="#1B2746"/>
<path d="M263.475 179.634H262.504L256.01 179.659L255.458 179.668L233.936 179.751L224.455 179.785H223.802L222.731 179.793H222.672L219.827 179.802H219.819H219.074H218.672L213.551 179.827H213.426H211.936L209.275 179.843H208.89H208.848L204.455 179.86L201.501 179.868L187.242 124.102L249.224 123.868L262.42 175.514L263.148 178.347L263.475 179.634Z" fill="#EAB7C2"/>
<path d="M271.038 210.823H227.984V216.397H271.038V210.823Z" fill="#E527BB"/>
<path d="M271.379 216.731H227.656V210.489H271.387V216.731H271.379ZM228.326 216.063H270.71V211.165H228.326V216.063Z" fill="#1B2746"/>
<path d="M236.613 104.27H221.969V109.844H236.613V104.27Z" fill="#E527BB"/>
<path d="M236.938 110.179H221.625V103.936H236.938V110.179ZM222.303 109.51H236.269V104.613H222.303V109.51Z" fill="#1B2746"/>
<path d="M243.781 189.771C243.781 191.117 244.877 192.212 246.225 192.212C247.572 192.212 248.668 191.117 248.668 189.771C248.668 188.426 247.572 187.331 246.225 187.331C244.869 187.331 243.781 188.426 243.781 189.771Z" fill="#0E2549"/>
<path d="M249.555 123.784L249.488 123.533L186.82 123.767L201.18 179.952L201.247 180.203L255.471 179.994L263.923 179.96L249.555 123.784ZM187.682 124.436L217.924 124.319L232.116 179.417L201.766 179.534L187.682 124.436ZM232.811 179.417L218.619 124.319L248.969 124.202L263.053 179.292L232.811 179.417Z" fill="#1B2746"/>
<path d="M256.384 151.53H194.344V152.198H256.384V151.53Z" fill="#1B2746"/>
<path d="M226.859 109.844L227.646 113.797H232.575L231.847 109.844H226.859Z" fill="#F9E5EF"/>
<path d="M232.973 114.132H227.366L226.438 109.51H232.119L232.973 114.132ZM227.919 113.463H232.17L231.567 110.187H227.266L227.919 113.463Z" fill="#1B2746"/>
<path d="M229.271 108.817C230.163 108.817 230.886 108.095 230.886 107.204C230.886 106.313 230.163 105.591 229.271 105.591C228.379 105.591 227.656 106.313 227.656 107.204C227.656 108.095 228.379 108.817 229.271 108.817Z" fill="#0E2549"/>
<path d="M276.352 126.45H257.139C256.955 126.45 256.805 126.3 256.805 126.116C256.805 125.932 256.955 125.781 257.139 125.781H276.352C276.536 125.781 276.687 125.932 276.687 126.116C276.687 126.3 276.545 126.45 276.352 126.45Z" fill="#1B2746"/>
<path d="M271.451 130.512H262.053C261.869 130.512 261.719 130.361 261.719 130.177C261.719 129.993 261.869 129.843 262.053 129.843H271.451C271.635 129.843 271.785 129.993 271.785 130.177C271.785 130.361 271.635 130.512 271.451 130.512Z" fill="#1B2746"/>
<path d="M276.916 177.838C273 177.838 269.82 174.654 269.82 170.751C269.82 166.84 273.009 163.664 276.916 163.664C280.833 163.664 284.012 166.848 284.012 170.751C284.012 174.654 280.833 177.838 276.916 177.838ZM276.916 164.324C273.377 164.324 270.49 167.207 270.49 170.743C270.49 174.278 273.377 177.161 276.916 177.161C280.456 177.161 283.343 174.278 283.343 170.743C283.343 167.207 280.456 164.324 276.916 164.324Z" fill="#E527BB"/>
<path d="M277.002 168.645C275.496 168.678 273.68 169.113 272.801 169.656C271.688 170.341 271.705 171.419 271.764 172.247C271.789 172.673 272.182 172.932 272.592 172.807L274.291 172.355C274.634 172.247 274.86 171.896 274.818 171.545L274.617 170.584C274.609 170.517 274.667 170.45 274.743 170.458C275.186 170.483 278.809 170.467 279.253 170.408C279.32 170.4 279.378 170.458 279.362 170.533L279.169 171.461C279.069 171.862 279.303 172.238 279.696 172.28L281.261 172.673C281.638 172.715 282.006 172.422 282.065 172.021C282.341 170.099 281.437 169.372 280.701 169.121C280.19 168.979 278.291 168.611 277.002 168.645Z" fill="#E527BB"/>
<path d="M200.714 203.109C200.363 202.499 199.861 202.131 199.216 202.023C198.145 201.839 196.882 202.441 195.928 203.034V200.385H176.188V206.368C176.188 211.817 180.606 216.23 186.062 216.23C189.325 216.23 192.212 214.65 194.011 212.218C194.145 212.227 194.271 212.235 194.405 212.235C196.639 212.235 198.647 211.065 199.969 208.967C201.225 206.953 201.534 204.547 200.714 203.109ZM199.392 208.6C198.212 210.472 196.43 211.533 194.455 211.55C195.392 210.046 195.928 208.265 195.928 206.368V203.845C196.806 203.243 198.103 202.524 199.099 202.691C199.543 202.767 199.877 203.009 200.12 203.443C200.814 204.655 200.505 206.82 199.392 208.6Z" fill="#E527BB"/>
<path d="M182.381 213.748C182.305 213.748 182.23 213.731 182.163 213.689C177.628 211.19 178.172 203.585 178.197 203.259C178.213 203.009 178.431 202.825 178.682 202.85C178.933 202.867 179.117 203.084 179.092 203.335C179.084 203.41 178.573 210.689 182.598 212.912C182.816 213.029 182.891 213.305 182.774 213.522C182.69 213.664 182.54 213.748 182.381 213.748Z" fill="white"/>
<path d="M190.966 198.805C190.883 198.805 190.799 198.772 190.732 198.705C188.908 196.9 188.28 196.156 188.314 193.925C188.347 191.852 189.31 190.966 190.247 190.106C190.891 189.512 191.502 188.952 191.803 188C192.506 185.793 189.485 183.52 189.452 183.495C189.301 183.386 189.268 183.178 189.385 183.027C189.494 182.877 189.703 182.843 189.853 182.96C189.996 183.061 193.293 185.543 192.439 188.208C192.079 189.337 191.376 189.98 190.699 190.607C189.828 191.409 189.008 192.161 188.983 193.941C188.95 195.914 189.452 196.507 191.201 198.237C191.335 198.371 191.335 198.58 191.201 198.713C191.142 198.772 191.05 198.805 190.966 198.805Z" fill="#0E2549"/>
<path d="M182.193 198.805C182.109 198.805 182.026 198.772 181.959 198.705C180.134 196.9 179.507 196.156 179.54 193.925C179.574 191.852 180.544 190.966 181.473 190.106C182.118 189.512 182.729 188.952 183.03 188C183.733 185.793 180.712 183.52 180.678 183.495C180.528 183.386 180.494 183.178 180.611 183.027C180.72 182.877 180.929 182.843 181.08 182.96C181.222 183.061 184.519 185.543 183.666 188.208C183.306 189.337 182.603 189.98 181.925 190.607C181.055 191.409 180.235 192.161 180.21 193.941C180.176 195.914 180.678 196.507 182.427 198.237C182.561 198.371 182.561 198.58 182.427 198.713C182.36 198.772 182.277 198.805 182.193 198.805Z" fill="#0E2549"/>
<path d="M186.88 197.034C186.797 197.034 186.713 197 186.646 196.933C184.822 195.128 184.194 194.384 184.228 192.153C184.261 190.08 185.224 189.195 186.161 188.334C186.805 187.74 187.416 187.181 187.717 186.228C188.42 184.022 185.399 181.748 185.366 181.723C185.215 181.615 185.182 181.406 185.299 181.255C185.408 181.105 185.617 181.072 185.768 181.189C185.91 181.289 189.207 183.771 188.353 186.437C187.993 187.565 187.291 188.208 186.613 188.835C185.742 189.638 184.922 190.39 184.897 192.17C184.864 194.142 185.366 194.735 187.115 196.465C187.249 196.599 187.249 196.808 187.115 196.942C187.056 197 186.964 197.034 186.88 197.034Z" fill="#0E2549"/>
<path d="M244.359 154.63C243.422 154.672 241.146 154.73 241.037 156.393C240.911 158.282 241.079 160.739 241.188 162.026C241.229 162.536 241.639 162.937 242.15 162.97L247.882 163.338C248.409 163.371 248.878 163.004 248.97 162.494C249.288 160.755 249.773 157.028 249.597 156.452C249.012 154.504 245.84 154.571 244.359 154.63Z" fill="#0E2549"/>
<path d="M242.229 163.447C242.229 163.447 242.112 167.884 241.685 168.369C241.258 168.845 239.133 169.865 239.133 169.865L245.852 174.729L250.354 171.779C250.354 171.779 248.145 169.547 247.969 168.945C247.727 168.118 248.061 163.823 248.061 163.823L242.229 163.447Z" fill="#FFC2A9"/>
<path d="M245.84 175.13L238.477 169.798L238.987 169.555C239.79 169.171 241.163 168.452 241.439 168.135C241.648 167.826 241.849 165.444 241.899 163.43C241.907 163.246 242.058 163.095 242.242 163.104C242.426 163.112 242.577 163.263 242.569 163.446C242.535 164.817 242.393 168.068 241.941 168.578C241.606 168.954 240.468 169.564 239.782 169.907L245.865 174.302L249.832 171.703C249.129 170.976 247.815 169.564 247.656 169.021C247.405 168.16 247.698 164.224 247.732 163.772C247.748 163.589 247.907 163.446 248.091 163.463C248.275 163.48 248.418 163.639 248.401 163.823C248.275 165.461 248.133 168.269 248.301 168.828C248.393 169.146 249.564 170.475 250.602 171.519L250.895 171.812L245.84 175.13Z" fill="#0E2549"/>
<path d="M244.438 165.085C246.053 165.377 248.103 165.202 248.697 164.675C249.048 164.366 249.266 163.071 249.4 161.583C249.4 161.541 249.617 156.259 249.617 156.259L242.346 155.792C242.346 155.792 242.253 157.396 242.212 159.193C242.212 159.276 242.12 159.318 242.053 159.276C241.684 159.026 241.166 158.817 241.107 159.485C241.032 160.321 241.751 160.889 242.12 161.098C242.161 161.123 242.178 161.157 242.187 161.207C242.187 162.477 242.237 163.58 242.387 163.981C242.471 164.199 242.638 164.383 242.873 164.541L244.438 165.085Z" fill="#FFC2A9"/>
<path d="M246.094 165.561C245.5 165.561 244.906 165.511 244.37 165.41C244.186 165.377 244.069 165.201 244.103 165.018C244.136 164.834 244.312 164.717 244.496 164.75C246.153 165.051 248.027 164.817 248.479 164.416C248.538 164.366 248.847 163.981 249.065 161.549C249.073 161.457 249.19 158.415 249.266 156.569L242.663 156.142C242.638 156.711 242.58 157.906 242.546 159.193C242.546 159.351 242.454 159.494 242.312 159.569C242.17 159.644 242.002 159.636 241.868 159.544C241.651 159.402 241.525 159.36 241.475 159.36C241.467 159.377 241.45 159.418 241.45 159.502C241.383 160.262 242.203 160.739 242.295 160.789C242.437 160.872 242.529 161.023 242.529 161.19C242.538 163.087 242.647 163.672 242.714 163.848C242.764 163.99 242.889 164.123 243.073 164.249C243.224 164.349 243.266 164.558 243.165 164.717C243.065 164.867 242.856 164.909 242.697 164.809C242.396 164.6 242.186 164.357 242.078 164.082C241.986 163.839 241.86 163.279 241.852 161.315C241.283 160.964 240.697 160.296 240.772 159.443C240.806 159.009 241.006 158.833 241.174 158.75C241.375 158.649 241.609 158.666 241.893 158.783C241.944 157.162 242.019 155.775 242.019 155.758L242.036 155.415L249.969 155.925L249.952 156.251C249.81 159.761 249.743 161.558 249.734 161.591C249.508 164.09 249.182 164.675 248.923 164.901C248.429 165.36 247.282 165.561 246.094 165.561Z" fill="#0E2549"/>
<path d="M242.183 161.065C242.183 161.065 242.384 161.29 242.811 161.767C243.296 162.31 248.141 162.343 248.493 162.193C249.262 161.867 249.112 161.198 249.388 161.274C249.731 161.366 249.129 164.75 248.735 165.21C248.342 165.669 244.827 165.611 242.978 165.101C241.43 164.675 242.183 161.065 242.183 161.065Z" fill="#0E2549"/>
<path d="M242.31 156.159C242.31 156.159 247.632 158.073 250.21 156.326C252.787 154.58 248.896 154.245 246.528 154.337C244.168 154.429 240.854 154.688 242.31 156.159Z" fill="#0E2549"/>
<path d="M233.828 179.693C235.234 175.782 237.644 170.383 240.347 169.589C240.439 169.564 242.581 170.057 244.121 170.35C244.472 170.015 244.983 169.973 245.686 170.308C245.694 170.308 245.694 170.308 245.694 170.316C245.769 170.35 248.665 169.748 248.765 169.731C249.911 169.589 257.007 177.746 257.928 179.651C257.936 179.659 233.828 179.693 233.828 179.693Z" fill="#A78BEF"/>
<path d="M233.352 180.027L233.511 179.576C235.042 175.322 237.452 170.09 240.255 169.263C240.372 169.23 240.389 169.23 241.87 169.539C242.531 169.681 243.335 169.848 244.037 169.99C244.381 169.748 244.924 169.597 245.77 169.973C246.096 169.932 247.401 169.664 248.046 169.53C248.615 169.413 248.698 169.397 248.732 169.397C250.247 169.196 257.443 177.871 258.238 179.5L258.271 179.567V179.643C258.271 179.977 257.987 179.977 257.669 179.977H256.899C256.238 179.977 255.301 179.977 254.171 179.985C251.912 179.994 248.899 179.993 245.887 180.002C239.862 180.01 233.837 180.019 233.837 180.019L233.352 180.027ZM240.389 169.932C238.481 170.542 236.331 173.876 234.314 179.358C237.377 179.358 254.071 179.333 257.368 179.325C255.744 176.734 249.694 170.132 248.807 170.074C248.774 170.082 248.523 170.132 248.188 170.199C246.196 170.6 245.803 170.675 245.652 170.65H245.627L245.56 170.617C244.757 170.232 244.464 170.508 244.372 170.6L244.247 170.717L244.079 170.684C243.335 170.542 242.456 170.358 241.745 170.207C241.151 170.082 240.565 169.957 240.389 169.932Z" fill="#0E2549"/>
<path d="M248.339 179.308L245.67 179.317L245.419 172.598L244.172 171.194L245.804 170.216L247.452 171.194L246.59 172.456L248.339 179.308Z" fill="#E527BB"/>
<path d="M245.803 170.099L243.058 171.929L239.242 169.714L241.066 168.753L245.803 170.099Z" fill="#E527BB"/>
<path d="M245.805 170.099L247.939 171.678L250.349 170.358L249.152 169.271L245.805 170.099Z" fill="#E527BB"/>
<path d="M250.915 170.425L249.233 168.904L245.802 169.756L241.024 168.394L238.539 169.706L243.058 172.33L245.786 170.516L247.894 172.079L250.915 170.425ZM243.041 171.536L239.937 169.731L241.108 169.113L245.016 170.224L243.041 171.536ZM249.049 169.639L249.761 170.291L247.953 171.277L246.572 170.257L249.049 169.639Z" fill="#0E2549"/>
<path d="M211.233 135.718C211.233 135.718 210.723 140.172 211.091 140.657C211.467 141.142 213.643 142.019 213.643 142.019L209.785 149.783L202.823 149.791L201.602 144.083C201.602 144.083 205.217 141.3 205.442 140.732C205.752 139.955 205.811 135.801 205.811 135.801L211.233 135.718Z" fill="#FFC2A9"/>
<path d="M202.541 150.134L201.219 143.933L201.394 143.799C203.102 142.487 204.959 140.924 205.127 140.59C205.336 140.072 205.445 137.364 205.47 135.785C205.47 135.593 205.629 135.442 205.821 135.442C206.014 135.442 206.164 135.601 206.164 135.793C206.156 136.228 206.097 140.03 205.771 140.841C205.545 141.401 203.177 143.281 201.997 144.2L203.118 149.423L209.587 149.415L213.185 142.17C212.499 141.877 211.168 141.275 210.834 140.841C210.432 140.323 210.708 137.373 210.909 135.651C210.934 135.459 211.101 135.325 211.294 135.35C211.486 135.375 211.62 135.542 211.595 135.735C211.369 137.724 211.227 140.089 211.394 140.44C211.578 140.674 212.783 141.267 213.787 141.676L214.131 141.819L210.013 150.109L202.541 150.134Z" fill="#0E2549"/>
<path d="M209.935 126.951C210.914 127.043 213.291 127.244 213.249 128.89C213.199 130.77 212.797 133.186 212.563 134.456C212.471 134.957 212.002 135.333 211.458 135.333L205.416 135.35C204.864 135.35 204.404 134.966 204.362 134.448C204.195 132.709 203.877 129.024 204.119 128.464C204.914 126.575 208.387 126.801 209.935 126.951Z" fill="#0E2549"/>
<path d="M205.863 136.579C205.545 136.261 205.445 135.008 205.453 133.57C205.453 133.528 205.428 133.495 205.395 133.47C205.001 133.253 204.508 132.835 204.549 132.124C204.583 131.506 204.985 131.581 205.353 131.773C205.42 131.807 205.503 131.765 205.503 131.69C205.579 129.96 205.721 128.439 205.721 128.439L212.901 128.414C212.901 128.414 212.842 129.96 212.733 131.69C212.725 131.765 212.315 135.893 212.131 136.269C212.03 136.47 211.846 136.646 211.604 136.779C211.604 136.779 211.135 137.13 208.524 137.147L205.863 136.579Z" fill="#FFC2A9"/>
<path d="M208.501 137.489C208.309 137.489 208.158 137.339 208.15 137.147C208.15 136.955 208.3 136.796 208.493 136.796C210.735 136.787 211.313 136.528 211.38 136.495L211.405 136.478C211.597 136.37 211.731 136.244 211.79 136.119C211.932 135.751 212.317 132.108 212.359 131.665C212.442 130.453 212.493 129.325 212.518 128.765L206.016 128.79C205.974 129.325 205.882 130.461 205.823 131.706C205.815 131.857 205.731 131.999 205.597 132.074C205.463 132.149 205.296 132.149 205.162 132.082C205.012 132.007 204.936 131.991 204.894 131.982C204.886 132.007 204.869 132.057 204.869 132.141C204.844 132.559 205.07 132.91 205.539 133.169C205.681 133.252 205.773 133.403 205.773 133.57C205.773 135.952 206.049 136.303 206.083 136.336C206.217 136.47 206.217 136.687 206.083 136.829C205.949 136.963 205.731 136.963 205.589 136.829C205.355 136.595 205.079 136.027 205.07 133.704C204.451 133.311 204.133 132.751 204.166 132.108C204.183 131.748 204.309 131.506 204.535 131.372C204.702 131.28 204.903 131.263 205.129 131.33C205.204 129.759 205.33 128.43 205.33 128.414L205.363 128.096L213.221 128.071L213.204 128.43C213.204 128.447 213.145 130.002 213.037 131.715C213.037 131.757 212.626 135.96 212.401 136.428C212.275 136.687 212.057 136.904 211.739 137.08C211.589 137.197 210.894 137.489 208.501 137.489C208.509 137.489 208.509 137.489 208.501 137.489Z" fill="#0E2549"/>
<path d="M215.876 143.156C215.006 142.579 214.245 142.136 213.617 141.852L213.709 141.81L212.136 140.189L208.621 141.81L204.002 139.997L202.253 141.392C200.303 142.545 196.622 146.707 194.438 151.88H221.249C220.32 149.331 218.37 144.827 215.876 143.156Z" fill="#A78BEF"/>
<path d="M209.143 142.938L209.879 143.816L214.289 141.919L212.214 139.771L208.615 141.434L203.946 139.604L201.109 141.869L207.285 143.975L208.406 142.604C208.641 144.134 209.193 147.819 209.728 151.922C209.754 152.089 209.896 152.215 210.063 152.215C210.08 152.215 210.088 152.215 210.105 152.215C210.289 152.19 210.423 152.023 210.398 151.839C209.904 148.07 209.402 144.66 209.143 142.938ZM213.134 141.685L210.08 142.997L209.176 141.919L212.071 140.582L213.134 141.685ZM207.059 143.181L202.49 141.618L204.063 140.364L208.072 141.944L207.059 143.181Z" fill="#0E2549"/>
<path d="M211.621 129.208C212.474 129.132 214.089 128.748 213.897 127.01C213.704 125.272 213.386 125.915 213.386 125.915C213.386 125.915 213.043 126.316 212.909 126.333C212.776 126.35 213.052 126.442 212.583 125.004C212.583 125.004 211.303 124.795 210.776 125.639C210.24 126.483 209.838 126.032 209.629 125.623C209.445 125.28 208.918 125.748 208.826 126.107C208.633 126.517 206.684 126.366 206.106 126.684C205.203 127.185 204.885 127.394 204.935 128.648C204.943 128.89 205.345 131.213 205.345 131.213L206.039 128.74C206.023 128.74 210.215 129.325 211.621 129.208Z" fill="#0E2549"/>
<path d="M238.532 126.107C238.532 126.107 241.436 126.007 242.925 128.539C243.319 129.208 243.293 129.325 243.101 130.06C243.017 130.369 243.553 130.729 243.536 131.155C243.528 131.389 243.385 131.723 243.394 131.982C243.411 132.333 243.762 132.492 243.812 132.86C243.846 133.094 243.503 133.311 243.544 133.537C243.595 133.771 244.047 133.938 244.105 134.163C244.189 134.464 243.971 134.673 243.971 134.957C243.971 135.3 244.239 135.375 244.565 135.584C244.8 135.735 244.565 136.487 244.708 136.629C244.833 136.754 245.21 136.98 245.252 137.113C245.36 137.423 245.118 137.665 245.159 137.832C245.218 138.1 245.728 138.192 245.804 138.426C245.879 138.651 245.678 139.027 245.628 139.303C245.578 139.529 246.021 139.754 246.038 139.93C246.097 140.431 245.938 140.74 245.921 140.908C245.904 141.125 246.465 141.559 246.448 141.835C246.205 147.71 230.599 146.582 230.775 142.454C230.783 142.195 231.336 142.027 231.16 141.727C231.034 141.518 230.934 141.351 230.842 141.108C230.75 140.849 231.302 140.607 231.419 140.364C231.595 139.988 230.875 139.771 231.093 139.044C231.26 138.484 231.796 138.601 231.746 138.158C231.704 137.799 231.327 137.331 231.394 137.038C231.595 136.127 232.382 136.052 232.097 135.776C231.796 135.484 231.595 135.342 231.712 134.707C231.762 134.439 232.172 133.846 232.172 133.846C232.131 133.361 231.612 133.085 231.796 132.333C232.064 131.255 232.423 132.057 232.323 130.394C232.315 130.068 232.842 125.38 238.532 126.107Z" fill="#0E2549"/>
<path d="M236.003 135.041C236.003 135.041 236.212 140.089 236.02 140.356C235.359 141.267 233.401 142.061 232.957 142.186C232.514 142.303 239.735 146.891 239.735 146.891L243.986 143.432L242.555 142.136C242.555 142.136 241.35 141.534 240.823 140.983C240.296 140.44 240.036 135.3 240.036 135.3L236.003 135.041Z" fill="#FFC2A9"/>
<path d="M239.746 147.301L239.546 147.167C232.517 142.696 232.558 142.404 232.6 142.145C232.625 142.002 232.726 141.894 232.868 141.852C233.337 141.727 235.119 140.966 235.721 140.189C235.805 139.78 235.763 137.289 235.671 135.049L235.655 134.673L240.341 134.983L240.357 135.283C240.474 137.648 240.776 140.415 241.052 140.749C241.454 141.158 242.374 141.668 242.692 141.835L242.734 141.852L244.491 143.44L239.746 147.301ZM233.529 142.328C234.441 143.055 237.161 144.852 239.696 146.474L243.453 143.415L242.341 142.412C242.115 142.295 241.069 141.743 240.558 141.217C240.031 140.674 239.788 137.323 239.688 135.618L236.341 135.392C236.525 140.197 236.349 140.44 236.274 140.54C235.713 141.342 234.332 142.019 233.529 142.328Z" fill="#0E2549"/>
<path d="M236.449 136.253C235.855 135.86 234.424 134.673 234.399 133.896C234.374 133.119 235.261 133.211 235.529 133.336C235.713 133.42 235.529 129.534 235.529 129.534L241.554 129.208C241.554 129.208 242.449 132.551 242.231 134.698C242.014 136.854 241.001 137.214 239.453 137.481L236.449 136.253Z" fill="#FFC2A9"/>
<path d="M239.453 137.807C239.294 137.807 239.152 137.69 239.118 137.531C239.085 137.348 239.21 137.172 239.394 137.139C240.951 136.871 241.704 136.537 241.896 134.657C242.072 132.935 241.495 130.378 241.294 129.55L235.88 129.843C236.039 133.403 235.905 133.495 235.737 133.604L235.578 133.712L235.394 133.637C235.277 133.587 234.968 133.545 234.825 133.645C234.8 133.662 234.733 133.704 234.742 133.879C234.758 134.397 235.88 135.467 236.641 135.969C236.792 136.069 236.842 136.278 236.733 136.437C236.633 136.587 236.424 136.637 236.265 136.529C236.24 136.512 234.106 135.049 234.064 133.904C234.047 133.553 234.189 133.261 234.449 133.085C234.691 132.927 235.001 132.893 235.269 132.918C235.294 132.3 235.252 130.854 235.194 129.534L235.177 129.199L241.804 128.848L241.871 129.116C241.905 129.258 242.775 132.542 242.557 134.723C242.315 137.13 241.085 137.531 239.503 137.807C239.486 137.807 239.47 137.807 239.453 137.807Z" fill="#0E2549"/>
<path d="M242.241 129.066C242.241 129.066 241.823 129.091 241.086 129.375C240.919 129.442 240.81 129.985 240.618 130.06C240.4 130.152 240.007 129.91 239.781 130.018C239.538 130.127 239.438 130.461 239.187 130.587C238.994 130.687 238.651 130.578 238.459 130.687C238.132 130.871 238.057 131.239 237.756 131.447C237.555 131.59 237.003 131.59 236.835 131.748C236.526 132.049 236.517 132.551 236.4 132.668C235.982 133.077 235.814 132.902 235.622 133.37C235.622 133.37 235.279 133.219 235.036 133.236C234.718 133.261 234.609 133.37 234.609 133.37L234.952 128.915L242.241 129.066Z" fill="#0E2549"/>
<path d="M253.259 151.872H229.553C229.159 147.852 229.218 144.184 230.431 142.938C231.486 141.852 232.423 141.743 232.933 141.743C234.482 141.743 241.268 148.011 243.176 141.819C243.452 140.933 245.544 142.044 246.138 142.512C247.828 143.841 251.653 149.156 253.259 151.872Z" fill="#A78BEF"/>
<path d="M253.847 152.206H229.245L229.212 151.905C228.726 146.883 229.044 143.874 230.182 142.704C231.019 141.844 231.94 141.409 232.927 141.409C233.412 141.409 234.14 141.81 235.145 142.37C236.927 143.364 239.37 144.718 241.077 144.033C241.889 143.707 242.475 142.947 242.851 141.718C242.927 141.459 243.119 141.275 243.379 141.192C244.274 140.916 245.948 141.927 246.341 142.245C248.073 143.615 251.906 148.922 253.537 151.696L253.847 152.206ZM229.856 151.529H252.659C250.91 148.688 247.454 143.975 245.931 142.771C245.412 142.362 244.065 141.685 243.579 141.835C243.521 141.852 243.504 141.877 243.496 141.91C243.061 143.323 242.333 144.242 241.328 144.643C239.32 145.445 236.718 144 234.818 142.947C234.04 142.512 233.237 142.069 232.927 142.069C232.124 142.069 231.379 142.428 230.668 143.164C230.007 143.849 229.337 145.855 229.856 151.529Z" fill="#1B2746"/>
<path d="M211.303 157.446C207.186 154.981 212.651 152.424 213.99 153.761C215.019 154.797 214.433 155.858 214.082 156.318C215.052 156.201 216.023 156.368 216.835 156.936C220.408 159.402 218.374 163.154 218.374 163.154C218.374 163.154 217.119 169.639 212.517 166.998C207.044 163.873 208.433 159.51 211.303 157.446Z" fill="#0E2549"/>
<path d="M212.57 164.809C212.57 164.809 212.805 169.698 212.62 169.957C211.985 170.843 210.093 171.628 209.667 171.754C209.231 171.871 216.771 174.679 216.771 174.679L220.361 172.89L218.963 171.645C218.963 171.645 217.792 171.068 217.273 170.542C216.754 170.015 216.47 165.043 216.47 165.043L212.57 164.809Z" fill="#FFC2A9"/>
<path d="M216.793 175.046L216.66 174.996C209.304 172.255 209.313 172.054 209.321 171.762C209.329 171.611 209.43 171.478 209.589 171.436C210.041 171.311 211.756 170.567 212.333 169.806C212.409 169.405 212.35 166.99 212.25 164.834L212.233 164.458L216.802 164.725L216.819 165.026C216.952 167.316 217.262 169.982 217.53 170.316C217.915 170.709 218.81 171.194 219.128 171.352L219.17 171.369L220.977 172.974L216.793 175.046ZM210.442 171.829C211.58 172.338 214.275 173.391 216.76 174.319L219.781 172.815L218.785 171.929C218.567 171.82 217.547 171.285 217.045 170.784C216.534 170.258 216.266 167.023 216.158 165.369L212.936 165.176C213.153 169.823 212.978 170.057 212.911 170.166C212.392 170.868 211.229 171.486 210.442 171.829Z" fill="#0E2549"/>
<path d="M213.092 166.263C212.514 165.887 211.05 164.466 211.017 163.714C210.983 162.962 211.845 163.046 212.104 163.163C212.28 163.238 211.996 159.009 211.996 159.009L217.811 158.533C217.811 158.533 218.79 162.352 218.598 164.433C218.406 166.522 217.452 167.074 215.929 167.149L213.092 166.263Z" fill="#FFC2A9"/>
<path d="M215.937 167.483C215.761 167.483 215.61 167.341 215.602 167.165C215.594 166.982 215.736 166.823 215.92 166.814C217.276 166.748 218.096 166.33 218.271 164.399C218.43 162.72 217.778 159.795 217.56 158.892L212.355 159.318C212.615 163.229 212.481 163.313 212.313 163.438L212.154 163.547L211.97 163.472C211.862 163.422 211.56 163.396 211.426 163.488C211.401 163.505 211.343 163.547 211.351 163.706C211.376 164.266 212.673 165.594 213.267 165.987C213.426 166.087 213.468 166.296 213.368 166.455C213.267 166.614 213.058 166.656 212.899 166.555C212.397 166.229 210.715 164.709 210.673 163.739C210.657 163.388 210.79 163.104 211.041 162.937C211.267 162.786 211.56 162.745 211.82 162.77C211.828 162.109 211.753 160.505 211.652 159.042L211.627 158.708L218.062 158.182L218.129 158.457C218.171 158.616 219.125 162.36 218.924 164.475C218.74 166.489 217.845 167.399 215.937 167.491C215.945 167.483 215.945 167.483 215.937 167.483Z" fill="#0E2549"/>
<path d="M223.804 179.501C223.829 177.888 223.695 173.425 221.402 171.887C220.574 171.336 220.063 170.951 219.67 170.742C219.662 170.734 219.653 170.734 219.653 170.734C219.436 170.609 219.252 170.55 219.076 170.533C219.059 170.533 219.034 170.533 219.017 170.533C218.975 170.533 218.942 170.542 218.9 170.55C218.9 170.55 218.9 170.55 218.892 170.55C218.649 170.609 218.44 170.826 218.239 171.102C218.214 171.135 218.197 171.16 218.172 171.194C218.13 171.244 218.097 171.302 218.055 171.361V171.369C217.268 172.531 216.256 174.211 212.591 171.729C212.524 171.687 212.457 171.637 212.39 171.586C212.155 171.419 211.913 171.244 211.662 171.043C211.595 170.993 211.511 170.96 211.419 170.935C211.344 170.918 211.26 170.918 211.168 170.918C210.867 170.926 210.49 171.043 210.13 171.185C209.796 171.311 209.469 171.469 209.227 171.578C207.863 172.18 207.838 173.291 208.097 174.328C208.34 175.314 208.842 176.233 208.691 176.609L208.758 177.863L208.917 179.476L223.804 179.501Z" fill="#E527BB"/>
<path d="M224.538 179.083C224.522 179.283 224.488 179.584 224.463 179.776L219.099 179.801C218.773 177.486 218.505 175.339 218.363 173.776C218.254 172.614 218.212 171.703 218.246 171.127C218.246 171.077 218.254 171.035 218.254 170.993C218.287 170.6 218.363 170.391 218.48 170.4C218.622 170.408 218.764 170.416 218.907 170.441C218.907 170.441 218.907 170.441 218.915 170.441C218.965 170.45 219.024 170.458 219.074 170.467C219.267 170.5 219.467 170.55 219.66 170.617C219.668 170.617 219.677 170.617 219.677 170.625C220.815 171.01 221.961 171.912 222.806 173.366C223.476 174.545 224.722 177.269 224.538 179.083Z" fill="#A78BEF"/>
<path d="M218.798 180.144L218.756 179.852C218.405 177.395 218.153 175.305 218.011 173.809V173.793C217.902 172.589 217.861 171.687 217.894 171.11C217.894 171.085 217.894 171.052 217.902 171.027V170.976C217.928 170.717 217.978 170.049 218.48 170.065C218.622 170.074 218.764 170.082 218.907 170.107H219.032L219.057 170.132C219.082 170.141 219.107 170.141 219.133 170.149C219.317 170.182 219.509 170.233 219.702 170.299H219.752L219.81 170.333C221.116 170.793 222.279 171.812 223.091 173.208C223.793 174.428 225.074 177.228 224.873 179.125L224.856 179.258C224.839 179.442 224.814 179.676 224.789 179.843L224.747 180.127L218.798 180.144ZM218.689 173.768C218.823 175.188 219.057 177.161 219.384 179.476L224.162 179.45C224.17 179.367 224.178 179.275 224.187 179.191L224.204 179.049C224.371 177.453 223.283 174.879 222.505 173.542C221.777 172.28 220.739 171.369 219.593 170.96L219.543 170.943C219.367 170.884 219.183 170.834 219.007 170.801C218.999 170.801 218.999 170.801 218.99 170.801L218.873 170.784H218.764L218.748 170.767C218.706 170.759 218.664 170.759 218.614 170.751C218.597 170.809 218.589 170.893 218.572 171.027L218.564 171.144C218.538 171.687 218.58 172.564 218.681 173.743L218.689 173.768Z" fill="#1B2746"/>
<path d="M212.805 173.851C212.764 173.592 212.73 173.341 212.688 173.116C212.588 172.497 212.488 171.988 212.387 171.595C212.27 171.118 212.153 170.826 212.044 170.767C211.977 170.726 211.902 170.701 211.818 170.684C211.701 170.65 211.567 170.642 211.425 170.642C211.107 170.642 210.739 170.717 210.362 170.834C210.362 170.834 206.069 171.11 204.965 176.96C204.772 177.955 204.596 178.932 204.438 179.86L208.831 179.843H208.881H209.048H209.257L211.918 179.835L213.4 179.827H213.534C213.299 177.461 213.048 175.406 212.805 173.851Z" fill="#A78BEF"/>
<path d="M204.055 180.194L204.122 179.801C204.289 178.857 204.465 177.879 204.649 176.893C205.72 171.177 209.829 170.55 210.306 170.5C210.732 170.375 211.109 170.308 211.435 170.308C211.619 170.308 211.778 170.325 211.912 170.366C212.013 170.391 212.113 170.425 212.213 170.483C212.389 170.575 212.531 170.784 212.716 171.52C212.816 171.904 212.916 172.422 213.025 173.066C213.067 173.3 213.1 173.55 213.142 173.809C213.368 175.289 213.619 177.303 213.887 179.793L213.929 180.169L208.866 180.186L204.055 180.194ZM211.435 170.985C211.176 170.985 210.841 171.043 210.473 171.16L210.398 171.177C210.23 171.185 206.348 171.52 205.31 177.027C205.151 177.871 205 178.707 204.85 179.526L213.176 179.492C212.925 177.177 212.69 175.297 212.473 173.91C212.431 173.651 212.398 173.408 212.356 173.183C212.255 172.564 212.155 172.063 212.063 171.695C211.954 171.261 211.879 171.11 211.854 171.068C211.82 171.052 211.787 171.043 211.753 171.035C211.661 170.993 211.561 170.985 211.435 170.985Z" fill="#1B2746"/>
<path d="M218.905 173.534L220.42 176.166L219.642 179.801L218.897 179.81H218.487L218.069 173.952L217.876 171.378L217.859 171.127L217.742 169.472L218.838 170.542L218.88 170.584L220.52 172.18L219.868 172.614L218.788 173.333L218.905 173.534Z" fill="#A78BEF"/>
<path d="M218.219 180.102L217.391 168.728L220.98 172.23L219.173 173.425L220.729 176.116L219.876 180.102H218.219ZM218.085 170.216L218.755 179.517H219.399L220.102 176.216L218.386 173.249L220.043 172.146L218.085 170.216Z" fill="#0E2549"/>
<path d="M213.43 179.826H211.94L210.551 176.709L211.982 173.759L209.43 172.823L210.141 172.054L210.886 171.244L211.17 170.935L211.438 170.642L212.384 169.631L212.442 170.191L212.601 171.737L212.743 173.132L212.81 173.851L213.43 179.826Z" fill="#A78BEF"/>
<path d="M211.723 180.169L210.183 176.709L211.522 173.952L208.836 172.974L212.635 168.862L213.798 180.169H211.723ZM210.928 176.718L212.166 179.492H213.062L212.451 173.575L210.928 176.718ZM210.016 172.681L212.443 173.567L212.116 170.4L210.016 172.681Z" fill="#0E2549"/>
<path d="M218.625 161.617C218.625 161.617 218.031 159.41 215.989 159.494C214.918 159.536 213.621 159.811 213.018 160.371C212.441 160.915 212.014 163.196 212.014 163.196L210.977 158.917L217.587 157.797L218.625 161.617Z" fill="#0E2549"/>
<path d="M153.664 257.85C153.664 257.85 159.137 272.984 159.137 279.137C159.137 285.29 160.239 291.072 164.799 292.921C169.359 294.769 172.653 291.966 173.426 290.859C174.376 289.491 176.269 280.821 166.942 270.686C163.283 266.709 153.664 257.85 153.664 257.85Z" fill="#39B039"/>
<path d="M167.827 293.79C166.871 293.79 165.83 293.608 164.71 293.152C160.795 291.565 158.896 286.98 158.896 279.137C158.896 273.099 153.489 258.081 153.435 257.929L153.094 256.987L153.83 257.668C153.928 257.759 163.498 266.575 167.127 270.521C172.131 275.963 173.781 280.87 174.286 284.025C174.859 287.607 174.189 290.203 173.635 290.999C173.008 291.893 170.889 293.79 167.827 293.79ZM154.22 258.708C155.419 262.131 159.377 273.829 159.377 279.143C159.377 286.768 161.179 291.2 164.886 292.702C169.319 294.495 172.466 291.808 173.221 290.726C174.012 289.589 176.18 281.101 166.755 270.856C163.736 267.567 156.534 260.848 154.22 258.708Z" fill="#1B2746"/>
<path d="M172.572 301.713C172.462 301.713 172.371 301.634 172.359 301.524C171.232 291.425 160.852 270.363 160.743 270.157C160.688 270.047 160.73 269.92 160.84 269.871C160.95 269.816 161.077 269.865 161.126 269.968C161.23 270.181 171.652 291.309 172.785 301.482C172.797 301.597 172.712 301.707 172.596 301.719C172.59 301.713 172.578 301.713 172.572 301.713Z" fill="#0E2549"/>
<path d="M168.755 240.23C168.755 240.23 164.092 260.307 166.649 272.498C169.206 284.688 171.799 289.273 175.063 285.983C178.326 282.694 177.273 261.468 174.971 254.774C172.664 248.08 168.755 240.23 168.755 240.23Z" fill="#39B039"/>
<path d="M173.097 287.26C172.908 287.26 172.719 287.23 172.53 287.175C170.314 286.518 168.366 281.873 166.412 272.546C163.873 260.441 168.476 240.376 168.524 240.175L168.677 239.513L168.981 240.121C169.018 240.2 172.92 248.061 175.203 254.695C176.342 257.99 177.2 264.806 177.352 271.652C177.431 275.294 177.383 283.995 175.24 286.16C174.515 286.895 173.797 287.26 173.097 287.26ZM168.853 240.966C168.074 244.577 164.64 261.705 166.893 272.443C168.78 281.447 170.674 286.117 172.67 286.707C173.364 286.914 174.095 286.616 174.899 285.807C176.293 284.402 177.029 279.113 176.871 271.658C176.725 264.964 175.854 258.051 174.746 254.853C172.847 249.338 169.821 242.96 168.853 240.966Z" fill="#1B2746"/>
<path d="M174.817 301.712C174.811 301.712 174.805 301.712 174.799 301.712C174.683 301.7 174.592 301.597 174.604 301.481C175.109 295.316 169.715 254.731 169.667 254.324C169.648 254.208 169.734 254.099 169.849 254.081C169.971 254.062 170.074 254.147 170.093 254.263C170.318 255.935 175.542 295.304 175.036 301.512C175.024 301.627 174.927 301.712 174.817 301.712Z" fill="#0E2549"/>
<path d="M192.064 258.331C192.064 258.331 186.591 273.464 186.591 279.617C186.591 285.771 185.489 291.553 180.929 293.401C176.369 295.249 173.075 292.447 172.302 291.34C171.353 289.972 169.459 281.302 178.786 271.166C182.445 267.19 192.064 258.331 192.064 258.331Z" fill="#39B039"/>
<path d="M177.883 294.131C174.815 294.131 172.702 292.234 172.081 291.346C171.527 290.55 170.857 287.953 171.43 284.372C171.935 281.217 173.585 276.31 178.589 270.868C182.218 266.928 191.788 258.106 191.886 258.015L192.622 257.334L192.281 258.276C192.227 258.428 186.82 273.44 186.82 279.484C186.82 287.327 184.921 291.912 181.006 293.498C179.886 293.948 178.839 294.131 177.883 294.131ZM191.484 259.048C189.17 261.195 181.968 267.907 178.942 271.196C169.518 281.442 171.685 289.929 172.477 291.066C173.232 292.149 176.385 294.836 180.811 293.042C184.519 291.541 186.321 287.108 186.321 279.484C186.327 274.17 190.29 262.465 191.484 259.048Z" fill="#1B2746"/>
<path d="M173.144 302.053C173.138 302.053 173.126 302.053 173.12 302.053C173.004 302.041 172.919 301.932 172.931 301.816C174.063 291.644 184.48 270.515 184.59 270.303C184.644 270.199 184.772 270.151 184.876 270.205C184.985 270.26 185.028 270.388 184.973 270.491C184.87 270.704 174.483 291.766 173.357 301.859C173.345 301.968 173.254 302.053 173.144 302.053Z" fill="#0E2549"/>
<path d="M160.727 301.494H186.126L183.082 328.605L163.618 328.666L160.727 301.494Z" fill="#FF402C"/>
<path d="M386.525 283.011C386.525 283.011 395.052 326.493 394.458 328.582C393.855 330.671 381.68 283.93 381.68 283.93L386.525 283.011Z" fill="#E527BB"/>
<path d="M373.505 286.905C373.505 286.905 373.371 327.278 372.316 328.624C371.262 329.969 368.727 287.298 368.727 287.298L373.505 286.905Z" fill="#E527BB"/>
<path d="M346.14 286.905C346.14 286.905 353.018 327.638 351.671 328.649C350.324 329.66 341.797 286.721 341.797 286.721L346.14 286.905Z" fill="#E527BB"/>
<path d="M334.937 286.253C334.937 286.253 321.021 327.721 318.477 328.022C315.933 328.323 330.125 285.819 330.125 285.819L334.937 286.253Z" fill="#E527BB"/>
<path d="M381.131 199.332C381.131 199.332 400.963 196.816 401.858 205.282C402.754 213.748 404.913 276.71 391.49 283.429C378.076 290.148 329.835 286.345 324.003 285C318.17 283.654 319.517 263.263 319.517 263.263L369.55 256.544L375.759 201.204L381.131 199.332Z" fill="#E527BB"/>
<path d="M360.603 287.624C343.959 287.624 326.955 286.02 323.934 285.326C317.893 283.93 319.131 264.082 319.19 263.238L319.206 262.962L319.483 262.929L369.255 256.243L375.456 200.953L381.096 198.997C381.648 198.931 394.778 197.318 400.058 201.496C401.322 202.491 402.041 203.753 402.2 205.24C402.677 209.72 403.405 227.537 402.384 245.02C401.798 255.057 400.736 263.338 399.23 269.64C397.372 277.387 394.82 282.125 391.648 283.721C385.732 286.696 373.272 287.624 360.603 287.624ZM319.842 263.564C319.784 264.692 319.583 269.113 319.918 273.609C320.42 280.337 321.859 284.156 324.085 284.674C329.365 285.894 377.791 289.922 391.347 283.136C396.836 280.387 400.418 267.199 401.715 244.995C402.727 227.545 402.008 209.786 401.531 205.324C401.397 204.02 400.761 202.917 399.64 202.031C394.694 198.128 381.966 199.574 381.213 199.666L376.084 201.454L369.866 256.845L319.842 263.564Z" fill="#1B2746"/>
<path d="M391.97 218.737C392.004 218.553 391.878 218.377 391.703 218.344C391.519 218.311 391.343 218.428 391.309 218.612C391.242 218.962 384.925 253.761 385.234 267.158H364.766C364.565 267.158 364.406 267.316 364.406 267.517C364.406 267.718 364.565 267.876 364.766 267.876H389.97C390.171 267.876 390.33 267.718 390.33 267.517C390.33 267.316 390.171 267.158 389.97 267.158H385.912C385.586 253.853 391.903 219.088 391.97 218.737Z" fill="#0E2549"/>
<path d="M283.208 302.232L279.258 318.963H290.463L293.492 307.698L283.208 302.232Z" fill="#FFC2A9"/>
<path d="M290.793 319.381H278.734L282.927 301.605L293.981 307.48L290.793 319.381ZM279.789 318.545H290.14L292.993 307.907L283.487 302.851L279.789 318.545Z" fill="#0E2549"/>
<path d="M278.651 318.479C278.651 318.479 262.459 323.61 261.898 327.838H290.935V318.479H278.651Z" fill="#A78BEF"/>
<path d="M322.805 310.782L324.118 319.13H334.721L333.599 310.038L322.805 310.782Z" fill="#FFC2A9"/>
<path d="M335.199 319.548H323.76L322.32 310.397L333.969 309.595L335.199 319.548ZM324.479 318.713H334.253L333.241 310.489L323.299 311.174L324.479 318.713Z" fill="#0E2549"/>
<path d="M323.503 318.637C323.503 318.637 307.311 323.768 306.75 327.997H335.787V318.637H323.503Z" fill="#A78BEF"/>
<path d="M305.695 326.393V328.833H336.548V326.05L305.695 326.393Z" fill="#0E2549"/>
<path d="M291.837 326.075V328.666H260.984V325.883L291.837 326.075Z" fill="#0E2549"/>
<path d="M283.036 324.705C282.86 324.705 282.709 324.588 282.659 324.412C282.609 324.203 282.735 323.994 282.935 323.944L285.889 323.2H282.751C282.475 323.2 282.241 323 282.207 322.724C282.174 322.448 282.341 322.197 282.609 322.122L287.011 320.91H284.149C283.94 320.91 283.764 320.735 283.764 320.526C283.764 320.317 283.94 320.142 284.149 320.142H288.634C288.91 320.142 289.144 320.342 289.178 320.618C289.211 320.894 289.044 321.144 288.776 321.22L284.375 322.431H287.655C287.939 322.431 288.165 322.632 288.199 322.916C288.232 323.192 288.065 323.451 287.789 323.518L283.136 324.696C283.094 324.705 283.061 324.705 283.036 324.705Z" fill="#0E2549"/>
<path d="M328.255 324.872C328.079 324.872 327.928 324.755 327.878 324.579C327.828 324.37 327.953 324.161 328.154 324.111L331.108 323.367H327.97C327.694 323.367 327.46 323.167 327.426 322.891C327.393 322.615 327.56 322.364 327.828 322.289L332.229 321.077H329.367C329.158 321.077 328.983 320.902 328.983 320.693C328.983 320.484 329.158 320.309 329.367 320.309H333.853C334.129 320.309 334.363 320.509 334.397 320.785C334.43 321.061 334.263 321.311 333.995 321.387L329.593 322.598H332.874C333.158 322.598 333.384 322.799 333.418 323.083C333.451 323.359 333.284 323.618 333.008 323.685L328.355 324.863C328.313 324.863 328.288 324.872 328.255 324.872Z" fill="#0E2549"/>
<path d="M348.182 154.981C348.182 154.981 349.437 168.152 348.383 169.606C347.329 171.06 345.555 177.294 345.555 177.294L351.446 203.728L373.244 201.622L370.039 181.356C370.039 181.356 364.701 171.235 364.107 169.581C363.278 167.283 363.27 154.989 363.27 154.989L348.182 154.981Z" fill="#FFC2A9"/>
<path d="M351.186 204.095L345.211 177.294L345.236 177.211C345.311 176.952 347.035 170.901 348.115 169.414C348.826 168.427 348.332 160.062 347.855 155.014C347.838 154.831 347.972 154.663 348.156 154.647C348.341 154.63 348.508 154.764 348.525 154.948C348.65 156.31 349.763 168.285 348.667 169.806C347.721 171.11 346.123 176.576 345.914 177.311L351.721 203.368L372.876 201.329L369.738 181.464C369.286 180.612 364.399 171.319 363.813 169.689C362.976 167.358 362.959 155.482 362.959 154.981C362.959 154.797 363.11 154.647 363.294 154.647C363.478 154.647 363.629 154.797 363.629 154.981C363.629 155.106 363.637 167.241 364.441 169.464C365.026 171.085 370.307 181.097 370.357 181.197L370.382 181.247L370.39 181.306L373.645 201.931L351.186 204.095Z" fill="#0E2549"/>
<path d="M351.182 130.085C348.463 130.461 341.844 131.297 342.003 136.169C342.179 141.727 343.35 148.847 344.036 152.591C344.304 154.07 345.618 155.123 347.116 155.081L363.927 154.538C365.467 154.488 366.722 153.293 366.847 151.755C367.274 146.582 368.069 135.634 367.408 134.005C365.149 128.481 355.492 129.483 351.182 130.085Z" fill="black"/>
<path d="M362.74 158.215C363.618 157.246 363.861 153.51 363.827 149.256C363.827 149.131 363.886 149.022 363.986 148.955C365.066 148.262 366.622 146.808 366.505 144.702C366.405 142.88 365.099 143.306 364.078 143.925C363.894 144.033 363.668 143.908 363.66 143.682C363.409 138.559 362.982 134.072 362.982 134.072L343.008 134.715C343.008 134.715 343.192 139.286 343.552 144.401C343.568 144.627 344.799 156.828 345.317 157.923C345.602 158.516 346.112 159.001 346.799 159.385C346.799 159.385 348.112 160.388 355.376 160.154L362.74 158.215Z" fill="#FFC2A9"/>
<path d="M353.284 160.53C348.162 160.53 346.84 159.82 346.623 159.669C345.853 159.235 345.309 158.691 345.016 158.065C344.455 156.878 343.225 144.543 343.217 144.426C342.865 139.361 342.673 134.773 342.673 134.723L342.656 134.381L363.283 133.72L363.317 134.038C363.325 134.08 363.744 138.542 363.986 143.582C364.89 143.047 365.601 142.913 366.112 143.189C366.555 143.423 366.798 143.924 366.84 144.685C366.974 147.167 365.016 148.696 364.162 149.24C364.195 154.521 363.811 157.521 362.982 158.441C362.857 158.583 362.647 158.591 362.505 158.466C362.363 158.34 362.354 158.131 362.48 157.989C362.873 157.555 363.534 155.833 363.484 149.256C363.484 149.014 363.601 148.797 363.802 148.671C364.555 148.195 366.279 146.849 366.17 144.718C366.154 144.367 366.07 143.924 365.802 143.782C365.509 143.632 364.949 143.782 364.254 144.209C364.07 144.317 363.844 144.326 363.652 144.225C363.451 144.125 363.334 143.924 363.317 143.699C363.108 139.412 362.773 135.526 362.672 134.422L343.351 135.041C343.401 136.194 343.585 140.114 343.878 144.384C343.92 144.894 345.15 156.803 345.61 157.78C345.853 158.282 346.305 158.725 346.957 159.092L346.999 159.118C347.008 159.118 348.455 160.045 355.359 159.82C355.535 159.811 355.702 159.962 355.71 160.145C355.719 160.329 355.568 160.488 355.384 160.488C354.622 160.522 353.928 160.53 353.284 160.53Z" fill="#0E2549"/>
<path d="M354.455 145.888C354.163 145.888 353.92 145.663 353.895 145.37L353.861 144.961C353.836 144.652 354.062 144.384 354.372 144.359C354.681 144.334 354.949 144.56 354.974 144.869L355.008 145.278C355.033 145.588 354.807 145.855 354.497 145.88C354.489 145.888 354.472 145.888 354.455 145.888Z" fill="#FFC2A9"/>
<path d="M346.063 146.49C345.761 146.49 345.519 146.256 345.502 145.955L345.485 145.471C345.468 145.161 345.711 144.902 346.021 144.886C346.322 144.869 346.59 145.111 346.606 145.42L346.623 145.905C346.64 146.214 346.397 146.473 346.088 146.49C346.071 146.49 346.063 146.49 346.063 146.49Z" fill="#FFC2A9"/>
<path d="M358.299 142.838C358.182 142.838 358.065 142.771 357.998 142.663C356.952 140.682 353.044 141.844 353.002 141.852C352.827 141.902 352.634 141.802 352.584 141.626C352.534 141.451 352.626 141.259 352.81 141.208C352.994 141.15 357.287 139.88 358.592 142.345C358.676 142.512 358.617 142.713 358.45 142.796C358.408 142.821 358.358 142.838 358.299 142.838Z" fill="#FFC2A9"/>
<path d="M349.928 150.359C349.912 150.359 349.886 150.359 349.87 150.351C349.577 150.301 348.087 149.992 347.912 149.164C347.836 148.83 347.995 147.969 348.38 146.072C348.656 144.685 349.041 142.78 348.949 142.387C348.924 142.261 348.782 142.178 348.665 142.119C347.995 141.802 346.456 141.852 344.916 142.587C344.749 142.671 344.548 142.596 344.464 142.429C344.38 142.261 344.456 142.061 344.623 141.977C346.188 141.233 347.97 141.033 348.949 141.509C349.393 141.718 349.543 142.019 349.594 142.228C349.711 142.729 349.46 144.058 349.033 146.198C348.807 147.342 348.523 148.763 348.564 149.014C348.623 149.265 349.359 149.574 349.987 149.682C350.171 149.716 350.288 149.891 350.255 150.075C350.23 150.242 350.087 150.359 349.928 150.359Z" fill="#FFC2A9"/>
<path d="M347.906 152.724C347.688 153 348.651 155.123 349.638 155.006C352.165 154.705 353.613 151.713 353.011 151.897C352.776 151.964 351.178 152.449 350.107 152.641C348.659 152.9 348.157 152.407 347.906 152.724Z" fill="#FFC2A9"/>
<path d="M366.412 136.47C364.37 133.019 367.675 132.149 365.591 130.394C364.345 129.35 362.085 129.433 362.085 129.433L362.01 129.55C361.608 128.848 360.939 128.339 359.818 128.497C356.73 128.932 356.328 125.882 353.441 126.308C350.554 126.734 352.127 127.57 349.157 128.347C346.178 129.124 344.671 127.478 343.885 129.834C343.098 132.191 340.755 131.64 339.743 133.244C338.73 134.849 339.098 136.679 340.58 137.256C342.052 137.832 339.835 139.128 341.048 140.415C342.261 141.693 347.215 141.451 348.019 139.504C348.822 137.556 349.24 136.236 351.081 136.094C352.922 135.96 355.19 136.863 356.437 136.478C357.684 136.094 359.357 134.723 360.043 135.049C360.73 135.375 361.474 136.52 362.152 136.411C362.202 136.403 362.269 136.378 362.336 136.345C363.022 137.013 363.675 137.673 363.617 138.86C363.516 140.423 367.407 138.141 366.412 136.47Z" fill="black"/>
<path d="M334.708 241.042C334.708 241.042 299.119 239.563 298.215 247.711C297.311 255.859 319.135 313.464 319.135 313.464L336.239 311.191C336.239 311.191 323.93 268.946 324.465 265.921C326.574 253.937 375.761 239.379 375.761 239.379L334.708 241.042Z" fill="black"/>
<path d="M379.5 240.917C379.5 240.917 384.496 267.208 360.597 268.821C336.464 270.459 315.937 263.932 310.682 268.06C309.142 269.272 296.289 312.771 296.289 312.771L277.578 310.038C277.578 310.038 294.331 253.544 297.159 247.636C299.845 242.036 310.104 241.393 331.937 240.917C353.777 240.44 379.5 240.917 379.5 240.917Z" fill="black"/>
<path d="M381.601 202.056C383.392 215.311 380.555 243.106 380.555 243.106L331.945 241.276C331.945 241.276 340.966 166.739 347.652 165.879C350.472 165.519 353.484 169.33 360.965 165.879C368.438 162.427 379.802 188.794 381.601 202.056Z" fill="#A78BEF"/>
<path d="M279.797 216.221C279.797 216.221 286.332 208.182 296.792 211.659C297.981 212.051 299.671 212.904 298.508 216.221H279.797Z" fill="#E527BB"/>
<path d="M298.75 216.556H279.094L279.537 216.004C279.604 215.921 286.349 207.823 296.901 211.333C297.612 211.567 298.491 211.959 298.943 212.887C299.361 213.748 299.328 214.901 298.825 216.33L298.75 216.556ZM280.567 215.887H298.273C298.641 214.742 298.666 213.84 298.348 213.188C298.005 212.486 297.286 212.168 296.7 211.976C288.19 209.151 282.274 214.166 280.567 215.887Z" fill="#0E2549"/>
<path d="M301.105 215.252C305.189 214.901 323.063 215.269 323.063 215.269L321.197 207.831C321.197 207.831 302.118 211.074 300.679 210.656C297.967 209.879 296.185 208.959 292.98 208.842C288.746 208.675 282.989 210.129 283.047 211.283C283.081 211.901 290.595 210.965 292.051 211.55C296.185 213.196 298.202 215.494 301.105 215.252Z" fill="#FFC2A9"/>
<path d="M323.498 215.611L323.054 215.603C322.878 215.603 305.147 215.244 301.13 215.586C299.214 215.753 297.716 214.893 295.816 213.815C294.712 213.188 293.465 212.477 291.934 211.859C291.264 211.592 288.888 211.684 286.98 211.767C283.499 211.909 282.754 211.884 282.721 211.299C282.704 211.073 282.804 210.848 283.013 210.639C284.177 209.461 289.315 208.357 292.996 208.508C295.415 208.6 297.072 209.151 298.821 209.728C299.44 209.929 300.076 210.137 300.77 210.338C301.774 210.631 313.498 208.8 321.138 207.505L321.448 207.455L323.498 215.611ZM289.892 211.007C290.913 211.007 291.75 211.057 292.185 211.232C293.758 211.867 295.03 212.586 296.151 213.23C297.95 214.257 299.364 215.06 301.08 214.918C304.82 214.592 319.799 214.868 322.636 214.926L320.954 208.215C317.941 208.725 302.009 211.391 300.595 210.982C299.883 210.781 299.239 210.564 298.62 210.363C296.837 209.778 295.306 209.268 292.98 209.176C289.289 209.034 284.436 210.163 283.499 211.107C283.49 211.115 283.49 211.115 283.482 211.124C284.076 211.207 285.716 211.14 286.955 211.099C287.967 211.048 289.005 211.007 289.892 211.007Z" fill="#0E2549"/>
<path d="M350.279 174.344C350.279 174.344 346.137 187.323 340.564 191.451C334.991 195.58 305.435 203.769 305.435 203.769L304.531 215.971C304.531 215.971 332.681 216.639 337.861 214.391C344.145 211.659 360.547 203.126 365.241 188.351C369.944 173.575 350.279 174.344 350.279 174.344Z" fill="#A78BEF"/>
<path d="M308.163 203.335C308.013 203.335 307.879 203.235 307.837 203.084C307.795 202.9 307.904 202.725 308.08 202.675C308.297 202.616 330.046 197.109 339.242 191.894C346.179 187.958 349.208 174.545 349.242 174.411C349.284 174.227 349.459 174.119 349.644 174.152C349.828 174.194 349.936 174.369 349.903 174.553C349.777 175.113 346.773 188.392 339.585 192.471C330.313 197.736 308.473 203.268 308.247 203.318C308.214 203.327 308.189 203.335 308.163 203.335Z" fill="#0E2549"/>
<path d="M332.455 215.745C332.288 215.745 332.145 215.62 332.12 215.453C332.095 215.269 332.221 215.102 332.405 215.077C346.999 213.096 355.291 204.146 359.676 196.984C364.446 189.195 365.768 181.782 365.785 181.707C365.818 181.523 365.994 181.406 366.17 181.431C366.354 181.465 366.479 181.64 366.446 181.816C366.429 181.891 365.09 189.412 360.262 197.31C357.425 201.948 353.952 205.809 349.944 208.792C344.932 212.519 339.057 214.851 332.497 215.745C332.489 215.745 332.472 215.745 332.455 215.745Z" fill="#0E2549"/>
<path d="M431.665 329H110.335C110.151 329 110 328.85 110 328.666C110 328.482 110.151 328.332 110.335 328.332H431.665C431.849 328.332 432 328.482 432 328.666C432 328.85 431.849 329 431.665 329Z" fill="#0E2549"/>
</g>
</g>
<defs>
<clipPath id="clip0_1569_3359">
<rect width="542.64" height="328.79" fill="white"/>
</clipPath>
<clipPath id="clip1_1569_3359">
<rect width="322" height="270" fill="white" transform="translate(110 59)"/>
</clipPath>
</defs>
</svg>
