<svg width="20" height="20" viewBox="0 0 20 20" fill="none" xmlns="http://www.w3.org/2000/svg">
<path d="M20 7.53872C20 5.98593 18.9441 4.68158 17.5155 4.30891V0.830649C17.5155 0.147419 16.7702 -0.225252 16.2112 0.147419L9.75155 4.18469H3.35404C2.85714 4.18469 2.48447 4.55736 2.48447 4.99214V6.66916H0.807453C0.372671 6.66916 0 7.04183 0 7.47661C0 7.91139 0.372671 8.28407 0.807453 8.28407H2.48447V9.96108C2.48447 10.3959 2.85714 10.7685 3.29193 10.7685H4.09938V17.4145C4.09938 18.781 5.21739 19.899 6.58385 19.899C7.95031 19.899 9.06832 18.781 9.06832 17.4145V10.8306H9.68944L16.1491 14.8679C16.7081 15.2406 17.4534 14.8058 17.4534 14.1847V10.7685C18.9441 10.3959 20 9.09152 20 7.53872ZM4.16149 5.8617H9.13043V9.21574H8.32298H4.96894H4.16149V5.8617ZM7.51553 17.4766C7.51553 17.9114 7.14286 18.2841 6.70807 18.2841C6.27329 18.2841 5.90062 17.9114 5.90062 17.4766V10.8306H7.57764L7.51553 17.4766ZM15.8385 12.694L10.8696 9.58841V5.48903L15.8385 2.38344V4.99214V9.96108V12.694ZM17.4534 8.96729V6.11015C17.9503 6.42071 18.2609 6.91761 18.2609 7.53872C18.2609 8.15984 17.9503 8.65674 17.4534 8.96729Z" fill="url(#paint0_linear_439_5701)"/>
<defs>
<linearGradient id="paint0_linear_439_5701" x1="10" y1="0" x2="10" y2="19.899" gradientUnits="userSpaceOnUse">
<stop stop-color="#E527BB"/>
<stop offset="1" stop-color="#A78BEF"/>
</linearGradient>
</defs>
</svg>
