<svg width="22" height="18" viewBox="0 0 22 18" fill="none" xmlns="http://www.w3.org/2000/svg">
<g clip-path="url(#clip0_379_4148)">
<path d="M14.4 12.1L15.5 11L13.4 8.9C13.6 8.6 13.7 8.3 13.8 8C14 7.7 14 7.4 14 7C14 6 13.7 5.2 13 4.5C12.3 3.8 11.5 3.5 10.5 3.5C9.5 3.5 8.7 3.8 8 4.5C7.3 5.2 7 6 7 7C7 8 7.3 8.8 8 9.5C8.7 10.2 9.5 10.5 10.5 10.5C10.9 10.5 11.2 10.5 11.5 10.4C11.8 10.3 12.1 10.2 12.4 10L14.4 12.1ZM10.5 9C9.9 9 9.5 8.8 9.1 8.4C8.7 8 8.5 7.6 8.5 7C8.5 6.4 8.7 6 9.1 5.6C9.5 5.2 9.9 5 10.5 5C11 5 11.5 5.2 11.9 5.6C12.3 6 12.5 6.4 12.5 7C12.5 7.6 12.3 8 11.9 8.4C11.5 8.8 11.1 9 10.5 9ZM1 18C0.7 18 0.5 17.9 0.3 17.7C0.1 17.5 0 17.3 0 17C0 16.7 0.1 16.5 0.3 16.3C0.5 16.1 0.7 16 1 16H21C21.3 16 21.5 16.1 21.7 16.3C21.9 16.5 22 16.7 22 17C22 17.3 21.9 17.5 21.7 17.7C21.5 17.9 21.3 18 21 18H1ZM3 15C2.5 15 2 14.8 1.6 14.4C1.2 14 1 13.5 1 13V2C1 1.4 1.2 1 1.6 0.6C2 0.2 2.5 0 3 0H19C19.5 0 20 0.2 20.4 0.6C20.8 1 21 1.4 21 2V13C21 13.5 20.8 14 20.4 14.4C20 14.8 19.5 15 19 15H3ZM3 13H19V2H3V13Z" fill="url(#paint0_linear_379_4148)"/>
</g>
<defs>
<linearGradient id="paint0_linear_379_4148" x1="11" y1="0" x2="11" y2="18" gradientUnits="userSpaceOnUse">
<stop stop-color="#E527BB"/>
<stop offset="1" stop-color="#A78BEF"/>
</linearGradient>
<clipPath id="clip0_379_4148">
<rect width="22" height="18" fill="white"/>
</clipPath>
</defs>
</svg>
