<svg width="543" height="329" viewBox="0 0 543 329" fill="none" xmlns="http://www.w3.org/2000/svg">
<g clip-path="url(#clip0_1954_4789)">
<path opacity="0.2" d="M78.788 327.839C41.4882 290.535 -9.49424 252.012 10.4949 193.818C23.6478 155.541 55.8804 144.88 82.6859 121.276C95.9087 109.631 87.5932 92.6757 87.3433 75.8481C86.7836 32.7513 139.135 -0.687543 187.269 0.010739C239.401 0.768031 261.969 48.9102 305.705 51.4968C322.876 51.7426 338.257 42.4781 353.449 35.1314C398.465 13.3371 469.906 27.2339 473.514 79.9296C474.444 108.392 439.183 154.174 474.514 169.143C502.668 181.072 531.113 185.469 536.19 228.133C542.837 283.976 507.716 314.621 461.971 329L78.788 327.839Z" fill="#999999"/>
<g clip-path="url(#clip1_1954_4789)">
<path d="M424.089 84.1909C424.062 84.1637 424.035 84.1366 424.001 84.1094C420.989 81.4972 418.303 81.5107 417.679 81.504C417.544 81.504 406.115 81.4972 388.365 81.4972V61.7593C388.365 59.6559 387.28 57.7967 385.645 56.7111C385.618 56.684 385.591 56.6568 385.557 56.6297C382.545 54.0174 379.859 54.031 379.235 54.0242C378.611 54.0106 144.454 54.0106 144.454 54.0106C144.454 54.0106 141.402 53.7325 138.248 56.3244C136.233 57.315 134.836 59.3845 134.836 61.766V211.826C134.836 215.157 137.563 217.892 140.9 217.892H147.757V217.993H150.348H173.28V239.306C173.28 242.637 176.007 245.371 179.344 245.371H186.201V245.473H189.226H258.158H261.183V245.371H266.528V245.473H269.553H338.485H341.51V245.371H345.485V245.473H348.51H417.442H420.467V245.371H420.745C424.075 245.371 426.809 242.644 426.809 239.306V89.239C426.809 87.1356 425.724 85.2765 424.089 84.1909Z" fill="#DADADA"/>
<path d="M376.078 208.888H135.66C132.052 208.888 129.102 205.936 129.102 202.326V53.2573C129.102 49.6476 132.052 46.696 135.66 46.696H376.078C379.687 46.696 382.637 49.6476 382.637 53.2573V202.326C382.637 205.936 379.687 208.888 376.078 208.888Z" fill="#E5E5FF"/>
<path d="M129.134 59.9407H382.628V54.6008C382.628 54.6008 382.839 50.238 379.827 47.6257C376.816 45.0134 374.13 45.027 373.506 45.0202C372.889 45.0067 138.724 45.0067 138.724 45.0067C138.724 45.0067 135.319 44.6945 131.989 47.775C128.605 50.9029 129.14 55.7611 129.14 55.7611V59.9407H129.134Z" fill="#E527BB"/>
<path d="M146.147 52.4704C146.147 53.8817 145.008 55.0216 143.597 55.0216C142.186 55.0216 141.047 53.8817 141.047 52.4704C141.047 51.0591 142.186 49.9192 143.597 49.9192C145.008 49.9192 146.147 51.0591 146.147 52.4704Z" fill="white"/>
<path d="M160.765 52.4704C160.765 53.8817 159.625 55.0216 158.214 55.0216C156.804 55.0216 155.664 53.8817 155.664 52.4704C155.664 51.0591 156.804 49.9192 158.214 49.9192C159.625 49.9192 160.765 51.0591 160.765 52.4704Z" fill="white"/>
<path d="M175.382 52.4704C175.382 53.8817 174.242 55.0216 172.832 55.0216C171.421 55.0216 170.281 53.8817 170.281 52.4704C170.281 51.0591 171.421 49.9192 172.832 49.9192C174.242 49.9192 175.382 51.0591 175.382 52.4704Z" fill="white"/>
<path d="M354.091 56.6092H186.139C185.366 56.6092 184.742 55.985 184.742 55.2115V49.9666C184.742 49.1931 185.366 48.5688 186.139 48.5688H354.091C354.865 48.5688 355.489 49.1931 355.489 49.9666V55.2115C355.489 55.985 354.865 56.6092 354.091 56.6092Z" fill="white"/>
<path d="M213.631 168.53H147.554C145.933 168.53 144.617 167.213 144.617 165.592V79.7939C144.617 78.1723 145.933 76.856 147.554 76.856H213.631C215.252 76.856 216.568 78.1723 216.568 79.7939V165.592C216.574 167.213 215.259 168.53 213.631 168.53Z" fill="#DADADA"/>
<path d="M291.373 166.128H225.296C223.675 166.128 222.359 164.812 222.359 163.19V77.3921C222.359 75.7704 223.675 74.4541 225.296 74.4541H291.373C292.994 74.4541 294.31 75.7704 294.31 77.3921V163.19C294.31 164.812 292.994 166.128 291.373 166.128Z" fill="#FADD74"/>
<path d="M211.044 166.128H144.96C143.339 166.128 142.023 164.812 142.023 163.19V77.3921C142.023 75.7704 143.339 74.4541 144.96 74.4541H211.037C212.658 74.4541 213.974 75.7704 213.974 77.3921V163.19C213.981 164.812 212.665 166.128 211.044 166.128Z" fill="#A78BEF"/>
<path d="M370.326 166.128H304.249C302.628 166.128 301.312 164.812 301.312 163.19V77.3921C301.312 75.7704 302.628 74.4541 304.249 74.4541H370.326C371.947 74.4541 373.263 75.7704 373.263 77.3921V163.19C373.263 164.812 371.947 166.128 370.326 166.128Z" fill="#00DDFE"/>
<path d="M216.574 208.989H144.617V182.215C144.617 180.594 145.933 179.277 147.554 179.277H213.631C215.252 179.277 216.568 180.594 216.568 182.215V208.989H216.574Z" fill="#DADADA"/>
<path opacity="0.42" d="M373.262 208.989H301.305V179.813C301.305 178.192 302.621 176.875 304.242 176.875H370.318C371.939 176.875 373.255 178.192 373.255 179.813V208.989H373.262Z" fill="#DADADA"/>
<path d="M294.309 208.989H222.352V179.813C222.352 178.192 223.667 176.875 225.288 176.875H291.365C292.986 176.875 294.302 178.192 294.302 179.813V208.989H294.309Z" fill="#FADD74"/>
<path d="M213.981 208.989H142.023V179.813C142.023 178.192 143.339 176.875 144.96 176.875H211.037C212.658 176.875 213.974 178.192 213.974 179.813V208.989H213.981Z" fill="#E527BB"/>
<path opacity="0.42" d="M290.873 120.288H225.719V123.382H290.873V120.288Z" fill="white"/>
<path opacity="0.42" d="M290.873 126.469H225.719V129.563H290.873V126.469Z" fill="white"/>
<path opacity="0.42" d="M290.873 132.657H225.719V135.751H290.873V132.657Z" fill="white"/>
<path opacity="0.42" d="M290.873 138.838H225.719V141.932H290.873V138.838Z" fill="white"/>
<path opacity="0.42" d="M290.873 145.019H225.719V148.113H290.873V145.019Z" fill="white"/>
<path opacity="0.42" d="M290.873 151.201H225.719V154.295H290.873V151.201Z" fill="white"/>
<path opacity="0.42" d="M265.546 157.389H225.719V160.483H265.546V157.389Z" fill="white"/>
<path opacity="0.42" d="M369.865 84.7402H304.711V87.8343H369.865V84.7402Z" fill="white"/>
<path opacity="0.42" d="M369.865 90.9282H304.711V94.0222H369.865V90.9282Z" fill="white"/>
<path opacity="0.42" d="M369.865 97.1096H304.711V100.204H369.865V97.1096Z" fill="white"/>
<path opacity="0.42" d="M369.865 103.291H304.711V106.385H369.865V103.291Z" fill="white"/>
<path opacity="0.42" d="M369.865 109.472H304.711V112.566H369.865V109.472Z" fill="white"/>
<path opacity="0.42" d="M369.865 115.66H304.711V118.754H369.865V115.66Z" fill="white"/>
<path opacity="0.42" d="M344.539 121.841H304.711V124.935H344.539V121.841Z" fill="white"/>
<path d="M245.056 86.6741H226.492V105.245H245.056V86.6741Z" fill="#00DDFE"/>
<path d="M267.58 86.6741H249.016V105.245H267.58V86.6741Z" fill="#E6332A"/>
<path d="M290.111 86.6741H271.547V105.245H290.111V86.6741Z" fill="#34525C"/>
<path d="M324.236 136.782H306.289V156.344H324.236V136.782Z" fill="white"/>
<path d="M346.322 136.782H328.375V156.344H346.322V136.782Z" fill="white"/>
<path d="M368.416 136.782H350.469V156.344H368.416V136.782Z" fill="white"/>
<path d="M414.516 236.367H174.098C170.49 236.367 167.539 233.416 167.539 229.806V80.737C167.539 77.1273 170.49 74.1758 174.098 74.1758H414.516C418.124 74.1758 421.075 77.1273 421.075 80.737V229.806C421.075 233.416 418.124 236.367 414.516 236.367Z" fill="#E5E5FF"/>
<path d="M332.146 196.695H266.07C264.449 196.695 263.133 195.378 263.133 193.757V107.959C263.133 106.337 264.449 105.021 266.07 105.021H332.146C333.767 105.021 335.083 106.337 335.083 107.959V193.757C335.09 195.378 333.774 196.695 332.146 196.695Z" fill="#DADADA"/>
<path d="M251.818 196.695H185.742C184.121 196.695 182.805 195.378 182.805 193.757V107.959C182.805 106.337 184.121 105.021 185.742 105.021H251.818C253.439 105.021 254.755 106.337 254.755 107.959V193.757C254.755 195.378 253.439 196.695 251.818 196.695Z" fill="#DADADA"/>
<path d="M411.107 196.695H345.031C343.41 196.695 342.094 195.378 342.094 193.757V107.959C342.094 106.337 343.41 105.021 345.031 105.021H411.107C412.728 105.021 414.044 106.337 414.044 107.959V193.757C414.051 195.378 412.735 196.695 411.107 196.695Z" fill="#DADADA"/>
<path d="M167.571 87.4205H421.066V82.0806C421.066 82.0806 421.276 77.7177 418.265 75.1055C415.253 72.4932 412.567 72.5068 411.943 72.5C411.319 72.4864 177.162 72.4864 177.162 72.4864C177.162 72.4864 173.757 72.1743 170.427 75.2547C167.042 78.3827 167.578 83.2408 167.578 83.2408V87.4205H167.571Z" fill="#E527BB"/>
<path d="M184.585 79.9501C184.585 81.3614 183.445 82.5013 182.035 82.5013C180.624 82.5013 179.484 81.3614 179.484 79.9501C179.484 78.5388 180.624 77.3989 182.035 77.3989C183.445 77.3989 184.585 78.5388 184.585 79.9501Z" fill="white"/>
<path d="M199.202 79.9501C199.202 81.3614 198.063 82.5013 196.652 82.5013C195.241 82.5013 194.102 81.3614 194.102 79.9501C194.102 78.5388 195.241 77.3989 196.652 77.3989C198.063 77.3989 199.202 78.5388 199.202 79.9501Z" fill="white"/>
<path d="M213.819 79.9501C213.819 81.3614 212.68 82.5013 211.269 82.5013C209.858 82.5013 208.719 81.3614 208.719 79.9501C208.719 78.5388 209.858 77.3989 211.269 77.3989C212.68 77.3989 213.819 78.5388 213.819 79.9501Z" fill="white"/>
<path d="M392.529 84.089H224.577C223.804 84.089 223.18 83.4647 223.18 82.6912V77.4463C223.18 76.6728 223.804 76.0486 224.577 76.0486H392.529C393.302 76.0486 393.926 76.6728 393.926 77.4463V82.6912C393.926 83.4647 393.302 84.089 392.529 84.089Z" fill="white"/>
<path d="M329.81 193.608H263.734C262.113 193.608 260.797 192.291 260.797 190.67V104.872C260.797 103.25 262.113 101.934 263.734 101.934H329.81C331.431 101.934 332.747 103.25 332.747 104.872V190.67C332.747 192.291 331.431 193.608 329.81 193.608Z" fill="#F8F6F6"/>
<path d="M249.482 193.608H183.406C181.785 193.608 180.469 192.291 180.469 190.67V104.872C180.469 103.25 181.785 101.934 183.406 101.934H249.482C251.103 101.934 252.419 103.25 252.419 104.872V190.67C252.419 192.291 251.103 193.608 249.482 193.608Z" fill="#F8F6F6"/>
<path d="M409.014 193.674H342.937C341.316 193.674 340 192.357 340 190.736V104.938C340 103.316 341.316 102 342.937 102H409.014C410.635 102 411.95 103.316 411.95 104.938V190.736C411.95 192.357 410.635 193.674 409.014 193.674Z" fill="#F8F6F6"/>
<path d="M414.731 236.469H342.773V207.293C342.773 205.672 344.089 204.355 345.71 204.355H411.787C413.408 204.355 414.724 205.672 414.724 207.293V236.469H414.731Z" fill="#DADADA"/>
<path d="M335.777 236.469H263.82V207.293C263.82 205.672 265.136 204.355 266.757 204.355H332.834C334.455 204.355 335.771 205.672 335.771 207.293V236.469H335.777Z" fill="#DADADA"/>
<path d="M255.443 236.469H183.492V207.293C183.492 205.672 184.808 204.355 186.429 204.355H252.506C254.127 204.355 255.443 205.672 255.443 207.293V236.469Z" fill="#DADADA"/>
<path d="M411.699 236.469H339.742V207.293C339.742 205.672 341.058 204.355 342.679 204.355H408.756C410.377 204.355 411.693 205.672 411.693 207.293V236.469H411.699Z" fill="#E527BB"/>
<path d="M332.746 236.469H260.789V207.293C260.789 205.672 262.105 204.355 263.726 204.355H329.803C331.424 204.355 332.739 205.672 332.739 207.293V236.469H332.746Z" fill="#A78BEF"/>
<path d="M252.418 236.469H180.461V207.293C180.461 205.672 181.777 204.355 183.398 204.355H249.474C251.095 204.355 252.411 205.672 252.411 207.293V236.469H252.418Z" fill="#34525C"/>
<path opacity="0.42" d="M329.318 147.767H264.164V150.861H329.318V147.767Z" fill="#DAA7EE" fill-opacity="0.32"/>
<path opacity="0.42" d="M329.318 153.948H264.164V157.043H329.318V153.948Z" fill="#DAA7EE" fill-opacity="0.32"/>
<path opacity="0.42" d="M329.318 160.137H264.164V163.231H329.318V160.137Z" fill="#DAA7EE" fill-opacity="0.32"/>
<path opacity="0.42" d="M329.318 166.318H264.164V169.412H329.318V166.318Z" fill="#DAA7EE" fill-opacity="0.32"/>
<path opacity="0.42" d="M329.318 172.499H264.164V175.593H329.318V172.499Z" fill="#DAA7EE" fill-opacity="0.32"/>
<path opacity="0.42" d="M329.318 178.68H264.164V181.774H329.318V178.68Z" fill="#DAA7EE" fill-opacity="0.32"/>
<path opacity="0.42" d="M303.992 184.868H264.164V187.962H303.992V184.868Z" fill="#DAA7EE" fill-opacity="0.32"/>
<path d="M249.021 147.767H183.867V150.861H249.021V147.767Z" fill="#DAA7EE" fill-opacity="0.32"/>
<path d="M249.021 153.948H183.867V157.043H249.021V153.948Z" fill="#DAA7EE" fill-opacity="0.32"/>
<path d="M249.021 160.137H183.867V163.231H249.021V160.137Z" fill="#DAA7EE" fill-opacity="0.32"/>
<path d="M249.021 166.318H183.867V169.412H249.021V166.318Z" fill="#DAA7EE" fill-opacity="0.32"/>
<path d="M249.021 172.499H183.867V175.593H249.021V172.499Z" fill="#DAA7EE" fill-opacity="0.32"/>
<path d="M249.021 178.68H183.867V181.774H249.021V178.68Z" fill="#DAA7EE" fill-opacity="0.32"/>
<path d="M223.695 184.868H183.867V187.962H223.695V184.868Z" fill="#DAA7EE" fill-opacity="0.32"/>
<path d="M283.494 114.154H264.93V132.725H283.494V114.154Z" fill="#E527BB"/>
<path d="M306.017 114.154H287.453V132.725H306.017V114.154Z" fill="#E527BB"/>
<path d="M328.548 114.154H309.984V132.725H328.548V114.154Z" fill="#A78BEF"/>
<path d="M210.418 135.517C215.964 129.968 215.964 120.972 210.418 115.424C204.871 109.875 195.878 109.875 190.332 115.424C184.785 120.972 184.785 129.968 190.332 135.517C195.878 141.065 204.871 141.065 210.418 135.517Z" fill="#E527BB"/>
<path d="M246.324 128.754C248.142 121.121 243.43 113.458 235.799 111.639C228.169 109.82 220.509 114.534 218.691 122.167C216.872 129.801 221.584 137.464 229.215 139.282C236.846 141.101 244.506 136.388 246.324 128.754Z" fill="#A78BEF"/>
<path d="M322.883 142.353L323.731 132.318L332.168 138.268L328.947 139.401L333.267 146.987L329.367 148.663L325.725 140.67L322.883 142.353Z" fill="#DADADA"/>
<path d="M323 144.507L324.143 131L335.519 139.018L331.175 140.534L337 150.753L331.742 153L326.831 142.251L323 144.507Z" fill="#E527BB"/>
<path d="M165.859 171.997L170.383 193.214L173.463 179.956L171.224 172.601L165.859 171.997Z" fill="#350C0C"/>
<path d="M164.5 202.788L175.963 199.958L186.923 203.48L169.567 207.795L164.5 202.788Z" fill="#A78BEF"/>
<path d="M201.783 237.535L206.518 236.184L215.457 238.166C215.457 238.166 216.475 239.326 214.738 239.326C213.002 239.326 204.958 239.326 204.958 239.326L201.18 241.565L201.783 237.535Z" fill="#FFE7C5"/>
<path d="M188.617 221.318L199.32 227.886C200.243 228.456 203.322 229.766 204.177 230.437C204.597 230.77 205.133 230.919 205.662 230.851C206.747 230.709 209.542 231.631 210.627 231.76L229.856 234.006L227.122 228.449L207.717 222.41L198.269 216.711L188.617 221.318Z" fill="#FFE7C5"/>
<path d="M186.013 219.676L199.558 228.978L206.07 218.869L186.929 203.48L179.773 208.107V208.141C180.052 212.715 182.337 216.935 186.013 219.676Z" fill="#A78BEF"/>
<path d="M157.792 249.877L156.483 249.958C155.615 250.013 154.855 249.348 154.801 248.479L153.316 225.064C153.261 224.195 153.926 223.435 154.794 223.381L156.103 223.299C156.971 223.245 157.731 223.91 157.785 224.779L159.271 248.194C159.325 249.069 158.66 249.823 157.792 249.877Z" fill="#1D1D1B"/>
<path d="M165.484 241.429L161.408 241.667C158.708 241.823 156.368 239.74 156.212 237.039L155.086 217.708C154.93 215.008 157.013 212.667 159.712 212.511L163.788 212.274C166.488 212.118 168.828 214.201 168.984 216.901L170.11 236.239C170.259 238.932 168.184 241.273 165.484 241.429Z" fill="#3C3C3B"/>
<path d="M289.531 251.383H245.383V327.994H289.531V251.383Z" fill="#635242"/>
<path d="M233.322 311.201L235.729 315.482L231.619 318.522L228.75 313.352L233.322 311.201Z" fill="#FFE7C5"/>
<path d="M235.986 315.285L234.86 312.415L229.922 316.364L231.238 318.807L235.986 315.285Z" fill="#F9B233"/>
<path d="M236.535 314.858L243.182 317.104L255.567 316.385C256.713 315.855 257.676 317.402 256.693 318.196L243.466 324.079L237.945 325.07L237.572 326.718L233.51 327.994L230.742 318.827L236.535 314.858Z" fill="#A78BEF"/>
<path d="M213.749 314.627L212.929 319.465L207.828 319.248L208.846 313.426L213.749 314.627Z" fill="#FFE7C5"/>
<path d="M213.252 319.479L214.182 316.541L207.867 316.5L207.352 319.228L213.252 319.479Z" fill="#F9B233"/>
<path d="M213.951 319.492L217.708 325.422L228.934 329.846C230.161 330.158 229.937 331.963 228.669 331.97L212.547 331.292L208.626 328.326L207.297 329.371L203.336 327.811L206.951 318.943L213.951 319.492Z" fill="#A78BEF"/>
<path d="M198.657 271.026L218.754 279.562L215.878 285.017L228.29 314.227L235.622 311.031L224.051 274.744C223.915 274.079 223.468 273.523 222.844 273.245L193.393 251.614L170.977 260.367L177.427 278.144L198.657 271.026Z" fill="#111110"/>
<path d="M201.472 282.364H161.414C159.82 282.364 158.531 281.075 158.531 279.48V276.128C158.531 274.534 159.82 273.245 161.414 273.245H201.472C203.066 273.245 204.355 274.534 204.355 276.128V279.48C204.355 281.075 203.066 282.364 201.472 282.364Z" fill="#3C3C3B"/>
<path d="M183.123 289.753H179.766V320.795H183.123V289.753Z" fill="#1D1D1B"/>
<path d="M184.186 293.247H178.699C175.05 293.247 172.086 290.282 172.086 286.632V282.364H190.799V286.632C190.799 290.282 187.835 293.247 184.186 293.247Z" fill="#1D1D1B"/>
<path d="M198.96 325.436H168.845C167.942 325.436 167.203 324.703 167.203 323.794V322.43C167.203 321.527 167.936 320.788 168.845 320.788H198.96C199.862 320.788 200.601 321.521 200.601 322.43V323.794C200.594 324.703 199.862 325.436 198.96 325.436Z" fill="#1D1D1B"/>
<path d="M198.482 329.12C200.138 329.12 201.48 327.777 201.48 326.121C201.48 324.465 200.138 323.122 198.482 323.122C196.827 323.122 195.484 324.465 195.484 326.121C195.484 327.777 196.827 329.12 198.482 329.12Z" fill="#1D1D1B"/>
<path d="M190.802 273.245L209.509 285.003L207.874 316.873L216.108 317.87L220.259 280.987C220.368 280.05 219.988 279.127 219.269 278.524L189.398 253.799L173.086 256.282V273.245H190.802Z" fill="#1D1D1B"/>
<path d="M195.042 252.821L186.923 203.48L163.57 206.357L171.879 260.366L195.042 252.821Z" fill="#A78BEF"/>
<path d="M289.53 241.558H128.938V251.383H289.53V241.558Z" fill="#7B6A58"/>
<path d="M181.442 251.383H128.938V327.994H181.442V251.383Z" fill="#7B6A58"/>
<path d="M261.155 241.558H202.669C202.234 241.558 201.875 241.199 201.875 240.764V240.106C201.875 239.672 202.228 239.312 202.669 239.312H261.155C261.589 239.312 261.949 239.665 261.949 240.106V240.764C261.949 241.205 261.589 241.558 261.155 241.558Z" fill="#706F6F"/>
<path d="M264.309 240.439H219.462C219.069 240.439 218.75 240.12 218.75 239.726V208.454C218.75 208.06 219.069 207.741 219.462 207.741H264.309C264.702 207.741 265.021 208.06 265.021 208.454V239.726C265.021 240.12 264.702 240.439 264.309 240.439Z" fill="#E527BB"/>
<path d="M242.307 227.085C240.849 227.085 239.648 225.891 239.648 224.426C239.648 222.967 240.842 221.766 242.307 221.766C243.766 221.766 244.966 222.96 244.966 224.426C244.959 225.891 243.766 227.085 242.307 227.085Z" fill="#A78BEF"/>
<path d="M160.711 221.881L165.235 236.591C165.554 237.63 165.689 238.708 165.886 239.781C166.049 240.656 166.795 241.368 167.765 241.409L201.176 241.565L201.78 237.535L174.331 235.323L171 224.799L160.711 221.881Z" fill="#FFE7C5"/>
<path d="M157.961 217.919L163.007 233.559L174.334 229.521L169.044 205.807C168.738 204.43 167.707 203.338 166.351 202.944C165.408 202.673 164.404 202.768 163.529 203.209L162.966 203.494C160.62 204.681 158.775 206.737 158.022 209.268C157.201 212.056 157.16 215.056 157.961 217.919Z" fill="#A78BEF"/>
<path d="M185.997 180.573V195.867H170.75L170.444 185.092C170.444 185.092 169.034 186.232 167.168 185.337C165.086 184.332 164.204 176.957 166.198 176.652C167.568 176.441 168.606 178.674 168.606 178.674C168.606 178.674 171.177 170.715 173.537 170.24C175.898 169.765 185.841 170.769 185.841 170.769L185.997 180.573Z" fill="#FFE7C5"/>
<path d="M170.445 185.099L170.391 202.198C170.391 202.354 170.458 202.503 170.574 202.612C172.826 204.613 176.102 204.939 178.699 203.426L179.262 195.867L170.445 185.099Z" fill="#FFE7C5"/>
<path d="M171.224 172.601C171.224 172.601 176.535 167.159 184.41 172.54C192.285 177.92 198.321 170.694 195.486 165.47C192.651 160.245 187.164 163.638 187.164 163.638C187.164 163.638 167.392 159.092 165.859 171.997L171.224 172.601Z" fill="#350C0C"/>
<path d="M168.603 178.68L171.072 185.099L172.571 184.76C172.571 184.76 168.183 171.719 175.718 170.348C183.254 168.978 170.835 168.503 170.835 168.503L168.102 172.255L168.603 178.68Z" fill="#350C0C"/>
<path d="M169.164 307.408H153.727V328.001H169.164V307.408Z" fill="#D1203D"/>
<path d="M153.853 307.053C153.853 307.053 152.198 289.126 141.169 286.365C130.792 283.766 118.454 285.082 115.199 260.398C114.581 255.703 117.525 251.109 122.137 250.01C125.42 249.23 129.666 250.064 134.278 255.472C137.86 259.679 133.729 267.333 151.649 273.398C169.568 279.464 169.29 297.947 169.29 307.046" fill="#39B039"/>
<path d="M161.636 307.408C161.636 307.408 161.968 291.802 154.466 286.082C144.876 278.768 124.195 278.768 126.162 261.812" stroke="#117B6A" stroke-miterlimit="10" stroke-linecap="round" stroke-linejoin="round"/>
<path d="M169.164 307.408H153.727V309.063H169.164V307.408Z" fill="black"/>
<path d="M169.164 310.346H153.727V312.001H169.164V310.346Z" fill="black"/>
<path d="M168.858 241.945H134.545C133.853 241.945 133.297 241.382 133.297 240.696V236.551C133.297 235.859 133.86 235.302 134.545 235.302H168.858C169.55 235.302 170.106 235.865 170.106 236.551V240.696C170.106 241.382 169.55 241.945 168.858 241.945Z" fill="#F9B233"/>
<path d="M170.106 238.62V240.683C170.106 241.368 169.469 241.918 168.682 241.918H134.721C133.934 241.918 133.297 241.361 133.297 240.683V238.62" fill="#F39200"/>
<path d="M162.871 229.969C162.871 229.969 161.244 232.018 162.871 234.773H136.06C136.06 234.773 134.703 234.203 134.703 232.351C134.703 230.499 136.026 229.786 136.602 229.786C137.179 229.786 162.871 229.969 162.871 229.969Z" fill="white"/>
<path d="M163.441 235.302H136.941C135.422 235.302 134.188 234.067 134.188 232.548V232.168C134.188 230.648 135.422 229.413 136.941 229.413H163.441C163.638 229.413 163.794 229.569 163.794 229.766C163.794 229.962 163.638 230.118 163.441 230.118H136.941C135.815 230.118 134.893 231.034 134.893 232.168V232.548C134.893 233.674 135.809 234.597 136.941 234.597H163.441C163.638 234.597 163.794 234.753 163.794 234.95C163.794 235.139 163.631 235.302 163.441 235.302Z" fill="#34525C"/>
<path d="M162.578 240.269H140.826C139.768 240.269 138.906 239.407 138.906 238.349C138.906 237.29 139.768 236.429 140.826 236.429H162.578C163.636 236.429 164.497 237.29 164.497 238.349C164.497 239.414 163.636 240.269 162.578 240.269Z" fill="white"/>
<path d="M165.523 236.591C165.523 236.591 167.151 238.641 165.523 241.395H192.335C192.335 241.395 193.692 240.825 193.692 238.973C193.692 237.121 192.369 236.408 191.793 236.408C191.216 236.408 165.523 236.591 165.523 236.591Z" fill="white"/>
<path d="M164.962 241.918H191.462C192.981 241.918 194.216 240.683 194.216 239.163V238.783C194.216 237.263 192.981 236.028 191.462 236.028H164.962C164.765 236.028 164.609 236.184 164.609 236.381C164.609 236.578 164.765 236.734 164.962 236.734H191.462C192.588 236.734 193.51 237.65 193.51 238.783V239.163C193.51 240.289 192.595 241.212 191.462 241.212H164.962C164.765 241.212 164.609 241.368 164.609 241.565C164.609 241.762 164.765 241.918 164.962 241.918Z" fill="#E30613"/>
<path d="M191.113 237.915V240.663L190.177 239.733L189.281 240.629V237.915H191.113Z" fill="#E30613"/>
<path opacity="0.38" d="M289.531 251.383L245.383 328.001V251.383H289.531Z" fill="#635242"/>
<path d="M375.172 168.082C360.738 168.082 349.031 156.371 349.031 141.932C349.031 128.871 358.608 118.035 371.122 116.081C372.438 115.877 373.788 115.775 375.165 115.775C382.897 115.775 389.849 119.141 394.624 124.481C398.782 129.115 401.305 135.228 401.305 141.932C401.312 156.378 389.605 168.082 375.172 168.082Z" fill="#E527BB"/>
<path d="M375.175 141.932L371.133 116.081C372.449 115.877 373.798 115.775 375.175 115.775C382.907 115.775 389.86 119.141 394.635 124.481L375.175 141.932Z" fill="#A78BEF"/>
<path d="M410.792 188.987H339.602V175.159H410.792V188.987ZM339.778 188.817H410.616V175.335H339.778V188.817Z" fill="#B7B7FF"/>
<path d="M410.702 186.083H339.688V186.259H410.702V186.083Z" fill="#B7B7FF"/>
<path d="M410.702 183.355H339.688V183.532H410.702V183.355Z" fill="#B7B7FF"/>
<path d="M410.702 180.621H339.688V180.797H410.702V180.621Z" fill="#B7B7FF"/>
<path d="M410.702 177.893H339.688V178.07H410.702V177.893Z" fill="#B7B7FF"/>
<path d="M398.958 175.247H398.781V188.899H398.958V175.247Z" fill="#B7B7FF"/>
<path d="M387.122 175.247H386.945V188.899H387.122V175.247Z" fill="#B7B7FF"/>
<path d="M375.286 175.247H375.109V188.899H375.286V175.247Z" fill="#B7B7FF"/>
<path d="M363.45 175.247H363.273V188.899H363.45V175.247Z" fill="#B7B7FF"/>
<path d="M351.614 175.247H351.438V188.899H351.614V175.247Z" fill="#B7B7FF"/>
<path d="M341.641 186.741C342.672 185.303 342.896 183.45 343.818 181.937C344.266 181.198 344.863 180.465 345.69 180.132C347.108 179.562 347.474 181.394 347.501 182.412C347.549 183.912 347.298 185.533 348.532 186.66C348.946 187.033 349.488 187.257 350.051 187.108C350.723 186.931 351.137 186.32 351.469 185.757C352.418 184.149 353.015 182.304 353.673 180.56C354.006 179.678 354.426 178.552 355.301 178.056C356.542 177.351 356.678 178.911 356.671 179.725C356.671 180.621 356.678 181.523 356.685 182.419C356.692 182.853 356.597 183.749 357.105 183.993C357.404 184.136 357.641 183.864 357.811 183.647C357.953 183.457 358.055 183.24 358.204 183.05C358.34 182.874 358.462 182.765 358.706 182.745C358.93 182.724 359.038 182.724 359.194 182.935C359.282 183.05 359.323 183.213 359.357 183.349C359.533 184.02 359.35 184.787 359.737 185.411C359.947 185.757 360.408 186.103 360.836 186.036C361.704 185.9 361.921 184.488 362.029 183.803C362.172 182.894 362.301 181.992 362.552 181.103C362.803 180.207 363.128 179.142 363.807 178.477C364.064 178.226 364.424 177.968 364.804 178.009C365.36 178.07 365.536 178.701 365.672 179.155C365.977 180.173 366.167 181.245 366.167 182.31C366.167 183.05 365.95 183.973 366.445 184.611C366.709 184.95 367.157 185.147 367.584 185.045C368.208 184.889 368.358 184.285 368.487 183.729C368.514 183.62 368.534 183.505 368.575 183.403C368.697 183.091 368.744 183.057 369.077 183.043C369.443 183.03 369.456 183.118 369.518 183.423C369.579 183.729 369.545 184.041 369.64 184.346C369.755 184.733 370.026 185.086 370.474 184.95C370.888 184.828 371.105 184.387 371.24 184.014C371.634 182.948 371.593 181.761 371.654 180.641C371.695 179.902 371.749 179.108 372.095 178.429C372.319 177.995 372.977 177.283 373.485 177.744C374.143 178.348 374.082 179.807 374.096 180.614C374.13 182.351 373.838 184.088 374.082 185.818C374.17 186.463 374.354 187.426 375.073 187.671C376.063 188.01 376.795 186.931 377.06 186.137C377.27 185.506 377.318 184.848 377.467 184.21C377.548 183.871 377.663 183.254 378.125 183.45C378.525 183.613 378.688 184.176 379.034 184.434C380.159 185.255 380.851 183.654 380.987 182.785C381.184 181.517 380.98 180.126 381.455 178.911C381.577 178.606 381.76 178.28 382.045 178.097C382.737 177.642 383.415 178.273 383.619 178.911C383.775 179.4 383.748 179.942 383.754 180.451C383.761 181.001 383.781 181.551 383.788 182.093C383.802 183.003 383.72 183.925 383.781 184.828C383.822 185.452 384.06 186.029 384.602 186.382C385.965 187.27 387.553 185.886 388.421 184.909C389.404 183.803 390.069 182.487 390.584 181.11C390.842 180.411 391.1 179.698 391.507 179.067C391.731 178.721 392.341 177.893 392.85 178.124C393.182 178.273 393.291 178.87 393.359 179.176C393.481 179.691 393.535 180.227 393.576 180.757C393.657 181.761 393.664 182.772 393.684 183.783C393.698 184.638 393.772 185.927 394.722 186.273C396.207 186.816 396.913 184.692 397.32 183.708C397.659 182.894 398.072 181.795 398.866 181.313C399.538 180.899 400.006 181.537 400.256 182.1C400.494 182.643 400.616 183.24 400.623 183.83C400.63 184.244 400.596 184.76 401.043 184.957C402.027 185.391 402.922 183.762 403.309 183.118C403.655 182.534 403.919 181.917 404.218 181.306C404.584 180.533 405.784 179.06 406.286 180.54C406.476 181.096 406.408 181.7 406.374 182.277C406.334 182.928 406.286 183.586 406.307 184.237C406.334 184.997 406.469 186.646 407.609 186.47C408.301 186.361 409.013 185.601 409.528 185.167C410.288 184.536 411.007 183.851 411.685 183.138C411.787 183.03 411.624 182.867 411.522 182.975C410.844 183.695 410.125 184.373 409.366 185.004C408.959 185.343 408.545 185.689 408.104 185.981C407.534 186.368 406.971 186.192 406.747 185.601C406.3 184.441 406.571 183.009 406.632 181.808C406.666 181.089 406.578 179.454 405.479 179.651C404.821 179.773 404.367 180.478 404.095 181.028C403.783 181.646 403.533 182.283 403.18 182.887C402.834 183.484 402.434 184.19 401.85 184.597C401.416 184.902 400.901 184.753 400.853 184.17C400.833 183.905 400.86 183.634 400.826 183.369C400.738 182.595 400.44 181.306 399.599 180.994C398.432 180.56 397.584 182.521 397.252 183.288C396.913 184.075 396.648 185.086 396.017 185.696C395.576 186.13 394.858 186.28 394.403 185.778C394.071 185.411 393.989 184.835 393.942 184.366C393.759 182.534 394.037 180.648 393.515 178.857C393.365 178.341 393.08 177.703 392.436 177.927C391.364 178.307 390.876 179.698 390.51 180.662C389.927 182.195 389.275 183.667 388.143 184.889C387.485 185.594 386.535 186.463 385.504 186.443C384.154 186.415 383.985 185.065 384.026 184.034C384.066 183.023 384.026 182.012 383.998 181.001C383.978 180.187 384.093 179.216 383.686 178.477C383.429 178.002 382.886 177.622 382.33 177.724C381.855 177.805 381.502 178.253 381.313 178.667C380.797 179.773 380.933 181.11 380.817 182.297C380.75 182.975 380.627 184.136 379.841 184.373C378.844 184.672 378.81 183.172 377.975 183.145C377.087 183.118 377.08 185.248 376.924 185.812C376.734 186.504 376.375 187.331 375.588 187.481C375.1 187.576 374.774 187.264 374.584 186.85C374.15 185.893 374.204 184.692 374.231 183.667C374.252 182.901 374.32 182.141 374.333 181.381C374.347 180.56 374.51 177.018 372.943 177.398C371.858 177.663 371.579 179.067 371.484 179.997C371.356 181.238 371.464 182.507 371.111 183.715C371.016 184.027 370.894 184.394 370.637 184.604C370.365 184.828 370.033 184.638 369.897 184.353C369.802 184.156 369.809 183.912 369.789 183.708C369.755 183.355 369.714 182.833 369.321 182.684C368.866 182.514 368.493 182.975 368.358 183.349C368.188 183.81 368.242 184.414 367.774 184.726C367.306 185.031 366.75 184.746 366.526 184.292C366.289 183.817 366.377 183.24 366.397 182.731C366.418 182.215 366.397 181.7 366.336 181.184C366.235 180.316 366.072 179.359 365.712 178.552C365.217 177.439 364.119 177.737 363.461 178.531C362.348 179.888 362.07 181.951 361.826 183.627C361.751 184.163 361.65 184.719 361.405 185.214C361.283 185.466 361.107 185.764 360.809 185.812C360.307 185.9 359.893 185.316 359.784 184.909C359.608 184.244 359.778 181.869 358.387 182.602C357.953 182.826 357.912 183.369 357.546 183.64C356.97 184.061 356.936 183.125 356.929 182.765C356.922 182.222 356.922 181.679 356.915 181.137C356.909 180.404 356.963 179.651 356.875 178.925C356.82 178.463 356.678 177.92 356.196 177.731C354.901 177.215 353.931 179.305 353.585 180.18C352.846 182.039 352.256 184.027 351.218 185.751C350.648 186.694 349.678 187.406 348.702 186.517C348.003 185.886 347.745 184.957 347.732 184.047C347.705 182.867 348.064 180.478 346.646 179.861C345.412 179.325 344.103 181.028 343.581 181.903C342.692 183.403 342.462 185.228 341.444 186.639C341.356 186.741 341.553 186.856 341.641 186.741Z" fill="#E527BB"/>
</g>
</g>
<defs>
<clipPath id="clip0_1954_4789">
<rect width="542.64" height="328.79" fill="white"/>
</clipPath>
<clipPath id="clip1_1954_4789">
<rect width="311.812" height="286.97" fill="white" transform="translate(115 45)"/>
</clipPath>
</defs>
</svg>
