<svg width="533" height="331" viewBox="0 0 533 331" fill="none" xmlns="http://www.w3.org/2000/svg">
<path opacity="0.2" fill-rule="evenodd" clip-rule="evenodd" d="M0 7.5756C0 7.5756 496.166 -10.2363 522.25 8.76437C545.499 25.7019 520.61 239.759 514.929 286.131C514.801 287.134 513.992 287.91 512.938 288.028C382.355 302.136 78.1811 295.779 13.6451 294.227C12.5792 294.197 11.7008 293.49 11.49 292.498C2.02627 247.216 0 7.5756 0 7.5756Z" fill="#999999"/>
<g clip-path="url(#clip0_1954_5844)">
<path d="M197.911 227.368L190.883 290.152H272.438L261.814 227.368H197.911Z" fill="#E527BB"/>
<path d="M72.0161 51.8798C63.1093 52.0787 56 59.3233 56 68.1935V216.157C56 228.328 65.7402 238.285 77.9578 238.598C132.224 239.99 322.024 243.372 373.679 242.611C382.559 242.481 389.749 235.404 390.006 226.565C391.001 192.189 392.622 109.53 386.634 71.1579C385.374 63.0756 378.522 57.0321 370.314 56.772C324.847 55.3223 123.652 50.7246 72.0161 51.8798Z" fill="#E527BB"/>
<path d="M76.0117 57.9259C70.3542 57.7882 65.6953 62.317 65.6953 67.9551V208.532C65.6953 215.639 71.4219 221.43 78.5581 221.537L366.621 225.083C373.695 225.19 379.495 219.522 379.518 212.476L379.998 73.1571C380.017 68.1196 375.988 63.9924 370.93 63.87L76.0117 57.9259Z" fill="#DAA7EE"/>
<path d="M381.313 230.187H381.309L65.3166 224.824C65.1899 224.82 65.09 224.717 65.0939 224.595C65.0977 224.472 65.1976 224.373 65.3205 224.373H65.3243L381.317 229.735C381.444 229.739 381.544 229.843 381.54 229.965C381.54 230.087 381.44 230.187 381.313 230.187Z" fill="#91B3FA"/>
<path d="M226.436 236.735C224.497 236.735 222.922 235.163 222.922 233.235C222.922 231.304 224.5 229.736 226.436 229.736C228.376 229.736 229.951 231.308 229.951 233.235C229.951 235.167 228.372 236.735 226.436 236.735ZM226.436 230.187C224.75 230.187 223.375 231.552 223.375 233.235C223.375 234.918 224.746 236.284 226.436 236.284C228.122 236.284 229.497 234.918 229.497 233.235C229.497 231.552 228.122 230.187 226.436 230.187Z" fill="#91B3FA"/>
<path d="M290.001 303H170.641C167.4 303 164.965 300.701 165.591 298.23L167.123 292.198C167.584 290.385 169.589 289.054 171.966 288.978L287.033 285.401C289.518 285.325 291.722 286.637 292.264 288.522L295.025 298.131C295.743 300.629 293.293 303 290.001 303Z" fill="#E527BB"/>
<path d="M234.898 290.45C234.776 290.45 234.672 290.351 234.672 290.228C234.672 290.102 234.772 289.999 234.895 289.999L239.826 289.926H239.83C239.953 289.926 240.057 290.025 240.057 290.148C240.057 290.274 239.957 290.377 239.834 290.377L234.898 290.45Z" fill="#91B3FA"/>
<path d="M170.124 296.612C170.112 296.612 170.101 296.612 170.089 296.608C169.966 296.589 169.882 296.471 169.901 296.348L170.385 293.319C170.642 291.709 172.017 290.527 173.654 290.5L209.765 289.976C209.888 289.983 209.995 290.075 209.995 290.198C209.995 290.324 209.895 290.427 209.772 290.427L173.661 290.955C172.248 290.974 171.061 291.999 170.838 293.392L170.354 296.421C170.331 296.532 170.231 296.612 170.124 296.612Z" fill="#91B3FA"/>
<path d="M276.625 146.526H168.342C164.743 146.526 161.828 144.093 161.828 141.091V121.602C161.828 118.653 164.643 116.243 168.177 116.171L276.46 113.86C280.12 113.784 283.139 116.236 283.139 119.292V141.091C283.139 144.093 280.22 146.526 276.625 146.526Z" fill="#E527BB"/>
<path d="M276.622 147.635H168.339C164.133 147.635 160.711 144.698 160.711 141.091V121.602C160.711 118.022 163.979 115.15 168.151 115.062L276.434 112.751C278.7 112.69 280.858 113.512 282.356 114.97C283.581 116.163 284.254 117.697 284.254 119.296V141.095C284.25 144.702 280.828 147.635 276.622 147.635ZM276.626 114.966C276.576 114.966 276.53 114.966 276.48 114.966L168.197 117.276C165.297 117.337 162.939 119.277 162.939 121.599V141.087C162.939 143.47 165.362 145.413 168.339 145.413H276.622C279.599 145.413 282.022 143.474 282.022 141.087V119.288C282.022 118.014 281.354 117.096 280.793 116.549C279.752 115.54 278.243 114.966 276.626 114.966Z" fill="url(#paint0_linear_1954_5844)"/>
<path d="M356.889 198.55L245.153 196.022C242.25 195.957 239.93 193.593 239.93 190.701V160.947C239.93 158.005 242.322 155.622 245.276 155.622H357.012C359.966 155.622 362.359 158.005 362.359 160.947V193.23C362.355 196.217 359.885 198.619 356.889 198.55Z" fill="white"/>
<path d="M238.82 222.001L363.915 223.608L362.759 211.659C362.528 209.272 360.558 207.424 358.15 207.344L244.612 203.427C242.012 203.339 239.811 205.332 239.658 207.918L238.82 222.001Z" fill="white"/>
<path d="M84.1484 220.502L215.891 222.747L214.82 162.373C214.754 158.617 211.693 155.599 207.925 155.568L93.47 154.593C89.0147 154.555 85.3583 158.097 85.2699 162.534L84.1484 220.502Z" fill="white"/>
<path opacity="0.75" d="M207.861 78.961C207.861 74.9676 204.643 71.7164 200.637 71.6513L181.959 71.3645C177.861 71.2994 174.508 74.5928 174.508 78.6741V94.5288C174.508 98.6101 177.865 101.903 181.967 101.835L200.644 101.536C204.65 101.471 207.865 98.2199 207.865 94.2304L207.861 78.961Z" fill="white"/>
<path opacity="0.75" d="M135.924 102.573L154.601 102.275C158.607 102.21 161.822 98.9583 161.822 94.9688V78.2534C161.822 74.2601 158.604 71.0089 154.598 70.9438L135.92 70.657C131.822 70.5919 128.469 73.8853 128.469 77.9666V95.271C128.465 99.3484 131.826 102.638 135.924 102.573Z" fill="white"/>
<path opacity="0.75" d="M358.538 79.6418C358.538 76.5588 356.057 74.0496 352.962 73.9999L227.683 72.0683C223.758 72.0071 220.539 75.1627 220.539 79.0719V94.0927C220.539 98.0057 223.758 101.161 227.687 101.096L352.965 99.0844C356.057 99.0347 358.538 96.5254 358.538 93.4425V79.6418Z" fill="white"/>
<path opacity="0.75" d="M115.781 76.8113C115.781 73.2234 112.889 70.2973 109.286 70.2438L86.418 69.8919C83.3069 69.8421 80.7413 72.3016 80.6683 75.3961L80.1345 97.6003C80.0576 100.802 82.6732 103.426 85.888 103.376L109.286 103.001C112.889 102.944 115.777 100.018 115.777 96.4337L115.781 76.8113Z" fill="white"/>
<path d="M467.426 172.655L286.341 169.606C279.051 169.484 273.198 175.711 273.632 183.132L279.866 289.88C280.207 295.721 284.924 300.3 290.666 300.357L464.73 302.071C469.028 302.113 472.581 298.662 472.746 294.279L476.909 182.868C477.121 177.356 472.838 172.747 467.426 172.655Z" fill="#E527BB"/>
<path d="M464.656 175.375L288.299 172.475C281.197 172.357 275.501 178.282 275.92 185.343L281.992 286.904C282.323 292.462 286.92 296.815 292.512 296.872L462.037 298.502C466.223 298.544 469.684 295.258 469.841 291.089L473.897 185.09C474.093 179.846 469.926 175.462 464.656 175.375Z" fill="#A78BEF"/>
<path d="M287.885 172.391L464.983 175.302C470.276 175.39 474.462 179.792 474.259 185.059L473.975 192.53H275.89L275.46 185.308C275.034 178.224 280.756 172.276 287.885 172.391Z" fill="#E527BB"/>
<g opacity="0.85">
<path d="M459.414 178.916C459.414 179.792 460.128 180.504 461.008 180.504C461.888 180.504 462.602 179.792 462.602 178.916C462.602 178.041 461.888 177.329 461.008 177.329C460.128 177.329 459.414 178.041 459.414 178.916Z" fill="#91B3FA"/>
<path d="M459.414 183.564C459.414 184.44 460.128 185.151 461.008 185.151C461.888 185.151 462.602 184.44 462.602 183.564C462.602 182.688 461.888 181.977 461.008 181.977C460.128 181.977 459.414 182.688 459.414 183.564Z" fill="#91B3FA"/>
<path d="M459.414 188.211C459.414 189.087 460.128 189.799 461.008 189.799C461.888 189.799 462.602 189.087 462.602 188.211C462.602 187.335 461.888 186.624 461.008 186.624C460.128 186.624 459.414 187.335 459.414 188.211Z" fill="#91B3FA"/>
</g>
<g opacity="0.56">
<path d="M435.192 237.504H454.292C456.9 237.504 458.982 239.677 458.855 242.274L456.681 286.484C456.562 288.905 454.553 290.81 452.118 290.81H435.192C432.668 290.81 430.625 288.775 430.625 286.262V242.052C430.625 239.539 432.668 237.504 435.192 237.504Z" fill="white"/>
<path d="M389.245 197.391L456.282 198.424C458.863 198.462 460.899 200.627 460.772 203.194L459.654 225.895C459.535 228.317 457.527 230.221 455.092 230.221H389.176C386.653 230.221 384.609 228.187 384.609 225.673V201.935C384.609 199.399 386.699 197.349 389.245 197.391Z" fill="white"/>
<path d="M389.176 237.504H420.394C422.917 237.504 424.961 239.539 424.961 242.052V286.262C424.961 288.775 422.917 290.81 420.394 290.81H389.176C386.653 290.81 384.609 288.775 384.609 286.262V242.052C384.609 239.539 386.653 237.504 389.176 237.504Z" fill="white"/>
</g>
<path opacity="0.51" d="M363.553 221.068C369.826 220.193 374.199 214.422 373.32 208.177C372.442 201.932 366.645 197.579 360.373 198.454C354.1 199.329 349.728 205.101 350.606 211.345C351.484 217.59 357.281 221.943 363.553 221.068Z" fill="white"/>
<path opacity="0.51" d="M333.5 221.19C339.834 221.19 344.968 216.077 344.968 209.769C344.968 203.461 339.834 198.347 333.5 198.347C327.166 198.347 322.031 203.461 322.031 209.769C322.031 216.077 327.166 221.19 333.5 221.19Z" fill="white"/>
<path opacity="0.51" d="M305 221.569C311.334 221.569 316.468 216.456 316.468 210.148C316.468 203.84 311.334 198.726 305 198.726C298.666 198.726 293.531 203.84 293.531 210.148C293.531 216.456 298.666 221.569 305 221.569Z" fill="white"/>
<path d="M355.178 207.359C354.824 208.22 354.624 209.161 354.624 210.148C354.624 214.198 357.924 217.484 361.991 217.484C366.058 217.484 369.358 214.198 369.358 210.148C369.358 206.097 366.058 202.811 361.991 202.811C361.868 202.811 361.741 202.815 361.619 202.819V200.96C361.741 200.956 361.864 200.952 361.991 200.952C367.088 200.952 371.224 205.068 371.224 210.148C371.224 215.227 367.092 219.343 361.991 219.343C356.891 219.343 352.758 215.227 352.758 210.148C352.758 208.897 353.007 207.707 353.465 206.621L355.178 207.359Z" fill="#E527BB"/>
<path d="M329.683 216.356C330.82 217.071 332.165 217.484 333.609 217.484C337.676 217.484 340.975 214.198 340.975 210.148C340.975 206.097 337.676 202.811 333.609 202.811C333.486 202.811 333.359 202.815 333.236 202.819V200.96C333.359 200.956 333.482 200.952 333.609 200.952C338.705 200.952 342.842 205.068 342.842 210.148C342.842 215.227 338.709 219.343 333.609 219.343C331.83 219.343 330.167 218.842 328.758 217.974L329.683 216.356Z" fill="#E527BB"/>
<path d="M298.841 214.271C300.166 216.21 302.402 217.484 304.933 217.484C309 217.484 312.3 214.198 312.3 210.148C312.3 206.097 309 202.811 304.933 202.811C304.81 202.811 304.683 202.815 304.56 202.819V200.96C304.683 200.956 304.806 200.952 304.933 200.952C310.03 200.952 314.166 205.068 314.166 210.148C314.166 215.227 310.033 219.343 304.933 219.343C301.78 219.343 298.995 217.767 297.328 215.365L298.841 214.271Z" fill="#E527BB"/>
<g opacity="0.51">
<path d="M352.647 226.033H371.333C372.504 226.033 373.457 226.982 373.457 228.148C373.457 229.315 372.504 230.263 371.333 230.263H352.647C351.476 230.263 350.523 229.315 350.523 228.148C350.523 226.978 351.476 226.033 352.647 226.033Z" fill="white"/>
<path d="M324.147 226.033H342.833C344.004 226.033 344.957 226.982 344.957 228.148C344.957 229.315 344.004 230.263 342.833 230.263H324.147C322.976 230.263 322.023 229.315 322.023 228.148C322.023 226.982 322.972 226.033 324.147 226.033Z" fill="white"/>
<path d="M314.333 230.263H295.647C294.476 230.263 293.523 229.315 293.523 228.148C293.523 226.982 294.476 226.033 295.647 226.033H314.333C315.504 226.033 316.457 226.982 316.457 228.148C316.457 229.315 315.504 230.263 314.333 230.263Z" fill="white"/>
<path d="M352.647 232.612H371.333C372.504 232.612 373.457 233.561 373.457 234.727V247.182C373.457 248.348 372.504 249.297 371.333 249.297H352.647C351.476 249.297 350.523 248.348 350.523 247.182V234.727C350.523 233.561 351.476 232.612 352.647 232.612Z" fill="white"/>
<path d="M324.147 232.612H342.833C344.004 232.612 344.957 233.561 344.957 234.727V247.182C344.957 248.348 344.004 249.297 342.833 249.297H324.147C322.976 249.297 322.023 248.348 322.023 247.182V234.727C322.023 233.561 322.972 232.612 324.147 232.612Z" fill="white"/>
<path d="M295.647 232.612H314.333C315.504 232.612 316.457 233.561 316.457 234.727V247.182C316.457 248.348 315.504 249.297 314.333 249.297H295.647C294.476 249.297 293.523 248.348 293.523 247.182V234.727C293.523 233.561 294.472 232.612 295.647 232.612Z" fill="white"/>
</g>
<path d="M421.325 265.962V282.747C421.325 285.371 419.189 287.497 416.554 287.497H393.471C390.763 287.497 388.57 285.313 388.57 282.617V257.345C388.57 255.218 391.205 254.216 392.63 255.799L397.089 260.764C398.806 262.677 401.713 262.945 403.753 261.38L404.179 261.051C405.754 259.846 407.959 259.9 409.472 261.181L411.915 263.251C413.797 264.842 416.424 265.228 418.686 264.241C419.93 263.706 421.325 264.612 421.325 265.962Z" fill="#E527BB"/>
<path d="M368.453 290.81H372.321V273.371H368.453V290.81Z" fill="#E527BB"/>
<path d="M361.992 290.81H365.86V279.365H361.992V290.81Z" fill="#E527BB"/>
<path d="M355.531 290.81H359.399V264.555H355.531V290.81Z" fill="#E527BB"/>
<path d="M349.062 290.81H352.93V284.502H349.062V290.81Z" fill="#E527BB"/>
<path d="M342.602 290.81H346.469V268.062H342.602V290.81Z" fill="#E527BB"/>
<path d="M336.133 290.81H340V272.002H336.133V290.81Z" fill="#E527BB"/>
<path d="M329.672 290.81H333.54V276.282H329.672V290.81Z" fill="#E527BB"/>
<path d="M323.211 290.81H327.079V259.246H323.211V290.81Z" fill="#E527BB"/>
<path d="M316.742 290.81H320.61V262.585H316.742V290.81Z" fill="#E527BB"/>
<path d="M310.281 290.81H314.149V267.638H310.281V290.81Z" fill="#E527BB"/>
<path d="M303.812 290.81H307.68V285.087H303.812V290.81Z" fill="#E527BB"/>
<path d="M297.352 290.81H301.219V273.972H297.352V290.81Z" fill="#E527BB"/>
<path opacity="0.42" d="M362.204 259.246H379.226C379.975 259.246 380.582 259.85 380.582 260.596C380.582 261.342 379.975 261.946 379.226 261.946H362.204C361.455 261.946 360.852 261.342 360.852 260.596C360.852 259.85 361.458 259.246 362.204 259.246Z" fill="white"/>
<path opacity="0.42" d="M362.204 255.027H379.226C379.975 255.027 380.582 255.631 380.582 256.373C380.582 257.119 379.975 257.719 379.226 257.719H362.204C361.455 257.719 360.852 257.115 360.852 256.373C360.852 255.631 361.458 255.027 362.204 255.027Z" fill="white"/>
<path opacity="0.42" d="M331.496 259.246H348.519C349.268 259.246 349.871 259.85 349.871 260.596C349.871 261.342 349.264 261.946 348.519 261.946H331.496C330.747 261.946 330.141 261.342 330.141 260.596C330.144 259.85 330.747 259.246 331.496 259.246Z" fill="white"/>
<path opacity="0.42" d="M331.496 255.027H348.519C349.268 255.027 349.871 255.631 349.871 256.373C349.871 257.119 349.264 257.719 348.519 257.719H331.496C330.747 257.719 330.141 257.115 330.141 256.373C330.144 255.631 330.747 255.027 331.496 255.027Z" fill="white"/>
<path d="M220.435 178.874L226.518 133.425C226.68 132.205 225.132 130.97 223.972 131.398L180.79 147.299C179.803 147.662 179.841 148.997 180.863 149.808L186.878 154.597C187.65 155.213 187.899 156.184 187.431 156.769L160.949 189.745C160.48 190.33 160.726 191.302 161.498 191.917L180.967 207.424C181.739 208.04 182.745 208.067 183.217 207.481L209.7 174.506C210.168 173.921 211.174 173.948 211.95 174.563L217.965 179.352C218.979 180.167 220.293 179.911 220.435 178.874Z" fill="#A78BEF"/>
<path d="M182.253 209.685C181.443 209.685 180.594 209.394 179.857 208.809L160.388 193.302C159.712 192.763 159.232 192.036 159.032 191.252C158.79 190.303 158.982 189.351 159.558 188.636L185.775 155.989C185.772 155.985 185.772 155.985 185.768 155.981L179.753 151.193C178.681 150.34 178.14 149.058 178.336 147.853C178.505 146.824 179.192 145.994 180.179 145.631L223.361 129.73C224.498 129.313 225.808 129.566 226.864 130.404C227.92 131.245 228.454 132.461 228.297 133.659L222.213 179.108C222.075 180.144 221.41 180.997 220.438 181.383C219.298 181.839 217.927 181.59 216.855 180.741L210.84 175.952C210.836 175.948 210.836 175.948 210.833 175.948L184.612 208.591C184.028 209.318 183.164 209.685 182.253 209.685ZM162.608 190.525C162.612 190.525 162.612 190.529 162.615 190.529L182.084 206.036C182.088 206.04 182.088 206.039 182.092 206.043L208.309 173.397C209.408 172.027 211.497 171.928 213.064 173.175L218.791 177.738L224.744 133.291C224.694 133.219 224.583 133.131 224.502 133.096L182.269 148.649L187.995 153.208C189.562 154.455 189.927 156.505 188.825 157.875L162.608 190.525Z" fill="#BDD0FB"/>
<path d="M263.948 110.632C272.212 110.632 278.912 103.96 278.912 95.7297C278.912 87.4994 272.212 80.8274 263.948 80.8274C255.684 80.8274 248.984 87.4994 248.984 95.7297C248.984 103.96 255.684 110.632 263.948 110.632Z" fill="#A78BEF"/>
<path d="M263.945 110.139C271.935 110.139 278.413 103.687 278.413 95.7297C278.413 87.7719 271.935 81.3208 263.945 81.3208C255.954 81.3208 249.477 87.7719 249.477 95.7297C249.477 103.687 255.954 110.139 263.945 110.139Z" fill="#A78BEF"/>
<path opacity="0.58" d="M252.018 89.973C251.983 89.973 251.948 89.9653 251.914 89.95C251.802 89.8926 251.756 89.7549 251.814 89.644C254.141 85.054 258.789 82.2043 263.947 82.2043C264.769 82.2043 265.595 82.277 266.397 82.4224C266.52 82.4453 266.605 82.5639 266.582 82.6863C266.559 82.8087 266.444 82.8928 266.317 82.8699C265.541 82.7284 264.746 82.6595 263.947 82.6595C258.962 82.6595 254.468 85.4135 252.221 89.8506C252.183 89.9271 252.102 89.973 252.018 89.973Z" fill="white"/>
<path opacity="0.7" d="M276.293 98.3264C277.572 91.7129 273.225 85.3193 266.585 84.0458C259.944 82.7723 253.524 87.1011 252.245 93.7145C250.966 100.328 255.313 106.722 261.954 107.995C268.594 109.269 275.014 104.94 276.293 98.3264Z" fill="white"/>
<path d="M263.058 105.109V103.781C261.668 103.728 260.297 103.399 259.321 102.974C258.972 102.821 258.795 102.435 258.895 102.068L259.233 100.832C259.356 100.377 259.851 100.144 260.289 100.327C261.257 100.733 262.451 101.05 263.742 101.05C265.079 101.05 266.077 100.599 266.077 99.6733C266.077 98.8394 265.305 98.3421 263.446 97.8449C260.792 97.122 258.891 95.9706 258.891 93.645C258.891 91.5451 260.431 89.9424 263.108 89.514V88.1867C263.108 87.7583 263.458 87.4141 263.884 87.4141H264.668C265.098 87.4141 265.443 87.7583 265.443 88.1867V89.3763C266.73 89.426 267.663 89.6479 268.405 89.908C268.785 90.0419 268.992 90.4473 268.889 90.8375L268.577 91.9811C268.458 92.421 267.986 92.662 267.556 92.5013C266.872 92.2451 265.904 91.9773 264.648 91.9773C263.062 91.9773 262.609 92.6314 262.609 93.2204C262.609 93.9434 263.561 94.4406 265.624 95.0718C268.57 95.9515 269.795 97.1717 269.795 99.3596C269.795 101.368 268.297 103.177 265.397 103.628V105.112C265.397 105.541 265.048 105.885 264.621 105.885H263.838C263.408 105.881 263.058 105.537 263.058 105.109Z" fill="#A78BEF"/>
<path d="M298.31 88.7759C308.784 88.7759 317.275 80.3195 317.275 69.888C317.275 59.4564 308.784 51 298.31 51C287.835 51 279.344 59.4564 279.344 69.888C279.344 80.3195 287.835 88.7759 298.31 88.7759Z" fill="#A78BEF"/>
<path d="M298.312 88.1485C308.439 88.1485 316.648 79.9729 316.648 69.8878C316.648 59.8028 308.439 51.6272 298.312 51.6272C288.186 51.6272 279.977 59.8028 279.977 69.8878C279.977 79.9729 288.186 88.1485 298.312 88.1485Z" fill="#A78BEF"/>
<path opacity="0.58" d="M283.189 62.5285C283.155 62.5285 283.12 62.5209 283.086 62.5056C282.974 62.4482 282.928 62.3105 282.986 62.1996C285.924 56.4047 291.797 52.8015 298.311 52.8015C299.351 52.8015 300.392 52.8933 301.406 53.0807C301.529 53.1037 301.614 53.2223 301.591 53.3447C301.568 53.4671 301.448 53.5512 301.326 53.5283C300.338 53.3485 299.325 53.2567 298.314 53.2567C291.973 53.2567 286.258 56.7604 283.397 62.4023C283.351 62.4865 283.27 62.5285 283.189 62.5285Z" fill="white"/>
<path opacity="0.7" d="M298.716 85.7466C307.288 85.7466 314.237 78.8263 314.237 70.2897C314.237 61.7531 307.288 54.8328 298.716 54.8328C290.144 54.8328 283.195 61.7531 283.195 70.2897C283.195 78.8263 290.144 85.7466 298.716 85.7466Z" fill="white"/>
<path d="M297.187 81.7762V80.0932C295.428 80.0243 293.684 79.6112 292.452 79.0719C292.01 78.8807 291.783 78.3872 291.91 77.9244L292.34 76.36C292.498 75.7862 293.124 75.4879 293.677 75.7174C294.902 76.2299 296.419 76.6354 298.051 76.6354C299.745 76.6354 301.013 76.0616 301.013 74.8912C301.013 73.8316 300.037 73.2043 297.679 72.5732C294.318 71.659 291.902 70.1979 291.902 67.2488C291.902 64.5866 293.857 62.5555 297.249 62.0123V60.3293C297.249 59.79 297.69 59.3501 298.232 59.3501H299.223C299.764 59.3501 300.206 59.79 300.206 60.3293V61.8402C301.835 61.9052 303.021 62.1844 303.962 62.5134C304.446 62.6817 304.707 63.1981 304.573 63.6915L304.177 65.1412C304.024 65.6996 303.425 66.0056 302.883 65.7991C302.015 65.474 300.794 65.1335 299.2 65.1335C297.187 65.1335 296.615 65.9636 296.615 66.7056C296.615 67.6198 297.821 68.2509 300.436 69.0503C304.174 70.1673 305.725 71.7126 305.725 74.4857C305.725 77.0332 303.828 79.3205 300.152 79.8943V81.7762C300.152 82.3155 299.711 82.7554 299.169 82.7554H298.178C297.629 82.7554 297.187 82.3193 297.187 81.7762Z" fill="#A78BEF"/>
<path d="M307.403 115.505C313.701 115.505 318.807 110.42 318.807 104.148C318.807 97.8765 313.701 92.792 307.403 92.792C301.105 92.792 296 97.8765 296 104.148C296 110.42 301.105 115.505 307.403 115.505Z" fill="#A78BEF"/>
<path d="M307.406 115.126C313.494 115.126 318.429 110.211 318.429 104.148C318.429 98.0856 313.494 93.1707 307.406 93.1707C301.318 93.1707 296.383 98.0856 296.383 104.148C296.383 110.211 301.318 115.126 307.406 115.126Z" fill="#A78BEF"/>
<path opacity="0.58" d="M298.314 99.8149C298.28 99.8149 298.245 99.8072 298.211 99.7919C298.099 99.7345 298.053 99.5968 298.111 99.4859C299.893 95.9707 303.453 93.7866 307.402 93.7866C308.032 93.7866 308.665 93.844 309.28 93.9549C309.403 93.9779 309.487 94.0964 309.464 94.2188C309.441 94.3412 309.322 94.4254 309.199 94.4024C308.612 94.2953 308.009 94.2418 307.406 94.2418C303.63 94.2418 300.223 96.3303 298.518 99.6886C298.48 99.769 298.399 99.8149 298.314 99.8149Z" fill="white"/>
<path opacity="0.7" d="M311.229 112.965C315.989 111.001 318.25 105.566 316.278 100.825C314.306 96.0844 308.848 93.8331 304.088 95.7969C299.328 97.7606 297.067 103.196 299.039 107.936C301.011 112.677 306.468 114.928 311.229 112.965Z" fill="white"/>
<path d="M306.725 111.294V110.284C305.665 110.242 304.62 109.993 303.875 109.668C303.61 109.553 303.476 109.255 303.553 108.976L303.81 108.035C303.906 107.691 304.282 107.511 304.613 107.649C305.35 107.955 306.26 108.199 307.244 108.199C308.262 108.199 309.022 107.855 309.022 107.151C309.022 106.516 308.434 106.138 307.017 105.759C304.997 105.208 303.545 104.332 303.545 102.557C303.545 100.959 304.72 99.7345 306.76 99.4094V98.3996C306.76 98.0745 307.025 97.8105 307.351 97.8105H307.947C308.273 97.8105 308.538 98.0745 308.538 98.3996V99.3061C309.517 99.3444 310.228 99.5127 310.796 99.7116C311.085 99.8149 311.246 100.125 311.165 100.419L310.927 101.291C310.835 101.628 310.474 101.812 310.147 101.689C309.625 101.494 308.891 101.287 307.935 101.287C306.725 101.287 306.38 101.785 306.38 102.232C306.38 102.783 307.105 103.162 308.676 103.644C310.923 104.313 311.856 105.243 311.856 106.91C311.856 108.44 310.716 109.817 308.507 110.162V111.294C308.507 111.619 308.242 111.883 307.916 111.883H307.321C306.99 111.883 306.725 111.619 306.725 111.294Z" fill="#A78BEF"/>
<path d="M339.857 110.448C350.819 110.448 359.706 101.598 359.706 90.6808C359.706 79.7634 350.819 70.9131 339.857 70.9131C328.895 70.9131 320.008 79.7634 320.008 90.6808C320.008 101.598 328.895 110.448 339.857 110.448Z" fill="#A78BEF"/>
<path d="M339.86 109.791C350.458 109.791 359.049 101.235 359.049 90.6808C359.049 80.1268 350.458 71.571 339.86 71.571C329.263 71.571 320.672 80.1268 320.672 90.6808C320.672 101.235 329.263 109.791 339.86 109.791Z" fill="#A78BEF"/>
<path opacity="0.58" d="M324.033 82.9696C323.999 82.9696 323.964 82.962 323.929 82.9467C323.818 82.8893 323.772 82.7516 323.83 82.6407C326.902 76.578 333.044 72.8142 339.857 72.8142C340.944 72.8142 342.035 72.9137 343.095 73.1049C343.218 73.1279 343.302 73.2464 343.279 73.3688C343.256 73.4912 343.141 73.5754 343.014 73.5524C341.981 73.365 340.921 73.2694 339.861 73.2694C333.22 73.2694 327.236 76.9376 324.241 82.8472C324.198 82.9237 324.118 82.9696 324.033 82.9696Z" fill="white"/>
<path opacity="0.7" d="M340.278 107.27C349.246 107.27 356.517 100.029 356.517 91.0977C356.517 82.1661 349.246 74.9255 340.278 74.9255C331.309 74.9255 324.039 82.1661 324.039 91.0977C324.039 100.029 331.309 107.27 340.278 107.27Z" fill="white"/>
<path d="M338.685 103.12V101.36C336.842 101.287 335.021 100.855 333.727 100.289C333.266 100.086 333.028 99.57 333.162 99.0881L333.612 97.4472C333.777 96.8466 334.434 96.5368 335.01 96.7739C336.293 97.3095 337.879 97.734 339.588 97.734C341.362 97.734 342.684 97.1335 342.684 95.9057C342.684 94.7964 341.662 94.1385 339.196 93.4806C335.678 92.5205 333.151 90.9943 333.151 87.9114C333.151 85.1268 335.194 83.0001 338.743 82.4301V80.6706C338.743 80.1045 339.204 79.6455 339.772 79.6455H340.809C341.378 79.6455 341.839 80.1045 341.839 80.6706V82.2503C343.544 82.3192 344.785 82.6099 345.768 82.9542C346.271 83.1301 346.547 83.6733 346.409 84.1858L345.998 85.7005C345.841 86.2857 345.211 86.607 344.642 86.389C343.736 86.0486 342.453 85.6929 340.79 85.6929C338.685 85.6929 338.082 86.5611 338.082 87.3414C338.082 88.3015 339.346 88.9594 342.081 89.7971C345.991 90.9637 347.615 92.5817 347.615 95.4887C347.615 98.1548 345.629 100.549 341.781 101.15V103.12C341.781 103.686 341.32 104.145 340.752 104.145H339.715C339.146 104.149 338.685 103.69 338.685 103.12Z" fill="#A78BEF"/>
<path d="M353.542 155.174C364.823 155.174 373.968 146.067 373.968 134.833C373.968 123.599 364.823 114.491 353.542 114.491C342.262 114.491 333.117 123.599 333.117 134.833C333.117 146.067 342.262 155.174 353.542 155.174Z" fill="#A78BEF"/>
<path d="M353.542 154.497C364.447 154.497 373.288 145.693 373.288 134.833C373.288 123.973 364.447 115.168 353.542 115.168C342.637 115.168 333.797 123.973 333.797 134.833C333.797 145.693 342.637 154.497 353.542 154.497Z" fill="#A78BEF"/>
<path opacity="0.58" d="M337.26 126.892C337.225 126.892 337.191 126.884 337.156 126.869C337.045 126.812 336.999 126.674 337.056 126.563C340.217 120.328 346.531 116.454 353.541 116.454C354.658 116.454 355.78 116.553 356.871 116.752C356.994 116.775 357.078 116.893 357.055 117.016C357.032 117.138 356.917 117.222 356.79 117.199C355.726 117.008 354.635 116.909 353.545 116.909C346.708 116.909 340.547 120.688 337.467 126.766C337.425 126.846 337.344 126.892 337.26 126.892Z" fill="white"/>
<path opacity="0.7" d="M353.969 151.904C363.198 151.904 370.68 144.453 370.68 135.261C370.68 126.07 363.198 118.619 353.969 118.619C344.74 118.619 337.258 126.07 337.258 135.261C337.258 144.453 344.74 151.904 353.969 151.904Z" fill="white"/>
<path d="M352.336 147.631V145.822C350.443 145.746 348.565 145.302 347.236 144.72C346.76 144.514 346.518 143.982 346.656 143.485L347.117 141.798C347.286 141.179 347.962 140.861 348.557 141.106C349.878 141.657 351.511 142.093 353.266 142.093C355.09 142.093 356.454 141.477 356.454 140.215C356.454 139.075 355.401 138.398 352.863 137.721C349.241 136.734 346.644 135.162 346.644 131.991C346.644 129.126 348.749 126.938 352.398 126.353V124.544C352.398 123.962 352.874 123.488 353.458 123.488H354.526C355.109 123.488 355.586 123.962 355.586 124.544V126.169C357.341 126.238 358.616 126.536 359.63 126.892C360.148 127.072 360.433 127.63 360.291 128.158L359.864 129.719C359.699 130.319 359.054 130.648 358.47 130.43C357.537 130.078 356.219 129.715 354.503 129.715C352.336 129.715 351.718 130.61 351.718 131.409C351.718 132.396 353.016 133.073 355.831 133.938C359.853 135.139 361.523 136.803 361.523 139.794C361.523 142.536 359.48 145 355.52 145.619V147.647C355.52 148.228 355.044 148.702 354.46 148.702H353.393C352.813 148.687 352.336 148.217 352.336 147.631Z" fill="#A78BEF"/>
<path d="M425.765 144.185C427.521 133.408 420.172 123.254 409.351 121.505C398.53 119.756 388.334 127.075 386.578 137.851C384.822 148.628 392.171 158.782 402.992 160.531C413.813 162.28 424.008 154.961 425.765 144.185Z" fill="#A78BEF"/>
<path d="M425.112 144.08C426.81 133.662 419.706 123.846 409.245 122.155C398.784 120.464 388.928 127.539 387.23 137.957C385.533 148.375 392.636 158.191 403.097 159.881C413.558 161.572 423.415 154.497 425.112 144.08Z" fill="#A78BEF"/>
<path opacity="0.58" d="M390.338 133.31C390.303 133.31 390.269 133.303 390.234 133.288C390.123 133.23 390.077 133.092 390.134 132.982C393.207 126.919 399.348 123.155 406.162 123.155C407.249 123.155 408.34 123.254 409.4 123.446C409.523 123.469 409.607 123.587 409.584 123.71C409.561 123.832 409.442 123.916 409.319 123.893C408.286 123.706 407.226 123.61 406.166 123.61C399.525 123.61 393.541 127.278 390.545 133.188C390.503 133.265 390.422 133.31 390.338 133.31Z" fill="white"/>
<path opacity="0.7" d="M412.822 156.379C421.109 152.96 425.045 143.497 421.612 135.243C418.179 126.989 408.677 123.07 400.389 126.489C392.101 129.908 388.166 139.37 391.599 147.624C395.032 155.878 404.534 159.798 412.822 156.379Z" fill="white"/>
<path d="M404.99 153.461V151.701C403.146 151.629 401.326 151.196 400.032 150.63C399.571 150.427 399.333 149.911 399.467 149.429L399.916 147.788C400.082 147.188 400.738 146.878 401.314 147.115C402.597 147.651 404.183 148.075 405.893 148.075C407.667 148.075 408.988 147.475 408.988 146.247C408.988 145.137 407.967 144.48 405.501 143.822C401.983 142.862 399.455 141.335 399.455 138.252C399.455 135.468 401.499 133.341 405.048 132.771V131.012C405.048 130.446 405.509 129.987 406.077 129.987H407.114C407.682 129.987 408.143 130.446 408.143 131.012V132.591C409.849 132.66 411.089 132.951 412.072 133.295C412.576 133.471 412.852 134.014 412.714 134.527L412.303 136.042C412.145 136.627 411.516 136.948 410.947 136.73C410.041 136.39 408.758 136.034 407.095 136.034C404.99 136.034 404.387 136.902 404.387 137.683C404.387 138.643 405.651 139.3 408.385 140.138C412.295 141.305 413.92 142.923 413.92 145.83C413.92 148.496 411.934 150.89 408.086 151.491V153.461C408.086 154.027 407.625 154.486 407.056 154.486H406.019C405.451 154.486 404.99 154.027 404.99 153.461Z" fill="#A78BEF"/>
<path d="M379.432 184.512C387.697 184.512 394.396 177.84 394.396 169.61C394.396 161.38 387.697 154.708 379.432 154.708C371.168 154.708 364.469 161.38 364.469 169.61C364.469 177.84 371.168 184.512 379.432 184.512Z" fill="#A78BEF"/>
<path d="M379.429 184.019C387.42 184.019 393.897 177.568 393.897 169.61C393.897 161.652 387.42 155.201 379.429 155.201C371.439 155.201 364.961 161.652 364.961 169.61C364.961 177.568 371.439 184.019 379.429 184.019Z" fill="#A78BEF"/>
<path opacity="0.58" d="M367.502 163.85C367.467 163.85 367.433 163.842 367.398 163.827C367.287 163.769 367.241 163.632 367.298 163.521C369.626 158.931 374.273 156.081 379.431 156.081C380.253 156.081 381.079 156.154 381.882 156.299C382.005 156.322 382.089 156.441 382.066 156.563C382.043 156.685 381.924 156.77 381.801 156.747C381.025 156.605 380.23 156.536 379.431 156.536C374.446 156.536 369.952 159.29 367.705 163.727C367.663 163.808 367.586 163.85 367.502 163.85Z" fill="white"/>
<path opacity="0.7" d="M391.785 172.198C393.064 165.585 388.717 159.191 382.077 157.918C375.436 156.644 369.016 160.973 367.737 167.587C366.459 174.2 370.805 180.594 377.446 181.867C384.087 183.141 390.507 178.812 391.785 172.198Z" fill="white"/>
<path d="M378.543 178.989V177.662C377.152 177.608 375.781 177.279 374.806 176.855C374.456 176.702 374.279 176.315 374.379 175.948L374.717 174.713C374.84 174.257 375.336 174.024 375.773 174.208C376.741 174.613 377.936 174.931 379.226 174.931C380.563 174.931 381.562 174.479 381.562 173.554C381.562 172.72 380.79 172.223 378.931 171.725C376.277 171.002 374.375 169.851 374.375 167.525C374.375 165.425 375.916 163.823 378.593 163.394V162.067C378.593 161.639 378.938 161.294 379.368 161.294H380.152C380.582 161.294 380.928 161.643 380.928 162.067V163.257C382.214 163.306 383.148 163.528 383.889 163.788C384.269 163.922 384.477 164.328 384.373 164.718L384.062 165.862C383.943 166.301 383.47 166.542 383.04 166.382C382.357 166.125 381.389 165.858 380.133 165.858C378.546 165.858 378.093 166.512 378.093 167.101C378.093 167.824 379.046 168.321 381.108 168.952C384.054 169.832 385.279 171.052 385.279 173.24C385.279 175.248 383.781 177.057 380.882 177.509V178.993C380.882 179.421 380.536 179.765 380.106 179.765H379.322C378.892 179.762 378.543 179.414 378.543 178.989Z" fill="#A78BEF"/>
<path d="M379.753 122.027C388.017 122.027 394.716 115.355 394.716 107.124C394.716 98.8941 388.017 92.2222 379.753 92.2222C371.489 92.2222 364.789 98.8941 364.789 107.124C364.789 115.355 371.489 122.027 379.753 122.027Z" fill="#A78BEF"/>
<path d="M379.749 121.533C387.74 121.533 394.218 115.082 394.218 107.124C394.218 99.1666 387.74 92.7156 379.749 92.7156C371.759 92.7156 365.281 99.1666 365.281 107.124C365.281 115.082 371.759 121.533 379.749 121.533Z" fill="#A78BEF"/>
<path opacity="0.58" d="M367.822 101.368C367.788 101.368 367.753 101.36 367.719 101.345C367.607 101.287 367.561 101.15 367.619 101.039C369.946 96.4488 374.593 93.5991 379.752 93.5991C380.574 93.5991 381.399 93.6718 382.202 93.8171C382.325 93.8401 382.41 93.9587 382.386 94.0811C382.363 94.2035 382.244 94.2876 382.121 94.2647C381.346 94.1231 380.551 94.0543 379.752 94.0543C374.766 94.0543 370.273 96.8083 368.026 101.245C367.987 101.322 367.907 101.368 367.822 101.368Z" fill="white"/>
<path opacity="0.7" d="M384.77 118.699C391.018 116.121 393.985 108.988 391.397 102.766C388.809 96.5436 381.646 93.5889 375.399 96.1663C369.151 98.7437 366.184 105.877 368.772 112.099C371.36 118.321 378.523 121.276 384.77 118.699Z" fill="white"/>
<path d="M378.863 116.503V115.176C377.473 115.123 376.101 114.794 375.126 114.369C374.776 114.216 374.6 113.83 374.7 113.462L375.038 112.227C375.16 111.772 375.656 111.539 376.094 111.722C377.062 112.128 378.256 112.445 379.547 112.445C380.883 112.445 381.882 111.994 381.882 111.068C381.882 110.234 381.11 109.737 379.251 109.24C376.597 108.517 374.696 107.365 374.696 105.04C374.696 102.94 376.236 101.337 378.913 100.909V99.5815C378.913 99.1531 379.259 98.8088 379.689 98.8088H380.472C380.902 98.8088 381.248 99.1569 381.248 99.5815V100.771C382.535 100.821 383.468 101.043 384.209 101.303C384.59 101.437 384.797 101.842 384.693 102.232L384.382 103.376C384.263 103.816 383.791 104.057 383.361 103.896C382.677 103.64 381.709 103.372 380.453 103.372C378.867 103.372 378.414 104.026 378.414 104.615C378.414 105.338 379.366 105.835 381.429 106.467C384.374 107.346 385.6 108.566 385.6 110.754C385.6 112.763 384.102 114.572 381.202 115.023V116.507C381.202 116.936 380.856 117.28 380.426 117.28H379.643C379.212 117.276 378.863 116.932 378.863 116.503Z" fill="#A78BEF"/>
<path d="M411.003 207.524C419.267 207.524 425.966 200.852 425.966 192.621C425.966 184.391 419.267 177.719 411.003 177.719C402.739 177.719 396.039 184.391 396.039 192.621C396.039 200.852 402.739 207.524 411.003 207.524Z" fill="#A78BEF"/>
<path d="M410.999 207.03C418.99 207.03 425.468 200.579 425.468 192.621C425.468 184.663 418.99 178.212 410.999 178.212C403.009 178.212 396.531 184.663 396.531 192.621C396.531 200.579 403.009 207.03 410.999 207.03Z" fill="#A78BEF"/>
<path opacity="0.58" d="M399.072 186.865C399.038 186.865 399.003 186.857 398.969 186.842C398.857 186.784 398.811 186.647 398.869 186.536C401.196 181.946 405.843 179.096 411.002 179.096C411.824 179.096 412.649 179.169 413.452 179.314C413.575 179.337 413.66 179.455 413.636 179.578C413.613 179.7 413.494 179.784 413.371 179.761C412.596 179.62 411.797 179.551 411.002 179.551C406.016 179.551 401.523 182.305 399.276 186.742C399.237 186.819 399.157 186.865 399.072 186.865Z" fill="white"/>
<path opacity="0.7" d="M423.24 195.784C424.794 189.23 420.719 182.662 414.138 181.114C407.556 179.567 400.962 183.625 399.408 190.18C397.854 196.734 401.929 203.301 408.51 204.849C415.091 206.397 421.686 202.338 423.24 195.784Z" fill="white"/>
<path d="M410.121 202V200.673C408.73 200.619 407.359 200.29 406.384 199.866C406.034 199.713 405.858 199.323 405.957 198.959L406.295 197.724C406.418 197.269 406.914 197.035 407.352 197.219C408.319 197.624 409.514 197.942 410.804 197.942C412.141 197.942 413.14 197.491 413.14 196.565C413.14 195.731 412.368 195.234 410.509 194.736C407.855 194.014 405.954 192.862 405.954 190.537C405.954 188.437 407.494 186.834 410.171 186.406V185.078C410.171 184.65 410.52 184.306 410.947 184.306H411.73C412.16 184.306 412.506 184.65 412.506 185.078V186.268C413.793 186.318 414.726 186.539 415.467 186.8C415.847 186.933 416.055 187.339 415.951 187.729L415.64 188.873C415.521 189.313 415.049 189.554 414.618 189.393C413.935 189.137 412.967 188.869 411.711 188.869C410.125 188.869 409.671 189.523 409.671 190.112C409.671 190.835 410.624 191.332 412.686 191.963C415.632 192.843 416.858 194.063 416.858 196.251C416.858 198.259 415.36 200.069 412.46 200.52V202.004C412.46 202.432 412.11 202.777 411.684 202.777H410.9C410.466 202.773 410.121 202.429 410.121 202Z" fill="#A78BEF"/>
<path d="M325.045 189.822C335.724 189.822 344.38 181.201 344.38 170.566C344.38 159.932 335.724 151.311 325.045 151.311C314.367 151.311 305.711 159.932 305.711 170.566C305.711 181.201 314.367 189.822 325.045 189.822Z" fill="#A78BEF"/>
<path d="M325.045 189.183C335.369 189.183 343.738 180.848 343.738 170.566C343.738 160.285 335.369 151.95 325.045 151.95C314.721 151.95 306.352 160.285 306.352 170.566C306.352 180.848 314.721 189.183 325.045 189.183Z" fill="#A78BEF"/>
<path opacity="0.58" d="M309.635 163.062C309.6 163.062 309.566 163.054 309.531 163.039C309.42 162.982 309.374 162.844 309.431 162.733C312.423 156.827 318.411 153.155 325.048 153.155C326.108 153.155 327.168 153.251 328.201 153.438C328.324 153.461 328.408 153.58 328.385 153.702C328.362 153.824 328.243 153.909 328.12 153.886C327.114 153.702 326.081 153.61 325.048 153.61C318.58 153.61 312.753 157.183 309.838 162.936C309.796 163.016 309.715 163.062 309.635 163.062Z" fill="white"/>
<path opacity="0.7" d="M325.453 186.727C334.19 186.727 341.273 179.673 341.273 170.972C341.273 162.27 334.19 155.217 325.453 155.217C316.716 155.217 309.633 162.27 309.633 170.972C309.633 179.673 316.716 186.727 325.453 186.727Z" fill="white"/>
<path d="M323.902 182.688V180.974C322.108 180.902 320.334 180.481 319.07 179.93C318.621 179.735 318.39 179.23 318.521 178.76L318.959 177.165C319.12 176.579 319.757 176.277 320.322 176.511C321.574 177.035 323.118 177.444 324.781 177.444C326.51 177.444 327.8 176.859 327.8 175.665C327.8 174.587 326.805 173.944 324.401 173.301C320.975 172.368 318.513 170.88 318.513 167.874C318.513 165.162 320.506 163.089 323.963 162.534V160.82C323.963 160.27 324.412 159.822 324.966 159.822H325.976C326.529 159.822 326.978 160.27 326.978 160.82V162.358C328.637 162.423 329.847 162.706 330.807 163.043C331.299 163.215 331.568 163.743 331.43 164.244L331.026 165.72C330.873 166.29 330.262 166.6 329.705 166.393C328.822 166.061 327.573 165.716 325.949 165.716C323.898 165.716 323.314 166.562 323.314 167.323C323.314 168.256 324.543 168.899 327.209 169.714C331.019 170.85 332.597 172.425 332.597 175.256C332.597 177.853 330.665 180.186 326.913 180.772V182.692C326.913 183.243 326.463 183.69 325.91 183.69H324.9C324.351 183.686 323.902 183.239 323.902 182.688Z" fill="#A78BEF"/>
<path d="M112.988 186.379C112.888 186.57 106.531 191.225 106.531 191.225C106.531 191.225 107.933 201.224 113.633 205.175C119.897 209.516 128.75 201.599 128.75 201.599C128.75 201.599 135.794 203.266 139.539 188.666C140.399 185.316 135.437 185.032 129.453 185.652C121.729 186.448 112.988 186.379 112.988 186.379Z" fill="url(#paint1_linear_1954_5844)"/>
<path d="M101.106 220.498C103.591 218.796 106.341 217.511 109.256 216.723C110.351 216.424 116.262 218.138 119.915 218.054C124.931 217.939 130.035 215.667 134.168 216.692C138.273 217.71 141.634 219.041 143.578 220.418C149.385 224.534 152.795 232.203 154.877 239.803C150.94 243.827 145.99 245.613 145.99 245.613L145.075 282.551L123.141 293.728L98.1065 281.213L99.0014 245.116C99.0014 245.116 91.051 241.429 90.4672 240.09C89.8873 238.743 94.0929 225.299 101.106 220.498Z" fill="#A78BEF"/>
<path d="M90.842 239.922C90.842 239.922 80.1877 269.332 104.481 281.423C109.524 280.758 107.584 272.415 107.584 272.415C107.584 272.415 97.0295 270.09 100.198 245.552C97.283 243.161 90.842 239.922 90.842 239.922Z" fill="url(#paint2_linear_1954_5844)"/>
<path d="M154.366 239.922C154.366 239.922 161.699 270.625 140.728 281.423C135.685 280.758 137.624 272.415 137.624 272.415C137.624 272.415 146.132 268.242 145.01 245.552C147.925 243.161 154.366 239.922 154.366 239.922Z" fill="url(#paint3_linear_1954_5844)"/>
<path d="M144.009 283.489H99.7137C98.669 283.489 97.8125 282.636 97.8125 281.595V253.03C97.8125 251.989 98.669 251.136 99.7137 251.136H144.009C145.054 251.136 145.911 251.989 145.911 253.03V281.595C145.911 282.636 145.054 283.489 144.009 283.489Z" fill="#E527BB"/>
<path d="M167.006 293.078C161.502 291.82 148.781 292.497 148.781 292.497L148.263 293.893L147.406 300.827C147.406 300.827 159.52 303.004 165.493 302.996C166.103 302.996 166.66 302.904 167.167 302.748C167.348 302.583 167.528 302.415 167.697 302.235C170.232 299.477 169.498 295.43 167.006 293.078Z" fill="#A78BEF"/>
<path d="M145.125 292.106L147.28 292.198C148.436 292.248 149.527 292.81 150.306 293.755C151.086 294.704 151.485 295.954 151.416 297.232C151.362 298.249 150.944 299.202 150.252 299.879C149.561 300.556 148.655 300.896 147.733 300.831L144.438 300.598L145.125 292.106Z" fill="url(#paint4_linear_1954_5844)"/>
<path d="M72.6924 292.412C78.227 291.322 90.9246 292.389 90.9246 292.389L91.4086 293.801L92.0922 300.762C92.0922 300.762 79.9285 302.564 73.9599 302.377C73.3492 302.357 72.7961 302.25 72.293 302.074C72.1163 301.906 71.9396 301.73 71.7783 301.543C69.3087 298.712 70.1421 294.684 72.6924 292.412Z" fill="#A78BEF"/>
<path d="M94.5918 292.106L92.4371 292.133C91.2772 292.148 90.1749 292.676 89.3721 293.598C88.5694 294.52 88.1392 295.763 88.1738 297.041C88.2007 298.062 88.5963 299.026 89.2723 299.722C89.9483 300.418 90.847 300.789 91.7688 300.751L95.068 300.617L94.5918 292.106Z" fill="url(#paint5_linear_1954_5844)"/>
<path d="M168.544 271.333C166.047 265.61 159.944 264.681 154.748 267.358C154.655 267.477 121.748 284.273 92.7266 291.636C93.5562 294.286 93.9863 297.109 94.0785 299.886C94.0939 300.506 94.0862 301.114 94.0478 301.715C116.301 300.575 140.456 293.185 161.212 286.69C167.649 284.621 171.313 277.674 168.544 271.333Z" fill="black"/>
<path d="M145.286 300.319C145.197 297.121 145.824 294.145 147.16 291.387C147.199 291.261 147.245 291.139 147.283 291.016C145.624 290.504 143.484 289.811 140.673 288.863C120.063 281.84 104.343 274.748 89.3371 266.582C83.5068 263.411 76.8815 265.538 75.0148 272.404C73.3479 278.535 77.0082 283.772 82.5581 285.611C99.1657 291.116 90.5201 289.586 95.9433 291.326C110.511 295.813 128.64 299.898 145.317 301.015C145.305 300.781 145.294 300.552 145.286 300.319Z" fill="black"/>
<path d="M109.258 216.719C109.258 216.719 111.474 226.285 122.236 226.086C133.197 225.887 134.173 216.688 134.173 216.688L127.014 215.162L126.415 207.218L115.645 208.013L115.445 215.56L109.258 216.719Z" fill="url(#paint6_linear_1954_5844)"/>
<path d="M117.152 184.711C117.152 184.711 104.811 208.518 119.448 214.294C129.776 218.368 136.248 198.485 134.316 193.099C131.332 184.772 129.365 185.759 129.365 185.759L117.152 184.711Z" fill="url(#paint7_linear_1954_5844)"/>
<path d="M137.294 182.542C143.389 184.21 138.181 197.38 129.002 194.266C119.822 191.153 116.216 191.198 114.783 193.708C113.354 196.217 113.047 205.133 109.944 200.727C106.541 195.896 104.643 186.199 108.815 183.074C112.544 180.282 113.412 175.948 117.886 176.101C123.824 176.3 128.414 173.68 131.091 175.569C134.171 177.738 132.808 181.315 137.294 182.542Z" fill="black"/>
<path d="M114.218 195.758C114.218 195.758 111.587 192.939 111.164 196.336C110.742 199.736 112.094 204.112 113.68 201.714C115.262 199.311 114.218 195.758 114.218 195.758Z" fill="url(#paint8_linear_1954_5844)"/>
<path d="M124.702 259.9C124.956 261.617 124.034 263.174 122.31 263.426C120.585 263.679 118.984 262.493 118.726 260.779C118.473 259.062 119.26 257.36 120.985 257.104C122.709 256.851 124.449 258.186 124.702 259.9Z" fill="white"/>
</g>
<defs>
<linearGradient id="paint0_linear_1954_5844" x1="218.736" y1="-52.4988" x2="220.545" y2="36.496" gradientUnits="userSpaceOnUse">
<stop stop-color="#E1473D"/>
<stop offset="1" stop-color="#E9605A"/>
</linearGradient>
<linearGradient id="paint1_linear_1954_5844" x1="150.95" y1="152.241" x2="125.037" y2="189.218" gradientUnits="userSpaceOnUse">
<stop stop-color="#09005D"/>
<stop offset="1" stop-color="#1A0F91"/>
</linearGradient>
<linearGradient id="paint2_linear_1954_5844" x1="85.3986" y1="232.014" x2="126.785" y2="332.399" gradientUnits="userSpaceOnUse">
<stop stop-color="#A22B25"/>
<stop offset="1" stop-color="#C0423C"/>
</linearGradient>
<linearGradient id="paint3_linear_1954_5844" x1="159.287" y1="231.798" x2="117.9" y2="332.184" gradientUnits="userSpaceOnUse">
<stop stop-color="#A22B25"/>
<stop offset="1" stop-color="#C0423C"/>
</linearGradient>
<linearGradient id="paint4_linear_1954_5844" x1="162.466" y1="256.655" x2="138.598" y2="321.571" gradientUnits="userSpaceOnUse">
<stop stop-color="#A22B25"/>
<stop offset="1" stop-color="#C0423C"/>
</linearGradient>
<linearGradient id="paint5_linear_1954_5844" x1="114.302" y1="237.112" x2="90.4214" y2="302.061" gradientUnits="userSpaceOnUse">
<stop stop-color="#A22B25"/>
<stop offset="1" stop-color="#C0423C"/>
</linearGradient>
<linearGradient id="paint6_linear_1954_5844" x1="121.986" y1="240.292" x2="121.436" y2="192.24" gradientUnits="userSpaceOnUse">
<stop stop-color="#A22B25"/>
<stop offset="1" stop-color="#C0423C"/>
</linearGradient>
<linearGradient id="paint7_linear_1954_5844" x1="120.375" y1="213.619" x2="128.765" y2="172.612" gradientUnits="userSpaceOnUse">
<stop stop-color="#A22B25"/>
<stop offset="1" stop-color="#C0423C"/>
</linearGradient>
<linearGradient id="paint8_linear_1954_5844" x1="114.771" y1="219.064" x2="108.759" y2="153.758" gradientUnits="userSpaceOnUse">
<stop stop-color="#A22B25"/>
<stop offset="1" stop-color="#C0423C"/>
</linearGradient>
<clipPath id="clip0_1954_5844">
<rect width="420.923" height="252" fill="white" transform="translate(56 51)"/>
</clipPath>
</defs>
</svg>
