<svg width="38" height="38" viewBox="0 0 38 38" fill="none" xmlns="http://www.w3.org/2000/svg">
<g clip-path="url(#clip0_611_539)">
<path d="M17.4358 35.8601H15.5666C15.3424 35.8601 15.1606 35.6783 15.1606 35.4541C15.1606 35.2298 15.3424 35.0481 15.5666 35.0481H17.4358C17.66 35.0481 17.8418 35.2298 17.8418 35.4541C17.8418 35.6783 17.66 35.8601 17.4358 35.8601Z" fill="#DAA7EE"/>
<path d="M32.9775 21.0668C33.269 21.0668 33.5053 20.8305 33.5053 20.539C33.5053 20.2475 33.269 20.0112 32.9775 20.0112C32.686 20.0112 32.4497 20.2475 32.4497 20.539C32.4497 20.8305 32.686 21.0668 32.9775 21.0668Z" fill="#DAA7EE"/>
<path d="M16.2695 28.0299C14.733 28.0299 13.4829 26.7793 13.4829 25.242C13.4829 23.7047 14.733 22.4541 16.2695 22.4541C17.8061 22.4541 19.0561 23.7047 19.0561 25.242C19.0561 26.7793 17.8061 28.0299 16.2695 28.0299ZM16.2695 23.2661C15.1806 23.2661 14.2949 24.1525 14.2949 25.242C14.2949 26.3315 15.1806 27.2179 16.2695 27.2179C17.3583 27.2179 18.2441 26.3315 18.2441 25.242C18.2441 24.1525 17.3583 23.2661 16.2695 23.2661Z" fill="#DAA7EE"/>
<path d="M24.9889 24.9543C24.7941 24.7605 20.1736 20.2056 16.2693 20.2056C12.3651 20.2056 7.74457 24.7605 7.54978 24.9543C7.39161 25.1056 7.39161 25.3786 7.54978 25.5299C7.74457 25.7238 12.3651 30.2787 16.2693 30.2787C20.1736 30.2787 24.7941 25.7237 24.9889 25.5299C25.147 25.3786 25.147 25.1056 24.9889 24.9543ZM8.42622 25.242C9.01968 24.6935 10.4198 23.4656 12.0657 22.4742C11.5411 23.269 11.2353 24.2204 11.2353 25.2421C11.2353 26.2639 11.542 27.2148 12.0667 28.0095C10.4207 27.0181 9.02001 25.7903 8.42622 25.242ZM16.2693 29.5049C13.9188 29.5049 12.0065 27.5927 12.0065 25.2421C12.0065 22.8916 13.9188 20.9793 16.2693 20.9793C18.6199 20.9793 20.5321 22.8916 20.5321 25.2421C20.5321 27.5927 18.6199 29.5049 16.2693 29.5049ZM20.471 28.0112C20.9965 27.2162 21.3033 26.2646 21.3033 25.242C21.3033 24.2203 20.9971 23.2694 20.4724 22.4748C22.1181 23.4663 23.5187 24.6938 24.1123 25.2421C23.5187 25.791 22.1177 27.0196 20.471 28.0112Z" fill="#DAA7EE"/>
<path d="M37.8565 5.12139L34.933 2.18435C34.7817 2.02626 34.5088 2.02626 34.3576 2.18435L32.587 3.96296C31.8052 3.50347 30.9555 3.14759 30.0564 2.91569V0.405983C30.0564 0.181718 29.8746 0 29.6505 0H25.516C25.2918 0 25.11 0.181718 25.11 0.405983V2.91577C24.2077 3.14856 23.355 3.50615 22.5709 3.96808L20.8185 2.20765C20.6673 2.04956 20.3944 2.04956 20.2431 2.20765L17.3195 5.1447C17.1618 5.30311 17.1618 5.55912 17.3195 5.71754L19.0603 7.46627C18.1824 8.94445 17.6773 10.6688 17.6773 12.5092C17.6723 12.8248 17.6836 13.1365 17.7094 13.444H3.80428C2.6599 13.444 1.72881 14.3775 1.72881 15.525L1.728 32.9199H0.431374C0.20719 32.9199 0.0253906 33.1017 0.0253906 33.3259V35.0813C0.0253906 36.6907 1.33087 38 2.93556 38H30.0672C31.6719 38 32.9774 36.6907 32.9774 35.0813V33.3259C32.9774 33.1017 32.7956 32.9199 32.5714 32.9199H31.2739L31.2745 21.4256C31.2821 21.1517 30.9825 20.9429 30.7281 21.0447C24.9551 23.2787 18.376 18.714 18.4892 12.5092C18.4892 7.49477 22.5687 3.41521 27.5832 3.41521C32.5976 3.41521 36.6772 7.49477 36.6772 12.5092C36.6772 14.7946 35.8262 16.9793 34.2808 18.6609C34.1292 18.826 34.14 19.0828 34.305 19.2345C34.4701 19.3863 34.727 19.3754 34.8787 19.2102C36.5621 17.3785 37.4891 14.9987 37.4891 12.5092C37.4891 10.6653 36.9821 8.93771 36.101 7.45766L37.8563 5.69424C38.0142 5.5359 38.0142 5.27981 37.8565 5.12139ZM32.1654 33.7319V35.0813C32.1654 36.243 31.2241 37.188 30.0672 37.188H2.93556C1.77859 37.188 0.837275 36.2429 0.837275 35.0813V33.7319H32.1654ZM30.4625 21.99L30.4619 32.9199H27.896L27.8964 24.4439C27.8964 24.2197 27.7146 24.0379 27.4904 24.0379C27.2662 24.0379 27.0844 24.2196 27.0844 24.4439L27.084 32.9199H5.91823L5.9188 17.6061H16.0729C16.2971 17.6061 16.4789 17.4244 16.4789 17.2001C16.4789 16.9759 16.2971 16.7941 16.0729 16.7941H5.51282C5.28863 16.7941 5.10684 16.9759 5.10684 17.2001L5.10627 32.9199H2.53997L2.54078 15.5249C2.54078 14.8252 3.10761 14.2558 3.80428 14.2558H17.814C18.7915 19.8862 24.8179 23.7886 30.4625 21.99ZM19.5132 6.77042L18.1801 5.43116L20.5308 3.06956L21.8737 4.41864C20.9613 5.06439 20.1622 5.86036 19.5132 6.77042ZM25.922 2.74323V0.811966H29.2445V2.74323C28.7041 2.65164 28.1493 2.60316 27.5833 2.60316C27.0172 2.60324 26.4623 2.65164 25.922 2.74323ZM35.6475 6.76246C34.9976 5.85314 34.1979 5.0579 33.2847 4.41295L34.6453 3.04617L36.996 5.40777L35.6475 6.76246Z" fill="#DAA7EE"/>
<path d="M32.2833 16.9537L28.9958 13.4154C29.4696 13.0572 30.3199 12.3979 31.8746 11.1652C32.7571 10.5174 31.9138 9.05584 30.9114 9.4956C27.1982 10.9614 26.9188 11.1226 26.8269 11.1756C26.0967 11.5768 25.8278 12.579 26.2595 13.2917C26.5463 13.7879 27.0683 14.0656 27.6044 14.0656C27.8486 14.0656 28.0955 14.0071 28.3247 13.8861L31.4008 17.1969C30.3241 18.0588 28.9894 18.5293 27.5995 18.5293C24.2545 18.5293 21.5332 15.8287 21.5332 12.5092C21.5332 9.32508 24.037 6.71039 27.1935 6.50245V8.83263C27.1935 9.05689 27.3753 9.23861 27.5995 9.23861C27.8237 9.23861 28.0055 9.05689 28.0055 8.83263V6.08323C28.0055 5.85896 27.8237 5.67725 27.5995 5.67725C23.8068 5.67725 20.7212 8.74209 20.7212 12.5093C20.7212 16.2765 23.8067 19.3413 27.5995 19.3413C29.3301 19.3413 30.9853 18.6978 32.26 17.5294C32.4247 17.3846 32.4357 17.1113 32.2833 16.9537ZM27.9709 13.1551C27.6185 13.3585 27.1659 13.2375 26.9625 12.8854C26.7571 12.5463 26.8853 12.0699 27.2326 11.8789C27.3286 11.8235 27.9085 11.5539 31.2096 10.2507C31.3717 10.1797 31.5297 10.4007 31.3701 10.529C28.5899 12.7333 28.0669 13.0998 27.9709 13.1551C27.971 13.1551 27.971 13.1551 27.9709 13.1551Z" fill="#DAA7EE"/>
<path d="M34.9518 14.5718C34.8235 14.3878 34.5705 14.3427 34.3866 14.4709L34.1304 14.6496C34.3589 13.9627 34.4777 13.2407 34.4777 12.5092C34.4777 9.56781 32.5894 6.96351 29.7789 6.0287C29.5662 5.95789 29.3363 6.07295 29.2655 6.28576C29.1947 6.4985 29.3098 6.72837 29.5227 6.79909C32.0008 7.6234 33.6657 9.91809 33.6657 12.5092C33.6657 13.1845 33.551 13.8509 33.3301 14.4817L33.2534 13.9962C33.2184 13.7746 33.0104 13.6237 32.789 13.6586C32.5675 13.6936 32.4164 13.9014 32.4514 14.1229L32.7328 15.9029C32.7713 16.1914 33.1315 16.3442 33.3659 16.1726L34.8511 15.137C35.0348 15.0087 35.08 14.7557 34.9518 14.5718Z" fill="#DAA7EE"/>
</g>
<defs>
<clipPath id="clip0_611_539">
<rect width="38" height="38" fill="white"/>
</clipPath>
</defs>
</svg>
