<svg width="543" height="329" viewBox="0 0 543 329" fill="none" xmlns="http://www.w3.org/2000/svg">
<g clip-path="url(#clip0_1470_4862)">
<path opacity="0.2" d="M128.492 325.584L413.142 308.934C488.412 304.534 546.652 240.734 543.512 165.394C540.872 102.084 518.192 34.6439 441.912 5.8239C388.262 -14.4461 318.592 2.1439 274.402 35.8539C263.782 43.9539 254.022 53.2439 242.612 60.1739C216.022 76.3239 192.672 65.1739 164.972 60.8839C106.412 51.7939 47.9621 70.4639 17.7021 124.434C-28.7579 207.354 26.0421 331.574 128.492 325.584Z" fill="#999999"/>
<g clip-path="url(#clip1_1470_4862)">
<path d="M379.444 46.6904C379.28 46.6904 379.122 46.7101 378.958 46.7167C376.958 37.7379 368.956 31.03 359.387 31.03C349.818 31.03 341.816 37.7379 339.815 46.7167C339.651 46.7101 339.494 46.6904 339.33 46.6904C332.574 46.6904 327.098 52.1709 327.098 58.9312C327.098 65.6916 332.574 71.172 339.33 71.172H379.444C386.199 71.172 391.676 65.6916 391.676 58.9312C391.676 52.1709 386.199 46.6904 379.444 46.6904Z" fill="#E527BB"/>
<path d="M352.066 54.7701L359.386 64.0902L366.712 54.7701H362.436V44.5508H356.736V54.7701H352.066Z" fill="white"/>
<path d="M186.343 149.448H118V192.012H186.343V149.448Z" fill="#A78BEF"/>
<path d="M122.645 153.983V189.728" stroke="white" stroke-miterlimit="10"/>
<path d="M120.223 187.102H182.991" stroke="white" stroke-miterlimit="10"/>
<path d="M126.672 183.374C138.917 156.976 147.516 174.33 153.052 179.876C158.587 185.415 163.211 163.54 170.957 160.914C178.703 158.289 183.511 172.873 183.511 172.873" stroke="white" stroke-miterlimit="10"/>
<path d="M156.691 137.883C170.721 137.883 182.094 126.502 182.094 112.463C182.094 98.4235 170.721 87.0425 156.691 87.0425C142.662 87.0425 131.289 98.4235 131.289 112.463C131.289 126.502 142.662 137.883 156.691 137.883Z" fill="#E527BB"/>
<path d="M156.691 112.463L169.127 90.2979C173.062 92.5097 176.335 95.7258 178.618 99.6245C180.9 103.523 182.1 107.954 182.1 112.469H156.691V112.463Z" fill="#A78BEF"/>
<path d="M156.691 112.463H182.094C182.094 117.753 180.441 122.918 177.371 127.224C174.302 131.529 169.96 134.778 164.962 136.498L156.691 112.463Z" fill="#E527BB"/>
<path d="M335.785 84.5483V315.897C335.785 319.506 334.329 322.775 331.974 325.151C329.6 327.547 326.301 329.03 322.66 329.03H207.54C200.292 329.03 194.422 323.156 194.422 315.903V84.5483C194.422 79.4419 197.334 75.0182 201.591 72.8457C203.381 71.9333 205.401 71.4214 207.54 71.4214H322.667C329.915 71.4214 335.785 77.2957 335.785 84.5483Z" fill="#0C0B0B"/>
<path d="M335.785 135.605H339.156C339.465 135.605 339.707 135.356 339.707 135.054V111.275C339.707 110.966 339.458 110.723 339.156 110.723H335.785V135.605Z" fill="#453F3F"/>
<path d="M194.422 143.6H190.297C189.923 143.6 189.621 143.298 189.621 142.924V113.716C189.621 113.342 189.923 113.04 190.297 113.04H194.422V143.6Z" fill="#453F3F"/>
<path d="M194.422 178.314H190.297C189.923 178.314 189.621 178.012 189.621 177.638V148.43C189.621 148.056 189.923 147.754 190.297 147.754H194.422V178.314Z" fill="#453F3F"/>
<path d="M329.24 83.7541V316.691C329.24 317.491 329.076 318.259 328.781 318.955C327.896 321.023 325.856 322.473 323.462 322.473H206.747C203.553 322.473 200.969 319.887 200.969 316.684V83.7541C200.969 81.3715 202.412 79.3238 204.478 78.4311C205.173 78.1358 205.94 77.9717 206.747 77.9717H323.462C326.649 77.9717 329.24 80.5577 329.24 83.7541Z" fill="#C7CAD8"/>
<path d="M329.24 274.934V316.684C329.24 317.485 329.076 318.253 328.781 318.949C327.896 321.016 325.856 322.467 323.462 322.467H206.747C203.553 322.467 200.969 319.881 200.969 316.678V274.895C201.395 270.13 205.396 266.395 210.269 266.395H319.94C324.819 266.408 328.827 270.156 329.24 274.934Z" fill="white"/>
<path d="M296.097 273.3H235.828C235.061 273.3 234.438 272.676 234.438 271.908C234.438 271.14 235.061 270.517 235.828 270.517H296.097C296.865 270.517 297.488 271.14 297.488 271.908C297.488 272.676 296.865 273.3 296.097 273.3Z" fill="#C7CAD8"/>
<path d="M200.969 83.7541V94.6034H329.24V83.7541C329.24 80.5642 326.649 77.9717 323.462 77.9717H206.747C205.94 77.9717 205.173 78.1358 204.478 78.4311C202.412 79.3238 200.969 81.3715 200.969 83.7541Z" fill="white"/>
<path d="M308.558 86.701C308.558 87.9021 307.581 88.8801 306.381 88.8801C305.18 88.8801 304.203 87.9021 304.203 86.701C304.203 85.4999 305.18 84.522 306.381 84.522C307.581 84.522 308.558 85.4934 308.558 86.701Z" fill="#E527BB"/>
<path d="M316.152 86.701C316.152 87.9021 315.175 88.8801 313.974 88.8801C312.774 88.8801 311.797 87.9021 311.797 86.701C311.797 85.4999 312.774 84.522 313.974 84.522C315.175 84.522 316.152 85.4934 316.152 86.701Z" fill="#E527BB"/>
<path d="M323.714 86.701C323.714 87.9021 322.737 88.8801 321.537 88.8801C320.337 88.8801 319.359 87.9021 319.359 86.701C319.359 85.4999 320.337 84.522 321.537 84.522C322.737 84.522 323.714 85.4934 323.714 86.701Z" fill="#E527BB"/>
<path d="M297.803 77.801L294.609 80.9974C291.408 84.2004 287.073 85.9922 282.554 85.9922H247.661C243.135 85.9922 238.8 84.1938 235.605 80.9974L232.438 77.8273L297.803 77.801Z" fill="#0C0B0B"/>
<path d="M241.907 81.8967H288.298C288.383 81.8967 288.456 81.8245 288.456 81.7392V79.8423C288.456 79.757 288.383 79.6848 288.298 79.6848H241.907C241.822 79.6848 241.75 79.757 241.75 79.8423V81.7392C241.75 81.8245 241.822 81.8967 241.907 81.8967Z" fill="#453F3F"/>
<path d="M316.069 204.2H216.716C214.696 204.2 213.062 202.559 213.062 200.537V163.178C213.062 161.157 214.702 159.522 216.716 159.522H316.069C318.089 159.522 319.729 161.163 319.729 163.178V200.537C319.729 202.559 318.089 204.2 316.069 204.2Z" fill="#9A9FB2"/>
<path d="M313.53 201.725H214.177C212.157 201.725 210.523 200.085 210.523 198.07V160.711C210.523 158.689 212.163 157.055 214.177 157.055H313.53C315.55 157.055 317.19 158.696 317.19 160.711V198.07C317.183 200.091 315.544 201.725 313.53 201.725Z" fill="white"/>
<path d="M309.318 170.733H253.863C252.944 170.733 252.203 169.991 252.203 169.072V168.423C252.203 167.504 252.944 166.762 253.863 166.762H309.318C310.236 166.762 310.977 167.504 310.977 168.423V169.072C310.977 169.991 310.236 170.733 309.318 170.733Z" fill="#E527BB"/>
<path d="M276.858 179.187H253.535C252.8 179.187 252.203 178.589 252.203 177.854V177.329C252.203 176.594 252.8 175.997 253.535 175.997H276.858C277.592 175.997 278.189 176.594 278.189 177.329V177.854C278.189 178.589 277.592 179.187 276.858 179.187Z" fill="#C7CAD8"/>
<path d="M276.858 193.108H253.535C252.8 193.108 252.203 192.511 252.203 191.775V191.25C252.203 190.515 252.8 189.918 253.535 189.918H276.858C277.592 189.918 278.189 190.515 278.189 191.25V191.775C278.189 192.511 277.592 193.108 276.858 193.108Z" fill="#C7CAD8"/>
<path d="M276.858 186.085H253.535C252.8 186.085 252.203 185.488 252.203 184.752V184.227C252.203 183.492 252.8 182.895 253.535 182.895H276.858C277.592 182.895 278.189 183.492 278.189 184.227V184.752C278.189 185.488 277.592 186.085 276.858 186.085Z" fill="#C7CAD8"/>
<path d="M309.647 179.187H286.324C285.589 179.187 284.992 178.589 284.992 177.854V177.329C284.992 176.594 285.589 175.997 286.324 175.997H309.647C310.381 175.997 310.978 176.594 310.978 177.329V177.854C310.978 178.589 310.381 179.187 309.647 179.187Z" fill="#C7CAD8"/>
<path d="M309.647 193.108H286.324C285.589 193.108 284.992 192.511 284.992 191.775V191.25C284.992 190.515 285.589 189.918 286.324 189.918H309.647C310.381 189.918 310.978 190.515 310.978 191.25V191.775C310.978 192.511 310.381 193.108 309.647 193.108Z" fill="#C7CAD8"/>
<path d="M309.647 186.085H286.324C285.589 186.085 284.992 185.488 284.992 184.752V184.227C284.992 183.492 285.589 182.895 286.324 182.895H309.647C310.381 182.895 310.978 183.492 310.978 184.227V184.752C310.978 185.488 310.381 186.085 309.647 186.085Z" fill="#C7CAD8"/>
<path d="M231.642 193.718C223.745 193.718 217.324 187.292 217.324 179.39C217.324 171.488 223.745 165.062 231.642 165.062C239.539 165.062 245.96 171.488 245.96 179.39C245.96 187.292 239.539 193.718 231.642 193.718ZM231.642 167.018C224.828 167.018 219.279 172.571 219.279 179.39C219.279 186.209 224.828 191.762 231.642 191.762C238.457 191.762 244.006 186.209 244.006 179.39C244.006 172.571 238.463 167.018 231.642 167.018Z" fill="#E527BB"/>
<path d="M231.641 180.368C231.405 180.368 231.176 180.283 230.992 180.119C230.782 179.935 230.664 179.666 230.664 179.39V169.899C230.664 169.361 231.104 168.921 231.641 168.921C232.179 168.921 232.619 169.361 232.619 169.899V178.287L239.623 177.447C240.161 177.382 240.647 177.769 240.706 178.301C240.771 178.839 240.384 179.324 239.853 179.384L231.759 180.355C231.72 180.361 231.681 180.368 231.641 180.368Z" fill="#E527BB"/>
<path d="M316.069 148.87H216.716C214.696 148.87 213.062 147.229 213.062 145.214V107.855C213.062 105.834 214.702 104.199 216.716 104.199H316.069C318.089 104.199 319.729 105.84 319.729 107.855V145.214C319.729 147.229 318.089 148.87 316.069 148.87Z" fill="#9A9FB2"/>
<path d="M313.53 146.396H214.177C212.157 146.396 210.523 144.755 210.523 142.74V105.381C210.523 103.359 212.163 101.725 214.177 101.725H313.53C315.55 101.725 317.19 103.366 317.19 105.381V142.74C317.183 144.761 315.544 146.396 313.53 146.396Z" fill="white"/>
<path d="M240.531 137.646H224.35C221.615 137.646 219.398 135.428 219.398 132.691V116.499C219.398 113.762 221.615 111.537 224.35 111.537H240.531C243.266 111.537 245.483 113.756 245.483 116.499V132.691C245.49 135.428 243.266 137.646 240.531 137.646Z" fill="#E527BB"/>
<path d="M227.932 131.825C227.853 131.825 227.781 131.818 227.709 131.805C227.329 131.733 227.007 131.497 226.824 131.155L224.311 126.344C223.99 125.734 224.226 124.973 224.843 124.658C225.453 124.336 226.207 124.572 226.528 125.189L228.299 128.582L240.145 118.061C240.663 117.602 241.45 117.648 241.909 118.166C242.368 118.685 242.322 119.472 241.804 119.932L228.758 131.516C228.535 131.713 228.234 131.825 227.932 131.825Z" fill="white"/>
<path d="M309.318 115.403H253.863C252.944 115.403 252.203 114.661 252.203 113.742V113.093C252.203 112.174 252.944 111.432 253.863 111.432H309.318C310.236 111.432 310.977 112.174 310.977 113.093V113.742C310.977 114.661 310.236 115.403 309.318 115.403Z" fill="#E527BB"/>
<path d="M276.858 123.857H253.535C252.8 123.857 252.203 123.26 252.203 122.524V121.999C252.203 121.264 252.8 120.667 253.535 120.667H276.858C277.592 120.667 278.189 121.264 278.189 121.999V122.524C278.189 123.26 277.592 123.857 276.858 123.857Z" fill="#C7CAD8"/>
<path d="M276.858 137.778H253.535C252.8 137.778 252.203 137.181 252.203 136.446V135.921C252.203 135.185 252.8 134.588 253.535 134.588H276.858C277.592 134.588 278.189 135.185 278.189 135.921V136.446C278.189 137.181 277.592 137.778 276.858 137.778Z" fill="#C7CAD8"/>
<path d="M276.858 130.755H253.535C252.8 130.755 252.203 130.158 252.203 129.423V128.898C252.203 128.162 252.8 127.565 253.535 127.565H276.858C277.592 127.565 278.189 128.162 278.189 128.898V129.423C278.189 130.158 277.592 130.755 276.858 130.755Z" fill="#C7CAD8"/>
<path d="M309.647 123.857H286.324C285.589 123.857 284.992 123.26 284.992 122.524V121.999C284.992 121.264 285.589 120.667 286.324 120.667H309.647C310.381 120.667 310.978 121.264 310.978 121.999V122.524C310.978 123.26 310.381 123.857 309.647 123.857Z" fill="#C7CAD8"/>
<path d="M309.647 137.778H286.324C285.589 137.778 284.992 137.181 284.992 136.446V135.921C284.992 135.185 285.589 134.588 286.324 134.588H309.647C310.381 134.588 310.978 135.185 310.978 135.921V136.446C310.978 137.181 310.381 137.778 309.647 137.778Z" fill="#C7CAD8"/>
<path d="M309.647 130.755H286.324C285.589 130.755 284.992 130.158 284.992 129.423V128.898C284.992 128.162 285.589 127.565 286.324 127.565H309.647C310.381 127.565 310.978 128.162 310.978 128.898V129.423C310.978 130.158 310.381 130.755 309.647 130.755Z" fill="#C7CAD8"/>
<path d="M316.069 260.829H216.716C214.696 260.829 213.062 259.188 213.062 257.173V219.814C213.062 217.793 214.702 216.158 216.716 216.158H316.069C318.089 216.158 319.729 217.799 319.729 219.814V257.173C319.729 259.188 318.089 260.829 316.069 260.829Z" fill="#9A9FB2"/>
<path d="M313.53 258.355H214.177C212.157 258.355 210.523 256.714 210.523 254.692V217.333C210.523 215.312 212.163 213.671 214.177 213.671H313.53C315.55 213.671 317.19 215.312 317.19 217.333V254.692C317.183 256.721 315.544 258.355 313.53 258.355Z" fill="white"/>
<path d="M240.129 236.459H220.413C219.79 236.459 219.285 235.954 219.285 235.33V234.884C219.285 234.261 219.79 233.755 220.413 233.755H240.129C240.752 233.755 241.257 234.261 241.257 234.884V235.33C241.251 235.96 240.746 236.459 240.129 236.459Z" fill="#C7CAD8"/>
<path d="M240.129 248.234H220.413C219.79 248.234 219.285 247.729 219.285 247.105V246.659C219.285 246.035 219.79 245.53 220.413 245.53H240.129C240.752 245.53 241.257 246.035 241.257 246.659V247.105C241.251 247.729 240.746 248.234 240.129 248.234Z" fill="#C7CAD8"/>
<path d="M240.129 242.294H220.413C219.79 242.294 219.285 241.789 219.285 241.165V240.719C219.285 240.095 219.79 239.59 220.413 239.59H240.129C240.752 239.59 241.257 240.095 241.257 240.719V241.165C241.251 241.789 240.746 242.294 240.129 242.294Z" fill="#C7CAD8"/>
<path d="M266.805 236.459H247.089C246.466 236.459 245.961 235.954 245.961 235.33V234.884C245.961 234.261 246.466 233.755 247.089 233.755H266.805C267.428 233.755 267.933 234.261 267.933 234.884V235.33C267.933 235.96 267.428 236.459 266.805 236.459Z" fill="#C7CAD8"/>
<path d="M266.805 248.234H247.089C246.466 248.234 245.961 247.729 245.961 247.105V246.659C245.961 246.035 246.466 245.53 247.089 245.53H266.805C267.428 245.53 267.933 246.035 267.933 246.659V247.105C267.933 247.729 267.428 248.234 266.805 248.234Z" fill="#C7CAD8"/>
<path d="M266.805 242.294H247.089C246.466 242.294 245.961 241.789 245.961 241.165V240.719C245.961 240.095 246.466 239.59 247.089 239.59H266.805C267.428 239.59 267.933 240.095 267.933 240.719V241.165C267.933 241.789 267.428 242.294 266.805 242.294Z" fill="#C7CAD8"/>
<path d="M273.993 238.789C273.974 239.59 274.184 240.338 274.558 240.981C274.741 241.29 274.931 241.598 275.108 241.913L278.099 247.309L280.06 243.771C280.579 242.832 281.143 241.92 281.694 240.995C282.061 240.378 282.271 239.656 282.271 238.881C282.271 236.505 280.264 234.589 277.85 234.753C275.732 234.897 274.039 236.669 273.993 238.789ZM276.381 238.395C276.381 237.431 277.161 236.65 278.126 236.65C279.09 236.65 279.87 237.431 279.87 238.395C279.87 239.36 279.09 240.141 278.126 240.141C277.161 240.141 276.381 239.36 276.381 238.395Z" fill="#A78BEF"/>
<path d="M286.18 237.614C286.213 237.483 286.239 237.358 286.272 237.227C286.383 236.774 286.6 236.374 286.908 236.013C287.125 235.757 287.38 235.54 287.669 235.376C288.063 235.147 288.515 235.245 288.804 235.599C289.328 236.23 289.847 236.86 290.365 237.496C290.679 237.89 290.627 238.422 290.234 238.77C289.951 239.019 289.656 239.249 289.368 239.492C289.328 239.524 289.289 239.544 289.256 239.564C289.951 241.428 291.126 242.865 292.811 243.902C293.014 243.732 293.231 243.554 293.441 243.377C293.552 243.285 293.657 243.193 293.775 243.108C294.116 242.852 294.503 242.826 294.857 243.056C294.969 243.128 295.061 243.239 295.146 243.338C295.618 243.909 296.084 244.486 296.556 245.051C296.707 245.228 296.799 245.432 296.832 245.661C296.825 245.747 296.812 245.832 296.805 245.917C296.727 246.062 296.668 246.232 296.556 246.344C296.281 246.62 295.972 246.869 295.612 247.026C295.185 247.217 294.746 247.335 294.28 247.296C293.972 247.269 293.67 247.204 293.369 247.118C292.608 246.908 291.913 246.541 291.257 246.101C290.607 245.661 290.017 245.156 289.479 244.591C288.745 243.83 288.095 243.003 287.512 242.13C287.046 241.441 286.646 240.719 286.39 239.925C286.259 239.524 286.174 239.117 286.141 238.697C286.128 238.527 286.128 238.356 286.121 238.192C286.147 238.002 286.167 237.811 286.18 237.614Z" fill="#A78BEF"/>
<path d="M298.898 241.027C298.898 244.493 301.712 247.309 305.175 247.309C308.638 247.309 311.452 244.493 311.452 241.027C311.452 237.562 308.638 234.746 305.175 234.746C301.712 234.746 298.898 237.568 298.898 241.027ZM302.421 243.351C302.217 242.668 302.106 241.927 302.086 241.152H304.926V243.351H302.421ZM303.903 246.659C302.309 246.298 300.951 245.287 300.145 243.85H302.053C302.316 244.591 302.683 245.267 303.142 245.851C303.378 246.147 303.634 246.422 303.903 246.659ZM304.919 243.85V246.797C304.729 246.685 304.126 246.291 303.529 245.523C303.142 245.031 302.827 244.467 302.591 243.85H304.919ZM302.729 237.936C303.398 236.453 304.382 235.54 304.696 235.271C304.769 235.265 304.847 235.258 304.919 235.258V237.936H302.729ZM300.302 237.936C301.109 236.669 302.375 235.763 303.818 235.416C303.536 235.717 303.267 236.046 303.024 236.394C302.689 236.879 302.401 237.398 302.178 237.936H300.302ZM302.086 240.64C302.119 239.892 302.263 239.15 302.519 238.441H304.919V240.64H302.086ZM299.417 240.64C299.469 239.872 299.672 239.13 300.013 238.441H301.988C301.745 239.157 301.607 239.892 301.581 240.64H299.417ZM301.581 241.145C301.594 241.92 301.706 242.655 301.896 243.344H299.889C299.581 242.648 299.423 241.907 299.403 241.145H301.581ZM308.71 241.145H310.947C310.934 241.913 310.77 242.648 310.462 243.344H308.396C308.586 242.662 308.691 241.92 308.71 241.145ZM305.424 237.936V235.258C305.477 235.258 305.529 235.265 305.582 235.265C305.798 235.448 306.33 235.928 306.854 236.689C307.123 237.083 307.359 237.496 307.556 237.929L305.424 237.936ZM307.766 238.441C308.022 239.15 308.173 239.892 308.199 240.64H305.424V238.441H307.766ZM308.114 237.936C307.891 237.398 307.602 236.879 307.268 236.394C307.018 236.039 306.749 235.704 306.454 235.396C307.93 235.731 309.222 236.649 310.042 237.936H308.114ZM308.205 241.145C308.186 241.927 308.074 242.668 307.871 243.344H305.424V241.145H308.205ZM308.71 240.64C308.684 239.892 308.547 239.15 308.304 238.441H310.337C310.685 239.13 310.888 239.872 310.934 240.64H308.71ZM310.206 243.85C309.393 245.294 307.982 246.331 306.369 246.672C306.644 246.429 306.907 246.153 307.143 245.845C307.602 245.261 307.969 244.585 308.232 243.843L310.206 243.85ZM307.7 243.85C307.005 245.661 305.811 246.521 305.431 246.757V243.85H307.7Z" fill="#A78BEF"/>
<path d="M226.387 223.805C226.387 226.561 224.623 228.169 222.026 228.169C221.094 228.169 220.183 227.946 219.586 227.553L220.543 225.695C221.003 226.023 221.475 226.109 221.973 226.109C222.872 226.109 223.501 225.649 223.679 224.77C223.285 225.052 222.78 225.209 222.118 225.209C220.681 225.209 219.422 224.231 219.422 222.689C219.422 221.002 220.839 219.932 222.616 219.932C224.853 219.932 226.387 221.225 226.387 223.805ZM223.6 222.564C223.6 222.072 223.265 221.764 222.793 221.764C222.321 221.764 221.986 222.065 221.986 222.564C221.986 223.063 222.321 223.372 222.793 223.372C223.259 223.378 223.6 223.063 223.6 222.564Z" fill="#A78BEF"/>
<path d="M226.934 223.162C226.934 222.295 227.576 221.724 228.416 221.724C229.262 221.724 229.898 222.295 229.898 223.162C229.898 224.015 229.255 224.625 228.416 224.625C227.576 224.625 226.934 224.015 226.934 223.162ZM226.934 226.64C226.934 225.774 227.576 225.203 228.416 225.203C229.262 225.203 229.898 225.774 229.898 226.64C229.898 227.493 229.255 228.104 228.416 228.104C227.576 228.104 226.934 227.493 226.934 226.64Z" fill="#A78BEF"/>
<path d="M236.755 225.465C236.755 226.817 235.673 228.163 233.161 228.163C232.079 228.163 230.898 227.927 230.059 227.454L230.957 225.498C231.633 225.892 232.407 226.069 233.069 226.069C233.666 226.069 234.092 225.866 234.092 225.459C234.092 225.124 233.836 224.921 233.161 224.921H232.118V223.293L233.272 222.111H230.459V220.11H236.329V221.737L234.866 223.221C236.106 223.536 236.755 224.376 236.755 225.465Z" fill="#A78BEF"/>
<path d="M237.355 224.048C237.355 221.435 238.838 219.932 240.917 219.932C242.996 219.932 244.478 221.442 244.478 224.048C244.478 226.653 242.996 228.163 240.917 228.163C238.838 228.169 237.355 226.66 237.355 224.048ZM241.815 224.048C241.815 222.531 241.435 222.059 240.917 222.059C240.399 222.059 240.018 222.531 240.018 224.048C240.018 225.564 240.399 226.036 240.917 226.036C241.435 226.043 241.815 225.57 241.815 224.048Z" fill="#A78BEF"/>
<path d="M254.822 224.678V227.986H252.461V227.178C252.166 227.795 251.582 228.097 250.716 228.097C249.208 228.097 248.434 227.244 248.434 226.187C248.434 224.993 249.332 224.33 251.247 224.33H252.271C252.192 223.857 251.831 223.608 251.116 223.608C250.565 223.608 249.949 223.785 249.542 224.094L248.735 222.42C249.457 221.967 250.546 221.724 251.503 221.724C253.609 221.724 254.822 222.63 254.822 224.678ZM252.284 225.984V225.557H251.654C251.116 225.557 250.88 225.734 250.88 226.076C250.88 226.358 251.103 226.568 251.49 226.568C251.831 226.568 252.146 226.391 252.284 225.984Z" fill="#A78BEF"/>
<path d="M266.513 224.474V227.986H263.975V224.914C263.975 224.146 263.693 223.857 263.293 223.857C262.84 223.857 262.492 224.159 262.492 224.98V227.986H259.954V224.914C259.954 224.146 259.698 223.857 259.272 223.857C258.819 223.857 258.472 224.159 258.472 224.98V227.986H255.934V221.829H258.347V222.4C258.806 221.941 259.416 221.711 260.092 221.711C260.892 221.711 261.587 222.007 262.014 222.643C262.506 222.046 263.227 221.711 264.073 221.711C265.457 221.724 266.513 222.545 266.513 224.474Z" fill="#A78BEF"/>
<path d="M310.099 226.621H275.337C274.596 226.621 273.992 226.017 273.992 225.275V224.743C273.992 223.995 274.596 223.398 275.337 223.398H310.099C310.846 223.398 311.443 224.002 311.443 224.743V225.275C311.45 226.017 310.846 226.621 310.099 226.621Z" fill="#A78BEF"/>
<path d="M190.049 305.113H147.181C147.004 305.113 146.859 304.968 146.859 304.791V301.982C146.859 301.805 147.004 301.66 147.181 301.66H190.049C190.226 301.66 190.371 301.805 190.371 301.982V304.791C190.364 304.968 190.22 305.113 190.049 305.113Z" fill="#0C0B0B"/>
<path d="M148.767 263.455H188.54C189.202 263.455 189.733 263.993 189.733 264.656V269.545C189.733 270.208 189.195 270.747 188.54 270.747H148.767C148.104 270.747 147.566 270.208 147.566 269.545V264.656C147.573 263.986 148.104 263.455 148.767 263.455Z" fill="#453F3F"/>
<path d="M158.16 232.456C158.16 232.456 141.389 229.141 136.713 217.432C132.036 205.723 149.142 196.941 158.16 203.229C167.808 209.956 158.16 232.456 158.16 232.456Z" fill="#39B039"/>
<path d="M168.131 263.212C167.98 263.212 167.855 263.1 167.829 262.956C166.222 252.08 159.749 236.433 154.6 225.223C149.018 213.067 143.745 203.366 143.693 203.268C143.614 203.124 143.666 202.933 143.817 202.854C143.962 202.776 144.152 202.828 144.23 202.973C144.283 203.071 149.563 212.792 155.157 224.967C160.326 236.216 166.819 251.916 168.439 262.864C168.465 263.028 168.347 263.186 168.183 263.205C168.164 263.212 168.151 263.212 168.131 263.212Z" fill="#0C0B0B"/>
<path d="M157.53 231.327C157.418 231.327 157.32 231.268 157.261 231.169C149.967 217.576 138.122 207.711 138.004 207.613C137.873 207.508 137.86 207.318 137.964 207.186C138.069 207.055 138.26 207.035 138.391 207.147C138.509 207.245 150.446 217.182 157.798 230.887C157.877 231.038 157.825 231.222 157.674 231.3C157.628 231.314 157.575 231.327 157.53 231.327Z" fill="#0C0B0B"/>
<path d="M157.864 232.298C157.779 232.298 157.693 232.265 157.634 232.193C152.315 225.925 146.865 222.033 143.231 219.867C139.296 217.524 136.58 216.644 136.548 216.638C136.39 216.585 136.298 216.414 136.351 216.257C136.403 216.099 136.574 216.007 136.731 216.06C136.843 216.093 139.525 216.959 143.52 219.335C147.199 221.521 152.709 225.465 158.093 231.799C158.205 231.93 158.185 232.121 158.061 232.226C158.002 232.272 157.929 232.298 157.864 232.298Z" fill="#0C0B0B"/>
<path d="M156.39 228.734C156.265 228.734 156.147 228.655 156.101 228.531C152.015 216.52 153.517 201.929 153.53 201.785C153.55 201.62 153.694 201.496 153.865 201.515C154.029 201.535 154.153 201.686 154.134 201.85C154.121 201.995 152.632 216.46 156.672 228.34C156.724 228.498 156.639 228.675 156.482 228.728C156.455 228.728 156.423 228.734 156.39 228.734Z" fill="#0C0B0B"/>
<path d="M157.411 231.11C157.267 231.11 157.136 231.005 157.109 230.854C155.857 223.254 156.821 217.051 157.844 213.192C158.959 208.998 160.349 206.635 160.415 206.536C160.5 206.392 160.684 206.346 160.828 206.431C160.973 206.517 161.019 206.707 160.933 206.845C160.92 206.871 159.517 209.247 158.428 213.369C157.418 217.169 156.48 223.273 157.706 230.756C157.733 230.92 157.621 231.077 157.457 231.103C157.444 231.11 157.431 231.11 157.411 231.11Z" fill="#0C0B0B"/>
<path d="M175.848 235.514C175.848 235.514 192.783 233.197 198.149 221.783C203.514 210.376 186.953 200.597 177.58 206.333C167.552 212.483 175.848 235.514 175.848 235.514Z" fill="#39B039"/>
<path d="M169.427 262.221C169.42 262.221 169.42 262.221 169.427 262.221C169.256 262.221 169.125 262.083 169.125 261.912C169.191 256.314 170.411 249.934 172.752 242.95C174.621 237.372 177.206 231.399 180.432 225.196C185.929 214.642 191.458 206.97 191.51 206.891C191.609 206.753 191.799 206.727 191.937 206.825C192.074 206.924 192.101 207.114 192.002 207.252C191.95 207.331 186.434 214.97 180.964 225.485C175.92 235.179 169.879 249.369 169.728 261.919C169.728 262.089 169.591 262.221 169.427 262.221Z" fill="#0C0B0B"/>
<path d="M176.561 234.425C176.509 234.425 176.45 234.411 176.404 234.379C176.259 234.293 176.213 234.103 176.305 233.959C184.458 220.714 196.959 211.505 197.084 211.413C197.221 211.315 197.412 211.341 197.51 211.479C197.608 211.617 197.576 211.807 197.444 211.905C197.32 211.997 184.911 221.14 176.83 234.28C176.764 234.372 176.659 234.425 176.561 234.425Z" fill="#0C0B0B"/>
<path d="M176.177 235.376C176.105 235.376 176.026 235.35 175.967 235.291C175.849 235.173 175.842 234.983 175.96 234.864C181.706 228.859 187.445 225.249 191.242 223.287C195.368 221.153 198.096 220.451 198.208 220.418C198.372 220.379 198.536 220.477 198.575 220.635C198.615 220.792 198.516 220.963 198.352 221.003C198.326 221.009 195.565 221.724 191.492 223.831C187.74 225.774 182.067 229.345 176.387 235.285C176.334 235.344 176.255 235.376 176.177 235.376Z" fill="#0C0B0B"/>
<path d="M177.853 231.904C177.814 231.904 177.774 231.898 177.735 231.885C177.578 231.819 177.505 231.642 177.571 231.491C182.313 219.873 181.677 205.349 181.67 205.198C181.664 205.027 181.788 204.889 181.959 204.883C182.123 204.876 182.267 205.001 182.274 205.171C182.28 205.316 182.917 219.972 178.129 231.72C178.089 231.832 177.978 231.904 177.853 231.904Z" fill="#0C0B0B"/>
<path d="M176.687 234.215C176.667 234.215 176.641 234.215 176.622 234.208C176.458 234.169 176.353 234.011 176.392 233.847C178.065 226.45 177.487 220.3 176.7 216.447C175.854 212.267 174.595 209.812 174.582 209.786C174.503 209.635 174.562 209.451 174.713 209.379C174.864 209.3 175.047 209.359 175.12 209.51C175.172 209.608 176.425 212.05 177.291 216.31C178.084 220.228 178.681 226.476 176.982 233.985C176.956 234.123 176.831 234.215 176.687 234.215Z" fill="#0C0B0B"/>
<path d="M169.329 213.435C169.329 213.435 154.978 204.141 154.965 191.532C154.952 178.924 174.097 177.106 180.144 186.288C186.618 196.107 169.329 213.435 169.329 213.435Z" fill="#39B039"/>
<path d="M167.323 245.727C167.297 245.727 167.277 245.727 167.251 245.72C167.087 245.681 166.989 245.517 167.028 245.353C169.56 234.654 169.337 217.721 168.701 205.401C168.012 192.038 166.707 181.077 166.694 180.965C166.674 180.801 166.792 180.65 166.956 180.631C167.12 180.611 167.271 180.729 167.29 180.893C167.304 181.005 168.609 191.985 169.304 205.368C169.94 217.727 170.163 234.726 167.618 245.491C167.586 245.628 167.461 245.727 167.323 245.727Z" fill="#0C0B0B"/>
<path d="M169.277 212.174C169.126 212.174 168.995 212.063 168.975 211.905C167.231 196.573 159.878 183.02 159.806 182.888C159.727 182.744 159.78 182.554 159.924 182.475C160.068 182.396 160.252 182.449 160.337 182.593C160.41 182.731 167.821 196.383 169.579 211.833C169.598 211.997 169.48 212.148 169.31 212.168C169.297 212.174 169.284 212.174 169.277 212.174Z" fill="#0C0B0B"/>
<path d="M169.224 213.198C169.099 213.198 168.981 213.12 168.935 212.988C166.312 205.198 162.691 199.56 160.12 196.206C157.333 192.57 155.129 190.751 155.109 190.732C154.978 190.627 154.958 190.436 155.063 190.305C155.168 190.174 155.359 190.154 155.49 190.259C155.582 190.331 157.753 192.13 160.579 195.818C163.183 199.212 166.85 204.915 169.506 212.798C169.558 212.956 169.473 213.133 169.316 213.185C169.29 213.192 169.257 213.198 169.224 213.198Z" fill="#0C0B0B"/>
<path d="M169.173 209.339C169.166 209.339 169.16 209.339 169.16 209.339C168.996 209.332 168.865 209.188 168.871 209.017C169.514 196.35 176.316 183.348 176.381 183.217C176.46 183.066 176.644 183.013 176.788 183.092C176.939 183.171 176.991 183.354 176.912 183.499C176.847 183.63 170.111 196.514 169.468 209.044C169.468 209.214 169.33 209.339 169.173 209.339Z" fill="#0C0B0B"/>
<path d="M169.245 211.932C169.225 211.932 169.199 211.932 169.179 211.925C169.015 211.892 168.91 211.728 168.95 211.564C170.603 204.042 173.797 198.595 176.191 195.352C178.788 191.828 180.965 190.115 181.057 190.043C181.188 189.938 181.379 189.964 181.484 190.095C181.589 190.226 181.562 190.417 181.431 190.522C181.411 190.541 179.214 192.268 176.669 195.733C174.321 198.929 171.173 204.285 169.547 211.695C169.514 211.833 169.389 211.932 169.245 211.932Z" fill="#0C0B0B"/>
<path d="M186.863 244.092L186.364 245.418L186.05 246.258L185.144 248.667L184.83 249.507L183.898 251.982L183.583 252.822L179.583 263.441H157.742L153.741 252.822L153.426 251.982L152.494 249.507L152.18 248.667L151.275 246.258L150.96 245.418L150.461 244.092C150.12 243.18 150.789 242.209 151.76 242.209H185.571C186.535 242.209 187.204 243.18 186.863 244.092Z" fill="#E31E23"/>
<path d="M186.364 245.418L186.043 246.265H151.268L150.953 245.418H186.364Z" fill="white"/>
<path d="M185.137 248.674L184.822 249.514H152.493L152.172 248.674H185.137Z" fill="white"/>
<path d="M183.892 251.989L183.577 252.829H153.741L153.426 251.989H183.892Z" fill="white"/>
<path d="M162.804 270.74L161.59 274.645L144.734 329.03H141.441L152.132 275.754L153.136 270.74H162.804Z" fill="#0C0B0B"/>
<path d="M195.97 329.03H192.671L175.316 273.037L174.602 270.74H184.269L184.512 271.954L195.97 329.03Z" fill="#0C0B0B"/>
<path d="M190.049 297.611H147.181C147.004 297.611 146.859 297.466 146.859 297.289V294.48C146.859 294.303 147.004 294.158 147.181 294.158H190.049C190.226 294.158 190.371 294.303 190.371 294.48V297.289C190.364 297.473 190.22 297.611 190.049 297.611Z" fill="#453F3F"/>
<path d="M374.891 119.289C374.891 119.289 380.315 123.463 383.666 134.457C387.018 145.444 386.92 162.213 391.275 164.327C395.63 166.44 413.417 170.785 413.28 177.224C413.142 183.663 396.869 181.569 387.641 177.126C378.413 172.682 377.416 143.337 377.416 143.337L374.891 119.289Z" fill="#A78BEF"/>
<path d="M421.895 168.803C421.895 168.803 415.533 179.219 408.731 180.506C407.702 180.703 406.685 180.132 406.272 179.173L404.566 175.196C404.566 175.189 414.378 167.215 421.895 168.803Z" fill="#FFC2A9"/>
<path d="M403.383 178.412L403.822 178.885C404.052 179.134 404.413 179.206 404.721 179.062C407.567 177.762 421.38 171.422 423.82 170.076C424.05 169.952 424.194 169.722 424.22 169.466L425.001 160.98C425.02 160.776 424.955 160.573 424.83 160.408L424.24 159.687L423.309 168.803L403.383 178.412Z" fill="#E527BB"/>
<path d="M403.368 178.287L403.893 169.814C403.912 169.479 404.273 169.046 404.699 168.842L423.589 159.726C424.015 159.522 424.343 159.621 424.324 159.956L423.799 168.429C423.779 168.764 423.418 169.197 422.992 169.4L404.103 178.517C403.676 178.72 403.348 178.615 403.368 178.287Z" fill="#E527BB"/>
<path d="M407.153 175.334L407.534 169.171C407.553 168.836 407.914 168.403 408.34 168.199L422.343 161.439C422.77 161.236 423.098 161.334 423.078 161.669L422.698 167.832C422.678 168.167 422.317 168.6 421.891 168.803L407.888 175.564C407.461 175.767 407.134 175.669 407.153 175.334Z" fill="white"/>
<path d="M405.393 174.093C404.738 174.408 404.233 174.251 404.259 173.739C404.292 173.227 404.849 172.557 405.505 172.236C406.161 171.921 406.672 172.078 406.64 172.59C406.613 173.102 406.056 173.778 405.393 174.093Z" fill="white"/>
<path d="M408.066 167.412C408.066 167.412 407.679 163.985 410.086 163.099C412.493 162.213 416.638 163.08 416.638 163.08C417.819 164.799 414.736 165.403 410.952 165.823L408.066 167.412Z" fill="#FFC2A9"/>
<path d="M412.688 175.393C412.688 175.393 414.439 176.948 415.468 176.003C416.498 175.058 416.183 171.77 416 170.628C415.816 169.486 414.504 171.836 414.399 173.05C414.334 173.765 413.953 174.815 413.953 174.815L412.688 175.393Z" fill="#FFC2A9"/>
<path d="M416.316 173.391C416.316 173.391 418.186 174.946 419.406 173.818C420.626 172.689 420.258 168.797 420.035 167.438C419.812 166.079 418.159 168.869 418.133 170.313C418.107 171.757 417.477 172.203 417.477 172.203L416.316 173.391Z" fill="#FFC2A9"/>
<path d="M418.25 172.433C418.25 172.433 419.903 173.805 420.978 172.813C422.054 171.822 421.726 168.377 421.536 167.175C421.339 165.974 419.877 168.442 419.857 169.716C419.837 170.989 419.273 171.383 419.273 171.383L418.25 172.433Z" fill="#FFC2A9"/>
<path d="M414.184 175.025C414.184 175.025 416.053 176.581 417.273 175.452C418.493 174.329 418.125 170.431 417.902 169.072C417.679 167.714 416.027 170.503 416 171.947C415.974 173.391 415.345 173.837 415.345 173.837L414.184 175.025Z" fill="#FFC2A9"/>
<path d="M385.72 166.414C385.622 166.414 385.524 166.368 385.451 166.283C385.333 166.132 385.353 165.915 385.504 165.797C387.281 164.353 389.61 163.421 389.702 163.382C389.879 163.309 390.082 163.401 390.154 163.579C390.226 163.756 390.141 163.959 389.957 164.031C389.931 164.038 387.629 164.963 385.937 166.342C385.878 166.388 385.799 166.414 385.72 166.414Z" fill="#8367E8"/>
<path d="M389.176 164.333C389.143 164.333 389.104 164.327 389.064 164.314C387.431 163.769 386.172 163.769 386.172 163.762C385.982 163.762 385.824 163.605 385.824 163.415C385.824 163.224 385.982 163.067 386.172 163.067C386.231 163.067 387.543 163.073 389.281 163.651C389.464 163.71 389.563 163.907 389.497 164.091C389.458 164.242 389.327 164.333 389.176 164.333Z" fill="#8367E8"/>
<path d="M345.436 295.156L341.625 298.333L345.993 305.264L349.804 302.087L345.436 295.156Z" fill="#FFC2A9"/>
<path d="M345.526 328.787L329.621 303.551C329.844 303.15 330.264 302.744 330.815 302.337C332.848 300.834 336.685 299.363 339.04 298.339C339.315 298.221 339.571 298.11 339.8 298.005C340.187 297.828 340.509 297.663 340.725 297.526C342.476 296.423 343.152 298.162 343.152 298.162C342.26 302.297 347.835 302.816 347.671 305.284C347.671 305.284 347.605 306.34 347.068 309.478C346.53 312.615 347.487 316.776 348.104 320.445C348.898 325.177 348.006 327.225 347.061 328.111C346.307 328.814 345.526 328.787 345.526 328.787Z" fill="#A78BEF"/>
<path d="M345.526 328.787L329.621 303.551C329.844 303.151 330.264 302.744 330.815 302.337L347.061 328.111C346.307 328.814 345.526 328.787 345.526 328.787Z" fill="#424208"/>
<path d="M346.831 306.334C346.831 306.334 348.215 306.091 348.497 307.312C348.779 308.532 347.067 309.478 347.067 309.478C347.067 309.478 345.185 309.825 346.831 306.334Z" fill="white"/>
<path d="M341.678 309.156C341.534 308.926 341.599 308.624 341.829 308.48C344.334 306.898 346.676 307.613 346.774 307.64C347.03 307.718 347.174 308.001 347.096 308.257C347.017 308.513 346.741 308.657 346.479 308.578C346.394 308.552 344.452 307.981 342.347 309.307C342.13 309.451 341.829 309.386 341.678 309.156Z" fill="white"/>
<path d="M348.248 312.339C348.189 312.241 348.156 312.123 348.176 311.998C348.314 311.171 347.422 309.569 346.831 308.749C346.674 308.526 346.72 308.224 346.943 308.06C347.159 307.902 347.467 307.948 347.631 308.171C347.815 308.421 349.396 310.666 349.153 312.155C349.107 312.425 348.858 312.602 348.589 312.562C348.445 312.536 348.32 312.451 348.248 312.339Z" fill="white"/>
<path d="M345.62 307.62C345.325 307.154 344.945 306.471 344.505 305.513C343.856 304.076 343.836 302.698 344.453 301.916C344.827 301.45 345.384 301.247 345.994 301.372C346.571 301.49 347.037 301.805 347.371 302.323C347.378 302.337 347.385 302.343 347.391 302.356C348.486 304.096 347.778 307.495 347.693 307.883L346.991 307.725C347.004 307.738 347.011 307.745 347.011 307.745L346.243 308.48C346.224 308.46 345.994 308.217 345.62 307.62ZM346.493 302.927C346.486 302.921 346.486 302.914 346.479 302.908C346.302 302.632 346.079 302.474 345.784 302.415C345.568 302.369 345.41 302.422 345.292 302.579C344.991 302.96 344.932 303.879 345.476 305.073C346.007 306.242 346.447 306.964 346.716 307.358C346.919 306.255 347.155 303.977 346.493 302.927Z" fill="white"/>
<path d="M347.074 308.92L347.645 308.02C348.557 308.605 350.091 308.742 350.688 308.296C350.832 308.191 350.977 308.007 350.846 307.541C350.754 307.22 350.603 307.128 350.478 307.082C349.868 306.859 348.642 307.443 348.019 307.856L347.428 306.97C347.638 306.826 349.534 305.599 350.846 306.078C351.2 306.202 351.659 306.511 351.869 307.239C352.184 308.309 351.665 308.893 351.331 309.143C350.275 309.937 348.242 309.661 347.074 308.92Z" fill="white"/>
<path d="M331.242 306.124L330.77 305.375C332.094 305.585 333.846 305.454 335.662 304.181C338.076 302.487 338.817 299.928 339.034 298.339C339.309 298.221 339.565 298.11 339.795 298.005C339.644 299.665 338.962 302.737 336.069 304.765C334.338 305.979 332.632 306.235 331.242 306.124Z" fill="#424208"/>
<path d="M345.31 309.99C345.192 309.806 345.212 309.55 345.369 309.386C345.56 309.189 345.868 309.182 346.065 309.373L347.448 310.705C347.645 310.895 347.652 311.204 347.462 311.401C347.271 311.598 346.963 311.604 346.766 311.414L345.382 310.081C345.356 310.055 345.33 310.022 345.31 309.99Z" fill="white"/>
<path d="M345.381 312.142C345.263 311.959 345.282 311.703 345.44 311.539C345.63 311.342 345.938 311.335 346.135 311.525L347.519 312.858C347.716 313.048 347.722 313.357 347.532 313.554C347.342 313.75 347.033 313.757 346.837 313.567L345.453 312.234C345.433 312.208 345.407 312.175 345.381 312.142Z" fill="white"/>
<path d="M345.502 314.275C345.384 314.092 345.403 313.842 345.561 313.672C345.751 313.475 346.059 313.468 346.256 313.659L347.64 314.991C347.837 315.181 347.843 315.49 347.653 315.687C347.463 315.884 347.155 315.89 346.958 315.7L345.574 314.367C345.548 314.341 345.521 314.308 345.502 314.275Z" fill="white"/>
<path d="M345.767 316.507C345.649 316.323 345.669 316.074 345.826 315.903C346.017 315.706 346.325 315.7 346.522 315.89L347.905 317.223C348.102 317.413 348.109 317.721 347.919 317.918C347.728 318.115 347.42 318.122 347.223 317.931L345.839 316.599C345.813 316.573 345.787 316.54 345.767 316.507Z" fill="white"/>
<path d="M346.248 318.811C346.13 318.627 346.149 318.371 346.307 318.207C346.497 318.01 346.805 318.004 347.002 318.194L348.386 319.526C348.583 319.717 348.589 320.025 348.399 320.222C348.209 320.419 347.901 320.425 347.704 320.235L346.32 318.903C346.294 318.877 346.267 318.844 346.248 318.811Z" fill="white"/>
<path d="M391.538 250.505C391.532 250.564 391.525 250.617 391.519 250.676C391.519 250.676 391.368 250.951 391.092 251.47C389.105 255.106 380.474 270.628 369.77 285.239C368.228 287.346 366.641 289.433 365.028 291.461C364.319 292.353 363.604 293.233 362.883 294.099C359.754 297.867 357.131 300.171 354.146 302.113C353.832 302.317 353.51 302.52 353.182 302.717C352.559 303.098 351.923 303.465 351.261 303.833C350.946 304.004 350.624 304.174 350.296 304.351C350.296 304.351 345.522 299.284 343.305 294.382C343.305 294.382 343.934 293.364 344.944 291.71C345.141 291.389 345.358 291.041 345.581 290.673C346.263 289.557 347.063 288.245 347.922 286.807C351.811 280.362 357.052 271.515 359.013 267.399C360.443 264.393 362.148 261.066 364.057 257.784C364.418 257.16 364.785 256.537 365.165 255.92C365.211 255.848 365.251 255.775 365.297 255.703C367.887 251.463 370.78 247.44 373.81 244.473L367.1 203.931L366.68 201.384L381.871 196.081L382.736 195.779L386.357 194.519C386.357 194.519 386.639 195.851 387.078 198.142C387.131 198.417 387.19 198.706 387.242 199.015C389.203 209.424 393.604 235.429 391.538 250.505Z" fill="#0C0B0B"/>
<path d="M354.143 302.113C353.829 302.317 353.507 302.52 353.179 302.717L347.335 294.913L346.798 294.191L344.941 291.71C345.138 291.389 345.355 291.041 345.578 290.673L347.394 293.102L347.932 293.824L354.143 302.113Z" fill="#453F3F"/>
<path d="M391.536 250.505C391.529 250.564 391.523 250.616 391.516 250.675C391.516 250.675 391.365 250.951 391.09 251.47C387.653 250.813 385.016 249.1 384.859 248.995C384.623 248.838 384.557 248.523 384.715 248.286C384.872 248.05 385.187 247.984 385.423 248.142C385.449 248.168 388.145 249.914 391.536 250.505Z" fill="#453F3F"/>
<path d="M377.755 245.911C377.682 245.983 370.041 253.524 347.932 293.824C347.735 294.185 347.538 294.552 347.335 294.913L346.797 294.191C347 293.824 347.197 293.463 347.394 293.102C367.91 255.736 375.761 246.803 377.02 245.491C375.256 238.862 369.904 204.922 369.674 203.465C369.641 203.242 369.792 203.032 370.015 202.999C370.238 202.966 370.448 203.117 370.481 203.34C370.54 203.701 376.187 239.524 377.866 245.504C377.905 245.648 377.866 245.806 377.755 245.911Z" fill="#453F3F"/>
<path d="M341.743 184.424C341.743 184.424 340.562 195.261 343.002 201.305C345.442 207.35 377.357 204.364 385.503 198.962C388.848 196.744 381.824 176.167 381.824 176.167L341.743 184.424Z" fill="#0C0B0B"/>
<path d="M387.236 199.021C386.751 198.936 386.285 198.811 385.826 198.654C385.098 198.404 384.396 198.063 383.733 197.63C383.045 197.184 382.422 196.659 381.864 196.094C378.362 192.53 377.345 187.161 377.299 186.899C377.26 186.676 377.411 186.465 377.627 186.42C377.85 186.38 378.067 186.525 378.106 186.748C378.119 186.813 379.175 192.399 382.73 195.786C383.176 196.212 383.655 196.599 384.179 196.941C384.809 197.348 385.478 197.669 386.18 197.906C386.468 198.004 386.77 198.083 387.072 198.148C387.124 198.424 387.177 198.719 387.236 199.021Z" fill="#453F3F"/>
<path d="M367.537 201.982C367.55 202.198 367.373 202.382 367.15 202.395C367.15 202.395 367.15 202.395 367.143 202.395C366.92 202.408 366.724 202.237 366.717 202.021C366.651 200.538 366.566 199.021 366.481 197.505C366.468 197.236 366.448 196.974 366.435 196.705C366.133 191.749 365.74 186.886 365.445 183.453C365.418 183.177 365.399 182.908 365.372 182.646C365.307 181.891 365.248 181.221 365.195 180.657C365.464 180.618 365.74 180.572 366.009 180.526C366.061 181.09 366.12 181.766 366.186 182.527C366.212 182.783 366.232 183.053 366.258 183.335C366.553 186.741 366.94 191.559 367.242 196.488C367.261 196.757 367.274 197.033 367.294 197.302C367.386 198.87 367.465 200.446 367.537 201.982Z" fill="#453F3F"/>
<path d="M368.726 196.757C368.595 196.816 368.025 197.085 367.297 197.302C367.041 197.38 366.765 197.446 366.49 197.505C366.234 197.551 365.972 197.59 365.716 197.604C365.217 197.63 364.745 197.577 364.345 197.38C363.847 197.138 363.525 196.704 363.42 196.127C363.125 194.598 362.528 188.283 362.122 183.82C362.095 183.545 362.069 183.276 362.049 183.02C361.984 182.304 361.931 181.654 361.879 181.103C362.148 181.07 362.423 181.037 362.692 181.005C362.738 181.563 362.797 182.219 362.863 182.941C362.889 183.197 362.909 183.466 362.935 183.742C363.342 188.198 363.938 194.499 364.22 195.982C364.286 196.324 364.437 196.547 364.712 196.678C365.145 196.888 365.795 196.849 366.444 196.711C366.719 196.652 366.995 196.573 367.251 196.494C367.723 196.343 368.129 196.173 368.379 196.061C368.582 195.963 368.825 196.048 368.923 196.245C369.015 196.422 368.93 196.658 368.726 196.757Z" fill="#453F3F"/>
<path d="M354.617 309.615L355.404 316.041L363.59 316.074L364.095 309.313L354.617 309.615Z" fill="#FFC2A9"/>
<path d="M365.374 198.293L364.955 308.585L364.83 310.331L352.67 310.285C352.545 309.491 352.257 308.204 351.876 306.544C351.798 306.183 351.706 305.802 351.614 305.408C350.053 298.655 347.384 287.149 346.944 277.146C346.314 262.864 346.577 244.368 346.577 244.368C345.232 233.755 343.14 210.763 342.097 198.995C342.071 198.713 342.045 198.444 342.025 198.175C341.677 194.224 341.461 191.729 341.461 191.729C343.422 190.922 346.97 191.493 350.742 192.583C351.017 192.662 351.286 192.74 351.562 192.826C358.278 194.873 365.374 198.293 365.374 198.293Z" fill="#0C0B0B"/>
<path d="M364.975 305.467L364.968 306.603L351.883 306.55C351.805 306.189 351.713 305.809 351.621 305.415L364.975 305.467Z" fill="#453F3F"/>
<path d="M365.191 246.928L365.185 247.978C363.761 248.333 362.135 248.444 360.607 248.438C357.793 248.424 355.327 248.018 355.156 247.985C354.881 247.939 354.691 247.676 354.743 247.394C354.789 247.118 355.051 246.928 355.327 246.974C355.399 246.994 361.348 247.985 365.191 246.928Z" fill="#453F3F"/>
<path d="M353.917 306.557L353.084 306.55C353.018 306.196 352.953 305.822 352.874 305.415C351.818 299.698 349.896 289.013 348.899 282.075C347.509 272.394 348.276 245.556 348.309 244.513C347.26 235.278 345.181 203.655 345.161 203.34C345.148 203.11 345.318 202.92 345.541 202.9C345.771 202.887 345.961 203.058 345.974 203.281C345.994 203.603 348.08 235.271 349.122 244.447C349.122 244.467 349.122 244.486 349.122 244.506C349.116 244.782 348.303 272.204 349.7 281.957C350.703 288.941 352.651 299.744 353.694 305.415C353.786 305.828 353.858 306.209 353.917 306.557Z" fill="#453F3F"/>
<path d="M366.667 327.035C366.667 327.107 366.667 327.179 366.66 327.251C366.653 327.58 366.634 327.875 366.621 328.124C366.588 328.682 366.542 329.023 366.542 329.023L348.092 328.951C348.092 328.951 348 328.236 348.079 327.179C348.21 325.295 348.846 322.316 351.398 320.353C354.893 317.669 353.549 318.227 354.27 316.999C354.349 316.861 354.985 314.774 355.057 314.63C355.661 313.357 356.218 312.753 359.524 312.766C363.905 312.779 364.286 314.912 364.751 316.034C364.942 316.5 365.204 317.478 365.473 318.647C365.584 319.113 365.689 319.612 365.794 320.123C366.057 321.397 366.306 322.723 366.476 323.786C366.653 324.921 366.686 326.096 366.667 327.035Z" fill="#A78BEF"/>
<path d="M366.665 327.035C366.665 327.107 366.665 327.179 366.659 327.251C366.652 327.579 366.633 327.875 366.619 328.124C365.721 327.488 365.085 326.654 364.711 325.63C363.583 322.513 365.354 318.784 365.426 318.627L365.465 318.647C365.577 319.113 365.682 319.611 365.786 320.123C365.367 321.39 364.881 323.523 365.537 325.335C365.78 325.998 366.16 326.562 366.665 327.035Z" fill="#424208"/>
<path d="M366.66 327.251C366.634 328.302 366.542 329.024 366.542 329.024L348.092 328.951C348.092 328.951 348 328.236 348.079 327.179L366.66 327.251Z" fill="#424208"/>
<path d="M357.57 315.47C357.498 315.47 357.426 315.457 357.353 315.424C356.888 315.207 352.782 313.284 352.467 311.283C352.401 310.882 352.454 310.291 353.057 309.747C353.628 309.228 354.185 309.235 354.553 309.333C356.415 309.832 357.806 313.967 358.068 314.787C358.134 314.984 358.075 315.201 357.917 315.339C357.826 315.424 357.701 315.47 357.57 315.47ZM354.166 310.324C354.061 310.324 353.936 310.364 353.766 310.515C353.49 310.764 353.484 310.967 353.503 311.112C353.635 311.959 355.196 313.074 356.625 313.869C355.983 312.26 355.045 310.547 354.284 310.344C354.251 310.331 354.212 310.324 354.166 310.324Z" fill="white"/>
<path d="M358.467 315.47C358.343 315.47 358.218 315.424 358.12 315.332C357.962 315.194 357.91 314.978 357.969 314.774C358.238 313.954 359.661 309.832 361.524 309.346C361.891 309.248 362.455 309.248 363.019 309.773C363.616 310.324 363.662 310.915 363.596 311.315C363.268 313.311 359.149 315.208 358.677 315.418C358.612 315.457 358.539 315.47 358.467 315.47ZM361.911 310.357C361.865 310.357 361.825 310.364 361.793 310.37C361.032 310.567 360.081 312.274 359.425 313.882C360.855 313.101 362.429 311.991 362.567 311.151C362.593 311.007 362.586 310.803 362.311 310.554C362.14 310.397 362.016 310.357 361.911 310.357Z" fill="white"/>
<path d="M358.009 313.928C358.009 313.928 357.15 313.521 357.078 314.696C357.019 315.654 357.701 315.857 357.976 315.7C357.976 315.7 358.56 315.877 358.855 315.411C359.15 314.945 358.967 313.462 358.009 313.928Z" fill="white"/>
<path d="M354.225 317.137C354.113 317.137 354.008 317.104 353.91 317.032C353.68 316.855 353.628 316.527 353.805 316.297C355.477 314.072 358.029 314.571 358.134 314.59C358.416 314.65 358.599 314.925 358.54 315.214C358.481 315.496 358.206 315.68 357.924 315.621C357.839 315.601 355.904 315.247 354.644 316.927C354.539 317.065 354.382 317.137 354.225 317.137Z" fill="white"/>
<path d="M362.287 317.702C362.09 317.702 361.893 317.583 361.808 317.393C360.962 315.516 357.984 315.05 357.958 315.043C357.669 314.997 357.472 314.735 357.518 314.446C357.564 314.157 357.833 313.96 358.115 314.006C358.26 314.026 361.69 314.571 362.772 316.967C362.89 317.229 362.772 317.544 362.51 317.662C362.431 317.682 362.359 317.702 362.287 317.702Z" fill="white"/>
<path d="M360.109 318.529C360.063 318.529 360.023 318.522 359.977 318.509C357.636 317.892 355.721 318.397 355.701 318.404C355.419 318.483 355.13 318.312 355.058 318.036C354.98 317.754 355.15 317.465 355.426 317.393C355.517 317.367 357.636 316.809 360.246 317.492C360.528 317.564 360.692 317.853 360.62 318.135C360.555 318.378 360.345 318.529 360.109 318.529Z" fill="white"/>
<path d="M359.316 320.196C359.27 320.196 359.23 320.189 359.184 320.176C356.856 319.566 354.928 320.064 354.908 320.071C354.626 320.143 354.337 319.979 354.265 319.697C354.187 319.415 354.357 319.126 354.633 319.054C354.724 319.027 356.843 318.469 359.453 319.152C359.735 319.224 359.899 319.513 359.827 319.795C359.762 320.038 359.552 320.196 359.316 320.196Z" fill="white"/>
<path d="M358.376 322.086C358.33 322.086 358.291 322.079 358.245 322.066C355.916 321.456 353.988 321.955 353.968 321.961C353.686 322.04 353.398 321.869 353.326 321.587C353.253 321.305 353.417 321.016 353.693 320.944C353.785 320.918 355.903 320.36 358.514 321.042C358.796 321.115 358.96 321.403 358.887 321.686C358.828 321.935 358.612 322.086 358.376 322.086Z" fill="white"/>
<path d="M353.858 186.807C353.819 186.997 353.248 189.905 351.576 192.832C350.585 194.558 349.214 196.298 347.345 197.492C345.771 198.496 344.02 199.002 342.111 199.002C342.085 198.72 342.065 198.45 342.039 198.181C343.823 198.188 345.45 197.728 346.906 196.796C348.578 195.727 349.831 194.164 350.756 192.589C352.461 189.675 353.045 186.695 353.058 186.649C353.097 186.426 353.314 186.282 353.537 186.321C353.753 186.374 353.897 186.584 353.858 186.807Z" fill="#453F3F"/>
<path d="M341.161 193.915L340.125 200.091C340.125 200.091 351.8 202.749 359.172 200.885C366.544 199.021 384.319 197.315 387.355 197.203L385.44 188.973C385.434 188.973 362.615 196.074 341.161 193.915Z" fill="white"/>
<path d="M366.422 116.545C366.422 116.545 370.797 107.737 361.595 102.801C355.16 99.3487 342.712 98.6793 338.881 106.503C335.32 113.782 343.243 119.945 343.243 119.945C343.243 119.945 360.257 123.66 366.422 116.545Z" fill="#8367E8"/>
<path d="M351.455 106.273C351.455 106.273 343.486 107.33 346.352 111.59C347.874 113.847 356.499 115.108 356.499 115.108C356.499 115.108 358.231 107.323 351.455 106.273Z" fill="#0C0B0B"/>
<path d="M384.524 186.8C384.524 186.8 354.97 196.606 342.272 191.605C342.272 191.605 338.29 190.351 336.716 182.527C336.664 182.271 336.618 182.009 336.572 181.74C335.909 177.874 335.831 172.518 336.979 165.141C338.356 156.293 336.513 151.764 335.752 142.943C335.726 142.635 335.7 142.313 335.673 141.992C335.595 141.04 335.516 140.036 335.444 138.966C334.631 127.322 330.944 122.334 336.756 118.901C342.567 115.469 350.175 112.843 350.175 112.843C350.175 112.843 356.635 114.924 361.2 112.883C361.2 112.883 368.12 116.309 373.446 118.271C378.765 120.234 376.961 134.325 378.614 142.425C380.267 150.524 383.087 156.976 385.606 170.411C387.901 182.718 384.524 186.8 384.524 186.8Z" fill="#A78BEF"/>
<path d="M361.868 119.846C361.711 119.846 361.573 119.735 361.54 119.571C361.508 119.394 361.632 119.216 361.809 119.183C364.879 118.645 366.387 115.751 366.401 115.718C366.486 115.554 366.683 115.488 366.847 115.574C367.01 115.659 367.076 115.856 366.991 116.02C366.925 116.151 365.312 119.236 361.921 119.833C361.908 119.84 361.888 119.846 361.868 119.846Z" fill="#8367E8"/>
<path d="M351.469 136.439L352.059 143.258L371.578 141.781L370.365 135.421L351.469 136.439Z" fill="#8367E8"/>
<path d="M385.28 169.223C385.057 169.223 384.873 169.053 384.86 168.829C384.624 165.443 382.085 156.838 380.564 151.699C380.269 150.701 380.013 149.835 379.829 149.192C378.727 145.339 377.494 136.294 377.442 135.907C377.409 135.677 377.573 135.461 377.802 135.428C378.039 135.395 378.248 135.559 378.281 135.789C378.294 135.881 379.56 145.162 380.642 148.955C380.826 149.592 381.082 150.458 381.377 151.456C382.905 156.628 385.463 165.292 385.706 168.77C385.719 169.007 385.548 169.21 385.312 169.223C385.306 169.223 385.293 169.223 385.28 169.223Z" fill="#8367E8"/>
<path d="M386.026 182.711C386.026 182.711 387.272 186.583 385.482 189.169C385.482 189.169 358.931 198.279 341.163 193.915C341.163 193.915 339.57 191.979 339.137 188.014C339.137 188.014 360.505 193.416 386.026 182.711Z" fill="#8367E8"/>
<path d="M358.814 126.62C363.727 126.64 365.288 122.235 365.301 122.189C365.36 122.019 365.268 121.835 365.098 121.783C364.927 121.723 364.743 121.815 364.691 121.986C364.632 122.163 363.156 126.285 358.322 125.963C353.298 125.629 346.857 122.288 346.792 122.249C346.634 122.163 346.438 122.229 346.359 122.386C346.28 122.544 346.339 122.741 346.497 122.82C346.766 122.957 353.121 126.259 358.283 126.607C358.46 126.613 358.637 126.62 358.814 126.62Z" fill="#8367E8"/>
<path d="M378.347 166.414C378.347 166.414 382.118 173.87 380.846 179.666C380.846 179.666 366.672 186.249 349.96 182.823C349.96 182.823 350.347 175.557 349.711 168.915C349.711 168.915 368.043 166.211 378.347 166.414Z" fill="#8367E8"/>
<path d="M361.432 110.592L361.13 113.513C360.763 113.756 360.336 113.867 360.021 114.13C356.493 117.09 351.888 113.834 349.547 111.485L350.603 102.204L360.139 109.594L361.432 110.592Z" fill="#FFC2A9"/>
<path d="M361.428 110.592L361.126 113.513C360.759 113.756 360.385 113.959 360.018 114.13C355.879 111.977 353.203 107.126 353.203 107.126L360.129 109.588L361.428 110.592Z" fill="#0C0B0B"/>
<path d="M348.266 94.6822C348.266 94.6822 346.758 92.9232 346.417 90.8885C346.076 88.8539 348.161 87.5346 348.161 87.5346C348.161 87.5346 347.177 86.1235 348.358 84.3054C349.657 82.297 352.825 82.507 352.825 82.507C352.825 82.507 352.136 80.8202 354.235 79.6716C356.334 78.523 358.505 80.3805 358.505 80.3805C358.505 80.3805 359.233 78.3524 361.554 78.2474C363.876 78.1423 364.375 80.4592 364.375 80.4592C364.375 80.4592 369.3 78.3524 371.498 81.5291C374.725 86.1891 367.72 88.8079 367.72 88.8079C356.622 85.0602 348.797 95.2467 348.797 95.2467L348.266 94.6822Z" fill="#231F20"/>
<path d="M365.378 86.5305C365.378 86.5305 373.124 90.974 367.922 96.8614C367.922 96.8614 365.023 88.447 365.378 86.5305Z" fill="#231F20"/>
<path d="M366.4 98.0231C366.4 98.0231 368.256 96.2378 368.991 98.2922C369.726 100.347 368.598 104.239 366.145 103.333L366.4 98.0231Z" fill="#F59876"/>
<path d="M367.465 105.079C367.465 105.079 366.855 111.117 360.584 110.454C354.353 109.804 350.602 104.468 350.405 104.219C350.398 104.212 350.398 104.212 350.398 104.212L350.457 102.939L350.779 96.3165L350.949 92.7788C350.949 92.7788 350.805 86.3598 356.938 85.8216C361.424 85.4278 365.471 86.583 367.314 89.0902C367.996 90.0156 368.37 91.1249 368.363 92.4113L367.911 98.7516L367.799 100.307L367.465 105.079Z" fill="#FFC2A9"/>
<path d="M367.32 89.0902C367.254 89.3002 367.142 89.4708 366.992 89.6021C365.641 90.7573 362.807 90.009 360.223 88.9064C357.639 87.8103 355.566 89.5562 355.566 89.5562C356.045 92.1881 353.513 92.1356 353.848 94.1309C354.189 96.1262 353.717 98.6597 353.717 98.6597L352.169 98.2921C351.926 97.347 351.218 96.2902 349.473 95.7192C347.61 95.8702 347.892 92.0503 349.145 89.1361C349.145 89.1361 350.811 86.3532 356.943 85.815C361.423 85.4278 365.47 86.5829 367.32 89.0902Z" fill="#231F20"/>
<path d="M352.622 101.974C352.589 102.04 351.605 103.799 350.405 104.219C350.398 104.212 350.398 104.212 350.398 104.212L350.464 102.939C350.464 102.939 351.468 102.867 352.622 101.974Z" fill="#0C0B0B"/>
<path d="M351.945 97.6686C351.945 97.6686 349.866 94.1769 347.84 96.5463C346.167 98.4956 348.358 104.252 351.434 102.67L351.945 97.6686Z" fill="#FFC2A9"/>
<path d="M351.204 101.659C351.21 101.659 351.223 101.659 351.23 101.659C351.368 101.659 351.479 101.547 351.479 101.41C351.46 98.6202 349.243 97.4256 349.144 97.3797C349.02 97.3141 348.869 97.36 348.81 97.4847C348.744 97.6094 348.797 97.7604 348.915 97.8195C349 97.8654 350.961 98.9287 350.981 101.41C350.981 101.541 351.079 101.646 351.204 101.659Z" fill="#0C0B0B"/>
<path d="M349.038 99.9132C349.091 99.9198 349.15 99.9066 349.202 99.8738C349.438 99.7229 350.134 99.3553 350.553 99.5128C350.685 99.5588 350.829 99.4931 350.875 99.3619C350.921 99.2306 350.855 99.0862 350.724 99.0403C349.996 98.7712 349.038 99.3816 348.927 99.4538C348.815 99.526 348.783 99.6835 348.855 99.8016C348.901 99.8673 348.966 99.9066 349.038 99.9132Z" fill="#0C0B0B"/>
<path d="M349.527 111.084C349.527 111.084 355.259 115.324 356.925 115.311C356.925 115.311 354.741 117.805 351.304 118.127C346.798 118.553 339.203 117.543 339.203 117.543C339.203 117.543 344.824 113.191 349.527 111.084Z" fill="#8367E8"/>
<path d="M348.503 120.555C343.866 120.555 340.422 117.418 340.278 117.28C340.147 117.155 340.134 116.945 340.258 116.814C340.383 116.683 340.593 116.67 340.724 116.794C340.757 116.827 344.266 120.01 348.772 119.886C348.955 119.879 349.106 120.024 349.113 120.207C349.119 120.391 348.975 120.542 348.791 120.549C348.693 120.549 348.595 120.555 348.503 120.555Z" fill="#8367E8"/>
<path d="M361.445 111.222C361.445 111.222 360.31 114.504 356.926 115.311C356.926 115.311 357.673 118.396 361.091 117.923C364.508 117.451 366.423 115.495 366.423 115.495C366.423 115.495 364.147 111.235 361.445 111.222Z" fill="#8367E8"/>
<path d="M356.714 171.527C356.845 171.527 356.95 171.428 356.956 171.297C358.071 148.995 351.965 115.514 351.9 115.18C351.873 115.048 351.749 114.963 351.618 114.989C351.486 115.016 351.401 115.14 351.421 115.272C351.48 115.606 357.58 149.034 356.471 171.277C356.465 171.409 356.569 171.527 356.701 171.533C356.707 171.527 356.714 171.527 356.714 171.527Z" fill="white"/>
<path d="M371.615 170.077H371.622C371.753 170.07 371.858 169.965 371.858 169.827C371.15 142.891 362.112 115.37 362.02 115.095C361.981 114.97 361.843 114.898 361.712 114.944C361.587 114.983 361.515 115.121 361.561 115.246C361.653 115.521 370.664 142.97 371.373 169.834C371.379 169.972 371.484 170.077 371.615 170.077Z" fill="white"/>
<path d="M349.908 183.249C349.908 183.249 335.826 185.074 326.434 179.003C321.101 175.557 317.278 169.565 318.399 159.247C318.412 159.089 318.432 158.932 318.452 158.774C321.226 135.973 331.72 123.758 335.439 120.083C336.528 119.006 338.056 118.455 339.571 118.678C343.802 119.302 346.438 125.53 338.397 154.587C335.38 168.915 349.232 170.654 349.232 170.654L349.908 183.249Z" fill="#A78BEF"/>
<path d="M337.985 157.875C337.939 157.875 337.893 157.862 337.854 157.849C337.624 157.763 337.513 157.514 337.592 157.284C337.657 157.114 343.895 140.134 344.354 131.05C344.367 130.807 344.57 130.63 344.813 130.637C345.055 130.65 345.239 130.853 345.233 131.096C344.767 140.311 338.484 157.416 338.418 157.586C338.346 157.77 338.169 157.882 337.985 157.875Z" fill="#8367E8"/>
<path d="M343.788 138.27C343.709 138.263 343.63 138.244 343.558 138.198C343.355 138.06 343.302 137.791 343.44 137.587L346.169 133.538C346.306 133.334 346.575 133.282 346.779 133.42C346.982 133.557 347.034 133.827 346.897 134.03L344.168 138.08C344.083 138.204 343.939 138.277 343.788 138.27Z" fill="#8367E8"/>
<path d="M346.909 184.063C346.738 184.057 346.581 183.952 346.515 183.781C345.059 179.948 345.853 169.315 345.886 168.862C345.905 168.619 346.115 168.442 346.358 168.455C346.601 168.475 346.778 168.685 346.765 168.928C346.758 169.033 345.951 179.817 347.342 183.466C347.427 183.696 347.316 183.945 347.086 184.03C347.02 184.057 346.961 184.07 346.909 184.063Z" fill="#8367E8"/>
<path d="M350.336 183.138C350.277 182.901 350.034 182.764 349.798 182.823C349.739 182.842 343.895 184.345 337.415 182.639C337.114 182.56 336.832 182.816 336.871 183.125C336.871 183.131 336.871 183.131 336.871 183.131C336.897 183.302 337.022 183.446 337.186 183.486C339.18 184.011 341.095 184.247 342.813 184.319C346.873 184.483 349.831 183.715 350.015 183.669C350.257 183.61 350.395 183.374 350.336 183.138Z" fill="#8367E8"/>
<path d="M346.502 169.348C346.325 169.341 346.142 169.328 345.951 169.309C344.076 169.112 341.38 168.18 339.169 164.845C339.038 164.642 339.091 164.373 339.294 164.235C339.497 164.104 339.766 164.156 339.904 164.36C343.754 170.175 349.172 168.121 349.224 168.101C349.447 168.009 349.703 168.121 349.795 168.35C349.887 168.573 349.775 168.829 349.546 168.921C349.493 168.941 348.254 169.42 346.502 169.348Z" fill="#8367E8"/>
<path d="M326.434 179.003C321.101 175.557 317.278 169.565 318.399 159.247C322.079 163.651 327.936 172.013 326.434 179.003Z" fill="#8367E8"/>
<path d="M212.242 305.133H205.867V316.907H212.242V305.133Z" fill="#E527BB"/>
<path d="M222.203 312.359H215.828V316.914H222.203V312.359Z" fill="#E527BB"/>
<path d="M232.168 308.933H225.793V316.914H232.168V308.933Z" fill="#E527BB"/>
<path d="M242.129 298.93H235.754V316.907H242.129V298.93Z" fill="#E527BB"/>
<path d="M252.094 303.728H245.719V316.914H252.094V303.728Z" fill="#E527BB"/>
<path d="M262.055 297.834H255.68V316.907H262.055V297.834Z" fill="#E527BB"/>
<path d="M272.02 292.905H265.645V316.914H272.02V292.905Z" fill="#E527BB"/>
<path d="M281.981 310.849H275.605V316.907H281.981V310.849Z" fill="#E527BB"/>
<path d="M291.946 297.834H285.57V316.907H291.946V297.834Z" fill="#E527BB"/>
<path d="M301.906 302.081H295.531V316.907H301.906V302.081Z" fill="#E527BB"/>
<path d="M311.871 308.933H305.496V316.914H311.871V308.933Z" fill="#E527BB"/>
<path d="M321.832 292.905H315.457V316.914H321.832V292.905Z" fill="#E527BB"/>
</g>
</g>
<defs>
<clipPath id="clip0_1470_4862">
<rect width="542.64" height="328.79" fill="white"/>
</clipPath>
<clipPath id="clip1_1470_4862">
<rect width="307" height="298" fill="white" transform="translate(118 31.03)"/>
</clipPath>
</defs>
</svg>
