<svg width="37" height="37" viewBox="0 0 37 37" fill="none" xmlns="http://www.w3.org/2000/svg">
<g clip-path="url(#clip0_379_4299)">
<path d="M36.459 25.1901V34.29C36.459 35.4874 35.4884 36.458 34.291 36.458H2.71094C1.51357 36.458 0.542969 35.4874 0.542969 34.29V2.70996C0.542969 1.51259 1.51357 0.541992 2.71094 0.541992H34.291C35.4884 0.541992 36.459 1.51259 36.459 2.70996V22.6608" stroke="#DAA7EE" stroke-width="1.08398" stroke-miterlimit="10" stroke-linecap="round" stroke-linejoin="round"/>
<path d="M9.47461 7.0459H36.4583" stroke="#DAA7EE" stroke-width="1.08398" stroke-miterlimit="10" stroke-linecap="round" stroke-linejoin="round"/>
<path d="M0.542969 7.0459H6.94599" stroke="#DAA7EE" stroke-width="1.08398" stroke-miterlimit="10" stroke-linecap="round" stroke-linejoin="round"/>
<path d="M3.79492 4.87793C4.39359 4.87793 4.87891 4.39261 4.87891 3.79395C4.87891 3.19528 4.39359 2.70996 3.79492 2.70996C3.19625 2.70996 2.71094 3.19528 2.71094 3.79395C2.71094 4.39261 3.19625 4.87793 3.79492 4.87793Z" stroke="#DAA7EE" stroke-width="1.08398" stroke-miterlimit="10" stroke-linecap="round" stroke-linejoin="round"/>
<path d="M8.13086 4.87793C8.72953 4.87793 9.21484 4.39261 9.21484 3.79395C9.21484 3.19528 8.72953 2.70996 8.13086 2.70996C7.53219 2.70996 7.04688 3.19528 7.04688 3.79395C7.04688 4.39261 7.53219 4.87793 8.13086 4.87793Z" stroke="#DAA7EE" stroke-width="1.08398" stroke-miterlimit="10" stroke-linecap="round" stroke-linejoin="round"/>
<path d="M12.4668 4.87793C13.0655 4.87793 13.5508 4.39261 13.5508 3.79395C13.5508 3.19528 13.0655 2.70996 12.4668 2.70996C11.8681 2.70996 11.3828 3.19528 11.3828 3.79395C11.3828 4.39261 11.8681 4.87793 12.4668 4.87793Z" stroke="#DAA7EE" stroke-width="1.08398" stroke-miterlimit="10" stroke-linecap="round" stroke-linejoin="round"/>
<path d="M14.1465 13.8511L15.6073 10.0154C15.6372 9.94237 15.7405 9.9423 15.7705 10.0152L17.2181 13.8511" stroke="#DAA7EE" stroke-width="1.08398" stroke-miterlimit="10" stroke-linecap="round" stroke-linejoin="round"/>
<path d="M14.6016 12.8958H16.7694" stroke="#DAA7EE" stroke-width="1.08398" stroke-miterlimit="10" stroke-linecap="round" stroke-linejoin="round"/>
<path d="M23.8672 9.96045V13.8509" stroke="#DAA7EE" stroke-width="1.08398" stroke-miterlimit="10" stroke-linecap="round" stroke-linejoin="round"/>
<path d="M25.9605 10.0095L23.9922 11.8188L26.0986 13.8509" stroke="#DAA7EE" stroke-width="1.08398" stroke-miterlimit="10" stroke-linecap="round" stroke-linejoin="round"/>
<path d="M21.7827 10.3604C21.7827 10.3604 21.0846 9.7736 20.2613 10.0215C19.5054 10.2493 19.3997 11.1209 19.9466 11.4774C19.9466 11.4774 20.4832 11.7168 21.0784 11.9364C22.5111 12.4648 21.894 13.851 20.7405 13.851C20.1629 13.851 19.6782 13.598 19.3848 13.2743" stroke="#DAA7EE" stroke-width="1.08398" stroke-miterlimit="10" stroke-linecap="round" stroke-linejoin="round"/>
<path d="M10.9023 9.96057H13.0509" stroke="#DAA7EE" stroke-width="1.08398" stroke-miterlimit="10" stroke-linecap="round" stroke-linejoin="round"/>
<path d="M11.9727 10.0847V13.851" stroke="#DAA7EE" stroke-width="1.08398" stroke-miterlimit="10" stroke-linecap="round" stroke-linejoin="round"/>
<path d="M12.3398 16.8065H32.1232" stroke="#DAA7EE" stroke-width="1.08398" stroke-miterlimit="10" stroke-linecap="round" stroke-linejoin="round"/>
<path d="M12.3398 18.9745H26.7033" stroke="#DAA7EE" stroke-width="1.08398" stroke-miterlimit="10" stroke-linecap="round" stroke-linejoin="round"/>
<path d="M8.03005 20.6802H5.60156C5.20244 20.6802 4.87891 20.3567 4.87891 19.9575V17.5291C4.87891 17.1299 5.20244 16.8064 5.60156 16.8064H8.03005C8.42917 16.8064 8.75271 17.1299 8.75271 17.5291V19.9575C8.75271 20.3567 8.4291 20.6802 8.03005 20.6802Z" stroke="#DAA7EE" stroke-width="1.08398" stroke-miterlimit="10" stroke-linecap="round" stroke-linejoin="round"/>
<path d="M12.3398 23.3104H32.1232" stroke="#DAA7EE" stroke-width="1.08398" stroke-miterlimit="10" stroke-linecap="round" stroke-linejoin="round"/>
<path d="M12.3398 25.4784H26.7033" stroke="#DAA7EE" stroke-width="1.08398" stroke-miterlimit="10" stroke-linecap="round" stroke-linejoin="round"/>
<path d="M8.03005 27.1841H5.60156C5.20244 27.1841 4.87891 26.8606 4.87891 26.4614V24.033C4.87891 23.6338 5.20244 23.3103 5.60156 23.3103H8.03005C8.42917 23.3103 8.75271 23.6338 8.75271 24.033V26.4614C8.75271 26.8606 8.4291 27.1841 8.03005 27.1841Z" stroke="#DAA7EE" stroke-width="1.08398" stroke-miterlimit="10" stroke-linecap="round" stroke-linejoin="round"/>
<path d="M12.3398 29.8143H32.1232" stroke="#DAA7EE" stroke-width="1.08398" stroke-miterlimit="10" stroke-linecap="round" stroke-linejoin="round"/>
<path d="M12.3398 31.9823H26.7033" stroke="#DAA7EE" stroke-width="1.08398" stroke-miterlimit="10" stroke-linecap="round" stroke-linejoin="round"/>
<path d="M8.03005 33.688H5.60156C5.20244 33.688 4.87891 33.3645 4.87891 32.9654V30.5369C4.87891 30.1377 5.20244 29.8142 5.60156 29.8142H8.03005C8.42917 29.8142 8.75271 30.1377 8.75271 30.5369V32.9654C8.75271 33.3645 8.4291 33.688 8.03005 33.688Z" stroke="#DAA7EE" stroke-width="1.08398" stroke-miterlimit="10" stroke-linecap="round" stroke-linejoin="round"/>
</g>
<defs>
<clipPath id="clip0_379_4299">
<rect width="37" height="37" fill="white"/>
</clipPath>
</defs>
</svg>
