<svg width="46" height="46" viewBox="0 0 46 46" fill="none" xmlns="http://www.w3.org/2000/svg">
<path d="M5.75 4.3125H7.1875V5.75H5.75V4.3125Z" fill="#DAA7EE"/>
<path d="M8.625 4.3125H10.0625V5.75H8.625V4.3125Z" fill="#DAA7EE"/>
<path d="M11.5 4.3125H12.9375V5.75H11.5V4.3125Z" fill="#DAA7EE"/>
<path d="M6.46875 20.125H17.9688C18.1594 20.125 18.3422 20.0493 18.477 19.9145C18.6118 19.7797 18.6875 19.5969 18.6875 19.4062V12.2188C18.6875 12.0281 18.6118 11.8453 18.477 11.7105C18.3422 11.5757 18.1594 11.5 17.9688 11.5H6.46875C6.27813 11.5 6.09531 11.5757 5.96052 11.7105C5.82573 11.8453 5.75 12.0281 5.75 12.2188V19.4062C5.75 19.5969 5.82573 19.7797 5.96052 19.9145C6.09531 20.0493 6.27813 20.125 6.46875 20.125ZM7.1875 12.9375H17.25V18.6875H7.1875V12.9375Z" fill="#DAA7EE"/>
<path d="M24.4375 12.2188H35.9375V13.6562H24.4375V12.2188Z" fill="#DAA7EE"/>
<path d="M21.5625 15.0938H34.5V16.5312H21.5625V15.0938Z" fill="#DAA7EE"/>
<path d="M21.5625 17.9688H31.625V19.4062H21.5625V17.9688Z" fill="#DAA7EE"/>
<path d="M8.625 23H27.3125V24.4375H8.625V23Z" fill="#DAA7EE"/>
<path d="M5.75 25.875H24.4375V27.3125H5.75V25.875Z" fill="#DAA7EE"/>
<path d="M5.75 28.75H21.5625V30.1875H5.75V28.75Z" fill="#DAA7EE"/>
<path d="M5.75 31.625H21.5625V33.0625H5.75V31.625Z" fill="#DAA7EE"/>
<path d="M5.75 34.5H21.5625V35.9375H5.75V34.5Z" fill="#DAA7EE"/>
<path d="M5.75 23H7.1875V24.4375H5.75V23Z" fill="#DAA7EE"/>
<path d="M40.9688 5.75H40.25V5.03125C40.25 4.07813 39.8714 3.16404 39.1974 2.49009C38.5235 1.81613 37.6094 1.4375 36.6562 1.4375H5.03125C4.07813 1.4375 3.16404 1.81613 2.49009 2.49009C1.81613 3.16404 1.4375 4.07813 1.4375 5.03125V36.6562C1.4375 37.6094 1.81613 38.5235 2.49009 39.1974C3.16404 39.8714 4.07813 40.25 5.03125 40.25H5.75V40.9688C5.75 41.9219 6.12863 42.836 6.80259 43.5099C7.47654 44.1839 8.39063 44.5625 9.34375 44.5625H40.9688C41.9219 44.5625 42.836 44.1839 43.5099 43.5099C44.1839 42.836 44.5625 41.9219 44.5625 40.9688V9.34375C44.5625 8.39063 44.1839 7.47654 43.5099 6.80259C42.836 6.12863 41.9219 5.75 40.9688 5.75ZM39.6822 16.9194L42.7369 19.9741L40.7028 22.0081L37.6481 18.9534L39.6822 16.9194ZM26.6872 31.3734L27.255 29.9L29.7563 32.4013L28.2828 32.9691L26.6872 31.3734ZM26.8166 33.5297L25.6881 33.9681L26.1266 32.8397L26.8166 33.5297ZM29.0088 29.6269L27.9953 28.6134L36.6347 19.9741L37.6481 20.9875L29.0088 29.6269ZM38.6687 22.0081L39.6822 23.0216L31.0428 31.6609L30.0294 30.6475L38.6687 22.0081ZM2.875 5.03125C2.87671 4.4599 3.10443 3.91244 3.50844 3.50844C3.91244 3.10443 4.4599 2.87671 5.03125 2.875H36.6562C37.2276 2.87671 37.7751 3.10443 38.1791 3.50844C38.5831 3.91244 38.8108 4.4599 38.8125 5.03125V7.1875H2.875V5.03125ZM5.03125 38.8125C4.4599 38.8108 3.91244 38.5831 3.50844 38.1791C3.10443 37.7751 2.87671 37.2276 2.875 36.6562V8.625H38.8125V15.7622L26.4716 28.1031C26.3996 28.1746 26.3432 28.2602 26.3062 28.3547L23.7691 34.96C23.7169 35.0895 23.704 35.2316 23.7322 35.3684C23.7603 35.5052 23.8281 35.6306 23.9272 35.7291C24.0631 35.8631 24.2466 35.9381 24.4375 35.9375C24.5262 35.9382 24.6142 35.9211 24.6963 35.8872L31.3016 33.35C31.396 33.313 31.4817 33.2567 31.5531 33.1847L38.8125 25.9253V36.6562C38.8108 37.2276 38.5831 37.7751 38.1791 38.1791C37.7751 38.5831 37.2276 38.8108 36.6562 38.8125H5.03125ZM43.125 40.9688C43.1233 41.5401 42.8956 42.0876 42.4916 42.4916C42.0876 42.8956 41.5401 43.1233 40.9688 43.125H9.34375C8.7724 43.1233 8.22494 42.8956 7.82094 42.4916C7.41693 42.0876 7.18921 41.5401 7.1875 40.9688V40.25H36.6562C37.6094 40.25 38.5235 39.8714 39.1974 39.1974C39.8714 38.5235 40.25 37.6094 40.25 36.6562V24.4878L43.125 21.6128V40.9688ZM43.125 18.3281L40.25 15.4531V12.9375H43.125V18.3281ZM43.125 11.5H40.25V7.1875H40.9688C41.5401 7.18921 42.0876 7.41693 42.4916 7.82094C42.8956 8.22494 43.1233 8.7724 43.125 9.34375V11.5Z" fill="#DAA7EE"/>
<path d="M21.5625 12.2188H23V13.6562H21.5625V12.2188Z" fill="#DAA7EE"/>
</svg>
