<svg width="54" height="54" viewBox="0 0 54 54" fill="none" xmlns="http://www.w3.org/2000/svg">
<g clip-path="url(#clip0_1510_3065)">
<path d="M24.6899 37.1829L30.8554 35.6045C31.0625 35.5684 31.2532 35.4688 31.4013 35.3196L52.8648 13.8442C53.4352 13.2725 53.7555 12.4978 53.7555 11.6902C53.7555 10.8826 53.4352 10.1079 52.8648 9.53611L51.1321 7.79743C50.849 7.51334 50.5122 7.28835 50.1414 7.13554C49.7706 6.98274 49.3731 6.90516 48.9721 6.90732C48.572 6.90595 48.1757 6.98391 47.8059 7.13669C47.4362 7.28947 47.1004 7.51405 46.818 7.79743L43.2576 11.3579V4.64644C43.2568 4.08514 43.1453 3.52951 42.9294 3.01139C42.7135 2.49326 42.3975 2.02282 41.9995 1.62703C41.6015 1.23124 41.1293 0.917862 40.61 0.704866C40.0907 0.49187 39.5345 0.383437 38.9732 0.385779H4.70988C3.58036 0.387349 2.49756 0.836743 1.69887 1.63543C0.900182 2.43412 0.450789 3.51692 0.449219 4.64644V41.8174C0.450789 42.9469 0.900182 44.0297 1.69887 44.8284C2.49756 45.6271 3.58036 46.0765 4.70988 46.0781H20.9811L31.2292 53.4067C31.3843 53.5179 31.5671 53.5843 31.7574 53.5984C31.9478 53.6126 32.1384 53.574 32.3082 53.4869C32.4781 53.3999 32.6207 53.2677 32.7203 53.1048C32.8199 52.942 32.8727 52.7549 32.873 52.564V46.0781H38.9732C40.1027 46.0765 41.1855 45.6271 41.9842 44.8284C42.7829 44.0297 43.2323 42.9469 43.2338 41.8174V30.0502C43.2338 29.7748 43.1244 29.5106 42.9297 29.3159C42.7349 29.1211 42.4708 29.0117 42.1954 29.0117C41.92 29.0117 41.6558 29.1211 41.4611 29.3159C41.2663 29.5106 41.1569 29.7748 41.1569 30.0502V41.8174C41.1569 42.1042 41.1004 42.3882 40.9907 42.6531C40.8809 42.918 40.7201 43.1588 40.5173 43.3616C40.3145 43.5643 40.0738 43.7252 39.8089 43.8349C39.5439 43.9447 39.2599 44.0012 38.9732 44.0012H30.167C29.8916 44.0012 29.6275 44.1106 29.4327 44.3053C29.238 44.5001 29.1286 44.7642 29.1286 45.0396C29.1286 45.315 29.238 45.5792 29.4327 45.7739C29.6275 45.9687 29.8916 46.0781 30.167 46.0781H30.796V50.5464L21.8949 44.1911C21.7216 44.0678 21.5142 44.0015 21.3015 44.0012H4.68614C4.39937 44.0012 4.11541 43.9447 3.85046 43.8349C3.58552 43.7252 3.34479 43.5643 3.14201 43.3616C2.93923 43.1588 2.77838 42.918 2.66863 42.6531C2.55889 42.3882 2.50241 42.1042 2.50241 41.8174V4.64644C2.50239 4.35766 2.55965 4.07174 2.67087 3.80524C2.7821 3.53874 2.94508 3.29694 3.15038 3.09385C3.35568 2.89076 3.59922 2.7304 3.86691 2.62207C4.1346 2.51373 4.42111 2.45956 4.70988 2.4627H38.9732C39.5523 2.4627 40.1078 2.69277 40.5173 3.1023C40.9268 3.51183 41.1569 4.06728 41.1569 4.64644V13.4585L25.3545 29.2609C25.2065 29.4099 25.1072 29.6003 25.0697 29.8069L23.42 35.9012C23.3676 36.0772 23.3642 36.2641 23.4102 36.4419C23.4562 36.6197 23.5499 36.7815 23.6811 36.91C23.8124 37.0371 23.9738 37.1288 24.1503 37.1766C24.3267 37.2243 24.5124 37.2265 24.6899 37.1829ZM46.5272 11.0256L49.6367 14.135L30.6477 33.124L27.5382 30.0205L46.5272 11.0256ZM26.6659 32.044L28.6004 33.9785L25.9123 34.7084L26.6659 32.044ZM48.9721 8.98424C49.0999 8.98386 49.2266 9.00884 49.3448 9.05773C49.4629 9.10662 49.5702 9.17846 49.6604 9.26908L51.3932 11.0018C51.4834 11.0917 51.555 11.1985 51.6039 11.3161C51.6528 11.4337 51.6779 11.5598 51.6779 11.6872C51.6779 11.8146 51.6528 11.9407 51.6039 12.0583C51.555 12.1759 51.4834 12.2827 51.3932 12.3726L51.1024 12.6634L47.9989 9.55984L48.2897 9.26908C48.3784 9.17809 48.4845 9.10596 48.6018 9.05702C48.7191 9.00807 48.845 8.98332 48.9721 8.98424Z" fill="#DAA7EE"/>
<path d="M10.2455 10.8889H18.7075C18.9829 10.8889 19.247 10.7795 19.4418 10.5848C19.6365 10.39 19.7459 10.1259 19.7459 9.85047C19.7459 9.57506 19.6365 9.31092 19.4418 9.11617C19.247 8.92142 18.9829 8.81201 18.7075 8.81201H10.2455C9.97008 8.81201 9.70594 8.92142 9.51119 9.11617C9.31644 9.31092 9.20703 9.57506 9.20703 9.85047C9.20703 10.1259 9.31644 10.39 9.51119 10.5848C9.70594 10.7795 9.97008 10.8889 10.2455 10.8889Z" fill="#DAA7EE"/>
<path d="M29.7332 10.8889C30.0086 10.8889 30.2727 10.7795 30.4675 10.5848C30.6622 10.39 30.7716 10.1259 30.7716 9.85047C30.7716 9.57506 30.6622 9.31092 30.4675 9.11617C30.2727 8.92142 30.0086 8.81201 29.7332 8.81201H23.265C22.9896 8.81201 22.7255 8.92142 22.5307 9.11617C22.336 9.31092 22.2266 9.57506 22.2266 9.85047C22.2266 10.1259 22.336 10.39 22.5307 10.5848C22.7255 10.7795 22.9896 10.8889 23.265 10.8889H29.7332Z" fill="#DAA7EE"/>
<path d="M10.2455 19.5823H14.2391C14.5145 19.5823 14.7787 19.4729 14.9734 19.2781C15.1682 19.0834 15.2776 18.8192 15.2776 18.5438C15.2776 18.2684 15.1682 18.0043 14.9734 17.8095C14.7787 17.6148 14.5145 17.5054 14.2391 17.5054H10.2455C9.97008 17.5054 9.70594 17.6148 9.51119 17.8095C9.31644 18.0043 9.20703 18.2684 9.20703 18.5438C9.20703 18.8192 9.31644 19.0834 9.51119 19.2781C9.70594 19.4729 9.97008 19.5823 10.2455 19.5823Z" fill="#DAA7EE"/>
<path d="M22.8783 27.2553C22.8783 26.9798 22.7689 26.7157 22.5741 26.521C22.3794 26.3262 22.1152 26.2168 21.8398 26.2168H18.226C17.9505 26.2168 17.6864 26.3262 17.4917 26.521C17.2969 26.7157 17.1875 26.9798 17.1875 27.2553C17.1875 27.5307 17.2969 27.7948 17.4917 27.9896C17.6864 28.1843 17.9505 28.2937 18.226 28.2937H21.8398C22.1152 28.2937 22.3794 28.1843 22.5741 27.9896C22.7689 27.7948 22.8783 27.5307 22.8783 27.2553Z" fill="#DAA7EE"/>
<path d="M10.2455 36.9929H20.2266C20.502 36.9929 20.7661 36.8835 20.9609 36.6888C21.1556 36.494 21.2651 36.2299 21.2651 35.9545C21.2651 35.6791 21.1556 35.4149 20.9609 35.2202C20.7661 35.0254 20.502 34.916 20.2266 34.916H10.2455C9.97008 34.916 9.70594 35.0254 9.51119 35.2202C9.31644 35.4149 9.20703 35.6791 9.20703 35.9545C9.20703 36.2299 9.31644 36.494 9.51119 36.6888C9.70594 36.8835 9.97008 36.9929 10.2455 36.9929Z" fill="#DAA7EE"/>
<path d="M35.6573 10.8889C35.9327 10.8889 36.1969 10.7795 36.3916 10.5848C36.5864 10.39 36.6958 10.1259 36.6958 9.85047C36.6958 9.57506 36.5864 9.31092 36.3916 9.11617C36.1969 8.92142 35.9327 8.81201 35.6573 8.81201H33.6635C33.388 8.81201 33.1239 8.92142 32.9292 9.11617C32.7344 9.31092 32.625 9.57506 32.625 9.85047C32.625 10.1259 32.7344 10.39 32.9292 10.5848C33.1239 10.7795 33.388 10.8889 33.6635 10.8889H35.6573Z" fill="#DAA7EE"/>
<path d="M30.7735 18.556C30.7735 18.2806 30.6641 18.0165 30.4694 17.8217C30.2746 17.627 30.0105 17.5176 29.7351 17.5176H18.4603C18.324 17.5176 18.1889 17.5444 18.0629 17.5966C17.9369 17.6488 17.8225 17.7253 17.726 17.8217C17.6296 17.9182 17.5531 18.0326 17.5009 18.1586C17.4487 18.2846 17.4219 18.4197 17.4219 18.556C17.4219 18.6924 17.4487 18.8274 17.5009 18.9534C17.5531 19.0794 17.6296 19.1939 17.726 19.2903C17.8225 19.3868 17.9369 19.4633 18.0629 19.5155C18.1889 19.5676 18.324 19.5945 18.4603 19.5945H29.7351C30.0105 19.5945 30.2746 19.4851 30.4694 19.2903C30.6641 19.0956 30.7735 18.8315 30.7735 18.556Z" fill="#DAA7EE"/>
<path d="M13.4803 26.2168H11.2728C10.9974 26.2168 10.7333 26.3262 10.5385 26.521C10.3438 26.7157 10.2344 26.9798 10.2344 27.2553C10.2344 27.5307 10.3438 27.7948 10.5385 27.9896C10.7333 28.1843 10.9974 28.2937 11.2728 28.2937H13.51C13.7854 28.2937 14.0495 28.1843 14.2443 27.9896C14.439 27.7948 14.5484 27.5307 14.5484 27.2553C14.5484 26.9798 14.439 26.7157 14.2443 26.521C14.0495 26.3262 13.7854 26.2168 13.51 26.2168H13.4803Z" fill="#DAA7EE"/>
</g>
<defs>
<clipPath id="clip0_1510_3065">
<rect width="54" height="54" fill="white"/>
</clipPath>
</defs>
</svg>
