<svg width="35" height="35" viewBox="0 0 35 35" fill="none" xmlns="http://www.w3.org/2000/svg">
<path fill-rule="evenodd" clip-rule="evenodd" d="M15.4081 20.7569C13.5005 21.4478 11.4143 21.4677 9.49388 20.8133C7.57344 20.1588 5.93352 18.8692 4.84475 17.1572C3.75599 15.4452 3.28344 13.4131 3.50511 11.3964C3.72677 9.37968 4.6294 7.49879 6.06402 6.06415C7.49865 4.6295 9.37953 3.72685 11.3963 3.50516C13.413 3.28347 15.445 3.75598 17.157 4.84473C18.8691 5.93347 20.1587 7.57337 20.8132 9.4938C21.4676 11.4142 21.4478 13.5004 20.7569 15.408C21.1268 15.2642 21.5055 15.1441 21.8907 15.0485V13.8929C21.8907 13.7369 21.9527 13.5873 22.063 13.477C22.1734 13.3667 22.323 13.3047 22.479 13.3047H23.5271C24.0576 6.7514 18.9112 1.17647 12.3703 1.17647C12.2143 1.17647 12.0647 1.1145 11.9544 1.00418C11.844 0.893865 11.7821 0.744245 11.7821 0.588235C11.7821 0.432226 11.844 0.282606 11.9544 0.17229C12.0647 0.0619746 12.2143 0 12.3703 0C19.5657 0 25.2499 6.125 24.7046 13.3047H25.8257C25.9817 13.3047 26.1313 13.3667 26.2416 13.477C26.3519 13.5873 26.4139 13.7369 26.4139 13.8929V15.0485C27.3211 15.2742 28.1896 15.6339 28.9907 16.1157L29.8077 15.2988C29.918 15.1885 30.0677 15.1265 30.2237 15.1265C30.3796 15.1265 30.5293 15.1885 30.6396 15.2988L33.006 17.6652C33.1162 17.7755 33.1782 17.9251 33.1782 18.0811C33.1782 18.2371 33.1162 18.3867 33.006 18.497L32.1891 19.314C32.6708 20.1151 33.0305 20.9836 33.2562 21.8907H34.4118C34.5678 21.8907 34.7174 21.9527 34.8277 22.063C34.938 22.1733 35 22.323 35 22.479V25.8257C35 25.9817 34.938 26.1313 34.8277 26.2416C34.7174 26.3519 34.5678 26.4139 34.4118 26.4139H33.2563C33.0305 27.3211 32.6708 28.1896 32.1891 28.9907L33.006 29.8077C33.1163 29.918 33.1782 30.0676 33.1782 30.2236C33.1782 30.3796 33.1163 30.5293 33.006 30.6396L30.6397 33.006C30.5294 33.1163 30.3798 33.1782 30.2238 33.1782C30.0678 33.1782 29.9182 33.1163 29.8079 33.006L28.9909 32.1891C28.1897 32.6708 27.3212 33.0305 26.4141 33.2563V34.4118C26.4141 34.5678 26.3521 34.7174 26.2418 34.8277C26.1314 34.938 25.9818 35 25.8258 35H22.479C22.323 35 22.1734 34.938 22.063 34.8277C21.9527 34.7174 21.8907 34.5678 21.8907 34.4118V33.2563C20.9836 33.0305 20.1151 32.6708 19.3139 32.1891L18.497 33.006C18.3867 33.1163 18.2371 33.1782 18.0811 33.1782C17.9251 33.1782 17.7755 33.1163 17.6652 33.006L15.2987 30.6397C15.1884 30.5294 15.1264 30.3798 15.1264 30.2238C15.1264 30.0678 15.1884 29.9182 15.2987 29.8079L16.1157 28.9909C15.6339 28.1897 15.2742 27.3212 15.0485 26.414H13.8929C13.7369 26.414 13.5873 26.3521 13.477 26.2418C13.3667 26.1314 13.3047 25.9818 13.3047 25.8258V24.7045C6.12706 25.2525 3.80057e-06 19.5617 3.80057e-06 12.3702C-0.00204717 9.75607 0.826053 7.2088 2.36493 5.09559L1.21103 5.40441C1.1365 5.42433 1.05878 5.42937 0.982302 5.41925C0.905824 5.40913 0.832089 5.38404 0.765306 5.34542C0.698523 5.3068 0.64 5.25541 0.593079 5.19417C0.546158 5.13294 0.511758 5.06306 0.491842 4.98853C0.471927 4.914 0.466886 4.83628 0.477008 4.7598C0.48713 4.68332 0.512216 4.60959 0.550834 4.5428C0.589452 4.47602 0.640846 4.4175 0.702082 4.37058C0.763317 4.32366 0.833195 4.28926 0.907725 4.26934L3.85714 3.47971C3.94799 3.44972 4.04481 3.44242 4.13913 3.45844C4.23346 3.47446 4.32243 3.51332 4.39829 3.57162C4.47416 3.62992 4.5346 3.70589 4.57436 3.79292C4.61412 3.87994 4.63199 3.97537 4.6264 4.07088L4.69993 6.68272C4.70401 6.83802 4.64628 6.98858 4.53942 7.10134C4.43256 7.2141 4.28531 7.27983 4.13002 7.28408C3.97473 7.28834 3.8241 7.23078 3.71122 7.12405C3.59835 7.01732 3.53245 6.87014 3.52802 6.71485L3.49508 5.54669C2.17287 7.26715 1.37907 9.33474 1.2102 11.498C1.04133 13.6613 1.50468 15.827 2.54389 17.7318C3.5831 19.6366 5.15339 21.1984 7.0638 22.2272C8.9742 23.2561 11.1424 23.7077 13.3047 23.5271V22.479C13.3047 22.323 13.3667 22.1733 13.477 22.063C13.5873 21.9527 13.7369 21.8907 13.8929 21.8907H15.0485C15.1442 21.5055 15.2643 21.1268 15.4081 20.7569ZM24.1524 19.5605C23.6434 19.5605 23.1458 19.7115 22.7226 19.9942C22.2994 20.277 21.9695 20.679 21.7747 21.1492C21.5799 21.6195 21.529 22.1369 21.6283 22.6361C21.7276 23.1353 21.9727 23.5939 22.3326 23.9538C22.6925 24.3137 23.1511 24.5588 23.6503 24.6581C24.1495 24.7574 24.667 24.7065 25.1372 24.5117C25.6075 24.3169 26.0094 23.987 26.2922 23.5638C26.575 23.1406 26.7259 22.643 26.7259 22.1341C26.7258 21.4515 26.4546 20.797 25.972 20.3144C25.4894 19.8318 24.8349 19.5606 24.1524 19.5605ZM25.1405 21.1463C24.2627 20.2684 22.7549 20.893 22.7549 22.1344C22.7549 23.3758 24.2623 24.0004 25.1405 23.1226C25.4026 22.8605 25.5498 22.505 25.5498 22.1344C25.5498 21.7638 25.4026 21.4083 25.1405 21.1463ZM25.1513 30.7674C26.4173 30.5763 27.6019 30.0258 28.5645 29.1814C29.527 28.337 30.2269 27.2341 30.5812 26.0037C30.9355 24.7733 30.9292 23.467 30.5631 22.2401C30.197 21.0131 29.4865 19.917 28.5159 19.0819C27.5453 18.2468 26.3555 17.7077 25.0876 17.5288C23.8198 17.3499 22.5272 17.5386 21.3634 18.0725C20.1997 18.6064 19.2135 19.463 18.5222 20.5407C17.8308 21.6185 17.4633 22.872 17.4632 24.1524C17.4632 28.2943 21.1637 31.3724 25.1513 30.7674H25.1513ZM19.5882 27.2445C20.1692 26.6132 20.8748 26.1093 21.6605 25.7646C22.4462 25.4199 23.2948 25.2419 24.1528 25.2419C25.0107 25.2419 25.8594 25.4199 26.645 25.7646C27.4307 26.1093 28.1363 26.6132 28.7173 27.2445C29.2788 26.4155 29.604 25.4492 29.6578 24.4493C29.7117 23.4495 29.4922 22.4539 29.023 21.5693C28.5538 20.6848 27.8525 19.9447 26.9945 19.4286C26.1364 18.9125 25.1541 18.6398 24.1528 18.6398C23.1515 18.6398 22.1691 18.9125 21.3111 19.4286C20.453 19.9447 19.7518 20.6848 19.2826 21.5693C18.8133 22.4539 18.5939 23.4495 18.6477 24.4493C18.7016 25.4492 19.0267 26.4155 19.5882 27.2445ZM25.7794 29.421C26.5921 29.1698 27.3357 28.7338 27.9517 28.1472C27.479 27.6041 26.8953 27.1686 26.2401 26.8702C25.5848 26.5718 24.8731 26.4174 24.1531 26.4174C23.4331 26.4174 22.7214 26.5718 22.0661 26.8702C21.4109 27.1686 20.8272 27.6041 20.3545 28.1472C21.0642 28.8221 21.9408 29.2958 22.8942 29.5197C23.8477 29.7436 24.8435 29.7095 25.7794 29.421ZM19.2081 16.0098C20.0796 14.3718 20.3339 12.4754 19.9248 10.6657C19.5157 8.85604 18.4704 7.25342 16.9791 6.14961C15.4878 5.04579 13.6497 4.51419 11.7995 4.65156C9.94921 4.78893 8.20979 5.58614 6.89786 6.89808C5.58593 8.21001 4.78871 9.94943 4.65134 11.7997C4.51397 13.65 5.04558 15.488 6.14939 16.9793C7.2532 18.4706 8.85582 19.5159 10.6655 19.925C12.4752 20.3341 14.3716 20.0798 16.0096 19.2083L15.2985 18.4972C15.1882 18.3869 15.1262 18.2373 15.1262 18.0813C15.1262 17.9254 15.1882 17.7758 15.2985 17.6654L17.6649 15.299C17.7752 15.1887 17.9249 15.1267 18.0809 15.1267C18.2369 15.1267 18.3865 15.1887 18.4968 15.299L19.2079 16.01L19.2081 16.0098ZM25.2375 14.4812H23.0672V15.5199H23.0662C23.0662 15.6565 23.0185 15.7889 22.9315 15.8941C22.8444 15.9994 22.7234 16.071 22.5892 16.0967C21.5134 16.3028 20.4906 16.7248 19.5824 17.3372C19.4691 17.4214 19.3293 17.4621 19.1886 17.4518C19.0478 17.4414 18.9154 17.3808 18.8156 17.281L18.081 16.5465L16.5464 18.0809L17.281 18.8155C17.3774 18.912 17.4373 19.039 17.4504 19.1747C17.4634 19.3105 17.4289 19.4466 17.3527 19.5596C16.7381 20.464 16.313 21.4835 16.1029 22.5566C16.0841 22.6979 16.0146 22.8276 15.9074 22.9215C15.8001 23.0155 15.6624 23.0672 15.5198 23.0672H14.4812V25.2374H15.5199V25.2385C15.6565 25.2385 15.7889 25.2861 15.8941 25.3731C15.9994 25.4602 16.071 25.5812 16.0967 25.7154C16.3027 26.7912 16.7247 27.814 17.3372 28.7221C17.4214 28.8354 17.4621 28.9752 17.4518 29.116C17.4414 29.2568 17.3809 29.3892 17.281 29.489L16.5464 30.2236L18.0809 31.7583L18.8155 31.0237H18.816C18.9124 30.9273 19.0394 30.8674 19.1752 30.8543C19.3109 30.8413 19.447 30.8758 19.5601 30.9521C20.4644 31.5663 21.4836 31.9912 22.5564 32.2013C22.6977 32.2201 22.8274 32.2896 22.9214 32.3968C23.0153 32.5041 23.0671 32.6418 23.0671 32.7844V33.8235H25.2373V32.7848H25.2383C25.2383 32.6482 25.286 32.5159 25.373 32.4106C25.46 32.3053 25.5811 32.2337 25.7152 32.208C26.791 32.002 27.8139 31.58 28.722 30.9675C28.8353 30.8833 28.9751 30.8426 29.1159 30.853C29.2566 30.8633 29.389 30.9239 29.4888 31.0237L30.2235 31.7583L31.7582 30.2236L31.0235 29.489C30.9271 29.3925 30.8673 29.2655 30.8542 29.1298C30.8411 28.994 30.8757 28.8579 30.9519 28.7449C31.5661 27.8406 31.9911 26.8213 32.2011 25.7485C32.2199 25.6072 32.2894 25.4775 32.3966 25.3835C32.5039 25.2896 32.6416 25.2378 32.7842 25.2378H33.8235V23.0672H32.7847V23.0662C32.6481 23.0662 32.5158 23.0185 32.4105 22.9315C32.3053 22.8444 32.2337 22.7234 32.208 22.5892C32.002 21.5134 31.58 20.4906 30.9675 19.5825C30.8833 19.4692 30.8427 19.3294 30.853 19.1886C30.8633 19.0479 30.9239 18.9155 31.0237 18.8157L31.7583 18.081L30.2236 16.5464L29.489 17.281C29.3925 17.3774 29.2655 17.4372 29.1298 17.4503C28.994 17.4634 28.8579 17.4288 28.7449 17.3526C27.8405 16.7381 26.8211 16.313 25.7482 16.1029C25.6068 16.0842 25.4771 16.0147 25.3832 15.9074C25.2892 15.8001 25.2374 15.6624 25.2374 15.5198V14.4812H25.2375ZM11.4307 12.9585C11.7937 13.5783 12.6587 13.6493 13.154 13.1539L13.1528 13.1528C13.2708 13.0354 13.3606 12.8928 13.4158 12.7357C13.4709 12.5787 13.4898 12.4112 13.4712 12.2458C13.4525 12.0804 13.3967 11.9213 13.3079 11.7805C13.2191 11.6397 13.0997 11.5208 12.9585 11.4326V8.49449C12.9585 8.33848 12.8966 8.18886 12.7862 8.07854C12.6759 7.96823 12.5263 7.90625 12.3703 7.90625C12.2143 7.90625 12.0647 7.96823 11.9544 8.07854C11.844 8.18886 11.7821 8.33848 11.7821 8.49449V11.4187C11.6368 11.509 11.5161 11.6338 11.4307 11.7821H9.58699C9.43098 11.7821 9.28136 11.844 9.17105 11.9544C9.06073 12.0647 8.99876 12.2143 8.99876 12.3703C8.99876 12.5263 9.06073 12.6759 9.17105 12.7862C9.28136 12.8966 9.43098 12.9585 9.58699 12.9585L11.4307 12.9585ZM6.47309 11.782H6.04258C5.88657 11.782 5.73695 11.844 5.62663 11.9543C5.51632 12.0646 5.45434 12.2142 5.45434 12.3702C5.45434 12.5262 5.51632 12.6759 5.62663 12.7862C5.73695 12.8965 5.88657 12.9585 6.04258 12.9585H6.47309C6.6291 12.9585 6.77872 12.8965 6.88904 12.7862C6.99935 12.6759 7.06133 12.5262 7.06133 12.3702C7.06133 12.2142 6.99935 12.0646 6.88904 11.9543C6.77872 11.844 6.6291 11.782 6.47309 11.782ZM11.7819 18.2673V18.6978C11.7819 18.8538 11.8439 19.0034 11.9542 19.1137C12.0645 19.2241 12.2141 19.286 12.3702 19.286C12.5262 19.286 12.6758 19.2241 12.7861 19.1137C12.8964 19.0034 12.9584 18.8538 12.9584 18.6978V18.2673C12.9584 18.1113 12.8964 17.9617 12.7861 17.8513C12.6758 17.741 12.5262 17.679 12.3702 17.679C12.2141 17.679 12.0645 17.741 11.9542 17.8513C11.8439 17.9617 11.7819 18.1113 11.7819 18.2673ZM18.2672 12.9585H18.6977C18.8537 12.9585 19.0034 12.8965 19.1137 12.7862C19.224 12.6759 19.286 12.5262 19.286 12.3702C19.286 12.2142 19.224 12.0646 19.1137 11.9543C19.0034 11.844 18.8537 11.782 18.6977 11.782H18.2672C18.1112 11.782 17.9616 11.844 17.8513 11.9543C17.741 12.0646 17.679 12.2142 17.679 12.3702C17.679 12.5262 17.741 12.6759 17.8513 12.7862C17.9616 12.8965 18.1112 12.9585 18.2672 12.9585ZM12.9584 6.47316V6.04257C12.9584 5.88657 12.8964 5.73695 12.7861 5.62663C12.6758 5.51631 12.5262 5.45434 12.3702 5.45434C12.2141 5.45434 12.0645 5.51631 11.9542 5.62663C11.8439 5.73695 11.7819 5.88657 11.7819 6.04257V6.47316C11.7819 6.62917 11.8439 6.77879 11.9542 6.88911C12.0645 6.99942 12.2141 7.0614 12.3702 7.0614C12.5262 7.0614 12.6758 6.99942 12.7861 6.88911C12.8964 6.77879 12.9584 6.62917 12.9584 6.47316Z" fill="#DAA7EE"/>
</svg>
