<svg width="45" height="45" viewBox="0 0 45 45" fill="none" xmlns="http://www.w3.org/2000/svg">
<path fill-rule="evenodd" clip-rule="evenodd" d="M30.0387 43.3135H3.00665C1.34875 43.3135 0 41.9643 0 40.3064V3.00705C0 1.34915 1.34884 0 3.00665 0H30.0389C31.6971 0 33.0464 1.34916 33.0464 3.00705V19.6009C33.0464 19.8301 32.898 20.0334 32.6795 20.1033C32.4619 20.1729 32.2228 20.0942 32.0895 19.907C31.8112 19.5167 31.4993 19.1478 31.1619 18.8104C29.5402 17.1888 27.3846 16.296 25.0914 16.296C22.7976 16.296 20.642 17.1889 19.02 18.8104C17.3983 20.4322 16.5055 22.5884 16.5055 24.8818C16.5055 27.1753 17.3984 29.3311 19.02 30.9523C20.6412 32.574 22.7972 33.4668 25.0902 33.4668C26.1644 33.4668 27.2139 33.2702 28.2106 32.8823C28.4055 32.8064 28.627 32.8534 28.7749 33.0007L30.127 34.3532L31.1256 33.3537C31.2293 33.2498 31.3706 33.19 31.5186 33.2C31.665 33.2055 31.8032 33.2718 31.8987 33.3835L32.9193 34.573C33.0014 34.6686 33.0468 34.7906 33.0468 34.9166V40.3066C33.046 41.9647 31.6971 43.3135 30.0387 43.3135ZM3.00665 1.05469C1.93031 1.05469 1.05434 1.93067 1.05434 3.007V40.3064C1.05434 41.3827 1.9299 42.2583 3.00665 42.2583H30.0389C31.1153 42.2583 31.9913 41.3827 31.9913 40.3064V35.1115L31.4683 34.502L30.4993 35.4715C30.3013 35.6688 29.9514 35.6688 29.7532 35.4715L28.2664 33.9847C27.2457 34.3407 26.1785 34.5209 25.0893 34.5209C22.5147 34.5209 20.094 33.5181 18.2734 31.6976C16.4525 29.8767 15.4498 27.456 15.4498 24.881C15.4498 22.306 16.4525 19.885 18.2734 18.064C20.0942 16.2431 22.5151 15.2404 25.0904 15.2404C27.6654 15.2404 30.0864 16.2431 31.9071 18.064C31.9349 18.0922 31.9631 18.1203 31.9909 18.149V3.00689C31.9909 1.93055 31.1149 1.05458 30.0385 1.05458L3.00665 1.05469Z" fill="#DAA7EE"/>
<path fill-rule="evenodd" clip-rule="evenodd" d="M28.2196 9.46833H4.83019C4.13547 9.46833 3.57031 8.90317 3.57031 8.20845V5.24718C3.57031 4.55246 4.13547 3.9873 4.83019 3.9873L28.22 3.98741C28.9144 3.98741 29.4795 4.55257 29.4795 5.24729V8.20855C29.4795 8.90327 28.9144 9.46833 28.2196 9.46833ZM4.83019 5.04215C4.7189 5.04215 4.62505 5.1359 4.62505 5.24729V8.20856C4.62505 8.31984 4.71869 8.41369 4.83019 8.41369L28.22 8.41359C28.3311 8.41359 28.4248 8.31985 28.4248 8.20845V5.24718C28.4248 5.1359 28.3311 5.04205 28.22 5.04205L4.83019 5.04215Z" fill="#DAA7EE"/>
<path fill-rule="evenodd" clip-rule="evenodd" d="M19.6133 14.9473H11.3125C11.0214 14.9473 10.7852 14.711 10.7852 14.4199C10.7852 14.1289 11.0214 13.8926 11.3125 13.8926H19.6133C19.9044 13.8926 20.1407 14.1289 20.1407 14.4199C20.1407 14.711 19.9046 14.9473 19.6133 14.9473Z" fill="#DAA7EE"/>
<path fill-rule="evenodd" clip-rule="evenodd" d="M20.78 17.3751H11.3086C11.0175 17.3751 10.7812 17.1388 10.7812 16.8477C10.7812 16.5566 11.0175 16.3203 11.3086 16.3203H20.7796C21.0707 16.3203 21.307 16.5566 21.307 16.8477C21.307 17.1388 21.0711 17.3751 20.78 17.3751Z" fill="#DAA7EE"/>
<path fill-rule="evenodd" clip-rule="evenodd" d="M17.9035 19.8033H15.6881C15.3971 19.8033 15.1608 19.567 15.1608 19.2759C15.1608 18.9848 15.3971 18.7485 15.6881 18.7485H17.9035C18.1946 18.7485 18.4309 18.9848 18.4309 19.2759C18.4309 19.567 18.1946 19.8033 17.9035 19.8033ZM13.3058 19.8033H11.3125C11.0214 19.8033 10.7852 19.567 10.7852 19.2759C10.7852 18.9848 11.0214 18.7485 11.3125 18.7485H13.3058C13.5969 18.7485 13.8332 18.9848 13.8332 19.2759C13.8332 19.567 13.5969 19.8033 13.3058 19.8033Z" fill="#DAA7EE"/>
<path fill-rule="evenodd" clip-rule="evenodd" d="M16.547 22.231H11.3125C11.0214 22.231 10.7852 21.9947 10.7852 21.7036C10.7852 21.4125 11.0214 21.1763 11.3125 21.1763H16.5466C16.8377 21.1763 17.074 21.4125 17.074 21.7036C17.074 21.9947 16.8381 22.231 16.547 22.231Z" fill="#DAA7EE"/>
<path fill-rule="evenodd" clip-rule="evenodd" d="M17.5632 30.5494H11.3125C11.0214 30.5494 10.7852 30.3128 10.7852 30.022C10.7852 29.7312 11.0214 29.4946 11.3125 29.4946H17.5635C17.8546 29.4946 18.0909 29.7312 18.0909 30.022C18.0909 30.3128 17.8547 30.5494 17.5632 30.5494Z" fill="#DAA7EE"/>
<path fill-rule="evenodd" clip-rule="evenodd" d="M20.0088 32.9776H11.3086C11.0175 32.9776 10.7812 32.741 10.7812 32.4502C10.7812 32.1594 11.0175 31.9229 11.3086 31.9229H20.0084C20.2995 31.9229 20.5357 32.1594 20.5357 32.4502C20.5357 32.741 20.2999 32.9776 20.0088 32.9776Z" fill="#DAA7EE"/>
<path fill-rule="evenodd" clip-rule="evenodd" d="M18.1433 35.4051H11.3125C11.0214 35.4051 10.7852 35.1685 10.7852 34.8778C10.7852 34.587 11.0214 34.3504 11.3125 34.3504H18.1436C18.4347 34.3504 18.671 34.587 18.671 34.8778C18.671 35.1685 18.4348 35.4051 18.1433 35.4051ZM25.0895 34.5215C22.5146 34.5215 20.0936 33.5188 18.2725 31.698C16.4516 29.8771 15.4489 27.4564 15.4489 24.8814C15.4489 22.3064 16.4516 19.8853 18.2725 18.0643C20.0929 16.2435 22.5146 15.2407 25.0895 15.2407C27.6645 15.2407 30.0855 16.2435 31.9062 18.0643C35.6647 21.8233 35.6647 27.939 31.9062 31.6977C30.0857 33.5188 27.6649 34.5215 25.0895 34.5215ZM19.0186 18.8099C17.3969 20.4317 16.5041 22.5879 16.5041 24.8814C16.5041 27.1748 17.397 29.3306 19.0186 30.9519C20.6403 32.5738 22.7966 33.4667 25.0899 33.4667C27.3833 33.4667 29.5392 32.5738 31.1605 30.9519C34.5082 27.6045 34.5082 22.1577 31.1605 18.8099C29.5388 17.1883 27.3832 16.2955 25.0899 16.2955C22.7962 16.2955 20.6403 17.1887 19.0186 18.8099Z" fill="#DAA7EE"/>
<path fill-rule="evenodd" clip-rule="evenodd" d="M28.9493 37.8326H26.9563C26.6653 37.8326 26.429 37.596 26.429 37.3052C26.429 37.0143 26.6656 36.7778 26.9563 36.7778H28.9493C29.2403 36.7778 29.4766 37.0143 29.4766 37.3052C29.4766 37.596 29.2404 37.8326 28.9493 37.8326ZM24.5736 37.8326H11.3125C11.0214 37.8326 10.7852 37.596 10.7852 37.3052C10.7852 37.0143 11.0214 36.7778 11.3125 36.7778H24.5736C24.8647 36.7778 25.101 37.0143 25.101 37.3052C25.101 37.596 24.8647 37.8326 24.5736 37.8326Z" fill="#DAA7EE"/>
<path fill-rule="evenodd" clip-rule="evenodd" d="M10.8653 24.6337H8.34768C8.05659 24.6337 7.82031 24.3972 7.82031 24.1063V12.0181C7.82031 11.727 8.05659 11.4907 8.34768 11.4907H10.8653C11.1564 11.4907 11.3926 11.727 11.3926 12.0181C11.3926 12.3092 11.1564 12.5455 10.8653 12.5455H8.87506V23.5787H10.8653C11.1564 23.5787 11.3926 23.8153 11.3926 24.1061C11.3926 24.3969 11.1564 24.6337 10.8653 24.6337Z" fill="#DAA7EE"/>
<path fill-rule="evenodd" clip-rule="evenodd" d="M10.8653 40.2354H8.34768C8.05659 40.2354 7.82031 39.9988 7.82031 39.708V27.6197C7.82031 27.3286 8.05659 27.0923 8.34768 27.0923H10.8653C11.1564 27.0923 11.3926 27.3289 11.3926 27.6197C11.3926 27.9104 11.1564 28.147 10.8653 28.147H8.87506V39.1803H10.8653C11.1564 39.1803 11.3926 39.4169 11.3926 39.7077C11.3926 39.9985 11.1564 40.2354 10.8653 40.2354Z" fill="#DAA7EE"/>
<path fill-rule="evenodd" clip-rule="evenodd" d="M3.50005 37.925C3.36499 37.925 3.23014 37.8735 3.12736 37.7705C2.92109 37.5643 2.92109 37.2302 3.12736 37.0245L4.99465 35.1567C5.20052 34.9504 5.53448 34.9504 5.74034 35.1567C5.94621 35.3628 5.94662 35.6969 5.74034 35.9027L3.87295 37.7705C3.77028 37.8738 3.63522 37.925 3.50005 37.925Z" fill="#DAA7EE"/>
<path fill-rule="evenodd" clip-rule="evenodd" d="M5.36745 37.9254C5.23239 37.9254 5.09753 37.8738 4.99465 37.7708L3.12736 35.903C2.92109 35.6968 2.92109 35.3628 3.12736 35.157C3.33354 34.9511 3.66761 34.9507 3.87295 35.157L5.74034 37.0248C5.94662 37.231 5.94662 37.565 5.74034 37.7708C5.63736 37.8741 5.50251 37.9254 5.36745 37.9254Z" fill="#DAA7EE"/>
<path fill-rule="evenodd" clip-rule="evenodd" d="M3.50005 27.7181C3.36499 27.7181 3.23014 27.6665 3.12736 27.5635C2.92109 27.3573 2.92109 27.0233 3.12736 26.8174L4.99465 24.95C5.20093 24.7439 5.5349 24.7439 5.74034 24.95C5.94662 25.1563 5.94662 25.4903 5.74034 25.6961L3.87295 27.5635C3.76997 27.6667 3.63522 27.7181 3.50005 27.7181Z" fill="#DAA7EE"/>
<path fill-rule="evenodd" clip-rule="evenodd" d="M5.36745 27.7181C5.23239 27.7181 5.09753 27.6665 4.99465 27.5635L3.12736 25.6961C2.92109 25.4899 2.92109 25.1559 3.12736 24.95C3.33312 24.7439 3.66719 24.7439 3.87295 24.95L5.74034 26.8174C5.94662 27.0237 5.94662 27.3577 5.74034 27.5635C5.63736 27.6667 5.50251 27.7181 5.36745 27.7181Z" fill="#DAA7EE"/>
<path fill-rule="evenodd" clip-rule="evenodd" d="M3.50005 16.7222C3.36499 16.7222 3.23014 16.6705 3.12736 16.5675C2.92109 16.3617 2.92109 16.0277 3.12736 15.8219L4.99465 13.9545C5.20093 13.7482 5.53448 13.7482 5.74034 13.9545C5.94662 14.1603 5.94662 14.4943 5.74034 14.7001L3.87295 16.5675C3.76997 16.6709 3.63522 16.7222 3.50005 16.7222Z" fill="#DAA7EE"/>
<path fill-rule="evenodd" clip-rule="evenodd" d="M5.36745 16.7222C5.23239 16.7222 5.09753 16.6705 4.99465 16.5675L3.12736 14.7001C2.92109 14.4943 2.92109 14.1603 3.12736 13.9545C3.33354 13.7482 3.66719 13.7482 3.87295 13.9545L5.74034 15.8219C5.94662 16.0277 5.94662 16.3617 5.74034 16.5675C5.63736 16.6709 5.50251 16.7222 5.36745 16.7222Z" fill="#DAA7EE"/>
<path fill-rule="evenodd" clip-rule="evenodd" d="M41.2913 44.792C40.2981 44.792 39.4316 44.3911 38.8508 43.6636L33.7474 37.2694C33.5797 37.0596 33.5965 36.7574 33.7861 36.5673L36.7749 33.5785C36.9654 33.3884 37.2676 33.372 37.477 33.5398L43.8713 38.6434C44.5444 39.1806 44.9431 39.9779 44.9937 40.8877C45.0511 41.9208 44.6484 42.9748 43.9152 43.7081C43.2268 44.3966 42.2703 44.792 41.2913 44.792ZM34.8662 36.9796L39.6755 43.0056C40.052 43.4773 40.6263 43.737 41.2916 43.737C41.9823 43.737 42.6848 43.4473 43.1699 42.9618C43.6944 42.4377 43.983 41.6842 43.9413 40.9464C43.9076 40.3403 43.649 39.8147 43.2138 39.4671L37.1879 34.6578L34.8662 36.9796ZM32.904 35.8945C32.9111 35.8948 32.8971 35.8945 32.904 35.8945C32.7571 35.8889 32.5992 35.8221 32.5037 35.7104L31.0959 34.07C30.9165 33.8608 30.9282 33.5485 31.123 33.3537L33.5614 30.9153C33.7566 30.7209 34.0685 30.7089 34.2777 30.8883L35.918 32.2963C36.0298 32.392 36.0961 32.53 36.1016 32.6764C36.1074 32.8228 36.0514 32.9654 35.9478 33.0694L33.2765 35.7403C33.1779 35.8392 33.0436 35.8945 32.904 35.8945ZM32.2147 33.7544L32.9336 34.5919L34.7999 32.7256L33.9619 32.0067L32.2147 33.7544Z" fill="#DAA7EE"/>
<path fill-rule="evenodd" clip-rule="evenodd" d="M30.1239 35.6259C29.984 35.6259 29.85 35.5703 29.7507 35.4713L28.0254 33.746C27.8994 33.6195 27.846 33.4387 27.8822 33.2647C27.9188 33.09 28.041 32.946 28.207 32.8815C29.3174 32.4494 30.3107 31.8001 31.1592 30.9514C32.0076 30.103 32.657 29.1097 33.0893 27.9993C33.1537 27.8333 33.2975 27.7111 33.4723 27.6745C33.6475 27.6389 33.8276 27.6916 33.9536 27.8177L35.679 29.5431C35.8853 29.7493 35.8853 30.0834 35.679 30.2891L30.4972 35.4708C30.3979 35.5703 30.2638 35.6259 30.1239 35.6259ZM29.3178 33.5465L30.1238 34.3525L34.5598 29.9164L33.7538 29.1104C33.2879 30.0665 32.6684 30.9342 31.9052 31.6974C31.142 32.4606 30.2743 33.0808 29.3178 33.5465Z" fill="#DAA7EE"/>
<path fill-rule="evenodd" clip-rule="evenodd" d="M25.091 31.7578C23.254 31.7578 21.5276 31.0427 20.229 29.7441C18.9304 28.445 18.2148 26.7182 18.2148 24.8816C18.2148 23.045 18.93 21.3182 20.229 20.0196C21.5276 18.7205 23.2545 18.0054 25.091 18.0054C26.9277 18.0054 28.6544 18.7205 29.9531 20.0196C31.2517 21.3182 31.9669 23.0447 31.9669 24.8816C31.9669 26.7185 31.2517 28.4449 29.9531 29.7441C28.6548 31.0423 26.9281 31.7578 25.091 31.7578ZM25.091 19.0601C23.5361 19.0601 22.0741 19.6656 20.9747 20.7653C19.8752 21.8647 19.2696 23.3267 19.2696 24.8816C19.2696 26.4366 19.8752 27.8985 20.9747 28.998C22.0741 30.0975 23.5361 30.7027 25.091 30.7027C26.646 30.7027 28.1077 30.0972 29.2071 28.998C30.3069 27.8985 30.9123 26.4366 30.9123 24.8816C30.9123 23.3266 30.3069 21.8649 29.2071 20.7655C28.1081 19.6656 26.6461 19.0601 25.091 19.0601Z" fill="#DAA7EE"/>
<path fill-rule="evenodd" clip-rule="evenodd" d="M33.2962 37.9178C32.8874 37.9178 32.5036 37.7588 32.2158 37.4714C31.6208 36.8755 31.6208 35.9068 32.2158 35.3113L35.52 32.0069C35.8079 31.7195 36.1916 31.5605 36.6004 31.5605C37.0087 31.5605 37.3925 31.7195 37.6803 32.0069C38.2758 32.6028 38.2758 33.5715 37.6803 34.1674L34.3763 37.4715C34.0882 37.7588 33.7045 37.9178 33.2962 37.9178ZM36.6002 32.6152C36.4727 32.6152 36.3541 32.6639 36.2658 32.7524L32.9616 36.0566C32.7773 36.2409 32.7773 36.5408 32.9616 36.7253C33.1378 36.9018 33.4532 36.9022 33.6301 36.7249L36.9341 33.4208C37.1188 33.2365 37.1188 32.9366 36.9341 32.7523C36.846 32.6639 36.7272 32.6152 36.6002 32.6152Z" fill="#DAA7EE"/>
<path fill-rule="evenodd" clip-rule="evenodd" d="M24.7431 26.6126C24.5974 26.6126 24.4574 26.5519 24.3575 26.4449L22.931 24.9159C22.732 24.7028 22.7438 24.3692 22.9566 24.1707C23.169 23.973 23.5033 23.9831 23.7018 24.1963L24.7287 25.2969L27.5988 21.991C27.7895 21.7711 28.1225 21.747 28.3426 21.9382C28.5627 22.1289 28.5858 22.4623 28.3949 22.6824L25.1406 26.4306C25.0425 26.5435 24.8929 26.6099 24.7431 26.6126C24.7464 26.6126 24.7408 26.613 24.7431 26.6126Z" fill="#DAA7EE"/>
</svg>
