<svg width="51" height="51" viewBox="0 0 51 51" fill="none" xmlns="http://www.w3.org/2000/svg">
<path d="M31.0334 9.16868C28.1134 6.24788 24.2315 4.63965 20.101 4.63965C15.9712 4.63965 12.0885 6.24788 9.16928 9.16868C5.00365 13.3351 3.72137 19.3058 5.31366 24.5872C5.32163 24.6318 5.34235 24.6716 5.35829 24.7147C6.07714 27.0274 7.34189 29.2054 9.17008 31.0336C12.0893 33.9536 15.972 35.5619 20.1018 35.5619C24.2323 35.5619 28.1142 33.9536 31.0342 31.0336C33.955 28.1136 35.5633 24.2309 35.5633 20.102C35.5625 15.9714 33.9542 12.0887 31.0334 9.16868ZM10.2627 10.2613C12.8902 7.63297 16.3848 6.18572 20.1018 6.18572C23.8195 6.18572 27.3133 7.63297 29.9416 10.2613C29.9767 10.2964 30.0062 10.3354 30.0404 10.3705L26.616 11.4495C26.2 10.9076 25.5529 10.553 24.8181 10.553C23.5653 10.553 22.5452 11.5723 22.5452 12.8259C22.5452 13.5423 22.8847 14.1743 23.4035 14.5911L20.8294 21.5946C20.6939 21.5691 20.5544 21.5524 20.4118 21.5524C20.0412 21.5524 19.6969 21.6504 19.3877 21.8074L14.2641 17.5374C14.2665 17.4967 14.2769 17.4577 14.2769 17.417C14.2769 16.1643 13.2576 15.1442 12.0032 15.1442C10.7488 15.1442 9.72953 16.1635 9.72953 17.417C9.72953 17.48 9.74387 17.539 9.74786 17.6003L6.41663 22.5549C5.64838 18.2259 6.92349 13.5997 10.2627 10.2613ZM24.8181 13.5527C24.4172 13.5527 24.0913 13.2259 24.0913 12.8251C24.0913 12.4242 24.4172 12.0974 24.8181 12.0974C25.2197 12.0974 25.5457 12.4234 25.5457 12.8251C25.5457 13.2267 25.2189 13.5527 24.8181 13.5527ZM20.411 23.0969C20.5297 23.0969 20.6365 23.1319 20.7353 23.1821C20.7648 23.21 20.8031 23.2268 20.8365 23.2507C21.0158 23.3838 21.1386 23.5854 21.1386 23.8245C21.1386 24.2253 20.8126 24.5513 20.411 24.5513C20.0093 24.5513 19.6834 24.2253 19.6834 23.8253C19.6834 23.4236 20.0093 23.0969 20.411 23.0969ZM11.2756 17.4163C11.2756 17.0154 11.6016 16.6894 12.0032 16.6894C12.4049 16.6894 12.7308 17.0154 12.7308 17.4163C12.7308 17.8171 12.4049 18.1439 12.0032 18.1439C11.6016 18.1439 11.2756 17.8179 11.2756 17.4163ZM29.9408 29.9402C27.3125 32.5685 23.8187 34.0158 20.101 34.0158C16.384 34.0158 12.8894 32.5685 10.2619 29.9402C8.69669 28.375 7.5977 26.5229 6.93624 24.5553L10.5623 19.16C10.9552 19.4859 11.4533 19.6899 12.0032 19.6899C12.6352 19.6899 13.2066 19.4301 13.6186 19.0125L18.3214 22.9319C18.2042 23.206 18.1381 23.5081 18.1381 23.8253C18.1381 25.0781 19.1574 26.0982 20.411 26.0982C21.6646 26.0982 22.6846 25.0789 22.6846 23.8253C22.6846 23.2873 22.4894 22.7996 22.1754 22.4099L24.8651 15.094C26.0629 15.0693 27.0296 14.1145 27.0806 12.9239L31.137 11.6464C32.9971 14.0635 34.0164 17.001 34.0164 20.1012C34.0172 23.8173 32.5691 27.3119 29.9408 29.9402Z" fill="#DAA7EE"/>
<path d="M48.5259 40.9167L37.1583 30.7286C41.1494 24.3219 41.1964 16.1437 37.2978 9.69721L43.6566 7.6929L43.1697 8.55121C42.9593 8.92258 43.09 9.39437 43.4613 9.60477C43.5809 9.67251 43.7124 9.70518 43.8423 9.70518C44.1116 9.70518 44.3722 9.56412 44.5149 9.31309L45.9749 6.73975C45.9845 6.72302 45.9845 6.7031 45.9916 6.68556C46.0108 6.64492 46.0203 6.60268 46.0323 6.55965C46.0482 6.50227 46.0634 6.44648 46.065 6.38751C46.0665 6.35324 46.0586 6.32136 46.0546 6.28789C46.0498 6.2337 46.0554 6.1795 46.0379 6.1269C46.0331 6.11017 46.0203 6.09901 46.0139 6.08307C46.0076 6.06793 45.9972 6.05598 45.99 6.04083C45.9526 5.95875 45.9072 5.88384 45.8426 5.82088C45.8418 5.82008 45.8418 5.81928 45.841 5.81849C45.8131 5.7898 45.7796 5.77226 45.7486 5.74915C45.7087 5.72046 45.6776 5.68301 45.633 5.66149L42.9601 4.39355C42.5735 4.21025 42.1129 4.37522 41.9304 4.76015C41.7479 5.14587 41.9121 5.6065 42.2978 5.7898L43.1991 6.21776L36.4116 8.35675C35.7884 7.49287 35.0918 6.66564 34.3148 5.88862C30.5174 2.09118 25.4703 0 20.1013 0C14.7307 0 9.68367 2.09118 5.88702 5.88782C2.09038 9.68446 0 14.7323 0 20.1013C0 23.2724 0.734782 26.3286 2.1135 29.0837L0.407238 31.3263C0.149028 31.6658 0.214378 32.1511 0.554673 32.4093C0.694138 32.5161 0.858309 32.5671 1.02168 32.5671C1.25439 32.5671 1.4855 32.4619 1.63692 32.2619L2.93036 30.562C3.7544 31.9088 4.74102 33.1696 5.88623 34.314C9.8056 38.2326 14.9531 40.1915 20.1005 40.1915C23.7959 40.1915 27.489 39.1762 30.7294 37.1567L40.9231 48.5235C42.3058 50.0736 43.9929 50.9534 45.6721 51.0004C45.7199 51.0036 45.7669 51.0044 45.8131 51.0044C47.1512 51.0044 48.3976 50.4633 49.4265 49.4336C50.4944 48.3665 51.0371 47.0627 50.998 45.6665C50.9502 43.9825 50.0712 42.2954 48.5259 40.9167ZM6.98043 33.2222C5.6591 31.9009 4.5625 30.4162 3.70818 28.8127C3.69941 28.796 3.69304 28.7792 3.68347 28.7625C2.28803 26.1246 1.54607 23.1703 1.54607 20.1021C1.54607 15.1459 3.47547 10.4862 6.98043 6.98123C10.4846 3.47707 15.1451 1.54687 20.1013 1.54687C25.0575 1.54687 29.7172 3.47707 33.2222 6.98123C40.4561 14.2159 40.4561 25.9875 33.2222 33.223C25.9852 40.4561 14.2143 40.4561 6.98043 33.2222ZM48.3339 48.341C47.5664 49.1085 46.7009 49.4918 45.7159 49.4567C44.4846 49.4217 43.1577 48.7068 42.0747 47.4939L32.0236 36.2857C32.8237 35.6951 33.5904 35.0392 34.3148 34.314C35.0392 33.5888 35.6959 32.8221 36.2872 32.0212L47.4963 42.0683C48.7052 43.1465 49.4185 44.4743 49.4528 45.7103C49.4807 46.6858 49.1037 47.5704 48.3339 48.341Z" fill="#DAA7EE"/>
</svg>
