<svg width="39" height="31" viewBox="0 0 39 31" fill="none" xmlns="http://www.w3.org/2000/svg">
<path d="M38.12 0H0.646102C0.474745 0 0.310407 0.0680714 0.189239 0.189239C0.0680713 0.310407 0 0.474745 0 0.646102V23.3637C0 23.5351 0.0680713 23.6994 0.189239 23.8206C0.310407 23.9417 0.474745 24.0098 0.646102 24.0098H16.504V25.8002C15.5359 25.968 14.6585 26.4735 14.0276 27.2268C13.3967 27.9801 13.0531 28.9326 13.0577 29.9152V30.3539C13.0577 30.5253 13.1258 30.6896 13.247 30.8108C13.3681 30.9319 13.5325 31 13.7038 31H25.0623C25.2337 31 25.398 30.9319 25.5192 30.8108C25.6403 30.6896 25.7084 30.5253 25.7084 30.3539V29.9152C25.7131 28.9326 25.3695 27.9801 24.7386 27.2268C24.1077 26.4735 23.2303 25.968 22.2621 25.8002V24.0098H38.12C38.2914 24.0098 38.4557 23.9417 38.5769 23.8206C38.6981 23.6994 38.7661 23.5351 38.7661 23.3637V0.646102C38.7661 0.474745 38.6981 0.310407 38.5769 0.189239C38.4557 0.0680714 38.2914 0 38.12 0ZM21.5986 27.0284C22.3171 27.0432 23.004 27.3264 23.5242 27.8223C24.0443 28.3182 24.36 28.9908 24.4091 29.7078H14.357C14.4061 28.9908 14.7218 28.3182 15.242 27.8223C15.7621 27.3264 16.4491 27.0432 17.1676 27.0284C17.3359 27.0239 17.4958 26.9538 17.6132 26.8331C17.7306 26.7124 17.7963 26.5507 17.7962 26.3823V24.0098H20.9699V26.3829C20.97 26.5512 21.0358 26.7128 21.1532 26.8333C21.2706 26.9539 21.4304 27.0239 21.5986 27.0284ZM37.4739 22.7176H1.2922V1.2922H37.4739V22.7176Z" fill="#DAA7EE"/>
<path d="M8.54565 15.7152C8.01552 15.3382 7.36583 15.1681 6.71899 15.237C6.07214 15.3059 5.47282 15.6089 5.03393 16.089C4.59505 16.5692 4.34692 17.1933 4.33629 17.8437C4.32567 18.4941 4.55328 19.1259 4.97624 19.6201C5.39921 20.1144 5.98832 20.4368 6.63257 20.5268C7.27681 20.6167 7.93172 20.468 8.47388 20.1085C9.01603 19.749 9.40801 19.2037 9.57594 18.5752C9.74387 17.9468 9.67617 17.2786 9.38558 16.6966L15.2515 11.6267C15.7194 12.0472 16.3263 12.2798 16.9553 12.2798C17.5844 12.2798 18.1912 12.0472 18.6591 11.6267L21.648 14.4379C21.5532 14.7037 21.5032 14.9834 21.5 15.2655C21.4946 15.6096 21.5577 15.9513 21.6856 16.2707C21.8135 16.5902 22.0037 16.881 22.2451 17.1262C22.4865 17.3715 22.7742 17.5662 23.0916 17.6992C23.409 17.8321 23.7497 17.9006 24.0938 17.9006C24.4379 17.9006 24.7786 17.8321 25.096 17.6992C25.4133 17.5662 25.7011 17.3715 25.9425 17.1262C26.1839 16.881 26.3741 16.5902 26.502 16.2707C26.6299 15.9513 26.693 15.6096 26.6876 15.2655C26.685 14.8346 26.5739 14.4113 26.3645 14.0347L30.5965 8.9615C30.9409 9.12902 31.3184 9.21733 31.7013 9.21994C32.2144 9.21994 32.7159 9.0678 33.1425 8.78276C33.5691 8.49771 33.9016 8.09257 34.098 7.61856C34.2943 7.14455 34.3457 6.62296 34.2456 6.11976C34.1455 5.61655 33.8984 5.15433 33.5356 4.79153C33.1728 4.42874 32.7106 4.18168 32.2074 4.08158C31.7042 3.98149 31.1826 4.03286 30.7086 4.2292C30.2346 4.42555 29.8294 4.75804 29.5444 5.18464C29.2594 5.61123 29.1072 6.11278 29.1072 6.62584C29.1081 7.16957 29.2816 7.69896 29.6028 8.13772L25.4787 13.0817C25.0047 12.7757 24.4426 12.6355 23.8804 12.683C23.3182 12.7305 22.7876 12.9629 22.3716 13.344L19.3918 10.5399C19.4914 10.2658 19.5434 9.97675 19.5455 9.68514C19.55 9.30463 19.4708 8.92779 19.3134 8.58134C19.1559 8.23489 18.9242 7.92732 18.6346 7.68043C18.3451 7.43355 18.0047 7.25339 17.6377 7.15275C17.2707 7.0521 16.8861 7.03343 16.5111 7.09805C16.1361 7.16267 15.7799 7.30901 15.4678 7.52668C15.1556 7.74435 14.8952 8.02803 14.705 8.3576C14.5147 8.68717 14.3993 9.05455 14.3669 9.43371C14.3346 9.81286 14.386 10.1945 14.5176 10.5516L8.54565 15.7152ZM7.07383 19.148C6.81649 19.1478 6.56497 19.0714 6.35107 18.9283C6.13716 18.7853 5.97048 18.582 5.87209 18.3442C5.7737 18.1064 5.74802 17.8448 5.79831 17.5924C5.84859 17.3401 5.97257 17.1083 6.15458 16.9264C6.33659 16.7444 6.56845 16.6206 6.82085 16.5704C7.07325 16.5203 7.33486 16.5461 7.57259 16.6446C7.81033 16.7431 8.01352 16.9099 8.15647 17.1238C8.29942 17.3378 8.37573 17.5894 8.37573 17.8467C8.37538 18.1918 8.23809 18.5227 7.99399 18.7667C7.74989 19.0107 7.41895 19.1478 7.07383 19.148ZM31.6994 5.32136C31.9569 5.32136 32.2086 5.39773 32.4227 5.54081C32.6369 5.6839 32.8037 5.88726 32.9022 6.12519C33.0008 6.36312 33.0265 6.62492 32.9762 6.87748C32.9259 7.13004 32.8019 7.36202 32.6197 7.54406C32.4376 7.72611 32.2056 7.85005 31.953 7.90022C31.7004 7.95038 31.4386 7.9245 31.2007 7.82587C30.9628 7.72723 30.7596 7.56026 30.6166 7.34608C30.4736 7.1319 30.3974 6.88013 30.3975 6.62261C30.3982 6.27771 30.5356 5.94717 30.7797 5.70347C31.0237 5.45977 31.3545 5.32282 31.6994 5.32265V5.32136ZM24.0935 13.9643C24.351 13.9641 24.6028 14.0404 24.817 14.1834C25.0312 14.3264 25.1982 14.5297 25.2968 14.7677C25.3954 15.0056 25.4212 15.2674 25.371 15.52C25.3208 15.7726 25.1968 16.0046 25.0147 16.1867C24.8326 16.3689 24.6005 16.4929 24.3479 16.5431C24.0953 16.5933 23.8335 16.5675 23.5956 16.4688C23.3577 16.3702 23.1544 16.2033 23.0114 15.9891C22.8683 15.7749 22.7921 15.5231 22.7922 15.2655C22.7927 14.9206 22.93 14.5899 23.1739 14.346C23.4178 14.102 23.7485 13.9648 24.0935 13.9643ZM16.9514 8.38324C17.209 8.38311 17.4607 8.45936 17.6749 8.60233C17.8891 8.74531 18.0561 8.94859 18.1547 9.18647C18.2533 9.42435 18.2792 9.68614 18.229 9.93873C18.1789 10.1913 18.0549 10.4233 17.8729 10.6055C17.6909 10.7876 17.4589 10.9117 17.2063 10.962C16.9538 11.0123 16.692 10.9865 16.454 10.888C16.2161 10.7895 16.0127 10.6226 15.8696 10.4085C15.7266 10.1944 15.6502 9.94265 15.6502 9.68514C15.6505 9.34007 15.7877 9.00922 16.0317 8.76516C16.2756 8.5211 16.6064 8.38375 16.9514 8.38324Z" fill="#DAA7EE"/>
<path d="M3.98204 4.46457H6.67047C6.84183 4.46457 7.00617 4.3965 7.12734 4.27533C7.2485 4.15416 7.31657 3.98982 7.31657 3.81847C7.31657 3.64711 7.2485 3.48277 7.12734 3.3616C7.00617 3.24043 6.84183 3.17236 6.67047 3.17236H3.98204C3.81068 3.17236 3.64634 3.24043 3.52518 3.3616C3.40401 3.48277 3.33594 3.64711 3.33594 3.81847C3.33594 3.98982 3.40401 4.15416 3.52518 4.27533C3.64634 4.3965 3.81068 4.46457 3.98204 4.46457Z" fill="#DAA7EE"/>
<path d="M3.98204 6.87131H11.7043C11.8756 6.87131 12.04 6.80323 12.1611 6.68207C12.2823 6.5609 12.3504 6.39656 12.3504 6.2252C12.3504 6.05385 12.2823 5.88951 12.1611 5.76834C12.04 5.64717 11.8756 5.5791 11.7043 5.5791H3.98204C3.81068 5.5791 3.64634 5.64717 3.52518 5.76834C3.40401 5.88951 3.33594 6.05385 3.33594 6.2252C3.33594 6.39656 3.40401 6.5609 3.52518 6.68207C3.64634 6.80323 3.81068 6.87131 3.98204 6.87131Z" fill="#DAA7EE"/>
<path d="M3.98204 9.65402H6.67047C6.84183 9.65402 7.00617 9.58595 7.12734 9.46478C7.2485 9.34362 7.31657 9.17928 7.31657 9.00792C7.31657 8.83656 7.2485 8.67222 7.12734 8.55106C7.00617 8.42989 6.84183 8.36182 6.67047 8.36182H3.98204C3.81068 8.36182 3.64634 8.42989 3.52518 8.55106C3.40401 8.67222 3.33594 8.83656 3.33594 9.00792C3.33594 9.17928 3.40401 9.34362 3.52518 9.46478C3.64634 9.58595 3.81068 9.65402 3.98204 9.65402Z" fill="#DAA7EE"/>
<path d="M10.6121 9.65402C10.7834 9.65402 10.9478 9.58595 11.0689 9.46478C11.1901 9.34362 11.2582 9.17928 11.2582 9.00792C11.2582 8.83656 11.1901 8.67222 11.0689 8.55106C10.9478 8.42989 10.7834 8.36182 10.6121 8.36182H8.54454C8.37318 8.36182 8.20884 8.42989 8.08768 8.55106C7.96651 8.67222 7.89844 8.83656 7.89844 9.00792C7.89844 9.17928 7.96651 9.34362 8.08768 9.46478C8.20884 9.58595 8.37318 9.65402 8.54454 9.65402H10.6121Z" fill="#DAA7EE"/>
</svg>
