<svg width="25" height="23" viewBox="0 0 25 23" fill="none" xmlns="http://www.w3.org/2000/svg">
<path fill-rule="evenodd" clip-rule="evenodd" d="M24.7416 6.71941L23.7344 6.3317C23.5878 5.7939 23.374 5.27823 23.0968 4.79365L23.5352 3.8066C23.6029 3.65418 23.5698 3.47576 23.4518 3.35781L22.0637 1.96981C21.9458 1.85186 21.7675 1.8187 21.615 1.88639L20.6276 2.3249C20.1431 2.04773 19.6275 1.83402 19.0901 1.68745L18.7023 0.67994C18.6424 0.524244 18.4928 0.421573 18.326 0.421573H16.363C16.1962 0.421573 16.0466 0.524294 15.9867 0.67994L15.5988 1.6875C15.0614 1.83402 14.5459 2.04778 14.0613 2.32495L13.0739 1.88644C12.9214 1.8187 12.7431 1.85187 12.6252 1.96986L11.2371 3.35791C11.1192 3.47586 11.086 3.65423 11.1537 3.8067L11.5922 4.7939C11.315 5.27843 11.1013 5.79395 10.9547 6.3316L9.94733 6.71941C9.79168 6.77934 9.68896 6.92888 9.68896 7.09572V9.05867C9.68896 9.2255 9.79168 9.37505 9.94733 9.43498L10.9545 9.82268C11.1012 10.3604 11.315 10.8762 11.5921 11.3607L11.1537 12.3477C11.086 12.5002 11.1192 12.6785 11.2371 12.7965L12.6252 14.1845C12.7431 14.3025 12.9215 14.3356 13.0739 14.2679L14.0613 13.8294C14.5459 14.1066 15.0615 14.3203 15.5989 14.4668L15.9867 15.4743C16.0466 15.63 16.1962 15.7327 16.363 15.7327H18.326C18.4928 15.7327 18.6423 15.63 18.7023 15.4743L19.09 14.4671C19.6277 14.3205 20.1434 14.1068 20.628 13.8295L21.615 14.2679C21.7674 14.3356 21.9458 14.3025 22.0638 14.1845L23.4518 12.7965C23.5698 12.6785 23.6029 12.5002 23.5352 12.3477L23.0967 11.3603C23.3738 10.8758 23.5876 10.3602 23.7341 9.82278L24.7416 9.43498C24.8973 9.3751 25 9.2255 25 9.05867V7.09572C25 6.92888 24.8973 6.77928 24.7416 6.71941ZM24.1935 8.78181L23.2501 9.14496C23.126 9.19269 23.0334 9.29854 23.0027 9.42792C22.8602 10.0266 22.6238 10.5967 22.3002 11.1223C22.2305 11.2355 22.2211 11.3758 22.2751 11.4973L22.6857 12.422L21.6892 13.4185L20.7649 13.008C20.6434 12.954 20.5031 12.9634 20.3898 13.0332C19.8642 13.3568 19.2941 13.5932 18.695 13.7357C18.5657 13.7665 18.4598 13.8591 18.412 13.9832L18.049 14.9263H16.6398L16.2766 13.9829C16.2289 13.8588 16.123 13.7662 15.9936 13.7354C15.3951 13.593 14.825 13.3567 14.2993 13.033C14.186 12.9633 14.0457 12.9539 13.9243 13.0078L12.9995 13.4185L12.003 12.422L12.4136 11.4977C12.4675 11.3761 12.4582 11.2358 12.3884 11.1225C12.0648 10.5971 11.8285 10.0269 11.6858 9.42772C11.6551 9.29839 11.5625 9.19254 11.4385 9.14481L10.4953 8.78175V7.37248L11.4387 7.00932C11.5628 6.96154 11.6553 6.8557 11.686 6.72636C11.8286 6.12747 12.0649 5.55741 12.3886 5.03196C12.4583 4.9187 12.4677 4.77838 12.4138 4.6568L12.0031 3.73226L12.9996 2.73574L13.9243 3.14637C14.0458 3.20025 14.1861 3.19093 14.2994 3.12117C14.8251 2.79758 15.3951 2.56124 15.9938 2.41875C16.123 2.38795 16.2289 2.29541 16.2767 2.17132L16.6399 1.22787H18.0491L18.4122 2.17132C18.46 2.29541 18.5659 2.38795 18.6952 2.41875C19.2938 2.56124 19.8639 2.79758 20.3895 3.12117C20.5028 3.19093 20.6431 3.20025 20.7646 3.14637L21.6893 2.73569L22.6858 3.73221L22.2753 4.65655C22.2213 4.77807 22.2307 4.91845 22.3005 5.03165C22.6241 5.55711 22.8604 6.12732 23.003 6.72641C23.0337 6.85575 23.1263 6.96164 23.2504 7.00937L24.1935 7.37253V8.78181ZM17.3444 3.92601C15.0554 3.92601 13.1932 5.78821 13.1932 8.07717C13.1932 10.3661 15.0554 12.2283 17.3444 12.2283C19.6333 12.2283 21.4955 10.3661 21.4955 8.07717C21.4955 5.78821 19.6333 3.92601 17.3444 3.92601ZM17.3444 11.4219C15.5001 11.4219 13.9997 9.92142 13.9997 8.07717C13.9997 6.23291 15.5002 4.73246 17.3444 4.73246C19.1887 4.73246 20.6891 6.23291 20.6891 8.07717C20.6891 9.92142 19.1887 11.4219 17.3444 11.4219ZM1.20302 7.16472L0.951462 7.73115C0.88377 7.88357 0.916885 8.062 1.03483 8.17994L1.9246 9.06971C2.04259 9.18765 2.22087 9.22082 2.37339 9.15312L2.94007 8.90141C3.22097 9.0559 3.51694 9.17863 3.82419 9.26794L4.04677 9.84617C4.10665 10.0018 4.25625 10.1045 4.42308 10.1045H5.68145C5.84829 10.1045 5.99783 10.0018 6.05776 9.84617L6.28024 9.2682C6.5877 9.17878 6.88387 9.05605 7.16472 8.90151L7.7311 9.15307C7.88342 9.22082 8.0619 9.1877 8.17989 9.06971L9.06966 8.17989C9.1876 8.06195 9.22072 7.88357 9.15302 7.7311L8.90136 7.16442C9.0558 6.88357 9.17858 6.58755 9.26789 6.28024L9.84617 6.05766C10.0018 5.99778 10.1045 5.84819 10.1045 5.68135V4.42303C10.1045 4.2562 10.0018 4.10665 9.84617 4.04672L9.2681 3.82419C9.17878 3.51683 9.05595 3.22072 8.90146 2.93977L9.15302 2.37334C9.22072 2.22092 9.1876 2.04249 9.06966 1.92455L8.17994 1.03488C8.06194 0.916936 7.88367 0.883821 7.73115 0.951462L7.16447 1.20313C6.88362 1.04869 6.5876 0.925907 6.28034 0.836593L6.05781 0.258367C5.99793 0.102722 5.84834 0 5.6815 0H4.42313C4.2563 0 4.10675 0.102722 4.04682 0.258367L3.82424 0.836593C3.51704 0.925958 3.22097 1.04869 2.94012 1.20318L2.37344 0.951462C2.22092 0.883821 2.04264 0.916936 1.92465 1.03488L1.03483 1.9247C0.916885 2.04264 0.88377 2.22102 0.951462 2.37349L1.20312 2.94002C1.04864 3.22087 0.925907 3.51689 0.836492 3.82424L0.258367 4.04682C0.102722 4.10675 0 4.25635 0 4.42314V5.68145C0 5.84829 0.102722 5.99783 0.258367 6.05776L0.836391 6.28024C0.925806 6.5877 1.04859 6.88387 1.20302 7.16472ZM0.806452 4.7L1.3184 4.50292C1.44249 4.45514 1.53503 4.34935 1.56578 4.22001C1.65358 3.85106 1.79924 3.49985 1.99859 3.17621C2.06835 3.06295 2.07777 2.92258 2.02379 2.80106L1.80086 2.29919L2.29909 1.80096L2.80106 2.02389C2.92253 2.07777 3.0628 2.06845 3.17611 1.99874C3.5 1.79929 3.85116 1.65373 4.21991 1.56598C4.34919 1.53518 4.45509 1.44264 4.50282 1.31855L4.69995 0.806502H5.40454L5.60161 1.31855C5.64934 1.44264 5.75524 1.53518 5.88453 1.56598C6.25333 1.65373 6.60449 1.79934 6.92833 1.99869C7.04163 2.06845 7.18196 2.07777 7.30338 2.02389L7.80534 1.80096L8.30358 2.29919L8.08075 2.80091C8.02681 2.92243 8.03619 3.06275 8.10595 3.17601C8.30539 3.4999 8.45101 3.85116 8.53871 4.22001C8.56946 4.34935 8.66205 4.45524 8.78614 4.50302L9.29803 4.70005V5.40469L8.78599 5.60176C8.66195 5.6495 8.56936 5.75534 8.53861 5.88468C8.45081 6.25348 8.30519 6.60469 8.10585 6.92843C8.03609 7.04168 8.02671 7.18201 8.08065 7.30353L8.30358 7.80544L7.80534 8.30373L7.30363 8.0809C7.18216 8.02692 7.04183 8.03629 6.92853 8.1061C6.60484 8.30549 6.25358 8.45111 5.88453 8.53891C5.75519 8.56971 5.64929 8.66225 5.60156 8.78634L5.40454 9.29819H4.69995L4.50282 8.78614C4.45509 8.6621 4.34919 8.56951 4.21991 8.53871C3.85111 8.45096 3.49995 8.30539 3.17616 8.106C3.06295 8.03624 2.92253 8.02692 2.80111 8.0808L2.29909 8.30373L1.80086 7.80544L2.02369 7.30373C2.07762 7.18221 2.06825 7.04189 1.99849 6.92863C1.79914 6.60489 1.65353 6.25363 1.56568 5.88458C1.53493 5.75524 1.44239 5.64934 1.3183 5.60161L0.806452 5.40464V4.7ZM5.05227 7.65005C6.48468 7.65005 7.65005 6.48473 7.65005 5.05232C7.65005 3.61991 6.48468 2.45449 5.05227 2.45449C3.61986 2.45449 2.45449 3.61986 2.45449 5.05232C2.45449 6.48473 3.61986 7.65005 5.05227 7.65005ZM5.05227 3.26099C6.04002 3.26099 6.8436 4.06457 6.8436 5.05237C6.8436 6.04007 6.04002 6.84365 5.05227 6.84365C4.06452 6.84365 3.26094 6.04007 3.26094 5.05237C3.26094 4.06457 4.06457 3.26099 5.05227 3.26099ZM20.1043 16.9671L15.4179 18.242C15.2116 18.2981 15.0099 18.3263 14.8087 18.3263C14.8083 18.3263 14.8078 18.3263 14.8074 18.3263C14.9022 18.2287 14.9873 18.1155 15.0613 17.9874C15.4841 17.2553 15.2364 16.3065 14.4975 15.8273C14.4823 15.8174 14.4664 15.8086 14.45 15.8009C13.3434 15.2796 12.306 14.5566 11.4725 13.9756C11.1825 13.7734 10.9086 13.5825 10.6727 13.4296C9.71497 12.8083 8.65701 12.9745 7.74839 13.2193L4.29471 14.1492L4.15277 13.6008C4.08463 13.3373 3.91744 13.1159 3.68196 12.9773C3.44647 12.8387 3.17188 12.7999 2.90837 12.868L1.59849 13.207C1.05348 13.348 0.724748 13.9062 0.865726 14.4513L2.62651 21.2555C2.69466 21.519 2.86184 21.7404 3.09733 21.879C3.25696 21.973 3.43458 22.0212 3.61457 22.0212C3.70005 22.0212 3.78604 22.0103 3.87087 21.9884L5.18075 21.6494C5.44415 21.5812 5.66552 21.4141 5.80418 21.1786C5.94284 20.9431 5.98165 20.6684 5.91351 20.4051L5.73962 19.7331L6.49163 19.5316L11.2998 22.3076C11.8224 22.6094 12.3793 22.7618 12.9447 22.7618C13.2566 22.7618 13.5711 22.7154 13.8839 22.6221L22.4542 20.0635C23.2507 19.8257 23.7522 18.824 23.5063 17.9619C23.387 17.5438 22.7892 16.2367 20.1043 16.9671ZM5.10927 20.7694C5.09229 20.7982 5.05272 20.8495 4.97873 20.8687L3.6688 21.2077C3.59481 21.2266 3.53543 21.2012 3.5065 21.1842C3.47767 21.1672 3.42641 21.1276 3.40726 21.0536L1.64652 14.2492C1.61739 14.1365 1.68795 14.0167 1.8006 13.9876L3.11048 13.6486C3.12908 13.6438 3.14677 13.6418 3.16331 13.6418C3.21245 13.6418 3.25121 13.6594 3.27283 13.6721C3.30166 13.6891 3.35292 13.7287 3.37208 13.8026L5.13281 20.6071C5.15192 20.6811 5.12626 20.7405 5.10927 20.7694ZM22.2235 19.2906L13.6531 21.8493C12.9819 22.0496 12.3258 21.9688 11.7031 21.6092L6.7502 18.7496C6.65756 18.6962 6.54738 18.6817 6.44425 18.7094L5.5376 18.9523L4.49677 14.9299L7.95812 13.9979C8.73216 13.7895 9.5437 13.6584 10.2339 14.1061C10.4584 14.2518 10.7147 14.4304 11.0114 14.6372C11.8632 15.2309 12.9217 15.9687 14.0793 16.5177C14.4482 16.7703 14.5706 17.2246 14.363 17.5842C14.0899 18.0572 13.6467 18.0069 13.3171 17.8771C12.7543 17.595 12.231 17.2815 11.6775 16.9496C11.4144 16.792 11.1424 16.6289 10.8613 16.4666C10.6685 16.3552 10.4219 16.4213 10.3105 16.6142C10.1991 16.8071 10.2653 17.0537 10.4581 17.165C10.7335 17.324 11.0026 17.4853 11.2629 17.6413C11.8348 17.9841 12.375 18.308 12.9709 18.6057C12.973 18.6068 12.9752 18.6075 12.9774 18.6085C12.9801 18.6099 12.9828 18.6114 12.9856 18.6128L13.4678 18.8298C14.1962 19.1554 14.9035 19.2177 15.6296 19.0203L20.3161 17.7454C21.6467 17.3835 22.5494 17.547 22.7308 18.1831C22.8552 18.6195 22.5992 19.1785 22.2235 19.2906ZM3.12697 14.8483C3.09995 15.0789 2.89113 15.244 2.66048 15.217C2.42989 15.19 2.26487 14.9811 2.29189 14.7505C2.3189 14.5199 2.52772 14.3548 2.75832 14.3819C2.98896 14.4089 3.15398 14.6177 3.12697 14.8483Z" fill="#DAA7EE"/>
</svg>
