<svg width="36" height="36" viewBox="0 0 36 36" fill="none" xmlns="http://www.w3.org/2000/svg">
<path d="M35.4836 29.3152C35.2626 29.0188 35.1404 28.654 35.1404 28.2856V24.2519C35.1404 20.4441 32.1604 17.2557 28.4957 17.1453C26.6608 17.091 24.8577 17.774 23.515 19.0765C22.1724 20.3798 21.4325 22.1284 21.4325 24.0001V28.2858C21.4325 28.654 21.3102 29.0189 21.091 29.3136C20.5016 30.0979 20.408 31.1292 20.8465 32.0064C21.2835 32.8836 22.1657 33.4286 23.1451 33.4286H24.981C25.3639 34.9032 26.6937 36 28.2863 36C29.8789 36 31.2088 34.9032 31.5917 33.4286H33.4276C34.407 33.4286 35.2892 32.8836 35.7262 32.0064C36.1649 31.1301 36.0713 30.0986 35.4836 29.3152ZM28.2865 34.2856C27.661 34.2856 27.1362 33.9312 26.8372 33.4284H29.736C29.437 33.9312 28.9122 34.2856 28.2865 34.2856ZM34.1929 31.2403C34.0456 31.5367 33.7593 31.7141 33.4278 31.7141H23.1453C22.8137 31.7141 22.5274 31.5367 22.3802 31.2403C22.2312 30.9439 22.2614 30.6083 22.4623 30.3413C22.9042 29.7513 23.147 29.0213 23.147 28.2856V23.9999C23.147 22.5962 23.701 21.2845 24.7089 20.3068C25.6766 19.3684 26.9406 18.8571 28.2848 18.8571C28.3383 18.8571 28.3919 18.8579 28.4456 18.8596C31.1913 18.9417 33.4262 21.3608 33.4262 24.2519V28.2856C33.4262 29.0213 33.669 29.7513 34.1109 30.3413C34.1109 30.3413 34.1115 30.3419 34.1126 30.3431C34.3118 30.6084 34.3418 30.9441 34.1929 31.2403ZM1.71432 21.4285V9.03339L14.5459 14.7363C15.0984 14.9816 15.6926 15.1038 16.2861 15.1038C16.8796 15.1038 17.4739 14.9816 18.0271 14.7363L30.8578 9.03339V14.9535C31.4554 15.1306 32.0284 15.3664 32.5722 15.6567V4.28569C32.5722 1.92273 30.6502 0 28.2863 0H4.28581C1.92279 0 0 1.92273 0 4.28569V21.4285C0 23.7914 1.92279 25.7142 4.28581 25.7142H18.861V23.9999H4.28581C2.86789 23.9999 1.71432 22.8463 1.71432 21.4285ZM1.71432 4.28569C1.71432 2.86782 2.86789 1.71428 4.28581 1.71428H28.2863C29.7043 1.71428 30.8578 2.86782 30.8578 4.28569V7.15762L17.3316 13.1693C16.667 13.4639 15.9045 13.4639 15.2415 13.1693L1.71432 7.15762V4.28569Z" fill="#DAA7EE"/>
</svg>
