<svg width="55" height="55" viewBox="0 0 55 55" fill="none" xmlns="http://www.w3.org/2000/svg">
<g clip-path="url(#clip0_1510_2992)">
<path d="M8.42578 35.6533V39.0185C8.42578 40.2051 9.38764 41.167 10.5742 41.167H14.6377" stroke="#DAA7EE" stroke-width="1.34766" stroke-miterlimit="10" stroke-linecap="round" stroke-linejoin="round"/>
<path d="M44.4852 19.7017C44.4852 18.5151 43.5234 17.5532 42.3368 17.5532H14.3711" stroke="#DAA7EE" stroke-width="1.34766" stroke-miterlimit="10" stroke-linecap="round" stroke-linejoin="round"/>
<path d="M44.4844 36.5546V21.7969" stroke="#DAA7EE" stroke-width="1.34766" stroke-miterlimit="10" stroke-linecap="round" stroke-linejoin="round"/>
<path d="M51.0004 24.1567C52.7694 24.1955 54.1928 25.8161 54.1928 27.8096V30.5497C54.1928 34.2003 51.8061 37.2256 48.6875 37.7697" stroke="#DAA7EE" stroke-width="1.34766" stroke-miterlimit="10" stroke-linecap="round" stroke-linejoin="round"/>
<path d="M50.9733 15.9469L50.9903 24.1567C49.5934 24.1595 48.4627 25.2139 48.4627 26.4811V26.6061C46.2623 25.8463 44.4859 23.9326 44.4859 21.7969V18.1301C44.4859 14.8713 41.7084 12.2009 38.1836 11.9604" stroke="#DAA7EE" stroke-width="1.34766" stroke-miterlimit="10" stroke-linecap="round" stroke-linejoin="round"/>
<path d="M12.7423 14.9198V13.0157C12.7221 9.3109 15.8357 6.2309 19.731 5.73676C20.3138 5.66285 20.7777 5.27033 20.8992 4.74805C21.1172 3.8109 21.634 2.94884 22.3707 2.27208C23.342 1.37736 24.6966 0.805664 26.2505 0.805664H37.4615C39.0152 0.805664 40.3699 1.37736 41.3412 2.27208C42.0777 2.94852 42.5944 3.81015 42.8126 4.74686C42.9342 5.26904 43.3978 5.66242 43.9808 5.73536C47.6288 6.1918 50.5096 8.89969 50.9196 12.1872" stroke="#DAA7EE" stroke-width="1.34766" stroke-miterlimit="10" stroke-linecap="round" stroke-linejoin="round"/>
<path d="M40.1587 10.2783C39.5387 10.9045 38.5257 11.6226 37.5848 12.0621C36.1527 12.7411 34.7209 13.1654 33.2891 13.3353" stroke="#DAA7EE" stroke-width="1.34766" stroke-miterlimit="10" stroke-linecap="round" stroke-linejoin="round"/>
<path d="M46.3047 43.2696C47.7112 41.427 48.496 39.0718 48.496 36.6218L48.4631 26.6064" stroke="#DAA7EE" stroke-width="1.34766" stroke-miterlimit="10" stroke-linecap="round" stroke-linejoin="round"/>
<path d="M0.808594 40.8229L3.82414 35.0571" stroke="#DAA7EE" stroke-width="1.34766" stroke-miterlimit="10" stroke-linecap="round" stroke-linejoin="round"/>
<path d="M12.6449 41.5225L9.79297 54.1946" stroke="#DAA7EE" stroke-width="1.34766" stroke-miterlimit="10" stroke-linecap="round" stroke-linejoin="round"/>
<path d="M22.1243 22.4199H16.5938" stroke="#DAA7EE" stroke-width="1.34766" stroke-miterlimit="10" stroke-linecap="round" stroke-linejoin="round"/>
<path d="M44.3204 22.4199H31.2109" stroke="#DAA7EE" stroke-width="1.34766" stroke-miterlimit="10" stroke-linecap="round" stroke-linejoin="round"/>
<path d="M3.26953 17.4954C3.26953 16.073 4.4226 14.9199 5.84486 14.9199H11.5323C12.9547 14.9199 14.1076 16.073 14.1076 17.4953C14.1076 18.9176 12.9546 20.0706 11.5323 20.0706H5.84486C4.4226 20.0707 3.26953 18.9177 3.26953 17.4954Z" stroke="#DAA7EE" stroke-width="1.34766" stroke-miterlimit="10" stroke-linecap="round" stroke-linejoin="round"/>
<path d="M12.2106 35.5222H5.54799C4.12562 35.5222 2.97266 34.3692 2.97266 32.9469C2.97266 31.5245 4.12572 30.3716 5.54799 30.3716H11.379" stroke="#DAA7EE" stroke-width="1.34766" stroke-miterlimit="10" stroke-linecap="round" stroke-linejoin="round"/>
<path d="M10.3086 25.2207H15.5928C16.4483 25.2207 17.2064 25.6378 17.6747 26.2798" stroke="#DAA7EE" stroke-width="1.34766" stroke-miterlimit="10" stroke-linecap="round" stroke-linejoin="round"/>
<path d="M11.3764 30.3714H5.45424C4.03187 30.3714 2.87891 29.2183 2.87891 27.796C2.87891 26.3737 4.03197 25.2207 5.45424 25.2207H6.54887" stroke="#DAA7EE" stroke-width="1.34766" stroke-miterlimit="10" stroke-linecap="round" stroke-linejoin="round"/>
<path d="M26.0039 48.6807L31.0665 50.519C32.3763 50.9946 33.2483 52.2391 33.2483 53.6326V54.0883" stroke="#DAA7EE" stroke-width="1.34766" stroke-miterlimit="10" stroke-linecap="round" stroke-linejoin="round"/>
<path d="M16.2344 30.7085C15.6423 29.3129 14.1055 28.5092 12.5806 28.8889C11.9103 29.0558 11.4829 29.7124 11.6019 30.3929L12.652 36.4025C12.7362 36.8846 12.8913 37.3516 13.1122 37.7883L16.0739 43.6437C16.6439 44.7705 17.6219 45.6377 18.8088 46.0687L22.4615 47.3951" stroke="#DAA7EE" stroke-width="1.34766" stroke-miterlimit="10" stroke-linecap="round" stroke-linejoin="round"/>
<path d="M44.5514 54.0881V50.924C44.5514 50.0482 44.6965 49.1785 44.981 48.3502L45.6891 46.2881C46.4877 43.9626 46.4199 41.4271 45.4977 39.1477C44.8627 37.5783 44.1725 35.8946 43.7876 35.0267C43.4273 34.2141 42.2511 31.8203 42.2511 31.8203C41.9802 31.2552 41.8314 30.6395 41.8142 30.013L41.7243 26.7348C41.7081 26.1487 41.2386 25.6765 40.6527 25.6569L40.2553 25.6437C38.6846 25.5915 37.3701 26.8247 37.3222 28.3954L37.2705 30.0879C37.2393 31.1121 37.2816 32.1371 37.3971 33.1553L38.0825 39.1946C38.1937 40.1739 37.857 41.158 37.1484 41.843C36.7789 42.2003 36.3541 42.5013 35.8872 42.733L35.0008 43.1728C34.3471 43.4971 33.6368 43.6917 32.909 43.7459L32.882 43.7479C32.2051 43.7983 31.5302 43.7308 30.8818 43.5491C29.9983 43.3014 28.4715 42.9041 26.8867 42.4988" stroke="#DAA7EE" stroke-width="1.34766" stroke-miterlimit="10" stroke-linecap="round" stroke-linejoin="round"/>
<path d="M26.7617 42.4497C32.5758 42.4497 37.2891 37.756 37.2891 31.966C37.2891 26.1761 32.5758 21.4824 26.7617 21.4824C20.9476 21.4824 16.2344 26.1761 16.2344 31.966C16.2344 37.756 20.9476 42.4497 26.7617 42.4497Z" stroke="#DAA7EE" stroke-width="1.34766" stroke-miterlimit="10" stroke-linecap="round" stroke-linejoin="round"/>
<path d="M33.2697 29.7781C32.3622 27.0307 29.7929 25.0498 26.765 25.0498C22.9791 25.0498 19.9102 28.1465 19.9102 31.9664C19.9102 35.7863 22.9792 38.8829 26.765 38.8829C30.0129 38.8829 32.7331 36.6039 33.4407 33.5442" stroke="#DAA7EE" stroke-width="1.34766" stroke-miterlimit="10" stroke-linecap="round" stroke-linejoin="round"/>
<path d="M34.7484 17.5088L33.0592 13.227C32.7551 12.4561 31.9594 11.9429 31.0683 11.9429H22.4039C21.505 11.9429 20.704 12.4652 20.4058 13.2457L18.7773 17.5087" stroke="#DAA7EE" stroke-width="1.34766" stroke-miterlimit="10" stroke-linecap="round" stroke-linejoin="round"/>
<path d="M22.7656 14.7578H30.544" stroke="#DAA7EE" stroke-width="1.34766" stroke-miterlimit="10" stroke-linecap="round" stroke-linejoin="round"/>
<path d="M25.8128 11.9093C25.059 11.5164 24.1747 10.9037 23.5508 10.2783" stroke="#DAA7EE" stroke-width="1.34766" stroke-miterlimit="10" stroke-linecap="round" stroke-linejoin="round"/>
<path d="M11.5352 20.0708H13.8312C15.2536 20.0708 16.4065 21.2239 16.4065 22.6461C16.4065 24.0685 15.2535 25.2215 13.8312 25.2215" stroke="#DAA7EE" stroke-width="1.34766" stroke-miterlimit="10" stroke-linecap="round" stroke-linejoin="round"/>
<path d="M5.45424 25.2215C4.03187 25.2215 2.87891 24.0684 2.87891 22.6461C2.87891 21.2238 4.03197 20.0708 5.45424 20.0708" stroke="#DAA7EE" stroke-width="1.34766" stroke-miterlimit="10" stroke-linecap="round" stroke-linejoin="round"/>
</g>
<defs>
<clipPath id="clip0_1510_2992">
<rect width="55" height="55" fill="white"/>
</clipPath>
</defs>
</svg>
