<svg width="43" height="41" viewBox="0 0 43 41" fill="none" xmlns="http://www.w3.org/2000/svg">
<path d="M32.3467 5.99163C32.3651 5.99296 32.3834 5.9943 32.4021 5.9943C32.4339 5.9943 32.4656 5.99163 32.4967 5.98729C33.3279 6.00432 33.9931 6.68226 33.9941 7.51348C33.9941 7.89119 34.3004 8.19743 34.6781 8.19743C35.0558 8.19743 35.362 7.89119 35.362 7.51348C35.3604 6.15393 34.4139 4.97773 33.0861 4.68518V4.02794C33.0861 3.65024 32.7799 3.34399 32.4021 3.34399C32.0244 3.34399 31.7182 3.65024 31.7182 4.02794V4.71624C30.3142 5.09161 29.4059 6.44982 29.5952 7.89086C29.7846 9.33189 31.0129 10.4092 32.4663 10.4092C33.3102 10.4092 33.9941 11.0935 33.9941 11.9374C33.9941 12.781 33.3102 13.4653 32.4663 13.4653C31.6223 13.4653 30.9384 12.781 30.9384 11.9374C30.9384 11.5597 30.6322 11.2535 30.2544 11.2535C29.8767 11.2535 29.5705 11.5597 29.5705 11.9374C29.5722 13.2479 30.4525 14.3944 31.7182 14.7347V15.4841C31.7182 15.8618 32.0244 16.1681 32.4021 16.1681C32.7799 16.1681 33.0861 15.8618 33.0861 15.4841V14.7661C34.5305 14.4498 35.5046 13.096 35.3453 11.6259C35.1864 10.1558 33.945 9.04168 32.4663 9.04202C31.6457 9.04235 30.9715 8.39447 30.9391 7.5746C30.907 6.75473 31.5285 6.05575 32.3467 5.99196V5.99163Z" fill="#DAA7EE"/>
<path d="M32.5053 0C28.2977 0 24.707 2.74548 23.3618 6.42171H6.38631C6.01027 6.42171 5.70504 6.76068 5.70236 7.13639L5.54073 31.1294H0.701984C0.324275 31.1294 0 31.4029 0 31.7813V34.826C0.00868291 37.6924 2.26625 40.0471 5.12962 40.1767V40.1917H26.2466V40.1717C26.4176 40.178 26.488 40.1917 26.5962 40.1917H26.6109C29.5745 40.187 31.9746 37.7832 31.9746 34.8196V19.4254C32.1456 19.4348 32.3266 19.4398 32.5036 19.4398C37.858 19.4398 42.2152 15.0743 42.2152 9.71957C42.2152 4.36519 37.86 0 32.5053 0ZM5.38978 38.8238H5.38544C3.17295 38.8208 1.37792 37.0318 1.3679 34.819V32.4973H21.2024V34.8093C21.2034 36.2366 21.7735 37.6049 22.7861 38.6111C22.8579 38.6829 22.947 38.7383 23.0222 38.8238H5.38978ZM30.6067 34.819C30.6071 37.0278 28.8187 38.8195 26.6103 38.8238H26.5972C24.3797 38.8198 22.5814 37.0271 22.5703 34.81V31.7813C22.576 31.6063 22.5092 31.437 22.3853 31.3134C22.2614 31.1898 22.0921 31.1234 21.9174 31.1294H6.90863L7.06559 7.78961H22.9821C22.8609 8.41579 22.7981 9.05165 22.7948 9.68918C22.7934 11.0374 23.0746 12.3705 23.6203 13.6032H17.1602C16.7821 13.6032 16.4762 13.9094 16.4762 14.2871C16.4762 14.6648 16.7821 14.9711 17.1602 14.9711H24.3624C25.7733 17.1899 28.0289 18.7368 30.6067 19.2545V34.819ZM32.5053 18.0722C27.898 18.0722 24.1627 14.3372 24.163 9.72958C24.163 5.12194 27.898 1.38693 32.5056 1.38693C37.113 1.38693 40.848 5.12228 40.848 9.72958C40.8429 14.3349 37.1109 18.0672 32.5053 18.0722Z" fill="#DAA7EE"/>
<path d="M12.775 18.1552C11.5678 18.1552 10.5859 19.1059 10.5859 20.2748C10.5859 21.4437 11.5678 22.3944 12.775 22.3944C13.9823 22.3944 14.9645 21.4437 14.9645 20.2748C14.9645 19.1059 13.9823 18.1552 12.775 18.1552ZM12.775 21.0265C12.3219 21.0265 11.9538 20.6892 11.9538 20.2748C11.9538 19.86 12.3222 19.5231 12.775 19.5231C13.2279 19.5231 13.5966 19.8604 13.5966 20.2748C13.5966 20.6892 13.2279 21.0265 12.775 21.0265Z" fill="#DAA7EE"/>
<path d="M16.4766 20.2717C16.4766 20.6494 16.7825 20.9557 17.1605 20.9557H26.279C26.6567 20.9557 26.9629 20.6494 26.9629 20.2717C26.9629 19.894 26.6567 19.5878 26.279 19.5878H17.1605C16.7825 19.5878 16.4766 19.894 16.4766 20.2717Z" fill="#DAA7EE"/>
<path d="M12.775 12.2096C11.5678 12.2096 10.5859 13.1607 10.5859 14.3296C10.5859 15.4984 11.5678 16.4492 12.775 16.4492C13.9823 16.4492 14.9645 15.4984 14.9645 14.3296C14.9645 13.1607 13.9823 12.2096 12.775 12.2096ZM12.775 15.0813C12.3219 15.0813 11.9538 14.744 11.9538 14.3296C11.9538 13.9151 12.3222 13.5775 12.775 13.5775C13.2279 13.5775 13.5966 13.9148 13.5966 14.3296C13.5966 14.744 13.2279 15.0816 12.775 15.0816V15.0813Z" fill="#DAA7EE"/>
<path d="M12.775 24.1C11.5678 24.1 10.5859 25.0508 10.5859 26.2196C10.5859 27.3885 11.5678 28.3393 12.775 28.3393C13.9823 28.3393 14.9645 27.3885 14.9645 26.2196C14.9645 25.0508 13.9823 24.1 12.775 24.1ZM12.775 26.9714C12.3219 26.9714 11.9538 26.6344 11.9538 26.2196C11.9538 25.8052 12.3222 25.4679 12.775 25.4679C13.2279 25.4679 13.5966 25.8052 13.5966 26.2196C13.5966 26.6341 13.2279 26.9714 12.775 26.9714Z" fill="#DAA7EE"/>
<path d="M26.279 25.5724H17.1605C16.7825 25.5724 16.4766 25.8786 16.4766 26.2563C16.4766 26.634 16.7825 26.9403 17.1605 26.9403H26.279C26.6567 26.9403 26.9629 26.634 26.9629 26.2563C26.9629 25.8786 26.6567 25.5724 26.279 25.5724Z" fill="#DAA7EE"/>
</svg>
