<svg width="35" height="41" viewBox="0 0 35 41" fill="none" xmlns="http://www.w3.org/2000/svg">
<path fill-rule="evenodd" clip-rule="evenodd" d="M23.2645 38.6769H1.08817C0.847411 38.6769 0.660156 38.4896 0.660156 38.2489V1.32401C0.660156 1.08325 0.847411 0.895996 1.08817 0.895996H30.8171C31.0579 0.895996 31.2451 1.09217 31.2451 1.32401V26.3805C31.2451 26.6212 31.0489 26.8085 30.8171 26.8085C30.5853 26.8085 30.3891 26.6123 30.3891 26.3805V1.75202H1.51618V37.8209H23.2645C23.5052 37.8209 23.6925 38.017 23.6925 38.2489C23.6925 38.4807 23.4963 38.6769 23.2645 38.6769Z" fill="#DAA7EE"/>
<path fill-rule="evenodd" clip-rule="evenodd" d="M4.60168 4.56086C4.4501 4.56086 4.32526 4.68569 4.32526 4.83728V14.7885C4.32526 14.9401 4.4501 15.065 4.60168 15.065H14.5529C14.7045 15.065 14.8294 14.9401 14.8294 14.7885V4.83728C14.8294 4.68569 14.7045 4.56086 14.5529 4.56086H4.60168ZM14.5529 15.921H4.60168C3.9775 15.921 3.46924 15.4127 3.46924 14.7885V4.83728C3.46924 4.2131 3.9775 3.70483 4.60168 3.70483H14.5529C15.1771 3.70483 15.6854 4.2131 15.6854 4.83728V14.7885C15.6765 15.4127 15.1771 15.921 14.5529 15.921Z" fill="#DAA7EE"/>
<path fill-rule="evenodd" clip-rule="evenodd" d="M13.1608 14.3427H5.9827C5.74194 14.3427 5.55469 14.1465 5.55469 13.9147V12.916C5.55469 11.6052 6.58905 10.5352 7.882 10.4817V9.37601C7.882 9.14417 8.06925 8.948 8.31001 8.948C8.55077 8.948 8.73802 9.13525 8.73802 9.37601V10.9008C8.73802 11.1416 8.54185 11.3288 8.31001 11.3288H7.989C7.11514 11.3288 6.41071 12.0422 6.41071 12.9071V13.4778H12.7328V12.9071C12.7328 12.0332 12.0194 11.3288 11.1545 11.3288H10.8335C10.5927 11.3288 10.4055 11.1416 10.4055 10.9008V9.37601C10.4055 9.14417 10.5927 8.948 10.8335 8.948C11.0653 8.948 11.2615 9.13525 11.2615 9.37601V10.4728C12.5545 10.5352 13.5888 11.6052 13.5888 12.9071V13.9058C13.5888 14.1466 13.4016 14.3427 13.1608 14.3427Z" fill="#DAA7EE"/>
<path fill-rule="evenodd" clip-rule="evenodd" d="M9.30997 6.1479C8.72145 6.1479 8.23102 6.62941 8.23102 7.22684V8.2612C8.23102 8.85864 8.71253 9.34015 9.30997 9.34015H9.84498C10.4335 9.34015 10.9239 8.85864 10.9239 8.2612V7.21793C10.9239 6.62049 10.4424 6.13898 9.84498 6.13898C9.84498 6.1479 9.30997 6.1479 9.30997 6.1479ZM9.84498 10.1873H9.30997C8.24886 10.1873 7.375 9.32231 7.375 8.25229V7.21793C7.375 6.15682 8.23994 5.28296 9.30997 5.28296H9.84498C10.9061 5.28296 11.7799 6.1479 11.7799 7.21793V8.25229C11.771 9.32231 10.9061 10.1873 9.84498 10.1873Z" fill="#DAA7EE"/>
<path fill-rule="evenodd" clip-rule="evenodd" d="M9.57647 11.935C9.05037 11.935 8.52428 11.6942 8.02493 11.2216C7.85551 11.0611 7.84659 10.7847 8.0071 10.6153C8.1676 10.4458 8.44403 10.4369 8.61345 10.5974C9.29113 11.2394 9.87073 11.2394 10.5484 10.5974C10.7178 10.4369 10.9943 10.4458 11.1548 10.6153C11.3153 10.7847 11.3063 11.0611 11.1369 11.2216C10.6287 11.6942 10.1026 11.935 9.57647 11.935Z" fill="#DAA7EE"/>
<path fill-rule="evenodd" clip-rule="evenodd" d="M28.0079 6.42438H17.7356C17.4949 6.42438 17.3076 6.23713 17.3076 5.99637C17.3076 5.75561 17.4949 5.56836 17.7356 5.56836H27.999C28.2397 5.56836 28.427 5.75561 28.427 5.99637C28.4359 6.22821 28.2397 6.42438 28.0079 6.42438Z" fill="#DAA7EE"/>
<path fill-rule="evenodd" clip-rule="evenodd" d="M28.0079 10.2408H17.7356C17.4949 10.2408 17.3076 10.0535 17.3076 9.81278C17.3076 9.58094 17.4949 9.38477 17.7356 9.38477H27.999C28.2397 9.38477 28.427 9.58094 28.427 9.81278C28.427 10.0446 28.2397 10.2408 28.0079 10.2408Z" fill="#DAA7EE"/>
<path fill-rule="evenodd" clip-rule="evenodd" d="M28.0079 14.0662H17.7356C17.4949 14.0662 17.3076 13.879 17.3076 13.6382C17.3076 13.3975 17.4949 13.2102 17.7356 13.2102H27.999C28.2397 13.2102 28.427 13.4064 28.427 13.6382C28.4359 13.8701 28.2397 14.0662 28.0079 14.0662Z" fill="#DAA7EE"/>
<path fill-rule="evenodd" clip-rule="evenodd" d="M28.0085 19.9246H3.89725C3.65649 19.9246 3.46924 19.7374 3.46924 19.4966C3.46924 19.2559 3.65649 19.0686 3.89725 19.0686H28.0085C28.2493 19.0686 28.4366 19.2648 28.4366 19.4966C28.4366 19.7374 28.2404 19.9246 28.0085 19.9246Z" fill="#DAA7EE"/>
<path fill-rule="evenodd" clip-rule="evenodd" d="M28.0085 23.7501H3.89725C3.65649 23.7501 3.46924 23.5628 3.46924 23.3221C3.46924 23.0813 3.65649 22.894 3.89725 22.894H28.0085C28.2493 22.894 28.4366 23.0813 28.4366 23.3221C28.4366 23.5539 28.2404 23.7501 28.0085 23.7501Z" fill="#DAA7EE"/>
<path fill-rule="evenodd" clip-rule="evenodd" d="M19.7782 27.5665H3.89725C3.65649 27.5665 3.46924 27.3792 3.46924 27.1385C3.46924 26.8977 3.65649 26.7104 3.89725 26.7104H19.7782C20.019 26.7104 20.2063 26.9066 20.2063 27.1385C20.2063 27.3792 20.0101 27.5665 19.7782 27.5665Z" fill="#DAA7EE"/>
<path fill-rule="evenodd" clip-rule="evenodd" d="M4.81569 33.7102C4.79785 33.7102 4.7711 33.7102 4.75327 33.7102C4.52143 33.6745 4.36092 33.4605 4.38768 33.2287C4.59276 31.8377 4.94944 31.0886 5.46662 30.9905C5.80546 30.9281 6.09972 31.1243 6.34939 31.5791C6.59015 32.0249 6.73282 32.1587 6.78632 32.1943C6.92007 32.1052 7.17866 31.7128 7.32134 31.4899C7.43725 31.3116 7.63343 30.9995 7.98119 31.0708C8.31111 31.1332 8.37353 31.4542 8.4092 31.6682C8.48945 32.0962 8.59645 32.6758 9.51489 32.7739C10.2728 32.8542 10.683 32.5778 11.0753 32.3013C11.5925 31.9447 12.2435 31.4988 13.2778 32.4529C13.4562 32.6134 13.4651 32.8809 13.3046 33.0593C13.1441 33.2376 12.8766 33.2465 12.6982 33.086C12.1632 32.5956 12.0295 32.6848 11.5569 33.0147C11.111 33.3268 10.4958 33.7459 9.42572 33.63C8.36461 33.514 7.92768 32.9255 7.73151 32.4173C7.45509 32.7918 7.16083 33.0771 6.75957 33.0593C6.24239 33.0414 5.8768 32.5064 5.60037 31.9803C5.60037 31.9803 5.60037 31.9714 5.59146 31.9714C5.46662 32.2567 5.31503 32.8185 5.23478 33.3446C5.20803 33.5586 5.02078 33.7102 4.81569 33.7102Z" fill="#DAA7EE"/>
<path fill-rule="evenodd" clip-rule="evenodd" d="M13.902 35.8592H3.89725C3.65649 35.8592 3.46924 35.6719 3.46924 35.4312C3.46924 35.1904 3.65649 35.0032 3.89725 35.0032H13.902C14.1428 35.0032 14.33 35.1993 14.33 35.4312C14.33 35.6719 14.1428 35.8592 13.902 35.8592Z" fill="#DAA7EE"/>
<path fill-rule="evenodd" clip-rule="evenodd" d="M27.5184 25.988C23.8625 25.988 20.8931 28.9573 20.8931 32.6132C20.8931 36.2692 23.8625 39.2385 27.5184 39.2385C31.1743 39.2385 34.1436 36.2602 34.1436 32.6132C34.1526 28.9662 31.1743 25.988 27.5184 25.988ZM27.5184 40.1034C23.3899 40.1034 20.0371 36.7418 20.0371 32.6221C20.0371 28.4936 23.3988 25.1409 27.5184 25.1409C31.6469 25.1409 34.9997 28.5025 34.9997 32.6221C35.0086 36.7507 31.6469 40.1034 27.5184 40.1034Z" fill="#DAA7EE"/>
<path fill-rule="evenodd" clip-rule="evenodd" d="M25.4852 36.1268C25.3693 36.1268 25.2623 36.0822 25.182 36.0019L23.0865 33.9065C22.9171 33.737 22.9171 33.4695 23.0865 33.3001C23.256 33.1307 23.5235 33.1307 23.6929 33.3001L25.4852 35.0924L31.3436 29.234C31.513 29.0646 31.7805 29.0646 31.9499 29.234C32.1194 29.4034 32.1194 29.6709 31.9499 29.8403L25.7884 36.0019C25.7081 36.0822 25.6011 36.1268 25.4852 36.1268Z" fill="#DAA7EE"/>
</svg>
