<svg width="34" height="34" viewBox="0 0 34 34" fill="none" xmlns="http://www.w3.org/2000/svg">
<path d="M9.71429 1.21429C9.71429 1.53633 9.58635 1.84519 9.35863 2.07292C9.13091 2.30064 8.82205 2.42857 8.5 2.42857H3.64286C3.32081 2.42857 3.01195 2.5565 2.78423 2.78423C2.5565 3.01195 2.42857 3.32081 2.42857 3.64286V8.5C2.42857 8.82205 2.30064 9.13091 2.07292 9.35863C1.84519 9.58635 1.53633 9.71429 1.21429 9.71429C0.892237 9.71429 0.583379 9.58635 0.355656 9.35863C0.127933 9.13091 0 8.82205 0 8.5V3.64286C0 2.67671 0.3838 1.75014 1.06697 1.06697C1.75014 0.3838 2.67671 0 3.64286 0H8.5C8.82205 0 9.13091 0.127933 9.35863 0.355656C9.58635 0.583379 9.71429 0.892237 9.71429 1.21429ZM30.3571 0H25.5C25.178 0 24.8691 0.127933 24.6414 0.355656C24.4136 0.583379 24.2857 0.892237 24.2857 1.21429C24.2857 1.53633 24.4136 1.84519 24.6414 2.07292C24.8691 2.30064 25.178 2.42857 25.5 2.42857H30.3571C30.6792 2.42857 30.9881 2.5565 31.2158 2.78423C31.4435 3.01195 31.5714 3.32081 31.5714 3.64286V8.5C31.5714 8.82205 31.6994 9.13091 31.9271 9.35863C32.1548 9.58635 32.4637 9.71429 32.7857 9.71429C33.1078 9.71429 33.4166 9.58635 33.6443 9.35863C33.8721 9.13091 34 8.82205 34 8.5V3.64286C34 2.67671 33.6162 1.75014 32.933 1.06697C32.2499 0.3838 31.3233 0 30.3571 0ZM32.7857 24.2857C32.4637 24.2857 32.1548 24.4136 31.9271 24.6414C31.6994 24.8691 31.5714 25.178 31.5714 25.5V30.3571C31.5714 30.6792 31.4435 30.9881 31.2158 31.2158C30.9881 31.4435 30.6792 31.5714 30.3571 31.5714H25.5C25.178 31.5714 24.8691 31.6994 24.6414 31.9271C24.4136 32.1548 24.2857 32.4637 24.2857 32.7857C24.2857 33.1078 24.4136 33.4166 24.6414 33.6443C24.8691 33.8721 25.178 34 25.5 34H30.3571C31.3233 34 32.2499 33.6162 32.933 32.933C33.6162 32.2499 34 31.3233 34 30.3571V25.5C34 25.178 33.8721 24.8691 33.6443 24.6414C33.4166 24.4136 33.1078 24.2857 32.7857 24.2857ZM8.5 31.5714H3.64286C3.32081 31.5714 3.01195 31.4435 2.78423 31.2158C2.5565 30.9881 2.42857 30.6792 2.42857 30.3571V25.5C2.42857 25.178 2.30064 24.8691 2.07292 24.6414C1.84519 24.4136 1.53633 24.2857 1.21429 24.2857C0.892237 24.2857 0.583379 24.4136 0.355656 24.6414C0.127933 24.8691 0 25.178 0 25.5V30.3571C0 31.3233 0.3838 32.2499 1.06697 32.933C1.75014 33.6162 2.67671 34 3.64286 34H8.5C8.82205 34 9.13091 33.8721 9.35863 33.6443C9.58635 33.4166 9.71429 33.1078 9.71429 32.7857C9.71429 32.4637 9.58635 32.1548 9.35863 31.9271C9.13091 31.6994 8.82205 31.5714 8.5 31.5714Z" fill="#DAA7EE"/>
<path d="M17.606 4.85718C15.3245 4.85718 13.0942 5.53374 11.1971 6.8013C9.30009 8.06886 7.82153 9.87049 6.94842 11.9784C6.07531 14.0862 5.84687 16.4057 6.29197 18.6434C6.73708 20.8811 7.83575 22.9366 9.44905 24.5499C11.0623 26.1632 13.1178 27.2618 15.3555 27.7069C17.5932 28.1521 19.9127 27.9236 22.0206 27.0505C24.1284 26.1774 25.9301 24.6988 27.1976 22.8018C28.4652 20.9048 29.1417 18.6744 29.1417 16.3929C29.1382 13.3345 27.9217 10.4024 25.7591 8.23981C23.5965 6.07722 20.6644 4.86071 17.606 4.85718ZM26.5123 16.7937H28.3294C28.2251 19.4981 27.104 22.0635 25.1903 23.9772C23.2766 25.8909 20.7112 27.0119 18.0069 27.1163V25.2992C18.0069 25.1929 17.9646 25.0909 17.8895 25.0158C17.8143 24.9406 17.7123 24.8984 17.606 24.8984C17.4997 24.8984 17.3978 24.9406 17.3226 25.0158C17.2474 25.0909 17.2052 25.1929 17.2052 25.2992V27.1163C14.5008 27.0119 11.9354 25.8909 10.0217 23.9772C8.10803 22.0635 6.98699 19.4981 6.88265 16.7937H8.69972C8.80603 16.7937 8.90798 16.7515 8.98315 16.6763C9.05832 16.6011 9.10055 16.4992 9.10055 16.3929C9.10055 16.2866 9.05832 16.1846 8.98315 16.1095C8.90798 16.0343 8.80603 15.9921 8.69972 15.9921H6.88265C6.98699 13.2877 8.10803 10.7223 10.0217 8.80859C11.9354 6.89489 14.5008 5.77385 17.2052 5.66951V7.48658C17.2052 7.59289 17.2474 7.69484 17.3226 7.77001C17.3978 7.84518 17.4997 7.88741 17.606 7.88741C17.7123 7.88741 17.8143 7.84518 17.8895 7.77001C17.9646 7.69484 18.0069 7.59289 18.0069 7.48658V5.66951C20.7112 5.77385 23.2766 6.89489 25.1903 8.80859C27.104 10.7223 28.2251 13.2877 28.3294 15.9921H26.5123C26.406 15.9921 26.3041 16.0343 26.2289 16.1095C26.1537 16.1846 26.1115 16.2866 26.1115 16.3929C26.1115 16.4992 26.1537 16.6011 26.2289 16.6763C26.3041 16.7515 26.406 16.7937 26.5123 16.7937Z" fill="#DAA7EE"/>
<path d="M22.8918 10.5434L17.6089 15.8262L15.6663 13.8836C15.5903 13.8128 15.4898 13.7742 15.3859 13.7761C15.2821 13.7779 15.183 13.82 15.1096 13.8934C15.0361 13.9668 14.9941 14.0659 14.9922 14.1697C14.9904 14.2736 15.029 14.3741 15.0998 14.4501L17.3257 16.676C17.4008 16.751 17.5027 16.7932 17.6089 16.7932C17.7151 16.7932 17.817 16.751 17.8922 16.676L23.4583 11.1099C23.5291 11.0339 23.5676 10.9334 23.5658 10.8295C23.564 10.7257 23.5219 10.6266 23.4485 10.5532C23.375 10.4798 23.2759 10.4377 23.1721 10.4359C23.0683 10.434 22.9678 10.4726 22.8918 10.5434Z" fill="#DAA7EE"/>
</svg>
