<svg width="23" height="23" viewBox="0 0 23 23" fill="none" xmlns="http://www.w3.org/2000/svg">
<path d="M5.56225 12.2422C5.36553 12.2424 5.17693 12.3206 5.03784 12.4597C4.89874 12.5988 4.82051 12.7874 4.82031 12.9841V20.7744C4.82051 20.9712 4.89874 21.1597 5.03784 21.2988C5.17693 21.4379 5.36553 21.5162 5.56225 21.5164H7.08361C7.16911 21.9353 7.3967 22.3118 7.72786 22.5822C8.05902 22.8525 8.47342 23.0002 8.90095 23.0002C9.32848 23.0002 9.74289 22.8525 10.074 22.5822C10.4052 22.3118 10.6328 21.9353 10.7183 21.5164H16.3578C16.4433 21.9353 16.6709 22.3118 17.002 22.5822C17.3332 22.8525 17.7476 23.0002 18.1751 23.0002C18.6027 23.0002 19.0171 22.8525 19.3482 22.5822C19.6794 22.3118 19.907 21.9353 19.9925 21.5164H21.1429C21.4379 21.5161 21.7208 21.3987 21.9295 21.1901C22.1381 20.9814 22.2555 20.6985 22.2558 20.4035V17.6694C22.2548 17.441 22.1849 17.2182 22.0553 17.0302L19.8123 13.8253C19.7087 13.6804 19.5722 13.5622 19.4139 13.4805C19.2557 13.3987 19.0803 13.3557 18.9022 13.3551H15.5784V12.9841C15.5782 12.7874 15.4999 12.5988 15.3608 12.4597C15.2217 12.3206 15.0331 12.2424 14.8364 12.2422H5.56225ZM8.90095 22.2583C8.68084 22.2583 8.46567 22.193 8.28266 22.0707C8.09964 21.9485 7.957 21.7746 7.87277 21.5713C7.78853 21.3679 7.76649 21.1442 7.80944 20.9283C7.85238 20.7124 7.95837 20.5141 8.11401 20.3585C8.26966 20.2028 8.46796 20.0968 8.68384 20.0539C8.89972 20.0109 9.12349 20.033 9.32684 20.1172C9.5302 20.2015 9.70401 20.3441 9.8263 20.5271C9.94859 20.7101 10.0139 20.9253 10.0139 21.1454C10.0135 21.4405 9.89618 21.7233 9.68754 21.932C9.4789 22.1406 9.19601 22.258 8.90095 22.2583ZM14.8364 20.7744H10.7183C10.6328 20.3555 10.4052 19.9791 10.074 19.7087C9.74289 19.4383 9.32848 19.2906 8.90095 19.2906C8.47342 19.2906 8.05902 19.4383 7.72786 19.7087C7.3967 19.9791 7.16911 20.3555 7.08361 20.7744H5.56225V12.9841H14.8364V20.7744ZM18.1751 22.2583C17.955 22.2583 17.7399 22.193 17.5568 22.0707C17.3738 21.9485 17.2312 21.7746 17.147 21.5713C17.0627 21.3679 17.0407 21.1442 17.0836 20.9283C17.1266 20.7124 17.2326 20.5141 17.3882 20.3585C17.5438 20.2028 17.7421 20.0968 17.958 20.0539C18.1739 20.0109 18.3977 20.033 18.601 20.1172C18.8044 20.2015 18.9782 20.3441 19.1005 20.5271C19.2228 20.7101 19.288 20.9253 19.288 21.1454C19.2877 21.4405 19.1704 21.7233 18.9617 21.932C18.7531 22.1406 18.4702 22.258 18.1751 22.2583ZM19.8757 15.2099L20.9143 16.6938H17.4332V15.2099H19.8757ZM15.5784 14.097H18.9022C18.9618 14.0974 19.0204 14.1117 19.0733 14.139C19.1262 14.1663 19.1719 14.2057 19.2067 14.2541L19.3564 14.468H17.0622C16.9639 14.468 16.8695 14.5071 16.7999 14.5766C16.7304 14.6462 16.6913 14.7406 16.6913 14.839V17.0648C16.6913 17.1632 16.7304 17.2575 16.7999 17.3271C16.8695 17.3966 16.9639 17.4357 17.0622 17.4357H21.4336L21.4441 17.4508C21.4887 17.515 21.513 17.5912 21.5138 17.6694V20.4035C21.5137 20.5018 21.4746 20.5961 21.4051 20.6656C21.3355 20.7352 21.2412 20.7743 21.1429 20.7744H19.9925C19.907 20.3555 19.6794 19.9791 19.3482 19.7087C19.0171 19.4383 18.6027 19.2906 18.1751 19.2906C17.7476 19.2906 17.3332 19.4383 17.002 19.7087C16.6709 19.9791 16.4433 20.3555 16.3578 20.7744H15.5784V14.097Z" fill="#DAA7EE"/>
<path d="M0 14.4678H4.08064V15.2097H0V14.4678Z" fill="#DAA7EE"/>
<path d="M0.742188 16.6934H4.08089V17.4353H0.742188V16.6934Z" fill="#DAA7EE"/>
<path d="M1.48438 18.9194H4.08115V19.6614H1.48438V18.9194Z" fill="#DAA7EE"/>
<path d="M3.70993 8.16128C3.76687 8.16125 3.82305 8.14814 3.87412 8.12295C3.92519 8.09776 3.96979 8.06118 4.00447 8.01601C4.27797 7.65899 6.67767 4.48403 6.67767 2.96774C6.67767 2.18065 6.36499 1.42579 5.80843 0.869231C5.25188 0.312672 4.49702 0 3.70993 0C2.92283 0 2.16798 0.312672 1.61142 0.869231C1.05486 1.42579 0.742188 2.18065 0.742188 2.96774C0.742188 4.48403 3.14188 7.65899 3.4154 8.01601C3.45008 8.06117 3.49468 8.09776 3.54574 8.12295C3.59681 8.14814 3.65298 8.16125 3.70993 8.16128ZM3.70993 0.741935C4.30005 0.74258 4.86582 0.977291 5.2831 1.39457C5.70038 1.81185 5.93509 2.37762 5.93573 2.96774C5.93573 3.912 4.52558 6.0476 3.70993 7.1692C2.89427 6.0476 1.48412 3.912 1.48412 2.96774C1.48477 2.37762 1.71948 1.81185 2.13676 1.39457C2.55404 0.977291 3.1198 0.74258 3.70993 0.741935Z" fill="#DAA7EE"/>
<path d="M5.37777 2.96769C5.37777 2.63753 5.27986 2.31477 5.09643 2.04025C4.913 1.76573 4.65228 1.55176 4.34725 1.42541C4.04222 1.29906 3.70656 1.266 3.38274 1.33042C3.05892 1.39483 2.76147 1.55382 2.52801 1.78728C2.29454 2.02075 2.13555 2.3182 2.07114 2.64202C2.00673 2.96584 2.03979 3.30149 2.16614 3.60653C2.29248 3.91156 2.50645 4.17228 2.78097 4.35571C3.0555 4.53914 3.37825 4.63705 3.70842 4.63705C4.15101 4.63656 4.57533 4.46053 4.88829 4.14757C5.20125 3.83461 5.37729 3.41029 5.37777 2.96769ZM2.781 2.96769C2.781 2.78427 2.83539 2.60496 2.9373 2.45245C3.0392 2.29993 3.18405 2.18106 3.35351 2.11087C3.52297 2.04068 3.70945 2.02231 3.88935 2.0581C4.06925 2.09388 4.2345 2.18221 4.3642 2.31191C4.4939 2.44161 4.58223 2.60686 4.61801 2.78676C4.6538 2.96666 4.63543 3.15314 4.56524 3.3226C4.49505 3.49207 4.37618 3.63691 4.22366 3.73881C4.07115 3.84072 3.89184 3.89511 3.70842 3.89511C3.46254 3.89482 3.22681 3.79702 3.05295 3.62316C2.87909 3.4493 2.78129 3.21357 2.781 2.96769Z" fill="#DAA7EE"/>
<path d="M18.5459 8.90347C18.6028 8.90344 18.659 8.89033 18.7101 8.86514C18.7611 8.83995 18.8057 8.80336 18.8404 8.7582C19.1139 8.40118 21.5136 5.22622 21.5136 3.70993C21.5136 2.92283 21.2009 2.16798 20.6444 1.61142C20.0878 1.05486 19.333 0.742188 18.5459 0.742188C17.7588 0.742188 17.0039 1.05486 16.4474 1.61142C15.8908 2.16798 15.5781 2.92283 15.5781 3.70993C15.5781 5.22622 17.9778 8.40118 18.2513 8.7582C18.286 8.80336 18.3306 8.83995 18.3817 8.86514C18.4327 8.89033 18.4889 8.90344 18.5459 8.90347ZM18.5459 1.48412C19.136 1.48477 19.7018 1.71948 20.119 2.13676C20.5363 2.55404 20.771 3.1198 20.7717 3.70993C20.7717 4.65419 19.3615 6.78979 18.5459 7.91138C17.7302 6.78979 16.3201 4.65419 16.3201 3.70993C16.3207 3.1198 16.5554 2.55404 16.9727 2.13676C17.39 1.71948 17.9557 1.48477 18.5459 1.48412Z" fill="#DAA7EE"/>
<path d="M20.2137 3.70988C20.2137 3.37971 20.1158 3.05696 19.9324 2.78244C19.7489 2.50791 19.4882 2.29395 19.1832 2.1676C18.8782 2.04125 18.5425 2.00819 18.2187 2.0726C17.8949 2.13702 17.5974 2.29601 17.3639 2.52947C17.1305 2.76293 16.9715 3.06038 16.9071 3.38421C16.8427 3.70803 16.8757 4.04368 17.0021 4.34872C17.1284 4.65375 17.3424 4.91447 17.6169 5.0979C17.8914 5.28133 18.2142 5.37923 18.5444 5.37923C18.9869 5.37875 19.4113 5.20272 19.7242 4.88976C20.0372 4.5768 20.2132 4.15247 20.2137 3.70988ZM17.6169 3.70988C17.6169 3.52646 17.6713 3.34715 17.7732 3.19464C17.8751 3.04212 18.02 2.92325 18.1894 2.85306C18.3589 2.78286 18.5454 2.7645 18.7253 2.80028C18.9052 2.83607 19.0704 2.9244 19.2001 3.0541C19.3298 3.1838 19.4182 3.34905 19.454 3.52895C19.4897 3.70885 19.4714 3.89533 19.4012 4.06479C19.331 4.23425 19.2121 4.3791 19.0596 4.481C18.9071 4.58291 18.7278 4.6373 18.5444 4.6373C18.2985 4.63701 18.0628 4.53921 17.8889 4.36535C17.715 4.19148 17.6172 3.95576 17.6169 3.70988Z" fill="#DAA7EE"/>
<path d="M16.9466 10.0163C17.2076 10.0154 17.4684 10.0001 17.7277 9.97062L17.6445 9.2334C17.4124 9.25976 17.179 9.27345 16.9453 9.2744L16.9466 10.0163Z" fill="#DAA7EE"/>
<path d="M16.2508 9.23163C16.0236 9.20245 15.7988 9.15652 15.5783 9.09424L15.375 9.80771C15.6307 9.88004 15.8913 9.93346 16.1548 9.96752L16.2508 9.23163Z" fill="#DAA7EE"/>
<path d="M14.9453 8.85611C14.7392 8.75919 14.5413 8.64582 14.3535 8.51709L13.9375 9.13141C14.1575 9.28197 14.3893 9.41462 14.6306 9.5281L14.9453 8.85611Z" fill="#DAA7EE"/>
<path d="M6.28637 7.68555C6.05171 7.75379 5.81042 7.83015 5.5625 7.91464L5.80341 8.61661C6.03943 8.53557 6.26954 8.46264 6.49374 8.3978L6.28637 7.68555Z" fill="#DAA7EE"/>
<path d="M13.7605 8.08832C13.5496 7.92971 13.3281 7.78567 13.0976 7.65723L12.7422 8.30868C12.9435 8.4209 13.1368 8.54692 13.3207 8.68583L13.7605 8.08832Z" fill="#DAA7EE"/>
<path d="M7.9029 8.06331L7.76748 7.33398C7.53003 7.37796 7.28202 7.43047 7.02344 7.49153L7.19516 8.21324C7.44094 8.15481 7.67718 8.10533 7.9029 8.06331Z" fill="#DAA7EE"/>
<path d="M9.3318 7.87297L9.27268 7.1333C9.04235 7.15171 8.78931 7.17768 8.51562 7.21402L8.61339 7.94945C8.87321 7.91493 9.11346 7.89052 9.3318 7.87297Z" fill="#DAA7EE"/>
<path d="M12.1239 8.04022L12.3604 7.33712C12.2875 7.31262 12.2114 7.28898 12.1324 7.26622C11.9531 7.21441 11.771 7.17248 11.5871 7.14062L11.4609 7.87174C11.6185 7.8991 11.7744 7.93506 11.928 7.97945C11.9961 7.99879 12.0614 8.01905 12.1239 8.04022Z" fill="#DAA7EE"/>
<path d="M10.7764 7.80764L10.794 7.066C10.5706 7.06063 10.333 7.0658 10.0234 7.08257L10.0636 7.82347C10.3532 7.80766 10.573 7.80289 10.7764 7.80764Z" fill="#DAA7EE"/>
</svg>
