<svg width="45" height="43" viewBox="0 0 45 43" fill="none" xmlns="http://www.w3.org/2000/svg">
<path d="M32.1734 42.2609H2.57108C1.15343 42.2609 0.00390625 40.9754 0.00390625 39.3952V10.1684C0.00390625 9.96662 0.0840453 9.77315 0.226694 9.6305C0.369342 9.48785 0.562815 9.40771 0.76455 9.40771C0.966286 9.40771 1.15976 9.48785 1.30241 9.6305C1.44505 9.77315 1.52519 9.96662 1.52519 10.1684V39.3952C1.52519 40.1235 2.0063 40.7396 2.57108 40.7396H32.1696C32.7487 40.7396 33.2155 40.1368 33.2155 39.3952V29.8738C33.2155 29.6721 33.2957 29.4786 33.4383 29.3359C33.581 29.1933 33.7744 29.1131 33.9762 29.1131C34.1779 29.1131 34.3714 29.1933 34.514 29.3359C34.6567 29.4786 34.7368 29.6721 34.7368 29.8738V39.3952C34.7444 40.9754 33.5911 42.2609 32.1734 42.2609Z" fill="#DAA7EE"/>
<path d="M33.9847 16.2831C33.7829 16.2831 33.5895 16.203 33.4468 16.0603C33.3042 15.9177 33.224 15.7242 33.224 15.5225V2.86914C33.224 2.12752 32.7534 1.52471 32.1781 1.52471H10.1708C9.96906 1.52471 9.77559 1.44457 9.63294 1.30192C9.4903 1.15927 9.41016 0.965797 9.41016 0.764062C9.41016 0.562327 9.4903 0.368854 9.63294 0.226206C9.77559 0.0835572 9.96906 0.00341797 10.1708 0.00341797H32.1743C33.592 0.00341797 34.7415 1.28891 34.7415 2.86914V15.5225C34.7415 15.7235 34.6619 15.9164 34.5201 16.059C34.3782 16.2015 34.1857 16.2821 33.9847 16.2831Z" fill="#DAA7EE"/>
<path d="M33.3693 32.3201C33.2805 32.3202 33.1923 32.3048 33.1088 32.2745L28.4888 30.5925C28.3949 30.5583 28.3087 30.506 28.235 30.4384C28.1613 30.3709 28.1016 30.2895 28.0594 30.1989C28.0172 30.1083 27.9933 30.0103 27.989 29.9104C27.9847 29.8106 28.0001 29.7109 28.0344 29.617L37.5158 3.61815C37.5498 3.52417 37.602 3.43781 37.6693 3.364C37.7367 3.29019 37.818 3.23039 37.9085 3.188C37.999 3.14562 38.097 3.12149 38.1968 3.11698C38.2967 3.11248 38.3964 3.1277 38.4904 3.16176L43.1113 4.84374C43.2057 4.87798 43.2924 4.93057 43.3663 4.99848C43.4403 5.06639 43.5001 5.14827 43.5422 5.2394C43.5844 5.33054 43.6081 5.42912 43.612 5.52945C43.6159 5.62979 43.5998 5.72991 43.5648 5.82402L34.0843 31.82C34.0309 31.9666 33.9336 32.0933 33.8057 32.1828C33.6778 32.2722 33.5254 32.3202 33.3693 32.3201ZM29.7249 29.423L32.9148 30.5849L41.8752 6.01418L38.6843 4.85325L29.7249 29.423Z" fill="#DAA7EE"/>
<path d="M42.8534 6.32023C42.7646 6.32021 42.6764 6.30477 42.5929 6.27459L37.9729 4.59262C37.7835 4.52359 37.6292 4.38216 37.5439 4.19941C37.4587 4.01666 37.4495 3.80755 37.5184 3.61804L38.0728 2.09675C38.2153 1.70443 38.4338 1.34403 38.7157 1.03614C38.9975 0.728251 39.3373 0.478896 39.7155 0.302313C40.0938 0.125731 40.5031 0.0253805 40.9201 0.00699199C41.3371 -0.0113965 41.7537 0.0525368 42.146 0.195142L42.223 0.223666C42.6153 0.366247 42.9757 0.584709 43.2836 0.866576C43.5915 1.14844 43.8409 1.4882 44.0175 1.86644C44.194 2.24468 44.2944 2.65399 44.3128 3.07102C44.3312 3.48804 44.2672 3.9046 44.1246 4.29691L43.5703 5.8182C43.5168 5.96486 43.4196 6.09151 43.2916 6.18098C43.1637 6.27045 43.0114 6.3184 42.8553 6.31833L42.8534 6.32023ZM39.208 3.42408L42.3989 4.58786L42.6927 3.77968C42.8431 3.36675 42.8233 2.911 42.6376 2.51268C42.452 2.11435 42.1158 1.80605 41.7029 1.65558L41.6259 1.628C41.4215 1.55357 41.2045 1.52013 40.9871 1.52959C40.7698 1.53905 40.5565 1.59123 40.3593 1.68314C40.1622 1.77505 39.985 1.9049 39.8381 2.06527C39.6911 2.22564 39.5772 2.41339 39.5028 2.61779L39.208 3.42408Z" fill="#DAA7EE"/>
<path d="M28.9327 37.3232C28.7345 37.3233 28.5442 37.2461 28.4021 37.1079C28.26 36.9697 28.1775 36.7816 28.1721 36.5835L27.9885 29.8984C27.9853 29.7745 28.0123 29.6517 28.0674 29.5406C28.1224 29.4295 28.2037 29.3336 28.3043 29.2612C28.4049 29.1887 28.5216 29.1419 28.6444 29.1249C28.7672 29.1079 28.8923 29.1211 29.0088 29.1634L33.6297 30.8445C33.7467 30.8866 33.8516 30.9569 33.9352 31.049C34.0188 31.1412 34.0785 31.2524 34.1091 31.373C34.1397 31.4936 34.1403 31.6199 34.1107 31.7407C34.0812 31.8616 34.0224 31.9734 33.9396 32.0662L29.5022 37.0675C29.4308 37.148 29.3431 37.2124 29.2449 37.2565C29.1467 37.3006 29.0403 37.3233 28.9327 37.3232ZM29.5412 30.9747L29.641 34.6182L32.0589 31.8913L29.5412 30.9747Z" fill="#DAA7EE"/>
<path d="M10.1685 10.9292H0.764122C0.613004 10.9298 0.465106 10.8855 0.339291 10.8018C0.213476 10.7181 0.115448 10.5988 0.057709 10.4591C-2.9634e-05 10.3195 -0.0148612 10.1658 0.015106 10.0177C0.0450732 9.86956 0.118481 9.73373 0.225966 9.6275L9.63133 0.222137C9.73776 0.115965 9.87326 0.0437102 10.0207 0.0144985C10.1682 -0.0147131 10.321 0.000428052 10.4599 0.0580099C10.5987 0.115592 10.7174 0.213032 10.801 0.338025C10.8845 0.463019 10.9291 0.60996 10.9292 0.760293V10.1647C10.9297 10.2649 10.9104 10.3642 10.8724 10.457C10.8344 10.5497 10.7784 10.634 10.7077 10.705C10.6371 10.7761 10.553 10.8324 10.4605 10.8709C10.368 10.9094 10.2687 10.9292 10.1685 10.9292ZM2.60013 9.40786H9.40789V2.6001L2.60013 9.40786Z" fill="#DAA7EE"/>
<path d="M30.5617 5.43437H13.5927C13.3909 5.43437 13.1975 5.35423 13.0548 5.21159C12.9122 5.06894 12.832 4.87547 12.832 4.67373C12.832 4.47199 12.9122 4.27852 13.0548 4.13587C13.1975 3.99323 13.3909 3.91309 13.5927 3.91309H30.5617C30.7634 3.91309 30.9569 3.99323 31.0995 4.13587C31.2422 4.27852 31.3223 4.47199 31.3223 4.67373C31.3223 4.87547 31.2422 5.06894 31.0995 5.21159C30.9569 5.35423 30.7634 5.43437 30.5617 5.43437Z" fill="#DAA7EE"/>
<path d="M30.5617 10.137H13.5927C13.3909 10.137 13.1975 10.0569 13.0548 9.91422C12.9122 9.77158 12.832 9.5781 12.832 9.37637C12.832 9.17463 12.9122 8.98116 13.0548 8.83851C13.1975 8.69586 13.3909 8.61572 13.5927 8.61572H30.5617C30.7634 8.61572 30.9569 8.69586 31.0995 8.83851C31.2422 8.98116 31.3223 9.17463 31.3223 9.37637C31.3223 9.5781 31.2422 9.77158 31.0995 9.91422C30.9569 10.0569 30.7634 10.137 30.5617 10.137Z" fill="#DAA7EE"/>
<path d="M30.0801 14.8387H4.6708C4.46906 14.8387 4.27559 14.7585 4.13294 14.6159C3.9903 14.4732 3.91016 14.2798 3.91016 14.078C3.91016 13.8763 3.9903 13.6828 4.13294 13.5402C4.27559 13.3975 4.46906 13.3174 4.6708 13.3174H30.0801C30.2818 13.3174 30.4753 13.3975 30.618 13.5402C30.7606 13.6828 30.8408 13.8763 30.8408 14.078C30.8408 14.2798 30.7606 14.4732 30.618 14.6159C30.4753 14.7585 30.2818 14.8387 30.0801 14.8387Z" fill="#DAA7EE"/>
<path d="M30.0801 19.5413H4.6708C4.46906 19.5413 4.27559 19.4612 4.13294 19.3185C3.9903 19.1759 3.91016 18.9824 3.91016 18.7807C3.91016 18.5789 3.9903 18.3855 4.13294 18.2428C4.27559 18.1002 4.46906 18.02 4.6708 18.02H30.0801C30.2818 18.02 30.4753 18.1002 30.618 18.2428C30.7606 18.3855 30.8408 18.5789 30.8408 18.7807C30.8408 18.9824 30.7606 19.1759 30.618 19.3185C30.4753 19.4612 30.2818 19.5413 30.0801 19.5413Z" fill="#DAA7EE"/>
<path d="M27.3884 24.2439H4.6708C4.46906 24.2439 4.27559 24.1638 4.13294 24.0212C3.9903 23.8785 3.91016 23.685 3.91016 23.4833C3.91016 23.2816 3.9903 23.0881 4.13294 22.9454C4.27559 22.8028 4.46906 22.7227 4.6708 22.7227H27.3884C27.5901 22.7227 27.7836 22.8028 27.9262 22.9454C28.0689 23.0881 28.149 23.2816 28.149 23.4833C28.149 23.685 28.0689 23.8785 27.9262 24.0212C27.7836 24.1638 27.5901 24.2439 27.3884 24.2439Z" fill="#DAA7EE"/>
<path d="M23.7953 28.9466H4.6708C4.46906 28.9466 4.27559 28.8664 4.13294 28.7238C3.9903 28.5811 3.91016 28.3877 3.91016 28.1859C3.91016 27.9842 3.9903 27.7907 4.13294 27.6481C4.27559 27.5054 4.46906 27.4253 4.6708 27.4253H23.7953C23.997 27.4253 24.1905 27.5054 24.3331 27.6481C24.4758 27.7907 24.5559 27.9842 24.5559 28.1859C24.5559 28.3877 24.4758 28.5811 24.3331 28.7238C24.1905 28.8664 23.997 28.9466 23.7953 28.9466Z" fill="#DAA7EE"/>
<path d="M22.8977 33.6487H4.6708C4.46906 33.6487 4.27559 33.5686 4.13294 33.4259C3.9903 33.2833 3.91016 33.0898 3.91016 32.8881C3.91016 32.6863 3.9903 32.4929 4.13294 32.3502C4.27559 32.2076 4.46906 32.1274 4.6708 32.1274H22.8977C23.0995 32.1274 23.2929 32.2076 23.4356 32.3502C23.5782 32.4929 23.6584 32.6863 23.6584 32.8881C23.6584 33.0898 23.5782 33.2833 23.4356 33.4259C23.2929 33.5686 23.0995 33.6487 22.8977 33.6487Z" fill="#DAA7EE"/>
<path d="M27.1355 38.3514H4.6708C4.46906 38.3514 4.27559 38.2712 4.13294 38.1286C3.9903 37.9859 3.91016 37.7925 3.91016 37.5907C3.91016 37.389 3.9903 37.1955 4.13294 37.0529C4.27559 36.9102 4.46906 36.8301 4.6708 36.8301H27.1355C27.3372 36.8301 27.5307 36.9102 27.6733 37.0529C27.816 37.1955 27.8961 37.389 27.8961 37.5907C27.8961 37.7925 27.816 37.9859 27.6733 38.1286C27.5307 38.2712 27.3372 38.3514 27.1355 38.3514Z" fill="#DAA7EE"/>
</svg>
