<svg width="54" height="54" viewBox="0 0 54 54" fill="none" xmlns="http://www.w3.org/2000/svg">
<path d="M50.5453 10.3353C50.5983 10.5423 50.6251 10.7551 50.625 10.9688V37.125H3.375V10.9688C3.37578 10.2977 3.64272 9.65428 4.11725 9.17975C4.59178 8.70522 5.23516 8.43828 5.90625 8.4375H6.75V35.4375H8.4375V5.90625C8.43828 5.23516 8.70522 4.59178 9.17975 4.11725C9.65428 3.64272 10.2977 3.37578 10.9688 3.375H43.0312C43.2447 3.37485 43.4573 3.40164 43.6641 3.45474L44.0859 1.8206C43.7414 1.73201 43.387 1.68729 43.0312 1.6875H10.9688C9.85025 1.68876 8.77793 2.13363 7.98703 2.92453C7.19613 3.71543 6.75126 4.78775 6.75 5.90625V6.75H5.90625C4.78775 6.75126 3.71543 7.19613 2.92453 7.98703C2.13363 8.77793 1.68876 9.85025 1.6875 10.9688V41.3438C1.68876 42.4622 2.13363 43.5346 2.92453 44.3255C3.71543 45.1164 4.78775 45.5612 5.90625 45.5625H21.5637L19.6653 50.625H17.7188V52.3125H36.2812V50.625H34.3347L32.4363 45.5625H48.0938C49.2122 45.5612 50.2846 45.1164 51.0755 44.3255C51.8664 43.5346 52.3112 42.4622 52.3125 41.3438V10.9688C52.3126 10.6132 52.2679 10.2591 52.1794 9.9147L50.5453 10.3353ZM32.5325 50.625H21.4675L23.366 45.5625H30.634L32.5325 50.625ZM50.625 41.3438C50.6242 42.0148 50.3573 42.6582 49.8828 43.1328C49.4082 43.6073 48.7648 43.8742 48.0938 43.875H5.90625C5.23516 43.8742 4.59178 43.6073 4.11725 43.1328C3.64272 42.6582 3.37578 42.0148 3.375 41.3438V38.8125H50.625V41.3438Z" fill="#DAA7EE"/>
<path d="M45.5625 16.0312H47.25V35.4375H45.5625V16.0312Z" fill="#DAA7EE"/>
<path d="M10.9688 5.0625H12.6562V6.75H10.9688V5.0625Z" fill="#DAA7EE"/>
<path d="M14.3438 5.0625H16.0312V6.75H14.3438V5.0625Z" fill="#DAA7EE"/>
<path d="M17.7188 5.0625H19.4062V6.75H17.7188V5.0625Z" fill="#DAA7EE"/>
<path d="M10.125 9.28125V34.5938C10.125 34.8175 10.2139 35.0321 10.3721 35.1904C10.5304 35.3486 10.745 35.4375 10.9688 35.4375H43.0312C43.255 35.4375 43.4696 35.3486 43.6279 35.1904C43.7861 35.0321 43.875 34.8175 43.875 34.5938V21.0938H42.1875V26.6505L39.4091 23.8721L38.2159 25.0654L42.1875 29.037V33.75H11.8125V29.139L18.5625 24.6391L20.6257 26.0146L21.5618 24.6105L19.0306 22.923C18.892 22.8306 18.7291 22.7813 18.5625 22.7813C18.3959 22.7813 18.233 22.8306 18.0944 22.923L11.8125 27.111V10.125H35.4375V8.4375H10.9688C10.745 8.4375 10.5304 8.52639 10.3721 8.68463C10.2139 8.84286 10.125 9.05747 10.125 9.28125Z" fill="#DAA7EE"/>
<path d="M16.0312 16.4531C16.0313 17.371 16.3034 18.2682 16.8133 19.0313C17.3233 19.7945 18.048 20.3893 18.896 20.7405C19.7439 21.0917 20.677 21.1836 21.5772 21.0046C22.4774 20.8255 23.3043 20.3835 23.9533 19.7345C24.6023 19.0855 25.0443 18.2587 25.2233 17.3585C25.4024 16.4583 25.3105 15.5252 24.9593 14.6772C24.608 13.8293 24.0132 13.1045 23.2501 12.5946C22.4869 12.0847 21.5897 11.8125 20.6719 11.8125C19.4415 11.8139 18.262 12.3032 17.392 13.1732C16.522 14.0432 16.0326 15.2228 16.0312 16.4531ZM23.625 16.4531C23.625 17.0372 23.4518 17.6082 23.1273 18.0938C22.8028 18.5794 22.3416 18.9579 21.802 19.1815C21.2624 19.405 20.6686 19.4635 20.0957 19.3495C19.5229 19.2356 18.9967 18.9543 18.5837 18.5413C18.1707 18.1283 17.8894 17.6021 17.7755 17.0293C17.6615 16.4564 17.72 15.8626 17.9435 15.323C18.1671 14.7834 18.5456 14.3222 19.0312 13.9977C19.5168 13.6732 20.0878 13.5 20.6719 13.5C21.4548 13.5009 22.2054 13.8123 22.7591 14.3659C23.3127 14.9196 23.6241 15.6702 23.625 16.4531Z" fill="#DAA7EE"/>
<path d="M28.9554 19.5646L26.6201 20.4409C25.2625 20.9459 24.1157 21.8955 23.3662 23.135C22.6167 24.3745 22.3086 25.8312 22.492 27.2681C22.5701 27.8779 22.507 28.4976 22.3075 29.0791C22.1079 29.6607 21.7773 30.1886 21.3412 30.622C21.2231 30.7399 21.1427 30.8902 21.11 31.0539C21.0774 31.2176 21.094 31.3873 21.1579 31.5415C21.2217 31.6957 21.3298 31.8276 21.4685 31.9203C21.6073 32.0131 21.7704 32.0626 21.9373 32.0627H27.694C29.1303 32.0643 30.5258 31.5849 31.6579 30.701C32.79 29.8171 33.5935 28.5795 33.9403 27.1857L34.4826 25.0166C38.3516 22.7567 41.7167 19.7282 44.3705 16.118L51.7764 6.06683C52.1665 5.53734 52.3538 4.88555 52.3043 4.22976C52.2549 3.57398 51.972 2.95764 51.5069 2.49262C51.0419 2.0276 50.4256 1.74471 49.7698 1.69528C49.114 1.64585 48.4622 1.83317 47.9327 2.22323L37.8821 9.62946C34.2569 12.2942 31.2184 15.676 28.9554 19.5646ZM31.2958 18.9891L35.0106 22.7039C34.6415 22.9465 34.2671 23.1835 33.886 23.4115L30.5881 20.1136C30.8162 19.7328 31.0521 19.358 31.2958 18.9894V18.9891ZM23.5861 30.3752C24.1095 29.3535 24.3117 28.1974 24.1662 27.0587C24.0366 26.0368 24.2433 25.0004 24.755 24.1064L25.1288 24.1687C25.4162 24.2159 25.6775 24.3638 25.8658 24.5861C26.054 24.8083 26.157 25.0904 26.1562 25.3816C26.1554 26.0324 26.3726 26.6646 26.7731 27.1775C27.1736 27.6904 27.7343 28.0545 28.3657 28.2116L28.8974 28.3445C29.1229 28.4016 29.3276 28.5212 29.4881 28.6896C29.6485 28.8579 29.7582 29.0682 29.8044 29.2961L29.9108 29.8267C29.2275 30.1873 28.4664 30.3756 27.6938 30.3752H23.5861ZM31.3709 28.6342C31.2169 28.1651 30.947 27.7426 30.5861 27.4057C30.2253 27.0688 29.7851 26.8285 29.3066 26.7072L28.7749 26.5742C28.5087 26.508 28.2724 26.3545 28.1036 26.1384C27.9348 25.9222 27.8433 25.6557 27.8436 25.3814C27.8451 24.7995 27.6718 24.2306 27.3463 23.7482C27.0208 23.2658 26.558 22.8923 26.0178 22.6759C26.3827 22.4019 26.7849 22.1814 27.2122 22.0213L29.3185 21.2313L32.8155 24.7282L32.3032 26.7769C32.1335 27.4573 31.815 28.0916 31.3709 28.6342ZM48.9338 3.58209C49.1383 3.43153 49.3899 3.35925 49.6431 3.37836C49.8963 3.39748 50.1343 3.50672 50.3138 3.68627C50.4933 3.86582 50.6026 4.10377 50.6217 4.35696C50.6408 4.61016 50.5685 4.8618 50.4179 5.06625L43.012 15.1174C41.1586 17.6388 38.9356 19.8665 36.4182 21.7252L32.2747 17.5818C34.1337 15.0643 36.3615 12.8414 38.883 10.9879L48.9338 3.58209Z" fill="#DAA7EE"/>
<path d="M40.8811 13.6371L39.8686 12.2871C39.3776 12.6555 38.8922 13.0428 38.4258 13.4385L39.5174 14.7252C39.9578 14.3517 40.417 13.9852 40.8811 13.6371Z" fill="#DAA7EE"/>
<path d="M35.8955 18.4078C36.641 17.4973 37.4421 16.6338 38.2942 15.8223L37.1306 14.6001C36.2279 15.4599 35.3794 16.3747 34.5898 17.3393L35.8955 18.4078Z" fill="#DAA7EE"/>
</svg>
