<svg width="23" height="23" viewBox="0 0 23 23" fill="none" xmlns="http://www.w3.org/2000/svg">
<g clip-path="url(#clip0_2164_3443)">
<path d="M22.6494 16.8665C21.7443 16.8056 20.8357 16.8184 19.9326 16.9048V16.4131C20.195 16.3271 20.4165 16.1474 20.5547 15.9083C20.7511 15.5686 20.7475 15.1492 20.5455 14.8129C20.382 14.5403 20.2029 14.2774 20.0089 14.0256C19.8949 13.8895 19.7265 13.8108 19.549 13.8108C19.3714 13.8108 19.203 13.8895 19.089 14.0256C18.8952 14.2772 18.716 14.5399 18.5524 14.8121C18.3504 15.1486 18.3469 15.5681 18.5432 15.9079C18.6815 16.1473 18.9033 16.3272 19.166 16.4131V16.9881C17.3381 17.1938 15.5735 17.7802 13.9859 18.7094C12.6809 18.4663 11.4105 18.0648 10.2028 17.5139C11.0179 17.1988 11.7998 16.8038 12.5371 16.3346L12.5754 16.3108C12.6191 16.2843 12.6635 16.2571 12.6976 16.2341C18.1143 12.6956 22.3895 13.0337 22.5696 13.0513C22.7805 13.0703 22.9668 12.9149 22.9859 12.704C23.0049 12.4932 22.8495 12.3068 22.6386 12.2878C22.5095 12.2759 20.3746 12.1069 17.2496 13.1552V12.2226C17.7598 12.1106 18.2003 11.7912 18.4654 11.341C18.8381 10.7166 18.8585 9.94323 18.5194 9.30002C18.2081 8.71974 17.8645 8.15734 17.4903 7.61546C17.3509 7.40723 17.1168 7.28223 16.8663 7.28223C16.6158 7.28223 16.3817 7.40723 16.2423 7.61546C15.8681 8.15734 15.5245 8.71974 15.2132 9.30002C14.8741 9.94323 14.8945 10.7166 15.2672 11.341C15.5323 11.7912 15.9728 12.1106 16.483 12.2226V13.4307C15.9698 13.627 15.4351 13.8547 14.8813 14.1207C14.3082 13.1776 13.2717 12.6162 12.1687 12.6514C11.0657 12.6867 10.0672 13.3131 9.55544 14.2908C8.69766 13.8315 7.81092 13.4284 6.90077 13.0843V12.0459C7.26774 11.9386 7.58059 11.6965 7.7766 11.3683C8.10867 10.8257 8.13975 10.151 7.85902 9.58021C7.62209 9.10508 7.35991 8.64293 7.07366 8.19579C6.95561 8.00071 6.74419 7.8815 6.51615 7.8815C6.28811 7.8815 6.07668 8.00071 5.95864 8.19579C5.67315 8.64289 5.41187 9.10504 5.17597 9.58021C4.89569 10.1512 4.92736 10.826 5.25992 11.3683C5.45558 11.6962 5.76779 11.9382 6.13422 12.0459V12.8125C5.25754 12.5179 4.36091 12.2863 3.45121 12.1195V11.6921C3.68505 11.6023 3.88322 11.4386 4.01582 11.226C4.26061 10.8271 4.28401 10.3305 4.07789 9.91021C3.91785 9.58892 3.74066 9.27648 3.54702 8.97424C3.43841 8.81663 3.25928 8.72253 3.06789 8.72253C2.8765 8.72253 2.69738 8.81663 2.58877 8.97424C2.39522 9.27626 2.21803 9.58847 2.0579 9.90945C1.85177 10.3299 1.87522 10.8265 2.11997 11.2256C2.25248 11.4384 2.45065 11.6021 2.68458 11.6921V11.9987C1.92342 11.8874 1.15332 11.8489 0.384841 11.8838C0.24789 11.8938 0.126704 11.9761 0.0668753 12.0996C0.0070463 12.2232 0.0177365 12.3693 0.0948584 12.4829C0.17198 12.5965 0.303856 12.6603 0.440807 12.6503C0.869716 12.6193 4.78039 12.4276 9.77773 15.2835C10.3154 15.59 10.8737 15.8589 11.4485 16.0884C10.8111 16.4383 10.1442 16.7315 9.45541 16.9646C9.06486 16.3023 8.66124 15.7128 8.37184 15.3111C8.20973 15.0847 7.94845 14.9504 7.67001 14.9504C7.39162 14.9504 7.1303 15.0848 6.96819 15.3111C6.8674 15.4514 6.75124 15.6177 6.62781 15.7978C4.61218 15.1031 2.47877 14.8149 0.351063 14.95C0.214112 14.962 0.094005 15.0463 0.0359727 15.1709C-0.0220597 15.2955 -0.00921355 15.4416 0.0697051 15.5541C0.148624 15.6667 0.281577 15.7286 0.418528 15.7165C2.37245 15.601 4.33073 15.8519 6.19239 16.4563C6.01762 16.733 5.83863 17.0312 5.66691 17.3379C5.25673 18.0659 5.26724 18.9577 5.69449 19.6759C6.03774 20.2671 6.62907 20.6721 7.3043 20.7786V21.9067C6.32489 22.1118 5.3272 22.2172 4.32655 22.2213L0.384796 22.2324C0.173103 22.2324 0.00152154 22.404 0.00152154 22.6157C0.00152154 22.8274 0.173103 22.999 0.384796 22.999L4.32767 22.9879C5.45171 22.9836 6.57194 22.8575 7.6688 22.6119C7.67496 22.6119 7.6803 22.6157 7.68681 22.6157C7.7461 22.6147 7.80432 22.5995 7.8566 22.5716C9.08732 22.2853 10.2752 21.8388 11.3897 21.2435C12.2562 20.7727 13.0937 20.2503 13.8976 19.6793C14.0161 19.5931 14.1383 19.5141 14.2667 19.4348C17.6941 17.232 22.5324 17.6272 22.5807 17.6333C22.7925 17.6523 22.9796 17.4959 22.9985 17.2841C23.0174 17.0724 22.8612 16.8854 22.6494 16.8665ZM15.9238 10.9481C15.6857 10.5552 15.6731 10.0656 15.8908 9.66101C16.2315 9.01749 16.6137 8.43066 16.8586 8.0512C17.2159 8.56913 17.5442 9.10656 17.8418 9.66101C18.0594 10.0656 18.0469 10.5552 17.8088 10.9481C17.6178 11.2893 17.2573 11.5007 16.8663 11.5007C16.4753 11.5007 16.1148 11.2893 15.9238 10.9481ZM3.36493 10.8205C3.30492 10.9298 3.1924 11.0001 3.06789 11.006C2.94334 11 2.83087 10.9298 2.77086 10.8205C2.66508 10.6465 2.65556 10.4305 2.74557 10.2479C2.85176 10.0332 2.96557 9.82968 3.06794 9.6576C3.17026 9.82968 3.28412 10.0332 3.39031 10.2483C3.48023 10.4308 3.47071 10.6466 3.36493 10.8205ZM5.90919 10.9638C5.7156 10.6468 5.69781 10.2526 5.86203 9.91938C6.08396 9.469 6.32813 9.05316 6.51745 8.74921C6.70682 9.05316 6.95094 9.46904 7.17288 9.91938C7.33714 10.2526 7.31935 10.6468 7.12571 10.9638C7.00731 11.1902 6.77294 11.3321 6.51745 11.3321C6.26197 11.3321 6.02764 11.1902 5.90919 10.9638ZM10.2293 14.6561C10.6249 13.8959 11.4099 13.4184 12.2668 13.4169C13.0464 13.4161 13.773 13.8114 14.1959 14.4663C13.5788 14.7902 12.9426 15.1597 12.2906 15.5848C11.577 15.3376 10.8871 15.0268 10.2293 14.6561ZM7.66736 20.0427C7.12648 20.0427 6.62651 19.7546 6.35535 19.2866V19.2877C6.06685 18.8034 6.05984 18.2017 6.33693 17.7109C6.7167 17.0371 7.13429 16.3854 7.58759 15.7588C7.6056 15.7325 7.63543 15.7168 7.66732 15.7168C7.69921 15.7168 7.72903 15.7325 7.74705 15.7588C8.20035 16.385 8.61789 17.0364 8.99771 17.7098C9.27484 18.2007 9.26779 18.8023 8.97929 19.2866C8.70817 19.7546 8.20825 20.0427 7.66736 20.0427ZM11.0276 20.5687C10.0907 21.0685 9.0985 21.4571 8.0713 21.7266V20.771C8.72996 20.6551 9.30399 20.2545 9.64011 19.6764C9.89613 19.244 10.0061 18.7407 9.95362 18.241C10.9629 18.6921 12.0119 19.0488 13.087 19.3065C12.4227 19.7623 11.7353 20.1836 11.0276 20.5687ZM19.5493 15.7052C19.4142 15.7052 19.2874 15.6394 19.2097 15.5288C19.1499 15.428 19.1513 15.3022 19.2132 15.2026C19.3236 15.0159 19.4431 14.8389 19.5493 14.6917C19.6551 14.8389 19.7751 15.0159 19.8855 15.203C19.9473 15.3024 19.9486 15.428 19.8889 15.5288C19.8112 15.6394 19.6845 15.7052 19.5493 15.7052Z" fill="#DAA7EE"/>
<path d="M5.94442 6.13448H6.92221C7.01622 6.79282 7.57912 7.28246 8.24416 7.28435H11.6938C12.4047 7.28421 12.9922 6.72945 13.0329 6.01963C13.0736 5.30981 12.5534 4.69153 11.8471 4.61014C11.6675 3.71486 10.8821 3.07004 9.969 3.06815C9.7932 3.07022 9.61852 3.09681 9.45004 3.14711C9.14586 2.35088 8.35115 1.8523 7.50186 1.92498C6.65258 1.99765 5.95412 2.62392 5.78959 3.46027C5.08296 3.54166 4.56274 4.16043 4.60384 4.87052C4.64494 5.58061 5.23312 6.1352 5.94442 6.13448ZM9.96896 3.83474C10.604 3.83474 11.1188 4.34958 11.1188 4.98461C11.1188 5.1963 11.2904 5.36789 11.5021 5.36789H11.6938C12.0113 5.36789 12.2687 5.6253 12.2687 5.94282C12.2695 6.09554 12.2092 6.24228 12.1012 6.35026C11.9932 6.45824 11.8465 6.51856 11.6938 6.51775H8.24416C7.92664 6.51775 7.66922 6.26033 7.66922 5.94282C7.66922 5.6253 7.92664 5.36789 8.24416 5.36789H8.43582C8.64751 5.36789 8.81909 5.1963 8.81909 4.98461C8.81909 4.34958 9.33388 3.83474 9.96896 3.83474ZM5.53698 4.38551C5.64496 4.27753 5.79171 4.21721 5.94442 4.21802H6.13608C6.34777 4.21802 6.51936 4.04639 6.51936 3.83474C6.52007 3.26659 6.93569 2.7841 7.49746 2.69925C8.05924 2.6144 8.59882 2.95258 8.76735 3.49517C8.41843 3.77631 8.17907 4.17086 8.09086 4.61014C7.63019 4.65901 7.2294 4.94693 7.03603 5.36789H5.94442C5.62691 5.36789 5.36949 5.11047 5.36949 4.79295C5.36863 4.64023 5.42896 4.49354 5.53698 4.38551Z" fill="#DAA7EE"/>
<path d="M15.9068 4.21789H19.3564C20.0674 4.21776 20.6549 3.66299 20.6955 2.95317C20.7362 2.24335 20.2161 1.62507 19.5098 1.54369C19.3315 0.646879 18.5445 0.000976562 17.6302 0.000976562C16.7158 0.000976562 15.9288 0.646879 15.7505 1.54369C15.0436 1.62512 14.5233 2.24434 14.5648 2.9547C14.6063 3.6651 15.1953 4.21942 15.9068 4.21789ZM15.4994 2.46897C15.6074 2.36094 15.7541 2.30062 15.9068 2.30148H16.0985C16.3102 2.30148 16.4818 2.12989 16.4818 1.9182C16.4818 1.28317 16.9966 0.768333 17.6316 0.768333C18.2667 0.768333 18.7815 1.28317 18.7815 1.9182C18.7815 2.12989 18.9531 2.30148 19.1648 2.30148H19.3564C19.5619 2.30148 19.7517 2.41107 19.8543 2.58894C19.957 2.76681 19.957 2.98601 19.8543 3.16388C19.7517 3.34175 19.5619 3.45134 19.3564 3.45134H15.9068C15.6737 3.45206 15.4633 3.31197 15.374 3.09668C15.2847 2.88135 15.3342 2.63341 15.4994 2.46897Z" fill="#DAA7EE"/>
</g>
<defs>
<clipPath id="clip0_2164_3443">
<rect width="23" height="23" fill="white"/>
</clipPath>
</defs>
</svg>
