<svg width="21" height="22" viewBox="0 0 21 22" fill="none" xmlns="http://www.w3.org/2000/svg">
<path fill-rule="evenodd" clip-rule="evenodd" d="M13.0563 20.387H12.1023C12.05 20.5942 11.9363 20.7771 11.7784 20.9077C11.6206 21.0383 11.4274 21.1093 11.2285 21.1098H8.29748C8.09863 21.1093 7.90544 21.0383 7.7476 20.9077C7.58975 20.7771 7.47597 20.5942 7.42374 20.387H6.43498C6.35181 20.8415 6.12513 21.2508 5.79362 21.545C5.46212 21.8392 5.04635 22 4.61728 22C4.1882 22 3.77243 21.8392 3.44093 21.545C3.10942 21.2508 2.88274 20.8415 2.79957 20.387H1.91208C1.85004 20.3856 1.79054 20.3601 1.74455 20.3151L0.145715 19.0182C0.101988 18.9951 0.0651475 18.9592 0.0393865 18.9146C0.0136255 18.87 -2.11015e-05 18.8185 2.44914e-08 18.7659V10.0013C2.44914e-08 9.96439 0.0067255 9.92788 0.0197925 9.89381C0.0328595 9.85975 0.0520121 9.82879 0.0761568 9.80272C0.100301 9.77664 0.128965 9.75596 0.160512 9.74185C0.192058 9.72774 0.22587 9.72048 0.260015 9.72048H2.06654C1.64101 8.79846 1.30149 7.88589 1.30149 7.32075C1.30176 6.88994 1.39188 6.46472 1.56516 6.07667C1.73843 5.68861 1.99041 5.34768 2.3024 5.07919C2.61438 4.81069 2.97835 4.62151 3.3673 4.52571C3.75625 4.4299 4.16019 4.42993 4.54913 4.52577C5.39584 2.97847 6.64317 1.7324 8.13747 0.941067C9.63177 0.149729 11.3078 -0.15232 12.9591 0.0721254C12.967 0.072835 12.975 0.0739458 12.9829 0.0754576C14.3829 0.26984 15.7164 0.83625 16.8639 1.72394C18.0114 2.61162 18.937 3.79286 19.5579 5.1618C20.1787 6.53075 20.4754 8.04464 20.4214 9.56783C20.3673 11.091 19.9641 12.5759 19.248 13.8895C19.3967 14.2745 19.5247 14.6684 19.6315 15.0693L19.848 15.8722C19.8535 15.8874 19.8578 15.9032 19.8609 15.9192L20.601 18.6641C20.6278 18.7497 20.6186 18.8418 20.6186 18.9427C20.8552 18.9427 21 19.1695 21 19.4058V19.9035C21 20.1395 20.8554 20.3667 20.6186 20.3667V20.5435C20.6186 20.5803 20.6118 20.6168 20.5988 20.6509C20.5857 20.685 20.5666 20.7159 20.5424 20.742C20.5183 20.7681 20.4896 20.7887 20.4581 20.8028C20.4265 20.8169 20.3927 20.8242 20.3586 20.8242H19.5531C19.0214 22.0913 17.4735 22.4058 16.555 21.414C16.3971 21.2436 16.2689 21.0438 16.1767 20.8242H13.3162C13.2473 20.8242 13.1812 20.7946 13.1324 20.742C13.0837 20.6893 13.0563 20.6179 13.0563 20.5435V20.387ZM16.2262 11.2477C16.062 10.5396 16.1919 10.0401 16.3988 9.39271C16.6773 8.52059 16.6559 8.40919 16.075 7.69641C15.8489 7.41873 15.6349 7.15636 15.571 6.85664C15.4304 6.19694 16.0442 5.71187 16.3679 5.20338C16.6649 4.73682 16.7264 4.16534 17.2044 3.96508C17.4881 3.84623 17.8781 3.90274 18.3049 4.01997C17.6728 3.10744 16.8796 2.33924 15.9709 1.75977C15.0623 1.18029 14.0563 0.801021 13.0111 0.643884C12.7991 0.820957 12.5011 1.0588 12.3079 1.2759C12.2011 1.396 12.1185 1.50125 12.1281 1.53151C12.1626 1.64018 12.9795 1.92777 13.4532 2.72293C13.9712 3.59251 14.2296 5.30543 13.2289 5.8105C12.3661 6.24591 10.5907 5.58136 10.0831 5.90232C9.90797 6.01312 9.87004 6.35856 9.82877 6.73459C9.76448 7.32065 9.69398 7.96253 9.1284 8.34935C8.46256 8.80476 7.16754 8.74834 6.28468 8.67827C6.16078 9.0115 6.00958 9.36522 5.84565 9.72048H11.0191C11.0462 9.70872 11.6834 8.88973 13.3403 8.7818C14.1174 8.73122 14.9713 8.86228 15.3892 9.47602C15.7511 10.0077 15.6902 10.7364 15.3232 11.2474L16.2262 11.2477ZM18.7572 4.74394C18.1924 4.55544 17.6429 4.38165 17.3913 4.48713C17.2665 4.53943 17.1813 4.73242 17.0795 4.96322C16.8785 5.41905 16.7933 5.55197 16.4816 5.94564C16.2547 6.23221 16.0307 6.51513 16.0768 6.73159C16.158 7.11239 16.9301 7.66712 17.0683 8.37295C17.2106 9.09957 16.673 9.82785 16.6702 10.6176C16.6719 10.84 16.7062 11.0608 16.7719 11.2716C17.8042 11.4266 18.5061 12.3077 18.9762 13.2673C19.6238 11.9469 19.9441 10.468 19.9057 8.9744C19.8673 7.4808 19.4717 6.02352 18.7572 4.74394ZM14.4992 11.2477C14.7038 11.1536 14.875 10.9909 14.9874 10.7837C15.2155 10.3543 15.1411 9.83169 14.7198 9.57062C14.4048 9.3755 13.9008 9.30682 13.3708 9.34116C12.8522 9.37494 12.3189 9.50837 11.916 9.72066H13.3162C13.3504 9.72066 13.3842 9.72793 13.4157 9.74204C13.4473 9.75615 13.476 9.77683 13.5001 9.80291C13.5242 9.82898 13.5434 9.85993 13.5565 9.894C13.5695 9.92807 13.5763 9.96458 13.5763 10.0015V11.2477H14.4992ZM5.86087 8.33903C5.86623 8.3021 5.8784 8.2667 5.89665 8.23494C6.01747 7.87501 6.09088 7.55849 6.09088 7.32075C6.08835 6.71115 5.86233 6.12745 5.46227 5.69736C5.06221 5.26727 4.52069 5.0258 3.95618 5.0258C3.39167 5.0258 2.85015 5.26727 2.45009 5.69736C2.05003 6.12745 1.82401 6.71115 1.82148 7.32075C1.82148 7.87654 2.22237 8.86247 2.69311 9.82868C2.71193 9.85474 2.72634 9.88418 2.73567 9.91565C3.18078 10.8204 3.67853 11.6958 3.95616 12.1709C4.4905 11.2563 5.44267 9.52647 5.86087 8.33903ZM6.46833 8.12965C7.17269 8.17991 8.34119 8.22508 8.85239 7.87552C9.5754 7.38101 9.03715 5.91579 9.82131 5.41974C10.575 4.94305 12.4395 5.70581 13.0762 5.2635C13.2901 5.11489 13.3834 4.81457 13.3924 4.47061C13.3955 3.96034 13.2652 3.45949 13.0165 3.02561C12.5503 2.24318 11.7897 2.19514 11.6366 1.71358C11.4998 1.28372 11.9543 0.838867 12.2594 0.568214C10.8247 0.497994 9.39893 0.845217 8.13101 1.57359C6.8631 2.30197 5.79963 3.38475 5.05176 4.70877C5.51661 4.93629 5.91089 5.30366 6.1874 5.76689C6.46391 6.23013 6.61093 6.76961 6.61087 7.32075C6.61087 7.54336 6.55816 7.81989 6.46833 8.12965ZM18.7261 13.9948C18.722 13.9859 18.7182 13.9768 18.715 13.9674C18.6328 13.7674 18.5432 13.5721 18.4458 13.3858H16.0617V15.6933H19.2601C19.0972 15.0892 18.9711 14.597 18.7261 13.9948ZM3.90906 8.34305C3.71296 8.33041 3.52879 8.23716 3.39439 8.08244C2.93453 7.55484 3.2806 6.67938 3.9562 6.67938C4.07099 6.67963 4.18429 6.70749 4.28786 6.76095C4.39143 6.81442 4.48266 6.89213 4.55493 6.98844C4.6272 7.08475 4.67869 7.19725 4.70565 7.31774C4.73261 7.43824 4.73436 7.56371 4.71079 7.68503C4.69984 7.7417 4.68341 7.79697 4.66176 7.84993C4.6474 7.88356 4.63936 7.91995 4.63812 7.95696C4.63687 7.99398 4.64244 8.03089 4.65451 8.06557C4.66658 8.10024 4.6849 8.13198 4.70841 8.15895C4.73192 8.18592 4.76015 8.20758 4.79147 8.22268C4.8228 8.23778 4.85658 8.24601 4.89087 8.2469C4.92516 8.24779 4.95928 8.24132 4.99123 8.22787C5.02319 8.21441 5.05236 8.19424 5.07704 8.16853C5.10173 8.14281 5.12144 8.11205 5.13504 8.07805C5.17178 7.98921 5.1998 7.89644 5.21861 7.80129C5.27655 7.50731 5.24466 7.20099 5.12818 6.92802C5.01169 6.65506 4.8166 6.43008 4.572 6.28666C4.32741 6.14325 4.04643 6.08908 3.771 6.13225C3.49556 6.17542 3.24043 6.31361 3.04368 6.52619C2.25592 7.37689 2.77591 8.83192 3.87876 8.9025C3.94745 8.90687 4.01493 8.88159 4.06635 8.83222C4.11778 8.78286 4.14894 8.71345 4.15298 8.63928C4.15702 8.5651 4.13361 8.49223 4.0879 8.4367C4.04219 8.38116 3.97775 8.34742 3.90906 8.34305ZM2.335 10.2822H0.519816V18.4851H3.40681C3.74322 18.1715 4.17281 17.999 4.61721 17.999C5.06161 17.999 5.4912 18.1715 5.82761 18.4851H13.0563V10.2822H5.57732C4.91471 11.6244 4.17735 12.8384 4.17349 12.8447C4.14961 12.884 4.11698 12.9162 4.07858 12.9383C4.04019 12.9605 3.99726 12.9718 3.95375 12.9713C3.91023 12.9709 3.86752 12.9586 3.82953 12.9357C3.79155 12.9128 3.7595 12.8799 3.73634 12.8401C3.6886 12.7614 2.97666 11.5822 2.335 10.2822ZM10.7172 15.2931H9.01461C8.94565 15.2931 8.87951 15.3227 8.83075 15.3754C8.78199 15.428 8.75459 15.4994 8.75459 15.5739C8.75459 15.6484 8.78199 15.7198 8.83075 15.7725C8.87951 15.8251 8.94565 15.8547 9.01461 15.8547H10.7172C10.7861 15.8547 10.8523 15.8251 10.901 15.7725C10.9498 15.7198 10.9772 15.6484 10.9772 15.5739C10.9772 15.4994 10.9498 15.428 10.901 15.3754C10.8523 15.3227 10.7861 15.2931 10.7172 15.2931ZM10.7172 13.7165H7.3121C7.24314 13.7165 7.177 13.7461 7.12824 13.7987C7.07948 13.8514 7.05209 13.9228 7.05209 13.9973C7.05209 14.0718 7.07948 14.1432 7.12824 14.1958C7.177 14.2485 7.24314 14.2781 7.3121 14.2781H10.7172C10.7861 14.2781 10.8523 14.2485 10.901 14.1958C10.9498 14.1432 10.9772 14.0718 10.9772 13.9973C10.9772 13.9228 10.9498 13.8514 10.901 13.7987C10.8523 13.7461 10.7861 13.7165 10.7172 13.7165ZM10.7172 12.1399H5.32999C5.26103 12.1399 5.1949 12.1695 5.14613 12.2221C5.09737 12.2748 5.06998 12.3462 5.06998 12.4207C5.06998 12.4951 5.09737 12.5666 5.14613 12.6192C5.1949 12.6719 5.26103 12.7015 5.32999 12.7015H10.7172C10.7861 12.7015 10.8523 12.6719 10.901 12.6192C10.9498 12.5666 10.9772 12.4951 10.9772 12.4207C10.9772 12.3462 10.9498 12.2748 10.901 12.2221C10.8523 12.1695 10.7861 12.1399 10.7172 12.1399ZM1.65824 19.5455V19.0466H1.04323L1.65824 19.5455ZM2.17822 19.0466V19.8254H2.77175C2.79337 19.5525 2.86701 19.2874 2.98805 19.0466H2.17822ZM8.67458 20.5482V19.7168H8.29743C8.19534 19.7168 8.09743 19.7606 8.02524 19.8386C7.95305 19.9165 7.91249 20.0223 7.91249 20.1325C7.91249 20.2428 7.95305 20.3485 8.02524 20.4265C8.09743 20.5044 8.19534 20.5482 8.29743 20.5482H8.67458ZM9.19461 19.7168V20.5482H10.3312V19.7168H9.19461ZM10.8513 19.7168V20.5482H11.2284C11.3305 20.5482 11.4284 20.5044 11.5006 20.4265C11.5728 20.3485 11.6133 20.2428 11.6133 20.1325C11.6133 20.0223 11.5728 19.9165 11.5006 19.8386C11.4284 19.7606 11.3305 19.7168 11.2284 19.7168H10.8513ZM14.363 16.9038H14.5705C14.6388 16.9028 14.7041 16.8729 14.7522 16.8203C14.8002 16.7677 14.8271 16.6969 14.8271 16.623C14.8271 16.5492 14.8002 16.4783 14.7522 16.4258C14.7041 16.3732 14.6388 16.3432 14.5705 16.3423H14.363C14.3286 16.3418 14.2944 16.3487 14.2625 16.3626C14.2306 16.3765 14.2015 16.3971 14.177 16.4232C14.1525 16.4493 14.1331 16.4804 14.1198 16.5147C14.1065 16.549 14.0997 16.5859 14.0997 16.623C14.0997 16.6602 14.1065 16.697 14.1198 16.7313C14.1331 16.7656 14.1525 16.7967 14.177 16.8228C14.2015 16.849 14.2306 16.8696 14.2625 16.8835C14.2944 16.8974 14.3286 16.9043 14.363 16.9038ZM19.4114 16.2548H15.8017C15.7327 16.2548 15.6666 16.2252 15.6178 16.1726C15.569 16.1199 15.5416 16.0485 15.5416 15.974V13.105C15.5416 13.0306 15.569 12.9591 15.6178 12.9065C15.6666 12.8538 15.7327 12.8242 15.8017 12.8242H18.1058C17.6809 12.2241 17.137 11.8092 16.4448 11.8092H13.5763V18.4851H16.6545C16.9909 18.1715 17.4205 17.999 17.8649 17.999C18.3093 17.999 18.7389 18.1715 19.0753 18.4851H20.0129L19.4114 16.2548ZM17.8648 19.4575C17.7822 19.4575 17.701 19.4794 17.6282 19.5215C17.5554 19.5635 17.4933 19.6242 17.4475 19.6983C17.4016 19.7725 17.3734 19.8576 17.3653 19.9463C17.3572 20.035 17.3695 20.1245 17.4011 20.2069C17.4327 20.2892 17.4826 20.3619 17.5464 20.4184C17.6102 20.475 17.6859 20.5137 17.7669 20.531C17.8478 20.5484 17.9315 20.544 18.0105 20.5181C18.0895 20.4923 18.1613 20.4457 18.2197 20.3827C18.2898 20.3069 18.3376 20.2103 18.3569 20.1052C18.3763 20.0001 18.3663 19.8911 18.3283 19.7921C18.2904 19.6931 18.2261 19.6084 18.1435 19.5489C18.061 19.4893 17.964 19.4575 17.8648 19.4575ZM4.61719 19.4575C4.17555 19.4575 3.94454 20.0395 4.26233 20.3827L4.2628 20.3822C4.32114 20.4452 4.39298 20.4917 4.47195 20.5176C4.55092 20.5435 4.63459 20.548 4.71554 20.5306C4.79649 20.5132 4.87222 20.4745 4.93601 20.418C4.9998 20.3614 5.04969 20.2888 5.08125 20.2064C5.11281 20.1241 5.12507 20.0346 5.11694 19.9459C5.10881 19.8572 5.08055 19.772 5.03465 19.6979C4.98875 19.6239 4.92664 19.5632 4.85382 19.5212C4.781 19.4793 4.69972 19.4574 4.61719 19.4575ZM16.2358 19.0466H13.5763V20.2627H16.0283C15.9767 19.8438 16.0495 19.4181 16.2358 19.0466ZM19.4942 19.0466C19.6805 19.4181 19.7531 19.8438 19.7016 20.2627H20.0985V19.0466H19.4942ZM18.8072 18.9818C18.6209 18.7806 18.3835 18.6436 18.125 18.588C17.8665 18.5325 17.5986 18.561 17.3551 18.6699C17.1117 18.7788 16.9036 18.9633 16.7571 19.1999C16.6107 19.4365 16.5326 19.7147 16.5326 19.9993C16.5326 20.2839 16.6107 20.5621 16.7571 20.7987C16.9036 21.0354 17.1117 21.2198 17.3551 21.3287C17.5986 21.4376 17.8665 21.4661 18.125 21.4106C18.3835 21.3551 18.6209 21.2181 18.8072 21.0168C19.0571 20.7469 19.1974 20.3809 19.1974 19.9993C19.1974 19.6177 19.0571 19.2517 18.8072 18.9818ZM5.94705 20.0919L5.94975 19.9993C5.9495 19.6219 5.81189 19.2598 5.5666 18.991C5.32131 18.7222 4.988 18.5683 4.63858 18.5625C4.28916 18.5567 3.95162 18.6994 3.69879 18.9599C3.44596 19.2205 3.29809 19.5779 3.28709 19.9551C3.27609 20.3323 3.40283 20.699 3.63998 20.9762C3.87712 21.2534 4.20567 21.4188 4.55474 21.4368C4.90381 21.4547 5.24542 21.3238 5.50589 21.0722C5.76636 20.8206 5.92481 20.4685 5.94705 20.0919ZM6.4628 19.8254H7.43845C7.49857 19.6306 7.61384 19.4611 7.76798 19.3409C7.92211 19.2206 8.10733 19.1557 8.29748 19.1552H11.2285C11.4187 19.1557 11.6039 19.2206 11.758 19.3409C11.9122 19.4611 12.0274 19.6306 12.0876 19.8254H13.0561V19.0466H6.2465C6.36752 19.2874 6.44116 19.5525 6.4628 19.8254Z" fill="#DAA7EE"/>
</svg>
