<svg width="22" height="24" viewBox="0 0 22 24" fill="none" xmlns="http://www.w3.org/2000/svg">
<path fill-rule="evenodd" clip-rule="evenodd" d="M3.21384 10.7868L2.39494 9.9679C2.25737 9.83064 2.25737 9.60765 2.39494 9.47008C2.53221 9.33277 2.75519 9.33277 2.89245 9.47008L3.44273 10.0206L4.83321 8.39791C4.9598 8.25054 5.18186 8.23334 5.32985 8.35998C5.47722 8.48625 5.49442 8.70862 5.36778 8.856L3.72973 10.7672C3.59647 10.9228 3.35845 10.9313 3.21384 10.7868ZM6.38672 6.62496C6.38672 6.43077 6.54385 6.27302 6.73866 6.27302L19.0227 6.27272C19.2175 6.27272 19.3746 6.43041 19.3746 6.62465C19.3746 6.81884 19.2175 6.97658 19.0227 6.97658L6.73866 6.97689C6.5439 6.97684 6.38677 6.81914 6.38672 6.62496ZM2.39484 7.01015C2.25727 6.87258 2.25727 6.6499 2.39484 6.51233C2.5321 6.37533 2.75509 6.37533 2.89235 6.51233L3.44263 7.06261L4.83311 5.44021C4.95969 5.29284 5.18176 5.27564 5.32975 5.40228C5.47712 5.52886 5.49432 5.75093 5.36768 5.89861L3.72963 7.80918C3.5957 7.9658 3.35814 7.9735 3.21374 7.82936L2.39484 7.01015ZM18.4568 21.3509H18.374L18.3739 17.9599H18.4567C19.8383 17.9599 20.9632 18.7207 20.9632 19.6555C20.9633 20.5903 19.8384 21.3508 18.4568 21.3509ZM15.7391 17.4749C15.6246 17.5126 15.5369 17.6054 15.507 17.7222C15.3946 18.1604 15.22 18.5808 14.9887 18.971C14.9274 19.0748 14.9235 19.2029 14.9781 19.3105L15.5023 20.339L14.6537 21.1873L13.6255 20.6631C13.5179 20.6086 13.3898 20.6124 13.286 20.6738C12.8959 20.905 12.4755 21.0794 12.0372 21.1921C11.9204 21.222 11.8273 21.3098 11.79 21.4243L11.4333 22.5213L10.2337 22.5213L9.87704 21.4243C9.83998 21.3099 9.74661 21.2221 9.62977 21.1922C9.19186 21.0798 8.77202 20.9053 8.38066 20.674C8.27692 20.6126 8.1488 20.6088 8.04208 20.6633L7.01359 21.1875L6.16471 20.3393L6.68856 19.3108C6.74369 19.2031 6.73953 19.0757 6.67788 18.9713C6.44719 18.5811 6.27256 18.1607 6.15989 17.7225C6.13022 17.6056 6.0428 17.5128 5.92802 17.4752L4.83101 17.1192V16.4565L7.47984 16.4565C7.47922 16.4772 7.47896 16.4982 7.47896 16.519C7.47902 18.3685 8.98371 19.8737 10.8338 19.8737C12.6833 19.8736 14.1885 18.3683 14.1885 16.5188C14.1885 16.4981 14.1876 16.477 14.187 16.4563L16.8361 16.4562V17.1189L15.7391 17.4749ZM10.0929 8.73018C10.5842 8.64487 11.0817 8.64471 11.5733 8.73013L11.5734 12.0155C11.5734 12.0872 11.5129 12.1477 11.4411 12.1477L10.2258 12.1478C10.1541 12.1478 10.093 12.0873 10.093 12.0155L10.0929 8.73018ZM6.49955 13.0003C6.49955 13.2644 6.52327 13.5277 6.57044 13.7857L15.0962 13.7855C15.4877 11.6569 14.251 9.6135 12.2771 8.91395L12.2772 12.0155C12.2772 12.4759 11.9024 12.8513 11.4411 12.8513L10.2258 12.8513C9.76447 12.8513 9.38908 12.476 9.38908 12.0155L9.38903 8.914C7.70765 9.51002 6.4995 11.117 6.49955 13.0003ZM3.82474 15.7527C3.74559 15.7527 3.6783 15.6857 3.67824 15.6062V14.6361C3.67824 14.5569 3.74554 14.4896 3.82469 14.4896L17.842 14.4893C17.9217 14.4893 17.9887 14.5566 17.9887 14.6357V15.6058C17.9887 15.6853 17.9217 15.7523 17.842 15.7523L3.82474 15.7527ZM13.4845 16.5188C13.4845 16.4981 13.4837 16.477 13.4831 16.4563L8.18365 16.4564C8.1412 17.9301 9.3435 19.1698 10.8337 19.1698C12.2951 19.1697 13.4846 17.9802 13.4845 16.5188ZM0.703915 15.5612C0.703915 16.48 1.98034 17.2565 3.49063 17.2564H4.12719V16.4565H3.8248C3.35603 16.4565 2.97448 16.0753 2.97443 15.6062V14.6361C2.97443 14.1673 3.35598 13.7858 3.82474 13.7857L5.85687 13.7857C5.37985 10.7244 7.74543 7.96262 10.8336 7.96256C12.1126 7.96251 13.2817 8.4419 14.1714 9.23057L19.0229 9.23046C19.2177 9.23046 19.3748 9.38759 19.3748 9.5824C19.3748 9.77658 19.2177 9.93433 19.0229 9.93433L14.8275 9.93443C15.6561 11.0103 16.0288 12.3906 15.8099 13.7855L17.842 13.7854C18.3111 13.7854 18.6926 14.167 18.6926 14.6357V15.6058C18.6926 16.0749 18.3111 16.4562 17.8421 16.4562H17.54V17.2561H18.4567C19.4044 17.2561 20.3232 17.5605 20.9633 18.15L20.9629 6.4936C20.9629 5.5745 19.6865 4.79805 18.1756 4.79805L3.21015 4.79841C2.26733 4.79841 1.33838 4.49386 0.703607 3.90518L0.703915 15.5612ZM3.21004 0.703607H3.29218L3.29228 4.09455H3.21015C1.82793 4.0946 0.703659 3.33411 0.703607 2.39962C0.703556 1.46445 1.82783 0.703607 3.21004 0.703607ZM20.5875 4.75108C19.9382 4.32739 19.0816 4.09408 18.1756 4.09413L3.99609 4.09449L3.99599 0.351932C3.99599 0.157435 3.83886 0 3.64406 0H3.20999C2.37359 0 1.58287 0.236332 0.983674 0.665365C0.349519 1.11991 0 1.73605 0 2.39956L0.000308018 15.5612C0.000308018 16.231 0.383091 16.8497 1.07895 17.3036C1.72824 17.7273 2.58513 17.9603 3.49057 17.9602L5.14351 17.9602L5.53071 18.0859C5.64041 18.4586 5.78958 18.8182 5.97545 19.1595L5.42137 20.247C5.35228 20.3831 5.37867 20.5479 5.48631 20.6558L6.69661 21.8658C6.80426 21.9737 6.96939 22.0001 7.10486 21.9304L8.19263 21.3765C8.5345 21.5627 8.89383 21.7118 9.26593 21.8215L9.64338 22.982C9.69024 23.127 9.8254 23.2251 9.9778 23.2251L11.6891 23.225C11.8415 23.225 11.9767 23.1269 12.0238 22.9819L12.4007 21.8215C12.7733 21.7118 13.1327 21.5626 13.4742 21.3764L14.5618 21.9302C14.6978 21.9999 14.8627 21.9735 14.9706 21.8656L16.1806 20.6556C16.2885 20.5477 16.3143 20.3828 16.2452 20.2468L15.6913 19.1599C15.8775 18.8177 16.0266 18.4584 16.1363 18.0857L16.5235 17.96L17.6703 17.9599L17.6704 21.7028C17.6704 21.8976 17.8279 22.0547 18.0223 22.0547H18.4567C19.2928 22.0547 20.0835 21.8187 20.6824 21.3894C21.3174 20.9345 21.667 20.319 21.667 19.6555L21.6667 6.49355C21.6668 5.82377 21.2834 5.2047 20.5875 4.75108Z" fill="#DAA7EE"/>
</svg>
