<svg width="32" height="32" viewBox="0 0 32 32" fill="none" xmlns="http://www.w3.org/2000/svg">
<g clip-path="url(#clip0_2027_8814)">
<path d="M27.9109 0H4.08906C1.83431 0 0 1.83438 0 4.08913V27.9109C0 30.1656 1.83431 32 4.08906 32H27.9109C30.1657 32 32 30.1656 32 27.9109V4.08913C32 1.83438 30.1657 0 27.9109 0ZM30.1151 27.9109C30.1151 29.1264 29.1263 30.1151 27.9109 30.1151H4.08906C2.87363 30.1151 1.88481 29.1263 1.88481 27.9109V24.473L8.08825 19.1948C8.31462 19.0022 8.64487 19.0004 8.87337 19.1901L12.7592 22.4169C13.1339 22.7279 13.6839 22.7024 14.0282 22.3577L23.2613 13.1106C23.4282 12.9434 23.6227 12.9272 23.7243 12.9324C23.8256 12.9376 24.0177 12.9737 24.1667 13.1571L30.1152 20.4815L30.1151 27.9109ZM30.1151 17.4916L25.6297 11.9687C25.1849 11.4209 24.5256 11.0861 23.8209 11.0499C23.1166 11.0142 22.4261 11.2794 21.9275 11.7788L13.302 20.4176L10.0776 17.7401C9.14269 16.9638 7.79244 16.9718 6.86681 17.7594L1.88481 21.9982V4.08913C1.88481 2.87369 2.87363 1.88488 4.08906 1.88488H27.9109C29.1264 1.88488 30.1151 2.87369 30.1151 4.08913V17.4916Z" fill="#DAA7EE"/>
<path d="M10.0758 3.93713C7.56987 3.93713 5.53125 5.97588 5.53125 8.4817C5.53125 10.9876 7.56994 13.0263 10.0758 13.0263C12.5817 13.0263 14.6204 10.9876 14.6204 8.4817C14.6204 5.97582 12.5817 3.93713 10.0758 3.93713ZM10.0758 11.1414C8.60919 11.1414 7.41606 9.94826 7.41606 8.4817C7.41606 7.01507 8.60919 5.82195 10.0758 5.82195C11.5424 5.82195 12.7356 7.01513 12.7356 8.4817C12.7356 9.94826 11.5424 11.1414 10.0758 11.1414Z" fill="#DAA7EE"/>
</g>
<defs>
<clipPath id="clip0_2027_8814">
<rect width="32" height="32" fill="white"/>
</clipPath>
</defs>
</svg>
