<svg width="38" height="38" viewBox="0 0 38 38" fill="none" xmlns="http://www.w3.org/2000/svg">
<mask id="mask0_2186_16792" style="mask-type:luminance" maskUnits="userSpaceOnUse" x="0" y="0" width="38" height="38">
<path d="M37.9629 37.9629V0.0371094H0.0371094V37.9629H37.9629Z" fill="white" stroke="white" stroke-width="0.0742187"/>
</mask>
<g mask="url(#mask0_2186_16792)">
<path d="M8.27284 5.67833C8.52771 5.54236 8.771 5.39571 8.99603 5.23198C10.4849 4.14846 11.5087 2.0356 13.2974 1.45484C15.0232 0.894413 17.0854 1.98365 18.998 1.98365C20.9107 1.98365 22.9729 0.894413 24.6987 1.45476C26.4874 2.03553 27.5112 4.14846 29.0001 5.23198C30.5038 6.32634 32.8255 6.65468 33.9199 8.15842C35.0035 9.64725 34.6054 11.9514 35.1861 13.74C35.7465 15.4659 37.4414 17.0875 37.4414 19.0001C37.4414 20.9127 35.7465 22.5342 35.1861 24.26C34.6054 26.0487 35.0035 28.3529 33.9199 29.8417C32.8255 31.3455 30.5038 31.6738 29.0001 32.7682C27.5112 33.8517 26.4874 35.9646 24.6987 36.5453C22.9729 37.1057 20.9107 36.0165 18.998 36.0165C17.0854 36.0165 15.0232 37.1057 13.2974 36.5453C11.5087 35.9646 10.4849 33.8517 8.99603 32.7682C7.49229 31.6738 5.17057 31.3455 4.07622 29.8417C2.99262 28.3529 3.39073 26.0487 2.81005 24.26C2.24962 22.5342 0.554688 20.9127 0.554688 19.0001C0.554688 17.0875 2.24962 15.4659 2.80997 13.7401C3.39073 11.9514 2.99262 9.64725 4.07622 8.15842C4.51552 7.5548 5.15254 7.14051 5.85509 6.79013" stroke="#DAA7EE" stroke-width="1.11328" stroke-miterlimit="10" stroke-linecap="round" stroke-linejoin="round"/>
<path d="M33.949 19.0001C33.949 20.5506 32.575 21.8651 32.1208 23.2641C31.6499 24.714 31.9726 26.582 31.0943 27.7888C30.2071 29.0079 28.325 29.274 27.106 30.1612C25.8991 31.0396 25.0691 32.7523 23.6192 33.2231C22.2202 33.6774 20.5484 32.7944 18.9979 32.7944C17.4475 32.7944 15.7757 33.6774 14.3767 33.2231C12.9267 32.7523 12.0968 31.0396 10.8898 30.1612C9.67088 29.274 7.78869 29.0079 6.90155 27.7888C6.02325 26.582 6.34595 24.7141 5.87518 23.2641C5.42089 21.8651 4.04688 20.5506 4.04688 19.0001C4.04688 17.4497 5.42089 16.1351 5.87511 14.7361C6.34595 13.2861 6.02325 11.4183 6.90155 10.2113C7.78869 8.99235 9.67088 8.7262 10.8898 7.83907C12.0968 6.96069 12.9267 5.24787 14.3767 4.7771C15.7757 4.32281 17.4475 5.20579 18.9979 5.20579C20.5484 5.20579 22.2202 4.32281 23.6192 4.7771C25.0691 5.24787 25.8991 6.96069 27.106 7.83907C28.325 8.7262 30.2071 8.99235 31.0943 10.2113C31.9726 11.4183 31.6499 13.2861 32.1208 14.7361C32.575 16.1351 33.949 17.4497 33.949 19.0001Z" stroke="#DAA7EE" stroke-width="1.11328" stroke-miterlimit="10" stroke-linecap="round" stroke-linejoin="round"/>
<path d="M21.8016 22.0148L18.6807 25.0995C17.7189 26.1093 16.0916 26.0541 15.2003 24.9816L12.4369 21.6567C12.0199 21.1549 12.0885 20.41 12.5904 19.993L13.3651 19.3491C13.8669 18.932 14.6118 19.0007 15.0289 19.5025L16.4211 21.1777C16.7538 21.578 17.3611 21.5986 17.7201 21.2217L24.8374 14.2775C25.2875 13.805 26.0353 13.7869 26.5078 14.237L27.2371 14.9318C27.7096 15.3818 27.7277 16.1297 27.2777 16.6021L23.4992 20.3369" stroke="#DAA7EE" stroke-width="1.11328" stroke-miterlimit="10" stroke-linecap="round" stroke-linejoin="round"/>
</g>
</svg>
