<svg width="36" height="36" viewBox="0 0 36 36" fill="none" xmlns="http://www.w3.org/2000/svg">
<path d="M26.4707 0.547338C25.7409 -0.182446 24.5577 -0.182446 23.8276 0.547338C23.0978 1.27741 23.0978 2.46068 23.8276 3.19047L24.3024 3.66529L14.1229 13.8448H8.52785C7.8928 13.8466 7.28435 14.0989 6.83437 14.5466C5.89934 15.4819 5.89934 16.9982 6.83437 17.9335L11.1289 22.228L2.51941 30.8375C1.30047 32.0567 0.435901 33.5841 0.0177959 35.2568C-0.0330784 35.4606 0.0268598 35.6761 0.175389 35.8249C0.323919 35.9734 0.539404 36.0331 0.743486 35.9825C2.41591 35.5644 3.94331 34.6995 5.16254 33.4806L13.772 24.8711L18.0668 29.1656C19.0018 30.1007 20.5181 30.1007 21.4534 29.1656C21.9014 28.7157 22.1534 28.1072 22.1552 27.4724V21.8771L32.3347 11.6976L32.8095 12.1724C33.5396 12.9022 34.7229 12.9022 35.4527 12.1724C36.1824 11.4426 36.1824 10.2594 35.4527 9.52929L26.4707 0.547338ZM4.31522 32.6339C3.51994 33.4294 2.57116 34.0554 1.52678 34.4735C1.94488 33.4288 2.57058 32.4798 3.36615 31.6842L11.9756 23.0747L12.9253 24.0244L4.31522 32.6339ZM34.6059 11.3257C34.3404 11.5795 33.922 11.5795 33.6563 11.3257L32.7581 10.4275C32.5242 10.1939 32.1452 10.1939 31.9113 10.4275L21.133 21.2058C21.0207 21.3181 20.9576 21.4704 20.9576 21.6292V27.4724C20.9567 27.7897 20.8304 28.094 20.6067 28.3189C20.1325 28.7703 19.3875 28.7703 18.9132 28.3189L7.68111 17.0868C7.21359 16.6192 7.21359 15.8611 7.68111 15.3933C7.90624 15.1696 8.21032 15.0436 8.52785 15.0424H14.3708C14.5296 15.0424 14.6819 14.9793 14.7942 14.867L25.5725 4.08866C25.8064 3.85476 25.8064 3.47583 25.5725 3.24192L24.6743 2.34373C24.4126 2.08146 24.4126 1.65663 24.6743 1.39407C24.9401 1.14029 25.3585 1.14029 25.624 1.39407L34.6059 10.376C34.8679 10.6386 34.8679 11.0634 34.6059 11.3257Z" fill="#DAA7EE"/>
</svg>
