<svg width="23" height="24" viewBox="0 0 23 24" fill="none" xmlns="http://www.w3.org/2000/svg">
<path d="M22.4805 13.2723L21.5947 12.9783C21.6504 12.5496 21.6781 12.1177 21.6776 11.6854C21.678 11.2518 21.6503 10.8187 21.5947 10.3887L22.4805 10.0984C22.6703 10.0363 22.8278 9.9014 22.9183 9.7233C23.0087 9.54519 23.0248 9.33846 22.963 9.14851L22.2656 6.99991C22.235 6.90515 22.186 6.81738 22.1213 6.74169C22.0566 6.66599 21.9775 6.60386 21.8887 6.55888C21.7987 6.51221 21.7003 6.48415 21.5993 6.47638C21.4982 6.46861 21.3967 6.48128 21.3006 6.51365L20.4261 6.78505C20.0159 6.02443 19.5091 5.31999 18.9183 4.68923L19.4649 3.93533C19.5235 3.85521 19.5657 3.76431 19.5891 3.66784C19.6125 3.57136 19.6166 3.47122 19.6012 3.37315C19.5858 3.27509 19.5512 3.18103 19.4993 3.09638C19.4475 3.01173 19.3794 2.93816 19.299 2.87988L17.452 1.5681C17.2904 1.45091 17.089 1.40256 16.8919 1.43365C16.6947 1.46474 16.518 1.57273 16.4003 1.73396L15.85 2.48785C15.0666 2.11414 14.2379 1.84423 13.3847 1.68495V0.753895C13.3847 0.553949 13.3053 0.362193 13.1639 0.220811C13.0225 0.079428 12.8308 0 12.6308 0H10.3692C10.1692 0 9.97746 0.079428 9.83607 0.220811C9.69469 0.362193 9.61526 0.553949 9.61526 0.753895V1.68495C8.76068 1.84341 7.93059 2.11335 7.14626 2.48785L6.59968 1.73396C6.48204 1.57273 6.30527 1.46474 6.10812 1.43365C5.91098 1.40256 5.70955 1.45091 5.548 1.5681L3.71604 2.89496C3.63567 2.95323 3.56761 3.02681 3.51576 3.11146C3.4639 3.19611 3.42928 3.29016 3.41387 3.38823C3.39846 3.4863 3.40257 3.58644 3.42596 3.68291C3.44935 3.77939 3.49156 3.87029 3.55018 3.95041L4.09298 4.7043C3.50233 5.33653 2.99556 6.0422 2.58519 6.8039L1.69937 6.51365C1.60507 6.48311 1.50568 6.47147 1.40688 6.47939C1.30808 6.48731 1.21181 6.51463 1.12358 6.5598C1.03535 6.60496 0.95689 6.66708 0.892695 6.7426C0.8285 6.81812 0.779826 6.90556 0.749461 6.99991L0.052108 9.14851C-0.00972881 9.33846 0.00635127 9.54519 0.0968168 9.7233C0.187282 9.9014 0.344737 10.0363 0.534601 10.0984L1.42043 10.3924C1.35961 10.8208 1.32687 11.2527 1.32242 11.6854C1.322 12.1189 1.3497 12.5521 1.40535 12.9821L0.519523 13.2723C0.329659 13.3344 0.172204 13.4693 0.0817389 13.6474C-0.0087266 13.8255 -0.0248067 14.0323 0.0370301 14.2222L0.734383 16.3708C0.764973 16.4656 0.814034 16.5534 0.878733 16.6291C0.943432 16.7047 1.02249 16.7669 1.11133 16.8119C1.20128 16.8585 1.29971 16.8866 1.40074 16.8944C1.50178 16.9021 1.60334 16.8895 1.69937 16.8571L2.57389 16.5857C2.98413 17.3463 3.49092 18.0507 4.08168 18.6815L3.5351 19.4354C3.47649 19.5155 3.43427 19.6064 3.41088 19.7029C3.38749 19.7994 3.38338 19.8995 3.39879 19.9976C3.4142 20.0957 3.44883 20.1897 3.50068 20.2744C3.55253 20.359 3.6206 20.4326 3.70096 20.4909L5.53292 21.8177C5.61431 21.8773 5.70685 21.92 5.80504 21.9433C5.90324 21.9665 6.00509 21.9697 6.10457 21.9529C6.20405 21.936 6.29913 21.8993 6.38418 21.845C6.46923 21.7907 6.54251 21.7199 6.59968 21.6368L7.15003 20.8829C7.93335 21.2566 8.7621 21.5265 9.61526 21.6858V22.6168C9.61526 22.8168 9.69469 23.0085 9.83607 23.1499C9.97746 23.2913 10.1692 23.3707 10.3692 23.3707H12.6308C12.8308 23.3707 13.0225 23.2913 13.1639 23.1499C13.3053 23.0085 13.3847 22.8168 13.3847 22.6168V21.6858C14.238 21.527 15.0668 21.2571 15.85 20.8829L16.3965 21.6368C16.5142 21.798 16.691 21.906 16.8881 21.9371C17.0852 21.9682 17.2867 21.9198 17.4482 21.8026L19.2802 20.4758C19.3606 20.4175 19.4286 20.3439 19.4805 20.2593C19.5323 20.1746 19.567 20.0806 19.5824 19.9825C19.5978 19.8844 19.5937 19.7843 19.5703 19.6878C19.5469 19.5913 19.5047 19.5004 19.4461 19.4203L18.9032 18.6664C19.4939 18.0342 20.0007 17.3285 20.411 16.5668L21.3006 16.8571C21.3949 16.8876 21.4943 16.8993 21.5931 16.8913C21.6919 16.8834 21.7882 16.8561 21.8764 16.8109C21.9647 16.7658 22.0431 16.7037 22.1073 16.6281C22.1715 16.5526 22.2202 16.4652 22.2505 16.3708L22.9479 14.2222C23.0104 14.0342 22.9964 13.8292 22.909 13.6514C22.8215 13.4737 22.6676 13.3375 22.4805 13.2723ZM21.5456 16.1371L20.6598 15.8506C20.4904 15.7984 20.3079 15.8075 20.1445 15.8764C19.9811 15.9454 19.8472 16.0697 19.7665 16.2276C19.3802 16.9315 18.9065 17.5837 18.3567 18.1689C18.2391 18.2942 18.1679 18.456 18.1549 18.6274C18.1418 18.7988 18.1878 18.9695 18.2851 19.1112L18.8316 19.8651L17.0034 21.192L16.4569 20.4381C16.3526 20.2953 16.2015 20.1936 16.03 20.1509C15.8584 20.1081 15.6773 20.1271 15.5183 20.2044C14.8 20.5521 14.0398 20.8055 13.2566 20.9583C13.0809 20.9904 12.9224 21.0838 12.8092 21.2218C12.696 21.3599 12.6355 21.5337 12.6384 21.7122V22.6168H10.3692V21.6858C10.3721 21.5073 10.3115 21.3335 10.1983 21.1955C10.0851 21.0574 9.92659 20.964 9.75096 20.9319C8.96149 20.7799 8.19497 20.5265 7.47043 20.178C7.31226 20.1027 7.1328 20.0849 6.9629 20.1275C6.79299 20.1702 6.64324 20.2706 6.53937 20.4117L5.98903 21.1656L4.16083 19.8651L4.70741 19.1112C4.81056 18.9687 4.86063 18.7946 4.84892 18.6191C4.83722 18.4435 4.76449 18.2776 4.64333 18.15C4.09352 17.5649 3.61984 16.9126 3.23354 16.2087C3.15275 16.0509 3.01889 15.9265 2.8555 15.8576C2.69211 15.7886 2.50964 15.7795 2.34018 15.8318L1.45435 16.122L0.75323 13.9885L1.63906 13.6983C1.80598 13.6435 1.94856 13.5322 2.04216 13.3836C2.13575 13.2349 2.1745 13.0582 2.1517 12.8841C2.05118 12.0881 2.05118 11.2826 2.1517 10.4867C2.1745 10.3125 2.13575 10.1358 2.04216 9.98716C1.94856 9.8385 1.80598 9.7272 1.63906 9.67247L0.75323 9.38222L1.45435 7.23362L2.34018 7.53895C2.50964 7.59123 2.69211 7.58209 2.8555 7.51315C3.01889 7.44421 3.15275 7.31987 3.23354 7.162C3.61984 6.45812 4.09352 5.80586 4.64333 5.22072C4.76562 5.09407 4.83974 4.92862 4.85282 4.75305C4.8659 4.57749 4.81712 4.40288 4.71495 4.25951L4.16837 3.50561L5.99657 2.17876L6.54314 2.93265C6.64735 3.07549 6.79845 3.17715 6.97002 3.21987C7.14159 3.26259 7.32272 3.24365 7.48174 3.16636C8.19998 2.8186 8.96018 2.5652 9.74342 2.41246C9.91905 2.38035 10.0776 2.28695 10.1908 2.14889C10.304 2.01084 10.3645 1.83708 10.3616 1.65857V0.753895H12.6233V1.68495C12.6204 1.86347 12.6809 2.03722 12.7941 2.17528C12.9073 2.31334 13.0659 2.40674 13.2415 2.43885C14.0245 2.59243 14.7846 2.8458 15.5032 3.19274C15.6614 3.26803 15.8408 3.28588 16.0107 3.24323C16.1806 3.20058 16.3304 3.1001 16.4342 2.95904L16.9846 2.20514L18.8128 3.53577L18.2851 4.25951C18.1819 4.40203 18.1318 4.57614 18.1435 4.75168C18.1552 4.92723 18.228 5.09315 18.3491 5.22072C18.9016 5.80542 19.3778 6.4577 19.7665 7.162C19.8472 7.31987 19.9811 7.44421 20.1445 7.51315C20.3079 7.58209 20.4904 7.59123 20.6598 7.53895L21.5456 7.2487L22.2468 9.40107L21.3609 9.69132C21.194 9.74605 21.0514 9.85735 20.9578 10.006C20.8642 10.1547 20.8255 10.3313 20.8483 10.5055C20.9488 11.3015 20.9488 12.1069 20.8483 12.9029C20.8255 13.0771 20.8642 13.2538 20.9578 13.4024C21.0514 13.5511 21.194 13.6624 21.3609 13.7171L22.2468 14.0074L21.5456 16.1371Z" fill="#DAA7EE"/>
<path d="M6.43291 6.61898C7.63811 5.42508 9.22601 4.69485 10.9168 4.55694C12.6077 4.41902 14.2929 4.88228 15.6757 5.86508H14.6277V6.61898H16.9271C16.9876 6.61895 17.0473 6.60436 17.1009 6.57642C17.1546 6.54849 17.2008 6.50805 17.2356 6.4585C17.2703 6.40896 17.2926 6.35178 17.3006 6.29179C17.3086 6.23181 17.302 6.17078 17.2815 6.11387L16.4974 3.95019L15.7887 4.21028L16.1657 5.29966C14.6889 4.21453 12.8814 3.67539 11.0515 3.77422C9.22159 3.87305 7.48266 4.60373 6.13136 5.84161C4.78006 7.07948 3.90012 8.74786 3.64165 10.5621C3.38317 12.3764 3.76219 14.2241 4.71403 15.7901L5.35861 15.4132C4.52516 14.0393 4.17795 12.4251 4.3728 10.83C4.56766 9.23498 5.29325 7.7518 6.43291 6.61898Z" fill="#DAA7EE"/>
<path d="M17.624 7.97259C18.4657 9.38129 18.7981 11.0363 18.5656 12.6608C18.3331 14.2852 17.5498 15.7806 16.3468 16.8966C15.1438 18.0127 13.5939 18.6818 11.9566 18.7919C10.3193 18.9021 8.69386 18.4467 7.35216 17.5018H8.3963V16.7479H6.09692C6.03595 16.7477 5.97584 16.7623 5.92175 16.7905C5.86765 16.8186 5.82119 16.8594 5.78635 16.9095C5.75151 16.9595 5.72933 17.0173 5.72171 17.0778C5.71408 17.1382 5.72125 17.1997 5.74259 17.2568L6.52664 19.4167L7.2353 19.1604L6.83574 18.0635C8.31226 19.1431 10.1171 19.6781 11.9434 19.5775C13.7698 19.4768 15.5049 18.7468 16.8539 17.5116C18.2029 16.2763 19.0825 14.612 19.3431 12.8015C19.6038 10.9911 19.2294 9.1462 18.2836 7.58057L17.624 7.97259Z" fill="#DAA7EE"/>
<path d="M6.22656 12.4393V14.3241C6.22656 14.424 6.26628 14.5199 6.33697 14.5906C6.40766 14.6613 6.50354 14.701 6.60351 14.701H9.24214C9.24214 14.801 9.28185 14.8969 9.35255 14.9675C9.42324 15.0382 9.51912 15.0779 9.61909 15.0779H13.3886C13.4885 15.0779 13.5844 15.0382 13.6551 14.9675C13.7258 14.8969 13.7655 14.801 13.7655 14.701H16.4041C16.5041 14.701 16.6 14.6613 16.6707 14.5906C16.7414 14.5199 16.7811 14.424 16.7811 14.3241V12.4393C16.7798 12.1195 16.6769 11.8083 16.4872 11.5508C16.2974 11.2934 16.0307 11.1029 15.7256 11.0069C15.9378 10.8354 16.0916 10.6024 16.1659 10.3398C16.2401 10.0773 16.2312 9.79824 16.1402 9.54102C16.0493 9.2838 15.8808 9.0611 15.658 8.90359C15.4353 8.74608 15.1692 8.6615 14.8964 8.6615C14.6235 8.6615 14.3574 8.74608 14.1347 8.90359C13.9119 9.0611 13.7434 9.2838 13.6525 9.54102C13.5616 9.79824 13.5526 10.0773 13.6268 10.3398C13.7011 10.6024 13.8549 10.8354 14.0671 11.0069C13.8307 11.0794 13.6159 11.2088 13.4413 11.3839C13.1917 11.017 12.8206 10.7501 12.3934 10.63C12.6502 10.4423 12.8411 10.1783 12.9388 9.87556C13.0364 9.57286 13.0359 9.24704 12.9372 8.94468C12.8385 8.64232 12.6467 8.37892 12.3892 8.19214C12.1318 8.00537 11.8219 7.90479 11.5038 7.90479C11.1858 7.90479 10.8758 8.00537 10.6184 8.19214C10.361 8.37892 10.1692 8.64232 10.0705 8.94468C9.97177 9.24704 9.97121 9.57286 10.0689 9.87556C10.1665 10.1783 10.3574 10.4423 10.6142 10.63C10.1871 10.7501 9.81599 11.017 9.56632 11.3839C9.39179 11.2088 9.17691 11.0794 8.94058 11.0069C9.15277 10.8354 9.30658 10.6024 9.38082 10.3398C9.45507 10.0773 9.4461 9.79824 9.35515 9.54102C9.26421 9.2838 9.09576 9.0611 8.873 8.90359C8.65024 8.74608 8.38412 8.6615 8.1113 8.6615C7.83848 8.6615 7.57236 8.74608 7.3496 8.90359C7.12684 9.0611 6.95839 9.2838 6.86745 9.54102C6.7765 9.79824 6.76753 10.0773 6.84178 10.3398C6.91602 10.6024 7.06983 10.8354 7.28201 11.0069C6.97691 11.1029 6.71021 11.2934 6.52049 11.5508C6.33076 11.8083 6.22782 12.1195 6.22656 12.4393ZM14.8964 9.42374C15.0082 9.42374 15.1175 9.4569 15.2105 9.51903C15.3035 9.58116 15.3759 9.66946 15.4187 9.77278C15.4615 9.8761 15.4727 9.98979 15.4509 10.0995C15.4291 10.2091 15.3752 10.3099 15.2962 10.389C15.2171 10.468 15.1163 10.5219 15.0067 10.5437C14.897 10.5655 14.7833 10.5543 14.68 10.5115C14.5767 10.4687 14.4884 10.3963 14.4262 10.3033C14.3641 10.2103 14.3309 10.101 14.3309 9.98916C14.3309 9.8392 14.3905 9.69538 14.4965 9.58935C14.6026 9.48331 14.7464 9.42374 14.8964 9.42374ZM13.7655 12.4393C13.7655 12.2394 13.8449 12.0476 13.9863 11.9062C14.1277 11.7648 14.3195 11.6854 14.5194 11.6854H15.2733C15.4732 11.6854 15.665 11.7648 15.8064 11.9062C15.9478 12.0476 16.0272 12.2394 16.0272 12.4393V13.9471H13.7655V12.4393ZM11.5038 8.66984C11.6529 8.66984 11.7987 8.71406 11.9227 8.7969C12.0466 8.87974 12.1433 8.99748 12.2003 9.13523C12.2574 9.27299 12.2723 9.42457 12.2432 9.57081C12.2141 9.71706 12.1423 9.85139 12.0369 9.95682C11.9315 10.0623 11.7971 10.1341 11.6509 10.1631C11.5047 10.1922 11.3531 10.1773 11.2153 10.1202C11.0776 10.0632 10.9598 9.96656 10.877 9.84258C10.7941 9.7186 10.7499 9.57284 10.7499 9.42374C10.7499 9.22379 10.8294 9.03204 10.9707 8.89065C11.1121 8.74927 11.3039 8.66984 11.5038 8.66984ZM9.99604 12.4393C9.99604 12.1394 10.1152 11.8518 10.3273 11.6397C10.5393 11.4276 10.827 11.3085 11.1269 11.3085H11.8808C12.1807 11.3085 12.4683 11.4276 12.6804 11.6397C12.8925 11.8518 13.0116 12.1394 13.0116 12.4393V14.3241H9.99604V12.4393ZM8.1113 9.42374C8.22313 9.42374 8.33245 9.4569 8.42543 9.51903C8.51841 9.58116 8.59088 9.66946 8.63368 9.77278C8.67648 9.8761 8.68767 9.98979 8.66586 10.0995C8.64404 10.2091 8.59019 10.3099 8.51111 10.389C8.43204 10.468 8.33129 10.5219 8.22161 10.5437C8.11193 10.5655 7.99824 10.5543 7.89492 10.5115C7.79161 10.4687 7.7033 10.3963 7.64117 10.3033C7.57904 10.2103 7.54588 10.101 7.54588 9.98916C7.54588 9.8392 7.60545 9.69538 7.71149 9.58935C7.81752 9.48331 7.96134 9.42374 8.1113 9.42374ZM6.98046 12.4393C6.98046 12.2394 7.05989 12.0476 7.20127 11.9062C7.34265 11.7648 7.53441 11.6854 7.73435 11.6854H8.48825C8.68819 11.6854 8.87995 11.7648 9.02133 11.9062C9.16271 12.0476 9.24214 12.2394 9.24214 12.4393V13.9471H6.98046V12.4393Z" fill="#DAA7EE"/>
</svg>
