<svg width="39" height="42" viewBox="0 0 39 42" fill="none" xmlns="http://www.w3.org/2000/svg">
<path fill-rule="evenodd" clip-rule="evenodd" d="M2.13245 12.8161C4.29125 5.41408 11.1301 0 19.2241 0C27.3182 0 34.157 5.41408 36.3158 12.8161H37.7362C38.1293 12.8161 38.4482 13.1351 38.4482 13.5281V22.0721C38.4482 22.4652 38.1293 22.7842 37.7362 22.7842H36.3158C35.6864 24.9444 34.6575 26.9351 33.3154 28.6717C33.0755 28.9829 32.6276 29.0398 32.3165 28.7999C32.006 28.5592 31.9484 28.1121 32.189 27.8009C33.3403 26.3107 34.241 24.6176 34.827 22.7842H26.3442C25.9511 22.7842 25.6322 22.4652 25.6322 22.0721C25.6322 21.6791 25.9511 21.3601 26.3442 21.3601H37.0242V14.2401H1.42401V21.3601H2.66219H2.68853H19.9361C20.3292 21.3601 20.6481 21.6791 20.6481 22.0721C20.6481 22.4652 20.3292 22.7842 19.9361 22.7842H13.1301C13.6384 26.7151 14.7278 30.0238 16.176 32.0901C17.076 33.3745 18.0892 34.1698 19.2106 34.1762H19.2241C19.4527 34.1762 19.6805 34.1712 19.9069 34.162C20.2993 34.1463 20.6318 34.4518 20.6474 34.8441C20.6638 35.2371 20.3576 35.5689 19.9653 35.5853C19.7197 35.5953 19.4726 35.6002 19.2241 35.6002C11.1301 35.6002 4.29125 30.1862 2.13245 22.7842H0.712005C0.318978 22.7842 0 22.4652 0 22.0721V13.5281C0 13.1351 0.318978 12.8161 0.712005 12.8161H2.13245ZM11.6947 22.7842H3.62126C5.38418 28.3001 9.9937 32.5486 15.7175 33.7996C15.474 33.5304 15.2376 33.2328 15.0098 32.9074C13.4398 30.6668 12.2287 27.0683 11.6947 22.7842ZM15.7175 1.80066C9.99298 3.05165 5.38418 7.30018 3.62126 12.8161H11.6947C12.2287 8.53195 13.4398 4.93348 15.0098 2.6928C15.2376 2.36742 15.474 2.0698 15.7175 1.80066ZM25.3182 12.8161C24.8098 8.88511 23.7204 5.57642 22.2722 3.51018C21.3687 2.22074 20.3512 1.42401 19.2241 1.42401C18.097 1.42401 17.0796 2.22074 16.176 3.51018C14.7278 5.57642 13.6384 8.88511 13.1301 12.8161H25.3182ZM22.7307 1.80066C22.9743 2.0698 23.2106 2.36742 23.4385 2.6928C25.0084 4.93348 26.2196 8.53195 26.7536 12.8161H34.827C33.0648 7.3009 28.4553 3.05165 22.7307 1.80066Z" fill="#DAA7EE"/>
<path fill-rule="evenodd" clip-rule="evenodd" d="M26.1059 36.8472L23.277 39.6646C23.0734 39.8682 22.7674 39.9281 22.5016 39.8177C22.2358 39.7073 22.0625 39.4482 22.0625 39.1605V22.7844C22.0625 22.496 22.2364 22.2369 22.5021 22.1265C22.7684 22.0162 23.0744 22.0774 23.278 22.281L34.6705 33.6731C34.8742 33.8767 34.9347 34.1829 34.8246 34.4492C34.7144 34.7148 34.4549 34.8885 34.1667 34.8885H30.2627L31.9732 38.88C32.122 39.2267 31.9742 39.6283 31.6374 39.797L28.7892 41.2211C28.6137 41.3093 28.4096 41.3207 28.2253 41.2524C28.041 41.1847 27.8927 41.0438 27.8159 40.8636L26.1059 36.8472ZM32.4478 33.4645L23.4869 24.5032V37.446L25.8464 35.0957C26.014 34.9291 26.2532 34.8564 26.485 34.9013C26.7168 34.9469 26.9116 35.1042 27.004 35.3214L28.8294 39.6091L30.4 38.8237L28.5281 34.457C28.4341 34.237 28.4566 33.9842 28.5882 33.7842C28.7203 33.5848 28.9432 33.4645 29.1829 33.4645H32.4478Z" fill="#DAA7EE"/>
<path fill-rule="evenodd" clip-rule="evenodd" d="M22.7756 10.6803C22.7756 10.8691 22.7006 11.0502 22.567 11.1837C22.4335 11.3173 22.2524 11.3923 22.0636 11.3923C21.8747 11.3923 21.6936 11.3173 21.5601 11.1837C21.4266 11.0502 21.3516 10.8691 21.3516 10.6803C21.3516 10.4914 21.4266 10.3103 21.5601 10.1768C21.6936 10.0433 21.8747 9.96826 22.0636 9.96826C22.2524 9.96826 22.4335 10.0433 22.567 10.1768C22.7006 10.3103 22.7756 10.4914 22.7756 10.6803Z" fill="#DAA7EE"/>
<path fill-rule="evenodd" clip-rule="evenodd" d="M16.376 11.3911H19.2241C19.617 11.3911 19.9361 11.0721 19.9361 10.679C19.9361 10.286 19.617 9.96704 19.2241 9.96704H16.376C15.983 9.96704 15.6641 10.286 15.6641 10.679C15.6641 11.0721 15.983 11.3911 16.376 11.3911Z" fill="#DAA7EE"/>
<path fill-rule="evenodd" clip-rule="evenodd" d="M5.69163 18.0372L7.25817 15.9489C7.39257 15.7694 7.60357 15.6641 7.82777 15.6641C8.05186 15.6641 8.26285 15.7694 8.39726 15.9489L9.96367 18.0372L11.5302 15.9489C11.7659 15.6342 12.2125 15.5708 12.527 15.8065C12.8414 16.0421 12.9051 16.4886 12.6693 16.8033L10.5334 19.6513C10.3989 19.8307 10.1879 19.9361 9.96379 19.9361C9.73958 19.9361 9.52859 19.8307 9.39406 19.6513L7.82765 17.563L6.26124 19.6513C6.12684 19.8307 5.91584 19.9361 5.69163 19.9361C5.46755 19.9361 5.25655 19.8307 5.12203 19.6513L2.98613 16.8033C2.75029 16.4886 2.81404 16.0421 3.12841 15.8065C3.44291 15.5708 3.8895 15.6342 4.12522 15.9489L5.69163 18.0372Z" fill="#DAA7EE"/>
<path fill-rule="evenodd" clip-rule="evenodd" d="M17.0901 18.0372L18.6566 15.9489C18.791 15.7694 19.002 15.6641 19.2261 15.6641C19.4503 15.6641 19.6613 15.7694 19.7957 15.9489L21.3621 18.0372L22.9285 15.9489C23.1644 15.6342 23.611 15.5708 23.9253 15.8065C24.2398 16.0421 24.3036 16.4886 24.0677 16.8033L21.9318 19.6513C21.7973 19.8307 21.5863 19.9361 21.3622 19.9361C21.138 19.9361 20.927 19.8307 20.7926 19.6513L19.2261 17.563L17.6598 19.6513C17.5253 19.8307 17.3143 19.9361 17.0902 19.9361C16.866 19.9361 16.655 19.8307 16.5205 19.6513L14.3845 16.8033C14.1487 16.4886 14.2125 16.0421 14.527 15.8065C14.8414 15.5708 15.288 15.6342 15.5237 15.9489L17.0901 18.0372Z" fill="#DAA7EE"/>
<path fill-rule="evenodd" clip-rule="evenodd" d="M28.4729 18.0372L30.0394 15.9489C30.1738 15.7694 30.3848 15.6641 30.609 15.6641C30.8331 15.6641 31.0441 15.7694 31.1786 15.9489L32.7449 18.0372L34.3113 15.9489C34.5472 15.6342 34.9938 15.5708 35.3081 15.8065C35.6226 16.0421 35.6864 16.4886 35.4505 16.8033L33.3146 19.6513C33.1801 19.8307 32.9691 19.9361 32.745 19.9361C32.5208 19.9361 32.3098 19.8307 32.1754 19.6513L30.6089 17.563L29.0425 19.6513C28.9081 19.8307 28.6971 19.9361 28.473 19.9361C28.2488 19.9361 28.0378 19.8307 27.9034 19.6513L25.7674 16.8033C25.5315 16.4886 25.5953 16.0421 25.9097 15.8065C26.2242 15.5708 26.6708 15.6342 26.9065 15.9489L28.4729 18.0372Z" fill="#DAA7EE"/>
</svg>
