<svg width="20" height="20" viewBox="0 0 20 20" fill="none" xmlns="http://www.w3.org/2000/svg">
<g clip-path="url(#clip0_1165_11022)">
<path d="M9.33984 12.8711H4.76562C4.35156 12.8633 4.35156 12.2461 4.76562 12.2383H9.33594C9.75391 12.25 9.75391 12.8672 9.33984 12.8711ZM19.4492 18.8398C19.543 19.1836 19.3125 19.5742 18.9609 19.6523L17.832 19.9414C17.4883 20.0391 17.1016 19.8086 17.0195 19.4609C16.6875 18.1641 16.3594 16.8672 16.0312 15.5703C15.957 15.2812 16.0938 14.9844 16.3398 14.8359L15.9531 13.3086C15.7734 13.3203 15.5938 13.3164 15.4141 13.3047C15.3984 13.7344 15.4688 14.9141 15.3398 15.3125C15.0703 16.3672 14.1172 17.1055 13.0273 17.1055H2.71484C1.39453 17.1055 0.324219 16.0312 0.324219 14.7109V14.2656C0.324219 14.0898 0.464844 13.9492 0.640625 13.9492H3.08594V2.99219C3.08203 1.36328 4.40625 0.0390625 6.03516 0.0390625H16.9102C18.082 0.0429688 19.0625 1.05078 19.0625 2.24609V4.20312C19.0625 4.52734 18.7969 4.79297 18.4727 4.79297H15.4102V5.49219C18.6797 5.23828 20.7227 8.58203 19.1211 11.4102C18.7305 12.082 18.1445 12.6055 17.4531 12.9336L17.8398 14.457C18.1289 14.4609 18.3945 14.6758 18.4609 14.9609C18.7891 16.25 19.1211 17.5469 19.4492 18.8398ZM15.4102 4.16016H18.4297V2.24609C18.4297 1.38672 17.7227 0.65625 16.8945 0.671875C16.0938 0.667969 15.3906 1.38281 15.4102 2.17969V4.16016ZM11.3945 16.4766C10.8789 16.0117 10.6016 15.3047 10.625 14.5859C8.88672 14.5859 2.57812 14.5859 0.953125 14.582C0.886719 15.5977 1.69141 16.4805 2.71484 16.4766H11.3945ZM14.7773 13.2109C10.8945 12.2539 10.8125 6.48828 14.7773 5.58203V2.17969C14.7734 1.61719 15.0039 1.06641 15.3984 0.671875H6.03516C4.75391 0.671875 3.71484 1.71094 3.71484 2.99219V13.957H10.9453C11.1211 13.957 11.2617 14.0977 11.2617 14.2734V14.6484C11.2461 15.4805 11.8594 16.2812 12.6602 16.4453C13.5664 16.6445 14.5039 16.0625 14.7266 15.1602C14.8242 14.8516 14.7617 13.5508 14.7773 13.2109ZM18.5742 11.0898C19.875 8.79688 18.3672 6.09766 15.7109 6.10547C13.8594 6.06641 12.3359 7.625 12.4609 9.50781C12.6055 12.8594 16.8906 13.8398 18.5742 11.0898ZM16.5859 13.25L16.9414 14.6484L17.2148 14.5781L16.8594 13.1797C16.7734 13.2109 16.6797 13.2305 16.5859 13.25ZM18.8359 18.9961C18.5078 17.6992 18.1719 16.4062 17.8438 15.1094C17.8359 15.0508 17.7266 15.1055 17.6758 15.1172C17.5586 15.1445 16.8047 15.3398 16.6719 15.3711C16.6484 15.3789 16.6367 15.3945 16.6406 15.4141C16.9805 16.7148 17.2852 18.0352 17.6484 19.3203C17.6562 19.3242 17.6641 19.3281 17.6719 19.3242L18.8086 19.0352C18.8242 19.0352 18.8438 19.0195 18.8359 18.9961ZM15.7266 12.0977C14.2969 12.1289 13.0977 10.9375 13.0508 9.49609C12.9688 8.13281 13.9297 6.92969 15.2656 6.73438C16.3555 6.55859 17.4336 7.00781 18.0156 7.875C19.1719 9.63672 17.9102 12.1289 15.7266 12.0977ZM17.4883 8.22266C16.8594 7.24219 15.2578 7.02344 14.3711 7.80469C13.3711 8.59766 13.4922 10.4063 14.5469 11.1016C16.5078 12.3672 18.6758 10.1484 17.4883 8.22266ZM9.65625 8.22266V9.78906C9.65625 9.96484 9.51562 10.1055 9.33984 10.1055H7.77344C7.59766 10.1055 7.45703 9.96484 7.45703 9.78906V8.22266C7.45703 8.04688 7.59766 7.90625 7.77344 7.90625H9.33984C9.51172 7.90625 9.65625 8.04688 9.65625 8.22266ZM9.02344 8.53906H8.08984V9.47266H9.02344V8.53906ZM12.5078 4.48438H14.1133C14.5273 4.47656 14.5273 3.85938 14.1133 3.85156H12.6445L11.9375 3.10938C11.8164 2.98438 11.5977 2.98438 11.4805 3.10938L10.1523 4.50391L8.73828 2.34766C8.67578 2.25 8.56641 2.19922 8.44922 2.20703C8.33203 2.21484 8.23438 2.28906 8.1875 2.39453L6.90234 5.30469L6.39844 4.05078C6.35156 3.92969 6.23438 3.85156 6.10547 3.85156H4.57422C4.16016 3.85938 4.16016 4.47656 4.57422 4.48438H5.89453L6.60156 6.23438C6.64844 6.35156 6.76172 6.42969 6.89062 6.43359C7.01562 6.4375 7.13281 6.36328 7.18359 6.24609L8.53516 3.17969L9.85156 5.18359C9.95703 5.35156 10.2109 5.375 10.3438 5.22656L11.7188 3.78125L12.293 4.38281C12.3398 4.44922 12.4219 4.48438 12.5078 4.48438ZM4.76562 11.5391H7.08594C7.5 11.5312 7.5 10.9141 7.08594 10.9062H4.76562C4.35156 10.918 4.35156 11.5352 4.76562 11.5391ZM6.64844 8.22266V9.78906C6.64844 9.96484 6.50781 10.1055 6.33203 10.1055H4.76562C4.58984 10.1055 4.44922 9.96484 4.44922 9.78906V8.22266C4.44922 8.04688 4.58984 7.90625 4.76562 7.90625H6.33203C6.50781 7.90625 6.64844 8.04688 6.64844 8.22266ZM6.01562 8.53906H5.08203V9.47266H6.01562V8.53906Z" fill="#DAA7EE"/>
</g>
<defs>
<clipPath id="clip0_1165_11022">
<rect width="20" height="20" fill="white"/>
</clipPath>
</defs>
</svg>
