<svg width="39" height="43" viewBox="0 0 39 43" fill="none" xmlns="http://www.w3.org/2000/svg">
<path d="M17.2279 28.753C17.3235 29.54 17.1125 30.2583 16.6176 30.8303C16.0415 31.4965 15.0873 31.9446 14.001 32.0743V32.8728C14.001 33.2438 13.7003 33.5445 13.3293 33.5445C12.9584 33.5445 12.6576 33.2438 12.6576 32.8728V32.0645C11.0444 31.8351 9.79193 30.8103 9.42785 29.35C9.33818 28.9901 9.55724 28.6255 9.91712 28.5358C10.2769 28.4461 10.6417 28.6651 10.7314 29.0251C11.0496 30.3014 12.3 30.7586 13.3251 30.7692C13.3314 30.7693 13.3377 30.7692 13.3441 30.7694C13.3782 30.7695 13.412 30.7693 13.4455 30.7685C14.3446 30.747 15.1908 30.4264 15.6016 29.9516C15.8486 29.666 15.9444 29.3269 15.8943 28.9149C15.7753 27.9352 14.9536 27.372 13.2297 27.0891C10.448 26.6324 9.80024 25.2184 9.74667 24.1127C9.67219 22.5806 10.7437 21.2969 12.4128 20.9183C12.4933 20.9001 12.5749 20.8842 12.6577 20.8707V20.0527C12.6577 19.6818 12.9584 19.381 13.3294 19.381C13.7004 19.381 14.0011 19.6818 14.0011 20.0527V20.865C15.184 21.0465 16.3476 21.7363 16.931 23.1256C17.0746 23.4676 16.9137 23.8613 16.5717 24.0049C16.2301 24.1485 15.8359 23.9878 15.6923 23.6456C15.2477 22.5868 14.2959 22.1567 13.3769 22.1547C13.3507 22.1564 13.324 22.1568 13.2974 22.1556C13.0974 22.1605 12.8999 22.1855 12.7101 22.2285C11.8925 22.4139 11.0371 22.9893 11.0885 24.0476C11.1046 24.3788 11.1534 25.3868 13.4475 25.7635C14.3099 25.905 16.9346 26.3358 17.2279 28.753ZM38.9999 31.8306C38.9999 37.7574 34.1781 42.5792 28.2514 42.5792C24.8966 42.5792 21.8962 41.0339 19.9236 38.6182C17.9257 39.6044 15.6692 40.1048 13.365 40.0682C13.2847 40.0695 13.2042 40.0701 13.1241 40.0701C8.25241 40.0703 3.82767 37.6888 1.53154 33.8142C-0.552995 30.2967 -0.507737 26.1005 1.65573 22.3017C3.00094 19.9397 5.05752 17.2673 8.08725 13.9493C7.23475 13.538 6.64523 12.6648 6.64523 11.6567C6.64523 10.3068 7.70236 9.19965 9.03212 9.11821L7.10838 7.19455C6.61962 6.70579 6.35042 6.05404 6.35042 5.35923C6.35042 4.66441 6.61962 4.01258 7.10838 3.5239C7.96492 2.66737 9.32709 2.5211 10.347 3.17578C10.4438 3.23783 10.5343 3.24589 10.6402 3.20198C10.7461 3.15815 10.8043 3.08845 10.8287 2.97628C11.0875 1.79185 12.1541 0.932297 13.365 0.932129C14.576 0.932129 15.6427 1.79169 15.9014 2.97602C15.9259 3.08837 15.9841 3.15798 16.0902 3.20189C16.196 3.24564 16.2863 3.23766 16.383 3.1757C17.403 2.52093 18.7653 2.66728 19.6217 3.52373C20.6338 4.53586 20.6338 6.18251 19.6218 7.19447L17.6981 9.11821C19.0278 9.19965 20.0849 10.3068 20.0849 11.6567C20.0849 12.6649 19.4954 13.538 18.6428 13.9493C21.413 16.9828 23.3659 19.4721 24.7096 21.6824C25.8192 21.2941 27.011 21.0822 28.2514 21.0822C34.1782 21.0822 38.9999 25.9039 38.9999 31.8306ZM8.0582 6.24456L10.9267 9.11292H15.8034L18.6717 6.24456C19.1599 5.75638 19.1599 4.96198 18.6717 4.47372C18.2586 4.06061 17.6013 3.99016 17.1086 4.30629C16.6442 4.60446 16.0853 4.65425 15.5758 4.44308C15.0662 4.2319 14.7064 3.80158 14.5887 3.26252C14.4639 2.69071 13.9493 2.27558 13.3651 2.27558C12.7809 2.27567 12.2663 2.69079 12.1414 3.26268C12.0238 3.80166 11.6639 4.2319 11.1543 4.44308C10.6446 4.654 10.0861 4.60421 9.62156 4.30638C9.12902 3.99008 8.47157 4.06053 8.05837 4.47381C7.82327 4.70883 7.69387 5.02319 7.69387 5.35914C7.69387 5.69509 7.82335 6.00954 8.0582 6.24456ZM7.98868 11.6567C7.98868 12.3186 8.52715 12.8571 9.18905 12.8571H17.541C18.203 12.8571 18.7414 12.3186 18.7414 11.6568C18.7414 10.9949 18.203 10.4565 17.541 10.4565H9.18905C8.52715 10.4564 7.98868 10.9948 7.98868 11.6567ZM19.13 37.51C18.0996 35.861 17.5029 33.9143 17.5029 31.8306C17.5029 27.6253 19.9309 23.977 23.4583 22.212C22.0674 19.9625 20.0086 17.3907 17.0481 14.2005H9.68202C6.38779 17.7505 4.20451 20.5411 2.8231 22.9665C0.876943 26.3838 0.828747 29.993 2.68733 33.1293C4.77757 36.6564 8.86318 38.8007 13.3538 38.7247C13.3613 38.7246 13.3689 38.7246 13.3764 38.7247C15.3983 38.7596 17.3705 38.3398 19.13 37.51ZM37.6565 31.8306C37.6565 26.6446 33.4374 22.4255 28.2514 22.4255C23.0654 22.4255 18.8463 26.6446 18.8463 31.8306C18.8463 37.0166 23.0655 41.2357 28.2515 41.2357C33.4375 41.2357 37.6565 37.0166 37.6565 31.8306ZM36.7498 31.8306C36.7498 36.5167 32.9374 40.3291 28.2514 40.3291C23.5653 40.3291 19.7529 36.5167 19.7529 31.8306C19.7529 27.1446 23.5653 23.3322 28.2514 23.3322C32.9374 23.3322 36.7498 27.1446 36.7498 31.8306ZM35.4064 31.8306C35.4064 27.8853 32.1966 24.6756 28.2514 24.6756C24.3061 24.6756 21.0963 27.8854 21.0963 31.8306C21.0963 35.7758 24.3061 38.9856 28.2514 38.9856C32.1967 38.9857 35.4064 35.7759 35.4064 31.8306ZM31.9524 33.1918L28.9231 31.4429V27.1807C28.9231 26.8097 28.6224 26.509 28.2514 26.509C27.8804 26.509 27.5797 26.8097 27.5797 27.1807V31.8307C27.5797 32.0707 27.7076 32.2924 27.9155 32.4124L31.2807 34.3553C31.3865 34.4164 31.502 34.4454 31.6159 34.4454C31.8481 34.4454 32.0739 34.3249 32.1983 34.1095C32.3838 33.7881 32.2737 33.3773 31.9524 33.1918Z" fill="#DAA7EE"/>
</svg>
