<svg width="40" height="40" viewBox="0 0 40 40" fill="none" xmlns="http://www.w3.org/2000/svg">
<g clip-path="url(#clip0_961_16226)">
<path d="M16.3634 39.1516C16.3028 39.1516 16.3028 39.1516 16.2422 39.1516C13.6361 38.6667 11.1513 37.6364 8.84823 36.1819C8.72702 36.0607 8.60581 35.9395 8.60581 35.7576C8.60581 35.5758 8.66641 35.394 8.78763 35.2728C10.3634 33.5758 10.727 31.3334 9.63611 30.2425C8.5452 29.1516 6.18157 29.5152 4.5452 31.091C4.42399 31.2122 4.24217 31.2728 4.06035 31.2728C3.87853 31.2728 3.69672 31.1516 3.63611 31.0304C2.12096 28.7879 1.09066 26.3637 0.605807 23.7576C0.545201 23.5758 0.605807 23.394 0.727019 23.2728C0.848232 23.1516 0.969444 23.0304 1.15126 23.0304C3.5755 22.9091 5.39369 21.6364 5.39369 20.0607C5.39369 18.5455 3.45429 17.2122 1.15126 17.091C0.969444 17.091 0.787626 16.9698 0.727019 16.8485C0.605807 16.6667 0.605807 16.4849 0.605807 16.3031C1.09066 13.697 2.12096 11.2122 3.69672 8.96975C3.81793 8.84854 3.93914 8.72733 4.12096 8.72733C4.30278 8.72733 4.4846 8.78794 4.60581 8.90915C6.36338 10.4849 8.60581 10.8485 9.75732 9.75763C10.8482 8.66672 10.4846 6.4243 8.90884 4.72733C8.78763 4.60612 8.72702 4.4243 8.72702 4.24248C8.72702 4.06066 8.84823 3.87885 8.96945 3.81824C11.1513 2.30309 13.6361 1.33339 16.3634 0.787936C16.5452 0.72733 16.727 0.787936 16.8482 0.909148C16.9694 1.03036 17.0907 1.21218 17.0907 1.394C17.2119 3.75763 18.5452 5.57582 20.121 5.57582C21.6967 5.57582 23.0301 3.75763 23.1513 1.4546C23.1513 1.27278 23.2725 1.09097 23.3937 1.03036C23.5149 0.909148 23.6967 0.848542 23.8785 0.909148C26.4846 1.394 28.9694 2.4243 31.2725 3.87885C31.3937 3.93945 31.5149 4.12127 31.5149 4.30309C31.5149 4.48491 31.4543 4.66672 31.3331 4.78794C29.7573 6.48491 29.3937 8.72733 30.4846 9.81824C31.5755 10.9091 33.8785 10.5455 35.5755 8.96975C35.6967 8.84854 35.8785 8.78794 36.0604 8.78794C36.2422 8.78794 36.3634 8.90915 36.4846 9.03036C37.9391 11.091 38.9695 13.5152 39.5755 16.3031C39.6361 16.4849 39.5755 16.6667 39.4543 16.7879C39.3331 16.9091 39.1513 17.0304 39.0301 17.0304C36.727 17.1516 34.8482 18.4849 34.8482 20.0001C34.7876 20.7273 35.0907 21.2122 35.3937 21.5152C36.121 22.3637 37.4543 22.9092 38.9088 22.9698C39.0907 22.9698 39.2725 23.091 39.3331 23.2122C39.4543 23.3334 39.5149 23.5152 39.4543 23.697C38.9694 26.3031 37.8785 28.8485 36.3634 30.9698C36.2422 31.091 36.121 31.2122 35.9391 31.2122C35.7573 31.2122 35.5755 31.1516 35.4543 31.091C33.6361 29.5152 31.4543 29.1516 30.3634 30.2425C29.2725 31.3334 29.6361 33.5152 31.2119 35.2728C31.3331 35.394 31.3937 35.5758 31.3937 35.7576C31.3937 35.9395 31.2725 36.0607 31.1513 36.1819C28.9694 37.6364 26.5452 38.6667 23.8179 39.2122C23.6361 39.2728 23.4543 39.2122 23.3331 39.091C23.2119 38.9698 23.0907 38.7879 23.0907 38.6667C22.9694 36.3637 21.6361 34.5455 20.0604 34.5455C18.5452 34.5455 17.2119 36.3637 17.0301 38.7273C17.0301 38.9091 16.9088 39.0304 16.7876 39.1516C16.6058 39.091 16.4846 39.1516 16.3634 39.1516ZM10.121 35.5152C11.9391 36.6061 13.8179 37.394 15.8179 37.8182C16.2422 35.1516 17.9391 33.2122 19.9997 33.2122C22.121 33.2122 23.8179 35.1516 24.1816 37.8182C26.2422 37.3334 28.121 36.6061 29.8179 35.5152C28.1816 33.3334 27.9997 30.7879 29.4543 29.3334C30.9694 27.8788 33.5149 28.0607 35.6967 29.697C36.7876 28.0001 37.6361 26.0607 38.0604 24.1213C36.5452 23.9395 35.2119 23.2728 34.424 22.3031C33.8179 21.5758 33.5149 20.7879 33.6361 19.9395C33.6361 17.9395 35.6361 16.2425 38.3028 15.8788C37.7573 13.7576 36.9694 11.8788 35.9391 10.3031C33.7573 11.9395 31.1513 12.1213 29.6967 10.6667C28.2422 9.21218 28.424 6.60612 30.0604 4.48491C28.2422 3.394 26.3634 2.60612 24.3634 2.18188C23.9998 4.84854 22.3028 6.78794 20.1816 6.78794C18.121 6.78794 16.3634 4.78794 15.9997 2.12127C13.9391 2.60612 11.9997 3.33339 10.3028 4.4243C11.9391 6.54551 12.121 9.15157 10.6664 10.6061C9.15126 12.0607 6.5452 11.8788 4.36338 10.2425C3.21187 12.0001 2.42399 13.9395 1.99975 15.8788C4.66641 16.2425 6.66641 17.9395 6.66641 20.0001C6.66641 22.0607 4.66641 23.7576 1.93914 24.1213C2.36338 26.0607 3.15126 27.9395 4.24217 29.697C6.36338 28.0607 9.03005 27.8788 10.4846 29.3334C11.9391 30.7879 11.7573 33.394 10.121 35.5152Z" fill="#DAA7EE"/>
<path d="M20.0001 31.2121C13.7577 31.2121 8.66675 26.1818 8.66675 20C8.66675 13.8181 13.7577 8.78784 20.0001 8.78784C26.2425 8.78784 31.3334 13.8181 31.3334 20C31.3334 26.1818 26.2425 31.2121 20.0001 31.2121ZM20.0001 9.99996C14.4243 9.99996 9.87887 14.4848 9.87887 20C9.87887 25.5151 14.4243 30 20.0001 30C25.5758 30 30.1213 25.5151 30.1213 20C30.1213 14.4848 25.5758 9.99996 20.0001 9.99996Z" fill="#DAA7EE"/>
<path d="M26.2424 20.6062H25.3334C24.9697 20.6062 24.7273 20.3637 24.7273 20.0001C24.7273 19.6365 24.9697 19.394 25.3334 19.394H26.2424C26.6061 19.394 26.8485 19.6365 26.8485 20.0001C26.8485 20.3637 26.6061 20.6062 26.2424 20.6062Z" fill="#DAA7EE"/>
<path d="M21.4546 20.6062H13.7577C13.394 20.6062 13.1516 20.3637 13.1516 20.0001C13.1516 19.6365 13.394 19.394 13.7577 19.394H21.4546C21.8183 19.394 22.0607 19.6365 22.0607 20.0001C22.0607 20.3637 21.8183 20.6062 21.4546 20.6062Z" fill="#DAA7EE"/>
<path d="M26.2424 24.9697H18.909C18.5454 24.9697 18.303 24.7273 18.303 24.3636C18.303 24 18.5454 23.7576 18.909 23.7576H26.2424C26.606 23.7576 26.8484 24 26.8484 24.3636C26.8484 24.7273 26.606 24.9697 26.2424 24.9697Z" fill="#DAA7EE"/>
<path d="M15.0304 24.9697H13.7577C13.394 24.9697 13.1516 24.7273 13.1516 24.3636C13.1516 24 13.394 23.7576 13.7577 23.7576H15.0304C15.394 23.7576 15.6365 24 15.6365 24.3636C15.6365 24.7273 15.394 24.9697 15.0304 24.9697Z" fill="#DAA7EE"/>
<path d="M26.2424 16.2424H18.909C18.5454 16.2424 18.303 16 18.303 15.6363C18.303 15.2727 18.5454 15.0303 18.909 15.0303H26.2424C26.606 15.0303 26.8484 15.2727 26.8484 15.6363C26.8484 16 26.606 16.2424 26.2424 16.2424Z" fill="#DAA7EE"/>
<path d="M15.0304 16.2424H13.7577C13.394 16.2424 13.1516 16 13.1516 15.6363C13.1516 15.2727 13.394 15.0303 13.7577 15.0303H15.0304C15.394 15.0303 15.6365 15.2727 15.6365 15.6363C15.6365 16 15.394 16.2424 15.0304 16.2424Z" fill="#DAA7EE"/>
<path d="M16.9698 18.1819C15.5758 18.1819 14.4243 17.0303 14.4243 15.6364C14.4243 14.2425 15.5758 13.0909 16.9698 13.0909C18.3637 13.0909 19.5152 14.2425 19.5152 15.6364C19.5152 17.0303 18.3637 18.1819 16.9698 18.1819ZM16.9698 14.3031C16.2425 14.3031 15.6364 14.9091 15.6364 15.6364C15.6364 16.3637 16.2425 16.9697 16.9698 16.9697C17.697 16.9697 18.3031 16.3637 18.3031 15.6364C18.3031 14.9091 17.697 14.3031 16.9698 14.3031Z" fill="#DAA7EE"/>
<path d="M23.3936 22.5455C21.9997 22.5455 20.8481 21.394 20.8481 20C20.8481 18.6061 21.9997 17.4546 23.3936 17.4546C24.7875 17.4546 25.9391 18.6061 25.9391 20C25.9391 21.394 24.7875 22.5455 23.3936 22.5455ZM23.3936 18.6667C22.6663 18.6667 22.0603 19.2728 22.0603 20C22.0603 20.7273 22.6663 21.3334 23.3936 21.3334C24.1209 21.3334 24.7269 20.7273 24.7269 20C24.7269 19.2728 24.1209 18.6667 23.3936 18.6667Z" fill="#DAA7EE"/>
<path d="M16.9698 26.909C15.5758 26.909 14.4243 25.7575 14.4243 24.3636C14.4243 22.9696 15.5758 21.8181 16.9698 21.8181C18.3637 21.8181 19.5152 22.9696 19.5152 24.3636C19.5152 25.7575 18.3637 26.909 16.9698 26.909ZM16.9698 23.0302C16.2425 23.0302 15.6364 23.6363 15.6364 24.3636C15.6364 25.0908 16.2425 25.6969 16.9698 25.6969C17.697 25.6969 18.3031 25.0908 18.3031 24.3636C18.3031 23.6363 17.697 23.0302 16.9698 23.0302Z" fill="#DAA7EE"/>
</g>
<defs>
<clipPath id="clip0_961_16226">
<rect width="40" height="40" fill="white"/>
</clipPath>
</defs>
</svg>
