<svg width="22" height="32" viewBox="0 0 22 32" fill="none" xmlns="http://www.w3.org/2000/svg">
<path d="M10.4967 29.2781C10.5394 29.3356 10.5949 29.3826 10.6587 29.4153C10.7225 29.4479 10.793 29.4655 10.8647 29.4665H10.8708C10.9415 29.4665 11.0112 29.4504 11.0747 29.4195C11.1381 29.3885 11.1938 29.3436 11.2373 29.2879C11.6226 28.7964 20.6714 17.1663 20.6714 9.80053C20.6714 7.20126 19.6388 4.70846 17.8009 2.87051C15.9629 1.03255 13.4701 0 10.8708 0C8.27158 0 5.77878 1.03255 3.94082 2.87051C2.10286 4.70846 1.07031 7.20126 1.07031 9.80053C1.07031 12.6214 2.662 16.7636 5.80172 22.1114C8.12125 26.0623 10.4733 29.2464 10.4967 29.2781ZM10.8708 0.931432C13.2223 0.934038 15.4767 1.86933 17.1395 3.5321C18.8022 5.19487 19.7374 7.44932 19.7399 9.80079C19.7399 16.0198 12.6142 25.9063 10.8804 28.2192C9.16765 25.8169 2.00174 15.4394 2.00174 9.80079C2.00428 7.44932 2.93951 5.19487 4.60223 3.5321C6.26495 1.86933 8.51936 0.934038 10.8708 0.931432Z" fill="#DAA7EE"/>
<path d="M16.5099 9.80061C16.5099 8.68633 16.1795 7.59706 15.5605 6.67054C14.9415 5.74403 14.0616 5.02188 13.0322 4.59543C12.0027 4.16898 10.87 4.05737 9.77708 4.27473C8.68421 4.49208 7.68033 5.02863 6.8924 5.81652C6.10446 6.60442 5.56787 7.60827 5.35046 8.70114C5.13306 9.794 5.24461 10.9268 5.67102 11.9563C6.09742 12.9857 6.81952 13.8656 7.74601 14.4847C8.67249 15.1037 9.76174 15.4342 10.876 15.4342C12.3697 15.4326 13.8017 14.8385 14.8579 13.7824C15.9141 12.7262 16.5082 11.2942 16.5099 9.80061ZM10.876 14.5027C9.94596 14.5027 9.03679 14.2269 8.26348 13.7102C7.49017 13.1935 6.88745 12.4591 6.53155 11.5998C6.17564 10.7405 6.08253 9.79503 6.264 8.88285C6.44546 7.97066 6.89335 7.13278 7.55102 6.47515C8.20869 5.81751 9.0466 5.36967 9.95879 5.18826C10.871 5.00685 11.8165 5.10001 12.6757 5.45596C13.535 5.81192 14.2694 6.41468 14.7861 7.18802C15.3027 7.96136 15.5785 8.87055 15.5784 9.80061C15.5769 11.0473 15.081 12.2425 14.1995 13.124C13.3179 14.0055 12.1227 14.5013 10.876 14.5027Z" fill="#DAA7EE"/>
<path d="M15.6222 26.2916C15.5012 26.2796 15.3802 26.3155 15.2852 26.3916C15.1903 26.4676 15.1288 26.5778 15.114 26.6986C15.0992 26.8194 15.1322 26.9411 15.206 27.0379C15.2798 27.1346 15.3885 27.1987 15.5089 27.2163C19.5186 27.7084 20.8159 28.6366 20.8159 29.0089C20.8159 29.708 17.3068 31.0687 10.8735 31.0687C4.44027 31.0687 0.931165 29.707 0.931165 29.0089C0.931165 28.6098 2.2035 27.793 5.6184 27.2991C5.73823 27.2787 5.84535 27.2123 5.91692 27.1141C5.98848 27.0158 6.01882 26.8935 6.00146 26.7732C5.98409 26.6529 5.92041 26.5441 5.82399 26.4701C5.72757 26.3961 5.60604 26.3627 5.48533 26.377C2.98377 26.7392 0 27.4894 0 29.0089C0 31.2037 6.50273 32.0002 10.8738 32.0002C15.2449 32.0002 21.7476 31.2037 21.7476 29.0089C21.7473 27.2988 17.9098 26.5726 15.6222 26.2916Z" fill="#DAA7EE"/>
</svg>
