<svg width="34" height="34" viewBox="0 0 34 34" fill="none" xmlns="http://www.w3.org/2000/svg">
<path d="M33.5624 16.3718L32.3162 15.7889L31.7333 14.5422C31.6558 14.3765 31.502 14.2591 31.3223 14.2271C31.1403 14.1946 30.9572 14.2535 30.8281 14.3832L29.1023 16.1084C27.7394 15.2284 26.1899 14.7185 24.5636 14.6174V5.99826C24.5659 5.9202 24.5535 5.8427 24.5232 5.7697C24.4945 5.70118 24.4535 5.63885 24.4019 5.58718L18.9792 0.164544C18.8737 0.0589661 18.731 0 18.5822 0H18.5738C18.5732 0 18.5732 0 18.5726 0H0.561582C0.251589 0 0 0.251589 0 0.561582V33.1334C0 33.4433 0.251589 33.6949 0.561582 33.6949H24.002C24.0071 33.6949 24.011 33.6921 24.0161 33.6921C29.2556 33.6612 33.5096 29.3915 33.5096 24.1447C33.5096 22.2982 32.9851 20.5314 32.0001 18.9995L33.7219 17.2776C33.8511 17.1485 33.9095 16.9637 33.878 16.7834C33.8466 16.6032 33.7281 16.4493 33.5624 16.3718ZM26.2281 24.1424C26.2281 25.3919 25.2117 26.4078 23.9627 26.4078C22.7138 26.4078 21.6973 25.3914 21.6973 24.1424C21.6973 22.8935 22.7138 21.877 23.9627 21.877C24.3839 21.877 24.7731 22 25.1111 22.2005L23.5623 23.7476C23.3427 23.9666 23.3427 24.3221 23.5623 24.5417C23.6718 24.6518 23.8156 24.7062 23.9599 24.7062C24.1042 24.7062 24.2469 24.6512 24.3569 24.5423L25.9063 22.9951C26.1068 23.3332 26.2293 23.7218 26.2293 24.1424H26.2281ZM25.9266 21.3862C25.3717 20.9897 24.695 20.7538 23.9627 20.7538C22.0943 20.7538 20.5741 22.274 20.5741 24.1424C20.5741 26.0108 22.0943 27.531 23.9627 27.531C25.8311 27.531 27.3513 26.0108 27.3513 24.1424C27.3513 23.4112 27.116 22.7351 26.7206 22.1808L28.1117 20.7915C28.8535 21.7085 29.3006 22.8738 29.3006 24.1424C29.3006 27.0857 26.906 29.4803 23.9627 29.4803C21.0195 29.4803 18.6249 27.0857 18.6249 24.1424C18.6249 21.1992 21.0195 18.8046 23.9627 18.8046C25.2336 18.8046 26.4005 19.2527 27.3182 19.9968L25.9266 21.3862ZM19.1342 1.90882L22.6486 5.42264H19.1342V1.90882ZM1.12316 32.5718V1.12316H18.0116V5.98478C18.0116 6.29478 18.2632 6.54636 18.5732 6.54636H23.4404V14.6208C18.4205 14.8932 14.4164 19.0539 14.4164 24.1447C14.4164 27.7905 16.4701 30.9628 19.479 32.5718H1.12316ZM23.9593 32.5718C19.3167 32.5718 15.5395 28.7918 15.5395 24.1447C15.5395 19.4976 19.3167 15.7176 23.9593 15.7176C25.5194 15.7176 27.016 16.1393 28.3256 16.9407C28.2729 17.0558 28.256 17.185 28.288 17.3113L28.6362 18.6805L28.1162 19.1999C26.9919 18.2537 25.5441 17.6814 23.9633 17.6814C20.4006 17.6814 17.5023 20.5797 17.5023 24.1424C17.5023 27.7051 20.4006 30.6034 23.9633 30.6034C27.526 30.6034 30.4243 27.7051 30.4243 24.1424C30.4243 22.5644 29.8537 21.1177 28.9103 19.9946L29.4336 19.4717L30.7938 19.8177C30.8399 19.8295 30.8865 19.8351 30.9325 19.8351C31.0151 19.8351 31.0942 19.8126 31.1689 19.7778C31.9669 21.088 32.387 22.5852 32.387 24.1452C32.387 28.7918 28.607 32.5723 23.9599 32.5723L23.9593 32.5718ZM30.7607 18.6501L29.7195 18.3851L29.4544 17.3439L31.0549 15.744L31.3846 16.4493C31.4402 16.5684 31.5362 16.6644 31.6553 16.72L32.3606 17.0496L30.7607 18.6501Z" fill="#DAA7EE"/>
<path d="M6.79371 8.125H3.96783C3.65784 8.125 3.40625 8.37659 3.40625 8.68658V11.5125C3.40625 11.8225 3.65784 12.074 3.96783 12.074H6.79371C7.10371 12.074 7.3553 11.8225 7.3553 11.5125V8.68658C7.3553 8.37659 7.10371 8.125 6.79371 8.125ZM6.23213 10.9509H4.52941V9.24816H6.23213V10.9509Z" fill="#DAA7EE"/>
<path d="M9.24127 9.68005H20.5487C20.8587 9.68005 21.1103 9.42846 21.1103 9.11847C21.1103 8.80847 20.8587 8.55688 20.5487 8.55688H9.24127C8.93128 8.55688 8.67969 8.80847 8.67969 9.11847C8.67969 9.42846 8.93128 9.68005 9.24127 9.68005Z" fill="#DAA7EE"/>
<path d="M9.24127 11.6027H17.8958C18.2058 11.6027 18.4574 11.3511 18.4574 11.0411C18.4574 10.7311 18.2058 10.4795 17.8958 10.4795H9.24127C8.93128 10.4795 8.67969 10.7311 8.67969 11.0411C8.67969 11.3511 8.93128 11.6027 9.24127 11.6027Z" fill="#DAA7EE"/>
<path d="M6.79371 13.7473H3.96783C3.65784 13.7473 3.40625 13.9989 3.40625 14.3089V17.1348C3.40625 17.4448 3.65784 17.6964 3.96783 17.6964H6.79371C7.10371 17.6964 7.3553 17.4448 7.3553 17.1348V14.3089C7.3553 13.9989 7.10371 13.7473 6.79371 13.7473ZM6.23213 16.5738H4.52941V14.871H6.23213V16.5738Z" fill="#DAA7EE"/>
<path d="M18.9229 14.1799H9.24127C8.93128 14.1799 8.67969 14.4315 8.67969 14.7415C8.67969 15.0515 8.93128 15.3031 9.24127 15.3031H18.9229C19.2329 15.3031 19.4845 15.0515 19.4845 14.7415C19.4845 14.4315 19.2329 14.1799 18.9229 14.1799Z" fill="#DAA7EE"/>
<path d="M16.3621 16.1006H9.24127C8.93128 16.1006 8.67969 16.3522 8.67969 16.6622C8.67969 16.9722 8.93128 17.2237 9.24127 17.2237H16.3621C16.6721 17.2237 16.9237 16.9722 16.9237 16.6622C16.9237 16.3522 16.6721 16.1006 16.3621 16.1006Z" fill="#DAA7EE"/>
<path d="M6.79371 19.3704H3.96783C3.65784 19.3704 3.40625 19.622 3.40625 19.9319V22.7578C3.40625 23.0678 3.65784 23.3194 3.96783 23.3194H6.79371C7.10371 23.3194 7.3553 23.0678 7.3553 22.7578V19.9319C7.3553 19.622 7.10371 19.3704 6.79371 19.3704ZM6.23213 22.1962H4.52941V20.4935H6.23213V22.1962Z" fill="#DAA7EE"/>
<path d="M13.981 19.8015H9.24127C8.93128 19.8015 8.67969 20.0531 8.67969 20.3631C8.67969 20.6731 8.93128 20.9247 9.24127 20.9247H13.981C14.291 20.9247 14.5426 20.6731 14.5426 20.3631C14.5426 20.0531 14.291 19.8015 13.981 19.8015Z" fill="#DAA7EE"/>
<path d="M13.4531 21.7278H9.24127C8.93128 21.7278 8.67969 21.9794 8.67969 22.2894C8.67969 22.5994 8.93128 22.8509 9.24127 22.8509H13.4531C13.7631 22.8509 14.0147 22.5994 14.0147 22.2894C14.0147 21.9794 13.7631 21.7278 13.4531 21.7278Z" fill="#DAA7EE"/>
<path d="M6.79371 24.9939H3.96783C3.65784 24.9939 3.40625 25.2455 3.40625 25.5555V28.3814C3.40625 28.6914 3.65784 28.9429 3.96783 28.9429H6.79371C7.10371 28.9429 7.3553 28.6914 7.3553 28.3814V25.5555C7.3553 25.2455 7.10371 24.9939 6.79371 24.9939ZM6.23213 27.8198H4.52941V26.1171H6.23213V27.8198Z" fill="#DAA7EE"/>
<path d="M13.4531 25.4229H9.24127C8.93128 25.4229 8.67969 25.6744 8.67969 25.9844C8.67969 26.2944 8.93128 26.546 9.24127 26.546H13.4531C13.7631 26.546 14.0147 26.2944 14.0147 25.9844C14.0147 25.6744 13.7631 25.4229 13.4531 25.4229Z" fill="#DAA7EE"/>
<path d="M13.9754 27.3491H9.24127C8.93128 27.3491 8.67969 27.6007 8.67969 27.9107C8.67969 28.2207 8.93128 28.4723 9.24127 28.4723H13.9754C14.2854 28.4723 14.537 28.2207 14.537 27.9107C14.537 27.6007 14.2854 27.3491 13.9754 27.3491Z" fill="#DAA7EE"/>
</svg>
