<svg width="37" height="37" viewBox="0 0 37 37" fill="none" xmlns="http://www.w3.org/2000/svg">
<g clip-path="url(#clip0_2354_4447)">
<path d="M36.4551 25.1901V34.29C36.4551 35.4874 35.4845 36.458 34.2871 36.458H2.70703C1.50966 36.458 0.539062 35.4874 0.539062 34.29V2.70996C0.539062 1.51259 1.50966 0.541992 2.70703 0.541992H34.2871C35.4845 0.541992 36.4551 1.51259 36.4551 2.70996V22.6608" stroke="#DAA7EE" stroke-width="1.08398" stroke-miterlimit="10" stroke-linecap="round" stroke-linejoin="round"/>
<path d="M9.46875 7.0459H36.4524" stroke="#DAA7EE" stroke-width="1.08398" stroke-miterlimit="10" stroke-linecap="round" stroke-linejoin="round"/>
<path d="M0.539062 7.0459H6.94209" stroke="#DAA7EE" stroke-width="1.08398" stroke-miterlimit="10" stroke-linecap="round" stroke-linejoin="round"/>
<path d="M3.78711 4.87793C4.38578 4.87793 4.87109 4.39261 4.87109 3.79395C4.87109 3.19528 4.38578 2.70996 3.78711 2.70996C3.18844 2.70996 2.70312 3.19528 2.70312 3.79395C2.70312 4.39261 3.18844 4.87793 3.78711 4.87793Z" stroke="#DAA7EE" stroke-width="1.08398" stroke-miterlimit="10" stroke-linecap="round" stroke-linejoin="round"/>
<path d="M8.13086 4.87793C8.72953 4.87793 9.21484 4.39261 9.21484 3.79395C9.21484 3.19528 8.72953 2.70996 8.13086 2.70996C7.53219 2.70996 7.04688 3.19528 7.04688 3.79395C7.04688 4.39261 7.53219 4.87793 8.13086 4.87793Z" stroke="#DAA7EE" stroke-width="1.08398" stroke-miterlimit="10" stroke-linecap="round" stroke-linejoin="round"/>
<path d="M12.459 4.87793C13.0577 4.87793 13.543 4.39261 13.543 3.79395C13.543 3.19528 13.0577 2.70996 12.459 2.70996C11.8603 2.70996 11.375 3.19528 11.375 3.79395C11.375 4.39261 11.8603 4.87793 12.459 4.87793Z" stroke="#DAA7EE" stroke-width="1.08398" stroke-miterlimit="10" stroke-linecap="round" stroke-linejoin="round"/>
<path d="M14.1406 13.8511L15.6015 10.0154C15.6313 9.94237 15.7347 9.9423 15.7646 10.0152L17.2123 13.8511" stroke="#DAA7EE" stroke-width="1.08398" stroke-miterlimit="10" stroke-linecap="round" stroke-linejoin="round"/>
<path d="M14.5938 12.8958H16.7616" stroke="#DAA7EE" stroke-width="1.08398" stroke-miterlimit="10" stroke-linecap="round" stroke-linejoin="round"/>
<path d="M23.8594 9.96045V13.8509" stroke="#DAA7EE" stroke-width="1.08398" stroke-miterlimit="10" stroke-linecap="round" stroke-linejoin="round"/>
<path d="M25.9527 10.0095L23.9844 11.8188L26.0908 13.8509" stroke="#DAA7EE" stroke-width="1.08398" stroke-miterlimit="10" stroke-linecap="round" stroke-linejoin="round"/>
<path d="M21.7807 10.3604C21.7807 10.3604 21.0826 9.7736 20.2594 10.0215C19.5035 10.2493 19.3978 11.1209 19.9446 11.4774C19.9446 11.4774 20.4813 11.7168 21.0764 11.9364C22.5092 12.4648 21.892 13.851 20.7386 13.851C20.161 13.851 19.6762 13.598 19.3828 13.2743" stroke="#DAA7EE" stroke-width="1.08398" stroke-miterlimit="10" stroke-linecap="round" stroke-linejoin="round"/>
<path d="M10.8984 9.96057H13.047" stroke="#DAA7EE" stroke-width="1.08398" stroke-miterlimit="10" stroke-linecap="round" stroke-linejoin="round"/>
<path d="M11.9688 10.0847V13.851" stroke="#DAA7EE" stroke-width="1.08398" stroke-miterlimit="10" stroke-linecap="round" stroke-linejoin="round"/>
<path d="M12.3359 16.8065H32.1193" stroke="#DAA7EE" stroke-width="1.08398" stroke-miterlimit="10" stroke-linecap="round" stroke-linejoin="round"/>
<path d="M12.3359 18.9745H26.6994" stroke="#DAA7EE" stroke-width="1.08398" stroke-miterlimit="10" stroke-linecap="round" stroke-linejoin="round"/>
<path d="M8.02614 20.6802H5.59766C5.19853 20.6802 4.875 20.3567 4.875 19.9575V17.5291C4.875 17.1299 5.19853 16.8064 5.59766 16.8064H8.02614C8.42527 16.8064 8.7488 17.1299 8.7488 17.5291V19.9575C8.7488 20.3567 8.42519 20.6802 8.02614 20.6802Z" stroke="#DAA7EE" stroke-width="1.08398" stroke-miterlimit="10" stroke-linecap="round" stroke-linejoin="round"/>
<path d="M12.3359 23.3104H32.1193" stroke="#DAA7EE" stroke-width="1.08398" stroke-miterlimit="10" stroke-linecap="round" stroke-linejoin="round"/>
<path d="M12.3359 25.4784H26.6994" stroke="#DAA7EE" stroke-width="1.08398" stroke-miterlimit="10" stroke-linecap="round" stroke-linejoin="round"/>
<path d="M8.02614 27.1841H5.59766C5.19853 27.1841 4.875 26.8606 4.875 26.4614V24.033C4.875 23.6338 5.19853 23.3103 5.59766 23.3103H8.02614C8.42527 23.3103 8.7488 23.6338 8.7488 24.033V26.4614C8.7488 26.8606 8.42519 27.1841 8.02614 27.1841Z" stroke="#DAA7EE" stroke-width="1.08398" stroke-miterlimit="10" stroke-linecap="round" stroke-linejoin="round"/>
<path d="M12.3359 29.8143H32.1193" stroke="#DAA7EE" stroke-width="1.08398" stroke-miterlimit="10" stroke-linecap="round" stroke-linejoin="round"/>
<path d="M12.3359 31.9823H26.6994" stroke="#DAA7EE" stroke-width="1.08398" stroke-miterlimit="10" stroke-linecap="round" stroke-linejoin="round"/>
<path d="M8.02614 33.688H5.59766C5.19853 33.688 4.875 33.3645 4.875 32.9654V30.5369C4.875 30.1377 5.19853 29.8142 5.59766 29.8142H8.02614C8.42527 29.8142 8.7488 30.1377 8.7488 30.5369V32.9654C8.7488 33.3645 8.42519 33.688 8.02614 33.688Z" stroke="#DAA7EE" stroke-width="1.08398" stroke-miterlimit="10" stroke-linecap="round" stroke-linejoin="round"/>
</g>
<defs>
<clipPath id="clip0_2354_4447">
<rect width="37" height="37" fill="white"/>
</clipPath>
</defs>
</svg>
