<svg width="21" height="21" viewBox="0 0 21 21" fill="none" xmlns="http://www.w3.org/2000/svg">
<g clip-path="url(#clip0_2158_3227)">
<path d="M9.1875 15.75H11.8125C11.994 15.75 12.1406 15.603 12.1406 15.4219V13.4531H14.1094C14.2908 13.4531 14.4375 13.3061 14.4375 13.125V10.5C14.4375 10.3189 14.2908 10.1719 14.1094 10.1719H12.1406V8.20313C12.1406 8.022 11.994 7.875 11.8125 7.875H9.1875C9.00605 7.875 8.85938 8.022 8.85938 8.20313V10.1719H6.89063C6.70917 10.1719 6.5625 10.3189 6.5625 10.5V13.125C6.5625 13.3061 6.70917 13.4531 6.89063 13.4531H8.85938V15.4219C8.85938 15.603 9.00605 15.75 9.1875 15.75ZM7.21875 12.7969V10.8281H9.1875C9.36895 10.8281 9.51563 10.6811 9.51563 10.5V8.53125H11.4844V10.5C11.4844 10.6811 11.631 10.8281 11.8125 10.8281H13.7813V12.7969H11.8125C11.631 12.7969 11.4844 12.9439 11.4844 13.125V15.0938H9.51563V13.125C9.51563 12.9439 9.36895 12.7969 9.1875 12.7969H7.21875Z" fill="#DAA7EE"/>
<path d="M20.6719 18.375H18.375V10.8281H20.0156C20.1498 10.8281 20.2703 10.7464 20.3205 10.6221L20.9767 8.98144C21.0292 8.84986 20.9915 8.69925 20.8829 8.60803L18.7031 6.78005V0.328125C18.7031 0.147 18.5565 2.44472e-09 18.375 2.44472e-09H15.0938C14.9123 2.44472e-09 14.7656 0.147 14.7656 0.328125V3.47747L10.711 0.0767813C10.5893 -0.0255938 10.4111 -0.0255938 10.2893 0.0767813L0.117469 8.60803C0.00885938 8.69892 -0.028875 8.84953 0.023625 8.98144L0.679875 10.6221C0.72975 10.7464 0.850172 10.8281 0.984375 10.8281H2.625V18.375H0.328125C0.146672 18.375 0 18.522 0 18.7031V20.6719C0 20.853 0.146672 21 0.328125 21H20.6719C20.8533 21 21 20.853 21 20.6719V18.7031C21 18.522 20.8533 18.375 20.6719 18.375ZM15.4219 2.29688H17.0625C17.244 2.29688 17.3906 2.14988 17.3906 1.96875C17.3906 1.78763 17.244 1.64063 17.0625 1.64063H15.4219V0.65625H18.0469V6.22945L15.4219 4.02773V2.29688ZM10.5 0.756328L20.2791 8.95814L19.8818 9.95138L10.7143 2.04848C10.5912 1.9425 10.4085 1.9425 10.2854 2.04848L1.11825 9.95138L0.720891 8.95814L10.5 0.756328ZM2.95313 10.1719H1.86769L10.5 2.73L19.1323 10.1719H18.0469C17.8654 10.1719 17.7188 10.3189 17.7188 10.5V18.375H3.28125V10.5C3.28125 10.3189 3.13458 10.1719 2.95313 10.1719ZM20.3438 20.3438H0.65625V19.0313H20.3438V20.3438Z" fill="#DAA7EE"/>
<path d="M10.5 17.7188C11.4703 17.7188 12.4327 17.4786 13.2822 17.0238C13.442 16.9381 13.5023 16.7393 13.4167 16.5795C13.3311 16.4197 13.1325 16.36 12.9724 16.445C12.2177 16.8489 11.3626 17.0625 10.5 17.0625C7.60528 17.0625 5.25 14.7072 5.25 11.8125C5.25 8.91778 7.60528 6.5625 10.5 6.5625C13.3947 6.5625 15.75 8.91778 15.75 11.8125C15.75 12.9314 15.4028 13.9995 14.7463 14.9008C14.6396 15.0472 14.6718 15.2526 14.8185 15.3592C14.9648 15.4665 15.1699 15.4337 15.2768 15.2873C16.0158 14.2728 16.4063 13.0712 16.4063 11.8125C16.4063 8.55586 13.7566 5.90625 10.5 5.90625C7.24336 5.90625 4.59375 8.55586 4.59375 11.8125C4.59375 15.0691 7.24336 17.7188 10.5 17.7188Z" fill="#DAA7EE"/>
<path d="M14.1641 16.3428C14.3453 16.3428 14.4922 16.1959 14.4922 16.0146C14.4922 15.8334 14.3453 15.6865 14.1641 15.6865C13.9828 15.6865 13.8359 15.8334 13.8359 16.0146C13.8359 16.1959 13.9828 16.3428 14.1641 16.3428Z" fill="#DAA7EE"/>
</g>
<defs>
<clipPath id="clip0_2158_3227">
<rect width="21" height="21" fill="white"/>
</clipPath>
</defs>
</svg>
