<svg width="32" height="32" viewBox="0 0 32 32" fill="none" xmlns="http://www.w3.org/2000/svg">
<path d="M31.4483 0H0.551724C0.246767 0 0 0.246767 0 0.551724V9.37931C0 9.68427 0.246767 9.93103 0.551724 9.93103C0.856681 9.93103 1.10345 9.68427 1.10345 9.37931V1.10345H30.8966V22.069H1.10345V13.7931C1.10345 13.4881 0.856681 13.2414 0.551724 13.2414C0.246767 13.2414 0 13.4881 0 13.7931V27.0345C0 27.3394 0.246767 27.5862 0.551724 27.5862H11.7969L10.1417 30.8966H9.37931C9.07435 30.8966 8.82759 31.1433 8.82759 31.4483C8.82759 31.7532 9.07435 32 9.37931 32H22.6207C22.9256 32 23.1724 31.7532 23.1724 31.4483C23.1724 31.1433 22.9256 30.8966 22.6207 30.8966H21.8583L20.2031 27.5862H31.4483C31.7532 27.5862 32 27.3394 32 27.0345V0.551724C32 0.246767 31.7532 0 31.4483 0ZM20.6246 30.8966H11.3754L13.0302 27.5862H18.9698L20.6246 30.8966ZM19.3103 26.4828H1.10345V23.1724H30.8966V26.4828H19.3103Z" fill="#DAA7EE"/>
<path d="M18.2077 24.2759H13.7939C13.489 24.2759 13.2422 24.5226 13.2422 24.8276C13.2422 25.1326 13.489 25.3793 13.7939 25.3793H18.2077C18.5127 25.3793 18.7594 25.1326 18.7594 24.8276C18.7594 24.5226 18.5127 24.2759 18.2077 24.2759Z" fill="#DAA7EE"/>
<path d="M9.16635 17.6116L9.17672 17.6157C9.24246 17.6421 9.31142 17.655 9.38147 17.655C9.45151 17.655 9.52047 17.6421 9.58621 17.6157L9.59597 17.6118L15.1034 15.4088C15.3136 15.3248 15.4504 15.1222 15.4504 14.8964V8.27574C15.4504 8.17296 15.4148 8.08217 15.366 7.99981C15.3543 7.97987 15.343 7.96317 15.3289 7.94478C15.2698 7.86807 15.1977 7.80301 15.1067 7.7659C15.1053 7.76536 15.1048 7.76388 15.1034 7.76334L9.58621 5.55645C9.45474 5.50365 9.30819 5.50365 9.17672 5.55645L3.65948 7.76334C3.65814 7.76388 3.6576 7.76536 3.65625 7.7659C3.56526 7.80301 3.49313 7.86807 3.43407 7.94478C3.41992 7.96317 3.40867 7.97987 3.39696 7.99981C3.34813 8.08217 3.3125 8.17296 3.3125 8.27574V14.8964C3.3125 15.1222 3.44935 15.3248 3.65948 15.4088L9.16635 17.6116ZM4.41595 9.09073L8.82974 10.8562V16.2884L4.41595 14.523V9.09073ZM9.93319 16.2884V10.8562L14.347 9.09073V14.523L9.93319 16.2884ZM9.38147 6.66313L13.4127 8.27574L9.38147 9.88834L5.35022 8.27574L9.38147 6.66313Z" fill="#DAA7EE"/>
<path d="M18.208 8.8275H19.9648C20.1933 9.46833 20.8 9.93095 21.5183 9.93095C22.2367 9.93095 22.8433 9.46833 23.0719 8.8275H28.139C28.444 8.8275 28.6907 8.58073 28.6907 8.27578C28.6907 7.97082 28.444 7.72405 28.139 7.72405H23.0719C22.8433 7.08323 22.2367 6.62061 21.5183 6.62061C20.8 6.62061 20.1933 7.08323 19.9648 7.72405H18.208C17.903 7.72405 17.6562 7.97082 17.6562 8.27578C17.6562 8.58073 17.903 8.8275 18.208 8.8275ZM21.5183 7.72405C21.8222 7.72405 22.07 7.97136 22.07 8.27578C22.07 8.5802 21.8222 8.8275 21.5183 8.8275C21.2144 8.8275 20.9666 8.5802 20.9666 8.27578C20.9666 7.97136 21.2144 7.72405 21.5183 7.72405Z" fill="#DAA7EE"/>
<path d="M18.208 14.3448H23.2751C23.5036 14.9857 24.1103 15.4483 24.8287 15.4483C25.547 15.4483 26.1537 14.9857 26.3822 14.3448H28.139C28.444 14.3448 28.6907 14.0981 28.6907 13.7931C28.6907 13.4882 28.444 13.2414 28.139 13.2414H26.3822C26.1537 12.6006 25.547 12.1379 24.8287 12.1379C24.1103 12.1379 23.5036 12.6006 23.2751 13.2414H18.208C17.903 13.2414 17.6562 13.4882 17.6562 13.7931C17.6562 14.0981 17.903 14.3448 18.208 14.3448ZM24.8287 13.2414C25.1325 13.2414 25.3804 13.4887 25.3804 13.7931C25.3804 14.0975 25.1325 14.3448 24.8287 14.3448C24.5248 14.3448 24.2769 14.0975 24.2769 13.7931C24.2769 13.4887 24.5248 13.2414 24.8287 13.2414Z" fill="#DAA7EE"/>
<path d="M0.551724 12.1379C0.856433 12.1379 1.10345 11.8909 1.10345 11.5861C1.10345 11.2814 0.856433 11.0344 0.551724 11.0344C0.247015 11.0344 0 11.2814 0 11.5861C0 11.8909 0.247015 12.1379 0.551724 12.1379Z" fill="#DAA7EE"/>
</svg>
