<svg width="42" height="42" viewBox="0 0 42 42" fill="none" xmlns="http://www.w3.org/2000/svg">
<path d="M34.9545 18.2079C35.2355 19.1208 36.0867 19.7863 37.0906 19.7863C38.3228 19.7863 39.3253 18.7838 39.3253 17.5517C39.3253 16.3195 38.3228 15.317 37.0906 15.317C36.0868 15.317 35.2355 15.9825 34.9545 16.8954H30.4689V14.4973H34.2168C34.3886 14.4973 34.5535 14.43 34.6761 14.3098L36.0244 12.9888C36.3415 13.1617 36.7048 13.2601 37.0907 13.2601C38.3229 13.2601 39.3253 12.2577 39.3253 11.0255C39.3253 9.7933 38.3228 8.7908 37.0907 8.7908C35.8585 8.7908 34.856 9.7933 34.856 11.0255C34.856 11.395 34.9467 11.7436 35.1062 12.051L33.949 13.1847H30.4689V11.8633C30.4689 11.8314 30.4677 11.7997 30.4665 11.768L33.0973 10.7947C33.2434 10.7406 33.3657 10.6363 33.4419 10.5005L35.2661 7.25156C35.4188 7.28462 35.5772 7.3025 35.7396 7.3025C36.9718 7.3025 37.9742 6.3 37.9742 5.06781C37.9742 3.83562 36.9717 2.83311 35.7396 2.83311C34.5074 2.83311 33.5049 3.83562 33.5049 5.06781C33.5049 5.66426 33.7402 6.20648 34.1224 6.60762L32.4156 9.64745L30.0778 10.5124C29.628 9.80044 28.8344 9.32621 27.9318 9.32621H27.6545V6.79514C27.6546 3.09356 24.643 0.0820312 20.9414 0.0820312C17.2396 0.0820312 14.2281 3.09356 14.2281 6.79514V9.32621H13.9508C13.0627 9.32621 12.2803 9.78526 11.8268 10.4781L9.58161 9.64745L7.87487 6.6077C8.25705 6.20657 8.4924 5.66434 8.4924 5.06789C8.4924 3.8357 7.4899 2.8332 6.25771 2.8332C5.02552 2.8332 4.02309 3.8357 4.02309 5.06789C4.02309 6.30008 5.02552 7.3025 6.25771 7.3025C6.42013 7.3025 6.57845 7.28462 6.73119 7.25156L8.5554 10.5005C8.63169 10.6363 8.75384 10.7406 8.89993 10.7947L11.4176 11.7261C11.4151 11.7716 11.4137 11.8173 11.4137 11.8633V13.1847H8.04829L6.89107 12.051C7.05054 11.7436 7.14127 11.395 7.14127 11.0255C7.14127 9.7933 6.13876 8.7908 4.90657 8.7908C3.67438 8.7908 2.67196 9.7933 2.67196 11.0255C2.67196 12.2577 3.67446 13.2601 4.90657 13.2601C5.29245 13.2601 5.65576 13.1617 5.97289 12.9888L7.32116 14.3098C7.4438 14.43 7.60868 14.4973 7.78045 14.4973H11.4138V16.8954H7.04283C6.76179 15.9825 5.91055 15.317 4.90657 15.317C3.67438 15.317 2.67196 16.3195 2.67196 17.5517C2.67196 18.7838 3.67446 19.7863 4.90657 19.7863C5.91047 19.7863 6.76171 19.1208 7.04283 18.2079H11.4138V20.606H7.78037C7.6086 20.606 7.44371 20.6734 7.32108 20.7935L5.97281 22.1144C5.65576 21.9415 5.29236 21.8431 4.90649 21.8431C3.6743 21.8431 2.67188 22.8456 2.67188 24.0778C2.67188 25.31 3.67438 26.3125 4.90649 26.3125C6.13868 26.3125 7.14118 25.31 7.14118 24.0778C7.14118 23.7083 7.05046 23.3597 6.89099 23.0523L8.0482 21.9186H11.4136V23.2401C11.4136 23.3257 11.418 23.4102 11.4263 23.4937L8.92618 24.2995C8.76877 24.3502 8.63629 24.4585 8.55532 24.6028L6.73111 27.8517C6.57837 27.8187 6.42005 27.8008 6.25763 27.8008C5.02543 27.8008 4.02301 28.8032 4.02301 30.0354C4.02301 31.2676 5.02552 32.2701 6.25763 32.2701C7.48982 32.2701 8.49232 31.2676 8.49232 30.0354C8.49232 29.439 8.25697 28.8967 7.87479 28.4956L9.57374 25.4697L11.8935 24.7221C12.3547 25.3605 13.1048 25.7771 13.9508 25.7771H18.8011V29.085L17.3239 27.2C16.3556 25.9644 15.0797 25.9054 14.3042 26.3731C13.5226 26.8444 13.0153 27.9488 13.6436 29.3536C14.7368 31.798 15.7621 33.4876 16.586 34.8452C17.6603 36.6156 18.3725 37.7893 18.5661 39.4502V41.2617C18.5661 41.6241 18.8599 41.918 19.2223 41.918H29.6048C29.9672 41.918 30.261 41.6241 30.261 41.2617V39.6139C31.7354 37.3556 31.9597 33.9641 31.9597 32.114L31.9598 30.1035C31.9598 28.9251 31.0011 27.9664 29.8228 27.9664C29.4958 27.9664 29.1856 28.0403 28.9083 28.1722C28.6436 27.2924 27.8261 26.6497 26.8612 26.6497C26.5384 26.6497 26.232 26.7216 25.9573 26.8504C25.8372 26.4233 25.5863 26.0512 25.2522 25.777H27.9318C28.791 25.777 29.5513 25.3473 30.0104 24.692L32.4235 25.4696L34.1223 28.4955C33.7401 28.8967 33.5048 29.4389 33.5048 30.0353C33.5048 31.2675 34.5073 32.27 35.7395 32.27C36.9717 32.27 37.9741 31.2675 37.9741 30.0353C37.9741 28.8031 36.9716 27.8007 35.7395 27.8007C35.5771 27.8007 35.4187 27.8186 35.266 27.8517L33.4418 24.6026C33.3608 24.4584 33.2283 24.3501 33.0709 24.2993L30.4589 23.4575C30.465 23.3857 30.4689 23.3133 30.4689 23.2399V21.9184H33.949L35.1062 23.0522C34.9467 23.3595 34.856 23.7081 34.856 24.0776C34.856 25.3098 35.8585 26.3123 37.0907 26.3123C38.3229 26.3123 39.3253 25.3098 39.3253 24.0776C39.3253 22.8455 38.3228 21.843 37.0907 21.843C36.7048 21.843 36.3414 21.9413 36.0244 22.1142L34.6761 20.7934C34.5535 20.6732 34.3886 20.6058 34.2168 20.6058H30.4689V18.2077H34.9545V18.2079ZM37.0906 16.6295C37.5991 16.6295 38.0128 17.0431 38.0128 17.5517C38.0128 18.0601 37.5991 18.4738 37.0906 18.4738C36.5822 18.4738 36.1685 18.0601 36.1685 17.5517C36.1685 17.0431 36.5822 16.6295 37.0906 16.6295ZM37.0907 10.1033C37.5991 10.1033 38.0128 10.517 38.0128 11.0255C38.0128 11.5339 37.5991 11.9476 37.0907 11.9476C36.5822 11.9476 36.1685 11.5339 36.1685 11.0255C36.1685 10.517 36.5822 10.1033 37.0907 10.1033ZM35.7396 4.1457C36.248 4.1457 36.6617 4.55938 36.6617 5.06789C36.6617 5.5764 36.248 5.99009 35.7396 5.99009C35.2311 5.99009 34.8174 5.5764 34.8174 5.06789C34.8174 4.55938 35.2311 4.1457 35.7396 4.1457ZM5.33559 5.06789C5.33559 4.55938 5.74928 4.1457 6.25771 4.1457C6.76622 4.1457 7.1799 4.55938 7.1799 5.06789C7.1799 5.5764 6.76622 5.99 6.25771 5.99C5.74928 5.99 5.33559 5.5764 5.33559 5.06789ZM4.90657 11.9476C4.39814 11.9476 3.98446 11.5339 3.98446 11.0255C3.98446 10.517 4.39814 10.1033 4.90657 10.1033C5.41508 10.1033 5.82877 10.517 5.82877 11.0255C5.82877 11.5339 5.41508 11.9476 4.90657 11.9476ZM4.90657 18.4738C4.39814 18.4738 3.98446 18.0601 3.98446 17.5517C3.98446 17.0431 4.39814 16.6295 4.90657 16.6295C5.41508 16.6295 5.82877 17.0431 5.82877 17.5517C5.82877 18.0601 5.41508 18.4738 4.90657 18.4738ZM4.90657 25C4.39814 25 3.98446 24.5863 3.98446 24.0778C3.98446 23.5693 4.39814 23.1556 4.90657 23.1556C5.41508 23.1556 5.82877 23.5693 5.82877 24.0778C5.82877 24.5863 5.41508 25 4.90657 25ZM6.25771 30.9575C5.74928 30.9575 5.33559 30.5438 5.33559 30.0353C5.33559 29.5269 5.74928 29.1132 6.25771 29.1132C6.76622 29.1132 7.1799 29.5269 7.1799 30.0353C7.1799 30.5438 6.76622 30.9575 6.25771 30.9575ZM36.6617 30.0354C36.6617 30.5439 36.248 30.9576 35.7396 30.9576C35.2311 30.9576 34.8174 30.5439 34.8174 30.0354C34.8174 29.527 35.2311 29.1133 35.7396 29.1133C36.248 29.1132 36.6617 29.5269 36.6617 30.0354ZM37.0907 23.1556C37.5991 23.1556 38.0128 23.5693 38.0128 24.0778C38.0128 24.5863 37.5991 25 37.0907 25C36.5822 25 36.1685 24.5863 36.1685 24.0778C36.1685 23.5693 36.5822 23.1556 37.0907 23.1556ZM15.5406 6.79514C15.5406 3.81724 17.9634 1.39453 20.9414 1.39453C23.9194 1.39453 26.3421 3.81724 26.3421 6.79514V9.32621H24.7757V6.79514C24.7757 4.68095 23.0556 2.96084 20.9414 2.96084C18.8271 2.96084 17.107 4.68087 17.107 6.79514V9.32621H15.5406V6.79514ZM23.4632 9.3263H18.4195V6.79514C18.4195 5.40463 19.5508 4.27334 20.9414 4.27334C22.3319 4.27334 23.4632 5.40463 23.4632 6.79514V9.3263ZM21.8421 17.6356C21.5674 17.5068 21.2611 17.4343 20.9381 17.4343C20.6166 17.4343 20.3117 17.5061 20.0379 17.6338C19.5878 17.3334 19.314 16.8299 19.314 16.2813C19.314 15.3841 20.044 14.6541 20.9413 14.6541C21.8386 14.6541 22.5686 15.3841 22.5686 16.2813C22.5686 16.8309 22.2938 17.3353 21.8421 17.6356ZM19.8786 40.6055V40.0691H28.9485V40.6055H19.8786ZM26.8612 27.9622C27.3159 27.9622 27.6858 28.3321 27.6858 28.7867V30.8244C27.6858 31.1868 27.9797 31.4806 28.3421 31.4806C28.7045 31.4806 28.9983 31.1868 28.9983 30.8244V30.1035C28.9983 29.6489 29.3682 29.2789 29.8229 29.2789C30.2775 29.2789 30.6474 29.6488 30.6474 30.1034L30.6473 32.1138C30.6472 33.4558 30.5057 36.6976 29.2489 38.7566H19.7872C19.4832 37.0935 18.7228 35.8365 17.708 34.1642C16.9031 32.8378 15.9014 31.1871 14.8416 28.8176C14.5771 28.2262 14.6321 27.7079 14.9818 27.497C15.2884 27.3121 15.8121 27.3987 16.2908 28.0095L18.9408 31.3909C19.1134 31.6113 19.4068 31.6977 19.6715 31.6064C19.9361 31.5151 20.1136 31.266 20.1136 30.9861V19.5714C20.1136 19.1168 20.4835 18.7468 20.9382 18.7468C21.3928 18.7468 21.7627 19.1167 21.7627 19.5714L21.7626 30.2936C21.7626 30.656 22.0564 30.9498 22.4188 30.9498C22.7813 30.9498 23.0751 30.656 23.0751 30.2936V27.4283C23.0751 26.9737 23.445 26.6037 23.8997 26.6037C24.3544 26.6037 24.7243 26.9736 24.7243 27.4283V30.8244C24.7243 31.1868 25.0181 31.4806 25.3805 31.4806C25.7429 31.4806 26.0368 31.1868 26.0368 30.8244V28.7867C26.0367 28.332 26.4065 27.9622 26.8612 27.9622ZM29.1564 23.24C29.1564 23.9152 28.6071 24.4645 27.9318 24.4645H23.075L23.0751 19.5714C23.0751 19.201 22.9803 18.8523 22.8137 18.5483C23.4832 17.9963 23.8811 17.1712 23.8811 16.2813C23.8811 14.6603 22.5623 13.3416 20.9413 13.3416C19.3203 13.3416 18.0015 14.6604 18.0015 16.2813C18.0015 17.1693 18.3977 17.9927 19.0646 18.5446C18.8968 18.8496 18.801 19.1995 18.801 19.5714V24.4645H13.9507C13.2755 24.4645 12.7261 23.9152 12.7261 23.24V11.8633C12.7261 11.1881 13.2754 10.6388 13.9507 10.6388H27.9319C28.6071 10.6388 29.1565 11.1881 29.1565 11.8633V23.24H29.1564Z" fill="#DAA7EE"/>
</svg>
