<svg width="23" height="23" viewBox="0 0 23 23" fill="none" xmlns="http://www.w3.org/2000/svg">
<g clip-path="url(#clip0_2164_3476)">
<path d="M18.8858 11.7273L19.3282 10.4713C19.3623 10.4741 19.3965 10.4758 19.431 10.4758C19.6772 10.4758 19.9177 10.4028 20.1224 10.266C20.327 10.1293 20.4865 9.93491 20.5807 9.70753C20.6749 9.48016 20.6995 9.22996 20.6516 8.98856C20.6036 8.74717 20.4851 8.52542 20.3111 8.35133C20.1371 8.17725 19.9154 8.05869 19.674 8.01066C19.4325 7.96262 19.1823 7.98727 18.9549 8.08148C18.7275 8.17569 18.5331 8.33523 18.3964 8.53992C18.2597 8.74461 18.1867 8.98525 18.1868 9.2314C18.1868 9.26612 18.1885 9.30053 18.1913 9.33472L16.9359 9.77724C16.1674 9.10175 15.4056 8.53587 14.7215 8.13724C13.5942 7.48025 12.8172 7.35272 12.4121 7.75787C10.1152 10.0561 10.0725 13.7675 12.2835 16.1173L10.5525 22.371H9.88177L8.84408 17.325C8.84239 17.3139 8.84011 17.3028 8.83725 17.2919L8.56929 15.9892C8.56816 15.9832 8.56704 15.9772 8.5656 15.9712L7.15169 9.09636C7.14998 9.08482 7.14763 9.07337 7.14464 9.06209L6.25518 4.73759C6.60297 4.59649 6.89117 4.33932 7.07081 4.00978C7.25045 3.68024 7.31045 3.29867 7.2406 2.92991C7.17076 2.56114 6.97539 2.22793 6.68768 1.98691C6.39998 1.74589 6.0377 1.61192 5.6624 1.60776C5.2871 1.60361 4.92194 1.72953 4.62898 1.96413C4.33601 2.19873 4.13331 2.52754 4.05533 2.89467C3.97734 3.2618 4.02888 3.6446 4.20119 3.97803C4.37349 4.31147 4.65593 4.57495 5.00051 4.72371L4.11677 9.062C4.1138 9.07328 4.11148 9.08473 4.1098 9.09627L3.67703 11.2206C3.67331 11.2342 3.6705 11.248 3.66863 11.262L3.42097 12.4786C3.41769 12.4908 3.41516 12.5033 3.41342 12.5158L2.71121 15.9625V15.9633L1.40596 22.371H0.423828C0.34043 22.371 0.260448 22.4042 0.201476 22.4631C0.142505 22.5221 0.109375 22.6021 0.109375 22.6855C0.109375 22.7689 0.142505 22.8489 0.201476 22.9079C0.260448 22.9668 0.34043 23 0.423828 23H17.9597C18.0431 23 18.123 22.9668 18.182 22.9079C18.241 22.8489 18.2741 22.7689 18.2741 22.6855C18.2741 22.6021 18.241 22.5221 18.182 22.4631C18.123 22.4042 18.0431 22.371 17.9597 22.371H16.0126L14.7171 17.6897C15.7801 18.0505 16.9228 18.107 18.0161 17.8527C19.1095 17.5984 20.1099 17.0434 20.9046 16.2505C21.3098 15.8453 21.1821 15.0683 20.5252 13.9411C20.1267 13.2571 19.561 12.4956 18.8858 11.7273ZM18.9958 8.79611C19.1113 8.68081 19.2679 8.61605 19.4311 8.61605C19.5943 8.61605 19.7508 8.68081 19.8663 8.79611C19.9317 8.8614 19.9815 8.94058 20.0121 9.02775C20.0426 9.11492 20.0532 9.20786 20.0429 9.29966C20.0327 9.39147 20.0019 9.4798 19.9529 9.55809C19.9039 9.63638 19.8378 9.70262 19.7597 9.75192C19.6816 9.80121 19.5933 9.83228 19.5016 9.84283C19.4098 9.85338 19.3168 9.84313 19.2296 9.81285C19.1423 9.78257 19.0629 9.73303 18.9974 9.6679C18.9319 9.60278 18.8819 9.52374 18.8511 9.43665L18.8508 9.43557L18.8503 9.43436C18.8119 9.32508 18.8051 9.20718 18.8308 9.09424C18.8566 8.9813 18.9137 8.87793 18.9956 8.79606L18.9958 8.79611ZM18.3995 9.92814C18.489 10.0601 18.6028 10.1738 18.7348 10.2632L18.4051 11.1992C18.2545 11.0392 18.1 10.8799 17.9417 10.7211C17.7833 10.5622 17.6241 10.4079 17.464 10.2581L18.3995 9.92814ZM14.4047 8.68061C14.9762 9.01366 15.6074 9.47209 16.2522 10.0181L15.0613 10.4379C15.0223 10.4516 14.9864 10.4729 14.9557 10.5005C14.925 10.5281 14.9 10.5614 14.8821 10.5987C14.8643 10.636 14.854 10.6764 14.8518 10.7176C14.8495 10.7589 14.8555 10.8001 14.8692 10.8391C14.8829 10.878 14.9042 10.9139 14.9318 10.9446C14.9594 10.9754 14.9928 11.0004 15.03 11.0182C15.0673 11.036 15.1077 11.0464 15.1489 11.0486C15.1902 11.0508 15.2315 11.0449 15.2704 11.0311L16.7933 10.4943C17.0282 10.7087 17.2626 10.9325 17.4964 11.1657C17.7302 11.3989 17.9543 11.6336 18.1688 11.8698L17.6325 13.3921C17.6187 13.4311 17.6128 13.4723 17.615 13.5136C17.6173 13.5548 17.6276 13.5952 17.6454 13.6325C17.6633 13.6697 17.6883 13.7031 17.719 13.7307C17.7498 13.7583 17.7856 13.7795 17.8246 13.7933C17.8635 13.807 17.9048 13.8129 17.9461 13.8107C17.9873 13.8084 18.0277 13.7981 18.065 13.7803C18.1022 13.7624 18.1356 13.7374 18.1632 13.7067C18.1908 13.676 18.212 13.6401 18.2257 13.6011L18.645 12.411C19.1906 13.0556 19.6489 13.6865 19.9818 14.2578C20.5932 15.307 20.5343 15.7305 20.46 15.8055L20.4595 15.806C20.384 15.8802 19.9604 15.9383 18.9125 15.3276C17.9753 14.7813 16.877 13.8987 15.8201 12.8424C15.1631 12.1907 14.5548 11.4917 14.0003 10.7509C13.9931 10.7398 13.9852 10.7291 13.9767 10.719C13.746 10.4076 13.5318 10.0843 13.3349 9.75047C12.7447 8.73784 12.779 8.30816 12.849 8.21199C12.8517 8.20929 12.8543 8.20651 12.8569 8.20381C12.8588 8.20197 12.8604 8.1999 12.8622 8.19802C12.9489 8.12605 13.3761 8.0814 14.4047 8.68075V8.68061ZM12.8568 15.8057C12.3938 15.343 12.337 14.5248 12.634 13.5647C13.2828 14.5422 14.1207 15.38 15.0983 16.0287C14.7467 16.1434 14.38 16.2052 14.0102 16.212C13.5305 16.2119 13.1311 16.0801 12.8568 15.8057ZM14.1874 14.475C13.6939 13.9847 13.2674 13.4312 12.9192 12.829C13.1471 12.3427 13.4211 11.8793 13.7375 11.4454C14.2453 12.0921 14.7922 12.7072 15.3751 13.2872C15.9555 13.8701 16.5709 14.4171 17.218 14.9252C16.7839 15.2415 16.3205 15.5156 15.8341 15.7434C15.2316 15.3952 14.6779 14.9687 14.1874 14.475ZM12.3126 9.06191C12.4391 9.41179 12.5994 9.74851 12.7912 10.0673C12.9501 10.3399 13.1363 10.6251 13.3446 10.9179C13.0557 11.3004 12.7963 11.7042 12.5685 12.1259C12.4129 11.7647 12.2952 11.3884 12.2172 11.0029C12.0729 10.2749 12.1082 9.61288 12.3126 9.06191ZM17.7456 15.3183C18.0382 15.5264 18.3232 15.7125 18.5955 15.8713C18.9145 16.0632 19.2514 16.2235 19.6016 16.3499C19.0505 16.5543 18.3884 16.5896 17.6603 16.4453C17.2743 16.3672 16.8975 16.2494 16.5358 16.0936C16.958 15.8659 17.3624 15.6067 17.7456 15.3183ZM11.511 10.4574C11.5263 10.6817 11.5561 10.9047 11.6001 11.1251C11.7246 11.7308 11.9339 12.3159 12.2218 12.8632C12.0045 13.4008 11.8756 13.9166 11.84 14.3892C11.2389 13.1669 11.1214 11.7627 11.511 10.4574ZM4.63 9.69374L5.10882 10.0557L4.45579 10.5492L4.63 9.69374ZM7.78149 15.2813L6.14634 14.0249L7.3351 13.1112L7.78149 15.2813ZM6.80893 10.5522L6.15222 10.0559L6.63235 9.6932L6.80893 10.5522ZM7.00093 11.4859L7.19409 12.4261L5.63009 13.6283L4.07234 12.4314L4.26591 11.481L5.63032 10.4501L7.00093 11.4859ZM3.93268 13.1171L5.11412 14.025L3.49415 15.2703L3.93268 13.1171ZM2.97211 17.8332L4.89293 18.7389L2.56395 19.8372L2.97211 17.8332ZM3.1014 17.1987L3.30256 16.211L5.63032 14.4217L7.97524 16.2236L8.17433 17.1916L5.63045 18.391L3.1014 17.1987ZM8.3047 17.8256L8.72067 19.8482L6.36785 18.7389L8.3047 17.8256ZM4.64896 3.23312C4.64854 3.02665 4.71226 2.82516 4.83131 2.65647C4.95035 2.48779 5.11886 2.36025 5.31353 2.29147C5.5082 2.22269 5.71942 2.21608 5.91802 2.27254C6.11661 2.32899 6.29277 2.44574 6.42214 2.60665C6.55151 2.76755 6.62771 2.96466 6.64022 3.17075C6.65272 3.37683 6.60091 3.58171 6.49194 3.75707C6.38297 3.93244 6.22222 4.06962 6.03191 4.14968C5.8416 4.22974 5.63112 4.2487 5.42956 4.20397C5.42884 4.20397 5.42813 4.20356 5.42736 4.20343H5.4266C5.20616 4.15384 5.00913 4.03079 4.86782 3.85448C4.72652 3.67817 4.64934 3.45906 4.64896 3.23312ZM5.63751 4.85655L6.49188 9.01083L5.63054 9.66166L4.76921 9.01056L5.61545 4.85601C5.62282 4.85601 5.63009 4.8565 5.63751 4.85655ZM2.40722 20.6066L5.63045 19.0866L8.87911 20.6185L9.23952 22.371H2.04789L2.40722 20.6066ZM15.3599 22.371H11.2052L12.8007 16.6065C13.1616 16.9105 13.5572 17.1708 13.9793 17.3818L15.3599 22.371ZM14.3966 16.8842C14.3837 16.8771 14.3704 16.8709 14.3567 16.8657C14.3298 16.853 14.3032 16.8398 14.2764 16.8266C14.4774 16.811 14.677 16.7809 14.8736 16.7367C15.1904 16.6643 15.5006 16.5655 15.8009 16.4414C16.3478 16.729 16.9326 16.9381 17.538 17.0624C17.7618 17.107 17.9883 17.1371 18.2161 17.1522C16.9528 17.5308 15.5947 17.4356 14.3966 16.8843V16.8842ZM21.8826 11.6827C21.8236 11.7418 21.7436 11.7749 21.6602 11.775C21.5768 11.775 21.4967 11.7419 21.4377 11.6829C21.3787 11.6239 21.3455 11.5439 21.3455 11.4605C21.3455 11.3771 21.3786 11.297 21.4376 11.238C21.7022 10.9749 21.9123 10.6621 22.0558 10.3176C22.1994 9.97308 22.2735 9.60365 22.2741 9.23045C22.2746 8.85725 22.2015 8.48761 22.0589 8.14271C21.9164 7.79781 21.7071 7.48443 21.4433 7.22052C21.1794 6.95661 20.866 6.74736 20.5211 6.60476C20.1763 6.46215 19.8066 6.38899 19.4334 6.38948C19.0602 6.38996 18.6908 6.46408 18.3463 6.60757C18.0018 6.75107 17.689 6.96113 17.4258 7.22573C17.3668 7.28474 17.2868 7.3179 17.2034 7.31793C17.1199 7.31795 17.0399 7.28484 16.9809 7.22586C16.9219 7.16689 16.8887 7.08689 16.8887 7.00346C16.8887 6.92003 16.9218 6.84001 16.9808 6.781C17.6308 6.13098 18.5124 5.76579 19.4317 5.76578C20.3509 5.76578 21.2325 6.13094 21.8826 6.78096C22.5326 7.43097 22.8978 8.31258 22.8978 9.23184C22.8978 10.1511 22.5326 11.0327 21.8826 11.6827ZM17.7667 8.0119C17.7375 7.98273 17.7143 7.94808 17.6984 7.90994C17.6826 7.8718 17.6744 7.83091 17.6744 7.78962C17.6744 7.74832 17.6825 7.70742 17.6982 7.66925C17.714 7.63109 17.7371 7.5964 17.7663 7.56718C17.985 7.34849 18.2446 7.17502 18.5303 7.05666C18.816 6.9383 19.1222 6.87738 19.4315 6.87736C19.7407 6.87735 20.0469 6.93824 20.3327 7.05658C20.6184 7.17491 20.878 7.34836 21.0967 7.56702C21.3154 7.78568 21.4888 8.04528 21.6072 8.33099C21.7256 8.61669 21.7865 8.92291 21.7865 9.23216C21.7865 9.54142 21.7256 9.84764 21.6073 10.1334C21.4889 10.4191 21.3155 10.6787 21.0968 10.8974C21.0676 10.9266 21.033 10.9497 20.9948 10.9655C20.9567 10.9813 20.9158 10.9895 20.8745 10.9895C20.8332 10.9895 20.7923 10.9813 20.7541 10.9655C20.716 10.9497 20.6813 10.9266 20.6521 10.8974C20.6229 10.8682 20.5997 10.8335 20.5839 10.7954C20.5681 10.7572 20.56 10.7163 20.56 10.675C20.56 10.6337 20.5681 10.5928 20.5839 10.5547C20.5997 10.5165 20.6229 10.4818 20.6521 10.4526C20.9758 10.129 21.1576 9.69006 21.1577 9.23234C21.1577 8.77463 20.9759 8.33565 20.6523 8.01197C20.3286 7.6883 19.8897 7.50644 19.432 7.50641C18.9742 7.50638 18.5353 7.68818 18.2116 8.01182C18.1824 8.04105 18.1477 8.06425 18.1096 8.08007C18.0714 8.0959 18.0305 8.10405 17.9892 8.10406C17.9478 8.10407 17.9069 8.09594 17.8687 8.08012C17.8306 8.06431 17.7959 8.04113 17.7667 8.0119ZM8.65437 0.52509C8.59852 0.463137 8.56957 0.381537 8.57389 0.29824C8.57821 0.214942 8.61544 0.136772 8.67739 0.0809251C8.73935 0.0250782 8.82095 -0.00387076 8.90424 0.000446784C8.98754 0.00476433 9.06571 0.0419947 9.12156 0.103948C9.89418 0.963042 10.3216 2.07761 10.3216 3.23303C10.3216 4.38844 9.89418 5.50301 9.12156 6.3621C9.06577 6.42412 8.98763 6.46143 8.90434 6.46583C8.82104 6.47023 8.7394 6.44136 8.67739 6.38558C8.61538 6.32979 8.57807 6.25165 8.57367 6.16835C8.56927 6.08506 8.59813 6.00342 8.65392 5.94141C9.3225 5.19782 9.69239 4.23321 9.69239 3.23325C9.69239 2.23329 9.3225 1.26868 8.65392 0.52509H8.65437ZM2.16608 6.36188C1.39362 5.50281 0.966262 4.38836 0.966262 3.23307C0.966262 2.07778 1.39362 0.963333 2.16608 0.104262C2.1937 0.0735418 2.22709 0.0485621 2.26436 0.0307489C2.30164 0.0129358 2.34205 0.00263821 2.3833 0.000444059C2.42455 -0.00175009 2.46583 0.0042022 2.50478 0.0179611C2.54373 0.0317199 2.57959 0.0530159 2.61031 0.0806331C2.64103 0.10825 2.66601 0.141648 2.68382 0.178919C2.70164 0.21619 2.71193 0.256605 2.71413 0.297856C2.71632 0.339106 2.71037 0.380386 2.69661 0.419336C2.68285 0.458286 2.66156 0.494145 2.63394 0.524866C1.96527 1.2685 1.59535 2.23322 1.59539 3.23327C1.59543 4.23333 1.96544 5.19801 2.63416 5.94159C2.66176 5.97233 2.68303 6.00819 2.69677 6.04715C2.7105 6.08611 2.71643 6.12739 2.71421 6.16863C2.71199 6.20988 2.70167 6.25029 2.68383 6.28754C2.666 6.3248 2.641 6.35818 2.61027 6.38578C2.57953 6.41337 2.54366 6.43465 2.50471 6.44838C2.46575 6.46212 2.42447 6.46804 2.38322 6.46582C2.34198 6.4636 2.30157 6.45328 2.26431 6.43545C2.22705 6.41761 2.19367 6.39261 2.16608 6.36188ZM2.23458 3.23312C2.23408 2.39071 2.54599 1.57805 3.10998 0.952297C3.16579 0.890303 3.24394 0.853018 3.32724 0.848646C3.41054 0.844273 3.49217 0.873172 3.55416 0.928983C3.61616 0.984794 3.65344 1.06295 3.65782 1.14625C3.66219 1.22955 3.63329 1.31118 3.57748 1.37317C3.118 1.88345 2.86373 2.54578 2.86368 3.23243C2.86363 3.91909 3.11781 4.58146 3.57721 5.0918C3.63309 5.15376 3.66208 5.23537 3.65778 5.31869C3.65349 5.40202 3.61627 5.48022 3.55432 5.5361C3.49237 5.59199 3.41075 5.62097 3.32743 5.61668C3.24411 5.61238 3.1659 5.57517 3.11002 5.51322C2.54564 4.88799 2.23364 4.0754 2.23458 3.23312ZM7.71056 1.37304C7.65477 1.31102 7.62589 1.22939 7.63029 1.14609C7.63469 1.06278 7.672 0.984641 7.73401 0.928848C7.79602 0.873055 7.87766 0.844181 7.96096 0.848578C8.04426 0.852976 8.12241 0.890285 8.1782 0.952297C8.74182 1.57814 9.05371 2.39053 9.05371 3.23276C9.05371 4.07498 8.74182 4.88737 8.1782 5.51322C8.15053 5.54389 8.11709 5.56882 8.07978 5.58657C8.04248 5.60432 8.00205 5.61455 7.96079 5.61668C7.91953 5.6188 7.87826 5.61278 7.83933 5.59896C7.8004 5.58513 7.76457 5.56377 7.7339 5.5361C7.70322 5.50843 7.6783 5.47499 7.66054 5.43769C7.64279 5.40038 7.63256 5.35995 7.63044 5.31869C7.62831 5.27744 7.63433 5.23616 7.64816 5.19723C7.66198 5.1583 7.68334 5.12248 7.71101 5.0918C8.17044 4.58147 8.42464 3.91911 8.4246 3.23244C8.42456 2.54578 8.17027 1.88345 7.71079 1.37317L7.71056 1.37304Z" fill="#DAA7EE"/>
</g>
<defs>
<clipPath id="clip0_2164_3476">
<rect width="23" height="23" fill="white"/>
</clipPath>
</defs>
</svg>
