<svg width="38" height="38" viewBox="0 0 38 38" fill="none" xmlns="http://www.w3.org/2000/svg">
<g clip-path="url(#clip0_1691_5294)">
<path d="M24.3677 24.8364C23.768 24.8364 23.1742 24.7889 22.5983 24.688C22.2836 24.6345 22.0758 24.3376 22.1292 24.023C22.1827 23.7083 22.4795 23.5005 22.7942 23.5539C23.3048 23.637 23.8333 23.6845 24.3677 23.6845C29.6461 23.6845 33.9389 19.3917 33.9389 14.1133C33.9389 8.83483 29.6461 4.53608 24.3677 4.53608C19.0892 4.53608 14.7964 8.83483 14.7964 14.1133C14.7964 15.4314 15.0577 16.6901 15.5683 17.8717C15.693 18.1626 15.5623 18.5011 15.2714 18.6317C14.9805 18.7623 14.642 18.6258 14.5114 18.3348C13.9355 17.0108 13.6445 15.5917 13.6445 14.1192C13.6445 8.20545 18.4539 3.39014 24.3677 3.39014C30.2814 3.3842 35.0908 8.19358 35.0908 14.1133C35.0908 20.0211 30.2814 24.8364 24.3677 24.8364Z" fill="#DAA7EE"/>
<path d="M24.367 27.7399C23.7673 27.7399 23.1795 27.6984 22.6154 27.6271C22.3007 27.5856 22.081 27.2946 22.1226 26.9799C22.1641 26.6653 22.4551 26.4456 22.7698 26.4871C23.2745 26.5584 23.8088 26.594 24.361 26.594C31.2426 26.594 36.8416 20.9949 36.8416 14.1193C36.8416 7.23776 31.2426 1.6387 24.361 1.6387C17.4795 1.6387 11.8804 7.23776 11.8804 14.1193C11.8804 15.4196 12.0823 16.7021 12.4741 17.9312C12.5691 18.234 12.4029 18.5606 12.1001 18.6556C11.7973 18.7506 11.4707 18.5843 11.3757 18.2815C10.9423 16.9396 10.7285 15.5384 10.7285 14.1193C10.7285 6.60245 16.8441 0.486821 24.361 0.486821C31.8838 0.480883 37.9995 6.59651 37.9995 14.1134C37.9995 21.6243 31.8838 27.7399 24.367 27.7399Z" fill="#DAA7EE"/>
<path d="M16.6673 21.4224C16.3467 21.4224 16.0914 21.1671 16.0914 20.8465V18.7268C16.0914 18.6971 16.0677 18.6734 16.038 18.6734H7.23266C7.20297 18.6734 7.17922 18.6971 7.17922 18.7268V20.8465C7.17922 21.1671 6.92391 21.4224 6.60328 21.4224C6.28266 21.4224 6.02734 21.1671 6.02734 20.8465V18.7268C6.02734 18.0618 6.56766 17.5215 7.23266 17.5215H16.038C16.703 17.5215 17.2433 18.0618 17.2433 18.7268V20.8465C17.2433 21.1671 16.988 21.4224 16.6673 21.4224Z" fill="#DAA7EE"/>
<path d="M21.7254 37.5189H1.53789C0.688828 37.5189 -0.00585938 36.8243 -0.00585938 35.9752V21.8143C-0.00585938 20.9652 0.688828 20.2705 1.53789 20.2705H21.7254C22.5745 20.2705 23.2691 20.9652 23.2691 21.8143V35.9752C23.2691 36.8302 22.5804 37.5189 21.7254 37.5189ZM1.54383 21.4224C1.33008 21.4224 1.15195 21.6005 1.15195 21.8143V35.9752C1.15195 36.1889 1.33008 36.3671 1.54383 36.3671H21.7313C21.9451 36.3671 22.1232 36.1889 22.1232 35.9752V21.8143C22.1232 21.6005 21.9451 21.4224 21.7313 21.4224H1.54383Z" fill="#DAA7EE"/>
<path d="M16.3463 30.1863H6.92945C6.60883 30.1863 6.35352 29.931 6.35352 29.6104C6.35352 29.2897 6.60883 29.0344 6.92945 29.0344H16.3463C16.667 29.0344 16.9223 29.2897 16.9223 29.6104C16.9223 29.931 16.661 30.1863 16.3463 30.1863Z" fill="#DAA7EE"/>
<path d="M4.53625 30.1863H2.7075C1.21719 30.1863 0 28.9691 0 27.4788C0 27.1581 0.255313 26.9028 0.575938 26.9028C0.896563 26.9028 1.15188 27.1581 1.15188 27.4788C1.15188 28.3338 1.8525 29.0344 2.7075 29.0344H4.53625C4.85687 29.0344 5.11219 29.2897 5.11219 29.6103C5.11219 29.931 4.85687 30.1863 4.53625 30.1863Z" fill="#DAA7EE"/>
<path d="M20.5669 30.1863H18.7322C18.4116 30.1863 18.1562 29.931 18.1562 29.6103C18.1562 29.2897 18.4116 29.0344 18.7322 29.0344H20.5669C21.4219 29.0344 22.1225 28.3338 22.1225 27.4788C22.1225 27.1581 22.3778 26.9028 22.6984 26.9028C23.0191 26.9028 23.2744 27.1581 23.2744 27.4788C23.2744 28.9691 22.0572 30.1863 20.5669 30.1863Z" fill="#DAA7EE"/>
<path d="M6.35367 31.9436H5.11273C4.47742 31.9436 3.9668 31.4271 3.9668 30.7977V28.2446C3.9668 27.6093 4.48336 27.0986 5.11273 27.0986H6.35367C6.98305 27.0986 7.49961 27.6152 7.49961 28.2446V30.7977C7.49961 31.433 6.98898 31.9436 6.35367 31.9436ZM6.34773 28.2446L5.11273 28.2505L5.11867 30.7977L6.35367 30.7918V28.2446H6.34773Z" fill="#DAA7EE"/>
<path d="M18.1623 31.9436H16.9213C16.286 31.9436 15.7754 31.4271 15.7754 30.7977V28.2446C15.7754 27.6093 16.292 27.0986 16.9213 27.0986H18.1623C18.7916 27.0986 19.3082 27.6152 19.3082 28.2446V30.7977C19.3082 31.433 18.7916 31.9436 18.1623 31.9436ZM18.1563 28.2446L16.9213 28.2505L16.9273 30.7977L18.1623 30.7918V28.2446H18.1563Z" fill="#DAA7EE"/>
<path d="M24.4275 8.56785C24.1069 8.56785 23.8516 8.31254 23.8516 7.99191V6.13941C23.8516 5.81879 24.1069 5.56348 24.4275 5.56348C24.7481 5.56348 25.0034 5.81879 25.0034 6.13941V7.99191C25.0034 8.31254 24.7481 8.56785 24.4275 8.56785Z" fill="#DAA7EE"/>
<path d="M24.4275 22.6338C24.1069 22.6338 23.8516 22.3785 23.8516 22.0578V20.2053C23.8516 19.8847 24.1069 19.6294 24.4275 19.6294C24.7481 19.6294 25.0034 19.8847 25.0034 20.2053V22.0578C25.0034 22.3785 24.7481 22.6338 24.4275 22.6338Z" fill="#DAA7EE"/>
<path d="M32.3894 14.6775H30.5369C30.2163 14.6775 29.9609 14.4222 29.9609 14.1016C29.9609 13.7809 30.2163 13.5256 30.5369 13.5256H32.3894C32.71 13.5256 32.9653 13.7809 32.9653 14.1016C32.9653 14.4163 32.71 14.6775 32.3894 14.6775Z" fill="#DAA7EE"/>
<path d="M18.323 14.6775H16.4705C16.1498 14.6775 15.8945 14.4222 15.8945 14.1016C15.8945 13.7809 16.1498 13.5256 16.4705 13.5256H18.323C18.6436 13.5256 18.8989 13.7809 18.8989 14.1016C18.8989 14.4163 18.6436 14.6775 18.323 14.6775Z" fill="#DAA7EE"/>
<path d="M32.3894 14.6775H30.5369C30.2163 14.6775 29.9609 14.4222 29.9609 14.1016C29.9609 13.7809 30.2163 13.5256 30.5369 13.5256H32.3894C32.71 13.5256 32.9653 13.7809 32.9653 14.1016C32.9653 14.4163 32.71 14.6775 32.3894 14.6775Z" fill="#DAA7EE"/>
<path d="M18.323 14.6775H16.4705C16.1498 14.6775 15.8945 14.4222 15.8945 14.1016C15.8945 13.7809 16.1498 13.5256 16.4705 13.5256H18.323C18.6436 13.5256 18.8989 13.7809 18.8989 14.1016C18.8989 14.4163 18.6436 14.6775 18.323 14.6775Z" fill="#DAA7EE"/>
<path d="M24.4276 15.871C23.4538 15.871 22.6582 15.0754 22.6582 14.1017C22.6582 13.1279 23.4538 12.3323 24.4276 12.3323C25.4013 12.3323 26.197 13.1279 26.197 14.1017C26.2029 15.0754 25.4073 15.871 24.4276 15.871ZM24.4276 13.4782C24.0891 13.4782 23.8101 13.7573 23.8101 14.0957C23.8101 14.4341 24.0891 14.7132 24.4276 14.7132C24.766 14.7132 25.0451 14.4341 25.0451 14.0957C25.051 13.7573 24.772 13.4782 24.4276 13.4782Z" fill="#DAA7EE"/>
<path d="M24.4275 13.4782C24.1069 13.4782 23.8516 13.2229 23.8516 12.9023V9.60694C23.8516 9.28632 24.1069 9.03101 24.4275 9.03101C24.7481 9.03101 25.0034 9.28632 25.0034 9.60694V12.9023C25.0034 13.2229 24.7481 13.4782 24.4275 13.4782Z" fill="#DAA7EE"/>
<path d="M28.3039 19.291C28.1436 19.291 27.9892 19.2257 27.8764 19.101L24.6582 15.4851C24.4445 15.2476 24.4682 14.8854 24.7057 14.6717C24.9432 14.4579 25.3054 14.4817 25.5192 14.7192L28.7373 18.3351C28.9511 18.5726 28.9273 18.9348 28.6898 19.1485C28.577 19.2435 28.4404 19.291 28.3039 19.291Z" fill="#DAA7EE"/>
</g>
<defs>
<clipPath id="clip0_1691_5294">
<rect width="38" height="38" fill="white"/>
</clipPath>
</defs>
</svg>
