<svg width="47" height="47" viewBox="0 0 47 47" fill="none" xmlns="http://www.w3.org/2000/svg">
<g clip-path="url(#clip0_1510_3199)">
<path d="M20.5625 38.1875H3.67188C2.69839 38.1863 1.76511 37.7991 1.07676 37.1107C0.388398 36.4224 0.00116608 35.4891 0 34.5156L0 3.67188C0.00116608 2.69839 0.388398 1.76511 1.07676 1.07676C1.76511 0.388398 2.69839 0.00116608 3.67188 0L5.14062 0V1.46875H3.67188C3.08757 1.46875 2.5272 1.70086 2.11403 2.11403C1.70086 2.5272 1.46875 3.08757 1.46875 3.67188V34.5156C1.46875 35.0999 1.70086 35.6603 2.11403 36.0735C2.5272 36.4866 3.08757 36.7188 3.67188 36.7188H20.5625V38.1875Z" fill="#DAA7EE"/>
<path d="M6.60938 0H8.07886V1.46875H6.60938V0Z" fill="#DAA7EE"/>
<path d="M43.3281 38.1875V36.7188C43.9124 36.7187 44.4728 36.4866 44.886 36.0735C45.2991 35.6603 45.5312 35.0999 45.5312 34.5156V3.67188C45.5312 3.08757 45.2991 2.5272 44.886 2.11403C44.4728 1.70086 43.9124 1.46875 43.3281 1.46875H9.54688V0H43.3281C44.3016 0.00116608 45.2349 0.388398 45.9232 1.07676C46.6116 1.76511 46.9988 2.69839 47 3.67188V34.5156C46.9988 35.4891 46.6116 36.4224 45.9232 37.1107C45.2349 37.7991 44.3016 38.1863 43.3281 38.1875Z" fill="#DAA7EE"/>
<path d="M13.9766 40.2275L14.7123 37.2905L16.137 37.6475L15.4013 40.5844L13.9766 40.2275Z" fill="#DAA7EE"/>
<path d="M20.5625 44.0625H13.2188C13.024 44.0625 12.8372 43.9851 12.6995 43.8474C12.5617 43.7097 12.4844 43.5229 12.4844 43.3281V41.8594C12.4844 41.2751 12.7165 40.7147 13.1297 40.3015C13.5428 39.8884 14.1032 39.6562 14.6875 39.6562H20.5625V41.125H14.6875C14.4927 41.125 14.3059 41.2024 14.1682 41.3401C14.0305 41.4778 13.9531 41.6646 13.9531 41.8594V42.5938H20.5625V44.0625Z" fill="#DAA7EE"/>
<path d="M0.734375 30.8438H20.5625V32.3125H0.734375V30.8438Z" fill="#DAA7EE"/>
<path d="M2.9375 33.7812H4.40625V35.25H2.9375V33.7812Z" fill="#DAA7EE"/>
<path d="M5.875 33.7812H10.2812V35.25H5.875V33.7812Z" fill="#DAA7EE"/>
<path d="M40.3906 47H25.7031C24.7296 46.9988 23.7964 46.6116 23.108 45.9232C22.4196 45.2349 22.0324 44.3016 22.0312 43.3281V13.9531C22.0324 12.9796 22.4196 12.0464 23.108 11.358C23.7964 10.6696 24.7296 10.2824 25.7031 10.2812H40.3906C41.3641 10.2824 42.2974 10.6696 42.9857 11.358C43.6741 12.0464 44.0613 12.9796 44.0625 13.9531V43.3281C44.0613 44.3016 43.6741 45.2349 42.9857 45.9232C42.2974 46.6116 41.3641 46.9988 40.3906 47ZM25.7031 11.75C25.1188 11.75 24.5584 11.9821 24.1453 12.3953C23.7321 12.8084 23.5 13.3688 23.5 13.9531V43.3281C23.5 43.9124 23.7321 44.4728 24.1453 44.886C24.5584 45.2991 25.1188 45.5312 25.7031 45.5312H40.3906C40.9749 45.5312 41.5353 45.2991 41.9485 44.886C42.3616 44.4728 42.5938 43.9124 42.5938 43.3281V13.9531C42.5938 13.3688 42.3616 12.8084 41.9485 12.3953C41.5353 11.9821 40.9749 11.75 40.3906 11.75H25.7031Z" fill="#DAA7EE"/>
<path d="M36.7188 17.625H29.375C27.9988 17.625 27.4223 16.4265 27.2402 15.4219H22.7656V13.9531H27.9062C28.101 13.9531 28.2878 14.0305 28.4255 14.1682C28.5633 14.3059 28.6406 14.4927 28.6406 14.6875C28.6406 14.7 28.6817 16.1562 29.375 16.1562H36.7188C37.412 16.1562 37.4531 14.7 37.4531 14.6875C37.4531 14.4927 37.5305 14.3059 37.6682 14.1682C37.8059 14.0305 37.9927 13.9531 38.1875 13.9531H43.3281V15.4219H38.8536C38.6715 16.4265 38.095 17.625 36.7188 17.625Z" fill="#DAA7EE"/>
<path d="M30.1094 13.2188H35.9844V14.6875H30.1094V13.2188Z" fill="#DAA7EE"/>
<path d="M30.1094 43.3281H35.9844V44.7969H30.1094V43.3281Z" fill="#DAA7EE"/>
<path d="M22.7656 41.125H43.3281V42.5938H22.7656V41.125Z" fill="#DAA7EE"/>
<path d="M13.2188 20.5625H10.2812C10.0865 20.5625 9.89969 20.4851 9.76197 20.3474C9.62425 20.2097 9.54688 20.0229 9.54688 19.8281V18.7515C9.1368 18.6224 8.73893 18.4572 8.35792 18.258L7.59564 19.0203C7.45793 19.158 7.27117 19.2353 7.07644 19.2353C6.88171 19.2353 6.69495 19.158 6.55723 19.0203L4.47969 16.9428C4.34201 16.805 4.26467 16.6183 4.26467 16.4236C4.26467 16.2288 4.34201 16.0421 4.47969 15.9044L5.24123 15.1421C5.0423 14.761 4.8774 14.3632 4.74847 13.9531H3.67188C3.47711 13.9531 3.29032 13.8758 3.15259 13.738C3.01487 13.6003 2.9375 13.4135 2.9375 13.2188V10.2812C2.9375 10.0865 3.01487 9.89969 3.15259 9.76197C3.29032 9.62425 3.47711 9.54688 3.67188 9.54688H4.74847C4.87764 9.1368 5.04278 8.73893 5.24197 8.35792L4.47969 7.59564C4.34201 7.45793 4.26467 7.27117 4.26467 7.07644C4.26467 6.88171 4.34201 6.69495 4.47969 6.55723L6.55723 4.47969C6.69495 4.34201 6.88171 4.26467 7.07644 4.26467C7.27117 4.26467 7.45793 4.34201 7.59564 4.47969L8.35792 5.24123C8.73896 5.0423 9.13682 4.8774 9.54688 4.74847V3.67188C9.54688 3.47711 9.62425 3.29032 9.76197 3.15259C9.89969 3.01487 10.0865 2.9375 10.2812 2.9375H13.2188C13.4135 2.9375 13.6003 3.01487 13.738 3.15259C13.8758 3.29032 13.9531 3.47711 13.9531 3.67188V4.74847C14.3632 4.87764 14.7611 5.04278 15.1421 5.24197L15.9044 4.47969C16.0421 4.34201 16.2288 4.26467 16.4236 4.26467C16.6183 4.26467 16.805 4.34201 16.9428 4.47969L19.0203 6.55723C19.158 6.69495 19.2353 6.88171 19.2353 7.07644C19.2353 7.27117 19.158 7.45793 19.0203 7.59564L18.2588 8.35792C18.4577 8.73896 18.6226 9.13682 18.7515 9.54688H19.8281C20.0229 9.54688 20.2097 9.62425 20.3474 9.76197C20.4851 9.89969 20.5625 10.0865 20.5625 10.2812V13.2188C20.5625 13.4135 20.4851 13.6003 20.3474 13.738C20.2097 13.8758 20.0229 13.9531 19.8281 13.9531H18.7515C18.6224 14.3632 18.4572 14.7611 18.258 15.1421L19.0203 15.9044C19.158 16.0421 19.2353 16.2288 19.2353 16.4236C19.2353 16.6183 19.158 16.805 19.0203 16.9428L16.9428 19.0203C16.805 19.158 16.6183 19.2353 16.4236 19.2353C16.2288 19.2353 16.0421 19.158 15.9044 19.0203L15.1421 18.2588C14.761 18.4577 14.3632 18.6226 13.9531 18.7515V19.8281C13.9531 20.0229 13.8758 20.2097 13.738 20.3474C13.6003 20.4851 13.4135 20.5625 13.2188 20.5625ZM11.0156 19.0938H12.4844V18.1905C12.4842 18.0239 12.5407 17.8623 12.6445 17.732C12.7483 17.6018 12.8933 17.5107 13.0557 17.4737C13.6995 17.3273 14.3137 17.0722 14.8718 16.7195C15.0128 16.6306 15.1798 16.5923 15.3454 16.6108C15.511 16.6294 15.6654 16.7037 15.7832 16.8216L16.4236 17.462L17.462 16.4236L16.8216 15.7832C16.7037 15.6654 16.6294 15.511 16.6108 15.3454C16.5923 15.1798 16.6306 15.0128 16.7195 14.8718C17.0722 14.3137 17.3273 13.6995 17.4737 13.0557C17.5107 12.8933 17.6018 12.7483 17.732 12.6445C17.8623 12.5407 18.0239 12.4842 18.1905 12.4844H19.0938V11.0156H18.1905C18.0239 11.0158 17.8623 10.9593 17.732 10.8555C17.6018 10.7517 17.5107 10.6067 17.4737 10.4443C17.3273 9.80048 17.0722 9.18633 16.7195 8.62817C16.6306 8.48722 16.5923 8.32022 16.6108 8.1546C16.6294 7.98898 16.7037 7.8346 16.8216 7.71681L17.462 7.07644L16.4236 6.03803L15.7832 6.67841C15.6654 6.79631 15.511 6.87064 15.3454 6.88919C15.1798 6.90774 15.0128 6.8694 14.8718 6.78048C14.3137 6.42779 13.6995 6.17274 13.0557 6.02628C12.8933 5.98931 12.7483 5.89823 12.6445 5.76799C12.5407 5.63775 12.4842 5.47609 12.4844 5.30953V4.40625H11.0156V5.30953C11.0158 5.47609 10.9593 5.63775 10.8555 5.76799C10.7517 5.89823 10.6067 5.98931 10.4443 6.02628C9.80048 6.17274 9.18633 6.42779 8.62817 6.78048C8.48722 6.8694 8.32022 6.90774 8.1546 6.88919C7.98898 6.87064 7.8346 6.79631 7.71681 6.67841L7.07644 6.03803L6.03803 7.07644L6.67841 7.71681C6.79631 7.8346 6.87064 7.98898 6.88919 8.1546C6.90774 8.32022 6.8694 8.48722 6.78048 8.62817C6.42779 9.18633 6.17274 9.80048 6.02628 10.4443C5.98931 10.6067 5.89823 10.7517 5.76799 10.8555C5.63775 10.9593 5.47609 11.0158 5.30953 11.0156H4.40625V12.4844H5.30953C5.47609 12.4842 5.63775 12.5407 5.76799 12.6445C5.89823 12.7483 5.98931 12.8933 6.02628 13.0557C6.17274 13.6995 6.42779 14.3137 6.78048 14.8718C6.8694 15.0128 6.90774 15.1798 6.88919 15.3454C6.87064 15.511 6.79631 15.6654 6.67841 15.7832L6.03803 16.4236L7.07644 17.462L7.71681 16.8216C7.8346 16.7037 7.98898 16.6294 8.1546 16.6108C8.32022 16.5923 8.48722 16.6306 8.62817 16.7195C9.18633 17.0722 9.80048 17.3273 10.4443 17.4737C10.6067 17.5107 10.7517 17.6018 10.8555 17.732C10.9593 17.8623 11.0158 18.0239 11.0156 18.1905V19.0938Z" fill="#DAA7EE"/>
<path d="M11.75 15.4219C11.0238 15.4219 10.3139 15.2065 9.71002 14.8031C9.10618 14.3996 8.63555 13.8261 8.35763 13.1552C8.07972 12.4842 8.007 11.7459 8.14868 11.0337C8.29036 10.3214 8.64007 9.66712 9.15359 9.15359C9.66712 8.64007 10.3214 8.29036 11.0337 8.14868C11.7459 8.007 12.4842 8.07972 13.1552 8.35763C13.8261 8.63555 14.3996 9.10618 14.8031 9.71002C15.2065 10.3139 15.4219 11.0238 15.4219 11.75C15.4207 12.7235 15.0335 13.6568 14.3451 14.3451C13.6568 15.0335 12.7235 15.4207 11.75 15.4219ZM11.75 9.54688C11.3143 9.54688 10.8883 9.67609 10.526 9.91817C10.1637 10.1603 9.88133 10.5043 9.71458 10.9069C9.54783 11.3095 9.5042 11.7524 9.58921 12.1798C9.67422 12.6072 9.88404 12.9997 10.1922 13.3078C10.5003 13.616 10.8928 13.8258 11.3202 13.9108C11.7476 13.9958 12.1905 13.9522 12.5931 13.7854C12.9957 13.6187 13.3398 13.3363 13.5818 12.974C13.8239 12.6117 13.9531 12.1857 13.9531 11.75C13.9531 11.1657 13.721 10.6053 13.3078 10.1922C12.8947 9.77899 12.3343 9.54688 11.75 9.54688Z" fill="#DAA7EE"/>
<path d="M12.4844 30.1094H11.0156V27.1719C11.0156 26.9771 11.093 26.7903 11.2307 26.6526C11.3684 26.5149 11.5552 26.4375 11.75 26.4375H12.8266C12.9558 26.0274 13.1209 25.6296 13.3201 25.2485L12.5578 24.4863C12.4201 24.3485 12.3428 24.1618 12.3428 23.9671C12.3428 23.7723 12.4201 23.5856 12.5578 23.4479L14.6354 21.3703C14.7731 21.2326 14.9598 21.1553 15.1546 21.1553C15.3493 21.1553 15.5361 21.2326 15.6738 21.3703L16.436 22.1319C16.8171 21.9329 17.2149 21.768 17.625 21.6391V20.5625C17.625 20.3677 17.7024 20.1809 17.8401 20.0432C17.9778 19.9055 18.1646 19.8281 18.3594 19.8281H21.2969V21.2969H19.0938V22.2002C19.0939 22.3667 19.0374 22.5284 18.9336 22.6586C18.8298 22.7889 18.6848 22.8799 18.5224 22.9169C17.8786 23.0634 17.2645 23.3184 16.7063 23.6711C16.5653 23.76 16.3983 23.7984 16.2327 23.7798C16.0671 23.7613 15.9127 23.6869 15.7949 23.569L15.1546 22.9287L14.1162 23.9671L14.7565 24.6074C14.8744 24.7252 14.9488 24.8796 14.9673 25.0452C14.9859 25.2108 14.9475 25.3778 14.8586 25.5188C14.5059 26.077 14.2509 26.6911 14.1044 27.3349C14.0674 27.4973 13.9764 27.6423 13.8461 27.7461C13.7159 27.8499 13.5542 27.9064 13.3877 27.9062H12.4844V30.1094Z" fill="#DAA7EE"/>
<path d="M17.625 28.6406H16.1562C16.1574 27.6671 16.5446 26.7339 17.233 26.0455C17.9214 25.3571 18.8546 24.9699 19.8281 24.9688V26.4375C19.2438 26.4375 18.6834 26.6696 18.2703 27.0828C17.8571 27.4959 17.625 28.0563 17.625 28.6406Z" fill="#DAA7EE"/>
<path d="M33.0469 36.7188C31.4492 36.7188 29.8874 36.245 28.5589 35.3573C27.2305 34.4697 26.1951 33.2081 25.5837 31.732C24.9723 30.2559 24.8123 28.6317 25.124 27.0647C25.4357 25.4977 26.205 24.0583 27.3348 22.9285C28.4645 21.7988 29.9039 21.0294 31.4709 20.7177C33.0379 20.406 34.6622 20.566 36.1382 21.1774C37.6143 21.7888 38.876 22.8242 39.7636 24.1527C40.6512 25.4811 41.125 27.0429 41.125 28.6406C41.1225 30.7823 40.2706 32.8355 38.7562 34.3499C37.2418 35.8643 35.1886 36.7162 33.0469 36.7188ZM33.0469 22.0313C31.7397 22.0313 30.4618 22.4189 29.3749 23.1451C28.288 23.8714 27.4409 24.9036 26.9406 26.1113C26.4404 27.319 26.3095 28.648 26.5645 29.9301C26.8195 31.2121 27.449 32.3898 28.3733 33.3142C29.2977 34.2385 30.4754 34.868 31.7575 35.123C33.0395 35.378 34.3685 35.2471 35.5762 34.7469C36.7839 34.2466 37.8161 33.3995 38.5424 32.3126C39.2686 31.2257 39.6563 29.9478 39.6563 28.6406C39.6541 26.8884 38.9571 25.2085 37.7181 23.9695C36.479 22.7304 34.7991 22.0334 33.0469 22.0313Z" fill="#DAA7EE"/>
<path d="M31.578 33.7811C31.3832 33.7811 31.1965 33.7037 31.0588 33.5659L27.3869 29.894C27.2492 29.7563 27.1719 29.5696 27.1719 29.3748C27.1719 29.1801 27.2492 28.9934 27.3869 28.8556L29.59 26.6525C29.7277 26.5148 29.9145 26.4375 30.1092 26.4375C30.3039 26.4375 30.4907 26.5148 30.6284 26.6525L31.578 27.6021L35.465 23.715C35.6027 23.5773 35.7895 23.5 35.9842 23.5C36.1789 23.5 36.3657 23.5773 36.5034 23.715L38.7065 25.9181C38.8442 26.0559 38.9216 26.2426 38.9216 26.4373C38.9216 26.6321 38.8442 26.8188 38.7065 26.9565L32.0972 33.5659C31.9595 33.7037 31.7727 33.7811 31.578 33.7811ZM28.9445 29.3748L31.578 32.0083L37.1489 26.4373L35.9842 25.2726L32.0972 29.1597C31.9595 29.2973 31.7727 29.3747 31.578 29.3747C31.3832 29.3747 31.1965 29.2973 31.0588 29.1597L30.1092 28.2101L28.9445 29.3748Z" fill="#DAA7EE"/>
<path d="M41.8594 2.9375H43.3281V4.40625H41.8594V2.9375Z" fill="#DAA7EE"/>
<path d="M30.8438 2.9375H40.3906V4.40625H30.8438V2.9375Z" fill="#DAA7EE"/>
</g>
<defs>
<clipPath id="clip0_1510_3199">
<rect width="47" height="47" fill="white"/>
</clipPath>
</defs>
</svg>
