<svg width="29" height="40" viewBox="0 0 29 40" fill="none" xmlns="http://www.w3.org/2000/svg">
<path d="M23.399 32.3876C23.1403 31.922 22.6488 31.6338 22.1166 31.6338H17.0573L19.3153 27.5464C24.3931 25.5471 27.9963 20.5987 27.9963 14.8188C27.9963 7.28342 21.8616 1.15247 14.3226 1.15247C6.78721 1.15247 0.65625 7.28342 0.65625 14.8188C0.65625 20.5987 4.25949 25.5508 9.33719 27.5464L11.5952 31.6338H6.53602C6.00385 31.6338 5.51234 31.922 5.25368 32.3839L2.86264 36.6597C2.31199 37.6428 3.02158 38.8476 4.14506 38.8476H24.5115C25.6312 38.8476 26.3408 37.6428 25.7901 36.6597L23.399 32.3876ZM1.39541 14.8187C1.39541 7.68985 7.19379 1.89147 14.3226 1.89147C21.4551 1.89147 27.2573 7.68985 27.2573 14.8187C27.2573 21.9512 21.4552 27.7533 14.3226 27.7533C7.19387 27.7533 1.39541 21.9512 1.39541 14.8187ZM24.5114 38.1084H4.14498C3.58324 38.1084 3.23588 37.506 3.50562 37.0219L5.89666 32.7461C6.02603 32.5169 6.2699 32.3729 6.53602 32.3729H12.0018L14.0048 35.9946C14.0677 36.1128 14.1933 36.1868 14.3263 36.1868C14.4594 36.1868 14.5851 36.1128 14.6515 35.9946L16.6508 32.3729H22.1166C22.3827 32.3729 22.6266 32.517 22.756 32.7461L25.147 37.0219C25.4168 37.5097 25.0657 38.1084 24.5114 38.1084Z" fill="#DAA7EE" stroke="#DAA7EE"/>
<mask id="path-2-inside-1_2027_8732" fill="white">
<path d="M14.3325 5.09924C8.97017 5.09924 4.60938 9.46004 4.60938 14.8223C4.60938 20.1847 8.97017 24.5455 14.3325 24.5455C19.6948 24.5455 24.0556 20.1847 24.0556 14.8224C24.0556 9.46012 19.6948 5.09924 14.3325 5.09924ZM14.3325 23.8064C9.37667 23.8064 5.34846 19.7745 5.34846 14.8223C5.34846 9.86654 9.37667 5.83832 14.3325 5.83832C19.2846 5.83832 23.3165 9.86654 23.3165 14.8223C23.3165 19.7745 19.2846 23.8064 14.3325 23.8064Z"/>
</mask>
<path d="M14.3325 5.09924C8.97017 5.09924 4.60938 9.46004 4.60938 14.8223C4.60938 20.1847 8.97017 24.5455 14.3325 24.5455C19.6948 24.5455 24.0556 20.1847 24.0556 14.8224C24.0556 9.46012 19.6948 5.09924 14.3325 5.09924ZM14.3325 23.8064C9.37667 23.8064 5.34846 19.7745 5.34846 14.8223C5.34846 9.86654 9.37667 5.83832 14.3325 5.83832C19.2846 5.83832 23.3165 9.86654 23.3165 14.8223C23.3165 19.7745 19.2846 23.8064 14.3325 23.8064Z" fill="#DAA7EE"/>
<path d="M14.3325 5.09924V-0.900757C5.65646 -0.900757 -1.39062 6.14633 -1.39062 14.8223H4.60938H10.6094C10.6094 12.7737 12.2839 11.0992 14.3325 11.0992V5.09924ZM4.60938 14.8223H-1.39062C-1.39062 23.4983 5.6564 30.5455 14.3325 30.5455V24.5455V18.5455C12.2839 18.5455 10.6094 16.871 10.6094 14.8223H4.60938ZM14.3325 24.5455V30.5455C23.0085 30.5455 30.0556 23.4984 30.0556 14.8224H24.0556H18.0556C18.0556 16.871 16.3811 18.5455 14.3325 18.5455V24.5455ZM24.0556 14.8224H30.0556C30.0556 6.14647 23.0086 -0.900757 14.3325 -0.900757V5.09924V11.0992C16.381 11.0992 18.0556 12.7738 18.0556 14.8224H24.0556ZM14.3325 23.8064V17.8064C12.692 17.8064 11.3485 16.4624 11.3485 14.8223H5.34846H-0.651545C-0.651545 23.0866 6.06136 29.8064 14.3325 29.8064V23.8064ZM5.34846 14.8223H11.3485C11.3485 13.1803 12.6904 11.8383 14.3325 11.8383V5.83832V-0.161676C6.06297 -0.161676 -0.651545 6.55283 -0.651545 14.8223H5.34846ZM14.3325 5.83832V11.8383C15.9725 11.8383 17.3165 13.1819 17.3165 14.8223H23.3165H29.3165C29.3165 6.55123 22.5967 -0.161676 14.3325 -0.161676V5.83832ZM23.3165 14.8223H17.3165C17.3165 16.4607 15.9709 17.8064 14.3325 17.8064V23.8064V29.8064C22.5983 29.8064 29.3165 23.0882 29.3165 14.8223H23.3165Z" fill="#DAA7EE" mask="url(#path-2-inside-1_2027_8732)"/>
<path d="M17.3825 13.9873C17.5858 13.5549 17.7003 13.0782 17.7003 12.5719V10.9569C17.7003 9.01668 16.0447 7.46082 14.0786 7.60497C12.29 7.73804 10.9669 9.23476 10.9669 10.9569V12.5719C10.9669 13.0782 11.0852 13.5586 11.2847 13.991C10.1353 14.3272 9.28906 15.3879 9.28906 16.6444V19.9076C9.28906 20.5987 9.8508 21.1604 10.5419 21.1604H18.1253C18.8164 21.1604 19.3781 20.5987 19.3781 19.9076V16.6444C19.3782 15.3879 18.5355 14.3235 17.3825 13.9873ZM11.7061 11.8549H12.8258C13.7202 11.8549 14.5812 11.4964 15.2169 10.8792C15.6603 11.3966 16.2812 11.7366 16.9612 11.8253V12.5719C16.9612 14.0205 15.7822 15.1995 14.3336 15.1995C12.8849 15.1995 11.706 14.0205 11.706 12.5719L11.7061 11.8549ZM12.8739 20.4213H11.5213L11.7134 19.49C11.7541 19.2867 11.6247 19.0946 11.4252 19.054C11.2256 19.0133 11.0298 19.139 10.9892 19.3423L10.7674 20.4214H10.542C10.2612 20.4214 10.0283 20.1922 10.0283 19.9077V16.6445C10.0283 15.6504 10.7453 14.8226 11.6913 14.6489C12.0091 15.0554 12.4194 15.3843 12.8925 15.6097L13.4801 16.6186L12.8739 20.4213ZM13.6241 20.4213L14.1748 16.9659H14.4926L15.0432 20.4213H13.6241ZM18.639 19.9076C18.639 20.1922 18.4098 20.4213 18.1253 20.4213H17.8998L17.6782 19.3422C17.6375 19.1389 17.4416 19.0133 17.2421 19.0539C17.0425 19.0945 16.9132 19.2867 16.9538 19.4863L17.146 20.4212H15.7934L15.1873 16.6185L15.7749 15.6059C16.248 15.3841 16.6582 15.0552 16.976 14.6487C17.9221 14.8261 18.6391 15.6502 18.6391 16.6444V19.9076H18.639Z" fill="#DAA7EE"/>
</svg>
