<svg width="38" height="38" viewBox="0 0 38 38" fill="none" xmlns="http://www.w3.org/2000/svg">
<g clip-path="url(#clip0_1165_8367)">
<path d="M37.6757 22.2929C37.502 22.1193 37.2665 22.0217 37.0209 22.0217C36.7753 22.0217 36.5398 22.1193 36.3661 22.2929L28.1259 30.5331C28.0911 30.568 28.0497 30.5956 28.0042 30.6144C27.9587 30.6333 27.91 30.643 27.8607 30.643C27.8115 30.643 27.7627 30.6333 27.7172 30.6144C27.6717 30.5956 27.6304 30.568 27.5956 30.5331L24.9246 27.8621C24.7505 27.6907 24.5156 27.5951 24.2713 27.5961C24.027 27.5971 23.7929 27.6946 23.6201 27.8673C23.4473 28.0401 23.3499 28.2742 23.3489 28.5185C23.3479 28.7628 23.4435 28.9977 23.6149 29.1718L27.5956 33.1525C27.6304 33.1873 27.6717 33.2149 27.7172 33.2338C27.7627 33.2526 27.8115 33.2623 27.8607 33.2623C27.91 33.2623 27.9587 33.2526 28.0042 33.2338C28.0497 33.2149 28.0911 33.1873 28.1259 33.1525L37.6757 23.6026C37.7617 23.5166 37.8299 23.4145 37.8764 23.3021C37.923 23.1898 37.9469 23.0694 37.9469 22.9478C37.9469 22.8261 37.923 22.7057 37.8764 22.5934C37.8299 22.481 37.7617 22.3789 37.6757 22.2929Z" fill="#DAA7EE"/>
<path d="M36.1063 28.3447C35.8607 28.3447 35.6251 28.4423 35.4515 28.616C35.2778 28.7897 35.1803 29.0252 35.1803 29.2708C35.1803 30.631 34.7769 31.9606 34.0213 33.0915C33.2656 34.2224 32.1916 35.1038 30.9349 35.6244C29.6783 36.1449 28.2956 36.281 26.9616 36.0157C25.6276 35.7503 24.4022 35.0954 23.4404 34.1336C22.4786 33.1718 21.8237 31.9465 21.5583 30.6124C21.293 29.2784 21.4292 27.8957 21.9497 26.6391C22.4702 25.3825 23.3516 24.3084 24.4825 23.5528C25.6135 22.7971 26.9431 22.3938 28.3032 22.3938C29.3736 22.3904 30.4297 22.6396 31.3857 23.1211C31.6051 23.2313 31.8594 23.2499 32.0926 23.1726C32.3257 23.0954 32.5186 22.9287 32.6288 22.7092C32.7391 22.4897 32.7576 22.2354 32.6803 22.0023C32.6031 21.7692 32.4364 21.5763 32.2169 21.466C31.0032 20.8543 29.6623 20.5375 28.3031 20.5414C26.5767 20.5414 24.889 21.0534 23.4535 22.0125C22.018 22.9717 20.8992 24.335 20.2385 25.93C19.5778 27.5251 19.4049 29.2802 19.7417 30.9735C20.0785 32.6668 20.9098 34.2221 22.1306 35.443C23.3514 36.6638 24.9068 37.4951 26.6 37.832C28.2933 38.1688 30.0484 37.996 31.6435 37.3353C33.2385 36.6747 34.6019 35.5559 35.5611 34.1204C36.5203 32.6849 37.0323 30.9973 37.0323 29.2708C37.0323 29.0252 36.9347 28.7897 36.7611 28.616C36.5874 28.4423 36.3519 28.3447 36.1063 28.3447Z" fill="#DAA7EE"/>
<path d="M30.2232 14.9816H28.6646C28.4074 14.9816 28.1606 15.0838 27.9787 15.2657C27.7968 15.4476 27.6946 15.6943 27.6946 15.9515C27.6946 16.2088 27.7968 16.4555 27.9787 16.6374C28.1606 16.8193 28.4074 16.9215 28.6646 16.9215H31.1978C31.4653 16.9114 31.7187 16.7993 31.9061 16.6082C32.0934 16.4171 32.2005 16.1615 32.2053 15.8939C32.1571 11.662 30.4423 7.61989 27.4328 4.6444C24.4233 1.6689 20.3619 7.76436e-05 16.1298 0C7.26504 0 0.0529785 7.21198 0.0529785 16.0767C0.0529785 24.9415 7.26504 32.1534 16.1298 32.1534C16.3377 32.1533 16.5401 32.0864 16.7072 31.9626C16.8742 31.8387 16.997 31.6645 17.0575 31.4656C17.0865 31.3826 17.1008 31.2953 17.0995 31.2074V28.4865C17.0973 28.2307 16.9941 27.9861 16.8125 27.8061C16.6308 27.626 16.3853 27.5249 16.1295 27.5249C15.8737 27.5249 15.6283 27.626 15.4466 27.8061C15.265 27.9861 15.1618 28.2307 15.1595 28.4865V30.1796C8.09443 29.6984 2.43844 24.0033 2.01874 16.9219H3.5947C3.85195 16.9219 4.09866 16.8197 4.28057 16.6378C4.46247 16.4559 4.56466 16.2092 4.56466 15.9519C4.56466 15.6947 4.46247 15.4479 4.28057 15.266C4.09866 15.0841 3.85195 14.9819 3.5947 14.9819H2.03506C2.57129 8.01614 8.17778 2.44922 15.1598 1.97422V3.41651C15.162 3.6723 15.2652 3.91686 15.4468 4.09694C15.6285 4.27703 15.874 4.37807 16.1298 4.37807C16.3856 4.37807 16.631 4.27703 16.8127 4.09694C16.9943 3.91686 17.0975 3.6723 17.0998 3.41651V1.97422C24.0543 2.45241 29.6845 8.02987 30.2232 14.9816Z" fill="#DAA7EE"/>
<path d="M16.1298 9.49524C15.8725 9.49524 15.6258 9.59744 15.4439 9.77936C15.262 9.96127 15.1598 10.208 15.1598 10.4653V15.5162L8.60055 19.2969C8.48926 19.36 8.39156 19.4445 8.31307 19.5456C8.23459 19.6466 8.17687 19.7622 8.14324 19.8856C8.10961 20.0091 8.10073 20.138 8.11712 20.2649C8.13351 20.3918 8.17484 20.5142 8.23873 20.625C8.30263 20.7359 8.38782 20.833 8.4894 20.9108C8.59098 20.9886 8.70695 21.0455 8.83063 21.0783C8.95431 21.111 9.08325 21.119 9.21003 21.1018C9.3368 21.0845 9.45892 21.0423 9.56933 20.9777L16.6142 16.9175C16.632 16.9072 16.6476 16.8973 16.6621 16.8878C16.7966 16.7997 16.9071 16.6795 16.9835 16.538C17.06 16.3965 17.1 16.2382 17.1 16.0774V10.4653C17.1 10.3379 17.0749 10.2117 17.0262 10.094C16.9774 9.97633 16.9059 9.86938 16.8158 9.77931C16.7257 9.68923 16.6188 9.61778 16.5011 9.56904C16.3834 9.5203 16.2572 9.49522 16.1298 9.49524Z" fill="#DAA7EE"/>
</g>
<defs>
<clipPath id="clip0_1165_8367">
<rect width="38" height="38" fill="white"/>
</clipPath>
</defs>
</svg>
