<svg width="25" height="27" viewBox="0 0 25 27" fill="none" xmlns="http://www.w3.org/2000/svg">
<path d="M22.4771 20.7963C22.9786 20.2442 23.2858 19.507 23.2858 18.6975C23.2858 16.9915 21.9223 15.603 20.2459 15.603C18.5705 15.603 17.2075 16.991 17.2075 18.6975C17.2075 19.5064 17.5142 20.2437 18.0157 20.7958C17.5598 20.974 17.1391 21.2377 16.7755 21.5763C16.289 20.9577 15.6404 20.4725 14.8929 20.193C15.4684 19.5845 15.8233 18.7587 15.8233 17.8495C15.8233 15.9848 14.3334 14.4682 12.5016 14.4682C10.6692 14.4682 9.17827 15.9848 9.17827 17.8495C9.17827 18.7587 9.53313 19.5845 10.1092 20.1925C9.36114 20.472 8.71255 20.9572 8.2261 21.5757C7.86191 21.2372 7.44125 20.973 6.98589 20.7953C7.48684 20.2431 7.79404 19.5059 7.79404 18.697C7.79404 16.991 6.43106 15.6025 4.75569 15.6025C3.0798 15.6025 1.71578 16.9905 1.71578 18.697C1.71578 19.5064 2.02298 20.2437 2.52445 20.7958C1.04024 21.378 0 22.8535 0 24.5215V26.0808C0 26.5876 0.405114 27 0.902959 27H8.23387H8.23439H8.2349H16.7651H16.7656H16.7661H24.097C24.5949 27 25 26.5876 25 26.0808V24.5215C25.001 22.8535 23.9608 21.378 22.4771 20.7963ZM20.2459 16.4463C21.4654 16.4463 22.4574 17.4561 22.4574 18.6975C22.4574 19.9389 21.4654 20.9487 20.2459 20.9487C19.0274 20.9487 18.0359 19.9389 18.0359 18.6975C18.0359 17.4561 19.0274 16.4463 20.2459 16.4463ZM10.0061 17.8501C10.0061 16.4505 11.1251 15.312 12.501 15.312C13.8759 15.312 14.9944 16.4505 14.9944 17.8501C14.9944 18.7755 14.5054 19.5861 13.7765 20.0296C13.776 20.0296 13.776 20.0301 13.7754 20.0301C13.4019 20.2569 12.9662 20.3882 12.5005 20.3882C11.1256 20.3882 10.0061 19.2496 10.0061 17.8501ZM4.75517 16.4463C5.97362 16.4463 6.96517 17.4561 6.96517 18.6975C6.96517 19.9389 5.97362 20.9487 4.75517 20.9487C3.53568 20.9487 2.54362 19.9389 2.54362 18.6975C2.54362 17.4561 3.53568 16.4463 4.75517 16.4463ZM7.28843 26.1568H0.902959C0.863069 26.1568 0.827842 26.1214 0.827842 26.0803V24.5215C0.827842 23.0201 1.89658 21.716 3.33468 21.4328C3.75896 21.6617 4.24178 21.7925 4.75465 21.7925C5.267 21.7925 5.74982 21.6622 6.17359 21.4334C6.77504 21.552 7.32832 21.8521 7.76555 22.2956C7.45472 22.901 7.2791 23.5849 7.2791 24.3011V26.0292C7.2791 26.0719 7.28325 26.1146 7.28843 26.1568ZM16.8936 26.0281C16.8936 26.0977 16.835 26.1568 16.7656 26.1568H8.23542C8.166 26.1568 8.10746 26.0977 8.10746 26.0281V24.3C8.10746 22.6099 9.314 21.1433 10.936 20.8317C11.4028 21.0864 11.9353 21.2314 12.501 21.2314C13.0662 21.2314 13.5988 21.0864 14.065 20.8322C15.6865 21.1438 16.8931 22.6104 16.8931 24.3005V26.0281H16.8936ZM24.1727 26.0803C24.1727 26.1209 24.138 26.1568 24.0976 26.1568H17.7126C17.7183 26.1146 17.7219 26.0719 17.7219 26.0281V24.3C17.7219 23.5833 17.5463 22.8999 17.2355 22.2945C17.6727 21.851 18.226 21.551 18.8274 21.4323C19.2512 21.6612 19.734 21.7914 20.2464 21.7914C20.7587 21.7914 21.2421 21.6612 21.6664 21.4318C23.105 21.7155 24.1732 23.0191 24.1732 24.521V26.0803H24.1727ZM11.8913 7.97397L10.433 6.48949C10.2714 6.32496 10.2714 6.05813 10.433 5.89359C10.5946 5.72906 10.8567 5.72906 11.0184 5.89359L12.184 7.08012L13.9821 5.24971C14.1438 5.08518 14.4059 5.08518 14.5675 5.24971C14.7292 5.41424 14.7292 5.68107 14.5675 5.84561L12.4762 7.97449C12.3954 8.05676 12.2892 8.09789 12.1835 8.09789C12.0778 8.09789 11.9721 8.05623 11.8913 7.97397ZM12.501 10.3444C14.5219 10.3444 16.1662 8.67006 16.1662 6.61184C16.1662 4.55467 14.5219 2.88088 12.501 2.88088C10.4791 2.88088 8.83429 4.55467 8.83429 6.61184C8.83429 8.67006 10.4796 10.3444 12.501 10.3444ZM12.501 3.72357C14.0655 3.72357 15.3384 5.01926 15.3384 6.61131C15.3384 8.20441 14.0655 9.50063 12.501 9.50063C10.936 9.50063 9.66265 8.20441 9.66265 6.61131C9.66265 5.01926 10.936 3.72357 12.501 3.72357ZM6.50566 7.84688L7.23144 8.08629C7.34956 8.52662 7.52362 8.95535 7.75105 9.36299L7.40344 10.0554C7.26149 10.3407 7.31537 10.684 7.53761 10.9102L8.28153 11.6675C8.50429 11.8911 8.84102 11.9449 9.12025 11.8009L9.79889 11.4476C10.1962 11.677 10.6179 11.8547 11.0531 11.9765L11.2888 12.7174C11.3867 13.0201 11.6628 13.2237 11.9757 13.2237H13.0258C13.3387 13.2237 13.6148 13.0201 13.7133 12.7153L13.9485 11.9765C14.3873 11.8536 14.8095 11.6759 15.2027 11.4476L15.8829 11.8014C16.1611 11.9449 16.4973 11.8905 16.7226 11.6654L17.4639 10.9107C17.6857 10.685 17.7395 10.3412 17.5971 10.0543L17.25 9.36352C17.4774 8.95588 17.652 8.52662 17.7696 8.08682L18.4975 7.84688C18.7948 7.74721 18.9948 7.46561 18.9948 7.14603V6.07869C18.9948 5.75648 18.7933 5.47488 18.4959 5.37891L17.7691 5.13791C17.651 4.69547 17.4764 4.26674 17.25 3.86227L17.5966 3.17039C17.7411 2.88352 17.6867 2.53863 17.4634 2.31557L16.7221 1.56041C16.5004 1.33471 16.1631 1.27986 15.8818 1.42436L15.2016 1.77715C14.8095 1.54881 14.3893 1.37109 13.9479 1.2477L13.7128 0.508359C13.6143 0.204082 13.3382 0 13.0253 0H11.9752C11.6628 0 11.3867 0.204082 11.2878 0.509941L11.0531 1.24717C10.6153 1.36951 10.1936 1.54775 9.79941 1.77662L9.11818 1.42383C8.83791 1.27934 8.50066 1.33418 8.27842 1.56041L7.53916 2.31293C7.31381 2.53863 7.25942 2.88352 7.40344 3.16986L7.75053 3.86227C7.52362 4.26779 7.34904 4.69705 7.23144 5.13791L6.50721 5.37785C6.20726 5.47488 6.00574 5.75648 6.00574 6.07869V7.14603C6.00626 7.46508 6.20622 7.74668 6.50566 7.84688ZM6.8341 6.15568L7.54227 5.92102C7.77954 5.84139 7.95309 5.65576 8.01784 5.40844C8.12145 5.00186 8.28205 4.60793 8.49548 4.2351C8.61981 4.01572 8.62759 3.76049 8.51465 3.53057L8.17688 2.85609L8.81149 2.2101L9.472 2.55234C9.69528 2.66941 9.94809 2.66309 10.1672 2.53389C10.5283 2.31873 10.9163 2.15473 11.3152 2.0482C11.5551 1.9865 11.7452 1.80562 11.8234 1.56305L12.0524 0.842695H12.9486L13.1786 1.56463C13.2564 1.80562 13.446 1.98598 13.6827 2.04715C14.0883 2.15578 14.4753 2.31926 14.8364 2.53494C15.054 2.66309 15.3068 2.66941 15.528 2.5534L16.1901 2.2101L16.8247 2.85609L16.4853 3.5332C16.374 3.75996 16.3817 4.01572 16.5066 4.23615C16.719 4.60687 16.8796 5.00133 16.9842 5.41107C17.0485 5.65523 17.2215 5.84139 17.4603 5.92102L18.1669 6.15516V7.06852L17.4593 7.30213C17.2256 7.38018 17.048 7.57107 16.9837 7.81629C16.8801 8.22182 16.7195 8.61627 16.5076 8.98699C16.3833 9.20268 16.375 9.46582 16.4869 9.69416L16.8252 10.3676L16.1906 11.0136L15.5301 10.6697C15.3078 10.5532 15.055 10.5601 14.8354 10.6893C14.4753 10.9034 14.0873 11.0668 13.6832 11.1749C13.6827 11.1749 13.6822 11.1755 13.6817 11.1755C13.4439 11.2403 13.2564 11.4212 13.1792 11.6606L12.9502 12.3794H12.0529L11.8234 11.659C11.7468 11.4212 11.5587 11.2403 11.3194 11.1755C10.9174 11.0679 10.5299 10.9044 10.1657 10.6893C9.94757 10.5606 9.69477 10.5537 9.47356 10.6697L8.81201 11.0141L8.1774 10.3681L8.51724 9.691C8.6281 9.46582 8.61981 9.20268 8.496 8.98857C8.28308 8.61574 8.12249 8.22129 8.01836 7.81365C7.95464 7.5716 7.77747 7.3807 7.54175 7.3016L6.83565 7.06852V6.15568H6.8341Z" fill="#DAA7EE"/>
</svg>
