<svg width="34" height="34" viewBox="0 0 34 34" fill="none" xmlns="http://www.w3.org/2000/svg">
<path d="M24.5369 18.9285C29.7576 18.9285 34.0011 14.685 34.0011 9.46426C34.0011 4.24352 29.7576 0 24.5369 0C20.4607 0 16.9936 2.59029 15.6616 6.20465C15.6282 6.19795 15.5947 6.19126 15.5612 6.17787C15.7955 5.7562 15.9294 5.26759 15.9294 4.75221C15.9294 3.12575 14.6041 1.80049 12.9776 1.80049C11.3512 1.80049 10.0259 3.12575 10.0259 4.75221C10.0259 5.26759 10.1598 5.7562 10.394 6.17787C6.33123 7.31573 3.33935 11.0372 3.33935 15.4547V21.2645C3.33935 24.1493 2.24165 26.8935 0.26045 28.9885C-0.000586678 29.2629 -0.0742124 29.6645 0.0797324 30.0125C0.226984 30.3606 0.56834 30.5815 0.949855 30.5815H8.72742C9.16248 32.5359 10.9027 34.0017 12.9776 34.0017C15.0592 34.0017 16.7995 32.5359 17.2345 30.5815H25.0121C25.3869 30.5815 25.7283 30.3539 25.8822 30.0125C26.0295 29.6645 25.9625 29.2629 25.7015 28.9885C23.7136 26.8935 22.6226 24.156 22.6226 21.2645V18.7277C23.2317 18.8616 23.8742 18.9285 24.5369 18.9285ZM12.9776 3.69468C13.5666 3.69468 14.0419 4.1699 14.0419 4.7589C14.0419 5.34791 13.5599 5.82313 12.9776 5.82313C12.3886 5.82313 11.9134 5.34791 11.9134 4.7589C11.9134 4.1699 12.3886 3.69468 12.9776 3.69468ZM12.9709 32.1142C11.9402 32.1142 11.0634 31.4851 10.6885 30.5882H15.26C14.8852 31.4784 14.0017 32.1142 12.9709 32.1142ZM23.0242 28.694H2.92436C4.42365 26.5254 5.23354 23.9485 5.23354 21.2645V15.4547C5.23354 11.1844 8.70734 7.71063 12.9776 7.71063C13.734 7.71063 14.4769 7.81772 15.1931 8.0386C15.1195 8.50712 15.0726 8.98235 15.0726 9.47095C15.0726 13.333 17.4019 16.6528 20.7217 18.1253V21.2712C20.7217 23.9485 21.5316 26.5254 23.0242 28.694ZM16.9601 9.46426C16.9601 5.28767 20.3603 1.8875 24.5369 1.8875C28.7135 1.8875 32.1136 5.28767 32.1136 9.46426C32.1136 13.6408 28.7135 17.041 24.5369 17.041C20.3603 17.041 16.9601 13.6408 16.9601 9.46426Z" fill="#DAA7EE"/>
<path d="M27.622 10.4079C28.144 10.4079 28.5657 9.98627 28.5657 9.4642C28.5657 8.94212 28.144 8.52045 27.622 8.52045H25.4734V4.49111C25.4734 3.96904 25.0518 3.54736 24.5297 3.54736C24.0076 3.54736 23.5859 3.96904 23.5859 4.49111V9.4642C23.5859 9.98627 24.0076 10.4079 24.5297 10.4079H27.622Z" fill="#DAA7EE"/>
</svg>
