<svg width="24" height="21" viewBox="0 0 24 21" fill="none" xmlns="http://www.w3.org/2000/svg">
<path d="M22.2087 5.82083C22.1326 5.82176 22.0579 5.80002 21.9943 5.75839C21.9306 5.71676 21.8807 5.65712 21.851 5.58706C21.83 5.53368 21.8078 5.48108 21.7852 5.42771C21.7561 5.35701 21.7488 5.27926 21.7641 5.20438C21.7795 5.1295 21.8168 5.06089 21.8713 5.00731C22.0905 4.78772 22.2137 4.49008 22.2137 4.17976C22.2137 3.86944 22.0905 3.5718 21.8713 3.35221L21.1053 2.58622C20.8855 2.36721 20.5878 2.24424 20.2775 2.24424C19.9672 2.24424 19.6696 2.36721 19.4498 2.58622C19.3964 2.64084 19.3278 2.67827 19.253 2.69368C19.1782 2.70909 19.1004 2.70179 19.0298 2.67271C18.9776 2.64972 18.925 2.62829 18.8712 2.60686C18.8011 2.57706 18.7415 2.52712 18.6999 2.46337C18.6583 2.39962 18.6365 2.32494 18.6374 2.24881C18.6367 1.93903 18.5133 1.64214 18.2943 1.42309C18.0752 1.20405 17.7784 1.08067 17.4686 1.07995H16.3839C16.0741 1.08067 15.7772 1.20405 15.5582 1.42309C15.3391 1.64214 15.2157 1.93903 15.215 2.24881C15.2138 2.27257 15.2104 2.29618 15.2049 2.31933C15.0996 2.00503 15.0423 1.67666 15.035 1.34528C15.0369 1.26337 15.0129 1.18294 14.9665 1.11544C14.92 1.04794 14.8535 0.996804 14.7763 0.969296C11.1904 -0.333731 7.25851 -0.322687 3.67995 1.00047C3.6089 1.03145 3.5487 1.08292 3.50706 1.1483C3.46541 1.21368 3.44422 1.29 3.44618 1.36749C3.44537 2.10083 3.16374 2.80602 2.65915 3.33818C2.15265 3.79598 1.4038 3.96625 0.438324 3.84468C0.382018 3.83759 0.324842 3.84288 0.270795 3.86019C0.216747 3.8775 0.167133 3.9064 0.125422 3.94489C0.0837115 3.98337 0.0509109 4.0305 0.0293144 4.08298C0.00771795 4.13546 -0.00215296 4.19203 0.000391985 4.24872C0.0257172 4.77003 0.714563 17.0621 9.11163 20.9634C9.16294 20.9875 9.21895 21 9.27566 21C9.33291 21 9.38944 20.9873 9.44125 20.963C12.2185 19.6601 14.4311 17.2912 16.0258 13.9245C16.1411 13.9637 16.2618 13.9844 16.3835 13.9861H17.4651C17.7748 13.9854 18.0717 13.862 18.2908 13.6429C18.5098 13.4239 18.6332 13.127 18.6339 12.8172C18.6332 12.7408 18.6553 12.6658 18.6973 12.602C18.7394 12.5381 18.7995 12.4883 18.87 12.4588C18.923 12.4377 18.9756 12.4163 19.0259 12.3933C19.0966 12.3645 19.1744 12.3573 19.2492 12.3727C19.3241 12.3881 19.3927 12.4254 19.4463 12.4798C19.6693 12.6926 19.9658 12.8113 20.274 12.8113C20.5823 12.8113 20.8787 12.6926 21.1018 12.4798L21.8666 11.7154C22.0857 11.4957 22.2087 11.1981 22.2087 10.8878C22.2087 10.5776 22.0857 10.28 21.8666 10.0603C21.812 10.0066 21.7747 9.93783 21.7593 9.86281C21.744 9.7878 21.7514 9.70991 21.7805 9.6391C21.8031 9.5865 21.8253 9.5339 21.8459 9.48325C21.8749 9.4111 21.9251 9.34944 21.9899 9.30644C22.0546 9.26344 22.1309 9.24113 22.2087 9.24247C22.5185 9.24175 22.8153 9.11837 23.0344 8.89932C23.2534 8.68027 23.3768 8.38339 23.3775 8.07361V6.99086C23.3771 6.68088 23.2539 6.38369 23.0348 6.16439C22.8157 5.94509 22.5187 5.82155 22.2087 5.82083ZM9.27527 20.1771C2.32252 16.8026 1.02041 6.88371 0.813916 4.65704C1.23907 4.69818 1.66815 4.65347 2.07569 4.52557C2.48322 4.39766 2.86091 4.18917 3.18631 3.91248C3.80016 3.3044 4.16642 2.49009 4.21412 1.62736C7.47411 0.528145 11.004 0.524451 14.2663 1.61684C14.2975 1.97191 14.3745 2.32144 14.4954 2.65674C14.4598 2.63818 14.4273 2.61441 14.3988 2.58622C14.1791 2.36714 13.8815 2.24411 13.5712 2.24411C13.261 2.24411 12.9634 2.36714 12.7437 2.58622L12.137 3.19324L12.1323 3.1796C12.1134 3.11575 12.0783 3.05783 12.0306 3.01138C11.9828 2.96493 11.924 2.9315 11.8596 2.91427C9.80968 2.38135 7.65774 2.37974 5.60701 2.9096C5.54179 2.92647 5.48205 2.95996 5.43364 3.0068C5.38522 3.05365 5.34978 3.11225 5.33077 3.17688C5.16455 3.76636 4.85602 4.30596 4.43231 4.74821C4.04416 5.14343 3.56632 5.43908 3.03942 5.61005C2.95224 5.63913 2.87815 5.6981 2.83024 5.77652C2.78233 5.85495 2.76368 5.94779 2.7776 6.03863C3.12268 8.43146 3.8863 10.7449 5.03349 12.8729C5.06778 12.9323 5.11715 12.9816 5.1766 13.0158C5.23605 13.05 5.30348 13.0679 5.37207 13.0677C5.44042 13.0682 5.50766 13.0505 5.56688 13.0163C5.65655 12.965 5.72219 12.8803 5.74937 12.7806C5.77655 12.6809 5.76304 12.5746 5.71182 12.4849C4.65823 10.5342 3.94426 8.41854 3.60047 6.22837C4.12183 6.01138 4.5945 5.69225 4.99063 5.28978C5.45108 4.81268 5.79929 4.23886 6.00988 3.61013C7.79998 3.18173 9.66603 3.18294 11.4556 3.61364C11.5097 3.76715 11.5775 3.91871 11.6473 4.06911C11.6442 4.10495 11.6371 4.13963 11.6371 4.17547C11.6367 4.3293 11.6667 4.48168 11.7256 4.6238C11.7845 4.76592 11.8709 4.89495 11.98 5.00341C12.0346 5.0568 12.0719 5.12525 12.0873 5.20001C12.1028 5.27477 12.0955 5.35242 12.0665 5.42303C12.0435 5.47602 12.0217 5.52901 12.0007 5.582C11.9712 5.65245 11.9214 5.71252 11.8576 5.75451C11.7938 5.7965 11.719 5.81851 11.6426 5.81772C11.3328 5.81844 11.0359 5.94181 10.8169 6.16086C10.5978 6.37991 10.4745 6.67679 10.4737 6.98657V8.07205C10.4745 8.38183 10.5978 8.67871 10.8169 8.89776C11.0359 9.11681 11.3328 9.24019 11.6426 9.24091C11.7187 9.23998 11.7933 9.26171 11.857 9.30335C11.9207 9.34498 11.9706 9.40462 12.0003 9.47468C12.0217 9.52845 12.0435 9.58144 12.0661 9.63403C12.0952 9.70473 12.1025 9.78248 12.0872 9.85736C12.0718 9.93224 12.0345 10.0008 11.98 10.0544C11.7607 10.274 11.6376 10.5717 11.6376 10.882C11.6376 11.1923 11.7607 11.4899 11.98 11.7095L12.7444 12.474C12.9641 12.693 13.2617 12.8161 13.572 12.8161C13.8823 12.8161 14.1799 12.693 14.3995 12.474C14.4531 12.4195 14.5216 12.3822 14.5964 12.3668C14.6712 12.3514 14.7489 12.3586 14.8196 12.3875C14.8718 12.4105 14.9247 12.4323 14.9789 12.4533C15.049 12.4831 15.1087 12.533 15.1503 12.5968C15.1919 12.6605 15.2136 12.7352 15.2127 12.8114C15.2134 13.0311 15.2765 13.2461 15.3946 13.4313C13.9059 16.6476 11.8491 18.9163 9.27527 20.1771ZM22.5983 8.07205C22.5983 8.17538 22.5572 8.27449 22.4842 8.34755C22.4111 8.42062 22.312 8.46167 22.2087 8.46167C21.9761 8.46163 21.7488 8.53097 21.5558 8.66083C21.3629 8.79069 21.2131 8.97516 21.1255 9.19065C21.1076 9.23584 21.0893 9.28104 21.0702 9.32507C20.9776 9.53893 20.9519 9.77584 20.9966 10.0046C21.0412 10.2333 21.1541 10.4432 21.3203 10.6065C21.3935 10.68 21.4346 10.7795 21.4346 10.8832C21.4346 10.9868 21.3935 11.0863 21.3203 11.1598L20.5559 11.9242C20.5197 11.9607 20.4766 11.9897 20.4291 12.0095C20.3816 12.0293 20.3307 12.0395 20.2793 12.0395C20.2278 12.0395 20.1769 12.0293 20.1294 12.0095C20.082 11.9897 20.0389 11.9607 20.0027 11.9242C19.8388 11.7579 19.6284 11.6452 19.3993 11.6009C19.1701 11.5566 18.9329 11.5828 18.7189 11.676C18.6744 11.6955 18.6292 11.715 18.5844 11.7317C18.3681 11.8177 18.1827 11.9672 18.0529 12.1604C17.923 12.3536 17.8546 12.5817 17.8566 12.8145C17.8566 12.9178 17.8156 13.0169 17.7425 13.09C17.6694 13.1631 17.5703 13.2041 17.467 13.2041H16.3839C16.2805 13.2041 16.1814 13.1631 16.1084 13.09C16.0353 13.0169 15.9943 12.9178 15.9943 12.8145C15.9942 12.5822 15.925 12.3551 15.7954 12.1624C15.6657 11.9696 15.4816 11.8198 15.2664 11.7321C15.2212 11.7138 15.1764 11.6955 15.1312 11.676C14.9871 11.6131 14.8315 11.5806 14.6742 11.5806C14.5208 11.5811 14.369 11.6119 14.2276 11.6712C14.0861 11.7305 13.9577 11.8171 13.8498 11.9262C13.8136 11.9627 13.7705 11.9917 13.723 12.0114C13.6755 12.0312 13.6246 12.0414 13.5732 12.0414C13.5217 12.0414 13.4708 12.0312 13.4233 12.0114C13.3758 11.9917 13.3328 11.9627 13.2965 11.9262L12.5305 11.1613C12.494 11.1251 12.465 11.082 12.4453 11.0345C12.4255 10.9871 12.4153 10.9361 12.4153 10.8847C12.4153 10.8333 12.4255 10.7824 12.4453 10.7349C12.465 10.6874 12.494 10.6443 12.5305 10.6081C12.6968 10.4447 12.8097 10.2347 12.8543 10.0059C12.8989 9.77713 12.8733 9.54017 12.7807 9.32623C12.7612 9.28182 12.7417 9.23701 12.725 9.19182C12.6374 8.97647 12.4876 8.79212 12.2947 8.66234C12.1019 8.53256 11.8747 8.46323 11.6422 8.46323C11.5389 8.46323 11.4398 8.42218 11.3667 8.34911C11.2936 8.27604 11.2526 8.17694 11.2526 8.07361V6.99086C11.2526 6.88752 11.2936 6.78842 11.3667 6.71536C11.4398 6.64229 11.5389 6.60124 11.6422 6.60124C11.875 6.60116 12.1024 6.53158 12.2954 6.40143C12.4883 6.27128 12.6381 6.08648 12.7253 5.8707C12.7429 5.8259 12.7612 5.78109 12.7807 5.73628C12.8733 5.52235 12.8989 5.28539 12.8543 5.05659C12.8097 4.82779 12.6968 4.61786 12.5305 4.45444C12.4941 4.41823 12.4651 4.37516 12.4454 4.32771C12.4257 4.28027 12.4155 4.22939 12.4155 4.178C12.4155 4.12662 12.4257 4.07574 12.4454 4.02829C12.4651 3.98085 12.4941 3.93778 12.5305 3.90157L13.295 3.13714C13.3312 3.10062 13.3743 3.07163 13.4218 3.05185C13.4692 3.03207 13.5202 3.02189 13.5716 3.02189C13.623 3.02189 13.674 3.03207 13.7214 3.05185C13.7689 3.07163 13.812 3.10062 13.8482 3.13714C14.0118 3.30332 14.2218 3.41614 14.4506 3.46078C14.6795 3.50542 14.9165 3.4798 15.1305 3.38727C15.1749 3.36779 15.2201 3.34831 15.2649 3.33117C15.48 3.24351 15.6642 3.09373 15.7938 2.90094C15.9234 2.70816 15.9927 2.48112 15.9927 2.24881C15.9927 2.14547 16.0337 2.04637 16.1068 1.9733C16.1799 1.90024 16.279 1.85919 16.3823 1.85919H17.4639C17.5672 1.85919 17.6663 1.90024 17.7394 1.9733C17.8125 2.04637 17.8535 2.14547 17.8535 2.24881C17.8517 2.4821 17.9206 2.71047 18.0513 2.90377C18.1819 3.09708 18.3681 3.24623 18.5852 3.33156C18.6308 3.34948 18.676 3.36818 18.7212 3.38805C18.9352 3.48047 19.1721 3.50597 19.4008 3.46118C19.6295 3.4164 19.8393 3.30343 20.0027 3.13714C20.0761 3.06395 20.1756 3.02286 20.2793 3.02286C20.383 3.02286 20.4825 3.06395 20.5559 3.13714L21.3203 3.90196C21.3935 3.97542 21.4346 4.07489 21.4346 4.17859C21.4346 4.28228 21.3935 4.38175 21.3203 4.45522C21.156 4.61958 21.0443 4.82922 20.9997 5.05734C20.9551 5.28546 20.9795 5.52171 21.0698 5.7359C21.0893 5.7807 21.1088 5.8259 21.1259 5.87187C21.2136 6.08715 21.3634 6.27141 21.5562 6.40112C21.7491 6.53083 21.9763 6.6001 22.2087 6.60007C22.312 6.60007 22.4111 6.64112 22.4842 6.71419C22.5572 6.78725 22.5983 6.88636 22.5983 6.98969V8.07205Z" fill="#DAA7EE"/>
<path d="M19.5784 5.96135C19.4837 6.00265 19.4093 6.07986 19.3715 6.17601C19.3338 6.27216 19.3357 6.37938 19.377 6.47409C19.5957 6.97573 19.6552 7.5324 19.5474 8.06892C19.4397 8.60545 19.1699 9.09599 18.7745 9.4743C18.379 9.85261 17.8771 10.1005 17.3363 10.1844C16.7955 10.2684 16.242 10.1843 15.7505 9.94371C15.2591 9.70307 14.8532 9.31741 14.5879 8.8388C14.3226 8.36019 14.2105 7.81169 14.2668 7.26735C14.3231 6.72302 14.5451 6.20908 14.9028 5.79493C15.2605 5.38078 15.7367 5.08637 16.2671 4.95145C16.3179 4.94007 16.3659 4.91861 16.4083 4.88835C16.4506 4.8581 16.4865 4.81965 16.5138 4.77528C16.5411 4.73092 16.5592 4.68154 16.567 4.63006C16.5749 4.57858 16.5723 4.52605 16.5596 4.47557C16.5468 4.42509 16.524 4.37769 16.4926 4.33616C16.4611 4.29464 16.4217 4.25983 16.3766 4.2338C16.3315 4.20777 16.2816 4.19105 16.23 4.18462C16.1783 4.17819 16.1259 4.18219 16.0758 4.19637C15.3913 4.37068 14.7769 4.75078 14.3154 5.28536C13.8538 5.81995 13.5674 6.48328 13.4948 7.18579C13.4223 7.8883 13.567 8.59618 13.9094 9.21384C14.2519 9.8315 14.7756 10.3292 15.4099 10.6398C16.0443 10.9504 16.7586 11.0588 17.4565 10.9505C18.1544 10.8423 18.8023 10.5225 19.3127 10.0343C19.823 9.54613 20.1713 8.91312 20.3106 8.22072C20.4498 7.52832 20.3732 6.80988 20.0912 6.16239C20.0498 6.06777 19.9725 5.99344 19.8764 5.95575C19.7803 5.91805 19.6731 5.92006 19.5784 5.96135Z" fill="#DAA7EE"/>
<path d="M17.7193 4.98978C18.0439 5.09072 18.3461 5.25301 18.6095 5.46784C18.6899 5.5309 18.7919 5.55986 18.8934 5.54848C18.995 5.53709 19.088 5.48628 19.1524 5.40698C19.2168 5.32768 19.2475 5.22624 19.2379 5.12452C19.2283 5.0228 19.179 4.92893 19.1009 4.86315C18.7605 4.58566 18.37 4.37602 17.9507 4.24561C17.9018 4.23041 17.8505 4.22499 17.7995 4.22965C17.7485 4.23431 17.699 4.24896 17.6537 4.27276C17.6084 4.29657 17.5682 4.32906 17.5355 4.36839C17.5028 4.40772 17.4781 4.45311 17.4629 4.50198C17.4477 4.55084 17.4423 4.60222 17.4469 4.65318C17.4516 4.70413 17.4662 4.75368 17.49 4.79897C17.5139 4.84427 17.5464 4.88443 17.5857 4.91717C17.625 4.94991 17.6704 4.97458 17.7193 4.98978Z" fill="#DAA7EE"/>
</svg>
