<svg width="20" height="20" viewBox="0 0 20 20" fill="none" xmlns="http://www.w3.org/2000/svg">
<path d="M18.0119 11.0541V10.3914C18.1948 10.3914 18.3432 10.2431 18.3432 10.0601V8.07207C18.3432 7.88906 18.1948 7.74074 18.0119 7.74074H16.2227L16.1585 7.49185C16.012 6.92263 15.7845 6.37736 15.4825 5.87299L15.35 5.65128L16.6203 4.37876C16.7482 4.25063 16.7482 4.04303 16.6203 3.9149L15.2132 2.5057C15.0833 2.38184 14.8791 2.38184 14.7492 2.5057L13.4766 3.77835L13.255 3.64582C12.7498 3.34374 12.204 3.11621 11.634 2.96957L11.3853 2.90485V1.11411C11.3853 0.931102 11.237 0.78278 11.054 0.78278H9.06597C8.88296 0.78278 8.73463 0.931102 8.73463 1.11411V2.9033L8.48575 2.96763C7.91653 3.11401 7.37126 3.34154 6.86662 3.6431L6.64492 3.77576L5.37266 2.5057C5.24258 2.38081 5.03718 2.38081 4.90711 2.5057L3.4996 3.91283C3.43773 3.97456 3.40292 4.05843 3.40292 4.14579C3.40292 4.23328 3.43773 4.31702 3.4996 4.37876L4.77225 5.65128L4.63972 5.87299C4.33789 6.37736 4.11023 6.92263 3.96385 7.49185L3.89888 7.74074H2.10801C1.925 7.74074 1.77668 7.88906 1.77668 8.07207V10.0601C1.77668 10.2431 1.925 10.3914 2.10801 10.3914V11.0541C1.55911 11.0541 1.11401 10.609 1.11401 10.0601V8.07207C1.11401 7.52317 1.55911 7.07808 2.10801 7.07808H3.38998C3.52665 6.61991 3.71147 6.17753 3.94133 5.75844L3.03017 4.84728C2.8438 4.6613 2.73909 4.40892 2.73909 4.14579C2.73909 3.88267 2.8438 3.63029 3.03017 3.44443L4.43833 2.03627C4.83062 1.66081 5.44915 1.66081 5.84144 2.03627L6.75234 2.94705C7.17142 2.71731 7.61393 2.53288 8.07197 2.39634V1.11411C8.07197 0.565214 8.51707 0.120117 9.06597 0.120117H11.054C11.6029 0.120117 12.0479 0.565214 12.0479 1.11411V2.39634C12.5061 2.53288 12.9484 2.7177 13.3676 2.94743L14.2787 2.03627C14.6712 1.66081 15.2896 1.66081 15.682 2.03627L17.0899 3.44404C17.2761 3.63003 17.3807 3.88215 17.3807 4.1454C17.3807 4.40866 17.2761 4.66104 17.0899 4.8469L16.1787 5.75806C16.4085 6.1774 16.5931 6.61991 16.7299 7.07808H18.0119C18.5608 7.07808 19.0059 7.52317 19.0059 8.07207V10.0601C19.0059 10.609 18.5608 11.0541 18.0119 11.0541Z" fill="#DAA7EE"/>
<path d="M14.6982 9.06589H14.0355C14.0355 6.87004 12.2554 5.08991 10.0595 5.08991C7.86369 5.08991 6.08356 6.87004 6.08356 9.06589H5.4209C5.4209 6.50402 7.49767 4.42725 10.0595 4.42725C12.6213 4.42725 14.6982 6.50402 14.6982 9.06589Z" fill="#DAA7EE"/>
<path d="M10.0598 11.7167C8.96184 11.7167 8.07178 10.8265 8.07178 9.72871C8.07178 8.63079 8.96184 7.74072 10.0598 7.74072C11.1578 7.74072 12.0478 8.63079 12.0478 9.72871C12.0466 10.8262 11.1573 11.7155 10.0598 11.7167ZM10.0598 8.40339C9.32786 8.40339 8.73444 8.99681 8.73444 9.72871C8.73444 10.4606 9.32786 11.054 10.0598 11.054C10.7917 11.054 11.3851 10.4606 11.3851 9.72871C11.3851 8.99681 10.7917 8.40339 10.0598 8.40339Z" fill="#DAA7EE"/>
<path d="M15.6926 13.0424C14.5947 13.0424 13.7046 12.1522 13.7046 11.0544C13.7046 9.95647 14.5947 9.06641 15.6926 9.06641C16.7905 9.06641 17.6806 9.95647 17.6806 11.0544C17.6794 12.1519 16.7901 13.0412 15.6926 13.0424ZM15.6926 9.72907C14.9607 9.72907 14.3673 10.3225 14.3673 11.0544C14.3673 11.7863 14.9607 12.3797 15.6926 12.3797C16.4245 12.3797 17.0179 11.7863 17.0179 11.0544C17.0179 10.3225 16.4245 9.72907 15.6926 9.72907Z" fill="#DAA7EE"/>
<path d="M4.42695 13.0424C3.32903 13.0424 2.43896 12.1522 2.43896 11.0544C2.43896 9.95647 3.32903 9.06641 4.42695 9.06641C5.52501 9.06641 6.41494 9.95647 6.41494 11.0544C6.41378 12.1519 5.52449 13.0412 4.42695 13.0424ZM4.42695 9.72907C3.69505 9.72907 3.10163 10.3225 3.10163 11.0544C3.10163 11.7863 3.69505 12.3797 4.42695 12.3797C5.15886 12.3797 5.75228 11.7863 5.75228 11.0544C5.75228 10.3225 5.15886 9.72907 4.42695 9.72907Z" fill="#DAA7EE"/>
<path d="M18.6964 13.8919C18.2027 13.5526 17.6173 13.3715 17.018 13.3732H14.3674C14.2062 13.3746 14.0454 13.3892 13.8865 13.4168C13.6745 13.0852 13.3987 12.7992 13.0752 12.5749C13.0266 12.5383 12.9756 12.505 12.9225 12.4756C12.459 12.1949 11.9272 12.0471 11.3854 12.0479H8.73473C7.72145 12.0442 6.77729 12.5613 6.23448 13.4168C6.07528 13.3892 5.91415 13.3746 5.75275 13.3732H3.1021C2.50337 13.3715 1.91811 13.5523 1.42461 13.8913C0.60896 14.4463 0.120635 15.3687 0.120117 16.3552V17.6805C0.121282 18.5852 0.647659 19.4068 1.46939 19.7858C1.77276 19.9286 2.10422 20.0018 2.43944 19.9998H5.75275V19.3372H2.77077V15.6925H2.10811V19.3039C1.98334 19.2789 1.8622 19.2385 1.74726 19.184C1.16032 18.9134 0.784074 18.3267 0.78278 17.6805V16.3552C0.783557 15.5874 1.16394 14.8698 1.79865 14.438C2.18214 14.1747 2.63681 14.0346 3.1021 14.0359H5.75275C5.81112 14.0359 5.86742 14.0421 5.92437 14.046C5.81229 14.362 5.75417 14.6946 5.75275 15.0299V18.3432C5.75392 19.2577 6.49501 19.9987 7.40941 19.9998H8.4034V14.6985H7.74074V19.3372H7.40941C6.86051 19.3372 6.41541 18.8921 6.41541 18.3432V15.0299C6.41541 13.7488 7.45393 12.7105 8.73473 12.7105H11.3854C11.8117 12.7108 12.2295 12.8288 12.5931 13.0514C12.6267 13.0698 12.6591 13.0905 12.6897 13.1133C13.0002 13.326 13.2551 13.61 13.4326 13.9416C13.6111 14.2766 13.7047 14.6502 13.7047 15.0299V18.3432C13.7047 18.8921 13.2596 19.3372 12.7107 19.3372H12.3794V14.6985H11.7167V19.9998H12.7107C13.6252 19.9987 14.3662 19.2577 14.3674 18.3432V15.0299C14.3658 14.6946 14.308 14.3621 14.196 14.046C14.2531 14.0421 14.3094 14.0359 14.3674 14.0359H17.018C17.4836 14.0346 17.9386 14.1751 18.3224 14.4386C18.9566 14.8707 19.3364 15.5878 19.3373 16.3552V17.6805C19.3362 18.3291 18.9571 18.9174 18.3673 19.1866C18.254 19.2402 18.1347 19.2796 18.012 19.3039V15.6925H17.3493V19.3372H14.3674V19.9998H17.6807C18.014 20.0019 18.3435 19.9297 18.6452 19.7883C19.4696 19.4105 19.9987 18.5874 20 17.6805V16.3552C19.9995 15.3691 19.5115 14.447 18.6964 13.8919Z" fill="#DAA7EE"/>
<path d="M8.73462 19.3374H11.3853V20.0001H8.73462V19.3374Z" fill="#DAA7EE"/>
</svg>
