<svg width="41" height="41" viewBox="0 0 41 41" fill="none" xmlns="http://www.w3.org/2000/svg">
<g clip-path="url(#clip0_1510_3022)">
<path d="M14.2332 25.8248H19.9979L21.5557 30.9912H26.4493L20.2033 10.8452H14.2333L8.06641 30.9912H12.7899L14.2332 25.8248ZM17.0056 14.2484H17.0642C17.3605 15.4542 19.3438 22.4099 19.3438 22.4099H14.8845C14.8845 22.4099 16.7062 15.4542 17.0056 14.2484Z" fill="#DAA7EE"/>
<path d="M32.7805 16.3809H28.2305V30.9909H32.7805V16.3809Z" fill="#DAA7EE"/>
<path d="M30.4796 14.5825C31.9817 14.5825 32.9321 13.5615 32.9321 12.3119C32.8971 10.9946 31.9817 10.0088 30.5148 10.0088C29.048 10.0088 28.0857 10.9945 28.118 12.3119C28.0857 13.5615 29.048 14.5825 30.4796 14.5825Z" fill="#DAA7EE"/>
<path d="M0 0V41H41V0H0ZM38.4639 38.4639H2.53608V2.53608H38.4639V38.4639Z" fill="#DAA7EE"/>
</g>
<defs>
<clipPath id="clip0_1510_3022">
<rect width="41" height="41" fill="white"/>
</clipPath>
</defs>
</svg>
