<svg width="38" height="38" viewBox="0 0 38 38" fill="none" xmlns="http://www.w3.org/2000/svg">
<path d="M29.0232 16.7474C30.2133 8.77757 24.7172 1.35207 16.7474 0.161973C8.77757 -1.02812 1.35207 4.46799 0.161973 12.4378C-1.02812 20.4076 4.46799 27.8332 12.4378 29.0232C13.8664 29.2365 15.3188 29.2365 16.7474 29.0232C17.6973 34.8531 23.1934 38.809 29.0232 37.8592C34.8531 36.9093 38.809 31.4132 37.8592 25.5833C37.1197 21.0447 33.5618 17.4869 29.0232 16.7474ZM14.7033 27.926C7.34767 27.9804 1.34064 22.0615 1.28624 14.7059C1.23183 7.3502 7.1507 1.34316 14.5064 1.28876C21.862 1.23436 27.8691 7.15322 27.9235 14.5089C27.9287 15.215 27.8777 15.9204 27.7712 16.6183C27.6119 16.6114 27.4564 16.5944 27.294 16.5944C27.0271 16.5944 26.7659 16.6152 26.504 16.6347C27.5838 10.1029 23.1641 3.93235 16.6323 2.85247C10.1004 1.77259 3.92991 6.19231 2.85002 12.7241C1.77014 19.256 6.18986 25.4265 12.7217 26.5064C14.0164 26.7204 15.3375 26.7204 16.6323 26.5064C16.6128 26.7683 16.592 27.0296 16.592 27.2965C16.592 27.4576 16.609 27.6143 16.6159 27.7736C15.9829 27.8705 15.3437 27.9215 14.7033 27.926ZM16.8016 25.1944C16.3173 25.2943 15.8265 25.3596 15.3329 25.3896V24.1488C15.3329 23.8011 15.051 23.5192 14.7033 23.5192C14.3557 23.5192 14.0738 23.8011 14.0738 24.1488V25.3758C11.6768 25.2373 9.39715 24.2922 7.60536 22.6939L8.47097 21.8277C8.7064 21.5719 8.68992 21.1736 8.43409 20.9382C8.1931 20.7165 7.82238 20.7165 7.58146 20.9382L6.71526 21.8044C5.11696 20.0125 4.17178 17.7326 4.03344 15.3354H5.26042C5.60814 15.3354 5.88995 15.0535 5.88995 14.7059C5.88995 14.3581 5.60806 14.0763 5.26042 14.0763H4.03344C4.17186 11.6794 5.11703 9.39967 6.71526 7.60788L7.58146 8.4735C7.8373 8.70892 8.23555 8.69244 8.47097 8.43661C8.69274 8.19562 8.69274 7.8249 8.47097 7.58399L7.60477 6.71778C9.3967 5.11948 11.6766 4.17431 14.0738 4.03596V5.26287C14.0738 5.61059 14.3557 5.8924 14.7033 5.8924C15.051 5.8924 15.3329 5.61051 15.3329 5.26287V4.03596C17.7298 4.17438 20.0095 5.11956 21.8013 6.71778L20.9357 7.58399C20.6799 7.81941 20.6634 8.21767 20.8988 8.4735C21.1342 8.72933 21.5325 8.74581 21.7883 8.51038C21.8011 8.49858 21.8134 8.48626 21.8252 8.4735L22.6914 7.60729C24.2897 9.39923 25.2349 11.6791 25.3732 14.0763H24.1462C23.7985 14.0763 23.5167 14.3582 23.5167 14.7059C23.5167 15.0536 23.7986 15.3354 24.1462 15.3354H25.387C25.357 15.8289 25.2918 16.3197 25.1919 16.8041C20.9624 17.6592 17.6567 20.9649 16.8016 25.1944ZM27.2939 36.7394C22.0787 36.7394 17.851 32.5117 17.851 27.2965C17.851 22.0813 22.0787 17.8535 27.2939 17.8535C32.5091 17.8535 36.7369 22.0813 36.7369 27.2965C36.731 32.5092 32.5067 36.7335 27.2939 36.7394Z" fill="#DAA7EE"/>
<path d="M18.6794 15.3681L15.3328 14.2519V7.78101C15.3328 7.4333 15.0509 7.15149 14.7033 7.15149C14.3556 7.15149 14.0737 7.43337 14.0737 7.78101V14.7058C14.074 14.9767 14.2473 15.2171 14.5043 15.3026L18.2816 16.5617C18.6118 16.6715 18.9687 16.4929 19.0785 16.1625C19.1884 15.8323 19.0097 15.4754 18.6794 15.3656V15.3681Z" fill="#DAA7EE"/>
<path d="M31.885 21.8152L21.8125 31.8877C21.5625 32.1293 21.5556 32.5277 21.7971 32.7779C22.0387 33.0279 22.4371 33.0348 22.6872 32.7933C22.6924 32.7882 22.6976 32.7831 22.7027 32.7779L32.7752 22.7053C33.0168 22.4553 33.0099 22.0567 32.7598 21.8152C32.5157 21.5795 32.129 21.5795 31.885 21.8152Z" fill="#DAA7EE"/>
<path d="M24.1463 26.6669C25.537 26.6669 26.6644 25.5395 26.6644 24.1488C26.6644 22.7581 25.537 21.6307 24.1463 21.6307C22.7556 21.6307 21.6282 22.7581 21.6282 24.1488C21.6282 25.5395 22.7556 26.6669 24.1463 26.6669ZM24.1463 22.8897C24.8416 22.8897 25.4053 23.4534 25.4053 24.1488C25.4053 24.8441 24.8416 25.4078 24.1463 25.4078C23.4509 25.4078 22.8872 24.8441 22.8872 24.1488C22.8872 23.4534 23.4509 22.8897 24.1463 22.8897Z" fill="#DAA7EE"/>
<path d="M30.4414 27.926C29.0507 27.926 27.9233 29.0534 27.9233 30.4441C27.9233 31.8348 29.0507 32.9622 30.4414 32.9622C31.8321 32.9622 32.9595 31.8348 32.9595 30.4441C32.9596 29.0534 31.8321 27.926 30.4414 27.926ZM30.4414 31.7032C29.7461 31.7032 29.1824 31.1395 29.1824 30.4441C29.1824 29.7488 29.7461 29.1851 30.4414 29.1851C31.1368 29.1851 31.7005 29.7488 31.7005 30.4441C31.7005 31.1395 31.1368 31.7032 30.4414 31.7032Z" fill="#DAA7EE"/>
</svg>
