<svg width="41" height="35" viewBox="0 0 41 35" fill="none" xmlns="http://www.w3.org/2000/svg">
<path d="M35.3052 24.3562H5.37365L4.6123 23.5949V5.7838C4.6123 4.62988 5.54911 3.69116 6.70048 3.69116H13.0393V5.21385H6.70048C6.38863 5.21385 6.13499 5.46961 6.13499 5.7838V22.8335H34.5439V5.7838C34.5439 5.46961 34.2903 5.21385 33.9784 5.21385H27.6396V3.69116H33.9784C35.1298 3.69116 36.0666 4.62988 36.0666 5.7838V23.5949L35.3052 24.3562Z" fill="#DAA7EE"/>
<path d="M38.549 34.6905H2.12981C1.37526 34.6905 0.693151 34.3041 0.305257 33.6568C-0.0826373 33.0098 -0.101968 32.2261 0.253637 31.5608L4.7021 23.2353L5.37359 22.8328H35.3052L35.9767 23.2353L40.4251 31.5608C40.7807 32.2261 40.7614 33.0098 40.3735 33.6568C39.9856 34.3041 39.3035 34.6905 38.549 34.6905ZM5.8301 24.3554L1.59661 32.2784C1.45088 32.5509 1.55837 32.7857 1.61127 32.874C1.66416 32.9624 1.82072 33.1678 2.12981 33.1678H38.549C38.8581 33.1678 39.0146 32.9624 39.0675 32.874C39.1204 32.7857 39.2279 32.5509 39.0822 32.2784L34.8487 24.3554H5.8301Z" fill="#DAA7EE"/>
<path d="M26.5594 34.6902H14.1192L13.3853 33.7266L14.5326 29.5622C14.7858 28.6424 15.6291 28 16.5834 28H24.0953C25.0495 28 25.8928 28.6424 26.146 29.5624L27.2934 33.7266L26.5594 34.6902ZM15.1187 33.1675H25.56L24.6782 29.9667C24.6062 29.7052 24.3665 29.5227 24.0953 29.5227H16.5834C16.3121 29.5227 16.0725 29.7052 16.0005 29.9665L15.1187 33.1675Z" fill="#DAA7EE"/>
<path d="M20.3395 20.999C14.6354 20.999 9.99487 16.3583 9.99487 10.6542C9.99487 4.95007 14.6354 0.30957 20.3395 0.30957C26.0436 0.30957 30.6841 4.95007 30.6841 10.6542C30.6841 16.3583 26.0436 20.999 20.3395 20.999ZM20.3395 1.83226C15.4751 1.83226 11.5176 5.7898 11.5176 10.6542C11.5176 15.5188 15.4751 19.4764 20.3395 19.4764C25.2039 19.4764 29.1614 15.5188 29.1614 10.6542C29.1614 5.7898 25.2039 1.83226 20.3395 1.83226Z" fill="#DAA7EE"/>
<path d="M21.1828 15.6239C21.0481 15.6239 20.9128 15.6143 20.7771 15.5946L17.7823 15.1606L18.0006 13.6536L20.9954 14.0876C21.3302 14.1354 21.6633 14.0513 21.934 13.8493C22.2046 13.6472 22.3803 13.3518 22.4287 13.0172C22.4771 12.6828 22.3926 12.3495 22.1904 12.0787C21.9883 11.808 21.6929 11.6324 21.3583 11.5839L19.094 11.2302C18.3654 11.1247 17.7141 10.7372 17.2686 10.1407C16.8229 9.54398 16.6364 8.80961 16.7433 8.07291C16.8499 7.336 17.2374 6.68469 17.8339 6.23923C18.4308 5.79355 19.1643 5.60725 19.9019 5.71389L22.8967 6.14788L22.6783 7.65485L19.6835 7.22086C19.3474 7.172 19.0154 7.25676 18.745 7.4592C18.4743 7.66122 18.2987 7.95671 18.2502 8.29129C18.2018 8.62565 18.2863 8.95895 18.4886 9.22958C18.6908 9.50022 18.9863 9.67611 19.3207 9.72454L21.5849 10.0782C22.3136 10.1836 22.9649 10.5711 23.4103 11.1676C23.856 11.7643 24.0425 12.4986 23.9357 13.2356C23.829 13.9725 23.4416 14.6238 22.8451 15.0692C22.3582 15.4329 21.7797 15.6239 21.1828 15.6239Z" fill="#DAA7EE"/>
<path d="M19.5779 4.54565H21.1006V6.52564H19.5779V4.54565Z" fill="#DAA7EE"/>
<path d="M19.5779 14.8157H21.1006V16.7635H19.5779V14.8157Z" fill="#DAA7EE"/>
</svg>
