<svg width="38" height="37" viewBox="0 0 38 37" fill="none" xmlns="http://www.w3.org/2000/svg">
<path d="M22.0552 11.9368C22.0318 11.7369 21.8988 11.5784 21.7358 11.4705C21.7358 11.4705 11.3695 5.48593 11.3695 5.48593C11.1861 5.40592 10.9708 5.36696 10.7823 5.45834C10.6949 5.45242 0.41585 11.4426 0.334223 11.4705C0.279175 11.5175 0.216308 11.5584 0.169279 11.6161C0.0563793 11.7321 0.0187396 11.8932 6.69703e-06 12.0498C9.08261e-09 12.0498 0 24.0202 0 24.0202C0 24.2592 0.127359 24.48 0.334397 24.5995L10.7007 30.584C10.806 30.6307 10.9189 30.674 11.0351 30.6735C11.1514 30.6739 11.2642 30.6307 11.3695 30.584L21.7358 24.5995C22.4888 24.1543 21.8282 23.0084 21.067 23.4409C21.067 23.4408 11.7039 28.8466 11.7039 28.8466V18.4212C13.9451 17.125 18.5047 14.4962 20.7326 13.2083C20.7326 13.2083 20.7326 20.6762 20.7326 20.6762C20.7326 21.0458 21.0318 21.345 21.4014 21.345C21.7711 21.345 22.0702 21.0458 22.0702 20.6762V12.0498C22.066 12.0119 22.0611 11.9748 22.0552 11.9368ZM16.2183 14.27L7.19006 9.05739L11.0351 6.8376L20.0638 12.0497L16.2183 14.27ZM11.0351 17.2626L2.00662 12.0498L5.85219 9.82975L14.8805 15.0424L11.0351 17.2626ZM1.33758 13.2083L10.3663 18.4212V28.8466L1.33758 23.6342V13.2083Z" fill="#DAA7EE"/>
<path d="M30.0973 3.32137H32.1986C33.0008 6.32219 37.4143 5.77469 37.454 2.6525C37.4139 -0.467696 33.0013 -1.01745 32.1986 1.98386L30.0973 1.98378C28.9909 1.98378 28.0909 2.88378 28.0909 3.99017V17.3661H24.7469C24.3773 17.3661 24.0781 17.6652 24.0781 18.0349C24.0781 18.4045 24.3773 18.7036 24.7469 18.7036H28.0909V32.0795C28.0909 33.1859 28.9909 34.0859 30.0973 34.0859H32.1986C32.9938 37.0727 37.4123 36.5525 37.454 33.417C37.4082 30.2803 32.9977 29.7596 32.1986 32.7484L30.0973 32.7483C29.7283 32.7483 29.4285 32.4486 29.4285 32.0795V18.7036H32.1986C32.4976 19.8543 33.5357 20.71 34.7788 20.71C38.3124 20.5989 38.3152 15.4716 34.7788 15.3597C33.5357 15.3597 32.4976 16.2154 32.1986 17.3661H29.4285V3.99017C29.4285 3.62115 29.7283 3.32137 30.0973 3.32137ZM34.7788 1.31499C36.5425 1.36147 36.5422 3.94395 34.7788 3.99017C33.0151 3.94369 33.0155 1.36121 34.7788 1.31499ZM34.7788 32.0795C36.5425 32.126 36.5422 34.7085 34.7788 34.7547C33.0151 34.7082 33.0155 32.1258 34.7788 32.0795ZM34.7788 16.6973C36.5425 16.7437 36.5422 19.3262 34.7788 19.3724C33.0151 19.326 33.0155 16.7435 34.7788 16.6973Z" fill="#DAA7EE"/>
</svg>
