<svg width="36" height="30" viewBox="0 0 36 30" fill="none" xmlns="http://www.w3.org/2000/svg">
<path d="M34.8908 29.9995H27.6012C26.9886 29.9995 26.4922 29.5031 26.4922 28.8905C26.4922 28.2779 26.9886 27.7816 27.6012 27.7816H33.7818V21.6009C33.7818 20.9883 34.2782 20.4919 34.8908 20.4919C35.5034 20.4919 35.9998 20.9883 35.9998 21.6009V28.8905C35.9998 29.5031 35.5034 29.9995 34.8908 29.9995Z" fill="#DAA7EE"/>
<path d="M8.39859 29.9995H1.10898C0.496371 29.9995 0 29.5031 0 28.8905V21.6009C0 20.9883 0.496371 20.4919 1.10898 20.4919C1.72159 20.4919 2.21796 20.9883 2.21796 21.6009V27.7816H8.39859C9.0112 27.7816 9.50757 28.2779 9.50757 28.8905C9.50757 29.5031 9.0112 29.9995 8.39859 29.9995Z" fill="#DAA7EE"/>
<path d="M34.8908 9.50757C34.2782 9.50757 33.7818 9.0112 33.7818 8.39859V2.21796H27.6012C26.9886 2.21796 26.4922 1.72159 26.4922 1.10898C26.4922 0.49637 26.9886 0 27.6012 0H34.8908C35.5034 0 35.9998 0.496371 35.9998 1.10898V8.39859C35.9998 9.0112 35.5034 9.50757 34.8908 9.50757Z" fill="#DAA7EE"/>
<path d="M1.10898 9.50757C0.496371 9.50757 0 9.0112 0 8.39859V1.10898C0 0.496371 0.496371 0 1.10898 0H8.39859C9.0112 0 9.50757 0.496371 9.50757 1.10898C9.50757 1.72159 9.0112 2.21796 8.39859 2.21796H2.21796V8.39859C2.21796 9.0112 1.72159 9.50757 1.10898 9.50757Z" fill="#DAA7EE"/>
<path d="M18.0043 21.7844C16.9631 21.7849 16.1192 20.9415 16.1193 19.9007L16.1195 16.8923L13.096 16.8936C12.0548 16.8941 11.2109 16.0507 11.2109 15.0099C11.211 13.9691 12.0551 13.1248 13.0963 13.1243L16.1198 13.123L16.12 10.1005C16.1201 9.05964 16.9642 8.21554 18.0054 8.21509C19.0465 8.21464 19.8905 9.05802 19.8904 10.0988L19.8902 13.1214L22.8996 13.1201C23.9408 13.1197 24.7848 13.963 24.7847 15.0039C24.7846 16.0447 23.9405 16.8889 22.8993 16.8894L19.8899 16.8907L19.8896 19.899C19.8896 20.9399 19.0455 21.784 18.0043 21.7844Z" fill="#DAA7EE"/>
</svg>
