<svg width="39" height="40" viewBox="0 0 39 40" fill="none" xmlns="http://www.w3.org/2000/svg">
<path d="M15.638 31.5123C15.9809 31.5123 16.2589 31.2343 16.2589 30.8914C16.2589 30.5485 15.9809 30.2705 15.638 30.2705C15.2951 30.2705 15.0171 30.5485 15.0171 30.8914C15.0171 31.2343 15.2951 31.5123 15.638 31.5123Z" fill="#DAA7EE"/>
<path d="M37.3033 16.8934H31.2848V15.8791C31.8811 15.7254 32.459 15.5041 33.0061 15.1967L34.2971 15.9775C34.4508 16.0697 34.623 16.1189 34.7951 16.1189C35.041 16.1189 35.2869 16.0205 35.4713 15.8361L36.3443 14.9631C36.6578 14.6496 36.7131 14.1701 36.4857 13.7889L35.7049 12.498C35.9816 12 36.2029 11.4775 36.3566 10.9303L37.8197 10.5676C38.25 10.4631 38.5451 10.0758 38.5451 9.63934V8.40369C38.5451 7.96107 38.2439 7.57992 37.8197 7.47541L36.3566 7.1127C36.2029 6.56557 35.9877 6.04303 35.7049 5.54508L36.4857 4.2541C36.7131 3.87295 36.6578 3.39344 36.3443 3.07992L35.4713 2.20082C35.1578 1.8873 34.6783 1.83197 34.2971 2.05943L33.0061 2.84016C32.5082 2.56352 31.9857 2.34221 31.4385 2.18852L31.0758 0.72541C30.9713 0.295082 30.5902 0 30.1475 0H28.9057C28.4631 0 28.082 0.30123 27.9775 0.72541L27.6148 2.18852C27.0676 2.34221 26.5451 2.55738 26.0471 2.84016L24.7561 2.05943C24.3811 1.83197 23.8955 1.8873 23.582 2.20082L22.709 3.07377C22.3955 3.3873 22.334 3.8668 22.5676 4.24795L23.3484 5.53893C23.0656 6.03689 22.8504 6.55943 22.6967 7.10656L21.2336 7.46926C20.8033 7.57377 20.5082 7.95492 20.5082 8.39754V9.6332C20.5082 9.66393 20.5205 9.68852 20.5205 9.71311H1.69672C0.762295 9.71311 0 10.4754 0 11.4098V32.3053C0 33.2398 0.762295 34.002 1.69672 34.002H10.6598V35.6434H8.58811C7.65369 35.6434 6.89139 36.4057 6.89139 37.3402V38.5758C6.89139 38.8279 7.10041 39.0369 7.35246 39.0369H37.3033C38.2377 39.0369 39 38.2746 39 37.3402V18.5902C39 17.6557 38.2377 16.8934 37.3033 16.8934ZM29.5881 9.71926H26.4959C26.4406 9.48565 26.4037 9.25205 26.4037 9.01844C26.4037 7.29713 27.8053 5.89549 29.5266 5.89549C31.248 5.89549 32.6496 7.29713 32.6496 9.01844C32.6496 10.0697 32.127 11.0164 31.2848 11.5881V11.416C31.2848 10.4816 30.5225 9.71926 29.5881 9.71926ZM21.4549 8.3668L23.1824 7.94262C23.3484 7.89959 23.4836 7.77049 23.5205 7.59836C23.6742 6.95902 23.9262 6.34426 24.2766 5.78484C24.3689 5.63729 24.3689 5.45287 24.2766 5.30533L23.3607 3.7377L24.2828 2.85861L25.8074 3.78074C25.9549 3.87295 26.1393 3.87295 26.2869 3.78074C26.8525 3.43033 27.4611 3.17828 28.1004 3.02459C28.2664 2.9877 28.4016 2.85246 28.4447 2.68648L28.9057 0.928279L30.1783 0.952869L30.6025 2.68033C30.6455 2.84631 30.7746 2.98156 30.9467 3.01844C31.5861 3.17213 32.2008 3.42418 32.7602 3.77459C32.9078 3.8668 33.0922 3.8668 33.2398 3.77459L34.8074 2.85861L35.6865 3.78074L34.7643 5.30533C34.6721 5.45287 34.6783 5.63729 34.7643 5.78484C35.1148 6.35041 35.3668 6.95902 35.5205 7.59836C35.5574 7.76434 35.6926 7.89959 35.8586 7.94262L37.6168 8.40369L37.5922 9.67623L35.8648 10.1004C35.6988 10.1434 35.5635 10.2725 35.5266 10.4447C35.373 11.084 35.1209 11.6988 34.7705 12.2582C34.6783 12.4057 34.6783 12.5902 34.7705 12.7377L35.6865 14.3053L34.7643 15.1844L33.2398 14.2623C33.0922 14.1701 32.9078 14.1762 32.7602 14.2623C32.293 14.5512 31.8012 14.7664 31.2787 14.9201V12.6393C32.6742 11.9631 33.5656 10.5799 33.5656 9.01229C33.5656 6.78074 31.752 4.96721 29.5205 4.96721C27.2889 4.96721 25.4754 6.78074 25.4754 9.01229C25.4754 9.2459 25.5 9.47951 25.543 9.71311H21.5902C21.541 9.67623 21.4857 9.64549 21.4242 9.6332L21.4549 8.3668ZM1.69672 33.0799C1.27254 33.0799 0.922131 32.7295 0.922131 32.3053V28.7029H17.5451V33.0799H1.69672ZM17.5451 34.002V35.6434H11.582V34.002H17.5451ZM7.81352 38.1148V37.3402C7.81352 36.916 8.16393 36.5656 8.58811 36.5656H17.5512V37.3402C17.5512 37.623 17.625 37.8811 17.7479 38.1148H7.81352ZM17.5451 18.5902V27.7746H0.922131V11.416C0.922131 10.9857 1.27254 10.6414 1.69672 10.6414H29.5881C30.0123 10.6414 30.3627 10.9918 30.3627 11.416V16.8934H19.2418C18.3074 16.8934 17.5451 17.6557 17.5451 18.5902ZM38.0779 37.3402C38.0779 37.7643 37.7275 38.1148 37.3033 38.1148H19.2418C18.8176 38.1148 18.4672 37.7643 18.4672 37.3402V21.8975H38.0779V37.3402ZM38.0779 20.9754H18.4672V18.5963C18.4672 18.166 18.8176 17.8217 19.2418 17.8217H37.3033C37.7336 17.8217 38.0779 18.1721 38.0779 18.5963V20.9754Z" fill="#DAA7EE"/>
<path d="M20.4772 33.9343H26.4034C26.6555 33.9343 26.8645 33.7253 26.8645 33.4733C26.8645 33.2212 26.6555 33.0122 26.4034 33.0122H20.4772C20.2251 33.0122 20.0161 33.2212 20.0161 33.4733C20.0161 33.7253 20.2251 33.9343 20.4772 33.9343Z" fill="#DAA7EE"/>
<path d="M20.4772 36.5657H23.3112C23.5632 36.5657 23.7723 36.3567 23.7723 36.1046C23.7723 35.8526 23.5632 35.6436 23.3112 35.6436H20.4772C20.2251 35.6436 20.0161 35.8526 20.0161 36.1046C20.0161 36.3567 20.2251 36.5657 20.4772 36.5657Z" fill="#DAA7EE"/>
<path d="M36.0682 33.0122H30.142C29.8899 33.0122 29.6809 33.2212 29.6809 33.4733C29.6809 33.7253 29.8899 33.9343 30.142 33.9343H36.0682C36.3203 33.9343 36.5293 33.7253 36.5293 33.4733C36.5293 33.2212 36.3203 33.0122 36.0682 33.0122Z" fill="#DAA7EE"/>
<path d="M32.976 35.6436H30.142C29.8899 35.6436 29.6809 35.8526 29.6809 36.1046C29.6809 36.3567 29.8899 36.5657 30.142 36.5657H32.976C33.228 36.5657 33.4371 36.3567 33.4371 36.1046C33.4371 35.8526 33.228 35.6436 32.976 35.6436Z" fill="#DAA7EE"/>
<path d="M20.0335 30.9285C20.0396 30.9593 20.0397 30.9962 20.0519 31.0207V31.0269C20.0765 31.0761 20.1073 31.1191 20.138 31.156C20.1503 31.1683 20.1565 31.1744 20.1687 31.1806C20.1995 31.2052 20.2302 31.2298 20.2671 31.2482C20.2794 31.2544 20.2978 31.2605 20.3101 31.2666C20.3593 31.2851 20.4147 31.2974 20.47 31.2974H36.0601C36.1155 31.2974 36.1708 31.2851 36.22 31.2666C36.2323 31.2605 36.2507 31.2544 36.263 31.2482C36.2999 31.2298 36.3306 31.2052 36.3614 31.1806C36.3737 31.1683 36.386 31.1621 36.3921 31.156C36.429 31.1191 36.4597 31.0761 36.4782 31.0269C36.4782 31.0269 36.4782 31.0269 36.4782 31.0207C36.4905 30.9962 36.4905 30.9654 36.4966 30.9408C36.5028 30.9101 36.5151 30.8794 36.5151 30.8425C36.5151 30.8425 36.5151 30.8425 36.5151 30.8363V23.908C36.5151 23.908 36.5151 23.908 36.5151 23.9019C36.5151 23.8712 36.5028 23.8404 36.4966 23.8035C36.4905 23.7789 36.4905 23.7482 36.4782 23.7236C36.4782 23.7236 36.4782 23.7236 36.4782 23.7175C36.472 23.699 36.4536 23.6867 36.4413 23.6683C36.4228 23.6376 36.4044 23.6007 36.3737 23.5761C36.3552 23.5576 36.3306 23.5453 36.306 23.533C36.2815 23.5146 36.2507 23.4962 36.22 23.4839C36.1892 23.4716 36.1524 23.4716 36.1216 23.4654C36.097 23.4593 36.0786 23.4531 36.0478 23.4531H20.4761C20.4515 23.4531 20.4331 23.4654 20.4085 23.4654C20.3716 23.4716 20.3347 23.4716 20.304 23.4839C20.2733 23.4962 20.2548 23.5146 20.2302 23.533C20.2056 23.5515 20.181 23.5638 20.1565 23.5822C20.1257 23.6068 20.1073 23.6437 20.0888 23.6806C20.0765 23.699 20.0642 23.7113 20.0581 23.7298V23.7359C20.0458 23.7666 20.0458 23.7974 20.0397 23.8281C20.0335 23.8589 20.0212 23.8835 20.0212 23.9142V23.9203V30.8548V30.8609C20.0151 30.8732 20.0274 30.9039 20.0335 30.9285ZM22.6462 30.3814L28.2712 27.8794L33.8962 30.3814H22.6462ZM35.6052 30.1294L29.4085 27.3691L35.6052 24.6089V30.1294ZM33.8962 24.3691L28.2712 26.8712L22.6462 24.3691H33.8962ZM20.9372 24.615L27.1339 27.3753L20.9372 30.1355V24.615Z" fill="#DAA7EE"/>
<path d="M20.6436 18.7744C20.2993 18.7744 20.0227 19.0511 20.0227 19.3892C20.0227 19.7334 20.2993 20.0101 20.6436 20.0101C20.9879 20.0101 21.2645 19.7334 21.2645 19.3892C21.2645 19.0511 20.9879 18.7744 20.6436 18.7744Z" fill="#DAA7EE"/>
<path d="M22.8692 18.7744C22.5249 18.7744 22.2483 19.0511 22.2483 19.3892C22.2483 19.7334 22.5249 20.0101 22.8692 20.0101C23.2135 20.0101 23.4901 19.7334 23.4901 19.3892C23.4901 19.0511 23.2135 18.7744 22.8692 18.7744Z" fill="#DAA7EE"/>
<path d="M25.0945 18.7744C24.7503 18.7744 24.4736 19.0511 24.4736 19.3892C24.4736 19.7334 24.7503 20.0101 25.0945 20.0101C25.4388 20.0101 25.7154 19.7334 25.7154 19.3892C25.7154 19.0511 25.4388 18.7744 25.0945 18.7744Z" fill="#DAA7EE"/>
</svg>
