<svg width="22" height="43" viewBox="0 0 22 43" fill="none" xmlns="http://www.w3.org/2000/svg">
<path d="M2.33356 0H19.6666C20.9533 0 22 1.05279 22 2.34691V26.6907C22 27.9848 20.9533 29.0376 19.6666 29.0376H13.264V37.5724H15.3762C16.767 37.5724 17.8986 38.7105 17.8986 40.1093V42.0541C17.8986 42.3812 17.6349 42.6464 17.3097 42.6464H4.6902C4.36495 42.6464 4.10129 42.3812 4.10129 42.0541V40.1093C4.10129 38.7105 5.23276 37.5724 6.62359 37.5724H8.73575V29.0376H2.33331C1.04662 29.0376 -0.000120163 27.9848 -0.000120163 26.6907V2.34691C-0.000120163 1.05279 1.04662 0 2.33331 0H2.33356ZM5.27928 40.1095V41.4619H16.7209V40.1095C16.7209 39.3639 16.1177 38.7572 15.3764 38.7572H6.62384C5.88249 38.7572 5.27936 39.3639 5.27936 40.1095H5.27928ZM9.91383 37.5726H12.0863V29.0378H9.91383V37.5726ZM1.17795 26.6908C1.17795 27.3316 1.69636 27.8531 2.33356 27.8531H19.6666C20.3038 27.8531 20.8222 27.3316 20.8222 26.6908V2.34691C20.8222 1.70603 20.3038 1.18462 19.6666 1.18462H2.33356C1.69636 1.18462 1.17795 1.70603 1.17795 2.34691V26.6908ZM4.09086 2.69079H17.9093C18.6689 2.69079 19.2869 3.31238 19.2869 4.07629V19.3707C19.2869 20.1347 18.6689 20.7563 17.9093 20.7563H4.09086C3.33134 20.7563 2.71332 20.1347 2.71332 19.3707V4.07621C2.71332 3.31229 3.33134 2.69079 4.09086 2.69079ZM3.89114 19.3707C3.89114 19.4796 3.98259 19.5717 4.09086 19.5717H17.9093C18.0175 19.5717 18.1091 19.4796 18.1091 19.3707V4.07621C18.1091 3.96731 18.0175 3.87533 17.9093 3.87533H4.09086C3.98259 3.87533 3.89114 3.96731 3.89114 4.07621V19.3706V19.3707ZM15.7323 21.9038H17.9408C18.683 21.9038 19.2869 22.5112 19.2869 23.2576C19.2869 24.0041 18.683 24.6115 17.9408 24.6115H15.7323C14.9901 24.6115 14.3863 24.0041 14.3863 23.2576C14.3863 22.5112 14.9901 21.9038 15.7323 21.9038ZM15.7323 23.4269H17.9408C18.032 23.4269 18.1091 23.3494 18.1091 23.2576C18.1091 23.1659 18.032 23.0884 17.9408 23.0884H15.7323C15.6411 23.0884 15.5642 23.1659 15.5642 23.2576C15.5642 23.3494 15.6411 23.4269 15.7323 23.4269ZM4.05931 21.9038H6.2678C7.01 21.9038 7.61388 22.5112 7.61388 23.2576C7.61388 24.0041 7.01 24.6115 6.2678 24.6115H4.05931C3.31712 24.6115 2.71332 24.0041 2.71332 23.2576C2.71332 22.5112 3.31712 21.9038 4.05931 21.9038ZM4.05931 23.4269H6.2678C6.359 23.4269 6.43606 23.3494 6.43606 23.2576C6.43606 23.1659 6.359 23.0884 6.2678 23.0884H4.05931C3.96811 23.0884 3.89114 23.1659 3.89114 23.2576C3.89114 23.3494 3.96811 23.4269 4.05931 23.4269ZM9.89582 21.9038H12.1043C12.8465 21.9038 13.4504 22.5112 13.4504 23.2576C13.4504 24.0041 12.8465 24.6115 12.1043 24.6115H9.89582C9.15363 24.6115 8.54983 24.0041 8.54983 23.2576C8.54983 22.5112 9.15363 21.9038 9.89582 21.9038ZM9.89582 23.4269H12.1043C12.1955 23.4269 12.2726 23.3494 12.2726 23.2576C12.2726 23.1659 12.1955 23.0884 12.1043 23.0884H9.89582C9.80462 23.0884 9.72764 23.1659 9.72764 23.2576C9.72764 23.3494 9.80462 23.4269 9.89582 23.4269ZM14.8911 26.1133C14.8911 26.4405 15.1548 26.7057 15.48 26.7057H18.1931C18.5184 26.7057 18.782 26.4405 18.782 26.1133C18.782 25.7862 18.5184 25.521 18.1931 25.521H15.48C15.1548 25.521 14.8911 25.7862 14.8911 26.1133ZM9.05461 26.1133C9.05461 26.4405 9.31827 26.7057 9.64351 26.7057H12.3566C12.6819 26.7057 12.9455 26.4405 12.9455 26.1133C12.9455 25.7862 12.6819 25.521 12.3566 25.521H9.64351C9.31827 25.521 9.05461 25.7862 9.05461 26.1133ZM3.2181 26.1133C3.2181 26.4405 3.48176 26.7057 3.80701 26.7057H6.52011C6.84536 26.7057 7.10902 26.4405 7.10902 26.1133C7.10902 25.7862 6.84536 25.521 6.52011 25.521H3.80701C3.48176 25.521 3.2181 25.7862 3.2181 26.1133Z" fill="#DAA7EE"/>
</svg>
