<svg width="42" height="34" viewBox="0 0 42 34" fill="none" xmlns="http://www.w3.org/2000/svg">
<path d="M34.8081 16.2524C34.4466 16.2524 34.1544 16.5453 34.1544 16.9061V29.9808C34.1544 31.0621 33.2744 31.942 32.1932 31.942H3.42883C2.34755 31.942 1.46763 31.0621 1.46763 29.9808V10.3688C1.46763 9.28749 2.34755 8.40757 3.42883 8.40757H25.6558C26.0173 8.40757 26.3095 8.11469 26.3095 7.75383C26.3095 7.39297 26.0173 7.1001 25.6558 7.1001H3.42883C1.62648 7.1001 0.160156 8.56642 0.160156 10.3688V29.9808C0.160156 31.7832 1.62648 33.2495 3.42883 33.2495H32.1932C33.9955 33.2495 35.4618 31.7832 35.4618 29.9808V16.9061C35.4618 16.5453 35.1696 16.2524 34.8081 16.2524Z" fill="#DAA7EE"/>
<path d="M28.3208 13.8541C28.0789 13.5854 27.6658 13.5645 27.3978 13.8057L19.653 20.7758C18.6403 21.6878 16.9818 21.6878 15.9692 20.7758L3.86657 9.88328C3.59854 9.64205 3.18473 9.66428 2.9435 9.93165C2.70227 10.2003 2.72384 10.6135 2.99187 10.8547L13.9563 20.7222L3.02064 29.4705C2.73888 29.696 2.69312 30.1072 2.91866 30.389C3.0481 30.5511 3.23768 30.6348 3.42988 30.6348C3.57304 30.6348 3.71687 30.5877 3.83781 30.4916L14.9408 21.6093L15.0945 21.7479C15.8417 22.4199 16.8066 22.79 17.8114 22.79C18.8162 22.79 19.7811 22.4199 20.5277 21.7473L20.6813 21.6087L31.7843 30.491C31.9059 30.5877 32.0497 30.6348 32.1929 30.6348C32.3851 30.6348 32.5747 30.5511 32.7041 30.3896C32.9297 30.1079 32.8832 29.696 32.6021 29.4711L21.6665 20.7222L28.2724 14.7771C28.5405 14.5359 28.5621 14.1227 28.3208 13.8541Z" fill="#DAA7EE"/>
<path d="M34.8083 0.562988C30.8434 0.562988 27.6172 3.78917 27.6172 7.75407C27.6172 11.719 30.8434 14.9452 34.8083 14.9452C38.7732 14.9452 41.9993 11.719 41.9993 7.75407C41.9993 3.78917 38.7732 0.562988 34.8083 0.562988ZM34.8083 13.6377C31.5638 13.6377 28.9247 10.9979 28.9247 7.75407C28.9247 4.51024 31.5638 1.87046 34.8083 1.87046C38.0528 1.87046 40.6919 4.51024 40.6919 7.75407C40.6919 10.9979 38.0528 13.6377 34.8083 13.6377Z" fill="#DAA7EE"/>
<path d="M35.4614 9.71506V5.13892C35.4614 4.87481 35.3025 4.6362 35.058 4.53487C34.8135 4.43419 34.5324 4.48976 34.3454 4.67673L33.6917 5.33046C33.4361 5.58607 33.4361 5.99923 33.6917 6.25484C33.8192 6.38232 33.9865 6.44639 34.1539 6.44639V9.71506C33.7924 9.71506 33.5002 10.0079 33.5002 10.3688C33.5002 10.7297 33.7924 11.0225 34.1539 11.0225H35.4614C35.8229 11.0225 36.1151 10.7297 36.1151 10.3688C36.1151 10.0079 35.8229 9.71506 35.4614 9.71506Z" fill="#DAA7EE"/>
</svg>
