<svg width="38" height="38" viewBox="0 0 38 38" fill="none" xmlns="http://www.w3.org/2000/svg">
<path d="M19.8055 9.90274C19.8055 4.44249 15.363 0 9.90274 0C4.44249 0 0 4.44249 0 9.90274C0 15.363 4.44249 19.8055 9.90274 19.8055C15.363 19.8055 19.8055 15.363 19.8055 9.90274ZM1.61097 9.90274C1.61097 5.33042 5.33042 1.61097 9.90274 1.61097C14.4751 1.61097 18.1945 5.33042 18.1945 9.90274C18.1945 14.4751 14.4751 18.1945 9.90274 18.1945C5.33042 18.1945 1.61097 14.4751 1.61097 9.90274Z" fill="#DAA7EE"/>
<path d="M10.966 16.6546C11.906 16.6546 12.8167 16.4651 13.6715 16.0907C14.079 15.9126 14.2647 15.4378 14.0865 15.0294C13.9084 14.6219 13.4336 14.4362 13.0252 14.6143C12.3751 14.8986 11.6824 15.0436 10.965 15.0436C8.6187 15.0436 6.63626 13.4639 6.02219 11.3118H12.6954C13.1398 11.3118 13.5009 10.9508 13.5009 10.5064C13.5009 10.0619 13.1398 9.70087 12.6954 9.70087H5.82888C5.83551 9.53883 5.84878 9.37963 5.87057 9.22137H12.6954C13.1398 9.22137 13.5009 8.86033 13.5009 8.41589C13.5009 7.97145 13.1398 7.6104 12.6954 7.6104H6.36524C7.20957 5.92267 8.95322 4.76087 10.965 4.76087C11.6596 4.76087 12.3325 4.89639 12.9655 5.16457C13.3749 5.33798 13.8477 5.14656 14.0211 4.73624C14.1946 4.32686 14.0031 3.85399 13.5928 3.68058C12.7598 3.32806 11.8757 3.1499 10.9641 3.1499C8.04538 3.1499 5.55406 5.012 4.61307 7.6104H3.14045C2.69601 7.6104 2.33496 7.97145 2.33496 8.41589C2.33496 8.86033 2.69601 9.22137 3.14045 9.22137H4.24823C4.23212 9.37963 4.22359 9.53978 4.21885 9.70087H3.14045C2.69601 9.70087 2.33496 10.0619 2.33496 10.5064C2.33496 10.9508 2.69601 11.3118 3.14045 11.3118H4.36289C5.01297 14.3604 7.72603 16.6546 10.966 16.6546Z" fill="#DAA7EE"/>
<path d="M28.0973 18.1945C22.6371 18.1945 18.1946 22.637 18.1946 28.0972C18.1946 33.5575 22.6371 37.9999 28.0973 37.9999C33.5576 37.9999 38.0001 33.5575 38.0001 28.0972C38.0001 22.637 33.5576 18.1945 28.0973 18.1945ZM28.0973 36.389C23.525 36.389 19.8056 32.6695 19.8056 28.0972C19.8056 23.5249 23.525 19.8054 28.0973 19.8054C32.6696 19.8054 36.3891 23.5249 36.3891 28.0972C36.3891 32.6695 32.6696 36.389 28.0973 36.389Z" fill="#DAA7EE"/>
<path d="M29.7225 24.6384C29.95 24.6384 30.1348 24.8232 30.1348 25.0506C30.1348 25.4951 30.4958 25.8561 30.9402 25.8561C31.3847 25.8561 31.7457 25.4951 31.7457 25.0506C31.7457 23.9353 30.8379 23.0274 29.7225 23.0274H28.9028V21.7007C28.9028 21.2563 28.5418 20.8953 28.0974 20.8953C27.6529 20.8953 27.2919 21.2563 27.2919 21.7007V23.0274H26.4722C25.3568 23.0274 24.449 23.9353 24.449 25.0506V26.744C24.449 27.8594 25.3568 28.7672 26.4722 28.7672H27.2919V31.5561H26.4722C26.2447 31.5561 26.0599 31.3713 26.0599 31.1439V30.9326C26.0599 30.4881 25.6989 30.1271 25.2545 30.1271C24.81 30.1271 24.449 30.4881 24.449 30.9326V31.1439C24.449 32.2593 25.3568 33.1671 26.4722 33.1671H27.2919V34.4938C27.2919 34.9382 27.6529 35.2993 28.0974 35.2993C28.5418 35.2993 28.9028 34.9382 28.9028 34.4938V33.1671H29.7225C30.8379 33.1671 31.7457 32.2593 31.7457 31.1439V29.1785C31.7457 28.0631 30.8379 27.1553 29.7225 27.1553H28.9028V24.6384H29.7225ZM29.7225 28.7672C29.95 28.7672 30.1348 28.952 30.1348 29.1795V31.1448C30.1348 31.3723 29.95 31.5571 29.7225 31.5571H28.9028V28.7682H29.7225V28.7672ZM27.2919 27.1563H26.4722C26.2447 27.1563 26.0599 26.9715 26.0599 26.744V25.0506C26.0599 24.8232 26.2447 24.6384 26.4722 24.6384H27.2919V27.1563Z" fill="#DAA7EE"/>
<path d="M21.2071 10.7083H24.2461C25.8514 10.7083 27.1563 12.0141 27.1563 13.6184V15.0569L26.2409 14.1415C25.9263 13.8269 25.4165 13.8269 25.1019 14.1415C24.7872 14.4561 24.7872 14.966 25.1019 15.2806L27.3923 17.571C27.5496 17.7283 27.7552 17.807 27.9618 17.807C28.1684 17.807 28.374 17.7283 28.5313 17.571L30.8218 15.2806C31.1364 14.966 31.1364 14.4561 30.8218 14.1415C30.5071 13.8269 29.9973 13.8269 29.6827 14.1415L28.7673 15.0569V13.6184C28.7673 11.1252 26.7394 9.09729 24.2461 9.09729H21.2071C20.7627 9.09729 20.4016 9.45834 20.4016 9.90278C20.4016 10.3472 20.7617 10.7083 21.2071 10.7083Z" fill="#DAA7EE"/>
<path d="M16.793 27.2918H13.754C12.1487 27.2918 10.8438 25.986 10.8438 24.3816V22.9431L11.7592 23.8586C11.9165 24.0159 12.1221 24.0945 12.3287 24.0945C12.5353 24.0945 12.7409 24.0159 12.8982 23.8586C13.2129 23.5439 13.2129 23.0341 12.8982 22.7195L10.6078 20.4291C10.2932 20.1145 9.78338 20.1145 9.46877 20.4291L7.17834 22.7195C6.86373 23.0341 6.86373 23.5439 7.17834 23.8586C7.49296 24.1732 8.00278 24.1732 8.3174 23.8586L9.23281 22.9431V24.3816C9.23281 26.8749 11.2607 28.9028 13.754 28.9028H16.793C17.2374 28.9028 17.5985 28.5417 17.5985 28.0973C17.5985 27.6529 17.2384 27.2918 16.793 27.2918Z" fill="#DAA7EE"/>
</svg>
