<svg width="35" height="35" viewBox="0 0 35 35" fill="none" xmlns="http://www.w3.org/2000/svg">
<path fill-rule="evenodd" clip-rule="evenodd" d="M0 25V32.9167C0 33.4692 0.219162 33.9992 0.609995 34.39C1.00083 34.7808 1.53083 35 2.08333 35H10C10.46 35 10.8333 34.6267 10.8333 34.1667C10.8333 33.7067 10.46 33.3333 10 33.3333H2.08333C1.9725 33.3333 1.86666 33.2892 1.78833 33.2117C1.71083 33.1333 1.66667 33.0275 1.66667 32.9167V25C1.66667 24.54 1.29333 24.1667 0.833333 24.1667C0.373333 24.1667 0 24.54 0 25ZM25 35H32.9167C33.4692 35 33.9992 34.7808 34.39 34.39C34.7808 33.9992 35 33.4692 35 32.9167V25C35 24.54 34.6267 24.1667 34.1667 24.1667C33.7067 24.1667 33.3333 24.54 33.3333 25V32.9167C33.3333 33.0275 33.2892 33.1333 33.2117 33.2117C33.1333 33.2892 33.0275 33.3333 32.9167 33.3333H25C24.54 33.3333 24.1667 33.7067 24.1667 34.1667C24.1667 34.6267 24.54 35 25 35ZM35 10V2.08333C35 1.53083 34.7808 1.00083 34.39 0.609995C33.9992 0.219162 33.4692 0 32.9167 0H25C24.54 0 24.1667 0.373333 24.1667 0.833333C24.1667 1.29333 24.54 1.66667 25 1.66667H32.9167C33.0275 1.66667 33.1333 1.71083 33.2117 1.78833C33.2892 1.86666 33.3333 1.9725 33.3333 2.08333V10C33.3333 10.46 33.7067 10.8333 34.1667 10.8333C34.6267 10.8333 35 10.46 35 10ZM10 0H2.08333C1.53083 0 1.00083 0.219162 0.609995 0.609995C0.219162 1.00083 0 1.53083 0 2.08333V10C0 10.46 0.373333 10.8333 0.833333 10.8333C1.29333 10.8333 1.66667 10.46 1.66667 10V2.08333C1.66667 1.9725 1.71083 1.86666 1.78833 1.78833C1.86666 1.71083 1.9725 1.66667 2.08333 1.66667H10C10.46 1.66667 10.8333 1.29333 10.8333 0.833333C10.8333 0.373333 10.46 0 10 0Z" fill="#DAA7EE"/>
<path fill-rule="evenodd" clip-rule="evenodd" d="M26.2786 12.4984H23.7528C23.6136 12.4984 23.4837 12.4284 23.4062 12.3125L21.9262 10.0925C21.5403 9.51335 20.8895 9.16504 20.1928 9.16504H14.8645C14.1678 9.16504 13.517 9.51335 13.1311 10.0925L11.6511 12.3125C11.5736 12.4284 11.4437 12.4984 11.3045 12.4984H8.77865C8.22615 12.4984 7.69614 12.7175 7.30531 13.1084C6.91447 13.4992 6.69531 14.0292 6.69531 14.5817V23.7484C6.69531 24.8992 7.62781 25.8317 8.77865 25.8317H26.2786C27.4295 25.8317 28.362 24.8992 28.362 23.7484V14.5817C28.362 14.0292 28.1428 13.4992 27.752 13.1084C27.3612 12.7175 26.8311 12.4984 26.2786 12.4984ZM23.7528 14.165H26.2786C26.3895 14.165 26.4953 14.2092 26.5736 14.2867C26.6511 14.365 26.6953 14.4709 26.6953 14.5817V23.7484C26.6953 23.9784 26.5086 24.165 26.2786 24.165H8.77865C8.54865 24.165 8.36198 23.9784 8.36198 23.7484V14.5817C8.36198 14.4709 8.40614 14.365 8.48364 14.2867C8.56198 14.2092 8.66781 14.165 8.77865 14.165H11.3045C12.0003 14.165 12.6511 13.8167 13.0378 13.2376L14.5178 11.0176C14.5953 10.9017 14.7253 10.8317 14.8645 10.8317H20.1928C20.332 10.8317 20.462 10.9017 20.5395 11.0176L22.0195 13.2376C22.4062 13.8167 23.057 14.165 23.7528 14.165Z" fill="#DAA7EE"/>
<path fill-rule="evenodd" clip-rule="evenodd" d="M17.5169 14.144C15.2179 14.144 13.3516 16.0116 13.3516 18.3105C13.3516 20.6095 15.2179 22.4758 17.5169 22.4758C19.8158 22.4758 21.6833 20.6095 21.6833 18.3105C21.6833 16.0116 19.8158 14.144 17.5169 14.144ZM17.5169 15.8104C18.896 15.8104 20.0158 16.9314 20.0158 18.3105C20.0158 19.6897 18.896 20.8095 17.5169 20.8095C16.1377 20.8095 15.0179 19.6897 15.0179 18.3105C15.0179 16.9314 16.1377 15.8104 17.5169 15.8104Z" fill="#DAA7EE"/>
</svg>
