<svg width="37" height="37" viewBox="0 0 37 37" fill="none" xmlns="http://www.w3.org/2000/svg">
<path d="M36.8134 12.2935C36.74 12.2257 36.6502 12.1782 36.5528 12.1556C36.4555 12.133 36.3539 12.136 36.2581 12.1645L27.0358 14.8889C26.9396 14.9173 26.8525 14.9701 26.783 15.0423C26.7134 15.1146 26.6639 15.2036 26.6392 15.3008C26.6145 15.3979 26.6154 15.4998 26.642 15.5965C26.6686 15.6931 26.7198 15.7812 26.7907 15.8521L28.3343 17.3956L20.2343 25.4959L15.3409 20.6019C15.0706 20.3332 14.75 20.1204 14.3974 19.9758C14.0448 19.8311 13.6672 19.7574 13.2861 19.7589C12.905 19.7604 12.5279 19.837 12.1764 19.9843C11.825 20.1317 11.506 20.3469 11.2378 20.6177L0.154349 32.5602C0.102709 32.6158 0.0625358 32.6811 0.0361216 32.7522C0.00970752 32.8234 -0.00242985 32.8991 0.000402515 32.975C0.00612274 33.1282 0.0724707 33.2728 0.184851 33.3771C0.297231 33.4814 0.446437 33.5368 0.599646 33.5311C0.752855 33.5253 0.897516 33.459 1.00181 33.3466L12.0703 21.4199C12.3959 21.0952 12.8369 20.9128 13.2968 20.9127C13.7566 20.9127 14.1977 21.095 14.5234 21.4196L19.8256 26.7222C19.9361 26.8266 20.0823 26.8847 20.2344 26.8847C20.3864 26.8847 20.5326 26.8266 20.6431 26.7222L29.5606 17.8044C29.6143 17.7507 29.6568 17.687 29.6859 17.6168C29.715 17.5467 29.7299 17.4715 29.7299 17.3956C29.7299 17.3197 29.715 17.2445 29.6859 17.1744C29.6568 17.1043 29.6143 17.0405 29.5606 16.9869L28.2959 15.7222L35.6602 13.5466L34.0255 21.4518L32.8311 20.2575C32.7775 20.2038 32.7137 20.1612 32.6436 20.1321C32.5735 20.103 32.4983 20.0881 32.4224 20.0881C32.3465 20.0881 32.2713 20.103 32.2011 20.1321C32.131 20.1612 32.0673 20.2038 32.0136 20.2575L21.4609 30.81C21.1353 31.1347 20.6942 31.3171 20.2344 31.3172C19.7745 31.3172 19.3334 31.1349 19.0078 30.8103L13.7056 25.5078C13.6497 25.4519 13.583 25.408 13.5095 25.3789C13.4361 25.3499 13.3574 25.3361 13.2784 25.3387C13.1995 25.3412 13.1218 25.3598 13.0504 25.3935C12.9789 25.4272 12.9151 25.4752 12.8629 25.5346L3.61291 36.0402C3.56275 36.0972 3.52431 36.1635 3.49977 36.2353C3.47524 36.3072 3.4651 36.3831 3.46992 36.4589C3.47966 36.6119 3.54978 36.7547 3.66486 36.856C3.77993 36.9573 3.93053 37.0088 4.08352 36.999C4.23652 36.9893 4.37938 36.9192 4.48068 36.8041L13.3236 26.7608L18.1903 31.628C18.7331 32.169 19.4681 32.4727 20.2344 32.4727C21.0007 32.4726 21.7357 32.1688 22.2784 31.6278L32.4224 21.4837L33.9659 23.0273C34.0397 23.101 34.1321 23.1535 34.2332 23.179C34.3343 23.2045 34.4405 23.2022 34.5404 23.1724C34.6404 23.1425 34.7304 23.0861 34.8009 23.0092C34.8714 22.9323 34.9198 22.8378 34.941 22.7357L36.9881 12.8361C37.0082 12.7383 37.0027 12.6369 36.9721 12.5418C36.9415 12.4468 36.8868 12.3612 36.8134 12.2935Z" fill="#DAA7EE"/>
<path d="M9.82813 32.375C9.6748 32.375 9.52775 32.4359 9.41933 32.5443C9.31091 32.6527 9.25 32.7998 9.25 32.9531V36.4219C9.25 36.5752 9.31091 36.7223 9.41933 36.8307C9.52775 36.9391 9.6748 37 9.82813 37C9.98145 37 10.1285 36.9391 10.2369 36.8307C10.3453 36.7223 10.4063 36.5752 10.4063 36.4219V32.9531C10.4063 32.7998 10.3453 32.6527 10.2369 32.5443C10.1285 32.4359 9.98145 32.375 9.82813 32.375Z" fill="#DAA7EE"/>
<path d="M2.89063 28.3281C3.04395 28.3281 3.191 28.2672 3.29942 28.1588C3.40784 28.0504 3.46875 27.9033 3.46875 27.75V19.6563H9.25002V20.2344C9.25002 20.3877 9.31093 20.5348 9.41934 20.6432C9.52776 20.7516 9.67481 20.8125 9.82814 20.8125C9.98147 20.8125 10.1285 20.7516 10.2369 20.6432C10.3454 20.5348 10.4063 20.3877 10.4063 20.2344V19.0781C10.4063 18.9248 10.3454 18.7777 10.2369 18.6693C10.1285 18.5609 9.98147 18.5 9.82814 18.5H2.89063C2.7373 18.5 2.59025 18.5609 2.48183 18.6693C2.37341 18.7777 2.3125 18.9248 2.3125 19.0781V27.75C2.3125 27.9033 2.37341 28.0504 2.48183 28.1588C2.59025 28.2672 2.7373 28.3281 2.89063 28.3281Z" fill="#DAA7EE"/>
<path d="M27.1719 27.75C27.0185 27.75 26.8715 27.8109 26.7631 27.9193C26.6547 28.0277 26.5938 28.1748 26.5938 28.3281V36.4219C26.5938 36.5752 26.6547 36.7223 26.7631 36.8307C26.8715 36.9391 27.0185 37 27.1719 37C27.3252 37 27.4723 36.9391 27.5807 36.8307C27.6891 36.7223 27.75 36.5752 27.75 36.4219V28.3281C27.75 28.1748 27.6891 28.0277 27.5807 27.9193C27.4723 27.8109 27.3252 27.75 27.1719 27.75Z" fill="#DAA7EE"/>
<path d="M27.1719 13.875C27.3252 13.875 27.4723 13.8141 27.5807 13.7057C27.6891 13.5973 27.75 13.4502 27.75 13.2969V1.15625H33.5313V10.9844C33.5313 11.1377 33.5922 11.2848 33.7006 11.3932C33.809 11.5016 33.9561 11.5625 34.1094 11.5625C34.2627 11.5625 34.4098 11.5016 34.5182 11.3932C34.6266 11.2848 34.6875 11.1377 34.6875 10.9844V0.578126C34.6875 0.424798 34.6266 0.277749 34.5182 0.169329C34.4098 0.0609096 34.2627 0 34.1094 0L27.1719 0C27.0185 0 26.8715 0.0609096 26.7631 0.169329C26.6547 0.277749 26.5938 0.424798 26.5938 0.578126V13.2969C26.5938 13.4502 26.6547 13.5973 26.7631 13.7057C26.8715 13.8141 27.0185 13.875 27.1719 13.875Z" fill="#DAA7EE"/>
<path d="M34.1094 24.2812C33.956 24.2812 33.809 24.3422 33.7006 24.4506C33.5922 24.559 33.5312 24.706 33.5312 24.8594V36.4219C33.5312 36.5752 33.5922 36.7223 33.7006 36.8307C33.809 36.9391 33.956 37 34.1094 37C34.2627 37 34.4098 36.9391 34.5182 36.8307C34.6266 36.7223 34.6875 36.5752 34.6875 36.4219V24.8594C34.6875 24.706 34.6266 24.559 34.5182 24.4506C34.4098 24.3422 34.2627 24.2812 34.1094 24.2812Z" fill="#DAA7EE"/>
<path d="M21.9688 32.9531C21.8154 32.9531 21.6684 33.014 21.56 33.1225C21.4515 33.2309 21.3906 33.3779 21.3906 33.5313V36.4219C21.3906 36.5752 21.4515 36.7223 21.56 36.8307C21.6684 36.9391 21.8154 37 21.9688 37C22.1221 37 22.2691 36.9391 22.3775 36.8307C22.486 36.7223 22.5469 36.5752 22.5469 36.4219V33.5313C22.5469 33.3779 22.486 33.2309 22.3775 33.1225C22.2691 33.014 22.1221 32.9531 21.9688 32.9531Z" fill="#DAA7EE"/>
<path d="M15.0313 19.0781C15.1846 19.0781 15.3316 19.0172 15.44 18.9088C15.5485 18.8004 15.6094 18.6533 15.6094 18.5V12.7188H21.3906V21.9688C21.3906 22.1221 21.4516 22.2692 21.56 22.3776C21.6684 22.486 21.8154 22.5469 21.9688 22.5469C22.1221 22.5469 22.2691 22.486 22.3776 22.3776C22.486 22.2692 22.5469 22.1221 22.5469 21.9688V12.1406C22.5469 11.9873 22.486 11.8402 22.3776 11.7318C22.2691 11.6234 22.1221 11.5625 21.9688 11.5625H15.0313C14.8779 11.5625 14.7309 11.6234 14.6225 11.7318C14.514 11.8402 14.4531 11.9873 14.4531 12.1406V18.5C14.4531 18.6533 14.514 18.8004 14.6225 18.9088C14.7309 19.0172 14.8779 19.0781 15.0313 19.0781Z" fill="#DAA7EE"/>
<path d="M15.0313 29.4844C14.8779 29.4844 14.7309 29.5453 14.6225 29.6537C14.514 29.7621 14.4531 29.9092 14.4531 30.0625V36.4219C14.4531 36.5752 14.514 36.7223 14.6225 36.8307C14.7309 36.9391 14.8779 37 15.0313 37C15.1846 37 15.3316 36.9391 15.44 36.8307C15.5485 36.7223 15.6094 36.5752 15.6094 36.4219V30.0625C15.6094 29.9092 15.5485 29.7621 15.44 29.6537C15.3316 29.5453 15.1846 29.4844 15.0313 29.4844Z" fill="#DAA7EE"/>
</svg>
