<svg width="48" height="47" viewBox="0 0 48 47" fill="none" xmlns="http://www.w3.org/2000/svg">
<path d="M38.0842 0H8.45563C3.71379 0 0 3.68437 0 8.38796V25.2268C0 29.9363 3.71379 33.626 8.45563 33.626H12.1053C12.8479 33.626 13.4505 33.024 13.4505 32.2808C13.4505 31.5381 12.8485 30.9355 12.1053 30.9355H8.45563C5.22261 30.9355 2.68987 28.4281 2.68987 25.2263V8.38796C2.68987 5.1926 5.22261 2.68987 8.45563 2.68987H38.0836C41.5002 2.68987 44.3866 5.29911 44.3866 8.38796V12.1053C44.3866 12.8479 44.9886 13.4505 45.7318 13.4505C46.4751 13.4505 47.0771 12.8485 47.0771 12.1053V8.38796C47.0771 3.84149 42.9584 0 38.0842 0Z" fill="#DAA7EE"/>
<path d="M21.6172 24.5144L28.6346 19.0435C29.3961 18.4774 29.8509 17.5888 29.8509 16.6661C29.8509 15.8293 29.4702 15.0655 28.817 14.5806L21.5924 9.08196C21.1058 8.72006 20.5556 8.52881 20.0012 8.52881C18.5901 8.52881 17.4844 9.75458 17.4844 11.3181V22.2965C17.4844 23.86 18.5895 25.0858 20.0012 25.0858C20.5556 25.0858 21.1058 24.8946 21.6172 24.5144ZM20.1748 11.3834L27.1605 16.6626C27.1646 16.6967 27.1322 16.8097 27.0057 16.9038L20.1754 22.2218L20.1748 11.3834Z" fill="#DAA7EE"/>
<path d="M41.7562 33.7642C44.4643 33.7642 46.6675 31.561 46.6675 28.8523C46.6675 26.1436 44.4643 23.9404 41.7562 23.9404C39.0481 23.9404 36.8449 26.1436 36.8449 28.8523C36.8449 29.1124 36.8825 29.3625 36.9219 29.612L29.7845 33.9161L21.7119 29.0489C21.0746 28.6646 20.2484 28.8694 19.8653 29.5061C19.4816 30.1417 19.6864 30.9684 20.3226 31.3521L27.1799 35.4873L20.3226 39.6224C19.687 40.0061 19.4816 40.8323 19.8653 41.4684C20.1184 41.8874 20.5627 42.1192 21.0187 42.1192C21.2553 42.1192 21.4948 42.0569 21.7125 41.9256L29.7851 37.0585L36.8784 41.3354C36.8713 41.4443 36.8454 41.5484 36.8454 41.6585C36.8454 44.3672 39.0486 46.5704 41.7568 46.5704C44.4649 46.5704 46.6681 44.3672 46.6681 41.6585C46.6681 38.9504 44.4649 36.7472 41.7568 36.7472C40.1373 36.7472 38.7097 37.5451 37.8146 38.7579L32.3902 35.4873L38.07 32.0624C38.9698 33.0957 40.2803 33.7642 41.7562 33.7642ZM41.7562 26.6303C42.9808 26.6303 43.9776 27.6272 43.9776 28.8523C43.9776 30.0775 42.9813 31.0744 41.7562 31.0744C40.5316 31.0744 39.5347 30.0775 39.5347 28.8523C39.5347 27.6272 40.531 26.6303 41.7562 26.6303ZM41.7562 39.437C42.9808 39.437 43.9776 40.4333 43.9776 41.6585C43.9776 42.8837 42.9813 43.8805 41.7562 43.8805C40.5316 43.8805 39.5347 42.8837 39.5347 41.6585C39.5347 40.4333 40.531 39.437 41.7562 39.437Z" fill="#DAA7EE"/>
</svg>
