<svg width="39" height="39" viewBox="0 0 39 39" fill="none" xmlns="http://www.w3.org/2000/svg">
<mask id="mask0_2186_16834" style="mask-type:luminance" maskUnits="userSpaceOnUse" x="0" y="0" width="39" height="39">
<path d="M0 0H39V39H0V0Z" fill="white"/>
</mask>
<g mask="url(#mask0_2186_16834)">
<path d="M32.9475 21.4641C33.3356 20.0614 33.5429 18.5838 33.5429 17.0576C33.5429 7.95248 26.1618 0.571349 17.0566 0.571349C7.95152 0.571349 0.570312 7.95248 0.570312 17.0576C0.570312 26.1628 7.95152 33.5439 17.0566 33.5439C17.4345 33.5439 17.8093 33.5312 18.1808 33.5062" stroke="#DAA7EE" stroke-width="1.14258" stroke-miterlimit="10" stroke-linecap="round" stroke-linejoin="round"/>
<path d="M30.902 19.4411C31.0345 18.6664 31.1035 17.8701 31.1035 17.0577C31.1035 9.30148 24.8158 3.01379 17.0595 3.01379C9.30331 3.01379 3.01562 9.30148 3.01562 17.0577C3.01562 24.8139 9.30331 31.1016 17.0595 31.1016C17.9538 31.1016 18.8285 31.018 19.6762 30.8582" stroke="#DAA7EE" stroke-width="1.14258" stroke-miterlimit="10" stroke-linecap="round" stroke-linejoin="round"/>
<path d="M27.3988 22.4601L19.7449 35.7171C19.0491 36.9222 19.9189 38.4287 21.3105 38.4287H36.6183C38.0099 38.4287 38.8797 36.9222 38.1838 35.7171L30.5299 22.4601C29.8342 21.2549 28.0946 21.2549 27.3988 22.4601Z" stroke="#DAA7EE" stroke-width="1.14258" stroke-miterlimit="10" stroke-linecap="round" stroke-linejoin="round"/>
<path d="M28.9531 25.6918V33.019" stroke="#DAA7EE" stroke-width="1.14258" stroke-miterlimit="10" stroke-linecap="round" stroke-linejoin="round"/>
<path d="M18.2783 17.0576C18.2783 17.732 17.7316 18.2788 17.0571 18.2788C16.3826 18.2788 15.8359 17.732 15.8359 17.0576C15.8359 16.3832 16.3826 15.8364 17.0571 15.8364C17.7316 15.8364 18.2783 16.3832 18.2783 17.0576Z" stroke="#DAA7EE" stroke-width="1.14258" stroke-miterlimit="10" stroke-linecap="round" stroke-linejoin="round"/>
<path d="M18.2812 17.0576H28.6615" stroke="#DAA7EE" stroke-width="1.14258" stroke-miterlimit="10" stroke-linecap="round" stroke-linejoin="round"/>
<path d="M16.0093 16.0117L9.11719 9.11961" stroke="#DAA7EE" stroke-width="1.14258" stroke-miterlimit="10" stroke-linecap="round" stroke-linejoin="round"/>
<path d="M5.46094 17.0576H6.68213" stroke="#DAA7EE" stroke-width="1.14258" stroke-miterlimit="10" stroke-linecap="round" stroke-linejoin="round"/>
<path d="M17.0547 5.45606V6.67725" stroke="#DAA7EE" stroke-width="1.14258" stroke-miterlimit="10" stroke-linecap="round" stroke-linejoin="round"/>
<path d="M17.0547 27.4375V28.6587" stroke="#DAA7EE" stroke-width="1.14258" stroke-miterlimit="10" stroke-linecap="round" stroke-linejoin="round"/>
<path d="M11.2578 27.105L11.5631 26.5762" stroke="#DAA7EE" stroke-width="1.14258" stroke-miterlimit="10" stroke-linecap="round" stroke-linejoin="round"/>
<path d="M22.5547 7.53955L22.86 7.01077" stroke="#DAA7EE" stroke-width="1.14258" stroke-miterlimit="10" stroke-linecap="round" stroke-linejoin="round"/>
<path d="M7.00781 11.2567L7.5366 11.562" stroke="#DAA7EE" stroke-width="1.14258" stroke-miterlimit="10" stroke-linecap="round" stroke-linejoin="round"/>
<path d="M11.5631 7.53955L11.2578 7.01077" stroke="#DAA7EE" stroke-width="1.14258" stroke-miterlimit="10" stroke-linecap="round" stroke-linejoin="round"/>
<path d="M27.1069 11.2567L26.5781 11.562" stroke="#DAA7EE" stroke-width="1.14258" stroke-miterlimit="10" stroke-linecap="round" stroke-linejoin="round"/>
<path d="M7.5366 22.5531L7.00781 22.8584" stroke="#DAA7EE" stroke-width="1.14258" stroke-miterlimit="10" stroke-linecap="round" stroke-linejoin="round"/>
</g>
</svg>
