<svg width="36" height="40" viewBox="0 0 36 40" fill="none" xmlns="http://www.w3.org/2000/svg">
<path fill-rule="evenodd" clip-rule="evenodd" d="M5.98033 4.05223C5.97978 3.91208 6.03492 3.77746 6.13363 3.67797C6.23234 3.57849 6.36652 3.52229 6.50667 3.52173C6.64681 3.52118 6.78143 3.57633 6.88092 3.67504C6.98041 3.77374 7.03661 3.90793 7.03716 4.04807L7.03965 4.42416C7.55907 4.5404 8.02372 4.82937 8.35766 5.24385C8.69159 5.65834 8.87508 6.17383 8.87813 6.70609C8.87841 6.77548 8.86501 6.84425 8.83871 6.90846C8.8124 6.97268 8.77371 7.03108 8.72483 7.08034C8.67596 7.1296 8.61786 7.16875 8.55385 7.19556C8.48985 7.22237 8.42119 7.23631 8.3518 7.23658C8.2824 7.23685 8.21364 7.22345 8.14942 7.19715C8.08521 7.17085 8.0268 7.13215 7.97754 7.08328C7.92828 7.0344 7.88913 6.9763 7.86232 6.9123C7.83552 6.84829 7.82158 6.77963 7.82131 6.71024C7.81533 5.57052 6.41763 4.98737 5.60566 5.81023C4.79368 6.63308 5.38738 8.02264 6.5359 8.01516C7.11351 8.01174 7.67218 8.22098 8.10543 8.603C8.53867 8.98502 8.8162 9.51311 8.8851 10.0866C8.95399 10.6601 8.80945 11.2389 8.47902 11.7127C8.14859 12.1864 7.65537 12.522 7.09339 12.6555L7.09596 13.0349C7.09651 13.1751 7.04137 13.3097 6.94266 13.4092C6.84395 13.5087 6.70977 13.5649 6.56962 13.5654C6.42948 13.566 6.29486 13.5108 6.19537 13.4121C6.09589 13.3134 6.03969 13.1792 6.03913 13.0391L6.03664 12.6629C5.51721 12.5467 5.05254 12.2577 4.7186 11.8432C4.38466 11.4288 4.20118 10.9133 4.19816 10.381C4.19762 10.2408 4.25277 10.1062 4.35149 10.0067C4.4502 9.90726 4.58439 9.85107 4.72454 9.85053C4.86468 9.84999 4.9993 9.90515 5.09878 10.0039C5.19826 10.1026 5.25445 10.2368 5.25499 10.3769C5.26088 11.5166 6.65866 12.0998 7.47064 11.2768C8.28261 10.4539 7.68891 9.06443 6.54039 9.07199C5.96282 9.07535 5.4042 8.86607 4.971 8.48405C4.5378 8.10203 4.2603 7.57397 4.1914 7.00051C4.1225 6.42706 4.267 5.84829 4.59738 5.37452C4.92775 4.90076 5.42089 4.56511 5.98282 4.43155L5.98033 4.05223ZM26.6327 6.17178L22.2722 1.81124V6.17178H26.6327ZM33.1828 12.7391H20.6455C20.1803 12.7408 19.7346 12.9264 19.4056 13.2554C19.0766 13.5844 18.891 14.0301 18.8893 14.4953V33.9973C18.891 34.4626 19.0765 34.9083 19.4055 35.2373C19.7345 35.5663 20.1802 35.7519 20.6455 35.7537H33.1828C33.648 35.7519 34.0937 35.5663 34.4227 35.2373C34.7517 34.9084 34.9373 34.4627 34.939 33.9974V14.4954C34.9373 14.0301 34.7517 13.5844 34.4227 13.2554C34.0938 12.9264 33.648 12.7408 33.1828 12.7391ZM30.1536 36.8149H3.83162V38.8013H30.1536V36.8149ZM31.2143 11.6781V3.57788C31.2143 3.50821 31.2006 3.43923 31.1739 3.37486C31.1473 3.31049 31.1082 3.25201 31.0589 3.20274C31.0097 3.15348 30.9512 3.11441 30.8868 3.08775C30.8225 3.06109 30.7535 3.04738 30.6838 3.04739H25.0086L22.1203 0.159056C22.071 0.10862 22.0121 0.0685637 21.947 0.0412471C21.882 0.0139304 21.8122 -9.38657e-05 21.7416 4.72797e-07H0.53049C0.389796 4.72797e-07 0.254863 0.0558912 0.155377 0.155377C0.0558908 0.254864 6.50465e-09 0.389796 6.50465e-09 0.530491V36.2844C-1.09038e-05 36.3541 0.0137034 36.423 0.0403591 36.4874C0.0670149 36.5518 0.10609 36.6103 0.155353 36.6595C0.204616 36.7088 0.263101 36.7479 0.327468 36.7745C0.391835 36.8012 0.460822 36.8149 0.53049 36.8149H2.77064V39.3315C2.77066 39.4722 2.82656 39.6071 2.92604 39.7066C3.02553 39.8061 3.16044 39.862 3.30113 39.862H30.684C30.7537 39.862 30.8227 39.8483 30.8871 39.8216C30.9514 39.795 31.0099 39.7559 31.0592 39.7066C31.1084 39.6574 31.1475 39.5989 31.1742 39.5345C31.2008 39.4702 31.2145 39.4012 31.2145 39.3315V36.8149H33.1828C33.9294 36.8131 34.6449 36.5157 35.1729 35.9878C35.7008 35.4598 35.9982 34.7443 36 33.9976V14.4957C35.9983 13.749 35.701 13.0333 35.173 12.5053C34.645 11.9773 33.9295 11.6799 33.1828 11.6781H31.2143ZM28.4436 11.6781V6.70227C28.4437 6.63173 28.4297 6.56189 28.4024 6.49686C28.3751 6.43183 28.335 6.37292 28.2846 6.32361L26.0697 4.10862H30.1536V11.6783L28.4436 11.6781ZM20.6453 11.6781H27.3827V7.23276H21.7414C21.6007 7.23274 21.4658 7.17684 21.3663 7.07736C21.2668 6.97788 21.2109 6.84296 21.2109 6.70227V1.06098H1.06098V35.7537H18.4461C18.046 35.2558 17.828 34.6361 17.8283 33.9974V14.4954C17.8301 13.7488 18.1274 13.0332 18.6554 12.5053C19.1833 11.9773 19.8989 11.68 20.6455 11.6782L20.6453 11.6781ZM32.1405 15.2434L32.1923 15.2952V19.6002L32.1405 19.6521H21.6876L21.6357 19.6002V15.2952L21.6876 15.2434H32.1405ZM21.6876 14.1824H32.1412C32.4363 14.1828 32.7191 14.3002 32.9277 14.5089C33.1363 14.7175 33.2537 15.0003 33.2542 15.2953V19.6003C33.2537 19.8954 33.1363 20.1782 32.9277 20.3868C32.7191 20.5954 32.4363 20.7128 32.1412 20.7133H21.6876C21.3925 20.7128 21.1097 20.5954 20.9011 20.3868C20.6925 20.1782 20.5751 19.8953 20.5746 19.6003V15.2952C20.575 15.0001 20.6925 14.7173 20.9011 14.5087C21.1097 14.3001 21.3925 14.1827 21.6876 14.1822V14.1824ZM23.076 23.3531V25.4983H20.891V23.3531H23.076ZM20.7019 22.2921H23.2652C23.4964 22.2924 23.7181 22.3843 23.8816 22.5478C24.0451 22.7113 24.137 22.933 24.1373 23.1642V25.687C24.137 25.9183 24.0451 26.1399 23.8816 26.3034C23.7181 26.4669 23.4964 26.5589 23.2652 26.5592H20.7019C20.4707 26.5589 20.249 26.4669 20.0855 26.3034C19.922 26.1399 19.8301 25.9183 19.8298 25.687V23.1637C19.8301 22.9324 19.922 22.7108 20.0855 22.5473C20.249 22.3838 20.4707 22.2918 20.7019 22.2916V22.2921ZM28.0064 23.3531V25.4983H25.8214V23.3531H28.0064ZM25.6323 22.2921H28.1956C28.4269 22.2924 28.6485 22.3843 28.812 22.5478C28.9755 22.7113 29.0675 22.933 29.0677 23.1642V25.687C29.0675 25.9183 28.9755 26.1399 28.812 26.3034C28.6485 26.4669 28.4269 26.5589 28.1956 26.5592H25.6323C25.4011 26.5589 25.1794 26.4669 25.0159 26.3034C24.8524 26.1399 24.7605 25.9183 24.7602 25.687V23.1637C24.7605 22.9324 24.8524 22.7108 25.0159 22.5473C25.1794 22.3838 25.4011 22.2918 25.6323 22.2916V22.2921ZM32.9368 23.3531V25.4983H30.7518V23.3531H32.9368ZM30.5627 22.2921H33.1259C33.3572 22.2924 33.5789 22.3843 33.7424 22.5478C33.9059 22.7113 33.9978 22.933 33.9981 23.1642V25.687C33.9978 25.9183 33.9059 26.1399 33.7424 26.3034C33.5789 26.4669 33.3572 26.5589 33.1259 26.5592H30.5627C30.3315 26.5589 30.1098 26.4669 29.9463 26.3034C29.7828 26.1399 29.6909 25.9183 29.6906 25.687V23.1637C29.6909 22.9324 29.7828 22.7108 29.9463 22.5473C30.1098 22.3838 30.3315 22.2918 30.5627 22.2916V22.2921ZM23.076 28.5442V30.6894H20.891V28.5442H23.076ZM20.7019 27.4833H23.2652C23.4964 27.4835 23.7181 27.5754 23.8816 27.7389C24.0451 27.9024 24.137 28.1241 24.1373 28.3554V30.8788C24.137 31.11 24.0451 31.3317 23.8816 31.4952C23.7181 31.6587 23.4964 31.7507 23.2652 31.7509H20.7019C20.4707 31.7507 20.249 31.6587 20.0855 31.4952C19.922 31.3317 19.8301 31.11 19.8298 30.8788V28.3553C19.8301 28.1241 19.922 27.9024 20.0855 27.7389C20.249 27.5754 20.4707 27.4834 20.7019 27.4832V27.4833ZM28.0064 28.5442V30.6894H25.8214V28.5442H28.0064ZM25.6323 27.4833H28.1956C28.4269 27.4835 28.6485 27.5755 28.812 27.739C28.9755 27.9025 29.0675 28.1241 29.0677 28.3554V30.8788C29.0675 31.11 28.9755 31.3317 28.812 31.4952C28.6485 31.6587 28.4269 31.7507 28.1956 31.7509H25.6323C25.4011 31.7507 25.1794 31.6587 25.0159 31.4952C24.8524 31.3317 24.7605 31.11 24.7602 30.8788V28.3553C24.7605 28.1241 24.8524 27.9024 25.0159 27.7389C25.1794 27.5754 25.4011 27.4834 25.6323 27.4832V27.4833ZM32.9368 28.5442V33.5111H30.7518V28.5442H32.9368ZM30.5669 27.4833H33.1217C33.354 27.4836 33.5766 27.576 33.7408 27.7402C33.9051 27.9044 33.9975 28.1271 33.9978 28.3593V33.6956C33.9967 33.9276 33.904 34.1497 33.7399 34.3137C33.5759 34.4778 33.3537 34.5704 33.1217 34.5716H30.5669C30.3349 34.5704 30.1128 34.4778 29.9487 34.3137C29.7847 34.1497 29.692 33.9276 29.6908 33.6956V28.3595C29.6922 28.1276 29.7849 27.9055 29.9489 27.7415C30.1129 27.5774 30.335 27.4847 30.5669 27.4834V27.4833ZM8.60454 16.7655C8.46385 16.7655 8.32891 16.7096 8.22943 16.6101C8.12994 16.5106 8.07405 16.3757 8.07405 16.235C8.07405 16.0943 8.12994 15.9594 8.22943 15.8599C8.32891 15.7604 8.46385 15.7045 8.60454 15.7045H13.9676C14.1083 15.7045 14.2432 15.7604 14.3427 15.8599C14.4422 15.9594 14.4981 16.0943 14.4981 16.235C14.4981 16.3757 14.4422 16.5106 14.3427 16.6101C14.2432 16.7096 14.1083 16.7655 13.9676 16.7655H8.60454ZM3.31376 16.7655C3.17306 16.7655 3.03813 16.7096 2.93864 16.6101C2.83916 16.5106 2.78327 16.3757 2.78327 16.235C2.78327 16.0943 2.83916 15.9594 2.93864 15.8599C3.03813 15.7604 3.17306 15.7045 3.31376 15.7045H5.67551C5.8162 15.7045 5.95113 15.7604 6.05062 15.8599C6.15011 15.9594 6.206 16.0943 6.206 16.235C6.206 16.3757 6.15011 16.5106 6.05062 16.6101C5.95113 16.7096 5.8162 16.7655 5.67551 16.7655H3.31376ZM12.0064 20.6647C11.8669 20.663 11.7336 20.6063 11.6356 20.507C11.5375 20.4077 11.4825 20.2737 11.4825 20.1342C11.4825 19.9946 11.5375 19.8607 11.6356 19.7614C11.7336 19.6621 11.8669 19.6054 12.0064 19.6036H13.9672C14.1067 19.6054 14.24 19.6621 14.338 19.7614C14.4361 19.8607 14.4911 19.9946 14.4911 20.1342C14.4911 20.2737 14.4361 20.4077 14.338 20.507C14.24 20.6063 14.1067 20.663 13.9672 20.6647H12.0064ZM3.31376 20.6647C3.1742 20.663 3.04095 20.6063 2.94288 20.507C2.84482 20.4077 2.78982 20.2737 2.78982 20.1342C2.78982 19.9946 2.84482 19.8607 2.94288 19.7614C3.04095 19.6621 3.1742 19.6054 3.31376 19.6036H10.0468C10.1864 19.6054 10.3196 19.6621 10.4177 19.7614C10.5158 19.8607 10.5708 19.9946 10.5708 20.1342C10.5708 20.2737 10.5158 20.4077 10.4177 20.507C10.3196 20.6063 10.1864 20.663 10.0468 20.6647H3.31376ZM3.31376 24.5639C3.17306 24.5639 3.03813 24.508 2.93864 24.4085C2.83916 24.309 2.78327 24.1741 2.78327 24.0334C2.78327 23.8927 2.83916 23.7577 2.93864 23.6583C3.03813 23.5588 3.17306 23.5029 3.31376 23.5029H13.9676C14.1083 23.5029 14.2432 23.5588 14.3427 23.6583C14.4422 23.7577 14.4981 23.8927 14.4981 24.0334C14.4981 24.1741 14.4422 24.309 14.3427 24.4085C14.2432 24.508 14.1083 24.5639 13.9676 24.5639H3.31376ZM9.19691 28.463C9.05622 28.463 8.92128 28.4071 8.8218 28.3076C8.72231 28.2081 8.66642 28.0732 8.66642 27.9325C8.66642 27.7918 8.72231 27.6569 8.8218 27.5574C8.92128 27.4579 9.05622 27.402 9.19691 27.402H13.9672C14.1079 27.402 14.2428 27.4579 14.3423 27.5574C14.4418 27.6569 14.4977 27.7918 14.4977 27.9325C14.4977 28.0732 14.4418 28.2081 14.3423 28.3076C14.2428 28.4071 14.1079 28.463 13.9672 28.463H9.19691ZM3.31376 28.463C3.17306 28.463 3.03813 28.4071 2.93864 28.3076C2.83916 28.2081 2.78327 28.0732 2.78327 27.9325C2.78327 27.7918 2.83916 27.6569 2.93864 27.5574C3.03813 27.4579 3.17306 27.402 3.31376 27.402H6.56962C6.71032 27.402 6.84525 27.4579 6.94474 27.5574C7.04422 27.6569 7.10011 27.7918 7.10011 27.9325C7.10011 28.0732 7.04422 28.2081 6.94474 28.3076C6.84525 28.4071 6.71032 28.463 6.56962 28.463H3.31376ZM3.31376 32.3622C3.1742 32.3605 3.04095 32.3038 2.94288 32.2045C2.84482 32.1052 2.78982 31.9713 2.78982 31.8317C2.78982 31.6921 2.84482 31.5582 2.94288 31.4589C3.04095 31.3596 3.1742 31.3029 3.31376 31.3012H13.9676C14.1071 31.3029 14.2404 31.3596 14.3385 31.4589C14.4365 31.5582 14.4915 31.6921 14.4915 31.8317C14.4915 31.9713 14.4365 32.1052 14.3385 32.2045C14.2404 32.3038 14.1071 32.3605 13.9676 32.3622H3.31376ZM10.7738 8.79076C10.6342 8.78901 10.501 8.73235 10.4029 8.63304C10.3048 8.53374 10.2498 8.39979 10.2498 8.26023C10.2498 8.12066 10.3048 7.98671 10.4029 7.88741C10.501 7.7881 10.6342 7.73144 10.7738 7.72969H16.6267C16.7662 7.73144 16.8995 7.7881 16.9976 7.88741C17.0956 7.98671 17.1506 8.12066 17.1506 8.26023C17.1506 8.39979 17.0956 8.53374 16.9976 8.63304C16.8995 8.73235 16.7662 8.78901 16.6267 8.79076H10.7738ZM10.7738 11.7691C10.6331 11.7691 10.4981 11.7132 10.3986 11.6138C10.2992 11.5143 10.2433 11.3793 10.2433 11.2386C10.2433 11.0979 10.2992 10.963 10.3986 10.8635C10.4981 10.764 10.6331 10.7081 10.7738 10.7081H17.7125C17.8532 10.7081 17.9881 10.764 18.0876 10.8635C18.1871 10.963 18.243 11.0979 18.243 11.2386C18.243 11.3793 18.1871 11.5143 18.0876 11.6138C17.9881 11.7132 17.8532 11.7691 17.7125 11.7691H10.7738Z" fill="#DAA7EE"/>
</svg>
