<svg width="38" height="38" viewBox="0 0 38 38" fill="none" xmlns="http://www.w3.org/2000/svg">
<g clip-path="url(#clip0_1915_7036)">
<path d="M17.4314 35.8603H15.5622C15.338 35.8603 15.1562 35.6786 15.1562 35.4543C15.1562 35.2301 15.338 35.0483 15.5622 35.0483H17.4314C17.6556 35.0483 17.8374 35.2301 17.8374 35.4543C17.8374 35.6786 17.6556 35.8603 17.4314 35.8603Z" fill="#DAA7EE"/>
<path d="M32.9731 21.0668C33.2646 21.0668 33.5009 20.8305 33.5009 20.539C33.5009 20.2475 33.2646 20.0112 32.9731 20.0112C32.6816 20.0112 32.4453 20.2475 32.4453 20.539C32.4453 20.8305 32.6816 21.0668 32.9731 21.0668Z" fill="#DAA7EE"/>
<path d="M16.271 28.0299C14.7345 28.0299 13.4844 26.7793 13.4844 25.242C13.4844 23.7047 14.7345 22.4541 16.271 22.4541C17.8075 22.4541 19.0575 23.7047 19.0575 25.242C19.0575 26.7793 17.8075 28.0299 16.271 28.0299ZM16.271 23.2661C15.1821 23.2661 14.2963 24.1525 14.2963 25.242C14.2963 26.3315 15.1821 27.2179 16.271 27.2179C17.3598 27.2179 18.2456 26.3315 18.2456 25.242C18.2456 24.1525 17.3598 23.2661 16.271 23.2661Z" fill="#DAA7EE"/>
<path d="M24.9875 24.9543C24.7927 24.7605 20.1721 20.2056 16.2679 20.2056C12.3636 20.2056 7.74311 24.7605 7.54832 24.9543C7.39014 25.1056 7.39014 25.3786 7.54832 25.5299C7.74311 25.7238 12.3636 30.2787 16.2679 30.2787C20.1721 30.2787 24.7927 25.7237 24.9875 25.5299C25.1456 25.3786 25.1456 25.1056 24.9875 24.9543ZM8.42475 25.242C9.01822 24.6935 10.4184 23.4656 12.0642 22.4742C11.5396 23.2689 11.2338 24.2204 11.2338 25.2421C11.2338 26.2639 11.5405 27.2148 12.0652 28.0095C10.4193 27.0181 9.01854 25.7903 8.42475 25.242ZM16.2679 29.5049C13.9174 29.5049 12.005 27.5927 12.005 25.2421C12.005 22.8916 13.9173 20.9793 16.2679 20.9793C18.6184 20.9793 20.5307 22.8916 20.5307 25.2421C20.5307 27.5927 18.6184 29.5049 16.2679 29.5049ZM20.4695 28.0112C20.995 27.2162 21.3019 26.2646 21.3019 25.242C21.3019 24.2203 20.9956 23.2694 20.4709 22.4748C22.1166 23.4663 23.5172 24.6938 24.1109 25.2421C23.5172 25.791 22.1163 27.0196 20.4695 28.0112Z" fill="#DAA7EE"/>
<path d="M37.8545 5.12139L34.9311 2.18435C34.7798 2.02626 34.5069 2.02626 34.3556 2.18435L32.5851 3.96296C31.8033 3.50347 30.9536 3.14759 30.0545 2.91569V0.405983C30.0545 0.181718 29.8727 0 29.6485 0H25.514C25.2899 0 25.1081 0.181718 25.1081 0.405983V2.91577C24.2057 3.14856 23.3531 3.50615 22.569 3.96808L20.8166 2.20765C20.6653 2.04956 20.3924 2.04956 20.2411 2.20765L17.3176 5.1447C17.1599 5.30311 17.1599 5.55912 17.3176 5.71754L19.0584 7.46627C18.1805 8.94445 17.6753 10.6688 17.6753 12.5092C17.6704 12.8248 17.6817 13.1365 17.7075 13.444H3.80233C2.65794 13.444 1.72686 14.3775 1.72686 15.525L1.72605 32.9199H0.42942C0.205237 32.9199 0.0234375 33.1017 0.0234375 33.3259V35.0813C0.0234375 36.6907 1.32892 38 2.9336 38H30.0652C31.67 38 32.9754 36.6907 32.9754 35.0813V33.3259C32.9754 33.1017 32.7936 32.9199 32.5695 32.9199H31.2719L31.2725 21.4256C31.2801 21.1517 30.9805 20.9429 30.7261 21.0447C24.9531 23.2787 18.374 18.714 18.4872 12.5092C18.4872 7.49477 22.5668 3.41521 27.5812 3.41521C32.5957 3.41521 36.6753 7.49477 36.6753 12.5092C36.6753 14.7946 35.8242 16.9793 34.2789 18.6609C34.1272 18.826 34.138 19.0828 34.3031 19.2345C34.4682 19.3863 34.7251 19.3754 34.8767 19.2102C36.5601 17.3785 37.4871 14.9987 37.4871 12.5092C37.4871 10.6653 36.9801 8.93771 36.099 7.45766L37.8544 5.69423C38.0122 5.5359 38.0122 5.27981 37.8545 5.12139ZM32.1635 33.7319V35.0813C32.1635 36.243 31.2222 37.188 30.0652 37.188H2.9336C1.77663 37.188 0.835322 36.2429 0.835322 35.0813V33.7319H32.1635ZM30.4605 21.99L30.46 32.9199H27.894L27.8944 24.4439C27.8944 24.2197 27.7127 24.0379 27.4884 24.0379C27.2642 24.0379 27.0824 24.2196 27.0824 24.4439L27.082 32.9199H5.91628L5.91685 17.6061H16.071C16.2952 17.6061 16.477 17.4244 16.477 17.2001C16.477 16.9759 16.2952 16.7941 16.071 16.7941H5.51087C5.28668 16.7941 5.10488 16.9759 5.10488 17.2001L5.10431 32.9199H2.53801L2.53883 15.5249C2.53883 14.8252 3.10566 14.2558 3.80233 14.2558H17.8121C18.7895 19.8862 24.8159 23.7886 30.4605 21.99ZM19.5113 6.77041L18.1781 5.43116L20.5288 3.06956L21.8717 4.41864C20.9593 5.06439 20.1603 5.86036 19.5113 6.77041ZM25.92 2.74323V0.811966H29.2425V2.74323C28.7022 2.65164 28.1473 2.60316 27.5813 2.60316C27.0152 2.60324 26.4604 2.65164 25.92 2.74323ZM35.6455 6.76246C34.9956 5.85314 34.1959 5.0579 33.2828 4.41295L34.6433 3.04617L36.994 5.40777L35.6455 6.76246Z" fill="#DAA7EE"/>
<path d="M32.2809 16.9537L28.9933 13.4154C29.4671 13.0572 30.3175 12.3979 31.8722 11.1652C32.7547 10.5174 31.9114 9.05584 30.909 9.4956C27.1958 10.9614 26.9163 11.1226 26.8245 11.1756C26.0943 11.5768 25.8254 12.579 26.2571 13.2917C26.5439 13.7879 27.0659 14.0656 27.6019 14.0656C27.8462 14.0656 28.0931 14.0071 28.3222 13.8861L31.3984 17.1969C30.3217 18.0588 28.987 18.5293 27.5971 18.5293C24.2521 18.5293 21.5307 15.8287 21.5307 12.5092C21.5307 9.32508 24.0346 6.71039 27.1911 6.50245V8.83263C27.1911 9.05689 27.3729 9.23861 27.5971 9.23861C27.8213 9.23861 28.0031 9.05689 28.0031 8.83263V6.08323C28.0031 5.85896 27.8213 5.67725 27.5971 5.67725C23.8044 5.67725 20.7188 8.74209 20.7188 12.5093C20.7188 16.2765 23.8043 19.3413 27.5971 19.3413C29.3276 19.3413 30.9828 18.6978 32.2576 17.5294C32.4223 17.3846 32.4332 17.1113 32.2809 16.9537ZM27.9685 13.1551C27.6161 13.3585 27.1635 13.2375 26.9601 12.8854C26.7547 12.5463 26.8829 12.0699 27.2301 11.8789C27.3262 11.8235 27.906 11.5539 31.2072 10.2507C31.3693 10.1797 31.5272 10.4007 31.3677 10.529C28.5874 12.7333 28.0644 13.0998 27.9685 13.1551C27.9685 13.1551 27.9685 13.1551 27.9685 13.1551Z" fill="#DAA7EE"/>
<path d="M34.9493 14.5718C34.8211 14.3878 34.568 14.3427 34.3841 14.4709L34.128 14.6496C34.3564 13.9627 34.4752 13.2407 34.4752 12.5092C34.4752 9.56781 32.5869 6.96351 29.7765 6.0287C29.5637 5.95789 29.3339 6.07295 29.2631 6.28576C29.1923 6.4985 29.3074 6.72837 29.5202 6.79909C31.9983 7.6234 33.6633 9.91809 33.6633 12.5092C33.6633 13.1845 33.5485 13.8509 33.3277 14.4817L33.251 13.9962C33.216 13.7746 33.0079 13.6237 32.7866 13.6586C32.5651 13.6936 32.414 13.9014 32.449 14.1229L32.7303 15.9029C32.7689 16.1914 33.1291 16.3442 33.3635 16.1726L34.8487 15.137C35.0324 15.0087 35.0776 14.7557 34.9493 14.5718Z" fill="#DAA7EE"/>
</g>
<defs>
<clipPath id="clip0_1915_7036">
<rect width="38" height="38" fill="white"/>
</clipPath>
</defs>
</svg>
