<svg width="20" height="18" viewBox="0 0 20 18" fill="none" xmlns="http://www.w3.org/2000/svg">
<path d="M19.2824 0.274902H0.717617C0.321914 0.274902 0 0.596816 0 0.992519V12.4919C0 12.8876 0.321914 13.2095 0.717617 13.2095H1.05785L0.18207 14.0853C-0.0467188 14.3141 -0.0467188 14.685 0.18207 14.9138C0.296445 15.0281 0.446406 15.0854 0.596289 15.0854C0.746172 15.0854 0.896172 15.0282 1.01051 14.9138L2.7148 13.2095H8.13418V15.5833C7.1682 15.7367 6.22488 16.0094 5.31449 16.4006C5.01719 16.5283 4.87977 16.8728 5.0075 17.1701C5.1352 17.4673 5.4798 17.6048 5.77699 17.477C7.11895 16.9005 8.54 16.6079 10.0006 16.6073C10.0019 16.6073 10.0031 16.6073 10.0045 16.6073C11.4636 16.6073 12.8837 16.899 14.2244 17.4739L14.2318 17.4771C14.3072 17.5095 14.3855 17.5248 14.4628 17.5248C14.6898 17.5248 14.906 17.392 15.0013 17.1701C15.129 16.8729 14.9916 16.5283 14.6943 16.4006L14.6866 16.3972C13.7757 16.0067 12.8321 15.7346 11.8659 15.5818V13.2094H19.2824C19.6781 13.2094 20 12.8875 20 12.4918V0.992519C20 0.596816 19.6781 0.274902 19.2824 0.274902ZM10.6942 15.4563C10.4652 15.4432 10.2353 15.4358 10.0045 15.4358C10.003 15.4358 10.0015 15.4358 10.0002 15.4358C9.76773 15.4359 9.53633 15.4435 9.30582 15.4569V13.2095H10.6942V15.4563ZM18.8284 12.0378H3.88648L5.35668 10.5676C5.82301 10.8055 6.35059 10.9398 6.90895 10.9398C8.79898 10.9398 10.3366 9.40217 10.3366 7.51213C10.3366 5.62209 8.79895 4.08447 6.90895 4.08447C5.01895 4.08447 3.48129 5.62209 3.48129 7.51213C3.48129 8.41811 3.83477 9.24299 4.41086 9.85647L2.22953 12.0378H1.17164V1.44654H18.8284V12.0378ZM4.65293 7.51217C4.65293 6.26818 5.66496 5.25615 6.90895 5.25615C8.15293 5.25615 9.16496 6.26818 9.16496 7.51217C9.16496 8.75615 8.15293 9.76818 6.90895 9.76818C5.66496 9.76818 4.65293 8.75611 4.65293 7.51217Z" fill="#DAA7EE"/>
<path d="M11.8441 7.59961C11.5206 7.59961 11.2583 7.86191 11.2583 8.18543V10.4464C11.2583 10.77 11.5206 11.0323 11.8441 11.0323C12.1676 11.0323 12.4299 10.77 12.4299 10.4464V8.18543C12.4299 7.86191 12.1677 7.59961 11.8441 7.59961Z" fill="#DAA7EE"/>
<path d="M13.6796 3.69434C13.3561 3.69434 13.0938 3.95664 13.0938 4.28016V10.4467C13.0938 10.7702 13.3561 11.0325 13.6796 11.0325C14.0031 11.0325 14.2654 10.7702 14.2654 10.4467V4.28016C14.2654 3.95664 14.0031 3.69434 13.6796 3.69434Z" fill="#DAA7EE"/>
<path d="M15.5463 5.25586C15.2228 5.25586 14.9604 5.51816 14.9604 5.84168V10.446C14.9604 10.7695 15.2227 11.0318 15.5463 11.0318C15.8698 11.0318 16.1321 10.7695 16.1321 10.446V5.84168C16.1321 5.51816 15.8698 5.25586 15.5463 5.25586Z" fill="#DAA7EE"/>
<path d="M17.4139 6.81836C17.0904 6.81836 16.8281 7.08066 16.8281 7.40418V10.4463C16.8281 10.7698 17.0904 11.0321 17.4139 11.0321C17.7375 11.0321 17.9998 10.7698 17.9998 10.4463V7.40418C17.9998 7.08066 17.7375 6.81836 17.4139 6.81836Z" fill="#DAA7EE"/>
</svg>
