<svg width="26" height="26" viewBox="0 0 26 26" fill="none" xmlns="http://www.w3.org/2000/svg">
<path d="M24.1748 11.1756C23.3079 11.1756 22.5807 11.7834 22.3953 12.595H19.3848C19.2929 11.1359 18.7104 9.80845 17.7998 8.77601L19.9302 6.64663C20.2263 6.83199 20.564 6.92544 20.9017 6.92544C21.3695 6.92544 21.8377 6.74769 22.1942 6.3922C22.9057 5.67919 22.9052 4.5203 22.1937 3.80881C22.1937 3.80881 22.1937 3.80881 22.1932 3.8083C21.4817 3.09783 20.3233 3.09783 19.6108 3.80881C18.9978 4.42178 18.9135 5.36636 19.3564 6.07226L17.226 8.20164C16.193 7.29159 14.8655 6.70859 13.407 6.61667V3.60771C14.2196 3.42234 14.828 2.69461 14.828 1.82671C14.8275 0.819656 14.0078 0 13.0007 0C11.9942 0 11.1756 0.819656 11.1756 1.82671C11.1756 2.6941 11.7834 3.42234 12.595 3.6072V6.61616C11.1365 6.70808 9.80896 7.29108 8.77652 8.20164L6.64714 6.07226C7.09048 5.36636 7.00567 4.42127 6.39271 3.8078C5.67919 3.09733 4.51979 3.09733 3.80881 3.80881C3.09733 4.51979 3.09682 5.67868 3.80881 6.3922C4.16481 6.7482 4.63202 6.92594 5.10025 6.92594C5.43848 6.92594 5.7767 6.8325 6.07277 6.64663L8.20215 8.77601C7.2926 9.80845 6.71011 11.136 6.61819 12.5945H3.60771C3.42234 11.7829 2.69461 11.1751 1.82721 11.1751C0.819656 11.1756 0 11.9942 0 13.0007C0 14.0078 0.819656 14.8274 1.82671 14.8274C2.69461 14.8274 3.42234 14.2191 3.60771 13.4065H6.61819C6.71011 14.865 7.2926 16.1925 8.20215 17.225L6.07226 19.3559C5.36636 18.9125 4.42127 18.9973 3.8083 19.6103C3.09783 20.3233 3.09783 21.4817 3.80881 22.1942C4.1643 22.5497 4.63202 22.7279 5.09974 22.7279C5.56747 22.7279 6.0357 22.5502 6.39271 22.1942C7.00466 21.5807 7.08896 20.6361 6.64663 19.9307L8.77652 17.7998C9.80896 18.7104 11.1365 19.2934 12.595 19.3853V22.3958C11.7834 22.5812 11.1756 23.3079 11.1756 24.1753C11.1756 25.1823 11.9942 26.002 13.0007 26.002C14.0078 26.002 14.8274 25.1823 14.8274 24.1753C14.8274 23.3084 14.2191 22.5812 13.4065 22.3958V19.3853C14.8655 19.2934 16.193 18.7109 17.2255 17.8004L19.3559 19.9307C18.9135 20.6361 18.9978 21.5807 19.6103 22.1947C19.9663 22.5497 20.434 22.7274 20.9017 22.7274C21.3695 22.7274 21.8372 22.5497 22.1932 22.1947L22.1937 22.1942C22.9042 21.4822 22.9042 20.3233 22.1932 19.6103C21.5797 18.9984 20.6356 18.9141 19.9297 19.3564L17.7998 17.226C18.7099 16.193 19.2929 14.8655 19.3848 13.407H22.3953C22.5802 14.2196 23.3079 14.828 24.1748 14.828C25.1818 14.828 26.0015 14.0083 26.0015 13.0013C26.0015 11.9942 25.1818 11.1756 24.1748 11.1756ZM20.1842 4.38318C20.3822 4.18563 20.6422 4.08711 20.9023 4.08711C21.1623 4.08711 21.4223 4.18563 21.6203 4.38318C22.0154 4.77828 22.0149 5.42222 21.6203 5.81783C21.2242 6.21293 20.5803 6.21293 20.1847 5.81834C19.7896 5.42222 19.7896 4.77777 20.1842 4.38318ZM11.9871 1.82671C11.9871 1.26706 12.4416 0.812039 13.0007 0.812039C13.5604 0.812039 14.0154 1.26706 14.0154 1.82671C14.0154 2.38635 13.5604 2.84188 13.0007 2.84188C12.4421 2.84188 11.9871 2.38635 11.9871 1.82671ZM4.38318 5.81834C3.98757 5.42172 3.98757 4.77777 4.38267 4.38267C4.58022 4.18512 4.84024 4.08609 5.10025 4.08609C5.36027 4.08609 5.62028 4.18512 5.81834 4.38267C6.21344 4.77777 6.21344 5.42172 5.81834 5.81834C5.42172 6.21344 4.77777 6.21344 4.38318 5.81834ZM1.82671 14.0154C1.26706 14.0154 0.812039 13.5604 0.812039 13.0007C0.812039 12.4421 1.26706 11.9871 1.82671 11.9871C2.38635 11.9871 2.84188 12.4421 2.84188 13.0007C2.84188 13.5604 2.38635 14.0154 1.82671 14.0154ZM5.81885 21.6198C5.42222 22.0154 4.77828 22.0154 4.38318 21.6203C3.98808 21.2242 3.98808 20.5803 4.38267 20.1847C4.58022 19.9871 4.83973 19.8886 5.09974 19.8886C5.35976 19.8886 5.61977 19.9876 5.81783 20.1847C6.21293 20.5808 6.21293 21.2247 5.81885 21.6198ZM14.0154 24.1743C14.0154 24.7339 13.5604 25.1889 13.0007 25.1889C12.4421 25.1889 11.9871 24.7339 11.9871 24.1743C11.9871 23.6156 12.4416 23.1606 13.0007 23.1606C13.5604 23.1611 14.0154 23.6156 14.0154 24.1743ZM20.9028 19.8886C21.1628 19.8886 21.4223 19.9871 21.6198 20.1842C22.0144 20.5798 22.0149 21.2242 21.6203 21.6198C21.2242 22.0144 20.5803 22.0144 20.1852 21.6203C19.7901 21.2242 19.7901 20.5803 20.1847 20.1847C20.3822 19.9876 20.6427 19.8886 20.9028 19.8886ZM13.0007 18.586C9.9217 18.586 7.41652 16.0803 7.41652 13.0007C7.41652 9.92119 9.9217 7.4155 13.0007 7.4155C16.0808 7.4155 18.586 9.92119 18.586 13.0007C18.586 16.0803 16.0808 18.586 13.0007 18.586ZM24.1748 14.0154C23.6162 14.0154 23.1611 13.5604 23.1611 13.0007C23.1611 12.4421 23.6156 11.9871 24.1748 11.9871C24.7344 11.9871 25.1894 12.4416 25.1894 13.0007C25.1894 13.5604 24.7339 14.0154 24.1748 14.0154ZM15.8279 11.9526H14.0499V9.21174C14.0499 9.03856 13.9403 8.88418 13.7762 8.82781C13.6127 8.77144 13.4309 8.82476 13.3242 8.96137L9.85467 13.3938C9.75919 13.5162 9.74142 13.6823 9.80947 13.8219C9.87752 13.9616 10.0192 14.0499 10.1746 14.0499H11.9526V16.7908C11.9526 16.9639 12.0623 17.1183 12.2263 17.1747C12.2695 17.1894 12.3141 17.197 12.3583 17.197C12.4807 17.197 12.5995 17.1417 12.6783 17.0411L16.1473 12.6087C16.2428 12.4863 16.2606 12.3202 16.1925 12.1806C16.125 12.0414 15.9833 11.9526 15.8279 11.9526ZM12.7646 15.6136V13.6442C12.7646 13.4197 12.5828 13.2384 12.3588 13.2384H11.0085L13.2384 10.3894V12.3588C13.2384 12.5833 13.4202 12.7646 13.6442 12.7646H14.9945L12.7646 15.6136Z" fill="#DAA7EE"/>
</svg>
