<svg width="38" height="38" viewBox="0 0 38 38" fill="none" xmlns="http://www.w3.org/2000/svg">
<g clip-path="url(#clip0_961_16129)">
<path d="M27.8665 11.6361V1.90012C27.8665 0.850617 27.0159 0 25.9667 0H12.0333C10.9841 0 10.1335 0.850617 10.1335 1.90012V11.6361C0.00753784 12.2017 0 13.324 0 13.9334V19C0 19.6335 0.364716 20.2478 4.26555 20.7734L15.0612 28.885C15.5477 29.2419 15.8344 29.8096 15.8332 30.4126V36.7334C15.8332 37.4329 16.4003 38 17.0999 38C17.337 37.9997 17.5693 37.9339 17.7713 37.8101L21.2799 35.6137C21.8322 35.2646 22.1671 34.657 22.1668 34.0038V30.4126C22.1665 29.8067 22.4558 29.237 22.9458 28.8801L33.7345 20.7734C37.6353 20.2478 38 19.6335 38 19V13.9334C38 13.324 37.9925 12.2017 27.8665 11.6361ZM36.7334 18.8101C35.7094 19.4433 29.2187 20.2666 19 20.2666C8.7813 20.2666 2.29063 19.4384 1.26665 18.8101V15.1061C2.79654 15.5271 4.36441 15.7953 5.94707 15.9075C9.4368 16.2684 14.0703 16.4667 19 16.4667C23.9297 16.4667 28.5632 16.2684 32.0529 15.9075C33.6356 15.7953 35.2035 15.5271 36.7334 15.1061V18.8101ZM26.5999 10.1335H11.4001V6.33324H26.5999V10.1335ZM11.4001 11.4001H26.5999V15.031C24.3765 15.1366 21.8322 15.2001 19 15.2001C16.1678 15.2001 13.6235 15.1366 11.4001 15.031V11.4001ZM36.2666 13.9372C35.0684 14.3115 32.1593 14.7162 27.8665 14.9638V12.9059C32.7566 13.184 35.2411 13.6165 36.2666 13.9372ZM11.4001 1.90012C11.4001 1.55019 11.6837 1.26665 12.0333 1.26665H25.9667C26.3163 1.26665 26.5999 1.55019 26.5999 1.90012V5.06659H11.4001V1.90012ZM10.1335 12.9059V14.9638C5.84067 14.7162 2.93164 14.3132 1.73341 13.9372C2.75885 13.6165 5.24344 13.184 10.1335 12.9059ZM22.1926 27.861C21.3802 28.4574 20.9004 29.4048 20.9001 30.4126V34.0038C20.8975 34.2221 20.7853 34.4247 20.6018 34.5433L17.0999 36.7334V30.4126C17.101 29.408 16.6238 28.4626 15.815 27.8665L6.73854 21.0483C10.1251 21.3605 14.4306 21.5333 19 21.5333C23.5694 21.5333 27.8749 21.3605 31.2615 21.0483L22.1926 27.861Z" fill="#DAA7EE"/>
<path d="M13.9334 2.5332H13.2999C12.9503 2.5332 12.6667 2.81674 12.6667 3.16667C12.6667 3.51631 12.9503 3.79985 13.2999 3.79985H13.9334C14.283 3.79985 14.5666 3.51631 14.5666 3.16667C14.5666 2.81674 14.283 2.5332 13.9334 2.5332Z" fill="#DAA7EE"/>
<path d="M17.0999 2.5332H16.4667C16.1168 2.5332 15.8333 2.81674 15.8333 3.16667C15.8333 3.51631 16.1168 3.79985 16.4667 3.79985H17.0999C17.4498 3.79985 17.7334 3.51631 17.7334 3.16667C17.7334 2.81674 17.4498 2.5332 17.0999 2.5332Z" fill="#DAA7EE"/>
<path d="M13.2999 8.8665H13.9334C14.283 8.8665 14.5666 8.58296 14.5666 8.23332C14.5666 7.88339 14.283 7.59985 13.9334 7.59985H13.2999C12.9503 7.59985 12.6667 7.88339 12.6667 8.23332C12.6667 8.58296 12.9503 8.8665 13.2999 8.8665Z" fill="#DAA7EE"/>
<path d="M16.4667 8.8665H17.0999C17.4498 8.8665 17.7334 8.58296 17.7334 8.23332C17.7334 7.88339 17.4498 7.59985 17.0999 7.59985H16.4667C16.1168 7.59985 15.8333 7.88339 15.8333 8.23332C15.8333 8.58296 16.1168 8.8665 16.4667 8.8665Z" fill="#DAA7EE"/>
<path d="M24.7 2.5332H22.7999C22.4503 2.5332 22.1667 2.81674 22.1667 3.16667C22.1667 3.51631 22.4503 3.79985 22.7999 3.79985H24.7C25.0497 3.79985 25.3332 3.51631 25.3332 3.16667C25.3332 2.81674 25.0497 2.5332 24.7 2.5332Z" fill="#DAA7EE"/>
<path d="M22.7999 8.8665H24.7C25.0497 8.8665 25.3332 8.58296 25.3332 8.23332C25.3332 7.88339 25.0497 7.59985 24.7 7.59985H22.7999C22.4503 7.59985 22.1667 7.88339 22.1667 8.23332C22.1667 8.58296 22.4503 8.8665 22.7999 8.8665Z" fill="#DAA7EE"/>
<path d="M13.9334 12.6667H13.2999C12.9503 12.6667 12.6667 12.9503 12.6667 13.2999C12.6667 13.6499 12.9503 13.9334 13.2999 13.9334H13.9334C14.283 13.9334 14.5666 13.6499 14.5666 13.2999C14.5666 12.9503 14.283 12.6667 13.9334 12.6667Z" fill="#DAA7EE"/>
<path d="M17.0999 12.6667H16.4667C16.1168 12.6667 15.8333 12.9503 15.8333 13.2999C15.8333 13.6499 16.1168 13.9334 16.4667 13.9334H17.0999C17.4498 13.9334 17.7334 13.6499 17.7334 13.2999C17.7334 12.9503 17.4498 12.6667 17.0999 12.6667Z" fill="#DAA7EE"/>
<path d="M22.7999 13.9334H24.7C25.0497 13.9334 25.3332 13.6499 25.3332 13.2999C25.3332 12.9503 25.0497 12.6667 24.7 12.6667H22.7999C22.4503 12.6667 22.1667 12.9503 22.1667 13.2999C22.1667 13.6499 22.4503 13.9334 22.7999 13.9334Z" fill="#DAA7EE"/>
<path d="M5.70012 0C5.35019 0 5.06665 0.283539 5.06665 0.633469V7.3378L4.24793 6.51878C3.99947 6.27902 3.60431 6.28221 3.35991 6.52661C3.1158 6.77101 3.11232 7.16588 3.35238 7.41434L5.2522 9.31445C5.37107 9.43361 5.53255 9.50058 5.7007 9.50058C5.86886 9.50058 6.03034 9.43361 6.1492 9.31445L8.04903 7.41434C8.28908 7.16588 8.2856 6.77101 8.04149 6.52661C7.79709 6.28221 7.40194 6.27902 7.15348 6.51878L6.3333 7.3378V0.633469C6.3333 0.283539 6.04976 0 5.70012 0Z" fill="#DAA7EE"/>
<path d="M32.2999 0C31.9503 0 31.6668 0.283539 31.6668 0.633469V7.3378L30.8477 6.51878C30.5993 6.27902 30.2041 6.28221 29.96 6.52661C29.7156 6.77101 29.7121 7.16588 29.9522 7.41434L31.8523 9.31445C31.9712 9.43361 32.1324 9.50058 32.3005 9.50058C32.469 9.50058 32.6302 9.43361 32.749 9.31445L34.6491 7.41434C34.8892 7.16588 34.8857 6.77101 34.6413 6.52661C34.3969 6.28221 34.002 6.27902 33.7536 6.51878L32.9334 7.3378V0.633469C32.9334 0.283539 32.6499 0 32.2999 0Z" fill="#DAA7EE"/>
</g>
<defs>
<clipPath id="clip0_961_16129">
<rect width="38" height="38" fill="white"/>
</clipPath>
</defs>
</svg>
