<svg width="38" height="31" viewBox="0 0 38 31" fill="none" xmlns="http://www.w3.org/2000/svg">
<path d="M33.25 0H4.75C2.13184 0 0 2.12989 0 4.75V19.95C0 22.5701 2.13184 24.7 4.75 24.7H18.05V28.5H7.6C7.07565 28.5 6.65 28.9257 6.65 29.45C6.65 29.9744 7.07565 30.4 7.6 30.4H30.4C30.9244 30.4 31.35 29.9744 31.35 29.45C31.35 28.9257 30.9244 28.5 30.4 28.5H19.95V24.7H33.25C35.8682 24.7 38 22.5701 38 19.95V4.75C38 2.12989 35.8682 0 33.25 0ZM36.1 19.95C36.1 21.5213 34.8213 22.8 33.25 22.8H4.75C3.1787 22.8 1.9 21.5213 1.9 19.95V4.75C1.9 3.1787 3.1787 1.9 4.75 1.9H33.25C34.8213 1.9 36.1 3.1787 36.1 4.75V19.95Z" fill="#DAA7EE"/>
<rect x="3.60156" y="5.14478" width="6.19831" height="5.68305" rx="0.75" stroke="#DAA7EE" stroke-width="0.5"/>
<path d="M12.5938 5.14478H17.292C17.7062 5.14478 18.042 5.48056 18.042 5.89478V10.0774C18.042 10.4916 17.7062 10.8274 17.292 10.8274H12.5938C12.1795 10.8274 11.8438 10.4916 11.8438 10.0774V5.89478C11.8438 5.48056 12.1795 5.14478 12.5938 5.14478Z" stroke="#DAA7EE" stroke-width="0.5"/>
<path d="M4.35156 13.3887H9.0498C9.46402 13.3887 9.7998 13.7245 9.7998 14.1387V18.3213C9.7998 18.7355 9.46402 19.0713 9.0498 19.0713H4.35156C3.93735 19.0713 3.60156 18.7355 3.60156 18.3213V14.1387C3.60156 13.7245 3.93735 13.3887 4.35156 13.3887Z" stroke="#DAA7EE" stroke-width="0.5"/>
<path d="M12.5938 13.3887H17.292C17.7062 13.3887 18.042 13.7245 18.042 14.1387V18.3213C18.042 18.7355 17.7062 19.0713 17.292 19.0713H12.5938C12.1795 19.0713 11.8438 18.7355 11.8438 18.3213V14.1387C11.8438 13.7245 12.1795 13.3887 12.5938 13.3887Z" stroke="#DAA7EE" stroke-width="0.5"/>
<path d="M20.8359 5.14478H25.5342C25.9484 5.14478 26.2842 5.48056 26.2842 5.89478V10.0774C26.2842 10.4916 25.9484 10.8274 25.5342 10.8274H20.8359C20.4217 10.8274 20.0859 10.4916 20.0859 10.0774V5.89478C20.0859 5.48056 20.4217 5.14478 20.8359 5.14478Z" stroke="#DAA7EE" stroke-width="0.5"/>
<path d="M29.0859 5.14478H33.7842C34.1984 5.14478 34.5342 5.48056 34.5342 5.89478V10.0774C34.5342 10.4916 34.1984 10.8274 33.7842 10.8274H29.0859C28.6717 10.8274 28.3359 10.4916 28.3359 10.0774V5.89478C28.3359 5.48056 28.6717 5.14478 29.0859 5.14478Z" stroke="#DAA7EE" stroke-width="0.5"/>
<path d="M20.8359 13.3887H25.5342C25.9484 13.3887 26.2842 13.7245 26.2842 14.1387V18.3213C26.2842 18.7355 25.9484 19.0713 25.5342 19.0713H20.8359C20.4217 19.0713 20.0859 18.7355 20.0859 18.3213V14.1387C20.0859 13.7245 20.4217 13.3887 20.8359 13.3887Z" stroke="#DAA7EE" stroke-width="0.5"/>
<path d="M29.0859 13.3887H33.7842C34.1984 13.3887 34.5342 13.7245 34.5342 14.1387V18.3213C34.5342 18.7355 34.1984 19.0713 33.7842 19.0713H29.0859C28.6717 19.0713 28.3359 18.7355 28.3359 18.3213V14.1387C28.3359 13.7245 28.6717 13.3887 29.0859 13.3887Z" stroke="#DAA7EE" stroke-width="0.5"/>
</svg>
