<svg width="37" height="37" viewBox="0 0 37 37" fill="none" xmlns="http://www.w3.org/2000/svg">
<path d="M1 15.8805V10.2517H6.61686V23.5152H1V18.369" stroke="#DAA7EE" stroke-width="1.05839" stroke-miterlimit="10" stroke-linecap="round" stroke-linejoin="round"/>
<path d="M14.6218 7.64087H9.00293V23.5151H14.6218V7.64087Z" stroke="#DAA7EE" stroke-width="1.05839" stroke-miterlimit="10" stroke-linecap="round" stroke-linejoin="round"/>
<path d="M8.55054 27.3884H11.1926" stroke="#DAA7EE" stroke-width="1.05839" stroke-miterlimit="10" stroke-linecap="round" stroke-linejoin="round"/>
<path d="M8.55054 29.431H11.1926" stroke="#DAA7EE" stroke-width="1.05839" stroke-miterlimit="10" stroke-linecap="round" stroke-linejoin="round"/>
<path d="M3.42171 26.7979H5.99225C6.15968 26.7979 6.29847 26.9343 6.29847 27.1033V29.6652C6.29847 29.8342 6.15961 29.9706 5.99225 29.9706H3.42171C3.25222 29.9706 3.11548 29.8342 3.11548 29.6652V27.1033C3.11548 26.9343 3.25222 26.7979 3.42171 26.7979Z" stroke="#DAA7EE" stroke-width="1.05839" stroke-miterlimit="10" stroke-linecap="round" stroke-linejoin="round"/>
<path d="M8.55054 33.4857H11.1926" stroke="#DAA7EE" stroke-width="1.05839" stroke-miterlimit="10" stroke-linecap="round" stroke-linejoin="round"/>
<path d="M8.55054 35.5282H11.1926" stroke="#DAA7EE" stroke-width="1.05839" stroke-miterlimit="10" stroke-linecap="round" stroke-linejoin="round"/>
<path d="M21.4971 27.3884H24.1391" stroke="#DAA7EE" stroke-width="1.05839" stroke-miterlimit="10" stroke-linecap="round" stroke-linejoin="round"/>
<path d="M21.4971 29.431H24.1391" stroke="#DAA7EE" stroke-width="1.05839" stroke-miterlimit="10" stroke-linecap="round" stroke-linejoin="round"/>
<path d="M21.4971 33.4857H24.1391" stroke="#DAA7EE" stroke-width="1.05839" stroke-miterlimit="10" stroke-linecap="round" stroke-linejoin="round"/>
<path d="M21.4971 35.5282H24.1391" stroke="#DAA7EE" stroke-width="1.05839" stroke-miterlimit="10" stroke-linecap="round" stroke-linejoin="round"/>
<path d="M24.5858 16.6238C26.1804 15.4508 28.4243 15.7868 29.6024 17.3752C30.7784 18.9657 30.4415 21.2038 28.8489 22.3788C27.2544 23.5518 25.0104 23.2158 23.8324 21.6273C22.6564 20.0369 22.9932 17.7988 24.5858 16.6238Z" stroke="#DAA7EE" stroke-width="1.05839" stroke-miterlimit="10" stroke-linecap="round" stroke-linejoin="round"/>
<path d="M31.5263 25.9508C32.3042 25.3785 33.4088 25.5435 33.9826 26.3194L35.6588 28.5819C36.2326 29.3558 36.0651 30.4595 35.2892 31.0317C34.5113 31.604 33.4067 31.437 32.833 30.6631L31.1567 28.4007C30.583 27.6268 30.7484 26.523 31.5263 25.9508Z" stroke="#DAA7EE" stroke-width="1.05839" stroke-miterlimit="10" stroke-linecap="round" stroke-linejoin="round"/>
<path d="M30.2031 24.238L31.4915 25.9751" stroke="#DAA7EE" stroke-width="1.05839" stroke-miterlimit="10" stroke-linecap="round" stroke-linejoin="round"/>
<path d="M23.2144 14.7747C25.8319 12.8462 29.5213 13.398 31.4549 16.0088C33.3884 18.6195 32.8351 22.2994 30.2175 24.2279C27.6 26.1565 23.9106 25.6026 21.9771 22.9938C20.0436 20.3832 20.5969 16.7032 23.2144 14.7747Z" stroke="#DAA7EE" stroke-width="1.05839" stroke-miterlimit="10" stroke-linecap="round" stroke-linejoin="round"/>
<path d="M22.4135 23.5152H17.009V13.4123M17.009 10.9237V1H22.6279V15.2695" stroke="#DAA7EE" stroke-width="1.05839" stroke-miterlimit="10" stroke-linecap="round" stroke-linejoin="round"/>
<path d="M25.2627 13.8053V6.29883H30.8815V15.3428" stroke="#DAA7EE" stroke-width="1.05839" stroke-miterlimit="10" stroke-linecap="round" stroke-linejoin="round"/>
<path d="M3.42171 32.895H5.99225C6.15968 32.895 6.29847 33.0315 6.29847 33.2005V35.7623C6.29847 35.9314 6.15961 36.0678 5.99225 36.0678H3.42171C3.25222 36.0678 3.11548 35.9313 3.11548 35.7623V33.2005C3.11548 33.0315 3.25222 32.895 3.42171 32.895Z" stroke="#DAA7EE" stroke-width="1.05839" stroke-miterlimit="10" stroke-linecap="round" stroke-linejoin="round"/>
<path d="M16.3682 26.7979H18.9388C19.1062 26.7979 19.245 26.9343 19.245 27.1033V29.6652C19.245 29.8342 19.1061 29.9706 18.9388 29.9706H16.3682C16.2008 29.9706 16.062 29.8342 16.062 29.6652V27.1033C16.0619 26.9343 16.2008 26.7979 16.3682 26.7979Z" stroke="#DAA7EE" stroke-width="1.05839" stroke-miterlimit="10" stroke-linecap="round" stroke-linejoin="round"/>
<path d="M16.3682 32.895H18.9388C19.1062 32.895 19.245 33.0315 19.245 33.2005V35.7623C19.245 35.9314 19.1061 36.0678 18.9388 36.0678H16.3682C16.2008 36.0678 16.062 35.9313 16.062 35.7623V33.2005C16.0619 33.0315 16.2008 32.895 16.3682 32.895Z" stroke="#DAA7EE" stroke-width="1.05839" stroke-miterlimit="10" stroke-linecap="round" stroke-linejoin="round"/>
</svg>
