<svg width="37" height="37" viewBox="0 0 37 37" fill="none" xmlns="http://www.w3.org/2000/svg">
<g clip-path="url(#clip0_1711_13292)">
<mask id="mask0_1711_13292" style="mask-type:luminance" maskUnits="userSpaceOnUse" x="0" y="0" width="37" height="37">
<path d="M0 3.8147e-06H37V37H0V3.8147e-06Z" fill="white"/>
</mask>
<g mask="url(#mask0_1711_13292)">
<path d="M21.9832 5.00664C23.2609 5.33639 24.4679 5.84261 25.5762 6.49806C25.5762 6.49806 26.1101 5.96394 26.7099 5.36421C27.1454 4.9283 27.7363 4.68383 28.3523 4.68383C28.9675 4.68383 29.5586 4.9283 29.994 5.36421C30.5223 5.89254 31.1075 6.47768 31.6357 7.00601C32.0717 7.44141 32.3161 8.0324 32.3161 8.64774C32.3161 9.26373 32.0717 9.85465 31.6357 10.29C31.036 10.8898 30.5019 11.4238 30.5019 11.4238C31.1573 12.5321 31.6635 13.739 31.9934 15.0168H33.5938C34.8763 15.0168 35.916 16.0566 35.916 17.3389V19.6611C35.916 20.9434 34.8763 21.9832 33.5938 21.9832H31.9934C31.6635 23.2609 31.1573 24.4679 30.5019 25.5761C30.5019 25.5761 31.036 26.1102 31.6357 26.7099C32.0717 27.1454 32.3161 27.7363 32.3161 28.3523C32.3161 28.9676 32.0717 29.5586 31.6357 29.994C31.1075 30.5223 30.5223 31.1075 29.994 31.6357C29.5586 32.0717 28.9675 32.3161 28.3523 32.3161C27.7363 32.3161 27.1454 32.0717 26.7099 31.6357C26.1101 31.036 25.5762 30.5019 25.5762 30.5019C24.4679 31.1573 23.2609 31.6636 21.9832 31.9933V33.5938C21.9832 34.8763 20.9434 35.916 19.661 35.916H17.3389C16.0565 35.916 15.0168 34.8763 15.0168 33.5938V31.9933C13.7391 31.6636 12.5321 31.1573 11.4238 30.5019C11.4238 30.5019 10.8898 31.036 10.29 31.6357C9.85465 32.0717 9.26366 32.3161 8.64774 32.3161C8.0324 32.3161 7.44134 32.0717 7.00601 31.6357C6.47775 31.1075 5.89254 30.5223 5.36421 29.994C4.9283 29.5586 4.68382 28.9676 4.68382 28.3523C4.68382 27.7363 4.9283 27.1454 5.36421 26.7099C5.96394 26.1102 6.49805 25.5761 6.49805 25.5761C5.8426 24.4679 5.33646 23.2609 5.00663 21.9832H3.40617C2.12374 21.9832 1.08398 20.9434 1.08398 19.6611V17.3389C1.08398 16.0566 2.12374 15.0168 3.40617 15.0168H5.00663C5.33646 13.739 5.8426 12.5321 6.49805 11.4238C6.49805 11.4238 5.96394 10.8898 5.36421 10.29C4.9283 9.85465 4.68382 9.26373 4.68382 8.64774C4.68382 8.0324 4.9283 7.44141 5.36421 7.00601C5.89254 6.47768 6.47775 5.89254 7.00601 5.36421C7.44134 4.9283 8.0324 4.68383 8.64774 4.68383C9.26366 4.68383 9.85465 4.9283 10.29 5.36421C10.8898 5.96394 11.4238 6.49806 11.4238 6.49806C12.5321 5.84261 13.7391 5.33639 15.0168 5.00664V3.4061C15.0168 2.12367 16.0565 1.08399 17.3389 1.08399H19.661C20.9434 1.08399 21.9832 2.12367 21.9832 3.4061V5.00664Z" stroke="#DAA7EE" stroke-width="2.51953" stroke-miterlimit="10" stroke-linecap="round" stroke-linejoin="round"/>
<path d="M18.4996 11.5335C22.3445 11.5335 25.466 14.655 25.466 18.4999C25.466 22.3447 22.3445 25.4663 18.4996 25.4663C14.6547 25.4663 11.5332 22.3447 11.5332 18.4999C11.5332 14.655 14.6547 11.5335 18.4996 11.5335Z" stroke="#DAA7EE" stroke-width="2.51953" stroke-miterlimit="10" stroke-linecap="round" stroke-linejoin="round"/>
</g>
</g>
<defs>
<clipPath id="clip0_1711_13292">
<rect width="37" height="37" fill="white"/>
</clipPath>
</defs>
</svg>
