<svg width="40" height="35" viewBox="0 0 40 35" fill="none" xmlns="http://www.w3.org/2000/svg">
<path d="M36.8619 0.273438C30.0476 0.273438 21.119 0.273438 14.3044 0.273438C12.5741 0.273438 11.1665 1.68108 11.1665 3.4112V6.26296C11.1665 6.54913 11.3984 6.78113 11.6847 6.78113H14.8473V9.66201C14.8473 9.94818 15.0793 10.1802 15.3655 10.1802C15.6517 10.1802 15.8837 9.94826 15.8837 9.66201V6.78113H34.2422C34.5284 6.78113 34.7604 6.54921 34.7604 6.26296V3.4112C34.7604 2.25245 35.7032 1.30971 36.8621 1.30971C38.027 1.30971 38.9636 2.25549 38.9636 3.4112V32.6257C38.9636 33.2542 38.4521 33.7656 37.8237 33.7656H20.8785C20.5924 33.7656 20.3604 33.9975 20.3604 34.2838C20.3604 34.57 20.5923 34.802 20.8785 34.802H37.8235C39.0236 34.802 39.9997 33.8258 39.9997 32.6258V3.4112C39.9997 1.68204 38.5972 0.273438 36.8619 0.273438ZM33.724 3.4112V5.74486H12.2028V3.4112C12.2028 2.25245 13.1455 1.30971 14.3044 1.30971H34.5335C34.0306 1.86628 33.724 2.60366 33.724 3.4112Z" fill="#DAA7EE"/>
<path d="M2.10982 34.8021H17.5794C18.7427 34.8021 19.6892 33.8556 19.6892 32.6922V13.3264C19.6892 12.163 18.7427 11.2166 17.5794 11.2166H2.10982C0.946425 11.2166 0 12.163 0 13.3264V32.6922C8.00022e-05 33.8556 0.946425 34.8021 2.10982 34.8021ZM1.03635 13.3264C1.03635 12.7344 1.51788 12.2528 2.1099 12.2528H17.5794C18.1714 12.2528 18.653 12.7344 18.653 13.3264V32.6922C18.653 33.2843 18.1714 33.7658 17.5794 33.7658H2.10982C1.5178 33.7658 1.03627 33.2843 1.03627 32.6922L1.03635 13.3264Z" fill="#DAA7EE"/>
<path d="M4.26972 19.2665H15.4202C16.115 19.2665 16.6803 18.7012 16.6803 18.0064V14.8644C16.6803 14.1695 16.115 13.6042 15.4202 13.6042H4.26972C3.57506 13.6042 3.00977 14.1695 3.00977 14.8644V18.0064C3.00985 18.7012 3.57514 19.2665 4.26972 19.2665ZM4.04611 14.8644C4.04611 14.7409 4.14652 14.6405 4.2698 14.6405H15.4203C15.5437 14.6405 15.6441 14.7409 15.6441 14.8644V18.0064C15.6441 18.1298 15.5437 18.2302 15.4203 18.2302H4.26972C4.14644 18.2302 4.04603 18.1298 4.04603 18.0064L4.04611 14.8644Z" fill="#DAA7EE"/>
<path d="M3.56505 20.8333C3.27888 20.8333 3.04688 21.0652 3.04688 21.3514C3.04688 21.6376 3.2788 21.8696 3.56505 21.8696H5.08221C5.36838 21.8696 5.60038 21.6377 5.60038 21.3514C5.60038 21.0653 5.36846 20.8333 5.08221 20.8333H3.56505Z" fill="#DAA7EE"/>
<path d="M9.28105 21.3514C9.28105 21.0653 9.04912 20.8333 8.76287 20.8333H7.24571C6.95955 20.8333 6.72754 21.0652 6.72754 21.3514C6.72754 21.6376 6.95947 21.8696 7.24571 21.8696H8.76287C9.04904 21.8696 9.28105 21.6376 9.28105 21.3514Z" fill="#DAA7EE"/>
<path d="M12.4435 20.8333H10.9264C10.6402 20.8333 10.4082 21.0652 10.4082 21.3514C10.4082 21.6376 10.6401 21.8696 10.9264 21.8696H12.4435C12.7297 21.8696 12.9617 21.6377 12.9617 21.3514C12.9616 21.0652 12.7297 20.8333 12.4435 20.8333Z" fill="#DAA7EE"/>
<path d="M16.124 21.8696C16.4102 21.8696 16.6422 21.6377 16.6422 21.3514C16.6422 21.0653 16.4103 20.8333 16.124 20.8333H14.607C14.3209 20.8333 14.0889 21.0652 14.0889 21.3514C14.0889 21.6376 14.3208 21.8696 14.607 21.8696H16.124Z" fill="#DAA7EE"/>
<path d="M3.94443 27.2083H5.89672C6.41202 27.2083 6.83139 26.789 6.83139 26.2737V24.3214C6.83139 23.8058 6.41202 23.3865 5.89672 23.3865H3.94443C3.42914 23.3865 3.00977 23.8058 3.00977 24.3214V26.2737C3.00977 26.789 3.42906 27.2083 3.94443 27.2083ZM4.04603 24.4227H5.79512V26.1721H4.04603V24.4227Z" fill="#DAA7EE"/>
<path d="M10.821 23.3865H8.86875C8.35345 23.3865 7.93408 23.8058 7.93408 24.3214V26.2737C7.93408 26.789 8.35345 27.2083 8.86875 27.2083H10.821C11.3363 27.2083 11.7557 26.789 11.7557 26.2737V24.3214C11.7557 23.8058 11.3363 23.3865 10.821 23.3865ZM10.7194 26.1721H8.97035V24.4227H10.7194V26.1721Z" fill="#DAA7EE"/>
<path d="M15.7449 23.3865H13.7926C13.2773 23.3865 12.8579 23.8058 12.8579 24.3214V26.2737C12.8579 26.789 13.2773 27.2083 13.7926 27.2083H15.7449C16.2604 27.2083 16.6798 26.789 16.6798 26.2737V24.3214C16.6798 23.8058 16.2604 23.3865 15.7449 23.3865ZM15.6435 26.1721H13.8942V24.4227H15.6435V26.1721Z" fill="#DAA7EE"/>
<path d="M3.94443 32.5472H5.89672C6.41202 32.5472 6.83139 32.1278 6.83139 31.6125V29.6602C6.83139 29.145 6.41202 28.7256 5.89672 28.7256H3.94443C3.42914 28.7256 3.00977 29.145 3.00977 29.6602V31.6125C3.00977 32.1278 3.42906 32.5472 3.94443 32.5472ZM4.04603 29.7619H5.79512V31.5109H4.04603V29.7619Z" fill="#DAA7EE"/>
<path d="M10.821 28.7256H8.86875C8.35345 28.7256 7.93408 29.145 7.93408 29.6602V31.6125C7.93408 32.1278 8.35345 32.5472 8.86875 32.5472H10.821C11.3363 32.5472 11.7557 32.1278 11.7557 31.6125V29.6602C11.7557 29.145 11.3363 28.7256 10.821 28.7256ZM10.7194 31.5109H8.97035V29.7619H10.7194V31.5109Z" fill="#DAA7EE"/>
<path d="M15.7449 28.7256H13.7926C13.2773 28.7256 12.8579 29.145 12.8579 29.6602V31.6125C12.8579 32.1278 13.2773 32.5472 13.7926 32.5472H15.7449C16.2604 32.5472 16.6798 32.1278 16.6798 31.6125V29.6602C16.6798 29.145 16.2604 28.7256 15.7449 28.7256ZM15.6435 31.5109H13.8942V29.7619H15.6435V31.5109Z" fill="#DAA7EE"/>
<path d="M23.132 15.38C23.132 15.0938 22.9001 14.8618 22.6139 14.8618C22.3276 14.8618 22.0957 15.0938 22.0957 15.38C22.0957 16.4016 22.8052 17.2549 23.7553 17.4889V18.0272C23.7553 18.3134 23.9873 18.5454 24.2735 18.5454C24.5597 18.5454 24.7917 18.3134 24.7917 18.0272V17.4889C25.7419 17.2549 26.4513 16.4016 26.4513 15.38C26.4513 14.3586 25.7419 13.5054 24.7917 13.2714V11.0494C25.1599 11.239 25.4151 11.6188 25.4151 12.0608C25.4151 12.347 25.647 12.579 25.9332 12.579C26.2194 12.579 26.4514 12.347 26.4514 12.0608C26.4514 11.0394 25.742 10.1862 24.7918 9.95218V9.41368C24.7918 9.12751 24.5598 8.89551 24.2736 8.89551C23.9874 8.89551 23.7554 9.12743 23.7554 9.41368V9.95218C22.8052 10.1862 22.0958 11.0394 22.0958 12.0608C22.0958 13.0822 22.8052 13.9354 23.7554 14.1694V16.3916C23.3872 16.2019 23.132 15.822 23.132 15.38ZM25.4151 15.38C25.4151 15.8219 25.1599 16.2018 24.7917 16.3915V14.3686C25.16 14.5583 25.4151 14.9381 25.4151 15.38ZM23.132 12.0607C23.132 11.6188 23.3872 11.2389 23.7554 11.0493V13.072C23.3872 12.8825 23.132 12.5027 23.132 12.0607Z" fill="#DAA7EE"/>
<path d="M29.1691 9.93161H36.8624C37.1485 9.93161 37.3806 9.69969 37.3806 9.41344C37.3806 9.12727 37.1486 8.89526 36.8624 8.89526H29.1691C28.8829 8.89526 28.6509 9.12719 28.6509 9.41344C28.6509 9.69969 28.8829 9.93161 29.1691 9.93161Z" fill="#DAA7EE"/>
<path d="M29.1691 13.4865H36.8624C37.1485 13.4865 37.3806 13.2546 37.3806 12.9684C37.3806 12.6822 37.1486 12.4502 36.8624 12.4502H29.1691C28.8829 12.4502 28.6509 12.6821 28.6509 12.9684C28.6509 13.2546 28.8829 13.4865 29.1691 13.4865Z" fill="#DAA7EE"/>
<path d="M29.1691 17.0415H36.8624C37.1485 17.0415 37.3806 16.8095 37.3806 16.5233C37.3806 16.2371 37.1486 16.0051 36.8624 16.0051H29.1691C28.8829 16.0051 28.6509 16.2371 28.6509 16.5233C28.6509 16.8095 28.8829 17.0415 29.1691 17.0415Z" fill="#DAA7EE"/>
<path d="M22.6139 20.5595H36.8622C37.1483 20.5595 37.3804 20.3276 37.3804 20.0414C37.3804 19.7551 37.1484 19.5232 36.8622 19.5232H22.6139C22.3277 19.5232 22.0957 19.7551 22.0957 20.0414C22.0957 20.3276 22.3277 20.5595 22.6139 20.5595Z" fill="#DAA7EE"/>
<path d="M22.6139 24.0774H24.8787C25.1648 24.0774 25.3968 23.8454 25.3968 23.5592C25.3968 23.273 25.1649 23.041 24.8787 23.041H22.6139C22.3277 23.041 22.0957 23.2729 22.0957 23.5592C22.0958 23.8454 22.3277 24.0774 22.6139 24.0774Z" fill="#DAA7EE"/>
<path d="M36.8624 24.0774C37.1485 24.0774 37.3805 23.8454 37.3805 23.5592C37.3805 23.273 37.1486 23.041 36.8624 23.041H26.6695C26.3834 23.041 26.1514 23.2729 26.1514 23.5592C26.1514 23.8454 26.3833 24.0774 26.6695 24.0774H36.8624Z" fill="#DAA7EE"/>
<path d="M22.6139 31.113H24.8787C25.1648 31.113 25.3968 30.8811 25.3968 30.5948C25.3968 30.3087 25.1649 30.0767 24.8787 30.0767H22.6139C22.3277 30.0767 22.0957 30.3086 22.0957 30.5948C22.0958 30.881 22.3277 31.113 22.6139 31.113Z" fill="#DAA7EE"/>
<path d="M26.6695 31.113H36.8625C37.1486 31.113 37.3806 30.8811 37.3806 30.5948C37.3806 30.3087 37.1487 30.0767 36.8625 30.0767H26.6695C26.3834 30.0767 26.1514 30.3086 26.1514 30.5948C26.1514 30.881 26.3834 31.113 26.6695 31.113Z" fill="#DAA7EE"/>
<path d="M37.6786 27.077C37.6786 26.7908 37.4466 26.5588 37.1604 26.5588H34.8956C34.6094 26.5588 34.3774 26.7908 34.3774 27.077C34.3774 27.3633 34.6094 27.5952 34.8956 27.5952H37.1604C37.4466 27.5952 37.6786 27.3632 37.6786 27.077Z" fill="#DAA7EE"/>
<path d="M22.394 27.077C22.394 27.3632 22.626 27.5952 22.9122 27.5952H33.1051C33.3912 27.5952 33.6232 27.3633 33.6232 27.077C33.6232 26.7908 33.3913 26.5588 33.1051 26.5588H22.9122C22.626 26.5589 22.394 26.7908 22.394 27.077Z" fill="#DAA7EE"/>
</svg>
