<svg width="37" height="38" viewBox="0 0 37 38" fill="none" xmlns="http://www.w3.org/2000/svg">
<path d="M12.7407 15.0411C12.7407 13.2716 11.3251 11.856 9.73252 11.856C8.13994 11.856 6.54736 13.2716 6.54736 15.0411C6.54736 16.8107 7.96297 18.2263 9.55555 18.2263C11.1481 18.2263 12.7407 16.8107 12.7407 15.0411ZM8.31687 15.0411C8.31687 14.3333 8.84773 13.6255 9.55555 13.6255C10.2634 13.6255 10.9712 14.3333 10.9712 15.0411C10.9712 15.7489 10.4403 16.4567 9.73248 16.4567C9.02465 16.4567 8.31687 15.7489 8.31687 15.0411ZM17.3415 18.9341C15.5719 18.9341 14.3333 20.3497 14.3333 22.1192C14.3333 23.8888 15.7489 25.3044 17.3415 25.3044C18.9341 25.3044 20.3497 23.8888 20.3497 22.1192C20.3497 20.1727 18.9341 18.9341 17.3415 18.9341ZM17.3415 23.3579C16.6336 23.3579 16.1028 22.827 16.1028 21.9423C16.1028 21.2345 16.6336 20.5267 17.3415 20.5267C18.0493 20.5267 18.5802 21.0575 18.5802 21.9423C18.5802 22.6501 18.0493 23.3579 17.3415 23.3579ZM17.8723 13.6255C17.5184 13.2716 16.9876 13.2716 16.6336 13.6255L7.96293 22.6501C7.60904 23.004 7.60904 23.5348 7.96293 23.8888C8.1399 24.0657 8.31683 24.0657 8.49379 24.0657C8.67076 24.0657 9.02465 23.8888 9.20162 23.7118L17.8723 14.6872C18.2262 14.6872 18.2262 13.9794 17.8723 13.6255V13.6255Z" fill="#DAA7EE"/>
<path d="M24.0656 0H2.6543C1.23869 0 0 1.23869 0 2.6543V36.2754C0 36.8063 0.353892 37.1601 0.884752 37.1601C1.41561 37.1601 1.7695 36.8063 1.7695 36.2754V2.6543C1.7695 2.12344 2.1234 1.76954 2.65425 1.76954H24.0656C24.5964 1.76954 24.9503 2.12344 24.9503 2.6543V36.2754C24.9503 36.8063 25.3042 37.1601 25.8351 37.1601C26.366 37.1601 26.7198 36.8063 26.7198 36.2754V2.6543C26.8968 1.23869 25.6581 0 24.0655 0H24.0656ZM34.3289 8.13986H28.1355C27.6047 8.13986 27.2508 8.49375 27.2508 9.02461C27.2508 9.55547 27.6047 9.90936 28.1355 9.90936H34.3289C34.8597 9.90936 35.2136 10.2633 35.2136 10.7941V36.2754C35.2136 36.8062 35.5675 37.1601 36.0984 37.1601C36.6292 37.1601 36.9831 36.8062 36.9831 36.2754V10.7941C37.1601 9.3785 35.9214 8.13981 34.3288 8.13981L34.3289 8.13986Z" fill="#DAA7EE"/>
</svg>
