<svg width="468" height="336" viewBox="0 0 468 336" fill="none" xmlns="http://www.w3.org/2000/svg">
<path opacity="0.2" fill-rule="evenodd" clip-rule="evenodd" d="M0 7.7099C0 7.7099 423.62 -10.4201 445.89 8.9199C465.74 26.1599 444.49 244.04 439.64 291.24C439.53 292.26 438.84 293.05 437.94 293.17C326.45 307.53 66.75 301.06 11.65 299.48C10.74 299.45 9.99 298.73 9.81 297.72C1.73 251.63 0 7.7099 0 7.7099Z" fill="#999999"/>
<path fill-rule="evenodd" clip-rule="evenodd" d="M423.92 130.55C424.32 129.38 426.11 124.49 430.26 117.24C430.31 117.15 430.31 117.04 430.25 116.95C428.32 113.93 424.39 102.65 430.72 103.07C434.74 103.34 433.77 108.57 432.39 112.6C432.34 112.73 432.41 112.88 432.53 112.94C432.66 113 432.81 112.96 432.89 112.84C438 104.7 445.67 94.4599 456.9 83.4999C456.94 83.4599 456.96 83.4199 456.97 83.3699C457.83 80.1699 461.25 69.0999 466.29 73.9099C471.68 79.0499 461.57 82.7899 457.64 83.9599C457.59 83.9699 457.56 83.9899 457.53 84.0299C455.35 86.1599 453.3 88.2599 451.38 90.3299C451.28 90.4399 451.28 90.5999 451.38 90.6999C451.48 90.8099 451.64 90.8199 451.75 90.7399C455.41 88.0599 461.4 84.5199 462.54 89.1099C464.16 95.6599 452.23 94.2299 449.09 93.0999C448.98 93.0599 448.87 93.0899 448.79 93.1799C445.92 96.3999 443.37 99.5099 441.11 102.48C441.02 102.59 441.03 102.75 441.13 102.85C441.23 102.95 441.38 102.96 441.5 102.88C445.08 100.18 451.62 96.0499 452.8 100.87C454.39 107.3 442.91 106.04 439.52 104.93C439.4 104.89 439.28 104.93 439.21 105.03C435.65 109.89 432.88 114.3 430.75 118.05C430.68 118.17 430.71 118.31 430.81 118.4C430.91 118.49 431.06 118.49 431.16 118.41C434.39 115.84 442.09 110.41 443.39 115.68C444.98 122.13 433.42 120.84 430.08 119.72C429.95 119.68 429.81 119.73 429.75 119.85C426.5 125.82 425.05 129.81 424.7 130.83C424.65 130.97 424.5 131.05 424.35 131L424.1 130.92C424.03 130.9 423.97 130.85 423.94 130.78C423.9 130.7 423.89 130.63 423.92 130.55ZM440.09 102.05C441.19 99.6999 446.01 88.6699 440.13 88.2799C433.85 87.8599 437.66 98.9499 439.6 102.08C439.66 102.17 439.75 102.22 439.85 102.21C439.95 102.21 440.04 102.15 440.09 102.05ZM449.83 90.3099C450.93 87.9599 455.75 76.9299 449.87 76.5399C443.59 76.1199 447.4 87.2099 449.34 90.3399C449.4 90.4299 449.49 90.4799 449.59 90.4699C449.7 90.4599 449.79 90.3999 449.83 90.3099Z" fill="#6EE213"/>
<path fill-rule="evenodd" clip-rule="evenodd" d="M421.439 59.4199L432.379 73.3499L434.809 260.77L169.399 262.71L170.369 77.2199L421.439 59.4199Z" fill="#8F79E0"/>
<path fill-rule="evenodd" clip-rule="evenodd" d="M148.34 66.66C148.34 66.66 344.89 58.38 421.44 59.42C421.44 59.42 425.58 233.21 414.2 268.39H151.44C156.46 213.86 153.24 128.58 148.34 66.66Z" fill="#A78BEF"/>
<path fill-rule="evenodd" clip-rule="evenodd" d="M148.34 66.66C148.34 66.66 344.89 58.38 421.44 59.42C421.44 59.42 421.9 78.64 422.09 105.59C356.12 104.99 197.11 105.6 151 105.8C150.21 92.12 149.31 78.93 148.34 66.66Z" fill="#6876D2"/>
<path fill-rule="evenodd" clip-rule="evenodd" d="M345.11 106.13C345.12 106.18 345.76 111.75 346.37 121.87C346.43 122.91 347.31 123.71 348.35 123.69L415.28 122.08L415.31 123.22L348.54 124.83C348 124.84 347.54 125.05 347.17 125.45C346.8 125.85 346.63 126.32 346.66 126.87C347.95 152.29 348.57 199.28 341.25 257.62L340.12 257.48C347.45 199.09 346.82 152.12 345.52 126.79C345.47 125.74 344.59 124.93 343.54 124.95L243.4 127.36C242.34 127.39 241.49 128.27 241.51 129.33C242.11 160.04 242.21 217.3 236.06 254.52L234.93 254.34C241.06 217.21 240.96 160.05 240.36 129.38C240.35 128.85 240.15 128.39 239.76 128.02C239.37 127.65 238.91 127.47 238.37 127.48L165.88 129.23L165.85 128.09L238.35 126.34C239.42 126.31 240.26 125.42 240.24 124.36C240.01 114.4 239.75 108.26 239.75 108.19L240.89 108.15C240.89 108.22 241.15 114.36 241.38 124.33C241.4 125.4 242.3 126.25 243.36 126.22L343.32 123.81C343.87 123.8 344.33 123.59 344.7 123.18C345.07 122.78 345.24 122.3 345.21 121.75C344.6 111.78 343.97 106.31 343.96 106.25L345.11 106.13Z" fill="white"/>
<path fill-rule="evenodd" clip-rule="evenodd" d="M261.35 120.17C261.36 120.15 263.76 111.53 268.18 111.4C270.05 111.34 271.83 113.2 273.87 115.34C276.63 118.23 279.91 121.66 284.07 120.86C284.25 120.82 284.43 120.78 284.6 120.74C285.29 120.55 285.79 120.05 285.97 119.36C286.15 118.67 285.96 117.98 285.45 117.49C285.21 117.26 284.99 117.02 284.78 116.78C284.09 115.98 283.57 115.14 283.24 114.34C282.9 113.49 282.77 112.67 282.91 111.97C283.12 110.89 283.87 110.1 285.3 109.85C287.23 109.51 288.66 110.37 289.49 111.78C289.87 112.43 290.12 113.19 290.22 114C290.32 114.8 290.28 115.65 290.09 116.5C290.05 116.68 290 116.85 289.95 117.02C289.79 117.56 289.85 118.08 290.13 118.56C290.41 119.04 290.84 119.35 291.39 119.47C292.69 119.75 294.1 119.77 295.55 119.41C296.79 119.1 298.03 118.77 299.29 118.44C307.34 116.3 315.97 114 318.8 118.2L317.85 118.84C315.47 115.32 307.24 117.51 299.57 119.55C298.28 119.89 297 120.23 295.82 120.53C293.59 121.09 291.45 120.84 289.58 120.14C288.91 119.89 288.22 120 287.67 120.45C286.79 121.17 285.66 121.72 284.29 121.99C279.52 122.91 276 119.24 273.04 116.14C271.19 114.2 269.57 112.51 268.21 112.56C264.64 112.67 262.45 120.48 262.45 120.5L261.35 120.17ZM289.12 114.84C289.12 114.6 289.1 114.36 289.08 114.13C289 113.47 288.8 112.85 288.51 112.34C287.92 111.33 286.89 110.71 285.5 110.96C284.62 111.11 284.16 111.56 284.04 112.17C283.95 112.66 284.05 113.26 284.31 113.9C284.59 114.59 285.05 115.32 285.65 116.02C285.68 116.06 285.71 116.09 285.75 116.13C286.3 116.74 287.12 116.94 287.89 116.65C288.64 116.36 289.12 115.66 289.12 114.84Z" fill="white"/>
<path fill-rule="evenodd" clip-rule="evenodd" d="M401.49 116.17C401.48 116.18 398.25 117.7 394.37 116.75C393.93 116.64 393.53 116.68 393.12 116.86C392.94 116.94 392.76 117.02 392.57 117.09C389.84 118.14 386.33 118.26 382.7 116.58L383.23 115.57C384.72 116.25 386.19 116.6 387.57 116.7C388.32 116.75 389 116.39 389.38 115.74C389.76 115.09 389.73 114.32 389.31 113.69C388.6 112.63 388.49 111.45 388.79 110.34C389.02 109.48 389.49 108.68 390.11 108.02C390.73 107.36 391.51 106.84 392.34 106.54C393.93 105.98 395.71 106.24 397.07 107.9C397.95 108.98 398.22 110.22 398 111.47C397.92 111.94 397.76 112.4 397.54 112.86C397.2 113.56 397.3 114.34 397.8 114.94C398.3 115.54 399.05 115.77 399.8 115.57C400.55 115.37 401 115.15 401.01 115.15L401.49 116.17ZM380.87 115.75C375.67 113.58 373.62 114.69 371.57 115.79C370.61 116.31 369.65 116.83 368.39 117.07C364.15 117.91 361.04 117.79 361.04 117.79L361.07 116.65C361.08 116.65 364.05 116.76 368.18 115.95C369.27 115.74 370.15 115.26 371.03 114.78C373.33 113.54 375.63 112.3 381.34 114.7L380.87 115.75ZM391.29 114.08C391.7 114.37 392.11 114.63 392.53 114.84C393.22 115.2 394.01 115.12 394.63 114.64C394.91 114.42 395.17 114.18 395.41 113.94C396.21 113.11 396.73 112.18 396.9 111.26C397.07 110.34 396.87 109.41 396.21 108.62C395.21 107.4 393.9 107.21 392.73 107.62C392.07 107.85 391.45 108.27 390.95 108.8C390.45 109.33 390.08 109.97 389.9 110.63C389.59 111.8 389.9 113.09 391.29 114.08Z" fill="white"/>
<path fill-rule="evenodd" clip-rule="evenodd" d="M259.349 148.67C259.389 148.68 268.129 150 275.139 149.37C275.829 149.31 276.399 148.92 276.699 148.3C277.009 147.68 276.969 147 276.599 146.41C276.169 145.73 275.869 145.04 275.699 144.37C275.409 143.24 275.499 142.16 276.039 141.35C277.019 139.87 279.149 139.38 281.089 139.76C281.779 139.89 282.449 140.14 283.029 140.48C283.629 140.83 284.149 141.29 284.529 141.85C285.359 143.08 285.479 144.75 284.249 146.78C283.849 147.43 283.859 148.2 284.279 148.84C284.699 149.48 285.399 149.8 286.149 149.71C287.279 149.56 288.489 149.21 289.759 148.59C290.829 148.07 291.659 147.66 292.429 147.27C299.879 143.57 302.949 142.04 307.359 146.46C308.559 147.66 309.919 148.43 311.259 148.86C312.769 149.35 314.269 149.42 315.519 149.24C316.719 149.07 317.659 148.68 318.119 148.22C318.229 148.11 318.299 148 318.339 147.9L319.429 148.25C319.339 148.53 319.169 148.79 318.929 149.02C318.299 149.65 317.129 150.16 315.679 150.37C314.279 150.57 312.599 150.49 310.909 149.94C309.409 149.45 307.889 148.61 306.549 147.27C302.719 143.44 299.869 144.85 292.929 148.3C292.039 148.74 291.089 149.21 290.249 149.62C287.099 151.15 284.249 151.21 281.919 150.47C281.439 150.32 280.969 150.13 280.539 149.92C280.109 149.71 279.669 149.66 279.209 149.78C271.689 151.68 259.209 149.8 259.159 149.79L259.349 148.67ZM281.319 147.91C282.159 147.48 282.829 146.94 283.239 146.27C284.249 144.66 284.189 143.39 283.589 142.5C283.319 142.09 282.919 141.75 282.459 141.48C281.979 141.2 281.439 141 280.869 140.89C279.339 140.59 277.689 140.92 276.989 141.98C276.639 142.51 276.589 143.26 276.809 144.09C277.069 145.09 277.689 146.18 278.619 147.13C278.789 147.31 278.969 147.48 279.159 147.64C279.769 148.18 280.599 148.28 281.319 147.91Z" fill="white"/>
<path fill-rule="evenodd" clip-rule="evenodd" d="M362.01 145.5C362.03 145.5 367.88 144.28 380.55 144.76C385.84 144.96 389.07 146.26 391.27 147.13C393.95 148.2 394.83 148.55 396.47 144.39C397.5 141.78 398.47 140.15 399.37 139.34C399.96 138.81 400.54 138.6 401.11 138.66C401.68 138.73 402.18 139.07 402.62 139.65C403.34 140.6 403.92 142.28 404.34 144.49C405.3 149.51 408.64 144.99 408.65 144.98L409.56 145.67C409.55 145.69 404.67 152.28 403.22 144.71C402.83 142.67 402.32 141.15 401.71 140.34C401.46 140.01 401.22 139.83 400.98 139.8C400.74 139.77 400.46 139.9 400.14 140.19C399.37 140.88 398.5 142.37 397.54 144.81C395.48 150.04 394.33 149.58 390.85 148.19C388.73 147.34 385.61 146.09 380.52 145.9C368 145.42 362.26 146.61 362.25 146.62L362.01 145.5Z" fill="white"/>
<path fill-rule="evenodd" clip-rule="evenodd" d="M393.129 263.39C388.529 263.42 400.149 253.57 403.659 252.6C407.169 251.63 408.439 263.28 408.439 263.28L393.129 263.39Z" fill="#8F79E0"/>
<path fill-rule="evenodd" clip-rule="evenodd" d="M174.409 144.28C174.519 144.27 213.479 140.88 222.049 142.84L221.799 143.95C213.419 142.03 174.619 145.41 174.509 145.42L174.409 144.28Z" fill="white"/>
<path fill-rule="evenodd" clip-rule="evenodd" d="M174.02 121.88C174.03 121.85 178.25 110.77 183.96 117.98C184.83 119.08 185.72 119.94 186.62 120.56C188.02 121.54 189.44 121.95 190.88 121.83C192.33 121.71 193.8 121.06 195.28 119.89C196.63 118.83 197.96 117.34 199.28 115.46C201.44 112.37 202.9 112 204.2 112.91C204.99 113.46 205.62 114.51 206.33 115.67C207.38 117.4 208.61 119.43 210.57 120.08C211.21 120.29 211.94 120.47 212.71 120.61C213.49 120.75 214.32 120.85 215.16 120.93L215.06 122.06C214.18 121.98 213.32 121.87 212.51 121.73C211.69 121.58 210.92 121.4 210.22 121.16C207.85 120.37 206.51 118.15 205.36 116.26C204.72 115.2 204.14 114.25 203.55 113.84C202.82 113.33 201.87 113.74 200.21 116.11C198.83 118.08 197.42 119.65 195.99 120.78C194.34 122.09 192.65 122.83 190.97 122.97C189.27 123.11 187.6 122.63 185.97 121.49C184.98 120.8 184.01 119.86 183.07 118.68C178.61 113.05 175.1 122.26 175.09 122.29L174.02 121.88ZM218.29 121.1C222.5 121.19 226.31 120.79 226.32 120.79L226.43 121.92C226.42 121.92 222.55 122.32 218.27 122.23L218.29 121.1Z" fill="white"/>
<path fill-rule="evenodd" clip-rule="evenodd" d="M148.34 66.66C148.34 66.66 344.89 58.38 421.44 59.42C421.44 59.42 421.48 61.38 421.53 64.63C421.65 71.69 421.87 84.8 422.02 96.95L150.8 102.3C150.29 94.7 148.9 73.74 148.34 66.66Z" fill="#E527BB"/>
<path fill-rule="evenodd" clip-rule="evenodd" d="M153.52 102.02C154.2 102 391.56 94.6399 425.71 98.5099L425.66 98.9599C391.53 95.0899 154.21 102.45 153.53 102.47L153.52 102.02Z" fill="#2A1C32"/>
<path d="M201.506 88.0341C203.857 85.6831 203.857 81.8715 201.506 79.5206C199.155 77.1697 195.343 77.1697 192.992 79.5206C190.641 81.8715 190.641 85.6831 192.992 88.0341C195.343 90.385 199.155 90.385 201.506 88.0341Z" fill="#2A1C32"/>
<path d="M261.902 84.0827C263.168 81.0086 261.703 77.49 258.629 76.2236C255.555 74.9572 252.036 76.4226 250.77 79.4967C249.503 82.5707 250.969 86.0894 254.043 87.3558C257.117 88.6222 260.635 87.1568 261.902 84.0827Z" fill="#2A1C32"/>
<path d="M316.382 86.2599C319.664 85.726 321.891 82.6329 321.357 79.3514C320.823 76.0698 317.73 73.8425 314.449 74.3764C311.167 74.9104 308.94 78.0035 309.474 81.285C310.008 84.5665 313.101 86.7939 316.382 86.2599Z" fill="#2A1C32"/>
<path d="M375.46 85.0492C378.742 84.5153 380.969 81.4222 380.435 78.1407C379.901 74.8592 376.808 72.6318 373.527 73.1658C370.245 73.6997 368.018 76.7928 368.552 80.0743C369.086 83.3558 372.179 85.5832 375.46 85.0492Z" fill="#2A1C32"/>
<path fill-rule="evenodd" clip-rule="evenodd" d="M186.97 42.95C197.54 42.95 207.62 52.36 209.86 64.1399L207.54 64.23C205.73 56.25 198.81 49.9799 191.58 49.9799C183.97 49.9799 178.89 56.92 180.23 65.48C181.57 74.04 188.82 80.98 196.43 80.98V81.01C196.57 80.99 196.72 80.98 196.87 80.98C198.45 80.98 199.73 82.2599 199.73 83.8399C199.73 85.2699 198.68 86.45 197.32 86.66V86.69C196.22 86.92 195.06 87.04 193.86 87.04C183.04 87.04 172.72 77.17 170.82 65C168.92 52.82 176.15 42.95 186.97 42.95Z" fill="#D8E0FD"/>
<path fill-rule="evenodd" clip-rule="evenodd" d="M186.97 42.95C191.34 42.95 195.62 44.5599 199.3 47.2799C200.03 49.8399 194.64 50.3499 194.64 50.3499C193.64 50.1099 192.61 49.9799 191.58 49.9799C185.39 49.9799 180.86 54.58 180.12 60.91C177.09 67.8099 173.48 66.92 170.76 64.57C169.09 52.59 176.27 42.95 186.97 42.95Z" fill="white"/>
<path fill-rule="evenodd" clip-rule="evenodd" d="M246.3 40.8701C256.87 40.8701 266.95 50.2801 269.19 62.0601L266.87 62.1501C265.06 54.1701 258.14 47.9001 250.91 47.9001C243.3 47.9001 238.22 54.8401 239.56 63.4001C240.9 71.9601 248.15 78.9001 255.76 78.9001V78.9301C255.9 78.9101 256.05 78.9001 256.2 78.9001C257.78 78.9001 259.06 80.1801 259.06 81.7601C259.06 83.1901 258.01 84.3701 256.65 84.5801V84.6101C255.55 84.8401 254.39 84.9601 253.19 84.9601C242.37 84.9601 232.05 75.0901 230.15 62.9201C228.25 50.7401 235.48 40.8701 246.3 40.8701Z" fill="#D8E0FD"/>
<path fill-rule="evenodd" clip-rule="evenodd" d="M246.3 40.8701C250.67 40.8701 254.95 42.4801 258.63 45.1901C259.36 47.7501 253.97 48.2601 253.97 48.2601C252.97 48.0201 251.94 47.8901 250.91 47.8901C244.72 47.8901 240.19 52.4901 239.45 58.8201C236.42 65.7201 232.81 64.8301 230.09 62.4801C228.42 50.5101 235.6 40.8701 246.3 40.8701Z" fill="white"/>
<path fill-rule="evenodd" clip-rule="evenodd" d="M305.62 39.28C316.19 39.28 326.27 48.69 328.51 60.47L326.19 60.56C324.38 52.58 317.46 46.31 310.23 46.31C302.62 46.31 297.54 53.25 298.88 61.81C300.22 70.37 307.47 77.31 315.08 77.31V77.34C315.22 77.32 315.37 77.31 315.52 77.31C317.1 77.31 318.38 78.59 318.38 80.17C318.38 81.6 317.33 82.78 315.97 82.99V83.02C314.87 83.25 313.71 83.37 312.51 83.37C301.69 83.37 291.37 73.5 289.47 61.33C287.57 49.15 294.8 39.28 305.62 39.28Z" fill="#D8E0FD"/>
<path fill-rule="evenodd" clip-rule="evenodd" d="M305.66 39.28C310.03 39.28 314.31 40.89 317.99 43.6C318.72 46.16 313.33 46.67 313.33 46.67C312.33 46.43 311.3 46.3 310.27 46.3C304.08 46.3 299.55 50.9 298.81 57.23C295.78 64.13 292.17 63.24 289.45 60.89C287.78 48.92 294.96 39.28 305.66 39.28Z" fill="white"/>
<path fill-rule="evenodd" clip-rule="evenodd" d="M364.95 38.25C375.52 38.25 385.6 47.66 387.84 59.44L385.52 59.53C383.71 51.55 376.79 45.28 369.56 45.28C361.95 45.28 356.87 52.22 358.21 60.78C359.55 69.34 366.8 76.28 374.41 76.28V76.31C374.55 76.29 374.7 76.28 374.85 76.28C376.43 76.28 377.71 77.56 377.71 79.14C377.71 80.57 376.66 81.75 375.3 81.96V81.99C374.2 82.22 373.04 82.34 371.84 82.34C361.02 82.34 350.7 72.47 348.8 60.3C346.9 48.11 354.13 38.25 364.95 38.25Z" fill="#D8E0FD"/>
<path fill-rule="evenodd" clip-rule="evenodd" d="M364.94 38.25C369.31 38.25 373.59 39.86 377.27 42.57C378 45.13 372.61 45.64 372.61 45.64C371.61 45.4 370.58 45.27 369.55 45.27C363.36 45.27 358.83 49.87 358.09 56.2C355.06 63.1 351.45 62.21 348.73 59.86C347.06 47.88 354.25 38.25 364.94 38.25Z" fill="white"/>
<path fill-rule="evenodd" clip-rule="evenodd" d="M443.79 140.3H458.32C460.18 140.3 461.71 141.83 461.71 143.69V158.22C461.71 160.08 460.18 161.61 458.32 161.61H443.79C441.93 161.61 440.4 160.08 440.4 158.22V143.69C440.4 141.83 441.92 140.3 443.79 140.3ZM445.56 142.91C444.15 142.91 443 144.06 443 145.47V156.45C443 157.86 444.15 159.01 445.56 159.01H456.54C457.95 159.01 459.1 157.86 459.1 156.45V145.47C459.1 144.06 457.95 142.91 456.54 142.91H445.56Z" fill="#E527BB"/>
<path fill-rule="evenodd" clip-rule="evenodd" d="M448.33 147.08L451.66 152.71C451.66 152.71 459.65 141.51 464.74 139.81L467.34 145.32C467.34 145.32 457.47 150.95 451.78 157.13L445 150.6L448.33 147.08Z" fill="#E527BB"/>
<path fill-rule="evenodd" clip-rule="evenodd" d="M443.79 165.58H458.32C460.18 165.58 461.71 167.11 461.71 168.97V183.5C461.71 185.36 460.18 186.89 458.32 186.89H443.79C441.93 186.89 440.4 185.36 440.4 183.5V168.97C440.4 167.1 441.92 165.58 443.79 165.58ZM445.56 168.18C444.15 168.18 443 169.33 443 170.74V181.72C443 183.13 444.15 184.28 445.56 184.28H456.54C457.95 184.28 459.1 183.13 459.1 181.72V170.74C459.1 169.33 457.95 168.18 456.54 168.18H445.56Z" fill="#E527BB"/>
<path fill-rule="evenodd" clip-rule="evenodd" d="M443.79 190.85H458.32C460.18 190.85 461.71 192.38 461.71 194.24V208.77C461.71 210.63 460.18 212.16 458.32 212.16H443.79C441.93 212.16 440.4 210.63 440.4 208.77V194.24C440.4 192.38 441.92 190.85 443.79 190.85ZM445.56 193.46C444.15 193.46 443 194.61 443 196.02V207C443 208.41 444.15 209.56 445.56 209.56H456.54C457.95 209.56 459.1 208.41 459.1 207V196.02C459.1 194.61 457.95 193.46 456.54 193.46H445.56Z" fill="#E527BB"/>
<path fill-rule="evenodd" clip-rule="evenodd" d="M330.78 321.59H340.58V282.39H329.97L330.78 321.59Z" fill="#E527BB"/>
<path fill-rule="evenodd" clip-rule="evenodd" d="M345.72 321.59H355.52V303.46H344.92L345.72 321.59Z" fill="#A78BEF"/>
<path fill-rule="evenodd" clip-rule="evenodd" d="M359.22 321.59H369.02V287.64H358.41L359.22 321.59Z" fill="#E527BB"/>
<path fill-rule="evenodd" clip-rule="evenodd" d="M376.83 318.05C376.83 317.99 377.61 296.44 377.33 279.69L374.89 281.87L374.39 281.31L377.79 277.6L380.59 281.53L379.98 281.97L378.09 279.36C378.39 296.18 377.6 318.02 377.6 318.08L376.83 318.05Z" fill="#A78BEF"/>
<path fill-rule="evenodd" clip-rule="evenodd" d="M2.37012 330.93C3.22012 330.91 249.55 324.82 370.44 329.94L370.35 331.07C249.57 325.96 3.28012 332.05 2.42012 332.07L2.37012 330.93ZM378.98 330.33C399.69 331.35 416.04 332.75 425.78 334.64L425.59 335.76C415.87 333.88 399.55 332.48 378.88 331.46L378.98 330.33Z" fill="black"/>
<path fill-rule="evenodd" clip-rule="evenodd" d="M143.151 329.03C143.151 329.03 142.611 318.13 147.331 317.1C152.051 316.07 145.521 329.44 145.521 329.44L143.151 329.03Z" fill="#6EE213"/>
<path fill-rule="evenodd" clip-rule="evenodd" d="M24.9999 331.02C24.9999 331.02 31.0899 316.56 24.3699 316.26C17.6499 315.96 22.6099 328.61 22.6099 328.61C22.6099 328.61 17.5799 324.43 15.7699 326.61C13.9599 328.79 22.1899 330.94 22.1899 330.94L24.9999 331.02Z" fill="#6EE213"/>
<path fill-rule="evenodd" clip-rule="evenodd" d="M398.41 331.88C398.41 331.88 407.34 320.83 404.52 317.14C401.71 313.45 397.29 329.4 397.29 329.4C397.29 329.4 397.74 319.68 394.57 320.41C391.39 321.14 397.2 332.03 397.2 332.03L398.41 331.88ZM403.75 332.49C403.75 332.49 413.5 320.14 416.46 322.32C419.43 324.5 410.78 330.31 403.75 332.49Z" fill="#6EE213"/>
<path fill-rule="evenodd" clip-rule="evenodd" d="M80.9097 258.79C80.6597 258.05 79.5297 254.97 76.9197 250.4C76.8897 250.34 76.8897 250.27 76.9197 250.22C78.1297 248.32 80.6097 241.21 76.6197 241.47C74.0897 241.64 74.6997 244.93 75.5697 247.48C75.5997 247.56 75.5597 247.66 75.4797 247.69C75.3997 247.73 75.2997 247.7 75.2597 247.63C72.0397 242.5 67.1997 236.04 60.1297 229.14C60.1097 229.12 60.0897 229.09 60.0797 229.06C59.5397 227.04 57.3797 220.06 54.1997 223.1C50.8097 226.34 57.1697 228.7 59.6497 229.43C59.6797 229.44 59.6997 229.45 59.7197 229.47C61.0997 230.81 62.3897 232.14 63.5997 233.44C63.6597 233.51 63.6597 233.61 63.5997 233.68C63.5397 233.75 63.4397 233.76 63.3697 233.7C61.0597 232.01 57.2897 229.78 56.5697 232.67C55.5497 236.8 63.0697 235.9 65.0497 235.19C65.1197 235.17 65.1897 235.18 65.2397 235.24C67.0497 237.27 68.6497 239.23 70.0797 241.1C70.1297 241.17 70.1297 241.27 70.0697 241.33C70.0097 241.39 69.9097 241.4 69.8397 241.35C67.5797 239.65 63.4597 237.05 62.7197 240.08C61.7197 244.13 68.9497 243.34 71.0897 242.64C71.1597 242.62 71.2397 242.64 71.2897 242.7C73.5297 245.77 75.2797 248.54 76.6197 250.9C76.6597 250.97 76.6497 251.06 76.5797 251.12C76.5197 251.18 76.4197 251.18 76.3597 251.12C74.3197 249.5 69.4697 246.08 68.6497 249.4C67.6497 253.47 74.9297 252.65 77.0397 251.95C77.1197 251.92 77.2097 251.96 77.2497 252.03C79.2997 255.8 80.2097 258.31 80.4297 258.95C80.4597 259.04 80.5597 259.09 80.6497 259.06L80.8097 259.01C80.8597 258.99 80.8897 258.97 80.9097 258.92C80.9197 258.89 80.9297 258.84 80.9097 258.79ZM70.7197 240.83C70.0297 239.35 66.9897 232.4 70.6997 232.15C74.6597 231.89 72.2597 238.87 71.0297 240.85C70.9997 240.91 70.9397 240.94 70.8697 240.93C70.7997 240.93 70.7497 240.89 70.7197 240.83ZM64.5797 233.43C63.8897 231.95 60.8497 225 64.5597 224.75C68.5197 224.49 66.1197 231.47 64.8897 233.45C64.8597 233.51 64.7997 233.54 64.7297 233.53C64.6597 233.52 64.6097 233.49 64.5797 233.43Z" fill="#6EE213"/>
<path fill-rule="evenodd" clip-rule="evenodd" d="M146.02 297.25L156.78 308.98C156.78 308.98 155.33 321.52 152.58 329.76H88.0202C88.0202 329.76 85.8402 318.77 91.9702 305.34C98.5502 294.96 146.02 297.25 146.02 297.25Z" fill="black"/>
<path fill-rule="evenodd" clip-rule="evenodd" d="M119.58 329.76H97.8397C97.0797 321.13 98.2697 313.85 105.39 316.81C111.91 319.52 116.48 324.7 119.58 329.76Z" fill="black"/>
<path fill-rule="evenodd" clip-rule="evenodd" d="M146.02 297.25C149.51 300.21 151.4 303.12 156.78 308.98C156.78 308.98 139.71 340.95 91.96 305.34C98.55 294.96 146.02 297.25 146.02 297.25Z" fill="#2A1C32"/>
<path fill-rule="evenodd" clip-rule="evenodd" d="M136.74 174.22C136.74 174.22 142.05 157.96 138.94 149.4C135.83 140.84 129.95 141.54 127.44 144.21C127.44 144.21 123.98 136.69 118.88 136.95C87.7698 138.53 74.3798 164.22 74.6098 188.02C72.4598 207.17 76.9798 226.77 84.9498 219.4C88.1298 223.11 91.9998 225.92 96.4898 227.44C135.23 240.59 164.09 205.67 136.74 174.22ZM74.6698 189.91C75.1198 201.28 78.6898 212.06 84.9198 219.36C73.9398 229.75 71.9098 209.55 74.6698 189.91Z" fill="black"/>
<path fill-rule="evenodd" clip-rule="evenodd" d="M137.1 222.01C139.11 224.68 143.03 225.02 147.8 217.25C157.41 201.59 137.49 175.77 137.49 175.77C158.19 198.16 149.79 217.25 142.55 219.49C141.24 219.89 140.26 219.93 139.53 219.72C140.51 218.69 141.4 217.61 142.22 216.47C145.64 206.13 144.24 192.1 136.65 176.75C119.27 141.63 107.52 192.15 95.0803 182L90.5403 184.4L90.5103 184.5C89.4103 182.74 87.8603 181.11 85.6903 179.78L83.1603 181.92C72.0603 225.17 110.73 244.33 137.1 222.01Z" fill="#2A1C32"/>
<path fill-rule="evenodd" clip-rule="evenodd" d="M130.76 229.79L142.86 230.54C142.86 230.54 147.25 229.83 155.66 248.89C164.07 267.95 168.24 278.02 168.24 278.02C168.24 278.02 159.8 286.87 150.64 286.87C141.49 286.87 130.76 229.79 130.76 229.79Z" fill="#8F79E0"/>
<path fill-rule="evenodd" clip-rule="evenodd" d="M114.79 218.56C117.37 217.18 116.39 214.58 118.84 213.13L121.03 212.31C124.03 212.69 127.63 213.58 132.25 216.51L131.16 221.8C136.27 225.49 141.27 231.76 144.16 231.7C145.63 231.67 147.13 234.06 149.16 240.59C152.21 245.38 167.89 256.71 154.84 265.22C153.08 273.01 150.53 292.54 156.8 308.98C142.57 322.6 116.22 316.33 91.9797 305.34L95.7796 282.52C95.7796 282.52 82.6396 245.18 82.6396 234.81C82.6396 224.44 100.59 216.55 100.59 216.55L114.79 218.56Z" fill="#A78BEF"/>
<path fill-rule="evenodd" clip-rule="evenodd" d="M154 292.74C153.98 297.88 154.6 303.24 156.78 308.98C142.55 322.6 116.2 316.33 91.96 305.34L95.76 282.52V282.51V282.5V282.49V282.48V282.47L95.75 282.45L95.74 282.43L95.73 282.41L95.72 282.39L95.71 282.37L95.7 282.35L95.69 282.32L95.68 282.29V282.28L95.67 282.26L95.66 282.23L95.65 282.2L95.64 282.17L95.63 282.13L95.62 282.1V282.09L95.61 282.05L95.59 282L95.58 281.96L95.56 281.92L95.54 281.87L95.53 281.83L95.51 281.78L95.49 281.73L95.47 281.68L95.45 281.63L95.44 281.6L95.43 281.57L95.41 281.51L95.39 281.45L95.37 281.39L95.35 281.33L95.33 281.27L95.31 281.21L95.29 281.14L95.27 281.07L95.25 281L95.23 280.93L95.22 280.9L95.2 280.85L95.17 280.78L95.14 280.7L95.11 280.62L95.08 280.54L95.06 280.48L95.05 280.46L95.02 280.38L95 280.3L94.97 280.22L94.94 280.14L94.91 280.05L94.9 280.03L94.88 279.96L94.85 279.87L94.82 279.78L94.79 279.69L94.76 279.6L94.74 279.54L94.73 279.51L94.7 279.41L94.67 279.31L94.64 279.21L94.61 279.11C96.96 278.24 99.78 277.54 103.18 277.07C107.07 310.16 148.18 312.85 149.94 281.62C151.43 295.94 147.81 302.49 142.99 305.23C150.18 303.21 153.38 299.39 154 292.74Z" fill="#8F79E0"/>
<path fill-rule="evenodd" clip-rule="evenodd" d="M153.609 272.23C145.249 270.62 141.279 266.56 141.279 266.56C145.329 267.47 152.389 265.68 154.829 265.23C154.429 267 153.979 269.4 153.609 272.23Z" fill="#8F79E0"/>
<path fill-rule="evenodd" clip-rule="evenodd" d="M94.49 278.8C92.37 272.58 88.09 259.67 85.29 249.01C85.37 249.23 99.47 277.25 128.22 267.93C128.23 267.93 110.12 286.66 94.49 278.8Z" fill="#8F79E0"/>
<path fill-rule="evenodd" clip-rule="evenodd" d="M88.6693 228.76C80.5093 223.91 66.9893 267.08 64.2593 276.46C61.5293 285.83 78.4793 290.9 81.4393 286.72C88.2793 277.06 99.2293 235.04 88.6693 228.76Z" fill="#8F79E0"/>
<path fill-rule="evenodd" clip-rule="evenodd" d="M123.84 232.81C124.87 233.05 125.71 234.09 125.71 235.12C125.71 236.15 124.87 236.79 123.84 236.55C122.81 236.31 121.97 235.27 121.97 234.24C121.97 233.2 122.81 232.56 123.84 232.81Z" fill="white"/>
<path fill-rule="evenodd" clip-rule="evenodd" d="M126.859 240.04C127.889 240.28 128.729 241.32 128.729 242.35C128.729 243.38 127.889 244.02 126.859 243.78C125.829 243.54 124.989 242.5 124.989 241.47C124.989 240.44 125.819 239.8 126.859 240.04Z" fill="white"/>
<path fill-rule="evenodd" clip-rule="evenodd" d="M153.07 273.01C153.07 273.01 156.19 263.73 163.71 250.42C171.23 237.11 173.72 229.56 173.72 229.56L183.16 232.09C183.16 232.09 176.37 263.93 171.95 273.33C167.53 282.73 149.54 291.5 153.07 273.01Z" fill="#FD9A6B"/>
<path fill-rule="evenodd" clip-rule="evenodd" d="M153.07 273.01C153.07 273.01 154.49 268.78 157.73 261.94C156.6 269.68 157.23 277.61 166.13 273C169.23 271.4 171.74 269.93 173.78 268.61C173.14 270.49 172.52 272.1 171.95 273.33C167.53 282.73 149.54 291.5 153.07 273.01Z" fill="#8F79E0"/>
<path fill-rule="evenodd" clip-rule="evenodd" d="M175.03 230.71L173.72 229.57C173.72 229.57 175.56 220.18 178.01 216.98C180.45 213.77 182.44 210.57 183.05 208.74C183.66 206.91 187.4 209.75 185.49 214.16C183.58 218.57 181.67 222.71 181.9 225.45C182.12 228.19 175.03 230.71 175.03 230.71Z" fill="#FD9A6B"/>
<path fill-rule="evenodd" clip-rule="evenodd" d="M173.12 233.83L173.72 229.56C173.72 229.56 176.28 220.37 183.61 218.54C190.94 216.71 193.46 216.36 193.46 216.36L200.77 227.72L183.16 232.09L173.12 233.83Z" fill="#FD9A6B"/>
<path fill-rule="evenodd" clip-rule="evenodd" d="M191.38 221.03L192.44 218.66L193.46 216.37C194.88 216.03 199.27 215.67 203.29 215.14C207.3 214.61 209.56 217.4 207.7 217.71L194.28 219.97L191.38 221.03Z" fill="#FD9A6B"/>
<path fill-rule="evenodd" clip-rule="evenodd" d="M194.7 221.6L195.19 219.7C195.19 219.7 204.85 217.41 209.47 217.21C209.47 217.21 212.06 217.25 212.56 218.43C213.06 219.61 212.22 219.92 212.22 219.92L196.51 222.24L194.7 221.6Z" fill="#FD9A6B"/>
<path fill-rule="evenodd" clip-rule="evenodd" d="M195.54 223.2L196.24 222.14C196.24 222.14 204.97 221.44 206.91 221.79C209.29 222.21 210.08 223.66 206.64 224.12C206.64 224.12 207.67 225.07 206.33 225.91C204.99 226.75 199.49 228.03 199.49 228.03L195.54 223.2Z" fill="#FD9A6B"/>
<path fill-rule="evenodd" clip-rule="evenodd" d="M96.5195 194.66C96.5195 194.66 99.4595 206.24 100.67 216.61C100.67 216.61 105.71 232.49 118.57 230C118.71 229.97 118.86 229.94 118.99 229.91C121.36 223.06 121.11 212.38 121.11 212.38C118.62 205.71 115.1 199.71 115.1 199.71C115.1 199.71 112.6 192.07 96.5195 194.66Z" fill="#FD9A6B"/>
<path fill-rule="evenodd" clip-rule="evenodd" d="M96.5195 194.66C96.5195 194.66 98.7895 198.53 99.6495 202.54C99.6495 202.54 111.07 216.21 118.75 217.75C119.62 221.43 119.96 226.73 119 229.9C120.24 226.12 120.73 222.14 120.97 218.19L121.11 212.37C120.49 210.72 119.82 209.11 119.14 207.62C117.09 203.1 115.1 199.7 115.1 199.7C115.1 199.7 112.6 192.07 96.5195 194.66Z" fill="#E15A42"/>
<path fill-rule="evenodd" clip-rule="evenodd" d="M137.239 160.62C137.239 160.62 137.069 169.05 136.719 176.81C136.719 176.81 139.179 187.62 138.659 191.48C138.139 195.34 129.899 210.85 120.729 210.9C107.449 210.98 97.3594 205.05 93.2694 189.82C79.8794 187.65 82.2694 172.87 83.9994 172.56C87.4594 171.94 91.3394 176.43 92.7994 178.97C93.4294 168.58 94.0294 162.33 94.0294 162.33C98.8694 155.7 120.789 148.41 137.239 160.62Z" fill="#FD9A6B"/>
<path fill-rule="evenodd" clip-rule="evenodd" d="M137.24 160.62C137.24 160.62 137.13 165.94 136.91 172.02C136.56 169.23 135.36 163.06 131.27 157.11C133.32 158.03 135.32 159.19 137.24 160.62ZM92.7998 178.97C93.4298 168.58 94.0298 162.33 94.0298 162.33C97.3998 157.71 109.02 152.78 121.33 154.31C121.28 154.41 107.1 180.17 95.1998 170.73L92.7998 178.97Z" fill="#E15A42"/>
<path fill-rule="evenodd" clip-rule="evenodd" d="M93.2694 189.82C84.3294 188.37 82.1095 181.31 82.6595 176.68C85.3195 176.48 91.5695 183.27 91.5695 183.27C91.5695 183.27 89.1895 181.97 89.7995 184.96C90.4095 187.94 92.3895 187.73 92.3895 187.73L93.2694 189.82Z" fill="#E15A42"/>
<path fill-rule="evenodd" clip-rule="evenodd" d="M91.5691 183.28C91.5691 183.28 86.8491 174.61 82.8691 177.59C82.8691 177.59 88.8791 178.24 91.5691 183.28Z" fill="#4C2845"/>
<path fill-rule="evenodd" clip-rule="evenodd" d="M91.8591 183.8C88.7791 180.96 88.9691 187.09 92.1191 187.74C86.6991 186.6 89.0391 179.16 91.8591 183.8Z" fill="#4C2845"/>
<path fill-rule="evenodd" clip-rule="evenodd" d="M99.8396 219.38L99.3096 213.5C99.3096 213.5 103.74 215.03 111.37 214.64L119 229.9C109.46 232.96 102.16 229.09 99.8396 219.38Z" fill="#8F79E0"/>
<path fill-rule="evenodd" clip-rule="evenodd" d="M122.8 150.84C122.8 150.84 122.24 152.64 120.9 155.15C119.25 162.01 113.96 174.55 97.5103 170.7C96.1903 170.77 94.8103 170.76 93.3603 170.65L92.0303 155.85L116.75 144.44L140.01 156.37L137.03 168.71C137.03 168.71 136.15 161.44 129.6 155.38C127.79 153.72 125.56 152.15 122.8 150.84ZM120.56 155.76C117.53 161.15 111.1 169.22 99.2803 170.55C113.36 171.61 118.64 161.9 120.56 155.76Z" fill="black"/>
<path fill-rule="evenodd" clip-rule="evenodd" d="M128.649 153.68C128.649 153.68 138.209 168.02 133.229 172.44C133.229 172.44 140.839 170.19 128.649 153.68Z" fill="#4C2845"/>
<path fill-rule="evenodd" clip-rule="evenodd" d="M139.78 152.6C138.58 157.73 125.92 146.44 125.92 146.44C128.99 153.33 140.36 167.47 139.78 152.6ZM92.5298 146.53C92.7898 148.76 95.0598 149.67 102.36 145.81C101.32 148.89 101.41 152.81 105.34 152.28C107.72 151.96 110.72 150.27 112.74 149.02C113.56 152.55 116.07 155.39 120.02 152.82C122.28 151.35 124.47 148.54 125.93 146.44C124.98 149.64 123.03 151.92 121.17 153.46C114.4 159.76 102.04 164.93 101.15 155.09C99.5498 157.35 94.3698 156.56 97.6198 153.52C91.0898 157.38 79.7098 156.81 92.5298 146.53Z" fill="black"/>
<path fill-rule="evenodd" clip-rule="evenodd" d="M114.64 160.97C114.64 160.97 100.14 172.19 82.1299 166.16C82.1299 166.16 89.4999 174.89 114.64 160.97Z" fill="#2A1C32"/>
<path fill-rule="evenodd" clip-rule="evenodd" d="M141.119 280.83C141.119 280.83 141.229 280.84 141.409 280.87C142.229 280.98 144.529 281.36 144.989 282.14C145.549 283.1 143.509 284.77 141.919 284.53C140.339 284.28 140.049 282.01 141.119 280.83Z" fill="#E15A42"/>
<path fill-rule="evenodd" clip-rule="evenodd" d="M137.769 276.77L135.099 273.9C135.099 273.9 133.959 273.85 133.399 274.32C132.849 274.8 133.219 275.5 133.219 275.5L136.259 278.92C136.259 278.93 138.069 277.66 137.769 276.77Z" fill="white"/>
<path fill-rule="evenodd" clip-rule="evenodd" d="M134.59 278.14L150.08 294.7L152.67 292.33L139.16 277.47L139.82 277.16C139.82 277.16 140.95 278.3 142.51 279.97C144.07 281.64 145.68 282.05 144.08 280.4C142.49 278.75 140.31 276.47 140.01 276.2C139.82 276.03 139.11 276.51 138.63 276.88L138.1 276.3C138.1 276.31 136.43 275.16 134.59 278.14Z" fill="#4C2845"/>
<path fill-rule="evenodd" clip-rule="evenodd" d="M152.68 292.33L153.99 295.24C154.1 295.47 154.05 295.74 153.87 295.92C153.69 296.1 153.43 296.15 153.19 296.05C152.15 295.6 151.12 295.15 150.08 294.7C148.99 293.53 151.43 290.96 152.68 292.33Z" fill="white"/>
<path fill-rule="evenodd" clip-rule="evenodd" d="M74.8993 272.83C74.8993 272.83 84.6693 273.44 99.4693 277.26C114.269 281.08 122.209 281.53 122.209 281.53V291.3C122.209 291.3 89.6993 292.98 79.4693 291.15C69.2493 289.31 56.1293 274.2 74.8993 272.83Z" fill="#FD9A6B"/>
<path fill-rule="evenodd" clip-rule="evenodd" d="M74.8993 272.83C74.8993 272.83 78.5693 273.23 80.4093 273.44C76.0793 274.58 72.4093 276.08 72.3293 281.12C72.2593 286.16 76.2693 289.71 79.5493 291.16L79.4693 291.15C69.2493 289.31 56.1293 274.2 74.8993 272.83Z" fill="#8F79E0"/>
<path fill-rule="evenodd" clip-rule="evenodd" d="M135.069 282.49L136.519 279.9C136.519 279.9 140.599 282.07 147.129 283.57C147.839 283.7 148.639 284.86 146.469 285.47C144.299 286.07 137.629 284.47 135.069 282.49Z" fill="#FD9A6B"/>
<path fill-rule="evenodd" clip-rule="evenodd" d="M137.669 283.4C137.669 283.4 146.199 285.46 148.719 285.93C148.719 285.93 149.349 287.24 148.369 287.59C147.399 287.93 141.219 287.42 137.249 285.23C134.179 282.41 136.669 283.18 137.669 283.4Z" fill="#FD9A6B"/>
<path fill-rule="evenodd" clip-rule="evenodd" d="M137.089 287.03L138.939 285.72C138.939 285.72 143.079 287.79 144.479 288.52C145.879 289.25 145.129 290.34 143.729 290.38C143.729 290.38 143.649 291.56 142.009 291.72C140.369 291.87 137.769 292.04 137.769 292.04L137.089 287.03Z" fill="#E15A42"/>
<path fill-rule="evenodd" clip-rule="evenodd" d="M118.439 285.92L122.219 281.53C122.219 281.53 132.249 280.43 136.529 279.89C136.529 279.89 139.199 285 140.039 289.96C140.879 294.92 122.649 291.27 122.219 291.29C121.789 291.32 118.439 285.92 118.439 285.92Z" fill="#FD9A6B"/>
<path fill-rule="evenodd" clip-rule="evenodd" d="M153.91 152.68C153.91 152.68 160.93 138.33 165.81 142.76C170.7 147.18 162 151.46 153.91 152.68Z" fill="black"/>
<path fill-rule="evenodd" clip-rule="evenodd" d="M149.77 149.67C149.77 149.67 155.51 140.76 150.66 139.79C145.8 138.82 145.59 145.45 149.77 149.67Z" fill="black"/>
<path fill-rule="evenodd" clip-rule="evenodd" d="M110.59 34.5797C110.59 34.5797 116.15 25.7497 119.13 31.0497C122.1 36.3397 110.59 34.5797 110.59 34.5797Z" fill="#E527BB"/>
<path fill-rule="evenodd" clip-rule="evenodd" d="M108.62 32.2198C108.62 32.2198 113.87 28.1198 110.79 25.9998C107.71 23.8698 107.15 29.8298 108.62 32.2198Z" fill="#E527BB"/>
<path fill-rule="evenodd" clip-rule="evenodd" d="M26.6304 33.9798C26.6304 33.9798 20.6704 25.8598 18.7204 30.4898C16.7604 35.1098 26.6304 33.9798 26.6304 33.9798Z" fill="#E527BB"/>
<path fill-rule="evenodd" clip-rule="evenodd" d="M15.6302 96.0598C15.6302 96.0598 5.15015 98.0098 9.26015 102.74C13.3702 107.46 16.2502 98.3198 15.6302 96.0598Z" fill="#E527BB"/>
<path fill-rule="evenodd" clip-rule="evenodd" d="M109.16 96.1597C109.16 96.1597 121.08 98.8297 115.53 104.18C109.98 109.52 109.16 96.1597 109.16 96.1597Z" fill="#E527BB"/>
<path d="M95.915 100.611C112.88 84.152 114.076 57.8664 98.5856 41.9004C83.0957 25.9344 56.7859 26.3341 39.8211 42.7931C22.8562 59.2521 21.6606 85.5377 37.1505 101.504C52.6404 117.47 78.9502 117.07 95.915 100.611Z" fill="#E527BB"/>
<path fill-rule="evenodd" clip-rule="evenodd" d="M70.3799 30.1797C93.3099 30.1797 110.77 48.7697 109.38 71.6997C109.29 73.1197 109.14 74.5197 108.92 75.8997C108.66 82.0097 100.94 84.6697 102.19 73.3097C85.3499 71.0897 59.7699 58.4997 29.6299 57.6697C36.3599 41.6397 52.3799 30.1797 70.3799 30.1797Z" fill="#E527BB"/>
<path d="M89.7734 95.0082C106.738 78.5492 107.934 52.2636 92.444 36.2976C76.9541 20.3316 50.6443 20.7313 33.6795 37.1903C16.7146 53.6493 15.519 79.9349 31.0089 95.9009C46.4988 111.867 72.8086 111.467 89.7734 95.0082Z" fill="#E527BB"/>
<path d="M87.001 92.1536C102.287 77.3252 103.366 53.6418 89.4106 39.2553C75.4551 24.8689 51.7499 25.2272 36.4635 40.0557C21.1772 54.8842 20.0984 78.5675 34.0539 92.954C48.0094 107.34 71.7146 106.982 87.001 92.1536Z" fill="#E527BB"/>
<path fill-rule="evenodd" clip-rule="evenodd" d="M99.1898 65.0397C99.1798 65.3897 99.1598 65.7397 99.1398 66.0997C97.9098 86.3497 80.8098 102.85 60.6798 103.49C41.8498 102.87 27.6898 87.3797 28.8398 68.3597C30.0198 48.9497 46.7098 33.2097 66.1198 33.2097C84.4198 33.2097 98.5998 47.1897 99.1898 65.0397Z" fill="white"/>
<path fill-rule="evenodd" clip-rule="evenodd" d="M55.9402 99.5699L56.5702 95.1599L58.4902 95.4299L57.8602 99.8399L55.9402 99.5699ZM95.2002 71.8899L90.7902 71.2599L91.0602 69.3399L95.4702 69.9699L95.2002 71.8899ZM67.5202 32.6299L66.8902 37.0399L64.9702 36.7699L65.6002 32.3599L67.5202 32.6299ZM28.2602 60.3099L32.6702 60.9399L32.4002 62.8599L27.9902 62.2299L28.2602 60.3099Z" fill="#4C2845"/>
<path fill-rule="evenodd" clip-rule="evenodd" d="M33.9707 85.6798L37.5407 83.0098L38.7007 84.5598L35.1407 87.2298L33.9707 85.6798ZM81.3107 93.8598L78.6407 90.2898L80.1907 89.1298L82.8607 92.6898L81.3107 93.8598ZM89.4907 46.5298L85.9307 49.1998L84.7707 47.6498L88.3407 44.9798L89.4907 46.5298ZM42.1607 38.3398L44.8307 41.9098L43.2807 43.0698L40.6107 39.4998L42.1607 38.3398Z" fill="#4C2845"/>
<path fill-rule="evenodd" clip-rule="evenodd" d="M61.9297 62.8101C63.7497 62.8101 65.1297 64.2801 65.0197 66.1001C64.9097 67.9201 63.3497 69.3901 61.5297 69.3901C59.7097 69.3901 58.3297 67.9201 58.4397 66.1001C58.5497 64.2801 60.1197 62.8101 61.9297 62.8101Z" fill="#4C2845"/>
<path fill-rule="evenodd" clip-rule="evenodd" d="M56.09 40.98L62.67 65.85L61.15 66.88L50.25 58.65L51.42 57.1L60.08 63.64L54.21 41.47L56.09 40.98Z" fill="#4C2845"/>
<path fill-rule="evenodd" clip-rule="evenodd" d="M53.8503 77.4299C53.8603 77.4299 56.2203 77.5999 57.8003 76.9499C57.3803 76.6799 57.2003 76.3399 57.1703 75.9899C57.1303 75.4699 57.4403 74.9599 57.8603 74.5999C58.2703 74.2499 58.8103 74.0299 59.2503 74.0699C59.8403 74.1299 60.2603 74.5399 60.1603 75.4899C60.1203 75.8899 59.9903 76.2399 59.8003 76.5399C60.3103 76.5699 60.9703 76.5599 61.8003 76.4899L69.9203 75.8699L69.9903 76.8399L61.8703 77.4599C60.6303 77.5499 59.6803 77.5099 58.9803 77.3699C57.1303 78.6299 53.8003 78.3799 53.7803 78.3799L53.8503 77.4299ZM58.7003 76.3899C58.9703 76.1299 59.1503 75.7999 59.1903 75.3999C59.2203 75.1499 59.1903 75.0499 59.1403 75.0399C58.9603 75.0199 58.7103 75.1499 58.4803 75.3399C58.2703 75.5199 58.1203 75.7399 58.1303 75.9199C58.1503 76.0999 58.3103 76.2699 58.7003 76.3899Z" fill="#4C2845"/>
<path fill-rule="evenodd" clip-rule="evenodd" d="M62.3998 22.6099C63.2498 22.6099 64.0998 22.6399 64.9498 22.6899C75.4098 23.3199 84.5999 27.8499 91.1599 34.8299C97.7299 41.8199 101.67 51.2699 101.67 61.7699C101.67 62.6099 101.64 63.4699 101.59 64.3399C100.89 75.8599 95.5898 86.2799 87.5898 93.8299C79.5898 101.38 68.8798 106.04 57.3598 106.04C56.5098 106.04 55.6598 106.01 54.8098 105.96C44.3498 105.33 35.1698 100.8 28.5998 93.8199C22.0298 86.8299 18.0898 77.3799 18.0898 66.8799C18.0898 66.0399 18.1198 65.1799 18.1698 64.3099C18.8698 52.7899 24.1698 42.3699 32.1698 34.8199C40.1798 27.2799 50.8898 22.6099 62.3998 22.6099ZM64.9298 23.0699C64.0998 23.0199 63.2598 22.9999 62.3998 22.9999C50.9798 22.9999 40.3698 27.6299 32.4298 35.1099C24.4898 42.5899 19.2398 52.9299 18.5498 64.3399C18.4998 65.1899 18.4698 66.0399 18.4698 66.8799C18.4698 77.2799 22.3798 86.6399 28.8798 93.5599C35.3798 100.48 44.4698 104.95 54.8298 105.58C55.6598 105.63 56.4998 105.66 57.3598 105.66C68.7798 105.66 79.3899 101.03 87.3298 93.5499C95.2699 86.0699 100.52 75.7299 101.21 64.3199C101.26 63.4699 101.29 62.6199 101.29 61.7799C101.29 51.3799 97.3798 42.0199 90.8798 35.0999C84.3798 28.1799 75.2898 23.6999 64.9298 23.0699Z" fill="white"/>
</svg>
