<svg width="41" height="38" viewBox="0 0 41 38" fill="none" xmlns="http://www.w3.org/2000/svg">
<path d="M40.8132 10.3724L31.1302 0.689459C30.8803 0.439575 30.5055 0.439575 30.2556 0.689459L27.8817 3.00088C27.6318 3.25076 27.6318 3.62559 27.8817 3.87547L28.1941 4.2503L26.5698 5.87454C25.6952 5.87454 24.8206 6.18689 24.1959 6.87407L20.6976 10.3724L17.1992 6.87407C16.5745 6.24936 15.7624 5.87454 14.8878 5.87454H14.8253L13.2011 4.2503C13.2635 4.18783 14.1381 3.62559 13.5134 3.00088L11.1395 0.626988C10.8896 0.377104 10.5148 0.377104 10.2649 0.626988L0.581944 10.3724C0.33206 10.6223 0.33206 10.9972 0.581944 11.247L2.95584 13.6209C3.20572 13.8708 3.58054 13.8708 3.83043 13.6209L4.14278 13.3086L5.76702 14.8703C5.76702 15.7449 6.07938 16.6195 6.76656 17.2442L11.7018 22.1794L13.0136 23.4913V24.0536V30.0508C13.0136 30.8629 13.4509 31.6125 14.0756 32.1123V33.8615H13.5134C13.1386 33.8615 12.8887 34.1114 12.8887 34.4862V37.3598C12.8887 37.7347 13.1386 37.9846 13.5134 37.9846H27.8817C28.2565 37.9846 28.5064 37.7347 28.5064 37.3598V34.4862C28.5064 34.1114 28.2565 33.8615 27.8817 33.8615H27.3195V32.1123C27.9442 31.6125 28.319 30.8629 28.319 30.0508V24.0536V23.4913C36.815 14.9953 34.0039 17.8065 34.5661 17.2442C35.1908 16.6195 35.5656 15.7449 35.5656 14.8703L37.1899 13.2461L37.5647 13.6209C37.8146 13.8708 38.1894 13.8708 38.4393 13.6209L40.8132 11.247C41.0631 10.9972 41.0631 10.6223 40.8132 10.3724ZM1.89383 10.8097L10.7022 2.00135L12.2015 3.50065L3.39313 12.309L1.89383 10.8097ZM18.636 16.9944V24.0536C18.636 24.4284 18.8859 24.6783 19.2607 24.6783C19.6356 24.6783 19.8854 24.4284 19.8854 24.0536C19.8854 20.93 19.8854 17.6191 19.8854 14.9328C19.8854 14.4955 20.6976 14.1832 21.1973 14.558C21.6346 14.8703 21.4472 22.4918 21.4472 24.0536C21.4472 24.4284 21.6971 24.6783 22.0719 24.6783C22.4467 24.6783 22.6966 24.4284 22.6966 24.0536V16.9944C22.6966 16.9319 22.6966 16.8694 22.7591 16.8069C23.1339 16.2447 24.2584 16.4946 24.2584 16.9944V22.4293V26.5524C24.2584 26.9272 24.5083 27.1771 24.8831 27.1771C25.2579 27.1771 25.5078 26.9272 25.5078 26.5524C25.5078 22.2419 25.4453 22.3668 25.5703 22.2419C25.8826 21.7421 27.0071 21.8046 27.0696 22.4293V24.116C27.0696 30.6755 27.1321 29.9883 27.0071 30.3006C26.8197 31.3002 26.0076 31.1752 26.0076 31.8624V33.924H15.3251V31.8624C15.3251 31.675 15.2001 31.4251 15.0127 31.3626C15.0127 31.3626 14.9502 31.3626 14.9502 31.3002C14.5129 30.9878 14.2631 30.5505 14.2631 30.1132V24.116V19.4307C14.2631 19.0559 15.0752 18.6811 15.6374 19.0559C15.7624 19.1184 15.8873 19.2433 15.8873 19.4307V24.116C15.8873 24.4909 16.1372 24.7407 16.512 24.7407C16.8868 24.7407 17.1367 24.4909 17.1367 24.116V19.4307V17.0568C17.0742 16.3072 18.636 16.3072 18.636 16.9944ZM27.257 36.7351H14.1381V35.1109H27.257V36.7351ZM34.5036 14.1832C34.3787 14.3081 34.3162 14.4955 34.3162 14.6829C34.3787 15.3076 34.1913 15.9323 33.754 16.3696C33.1917 16.9319 35.753 14.3081 28.2565 21.8671C27.9442 21.055 27.1321 20.6177 26.3199 20.6177C26.0701 20.6177 25.7577 20.6801 25.5078 20.7426V16.9319C25.5078 15.6825 24.0085 14.8079 22.6966 15.3076C22.6966 15.2452 22.8216 13.1212 20.6351 13.1212C19.5106 13.1212 18.5735 13.9333 18.5735 14.8703V15.2452C16.8868 14.7454 15.7624 15.8074 15.7624 16.8694V17.6191C15.5125 17.5566 15.2626 17.4941 14.9502 17.4941C13.8882 17.4941 12.8887 18.2438 12.8887 19.2433V21.7421L12.5763 21.3673L7.64115 16.4321C7.20385 15.9948 6.95397 15.3701 7.07891 14.7454C7.07891 14.558 7.01644 14.3706 6.8915 14.2456L5.07985 12.3715L12.3265 5.12489L14.1381 6.93654C14.2631 7.06149 14.4505 7.12396 14.6379 7.12396C15.2626 7.06149 15.8873 7.2489 16.3246 7.68619L20.2603 11.6219C20.5101 11.8717 20.885 11.8717 21.1349 11.6219L21.1973 11.5594L25.0705 7.68619C25.5078 7.2489 26.1325 6.99902 26.7572 7.12396C26.9446 7.12396 27.1321 7.06149 27.257 6.93654L29.0687 5.12489L36.3153 12.3715L34.5036 14.1832ZM38.002 12.309L29.1936 3.50065L30.6929 2.00135L39.5013 10.8097L38.002 12.309Z" fill="#DAA7EE"/>
</svg>
