<svg width="557" height="339" viewBox="0 0 557 339" fill="none" xmlns="http://www.w3.org/2000/svg">
<g clip-path="url(#clip0_1514_4447)">
<path opacity="0.2" d="M85.5617 333.34C48.2417 295.41 -2.76825 256.24 17.2317 197.07C30.3917 158.15 62.6417 147.31 89.4617 123.31C102.692 111.47 94.3717 94.2299 94.1217 77.1199C93.5618 33.2999 145.942 -0.700057 194.102 0.00994261C246.262 0.779943 268.842 49.7299 312.602 52.3599C329.782 52.6099 345.172 43.1899 360.372 35.7199C405.412 13.5599 476.892 27.6899 480.502 81.2699C481.432 110.21 446.152 156.76 481.502 171.98C509.672 184.11 538.132 188.58 543.212 231.96C549.862 288.74 514.722 319.9 468.952 334.52L85.5617 333.34Z" fill="#999999"/>
<path d="M359.741 85.1709C371.26 81.9439 377.978 70.003 374.746 58.5001C371.515 46.9972 359.558 40.2882 348.04 43.5152C336.521 46.7422 329.803 58.6831 333.034 70.186C336.266 81.6889 348.223 88.3978 359.741 85.1709Z" fill="#007CFF"/>
<path d="M359.741 85.1709C371.26 81.9439 377.978 70.003 374.746 58.5001C371.515 46.9972 359.558 40.2882 348.04 43.5152C336.521 46.7422 329.803 58.6831 333.034 70.186C336.266 81.6889 348.223 88.3978 359.741 85.1709Z" fill="#B21093"/>
<path d="M368.076 78.4592C376.535 70.0113 376.535 56.3144 368.076 47.8664C359.617 39.4185 345.901 39.4185 337.442 47.8664C328.983 56.3144 328.983 70.0113 337.442 78.4592C345.901 86.9072 359.617 86.9072 368.076 78.4592Z" fill="#E527BB"/>
<path d="M365.486 75.8714C372.514 68.8526 372.514 57.473 365.486 50.4543C358.457 43.4356 347.062 43.4355 340.034 50.4543C333.006 57.473 333.006 68.8527 340.034 75.8714C347.062 82.8901 358.457 82.8901 365.486 75.8714Z" fill="white"/>
<path d="M344.124 75.9136L346.515 72.3771C346.585 72.4245 346.656 72.47 346.726 72.5155L344.423 76.1089C344.322 76.0444 344.223 75.98 344.124 75.9136ZM339.353 70.7558C339.294 70.6515 339.235 70.5472 339.18 70.441L342.949 68.4309C342.989 68.5049 343.029 68.5788 343.071 68.6509L339.353 70.7558ZM351.046 78.4622L351.515 74.2202L351.78 74.2468L351.391 78.4963C351.275 78.4868 351.16 78.4735 351.046 78.4622ZM337.351 63.6656C337.348 63.5481 337.346 63.4305 337.344 63.311L341.616 63.2693L341.622 63.5272L337.351 63.6656ZM358.356 77.5046L356.801 73.53L357.042 73.4333L358.745 77.3472L358.645 77.3889C358.574 77.4192 358.466 77.4628 358.356 77.5046ZM338.882 56.4636C338.933 56.3555 338.986 56.2493 339.039 56.145L342.845 58.0849C342.807 58.1608 342.769 58.2366 342.733 58.3125L338.882 56.4636ZM361.195 70.4353C361.248 70.3746 361.299 70.3139 361.351 70.2513L364.651 72.963C364.573 73.0578 364.493 73.1507 364.413 73.2436L361.195 70.4353ZM346.126 54.2184L343.591 50.7843L343.868 50.5833L346.342 54.061L346.126 54.2184ZM363.61 65.6984L363.667 65.4443L367.846 66.3356C367.822 66.4493 367.797 66.5631 367.769 66.6769L363.61 65.6984ZM351.051 52.1629L350.392 47.9475C350.506 47.9304 350.62 47.9134 350.734 47.8982L351.317 52.125L351.051 52.1629ZM363.551 60.3756C363.53 60.296 363.509 60.2163 363.487 60.1367L367.596 58.9648C367.628 59.0805 367.66 59.198 367.691 59.3137L363.551 60.3756ZM356.36 52.6294L357.741 48.5903C357.857 48.6302 357.971 48.67 358.086 48.7136L356.592 52.7109C356.514 52.6825 356.438 52.6559 356.36 52.6294ZM361.022 55.6899L360.849 55.5022L363.95 52.5668C364.032 52.6521 364.111 52.7394 364.191 52.8266L361.022 55.6899Z" fill="black"/>
<path d="M348.23 56.4807L352.526 63.8591L359.475 57.1084" stroke="black" stroke-miterlimit="10" stroke-linecap="round" stroke-linejoin="round"/>
<path d="M353.781 64.1948C353.291 64.7523 352.442 64.8073 351.884 64.3199C351.325 63.8307 351.27 62.9831 351.758 62.4256C352.248 61.8681 353.097 61.8131 353.655 62.3004C354.214 62.7896 354.269 63.6373 353.781 64.1948Z" fill="black"/>
<path opacity="0.3" d="M340.752 51.5922C347.884 44.6784 359.277 44.8472 366.2 51.9696C367.901 53.7198 369.167 55.728 370.014 57.8631C369.211 55.1894 367.783 52.6598 365.702 50.5189C358.779 43.3966 347.386 43.2278 340.254 50.1416C334.875 55.3563 333.462 63.1101 336.062 69.6617C334.195 63.442 335.763 56.4277 340.752 51.5922Z" fill="black"/>
<path opacity="0.95" d="M221.798 176.127H143.922C137.769 176.127 132.781 171.146 132.781 165.002V87.2304C132.781 81.0865 137.769 76.105 143.922 76.105H221.796C227.948 76.105 232.936 81.0865 232.936 87.2304V165.002C232.938 171.146 227.95 176.127 221.798 176.127Z" fill="url(#paint0_linear_1514_4447)"/>
<path d="M206.043 153.355H159.672V155.642H206.043V153.355Z" fill="#E527BB"/>
<path d="M199.477 160.563H166.242V162.85H199.477V160.563Z" fill="#E527BB"/>
<path opacity="0.95" d="M373.363 271.473H262.537C255.289 271.473 249.414 265.606 249.414 258.368V123.9C249.414 116.662 255.289 110.795 262.537 110.795H373.363C380.611 110.795 386.486 116.662 386.486 123.9V258.366C386.486 265.606 380.611 271.473 373.363 271.473Z" fill="url(#paint1_linear_1514_4447)"/>
<path d="M322.435 205.586H311.562V207.596H322.435V205.586Z" fill="#E527BB"/>
<path d="M333.55 224.01H270.289V227.903H333.55V224.01Z" fill="#E527BB"/>
<path d="M321.445 242.701H270.289V246.594H321.445V242.701Z" fill="#E527BB"/>
<path d="M300.279 233.356H270.289V237.249H300.279V233.356Z" fill="#E527BB"/>
<path d="M350.1 126.819V128.785H361.692V139.651H363.662V126.819H350.1ZM271.379 139.651H273.348V128.785H284.94V126.819H271.379V139.651ZM361.694 195.714V206.583H350.102V208.55H363.663V195.714H361.694ZM273.348 195.714H271.379V208.55H284.94V206.583H273.348V195.714Z" fill="#E527BB"/>
<path d="M357.524 246.881C351.131 246.881 345.93 241.687 345.93 235.302C345.93 228.917 351.131 223.723 357.524 223.723C363.917 223.723 369.118 228.917 369.118 235.302C369.118 241.687 363.917 246.881 357.524 246.881ZM357.524 225.965C352.369 225.965 348.174 230.154 348.174 235.302C348.174 240.45 352.369 244.639 357.524 244.639C362.679 244.639 366.874 240.45 366.874 235.302C366.874 230.154 362.679 225.965 357.524 225.965Z" fill="#E527BB"/>
<path d="M356.787 239.859L351.52 234.598L353.105 233.015L356.787 236.69L361.946 231.538L363.531 233.121L356.787 239.859Z" fill="#E527BB"/>
<path opacity="0.95" d="M216.614 79.8445H149.105V137.688H216.614V79.8445Z" fill="url(#paint2_linear_1514_4447)"/>
<path d="M208.642 115.058C206.418 109.185 201.077 106.487 198.555 105.647C197.657 105.349 196.053 104.826 194.365 104.28C191.319 103.298 187.992 102.228 187.992 102.228H177.486C177.486 102.228 173.848 103.445 169.982 104.799C169.982 104.803 169.978 104.803 169.978 104.803C166.416 106.051 162.666 107.411 161.399 108.046C158.758 109.362 154.315 118.777 153.417 119.856C152.953 120.411 150.891 124.079 148.863 128.175H160.182C161.378 126.123 162.299 124.532 162.299 124.532C162.299 124.532 163.015 126.1 163.883 128.175H200.145C200.718 125.766 201.075 122.73 201.075 122.73C201.075 122.73 203.018 125.368 205.137 128.175H215.588C213.049 123.917 209.895 118.375 208.642 115.058Z" fill="#A78BEF"/>
<path d="M183.991 73.3952C183.991 73.3952 192.207 74.6885 190.956 87.5243C189.704 100.36 182.455 99.3095 181.969 99.2963C181.484 99.283 174.69 99.5295 174.161 83.8569C174.161 83.8588 173.929 72.2688 183.991 73.3952Z" fill="#EEA886"/>
<path d="M191.083 83.8987C191.083 83.8987 191.983 82.9392 192.313 83.9101C192.643 84.8809 191.086 89.2139 191.029 89.4168C191.029 89.4168 190.866 89.7942 190.65 89.5856C190.433 89.3808 191.083 83.8987 191.083 83.8987Z" fill="#EEA886"/>
<path d="M174.382 83.7375C174.382 83.7375 173.501 82.7609 173.152 83.7261C172.802 84.6913 174.262 89.0527 174.327 89.2575C174.327 89.2575 174.485 89.6368 174.703 89.4338C174.925 89.2291 174.382 83.7375 174.382 83.7375Z" fill="#EEA886"/>
<path d="M191.078 85.8689L189.903 87.439C189.903 87.439 189.937 83.9954 189.747 83.4569C189.559 82.9164 189.269 81.2686 189.111 80.8799C188.953 80.4911 182.057 78.5607 175.964 81.4431C175.964 81.4431 176.231 83.9177 175.648 84.1395C175.066 84.3595 175.35 88.171 175.35 88.171L174.384 87.0806C174.384 87.0806 172.903 77.2049 173.269 76.1752C173.636 75.1456 174.8 68.9562 187.298 72.6311C187.298 72.6311 191.194 71.8062 191.976 74.4932C192.759 77.1784 191.078 85.8689 191.078 85.8689Z" fill="#231F20"/>
<path d="M189.014 101.999C189.01 101.987 187.96 101.481 187.96 101.481C187.449 100.337 187.829 95.5152 187.829 95.5152C187.829 95.5152 177.366 92.8548 177.664 94.8894C177.963 96.9241 176.762 101.648 176.762 101.648L171.395 104.31C171.395 104.31 177.114 119.647 183.687 117.667C190.261 115.69 192.743 103.756 192.743 103.756L189.014 101.999Z" fill="#EEA886"/>
<path d="M177.812 97.1478C177.812 97.1478 179.499 99.3209 182.425 99.3209C184.35 99.3209 185.731 98.7824 187.648 96.9146C187.648 96.9146 186.817 100.461 182.438 100.791C182.436 100.792 179.261 101.194 177.812 97.1478Z" fill="#A77860"/>
<path d="M147.603 148.643C147.603 148.643 153.639 151.591 152.147 159.615C150.654 167.638 149.994 168.719 151.663 171.853C153.332 174.988 155.303 188.36 153.801 190.895C152.299 193.429 135.202 179.757 132.83 168.286C130.459 156.814 134.332 151.713 135.701 149.811C137.072 147.911 142.273 145.943 147.603 148.643Z" fill="#231F20"/>
<path d="M145.327 334.831H146.694V328.388C146.694 328.388 149.379 330.174 151.061 332.645C152.745 335.116 155.06 334.905 158.586 334.746C162.112 334.589 161.955 333.17 161.638 331.173C161.32 329.177 157.743 328.545 156.587 328.23C155.428 327.916 152.8 323.393 151.955 322.293C150.803 320.791 150.193 319.35 150.193 319.35C150.193 319.35 149.536 316.669 146.272 319.35C143.01 322.03 143.958 327.18 144.326 327.654C144.694 328.128 145.327 334.831 145.327 334.831Z" fill="#A78BEF"/>
<path d="M152.219 328.23C153.428 329.019 156.586 328.23 156.586 328.23C155.692 327.073 150.193 319.35 150.193 319.35C146.851 317.404 145.531 320.082 145.531 320.082C146.895 320.495 151.009 327.441 152.219 328.23Z" fill="#EEA886"/>
<path d="M187.407 209.35C187.407 209.35 189.598 209.769 190.347 208.741C190.983 207.867 192.437 207.195 192.885 206.989C193.483 206.712 195.004 205.176 195.361 205.927C195.718 206.678 192.978 208.578 192.483 209.092C191.987 209.606 195.17 209.831 195.72 210.332C196.269 210.831 195.593 216.074 193.428 215.666C191.262 215.258 189.217 213.394 188.822 213.398C188.427 213.402 187.234 213.163 187.234 213.163L187.407 209.35Z" fill="#EEA886"/>
<path d="M195.236 210.114C195.236 210.114 201.785 211.804 202.127 212.281C202.469 212.759 202.357 213.108 201.738 212.975C201.119 212.843 195.364 211.525 195.364 211.525C195.364 211.525 202.779 214.826 203.145 215.156C203.36 215.35 203.181 216.038 202.843 215.998C202.505 215.958 194.969 213.106 194.969 213.106C194.969 213.106 201.886 216.201 202.11 216.567C202.306 216.887 201.983 217.479 201.455 217.286C200.927 217.092 194.344 214.582 194.344 214.582C194.344 214.582 199.237 217.149 199.243 217.572C199.247 217.83 199.119 218.433 197.878 217.729C196.636 217.028 193.531 215.678 193.531 215.678L195.236 210.114Z" fill="#EEA886"/>
<path d="M127.6 335.271H128.441V330.542C128.441 330.542 129.939 332.08 130.623 334.34C131.306 336.6 133.756 337.27 137.493 337.165C141.23 337.059 141.281 335.588 140.966 333.38C140.65 331.173 137.493 330.016 137.493 330.016C136.072 328.755 132.546 323.526 132.546 323.526C132.546 323.526 130.283 322.921 128.507 324.352C126.732 325.784 127.285 329.017 127.336 329.857C127.389 330.699 127.6 335.271 127.6 335.271Z" fill="#A78BEF"/>
<path d="M130.177 222.601C130.177 222.601 125.725 228.381 124.517 235.239C123.309 242.098 125.231 265.115 125.178 268.506C125.125 271.896 121.967 280.329 122.599 286.715C123.232 293.102 125.723 324.88 125.723 324.88L132.545 323.528C132.545 323.528 132.15 291.13 132.545 288.449C132.94 285.767 133.732 276 133.89 274.896C134.047 273.792 143.912 244.814 143.912 239.87C143.912 234.923 140.913 214.534 130.177 222.601Z" fill="#231F20"/>
<path d="M152.542 224.859C152.542 224.859 159.856 252.738 160.724 256.601C161.592 260.464 162.85 263.649 162.85 265.29C162.85 269.095 161.436 275.205 161.436 275.205L152.147 319.568H143.3C143.3 319.568 148.23 292.952 148.362 287.749C148.495 282.532 152.515 275.126 151.727 272.918C150.937 270.711 139.018 245.25 139.018 245.25C139.018 245.25 129.993 216.766 152.542 224.859Z" fill="#231F20"/>
<path d="M137.493 330.017L132.547 323.526L128.508 324.352C128.508 324.352 129.594 327.257 131.557 329.442C133.883 332.032 137.493 330.017 137.493 330.017Z" fill="#EEA886"/>
<path d="M149.519 177.483C149.519 177.483 152.534 177.768 154.813 180.204C157.092 182.641 159.23 186.53 159.828 187.831C160.426 189.132 168.79 201.183 169.225 201.454C169.66 201.725 173.864 203.128 176.649 204.065C180.95 205.51 189.569 208.639 189.569 208.639L187.856 214.051C187.856 214.051 171.65 208.754 167.59 207.757C162.627 206.536 151.202 191.897 151.202 191.897C151.202 191.897 142.683 181.926 149.519 177.483Z" fill="#A78BEF"/>
<path d="M144.261 175.371C144.261 175.371 148.166 177.214 149.522 177.483C150.878 177.754 156.142 184.581 157.064 187.072C157.987 189.564 157.064 193.304 155.166 197.692C153.267 202.081 155.057 203.543 154.19 207.931C153.322 212.321 153.601 228.739 153.764 231.176C153.927 233.614 128.369 237.31 123.324 232.867C123.324 232.867 126.74 218.071 130.785 213.848C131.66 212.936 131.567 206.849 130.971 205.332C130.375 203.815 123.647 192.49 123.647 192.49C123.647 192.49 123.153 181.004 126.089 178.729C128.639 176.751 135.589 176.046 136.836 175.613C138.08 175.179 141.71 174.991 144.261 175.371Z" fill="#E527BB"/>
<path d="M146.125 170.869C146.125 170.869 146.009 171.942 145.874 173.395C145.823 173.969 145.766 174.603 145.713 175.253C145.557 177.199 145.434 179.288 145.508 180.356C145.508 180.356 141.446 184.42 136.832 175.615C136.832 175.615 138.773 171.984 137.311 167.042C135.85 162.097 146.125 170.869 146.125 170.869Z" fill="#EEA886"/>
<path d="M157.484 199.311C157.484 199.311 158.462 192.82 157.421 188.874C157.421 188.874 157.421 192.268 155.559 197.087L157.484 199.311Z" fill="#8769F4"/>
<path d="M133.715 176.239C133.715 176.239 136.506 184.474 144.174 183.87C151.841 183.265 147.808 176.916 147.808 176.916C147.808 176.916 145.898 175.822 145.358 175.718C144.821 175.615 136.882 175.515 136.882 175.515L133.715 176.239Z" fill="#EEA886"/>
<path d="M147.805 176.914C147.805 176.914 151.821 188.005 151.821 199.311C151.821 210.616 152.143 229.031 153.547 234.847C154.95 240.663 158.939 258.647 158.939 258.647L162.067 257.031C162.067 257.031 154.547 228.327 153.98 226.259C153.412 224.188 154.411 202.324 154.95 200.492C155.489 198.66 157.783 190.512 157.426 188.25C156.976 185.4 154.306 181.183 149.992 177.557L147.805 176.914Z" fill="#A78BEF"/>
<path d="M135.226 175.892C135.226 175.892 137.723 183.872 138.986 194.092C140.251 204.313 135.105 251.754 131.653 262.523L118.281 260.369C118.281 260.369 121.16 226.835 125.068 220.733C128.975 214.631 130.219 209.23 126 196.493C121.783 183.756 127.849 177.447 127.849 177.447C127.849 177.447 134.055 176.025 135.226 175.892Z" fill="#A78BEF"/>
<path d="M149.652 209.733L133.438 237.779L115.414 227.387L130.924 198.936L149.652 209.733Z" fill="#E527BB"/>
<path d="M147.701 210.698L133.3 235.605L117.293 226.376L131.067 201.109L147.701 210.698Z" fill="#E0CEC7"/>
<path d="M142.386 208.46L143.396 206.712L136.925 202.982L135.66 204.585L142.386 208.46Z" fill="#A78BEF"/>
<path d="M141.614 228.36C141.614 228.36 140.877 228.363 140.554 228.208C140.554 228.208 139.988 227.88 139.57 227.671C139.438 227.605 139.322 227.55 139.242 227.523C138.912 227.41 138.152 227.258 137.434 226.759C136.718 226.264 134.18 223.327 134.18 223.327L135.378 221.507L136.257 219.643C136.257 219.643 141.587 219.986 142.309 220.373C142.379 220.411 142.447 220.45 142.508 220.494C143.087 220.879 143.355 221.41 143.636 221.647C143.738 221.734 144.699 222.675 144.667 223.075C144.621 223.63 144.363 223.996 144.029 224.178C144.029 224.178 143.89 225.261 143.357 225.768C143.357 225.768 143.262 226.771 142.417 227.211C142.417 227.207 142.206 228.214 141.614 228.36Z" fill="#EEA886"/>
<path d="M130.627 177.483C130.627 177.483 125.704 176.074 122.882 181.494C120.06 186.911 120.076 189.225 119.698 191.87C119.341 194.367 117.734 201.188 117.571 201.894C117.408 202.597 113.768 210.998 115.437 213.933C117.115 216.884 134.155 225.57 134.047 226.221C133.939 226.871 136.998 219.654 136.998 219.654C136.998 219.654 130.103 215.816 128.974 214.635C127.139 212.716 123.269 210.647 124.065 208.265C124.999 205.468 127.804 196.03 128.455 194.648C129.108 193.264 134.778 179.245 130.627 177.483Z" fill="#A78BEF"/>
<path d="M146.73 149.534C146.73 149.534 155.495 152.285 150.737 167.391C145.978 182.499 134.006 165.641 135.259 156.436C136.513 147.232 146.73 149.534 146.73 149.534Z" fill="#EEA987"/>
<path d="M151.634 158.348C151.634 158.348 147.278 162.616 139.988 163.149C139.988 163.149 137.188 166.43 136.971 167.717C136.971 167.717 130.468 156.647 138.462 150.01C146.46 143.375 154.573 155.613 151.634 158.348Z" fill="#231F20"/>
<path d="M140.078 163.451C140.021 162.351 139.343 159.85 137.706 160.549C136.069 161.249 137.807 166.344 138.891 166.031C138.893 166.031 140.211 166.052 140.078 163.451Z" fill="#EEA987"/>
<path d="M145.873 173.395C145.822 173.969 145.765 174.603 145.712 175.253C145.712 175.253 141.842 175.024 139.258 169.276C139.425 169.526 142.26 173.685 145.873 173.395Z" fill="#A77860"/>
<path opacity="0.95" d="M307.198 105.249H251.931C246.873 105.249 242.773 101.155 242.773 96.1032V48.2131C242.773 43.1614 246.873 39.0674 251.931 39.0674H307.198C312.257 39.0674 316.356 43.1633 316.356 48.2131V96.1032C316.358 101.155 312.257 105.249 307.198 105.249Z" fill="url(#paint3_linear_1514_4447)"/>
<path d="M282.202 92.7314H276.367V93.8104H282.202V92.7314Z" fill="#E527BB"/>
<path d="M284.566 33.2685C284.566 33.2685 289.267 35.8474 287.775 42.1885C286.282 48.5296 285.714 49.3658 286.928 51.9277C288.141 54.4895 289.206 65.2262 287.913 67.1907C286.62 69.1552 273.503 57.6108 272.047 48.3741C270.588 39.1374 273.869 35.2159 275.033 33.752C276.197 32.2881 280.417 30.9152 284.566 33.2685Z" fill="#231F20"/>
<path d="M293.395 85.6737H288.361C288.118 83.1933 287.892 81.4677 287.939 81.2118C288.014 80.7908 282.93 67.4733 282.456 66.3716C281.977 65.2737 280.114 62.3193 279.871 59.5375C279.625 56.7556 283.257 55.6331 283.257 55.6331C288.158 56.5091 289.819 63.2826 289.819 63.2826C289.819 63.2826 291.878 77.0153 292.918 80.8799C293.186 81.8717 293.33 83.6219 293.395 85.6737Z" fill="#EEA886"/>
<path d="M290.863 66.5915L283.367 69.7487C283.367 69.7487 276.476 52.671 282.252 54.5786C288.01 56.4787 290.6 60.0512 290.863 66.5915Z" fill="#A78BEF"/>
<path d="M289.193 74.6316C288.974 76.3268 288.078 82.3323 288.277 83.9555C288.311 84.2229 288.422 84.8392 288.589 85.6754H270.512C270.992 83.9612 271.431 82.4442 271.695 81.5624C272.572 78.6555 271.731 77.8761 271.289 75.5494C271.116 74.6392 270.51 72.9098 269.847 70.9547C269.625 70.3024 269.397 69.6236 269.179 68.939C268.383 66.4777 268.015 63.9613 267.787 62.4955C266.697 55.5514 272.044 54.8839 272.044 54.8839C274.032 54.5179 277.503 53.4465 277.503 53.4465L282.942 54.5767C282.942 54.5767 283.46 54.7701 284.214 55.3276C284.214 55.3276 284.218 55.3276 284.218 55.3314C284.58 55.5988 285 55.9496 285.44 56.4028C286.035 57.0115 287.218 58.7561 288.399 60.6732C288.76 61.261 289.122 61.864 289.464 62.4576C290.569 64.369 291.355 65.9088 291.331 67.6477C291.31 69.3581 289.411 72.9363 289.193 74.6316Z" fill="#A78BEF"/>
<path d="M282.941 54.5786C282.941 54.5786 286.347 60.3945 285.081 60.8287C283.814 61.2629 277.136 59.7952 274.527 54.3018C274.527 54.2999 278.912 52.3088 282.941 54.5786Z" fill="#EEA886"/>
<path d="M282.452 57.2334C282.452 57.2334 279.425 58.5114 276.685 54.3017C276.685 54.3017 277.422 49.5213 275.865 46.7565C274.308 43.9917 282.671 50.0712 282.671 50.0712C282.671 50.0712 282.536 50.6419 282.395 51.482C282.323 51.9124 282.249 52.4131 282.194 52.9459C282.146 53.3896 282.11 53.8542 282.095 54.3169C282.059 55.394 282.135 56.4597 282.452 57.2334Z" fill="#EEA886"/>
<path d="M274.941 63.7471C274.318 66.948 269.848 70.9567 269.848 70.9567C269.628 70.3025 269.4 69.6236 269.18 68.9428C272.263 66.9745 274.941 63.7471 274.941 63.7471Z" fill="#393D63"/>
<path d="M273.816 66.2939C273.534 67.4601 272.231 79.2719 272.371 79.6758C272.455 79.9071 273.085 82.6397 273.718 85.6756H267.883C267.285 83.7186 266.931 82.0935 267.017 81.1739C267.389 77.1898 266.037 64.4886 266.037 64.4886C266.037 64.4886 264.826 56.805 271.209 55.8455C271.209 55.8455 274.98 56.3404 275.208 59.1222C275.438 61.9059 274.099 65.1296 273.816 66.2939Z" fill="#EEA886"/>
<path d="M265.568 67.9245L273.49 69.7733C273.49 69.7733 279.775 57.5879 274.114 55.3617C268.148 53.016 264.138 61.278 265.568 67.9245Z" fill="#A78BEF"/>
<path d="M283.835 33.9454C283.835 33.9454 290.72 36.4693 286.356 48.3342C281.993 60.201 273.084 46.309 274.43 39.016C275.774 31.7267 283.835 33.9454 283.835 33.9454Z" fill="#EEA987"/>
<path d="M287.411 41.1588C287.411 41.1588 283.777 44.3976 277.946 44.5493C277.946 44.5493 276.582 47.8678 276.362 48.8861C276.362 48.8861 270.601 39.0066 277.224 34.0156C283.849 29.0246 289.857 39.0881 287.411 41.1588Z" fill="#231F20"/>
<path d="M278.732 45.2603C278.728 44.3823 278.282 42.3609 276.951 42.8577C275.62 43.3546 276.812 47.4827 277.69 47.2741C277.69 47.2741 278.742 47.3405 278.732 45.2603Z" fill="#EEA987"/>
<path d="M282.103 54.116C278.867 53.2229 277.616 50.1434 277.578 50.0391C280.21 53.4353 282.194 52.946 282.194 52.946C282.147 53.3898 282.143 53.6666 282.103 54.116Z" fill="#A77860"/>
<path d="M297.057 51.0422V52.0985H303.279V57.9314H304.337V51.0422H297.057ZM254.797 57.9314H255.855V52.0985H262.077V51.0422H254.797V57.9314ZM303.281 88.027V93.8618H297.059V94.918H304.339V88.027H303.281ZM255.855 88.027H254.797V94.918H262.077V93.8618H255.855V88.027Z" fill="#E527BB"/>
<path d="M186.756 142.178H178.961V143.62H186.756V142.178Z" fill="#E527BB"/>
<path d="M206.222 86.4946V87.9036H214.535V95.6953H215.947V86.4946H206.222ZM149.773 95.6953H151.186V87.9036H159.499V86.4946H149.775V95.6953H149.773ZM214.533 135.896V143.69H206.22V145.099H215.943V135.896H214.533ZM151.186 135.896H149.773V145.099H159.497V143.69H151.184L151.186 135.896Z" fill="#E527BB"/>
<path d="M356.991 194.813H350.397C350.275 194.549 350.178 194.32 350.099 194.138C348.143 189.524 338.058 178.945 338.058 178.945C338.058 178.945 338.058 178.951 338.058 178.968C338.058 178.968 338.052 178.974 338.052 178.979C338.052 178.979 338.052 178.985 338.052 178.991C338.047 179.008 338.041 179.019 338.035 179.036C338.03 179.059 338.024 179.087 338.013 179.121C338.007 179.138 338.001 179.161 338.001 179.178C337.996 179.195 337.99 179.207 337.984 179.224C337.57 180.765 335.54 188.445 334.524 194.811H289.906C289.803 194.221 289.682 193.66 289.545 193.139C289.137 191.557 288.862 189.993 288.685 188.531C288.679 188.457 288.668 188.387 288.662 188.313C288.628 188.043 288.6 187.774 288.577 187.51C288.193 183.511 288.48 180.445 288.503 180.134C288.377 180.403 287.476 183.705 286.293 187.778C285.643 190.014 284.91 192.482 284.181 194.809H273.645L286.866 156.715C287.158 156.486 290.59 154.83 293.092 153.638C295.646 152.422 298.728 150.64 301.512 149.115C302.936 148.336 304.278 147.63 305.442 147.097L305.621 147.018V147.012C307.542 146.136 308.822 145.556 308.822 145.556C308.822 145.556 308.822 145.556 308.828 145.556C308.873 145.55 309.177 145.522 309.659 145.476C312.344 145.218 320.678 144.439 323.468 144.278C323.697 144.261 323.893 144.255 324.041 144.249C324.168 144.243 324.265 144.243 324.322 144.249C324.672 144.272 326.394 144.869 328.65 145.728C328.735 145.757 328.822 145.791 328.908 145.825C329.016 145.865 329.12 145.905 329.229 145.944C329.424 146.02 329.626 146.094 329.825 146.174C330.227 146.335 330.645 146.494 331.065 146.661C331.209 146.718 331.357 146.775 331.507 146.834C336.023 148.622 341.199 150.839 342.427 151.722C343.242 152.301 345.773 157.064 348.705 162.954C351.863 173.059 355.723 187.628 356.991 194.813Z" fill="#DECBC4"/>
<path d="M324.248 142.96C324.128 148.95 312.517 152.227 312.517 152.227C312.517 152.227 307.66 146.145 308.82 145.563C309.275 145.334 309.46 144.427 309.517 143.409C309.57 142.44 309.507 141.371 309.45 140.692C309.416 140.269 309.384 139.996 309.384 139.996C309.384 139.996 311.043 138.248 313.153 136.165C316.842 132.523 321.912 127.858 321.92 129.714C321.92 129.813 321.906 129.931 321.876 130.065C320.985 134.243 324.248 142.96 324.248 142.96Z" fill="#EEA886"/>
<path d="M319.775 134.184C319.752 134.22 319.259 134.956 318.418 136.012C316.635 138.251 313.283 141.93 309.516 143.407C309.569 142.438 309.506 141.369 309.449 140.69C309.064 140.68 308.679 140.635 308.297 140.551C309.33 138.75 310.822 136.859 310.822 136.859L313.154 136.164L319.775 134.184Z" fill="#A77860"/>
<path d="M322.006 129.794C321.001 131.976 320.048 133.558 319.777 134.186C319.777 134.186 319.777 134.186 319.777 134.188C319.6 134.595 319.121 135.261 318.421 136.014C316.507 138.073 312.95 140.788 309.453 140.694C309.067 140.684 308.682 140.639 308.3 140.555C306.887 140.248 305.22 139.592 304.303 137.798C297.059 123.633 302.304 112.051 302.304 112.051C302.304 112.051 322.112 106.457 325.213 112.411C327.385 116.586 324.364 124.666 322.006 129.794Z" fill="#EEA886"/>
<path d="M302.302 112.047C302.302 112.047 300.462 111.944 300.008 108.461C299.558 105.019 300.467 104.065 300.467 104.065C300.467 104.065 308.646 100.647 311.581 100.203C314.519 99.7591 321.74 99.3305 323.432 101.265C323.432 101.265 327.545 100.311 328.665 107.128C330.442 117.944 322.608 128.448 322.608 128.448C322.608 128.448 322.674 121.38 321.113 120.445C319.552 119.509 318.206 121.735 318.206 121.735L315.014 122.306C315.014 122.306 319.862 111.852 314.046 111.465C308.232 111.078 305.63 112.654 302.302 112.047Z" fill="#231F20"/>
<path d="M318.294 118.919C318.598 115.805 324.235 114.618 323.858 117.88C323.48 121.143 320.704 124.278 319.422 124.168C318.138 124.058 318.062 121.293 318.294 118.919Z" fill="#EEA886"/>
<path d="M351.292 163.253C349.456 157.379 347.867 152.731 347.161 152.227C345.926 151.345 336.147 148.656 331.505 146.839C331.355 146.783 331.207 146.726 331.062 146.667C330.643 146.5 330.225 146.341 329.822 146.18C329.621 146.1 329.422 146.024 329.226 145.95C329.118 145.91 329.014 145.87 328.905 145.831C328.82 145.796 328.732 145.762 328.647 145.734C328.641 145.74 328.636 145.751 328.624 145.757C328.21 146.221 326.065 148.656 323.499 152.303C318.701 159.11 312.452 170.143 313.411 180.327C313.72 183.595 314.1 188.288 314.736 193.554C314.782 193.973 314.833 194.39 314.892 194.815H336.539C336.802 189.302 337.273 182.042 337.984 179.228C337.989 179.211 337.995 179.199 338.001 179.182C338.001 179.165 338.006 179.142 338.012 179.125C338.018 179.097 338.029 179.068 338.035 179.04C338.04 179.023 338.046 179.011 338.052 178.994C338.052 178.989 338.052 178.983 338.052 178.983C338.052 178.977 338.058 178.972 338.058 178.972C338.058 178.972 343.296 187.15 343.566 194.817H357.19C356.527 187.691 354.444 173.334 351.292 163.253Z" fill="#A78BEF"/>
<path d="M305.533 147.173C305.533 147.173 303.898 152.606 301.786 166.172C301.786 166.172 301.786 166.172 301.786 166.178C301.712 166.631 301.642 167.095 301.568 167.569C301.562 167.621 301.551 167.677 301.545 167.736C301.494 168.045 301.448 168.368 301.401 168.688C301.395 168.728 301.39 168.762 301.384 168.802C301.35 169.014 301.316 169.232 301.287 169.454C301.207 169.987 301.126 170.537 301.046 171.095C300.254 176.63 299.198 185.428 298.126 194.815H289.569C289.104 192.208 288.669 189.835 288.704 188.206C288.687 188.241 288.675 188.282 288.664 188.315C287.98 190.205 287.228 192.263 286.467 194.263C286.398 194.447 286.328 194.629 286.26 194.813H271.512L286.203 156.433C286.495 156.203 290.278 154.169 292.78 152.983C295.391 151.739 298.691 150.209 301.617 148.863C303.017 148.216 304.331 147.613 305.446 147.103L305.533 147.173Z" fill="#A78BEF"/>
<path d="M325.43 160.595L319.777 163.781L322.192 166.24L316.889 194.815H314.891C314.156 189.039 313.739 183.853 313.41 180.327C311.935 164.579 327.67 146.819 328.646 145.736C329.404 146.022 330.218 146.337 331.061 146.671L325.43 160.595Z" fill="#8769F4"/>
<path d="M305.621 147.023C305.621 147.023 303.51 153.907 301.053 171.093C300.261 176.622 299.199 185.427 298.127 194.813H297.295L296.199 167.814L298.89 164.903L296.497 161.919L301.617 148.863C303.016 148.216 304.33 147.613 305.445 147.103L305.621 147.023Z" fill="#8769F4"/>
<path d="M328.935 145.802L324.25 142.962C324.25 142.962 324.119 145.527 312.52 152.229L315.814 161.494L328.935 145.802Z" fill="#E527BB"/>
<path d="M309.43 144.253C309.43 144.253 309.612 147.021 312.516 152.227L306.086 160.597L305.617 147.021L309.43 144.253Z" fill="#E527BB"/>
<path d="M312.537 152.227C312.537 152.227 313.782 157.204 313.334 158.598C313.334 158.598 310.594 159.594 308.625 158.35C308.625 158.35 310.019 154.865 312.537 152.227Z" fill="#E527BB"/>
<path d="M311.025 169.151C309.711 178.092 309.711 187.135 310.199 194.815H304.708C304.634 193.732 304.564 192.602 304.495 191.423C303.474 173.721 309.74 157.902 309.74 157.902L312.535 157.203C312.535 157.203 311.635 165.025 311.025 169.151Z" fill="#E527BB"/>
<path d="M288.879 180.182C288.671 184.429 288.701 188.201 288.701 188.201C288.701 188.201 288.701 188.203 288.701 188.205C288.699 188.225 288.695 188.339 288.686 188.529C288.676 188.457 288.669 188.387 288.659 188.317C287.979 190.207 287.224 192.263 286.464 194.263C286.288 191.944 286.242 189.784 286.293 187.782C286.597 175.871 290.349 169.627 290.349 169.627C289.491 171.703 289.077 176.158 288.879 180.182Z" fill="#2D3133"/>
<path d="M237.547 194.864L220 204.497L202.379 176.804L223.691 169.411L237.547 194.864Z" fill="#E527BB"/>
<path d="M236.432 194.034L220.023 203.041L203.543 177.144L223.475 170.23L236.432 194.034Z" fill="white"/>
<path d="M242.443 189.189C242.443 189.189 239.39 187.73 238.049 186.968C236.708 186.206 233.26 185.159 232.981 184.911C232.702 184.662 222.76 184.05 222.156 183.53C221.552 183.011 220.965 184.748 223.544 185.313C226.121 185.876 229.708 187.254 229.903 188.261C230.099 189.268 227.256 189.505 226.968 190.334C226.679 191.163 227.049 190.977 227.456 191.155C227.864 191.333 230.837 189.687 232.146 190.154C233.454 190.62 235.453 189.974 236.456 190.317C237.458 190.66 242.333 192.297 242.333 192.297L242.443 189.189Z" fill="#EEA886"/>
<path d="M219.143 201.023C219.143 201.023 216.578 198.717 215.336 197.752C214.095 196.787 211.765 193.95 211.421 193.785C211.077 193.62 206.628 184.501 205.903 184.135C205.178 183.769 206.588 182.542 208.125 184.748C209.661 186.953 212.357 189.792 213.382 189.585C214.408 189.378 213.527 186.61 214.195 186.016C214.865 185.423 214.833 185.842 215.16 186.156C215.486 186.471 215.091 189.911 216.043 190.96C216.992 192.008 217.161 194.142 217.875 194.953C218.589 195.765 222.033 199.713 222.033 199.713L219.143 201.023Z" fill="#EEA886"/>
<path d="M274.402 324.284C274.402 324.284 274.957 328.132 275.027 328.708C275.095 329.286 281.202 328.367 281.202 328.367L281.696 323.787C281.694 323.789 275.164 323.742 274.402 324.284Z" fill="#424773"/>
<path d="M274.961 328.221C274.961 328.221 273.026 330.54 271.156 331.549C269.286 332.559 266.346 332.959 265.239 334.004C264.442 334.759 262.33 338.009 270.1 337.945C277.87 337.878 281.616 338.404 282.448 337.158C283.282 335.912 281.244 327.959 281.244 327.959C281.244 327.959 279.404 328.621 274.961 328.221Z" fill="#A78BEF"/>
<path d="M230.66 324.284C230.66 324.284 231.215 328.132 231.285 328.708C231.353 329.286 237.46 328.367 237.46 328.367L237.954 323.787C237.952 323.789 231.423 323.742 230.66 324.284Z" fill="#424773"/>
<path d="M231.217 328.221C231.217 328.221 229.282 330.54 227.412 331.549C225.542 332.559 218.656 333.388 217.551 334.435C216.754 335.189 215.425 338.229 226.358 337.945C234.124 337.744 237.874 338.404 238.706 337.158C239.54 335.912 237.502 327.959 237.502 327.959C237.502 327.959 235.767 328.666 231.217 328.221Z" fill="#A78BEF"/>
<path d="M269.346 225.428C269.346 225.428 275.082 234.53 274.653 242.756C274.226 250.984 276.732 259.965 277.594 268.559C278.555 278.141 282.486 300.822 282.628 305.947C282.771 311.073 282.019 327.438 282.019 327.438L274.15 327.618C274.15 327.618 267.54 287.965 265.829 283.918C264.117 279.872 255.629 251.028 255.344 247.791C255.059 244.554 269.346 225.428 269.346 225.428Z" fill="#231F20"/>
<path d="M239.151 226.663C239.151 226.663 234.827 249.211 234.257 254.246C233.688 259.28 233.306 278.613 233.021 281.76C232.736 284.908 231.119 322.942 229.598 327.618H239.658C239.658 327.618 247.38 299.968 247.38 286.886C247.38 273.804 253.346 258.446 257.197 249.814C261.048 241.182 269.864 240.977 272.232 224.963C272.234 224.963 242.356 221.582 239.151 226.663Z" fill="#231F20"/>
<path d="M259.774 148.91C259.774 148.91 252.074 146.037 248.526 151.891C244.977 157.745 245.317 169.462 249.198 170.903C253.079 172.344 258.908 171.59 260.895 167.928C262.881 164.266 264.675 158.972 264.59 155.431C264.504 151.895 261.796 149.932 259.774 148.91Z" fill="#EEA886"/>
<path d="M250.033 171.17C250.033 171.17 250.354 173.247 249.824 174.269C249.294 175.291 259.799 175.318 259.799 175.318C259.799 175.318 260.651 169.756 262.269 165.055C263.887 160.354 250.033 171.17 250.033 171.17Z" fill="#EEA886"/>
<path d="M262.267 165.057C262.267 165.057 261.541 166.251 258.583 165.787C255.623 165.324 252.013 161.391 250.777 160.959C249.541 160.527 249.529 159.802 249.529 159.802L248.757 160.931L247.445 161.014C247.445 161.014 248.641 157.496 246.835 156.063C245.029 154.627 248.709 144.678 258.199 147.99C258.199 147.99 265.489 149.997 265.223 154.138C264.959 158.278 263.898 162.994 262.267 165.057Z" fill="#231F20"/>
<path d="M249.199 174.145C249.199 174.145 249.233 172.192 250.12 172.005C251.007 171.817 259.909 170.964 260.998 171.39V173.666C260.997 173.666 258.9 174.955 249.199 174.145Z" fill="#E2D2CA"/>
<path d="M249.725 158.299C249.892 157.604 251.659 155.619 252.335 157.745C253.011 159.871 251.312 162.728 250.364 162.484C249.417 162.239 249.305 160.058 249.725 158.299Z" fill="#EEA886"/>
<path d="M213.869 197.233C213.873 197.231 213.879 197.231 213.884 197.231C213.821 197.257 213.814 197.259 213.869 197.233Z" fill="#323657"/>
<path d="M275.815 247.11C275.815 247.11 271.092 248.498 263.041 249.384C254.99 250.269 234.872 249.063 234.745 248.113C234.618 247.163 239.073 212.74 238.82 210.967C238.567 209.194 238.431 202.878 238.431 202.878C238.332 204.609 236.566 211.678 234.434 215.531C233.663 216.923 231.08 221.289 229.835 220.295C223.808 215.49 214.475 197.38 213.883 197.227C214.38 197.011 218.305 195.205 218.856 195.023C219.338 194.862 223.686 199.461 226.32 202.311C227.495 203.581 228.329 204.505 228.329 204.505C229.09 202.796 231.861 192.027 232.721 188.301C234.663 179.897 234.365 179.546 234.365 179.546C240.256 177.767 249.197 174.146 249.197 174.146L260.994 173.666C260.994 173.666 271.821 176.046 276.086 177.97C276.491 178.152 276.493 187.617 277.601 190.099L274.066 197.547C274.066 197.547 272.023 212.302 271.599 218.865C271.409 221.874 275.815 247.11 275.815 247.11Z" fill="#A78BEF"/>
<path d="M278.094 202.385C277.787 203.378 276.387 204.217 275.48 204.585C274.899 204.82 274.247 204.895 273.59 204.774L273.129 204.689L265.044 203.191C265.044 203.191 263.274 182.846 276.089 177.97C276.427 178.08 280.924 193.275 278.094 202.385Z" fill="#A78BEF"/>
<path d="M275.48 204.582C274.899 204.818 274.247 204.893 273.59 204.772L273.129 204.687L273.926 194.29L275.48 204.582Z" fill="#8769F4"/>
<path d="M228.331 204.507L227.344 208.686C227.344 208.686 226.271 204.493 226.322 202.314C227.497 203.583 228.331 204.507 228.331 204.507Z" fill="#8769F4"/>
<path d="M261.965 149.6C261.965 149.6 272.055 148.337 262.136 165.171L261.965 149.6Z" fill="#231F20"/>
<path d="M210.492 175.319L209.465 173.56L217.544 170.776L218.57 172.526L210.492 175.319Z" fill="#E527BB"/>
<path d="M217.662 37.7304H208.91C208.614 37.7304 208.375 37.4915 208.375 37.1957V35.3089C208.375 35.0131 208.614 34.7742 208.91 34.7742H217.662C217.958 34.7742 218.198 35.0131 218.198 35.3089V37.1957C218.196 37.4915 217.956 37.7304 217.662 37.7304Z" fill="#E527BB"/>
<path d="M217.662 44.8186H208.91C208.614 44.8186 208.375 44.5797 208.375 44.2838V42.3971C208.375 42.1012 208.614 41.8623 208.91 41.8623H217.662C217.958 41.8623 218.198 42.1012 218.198 42.3971V44.2838C218.196 44.5778 217.956 44.8186 217.662 44.8186Z" fill="#E527BB"/>
<path d="M217.662 51.905H208.91C208.614 51.905 208.375 51.6661 208.375 51.3703V49.4835C208.375 49.1877 208.614 48.9487 208.91 48.9487H217.662C217.958 48.9487 218.198 49.1877 218.198 49.4835V51.3703C218.196 51.6661 217.956 51.905 217.662 51.905Z" fill="#E527BB"/>
<path d="M224.51 37.7304H222.785C222.489 37.7304 222.25 37.4915 222.25 37.1957V35.3089C222.25 35.0131 222.489 34.7742 222.785 34.7742H224.51C224.806 34.7742 225.045 35.0131 225.045 35.3089V37.1957C225.043 37.4915 224.804 37.7304 224.51 37.7304Z" fill="#E527BB"/>
<path d="M224.51 44.8186H222.785C222.489 44.8186 222.25 44.5797 222.25 44.2838V42.3971C222.25 42.1012 222.489 41.8623 222.785 41.8623H224.51C224.806 41.8623 225.045 42.1012 225.045 42.3971V44.2838C225.043 44.5778 224.804 44.8186 224.51 44.8186Z" fill="#E527BB"/>
<path d="M224.51 51.905H222.785C222.489 51.905 222.25 51.6661 222.25 51.3703V49.4835C222.25 49.1877 222.489 48.9487 222.785 48.9487H224.51C224.806 48.9487 225.045 49.1877 225.045 49.4835V51.3703C225.043 51.6661 224.804 51.905 224.51 51.905Z" fill="#E527BB"/>
<path d="M186.488 197.35H196.763L193.618 190.837H183.344L186.488 197.35Z" fill="url(#paint4_linear_1514_4447)"/>
<path d="M181.682 197.35H184.129L180.985 190.837H178.535L181.682 197.35Z" fill="url(#paint5_linear_1514_4447)"/>
<path d="M412.347 310.797H406.91C406.91 310.797 379.947 255.241 387.257 246.667C396.688 235.608 408.94 267.17 412.347 310.797Z" fill="#39B039"/>
<path d="M410.632 310.797H409.741L392.604 254.552C392.537 254.326 392.661 254.089 392.886 254.021C393.112 253.954 393.349 254.078 393.417 254.304L410.632 310.797Z" fill="#00743B"/>
<path d="M415.551 310.797H420.989C420.989 310.797 447.951 255.241 440.641 246.667C431.21 235.608 418.947 267.17 415.551 310.797Z" fill="#39B039"/>
<path d="M417.266 310.797H418.157L435.294 254.552C435.361 254.326 435.237 254.089 435.012 254.021C434.786 253.954 434.549 254.078 434.481 254.304L417.266 310.797Z" fill="#00743B"/>
<path d="M417.163 310.797H412.346C401.696 259.726 405.949 216.946 416.735 224.967C427.52 232.987 417.163 310.797 417.163 310.797Z" fill="#39B039"/>
<path d="M414.343 235.36L413.768 310.797H412.922L413.497 235.36C413.497 235.122 413.689 234.942 413.926 234.942C414.152 234.93 414.343 235.122 414.343 235.36Z" fill="#00743B"/>
<path d="M438.541 310.21L437.842 312.085L437.402 313.271L436.127 316.671L435.676 317.858L434.367 321.348L433.927 322.534L428.298 337.502H397.544L391.915 322.534L391.475 321.348L390.166 317.858L389.715 316.671L388.44 313.271L388 312.085L387.3 310.21C386.815 308.922 387.763 307.555 389.128 307.555H436.736C438.079 307.566 439.027 308.933 438.541 310.21Z" fill="#E31E23"/>
<path d="M437.834 312.085L437.394 313.271H388.42L387.98 312.085H437.834Z" fill="white"/>
<path d="M436.119 316.672L435.668 317.858H390.147L389.695 316.672H436.119Z" fill="white"/>
<path d="M434.361 321.337L433.91 322.523H391.908L391.457 321.337H434.361Z" fill="white"/>
<path d="M375.196 94.3691H366.645V117.527H375.196V94.3691Z" fill="#A78BEF"/>
<path d="M387.719 88.8452H379.168V117.538H387.719V88.8452Z" fill="#E527BB"/>
<path d="M400.231 100.978H391.68V117.538H400.231V100.978Z" fill="#A78BEF"/>
<path d="M412.751 84.417H404.199V117.527H412.751V84.417Z" fill="#E527BB"/>
<path d="M363 80V117.538H416.655" stroke="#007CFF" stroke-miterlimit="10"/>
</g>
<defs>
<linearGradient id="paint0_linear_1514_4447" x1="190.013" y1="255.597" x2="182.213" y2="114.028" gradientUnits="userSpaceOnUse">
<stop stop-color="#D1D7E0"/>
<stop offset="1" stop-color="#EBEBFF"/>
</linearGradient>
<linearGradient id="paint1_linear_1514_4447" x1="317.949" y1="295.064" x2="317.949" y2="149.318" gradientUnits="userSpaceOnUse">
<stop stop-color="#D1D7E0"/>
<stop offset="1" stop-color="#EBEBFF"/>
</linearGradient>
<linearGradient id="paint2_linear_1514_4447" x1="182.86" y1="205.063" x2="182.86" y2="98.4924" gradientUnits="userSpaceOnUse">
<stop stop-color="#D1D7E0"/>
<stop offset="1" stop-color="#EBEBFF"/>
</linearGradient>
<linearGradient id="paint3_linear_1514_4447" x1="279.565" y1="114.966" x2="279.565" y2="54.9337" gradientUnits="userSpaceOnUse">
<stop stop-color="#D1D7E0"/>
<stop offset="1" stop-color="#EBEBFF"/>
</linearGradient>
<linearGradient id="paint4_linear_1514_4447" x1="183.344" y1="194.093" x2="196.762" y2="194.093" gradientUnits="userSpaceOnUse">
<stop stop-color="#D1D7E0"/>
<stop offset="1" stop-color="#EBEBFF"/>
</linearGradient>
<linearGradient id="paint5_linear_1514_4447" x1="178.536" y1="194.093" x2="184.129" y2="194.093" gradientUnits="userSpaceOnUse">
<stop stop-color="#D1D7E0"/>
<stop offset="1" stop-color="#EBEBFF"/>
</linearGradient>
<clipPath id="clip0_1514_4447">
<rect width="556.76" height="338.36" fill="white"/>
</clipPath>
</defs>
</svg>
