<svg width="543" height="329" viewBox="0 0 543 329" fill="none" xmlns="http://www.w3.org/2000/svg">
<g clip-path="url(#clip0_587_8566)">
<path opacity="0.2" d="M78.8274 327.341C41.5074 289.411 -9.50263 250.241 10.4974 191.071C23.6574 152.151 55.9074 141.311 82.7274 117.311C95.9574 105.471 87.6374 88.2309 87.3874 71.1209C86.8274 27.3009 139.207 -6.69908 187.367 -5.98908C239.527 -5.21908 262.107 43.7309 305.867 46.3609C323.047 46.6109 338.437 37.1909 353.637 29.7209C398.677 7.56092 470.157 21.6909 473.767 75.2709C474.697 104.211 439.417 150.761 474.767 165.981C502.937 178.111 531.397 182.581 536.477 225.961C543.127 282.741 507.987 313.901 462.217 328.521L78.8274 327.341Z" fill="#999999"/>
<path d="M223.19 193.643C226.409 187.593 235.603 180.215 235.66 173.073C235.716 166.018 234.497 159.025 232.385 152.281C231.632 150.337 230.775 148.424 229.788 146.562C226.356 140.087 221.998 134.14 217.878 128.096C215.794 125.04 213.908 122.089 212.864 118.922C206.048 108.012 206.547 94.5411 203.412 85.4921C199.423 73.9727 167.773 76.8497 164.072 91.8447C157.881 116.925 165.736 120.834 159.8 134.009C153.863 147.185 141.575 160.015 163.452 183.313C188.09 209.55 206.321 207.866 223.19 193.643Z" fill="#2B1B1C"/>
<path d="M226.197 196.338C230.506 191.006 235.602 180.215 235.66 173.073C235.717 165.98 234.481 158.951 232.345 152.176C231.601 150.267 230.757 148.39 229.788 146.562C228.157 143.484 226.313 140.527 224.388 137.62C218.874 135.697 212.359 133.276 209.178 130.93C205.095 127.921 202.143 123.522 202.363 115.838C202.472 112.041 196.891 102.144 192.73 100.853C191.497 100.47 191.041 99.4376 191.14 98.4426C184.981 97.4397 179.634 95.2203 173.44 95.912C171.713 98.9719 167.289 96.6242 167.207 98.0757C166.257 114.799 164.648 124.415 161.679 130.313C161.198 131.269 160.695 132.206 160.174 133.129C160.053 133.419 159.933 133.708 159.799 134.007C153.862 147.183 141.574 160.013 163.451 183.311C188.09 209.55 212.333 213.495 226.197 196.338Z" fill="#2B1B1C"/>
<path d="M217.443 153.698C212.623 144.217 204.103 135.346 202.697 124.632C201.088 112.358 205.201 99.365 201.367 87.4594C200.945 86.1498 181.604 77.4836 171.737 82.8673C157.324 121.325 186.905 135.362 166.978 186.848C184.656 203.71 202.575 206.396 217.208 200.95C214.728 188.867 140.222 274.87 217.443 153.698Z" fill="#2B1B1C"/>
<path d="M131.92 169.257C130.795 171.998 129.219 176.402 131.92 178.11C134.62 179.817 136.69 180.896 136.69 180.896L138.22 175.503L137.905 170.99L131.92 169.257Z" fill="#FEC4AD"/>
<path d="M158.378 140.39C156.337 141.869 153.335 144.388 151.717 149.41C150.098 154.432 143.195 177.761 142.332 179.704C141.468 181.649 151.794 189.109 151.794 189.109H159.375L162.827 178.246L158.378 140.39Z" fill="#454545"/>
<path d="M191.183 112.669C191.183 112.669 190.787 124.353 193.563 129.676C195.477 133.35 202.414 134.542 202.414 134.542C202.414 134.542 203.296 144.978 197.034 155.477C190.771 165.977 169.525 170.992 169.525 170.992C169.525 170.992 164.827 162.818 162.047 153.51C159.267 144.202 160.969 139.266 160.969 139.266C160.969 139.266 170.52 134.309 173.243 133.095C179.856 130.148 178.422 119.457 178.422 119.457L191.183 112.669Z" fill="#FEC4AD"/>
<path d="M176.361 130.476C181.586 129.424 187.396 128.291 192.227 125.754C190.935 120.051 191.183 112.667 191.183 112.667L178.421 119.455C178.421 119.456 179.325 126.226 176.361 130.476Z" fill="#F7A281"/>
<path d="M203.405 142.435L202.415 134.542C202.415 134.542 192.422 143.899 183.872 143.899C171.657 143.899 170.435 134.548 170.435 134.548L166.178 138.38L166.944 149.019L176.092 202.484L198.918 164.106L203.405 142.435Z" fill="#FEC4AD"/>
<path d="M171.27 157.067C174.693 162.268 189.653 163.949 197.034 155.477C197.034 155.477 195.115 237.179 195.115 245.921C195.115 254.663 191.065 256.993 191.065 256.993L160.968 254.662C160.968 254.662 167.777 218.983 166.177 201.285C164.578 183.586 163.551 164.722 163.551 164.722L171.27 157.067Z" fill="#A78BEF"/>
<path d="M145.265 281.605C145.119 270.91 145.98 260.21 148.629 251C149.671 247.379 150.599 243.963 151.43 240.71H217.534C219.574 250.437 221.484 260.291 221.512 270.789C221.523 274.592 221.486 278.188 221.413 281.605H145.265Z" fill="#313131"/>
<path d="M173.761 181.209L168.97 134.771L158.378 140.39C157.173 144.098 155.264 157.266 152.828 165.236C151.644 169.107 150.419 174.443 151.411 181.266C152.109 186.068 153.9 189.181 155.343 195.223C157.355 203.648 149.376 237.548 147.733 248.938C147.733 248.938 151.253 255.762 169.783 258.719C170.724 229.839 171.347 209.995 173.761 181.209Z" fill="#454545"/>
<path d="M157.02 146.331C155.377 157.248 150.965 167.822 150.965 178.397C159.79 199.546 152.73 221.575 148.318 243.604C146.553 255.06 161.555 256.821 169.782 258.719" stroke="#313131" stroke-width="0.7087" stroke-miterlimit="10"/>
<path d="M173.242 133.094C173.242 133.094 174.426 150.725 174.528 156.972C174.629 163.219 175.537 176.42 174.528 182.062C173.519 187.705 172.403 201.286 172.403 201.286C172.403 201.286 171.43 173.051 170.103 167.481C168.776 161.911 164.336 143.371 164.336 143.371L169.667 140.852L163.551 139.038C163.551 139.038 166.015 135.43 167.262 134.338L173.242 133.094Z" fill="#313131"/>
<path d="M214.551 197.378C218.268 182.813 217.373 167.19 217.373 167.19C217.373 167.19 215.999 144.042 214.794 140.336L198.593 133.104L187.854 170.991C184.912 201.938 181.081 227.471 180.057 258.536C181.737 258.712 189.185 259.989 191.066 259.787C216.968 256.994 221.516 247.245 221.516 247.245C219.975 236.783 211.596 208.958 214.551 197.378Z" fill="#454545"/>
<path d="M197.41 132.481L202.729 133.647L205.594 141.83H201.015L204.414 147.004C204.414 147.004 195.12 166.891 191.065 177.31C187.01 187.729 184.678 205.256 184.678 205.256C184.678 205.256 184.499 185.74 184.873 174.068C185.248 162.397 190.881 149.067 193.462 143.655C196.044 138.242 197.41 132.481 197.41 132.481Z" fill="#313131"/>
<path d="M212.471 156.747C212.471 155.988 214.794 140.336 214.794 140.336C214.794 140.336 220.244 143.235 221.871 148.992C225.763 162.762 224.81 190.255 225.087 194.344C225.554 201.223 221.645 208.18 219.412 209.58C217.179 210.981 209.203 200.201 209.203 200.201L204.414 194.558C204.414 194.558 208.708 184.285 210.356 175.947C212.004 167.609 212.471 156.747 212.471 156.747Z" fill="#454545"/>
<path d="M207.173 154.179C206.776 162.3 207.362 170.469 208.915 178.45" stroke="#313131" stroke-width="0.7087" stroke-miterlimit="10"/>
<path d="M135.309 179.823C134.824 179.876 134.388 179.526 134.334 179.041L131.842 156.357C131.789 155.873 132.139 155.437 132.625 155.383C133.109 155.33 133.546 155.68 133.6 156.165L136.092 178.849C136.144 179.333 135.794 179.769 135.309 179.823Z" fill="#E527BB"/>
<path d="M132.952 166.46C133.058 167.84 133.914 169.407 134.658 170.946C135.401 172.485 134.877 173.387 134.289 173.652C133.701 173.918 133.405 173.652 133.405 173.652C133.405 173.652 133.908 174.449 133.884 175.457C133.86 176.466 133.276 177.05 132.16 176.73C131.044 176.412 128.97 175.563 128.598 174.661C128.226 173.759 128.598 172.644 128.598 172.644C128.598 172.644 128.014 170.946 128.704 170.043C129.395 169.141 129.927 169.3 129.927 169.3C129.927 169.3 128.226 167.39 129.289 166.01C130.352 164.631 132.952 166.46 132.952 166.46Z" fill="#FEC4AD"/>
<path d="M144.863 180.234C142.79 178.854 141.514 178.057 141.462 176.254C141.408 174.449 142.206 173.176 140.718 171.424C139.23 169.673 140.399 169.142 138.538 168.664C136.679 168.186 133.834 166.968 133.331 167.602C132.828 168.237 131.979 169.234 133.785 170.455C135.592 171.676 135.828 172.06 135.828 172.06C135.828 172.06 135.934 176.677 135.934 177.474C135.934 178.27 139.155 182.356 139.155 182.356L144.863 180.234Z" fill="#FEC4AD"/>
<path d="M170.069 210.044L146.848 179.988L197.214 156.274L222.179 189.293L170.069 210.044Z" fill="white"/>
<path d="M146.848 179.988L112.846 166.552L141.488 200.795L170.069 210.044L146.848 179.988Z" fill="white"/>
<path d="M170.069 210.926L146.848 180.87L197.214 157.155L222.179 190.174L170.069 210.926Z" fill="#E527BB"/>
<path d="M146.848 180.87L112.846 167.433L141.488 201.676L170.069 210.925L146.848 180.87Z" fill="#E527BB"/>
<path d="M176.243 214.227C174.421 213.978 171.748 212.951 168.832 212.676C165.917 212.402 159.478 207.913 157.048 205.972C154.619 204.031 152.431 202.939 149.88 200.27C147.329 197.601 144.777 193.597 142.712 191.171C140.646 188.745 140.282 187.774 141.011 187.047C141.74 186.319 142.955 187.897 142.955 187.897C142.955 187.897 145.263 187.897 146.236 189.11C147.207 190.323 147.936 192.264 149.03 192.992C150.123 193.72 152.796 195.418 154.255 195.783C155.713 196.146 157.777 197.967 159.721 198.452C161.665 198.937 162.88 198.452 161.909 195.783C160.937 193.114 160.33 191.232 160.572 189.624C160.815 188.018 163.245 186.863 163.852 189.624C164.46 192.385 166.282 196.753 167.983 198.209C169.683 199.665 171.263 202.006 171.505 203.747C171.749 205.488 176.851 205.107 176.851 205.107L176.243 214.227Z" fill="#FEC4AD"/>
<path d="M175.368 206.386L174.498 204.139L171.505 203.746C171.505 203.746 169.011 210.846 169.276 213.055C169.541 215.264 174.774 215.264 174.774 215.264L175.368 206.386Z" fill="white"/>
<path d="M219.412 209.581C218.244 211.062 211.078 213.678 196.171 216.279C183.212 218.539 173.964 218.146 173.964 218.146C173.964 218.146 172.59 216.705 172.4 211.656C172.22 206.858 174.498 204.14 174.498 204.14C174.498 204.14 197.803 198.076 206.27 196.746C214.737 195.416 214.779 196.457 214.779 196.457L219.412 209.581Z" fill="#454545"/>
<path d="M173.964 218.145C173.964 218.145 196.01 218.53 216.142 211.411" stroke="#313131" stroke-width="0.7087" stroke-miterlimit="10"/>
<path d="M214.778 196.455C214.778 196.455 214.736 195.415 206.269 196.745C197.802 198.075 174.497 204.139 174.497 204.139" stroke="#313131" stroke-width="0.7087" stroke-miterlimit="10"/>
<path d="M171.65 102.709C171.65 102.709 171.926 98.1393 168.105 98.2018C165.667 98.2416 165.445 100.48 167.302 103.399C168.085 104.628 168.125 107.384 169.105 108.283C170.297 109.377 171.331 107.73 171.709 106.978C172.334 105.735 171.65 102.709 171.65 102.709Z" fill="#FEC4AD"/>
<path d="M169.274 100.274C168.582 99.2526 167.677 99.8943 167.262 100.828C166.846 101.762 167.697 103.01 167.697 103.01C167.697 103.01 167.248 101.273 167.982 100.848C168.714 100.425 170.448 101.742 169.805 102.926C169.162 104.109 168.273 104.194 168.81 104.821C169.347 105.448 168.718 106.098 169.651 106.403C170.585 106.708 170.156 106.195 170.253 104.751C170.35 103.307 170.309 104.752 170.239 103.304C170.171 101.857 169.869 101.152 169.274 100.274Z" fill="#F7A281"/>
<path d="M194.855 118.43C193.759 120.258 189.012 125.162 185.495 126.31C184.802 126.537 183.144 126.544 181.887 126.159C177.605 124.845 174.066 119.481 172.651 116.543C171.584 114.324 170.004 110.06 169.87 106.172C169.727 102.183 169.491 96.7231 169.744 93.4713C170.149 88.2976 172.666 85.5308 176.146 84.4143C185.774 81.3215 201.567 90.7294 201.158 94.3663C200.501 100.191 198.972 113.458 194.855 118.43Z" fill="#FEC4AD"/>
<path d="M176.839 77.0485C174.306 75.9706 168.409 78.65 165.742 86.2963C163.71 92.1208 162.828 97.132 162.526 101.228C163.737 100.773 166.504 98.3609 167.209 98.0758C173.844 95.3896 173.311 91.8652 172.881 84.613C172.718 81.8803 180.486 78.6012 176.839 77.0485Z" fill="#2B1B1C"/>
<path d="M202.406 102.283C204.183 98.0609 203.411 96.6968 203.802 93.2007C204.531 86.705 204.241 81.812 197.511 76.8087C194.418 74.5098 182.655 70.422 176.164 78.4374C174.477 80.5205 168.863 81.871 172.821 86.6085C174.269 88.3497 180.096 88.0237 194.149 91.1472C198.641 92.1467 199.349 100.668 202.406 102.283Z" fill="#2B1B1C"/>
<path d="M171.362 86.5675C174.64 92.6089 180.085 94.1513 191.713 96.649C200.713 98.5821 200.889 110.322 200.904 115.795C200.904 115.795 205.212 102.368 199.698 94.324C194.184 86.2801 191.049 85.1353 191.049 85.1353L171.362 86.5675Z" fill="#2B1B1C"/>
<path d="M198.259 103.963C198.259 103.963 198.247 99.3841 202.058 99.6658C204.491 99.8453 204.582 102.093 202.56 104.901C201.708 106.083 201.509 108.831 200.479 109.672C199.227 110.696 198.289 108.993 197.955 108.221C197.401 106.944 198.259 103.963 198.259 103.963Z" fill="#FEC4AD"/>
<path d="M200.438 101.658C201.12 100.677 201.905 101.366 202.229 102.321C202.553 103.276 201.714 104.476 201.714 104.476C201.714 104.476 202.215 102.767 201.575 102.303C200.935 101.84 199.293 103.061 199.81 104.277C200.326 105.494 201.127 105.628 200.607 106.225C200.087 106.821 200.621 107.505 199.759 107.758C198.896 108.012 199.313 107.523 199.304 106.076C199.294 104.63 199.253 106.075 199.396 104.633C199.538 103.189 199.85 102.502 200.438 101.658Z" fill="#F7A281"/>
<path d="M307.022 120.692C305.364 128.061 303.695 134.883 302.065 141.216H264.385C262.913 134.373 261.256 126.985 259.38 118.988C263.234 117.066 268.365 116.419 270.069 113.015C270.7 111.759 270.869 107.192 270.899 104.816C270.965 100.462 270.601 97.5588 270.601 97.5588H291.356C291.356 97.5588 290.87 103.815 291.147 108.658C291.298 111.273 291.669 113.501 292.467 114.25C294.953 116.595 302.147 118.358 307.022 120.692Z" fill="#FEC4AD"/>
<path d="M315.918 282.731C316.187 261.796 315.839 241.727 315.953 238.822C316.466 225.702 314.964 215.081 314.964 215.081L281.528 204.556L278.22 256.053C278.22 256.053 279.418 268.094 280.84 282.731H315.918Z" fill="#313131"/>
<path d="M243.771 282.731H281.367C282.146 277.85 282.665 274.68 282.665 274.68L278.161 204.556L244.724 215.081C244.724 215.081 243.223 225.703 243.736 238.822C243.849 241.726 243.501 261.796 243.771 282.731Z" fill="#313131"/>
<path d="M245.687 238.994C269.844 238.587 287.879 242.33 311.71 239.286C310.906 217.069 310.914 184.703 312.836 169.977C315.568 149.042 317.227 132.215 317.227 132.215L296.665 121.865L294.695 126.193L280.501 132.215L269.81 126.193L263.637 120.824L247.278 132.215C247.278 132.215 243.537 149.043 246.269 169.977C248.167 184.528 246.736 217.383 245.687 238.994Z" fill="#A78BEF"/>
<path d="M270.069 113.014C269.948 113.255 269.806 113.478 269.654 113.693C276.341 114.206 286.438 112.887 291.197 109.372C291.179 109.136 291.161 108.901 291.147 108.657C290.87 103.814 291.356 97.5576 291.356 97.5576H270.601C270.601 97.5576 270.966 100.461 270.899 104.814C270.869 107.192 270.699 111.758 270.069 113.014Z" fill="#F7A281"/>
<path d="M284.126 136.514L288.71 199.189L280.489 206.824L271.133 199.613L277.282 136.514H284.126Z" fill="#E527BB"/>
<path d="M288.65 131.223L284.127 136.514H277.284L272.207 129.46L280.906 128.505L288.65 131.223Z" fill="#E527BB"/>
<path d="M240.271 147.127C242.348 168.275 245.162 182.228 244.837 201.657C244.621 214.587 242.343 250.672 242.343 250.672C242.343 250.672 254.713 250.775 268.401 244.814C277.617 240.802 276.575 239.415 276.046 208.602C275.651 185.589 263.482 157.064 262.063 141.563C261.471 135.087 263.754 116.75 263.754 116.75L248.515 124.343L240.271 147.127Z" fill="#454545"/>
<path d="M317.915 141.854C317.307 161.282 317.812 170.392 317.422 174.039C316.073 186.642 314.873 193.711 314.937 204.593C315.071 227.575 317.747 249.696 317.747 249.696C317.747 249.696 296.032 250.672 288.648 241.265C282.737 233.735 282.39 210.431 283.254 200.662C283.744 195.119 292.433 168.766 295.4 148.716C298.002 131.123 296.079 115.606 296.079 115.606L314.809 123.706L317.915 141.854Z" fill="#454545"/>
<path d="M263.286 117.138L267.541 115.133C267.541 115.133 269.558 118.57 270.965 120.238C277.367 127.828 280.905 128.506 280.905 128.506C280.905 128.506 274.361 137.209 271.314 136.515C265.71 135.238 263.286 117.138 263.286 117.138Z" fill="white"/>
<path d="M296.079 116.383L293.909 114.245C293.909 114.245 291.165 118.887 289.785 120.525C283.502 127.983 280.028 128.648 280.028 128.648C280.028 128.648 286.45 137.198 289.442 136.516C294.944 135.261 296.079 116.383 296.079 116.383Z" fill="white"/>
<path d="M289.776 208.601C289.776 209.795 288.807 210.763 287.612 210.763C286.416 210.763 285.447 209.795 285.447 208.601C285.447 207.408 286.416 206.44 287.612 206.44C288.807 206.44 289.776 207.408 289.776 208.601Z" fill="#1A1A1A"/>
<path d="M289.62 227.667C290.815 227.667 291.784 226.7 291.784 225.506C291.784 224.312 290.815 223.344 289.62 223.344C288.424 223.344 287.455 224.312 287.455 225.506C287.455 226.7 288.424 227.667 289.62 227.667Z" fill="#1A1A1A"/>
<path d="M295.152 87.9897C295.152 87.9897 294.978 82.029 299.571 82.2527C302.502 82.3958 302.691 85.3194 300.356 89.0517C299.373 90.6225 299.229 94.2094 298.02 95.3441C296.549 96.7241 295.363 94.5411 294.934 93.5484C294.224 91.9049 295.152 87.9897 295.152 87.9897Z" fill="#FEC4AD"/>
<path d="M297.69 84.9058C298.476 83.6018 299.444 84.4707 299.868 85.7031C300.291 86.9343 299.323 88.5279 299.323 88.5279C299.323 88.5279 299.868 86.2824 299.081 85.7031C298.295 85.1238 296.362 86.7753 297.027 88.3393C297.69 89.9045 298.658 90.0487 298.053 90.8461C297.447 91.6423 298.113 92.5123 297.085 92.8746C296.056 93.2369 296.54 92.585 296.479 90.7018C296.419 88.8186 296.419 90.7018 296.54 88.8186C296.661 86.9343 297.014 86.0279 297.69 84.9058Z" fill="#F7A281"/>
<path d="M266.884 87.9897C266.884 87.9897 267.058 82.029 262.465 82.2527C259.534 82.3958 259.345 85.3194 261.68 89.0517C262.663 90.6225 262.808 94.2094 264.017 95.3441C265.487 96.7241 266.674 94.5411 267.103 93.5484C267.812 91.9049 266.884 87.9897 266.884 87.9897Z" fill="#FEC4AD"/>
<path d="M263.943 84.9058C263.076 83.6018 262.009 84.4707 261.543 85.7031C261.076 86.9343 262.143 88.5279 262.143 88.5279C262.143 88.5279 261.543 86.2824 262.41 85.7031C263.276 85.1238 265.406 86.7753 264.674 88.3393C263.943 89.9045 262.876 90.0487 263.542 90.8461C264.209 91.6423 263.475 92.5123 264.609 92.8746C265.743 93.2369 265.21 92.585 265.276 90.7018C265.343 88.8186 265.343 90.7018 265.209 88.8186C265.076 86.9343 264.689 86.0279 263.943 84.9058Z" fill="#F7A281"/>
<path d="M298.674 79.1064C298.531 81.0532 298.143 82.314 297.62 85.2023C297.496 85.8975 298.381 95.3508 293.452 103.584C292.12 105.809 286.484 112.005 280.289 112.163C277.563 112.232 268.688 107.289 266.296 99.7987C265.81 98.2801 264.859 94.8045 264.1 86.6448C264.022 85.7998 263.893 85.0831 263.794 84.4448C263.354 81.5802 263.005 80.4467 262.914 78.5249C262.63 72.4279 269.339 63.6753 280.983 63.8638C294.755 64.0887 299.114 73.0208 298.674 79.1064Z" fill="#FEC4AD"/>
<path d="M299.049 85.5169C297.961 87.1581 296.755 87.2161 296.755 87.2161L296.072 85.4578C297.889 80.4 294.138 78.6725 294.119 75.1038L291.034 71.5021L288.651 68.7239L293.885 63.9648C296.293 64.4158 298.713 65.9718 300.193 68.8999C301.071 70.6514 301.609 72.8878 301.609 75.6592C301.609 75.8818 301.824 81.3405 299.049 85.5169Z" fill="#23191A"/>
<path d="M268.871 68.3355L272.085 68.4536L266.532 75.2969C266.058 78.4863 266.375 81.495 264.917 84.2698L264.834 84.4277L263.742 86.5085C263.742 86.5085 261.049 82.6252 260.904 77.7003C260.721 71.4419 263.645 66.6977 265.568 66.4023L268.871 68.3355Z" fill="#23191A"/>
<path d="M274.608 59.4919C290.313 55.554 293.889 63.9659 293.889 63.9659C293.889 63.9659 291.362 66.8679 289.839 68.4387C287.7 70.6444 285.592 71.7155 278.171 71.4952C270.685 71.2725 265.561 76.3837 265.452 76.5348C265.448 76.5393 268.611 70.0879 268.611 70.0879C268.611 70.0879 267.651 61.2365 274.608 59.4919Z" fill="#23191A"/>
<path d="M268.638 69.5564C265.267 73.4091 265.449 76.5349 265.449 76.5349C265.449 76.5349 267.554 72.6072 271.703 70.6582C275.872 68.6989 277.617 68.6887 281.634 68.4547C286.862 68.1492 289.838 65.5765 289.838 65.5765C289.838 65.5765 276.669 60.3757 268.638 69.5564Z" fill="#23191A"/>
<path d="M299.049 85.5171C297.961 87.1583 296.755 87.2163 296.755 87.2163L296.072 85.458C297.034 80.7331 295.104 78.5364 293.567 75.9626L286.407 69.9213C286.514 69.2148 288.63 68.1948 288.63 68.1948C291.164 69.2932 296.546 72.8323 296.964 79.1554C296.964 79.1554 300.554 71.9385 299.922 68.8797C299.922 68.8797 300.029 68.8536 300.194 68.899C301.072 70.6505 301.61 72.8869 301.61 75.6582C301.609 75.882 301.824 81.3407 299.049 85.5171Z" fill="#23191A"/>
<path d="M288.651 67.7472C288.651 67.7472 288.498 72.7368 281.89 75.2322C275.283 77.7275 265.511 82.7671 264.345 86.9004C264.345 86.9004 262.961 87.1525 262.904 81.1089C262.846 75.0652 266.49 71.074 266.49 71.074C266.49 71.074 282.586 63.8661 288.651 67.7472Z" fill="#23191A"/>
<path d="M276.431 64.1093L274.607 59.4922C274.607 59.4922 268.731 59.8716 262.903 68.7797L263.996 73.541L268.302 76.267L276.431 64.1093Z" fill="#23191A"/>
<path d="M268.581 114.833C268.581 114.833 264.147 124.074 267.122 141.628C268.998 152.699 271.446 162.627 273.342 171.334C278.349 194.336 276.047 208.602 276.047 208.602L258.323 141.83L261.939 136.385L254.714 132.121C254.714 132.121 260.503 119.571 263.287 117.138C266.072 114.704 268.581 114.833 268.581 114.833Z" fill="#313131"/>
<path d="M293.909 114.244C293.909 114.244 296.705 125.224 293.919 143.648C291.135 162.072 286.024 178.646 284.854 185.074C283.258 193.84 282.92 207.741 282.92 207.741C282.92 207.741 300.464 146.852 304.386 138.66L300.408 134.96L304.942 130.704C304.942 130.704 300.632 119.182 297.847 116.749C295.061 114.317 293.909 114.244 293.909 114.244Z" fill="#313131"/>
<path d="M306.891 185.51C307.737 171.614 307.284 157.154 308.134 147.747C310.111 125.87 314.81 123.708 314.81 123.708C314.81 123.708 322.665 127.349 326.456 149.006C327.522 155.093 330.884 168.093 329.313 185.912C328.13 199.33 325.738 201.125 322.034 202.776C316.956 205.04 307.143 207.422 302.382 204.339C304.904 195.622 306.783 197.735 306.891 185.51Z" fill="#454545"/>
<path d="M254.171 185.51C253.324 171.614 253.777 157.154 252.928 147.747C250.951 125.871 248.516 124.344 248.516 124.344C248.516 124.344 239.228 128.507 236.086 143.986C234.857 150.042 231.276 168.513 231.749 185.911C232.116 199.377 235.336 202.714 239.088 204.253C244.545 206.49 260.274 204.279 264.142 203.6C261.619 194.885 254.28 197.736 254.171 185.51Z" fill="#454545"/>
<path d="M255.357 192.13C253.203 177.515 253.203 162.534 252.928 147.746" stroke="#313131" stroke-width="0.7087" stroke-miterlimit="10"/>
<path d="M313.424 184.189C312.615 171.928 312.324 159.633 312.549 147.347" stroke="#313131" stroke-width="0.7087" stroke-miterlimit="10"/>
<path d="M295.125 186.418C296.608 183.457 299.944 179.756 300.561 176.179C301.179 172.601 303.279 170.751 306.491 169.393C309.703 168.036 312.668 167.419 314.397 166.926C316.127 166.433 316.621 168.284 314.15 169.393C311.68 170.503 309.826 171.243 308.839 171.86C307.85 172.477 307.233 174.205 307.233 174.205C307.233 174.205 311.062 172.477 314.768 172.601C318.475 172.723 321.316 172.477 321.439 173.588C321.563 174.699 319.833 175.808 316.374 175.932C312.915 176.056 310.814 176.549 310.074 177.412C309.332 178.275 308.286 178.693 308.286 178.693C308.286 178.693 313.657 178.276 316.375 178.153C319.093 178.03 321.194 180.127 319.587 180.743C317.981 181.36 314.769 181.114 312.299 181.236C309.828 181.36 308.286 184.074 308.286 184.074C308.286 184.074 311.186 184.32 314.274 184.444C317.364 184.568 318.475 185.677 316.498 186.418C314.521 187.159 310.467 186.708 308.286 187.035C306.104 187.361 301.55 188.885 301.55 188.885L295.125 186.418Z" fill="#FEC4AD"/>
<path d="M295.755 199.535C301.524 200.012 301.206 189.109 301.206 189.109C301.206 189.109 291.362 183.944 290.888 188.578C290.412 193.211 295.755 199.535 295.755 199.535Z" fill="#808194"/>
<path d="M290.374 183.182C293.358 183.194 299.111 179.292 303.811 182.191C308.511 185.089 311.486 188.22 311.486 188.22C311.486 188.22 302.054 188.072 296.892 190.511C291.731 192.949 286.648 197.055 286.648 197.055L290.374 183.182Z" fill="#FEC4AD"/>
<path d="M289.271 184.041L291.977 181.95L296.033 181.715C296.033 181.715 298.393 189.886 299.068 191.587L289.072 193.099L289.271 184.041Z" fill="white"/>
<path d="M291.977 181.95C290.593 184.236 297.023 197.746 297.646 199.984C297.646 199.984 283 202.749 268.816 203.358C252.384 204.063 240.418 203.333 236.638 200.758C232.858 198.183 237.459 179.915 247.212 183.633C253.148 185.897 262.322 186.871 270.859 185.067C279.396 183.263 291.977 181.95 291.977 181.95Z" fill="#454545"/>
<path d="M273.025 181.95C270.059 181.619 263.041 177.369 258.038 179.71C253.037 182.051 249.721 184.82 249.721 184.82C249.721 184.82 261.511 186.468 266.359 189.483C271.206 192.497 275.782 197.16 275.782 197.16L273.025 181.95Z" fill="#FEC4AD"/>
<path d="M277.454 185.421L273.025 181.95L270.103 181.12C270.103 181.12 264.352 184.791 263.79 189.279C263.227 193.768 263.79 193.961 263.79 193.961L274.32 195.775L277.454 185.421Z" fill="white"/>
<path d="M273.025 181.95C269.199 183.265 266.484 184.166 266.484 197.056C266.484 197.056 278.784 202.656 292.805 204.888C309.047 207.473 317.983 204.9 322.034 202.776C326.085 200.651 326.987 181.616 318.39 183.918C312.253 185.562 301.152 189.257 292.88 186.484C284.606 183.712 273.025 181.95 273.025 181.95Z" fill="#454545"/>
<path d="M264.019 188.236C256.304 185.562 247.747 184.377 239.543 184.711" stroke="#313131" stroke-width="0.7087" stroke-miterlimit="10"/>
<path d="M242.553 205.011C256.31 205.62 271.132 203.239 283.575 202.305" stroke="#313131" stroke-width="0.7087" stroke-miterlimit="10"/>
<path d="M317.438 205.038C309.306 206.52 300.515 206.479 292.418 204.923C286.893 203.861 281.75 202.125 276.411 200.726C273.059 199.847 270.729 199.298 267.236 198.687C267.236 198.687 265.67 189.087 269.154 184.656" stroke="#313131" stroke-width="0.7087" stroke-miterlimit="10"/>
<path d="M273.025 181.949C278.565 182.808 295.126 189.088 305.244 187.046" stroke="#313131" stroke-width="0.7087" stroke-miterlimit="10"/>
<path d="M406.175 282.731C406.157 273.243 406.042 266.219 406.113 264.29C406.597 250.933 405.178 240.119 405.178 240.119L382.472 239.408L370.45 281.834C370.45 281.834 370.476 282.149 370.524 282.73H406.175V282.731Z" fill="#313131"/>
<path d="M381.246 282.732C386.443 260.589 391.094 240.379 391.094 240.379L337.742 239.942C337.742 239.942 335.751 258.9 334.511 282.732H381.246Z" fill="#313131"/>
<path d="M361.398 93.386C361.398 93.386 358.449 113.486 357.826 114.732C356.445 117.496 347.966 125.915 347.966 125.915C347.966 125.915 373.913 138.086 381.681 138.086C389.45 138.086 386.727 122.524 386.727 122.524C386.727 122.524 381.25 119.456 380.162 117.283C378.547 114.059 376.043 99.424 376.043 99.424L361.398 93.386Z" fill="#FEC4AD"/>
<path d="M379.083 117.353C375.915 116.743 372.785 115.942 369.733 114.895C369.181 114.711 368.636 114.507 368.093 114.302C366.846 113.705 365.617 113.083 364.422 112.388C363.981 112.131 361.679 110.57 361.531 110.566C360.757 109.902 360.008 109.211 359.275 108.506C359.213 108.446 359.144 108.396 359.081 108.337C360.129 102.034 361.399 93.3835 361.399 93.3835L376.044 99.4215C376.044 99.4215 378.548 114.056 380.163 117.281C380.208 117.37 380.27 117.463 380.329 117.555C379.792 117.472 379.285 117.392 379.083 117.353Z" fill="#F7A281"/>
<path d="M426.086 167.342L435.338 158.926L443.442 167.946L435.63 175.393C435.63 175.392 429.692 170.471 426.086 167.342Z" fill="#CFCFCF"/>
<path d="M430.085 159.275C428.703 160.604 425.665 163.872 424.538 164.999L403.379 132.794C403.379 132.794 399.026 130.917 395.112 137.022C390.627 144.018 396.355 166.093 396.355 166.093C396.355 166.093 402.109 173.369 410.652 180.874C411.218 181.372 420.372 189.797 426.235 185.054C429.766 182.198 437.026 176.009 440.171 172.646C436.807 168.441 432.134 164.192 430.085 159.275Z" fill="#454545"/>
<path d="M374.808 243.644C383.851 243.268 394.367 242.736 403.102 240.488C402.96 212.852 401.921 163.426 401.113 157.53C399.857 148.351 398.84 135.812 398.84 135.812L388.018 122.02L377.955 130.624L351.979 119.228L340.662 129.789C349.946 166.529 339.702 203.491 340.662 241.285C346.657 241.923 350.482 244.655 374.808 243.644Z" fill="#A78BEF"/>
<path d="M379.891 138.01C379.891 138.01 386.891 192.794 386.891 199.559C386.891 202.594 379.801 210.546 379.801 210.546C379.801 210.546 372.856 202.302 372.525 199.559C372.194 196.817 375.256 138.315 375.256 138.315L379.891 138.01Z" fill="#E527BB"/>
<path d="M384.065 129.774L379.891 138.01L375.256 138.34L368.304 127.761L378.454 127.348L384.065 129.774Z" fill="#E527BB"/>
<path d="M386.371 122.019C386.371 122.019 392.909 145.087 388.271 169.097C386.948 175.944 387.313 198.903 387.313 198.903C387.313 198.903 386.505 232.954 388.02 237.877C389.535 242.8 388.821 248.165 398.441 248.088C407.567 248.015 409.621 243.147 409.621 243.147C409.621 243.147 406.439 202.645 406.016 189.877C405.593 177.108 406.149 136.942 403.379 132.794C401.207 129.541 386.371 122.019 386.371 122.019Z" fill="#454545"/>
<path d="M384.419 120.861C384.419 120.861 386.974 127.621 386.974 130.953C386.974 134.284 387.868 151.387 387.807 163.528C387.777 169.377 387.322 186.981 387.322 186.981C387.322 186.981 394.476 159.005 395.23 155.13C396.167 150.317 396.098 147.473 395.408 145.547C394.684 143.519 390.915 139.848 390.915 139.848C390.915 139.848 392.735 133.375 393.342 131.558C393.948 129.741 391.786 127.706 390.173 125.345C388.874 123.443 384.419 120.861 384.419 120.861Z" fill="#313131"/>
<path d="M351.981 119.228C351.981 119.228 364.251 142.715 365.71 149.752C369.92 170.074 371.704 186.42 371.704 186.42C371.704 186.42 376.447 231.547 374.209 239.815C371.752 248.892 368.634 250.304 357.203 250.514C345.047 250.738 333.359 245.165 333.359 245.165C333.359 245.165 333.359 214.13 333.359 200.052C333.359 185.975 328.289 134.917 328.289 134.917L351.981 119.228Z" fill="#454545"/>
<path d="M351.851 119.114C351.851 119.114 363.85 134.972 365.939 140.243C368.029 145.512 371.067 159.456 371.705 186.42C371.705 186.42 367.599 171.435 364.71 165.218C360.57 156.309 357.622 151.747 357.906 150.334C358.312 148.306 361.011 146.303 361.707 143.999C361.707 143.999 357.392 143.317 355.083 140.573C352.774 137.829 349.186 127.788 348.828 124.576C348.471 121.364 351.851 119.114 351.851 119.114Z" fill="#313131"/>
<path d="M345.186 216.715H362.67V213.833H345.186V216.715Z" fill="#313131"/>
<path d="M391.924 216.715H405.198V213.833H391.924V216.715Z" fill="#313131"/>
<path d="M356.211 116.536L378.455 127.348L367.64 136.357L351.98 119.228L356.211 116.536Z" fill="white"/>
<path d="M378.455 127.348L385.698 134.373L386.892 121.936L382.374 119.355L378.455 127.348Z" fill="white"/>
<path d="M405.73 182.69L403.972 146.739" stroke="#313131" stroke-width="0.7087" stroke-miterlimit="10"/>
<path d="M410.652 152.767C410.652 152.767 411.007 149.77 413.261 147.836C415.516 145.9 419.027 143.024 421.369 141.225C423.71 139.426 427.891 136.333 429.396 136.358C430.901 136.382 431.737 147.905 431.737 147.905L425.415 153.924C425.415 153.924 416.511 155.362 414.512 156.881C412.514 158.401 411.117 159.278 411.117 159.278L410.652 152.767Z" fill="#FEC4AD"/>
<path d="M430.316 152.432C429.842 152.636 429.293 152.416 429.09 151.943L418.741 127.859C418.537 127.385 418.756 126.838 419.231 126.634C419.705 126.431 420.255 126.65 420.457 127.124L430.807 151.208C431.01 151.681 430.791 152.23 430.316 152.432Z" fill="#E527BB"/>
<path d="M409.788 163.234C413.309 160.407 415.575 158.572 415.575 158.572L413.539 145.738C413.539 145.738 410.467 147.69 405.728 150.589C406.767 154.919 408.1 159.166 409.788 163.234Z" fill="white"/>
<path d="M407.43 148.349C401.509 152.198 394.652 156.356 387.588 159.992C378.359 164.743 371.944 167.638 371.944 167.638C371.944 167.638 345.717 137.494 338.587 134.372C333.143 131.988 330.345 132.942 328.288 134.915C324.013 139.017 325.293 149.341 329.183 155.955C333.557 163.392 344.318 175.18 351.579 181.148C363.012 190.546 368.096 195.088 372.921 192.548C386.876 185.203 402.238 173.597 413.261 164.624C410.993 159.348 409.138 153.868 407.43 148.349Z" fill="#454545"/>
<path d="M405.81 149.154C394.954 156.136 383.916 163.15 371.874 167.158C370.871 167.158 369.868 166.156 369.868 166.156C360.836 153.129 350.801 143.109 338.588 134.373" stroke="#313131" stroke-width="0.7087" stroke-miterlimit="10"/>
<path d="M329.185 155.957C333.558 163.393 344.319 175.181 351.58 181.149C363.013 190.547 368.097 195.089 372.922 192.549C391.187 182.934 411.895 166.003 422.079 157.257" stroke="#313131" stroke-width="0.7087" stroke-miterlimit="10"/>
<path d="M409.952 174.595L424.774 180.493C427.344 181.501 430.544 180.442 431.935 178.135L456.746 135.649C458.124 133.363 457.193 130.691 454.651 129.675L440.066 123.698C435.465 122.79 433.057 123.466 431.637 125.812L406.809 167.887C405.377 170.252 405.659 172.035 409.952 174.595Z" fill="#A7AFCC"/>
<path d="M411.352 175.274L426.294 181.232C428.878 182.246 432.096 181.189 433.492 178.875L458.422 136.161C459.805 133.868 458.863 131.186 456.306 130.165L441.588 124.152C438.908 123.082 435.566 124.126 434.137 126.487L409.049 169.03C407.608 171.413 408.644 174.212 411.352 175.274Z" fill="#E527BB"/>
<path d="M447.642 156.303C446.075 156.084 442.983 155.737 442.203 156.15C440.622 156.986 440.796 158.664 442.488 159.457C444.371 160.339 446.51 160.602 447.869 159.921C449.23 159.239 449.189 156.52 447.642 156.303Z" fill="#FEC4AD"/>
<path d="M446.41 160.086C444.723 159.832 440.523 159.44 439.738 159.982C438.62 160.753 439.112 162.318 440.945 163.152C442.984 164.079 445.285 164.389 446.731 163.731C448.176 163.074 448.076 160.336 446.41 160.086Z" fill="#FEC4AD"/>
<path d="M445.284 163.559C443.936 163.146 440.558 162.308 439.865 162.632C438.879 163.092 439.125 164.376 440.533 165.259C442.1 166.24 443.942 166.774 445.183 166.444C446.424 166.113 446.614 163.965 445.284 163.559Z" fill="#FEC4AD"/>
<path d="M444.018 165.98C442.972 165.699 440.335 165.176 439.756 165.534C438.93 166.045 439.025 167.234 440.083 167.954C441.259 168.755 442.691 169.112 443.711 168.704C444.73 168.295 445.05 166.258 444.018 165.98Z" fill="#FEC4AD"/>
<path d="M384.872 73.6033C388.338 76.5837 389.146 81.4052 388.49 84.6423C387.834 87.8794 385.46 95.0906 385.46 95.0906C385.46 95.0906 382.918 84.0312 381.229 80.1218C379.54 76.2123 376.75 71.0693 376.75 71.0693L384.872 73.6033Z" fill="#313131"/>
<path d="M380.088 73.1616C382.287 74.3917 386.069 77.0075 386.273 78.9986C386.476 80.9885 387.39 86.8084 387.163 90.234C386.935 93.6585 387.593 100.331 387.068 104.334C386.544 108.335 386.292 112.456 380.941 114.877C375.997 117.112 370.408 113.938 366.47 111.273C361.888 108.172 360.189 105.438 360.448 96.8831C360.448 96.8831 357.46 81.1634 358.303 78.7975C360.351 73.0492 372.239 75.4878 375.637 74.9789C379.034 74.4689 380.088 73.1616 380.088 73.1616Z" fill="#FEC4AD"/>
<path d="M359.576 78.4238C358.437 80.2888 362.166 82.5956 362.462 84.3005C363.053 87.7102 362.176 91.6889 362.176 91.6889L360.901 94.9544C360.901 94.9544 361.055 100.857 359.803 104.302C359.121 106.176 347.766 92.8475 351.111 78.5419C352.559 72.3506 358.187 74.1827 358.187 74.1827C359.121 67.8494 361.975 65.2688 374.368 65.5596C386.76 65.8503 388.91 75.8591 388.91 75.8591C386.827 77.2141 388.025 81.1191 381.529 81.5257C369.622 82.2719 367.816 77.213 363.105 76.3964C362.104 76.2237 360.716 76.5588 359.576 78.4238Z" fill="#313131"/>
<path d="M362.092 96.1108C362.092 96.1108 361.105 93.3314 359.31 91.5528C357.795 90.0512 355.518 90.0183 354.934 92.3989C354.224 95.2975 356.82 97.1432 356.967 98.8435C357.131 100.753 359.559 102.822 360.822 102.194L362.092 96.1108Z" fill="#FEC4AD"/>
<path opacity="0.52" d="M357.942 93.1553C356.846 92.4783 356.032 93.3995 355.859 94.4058C355.686 95.4121 355.984 94.817 356.673 94.1582C357.362 93.4994 358.354 94.8624 358.399 95.8131C358.46 97.1249 359.147 98.681 360.29 98.614C361.433 98.547 360.792 98.2369 360.447 96.883C360.102 95.5291 360.51 96.8637 359.977 95.5666C359.446 94.2684 358.885 93.7368 357.942 93.1553Z" fill="#965545"/>
<path d="M387.148 94.2991C387.148 94.2991 387.262 98.6106 386.578 101.61C386.236 103.11 386.065 105.503 385.54 105.999C385.014 106.497 383.138 103.681 381.895 102.434L381.899 102.439C381.706 102.238 381.505 102.058 381.299 101.919C379.996 101.047 376.832 100.338 374.136 101.994C370.926 103.966 369.979 107.393 367.601 106.707C365.525 106.108 364.656 105.212 363.514 101.172C362.588 97.895 362.176 91.689 362.176 91.689L360.815 92.5329C360.815 92.5329 359.965 99.3727 360.522 103.237C360.985 106.447 360.778 110.399 366.412 113.497C371.238 116.149 373.719 117.395 376.795 116.664C376.788 116.668 376.774 116.676 376.774 116.676C385.474 115.892 387.099 110.164 387.278 105.836C387.455 101.507 387.148 94.2991 387.148 94.2991ZM371.772 109.155C371.955 108.343 372.792 105.747 374.934 104.35C376.794 103.137 378.995 103.019 380.813 103.697C382.531 104.336 384.249 108.341 382.624 109.55C380.478 111.147 380.399 109.158 378.267 109.79C373.534 111.193 371.589 109.968 371.772 109.155Z" fill="#313131"/>
<path d="M115.829 265.97L117.061 261.128L103.148 255.151L100.475 259.372L115.829 265.97Z" fill="#AD6454"/>
<path d="M128.388 236.822L125.588 241.338L111.675 235.36L113.034 230.224L128.388 236.822Z" fill="#AD6454"/>
<path d="M178.855 275.416L178.903 275.306C179.846 273.117 178.495 270.601 176.14 270.218C176.095 270.211 176.051 270.205 176.008 270.197C173.184 269.751 170.433 268.921 167.856 267.685C162.737 265.231 157.852 262.791 151.875 260.331C144.977 257.492 122.029 248.252 122.029 248.252L120.077 252.78C120.077 252.78 142.574 263.065 149.381 266.115C155.28 268.758 160.413 270.62 165.717 272.646C168.388 273.664 170.884 275.088 173.148 276.83C173.184 276.857 173.219 276.884 173.255 276.912C175.152 278.355 177.911 277.606 178.855 275.416Z" fill="#AD6454"/>
<path d="M146.374 258.088C145.592 259.956 144.719 261.786 143.837 263.61C144.822 264.056 145.755 264.479 146.593 264.858C147.342 262.932 148.145 261.029 149.024 259.164C148.215 258.836 147.319 258.472 146.374 258.088Z" fill="#FFD17A"/>
<path d="M166.597 267.081C161.969 264.851 157.442 262.631 152.024 260.395C151.125 262.29 150.309 264.228 149.549 266.188C154.841 268.551 159.522 270.294 164.272 272.096C165.025 270.415 165.803 268.745 166.597 267.081Z" fill="#FFD17A"/>
<path d="M129.985 237.508C129.596 238.411 128.548 238.828 127.643 238.439L112.37 231.877C111.466 231.488 111.048 230.441 111.437 229.538C111.826 228.635 112.875 228.218 113.779 228.607L129.053 235.17C129.956 235.558 130.374 236.605 129.985 237.508Z" fill="#C38469"/>
<path d="M127.582 241.521L118.511 262.574C118.456 262.7 118.311 262.758 118.185 262.704L101.23 255.419C101.104 255.364 101.046 255.219 101.1 255.093L110.172 234.039C110.227 233.913 110.373 233.855 110.499 233.91L127.454 241.195C127.578 241.251 127.636 241.396 127.582 241.521Z" fill="#C38469"/>
<path d="M109.179 236.329L107.831 239.458L125.243 246.938L126.591 243.809L109.179 236.329Z" fill="#FFD17A"/>
<path d="M168.026 265.811C168.763 266.128 169.105 266.982 168.787 267.718L166.383 273.299C166.065 274.035 165.21 274.375 164.473 274.058C163.424 273.608 162.94 272.393 163.391 271.346L165.311 266.891C165.762 265.844 166.978 265.362 168.026 265.811Z" fill="#C38469"/>
<path d="M103.637 249.191L102.13 252.689L119.541 260.169L121.049 256.671L103.637 249.191Z" fill="#FFD17A"/>
<path d="M117.255 267.052C117.644 266.149 117.227 265.102 116.322 264.713L101.049 258.15C100.144 257.762 99.0968 258.179 98.7066 259.082C98.3176 259.985 98.735 261.032 99.6393 261.419L114.913 267.982C115.817 268.372 116.866 267.955 117.255 267.052Z" fill="#C38469"/>
<path d="M122.555 268.146H94.7311C94.5662 268.146 94.4331 268.278 94.4331 268.443V272.917H122.853V268.443C122.853 268.278 122.72 268.146 122.555 268.146Z" fill="#C38469"/>
<path d="M125.975 270.531H91.3121C91.055 270.531 90.8457 270.74 90.8457 270.996V277.246H126.442V270.996C126.441 270.74 126.233 270.531 125.975 270.531Z" fill="#AD6454"/>
<path d="M490.909 284.953H70.5205V329H490.909V284.953Z" fill="#8F5345"/>
<path d="M465.437 329H463.082V307.943H98.3478V329H95.9922V306.009H465.437V329Z" fill="#C38469"/>
<path d="M494.845 276.487H66.585V291.713H494.845V276.487Z" fill="#AD6454"/>
<path d="M504.956 276.487H56.4741V286.594H504.956V276.487Z" fill="#C38469"/>
<path d="M480.642 247.193L469.994 214.509L459.984 247.193" stroke="#FDAC00" stroke-width="0.7087" stroke-miterlimit="10"/>
<path d="M469.994 210.769V247.846" stroke="#FDAC00" stroke-width="0.7087" stroke-miterlimit="10"/>
<path d="M477.629 250.619C475.343 250.619 465.285 250.619 462.999 250.619C461.333 250.619 459.984 249.271 459.984 247.607V247.192H480.642C480.642 247.192 480.642 247.353 480.642 247.607C480.643 249.271 479.294 250.619 477.629 250.619Z" fill="#FDAC00"/>
<path d="M440.596 206.95L445.237 205.65C450.436 204.192 455.93 204.146 461.153 205.514L470.615 207.993C470.615 207.993 470.484 206.112 472.065 206.366C473.541 206.604 473.513 209.101 470.724 208.867L461.256 207.201C455.965 206.27 450.523 206.756 445.483 208.61L440.718 210.362L440.596 206.95Z" fill="#C38469"/>
<path d="M469.994 210.769C469.752 210.769 469.555 210.572 469.555 210.33V207.86C469.555 207.618 469.752 207.422 469.994 207.422C470.236 207.422 470.433 207.618 470.433 207.86V210.33C470.433 210.572 470.236 210.769 469.994 210.769Z" fill="#FDAC00"/>
<path d="M481.019 248.5H459.692C459.33 248.5 459.038 248.207 459.038 247.846V247.193H481.673V247.846C481.673 248.208 481.381 248.5 481.019 248.5Z" fill="#FDCB56"/>
<path d="M401.582 247.193L412.23 214.509L422.239 247.193" stroke="#FDAC00" stroke-width="0.7087" stroke-miterlimit="10"/>
<path d="M412.229 210.769V247.846" stroke="#FDAC00" stroke-width="0.7087" stroke-miterlimit="10"/>
<path d="M404.595 250.619C406.88 250.619 416.939 250.619 419.225 250.619C420.89 250.619 422.239 249.27 422.239 247.606V247.192H401.582C401.582 247.192 401.582 247.353 401.582 247.606C401.581 249.27 402.93 250.619 404.595 250.619Z" fill="#FDAC00"/>
<path d="M441.627 206.95L435.304 205.399C430.177 204.141 424.812 204.239 419.734 205.681L411.608 207.992C411.608 207.992 411.739 206.111 410.158 206.365C408.682 206.602 408.71 209.1 411.499 208.866L419.349 207.278C424.502 206.236 429.839 206.547 434.837 208.18L441.505 210.361L441.627 206.95Z" fill="#C38469"/>
<path d="M412.23 210.769C412.472 210.769 412.669 210.572 412.669 210.33V207.86C412.669 207.618 412.472 207.421 412.23 207.421C411.987 207.421 411.791 207.618 411.791 207.86V210.33C411.791 210.572 411.987 210.769 412.23 210.769Z" fill="#FDAC00"/>
<path d="M401.204 248.499H422.532C422.893 248.499 423.186 248.206 423.186 247.846V247.193H400.55V247.846C400.55 248.207 400.843 248.499 401.204 248.499Z" fill="#FDCB56"/>
<path d="M442.362 196.356H439.632L439.651 206.172L438.911 253.471H443.083L442.342 206.172L442.362 196.356Z" fill="#C38469"/>
<path d="M438.026 208.263C438.026 210.115 439.357 211.615 440.997 211.615C442.638 211.615 443.968 210.115 443.968 208.263C443.968 206.412 442.637 204.912 440.997 204.912C439.356 204.912 438.026 206.412 438.026 208.263Z" fill="#AD6454"/>
<path d="M437.136 272.748H444.856V252.198C444.856 252.046 444.733 251.924 444.581 251.924H437.41C437.258 251.924 437.135 252.046 437.135 252.198V272.748H437.136Z" fill="#AD6454"/>
<path d="M433.872 273.528H448.123V272.105C448.123 272.029 448.061 271.967 447.985 271.967H434.009C433.933 271.967 433.872 272.029 433.872 272.105V273.528Z" fill="#C38469"/>
<path d="M427.863 276.627H454.128V273.796C454.128 273.648 454.008 273.528 453.86 273.528H428.132C427.984 273.528 427.863 273.648 427.863 273.796V276.627Z" fill="#AD6454"/>
<path d="M440.997 198.752C441.903 198.752 442.677 198.108 442.852 197.221C442.96 196.669 443.023 196.075 442.949 195.578C442.934 195.477 442.909 195.372 442.878 195.261C442.654 194.478 441.9 193.961 441.083 193.961H440.91C440.094 193.961 439.341 194.478 439.115 195.26C439.084 195.37 439.06 195.477 439.045 195.577C438.971 196.074 439.033 196.666 439.142 197.218C439.317 198.108 440.09 198.752 440.997 198.752Z" fill="#AD6454"/>
<path d="M340.635 284.256L301.255 275.894C298.442 275.29 296.652 272.523 297.257 269.714C297.862 266.905 300.633 265.117 303.446 265.722L342.826 274.083C345.639 274.688 347.429 277.455 346.824 280.263C346.219 283.072 343.448 284.86 340.635 284.256Z" fill="white"/>
<path opacity="0.43" d="M345.125 283.117C343.931 284.139 342.29 284.612 340.635 284.257L301.256 275.893C298.443 275.291 296.655 272.522 297.258 269.713C297.507 268.555 298.123 267.573 298.958 266.859C299.066 266.765 299.179 266.677 299.295 266.596C298.892 269.288 300.651 271.862 303.352 272.44L342.732 280.804C344.238 281.129 345.732 280.764 346.886 279.926C346.87 280.037 346.849 280.149 346.824 280.265C346.576 281.42 345.96 282.402 345.125 283.117Z" fill="#E3CDBB"/>
<path d="M330.911 282.261L325.338 281.064C322.526 280.46 320.737 277.694 321.341 274.886C321.643 273.483 322.487 272.332 323.608 271.61C324.728 270.887 326.123 270.591 327.529 270.893L333.102 272.09C331.696 271.788 330.299 272.083 329.181 272.807C328.061 273.529 327.217 274.68 326.914 276.084C326.309 278.891 328.098 281.657 330.911 282.261Z" fill="#E527BB"/>
<path d="M326.924 279.024C328.879 277.516 329.239 274.711 327.729 272.759C326.219 270.807 323.41 270.447 321.455 271.955C319.5 273.463 319.14 276.268 320.65 278.22C322.16 280.172 324.969 280.532 326.924 279.024Z" fill="#E527BB"/>
<path opacity="0.57" d="M324.515 278.959C326.43 278.75 327.813 277.029 327.603 275.117C327.393 273.205 325.67 271.824 323.755 272.034C321.84 272.244 320.457 273.964 320.667 275.876C320.877 277.789 322.6 279.169 324.515 278.959Z" fill="#D3492A"/>
<path d="M326.553 276.004C326.268 277.323 324.968 278.161 323.648 277.878C322.327 277.594 321.488 276.296 321.771 274.977C322.055 273.658 323.355 272.82 324.676 273.103C325.996 273.387 326.837 274.685 326.553 276.004Z" fill="#A78BEF"/>
<path d="M343.387 284.001C346.036 283.213 347.543 280.429 346.754 277.784C345.965 275.139 343.177 273.633 340.528 274.422C337.879 275.21 336.371 277.993 337.161 280.639C337.95 283.284 340.738 284.789 343.387 284.001Z" fill="#E3CDBB"/>
<path opacity="0.57" d="M344.73 279.813C344.398 281.357 342.875 282.338 341.33 282.007C339.786 281.675 338.802 280.154 339.134 278.612C339.466 277.068 340.989 276.087 342.534 276.418C344.079 276.75 345.062 278.27 344.73 279.813Z" fill="#E3CDBB"/>
<path d="M223.094 284.912L263.009 279.648C265.86 279.265 267.861 276.646 267.478 273.798C267.094 270.951 264.471 268.953 261.62 269.336L221.706 274.6C218.854 274.983 216.853 277.602 217.237 280.45C217.62 283.297 220.243 285.295 223.094 284.912Z" fill="white"/>
<path opacity="0.43" d="M218.707 283.426C219.818 284.538 221.415 285.138 223.094 284.913L263.008 279.646C265.859 279.266 267.86 276.645 267.477 273.798C267.319 272.625 266.782 271.597 266.006 270.82C265.904 270.719 265.8 270.621 265.691 270.533C265.882 273.247 263.926 275.676 261.188 276.041L221.274 281.308C219.748 281.514 218.286 281.034 217.202 280.109C217.21 280.221 217.221 280.334 217.236 280.451C217.393 281.622 217.931 282.648 218.707 283.426Z" fill="#E3CDBB"/>
<path d="M232.946 283.682L238.596 282.924C241.446 282.541 243.447 279.923 243.063 277.076C242.872 275.653 242.12 274.44 241.06 273.633C240 272.825 238.633 272.421 237.208 272.613L231.558 273.371C232.983 273.181 234.353 273.584 235.411 274.391C236.471 275.199 237.223 276.412 237.414 277.835C237.797 280.683 235.796 283.299 232.946 283.682Z" fill="#E527BB"/>
<path d="M244.563 278.437C245.097 276.029 243.576 273.644 241.164 273.111C238.752 272.577 236.364 274.097 235.83 276.505C235.296 278.913 236.818 281.297 239.229 281.831C241.641 282.364 244.029 280.845 244.563 278.437Z" fill="#E527BB"/>
<path opacity="0.57" d="M242.519 280.082C243.957 278.802 244.083 276.6 242.8 275.164C241.518 273.728 239.313 273.602 237.875 274.883C236.437 276.163 236.311 278.365 237.593 279.801C238.876 281.237 241.081 281.363 242.519 280.082Z" fill="#D3492A"/>
<path d="M237.78 277.785C237.96 279.122 239.19 280.059 240.529 279.88C241.868 279.7 242.806 278.471 242.627 277.134C242.447 275.797 241.216 274.86 239.877 275.04C238.539 275.219 237.6 276.448 237.78 277.785Z" fill="#A78BEF"/>
<path d="M217.236 280.45C217.605 283.185 220.124 285.104 222.863 284.736C225.602 284.368 227.524 281.852 227.156 279.117C226.787 276.382 224.268 274.463 221.529 274.831C218.79 275.199 216.868 277.715 217.236 280.45Z" fill="#E3CDBB"/>
<path opacity="0.57" d="M219.36 280.165C219.57 281.729 221.011 282.827 222.578 282.617C224.144 282.407 225.244 280.968 225.033 279.404C224.823 277.84 223.382 276.741 221.816 276.952C220.248 277.162 219.149 278.601 219.36 280.165Z" fill="#E3CDBB"/>
<path d="M310.348 284.368H251.004V269.98H310.349C311.663 269.98 312.728 271.043 312.728 272.355V281.993C312.726 283.305 311.662 284.368 310.348 284.368Z" fill="#A78BEF"/>
<path opacity="0.5" d="M307.698 277.173C307.698 279.162 306.891 280.958 305.589 282.261C304.283 283.562 302.485 284.367 300.493 284.367H294.642C296.63 284.367 298.432 283.562 299.734 282.261C301.037 280.958 301.843 279.162 301.843 277.173C301.843 273.199 298.619 269.979 294.642 269.979H300.493C304.472 269.979 307.698 273.199 307.698 277.173Z" fill="white"/>
<path opacity="0.3" d="M312.727 277.173C312.727 279.162 311.921 280.957 310.619 282.261C309.313 283.562 307.515 284.367 305.523 284.367H251.005V277.627H305.523C307.515 277.627 309.313 276.822 310.619 275.521C311.121 275.016 311.552 274.438 311.89 273.801C312.425 274.806 312.727 275.955 312.727 277.173Z" fill="#CC6017"/>
<path d="M294.552 277.173C294.552 279.161 293.746 280.957 292.444 282.261C291.138 283.562 289.336 284.367 287.348 284.367H251.006V269.977H287.348C291.327 269.978 294.552 273.198 294.552 277.173Z" fill="#A78BEF"/>
<path d="M290.513 282.389H251.004V271.959H290.513C291.465 271.959 292.238 272.731 292.238 273.681V280.668C292.238 281.617 291.465 282.389 290.513 282.389Z" fill="#F8EFE0"/>
<path d="M285.573 274.955H252.777C252.671 274.955 252.586 274.869 252.586 274.764V273.991C252.586 273.886 252.671 273.801 252.777 273.801H285.573C285.679 273.801 285.764 273.886 285.764 273.991V274.764C285.764 274.869 285.679 274.955 285.573 274.955Z" fill="#E3CDBB"/>
<path d="M285.573 277.751H252.777C252.671 277.751 252.586 277.666 252.586 277.56V276.788C252.586 276.682 252.671 276.597 252.777 276.597H285.573C285.679 276.597 285.764 276.682 285.764 276.788V277.56C285.764 277.666 285.679 277.751 285.573 277.751Z" fill="#E3CDBB"/>
<path d="M285.573 280.546H252.777C252.671 280.546 252.586 280.461 252.586 280.356V279.583C252.586 279.478 252.671 279.392 252.777 279.392H285.573C285.679 279.392 285.764 279.478 285.764 279.583V280.356C285.764 280.461 285.679 280.546 285.573 280.546Z" fill="#E3CDBB"/>
<path d="M258.56 270.148H317.905V255.76H258.56C257.246 255.76 256.182 256.823 256.182 258.134V267.773C256.182 269.084 257.246 270.148 258.56 270.148Z" fill="#E527BB"/>
<path opacity="0.5" d="M261.211 262.952C261.211 264.941 262.018 266.737 263.32 268.041C264.626 269.341 266.424 270.147 268.416 270.147H274.267C272.279 270.147 270.477 269.341 269.175 268.041C267.872 266.737 267.066 264.941 267.066 262.952C267.066 258.978 270.291 255.758 274.267 255.758H268.416C264.437 255.758 261.211 258.978 261.211 262.952Z" fill="white"/>
<path opacity="0.3" d="M256.181 262.953C256.181 264.941 256.987 266.737 258.289 268.041C259.595 269.341 261.395 270.147 263.385 270.147H317.903V263.407H263.385C261.394 263.407 259.595 262.602 258.289 261.301C257.787 260.796 257.356 260.218 257.018 259.58C256.484 260.586 256.181 261.735 256.181 262.953Z" fill="#215681"/>
<path d="M274.357 262.952C274.357 264.941 275.163 266.737 276.466 268.041C277.772 269.341 279.573 270.147 281.562 270.147H317.903V255.757H281.562C277.582 255.758 274.357 258.978 274.357 262.952Z" fill="#E527BB"/>
<path d="M278.395 268.167H317.904V257.738H278.395C277.443 257.738 276.67 258.509 276.67 259.46V266.446C276.672 267.397 277.443 268.167 278.395 268.167Z" fill="#F8EFE0"/>
<path d="M283.335 260.734H316.131C316.237 260.734 316.322 260.649 316.322 260.543V259.771C316.322 259.666 316.237 259.58 316.131 259.58H283.335C283.229 259.58 283.144 259.666 283.144 259.771V260.543C283.145 260.649 283.231 260.734 283.335 260.734Z" fill="#E3CDBB"/>
<path d="M283.335 263.529H316.131C316.237 263.529 316.322 263.444 316.322 263.339V262.566C316.322 262.461 316.237 262.375 316.131 262.375H283.335C283.229 262.375 283.144 262.461 283.144 262.566V263.339C283.145 263.444 283.231 263.529 283.335 263.529Z" fill="#E3CDBB"/>
<path d="M283.335 266.326H316.131C316.237 266.326 316.322 266.241 316.322 266.135V265.363C316.322 265.257 316.237 265.172 316.131 265.172H283.335C283.229 265.172 283.144 265.257 283.144 265.363V266.135C283.145 266.241 283.231 266.326 283.335 266.326Z" fill="#E3CDBB"/>
<path d="M321.525 255.926H262.18V241.538H321.525C322.839 241.538 323.903 242.601 323.903 243.913V253.551C323.903 254.863 322.839 255.926 321.525 255.926Z" fill="#A78BEF"/>
<path opacity="0.5" d="M318.875 248.732C318.875 250.721 318.068 252.516 316.766 253.82C315.46 255.121 313.662 255.926 311.67 255.926H305.819C307.807 255.926 309.609 255.121 310.911 253.82C312.214 252.516 313.02 250.721 313.02 248.732C313.02 244.758 309.795 241.538 305.819 241.538H311.67C315.649 241.536 318.875 244.758 318.875 248.732Z" fill="white"/>
<path opacity="0.3" d="M323.904 248.732C323.904 250.721 323.098 252.517 321.795 253.821C320.49 255.121 318.691 255.926 316.7 255.926H262.182V249.186H316.7C318.691 249.186 320.49 248.381 321.795 247.081C322.298 246.575 322.729 245.997 323.067 245.36C323.602 246.364 323.904 247.513 323.904 248.732Z" fill="#215681"/>
<path d="M305.729 248.732C305.729 250.721 304.923 252.517 303.62 253.82C302.315 255.121 300.513 255.926 298.525 255.926H262.183V241.537H298.525C302.503 241.537 305.729 244.758 305.729 248.732Z" fill="#A78BEF"/>
<path d="M301.69 253.947H262.181V243.518H301.69C302.642 243.518 303.414 244.289 303.414 245.239V252.226C303.414 253.177 302.642 253.947 301.69 253.947Z" fill="#F8EFE0"/>
<path d="M296.75 246.514H263.954C263.848 246.514 263.763 246.429 263.763 246.323V245.551C263.763 245.445 263.848 245.36 263.954 245.36H296.75C296.856 245.36 296.941 245.445 296.941 245.551V246.323C296.941 246.429 296.856 246.514 296.75 246.514Z" fill="#E3CDBB"/>
<path d="M296.75 249.309H263.954C263.848 249.309 263.763 249.224 263.763 249.118V248.346C263.763 248.24 263.848 248.155 263.954 248.155H296.75C296.856 248.155 296.941 248.24 296.941 248.346V249.118C296.941 249.224 296.856 249.309 296.75 249.309Z" fill="#E3CDBB"/>
<path d="M296.75 252.104H263.954C263.848 252.104 263.763 252.019 263.763 251.913V251.141C263.763 251.035 263.848 250.95 263.954 250.95H296.75C296.856 250.95 296.941 251.035 296.941 251.141V251.913C296.941 252.019 296.856 252.104 296.75 252.104Z" fill="#E3CDBB"/>
<path d="M215.106 283.752H155.761V269.363H215.106C216.42 269.363 217.484 270.426 217.484 271.738V281.377C217.484 282.689 216.42 283.752 215.106 283.752Z" fill="#A78BEF"/>
<path opacity="0.5" d="M212.455 276.558C212.455 278.546 211.648 280.342 210.346 281.646C209.04 282.946 207.242 283.752 205.25 283.752H199.399C201.387 283.752 203.189 282.946 204.491 281.646C205.794 280.342 206.6 278.546 206.6 276.558C206.6 272.583 203.375 269.363 199.399 269.363H205.25C209.23 269.362 212.455 272.583 212.455 276.558Z" fill="white"/>
<path opacity="0.3" d="M217.486 276.557C217.486 278.546 216.679 280.342 215.377 281.646C214.071 282.946 212.272 283.752 210.281 283.752H155.763V277.012H210.281C212.273 277.012 214.071 276.206 215.377 274.906C215.88 274.4 216.311 273.822 216.649 273.185C217.182 274.189 217.486 275.339 217.486 276.557Z" fill="#CC6017"/>
<path d="M199.309 276.557C199.309 278.546 198.503 280.342 197.2 281.646C195.895 282.946 194.093 283.751 192.105 283.751H155.763V269.362H192.105C196.085 269.362 199.309 272.583 199.309 276.557Z" fill="#A78BEF"/>
<path d="M195.271 281.772H155.762V271.343H195.271C196.223 271.343 196.995 272.114 196.995 273.064V280.051C196.994 281.001 196.223 281.772 195.271 281.772Z" fill="#F8EFE0"/>
<path d="M190.331 274.339H157.535C157.43 274.339 157.344 274.254 157.344 274.148V273.376C157.344 273.27 157.43 273.185 157.535 273.185H190.331C190.437 273.185 190.523 273.27 190.523 273.376V274.148C190.521 274.254 190.436 274.339 190.331 274.339Z" fill="#E3CDBB"/>
<path d="M190.331 277.134H157.535C157.43 277.134 157.344 277.049 157.344 276.944V276.171C157.344 276.066 157.43 275.98 157.535 275.98H190.331C190.437 275.98 190.523 276.066 190.523 276.171V276.944C190.521 277.049 190.436 277.134 190.331 277.134Z" fill="#E3CDBB"/>
<path d="M190.331 279.93H157.535C157.43 279.93 157.344 279.844 157.344 279.739V278.966C157.344 278.861 157.43 278.776 157.535 278.776H190.331C190.437 278.776 190.523 278.861 190.523 278.966V279.739C190.521 279.844 190.436 279.93 190.331 279.93Z" fill="#E3CDBB"/>
<path d="M163.318 269.531H222.663V255.143H163.318C162.004 255.143 160.939 256.206 160.939 257.518V267.156C160.939 268.468 162.004 269.531 163.318 269.531Z" fill="#E527BB"/>
<path opacity="0.5" d="M165.97 262.336C165.97 264.324 166.776 266.12 168.079 267.424C169.384 268.725 171.183 269.53 173.174 269.53H179.025C177.037 269.53 175.235 268.725 173.933 267.424C172.631 266.12 171.824 264.324 171.824 262.336C171.824 258.361 175.049 255.141 179.025 255.141H173.174C169.194 255.141 165.97 258.361 165.97 262.336Z" fill="white"/>
<path opacity="0.3" d="M160.938 262.336C160.938 264.324 161.745 266.12 163.047 267.424C164.353 268.725 166.153 269.53 168.143 269.53H222.661V262.79H168.143C166.151 262.79 164.353 261.985 163.047 260.684C162.545 260.179 162.113 259.601 161.776 258.963C161.241 259.969 160.938 261.118 160.938 262.336Z" fill="#215681"/>
<path d="M179.115 262.336C179.115 264.325 179.922 266.12 181.224 267.424C182.53 268.725 184.332 269.53 186.32 269.53H222.661V255.14H186.32C182.34 255.142 179.115 258.362 179.115 262.336Z" fill="#E527BB"/>
<path d="M183.153 267.551H222.662V257.122H183.153C182.201 257.122 181.428 257.894 181.428 258.844V265.831C181.428 266.78 182.201 267.551 183.153 267.551Z" fill="#F8EFE0"/>
<path d="M188.093 260.117H220.889C220.995 260.117 221.08 260.032 221.08 259.927V259.154C221.08 259.049 220.995 258.963 220.889 258.963H188.093C187.987 258.963 187.902 259.049 187.902 259.154V259.927C187.902 260.032 187.987 260.117 188.093 260.117Z" fill="#E3CDBB"/>
<path d="M188.093 262.914H220.889C220.995 262.914 221.08 262.829 221.08 262.723V261.951C221.08 261.845 220.995 261.76 220.889 261.76H188.093C187.987 261.76 187.902 261.845 187.902 261.951V262.723C187.902 262.829 187.987 262.914 188.093 262.914Z" fill="#E3CDBB"/>
<path d="M188.093 265.709H220.889C220.995 265.709 221.08 265.624 221.08 265.518V264.746C221.08 264.64 220.995 264.555 220.889 264.555H188.093C187.987 264.555 187.902 264.64 187.902 264.746V265.518C187.902 265.624 187.987 265.709 188.093 265.709Z" fill="#E3CDBB"/>
<path d="M226.283 255.311H166.938V240.922H226.283C227.597 240.922 228.661 241.985 228.661 243.297V252.936C228.661 254.247 227.597 255.311 226.283 255.311Z" fill="#A78BEF"/>
<path opacity="0.5" d="M223.631 248.115C223.631 250.104 222.825 251.9 221.522 253.204C220.217 254.504 218.418 255.31 216.427 255.31H210.576C212.564 255.31 214.366 254.504 215.668 253.204C216.97 251.9 217.777 250.104 217.777 248.115C217.777 244.141 214.552 240.921 210.576 240.921H216.427C220.407 240.921 223.631 244.141 223.631 248.115Z" fill="white"/>
<path opacity="0.3" d="M228.663 248.115C228.663 250.104 227.856 251.9 226.554 253.204C225.248 254.504 223.45 255.31 221.458 255.31H166.94V248.57H221.458C223.45 248.57 225.248 247.764 226.554 246.464C227.056 245.958 227.488 245.38 227.825 244.743C228.359 245.748 228.663 246.897 228.663 248.115Z" fill="#215681"/>
<path d="M210.486 248.115C210.486 250.104 209.68 251.9 208.377 253.204C207.071 254.504 205.27 255.31 203.281 255.31H166.94V240.92H203.281C207.261 240.921 210.486 244.141 210.486 248.115Z" fill="#A78BEF"/>
<path d="M206.448 253.33H166.939V242.901H206.448C207.4 242.901 208.173 243.672 208.173 244.623V251.609C208.172 252.56 207.4 253.33 206.448 253.33Z" fill="#F8EFE0"/>
<path d="M201.508 245.897H168.712C168.606 245.897 168.521 245.812 168.521 245.706V244.934C168.521 244.828 168.606 244.743 168.712 244.743H201.508C201.614 244.743 201.699 244.828 201.699 244.934V245.706C201.699 245.812 201.613 245.897 201.508 245.897Z" fill="#E3CDBB"/>
<path d="M201.508 248.693H168.712C168.606 248.693 168.521 248.607 168.521 248.502V247.729C168.521 247.624 168.606 247.539 168.712 247.539H201.508C201.614 247.539 201.699 247.624 201.699 247.729V248.502C201.699 248.607 201.613 248.693 201.508 248.693Z" fill="#E3CDBB"/>
<path d="M201.508 251.488H168.712C168.606 251.488 168.521 251.403 168.521 251.298V250.525C168.521 250.42 168.606 250.334 168.712 250.334H201.508C201.614 250.334 201.699 250.42 201.699 250.525V251.298C201.699 251.403 201.613 251.488 201.508 251.488Z" fill="#E3CDBB"/>
</g>
<defs>
<clipPath id="clip0_587_8566">
<rect width="542.64" height="328.79" fill="white"/>
</clipPath>
</defs>
</svg>
