<svg width="533" height="331" viewBox="0 0 533 331" fill="none" xmlns="http://www.w3.org/2000/svg">
<path opacity="0.2" fill-rule="evenodd" clip-rule="evenodd" d="M0 7.5756C0 7.5756 496.166 -10.2363 522.25 8.76437C545.499 25.7019 520.61 239.759 514.929 286.131C514.801 287.134 513.992 287.91 512.938 288.028C382.355 302.136 78.1811 295.779 13.6451 294.227C12.5792 294.197 11.7008 293.49 11.49 292.498C2.02627 247.216 0 7.5756 0 7.5756Z" fill="#999999"/>
<path d="M438.047 88.0938C454.089 88.0938 467.094 75.0891 467.094 59.0469C467.094 43.0047 454.089 30 438.047 30C422.005 30 409 43.0047 409 59.0469C409 75.0891 422.005 88.0938 438.047 88.0938Z" fill="#A78BEF"/>
<path d="M438.048 35.3452C451.138 35.3455 461.749 45.9575 461.749 59.0474C461.749 72.1371 451.138 82.7483 438.048 82.7485C424.958 82.7485 414.346 72.1372 414.346 59.0474C414.346 45.9573 424.958 35.3452 438.048 35.3452Z" fill="white" stroke="#E527BB"/>
<path d="M438.047 36.9392V43.903" stroke="#E527BB" stroke-width="1.0153" stroke-miterlimit="10" stroke-linecap="round"/>
<path d="M460.158 59.0469H453.189" stroke="#E527BB" stroke-width="1.0153" stroke-miterlimit="10" stroke-linecap="round"/>
<path d="M438.047 81.1596V74.1909" stroke="#E527BB" stroke-width="1.0153" stroke-miterlimit="10" stroke-linecap="round"/>
<path d="M415.939 59.0469H422.903" stroke="#E527BB" stroke-width="1.0153" stroke-miterlimit="10" stroke-linecap="round"/>
<path d="M453.682 43.4126L448.758 48.3412" stroke="#E527BB" stroke-width="1.0153" stroke-miterlimit="10" stroke-linecap="round"/>
<path d="M453.682 74.6813L448.758 69.7576" stroke="#E527BB" stroke-width="1.0153" stroke-miterlimit="10" stroke-linecap="round"/>
<path d="M422.414 74.6813L427.343 69.7527" stroke="#E527BB" stroke-width="1.0153" stroke-miterlimit="10" stroke-linecap="round"/>
<path d="M422.414 43.4126L427.343 48.3412" stroke="#E527BB" stroke-width="1.0153" stroke-miterlimit="10" stroke-linecap="round"/>
<path d="M438.047 47.2429V59.0471H446.497" stroke="#E527BB" stroke-width="1.0153" stroke-miterlimit="10" stroke-linecap="round"/>
<g clip-path="url(#clip0_1689_6291)">
<path d="M367.12 62.0202C367.689 60.7824 366.317 59.5509 365.134 60.233C353.16 67.1294 323.11 89.1385 317.658 138.651C310.814 200.769 293.028 219.848 274.186 229.605C274.186 229.605 297.209 228.336 316.02 209.156C362.205 162.068 357.006 83.9725 367.12 62.0202Z" fill="#39B039"/>
<path d="M355.216 79.1286C352.408 85.5639 349.726 92.0498 347.285 98.6241C344.811 105.186 342.541 111.817 340.472 118.511C338.436 125.212 336.526 131.95 334.906 138.758C333.256 145.56 331.896 152.425 330.561 159.321C329.182 166.205 327.835 173.152 325.773 179.979C323.717 186.793 320.82 193.475 316.779 199.43C315.773 200.914 314.729 202.386 313.616 203.782C312.528 205.196 311.371 206.567 310.194 207.912C307.829 210.596 305.273 213.128 302.547 215.459C297.082 220.107 290.909 223.921 284.407 226.845C283.724 227.155 282.921 226.852 282.611 226.163C282.307 225.494 282.598 224.704 283.256 224.389H283.262C284.824 223.631 286.374 222.86 287.886 222.02C288.645 221.61 289.391 221.174 290.137 220.745C290.871 220.29 291.624 219.867 292.339 219.387C295.242 217.53 298.012 215.471 300.618 213.217C305.843 208.739 310.428 203.459 314.293 197.782C316.197 194.921 317.879 191.921 319.334 188.801C320.782 185.682 321.991 182.448 323.022 179.145C325.077 172.527 326.469 165.668 327.892 158.791C329.328 151.913 330.814 145.017 332.585 138.19C333.464 134.773 334.4 131.376 335.4 127.991C335.887 126.298 336.412 124.612 336.93 122.932C337.468 121.252 338.012 119.579 338.569 117.905C340.814 111.223 343.262 104.611 345.912 98.0873C348.594 91.5762 351.453 85.1408 354.552 78.8254C354.641 78.6423 354.862 78.5728 355.039 78.6612C355.216 78.7433 355.292 78.9517 355.216 79.1286Z" fill="white"/>
<path d="M326.234 250.711C326.671 253.181 329.485 254.399 331.604 253.061C343.299 245.672 374.476 221.806 380.118 174.434C384.887 134.432 391.275 113.2 394.849 103.759C395.602 101.763 393.369 99.9631 391.572 101.125C371.769 113.901 310.466 161.342 326.234 250.711Z" fill="#39B039"/>
<path d="M329.574 251.317C329.618 251.362 329.669 251.4 329.726 251.431C330.181 251.722 330.788 251.589 331.079 251.128C331.408 250.61 364.064 198.83 373.211 143.514C373.299 142.983 372.939 142.478 372.401 142.39C371.87 142.301 371.364 142.661 371.275 143.198C362.199 198.11 329.751 249.568 329.422 250.08C329.169 250.484 329.239 251.002 329.574 251.317Z" fill="#BDD0FB"/>
<path d="M180.89 75.8509L316.038 79.4254C323.496 79.6212 329.486 85.6208 329.669 93.0666L334.451 288.976C334.59 294.805 329.878 299.586 324.04 299.542L169.069 298.253C163.585 298.209 159.202 293.681 159.347 288.206L164.572 91.3046C164.806 82.5389 172.111 75.6236 180.89 75.8509Z" fill="#E527BB"/>
<path d="M191.807 295.468C191.801 295.468 191.801 295.468 191.794 295.468L174.47 294.786C168.708 294.559 164.141 289.69 164.293 283.936L164.988 257.81C164.995 257.639 165.147 257.494 165.311 257.506C165.482 257.513 165.621 257.658 165.615 257.828L164.919 283.955C164.773 289.374 169.068 293.952 174.489 294.161L191.813 294.843C191.984 294.849 192.123 294.994 192.117 295.171C192.11 295.336 191.971 295.468 191.807 295.468Z" fill="white"/>
<path d="M181.346 74.2784C199.733 77.2656 262.996 86.6755 315.576 84.042C317.974 83.922 320.004 85.7851 320.067 88.1849L325.311 284.978C325.38 287.675 323.261 289.923 320.561 290.012C298.454 290.732 207.437 293.372 175.109 289.121C173.142 288.862 171.687 287.164 171.731 285.181L175.995 78.7371C176.045 75.9331 178.575 73.83 181.346 74.2784Z" fill="#A78BEF"/>
<path d="M186.462 84.5599C203.609 87.3449 262.603 96.117 311.629 93.6603C313.868 93.5466 315.759 95.2897 315.816 97.519L320.712 281.038C320.781 283.551 318.802 285.654 316.278 285.736C295.664 286.406 210.788 288.869 180.643 284.903C178.809 284.663 177.455 283.077 177.493 281.233L181.465 88.7217C181.516 86.1071 183.875 84.143 186.462 84.5599Z" fill="#91B3FA"/>
<path d="M257.556 51.1893C252.761 47.6716 248.517 47.6211 245.507 48.4232C242.762 49.1558 240.921 51.7324 241.104 54.568L242.022 68.645L257.322 70.407C257.316 70.4133 266.949 58.092 257.556 51.1893ZM250.51 62.336C248.397 62.2791 246.734 60.5234 246.784 58.4141C246.841 56.3048 248.6 54.6438 250.712 54.6943C252.825 54.7512 254.488 56.5069 254.438 58.6162C254.381 60.7318 252.622 62.3928 250.51 62.336Z" fill="#E527BB"/>
<path d="M243.439 63.1127C243.174 63.0053 242.977 62.759 242.958 62.4559L242.813 60.2139C242.788 59.7971 243.104 59.4371 243.521 59.4056C243.939 59.3803 244.299 59.6961 244.331 60.1129L244.477 62.3548C244.502 62.7717 244.186 63.1316 243.768 63.1632C243.654 63.1758 243.54 63.1569 243.439 63.1127ZM243.155 58.7235C242.889 58.6161 242.693 58.3698 242.674 58.0667L242.56 56.3615C242.37 53.4754 244.255 50.8482 247.038 50.1093C248.942 49.6041 250.896 49.5725 252.838 50.0272C253.243 50.1283 253.502 50.5325 253.408 50.9366C253.313 51.3471 252.902 51.5997 252.497 51.505C250.802 51.1135 249.094 51.1324 247.43 51.5808C245.343 52.1366 243.933 54.107 244.072 56.2731L244.186 57.9783C244.211 58.3951 243.895 58.7551 243.477 58.7867C243.37 58.7803 243.256 58.7614 243.155 58.7235Z" fill="#BDD0FB"/>
<path d="M220.852 77.1707L221.041 70.1101C221.105 67.6724 223.179 65.7715 225.621 65.923L274.336 68.8786C276.5 69.0112 278.207 70.7606 278.277 72.9205L278.505 79.7158L220.852 77.1707Z" fill="#E527BB"/>
<path d="M223.282 75.3582C222.991 75.2445 222.795 74.9603 222.801 74.6319L222.877 71.7774C222.908 70.6027 223.395 69.5165 224.249 68.7081C225.103 67.8997 226.216 67.4703 227.393 67.5019L235.103 67.704C235.521 67.7166 235.856 68.0639 235.843 68.4808C235.831 68.8976 235.483 69.2323 235.065 69.2197L227.355 69.0176C225.767 68.9734 224.439 70.2301 224.401 71.8153L224.325 74.6698C224.313 75.0866 223.965 75.4214 223.547 75.4087C223.446 75.4087 223.358 75.3898 223.282 75.3582Z" fill="#BDD0FB"/>
<path d="M205.641 74.1773L290.903 76.4319C293.971 76.514 296.533 78.7876 296.976 81.8126L297.039 82.2294C297.526 85.5513 294.895 88.5006 291.536 88.4122L204.066 86.1008C202.055 86.0502 200.499 84.3261 200.651 82.3242L200.942 78.4213C201.119 75.9835 203.194 74.1142 205.641 74.1773Z" fill="#E527BB"/>
<path d="M311.087 262.243C311.074 263.696 310.081 264.877 308.866 264.883L189.715 265.338C188.38 265.344 187.305 264.112 187.305 262.584V262.35C187.305 260.822 188.393 259.584 189.721 259.584L308.917 259.395C310.131 259.395 311.099 260.569 311.087 262.022V262.243Z" fill="#BDD0FB"/>
<path d="M311.086 274.602C311.073 276.055 310.08 277.236 308.866 277.242L189.72 277.69C188.386 277.697 187.311 276.465 187.311 274.937V274.703C187.311 273.175 188.398 271.937 189.727 271.937L308.923 271.748C310.137 271.748 311.105 272.922 311.092 274.375L311.086 274.602Z" fill="#BDD0FB"/>
<path d="M311.542 185.707C311.529 187.159 310.536 188.34 309.321 188.347L190.17 188.801C188.835 188.808 187.76 187.576 187.76 186.048V185.814C187.76 184.286 188.848 183.048 190.176 183.048L309.372 182.859C310.586 182.859 311.554 184.033 311.542 185.486V185.707Z" fill="#BDD0FB"/>
<path d="M278.727 103.159C278.683 104.611 278.189 105.786 277.62 105.786C260.656 106.228 241.947 105.634 222.238 104.441C221.612 104.441 220.549 104.491 220.587 102.969L220.593 102.736C220.631 101.213 221.65 98.8958 222.276 98.8958C242.99 100.929 261.643 101.498 277.785 100.298C278.354 100.304 278.778 101.479 278.733 102.931L278.727 103.159Z" fill="#BDD0FB"/>
<path d="M309.005 216.45C308.992 217.903 308.518 219.09 307.949 219.103L251.991 220.17C251.365 220.183 250.865 218.957 250.871 217.429V217.195C250.877 215.667 251.396 214.423 252.022 214.417L307.999 213.615C308.569 213.608 309.018 214.777 309.005 216.229V216.45Z" fill="#BDD0FB"/>
<path d="M309.101 228.677C309.088 230.129 308.614 231.317 308.044 231.329L252.086 232.396C251.46 232.409 250.961 231.184 250.967 229.656V229.422C250.973 227.894 251.492 226.649 252.118 226.643L308.095 225.841C308.664 225.835 309.113 227.003 309.101 228.456V228.677Z" fill="#BDD0FB"/>
<path d="M309.036 240.089C309.024 241.541 308.549 242.728 307.98 242.741L252.022 243.808C251.396 243.821 250.896 242.596 250.902 241.067V240.834C250.909 239.305 251.427 238.061 252.054 238.055L308.031 237.253C308.6 237.247 309.049 238.415 309.036 239.868V240.089Z" fill="#BDD0FB"/>
<path d="M237.874 248.779H193.971C191.024 248.779 188.633 246.391 188.633 243.448V207.167C188.633 204.224 191.024 201.836 193.971 201.836H237.88C240.827 201.836 243.218 204.224 243.218 207.167V243.448C243.212 246.391 240.821 248.779 237.874 248.779Z" fill="#BDD0FB"/>
<path opacity="0.57" d="M198.999 166.78C198.79 166.78 198.582 166.704 198.423 166.559C198.094 166.262 198.088 165.769 198.404 165.46L225.431 139.371C225.71 139.106 226.146 139.074 226.469 139.302L240.245 148.92L265.14 126.835C265.406 126.601 265.811 126.582 266.108 126.797L279.511 136.51L299.277 115.821C299.549 115.53 300.017 115.53 300.314 115.815C300.611 116.099 300.63 116.56 300.358 116.85L280.169 138.007C279.909 138.278 279.486 138.31 279.176 138.089L265.729 128.357L240.852 150.461C240.58 150.707 240.163 150.726 239.859 150.511L226.102 140.925L199.587 166.546C199.429 166.698 199.214 166.78 198.999 166.78Z" fill="white"/>
<path d="M225.723 137.142C223.951 137.205 222.592 138.563 222.693 140.167C222.794 141.771 224.306 143.021 226.077 142.946C227.841 142.876 229.195 141.518 229.1 139.92C228.999 138.323 227.487 137.079 225.723 137.142Z" fill="white"/>
<path d="M198.613 163.287C196.785 163.382 195.381 164.778 195.482 166.413C195.583 168.043 197.145 169.287 198.973 169.186C200.795 169.085 202.193 167.689 202.091 166.06C201.997 164.437 200.441 163.193 198.613 163.287Z" fill="white"/>
<path d="M240.029 147.152C238.284 147.227 236.949 148.579 237.044 150.17C237.139 151.762 238.631 152.993 240.377 152.911C242.117 152.829 243.445 151.478 243.35 149.892C243.255 148.301 241.769 147.076 240.029 147.152Z" fill="white"/>
<path d="M279.334 134.331C277.67 134.395 276.393 135.702 276.487 137.262C276.582 138.822 278.005 140.028 279.669 139.965C281.326 139.902 282.597 138.588 282.503 137.034C282.408 135.481 280.991 134.268 279.334 134.331Z" fill="white"/>
<path d="M302.634 116.389C302.539 114.855 301.154 113.649 299.535 113.686C297.91 113.724 296.67 115.006 296.758 116.541C296.853 118.082 298.245 119.288 299.864 119.244C301.49 119.2 302.729 117.924 302.634 116.389Z" fill="white"/>
<path d="M265.38 124.688C263.691 124.738 262.394 126.052 262.489 127.624C262.584 129.197 264.033 130.422 265.721 130.365C267.41 130.308 268.694 128.995 268.606 127.429C268.511 125.862 267.069 124.637 265.38 124.688Z" fill="white"/>
<path opacity="0.74" d="M311.13 174.491H192.175C190.998 174.491 189.898 174.03 189.082 173.183C188.259 172.344 187.829 171.232 187.861 170.057L189.328 118.36C189.341 117.842 189.784 117.438 190.296 117.444C190.815 117.457 191.226 117.892 191.213 118.41L189.746 170.108C189.727 170.771 189.974 171.396 190.435 171.87C190.897 172.344 191.517 172.602 192.181 172.602H311.13C311.649 172.602 312.073 173.026 312.073 173.543C312.073 174.068 311.649 174.491 311.13 174.491Z" fill="white"/>
<path d="M271.509 180.951C270.921 201.925 269.011 274.28 269.922 299.914C270.017 302.63 272.483 304.809 275.551 304.897C290.75 305.339 346.462 306.451 371.319 305.529C376.499 305.339 380.611 301.632 380.718 297.047C381.237 275.032 382.375 213.109 379.668 184.741C379.346 181.343 376.329 178.634 372.489 178.293C355.937 176.827 299.985 173.253 278.511 174.484C274.64 174.712 271.604 177.516 271.509 180.951Z" fill="#A78BEF"/>
<path d="M275.873 190.197V207.975C275.873 211.385 278.643 214.145 282.053 214.145H367.112C370.528 214.145 373.292 211.379 373.292 207.975V190.197C373.292 186.787 370.522 184.027 367.112 184.027H282.053C278.637 184.027 275.873 186.787 275.873 190.197Z" fill="#8F77E5"/>
<path d="M368.955 190.096C368.202 189.319 367.171 188.871 366.089 188.858L286.501 187.595C284.376 187.564 282.579 189.168 282.377 191.283L280.726 208.916C280.593 210.362 282.971 211.575 286.001 211.613L364.249 212.56C367.278 212.598 369.777 211.442 369.802 210.002L370.099 193.001C370.118 191.915 369.707 190.873 368.955 190.096Z" fill="white"/>
<path d="M297.138 232.169C297.138 235.308 294.589 237.847 291.452 237.847H284.526C281.383 237.847 278.84 235.301 278.84 232.169C278.84 229.03 281.389 226.491 284.526 226.491H291.452C294.589 226.485 297.138 229.03 297.138 232.169Z" fill="white"/>
<path d="M322.851 232.169C322.851 235.308 320.302 237.847 317.164 237.847H310.245C307.101 237.847 304.559 235.301 304.559 232.169C304.559 229.03 307.108 226.491 310.245 226.491H317.171C320.308 226.485 322.851 229.03 322.851 232.169Z" fill="white"/>
<path d="M347.582 232.169C347.582 235.308 345.033 237.847 341.895 237.847H334.969C331.826 237.847 329.283 235.301 329.283 232.169C329.283 229.03 331.832 226.491 334.969 226.491H341.895C345.033 226.485 347.582 229.03 347.582 232.169Z" fill="white"/>
<path d="M372.641 233.003C372.641 236.192 370.054 238.775 366.86 238.775H360.168C356.974 238.775 354.387 236.192 354.387 233.003C354.387 229.813 356.974 227.23 360.168 227.23H366.86C370.054 227.23 372.641 229.813 372.641 233.003Z" fill="#E527BB"/>
<path d="M297.138 249.94C297.138 253.079 294.589 255.618 291.452 255.618H284.526C281.383 255.618 278.84 253.073 278.84 249.94C278.84 246.802 281.389 244.263 284.526 244.263H291.452C294.589 244.263 297.138 246.808 297.138 249.94Z" fill="white"/>
<path d="M322.851 249.94C322.851 253.079 320.302 255.618 317.164 255.618H310.245C307.101 255.618 304.559 253.073 304.559 249.94C304.559 246.802 307.108 244.263 310.245 244.263H317.171C320.308 244.263 322.851 246.808 322.851 249.94Z" fill="white"/>
<path d="M347.582 249.94C347.582 253.079 345.033 255.618 341.895 255.618H334.969C331.826 255.618 329.283 253.073 329.283 249.94C329.283 246.802 331.832 244.263 334.969 244.263H341.895C345.033 244.263 347.582 246.808 347.582 249.94Z" fill="white"/>
<path d="M373.293 249.94C373.293 253.079 370.744 255.618 367.606 255.618H360.68C357.537 255.618 354.994 253.073 354.994 249.94C354.994 246.802 357.543 244.263 360.68 244.263H367.606C370.75 244.263 373.293 246.808 373.293 249.94Z" fill="white"/>
<path d="M297.138 265.685C297.138 268.824 294.589 271.362 291.452 271.362H284.526C281.383 271.362 278.84 268.817 278.84 265.685C278.84 262.546 281.389 260.007 284.526 260.007H291.452C294.589 260.007 297.138 262.546 297.138 265.685Z" fill="white"/>
<path d="M322.851 265.685C322.851 268.824 320.302 271.362 317.164 271.362H310.245C307.101 271.362 304.559 268.817 304.559 265.685C304.559 262.546 307.108 260.007 310.245 260.007H317.171C320.308 260.007 322.851 262.546 322.851 265.685Z" fill="white"/>
<path d="M347.582 265.685C347.582 268.824 345.033 271.362 341.895 271.362H334.969C331.826 271.362 329.283 268.817 329.283 265.685C329.283 262.546 331.832 260.007 334.969 260.007H341.895C345.033 260.007 347.582 262.546 347.582 265.685Z" fill="white"/>
<path d="M297.138 282.964C297.138 286.102 294.589 288.641 291.452 288.641H284.526C281.383 288.641 278.84 286.096 278.84 282.964C278.84 279.825 281.389 277.286 284.526 277.286H291.452C294.589 277.286 297.138 279.831 297.138 282.964Z" fill="white"/>
<path d="M322.851 282.964C322.851 286.102 320.302 288.641 317.164 288.641H310.245C307.101 288.641 304.559 286.096 304.559 282.964C304.559 279.825 307.108 277.286 310.245 277.286H317.171C320.308 277.286 322.851 279.831 322.851 282.964Z" fill="white"/>
<path d="M347.582 282.964C347.582 286.102 345.033 288.641 341.895 288.641H334.969C331.826 288.641 329.283 286.096 329.283 282.964C329.283 279.825 331.832 277.286 334.969 277.286H341.895C345.033 277.286 347.582 279.831 347.582 282.964Z" fill="white"/>
<path d="M370.819 282.503C370.819 286.475 367.593 289.69 363.621 289.69H363.184C359.206 289.69 355.986 286.469 355.986 282.503V268.735C355.986 264.763 359.212 261.548 363.184 261.548H363.621C367.599 261.548 370.819 264.769 370.819 268.735V282.503Z" fill="#E527BB"/>
<path d="M235.761 307C247.079 307 256.254 297.839 256.254 286.538C256.254 275.237 247.079 266.076 235.761 266.076C224.443 266.076 215.268 275.237 215.268 286.538C215.268 297.839 224.443 307 235.761 307Z" fill="url(#paint0_linear_1689_6291)"/>
<path d="M235.761 306.318C246.702 306.318 255.571 297.462 255.571 286.538C255.571 275.614 246.702 266.759 235.761 266.759C224.82 266.759 215.951 275.614 215.951 286.538C215.951 297.462 224.82 306.318 235.761 306.318Z" fill="#E527BB"/>
<path opacity="0.66" d="M219.424 278.631C219.373 278.631 219.329 278.619 219.285 278.6C219.133 278.524 219.07 278.335 219.145 278.177C222.333 271.874 228.696 267.958 235.761 267.958C236.887 267.958 238.019 268.06 239.12 268.262C239.291 268.293 239.405 268.457 239.373 268.628C239.341 268.798 239.183 268.912 239.006 268.881C237.944 268.685 236.856 268.59 235.761 268.59C228.937 268.59 222.782 272.373 219.702 278.461C219.651 278.568 219.538 278.631 219.424 278.631Z" fill="white"/>
<path opacity="0.59" d="M236.192 303.71C245.452 303.71 252.959 296.214 252.959 286.968C252.959 277.721 245.452 270.226 236.192 270.226C226.931 270.226 219.424 277.721 219.424 286.968C219.424 296.214 226.931 303.71 236.192 303.71Z" fill="white"/>
<path d="M234.546 299.415V297.597C232.642 297.521 230.764 297.072 229.429 296.491C228.955 296.283 228.708 295.746 228.847 295.247L229.309 293.548C229.48 292.923 230.157 292.601 230.751 292.854C232.079 293.409 233.711 293.845 235.476 293.845C237.31 293.845 238.676 293.226 238.676 291.957C238.676 290.808 237.62 290.125 235.077 289.443C231.447 288.452 228.835 286.873 228.835 283.677C228.835 280.791 230.947 278.594 234.609 278.006V276.187C234.609 275.6 235.084 275.126 235.672 275.126H236.741C237.329 275.126 237.804 275.6 237.804 276.187V277.823C239.562 277.893 240.846 278.196 241.858 278.549C242.377 278.733 242.661 279.295 242.516 279.825L242.092 281.391C241.927 281.998 241.282 282.326 240.694 282.105C239.758 281.751 238.436 281.385 236.716 281.385C234.54 281.385 233.92 282.282 233.92 283.09C233.92 284.082 235.223 284.764 238.05 285.635C242.086 286.841 243.762 288.515 243.762 291.527C243.762 294.287 241.712 296.769 237.74 297.388V299.428C237.74 300.015 237.266 300.489 236.678 300.489H235.609C235.02 300.476 234.546 299.996 234.546 299.415Z" fill="white"/>
<path d="M213.927 307C225.245 307 234.42 297.839 234.42 286.538C234.42 275.237 225.245 266.076 213.927 266.076C202.609 266.076 193.434 275.237 193.434 286.538C193.434 297.839 202.609 307 213.927 307Z" fill="url(#paint1_linear_1689_6291)"/>
<path d="M213.927 306.318C224.868 306.318 233.737 297.462 233.737 286.538C233.737 275.614 224.868 266.759 213.927 266.759C202.986 266.759 194.117 275.614 194.117 286.538C194.117 297.462 202.986 306.318 213.927 306.318Z" fill="#E527BB"/>
<path opacity="0.66" d="M197.59 278.631C197.539 278.631 197.495 278.619 197.451 278.6C197.299 278.524 197.236 278.335 197.311 278.177C200.499 271.874 206.862 267.958 213.927 267.958C215.053 267.958 216.185 268.06 217.286 268.262C217.457 268.293 217.571 268.457 217.539 268.628C217.507 268.798 217.349 268.912 217.172 268.881C216.11 268.685 215.022 268.59 213.927 268.59C207.103 268.59 200.948 272.373 197.868 278.461C197.811 278.568 197.704 278.631 197.59 278.631Z" fill="white"/>
<path opacity="0.59" d="M214.358 303.71C223.618 303.71 231.125 296.214 231.125 286.968C231.125 277.721 223.618 270.226 214.358 270.226C205.097 270.226 197.59 277.721 197.59 286.968C197.59 296.214 205.097 303.71 214.358 303.71Z" fill="white"/>
<path d="M212.712 299.415V297.597C210.808 297.521 208.93 297.072 207.595 296.491C207.121 296.283 206.874 295.746 207.013 295.247L207.475 293.548C207.646 292.923 208.323 292.601 208.917 292.854C210.245 293.409 211.877 293.845 213.642 293.845C215.476 293.845 216.842 293.226 216.842 291.957C216.842 290.808 215.786 290.125 213.243 289.443C209.613 288.452 207.001 286.873 207.001 283.677C207.001 280.791 209.113 278.594 212.775 278.006V276.187C212.775 275.6 213.25 275.126 213.838 275.126H214.907C215.495 275.126 215.97 275.6 215.97 276.187V277.823C217.728 277.893 219.012 278.196 220.024 278.549C220.543 278.733 220.827 279.295 220.682 279.825L220.258 281.391C220.093 281.998 219.448 282.326 218.86 282.105C217.924 281.751 216.602 281.385 214.882 281.385C212.706 281.385 212.086 282.282 212.086 283.09C212.086 284.082 213.389 284.764 216.216 285.635C220.252 286.841 221.928 288.515 221.928 291.527C221.928 294.287 219.878 296.769 215.906 297.388V299.428C215.906 300.015 215.432 300.489 214.844 300.489H213.775C213.187 300.476 212.712 299.996 212.712 299.415Z" fill="white"/>
<path d="M192.093 307C203.411 307 212.586 297.839 212.586 286.538C212.586 275.237 203.411 266.076 192.093 266.076C180.775 266.076 171.6 275.237 171.6 286.538C171.6 297.839 180.775 307 192.093 307Z" fill="url(#paint2_linear_1689_6291)"/>
<path d="M192.093 306.318C203.034 306.318 211.904 297.462 211.904 286.538C211.904 275.614 203.034 266.759 192.093 266.759C181.153 266.759 172.283 275.614 172.283 286.538C172.283 297.462 181.153 306.318 192.093 306.318Z" fill="#E527BB"/>
<path opacity="0.66" d="M175.756 278.631C175.705 278.631 175.661 278.619 175.617 278.6C175.465 278.524 175.402 278.335 175.477 278.177C178.665 271.874 185.028 267.958 192.093 267.958C193.219 267.958 194.352 268.06 195.452 268.262C195.623 268.293 195.737 268.457 195.705 268.628C195.673 268.798 195.515 268.912 195.338 268.881C194.276 268.685 193.188 268.59 192.093 268.59C185.269 268.59 179.114 272.373 176.034 278.461C175.977 278.568 175.87 278.631 175.756 278.631Z" fill="white"/>
<path opacity="0.59" d="M192.516 303.71C201.776 303.71 209.284 296.214 209.284 286.968C209.284 277.721 201.776 270.226 192.516 270.226C183.255 270.226 175.748 277.721 175.748 286.968C175.748 296.214 183.255 303.71 192.516 303.71Z" fill="white"/>
<path d="M190.878 299.415V297.597C188.974 297.521 187.096 297.072 185.761 296.491C185.287 296.283 185.04 295.746 185.179 295.247L185.641 293.548C185.812 292.923 186.489 292.601 187.083 292.854C188.411 293.409 190.043 293.845 191.808 293.845C193.642 293.845 195.008 293.226 195.008 291.957C195.008 290.808 193.952 290.125 191.409 289.443C187.779 288.452 185.167 286.873 185.167 283.677C185.167 280.791 187.279 278.594 190.941 278.006V276.187C190.941 275.6 191.416 275.126 192.004 275.126H193.073C193.661 275.126 194.136 275.6 194.136 276.187V277.823C195.894 277.893 197.178 278.196 198.19 278.549C198.709 278.733 198.993 279.295 198.848 279.825L198.424 281.391C198.26 281.998 197.614 282.326 197.026 282.105C196.09 281.751 194.768 281.385 193.048 281.385C190.872 281.385 190.252 282.282 190.252 283.09C190.252 284.082 191.555 284.764 194.382 285.635C198.418 286.841 200.094 288.515 200.094 291.527C200.094 294.287 198.044 296.769 194.072 297.388V299.428C194.072 300.015 193.598 300.489 193.01 300.489H191.941C191.353 300.476 190.878 299.996 190.878 299.415Z" fill="white"/>
<path d="M163.875 307C178.718 307 190.751 294.986 190.751 280.166C190.751 265.346 178.718 253.332 163.875 253.332C149.032 253.332 137 265.346 137 280.166C137 294.986 149.032 307 163.875 307Z" fill="url(#paint3_linear_1689_6291)"/>
<path d="M163.876 306.103C178.222 306.103 189.853 294.491 189.853 280.166C189.853 265.841 178.222 254.229 163.876 254.229C149.529 254.229 137.898 265.841 137.898 280.166C137.898 294.491 149.529 306.103 163.876 306.103Z" fill="#E527BB"/>
<path opacity="0.66" d="M142.453 269.701C142.402 269.701 142.358 269.689 142.314 269.67C142.162 269.594 142.099 269.405 142.175 269.247C146.337 261.018 154.654 255.902 163.876 255.902C165.35 255.902 166.824 256.035 168.259 256.294C168.43 256.325 168.544 256.49 168.512 256.66C168.481 256.831 168.323 256.944 168.146 256.913C166.748 256.66 165.312 256.528 163.876 256.528C154.888 256.528 146.786 261.51 142.731 269.525C142.674 269.638 142.567 269.701 142.453 269.701Z" fill="white"/>
<path opacity="0.78" d="M179.983 296.249C188.569 287.676 188.569 273.777 179.983 265.204C171.397 256.631 157.476 256.631 148.89 265.204C140.304 273.777 140.304 287.676 148.89 296.249C157.476 304.822 171.397 304.822 179.983 296.249Z" fill="white"/>
<path d="M162.283 297.053V294.666C159.791 294.565 157.324 293.978 155.572 293.214C154.946 292.942 154.63 292.241 154.807 291.584L155.414 289.361C155.635 288.546 156.527 288.123 157.305 288.452C159.044 289.178 161.189 289.753 163.504 289.753C165.907 289.753 167.697 288.938 167.697 287.271C167.697 285.768 166.312 284.871 162.972 283.98C158.21 282.679 154.788 280.608 154.788 276.421C154.788 272.638 157.558 269.752 162.359 268.981V266.594C162.359 265.824 162.985 265.205 163.75 265.205H165.154C165.926 265.205 166.546 265.83 166.546 266.594V268.741C168.855 268.836 170.531 269.228 171.865 269.695C172.548 269.935 172.922 270.668 172.732 271.369L172.175 273.427C171.96 274.223 171.113 274.653 170.341 274.362C169.114 273.901 167.381 273.415 165.123 273.415C162.27 273.415 161.461 274.596 161.461 275.65C161.461 276.951 163.168 277.848 166.875 278.985C172.169 280.57 174.364 282.768 174.364 286.709C174.364 290.327 171.676 293.58 166.464 294.395V297.066C166.464 297.836 165.838 298.455 165.072 298.455H163.668C162.909 298.443 162.283 297.817 162.283 297.053Z" fill="white"/>
<path d="M245.962 201.843C246 201.83 267.91 163.514 270.877 159.908C271.377 159.302 272.148 158.993 272.926 159.087L279.043 159.814L286.228 175.331L274.254 168.371C275.437 176.549 260.061 188.707 254.792 193.14C254.255 193.588 254.21 194.397 254.697 194.902L256.804 197.1C253.35 200.598 249.359 202.847 244.855 203.882L245.962 201.843Z" fill="url(#paint4_linear_1689_6291)"/>
<path d="M255.584 195.913C255.584 195.913 256.925 196.348 257.38 197.542C257.595 198.117 257.361 198.761 256.868 199.114C254.654 200.7 247.355 205.809 243.99 206.807C243.712 206.889 243.452 206.642 243.515 206.358C243.686 205.575 244.249 204.015 246.046 201.735L245.881 202.064C245.679 202.474 246.128 202.904 246.526 202.683C248.784 201.413 253.37 198.635 255.584 195.913Z" fill="#A78BEF"/>
<path d="M254.502 211.246C254.54 211.221 257.829 203.314 257.861 203.289C260.878 184.968 268.228 169.274 270.397 165.144C270.764 164.449 271.454 163.988 272.238 163.925L278.373 163.401L288.557 177.149L275.426 172.754C278.241 180.522 265.647 195.534 261.384 200.939C260.954 201.489 261.074 202.285 261.65 202.683L264.155 204.413C261.479 208.537 258.026 211.543 253.832 213.469L254.502 211.246Z" fill="url(#paint5_linear_1689_6291)"/>
<path d="M262.718 203.497C262.718 203.497 264.122 203.649 264.812 204.729C265.14 205.247 265.039 205.929 264.628 206.377C262.781 208.373 256.671 214.852 253.578 216.513C253.325 216.652 253.015 216.456 253.022 216.172C253.034 215.37 253.262 213.735 254.565 211.133L254.47 211.486C254.356 211.935 254.881 212.263 255.229 211.96C257.171 210.255 261.105 206.604 262.718 203.497Z" fill="#A78BEF"/>
<path d="M307.096 160.508C307.096 160.508 312.649 168.75 313.105 172.514C313.56 176.272 311.568 177.573 305.761 178.053C288.469 179.48 279.949 174.308 279.949 174.308C278.766 166.78 277.925 164.86 268.045 160.767C268.045 160.767 280.537 161.759 283.054 160.786C285.565 159.807 307.096 160.508 307.096 160.508Z" fill="#231F20"/>
<path d="M284.963 114.318C284.963 114.318 288.828 109.752 292.939 115.354C293.685 116.37 296.544 115.53 297.588 117.659C298.132 118.757 299.296 119.376 300.504 119.155C303.502 118.606 308.404 118.555 310.826 123.248C312.673 126.829 311.25 128.925 309.403 130.119C308.049 130.997 307.562 132.778 308.385 134.167C309.169 135.5 309.321 137.306 307.29 139.485C302.736 144.354 293.723 136.39 293.723 136.39L286.569 119.509L284.963 114.318Z" fill="#231F20"/>
<path d="M292.085 159.416C292.085 159.416 285.621 153.271 282.44 149.198C280.719 147 280.181 144.101 280.972 141.423C282.427 136.535 285.008 131.477 285.242 130.687C285.602 129.481 292.851 129.532 292.851 129.532C292.851 129.532 307.114 138.777 312.718 154.433L306.424 156.391C306.424 156.391 302.699 150.151 299.018 146.185C299.018 146.185 305.387 154.585 305.608 158.02L292.085 159.416Z" fill="#A78BEF"/>
<path d="M279.77 161.841L284.627 156.561L290.238 158.071C290.238 158.071 296.778 159.081 300.522 158.071C304.267 157.06 304.267 157.06 304.267 157.06L312.723 154.433L314.051 158.184C314.387 159.138 314.051 160.193 313.223 160.78C312.489 161.298 311.635 161.873 311.085 162.106C309.972 162.593 285.424 162.258 285.424 162.258L279.77 161.841Z" fill="url(#paint6_linear_1689_6291)"/>
<path d="M287.872 120.829L292.742 129.873C292.42 131.849 287.442 131.9 286.67 130.725C286.594 130.605 286.55 130.466 286.519 130.327L283.603 124.283C283.476 123.696 285.095 121.707 285.627 121.423L287.562 120.393C288.309 120.002 285.197 119.97 287.872 120.829Z" fill="url(#paint7_linear_1689_6291)"/>
<path d="M278.011 118.707C278.011 118.707 277.461 121.763 279.865 125.647C282.268 129.531 284.665 129.355 285.88 127.971C287.094 126.588 288.555 124.277 287.891 120.406C287.233 116.528 278.84 114.81 278.011 118.707Z" fill="url(#paint8_linear_1689_6291)"/>
<path d="M284.982 120.829C284.982 120.829 281.086 115.72 278.094 120.172L278.145 121.713C278.145 121.713 274.255 121.53 274.679 117.955C275.103 114.375 278.278 111.931 282.674 113.156C287.076 114.381 289.644 115.77 290.144 118.821C290.643 121.871 288.145 121.372 288.145 121.372C288.145 121.372 287.19 119.269 286.039 119.124C284.887 118.978 285.305 120.646 285.305 120.646L284.982 120.829Z" fill="#231F20"/>
<path d="M285.881 120.69C285.881 120.69 283.864 118.075 285.698 117.532C287.532 116.989 287.469 120.096 287.349 121.246L285.881 120.69Z" fill="url(#paint9_linear_1689_6291)"/>
<path d="M295.849 163.931C295.83 163.931 295.818 163.931 295.799 163.931L273.458 163.906C272.908 163.906 272.459 163.458 272.459 162.908C272.459 162.359 272.908 161.898 273.458 161.91L295.799 161.936C296.349 161.936 296.798 162.384 296.798 162.934C296.798 163.47 296.374 163.906 295.849 163.931Z" fill="#A78BEF"/>
<path d="M253.37 143.678H271.978C273.35 143.678 274.603 144.467 275.185 145.712L283.787 163.925H260.662C259.777 163.925 258.986 163.388 258.657 162.567L251.984 145.718C251.598 144.733 252.32 143.678 253.37 143.678Z" fill="#A78BEF"/>
<path d="M266.474 153.012C266.879 154.263 266.582 155.475 265.81 155.728C265.038 155.974 264.09 155.159 263.685 153.909C263.28 152.658 263.577 151.446 264.349 151.193C265.121 150.953 266.076 151.762 266.474 153.012Z" fill="url(#paint10_linear_1689_6291)"/>
<path d="M304.963 198.909C304.963 199.996 304.764 200.931 304.366 201.713C303.969 202.492 303.424 203.092 302.731 203.513C302.041 203.93 301.258 204.139 300.379 204.139C299.498 204.139 298.71 203.93 298.018 203.513C297.328 203.092 296.785 202.49 296.387 201.708C295.989 200.926 295.79 199.993 295.79 198.909C295.79 197.822 295.989 196.889 296.387 196.11C296.785 195.328 297.328 194.728 298.018 194.31C298.71 193.889 299.498 193.679 300.379 193.679C301.258 193.679 302.041 193.889 302.731 194.31C303.424 194.728 303.969 195.328 304.366 196.11C304.764 196.889 304.963 197.822 304.963 198.909ZM303.442 198.909C303.442 198.08 303.308 197.383 303.039 196.816C302.774 196.246 302.409 195.815 301.945 195.523C301.485 195.228 300.963 195.081 300.379 195.081C299.793 195.081 299.269 195.228 298.808 195.523C298.348 195.815 297.983 196.246 297.714 196.816C297.449 197.383 297.317 198.08 297.317 198.909C297.317 199.738 297.449 200.437 297.714 201.007C297.983 201.574 298.348 202.005 298.808 202.3C299.269 202.591 299.793 202.737 300.379 202.737C300.963 202.737 301.485 202.591 301.945 202.3C302.409 202.005 302.774 201.574 303.039 201.007C303.308 200.437 303.442 199.738 303.442 198.909ZM313.292 196.364L310.523 204H308.932L306.157 196.364H307.753L309.687 202.24H309.767L311.696 196.364H313.292ZM317.72 204.154C316.968 204.154 316.32 203.993 315.776 203.672C315.236 203.347 314.818 202.891 314.523 202.305C314.232 201.715 314.086 201.024 314.086 200.232C314.086 199.449 314.232 198.76 314.523 198.163C314.818 197.567 315.229 197.101 315.756 196.766C316.287 196.432 316.906 196.264 317.616 196.264C318.047 196.264 318.464 196.335 318.869 196.478C319.273 196.621 319.636 196.844 319.957 197.149C320.279 197.454 320.532 197.85 320.718 198.337C320.904 198.821 320.996 199.41 320.996 200.102V200.629H314.926V199.516H319.54C319.54 199.125 319.46 198.778 319.301 198.477C319.142 198.172 318.918 197.931 318.63 197.756C318.345 197.58 318.01 197.492 317.626 197.492C317.208 197.492 316.844 197.595 316.532 197.8C316.224 198.003 315.985 198.268 315.816 198.596C315.65 198.921 315.567 199.274 315.567 199.655V200.525C315.567 201.035 315.657 201.469 315.836 201.827C316.018 202.185 316.272 202.459 316.597 202.648C316.921 202.833 317.301 202.926 317.735 202.926C318.017 202.926 318.274 202.886 318.506 202.807C318.738 202.724 318.938 202.601 319.107 202.439C319.276 202.277 319.406 202.076 319.495 201.837L320.902 202.091C320.789 202.505 320.587 202.868 320.295 203.18C320.007 203.488 319.644 203.728 319.207 203.901C318.772 204.07 318.277 204.154 317.72 204.154ZM322.646 204V196.364H324.083V197.577H324.162C324.301 197.166 324.547 196.843 324.898 196.607C325.253 196.369 325.654 196.249 326.101 196.249C326.194 196.249 326.303 196.253 326.429 196.259C326.558 196.266 326.66 196.274 326.732 196.284V197.706C326.673 197.689 326.567 197.671 326.414 197.651C326.262 197.628 326.109 197.616 325.957 197.616C325.606 197.616 325.292 197.691 325.017 197.84C324.745 197.986 324.53 198.19 324.371 198.452C324.212 198.71 324.132 199.005 324.132 199.337V204H322.646ZM332.035 196.364V197.557H327.863V196.364H332.035ZM328.982 194.534H330.469V201.758C330.469 202.046 330.512 202.263 330.598 202.409C330.684 202.552 330.795 202.649 330.931 202.702C331.07 202.752 331.221 202.777 331.383 202.777C331.503 202.777 331.607 202.769 331.697 202.752C331.786 202.736 331.856 202.722 331.905 202.712L332.174 203.94C332.088 203.973 331.965 204.007 331.806 204.04C331.647 204.076 331.448 204.096 331.209 204.099C330.818 204.106 330.454 204.036 330.116 203.891C329.778 203.745 329.504 203.519 329.295 203.214C329.086 202.91 328.982 202.527 328.982 202.066V194.534ZM333.679 204V196.364H335.165V204H333.679ZM334.43 195.185C334.171 195.185 333.949 195.099 333.763 194.927C333.581 194.751 333.49 194.542 333.49 194.3C333.49 194.055 333.581 193.846 333.763 193.674C333.949 193.498 334.171 193.411 334.43 193.411C334.688 193.411 334.909 193.498 335.091 193.674C335.277 193.846 335.369 194.055 335.369 194.3C335.369 194.542 335.277 194.751 335.091 194.927C334.909 195.099 334.688 195.185 334.43 195.185ZM337.165 204V196.364H338.592V197.607H338.687C338.846 197.186 339.106 196.857 339.467 196.622C339.828 196.384 340.261 196.264 340.765 196.264C341.275 196.264 341.703 196.384 342.047 196.622C342.395 196.861 342.652 197.189 342.818 197.607H342.898C343.08 197.199 343.37 196.874 343.768 196.632C344.165 196.387 344.639 196.264 345.189 196.264C345.882 196.264 346.447 196.481 346.885 196.915C347.326 197.35 347.546 198.004 347.546 198.879V204H346.059V199.018C346.059 198.501 345.919 198.127 345.637 197.895C345.355 197.663 345.019 197.547 344.628 197.547C344.144 197.547 343.768 197.696 343.499 197.994C343.231 198.289 343.096 198.669 343.096 199.133V204H341.615V198.924C341.615 198.51 341.486 198.177 341.227 197.925C340.969 197.673 340.632 197.547 340.218 197.547C339.936 197.547 339.676 197.621 339.437 197.771C339.202 197.916 339.011 198.12 338.866 198.382C338.723 198.644 338.652 198.947 338.652 199.292V204H337.165ZM352.83 204.154C352.077 204.154 351.429 203.993 350.886 203.672C350.345 203.347 349.928 202.891 349.633 202.305C349.341 201.715 349.195 201.024 349.195 200.232C349.195 199.449 349.341 198.76 349.633 198.163C349.928 197.567 350.339 197.101 350.866 196.766C351.396 196.432 352.016 196.264 352.725 196.264C353.156 196.264 353.574 196.335 353.978 196.478C354.382 196.621 354.745 196.844 355.067 197.149C355.388 197.454 355.642 197.85 355.827 198.337C356.013 198.821 356.106 199.41 356.106 200.102V200.629H350.036V199.516H354.649C354.649 199.125 354.57 198.778 354.411 198.477C354.251 198.172 354.028 197.931 353.739 197.756C353.454 197.58 353.12 197.492 352.735 197.492C352.317 197.492 351.953 197.595 351.641 197.8C351.333 198.003 351.094 198.268 350.925 198.596C350.76 198.921 350.677 199.274 350.677 199.655V200.525C350.677 201.035 350.766 201.469 350.945 201.827C351.128 202.185 351.381 202.459 351.706 202.648C352.031 202.833 352.41 202.926 352.844 202.926C353.126 202.926 353.383 202.886 353.615 202.807C353.847 202.724 354.048 202.601 354.217 202.439C354.386 202.277 354.515 202.076 354.604 201.837L356.011 202.091C355.899 202.505 355.696 202.868 355.405 203.18C355.116 203.488 354.754 203.728 354.316 203.901C353.882 204.07 353.386 204.154 352.83 204.154Z" fill="#E527BB"/>
</g>
<defs>
<linearGradient id="paint0_linear_1689_6291" x1="207.717" y1="319.036" x2="235.156" y2="287.137" gradientUnits="userSpaceOnUse">
<stop stop-color="#E1473D"/>
<stop offset="1" stop-color="#E9605A"/>
</linearGradient>
<linearGradient id="paint1_linear_1689_6291" x1="185.882" y1="319.036" x2="213.322" y2="287.137" gradientUnits="userSpaceOnUse">
<stop stop-color="#E1473D"/>
<stop offset="1" stop-color="#E9605A"/>
</linearGradient>
<linearGradient id="paint2_linear_1689_6291" x1="164.047" y1="319.036" x2="191.487" y2="287.137" gradientUnits="userSpaceOnUse">
<stop stop-color="#E1473D"/>
<stop offset="1" stop-color="#E9605A"/>
</linearGradient>
<linearGradient id="paint3_linear_1689_6291" x1="127.1" y1="322.784" x2="163.082" y2="280.954" gradientUnits="userSpaceOnUse">
<stop stop-color="#E1473D"/>
<stop offset="1" stop-color="#E9605A"/>
</linearGradient>
<linearGradient id="paint4_linear_1689_6291" x1="240.714" y1="169.747" x2="275.23" y2="189.479" gradientUnits="userSpaceOnUse">
<stop stop-color="#FEBBBA"/>
<stop offset="1" stop-color="#FF928E"/>
</linearGradient>
<linearGradient id="paint5_linear_1689_6291" x1="244.057" y1="174.657" x2="125.971" y2="100.62" gradientUnits="userSpaceOnUse">
<stop stop-color="#FEBBBA"/>
<stop offset="1" stop-color="#FF928E"/>
</linearGradient>
<linearGradient id="paint6_linear_1689_6291" x1="294.814" y1="172.137" x2="301.49" y2="135.986" gradientUnits="userSpaceOnUse">
<stop stop-color="#FEBBBA"/>
<stop offset="1" stop-color="#FF928E"/>
</linearGradient>
<linearGradient id="paint7_linear_1689_6291" x1="303.032" y1="141.53" x2="286.108" y2="124.37" gradientUnits="userSpaceOnUse">
<stop stop-color="#FEBBBA"/>
<stop offset="1" stop-color="#FF928E"/>
</linearGradient>
<linearGradient id="paint8_linear_1689_6291" x1="288.379" y1="131.508" x2="273.443" y2="102.879" gradientUnits="userSpaceOnUse">
<stop stop-color="#FEBBBA"/>
<stop offset="1" stop-color="#FF928E"/>
</linearGradient>
<linearGradient id="paint9_linear_1689_6291" x1="291.808" y1="129.72" x2="276.872" y2="101.091" gradientUnits="userSpaceOnUse">
<stop stop-color="#FEBBBA"/>
<stop offset="1" stop-color="#FF928E"/>
</linearGradient>
<linearGradient id="paint10_linear_1689_6291" x1="277.86" y1="165.572" x2="260.277" y2="148.86" gradientUnits="userSpaceOnUse">
<stop stop-color="#4F52FF"/>
<stop offset="1" stop-color="#4042E2"/>
</linearGradient>
<clipPath id="clip0_1689_6291">
<rect width="258" height="259" fill="white" transform="translate(137 48)"/>
</clipPath>
</defs>
</svg>
