<svg width="20" height="20" viewBox="0 0 20 20" fill="none" xmlns="http://www.w3.org/2000/svg">
<path d="M13.3 14.7L14.7 13.3L11 9.6V5H9V10.4L13.3 14.7ZM10 20C8.6 20 7.3 19.7 6.1 19.2C4.9 18.7 3.8 18 2.9 17.1C2 16.2 1.3 15.1 0.8 13.9C0.3 12.7 0 11.4 0 10C0 8.6 0.3 7.3 0.8 6.1C1.3 4.9 2 3.8 2.9 2.9C3.8 2 4.9 1.3 6.1 0.8C7.3 0.3 8.6 0 10 0C11.4 0 12.7 0.3 13.9 0.8C15.1 1.3 16.2 2 17.1 2.9C18 3.8 18.7 4.9 19.2 6.1C19.7 7.3 20 8.6 20 10C20 11.4 19.7 12.7 19.2 13.9C18.7 15.1 18 16.2 17.1 17.1C16.2 18 15.1 18.7 13.9 19.2C12.7 19.8 11.4 20 10 20ZM10 18C12.2 18 14.1 17.2 15.7 15.7C17.3 14.1 18 12.3 18 10C18 7.8 17.2 5.9 15.7 4.3C14.1 2.7 12.3 2 10 2C7.8 2 5.9 2.8 4.3 4.3C2.7 5.9 2 7.7 2 10C2 12.2 2.8 14.1 4.3 15.7C5.9 17.3 7.8 18 10 18Z" fill="url(#paint0_linear_379_4101)"/>
<defs>
<linearGradient id="paint0_linear_379_4101" x1="10" y1="0" x2="10" y2="20" gradientUnits="userSpaceOnUse">
<stop stop-color="#E527BB"/>
<stop offset="1" stop-color="#A78BEF"/>
</linearGradient>
</defs>
</svg>
