<svg width="21" height="18" viewBox="0 0 21 18" fill="none" xmlns="http://www.w3.org/2000/svg">
<path d="M18.0156 15.9052C18.0156 16.0719 18.1506 16.207 18.3173 16.207C18.484 16.207 18.6191 16.0719 18.6191 15.9052V11.7661C18.6191 11.5994 18.484 11.4643 18.3173 11.4643H17.4326C17.2659 11.4643 17.1309 11.5994 17.1309 11.7661C17.1309 11.9327 17.2659 12.0678 17.4326 12.0678H18.0156V15.9052Z" fill="url(#paint0_linear_1757_2495)"/>
<path d="M16.9737 12.7765C16.9737 12.0261 16.3632 11.4156 15.6128 11.4156C14.964 11.4156 14.4024 11.8771 14.2775 12.513C14.2454 12.6765 14.3519 12.8351 14.5155 12.8673C14.679 12.8994 14.8376 12.7929 14.8697 12.6293C14.9392 12.2757 15.2517 12.0191 15.6129 12.0191C16.0305 12.0191 16.3703 12.3588 16.3703 12.7765C16.3703 13.1941 16.0305 13.5338 15.6129 13.5338C15.4462 13.5338 15.3111 13.6689 15.3111 13.8356C15.3111 14.0022 15.4462 14.1373 15.6129 14.1373C16.0305 14.1373 16.3703 14.4771 16.3703 14.8947C16.3703 15.3124 16.0305 15.6521 15.6129 15.6521C15.2371 15.6521 14.9146 15.3721 14.8628 15.0008C14.858 14.9659 14.8555 14.9302 14.8555 14.8947C14.8555 14.7281 14.7204 14.593 14.5537 14.593C14.387 14.593 14.252 14.7281 14.252 14.8947C14.252 14.9579 14.2563 15.0216 14.2651 15.0842C14.3583 15.752 14.9377 16.2556 15.6128 16.2556C16.3632 16.2556 16.9737 15.6451 16.9737 14.8947C16.9737 14.4672 16.7754 14.0853 16.4661 13.8356C16.7754 13.5859 16.9737 13.204 16.9737 12.7765Z" fill="url(#paint1_linear_1757_2495)"/>
<path d="M19.2928 9.67126H18.7093V1.30758C18.7093 0.586568 18.1228 -6.10352e-05 17.4017 -6.10352e-05H6.85736C6.69066 -6.10352e-05 6.55559 0.135049 6.55559 0.301703C6.55559 0.468357 6.69066 0.603466 6.85736 0.603466H17.4017C17.7899 0.603466 18.1058 0.919353 18.1058 1.30758V3.44254H0.603527V1.30758C0.603527 0.919353 0.919414 0.603466 1.30764 0.603466H5.44913C5.61582 0.603466 5.75089 0.468357 5.75089 0.301703C5.75089 0.135049 5.61582 -6.10352e-05 5.44913 -6.10352e-05H1.30764C0.586588 -6.10352e-05 0 0.586568 0 1.30758V15.8852C0 16.6062 0.586588 17.1929 1.30764 17.1929H12.3715C12.5684 17.6662 13.0355 17.9999 13.5794 17.9999H16.8231C16.9898 17.9999 17.1248 17.8648 17.1248 17.6982C17.1248 17.5315 16.9898 17.3964 16.8231 17.3964H13.5794C13.1911 17.3964 12.8752 17.0805 12.8752 16.6923V10.9789C12.8752 10.5907 13.1911 10.2748 13.5794 10.2748H19.2928C19.681 10.2748 19.9969 10.5907 19.9969 10.9789V16.6923C19.9969 17.0805 19.681 17.3964 19.2928 17.3964H18.2313C18.0646 17.3964 17.9295 17.5315 17.9295 17.6982C17.9295 17.8648 18.0646 17.9999 18.2313 17.9999H19.2928C20.0138 17.9999 20.6004 17.4133 20.6004 16.6923V10.9789C20.6004 10.2579 20.0138 9.67126 19.2928 9.67126ZM0.603527 15.8852V4.04607H18.1058V9.67126H17.4252V5.22958C17.4252 4.95224 17.1996 4.72664 16.9223 4.72664H1.78704C1.5097 4.72664 1.2841 4.95224 1.2841 5.22958V8.19487C1.2841 8.36153 1.41917 8.49664 1.58587 8.49664C1.75256 8.49664 1.88763 8.36153 1.88763 8.19487V5.33017H5.16849V15.3053H1.88763V9.60306C1.88763 9.43641 1.75256 9.3013 1.58587 9.3013C1.41917 9.3013 1.2841 9.43641 1.2841 9.60306V15.4058C1.2841 15.6832 1.5097 15.9088 1.78704 15.9088H12.2717V16.5893H1.30764C0.919414 16.5893 0.603527 16.2734 0.603527 15.8852ZM9.05291 15.3052H5.77201V13.2641H9.05291V15.3052ZM9.05291 7.37126H5.77201V5.33013H9.05291V7.37126ZM9.05291 7.97479V10.0159H5.77201V7.97479H9.05291ZM5.77201 10.6194H9.05291V12.6606H5.77201V10.6194ZM9.65644 13.2641H12.2717V15.3052H9.65644V13.2641ZM12.2717 10.9789V12.6606H9.65644V10.6195H12.3224C12.2896 10.7338 12.2717 10.8542 12.2717 10.9789ZM9.65644 5.33017H12.9373V7.3713H9.65644V5.33017ZM13.5409 5.33017H16.8217V7.3713H13.5409V5.33017ZM12.6958 10.0159H9.65644V7.97479H12.9373V9.84037C12.8501 9.88974 12.7691 9.9486 12.6958 10.0159ZM13.5409 9.67223V7.97483H16.8217V9.67126H13.5794C13.5664 9.67126 13.5537 9.67187 13.5409 9.67223Z" fill="url(#paint2_linear_1757_2495)"/>
<path d="M1.28516 2.02302C1.28516 2.50806 1.67974 2.90264 2.16474 2.90264C2.64973 2.90264 3.04436 2.50806 3.04436 2.02302C3.04436 1.53799 2.64973 1.1434 2.16474 1.1434C1.67974 1.1434 1.28516 1.53803 1.28516 2.02302ZM2.44087 2.02302C2.44087 2.17527 2.31703 2.29912 2.16478 2.29912C2.01257 2.29912 1.88872 2.17527 1.88872 2.02302C1.88872 1.87077 2.01257 1.74693 2.16478 1.74693C2.31703 1.74693 2.44087 1.87077 2.44087 2.02302Z" fill="url(#paint3_linear_1757_2495)"/>
<path d="M17.4252 2.02302C17.4252 1.53799 17.0306 1.1434 16.5456 1.1434C16.0606 1.1434 15.666 1.53799 15.666 2.02302C15.666 2.50806 16.0606 2.90264 16.5456 2.90264C17.0306 2.90264 17.4252 2.50806 17.4252 2.02302ZM16.2695 2.02302C16.2695 1.87077 16.3933 1.74693 16.5456 1.74693C16.6978 1.74693 16.8217 1.87077 16.8217 2.02302C16.8217 2.17527 16.6978 2.29912 16.5456 2.29912C16.3933 2.29912 16.2695 2.17527 16.2695 2.02302Z" fill="url(#paint4_linear_1757_2495)"/>
<defs>
<linearGradient id="paint0_linear_1757_2495" x1="17.875" y1="11.4643" x2="17.875" y2="16.207" gradientUnits="userSpaceOnUse">
<stop stop-color="#E527BB"/>
<stop offset="1" stop-color="#A78BEF"/>
</linearGradient>
<linearGradient id="paint1_linear_1757_2495" x1="15.6128" y1="11.4156" x2="15.6128" y2="16.2556" gradientUnits="userSpaceOnUse">
<stop stop-color="#E527BB"/>
<stop offset="1" stop-color="#A78BEF"/>
</linearGradient>
<linearGradient id="paint2_linear_1757_2495" x1="10.3002" y1="-6.10352e-05" x2="10.3002" y2="17.9999" gradientUnits="userSpaceOnUse">
<stop stop-color="#E527BB"/>
<stop offset="1" stop-color="#A78BEF"/>
</linearGradient>
<linearGradient id="paint3_linear_1757_2495" x1="2.16476" y1="1.1434" x2="2.16476" y2="2.90264" gradientUnits="userSpaceOnUse">
<stop stop-color="#E527BB"/>
<stop offset="1" stop-color="#A78BEF"/>
</linearGradient>
<linearGradient id="paint4_linear_1757_2495" x1="16.5456" y1="1.1434" x2="16.5456" y2="2.90264" gradientUnits="userSpaceOnUse">
<stop stop-color="#E527BB"/>
<stop offset="1" stop-color="#A78BEF"/>
</linearGradient>
</defs>
</svg>
