<svg width="21" height="20" viewBox="0 0 21 20" fill="none" xmlns="http://www.w3.org/2000/svg">
<g clip-path="url(#clip0_379_4167)">
<path d="M3.76251 15.4011H10.4008V13.262H3.76251V15.4011ZM7.08166 11.123H13.72V8.98394H7.08166V11.123ZM10.4008 6.84491H17.0391V4.70587H10.4008V6.84491ZM2.65613 19.6791C1.9923 19.6791 1.54974 19.4652 1.10719 19.0374C0.664636 18.6096 0.443359 18.0749 0.443359 17.5401V2.56683C0.443359 1.92512 0.664636 1.49731 1.10719 1.06951C1.54974 0.641699 2.10293 0.427795 2.65613 0.427795H18.1455C18.6987 0.427795 19.2519 0.641699 19.6944 1.06951C20.137 1.49731 20.3583 2.03207 20.3583 2.56683V17.5401C20.3583 18.0749 20.137 18.6096 19.6944 19.0374C19.2519 19.4652 18.6987 19.6791 18.1455 19.6791H2.65613ZM2.65613 17.5401H18.1455V2.56683H2.65613V17.5401Z" fill="url(#paint0_linear_379_4167)"/>
</g>
<defs>
<linearGradient id="paint0_linear_379_4167" x1="10.4008" y1="0.427795" x2="10.4008" y2="19.6791" gradientUnits="userSpaceOnUse">
<stop stop-color="#E527BB"/>
<stop offset="1" stop-color="#A78BEF"/>
</linearGradient>
<clipPath id="clip0_379_4167">
<rect width="20.8" height="20" fill="white"/>
</clipPath>
</defs>
</svg>
