<svg width="557" height="339" viewBox="0 0 557 339" fill="none" xmlns="http://www.w3.org/2000/svg">
<g clip-path="url(#clip0_1470_4195)">
<path opacity="0.2" d="M85.5617 333.34C48.2417 295.41 -2.76825 256.24 17.2317 197.07C30.3917 158.15 62.6417 147.31 89.4617 123.31C102.692 111.47 94.3717 94.2299 94.1217 77.1199C93.5618 33.2999 145.942 -0.700057 194.102 0.00994261C246.262 0.779943 268.842 49.7299 312.602 52.3599C329.782 52.6099 345.172 43.1899 360.372 35.7199C405.412 13.5599 476.892 27.6899 480.502 81.2699C481.432 110.21 446.152 156.76 481.502 171.98C509.672 184.11 538.132 188.58 543.212 231.96C549.862 288.74 514.722 319.9 468.952 334.52L85.5617 333.34Z" fill="#999999"/>
<path d="M174.348 134.51H150.023V163.672H174.348V134.51Z" fill="#8367E8"/>
<path d="M180.049 125.674H144.312V134.511H180.049V125.674Z" fill="#A78BEF"/>
<path d="M229.506 158.739L209.297 145.182L193.087 169.409L213.296 182.966L229.506 158.739Z" fill="#8367E8"/>
<path d="M239.151 154.577L209.461 134.66L204.549 142.001L234.239 161.918L239.151 154.577Z" fill="#A78BEF"/>
<path d="M111.072 182.968L131.281 169.411L115.071 145.184L94.8625 158.741L111.072 182.968Z" fill="#8367E8"/>
<path d="M90.1222 161.922L119.812 142.005L114.901 134.664L85.2105 154.581L90.1222 161.922Z" fill="#A78BEF"/>
<path d="M230.278 307.547C267.885 269.891 267.885 208.838 230.278 171.182C192.672 133.526 131.699 133.526 94.0927 171.182C56.4862 208.838 56.4862 269.891 94.0927 307.547C131.699 345.203 192.672 345.203 230.278 307.547Z" fill="#E527BB"/>
<path d="M162.185 322.741C208.17 322.741 245.449 285.414 245.449 239.368C245.449 193.323 208.17 155.995 162.185 155.995C116.2 155.995 78.9219 193.323 78.9219 239.368C78.9219 285.414 116.2 322.741 162.185 322.741Z" fill="white"/>
<path d="M162.189 170.137C164.383 170.137 166.162 168.355 166.162 166.158C166.162 163.96 164.383 162.179 162.189 162.179C159.994 162.179 158.215 163.96 158.215 166.158C158.215 168.355 159.994 170.137 162.189 170.137Z" fill="#998FB2"/>
<path d="M166.154 312.57C166.154 314.766 164.374 316.549 162.181 316.549C159.988 316.549 158.207 314.766 158.207 312.57C158.207 310.374 159.988 308.591 162.181 308.591C164.382 308.591 166.154 310.374 166.154 312.57Z" fill="#998FB2"/>
<path d="M235.29 243.347C237.485 243.347 239.264 241.566 239.264 239.368C239.264 237.171 237.485 235.389 235.29 235.389C233.095 235.389 231.316 237.171 231.316 239.368C231.316 241.566 233.095 243.347 235.29 243.347Z" fill="#998FB2"/>
<path d="M89.0714 243.347C91.266 243.347 93.0451 241.566 93.0451 239.368C93.0451 237.171 91.266 235.389 89.0714 235.389C86.8767 235.389 85.0977 237.171 85.0977 239.368C85.0977 241.566 86.8767 243.347 89.0714 243.347Z" fill="#998FB2"/>
<path d="M216.685 184.787L208.422 193.07" stroke="#3D4676" stroke-width="2" stroke-miterlimit="10" stroke-linecap="round"/>
<path d="M115.948 285.666L107.676 293.94" stroke="#3D4676" stroke-width="2" stroke-miterlimit="10" stroke-linecap="round"/>
<path d="M107.676 184.787L115.948 193.07" stroke="#3D4676" stroke-width="2" stroke-miterlimit="10" stroke-linecap="round"/>
<path d="M208.422 285.666L216.685 293.94" stroke="#3D4676" stroke-width="2" stroke-miterlimit="10" stroke-linecap="round"/>
<path d="M157.802 234.818L201.284 202.144L166.512 243.988C164.083 246.913 159.635 247.063 157.021 244.305C154.381 241.538 154.758 237.102 157.802 234.818Z" fill="#A78BEF"/>
<path opacity="0.2" d="M490.02 331H67.0195V338H490.02V331Z" fill="#999999"/>
<path d="M417.921 264.019H367.65C365.563 264.019 363.859 262.324 363.859 260.223V259.037C363.859 256.947 365.552 255.241 367.65 255.241H417.921C420.008 255.241 421.711 256.936 421.711 259.037V260.223C421.711 262.324 420.008 264.019 417.921 264.019Z" fill="#E527BB"/>
<path d="M372.649 264.019L362.383 331.357H365.35L379.238 264.019H372.649Z" fill="black"/>
<path d="M412.924 264.019L423.191 331.357H420.224L406.336 264.019H412.924Z" fill="black"/>
<path d="M366.097 144.74C366.097 146.615 364.585 148.129 362.713 148.129C360.84 148.129 359.328 146.615 359.328 144.74C359.328 142.865 360.84 141.351 362.713 141.351C364.585 141.351 366.097 142.865 366.097 144.74Z" fill="#F1AF8C"/>
<path d="M390.016 148.411L369.551 153.495L380.065 164.927L390.016 148.411Z" fill="#5E6886"/>
<path d="M386.417 140.108L388.651 150.67L416.573 159.176C421.108 160.555 424.537 164.305 425.508 168.959L436.259 218.472C437.173 222.821 433.856 226.899 429.422 226.899H338.707L348.939 170.337C349.797 166.203 352.64 162.746 356.521 161.108L379.761 151.269L381.295 140.085H386.417V140.108Z" fill="#F1AF8C"/>
<path opacity="0.5" d="M377.92 156.454C383.053 155.483 386.832 151.484 387.802 146.66L386.415 140.108H381.282L379.747 151.292L370.102 155.37C372.448 156.533 375.156 156.974 377.92 156.454Z" fill="#86473D"/>
<path d="M344.156 196.76H355.99L359.51 226.91H338.695L344.156 196.76Z" fill="#F1AF8C"/>
<path opacity="0.4" d="M354.377 196.76L351.703 226.91H359.51L355.99 196.76H354.377Z" fill="#63332B"/>
<path d="M368.624 156.002L380.063 164.926L391.288 151.484L417.529 159.482C421.545 160.702 424.727 163.797 426.069 167.784L435.591 196.139H411.358L416.018 215.241L374.298 217.082V226.91H359.519L355.999 196.749H339.957L346.038 171.252C346.985 167.265 349.772 163.978 353.54 162.385L368.624 156.002Z" fill="#A78BEF"/>
<path d="M410.289 191.462V215.489L416.009 215.241L410.289 191.462Z" fill="#A2B2E3"/>
<path d="M355.988 196.76H339.945L340.938 192.603H355.503L355.988 196.76Z" fill="#F6EEFF"/>
<path d="M380.062 164.927C380.762 169.219 381.337 173.534 381.89 177.85C382.454 182.165 382.905 186.48 383.424 190.795C383.853 195.122 384.316 199.448 384.699 203.775L385.241 210.27C385.376 212.439 385.557 214.608 385.669 216.789C385.308 214.642 385.015 212.485 384.688 210.338L383.831 203.877C383.278 199.561 382.815 195.246 382.296 190.931C381.879 186.604 381.394 182.289 381.021 177.951C380.649 173.602 380.288 169.276 380.062 164.927Z" fill="#1B1F2A"/>
<path d="M374.286 217.082L358.176 213.964L339.641 222.38H374.286V217.082Z" fill="#F1AF8C"/>
<path d="M341.389 213.964L304.566 217.929V226.91H338.693L341.389 213.964Z" fill="white" stroke="black" stroke-miterlimit="10"/>
<path d="M350.348 222.38H288.379L277.887 179.939H339.856L350.348 222.38Z" fill="#E527BB"/>
<path d="M384.554 222.38H288.379V226.91H384.554V222.38Z" fill="#D622B4"/>
<path d="M358.18 213.964C357.649 211.603 357.254 209.22 356.871 206.848C356.476 204.475 356.171 202.08 355.856 199.697C355.574 197.302 355.292 194.919 355.1 192.512L354.818 188.909C354.761 187.7 354.671 186.503 354.648 185.294C354.919 186.469 355.122 187.666 355.359 188.841L355.957 192.411C356.352 194.783 356.657 197.178 356.972 199.561C357.254 201.956 357.537 204.351 357.728 206.746C357.931 209.141 358.112 211.547 358.18 213.964Z" fill="#1B1F2A"/>
<path d="M380.065 164.926L375.608 170.462L368.625 156.002L369.55 153.494L380.065 164.926Z" fill="#8367E8"/>
<path d="M380.062 164.927L386.572 170.462L391.288 151.484L390.013 148.411L380.062 164.927Z" fill="#8367E8"/>
<path d="M410.289 191.462H434.014L435.594 196.139H411.35L410.289 191.462Z" fill="#F6EEFF"/>
<path d="M396.252 232.129L398.959 244.905C400.087 250.237 396.026 255.264 390.588 255.264H333.594L340.035 316.322H324.117L304.69 246.758C302.637 239.415 308.154 232.14 315.769 232.14H396.252V232.129Z" fill="#1C213B"/>
<path d="M422.943 232.129L425.651 244.905C426.779 250.237 422.717 255.264 417.28 255.264H360.285L366.727 316.322H350.809L331.382 246.758C329.328 239.415 334.845 232.14 342.46 232.14H422.943V232.129Z" fill="black"/>
<path d="M324.107 316.31L296.535 331.357H343.861L340.037 316.31H324.107Z" fill="#8367E8"/>
<path d="M350.799 316.31L323.227 331.357H370.553L366.728 316.31H350.799Z" fill="#A78BEF"/>
<path d="M390.656 137.747C390.656 139.622 389.144 141.136 387.26 141.136C387.012 141.136 386.764 141.114 386.538 141.057C386.504 140.741 386.448 140.413 386.392 140.108L385.41 134.9C385.94 134.55 386.572 134.347 387.249 134.347C389.144 134.347 390.656 135.872 390.656 137.747Z" fill="#F1AF8C"/>
<path d="M376.497 154.658C369.751 155.934 363.242 151.495 361.967 144.728L360.207 135.375C358.932 128.62 363.366 122.101 370.123 120.825C376.87 119.548 383.379 123.988 384.654 130.755L386.414 140.108C387.689 146.875 383.255 153.381 376.497 154.658Z" fill="#F1AF8C"/>
<path d="M386.135 138.64L382.864 133.206L382.21 128.461C382.21 128.461 376.072 132.302 367.024 129.84C367.024 129.84 365.05 134.008 360.21 135.386L361.463 137.747L361.97 144.74C361.97 144.74 357.74 137.984 357.085 133.68C356.431 129.377 357.965 122.926 361.339 120.927C361.339 120.927 368.299 110.941 379.773 117.391C391.257 123.853 386.135 138.64 386.135 138.64Z" fill="#1B1B1B"/>
<path d="M416.009 215.241C415.129 212.53 414.373 209.796 413.629 207.051C412.873 204.317 412.207 201.55 411.542 198.793C410.899 196.026 410.267 193.258 409.714 190.479L408.89 186.299C408.654 184.899 408.383 183.498 408.18 182.097C408.631 183.453 409.015 184.82 409.432 186.175L410.56 190.276C411.316 193.01 411.982 195.777 412.647 198.534C413.29 201.301 413.922 204.069 414.475 206.848C415.039 209.638 415.58 212.428 416.009 215.241Z" fill="#1B1F2A"/>
<path d="M468.466 226.91H243.5V232.118H468.466V226.91Z" fill="#7A7569"/>
<path d="M253.721 232.129L233.312 331.357H239.596L263.085 232.129H253.721Z" fill="black"/>
<path d="M451.429 232.129L470.112 331.357H464.369L442.855 232.129H451.429Z" fill="black"/>
<path d="M403.087 37.5701H357.035V96.0631H403.087V37.5701Z" fill="#E527BB"/>
<path d="M370.641 45.8167H363.59V52.8769H370.641V45.8167Z" fill="white"/>
<path d="M363.962 46.6412L367.155 49.6235L371.645 43.9866L367.155 51.7472L362.574 48.8215L363.962 46.6412Z" fill="#A78BEF"/>
<path d="M397.535 45.8167H374.645V47.0706H397.535V45.8167Z" fill="white"/>
<path d="M390.292 49.3523H374.645V50.6062H390.292V49.3523Z" fill="white"/>
<path d="M370.641 58.4121H363.59V65.4724H370.641V58.4121Z" fill="white"/>
<path d="M363.962 59.2367L367.155 62.219L371.645 56.582L367.155 64.3427L362.574 61.4056L363.962 59.2367Z" fill="#A78BEF"/>
<path d="M397.535 58.4121H374.645V59.666H397.535V58.4121Z" fill="white"/>
<path d="M390.292 61.9478H374.645V63.2017H390.292V61.9478Z" fill="white"/>
<path d="M370.641 71.0076H363.59V78.0679H370.641V71.0076Z" fill="white"/>
<path d="M363.962 71.8322L367.155 74.8144L371.645 69.1775L367.155 76.9382L362.574 74.0011L363.962 71.8322Z" fill="#A78BEF"/>
<path d="M397.535 71.0076H374.645V72.2615H397.535V71.0076Z" fill="white"/>
<path d="M390.292 74.532H374.645V75.7859H390.292V74.532Z" fill="white"/>
<path d="M289.934 117.854H281.383V141.012H289.934V117.854Z" fill="#A78BEF"/>
<path d="M302.458 112.33H293.906V141.023H302.458V112.33Z" fill="#E527BB"/>
<path d="M314.969 124.462H306.418V141.023H314.969V124.462Z" fill="#A78BEF"/>
<path d="M327.489 107.902H318.938V141.012H327.489V107.902Z" fill="#E527BB"/>
<path d="M277.738 103.485V141.023H331.394" stroke="#007CFF" stroke-miterlimit="10"/>
<path d="M501.461 310.797H496.023C496.023 310.797 469.06 255.241 476.37 246.667C485.802 235.608 498.053 267.17 501.461 310.797Z" fill="#39B039"/>
<path d="M499.746 310.797H498.854L481.718 254.552C481.65 254.326 481.774 254.089 482 254.021C482.225 253.954 482.462 254.078 482.53 254.304L499.746 310.797Z" fill="#00743B"/>
<path d="M504.664 310.797H510.102C510.102 310.797 537.065 255.241 529.754 246.667C520.323 235.608 508.06 267.17 504.664 310.797Z" fill="#39B039"/>
<path d="M506.379 310.797H507.27L524.407 254.552C524.475 254.326 524.35 254.089 524.125 254.021C523.899 253.954 523.662 254.078 523.595 254.304L506.379 310.797Z" fill="#00743B"/>
<path d="M506.276 310.797H501.459C490.809 259.726 495.063 216.946 505.848 224.967C516.633 232.987 506.276 310.797 506.276 310.797Z" fill="#39B039"/>
<path d="M503.457 235.36L502.881 310.797H502.035L502.61 235.36C502.61 235.122 502.802 234.942 503.039 234.942C503.265 234.93 503.457 235.122 503.457 235.36Z" fill="#00743B"/>
<path d="M527.655 310.21L526.955 312.085L526.515 313.271L525.24 316.671L524.789 317.858L523.481 321.348L523.041 322.534L517.411 337.502H486.657L481.028 322.534L480.588 321.348L479.279 317.858L478.828 316.671L477.553 313.271L477.113 312.085L476.414 310.21C475.929 308.922 476.876 307.555 478.241 307.555H525.85C527.192 307.566 528.14 308.933 527.655 310.21Z" fill="#E31E23"/>
<path d="M526.947 312.085L526.507 313.271H477.534L477.094 312.085H526.947Z" fill="white"/>
<path d="M525.232 316.672L524.781 317.858H479.26L478.809 316.672H525.232Z" fill="white"/>
<path d="M523.474 321.337L523.023 322.523H481.022L480.57 321.337H523.474Z" fill="white"/>
<path d="M450.125 138.341C450.202 137.654 450.242 136.956 450.242 136.25C450.242 135.877 450.23 135.507 450.208 135.139L446.755 134.021C446.543 132.565 446.125 131.175 445.533 129.881L447.822 127.062C447.293 126.129 446.686 125.247 446.009 124.424L442.555 125.552C441.548 124.523 440.399 123.636 439.136 122.922L439.333 119.291C438.369 118.852 437.361 118.493 436.319 118.222L434.186 121.167C433.355 121.027 432.502 120.953 431.631 120.953C431.037 120.953 430.452 120.988 429.875 121.054L427.901 118C426.844 118.215 425.818 118.52 424.834 118.907L424.838 122.543C423.538 123.19 422.343 124.015 421.285 124.989L417.897 123.68C417.178 124.468 416.524 125.316 415.947 126.219L418.084 129.156C417.423 130.419 416.932 131.785 416.643 133.225L413.137 134.159C413.06 134.845 413.02 135.543 413.02 136.25C413.02 136.623 413.032 136.993 413.053 137.36L416.506 138.478C416.719 139.935 417.137 141.325 417.729 142.618L415.439 145.438C415.968 146.37 416.576 147.253 417.253 148.075L420.706 146.948C421.713 147.977 422.863 148.864 424.125 149.578L423.929 153.208C424.892 153.647 425.9 154.007 426.943 154.277L429.075 151.333C429.906 151.472 430.76 151.547 431.631 151.547C432.224 151.547 432.81 151.512 433.386 151.446L435.36 154.499C436.418 154.284 437.443 153.979 438.428 153.592L438.423 149.956C439.724 149.31 440.919 148.484 441.976 147.51L445.364 148.819C446.083 148.031 446.737 147.183 447.314 146.28L445.176 143.343C445.838 142.08 446.329 140.714 446.618 139.274L450.125 138.341ZM431.631 143.554C427.599 143.554 424.331 140.284 424.331 136.25C424.331 132.216 427.599 128.945 431.631 128.945C435.663 128.945 438.931 132.215 438.931 136.25C438.931 140.284 435.662 143.554 431.631 143.554Z" fill="#E527BB"/>
<path d="M441.585 144.581C441.523 144.581 441.462 144.56 441.411 144.517C441.295 144.421 441.279 144.249 441.375 144.133C443.21 141.925 444.22 139.126 444.22 136.25C444.22 134.872 443.996 133.52 443.551 132.23C443.502 132.088 443.578 131.932 443.721 131.883C443.863 131.834 444.019 131.91 444.068 132.052C444.531 133.399 444.767 134.812 444.767 136.25C444.767 139.253 443.711 142.177 441.795 144.482C441.74 144.547 441.663 144.581 441.585 144.581Z" fill="white"/>
<path d="M440.529 127.34C440.462 127.34 440.395 127.315 440.342 127.266C439.11 126.104 437.682 125.224 436.098 124.649C435.956 124.597 435.883 124.441 435.934 124.299C435.986 124.157 436.142 124.083 436.284 124.135C437.938 124.736 439.429 125.655 440.717 126.868C440.826 126.971 440.832 127.144 440.728 127.254C440.675 127.311 440.602 127.34 440.529 127.34Z" fill="white"/>
<path d="M428.8 124.295C428.678 124.295 428.567 124.213 428.536 124.089C428.499 123.943 428.588 123.794 428.733 123.757C429.761 123.498 430.824 123.366 431.894 123.366C432.044 123.366 432.167 123.489 432.167 123.639C432.167 123.79 432.044 123.912 431.894 123.912C430.869 123.912 429.851 124.039 428.867 124.287C428.845 124.293 428.822 124.295 428.8 124.295Z" fill="white"/>
<path d="M461.243 152.351C461.243 152.209 461.239 152.069 461.232 151.929L463.02 150.484C462.88 149.764 462.66 149.072 462.37 148.418L460.062 148.242C459.537 147.409 458.858 146.684 458.064 146.109L458.056 143.794C457.413 143.455 456.728 143.186 456.009 143L454.431 144.709C454.159 144.679 453.883 144.664 453.603 144.664C452.908 144.664 452.235 144.758 451.594 144.933L449.785 143.491C449.103 143.789 448.461 144.165 447.872 144.607L448.214 146.902C447.54 147.577 446.99 148.379 446.603 149.268L444.352 149.793C444.162 150.492 444.048 151.223 444.02 151.976L446.002 153.129C446.102 154.139 446.398 155.091 446.849 155.947L445.857 158.039C446.283 158.625 446.772 159.161 447.315 159.636L449.441 158.798C450.276 159.345 451.225 159.733 452.243 159.917L453.245 161.992C453.364 161.997 453.484 162 453.605 162C454.205 162 454.793 161.944 455.363 161.838L456.039 159.64C457.023 159.307 457.917 158.778 458.676 158.099L460.91 158.604C461.368 158.063 461.768 157.47 462.1 156.835L460.805 154.922C461.089 154.117 461.243 153.252 461.243 152.351ZM453.52 155.738C451.743 155.738 450.302 154.288 450.302 152.5C450.302 150.712 451.742 149.262 453.52 149.262C455.296 149.262 456.738 150.711 456.738 152.5C456.737 154.288 455.296 155.738 453.52 155.738Z" fill="#A78BEF"/>
</g>
<defs>
<clipPath id="clip0_1470_4195">
<rect width="556.76" height="338.36" fill="white"/>
</clipPath>
</defs>
</svg>
