<svg width="543" height="329" viewBox="0 0 543 329" fill="none" xmlns="http://www.w3.org/2000/svg">
<g clip-path="url(#clip0_1827_12938)">
<path opacity="0.2" d="M78.788 327.839C41.4882 290.535 -9.49424 252.012 10.4949 193.818C23.6478 155.541 55.8804 144.88 82.6859 121.276C95.9087 109.631 87.5932 92.6757 87.3433 75.8481C86.7836 32.7513 139.135 -0.687543 187.269 0.010739C239.401 0.768031 261.969 48.9102 305.705 51.4968C322.876 51.7426 338.257 42.4781 353.449 35.1314C398.465 13.3371 469.906 27.2339 473.514 79.9296C474.444 108.392 439.183 154.174 474.514 169.143C502.668 181.072 531.113 185.469 536.19 228.133C542.837 283.976 507.716 314.621 461.971 329L78.788 327.839Z" fill="#999999"/>
<path d="M420.766 170.601C420.397 170.601 420.105 170.299 420.105 169.941V166.034C420.105 165.665 420.408 165.374 420.766 165.374C421.135 165.374 421.426 165.676 421.426 166.034V169.941C421.426 170.31 421.135 170.601 420.766 170.601Z" fill="#D1C0B2"/>
<path d="M420.766 177.81C420.397 177.81 420.105 177.508 420.105 177.15V173.243C420.105 172.874 420.408 172.583 420.766 172.583C421.135 172.583 421.426 172.885 421.426 173.243V177.15C421.426 177.519 421.135 177.81 420.766 177.81Z" fill="#D1C0B2"/>
<path d="M419.11 172.258H415.203C414.834 172.258 414.543 171.956 414.543 171.597C414.543 171.228 414.845 170.937 415.203 170.937H419.11C419.48 170.937 419.771 171.239 419.771 171.597C419.782 171.956 419.48 172.258 419.11 172.258Z" fill="#D1C0B2"/>
<path d="M426.321 172.258H422.414C422.045 172.258 421.754 171.956 421.754 171.597C421.754 171.228 422.056 170.937 422.414 170.937H426.321C426.691 170.937 426.982 171.239 426.982 171.597C426.993 171.956 426.691 172.258 426.321 172.258Z" fill="#D1C0B2"/>
<path d="M235.086 66.4038H277.267V153.81H235.086C232.097 153.81 229.668 151.381 229.668 148.392V71.8219C229.668 68.8218 232.097 66.4038 235.086 66.4038Z" fill="white"/>
<path d="M339.397 66.4038H278.645V153.81H339.397V66.4038Z" fill="white"/>
<path d="M324.182 139.582H296.084C295.591 139.582 295.199 139.19 295.199 138.697C295.199 138.205 295.591 137.813 296.084 137.813H324.182C324.674 137.813 325.066 138.205 325.066 138.697C325.066 139.19 324.674 139.582 324.182 139.582Z" fill="#F4EAE0"/>
<path d="M324.182 144.686H296.084C295.591 144.686 295.199 144.295 295.199 143.802C295.199 143.31 295.591 142.918 296.084 142.918H324.182C324.674 142.918 325.066 143.31 325.066 143.802C325.066 144.283 324.674 144.686 324.182 144.686Z" fill="#F4EAE0"/>
<path d="M390.263 71.8107V148.38C390.263 151.369 387.834 153.799 384.845 153.799H340.762V66.4038H384.845C387.845 66.4038 390.263 68.8218 390.263 71.8107Z" fill="white"/>
<g opacity="0.2">
<path d="M294.025 80.3424L292.621 96.6592L308.023 97.9841L309.427 81.6672L294.025 80.3424Z" fill="#272737"/>
</g>
<path d="M293.227 79.8921L291.902 95.2944L307.305 96.6193L308.63 81.217L293.227 79.8921Z" fill="#E527BB"/>
<g opacity="0.5">
<path d="M302.545 76.9436L299.969 76.7217L299.517 81.9636L302.094 82.1855L302.545 76.9436Z" fill="#D1C0B2"/>
</g>
<g opacity="0.2">
<path d="M327.176 111.818L311.773 113.143L313.177 129.46L328.579 128.135L327.176 111.818Z" fill="#272737"/>
</g>
<path d="M327.976 111.38L312.574 112.705L313.899 128.108L329.301 126.783L327.976 111.38Z" fill="#A78BEF"/>
<g opacity="0.5">
<path d="M319.123 113.656L321.699 113.434L321.248 108.192L318.672 108.414L319.123 113.656Z" fill="#D1C0B2"/>
</g>
<g opacity="0.2">
<path d="M241.72 109.998L240.316 126.315L255.719 127.64L257.122 111.323L241.72 109.998Z" fill="#272737"/>
</g>
<path d="M240.926 109.559L239.602 124.961L255.004 126.286L256.329 110.884L240.926 109.559Z" fill="#E527BB"/>
<g opacity="0.5">
<path d="M250.237 106.606L247.66 106.384L247.209 111.626L249.785 111.848L250.237 106.606Z" fill="#D1C0B2"/>
</g>
<g opacity="0.2">
<path d="M366.048 78.5279L364.645 94.8447L380.047 96.1696L381.45 79.8528L366.048 78.5279Z" fill="#272737"/>
</g>
<path d="M365.255 78.0882L363.93 93.4905L379.332 94.8154L380.657 79.4131L365.255 78.0882Z" fill="#A78BEF"/>
<g opacity="0.5">
<path d="M374.569 75.1328L371.992 74.9109L371.541 80.1528L374.117 80.3747L374.569 75.1328Z" fill="#D1C0B2"/>
</g>
<path d="M268.412 76.445H240.314C239.821 76.445 239.43 76.0532 239.43 75.5606C239.43 75.0681 239.821 74.6763 240.314 74.6763H268.412C268.905 74.6763 269.296 75.0681 269.296 75.5606C269.296 76.042 268.905 76.445 268.412 76.445Z" fill="#F4EAE0"/>
<path d="M268.412 81.5385H240.314C239.821 81.5385 239.43 81.1467 239.43 80.6541C239.43 80.1616 239.821 79.7698 240.314 79.7698H268.412C268.905 79.7698 269.296 80.1616 269.296 80.6541C269.296 81.1467 268.905 81.5385 268.412 81.5385Z" fill="#F4EAE0"/>
<path d="M268.412 86.6432H240.314C239.821 86.6432 239.43 86.2514 239.43 85.7589C239.43 85.2663 239.821 84.8745 240.314 84.8745H268.412C268.905 84.8745 269.296 85.2663 269.296 85.7589C269.296 86.2514 268.905 86.6432 268.412 86.6432Z" fill="#F4EAE0"/>
<path d="M268.412 91.7477H240.314C239.821 91.7477 239.43 91.3559 239.43 90.8634C239.43 90.3708 239.821 89.979 240.314 89.979H268.412C268.905 89.979 269.296 90.3708 269.296 90.8634C269.296 91.3559 268.905 91.7477 268.412 91.7477Z" fill="#F4EAE0"/>
<path d="M268.412 96.8525H240.314C239.821 96.8525 239.43 96.4606 239.43 95.9681C239.43 95.4755 239.821 95.0837 240.314 95.0837H268.412C268.905 95.0837 269.296 95.4755 269.296 95.9681C269.296 96.4495 268.905 96.8525 268.412 96.8525Z" fill="#F4EAE0"/>
<path d="M268.412 101.957H240.314C239.821 101.957 239.43 101.565 239.43 101.073C239.43 100.58 239.821 100.188 240.314 100.188H268.412C268.905 100.188 269.296 100.58 269.296 101.073C269.296 101.554 268.905 101.957 268.412 101.957Z" fill="#F4EAE0"/>
<path d="M379.564 112.301H351.466C350.974 112.301 350.582 111.909 350.582 111.416C350.582 110.924 350.974 110.532 351.466 110.532H379.564C380.057 110.532 380.449 110.924 380.449 111.416C380.449 111.909 380.057 112.301 379.564 112.301Z" fill="#F4EAE0"/>
<path d="M379.564 117.405H351.466C350.974 117.405 350.582 117.014 350.582 116.521C350.582 116.029 350.974 115.637 351.466 115.637H379.564C380.057 115.637 380.449 116.029 380.449 116.521C380.449 117.002 380.057 117.405 379.564 117.405Z" fill="#F4EAE0"/>
<path d="M379.564 122.51H351.466C350.974 122.51 350.582 122.118 350.582 121.626C350.582 121.133 350.974 120.741 351.466 120.741H379.564C380.057 120.741 380.449 121.133 380.449 121.626C380.449 122.107 380.057 122.51 379.564 122.51Z" fill="#F4EAE0"/>
<path d="M379.564 127.603H351.466C350.974 127.603 350.582 127.212 350.582 126.719C350.582 126.227 350.974 125.835 351.466 125.835H379.564C380.057 125.835 380.449 126.227 380.449 126.719C380.449 127.212 380.057 127.603 379.564 127.603Z" fill="#F4EAE0"/>
<path d="M379.564 132.708H351.466C350.974 132.708 350.582 132.316 350.582 131.824C350.582 131.331 350.974 130.939 351.466 130.939H379.564C380.057 130.939 380.449 131.331 380.449 131.824C380.449 132.316 380.057 132.708 379.564 132.708Z" fill="#F4EAE0"/>
<path d="M379.564 137.813H351.466C350.974 137.813 350.582 137.421 350.582 136.929C350.582 136.436 350.974 136.044 351.466 136.044H379.564C380.057 136.044 380.449 136.436 380.449 136.929C380.449 137.421 380.057 137.813 379.564 137.813Z" fill="#F4EAE0"/>
<path d="M175.442 103.536C175.386 100.457 181.89 97.3117 181.509 83.2403C181.341 77.1841 182.92 60.3701 195.401 60.2246C207.872 60.0679 216.178 69.4152 212.003 80.0835C208.096 90.0801 209.115 109.939 206.114 112.905L175.442 103.536Z" fill="#272737"/>
<path d="M211.5 106.256L212.395 108.316L213.302 110.409L215.104 114.607C216.313 117.406 217.522 120.193 218.731 122.947C219.347 124.324 219.952 125.701 220.579 127.055C221.194 128.421 221.832 129.764 222.47 131.085C223.109 132.417 223.769 133.705 224.429 134.97C225.09 136.223 225.784 137.421 226.444 138.462C226.769 138.977 227.105 139.447 227.362 139.783L227.452 139.906C227.486 139.951 227.508 139.973 227.53 140.007C227.586 140.085 227.62 140.108 227.642 140.153V140.164L227.62 140.141C227.586 140.108 227.541 140.074 227.508 140.052C227.43 139.996 227.362 139.94 227.295 139.895C227.217 139.85 227.161 139.806 227.094 139.772C227.027 139.727 226.971 139.705 226.915 139.671C226.691 139.559 226.523 139.503 226.411 139.47C226.187 139.414 226.165 139.447 226.232 139.459C226.299 139.481 226.456 139.503 226.646 139.526C227.038 139.559 227.597 139.548 228.18 139.503C229.366 139.414 230.732 139.212 232.098 138.955C233.475 138.697 234.896 138.384 236.329 138.037C239.195 137.343 242.105 136.559 245.027 135.731C246.494 135.317 247.96 134.902 249.415 134.477L253.804 133.223L253.86 133.212C255.908 132.619 258.057 133.805 258.64 135.865C259.132 137.578 258.382 139.347 256.938 140.231C256.569 140.455 256.244 140.656 255.886 140.858L254.845 141.462L252.762 142.627C251.363 143.377 249.953 144.115 248.52 144.821C245.654 146.22 242.732 147.541 239.687 148.716C238.165 149.298 236.598 149.858 234.975 150.362C233.34 150.854 231.672 151.313 229.792 151.638C228.84 151.795 227.855 151.94 226.691 151.974C226.109 151.996 225.493 151.985 224.788 151.918C224.082 151.851 223.299 151.728 222.336 151.425C221.855 151.269 221.329 151.067 220.769 150.754C220.623 150.675 220.489 150.597 220.343 150.507C220.198 150.418 220.052 150.328 219.907 150.216C219.761 150.116 219.616 150.004 219.459 149.881L219.235 149.69L219.112 149.578C218.866 149.354 218.597 149.119 218.396 148.907C218.284 148.795 218.172 148.683 218.071 148.582L217.78 148.269C217.019 147.44 216.403 146.679 215.843 145.929C214.724 144.44 213.806 142.985 212.922 141.541C212.048 140.108 211.242 138.664 210.47 137.231C209.698 135.798 208.97 134.365 208.254 132.921C207.548 131.477 206.854 130.044 206.194 128.6C204.862 125.712 203.608 122.801 202.432 119.88C201.85 118.413 201.257 116.947 200.708 115.469C200.429 114.73 200.149 113.991 199.891 113.241L199.499 112.122C199.365 111.741 199.242 111.383 199.108 110.969C197.943 107.487 199.813 103.726 203.283 102.562C206.563 101.454 210.101 103.065 211.478 106.166L211.5 106.256Z" fill="#FD9772"/>
<path d="M251.118 134.22C251.118 134.22 254.151 130.402 254.745 129.82C257.274 127.335 260.678 122.533 261.181 124.883C261.596 126.775 258.886 128.645 259.133 130.167C259.39 131.701 270.954 128.958 272.868 129.787C274.783 130.626 266.633 132.485 266.633 132.485C266.633 132.485 275.029 131.186 275.857 132.417C276.686 133.638 268.659 135.294 268.659 135.294C268.659 135.294 275.096 134.432 275.779 135.72C276.63 137.332 267.786 138.16 267.786 138.16C267.786 138.16 274.57 138.216 274.458 139.391C274.335 140.567 267.428 140.309 263.286 141.205C259.144 142.101 257.566 142.257 254.039 141.171C250.513 140.074 251.118 134.22 251.118 134.22Z" fill="#FD9772"/>
<path d="M265.939 132.764C266.812 134.712 266.89 136.828 266.174 138.843C266.04 139.223 265.424 139.089 265.558 138.697C266.241 136.783 266.163 134.813 265.334 132.955C265.178 132.585 265.782 132.395 265.939 132.764Z" fill="#C84D48"/>
<path d="M262.302 134.623C259.962 134.847 257.88 136.112 256.604 138.082C256.38 138.418 255.82 138.127 256.044 137.791C257.455 135.608 259.693 134.242 262.279 133.985C262.682 133.94 262.705 134.578 262.302 134.623Z" fill="#C84D48"/>
<path d="M227.027 139.268C225.84 140.153 224.878 141.261 224.15 142.548C223.948 142.907 224.486 143.242 224.676 142.895C225.381 141.653 226.31 140.601 227.452 139.739C227.777 139.492 227.352 139.033 227.027 139.268Z" fill="#C84D48"/>
<path d="M226.322 139.962C225.55 139.951 224.777 139.94 223.994 139.929C223.591 139.918 223.557 140.556 223.971 140.556C224.744 140.567 225.516 140.578 226.3 140.589C226.703 140.601 226.725 139.974 226.322 139.962Z" fill="#C84D48"/>
<path d="M222.942 301.968L223.972 314.271L214.848 314.416L212.777 302.595L222.942 301.968Z" fill="#FD9772"/>
<path d="M245.793 328.722L212.468 328.364C212.221 327.916 212.098 327.267 212.053 326.506C211.874 323.685 212.826 319.196 213.296 316.364C213.352 316.028 213.397 315.726 213.442 315.446C213.509 314.976 213.553 314.573 213.553 314.293C213.576 311.976 215.624 312.401 215.624 312.401C218.96 315.748 222.834 310.823 225.05 312.479C225.05 312.479 226.002 313.173 228.621 315.591C231.241 317.998 235.73 319.621 239.536 321.267C244.461 323.383 245.838 325.465 246.096 326.898C246.286 327.995 245.793 328.722 245.793 328.722Z" fill="#A78BEF"/>
<path d="M245.791 328.723L212.465 328.364C212.219 327.917 212.096 327.267 212.051 326.506L246.093 326.876C246.283 327.995 245.791 328.723 245.791 328.723Z" fill="#341E81"/>
<path d="M215.86 328.398L214.875 328.387C215.871 327.267 216.823 325.543 216.722 323.069C216.599 319.778 214.64 317.528 213.285 316.364C213.341 316.028 213.386 315.726 213.431 315.446C214.897 316.588 217.371 319.095 217.517 323.036C217.606 325.409 216.811 327.155 215.86 328.398Z" fill="#341E81"/>
<path d="M228.013 317.528C227.767 317.528 227.543 317.36 227.487 317.103C227.42 316.812 227.599 316.509 227.89 316.442L229.972 315.95C230.263 315.882 230.565 316.062 230.632 316.353C230.7 316.644 230.52 316.946 230.229 317.013L228.147 317.506C228.102 317.528 228.058 317.528 228.013 317.528Z" fill="white"/>
<path d="M225.732 315.714C225.485 315.714 225.261 315.546 225.206 315.289C225.138 314.998 225.317 314.696 225.609 314.628L227.691 314.136C227.982 314.069 228.284 314.248 228.351 314.539C228.418 314.83 228.239 315.132 227.948 315.199L225.866 315.692C225.821 315.703 225.776 315.714 225.732 315.714Z" fill="white"/>
<path d="M230.087 318.759C229.841 318.759 229.617 318.591 229.561 318.334C229.494 318.043 229.673 317.741 229.964 317.673L232.046 317.181C232.337 317.114 232.639 317.293 232.707 317.584C232.774 317.875 232.595 318.177 232.304 318.244L230.221 318.737C230.177 318.759 230.132 318.77 230.087 318.759Z" fill="white"/>
<path d="M232.157 319.946C231.911 319.946 231.687 319.778 231.631 319.521C231.564 319.23 231.743 318.927 232.034 318.86L234.116 318.368C234.408 318.3 234.71 318.48 234.777 318.771C234.844 319.062 234.665 319.364 234.374 319.431L232.292 319.924C232.247 319.946 232.202 319.946 232.157 319.946Z" fill="white"/>
<path d="M234.415 321.054C234.169 321.054 233.945 320.886 233.889 320.629C233.822 320.338 234.001 320.035 234.292 319.968L236.374 319.476C236.665 319.409 236.968 319.588 237.035 319.879C237.102 320.17 236.923 320.472 236.632 320.539L234.55 321.032C234.494 321.043 234.449 321.054 234.415 321.054Z" fill="white"/>
<path d="M236.868 321.995C236.622 321.995 236.398 321.827 236.342 321.569C236.275 321.278 236.454 320.976 236.745 320.909L238.827 320.416C239.118 320.349 239.421 320.528 239.488 320.819C239.555 321.11 239.376 321.412 239.085 321.48L237.003 321.972C236.947 321.995 236.902 321.995 236.868 321.995Z" fill="white"/>
<path d="M224.444 304.554L212.253 305.595C212.253 305.595 211.85 303.065 211.525 301.43C211.436 301.039 211.357 300.602 211.257 300.132C209.891 293.337 206.991 278.739 204.506 265.955C201.137 248.593 201.853 238.26 201.853 238.26C201.853 238.26 202.547 234.118 199.939 224.055C197.79 215.715 190.636 189.218 188.039 180.408C187.513 178.628 187.211 177.587 187.211 177.587C187.211 177.587 204.148 165.911 209.857 171.116C210.305 171.519 211.816 175.404 212.085 175.975C212.779 177.419 213.607 179.77 214.503 182.725C218.208 194.994 222.507 217.808 224.063 229.685C224.208 230.872 224.343 231.958 224.444 232.898C224.444 232.954 224.455 233.021 224.455 233.077C224.477 233.268 224.488 233.458 224.511 233.66C224.522 233.783 224.533 233.906 224.544 234.029C225.496 246.32 224.611 286.464 224.309 299.102C224.298 299.527 224.287 299.919 224.276 300.277C224.264 301.99 224.444 304.554 224.444 304.554Z" fill="#272737"/>
<path d="M224.566 234.04C223.928 234.163 223.29 234.253 222.652 234.32C220.054 234.6 217.737 234.466 217.569 234.466C217.312 234.443 217.11 234.23 217.122 233.962C217.133 233.704 217.357 233.503 217.625 233.514C217.67 233.514 221.263 233.716 224.465 233.089C224.487 233.279 224.499 233.469 224.521 233.671C224.543 233.794 224.555 233.917 224.566 234.04Z" fill="#5F5F77"/>
<path d="M212.933 300.882C212.709 300.915 212.508 300.77 212.485 300.546C212.44 300.221 207.783 268.317 206.104 258.735C204.694 250.653 204.212 234.801 204.179 233.861C200.362 218.648 190.298 179.848 190.197 179.467C190.141 179.255 190.264 179.042 190.477 178.986C190.69 178.93 190.902 179.053 190.958 179.266C191.059 179.658 201.145 218.525 204.951 233.715C204.963 233.738 204.963 233.771 204.963 233.805C204.963 233.973 205.444 250.384 206.877 258.612C208.545 268.205 213.213 300.121 213.258 300.445C213.291 300.647 213.146 300.848 212.933 300.882Z" fill="#5F5F77"/>
<path d="M180.043 303.826L179.596 314.271L168.961 314.472L169.733 304.655L180.043 303.826Z" fill="#FD9772"/>
<path d="M166.552 326.26C166.552 326.338 166.552 326.428 166.552 326.506C166.564 326.875 166.575 327.2 166.586 327.48C166.62 328.107 166.664 328.487 166.664 328.487H187.296C187.296 328.487 187.396 327.693 187.318 326.506C187.184 324.402 186.478 321.066 183.635 318.871C179.739 315.86 181.239 316.487 180.445 315.11C180.355 314.953 179.65 312.625 179.583 312.457C178.911 311.024 178.295 310.353 174.601 310.353C169.698 310.353 169.261 312.737 168.746 313.98C168.534 314.494 168.232 315.592 167.929 316.89C167.806 317.416 167.683 317.965 167.56 318.536C167.258 319.957 166.978 321.446 166.787 322.622C166.586 323.898 166.541 325.208 166.552 326.26Z" fill="#A78BEF"/>
<path d="M166.551 326.26C166.551 326.338 166.551 326.428 166.551 326.506C166.562 326.876 166.573 327.2 166.584 327.48C167.592 326.775 168.308 325.846 168.734 324.704C170.01 321.222 168.051 317.058 167.961 316.879L167.916 316.901C167.793 317.427 167.67 317.976 167.547 318.547C168.017 319.969 168.543 322.353 167.805 324.379C167.547 325.107 167.122 325.734 166.551 326.26Z" fill="#341E81"/>
<path d="M166.566 326.506C166.589 327.682 166.69 328.488 166.69 328.488H187.321C187.321 328.488 187.422 327.693 187.343 326.506H166.566Z" fill="#341E81"/>
<path d="M173.928 316.79C173.973 316.79 174.029 316.778 174.073 316.767C176.693 316.084 178.831 316.666 178.853 316.666C179.167 316.756 179.491 316.566 179.581 316.252C179.671 315.939 179.48 315.614 179.167 315.525C179.066 315.502 176.704 314.864 173.771 315.614C173.458 315.693 173.267 316.017 173.346 316.331C173.424 316.61 173.659 316.79 173.928 316.79Z" fill="white"/>
<path d="M173.584 314.405C173.629 314.405 173.685 314.394 173.73 314.382C176.349 313.7 178.487 314.282 178.51 314.282C178.823 314.371 179.148 314.181 179.237 313.868C179.327 313.554 179.137 313.229 178.823 313.14C178.722 313.117 176.36 312.479 173.427 313.229C173.114 313.308 172.924 313.632 173.002 313.946C173.092 314.226 173.327 314.405 173.584 314.405Z" fill="white"/>
<path d="M174.815 318.648C174.859 318.648 174.915 318.637 174.96 318.625C177.568 317.954 179.729 318.525 179.74 318.525C180.054 318.614 180.378 318.424 180.468 318.11C180.557 317.797 180.367 317.472 180.054 317.383C179.953 317.36 177.591 316.722 174.658 317.472C174.344 317.551 174.154 317.875 174.232 318.189C174.311 318.469 174.546 318.648 174.815 318.648Z" fill="white"/>
<path d="M175.846 320.763C175.891 320.763 175.947 320.752 175.991 320.741C178.6 320.069 180.76 320.64 180.771 320.64C181.085 320.73 181.409 320.539 181.499 320.226C181.589 319.912 181.398 319.588 181.085 319.498C180.984 319.476 178.622 318.838 175.689 319.588C175.376 319.666 175.185 319.991 175.264 320.304C175.342 320.595 175.588 320.763 175.846 320.763Z" fill="white"/>
<path d="M191.451 185.882C190.891 186.027 190.331 186.162 189.772 186.285C182.562 187.93 174.995 188.602 169.7 187.337C167.081 186.71 165.413 183.508 164.349 179.937C164.058 178.964 163.812 177.956 163.61 176.971C162.715 172.706 162.547 168.754 162.547 168.754L204.392 158.478C204.392 158.478 205.69 160.862 207.123 163.974C208.164 166.224 209.284 168.855 210.034 171.239C210.034 171.239 210.034 171.239 210.034 171.251C210.481 172.672 210.806 174.004 210.896 175.113C211.209 178.65 201.94 183.24 191.451 185.882Z" fill="#272737"/>
<path d="M191.923 233.906C191.923 233.995 191.923 234.074 191.923 234.163C191.912 234.398 191.912 234.633 191.901 234.868C191.867 235.786 191.845 236.637 191.8 237.398C191.789 237.633 191.767 237.891 191.756 238.16C190.905 250.003 183.684 290.214 181.389 302.774C181.311 303.199 181.244 303.58 181.177 303.938C180.863 305.617 180.695 306.557 180.695 306.557L168.494 305.684C168.494 305.684 168.449 304.744 168.382 303.065C168.359 302.662 168.348 302.214 168.326 301.744C168.035 294.814 166.792 279.96 166.96 266.929C167.195 249.119 169.523 235.025 169.523 235.025C169.523 235.025 169.344 232.249 168.337 221.905C167.508 213.33 165.18 188.971 163.982 179.87C163.736 178.034 163.602 176.949 163.602 176.949C163.602 176.949 182.755 171.564 187.58 177.598C187.961 178.068 188.252 178.617 188.431 179.221C188.89 180.755 189.349 183.206 189.763 186.262C191.509 198.89 192.214 221.861 191.923 233.906Z" fill="#272737"/>
<path d="M191.921 233.906C191.921 233.995 191.921 234.074 191.921 234.163C191.91 234.398 191.91 234.633 191.899 234.868C191.317 234.947 190.724 234.992 190.153 235.014C187.544 235.137 185.238 234.868 185.07 234.846C184.813 234.812 184.623 234.577 184.656 234.32C184.69 234.062 184.925 233.872 185.182 233.906C185.227 233.906 188.72 234.309 191.921 233.906Z" fill="#5F5F77"/>
<path d="M181.384 302.785C181.305 303.199 181.238 303.591 181.171 303.938L168.365 303.076C168.353 302.673 168.331 302.236 168.309 301.755L181.384 302.785Z" fill="#5F5F77"/>
<path d="M168.21 193.987C168.031 193.987 167.874 193.864 167.829 193.684C167.785 193.472 167.908 193.27 168.121 193.225C168.154 193.214 170.348 192.688 172.598 190.841C175.61 188.367 177.266 184.83 177.546 180.329C177.557 180.117 177.748 179.949 177.96 179.971C178.173 179.982 178.33 180.173 178.319 180.385C177.96 186.285 175.263 189.666 173.057 191.468C170.673 193.416 168.389 193.964 168.3 193.987C168.266 193.987 168.232 193.987 168.21 193.987Z" fill="#5F5F77"/>
<path d="M169.845 302.762C169.621 302.762 169.453 302.583 169.453 302.359C169.453 302.035 169.811 269.784 169.644 260.067C169.509 251.873 171.491 236.133 171.603 235.193C170.192 219.566 166.274 179.68 166.24 179.288C166.218 179.075 166.375 178.874 166.599 178.851C166.811 178.829 167.013 178.986 167.035 179.21C167.08 179.613 170.998 219.566 172.397 235.171C172.397 235.204 172.397 235.227 172.397 235.26C172.375 235.428 170.293 251.716 170.438 260.067C170.595 269.795 170.248 302.057 170.248 302.382C170.248 302.583 170.069 302.762 169.845 302.762Z" fill="#5F5F77"/>
<path d="M224.329 299.113C224.318 299.539 224.307 299.93 224.295 300.289L211.511 301.431C211.433 301.039 211.343 300.602 211.254 300.132L224.329 299.113Z" fill="#5F5F77"/>
<path d="M191.461 185.96C191.315 185.949 191.192 185.848 191.136 185.714C191.058 185.512 191.158 185.277 191.36 185.199C191.427 185.176 195.826 183.397 197.203 178.594C197.259 178.381 197.483 178.258 197.696 178.326C197.909 178.381 198.032 178.605 197.965 178.818C196.476 184.012 191.841 185.871 191.651 185.938C191.595 185.96 191.528 185.96 191.461 185.96Z" fill="#5F5F77"/>
<path d="M207.66 137.925C207.526 138.07 207.403 138.216 207.268 138.361C207.246 138.395 207.212 138.417 207.19 138.451C206.697 139.044 206.261 139.884 205.891 140.869C205.813 141.082 205.735 141.294 205.667 141.507C205.22 142.839 204.873 144.373 204.604 145.884C204.57 146.086 204.537 146.276 204.503 146.477C204.067 149.164 203.876 151.716 203.887 152.914C203.899 154.28 204.772 155.813 205.6 157.381C205.69 157.56 205.791 157.739 205.88 157.918C206.529 159.183 207.067 160.459 207.022 161.646C206.899 164.478 200.361 172.784 189.637 176.501C178.913 180.217 162.602 180.598 161.595 173.232C160.576 165.855 160.979 146.041 161.685 138.048C162.547 128.275 163.42 120.54 166.252 110.79C169.084 101.039 169.756 101.633 172.308 99.7519C173.461 98.9011 175.207 98.263 177.211 97.7704C177.401 97.7257 177.603 97.6809 177.793 97.6361C181.062 96.9085 184.857 96.5503 187.734 96.3935C187.935 96.3823 188.137 96.3712 188.327 96.36C190.622 96.2368 192.2 96.2368 192.2 96.2368C192.2 96.2368 199.902 99.6623 204.458 101.453C204.66 101.532 204.85 101.599 205.029 101.677C205.511 101.856 205.947 102.024 206.317 102.147C209.944 103.401 210 105.718 210.682 110.006C210.727 110.263 210.761 110.521 210.817 110.801C210.817 110.812 210.817 110.823 210.828 110.834C211.634 115.626 211.007 119.42 211.981 124.48C213.38 131.656 210.145 135.137 207.66 137.925Z" fill="#A78BEF"/>
<path d="M174.415 169.236C174.247 169.236 174.079 169.224 173.911 169.213C171.65 169.034 169.5 167.534 168.582 165.485C167.922 164.008 168.045 162.485 168.941 161.299C170.105 159.754 170.206 157.47 169.176 155.869C168.582 154.94 168.616 153.798 169.265 152.892C169.926 151.974 171.012 151.571 172.097 151.839C173.15 152.097 174.056 152.757 174.773 153.776C176.351 156.026 175.433 157.75 174.773 159.004C174.392 159.709 174.079 160.314 174.258 160.817C174.426 161.265 174.997 161.691 176.016 162.094C178.254 162.989 179.351 164.534 178.96 166.213C178.59 167.736 176.9 169.236 174.415 169.236ZM171.426 152.354C170.665 152.354 170.071 152.78 169.747 153.239C169.355 153.787 169.131 154.683 169.679 155.545C170.844 157.347 170.732 159.922 169.422 161.657C168.65 162.676 168.549 163.941 169.131 165.239C169.948 167.064 171.941 168.463 173.967 168.62C176.318 168.799 178.053 167.478 178.378 166.079C178.702 164.713 177.728 163.426 175.792 162.653C174.594 162.172 173.922 161.657 173.698 161.03C173.43 160.28 173.821 159.53 174.247 158.735C174.907 157.493 175.668 156.071 174.292 154.123C173.653 153.228 172.87 152.657 171.963 152.422C171.773 152.377 171.594 152.354 171.426 152.354Z" fill="#8367E8"/>
<path d="M200.914 132.652C199.392 132.652 198.205 131.947 197.701 130.727C197.41 130.021 197.388 129.395 197.634 128.88C198.127 127.85 199.515 127.424 200.981 126.977C202.325 126.562 203.702 126.148 204.161 125.275C204.653 124.335 204.161 123.07 203.724 121.939C203.321 120.898 202.985 120.014 203.399 119.409C203.646 119.04 204.127 118.872 204.877 118.872C205.761 118.872 206.5 119.174 207.093 119.767C208.538 121.234 208.515 123.965 208.515 124.077C208.515 124.088 208.515 124.088 208.515 124.1C208.034 129.316 204.642 132.16 201.698 132.596C201.429 132.63 201.172 132.652 200.914 132.652ZM204.877 119.454C204.351 119.454 204.015 119.555 203.892 119.734C203.657 120.081 203.97 120.909 204.284 121.715C204.765 122.958 205.302 124.357 204.687 125.533C204.116 126.618 202.616 127.077 201.16 127.525C199.873 127.917 198.552 128.32 198.171 129.115C197.992 129.484 198.026 129.932 198.25 130.492C198.731 131.656 200.019 132.238 201.608 132.003C204.328 131.6 207.452 128.936 207.911 124.055C207.911 123.876 207.888 121.424 206.657 120.182C206.198 119.7 205.593 119.454 204.877 119.454Z" fill="#8367E8"/>
<path d="M188.565 131.029C187.904 131.029 187.345 130.671 186.998 130.01C186.158 128.398 186.785 125.499 189.035 123.898C190.714 122.7 190.233 121.211 189.774 119.767C189.404 118.614 189.013 117.417 190.289 116.879C192.74 115.849 195.74 118.39 195.864 118.502L195.875 118.514C197.431 119.969 199.323 122.835 198.696 124.212C198.517 124.603 198.058 125.051 196.893 124.939C195.158 124.771 193.815 126.417 192.516 128.006C191.486 129.271 190.513 130.458 189.315 130.895C189.046 130.984 188.8 131.029 188.565 131.029ZM191.531 117.226C191.184 117.226 190.837 117.282 190.501 117.428C189.796 117.719 189.908 118.278 190.322 119.588C190.781 120.999 191.408 122.935 189.371 124.391C187.188 125.947 186.886 128.544 187.524 129.742C187.759 130.189 188.218 130.66 189.102 130.335C190.154 129.954 191.072 128.824 192.046 127.626C193.446 125.913 194.878 124.144 196.949 124.346C197.599 124.413 198.013 124.279 198.147 123.965C198.584 123.003 197.039 120.439 195.461 118.95C195.349 118.849 193.39 117.226 191.531 117.226Z" fill="#8367E8"/>
<path d="M181.749 145.895C181.66 145.895 181.57 145.895 181.492 145.884C179.622 145.671 178.637 144.261 178.649 143.041C178.671 141.91 179.578 140.5 182.096 140.298C184.391 140.108 184.671 139.156 185.063 137.835C185.376 136.772 185.768 135.462 187.347 134.376C188.197 133.794 189.138 133.649 190.156 133.94C191.656 134.376 192.731 135.608 192.977 137.164C193.235 138.765 192.552 140.332 191.22 141.227C186.619 144.328 183.44 145.895 181.749 145.895ZM189.16 134.387C188.634 134.387 188.153 134.544 187.682 134.869C186.283 135.832 185.947 136.94 185.634 138.003C185.231 139.369 184.839 140.668 182.141 140.891C180.025 141.071 179.253 142.123 179.242 143.052C179.231 144.015 180.037 145.123 181.548 145.291C182.97 145.448 186.272 143.836 190.873 140.735C192.015 139.962 192.597 138.63 192.384 137.253C192.171 135.91 191.276 134.88 189.988 134.511C189.697 134.421 189.429 134.387 189.16 134.387Z" fill="#8367E8"/>
<path d="M206.051 136.962C205.424 137.085 204.652 137.231 203.398 135.955C201.809 134.332 200.141 134.477 199.256 135.294C198.529 135.966 198.45 136.962 199.066 137.667C199.514 138.171 200.353 138.641 201.238 139.145C201.685 139.391 202.167 139.66 202.615 139.951C203.062 140.242 203.488 140.544 203.835 140.88C204.283 141.306 204.853 141.53 205.447 141.53C205.525 141.53 205.604 141.53 205.671 141.518C205.749 141.294 205.816 141.082 205.895 140.88C205.301 141.037 204.686 140.88 204.238 140.455C203.488 139.738 202.447 139.156 201.518 138.641C200.678 138.171 199.883 137.723 199.503 137.287C199.032 136.761 199.256 136.111 199.648 135.742C200.342 135.093 201.641 135.037 202.962 136.38C204.439 137.88 205.469 137.69 206.152 137.556C206.712 137.444 206.88 137.41 207.16 138.328C207.171 138.373 207.182 138.417 207.193 138.462C207.216 138.429 207.238 138.406 207.271 138.373C207.395 138.227 207.529 138.082 207.663 137.936C207.271 136.817 206.745 136.828 206.051 136.962Z" fill="#8367E8"/>
<path d="M210.838 110.823C209.887 110.331 209.182 108.931 208.487 107.42C207.816 105.943 207.234 106.054 206.439 106.222C205.745 106.357 204.883 106.536 203.999 105.551C202.924 104.353 203.629 102.685 204.469 101.442C204.67 101.521 204.861 101.588 205.04 101.666C204.278 102.752 203.596 104.207 204.446 105.159C205.107 105.887 205.667 105.775 206.327 105.64C207.189 105.461 208.163 105.271 209.036 107.174C209.551 108.305 210.099 109.413 210.704 109.995C210.749 110.252 210.782 110.51 210.838 110.79C210.827 110.801 210.838 110.812 210.838 110.823Z" fill="#8367E8"/>
<path d="M195.794 109.771C194.686 109.771 193.376 109.178 192.469 107.789C191.551 106.401 190.208 106.401 189.021 106.39C187.902 106.39 186.749 106.379 186.715 104.901C186.693 103.894 187.32 103.043 188.518 102.439C189.962 101.711 191.686 101.655 193.253 102.282C195.145 103.043 197.507 104.398 198.044 106.513C198.47 108.181 197.708 109.178 196.858 109.558C196.544 109.704 196.186 109.771 195.794 109.771ZM191.036 102.45C190.253 102.45 189.48 102.629 188.786 102.976C187.79 103.48 187.298 104.129 187.32 104.901C187.331 105.73 187.757 105.797 189.033 105.808C190.242 105.808 191.887 105.819 192.984 107.476C194.037 109.066 195.649 109.457 196.634 109.021C197.462 108.663 197.764 107.801 197.484 106.67C197.014 104.789 194.809 103.558 193.051 102.842C192.38 102.573 191.708 102.45 191.036 102.45Z" fill="#8367E8"/>
<path d="M188.315 97.043C188.114 98.3751 186.983 99.3042 185.293 99.5281C183.714 99.7296 183.524 100.334 183.311 100.972C183.11 101.577 182.897 102.26 181.52 102.26C181.431 102.26 181.319 102.26 181.218 102.248C179.102 102.114 177.826 99.4945 177.199 97.7706C177.39 97.7258 177.591 97.681 177.781 97.6363C178.363 99.2259 179.505 101.543 181.252 101.655C182.427 101.733 182.55 101.375 182.74 100.793C182.964 100.121 183.255 99.2035 185.214 98.946C186.625 98.7557 187.565 98.0169 187.733 96.9646C187.767 96.7743 187.767 96.584 187.744 96.3937C187.946 96.3825 188.147 96.3713 188.338 96.3601C188.36 96.5728 188.349 96.8079 188.315 97.043Z" fill="#8367E8"/>
<path d="M205.602 157.381C205.132 157.638 204.639 157.739 204.281 157.784C202.68 157.974 200.867 157.28 200.307 156.284C200.05 155.814 200.106 155.332 200.486 154.851C203.072 151.571 202.524 150.239 202.087 149.153C201.852 148.593 201.695 148.19 201.975 147.552L202.009 147.485C202.345 146.78 203.016 146.354 203.8 146.343H203.811C204.057 146.343 204.281 146.388 204.505 146.455C204.539 146.253 204.572 146.063 204.606 145.862C204.348 145.783 204.08 145.739 203.8 145.739C202.792 145.75 201.897 146.309 201.471 147.216L201.438 147.295C201.046 148.157 201.292 148.772 201.539 149.366C201.942 150.351 202.401 151.459 200.016 154.459C199.49 155.131 199.412 155.869 199.792 156.552C200.397 157.627 202.087 158.388 203.744 158.388C203.945 158.388 204.158 158.377 204.36 158.355C204.93 158.287 205.445 158.131 205.882 157.896C205.792 157.739 205.703 157.56 205.602 157.381Z" fill="#8367E8"/>
<path d="M187.711 167.758C186.065 167.758 184.643 167.389 183.793 166.784C183.02 166.236 182.74 165.519 183.02 164.78C183.826 162.586 185.83 162.866 187.61 163.112C188.483 163.236 189.39 163.359 190.129 163.202C190.957 163.023 191.058 162.262 191.136 161.03C191.214 159.821 191.304 158.31 193.061 158.265C193.912 158.243 194.662 158.579 195.289 159.262C196.039 160.09 196.409 161.165 196.33 162.295C196.252 163.459 195.681 164.545 194.785 165.284C192.636 167.064 189.972 167.758 187.711 167.758ZM185.819 163.538C184.811 163.538 184.005 163.84 183.58 164.982C183.401 165.463 183.591 165.9 184.14 166.292C185.987 167.613 190.912 167.691 194.394 164.836C195.166 164.198 195.659 163.258 195.726 162.262C195.793 161.299 195.479 160.37 194.841 159.665C194.338 159.116 193.744 158.836 193.073 158.859C191.92 158.892 191.808 159.72 191.718 161.064C191.651 162.206 191.561 163.493 190.24 163.784C189.401 163.963 188.449 163.829 187.52 163.706C186.927 163.627 186.345 163.538 185.819 163.538Z" fill="#8367E8"/>
<path d="M175.468 137.835C173.52 137.835 171.471 136.861 170.542 135.35C170.453 135.205 170.497 135.025 170.643 134.936C170.788 134.846 170.968 134.891 171.057 135.037C172.098 136.738 174.886 137.69 176.901 137.018C178.625 136.447 179.464 134.824 179.251 132.451C178.927 128.723 180.08 127.671 181.188 126.652C182.117 125.801 183.002 125.006 183.024 122.499C183.08 117.215 178.513 116.947 178.322 116.935C178.154 116.924 178.031 116.79 178.042 116.622C178.054 116.454 178.188 116.331 178.356 116.342C178.412 116.342 183.684 116.633 183.628 122.499C183.606 125.264 182.587 126.193 181.602 127.089C180.55 128.051 179.554 128.958 179.856 132.395C180.181 136.011 178.266 137.197 177.102 137.589C176.565 137.757 176.016 137.835 175.468 137.835Z" fill="#8367E8"/>
<path d="M208.232 136.179C208.109 136.167 207.997 136.111 207.918 136.011C207.773 135.82 207.806 135.541 207.997 135.395C213.359 131.219 212.519 125.544 211.534 122.533C210.056 117.988 210.415 113.678 210.437 113.499C210.459 113.252 210.672 113.085 210.907 113.096C211.154 113.118 211.333 113.331 211.31 113.577C211.31 113.622 210.952 117.898 212.374 122.264C213.426 125.499 214.322 131.589 208.534 136.1C208.456 136.156 208.344 136.19 208.232 136.179Z" fill="#8367E8"/>
<path d="M173.733 175.247C163.882 175.247 161.408 170.792 161.285 170.568C161.173 170.355 161.251 170.087 161.475 169.975C161.688 169.863 161.957 169.941 162.069 170.154C162.091 170.187 162.953 171.732 165.673 172.93C168.226 174.049 172.972 175.102 181.077 173.669C196.76 170.915 204.518 160.258 204.585 160.146C204.73 159.944 204.999 159.9 205.201 160.045C205.402 160.191 205.447 160.459 205.301 160.661C205.223 160.773 203.275 163.471 199.335 166.549C195.697 169.381 189.607 173.075 181.222 174.542C178.345 175.034 175.86 175.247 173.733 175.247Z" fill="#8367E8"/>
<path d="M196.006 112.871C196.174 112.927 196.342 112.961 196.509 112.995C198.099 113.274 199.431 112.927 200.483 111.976C203.54 109.2 203.047 102.17 203.025 101.867C203.002 101.632 202.801 101.453 202.566 101.476C202.331 101.498 202.151 101.699 202.174 101.935C202.174 102.002 202.666 108.841 199.913 111.338C199.062 112.11 197.998 112.379 196.666 112.144C191.103 111.17 186.155 96.3709 186.099 96.2142C186.02 95.9903 185.785 95.8672 185.55 95.9455C185.326 96.0239 185.203 96.259 185.281 96.4941C185.472 97.0986 190.173 111.125 196.006 112.871Z" fill="white"/>
<path d="M199.905 115.066C199.166 115.066 198.36 115.032 197.498 114.943C192.964 114.484 184.826 108.909 184.479 108.674C184.3 108.551 184.255 108.304 184.378 108.125C184.501 107.946 184.747 107.901 184.927 108.025C185.005 108.081 193.233 113.723 197.565 114.159C205.692 114.976 207.987 111.349 208.009 111.316C208.121 111.125 208.368 111.069 208.547 111.181C208.737 111.293 208.793 111.528 208.681 111.719C208.614 111.864 206.633 115.066 199.905 115.066Z" fill="#8367E8"/>
<path d="M176.778 153.53C176.655 153.53 176.543 153.474 176.465 153.373C176.331 153.205 176.364 152.948 176.543 152.824C185.432 146.063 202.873 142.022 203.052 141.977C203.264 141.932 203.477 142.067 203.522 142.279C203.567 142.492 203.432 142.705 203.22 142.75C203.052 142.794 185.767 146.791 177.013 153.451C176.946 153.507 176.857 153.53 176.778 153.53Z" fill="#8367E8"/>
<path d="M186.73 158.69C186.662 158.69 186.595 158.679 186.539 158.646C186.349 158.545 186.282 158.299 186.383 158.108C190.435 150.742 197.017 148.481 197.297 148.392C197.499 148.324 197.723 148.436 197.801 148.638C197.868 148.839 197.756 149.063 197.555 149.142C197.487 149.164 190.972 151.403 187.077 158.489C186.998 158.623 186.864 158.69 186.73 158.69Z" fill="#8367E8"/>
<path d="M165.564 173.624C165.362 173.624 165.194 173.478 165.172 173.277C163.101 156.586 164.243 140.376 165.575 129.719C167.019 118.178 168.967 110.465 168.989 110.387C169.045 110.174 169.258 110.051 169.47 110.107C169.683 110.163 169.806 110.375 169.75 110.588C169.728 110.666 167.78 118.335 166.347 129.831C165.026 140.444 163.884 156.575 165.955 173.176C165.978 173.389 165.832 173.59 165.608 173.613C165.597 173.624 165.586 173.624 165.564 173.624Z" fill="#8367E8"/>
<path d="M180.66 110.196L180.392 111.103L180.134 111.976L179.608 113.7C179.25 114.842 178.892 115.984 178.522 117.114C177.772 119.387 177 121.648 176.172 123.909C175.343 126.171 174.47 128.421 173.518 130.682C172.567 132.943 171.548 135.205 170.373 137.477C169.791 138.619 169.164 139.761 168.481 140.925C167.787 142.089 167.037 143.253 166.141 144.462C165.694 145.067 165.212 145.671 164.664 146.298C164.384 146.612 164.104 146.925 163.779 147.239C163.466 147.552 163.13 147.877 162.761 148.201C162.022 148.851 161.149 149.522 160.007 150.149C159.436 150.451 158.787 150.776 158.048 151.022C157.857 151.078 157.678 151.134 157.477 151.19C157.275 151.235 157.063 151.28 156.895 151.302C156.537 151.358 156.19 151.392 155.854 151.425C154.51 151.515 153.335 151.392 152.305 151.19C151.79 151.089 151.309 150.966 150.85 150.832C150.391 150.698 149.965 150.541 149.562 150.384C147.939 149.746 146.607 148.985 145.398 148.179C144.189 147.373 143.103 146.533 142.073 145.66C141.558 145.224 141.066 144.776 140.585 144.317C140.338 144.082 140.103 143.858 139.857 143.623L139.084 142.85C136.879 141.104 136.51 137.902 138.245 135.708C139.991 133.503 143.193 133.134 145.387 134.869V134.858H145.398L145.432 134.869L145.51 134.902L145.667 134.97L146.003 135.115C146.226 135.216 146.462 135.317 146.697 135.417C147.167 135.619 147.637 135.798 148.107 135.977C149.047 136.324 149.977 136.626 150.85 136.828C151.723 137.029 152.54 137.141 153.145 137.108C153.29 137.096 153.424 137.085 153.548 137.052C153.66 137.029 153.749 136.984 153.805 136.951C153.928 136.873 153.917 136.749 153.716 136.693C153.66 136.671 153.604 136.66 153.525 136.66C153.503 136.649 153.424 136.66 153.369 136.671C153.301 136.682 153.257 136.693 153.201 136.705C153.01 136.761 152.898 136.839 152.831 136.873C152.697 136.951 152.764 136.929 152.898 136.817C152.966 136.761 153.044 136.693 153.145 136.593C153.234 136.503 153.346 136.391 153.458 136.279C153.682 136.044 153.917 135.753 154.175 135.428C154.667 134.779 155.193 134.018 155.697 133.201C156.201 132.384 156.704 131.499 157.186 130.592C158.16 128.768 159.078 126.831 159.951 124.85C160.824 122.857 161.664 120.82 162.458 118.749C163.253 116.678 164.014 114.584 164.753 112.48C165.123 111.428 165.481 110.364 165.828 109.312L166.343 107.722L166.589 106.939L166.824 106.189L166.858 106.077C168.033 102.271 172.074 100.133 175.88 101.308C179.619 102.45 181.746 106.424 180.66 110.196Z" fill="#FD9772"/>
<path d="M162.602 145.772C162.502 145.761 162.412 145.716 162.334 145.638C160.498 143.567 155.236 142.683 155.18 142.683C154.957 142.649 154.811 142.436 154.845 142.212C154.878 141.989 155.091 141.843 155.315 141.877C155.539 141.91 160.912 142.806 162.938 145.101C163.084 145.269 163.073 145.526 162.905 145.672C162.826 145.75 162.714 145.783 162.602 145.772Z" fill="#C84D48"/>
<path d="M168.279 143.992L119.807 140.455C119.404 140.421 119.102 140.074 119.135 139.671L119.382 136.358C119.382 136.29 119.449 136.234 119.516 136.234L168.592 139.817C168.659 139.817 168.715 139.884 168.715 139.951L168.424 143.869C168.413 143.947 168.357 143.992 168.279 143.992Z" fill="#E527BB"/>
<path d="M154.97 143.018L120.782 140.522C119.976 140.466 119.271 139.94 118.991 139.179L111.133 118.178C110.607 116.767 111.715 115.29 113.226 115.402L147.414 117.898C148.22 117.954 148.925 118.48 149.205 119.241L157.063 140.253C157.59 141.653 156.47 143.13 154.97 143.018Z" fill="#E527BB"/>
<path d="M156.125 139.537C156.114 139.537 156.114 139.537 156.102 139.537L118.523 137.32C118.31 137.309 118.153 137.13 118.165 136.917C118.176 136.705 118.355 136.548 118.568 136.559L156.147 138.776C156.36 138.787 156.517 138.966 156.505 139.179C156.494 139.38 156.326 139.537 156.125 139.537Z" fill="white"/>
<path d="M135.234 129.294C135.111 130.929 133.689 132.16 132.043 132.037C130.409 131.914 129.167 130.492 129.29 128.858C129.413 127.223 130.834 125.992 132.48 126.115C134.126 126.238 135.357 127.66 135.234 129.294Z" fill="white"/>
<path d="M137.294 144.977C140.529 145.033 144.313 145.582 146.048 142.279C145.612 141.865 144.895 141.585 143.944 141.541C137.764 141.216 139.343 135.697 137.238 135.798C135.134 135.899 136.589 140.723 136.231 140.667C134.462 140.365 134.954 133.783 133.141 134.533C131.339 135.283 132.559 140.858 132.559 140.858C130.924 139.671 131.092 133.772 129.458 133.951C127.062 134.219 128.07 140.208 128.07 140.208C126.223 139.19 127.622 134.6 125.506 134.79C123.906 134.936 124.342 141.328 125.227 142.033C125.663 142.391 127.107 142.436 128.764 142.57C129.167 142.828 129.861 143.197 130.712 143.354C131.383 143.477 131.954 143.354 132.357 143.197C132.772 143.332 133.298 144.518 134.966 144.462C135.156 144.451 135.357 144.507 135.581 144.608C136.029 144.798 136.488 144.932 136.969 144.966C137.16 144.966 137.283 144.977 137.294 144.977Z" fill="#FD9772"/>
<path d="M192.964 60.594C192.964 60.594 193.636 51.034 187.669 50.0936C181.691 49.1533 181.994 56.2729 181.994 56.2729C181.994 56.2729 178.781 53.8214 179.128 58.3887C179.475 62.956 187.983 63.4598 187.983 63.4598L192.964 60.594Z" fill="#272737"/>
<path d="M192.875 58.4109C192.875 58.4109 187.67 59.0378 185.453 63.1461C185.453 63.1461 186.035 64.1648 187.703 64.635C187.703 64.635 189.438 61.8364 193.569 60.5826C193.569 60.5938 193.39 59.2617 192.875 58.4109Z" fill="#6359CC"/>
<path d="M208.705 79.4231C208.705 79.4231 210.138 79.6918 210.227 81.55C210.328 83.4195 209.108 86.386 207.283 85.8375C205.458 85.2778 208.705 79.4231 208.705 79.4231Z" fill="#C84D48"/>
<path d="M205.378 86.1286C205.58 84.7405 206.878 83.7666 208.266 83.9681C209.654 84.1696 210.628 85.4681 210.427 86.8562C210.225 88.2443 208.927 89.2182 207.539 89.0167C206.139 88.804 205.177 87.5167 205.378 86.1286ZM206.117 86.2293C205.972 87.2144 206.654 88.1324 207.639 88.2667C208.625 88.4122 209.543 87.7294 209.677 86.7443C209.822 85.7592 209.14 84.8412 208.154 84.7069C207.169 84.5614 206.251 85.2442 206.117 86.2293Z" fill="#FDC864"/>
<path d="M186.504 96.8081C186.504 96.8081 188.552 101.79 193.859 103.088C200.598 104.745 201.661 101.879 201.661 101.879C201.46 100.928 201.381 99.9873 201.392 98.991C201.404 98.6104 201.415 98.2298 201.448 97.8268C201.538 96.7409 201.728 95.5655 202.008 94.211C202.075 93.8976 202.142 93.5617 202.221 93.2259L202.232 93.1811C197.609 91.5915 193.948 89.1175 191.631 85.3562L190.959 84.8637L190.512 84.5278L190.4 84.7965V85.6809C190.433 89.8788 189.157 93.2147 186.504 96.8081Z" fill="#FD9772"/>
<path d="M194.551 89.3411C195.323 91.7031 197.26 95.9234 201.458 97.8376C201.547 96.7518 201.738 95.5764 202.017 94.2218C202.085 93.9084 202.152 93.5726 202.23 93.2367C202.141 93.2367 202.04 93.2367 201.939 93.2367C199.331 93.1472 196.667 91.5464 194.551 89.3411Z" fill="#272737"/>
<path d="M185.426 77.1617C185.012 79.714 186.658 83.1843 189.982 83.8224H190.005L190.072 83.8336C190.105 83.9903 190.139 84.147 190.184 84.3037C190.206 84.3709 190.217 84.4381 190.24 84.5052C190.24 84.5164 190.24 84.5164 190.251 84.5276C191.628 89.1957 197.382 92.7443 200.707 93.3824C201.893 93.6063 202.744 93.472 203.001 93.4608C206.662 93.2705 208.106 88.5912 208.14 84.8523C208.14 84.3037 208.117 83.7888 208.072 83.2962C208.072 83.2627 208.061 83.2291 208.061 83.1955C208.061 83.1955 210.076 78.2811 210.714 76.0982C211.957 71.8667 210.188 67.0755 200.852 64.6687C191.516 62.2619 188.292 67.7808 187.116 70.7921C186.915 71.2958 186.523 74.4079 186.96 74.99C185.975 75.2922 185.56 76.3109 185.426 77.1617Z" fill="#FD9772"/>
<path d="M190.622 81.8857C190.488 81.8409 190.387 81.7178 190.387 81.5611C190.32 79.0871 187.622 77.5871 187.6 77.5647C187.432 77.4751 187.365 77.2624 187.465 77.0945C187.555 76.9266 187.768 76.8594 187.935 76.9602C188.059 77.0273 191.003 78.6617 191.092 81.5387C191.092 81.729 190.947 81.8969 190.756 81.8969C190.7 81.8969 190.656 81.8969 190.622 81.8857Z" fill="#C84D48"/>
<path d="M187.848 80.0611C187.803 80.0499 187.77 80.0275 187.736 79.9939C187.591 79.8708 187.568 79.6469 187.702 79.5014C187.736 79.4566 188.553 78.5275 189.941 78.8073C190.132 78.8409 190.255 79.0312 190.21 79.2215C190.176 79.4118 189.986 79.535 189.796 79.4902C188.8 79.2887 188.229 79.9492 188.217 79.9492C188.128 80.0611 187.982 80.0947 187.848 80.0611Z" fill="#C84D48"/>
<path d="M189.984 83.8225H190.007L190.074 83.8337C190.108 83.9904 190.141 84.1471 190.186 84.3039C190.208 84.371 190.219 84.4382 190.242 84.5054C190.242 84.5166 190.242 84.5166 190.253 84.5278C190.645 84.5278 191.137 84.4606 191.619 84.2255C191.899 84.08 192.178 83.8897 192.414 83.5986C192.537 83.4531 192.526 83.2292 192.369 83.1061C192.223 82.9829 191.999 82.9941 191.876 83.1508C191.608 83.4643 191.272 83.6434 190.936 83.733C190.712 83.8001 190.499 83.8225 190.309 83.8225C190.186 83.8337 190.074 83.8225 189.984 83.8225Z" fill="#C84D48"/>
<path d="M190.834 83.8784C190.587 83.9119 190.308 83.9007 190.084 83.8784C190.084 83.8895 190.084 83.9007 190.084 83.9119C189.938 84.897 189.02 85.5799 188.046 85.4344C187.061 85.2888 186.378 84.3709 186.524 83.397C186.647 82.5126 187.408 81.8634 188.281 81.8522C188.539 81.6283 188.584 81.382 188.393 81.1021C187.117 81.0574 185.986 81.9865 185.796 83.285C185.595 84.6732 186.557 85.9717 187.957 86.1732C189.345 86.3747 190.643 85.412 190.845 84.0127C190.822 83.9679 190.834 83.9231 190.834 83.8784Z" fill="#FDC864"/>
<path d="M190.634 65.8666C193.018 64.0978 196.119 62.8665 199.5 63.6165C204.235 64.6799 208.377 67.0644 210.403 70.0533C211.377 71.4862 211.858 73.0534 211.679 74.6878C211.131 79.6917 210.213 78.5498 210.213 78.5498C210.213 78.5498 210.257 78.4379 210.28 77.3632C210.291 76.7139 210.302 75.7064 210.28 74.1728C210.235 70.4898 198.918 68.2286 199.276 70.6578C199.276 70.6578 199.265 70.9488 199.164 71.3854C199.052 71.8556 198.828 72.4936 198.403 73.0981C198.313 73.0981 198.223 73.0981 198.134 73.0981C196.958 73.1205 195.962 73.2996 195.123 73.5683C195.011 73.6243 193.085 74.5982 193.04 76.4565C192.984 78.3595 193.276 80.9118 192.089 80.2402C190.891 79.5685 190.723 77.9901 190.723 77.9901C190.186 77.0498 189.492 76.0759 188.316 75.4714C188.428 72.1242 188.854 68.7547 190.634 65.8666Z" fill="#272737"/>
<path d="M189.624 67.8817C193.217 67.2661 198.299 70.6803 199.172 71.3856C199.06 71.8558 198.837 72.4938 198.411 73.0983C198.322 73.0983 198.232 73.0983 198.143 73.0983C196.967 73.1207 195.971 73.2998 195.131 73.5685C195.019 73.6245 193.094 74.5984 193.049 76.4567C192.993 78.3597 192.646 89.1287 191.303 89.3862C187.788 90.0467 190.206 77.9007 190.206 77.9007C189.668 76.9604 189.478 76.0872 188.303 75.4716C187.452 72.617 188.325 70.1766 189.624 67.8817Z" fill="#272737"/>
<path d="M190.423 67.8144C190.423 67.8144 187.882 70.4451 188.319 75.4602C188.319 75.4602 186.74 74.7774 185.912 74.9341C185.083 75.0908 184.736 72.1019 185.945 69.5944C187.166 67.0868 191.408 64.4785 191.408 64.4785C191.408 64.4785 191.274 67.0644 190.423 67.8144Z" fill="#272737"/>
<path d="M142.376 105.002H125.17C124.096 105.002 123.223 104.129 123.223 103.054V85.8372C123.223 84.7626 124.096 83.8894 125.17 83.8894H142.387C143.462 83.8894 144.335 84.7626 144.335 85.8372V103.054C144.335 104.129 143.462 105.002 142.376 105.002Z" fill="#E527BB"/>
<path d="M137.137 104.633L139.823 111.025C139.958 111.338 140.405 111.304 140.484 110.969L141.894 104.621H137.137V104.633Z" fill="#E527BB"/>
<path d="M133.777 101.465C129.903 101.465 126.758 98.3189 126.758 94.4457C126.758 90.5724 129.903 87.4268 133.777 87.4268C137.65 87.4268 140.796 90.5724 140.796 94.4457C140.796 98.3189 137.639 101.465 133.777 101.465ZM133.777 88.3783C130.43 88.3783 127.721 91.0985 127.721 94.4345C127.721 97.7816 130.441 100.491 133.777 100.491C137.113 100.491 139.833 97.7704 139.833 94.4345C139.833 91.0985 137.113 88.3783 133.777 88.3783Z" fill="white"/>
<path d="M133.779 94.9268C133.667 94.9268 133.544 94.882 133.465 94.8036C133.365 94.7141 133.309 94.5797 133.309 94.4454V89.7997C133.309 89.5311 133.521 89.3184 133.79 89.3184C134.059 89.3184 134.271 89.5311 134.271 89.7997V93.9081L137.708 93.4939C137.965 93.4603 138.212 93.6506 138.245 93.9081C138.279 94.1655 138.089 94.4118 137.831 94.4454L133.857 94.9156C133.812 94.9268 133.79 94.9268 133.779 94.9268Z" fill="white"/>
<path d="M426.556 305.057H384.454C384.185 305.057 383.973 304.845 383.973 304.576V302.136C383.973 301.867 384.185 301.654 384.454 301.654H426.556C426.825 301.654 427.038 301.867 427.038 302.136V304.576C427.049 304.845 426.825 305.057 426.556 305.057Z" fill="#C061E6"/>
<path d="M385.866 263.84H425.237C425.886 263.84 426.424 264.366 426.424 265.026V269.862C426.424 270.512 425.897 271.049 425.237 271.049H385.866C385.217 271.049 384.68 270.523 384.68 269.862V265.026C384.68 264.377 385.217 263.84 385.866 263.84Z" fill="#C061E6"/>
<path d="M427.431 241.529C427.431 241.529 427.353 242.648 426.995 244.406C426.939 244.663 426.883 244.943 426.815 245.223C426.121 248.29 424.666 252.768 421.7 256.608C421.532 256.821 421.375 257.022 421.207 257.224C420.132 258.522 418.867 259.731 417.39 260.772C417.244 260.873 417.088 260.974 416.942 261.074C414.58 262.642 411.692 263.772 408.154 264.175C407.931 264.198 407.707 264.22 407.483 264.243C406.789 264.298 406.061 264.332 405.322 264.332C402.311 264.332 399.68 263.84 397.374 263C397.206 262.944 397.05 262.877 396.882 262.821C393.68 261.567 391.128 259.63 389.09 257.436C388.934 257.268 388.788 257.1 388.631 256.933C386.717 254.75 385.284 252.332 384.232 250.082C384.165 249.936 384.098 249.779 384.03 249.634C382.049 245.223 381.512 241.529 381.512 241.529H427.431Z" fill="#E31E23"/>
<path d="M390.849 241.529C389.181 244.82 387.11 248.022 384.233 250.07C384.166 249.925 384.098 249.768 384.031 249.623C386.74 247.664 388.711 244.63 390.3 241.518H390.849V241.529Z" fill="#88001C"/>
<path d="M397.644 241.529C394.856 243.712 392.606 246.544 391.106 249.746C390.166 251.738 389.046 254.761 389.08 257.436C388.923 257.268 388.778 257.1 388.621 256.933C388.699 254.649 389.505 252.231 390.255 250.44C391.7 246.981 393.983 243.925 396.849 241.529H397.644Z" fill="#88001C"/>
<path d="M417.397 260.783C417.251 260.884 417.095 260.985 416.949 261.086C415.572 254.1 417.643 246.757 422.513 241.529H423.195C418.248 246.623 416.098 253.854 417.397 260.783Z" fill="#88001C"/>
<path d="M410.939 260.347C410.054 261.657 409.125 262.933 408.151 264.187C407.927 264.209 407.703 264.231 407.48 264.254C408.856 262.496 410.155 260.683 411.364 258.813C412.058 257.739 413.301 256.16 412.842 254.783C412.271 253.037 409.864 253.776 408.633 254.201C404.02 255.802 400.517 259.373 397.36 263.022C397.192 262.966 397.035 262.899 396.867 262.843C398.289 261.198 399.755 259.597 401.379 258.142C403.203 256.507 405.229 255.063 407.491 254.112C409.013 253.473 411.789 252.376 413.021 254.1C414.409 256.003 411.957 258.847 410.939 260.347Z" fill="#88001C"/>
<path d="M427.003 244.395C426.947 244.652 426.891 244.932 426.824 245.212C423.689 248.168 421.842 252.332 421.708 256.597C421.54 256.81 421.383 257.011 421.215 257.213C421.182 252.377 423.286 247.585 427.003 244.395Z" fill="#88001C"/>
<path d="M417.479 241.529C416.538 242.413 415.576 243.264 414.591 244.104C412.206 246.119 409.699 247.988 407.09 249.701C405.825 250.529 404.527 251.436 403.139 252.041C402.053 252.511 400.766 252.735 399.758 251.973C397.62 250.384 398.773 247.171 399.724 245.234C400.396 243.857 401.292 242.615 402.355 241.529H403.06C401.695 242.828 400.598 244.395 399.848 246.152C399.321 247.384 398.795 248.884 399.176 250.227C399.724 252.141 401.605 252.22 403.15 251.492C405.512 250.384 407.728 248.727 409.833 247.205C412.251 245.447 414.568 243.555 416.762 241.529H417.479Z" fill="#88001C"/>
<path d="M427.431 241.529C427.431 242.257 417.155 242.839 404.471 242.839C391.788 242.839 381.512 242.257 381.512 241.529C381.512 240.802 391.788 240.219 404.471 240.219C417.155 240.219 427.431 240.802 427.431 241.529Z" fill="#272737"/>
<path d="M382.979 211.853C382.374 215.648 379.822 217.17 382.083 219.174C384.355 221.178 388.744 224.088 386.426 227.816C384.109 231.544 387.154 232.708 390.177 235.07C392.572 236.939 393.121 238.529 392.695 241.686H405.177C405.3 239.581 404.528 237.354 403.229 235.596C400.117 231.398 399.434 232.126 399.781 229.047C400.117 225.969 400.845 224.973 398.125 222.454C395.404 219.935 393.804 218.11 394.934 214.662C396.065 211.215 393.983 207.856 390.669 205.908C387.356 203.961 388.844 200.02 386.997 194.904C385.15 189.788 379.542 186.878 379.542 186.878C383.717 193.46 378.859 199.057 379.184 203.837C379.497 208.629 383.583 208.058 382.979 211.853Z" fill="#39B039"/>
<path d="M397.53 241.697H398.314L385.362 202.382C385.294 202.192 385.093 202.08 384.903 202.147C384.903 202.147 384.903 202.147 384.891 202.147C384.701 202.214 384.589 202.416 384.656 202.617L397.53 241.697Z" fill="#053D3A"/>
<path d="M417.714 241.697C417.278 238.518 417.815 236.928 420.211 235.059C423.211 232.719 426.245 231.555 423.939 227.838C421.633 224.122 425.998 221.234 428.26 219.241C430.521 217.237 427.969 215.737 427.375 211.953C426.782 208.181 430.846 208.741 431.159 203.983C431.484 199.225 426.648 193.662 430.801 187.113C430.801 187.113 425.215 190.012 423.379 195.095C421.543 200.177 423.021 204.106 419.729 206.043C416.427 207.979 414.367 211.315 415.487 214.752C416.606 218.189 415.017 220.002 412.308 222.51C409.599 225.017 410.326 226.002 410.662 229.07C410.998 232.126 410.326 231.409 407.225 235.585C405.916 237.354 405.154 239.592 405.289 241.697H417.714Z" fill="#39B039"/>
<path d="M412.877 241.697L425.706 202.763C425.773 202.572 425.661 202.36 425.471 202.304C425.471 202.304 425.471 202.304 425.46 202.304C425.27 202.248 425.068 202.349 425.001 202.539L412.094 241.697H412.877Z" fill="#053D3A"/>
<path d="M395.716 210.632C397.473 213.543 401.212 218.099 397.496 221.334C393.779 224.569 396.645 226.82 399.097 230.346C401.548 233.872 401 235.954 398.1 241.137C398 241.327 397.91 241.507 397.832 241.686H413.202C413.772 239.637 413.627 237.309 412.899 235.249C410.963 229.719 409.989 230.267 411.377 227.088C412.765 223.909 413.862 223.081 411.791 219.476C409.72 215.883 408.612 213.386 410.963 210.062C413.313 206.737 412.205 202.449 409.306 199.27C406.395 196.091 409.306 192.352 409.026 186.262C408.746 180.172 403.709 175.191 403.709 175.191C405.992 183.632 398.94 188.009 397.686 193.236C396.444 198.464 401.011 199.214 399.097 203.076C397.205 206.961 393.958 207.733 395.716 210.632Z" fill="#39B039"/>
<path d="M405.649 241.697L404.809 193.74C404.809 193.516 404.619 193.337 404.395 193.337H404.384C404.16 193.337 403.97 193.527 403.981 193.763L404.821 241.708H405.649V241.697Z" fill="#053D3A"/>
<path d="M399.76 271.049L398.562 274.922L381.871 328.722H378.613L389.192 276.019L390.2 271.049H399.76Z" fill="#C061E6"/>
<path d="M390.199 271.049H399.759L398.561 274.922L389.191 276.019L390.199 271.049Z" fill="#3D2027"/>
<path d="M432.588 328.722H429.33L412.147 273.321L411.441 271.049H421.013L421.248 272.258L432.588 328.722Z" fill="#C061E6"/>
<path d="M421.248 272.258L412.147 273.321L411.441 271.049H421.013L421.248 272.258Z" fill="#3D2027"/>
<path d="M425.526 297.635H385.495C384.656 297.635 383.973 296.953 383.973 296.113V295.744C383.973 294.904 384.656 294.221 385.495 294.221H425.526C426.366 294.221 427.049 294.904 427.049 295.744V296.113C427.049 296.964 426.366 297.635 425.526 297.635Z" fill="#C061E6"/>
<path d="M272.701 329.17L283.201 312.434L262.66 306.468L257.812 329.17H272.701Z" fill="#E527BB"/>
<path d="M352.261 329.17L347.425 306.468L326.883 312.434L337.383 329.17H352.261Z" fill="#E527BB"/>
<path d="M305.613 201.677C297.855 201.677 289.896 199.013 281.791 193.684L281.086 193.214V192.363C281.086 179.176 291.821 168.441 305.008 168.441C318.195 168.441 328.931 179.176 328.931 192.363V193.158L328.293 193.628C320.96 199.001 313.393 201.677 305.613 201.677ZM284.243 191.524C298.952 200.916 312.553 200.927 325.763 191.568C325.349 180.475 316.192 171.586 304.997 171.586C293.825 171.597 284.691 180.463 284.243 191.524Z" fill="#E527BB"/>
<path d="M277.917 195.083L264.73 202.696L255.965 187.818L269.152 180.206L277.917 195.083Z" fill="#C423A6"/>
<path d="M276.895 184.024L272.518 186.833L272.138 187.08L266.07 190.975L265.589 191.289L257.786 196.293L257.383 196.55L256.477 197.132C256.107 197.378 255.682 197.479 255.268 197.479C255.122 197.479 254.988 197.457 254.853 197.434C254.316 197.323 253.812 196.998 253.499 196.494L250.096 191.199C249.928 190.93 249.771 190.651 249.637 190.371C249.558 190.203 249.48 190.035 249.413 189.867C248.685 188.054 248.685 186.061 249.323 184.292C249.391 184.113 249.458 183.945 249.536 183.766C250.141 182.412 251.126 181.214 252.469 180.352L263.294 173.4C264.548 172.594 265.947 172.191 267.335 172.157C267.481 172.157 267.626 172.157 267.772 172.157C268.723 172.191 269.664 172.393 270.537 172.751C270.66 172.807 270.783 172.852 270.906 172.919C272.182 173.523 273.324 174.486 274.141 175.773L274.432 176.221L274.645 176.557L276.19 178.964L276.403 179.288L277.544 181.068C278.194 182.042 277.903 183.385 276.895 184.024Z" fill="#E527BB"/>
<path d="M255.28 197.468C255.135 197.468 255.001 197.446 254.866 197.423C254.81 195.621 254.139 193.841 252.851 192.442C251.945 191.457 250.847 190.762 249.65 190.359C249.571 190.192 249.493 190.024 249.426 189.856C251.665 190.527 253.579 192.151 254.575 194.322C255.034 195.319 255.258 196.393 255.28 197.468Z" fill="#6359CA"/>
<path d="M267.773 172.146C266.597 174.519 264.728 176.657 262.69 178.325C260.463 180.15 257.899 181.381 255.19 182.311C253.321 182.96 251.294 183.542 249.324 184.281C249.391 184.102 249.459 183.934 249.537 183.755C253.388 182.333 257.474 181.471 260.944 179.143C263.149 177.654 265.052 175.728 266.519 173.501C266.799 173.064 267.09 172.616 267.347 172.146C267.482 172.135 267.627 172.135 267.773 172.146Z" fill="#6359CA"/>
<path d="M270.921 172.896C270.899 172.986 270.877 173.087 270.854 173.176C269.466 178.303 264.473 181.146 261.529 185.255C259.223 188.468 257.936 192.352 257.801 196.293L257.398 196.55C257.432 195.028 257.622 193.516 257.992 192.027C258.563 189.744 259.514 187.538 260.824 185.579C262.223 183.486 264.059 181.773 265.817 179.993C267.63 178.169 269.432 176.154 270.283 173.68C270.384 173.366 270.474 173.053 270.552 172.728C270.675 172.784 270.798 172.84 270.921 172.896Z" fill="#6359CA"/>
<path d="M274.658 176.523C274.188 176.971 273.729 177.441 273.281 177.922C270.729 180.687 268.68 183.934 267.281 187.426C266.833 188.546 266.385 189.744 266.083 190.964L265.602 191.277C265.87 190.08 266.296 188.904 266.71 187.807C267.449 185.87 268.378 184.012 269.475 182.255C270.874 180.027 272.542 177.99 274.434 176.187L274.658 176.523Z" fill="#6359CA"/>
<path d="M276.407 179.266C274.974 180.441 273.731 181.818 273.004 183.576C272.578 184.583 272.422 185.736 272.522 186.844L272.142 187.091C272.007 186.117 272.086 185.098 272.377 184.147C273.049 181.986 274.493 180.329 276.194 178.941L276.407 179.266Z" fill="#6359CA"/>
<path d="M331.258 195.442L344.445 203.065L353.21 188.177L340.023 180.564L331.258 195.442Z" fill="#C423A6"/>
<path d="M359.715 190.326C359.659 190.472 359.591 190.617 359.513 190.763C359.379 191.031 359.233 191.289 359.065 191.546L355.673 196.841C355.035 197.826 353.737 198.129 352.74 197.524C352.729 197.513 352.707 197.502 352.696 197.49L352.393 197.289L346.628 193.595L346.27 193.36L343.124 191.345L342.777 191.121L340.147 189.442L339.822 189.229L337.191 187.539L336.867 187.326L332.288 184.393C331.281 183.744 330.99 182.412 331.639 181.404L332.322 180.329L332.546 179.982L334.37 177.15L334.594 176.803L335.042 176.098C335.378 175.583 335.759 175.124 336.173 174.71C336.274 174.62 336.363 174.531 336.464 174.441C339.027 172.191 342.867 171.799 345.89 173.736L348.666 175.516L349.091 175.796L354.789 179.456L355.248 179.747L356.715 180.688C358.36 181.74 359.48 183.318 359.994 185.053C360.039 185.177 360.073 185.311 360.095 185.434C360.476 187.046 360.375 188.748 359.715 190.326Z" fill="#E527BB"/>
<path d="M349.078 175.807C344.757 177.139 340.123 176.691 336.16 174.732C336.261 174.642 336.35 174.553 336.451 174.463C338.421 175.437 340.582 176.042 342.798 176.187C344.78 176.322 346.761 176.087 348.653 175.527L349.078 175.807Z" fill="#6359CA"/>
<path d="M355.24 179.758C351.445 180.553 347.953 182.747 345.647 185.893C344.449 187.538 343.598 189.397 343.117 191.356L342.77 191.132C344.292 185.344 348.971 180.833 354.781 179.467L355.24 179.758Z" fill="#6359CA"/>
<path d="M360.095 185.445C356.759 187.393 352.583 187.337 349.359 189.576C347.982 190.539 346.863 191.915 346.628 193.595L346.27 193.36C346.762 190.594 349.438 188.759 351.99 187.796C354.005 187.035 356.154 186.654 358.169 185.893C358.785 185.669 359.423 185.4 359.994 185.064C360.027 185.188 360.061 185.322 360.095 185.445Z" fill="#6359CA"/>
<path d="M359.715 190.326C359.659 190.471 359.592 190.617 359.514 190.763C356.849 191.3 354.42 193.572 353.278 195.912C353.032 196.427 352.842 196.964 352.73 197.524C352.719 197.513 352.696 197.502 352.685 197.49L352.383 197.289C352.472 196.897 352.596 196.505 352.752 196.125C353.894 193.427 356.693 190.796 359.715 190.326Z" fill="#6359CA"/>
<path d="M343.819 183.475C343.584 184.483 342.968 185.367 342.408 186.218C341.792 187.147 341.154 188.065 340.494 188.972C340.382 189.128 340.259 189.285 340.147 189.442L339.822 189.229C340.203 188.725 340.572 188.222 340.93 187.707C342.184 185.916 344.714 183.083 342.834 180.934C342.195 180.206 341.3 179.736 340.427 179.333C339.195 178.762 337.93 178.27 336.654 177.844C335.893 177.587 335.132 177.363 334.359 177.161L334.583 176.814C335.199 176.982 335.815 177.161 336.419 177.352C338.289 177.956 340.292 178.628 341.949 179.691C343.27 180.542 344.21 181.841 343.819 183.475Z" fill="#6359CA"/>
<path d="M337.798 186.486C337.63 186.878 337.417 187.225 337.182 187.538L336.857 187.326C336.969 187.169 337.081 187.012 337.182 186.844C337.719 185.938 337.91 184.874 337.44 183.9C337.048 183.105 336.354 182.49 335.648 181.975C334.641 181.236 333.51 180.676 332.312 180.318L332.536 179.971C333.924 180.396 335.234 181.09 336.365 182.031C337.731 183.184 338.537 184.74 337.798 186.486Z" fill="#6359CA"/>
<path d="M373.586 254.168C373.586 258.03 373.272 261.825 372.656 265.519C372.623 265.709 372.589 265.888 372.556 266.078C372.041 269.067 371.324 271.989 370.429 274.844C370.373 275.023 370.317 275.202 370.261 275.381C368.929 279.523 367.216 283.497 365.156 287.247C365.067 287.415 364.977 287.572 364.888 287.74C362.604 291.848 359.895 295.699 356.85 299.247C356.671 299.46 356.481 299.673 356.29 299.886C353.682 302.841 350.827 305.561 347.76 308.035C344.76 310.453 341.547 312.625 338.155 314.517C337.898 314.662 337.652 314.796 337.394 314.942C335.166 316.151 332.872 317.237 330.51 318.2C329.345 318.67 328.17 319.118 326.972 319.532C326.793 319.588 326.614 319.655 326.435 319.711C320.916 321.558 315.084 322.722 309.039 323.125C308.882 323.136 308.736 323.148 308.58 323.148C307.225 323.226 305.859 323.271 304.483 323.271C299.747 323.271 295.124 322.789 290.657 321.894C290.523 321.871 290.389 321.838 290.254 321.815C288.004 321.345 285.81 320.763 283.65 320.08C283.515 320.035 283.37 319.991 283.236 319.946C281.926 319.521 280.627 319.062 279.351 318.569C275.601 317.103 272.008 315.323 268.616 313.252C268.504 313.185 268.392 313.117 268.28 313.05C266.164 311.74 264.127 310.33 262.168 308.807C261.563 308.337 260.959 307.856 260.365 307.363C260.253 307.274 260.141 307.184 260.041 307.095C257.298 304.789 254.735 302.27 252.373 299.561C252.283 299.46 252.193 299.359 252.104 299.247C250.492 297.378 248.981 295.419 247.581 293.382C247.503 293.27 247.425 293.158 247.346 293.046C245.869 290.885 244.514 288.635 243.294 286.307C243.227 286.184 243.16 286.049 243.092 285.926C239.969 279.904 237.708 273.366 236.476 266.47C236.454 266.314 236.421 266.157 236.398 266C235.995 263.672 235.715 261.298 235.547 258.892C235.536 258.746 235.525 258.601 235.525 258.455C235.435 257.045 235.391 255.612 235.391 254.168C235.391 252.343 235.458 250.541 235.603 248.749C235.615 248.57 235.637 248.391 235.648 248.212C235.805 246.376 236.029 244.552 236.331 242.76C236.365 242.593 236.387 242.425 236.421 242.257C238.1 232.574 241.805 223.584 247.066 215.737C247.246 215.469 247.425 215.211 247.604 214.954C249.865 211.674 252.406 208.606 255.194 205.774C255.361 205.595 255.529 205.427 255.708 205.259C257.891 203.087 260.22 201.05 262.671 199.181C263.768 198.352 264.888 197.546 266.03 196.774C266.231 196.64 266.433 196.505 266.634 196.371C269.522 194.479 272.567 192.789 275.735 191.333C277.806 190.382 279.944 189.531 282.116 188.781C288.083 186.744 294.419 185.49 301.001 185.165C301.247 185.154 301.482 185.143 301.729 185.132C302.647 185.098 303.576 185.076 304.505 185.076C309.666 185.076 314.692 185.635 319.528 186.71C319.707 186.755 319.886 186.788 320.076 186.833C322.304 187.348 324.487 187.964 326.625 188.691C327.084 188.848 327.532 189.005 327.991 189.162C328.147 189.218 328.304 189.274 328.461 189.33C330.241 189.99 331.998 190.718 333.7 191.512C336.599 192.867 339.375 194.412 342.04 196.136C342.163 196.214 342.286 196.292 342.409 196.382C343.887 197.345 345.32 198.375 346.708 199.449C347.424 200.009 348.141 200.58 348.835 201.162C348.947 201.252 349.047 201.341 349.159 201.431C351.712 203.591 354.107 205.931 356.313 208.438C356.402 208.539 356.492 208.64 356.581 208.741C358.316 210.733 359.951 212.827 361.451 214.998C361.529 215.11 361.596 215.211 361.675 215.323C364.07 218.849 366.153 222.599 367.876 226.551C367.921 226.663 367.977 226.764 368.022 226.876C368.85 228.801 369.589 230.76 370.25 232.775C370.294 232.898 370.328 233.033 370.373 233.156C371.246 235.898 371.951 238.719 372.489 241.607C372.511 241.742 372.545 241.876 372.567 242.01C372.903 243.925 373.171 245.861 373.351 247.832C373.362 247.977 373.373 248.111 373.384 248.246C373.496 250.216 373.586 252.186 373.586 254.168Z" fill="#E527BB"/>
<path d="M367.986 226.887C365.769 227.749 363.497 228.577 361.18 229.092C360.586 229.226 359.982 229.338 359.389 229.417C359.019 229.473 358.527 229.529 357.989 229.562C355.784 229.708 352.672 229.473 352.672 227.088C352.672 226.943 352.683 226.797 352.705 226.663C352.761 226.271 352.885 225.89 353.052 225.521C353.332 224.894 353.724 224.312 354.094 223.764C354.183 223.64 354.261 223.506 354.351 223.383C355.012 222.375 355.717 221.402 356.456 220.45C356.456 220.45 356.456 220.439 356.467 220.439C356.635 220.226 356.803 220.013 356.971 219.812C358.347 218.11 359.836 216.498 361.437 215.01C361.515 215.121 361.583 215.222 361.661 215.334C360.083 216.812 358.605 218.401 357.25 220.081C357.06 220.316 356.881 220.551 356.702 220.786C356.702 220.786 356.702 220.786 356.702 220.797C355.974 221.726 355.291 222.689 354.642 223.674C354.553 223.808 354.463 223.943 354.362 224.088C354.127 224.435 353.87 224.816 353.646 225.219C353.433 225.611 353.243 226.014 353.153 226.417C353.052 226.82 353.041 227.234 353.176 227.626C353.691 229.17 356.12 229.204 357.429 229.193C357.553 229.193 357.665 229.193 357.788 229.182C358.885 229.137 359.971 228.969 361.045 228.723C361.045 228.723 361.045 228.723 361.056 228.723C361.404 228.644 361.739 228.555 362.086 228.465C364.045 227.939 365.982 227.29 367.896 226.573C367.885 226.674 367.941 226.775 367.986 226.887Z" fill="#888CFB"/>
<path d="M320.051 186.833C315.719 189.565 311.129 191.916 306.416 193.908C297.046 197.882 287.173 200.457 277.143 202.08C269.866 203.256 262.4 204.062 255.168 205.752C255.336 205.573 255.504 205.405 255.683 205.237C263.026 203.569 270.605 202.774 278.016 201.543C287.945 199.886 297.74 197.244 306.998 193.237C311.319 191.367 315.517 189.195 319.513 186.71C319.681 186.755 319.872 186.789 320.051 186.833Z" fill="#888CFB"/>
<path d="M301.703 185.132C300.136 186.262 298.524 187.326 296.856 188.3C289.266 192.733 280.725 195.487 271.993 196.427C270.012 196.64 268.008 196.752 266.016 196.774C266.217 196.64 266.419 196.505 266.62 196.371C273.281 196.237 279.919 195.017 286.21 192.8C291.461 190.942 296.453 188.378 300.987 185.165C301.211 185.154 301.457 185.132 301.703 185.132Z" fill="#888CFB"/>
<path d="M263.787 217.54C256.556 227.783 247.13 236.425 236.316 242.761C236.35 242.593 236.372 242.425 236.406 242.257C241.992 238.955 247.22 235.037 251.944 230.581C256.422 226.361 260.463 221.682 263.955 216.622C265.276 214.708 267.941 210.745 265.052 208.931C263.843 208.181 262.243 208.528 260.978 208.931C259.511 209.413 258.09 210.095 256.679 210.734C253.388 212.234 250.175 213.89 247.052 215.715C247.231 215.446 247.41 215.189 247.589 214.931C251.619 212.592 255.828 210.487 260.161 208.808C262.209 208.013 265.422 207.42 266.463 210.017C267.515 212.648 265.187 215.558 263.787 217.54Z" fill="#888CFB"/>
<path d="M342.374 196.382C341.736 196.729 341.098 197.088 340.471 197.435C332.915 201.543 325.191 205.338 317.321 208.819C314.612 210.017 311.377 211.707 308.321 210.879C307.09 210.543 306.093 209.67 305.679 208.439C305.209 207.017 305.746 205.539 306.563 204.353C307.504 202.976 308.802 201.845 310.168 200.894C312.004 199.606 313.873 198.353 315.743 197.099C319.403 194.636 323.109 192.24 326.837 189.89C327.217 189.654 327.598 189.408 327.978 189.173C328.135 189.229 328.292 189.285 328.449 189.341C327.419 189.99 326.389 190.64 325.359 191.289C321.777 193.561 318.228 195.89 314.713 198.274C313.056 199.394 311.343 200.479 309.754 201.7C308.355 202.763 306.944 204.106 306.261 205.763C305.612 207.33 305.97 209.155 307.47 210.084C308.735 210.868 310.403 210.756 311.791 210.476C313.437 210.14 314.948 209.446 316.482 208.775C318.374 207.946 320.265 207.095 322.146 206.222C328.896 203.099 335.535 199.741 342.039 196.147C342.128 196.226 342.251 196.304 342.374 196.382Z" fill="#888CFB"/>
<path d="M349.123 201.431C344.813 203.491 340.391 205.36 336.003 207.241C329.913 209.849 323.779 212.346 317.611 214.775C305.174 219.667 292.625 224.279 280.076 228.902C273.93 231.163 267.773 233.425 261.661 235.764C256.646 237.679 251.664 239.694 246.851 242.078C242.944 244.015 239.116 246.209 235.578 248.772C235.589 248.593 235.612 248.414 235.623 248.235C239.821 245.246 244.399 242.761 249.045 240.589C253.791 238.373 258.672 236.458 263.575 234.622C269.755 232.294 275.945 230.01 282.136 227.727C294.629 223.115 307.133 218.514 319.514 213.611C325.727 211.148 331.917 208.607 338.052 205.942C341.634 204.386 345.25 202.853 348.787 201.174C348.91 201.252 349.011 201.341 349.123 201.431Z" fill="#888CFB"/>
<path d="M356.545 208.741C348.216 212.368 340.123 216.51 332.287 221.122C321.809 227.29 311.823 234.309 302.442 242.044C293.05 249.802 284.263 258.287 276.18 267.411C268.12 276.523 260.766 286.251 254.25 296.516C253.612 297.524 252.985 298.531 252.359 299.539C252.269 299.438 252.179 299.337 252.09 299.225C253.489 296.942 254.944 294.68 256.422 292.441C263.172 282.288 270.729 272.672 279.001 263.694C287.251 254.739 296.207 246.421 305.756 238.843C315.316 231.264 325.458 224.435 336.093 218.458C342.641 214.775 349.38 211.416 356.276 208.416C356.366 208.539 356.455 208.64 356.545 208.741Z" fill="#888CFB"/>
<path d="M265.759 259.676C265.513 263.045 264.001 266.235 262.613 269.269C261.024 272.728 259.266 276.109 257.33 279.389C254.441 284.292 251.173 288.971 247.568 293.371C247.49 293.259 247.411 293.147 247.333 293.035C251.329 288.143 254.912 282.915 258.012 277.407C259.77 274.295 261.382 271.094 262.826 267.814C264.169 264.791 265.647 261.467 265.356 258.086C265.076 254.817 262.725 252.578 259.591 251.963C256.613 251.38 253.546 252.007 250.669 252.769C245.385 254.168 240.303 256.228 235.534 258.881C235.523 258.735 235.512 258.59 235.512 258.444C238.288 256.911 241.165 255.578 244.12 254.459C247.232 253.272 250.49 252.22 253.781 251.66C256.479 251.201 259.501 251.089 262.02 252.354C264.785 253.765 265.972 256.687 265.759 259.676Z" fill="#888CFB"/>
<path d="M250.164 271.206C249.974 273.4 249.224 275.538 248.395 277.564C247.645 279.378 246.761 281.135 245.731 282.803C244.981 284.012 244.164 285.187 243.291 286.296C243.224 286.172 243.156 286.038 243.089 285.915C244.074 284.661 244.97 283.34 245.776 281.963C246.75 280.307 247.601 278.56 248.295 276.758C249.056 274.788 249.75 272.694 249.817 270.568C249.884 268.631 249.358 266.605 247.981 265.194C246.571 263.75 244.556 263.414 242.642 263.75C240.727 264.086 238.959 264.959 237.302 265.955C237.022 266.123 236.753 266.291 236.485 266.459C236.462 266.302 236.429 266.146 236.406 265.989C238.936 264.355 241.813 262.978 244.724 263.258C248.675 263.661 250.489 267.59 250.164 271.206Z" fill="#888CFB"/>
<path d="M370.326 233.167C362.434 238.003 354.195 242.268 345.867 246.298C333.183 252.421 320.276 258.142 307.895 264.881C295.648 271.553 283.816 279.288 273.92 289.184C268.603 294.49 263.789 300.613 260.364 307.364C260.252 307.274 260.14 307.184 260.039 307.095C264.024 299.281 269.868 292.341 276.237 286.419C286.469 276.904 298.402 269.448 310.716 262.944C323.164 256.373 336.072 250.72 348.688 244.507C356.009 240.902 363.252 237.074 370.214 232.798C370.248 232.91 370.293 233.044 370.326 233.167Z" fill="#888CFB"/>
<path d="M372.51 242.022C365.782 245.839 359.256 250.003 352.964 254.503C344.513 260.548 336.475 267.175 328.93 274.329C321.419 281.448 314.4 289.072 307.929 297.132C301.627 304.99 295.839 313.263 290.645 321.883C290.511 321.86 290.377 321.827 290.242 321.804C290.724 320.998 291.216 320.192 291.72 319.386C297.172 310.576 303.239 302.158 309.844 294.176C316.482 286.161 323.669 278.594 331.337 271.552C338.994 264.522 347.132 258.03 355.685 252.119C361.114 248.369 366.7 244.865 372.443 241.619C372.465 241.753 372.488 241.887 372.51 242.022Z" fill="#888CFB"/>
<path d="M289.502 308.819C287.823 312.681 285.819 316.431 283.647 320.069C283.513 320.024 283.367 319.98 283.233 319.935C283.838 318.916 284.42 317.897 284.991 316.868C286.547 314.069 288.103 311.203 289.323 308.237C289.916 306.804 290.342 305.248 290.062 303.703C289.793 302.225 288.875 300.915 287.397 300.479C284.632 299.673 281.666 301.71 279.472 303.154C275.319 305.897 271.647 309.322 268.613 313.241C268.501 313.173 268.389 313.106 268.277 313.039C268.468 312.793 268.669 312.535 268.871 312.289C272.419 307.89 276.863 303.927 281.856 301.24C284.061 300.054 287.285 299.035 289.278 301.173C291.259 303.322 290.543 306.434 289.502 308.819Z" fill="#888CFB"/>
<path d="M370.427 274.844C370.371 275.023 370.315 275.202 370.259 275.381C366.453 277.441 362.502 279.266 358.561 281.034C349.561 285.075 340.449 288.993 332.478 294.904C325.336 300.199 319.146 306.759 314.209 314.147C312.283 317.024 310.56 320.024 309.037 323.125C308.88 323.136 308.735 323.148 308.578 323.148C310.526 319.151 312.821 315.312 315.429 311.696C320.478 304.677 326.691 298.475 333.766 293.494C341.949 287.729 351.24 283.945 360.307 279.825C363.722 278.269 367.136 276.657 370.427 274.844Z" fill="#888CFB"/>
<path d="M354.253 274.799C361.227 273.624 367.227 269.952 372.656 265.519C372.623 265.71 372.589 265.889 372.556 266.079C370.709 267.568 368.794 268.956 366.779 270.21C364.395 271.699 361.865 272.975 359.212 273.904C356.783 274.755 354.018 275.549 351.421 275.381C349.417 275.247 347.156 274.307 347.021 272.012C346.943 270.646 347.704 269.348 348.499 268.295C349.35 267.154 350.301 266.079 351.253 265.015C357.499 258.03 364.999 252.198 373.283 247.843C373.294 247.989 373.306 248.123 373.317 248.257C369.903 250.06 366.623 252.12 363.499 254.414C358.999 257.717 354.857 261.512 351.163 265.698C350.223 266.773 349.238 267.848 348.443 269.034C347.615 270.277 346.943 271.9 347.816 273.299C349.092 275.37 352.215 275.146 354.253 274.799Z" fill="#888CFB"/>
<path d="M365.151 287.258C365.062 287.426 364.972 287.583 364.882 287.751C363.573 288.165 362.274 288.635 360.998 289.139C353.084 292.262 345.785 296.964 339.628 302.83C334.546 307.677 330.236 313.319 326.967 319.521C326.788 319.577 326.609 319.644 326.43 319.7C328.03 316.588 329.9 313.621 332.004 310.811C337.087 304.016 343.501 298.229 350.744 293.807C355.244 291.064 360.102 288.848 365.151 287.258Z" fill="#888CFB"/>
<path d="M356.85 299.259C356.671 299.471 356.481 299.684 356.291 299.897C356.078 299.986 355.865 300.076 355.653 300.166C348.634 303.222 342.51 308.248 338.156 314.517C337.898 314.662 337.652 314.797 337.395 314.942C338.021 313.991 338.693 313.061 339.41 312.166C343.954 306.434 350.033 301.934 356.85 299.259Z" fill="#888CFB"/>
<path d="M304.995 315.636C296.689 315.636 288.64 314.013 281.061 310.811C273.74 307.71 267.158 303.277 261.516 297.624C255.863 291.971 251.43 285.4 248.329 278.079C245.127 270.5 243.504 262.451 243.504 254.145C243.504 245.839 245.127 237.79 248.329 230.212C251.43 222.89 255.863 216.308 261.516 210.666C267.169 205.013 273.74 200.58 281.061 197.479C288.64 194.277 296.689 192.654 304.995 192.654C313.301 192.654 321.35 194.277 328.928 197.479C336.25 200.58 342.832 205.013 348.474 210.666C354.127 216.319 358.56 222.89 361.661 230.212C364.862 237.79 366.486 245.839 366.486 254.145C366.486 262.451 364.862 270.5 361.661 278.079C358.56 285.4 354.127 291.982 348.474 297.624C342.821 303.277 336.25 307.71 328.928 310.811C321.35 314.013 313.301 315.636 304.995 315.636Z" fill="white"/>
<path d="M366.496 254.168C366.496 255.276 366.463 256.395 366.407 257.492C366.026 250.362 364.437 243.443 361.66 236.883C358.56 229.562 354.127 222.98 348.473 217.338C342.82 211.685 336.249 207.252 328.928 204.151C321.349 200.949 313.301 199.326 304.994 199.326C296.688 199.326 288.639 200.949 281.061 204.151C273.739 207.252 267.157 211.685 261.515 217.338C255.862 222.991 251.429 229.562 248.328 236.883C245.552 243.443 243.962 250.362 243.582 257.492C243.526 256.384 243.492 255.276 243.492 254.168C243.492 245.861 245.115 237.813 248.317 230.234C251.418 222.913 255.851 216.331 261.504 210.689C267.157 205.035 273.728 200.602 281.049 197.502C288.628 194.3 296.677 192.677 304.983 192.677C313.289 192.677 321.338 194.3 328.917 197.502C336.238 200.602 342.82 205.035 348.462 210.689C354.115 216.342 358.548 222.913 361.649 230.234C364.873 237.813 366.496 245.861 366.496 254.168Z" fill="#F4EAE0"/>
<path d="M328.168 271.317C328.056 271.317 327.955 271.284 327.854 271.217L304.693 254.201C304.458 254.033 304.413 253.697 304.581 253.474C304.749 253.238 305.085 253.194 305.309 253.362L328.47 270.377C328.705 270.545 328.75 270.881 328.582 271.105C328.481 271.239 328.325 271.317 328.168 271.317Z" fill="#A78BEF"/>
<path d="M312.507 253.463C312.507 257.616 309.149 260.974 304.996 260.974C300.843 260.974 297.484 257.616 297.484 253.463C297.484 249.309 300.843 245.951 304.996 245.951C309.138 245.962 312.507 249.321 312.507 253.463Z" fill="#272737"/>
<path d="M305.007 247.888C304.716 247.888 304.48 247.652 304.48 247.361V227.603C304.48 227.312 304.716 227.077 305.007 227.077C305.298 227.077 305.533 227.312 305.533 227.603V247.361C305.522 247.652 305.286 247.888 305.007 247.888Z" fill="#E527BB"/>
<path d="M298.985 254.302H271.245C270.954 254.302 270.719 254.067 270.719 253.776C270.719 253.485 270.954 253.25 271.245 253.25H298.985C299.276 253.25 299.511 253.485 299.511 253.776C299.511 254.067 299.276 254.302 298.985 254.302Z" fill="#E527BB"/>
<path d="M304.997 258.366C302.255 258.366 300.016 256.138 300.016 253.384C300.016 250.641 302.243 248.403 304.997 248.403C307.74 248.403 309.979 250.63 309.979 253.384C309.967 256.138 307.74 258.366 304.997 258.366Z" fill="#E527BB"/>
<path d="M305.053 206.233H304.963C304.762 206.233 304.594 206.065 304.594 205.864V197.468C304.594 197.267 304.762 197.099 304.963 197.099H305.053C305.254 197.099 305.422 197.267 305.422 197.468V205.864C305.411 206.077 305.254 206.233 305.053 206.233Z" fill="#FFBE57"/>
<path d="M292.758 207.845L292.668 207.867C292.478 207.923 292.276 207.8 292.22 207.61L290.049 199.505C289.993 199.315 290.116 199.113 290.306 199.057L290.396 199.035C290.586 198.979 290.788 199.102 290.844 199.293L293.015 207.397C293.06 207.588 292.948 207.789 292.758 207.845Z" fill="#272737"/>
<path d="M281.295 212.569L281.217 212.614C281.038 212.715 280.825 212.659 280.724 212.48L276.526 205.214C276.426 205.035 276.482 204.811 276.661 204.711L276.739 204.666C276.918 204.565 277.142 204.621 277.243 204.8L281.441 212.065C281.53 212.245 281.474 212.468 281.295 212.569Z" fill="#272737"/>
<path d="M271.456 220.103L271.389 220.17C271.244 220.316 271.02 220.316 270.874 220.17L264.941 214.237C264.796 214.092 264.796 213.868 264.941 213.722L265.008 213.655C265.154 213.51 265.378 213.51 265.523 213.655L271.456 219.588C271.602 219.734 271.602 219.969 271.456 220.103Z" fill="#272737"/>
<path d="M263.901 229.932L263.856 230.01C263.755 230.189 263.531 230.245 263.363 230.144L256.098 225.946C255.919 225.846 255.863 225.622 255.964 225.454L256.009 225.375C256.109 225.196 256.333 225.14 256.501 225.241L263.766 229.439C263.945 229.529 264.001 229.753 263.901 229.932Z" fill="#272737"/>
<path d="M259.143 241.372L259.12 241.462C259.064 241.652 258.863 241.775 258.673 241.719L250.568 239.548C250.378 239.492 250.254 239.29 250.31 239.1L250.333 239.01C250.389 238.82 250.59 238.697 250.781 238.753L258.885 240.925C259.087 240.981 259.199 241.182 259.143 241.372Z" fill="#272737"/>
<path d="M257.521 253.664V253.753C257.521 253.955 257.353 254.123 257.152 254.123H248.756C248.555 254.123 248.387 253.955 248.387 253.753V253.664C248.387 253.462 248.555 253.294 248.756 253.294H257.152C257.353 253.294 257.521 253.462 257.521 253.664Z" fill="#FFBE57"/>
<path d="M259.12 265.955L259.143 266.045C259.199 266.235 259.076 266.437 258.885 266.493L250.781 268.664C250.59 268.72 250.389 268.597 250.333 268.407L250.31 268.317C250.254 268.127 250.378 267.925 250.568 267.869L258.673 265.698C258.874 265.642 259.064 265.754 259.12 265.955Z" fill="#272737"/>
<path d="M263.855 277.407L263.9 277.486C264.001 277.665 263.945 277.877 263.766 277.978L256.501 282.176C256.322 282.277 256.098 282.221 255.997 282.042L255.952 281.963C255.851 281.784 255.907 281.56 256.086 281.46L263.352 277.262C263.531 277.172 263.755 277.228 263.855 277.407Z" fill="#272737"/>
<path d="M271.389 287.247L271.456 287.314C271.602 287.46 271.602 287.684 271.456 287.829L265.523 293.762C265.378 293.908 265.154 293.908 265.008 293.762L264.941 293.695C264.796 293.55 264.796 293.326 264.941 293.18L270.874 287.247C271.009 287.102 271.244 287.102 271.389 287.247Z" fill="#272737"/>
<path d="M281.205 294.803L281.283 294.848C281.462 294.949 281.518 295.173 281.417 295.352L277.219 302.617C277.119 302.796 276.895 302.852 276.716 302.751L276.637 302.707C276.458 302.606 276.402 302.382 276.503 302.214L280.701 294.949C280.813 294.758 281.037 294.703 281.205 294.803Z" fill="#272737"/>
<path d="M292.66 299.561L292.75 299.583C292.94 299.639 293.063 299.841 293.007 300.031L290.836 308.136C290.78 308.326 290.578 308.449 290.388 308.393L290.298 308.371C290.108 308.315 289.985 308.113 290.041 307.923L292.213 299.818C292.257 299.628 292.459 299.505 292.66 299.561Z" fill="#272737"/>
<path d="M304.94 301.195H305.029C305.231 301.195 305.399 301.363 305.399 301.565V309.961C305.399 310.162 305.231 310.33 305.029 310.33H304.94C304.738 310.33 304.57 310.162 304.57 309.961V301.565C304.582 301.352 304.738 301.195 304.94 301.195Z" fill="#FFBE57"/>
<path d="M317.232 299.583L317.322 299.561C317.512 299.505 317.713 299.628 317.769 299.818L319.941 307.923C319.997 308.113 319.874 308.315 319.684 308.371L319.594 308.393C319.404 308.449 319.202 308.326 319.146 308.136L316.975 300.031C316.919 299.841 317.042 299.639 317.232 299.583Z" fill="#272737"/>
<path d="M328.682 294.859L328.76 294.815C328.939 294.714 329.152 294.77 329.253 294.949L333.45 302.214C333.551 302.393 333.495 302.617 333.316 302.718L333.238 302.763C333.059 302.863 332.846 302.807 332.745 302.628L328.547 295.363C328.447 295.184 328.514 294.96 328.682 294.859Z" fill="#272737"/>
<path d="M338.523 287.326L338.59 287.259C338.735 287.113 338.959 287.113 339.105 287.259L345.038 293.192C345.183 293.337 345.183 293.561 345.038 293.707L344.971 293.774C344.825 293.919 344.601 293.919 344.456 293.774L338.523 287.841C338.388 287.695 338.388 287.46 338.523 287.326Z" fill="#272737"/>
<path d="M346.079 277.497L346.124 277.418C346.224 277.239 346.448 277.183 346.616 277.284L353.881 281.482C354.061 281.583 354.117 281.806 354.016 281.986L353.971 282.064C353.87 282.243 353.646 282.299 353.467 282.198L346.202 278C346.045 277.9 345.978 277.676 346.079 277.497Z" fill="#272737"/>
<path d="M350.838 266.056L350.86 265.967C350.916 265.776 351.118 265.653 351.308 265.709L359.413 267.881C359.603 267.937 359.726 268.138 359.67 268.329L359.648 268.418C359.592 268.608 359.39 268.732 359.2 268.676L351.095 266.504C350.905 266.448 350.793 266.246 350.838 266.056Z" fill="#272737"/>
<path d="M352.473 253.765V253.675C352.473 253.474 352.641 253.306 352.842 253.306H361.238C361.439 253.306 361.607 253.474 361.607 253.675V253.765C361.607 253.966 361.439 254.134 361.238 254.134H352.842C352.641 254.134 352.473 253.966 352.473 253.765Z" fill="#FFBE57"/>
<path d="M350.872 241.473L350.85 241.384C350.794 241.193 350.917 240.992 351.107 240.936L359.212 238.764C359.402 238.708 359.604 238.831 359.66 239.022L359.682 239.111C359.738 239.301 359.615 239.503 359.424 239.559L351.32 241.731C351.118 241.787 350.917 241.675 350.872 241.473Z" fill="#272737"/>
<path d="M346.134 230.021L346.089 229.943C345.988 229.764 346.044 229.54 346.223 229.439L353.488 225.241C353.667 225.14 353.88 225.196 353.981 225.375L354.026 225.454C354.126 225.633 354.07 225.857 353.891 225.958L346.626 230.156C346.458 230.256 346.234 230.2 346.134 230.021Z" fill="#272737"/>
<path d="M338.602 220.181L338.535 220.114C338.389 219.969 338.389 219.745 338.535 219.599L344.468 213.666C344.613 213.521 344.837 213.521 344.983 213.666L345.05 213.733C345.196 213.879 345.196 214.103 345.05 214.248L339.117 220.181C338.972 220.327 338.748 220.327 338.602 220.181Z" fill="#272737"/>
<path d="M328.77 212.625L328.692 212.58C328.513 212.48 328.457 212.256 328.558 212.077L332.755 204.812C332.856 204.632 333.08 204.576 333.259 204.677L333.338 204.722C333.517 204.823 333.573 205.047 333.472 205.226L329.274 212.491C329.173 212.67 328.949 212.726 328.77 212.625Z" fill="#272737"/>
<path d="M317.333 207.867L317.244 207.845C317.053 207.789 316.93 207.588 316.986 207.397L319.158 199.293C319.214 199.102 319.415 198.979 319.606 199.035L319.695 199.057C319.886 199.113 320.009 199.315 319.953 199.505L317.781 207.61C317.725 207.8 317.524 207.923 317.333 207.867Z" fill="#272737"/>
<path d="M409.016 64.1647C404.561 64.1647 400.934 60.5377 400.934 56.0824C400.934 51.627 404.561 48 409.016 48C413.471 48 417.087 51.627 417.087 56.0824C417.087 60.5377 413.471 64.1647 409.016 64.1647ZM409.016 49.1418C405.187 49.1418 402.075 52.2539 402.075 56.0824C402.075 59.9109 405.187 63.0229 409.016 63.0229C412.844 63.0229 415.956 59.9109 415.956 56.0824C415.968 52.2539 412.844 49.1418 409.016 49.1418Z" fill="#C423A6"/>
<path d="M406.825 59.8774C406.814 59.8774 406.803 59.8774 406.792 59.8774C406.635 59.8662 406.478 59.7879 406.378 59.6647L404.911 57.8401C404.721 57.5938 404.755 57.2356 405.001 57.0453C405.247 56.855 405.605 56.8885 405.796 57.1348L406.87 58.4669L412.87 52.4667C413.094 52.2429 413.453 52.2429 413.676 52.4667C413.9 52.6906 413.9 53.0489 413.676 53.2727L407.228 59.7207C407.117 59.8215 406.971 59.8774 406.825 59.8774Z" fill="#C423A6"/>
</g>
<defs>
<clipPath id="clip0_1827_12938">
<rect width="542.64" height="328.79" fill="white"/>
</clipPath>
</defs>
</svg>
