<svg width="20" height="20" viewBox="0 0 20 20" fill="none" xmlns="http://www.w3.org/2000/svg">
<path d="M10.7588 1.28615e-05C11.2077 -0.00295001 11.6528 0.0832146 12.0684 0.252943C12.4839 0.422706 12.8622 0.672867 13.1807 0.989271C13.499 1.30565 13.7515 1.68229 13.9238 2.09669C14.0962 2.51116 14.1847 2.95641 14.1846 3.40529C15.2673 4.11611 16.3981 4.97839 17.0576 6.19337H18.2832C18.4478 6.1922 18.6068 6.25536 18.7266 6.36818L19.7529 7.32423C19.8141 7.3809 19.8639 7.4491 19.8975 7.5254C19.931 7.60178 19.9488 7.68515 19.9492 7.76857V12.2256C19.9463 12.3923 19.8766 12.5519 19.7568 12.668C19.6371 12.7838 19.4762 12.8481 19.3096 12.8457H17.4522C16.8504 14.2067 15.8477 15.352 14.5791 16.1299C14.8751 16.6261 15.0317 17.1937 15.0322 17.7715C15.0122 18.0497 15.0938 19.5648 14.9551 19.7861C14.9281 19.8511 14.8827 19.9071 14.8242 19.9463C14.7655 19.9855 14.6956 20.0068 14.625 20.0068H6.93555C6.6117 20.003 6.52849 19.6516 6.52832 19.376V17.7715C6.52878 17.1913 6.68615 16.6217 6.98438 16.124C5.40652 15.1607 4.25298 13.6337 3.75782 11.8526H3.59278C3.43312 11.8524 3.27995 11.7886 3.167 11.6758C3.05411 11.5629 2.99053 11.4096 2.99024 11.25V10.8067C2.98957 10.7931 2.98555 10.7792 2.97852 10.7676C2.97141 10.756 2.96101 10.7461 2.94922 10.7393C2.93744 10.7325 2.92373 10.7288 2.91016 10.7285C2.89663 10.7283 2.88312 10.7321 2.8711 10.7383L2.48731 10.96C2.34878 11.0389 2.1843 11.0598 2.03028 11.0186C1.87618 10.9772 1.74453 10.8761 1.66407 10.7383L1.0293 9.64064C0.950232 9.50219 0.92954 9.33763 0.970708 9.18361C1.01198 9.0296 1.11236 8.89784 1.25 8.8174L1.63184 8.59669C1.6435 8.58927 1.65345 8.57851 1.66016 8.56642C1.66664 8.55451 1.66979 8.54091 1.66993 8.52736C1.66994 8.51358 1.66668 8.49945 1.66016 8.48732C1.65349 8.47511 1.64355 8.46456 1.63184 8.45704L1.25 8.23634C1.11201 8.15628 1.01112 8.0242 0.969731 7.87013C0.928534 7.71605 0.949892 7.55142 1.0293 7.4131L1.66407 6.31447C1.74458 6.17688 1.87631 6.07648 2.03028 6.03517C2.18435 5.99391 2.34873 6.01479 2.48731 6.09376L2.8711 6.31544C2.88309 6.32161 2.89668 6.32545 2.91016 6.32521C2.92373 6.3249 2.93743 6.32023 2.94922 6.31349C2.96087 6.30677 2.97142 6.29756 2.97852 6.28615C2.98559 6.27461 2.98949 6.2606 2.99024 6.24708V5.80372C2.99043 5.64406 3.05417 5.49091 3.167 5.37794C3.27995 5.26499 3.43304 5.20141 3.59278 5.20118H4.86133C4.96147 5.20189 5.06003 5.22756 5.14747 5.27638C5.76395 4.52738 6.52195 3.90666 7.37793 3.45021C7.37182 3.00144 7.45434 2.55537 7.6211 2.13868C7.7879 1.72205 8.03557 1.34209 8.34961 1.0215C8.66376 0.700891 9.03894 0.445825 9.45215 0.270521C9.86548 0.095219 10.3098 0.0030218 10.7588 1.28615e-05ZM9.13379 15.3731C8.59289 15.4982 8.11039 15.8043 7.76661 16.2402C7.42303 16.6761 7.23781 17.2165 7.24219 17.7715V19.292H14.3184V17.7715C14.3223 17.2166 14.1366 16.6769 13.793 16.2412C13.4492 15.8055 12.9674 15.4994 12.4268 15.374L11.1377 17.2959V18.3027C11.1358 18.3961 11.0969 18.4854 11.0303 18.5508C10.9635 18.6162 10.8737 18.6533 10.7803 18.6533C10.6868 18.6533 10.5971 18.6162 10.5303 18.5508C10.4636 18.4854 10.4248 18.3961 10.4229 18.3027V17.2891L9.13379 15.3731ZM11.9023 14.4746C11.1818 14.7609 10.3788 14.7609 9.65821 14.4746V14.8721L10.7822 16.543L11.9023 14.8721V14.4746ZM7.47657 4.21193C6.68813 4.67508 6.00257 5.29531 5.46387 6.03419V6.2588C5.46317 6.31483 5.55286 6.338 5.58301 6.31544L5.9668 6.09376C6.10542 6.01472 6.26971 5.99387 6.42383 6.03517C6.57785 6.07649 6.70955 6.17682 6.79004 6.31447L7.42481 7.4131C7.50425 7.55146 7.52562 7.716 7.48438 7.87013C7.44299 8.02426 7.34216 8.15627 7.20411 8.23634L6.82227 8.45704C6.81063 8.46434 6.8007 8.47438 6.79395 8.48634C6.78731 8.49839 6.78329 8.51263 6.78321 8.52638C6.78326 8.5402 6.78728 8.55431 6.79395 8.56642C6.80072 8.57856 6.81049 8.58932 6.82227 8.59669L7.20411 8.8174C7.3418 8.89781 7.4421 9.02958 7.4834 9.18361C7.5246 9.33763 7.50387 9.50217 7.42481 9.64064L6.79004 10.7393C6.7096 10.8768 6.57775 10.9773 6.42383 11.0186C6.26983 11.0598 6.10528 11.039 5.9668 10.96L5.58301 10.7383C5.57165 10.7326 5.55861 10.7296 5.5459 10.7295C5.5334 10.7295 5.52107 10.7319 5.50977 10.7373C5.4984 10.7428 5.48833 10.7509 5.48047 10.7608C5.47266 10.7706 5.46659 10.7826 5.46387 10.7949V11.25C5.46358 11.4096 5.4 11.5629 5.28711 11.6758C5.17416 11.7886 5.02098 11.8524 4.86133 11.8526H4.50098C4.98376 13.404 6.0238 14.7224 7.41993 15.5537C7.83112 15.1202 8.36109 14.8177 8.94336 14.6836V14.0713C7.23569 12.7873 7.65427 10.3244 7.67579 10.2051C7.72181 9.4276 8.07443 8.69942 8.65625 8.18165C9.23831 7.66387 10.0025 7.39853 10.7803 7.44337C11.5596 7.40119 12.3241 7.66877 12.9063 8.18849C13.4883 8.70824 13.8406 9.43786 13.8867 10.2168C13.9248 10.4389 14.2857 12.8185 12.6172 14.0723V14.6836C13.2016 14.8176 13.7331 15.1225 14.1445 15.5586C15.2264 14.9128 16.102 13.9714 16.668 12.8457H15.2188C15.0521 12.848 14.8912 12.7839 14.7715 12.668C14.6518 12.5519 14.583 12.3923 14.5801 12.2256V6.81349C14.5829 6.64673 14.6518 6.48724 14.7715 6.37111C14.8912 6.25519 15.0521 6.19105 15.2188 6.19337H16.2129C15.6615 5.38144 14.9337 4.70415 14.084 4.2129C13.2054 7.65096 8.35574 7.65475 7.47657 4.21193ZM10.7813 10.2608C9.907 10.2607 9.05329 10.5286 8.33594 11.0283C8.34305 11.8172 8.54242 13.0527 9.63379 13.6738C11.7313 14.735 13.3172 12.8633 13.2256 11.0293C12.5084 10.5294 11.6555 10.2609 10.7813 10.2608ZM15.294 12.1309H19.2344V7.81642L18.2588 6.90822H15.294V12.1309ZM3.70508 5.91505C3.73003 6.29883 3.68892 6.72531 3.3125 6.9297C2.94376 7.16085 2.54877 6.98554 2.22657 6.76857L1.70411 7.67384L1.98926 7.8379C2.10835 7.90911 2.20693 8.01019 2.2754 8.13087C2.34372 8.25142 2.37982 8.38781 2.37989 8.52638C2.37981 8.66508 2.34386 8.80223 2.2754 8.92286C2.2069 9.04343 2.10829 9.14471 1.98926 9.21583L1.70411 9.3799L2.22657 10.2852C2.54401 10.0707 2.94572 9.89188 3.30665 10.1201C3.68981 10.3303 3.72971 10.7484 3.70508 11.1377H4.74903C4.72611 10.7592 4.75644 10.332 5.13086 10.1299C5.51228 9.89112 5.89963 10.0655 6.22754 10.2852L6.75 9.3799L6.46485 9.21583C6.34449 9.14622 6.24434 9.04522 6.17481 8.92482C6.10554 8.80462 6.06853 8.66804 6.06836 8.52931L6.42579 8.52638L6.06836 8.52443C6.06846 8.38542 6.10536 8.24835 6.17481 8.12794C6.2443 8.00759 6.34458 7.90753 6.46485 7.8379L6.75 7.67384L6.22754 6.76857C5.91035 6.98309 5.50754 7.16052 5.14747 6.93263C4.75632 6.72134 4.72564 6.30148 4.74903 5.91505H3.70508ZM18.4922 10.1524C18.5856 10.1542 18.6748 10.1922 18.7402 10.2588C18.8058 10.3256 18.8428 10.4162 18.8428 10.5098C18.8427 10.6032 18.8057 10.6931 18.7402 10.7598C18.6748 10.8265 18.5856 10.8643 18.4922 10.8662H16.0371C15.9437 10.8643 15.8545 10.8265 15.7891 10.7598C15.7236 10.6931 15.6866 10.6032 15.6865 10.5098C15.6865 10.4162 15.7235 10.3256 15.7891 10.2588C15.8545 10.1922 15.9437 10.1542 16.0371 10.1524H18.4922ZM10.8066 8.15724L10.7803 8.15919C10.2704 8.1529 8.76273 8.2106 8.40918 10.1465C9.13708 9.7527 9.95171 9.54611 10.7793 9.54591C11.607 9.5458 12.4223 9.75188 13.1504 10.1455C13.0932 9.57532 12.8168 9.04958 12.3799 8.67872C11.9428 8.30782 11.3788 8.12084 10.8066 8.15724ZM4.22657 7.19142C4.58206 7.19141 4.92399 7.33111 5.17676 7.58107C5.42951 7.83102 5.57318 8.17093 5.57715 8.52638C5.57318 8.88182 5.42951 9.22174 5.17676 9.47169C4.92412 9.72152 4.58284 9.86121 4.22754 9.86134C3.87206 9.86135 3.53012 9.72164 3.27735 9.47169C3.02458 9.22174 2.88093 8.88184 2.87696 8.52638C2.88092 8.17091 3.02458 7.83103 3.27735 7.58107C3.53 7.33121 3.87124 7.19155 4.22657 7.19142ZM4.22754 7.9004C4.06062 7.9004 3.90018 7.96589 3.78125 8.08302C3.66232 8.20022 3.59424 8.35942 3.5918 8.52638C3.59426 8.69331 3.66234 8.85255 3.78125 8.96974C3.90005 9.08672 4.05984 9.15223 4.22657 9.15236C4.39347 9.15236 4.55394 9.08685 4.67286 8.96974C4.79178 8.85255 4.85985 8.69332 4.86231 8.52638C4.85987 8.35942 4.79179 8.20023 4.67286 8.08302C4.55405 7.966 4.39429 7.90053 4.22754 7.9004ZM18.4902 8.17189C18.5848 8.17195 18.6753 8.20954 18.7422 8.27638C18.8092 8.34338 18.8477 8.43456 18.8477 8.52931C18.8476 8.62392 18.8091 8.71436 18.7422 8.78126C18.6753 8.84815 18.5849 8.8857 18.4902 8.88575H16.0352C15.9884 8.88572 15.9417 8.87729 15.8984 8.85939C15.8552 8.84144 15.8163 8.81439 15.7832 8.78126C15.7501 8.74814 15.723 8.7093 15.7051 8.66603C15.6872 8.6228 15.6788 8.57609 15.6787 8.52931C15.6787 8.48257 15.6873 8.4358 15.7051 8.39259C15.723 8.34924 15.75 8.30956 15.7832 8.27638C15.8162 8.24337 15.8553 8.21716 15.8984 8.19923C15.9417 8.18133 15.9884 8.17193 16.0352 8.17189H18.4902ZM11.1377 0.983411C11.1358 1.07672 11.0969 1.16607 11.0303 1.23146C10.9635 1.29677 10.8737 1.33399 10.7803 1.334C10.6869 1.33398 10.597 1.2968 10.5303 1.23146C10.4636 1.16607 10.4248 1.07673 10.4229 0.983411V0.741224C9.83922 0.82033 9.29738 1.08848 8.88086 1.5049C8.46434 1.92151 8.19526 2.46407 8.11622 3.04786H8.3584C8.45315 3.04787 8.54434 3.08536 8.61133 3.15236C8.67811 3.21932 8.71582 3.3107 8.71582 3.40529C8.71563 3.49962 8.67796 3.59045 8.61133 3.65724C8.54436 3.7241 8.45305 3.76173 8.3584 3.76173H8.11622C8.19537 4.34547 8.46432 4.88815 8.88086 5.3047C9.29738 5.7211 9.83924 5.98923 10.4229 6.06837V5.82716C10.4246 5.73369 10.4636 5.64368 10.5303 5.57814C10.597 5.51277 10.6868 5.4766 10.7803 5.47658C10.8737 5.47657 10.9635 5.51276 11.0303 5.57814C11.097 5.64368 11.1359 5.73366 11.1377 5.82716V6.06837C11.7213 5.98925 12.2632 5.72106 12.6797 5.3047C13.0962 4.88812 13.3652 4.34549 13.4443 3.76173H13.2022C13.1088 3.75992 13.0196 3.72183 12.9541 3.65529C12.8886 3.58857 12.8517 3.49777 12.8516 3.40431C12.8517 3.31097 12.8888 3.22099 12.9541 3.15431C13.0196 3.08763 13.1087 3.04968 13.2022 3.04786H13.4443C13.3652 2.46409 13.0962 1.92147 12.6797 1.5049C12.2631 1.08847 11.7214 0.820304 11.1377 0.741224V0.983411ZM10.7803 2.23341C10.8749 2.23349 10.9653 2.27102 11.0322 2.3379C11.0991 2.4048 11.1376 2.49527 11.1377 2.58986V3.52247L11.7656 3.91603C11.8298 3.958 11.8795 4.019 11.9063 4.09083C11.933 4.16275 11.9352 4.24169 11.9141 4.31544C11.8928 4.38928 11.849 4.45517 11.7881 4.50197C11.7273 4.54866 11.6528 4.57466 11.5762 4.57618C11.429 4.60693 10.7241 4.08548 10.5908 4.02345C10.5396 3.9914 10.4971 3.94637 10.4678 3.89357C10.4385 3.84059 10.4228 3.78029 10.4229 3.71974V2.58986C10.423 2.49532 10.4605 2.40479 10.5273 2.3379C10.5943 2.2709 10.6855 2.23341 10.7803 2.23341Z" fill="url(#paint0_linear_1801_7358)"/>
<defs>
<linearGradient id="paint0_linear_1801_7358" x1="10.4492" y1="-6.10352e-05" x2="10.4493" y2="23.9656" gradientUnits="userSpaceOnUse">
<stop stop-color="#E527BB"/>
<stop offset="1" stop-color="#A78BEF"/>
</linearGradient>
</defs>
</svg>
