<svg width="20" height="21" viewBox="0 0 20 21" fill="none" xmlns="http://www.w3.org/2000/svg">
<path fill-rule="evenodd" clip-rule="evenodd" d="M9.01786 0H10.9821C12.4107 0 13.4821 0 14.375 0.0892857C15.2679 0.178571 16.0714 0.357143 16.7857 0.714286C17.8571 1.25 18.75 2.14286 19.2857 3.21429C19.6429 3.92857 19.8214 4.73214 19.9107 5.625C20 6.51786 20 7.58929 20 9.01786V10.9821C20 12.4107 20 13.4821 19.9107 14.375C19.8214 15.2679 19.6429 16.0714 19.2857 16.7857C18.75 17.8571 17.8571 18.75 16.7857 19.375C16.0714 19.7321 15.2679 19.9107 14.375 20C13.4821 20.0893 12.4107 20.0893 10.9821 20.0893H9.01786C7.58929 20.0893 6.51786 20.0893 5.625 20C4.73214 19.9107 3.92857 19.7321 3.21429 19.375C2.14286 18.75 1.25 17.8571 0.714286 16.7857C0.357143 16.0714 0.178571 15.2679 0.0892857 14.375C0 13.4821 0 12.4107 0 10.9821V9.01786C0 7.58929 0 6.51786 0.0892857 5.625C0.178571 4.73214 0.357143 3.92857 0.714286 3.21429C1.25 2.14286 2.14286 1.25 3.30357 0.625C4.01786 0.267857 4.82143 0.0892857 5.71429 0C6.51786 0 7.58929 0 9.01786 0ZM5.80357 2.05357C5 2.14286 4.55357 2.23214 4.19643 2.41071C3.39286 2.85714 2.85714 3.39286 2.41071 4.19643C2.23214 4.55357 2.05357 5.08929 2.05357 5.80357C1.96429 6.60714 1.96429 7.58929 1.96429 9.01786V10.8929C1.96429 12.3214 1.96429 13.3929 2.05357 14.1071C2.14286 14.9107 2.23214 15.3571 2.41071 15.7143C2.76786 16.4286 3.39286 17.0536 4.10714 17.4107C4.46429 17.5893 5 17.7679 5.71429 17.7679C6.51786 17.8571 7.5 17.8571 8.92857 17.8571H10.8036C12.2321 17.8571 13.3036 17.8571 14.0179 17.7679C14.8214 17.6786 15.2679 17.5893 15.625 17.4107C16.3393 17.0536 16.9643 16.4286 17.3214 15.7143C17.5 15.3571 17.6786 14.8214 17.6786 14.1071C17.7679 13.3036 17.7679 12.3214 17.7679 10.8929V9.01786C17.7679 7.58929 17.7679 6.51786 17.6786 5.80357C17.5893 5 17.5 4.55357 17.3214 4.19643C16.9643 3.48214 16.3393 2.85714 15.625 2.5C15.2679 2.32143 14.7321 2.14286 14.0179 2.14286C13.2143 2.05357 12.2321 2.05357 10.8036 2.05357H8.92857C7.58929 1.96429 6.60714 1.96429 5.80357 2.05357ZM9.82143 4.73214C10.3571 4.73214 10.8036 5.17857 10.8036 5.71429V10.7143L14.375 12.0536C14.9107 12.2321 15.1786 12.8571 14.9107 13.3036C14.7321 13.8393 14.1071 14.1071 13.6607 13.8393L9.46429 12.2321C9.10714 12.0536 8.83929 11.6964 8.83929 11.3393V5.80357C8.83929 5.17857 9.28571 4.73214 9.82143 4.73214Z" fill="url(#paint0_linear_379_4163)"/>
<defs>
<linearGradient id="paint0_linear_379_4163" x1="10" y1="0" x2="10" y2="20.0893" gradientUnits="userSpaceOnUse">
<stop stop-color="#E527BB"/>
<stop offset="1" stop-color="#A78BEF"/>
</linearGradient>
</defs>
</svg>
