<svg width="533" height="331" viewBox="0 0 533 331" fill="none" xmlns="http://www.w3.org/2000/svg">
<g clip-path="url(#clip0_645_10757)">
<path opacity="0.2" fill-rule="evenodd" clip-rule="evenodd" d="M95.62 234.95H48.52H47.29C21.28 234.95 0 256.23 0 282.24C0 308.25 21.28 329.53 47.29 329.53H185.35H209.13H455.92C498.04 329.53 532.5 295.07 532.5 252.96C532.5 210.84 498.04 176.39 455.93 176.39C438.12 176.39 423.55 161.82 423.55 144.01C423.55 126.2 438.12 111.63 455.93 111.63H494.9C513.41 111.63 528.56 96.48 528.56 77.97C528.56 59.46 513.41 44.31 494.9 44.31H445.63C438.42 44.31 432.53 38.41 432.53 31.2C432.53 23.99 438.43 18.1 445.63 18.1H454.32C459.29 18.1 463.36 14.03 463.36 9.06C463.36 4.09 459.29 0.02 454.32 0.02H421.77C421.77 0.02 409.33 0.02 397.33 0.02C385.33 0.02 383.99 14.2 353.67 14.2C306.8 14.2 330.23 14.2 283.36 14.2C276.87 14.2 271.56 19.51 271.56 26C271.56 32.49 276.87 37.8 283.36 37.8H294.69C304.1 37.8 311.79 45.5 311.79 54.9C311.79 64.31 304.1 72 294.69 72H260.58C214.52 72 208.01 84.04 199.95 107.98C191.88 131.92 149.99 133.85 149.99 133.85H92.67C78.5 133.85 66.9 145.45 66.9 159.62C66.9 173.79 78.5 185.39 92.67 185.39H95.62C109.25 185.39 120.41 196.54 120.41 210.18C120.4 223.8 109.25 234.95 95.62 234.95ZM479.68 18.09C474.68 18.09 470.63 14.04 470.63 9.05C470.63 4.06 474.68 0 479.68 0C484.67 0 488.72 4.05 488.72 9.04C488.72 14.03 484.67 18.09 479.68 18.09Z" fill="#999999"/>
<g clip-path="url(#clip1_645_10757)">
<path d="M410.48 144.624C410.707 142.604 410.826 140.55 410.826 138.467C410.826 137.368 410.79 136.28 410.727 135.198L400.543 131.908C399.916 127.62 398.684 123.529 396.938 119.723L403.691 111.424C402.13 108.679 400.337 106.081 398.341 103.658L388.153 106.978C385.184 103.95 381.791 101.336 378.07 99.2385L378.649 88.5522C375.806 87.2588 372.833 86.2039 369.757 85.4053L363.467 94.0741C361.014 93.6629 358.498 93.4453 355.929 93.4453C354.177 93.4453 352.45 93.5496 350.752 93.7433L344.93 84.7556C341.809 85.3904 338.786 86.2873 335.883 87.4257L335.894 98.1299C332.06 100.031 328.533 102.463 325.415 105.33L315.421 101.479C313.297 103.798 311.369 106.295 309.665 108.95L315.97 117.595C314.019 121.311 312.571 125.334 311.718 129.572L301.375 132.32C301.149 134.34 301.029 136.393 301.029 138.476C301.029 139.576 301.065 140.664 301.128 141.745L311.312 145.035C311.939 149.324 313.171 153.415 314.92 157.221L308.167 165.52C309.728 168.265 311.521 170.863 313.517 173.286L323.705 169.966C326.674 172.994 330.067 175.607 333.788 177.705L333.209 188.392C336.053 189.685 339.025 190.74 342.101 191.539L348.391 182.87C350.844 183.281 353.36 183.498 355.929 183.498C357.681 183.498 359.408 183.394 361.106 183.2L366.928 192.188C370.049 191.553 373.072 190.656 375.976 189.518L375.964 178.814C379.798 176.913 383.325 174.481 386.444 171.614L396.437 175.464C398.562 173.146 400.489 170.649 402.193 167.993L395.888 159.348C397.839 155.632 399.287 151.609 400.14 147.372L410.48 144.624ZM355.929 159.971C344.038 159.971 334.396 150.343 334.396 138.467C334.396 126.592 344.038 116.964 355.929 116.964C367.82 116.964 377.462 126.592 377.462 138.467C377.459 150.346 367.82 159.971 355.929 159.971Z" fill="#A78BEF"/>
<path d="M385.294 162.993C385.112 162.993 384.93 162.933 384.781 162.808C384.438 162.525 384.393 162.018 384.677 161.676C390.09 155.176 393.068 146.937 393.068 138.47C393.068 134.418 392.405 130.436 391.095 126.637C390.949 126.217 391.173 125.761 391.594 125.615C392.014 125.472 392.471 125.692 392.617 126.112C393.984 130.079 394.679 134.236 394.679 138.467C394.679 147.309 391.567 155.915 385.915 162.701C385.754 162.895 385.527 162.993 385.294 162.993Z" fill="white"/>
<path d="M382.179 112.24C381.982 112.24 381.782 112.169 381.627 112.023C377.99 108.605 373.779 106.012 369.109 104.319C368.692 104.167 368.477 103.708 368.626 103.291C368.778 102.874 369.241 102.66 369.655 102.809C374.534 104.576 378.933 107.282 382.728 110.852C383.051 111.156 383.069 111.665 382.761 111.987C382.606 112.157 382.391 112.24 382.179 112.24Z" fill="white"/>
<path d="M347.577 103.279C347.216 103.279 346.891 103.038 346.798 102.671C346.691 102.242 346.95 101.804 347.38 101.694C350.412 100.931 353.548 100.544 356.702 100.544C357.147 100.544 357.508 100.904 357.508 101.348C357.508 101.792 357.147 102.153 356.702 102.153C353.679 102.153 350.674 102.522 347.774 103.256C347.708 103.27 347.643 103.279 347.577 103.279Z" fill="white"/>
<path d="M482.761 158.639C482.92 157.238 483 155.817 483 154.375C483 153.615 482.976 152.858 482.932 152.11L475.877 149.83C475.442 146.859 474.591 144.025 473.38 141.391L478.056 135.642C476.973 133.741 475.734 131.941 474.35 130.263L467.295 132.561C465.239 130.463 462.888 128.654 460.31 127.2L460.71 119.798C458.74 118.904 456.681 118.17 454.551 117.619L450.194 123.624C448.496 123.338 446.753 123.189 444.972 123.189C443.761 123.189 442.564 123.26 441.385 123.394L437.351 117.169C435.19 117.607 433.096 118.23 431.084 119.02L431.093 126.434C428.438 127.751 425.997 129.435 423.833 131.42L416.91 128.753C415.439 130.359 414.105 132.087 412.924 133.929L417.292 139.916C415.941 142.49 414.938 145.277 414.347 148.212L407.183 150.116C407.024 151.517 406.944 152.938 406.944 154.381C406.944 155.141 406.968 155.897 407.012 156.645L414.067 158.925C414.499 161.896 415.353 164.73 416.564 167.365L411.888 173.113C412.972 175.014 414.21 176.814 415.594 178.492L422.649 176.194C424.705 178.292 427.056 180.101 429.634 181.555L429.234 188.958C431.204 189.852 433.263 190.585 435.393 191.136L439.75 185.131C441.448 185.418 443.191 185.567 444.972 185.567C446.184 185.567 447.38 185.495 448.559 185.361L452.593 191.586C454.754 191.148 456.848 190.525 458.86 189.736L458.851 182.321C461.506 181.004 463.947 179.32 466.111 177.336L473.034 180.003C474.505 178.397 475.839 176.668 477.02 174.827L472.652 168.84C474.003 166.265 475.006 163.479 475.597 160.543L482.761 158.639ZM444.978 169.269C436.742 169.269 430.064 162.6 430.064 154.375C430.064 146.15 436.742 139.481 444.978 139.481C453.214 139.481 459.892 146.15 459.892 154.375C459.892 162.603 453.214 169.269 444.978 169.269Z" fill="#A78BEF"/>
<path d="M465.317 171.608C465.135 171.608 464.953 171.549 464.804 171.423C464.461 171.14 464.416 170.634 464.699 170.291C468.411 165.836 470.455 160.183 470.455 154.375C470.455 151.594 469.999 148.865 469.101 146.26C468.954 145.84 469.178 145.384 469.599 145.238C470.02 145.092 470.476 145.316 470.623 145.736C471.58 148.51 472.064 151.416 472.064 154.375C472.064 160.555 469.888 166.575 465.938 171.319C465.779 171.51 465.55 171.608 465.317 171.608Z" fill="white"/>
<path d="M463.16 136.456C462.963 136.456 462.763 136.384 462.607 136.238C460.113 133.893 457.224 132.117 454.022 130.955C453.605 130.803 453.39 130.344 453.539 129.924C453.691 129.506 454.154 129.292 454.569 129.441C457.979 130.678 461.056 132.57 463.709 135.064C464.031 135.368 464.049 135.878 463.741 136.2C463.586 136.372 463.374 136.456 463.16 136.456Z" fill="white"/>
<path d="M439.192 130.248C438.831 130.248 438.506 130.007 438.413 129.64C438.306 129.211 438.566 128.773 438.995 128.663C441.114 128.13 443.307 127.858 445.512 127.858C445.957 127.858 446.318 128.219 446.318 128.663C446.318 129.107 445.957 129.468 445.512 129.468C443.438 129.468 441.38 129.721 439.389 130.225C439.324 130.242 439.258 130.248 439.192 130.248Z" fill="white"/>
<path d="M150.298 151.639L112.676 128.663L105.869 172.178C123.543 174.961 141.074 166.691 150.298 151.639Z" fill="#A78BEF"/>
<path d="M150.337 151.589C150.438 151.422 150.57 151.195 150.567 151.204C158.513 137.91 158.832 121.404 151.542 107.851C138.228 114.818 146.156 110.586 112.676 128.666C150.361 151.678 144.509 148.129 150.337 151.589Z" fill="#A78BEF"/>
<path d="M71.3203 113.447L112.676 128.666L151.471 107.717C133.325 74.2004 84.4768 78.2174 71.3203 113.447Z" fill="#E527BB"/>
<path d="M105.872 172.177L112.679 128.663L71.3204 113.447C61.4851 139.776 78.9415 167.94 105.872 172.177Z" fill="#E527BB"/>
<path d="M152.288 151.144C159.763 138.02 160.19 121.815 153.431 108.319L153.455 108.307L152.76 107.022C152.745 106.996 152.73 106.972 152.715 106.945L152.145 105.887L152.124 105.899C147.735 98.2819 141.474 92.2057 133.945 88.2899C126.572 84.4547 118.193 82.7382 109.703 83.3252C92.0201 84.553 77.121 95.3317 70.4815 111.582L70.4577 111.573L69.9474 112.938L69.4342 114.311L69.458 114.32C65.3013 126.655 66.6769 140.103 73.3134 151.448C80.0602 162.981 91.2592 170.908 104.201 173.372L104.198 173.396L105.639 173.623C105.642 173.623 107.089 173.852 107.089 173.852L107.092 173.828C108.963 174.061 110.84 174.18 112.711 174.18C119.291 174.18 125.808 172.744 131.869 169.925C139.627 166.316 146.147 160.678 150.802 153.567L150.832 153.585L151.118 153.117L151.124 153.12L151.584 152.351C151.656 152.235 151.742 152.089 151.79 152.006L151.82 151.955C151.829 151.943 151.835 151.928 151.843 151.916L152.306 151.159L152.288 151.144ZM147.878 111.415C148.743 110.962 149.737 110.443 150.918 109.827C157.119 122.372 156.713 137.386 149.82 149.58L149.543 149.416C148.006 148.507 147.338 148.111 144.273 146.245L115.609 128.741L139.403 115.891C142.897 114.016 144.33 113.268 147.878 111.415ZM73.2268 112.592C79.4634 97.4356 93.3868 87.387 109.909 86.2397C126.232 85.1073 141.256 93.0848 149.468 107.136L138.01 113.322C135.643 114.595 132.337 116.38 126.802 119.372C123.254 121.288 118.793 123.699 113.075 126.786L112.723 126.977L111.571 126.273L111.509 126.676L93.3898 120.009L73.2268 112.592ZM75.8408 149.973C69.649 139.385 68.348 126.842 72.2033 115.331L99.4443 125.355L111.043 129.623L104.654 170.482C92.5871 168.157 82.143 160.743 75.8408 149.973ZM107.546 170.938L113.782 131.056L130.015 140.971C136.559 144.97 140.304 147.256 142.662 148.692L148.266 152.113C139.326 165.651 123.618 172.91 107.546 170.938Z" fill="#E7F3FE"/>
<path d="M227.987 316.538C293.945 316.538 347.415 263.14 347.415 197.269C347.415 131.399 293.945 78 227.987 78C162.028 78 108.558 131.399 108.558 197.269C108.558 263.14 162.028 316.538 227.987 316.538Z" fill="#E527BB"/>
<path d="M227.828 294.856C281.106 294.856 324.295 251.724 324.295 198.518C324.295 145.312 281.106 102.18 227.828 102.18C174.551 102.18 131.361 145.312 131.361 198.518C131.361 251.724 174.551 294.856 227.828 294.856Z" fill="#232E4F"/>
<path d="M227.987 287.203C278.588 287.203 319.608 246.238 319.608 195.705C319.608 145.172 278.588 104.206 227.987 104.206C177.386 104.206 136.366 145.172 136.366 195.705C136.366 246.238 177.386 287.203 227.987 287.203Z" fill="white"/>
<path d="M227.989 198.92C226.873 198.92 225.79 198.342 225.193 197.305C224.307 195.764 224.841 193.8 226.384 192.915L261.088 173.024C262.631 172.139 264.597 172.672 265.483 174.213C266.37 175.753 265.835 177.717 264.293 178.602L229.589 198.494C229.084 198.783 228.532 198.92 227.989 198.92Z" fill="#A78BEF"/>
<path d="M227.99 198.115C227.151 198.115 226.333 197.677 225.889 196.897L199.26 150.131C198.6 148.975 199.006 147.503 200.164 146.844C201.321 146.186 202.796 146.591 203.455 147.747L230.084 194.513C230.744 195.669 230.338 197.141 229.18 197.8C228.804 198.014 228.392 198.115 227.99 198.115Z" fill="#E527BB"/>
<path d="M232.418 195.705C232.418 198.148 230.433 200.13 227.986 200.13C225.54 200.13 223.555 198.148 223.555 195.705C223.555 193.261 225.54 191.279 227.986 191.279C230.433 191.282 232.418 193.261 232.418 195.705Z" fill="black"/>
<path d="M223.274 133.732H219.097V119.905H215.068V116.958L223.274 115.694V133.732Z" fill="#212D51"/>
<path d="M241.721 133.732H229.09V131.008L234.891 124.917C235.625 124.077 236.168 123.326 236.514 122.664C236.861 122.003 237.037 121.431 237.037 120.945C237.037 120.251 236.861 119.699 236.508 119.285C236.156 118.874 235.631 118.665 234.927 118.665C234.297 118.665 233.805 118.93 233.447 119.464C233.089 119.997 232.907 120.674 232.907 121.499H228.816L228.792 121.425C228.75 119.759 229.296 118.343 230.427 117.184C231.558 116.025 233.059 115.444 234.927 115.444C236.911 115.444 238.457 115.93 239.57 116.904C240.68 117.879 241.238 119.211 241.238 120.903C241.238 122.042 240.943 123.049 240.352 123.925C239.761 124.801 238.672 126.1 237.084 127.826L234.643 130.439L234.679 130.514H241.721V133.732Z" fill="#212D51"/>
<path d="M229.162 254.211C229.872 254.211 230.505 254.271 231.06 254.39C231.615 254.509 232.224 254.703 232.895 254.965L232.2 258.011C231.621 257.838 231.116 257.707 230.681 257.62C230.248 257.534 229.75 257.489 229.186 257.489C228.195 257.489 227.398 257.838 226.799 258.535C226.199 259.233 225.912 260.249 225.936 261.587L225.972 261.649C226.336 261.238 226.82 260.916 227.422 260.684C228.025 260.454 228.711 260.338 229.481 260.338C231.093 260.338 232.346 260.919 233.244 262.078C234.139 263.238 234.59 264.722 234.59 266.528C234.59 268.31 233.996 269.794 232.811 270.977C231.627 272.16 230.111 272.753 228.27 272.753C226.294 272.753 224.701 272.106 223.483 270.81C222.269 269.514 221.66 267.74 221.66 265.488V261.861C221.66 259.483 222.361 257.614 223.761 256.252C225.166 254.894 226.966 254.211 229.162 254.211ZM228.332 263.557C227.753 263.557 227.255 263.634 226.837 263.792C226.42 263.947 226.091 264.167 225.853 264.445V265.505C225.853 266.805 226.065 267.8 226.491 268.494C226.918 269.189 227.509 269.537 228.27 269.537C228.896 269.537 229.41 269.242 229.806 268.649C230.203 268.056 230.4 267.356 230.4 266.542C230.4 265.631 230.209 264.903 229.824 264.367C229.442 263.828 228.944 263.557 228.332 263.557Z" fill="#212D51"/>
<path d="M154.374 200.157C155.209 200.157 155.899 199.859 156.445 199.26C156.991 198.661 157.262 197.835 157.262 196.777V195.985C156.857 196.479 156.385 196.852 155.848 197.105C155.311 197.356 154.741 197.484 154.138 197.484C152.494 197.484 151.208 196.929 150.277 195.818C149.346 194.709 148.883 193.192 148.883 191.267C148.883 189.476 149.471 187.957 150.644 186.705C151.817 185.453 153.329 184.831 155.18 184.831C156.997 184.831 158.495 185.486 159.673 186.797C160.852 188.109 161.44 189.914 161.44 192.206V196.488C161.44 198.568 160.772 200.234 159.432 201.489C158.092 202.743 156.406 203.369 154.374 203.369C153.753 203.369 153.112 203.301 152.446 203.164C151.781 203.027 151.145 202.836 150.542 202.588L150.975 199.605C151.554 199.796 152.1 199.933 152.616 200.02C153.136 200.112 153.72 200.157 154.374 200.157ZM155.054 194.474C155.526 194.474 155.949 194.39 156.325 194.227C156.701 194.063 157.015 193.833 157.262 193.544V191.688C157.262 190.508 157.065 189.605 156.675 188.982C156.281 188.359 155.779 188.046 155.168 188.046C154.523 188.046 154.013 188.371 153.637 189.023C153.261 189.676 153.073 190.421 153.073 191.264C153.073 192.254 153.237 193.038 153.568 193.61C153.899 194.188 154.395 194.474 155.054 194.474Z" fill="#212D51"/>
<path d="M298.313 192.355H300.283C301.035 192.355 301.614 192.153 302.019 191.747C302.425 191.342 302.628 190.782 302.628 190.064C302.628 189.494 302.446 189.015 302.082 188.627C301.718 188.24 301.19 188.046 300.495 188.046C299.949 188.046 299.471 188.204 299.056 188.517C298.645 188.83 298.436 189.235 298.436 189.73H294.368L294.345 189.655C294.294 188.219 294.861 187.057 296.043 186.166C297.224 185.275 298.659 184.828 300.342 184.828C302.3 184.828 303.867 185.275 305.039 186.172C306.212 187.069 306.8 188.335 306.8 189.977C306.8 190.794 306.546 191.548 306.039 192.236C305.532 192.924 304.851 193.464 304.001 193.851C304.968 194.206 305.723 194.745 306.269 195.466C306.815 196.187 307.086 197.052 307.086 198.059C307.086 199.71 306.454 201.006 305.188 201.951C303.923 202.895 302.309 203.369 300.342 203.369C298.648 203.369 297.167 202.925 295.899 202.037C294.631 201.149 294.016 199.865 294.058 198.181L294.082 198.107H298.173C298.173 198.685 298.397 199.17 298.847 199.561C299.298 199.954 299.844 200.148 300.489 200.148C301.223 200.148 301.811 199.942 302.249 199.528C302.688 199.117 302.906 198.595 302.906 197.97C302.906 197.093 302.676 196.459 302.216 196.056C301.757 195.657 301.112 195.457 300.277 195.457H298.307V192.355H298.313Z" fill="#212D51"/>
<path d="M396.577 273.59C393.131 273.59 390.329 270.789 390.329 267.35C390.329 263.908 393.131 261.11 396.577 261.11C400.024 261.11 402.826 263.911 402.826 267.35C402.826 270.792 400.024 273.59 396.577 273.59ZM396.577 262.597C393.954 262.597 391.818 264.728 391.818 267.35C391.818 269.97 393.951 272.103 396.577 272.103C399.2 272.103 401.337 269.973 401.337 267.35C401.337 264.728 399.2 262.597 396.577 262.597Z" fill="#A78BEF"/>
<path d="M388.738 273.59C385.292 273.59 382.49 270.789 382.49 267.35C382.49 263.908 385.295 261.11 388.738 261.11C392.185 261.11 394.987 263.911 394.987 267.35C394.987 270.792 392.185 273.59 388.738 273.59ZM388.738 262.597C386.115 262.597 383.979 264.728 383.979 267.35C383.979 269.97 386.112 272.103 388.738 272.103C391.361 272.103 393.498 269.973 393.498 267.35C393.498 264.728 391.361 262.597 388.738 262.597Z" fill="#A78BEF"/>
<path d="M380.237 273.59C376.79 273.59 373.988 270.789 373.988 267.35C373.988 263.908 376.79 261.11 380.237 261.11C383.683 261.11 386.485 263.911 386.485 267.35C386.485 270.792 383.68 273.59 380.237 273.59ZM380.237 262.597C377.614 262.597 375.477 264.728 375.477 267.35C375.477 269.97 377.611 272.103 380.237 272.103C382.86 272.103 384.996 269.973 384.996 267.35C384.996 264.728 382.86 262.597 380.237 262.597Z" fill="#A78BEF"/>
<path d="M372.397 273.59C368.951 273.59 366.149 270.789 366.149 267.35C366.149 263.908 368.954 261.11 372.397 261.11C375.844 261.11 378.646 263.911 378.646 267.35C378.646 270.792 375.844 273.59 372.397 273.59ZM372.397 262.597C369.775 262.597 367.638 264.728 367.638 267.35C367.638 269.97 369.772 272.103 372.397 272.103C375.02 272.103 377.157 269.973 377.157 267.35C377.157 264.728 375.02 262.597 372.397 262.597Z" fill="#A78BEF"/>
<path d="M364.251 273.59C360.805 273.59 358.003 270.789 358.003 267.35C358.003 263.908 360.808 261.11 364.251 261.11C367.698 261.11 370.5 263.911 370.5 267.35C370.503 270.792 367.698 273.59 364.251 273.59ZM364.251 262.597C361.628 262.597 359.492 264.728 359.492 267.35C359.492 269.97 361.625 272.103 364.251 272.103C366.874 272.103 369.011 269.973 369.011 267.35C369.011 264.728 366.877 262.597 364.251 262.597Z" fill="#A78BEF"/>
<path d="M356.415 273.59C352.969 273.59 350.167 270.789 350.167 267.35C350.167 263.908 352.972 261.11 356.415 261.11C359.862 261.11 362.664 263.911 362.664 267.35C362.664 270.792 359.859 273.59 356.415 273.59ZM356.415 262.597C353.793 262.597 351.656 264.728 351.656 267.35C351.656 269.97 353.79 272.103 356.415 272.103C359.038 272.103 361.175 269.973 361.175 267.35C361.175 264.728 359.038 262.597 356.415 262.597Z" fill="#A78BEF"/>
<path d="M347.654 273.59C344.208 273.59 341.406 270.789 341.406 267.35C341.406 263.908 344.211 261.11 347.654 261.11C351.101 261.11 353.903 263.911 353.903 267.35C353.906 270.792 351.101 273.59 347.654 273.59ZM347.654 262.597C345.031 262.597 342.895 264.728 342.895 267.35C342.895 269.97 345.028 272.103 347.654 272.103C350.277 272.103 352.414 269.973 352.414 267.35C352.414 264.728 350.28 262.597 347.654 262.597Z" fill="#A78BEF"/>
<path d="M402.912 321.167H316.053C315.06 321.167 314.406 320.362 314.594 319.37L324.033 269.144C324.218 268.152 325.176 267.347 326.169 267.347H413.028C414.021 267.347 414.675 268.152 414.49 269.144L405.051 319.37C404.863 320.362 403.906 321.167 402.912 321.167Z" fill="#212D51"/>
<path d="M404.538 321.167H317.68C316.686 321.167 316.033 320.362 316.221 319.37L325.659 269.144C325.844 268.152 326.802 267.347 327.796 267.347H414.654C415.648 267.347 416.301 268.152 416.113 269.144L406.675 319.37C406.487 320.362 405.532 321.167 404.538 321.167Z" fill="#D11EAF"/>
<path d="M422.063 321.167H335.205C334.211 321.167 333.265 320.362 333.089 319.37L324.221 269.144C324.045 268.152 324.71 267.347 325.701 267.347H412.559C413.553 267.347 414.499 268.152 414.675 269.144L423.543 319.37C423.719 320.362 423.057 321.167 422.063 321.167Z" fill="#212D51"/>
<path d="M423.875 321.167H337.016C336.023 321.167 335.077 320.362 334.901 319.37L326.032 269.144C325.856 268.152 326.522 267.347 327.512 267.347H414.371C415.364 267.347 416.31 268.152 416.486 269.144L425.355 319.37C425.531 320.362 424.868 321.167 423.875 321.167Z" fill="#E527BB"/>
<path d="M400.701 272.256C400.999 273.09 400.74 273.766 400.116 273.766C399.492 273.766 398.746 273.09 398.448 272.256C398.149 271.421 398.409 270.745 399.033 270.745C399.656 270.742 400.402 271.421 400.701 272.256Z" fill="#212D51"/>
<path d="M392.748 272.256C393.047 273.09 392.787 273.766 392.163 273.766C391.54 273.766 390.794 273.09 390.495 272.256C390.197 271.421 390.456 270.745 391.08 270.745C391.701 270.742 392.45 271.421 392.748 272.256Z" fill="#212D51"/>
<path d="M383.916 272.255C384.214 273.09 383.954 273.766 383.331 273.766C382.707 273.766 381.961 273.09 381.663 272.255C381.364 271.421 381.624 270.745 382.248 270.745C382.871 270.745 383.617 271.421 383.916 272.255Z" fill="#212D51"/>
<path d="M375.963 272.256C376.262 273.09 376.002 273.766 375.379 273.766C374.755 273.766 374.009 273.09 373.711 272.256C373.412 271.421 373.672 270.745 374.295 270.745C374.916 270.742 375.662 271.421 375.963 272.256Z" fill="#212D51"/>
<path d="M368.274 272.395C368.572 273.23 368.312 273.906 367.689 273.906C367.065 273.906 366.319 273.23 366.021 272.395C365.722 271.561 365.982 270.885 366.606 270.885C367.229 270.885 367.975 271.561 368.274 272.395Z" fill="#212D51"/>
<path d="M360.736 272.395C361.034 273.23 360.775 273.906 360.151 273.906C359.527 273.906 358.781 273.23 358.483 272.395C358.185 271.561 358.444 270.885 359.068 270.885C359.692 270.885 360.435 271.561 360.736 272.395Z" fill="#212D51"/>
<path d="M352.333 272.395C352.632 273.23 352.372 273.906 351.748 273.906C351.125 273.906 350.379 273.23 350.08 272.395C349.782 271.561 350.041 270.885 350.665 270.885C351.289 270.885 352.035 271.561 352.333 272.395Z" fill="#212D51"/>
<path d="M399.206 272.926C398.943 272.926 398.687 272.786 398.549 272.539C398.353 272.178 398.487 271.725 398.848 271.528C400.382 270.694 401.337 269.094 401.337 267.35C401.337 264.731 399.203 262.597 396.577 262.597C396.165 262.597 395.831 262.263 395.831 261.852C395.831 261.441 396.165 261.107 396.577 261.107C400.024 261.107 402.826 263.908 402.826 267.347C402.826 269.636 401.575 271.737 399.561 272.834C399.448 272.896 399.325 272.926 399.206 272.926Z" fill="#A78BEF"/>
<path d="M391.334 272.944C391.069 272.944 390.812 272.801 390.678 272.551C390.484 272.187 390.621 271.737 390.982 271.543C392.534 270.712 393.498 269.106 393.498 267.35C393.498 264.808 391.507 262.722 388.965 262.603C388.553 262.585 388.237 262.237 388.255 261.825C388.273 261.414 388.625 261.098 389.033 261.116C392.37 261.274 394.984 264.013 394.984 267.35C394.984 269.657 393.718 271.767 391.68 272.854C391.573 272.914 391.453 272.944 391.334 272.944Z" fill="#A78BEF"/>
<path d="M382.579 273.069C382.299 273.069 382.03 272.911 381.905 272.643C381.729 272.27 381.89 271.826 382.263 271.654C383.925 270.873 384.996 269.183 384.996 267.35C384.996 264.805 383.003 262.719 380.46 262.603C380.049 262.585 379.732 262.237 379.75 261.825C379.768 261.414 380.114 261.095 380.529 261.116C383.871 261.271 386.488 264.007 386.488 267.35C386.488 269.758 385.08 271.975 382.898 273.001C382.791 273.048 382.684 273.069 382.579 273.069Z" fill="#A78BEF"/>
<path d="M374.582 273.14C374.293 273.14 374.021 272.974 373.899 272.69C373.735 272.312 373.908 271.874 374.287 271.713C376.032 270.959 377.157 269.246 377.157 267.347C377.157 264.802 375.164 262.716 372.622 262.6C372.21 262.582 371.893 262.234 371.911 261.822C371.929 261.411 372.278 261.092 372.69 261.113C376.032 261.265 378.649 264.004 378.649 267.347C378.649 269.839 377.169 272.088 374.88 273.078C374.782 273.123 374.681 273.14 374.582 273.14Z" fill="#A78BEF"/>
<path d="M366.737 273C366.466 273 366.203 272.851 366.072 272.592C365.887 272.226 366.033 271.779 366.4 271.591C368.011 270.774 369.011 269.15 369.011 267.347C369.011 264.814 367.03 262.731 364.499 262.6C364.087 262.579 363.771 262.231 363.792 261.819C363.813 261.408 364.165 261.095 364.574 261.113C367.895 261.283 370.497 264.022 370.497 267.347C370.497 269.713 369.184 271.847 367.068 272.917C366.967 272.974 366.851 273 366.737 273Z" fill="#A78BEF"/>
<path d="M359.157 272.86C358.901 272.86 358.65 272.726 358.51 272.488C358.304 272.133 358.426 271.677 358.784 271.472C360.259 270.625 361.172 269.046 361.172 267.35C361.172 264.883 359.319 262.847 356.863 262.618C356.454 262.579 356.153 262.216 356.191 261.807C356.23 261.399 356.591 261.098 357.003 261.137C358.546 261.28 359.972 261.992 361.022 263.137C362.079 264.29 362.661 265.786 362.661 267.35C362.661 269.576 361.461 271.65 359.527 272.762C359.411 272.828 359.286 272.86 359.157 272.86Z" fill="#A78BEF"/>
<path d="M350.671 272.693C350.429 272.693 350.191 272.574 350.047 272.357C349.821 272.014 349.916 271.552 350.262 271.326C351.611 270.443 352.414 268.956 352.414 267.347C352.414 264.963 350.632 262.937 348.269 262.633C347.86 262.579 347.574 262.207 347.624 261.798C347.678 261.39 348.051 261.104 348.46 261.155C351.563 261.554 353.903 264.215 353.903 267.344C353.903 269.454 352.846 271.406 351.077 272.565C350.955 272.655 350.811 272.693 350.671 272.693Z" fill="#A78BEF"/>
<path d="M421.043 319.515H339.266C338.4 319.515 337.577 318.815 337.425 317.951L330.296 277.569C330.144 276.704 330.72 276.004 331.585 276.004H413.362C414.227 276.004 415.051 276.704 415.203 277.569L422.332 317.951C422.484 318.815 421.908 319.515 421.043 319.515Z" fill="white"/>
<path d="M419.199 316.884H340.179L340.167 316.821L333.423 278.633H412.443L412.455 278.695L419.199 316.884ZM340.304 316.735H419.023L412.321 278.785H333.602L340.304 316.735Z" fill="#9EC8FF"/>
<path d="M417.763 309.115H338.896V309.264H417.763V309.115Z" fill="#9EC8FF"/>
<path d="M416.418 301.495H337.55V301.644H416.418V301.495Z" fill="#9EC8FF"/>
<path d="M415.072 293.875H336.205V294.024H415.072V293.875Z" fill="#9EC8FF"/>
<path d="M413.726 286.255H334.859V286.404H413.726V286.255Z" fill="#9EC8FF"/>
<path d="M401.176 278.712L401.029 278.738L407.756 316.836L407.903 316.81L401.176 278.712Z" fill="#9EC8FF"/>
<path d="M389.911 278.711L389.764 278.737L396.491 316.835L396.638 316.809L389.911 278.711Z" fill="#9EC8FF"/>
<path d="M378.644 278.71L378.497 278.736L385.224 316.834L385.371 316.808L378.644 278.71Z" fill="#9EC8FF"/>
<path d="M367.376 278.71L367.229 278.736L373.957 316.834L374.104 316.808L367.376 278.71Z" fill="#9EC8FF"/>
<path d="M356.109 278.71L355.962 278.736L362.689 316.834L362.836 316.808L356.109 278.71Z" fill="#9EC8FF"/>
<path d="M344.841 278.709L344.694 278.735L351.422 316.833L351.569 316.807L344.841 278.709Z" fill="#9EC8FF"/>
<path d="M410.282 283.52H407.629C406.618 283.52 405.645 282.694 405.466 281.684C405.287 280.674 405.97 279.848 406.982 279.848H409.635C410.646 279.848 411.619 280.674 411.798 281.684C411.974 282.694 411.294 283.52 410.282 283.52Z" fill="#E527BB"/>
<path d="M413.959 298.897H409.381C408.898 298.897 408.435 298.503 408.349 298.021L408.009 296.099C407.922 295.616 408.247 295.222 408.731 295.222H413.308C413.792 295.222 414.254 295.616 414.341 296.099L414.681 298.021C414.767 298.503 414.442 298.897 413.959 298.897Z" fill="#A78BEF"/>
<path d="M355.887 292.832H349.662C348.973 292.832 348.313 292.269 348.191 291.584L347.675 288.657C347.552 287.969 348.018 287.409 348.704 287.409H354.929C355.618 287.409 356.278 287.972 356.4 288.657L356.916 291.584C357.039 292.269 356.573 292.832 355.887 292.832Z" fill="#A78BEF"/>
<path d="M354.875 292.069H350.405C349.91 292.069 349.436 291.667 349.349 291.172L348.979 289.072C348.893 288.577 349.224 288.175 349.719 288.175H354.189C354.684 288.175 355.159 288.577 355.246 289.072L355.616 291.172C355.702 291.664 355.368 292.069 354.875 292.069Z" fill="white"/>
<path d="M405.078 315.641H398.854C398.164 315.641 397.505 315.078 397.382 314.393L396.866 311.466C396.744 310.778 397.209 310.218 397.896 310.218H404.12C404.81 310.218 405.469 310.781 405.591 311.466L406.108 314.393C406.23 315.078 405.768 315.641 405.078 315.641Z" fill="#A78BEF"/>
<path d="M404.067 314.879H399.597C399.101 314.879 398.627 314.476 398.54 313.982L398.17 311.881C398.084 311.386 398.415 310.984 398.911 310.984H403.381C403.876 310.984 404.35 311.389 404.437 311.881L404.807 313.982C404.893 314.473 404.562 314.879 404.067 314.879Z" fill="white"/>
<path d="M378.526 288.988H373.651C373.322 288.988 373.003 288.72 372.946 288.389C372.89 288.061 373.111 287.79 373.439 287.79H378.315C378.643 287.79 378.962 288.058 379.019 288.389C379.079 288.72 378.858 288.988 378.526 288.988Z" fill="#E527BB"/>
<path d="M378.861 290.869H373.985C373.657 290.869 373.338 290.6 373.281 290.27C373.224 289.942 373.445 289.671 373.773 289.671H378.649C378.977 289.671 379.297 289.939 379.353 290.27C379.41 290.597 379.189 290.869 378.861 290.869Z" fill="#E527BB"/>
<path d="M371.753 311.669H366.877C366.549 311.669 366.23 311.401 366.173 311.07C366.116 310.742 366.337 310.471 366.665 310.471H371.541C371.869 310.471 372.189 310.739 372.245 311.07C372.305 311.401 372.084 311.669 371.753 311.669Z" fill="#E527BB"/>
<path d="M372.087 313.55H367.211C366.883 313.55 366.564 313.281 366.507 312.951C366.45 312.623 366.671 312.352 366.999 312.352H371.875C372.203 312.352 372.523 312.62 372.579 312.951C372.636 313.278 372.415 313.55 372.087 313.55Z" fill="#E527BB"/>
<path d="M343.966 297.446H339.09C338.762 297.446 338.443 297.177 338.386 296.847C338.329 296.519 338.55 296.248 338.878 296.248H343.754C344.082 296.248 344.402 296.516 344.458 296.847C344.518 297.177 344.294 297.446 343.966 297.446Z" fill="#A78BEF"/>
<path d="M344.297 299.326H339.421C339.093 299.326 338.774 299.058 338.717 298.727C338.66 298.399 338.881 298.128 339.209 298.128H344.085C344.413 298.128 344.733 298.396 344.789 298.727C344.849 299.055 344.625 299.326 344.297 299.326Z" fill="#A78BEF"/>
<path d="M359.381 308.337H352.157C351.533 308.337 350.93 307.828 350.82 307.202L350.247 303.963C350.137 303.34 350.557 302.827 351.184 302.827H358.408C359.032 302.827 359.635 303.337 359.745 303.963L360.318 307.202C360.426 307.825 360.005 308.337 359.381 308.337Z" fill="#E527BB"/>
<path d="M354.997 307.011C354.959 307.011 354.923 306.996 354.896 306.97L353.276 305.438C353.216 305.381 353.213 305.286 353.27 305.226C353.326 305.167 353.422 305.164 353.482 305.22L354.989 306.645L357.274 303.945C357.328 303.882 357.42 303.873 357.483 303.927C357.546 303.981 357.555 304.073 357.501 304.136L355.114 306.958C355.087 306.988 355.048 307.008 355.009 307.011C355.003 307.011 355 307.011 354.997 307.011Z" fill="white"/>
<path d="M389.031 285.144H381.806C381.183 285.144 380.58 284.634 380.469 284.009L379.897 280.769C379.786 280.147 380.207 279.634 380.833 279.634H388.058C388.681 279.634 389.284 280.144 389.395 280.769L389.968 284.009C390.078 284.634 389.657 285.144 389.031 285.144Z" fill="#E527BB"/>
<path d="M384.647 283.818C384.608 283.818 384.572 283.803 384.545 283.776L382.925 282.245C382.865 282.188 382.862 282.093 382.919 282.033C382.976 281.973 383.071 281.97 383.131 282.027L384.638 283.451L386.924 280.752C386.977 280.689 387.07 280.68 387.133 280.734C387.195 280.787 387.204 280.88 387.15 280.942L384.763 283.764C384.736 283.794 384.698 283.815 384.659 283.818C384.653 283.818 384.65 283.818 384.647 283.818Z" fill="white"/>
<path d="M391.304 305.39C391.555 306.806 390.609 307.953 389.191 307.953C387.774 307.953 386.422 306.806 386.172 305.39C385.921 303.975 386.867 302.827 388.284 302.827C389.702 302.827 391.053 303.975 391.304 305.39Z" fill="#A78BEF"/>
<path d="M359.45 313.207C359.701 314.622 358.755 315.77 357.337 315.77C355.92 315.77 354.568 314.622 354.318 313.207C354.067 311.791 355.013 310.644 356.43 310.644C357.848 310.644 359.202 311.791 359.45 313.207Z" fill="#E527BB"/>
<path d="M76.7751 197.886H102.136C102.136 211.779 90.6866 223.213 76.7751 223.213C62.8637 223.213 51.4141 211.779 51.4141 197.886C51.4141 183.993 62.8637 172.559 76.7751 172.559V197.886Z" fill="#E527BB"/>
<path d="M106.385 194.34C106.385 180.352 95.0313 169.013 81.0244 169.013V194.34H106.385Z" fill="#A78BEF"/>
<path d="M71.4457 283.955H55.7588V317.012H71.4457V283.955Z" fill="#9EC8FF"/>
<path d="M119.93 249.414H104.243V317.012H119.93V249.414Z" fill="#9EC8FF"/>
<path d="M144.172 282.247H128.485V317.015H144.172V282.247Z" fill="#9EC8FF"/>
<path d="M168.414 272.404H152.727V317.012H168.414V272.404Z" fill="#9EC8FF"/>
<path d="M95.6879 262.126H80.001V317.012H95.6879V262.126Z" fill="#9EC8FF"/>
<path d="M192.74 232.687H177.053V317.012H192.74V232.687Z" fill="#9EC8FF"/>
<path d="M71.4097 285.522H57.3281V318.58H71.4097V285.522Z" fill="#E527BB"/>
<path d="M119.894 250.978H105.812V318.58H119.894V250.978Z" fill="#E527BB"/>
<path d="M144.136 283.812H130.055V318.58H144.136V283.812Z" fill="#A78BEF"/>
<path d="M168.378 273.972H154.297V318.58H168.378V273.972Z" fill="#A78BEF"/>
<path d="M95.6518 263.694H81.5703V318.58H95.6518V263.694Z" fill="#A78BEF"/>
<path d="M192.701 234.254H178.619V318.58H192.701V234.254Z" fill="#E527BB"/>
<path d="M51.417 274.908C50.6531 274.908 49.9011 274.547 49.4327 273.871C48.6717 272.777 48.9433 271.275 50.0384 270.515L111.476 227.898C112.479 227.201 113.848 227.364 114.66 228.279L137.24 253.708L185.605 207.512C186.569 206.591 188.096 206.623 189.019 207.589C189.941 208.552 189.905 210.077 188.941 210.998L138.765 258.923C138.29 259.376 137.649 259.617 136.998 259.59C136.342 259.563 135.727 259.271 135.291 258.78L112.47 233.08L52.7926 274.475C52.3719 274.768 51.8915 274.908 51.417 274.908Z" fill="#A78BEF"/>
<path d="M186.449 222.081C186.288 222.081 186.127 222.066 185.963 222.03C184.656 221.762 183.815 220.489 184.083 219.184L185.817 210.718L176.566 211.654C175.242 211.788 174.057 210.822 173.923 209.496C173.788 208.17 174.755 206.99 176.083 206.856L188.601 205.592C189.365 205.515 190.12 205.807 190.636 206.373C191.152 206.942 191.364 207.723 191.209 208.474L188.816 220.153C188.577 221.294 187.571 222.081 186.449 222.081Z" fill="#A78BEF"/>
<path d="M236.16 315.671C236.16 315.671 191.668 284.81 172.848 302.604C157.821 316.812 184.495 333.506 218.62 329.019C242.641 325.86 245.362 330.449 249.57 330.348C280.878 327.952 323.063 318.597 302.533 303.903C274.567 283.883 255.648 305.107 245.906 310.39C236.16 315.671 236.16 315.671 236.16 315.671Z" fill="black"/>
<path d="M293.686 303.161C281.991 300.75 237.443 317.251 237.443 317.251C237.443 317.251 198.648 305.569 189.368 304.457C180.087 303.346 175.817 306.868 175.817 306.868C175.817 306.868 180.195 301.939 185.283 301.492C190.37 301.045 197.72 299.823 197.72 299.823C197.72 299.823 271.968 296.301 281.806 298.527C291.642 300.75 293.686 303.161 293.686 303.161Z" fill="#1B243D"/>
<path d="M230.592 243.102C228.828 243.379 201.402 255.326 201.065 260.332C200.728 265.336 208.579 305.938 223.761 311.222C238.944 316.506 255.926 311.222 255.926 311.222C255.926 311.222 273.744 267.291 268.456 258.95C263.165 250.608 239.222 243.102 239.222 243.102H230.592Z" fill="#A78BEF"/>
<path d="M210.432 252.56C184.229 266.581 177.796 291.897 184.725 297.475C189.58 301.385 207.889 310.033 223.758 309.476C239.627 308.919 254.532 310.411 254.532 310.411C254.532 310.411 281.756 304.881 287.186 296.733C292.617 288.586 277.554 262.117 264.045 254.468C250.54 246.821 210.432 252.56 210.432 252.56Z" fill="#A78BEF"/>
<path d="M235.417 258.949C231.791 258.949 228.828 255.987 228.828 252.369V230.219C228.828 226.598 231.794 223.639 235.417 223.639C239.039 223.639 242.005 226.601 242.005 230.219V252.369C242.005 255.99 239.039 258.949 235.417 258.949Z" fill="#F09959"/>
<path d="M235.417 223.639C231.791 223.639 228.828 226.601 228.828 230.219V248.332C232.713 251.574 236.476 249.875 242.008 245.593V230.219C242.005 226.601 239.039 223.639 235.417 223.639Z" fill="#E38540"/>
<path d="M249.88 231.116C248.797 233.324 247.039 234.549 245.953 233.852C244.867 233.154 244.864 230.8 245.947 228.592C247.03 226.384 248.788 225.159 249.874 225.856C250.96 226.554 250.963 228.908 249.88 231.116Z" fill="#F09959"/>
<path d="M224.385 228.753C225.638 230.761 225.877 233.19 224.922 234.174C223.967 235.16 222.177 234.328 220.923 232.32C219.67 230.311 219.431 227.883 220.386 226.899C221.341 225.916 223.131 226.744 224.385 228.753Z" fill="#F09959"/>
<path d="M247.045 230.973C247.045 239.022 241.973 245.545 235.712 245.545C229.455 245.545 224.379 239.022 224.379 230.973C224.379 222.924 229.452 216.401 235.712 216.401C241.973 216.401 247.045 222.924 247.045 230.973Z" fill="#F09959"/>
<path d="M260.423 267.043C267.847 270.998 274.316 285.984 274.316 285.984C274.316 285.984 257.612 288.58 254.144 291.175C250.68 293.771 254.64 290.186 256.618 283.019C258.602 275.849 260.423 267.043 260.423 267.043Z" fill="#DAA7EE"/>
<path d="M208.734 265.961C210.467 273.87 218.757 295.952 218.757 295.952C218.757 295.952 211.079 287.218 202.918 286.723C194.757 286.229 191.728 286.106 191.781 288.082C191.79 288.472 193.142 279.309 199.453 273.623C205.762 267.94 208.734 265.961 208.734 265.961Z" fill="#DAA7EE"/>
<path d="M258.501 315.755H213.669C211.864 315.755 210.321 314.452 210.023 312.673L204.616 280.453C204.237 278.2 205.977 276.15 208.262 276.15H263.908C266.194 276.15 267.934 278.2 267.555 280.453L262.148 312.673C261.849 314.452 260.307 315.755 258.501 315.755Z" fill="#2A66C6"/>
<path d="M258.501 315.755H213.669C211.864 315.755 210.321 314.497 210.023 312.784L204.616 281.726C204.237 279.556 205.977 277.578 208.262 277.578H263.908C266.194 277.578 267.934 279.556 267.555 281.726L262.148 312.784C261.849 314.5 260.307 315.755 258.501 315.755Z" fill="#E527BB"/>
<path d="M242.006 328.449C241.737 328.405 213.052 321.235 206.648 326.515C200.244 331.799 228.085 331.888 233.098 330.732C238.108 329.573 242.006 328.449 242.006 328.449Z" fill="#DAA7EE"/>
<path d="M248.409 329.734C248.409 329.734 254.535 325.124 262.607 325.958C270.682 326.793 277.641 328.551 270.682 330.729C263.72 332.908 256.484 333.188 253.142 332.908C249.803 332.63 248.409 329.734 248.409 329.734Z" fill="#DAA7EE"/>
<path d="M232.096 210.432C224.734 212.661 227.297 233.357 235.712 232.675C244.127 231.992 244.47 223.043 243.874 217.247C243.277 211.454 239.69 208.131 232.096 210.432Z" fill="black"/>
<path d="M229.449 225.773C227.401 223.812 224.585 229.981 225.695 232.692C226.805 235.404 225.253 236.981 226.754 239.898C228.255 242.816 223.988 238.045 223.391 234.549C222.794 231.053 222.451 225.004 221.598 222.277C220.744 219.551 221.639 214.821 225.444 213.841C229.246 212.86 230.132 211.114 231.582 211.028C233.032 210.941 239.946 211.624 243.36 213.498C246.774 215.373 248.651 218.186 248.394 222.447C248.137 226.709 247.027 237.618 246.004 239.406C244.98 241.197 244.449 240.771 244.756 239.749C245.064 238.724 246.174 232.588 245.32 230.374C244.467 228.157 244.894 222.703 242.674 222.277C240.454 221.851 240.967 225.63 238.32 225.913C235.679 226.199 229.449 225.773 229.449 225.773Z" fill="black"/>
</g>
</g>
<defs>
<clipPath id="clip0_645_10757">
<rect width="532.49" height="330.06" fill="white"/>
</clipPath>
<clipPath id="clip1_645_10757">
<rect width="434" height="255" fill="white" transform="translate(49 78)"/>
</clipPath>
</defs>
</svg>
