<svg width="533" height="331" viewBox="0 0 533 331" fill="none" xmlns="http://www.w3.org/2000/svg">
<g clip-path="url(#clip0_814_10853)">
<path opacity="0.2" fill-rule="evenodd" clip-rule="evenodd" d="M95.62 234.95H48.52H47.29C21.28 234.95 0 256.23 0 282.24C0 308.25 21.28 329.53 47.29 329.53H185.35H209.13H455.92C498.04 329.53 532.5 295.07 532.5 252.96C532.5 210.84 498.04 176.39 455.93 176.39C438.12 176.39 423.55 161.82 423.55 144.01C423.55 126.2 438.12 111.63 455.93 111.63H494.9C513.41 111.63 528.56 96.48 528.56 77.97C528.56 59.46 513.41 44.31 494.9 44.31H445.63C438.42 44.31 432.53 38.41 432.53 31.2C432.53 23.99 438.43 18.1 445.63 18.1H454.32C459.29 18.1 463.36 14.03 463.36 9.06C463.36 4.09 459.29 0.02 454.32 0.02H421.77C421.77 0.02 409.33 0.02 397.33 0.02C385.33 0.02 383.99 14.2 353.67 14.2C306.8 14.2 330.23 14.2 283.36 14.2C276.87 14.2 271.56 19.51 271.56 26C271.56 32.49 276.87 37.8 283.36 37.8H294.69C304.1 37.8 311.79 45.5 311.79 54.9C311.79 64.31 304.1 72 294.69 72H260.58C214.52 72 208.01 84.04 199.95 107.98C191.88 131.92 149.99 133.85 149.99 133.85H92.67C78.5 133.85 66.9 145.45 66.9 159.62C66.9 173.79 78.5 185.39 92.67 185.39H95.62C109.25 185.39 120.41 196.54 120.41 210.18C120.4 223.8 109.25 234.95 95.62 234.95ZM479.68 18.09C474.68 18.09 470.63 14.04 470.63 9.05C470.63 4.06 474.68 0 479.68 0C484.67 0 488.72 4.05 488.72 9.04C488.72 14.03 484.67 18.09 479.68 18.09Z" fill="#999999"/>
<g clip-path="url(#clip1_814_10853)">
<path d="M350.062 134.131C350.532 132.651 350.927 131.131 351.237 129.57C351.401 128.747 351.536 127.927 351.65 127.107L344.511 123.127C344.679 119.822 344.365 116.574 343.624 113.463L349.917 108.251C349.156 105.963 348.199 103.75 347.064 101.638L338.939 102.609C337.166 99.8993 335.013 97.4368 332.538 95.3117L334.562 87.393C332.624 86.0011 330.555 84.7687 328.369 83.7127L322.367 89.2703C320.591 88.5973 318.739 88.0601 316.815 87.6778C315.503 87.4171 314.193 87.2382 312.892 87.1307L309.869 79.532C307.436 79.5431 305.039 79.7652 302.694 80.1859L301.111 88.2059C297.955 89.0595 294.952 90.3562 292.189 92.0396L285.276 87.6686C283.34 89.0892 281.524 90.673 279.853 92.4083L283.29 99.8222C281.275 102.315 279.592 105.114 278.323 108.161L270.167 108.68C269.696 110.16 269.301 111.68 268.991 113.24C268.828 114.064 268.693 114.884 268.579 115.704L275.718 119.683C275.549 122.989 275.864 126.237 276.607 129.348L270.314 134.56C271.075 136.848 272.031 139.061 273.166 141.173L281.291 140.202C283.065 142.912 285.217 145.374 287.692 147.499L285.669 155.418C287.607 156.81 289.676 158.042 291.861 159.098L297.863 153.541C299.639 154.214 301.491 154.751 303.416 155.133C304.728 155.394 306.038 155.573 307.338 155.68L310.362 163.279C312.794 163.268 315.192 163.046 317.536 162.625L319.12 154.605C322.275 153.752 325.279 152.455 328.041 150.772L334.954 155.142C336.891 153.722 338.706 152.138 340.378 150.403L336.941 142.989C338.956 140.496 340.638 137.698 341.908 134.65L350.062 134.131ZM306.916 137.51C298.009 135.741 292.22 127.094 293.987 118.198C295.754 109.303 304.408 103.525 313.316 105.294C322.223 107.064 328.012 115.711 326.245 124.606C324.476 133.503 315.824 139.279 306.916 137.51Z" fill="#A78BEF"/>
<path d="M328.464 144.143C328.327 144.116 328.2 144.044 328.107 143.928C327.892 143.665 327.934 143.279 328.197 143.064C333.219 139.001 336.675 133.272 337.935 126.931C338.538 123.895 338.634 120.814 338.218 117.773C338.171 117.436 338.407 117.128 338.744 117.081C339.08 117.037 339.389 117.27 339.436 117.607C339.87 120.781 339.772 123.998 339.143 127.168C337.827 133.791 334.215 139.775 328.972 144.017C328.823 144.138 328.638 144.178 328.464 144.143Z" fill="white"/>
<path d="M333.68 105.662C333.532 105.633 333.393 105.549 333.299 105.417C331.082 102.315 328.314 99.7467 325.068 97.784C324.778 97.608 324.685 97.2322 324.859 96.9419C325.035 96.6521 325.413 96.5602 325.702 96.7335C329.094 98.7831 331.986 101.464 334.298 104.703C334.494 104.979 334.431 105.363 334.153 105.559C334.012 105.663 333.838 105.693 333.68 105.662Z" fill="white"/>
<path d="M309.094 93.801C308.823 93.7473 308.616 93.5181 308.601 93.2297C308.584 92.8923 308.844 92.6028 309.182 92.5841C311.567 92.4638 313.974 92.6402 316.336 93.1096C316.669 93.1757 316.886 93.4995 316.82 93.8321C316.754 94.1647 316.43 94.3811 316.097 94.315C313.833 93.8652 311.527 93.6949 309.245 93.8124C309.194 93.8138 309.143 93.8108 309.094 93.801Z" fill="white"/>
<path d="M402.12 155.384C402.447 154.358 402.719 153.305 402.933 152.225C403.046 151.656 403.141 151.085 403.219 150.518L398.274 147.761C398.39 145.471 398.174 143.221 397.659 141.068L402.017 137.457C401.488 135.872 400.828 134.34 400.041 132.877L394.415 133.548C393.187 131.671 391.695 129.966 389.98 128.493L391.381 123.008C390.039 122.045 388.606 121.19 387.092 120.46L382.935 124.309C381.706 123.842 380.422 123.471 379.088 123.206C378.18 123.026 377.273 122.902 376.371 122.827L374.275 117.563C372.591 117.57 370.93 117.725 369.306 118.017L368.209 123.572C366.024 124.164 363.945 125.062 362.029 126.227L357.24 123.199C355.899 124.183 354.643 125.279 353.484 126.483L355.865 131.617C354.47 133.345 353.304 135.283 352.425 137.394L346.775 137.754C346.448 138.78 346.176 139.832 345.961 140.913C345.848 141.482 345.753 142.053 345.676 142.62L350.621 145.377C350.503 147.667 350.72 149.917 351.236 152.07L346.878 155.68C347.406 157.266 348.066 158.798 348.854 160.261L354.48 159.589C355.707 161.467 357.2 163.172 358.914 164.645L357.514 170.13C358.856 171.093 360.289 171.948 361.803 172.678L365.96 168.828C367.189 169.295 368.472 169.666 369.807 169.931C370.714 170.112 371.621 170.236 372.524 170.311L374.62 175.574C376.303 175.568 377.965 175.413 379.589 175.121L380.686 169.565C382.871 168.974 384.95 168.076 386.866 166.911L391.654 169.939C392.995 168.955 394.252 167.859 395.411 166.655L393.029 161.52C394.425 159.793 395.591 157.855 396.47 155.744L402.12 155.384ZM372.236 157.724C366.067 156.499 362.057 150.509 363.281 144.348C364.504 138.188 370.499 134.185 376.668 135.411C382.838 136.636 386.848 142.626 385.624 148.787C384.4 154.95 378.405 158.95 372.236 157.724Z" fill="#A78BEF"/>
<path d="M387.123 162.503C386.987 162.476 386.859 162.404 386.766 162.288C386.551 162.025 386.593 161.639 386.856 161.424C390.3 158.639 392.672 154.709 393.536 150.358C393.95 148.276 394.014 146.163 393.729 144.078C393.682 143.742 393.917 143.434 394.254 143.387C394.591 143.34 394.9 143.575 394.947 143.912C395.251 146.133 395.181 148.381 394.741 150.598C393.821 155.227 391.296 159.413 387.631 162.379C387.484 162.498 387.297 162.537 387.123 162.503Z" fill="white"/>
<path d="M390.738 135.851C390.59 135.821 390.451 135.738 390.357 135.606C388.837 133.478 386.938 131.717 384.712 130.37C384.422 130.194 384.329 129.819 384.503 129.526C384.68 129.236 385.058 129.144 385.346 129.318C387.717 130.752 389.74 132.627 391.356 134.89C391.552 135.166 391.49 135.55 391.212 135.745C391.07 135.852 390.899 135.883 390.738 135.851Z" fill="white"/>
<path d="M373.709 127.635C373.438 127.581 373.231 127.352 373.216 127.064C373.199 126.726 373.459 126.437 373.797 126.418C375.464 126.334 377.147 126.457 378.799 126.785C379.132 126.851 379.348 127.175 379.282 127.508C379.216 127.84 378.892 128.057 378.559 127.99C377.006 127.682 375.426 127.565 373.86 127.646C373.808 127.65 373.758 127.645 373.709 127.635Z" fill="white"/>
<path d="M150.298 151.639L112.676 128.663L105.869 172.178C123.543 174.961 141.074 166.691 150.298 151.639Z" fill="#A78BEF"/>
<path d="M150.337 151.589C150.438 151.422 150.57 151.195 150.567 151.204C158.513 137.91 158.832 121.404 151.542 107.851C138.228 114.818 146.156 110.586 112.676 128.666C150.361 151.678 144.509 148.129 150.337 151.589Z" fill="#A78BEF"/>
<path d="M71.3203 113.447L112.676 128.666L151.471 107.717C133.325 74.2004 84.4768 78.2174 71.3203 113.447Z" fill="#E527BB"/>
<path d="M105.872 172.177L112.678 128.663L71.3199 113.447C61.4846 139.776 78.941 167.94 105.872 172.177Z" fill="#E527BB"/>
<path d="M152.289 151.144C159.764 138.02 160.19 121.815 153.431 108.319L153.455 108.307L152.76 107.022C152.745 106.996 152.73 106.972 152.715 106.945L152.145 105.887L152.124 105.899C147.735 98.2819 141.475 92.2057 133.946 88.2899C126.572 84.4547 118.193 82.7382 109.704 83.3252C92.0206 84.553 77.1215 95.3317 70.482 111.582L70.4582 111.573L69.9479 112.938L69.4347 114.311L69.4585 114.32C65.3018 126.655 66.6774 140.103 73.3139 151.448C80.0607 162.981 91.2597 170.908 104.201 173.372L104.198 173.396L105.64 173.623C105.643 173.623 107.09 173.852 107.09 173.852L107.093 173.828C108.964 174.061 110.841 174.18 112.712 174.18C119.291 174.18 125.809 172.744 131.869 169.925C139.627 166.316 146.148 160.678 150.803 153.567L150.832 153.585L151.119 153.117L151.125 153.12L151.584 152.351C151.656 152.235 151.743 152.089 151.79 152.006L151.82 151.955C151.829 151.943 151.835 151.928 151.844 151.916L152.307 151.159L152.289 151.144ZM147.878 111.415C148.744 110.962 149.737 110.443 150.919 109.827C157.12 122.372 156.714 137.386 149.821 149.58L149.543 149.416C148.007 148.507 147.338 148.111 144.274 146.245L115.609 128.741L139.404 115.891C142.898 114.016 144.33 113.268 147.878 111.415ZM73.2273 112.592C79.4639 97.4356 93.3873 87.387 109.91 86.2397C126.232 85.1073 141.257 93.0848 149.469 107.136L138.01 113.322C135.644 114.595 132.338 116.38 126.802 119.372C123.254 121.288 118.793 123.699 113.076 126.786L112.724 126.977L111.572 126.273L111.509 126.676L93.3903 120.009L73.2273 112.592ZM75.8413 149.973C69.6495 139.385 68.3485 126.842 72.2038 115.331L99.4448 125.355L111.044 129.623L104.655 170.482C92.5876 168.157 82.1435 160.743 75.8413 149.973ZM107.546 170.938L113.783 131.056L130.016 140.971C136.56 144.97 140.305 147.256 142.662 148.692L148.266 152.113C139.326 165.651 123.618 172.91 107.546 170.938Z" fill="#E7F3FE"/>
<path d="M227.987 316.538C293.945 316.538 347.415 263.14 347.415 197.269C347.415 131.399 293.945 78 227.987 78C162.028 78 108.558 131.399 108.558 197.269C108.558 263.14 162.028 316.538 227.987 316.538Z" fill="#E527BB"/>
<path d="M227.828 294.856C281.106 294.856 324.295 251.724 324.295 198.518C324.295 145.312 281.106 102.18 227.828 102.18C174.551 102.18 131.361 145.312 131.361 198.518C131.361 251.724 174.551 294.856 227.828 294.856Z" fill="#232E4F"/>
<path d="M227.986 287.203C278.587 287.203 319.607 246.238 319.607 195.705C319.607 145.172 278.587 104.206 227.986 104.206C177.385 104.206 136.365 145.172 136.365 195.705C136.365 246.238 177.385 287.203 227.986 287.203Z" fill="white"/>
<path d="M227.99 198.92C226.874 198.92 225.791 198.342 225.194 197.305C224.308 195.764 224.842 193.8 226.384 192.915L261.088 173.024C262.631 172.139 264.598 172.672 265.484 174.213C266.37 175.753 265.836 177.717 264.293 178.602L229.589 198.494C229.085 198.783 228.533 198.92 227.99 198.92Z" fill="#A78BEF"/>
<path d="M227.99 198.115C227.151 198.115 226.333 197.677 225.889 196.897L199.26 150.131C198.6 148.975 199.006 147.503 200.164 146.844C201.321 146.186 202.796 146.591 203.455 147.747L230.084 194.513C230.744 195.669 230.338 197.141 229.18 197.8C228.804 198.014 228.392 198.115 227.99 198.115Z" fill="#E527BB"/>
<path d="M232.418 195.705C232.418 198.148 230.434 200.13 227.987 200.13C225.54 200.13 223.556 198.148 223.556 195.705C223.556 193.261 225.54 191.279 227.987 191.279C230.434 191.282 232.418 193.261 232.418 195.705Z" fill="black"/>
<path d="M223.275 133.732H219.098V119.905H215.069V116.958L223.275 115.694V133.732Z" fill="#212D51"/>
<path d="M241.723 133.732H229.092V131.008L234.893 124.917C235.627 124.077 236.17 123.326 236.516 122.664C236.862 122.003 237.038 121.431 237.038 120.945C237.038 120.251 236.862 119.699 236.51 119.285C236.158 118.874 235.633 118.665 234.928 118.665C234.299 118.665 233.806 118.93 233.448 119.464C233.09 119.997 232.908 120.674 232.908 121.499H228.817L228.793 121.425C228.751 119.759 229.298 118.343 230.428 117.184C231.559 116.025 233.06 115.444 234.928 115.444C236.913 115.444 238.458 115.93 239.571 116.904C240.682 117.879 241.24 119.211 241.24 120.903C241.24 122.042 240.944 123.049 240.353 123.925C239.762 124.801 238.673 126.1 237.086 127.826L234.645 130.439L234.681 130.514H241.723V133.732Z" fill="#212D51"/>
<path d="M229.163 254.211C229.873 254.211 230.506 254.271 231.061 254.39C231.616 254.509 232.225 254.703 232.896 254.965L232.201 258.011C231.622 257.838 231.117 257.707 230.682 257.62C230.249 257.534 229.751 257.489 229.187 257.489C228.196 257.489 227.399 257.838 226.8 258.535C226.2 259.233 225.913 260.249 225.937 261.587L225.973 261.649C226.337 261.238 226.82 260.916 227.423 260.684C228.026 260.454 228.712 260.338 229.482 260.338C231.094 260.338 232.347 260.919 233.245 262.078C234.14 263.238 234.591 264.722 234.591 266.528C234.591 268.31 233.997 269.794 232.812 270.977C231.628 272.16 230.112 272.753 228.271 272.753C226.295 272.753 224.702 272.106 223.484 270.81C222.27 269.514 221.661 267.74 221.661 265.488V261.861C221.661 259.483 222.362 257.614 223.762 256.252C225.167 254.894 226.967 254.211 229.163 254.211ZM228.333 263.557C227.754 263.557 227.256 263.634 226.838 263.792C226.421 263.947 226.092 264.167 225.854 264.445V265.505C225.854 266.805 226.066 267.8 226.492 268.494C226.919 269.189 227.51 269.537 228.271 269.537C228.897 269.537 229.411 269.242 229.807 268.649C230.204 268.056 230.401 267.356 230.401 266.542C230.401 265.631 230.21 264.903 229.825 264.367C229.443 263.828 228.945 263.557 228.333 263.557Z" fill="#212D51"/>
<path d="M154.374 200.157C155.21 200.157 155.899 199.859 156.445 199.26C156.991 198.661 157.263 197.835 157.263 196.777V195.985C156.857 196.479 156.386 196.852 155.848 197.105C155.311 197.356 154.741 197.484 154.139 197.484C152.494 197.484 151.208 196.929 150.277 195.818C149.346 194.709 148.884 193.192 148.884 191.267C148.884 189.476 149.472 187.957 150.644 186.705C151.817 185.453 153.33 184.831 155.18 184.831C156.997 184.831 158.495 185.486 159.674 186.797C160.853 188.109 161.44 189.914 161.44 192.206V196.488C161.44 198.568 160.772 200.234 159.432 201.489C158.092 202.743 156.406 203.369 154.374 203.369C153.754 203.369 153.112 203.301 152.447 203.164C151.781 203.027 151.146 202.836 150.543 202.588L150.976 199.605C151.554 199.796 152.101 199.933 152.617 200.02C153.136 200.112 153.721 200.157 154.374 200.157ZM155.055 194.474C155.526 194.474 155.95 194.39 156.326 194.227C156.702 194.063 157.015 193.833 157.263 193.544V191.688C157.263 190.508 157.066 189.605 156.675 188.982C156.281 188.359 155.78 188.046 155.168 188.046C154.524 188.046 154.013 188.371 153.637 189.023C153.261 189.676 153.073 190.421 153.073 191.264C153.073 192.254 153.237 193.038 153.569 193.61C153.9 194.188 154.395 194.474 155.055 194.474Z" fill="#212D51"/>
<path d="M298.314 192.355H300.283C301.035 192.355 301.614 192.153 302.02 191.747C302.426 191.342 302.629 190.782 302.629 190.064C302.629 189.494 302.447 189.015 302.083 188.627C301.719 188.24 301.19 188.046 300.495 188.046C299.949 188.046 299.472 188.204 299.057 188.517C298.645 188.83 298.436 189.235 298.436 189.73H294.369L294.345 189.655C294.294 188.219 294.861 187.057 296.043 186.166C297.225 185.275 298.66 184.828 300.343 184.828C302.3 184.828 303.867 185.275 305.04 186.172C306.212 187.069 306.8 188.335 306.8 189.977C306.8 190.794 306.547 191.548 306.039 192.236C305.532 192.924 304.852 193.464 304.001 193.851C304.968 194.206 305.723 194.745 306.269 195.466C306.815 196.187 307.087 197.052 307.087 198.059C307.087 199.71 306.454 201.006 305.189 201.951C303.924 202.895 302.309 203.369 300.343 203.369C298.648 203.369 297.168 202.925 295.9 202.037C294.632 201.149 294.017 199.865 294.059 198.181L294.083 198.107H298.174C298.174 198.685 298.397 199.17 298.848 199.561C299.299 199.954 299.845 200.148 300.489 200.148C301.223 200.148 301.811 199.942 302.25 199.528C302.688 199.117 302.906 198.595 302.906 197.97C302.906 197.093 302.676 196.459 302.217 196.056C301.757 195.657 301.113 195.457 300.277 195.457H298.308V192.355H298.314Z" fill="#212D51"/>
<path d="M76.7751 197.886H102.136C102.136 211.779 90.6866 223.213 76.7751 223.213C62.8637 223.213 51.4141 211.779 51.4141 197.886C51.4141 183.993 62.8637 172.559 76.7751 172.559V197.886Z" fill="#E527BB"/>
<path d="M106.385 194.34C106.385 180.352 95.0313 169.013 81.0244 169.013V194.34H106.385Z" fill="#A78BEF"/>
<path d="M71.4457 283.955H55.7588V317.012H71.4457V283.955Z" fill="#9EC8FF"/>
<path d="M119.93 249.414H104.243V317.012H119.93V249.414Z" fill="#9EC8FF"/>
<path d="M144.172 282.247H128.485V317.015H144.172V282.247Z" fill="#9EC8FF"/>
<path d="M168.413 272.404H152.727V317.012H168.413V272.404Z" fill="#9EC8FF"/>
<path d="M95.6879 262.126H80.001V317.012H95.6879V262.126Z" fill="#9EC8FF"/>
<path d="M192.74 232.687H177.053V317.012H192.74V232.687Z" fill="#9EC8FF"/>
<path d="M71.4097 285.522H57.3281V318.58H71.4097V285.522Z" fill="#E527BB"/>
<path d="M119.894 250.978H105.812V318.58H119.894V250.978Z" fill="#E527BB"/>
<path d="M144.136 283.812H130.055V318.58H144.136V283.812Z" fill="#A78BEF"/>
<path d="M168.378 273.972H154.297V318.58H168.378V273.972Z" fill="#A78BEF"/>
<path d="M95.6518 263.694H81.5703V318.58H95.6518V263.694Z" fill="#A78BEF"/>
<path d="M192.701 234.254H178.619V318.58H192.701V234.254Z" fill="#E527BB"/>
<path d="M51.417 274.908C50.6531 274.908 49.9011 274.547 49.4327 273.871C48.6717 272.777 48.9433 271.275 50.0384 270.515L111.476 227.898C112.479 227.201 113.848 227.364 114.66 228.279L137.24 253.708L185.605 207.512C186.569 206.591 188.096 206.623 189.019 207.589C189.941 208.552 189.905 210.077 188.941 210.998L138.765 258.923C138.29 259.376 137.649 259.617 136.998 259.59C136.342 259.563 135.727 259.271 135.291 258.78L112.47 233.08L52.7926 274.475C52.3719 274.768 51.8915 274.908 51.417 274.908Z" fill="#A78BEF"/>
<path d="M186.449 222.081C186.288 222.081 186.127 222.066 185.963 222.03C184.656 221.762 183.815 220.489 184.083 219.184L185.817 210.718L176.566 211.654C175.242 211.788 174.057 210.822 173.923 209.496C173.788 208.17 174.755 206.99 176.083 206.856L188.601 205.592C189.365 205.515 190.12 205.807 190.636 206.373C191.152 206.942 191.364 207.723 191.209 208.474L188.816 220.153C188.577 221.294 187.571 222.081 186.449 222.081Z" fill="#A78BEF"/>
<path d="M272 175.728V212.088C272 212.893 272.652 213.551 273.463 213.551H321.899C322.705 213.551 323.362 212.898 323.362 212.088V174.463C323.362 173.643 322.684 172.98 321.864 173L273.432 174.265C272.632 174.29 272 174.937 272 175.728Z" fill="#A78BEF"/>
<path d="M319.034 182.094C319.014 182.13 318.418 181.783 317.245 181.411C316.078 181.049 314.284 180.703 312.107 181.029C311.026 181.202 309.859 181.528 308.717 182.12C307.57 182.696 306.474 183.552 305.383 184.516C304.293 185.479 303.207 186.575 301.953 187.589C300.699 188.583 299.266 189.526 297.574 189.96C296.738 190.174 295.856 190.23 295.02 190.113C294.179 190 293.384 189.725 292.655 189.384C291.187 188.69 289.933 187.783 288.689 187.024C287.456 186.249 286.212 185.637 284.958 185.352C283.709 185.046 282.501 184.985 281.41 185.081C279.218 185.275 277.556 186.05 276.511 186.677C275.461 187.319 274.967 187.803 274.936 187.768C274.926 187.758 275.048 187.64 275.293 187.416C275.533 187.192 275.91 186.891 276.435 186.55C277.47 185.877 279.142 185.046 281.384 184.811C282.501 184.699 283.745 184.745 285.034 185.046C286.329 185.326 287.624 185.953 288.873 186.723C290.132 187.482 291.386 188.379 292.813 189.042C294.225 189.72 295.882 190.021 297.487 189.588C299.093 189.18 300.495 188.272 301.723 187.299C302.957 186.31 304.043 185.219 305.154 184.256C306.26 183.287 307.387 182.421 308.574 181.839C309.757 181.243 310.96 180.927 312.066 180.764C314.299 180.463 316.124 180.861 317.291 181.269C317.882 181.472 318.321 181.681 318.606 181.834C318.892 181.992 319.04 182.079 319.034 182.094Z" fill="white"/>
<path d="M288.174 190.633H283.438V203.448H288.174V190.633Z" fill="#E527BB"/>
<path d="M308.279 190.633H303.544V203.448H308.279V190.633Z" fill="white"/>
<path d="M314.977 183.109H310.241V203.448H314.977V183.109Z" fill="#E527BB"/>
<path d="M282.042 199.416H277.307V203.728H282.042V199.416Z" fill="white"/>
<path d="M294.877 196.418H290.142V203.443H294.877V196.418Z" fill="white"/>
<path d="M301.575 194.807H296.84V203.448H301.575V194.807Z" fill="white"/>
<path d="M288.369 204.956C288.369 205.063 287.222 205.145 285.81 205.145C284.398 205.145 283.251 205.058 283.251 204.956C283.251 204.849 284.398 204.768 285.81 204.768C287.222 204.768 288.369 204.849 288.369 204.956Z" fill="#E527BB"/>
<path d="M282.472 204.956C282.472 205.063 281.325 205.145 279.913 205.145C278.501 205.145 277.354 205.058 277.354 204.956C277.354 204.849 278.501 204.768 279.913 204.768C281.331 204.768 282.472 204.849 282.472 204.956Z" fill="white"/>
<path d="M315.917 204.956C315.917 205.063 314.622 205.145 313.021 205.145C311.421 205.145 310.126 205.058 310.126 204.956C310.126 204.849 311.421 204.768 313.021 204.768C314.622 204.768 315.917 204.849 315.917 204.956Z" fill="#E527BB"/>
<path d="M305.986 205.145C307.585 205.145 308.882 205.061 308.882 204.956C308.882 204.852 307.585 204.768 305.986 204.768C304.387 204.768 303.091 204.852 303.091 204.956C303.091 205.061 304.387 205.145 305.986 205.145Z" fill="white"/>
<path d="M301.582 204.956C301.582 205.063 300.435 205.145 299.023 205.145C297.611 205.145 296.464 205.058 296.464 204.956C296.464 204.849 297.611 204.768 299.023 204.768C300.435 204.768 301.582 204.849 301.582 204.956Z" fill="white"/>
<path d="M294.654 204.956C294.654 205.063 293.507 205.145 292.095 205.145C290.683 205.145 289.536 205.058 289.536 204.956C289.536 204.849 290.683 204.768 292.095 204.768C293.507 204.768 294.654 204.849 294.654 204.956Z" fill="white"/>
<path d="M369.5 335.45C315.1 335.45 271 333.866 271 331.913C271 329.959 315.1 328.376 369.5 328.376C423.899 328.376 467.999 329.959 467.999 331.913C467.999 333.866 423.899 335.45 369.5 335.45Z" fill="#E1E5E3"/>
<path d="M391.313 194.605L391.164 195.368L390.996 196.199L390.636 197.887C390.388 199.017 390.115 200.146 389.842 201.269C389.563 202.392 389.265 203.509 388.955 204.614C388.651 205.725 388.322 206.823 387.98 207.903C387.633 208.983 387.279 210.056 386.901 211.111C386.522 212.16 386.125 213.19 385.703 214.189C385.281 215.188 384.84 216.156 384.369 217.081C383.903 217.999 383.413 218.874 382.904 219.675C382.395 220.469 381.868 221.189 381.359 221.772C380.85 222.362 380.348 222.802 379.944 223.081C379.746 223.224 379.572 223.323 379.429 223.392C379.287 223.46 379.169 223.503 379.057 223.534C379.044 223.534 379.032 223.541 379.013 223.547L378.802 223.584L378.368 223.659L377.499 223.807L375.756 224.093L373.999 224.366L372.231 224.633C371.052 224.813 369.867 224.999 368.675 225.166L366.894 225.433C366.298 225.52 365.703 225.607 365.107 225.7L364.213 225.837L363.32 225.973C363.022 226.023 362.724 226.06 362.432 226.116C362.141 226.166 361.831 226.209 361.57 226.259L361.322 226.302C358.529 226.823 356.686 229.517 357.214 232.309C357.648 234.617 359.559 236.268 361.781 236.485L362.761 236.578C363.078 236.609 363.401 236.628 363.717 236.653C364.35 236.702 364.983 236.74 365.616 236.777L366.565 236.827L367.515 236.864C368.148 236.882 368.781 236.907 369.414 236.92C370.047 236.926 370.68 236.932 371.312 236.938C371.945 236.944 372.585 236.944 373.218 236.932C374.49 236.92 375.762 236.876 377.04 236.82C377.679 236.789 378.318 236.752 378.964 236.715L379.932 236.647L380.416 236.609L380.658 236.591L381.074 236.535C382.178 236.38 383.252 236.094 384.257 235.716C385.256 235.337 386.181 234.872 387.025 234.357C387.869 233.842 388.632 233.283 389.321 232.7C390.016 232.117 390.643 231.521 391.22 230.907C391.797 230.298 392.324 229.678 392.821 229.057C393.311 228.437 393.764 227.81 394.192 227.183C395.048 225.93 395.793 224.676 396.469 223.423C397.14 222.169 397.754 220.91 398.306 219.656C398.859 218.396 399.367 217.143 399.845 215.889C400.317 214.636 400.757 213.376 401.161 212.116C401.564 210.857 401.943 209.597 402.296 208.337C402.65 207.078 402.973 205.812 403.277 204.546C403.581 203.28 403.86 202.008 404.115 200.729C404.245 200.09 404.369 199.451 404.481 198.799L404.648 197.819L404.729 197.316L404.816 196.764C405.387 193.035 402.83 189.547 399.101 188.976C395.47 188.418 392.076 190.825 391.369 194.394L391.313 194.605Z" fill="#FF8C62"/>
<path d="M405.956 198.632C405.069 201.716 401.371 212.278 398.119 217.565L383.84 210.819C383.84 210.819 388.711 199.532 391.262 192.439C392.093 190.13 393.899 188.275 396.22 187.481C397.784 186.947 399.683 186.829 401.768 187.822C405.876 189.777 406.323 194.313 406.273 196.547C406.261 197.254 406.155 197.949 405.956 198.632Z" fill="#9A7CE7"/>
<path d="M351.765 309.387L348.004 315.537L340.831 312.366L344.088 305.757L351.765 309.387Z" fill="#FF8C62"/>
<path d="M318.122 315.859L345.246 327.867C345.612 327.588 345.948 327.116 346.27 326.52C347.455 324.299 348.343 320.315 349.007 317.845C349.081 317.554 349.156 317.287 349.23 317.045C349.348 316.635 349.46 316.3 349.565 316.064C350.397 314.178 348.591 313.762 348.591 313.762C344.657 315.239 343.335 309.828 340.934 310.349C340.934 310.349 339.903 310.566 336.894 311.547C333.884 312.533 329.652 312.186 325.96 312.111C321.188 312.012 319.301 313.185 318.569 314.246C317.986 315.09 318.122 315.859 318.122 315.859Z" fill="#A78BEF"/>
<path d="M318.124 315.859L345.249 327.867C345.615 327.588 345.95 327.116 346.272 326.52L318.565 314.258C317.988 315.09 318.124 315.859 318.124 315.859Z" fill="#180103"/>
<path d="M342.476 326.638L343.283 326.992C342.886 325.72 342.755 323.976 343.748 322.003C345.064 319.378 347.471 318.286 349.004 317.839C349.079 317.547 349.153 317.28 349.228 317.038C347.614 317.423 344.691 318.54 343.115 321.68C342.172 323.573 342.166 325.285 342.476 326.638Z" fill="#180103"/>
<path d="M336.644 313.353C336.843 313.439 337.085 313.384 337.227 313.204C337.395 312.993 337.352 312.682 337.141 312.515L335.633 311.342C335.422 311.174 335.111 311.218 334.944 311.429C334.776 311.64 334.82 311.95 335.031 312.118L336.539 313.29C336.57 313.321 336.607 313.34 336.644 313.353Z" fill="#180103"/>
<path d="M338.956 312.688C339.154 312.775 339.396 312.719 339.539 312.54C339.706 312.329 339.663 312.018 339.452 311.851L337.944 310.678C337.733 310.51 337.423 310.554 337.255 310.765C337.088 310.976 337.131 311.286 337.342 311.454L338.85 312.626C338.881 312.651 338.918 312.676 338.956 312.688Z" fill="#180103"/>
<path d="M334.512 313.588C334.711 313.675 334.953 313.619 335.096 313.439C335.263 313.228 335.22 312.918 335.009 312.751L333.501 311.578C333.29 311.41 332.979 311.454 332.812 311.665C332.644 311.876 332.688 312.186 332.899 312.353L334.407 313.526C334.444 313.551 334.481 313.576 334.512 313.588Z" fill="#180103"/>
<path d="M332.395 313.787C332.594 313.874 332.836 313.818 332.978 313.638C333.146 313.427 333.102 313.117 332.891 312.949L331.384 311.776C331.173 311.609 330.862 311.652 330.695 311.863C330.527 312.074 330.571 312.384 330.782 312.552L332.29 313.725C332.321 313.75 332.358 313.768 332.395 313.787Z" fill="#180103"/>
<path d="M330.163 313.843C330.361 313.93 330.603 313.874 330.746 313.694C330.913 313.483 330.87 313.173 330.659 313.005L329.151 311.832C328.94 311.665 328.63 311.708 328.462 311.919C328.295 312.13 328.338 312.44 328.549 312.608L330.057 313.781C330.094 313.806 330.132 313.83 330.163 313.843Z" fill="#180103"/>
<path d="M327.821 313.706C328.019 313.793 328.261 313.737 328.404 313.557C328.572 313.346 328.528 313.036 328.317 312.868L326.809 311.695C326.598 311.528 326.288 311.571 326.121 311.782C325.953 311.993 325.996 312.304 326.207 312.471L327.715 313.644C327.753 313.669 327.79 313.687 327.821 313.706Z" fill="#180103"/>
<path d="M368.606 250.063C371.125 247.587 390.983 242.045 404.169 245.725C405.677 248.636 407.601 256.002 402.879 262.815C385.547 265.651 375.872 271.478 375.872 271.478C375.872 271.478 369.729 285.682 366.074 290.895C362.419 296.108 354.048 312.664 354.048 312.664L341.432 307.271C341.426 307.277 361.755 256.808 368.606 250.063Z" fill="#180103"/>
<path d="M355.392 309.542C355.348 309.542 355.299 309.536 355.255 309.511L342.906 304.379C342.72 304.305 342.633 304.088 342.708 303.901C342.782 303.715 343 303.628 343.186 303.703L355.535 308.835C355.721 308.909 355.808 309.126 355.733 309.313C355.671 309.462 355.535 309.542 355.392 309.542Z" fill="#37202C"/>
<path d="M353.32 308.506C353.276 308.506 353.233 308.5 353.183 308.481C352.997 308.407 352.904 308.196 352.979 308.009C353.003 307.947 355.591 301.5 361.617 292.353C367.605 283.268 373.866 267.91 373.928 267.761C374.003 267.575 374.214 267.488 374.4 267.562C374.586 267.637 374.673 267.848 374.598 268.034C374.536 268.189 368.25 283.61 362.225 292.756C356.236 301.841 353.68 308.22 353.655 308.283C353.599 308.419 353.463 308.506 353.32 308.506Z" fill="#37202C"/>
<path d="M383.616 310.473L382.661 317.622H374.817L375.121 310.262L383.616 310.473Z" fill="#FF8C62"/>
<path d="M355.463 330.008H385.125C385.349 329.604 385.467 329.04 385.516 328.363C385.702 325.856 384.902 321.847 384.511 319.322C384.461 319.024 384.424 318.751 384.393 318.503C384.337 318.081 384.306 317.727 384.306 317.473C384.306 315.412 382.482 315.766 382.482 315.766C379.478 318.707 376.084 314.295 374.098 315.741C374.098 315.741 373.242 316.356 370.89 318.472C368.538 320.588 364.529 321.99 361.123 323.417C356.723 325.254 355.469 327.097 355.227 328.363C355.029 329.362 355.463 330.008 355.463 330.008Z" fill="#A78BEF"/>
<path d="M355.459 330.008H385.121C385.344 329.604 385.462 329.04 385.512 328.363H355.217C355.024 329.362 355.459 330.008 355.459 330.008Z" fill="#180103"/>
<path d="M382.103 330.008H382.984C382.103 329.002 381.284 327.463 381.389 325.26C381.532 322.331 383.288 320.352 384.511 319.322C384.461 319.024 384.424 318.751 384.393 318.503C383.077 319.508 380.856 321.711 380.682 325.223C380.583 327.327 381.271 328.897 382.103 330.008Z" fill="#180103"/>
<path d="M371.39 320.222C371.607 320.222 371.806 320.073 371.861 319.849C371.923 319.589 371.768 319.322 371.508 319.26L369.652 318.801C369.392 318.732 369.125 318.894 369.063 319.154C369.001 319.415 369.156 319.682 369.416 319.744L371.272 320.203C371.315 320.215 371.353 320.222 371.39 320.222Z" fill="#180103"/>
<path d="M373.233 318.676C373.451 318.676 373.655 318.528 373.705 318.304C373.767 318.044 373.612 317.777 373.351 317.715L371.496 317.255C371.235 317.187 370.968 317.349 370.906 317.609C370.844 317.87 371 318.137 371.26 318.199L373.116 318.658C373.153 318.676 373.196 318.676 373.233 318.676Z" fill="#180103"/>
<path d="M369.537 321.301C369.754 321.301 369.953 321.153 370.009 320.929C370.071 320.669 369.916 320.402 369.655 320.34L367.8 319.88C367.539 319.812 367.272 319.974 367.21 320.234C367.142 320.495 367.303 320.762 367.564 320.824L369.419 321.283C369.457 321.295 369.494 321.301 369.537 321.301Z" fill="#180103"/>
<path d="M367.682 322.332C367.899 322.332 368.098 322.183 368.153 321.959C368.215 321.699 368.06 321.432 367.8 321.37L365.944 320.91C365.684 320.842 365.417 321.004 365.355 321.264C365.293 321.525 365.448 321.792 365.708 321.854L367.564 322.313C367.601 322.332 367.644 322.332 367.682 322.332Z" fill="#180103"/>
<path d="M365.663 323.293C365.88 323.293 366.079 323.144 366.135 322.921C366.197 322.66 366.042 322.394 365.781 322.331L363.926 321.872C363.665 321.81 363.398 321.965 363.336 322.226C363.274 322.487 363.429 322.753 363.69 322.816L365.545 323.275C365.589 323.287 365.626 323.293 365.663 323.293Z" fill="#180103"/>
<path d="M363.472 324.106C363.689 324.106 363.888 323.957 363.943 323.734C364.005 323.473 363.85 323.207 363.59 323.145L361.734 322.685C361.474 322.617 361.207 322.778 361.145 323.039C361.083 323.3 361.238 323.567 361.498 323.629L363.354 324.088C363.397 324.106 363.435 324.106 363.472 324.106Z" fill="#180103"/>
<path d="M391.876 191.862C391.851 194.772 395.016 200.071 397.064 211.496C397.114 211.781 397.169 212.067 397.219 212.358C397.331 212.991 397.436 213.637 397.536 214.307C397.573 214.567 397.61 214.834 397.647 215.107C397.74 215.777 397.827 216.466 397.914 217.174V217.18C397.945 217.416 397.97 217.645 398.001 217.887C398.1 218.781 398.2 219.706 398.28 220.655C398.355 221.493 398.423 222.349 398.479 223.224C398.51 223.671 398.535 224.124 398.566 224.577C398.591 225.048 398.615 225.52 398.64 226.004C398.876 231.124 399.168 243.088 398.752 249.808C407.961 255.623 427.191 255.989 440.136 246.339C440.887 241.772 439.708 226.184 439.305 221.536C439.224 220.612 439.131 219.693 439.013 218.769C438.467 214.338 437.567 209.944 436.487 205.377C436.425 205.129 436.369 204.881 436.307 204.632C435.401 200.872 434.377 196.994 433.323 192.867C431.231 184.701 427.502 180.127 422.568 180.276C420.272 180.35 418.392 180.059 416.971 179.687C416.797 179.637 416.636 179.593 416.475 179.55C414.781 179.06 413.769 178.514 413.769 178.514L403.083 180.543C402.413 182.057 401.414 183.124 400.285 183.956C400.154 184.049 400.03 184.136 399.9 184.229C396.406 186.593 391.92 187.114 391.876 191.862Z" fill="#A78BEF"/>
<path d="M397.526 214.313C397.563 214.574 397.6 214.841 397.637 215.114C397.73 215.784 397.817 216.473 397.904 217.18V217.186C397.935 217.422 397.96 217.652 397.991 217.894C398.09 218.787 398.19 219.712 398.27 220.661C398.345 221.499 398.413 222.355 398.469 223.23C398.5 223.677 398.525 224.13 398.556 224.583L401.466 228.238L404.842 219.011L398.667 211.024L397.526 214.313Z" fill="#E527BB"/>
<path d="M414.367 217.614L410.88 226.798L404.848 219.042L408.286 209.553L414.367 217.614Z" fill="#E527BB"/>
<path d="M423.893 216.292L420.306 225.439L414.367 217.614L417.911 208.163L423.893 216.292Z" fill="#F8B200"/>
<path d="M433.411 215.082L429.725 224.186L423.867 216.299L427.522 206.885L433.411 215.082Z" fill="#E527BB"/>
<path d="M408.112 189.864C407.717 189.864 407.398 189.544 407.398 189.15C407.398 188.756 407.717 188.436 408.112 188.436C408.506 188.436 408.825 188.756 408.825 189.15C408.825 189.544 408.506 189.864 408.112 189.864Z" fill="#E527BB"/>
<path d="M408.297 193.413C407.903 193.413 407.583 193.094 407.583 192.699C407.583 192.305 407.903 191.986 408.297 191.986C408.691 191.986 409.011 192.305 409.011 192.699C409.011 193.094 408.691 193.413 408.297 193.413Z" fill="#E527BB"/>
<path d="M407.274 185.898C409.794 185.42 412.313 182.696 412.45 182.547C412.543 182.448 412.537 182.287 412.444 182.187C412.351 182.088 412.202 182.088 412.109 182.181C412.065 182.225 407.858 186.779 405.171 185.079C405.059 185.005 404.91 185.048 404.848 185.166C404.786 185.29 404.823 185.445 404.941 185.513C405.667 185.973 406.474 186.047 407.274 185.898Z" fill="#37202C"/>
<path d="M412 239.383C412.943 239.203 413.892 238.936 414.842 238.576C417.181 237.695 419.533 236.28 421.829 234.363C425.732 231.105 428.165 227.481 428.184 227.444C428.258 227.332 428.233 227.171 428.128 227.084C428.022 226.997 427.873 227.022 427.799 227.133C427.774 227.171 425.379 230.745 421.525 233.959C417.988 236.913 412.459 240.152 406.222 238.837C406.092 238.812 405.974 238.899 405.949 239.035C405.931 239.172 406.018 239.308 406.142 239.333C408.066 239.743 410.026 239.762 412 239.383Z" fill="#0046CE"/>
<path d="M410.693 165.6C410.823 166.823 412.592 166.196 413.448 165.371C413.826 165.004 413.628 164.148 413.597 163.068C413.566 161.79 413.268 162.646 414.155 160.754C415.092 158.749 413.553 155.796 412.25 155.969C412.25 155.969 413.336 152.947 410.674 151.278C408.279 149.776 406.74 151.458 406.74 151.458C406.74 151.458 405.871 148.957 403.674 149.001C401.478 149.05 400.168 151.334 400.168 151.334C400.168 151.334 398.393 149.64 396.048 151.048C393.702 152.457 394.838 154.226 394.838 154.226C394.838 154.226 392.262 154.393 391.617 156.565C391.059 158.445 392.455 159.506 392.455 159.506C392.455 159.506 391.487 160.487 392.107 162.51C392.641 164.241 393.932 164.142 394.18 165.352C394.317 166.028 394.608 166.792 394.832 167.338C395.012 167.766 395.576 168.461 396.011 168.374C396.569 168.269 396.774 167.22 396.594 166.649C396.29 165.687 395.98 164.291 396.408 163.372C397.109 161.858 396.203 160.251 397.649 159.482C399.095 158.712 404.661 160.326 407.882 157.49C407.882 157.49 408.068 159.643 409.452 160.021C410.842 160.4 410.606 162.125 410.612 163.559C410.618 164.229 410.693 165.575 410.693 165.6Z" fill="#37202C"/>
<path d="M402.556 178.768L403.071 181.486C403.437 181.685 403.803 181.846 404.163 181.976C409.419 183.913 413.844 179.438 413.844 179.438L412.057 170.019L403.692 177.726L402.556 178.768Z" fill="#FF8C62"/>
<path d="M402.56 178.768L403.075 181.486C403.441 181.685 403.808 181.846 404.167 181.976C407.885 179.625 410.007 174.853 410.007 174.853L403.696 177.726L402.56 178.768Z" fill="#37202C"/>
<path d="M396.874 167.369C396.874 167.369 394.981 165.836 394.46 167.828C393.933 169.82 395.304 173.382 397.538 172.333L396.874 167.369Z" fill="#FF6A44"/>
<path d="M396.448 174.077C396.448 174.077 397.51 179.699 403.349 178.576C409.157 177.459 412.247 172.147 412.409 171.899C412.409 171.893 412.415 171.893 412.415 171.893L412.254 170.701L411.422 164.508L410.975 161.2C410.975 161.2 410.597 155.163 404.789 155.15C400.544 155.144 396.833 156.553 395.3 159.053C395.251 159.134 395.201 159.215 395.158 159.302C394.692 160.17 394.475 161.157 394.574 162.255L395.511 168.175L395.741 169.628L396.448 174.077Z" fill="#FF8C62"/>
<path d="M395.149 159.302C396.005 158.805 396.725 158.979 398.27 159.333C400.51 159.848 402.663 158.594 404.5 157.161C406.337 155.727 407.845 156.95 407.33 158.036C406.815 159.122 407.038 159.879 408.037 160.946C409.036 162.013 406.914 163 408.329 163.72C408.925 164.024 409.005 164.626 408.906 165.228C408.794 165.879 409.446 166.401 410.067 166.159C410.699 165.861 411.413 164.508 411.413 164.508L410.966 161.2C410.966 161.2 410.588 155.163 404.779 155.15C400.535 155.144 396.824 156.553 395.291 159.053C395.242 159.134 395.192 159.215 395.149 159.302Z" fill="#37202C"/>
<path d="M395.743 169.628C395.892 169.615 396.047 169.59 396.202 169.566C397.238 169.367 398.02 168.877 397.94 168.467C397.859 168.058 396.959 167.884 395.917 168.082C395.774 168.107 395.637 168.145 395.513 168.176L395.743 169.628Z" fill="#FF6A44"/>
<path d="M410.142 169.969C410.179 170.025 411.246 171.601 412.407 171.899C412.407 171.893 412.413 171.893 412.413 171.893L412.252 170.701C412.246 170.701 411.296 170.714 410.142 169.969Z" fill="#37202C"/>
<path d="M410.431 165.867C410.431 165.867 412.107 162.423 414.198 164.483C415.923 166.177 414.329 171.756 411.313 170.521L410.431 165.867Z" fill="#FF8C62"/>
<path d="M411.449 169.559C411.566 169.534 411.647 169.429 411.641 169.311C411.455 166.978 413.217 165.824 413.292 165.774C413.403 165.706 413.434 165.557 413.36 165.451C413.292 165.34 413.143 165.309 413.037 165.377C412.95 165.433 410.964 166.73 411.169 169.348C411.182 169.479 411.293 169.572 411.424 169.566C411.436 169.559 411.442 169.559 411.449 169.559Z" fill="#37202C"/>
<path d="M413.341 167.747C413.41 167.735 413.472 167.692 413.503 167.629C413.565 167.518 413.521 167.375 413.41 167.313C413.304 167.257 412.349 166.761 411.691 167.071C411.573 167.127 411.523 167.263 411.579 167.381C411.635 167.499 411.772 167.549 411.889 167.493C412.268 167.313 412.957 167.598 413.186 167.723C413.236 167.747 413.292 167.754 413.341 167.747Z" fill="#37202C"/>
<path d="M413.237 176.243C413.237 176.243 417.177 176.15 417.996 179.941L415.613 185.222C415.613 185.222 413.342 182.144 408.105 182.367C408.111 182.367 412.02 179.445 413.237 176.243Z" fill="#875FEC"/>
<path d="M405.152 182.268C405.152 182.268 403.21 181.499 402.683 179.414C402.683 179.414 399.201 181.443 399.245 184.639L402.465 186.227C402.472 186.233 403.551 183.441 405.152 182.268Z" fill="#875FEC"/>
<path d="M440.218 245.93C440.218 245.93 446.342 270.088 414.595 270.088C397.636 270.088 389.581 268.45 389.581 268.45C389.581 268.45 389.171 283.423 388.383 289.741C387.595 296.058 384.797 311.795 384.797 311.795L371.442 312.831C371.442 312.831 369.308 258.018 377.493 252.973C385.678 247.928 397.443 247.773 417.648 245.837C417.655 245.831 435.793 242.759 440.218 245.93Z" fill="#37202C"/>
<path d="M382.972 307.414C382.941 307.414 382.916 307.407 382.885 307.401C382.693 307.352 382.569 307.159 382.618 306.961C384.461 299.253 385.194 288.208 385.783 279.328C386.366 270.578 386.708 265.974 387.62 265.173C388.619 264.286 391.591 264.602 396.519 265.13C402.625 265.781 411.846 266.762 421.793 265.62C426.733 265.055 430.518 263.119 433.05 259.867C437.586 254.04 436.544 245.855 436.531 245.775C436.507 245.576 436.643 245.39 436.842 245.365C437.04 245.34 437.226 245.477 437.251 245.675C437.301 246.023 438.35 254.233 433.621 260.308C430.965 263.721 427.012 265.75 421.874 266.34C411.846 267.488 402.575 266.501 396.438 265.849C392.2 265.396 388.855 265.043 388.098 265.719C387.924 265.874 387.583 266.625 387.229 269.945C386.968 272.396 386.751 275.635 386.503 279.384C385.913 288.288 385.175 299.365 383.32 307.134C383.282 307.302 383.133 307.414 382.972 307.414Z" fill="#6F4F5A"/>
<path d="M371.592 308.5C371.4 308.5 371.245 308.351 371.232 308.158C371.22 307.96 371.375 307.786 371.574 307.774L385.232 306.948C385.437 306.936 385.604 307.091 385.616 307.29C385.629 307.488 385.474 307.662 385.275 307.674L371.617 308.5C371.605 308.5 371.598 308.5 371.592 308.5Z" fill="#6F4F5A"/>
<path d="M418.057 190.503L418.001 191.446L417.932 192.464C417.883 193.146 417.833 193.829 417.771 194.518C417.647 195.889 417.517 197.267 417.362 198.632C417.281 199.315 417.2 199.997 417.107 200.68C417.02 201.362 416.927 202.039 416.828 202.715C416.629 204.068 416.4 205.408 416.158 206.73C415.909 208.052 415.636 209.361 415.332 210.64C415.177 211.279 415.016 211.912 414.842 212.532C414.675 213.153 414.495 213.773 414.308 214.369C413.93 215.573 413.514 216.727 413.055 217.794C412.59 218.856 412.093 219.842 411.572 220.655C411.057 221.468 410.517 222.101 410.095 222.467C409.884 222.66 409.704 222.777 409.549 222.871C409.53 222.883 409.512 222.895 409.493 222.902L409.468 222.914L409.456 222.92C409.456 222.92 409.456 222.92 409.45 222.926L409.431 222.933C409.319 222.982 409.214 223.032 409.096 223.082L408.922 223.156L408.736 223.23C408.612 223.28 408.482 223.33 408.351 223.373C407.824 223.566 407.253 223.746 406.657 223.925C406.061 224.099 405.441 224.267 404.808 224.428C403.542 224.751 402.22 225.042 400.88 225.303C399.539 225.564 398.174 225.812 396.79 226.042C396.102 226.159 395.407 226.265 394.712 226.37C394.017 226.482 393.322 226.588 392.62 226.687C391.224 226.885 389.816 227.09 388.413 227.276L384.231 227.823L384.106 227.841C381.295 228.207 379.316 230.783 379.688 233.594C380.017 236.094 382.096 237.937 384.535 238.049L385.124 238.074L385.695 238.099C386.074 238.111 386.452 238.13 386.824 238.136C387.575 238.155 388.326 238.167 389.077 238.173C390.579 238.179 392.08 238.173 393.588 238.124C394.339 238.105 395.096 238.08 395.853 238.049C396.61 238.018 397.368 237.968 398.125 237.925C399.645 237.826 401.165 237.714 402.704 237.54C404.243 237.373 405.801 237.168 407.383 236.901C408.972 236.622 410.585 236.293 412.304 235.79C412.521 235.728 412.732 235.666 412.956 235.592L413.285 235.486L413.62 235.375C413.843 235.3 414.073 235.213 414.302 235.133L414.346 235.114L414.402 235.095L414.513 235.052L414.737 234.959C414.886 234.897 415.035 234.828 415.177 234.766C416.344 234.227 417.399 233.563 418.323 232.843C420.185 231.397 421.544 229.771 422.661 228.176C423.772 226.575 424.641 224.968 425.379 223.379C426.117 221.791 426.726 220.215 427.265 218.651C427.532 217.869 427.781 217.087 428.016 216.311C428.246 215.536 428.457 214.76 428.656 213.984C429.053 212.433 429.4 210.894 429.71 209.355C430.021 207.816 430.275 206.283 430.505 204.751C430.623 203.987 430.728 203.218 430.827 202.455C430.927 201.691 431.014 200.928 431.094 200.159C431.262 198.632 431.398 197.105 431.498 195.573C431.547 194.803 431.597 194.04 431.634 193.264L431.678 192.098L431.696 191.502L431.709 190.857C431.783 187.084 428.78 183.968 425.007 183.894C421.333 183.826 418.28 186.668 418.057 190.298V190.503Z" fill="#FF8C62"/>
<path d="M386.31 226.941C386.31 226.941 388.06 232.601 386.967 237.23C386.31 237.683 385.242 237.956 384.436 237.751C384.436 237.751 385.534 232.7 383.753 226.966C384.622 226.594 385.472 226.588 386.31 226.941Z" fill="#37202C"/>
<path d="M382.939 234.096C383.051 235.883 384.59 237.249 386.377 237.137C388.164 237.025 389.529 235.486 389.417 233.699C389.306 231.912 387.767 230.547 385.98 230.658C384.186 230.764 382.827 232.309 382.939 234.096Z" fill="#37202C"/>
<path d="M386.333 236.225C387.617 236.144 388.598 235.033 388.523 233.749C388.443 232.464 387.332 231.484 386.047 231.558C384.763 231.639 383.782 232.75 383.863 234.034C383.938 235.325 385.048 236.305 386.333 236.225Z" fill="white"/>
<path d="M415.628 226.768C415.684 226.768 415.74 226.749 415.79 226.706C415.889 226.619 415.895 226.464 415.808 226.37C413.698 224.006 410.366 222.585 410.223 222.529C410.099 222.48 409.963 222.535 409.913 222.66C409.863 222.784 409.919 222.92 410.043 222.97C410.074 222.982 413.419 224.41 415.461 226.693C415.492 226.737 415.56 226.768 415.628 226.768Z" fill="#FF6A44"/>
<path d="M415.138 223.727C415.25 223.727 415.343 223.652 415.374 223.541C415.405 223.41 415.325 223.286 415.194 223.255C415.083 223.23 412.408 222.635 410.615 222.734C410.484 222.74 410.379 222.852 410.391 222.988C410.397 223.119 410.515 223.218 410.646 223.212C412.377 223.112 415.064 223.714 415.095 223.72C415.107 223.727 415.126 223.727 415.138 223.727Z" fill="#FF6A44"/>
<path d="M433.279 191.496C433.211 194.704 432.336 205.861 430.549 211.8L415.023 208.933C415.023 208.933 416.841 196.776 417.493 189.262C417.704 186.817 418.976 184.564 421.017 183.199C422.389 182.28 424.195 181.685 426.466 182.113C430.934 182.957 432.529 187.22 433.056 189.398C433.224 190.087 433.298 190.794 433.279 191.496Z" fill="#9A7CE7"/>
<path d="M438.871 303.858H395.998C394.992 303.858 394.179 303.045 394.179 302.04C394.179 301.035 394.992 300.222 395.998 300.222H438.871C439.877 300.222 440.689 301.035 440.689 302.04C440.689 303.045 439.877 303.858 438.871 303.858Z" fill="#E527BB"/>
<path d="M392.051 331.59C391.97 331.59 391.89 331.584 391.809 331.572C390.816 331.441 390.115 330.523 390.251 329.53L398.064 271.217C398.182 270.318 398.951 269.641 399.864 269.641H434.844C435.756 269.641 436.526 270.318 436.643 271.217L444.332 329.53C444.462 330.523 443.761 331.435 442.768 331.565C441.775 331.696 440.863 330.995 440.733 330.002L433.255 273.265H401.459L393.857 330.002C393.727 330.933 392.951 331.59 392.051 331.59Z" fill="#E527BB"/>
<path d="M409.993 271.465H432.711C439.91 271.465 447.617 267.525 448.722 260.414C450.198 250.901 450.565 241.692 450.155 233.24C449.69 223.683 444.787 214.791 437.272 208.865C437.272 208.865 442.888 237.819 438.78 255.939C436.435 266.272 409.993 271.465 409.993 271.465Z" fill="#E527BB"/>
<path d="M350.53 238.558H405.337C405.461 238.558 405.561 238.459 405.561 238.335C405.561 236.634 404.183 235.257 402.483 235.257H350.537C350.413 235.257 350.313 235.356 350.313 235.48V238.341C350.313 238.459 350.413 238.558 350.53 238.558Z" fill="#CE9515"/>
<path d="M332.237 208.275L339.076 237.205C339.255 237.975 339.944 238.521 340.739 238.521H382.88C383.984 238.521 384.797 237.491 384.543 236.417L377.705 207.487C377.525 206.718 376.836 206.172 376.041 206.172H333.9C332.796 206.172 331.983 207.202 332.237 208.275Z" fill="#A78BEF"/>
<path d="M338.564 216.997C336.717 215.314 336.352 212.707 337.748 211.175C339.145 209.642 341.774 209.764 343.621 211.446C345.468 213.129 345.833 215.736 344.436 217.268C343.04 218.801 340.411 218.679 338.564 216.997Z" fill="#FFB600"/>
<path d="M341.624 213.444C341.71 213.897 341.94 214.27 342.139 214.27C342.337 214.27 342.43 213.904 342.343 213.444C342.257 212.991 342.027 212.619 341.828 212.619C341.63 212.619 341.537 212.991 341.624 213.444Z" fill="#37202C"/>
<path d="M339.471 213.444C339.558 213.897 339.788 214.27 339.986 214.27C340.185 214.27 340.278 213.904 340.191 213.444C340.104 212.991 339.875 212.619 339.676 212.619C339.477 212.619 339.384 212.991 339.471 213.444Z" fill="#37202C"/>
<path d="M341.427 216.243C343.202 216.243 343.276 214.475 343.276 214.456C343.276 214.357 343.202 214.264 343.103 214.245C343.003 214.226 342.916 214.282 342.916 214.382C342.916 214.444 342.842 215.889 341.365 215.889C339.882 215.889 339.28 214.444 339.255 214.382C339.218 214.282 339.106 214.226 339.019 214.245C338.926 214.264 338.883 214.363 338.92 214.456C338.92 214.468 339.652 216.243 341.427 216.243Z" fill="#37202C"/>
<path d="M341.737 235.915H358.777C358.889 235.915 358.957 235.828 358.932 235.716L358.002 231.577C357.977 231.465 357.865 231.378 357.76 231.378H340.719C340.608 231.378 340.539 231.465 340.564 231.577L341.495 235.716C341.52 235.822 341.625 235.915 341.737 235.915Z" fill="#E527BB"/>
<path d="M374.366 206.172L381.651 238.521H382.88C383.984 238.521 384.797 237.491 384.543 236.417L377.705 207.487C377.525 206.718 376.836 206.172 376.041 206.172H374.366Z" fill="#8960F1"/>
<path d="M353.057 223.479C353.268 225.247 354.875 226.681 356.644 226.681C358.413 226.681 359.672 225.247 359.461 223.479C359.25 221.71 357.643 220.277 355.875 220.277C354.106 220.277 352.846 221.71 353.057 223.479Z" fill="#E527BB"/>
<path d="M291.372 240.848V243.075C291.372 244.36 292.451 245.396 293.786 245.396H461.842C463.176 245.396 464.256 244.36 464.256 243.075V240.848C464.256 239.569 463.176 238.527 461.842 238.527H293.792C292.451 238.527 291.372 239.563 291.372 240.848Z" fill="black"/>
<path d="M300.146 251.118H450.666C453.427 251.118 455.674 248.878 455.674 246.11V245.365H295.145V246.11C295.145 248.871 297.385 251.118 300.146 251.118Z" fill="#0046CE"/>
<path d="M298.221 279.501H450.311V283.442H298.221V279.501Z" fill="#0046CE"/>
<path d="M457.611 332.31L438.026 251.118H444.902L464.486 332.31H457.611Z" fill="#006BFF"/>
<path d="M291.867 332.31L311.451 251.118H304.576L284.991 332.31H291.867Z" fill="#006BFF"/>
<path d="M291.369 241.958H464.253V242.976H291.369V241.958Z" fill="#0046CE"/>
</g>
</g>
<defs>
<clipPath id="clip0_814_10853">
<rect width="532.49" height="330.06" fill="white"/>
</clipPath>
<clipPath id="clip1_814_10853">
<rect width="434" height="255" fill="white" transform="translate(49 78)"/>
</clipPath>
</defs>
</svg>
