<svg width="533" height="331" viewBox="0 0 533 331" fill="none" xmlns="http://www.w3.org/2000/svg">
<g clip-path="url(#clip0_1279_2567)">
<path opacity="0.2" fill-rule="evenodd" clip-rule="evenodd" d="M0 7.5756C0 7.5756 496.166 -10.2363 522.25 8.76437C545.499 25.7019 520.61 239.759 514.929 286.131C514.801 287.134 513.992 287.91 512.938 288.028C382.355 302.136 78.1811 295.779 13.6451 294.227C12.5792 294.197 11.7008 293.49 11.49 292.498C2.02627 247.216 0 7.5756 0 7.5756Z" fill="#999999"/>
<g clip-path="url(#clip1_1279_2567)">
<path d="M419.051 69.8601H377.281V288.83H419.051V69.8601Z" fill="#DCDCDC"/>
<path d="M391.882 76.9702H383.762V85.3302H391.882V76.9702Z" fill="#ECECEC"/>
<path d="M402.272 76.9702H394.152V85.3302H402.272V76.9702Z" fill="#ECECEC"/>
<path d="M391.882 91.1702H383.762V99.5302H391.882V91.1702Z" fill="#ECECEC"/>
<path d="M402.272 91.1702H394.152V99.5302H402.272V91.1702Z" fill="#ECECEC"/>
<path d="M391.882 105.36H383.762V113.72H391.882V105.36Z" fill="#ECECEC"/>
<path d="M402.272 105.36H394.152V113.72H402.272V105.36Z" fill="#ECECEC"/>
<path d="M391.882 119.56H383.762V127.92H391.882V119.56Z" fill="#ECECEC"/>
<path d="M402.272 119.56H394.152V127.92H402.272V119.56Z" fill="#ECECEC"/>
<path d="M391.882 133.75H383.762V142.11H391.882V133.75Z" fill="#ECECEC"/>
<path d="M402.272 133.75H394.152V142.11H402.272V133.75Z" fill="#ECECEC"/>
<path d="M391.882 147.95H383.762V156.31H391.882V147.95Z" fill="#ECECEC"/>
<path d="M402.272 147.95H394.152V156.31H402.272V147.95Z" fill="#ECECEC"/>
<path d="M391.882 162.14H383.762V170.5H391.882V162.14Z" fill="#ECECEC"/>
<path d="M402.272 162.14H394.152V170.5H402.272V162.14Z" fill="#ECECEC"/>
<path d="M391.882 176.34H383.762V184.7H391.882V176.34Z" fill="#ECECEC"/>
<path d="M402.272 176.34H394.152V184.7H402.272V176.34Z" fill="#ECECEC"/>
<path d="M391.882 190.53H383.762V198.89H391.882V190.53Z" fill="#ECECEC"/>
<path d="M402.272 190.53H394.152V198.89H402.272V190.53Z" fill="#ECECEC"/>
<path d="M391.882 204.73H383.762V213.09H391.882V204.73Z" fill="#ECECEC"/>
<path d="M402.272 204.73H394.152V213.09H402.272V204.73Z" fill="#ECECEC"/>
<path d="M391.882 218.92H383.762V227.28H391.882V218.92Z" fill="#ECECEC"/>
<path d="M402.272 218.92H394.152V227.28H402.272V218.92Z" fill="#ECECEC"/>
<path d="M391.882 233.12H383.762V241.48H391.882V233.12Z" fill="#ECECEC"/>
<path d="M402.272 233.12H394.152V241.48H402.272V233.12Z" fill="#ECECEC"/>
<path d="M391.882 247.31H383.762V255.67H391.882V247.31Z" fill="#ECECEC"/>
<path d="M402.272 247.31H394.152V255.67H402.272V247.31Z" fill="#ECECEC"/>
<path d="M391.882 261.51H383.762V269.87H391.882V261.51Z" fill="#ECECEC"/>
<path d="M404.45 269.871H412.57V261.511H404.45V269.871Z" fill="#ECECEC"/>
<path d="M404.45 255.681H412.57V247.321H404.45V255.681Z" fill="#ECECEC"/>
<path d="M404.45 241.48H412.57V233.12H404.45V241.48Z" fill="#ECECEC"/>
<path d="M404.45 227.29H412.57V218.93H404.45V227.29Z" fill="#ECECEC"/>
<path d="M404.45 213.089H412.57V204.729H404.45V213.089Z" fill="#ECECEC"/>
<path d="M404.45 198.899H412.57V190.539H404.45V198.899Z" fill="#ECECEC"/>
<path d="M404.45 184.699H412.57V176.339H404.45V184.699Z" fill="#ECECEC"/>
<path d="M404.45 170.508H412.57V162.148H404.45V170.508Z" fill="#ECECEC"/>
<path d="M404.45 156.308H412.57V147.948H404.45V156.308Z" fill="#ECECEC"/>
<path d="M404.45 142.117H412.57V133.757H404.45V142.117Z" fill="#ECECEC"/>
<path d="M404.45 127.917H412.57V119.557H404.45V127.917Z" fill="#ECECEC"/>
<path d="M404.45 113.727H412.57V105.367H404.45V113.727Z" fill="#ECECEC"/>
<path d="M404.45 99.5261H412.57V91.1661H404.45V99.5261Z" fill="#ECECEC"/>
<path d="M404.45 85.3357H412.57V76.9757H404.45V85.3357Z" fill="#ECECEC"/>
<path d="M402.272 261.51H394.152V269.87H402.272V261.51Z" fill="#ECECEC"/>
<path d="M451.991 69.8601H419.051V288.83H451.991V69.8601Z" fill="#A8A8A8"/>
<path d="M441.88 269.871H448.59V261.511H441.88V269.871Z" fill="#C8C8C8"/>
<path d="M433.306 269.871H440.016V261.511H433.306V269.871Z" fill="#C8C8C8"/>
<path d="M441.88 255.681H448.59V247.321H441.88V255.681Z" fill="#C8C8C8"/>
<path d="M433.306 255.681H440.016V247.321H433.306V255.681Z" fill="#C8C8C8"/>
<path d="M441.88 241.48H448.59V233.12H441.88V241.48Z" fill="#C8C8C8"/>
<path d="M433.306 241.48H440.016V233.12H433.306V241.48Z" fill="#C8C8C8"/>
<path d="M441.88 227.29H448.59V218.93H441.88V227.29Z" fill="#C8C8C8"/>
<path d="M433.306 227.29H440.016V218.93H433.306V227.29Z" fill="#C8C8C8"/>
<path d="M441.88 213.089H448.59V204.729H441.88V213.089Z" fill="#C8C8C8"/>
<path d="M433.306 213.089H440.016V204.729H433.306V213.089Z" fill="#C8C8C8"/>
<path d="M441.88 198.899H448.59V190.539H441.88V198.899Z" fill="#C8C8C8"/>
<path d="M433.306 198.899H440.016V190.539H433.306V198.899Z" fill="#C8C8C8"/>
<path d="M441.88 184.699H448.59V176.339H441.88V184.699Z" fill="#C8C8C8"/>
<path d="M433.306 184.699H440.016V176.339H433.306V184.699Z" fill="#C8C8C8"/>
<path d="M441.88 170.508H448.59V162.148H441.88V170.508Z" fill="#C8C8C8"/>
<path d="M433.306 170.508H440.016V162.148H433.306V170.508Z" fill="#C8C8C8"/>
<path d="M441.88 156.308H448.59V147.948H441.88V156.308Z" fill="#C8C8C8"/>
<path d="M433.306 156.308H440.016V147.948H433.306V156.308Z" fill="#C8C8C8"/>
<path d="M441.88 142.117H448.59V133.757H441.88V142.117Z" fill="#C8C8C8"/>
<path d="M433.306 142.117H440.016V133.757H433.306V142.117Z" fill="#C8C8C8"/>
<path d="M441.88 127.917H448.59V119.557H441.88V127.917Z" fill="#C8C8C8"/>
<path d="M433.306 127.917H440.016V119.557H433.306V127.917Z" fill="#C8C8C8"/>
<path d="M441.88 113.727H448.59V105.367H441.88V113.727Z" fill="#C8C8C8"/>
<path d="M433.306 113.727H440.016V105.367H433.306V113.727Z" fill="#C8C8C8"/>
<path d="M441.88 99.5261H448.59V91.1661H441.88V99.5261Z" fill="#C8C8C8"/>
<path d="M433.306 99.5261H440.016V91.1661H433.306V99.5261Z" fill="#C8C8C8"/>
<path d="M441.88 85.3357H448.59V76.9757H441.88V85.3357Z" fill="#C8C8C8"/>
<path d="M431.511 76.9702H424.801V85.3302H431.511V76.9702Z" fill="#C8C8C8"/>
<path d="M431.511 91.1702H424.801V99.5302H431.511V91.1702Z" fill="#C8C8C8"/>
<path d="M431.511 105.36H424.801V113.72H431.511V105.36Z" fill="#C8C8C8"/>
<path d="M431.511 119.56H424.801V127.92H431.511V119.56Z" fill="#C8C8C8"/>
<path d="M431.511 133.75H424.801V142.11H431.511V133.75Z" fill="#C8C8C8"/>
<path d="M431.511 147.95H424.801V156.31H431.511V147.95Z" fill="#C8C8C8"/>
<path d="M431.511 162.14H424.801V170.5H431.511V162.14Z" fill="#C8C8C8"/>
<path d="M431.511 176.34H424.801V184.7H431.511V176.34Z" fill="#C8C8C8"/>
<path d="M431.511 190.53H424.801V198.89H431.511V190.53Z" fill="#C8C8C8"/>
<path d="M431.511 204.73H424.801V213.09H431.511V204.73Z" fill="#C8C8C8"/>
<path d="M431.511 218.92H424.801V227.28H431.511V218.92Z" fill="#C8C8C8"/>
<path d="M431.511 233.12H424.801V241.48H431.511V233.12Z" fill="#C8C8C8"/>
<path d="M431.511 247.31H424.801V255.67H431.511V247.31Z" fill="#C8C8C8"/>
<path d="M431.511 261.51H424.801V269.87H431.511V261.51Z" fill="#C8C8C8"/>
<path d="M433.306 85.3357H440.016V76.9757H433.306V85.3357Z" fill="#C8C8C8"/>
<path d="M122.463 58.05H73.043V288.83H122.463V58.05Z" fill="#ECECEC"/>
<path d="M122.462 53H71.8516V58.05H122.462V53Z" fill="#C8C8C8"/>
<path d="M82.5217 65.5H77.5117V288.83H82.5217V65.5Z" fill="white"/>
<path d="M91.3928 65.5H86.3828V288.83H91.3928V65.5Z" fill="white"/>
<path d="M100.26 65.5H95.25V288.83H100.26V65.5Z" fill="white"/>
<path d="M109.123 65.5H104.113V288.83H109.123V65.5Z" fill="white"/>
<path d="M117.99 65.5H112.98V288.83H117.99V65.5Z" fill="white"/>
<path d="M82.5217 71.8799H77.5117V81.8499H82.5217V71.8799Z" fill="#ECECEC"/>
<path d="M91.3928 71.8799H86.3828V81.8499H91.3928V71.8799Z" fill="#ECECEC"/>
<path d="M100.26 71.8799H95.25V81.8499H100.26V71.8799Z" fill="#ECECEC"/>
<path d="M109.123 71.8799H104.113V81.8499H109.123V71.8799Z" fill="#ECECEC"/>
<path d="M117.99 71.8799H112.98V81.8499H117.99V71.8799Z" fill="#ECECEC"/>
<path d="M82.5217 88.0901H77.5117V98.0601H82.5217V88.0901Z" fill="#ECECEC"/>
<path d="M91.3928 88.0901H86.3828V98.0601H91.3928V88.0901Z" fill="#ECECEC"/>
<path d="M100.26 88.0901H95.25V98.0601H100.26V88.0901Z" fill="#ECECEC"/>
<path d="M109.123 88.0901H104.113V98.0601H109.123V88.0901Z" fill="#ECECEC"/>
<path d="M117.99 88.0901H112.98V98.0601H117.99V88.0901Z" fill="#ECECEC"/>
<path d="M82.5217 104.3H77.5117V114.27H82.5217V104.3Z" fill="#ECECEC"/>
<path d="M91.3928 104.3H86.3828V114.27H91.3928V104.3Z" fill="#ECECEC"/>
<path d="M100.26 104.3H95.25V114.27H100.26V104.3Z" fill="#ECECEC"/>
<path d="M109.123 104.3H104.113V114.27H109.123V104.3Z" fill="#ECECEC"/>
<path d="M117.99 104.3H112.98V114.27H117.99V104.3Z" fill="#ECECEC"/>
<path d="M82.5217 120.51H77.5117V130.48H82.5217V120.51Z" fill="#ECECEC"/>
<path d="M91.3928 120.51H86.3828V130.48H91.3928V120.51Z" fill="#ECECEC"/>
<path d="M100.26 120.51H95.25V130.48H100.26V120.51Z" fill="#ECECEC"/>
<path d="M109.123 120.51H104.113V130.48H109.123V120.51Z" fill="#ECECEC"/>
<path d="M117.99 120.51H112.98V130.48H117.99V120.51Z" fill="#ECECEC"/>
<path d="M82.5217 136.72H77.5117V146.69H82.5217V136.72Z" fill="#ECECEC"/>
<path d="M91.3928 136.72H86.3828V146.69H91.3928V136.72Z" fill="#ECECEC"/>
<path d="M100.26 136.72H95.25V146.69H100.26V136.72Z" fill="#ECECEC"/>
<path d="M109.123 136.72H104.113V146.69H109.123V136.72Z" fill="#ECECEC"/>
<path d="M117.99 136.72H112.98V146.69H117.99V136.72Z" fill="#ECECEC"/>
<path d="M82.5217 152.93H77.5117V162.9H82.5217V152.93Z" fill="#ECECEC"/>
<path d="M91.3928 152.93H86.3828V162.9H91.3928V152.93Z" fill="#ECECEC"/>
<path d="M100.26 152.93H95.25V162.9H100.26V152.93Z" fill="#ECECEC"/>
<path d="M109.123 152.93H104.113V162.9H109.123V152.93Z" fill="#ECECEC"/>
<path d="M117.99 152.93H112.98V162.9H117.99V152.93Z" fill="#ECECEC"/>
<path d="M82.5217 169.14H77.5117V179.11H82.5217V169.14Z" fill="#ECECEC"/>
<path d="M91.3928 169.14H86.3828V179.11H91.3928V169.14Z" fill="#ECECEC"/>
<path d="M100.26 169.14H95.25V179.11H100.26V169.14Z" fill="#ECECEC"/>
<path d="M109.123 169.14H104.113V179.11H109.123V169.14Z" fill="#ECECEC"/>
<path d="M117.99 169.14H112.98V179.11H117.99V169.14Z" fill="#ECECEC"/>
<path d="M82.5217 185.35H77.5117V195.32H82.5217V185.35Z" fill="#ECECEC"/>
<path d="M91.3928 185.35H86.3828V195.32H91.3928V185.35Z" fill="#ECECEC"/>
<path d="M100.26 185.35H95.25V195.32H100.26V185.35Z" fill="#ECECEC"/>
<path d="M109.123 185.35H104.113V195.32H109.123V185.35Z" fill="#ECECEC"/>
<path d="M117.99 185.35H112.98V195.32H117.99V185.35Z" fill="#ECECEC"/>
<path d="M82.5217 201.56H77.5117V211.53H82.5217V201.56Z" fill="#ECECEC"/>
<path d="M91.3928 201.56H86.3828V211.53H91.3928V201.56Z" fill="#ECECEC"/>
<path d="M100.26 201.56H95.25V211.53H100.26V201.56Z" fill="#ECECEC"/>
<path d="M109.123 201.56H104.113V211.53H109.123V201.56Z" fill="#ECECEC"/>
<path d="M117.99 201.56H112.98V211.53H117.99V201.56Z" fill="#ECECEC"/>
<path d="M82.5217 217.77H77.5117V227.74H82.5217V217.77Z" fill="#ECECEC"/>
<path d="M91.3928 217.77H86.3828V227.74H91.3928V217.77Z" fill="#ECECEC"/>
<path d="M100.26 217.77H95.25V227.74H100.26V217.77Z" fill="#ECECEC"/>
<path d="M109.123 217.77H104.113V227.74H109.123V217.77Z" fill="#ECECEC"/>
<path d="M117.99 217.77H112.98V227.74H117.99V217.77Z" fill="#ECECEC"/>
<path d="M82.5217 233.98H77.5117V243.95H82.5217V233.98Z" fill="#ECECEC"/>
<path d="M91.3928 233.98H86.3828V243.95H91.3928V233.98Z" fill="#ECECEC"/>
<path d="M100.26 233.98H95.25V243.95H100.26V233.98Z" fill="#ECECEC"/>
<path d="M109.123 233.98H104.113V243.95H109.123V233.98Z" fill="#ECECEC"/>
<path d="M117.99 233.98H112.98V243.95H117.99V233.98Z" fill="#ECECEC"/>
<path d="M82.5217 250.19H77.5117V260.16H82.5217V250.19Z" fill="#ECECEC"/>
<path d="M91.3928 250.19H86.3828V260.16H91.3928V250.19Z" fill="#ECECEC"/>
<path d="M100.26 250.19H95.25V260.16H100.26V250.19Z" fill="#ECECEC"/>
<path d="M109.123 250.19H104.113V260.16H109.123V250.19Z" fill="#ECECEC"/>
<path d="M117.99 250.19H112.98V260.16H117.99V250.19Z" fill="#ECECEC"/>
<path d="M82.5217 266.4H77.5117V276.37H82.5217V266.4Z" fill="#ECECEC"/>
<path d="M91.3928 266.4H86.3828V276.37H91.3928V266.4Z" fill="#ECECEC"/>
<path d="M100.26 266.4H95.25V276.37H100.26V266.4Z" fill="#ECECEC"/>
<path d="M109.123 266.4H104.113V276.37H109.123V266.4Z" fill="#ECECEC"/>
<path d="M117.99 266.4H112.98V276.37H117.99V266.4Z" fill="#ECECEC"/>
<path d="M82.5217 282.61H77.5117V288.83H82.5217V282.61Z" fill="#ECECEC"/>
<path d="M91.3928 282.61H86.3828V288.83H91.3928V282.61Z" fill="#ECECEC"/>
<path d="M100.26 282.61H95.25V288.83H100.26V282.61Z" fill="#ECECEC"/>
<path d="M109.123 282.61H104.113V288.83H109.123V282.61Z" fill="#ECECEC"/>
<path d="M117.99 282.61H112.98V288.83H117.99V282.61Z" fill="#ECECEC"/>
<path d="M154.191 58.05H122.461V288.83H154.191V58.05Z" fill="#DCDCDC"/>
<path d="M155.561 53H122.461V58.05H155.561V53Z" fill="#C8C8C8"/>
<path d="M131.94 65.5H126.93V288.83H131.94V65.5Z" fill="#C8C8C8"/>
<path d="M140.799 65.5H135.789V288.83H140.799V65.5Z" fill="#C8C8C8"/>
<path d="M149.67 65.5H144.66V288.83H149.67V65.5Z" fill="#C8C8C8"/>
<path d="M131.94 71.8799H126.93V81.8499H131.94V71.8799Z" fill="#DCDCDC"/>
<path d="M140.799 71.8799H135.789V81.8499H140.799V71.8799Z" fill="#DCDCDC"/>
<path d="M149.67 71.8799H144.66V81.8499H149.67V71.8799Z" fill="#DCDCDC"/>
<path d="M131.94 88.0901H126.93V98.0601H131.94V88.0901Z" fill="#DCDCDC"/>
<path d="M140.799 88.0901H135.789V98.0601H140.799V88.0901Z" fill="#DCDCDC"/>
<path d="M149.67 88.0901H144.66V98.0601H149.67V88.0901Z" fill="#DCDCDC"/>
<path d="M131.94 104.3H126.93V114.27H131.94V104.3Z" fill="#DCDCDC"/>
<path d="M140.799 104.3H135.789V114.27H140.799V104.3Z" fill="#DCDCDC"/>
<path d="M149.67 104.3H144.66V114.27H149.67V104.3Z" fill="#DCDCDC"/>
<path d="M131.94 120.51H126.93V130.48H131.94V120.51Z" fill="#DCDCDC"/>
<path d="M140.799 120.51H135.789V130.48H140.799V120.51Z" fill="#DCDCDC"/>
<path d="M149.67 120.51H144.66V130.48H149.67V120.51Z" fill="#DCDCDC"/>
<path d="M131.94 136.72H126.93V146.69H131.94V136.72Z" fill="#DCDCDC"/>
<path d="M140.799 136.72H135.789V146.69H140.799V136.72Z" fill="#DCDCDC"/>
<path d="M149.67 136.72H144.66V146.69H149.67V136.72Z" fill="#DCDCDC"/>
<path d="M131.94 152.93H126.93V162.9H131.94V152.93Z" fill="#DCDCDC"/>
<path d="M140.799 152.93H135.789V162.9H140.799V152.93Z" fill="#DCDCDC"/>
<path d="M149.67 152.93H144.66V162.9H149.67V152.93Z" fill="#DCDCDC"/>
<path d="M131.94 169.14H126.93V179.11H131.94V169.14Z" fill="#DCDCDC"/>
<path d="M140.799 169.14H135.789V179.11H140.799V169.14Z" fill="#DCDCDC"/>
<path d="M149.67 169.14H144.66V179.11H149.67V169.14Z" fill="#DCDCDC"/>
<path d="M131.94 185.35H126.93V195.32H131.94V185.35Z" fill="#DCDCDC"/>
<path d="M140.799 185.35H135.789V195.32H140.799V185.35Z" fill="#DCDCDC"/>
<path d="M149.67 185.35H144.66V195.32H149.67V185.35Z" fill="#DCDCDC"/>
<path d="M131.94 201.56H126.93V211.53H131.94V201.56Z" fill="#DCDCDC"/>
<path d="M140.799 201.56H135.789V211.53H140.799V201.56Z" fill="#DCDCDC"/>
<path d="M149.67 201.56H144.66V211.53H149.67V201.56Z" fill="#DCDCDC"/>
<path d="M131.94 217.77H126.93V227.74H131.94V217.77Z" fill="#DCDCDC"/>
<path d="M140.799 217.77H135.789V227.74H140.799V217.77Z" fill="#DCDCDC"/>
<path d="M149.67 217.77H144.66V227.74H149.67V217.77Z" fill="#DCDCDC"/>
<path d="M131.94 233.98H126.93V243.95H131.94V233.98Z" fill="#DCDCDC"/>
<path d="M140.799 233.98H135.789V243.95H140.799V233.98Z" fill="#DCDCDC"/>
<path d="M149.67 233.98H144.66V243.95H149.67V233.98Z" fill="#DCDCDC"/>
<path d="M131.94 250.19H126.93V260.16H131.94V250.19Z" fill="#DCDCDC"/>
<path d="M140.799 250.19H135.789V260.16H140.799V250.19Z" fill="#DCDCDC"/>
<path d="M149.67 250.19H144.66V260.16H149.67V250.19Z" fill="#DCDCDC"/>
<path d="M131.94 266.4H126.93V276.37H131.94V266.4Z" fill="#DCDCDC"/>
<path d="M140.799 266.4H135.789V276.37H140.799V266.4Z" fill="#DCDCDC"/>
<path d="M149.67 266.4H144.66V276.37H149.67V266.4Z" fill="#DCDCDC"/>
<path d="M131.94 282.61H126.93V288.83H131.94V282.61Z" fill="#DCDCDC"/>
<path d="M140.799 282.61H135.789V288.83H140.799V282.61Z" fill="#DCDCDC"/>
<path d="M149.67 282.61H144.66V288.83H149.67V282.61Z" fill="#DCDCDC"/>
<path d="M60.21 142.86H11V288.83H60.21V142.86Z" fill="#ECECEC"/>
<path d="M60.21 130.49H18V142.87H60.21V130.49Z" fill="#C8C8C8"/>
<path d="M54.8184 149.32H16.3984V288.83H54.8184V149.32Z" fill="#DCDCDC"/>
<path d="M54.8184 162.64H16.3984V165.94H54.8184V162.64Z" fill="white"/>
<path d="M54.8184 176.29H16.3984V179.59H54.8184V176.29Z" fill="white"/>
<path d="M54.8184 189.95H16.3984V193.25H54.8184V189.95Z" fill="white"/>
<path d="M54.8184 203.6H16.3984V206.9H54.8184V203.6Z" fill="white"/>
<path d="M54.8184 217.26H16.3984V220.56H54.8184V217.26Z" fill="white"/>
<path d="M54.8184 230.91H16.3984V234.21H54.8184V230.91Z" fill="white"/>
<path d="M54.8184 244.57H16.3984V247.87H54.8184V244.57Z" fill="white"/>
<path d="M54.8184 258.22H16.3984V261.52H54.8184V258.22Z" fill="white"/>
<path d="M54.8184 271.88H16.3984V275.18H54.8184V271.88Z" fill="white"/>
<path d="M54.8184 285.54H16.3984V288.84H54.8184V285.54Z" fill="white"/>
<path d="M91.0309 142.86H60.2109V288.83H91.0309V142.86Z" fill="#DCDCDC"/>
<path d="M86.4109 130.49H60.2109V142.87H86.4109V130.49Z" fill="#A8A8A8"/>
<path d="M88.1609 149.32H64.4609V288.83H88.1609V149.32Z" fill="#C8C8C8"/>
<path d="M88.1609 162.64H64.4609V165.94H88.1609V162.64Z" fill="white"/>
<path d="M88.1609 176.29H64.4609V179.59H88.1609V176.29Z" fill="white"/>
<path d="M88.1609 189.95H64.4609V193.25H88.1609V189.95Z" fill="white"/>
<path d="M88.1609 203.6H64.4609V206.9H88.1609V203.6Z" fill="white"/>
<path d="M88.1609 217.26H64.4609V220.56H88.1609V217.26Z" fill="white"/>
<path d="M88.1609 230.91H64.4609V234.21H88.1609V230.91Z" fill="white"/>
<path d="M88.1609 244.57H64.4609V247.87H88.1609V244.57Z" fill="white"/>
<path d="M88.1609 258.22H64.4609V261.52H88.1609V258.22Z" fill="white"/>
<path d="M88.1609 271.88H64.4609V275.18H88.1609V271.88Z" fill="white"/>
<path d="M88.1609 285.54H64.4609V288.84H88.1609V285.54Z" fill="white"/>
<path d="M198.118 203.38H160.078V288.83H198.118V203.38Z" fill="#DCDCDC"/>
<path d="M172.789 210.78H166.059V216.02H172.789V210.78Z" fill="#C8C8C8"/>
<path d="M172.789 221.96H166.059V227.2H172.789V221.96Z" fill="#C8C8C8"/>
<path d="M172.789 233.14H166.059V238.38H172.789V233.14Z" fill="#C8C8C8"/>
<path d="M172.789 244.32H166.059V249.56H172.789V244.32Z" fill="#C8C8C8"/>
<path d="M172.789 255.51H166.059V260.75H172.789V255.51Z" fill="#C8C8C8"/>
<path d="M172.789 266.69H166.059V271.93H172.789V266.69Z" fill="#C8C8C8"/>
<path d="M172.789 277.87H166.059V283.11H172.789V277.87Z" fill="#C8C8C8"/>
<path d="M182.48 210.78H175.75V216.02H182.48V210.78Z" fill="#C8C8C8"/>
<path d="M182.48 221.96H175.75V227.2H182.48V221.96Z" fill="#C8C8C8"/>
<path d="M182.48 233.14H175.75V238.38H182.48V233.14Z" fill="#C8C8C8"/>
<path d="M182.48 244.32H175.75V249.56H182.48V244.32Z" fill="#C8C8C8"/>
<path d="M182.48 255.51H175.75V260.75H182.48V255.51Z" fill="#C8C8C8"/>
<path d="M182.48 266.69H175.75V271.93H182.48V266.69Z" fill="#C8C8C8"/>
<path d="M182.48 277.87H175.75V283.11H182.48V277.87Z" fill="#C8C8C8"/>
<path d="M192.14 210.78H185.41V216.02H192.14V210.78Z" fill="#C8C8C8"/>
<path d="M192.14 221.96H185.41V227.2H192.14V221.96Z" fill="#C8C8C8"/>
<path d="M192.14 233.14H185.41V238.38H192.14V233.14Z" fill="#C8C8C8"/>
<path d="M192.14 244.32H185.41V249.56H192.14V244.32Z" fill="#C8C8C8"/>
<path d="M192.14 255.51H185.41V260.75H192.14V255.51Z" fill="#C8C8C8"/>
<path d="M192.14 266.69H185.41V271.93H192.14V266.69Z" fill="#C8C8C8"/>
<path d="M192.14 277.87H185.41V283.11H192.14V277.87Z" fill="#C8C8C8"/>
<path d="M224.807 203.38H198.117V288.83H224.807V203.38Z" fill="#A8A8A8"/>
<path d="M216.59 282.275H222.07V277.035H216.59V282.275Z" fill="#C8C8C8"/>
<path d="M216.59 271.091H222.07V265.851H216.59V271.091Z" fill="#C8C8C8"/>
<path d="M216.59 259.906H222.07V254.666H216.59V259.906Z" fill="#C8C8C8"/>
<path d="M216.59 248.721H222.07V243.481H216.59V248.721Z" fill="#C8C8C8"/>
<path d="M216.59 237.537H222.07V232.297H216.59V237.537Z" fill="#C8C8C8"/>
<path d="M216.59 226.362H222.07V221.122H216.59V226.362Z" fill="#C8C8C8"/>
<path d="M216.59 215.177H222.07V209.938H216.59V215.177Z" fill="#C8C8C8"/>
<path d="M208.715 282.275H214.195V277.035H208.715V282.275Z" fill="#C8C8C8"/>
<path d="M208.715 271.091H214.195V265.851H208.715V271.091Z" fill="#C8C8C8"/>
<path d="M208.715 259.906H214.195V254.666H208.715V259.906Z" fill="#C8C8C8"/>
<path d="M208.715 248.721H214.195V243.481H208.715V248.721Z" fill="#C8C8C8"/>
<path d="M208.715 237.537H214.195V232.297H208.715V237.537Z" fill="#C8C8C8"/>
<path d="M208.715 226.362H214.195V221.122H208.715V226.362Z" fill="#C8C8C8"/>
<path d="M208.715 215.177H214.195V209.938H208.715V215.177Z" fill="#C8C8C8"/>
<path d="M200.848 282.275H206.328V277.035H200.848V282.275Z" fill="#C8C8C8"/>
<path d="M200.848 271.091H206.328V265.851H200.848V271.091Z" fill="#C8C8C8"/>
<path d="M200.848 259.906H206.328V254.666H200.848V259.906Z" fill="#C8C8C8"/>
<path d="M200.848 248.721H206.328V243.481H200.848V248.721Z" fill="#C8C8C8"/>
<path d="M200.848 237.537H206.328V232.297H200.848V237.537Z" fill="#C8C8C8"/>
<path d="M200.848 226.362H206.328V221.122H200.848V226.362Z" fill="#C8C8C8"/>
<path d="M200.848 215.177H206.328V209.938H200.848V215.177Z" fill="#C8C8C8"/>
<path d="M481.128 105.36H454.848V136.4H481.128V105.36Z" fill="#DCDCDC"/>
<path d="M497.789 105.36H481.129V137.54H497.789V105.36Z" fill="#C8C8C8"/>
<path d="M498.899 119.07H482.359V137.54H498.899V119.07Z" fill="#DCDCDC"/>
<path d="M509.208 119.07H498.898V137.54H509.208V119.07Z" fill="#C8C8C8"/>
<path d="M487.27 134.39H444.77V288.83H487.27V134.39Z" fill="#ECECEC"/>
<path d="M462.989 141.03H449.629V146.49H462.989V141.03Z" fill="white"/>
<path d="M480.079 141.03H466.719V146.49H480.079V141.03Z" fill="white"/>
<path d="M462.989 150.3H449.629V155.76H462.989V150.3Z" fill="white"/>
<path d="M480.079 150.3H466.719V155.76H480.079V150.3Z" fill="white"/>
<path d="M462.989 159.57H449.629V165.03H462.989V159.57Z" fill="white"/>
<path d="M480.079 159.57H466.719V165.03H480.079V159.57Z" fill="white"/>
<path d="M462.989 168.84H449.629V174.3H462.989V168.84Z" fill="white"/>
<path d="M480.079 168.84H466.719V174.3H480.079V168.84Z" fill="white"/>
<path d="M462.989 178.11H449.629V183.57H462.989V178.11Z" fill="white"/>
<path d="M480.079 178.11H466.719V183.57H480.079V178.11Z" fill="white"/>
<path d="M462.989 187.38H449.629V192.84H462.989V187.38Z" fill="white"/>
<path d="M480.079 187.38H466.719V192.84H480.079V187.38Z" fill="white"/>
<path d="M462.989 196.65H449.629V202.11H462.989V196.65Z" fill="white"/>
<path d="M480.079 196.65H466.719V202.11H480.079V196.65Z" fill="white"/>
<path d="M462.989 205.92H449.629V211.38H462.989V205.92Z" fill="white"/>
<path d="M480.079 205.92H466.719V211.38H480.079V205.92Z" fill="white"/>
<path d="M462.989 215.19H449.629V220.65H462.989V215.19Z" fill="white"/>
<path d="M480.079 215.19H466.719V220.65H480.079V215.19Z" fill="white"/>
<path d="M462.989 224.46H449.629V229.92H462.989V224.46Z" fill="white"/>
<path d="M480.079 224.46H466.719V229.92H480.079V224.46Z" fill="white"/>
<path d="M462.989 233.73H449.629V239.19H462.989V233.73Z" fill="white"/>
<path d="M480.079 233.73H466.719V239.19H480.079V233.73Z" fill="white"/>
<path d="M462.989 243H449.629V248.46H462.989V243Z" fill="white"/>
<path d="M480.079 243H466.719V248.46H480.079V243Z" fill="white"/>
<path d="M462.989 252.27H449.629V257.73H462.989V252.27Z" fill="white"/>
<path d="M480.079 252.27H466.719V257.73H480.079V252.27Z" fill="white"/>
<path d="M462.989 261.54H449.629V267H462.989V261.54Z" fill="white"/>
<path d="M480.079 261.54H466.719V267H480.079V261.54Z" fill="white"/>
<path d="M521.698 134.39H487.258V288.83H521.698V134.39Z" fill="#C8C8C8"/>
<path d="M507.276 267H518.246V261.54H507.276V267Z" fill="#ECECEC"/>
<path d="M493.237 267H504.207V261.54H493.237V267Z" fill="#ECECEC"/>
<path d="M507.276 257.73H518.246V252.27H507.276V257.73Z" fill="#ECECEC"/>
<path d="M493.237 257.73H504.207V252.27H493.237V257.73Z" fill="#ECECEC"/>
<path d="M507.276 248.46H518.246V243H507.276V248.46Z" fill="#ECECEC"/>
<path d="M493.237 248.46H504.207V243H493.237V248.46Z" fill="#ECECEC"/>
<path d="M507.276 239.189H518.246V233.729H507.276V239.189Z" fill="#ECECEC"/>
<path d="M493.237 239.189H504.207V233.729H493.237V239.189Z" fill="#ECECEC"/>
<path d="M507.276 229.919H518.246V224.459H507.276V229.919Z" fill="#ECECEC"/>
<path d="M493.237 229.919H504.207V224.459H493.237V229.919Z" fill="#ECECEC"/>
<path d="M507.276 220.649H518.246V215.189H507.276V220.649Z" fill="#ECECEC"/>
<path d="M493.237 220.649H504.207V215.189H493.237V220.649Z" fill="#ECECEC"/>
<path d="M507.276 211.378H518.246V205.918H507.276V211.378Z" fill="#ECECEC"/>
<path d="M493.237 211.378H504.207V205.918H493.237V211.378Z" fill="#ECECEC"/>
<path d="M507.276 202.108H518.246V196.648H507.276V202.108Z" fill="#ECECEC"/>
<path d="M493.237 202.108H504.207V196.648H493.237V202.108Z" fill="#ECECEC"/>
<path d="M507.276 192.838H518.246V187.378H507.276V192.838Z" fill="#ECECEC"/>
<path d="M493.237 192.838H504.207V187.378H493.237V192.838Z" fill="#ECECEC"/>
<path d="M507.276 183.568H518.246V178.108H507.276V183.568Z" fill="#ECECEC"/>
<path d="M493.237 183.568H504.207V178.108H493.237V183.568Z" fill="#ECECEC"/>
<path d="M507.276 174.298H518.246V168.838H507.276V174.298Z" fill="#ECECEC"/>
<path d="M493.237 174.298H504.207V168.838H493.237V174.298Z" fill="#ECECEC"/>
<path d="M507.276 165.027H518.246V159.567H507.276V165.027Z" fill="#ECECEC"/>
<path d="M493.237 165.027H504.207V159.567H493.237V165.027Z" fill="#ECECEC"/>
<path d="M507.276 155.757H518.246V150.297H507.276V155.757Z" fill="#ECECEC"/>
<path d="M493.237 155.757H504.207V150.297H493.237V155.757Z" fill="#ECECEC"/>
<path d="M507.276 146.487H518.246V141.027H507.276V146.487Z" fill="#ECECEC"/>
<path d="M493.237 146.487H504.207V141.027H493.237V146.487Z" fill="#ECECEC"/>
<path d="M307.46 188.2H257.34V288.84H307.46V188.2Z" fill="#C8C8C8"/>
<path d="M274.1 196.91H265.23V203.08H274.1V196.91Z" fill="#DCDCDC"/>
<path d="M274.1 210.08H265.23V216.25H274.1V210.08Z" fill="#DCDCDC"/>
<path d="M274.1 223.24H265.23V229.41H274.1V223.24Z" fill="#DCDCDC"/>
<path d="M274.1 236.41H265.23V242.58H274.1V236.41Z" fill="#DCDCDC"/>
<path d="M274.1 249.58H265.23V255.75H274.1V249.58Z" fill="#DCDCDC"/>
<path d="M274.1 262.75H265.23V268.92H274.1V262.75Z" fill="#DCDCDC"/>
<path d="M274.1 275.92H265.23V282.09H274.1V275.92Z" fill="#DCDCDC"/>
<path d="M286.862 196.91H277.992V203.08H286.862V196.91Z" fill="#DCDCDC"/>
<path d="M286.862 210.08H277.992V216.25H286.862V210.08Z" fill="#DCDCDC"/>
<path d="M286.862 223.24H277.992V229.41H286.862V223.24Z" fill="#DCDCDC"/>
<path d="M286.862 236.41H277.992V242.58H286.862V236.41Z" fill="#DCDCDC"/>
<path d="M286.862 249.58H277.992V255.75H286.862V249.58Z" fill="#DCDCDC"/>
<path d="M286.862 262.75H277.992V268.92H286.862V262.75Z" fill="#DCDCDC"/>
<path d="M286.862 275.92H277.992V282.09H286.862V275.92Z" fill="#DCDCDC"/>
<path d="M299.589 196.91H290.719V203.08H299.589V196.91Z" fill="#DCDCDC"/>
<path d="M299.589 210.08H290.719V216.25H299.589V210.08Z" fill="#DCDCDC"/>
<path d="M299.589 223.24H290.719V229.41H299.589V223.24Z" fill="#DCDCDC"/>
<path d="M299.589 236.41H290.719V242.58H299.589V236.41Z" fill="#DCDCDC"/>
<path d="M299.589 249.58H290.719V255.75H299.589V249.58Z" fill="#DCDCDC"/>
<path d="M299.589 262.75H290.719V268.92H299.589V262.75Z" fill="#DCDCDC"/>
<path d="M299.589 275.92H290.719V282.09H299.589V275.92Z" fill="#DCDCDC"/>
<path d="M307.472 177.71H274.102V188.2H307.472V177.71Z" fill="#DCDCDC"/>
<path d="M307.469 171.22H286.309V177.71H307.469V171.22Z" fill="#ECECEC"/>
<path d="M342.639 188.2H307.469V288.84H342.639V188.2Z" fill="#A8A8A8"/>
<path d="M331.811 281.103H339.031V274.933H331.811V281.103Z" fill="#C8C8C8"/>
<path d="M331.811 267.934H339.031V261.764H331.811V267.934Z" fill="#C8C8C8"/>
<path d="M331.811 254.765H339.031V248.595H331.811V254.765Z" fill="#C8C8C8"/>
<path d="M331.811 241.597H339.031V235.427H331.811V241.597Z" fill="#C8C8C8"/>
<path d="M331.811 228.428H339.031V222.258H331.811V228.428Z" fill="#C8C8C8"/>
<path d="M331.811 215.26H339.031V209.09H331.811V215.26Z" fill="#C8C8C8"/>
<path d="M331.811 202.091H339.031V195.921H331.811V202.091Z" fill="#C8C8C8"/>
<path d="M321.428 281.103H328.648V274.933H321.428V281.103Z" fill="#C8C8C8"/>
<path d="M321.428 267.934H328.648V261.764H321.428V267.934Z" fill="#C8C8C8"/>
<path d="M321.428 254.765H328.648V248.595H321.428V254.765Z" fill="#C8C8C8"/>
<path d="M321.428 241.597H328.648V235.427H321.428V241.597Z" fill="#C8C8C8"/>
<path d="M321.428 228.428H328.648V222.258H321.428V228.428Z" fill="#C8C8C8"/>
<path d="M321.428 215.26H328.648V209.09H321.428V215.26Z" fill="#C8C8C8"/>
<path d="M321.428 202.091H328.648V195.921H321.428V202.091Z" fill="#C8C8C8"/>
<path d="M311.065 281.103H318.285V274.933H311.065V281.103Z" fill="#C8C8C8"/>
<path d="M311.065 267.934H318.285V261.764H311.065V267.934Z" fill="#C8C8C8"/>
<path d="M311.065 254.765H318.285V248.595H311.065V254.765Z" fill="#C8C8C8"/>
<path d="M311.065 241.597H318.285V235.427H311.065V241.597Z" fill="#C8C8C8"/>
<path d="M311.065 228.428H318.285V222.258H311.065V228.428Z" fill="#C8C8C8"/>
<path d="M311.065 215.26H318.285V209.09H311.065V215.26Z" fill="#C8C8C8"/>
<path d="M311.065 202.091H318.285V195.921H311.065V202.091Z" fill="#C8C8C8"/>
<path d="M337.309 177.71H307.469V188.2H337.309V177.71Z" fill="#C8C8C8"/>
<path d="M323.639 171.22H307.469V177.71H323.639V171.22Z" fill="#DCDCDC"/>
<path d="M53.8788 287.24C53.8788 287.24 52.7688 282.08 50.5588 281.28C48.3488 280.48 46.9988 282.8 46.9988 282.8C46.9988 282.8 46.4787 277.87 43.3487 276.39C40.2188 274.91 37.8588 277.94 37.8588 277.94C37.8588 277.94 35.4588 271.68 31.1588 271.68C26.8588 271.68 24.6988 280.84 24.6988 280.84C24.6988 280.84 22.1688 278.11 19.5688 279.65C16.9688 281.19 16.9688 287.24 16.9688 287.24H53.8788Z" fill="#39B039"/>
<path d="M420.547 287.24C420.547 287.24 419.437 282.08 417.227 281.28C415.017 280.48 413.667 282.8 413.667 282.8C413.667 282.8 413.147 277.87 410.017 276.39C406.887 274.91 404.527 277.94 404.527 277.94C404.527 277.94 402.117 271.68 397.827 271.68C393.527 271.68 391.367 280.84 391.367 280.84C391.367 280.84 388.837 278.11 386.237 279.65C383.637 281.19 383.637 287.24 383.637 287.24H420.547Z" fill="#39B039"/>
<path d="M151.549 287.24H112.699C112.699 287.24 113.979 281.76 116.559 281.37C119.139 280.98 120.329 283.52 120.329 283.52C120.329 283.52 120.209 275.88 125.029 274.58C129.839 273.28 133.879 280.03 133.879 280.03C133.879 280.03 136.899 276.18 141.009 276.43C145.119 276.68 146.169 283.04 146.169 283.04C146.169 283.04 149.899 280.83 151.549 287.24Z" fill="#39B039"/>
<path d="M19.3484 287.24H-1.10156C-1.10156 287.24 -1.05156 284.2 0.958437 283.39C2.96844 282.58 4.16844 284.16 4.16844 284.16C4.16844 284.16 4.98844 278.56 8.73844 278.56C12.4884 278.56 14.2784 283.39 14.2784 283.39C14.2784 283.39 15.1184 281.93 17.1984 282.2C19.2684 282.47 19.3484 287.24 19.3484 287.24Z" fill="#39B039"/>
<path d="M167.598 287.24H147.148C147.148 287.24 147.198 284.2 149.208 283.39C151.218 282.58 152.418 284.16 152.418 284.16C152.418 284.16 153.238 278.56 156.988 278.56C160.738 278.56 162.528 283.39 162.528 283.39C162.528 283.39 163.368 281.93 165.448 282.2C167.518 282.47 167.598 287.24 167.598 287.24Z" fill="#39B039"/>
<path d="M503.97 287.24H483.52C483.52 287.24 483.57 284.2 485.58 283.39C487.59 282.58 488.79 284.16 488.79 284.16C488.79 284.16 489.61 278.56 493.36 278.56C497.11 278.56 498.9 283.39 498.9 283.39C498.9 283.39 499.74 281.93 501.82 282.2C503.88 282.47 503.97 287.24 503.97 287.24Z" fill="#39B039"/>
<path d="M533.81 287.24H500.09C500.09 287.24 500.17 282.22 503.48 280.89C506.79 279.56 508.77 282.16 508.77 282.16C508.77 282.16 510.12 272.93 516.3 272.93C522.48 272.93 525.43 280.89 525.43 280.89C525.43 280.89 526.81 278.48 530.24 278.93C533.67 279.38 533.81 287.24 533.81 287.24Z" fill="#39B039"/>
<path d="M540.7 287.24H-8V296.8H540.7V287.24Z" fill="#C8C8C8"/>
<path d="M30.4703 287.24C30.9803 288.83 31.1003 290.43 31.1203 292.02C31.1003 293.61 30.9903 295.21 30.4703 296.8C29.9503 295.21 29.8403 293.61 29.8203 292.02C29.8403 290.42 29.9503 288.83 30.4703 287.24Z" fill="#1A2E35"/>
<path d="M73.3609 287.24C73.8709 288.83 73.9909 290.43 74.0109 292.02C73.9909 293.61 73.8809 295.21 73.3609 296.8C72.8409 295.21 72.7309 293.61 72.7109 292.02C72.7309 290.42 72.8409 288.83 73.3609 287.24Z" fill="#1A2E35"/>
<path d="M116.24 287.24C116.75 288.83 116.87 290.43 116.89 292.02C116.87 293.61 116.76 295.21 116.24 296.8C115.72 295.21 115.61 293.61 115.59 292.02C115.61 290.42 115.73 288.83 116.24 287.24Z" fill="#1A2E35"/>
<path d="M159.13 287.24C159.64 288.83 159.76 290.43 159.78 292.02C159.76 293.61 159.65 295.21 159.13 296.8C158.61 295.21 158.5 293.61 158.48 292.02C158.5 290.42 158.62 288.83 159.13 287.24Z" fill="#1A2E35"/>
<path d="M202.021 287.24C202.531 288.83 202.651 290.43 202.671 292.02C202.651 293.61 202.541 295.21 202.021 296.8C201.501 295.21 201.391 293.61 201.371 292.02C201.391 290.42 201.501 288.83 202.021 287.24Z" fill="#1A2E35"/>
<path d="M244.912 287.24C245.422 288.83 245.542 290.43 245.562 292.02C245.542 293.61 245.432 295.21 244.912 296.8C244.392 295.21 244.282 293.61 244.262 292.02C244.282 290.42 244.392 288.83 244.912 287.24Z" fill="#1A2E35"/>
<path d="M287.791 287.24C288.301 288.83 288.421 290.43 288.441 292.02C288.421 293.61 288.311 295.21 287.791 296.8C287.271 295.21 287.161 293.61 287.141 292.02C287.161 290.42 287.281 288.83 287.791 287.24Z" fill="#1A2E35"/>
<path d="M330.681 287.24C331.191 288.83 331.311 290.43 331.331 292.02C331.311 293.61 331.201 295.21 330.681 296.8C330.161 295.21 330.051 293.61 330.031 292.02C330.051 290.42 330.171 288.83 330.681 287.24Z" fill="#1A2E35"/>
<path d="M373.572 287.24C374.082 288.83 374.202 290.43 374.222 292.02C374.202 293.61 374.092 295.21 373.572 296.8C373.052 295.21 372.942 293.61 372.922 292.02C372.942 290.42 373.062 288.83 373.572 287.24Z" fill="#1A2E35"/>
<path d="M416.459 287.24C416.969 288.83 417.089 290.43 417.109 292.02C417.089 293.61 416.979 295.21 416.459 296.8C415.939 295.21 415.829 293.61 415.809 292.02C415.829 290.42 415.939 288.83 416.459 287.24Z" fill="#1A2E35"/>
<path d="M459.349 287.24C459.859 288.83 459.979 290.43 459.999 292.02C459.979 293.61 459.869 295.21 459.349 296.8C458.829 295.21 458.719 293.61 458.699 292.02C458.719 290.42 458.829 288.83 459.349 287.24Z" fill="#1A2E35"/>
<path d="M502.232 287.24C502.742 288.83 502.862 290.43 502.882 292.02C502.862 293.61 502.752 295.21 502.232 296.8C501.712 295.21 501.602 293.61 501.582 292.02C501.602 290.42 501.722 288.83 502.232 287.24Z" fill="#1A2E35"/>
<path d="M385.33 163.679H362.133V162.209C362.133 155.811 367.326 150.626 373.734 150.626C380.141 150.626 385.334 155.811 385.334 162.209L385.33 163.679Z" fill="#E527BB"/>
<path d="M368.971 163.679H345.77V162.209C345.77 155.811 350.963 150.626 357.37 150.626C363.778 150.626 368.971 155.811 368.971 162.209V163.679Z" fill="#E527BB"/>
<path d="M466.999 239.935V256.355C466.999 257.751 466.713 259.077 466.2 260.289C464.669 263.867 461.105 266.385 456.961 266.385H433.556C432.342 262.369 429.922 258.885 426.687 256.378C426.679 256.367 426.679 256.367 426.667 256.359C426.291 256.062 425.891 255.776 425.492 255.514C422.308 253.363 418.47 252.12 414.334 252.12C411.087 252.12 408.016 252.882 405.31 254.259C404.566 254.626 403.849 255.057 403.168 255.514C402.768 255.78 402.373 256.066 401.993 256.359C398.758 258.877 396.326 262.361 395.112 266.389H294.316C293.325 263.097 291.52 260.164 289.119 257.829C288.586 257.309 288.026 256.82 287.435 256.363C287.055 256.065 286.659 255.78 286.26 255.518C283.064 253.367 279.226 252.124 275.094 252.124C270.958 252.124 267.12 253.367 263.924 255.518C263.525 255.784 263.129 256.069 262.749 256.363C260.552 258.076 258.727 260.226 257.399 262.69C256.765 263.851 256.256 265.095 255.868 266.389H238.851C237.852 266.389 236.892 266.249 235.98 265.971C231.836 264.739 228.812 260.895 228.812 256.359L228.844 255.514L229.141 247.189L229.416 239.516L229.529 236.489L229.999 223.432L230.367 213.057L231.632 177.722L231.879 170.925C231.91 169.498 232.228 168.141 232.8 166.921C233.309 165.81 234.014 164.801 234.883 163.965C236.689 162.17 239.172 161.071 241.917 161.071H390.706C393.369 161.071 395.922 162.131 397.802 164.004L399.138 165.451L400.497 166.917L404.194 170.921L445.901 216.112L456.832 224.277L462.151 228.254C462.436 228.539 462.703 228.825 462.957 229.13C463.173 229.364 463.365 229.607 463.561 229.865C463.702 230.049 463.835 230.221 463.968 230.416C464.101 230.6 464.222 230.784 464.344 230.976C464.598 231.363 464.833 231.75 465.049 232.156C465.17 232.391 465.296 232.634 465.405 232.88C465.875 233.85 466.232 234.866 466.498 235.907C466.561 236.173 466.619 236.435 466.67 236.701C466.733 236.966 466.772 237.232 466.811 237.498C466.85 237.745 466.882 237.975 466.901 238.222C466.933 238.519 466.964 238.824 466.972 239.129C466.987 239.383 466.999 239.661 466.999 239.935Z" fill="white"/>
<path d="M291.876 271.277C291.876 280.471 284.416 287.932 275.196 287.932C265.988 287.932 258.516 280.471 258.516 271.277C258.516 267.883 259.538 264.723 261.281 262.095C264.261 257.59 269.384 254.626 275.192 254.626C279.183 254.626 282.837 256.022 285.708 258.345C289.476 261.387 291.876 266.056 291.876 271.277Z" fill="#262123"/>
<path d="M284.172 271.273C284.172 276.224 280.154 280.236 275.195 280.236C270.241 280.236 266.223 276.224 266.223 271.273C266.223 266.323 270.241 262.311 275.195 262.311C280.154 262.311 284.172 266.323 284.172 271.273Z" fill="#B2DCF7"/>
<path d="M431.58 271.278C431.58 280.471 424.107 287.932 414.903 287.932C405.684 287.932 398.223 280.471 398.223 271.278C398.223 262.072 405.684 254.623 414.903 254.623C424.107 254.623 431.58 262.072 431.58 271.278Z" fill="#262123"/>
<path d="M414.895 280.236C419.852 280.236 423.871 276.224 423.871 271.273C423.871 266.323 419.852 262.311 414.895 262.311C409.937 262.311 405.918 266.323 405.918 271.273C405.918 276.224 409.937 280.236 414.895 280.236Z" fill="#B2DCF7"/>
<path d="M236.988 230.373C236.988 235.653 231.529 236.388 229.535 236.478L230.005 223.42C232.261 223.894 236.988 225.462 236.988 230.373Z" fill="#CC293D"/>
<path d="M466.998 239.935V242.257C453.686 240.525 455.883 227.976 456.831 224.269L462.149 228.246C462.435 228.532 462.701 228.817 462.956 229.122C463.171 229.357 463.363 229.599 463.559 229.857C463.7 230.041 463.833 230.213 463.967 230.409C464.1 230.592 464.221 230.776 464.343 230.968C464.597 231.355 464.832 231.742 465.047 232.149C465.169 232.383 465.294 232.626 465.404 232.872C465.874 233.842 466.23 234.859 466.497 235.899C466.559 236.165 466.618 236.431 466.669 236.693C466.732 236.959 466.771 237.221 466.81 237.491C466.849 237.737 466.88 237.968 466.9 238.214C466.931 238.511 466.963 238.816 466.97 239.121C466.986 239.383 466.998 239.661 466.998 239.935Z" fill="#FFC05A"/>
<path d="M466.998 246V247.181H229.148L229.423 239.508C231.577 239.723 239.653 239.598 240.048 229.857H453.165C453.463 238.671 457.332 245.335 466.998 246Z" fill="#E527BB"/>
<path d="M404.73 170.914H231.887C231.918 169.486 232.235 168.129 232.807 166.909H400.724L404.73 170.914Z" fill="#E527BB"/>
<path d="M263.928 255.506C263.528 255.772 263.133 256.058 262.753 256.351C260.556 258.064 258.731 260.215 257.403 262.678C256.769 263.84 256.259 265.083 255.872 266.378H238.854C237.856 266.378 236.896 266.237 235.984 265.959C231.84 264.727 228.816 260.883 228.816 256.347L228.848 255.502L263.928 255.506Z" fill="#E527BB"/>
<path d="M403.17 255.506C402.77 255.772 402.375 256.058 401.995 256.351C398.76 258.869 396.327 262.354 395.113 266.382H294.318C293.327 263.089 291.522 260.156 289.121 257.821C288.588 257.301 288.028 256.812 287.437 256.355C287.057 256.058 286.661 255.772 286.262 255.51H403.17V255.506Z" fill="#E527BB"/>
<path d="M466.999 255.506V256.351C466.999 261.884 462.507 266.382 456.965 266.382H433.56C432.346 262.354 429.918 258.869 426.671 256.351C426.295 256.054 425.896 255.768 425.496 255.506H466.999Z" fill="#E527BB"/>
<path d="M287.685 196.398C287.685 208.103 278.18 217.594 266.458 217.594C254.736 217.594 245.23 208.103 245.23 196.398C245.23 184.694 254.736 175.203 266.458 175.203C278.18 175.203 287.685 184.69 287.685 196.398Z" fill="#E527BB"/>
<path d="M277.523 193.673H269.185V185.351H263.733V193.673H255.395V199.116H263.733V207.442H269.185V199.116H277.523V193.673Z" fill="white"/>
<path d="M409.738 177.71C408.317 177.71 407.561 179.388 408.505 180.451L437.017 212.49C437.33 212.842 437.777 213.042 438.25 213.042H439.312C440.749 213.042 441.497 211.333 440.526 210.281L410.956 178.242C410.639 177.902 410.2 177.71 409.738 177.71Z" fill="#E527BB"/>
<path d="M407.783 213.046H386.936C381.543 213.046 377.172 208.681 377.172 203.297V187.459C377.172 182.074 381.543 177.71 386.936 177.71H393.672C396.461 177.71 399.116 178.899 400.969 180.979L408.978 189.969L411.018 192.265L413.725 195.303L415.084 196.821C420.677 203.109 416.208 213.046 407.783 213.046Z" fill="#E527BB"/>
<path d="M372.403 195.378C372.403 205.135 364.48 213.046 354.708 213.046H313.89C304.118 213.046 296.195 205.135 296.195 195.378C296.195 185.621 304.118 177.71 313.89 177.71H354.712C364.48 177.71 372.403 185.621 372.403 195.378Z" fill="#E527BB"/>
<path d="M345.771 237.166H341.623V233.025H338.913V237.166H334.77V239.872H338.913V244.009H341.623V239.872H345.771V237.166Z" fill="white"/>
<path d="M369.298 237.166H365.151V233.025H362.444V237.166H358.297V239.872H362.444V244.009H365.151V239.872H369.298V237.166Z" fill="white"/>
<path d="M301.904 237.166H297.756V233.025H295.05V237.166H290.902V239.872H295.05V244.009H297.756V239.872H301.904V237.166Z" fill="white"/>
<path d="M323.841 237.166H319.698V233.025H316.987V237.166H312.84V239.872H316.987V244.009H319.698V239.872H323.841V237.166Z" fill="white"/>
<path d="M257.861 237.166H253.717V233.025H251.007V237.166H246.859V239.872H251.007V244.009H253.717V239.872H257.861V237.166Z" fill="white"/>
<path d="M281.388 237.166H277.245V233.025H274.534V237.166H270.391V239.872H274.534V244.009H277.245V239.872H281.388V237.166Z" fill="white"/>
<path d="M394.318 237.166H390.17V233.025H387.464V237.166H383.316V239.872H387.464V244.009H390.17V239.872H394.318V237.166Z" fill="white"/>
<path d="M418.806 237.166H414.663V233.025H411.952V237.166H407.805V239.872H411.952V244.009H414.663V239.872H418.806V237.166Z" fill="white"/>
<path d="M443.072 237.166H438.928V233.025H436.218V237.166H432.07V239.872H436.218V244.009H438.928V239.872H443.072V237.166Z" fill="white"/>
<path d="M213.986 173.82H195.966C194.302 173.82 192.953 172.474 192.953 170.812V152.819C192.953 151.158 194.302 149.811 195.966 149.811H213.986C215.65 149.811 216.999 151.158 216.999 152.819V170.812C216.999 172.474 215.65 173.82 213.986 173.82Z" fill="#A78BEF"/>
<path d="M200.384 171.216C200.371 171.216 200.358 171.216 200.344 171.214C200.112 171.194 199.928 171.011 199.908 170.78L198.614 155.898L197.061 161.935C197.007 162.146 196.816 162.294 196.597 162.294H194.858C194.594 162.294 194.379 162.079 194.379 161.816C194.379 161.552 194.594 161.338 194.858 161.338H196.226L198.384 152.947C198.443 152.722 198.656 152.571 198.886 152.59C199.118 152.608 199.303 152.793 199.323 153.024L200.618 167.941L203.396 157.335C203.451 157.124 203.646 156.978 203.859 156.978C204.077 156.98 204.267 157.127 204.321 157.337L205.342 161.334H208.714L210.661 154.565C210.725 154.345 210.936 154.201 211.165 154.221C211.393 154.243 211.574 154.422 211.598 154.65L212.676 165.637L213.323 161.735C213.361 161.504 213.561 161.336 213.795 161.336H215.316C215.58 161.336 215.795 161.551 215.795 161.814C215.795 162.077 215.58 162.292 215.316 162.292H214.199L213.025 169.378C212.987 169.615 212.778 169.787 212.537 169.777C212.296 169.769 212.1 169.584 212.076 169.346L210.889 157.236L209.536 161.946C209.477 162.151 209.289 162.292 209.075 162.292H204.971C204.753 162.292 204.561 162.144 204.507 161.933L203.852 159.367L200.848 170.859C200.793 171.07 200.601 171.216 200.384 171.216Z" fill="white"/>
<path d="M187.115 180.737H171.731C170.311 180.737 169.16 179.587 169.16 178.17V162.81C169.16 161.392 170.312 160.243 171.731 160.243H187.115C188.535 160.243 189.686 161.393 189.686 162.81V178.17C189.688 179.589 188.535 180.737 187.115 180.737Z" fill="#A78BEF"/>
<path d="M184.2 169.683C184.047 169.683 183.901 169.598 183.831 169.45L182.079 165.765C181.982 165.562 182.069 165.318 182.272 165.221C182.475 165.124 182.719 165.211 182.816 165.414L184.568 169.1C184.665 169.303 184.578 169.546 184.375 169.643C184.318 169.672 184.259 169.683 184.2 169.683Z" fill="white"/>
<path d="M181.802 171.04C181.634 171.04 181.476 170.934 181.415 170.766L179.973 166.665C179.897 166.452 180.01 166.219 180.223 166.145C180.436 166.07 180.67 166.182 180.744 166.395L182.186 170.496C182.262 170.709 182.149 170.943 181.936 171.016C181.892 171.031 181.847 171.04 181.802 171.04Z" fill="white"/>
<path d="M179.733 172.274C179.698 172.274 179.661 172.269 179.624 172.259L175.554 171.141C175.336 171.08 175.208 170.856 175.269 170.639C175.329 170.423 175.554 170.294 175.771 170.354L179.84 171.473C180.059 171.533 180.186 171.758 180.126 171.974C180.077 172.155 179.912 172.274 179.733 172.274Z" fill="white"/>
<path d="M178.711 174.59C178.663 174.59 178.612 174.581 178.564 174.563L174.222 172.893C174.012 172.812 173.907 172.576 173.989 172.365C174.07 172.155 174.306 172.049 174.518 172.131L178.859 173.802C179.069 173.882 179.175 174.118 179.093 174.33C179.029 174.491 178.874 174.59 178.711 174.59Z" fill="white"/>
<path d="M174.497 177.258C174.331 177.258 174.175 177.157 174.114 176.993C174.049 176.815 172.529 172.614 175.414 170.423C177.003 169.215 178.34 169.574 179.633 169.921C180.689 170.205 181.687 170.473 182.883 169.913C185.375 168.744 183.962 164.299 183.949 164.254C183.88 164.039 183.996 163.809 184.211 163.741C184.426 163.672 184.656 163.787 184.725 164.002C184.794 164.213 186.372 169.179 183.228 170.651C181.762 171.338 180.518 171.003 179.421 170.709C178.217 170.386 177.179 170.107 175.91 171.072C173.508 172.896 174.867 176.671 174.882 176.709C174.959 176.92 174.852 177.155 174.64 177.232C174.593 177.249 174.544 177.258 174.497 177.258Z" fill="white"/>
<path d="M175.705 175.787C173.952 175.787 172.418 175.013 172.314 174.959C172.115 174.855 172.036 174.61 172.14 174.409C172.244 174.209 172.489 174.131 172.691 174.234C172.726 174.253 176.315 176.057 178.419 173.897C179.531 172.756 179.38 171.692 179.205 170.462C179.045 169.338 178.864 168.064 179.724 166.694C181.57 163.758 186.314 165.924 186.515 166.018C186.72 166.114 186.808 166.355 186.714 166.56C186.618 166.764 186.376 166.851 186.171 166.757C186.116 166.732 181.877 164.804 180.418 167.128C179.716 168.245 179.862 169.266 180.016 170.348C180.204 171.671 180.399 173.039 179.007 174.468C178.021 175.475 176.819 175.787 175.705 175.787Z" fill="white"/>
<path d="M134.694 169.863H82.2984C79.372 169.863 77 172.276 77 175.263V283.128C77 286.107 79.3758 288.528 82.2984 288.528H134.694C137.624 288.528 140 286.107 140 283.128V175.263C140 172.276 137.624 169.863 134.694 169.863ZM136.689 279.794C136.689 282.634 134.562 284.93 131.941 284.93H85.0626C82.4342 284.93 80.3073 282.634 80.3073 279.794V179.351C80.3073 173.566 82.4342 173.287 85.0626 173.287H94.4527C94.9995 173.287 95.4445 173.905 95.4445 174.675V175.007C95.4445 176.809 96.4287 176.813 97.643 176.813H119.357C120.579 176.813 121.556 176.805 121.556 175.007V174.675C121.556 173.905 121.997 173.287 122.551 173.287H131.941C134.562 173.287 136.689 174.056 136.689 179.351V279.794Z" fill="#1A2E35"/>
<path d="M111.458 174.562H105.534C105.33 174.562 105.168 174.4 105.168 174.196C105.168 173.992 105.33 173.83 105.534 173.83H111.458C111.662 173.83 111.824 173.992 111.824 174.196C111.824 174.4 111.658 174.562 111.458 174.562Z" fill="white"/>
<path d="M136.69 179.351V279.794C136.69 282.634 134.563 284.93 131.943 284.93H85.064C82.4355 284.93 80.3086 282.634 80.3086 279.794V179.351C80.3086 173.566 82.4355 173.287 85.064 173.287H94.454C95.0008 173.287 95.4458 173.905 95.4458 174.675V175.007C95.4458 176.809 96.43 176.813 97.6443 176.813H119.358C120.58 176.813 121.557 176.805 121.557 175.007V174.675C121.557 173.905 121.998 173.287 122.552 173.287H131.943C134.563 173.283 136.69 174.052 136.69 179.351Z" fill="#ECECEC"/>
<path d="M129.667 277.569H104.582V279.402H129.667V277.569Z" fill="white"/>
<path d="M136.69 191.09V189.258H120.705V187.802H118.872V192.161L103.425 199.24L102.26 201.947L92.5383 192.225V187.798H91.6219V192.146H80.3086V193.979H81.9113V229.831H91.4447L88.688 236.14V249.776H80.335V250.693H88.688V254.301H103.667V267.497H80.3086V269.329H103.667V284.934H105.5V254.298H110.67V264.291H113.479V263.375H111.586V254.298H116.353L128.748 267.44V284.93H130.581V266.712L124.717 260.494L136.687 248.524V245.933L123.461 259.159L117.148 252.461H98.4589L110.014 239.896H136.656V238.979H110.858L121.595 227.308H136.687V225.475H130.408V191.083H136.69V191.09ZM83.7441 227.998V208.78H91.3919V207.864H83.7441V193.979H91.7011L101.578 203.855L91.9952 227.998H83.7441ZM95.9662 252.465H90.5207V236.524L97.1315 219.668L115.501 227.315H119.102L95.9662 252.465ZM128.579 225.479H115.915L97.7198 218.065C97.9951 217.345 104.696 200.665 104.696 200.665L114.678 196.091L128.579 209.995V225.479ZM128.579 208.705L115.565 195.691L120.701 193.334V191.09H128.575V208.705H128.579Z" fill="white"/>
<path d="M91.1849 194.956L95.0804 198.855H87.0781V194.956H91.1849Z" fill="#E527BB"/>
<path d="M92.0898 247.298V236.732L95.0388 229.521L100.416 232.188H112.963L98.8929 247.298H92.0898Z" fill="#E527BB"/>
<path d="M136.69 192.267H131.758V198.817H136.69V192.267Z" fill="#E527BB"/>
<path d="M122.687 262.409H112.305V259.807H120.232L122.687 262.409Z" fill="#E527BB"/>
<path d="M121.579 204.659L124.717 207.672L120.912 210.987V213.97L114.195 210.549L121.579 204.659Z" fill="#E527BB"/>
<path d="M136.686 271.015H131.957V279.794H136.686V271.015Z" fill="#E527BB"/>
<path d="M102.523 281.555H97.7336L92.2617 276.525V270.427H102.523V281.555Z" fill="#E527BB"/>
<path d="M86.1368 266.776H81.0156V258.224H83.8967L86.1368 261.15V266.776Z" fill="#E527BB"/>
<path d="M114.002 270.581H111.129V271.803H114.002V270.581Z" fill="#E527BB"/>
<path d="M136.687 179.351V196.905H80.3086V179.351C80.3086 173.566 82.4355 173.287 85.064 173.287H94.454C95.0008 173.287 95.4458 173.905 95.4458 174.675V175.007C95.4458 176.809 96.43 176.813 97.6406 176.813H119.355C120.576 176.813 121.557 176.805 121.557 175.007V174.675C121.557 173.905 121.998 173.287 122.552 173.287H131.943C134.563 173.283 136.687 174.052 136.687 179.351Z" fill="#E527BB"/>
<path d="M92.8294 175.542C92.7992 175.572 92.769 175.603 92.7389 175.633C92.72 175.652 92.7049 175.667 92.6861 175.686C92.4409 175.448 92.1506 175.324 91.8112 175.324C91.4718 175.324 91.1814 175.448 90.9363 175.686C90.9212 175.67 90.9023 175.652 90.8872 175.633C90.8571 175.603 90.8269 175.572 90.7967 175.542C90.7967 175.542 90.7967 175.542 90.793 175.542C90.793 175.542 90.793 175.542 90.793 175.538C90.7967 175.538 90.7967 175.535 90.8005 175.535C90.8382 175.501 90.8759 175.467 90.9136 175.433C90.9966 175.365 91.0834 175.308 91.1776 175.263C91.2908 175.207 91.4077 175.169 91.5283 175.146C91.5849 175.135 91.6452 175.131 91.7056 175.124C91.7244 175.12 91.8564 175.12 91.8602 175.12C91.9017 175.124 91.9394 175.124 91.9809 175.127C92.0902 175.139 92.1996 175.165 92.3052 175.203C92.3806 175.229 92.4523 175.263 92.5239 175.305C92.5993 175.346 92.6672 175.395 92.7313 175.452C92.7653 175.482 92.7992 175.508 92.8294 175.542C92.8294 175.538 92.8294 175.538 92.8294 175.542Z" fill="white"/>
<path d="M91.2292 175.968C91.1802 175.919 91.135 175.874 91.0859 175.825C91.2481 175.663 91.4404 175.561 91.6705 175.531C92.0099 175.486 92.3002 175.587 92.5491 175.821C92.5001 175.87 92.4548 175.915 92.4058 175.964C92.2437 175.806 92.0476 175.723 91.8175 175.723C91.5875 175.723 91.3914 175.81 91.2292 175.968Z" fill="white"/>
<path d="M92.2572 176.112C92.2081 176.161 92.1629 176.206 92.1139 176.255C92.0309 176.176 91.9328 176.131 91.8122 176.131C91.6953 176.131 91.5934 176.176 91.5105 176.255C91.4615 176.206 91.4162 176.161 91.3672 176.112C91.5972 175.874 92.0045 175.855 92.2572 176.112Z" fill="white"/>
<path d="M91.9439 176.383C91.9439 176.455 91.8874 176.512 91.8157 176.512C91.7441 176.512 91.6875 176.455 91.6875 176.383C91.6875 176.312 91.7441 176.255 91.8157 176.255C91.8836 176.255 91.9439 176.312 91.9439 176.383Z" fill="white"/>
<path d="M83.9844 175.814C83.9844 175.606 84.1503 175.44 84.3577 175.44C84.5651 175.44 84.7311 175.606 84.7311 175.814C84.7311 176.021 84.5651 176.187 84.3577 176.187C84.1503 176.187 83.9844 176.021 83.9844 175.814Z" fill="white"/>
<path d="M85.1641 175.814C85.1641 175.606 85.33 175.44 85.5374 175.44C85.7448 175.44 85.9107 175.606 85.9107 175.814C85.9107 176.021 85.7448 176.187 85.5374 176.187C85.33 176.187 85.1641 176.021 85.1641 175.814Z" fill="white"/>
<path d="M86.3359 175.814C86.3359 175.606 86.5019 175.44 86.7093 175.44C86.9167 175.44 87.0826 175.606 87.0826 175.814C87.0826 176.021 86.9167 176.187 86.7093 176.187C86.5056 176.187 86.3359 176.021 86.3359 175.814Z" fill="white"/>
<path d="M87.5156 175.814C87.5156 175.606 87.6815 175.44 87.889 175.44C88.0964 175.44 88.2623 175.606 88.2623 175.814C88.2623 176.021 88.0964 176.187 87.889 176.187C87.6853 176.187 87.5156 176.021 87.5156 175.814Z" fill="white"/>
<path d="M88.6914 175.814C88.6914 175.606 88.8573 175.44 89.0647 175.44C89.2722 175.44 89.4381 175.606 89.4381 175.814C89.4381 176.021 89.2722 176.187 89.0647 176.187C88.8611 176.187 88.6914 176.021 88.6914 175.814Z" fill="white"/>
<path d="M132.457 176.628H129.418V175.222H132.457V176.628ZM129.569 176.477H132.303V175.376H129.569V176.477Z" fill="white"/>
<path d="M131.629 175.459H129.668V176.391H131.629V175.459Z" fill="white"/>
<path d="M132.732 175.55H132.461V176.304H132.732V175.55Z" fill="white"/>
<path d="M132.408 183.582C132.566 183.582 132.694 183.454 132.694 183.295C132.694 183.137 132.566 183.009 132.408 183.009C132.249 183.009 132.121 183.137 132.121 183.295C132.121 183.454 132.249 183.582 132.408 183.582Z" fill="white"/>
<path d="M131.384 183.582C131.543 183.582 131.671 183.454 131.671 183.295C131.671 183.137 131.543 183.009 131.384 183.009C131.226 183.009 131.098 183.137 131.098 183.295C131.098 183.454 131.226 183.582 131.384 183.582Z" fill="white"/>
<path d="M130.365 183.582C130.523 183.582 130.651 183.454 130.651 183.295C130.651 183.137 130.523 183.009 130.365 183.009C130.206 183.009 130.078 183.137 130.078 183.295C130.078 183.454 130.206 183.582 130.365 183.582Z" fill="white"/>
<path d="M85.3378 184.423L83.9727 183.295L85.3378 182.168L85.549 182.368L84.4252 183.295L85.549 184.223L85.3378 184.423Z" fill="white"/>
<path d="M88.952 185.615C88.952 185.683 88.8954 185.739 88.8276 185.739C88.7597 185.739 88.7031 185.683 88.7031 185.615C88.7031 185.547 88.7597 185.49 88.8276 185.49C88.8954 185.49 88.952 185.547 88.952 185.615Z" fill="white"/>
<path d="M88.952 186.339C88.952 186.407 88.8954 186.463 88.8276 186.463C88.7597 186.463 88.7031 186.407 88.7031 186.339C88.7031 186.271 88.7597 186.214 88.8276 186.214C88.8954 186.214 88.952 186.271 88.952 186.339Z" fill="white"/>
<path d="M88.952 187.063C88.952 187.131 88.8954 187.187 88.8276 187.187C88.7597 187.187 88.7031 187.131 88.7031 187.063C88.7031 186.995 88.7597 186.938 88.8276 186.938C88.8954 186.938 88.952 186.995 88.952 187.063Z" fill="white"/>
<path d="M127.187 181.044H91.6406V185.55H127.187V181.044Z" fill="white"/>
<path d="M127.187 187.112H91.6406V191.619H127.187V187.112Z" fill="white"/>
<path opacity="0.4" d="M90.1042 183.296C90.1042 183.997 89.5348 184.567 88.8334 184.567C88.1319 184.567 87.5625 183.997 87.5625 183.296C87.5625 182.594 88.1319 182.025 88.8334 182.025C89.5348 182.025 90.1042 182.594 90.1042 183.296Z" fill="white"/>
<path d="M88.8252 183.921C89.171 183.921 89.4512 183.641 89.4512 183.295C89.4512 182.95 89.171 182.669 88.8252 182.669C88.4795 182.669 88.1992 182.95 88.1992 183.295C88.1992 183.641 88.4795 183.921 88.8252 183.921Z" fill="white"/>
<path d="M89.6616 188.899C89.6201 188.485 89.3335 188.07 88.8281 188.07C88.3266 188.07 88.04 188.485 87.9985 188.899C87.9344 189.541 88.3681 190.121 88.8281 190.653C89.292 190.125 89.7257 189.544 89.6616 188.899ZM88.8281 189.363C88.5755 189.363 88.3718 189.16 88.3718 188.907C88.3718 188.654 88.5755 188.451 88.8281 188.451C89.0808 188.451 89.2845 188.654 89.2845 188.907C89.2845 189.16 89.0808 189.363 88.8281 189.363Z" fill="white"/>
<path d="M93.668 183.296C95.8703 183.232 98.0688 183.201 100.271 183.179L106.874 183.145L113.478 183.179L116.777 183.22C117.878 183.247 118.98 183.262 120.077 183.296C118.976 183.33 117.875 183.345 116.777 183.371L113.478 183.413L106.874 183.446L100.271 183.413C98.0726 183.39 95.8703 183.36 93.668 183.296Z" fill="#ECECEC"/>
<path d="M93.668 189.363C95.2895 189.299 96.9149 189.269 98.5365 189.246C100.158 189.22 101.783 189.223 103.405 189.212C105.027 189.223 106.652 189.223 108.273 189.246L110.71 189.288C111.52 189.314 112.331 189.329 113.146 189.363C112.335 189.397 111.524 189.412 110.71 189.438L108.273 189.48C106.652 189.503 105.027 189.503 103.405 189.514C101.783 189.503 100.158 189.503 98.5365 189.48C96.9149 189.454 95.2933 189.427 93.668 189.363Z" fill="#ECECEC"/>
<path d="M90.1338 194.07C90.2771 194.258 90.2206 194.492 90.2093 194.722C90.2017 194.858 90.1414 194.914 90.0056 194.922C89.7831 194.941 89.5644 194.96 89.3419 194.978C88.8479 195.024 88.3539 194.956 87.8636 194.918C87.7656 194.91 87.7354 194.839 87.7241 194.756C87.6864 194.499 87.7015 194.371 87.8108 194.039C87.7882 194.032 87.7656 194.024 87.7392 194.017C87.66 193.998 87.6676 193.941 87.6789 193.881C87.6902 193.817 87.7166 193.779 87.792 193.787C87.9353 193.806 87.9353 193.806 87.9956 193.674C88.0258 193.606 88.0597 193.542 88.0824 193.474C88.1125 193.368 88.1842 193.323 88.2822 193.3C88.7687 193.187 89.2514 193.202 89.7303 193.334C89.7643 193.342 89.7982 193.379 89.8171 193.41C89.8661 193.508 89.9151 193.609 89.9491 193.715C89.9792 193.802 90.0207 193.824 90.1112 193.802C90.2281 193.772 90.2922 193.828 90.2658 193.945C90.2545 193.987 90.1904 194.017 90.1338 194.07ZM89.8661 193.866C89.8058 193.73 89.7605 193.613 89.7039 193.5C89.6926 193.477 89.6587 193.455 89.6323 193.447C89.1948 193.345 88.7536 193.323 88.3162 193.436C88.286 193.444 88.2483 193.459 88.237 193.481C88.1766 193.609 88.1201 193.738 88.056 193.881C88.6669 193.802 89.2552 193.787 89.8661 193.866ZM88.2822 194.292C88.2785 194.409 88.2935 194.428 88.4029 194.432C88.7725 194.435 89.1458 194.432 89.5154 194.435C89.621 194.435 89.6587 194.394 89.6587 194.292C89.1986 194.292 88.7385 194.292 88.2822 194.292ZM88.3237 194.481C88.3275 194.56 88.3539 194.613 88.4632 194.613C88.8026 194.609 89.142 194.613 89.4777 194.613C89.5908 194.613 89.6059 194.59 89.6021 194.481C89.176 194.481 88.7499 194.481 88.3237 194.481ZM88.5651 194.714C88.5613 194.745 88.5613 194.763 88.5575 194.779C88.5424 194.873 88.5801 194.899 88.6707 194.895C88.7913 194.888 88.912 194.892 89.0327 194.892C89.1421 194.892 89.2514 194.892 89.3608 194.892C89.3608 194.824 89.3608 194.771 89.3608 194.714C89.093 194.714 88.8328 194.714 88.5651 194.714ZM90.1301 194.454C90.1339 194.352 90.0547 194.273 89.9528 194.269C89.851 194.269 89.7718 194.345 89.768 194.447C89.768 194.548 89.8435 194.628 89.9453 194.631C90.0471 194.631 90.1263 194.556 90.1301 194.454ZM87.9805 194.631C88.0824 194.631 88.1616 194.552 88.1653 194.454C88.1653 194.356 88.0861 194.273 87.9881 194.273C87.89 194.273 87.8033 194.352 87.8033 194.45C87.7995 194.545 87.8825 194.631 87.9805 194.631Z" fill="white"/>
<path d="M90.2081 194.975C90.2232 195.276 90.2081 195.22 89.9818 195.224C89.9479 195.224 89.914 195.224 89.8763 195.224C89.7971 195.227 89.7895 195.171 89.782 195.11C89.7744 195.039 89.8272 195.05 89.8687 195.046C89.9291 195.039 89.9894 195.039 90.046 195.027C90.1025 195.016 90.1553 194.993 90.2081 194.975Z" fill="white"/>
<path d="M87.707 194.993C87.8239 195.012 87.9371 195.031 88.0502 195.042C88.0955 195.05 88.1407 195.042 88.1369 195.11C88.1332 195.171 88.1219 195.223 88.0427 195.223C87.9672 195.223 87.8918 195.22 87.8164 195.223C87.7372 195.227 87.707 195.19 87.7108 195.118C87.707 195.069 87.707 195.02 87.707 194.993Z" fill="white"/>
<path d="M91.0393 193.907V194.628C91.0393 194.665 91.0091 194.696 90.9714 194.696C90.9337 194.696 90.9035 194.665 90.9035 194.628V194.028L90.8545 194.054C90.8432 194.062 90.8319 194.066 90.8206 194.066C90.7979 194.066 90.7753 194.054 90.764 194.032C90.7452 194.002 90.7527 193.96 90.7866 193.941L90.9375 193.851C90.9375 193.851 90.9412 193.851 90.9412 193.847C90.945 193.847 90.945 193.843 90.9488 193.843C90.9526 193.843 90.9526 193.843 90.9563 193.843H90.9601C90.9639 193.843 90.9677 193.843 90.9677 193.843H90.9714C90.9752 193.843 90.979 193.843 90.979 193.843H90.9827C90.9865 193.843 90.9865 193.843 90.9903 193.847H90.994C90.9978 193.851 90.9978 193.851 91.0016 193.851L91.0054 193.855L91.0091 193.858C91.0129 193.858 91.0129 193.862 91.0129 193.862L91.0167 193.866L91.0204 193.87V193.873V193.877C91.0204 193.881 91.0242 193.881 91.0242 193.885C91.0242 193.889 91.0242 193.889 91.028 193.892C91.028 193.896 91.028 193.896 91.028 193.9C91.0355 193.9 91.0355 193.9 91.0393 193.907Z" fill="white"/>
<path d="M91.1953 194.266C91.1953 194.153 91.2255 194.051 91.2783 193.975C91.3311 193.896 91.4103 193.84 91.5045 193.84C91.5988 193.84 91.678 193.896 91.7308 193.975C91.7836 194.055 91.8138 194.156 91.8138 194.266C91.8138 194.375 91.7836 194.481 91.7308 194.556C91.678 194.632 91.5988 194.692 91.5045 194.692C91.4065 194.692 91.3273 194.632 91.2783 194.556C91.2217 194.481 91.1953 194.379 91.1953 194.266ZM91.678 194.266C91.678 194.179 91.6554 194.1 91.6177 194.047C91.5837 193.994 91.5423 193.972 91.5045 193.972C91.4668 193.972 91.4254 193.994 91.3876 194.047C91.3537 194.1 91.3273 194.175 91.3273 194.266C91.3273 194.352 91.3499 194.432 91.3876 194.481C91.4254 194.533 91.4668 194.556 91.5045 194.556C91.5423 194.556 91.5837 194.533 91.6177 194.481C91.6516 194.432 91.678 194.352 91.678 194.266Z" fill="white"/>
<path d="M92.9663 194.337V194.631C92.9663 194.665 92.9361 194.696 92.9022 194.696C92.8682 194.696 92.838 194.665 92.838 194.631V194.341V194.337C92.838 194.269 92.7815 194.217 92.7136 194.217C92.6457 194.217 92.5892 194.273 92.5892 194.341V194.631C92.5892 194.635 92.5892 194.639 92.5892 194.639V194.643C92.5892 194.647 92.5892 194.647 92.5854 194.65C92.5854 194.65 92.5854 194.654 92.5854 194.658C92.5741 194.68 92.5514 194.696 92.5251 194.696C92.5213 194.696 92.5175 194.696 92.5137 194.696C92.4836 194.688 92.4609 194.665 92.4609 194.631V194.341V194.152C92.4609 194.115 92.4911 194.088 92.5251 194.088C92.5514 194.088 92.5741 194.103 92.5854 194.126C92.6231 194.103 92.6684 194.088 92.7174 194.088C92.7928 194.088 92.8644 194.119 92.9097 194.171C92.955 194.119 93.0228 194.088 93.102 194.088C93.2416 194.088 93.3547 194.202 93.3547 194.345V194.635C93.3547 194.669 93.3245 194.699 93.2906 194.699C93.2566 194.699 93.2265 194.669 93.2265 194.635V194.345C93.2265 194.277 93.1699 194.22 93.102 194.22C93.0266 194.217 92.97 194.269 92.9663 194.337Z" fill="white"/>
<path d="M93.7532 193.93C93.7532 193.968 93.7268 193.998 93.6891 193.998C93.6514 193.998 93.625 193.968 93.625 193.93V193.904C93.625 193.866 93.6552 193.84 93.6891 193.84C93.7268 193.84 93.7532 193.87 93.7532 193.904V193.93ZM93.7532 194.153V194.628C93.7532 194.665 93.7268 194.692 93.6891 194.692C93.6514 194.692 93.625 194.662 93.625 194.628V194.153C93.625 194.115 93.6552 194.085 93.6891 194.085C93.7268 194.085 93.7532 194.115 93.7532 194.153Z" fill="white"/>
<path d="M94.4739 194.337V194.628C94.4739 194.662 94.4475 194.692 94.4098 194.692C94.3759 194.692 94.3457 194.662 94.3457 194.628V194.337C94.3457 194.27 94.2892 194.213 94.2175 194.213C94.1496 194.213 94.0968 194.27 94.0968 194.337V194.628C94.0968 194.632 94.0968 194.635 94.0931 194.639C94.0855 194.669 94.0591 194.692 94.029 194.692C93.9912 194.692 93.9648 194.662 93.9648 194.628V194.337V194.149C93.9648 194.115 93.9912 194.085 94.029 194.085C94.0554 194.085 94.078 194.1 94.0893 194.122C94.127 194.1 94.1723 194.085 94.2175 194.085C94.3608 194.085 94.4739 194.202 94.4739 194.337Z" fill="white"/>
<path d="M97.0019 194.062C96.753 193.881 96.4588 193.843 96.1571 193.787C96.1873 193.768 96.2137 193.745 96.2439 193.734C96.5456 193.628 96.8472 193.628 97.1376 193.772C97.1678 193.787 97.2017 193.802 97.2319 193.821C97.4355 193.941 97.6241 193.915 97.8013 193.764C97.9258 193.662 98.0578 193.579 98.2237 193.56C98.2652 193.557 98.3067 193.553 98.3632 193.549C98.3406 193.489 98.3255 193.432 98.2954 193.383C98.284 193.364 98.2425 193.361 98.2162 193.357C98.1822 193.353 98.1445 193.368 98.1143 193.361C98.0879 193.353 98.0502 193.327 98.0502 193.308C98.0502 193.281 98.0729 193.232 98.0917 193.229C98.1784 193.21 98.2652 193.202 98.3557 193.202C98.3783 193.202 98.4085 193.244 98.4198 193.274C98.4537 193.349 98.4839 193.425 98.5103 193.504C98.5292 193.572 98.5669 193.591 98.6347 193.587C98.8044 193.583 98.7894 193.564 98.7894 193.734C98.7894 193.911 98.7894 193.911 98.9628 193.96C99.0194 193.975 99.076 194.002 99.1325 194.024C99.1476 194.032 99.1627 194.043 99.1891 194.054C99.0345 194.054 98.8912 194.054 98.7441 194.054C98.7479 194.152 98.7705 194.19 98.8686 194.186C99.1476 194.168 99.3927 194.371 99.4304 194.635C99.4682 194.929 99.2985 195.182 99.0119 195.246C98.7403 195.306 98.4726 195.148 98.3859 194.88C98.3217 194.677 98.3896 194.45 98.5518 194.311C98.5744 194.292 98.6008 194.273 98.631 194.247C98.6159 194.209 98.6046 194.175 98.5895 194.137C98.367 194.232 98.2576 194.42 98.2048 194.786C98.1709 194.786 98.1332 194.79 98.0955 194.79C97.8277 194.794 97.5562 194.797 97.2885 194.794C97.2206 194.794 97.198 194.812 97.1791 194.877C97.0961 195.159 96.802 195.314 96.5154 195.235C96.2363 195.156 96.0742 194.861 96.1458 194.575C96.2175 194.3 96.5041 194.13 96.7907 194.194C96.9189 194.224 96.9189 194.224 97.0019 194.062ZM98.6875 194.398C98.5028 194.522 98.4537 194.737 98.5631 194.914C98.6725 195.095 98.895 195.156 99.076 195.058C99.257 194.959 99.3286 194.748 99.2457 194.56C99.1702 194.394 98.9817 194.296 98.8346 194.352C98.8723 194.45 98.91 194.552 98.9477 194.65C98.9666 194.699 98.9855 194.752 98.9214 194.778C98.8497 194.809 98.8271 194.756 98.8045 194.703C98.7705 194.605 98.729 194.503 98.6875 194.398ZM96.8058 194.367C96.6436 194.3 96.4815 194.337 96.3721 194.462C96.259 194.59 96.2439 194.778 96.3344 194.922C96.4249 195.065 96.5908 195.133 96.753 195.091C96.9 195.054 97.017 194.933 97.0245 194.79C96.9151 194.79 96.8095 194.794 96.7039 194.786C96.6662 194.786 96.6134 194.767 96.6021 194.745C96.5908 194.718 96.6059 194.665 96.6248 194.635C96.6813 194.545 96.7417 194.458 96.8058 194.367ZM97.3639 194.628C97.3413 194.447 97.2583 194.3 97.1263 194.164C97.0886 194.22 97.0584 194.266 97.032 194.303C97.0773 194.383 97.1376 194.447 97.1565 194.526C97.1904 194.639 97.2508 194.658 97.3639 194.628ZM96.8171 194.628C96.9 194.628 96.9679 194.628 97.0547 194.628C97.0132 194.56 96.983 194.507 96.9453 194.439C96.8963 194.511 96.8586 194.564 96.8171 194.628Z" fill="white"/>
<path d="M99.9766 194.134C99.9766 193.972 100.109 193.84 100.274 193.84C100.429 193.84 100.554 193.957 100.569 194.104C100.569 194.104 100.569 194.104 100.569 194.107C100.569 194.13 100.572 194.153 100.572 194.175C100.572 194.258 100.561 194.345 100.531 194.424C100.501 194.503 100.452 194.583 100.373 194.632C100.32 194.665 100.259 194.688 100.188 194.688C100.15 194.688 100.12 194.662 100.116 194.624C100.116 194.586 100.142 194.556 100.18 194.552C100.225 194.552 100.263 194.537 100.293 194.518C100.324 194.496 100.35 194.469 100.369 194.432C100.376 194.42 100.38 194.409 100.384 194.401C100.35 194.417 100.308 194.424 100.267 194.424C100.109 194.432 99.9766 194.3 99.9766 194.134ZM100.112 194.134C100.112 194.22 100.184 194.296 100.274 194.296C100.365 194.296 100.433 194.224 100.433 194.134C100.433 194.043 100.361 193.975 100.274 193.975C100.184 193.975 100.112 194.047 100.112 194.134Z" fill="white"/>
<path d="M101.665 194.337V194.631C101.665 194.665 101.635 194.696 101.601 194.696C101.567 194.696 101.537 194.665 101.537 194.631V194.341V194.337C101.537 194.269 101.481 194.217 101.413 194.217C101.345 194.217 101.288 194.273 101.288 194.341V194.631C101.288 194.635 101.288 194.639 101.288 194.639V194.643C101.288 194.647 101.288 194.647 101.285 194.65C101.285 194.65 101.285 194.654 101.285 194.658C101.273 194.68 101.251 194.696 101.224 194.696C101.22 194.696 101.217 194.696 101.213 194.696C101.183 194.688 101.16 194.665 101.16 194.631V194.341V194.152C101.16 194.115 101.19 194.088 101.224 194.088C101.251 194.088 101.273 194.103 101.285 194.126C101.322 194.103 101.368 194.088 101.417 194.088C101.492 194.088 101.564 194.119 101.609 194.171C101.654 194.119 101.722 194.088 101.801 194.088C101.941 194.088 102.054 194.202 102.054 194.345V194.635C102.054 194.669 102.024 194.699 101.99 194.699C101.956 194.699 101.926 194.669 101.926 194.635V194.345C101.926 194.277 101.869 194.22 101.801 194.22C101.722 194.217 101.665 194.269 101.665 194.337Z" fill="white"/>
<path d="M102.449 193.93C102.449 193.968 102.422 193.998 102.384 193.998C102.347 193.998 102.32 193.968 102.32 193.93V193.904C102.32 193.866 102.35 193.84 102.384 193.84C102.422 193.84 102.449 193.87 102.449 193.904V193.93ZM102.449 194.153V194.628C102.449 194.665 102.422 194.692 102.384 194.692C102.347 194.692 102.32 194.662 102.32 194.628V194.153C102.32 194.115 102.35 194.085 102.384 194.085C102.422 194.085 102.449 194.115 102.449 194.153Z" fill="white"/>
<path d="M103.169 194.337V194.628C103.169 194.662 103.143 194.692 103.105 194.692C103.071 194.692 103.041 194.662 103.041 194.628V194.337C103.041 194.27 102.984 194.213 102.913 194.213C102.845 194.213 102.792 194.27 102.792 194.337V194.628C102.792 194.632 102.792 194.635 102.788 194.639C102.781 194.669 102.754 194.692 102.724 194.692C102.687 194.692 102.66 194.662 102.66 194.628V194.337V194.149C102.66 194.115 102.687 194.085 102.724 194.085C102.751 194.085 102.773 194.1 102.785 194.122C102.822 194.1 102.868 194.085 102.913 194.085C103.056 194.085 103.169 194.202 103.169 194.337Z" fill="white"/>
<path d="M106.412 194.873C106.484 195.035 106.555 195.19 106.635 195.363C106.574 195.363 106.521 195.371 106.472 195.359C106.454 195.355 106.427 195.322 106.423 195.295C106.412 195.231 106.382 195.212 106.318 195.212C105.963 195.216 105.605 195.212 105.251 195.216C105.22 195.216 105.171 195.239 105.168 195.257C105.149 195.363 105.085 195.374 104.998 195.363C104.983 195.359 104.968 195.363 104.941 195.359C105.013 195.197 105.085 195.039 105.156 194.877C105.134 194.865 105.115 194.858 105.096 194.85C104.96 194.805 104.956 194.801 104.953 194.662C104.945 194.232 104.956 193.806 105.009 193.379C105.021 193.285 105.062 193.225 105.141 193.195C105.243 193.157 105.352 193.119 105.462 193.104C105.737 193.066 106.009 193.066 106.28 193.142C106.322 193.153 106.363 193.172 106.405 193.191C106.488 193.232 106.533 193.296 106.544 193.398C106.593 193.813 106.604 194.232 106.601 194.65C106.597 194.805 106.601 194.805 106.454 194.854C106.442 194.858 106.431 194.865 106.412 194.873ZM105.779 194.024C105.858 194.024 105.941 194.024 106.02 194.024C106.141 194.024 106.258 194.028 106.378 194.02C106.469 194.017 106.491 193.987 106.484 193.896C106.476 193.772 106.461 193.647 106.454 193.523C106.45 193.459 106.412 193.432 106.352 193.432C105.963 193.432 105.575 193.432 105.187 193.432C105.134 193.432 105.107 193.455 105.104 193.511C105.096 193.647 105.077 193.787 105.073 193.922C105.073 193.953 105.104 193.994 105.13 194.009C105.16 194.028 105.205 194.024 105.243 194.024C105.42 194.024 105.598 194.024 105.779 194.024ZM106.348 195.069C106.337 195.024 106.322 194.986 106.314 194.948C106.307 194.907 106.284 194.892 106.242 194.899C105.937 194.944 105.628 194.944 105.322 194.903C105.303 194.899 105.269 194.914 105.262 194.929C105.243 194.971 105.236 195.016 105.22 195.069C105.601 195.069 105.971 195.069 106.348 195.069ZM105.771 193.172C105.696 193.172 105.62 193.172 105.545 193.172C105.488 193.172 105.462 193.195 105.458 193.255C105.458 193.315 105.484 193.342 105.541 193.342C105.696 193.342 105.854 193.342 106.009 193.342C106.065 193.342 106.095 193.319 106.095 193.259C106.095 193.198 106.073 193.172 106.012 193.172C105.929 193.172 105.85 193.172 105.771 193.172ZM106.276 194.631C106.359 194.631 106.431 194.56 106.431 194.477C106.431 194.394 106.363 194.322 106.276 194.322C106.19 194.322 106.118 194.394 106.118 194.481C106.122 194.564 106.19 194.631 106.276 194.631ZM105.269 194.631C105.352 194.631 105.424 194.564 105.424 194.477C105.424 194.39 105.352 194.318 105.266 194.322C105.183 194.326 105.115 194.394 105.115 194.481C105.115 194.564 105.187 194.631 105.269 194.631Z" fill="white"/>
<path d="M107.971 194.628C107.971 194.665 107.941 194.696 107.903 194.696H107.469C107.451 194.696 107.432 194.688 107.42 194.673C107.394 194.647 107.398 194.605 107.424 194.579L107.786 194.251C107.82 194.22 107.839 194.179 107.839 194.134C107.839 194.096 107.824 194.058 107.797 194.028C107.767 193.994 107.722 193.975 107.681 193.975C107.643 193.975 107.605 193.99 107.575 194.017L107.537 194.051C107.511 194.077 107.469 194.073 107.443 194.047C107.42 194.021 107.42 193.979 107.447 193.953L107.484 193.919C107.541 193.866 107.613 193.843 107.681 193.843C107.76 193.843 107.839 193.877 107.899 193.941C107.952 193.998 107.975 194.07 107.975 194.137C107.975 194.217 107.941 194.296 107.877 194.356L107.647 194.564H107.907C107.941 194.56 107.971 194.59 107.971 194.628Z" fill="white"/>
<path d="M108.59 194.179C108.651 194.239 108.681 194.315 108.681 194.394C108.681 194.469 108.651 194.549 108.59 194.609C108.53 194.669 108.455 194.699 108.375 194.699C108.372 194.699 108.372 194.699 108.372 194.699C108.296 194.699 108.217 194.669 108.16 194.609C108.134 194.583 108.134 194.541 108.16 194.511C108.187 194.484 108.232 194.484 108.258 194.511C108.289 194.545 108.33 194.56 108.375 194.56C108.417 194.56 108.458 194.545 108.492 194.511C108.522 194.481 108.541 194.435 108.541 194.394C108.541 194.349 108.526 194.307 108.492 194.277C108.462 194.243 108.421 194.228 108.375 194.228C108.334 194.228 108.289 194.243 108.258 194.277C108.232 194.303 108.187 194.303 108.16 194.277C108.157 194.273 108.153 194.266 108.145 194.262C108.145 194.258 108.145 194.258 108.145 194.258C108.145 194.254 108.145 194.254 108.142 194.251C108.142 194.247 108.142 194.243 108.142 194.243C108.142 194.243 108.142 194.243 108.142 194.239C108.142 194.232 108.142 194.224 108.142 194.22L108.179 193.904C108.183 193.881 108.194 193.866 108.209 193.855C108.213 193.855 108.213 193.855 108.213 193.851C108.213 193.851 108.217 193.851 108.217 193.847C108.228 193.843 108.236 193.84 108.247 193.84H108.605C108.643 193.84 108.677 193.87 108.677 193.907C108.677 193.945 108.647 193.975 108.605 193.975H108.304L108.289 194.096C108.315 194.088 108.345 194.085 108.372 194.085C108.455 194.088 108.534 194.119 108.59 194.179Z" fill="white"/>
<path d="M109.787 194.337V194.631C109.787 194.665 109.756 194.696 109.722 194.696C109.689 194.696 109.658 194.665 109.658 194.631V194.341V194.337C109.658 194.269 109.602 194.217 109.534 194.217C109.466 194.217 109.409 194.273 109.409 194.341V194.631C109.409 194.635 109.409 194.639 109.409 194.639V194.643C109.409 194.647 109.409 194.647 109.406 194.65C109.406 194.65 109.406 194.654 109.406 194.658C109.394 194.68 109.372 194.696 109.345 194.696C109.342 194.696 109.338 194.696 109.334 194.696C109.304 194.688 109.281 194.665 109.281 194.631V194.341V194.152C109.281 194.115 109.311 194.088 109.345 194.088C109.372 194.088 109.394 194.103 109.406 194.126C109.443 194.103 109.489 194.088 109.538 194.088C109.613 194.088 109.685 194.119 109.73 194.171C109.775 194.119 109.843 194.088 109.922 194.088C110.062 194.088 110.175 194.202 110.175 194.345V194.635C110.175 194.669 110.145 194.699 110.111 194.699C110.077 194.699 110.047 194.669 110.047 194.635V194.345C110.047 194.277 109.99 194.22 109.922 194.22C109.847 194.217 109.79 194.269 109.787 194.337Z" fill="white"/>
<path d="M110.577 193.93C110.577 193.968 110.551 193.998 110.513 193.998C110.476 193.998 110.449 193.968 110.449 193.93V193.904C110.449 193.866 110.479 193.84 110.513 193.84C110.551 193.84 110.577 193.87 110.577 193.904V193.93ZM110.577 194.153V194.628C110.577 194.665 110.551 194.692 110.513 194.692C110.476 194.692 110.449 194.662 110.449 194.628V194.153C110.449 194.115 110.479 194.085 110.513 194.085C110.547 194.085 110.577 194.115 110.577 194.153Z" fill="white"/>
<path d="M111.29 194.337V194.628C111.29 194.662 111.264 194.692 111.226 194.692C111.192 194.692 111.162 194.662 111.162 194.628V194.337C111.162 194.27 111.106 194.213 111.034 194.213C110.966 194.213 110.913 194.27 110.913 194.337V194.628C110.913 194.632 110.913 194.635 110.909 194.639C110.902 194.669 110.876 194.692 110.845 194.692C110.808 194.692 110.781 194.662 110.781 194.628V194.337V194.149C110.781 194.115 110.808 194.085 110.845 194.085C110.872 194.085 110.894 194.1 110.906 194.122C110.943 194.1 110.989 194.085 111.034 194.085C111.177 194.085 111.29 194.202 111.29 194.337Z" fill="white"/>
<path d="M114.952 193.379C115.001 193.553 115.042 193.711 115.091 193.866C115.099 193.885 115.144 193.904 115.17 193.9C115.393 193.889 115.578 193.96 115.721 194.13C115.958 194.409 115.913 194.835 115.627 195.061C115.336 195.288 114.914 195.227 114.699 194.929C114.48 194.628 114.559 194.205 114.872 194.002C114.989 193.926 114.989 193.926 114.903 193.764C114.887 193.79 114.876 193.817 114.857 193.84C114.68 194.036 114.503 194.232 114.322 194.424C114.288 194.462 114.273 194.496 114.28 194.545C114.292 194.639 114.243 194.718 114.16 194.756C114.077 194.794 113.982 194.771 113.922 194.703C113.835 194.609 113.801 194.616 113.76 194.741C113.658 195.046 113.368 195.227 113.043 195.186C112.749 195.148 112.504 194.884 112.489 194.586C112.474 194.266 112.674 193.99 112.983 193.911C113.119 193.877 113.209 193.889 113.462 193.968C113.53 193.862 113.605 193.753 113.669 193.64C113.711 193.568 113.643 193.466 113.56 193.466C113.504 193.466 113.428 193.485 113.428 193.398C113.428 193.319 113.507 193.342 113.556 193.338C113.688 193.334 113.817 193.334 113.948 193.334C113.99 193.334 114.035 193.338 114.039 193.395C114.043 193.455 113.994 193.462 113.948 193.462C113.896 193.462 113.839 193.462 113.783 193.462C113.79 193.545 113.805 193.591 113.899 193.587C114.194 193.579 114.488 193.579 114.782 193.579C114.808 193.579 114.835 193.576 114.872 193.572C114.85 193.496 114.835 193.428 114.816 193.361C114.797 193.296 114.816 193.251 114.891 193.247C115.016 193.244 115.144 193.232 115.265 193.244C115.419 193.255 115.495 193.368 115.468 193.519C115.446 193.647 115.31 193.73 115.174 193.696C115.155 193.692 115.125 193.658 115.125 193.643C115.129 193.621 115.151 193.594 115.174 193.583C115.197 193.572 115.227 193.576 115.253 193.572C115.31 193.568 115.344 193.538 115.348 193.477C115.351 193.417 115.325 193.372 115.261 193.368C115.163 193.376 115.065 193.379 114.952 193.379ZM115.012 194.077C114.759 194.175 114.639 194.477 114.733 194.729C114.835 194.997 115.133 195.137 115.4 195.042C115.672 194.948 115.815 194.65 115.725 194.379C115.638 194.13 115.363 193.964 115.136 194.039C115.144 194.07 115.151 194.1 115.159 194.13C115.197 194.266 115.238 194.401 115.268 194.541C115.276 194.567 115.246 194.601 115.234 194.631C115.208 194.613 115.178 194.594 115.155 194.571C115.144 194.56 115.148 194.541 115.14 194.526C115.099 194.383 115.057 194.232 115.012 194.077ZM113.654 194.639C113.5 194.639 113.353 194.643 113.209 194.639C113.172 194.639 113.119 194.628 113.104 194.605C113.092 194.579 113.111 194.53 113.13 194.496C113.213 194.36 113.3 194.232 113.383 194.1C113.228 193.99 112.983 194.009 112.817 194.141C112.632 194.288 112.568 194.533 112.655 194.752C112.746 194.971 112.964 195.099 113.206 195.073C113.421 195.05 113.609 194.877 113.654 194.639ZM113.858 193.723C113.93 193.934 113.998 194.13 114.065 194.322C114.088 194.386 114.179 194.398 114.228 194.345C114.401 194.153 114.575 193.964 114.748 193.772C114.759 193.76 114.767 193.741 114.782 193.723C114.476 193.723 114.175 193.723 113.858 193.723ZM113.564 194.051C113.696 194.171 113.767 194.315 113.794 194.484C113.798 194.499 113.854 194.522 113.854 194.522C113.888 194.473 113.952 194.413 113.941 194.371C113.888 194.175 113.817 193.987 113.741 193.772C113.677 193.873 113.62 193.96 113.564 194.051ZM113.492 194.16C113.417 194.277 113.345 194.386 113.266 194.511C113.409 194.511 113.534 194.511 113.662 194.511C113.651 194.371 113.598 194.258 113.492 194.16ZM114.096 194.477C114.084 194.477 114.073 194.477 114.058 194.477C114.039 194.511 113.998 194.545 114.001 194.571C114.005 194.601 114.054 194.624 114.08 194.65C114.107 194.62 114.152 194.594 114.156 194.564C114.16 194.537 114.114 194.507 114.096 194.477Z" fill="white"/>
<path d="M116.817 193.907V194.628C116.817 194.665 116.786 194.696 116.749 194.696C116.711 194.696 116.681 194.665 116.681 194.628V194.028L116.632 194.054C116.621 194.062 116.609 194.066 116.598 194.066C116.575 194.066 116.553 194.054 116.541 194.032C116.522 194.002 116.53 193.96 116.564 193.941L116.715 193.851C116.715 193.851 116.719 193.851 116.719 193.847C116.722 193.847 116.722 193.843 116.726 193.843C116.73 193.843 116.73 193.843 116.734 193.843H116.737C116.741 193.843 116.745 193.843 116.745 193.843H116.749C116.753 193.843 116.756 193.843 116.756 193.843H116.76C116.764 193.843 116.764 193.843 116.768 193.847H116.771C116.775 193.851 116.775 193.851 116.779 193.851L116.783 193.855L116.786 193.858C116.79 193.858 116.79 193.862 116.79 193.862L116.794 193.866L116.798 193.87V193.873V193.877C116.798 193.881 116.802 193.881 116.802 193.885C116.802 193.889 116.802 193.889 116.805 193.892C116.805 193.896 116.805 193.896 116.805 193.9C116.813 193.9 116.813 193.9 116.817 193.907Z" fill="white"/>
<path d="M117.422 194.179C117.483 194.239 117.513 194.315 117.513 194.394C117.513 194.469 117.483 194.549 117.422 194.609C117.362 194.669 117.287 194.699 117.207 194.699C117.204 194.699 117.204 194.699 117.204 194.699C117.128 194.699 117.049 194.669 116.992 194.609C116.966 194.583 116.966 194.541 116.992 194.511C117.019 194.484 117.064 194.484 117.091 194.511C117.121 194.545 117.162 194.56 117.207 194.56C117.249 194.56 117.29 194.545 117.324 194.511C117.354 194.481 117.373 194.435 117.373 194.394C117.373 194.349 117.358 194.307 117.324 194.277C117.294 194.243 117.253 194.228 117.207 194.228C117.166 194.228 117.121 194.243 117.091 194.277C117.064 194.303 117.019 194.303 116.992 194.277C116.989 194.273 116.985 194.266 116.977 194.262C116.977 194.258 116.977 194.258 116.977 194.258C116.977 194.254 116.977 194.254 116.974 194.251C116.974 194.247 116.974 194.243 116.974 194.243C116.974 194.243 116.974 194.243 116.974 194.239C116.974 194.232 116.974 194.224 116.974 194.22L117.011 193.904C117.015 193.881 117.026 193.866 117.041 193.855C117.045 193.855 117.045 193.855 117.045 193.851C117.045 193.851 117.049 193.851 117.049 193.847C117.06 193.843 117.068 193.84 117.079 193.84H117.437C117.475 193.84 117.509 193.87 117.509 193.907C117.509 193.945 117.479 193.975 117.437 193.975H117.136L117.121 194.096C117.147 194.088 117.177 194.085 117.204 194.085C117.283 194.088 117.362 194.119 117.422 194.179Z" fill="white"/>
<path d="M118.623 194.337V194.631C118.623 194.665 118.592 194.696 118.558 194.696C118.524 194.696 118.494 194.665 118.494 194.631V194.341V194.337C118.494 194.269 118.438 194.217 118.37 194.217C118.302 194.217 118.245 194.273 118.245 194.341V194.631C118.245 194.635 118.245 194.639 118.245 194.639V194.643C118.245 194.647 118.245 194.647 118.242 194.65C118.242 194.65 118.242 194.654 118.242 194.658C118.23 194.68 118.208 194.696 118.181 194.696C118.178 194.696 118.174 194.696 118.17 194.696C118.14 194.688 118.117 194.665 118.117 194.631V194.341V194.152C118.117 194.115 118.147 194.088 118.181 194.088C118.208 194.088 118.23 194.103 118.242 194.126C118.279 194.103 118.325 194.088 118.374 194.088C118.449 194.088 118.521 194.119 118.566 194.171C118.611 194.119 118.679 194.088 118.758 194.088C118.898 194.088 119.011 194.202 119.011 194.345V194.635C119.011 194.669 118.981 194.699 118.947 194.699C118.913 194.699 118.883 194.669 118.883 194.635V194.345C118.883 194.277 118.826 194.22 118.758 194.22C118.679 194.217 118.623 194.269 118.623 194.337Z" fill="white"/>
<path d="M119.406 193.93C119.406 193.968 119.379 193.998 119.341 193.998C119.304 193.998 119.277 193.968 119.277 193.93V193.904C119.277 193.866 119.308 193.84 119.341 193.84C119.379 193.84 119.406 193.87 119.406 193.904V193.93ZM119.406 194.153V194.628C119.406 194.665 119.379 194.692 119.341 194.692C119.304 194.692 119.277 194.662 119.277 194.628V194.153C119.277 194.115 119.308 194.085 119.341 194.085C119.375 194.085 119.406 194.115 119.406 194.153Z" fill="white"/>
<path d="M120.126 194.337V194.628C120.126 194.662 120.1 194.692 120.062 194.692C120.028 194.692 119.998 194.662 119.998 194.628V194.337C119.998 194.27 119.942 194.213 119.87 194.213C119.802 194.213 119.749 194.27 119.749 194.337V194.628C119.749 194.632 119.749 194.635 119.745 194.639C119.738 194.669 119.711 194.692 119.681 194.692C119.644 194.692 119.617 194.662 119.617 194.628V194.337V194.149C119.617 194.115 119.644 194.085 119.681 194.085C119.708 194.085 119.73 194.1 119.742 194.122C119.779 194.1 119.825 194.085 119.87 194.085C120.009 194.085 120.126 194.202 120.126 194.337Z" fill="white"/>
<path d="M121.868 193.564C121.785 193.448 121.792 193.331 121.894 193.259C121.985 193.195 122.113 193.214 122.173 193.304C122.245 193.41 122.211 193.527 122.064 193.625C122.113 193.734 122.162 193.847 122.218 193.953C122.241 193.991 122.282 194.025 122.32 194.047C122.377 194.081 122.441 194.104 122.497 194.13C122.55 194.157 122.569 194.198 122.546 194.251C122.524 194.304 122.475 194.315 122.422 194.292C122.332 194.251 122.237 194.213 122.151 194.164C122.117 194.145 122.094 194.104 122.056 194.066C122.037 194.194 122.015 194.311 121.996 194.432C121.992 194.443 122.003 194.458 122.007 194.473C122.011 194.481 122.019 194.488 122.026 194.496C122.245 194.685 122.301 194.941 122.339 195.209C122.35 195.292 122.316 195.352 122.249 195.367C122.181 195.378 122.128 195.337 122.109 195.258C122.09 195.163 122.064 195.073 122.052 194.979C122.037 194.858 121.951 194.79 121.879 194.696C121.815 194.881 121.755 195.05 121.694 195.22C121.687 195.243 121.679 195.265 121.668 195.288C121.638 195.356 121.581 195.382 121.521 195.363C121.457 195.341 121.423 195.28 121.449 195.209C121.517 195.005 121.589 194.801 121.66 194.598C121.679 194.541 121.683 194.492 121.679 194.428C121.672 194.345 121.694 194.255 121.706 194.168C121.713 194.104 121.724 194.04 121.736 193.968C121.668 193.983 121.645 194.021 121.638 194.077C121.63 194.141 121.619 194.202 121.607 194.266C121.6 194.319 121.566 194.349 121.509 194.341C121.453 194.334 121.43 194.296 121.434 194.243C121.449 194.138 121.464 194.036 121.483 193.93C121.487 193.919 121.498 193.908 121.506 193.896C121.509 193.893 121.517 193.889 121.525 193.885C121.664 193.798 121.8 193.727 121.868 193.564Z" fill="white"/>
<path d="M123.788 194.469C123.788 194.507 123.758 194.537 123.72 194.537H123.709V194.632C123.709 194.669 123.679 194.699 123.641 194.699C123.603 194.699 123.573 194.669 123.573 194.632V194.537H123.192C123.177 194.537 123.162 194.533 123.151 194.522C123.121 194.5 123.117 194.458 123.14 194.428L123.592 193.866C123.592 193.866 123.592 193.866 123.596 193.862L123.6 193.858C123.603 193.858 123.603 193.855 123.607 193.855L123.611 193.851C123.615 193.851 123.615 193.847 123.618 193.847C123.618 193.843 123.622 193.843 123.622 193.843C123.622 193.843 123.626 193.843 123.63 193.84H123.634C123.637 193.84 123.641 193.84 123.641 193.84C123.641 193.84 123.641 193.84 123.645 193.84C123.645 193.84 123.645 193.84 123.649 193.84C123.652 193.84 123.656 193.84 123.656 193.84C123.66 193.84 123.66 193.84 123.664 193.84C123.664 193.84 123.667 193.84 123.671 193.843H123.675C123.679 193.847 123.679 193.847 123.683 193.847C123.686 193.847 123.686 193.851 123.69 193.851C123.69 193.851 123.694 193.851 123.694 193.855C123.698 193.858 123.698 193.858 123.698 193.858L123.701 193.862C123.701 193.862 123.705 193.866 123.705 193.87C123.705 193.87 123.705 193.874 123.709 193.874C123.709 193.877 123.709 193.877 123.713 193.881V193.885C123.713 193.889 123.713 193.889 123.713 193.892C123.713 193.896 123.713 193.896 123.713 193.9V193.904V194.398H123.724C123.758 194.401 123.788 194.432 123.788 194.469ZM123.573 194.1L123.332 194.401H123.573V194.1Z" fill="white"/>
<path d="M124.403 194.179C124.463 194.239 124.493 194.315 124.493 194.394C124.493 194.469 124.463 194.549 124.403 194.609C124.342 194.669 124.267 194.699 124.188 194.699C124.184 194.699 124.184 194.699 124.184 194.699C124.109 194.699 124.029 194.669 123.973 194.609C123.947 194.583 123.947 194.541 123.973 194.511C123.999 194.484 124.045 194.484 124.071 194.511C124.101 194.545 124.143 194.56 124.188 194.56C124.229 194.56 124.271 194.545 124.305 194.511C124.335 194.481 124.354 194.435 124.354 194.394C124.354 194.349 124.339 194.307 124.305 194.277C124.275 194.243 124.233 194.228 124.188 194.228C124.146 194.228 124.101 194.243 124.071 194.277C124.045 194.303 123.999 194.303 123.973 194.277C123.969 194.273 123.965 194.266 123.958 194.262C123.958 194.258 123.958 194.258 123.958 194.258C123.958 194.254 123.958 194.254 123.954 194.251C123.954 194.247 123.954 194.243 123.954 194.243C123.954 194.243 123.954 194.243 123.954 194.239C123.954 194.232 123.954 194.224 123.954 194.22L123.992 193.904C123.996 193.881 124.007 193.866 124.022 193.855C124.026 193.855 124.026 193.855 124.026 193.851C124.026 193.851 124.029 193.851 124.029 193.847C124.041 193.843 124.048 193.84 124.06 193.84H124.418C124.456 193.84 124.49 193.87 124.49 193.907C124.49 193.945 124.459 193.975 124.418 193.975H124.116L124.101 194.096C124.128 194.088 124.158 194.085 124.184 194.085C124.263 194.088 124.342 194.119 124.403 194.179Z" fill="white"/>
<path d="M125.599 194.337V194.631C125.599 194.665 125.569 194.696 125.535 194.696C125.501 194.696 125.471 194.665 125.471 194.631V194.341V194.337C125.471 194.269 125.414 194.217 125.346 194.217C125.279 194.217 125.222 194.273 125.222 194.341V194.631C125.222 194.635 125.222 194.639 125.222 194.639V194.643C125.222 194.647 125.222 194.647 125.218 194.65C125.218 194.65 125.218 194.654 125.218 194.658C125.207 194.68 125.184 194.696 125.158 194.696C125.154 194.696 125.15 194.696 125.147 194.696C125.116 194.688 125.094 194.665 125.094 194.631V194.341V194.152C125.094 194.115 125.124 194.088 125.158 194.088C125.184 194.088 125.207 194.103 125.218 194.126C125.256 194.103 125.301 194.088 125.35 194.088C125.426 194.088 125.497 194.119 125.543 194.171C125.588 194.119 125.656 194.088 125.735 194.088C125.874 194.088 125.987 194.202 125.987 194.345V194.635C125.987 194.669 125.957 194.699 125.923 194.699C125.889 194.699 125.859 194.669 125.859 194.635V194.345C125.859 194.277 125.803 194.22 125.735 194.22C125.656 194.217 125.599 194.269 125.599 194.337Z" fill="white"/>
<path d="M126.382 193.93C126.382 193.968 126.356 193.998 126.318 193.998C126.28 193.998 126.254 193.968 126.254 193.93V193.904C126.254 193.866 126.284 193.84 126.318 193.84C126.356 193.84 126.382 193.87 126.382 193.904V193.93ZM126.382 194.153V194.628C126.382 194.665 126.356 194.692 126.318 194.692C126.28 194.692 126.254 194.662 126.254 194.628V194.153C126.254 194.115 126.284 194.085 126.318 194.085C126.352 194.085 126.382 194.115 126.382 194.153Z" fill="white"/>
<path d="M127.107 194.337V194.628C127.107 194.662 127.08 194.692 127.043 194.692C127.009 194.692 126.979 194.662 126.979 194.628V194.337C126.979 194.27 126.922 194.213 126.85 194.213C126.782 194.213 126.73 194.27 126.73 194.337V194.628C126.73 194.632 126.73 194.635 126.726 194.639C126.718 194.669 126.692 194.692 126.662 194.692C126.624 194.692 126.598 194.662 126.598 194.628V194.337V194.149C126.598 194.115 126.624 194.085 126.662 194.085C126.688 194.085 126.711 194.1 126.722 194.122C126.76 194.1 126.805 194.085 126.85 194.085C126.99 194.085 127.107 194.202 127.107 194.337Z" fill="white"/>
<path d="M153.782 148.533C157.223 151.464 157.644 156.632 154.712 160.073C153.527 161.462 151.979 162.36 150.322 162.743L148.5 166.464L146.735 162.775C145.454 162.501 144.224 161.914 143.167 161.01C139.726 158.078 139.305 152.911 142.236 149.47C145.174 146.023 150.341 145.609 153.782 148.533Z" fill="white"/>
<path d="M153.784 148.533C154.918 149.521 155.816 150.795 156.275 152.242C156.409 152.592 156.473 152.968 156.562 153.338C156.606 153.714 156.677 154.083 156.677 154.466C156.721 155.217 156.638 155.982 156.466 156.715C156.313 157.46 156.001 158.161 155.651 158.83C155.453 159.155 155.268 159.487 155.026 159.78C154.803 160.086 154.555 160.379 154.287 160.646C153.217 161.729 151.834 162.5 150.349 162.857L150.426 162.794L148.629 166.521L148.501 166.789L148.368 166.515L146.59 162.832L146.698 162.921C144.207 162.418 142.04 160.659 140.963 158.378C140.422 157.237 140.148 155.976 140.161 154.72C140.173 153.465 140.492 152.216 141.053 151.095C141.62 149.98 142.435 148.992 143.429 148.234C144.43 147.482 145.596 146.966 146.813 146.724C149.266 146.214 151.904 146.921 153.784 148.533ZM153.784 148.533C151.891 146.934 149.253 146.252 146.832 146.781C145.628 147.042 144.481 147.577 143.512 148.329C142.544 149.088 141.76 150.075 141.231 151.178C140.702 152.28 140.409 153.497 140.422 154.72C140.435 155.937 140.715 157.154 141.244 158.25C141.76 159.359 142.569 160.302 143.512 161.067C144.468 161.819 145.596 162.348 146.781 162.609L146.857 162.628L146.889 162.698L148.642 166.394H148.38L150.222 162.685L150.247 162.634L150.298 162.622C151.751 162.303 153.108 161.57 154.179 160.532C154.446 160.27 154.695 159.99 154.918 159.69C155.16 159.404 155.351 159.079 155.549 158.767C155.906 158.11 156.224 157.422 156.39 156.689C156.568 155.963 156.67 155.211 156.626 154.459C156.632 154.083 156.562 153.714 156.517 153.338C156.428 152.974 156.371 152.599 156.243 152.248C155.804 150.814 154.918 149.527 153.784 148.533Z" fill="#1A2E35"/>
<path d="M151.581 153.605C151.428 152.044 150.351 150.49 148.459 150.49C146.573 150.49 145.496 152.044 145.336 153.605C145.094 156.014 146.726 158.199 148.459 160.188C150.192 158.199 151.817 156.014 151.581 153.605ZM148.459 155.339C147.516 155.339 146.751 154.574 146.751 153.631C146.751 152.688 147.516 151.923 148.459 151.923C149.408 151.923 150.173 152.688 150.173 153.631C150.166 154.574 149.402 155.339 148.459 155.339Z" fill="#E527BB"/>
<path d="M173.582 190.9L174.041 198.737L178.565 197.578L178.444 189.199L173.582 190.9Z" fill="#E527BB"/>
<path d="M143.415 238.409L139.936 255.658L133.615 281.802L127.109 280.049L131.175 253.714L133.073 219.695L143.415 238.409Z" fill="black"/>
<path d="M171.801 196.475L172.852 196.201C172.852 196.201 174.235 194.653 174.987 194.016C175.739 193.379 175.828 194.328 174.821 195.558C174.821 195.558 177.586 193.608 178.644 195.15C179.81 196.851 178.236 198.438 174.496 198.648L173.4 199.062L171.801 196.475Z" fill="#F9A28B"/>
<path d="M139.851 185.216L147.44 189.046C147.44 189.046 150.963 193.64 150.422 200.031C149.88 206.416 148.797 219.695 148.797 219.695L133.077 218.675V200.541C133.071 200.541 131.988 190.836 139.851 185.216Z" fill="#A78BEF"/>
<path d="M149.197 221.065L132.496 219.593L132.649 218.063L149.35 219.542L149.197 221.065Z" fill="#8970E5"/>
<path d="M136.73 188.154C136.73 188.154 130.224 198.113 129.409 202.459C128.593 206.798 134.557 210.889 134.29 210.634C134.022 210.373 136.73 188.154 136.73 188.154Z" fill="#A78BEF"/>
<path d="M157.063 201.694L168.838 196.558L171.699 195.309L173.865 199.904C173.865 199.904 172.859 200.534 171.323 201.471C167.341 203.88 159.803 208.295 157.063 208.843C153.265 209.608 141.069 196.839 141.069 196.839C141.069 196.839 138.629 192.754 146.218 188.154" fill="#A78BEF"/>
<path d="M173.867 199.904C173.867 199.904 172.861 200.535 171.325 201.471L168.84 196.558L171.701 195.31L173.867 199.904Z" fill="#8970E5"/>
<path d="M148.304 220.905C148.304 220.905 153.982 240.116 155.402 247.89C156.715 255.071 156.651 283.337 156.651 283.337L150.42 283.292L147.023 250.681L132.527 219.446L148.304 220.905Z" fill="black"/>
<path d="M128.302 279.896L127.875 281.827L131.239 282.796L131.94 281.005L128.302 279.896Z" fill="#F9A28B"/>
<path d="M127.873 281.827L127 284.943L135.647 287.027L131.237 282.796L127.873 281.827Z" fill="#A78BEF"/>
<path d="M132.431 283.038L131.469 284.331" stroke="#A78BEF" stroke-miterlimit="10"/>
<path d="M133.274 283.936L132.535 285.026" stroke="#A78BEF" stroke-miterlimit="10"/>
<path d="M151.258 282.897L151.608 284.847L155.113 284.586L155.075 282.681L151.258 282.897Z" fill="#F9A28B"/>
<path d="M151.609 284.847L152.004 288.046L160.861 287.007L155.114 284.586L151.609 284.847Z" fill="#A78BEF"/>
<path d="M156.318 284.401L155.93 285.937" stroke="#A78BEF" stroke-miterlimit="10"/>
<path d="M157.459 284.949L157.191 286.217" stroke="#A78BEF" stroke-miterlimit="10"/>
<path d="M136.203 227.729L143.034 241.327L140.071 254.44L140.198 241.206L136.203 227.729Z" fill="#281919"/>
<path opacity="0.21" d="M139.354 234.101L130.656 280.457" stroke="#228652" stroke-width="4" stroke-miterlimit="10"/>
<path d="M146.998 183.458C150.362 183.458 153.089 180.671 153.089 177.232C153.089 173.794 150.362 171.007 146.998 171.007C143.634 171.007 140.906 173.794 140.906 177.232C140.906 180.671 143.634 183.458 146.998 183.458Z" fill="#F9A28B"/>
<path d="M144.577 187.651L145.839 182.368L142.838 180.367L139.855 185.216L144.577 187.651Z" fill="#F9A28B"/>
<path d="M142.342 181.419C142.342 181.419 138.194 174.862 141.195 171.695C144.19 168.535 152.021 171.893 155.405 169.815C158.788 167.738 155.112 176.34 151.83 176.041C148.542 175.741 146.898 174.951 146.223 176.538C145.547 178.118 144.968 179.01 144.968 179.01C144.968 179.01 143.999 176.538 142.935 176.837C141.871 177.137 142.342 181.419 142.342 181.419Z" fill="#2F011C"/>
<path d="M143.37 180.457C144.412 180.457 145.257 179.661 145.257 178.679C145.257 177.697 144.412 176.901 143.37 176.901C142.329 176.901 141.484 177.697 141.484 178.679C141.484 179.661 142.329 180.457 143.37 180.457Z" fill="#F9A28B"/>
<path d="M142.988 180.648C142.988 180.648 144.492 182.795 145.607 183.241L144.963 185.586C144.963 185.586 142.689 183.203 142.988 180.648Z" fill="#2F011C"/>
</g>
</g>
<defs>
<clipPath id="clip0_1279_2567">
<rect width="532.49" height="330.06" fill="white"/>
</clipPath>
<clipPath id="clip1_1279_2567">
<rect width="548.7" height="244.3" fill="white" transform="translate(-8 53)"/>
</clipPath>
</defs>
</svg>
