<svg width="533" height="331" viewBox="0 0 533 331" fill="none" xmlns="http://www.w3.org/2000/svg">
<path opacity="0.2" fill-rule="evenodd" clip-rule="evenodd" d="M0 7.5756C0 7.5756 496.166 -10.2363 522.25 8.76437C545.499 25.7019 520.61 239.759 514.929 286.131C514.801 287.134 513.992 287.91 512.938 288.028C382.355 302.136 78.1811 295.779 13.6451 294.227C12.5792 294.197 11.7008 293.49 11.49 292.498C2.02627 247.216 0 7.5756 0 7.5756Z" fill="#999999"/>
<g clip-path="url(#clip0_1915_5330)">
<path d="M413.684 34H188.024C185.164 34 182.844 36.32 182.844 39.18V159.77C182.844 162.63 185.164 164.95 188.024 164.95H413.684C416.544 164.95 418.864 162.63 418.864 159.77V39.18C418.864 36.32 416.544 34 413.684 34Z" fill="#E527BB"/>
<path d="M406.935 36.8601H190.625C187.765 36.8601 185.445 39.1801 185.445 42.0401V150.94C185.445 153.8 187.765 156.12 190.625 156.12H406.945C409.805 156.12 412.125 153.8 412.125 150.94V42.0301C412.115 39.1701 409.795 36.8601 406.935 36.8601Z" fill="#E527BB"/>
<path d="M406.935 39.97H190.625C189.485 39.97 188.555 40.9 188.555 42.04V150.94C188.555 152.08 189.485 153.01 190.625 153.01H406.945C408.085 153.01 409.015 152.08 409.015 150.94V42.03C409.005 40.89 408.075 39.97 406.935 39.97Z" fill="#FFFDF0"/>
<g opacity="0.18">
<path d="M407.416 41.0801H190.536C190.246 41.0801 190.016 41.3101 190.016 41.6001V150.25C190.016 150.54 190.246 150.77 190.536 150.77H407.416C407.706 150.77 407.936 150.54 407.936 150.25V41.6001C407.946 41.3201 407.706 41.0801 407.416 41.0801ZM406.896 149.73H191.066V42.1301H406.896V149.73Z" fill="#00574D"/>
<path d="M407.416 131.62H190.536C190.246 131.62 190.016 131.85 190.016 132.14C190.016 132.43 190.246 132.66 190.536 132.66H407.416C407.706 132.66 407.936 132.43 407.936 132.14C407.946 131.86 407.706 131.62 407.416 131.62Z" fill="#00574D"/>
<path d="M407.416 113.52H190.536C190.246 113.52 190.016 113.75 190.016 114.04C190.016 114.33 190.246 114.56 190.536 114.56H407.416C407.706 114.56 407.936 114.33 407.936 114.04C407.946 113.75 407.706 113.52 407.416 113.52Z" fill="#00574D"/>
<path d="M407.416 95.4102H190.536C190.246 95.4102 190.016 95.6402 190.016 95.9302C190.016 96.2202 190.246 96.4502 190.536 96.4502H407.416C407.706 96.4502 407.936 96.2202 407.936 95.9302C407.946 95.6402 407.706 95.4102 407.416 95.4102Z" fill="#00574D"/>
<path d="M407.416 77.3H190.536C190.246 77.3 190.016 77.53 190.016 77.82C190.016 78.11 190.246 78.34 190.536 78.34H407.416C407.706 78.34 407.936 78.11 407.936 77.82C407.946 77.53 407.706 77.3 407.416 77.3Z" fill="#00574D"/>
<path d="M407.416 59.1902H190.536C190.246 59.1902 190.016 59.4202 190.016 59.7102C190.016 60.0002 190.246 60.2302 190.536 60.2302H407.416C407.706 60.2302 407.936 60.0002 407.936 59.7102C407.946 59.4202 407.706 59.1902 407.416 59.1902Z" fill="#00574D"/>
<path d="M371.262 41.0801C370.972 41.0801 370.742 41.3101 370.742 41.6001V150.25C370.742 150.54 370.972 150.77 371.262 150.77C371.552 150.77 371.782 150.54 371.782 150.25V41.6001C371.792 41.3201 371.552 41.0801 371.262 41.0801Z" fill="#00574D"/>
<path d="M335.129 41.0801C334.839 41.0801 334.609 41.3101 334.609 41.6001V150.25C334.609 150.54 334.839 150.77 335.129 150.77C335.419 150.77 335.649 150.54 335.649 150.25V41.6001C335.649 41.3201 335.419 41.0801 335.129 41.0801Z" fill="#00574D"/>
<path d="M298.973 41.0801C298.683 41.0801 298.453 41.3101 298.453 41.6001V150.25C298.453 150.54 298.683 150.77 298.973 150.77C299.263 150.77 299.493 150.54 299.493 150.25V41.6001C299.503 41.3201 299.263 41.0801 298.973 41.0801Z" fill="#00574D"/>
<path d="M262.825 41.0801C262.535 41.0801 262.305 41.3101 262.305 41.6001V150.25C262.305 150.54 262.535 150.77 262.825 150.77C263.115 150.77 263.345 150.54 263.345 150.25V41.6001C263.355 41.3201 263.115 41.0801 262.825 41.0801Z" fill="#00574D"/>
<path d="M226.684 41.0801C226.394 41.0801 226.164 41.3101 226.164 41.6001V150.25C226.164 150.54 226.394 150.77 226.684 150.77C226.974 150.77 227.204 150.54 227.204 150.25V41.6001C227.204 41.3201 226.974 41.0801 226.684 41.0801Z" fill="#00574D"/>
</g>
<path d="M406.676 40.8601L370.526 77.0801C370.416 77.1901 370.326 77.3301 370.276 77.4901L352.696 130.2L335.866 113.3C335.656 113.09 335.386 112.98 335.086 112.99C334.796 113 334.526 113.13 334.326 113.35L319.536 130.34L299.906 95.4501L283.376 59.9101C283.236 59.6101 282.966 59.3901 282.636 59.3301C282.316 59.2601 281.976 59.3501 281.726 59.5701L262.126 77.0401C262.026 77.1301 261.936 77.2401 261.876 77.3701L244.636 113.42L226.066 131.29L190.066 149.33C189.546 149.59 189.336 150.22 189.596 150.74C189.776 151.11 190.146 151.32 190.536 151.32C190.696 151.32 190.856 151.28 191.006 151.21L227.156 133.1C227.246 133.05 227.336 132.99 227.416 132.92L246.236 114.81C246.326 114.72 246.396 114.62 246.456 114.51L263.696 78.4801L282.086 62.0901L298.036 96.3901C298.046 96.4101 298.056 96.4401 298.076 96.4601L318.456 132.68C318.626 132.98 318.926 133.17 319.266 133.21C319.606 133.24 319.936 133.11 320.166 132.86L335.186 115.6L352.416 132.91C352.676 133.17 353.046 133.27 353.396 133.19C353.746 133.11 354.036 132.85 354.146 132.5L372.186 78.4101L408.156 42.3701C408.566 41.9601 408.566 41.3001 408.156 40.8901C407.746 40.4501 407.086 40.4601 406.676 40.8601Z" fill="#A78BEF"/>
<path d="M407.882 40.6701C407.362 40.4101 406.732 40.6201 406.472 41.1401L370.972 112.27L335.852 77.0801C335.652 76.8801 335.372 76.7701 335.102 76.7701C334.822 76.7701 334.552 76.8901 334.352 77.0901L317.742 94.4401L299.702 77.0701C299.292 76.6701 298.642 76.6801 298.232 77.0801L262.802 112.58L244.252 95.1701C243.832 94.7801 243.182 94.7901 242.782 95.2001L189.782 149.53C189.382 149.94 189.382 150.61 189.802 151.01C190.002 151.21 190.272 151.31 190.532 151.31C190.802 151.31 191.072 151.2 191.282 150.99L243.562 97.4001L262.102 114.81C262.512 115.2 263.162 115.19 263.562 114.79L298.982 79.3001L317.052 96.7001C317.252 96.8901 317.522 97.0001 317.802 96.9901C318.082 96.9801 318.342 96.8701 318.542 96.6701L335.132 79.3401L370.522 114.8C370.762 115.04 371.102 115.15 371.432 115.09C371.762 115.04 372.052 114.83 372.202 114.52L408.352 42.0801C408.612 41.5501 408.402 40.9301 407.882 40.6701Z" fill="#E527BB"/>
<path d="M198.483 140.24C198.483 140.24 198.053 138.6 189.003 141.06C193.003 135.41 189.703 134.36 189.703 134.36C189.703 134.36 190.303 134.61 188.153 137.26C186.003 139.91 183.803 140.51 182.853 143.16C181.903 145.81 182.003 147.76 182.003 147.76L184.703 152.51C184.703 152.51 186.903 150.51 189.003 149.41C198.803 147.56 202.563 141.11 204.813 140.61C203.913 138.86 198.483 140.24 198.483 140.24Z" fill="#F3CAAC"/>
<path d="M159.092 96.0098C163.272 88.4698 155.723 91.5798 155.073 81.8598C154.433 72.1398 145.943 76.5598 145.943 76.5598L137.562 115.99C137.562 115.99 139.172 119.28 153.702 118.48C168.243 117.68 154.912 103.54 159.092 96.0098Z" fill="black"/>
<path d="M108.059 306.78L106.359 307.84C106.359 307.84 113.439 317.82 121.789 321.42C122.009 318.1 121.789 317.79 121.789 317.79L108.059 306.78Z" fill="#001C08"/>
<path d="M119.401 326.21C119.401 326.21 119.131 326.87 119.691 328.65C124.051 330.22 138.951 330.39 152.491 329.29C152.601 329.21 152.491 327.21 152.491 327.21C149.891 325.6 119.401 326.21 119.401 326.21Z" fill="#001C08"/>
<path d="M108.062 306.78C113.443 313.89 121.373 319.27 121.373 319.27L123.312 308.2L116.243 301.62L108.062 306.78Z" fill="#BF1FA1"/>
<path d="M133.586 186.71L141.936 207.38C141.936 207.38 147.026 226.25 146.956 240.22C146.936 243.66 134.516 258.09 134.516 258.09C134.516 258.09 138.916 302.2 139.016 302.87C139.116 303.54 175.676 256.96 175.676 247.97C175.676 238.98 161.206 186.34 161.206 186.34L133.586 186.71Z" fill="black"/>
<path d="M136.604 317.94C136.384 317.18 136.604 309.54 136.604 309.54L121.004 308.82L119.414 326.2C119.414 326.2 134.174 328.67 152.494 327.2C151.464 322.58 145.674 320.16 136.604 317.94Z" fill="#E527BB"/>
<path d="M121.004 308.82L120.344 316.01C128.344 317.98 136.514 316.38 136.514 316.38C136.474 313.92 136.604 309.53 136.604 309.53L121.004 308.82Z" fill="#F3CAAC"/>
<path d="M143.265 216.96C144.125 208.45 144.365 186.23 144.365 186.23C144.365 186.23 120.075 177.05 112.905 190.06C105.735 203.07 119.065 246.71 119.345 253.21C119.635 259.71 112.735 272.86 112.635 310.45C116.365 311.79 139.225 308.77 148.125 309.63L144.365 277.43C144.365 277.42 142.405 225.47 143.265 216.96Z" fill="black"/>
<path d="M145.663 115.94H140.353L129.533 118.26L128.883 156.32L133.593 188.33C133.663 188.04 145.333 189.86 152.213 187.85C159.103 185.84 153.753 134.5 153.793 134.15C153.823 133.8 145.663 115.94 145.663 115.94Z" fill="#A78BEF"/>
<path d="M146.903 79.9999L142.623 79.4299C142.623 79.4299 136.733 82.8999 136.603 83.0799C136.473 83.2599 127.812 99.5999 127.812 99.5999L131.153 117.22C131.153 117.22 136.123 120.74 140.293 120.34C144.463 119.94 145.643 115.99 145.643 115.99V110.5C152.583 109.31 153.253 98.1899 152.283 90.0199C151.323 81.8499 146.903 79.9999 146.903 79.9999Z" fill="#F3CAAC"/>
<path d="M170.254 150.97C170.084 150.97 166.434 127.23 164.204 122.15C161.974 117.07 145.664 115.93 145.664 115.93C148.254 137.62 148.464 166.96 149.084 194.61C160.474 194.3 163.864 190.63 163.864 190.63C163.864 190.63 165.634 193.53 163.184 183.54C160.734 173.55 160.444 164.48 160.444 164.48C160.444 164.48 164.034 167.62 168.264 167.5C172.484 167.39 187.384 153.98 187.384 153.98C187.384 153.98 186.124 150.78 179.964 143.54C179.494 143.44 170.424 150.97 170.254 150.97Z" fill="#E527BB"/>
<path d="M153.684 120.96L145.664 115.94C145.664 115.94 146.204 126 146.744 129.96C147.274 133.92 148.664 180.26 148.664 180.26L155.724 128.14L149.654 125.86L153.684 120.96Z" fill="#BF1FA1"/>
<path d="M130.032 117.98C130.032 117.98 115.272 115.88 108.742 124.21C113.272 124.84 120.022 143.92 119.912 157.3C119.802 170.68 115.272 170.28 111.272 191.47C111.272 191.47 122.442 192.63 138.042 196.53C139.202 196.11 139.522 183.02 138.042 163.31C136.562 143.6 130.032 117.98 130.032 117.98Z" fill="#E527BB"/>
<path d="M129.521 118.26L124.211 126.38L128.861 128.21L125.211 134.68C125.211 134.68 129.421 138.64 131.801 148.68C134.191 158.72 138.801 177.44 138.801 177.44C138.801 177.44 136.231 142.79 133.941 133.44C131.671 124.1 129.521 118.26 129.521 118.26Z" fill="#BF1FA1"/>
<path d="M131.81 136.15C131.39 152.13 132.34 168.86 132.34 168.86L139.03 167.96L135.93 136.37L131.81 136.15Z" fill="#CDCFD0"/>
<path d="M134.376 134.15C134.376 134.15 134.666 160.16 133.586 169.45C148.496 172 159.776 169.23 159.776 169.23C159.776 169.23 162.766 137.98 163.426 135.04C146.606 132.06 134.376 134.15 134.376 134.15Z" fill="#E9E9EA"/>
<path d="M134.226 157.99C134.106 162.53 133.906 166.72 133.586 169.45C148.496 172 159.776 169.23 159.776 169.23C159.776 169.23 161.606 150.07 162.716 140.35C159.116 147.99 149.846 162.93 134.226 157.99Z" fill="#D9D9DA"/>
<path d="M74.2753 235.6C74.2753 235.44 74.1453 235.31 73.9853 235.31C73.8253 235.31 73.6953 235.44 73.6953 235.6C73.6953 236.03 73.8253 278.89 73.9153 285.66C74.0053 292.41 73.8053 297.3 73.8053 297.35C73.7953 297.51 73.9253 297.64 74.0853 297.65H74.0953C74.2453 297.65 74.3753 297.53 74.3853 297.37C74.3853 297.32 74.5853 292.42 74.4953 285.65C74.4053 278.89 74.2853 236.03 74.2753 235.6Z" fill="#1D634C"/>
<path d="M83.1047 252.15C82.9647 252.08 82.7847 252.14 82.7247 252.29C82.6747 252.39 78.1847 261.98 78.0947 279.08C78.0047 296.13 78.0947 297.34 78.0947 297.38C78.1047 297.53 78.2347 297.64 78.3847 297.64C78.3947 297.64 78.4047 297.64 78.4047 297.64C78.5647 297.63 78.6847 297.49 78.6647 297.33C78.6647 297.28 78.5747 295.92 78.6647 279.08C78.7547 262.12 83.1947 252.63 83.2347 252.53C83.3147 252.39 83.2547 252.22 83.1047 252.15Z" fill="#1D634C"/>
<path d="M85.1843 264.43C85.0243 264.4 84.8743 264.51 84.8543 264.66C84.8243 264.85 81.4643 283.65 82.7043 295.99C82.7143 296.14 82.8443 296.25 82.9943 296.25C83.0043 296.25 83.0143 296.25 83.0243 296.25C83.1843 296.23 83.2943 296.09 83.2843 295.93C82.0443 283.67 85.3943 264.95 85.4243 264.76C85.4443 264.61 85.3443 264.46 85.1843 264.43Z" fill="#1D634C"/>
<path d="M69.919 271.51C69.759 271.52 69.639 271.65 69.649 271.81L70.779 296.96C70.789 297.11 70.909 297.23 71.069 297.23H71.079C71.239 297.22 71.359 297.09 71.349 296.93L70.219 271.78C70.219 271.62 70.079 271.5 69.919 271.51Z" fill="#1D634C"/>
<path d="M59.1059 219.92L48.5559 220.59C48.4659 220.6 48.3759 220.65 48.3259 220.73C48.2759 220.81 48.2659 220.91 48.3059 220.99C48.4259 221.27 51.2959 227.87 55.4559 231.53C55.5059 231.58 55.5759 231.6 55.6459 231.6C55.6559 231.6 55.6659 231.6 55.6759 231.6C55.7559 231.59 55.8259 231.55 55.8759 231.48C58.3159 228.01 59.0259 222.96 59.2959 221.05C59.3359 220.76 59.3759 220.49 59.3959 220.38C59.4059 220.36 59.4259 220.34 59.4359 220.31C59.4759 220.2 59.4459 220.08 59.3659 220C59.3059 219.93 59.1959 219.9 59.1059 219.92Z" fill="#1D634C"/>
<path d="M87.7113 256.92C87.7113 256.92 81.5413 255.48 83.3113 264.7C85.0913 273.93 90.6913 284.16 106.531 284.19C106.971 275.7 107.641 270.9 104.681 265.06C101.731 259.24 87.2013 251.42 87.7113 256.92Z" fill="#0A9314"/>
<path d="M94.7617 236.54C81.6717 238.49 82.9817 252.41 82.9817 252.41C88.3817 253.99 91.2717 248.35 96.9717 249.59C102.672 250.83 110.222 249.89 116.632 244.47C116.632 244.48 107.842 234.6 94.7617 236.54Z" fill="#0A9314"/>
<path d="M73.4794 241.78C73.4794 241.78 67.2394 235.61 62.8094 244.3C58.3794 252.99 60.4294 265.47 62.3694 269.43C64.3194 273.39 68.2394 276.11 68.5794 276.17C68.9194 276.24 76.2594 268.28 79.3794 259.26C82.5094 250.23 79.7894 238.49 73.4794 241.78Z" fill="#0A9314"/>
<path d="M71.0325 218.02C63.4525 211.91 57.0725 214.3 48.3125 220.64C48.3125 220.64 54.5225 222.79 58.9525 227.18C63.3825 231.57 73.5825 235.43 73.9825 235.6C73.9925 235.6 78.6225 224.13 71.0325 218.02Z" fill="#0A9314"/>
<path d="M45.5724 238.68C37.9524 241.7 32.3924 250.64 35.9224 260.29C47.4024 258.68 56.3524 252.84 60.6124 248.98C64.8724 245.11 63.2924 241.39 61.4824 237.72C61.4824 237.72 53.1924 235.66 45.5724 238.68Z" fill="#0A9314"/>
<path d="M115.716 244.04C115.636 243.98 107.456 237.88 96.6357 238.42C85.6757 238.98 82.9757 250.56 82.9457 250.68C82.9057 250.86 83.0157 251.04 83.2057 251.08C83.2257 251.09 83.2557 251.09 83.2757 251.09C83.4257 251.09 83.5657 250.98 83.6057 250.83C83.6357 250.72 86.2357 239.63 96.6657 239.1C107.236 238.56 115.226 244.52 115.306 244.58C115.456 244.69 115.666 244.66 115.776 244.51C115.896 244.37 115.866 244.16 115.716 244.04Z" fill="#1D634C"/>
<path d="M109.422 246.66C103.972 243.82 98.3122 238.8 98.2522 238.75C98.1322 238.64 97.9522 238.65 97.8422 238.77C97.7322 238.89 97.7422 239.07 97.8622 239.18C97.9222 239.23 103.632 244.31 109.152 247.18C109.192 247.2 109.242 247.21 109.282 247.21C109.382 247.21 109.482 247.15 109.542 247.06C109.612 246.9 109.562 246.73 109.422 246.66Z" fill="#1D634C"/>
<path d="M95.185 247.85C92.155 246.98 88.005 242.77 87.965 242.73C87.855 242.62 87.675 242.61 87.555 242.73C87.445 242.84 87.435 243.02 87.555 243.14C87.725 243.32 91.845 247.5 95.025 248.41C95.055 248.42 95.075 248.42 95.105 248.42C95.235 248.42 95.345 248.34 95.385 248.21C95.435 248.06 95.345 247.9 95.185 247.85Z" fill="#1D634C"/>
<path d="M67.7531 221.22C61.3431 215.03 55.4831 215.97 55.2431 216.02C55.0831 216.05 54.9831 216.2 55.0131 216.35C55.0431 216.51 55.1931 216.61 55.3431 216.58C55.4031 216.57 61.1631 215.65 67.3531 221.63C73.5631 227.62 73.6031 235.21 73.6031 235.29C73.6031 235.45 73.7331 235.58 73.8931 235.58C74.0531 235.58 74.1831 235.45 74.1831 235.29C74.1831 235.21 74.1431 227.39 67.7531 221.22Z" fill="#1D634C"/>
<path d="M70.3906 225.26C70.3506 225.28 66.6006 226.91 61.9306 227.8C61.7706 227.83 61.6706 227.98 61.7006 228.14C61.7306 228.28 61.8506 228.37 61.9806 228.37C62.0006 228.37 62.0206 228.37 62.0306 228.36C66.7606 227.46 70.5706 225.8 70.6106 225.78C70.7606 225.72 70.8206 225.55 70.7606 225.4C70.7006 225.26 70.5306 225.19 70.3906 225.26Z" fill="#1D634C"/>
<path d="M60.5725 217.17C60.5225 217.18 55.0225 218.65 51.1025 218.68C50.9425 218.68 50.8125 218.81 50.8125 218.97C50.8125 219.13 50.9425 219.26 51.1025 219.26C55.1025 219.23 60.6625 217.74 60.7225 217.73C60.8725 217.69 60.9625 217.53 60.9225 217.38C60.8825 217.22 60.7225 217.12 60.5725 217.17Z" fill="#1D634C"/>
<path d="M66.5805 215.06C66.4205 215.08 66.3105 215.22 66.3305 215.38C66.5405 217.12 66.4205 220.61 66.4205 220.64C66.4105 220.8 66.5405 220.93 66.7005 220.94H66.7105C66.8605 220.94 66.9905 220.82 67.0005 220.66C67.0105 220.52 67.1205 217.1 66.9005 215.31C66.8805 215.15 66.7405 215.04 66.5805 215.06Z" fill="#1D634C"/>
<path d="M73.525 241.49C73.365 241.47 73.225 241.58 73.205 241.74C73.205 241.75 73.025 243.2 72.565 245.6C72.135 247.82 71.375 251.35 70.155 255.51C67.815 263.54 68.455 275.45 68.455 275.57C68.465 275.72 68.595 275.84 68.745 275.84C68.755 275.84 68.755 275.84 68.765 275.84C68.925 275.83 69.045 275.7 69.035 275.54C69.025 275.42 68.395 263.6 70.715 255.67C71.935 251.49 72.705 247.95 73.135 245.71C73.605 243.28 73.785 241.82 73.785 241.81C73.795 241.65 73.685 241.51 73.525 241.49Z" fill="#1D634C"/>
<path d="M80.0615 253.21C76.8315 251.02 73.3815 245.59 73.3515 245.54C73.2715 245.41 73.0915 245.37 72.9515 245.45C72.8215 245.53 72.7815 245.71 72.8615 245.85C73.0015 246.08 76.4115 251.43 79.7315 253.69C79.7815 253.72 79.8415 253.74 79.8915 253.74C79.9815 253.74 80.0715 253.7 80.1315 253.61C80.2315 253.48 80.1915 253.3 80.0615 253.21Z" fill="#1D634C"/>
<path d="M76.4436 264.49C73.4436 262.05 70.7136 255.78 70.6936 255.72C70.6336 255.57 70.4636 255.51 70.3136 255.57C70.1636 255.63 70.1036 255.8 70.1636 255.95C70.2736 256.21 72.9736 262.42 76.0836 264.94C76.1336 264.98 76.2036 265 76.2636 265C76.3436 265 76.4336 264.96 76.4836 264.89C76.5936 264.77 76.5736 264.59 76.4436 264.49Z" fill="#1D634C"/>
<path d="M69.6346 258.74C69.5046 258.65 69.3246 258.69 69.2346 258.82C69.2046 258.87 65.9846 263.63 62.0246 265.31C61.8746 265.37 61.8146 265.54 61.8746 265.69C61.9246 265.8 62.0246 265.87 62.1346 265.87C62.1746 265.87 62.2146 265.86 62.2446 265.85C66.3646 264.1 69.5746 259.35 69.7146 259.15C69.8046 259.01 69.7646 258.83 69.6346 258.74Z" fill="#1D634C"/>
<path d="M72.1829 246.31C72.1329 246.36 66.7029 251.02 61.1329 252.42C60.9829 252.46 60.8829 252.61 60.9229 252.77C60.9529 252.9 61.0729 252.99 61.2029 252.99C61.2229 252.99 61.2529 252.99 61.2729 252.98C66.9729 251.55 72.5029 246.8 72.5629 246.75C72.6829 246.65 72.6929 246.46 72.5929 246.34C72.4829 246.22 72.3029 246.2 72.1829 246.31Z" fill="#1D634C"/>
<path d="M60.7393 237.71C60.6493 237.75 52.1493 241.59 46.0293 246.79C39.9593 251.94 36.3193 259.3 36.2793 259.37C36.2093 259.51 36.2693 259.68 36.4093 259.75C36.4493 259.77 36.4893 259.78 36.5393 259.78C36.6493 259.78 36.7493 259.72 36.7993 259.62C36.8393 259.55 40.4293 252.29 46.3993 247.23C52.4593 242.09 60.8893 238.28 60.9693 238.24C61.1093 238.17 61.1793 238 61.1093 237.86C61.0493 237.71 60.8793 237.65 60.7393 237.71Z" fill="#1D634C"/>
<path d="M55.4489 241.11C55.4589 240.95 55.3289 240.82 55.1789 240.81C55.0189 240.81 54.8889 240.93 54.8789 241.08C54.8689 241.37 54.5789 248.13 55.3889 251.67C55.4189 251.8 55.5389 251.89 55.6689 251.89C55.6889 251.89 55.7089 251.89 55.7289 251.88C55.8789 251.84 55.9789 251.69 55.9489 251.54C55.1489 248.08 55.4389 241.18 55.4489 241.11Z" fill="#1D634C"/>
<path d="M46.2361 247C46.0861 246.96 45.9261 247.04 45.8761 247.2C45.8661 247.24 44.6561 251.55 45.2961 257.75C45.3161 257.9 45.4361 258.01 45.5861 258.01C45.5961 258.01 45.6061 258.01 45.6161 258.01C45.7761 257.99 45.8861 257.85 45.8761 257.69C45.2561 251.6 46.4261 247.4 46.4361 247.36C46.4761 247.2 46.3861 247.04 46.2361 247Z" fill="#1D634C"/>
<path d="M53.6523 241.39C53.6023 241.38 48.5023 240.05 41.0023 241.09C40.8423 241.11 40.7323 241.26 40.7523 241.41C40.7723 241.57 40.9223 241.68 41.0723 241.66C48.4523 240.63 53.4523 241.93 53.5023 241.95C53.5223 241.96 53.5523 241.96 53.5723 241.96C53.7023 241.96 53.8123 241.88 53.8523 241.75C53.8923 241.59 53.8023 241.43 53.6523 241.39Z" fill="#1D634C"/>
<path d="M44.2885 248.28C44.0085 248.33 37.4185 249.46 35.0185 251.6C34.8985 251.71 34.8885 251.89 34.9985 252.01C35.0585 252.07 35.1385 252.11 35.2185 252.11C35.2885 252.11 35.3585 252.09 35.4085 252.04C37.6885 250.01 44.3285 248.87 44.3985 248.86C44.5585 248.83 44.6585 248.69 44.6385 248.53C44.5885 248.35 44.4385 248.25 44.2885 248.28Z" fill="#1D634C"/>
<path d="M105.066 280.85C103.156 276.99 99.9556 270.54 95.1556 266.12C91.8756 263.1 90.1356 260.75 89.2456 259.3C88.3356 257.82 88.1356 257.01 88.1356 256.99C88.0956 256.84 87.9456 256.74 87.7956 256.77C87.6456 256.81 87.5456 256.96 87.5756 257.11C87.5856 257.15 87.7856 258.01 88.7556 259.59C89.6656 261.06 91.4456 263.47 94.7656 266.53C99.4856 270.88 102.656 277.27 104.556 281.1C105.186 282.37 105.636 283.28 105.966 283.75C106.026 283.83 106.116 283.87 106.206 283.87C106.266 283.87 106.316 283.85 106.376 283.82C106.506 283.73 106.536 283.55 106.446 283.42C106.126 282.99 105.656 282.05 105.066 280.85Z" fill="#1D634C"/>
<path d="M100.774 260.27C96.164 258.85 89.574 259.18 89.294 259.2C89.134 259.21 89.014 259.34 89.024 259.5C89.034 259.66 89.164 259.78 89.324 259.77C89.394 259.77 96.094 259.43 100.604 260.82C100.634 260.83 100.664 260.83 100.684 260.83C100.804 260.83 100.924 260.75 100.954 260.63C101.014 260.47 100.924 260.31 100.774 260.27Z" fill="#1D634C"/>
<path d="M106.759 270.56C103.059 267.56 97.0087 267.56 96.7587 267.57C96.5987 267.57 96.4688 267.7 96.4688 267.86C96.4688 268.02 96.5987 268.15 96.7587 268.15C96.8087 268.15 102.859 268.14 106.389 271.01C106.439 271.05 106.509 271.07 106.569 271.07C106.649 271.07 106.739 271.03 106.789 270.96C106.899 270.84 106.879 270.66 106.759 270.56Z" fill="#1D634C"/>
<path d="M98.5462 270.05C98.3962 270 98.2362 270.08 98.1862 270.23C98.0862 270.53 95.7463 277.54 95.6562 281.83C95.6562 281.99 95.7762 282.12 95.9362 282.12C95.9362 282.12 95.9362 282.12 95.9462 282.12C96.1062 282.12 96.2262 282 96.2362 281.84C96.3262 277.63 98.7163 270.48 98.7363 270.41C98.7763 270.27 98.6962 270.1 98.5462 270.05Z" fill="#1D634C"/>
<path d="M90.13 261.05C89.98 261 89.82 261.08 89.77 261.23C89.76 261.26 88.86 264.03 88.2 267.64C87.53 271.27 87.97 275.33 87.97 275.37C87.99 275.52 88.1099 275.63 88.2599 275.63C88.2699 275.63 88.28 275.63 88.29 275.63C88.45 275.61 88.56 275.47 88.54 275.31C88.54 275.27 88.1099 271.29 88.7599 267.75C89.4199 264.18 90.3 261.44 90.31 261.42C90.36 261.26 90.28 261.1 90.13 261.05Z" fill="#1D634C"/>
<path d="M64.28 327.46H87.58L93.89 298.43L58.5 299.18L64.28 327.46Z" fill="#FF9945"/>
<g opacity="0.35">
<path d="M80.0544 328.21L86.7744 328.44L92.6144 299.01V298.79H79.7344L80.0544 328.21Z" fill="#E3623D"/>
</g>
<path d="M59.8359 299.62L65.4459 327.71L70.5059 327.46L69.6559 300.31L59.8359 299.62Z" fill="#FCB64C"/>
<path d="M63.4259 328.32H88.6859L92.6159 323.87H59.8359L63.4259 328.32Z" fill="#E3623D"/>
<path d="M123.882 164.78C120.812 163.63 118.622 165.46 118.622 165.46C118.622 165.46 119.762 154.21 119.552 145.57C119.342 136.94 114.752 123.52 108.992 124.26C104.822 124.8 102.972 166.76 103.492 173.15C104.012 179.53 111.392 183.46 119.142 181.16C126.882 178.86 128.872 176.87 128.872 176.87C128.872 176.87 127.792 167.4 123.882 164.78Z" fill="#BF1FA1"/>
<path d="M123.885 164.78C120.815 163.63 117.355 165.46 117.355 165.46C117.355 165.46 117.355 165.44 117.365 165.42C116.725 165.53 113.425 166.25 110.945 169.24C114.965 167.01 122.925 165.54 126.305 167.77C125.665 166.51 124.865 165.44 123.885 164.78Z" fill="#BF1FA1"/>
<path d="M135.685 161.28C131.265 161.28 127.885 161.59 126.125 162.25C124.675 162.79 122.295 167.32 122.505 169.98C122.715 172.64 125.305 175.2 127.025 175.57C128.745 175.94 133.235 174.12 134.625 172.74C136.005 171.36 135.625 170.12 135.625 170.12C135.625 170.12 136.765 169.46 135.975 167.43C140.635 165.36 142.185 163.7 139.945 163.46C142.865 162.32 140.105 161.28 135.685 161.28Z" fill="#F3CAAC"/>
<path d="M138.281 163.25C137.521 163.42 130.831 164.93 130.271 165.2C130.121 165.27 130.061 165.44 130.131 165.59C130.181 165.7 130.291 165.76 130.401 165.76C130.441 165.76 130.491 165.75 130.531 165.73C130.911 165.55 135.571 164.46 138.421 163.82C138.581 163.78 138.681 163.63 138.641 163.47C138.601 163.31 138.441 163.21 138.281 163.25Z" fill="#8E602E"/>
<path d="M135.399 167.69C135.369 167.7 132.519 168.72 130.609 168.82C130.449 168.83 130.319 168.97 130.329 169.13C130.339 169.29 130.469 169.41 130.619 169.41C130.629 169.41 130.629 169.41 130.639 169.41C132.639 169.3 135.479 168.29 135.599 168.25C135.749 168.2 135.829 168.03 135.779 167.87C135.719 167.72 135.559 167.64 135.399 167.69Z" fill="#8E602E"/>
<path d="M135.142 169.95C135.132 169.96 134.202 170.88 131.752 171.43C131.592 171.47 131.492 171.62 131.532 171.78C131.562 171.92 131.682 172.01 131.822 172.01C131.842 172.01 131.862 172.01 131.882 172C134.502 171.41 135.522 170.4 135.562 170.35C135.672 170.23 135.672 170.05 135.562 169.94C135.442 169.84 135.252 169.84 135.142 169.95Z" fill="#8E602E"/>
<path d="M142.035 73.5199C133.845 71.4899 131.285 77.4799 124.565 81.5399C117.845 85.5999 123.785 90.0699 118.935 95.9399C114.085 101.81 121.115 104.5 116.955 110.44C112.795 116.38 119.415 120.37 117.535 126.14C115.655 131.91 124.805 134.12 129.635 129.07C135.155 129.17 143.595 125.66 136.985 114.85C133.025 108.37 129.345 104.16 132.695 100.69C135.515 97.7599 135.215 95.1899 135.345 91.6099C135.485 88.0299 136.475 88.7399 138.595 87.8999C142.625 86.2899 139.705 81.7099 143.275 82.3699C146.845 83.0199 147.705 79.4499 147.555 79.2499C147.555 79.2399 148.245 75.0599 142.035 73.5199Z" fill="black"/>
<path d="M133.731 92.3499C131.501 92.2399 130.171 94.0699 130.271 96.6999C130.361 99.3199 131.841 100.8 133.491 99.9999L136.451 94.7299C136.451 94.7299 135.971 92.4699 133.731 92.3499Z" fill="#F3CAAC"/>
<path d="M139.534 318.41C139.374 318.42 139.244 318.55 139.254 318.71C139.254 318.72 139.294 320.13 138.284 321.03C138.164 321.14 138.154 321.32 138.264 321.44C138.324 321.5 138.404 321.54 138.484 321.54C138.554 321.54 138.624 321.52 138.684 321.47C139.904 320.38 139.844 318.75 139.844 318.69C139.834 318.52 139.694 318.4 139.534 318.41Z" fill="white"/>
<path d="M142.555 319.3C142.395 319.28 142.255 319.4 142.235 319.56C142.235 319.58 142.045 321.35 141.055 321.96C140.915 322.04 140.875 322.23 140.955 322.36C141.015 322.45 141.105 322.5 141.205 322.5C141.255 322.5 141.315 322.49 141.355 322.46C142.595 321.69 142.805 319.7 142.815 319.62C142.825 319.46 142.715 319.32 142.555 319.3Z" fill="white"/>
<path d="M144.585 320.05C144.425 320.08 144.315 320.23 144.345 320.39C144.345 320.41 144.605 322 143.625 322.59C143.485 322.67 143.445 322.85 143.525 322.99C143.575 323.08 143.675 323.13 143.775 323.13C143.825 323.13 143.875 323.12 143.925 323.09C145.235 322.3 144.935 320.37 144.915 320.29C144.895 320.13 144.745 320.03 144.585 320.05Z" fill="white"/>
<path d="M137.234 107.78C141.004 113.18 145.644 113.99 145.644 113.99V110.5C145.644 110.5 141.904 111.72 137.234 107.78Z" fill="#E2A881"/>
<path d="M290.615 175.65C289.655 180.85 293.495 184.16 293.495 184.16L300.405 175.11L298.015 167.64C298.025 167.65 291.575 170.46 290.615 175.65Z" fill="#A78BEF"/>
<path d="M270.714 317.17C270.714 317.17 260.734 318.53 256.544 321.48C252.354 324.44 253.344 327.77 253.344 327.77H289.204L289.704 308.33L272.944 307.43L270.714 317.17Z" fill="#A78BEF"/>
<path d="M288.997 324.83L254.817 324.32C254.817 324.32 254.817 324.32 254.807 324.32C254.627 324.32 254.477 324.47 254.477 324.65C254.477 324.83 254.617 324.98 254.807 324.99L288.987 325.5C288.987 325.5 288.987 325.5 288.997 325.5C289.177 325.5 289.327 325.35 289.327 325.17C289.327 324.98 289.177 324.83 288.997 324.83Z" fill="white"/>
<path d="M269.443 317.32C269.393 317.14 269.203 317.05 269.023 317.1C268.843 317.15 268.753 317.34 268.803 317.52L269.603 320.11C269.643 320.25 269.783 320.34 269.923 320.34C269.953 320.34 269.993 320.34 270.023 320.33C270.203 320.28 270.293 320.09 270.243 319.91L269.443 317.32Z" fill="white"/>
<path d="M267.021 318.06C266.971 317.88 266.781 317.79 266.601 317.84C266.421 317.89 266.331 318.08 266.381 318.26L267.181 320.85C267.221 320.99 267.361 321.08 267.501 321.08C267.531 321.08 267.571 321.08 267.601 321.07C267.781 321.02 267.871 320.83 267.821 320.65L267.021 318.06Z" fill="white"/>
<path d="M264.997 318.62C264.947 318.44 264.757 318.35 264.577 318.4C264.397 318.45 264.307 318.64 264.357 318.82L265.157 321.41C265.197 321.55 265.337 321.64 265.477 321.64C265.507 321.64 265.547 321.64 265.577 321.63C265.757 321.58 265.847 321.39 265.797 321.21L264.997 318.62Z" fill="white"/>
<path d="M327.188 293.77L336.448 297.51C336.448 297.51 336.198 307.58 338.448 312.19C340.698 316.8 344.148 316.35 344.148 316.35L349.848 280.94L332.648 278.17L327.188 293.77Z" fill="#A78BEF"/>
<path d="M347.301 280.41C347.121 280.38 346.951 280.5 346.921 280.68L340.981 314.34C340.951 314.52 341.071 314.69 341.251 314.72C341.271 314.72 341.291 314.73 341.311 314.73C341.471 314.73 341.611 314.62 341.641 314.46L347.581 280.8C347.601 280.62 347.481 280.45 347.301 280.41Z" fill="white"/>
<path d="M339.076 298.41L336.386 298.79C336.206 298.82 336.076 298.98 336.106 299.17C336.126 299.34 336.276 299.46 336.436 299.46C336.456 299.46 336.466 299.46 336.486 299.46L339.176 299.08C339.356 299.05 339.486 298.89 339.456 298.7C339.426 298.51 339.256 298.39 339.076 298.41Z" fill="white"/>
<path d="M339.427 300.91L336.737 301.29C336.557 301.32 336.427 301.48 336.457 301.67C336.477 301.84 336.627 301.96 336.787 301.96C336.807 301.96 336.817 301.96 336.837 301.96L339.527 301.58C339.707 301.55 339.837 301.39 339.807 301.2C339.777 301.01 339.607 300.89 339.427 300.91Z" fill="white"/>
<path d="M339.646 303.01L336.956 303.39C336.776 303.42 336.646 303.58 336.676 303.77C336.696 303.94 336.846 304.06 337.006 304.06C337.026 304.06 337.036 304.06 337.056 304.06L339.746 303.68C339.926 303.65 340.056 303.49 340.026 303.3C339.996 303.11 339.836 302.99 339.646 303.01Z" fill="black"/>
<g opacity="0.33">
<path d="M317.511 212.87H322.071C322.071 212.87 319.441 195.99 319.111 194.34C316.481 206.72 317.511 212.87 317.511 212.87Z" fill="#636363"/>
</g>
<path d="M292.722 182.97C292.712 182.99 291.742 184.78 290.812 187.28C289.952 189.59 288.932 193 289.012 196.11L289.732 196.09C289.592 190.34 293.322 183.38 293.362 183.31L292.722 182.97Z" fill="black"/>
<path d="M293.922 183.16C293.932 183.28 294.512 194.78 298.482 202.53L299.122 202.2C295.232 194.59 294.652 183.24 294.642 183.13L293.922 183.16Z" fill="black"/>
<path d="M375.944 312.85C374.174 315.15 366.854 319.26 367.284 322.61C367.714 325.97 387.524 324.23 389.184 322.15C390.844 320.07 392.064 316.4 392.064 316.4C392.064 316.4 391.424 323.17 391.704 323.43C391.984 323.69 394.464 323.27 394.464 323.27L394.894 293.16H377.434C377.434 293.17 377.724 310.55 375.944 312.85Z" fill="#A78BEF"/>
<path d="M403.592 312.85C401.882 315.15 394.842 319.26 395.252 322.61C395.662 325.97 414.742 324.23 416.342 322.15C417.942 320.07 419.122 316.4 419.122 316.4C419.122 316.4 418.502 323.17 418.782 323.43C419.052 323.69 421.442 323.27 421.442 323.27L421.862 293.16H405.042C405.022 293.17 405.292 310.55 403.592 312.85Z" fill="#A78BEF"/>
<path d="M309.842 147.86C308.482 143.3 304.382 145.11 304.922 149.68L296.612 141.68C296.612 141.68 293.942 138.69 293.022 139.02C292.102 139.35 287.692 143.12 287.582 143.25C287.472 143.38 282.002 147.99 282.002 147.99L281.992 152.79C281.992 152.79 283.342 171.84 293.622 171.73L298.172 188.49L313.632 183.25L306.402 156C306.402 156 311.472 153.3 309.842 147.86Z" fill="#F3CAAC"/>
<path d="M293.617 171.72L295.547 178.84C299.007 174.83 298.867 168.97 298.867 168.97C297.297 171.4 293.617 171.72 293.617 171.72Z" fill="#E5B593"/>
<path d="M308.763 255.9C307.523 255.9 296.733 256.73 296.733 256.73L294.523 271.94L329.223 299.59L336.823 273.18L317.883 260.87C317.893 260.88 310.013 255.9 308.763 255.9Z" fill="black"/>
<path d="M352.031 267.61L360.441 326.65L360.831 326.58L352.421 267.54L352.031 267.61Z" fill="#00231C"/>
<path d="M352.673 267.2L351.703 267.36L360.153 326.69L360.193 326.98L361.163 326.82L352.713 267.5L352.673 267.2Z" fill="#00231C"/>
<path d="M322.531 267.544L312.797 326.579L313.192 326.644L322.926 267.609L322.531 267.544Z" fill="#00231C"/>
<path d="M312.542 326.53L312.492 326.82L313.462 326.98L323.172 267.65L323.222 267.37L322.252 267.21L312.542 326.53Z" fill="#00231C"/>
<path d="M317.119 267.95C317.119 270.95 326.619 273.39 338.339 273.39C350.059 273.39 359.559 270.95 359.559 267.95V260.15H317.109V267.95H317.119Z" fill="#BF1FA1"/>
<path d="M338.353 254.71C326.633 254.71 317.133 257.14 317.133 260.15C317.133 263.15 326.633 265.59 338.353 265.59C350.073 265.59 359.573 263.16 359.573 260.15C359.573 257.15 350.073 254.71 338.353 254.71Z" fill="#E527BB"/>
<path d="M358.16 303.32H316.75V303.72H358.16V303.32Z" fill="#00231C"/>
<path d="M358.461 303.03H316.461V304.02H358.461V303.03Z" fill="#00231C"/>
<path d="M284.297 215.81L298.287 233.98L310.637 211.97L295.907 185.11L284.297 215.81Z" fill="#E2B08F"/>
<path d="M294.974 225.73C291.154 223.35 267.284 200.98 267.284 200.98C267.284 200.98 261.584 195.28 260.494 195.33C259.404 195.38 261.484 200.31 261.484 200.31C261.484 200.31 255.414 194.5 252.874 194.35C250.334 194.19 250.174 201.66 254.114 205.55C258.054 209.44 263.084 211.04 263.084 211.04L283.614 239.78C283.614 239.78 288.684 242.56 294.524 239.35C300.364 236.13 298.794 228.11 294.974 225.73Z" fill="#E2B08F"/>
<path d="M315.403 171.84C319.133 168.66 315.513 162.71 310.563 164.44C305.503 166.22 295.433 175.92 293.973 181.65C290.663 194.62 297.213 239.72 297.213 239.72H357.153C357.153 239.72 340.143 191.19 333.653 179.16C327.153 167.14 315.403 171.84 315.403 171.84Z" fill="#A78BEF"/>
<path d="M284.011 239.72C276.341 240.55 276.611 247.12 276.611 247.12L267.281 309.33L292.371 310.57L299.841 263.5C299.841 263.5 325.351 264.12 340.901 263.5C356.451 262.88 356.041 239.72 356.041 239.72H284.011Z" fill="black"/>
<g opacity="0.83">
<path d="M276.626 247.12L276.336 249.05H354.956C355.766 245.63 355.976 242.52 356.036 240.9H280.166C276.456 243.02 276.626 247.12 276.626 247.12Z" fill="#00453C"/>
</g>
<path d="M351.975 239.47H325.055V239.98H351.975V239.47Z" fill="white"/>
<path d="M351.974 239.14L325.054 239.15C324.974 239.15 324.884 239.18 324.824 239.24C324.764 239.3 324.734 239.38 324.734 239.47V239.98C324.734 240.16 324.874 240.3 325.054 240.3L351.974 240.29C352.154 240.29 352.294 240.15 352.294 239.97V239.46C352.294 239.38 352.264 239.29 352.204 239.23C352.134 239.18 352.054 239.14 351.974 239.14Z" fill="black"/>
<path d="M297.211 252.25L299.591 263.56L300.091 263.45L297.711 252.15L297.211 252.25Z" fill="#00231C"/>
<path d="M292.432 261.892L292.32 262.389L298.321 263.737L298.433 263.24L292.432 261.892Z" fill="#00231C"/>
<path d="M331.431 212.97L280.401 213.88L267.281 227.26C267.281 227.26 269.201 229.23 274.491 229.7C279.781 230.17 285.441 222.7 285.441 222.7C285.441 222.7 319.381 229.77 326.711 230.67C334.041 231.57 341.461 233.5 342.561 223.13C343.671 212.76 331.431 212.97 331.431 212.97Z" fill="#F3CAAC"/>
<path d="M279.343 222.007L273.328 227.19L273.661 227.576L279.676 222.393L279.343 222.007Z" fill="black"/>
<path d="M276.184 221.405L270.07 226.901L270.411 227.28L276.525 221.784L276.184 221.405Z" fill="black"/>
<path d="M252.836 196.52L259.566 201.39L259.876 200.98L253.136 196.1L252.836 196.52Z" fill="black"/>
<path d="M252.616 200.458L252.297 200.855L257.589 205.109L257.909 204.712L252.616 200.458Z" fill="black"/>
<path d="M294.844 182.3L294.894 182.81C309.364 181.5 314.734 173.79 314.784 173.71L314.364 173.42C314.304 173.5 309.054 181.01 294.844 182.3Z" fill="black"/>
<path d="M305.171 138.52C305.171 138.52 307.091 135.3 304.071 132.01C301.051 128.72 295.161 133.74 295.161 133.74C295.161 133.74 294.011 127.97 287.901 127.83C281.791 127.7 280.941 136.8 280.941 136.8C280.941 136.8 276.341 134.09 272.461 138.36C268.581 142.63 274.241 147.45 274.241 147.45C269.971 151.14 272.561 157.93 279.511 156.18C286.461 154.43 287.061 146.4 287.061 146.4C290.401 150.92 295.831 145.32 295.831 145.32C296.981 151.81 304.891 149.67 304.891 149.67C305.931 142.59 308.901 146 308.901 146C313.691 143.36 305.171 138.52 305.171 138.52Z" fill="black"/>
<path d="M306.361 148.52C305.241 149.17 305.071 151.21 305.071 151.3C305.061 151.38 305.121 151.45 305.201 151.46L305.321 151.47H305.331C305.371 151.47 305.401 151.46 305.431 151.43C305.461 151.4 305.481 151.37 305.481 151.33C305.481 151.31 305.651 149.41 306.571 148.88C307.441 148.38 308.211 149.22 308.251 149.26C308.301 149.32 308.391 149.32 308.451 149.27L308.541 149.2C308.601 149.15 308.611 149.06 308.561 149C308.301 148.68 307.351 147.94 306.361 148.52Z" fill="#8E602E"/>
<path d="M305.728 149.36C305.688 149.36 305.648 149.37 305.618 149.4C305.588 149.43 305.578 149.47 305.578 149.51V149.62C305.578 149.69 305.638 149.76 305.708 149.76C305.708 149.76 305.718 149.76 305.728 149.76C305.878 149.76 306.658 149.8 307.118 150.26C307.358 150.5 307.478 150.81 307.478 151.2C307.478 151.24 307.498 151.28 307.518 151.3C307.548 151.33 307.578 151.34 307.618 151.34H307.738C307.778 151.34 307.818 151.32 307.838 151.3C307.858 151.28 307.878 151.23 307.878 151.2C307.878 150.7 307.708 150.28 307.398 149.97C306.818 149.4 305.908 149.36 305.728 149.36Z" fill="#8E602E"/>
<path d="M435.433 133.72C432.233 140.31 431.273 142.48 431.273 142.48L437.023 143.86C437.023 143.86 438.843 142.08 442.793 140.91C446.743 139.74 449.343 136.84 447.203 132.5C445.063 128.16 438.633 127.13 435.433 133.72Z" fill="black"/>
<path d="M433.183 138.38C431.753 141.38 431.273 142.47 431.273 142.47L437.023 143.85C437.023 143.85 437.613 143.28 438.843 142.57C438.163 141.69 436.293 139.56 433.183 138.38Z" fill="#A78BEF"/>
<path d="M467.65 175.93C466.36 170.7 465.89 168.43 459.61 164.91C451.38 160.29 446.28 159.17 442.03 150.44C437.78 141.71 432.32 138.15 423.6 137.75C413.72 137.29 410.24 147.4 410.24 147.4C408.46 152.34 409.64 155.08 406.78 156.58C406.78 156.58 398.56 161.61 395.44 172.76C390.29 191.28 403.78 203.74 409.03 199.29C414.27 194.84 413.45 196.4 431.54 207.9C449.62 219.4 473.4 204.11 473.32 187.18C473.28 180.44 467.65 175.93 467.65 175.93Z" fill="black"/>
<path d="M435.481 155.89C432.651 155.9 431.551 159.14 431.551 159.14C431.551 159.14 428.221 158.18 426.981 154.5C425.741 150.82 425.231 147.08 422.651 145.66C420.061 144.24 418.631 146.99 418.631 146.99C418.631 146.99 417.291 145.61 415.751 145.91C414.211 146.21 414.091 148.84 414.091 148.84C414.091 148.84 413.071 161.99 414.101 166.49C415.121 170.99 420.771 172.14 420.771 172.14C420.771 172.14 421.891 176.67 418.191 182.44C414.491 188.21 421.001 192.92 421.001 192.92H425.101C430.471 192.93 435.531 190.28 436.401 179.63C431.341 177.48 433.061 165.84 433.061 165.84C433.061 165.84 436.521 165.09 438.441 161.93C440.371 158.75 438.311 155.88 435.481 155.89Z" fill="#F3CAAC"/>
<path d="M435.481 155.89C432.651 155.9 431.551 159.14 431.551 159.14C431.551 159.14 431.541 159.14 431.531 159.13C432.281 161.17 432.661 163.38 432.591 165.69C432.741 165.76 432.901 165.83 433.051 165.9C433.061 165.85 433.061 165.83 433.061 165.83C433.061 165.83 436.521 165.08 438.441 161.92C440.371 158.75 438.311 155.88 435.481 155.89Z" fill="#F3CAAC"/>
<path d="M434.628 157.44C433.068 158.25 432.697 161.08 432.688 161.2L432.857 161.22C432.857 161.19 433.227 158.36 434.707 157.59C436.167 156.83 437.357 158.29 437.367 158.31L437.497 158.21C437.477 158.18 436.218 156.61 434.628 157.44Z" fill="black"/>
<path d="M433.549 158.63L433.539 158.8C433.549 158.8 434.899 158.86 435.659 159.69C436.029 160.09 436.199 160.61 436.169 161.23L436.339 161.24C436.369 160.57 436.179 160.01 435.779 159.58C434.979 158.7 433.609 158.64 433.549 158.63Z" fill="black"/>
<path d="M439.953 264.08L450.253 324.53L450.593 324.48L440.303 264.02L439.953 264.08Z" fill="#00231C"/>
<path d="M440.539 263.68L439.609 263.84L449.999 324.87L450.929 324.72L440.589 263.97L440.539 263.68Z" fill="#00231C"/>
<path d="M407.102 264.05C407.102 267.04 416.562 269.46 428.232 269.46C439.902 269.46 449.362 267.03 449.362 264.05V256.28H407.102V264.05Z" fill="#BF1FA1"/>
<path d="M428.232 250.87C416.562 250.87 407.102 253.29 407.102 256.28C407.102 259.27 416.562 261.69 428.232 261.69C439.902 261.69 449.362 259.27 449.362 256.28C449.372 253.29 439.912 250.87 428.232 250.87Z" fill="#E527BB"/>
<path d="M405.432 236.5L383.572 237C383.572 237 376.262 237.5 375.942 246.41C375.622 255.31 374.742 292.49 374.742 292.49H396.902L401.202 257.17L402.692 291.77L423.842 292.49L423.082 258.8L438.622 258.66C438.622 258.66 445.612 259.72 446.002 253.37C446.382 247.05 446.002 237 446.002 237L405.432 236.5Z" fill="black"/>
<g opacity="0.83">
<path d="M377.442 240.89C376.622 242.22 376.032 244.01 375.942 246.4C375.912 247.11 375.892 248 375.852 249.04H446.142C446.182 246.17 446.152 243.18 446.102 240.89H377.442Z" fill="#00453C"/>
</g>
<path d="M449.93 182.61C447.89 176.3 442.85 176.41 442.85 176.41L433.58 176.1C433.29 181.55 428.62 193.88 423.68 191.8C418.74 189.73 420.54 176.77 420.54 176.77C405.15 174.83 400.93 183.18 400.93 183.18L394.07 199.41L409.46 203.54L407.21 236.45L451.38 237L441.21 198.41L454.16 194.96C454.16 194.96 451.97 188.91 449.93 182.61Z" fill="#A78BEF"/>
<path d="M454.16 194.96L441.21 198.41L446.47 218.7L417.68 219.3L418.2 232.77L454.16 232.75C466.91 233.56 462.24 220.44 462.24 220.44L454.16 194.96Z" fill="#F3CAAC"/>
<path d="M407.82 225.66L409.46 203.54L394.11 199.28L386.03 224.75C386.03 224.75 382.18 235.43 394.11 234.79L430.2 234.82L425.98 226.24L407.82 225.66Z" fill="#F3CAAC"/>
<path d="M396.143 289.83H375.463C374.113 289.83 373.023 290.92 373.023 292.27V292.74C373.023 294.09 374.113 295.18 375.463 295.18H396.143C397.493 295.18 398.583 294.09 398.583 292.74V292.27C398.593 290.92 397.493 289.83 396.143 289.83Z" fill="black"/>
<path d="M423.636 289.83H402.956C401.606 289.83 400.516 290.92 400.516 292.27V292.74C400.516 294.09 401.606 295.18 402.956 295.18H423.636C424.986 295.18 426.076 294.09 426.076 292.74V292.27C426.086 290.92 424.986 289.83 423.636 289.83Z" fill="black"/>
<path d="M409.524 192.258L409.227 203.514L409.696 203.527L409.994 192.27L409.524 192.258Z" fill="#0C5442"/>
<path d="M440.992 198.46L446.252 218.76L446.702 218.64L441.442 198.35L440.992 198.46Z" fill="#0C5442"/>
<path d="M387.166 297.56H379.936C379.466 297.56 379.086 297.94 379.086 298.41C379.086 298.88 379.466 299.26 379.936 299.26H387.166C387.636 299.26 388.016 298.88 388.016 298.41C388.006 297.94 387.626 297.56 387.166 297.56Z" fill="white"/>
<path d="M386.932 300.99H379.702C379.232 300.99 378.852 301.37 378.852 301.84C378.852 302.31 379.232 302.69 379.702 302.69H386.932C387.402 302.69 387.782 302.31 387.782 301.84C387.772 301.37 387.392 300.99 386.932 300.99Z" fill="white"/>
<path d="M386.932 304.42H379.702C379.232 304.42 378.852 304.8 378.852 305.27C378.852 305.74 379.232 306.12 379.702 306.12H386.932C387.402 306.12 387.782 305.74 387.782 305.27C387.772 304.8 387.392 304.42 386.932 304.42Z" fill="white"/>
<path d="M415.205 296.42H407.975C407.505 296.42 407.125 296.8 407.125 297.27C407.125 297.74 407.505 298.12 407.975 298.12H415.205C415.675 298.12 416.055 297.74 416.055 297.27C416.055 296.8 415.675 296.42 415.205 296.42Z" fill="white"/>
<path d="M415.205 299.63H407.975C407.505 299.63 407.125 300.01 407.125 300.48C407.125 300.95 407.505 301.33 407.975 301.33H415.205C415.675 301.33 416.055 300.95 416.055 300.48C416.055 300 415.675 299.63 415.205 299.63Z" fill="white"/>
<path d="M414.791 303.06H407.561C407.091 303.06 406.711 303.44 406.711 303.91C406.711 304.38 407.091 304.76 407.561 304.76H414.791C415.261 304.76 415.641 304.38 415.641 303.91C415.631 303.43 415.251 303.06 414.791 303.06Z" fill="white"/>
<path d="M73.9141 228.92L74.0241 293.45C74.0241 293.45 74.2341 288.37 74.1341 281.22C74.0441 274.07 73.9141 228.92 73.9141 228.92Z" fill="#1D634C"/>
<path d="M74.2172 228.92C74.2172 228.75 74.0872 228.62 73.9172 228.62C73.7472 228.62 73.6172 228.76 73.6172 228.92C73.6172 229.37 73.7472 274.15 73.8472 281.22C73.9372 288.28 73.7372 293.38 73.7372 293.43C73.7272 293.6 73.8572 293.74 74.0272 293.74H74.0372C74.1972 293.74 74.3272 293.61 74.3372 293.45C74.3372 293.4 74.5472 288.28 74.4472 281.21C74.3472 274.15 74.2172 229.37 74.2172 228.92Z" fill="#1D634C"/>
<path d="M83.4363 246.21C83.2863 246.14 83.1063 246.2 83.0363 246.35C82.9862 246.45 78.2963 256.47 78.1963 274.34C78.1062 292.16 78.1963 293.42 78.1963 293.47C78.2063 293.63 78.3363 293.74 78.4963 293.74C78.5063 293.74 78.5162 293.74 78.5162 293.74C78.6762 293.73 78.8063 293.58 78.7963 293.42C78.7963 293.37 78.7063 291.94 78.7963 274.35C78.8863 256.63 83.5263 246.71 83.5763 246.61C83.6563 246.46 83.5863 246.28 83.4363 246.21Z" fill="#1D634C"/>
<path d="M85.6137 259.04C85.4537 259.01 85.2937 259.12 85.2637 259.28C85.2237 259.48 81.7237 279.13 83.0237 292.02C83.0437 292.17 83.1737 292.29 83.3237 292.29C83.3337 292.29 83.3437 292.29 83.3537 292.29C83.5237 292.27 83.6437 292.13 83.6237 291.96C82.3337 279.15 85.8237 259.59 85.8637 259.39C85.8837 259.22 85.7737 259.07 85.6137 259.04Z" fill="#1D634C"/>
<path d="M69.665 266.43C69.495 266.44 69.375 266.58 69.375 266.74L70.555 293.01C70.565 293.17 70.695 293.3 70.855 293.3H70.865C71.035 293.29 71.155 293.15 71.155 292.99L69.975 266.72C69.975 266.55 69.825 266.42 69.665 266.43Z" fill="#1D634C"/>
<path d="M58.3537 212.53L47.3237 213.23C47.2237 213.24 47.1337 213.29 47.0837 213.37C47.0337 213.45 47.0237 213.56 47.0637 213.65C47.1937 213.94 50.1937 220.84 54.5437 224.66C54.6037 224.71 54.6737 224.73 54.7437 224.73C54.7537 224.73 54.7637 224.73 54.7837 224.73C54.8637 224.72 54.9437 224.67 54.9937 224.6C57.5337 220.98 58.2837 215.69 58.5637 213.7C58.6037 213.4 58.6437 213.12 58.6737 212.99C58.6937 212.97 58.7037 212.95 58.7137 212.92C58.7537 212.81 58.7237 212.68 58.6437 212.6C58.5637 212.55 58.4537 212.51 58.3537 212.53Z" fill="#1D634C"/>
<path d="M88.2471 251.19C88.2471 251.19 81.7971 249.68 83.6571 259.32C85.5171 268.96 91.3671 279.65 107.917 279.69C108.377 270.82 109.077 265.81 105.987 259.71C102.907 253.61 87.7271 245.44 88.2471 251.19Z" fill="#4FC610"/>
<path d="M95.3475 230.265C81.6775 232.295 83.0375 246.845 83.0375 246.845C88.6775 248.495 91.6975 242.605 97.6575 243.905C103.617 245.205 111.507 244.225 118.197 238.555C118.207 238.555 109.017 228.235 95.3475 230.265Z" fill="#4FC610"/>
<path d="M73.3844 235.37C73.3844 235.37 66.8644 228.92 62.2344 238C57.6044 247.08 59.7444 260.12 61.7744 264.26C63.8044 268.4 67.9144 271.24 68.2644 271.31C68.6144 271.38 76.2944 263.07 79.5544 253.64C82.8144 244.2 79.9744 231.93 73.3844 235.37Z" fill="#4FC610"/>
<path d="M70.8237 210.55C62.9037 204.17 56.2437 206.66 47.0938 213.28C47.0938 213.28 53.5838 215.52 58.2038 220.12C62.8338 224.71 73.4937 228.74 73.9137 228.92C73.9137 228.92 78.7537 216.93 70.8237 210.55Z" fill="#4FC610"/>
<path d="M44.2238 232.13C36.2638 235.28 30.4538 244.63 34.1438 254.71C46.1438 253.03 55.4838 246.93 59.9438 242.89C64.3938 238.85 62.7438 234.96 60.8538 231.13C60.8438 231.13 52.1838 228.98 44.2238 232.13Z" fill="#4FC610"/>
<path d="M117.506 237.74C117.416 237.68 108.875 231.3 97.5655 231.87C86.1155 232.45 83.2855 244.56 83.2655 244.68C83.2255 244.87 83.3455 245.06 83.5355 245.1C83.5655 245.11 83.5855 245.11 83.6155 245.11C83.7755 245.11 83.9255 245 83.9555 244.83C83.9855 244.71 86.6955 233.12 97.6055 232.57C108.645 232.01 116.996 238.23 117.086 238.3C117.246 238.42 117.465 238.39 117.576 238.23C117.695 238.08 117.666 237.86 117.506 237.74Z" fill="#1D634C"/>
<path d="M110.932 240.47C105.232 237.51 99.3222 232.25 99.2622 232.2C99.1422 232.09 98.9522 232.1 98.8422 232.22C98.7322 232.34 98.7422 232.53 98.8622 232.64C98.9222 232.69 104.892 237.99 110.652 240.99C110.692 241.01 110.742 241.02 110.792 241.02C110.902 241.02 111.002 240.96 111.062 240.86C111.132 240.73 111.072 240.55 110.932 240.47Z" fill="#1D634C"/>
<path d="M96.0656 241.72C92.8956 240.81 88.5656 236.41 88.5256 236.37C88.4056 236.25 88.2156 236.25 88.1056 236.37C87.9856 236.49 87.9856 236.68 88.1056 236.79C88.2856 236.98 92.5856 241.35 95.9156 242.3C95.9456 242.31 95.9756 242.31 95.9956 242.31C96.1256 242.31 96.2456 242.22 96.2856 242.09C96.3156 241.93 96.2256 241.77 96.0656 241.72Z" fill="#1D634C"/>
<path d="M67.3931 213.89C60.7031 207.43 54.5731 208.41 54.3231 208.45C54.1631 208.48 54.0531 208.63 54.0831 208.8C54.1131 208.96 54.2631 209.07 54.4331 209.04C54.4931 209.03 60.5131 208.06 66.9831 214.32C73.4631 220.58 73.5231 228.51 73.5231 228.59C73.5231 228.76 73.6531 228.89 73.8231 228.89C73.9931 228.89 74.1231 228.76 74.1231 228.59C74.1131 228.51 74.0631 220.33 67.3931 213.89Z" fill="#1D634C"/>
<path d="M70.1553 218.11C70.1153 218.13 66.1953 219.84 61.3153 220.76C61.1553 220.79 61.0453 220.95 61.0753 221.11C61.1053 221.25 61.2253 221.35 61.3653 221.35C61.3853 221.35 61.4053 221.35 61.4253 221.34C66.3753 220.4 70.3553 218.66 70.3953 218.65C70.5452 218.58 70.6153 218.41 70.5453 218.25C70.4753 218.11 70.3053 218.04 70.1553 218.11Z" fill="#1D634C"/>
<path d="M59.8953 209.65C59.8353 209.67 54.1053 211.2 49.9953 211.23C49.8253 211.23 49.6953 211.37 49.6953 211.53C49.6953 211.7 49.8353 211.83 49.9953 211.83C54.1753 211.8 59.9853 210.24 60.0453 210.23C60.2053 210.19 60.3053 210.02 60.2553 209.86C60.2253 209.71 60.0553 209.61 59.8953 209.65Z" fill="#1D634C"/>
<path d="M66.1762 207.45C66.0162 207.47 65.8962 207.62 65.9162 207.78C66.1362 209.6 66.0162 213.24 66.0162 213.28C66.0062 213.45 66.1362 213.58 66.3062 213.59H66.3162C66.4762 213.59 66.6062 213.46 66.6162 213.3C66.6262 213.15 66.7462 209.58 66.5162 207.71C66.4862 207.55 66.3362 207.43 66.1762 207.45Z" fill="#1D634C"/>
<path d="M73.4258 235.07C73.2658 235.05 73.1158 235.17 73.0958 235.33C73.0958 235.35 72.9058 236.85 72.4258 239.36C71.9758 241.68 71.1758 245.37 69.9158 249.71C67.4658 258.1 68.1358 270.55 68.1458 270.67C68.1558 270.83 68.2858 270.95 68.4458 270.95C68.4558 270.95 68.4558 270.95 68.4658 270.95C68.6358 270.94 68.7558 270.8 68.7458 270.63C68.7358 270.51 68.0758 258.15 70.4958 249.87C71.7658 245.5 72.5758 241.8 73.0258 239.46C73.5158 236.92 73.7058 235.4 73.7058 235.39C73.7058 235.24 73.5858 235.09 73.4258 235.07Z" fill="#1D634C"/>
<path d="M80.2612 247.31C76.8912 245.02 73.2812 239.35 73.2512 239.29C73.1612 239.15 72.9812 239.11 72.8412 239.2C72.7012 239.29 72.6612 239.47 72.7512 239.61C72.9012 239.85 76.4612 245.44 79.9312 247.8C79.9812 247.84 80.0412 247.85 80.1012 247.85C80.2012 247.85 80.2912 247.8 80.3512 247.72C80.4312 247.59 80.3912 247.41 80.2612 247.31Z" fill="#1D634C"/>
<path d="M76.4877 259.1C73.3577 256.55 70.5077 250 70.4777 249.93C70.4077 249.78 70.2377 249.71 70.0877 249.77C69.9377 249.84 69.8677 250.01 69.9277 250.16C70.0477 250.43 72.8677 256.92 76.1077 259.56C76.1677 259.61 76.2277 259.63 76.2977 259.63C76.3877 259.63 76.4677 259.59 76.5277 259.52C76.6277 259.39 76.6077 259.2 76.4877 259.1Z" fill="#1D634C"/>
<path d="M69.3602 253.1C69.2202 253.01 69.0402 253.04 68.9402 253.18C68.9102 253.23 65.5402 258.21 61.4002 259.96C61.2502 260.03 61.1802 260.2 61.2402 260.35C61.2902 260.46 61.4002 260.53 61.5202 260.53C61.5602 260.53 61.6002 260.52 61.6402 260.51C65.9402 258.68 69.3002 253.72 69.4402 253.51C69.5302 253.38 69.5002 253.19 69.3602 253.1Z" fill="#1D634C"/>
<path d="M72.021 240.1C71.961 240.15 66.291 245.02 60.471 246.48C60.311 246.52 60.211 246.68 60.251 246.84C60.281 246.98 60.411 247.07 60.541 247.07C60.561 247.07 60.591 247.07 60.611 247.06C66.561 245.57 72.351 240.6 72.401 240.55C72.531 240.44 72.541 240.25 72.431 240.13C72.341 240.01 72.151 240 72.021 240.1Z" fill="#1D634C"/>
<path d="M60.0635 231.12C59.9735 231.16 51.0935 235.18 44.6935 240.61C38.3535 245.99 34.5535 253.68 34.5135 253.75C34.4435 253.9 34.5035 254.08 34.6535 254.15C34.6935 254.17 34.7435 254.18 34.7835 254.18C34.8935 254.18 35.0035 254.12 35.0535 254.01C35.0935 253.93 38.8435 246.35 45.0835 241.06C51.4135 235.69 60.2235 231.7 60.3135 231.66C60.4635 231.59 60.5335 231.41 60.4635 231.26C60.3935 231.12 60.2135 231.05 60.0635 231.12Z" fill="#1D634C"/>
<path d="M54.5422 234.67C54.5522 234.5 54.4222 234.36 54.2522 234.36C54.0822 234.36 53.9422 234.48 53.9422 234.65C53.9322 234.95 53.6322 242.02 54.4822 245.71C54.5122 245.85 54.6422 245.94 54.7722 245.94C54.7922 245.94 54.8122 245.94 54.8422 245.93C55.0022 245.89 55.1022 245.73 55.0722 245.57C54.2322 241.95 54.5322 234.74 54.5422 234.67Z" fill="#1D634C"/>
<path d="M44.9055 240.82C44.7455 240.77 44.5755 240.87 44.5355 241.03C44.5255 241.07 43.2655 245.57 43.9255 252.05C43.9455 252.2 44.0755 252.32 44.2255 252.32C44.2355 252.32 44.2455 252.32 44.2555 252.32C44.4255 252.3 44.5455 252.16 44.5255 251.99C43.8755 245.63 45.0955 241.24 45.1155 241.19C45.1555 241.04 45.0655 240.87 44.9055 240.82Z" fill="#1D634C"/>
<path d="M52.6619 234.97C52.6119 234.96 47.2719 233.57 39.4419 234.66C39.2819 234.68 39.1619 234.83 39.1819 235C39.2019 235.16 39.3519 235.28 39.5219 235.26C47.2319 234.19 52.4519 235.55 52.5019 235.56C52.5319 235.57 52.5519 235.57 52.5819 235.57C52.7119 235.57 52.8319 235.48 52.8719 235.35C52.9119 235.17 52.8219 235.01 52.6619 234.97Z" fill="#1D634C"/>
<path d="M42.8804 242.16C42.5904 242.21 35.7004 243.39 33.1904 245.63C33.0704 245.74 33.0604 245.93 33.1704 246.05C33.2304 246.12 33.3104 246.15 33.3904 246.15C33.4604 246.15 33.5304 246.12 33.5904 246.07C35.9704 243.95 42.9104 242.76 42.9804 242.74C43.1404 242.71 43.2504 242.56 43.2304 242.39C43.2004 242.24 43.0404 242.13 42.8804 242.16Z" fill="#1D634C"/>
<path d="M106.381 276.2C104.381 272.17 101.041 265.42 96.0212 260.8C92.6012 257.65 90.7712 255.19 89.8412 253.68C88.8912 252.14 88.6812 251.28 88.6812 251.27C88.6412 251.11 88.4812 251.01 88.3212 251.04C88.1612 251.08 88.0612 251.24 88.0912 251.4C88.1012 251.44 88.3112 252.35 89.3312 253.99C90.2812 255.53 92.1412 258.04 95.6112 261.24C100.541 265.78 103.861 272.47 105.831 276.46C106.491 277.78 106.961 278.74 107.301 279.23C107.361 279.31 107.451 279.36 107.551 279.36C107.611 279.36 107.671 279.34 107.721 279.31C107.861 279.21 107.891 279.03 107.791 278.89C107.491 278.44 107.001 277.45 106.381 276.2Z" fill="#1D634C"/>
<path d="M101.903 254.69C97.0934 253.2 90.2034 253.55 89.9134 253.57C89.7434 253.58 89.6234 253.72 89.6334 253.89C89.6434 254.06 89.7834 254.18 89.9534 254.17C90.0234 254.17 97.0234 253.81 101.733 255.27C101.763 255.28 101.793 255.28 101.823 255.28C101.953 255.28 102.073 255.2 102.113 255.07C102.143 254.9 102.053 254.74 101.903 254.69Z" fill="#1D634C"/>
<path d="M108.156 265.44C104.296 262.31 97.9662 262.3 97.7062 262.32C97.5362 262.32 97.4062 262.46 97.4062 262.62C97.4062 262.79 97.5462 262.92 97.7062 262.92C97.7662 262.92 104.076 262.91 107.766 265.91C107.826 265.96 107.886 265.98 107.956 265.98C108.046 265.98 108.126 265.94 108.186 265.87C108.306 265.73 108.286 265.55 108.156 265.44Z" fill="#1D634C"/>
<path d="M99.5747 264.91C99.4147 264.86 99.2447 264.94 99.1947 265.1C99.0947 265.41 96.6447 272.73 96.5547 277.22C96.5547 277.39 96.6847 277.52 96.8447 277.53C96.8447 277.53 96.8447 277.53 96.8547 277.53C97.0147 277.53 97.1547 277.4 97.1547 277.24C97.2547 272.84 99.7447 265.37 99.7647 265.3C99.8147 265.14 99.7247 264.97 99.5747 264.91Z" fill="#1D634C"/>
<path d="M90.7834 255.51C90.6234 255.46 90.4534 255.55 90.4034 255.7C90.3934 255.73 89.4534 258.62 88.7634 262.4C88.0634 266.19 88.5234 270.43 88.5234 270.48C88.5434 270.63 88.6734 270.75 88.8234 270.75C88.8334 270.75 88.8434 270.75 88.8534 270.75C89.0234 270.73 89.1334 270.58 89.1234 270.42C89.1234 270.38 88.6734 266.22 89.3534 262.52C90.0434 258.79 90.9634 255.93 90.9734 255.9C91.0234 255.73 90.9334 255.56 90.7834 255.51Z" fill="#1D634C"/>
<path d="M63.7744 324.89H88.1244L94.7044 294.57L57.7344 295.35L63.7744 324.89Z" fill="#F71414"/>
<g opacity="0.35">
<path d="M80.2441 325.68L87.2741 325.92L93.3741 295.17V294.94H79.9141L80.2441 325.68Z" fill="#E3623D"/>
</g>
<path d="M95.5803 290.37H57.0003C55.3803 290.37 54.0703 291.68 54.0703 293.3V293.59C54.0703 295.21 55.3803 296.52 57.0003 296.52H95.5803C97.2003 296.52 98.5103 295.21 98.5103 293.59V293.3C98.5103 291.68 97.2003 290.37 95.5803 290.37Z" fill="#F71414"/>
<path d="M62.865 328.7H89.265L93.375 324.05H59.125L62.865 328.7Z" fill="black"/>
<path d="M250.765 227.89L241.505 197.99C241.245 197.16 240.485 196.6 239.615 196.6L204.575 196.62C203.215 196.62 202.265 197.96 202.715 199.24L213.665 230.77H276.715L276.245 228.68L250.765 227.89Z" fill="#E527BB"/>
<path d="M250.765 227.89L241.425 197.72C241.215 197.06 240.605 196.61 239.915 196.61H238.555L248.785 230.78H276.725L276.255 228.69L250.765 227.89Z" fill="#BF1FA1"/>
<path d="M225.312 207.97C223.082 208.37 221.642 210.81 222.112 213.43C222.582 216.05 224.762 217.85 227.002 217.45C229.232 217.05 230.672 214.61 230.202 211.99C229.732 209.37 227.552 207.57 225.312 207.97Z" fill="white"/>
<path d="M412.973 228.07L403.283 196.78L366.553 196.8C365.313 196.8 364.443 198.02 364.853 199.2L375.883 230.96H438.933L438.473 228.86L412.973 228.07Z" fill="#E527BB"/>
<path d="M412.97 227.89L403.66 197.82C403.44 197.09 402.76 196.6 402 196.6H400.75L410.98 230.77H438.92L438.45 228.68L412.97 227.89Z" fill="#BF1FA1"/>
<path d="M387.523 208.15C385.293 208.55 383.853 210.99 384.323 213.61C384.793 216.23 386.973 218.03 389.213 217.63C391.443 217.23 392.883 214.79 392.413 212.17C391.943 209.56 389.753 207.75 387.523 208.15Z" fill="white"/>
<path d="M466.137 230.77H199.727V242.1H466.137V230.77Z" fill="#F7CAB9"/>
<path d="M466.137 233.95H199.727V242.1H466.137V233.95Z" fill="#F7CAB9"/>
<path d="M246.223 242.1H239.023V328.73H246.223V242.1Z" fill="#AA4729"/>
<path d="M433.943 242.1H428.523V328.7H433.943V242.1Z" fill="#AA4729"/>
<path d="M94.3166 68.26H88.0766C80.0166 68.26 73.4766 74.8 73.4766 82.86V84.18C73.4766 92.24 80.0166 98.78 88.0766 98.78H90.9066L99.9366 102.5L96.7266 98.58C103.637 97.43 108.907 91.42 108.907 84.18V82.86C108.917 74.79 102.377 68.26 94.3166 68.26Z" fill="#E527BB"/>
<path d="M100.693 86.7301C101.554 86.7301 102.253 86.0317 102.253 85.1701C102.253 84.3085 101.554 83.6101 100.693 83.6101C99.8313 83.6101 99.1328 84.3085 99.1328 85.1701C99.1328 86.0317 99.8313 86.7301 100.693 86.7301Z" fill="white"/>
<path d="M90.9662 83.6101C90.1062 83.6101 89.4062 84.3101 89.4062 85.1701C89.4062 86.0301 90.1062 86.7301 90.9662 86.7301C91.8262 86.7301 92.5262 86.0301 92.5262 85.1701C92.5262 84.3101 91.8262 83.6101 90.9662 83.6101Z" fill="white"/>
<path d="M81.2475 83.6101C80.3875 83.6101 79.6875 84.3101 79.6875 85.1701C79.6875 86.0301 80.3875 86.7301 81.2475 86.7301C82.1075 86.7301 82.8075 86.0301 82.8075 85.1701C82.8075 84.3101 82.1075 83.6101 81.2475 83.6101Z" fill="white"/>
<path d="M486.652 90.7901H482.892C482.132 90.6801 481.352 90.6201 480.562 90.6201H461.092C460.302 90.6201 459.522 90.6801 458.762 90.7901H453.912C447.052 90.7901 441.492 96.3501 441.492 103.21V112.46C441.492 119.32 447.052 124.88 453.912 124.88H458.172L454.792 129.01L466.642 124.88H486.662C493.522 124.88 499.082 119.32 499.082 112.46V103.21C499.072 96.3501 493.512 90.7901 486.652 90.7901Z" fill="#A78BEF"/>
<path d="M491.312 98.9001H450.602C450.362 98.9001 450.172 99.0901 450.172 99.3301C450.172 99.5701 450.362 99.7601 450.602 99.7601H491.312C491.552 99.7601 491.742 99.5701 491.742 99.3301C491.742 99.0901 491.552 98.9001 491.312 98.9001Z" fill="white"/>
<path d="M491.312 118.59H450.602C450.362 118.59 450.172 118.78 450.172 119.02C450.172 119.26 450.362 119.45 450.602 119.45H491.312C491.552 119.45 491.742 119.26 491.742 119.02C491.742 118.78 491.552 118.59 491.312 118.59Z" fill="white"/>
<path d="M469.132 112.58H450.602C450.362 112.58 450.172 112.77 450.172 113.01C450.172 113.25 450.362 113.44 450.602 113.44H469.122C469.362 113.44 469.552 113.25 469.552 113.01C469.562 112.77 469.362 112.58 469.132 112.58Z" fill="white"/>
<path d="M477.522 105.69H450.602C450.362 105.69 450.172 105.88 450.172 106.12C450.172 106.36 450.362 106.55 450.602 106.55H477.522C477.762 106.55 477.952 106.36 477.952 106.12C477.952 105.88 477.762 105.69 477.522 105.69Z" fill="white"/>
<path d="M491.075 105.72H482.375C482.135 105.72 481.945 105.91 481.945 106.15C481.945 106.39 482.135 106.58 482.375 106.58H491.075C491.315 106.58 491.505 106.39 491.505 106.15C491.505 105.91 491.315 105.72 491.075 105.72Z" fill="white"/>
<path d="M400.874 242.53C400.754 242.53 400.664 242.63 400.664 242.75L400.994 257.17C400.994 257.29 401.094 257.38 401.204 257.38C401.324 257.38 401.414 257.28 401.414 257.16L401.084 242.74C401.084 242.62 400.974 242.51 400.874 242.53Z" fill="#00231C"/>
</g>
<defs>
<clipPath id="clip0_1915_5330">
<rect width="466.07" height="295.99" fill="white" transform="translate(33 34)"/>
</clipPath>
</defs>
</svg>
