<svg width="543" height="329" viewBox="0 0 543 329" fill="none" xmlns="http://www.w3.org/2000/svg">
<g clip-path="url(#clip0_1600_5881)">
<path opacity="0.2" d="M78.788 327.839C41.4882 290.535 -9.49424 252.012 10.4949 193.818C23.6478 155.541 55.8804 144.88 82.6859 121.276C95.9087 109.631 87.5932 92.6757 87.3433 75.8481C86.7836 32.7513 139.135 -0.687543 187.269 0.010739C239.401 0.768031 261.969 48.9102 305.705 51.4968C322.876 51.7426 338.257 42.4781 353.449 35.1314C398.465 13.3371 469.906 27.2339 473.514 79.9296C474.444 108.392 439.183 154.174 474.514 169.143C502.668 181.072 531.113 185.469 536.19 228.133C542.837 283.976 507.716 314.621 461.971 329L78.788 327.839Z" fill="#999999"/>
<path d="M319.922 174.533V50.6653L221.777 50.6653L221.777 174.533H319.922Z" stroke="#004144" stroke-width="0.5" stroke-miterlimit="10" stroke-linecap="round" stroke-linejoin="round"/>
<path d="M225.279 171.024H316.406V54.1827L225.279 54.1827V171.024Z" fill="white"/>
<path d="M304.708 86.564H298.336V159.942H304.708V86.564Z" fill="#E527BB"/>
<path d="M294.942 108.975H288.57V159.95H294.942V108.975Z" fill="#A78BEF"/>
<path d="M285.177 104.976H278.805V159.942H285.177V104.976Z" fill="#A78BEF"/>
<path d="M275.411 93.5896H269.039V159.942H275.411V93.5896Z" fill="#E527BB"/>
<path d="M265.645 78.3643H259.273V159.951H265.645V78.3643Z" fill="#E527BB"/>
<path d="M255.88 70.9775H249.508V159.942H255.88V70.9775Z" fill="#E527BB"/>
<path d="M246.106 111.129H239.734V159.942H246.106V111.129Z" fill="#A78BEF"/>
<path d="M305.035 77.2917L322.094 79.7141L324.516 62.6552L307.457 60.2328L305.035 77.2917Z" fill="#A78BEF"/>
<path d="M219.526 64.0866L236.547 61.4126L233.873 44.3916L216.852 47.0656L219.526 64.0866Z" fill="#E527BB"/>
<path d="M197.279 100.196C195.544 102.343 194.177 103.919 194.789 105.52C195.401 107.122 194.043 110.249 196.147 112.689C198.26 115.128 196.08 118.826 199.484 120.033C202.888 121.232 205.077 118.826 205.077 118.826C205.077 118.826 199.518 97.4379 197.279 100.196Z" fill="black"/>
<path d="M191.872 303.756L191.109 313.909L207.735 315.929C207.735 315.929 209.647 312.081 204.692 309.356C199.737 306.631 199.779 303.89 199.779 303.89L191.872 303.756Z" fill="#A78BEF"/>
<path d="M204.721 309.381C199.548 309.289 199.473 313.741 199.473 313.741L191.047 311.863L191.106 313.909C192.707 314.68 196.706 315.703 200.37 316.122C203.464 316.474 206.046 316.214 207.731 315.929C207.924 315.468 208.427 314.076 207.748 312.45C207.329 311.427 206.44 310.337 204.721 309.381Z" fill="#7854D2"/>
<path d="M195.659 303.823C195.659 303.823 195.214 308.384 200.22 311.167" stroke="#00192F" stroke-width="0.5" stroke-miterlimit="10" stroke-linecap="round" stroke-linejoin="round"/>
<path d="M197.906 309.415C197.906 309.415 200.74 307.587 202.601 308.006" stroke="#00192F" stroke-width="0.5" stroke-miterlimit="10" stroke-linecap="round" stroke-linejoin="round"/>
<path d="M196.711 307.47C196.711 307.47 199.486 306.003 201.037 306.531" stroke="#00192F" stroke-width="0.5" stroke-miterlimit="10" stroke-linecap="round" stroke-linejoin="round"/>
<path d="M195.812 305.524L200.055 304.979" stroke="#00192F" stroke-width="0.5" stroke-miterlimit="10" stroke-linecap="round" stroke-linejoin="round"/>
<path d="M242.786 303.756L242.023 313.909L258.649 315.929C258.649 315.929 260.561 312.081 255.606 309.356C250.651 306.631 250.693 303.89 250.693 303.89L242.786 303.756Z" fill="#A78BEF"/>
<path d="M255.636 309.381C250.462 309.289 250.387 313.741 250.387 313.741L241.961 311.863L242.02 313.909C243.621 314.68 247.62 315.703 251.284 316.122C254.378 316.474 256.96 316.214 258.645 315.929C258.838 315.468 259.341 314.076 258.662 312.45C258.251 311.427 257.363 310.337 255.636 309.381Z" fill="#7854D2"/>
<path d="M251.134 311.167C246.128 308.384 246.573 303.823 246.573 303.823" stroke="#00192F" stroke-width="0.5" stroke-miterlimit="10" stroke-linecap="round" stroke-linejoin="round"/>
<path d="M248.82 309.415C248.82 309.415 251.654 307.587 253.515 308.006" stroke="#00192F" stroke-width="0.5" stroke-miterlimit="10" stroke-linecap="round" stroke-linejoin="round"/>
<path d="M247.633 307.47C247.633 307.47 250.408 306.003 251.951 306.531" stroke="#00192F" stroke-width="0.5" stroke-miterlimit="10" stroke-linecap="round" stroke-linejoin="round"/>
<path d="M246.719 305.524L250.961 304.979" stroke="#00192F" stroke-width="0.5" stroke-miterlimit="10" stroke-linecap="round" stroke-linejoin="round"/>
<path d="M238.43 157.837L235.906 167.798" stroke="#00192F" stroke-width="0.5" stroke-miterlimit="10" stroke-linecap="round" stroke-linejoin="round"/>
<path d="M231.273 159.976C234.61 171.034 239.951 178.446 244.956 173.231C250.8 167.144 236.899 152.564 236.899 152.564L231.273 159.976Z" fill="#FAC795"/>
<path d="M204.492 193.655L229.569 252.688L238.28 305.239H253.414L247.453 254.532L232.395 193.822L219.366 193.479L204.492 193.655Z" fill="black"/>
<path d="M192.727 197.268V252.688L188.711 305.407H203.836L211.742 254.532L214.685 216.242H218.165V197.268H192.727Z" fill="black"/>
<path d="M214.68 216.242L218.159 214.8L219.366 202.693" stroke="#00192F" stroke-width="0.5" stroke-miterlimit="10" stroke-linecap="round" stroke-linejoin="round"/>
<path d="M202.296 197.52C202.296 197.52 206.513 209.333 195.664 208.419" stroke="#00192F" stroke-width="0.5" stroke-miterlimit="10" stroke-linecap="round" stroke-linejoin="round"/>
<path d="M195.669 196.388C195.669 196.388 196.071 255.563 195.669 261.575C195.267 267.586 193.648 297.417 193.648 297.417" stroke="#00192F" stroke-width="0.5" stroke-miterlimit="10" stroke-linecap="round" stroke-linejoin="round"/>
<path d="M189.156 297.417H204.751" stroke="#00192F" stroke-width="0.5" stroke-miterlimit="10" stroke-linecap="round" stroke-linejoin="round"/>
<path d="M227.164 196.388C227.164 196.388 229.512 206.918 235.464 206.164" stroke="#00192F" stroke-width="0.5" stroke-miterlimit="10" stroke-linecap="round" stroke-linejoin="round"/>
<path d="M237.312 297.543L252.454 297.057" stroke="#00192F" stroke-width="0.5" stroke-miterlimit="10" stroke-linecap="round" stroke-linejoin="round"/>
<path d="M188.82 132.559C188.82 132.559 208.976 119.865 228.025 130.413C230.909 174.84 232.183 192.816 232.183 192.816C227.387 195.155 225.887 196.01 223.07 196.27C214.459 197.075 211.818 193.722 202.109 194.946C199.208 195.306 192.769 196.446 192.769 196.446H195.419L188.82 132.559Z" fill="#A78BEF"/>
<path d="M188.815 177.641L189.067 167.144L179.198 164.251C179.198 164.251 178.15 175.033 178.888 179.385C180.179 186.989 188.236 187.199 188.815 177.641Z" fill="#FAC795"/>
<path d="M219.528 127.219C219.528 127.219 229.907 127.269 234.368 137.162C238.828 147.055 243.129 160.118 243.129 160.118C243.129 160.118 240.824 164.151 230.914 164.872C225.514 149.235 219.201 134.622 219.528 127.219Z" fill="#E527BB"/>
<path d="M198.638 128.082C212.665 148.883 210.628 173.893 211.617 198.568C209.051 198.09 206.217 197.771 202.118 198.308C199.217 198.685 192.778 199.884 192.778 199.884L188.82 132.559C188.82 132.559 192.694 130.153 198.638 128.082Z" fill="#E527BB"/>
<path d="M219.033 126.766C222.001 127.512 225.967 128.862 228.96 130.757C231.844 177.348 234.728 196.162 234.728 196.162C229.932 198.618 225.883 199.423 223.074 199.691C221.59 199.834 220.299 199.842 219.1 199.775C218.706 175.444 215.906 151.105 219.033 126.766Z" fill="#E527BB"/>
<path d="M194.176 129.893C194.176 129.893 179.311 132.584 178.926 147.114C178.632 158.148 176.922 170.825 176.922 170.825C176.922 170.825 180.175 174.078 189.909 172.049C191.15 155.473 196.373 136.944 194.176 129.893Z" fill="#E527BB"/>
<mask id="mask0_1600_5881" style="mask-type:luminance" maskUnits="userSpaceOnUse" x="176" y="126" width="68" height="74">
<path d="M216.537 126.414C216.445 128.501 217.116 131.218 218.247 134.404C216.478 156.194 218.75 177.985 219.094 199.783C220.293 199.85 221.584 199.842 223.068 199.7C225.877 199.423 229.927 198.626 234.722 196.17C234.722 196.17 233.28 186.78 231.419 164.847C240.893 164.025 243.123 160.135 243.123 160.135C243.123 160.135 238.822 147.072 234.362 137.179C233.104 134.379 231.126 132.308 228.946 130.773C225.508 128.35 221.551 127.26 219.044 126.791C219.036 126.791 219.027 126.791 219.027 126.782C217.518 126.481 216.537 126.414 216.537 126.414ZM176.922 170.825C176.922 170.825 180.175 174.078 189.909 172.049C190.093 169.558 190.37 167.026 190.705 164.494L192.785 199.876C192.785 199.876 199.224 198.685 202.125 198.299C206.225 197.763 209.058 198.081 211.624 198.559C210.635 173.893 212.672 148.883 198.645 128.074C196.876 128.686 195.3 129.331 193.942 129.935C192.064 130.346 179.286 133.649 178.934 147.106C178.632 158.139 176.922 170.825 176.922 170.825Z" fill="white"/>
</mask>
<g mask="url(#mask0_1600_5881)">
<path d="M238.84 148.07C238.84 148.07 237.951 151.767 234.732 154.039C233.885 151.029 233.885 151.029 233.885 151.029C233.885 151.029 230.816 156.756 226.155 156.529C226.415 153.209 226.415 153.209 226.415 153.209L220.219 153.687L224.075 148.061L221.091 145.278C221.091 145.278 222.818 142.285 227.161 143.19C223.313 140.272 223.313 140.272 223.313 140.272C223.313 140.272 228.1 137.179 231.806 140.272C229.366 137.212 229.366 137.212 229.366 137.212L234.371 137.154" fill="#E527BB"/>
<path d="M190.507 131.05C190.507 131.05 196.863 135.276 197.424 139.057C194.423 139.258 194.423 139.258 194.423 139.258L197.374 144.976L193.652 145.655L194.255 153.167L188.37 149.504L185.812 152.572L182.501 146.385L181.637 147.936L178.971 143.425C178.962 143.433 175.374 125.634 190.507 131.05Z" fill="#E527BB"/>
<path d="M176.02 162.147L183.575 159.162V162.692L188.01 163.287L183.902 165.635L188.37 168.158L182.493 169.231L183.843 173.625L174.461 174.002L176.02 162.147Z" fill="#E527BB"/>
<path d="M233.88 167.244C233.15 167.261 227.759 163.782 224.079 164.704C224.95 168.536 226.149 170.078 226.149 170.078C226.149 170.078 221.806 169.072 219.375 170.078C221.312 172.543 226.149 175.1 226.149 175.1C226.149 175.1 221.924 177.045 220.213 178.538C222.402 180.919 227.164 179.519 227.164 179.519C227.164 179.519 226.795 180.584 226.149 183.208C229.503 184.558 233.88 179.93 233.88 179.93" fill="#E527BB"/>
<path d="M216.404 194.854C215.968 194.267 215.675 187.861 212.79 185.396C210.175 188.331 209.613 190.2 209.613 190.2C209.613 190.2 207.911 186.075 205.681 184.675C204.8 187.685 205.521 193.11 205.521 193.11C205.521 193.11 201.489 190.796 199.275 190.268C198.604 193.428 202.503 196.497 202.503 196.497C202.503 196.497 201.422 196.816 198.906 197.805C199.753 201.326 206.058 202.198 206.058 202.198" fill="#E527BB"/>
<path d="M209.373 150.904C208.719 151.231 202.355 150.409 199.429 152.815C201.869 155.901 203.613 156.781 203.613 156.781C203.613 156.781 199.253 157.737 197.492 159.69C200.301 161.082 205.767 161.317 205.767 161.317C205.767 161.317 202.791 164.889 201.885 166.968C204.879 168.175 208.584 164.872 208.584 164.872C208.584 164.872 208.71 165.987 209.255 168.645C212.869 168.427 214.822 162.365 214.822 162.365" fill="#E527BB"/>
<path d="M239.148 198.417C238.745 197.813 238.795 191.391 236.054 188.775C233.287 191.567 232.616 193.403 232.616 193.403C232.616 193.403 231.141 189.194 228.986 187.677C227.938 190.636 228.374 196.086 228.374 196.086C228.374 196.086 224.475 193.562 222.295 192.917C221.457 196.036 225.18 199.314 225.18 199.314C225.18 199.314 224.081 199.574 221.516 200.429C222.17 203.984 228.424 205.2 228.424 205.2" fill="#E527BB"/>
</g>
<path d="M229.164 146.385C229.164 146.385 231.252 161.225 231.486 165.635" stroke="#00192F" stroke-width="0.5" stroke-miterlimit="10" stroke-linecap="round" stroke-linejoin="round"/>
<path d="M190.345 167.446C190.278 166.892 193.246 153.905 191.745 148.959" stroke="#00192F" stroke-width="0.5" stroke-miterlimit="10" stroke-linecap="round" stroke-linejoin="round"/>
<path d="M201.338 127.428C200.944 127.789 200.734 128.191 200.734 128.61C200.734 130.287 204.197 131.645 208.465 131.645C212.732 131.645 216.195 130.287 216.195 128.61C216.195 127.914 215.599 127.277 214.602 126.766" stroke="#00192F" stroke-width="0.5" stroke-miterlimit="10" stroke-linecap="round" stroke-linejoin="round"/>
<path d="M202.093 118.65L201.984 128.107C202.194 128.325 207.082 131.721 214.317 128.988C214.401 124.947 214.485 120.914 214.561 116.873L202.093 118.65Z" fill="#FAC795"/>
<path d="M242.545 158.416C242.545 158.416 233.624 162.91 231.227 162.272" stroke="#00192F" stroke-width="0.5" stroke-miterlimit="10" stroke-linecap="round" stroke-linejoin="round"/>
<path d="M190.127 169.533C190.127 169.533 182.246 170.833 177.039 168.133" stroke="#00192F" stroke-width="0.5" stroke-miterlimit="10" stroke-linecap="round" stroke-linejoin="round"/>
<path d="M203.609 165.987C205.856 163.254 208.615 161.996 211.926 161.166C214.333 160.563 216.06 161.208 211.39 163.103" fill="#FAC795"/>
<path d="M211.384 163.103C221.084 159.724 216.037 163.48 213.689 164.352C218.427 162.742 219.793 163.79 214.939 165.878C219.081 164.344 219.039 166.18 215.442 167.655C219.793 166.549 217.898 168.636 215.09 169.827C211.384 171.403 205.884 172.879 205.884 172.879C205.884 172.879 190.742 183.158 185.083 185.136C184.907 185.195 181.595 185.581 180.111 183.543C178.585 181.439 179.34 177.163 183.003 174.732L203.603 165.987" fill="#FAC795"/>
<path d="M209.477 163.882L212.336 162.692" stroke="#00192F" stroke-width="0.5" stroke-miterlimit="10" stroke-linecap="round" stroke-linejoin="round"/>
<path d="M212.523 164.855L214.921 163.967" stroke="#00192F" stroke-width="0.5" stroke-miterlimit="10" stroke-linecap="round" stroke-linejoin="round"/>
<path d="M213.516 166.171L215.478 165.635" stroke="#00192F" stroke-width="0.5" stroke-miterlimit="10" stroke-linecap="round" stroke-linejoin="round"/>
<path d="M214.242 168.276L215.785 167.504" stroke="#00192F" stroke-width="0.5" stroke-miterlimit="10" stroke-linecap="round" stroke-linejoin="round"/>
<path d="M182.492 175.294L194.255 169.953" stroke="#00192F" stroke-width="0.5" stroke-miterlimit="10" stroke-linecap="round" stroke-linejoin="round"/>
<path d="M238.302 163.531C236.189 166.255 235.863 170.246 237.749 173.34C240.097 177.188 244.331 175.671 245.798 172.946L260.135 146.687C258.257 145.379 256.521 143.769 254.844 142.176L238.302 163.531Z" fill="#FAC795"/>
<path d="M257.962 141.446C270.764 131.461 263.898 140.625 261.651 140.826C263.747 140.642 263.638 142.084 262.674 142.385C264.007 142.31 263.94 143.811 262.959 144.196C263.797 144.121 264.3 144.809 262.892 146.309C261.886 147.382 261.139 147.642 259.689 148.506C258.113 149.445 256.059 148.866 255.027 147.181L254.533 146.376C253.694 145.01 253.845 143.325 254.709 142.059C255.841 140.398 257.87 137.933 259.035 138.219C260.209 138.504 257.962 141.446 257.962 141.446Z" fill="#FAC795"/>
<path d="M262.959 144.196C261.232 144.23 259.723 144.901 260.427 146.007C261.131 147.114 263.051 145.471 261.576 145.261" stroke="#00192F" stroke-width="0.5" stroke-miterlimit="10" stroke-linecap="round" stroke-linejoin="round"/>
<path d="M262.817 142.327C261.342 142.109 258.374 143.66 260.428 144.557" stroke="#00192F" stroke-width="0.5" stroke-miterlimit="10" stroke-linecap="round" stroke-linejoin="round"/>
<path d="M262.323 140.692C260.152 140.566 257.947 142.998 260.143 142.931" stroke="#00192F" stroke-width="0.5" stroke-miterlimit="10" stroke-linecap="round" stroke-linejoin="round"/>
<path d="M257.968 141.447C257.968 141.447 259.351 143.467 257.523 144.968" stroke="#00192F" stroke-width="0.5" stroke-miterlimit="10" stroke-linecap="round" stroke-linejoin="round"/>
<path d="M216.296 98.7795C216.916 100.909 218.559 101.32 217.998 103.475C217.436 105.629 219.851 106.652 218.04 109.193C216.229 111.733 200.341 112.421 200.525 104.498C200.709 96.5745 216.296 98.7795 216.296 98.7795Z" fill="black"/>
<path d="M207.303 99.5759C201.853 100.431 197.871 104.657 200.721 114.122C203.572 123.597 208.208 125.039 212.618 124.024C217.028 123.01 218.781 120.134 217.758 112.496C216.743 104.858 216.542 98.117 207.303 99.5759Z" fill="#FAC795"/>
<path d="M201.124 112.739C195.02 108.832 199.346 121.685 203.362 118.566L201.124 112.739Z" fill="#FAC795"/>
<path d="M201.885 116.26C201.885 116.26 204.954 109.234 203.495 106.761C202.036 104.288 207.771 106.426 207.972 103.667C208.174 100.909 215.317 105.369 215.979 102.804C216.642 100.238 220.146 98.3602 216.86 96.6582C213.581 94.9562 212.852 90.9905 209.951 93.6566C207.058 96.3228 205.558 91.8037 203.512 94.6627C201.466 97.5217 195.874 94.9478 196.176 101.999C196.318 105.386 198.741 104.883 198.406 106.074C196.88 111.473 199.856 114.265 201.885 116.26Z" fill="black"/>
<path d="M199.969 103.441C200.237 103.634 203.071 104.892 204.06 103.517C205.041 102.133 206.793 101.706 207.473 102.192" stroke="#00192F" stroke-width="0.5" stroke-miterlimit="10" stroke-linecap="round" stroke-linejoin="round"/>
<path d="M203.609 99.4586C203.609 99.4586 205.546 101.219 207.776 99.8275C210.006 98.4357 212.01 98.9052 212.245 100.331" stroke="#00192F" stroke-width="0.5" stroke-miterlimit="10" stroke-linecap="round" stroke-linejoin="round"/>
<path d="M205.727 96.893C205.727 96.893 209.969 94.3609 211.704 97.0942" stroke="#00192F" stroke-width="0.5" stroke-miterlimit="10" stroke-linecap="round" stroke-linejoin="round"/>
<path d="M209.766 97.7228C209.766 97.7228 212.683 98.6031 213.061 97.1694" stroke="#00192F" stroke-width="0.5" stroke-miterlimit="10" stroke-linecap="round" stroke-linejoin="round"/>
<path d="M214.477 98.7964C214.477 98.7964 216.053 100.079 215.743 101.781" stroke="#00192F" stroke-width="0.5" stroke-miterlimit="10" stroke-linecap="round" stroke-linejoin="round"/>
<path d="M198.297 99.6178C198.716 99.5508 199.982 96.5744 202.782 98.5698" stroke="#00192F" stroke-width="0.5" stroke-miterlimit="10" stroke-linecap="round" stroke-linejoin="round"/>
<path d="M210.086 94.3945C210.086 94.3945 212.107 93.8663 213.255 95.8115" stroke="#00192F" stroke-width="0.5" stroke-miterlimit="10" stroke-linecap="round" stroke-linejoin="round"/>
<path d="M211.047 101.797C211.047 101.797 213.889 103.307 213.763 101.345" stroke="#00192F" stroke-width="0.5" stroke-miterlimit="10" stroke-linecap="round" stroke-linejoin="round"/>
<path d="M198.844 102.385C199.665 102.25 201.476 101.58 202.617 102.393" stroke="#00192F" stroke-width="0.5" stroke-miterlimit="10" stroke-linecap="round" stroke-linejoin="round"/>
<path d="M199.282 104.263C199.282 104.263 197.932 106.325 199.223 107.952" stroke="#00192F" stroke-width="0.5" stroke-miterlimit="10" stroke-linecap="round" stroke-linejoin="round"/>
<path d="M197.375 101.42C197.375 101.42 198.985 100.029 200.561 100.892" stroke="#00192F" stroke-width="0.5" stroke-miterlimit="10" stroke-linecap="round" stroke-linejoin="round"/>
<path d="M196.814 107.549C196.814 107.549 195.691 108.555 196.471 109.989" stroke="#00192F" stroke-width="0.5" stroke-miterlimit="10" stroke-linecap="round" stroke-linejoin="round"/>
<path d="M198.539 109.235C198.539 109.235 197.608 110.618 198.287 110.979" stroke="#00192F" stroke-width="0.5" stroke-miterlimit="10" stroke-linecap="round" stroke-linejoin="round"/>
<path d="M200.406 109.478C200.406 109.478 201.521 111.264 201.228 113.158" stroke="#00192F" stroke-width="0.5" stroke-miterlimit="10" stroke-linecap="round" stroke-linejoin="round"/>
<path d="M196.707 103.064C196.707 103.064 196.12 104.866 196.925 106.023" stroke="#00192F" stroke-width="0.5" stroke-miterlimit="10" stroke-linecap="round" stroke-linejoin="round"/>
<path d="M206.688 122.875C208.909 124.058 211.207 124.225 213.059 123.831" stroke="#00192F" stroke-width="0.5" stroke-miterlimit="10" stroke-linecap="round" stroke-linejoin="round"/>
<path d="M195.539 129.256C196.05 131.855 198.733 134.119 198.733 134.119L200.729 132.576L204.485 139.057" stroke="#00192F" stroke-width="0.5" stroke-miterlimit="10" stroke-linecap="round" stroke-linejoin="round"/>
<path d="M218.102 138.026C218.387 137.791 221.573 130.195 221.573 130.195L223.769 131L224.079 128.091" stroke="#00192F" stroke-width="0.5" stroke-miterlimit="10" stroke-linecap="round" stroke-linejoin="round"/>
<path d="M186.609 322.452C183.339 320.599 180.798 314.261 176.766 314.697C176.875 314.269 177.638 312.366 177.755 312.006C177.755 312.006 179.004 311.444 184.504 310.874C184.99 313.431 189.157 317.707 191.01 319.476C189.644 319.778 187.548 320.541 186.609 322.452Z" fill="#FFA07C"/>
<path d="M207.171 320.323C203.901 318.47 201.361 312.131 197.328 312.567C197.437 312.14 197.689 310.547 197.806 310.186C197.806 310.186 199.307 309.767 204.807 309.197C205.293 311.754 209.72 315.577 211.573 317.338C210.206 317.648 208.102 318.411 207.171 320.323Z" fill="#FFA07C"/>
<path d="M136.742 321.027H139.316L148.74 262.221H143.802L136.742 321.027Z" fill="#231F20"/>
<path d="M127.719 205.191V251.17C127.719 261.131 135.793 269.196 145.745 269.196C145.745 269.196 154.557 269.473 163.922 269.096C178.879 268.484 182.476 267.721 185.394 265.046C186.04 264.451 190.969 259.814 190.307 254.398C188.974 243.532 167.108 245.863 158.967 231.358C152.075 219.084 162.631 208.285 154.196 198.149C149.401 192.389 139.499 188.079 133.236 192.129C127.744 195.684 127.711 203.942 127.719 205.191Z" fill="#E527BB"/>
<path d="M134.203 202.022L134.228 248.948C134.228 257.324 140.709 264.107 148.699 264.107H178.648" stroke="#A294A1" stroke-width="0.5" stroke-miterlimit="10" stroke-linecap="round" stroke-linejoin="round"/>
<path d="M146.216 239.491C142.443 258.423 145.939 257.676 189.864 260.359C190.258 279.484 193.192 309.759 193.192 309.759C194.844 310.103 198.726 310.455 201.107 310.463C203.597 310.472 205.752 310.178 207.454 309.826C206.205 259.999 208.678 256.603 204.042 247.045C199.875 238.468 168.35 234.88 168.35 234.88L146.216 239.491Z" fill="black"/>
<path d="M136.919 240.581C136.374 243.331 136.508 246.098 136.96 248.596C138.017 254.465 142.754 258.968 148.64 259.915C154.852 260.913 164.033 262.078 174.06 262.346C172.82 281.269 175.176 312.249 175.176 312.249C177.498 312.66 180.323 312.978 183.526 312.953C186.243 312.936 188.657 312.685 190.72 312.341C191.256 306.338 192.003 294.961 192.489 285.034C193.118 272.382 193.218 258.657 191.139 254.365C186.972 245.788 158.709 241.344 158.709 241.344L136.919 240.581Z" fill="black"/>
<path d="M191.92 295.422C193.563 283.131 195.148 256.142 192.574 252.302C188.491 246.198 162.844 240.581 162.844 240.581" stroke="#00192F" stroke-width="0.5" stroke-miterlimit="10" stroke-linecap="round" stroke-linejoin="round"/>
<path d="M143.557 150.87C139.239 152.539 133.982 155.649 134.217 159.062C134.451 162.474 129.161 165.626 130.678 167.806C136.992 176.878 123.585 175.243 134.837 183.493C146.089 191.743 150.557 183.803 159.009 181.598C165.825 179.821 166.387 172.887 163.628 170.699C160.87 168.511 167.334 163.748 160.283 160.579C157.793 159.447 161.163 145.077 143.557 150.87Z" fill="black"/>
<path d="M136.055 236.791C140.104 240.816 167.227 239.198 170.572 233.404C164.242 217.114 168.258 190.125 164.645 185.204C161.668 181.146 157.485 180.525 156.889 180.525C150.249 180.509 145.37 180.986 138.872 182.294C138.193 182.429 135.677 184.717 133.732 189.211C131.318 194.804 134.353 199.306 136.558 208.16C137.975 213.777 138.704 223.092 136.055 236.791Z" fill="#E527BB"/>
<path d="M136.617 187.14C144.884 190.536 156.831 187.518 162.004 183.124" stroke="white" stroke-width="0.5" stroke-miterlimit="10" stroke-linecap="round" stroke-linejoin="round"/>
<path d="M137.133 193.068C145.4 196.464 157.347 193.445 162.52 189.052" stroke="white" stroke-width="0.5" stroke-miterlimit="10" stroke-linecap="round" stroke-linejoin="round"/>
<path d="M137.633 198.996C145.9 202.391 157.847 199.373 163.02 194.979" stroke="white" stroke-width="0.5" stroke-miterlimit="10" stroke-linecap="round" stroke-linejoin="round"/>
<path d="M138.148 204.915C146.415 208.31 158.363 205.292 163.536 200.899" stroke="white" stroke-width="0.5" stroke-miterlimit="10" stroke-linecap="round" stroke-linejoin="round"/>
<path d="M138.641 210.842C146.907 214.238 158.855 211.22 164.028 206.826" stroke="white" stroke-width="0.5" stroke-miterlimit="10" stroke-linecap="round" stroke-linejoin="round"/>
<path d="M139.156 216.77C147.423 220.166 159.37 217.147 164.544 212.754" stroke="white" stroke-width="0.5" stroke-miterlimit="10" stroke-linecap="round" stroke-linejoin="round"/>
<path d="M139.672 222.689C147.939 226.085 159.886 223.067 165.059 218.673" stroke="white" stroke-width="0.5" stroke-miterlimit="10" stroke-linecap="round" stroke-linejoin="round"/>
<path d="M140.172 228.617C148.439 232.012 160.386 228.994 165.559 224.601" stroke="white" stroke-width="0.5" stroke-miterlimit="10" stroke-linecap="round" stroke-linejoin="round"/>
<path d="M140.688 234.544C148.954 237.94 160.902 234.922 166.075 230.528" stroke="white" stroke-width="0.5" stroke-miterlimit="10" stroke-linecap="round" stroke-linejoin="round"/>
<path d="M167.589 185.321C164.906 180.944 161.502 180.869 160.99 180.852C160.605 180.844 157.939 180.609 157.561 180.601L165.669 236.506C169.098 237.479 172.896 238.728 173.776 236.8C167.916 219.319 170.842 190.636 167.589 185.321ZM128.837 189.37C127.68 195.86 132.124 200.689 134.589 210.121C136.156 216.108 136.919 226.06 133.708 240.732C135.377 242.258 140.919 243.457 150.099 242.962C149.471 230.344 150.057 224.198 147.66 199.23C146.243 190.435 146.528 185.849 143.048 181.506C141.874 181.682 140.147 181.967 137.967 182.37C137.808 182.403 137.666 182.428 137.523 182.453C136.735 182.613 129.852 183.661 128.837 189.37Z" fill="#A78BEF"/>
<path d="M141.666 167.773C142.739 174.958 145.883 179.125 150.553 178.127C158.208 176.484 157.889 173.407 157.143 166.18C155.919 154.291 152.808 153.402 148.055 153.888C143.309 154.375 140.123 157.46 141.666 167.773Z" fill="#FFA07C"/>
<path d="M144.228 181.682C152.269 184.424 156.495 195.969 156.495 195.969C156.495 195.969 155.589 182.026 154.055 180.668C153.577 176.065 153.35 173.835 152.881 169.232L143.055 170.246L144.228 181.682Z" fill="#FFA07C"/>
<path d="M153.293 177.373C152.514 177.591 152.195 177.566 151.281 177.431" stroke="#00192F" stroke-width="0.5" stroke-miterlimit="10" stroke-linecap="round" stroke-linejoin="round"/>
<path d="M140.852 168.628C141.045 170.473 142 171.889 142.998 171.789C143.987 171.688 144.641 170.104 144.449 168.259C144.256 166.415 143.3 164.998 142.302 165.098C141.313 165.199 140.667 166.784 140.852 168.628Z" fill="#FFA07C"/>
<path d="M193.791 209.509C195.602 208.042 197.253 206.717 198.578 205.896C202.368 203.565 199.853 198.375 194.587 201.905C193.271 202.794 191.821 203.599 190.328 204.345C191.561 206.03 192.776 207.715 193.791 209.509Z" fill="#FFA07C"/>
<path d="M197.278 200.823L202.46 200.287C202.46 200.287 206.71 199.792 206.945 200.589C207.18 201.385 204.782 201.503 204.782 201.503C204.782 201.503 207.943 201.494 207.524 202.274C207.104 203.045 204.883 203.062 204.883 203.062C204.883 203.062 207.197 203.112 207.364 203.666C207.532 204.219 204.656 204.471 204.656 204.471C204.656 204.471 206.811 204.219 207.029 204.948C207.247 205.678 201.336 207.573 197.06 206.256C192.776 204.923 197.278 200.823 197.278 200.823Z" fill="#FFA07C"/>
<path d="M203.328 201.637L205.919 201.352" stroke="#00192F" stroke-width="0.5" stroke-miterlimit="10" stroke-linecap="round" stroke-linejoin="round"/>
<path d="M204.055 203.238L206.075 202.953" stroke="#00192F" stroke-width="0.5" stroke-miterlimit="10" stroke-linecap="round" stroke-linejoin="round"/>
<path d="M203.93 204.73L205.791 204.319" stroke="#00192F" stroke-width="0.5" stroke-miterlimit="10" stroke-linecap="round" stroke-linejoin="round"/>
<path d="M226.226 188.542L209.242 184.697L203.076 211.934L220.06 215.779L226.226 188.542Z" fill="#846AE2"/>
<path d="M223.09 186.904L203.398 185.34L200.931 216.399L220.623 217.963L223.09 186.904Z" fill="#B71699"/>
<path d="M221.907 188.428L204.68 185.888L200.605 213.517L217.833 216.057L221.907 188.428Z" fill="white"/>
<path d="M206.067 188.272L225.241 192.858L225.77 190.544L228.955 193.479L223.975 221.599L201.078 217.575L206.067 188.272Z" fill="#A78BEF"/>
<path d="M197.112 208.092L194.018 201.838L188.367 204.504C189.507 207.748 189.482 210.909 190.614 214.146C193.347 211.136 197.112 208.092 197.112 208.092Z" fill="#E527BB"/>
<path d="M192.329 201.528L179.568 208.092C176.374 203.691 174.605 199.767 173.573 196.916C171.402 190.905 171.402 186.654 167.595 183.544C165.592 181.9 163.336 181.238 161.727 180.928C162.179 186.771 162.632 192.615 163.085 198.467C163.085 198.467 165.441 216.963 173.129 219.361C178.663 221.088 191.155 214.741 195.205 210.474C194.006 207.229 193.519 204.764 192.329 201.528Z" fill="#A78BEF"/>
<path d="M178.602 208.092L175.508 209.107" stroke="#AC290E" stroke-width="0.5" stroke-miterlimit="10" stroke-linecap="round" stroke-linejoin="round"/>
<path d="M190.062 202.693L193.123 212.301" stroke="#00192F" stroke-width="0.5" stroke-miterlimit="10" stroke-linecap="round" stroke-linejoin="round"/>
<path d="M197.43 202.97C200.079 204.554 201.546 202.945 201.873 202.156C203.785 202.852 204.674 202.089 204.749 201.637C204.825 201.184 202.687 200.27 201.404 200.404" fill="#FFA07C"/>
<path d="M197.43 202.97C200.079 204.554 201.546 202.945 201.873 202.156C203.785 202.852 204.674 202.089 204.749 201.637C204.825 201.184 202.687 200.27 201.404 200.404" stroke="#00192F" stroke-width="0.5" stroke-miterlimit="10" stroke-linecap="round" stroke-linejoin="round"/>
<path d="M169.391 199.398L170.397 218.229" stroke="#00192F" stroke-width="0.5" stroke-miterlimit="10" stroke-linecap="round" stroke-linejoin="round"/>
<path d="M152.385 157.88C152.385 157.88 150.298 161.166 144.94 161.804C142.936 162.038 145.854 167.396 144.445 169.559C142.995 171.789 144.772 178.32 142.836 178.958C140.899 179.595 139.457 172.913 137.805 167.304C136.153 161.686 139.75 150.938 148.285 150.393C156.82 149.856 157.785 154.4 158.212 158.492C158.38 159.506 154.775 160.739 152.385 157.88Z" fill="black"/>
<path d="M140.46 165.517C140.058 167.907 139.798 171.168 141.299 171.428L140.46 165.517Z" fill="#231F20"/>
<path d="M148.385 153.696C148.385 153.696 147.991 154.744 146.7 156.211C145.409 157.67 142.474 158.844 143.43 160.085" fill="#231F20"/>
<path d="M140.201 158.844C137.217 162.692 136.035 162.986 136.211 164.922C136.387 166.867 132.849 170.154 133.771 172.904" fill="#231F20"/>
<path d="M138.347 170.188C138.347 170.188 132.293 176.551 134.834 179.528L138.347 170.188Z" fill="#231F20"/>
<path d="M159.625 165.149C159.625 165.149 160.522 166.717 160.036 169.131C159.55 171.546 163.708 172.057 163.708 172.057" fill="#231F20"/>
<path d="M138.703 174.002C138.703 174.002 140.254 176.677 139.558 178.656L138.703 174.002Z" fill="#231F20"/>
<path d="M151.844 154.912C151.844 154.912 154.812 157.653 156.614 157.133L151.844 154.912Z" fill="#231F20"/>
<path d="M150.883 152.279C150.883 152.279 155.117 152.337 155.603 154.048L150.883 152.279Z" fill="#231F20"/>
<path d="M145.168 152.958C145.168 152.958 145.143 154.777 143.281 156.563L145.168 152.958Z" fill="#231F20"/>
<path d="M141.281 154.727C141.281 154.727 139.881 156.077 138.305 159.162L141.281 154.727Z" fill="#231F20"/>
<path d="M168.469 207.346C171.118 202.852 175.025 200.236 175.805 201.016C176.459 201.67 175.587 202.005 173.826 203.531" fill="#FFA07C"/>
<path d="M168.335 215.361C169.928 213.584 172.426 211.681 173.206 210.323C175.445 206.416 172.468 203.322 167.706 207.749C166.516 208.855 165.166 209.912 163.766 210.918C165.367 212.343 166.943 213.785 168.335 215.361Z" fill="#FFA07C"/>
<path d="M173.827 203.523C176.477 201.98 177.852 201.36 178.07 201.561C178.699 202.131 176.569 203.431 176.569 203.431C176.569 203.431 179.453 201.855 179.47 202.735C179.495 203.615 177.466 204.73 177.466 204.73C177.466 204.73 179.604 203.624 180.04 204.018C180.476 204.42 177.986 206.063 177.986 206.063C177.986 206.063 179.822 204.772 180.392 205.301C180.971 205.82 176.661 211.798 171.983 211.387C169.409 211.161 168.453 207.355 168.453 207.355" fill="#FFA07C"/>
<path d="M175.312 204.269L177.534 202.735" stroke="#00192F" stroke-width="0.5" stroke-miterlimit="10" stroke-linecap="round" stroke-linejoin="round"/>
<path d="M176.812 205.292L178.514 204.043" stroke="#00192F" stroke-width="0.5" stroke-miterlimit="10" stroke-linecap="round" stroke-linejoin="round"/>
<path d="M177.477 206.65L178.969 205.367" stroke="#00192F" stroke-width="0.5" stroke-miterlimit="10" stroke-linecap="round" stroke-linejoin="round"/>
<path d="M170.735 213.928L167.121 207.782L161.789 211.429C163.583 214.414 164.153 217.525 165.956 220.509C168.195 217.047 170.735 213.928 170.735 213.928Z" fill="#E527BB"/>
<path d="M164.398 209.115L154.429 216.997L144.368 192.867L131.062 195.969C131.062 195.969 138.013 222.119 143.798 227.502C154.572 237.546 165.354 221.926 169.101 217.407C167.676 214.255 165.815 212.268 164.398 209.115Z" fill="#A78BEF"/>
<path d="M134.711 208.092C137.235 215.705 140.68 224.601 143.791 227.502C145.904 229.472 148.017 230.453 150.071 230.73" stroke="#00192F" stroke-width="0.5" stroke-miterlimit="10" stroke-linecap="round" stroke-linejoin="round"/>
<path d="M154.484 216.569L152.547 217.935" stroke="#00192F" stroke-width="0.5" stroke-miterlimit="10" stroke-linecap="round" stroke-linejoin="round"/>
<path d="M162.016 211.144L167.566 219.378" stroke="#00192F" stroke-width="0.5" stroke-miterlimit="10" stroke-linecap="round" stroke-linejoin="round"/>
<path d="M228.967 193.479L206.078 188.272" stroke="#00192F" stroke-width="0.5" stroke-miterlimit="10" stroke-linecap="round" stroke-linejoin="round"/>
<path d="M160.93 199.876L163.705 188.272L161.659 185.673L162.841 184.96L160.98 180.861" stroke="#00192F" stroke-width="0.5" stroke-miterlimit="10" stroke-linecap="round" stroke-linejoin="round"/>
<path d="M147.67 200.882L142.396 189.371L143.234 187.149L141.298 185.673L140.828 181.917" stroke="#00192F" stroke-width="0.5" stroke-miterlimit="10" stroke-linecap="round" stroke-linejoin="round"/>
<path d="M219.527 320.415H216.156L225.37 238.015H231.818L219.527 320.415Z" fill="#5E1A1E"/>
<path d="M176.333 317.086C176.425 316.206 176.584 315.418 176.769 314.697C180.801 314.261 183.342 320.599 186.612 322.452C187.542 320.549 189.647 319.778 191.013 319.468C194.367 322.654 198.425 326.259 193.42 327.022C185.865 327.827 179.502 323.131 179.502 323.131L179.795 325.077C179.083 325.152 178.37 325.227 177.657 325.303C177.238 323.794 176.048 319.828 176.333 317.086Z" fill="#A78BEF"/>
<path d="M194.972 323.819C192.952 325.605 188.332 325.421 183.956 323.392C179.579 321.363 178.925 318.78 176.242 319.024" stroke="#00192F" stroke-width="0.5" stroke-miterlimit="10" stroke-linecap="round" stroke-linejoin="round"/>
<path d="M196.898 314.957C196.99 314.076 197.149 313.288 197.334 312.567C201.366 312.131 203.907 318.47 207.177 320.323C208.107 318.419 210.212 317.648 211.578 317.338C214.932 320.524 218.99 324.129 213.984 324.892C206.43 325.697 200.067 321.002 200.067 321.002L200.36 322.947C199.648 323.022 198.935 323.098 198.222 323.173C197.795 321.664 196.604 317.698 196.898 314.957Z" fill="#A78BEF"/>
<path d="M215.535 321.689C213.514 323.475 208.895 323.291 204.518 321.262C200.142 319.233 199.488 316.651 196.805 316.894" stroke="#00192F" stroke-width="0.5" stroke-miterlimit="10" stroke-linecap="round" stroke-linejoin="round"/>
<path d="M280.57 166.951L283.538 162.147L323.967 175.193L322.533 185.103C316.949 184.315 308.951 181.791 304.021 178.689C295.796 177.155 280.57 166.951 280.57 166.951Z" fill="#FFA07C"/>
<path d="M361.021 163.422C360.158 165.274 358.741 175.042 352.78 174.371C346.819 173.7 338.141 160.21 341.788 154.174C345.444 148.146 362.111 154.559 361.021 163.422Z" fill="black"/>
<path d="M359.162 321.027H356.579L347.164 262.221H352.094L359.162 321.027Z" fill="#231F20"/>
<path d="M321.531 321.027H324.114L333.537 262.221H328.599L321.531 321.027Z" fill="#231F20"/>
<path d="M289.41 308.669C291.481 307.294 294.633 306.456 294.306 309.575C296.955 309.222 300.041 308.996 302.606 308.292L303.336 315.217C303.336 315.217 295.371 319.384 285.955 319.074C283.541 318.998 281.285 319.292 280.455 317.95C279.676 316.684 280.313 314.404 281.663 313.389C282.878 312.484 283.943 313.129 285.645 312.501C286.861 312.065 288.236 311.033 289.41 308.669Z" fill="#A78BEF"/>
<path d="M285.648 312.727C285.648 312.727 292.029 312.786 292.012 316.852" stroke="#00192F" stroke-width="0.5" stroke-miterlimit="10" stroke-linecap="round" stroke-linejoin="round"/>
<path d="M300.076 314.722C300.076 314.722 299.817 310.354 302.676 309.574" stroke="#00192F" stroke-width="0.5" stroke-miterlimit="10" stroke-linecap="round" stroke-linejoin="round"/>
<path d="M281.109 317.045C285.972 317.573 297.651 317.338 302.9 313.28" stroke="#00192F" stroke-width="0.5" stroke-miterlimit="10" stroke-linecap="round" stroke-linejoin="round"/>
<path d="M306.488 311.343C308.559 309.968 311.711 309.13 311.384 312.249C314.034 311.897 317.119 311.67 319.685 310.966L320.414 317.891C320.414 317.891 312.449 322.058 303.034 321.748C300.619 321.673 298.364 321.966 297.534 320.625C296.754 319.359 297.391 317.078 298.741 316.064C299.957 315.158 301.021 315.804 302.723 315.175C303.939 314.731 305.314 313.708 306.488 311.343Z" fill="#A78BEF"/>
<path d="M302.719 315.401C302.719 315.401 309.099 315.46 309.082 319.526" stroke="#00192F" stroke-width="0.5" stroke-miterlimit="10" stroke-linecap="round" stroke-linejoin="round"/>
<path d="M317.147 317.397C317.147 317.397 316.887 313.029 319.746 312.249" stroke="#00192F" stroke-width="0.5" stroke-miterlimit="10" stroke-linecap="round" stroke-linejoin="round"/>
<path d="M298.18 319.719C303.043 320.247 314.722 320.013 319.97 315.955" stroke="#00192F" stroke-width="0.5" stroke-miterlimit="10" stroke-linecap="round" stroke-linejoin="round"/>
<path d="M368.196 205.191V251.17C368.196 261.131 360.122 269.196 350.17 269.196C350.17 269.196 341.358 269.473 331.993 269.096C317.036 268.484 313.439 267.721 310.521 265.046C309.875 264.451 304.946 259.814 305.608 254.398C306.941 243.532 328.807 245.863 336.948 231.358C343.84 219.084 333.284 208.285 341.719 198.149C346.514 192.389 358.437 188.079 364.7 192.129C370.183 195.684 368.204 203.942 368.196 205.191Z" fill="#E527BB"/>
<path d="M361.669 210.281V248.948C361.669 257.324 355.188 264.107 347.198 264.107H317.25" stroke="#A294A1" stroke-width="0.5" stroke-miterlimit="10" stroke-linecap="round" stroke-linejoin="round"/>
<path d="M357.12 233.111L359.417 242.828L323.742 243.608L326.123 233.237L357.12 233.111Z" fill="#A294A1"/>
<path d="M334.912 177.39C343.515 180.928 344.563 193.328 344.563 193.328C340.027 193.755 325.061 190.184 315 187.325C315.05 182.244 315.537 176.325 318.815 172.56C321.808 173.575 331.995 176.191 334.912 177.39Z" fill="#A78BEF"/>
<path d="M365.579 187.165C365.579 187.165 359.425 177.683 325.637 174.556C323.079 214.204 324.991 235.307 324.991 235.307C342.682 241.118 357.605 235.307 357.605 235.307L365.579 187.165Z" fill="#A78BEF"/>
<path d="M343.349 187.778C343.349 187.778 342.729 232.029 342.527 232.172C342.318 232.314 338.687 235.341 338.687 235.341L335.25 231.686L341.111 187.769H343.349V187.778Z" fill="#E527BB"/>
<path d="M354.426 171.294L353.152 181.238C353.152 181.238 349.178 182.94 346.084 182.73C342.99 182.521 341.07 180.601 341.07 180.601L342.353 169.945L354.426 171.294Z" fill="#FFA07C"/>
<path d="M329.198 223.259C327.076 223.377 325.81 224.316 330.095 224.651L329.198 223.259Z" fill="#FFA07C"/>
<path d="M330.111 224.651C321.35 224.383 326.38 226.093 328.518 226.202C324.251 226.102 323.379 227.267 327.856 227.711C324.1 227.527 324.561 228.961 327.864 229.237C324.033 229.439 326.079 230.612 328.669 230.864C332.082 231.191 336.944 230.998 336.944 230.998L361.401 233.807C365.476 234.545 370.012 231.769 369.919 227.628V202.45L358.416 202.467L358.399 223.486L337.188 225.003C334.697 223.402 332.132 223.092 329.214 223.259" fill="#FFA07C"/>
<path d="M331.867 224.794L329.234 224.567" stroke="#00192F" stroke-width="0.5" stroke-miterlimit="10" stroke-linecap="round" stroke-linejoin="round"/>
<path d="M329.594 226.32L327.414 226.211" stroke="#00192F" stroke-width="0.5" stroke-miterlimit="10" stroke-linecap="round" stroke-linejoin="round"/>
<path d="M329.087 227.594L327.352 227.661" stroke="#00192F" stroke-width="0.5" stroke-miterlimit="10" stroke-linecap="round" stroke-linejoin="round"/>
<path d="M328.997 229.438L327.547 229.212" stroke="#00192F" stroke-width="0.5" stroke-miterlimit="10" stroke-linecap="round" stroke-linejoin="round"/>
<path d="M361.679 223.57L354.703 223.511" stroke="#00192F" stroke-width="0.5" stroke-miterlimit="10" stroke-linecap="round" stroke-linejoin="round"/>
<path d="M357.899 211.161C354.654 199.029 365.579 187.166 365.579 187.166C365.579 187.166 370.391 191.198 371.113 198.669C371.372 201.368 371.481 208.621 371.54 211.304C366.552 212.377 362.762 212.016 357.899 211.161Z" fill="#A78BEF"/>
<path d="M371.439 208.436C371.439 208.436 365.184 209.744 358.125 208.847" stroke="#00192F" stroke-width="0.5" stroke-miterlimit="10" stroke-linecap="round" stroke-linejoin="round"/>
<path d="M316.258 187.677C316.258 187.677 317.029 176.811 319.913 172.904" stroke="#00192F" stroke-width="0.5" stroke-miterlimit="10" stroke-linecap="round" stroke-linejoin="round"/>
<path d="M284.29 162.466C282.722 159.825 280.501 158.349 277.725 157.15C275.713 156.278 274.103 156.555 277.91 158.86C269.928 154.543 273.785 158.466 275.713 159.556C271.806 157.477 270.456 158.156 274.397 160.646C271.001 158.726 270.767 160.269 273.693 162.063C270.046 160.47 271.404 162.508 273.684 163.941C276.694 165.828 282.127 167.697 282.127 167.697" fill="#FFA07C"/>
<path d="M276.673 160.16L274.703 159.045" stroke="#00192F" stroke-width="0.5" stroke-miterlimit="10" stroke-linecap="round" stroke-linejoin="round"/>
<path d="M275.588 161.099L273.953 160.353" stroke="#00192F" stroke-width="0.5" stroke-miterlimit="10" stroke-linecap="round" stroke-linejoin="round"/>
<path d="M274.654 162.759L273.422 161.879" stroke="#00192F" stroke-width="0.5" stroke-miterlimit="10" stroke-linecap="round" stroke-linejoin="round"/>
<path d="M353.337 179.754L342.823 181.842L341.205 179.502L339.578 179.754L339.947 184.734L342.823 183.175L344.919 185.43L354.653 181.062L353.337 179.754Z" fill="#A78BEF"/>
<path d="M344.332 184.793L343.351 187.778H341.121L340.719 184.474L342.823 183.208L344.332 184.793Z" fill="#E527BB"/>
<path d="M339.336 176.383L339.948 184.734L342.824 183.174L344.92 185.43L354.654 181.062" stroke="#00192F" stroke-width="0.5" stroke-miterlimit="10" stroke-linecap="round" stroke-linejoin="round"/>
<path d="M343.687 239.391C347.46 258.322 349.967 257.676 306.051 260.359C305.657 279.484 302.722 309.759 302.722 309.759C301.071 310.103 297.189 310.455 294.808 310.463C292.318 310.472 290.163 310.178 288.461 309.826C289.71 259.999 287.237 256.603 291.873 247.045C296.04 238.468 327.565 234.88 327.565 234.88L343.687 239.391Z" fill="black"/>
<path d="M358.976 240.581C359.521 243.331 359.386 246.098 358.934 248.596C357.877 254.465 353.14 258.968 347.254 259.915C341.042 260.913 331.861 262.078 321.834 262.346C323.075 281.269 320.719 312.249 320.719 312.249C318.396 312.66 315.571 312.978 312.368 312.953C309.651 312.936 307.237 312.685 305.174 312.341C304.638 306.338 303.892 294.961 303.405 285.034C302.776 272.382 302.676 258.657 304.755 254.365C308.922 245.788 337.185 241.344 337.185 241.344L358.976 240.581Z" fill="black"/>
<path d="M303.981 295.422C302.337 283.131 300.753 256.142 303.327 252.302C307.41 246.198 330.189 240.581 330.189 240.581" stroke="#00192F" stroke-width="0.5" stroke-miterlimit="10" stroke-linecap="round" stroke-linejoin="round"/>
<path d="M388.849 320.415H385.487L373.195 238.016H379.634L388.849 320.415Z" fill="#5E1A1E"/>
<path d="M293.728 232.959H343.555V230.268H293.728V232.959Z" fill="#E527BB"/>
<path d="M293.726 232.959H327.531V230.268H293.726V232.959Z" fill="#E527BB"/>
<path d="M286.094 203.582H319.907L327.545 230.277H293.74L286.094 203.582Z" fill="#E527BB"/>
<path d="M284.188 203.582H318.001L325.639 230.277H291.834L284.188 203.582Z" fill="#E527BB"/>
<path d="M338.677 320.415H335.307L323.016 238.016H329.455L338.677 320.415Z" fill="#5E1A1E"/>
<path d="M169.339 320.415H165.969L175.191 238.016H181.63L169.339 320.415Z" fill="#5E1A1E"/>
<path d="M173.664 239.491L381.164 239.491V235.492L173.664 235.492V239.491Z" fill="#AC290E"/>
<path d="M270.269 232.063H242.618C241.788 232.063 241.117 231.25 241.117 230.243C241.117 229.237 241.788 228.424 242.618 228.424H270.269V232.063Z" fill="#FF4B4A"/>
<path d="M270.269 232.063H242.618C241.788 232.063 241.117 231.25 241.117 230.243C241.117 229.237 241.788 228.424 242.618 228.424H270.269V232.063Z" fill="#A78BEF"/>
<path d="M270.26 232.063H260.954C260.124 232.063 259.453 231.25 259.453 230.243C259.453 229.237 260.124 228.424 260.954 228.424H270.26V232.063Z" fill="#7F62E8"/>
<path d="M270.268 231.484H261.087C260.375 231.484 259.805 230.931 259.805 230.252C259.805 229.573 260.383 229.019 261.087 229.019H270.268V231.484Z" fill="white"/>
<path d="M240.086 228.432H267.737C268.567 228.432 269.238 227.619 269.238 226.613C269.238 225.607 268.567 224.794 267.737 224.794H240.086V228.432Z" fill="white"/>
<path d="M240.086 228.432H267.737C268.567 228.432 269.238 227.619 269.238 226.613C269.238 225.607 268.567 224.794 267.737 224.794H240.086V228.432Z" fill="#E527BB"/>
<path d="M250.602 228.432C251.432 228.432 252.102 227.619 252.102 226.613C252.102 225.607 251.432 224.794 250.602 224.794" fill="#E527BB"/>
<path d="M240.086 228.432H249.392C250.222 228.432 250.893 227.619 250.893 226.613C250.893 225.607 250.222 224.794 249.392 224.794H240.086V228.432Z" fill="#E527BB"/>
<path d="M240.086 227.971H249.267C249.979 227.971 250.549 227.359 250.549 226.613C250.549 225.859 249.971 225.255 249.267 225.255H240.086V227.971Z" fill="white"/>
<path d="M267.801 224.794H245.214C244.308 224.794 243.57 224.056 243.57 223.15V222.798C243.57 221.893 244.308 221.155 245.214 221.155H267.801V224.794Z" fill="#FF4B4A"/>
<path d="M267.801 224.794H245.214C244.308 224.794 243.57 224.056 243.57 223.15V222.798C243.57 221.893 244.308 221.155 245.214 221.155H267.801V224.794Z" fill="#A78BEF"/>
<path d="M267.798 224.794H261.057C260.152 224.794 259.414 224.056 259.414 223.15V222.798C259.414 221.893 260.152 221.155 261.057 221.155H267.798V224.794Z" fill="#7F62E8"/>
<path d="M267.796 224.349H260.921C260.233 224.349 259.68 223.796 259.68 223.108V222.849C259.68 222.161 260.233 221.608 260.921 221.608H267.796V224.349Z" fill="white"/>
<path d="M242.891 221.155H265.318C265.939 221.155 266.442 220.551 266.442 219.797C266.442 219.051 265.939 218.438 265.318 218.438H242.891V221.155Z" fill="#E527BB"/>
<path d="M242.891 221.155H249.824C250.445 221.155 250.948 220.551 250.948 219.797C250.948 219.051 250.445 218.438 249.824 218.438H242.891V221.155Z" fill="#E527BB"/>
<path d="M242.891 220.836H249.732C250.26 220.836 250.688 220.375 250.688 219.805C250.688 219.235 250.26 218.774 249.732 218.774H242.891V220.836Z" fill="white"/>
<path d="M169.946 235.9L384.883 235.9V231.901L169.946 231.901V235.9Z" fill="#AC290E"/>
<path d="M381.156 235.492H173.078" stroke="#00192F" stroke-width="0.5" stroke-miterlimit="10" stroke-linecap="round" stroke-linejoin="round"/>
<path d="M327.536 230.277H291.828" stroke="#00192F" stroke-width="0.5" stroke-miterlimit="10" stroke-linecap="round" stroke-linejoin="round"/>
<path d="M317.992 203.582L325.63 230.277V231.904" stroke="#00192F" stroke-width="0.5" stroke-miterlimit="10" stroke-linecap="round" stroke-linejoin="round"/>
<path d="M283.408 161.191C281.337 157.653 276.474 155.943 275.661 156.723C274.848 157.502 277.908 158.852 277.908 158.852C277.908 158.852 277.614 161.761 280.004 162.885" fill="#FFA07C"/>
<path d="M277.916 158.852C277.916 158.852 277.807 161.518 279.45 162.558" stroke="#00192F" stroke-width="0.5" stroke-miterlimit="10" stroke-linecap="round" stroke-linejoin="round"/>
<path d="M351.14 153C356.304 154.216 359.826 158.542 356.413 167.429C353.009 176.317 348.457 177.365 344.29 176.082C340.131 174.791 337.901 171.948 339.427 164.696C340.953 157.435 342.386 150.946 351.14 153Z" fill="#FFA07C"/>
<path d="M347.746 175.88C345.557 176.333 343.411 175.847 341.852 174.941" stroke="#00192F" stroke-width="0.5" stroke-miterlimit="10" stroke-linecap="round" stroke-linejoin="round"/>
<path d="M356.127 166.071C362.265 162.759 357.192 174.774 353.57 171.504L356.127 166.071Z" fill="#FFA07C"/>
<path d="M357.772 165.501C356.187 169.047 354.041 168.997 355.273 164.578C354.049 163.019 352.045 160.713 353.58 157.804C355.114 154.903 345.665 159.875 342.655 155.264C336.778 156.731 339.075 148.976 342.529 149.076C345.061 146.217 352.867 145.194 355.584 149.076C359.784 149.604 363.431 153.285 362.718 156.178C362.45 157.284 361.754 158.559 361.905 159.682C362.408 163.312 359.549 165.174 357.772 165.501Z" fill="black"/>
<path d="M353.823 151.692C353.823 151.692 352.214 151.34 351.694 152.355C351.174 153.369 349.296 152.078 349.464 153.822" stroke="#00192F" stroke-width="0.5" stroke-miterlimit="10" stroke-linecap="round" stroke-linejoin="round"/>
<path d="M350.78 149.655C350.78 149.655 348.676 149.445 348.173 150.812C347.67 152.178 345.087 150.829 345.557 153.017" stroke="#00192F" stroke-width="0.5" stroke-miterlimit="10" stroke-linecap="round" stroke-linejoin="round"/>
<path d="M346.945 149.479C346.945 149.479 345.167 149.487 344.865 150.678C344.563 151.868 342.275 150.954 342.861 152.749" stroke="#00192F" stroke-width="0.5" stroke-miterlimit="10" stroke-linecap="round" stroke-linejoin="round"/>
<path d="M357.779 152.505C357.779 152.505 356.111 152.514 355.826 153.629C355.541 154.744 353.403 153.889 353.948 155.566" stroke="#00192F" stroke-width="0.5" stroke-miterlimit="10" stroke-linecap="round" stroke-linejoin="round"/>
<path d="M358.429 211.278L357.826 211.186C357.826 211.186 357.532 208.654 357.826 202.995" stroke="#00192F" stroke-width="0.5" stroke-miterlimit="10" stroke-linecap="round" stroke-linejoin="round"/>
<path d="M324.973 186.176C324.973 186.176 324.688 186.805 324.721 191.995" stroke="#00192F" stroke-width="0.5" stroke-miterlimit="10" stroke-linecap="round" stroke-linejoin="round"/>
<path d="M131.691 117.3H103V145.983H131.691V117.3Z" fill="#E527BB"/>
<path d="M115.392 134.806C110.839 130.095 109.674 123.672 109.54 117.3H103V145.983H131.691V140.382C125.738 140.701 119.626 139.2 115.392 134.806Z" fill="#CC1FAB"/>
<path d="M115.491 140.969L107.694 133.792C107.057 133.205 107.015 132.216 107.602 131.578C108.189 130.941 109.178 130.899 109.815 131.486L115.298 136.533L125.77 125.089C126.357 124.452 127.347 124.41 127.984 124.988C128.621 125.575 128.663 126.565 128.084 127.202L115.491 140.969Z" fill="white"/>
<path d="M379.831 85.5995C390.473 82.618 396.68 71.5854 393.695 60.9575C390.709 50.3296 379.662 44.131 369.019 47.1125C358.377 50.094 352.17 61.1266 355.156 71.7545C358.141 82.3824 369.189 88.581 379.831 85.5995Z" fill="#007CFF"/>
<path d="M379.831 85.5995C390.473 82.618 396.68 71.5854 393.695 60.9575C390.709 50.3296 379.662 44.131 369.019 47.1125C358.377 50.094 352.17 61.1266 355.156 71.7545C358.141 82.3824 369.189 88.581 379.831 85.5995Z" fill="#B21093"/>
<path d="M387.526 79.3984C395.342 71.5931 395.342 58.9381 387.526 51.1328C379.71 43.3275 367.038 43.3274 359.222 51.1328C351.406 58.9381 351.406 71.5931 359.222 79.3985C367.038 87.2038 379.71 87.2038 387.526 79.3984Z" fill="#E527BB"/>
<path d="M385.132 77.0075C391.626 70.5226 391.626 60.0086 385.132 53.5238C378.639 47.039 368.111 47.0389 361.617 53.5238C355.123 60.0086 355.123 70.5226 361.617 77.0075C368.111 83.4923 378.639 83.4923 385.132 77.0075Z" fill="white"/>
<path d="M365.398 77.0464L367.606 73.7789C367.671 73.8227 367.736 73.8648 367.801 73.9068L365.673 77.2269C365.58 77.1673 365.489 77.1077 365.398 77.0464ZM360.989 72.2809C360.935 72.1846 360.88 72.0882 360.829 71.9901L364.312 70.133C364.349 70.2013 364.385 70.2696 364.424 70.3362L360.989 72.2809ZM371.792 79.4011L372.226 75.4819L372.471 75.5064L372.112 79.4327C372.005 79.4239 371.898 79.4117 371.792 79.4011ZM359.14 65.7301C359.136 65.6215 359.135 65.5129 359.133 65.4025L363.08 65.364L363.085 65.6022L359.14 65.7301ZM378.547 78.5164L377.11 74.8441L377.333 74.7548L378.906 78.371L378.813 78.4095C378.749 78.4375 378.649 78.4778 378.547 78.5164ZM360.554 59.076C360.601 58.9761 360.65 58.878 360.699 58.7816L364.215 60.574C364.18 60.644 364.145 60.7141 364.112 60.7842L360.554 59.076ZM381.17 71.9848C381.219 71.9288 381.266 71.8727 381.313 71.8149L384.363 74.3203C384.291 74.4079 384.217 74.4937 384.143 74.5796L381.17 71.9848ZM367.247 57.0016L364.905 53.8287L365.161 53.643L367.447 56.8562L367.247 57.0016ZM383.401 67.6083L383.454 67.3735L387.315 68.197C387.292 68.3021 387.27 68.4072 387.243 68.5123L383.401 67.6083ZM371.798 55.1024L371.189 51.2077C371.294 51.1919 371.399 51.1761 371.505 51.1621L372.043 55.0674L371.798 55.1024ZM383.347 62.6904C383.327 62.6168 383.308 62.5432 383.287 62.4696L387.084 61.3869C387.113 61.4938 387.143 61.6024 387.171 61.7093L383.347 62.6904ZM376.703 55.5334L377.978 51.8016C378.085 51.8384 378.191 51.8752 378.298 51.9155L376.917 55.6087C376.845 55.5825 376.775 55.5579 376.703 55.5334ZM381.01 58.3612L380.85 58.1877L383.715 55.4756C383.791 55.5544 383.864 55.635 383.938 55.7156L381.01 58.3612Z" fill="black"/>
<path d="M369.195 59.0918L373.164 65.9089L379.585 59.6717" stroke="black" stroke-miterlimit="10" stroke-linecap="round" stroke-linejoin="round"/>
<path d="M374.324 66.219C373.872 66.7341 373.087 66.7849 372.572 66.3346C372.056 65.8826 372.005 65.0995 372.456 64.5844C372.908 64.0693 373.693 64.0185 374.208 64.4687C374.724 64.9208 374.775 65.7039 374.324 66.219Z" fill="black"/>
<path opacity="0.3" d="M362.283 54.5752C368.873 48.1873 379.399 48.3432 385.795 54.9238C387.367 56.5409 388.537 58.3963 389.32 60.3691C388.578 57.8987 387.258 55.5615 385.336 53.5835C378.939 47.0029 368.413 46.847 361.823 53.2349C356.853 58.0529 355.548 65.2169 357.95 71.2701C356.225 65.5235 357.674 59.0428 362.283 54.5752Z" fill="black"/>
<path d="M371.552 127.739H365.938V142.942H371.552V127.739Z" fill="#A78BEF"/>
<path d="M379.77 124.113H374.156V142.95H379.77V124.113Z" fill="#E527BB"/>
<path d="M387.989 132.078H382.375V142.95H387.989V132.078Z" fill="#A78BEF"/>
<path d="M396.208 121.206H390.594V142.943H396.208V121.206Z" fill="#E527BB"/>
<path d="M363.547 118.306V142.95H398.772" stroke="#E527BB" stroke-miterlimit="10"/>
<path d="M406.757 307.324H403.918C403.918 307.324 389.839 278.315 393.656 273.838C398.581 268.064 404.978 284.544 406.757 307.324Z" fill="#39B039"/>
<path d="M405.86 307.323H405.395L396.447 277.955C396.412 277.837 396.477 277.713 396.594 277.678C396.712 277.643 396.836 277.708 396.871 277.826L405.86 307.323Z" fill="#00743B"/>
<path d="M408.43 307.324H411.269C411.269 307.324 425.348 278.315 421.53 273.838C416.606 268.064 410.203 284.544 408.43 307.324Z" fill="#39B039"/>
<path d="M409.328 307.323H409.793L418.741 277.955C418.777 277.837 418.712 277.713 418.594 277.678C418.476 277.643 418.353 277.708 418.317 277.826L409.328 307.323Z" fill="#00743B"/>
<path d="M409.28 307.323H406.765C401.204 280.657 403.425 258.32 409.056 262.507C414.687 266.695 409.28 307.323 409.28 307.323Z" fill="#39B039"/>
<path d="M407.805 267.934L407.504 307.323H407.062L407.363 267.934C407.363 267.81 407.463 267.716 407.587 267.716C407.705 267.71 407.805 267.81 407.805 267.934Z" fill="#00743B"/>
<path d="M420.44 307.017L420.074 307.996L419.845 308.615L419.179 310.391L418.943 311.01L418.26 312.833L418.03 313.452L415.091 321.267H399.033L396.094 313.452L395.864 312.833L395.181 311.01L394.945 310.391L394.279 308.615L394.05 307.996L393.684 307.017C393.431 306.344 393.926 305.631 394.639 305.631H419.497C420.198 305.637 420.693 306.35 420.44 307.017Z" fill="#E31E23"/>
<path d="M420.062 307.996L419.832 308.615H394.261L394.031 307.996H420.062Z" fill="white"/>
<path d="M419.162 310.391L418.926 311.01H395.158L394.922 310.391H419.162Z" fill="white"/>
<path d="M418.246 312.826L418.01 313.446H396.079L395.844 312.826H418.246Z" fill="white"/>
<circle cx="304.5" cy="217.5" r="3.5" fill="white"/>
</g>
<defs>
<clipPath id="clip0_1600_5881">
<rect width="542.64" height="328.79" fill="white"/>
</clipPath>
</defs>
</svg>
