<svg width="543" height="329" viewBox="0 0 543 329" fill="none" xmlns="http://www.w3.org/2000/svg">
<g clip-path="url(#clip0_856_15830)">
<path opacity="0.2" d="M128.492 325.584L413.142 308.934C488.412 304.534 546.652 240.734 543.512 165.394C540.872 102.084 518.192 34.6439 441.912 5.8239C388.262 -14.4461 318.592 2.1439 274.402 35.8539C263.782 43.9539 254.022 53.2439 242.612 60.1739C216.022 76.3239 192.672 65.1739 164.972 60.8839C106.412 51.7939 47.9621 70.4639 17.7021 124.434C-28.7579 207.354 26.0421 331.574 128.492 325.584Z" fill="#999999"/>
<path d="M112.896 232.943L112.422 239.224C112.39 239.673 112.683 240.073 113.116 240.179L120.743 242.047C121.078 242.128 121.331 242.398 121.404 242.732C121.722 244.16 122.179 245.53 122.775 246.835C122.921 247.154 122.881 247.521 122.652 247.79L117.594 253.843C117.309 254.185 117.309 254.683 117.603 255.026L121.714 259.806C122.008 260.149 122.497 260.222 122.881 259.994L129.749 255.833C130.043 255.654 130.402 255.662 130.696 255.841C131.854 256.559 133.102 257.155 134.407 257.636C134.734 257.758 134.97 258.052 135.003 258.403L135.729 266.487C135.77 266.936 136.129 267.287 136.569 267.319L142.851 267.792C143.299 267.825 143.699 267.531 143.805 267.099L145.771 259.072C145.844 258.762 146.073 258.517 146.375 258.419L150.258 257.147C150.56 257.049 150.886 257.114 151.131 257.31L157.477 262.612C157.82 262.898 158.318 262.898 158.66 262.604L163.441 258.501C163.783 258.207 163.857 257.718 163.628 257.334L159.345 250.262C159.182 249.992 159.166 249.658 159.313 249.372L161.156 245.726C161.295 245.449 161.572 245.253 161.891 245.228L170.122 244.486C170.57 244.445 170.921 244.086 170.954 243.646L171.427 237.364C171.46 236.916 171.166 236.516 170.734 236.41L162.706 234.444C162.396 234.37 162.152 234.142 162.054 233.84L160.781 229.957C160.683 229.655 160.749 229.329 160.944 229.084L166.247 222.738C166.532 222.395 166.532 221.897 166.239 221.555L162.127 216.774C161.834 216.432 161.344 216.358 160.961 216.587L153.888 220.869C153.619 221.033 153.284 221.049 152.999 220.902L149.352 219.058C149.075 218.92 148.879 218.642 148.855 218.324L148.112 210.093C148.072 209.644 147.721 209.294 147.272 209.261L140.991 208.788C140.542 208.755 140.142 209.049 140.036 209.481L138.103 217.362C138.021 217.704 137.744 217.957 137.401 218.031C136.039 218.308 134.717 218.716 133.461 219.254C133.143 219.385 132.792 219.344 132.523 219.124L126.364 213.976C126.021 213.691 125.524 213.691 125.181 213.984L120.401 218.096C120.058 218.389 119.985 218.879 120.213 219.262L124.3 226.009C124.479 226.311 124.471 226.678 124.276 226.971C123.492 228.171 122.823 229.459 122.301 230.822C122.179 231.148 121.885 231.368 121.543 231.401L113.719 232.103C113.279 232.135 112.936 232.494 112.896 232.943ZM142.116 225.054C149.654 225.625 155.299 232.192 154.728 239.73C154.157 247.268 147.59 252.913 140.052 252.342C132.515 251.771 126.87 245.204 127.441 237.666C128.012 230.137 134.579 224.491 142.116 225.054Z" fill="#A78BEF"/>
<path d="M140.657 141.992L149.264 130.441C149.59 130 150.12 129.764 150.675 129.805L157.78 130.392C158.327 130.441 158.816 130.759 159.061 131.249L165.652 144.056C166.011 144.75 166.811 145.084 167.553 144.847L178.011 141.495C178.754 141.258 179.21 140.516 179.104 139.749L177.024 125.489C176.943 124.943 177.155 124.396 177.571 124.045L183.004 119.436C183.42 119.077 183.999 118.971 184.521 119.134L198.242 123.531C198.985 123.768 199.784 123.434 200.143 122.74L205.168 112.975C205.527 112.282 205.331 111.434 204.703 110.969L193.152 102.362C192.711 102.036 192.475 101.506 192.516 100.951L193.103 93.8456C193.152 93.299 193.47 92.8096 193.96 92.5648L206.767 85.9734C207.461 85.6145 207.795 84.815 207.558 84.0727L204.206 73.6145C203.969 72.8722 203.227 72.4153 202.46 72.5214L188.2 74.6016C187.654 74.6832 187.107 74.4711 186.756 74.055L182.147 68.6139C181.788 68.1978 181.674 67.6186 181.845 67.0965L186.242 53.3753C186.479 52.6329 186.144 51.8335 185.451 51.4745L175.686 46.4657C174.993 46.1068 174.145 46.3026 173.68 46.9307L165.236 58.2699C164.869 58.7594 164.257 58.9878 163.654 58.8654C161.272 58.3841 158.881 58.1475 156.499 58.1475C155.904 58.1475 155.357 57.8294 155.088 57.2991L148.684 44.8668C148.325 44.1734 147.526 43.8389 146.784 44.0755L136.325 47.4283C135.583 47.6649 135.126 48.4072 135.232 49.1741L137.223 62.7729C137.313 63.3766 137.035 63.964 136.529 64.3066C134.457 65.7016 132.516 67.3168 130.746 69.1523C130.33 69.5846 129.71 69.7559 129.13 69.5683L116.094 65.3916C115.352 65.155 114.553 65.4895 114.194 66.1829L109.177 75.9476C108.818 76.641 109.013 77.4894 109.642 77.9544L120.622 86.1366C121.103 86.4955 121.332 87.0992 121.217 87.6947C120.752 90.1991 120.565 92.7198 120.638 95.2161C120.655 95.8279 120.336 96.3908 119.798 96.6682L107.578 102.95C106.884 103.309 106.55 104.108 106.786 104.85L110.139 115.308C110.376 116.051 111.118 116.508 111.885 116.393L125.729 114.37C126.316 114.281 126.895 114.542 127.238 115.031C128.616 116.973 130.207 118.776 131.977 120.432C132.426 120.848 132.606 121.484 132.418 122.063L128.102 135.531C127.866 136.274 128.2 137.073 128.894 137.432L138.659 142.457C139.352 142.816 140.192 142.612 140.657 141.992ZM144.63 115.749C132.924 109.729 128.315 95.3466 134.335 83.6403C140.355 71.934 154.737 67.3249 166.444 73.3453C178.15 79.3657 182.759 93.7477 176.739 105.454C170.718 117.168 156.344 121.778 144.63 115.749Z" fill="#A78BEF"/>
<path d="M365.064 197.732H294.704C289.605 197.732 285.461 193.588 285.461 188.489V139.29C285.461 134.191 289.605 130.047 294.704 130.047H365.064C370.162 130.047 374.306 134.191 374.306 139.29V188.489C374.306 193.588 370.162 197.732 365.064 197.732ZM294.704 130.896C290.078 130.896 286.317 134.656 286.317 139.282V188.481C286.317 193.106 290.078 196.867 294.704 196.867H365.064C369.689 196.867 373.45 193.106 373.45 188.481V139.29C373.45 134.665 369.689 130.904 365.064 130.904H294.704V130.896Z" fill="#B3DCFF"/>
<path d="M338.128 76.5737C338.128 76.5737 347.542 90.8579 339.597 98.4363C331.651 106.023 330.721 97.5553 330.721 97.5553C330.721 97.5553 326.471 97.8327 334.922 88.174C338.903 83.622 338.128 76.5737 338.128 76.5737Z" fill="#6EE213"/>
<path d="M363.327 69.2888C363.327 69.2888 370.041 82.2596 354.24 94.4145C338.438 106.569 338.512 114.939 338.512 114.939C338.512 114.939 327.393 84.8782 363.327 69.2888Z" fill="#62C712"/>
<path d="M336.488 109.408C330.484 109.245 339.278 93.9902 349.059 90.8984C358.84 87.8067 366.647 89.0874 372.602 85.3022C372.602 85.3022 366.068 110.232 336.488 109.408Z" fill="#6EE213"/>
<path d="M230.315 200.424H229.564V290.248H230.315V200.424Z" fill="#78C2FF"/>
<path d="M337.621 108.323V101.039C337.621 100.027 337.555 99.0482 337.433 98.0856C336.381 89.7729 330.98 83.4507 324.462 83.4507H160.99C154.481 83.4507 149.072 89.7811 148.02 98.0856C147.897 99.0482 147.832 100.035 147.832 101.039V248.081C147.832 248.097 147.832 248.106 147.832 248.122V255.407C147.832 265.123 153.722 273.003 160.99 273.003H324.462C331.731 273.003 337.621 265.123 337.621 255.407V108.348C337.621 108.34 337.621 108.332 337.621 108.323Z" fill="#E3F2FF"/>
<path d="M317.025 248.007H225.365C221.066 248.007 217.566 244.508 217.566 240.209V178.561C217.566 174.262 221.066 170.762 225.365 170.762H317.025C321.324 170.762 324.832 174.262 324.832 178.561V240.209C324.832 244.508 321.332 248.007 317.025 248.007ZM225.365 171.611C221.531 171.611 218.415 174.727 218.415 178.561V240.209C218.415 244.043 221.531 247.159 225.365 247.159H317.025C320.859 247.159 323.975 244.043 323.975 240.209V178.561C323.975 174.727 320.859 171.611 317.025 171.611H225.365Z" fill="#E527BB"/>
<g opacity="0.53">
<path d="M337.622 176.726V248.073C337.622 249.753 337.442 251.377 337.116 252.919C336.806 252.959 336.488 252.976 336.161 252.976H244.502C240.431 252.976 237.127 249.672 237.127 245.601V183.953C237.127 179.875 240.431 176.579 244.502 176.579H336.161C336.659 176.579 337.148 176.628 337.622 176.726Z" fill="#4AA2E8"/>
</g>
<path d="M337.435 98.0774H148.021C149.074 89.7647 154.482 83.4343 160.992 83.4343H324.464C330.974 83.4343 336.383 89.7647 337.435 98.0774Z" fill="#E527BB"/>
<path d="M239.003 279.333H176.988V280.084H239.003V279.333Z" fill="#78C2FF"/>
<path d="M354.745 188.432V250.08C354.745 254.15 351.441 257.454 347.37 257.454H255.71C251.64 257.454 248.336 254.15 248.336 250.08V188.432C248.336 184.361 251.64 181.057 255.71 181.057H347.37C351.441 181.057 354.745 184.361 354.745 188.432Z" fill="#DAE8F5"/>
<path d="M291.639 192.87H257.548C257.124 192.87 256.781 192.527 256.781 192.103V189.762C256.781 189.337 257.124 188.995 257.548 188.995H291.639C292.063 188.995 292.406 189.337 292.406 189.762V192.103C292.414 192.527 292.071 192.87 291.639 192.87Z" fill="#E527BB"/>
<path d="M291.647 201.199H257.548C257.124 201.199 256.781 200.856 256.781 200.432V198.091C256.781 197.666 257.124 197.324 257.548 197.324H291.639C292.063 197.324 292.406 197.666 292.406 198.091V200.432C292.414 200.848 292.071 201.199 291.647 201.199Z" fill="#E527BB"/>
<path d="M289.82 250.765H259.367C257.94 250.765 256.781 249.606 256.781 248.179V209.462C256.781 208.035 257.94 206.876 259.367 206.876H289.82C291.248 206.876 292.406 208.035 292.406 209.462V248.179C292.414 249.606 291.256 250.765 289.82 250.765Z" fill="#E527BB"/>
<path d="M210.436 146.51H185.082V151.763H210.436V146.51Z" fill="#DAE8F5"/>
<path d="M210.436 155.687H185.082V160.94H210.436V155.687Z" fill="#DAE8F5"/>
<path d="M345.829 250.765H302.977C300.962 250.765 299.33 249.133 299.33 247.119V192.633C299.33 190.618 300.962 188.987 302.977 188.987H345.829C347.844 188.987 349.475 190.618 349.475 192.633V247.119C349.475 249.133 347.844 250.765 345.829 250.765Z" fill="#E527BB"/>
<path d="M239.003 294.237C235.658 294.237 232.941 291.521 232.941 288.176C232.941 284.831 235.658 282.115 239.003 282.115C242.347 282.115 245.064 284.831 245.064 288.176C245.064 291.513 242.347 294.237 239.003 294.237ZM239.003 283.012C236.156 283.012 233.847 285.329 233.847 288.168C233.847 291.015 236.164 293.332 239.003 293.332C241.85 293.332 244.158 291.015 244.158 288.168C244.166 285.329 241.85 283.012 239.003 283.012Z" fill="#4DA8F2"/>
<path d="M418.774 112.883V162.082C418.774 166.953 414.826 170.901 409.956 170.901H339.596C334.726 170.901 330.777 166.953 330.777 162.082V112.883C330.777 108.013 334.726 104.073 339.596 104.073H409.956C414.834 104.065 418.774 108.013 418.774 112.883Z" fill="#E3F2FF"/>
<path d="M418.775 112.883L418.62 117.778H330.631L330.786 112.883C330.786 108.013 334.734 104.073 339.604 104.073H409.964C414.835 104.065 418.775 108.013 418.775 112.883Z" fill="#A78BEF"/>
<path d="M358.386 165.264H340.684C338.399 165.264 336.531 163.404 336.531 161.112V125.821C336.531 123.537 338.391 121.669 340.684 121.669H358.386C360.67 121.669 362.538 123.529 362.538 125.821V161.112C362.538 163.404 360.678 165.264 358.386 165.264ZM340.684 123.048C339.158 123.048 337.91 124.288 337.91 125.821V161.112C337.91 162.637 339.158 163.885 340.684 163.885H358.386C359.911 163.885 361.159 162.645 361.159 161.112V125.821C361.159 124.296 359.919 123.048 358.386 123.048H340.684Z" fill="#E527BB"/>
<path d="M344.867 111.505C344.867 113.618 343.154 115.331 341.041 115.331C338.928 115.331 337.215 113.618 337.215 111.505C337.215 109.392 338.928 107.679 341.041 107.679C343.154 107.679 344.867 109.392 344.867 111.505Z" fill="#E527BB"/>
<path d="M373.639 144.862H368.279V164.579H373.639V144.862Z" fill="#E3F2FF"/>
<path d="M381.266 142.871H375.906V164.571H381.266V142.871Z" fill="#E527BB"/>
<path d="M396.928 138.678H391.568V164.579H396.928V138.678Z" fill="#E527BB"/>
<path d="M388.992 147.007H383.633V164.579H388.992V147.007Z" fill="#E3F2FF"/>
<path d="M404.369 145.482H399.01V164.571H404.369V145.482Z" fill="#E3F2FF"/>
<path d="M411.776 135.44H406.416V164.579H411.776V135.44Z" fill="#E527BB"/>
<path d="M434.595 331.013L433.926 330.988L437.311 246.009H378.763L375.378 331.013L374.709 330.988L378.119 245.332H438.013L434.595 331.013Z" fill="#1A598C"/>
<path d="M440.084 331.013L436.699 246.009H378.151L381.536 330.988L380.859 331.013L377.449 245.332H437.343L440.753 330.988L440.084 331.013Z" fill="#1A598C"/>
<path d="M381.201 303.366H440.417L437.016 218.037H377.799L381.201 303.366Z" fill="#E527BB"/>
<path d="M432.586 303.366H373.369L376.771 218.037H435.988L432.586 303.366Z" fill="#E3F2FF"/>
<path d="M402.535 231.26C401.099 227.246 397.257 224.775 393.211 224.897C392.232 224.93 391.236 225.109 390.266 225.46C387.321 226.512 385.208 228.862 384.335 231.635C383.731 233.56 383.731 235.681 384.457 237.729C384.531 237.933 384.604 238.129 384.694 238.324C385.077 239.206 385.583 240.013 386.179 240.715C388.691 243.668 392.86 244.916 396.718 243.529C401.727 241.743 404.321 236.252 402.535 231.26ZM395.927 241.269C393.031 242.305 389.907 241.367 388.022 239.157C387.574 238.626 387.19 238.031 386.905 237.37C386.839 237.223 386.782 237.076 386.725 236.921C386.179 235.388 386.179 233.797 386.635 232.353C387.288 230.273 388.871 228.511 391.081 227.719C391.807 227.458 392.558 227.32 393.292 227.303C396.327 227.214 399.206 229.066 400.283 232.076C401.613 235.812 399.663 239.932 395.927 241.269Z" fill="#E527BB"/>
<path d="M386.634 232.345L384.342 231.627C385.207 228.854 387.328 226.504 390.272 225.452C391.243 225.101 392.238 224.922 393.217 224.889L393.291 227.287C392.557 227.312 391.814 227.442 391.08 227.703C388.869 228.511 387.287 230.273 386.634 232.345Z" fill="#A78BEF"/>
<path d="M386.901 237.362L384.699 238.317C384.617 238.121 384.536 237.925 384.462 237.721C383.728 235.682 383.736 233.552 384.34 231.627L386.632 232.345C386.184 233.789 386.175 235.38 386.722 236.913C386.779 237.068 386.836 237.215 386.901 237.362Z" fill="#DAA7EE"/>
<path d="M386.186 240.715C385.59 240.013 385.085 239.214 384.701 238.325L386.904 237.37C387.189 238.031 387.573 238.635 388.021 239.157L386.186 240.715Z" fill="#E527BB"/>
<path d="M425.545 229.514H410.682C410.192 229.514 409.801 229.123 409.801 228.633V225.966C409.801 225.476 410.192 225.085 410.682 225.085H425.537C426.026 225.085 426.418 225.476 426.418 225.966V228.633C426.434 229.115 426.035 229.514 425.545 229.514Z" fill="#E527BB"/>
<path d="M425.545 236.375H410.682C410.192 236.375 409.801 235.983 409.801 235.494V232.826C409.801 232.337 410.192 231.945 410.682 231.945H425.537C426.026 231.945 426.418 232.337 426.418 232.826V235.494C426.434 235.983 426.035 236.375 425.545 236.375Z" fill="#A78BEF"/>
<path d="M425.545 243.244H410.682C410.192 243.244 409.801 242.852 409.801 242.363V239.695C409.801 239.206 410.192 238.814 410.682 238.814H425.537C426.026 238.814 426.418 239.206 426.418 239.695V242.363C426.434 242.844 426.035 243.244 425.545 243.244Z" fill="#DAA7EE"/>
<path d="M388.479 264.748H382.246V296.163H388.479V264.748Z" fill="#DAA7EE"/>
<path d="M397.354 261.583H391.121V296.171H397.354V261.583Z" fill="#A78BEF"/>
<path d="M406.354 268.166H400.121V296.171H406.354V268.166Z" fill="#A78BEF"/>
<path d="M415.34 255.187H409.107V296.171H415.34V255.187Z" fill="#E527BB"/>
<path d="M424.772 259.266H418.539V296.171H424.772V259.266Z" fill="#E527BB"/>
<path d="M354.793 320.897C354.793 320.897 355.168 323.654 355.217 324.07C355.266 324.486 359.402 323.825 359.402 323.825L359.737 320.546C359.728 320.538 355.307 320.505 354.793 320.897Z" fill="#5C544D"/>
<path d="M355.168 323.711C355.168 323.711 353.855 325.375 352.59 326.093C351.326 326.819 349.335 327.105 348.585 327.855C348.047 328.394 346.611 330.727 351.881 330.678C357.142 330.629 359.679 331.004 360.242 330.115C360.805 329.218 359.426 323.523 359.426 323.523C359.426 323.523 358.178 323.997 355.168 323.711Z" fill="#A78BEF"/>
<path d="M325.164 320.897C325.164 320.897 325.539 323.654 325.588 324.07C325.637 324.486 329.773 323.825 329.773 323.825L330.108 320.546C330.099 320.538 325.678 320.505 325.164 320.897Z" fill="#5C544D"/>
<path d="M325.54 323.711C325.54 323.711 324.227 325.375 322.962 326.093C321.698 326.819 317.032 327.415 316.281 328.157C315.743 328.695 314.837 330.874 322.244 330.67C327.506 330.523 330.043 330.996 330.606 330.107C331.169 329.209 329.79 323.515 329.79 323.515C329.79 323.515 328.624 324.029 325.54 323.711Z" fill="#A78BEF"/>
<path d="M353.322 249.737C353.322 249.737 355.525 256.573 355.231 262.471C354.946 268.369 356.373 274.814 356.953 280.973C357.605 287.833 360.265 304.083 360.363 307.754C360.46 311.425 359.947 323.148 359.947 323.148L354.62 323.278C354.62 323.278 350.141 294.873 348.983 291.969C347.824 289.073 342.073 268.41 341.877 266.085C341.69 263.776 353.322 249.737 353.322 249.737Z" fill="black"/>
<path d="M330.916 250.953C330.916 250.953 327.988 267.105 327.604 270.719C327.221 274.324 326.96 288.176 326.764 290.428C326.568 292.679 325.475 319.934 324.447 323.279H330.394C330.394 323.279 336.496 303.472 336.496 294.099C336.496 284.725 340.534 273.721 343.145 267.537C345.755 261.354 351.727 261.207 353.325 249.737C353.325 249.737 333.086 247.314 330.916 250.953Z" fill="black"/>
<path d="M343.038 197.944C343.038 197.944 337.581 196.826 335.827 201.126C334.065 205.416 335.525 213.24 338.274 213.794C341.023 214.349 344.841 213.24 345.787 210.572C346.733 207.913 347.378 204.176 346.946 201.811C346.513 199.453 344.498 198.417 343.038 197.944Z" fill="#EEA886"/>
<path d="M311.672 255.105C311.672 255.105 310.024 256.875 309.477 257.071C308.931 257.267 307.821 256.361 303.873 256.223C303.53 256.214 302.935 256.549 303.09 256.998C303.253 257.446 304.664 259.282 305.406 259.445C306.149 259.608 310.016 260.187 311.672 259.445C313.328 258.703 314.396 256.516 314.396 256.516L311.672 255.105Z" fill="#EEA886"/>
<path d="M338.861 213.884C338.861 213.884 339.294 215.238 339.049 215.981C338.804 216.723 345.836 215.638 345.836 215.638C345.836 215.638 345.82 211.82 346.407 208.5C346.986 205.188 338.861 213.884 338.861 213.884Z" fill="#EEA886"/>
<path d="M346.401 208.508C346.401 208.508 346.042 209.381 344.011 209.381C341.98 209.381 339.149 207.121 338.276 206.966C337.403 206.803 337.322 206.322 337.322 206.322L336.922 207.162L336.049 207.358C336.049 207.358 336.481 204.878 335.119 204.103C333.757 203.328 335.176 196.28 341.874 197.503C341.874 197.503 346.964 198.083 347.217 200.889C347.494 203.679 347.282 206.95 346.401 208.508Z" fill="black"/>
<path d="M363.971 238.325C363.408 237.117 359.932 225.729 359.076 224.448C358.219 223.159 355.813 219.162 352.117 217.922C348.422 216.674 344.392 214.79 344.392 214.79L338.486 215.793C338.486 215.793 335.06 217.457 330.769 219.456C330.769 219.456 325.752 220.908 325.279 225.77C325.026 228.348 322.75 238.194 322.236 239.352C321.722 240.511 311.133 255.113 310.921 255.505C310.709 255.888 313.654 257.927 313.988 257.756C314.331 257.585 326.143 244.851 326.698 243.603C326.698 243.603 330.345 236.228 330.426 234.719C330.426 234.719 330.516 239.002 330.687 240.209C330.858 241.416 329.121 256.818 329.202 257.462C329.292 258.107 340.966 260.416 346.415 259.812C351.873 259.208 355.772 257.161 355.772 257.161C355.772 257.161 355.601 256.451 355.356 255.374C357.942 251.605 363.171 243.953 363.767 242.787C364.452 241.441 364.533 239.524 363.971 238.325ZM354.63 248.081L354.075 249.223C353.708 247.2 353.455 245.389 353.578 244.671C353.92 242.656 354.565 231.105 354.565 231.105L358.334 240.445L354.63 248.081Z" fill="#A78BEF"/>
<path d="M338.445 216.242C338.445 216.242 338.47 214.912 339.065 214.79C339.669 214.659 345.697 214.08 346.432 214.374V215.915C346.432 215.915 345.012 216.796 338.445 216.242Z" fill="#A78BEF"/>
<path d="M337.305 205.294C337.346 204.813 338.317 203.295 338.994 204.649C339.671 206.004 338.831 208.092 338.17 208.035C337.509 207.961 337.207 206.518 337.305 205.294Z" fill="#EEA886"/>
<path d="M220.028 158.901L219.408 157.881L244.305 142.855L264.243 151.918L289.156 133.457L306.377 138.213L324.006 122.428L324.797 123.317L306.687 139.535L289.401 134.762L264.39 153.297L244.379 144.201L220.028 158.901Z" fill="#E527BB"/>
<path d="M267.493 152.603C267.493 154.357 266.074 155.777 264.32 155.777C262.566 155.777 261.146 154.357 261.146 152.603C261.146 150.849 262.566 149.422 264.32 149.422C266.074 149.43 267.493 150.849 267.493 152.603Z" fill="#F3F3F3"/>
<path d="M264.32 156.38C262.24 156.38 260.543 154.684 260.543 152.603C260.543 150.523 262.232 148.826 264.32 148.826C266.4 148.826 268.097 150.523 268.097 152.603C268.089 154.684 266.4 156.38 264.32 156.38ZM264.32 150.026C262.892 150.026 261.742 151.184 261.742 152.612C261.742 154.031 262.901 155.189 264.32 155.189C265.748 155.189 266.898 154.031 266.898 152.612C266.898 151.184 265.739 150.026 264.32 150.026Z" fill="#007CFF"/>
<path d="M292.411 134.306C292.411 136.06 290.992 137.479 289.23 137.479C287.476 137.479 286.057 136.06 286.057 134.306C286.057 132.552 287.476 131.133 289.23 131.133C290.984 131.124 292.411 132.552 292.411 134.306Z" fill="#F3F3F3"/>
<path d="M289.23 138.075C287.15 138.075 285.461 136.386 285.461 134.298C285.461 132.217 287.15 130.521 289.23 130.521C291.31 130.521 293.007 132.209 293.007 134.298C293.007 136.386 291.31 138.075 289.23 138.075ZM289.23 131.72C287.81 131.72 286.652 132.878 286.652 134.298C286.652 135.717 287.81 136.884 289.23 136.884C290.657 136.884 291.816 135.725 291.816 134.298C291.816 132.87 290.657 131.72 289.23 131.72Z" fill="#007CFF"/>
<path d="M309.562 138.743C309.562 140.497 308.142 141.925 306.389 141.925C304.635 141.925 303.207 140.506 303.207 138.743C303.207 136.99 304.626 135.57 306.389 135.57C308.142 135.562 309.562 136.99 309.562 138.743Z" fill="#F3F3F3"/>
<path d="M306.386 142.512C304.306 142.512 302.609 140.824 302.609 138.735C302.609 136.647 304.306 134.958 306.386 134.958C308.467 134.958 310.163 136.647 310.163 138.735C310.163 140.824 308.467 142.512 306.386 142.512ZM306.386 136.157C304.959 136.157 303.809 137.316 303.809 138.735C303.809 140.155 304.967 141.321 306.386 141.321C307.806 141.321 308.964 140.163 308.964 138.735C308.964 137.308 307.806 136.157 306.386 136.157Z" fill="#007CFF"/>
<path d="M247.438 143.809C247.438 145.563 246.019 146.983 244.265 146.983C242.511 146.983 241.092 145.563 241.092 143.809C241.092 142.055 242.511 140.628 244.265 140.628C246.019 140.628 247.438 142.055 247.438 143.809Z" fill="#F3F3F3"/>
<path d="M244.265 147.586C242.185 147.586 240.488 145.889 240.488 143.809C240.488 141.729 242.177 140.032 244.265 140.032C246.345 140.032 248.042 141.729 248.042 143.809C248.034 145.889 246.345 147.586 244.265 147.586ZM244.265 141.231C242.838 141.231 241.687 142.39 241.687 143.809C241.687 145.237 242.846 146.395 244.265 146.395C245.685 146.395 246.851 145.237 246.851 143.809C246.843 142.39 245.685 141.231 244.265 141.231Z" fill="#007CFF"/>
<path d="M200.873 191.148H189.404C186.891 191.148 184.852 189.109 184.852 186.596V175.127C184.852 172.614 186.891 170.575 189.404 170.575H200.873C203.386 170.575 205.425 172.614 205.425 175.127V186.596C205.425 189.109 203.386 191.148 200.873 191.148ZM189.404 171.431C187.364 171.431 185.7 173.095 185.7 175.135V186.605C185.7 188.644 187.364 190.308 189.404 190.308H200.873C202.913 190.308 204.577 188.644 204.577 186.605V175.135C204.577 173.095 202.913 171.431 200.873 171.431H189.404Z" fill="#E527BB"/>
<path d="M200.873 218.46H189.404C186.891 218.46 184.852 216.421 184.852 213.908V202.438C184.852 199.926 186.891 197.886 189.404 197.886H200.873C203.386 197.886 205.425 199.926 205.425 202.438V213.908C205.425 216.413 203.386 218.46 200.873 218.46ZM189.404 198.735C187.364 198.735 185.7 200.391 185.7 202.438V213.908C185.7 215.948 187.364 217.612 189.404 217.612H200.873C202.913 217.612 204.577 215.948 204.577 213.908V202.438C204.577 200.399 202.913 198.735 200.873 198.735H189.404Z" fill="#E527BB"/>
<path d="M201.699 245.34H188.581C186.754 245.34 185.277 243.863 185.277 242.036V228.918C185.277 227.091 186.754 225.615 188.581 225.615H201.699C203.526 225.615 205.003 227.091 205.003 228.918V242.036C205.003 243.863 203.526 245.34 201.699 245.34Z" fill="#E527BB"/>
<path d="M194.519 239.825L189.535 235.477C189.127 235.118 189.086 234.498 189.437 234.091C189.796 233.683 190.416 233.642 190.824 233.993L194.348 237.068L199.373 231.456C199.732 231.048 200.36 231.015 200.76 231.382C201.168 231.741 201.201 232.369 200.833 232.769L194.519 239.825Z" fill="#F3F3F3"/>
<path d="M365.04 247.469L365.007 246.449C365.024 246.449 366.468 246.409 368.899 246.115L369.021 247.126C366.541 247.42 365.097 247.469 365.04 247.469ZM372.937 246.572L372.765 245.56C374.038 245.348 375.327 245.103 376.599 244.826L376.812 245.829C375.523 246.107 374.217 246.36 372.937 246.572ZM380.654 244.924L380.401 243.937C381.657 243.61 382.922 243.251 384.154 242.876L384.455 243.855C383.199 244.239 381.926 244.598 380.654 244.924ZM388.2 242.615L387.857 241.653C389.081 241.212 390.304 240.747 391.495 240.258L391.879 241.204C390.68 241.693 389.44 242.167 388.2 242.615ZM395.493 239.621L395.06 238.699C396.235 238.153 397.41 237.566 398.544 236.962L399.025 237.867C397.875 238.471 396.684 239.067 395.493 239.621ZM402.459 235.926L401.937 235.053C403.047 234.384 404.156 233.683 405.217 232.965L405.788 233.813C404.703 234.531 403.585 235.249 402.459 235.926ZM408.986 231.504L408.366 230.689C409.393 229.906 410.413 229.082 411.384 228.249L412.053 229.024C411.066 229.873 410.03 230.705 408.986 231.504ZM414.965 226.365L414.255 225.631C415.177 224.734 416.091 223.795 416.956 222.849L417.706 223.534C416.825 224.505 415.903 225.451 414.965 226.365ZM420.268 220.54L419.468 219.896C420.276 218.893 421.059 217.857 421.801 216.804L422.633 217.392C421.891 218.468 421.092 219.529 420.268 220.54ZM424.82 214.112L423.955 213.574C424.632 212.481 425.285 211.355 425.896 210.213L426.794 210.694C426.166 211.861 425.505 213.003 424.82 214.112ZM428.556 207.178L427.634 206.746C428.172 205.587 428.686 204.388 429.168 203.181L430.114 203.556C429.625 204.788 429.102 206.003 428.556 207.178ZM431.468 199.869L430.497 199.543C430.905 198.335 431.289 197.087 431.639 195.831L432.618 196.108C432.268 197.381 431.884 198.645 431.468 199.869ZM433.589 192.299L432.594 192.07C432.879 190.822 433.14 189.541 433.369 188.26L434.372 188.44C434.144 189.737 433.875 191.034 433.589 192.299ZM434.984 184.557L433.973 184.418C434.144 183.154 434.291 181.857 434.413 180.551L435.433 180.649C435.31 181.971 435.155 183.284 434.984 184.557ZM435.726 176.734L434.707 176.677C434.78 175.404 434.829 174.091 434.854 172.785L435.873 172.802C435.841 174.123 435.792 175.445 435.726 176.734ZM434.862 168.894C434.845 167.613 434.805 166.3 434.748 164.995L435.767 164.946C435.824 166.267 435.865 167.589 435.881 168.878L434.862 168.894ZM434.519 161.104C434.421 159.806 434.307 158.501 434.168 157.22L435.18 157.114C435.319 158.403 435.441 159.717 435.539 161.03L434.519 161.104ZM111.891 159.358C111.287 158.591 110.691 157.808 110.137 157.025L110.969 156.429C111.515 157.196 112.094 157.971 112.69 158.721L111.891 159.358ZM107.95 153.729C107.265 152.595 106.612 151.437 106.025 150.278L106.939 149.813C107.518 150.947 108.154 152.089 108.823 153.199L107.95 153.729ZM433.679 153.354C433.491 152.065 433.287 150.768 433.059 149.511L434.062 149.332C434.291 150.605 434.503 151.91 434.69 153.215L433.679 153.354ZM104.377 146.681C103.872 145.457 103.423 144.201 103.031 142.961L104.002 142.651C104.385 143.866 104.826 145.09 105.324 146.289L104.377 146.681ZM432.3 145.694C432.023 144.421 431.713 143.148 431.395 141.908L432.382 141.647C432.708 142.904 433.018 144.184 433.295 145.473L432.3 145.694ZM102.003 139.143C101.718 137.854 101.489 136.541 101.326 135.244L102.338 135.113C102.501 136.378 102.721 137.658 102.999 138.923L102.003 139.143ZM430.334 138.172C429.959 136.932 429.551 135.684 429.119 134.477L430.081 134.134C430.514 135.358 430.93 136.614 431.305 137.87L430.334 138.172ZM101.016 131.287C101.008 130.879 101 130.463 101 130.055C101 129.142 101.033 128.228 101.09 127.323L102.109 127.396C102.052 128.277 102.02 129.174 102.02 130.055C102.02 130.455 102.028 130.855 102.036 131.255L101.016 131.287ZM427.748 130.838C427.267 129.639 426.745 128.432 426.215 127.265L427.145 126.841C427.683 128.024 428.205 129.24 428.695 130.455L427.748 130.838ZM424.518 123.766C423.922 122.616 423.302 121.465 422.658 120.348L423.547 119.842C424.2 120.968 424.828 122.134 425.431 123.301L424.518 123.766ZM102.566 123.562L101.563 123.39C101.783 122.085 102.077 120.788 102.436 119.524L103.423 119.801C103.072 121.025 102.787 122.297 102.566 123.562ZM420.643 117.028C419.941 115.943 419.215 114.858 418.465 113.805L419.297 113.21C420.056 114.27 420.798 115.371 421.499 116.473L420.643 117.028ZM104.663 116.146L103.717 115.763C104.206 114.539 104.769 113.324 105.389 112.166L106.286 112.647C105.683 113.781 105.136 114.955 104.663 116.146ZM416.124 110.705C415.324 109.694 414.492 108.69 413.644 107.711L414.41 107.042C415.267 108.03 416.115 109.049 416.923 110.069L416.124 110.705ZM227.893 109.865C227.077 109.865 226.245 109.857 225.421 109.841L225.446 108.821C226.751 108.853 228.064 108.853 229.345 108.837L229.361 109.857C228.872 109.865 228.382 109.865 227.893 109.865ZM233.285 109.735L233.236 108.715C234.533 108.65 235.839 108.56 237.119 108.446L237.209 109.465C235.912 109.58 234.59 109.669 233.285 109.735ZM221.497 109.686C220.208 109.612 218.887 109.522 217.573 109.4L217.663 108.38C218.96 108.495 220.274 108.592 221.554 108.658L221.497 109.686ZM108.285 109.351L107.436 108.772C108.179 107.687 108.995 106.626 109.851 105.623L110.626 106.284C109.794 107.263 109.003 108.291 108.285 109.351ZM241.117 109.049L240.986 108.038C242.267 107.875 243.564 107.687 244.836 107.475L245.008 108.478C243.719 108.69 242.414 108.886 241.117 109.049ZM213.666 109C212.385 108.845 211.072 108.674 209.775 108.478L209.922 107.467C211.21 107.654 212.516 107.834 213.788 107.981L213.666 109ZM205.892 107.858C204.619 107.638 203.322 107.393 202.033 107.132L202.237 106.129C203.518 106.39 204.807 106.635 206.071 106.855L205.892 107.858ZM248.875 107.76L248.671 106.757C249.935 106.496 251.208 106.21 252.464 105.892L252.709 106.887C251.436 107.206 250.147 107.499 248.875 107.76ZM198.191 106.308C196.934 106.023 195.654 105.713 194.373 105.395L194.618 104.408C195.89 104.726 197.171 105.028 198.411 105.313L198.191 106.308ZM256.51 105.876L256.225 104.897C257.456 104.546 258.705 104.163 259.953 103.755L260.271 104.726C259.015 105.134 257.75 105.517 256.51 105.876ZM411.017 104.848C410.128 103.918 409.198 102.996 408.251 102.115L408.953 101.373C409.907 102.27 410.845 103.2 411.751 104.138L411.017 104.848ZM190.571 104.399C189.332 104.057 188.059 103.698 186.794 103.331L187.08 102.352C188.336 102.719 189.601 103.078 190.833 103.42L190.571 104.399ZM113.285 103.502L112.584 102.76C113.538 101.862 114.558 100.998 115.61 100.198L116.23 101.014C115.211 101.789 114.215 102.629 113.285 103.502ZM263.983 103.445L263.632 102.482C264.831 102.05 266.055 101.585 267.278 101.096L267.654 102.042C266.422 102.539 265.19 103.004 263.983 103.445ZM183.05 102.18C181.826 101.797 180.57 101.389 179.322 100.965L179.648 99.9942C180.888 100.41 182.145 100.818 183.36 101.202L183.05 102.18ZM271.284 100.541L270.884 99.6027C272.042 99.105 273.242 98.5748 274.449 98.0201L274.873 98.9501C273.658 99.5048 272.45 100.043 271.284 100.541ZM175.602 99.6924C174.387 99.26 173.147 98.8114 171.915 98.3545L172.274 97.4001C173.497 97.8569 174.737 98.3056 175.945 98.7298L175.602 99.6924ZM405.364 99.5129C404.385 98.6727 403.373 97.8488 402.353 97.0493L402.981 96.2417C404.018 97.0493 405.045 97.8814 406.032 98.7298L405.364 99.5129ZM119.428 98.844L118.898 97.9711C120.016 97.294 121.19 96.6577 122.381 96.0867L122.822 97.0085C121.655 97.5632 120.513 98.1832 119.428 98.844ZM278.414 97.2777L277.973 96.3559C279.099 95.8093 280.241 95.2465 281.473 94.6265L281.929 95.5401C280.698 96.1683 279.547 96.7312 278.414 97.2777ZM168.244 97.033C167.004 96.6088 165.756 96.2091 164.532 95.8501L164.826 94.8712C166.066 95.2383 167.322 95.638 168.578 96.0704L168.244 97.033ZM126.387 95.4993L126.036 94.5449C127.26 94.0962 128.524 93.6883 129.805 93.3376L130.074 94.3246C128.818 94.6673 127.578 95.0588 126.387 95.4993ZM160.78 94.8223C159.507 94.5041 158.234 94.2186 156.986 93.9739L157.19 92.9705C158.455 93.2234 159.752 93.517 161.032 93.8352L160.78 94.8223ZM399.221 94.7325C398.168 93.9902 397.083 93.256 395.999 92.5544L396.553 91.6979C397.655 92.4076 398.756 93.1499 399.816 93.9004L399.221 94.7325ZM285.421 93.7618L284.956 92.8563C285.992 92.3178 287.093 91.7468 288.423 91.0534L288.896 91.9589C287.566 92.6523 286.465 93.2315 285.421 93.7618ZM133.843 93.4681L133.655 92.4647C134.928 92.2281 136.241 92.0405 137.563 91.8936L137.669 92.9052C136.38 93.0439 135.091 93.2315 133.843 93.4681ZM153.152 93.3131C151.855 93.1255 150.558 92.9705 149.294 92.8563L149.383 91.8365C150.672 91.9507 151.986 92.1057 153.299 92.3015L153.152 93.3131ZM141.536 92.6278L141.495 91.6081C142.784 91.5592 144.113 91.5592 145.443 91.6L145.41 92.6197C144.113 92.5789 142.808 92.587 141.536 92.6278ZM392.67 90.5232C391.561 89.8705 390.41 89.2424 389.26 88.6306L389.733 87.7251C390.9 88.3369 392.058 88.9813 393.184 89.634L392.67 90.5232ZM292.363 90.1316L291.89 89.2261C293.048 88.6143 294.199 88.0106 295.357 87.4069L295.83 88.3124C294.672 88.9161 293.513 89.5279 292.363 90.1316ZM385.761 86.8848C384.594 86.3301 383.395 85.7917 382.204 85.2778L382.604 84.3396C383.811 84.8536 385.026 85.4001 386.201 85.963L385.761 86.8848ZM299.297 86.5177L298.832 85.6122C300.08 84.9759 301.222 84.3967 302.332 83.842L302.789 84.7557C301.679 85.3022 300.537 85.8814 299.297 86.5177ZM378.59 83.8257C377.391 83.3689 376.151 82.9202 374.927 82.5041L375.253 81.5334C376.493 81.9494 377.742 82.3981 378.957 82.8631L378.59 83.8257ZM306.297 83.0507L305.864 82.1289C307.014 81.5905 308.238 81.0765 309.511 80.5952L309.87 81.5497C308.63 82.0147 307.422 82.5205 306.297 83.0507ZM371.207 81.3213C369.975 80.9542 368.711 80.6034 367.455 80.2771L367.708 79.29C368.972 79.6163 370.253 79.9753 371.501 80.3424L371.207 81.3213ZM313.541 80.2934L313.239 79.3145C314.462 78.9392 315.743 78.5884 317.04 78.2703L317.285 79.2655C316.012 79.5837 314.748 79.9263 313.541 80.2934ZM363.661 79.3716C362.397 79.0942 361.116 78.8332 359.835 78.5966L360.023 77.5932C361.312 77.8298 362.609 78.0908 363.882 78.3763L363.661 79.3716ZM321.095 78.4335L320.899 77.4301C322.163 77.1853 323.468 76.9651 324.782 76.7693L324.929 77.7808C323.632 77.9766 322.343 78.1887 321.095 78.4335ZM355.993 77.9603C354.712 77.7727 353.415 77.6014 352.126 77.4545L352.241 76.443C353.538 76.5898 354.851 76.7611 356.14 76.9569L355.993 77.9603ZM328.787 77.2914L328.681 76.2798C329.97 76.1411 331.292 76.0351 332.605 75.9454L332.67 76.9651C331.373 77.0548 330.068 77.1609 328.787 77.2914ZM348.252 77.0874C346.954 76.9895 345.649 76.908 344.36 76.8509L344.401 75.8311C345.706 75.8883 347.028 75.9698 348.325 76.0677L348.252 77.0874ZM336.562 76.7856L336.529 75.7659C337.54 75.7414 338.568 75.7251 339.588 75.7251C339.882 75.7251 340.175 75.7251 340.469 75.7251L340.461 76.7448C340.159 76.7448 339.865 76.7448 339.564 76.7448C338.56 76.7448 337.557 76.753 336.562 76.7856Z" fill="#C2BEBC"/>
<path d="M355.186 254.599C355.129 254.338 354.289 250.357 354.093 249.354C354.085 249.321 354.077 249.288 354.077 249.264C354.077 249.248 354.077 249.239 354.068 249.223L354.623 248.081L355.186 254.599Z" fill="#C96442"/>
<path d="M121.941 166.039L103.432 154.79L109.941 154.594L121.941 166.039Z" fill="#896EEA"/>
<path d="M121.94 166.039L116.466 156.478L111.596 156.168L121.94 166.039Z" fill="#A78BEF"/>
<path d="M107.69 157.376L107.225 159.741L121.941 166.039L107.69 157.376Z" fill="#A78BEF"/>
<g clip-path="url(#clip1_856_15830)">
<path d="M161.37 238.969C136.587 238.969 116.5 259.055 116.5 283.839C116.5 308.617 136.587 328.709 161.37 328.709C186.148 328.709 206.24 308.622 206.24 283.839C206.235 259.055 186.148 238.969 161.37 238.969ZM161.37 322.96C139.764 322.96 122.244 305.444 122.244 283.833C122.244 262.228 139.759 244.707 161.37 244.707C182.975 244.707 200.496 262.223 200.496 283.833C200.491 305.444 182.975 322.96 161.37 322.96Z" fill="#E527BB"/>
<path d="M189.036 311.503C204.316 296.223 204.316 271.45 189.036 256.17C173.756 240.89 148.983 240.89 133.703 256.17C118.424 271.45 118.424 296.223 133.703 311.503C148.983 326.782 173.756 326.782 189.036 311.503Z" fill="#A78BEF"/>
</g>
<path d="M161.337 244.712C139.732 244.712 122.211 262.228 122.211 283.839C122.211 305.444 139.727 322.965 161.337 322.965C182.943 322.965 200.464 305.449 200.464 283.839C200.459 262.228 182.943 244.712 161.337 244.712ZM128.582 284.284H125.71C125.316 284.284 124.995 283.963 124.995 283.569C124.995 283.175 125.316 282.854 125.71 282.854H128.582C128.976 282.854 129.302 283.175 129.302 283.569C129.302 283.958 128.981 284.284 128.582 284.284ZM160.974 247.584C160.974 247.19 161.296 246.869 161.695 246.869C162.089 246.869 162.41 247.19 162.41 247.584V250.456C162.41 250.85 162.089 251.171 161.695 251.171C161.301 251.171 160.974 250.85 160.974 250.456V247.584ZM138.788 307.486L136.756 309.518C136.476 309.798 136.02 309.798 135.74 309.518C135.46 309.239 135.46 308.782 135.74 308.502L137.772 306.47C138.052 306.191 138.508 306.191 138.788 306.47C139.068 306.75 139.068 307.207 138.788 307.486ZM138.788 260.662C138.508 260.942 138.052 260.942 137.772 260.662L135.74 258.63C135.46 258.35 135.46 257.894 135.74 257.614C136.02 257.334 136.476 257.334 136.756 257.614L138.788 259.646C139.068 259.926 139.068 260.382 138.788 260.662ZM162.41 319.549C162.41 319.943 162.089 320.264 161.695 320.264C161.301 320.264 160.974 319.943 160.974 319.549V316.677C160.974 316.283 161.296 315.962 161.695 315.962C162.089 315.962 162.41 316.283 162.41 316.677V319.549ZM176.754 274.684L161.902 289.535C161.4 290.038 160.726 290.308 160.041 290.308C159.699 290.308 159.357 290.24 159.031 290.106C158.046 289.696 157.403 288.742 157.403 287.674V263.109C157.403 262.098 158.222 261.279 159.233 261.279C160.244 261.279 161.063 262.098 161.063 263.109V285.202L174.167 272.098C174.882 271.382 176.038 271.382 176.754 272.098C177.464 272.813 177.464 273.969 176.754 274.684ZM187.644 309.518C187.365 309.798 186.908 309.798 186.628 309.518L184.596 307.486C184.317 307.207 184.317 306.75 184.596 306.47C184.876 306.191 185.333 306.191 185.612 306.47L187.644 308.502C187.924 308.782 187.924 309.239 187.644 309.518ZM187.644 258.63L185.612 260.662C185.333 260.942 184.876 260.942 184.596 260.662C184.317 260.382 184.317 259.926 184.596 259.646L186.628 257.614C186.908 257.334 187.365 257.334 187.644 257.614C187.924 257.894 187.924 258.35 187.644 258.63ZM197.675 284.284H194.803C194.409 284.284 194.088 283.963 194.088 283.569C194.088 283.175 194.409 282.854 194.803 282.854H197.675C198.069 282.854 198.39 283.175 198.39 283.569C198.395 283.958 198.069 284.284 197.675 284.284Z" fill="#F8F5F5"/>
</g>
<defs>
<clipPath id="clip0_856_15830">
<rect width="542.64" height="328.79" fill="white"/>
</clipPath>
<clipPath id="clip1_856_15830">
<rect width="89.7346" height="89.7346" fill="white" transform="translate(116.5 238.969)"/>
</clipPath>
</defs>
</svg>
