<svg width="533" height="331" viewBox="0 0 533 331" fill="none" xmlns="http://www.w3.org/2000/svg">
<g clip-path="url(#clip0_856_15402)">
<path opacity="0.2" fill-rule="evenodd" clip-rule="evenodd" d="M95.62 234.95H48.52H47.29C21.28 234.95 0 256.23 0 282.24C0 308.25 21.28 329.53 47.29 329.53H185.35H209.13H455.92C498.04 329.53 532.5 295.07 532.5 252.96C532.5 210.84 498.04 176.39 455.93 176.39C438.12 176.39 423.55 161.82 423.55 144.01C423.55 126.2 438.12 111.63 455.93 111.63H494.9C513.41 111.63 528.56 96.48 528.56 77.97C528.56 59.46 513.41 44.31 494.9 44.31H445.63C438.42 44.31 432.53 38.41 432.53 31.2C432.53 23.99 438.43 18.1 445.63 18.1H454.32C459.29 18.1 463.36 14.03 463.36 9.06C463.36 4.09 459.29 0.02 454.32 0.02H421.77C421.77 0.02 409.33 0.02 397.33 0.02C385.33 0.02 383.99 14.2 353.67 14.2C306.8 14.2 330.23 14.2 283.36 14.2C276.87 14.2 271.56 19.51 271.56 26C271.56 32.49 276.87 37.8 283.36 37.8H294.69C304.1 37.8 311.79 45.5 311.79 54.9C311.79 64.31 304.1 72 294.69 72H260.58C214.52 72 208.01 84.04 199.95 107.98C191.88 131.92 149.99 133.85 149.99 133.85H92.67C78.5 133.85 66.9 145.45 66.9 159.62C66.9 173.79 78.5 185.39 92.67 185.39H95.62C109.25 185.39 120.41 196.54 120.41 210.18C120.4 223.8 109.25 234.95 95.62 234.95ZM479.68 18.09C474.68 18.09 470.63 14.04 470.63 9.05C470.63 4.06 474.68 0 479.68 0C484.67 0 488.72 4.05 488.72 9.04C488.72 14.03 484.67 18.09 479.68 18.09Z" fill="#999999"/>
<path d="M135.495 328.772C135.495 328.772 116.46 291.648 118.533 279.271C120.606 266.894 127.568 254.637 138.378 252.271C149.189 249.905 149.009 263.464 143.263 275.308C137.931 286.3 139.814 317.972 141.285 325.593C141.441 326.398 141.064 327.213 140.358 327.602L135.974 330.011L135.495 328.772Z" fill="#6EE213"/>
<path d="M133.413 310.828C133.179 310.92 132.923 310.862 132.815 310.683C132.647 310.402 128.693 303.728 128.201 298.233C127.934 295.255 128.125 293.787 128.309 292.368C128.465 291.169 128.611 290.037 128.462 288.028C128.374 286.826 128.051 285.631 127.709 284.365C126.837 281.135 125.849 277.474 128.846 272.836C130.81 269.796 131.96 267.099 132.884 264.931C133.873 262.613 134.653 260.783 135.977 259.481C138.351 257.145 139.529 254.73 139.54 254.705C139.651 254.475 139.946 254.336 140.2 254.394C140.454 254.453 140.57 254.687 140.459 254.917C140.408 255.022 139.193 257.516 136.686 259.983C135.512 261.137 134.766 262.888 133.82 265.105C132.882 267.305 131.714 270.043 129.705 273.154C126.914 277.473 127.816 280.816 128.689 284.047C129.039 285.344 129.37 286.569 129.464 287.838C129.619 289.918 129.466 291.087 129.306 292.324C129.127 293.704 128.942 295.131 129.202 298.03C129.68 303.37 133.685 310.13 133.725 310.197C133.843 310.393 133.734 310.661 133.483 310.794C133.459 310.808 133.437 310.819 133.413 310.828Z" fill="#4FB29F"/>
<path d="M134.739 328.834C134.739 328.834 141.301 299.61 148.051 293.893C154.802 288.177 164.146 284.865 171.081 288.754C178.016 292.644 171.753 299.904 163.255 303.575C155.368 306.981 141.99 325.047 139.323 329.881C139.04 330.392 138.465 330.653 137.906 330.525L134.436 329.734L134.739 328.834Z" fill="#6EE213"/>
<path d="M138.798 325.429C138.606 325.373 138.469 325.21 138.483 325.044C138.507 324.782 139.081 318.586 141.319 314.836C142.531 312.803 143.335 311.959 144.111 311.142C144.768 310.452 145.388 309.8 146.225 308.445C146.727 307.634 147.076 306.712 147.445 305.737C148.389 303.248 149.457 300.426 153.526 298.927C156.193 297.945 158.18 296.784 159.777 295.85C161.485 294.853 162.833 294.065 164.284 293.88C166.885 293.548 168.76 292.58 168.778 292.57C168.955 292.477 169.21 292.533 169.344 292.694C169.479 292.855 169.445 293.062 169.267 293.155C169.186 293.197 167.251 294.196 164.504 294.547C163.219 294.71 161.929 295.465 160.295 296.42C158.673 297.367 156.656 298.546 153.927 299.55C150.137 300.946 149.162 303.521 148.219 306.012C147.84 307.011 147.482 307.955 146.953 308.812C146.085 310.216 145.446 310.888 144.768 311.6C144.013 312.394 143.232 313.215 142.051 315.195C139.876 318.84 139.295 325.114 139.289 325.178C139.272 325.361 139.08 325.478 138.857 325.441C138.836 325.439 138.817 325.435 138.798 325.429Z" fill="#317C6D"/>
<path d="M136.731 329.944L135.428 330.577C132.9 331.803 130.076 332.239 127.308 331.828C127.308 331.828 109.594 301.54 104.239 298.024C98.8849 294.509 92.1251 299.356 85.4595 289.765C78.7938 280.174 57.8107 278.137 60.1865 268.547C62.5623 258.956 86.5028 256.156 105.93 268.07C125.358 279.986 136.731 329.944 136.731 329.944Z" fill="#6EE213"/>
<path d="M130.653 327.423C130.618 327.437 130.579 327.448 130.539 327.453C130.258 327.492 129.998 327.291 129.96 327.003C129.946 326.899 128.563 316.66 126.776 312.137C125.913 309.951 123.468 306.229 120.637 301.92C117.531 297.192 114.011 291.833 111.405 286.759C108.305 280.722 106.134 280.071 102.191 278.888C99.9027 278.202 97.0551 277.347 93.1743 275.224C82.7802 269.535 67.4564 269.356 67.3029 269.355C67.0194 269.353 66.7907 269.115 66.793 268.824C66.7952 268.532 67.0272 268.298 67.3107 268.3C67.4665 268.301 83.0436 268.484 93.6584 274.293C97.4451 276.366 100.237 277.203 102.479 277.876C106.553 279.097 109.012 279.836 112.315 286.268C114.895 291.292 118.398 296.626 121.49 301.331C124.353 305.69 126.826 309.454 127.73 311.741C129.565 316.387 130.922 326.434 130.98 326.86C131.012 327.107 130.872 327.338 130.653 327.423Z" fill="#317C6D"/>
<path d="M107.171 309.931C99.4495 307.233 86.5832 308.162 86.9206 312.91C87.2579 317.658 95.3781 318.768 95.3781 318.768C95.3781 318.768 99.0707 318.337 101.538 318.16C104.005 317.984 103.215 320.592 105.521 321.758C107.827 322.924 110.957 323.052 112.854 324.003C114.75 324.955 117.614 324.96 119.849 326.23C121.291 327.05 123.222 329.613 124.41 331.327C125.068 332.275 126.266 332.649 127.326 332.233L129.183 331.506C129.183 331.506 114.892 312.629 107.171 309.931Z" fill="#6EE213"/>
<path d="M427.365 94.5617C427.365 94.5617 433.77 94.0427 439.627 103.042C424.348 99.5606 416.113 102.448 416.113 102.448C416.113 102.448 420.45 94.147 427.365 94.5617Z" fill="#900F73"/>
<path d="M388.076 99.8877C389.522 100.862 391.366 100.955 393.109 101.005C403.793 101.313 414.484 101.224 425.173 101.133C421.439 96.7169 418.762 91.3537 416.774 85.9233C420.825 84.121 422.305 78.629 420.598 74.5368C418.891 70.4447 414.768 67.7626 410.477 66.6462C406.941 65.726 403.104 65.7227 399.706 67.0654C396.309 68.4082 393.412 71.1833 392.321 74.6702C391.231 78.1571 391.51 82.9554 394.252 85.3696C392.436 89.0348 390.171 92.4757 387.524 95.5938C386.395 96.922 386.632 98.9137 388.076 99.8877ZM397.255 74.5189C398.939 68.5158 406.298 70.4727 407.755 71.6249C408.818 72.4656 409.661 73.6222 410.065 74.9549C410.449 76.2237 410.464 77.6494 409.91 78.8487C409.314 80.141 408.118 81.0489 406.833 81.5611C404.631 82.4398 402.016 82.2336 400.058 80.865C398.1 79.4976 396.593 76.8827 397.255 74.5189Z" fill="#E527BB"/>
<path d="M416.282 101.197C414.852 95.9772 413.013 90.8573 410.65 85.9962C414.784 84.7375 417.879 80.6375 417.956 76.3168C418.015 72.9845 416.274 69.7252 413.602 67.7615C416.663 69.1782 419.314 71.4568 420.598 74.5358C422.305 78.6279 420.825 84.12 416.775 85.9222C418.763 91.3527 421.44 96.7169 425.174 101.132C422.209 101.158 419.246 101.18 416.282 101.197Z" fill="#900F73"/>
<path d="M466.691 97.9631H328.826L311.207 298.959L447.399 315.382L466.691 97.9631Z" fill="#E527BB"/>
<path d="M466.692 97.9631L471.869 101.735L452.459 313.382L447.4 315.382L466.692 97.9631Z" fill="#DAA7EE"/>
<path d="M311.207 298.959L323.352 160.403L333.06 106.434L454.984 104.028C454.984 104.028 456.304 262.756 431.441 313.458L311.207 298.959Z" fill="#A78BEF"/>
<g opacity="0.68">
<path d="M302.221 290.17C327.451 290.942 355.736 289.58 383.143 293.487C400.185 295.917 416.886 298.738 432.302 301.686C447.398 256.108 455.971 139.917 455.971 108.751C414.984 108.017 373.999 107.281 333.013 106.545C328.912 167.113 313.973 230.612 302.221 290.17Z" fill="#AED6F4"/>
</g>
<path d="M295.119 286.02C320.35 286.792 348.635 289.685 376.042 293.592C376.053 293.594 376.064 293.596 376.075 293.597C377.605 293.786 379.103 293.935 380.57 294.048C412.758 296.495 429.89 280.974 429.89 280.974C439.627 230.467 448.869 140.022 448.869 108.858C407.884 108.124 366.897 107.387 325.911 106.652C321.81 167.219 306.87 226.464 295.119 286.02Z" fill="#FFF7F2"/>
<path d="M433.8 280.031C433.8 280.031 415.465 269.118 416.394 260.975C416.394 260.975 391.573 292.734 384.486 293.103L420.239 280.616L433.8 280.031Z" fill="#D9ECF9"/>
<path d="M384.48 293.104C416.668 295.552 433.8 280.031 433.8 280.031C433.8 280.031 422.418 279.156 417.476 268.576C417.476 268.576 403.167 291.651 384.487 293.103C384.485 293.103 384.483 293.103 384.48 293.104Z" fill="white"/>
<g opacity="0.41">
<path d="M364.213 118.957C364.213 118.957 353.032 114.347 357.065 97.9631H374.308L364.213 118.957Z" fill="#518798"/>
</g>
<path d="M414.143 96.0895C405.459 95.6939 396.775 95.2982 388.092 94.9025C389.792 92.8268 391.327 90.6165 392.674 88.2964C395.641 88.534 398.561 89.1583 401.402 90.0942C405.868 91.5658 410.078 93.7268 414.143 96.0895Z" fill="#900F73"/>
<path d="M420.644 118.919L364.213 118.958C361.241 112.523 362.538 104.791 364.907 97.8042C365.683 95.5188 367.711 93.8959 370.114 93.6739C388.442 91.9815 407.201 91.8593 427.363 94.5605C421.08 97.8703 420.087 109.859 420.644 118.919Z" fill="#E527BB"/>
<path d="M417.551 100.919C417.551 100.919 414.007 110.532 416.114 115.241H366.561L410.341 108.562C410.341 108.562 413.547 102.109 417.551 100.919Z" fill="#900F73"/>
<path d="M393.312 95.6275C395.528 95.6746 401.535 96.4715 403.464 97.3154C404.03 97.5631 404.673 98.0204 404.56 98.6268C404.461 99.1536 403.855 99.3923 403.337 99.528C395.388 101.616 387.08 101.521 378.944 100.92C377.346 100.802 369.146 101.035 369.491 98.8566C369.953 95.9447 377.083 96.2944 379.089 96.115C383.816 95.6914 388.567 95.5277 393.312 95.6275Z" fill="#E527BB"/>
<path d="M410.908 100.193C413.088 100.193 414.855 99.5089 414.855 98.6651C414.855 97.8214 413.088 97.1375 410.908 97.1375C408.728 97.1375 406.961 97.8214 406.961 98.6651C406.961 99.5089 408.728 100.193 410.908 100.193Z" fill="#E527BB"/>
<path d="M329.661 182.672L351.998 183.702L347.853 210.805L325.516 209.775L329.661 182.672ZM348.857 186.277L331.977 185.499L328.658 207.2L345.537 207.978L348.857 186.277Z" fill="#DAA7EE"/>
<path d="M316.76 256.835L321.382 229.81L343.698 231.233L339.075 258.258L316.76 256.835ZM323.648 232.677L319.947 254.315L336.809 255.391L340.511 233.753L323.648 232.677Z" fill="#DAA7EE"/>
<path d="M360.067 196.58C359.216 196.421 358.61 195.637 358.691 194.757C358.776 193.823 359.602 193.135 360.537 193.221L430.641 199.633C431.572 199.712 432.263 200.545 432.177 201.479C432.091 202.413 431.265 203.101 430.331 203.015L360.226 196.603C360.173 196.597 360.12 196.589 360.067 196.58Z" fill="#DAA7EE"/>
<path d="M359.395 203.816C358.544 203.657 357.939 202.873 358.019 201.993C358.104 201.059 358.93 200.371 359.864 200.456L411.261 204.978C412.19 205.059 412.883 205.889 412.796 206.824C412.711 207.757 411.885 208.445 410.951 208.359L359.554 203.839C359.5 203.834 359.446 203.826 359.395 203.816Z" fill="#DAA7EE"/>
<path d="M358.37 211.054C357.519 210.895 356.914 210.11 356.993 209.231C357.079 208.298 357.904 207.609 358.839 207.695L393.892 210.9C394.819 210.993 395.514 211.813 395.427 212.746C395.342 213.68 394.516 214.368 393.582 214.283L358.529 211.077C358.476 211.071 358.422 211.064 358.37 211.054Z" fill="#DAA7EE"/>
<path d="M361.151 189.357C360.3 189.198 359.695 188.413 359.775 187.533C359.86 186.599 360.686 185.911 361.62 185.998L396.673 189.204C397.602 189.287 398.295 190.115 398.209 191.05C398.123 191.984 397.297 192.672 396.363 192.586L361.31 189.379C361.257 189.375 361.203 189.367 361.151 189.357Z" fill="#DAA7EE"/>
<path d="M351.936 243.266C351.086 243.107 350.479 242.322 350.56 241.443C350.645 240.509 351.471 239.821 352.406 239.907L422.51 246.319C423.442 246.398 424.132 247.23 424.046 248.165C423.961 249.099 423.135 249.787 422.2 249.701L352.095 243.289C352.041 243.284 351.989 243.276 351.936 243.266Z" fill="#DAA7EE"/>
<path d="M351.264 250.503C350.413 250.344 349.808 249.56 349.888 248.68C349.973 247.746 350.799 247.058 351.734 247.144L401.022 251.697C401.951 251.779 402.644 252.608 402.557 253.543C402.472 254.477 401.646 255.165 400.712 255.079L351.423 250.526C351.371 250.52 351.317 250.513 351.264 250.503Z" fill="#DAA7EE"/>
<path d="M350.239 257.739C349.388 257.58 348.783 256.796 348.862 255.917C348.948 254.983 349.774 254.295 350.708 254.38L385.761 257.586C386.688 257.679 387.383 258.498 387.296 259.432C387.211 260.365 386.385 261.054 385.451 260.968L350.398 257.763C350.344 257.757 350.291 257.749 350.239 257.739Z" fill="#DAA7EE"/>
<path d="M353.02 236.044C352.169 235.885 351.564 235.1 351.644 234.22C351.729 233.286 352.555 232.598 353.489 232.685L388.542 235.891C389.471 235.974 390.164 236.802 390.079 237.737C389.994 238.671 389.168 239.359 388.233 239.273L353.18 236.066C353.125 236.06 353.073 236.054 353.02 236.044Z" fill="#DAA7EE"/>
<path d="M326.877 185.582C331.202 188.299 335.049 191.477 337.681 196.126C343.791 191.319 349.305 186.962 356.988 183.944C348.939 189.893 342.083 196.963 336.687 204.876C335.105 198.253 331.71 191.381 326.877 185.582Z" fill="#E527BB"/>
<path d="M320.422 231.885C324.462 235.01 327.982 238.548 330.15 243.431C336.698 239.241 342.609 235.441 350.55 233.183C341.961 238.321 334.45 244.691 328.311 252.041C327.379 245.296 324.669 238.126 320.422 231.885Z" fill="#E527BB"/>
<path d="M351.903 155.224C352.016 155.54 352.363 155.705 352.681 155.592C352.997 155.478 353.162 155.131 353.049 154.816C352.936 154.5 352.589 154.335 352.271 154.448C351.955 154.56 351.79 154.908 351.903 155.224Z" fill="#B2114C"/>
<path d="M364.459 150.051C367.582 154.09 370.961 158.354 371.911 163.565C373.609 170.63 368.274 174.499 362.405 176.667C361.1 177.193 359.821 177.675 358.585 178.191C357.773 178.535 356.834 178.154 356.494 177.34C356.189 176.608 356.471 175.779 357.127 175.375C358.335 174.63 359.543 173.942 360.7 173.245C363.463 171.496 367.757 169.237 366.282 165.492C365.098 160.94 361.507 157.796 358.53 154.334C355.421 150.321 361.607 145.836 364.459 150.051Z" fill="#FABA97"/>
<path d="M371.395 160.313C374.147 169.315 370.316 174.147 366.147 176.266C363.985 177.366 362.083 177.814 360.752 177.991C359.516 178.156 358.774 178.088 358.774 178.088C358.898 176.158 357.512 175.232 357.512 175.232C357.481 174.721 357.819 174.131 358.366 173.503C360.166 171.433 363.48 169.391 363.777 167.172C364.168 164.252 363.744 160.601 360.624 157.357C356.434 153.001 356.768 149.336 356.768 149.336C356.768 149.336 356.927 147.606 359.44 146.96C362.315 146.22 368.161 149.734 371.395 160.313Z" fill="#A78BEF"/>
<path d="M359.44 146.96C359.44 146.96 359.867 148.379 358.549 149.02C357.231 149.661 357.855 151.145 356.243 151.31C354.63 151.475 354.349 149.94 352.865 150.881C351.264 151.895 350.322 150.448 350.719 149.586C351.115 148.724 349.789 149.034 350.196 147.798C350.196 147.798 351.571 146.774 352.6 147.451C352.6 147.451 352.87 148.797 353.852 148.887C354.498 148.946 356.115 147.951 356.972 147.182C356.971 147.181 358.258 146.496 359.44 146.96Z" fill="#B2114C"/>
<path d="M352.146 147.19C352.146 147.19 351.745 148.899 353.832 148.98C355.918 149.06 358.073 146.788 358.073 146.788L352.146 147.19Z" fill="#FABA97"/>
<path d="M218.561 126.943L218.836 130.837C226.004 130.844 228.797 126.136 231.157 124.498L224.417 119.33L218.561 126.943Z" fill="#EAA69B"/>
<path d="M228.01 121.382C227.922 121.525 227.858 121.688 227.83 121.864C227.822 121.912 227.818 121.957 227.816 122.004C227.782 122.491 228.015 122.949 228.403 123.211C228.551 123.314 228.72 123.387 228.904 123.424L230.06 123.659L231.694 123.989C231.929 124.035 232.158 124.018 232.367 123.947C232.661 123.851 232.914 123.654 233.076 123.386C233.163 123.242 233.224 123.078 233.252 122.902C233.354 122.259 232.968 121.647 232.363 121.45L232.36 121.448C232.327 121.437 232.293 121.429 232.258 121.421L229.483 120.765C229.457 120.759 229.428 120.754 229.4 120.75C228.836 120.651 228.292 120.919 228.01 121.382Z" fill="#EAA69B"/>
<path d="M234.403 114.425C234.213 113.79 233.518 113.458 232.904 113.706L227.614 115.855L223.314 119.776L226.288 123.666L230.208 117.685L233.856 115.74C234.328 115.488 234.557 114.937 234.403 114.425Z" fill="#EAA69B"/>
<path d="M223.314 119.776L224.195 118.972L228.417 117.738L229.636 118.557L226.053 123.796L223.314 119.776Z" fill="#D76B5E"/>
<path d="M233.287 125.481C233.207 125.942 232.886 126.346 232.409 126.51L229.706 127.419C229.012 127.651 228.252 127.29 227.995 126.603C227.923 126.405 227.902 126.2 227.92 126.002C227.921 125.963 227.927 125.93 227.932 125.898C227.937 125.871 227.942 125.838 227.953 125.811C228.06 125.354 228.401 124.965 228.884 124.825L231.61 124.005C231.999 123.892 232.406 123.963 232.722 124.181C232.767 124.211 232.812 124.247 232.855 124.281C233.012 124.409 233.139 124.582 233.216 124.786C233.305 125.019 233.325 125.258 233.287 125.481Z" fill="#EAA69B"/>
<path d="M232.724 124.179C232.617 124.407 232.442 124.606 232.206 124.744L229.756 126.196C229.144 126.56 228.173 126.53 227.756 125.667C227.862 125.209 228.402 124.965 228.885 124.825L231.612 124.005C232.001 123.893 232.409 123.963 232.724 124.179Z" fill="#D76B5E"/>
<path d="M231.285 123.38C231.25 123.748 231.062 124.101 230.736 124.331L229.11 125.431C228.511 125.857 227.681 125.724 227.243 125.14C227.051 124.879 226.963 124.582 226.974 124.284C226.971 124.256 226.974 124.223 226.976 124.195C227.014 123.794 227.221 123.421 227.58 123.183L229.255 122.154C229.538 121.97 229.87 121.907 230.181 121.959C230.504 122.006 230.803 122.178 231.015 122.452C231.229 122.727 231.315 123.056 231.285 123.38Z" fill="#D76B5E"/>
<path d="M227.573 124.253C227.568 124.281 227.563 124.313 227.561 124.343C227.557 124.38 227.557 124.415 227.555 124.448L227.558 124.451C227.548 124.712 227.615 124.975 227.766 125.216C228.156 125.835 228.973 126.03 229.605 125.653L232.059 124.205C232.177 124.132 232.282 124.047 232.369 123.947C232.534 123.763 232.641 123.535 232.682 123.297C232.737 122.977 232.677 122.643 232.487 122.351C232.376 122.188 232.241 122.058 232.083 121.957C231.962 121.883 231.829 121.828 231.691 121.796C231.387 121.72 231.05 121.756 230.754 121.917L228.404 123.21L228.253 123.293C227.877 123.502 227.643 123.859 227.573 124.253Z" fill="#EAA69B"/>
<path d="M228.419 123.186L228.268 123.269C227.891 123.478 227.657 123.834 227.586 124.23C227.582 124.258 227.576 124.289 227.575 124.319C227.571 124.356 227.571 124.391 227.568 124.425L227.572 124.427C228.057 124.767 228.73 124.752 229.209 124.355L230.076 123.636L231.955 122.074C232.007 122.032 232.058 121.984 232.097 121.933C232.231 121.783 232.323 121.612 232.379 121.427L232.376 121.424C232.343 121.413 232.309 121.405 232.274 121.397L229.499 120.742C229.473 120.735 229.444 120.731 229.416 120.726L227.831 121.98C227.798 122.467 228.031 122.924 228.419 123.186Z" fill="#D76B5E"/>
<path d="M226.991 119.669C226.869 119.871 226.798 120.103 226.793 120.354C226.782 121.091 227.36 121.702 228.092 121.736L229.011 121.779L230.938 121.863C231.228 121.877 231.501 121.794 231.723 121.644C231.885 121.542 232.02 121.401 232.121 121.234C232.243 121.032 232.311 120.798 232.31 120.548C232.31 119.865 231.782 119.294 231.102 119.239L230.182 119.169L229.205 119.091L228.259 119.019C227.729 118.975 227.25 119.244 226.991 119.669Z" fill="#EAA69B"/>
<path d="M230.429 121.353C230.452 121.721 230.32 122.099 230.033 122.376L228.595 123.712C228.068 124.224 227.228 124.22 226.705 123.71C226.476 123.481 226.344 123.201 226.309 122.905C226.302 122.878 226.3 122.844 226.298 122.817C226.273 122.415 226.421 122.015 226.74 121.725L228.237 120.451C228.488 120.226 228.808 120.113 229.123 120.116C229.449 120.113 229.77 120.237 230.023 120.476C230.275 120.715 230.409 121.028 230.429 121.353Z" fill="#D76B5E"/>
<path d="M231.805 121.031C231.798 121.401 231.638 121.767 231.33 122.021L229.125 123.83C228.561 124.299 227.723 124.23 227.242 123.681C227.031 123.434 226.92 123.146 226.909 122.848C226.904 122.82 226.904 122.787 226.904 122.759C226.911 122.357 227.089 121.968 227.43 121.705L229.688 119.963C229.956 119.758 230.283 119.67 230.597 119.697C230.922 119.72 231.233 119.869 231.466 120.126C231.701 120.383 231.811 120.705 231.805 121.031Z" fill="#EAA69B"/>
<path d="M220.297 126.848L224.345 120.79L228.639 119.639L228.228 122.276L226.694 123.231C226.694 123.232 226.626 129.193 220.297 126.848Z" fill="#D76B5E"/>
<path d="M228.642 119.639L230.649 121.259C231.085 121.61 231.158 122.247 230.812 122.689C230.505 123.081 229.962 123.196 229.523 122.962L228.23 122.274L228.642 119.639Z" fill="#E89076"/>
<path d="M218.561 126.943L223.314 119.776L228.379 118.399L227.903 121.514L226.096 122.648C226.096 122.647 226.041 129.684 218.561 126.943Z" fill="#EAA69B"/>
<path d="M229.209 119.092L228.43 121.315L229.014 121.78L229.781 122.387C229.822 122.421 229.865 122.451 229.907 122.477C230.357 122.752 230.937 122.706 231.339 122.346C231.554 122.158 231.684 121.908 231.727 121.645C231.787 121.301 231.699 120.937 231.455 120.652L230.187 119.17L229.209 119.092Z" fill="#D76B5E"/>
<path d="M228.379 118.399L230.755 120.303C231.272 120.717 231.36 121.469 230.955 121.991C230.594 122.455 229.953 122.594 229.433 122.32L227.904 121.514L228.379 118.399Z" fill="#EAA69B"/>
<path d="M171.412 305.819C171.412 303.672 173.305 301.933 175.638 301.933C177.974 301.933 179.865 303.671 179.865 305.819V314.268H171.412V305.819Z" fill="#FABDAA"/>
<path d="M179.553 307.396C180.596 307.396 180.786 307.808 181.081 308.357C181.381 308.906 181.828 310.74 183.542 312.266C185.259 313.793 188.93 315.782 188.93 315.782V320.258H170.119C170.119 320.258 170.249 316.726 170.342 314.238C170.436 311.752 170.696 308.699 170.678 308.373C170.66 308.048 170.678 307.395 171.313 307.395C171.945 307.396 179.553 307.396 179.553 307.396Z" fill="#A78BEF"/>
<path d="M188.794 315.708C188.794 315.708 191.471 317.011 192.466 317.64C193.461 318.27 193.857 319.081 193.919 320.258H186.574C186.575 320.258 186.764 316.977 188.794 315.708Z" fill="#A78BEF"/>
<path d="M170.119 320.258C170.119 320.258 170.119 321.802 170.119 322.111C170.119 322.42 170.417 322.591 170.926 322.591H193.113C193.623 322.591 193.92 322.42 193.92 322.111C193.92 321.802 193.92 320.258 193.92 320.258H170.119Z" fill="black"/>
<path d="M186.612 314.462C186.745 314.27 187.019 314.21 187.229 314.33C187.44 314.449 187.504 314.703 187.374 314.897L186.594 316.056C186.508 316.182 186.362 316.25 186.212 316.25C186.133 316.25 186.051 316.23 185.978 316.189C185.766 316.068 185.703 315.816 185.832 315.621L186.612 314.462Z" fill="white"/>
<path d="M185.235 313.57C185.395 313.397 185.675 313.376 185.866 313.521C186.054 313.669 186.079 313.929 185.92 314.103L185.006 315.096C184.918 315.191 184.791 315.241 184.666 315.241C184.564 315.241 184.461 315.209 184.377 315.144C184.186 314.998 184.164 314.737 184.322 314.563L185.235 313.57Z" fill="white"/>
<path d="M183.946 312.581C184.132 312.433 184.416 312.452 184.578 312.623C184.739 312.796 184.718 313.055 184.53 313.204L183.488 314.033C183.403 314.1 183.3 314.134 183.195 314.134C183.07 314.134 182.945 314.085 182.857 313.991C182.696 313.819 182.716 313.559 182.903 313.41L183.946 312.581Z" fill="white"/>
<path d="M181.68 312.089L182.855 311.425C183.064 311.305 183.341 311.366 183.471 311.558C183.6 311.752 183.535 312.006 183.323 312.125L182.15 312.789C182.076 312.83 181.995 312.85 181.916 312.85C181.764 312.85 181.617 312.78 181.533 312.655C181.403 312.461 181.47 312.206 181.68 312.089Z" fill="white"/>
<path d="M180.701 310.697L182.007 310.2C182.234 310.113 182.497 310.211 182.591 310.422C182.686 310.631 182.577 310.872 182.35 310.958L181.043 311.457C180.987 311.478 180.93 311.489 180.873 311.489C180.697 311.489 180.531 311.393 180.46 311.234C180.365 311.025 180.474 310.784 180.701 310.697Z" fill="white"/>
<path d="M179.884 309.16L181.321 308.826C181.559 308.771 181.803 308.903 181.865 309.125C181.926 309.345 181.781 309.57 181.541 309.625L180.104 309.959C180.069 309.968 180.03 309.97 179.994 309.97C179.794 309.97 179.612 309.846 179.561 309.66C179.5 309.439 179.646 309.215 179.884 309.16Z" fill="white"/>
<path d="M135.787 305.819C135.787 303.672 137.679 301.933 140.013 301.933C142.347 301.933 144.238 303.671 144.238 305.819V314.268H135.787V305.819Z" fill="#FABDAA"/>
<path d="M143.928 307.396C144.971 307.396 145.159 307.808 145.456 308.357C145.755 308.906 146.201 310.74 147.918 312.266C149.632 313.793 153.305 315.782 153.305 315.782V320.258H134.492C134.492 320.258 134.623 316.726 134.717 314.238C134.809 311.752 135.07 308.699 135.053 308.373C135.033 308.048 135.053 307.395 135.686 307.395C136.32 307.396 143.928 307.396 143.928 307.396Z" fill="#A78BEF"/>
<path d="M153.169 315.708C153.169 315.708 155.846 317.011 156.84 317.64C157.836 318.27 158.233 319.081 158.294 320.258H150.949C150.95 320.258 151.139 316.977 153.169 315.708Z" fill="#A78BEF"/>
<path d="M134.492 320.258C134.492 320.258 134.492 321.802 134.492 322.111C134.492 322.42 134.79 322.591 135.299 322.591H157.487C157.996 322.591 158.294 322.42 158.294 322.111C158.294 321.802 158.294 320.258 158.294 320.258H134.492Z" fill="black"/>
<path d="M150.986 314.462C151.116 314.27 151.392 314.21 151.602 314.33C151.812 314.449 151.878 314.703 151.747 314.897L150.966 316.056C150.881 316.182 150.734 316.25 150.585 316.25C150.505 316.25 150.422 316.23 150.349 316.189C150.139 316.068 150.074 315.816 150.204 315.621L150.986 314.462Z" fill="white"/>
<path d="M149.608 313.57C149.767 313.397 150.05 313.376 150.238 313.521C150.429 313.669 150.452 313.929 150.293 314.103L149.38 315.096C149.291 315.191 149.164 315.241 149.038 315.241C148.936 315.241 148.833 315.209 148.749 315.144C148.56 314.998 148.536 314.737 148.695 314.563L149.608 313.57Z" fill="white"/>
<path d="M148.321 312.581C148.507 312.433 148.79 312.452 148.953 312.623C149.114 312.796 149.094 313.055 148.907 313.204L147.863 314.033C147.779 314.1 147.675 314.134 147.57 314.134C147.444 314.134 147.321 314.085 147.231 313.991C147.071 313.819 147.09 313.559 147.279 313.41L148.321 312.581Z" fill="white"/>
<path d="M146.055 312.089L147.228 311.425C147.44 311.305 147.715 311.366 147.845 311.558C147.975 311.752 147.91 312.006 147.698 312.125L146.523 312.789C146.451 312.83 146.37 312.85 146.289 312.85C146.139 312.85 145.992 312.78 145.908 312.655C145.779 312.461 145.843 312.206 146.055 312.089Z" fill="white"/>
<path d="M145.076 310.697L146.382 310.2C146.611 310.113 146.872 310.211 146.966 310.422C147.06 310.631 146.954 310.872 146.724 310.958L145.419 311.457C145.364 311.478 145.306 311.489 145.248 311.489C145.074 311.489 144.905 311.393 144.835 311.234C144.741 311.025 144.848 310.784 145.076 310.697Z" fill="white"/>
<path d="M144.261 309.16L145.696 308.826C145.934 308.771 146.179 308.903 146.241 309.125C146.301 309.345 146.155 309.57 145.916 309.625L144.479 309.959C144.443 309.968 144.406 309.97 144.369 309.97C144.17 309.97 143.988 309.846 143.936 309.66C143.875 309.439 144.02 309.215 144.261 309.16Z" fill="white"/>
<path d="M146.015 148.091C146.015 148.091 144.52 144.446 144.629 140.591C144.737 136.736 149.719 132.569 152.36 127.115C155.001 121.661 152.35 113.866 152.901 110.579C153.453 107.294 156.41 102.324 156.41 102.324C156.398 104.736 158.909 107.157 159.548 107.979C160.187 108.801 160.234 111.42 160.234 111.42C160.234 111.42 160.122 110.31 160.279 108.892C160.434 107.475 163.243 104.141 164.088 103.061C164.933 101.98 164.715 101.439 164.694 100.969C164.674 100.499 164.625 99.8877 164.625 99.8877C165.25 100.64 166.436 103.835 166.436 103.835C166.436 103.835 171.681 103.194 172.139 102.921C172.596 102.647 172.71 100.288 172.71 100.288C172.71 100.288 173.088 102.184 173.264 102.879C173.438 103.574 177.734 104.399 177.734 104.399L178.675 104.723C179.756 107.574 179.203 112.138 179.776 116.844C180.348 121.549 184.03 124.613 184.03 124.613C184.03 124.613 184.03 124.612 183.913 124.312C185.248 126.127 185.518 127.676 185.518 127.676C186.232 131.259 185.417 130.836 177.503 143.581C169.591 156.327 150.357 150.806 148.98 150.861C147.902 150.903 146.199 148.705 145.507 147.745C145.813 147.981 146.015 148.091 146.015 148.091Z" fill="#22192B"/>
<path d="M145.43 147.642C145.43 147.642 145.552 144.678 145.661 140.824C145.769 136.969 150.898 132.991 153.54 127.538C156.181 122.085 153.793 115.332 154.343 112.046C154.895 108.761 157.852 103.792 157.852 103.792C157.851 103.993 157.86 104.205 157.873 104.419C157.871 104.759 159.672 108.428 159.715 108.641C159.715 108.641 155.727 109.726 156.055 113.567C156.319 116.665 160.433 120.764 157.235 127.461C157.235 127.461 151.337 134.183 149.73 138.591C148.123 142.999 149.386 150.844 149.386 150.844C149.386 150.844 147.703 150.932 146.74 149.399C146.802 149.437 145.43 147.642 145.43 147.642Z" fill="#3B3246"/>
<path d="M161.089 111.894L159.994 125.753C159.994 125.753 162.169 127.507 165.915 127.672C170.426 127.87 171.491 126.819 171.491 126.819L171.827 118.21L171.954 113.612L161.089 111.894Z" fill="#EAA69B"/>
<path d="M163.211 118.892L171.526 126.239L171.827 118.211L163.211 118.892Z" fill="#D76B5E"/>
<path d="M161.684 98.5394L162.289 117.271C162.318 118.108 162.863 118.834 163.674 119.125L171.785 121.995C172.473 122.237 173.252 122.121 173.844 121.686L178.047 118.575C178.607 118.164 178.929 117.517 178.908 116.845L178.886 116.201L178.642 108.71L178.505 104.361C178.385 100.74 175.245 97.9432 171.488 98.1045L161.684 98.5394Z" fill="#EAA69B"/>
<path d="M164.489 112.325C164.557 114.428 162.843 116.21 160.661 116.307C158.48 116.403 156.656 114.776 156.588 112.673C156.52 110.57 158.233 108.788 160.415 108.692C162.597 108.596 164.42 110.223 164.489 112.325Z" fill="#EAA69B"/>
<path d="M161.48 113.707L161.749 113.416L159.428 111.284L159.16 111.577L161.48 113.707Z" fill="#D76B5E"/>
<path d="M159.598 113.609L160.593 112.638L160.315 112.355L159.32 113.325L159.598 113.609Z" fill="#D76B5E"/>
<path d="M178.25 105.43C178.25 105.43 173.374 105.131 173.199 104.436C173.024 103.741 172.71 100.289 172.71 100.289C172.71 100.289 172.475 104.242 172.018 104.516C171.561 104.789 165.098 105.381 165.098 105.381C165.098 105.381 165.249 100.641 164.624 99.8899C164.624 99.8899 164.672 100.501 164.693 100.972C164.713 101.442 163.728 102.551 162.885 103.631C162.04 104.712 162.203 107.317 162.047 108.735C161.892 110.154 161.938 111.003 161.938 111.003C161.938 111.003 160.539 109.831 159.899 109.008C159.26 108.186 157.857 108.666 156.121 111.512C155.57 114.797 156.532 121.907 153.89 127.361C151.249 132.815 146.33 136.751 146.222 140.605C146.113 144.46 146.015 148.093 146.015 148.093C146.015 148.093 141.826 145.787 142.521 139.734C142.521 139.734 142.861 137.039 144.845 134.891C146.83 132.744 148.704 129.135 148.959 126.747C149.215 124.36 148.616 107.145 150.631 102.218C152.646 97.2907 155.189 91.4366 167.748 90.9838C180.306 90.531 181.222 106.485 181.222 106.485C181.222 106.485 181.002 116.751 182.517 120.684C184.032 124.617 184.032 124.617 184.032 124.617C184.032 124.617 180.351 121.552 179.778 116.847C179.206 112.142 179.694 108.358 178.614 105.506L178.25 105.43Z" fill="#3B3246"/>
<path d="M162.345 99.649C162.345 99.649 162.816 100.358 162.379 101.285C161.942 102.212 160.377 107.378 161.928 110.027L162.054 111.207L159.867 108.95C159.867 108.95 159.85 105.293 161.323 102.226C162.795 99.1581 162.345 99.649 162.345 99.649Z" fill="#3B3246"/>
<path d="M176.707 105.299C176.707 105.299 177.171 96.7189 172.742 95.4087C172.742 95.4087 176.972 95.9915 178.191 100.185C179.411 104.378 178.721 105.409 178.721 105.409L176.707 105.299Z" fill="#3B3246"/>
<path d="M164.839 100.048C164.839 100.048 165.163 103.598 162.102 106.396C162.102 106.396 161.899 109.23 161.794 108.976C161.689 108.723 161.049 104.141 162.401 101.847C163.753 99.5514 164.839 100.048 164.839 100.048Z" fill="#3B3246"/>
<path d="M164.868 100.479C164.868 100.479 163.612 109.441 161.998 111.043C161.998 111.043 161.203 106.3 162.037 104.437C162.873 102.573 164.868 100.479 164.868 100.479Z" fill="#3B3246"/>
<path d="M160.807 252.598L154.992 195.095C154.968 188.746 162.136 181.842 172.619 183.365C182.089 184.74 184.955 193.502 184.162 201.804C183.366 210.105 181.183 253.074 181.183 253.074C181.042 258.25 176.363 262.339 170.736 262.208C165.112 262.075 160.664 257.774 160.807 252.598Z" fill="#FABDAA"/>
<path d="M187.362 224.08C186.971 214.654 186.007 206.553 185.162 200.982C183.91 192.727 182.055 183.898 172.586 182.522C162.1 181 154.22 189.126 154.244 195.474L156.649 225.842C161.671 226.045 177.772 225.098 187.362 224.08Z" fill="#BC664A"/>
<path d="M187.948 220.164C177.501 221.272 161.281 222.169 155.809 221.947L156.383 227.676C161.856 227.898 177.75 226.937 188.195 225.83L187.948 220.164Z" fill="#EC9478"/>
<path d="M164.445 251.754C164.578 246.578 169.247 242.482 174.874 242.604C180.501 242.726 184.956 247.021 184.822 252.197L179.864 306.233L171.411 306.216L164.445 251.754Z" fill="#EAA69B"/>
<path d="M141.642 250.61L147.572 193.116C148.833 186.874 157.273 181.317 167.266 184.61C176.291 187.583 177.333 196.682 174.872 204.703C172.41 212.724 161.567 254.566 161.567 254.566C160.379 259.627 154.956 262.846 149.454 261.752C143.952 260.659 140.453 255.67 141.642 250.61Z" fill="#FABDAA"/>
<path d="M161.972 254.672C162.08 254.254 172.84 212.747 175.271 204.826L174.47 204.581C172.034 212.519 161.269 254.043 161.16 254.462L161.972 254.672Z" fill="#F0827F"/>
<path d="M173.505 227.14C175.03 217.811 175.722 209.687 176.02 204.07C176.462 195.744 176.426 186.752 167.401 183.778C157.409 180.485 148.02 187.12 146.758 193.362L142.975 223.61C147.867 224.669 163.878 226.496 173.505 227.14Z" fill="#BC664A"/>
<path d="M173.506 227.558C173.708 227.558 173.886 227.412 173.918 227.207C175.503 217.52 176.163 209.289 176.439 204.091C176.451 203.86 176.274 203.663 176.042 203.652C175.808 203.64 175.614 203.816 175.602 204.047C175.327 209.224 174.669 217.422 173.091 227.072C173.054 227.301 173.209 227.515 173.438 227.553C173.46 227.556 173.484 227.558 173.506 227.558Z" fill="#96463B"/>
<path d="M174.87 223.392C164.382 222.691 148.264 220.795 142.934 219.639L142.34 225.365C147.67 226.521 163.481 228.3 173.968 229L174.87 223.392Z" fill="#EC9478"/>
<path d="M140.415 250.61C141.604 245.55 147.026 242.332 152.528 243.425C158.03 244.518 161.528 249.506 160.34 254.566L144.236 307.123H135.785L140.415 250.61Z" fill="#EAA69B"/>
<path d="M142.032 193.061C142.302 190.089 146.05 178.724 150.079 172.243H179.597C182.225 177.283 185.219 188.26 186.082 190.683C186.943 193.106 186.782 195.896 183.79 198.777C180.795 201.658 173.086 204.95 171.308 204.95C169.528 204.95 157.075 202.869 148.934 199.965C144.861 198.515 141.762 196.033 142.032 193.061Z" fill="#A78BEF"/>
<path d="M148.692 174.969H180.814C180.974 174.969 181.104 174.839 181.104 174.678C181.104 174.518 180.974 174.388 180.814 174.388H148.692C148.532 174.388 148.4 174.518 148.4 174.678C148.402 174.839 148.532 174.969 148.692 174.969Z" fill="#96463B"/>
<path d="M143.987 186.121C151.292 186.121 156.214 181.968 157.491 174.729C157.519 174.571 157.413 174.42 157.254 174.392C157.096 174.364 156.945 174.47 156.917 174.628C155.694 181.562 150.981 185.54 143.986 185.54C143.825 185.54 143.695 185.67 143.695 185.83C143.696 185.991 143.826 186.121 143.987 186.121Z" fill="#96463B"/>
<path d="M183.862 183.871C183.954 183.871 184.044 183.827 184.1 183.747C184.192 183.616 184.16 183.434 184.028 183.342C181.35 181.484 179.577 178.471 178.901 174.627C178.872 174.469 178.72 174.363 178.563 174.391C178.405 174.419 178.299 174.569 178.327 174.727C179.031 178.727 180.887 181.871 183.695 183.82C183.747 183.854 183.804 183.871 183.862 183.871Z" fill="#96463B"/>
<path d="M126.228 259.532C126.633 258.295 139.49 199.701 142.508 190.684H186.082C186.082 190.684 187.689 200.333 188.014 208.426C188.337 216.521 191.006 259.974 191.247 261.57C191.492 263.166 191.005 263.578 189.793 263.784C188.58 263.989 182.278 265.91 161.654 265.91C141.028 265.91 128.411 262.645 127.521 262.185C126.633 261.726 125.824 260.766 126.228 259.532Z" fill="black"/>
<path d="M224.267 133.086C224.114 134.887 223.651 137.53 222.483 141.226C219.833 149.608 212.467 158.215 201.711 159.625C199.068 159.972 196.189 159.846 193.392 159.415H193.389C187.247 158.468 181.495 156.042 179.455 153.852C179.163 153.538 178.887 153.032 178.628 152.375C176.26 146.363 175.285 127.716 175.285 127.716C175.736 128.26 179.047 129.104 187.275 136.496C194.209 142.727 203.364 144.218 208.5 137.991C211.121 134.809 214.008 130.965 216.243 128.722C216.243 128.722 216.243 128.722 216.245 128.722C217.213 127.749 218.061 127.075 218.707 126.89C218.707 126.89 220.804 129.728 224.156 129.872C224.156 129.871 224.462 130.8 224.267 133.086Z" fill="#A78BEF"/>
<path d="M193.386 159.415C187.244 158.468 181.492 156.042 179.452 153.852C179.16 153.538 178.884 153.032 178.625 152.375L184.682 144.443C184.682 144.443 186.149 147.793 186.912 151.542C187.678 155.289 189.728 157.733 193.386 159.415Z" fill="#8760EA"/>
<path d="M181.15 174.129C161.143 180.908 135.818 168.636 135.818 168.636C135.818 168.636 139.404 163.363 141.261 157.866C141.703 156.561 142.046 155.242 142.222 153.979C143.134 147.402 140.958 133.282 157.337 126.09C157.337 126.09 159.397 126.539 162.129 126.521C162.129 126.521 165.88 132.855 170.665 130.592C172.518 129.715 170.618 127.041 170.618 127.041C173.137 128.283 175.284 127.716 175.284 127.716C181.651 135.3 184.981 142.543 185.194 147.905C185.526 156.292 180.109 162.225 181.15 174.129Z" fill="#A78BEF"/>
<path d="M155.315 145.232C155.315 145.232 151.746 154.669 151.107 161.754C150.549 167.942 159.294 175.472 159.294 175.472L146.85 173.367L147.901 150.419L155.315 145.232Z" fill="#8760EA"/>
<path d="M170.527 137.202C170.308 137.815 169.633 138.136 169.019 137.916C168.404 137.698 168.084 137.023 168.304 136.41C168.522 135.797 169.198 135.476 169.812 135.696C170.425 135.916 170.746 136.589 170.527 137.202Z" fill="#8760EA"/>
<path d="M171.97 142.128C171.752 142.741 171.076 143.062 170.462 142.842C169.848 142.624 169.527 141.949 169.747 141.336C169.965 140.723 170.641 140.402 171.255 140.622C171.868 140.841 172.189 141.515 171.97 142.128Z" fill="#8760EA"/>
<path d="M147.595 132.09C141.533 139.928 134.975 148.206 133.13 158.319C129.836 172.031 140.191 179.539 151.582 183.745C154.114 184.767 156.598 185.702 158.996 186.703C160.572 187.371 162.394 186.63 163.053 185.052C163.647 183.633 163.098 182.021 161.827 181.239C159.484 179.792 157.137 178.456 154.89 177.103C149.528 173.709 141.195 169.323 144.056 162.056C146.354 153.222 153.324 147.121 159.102 140.4C165.136 132.613 153.131 123.908 147.595 132.09Z" fill="#FABA97"/>
<path d="M171.493 126.534C171.493 126.534 172.272 129.852 168.223 130.008C164.174 130.163 159.992 125.753 159.992 125.753L171.493 126.534Z" fill="#EAA69B"/>
<path d="M324.157 319.948L308.586 320.444L296.082 322.534C296.082 322.534 295.028 324.616 296.207 324.728C297.386 324.84 305.132 324.681 307.179 324.218C309.227 323.754 325.043 322.803 325.043 322.803L324.157 319.948Z" fill="black"/>
<path d="M282.22 123.793C282.22 123.793 272.643 125.447 271.579 131.548C270.516 137.649 272.068 150.823 272.068 150.823L280.972 127.014L282.22 123.793Z" fill="#E527BB"/>
<path d="M243.324 166.316C243.324 166.316 239.6 167.699 237.019 166.178C234.438 164.657 230.664 161.512 230.664 161.512L245.12 161.828L243.324 166.316Z" fill="#FCCFA8"/>
<path d="M245.775 160.112L271.209 164.796C271.209 164.796 270.571 176.215 271.412 179.827C271.537 180.366 245.845 170.497 242.514 168.162L245.775 160.112Z" fill="#384586"/>
<path fill-rule="evenodd" clip-rule="evenodd" d="M251.527 164.284L274.911 167.374L275.088 166.047C275.185 165.318 274.664 164.64 273.931 164.544L251.527 164.284Z" fill="#9EDBED"/>
<path d="M281.136 125.764L277.764 134.745L282.327 129.169L281.136 125.764Z" fill="#A78BEF"/>
<path d="M320.872 311.463L311.926 314.087C311.513 309.915 309.986 299.425 309.986 299.425L319.822 298.506L320.872 311.463Z" fill="#EAA69B"/>
<path d="M324.158 319.948L307.419 322.093C307.419 322.093 298.995 324.577 296.082 322.534C296.082 322.534 309.965 317.728 311.53 312.01C311.53 312.01 319.181 311.769 321.298 309.365L324.158 319.948Z" fill="#A78BEF"/>
<path d="M308.889 318.428L309.284 318.005L307.57 316.426L307.176 316.85L308.889 318.428Z" fill="#DFDFE4"/>
<path d="M310.434 316.941L310.816 316.508L309.392 315.265L309.01 315.698L310.434 316.941Z" fill="#DFDFE4"/>
<path d="M312.18 315.377L312.497 314.894L310.624 313.675L310.307 314.158L312.18 315.377Z" fill="#DFDFE4"/>
<path d="M313.124 313.252L313.288 312.699L311.27 312.105L311.105 312.658L313.124 313.252Z" fill="#DFDFE4"/>
<path d="M295.108 310.217L286.106 312.856C285.69 308.66 284.154 298.105 284.154 298.105L294.05 297.18C294.051 297.181 294.771 305.063 295.108 310.217Z" fill="#EAA69B"/>
<path d="M270.162 321.355C270.162 321.355 269.103 323.45 270.288 323.562C271.474 323.674 279.267 323.515 281.328 323.049C283.388 322.582 299.301 321.626 299.301 321.626L298.411 318.752L282.745 319.252L270.162 321.355Z" fill="black"/>
<path d="M285.706 310.767C285.706 310.767 293.403 310.524 295.533 308.106L298.41 318.752L281.568 320.91C281.568 320.91 273.093 323.409 270.162 321.355C270.162 321.355 284.13 316.521 285.706 310.767Z" fill="#A78BEF"/>
<path d="M283.054 317.224L283.45 316.798L281.727 315.209L281.33 315.635L283.054 317.224Z" fill="#DFDFE4"/>
<path d="M284.606 315.727L284.99 315.291L283.558 314.042L283.174 314.478L284.606 315.727Z" fill="#DFDFE4"/>
<path d="M286.362 314.154L286.681 313.667L284.796 312.442L284.477 312.927L286.362 314.154Z" fill="#DFDFE4"/>
<path d="M287.312 312.015L287.478 311.459L285.447 310.862L285.281 311.418L287.312 312.015Z" fill="#DFDFE4"/>
<path d="M273.292 189.642C273.292 189.642 268.557 225.44 270.137 250.406C271.717 275.371 279.918 305.498 279.918 305.498L297.053 306.034C297.053 306.034 297.963 272.783 298.033 269.78C298.102 266.778 290.747 190.56 290.747 190.56L273.292 189.642Z" fill="black"/>
<path d="M323.781 305.169L306.437 306.56C306.437 306.56 292.618 264.256 290.605 244.687C288.592 225.119 284.152 190.416 284.152 190.416L309.657 190.223C309.657 190.223 319.01 202.208 318.299 206.398L323.781 305.169Z" fill="black"/>
<path d="M285.386 203.747L283.951 237.512L291.558 250.874L285.386 203.747Z" fill="#666666"/>
<path d="M318.205 207.342L298.908 204.809L292.504 190.528C292.504 190.528 297.113 208.315 297.393 208.871C297.672 209.427 317.787 216.236 317.787 216.236L318.205 207.342Z" fill="#BA2027"/>
<path d="M280.538 130.385C280.538 130.385 268.42 145.498 270.805 172.309C270.805 172.309 271.74 191.9 275.606 194.381L294.53 194.396L298.028 122.514L282.051 129.704L280.538 130.385Z" fill="#A78BEF"/>
<path d="M284.683 130.55C284.683 130.55 286.957 132.322 286.944 132.922C286.93 133.52 283.885 135.452 283.885 135.452C283.885 135.452 277.895 155.091 279.959 165.72C282.023 176.348 283.845 180.002 283.845 180.002L279.62 186.883L273.874 178.604C273.874 178.604 272.261 149.175 279.987 134.367L281.21 131.332L284.683 130.55Z" fill="white"/>
<path d="M158.781 157.886H268.734C272.987 157.886 276.434 161.334 276.434 165.587V225.107C276.434 229.36 272.987 232.808 268.734 232.808H158.781C155.049 232.808 152.023 229.775 152.023 226.035V164.659C152.023 160.919 155.049 157.886 158.781 157.886Z" fill="#E527BB"/>
<path d="M172.418 176.815H181.279V173.255C181.279 172.069 180.32 171.108 179.137 171.108H166.737V179.698C166.737 180.213 166.464 180.63 165.952 180.63C165.439 180.63 165.237 180.213 165.237 179.698V171.11H163.091C161.908 171.11 160.949 172.07 160.949 173.256V183.662H172.579C172.941 183.662 173.271 183.923 173.307 184.283C173.348 184.697 173.024 185.047 172.619 185.047H160.949V189.34C160.949 190.526 161.907 191.486 163.091 191.486H179.137C180.32 191.486 181.279 190.526 181.279 189.34V178.228H172.378C171.964 178.228 171.635 177.871 171.676 177.449C171.713 177.08 172.049 176.815 172.418 176.815Z" fill="white"/>
<path d="M266.013 211.942H241.432V224.374H266.013V211.942Z" fill="#EBE8E8"/>
<path d="M180.993 199.068H163.843C162.245 199.068 160.949 200.367 160.949 201.968C160.949 203.57 162.245 204.869 163.843 204.869H180.993C182.591 204.869 183.887 203.57 183.887 201.968C183.887 200.367 182.591 199.068 180.993 199.068Z" fill="white"/>
<path d="M187.113 201.968C187.113 203.57 188.409 204.869 190.007 204.869H207.585C209.183 204.869 210.479 203.57 210.479 201.968C210.479 200.367 209.183 199.068 207.585 199.068H190.007C188.409 199.068 187.113 200.367 187.113 201.968Z" fill="white"/>
<path d="M265.878 199.068H242.012V204.869H265.878V199.068Z" fill="#EBE8E8"/>
<path d="M233.323 199.068H217.03C215.432 199.068 214.137 200.367 214.137 201.968C214.137 203.57 215.432 204.869 217.03 204.869H233.323C234.921 204.869 236.217 203.57 236.217 201.968C236.217 200.367 234.921 199.068 233.323 199.068Z" fill="white"/>
<path d="M229.631 219.433H163.279C162.067 219.433 161.084 218.45 161.084 217.237V214.139C161.084 212.927 162.067 211.944 163.279 211.944H229.631C230.844 211.944 231.826 212.927 231.826 214.139V217.237C231.826 218.45 230.844 219.433 229.631 219.433Z" fill="white"/>
<path d="M317.639 139.577C316.973 149.454 315.108 163.68 310.414 167.001C305.721 170.322 299.098 161.997 299.331 161.432C299.564 160.866 298.031 122.514 298.031 122.514C298.031 122.514 318.306 129.701 317.639 139.577Z" fill="#E527BB"/>
<path d="M299.45 106.312C299.45 106.312 303.88 94.0795 295.474 91.58C290.856 90.207 290.224 107.07 299.45 106.312Z" fill="black"/>
<path d="M289.66 130.288C293.797 130.288 296.873 126.479 295.981 122.46L295.285 108.635L283.186 110.255V123.849C283.186 127.404 286.085 130.288 289.66 130.288Z" fill="#EAA69B"/>
<path d="M283.186 123.848L291.766 116.401L283.186 119.963V123.848Z" fill="#D76B5E"/>
<path d="M274.629 96.8291V114.546C274.629 115.324 275.009 116.059 275.65 116.507L280.488 119.891C281.163 120.368 282.044 120.466 282.804 120.143L291.804 116.41C292.698 116.039 293.29 115.162 293.29 114.19V96.8291H274.629Z" fill="#EAA69B"/>
<path d="M274.628 102.148L272.082 109.242L274.628 110.142V102.148Z" fill="#EAA69B"/>
<path d="M292.064 108.579C292.064 111.018 294.051 112.995 296.503 112.995C298.954 112.995 300.942 111.018 300.942 108.579C300.942 106.14 298.955 104.164 296.503 104.164C294.051 104.164 292.064 106.14 292.064 108.579Z" fill="#EAA69B"/>
<path d="M293.728 109.995C293.792 109.995 293.857 109.973 293.908 109.926L296.915 107.226C297.025 107.127 297.034 106.957 296.934 106.847C296.834 106.737 296.664 106.728 296.554 106.828L293.547 109.528C293.438 109.626 293.429 109.797 293.528 109.907C293.581 109.965 293.655 109.995 293.728 109.995Z" fill="#D76B5E"/>
<path d="M294.226 97.711C294.326 96.8301 295.238 93.0865 295.248 92.1999C295.262 90.8796 295.291 90.253 294.907 88.9775C294.32 87.0295 290.683 85.1443 288.777 84.9325C286.962 84.7307 285.11 85.0053 283.356 85.4794C282.155 85.8034 280.983 86.2315 279.842 86.7258C274.736 88.9394 270.515 88.8273 270.09 87.3748C269.665 89.5794 270.812 90.5747 272.171 90.744C270 90.6599 269.283 89.3485 269.283 89.3485C269.283 89.3485 271.037 99.0695 274.902 98.9204C278.767 98.7702 283.327 96.4635 285.579 98.0282C287.829 99.5929 291.84 98.7657 294.226 97.711Z" fill="black"/>
<path d="M294.339 91.2799C294.164 91.1981 295.763 84.5684 297.481 84.5684C299.2 84.5684 295.909 89.602 295.909 89.602C295.909 89.602 298.356 86.504 299.652 87.2785C300.949 88.0541 296.413 92.2483 294.339 91.2799Z" fill="black"/>
<path d="M290.685 98.3655C290.685 98.3655 290.128 106.217 292.574 107.594C292.574 107.594 292.316 105.256 294.788 104.635C297.283 104.008 294.87 102.284 294.706 101.474C294.544 100.663 293.647 96.8524 293.647 96.8524L288.758 95.3931L290.685 98.3655Z" fill="black"/>
<path d="M276.139 88.0012C276.139 88.0012 277.207 91.3928 278.651 92.2805C280.096 93.1693 278.4 94.3988 278.792 95.7763C279.186 97.1538 280.268 97.9194 280.268 97.9194L282.618 97.5136C282.618 97.5136 280.712 96.1496 280.943 94.9817C281.174 93.8127 281.231 92.0462 280.425 91.4993C279.619 90.9523 278.082 87.406 278.082 87.406C278.082 87.406 277.088 87.7804 276.139 88.0012Z" fill="#12263E"/>
<path d="M279.713 86.7716C279.713 86.7716 282.39 89.6096 282.433 91.6405C282.475 93.6715 282.417 93.6894 282.417 93.6894C282.417 93.6894 282.237 94.6074 282.52 95.4144C282.804 96.2214 283.803 97.4856 283.803 97.4856L284.557 97.582C284.557 97.582 282.87 95.4289 282.933 94.6903C282.995 93.9517 283.277 91.5273 282.633 90.0153C281.99 88.5022 280.419 86.4612 280.419 86.4612L279.713 86.7716Z" fill="#12263E"/>
<path d="M321.311 207.43C321.311 207.43 312.278 185.398 312.681 167.833C313.084 150.269 321.086 136.864 313.802 132.444C306.517 128.025 298.028 122.514 298.028 122.514C298.028 122.514 275.549 149.98 285.752 174.7L298.908 204.81L321.311 207.43Z" fill="#E527BB"/>
<path d="M263.982 154.884C263.982 154.884 260.064 151.269 257.143 151.205C254.221 151.141 243.152 157.591 243.152 157.591L252.225 157.654C252.225 157.654 261.125 158.689 261.833 161.393L263.982 154.884Z" fill="#EAA69B"/>
<path d="M298.316 150.212L293.765 160.763L265.196 151.884L261.918 160.6L261.254 162.716C261.254 162.716 296.065 181.185 300.3 177.682C304.535 174.18 312.613 164.106 312.613 164.106L316.362 141.554C316.363 141.553 299.273 148.768 298.316 150.212Z" fill="#E527BB"/>
<path d="M285.342 157.893L295.329 144.225L291.986 155.755L285.342 157.893Z" fill="#C815A0"/>
<path d="M315.606 189.75C315.606 189.75 310.848 171.203 312.614 164.104C312.614 164.104 306.697 175.669 302.724 176.344C298.752 177.019 285.752 174.701 285.752 174.701L289.392 182.52L315.606 189.75Z" fill="#CE21A8"/>
<path d="M285.202 128.291L283.178 123.548L280.612 124.33L280.502 131.365L284.934 129.882L285.202 128.291Z" fill="#9471EF"/>
<path d="M295.908 121.568L285.202 128.291L281.838 124.024L282.393 130.027L284.934 129.882L289.616 134.251L300.255 123.391L295.908 121.568Z" fill="#9471EF"/>
<path d="M345.422 293.278L345.379 299.912C345.374 300.668 345.955 301.286 346.674 301.29L400.737 301.645C401.456 301.65 402.045 301.04 402.05 300.285L402.093 293.652C402.097 292.895 401.517 292.278 400.798 292.273L346.735 291.918C346.014 291.912 345.426 292.522 345.422 293.278Z" fill="#FCD224"/>
<path d="M345.428 293.362L345.389 299.515L402.06 299.878L402.1 293.725L345.428 293.362Z" fill="#F4A61D"/>
<g opacity="0.8">
<path d="M396.812 293.695L396.771 299.847L398.405 299.858L398.446 293.705L396.812 293.695Z" fill="#F58023"/>
<path d="M391.533 293.66L391.492 299.812L393.126 299.823L393.167 293.671L391.533 293.66Z" fill="#F58023"/>
<path d="M386.255 293.625L386.215 299.777L387.849 299.788L387.889 293.636L386.255 293.625Z" fill="#F58023"/>
<path d="M380.976 293.591L380.936 299.744L382.569 299.754L382.61 293.602L380.976 293.591Z" fill="#F58023"/>
<path d="M375.699 293.557L375.658 299.709L377.292 299.719L377.333 293.567L375.699 293.557Z" fill="#F58023"/>
<path d="M370.421 293.522L370.381 299.674L372.015 299.685L372.055 293.532L370.421 293.522Z" fill="#F58023"/>
<path d="M365.14 293.488L365.1 299.64L366.734 299.651L366.774 293.498L365.14 293.488Z" fill="#F58023"/>
<path d="M359.863 293.453L359.822 299.605L361.456 299.616L361.497 293.463L359.863 293.453Z" fill="#F58023"/>
<path d="M354.585 293.418L354.545 299.57L356.179 299.581L356.219 293.429L354.585 293.418Z" fill="#F58023"/>
<path d="M349.304 293.383L349.264 299.535L350.898 299.546L350.938 293.394L349.304 293.383Z" fill="#F58023"/>
</g>
<path d="M337.679 283.855L337.637 290.488C337.632 291.244 338.213 291.862 338.932 291.867L392.995 292.222C393.714 292.226 394.303 291.617 394.308 290.861L394.351 284.228C394.355 283.472 393.775 282.854 393.055 282.849L338.993 282.494C338.272 282.489 337.684 283.098 337.679 283.855Z" fill="#FCD224"/>
<path d="M337.682 283.938L337.643 290.092L394.314 290.455L394.354 284.302L337.682 283.938Z" fill="#F4A61D"/>
<g opacity="0.8">
<path d="M389.068 284.272L389.027 290.424L390.661 290.435L390.702 284.283L389.068 284.272Z" fill="#F58023"/>
<path d="M383.79 284.237L383.75 290.389L385.384 290.4L385.424 284.248L383.79 284.237Z" fill="#F58023"/>
<path d="M378.511 284.202L378.471 290.354L380.105 290.365L380.145 284.213L378.511 284.202Z" fill="#F58023"/>
<path d="M373.234 284.168L373.193 290.32L374.827 290.331L374.868 284.179L373.234 284.168Z" fill="#F58023"/>
<path d="M367.955 284.133L367.914 290.285L369.548 290.296L369.588 284.144L367.955 284.133Z" fill="white"/>
<path d="M369.908 290.671L367.543 290.655L367.587 283.772L369.951 283.788L369.908 290.671ZM368.278 289.929L369.18 289.934L369.215 284.514L368.313 284.508L368.278 289.929Z" fill="black"/>
<path d="M362.675 284.098L362.635 290.25L364.269 290.261L364.309 284.109L362.675 284.098Z" fill="#F58023"/>
<path d="M357.398 284.064L357.357 290.216L358.991 290.227L359.032 284.074L357.398 284.064Z" fill="#F58023"/>
<path d="M352.119 284.03L352.078 290.182L353.712 290.193L353.752 284.04L352.119 284.03Z" fill="#F58023"/>
<path d="M346.841 283.995L346.801 290.147L348.435 290.158L348.475 284.005L346.841 283.995Z" fill="#F58023"/>
<path d="M341.562 283.96L341.521 290.112L343.155 290.123L343.196 283.971L341.562 283.96Z" fill="#F58023"/>
</g>
<g opacity="0.54">
<path d="M365.838 284.125L368.74 290.297L373.807 290.331L370.663 284.156L365.838 284.125Z" fill="white"/>
<path d="M374.404 290.701L368.507 290.662L365.26 283.755L370.888 283.792L374.404 290.701ZM368.973 289.933L373.207 289.961L370.438 284.521L366.415 284.494L368.973 289.933Z" fill="black"/>
<path d="M384.711 284.25L387.566 290.422L389.841 290.436L387.095 284.265L384.711 284.25Z" fill="#FFF45C"/>
<path d="M351.494 284.031L355.24 290.209L363.77 290.265L359.779 284.085L351.494 284.031Z" fill="#FFF45C"/>
</g>
<path d="M347.728 275.776L347.686 282.409C347.681 283.166 348.262 283.783 348.981 283.788L403.044 284.143C403.763 284.147 404.351 283.538 404.357 282.782L404.4 276.149C404.404 275.393 403.824 274.775 403.104 274.771L349.042 274.415C348.321 274.41 347.733 275.021 347.728 275.776Z" fill="#FCD224"/>
<path d="M347.733 275.86L347.693 282.013L404.365 282.376L404.404 276.223L347.733 275.86Z" fill="#F4A61D"/>
<g opacity="0.8">
<path d="M399.119 276.192L399.078 282.345L400.712 282.355L400.752 276.203L399.119 276.192Z" fill="#F58023"/>
<path d="M393.839 276.158L393.799 282.31L395.433 282.321L395.473 276.169L393.839 276.158Z" fill="#F58023"/>
<path d="M388.562 276.123L388.521 282.275L390.155 282.286L390.196 276.134L388.562 276.123Z" fill="#F58023"/>
<path d="M383.283 276.089L383.242 282.241L384.876 282.252L384.917 276.1L383.283 276.089Z" fill="#F58023"/>
<path d="M378.005 276.054L377.965 282.206L379.599 282.217L379.639 276.065L378.005 276.054Z" fill="#F58023"/>
<path d="M372.726 276.019L372.686 282.171L374.319 282.182L374.36 276.03L372.726 276.019Z" fill="#F58023"/>
<path d="M367.447 275.986L367.406 282.138L369.04 282.149L369.081 275.996L367.447 275.986Z" fill="#F58023"/>
<path d="M362.169 275.951L362.129 282.103L363.763 282.114L363.803 275.961L362.169 275.951Z" fill="#F58023"/>
<path d="M356.89 275.916L356.85 282.068L358.484 282.079L358.524 275.926L356.89 275.916Z" fill="#F58023"/>
<path d="M351.613 275.881L351.572 282.033L353.206 282.044L353.247 275.892L351.613 275.881Z" fill="#F58023"/>
</g>
<path d="M339.984 266.353L339.941 272.986C339.937 273.743 340.517 274.36 341.237 274.365L395.299 274.72C396.019 274.725 396.607 274.115 396.613 273.359L396.655 266.726C396.66 265.97 396.079 265.352 395.36 265.348L341.297 264.992C340.577 264.987 339.988 265.597 339.984 266.353Z" fill="#FCD224"/>
<path d="M339.987 266.435L339.947 272.588L396.619 272.952L396.658 266.798L339.987 266.435Z" fill="#F4A61D"/>
<path d="M391.373 266.769L391.332 272.922L392.966 272.932L393.006 266.78L391.373 266.769Z" fill="#F58023"/>
<path d="M386.095 266.735L386.055 272.887L387.689 272.897L387.729 266.745L386.095 266.735Z" fill="#F58023"/>
<path d="M380.816 266.7L380.775 272.852L382.409 272.863L382.45 266.711L380.816 266.7Z" fill="#F58023"/>
<path d="M375.538 266.666L375.498 272.818L377.132 272.829L377.172 266.677L375.538 266.666Z" fill="#F58023"/>
<path d="M370.257 266.631L370.217 272.783L371.851 272.794L371.891 266.642L370.257 266.631Z" fill="#F58023"/>
<path d="M364.98 266.596L364.939 272.748L366.573 272.759L366.614 266.607L364.98 266.596Z" fill="#F58023"/>
<path d="M359.703 266.561L359.662 272.713L361.296 272.724L361.336 266.572L359.703 266.561Z" fill="#F58023"/>
<path d="M354.423 266.527L354.383 272.679L356.017 272.69L356.057 266.538L354.423 266.527Z" fill="#F58023"/>
<path d="M349.146 266.493L349.105 272.645L350.739 272.656L350.78 266.503L349.146 266.493Z" fill="#F58023"/>
<path d="M343.867 266.458L343.826 272.61L345.46 272.621L345.501 266.468L343.867 266.458Z" fill="#F58023"/>
<g opacity="0.5">
<path d="M368.145 266.623L371.047 272.795L376.114 272.828L372.97 266.654L368.145 266.623Z" fill="#FFF45C"/>
<path d="M387.018 266.747L389.873 272.919L392.148 272.934L389.401 266.762L387.018 266.747Z" fill="#FFF45C"/>
<path d="M353.801 266.528L357.547 272.706L366.076 272.762L362.086 266.583L353.801 266.528Z" fill="#FFF45C"/>
</g>
<path d="M329.273 310.869L329.23 317.502C329.226 318.258 329.807 318.876 330.526 318.88L384.589 319.236C385.308 319.24 385.896 318.631 385.902 317.875L385.945 311.242C385.949 310.485 385.369 309.868 384.649 309.863L330.586 309.508C329.866 309.502 329.278 310.112 329.273 310.869Z" fill="#FCD224"/>
<path d="M329.278 310.952L329.238 317.105L385.91 317.469L385.949 311.316L329.278 310.952Z" fill="#F4A61D"/>
<g opacity="0.8">
<path d="M380.664 311.286L380.623 317.438L382.257 317.449L382.297 311.297L380.664 311.286Z" fill="#F58023"/>
<path d="M375.386 311.251L375.346 317.403L376.98 317.414L377.02 311.261L375.386 311.251Z" fill="#F58023"/>
<path d="M370.107 311.217L370.066 317.369L371.7 317.38L371.741 311.228L370.107 311.217Z" fill="#F58023"/>
<path d="M364.829 311.182L364.789 317.334L366.423 317.345L366.463 311.193L364.829 311.182Z" fill="#F58023"/>
<path d="M359.55 311.147L359.51 317.3L361.144 317.31L361.184 311.158L359.55 311.147Z" fill="#F58023"/>
<path d="M354.271 311.112L354.23 317.265L355.864 317.275L355.905 311.123L354.271 311.112Z" fill="#F58023"/>
<path d="M348.994 311.078L348.953 317.231L350.587 317.241L350.627 311.089L348.994 311.078Z" fill="#F58023"/>
<path d="M343.714 311.044L343.674 317.196L345.308 317.207L345.348 311.054L343.714 311.044Z" fill="#F58023"/>
<path d="M338.437 311.009L338.396 317.161L340.03 317.172L340.071 311.019L338.437 311.009Z" fill="#F58023"/>
<path d="M333.158 310.974L333.117 317.126L334.751 317.137L334.792 310.985L333.158 310.974Z" fill="#F58023"/>
</g>
<path d="M321.529 301.445L321.486 308.078C321.482 308.835 322.062 309.452 322.782 309.457L376.844 309.812C377.564 309.816 378.152 309.207 378.158 308.451L378.2 301.818C378.205 301.062 377.624 300.444 376.905 300.44L322.842 300.084C322.122 300.08 321.533 300.689 321.529 301.445Z" fill="#FCD224"/>
<path d="M321.532 301.529L321.492 307.682L378.164 308.046L378.203 301.893L321.532 301.529Z" fill="#F4A61D"/>
<g opacity="0.8">
<path d="M372.919 301.862L372.879 308.015L374.513 308.025L374.553 301.873L372.919 301.862Z" fill="#F58023"/>
<path d="M367.64 301.828L367.6 307.98L369.234 307.99L369.274 301.838L367.64 301.828Z" fill="#F58023"/>
<path d="M362.363 301.793L362.322 307.945L363.956 307.956L363.997 301.803L362.363 301.793Z" fill="#F58023"/>
<path d="M357.083 301.759L357.043 307.911L358.677 307.922L358.717 301.769L357.083 301.759Z" fill="#F58023"/>
<path d="M351.804 301.724L351.764 307.876L353.398 307.887L353.438 301.735L351.804 301.724Z" fill="#F58023"/>
<path d="M346.527 301.689L346.486 307.842L348.12 307.852L348.161 301.7L346.527 301.689Z" fill="#F58023"/>
<path d="M341.247 301.654L341.207 307.807L342.841 307.817L342.881 301.665L341.247 301.654Z" fill="#F58023"/>
<path d="M335.97 301.62L335.93 307.773L337.564 307.783L337.604 301.631L335.97 301.62Z" fill="#F58023"/>
<path d="M330.691 301.586L330.65 307.738L332.284 307.749L332.325 301.596L330.691 301.586Z" fill="#F58023"/>
<path d="M325.412 301.551L325.371 307.703L327.005 307.714L327.045 301.561L325.412 301.551Z" fill="#F58023"/>
</g>
<g opacity="0.3">
<path d="M349.689 301.715L352.592 307.887L357.658 307.921L354.515 301.746L349.689 301.715Z" fill="#FFF45C"/>
<path d="M368.561 301.839L371.416 308.012L373.691 308.026L370.944 301.855L368.561 301.839Z" fill="#FFF45C"/>
<path d="M335.344 301.621L339.089 307.799L347.619 307.855L343.629 301.676L335.344 301.621Z" fill="#FFF45C"/>
</g>
<path d="M361.183 277.23L356.995 282.331C356.518 282.912 356.579 283.762 357.133 284.228L398.709 319.218C399.263 319.684 400.1 319.59 400.577 319.009L404.765 313.908C405.243 313.326 405.181 312.476 404.627 312.01L363.051 277.02C362.498 276.554 361.66 276.648 361.183 277.23Z" fill="#FCD224"/>
<path d="M361.13 277.295L357.246 282.027L400.827 318.705L404.713 313.973L361.13 277.295Z" fill="#F4A61D"/>
<g opacity="0.8">
<path d="M396.762 315.284L398.018 316.341L401.902 311.61L400.646 310.553L396.762 315.284Z" fill="#F58023"/>
<path d="M392.703 311.867L393.959 312.924L397.844 308.193L396.587 307.136L392.703 311.867Z" fill="#F58023"/>
<path d="M388.645 308.451L389.901 309.508L393.784 304.777L392.528 303.72L388.645 308.451Z" fill="#F58023"/>
<path d="M384.584 305.035L385.84 306.092L389.724 301.361L388.468 300.304L384.584 305.035Z" fill="#F58023"/>
<path d="M380.525 301.619L381.782 302.676L385.665 297.945L384.41 296.888L380.525 301.619Z" fill="#F58023"/>
<path d="M376.465 298.202L377.721 299.259L381.605 294.528L380.349 293.471L376.465 298.202Z" fill="#F58023"/>
<path d="M372.404 294.785L373.661 295.843L377.545 291.112L376.288 290.054L372.404 294.785Z" fill="#F58023"/>
<path d="M368.348 291.369L369.604 292.427L373.487 287.696L372.231 286.638L368.348 291.369Z" fill="#F58023"/>
<path d="M364.287 287.952L365.543 289.009L369.428 284.278L368.171 283.221L364.287 287.952Z" fill="#F58023"/>
<path d="M360.229 284.536L361.485 285.593L365.369 280.862L364.113 279.805L360.229 284.536Z" fill="#F58023"/>
</g>
<g opacity="0.55">
<path d="M382.786 295.521L381.164 302.157L385.059 305.435L386.497 298.644L382.786 295.521Z" fill="#FFF45C"/>
<path d="M397.3 307.734L395.643 314.34L397.392 315.813L399.135 309.277L397.3 307.734Z" fill="#FFF45C"/>
<path d="M371.755 286.237L370.781 293.419L377.342 298.939L378.127 291.599L371.755 286.237Z" fill="#FFF45C"/>
</g>
<path d="M362.543 290.987C360.663 284.209 356.173 278.648 350.331 275.661C347.344 274.132 344.002 273.275 340.474 273.275C339.522 273.275 338.583 273.337 337.66 273.459C335.634 273.725 333.689 274.275 331.861 275.071C329.625 276.044 327.563 277.383 325.74 279.024C320.669 283.58 317.441 290.443 317.441 298.119C317.441 309.549 324.598 319.177 334.343 322.071C336.295 322.651 338.352 322.962 340.474 322.962C340.929 322.962 341.381 322.948 341.829 322.92C343.745 322.8 345.598 322.427 347.359 321.834C351.416 320.463 354.991 317.917 357.738 314.564C361.327 310.183 363.506 304.427 363.506 298.12C363.506 295.639 363.17 293.245 362.543 290.987ZM321.629 298.119C321.629 292.717 323.583 287.809 326.767 284.17C328.462 282.232 330.507 280.654 332.793 279.552H332.794C334.583 278.689 336.517 278.118 338.549 277.897C339.182 277.827 339.824 277.791 340.473 277.791C344.574 277.791 348.368 279.205 351.462 281.604C356.219 285.293 359.317 291.315 359.317 298.117C359.317 301.963 358.327 305.559 356.607 308.625C354.318 312.707 350.734 315.85 346.469 317.392C344.711 318.028 342.839 318.392 340.894 318.437C340.754 318.441 340.614 318.443 340.474 318.443C337.94 318.443 335.522 317.903 333.314 316.925C326.458 313.885 321.629 306.611 321.629 298.119Z" fill="#FCD224"/>
<path d="M321.629 298.118C321.629 309.344 330.066 318.444 340.474 318.444C350.881 318.444 359.318 309.344 359.318 298.118C359.318 286.893 350.881 277.792 340.474 277.792C330.066 277.792 321.629 286.893 321.629 298.118ZM322.479 298.118C322.479 292.601 324.76 287.658 328.36 284.327C329.535 283.237 330.853 282.32 332.277 281.613C333.446 281.03 334.688 280.59 335.983 280.308C337.063 280.074 338.179 279.952 339.322 279.952C341.541 279.952 343.659 280.415 345.599 281.256C351.791 283.94 356.164 290.478 356.164 298.118C356.164 303.686 353.842 308.669 350.185 312C347.972 314.017 345.269 315.431 342.296 316.001C341.33 316.187 340.336 316.284 339.322 316.284C338.838 316.284 338.361 316.261 337.887 316.219H337.886C336.483 316.091 335.129 315.778 333.846 315.302C327.233 312.852 322.479 306.084 322.479 298.118Z" fill="#F58023"/>
<path d="M322.48 298.118C322.48 306.084 327.234 312.852 333.847 315.304C335.13 315.779 336.484 316.093 337.887 316.221H337.888C338.361 316.264 338.839 316.286 339.323 316.286C340.337 316.286 341.332 316.19 342.297 316.004C345.27 315.433 347.973 314.02 350.186 312.002C353.843 308.67 356.165 303.687 356.165 298.121C356.165 290.48 351.792 283.942 345.6 281.258C343.661 280.417 341.542 279.954 339.323 279.954C338.18 279.954 337.064 280.078 335.984 280.311C334.689 280.592 333.447 281.033 332.278 281.615C330.854 282.323 329.536 283.239 328.361 284.329C324.761 287.658 322.48 292.601 322.48 298.118Z" fill="#FCD224"/>
<path d="M311.77 298.087V298.12C311.77 302.123 312.628 305.91 314.157 309.28C317.988 317.726 326.033 323.542 335.339 323.542C337.066 323.542 338.749 323.343 340.371 322.962C331.415 322.92 323.665 317.364 319.891 309.28C318.324 305.925 317.442 302.133 317.442 298.12V298.087C317.445 296.253 317.632 294.466 317.984 292.745C318.331 291.043 318.841 289.405 319.495 287.853C319.696 287.376 319.91 286.907 320.14 286.446C321.014 284.676 322.081 283.035 323.31 281.554C327.505 276.499 333.59 273.309 340.368 273.275C338.748 272.895 337.066 272.696 335.341 272.696C328.19 272.696 321.784 276.131 317.461 281.554C316.273 283.044 315.244 284.685 314.399 286.446C314.177 286.907 313.968 287.375 313.773 287.853C313.136 289.407 312.639 291.045 312.3 292.745C311.953 294.467 311.772 296.253 311.77 298.087Z" fill="#F4A61D"/>
<path d="M311.77 298.087V298.12C311.77 302.123 312.628 305.911 314.157 309.28H319.89C318.323 305.925 317.441 302.133 317.441 298.12V298.087H311.77Z" fill="#FFDC48"/>
<path d="M312.299 292.745H317.984C318.331 291.043 318.841 289.405 319.496 287.853H313.772C313.135 289.408 312.637 291.045 312.299 292.745Z" fill="#F58023"/>
<path d="M314.396 286.446H320.139C321.013 284.676 322.08 283.035 323.309 281.554H317.459C316.271 283.044 315.241 284.685 314.396 286.446Z" fill="#FFDC48"/>
<path d="M340.474 318.444C337.941 318.444 335.522 317.905 333.314 316.926L334.343 322.071C336.295 322.651 338.352 322.962 340.474 322.962C340.929 322.962 341.381 322.948 341.829 322.92L340.896 318.439C340.756 318.443 340.616 318.444 340.474 318.444Z" fill="#FFDC48"/>
<path d="M325.738 279.024L326.767 284.17C328.461 282.232 330.507 280.654 332.793 279.552L331.859 275.071C329.624 276.044 327.562 277.383 325.738 279.024Z" fill="#FFDC48"/>
<path d="M346.469 317.393L347.36 321.833C351.416 320.462 354.991 317.916 357.738 314.563L356.607 308.626C354.317 312.708 350.733 315.851 346.469 317.393Z" fill="#FFDC48"/>
<path d="M337.66 273.459L338.55 277.898C339.183 277.828 339.825 277.792 340.474 277.792C344.575 277.792 348.369 279.206 351.463 281.606L350.331 275.66C347.344 274.131 344.002 273.274 340.474 273.274C339.522 273.276 338.582 273.337 337.66 273.459Z" fill="#FFDC48"/>
<path d="M335.984 280.309L342.297 316.002C345.27 315.432 347.973 314.019 350.186 312.001L345.598 281.256C343.66 280.415 341.541 279.952 339.322 279.952C338.18 279.952 337.065 280.075 335.984 280.309Z" fill="#FFDC48"/>
<path d="M328.359 284.327L333.846 315.304C335.129 315.779 336.483 316.093 337.886 316.221L332.276 281.614C330.853 282.32 329.536 283.237 328.359 284.327Z" fill="#FFDC48"/>
<path d="M338.482 307.639C337.701 307.579 337.006 307.452 336.398 307.257C335.788 307.061 335.256 306.844 334.798 306.609C334.341 306.373 333.97 306.138 333.685 305.903C333.399 305.667 333.189 305.49 333.056 305.373C332.922 305.236 332.832 305.108 332.785 304.99C332.736 304.873 332.78 304.707 332.914 304.49L334.027 302.725C334.142 302.529 334.289 302.426 334.47 302.416C334.651 302.406 334.885 302.529 335.169 302.783C335.608 303.157 336.112 303.49 336.683 303.784C337.255 304.078 337.854 304.275 338.482 304.373V298.634C337.815 298.36 337.15 298.046 336.483 297.693C335.816 297.34 335.212 296.913 334.67 296.413C334.127 295.913 333.684 295.314 333.342 294.617C332.999 293.921 332.827 293.083 332.827 292.101C332.827 291.395 332.936 290.722 333.156 290.086C333.374 289.448 333.717 288.88 334.184 288.379C334.651 287.879 335.241 287.462 335.955 287.128C336.669 286.795 337.512 286.589 338.482 286.51V285.569C338.482 285.412 338.535 285.279 338.639 285.172C338.743 285.064 338.872 285.01 339.024 285.01H339.395C339.548 285.01 339.677 285.065 339.781 285.172C339.885 285.279 339.938 285.413 339.938 285.569V286.54C340.566 286.6 341.16 286.713 341.723 286.879C342.284 287.046 342.784 287.232 343.222 287.438C343.661 287.644 344.027 287.841 344.322 288.027C344.616 288.214 344.831 288.355 344.964 288.454C345.116 288.552 345.207 288.699 345.235 288.895C345.263 289.091 345.231 289.269 345.135 289.424L343.993 291.131C343.746 291.484 343.479 291.563 343.193 291.367C342.793 291.092 342.317 290.797 341.766 290.483C341.213 290.17 340.603 289.934 339.938 289.777V295.163C340.566 295.438 341.228 295.757 341.922 296.119C342.617 296.482 343.255 296.928 343.835 297.458C344.416 297.989 344.901 298.611 345.292 299.327C345.682 300.043 345.877 300.883 345.877 301.843C345.877 303.451 345.367 304.791 344.35 305.86C343.331 306.929 341.86 307.523 339.938 307.641V310.701C339.938 310.858 339.881 310.986 339.766 311.083C339.652 311.182 339.519 311.23 339.366 311.23C339.195 311.23 339.004 311.205 338.795 311.156C338.585 311.107 338.481 310.954 338.481 310.7V307.639H338.482ZM338.482 289.776C337.758 289.875 337.216 290.12 336.854 290.512C336.492 290.904 336.311 291.385 336.311 291.954C336.311 292.542 336.492 293.028 336.854 293.411C337.215 293.793 337.758 294.181 338.482 294.573V289.776ZM339.938 304.431C340.584 304.353 341.113 304.137 341.522 303.783C341.931 303.43 342.136 302.92 342.136 302.253C342.136 301.685 341.965 301.145 341.622 300.635C341.279 300.125 340.718 299.663 339.938 299.252V304.431Z" fill="#F58023"/>
<path d="M134.137 152.005C128.794 169.478 136.231 178.855 144.322 182.969C148.518 185.102 152.209 185.973 154.792 186.317C157.192 186.638 158.632 186.504 158.632 186.504C158.391 182.76 161.082 180.962 161.082 180.962C161.143 179.97 160.485 178.826 159.424 177.605C155.932 173.59 149.5 169.626 148.922 165.32C148.163 159.652 148.985 152.566 155.04 146.269C163.172 137.816 162.523 130.703 162.523 130.703C162.523 130.703 162.213 127.345 157.339 126.091C151.758 124.655 140.414 131.473 134.137 152.005Z" fill="#A78BEF"/>
<path d="M157.337 126.09C157.337 126.09 156.509 128.844 159.066 130.088C161.623 131.331 160.413 134.212 163.543 134.532C166.673 134.853 167.218 131.875 170.099 133.699C173.208 135.667 175.033 132.859 174.264 131.186C173.496 129.512 176.07 130.114 175.281 127.716C175.281 127.716 172.613 125.728 170.614 127.041C170.614 127.041 170.091 129.654 168.183 129.827C166.93 129.942 163.791 128.01 162.128 126.519C162.129 126.519 159.632 125.188 157.337 126.09Z" fill="#8760EA"/>
<path d="M159.425 177.604C158.702 178.769 159.762 179.366 159.43 180.259C159.1 181.155 157.178 180.78 157.122 181.693C157.065 182.603 158.219 183.692 156.602 184.305C155.025 184.9 154.803 186.252 154.793 186.317C157.192 186.638 158.689 186.575 158.689 186.575C158.449 182.83 161.203 180.921 161.203 180.921C161.265 179.929 160.485 178.825 159.425 177.604Z" fill="#8760EA"/>
<path d="M171.253 182.571C171.23 182.92 170.929 183.183 170.58 183.161L170.536 183.157C170.252 183.14 169.971 183.113 169.689 183.1C169.407 183.099 169.127 183.078 168.848 183.094C168.34 183.098 167.838 183.147 167.343 183.212C168.63 184.653 170.345 185.731 170.346 185.744C170.688 185.881 171.034 186.016 171.377 186.147C172.006 186.384 172.638 186.615 173.276 186.836C174.55 187.278 175.837 187.687 177.136 188.06L177.138 188.061C177.442 188.149 177.639 188.449 177.589 188.768C177.534 189.114 177.209 189.35 176.864 189.295C175.504 189.081 174.149 188.83 172.798 188.541C172.123 188.397 171.45 188.243 170.776 188.079C170.512 188.014 170.25 187.949 169.988 187.882C169.982 187.893 169.976 187.903 169.971 187.914C170.611 188.342 171.258 188.76 171.915 189.165C172.651 189.622 173.4 190.058 174.156 190.479C174.912 190.904 175.684 191.294 176.46 191.675L176.475 191.681C176.763 191.824 176.901 192.164 176.785 192.472C176.662 192.799 176.297 192.964 175.968 192.84C175.134 192.525 174.3 192.2 173.485 191.839C172.667 191.483 171.857 191.109 171.058 190.714C170.27 190.326 169.489 189.924 168.717 189.505C168.712 189.509 168.708 189.513 168.703 189.516C168.924 189.723 169.146 189.931 169.375 190.132C169.891 190.589 170.423 191.034 170.974 191.456C171.524 191.879 172.084 192.291 172.664 192.677C173.239 193.07 173.834 193.432 174.434 193.789L174.447 193.796C174.719 193.958 174.834 194.301 174.703 194.597C174.562 194.916 174.188 195.061 173.867 194.919C173.202 194.626 172.538 194.322 171.892 193.984C171.24 193.653 170.605 193.293 169.976 192.919C169.347 192.544 168.732 192.144 168.127 191.726C167.825 191.518 167.525 191.3 167.228 191.078C167.094 190.976 166.964 190.878 166.834 190.775C166.825 190.779 166.817 190.784 166.809 190.788C166.926 190.934 167.04 191.081 167.161 191.225C167.521 191.656 167.901 192.076 168.291 192.489C168.682 192.902 169.085 193.307 169.5 193.702C169.914 194.099 170.339 194.483 170.771 194.866L170.778 194.871C171.01 195.076 171.062 195.426 170.887 195.693C170.696 195.985 170.302 196.067 170.009 195.876C169.512 195.55 169.018 195.22 168.533 194.873C168.048 194.528 167.568 194.17 167.097 193.799C166.627 193.425 166.163 193.041 165.71 192.636C165.484 192.433 165.258 192.227 165.038 192.011L164.706 191.681C164.664 191.638 164.625 191.597 164.586 191.556C163.955 191.295 161.805 190.195 159.497 186.597C158.741 185.418 160.348 181.988 161.648 181.535C163.109 181.025 165.439 181.402 166.064 181.519C166.396 181.49 166.728 181.474 167.057 181.468C167.689 181.472 168.316 181.498 168.933 181.58C169.243 181.608 169.547 181.675 169.853 181.721C170.157 181.778 170.457 181.849 170.757 181.914C171.056 181.976 171.273 182.254 171.253 182.571Z" fill="#EAA69B"/>
<path d="M237.604 98.8397H259.354C261.281 98.8397 262.845 97.2762 262.845 95.3484V82.7895C262.845 80.8616 261.281 79.2981 259.354 79.2981H237.604C235.677 79.2981 234.113 80.8616 234.113 82.7895V95.3484C234.113 97.2762 235.677 98.8397 237.604 98.8397Z" fill="#4D94E8"/>
<path d="M262.691 94.5471L263.033 101.733C263.077 102.643 261.974 103.126 261.336 102.477L256.287 97.3525L262.691 94.5471Z" fill="#4D94E8"/>
<path d="M242.986 88.0586L244.871 86.9265L246.888 91.3639L253.533 82.8579L255.363 84.1222L246.627 95.7071L242.986 88.0586Z" fill="white"/>
<path d="M257.643 304.37C257.643 321.198 244.006 330.505 227.176 330.505C213.887 330.505 202.585 324.7 198.42 313.968C197.312 311.112 196.709 307.908 196.709 304.37C196.709 290.224 206.347 269.487 219.404 263.224H234.948C248.011 269.487 257.643 290.224 257.643 304.37Z" fill="#E527BB"/>
<g opacity="0.32">
<path d="M223.373 263.224C217.503 268.181 198.536 286.332 198.42 313.968C197.312 311.112 196.709 307.908 196.709 304.37C196.709 290.224 206.347 269.487 219.404 263.224H223.373Z" fill="white"/>
</g>
<path d="M240.653 249.055L235.836 261.016H218.491L213.707 249.461C213.616 248.604 214.637 247.905 215.637 247.85C216.635 247.795 217.584 248.197 218.479 248.58C219.373 248.963 220.33 249.351 221.325 249.274C223.469 249.109 225.165 246.865 227.228 247.408C228.473 247.736 229.153 248.99 230.402 249.31C231.958 249.711 233.377 248.507 234.863 247.95C236.798 247.22 239.257 247.691 240.653 249.055Z" fill="#E527BB"/>
<path d="M235.838 261.016L234.948 263.224H234.943H219.409H219.404L218.492 261.016H235.838Z" fill="#AE138C"/>
<path d="M225.082 311.278C224.166 311.211 223.352 311.065 222.638 310.843C221.923 310.62 221.299 310.375 220.763 310.107C220.227 309.839 219.793 309.571 219.458 309.303C219.122 309.035 218.877 308.835 218.721 308.7C218.564 308.544 218.459 308.399 218.403 308.265C218.347 308.132 218.397 307.943 218.554 307.696L219.86 305.686C219.993 305.463 220.167 305.347 220.379 305.334C220.59 305.323 220.864 305.463 221.199 305.752C221.712 306.177 222.304 306.556 222.973 306.891C223.642 307.226 224.346 307.449 225.082 307.56V301.032C224.301 300.719 223.52 300.361 222.739 299.96C221.958 299.558 221.249 299.072 220.613 298.504C219.976 297.935 219.458 297.254 219.056 296.462C218.655 295.67 218.453 294.716 218.453 293.599C218.453 292.796 218.581 292.031 218.838 291.306C219.094 290.581 219.496 289.933 220.044 289.364C220.59 288.794 221.282 288.32 222.119 287.94C222.956 287.561 223.943 287.327 225.082 287.238V286.166C225.082 285.988 225.144 285.837 225.266 285.714C225.388 285.592 225.539 285.531 225.717 285.531H226.152C226.33 285.531 226.482 285.592 226.604 285.714C226.726 285.838 226.788 285.988 226.788 286.166V287.271C227.524 287.338 228.221 287.467 228.88 287.657C229.538 287.846 230.124 288.058 230.637 288.293C231.15 288.528 231.58 288.751 231.926 288.962C232.271 289.175 232.523 289.337 232.679 289.448C232.857 289.56 232.964 289.727 232.997 289.95C233.031 290.173 232.992 290.375 232.88 290.553L231.54 292.495C231.25 292.898 230.937 292.986 230.604 292.763C230.135 292.45 229.577 292.115 228.929 291.759C228.282 291.403 227.568 291.135 226.787 290.955V297.083C227.523 297.396 228.298 297.759 229.113 298.171C229.928 298.585 230.675 299.093 231.355 299.694C232.036 300.297 232.605 301.006 233.063 301.821C233.521 302.635 233.749 303.59 233.749 304.683C233.749 306.514 233.152 308.037 231.958 309.254C230.764 310.471 229.04 311.146 226.787 311.279V314.762C226.787 314.94 226.719 315.086 226.586 315.197C226.452 315.309 226.296 315.364 226.118 315.364C225.917 315.364 225.693 315.336 225.449 315.28C225.203 315.223 225.08 315.051 225.08 314.761V311.278H225.082ZM225.082 290.954C224.234 291.066 223.597 291.345 223.174 291.791C222.749 292.239 222.537 292.786 222.537 293.432C222.537 294.101 222.749 294.654 223.174 295.09C223.597 295.525 224.234 295.967 225.082 296.413V290.954ZM226.79 307.629C227.549 307.54 228.167 307.294 228.648 306.892C229.128 306.491 229.367 305.911 229.367 305.152C229.367 304.505 229.167 303.891 228.765 303.31C228.363 302.73 227.704 302.205 226.79 301.737V307.629Z" fill="white"/>
<path d="M239.114 265.793C241.612 269.93 243.606 274.599 244.925 279.675C250.783 302.225 241.138 324.247 223.382 328.862C221.807 329.271 220.222 329.526 218.637 329.642C221.346 330.21 224.209 330.505 227.173 330.505C244.003 330.505 257.64 321.199 257.64 304.37C257.641 291.778 250.005 273.971 239.114 265.793Z" fill="#AE138C"/>
<path d="M230.126 262.12L227.822 278.622H231.279V262.12H230.126Z" fill="#AE138C"/>
<path d="M230.902 262.12L232.951 275.023H235.837L231.744 262.12H230.902Z" fill="#AE138C"/>
<path d="M231.081 263.107C231.652 263.107 232.116 262.722 232.116 262.247C232.116 261.773 231.652 261.388 231.081 261.388C230.51 261.388 230.047 261.773 230.047 262.247C230.047 262.722 230.51 263.107 231.081 263.107Z" fill="white"/>
<path d="M221.511 260.989C221.511 260.989 217.774 254.495 219.593 254.95C221.412 255.405 222.322 259.147 223.345 258.129C224.368 257.11 222.89 252.413 224.083 252.602C225.277 252.79 227.459 260.181 229.551 258.93C231.643 257.679 233.69 253.586 234.03 255.177C234.371 256.769 233.632 261.016 233.632 261.016L221.511 260.989Z" fill="#AE138C"/>
<path d="M222.437 263.224C221.991 263.63 213.837 270.303 215.073 271.127C216.309 271.95 221.991 265.072 223.062 265.793C224.132 266.513 220.674 270.882 223.062 269.728C225.45 268.573 227.097 263.224 227.097 263.224H222.437Z" fill="#AE138C"/>
<rect x="339.508" y="141.656" width="37.8281" height="37.8281" fill="#FFF7F2"/>
<path d="M336.298 138.504L358.635 139.534L354.489 166.637L332.152 165.607L336.298 138.504ZM355.493 142.108L338.614 141.331L335.295 163.032L352.174 163.81L355.493 142.108Z" fill="#DAA7EE"/>
<path d="M333.514 144.345C337.838 147.061 341.685 150.24 344.318 154.889C350.428 150.082 355.941 145.725 363.625 142.707C355.576 148.656 348.72 155.725 343.324 163.638C341.742 157.016 338.347 150.144 333.514 144.345Z" fill="#E527BB"/>
<path d="M368.128 154.298C367.532 154.234 367.116 153.461 367.195 152.545C367.275 151.61 367.839 150.883 368.454 150.919L414.65 153.595C415.272 153.635 415.699 154.417 415.62 155.351C415.54 156.285 414.977 157.013 414.361 156.977L368.165 154.3C368.152 154.3 368.14 154.299 368.128 154.298Z" fill="#DAA7EE"/>
<path d="M367.493 161.576C366.897 161.512 366.481 160.738 366.561 159.823C366.64 158.888 367.204 158.16 367.819 158.196L414.016 160.873C414.644 160.915 415.065 161.694 414.985 162.628C414.906 163.563 414.342 164.29 413.727 164.254L367.53 161.578C367.518 161.578 367.505 161.577 367.493 161.576Z" fill="#DAA7EE"/>
<path d="M366.719 168.804C366.123 168.74 365.708 167.967 365.787 167.051C365.867 166.116 366.43 165.389 367.046 165.425L390.143 166.763C390.768 166.798 391.192 167.584 391.113 168.518C391.033 169.453 390.469 170.18 389.854 170.144L366.756 168.806C366.744 168.806 366.732 168.805 366.719 168.804Z" fill="#DAA7EE"/>
<path d="M369.02 147.138C368.424 147.074 368.008 146.301 368.088 145.385C368.167 144.451 368.731 143.723 369.346 143.759L392.444 145.097C393.07 145.138 393.493 145.919 393.414 146.853C393.334 147.787 392.77 148.515 392.155 148.479L369.057 147.141C369.045 147.141 369.033 147.139 369.02 147.138Z" fill="#DAA7EE"/>
<path d="M197.566 176.166L193.962 185.875H192.123L188.519 176.166H190.196L192.461 182.624L193.05 184.551L193.638 182.639L195.904 176.166H197.566ZM201.573 178.372C202.289 178.372 202.922 178.524 203.471 178.828C204.02 179.132 204.447 179.574 204.751 180.152C205.064 180.721 205.221 181.403 205.221 182.197C205.221 182.992 205.064 183.678 204.751 184.257C204.447 184.826 204.02 185.262 203.471 185.566C202.922 185.87 202.289 186.022 201.573 186.022C200.857 186.022 200.225 185.87 199.675 185.566C199.126 185.262 198.695 184.826 198.381 184.257C198.067 183.678 197.91 182.992 197.91 182.197C197.91 181.403 198.067 180.721 198.381 180.152C198.695 179.574 199.126 179.132 199.675 178.828C200.225 178.524 200.857 178.372 201.573 178.372ZM201.573 179.608C201.132 179.608 200.754 179.711 200.44 179.917C200.136 180.113 199.901 180.403 199.734 180.785C199.567 181.167 199.484 181.638 199.484 182.197C199.484 182.746 199.567 183.217 199.734 183.61C199.901 183.992 200.136 184.286 200.44 184.492C200.754 184.688 201.132 184.786 201.573 184.786C202.014 184.786 202.387 184.688 202.691 184.492C202.995 184.286 203.231 183.992 203.397 183.61C203.564 183.217 203.647 182.746 203.647 182.197C203.647 181.638 203.564 181.167 203.397 180.785C203.231 180.403 202.995 180.113 202.691 179.917C202.387 179.711 202.014 179.608 201.573 179.608ZM208.732 175.21V183.815C208.732 184.178 208.795 184.428 208.923 184.566C209.05 184.703 209.261 184.772 209.555 184.772C209.732 184.772 209.879 184.762 209.997 184.742C210.124 184.713 210.281 184.664 210.467 184.595L210.291 185.772C210.124 185.85 209.933 185.909 209.717 185.949C209.501 185.998 209.286 186.022 209.07 186.022C208.413 186.022 207.927 185.855 207.614 185.522C207.31 185.179 207.157 184.654 207.157 183.948V175.21H208.732ZM214.403 186.022C213.922 186.022 213.476 185.934 213.064 185.757C212.662 185.581 212.339 185.296 212.093 184.904C211.848 184.512 211.726 184.002 211.726 183.374V178.52H213.3V182.977C213.3 183.644 213.442 184.105 213.726 184.36C214.011 184.605 214.408 184.728 214.918 184.728C215.163 184.728 215.398 184.688 215.624 184.61C215.859 184.522 216.07 184.389 216.257 184.213C216.443 184.026 216.585 183.791 216.683 183.507C216.791 183.222 216.845 182.889 216.845 182.506V178.52H218.419V185.875H217.036L216.963 184.683C216.708 185.144 216.364 185.483 215.933 185.698C215.501 185.914 214.991 186.022 214.403 186.022ZM220.878 185.875V178.52H222.276L222.379 180.432L222.173 180.226C222.31 179.804 222.506 179.456 222.761 179.182C223.026 178.897 223.335 178.691 223.688 178.564C224.051 178.436 224.433 178.372 224.835 178.372C225.355 178.372 225.821 178.475 226.233 178.681C226.655 178.877 226.988 179.177 227.233 179.579C227.479 179.981 227.601 180.491 227.601 181.109V185.875H226.027V181.594C226.027 180.868 225.875 180.368 225.571 180.094C225.277 179.809 224.904 179.667 224.453 179.667C224.129 179.667 223.815 179.745 223.511 179.902C223.207 180.049 222.952 180.29 222.746 180.623C222.55 180.957 222.452 181.403 222.452 181.962V185.875H220.878ZM232.048 176.357V183.668C232.048 184.031 232.141 184.296 232.327 184.463C232.524 184.629 232.783 184.713 233.107 184.713C233.372 184.713 233.602 184.674 233.799 184.595C233.995 184.507 234.176 184.389 234.343 184.242L234.696 185.39C234.47 185.586 234.191 185.743 233.857 185.86C233.534 185.968 233.171 186.022 232.769 186.022C232.347 186.022 231.96 185.953 231.607 185.816C231.254 185.679 230.979 185.458 230.783 185.154C230.587 184.84 230.484 184.433 230.474 183.933V176.798L232.048 176.357ZM234.578 178.52V179.755H229.062V178.52H234.578ZM239.371 186.022C238.636 186.022 237.989 185.87 237.43 185.566C236.871 185.262 236.434 184.826 236.12 184.257C235.816 183.678 235.664 182.992 235.664 182.197C235.664 181.403 235.816 180.721 236.12 180.152C236.434 179.574 236.866 179.132 237.415 178.828C237.964 178.524 238.587 178.372 239.283 178.372C239.999 178.372 240.607 178.52 241.107 178.814C241.608 179.108 241.99 179.51 242.255 180.02C242.52 180.53 242.652 181.109 242.652 181.756C242.652 181.932 242.647 182.099 242.637 182.256C242.627 182.413 242.613 182.55 242.593 182.668H236.679V181.462H241.902L241.122 181.697C241.122 181.03 240.955 180.52 240.622 180.167C240.288 179.804 239.832 179.623 239.254 179.623C238.832 179.623 238.464 179.721 238.15 179.917C237.837 180.113 237.596 180.407 237.43 180.8C237.263 181.182 237.18 181.653 237.18 182.212C237.18 182.761 237.268 183.227 237.444 183.61C237.621 183.992 237.871 184.281 238.195 184.477C238.518 184.674 238.901 184.772 239.342 184.772C239.832 184.772 240.23 184.679 240.534 184.492C240.838 184.306 241.078 184.046 241.254 183.712L242.505 184.301C242.328 184.654 242.088 184.963 241.784 185.228C241.49 185.483 241.137 185.679 240.725 185.816C240.313 185.953 239.862 186.022 239.371 186.022ZM247.876 186.022C247.141 186.022 246.493 185.87 245.934 185.566C245.375 185.262 244.939 184.826 244.625 184.257C244.321 183.678 244.169 182.992 244.169 182.197C244.169 181.403 244.321 180.721 244.625 180.152C244.939 179.574 245.37 179.132 245.92 178.828C246.469 178.524 247.092 178.372 247.788 178.372C248.504 178.372 249.112 178.52 249.612 178.814C250.112 179.108 250.495 179.51 250.76 180.02C251.024 180.53 251.157 181.109 251.157 181.756C251.157 181.932 251.152 182.099 251.142 182.256C251.132 182.413 251.118 182.55 251.098 182.668H245.184V181.462H250.407L249.627 181.697C249.627 181.03 249.46 180.52 249.127 180.167C248.793 179.804 248.337 179.623 247.759 179.623C247.337 179.623 246.969 179.721 246.655 179.917C246.341 180.113 246.101 180.407 245.934 180.8C245.768 181.182 245.684 181.653 245.684 182.212C245.684 182.761 245.773 183.227 245.949 183.61C246.126 183.992 246.376 184.281 246.699 184.477C247.023 184.674 247.405 184.772 247.847 184.772C248.337 184.772 248.734 184.679 249.038 184.492C249.342 184.306 249.583 184.046 249.759 183.712L251.01 184.301C250.833 184.654 250.593 184.963 250.289 185.228C249.995 185.483 249.642 185.679 249.23 185.816C248.818 185.953 248.367 186.022 247.876 186.022ZM253.145 185.875V178.52H254.483L254.63 179.844C254.827 179.363 255.116 179 255.498 178.755C255.891 178.5 256.371 178.372 256.94 178.372C257.087 178.372 257.234 178.387 257.381 178.417C257.528 178.436 257.651 178.47 257.749 178.52L257.528 179.902C257.421 179.863 257.298 179.834 257.161 179.814C257.033 179.785 256.857 179.77 256.631 179.77C256.327 179.77 256.028 179.853 255.734 180.02C255.44 180.177 255.194 180.417 254.998 180.741C254.812 181.065 254.719 181.476 254.719 181.977V185.875H253.145ZM261.772 186.022C261.037 186.022 260.365 185.88 259.757 185.595C259.149 185.311 258.668 184.909 258.315 184.389L259.404 183.448C259.62 183.85 259.929 184.173 260.331 184.419C260.743 184.654 261.233 184.772 261.802 184.772C262.253 184.772 262.611 184.693 262.876 184.536C263.14 184.379 263.273 184.159 263.273 183.874C263.273 183.688 263.209 183.526 263.082 183.389C262.964 183.242 262.733 183.129 262.39 183.05L260.846 182.727C260.061 182.57 259.502 182.32 259.168 181.977C258.835 181.624 258.668 181.177 258.668 180.638C258.668 180.236 258.786 179.863 259.021 179.52C259.257 179.177 259.6 178.902 260.051 178.696C260.512 178.48 261.061 178.372 261.699 178.372C262.434 178.372 263.062 178.505 263.582 178.77C264.102 179.025 264.499 179.392 264.773 179.873L263.685 180.785C263.498 180.393 263.224 180.103 262.861 179.917C262.498 179.721 262.12 179.623 261.728 179.623C261.414 179.623 261.145 179.662 260.919 179.741C260.694 179.819 260.522 179.927 260.404 180.064C260.287 180.201 260.228 180.363 260.228 180.55C260.228 180.746 260.301 180.917 260.448 181.065C260.595 181.212 260.86 181.324 261.243 181.403L262.92 181.756C263.626 181.893 264.121 182.129 264.406 182.462C264.7 182.786 264.847 183.183 264.847 183.654C264.847 184.124 264.724 184.541 264.479 184.904C264.234 185.257 263.881 185.532 263.42 185.728C262.959 185.924 262.41 186.022 261.772 186.022Z" fill="white"/>
<path d="M457 329.845C482.405 329.845 503 309.285 503 283.923C503 258.56 482.405 238 457 238C431.595 238 411 258.56 411 283.923C411 309.285 431.595 329.845 457 329.845Z" fill="#6363CE"/>
<path d="M457.001 325.658C480.089 325.658 498.806 306.972 498.806 283.923C498.806 260.873 480.089 242.188 457.001 242.188C433.912 242.188 415.195 260.873 415.195 283.923C415.195 306.972 433.912 325.658 457.001 325.658Z" fill="#A78BEF"/>
<path d="M457 321.4C477.733 321.4 494.541 304.621 494.541 283.923C494.541 263.224 477.733 246.445 457 246.445C436.267 246.445 419.459 263.224 419.459 283.923C419.459 304.621 436.267 321.4 457 321.4Z" fill="white"/>
<path d="M456.944 259.693C456.455 259.693 456.059 259.297 456.059 258.809V253.468C456.059 252.98 456.455 252.584 456.944 252.584C457.433 252.584 457.83 252.98 457.83 253.468V258.809C457.83 259.297 457.433 259.693 456.944 259.693Z" fill="#010190"/>
<path d="M457.056 315.261C456.567 315.261 456.17 314.865 456.17 314.377V310.176C456.17 309.688 456.567 309.292 457.056 309.292C457.545 309.292 457.941 309.688 457.941 310.176V314.377C457.941 314.865 457.545 315.261 457.056 315.261Z" fill="#010190"/>
<path d="M482.412 283.868C482.412 283.379 482.809 282.983 483.298 282.983H487.506C487.995 282.983 488.391 283.379 488.391 283.868C488.391 284.356 487.995 284.752 487.506 284.752H483.298C482.809 284.752 482.412 284.356 482.412 283.868Z" fill="#010190"/>
<path d="M425.607 283.978C425.607 283.489 426.004 283.094 426.493 283.094H433.626C434.115 283.094 434.512 283.489 434.512 283.978C434.512 284.466 434.115 284.862 433.626 284.862H426.493C426.004 284.862 425.607 284.466 425.607 283.978Z" fill="#010190"/>
<path d="M474.061 266.857L474.015 266.811C473.682 266.479 473.682 265.939 474.015 265.606L477.268 262.36C477.601 262.028 478.141 262.028 478.475 262.36L478.521 262.406C478.854 262.738 478.854 263.278 478.521 263.611L475.268 266.857C474.934 267.189 474.394 267.189 474.061 266.857Z" fill="#010190"/>
<path d="M435.499 305.511L435.453 305.466C435.12 305.133 435.12 304.594 435.453 304.261L438.61 301.141C438.943 300.809 439.483 300.809 439.817 301.141L439.863 301.187C440.196 301.519 440.196 302.058 439.863 302.391L436.706 305.511C436.372 305.844 435.831 305.844 435.499 305.511Z" fill="#010190"/>
<path d="M475.808 302.647C476.154 302.301 476.715 302.301 477.061 302.647L478.577 304.16C478.923 304.505 478.923 305.065 478.577 305.411C478.231 305.756 477.67 305.756 477.324 305.411L475.808 303.897C475.462 303.552 475.462 302.991 475.808 302.647Z" fill="#010190"/>
<path d="M435.375 262.484L435.421 262.438C435.754 262.106 436.294 262.106 436.628 262.438L439.501 265.345C439.834 265.678 439.834 266.217 439.501 266.55L439.455 266.596C439.123 266.928 438.582 266.928 438.249 266.596L435.375 263.689C435.042 263.356 435.042 262.817 435.375 262.484Z" fill="#010190"/>
<path d="M457.881 284.091C457.881 283.475 458.382 282.975 458.999 282.975H482.488C483.106 282.975 483.606 283.475 483.606 284.091C483.606 284.707 483.106 285.207 482.488 285.207H458.999C458.382 285.207 457.881 284.707 457.881 284.091Z" fill="#A78BEF"/>
<path d="M457.042 282.975C457.66 282.975 458.16 283.475 458.16 284.091V300.283C458.16 300.899 457.66 301.399 457.042 301.399C456.425 301.399 455.924 300.899 455.924 300.283V284.091C455.924 283.475 456.425 282.975 457.042 282.975Z" fill="#E527BB"/>
<path d="M457.125 284.098C457.044 284.098 456.964 284.065 456.906 284C456.797 283.879 456.807 283.694 456.927 283.585L473.706 268.51C473.827 268.402 474.013 268.411 474.122 268.532C474.231 268.653 474.221 268.839 474.101 268.947L457.322 284.023C457.266 284.073 457.195 284.098 457.125 284.098Z" fill="#373449"/>
<path d="M459.867 286.785C461.45 285.204 461.45 282.641 459.867 281.06C458.283 279.479 455.716 279.479 454.133 281.06C452.549 282.641 452.549 285.204 454.133 286.785C455.716 288.365 458.283 288.365 459.867 286.785Z" fill="#E527BB"/>
</g>
<defs>
<clipPath id="clip0_856_15402">
<rect width="532.49" height="330.06" fill="white"/>
</clipPath>
</defs>
</svg>
