<svg width="533" height="331" viewBox="0 0 533 331" fill="none" xmlns="http://www.w3.org/2000/svg">
<path opacity="0.2" fill-rule="evenodd" clip-rule="evenodd" d="M0 7.5756C0 7.5756 496.166 -10.2363 522.25 8.76437C545.499 25.7019 520.61 239.759 514.929 286.131C514.801 287.134 513.992 287.91 512.938 288.028C382.355 302.136 78.1811 295.779 13.6451 294.227C12.5792 294.197 11.7008 293.49 11.49 292.498C2.02627 247.216 0 7.5756 0 7.5756Z" fill="#999999"/>
<path d="M336.836 144.587V22.4807L240.086 22.4807L240.086 144.587H336.836Z" stroke="#004144" stroke-width="0.5" stroke-miterlimit="10" stroke-linecap="round" stroke-linejoin="round"/>
<path d="M243.537 141.129H333.369V25.9482L243.537 25.9482V141.129Z" fill="white"/>
<path d="M321.848 57.8691H315.566V130.204H321.848V57.8691Z" fill="#E527BB"/>
<path d="M312.219 79.9612H305.938V130.212H312.219V79.9612Z" fill="#A78BEF"/>
<path d="M302.59 76.0188H296.309V130.204H302.59V76.0188Z" fill="#A78BEF"/>
<path d="M292.963 64.7949H286.682V130.204H292.963V64.7949Z" fill="#E527BB"/>
<path d="M283.332 41.7439H277.051V130.212H283.332V41.7439Z" fill="#E527BB"/>
<path d="M273.703 42.5042H267.422V130.204H273.703V42.5042Z" fill="#E527BB"/>
<path d="M264.068 82.0854H257.787V130.204H264.068V82.0854Z" fill="#A78BEF"/>
<path d="M322.164 48.7284L338.98 51.1165L341.368 34.3001L324.552 31.912L322.164 48.7284Z" fill="#E527BB"/>
<path d="M295.227 55.3008L312.188 54.4041L311.291 37.4433L294.33 38.3401L295.227 55.3008Z" fill="#A78BEF"/>
<path d="M215.947 71.3075C214.236 73.4234 212.889 74.9772 213.492 76.5558C214.096 78.1344 212.757 81.2172 214.831 83.6223C216.914 86.0275 214.765 89.6723 218.121 90.8625C221.476 92.0444 223.633 89.6723 223.633 89.6723C223.633 89.6723 218.154 68.5883 215.947 71.3075Z" fill="black"/>
<path d="M210.617 271.973L209.865 281.982L226.255 283.974C226.255 283.974 228.139 280.18 223.255 277.494C218.37 274.808 218.411 272.105 218.411 272.105L210.617 271.973Z" fill="#8763E4"/>
<path d="M223.279 277.519C218.18 277.428 218.105 281.817 218.105 281.817L209.799 279.965L209.857 281.982C211.435 282.742 215.378 283.751 218.989 284.164C222.039 284.511 224.585 284.255 226.246 283.974C226.436 283.519 226.932 282.147 226.263 280.544C225.849 279.535 224.973 278.461 223.279 277.519Z" fill="white"/>
<path d="M214.344 272.039C214.344 272.039 213.906 276.535 218.84 279.279" stroke="#00192F" stroke-width="0.5" stroke-miterlimit="10" stroke-linecap="round" stroke-linejoin="round"/>
<path d="M216.559 277.552C216.559 277.552 219.352 275.75 221.187 276.163" stroke="#00192F" stroke-width="0.5" stroke-miterlimit="10" stroke-linecap="round" stroke-linejoin="round"/>
<path d="M215.385 275.634C215.385 275.634 218.12 274.188 219.649 274.709" stroke="#00192F" stroke-width="0.5" stroke-miterlimit="10" stroke-linecap="round" stroke-linejoin="round"/>
<path d="M214.492 273.717L218.674 273.18" stroke="#00192F" stroke-width="0.5" stroke-miterlimit="10" stroke-linecap="round" stroke-linejoin="round"/>
<path d="M260.801 271.973L260.049 281.982L276.438 283.974C276.438 283.974 278.323 280.18 273.438 277.494C268.553 274.808 268.595 272.105 268.595 272.105L260.801 271.973Z" fill="#A78BEF"/>
<path d="M273.463 277.519C268.363 277.428 268.289 281.817 268.289 281.817L259.982 279.965L260.04 281.982C261.619 282.742 265.561 283.751 269.173 284.164C272.223 284.511 274.768 284.255 276.43 283.974C276.62 283.519 277.116 282.147 276.446 280.544C276.041 279.535 275.165 278.461 273.463 277.519Z" fill="white"/>
<path d="M269.033 279.279C264.099 276.535 264.537 272.039 264.537 272.039" stroke="#00192F" stroke-width="0.5" stroke-miterlimit="10" stroke-linecap="round" stroke-linejoin="round"/>
<path d="M266.752 277.552C266.752 277.552 269.546 275.75 271.38 276.163" stroke="#00192F" stroke-width="0.5" stroke-miterlimit="10" stroke-linecap="round" stroke-linejoin="round"/>
<path d="M265.58 275.634C265.58 275.634 268.316 274.188 269.837 274.709" stroke="#00192F" stroke-width="0.5" stroke-miterlimit="10" stroke-linecap="round" stroke-linejoin="round"/>
<path d="M264.686 273.717L268.868 273.18" stroke="#00192F" stroke-width="0.5" stroke-miterlimit="10" stroke-linecap="round" stroke-linejoin="round"/>
<path d="M256.511 128.129L254.023 137.948" stroke="#00192F" stroke-width="0.5" stroke-miterlimit="10" stroke-linecap="round" stroke-linejoin="round"/>
<path d="M249.453 130.237C252.743 141.139 258.007 148.445 262.942 143.304C268.702 137.304 254.999 122.931 254.999 122.931L249.453 130.237Z" fill="#FAC795"/>
<path d="M223.057 163.437L247.777 221.631L256.365 273.436H271.283L265.406 223.449L250.562 163.603L237.719 163.264L223.057 163.437Z" fill="black"/>
<path d="M211.451 167V221.631L207.492 273.601H222.402L230.196 223.45L233.097 185.703H236.527V167H211.451Z" fill="black"/>
<path d="M233.096 185.703L236.526 184.282L237.716 172.347" stroke="#00192F" stroke-width="0.5" stroke-miterlimit="10" stroke-linecap="round" stroke-linejoin="round"/>
<path d="M220.891 167.248C220.891 167.248 225.048 178.893 214.354 177.992" stroke="#00192F" stroke-width="0.5" stroke-miterlimit="10" stroke-linecap="round" stroke-linejoin="round"/>
<path d="M214.353 166.132C214.353 166.132 214.75 224.466 214.353 230.392C213.956 236.318 212.361 265.725 212.361 265.725" stroke="#00192F" stroke-width="0.5" stroke-miterlimit="10" stroke-linecap="round" stroke-linejoin="round"/>
<path d="M207.93 265.725H223.303" stroke="#00192F" stroke-width="0.5" stroke-miterlimit="10" stroke-linecap="round" stroke-linejoin="round"/>
<path d="M245.404 166.132C245.404 166.132 247.718 176.512 253.587 175.769" stroke="#00192F" stroke-width="0.5" stroke-miterlimit="10" stroke-linecap="round" stroke-linejoin="round"/>
<path d="M255.404 265.849L270.331 265.369" stroke="#00192F" stroke-width="0.5" stroke-miterlimit="10" stroke-linecap="round" stroke-linejoin="round"/>
<path d="M207.6 103.21C207.6 103.21 227.469 90.697 246.247 101.094C249.09 144.89 250.346 162.611 250.346 162.611C245.619 164.917 244.139 165.76 241.362 166.016C232.874 166.809 230.27 163.503 220.7 164.71C217.84 165.065 211.492 166.189 211.492 166.189H214.104L207.6 103.21Z" fill="#E527BB"/>
<path d="M207.6 147.651L207.848 137.304L198.12 134.452C198.12 134.452 197.087 145.081 197.814 149.37C199.087 156.867 207.03 157.073 207.6 147.651Z" fill="#FAC795"/>
<path d="M237.875 97.9456C237.875 97.9456 248.107 97.9951 252.504 107.748C256.901 117.5 261.141 130.377 261.141 130.377C261.141 130.377 258.868 134.353 249.099 135.064C243.776 119.649 237.553 105.244 237.875 97.9456Z" fill="#A78BEF"/>
<path d="M217.278 98.7971C231.105 119.303 229.097 143.957 230.072 168.281C227.543 167.81 224.749 167.496 220.708 168.025C217.848 168.396 211.501 169.578 211.501 169.578L207.6 103.211C207.6 103.211 211.418 100.839 217.278 98.7971Z" fill="#A78BEF"/>
<path d="M237.389 97.4993C240.315 98.2349 244.224 99.5655 247.175 101.433C250.018 147.362 252.861 165.908 252.861 165.908C248.134 168.33 244.142 169.124 241.373 169.388C239.91 169.529 238.637 169.537 237.455 169.471C237.067 145.486 234.306 121.492 237.389 97.4993Z" fill="#A78BEF"/>
<path d="M212.882 100.582C212.882 100.582 198.229 103.235 197.848 117.558C197.559 128.435 195.873 140.932 195.873 140.932C195.873 140.932 199.08 144.138 208.676 142.138C209.899 125.798 215.048 107.533 212.882 100.582Z" fill="#A78BEF"/>
<path d="M247.379 116.84C247.379 116.84 249.437 131.469 249.668 135.816" stroke="#00192F" stroke-width="0.5" stroke-miterlimit="10" stroke-linecap="round" stroke-linejoin="round"/>
<path d="M209.103 137.601C209.037 137.055 211.962 124.253 210.483 119.377" stroke="#00192F" stroke-width="0.5" stroke-miterlimit="10" stroke-linecap="round" stroke-linejoin="round"/>
<path d="M219.949 98.1522C219.56 98.5076 219.354 98.9043 219.354 99.3176C219.354 100.971 222.767 102.309 226.974 102.309C231.181 102.309 234.594 100.971 234.594 99.3176C234.594 98.6316 234.007 98.0034 233.024 97.4993" stroke="#00192F" stroke-width="0.5" stroke-miterlimit="10" stroke-linecap="round" stroke-linejoin="round"/>
<path d="M220.693 89.499L220.586 98.8219C220.793 99.0368 225.611 102.384 232.744 99.6897C232.826 95.706 232.909 91.7305 232.983 87.7468L220.693 89.499Z" fill="#FAC795"/>
<path d="M260.562 128.7C260.562 128.7 251.768 133.13 249.404 132.502" stroke="#00192F" stroke-width="0.5" stroke-miterlimit="10" stroke-linecap="round" stroke-linejoin="round"/>
<path d="M208.89 139.659C208.89 139.659 201.121 140.94 195.988 138.279" stroke="#00192F" stroke-width="0.5" stroke-miterlimit="10" stroke-linecap="round" stroke-linejoin="round"/>
<path d="M222.18 136.163C224.395 133.469 227.114 132.229 230.379 131.411C232.751 130.816 234.453 131.452 229.85 133.32" fill="#FAC795"/>
<path d="M229.851 133.32C239.413 129.989 234.438 133.692 232.123 134.551C236.793 132.965 238.14 133.998 233.355 136.056C237.438 134.543 237.396 136.353 233.851 137.808C238.14 136.717 236.272 138.775 233.504 139.948C229.851 141.502 224.429 142.957 224.429 142.957C224.429 142.957 209.502 153.09 203.923 155.04C203.75 155.098 200.485 155.478 199.022 153.47C197.518 151.395 198.262 147.18 201.874 144.783L222.181 136.163" fill="#FAC795"/>
<path d="M227.963 134.088L230.781 132.915" stroke="#00192F" stroke-width="0.5" stroke-miterlimit="10" stroke-linecap="round" stroke-linejoin="round"/>
<path d="M230.967 135.047L233.331 134.171" stroke="#00192F" stroke-width="0.5" stroke-miterlimit="10" stroke-linecap="round" stroke-linejoin="round"/>
<path d="M231.957 136.345L233.891 135.816" stroke="#00192F" stroke-width="0.5" stroke-miterlimit="10" stroke-linecap="round" stroke-linejoin="round"/>
<path d="M232.668 138.419L234.189 137.659" stroke="#00192F" stroke-width="0.5" stroke-miterlimit="10" stroke-linecap="round" stroke-linejoin="round"/>
<path d="M201.371 145.337L212.967 140.073" stroke="#00192F" stroke-width="0.5" stroke-miterlimit="10" stroke-linecap="round" stroke-linejoin="round"/>
<path d="M256.382 133.741C254.299 136.427 253.977 140.362 255.837 143.411C258.151 147.205 262.325 145.709 263.771 143.023L277.904 117.137C276.053 115.848 274.342 114.261 272.689 112.69L256.382 133.741Z" fill="#FAC795"/>
<path d="M275.761 111.971C288.381 102.128 281.612 111.161 279.397 111.36C281.463 111.178 281.356 112.6 280.405 112.897C281.72 112.823 281.653 114.302 280.686 114.682C281.513 114.608 282.009 115.286 280.62 116.765C279.629 117.823 278.893 118.079 277.463 118.93C275.909 119.856 273.884 119.286 272.868 117.625L272.38 116.831C271.554 115.484 271.702 113.823 272.554 112.575C273.67 110.938 275.67 108.508 276.818 108.789C277.976 109.07 275.761 111.971 275.761 111.971Z" fill="#FAC795"/>
<path d="M280.688 114.682C278.986 114.715 277.498 115.376 278.192 116.467C278.886 117.558 280.779 115.938 279.324 115.732" stroke="#00192F" stroke-width="0.5" stroke-miterlimit="10" stroke-linecap="round" stroke-linejoin="round"/>
<path d="M280.547 112.839C279.092 112.624 276.166 114.153 278.191 115.038" stroke="#00192F" stroke-width="0.5" stroke-miterlimit="10" stroke-linecap="round" stroke-linejoin="round"/>
<path d="M280.06 111.228C277.92 111.104 275.746 113.5 277.911 113.434" stroke="#00192F" stroke-width="0.5" stroke-miterlimit="10" stroke-linecap="round" stroke-linejoin="round"/>
<path d="M275.762 111.971C275.762 111.971 277.126 113.963 275.324 115.443" stroke="#00192F" stroke-width="0.5" stroke-miterlimit="10" stroke-linecap="round" stroke-linejoin="round"/>
<path d="M234.694 69.911C235.306 72.0103 236.926 72.4153 236.372 74.5394C235.819 76.6635 238.199 77.6718 236.414 80.1761C234.628 82.6804 218.966 83.3581 219.148 75.5477C219.33 67.7373 234.694 69.911 234.694 69.911Z" fill="black"/>
<path d="M225.825 70.6961C220.452 71.5391 216.527 75.7046 219.337 85.0358C222.147 94.3752 226.717 95.7968 231.065 94.7967C235.412 93.7967 237.139 90.9618 236.131 83.4324C235.131 75.903 234.933 69.258 225.825 70.6961Z" fill="#FAC795"/>
<path d="M219.731 83.6722C213.714 79.8207 217.979 92.491 221.938 89.4164L219.731 83.6722Z" fill="#FAC795"/>
<path d="M220.484 87.1433C220.484 87.1433 223.509 80.2173 222.071 77.7791C220.633 75.3409 226.286 77.4485 226.484 74.7293C226.683 72.0101 233.724 76.4071 234.377 73.878C235.03 71.3489 238.485 69.4976 235.245 67.8198C232.013 66.142 231.294 62.2327 228.435 64.8609C225.583 67.4892 224.104 63.0344 222.087 65.8527C220.071 68.6711 214.558 66.1337 214.855 73.0846C214.996 76.4236 217.384 75.9277 217.054 77.1014C215.55 82.424 218.484 85.1763 220.484 87.1433Z" fill="black"/>
<path d="M218.592 74.5062C218.856 74.6963 221.65 75.9361 222.625 74.5806C223.592 73.2169 225.319 72.7954 225.989 73.2748" stroke="#00192F" stroke-width="0.5" stroke-miterlimit="10" stroke-linecap="round" stroke-linejoin="round"/>
<path d="M222.18 70.5806C222.18 70.5806 224.089 72.3163 226.287 70.9443C228.486 69.5723 230.461 70.0351 230.693 71.4402" stroke="#00192F" stroke-width="0.5" stroke-miterlimit="10" stroke-linecap="round" stroke-linejoin="round"/>
<path d="M224.279 68.0511C224.279 68.0511 228.461 65.5551 230.172 68.2495" stroke="#00192F" stroke-width="0.5" stroke-miterlimit="10" stroke-linecap="round" stroke-linejoin="round"/>
<path d="M228.256 68.8695C228.256 68.8695 231.132 69.7373 231.504 68.324" stroke="#00192F" stroke-width="0.5" stroke-miterlimit="10" stroke-linecap="round" stroke-linejoin="round"/>
<path d="M232.9 69.9275C232.9 69.9275 234.454 71.192 234.148 72.8698" stroke="#00192F" stroke-width="0.5" stroke-miterlimit="10" stroke-linecap="round" stroke-linejoin="round"/>
<path d="M216.939 70.7375C217.353 70.6713 218.601 67.7373 221.361 69.7043" stroke="#00192F" stroke-width="0.5" stroke-miterlimit="10" stroke-linecap="round" stroke-linejoin="round"/>
<path d="M228.568 65.5882C228.568 65.5882 230.56 65.0675 231.693 66.985" stroke="#00192F" stroke-width="0.5" stroke-miterlimit="10" stroke-linecap="round" stroke-linejoin="round"/>
<path d="M229.521 72.886C229.521 72.886 232.323 74.3737 232.199 72.4397" stroke="#00192F" stroke-width="0.5" stroke-miterlimit="10" stroke-linecap="round" stroke-linejoin="round"/>
<path d="M217.486 73.465C218.296 73.3328 220.082 72.6716 221.206 73.4733" stroke="#00192F" stroke-width="0.5" stroke-miterlimit="10" stroke-linecap="round" stroke-linejoin="round"/>
<path d="M217.916 75.3164C217.916 75.3164 216.585 77.3496 217.858 78.953" stroke="#00192F" stroke-width="0.5" stroke-miterlimit="10" stroke-linecap="round" stroke-linejoin="round"/>
<path d="M216.039 72.5143C216.039 72.5143 217.626 71.1423 219.18 71.9936" stroke="#00192F" stroke-width="0.5" stroke-miterlimit="10" stroke-linecap="round" stroke-linejoin="round"/>
<path d="M215.485 78.5562C215.485 78.5562 214.378 79.5479 215.147 80.9613" stroke="#00192F" stroke-width="0.5" stroke-miterlimit="10" stroke-linecap="round" stroke-linejoin="round"/>
<path d="M217.19 80.2173C217.19 80.2173 216.272 81.581 216.942 81.9364" stroke="#00192F" stroke-width="0.5" stroke-miterlimit="10" stroke-linecap="round" stroke-linejoin="round"/>
<path d="M219.023 80.457C219.023 80.457 220.123 82.2175 219.833 84.0854" stroke="#00192F" stroke-width="0.5" stroke-miterlimit="10" stroke-linecap="round" stroke-linejoin="round"/>
<path d="M215.375 74.1343C215.375 74.1343 214.797 75.9112 215.59 77.0518" stroke="#00192F" stroke-width="0.5" stroke-miterlimit="10" stroke-linecap="round" stroke-linejoin="round"/>
<path d="M225.221 93.6643C227.411 94.8297 229.676 94.995 231.502 94.6065" stroke="#00192F" stroke-width="0.5" stroke-miterlimit="10" stroke-linecap="round" stroke-linejoin="round"/>
<path d="M214.229 99.9543C214.733 102.516 217.377 104.748 217.377 104.748L219.345 103.227L223.047 109.616" stroke="#00192F" stroke-width="0.5" stroke-miterlimit="10" stroke-linecap="round" stroke-linejoin="round"/>
<path d="M236.469 108.599C236.75 108.368 239.89 100.88 239.89 100.88L242.056 101.673L242.362 98.8054" stroke="#00192F" stroke-width="0.5" stroke-miterlimit="10" stroke-linecap="round" stroke-linejoin="round"/>
<path d="M205.416 290.404C202.193 288.578 199.688 282.33 195.713 282.759C195.82 282.338 196.572 280.462 196.688 280.106C196.688 280.106 197.92 279.552 203.341 278.99C203.821 281.511 207.929 285.726 209.755 287.47C208.408 287.768 206.342 288.52 205.416 290.404Z" fill="#FFA07C"/>
<path d="M225.691 288.305C222.468 286.478 219.964 280.23 215.988 280.66C216.096 280.238 216.344 278.668 216.459 278.312C216.459 278.312 217.939 277.899 223.361 277.337C223.84 279.858 228.204 283.627 230.03 285.362C228.683 285.668 226.609 286.42 225.691 288.305Z" fill="#FFA07C"/>
<path d="M156.268 288.999H158.805L168.095 231.029H163.227L156.268 288.999Z" fill="#AC290E"/>
<path d="M147.366 174.81V220.135C147.366 229.954 155.325 237.905 165.135 237.905C165.135 237.905 173.822 238.178 183.054 237.806C197.799 237.202 201.344 236.45 204.221 233.814C204.857 233.227 209.717 228.656 209.064 223.317C207.75 212.606 186.195 214.904 178.169 200.605C171.375 188.505 181.781 177.86 173.467 167.868C168.739 162.189 158.978 157.941 152.804 161.933C147.391 165.438 147.357 173.579 147.366 174.81Z" fill="white"/>
<path d="M153.762 171.686L153.787 217.945C153.787 226.202 160.175 232.888 168.052 232.888H197.574" stroke="#A294A1" stroke-width="0.5" stroke-miterlimit="10" stroke-linecap="round" stroke-linejoin="round"/>
<path d="M165.596 208.622C161.877 227.284 165.323 226.549 208.624 229.194C209.012 248.046 211.905 277.891 211.905 277.891C213.533 278.23 217.36 278.577 219.707 278.585C222.162 278.593 224.286 278.304 225.964 277.957C224.732 228.838 227.17 225.491 222.6 216.069C218.492 207.614 187.416 204.076 187.416 204.076L165.596 208.622Z" fill="black"/>
<path d="M156.441 209.697C155.904 212.407 156.036 215.135 156.482 217.598C157.524 223.383 162.193 227.822 167.995 228.756C174.12 229.739 183.17 230.888 193.055 231.152C191.831 249.806 194.154 280.346 194.154 280.346C196.443 280.751 199.229 281.065 202.386 281.04C205.064 281.023 207.444 280.775 209.477 280.436C210.006 274.519 210.742 263.303 211.221 253.517C211.841 241.046 211.94 227.516 209.89 223.284C205.783 214.829 177.922 210.449 177.922 210.449L156.441 209.697Z" fill="black"/>
<path d="M210.659 263.758C212.279 251.641 213.841 225.036 211.304 221.251C207.279 215.234 181.996 209.697 181.996 209.697" stroke="#00192F" stroke-width="0.5" stroke-miterlimit="10" stroke-linecap="round" stroke-linejoin="round"/>
<path d="M162.985 121.261C158.729 122.906 153.547 125.972 153.778 129.336C154.009 132.7 148.794 135.808 150.29 137.956C156.514 146.899 143.298 145.288 154.39 153.42C165.481 161.553 169.886 153.726 178.218 151.552C184.937 149.8 185.491 142.965 182.772 140.808C180.052 138.651 186.425 133.956 179.474 130.832C177.019 129.716 180.342 115.55 162.985 121.261Z" fill="black"/>
<path d="M155.579 205.961C159.571 209.928 186.309 208.333 189.606 202.622C183.366 186.563 187.325 159.958 183.763 155.107C180.829 151.106 176.705 150.495 176.118 150.495C169.572 150.478 164.762 150.949 158.356 152.239C157.687 152.371 155.208 154.627 153.29 159.057C150.91 164.57 153.902 169.008 156.075 177.736C157.472 183.274 158.191 192.456 155.579 205.961Z" fill="#E527BB"/>
<path d="M156.143 157.016C164.292 160.363 176.069 157.387 181.169 153.057" stroke="white" stroke-width="0.5" stroke-miterlimit="10" stroke-linecap="round" stroke-linejoin="round"/>
<path d="M156.646 162.859C164.796 166.206 176.573 163.231 181.673 158.9" stroke="white" stroke-width="0.5" stroke-miterlimit="10" stroke-linecap="round" stroke-linejoin="round"/>
<path d="M157.141 168.702C165.29 172.05 177.067 169.074 182.167 164.743" stroke="white" stroke-width="0.5" stroke-miterlimit="10" stroke-linecap="round" stroke-linejoin="round"/>
<path d="M157.646 174.537C165.796 177.885 177.573 174.909 182.673 170.578" stroke="white" stroke-width="0.5" stroke-miterlimit="10" stroke-linecap="round" stroke-linejoin="round"/>
<path d="M158.143 180.381C166.292 183.728 178.069 180.753 183.169 176.422" stroke="white" stroke-width="0.5" stroke-miterlimit="10" stroke-linecap="round" stroke-linejoin="round"/>
<path d="M158.646 186.224C166.796 189.571 178.573 186.596 183.673 182.265" stroke="white" stroke-width="0.5" stroke-miterlimit="10" stroke-linecap="round" stroke-linejoin="round"/>
<path d="M159.15 192.059C167.3 195.407 179.077 192.431 184.177 188.1" stroke="white" stroke-width="0.5" stroke-miterlimit="10" stroke-linecap="round" stroke-linejoin="round"/>
<path d="M159.646 197.902C167.796 201.25 179.573 198.274 184.673 193.943" stroke="white" stroke-width="0.5" stroke-miterlimit="10" stroke-linecap="round" stroke-linejoin="round"/>
<path d="M160.15 203.746C168.3 207.093 180.077 204.118 185.177 199.787" stroke="white" stroke-width="0.5" stroke-miterlimit="10" stroke-linecap="round" stroke-linejoin="round"/>
<path d="M186.666 155.222C184.021 150.908 180.666 150.833 180.161 150.817C179.781 150.809 177.153 150.577 176.781 150.569L184.773 205.68C188.154 206.638 191.898 207.87 192.766 205.969C186.988 188.737 189.873 160.462 186.666 155.222ZM148.465 159.214C147.325 165.611 151.705 170.372 154.135 179.67C155.681 185.571 156.433 195.382 153.267 209.845C154.912 211.349 160.375 212.531 169.425 212.044C168.805 199.605 169.384 193.547 167.02 168.934C165.623 160.264 165.904 155.743 162.474 151.461C161.317 151.635 159.615 151.916 157.466 152.313C157.309 152.346 157.168 152.371 157.028 152.395C156.251 152.552 149.465 153.586 148.465 159.214Z" fill="#A78BEF"/>
<path d="M161.117 137.923C162.175 145.007 165.275 149.114 169.878 148.131C177.424 146.511 177.11 143.477 176.375 136.353C175.168 124.633 172.102 123.757 167.415 124.237C162.737 124.716 159.597 127.758 161.117 137.923Z" fill="#FFA07C"/>
<path d="M163.647 151.635C171.573 154.338 175.739 165.719 175.739 165.719C175.739 165.719 174.846 151.974 173.334 150.635C172.863 146.098 172.64 143.899 172.177 139.362L162.49 140.362L163.647 151.635Z" fill="#FFA07C"/>
<path d="M172.581 147.387C171.813 147.602 171.499 147.577 170.598 147.445" stroke="#00192F" stroke-width="0.5" stroke-miterlimit="10" stroke-linecap="round" stroke-linejoin="round"/>
<path d="M160.314 138.767C160.504 140.585 161.446 141.982 162.43 141.883C163.405 141.783 164.05 140.221 163.86 138.403C163.67 136.585 162.728 135.188 161.744 135.287C160.769 135.386 160.132 136.948 160.314 138.767Z" fill="#FFA07C"/>
<path d="M212.501 179.067C214.287 177.62 215.915 176.314 217.221 175.504C220.956 173.207 218.477 168.091 213.286 171.57C211.989 172.446 210.559 173.24 209.088 173.975C210.303 175.637 211.501 177.298 212.501 179.067Z" fill="#FFA07C"/>
<path d="M215.938 170.504L221.046 169.975C221.046 169.975 225.236 169.488 225.468 170.273C225.699 171.058 223.335 171.174 223.335 171.174C223.335 171.174 226.451 171.165 226.038 171.934C225.625 172.695 223.435 172.711 223.435 172.711C223.435 172.711 225.716 172.761 225.881 173.306C226.046 173.852 223.211 174.1 223.211 174.1C223.211 174.1 225.335 173.852 225.55 174.571C225.765 175.29 219.938 177.158 215.723 175.86C211.5 174.546 215.938 170.504 215.938 170.504Z" fill="#FFA07C"/>
<path d="M221.898 171.306L224.452 171.025" stroke="#00192F" stroke-width="0.5" stroke-miterlimit="10" stroke-linecap="round" stroke-linejoin="round"/>
<path d="M222.617 172.885L224.609 172.604" stroke="#00192F" stroke-width="0.5" stroke-miterlimit="10" stroke-linecap="round" stroke-linejoin="round"/>
<path d="M222.494 174.355L224.329 173.95" stroke="#00192F" stroke-width="0.5" stroke-miterlimit="10" stroke-linecap="round" stroke-linejoin="round"/>
<path d="M244.477 158.397L227.734 154.607L221.656 181.457L238.398 185.248L244.477 158.397Z" fill="#60A495"/>
<path d="M241.379 156.783L221.967 155.241L219.534 185.858L238.946 187.401L241.379 156.783Z" fill="#A294A1"/>
<path d="M240.215 158.285L223.232 155.781L219.216 183.017L236.198 185.521L240.215 158.285Z" fill="white"/>
<path d="M224.607 158.131L243.509 162.652L244.03 160.371L247.171 163.264L242.261 190.985L219.689 187.017L224.607 158.131Z" fill="#E527BB"/>
<path d="M215.921 177.843L212.871 171.677L207.301 174.306C208.425 177.504 208.4 180.62 209.516 183.81C212.21 180.843 215.921 177.843 215.921 177.843Z" fill="#E527BB"/>
<path d="M211.064 171.198L198.484 177.67C195.335 173.331 193.591 169.463 192.575 166.653C190.434 160.727 190.434 156.536 186.682 153.47C184.707 151.85 182.483 151.197 180.896 150.891C181.343 156.652 181.789 162.413 182.235 168.182C182.235 168.182 184.558 186.414 192.137 188.778C197.592 190.481 209.907 184.224 213.899 180.017C212.717 176.819 212.237 174.389 211.064 171.198Z" fill="#A78BEF"/>
<path d="M197.524 177.67L194.475 178.67" stroke="#AC290E" stroke-width="0.5" stroke-miterlimit="10" stroke-linecap="round" stroke-linejoin="round"/>
<path d="M208.824 172.347L211.841 181.819" stroke="#00192F" stroke-width="0.5" stroke-miterlimit="10" stroke-linecap="round" stroke-linejoin="round"/>
<path d="M216.086 172.62C218.698 174.182 220.144 172.595 220.466 171.818C222.351 172.504 223.227 171.752 223.301 171.306C223.376 170.859 221.268 169.959 220.004 170.091" fill="#FFA07C"/>
<path d="M216.086 172.62C218.698 174.182 220.144 172.595 220.466 171.818C222.351 172.504 223.227 171.752 223.301 171.306C223.376 170.859 221.268 169.959 220.004 170.091" stroke="#00192F" stroke-width="0.5" stroke-miterlimit="10" stroke-linecap="round" stroke-linejoin="round"/>
<path d="M188.451 169.099L189.443 187.662" stroke="#00192F" stroke-width="0.5" stroke-miterlimit="10" stroke-linecap="round" stroke-linejoin="round"/>
<path d="M171.688 128.171C171.688 128.171 169.63 131.411 164.349 132.039C162.373 132.271 165.25 137.552 163.861 139.684C162.431 141.883 164.183 148.321 162.274 148.949C160.365 149.577 158.943 142.99 157.315 137.461C155.687 131.923 159.233 121.328 167.646 120.791C176.06 120.262 177.011 124.741 177.432 128.775C177.597 129.775 174.043 130.99 171.688 128.171Z" fill="black"/>
<path d="M159.926 135.7C159.53 138.056 159.274 141.271 160.753 141.527" stroke="#A294A1" stroke-width="0.5" stroke-miterlimit="10"/>
<path d="M167.736 124.047C167.736 124.047 167.348 125.08 166.075 126.526C164.802 127.964 161.909 129.122 162.851 130.345" stroke="#A294A1" stroke-width="0.5" stroke-miterlimit="10"/>
<path d="M159.67 129.121C156.728 132.915 155.563 133.204 155.736 135.113C155.91 137.031 152.422 140.271 153.331 142.982" stroke="#A294A1" stroke-width="0.5" stroke-miterlimit="10"/>
<path d="M157.844 140.304C157.844 140.304 151.877 146.577 154.381 149.511" stroke="#A294A1" stroke-width="0.5" stroke-miterlimit="10"/>
<path d="M178.82 135.336C178.82 135.336 179.705 136.882 179.225 139.262C178.746 141.643 182.845 142.147 182.845 142.147" stroke="#A294A1" stroke-width="0.5" stroke-miterlimit="10"/>
<path d="M158.193 144.064C158.193 144.064 159.722 146.701 159.036 148.652" stroke="#A294A1" stroke-width="0.5" stroke-miterlimit="10"/>
<path d="M171.152 125.245C171.152 125.245 174.078 127.948 175.855 127.435" stroke="#A294A1" stroke-width="0.5" stroke-miterlimit="10"/>
<path d="M170.201 122.65C170.201 122.65 174.375 122.708 174.854 124.394" stroke="#A294A1" stroke-width="0.5" stroke-miterlimit="10"/>
<path d="M164.565 123.319C164.565 123.319 164.54 125.113 162.705 126.873" stroke="#A294A1" stroke-width="0.5" stroke-miterlimit="10"/>
<path d="M160.737 125.063C160.737 125.063 159.357 126.394 157.803 129.435" stroke="#A294A1" stroke-width="0.5" stroke-miterlimit="10"/>
<path d="M187.543 176.934C190.155 172.504 194.006 169.926 194.775 170.694C195.419 171.339 194.56 171.67 192.824 173.174" fill="#FFA07C"/>
<path d="M187.409 184.836C188.979 183.083 191.442 181.207 192.211 179.868C194.417 176.017 191.483 172.967 186.789 177.331C185.615 178.422 184.285 179.463 182.904 180.455C184.483 181.86 186.037 183.282 187.409 184.836Z" fill="#FFA07C"/>
<path d="M192.819 173.165C195.431 171.645 196.787 171.033 197.001 171.231C197.621 171.793 195.522 173.074 195.522 173.074C195.522 173.074 198.365 171.521 198.382 172.388C198.406 173.256 196.406 174.355 196.406 174.355C196.406 174.355 198.514 173.265 198.944 173.653C199.373 174.05 196.919 175.67 196.919 175.67C196.919 175.67 198.729 174.397 199.291 174.917C199.861 175.43 195.613 181.323 191.001 180.918C188.464 180.695 187.521 176.942 187.521 176.942" fill="#FFA07C"/>
<path d="M194.285 173.901L196.475 172.388" stroke="#00192F" stroke-width="0.5" stroke-miterlimit="10" stroke-linecap="round" stroke-linejoin="round"/>
<path d="M195.764 174.909L197.441 173.678" stroke="#00192F" stroke-width="0.5" stroke-miterlimit="10" stroke-linecap="round" stroke-linejoin="round"/>
<path d="M196.418 176.248L197.889 174.984" stroke="#00192F" stroke-width="0.5" stroke-miterlimit="10" stroke-linecap="round" stroke-linejoin="round"/>
<path d="M189.764 183.422L186.202 177.364L180.945 180.959C182.714 183.902 183.276 186.968 185.053 189.91C187.26 186.497 189.764 183.422 189.764 183.422Z" fill="#E527BB"/>
<path d="M183.524 178.678L173.697 186.447L163.779 162.661L150.662 165.719C150.662 165.719 157.514 191.497 163.217 196.803C173.837 206.705 184.466 191.307 188.16 186.852C186.755 183.745 184.92 181.786 183.524 178.678Z" fill="#A78BEF"/>
<path d="M154.258 177.67C156.746 185.174 160.142 193.943 163.209 196.803C165.292 198.745 167.374 199.712 169.399 199.985" stroke="#00192F" stroke-width="0.5" stroke-miterlimit="10" stroke-linecap="round" stroke-linejoin="round"/>
<path d="M173.755 186.026L171.846 187.373" stroke="#00192F" stroke-width="0.5" stroke-miterlimit="10" stroke-linecap="round" stroke-linejoin="round"/>
<path d="M181.178 180.678L186.649 188.795" stroke="#00192F" stroke-width="0.5" stroke-miterlimit="10" stroke-linecap="round" stroke-linejoin="round"/>
<path d="M247.171 163.264L224.607 158.131" stroke="#00192F" stroke-width="0.5" stroke-miterlimit="10" stroke-linecap="round" stroke-linejoin="round"/>
<path d="M180.111 169.57L182.847 158.131L180.83 155.569L181.996 154.867L180.161 150.825" stroke="#00192F" stroke-width="0.5" stroke-miterlimit="10" stroke-linecap="round" stroke-linejoin="round"/>
<path d="M167.035 170.562L161.837 159.214L162.663 157.024L160.754 155.569L160.291 151.866" stroke="#00192F" stroke-width="0.5" stroke-miterlimit="10" stroke-linecap="round" stroke-linejoin="round"/>
<path d="M237.865 288.395H234.543L243.626 207.167H249.982L237.865 288.395Z" fill="#5E1A1E"/>
<path d="M195.285 285.115C195.376 284.247 195.533 283.47 195.715 282.759C199.69 282.329 202.195 288.578 205.418 290.404C206.335 288.528 208.41 287.768 209.757 287.462C213.063 290.603 217.063 294.157 212.129 294.909C204.682 295.702 198.409 291.074 198.409 291.074L198.699 292.991C197.996 293.066 197.294 293.14 196.591 293.214C196.178 291.727 195.004 287.817 195.285 285.115Z" fill="#A78BEF"/>
<path d="M213.667 291.751C211.675 293.512 207.121 293.33 202.807 291.33C198.493 289.33 197.848 286.784 195.203 287.024" stroke="#00192F" stroke-width="0.5" stroke-miterlimit="10" stroke-linecap="round" stroke-linejoin="round"/>
<path d="M215.559 283.015C215.65 282.147 215.807 281.37 215.989 280.66C219.964 280.23 222.469 286.478 225.692 288.305C226.609 286.429 228.684 285.668 230.031 285.362C233.337 288.503 237.337 292.057 232.403 292.809C224.956 293.603 218.683 288.974 218.683 288.974L218.972 290.892C218.27 290.966 217.567 291.04 216.865 291.115C216.443 289.627 215.27 285.718 215.559 283.015Z" fill="#A78BEF"/>
<path d="M233.931 289.652C231.939 291.412 227.385 291.231 223.071 289.231C218.756 287.23 218.112 284.685 215.467 284.924" stroke="#00192F" stroke-width="0.5" stroke-miterlimit="10" stroke-linecap="round" stroke-linejoin="round"/>
<path d="M298.041 137.114L300.967 132.378L340.821 145.238L339.407 155.007C333.903 154.23 326.018 151.743 321.158 148.684C313.05 147.172 298.041 137.114 298.041 137.114Z" fill="#FFA07C"/>
<path d="M377.353 133.634C376.502 135.461 375.105 145.089 369.228 144.428C363.352 143.767 354.798 130.469 358.393 124.518C361.997 118.575 378.427 124.898 377.353 133.634Z" fill="black"/>
<path d="M375.519 288.999H372.973L363.691 231.029H368.551L375.519 288.999Z" fill="#AC290E"/>
<path d="M338.426 288.999H340.971L350.261 231.029H345.393L338.426 288.999Z" fill="#AC290E"/>
<path d="M306.764 276.816C308.805 275.461 311.913 274.634 311.591 277.709C314.202 277.362 317.244 277.139 319.773 276.444L320.492 283.271C320.492 283.271 312.64 287.379 303.359 287.073C300.978 286.999 298.755 287.288 297.937 285.966C297.168 284.718 297.796 282.47 299.127 281.47C300.326 280.577 301.375 281.213 303.053 280.593C304.251 280.164 305.607 279.147 306.764 276.816Z" fill="#A78BEF"/>
<path d="M303.053 280.817C303.053 280.817 309.342 280.875 309.326 284.883" stroke="#00192F" stroke-width="0.5" stroke-miterlimit="10" stroke-linecap="round" stroke-linejoin="round"/>
<path d="M317.276 282.784C317.276 282.784 317.019 278.478 319.838 277.709" stroke="#00192F" stroke-width="0.5" stroke-miterlimit="10" stroke-linecap="round" stroke-linejoin="round"/>
<path d="M298.58 285.073C303.374 285.594 314.887 285.363 320.061 281.362" stroke="#00192F" stroke-width="0.5" stroke-miterlimit="10" stroke-linecap="round" stroke-linejoin="round"/>
<path d="M323.59 279.453C325.632 278.098 328.739 277.271 328.417 280.346C331.029 279.999 334.07 279.775 336.599 279.081L337.318 285.908C337.318 285.908 329.467 290.016 320.185 289.71C317.805 289.636 315.581 289.925 314.763 288.602C313.994 287.354 314.623 285.106 315.953 284.106C317.152 283.214 318.201 283.85 319.879 283.23C321.078 282.792 322.433 281.784 323.59 279.453Z" fill="#A78BEF"/>
<path d="M319.881 283.453C319.881 283.453 326.171 283.511 326.154 287.52" stroke="#00192F" stroke-width="0.5" stroke-miterlimit="10" stroke-linecap="round" stroke-linejoin="round"/>
<path d="M334.104 285.42C334.104 285.42 333.847 281.114 336.666 280.346" stroke="#00192F" stroke-width="0.5" stroke-miterlimit="10" stroke-linecap="round" stroke-linejoin="round"/>
<path d="M315.408 287.71C320.202 288.23 331.715 287.999 336.889 283.999" stroke="#00192F" stroke-width="0.5" stroke-miterlimit="10" stroke-linecap="round" stroke-linejoin="round"/>
<path d="M384.42 174.81V220.135C384.42 229.954 376.461 237.905 366.651 237.905C366.651 237.905 357.964 238.178 348.732 237.806C333.987 237.202 330.442 236.45 327.566 233.814C326.929 233.227 322.069 228.656 322.722 223.317C324.036 212.606 345.592 214.904 353.617 200.605C360.411 188.505 350.005 177.86 358.32 167.868C363.047 162.189 374.8 157.941 380.974 161.933C386.379 165.438 384.429 173.579 384.42 174.81Z" fill="white"/>
<path d="M377.991 179.827V217.945C377.991 226.202 371.602 232.888 363.726 232.888H334.203" stroke="#A294A1" stroke-width="0.5" stroke-miterlimit="10" stroke-linecap="round" stroke-linejoin="round"/>
<path d="M373.502 202.333L375.767 211.912L340.6 212.68L342.947 202.457L373.502 202.333Z" fill="#A294A1"/>
<path d="M351.608 147.403C360.088 150.891 361.121 163.115 361.121 163.115C356.649 163.537 341.896 160.016 331.979 157.197C332.028 152.189 332.507 146.354 335.739 142.643C338.69 143.643 348.732 146.222 351.608 147.403Z" fill="#A78BEF"/>
<path d="M381.844 157.04C381.844 157.04 375.777 147.693 342.469 144.61C339.948 183.695 341.833 204.498 341.833 204.498C359.272 210.226 373.984 204.498 373.984 204.498L381.844 157.04Z" fill="#A78BEF"/>
<path d="M359.931 157.644C359.931 157.644 359.32 201.266 359.121 201.407C358.915 201.547 355.336 204.531 355.336 204.531L351.947 200.927L357.724 157.635H359.931V157.644Z" fill="#E527BB"/>
<path d="M370.848 141.395L369.591 151.197C369.591 151.197 365.674 152.875 362.624 152.668C359.574 152.462 357.682 150.569 357.682 150.569L358.946 140.064L370.848 141.395Z" fill="#FFA07C"/>
<path d="M345.988 192.621C343.897 192.737 342.649 193.663 346.873 193.993L345.988 192.621Z" fill="#FFA07C"/>
<path d="M346.881 193.993C338.244 193.729 343.203 195.415 345.31 195.522C341.104 195.423 340.244 196.572 344.657 197.01C340.955 196.828 341.409 198.241 344.666 198.514C340.889 198.712 342.905 199.869 345.459 200.117C348.823 200.44 353.617 200.25 353.617 200.25L377.726 203.018C381.742 203.746 386.214 201.01 386.123 196.927V172.107L374.783 172.124L374.767 192.844L353.856 194.34C351.402 192.762 348.873 192.456 345.996 192.621" fill="#FFA07C"/>
<path d="M348.615 194.134L346.02 193.91" stroke="#00192F" stroke-width="0.5" stroke-miterlimit="10" stroke-linecap="round" stroke-linejoin="round"/>
<path d="M346.377 195.638L344.229 195.531" stroke="#00192F" stroke-width="0.5" stroke-miterlimit="10" stroke-linecap="round" stroke-linejoin="round"/>
<path d="M345.873 196.894L344.162 196.96" stroke="#00192F" stroke-width="0.5" stroke-miterlimit="10" stroke-linecap="round" stroke-linejoin="round"/>
<path d="M345.781 198.712L344.352 198.489" stroke="#00192F" stroke-width="0.5" stroke-miterlimit="10" stroke-linecap="round" stroke-linejoin="round"/>
<path d="M377.998 192.927L371.121 192.869" stroke="#00192F" stroke-width="0.5" stroke-miterlimit="10" stroke-linecap="round" stroke-linejoin="round"/>
<path d="M374.271 180.695C371.073 168.735 381.842 157.041 381.842 157.041C381.842 157.041 386.586 161.016 387.297 168.38C387.553 171.041 387.661 178.191 387.718 180.835C382.801 181.893 379.065 181.538 374.271 180.695Z" fill="#A78BEF"/>
<path d="M387.627 178.009C387.627 178.009 381.461 179.298 374.502 178.414" stroke="#00192F" stroke-width="0.5" stroke-miterlimit="10" stroke-linecap="round" stroke-linejoin="round"/>
<path d="M333.221 157.545C333.221 157.545 333.981 146.833 336.824 142.982" stroke="#00192F" stroke-width="0.5" stroke-miterlimit="10" stroke-linecap="round" stroke-linejoin="round"/>
<path d="M301.713 132.692C300.167 130.088 297.977 128.634 295.242 127.452C293.258 126.592 291.671 126.865 295.423 129.138C287.555 124.882 291.357 128.75 293.258 129.824C289.406 127.774 288.076 128.444 291.96 130.898C288.613 129.006 288.382 130.527 291.266 132.295C287.671 130.725 289.01 132.733 291.258 134.147C294.225 136.006 299.581 137.849 299.581 137.849" fill="#FFA07C"/>
<path d="M294.2 130.419L292.258 129.32" stroke="#00192F" stroke-width="0.5" stroke-miterlimit="10" stroke-linecap="round" stroke-linejoin="round"/>
<path d="M293.143 131.344L291.531 130.609" stroke="#00192F" stroke-width="0.5" stroke-miterlimit="10" stroke-linecap="round" stroke-linejoin="round"/>
<path d="M292.217 132.981L291.002 132.114" stroke="#00192F" stroke-width="0.5" stroke-miterlimit="10" stroke-linecap="round" stroke-linejoin="round"/>
<path d="M369.776 149.734L359.411 151.792L357.816 149.486L356.213 149.734L356.577 154.644L359.411 153.106L361.478 155.33L371.073 151.024L369.776 149.734Z" fill="#E527BB"/>
<path d="M360.898 154.701L359.931 157.644H357.733L357.336 154.387L359.41 153.139L360.898 154.701Z" fill="#E527BB"/>
<path d="M355.973 146.412L356.576 154.644L359.411 153.107L361.477 155.33L371.073 151.024" stroke="#00192F" stroke-width="0.5" stroke-miterlimit="10" stroke-linecap="round" stroke-linejoin="round"/>
<path d="M360.262 208.523C363.981 227.185 366.452 226.549 323.16 229.194C322.772 248.046 319.879 277.891 319.879 277.891C318.251 278.23 314.424 278.577 312.077 278.585C309.622 278.593 307.498 278.304 305.82 277.957C307.052 228.838 304.614 225.491 309.184 216.069C313.292 207.614 344.368 204.076 344.368 204.076L360.262 208.523Z" fill="black"/>
<path d="M375.338 209.697C375.875 212.407 375.743 215.135 375.297 217.598C374.255 223.383 369.586 227.822 363.784 228.756C357.659 229.739 348.609 230.888 338.724 231.152C339.947 249.806 337.625 280.346 337.625 280.346C335.336 280.751 332.55 281.065 329.393 281.04C326.715 281.023 324.335 280.775 322.302 280.436C321.773 274.519 321.037 263.303 320.558 253.517C319.938 241.046 319.839 227.516 321.889 223.284C325.996 214.829 353.857 210.449 353.857 210.449L375.338 209.697Z" fill="black"/>
<path d="M321.12 263.758C319.5 251.641 317.938 225.036 320.475 221.251C324.5 215.234 346.956 209.697 346.956 209.697" stroke="#00192F" stroke-width="0.5" stroke-miterlimit="10" stroke-linecap="round" stroke-linejoin="round"/>
<path d="M404.786 288.396H401.472L389.355 207.167H395.703L404.786 288.396Z" fill="#5E1A1E"/>
<path d="M311.014 202.183H360.133V199.53H311.014V202.183Z" fill="#C626A3"/>
<path d="M311.014 202.183H344.338V199.53H311.014V202.183Z" fill="#C626A3"/>
<path d="M303.482 173.223H336.815L344.344 199.539H311.02L303.482 173.223Z" fill="#C626A3"/>
<path d="M301.605 173.223H334.938L342.468 199.539H309.143L301.605 173.223Z" fill="#E527BB"/>
<path d="M355.33 288.396H352.007L339.891 207.167H346.238L355.33 288.396Z" fill="#5E1A1E"/>
<path d="M188.399 288.396H185.076L194.168 207.167H200.515L188.399 288.396Z" fill="#5E1A1E"/>
<path d="M192.657 208.622L397.207 208.622V204.68L192.657 204.68V208.622Z" fill="#C77011"/>
<path d="M287.886 201.299H260.628C259.81 201.299 259.148 200.498 259.148 199.506C259.148 198.514 259.81 197.712 260.628 197.712H287.886V201.299Z" fill="#A78BEF"/>
<path d="M287.886 201.299H278.712C277.894 201.299 277.232 200.498 277.232 199.506C277.232 198.514 277.894 197.712 278.712 197.712H287.886V201.299Z" fill="#8B6BDD"/>
<path d="M287.883 200.729H278.833C278.13 200.729 277.568 200.183 277.568 199.514C277.568 198.845 278.139 198.299 278.833 198.299H287.883V200.729Z" fill="white"/>
<path d="M258.141 197.721H285.399C286.217 197.721 286.878 196.919 286.878 195.927C286.878 194.935 286.217 194.134 285.399 194.134H258.141V197.721Z" fill="white"/>
<path d="M258.141 197.721H285.399C286.217 197.721 286.878 196.919 286.878 195.927C286.878 194.935 286.217 194.134 285.399 194.134H258.141V197.721Z" fill="#E527BB"/>
<path d="M258.141 197.721H267.315C268.133 197.721 268.794 196.919 268.794 195.927C268.794 194.935 268.133 194.134 267.315 194.134H258.141V197.721Z" fill="#C626A3"/>
<path d="M258.141 197.266H267.191C267.893 197.266 268.455 196.663 268.455 195.927C268.455 195.183 267.885 194.588 267.191 194.588H258.141V197.266Z" fill="white"/>
<path d="M285.456 194.134H263.19C262.298 194.134 261.57 193.407 261.57 192.514V192.167C261.57 191.274 262.298 190.547 263.19 190.547H285.456V194.134Z" fill="#DAA7EE"/>
<path d="M285.456 194.134H278.811C277.919 194.134 277.191 193.407 277.191 192.514V192.167C277.191 191.274 277.919 190.547 278.811 190.547H285.456V194.134Z" fill="#C56CE8"/>
<path d="M285.458 193.696H278.68C278.003 193.696 277.457 193.15 277.457 192.473V192.216C277.457 191.539 278.003 190.993 278.68 190.993H285.458V193.696Z" fill="white"/>
<path d="M260.9 190.547H283.009C283.621 190.547 284.117 189.951 284.117 189.208C284.117 188.472 283.621 187.869 283.009 187.869H260.9V190.547Z" fill="#E527BB"/>
<path d="M260.9 190.547H267.736C268.347 190.547 268.843 189.951 268.843 189.208C268.843 188.472 268.347 187.869 267.736 187.869H260.9V190.547Z" fill="#C626A3"/>
<path d="M260.9 190.233H267.645C268.165 190.233 268.587 189.778 268.587 189.216C268.587 188.654 268.165 188.199 267.645 188.199H260.9V190.233Z" fill="white"/>
<path d="M188.994 205.082L400.875 205.082V201.14L188.994 201.14V205.082Z" fill="#D87A13"/>
<path d="M397.206 204.68H192.086" stroke="#00192F" stroke-width="0.5" stroke-miterlimit="10" stroke-linecap="round" stroke-linejoin="round"/>
<path d="M344.343 199.539H309.143" stroke="#00192F" stroke-width="0.5" stroke-miterlimit="10" stroke-linecap="round" stroke-linejoin="round"/>
<path d="M334.939 173.223L342.469 199.539V201.142" stroke="#00192F" stroke-width="0.5" stroke-miterlimit="10" stroke-linecap="round" stroke-linejoin="round"/>
<path d="M300.845 131.436C298.803 127.948 294.01 126.262 293.208 127.03C292.406 127.799 295.423 129.13 295.423 129.13C295.423 129.13 295.134 131.998 297.489 133.105" fill="#FFA07C"/>
<path d="M295.423 129.129C295.423 129.129 295.316 131.758 296.936 132.783" stroke="#00192F" stroke-width="0.5" stroke-miterlimit="10" stroke-linecap="round" stroke-linejoin="round"/>
<path d="M367.618 123.361C372.71 124.559 376.181 128.824 372.817 137.585C369.462 146.346 364.974 147.379 360.866 146.114C356.767 144.841 354.568 142.039 356.072 134.89C357.577 127.733 358.99 121.336 367.618 123.361Z" fill="#FFA07C"/>
<path d="M364.261 145.916C362.104 146.362 359.988 145.883 358.451 144.99" stroke="#00192F" stroke-width="0.5" stroke-miterlimit="10" stroke-linecap="round" stroke-linejoin="round"/>
<path d="M372.535 136.246C378.584 132.981 373.584 144.825 370.014 141.601L372.535 136.246Z" fill="#FFA07C"/>
<path d="M374.146 135.684C372.584 139.18 370.468 139.13 371.683 134.775C370.477 133.237 368.501 130.964 370.014 128.096C371.526 125.237 362.212 130.138 359.245 125.592C353.451 127.039 355.715 119.393 359.121 119.493C361.617 116.674 369.311 115.666 371.989 119.493C376.13 120.013 379.725 123.642 379.023 126.493C378.758 127.584 378.072 128.84 378.221 129.948C378.717 133.527 375.898 135.361 374.146 135.684Z" fill="black"/>
<path d="M370.255 122.071C370.255 122.071 368.669 121.724 368.156 122.724C367.644 123.724 365.792 122.452 365.958 124.171" stroke="#00192F" stroke-width="0.5" stroke-miterlimit="10" stroke-linecap="round" stroke-linejoin="round"/>
<path d="M367.264 120.063C367.264 120.063 365.189 119.857 364.693 121.204C364.197 122.551 361.652 121.22 362.115 123.377" stroke="#00192F" stroke-width="0.5" stroke-miterlimit="10" stroke-linecap="round" stroke-linejoin="round"/>
<path d="M363.477 119.889C363.477 119.889 361.725 119.898 361.427 121.071C361.13 122.245 358.873 121.344 359.452 123.113" stroke="#00192F" stroke-width="0.5" stroke-miterlimit="10" stroke-linecap="round" stroke-linejoin="round"/>
<path d="M374.163 122.873C374.163 122.873 372.518 122.881 372.237 123.98C371.956 125.08 369.849 124.237 370.386 125.89" stroke="#00192F" stroke-width="0.5" stroke-miterlimit="10" stroke-linecap="round" stroke-linejoin="round"/>
<path d="M374.8 180.811L374.205 180.72C374.205 180.72 373.915 178.224 374.205 172.645" stroke="#00192F" stroke-width="0.5" stroke-miterlimit="10" stroke-linecap="round" stroke-linejoin="round"/>
<path d="M341.825 156.065C341.825 156.065 341.544 156.685 341.577 161.801" stroke="#00192F" stroke-width="0.5" stroke-miterlimit="10" stroke-linecap="round" stroke-linejoin="round"/>
<path d="M183.408 79.9779L183.383 79.6225C184.317 79.5564 185.243 79.4241 186.152 79.2092L186.235 79.5564C185.309 79.7712 184.359 79.92 183.408 79.9779ZM180.557 79.9365C179.606 79.8456 178.664 79.6721 177.747 79.4159L177.838 79.077C178.73 79.3249 179.656 79.4902 180.59 79.5812L180.557 79.9365ZM188.946 78.6637L188.805 78.3414C189.665 77.9777 190.491 77.5397 191.276 77.0355L191.467 77.3331C190.673 77.8455 189.822 78.2918 188.946 78.6637ZM175.061 78.4323C174.201 78.0356 173.366 77.5562 172.581 77.019L172.779 76.7297C173.548 77.2587 174.366 77.7215 175.209 78.1183L175.061 78.4323ZM193.739 75.5974L193.5 75.333C194.194 74.7048 194.83 74.0188 195.409 73.2915L195.69 73.5147C195.103 74.2585 194.45 74.961 193.739 75.5974ZM170.366 75.2172C169.68 74.556 169.052 73.837 168.482 73.0684L168.763 72.8617C169.316 73.6138 169.936 74.3164 170.606 74.9693L170.366 75.2172ZM197.277 71.1261L196.963 70.9525C197.409 70.1343 197.798 69.2747 198.095 68.3986L198.426 68.5143C198.12 69.4152 197.731 70.2913 197.277 71.1261ZM166.986 70.6384C166.556 69.7872 166.192 68.9028 165.911 67.9937L166.25 67.8862C166.523 68.7788 166.878 69.6466 167.3 70.4814L166.986 70.6384ZM199.136 65.7456L198.789 65.6877C198.946 64.7703 199.021 63.8364 199.021 62.9024H199.376C199.376 63.8612 199.293 64.8116 199.136 65.7456ZM165.291 65.2001C165.192 64.4397 165.143 63.6711 165.143 62.9024C165.143 62.7123 165.143 62.5305 165.151 62.3487L165.506 62.3569C165.498 62.5388 165.498 62.7206 165.498 62.9024C165.498 63.6545 165.548 64.4067 165.647 65.1505L165.291 65.2001ZM198.938 61.1916C198.847 60.2659 198.674 59.3402 198.426 58.4393L198.765 58.3484C199.012 59.2658 199.194 60.208 199.285 61.1585L198.938 61.1916ZM165.829 59.5799L165.481 59.5138C165.672 58.5798 165.936 57.6542 166.275 56.7698L166.605 56.8938C166.275 57.7616 166.01 58.6625 165.829 59.5799ZM197.459 55.8193C197.062 54.9763 196.599 54.1581 196.07 53.3894L196.359 53.1911C196.897 53.9762 197.376 54.811 197.781 55.6706L197.459 55.8193ZM167.829 54.373L167.523 54.1911C168.011 53.3729 168.564 52.5877 169.176 51.8604L169.449 52.0918C168.845 52.8026 168.3 53.5713 167.829 54.373ZM194.293 51.2323C193.64 50.5628 192.938 49.9429 192.186 49.3892L192.392 49.1082C193.161 49.6702 193.88 50.3066 194.541 50.9843L194.293 51.2323ZM171.424 50.1082L171.193 49.8355C171.92 49.2239 172.697 48.6619 173.515 48.1742L173.697 48.48C172.903 48.9594 172.135 49.5132 171.424 50.1082ZM189.797 47.9263C188.962 47.5048 188.094 47.1576 187.202 46.8766L187.309 46.5378C188.218 46.8188 189.111 47.1742 189.962 47.604L189.797 47.9263ZM176.218 47.2651L176.094 46.9345C176.978 46.5874 177.904 46.3229 178.838 46.1328L178.912 46.4799C177.986 46.6617 177.085 46.9262 176.218 47.2651ZM184.474 46.2816C183.557 46.1576 182.606 46.1163 181.681 46.1493L181.673 45.7939C182.615 45.7609 183.59 45.8105 184.524 45.9344L184.474 46.2816Z" fill="#007CFF"/>
<path d="M189.944 41.0085C186.3 36.3057 180.605 33.2725 174.191 33.2725V53.1828L189.944 41.0085Z" fill="#E527BB"/>
<path d="M174.201 53.1829L184.789 70.0434C190.392 66.5225 194.12 60.2907 194.12 53.1829C194.12 48.5958 192.566 44.3724 189.954 41.0085L174.201 53.1829Z" fill="#A78BEF"/>
<path d="M174.201 33.2725C163.209 33.2725 154.291 42.1904 154.291 53.1828C154.291 64.1752 163.209 73.0931 174.201 73.0931C178.094 73.0931 181.714 71.9774 184.789 70.0433L174.201 53.1828V33.2725Z" fill="#E527BB"/>
<path d="M151.283 88.1685H123V116.443H151.283V88.1685Z" fill="#A78BEF"/>
<path d="M135.216 105.426C130.728 100.781 129.579 94.4498 129.447 88.1685H123V116.443H151.283V110.922C145.415 111.236 139.389 109.757 135.216 105.426Z" fill="#A78BEF"/>
<path d="M135.315 111.5L127.628 104.425C127 103.847 126.959 102.871 127.537 102.243C128.116 101.615 129.091 101.574 129.719 102.152L135.125 107.128L145.448 95.8462C146.026 95.2181 147.001 95.1768 147.629 95.7471C148.258 96.3256 148.299 97.3009 147.729 97.929L135.315 111.5Z" fill="white"/>
<path d="M348.246 82.3912L384.298 81.6887C386.438 81.6474 388.207 83.35 388.248 85.4906L388.496 98.0286C388.538 100.169 386.835 101.938 384.694 101.979L360.966 102.442C359.445 103.764 357.296 105.897 356.949 107.707C356.395 110.567 356.817 111.269 356.817 111.269C356.817 111.269 351.643 105.905 352.329 102.607L348.651 102.682C346.51 102.723 344.741 101.021 344.7 98.8799L344.452 86.3419C344.403 84.2013 346.105 82.4326 348.246 82.3912Z" fill="#E527BB"/>
<path opacity="0.1" d="M346.74 102.227C347.997 100.458 349.6 98.9705 351.608 98.0201C357.303 95.334 364.031 97.3093 370.031 95.8547C376.767 94.2182 384.982 89.3336 384.999 81.7463C386.817 82.0356 388.222 83.5894 388.255 85.4986L388.503 98.0366C388.544 100.177 386.842 101.946 384.701 101.987L360.973 102.45C359.452 103.773 357.303 105.905 356.956 107.715C356.402 110.575 356.824 111.277 356.824 111.277C356.824 111.277 351.65 105.913 352.336 102.615L348.658 102.69C347.955 102.698 347.302 102.533 346.74 102.227Z" fill="#5D81EC"/>
<path d="M373.042 89.9289C373.066 91.3918 374.281 92.5489 375.736 92.5241C377.199 92.491 378.356 91.2844 378.331 89.8297C378.306 88.3668 377.1 87.2097 375.637 87.2345C374.174 87.2676 373.009 88.4743 373.042 89.9289Z" fill="white"/>
<path d="M363.784 90.1105C363.808 91.5734 365.015 92.7305 366.478 92.7057C367.941 92.6809 369.098 91.4743 369.073 90.0114C369.048 88.5485 367.842 87.3914 366.379 87.4162C364.916 87.4492 363.759 88.6476 363.784 90.1105Z" fill="white"/>
<path d="M354.528 90.2924C354.553 91.7553 355.767 92.9124 357.222 92.8876C358.685 92.8546 359.842 91.6562 359.817 90.1933C359.793 88.7304 358.586 87.5733 357.123 87.598C355.66 87.6228 354.503 88.8295 354.528 90.2924Z" fill="white"/>
<path d="M407.453 45.4766C408.738 35.1257 401.389 25.693 391.038 24.408C380.687 23.123 371.254 30.4723 369.969 40.8232C368.684 51.1741 376.034 60.6069 386.385 61.8919C396.735 63.1769 406.168 55.8275 407.453 45.4766Z" fill="#E527BB"/>
<path d="M407.602 43.1553C407.602 32.7248 399.147 24.2698 388.717 24.2698" stroke="#33383C" stroke-width="0.5653" stroke-miterlimit="10" stroke-linecap="round" stroke-linejoin="round"/>
<path d="M388.715 58.5033C397.192 58.5033 404.063 51.6317 404.063 43.1552C404.063 34.6787 397.192 27.8071 388.715 27.8071C380.239 27.8071 373.367 34.6787 373.367 43.1552C373.367 51.6317 380.239 58.5033 388.715 58.5033Z" fill="white"/>
<path d="M400.823 33.7249C398.013 30.1213 393.632 27.8071 388.723 27.8071C380.26 27.8071 373.375 34.6919 373.375 43.1552C373.375 51.6185 380.26 58.5033 388.723 58.5033" stroke="#33383C" stroke-width="0.5653" stroke-miterlimit="10" stroke-linecap="round" stroke-linejoin="round"/>
<path d="M387.657 43.8906C387.698 43.998 387.789 44.0889 387.904 44.1303L400.004 47.7503C400.211 47.8082 400.418 47.6925 400.484 47.4941C400.542 47.2875 400.426 47.0809 400.228 47.0148L388.425 43.4856L389.02 34.3859C389.037 34.171 388.871 33.9891 388.665 33.9809C388.45 33.9643 388.268 34.1296 388.26 34.3363L387.64 43.7418C387.632 43.7914 387.64 43.841 387.657 43.8906Z" fill="#33383C"/>
</svg>
