<svg width="37" height="37" viewBox="0 0 37 37" fill="none" xmlns="http://www.w3.org/2000/svg">
<path d="M18.5 0C14.8411 0 11.2643 1.08501 8.22196 3.11781C5.17965 5.15062 2.80846 8.03992 1.40824 11.4204C0.00801566 14.8008 -0.358346 18.5205 0.355481 22.1092C1.06931 25.6978 2.83126 28.9942 5.41853 31.5815C8.0058 34.1687 11.3022 35.9307 14.8908 36.6445C18.4795 37.3583 22.1992 36.992 25.5796 35.5918C28.9601 34.1915 31.8494 31.8204 33.8822 28.778C35.915 25.7357 37 22.1589 37 18.5C36.9943 13.5952 35.0434 8.89298 31.5752 5.42479C28.107 1.95659 23.4048 0.00567091 18.5 0ZM32.7832 19.1428H35.6972C35.5299 23.4798 33.7321 27.594 30.6631 30.663C27.594 33.7321 23.4799 35.5299 19.1428 35.6972V32.7832C19.1428 32.6127 19.0751 32.4492 18.9545 32.3286C18.834 32.2081 18.6705 32.1404 18.5 32.1404C18.3295 32.1404 18.166 32.2081 18.0455 32.3286C17.9249 32.4492 17.8572 32.6127 17.8572 32.7832V35.6972C13.5202 35.5299 9.40599 33.7321 6.33695 30.663C3.26792 27.594 1.47008 23.4798 1.30276 19.1428H4.21682C4.38731 19.1428 4.55081 19.0751 4.67136 18.9545C4.79191 18.834 4.85963 18.6705 4.85963 18.5C4.85963 18.3295 4.79191 18.166 4.67136 18.0455C4.55081 17.9249 4.38731 17.8572 4.21682 17.8572H1.30276C1.47008 13.5201 3.26792 9.40598 6.33695 6.33694C9.40599 3.26791 13.5202 1.47008 17.8572 1.30276V4.21682C17.8572 4.3873 17.9249 4.5508 18.0455 4.67135C18.166 4.7919 18.3295 4.85962 18.5 4.85962C18.6705 4.85962 18.834 4.7919 18.9545 4.67135C19.0751 4.5508 19.1428 4.3873 19.1428 4.21682V1.30276C23.4799 1.47008 27.594 3.26791 30.6631 6.33694C33.7321 9.40598 35.5299 13.5201 35.6972 17.8572H32.7832C32.6127 17.8572 32.4492 17.9249 32.3287 18.0455C32.2081 18.166 32.1404 18.3295 32.1404 18.5C32.1404 18.6705 32.2081 18.834 32.3287 18.9545C32.4492 19.0751 32.6127 19.1428 32.7832 19.1428Z" fill="#DAA7EE"/>
<path d="M26.9714 9.1193L18.4992 17.5915L15.3838 14.476C15.2619 14.3625 15.1007 14.3007 14.9342 14.3036C14.7677 14.3065 14.6088 14.374 14.491 14.4918C14.3732 14.6096 14.3058 14.7684 14.3028 14.935C14.2999 15.1015 14.3617 15.2627 14.4753 15.3845L18.045 18.9543C18.1655 19.0746 18.3289 19.1422 18.4992 19.1422C18.6696 19.1422 18.833 19.0746 18.9535 18.9543L27.8799 10.0278C27.9935 9.90595 28.0553 9.74478 28.0524 9.57825C28.0494 9.41171 27.982 9.25283 27.8642 9.13505C27.7464 9.01728 27.5875 8.94982 27.421 8.94688C27.2545 8.94394 27.0933 9.00575 26.9714 9.1193Z" fill="#DAA7EE"/>
</svg>
