<svg width="37" height="37" viewBox="0 0 37 37" fill="none" xmlns="http://www.w3.org/2000/svg">
<g clip-path="url(#clip0_379_4359)">
<path d="M14.9803 29.4371C15.293 29.4371 15.5465 29.1836 15.5465 28.8709C15.5465 28.5582 15.293 28.3047 14.9803 28.3047C14.6676 28.3047 14.4141 28.5582 14.4141 28.8709C14.4141 29.1836 14.6676 29.4371 14.9803 29.4371Z" fill="#DAA7EE"/>
<path d="M34.7363 16.1061H29.248V15.1811C29.7918 15.041 30.3188 14.8392 30.8177 14.5589L31.995 15.2708C32.1351 15.3549 32.2921 15.3998 32.4491 15.3998C32.6733 15.3998 32.8975 15.3101 33.0657 15.1419L33.8618 14.3458C34.1477 14.0599 34.1981 13.6227 33.9907 13.2751L33.2788 12.0978C33.531 11.6437 33.7328 11.1672 33.873 10.6683L35.2072 10.3375C35.5997 10.2422 35.8688 9.88902 35.8688 9.49099V8.36417C35.8688 7.96053 35.5941 7.61296 35.2072 7.51765L33.873 7.1869C33.7328 6.68796 33.5366 6.21144 33.2788 5.75735L33.9907 4.58008C34.1981 4.2325 34.1477 3.79523 33.8618 3.50932L33.0657 2.70765C32.7798 2.42174 32.3425 2.37129 31.995 2.57871L30.8177 3.29068C30.3636 3.03841 29.8871 2.83659 29.3881 2.69644L29.0574 1.3622C28.9621 0.969775 28.6145 0.700684 28.2109 0.700684H27.0784C26.6748 0.700684 26.3272 0.975381 26.2319 1.3622L25.9012 2.69644C25.4022 2.83659 24.9257 3.0328 24.4716 3.29068L23.2944 2.57871C22.9524 2.37129 22.5095 2.42174 22.2236 2.70765L21.4275 3.50371C21.1416 3.78962 21.0856 4.2269 21.2986 4.57447L22.0106 5.75174C21.7527 6.20584 21.5565 6.68235 21.4163 7.18129L20.0821 7.51205C19.6897 7.60735 19.4206 7.95493 19.4206 8.35856V9.48538C19.4206 9.51341 19.4318 9.53584 19.4318 9.55826H2.26602C1.4139 9.55826 0.71875 10.2534 0.71875 11.1055V30.1605C0.71875 31.0127 1.4139 31.7078 2.26602 31.7078H10.4397V33.2046H8.55042C7.6983 33.2046 7.00314 33.8998 7.00314 34.7519V35.8787C7.00314 36.1086 7.19375 36.2992 7.4236 36.2992H34.7363C35.5884 36.2992 36.2836 35.604 36.2836 34.7519V17.6534C36.2836 16.8013 35.5884 16.1061 34.7363 16.1061ZM27.7007 9.56387H24.8809C24.8304 9.35084 24.7968 9.13781 24.7968 8.92478C24.7968 7.35508 26.075 6.0769 27.6447 6.0769C29.2144 6.0769 30.4925 7.35508 30.4925 8.92478C30.4925 9.88341 30.016 10.7467 29.248 11.2681V11.1111C29.248 10.259 28.5528 9.56387 27.7007 9.56387ZM20.2839 8.33053L21.8592 7.94371C22.0106 7.90447 22.1339 7.78674 22.1675 7.62978C22.3077 7.04674 22.5375 6.48614 22.8571 5.97599C22.9412 5.84144 22.9412 5.67326 22.8571 5.53871L22.0218 4.10917L22.8627 3.3075L24.253 4.14841C24.3875 4.2325 24.5557 4.2325 24.6903 4.14841C25.206 3.82887 25.761 3.59902 26.3441 3.45887C26.4954 3.42523 26.6187 3.3019 26.658 3.15053L27.0784 1.5472L28.2389 1.56962L28.6257 3.14493C28.665 3.29629 28.7827 3.41962 28.9397 3.45326C29.5227 3.59341 30.0833 3.82326 30.5934 4.14281C30.728 4.2269 30.8962 4.2269 31.0307 4.14281L32.4603 3.3075L33.2619 4.14841L32.421 5.53871C32.3369 5.67326 32.3425 5.84144 32.421 5.97599C32.7406 6.49174 32.9704 7.04674 33.1106 7.62978C33.1442 7.78114 33.2675 7.90447 33.4189 7.94371L35.0222 8.36417L34.9998 9.52462L33.4245 9.91144C33.2731 9.95068 33.1498 10.0684 33.1162 10.2254C32.976 10.8084 32.7462 11.369 32.4266 11.8792C32.3425 12.0137 32.3425 12.1819 32.4266 12.3164L33.2619 13.746L32.421 14.5477L31.0307 13.7067C30.8962 13.6227 30.728 13.6283 30.5934 13.7067C30.1674 13.9702 29.7189 14.1664 29.2424 14.3066V12.2267C30.515 11.6101 31.3278 10.3487 31.3278 8.91917C31.3278 6.88417 29.6741 5.23038 27.6391 5.23038C25.6041 5.23038 23.9503 6.88417 23.9503 8.91917C23.9503 9.1322 23.9727 9.34523 24.0119 9.55826H20.4072C20.3624 9.52462 20.3119 9.49659 20.2559 9.48538L20.2839 8.33053ZM2.26602 30.8669C1.8792 30.8669 1.55966 30.5474 1.55966 30.1605V26.8754H16.7184V30.8669H2.26602ZM16.7184 31.7078V33.2046H11.2806V31.7078H16.7184ZM7.84405 35.4583V34.7519C7.84405 34.3651 8.1636 34.0455 8.55042 34.0455H16.7241V34.7519C16.7241 35.0098 16.7913 35.2452 16.9034 35.4583H7.84405ZM16.7184 17.6534V26.0289H1.55966V11.1111C1.55966 10.7187 1.8792 10.4048 2.26602 10.4048H27.7007C28.0875 10.4048 28.4071 10.7243 28.4071 11.1111V16.1061H18.2657C17.4136 16.1061 16.7184 16.8013 16.7184 17.6534ZM35.4427 34.7519C35.4427 35.1387 35.1231 35.4583 34.7363 35.4583H18.2657C17.8789 35.4583 17.5594 35.1387 17.5594 34.7519V20.6695H35.4427V34.7519ZM35.4427 19.8286H17.5594V17.659C17.5594 17.2666 17.8789 16.9527 18.2657 16.9527H34.7363C35.1287 16.9527 35.4427 17.2722 35.4427 17.659V19.8286Z" fill="#DAA7EE"/>
<path d="M6.16325 14.7943C6.00067 14.6317 5.73158 14.6317 5.56901 14.7943L3.66295 16.7004C3.50037 16.8629 3.50037 17.132 3.66295 17.2946L5.56901 19.2007C5.6531 19.2848 5.75961 19.324 5.86613 19.324C5.97264 19.324 6.07916 19.2848 6.16325 19.2007C6.32583 19.0381 6.32583 18.769 6.16325 18.6064L4.55431 16.9975L6.16325 15.3885C6.33143 15.226 6.33143 14.9569 6.16325 14.7943Z" fill="#DAA7EE"/>
<path d="M11.931 14.7943C11.7684 14.6317 11.4994 14.6317 11.3368 14.7943C11.1742 14.9569 11.1742 15.226 11.3368 15.3885L12.9457 16.9975L11.3368 18.6064C11.1742 18.769 11.1742 19.0381 11.3368 19.2007C11.4209 19.2848 11.5274 19.324 11.6339 19.324C11.7404 19.324 11.8469 19.2848 11.931 19.2007L13.8371 17.2946C13.9156 17.2161 13.9604 17.1096 13.9604 16.9975C13.9604 16.8854 13.9156 16.7788 13.8371 16.7004L11.931 14.7943Z" fill="#DAA7EE"/>
<path d="M10.62 12.9892C10.4069 12.8939 10.1603 12.9836 10.0594 13.1911L6.6733 20.4509C6.57239 20.6639 6.66769 20.9106 6.87512 21.0115C6.93118 21.0395 6.99284 21.0507 7.05451 21.0507C7.21148 21.0507 7.36284 20.9611 7.43572 20.8097L10.8218 13.5498C10.9227 13.3368 10.8274 13.0845 10.62 12.9892Z" fill="#DAA7EE"/>
<path d="M19.3912 31.6461H24.7954C25.0252 31.6461 25.2159 31.4555 25.2159 31.2256C25.2159 30.9958 25.0252 30.8052 24.7954 30.8052H19.3912C19.1613 30.8052 18.9707 30.9958 18.9707 31.2256C18.9707 31.4555 19.1613 31.6461 19.3912 31.6461Z" fill="#DAA7EE"/>
<path d="M19.3912 34.0455H21.9756C22.2054 34.0455 22.396 33.8549 22.396 33.625C22.396 33.3952 22.2054 33.2046 21.9756 33.2046H19.3912C19.1613 33.2046 18.9707 33.3952 18.9707 33.625C18.9707 33.8549 19.1613 34.0455 19.3912 34.0455Z" fill="#DAA7EE"/>
<path d="M33.6099 30.8052H28.2056C27.9758 30.8052 27.7852 30.9958 27.7852 31.2256C27.7852 31.4555 27.9758 31.6461 28.2056 31.6461H33.6099C33.8397 31.6461 34.0303 31.4555 34.0303 31.2256C34.0303 30.9958 33.8397 30.8052 33.6099 30.8052Z" fill="#DAA7EE"/>
<path d="M30.79 33.2046H28.2056C27.9758 33.2046 27.7852 33.3952 27.7852 33.625C27.7852 33.8549 27.9758 34.0455 28.2056 34.0455H30.79C31.0199 34.0455 31.2105 33.8549 31.2105 33.625C31.2105 33.3952 31.0199 33.2046 30.79 33.2046Z" fill="#DAA7EE"/>
<path d="M18.9893 28.9049C18.9949 28.9329 18.9949 28.9665 19.0061 28.9889V28.9946C19.0285 29.0394 19.0566 29.0786 19.0846 29.1123C19.0958 29.1235 19.1014 29.1291 19.1126 29.1347C19.1407 29.1571 19.1687 29.1796 19.2023 29.1964C19.2135 29.202 19.2304 29.2076 19.2416 29.2132C19.2864 29.23 19.3369 29.2412 19.3873 29.2412H33.6043C33.6548 29.2412 33.7052 29.23 33.7501 29.2132C33.7613 29.2076 33.7781 29.202 33.7893 29.1964C33.8229 29.1796 33.851 29.1571 33.879 29.1347C33.8902 29.1235 33.9014 29.1179 33.907 29.1123C33.9407 29.0786 33.9687 29.0394 33.9855 28.9946C33.9855 28.9946 33.9855 28.9946 33.9855 28.9889C33.9967 28.9665 33.9967 28.9385 34.0023 28.9161C34.0079 28.888 34.0192 28.86 34.0192 28.8264C34.0192 28.8264 34.0192 28.8264 34.0192 28.8208V22.5027C34.0192 22.5027 34.0192 22.5027 34.0192 22.4971C34.0192 22.4691 34.0079 22.4411 34.0023 22.4074C33.9967 22.385 33.9967 22.357 33.9855 22.3346C33.9855 22.3346 33.9855 22.3346 33.9855 22.329C33.9799 22.3121 33.9631 22.3009 33.9519 22.2841C33.9351 22.2561 33.9182 22.2224 33.8902 22.2C33.8734 22.1832 33.851 22.172 33.8285 22.1608C33.8061 22.1439 33.7781 22.1271 33.7501 22.1159C33.722 22.1047 33.6884 22.1047 33.6604 22.0991C33.6379 22.0935 33.6211 22.0879 33.5931 22.0879H19.3929C19.3705 22.0879 19.3537 22.0991 19.3313 22.0991C19.2976 22.1047 19.264 22.1047 19.236 22.1159C19.2079 22.1271 19.1911 22.1439 19.1687 22.1608C19.1463 22.1776 19.1238 22.1888 19.1014 22.2056C19.0734 22.228 19.0566 22.2617 19.0398 22.2953C19.0285 22.3121 19.0173 22.3233 19.0117 22.3402V22.3458C19.0005 22.3738 19.0005 22.4018 18.9949 22.4299C18.9893 22.4579 18.9781 22.4803 18.9781 22.5083V22.514V28.8376V28.8432C18.9725 28.8544 18.9837 28.8824 18.9893 28.9049ZM21.3719 28.4059L26.5014 26.1243L31.631 28.4059H21.3719ZM33.1895 28.1761L27.5385 25.659L33.1895 23.1418V28.1761ZM31.631 22.9232L26.5014 25.2049L21.3719 22.9232H31.631ZM19.8134 23.1474L25.4643 25.6646L19.8134 28.1817V23.1474Z" fill="#DAA7EE"/>
<path d="M19.5428 17.8223C19.2288 17.8223 18.9766 18.0745 18.9766 18.3829C18.9766 18.6968 19.2288 18.9491 19.5428 18.9491C19.8567 18.9491 20.109 18.6968 20.109 18.3829C20.109 18.0745 19.8567 17.8223 19.5428 17.8223Z" fill="#DAA7EE"/>
<path d="M21.5721 17.8223C21.2581 17.8223 21.0059 18.0745 21.0059 18.3829C21.0059 18.6968 21.2581 18.9491 21.5721 18.9491C21.886 18.9491 22.1383 18.6968 22.1383 18.3829C22.1383 18.0745 21.886 17.8223 21.5721 17.8223Z" fill="#DAA7EE"/>
<path d="M23.6033 17.8223C23.2894 17.8223 23.0371 18.0745 23.0371 18.3829C23.0371 18.6968 23.2894 18.9491 23.6033 18.9491C23.9173 18.9491 24.1695 18.6968 24.1695 18.3829C24.1695 18.0745 23.9173 17.8223 23.6033 17.8223Z" fill="#DAA7EE"/>
</g>
<defs>
<clipPath id="clip0_379_4359">
<rect width="37" height="37" fill="white"/>
</clipPath>
</defs>
</svg>
