<svg width="47" height="47" viewBox="0 0 47 47" fill="none" xmlns="http://www.w3.org/2000/svg">
<path d="M11.3062 40.9937H5.19238" stroke="#DAA7EE" stroke-width="1.37695" stroke-miterlimit="10" stroke-linecap="round" stroke-linejoin="round"/>
<path d="M8.23682 19.2607H11.9842" stroke="#DAA7EE" stroke-width="1.37695" stroke-miterlimit="10" stroke-linecap="round" stroke-linejoin="round"/>
<path d="M8.23682 22.9292H11.9842" stroke="#DAA7EE" stroke-width="1.37695" stroke-miterlimit="10" stroke-linecap="round" stroke-linejoin="round"/>
<path d="M8.23682 26.5972H11.9842" stroke="#DAA7EE" stroke-width="1.37695" stroke-miterlimit="10" stroke-linecap="round" stroke-linejoin="round"/>
<path d="M4.5127 19.2607H4.90604" stroke="#DAA7EE" stroke-width="1.37695" stroke-miterlimit="10" stroke-linecap="round" stroke-linejoin="round"/>
<path d="M4.5127 22.9292H4.90604" stroke="#DAA7EE" stroke-width="1.37695" stroke-miterlimit="10" stroke-linecap="round" stroke-linejoin="round"/>
<path d="M4.5127 26.5972H4.90604" stroke="#DAA7EE" stroke-width="1.37695" stroke-miterlimit="10" stroke-linecap="round" stroke-linejoin="round"/>
<path d="M7.74414 0.688477V6.08237" stroke="#DAA7EE" stroke-width="1.37695" stroke-miterlimit="10" stroke-linecap="round" stroke-linejoin="round"/>
<path d="M1.11963 0.688477V4.4001C1.11963 5.03221 1.43321 5.45778 1.96581 5.79807C2.22523 5.96386 2.55285 6.08191 2.96006 6.08246C3.31266 6.08292 3.60742 6.00131 3.85105 5.87858C4.47178 5.56601 4.8676 5.09124 4.8676 4.39624V0.688477" stroke="#DAA7EE" stroke-width="1.37695" stroke-miterlimit="10" stroke-linecap="round" stroke-linejoin="round"/>
<path d="M22.3027 0.688477L26.0973 6.08237" stroke="#DAA7EE" stroke-width="1.37695" stroke-miterlimit="10" stroke-linecap="round" stroke-linejoin="round"/>
<path d="M25.8306 0.688477L22.0308 6.08237" stroke="#DAA7EE" stroke-width="1.37695" stroke-miterlimit="10" stroke-linecap="round" stroke-linejoin="round"/>
<path d="M16.1011 0.688477V4.4001C16.1011 5.03221 16.4147 5.45778 16.9473 5.79807C17.2067 5.96386 17.5343 6.08191 17.9415 6.08246C18.2941 6.08292 18.5889 6.00131 18.8325 5.87858C19.4532 5.56601 19.849 5.09124 19.849 4.39624V0.688477" stroke="#DAA7EE" stroke-width="1.37695" stroke-miterlimit="10" stroke-linecap="round" stroke-linejoin="round"/>
<path d="M13.1701 0.688477L10.8892 6.08237" stroke="#DAA7EE" stroke-width="1.37695" stroke-miterlimit="10" stroke-linecap="round" stroke-linejoin="round"/>
<path d="M1.11621 10.4961H45.8835" stroke="#DAA7EE" stroke-width="1.37695" stroke-miterlimit="10" stroke-linecap="round" stroke-linejoin="round"/>
<path d="M41.0845 0.707031H45.8841" stroke="#DAA7EE" stroke-width="1.37695" stroke-miterlimit="10" stroke-linecap="round" stroke-linejoin="round"/>
<path d="M45.8841 3.38574H41.0845" stroke="#DAA7EE" stroke-width="1.37695" stroke-miterlimit="10" stroke-linecap="round" stroke-linejoin="round"/>
<path d="M45.8841 6.06445H41.0845" stroke="#DAA7EE" stroke-width="1.37695" stroke-miterlimit="10" stroke-linecap="round" stroke-linejoin="round"/>
<path d="M44.0471 46.3115H21.4971C20.4831 46.3115 19.6611 45.4895 19.6611 44.4755V16.7627C19.6611 15.7487 20.4831 14.9268 21.4971 14.9268H44.0471C45.0611 14.9268 45.883 15.7487 45.883 16.7627V44.4755C45.883 45.4895 45.0611 46.3115 44.0471 46.3115Z" stroke="#DAA7EE" stroke-width="1.37695" stroke-miterlimit="10" stroke-linecap="round" stroke-linejoin="round"/>
<path d="M4.8651 35.6763H2.95215C1.93816 35.6763 1.11621 36.4982 1.11621 37.5122V44.4756C1.11621 45.4896 1.93816 46.3116 2.95215 46.3116H13.5461C14.56 46.3116 15.382 45.4896 15.382 44.4756V37.5122C15.382 36.4982 14.56 35.6763 13.5461 35.6763H8.07799" stroke="#DAA7EE" stroke-width="1.37695" stroke-miterlimit="10" stroke-linecap="round" stroke-linejoin="round"/>
<path d="M1.11621 22.9685V29.0948C1.11621 30.1088 1.93816 30.9307 2.95215 30.9307H13.5461C14.56 30.9307 15.382 30.1088 15.382 29.0948V16.7627C15.382 15.7487 14.56 14.9268 13.5461 14.9268H2.95215C1.93816 14.9268 1.11621 15.7487 1.11621 16.7627V19.7556" stroke="#DAA7EE" stroke-width="1.37695" stroke-miterlimit="10" stroke-linecap="round" stroke-linejoin="round"/>
<path d="M26.4312 28.0746C27.1473 30.9102 29.7145 33.009 32.7727 33.009C36.3851 33.009 39.3136 30.0806 39.3136 26.4681C39.3136 22.8557 36.3851 19.9272 32.7727 19.9272C29.7146 19.9272 27.1474 22.0261 26.4312 24.8617" stroke="#DAA7EE" stroke-width="1.37695" stroke-miterlimit="10" stroke-linecap="round" stroke-linejoin="round"/>
<path d="M38.7505 41.5562H26.7944C25.5938 41.5562 24.6206 40.5829 24.6206 39.3823C24.6206 38.1817 25.5938 37.2085 26.7944 37.2085H38.7505C39.9511 37.2085 40.9244 38.1817 40.9244 39.3823C40.9244 40.5829 39.9511 41.5562 38.7505 41.5562Z" stroke="#DAA7EE" stroke-width="1.37695" stroke-miterlimit="10" stroke-linecap="round" stroke-linejoin="round"/>
</svg>
