<svg width="13" height="8" viewBox="0 0 13 8" fill="none" xmlns="http://www.w3.org/2000/svg">
<path d="M12.7316 1.25547C12.6593 1.01147 12.5145 0.788652 12.3118 0.609784C12.1091 0.430915 11.8558 0.302402 11.5779 0.237381C9.89283 0.0632323 8.19666 -0.0152451 6.5 0.0024396C4.80337 -0.0152451 3.10721 0.0632323 1.42214 0.237381C1.14421 0.302402 0.890957 0.430915 0.688265 0.609784C0.485565 0.788652 0.340695 1.01147 0.268443 1.25547C0.0838605 2.16244 -0.00588367 3.0823 0.000331642 4.00355C-0.00619241 4.92957 0.0835518 5.85418 0.268443 6.76589C0.344441 7.00596 0.490976 7.22431 0.693424 7.39923C0.895865 7.57416 1.14713 7.69946 1.42214 7.76261C3.10721 7.93675 4.80337 8.01528 6.5 7.99755C8.19666 8.01528 9.89283 7.93675 11.5779 7.76261C11.8529 7.69946 12.1042 7.57416 12.3066 7.39923C12.509 7.22431 12.6556 7.00596 12.7316 6.76589C12.9165 5.85418 13.0062 4.92957 12.9997 4.00355C13.0059 3.0823 12.9162 2.16244 12.7316 1.25547ZM5.16756 5.7051V2.31625L8.57177 4.00355L5.16756 5.69798V5.7051Z" fill="black"/>
</svg>
